<?xml version="1.0" encoding="UTF-8" standalone="no"?>
<!DOCTYPE svg PUBLIC "-//W3C//DTD SVG 1.1//EN"
 "http://www.w3.org/Graphics/SVG/1.1/DTD/svg11.dtd">
<!-- Generated by graphviz version 2.26.3 (20100126.1600)
 -->
<!-- Title: forcebalance.objective.Objective.Indicate Pages: 1 -->
<svg width="704pt" height="42pt"
 viewBox="0.00 0.00 704.00 42.00" xmlns="http://www.w3.org/2000/svg" xmlns:xlink="http://www.w3.org/1999/xlink">
<g id="graph1" class="graph" transform="scale(1 1) rotate(0) translate(4 38)">
<title>forcebalance.objective.Objective.Indicate</title>
<polygon fill="white" stroke="white" points="-4,5 -4,-38 701,-38 701,5 -4,5"/>
<!-- Node1 -->
<g id="node1" class="node"><title>Node1</title>
<polygon fill="#bfbfbf" stroke="black" points="0,-0 0,-34 174,-34 174,-0 0,-0"/>
<text text-anchor="start" x="8" y="-21" font-family="Ubuntu-R" font-size="10.00">forcebalance.objective.Objective.</text>
<text text-anchor="middle" x="87" y="-8" font-family="Ubuntu-R" font-size="10.00">Indicate</text>
</g>
<!-- Node2 -->
<g id="node3" class="node"><title>Node2</title>
<a xlink:href="namespaceforcebalance_1_1nifty.html#a51180e960742cc7547749fdfb3513ec4" target="_top" xlink:title="See documentation for printcool; this is a nice way to print out keys/values in a dictionary...">
<polygon fill="white" stroke="black" points="210,-0 210,-34 354,-34 354,-0 210,-0"/>
<text text-anchor="start" x="218" y="-21" font-family="Ubuntu-R" font-size="10.00">forcebalance.nifty.printcool</text>
<text text-anchor="middle" x="282" y="-8" font-family="Ubuntu-R" font-size="10.00">_dictionary</text>
</a>
</g>
<!-- Node1&#45;&gt;Node2 -->
<g id="edge2" class="edge"><title>Node1&#45;&gt;Node2</title>
<path fill="none" stroke="midnightblue" d="M174.234,-17C182.669,-17 191.207,-17 199.593,-17"/>
<polygon fill="midnightblue" stroke="midnightblue" points="199.729,-20.5001 209.729,-17 199.729,-13.5001 199.729,-20.5001"/>
</g>
<!-- Node3 -->
<g id="node5" class="node"><title>Node3</title>
<a xlink:href="namespaceforcebalance_1_1nifty.html#a11babd62dc7bca389162c6318f9672ca" target="_top" xlink:title="Cool&#45;looking printout for slick formatting of output. ">
<polygon fill="white" stroke="black" points="390,-6.5 390,-27.5 534,-27.5 534,-6.5 390,-6.5"/>
<text text-anchor="middle" x="462" y="-14.5" font-family="Ubuntu-R" font-size="10.00">forcebalance.nifty.printcool</text>
</a>
</g>
<!-- Node2&#45;&gt;Node3 -->
<g id="edge4" class="edge"><title>Node2&#45;&gt;Node3</title>
<path fill="none" stroke="midnightblue" d="M354.176,-17C362.52,-17 371.077,-17 379.544,-17"/>
<polygon fill="midnightblue" stroke="midnightblue" points="379.808,-20.5001 389.808,-17 379.808,-13.5001 379.808,-20.5001"/>
</g>
<!-- Node4 -->
<g id="node7" class="node"><title>Node4</title>
<a xlink:href="namespaceforcebalance_1_1nifty.html#abb8f59044961a12588e0653c2baa8b01" target="_top" xlink:title="forcebalance.nifty.warn\l_press_key">
<polygon fill="white" stroke="black" points="570.5,-0 570.5,-34 695.5,-34 695.5,-0 570.5,-0"/>
<text text-anchor="start" x="578.5" y="-21" font-family="Ubuntu-R" font-size="10.00">forcebalance.nifty.warn</text>
<text text-anchor="middle" x="633" y="-8" font-family="Ubuntu-R" font-size="10.00">_press_key</text>
</a>
</g>
<!-- Node3&#45;&gt;Node4 -->
<g id="edge6" class="edge"><title>Node3&#45;&gt;Node4</title>
<path fill="none" stroke="midnightblue" d="M534.024,-17C542.684,-17 551.533,-17 560.203,-17"/>
<polygon fill="midnightblue" stroke="midnightblue" points="560.278,-20.5001 570.278,-17 560.278,-13.5001 560.278,-20.5001"/>
</g>
</g>
</svg>
