<?xml version="1.0" encoding="UTF-8" standalone="no"?>
<!DOCTYPE svg PUBLIC "-//W3C//DTD SVG 1.1//EN"
 "http://www.w3.org/Graphics/SVG/1.1/DTD/svg11.dtd">
<!-- Generated by graphviz version 2.26.3 (20100126.1600)
 -->
<!-- Title: forcebalance.gmxio.Moments_GMX Pages: 1 -->
<svg width="192pt" height="262pt"
 viewBox="0.00 0.00 192.00 262.00" xmlns="http://www.w3.org/2000/svg" xmlns:xlink="http://www.w3.org/1999/xlink">
<g id="graph1" class="graph" transform="scale(1 1) rotate(0) translate(4 258)">
<title>forcebalance.gmxio.Moments_GMX</title>
<polygon fill="white" stroke="white" points="-4,5 -4,-258 189,-258 189,5 -4,5"/>
<!-- Node1 -->
<g id="node1" class="node"><title>Node1</title>
<polygon fill="#bfbfbf" stroke="black" points="-0.5,-0.5 -0.5,-21.5 184.5,-21.5 184.5,-0.5 -0.5,-0.5"/>
<text text-anchor="middle" x="92" y="-8.5" font-family="Ubuntu-R" font-size="10.00">forcebalance.gmxio.Moments_GMX</text>
</g>
<!-- Node2 -->
<g id="node2" class="node"><title>Node2</title>
<a xlink:href="classforcebalance_1_1moments_1_1Moments.html" target="_top" xlink:title="Subclass of Target for fitting force fields to multipole moments (from experiment or theory)...">
<polygon fill="white" stroke="black" points="4,-58.5 4,-79.5 180,-79.5 180,-58.5 4,-58.5"/>
<text text-anchor="middle" x="92" y="-66.5" font-family="Ubuntu-R" font-size="10.00">forcebalance.moments.Moments</text>
</a>
</g>
<!-- Node2&#45;&gt;Node1 -->
<g id="edge2" class="edge"><title>Node2&#45;&gt;Node1</title>
<path fill="none" stroke="midnightblue" d="M92,-48.1906C92,-39.1684 92,-28.9941 92,-21.5707"/>
<polygon fill="midnightblue" stroke="midnightblue" points="88.5001,-48.3619 92,-58.3619 95.5001,-48.3619 88.5001,-48.3619"/>
</g>
<!-- Node3 -->
<g id="node4" class="node"><title>Node3</title>
<a xlink:href="classforcebalance_1_1target_1_1Target.html" target="_top" xlink:title="Base class for all fitting targets. ">
<polygon fill="white" stroke="black" points="20.5,-116.5 20.5,-137.5 163.5,-137.5 163.5,-116.5 20.5,-116.5"/>
<text text-anchor="middle" x="92" y="-124.5" font-family="Ubuntu-R" font-size="10.00">forcebalance.target.Target</text>
</a>
</g>
<!-- Node3&#45;&gt;Node2 -->
<g id="edge4" class="edge"><title>Node3&#45;&gt;Node2</title>
<path fill="none" stroke="midnightblue" d="M92,-106.191C92,-97.1684 92,-86.9941 92,-79.5707"/>
<polygon fill="midnightblue" stroke="midnightblue" points="88.5001,-106.362 92,-116.362 95.5001,-106.362 88.5001,-106.362"/>
</g>
<!-- Node4 -->
<g id="node6" class="node"><title>Node4</title>
<a xlink:href="classforcebalance_1_1BaseClass.html" target="_top" xlink:title="Provides some nifty functions that are common to all ForceBalance classes. ">
<polygon fill="white" stroke="black" points="26.5,-174.5 26.5,-195.5 157.5,-195.5 157.5,-174.5 26.5,-174.5"/>
<text text-anchor="middle" x="92" y="-182.5" font-family="Ubuntu-R" font-size="10.00">forcebalance.BaseClass</text>
</a>
</g>
<!-- Node4&#45;&gt;Node3 -->
<g id="edge6" class="edge"><title>Node4&#45;&gt;Node3</title>
<path fill="none" stroke="midnightblue" d="M92,-164.191C92,-155.168 92,-144.994 92,-137.571"/>
<polygon fill="midnightblue" stroke="midnightblue" points="88.5001,-164.362 92,-174.362 95.5001,-164.362 88.5001,-164.362"/>
</g>
<!-- Node5 -->
<g id="node8" class="node"><title>Node5</title>
<polygon fill="white" stroke="#bfbfbf" points="69,-232.5 69,-253.5 115,-253.5 115,-232.5 69,-232.5"/>
<text text-anchor="middle" x="92" y="-240.5" font-family="Ubuntu-R" font-size="10.00">object</text>
</g>
<!-- Node5&#45;&gt;Node4 -->
<g id="edge8" class="edge"><title>Node5&#45;&gt;Node4</title>
<path fill="none" stroke="midnightblue" d="M92,-222.191C92,-213.168 92,-202.994 92,-195.571"/>
<polygon fill="midnightblue" stroke="midnightblue" points="88.5001,-222.362 92,-232.362 95.5001,-222.362 88.5001,-222.362"/>
</g>
</g>
</svg>
