<?xml version="1.0" encoding="UTF-8" standalone="no"?>
<!DOCTYPE svg PUBLIC "-//W3C//DTD SVG 1.1//EN"
 "http://www.w3.org/Graphics/SVG/1.1/DTD/svg11.dtd">
<!-- Generated by graphviz version 2.26.3 (20100126.1600)
 -->
<!-- Title: forcebalance.gmxio.GMX.multipole_moments Pages: 1 -->
<svg width="1396pt" height="182pt"
 viewBox="0.00 0.00 1396.00 182.05" xmlns="http://www.w3.org/2000/svg" xmlns:xlink="http://www.w3.org/1999/xlink">
<g id="graph1" class="graph" transform="scale(1 1) rotate(0) translate(4 178.055)">
<title>forcebalance.gmxio.GMX.multipole_moments</title>
<polygon fill="white" stroke="white" points="-4,5 -4,-178.055 1393,-178.055 1393,5 -4,5"/>
<!-- Node1 -->
<g id="node1" class="node"><title>Node1</title>
<polygon fill="#bfbfbf" stroke="black" points="0,-131 0,-165 182,-165 182,-131 0,-131"/>
<text text-anchor="start" x="8" y="-152" font-family="Ubuntu-R" font-size="10.00">forcebalance.gmxio.GMX.multipole</text>
<text text-anchor="middle" x="91" y="-139" font-family="Ubuntu-R" font-size="10.00">_moments</text>
</g>
<!-- Node2 -->
<g id="node3" class="node"><title>Node2</title>
<a xlink:href="namespaceforcebalance_1_1nifty.html#a26e563ec71ed229c30f3d61d3448c8f1" target="_top" xlink:title="Prints a warning but will only do so once in a given run. ">
<polygon fill="white" stroke="black" points="1234,-53.5 1234,-74.5 1388,-74.5 1388,-53.5 1234,-53.5"/>
<text text-anchor="middle" x="1311" y="-61.5" font-family="Ubuntu-R" font-size="10.00">forcebalance.nifty.warn_once</text>
</a>
</g>
<!-- Node1&#45;&gt;Node2 -->
<g id="edge2" class="edge"><title>Node1&#45;&gt;Node2</title>
<path fill="none" stroke="midnightblue" d="M182.347,-156.658C270.109,-164.221 406.493,-174 525,-174 525,-174 525,-174 944,-174 1058.21,-174 1090.98,-174.877 1198,-135 1232.73,-122.06 1268.18,-97.5701 1289.89,-81.0165"/>
<polygon fill="midnightblue" stroke="midnightblue" points="1292.29,-83.5787 1298.04,-74.6773 1287.99,-78.0526 1292.29,-83.5787"/>
</g>
<!-- Node3 -->
<g id="node5" class="node"><title>Node3</title>
<a xlink:href="classforcebalance_1_1gmxio_1_1GMX.html#a26446fe0d7708c321fb39a2944ca5625" target="_top" xlink:title="Optimize the geometry and align the optimized geometry to the starting geometry. ">
<polygon fill="white" stroke="black" points="218.5,-91.5 218.5,-112.5 397.5,-112.5 397.5,-91.5 218.5,-91.5"/>
<text text-anchor="middle" x="308" y="-99.5" font-family="Ubuntu-R" font-size="10.00">forcebalance.gmxio.GMX.optimize</text>
</a>
</g>
<!-- Node1&#45;&gt;Node3 -->
<g id="edge4" class="edge"><title>Node1&#45;&gt;Node3</title>
<path fill="none" stroke="midnightblue" d="M171.494,-130.937C196.93,-125.545 224.569,-119.686 248.282,-114.659"/>
<polygon fill="midnightblue" stroke="midnightblue" points="249.13,-118.057 258.187,-112.56 247.678,-111.209 249.13,-118.057"/>
</g>
<!-- Node4 -->
<g id="node7" class="node"><title>Node4</title>
<a xlink:href="namespaceforcebalance_1_1gmxio.html#a73a881531c27adfddab62cda7f2232cd" target="_top" xlink:title="Create or edit a Gromacs MDP file. ">
<polygon fill="white" stroke="black" points="443.5,-111.5 443.5,-132.5 606.5,-132.5 606.5,-111.5 443.5,-111.5"/>
<text text-anchor="middle" x="525" y="-119.5" font-family="Ubuntu-R" font-size="10.00">forcebalance.gmxio.write_mdp</text>
</a>
</g>
<!-- Node3&#45;&gt;Node4 -->
<g id="edge6" class="edge"><title>Node3&#45;&gt;Node4</title>
<path fill="none" stroke="midnightblue" d="M397.515,-110.25C409.254,-111.332 421.298,-112.442 433.076,-113.528"/>
<polygon fill="midnightblue" stroke="midnightblue" points="433.064,-117.041 443.343,-114.474 433.707,-110.071 433.064,-117.041"/>
</g>
<!-- Node9 -->
<g id="node17" class="node"><title>Node9</title>
<a xlink:href="classforcebalance_1_1gmxio_1_1GMX.html#a0a8687f6d972019fd7eef4cb8a5d86c7" target="_top" xlink:title="Call gromacs and allow for certain expected warnings. ">
<polygon fill="white" stroke="black" points="434,-71.5 434,-92.5 616,-92.5 616,-71.5 434,-71.5"/>
<text text-anchor="middle" x="525" y="-79.5" font-family="Ubuntu-R" font-size="10.00">forcebalance.gmxio.GMX.warngmx</text>
</a>
</g>
<!-- Node3&#45;&gt;Node9 -->
<g id="edge16" class="edge"><title>Node3&#45;&gt;Node9</title>
<path fill="none" stroke="midnightblue" d="M397.515,-93.7498C406.158,-92.9532 414.967,-92.1413 423.713,-91.3352"/>
<polygon fill="midnightblue" stroke="midnightblue" points="424.301,-94.7959 433.938,-90.3928 423.659,-87.8255 424.301,-94.7959"/>
</g>
<!-- Node10 -->
<g id="node19" class="node"><title>Node10</title>
<a xlink:href="classforcebalance_1_1gmxio_1_1GMX.html#a4e472c27d2c244c9ad6edb5b35f46a75" target="_top" xlink:title="Call GROMACS; prepend the gmxpath to the call to the GROMACS program. ">
<polygon fill="white" stroke="black" points="652.5,-32.5 652.5,-53.5 827.5,-53.5 827.5,-32.5 652.5,-32.5"/>
<text text-anchor="middle" x="740" y="-40.5" font-family="Ubuntu-R" font-size="10.00">forcebalance.gmxio.GMX.callgmx</text>
</a>
</g>
<!-- Node3&#45;&gt;Node10 -->
<g id="edge32" class="edge"><title>Node3&#45;&gt;Node10</title>
<path fill="none" stroke="midnightblue" d="M334.547,-91.4679C359.716,-81.9906 398.806,-68.5755 434,-62 502.75,-49.1551 581.541,-44.4906 641.953,-42.9928"/>
<polygon fill="midnightblue" stroke="midnightblue" points="642.328,-46.4855 652.248,-42.7637 642.172,-39.4872 642.328,-46.4855"/>
</g>
<!-- Node5 -->
<g id="node9" class="node"><title>Node5</title>
<a xlink:href="namespaceforcebalance_1_1nifty.html#a185aa094549d280fdc18479459980164" target="_top" xlink:title="If trying to write to a symbolic link, remove it first. ">
<polygon fill="white" stroke="black" points="673,-124.5 673,-145.5 807,-145.5 807,-124.5 673,-124.5"/>
<text text-anchor="middle" x="740" y="-132.5" font-family="Ubuntu-R" font-size="10.00">forcebalance.nifty.wopen</text>
</a>
</g>
<!-- Node4&#45;&gt;Node5 -->
<g id="edge8" class="edge"><title>Node4&#45;&gt;Node5</title>
<path fill="none" stroke="midnightblue" d="M606.589,-126.933C625.031,-128.048 644.556,-129.229 662.811,-130.333"/>
<polygon fill="midnightblue" stroke="midnightblue" points="662.613,-133.827 672.806,-130.937 663.036,-126.84 662.613,-133.827"/>
</g>
<!-- Node6 -->
<g id="node11" class="node"><title>Node6</title>
<a xlink:href="namespaceforcebalance_1_1nifty.html#a51180e960742cc7547749fdfb3513ec4" target="_top" xlink:title="See documentation for printcool; this is a nice way to print out keys/values in a dictionary...">
<polygon fill="white" stroke="black" points="668,-72 668,-106 812,-106 812,-72 668,-72"/>
<text text-anchor="start" x="676" y="-93" font-family="Ubuntu-R" font-size="10.00">forcebalance.nifty.printcool</text>
<text text-anchor="middle" x="740" y="-80" font-family="Ubuntu-R" font-size="10.00">_dictionary</text>
</a>
</g>
<!-- Node4&#45;&gt;Node6 -->
<g id="edge10" class="edge"><title>Node4&#45;&gt;Node6</title>
<path fill="none" stroke="midnightblue" d="M593.618,-111.468C614.094,-108.325 636.745,-104.848 657.986,-101.588"/>
<polygon fill="midnightblue" stroke="midnightblue" points="658.605,-105.034 667.958,-100.058 657.543,-98.1153 658.605,-105.034"/>
</g>
<!-- Node7 -->
<g id="node13" class="node"><title>Node7</title>
<a xlink:href="namespaceforcebalance_1_1nifty.html#a11babd62dc7bca389162c6318f9672ca" target="_top" xlink:title="Cool&#45;looking printout for slick formatting of output. ">
<polygon fill="white" stroke="black" points="872,-98.5 872,-119.5 1016,-119.5 1016,-98.5 872,-98.5"/>
<text text-anchor="middle" x="944" y="-106.5" font-family="Ubuntu-R" font-size="10.00">forcebalance.nifty.printcool</text>
</a>
</g>
<!-- Node6&#45;&gt;Node7 -->
<g id="edge12" class="edge"><title>Node6&#45;&gt;Node7</title>
<path fill="none" stroke="midnightblue" d="M812.21,-96.0794C828.251,-97.6521 845.37,-99.3304 861.778,-100.939"/>
<polygon fill="midnightblue" stroke="midnightblue" points="861.593,-104.438 871.887,-101.93 862.276,-97.471 861.593,-104.438"/>
</g>
<!-- Node8 -->
<g id="node15" class="node"><title>Node8</title>
<a xlink:href="namespaceforcebalance_1_1nifty.html#abb8f59044961a12588e0653c2baa8b01" target="_top" xlink:title="forcebalance.nifty.warn\l_press_key">
<polygon fill="white" stroke="black" points="1066.5,-92 1066.5,-126 1191.5,-126 1191.5,-92 1066.5,-92"/>
<text text-anchor="start" x="1074.5" y="-113" font-family="Ubuntu-R" font-size="10.00">forcebalance.nifty.warn</text>
<text text-anchor="middle" x="1129" y="-100" font-family="Ubuntu-R" font-size="10.00">_press_key</text>
</a>
</g>
<!-- Node7&#45;&gt;Node8 -->
<g id="edge14" class="edge"><title>Node7&#45;&gt;Node8</title>
<path fill="none" stroke="midnightblue" d="M1016.06,-109C1029.31,-109 1043.16,-109 1056.44,-109"/>
<polygon fill="midnightblue" stroke="midnightblue" points="1056.46,-112.5 1066.46,-109 1056.46,-105.5 1056.46,-112.5"/>
</g>
<!-- Node9&#45;&gt;Node10 -->
<g id="edge18" class="edge"><title>Node9&#45;&gt;Node10</title>
<path fill="none" stroke="midnightblue" d="M582.899,-71.4974C610.379,-66.5126 643.399,-60.5231 672.058,-55.3243"/>
<polygon fill="midnightblue" stroke="midnightblue" points="672.783,-58.7501 681.998,-53.5213 671.534,-51.8624 672.783,-58.7501"/>
</g>
<!-- Node11 -->
<g id="node21" class="node"><title>Node11</title>
<a xlink:href="namespaceforcebalance_1_1gmxio.html#acac8488f29b62fb0d4cb54bb5a041026" target="_top" xlink:title="forcebalance.gmxio.rm\l_gmx_baks">
<polygon fill="white" stroke="black" points="880.5,-46 880.5,-80 1007.5,-80 1007.5,-46 880.5,-46"/>
<text text-anchor="start" x="888.5" y="-67" font-family="Ubuntu-R" font-size="10.00">forcebalance.gmxio.rm</text>
<text text-anchor="middle" x="944" y="-54" font-family="Ubuntu-R" font-size="10.00">_gmx_baks</text>
</a>
</g>
<!-- Node10&#45;&gt;Node11 -->
<g id="edge20" class="edge"><title>Node10&#45;&gt;Node11</title>
<path fill="none" stroke="midnightblue" d="M827.698,-51.5979C841.811,-52.9815 856.297,-54.4017 870.045,-55.7496"/>
<polygon fill="midnightblue" stroke="midnightblue" points="870.103,-59.2719 880.397,-56.7644 870.786,-52.3053 870.103,-59.2719"/>
</g>
<!-- Node12 -->
<g id="node23" class="node"><title>Node12</title>
<a xlink:href="classforcebalance_1_1gmxio_1_1GMX.html#a2f9f89e8d7e97c872d4876751df171ce" target="_top" xlink:title="forcebalance.gmxio.GMX.links">
<polygon fill="white" stroke="black" points="864.5,-6.5 864.5,-27.5 1023.5,-27.5 1023.5,-6.5 864.5,-6.5"/>
<text text-anchor="middle" x="944" y="-14.5" font-family="Ubuntu-R" font-size="10.00">forcebalance.gmxio.GMX.links</text>
</a>
</g>
<!-- Node10&#45;&gt;Node12 -->
<g id="edge22" class="edge"><title>Node10&#45;&gt;Node12</title>
<path fill="none" stroke="midnightblue" d="M822.387,-32.4997C832.862,-31.1647 843.623,-29.7931 854.207,-28.4442"/>
<polygon fill="midnightblue" stroke="midnightblue" points="854.808,-31.896 864.285,-27.1598 853.923,-24.9522 854.808,-31.896"/>
</g>
<!-- Node13 -->
<g id="node25" class="node"><title>Node13</title>
<a xlink:href="namespaceforcebalance_1_1nifty.html#ab5417ad84c6c760965cd195c6c387914" target="_top" xlink:title="forcebalance.nifty.onefile">
<polygon fill="white" stroke="black" points="1062,-50.5 1062,-71.5 1196,-71.5 1196,-50.5 1062,-50.5"/>
<text text-anchor="middle" x="1129" y="-58.5" font-family="Ubuntu-R" font-size="10.00">forcebalance.nifty.onefile</text>
</a>
</g>
<!-- Node12&#45;&gt;Node13 -->
<g id="edge24" class="edge"><title>Node12&#45;&gt;Node13</title>
<path fill="none" stroke="midnightblue" d="M988.312,-27.5391C1014.3,-33.7207 1047.34,-41.5771 1074.86,-48.1236"/>
<polygon fill="midnightblue" stroke="midnightblue" points="1074.19,-51.5618 1084.73,-50.4707 1075.81,-44.7518 1074.19,-51.5618"/>
</g>
<!-- Node14 -->
<g id="node28" class="node"><title>Node14</title>
<a xlink:href="namespaceforcebalance_1_1nifty.html#ab182a9da2a2f42cf45942fbee6acf9b1" target="_top" xlink:title="forcebalance.nifty.LinkFile">
<polygon fill="white" stroke="black" points="1060.5,-6.5 1060.5,-27.5 1197.5,-27.5 1197.5,-6.5 1060.5,-6.5"/>
<text text-anchor="middle" x="1129" y="-14.5" font-family="Ubuntu-R" font-size="10.00">forcebalance.nifty.LinkFile</text>
</a>
</g>
<!-- Node12&#45;&gt;Node14 -->
<g id="edge28" class="edge"><title>Node12&#45;&gt;Node14</title>
<path fill="none" stroke="midnightblue" d="M1023.53,-17C1032.33,-17 1041.29,-17 1050.08,-17"/>
<polygon fill="midnightblue" stroke="midnightblue" points="1050.3,-20.5001 1060.3,-17 1050.3,-13.5001 1050.3,-20.5001"/>
</g>
<!-- Node13&#45;&gt;Node2 -->
<g id="edge26" class="edge"><title>Node13&#45;&gt;Node2</title>
<path fill="none" stroke="midnightblue" d="M1196.25,-62.1086C1205.25,-62.2569 1214.58,-62.4107 1223.86,-62.5636"/>
<polygon fill="midnightblue" stroke="midnightblue" points="1223.83,-66.0635 1233.89,-62.7289 1223.95,-59.0645 1223.83,-66.0635"/>
</g>
<!-- Node15 -->
<g id="node30" class="node"><title>Node15</title>
<a xlink:href="namespaceforcebalance_1_1nifty.html#ae87c7def5f8edf2ec30737bdb1d2636f" target="_top" xlink:title="forcebalance.nifty.Missing\lFileInspection">
<polygon fill="white" stroke="black" points="1242,-0 1242,-34 1380,-34 1380,-0 1242,-0"/>
<text text-anchor="start" x="1250" y="-21" font-family="Ubuntu-R" font-size="10.00">forcebalance.nifty.Missing</text>
<text text-anchor="middle" x="1311" y="-8" font-family="Ubuntu-R" font-size="10.00">FileInspection</text>
</a>
</g>
<!-- Node14&#45;&gt;Node15 -->
<g id="edge30" class="edge"><title>Node14&#45;&gt;Node15</title>
<path fill="none" stroke="midnightblue" d="M1197.55,-17C1208.66,-17 1220.24,-17 1231.58,-17"/>
<polygon fill="midnightblue" stroke="midnightblue" points="1231.91,-20.5001 1241.91,-17 1231.91,-13.5001 1231.91,-20.5001"/>
</g>
</g>
</svg>
