<?xml version="1.0" encoding="UTF-8" standalone="no"?>
<!DOCTYPE svg PUBLIC "-//W3C//DTD SVG 1.1//EN"
 "http://www.w3.org/Graphics/SVG/1.1/DTD/svg11.dtd">
<!-- Generated by graphviz version 2.26.3 (20100126.1600)
 -->
<!-- Title: forcebalance.optimizer.Optimizer.NewtonRaphson Pages: 1 -->
<svg width="796pt" height="108pt"
 viewBox="0.00 0.00 796.00 108.00" xmlns="http://www.w3.org/2000/svg" xmlns:xlink="http://www.w3.org/1999/xlink">
<g id="graph1" class="graph" transform="scale(1 1) rotate(0) translate(4 104)">
<title>forcebalance.optimizer.Optimizer.NewtonRaphson</title>
<polygon fill="white" stroke="white" points="-4,5 -4,-104 793,-104 793,5 -4,5"/>
<!-- Node1 -->
<g id="node1" class="node"><title>Node1</title>
<polygon fill="#bfbfbf" stroke="black" points="0.5,-33 0.5,-67 177.5,-67 177.5,-33 0.5,-33"/>
<text text-anchor="start" x="8.5" y="-54" font-family="Ubuntu-R" font-size="10.00">forcebalance.optimizer.Optimizer.</text>
<text text-anchor="middle" x="89" y="-41" font-family="Ubuntu-R" font-size="10.00">NewtonRaphson</text>
</g>
<!-- Node2 -->
<g id="node3" class="node"><title>Node2</title>
<a xlink:href="classforcebalance_1_1optimizer_1_1Optimizer.html#a1d222f82239075ea0d6b9294b2f50e12" target="_top" xlink:title="The main ForceBalance adaptive trust&#45;radius pseudo&#45;Newton optimizer. ">
<polygon fill="white" stroke="black" points="214.5,-33 214.5,-67 391.5,-67 391.5,-33 214.5,-33"/>
<text text-anchor="start" x="222.5" y="-54" font-family="Ubuntu-R" font-size="10.00">forcebalance.optimizer.Optimizer.</text>
<text text-anchor="middle" x="303" y="-41" font-family="Ubuntu-R" font-size="10.00">MainOptimizer</text>
</a>
</g>
<!-- Node1&#45;&gt;Node2 -->
<g id="edge2" class="edge"><title>Node1&#45;&gt;Node2</title>
<path fill="none" stroke="midnightblue" d="M177.587,-50C186.442,-50 195.472,-50 204.422,-50"/>
<polygon fill="midnightblue" stroke="midnightblue" points="204.48,-53.5001 214.48,-50 204.48,-46.5001 204.48,-53.5001"/>
</g>
<!-- Node3 -->
<g id="node5" class="node"><title>Node3</title>
<a xlink:href="namespaceforcebalance_1_1nifty.html#a11babd62dc7bca389162c6318f9672ca" target="_top" xlink:title="Cool&#45;looking printout for slick formatting of output. ">
<polygon fill="white" stroke="black" points="455,-78.5 455,-99.5 599,-99.5 599,-78.5 455,-78.5"/>
<text text-anchor="middle" x="527" y="-86.5" font-family="Ubuntu-R" font-size="10.00">forcebalance.nifty.printcool</text>
</a>
</g>
<!-- Node2&#45;&gt;Node3 -->
<g id="edge4" class="edge"><title>Node2&#45;&gt;Node3</title>
<path fill="none" stroke="midnightblue" d="M391.531,-65.4138C413.18,-69.1831 436.053,-73.1656 456.717,-76.7632"/>
<polygon fill="midnightblue" stroke="midnightblue" points="456.216,-80.2286 466.668,-78.4958 457.417,-73.3323 456.216,-80.2286"/>
</g>
<!-- Node4 -->
<g id="node7" class="node"><title>Node4</title>
<a xlink:href="namespaceforcebalance_1_1nifty.html#abb8f59044961a12588e0653c2baa8b01" target="_top" xlink:title="forcebalance.nifty.warn\l_press_key">
<polygon fill="white" stroke="black" points="662.5,-52 662.5,-86 787.5,-86 787.5,-52 662.5,-52"/>
<text text-anchor="start" x="670.5" y="-73" font-family="Ubuntu-R" font-size="10.00">forcebalance.nifty.warn</text>
<text text-anchor="middle" x="725" y="-60" font-family="Ubuntu-R" font-size="10.00">_press_key</text>
</a>
</g>
<!-- Node2&#45;&gt;Node4 -->
<g id="edge8" class="edge"><title>Node2&#45;&gt;Node4</title>
<path fill="none" stroke="midnightblue" d="M391.722,-53.9946C469.028,-57.4752 579.772,-62.4613 652.032,-65.7147"/>
<polygon fill="midnightblue" stroke="midnightblue" points="652.258,-69.2283 662.405,-66.1818 652.573,-62.2354 652.258,-69.2283"/>
</g>
<!-- Node5 -->
<g id="node10" class="node"><title>Node5</title>
<a xlink:href="classforcebalance_1_1optimizer_1_1Optimizer.html#a0888d8ccc5f89aef8d2fcb40fc3dd599" target="_top" xlink:title="forcebalance.optimizer.Optimizer.adjh">
<polygon fill="white" stroke="black" points="428.5,-0.5 428.5,-21.5 625.5,-21.5 625.5,-0.5 428.5,-0.5"/>
<text text-anchor="middle" x="527" y="-8.5" font-family="Ubuntu-R" font-size="10.00">forcebalance.optimizer.Optimizer.adjh</text>
</a>
</g>
<!-- Node2&#45;&gt;Node5 -->
<g id="edge10" class="edge"><title>Node2&#45;&gt;Node5</title>
<path fill="none" stroke="midnightblue" d="M391.531,-34.5862C413.18,-30.8169 436.053,-26.8344 456.717,-23.2368"/>
<polygon fill="midnightblue" stroke="midnightblue" points="457.417,-26.6677 466.668,-21.5042 456.216,-19.7714 457.417,-26.6677"/>
</g>
<!-- Node3&#45;&gt;Node4 -->
<g id="edge6" class="edge"><title>Node3&#45;&gt;Node4</title>
<path fill="none" stroke="midnightblue" d="M599.043,-81.723C616.42,-79.9677 634.996,-78.0913 652.399,-76.3334"/>
<polygon fill="midnightblue" stroke="midnightblue" points="652.894,-79.8013 662.492,-75.314 652.191,-72.8368 652.894,-79.8013"/>
</g>
</g>
</svg>
