<?xml version="1.0" encoding="UTF-8" standalone="no"?>
<!DOCTYPE svg PUBLIC "-//W3C//DTD SVG 1.1//EN"
 "http://www.w3.org/Graphics/SVG/1.1/DTD/svg11.dtd">
<!-- Generated by graphviz version 2.26.3 (20100126.1600)
 -->
<!-- Title: forcebalance.liquid.Liquid Pages: 1 -->
<svg width="780pt" height="134pt"
 viewBox="0.00 0.00 780.00 134.00" xmlns="http://www.w3.org/2000/svg" xmlns:xlink="http://www.w3.org/1999/xlink">
<g id="graph1" class="graph" transform="scale(1 1) rotate(0) translate(4 130)">
<title>forcebalance.liquid.Liquid</title>
<polygon fill="white" stroke="white" points="-4,5 -4,-130 777,-130 777,5 -4,5"/>
<!-- Node1 -->
<g id="node1" class="node"><title>Node1</title>
<polygon fill="#bfbfbf" stroke="black" points="430.5,-58.5 430.5,-79.5 567.5,-79.5 567.5,-58.5 430.5,-58.5"/>
<text text-anchor="middle" x="499" y="-66.5" font-family="Ubuntu-R" font-size="10.00">forcebalance.liquid.Liquid</text>
</g>
<!-- Node5 -->
<g id="node9" class="node"><title>Node5</title>
<a xlink:href="classforcebalance_1_1gmxio_1_1Liquid__GMX.html" target="_top" xlink:title="forcebalance.gmxio.Liquid_GMX">
<polygon fill="white" stroke="black" points="604,-104.5 604,-125.5 772,-125.5 772,-104.5 604,-104.5"/>
<text text-anchor="middle" x="688" y="-112.5" font-family="Ubuntu-R" font-size="10.00">forcebalance.gmxio.Liquid_GMX</text>
</a>
</g>
<!-- Node1&#45;&gt;Node5 -->
<g id="edge8" class="edge"><title>Node1&#45;&gt;Node5</title>
<path fill="none" stroke="midnightblue" d="M550.846,-81.9362C567.782,-86.1357 586.685,-90.7951 604,-95 616.819,-98.1132 630.751,-101.449 643.516,-104.487"/>
<polygon fill="midnightblue" stroke="midnightblue" points="551.678,-78.5365 541.129,-79.5238 549.991,-85.3302 551.678,-78.5365"/>
</g>
<!-- Node6 -->
<g id="node11" class="node"><title>Node6</title>
<a xlink:href="classforcebalance_1_1openmmio_1_1Liquid__OpenMM.html" target="_top" xlink:title="Condensed phase property matching using OpenMM. ">
<polygon fill="white" stroke="black" points="606,-52 606,-86 770,-86 770,-52 606,-52"/>
<text text-anchor="start" x="614" y="-73" font-family="Ubuntu-R" font-size="10.00">forcebalance.openmmio.Liquid</text>
<text text-anchor="middle" x="688" y="-60" font-family="Ubuntu-R" font-size="10.00">_OpenMM</text>
</a>
</g>
<!-- Node1&#45;&gt;Node6 -->
<g id="edge10" class="edge"><title>Node1&#45;&gt;Node6</title>
<path fill="none" stroke="midnightblue" d="M577.555,-69C586.915,-69 596.489,-69 605.897,-69"/>
<polygon fill="midnightblue" stroke="midnightblue" points="577.501,-65.5001 567.501,-69 577.501,-72.5001 577.501,-65.5001"/>
</g>
<!-- Node7 -->
<g id="node13" class="node"><title>Node7</title>
<a xlink:href="classforcebalance_1_1tinkerio_1_1Liquid__TINKER.html" target="_top" xlink:title="Condensed phase property matching using TINKER. ">
<polygon fill="white" stroke="black" points="614.5,-0 614.5,-34 761.5,-34 761.5,-0 614.5,-0"/>
<text text-anchor="start" x="622.5" y="-21" font-family="Ubuntu-R" font-size="10.00">forcebalance.tinkerio.Liquid</text>
<text text-anchor="middle" x="688" y="-8" font-family="Ubuntu-R" font-size="10.00">_TINKER</text>
</a>
</g>
<!-- Node1&#45;&gt;Node7 -->
<g id="edge12" class="edge"><title>Node1&#45;&gt;Node7</title>
<path fill="none" stroke="midnightblue" d="M547.168,-55.7473C571.133,-49.1538 600.381,-41.1068 626,-34.0582"/>
<polygon fill="midnightblue" stroke="midnightblue" points="545.96,-52.4496 537.247,-58.477 547.817,-59.1988 545.96,-52.4496"/>
</g>
<!-- Node2 -->
<g id="node2" class="node"><title>Node2</title>
<a xlink:href="classforcebalance_1_1target_1_1Target.html" target="_top" xlink:title="Base class for all fitting targets. ">
<polygon fill="white" stroke="black" points="250.5,-58.5 250.5,-79.5 393.5,-79.5 393.5,-58.5 250.5,-58.5"/>
<text text-anchor="middle" x="322" y="-66.5" font-family="Ubuntu-R" font-size="10.00">forcebalance.target.Target</text>
</a>
</g>
<!-- Node2&#45;&gt;Node1 -->
<g id="edge2" class="edge"><title>Node2&#45;&gt;Node1</title>
<path fill="none" stroke="midnightblue" d="M404.007,-69C412.806,-69 421.692,-69 430.313,-69"/>
<polygon fill="midnightblue" stroke="midnightblue" points="403.738,-65.5001 393.738,-69 403.737,-72.5001 403.738,-65.5001"/>
</g>
<!-- Node3 -->
<g id="node4" class="node"><title>Node3</title>
<a xlink:href="classforcebalance_1_1BaseClass.html" target="_top" xlink:title="Provides some nifty functions that are common to all ForceBalance classes. ">
<polygon fill="white" stroke="black" points="82.5,-58.5 82.5,-79.5 213.5,-79.5 213.5,-58.5 82.5,-58.5"/>
<text text-anchor="middle" x="148" y="-66.5" font-family="Ubuntu-R" font-size="10.00">forcebalance.BaseClass</text>
</a>
</g>
<!-- Node3&#45;&gt;Node2 -->
<g id="edge4" class="edge"><title>Node3&#45;&gt;Node2</title>
<path fill="none" stroke="midnightblue" d="M223.964,-69C232.715,-69 241.617,-69 250.309,-69"/>
<polygon fill="midnightblue" stroke="midnightblue" points="223.782,-65.5001 213.782,-69 223.782,-72.5001 223.782,-65.5001"/>
</g>
<!-- Node4 -->
<g id="node6" class="node"><title>Node4</title>
<polygon fill="white" stroke="#bfbfbf" points="0,-58.5 0,-79.5 46,-79.5 46,-58.5 0,-58.5"/>
<text text-anchor="middle" x="23" y="-66.5" font-family="Ubuntu-R" font-size="10.00">object</text>
</g>
<!-- Node4&#45;&gt;Node3 -->
<g id="edge6" class="edge"><title>Node4&#45;&gt;Node3</title>
<path fill="none" stroke="midnightblue" d="M56.3186,-69C64.4195,-69 73.3638,-69 82.3948,-69"/>
<polygon fill="midnightblue" stroke="midnightblue" points="56.2186,-65.5001 46.2186,-69 56.2186,-72.5001 56.2186,-65.5001"/>
</g>
</g>
</svg>
