<?xml version="1.0" encoding="UTF-8" standalone="no"?>
<!DOCTYPE svg PUBLIC "-//W3C//DTD SVG 1.1//EN"
 "http://www.w3.org/Graphics/SVG/1.1/DTD/svg11.dtd">
<!-- Generated by graphviz version 2.26.3 (20100126.1600)
 -->
<!-- Title: forcebalance.Mol2.mol2.set_donnor_acceptor_atoms Pages: 1 -->
<svg width="560pt" height="42pt"
 viewBox="0.00 0.00 560.00 42.00" xmlns="http://www.w3.org/2000/svg" xmlns:xlink="http://www.w3.org/1999/xlink">
<g id="graph1" class="graph" transform="scale(1 1) rotate(0) translate(4 38)">
<title>forcebalance.Mol2.mol2.set_donnor_acceptor_atoms</title>
<polygon fill="white" stroke="white" points="-4,5 -4,-38 557,-38 557,5 -4,5"/>
<!-- Node1 -->
<g id="node1" class="node"><title>Node1</title>
<polygon fill="#bfbfbf" stroke="black" points="0.5,-0 0.5,-34 149.5,-34 149.5,-0 0.5,-0"/>
<text text-anchor="start" x="8.5" y="-21" font-family="Ubuntu-R" font-size="10.00">forcebalance.Mol2.mol2.set</text>
<text text-anchor="middle" x="75" y="-8" font-family="Ubuntu-R" font-size="10.00">_donnor_acceptor_atoms</text>
</g>
<!-- Node2 -->
<g id="node3" class="node"><title>Node2</title>
<a xlink:href="classforcebalance_1_1Mol2_1_1mol2.html#a2d2b34613f2b72ad3a7fcdc94a3de994" target="_top" xlink:title="return a dictionnary of atom instances bonded to the atom, and their types ">
<polygon fill="white" stroke="black" points="186.5,-0 186.5,-34 335.5,-34 335.5,-0 186.5,-0"/>
<text text-anchor="start" x="194.5" y="-21" font-family="Ubuntu-R" font-size="10.00">forcebalance.Mol2.mol2.get</text>
<text text-anchor="middle" x="261" y="-8" font-family="Ubuntu-R" font-size="10.00">_bonded_atoms</text>
</a>
</g>
<!-- Node1&#45;&gt;Node2 -->
<g id="edge2" class="edge"><title>Node1&#45;&gt;Node2</title>
<path fill="none" stroke="midnightblue" d="M149.582,-17C158.393,-17 167.435,-17 176.373,-17"/>
<polygon fill="midnightblue" stroke="midnightblue" points="176.402,-20.5001 186.402,-17 176.402,-13.5001 176.402,-20.5001"/>
</g>
<!-- Node3 -->
<g id="node5" class="node"><title>Node3</title>
<a xlink:href="classforcebalance_1_1Mol2_1_1mol2.html#af5a261aefed1c65fd5f56b5b30e69995" target="_top" xlink:title="return the atom instance given its atom identifier ">
<polygon fill="white" stroke="black" points="372,-6.5 372,-27.5 552,-27.5 552,-6.5 372,-6.5"/>
<text text-anchor="middle" x="462" y="-14.5" font-family="Ubuntu-R" font-size="10.00">forcebalance.Mol2.mol2.get_atom</text>
</a>
</g>
<!-- Node2&#45;&gt;Node3 -->
<g id="edge4" class="edge"><title>Node2&#45;&gt;Node3</title>
<path fill="none" stroke="midnightblue" d="M335.559,-17C344.164,-17 353.041,-17 361.913,-17"/>
<polygon fill="midnightblue" stroke="midnightblue" points="361.914,-20.5001 371.914,-17 361.914,-13.5001 361.914,-20.5001"/>
</g>
</g>
</svg>
