<?xml version="1.0" encoding="UTF-8" standalone="no"?>
<!DOCTYPE svg PUBLIC "-//W3C//DTD SVG 1.1//EN"
 "http://www.w3.org/Graphics/SVG/1.1/DTD/svg11.dtd">
<!-- Generated by graphviz version 2.26.3 (20100126.1600)
 -->
<!-- Title: forcebalance.gmxio.GMX.energy_termnames Pages: 1 -->
<svg width="952pt" height="111pt"
 viewBox="0.00 0.00 952.00 111.00" xmlns="http://www.w3.org/2000/svg" xmlns:xlink="http://www.w3.org/1999/xlink">
<g id="graph1" class="graph" transform="scale(1 1) rotate(0) translate(4 107)">
<title>forcebalance.gmxio.GMX.energy_termnames</title>
<polygon fill="white" stroke="white" points="-4,5 -4,-107 949,-107 949,5 -4,5"/>
<!-- Node1 -->
<g id="node1" class="node"><title>Node1</title>
<polygon fill="#bfbfbf" stroke="black" points="0.5,-26 0.5,-60 171.5,-60 171.5,-26 0.5,-26"/>
<text text-anchor="start" x="8.5" y="-47" font-family="Ubuntu-R" font-size="10.00">forcebalance.gmxio.GMX.energy</text>
<text text-anchor="middle" x="86" y="-34" font-family="Ubuntu-R" font-size="10.00">_termnames</text>
</g>
<!-- Node2 -->
<g id="node3" class="node"><title>Node2</title>
<a xlink:href="classforcebalance_1_1gmxio_1_1GMX.html#a4e472c27d2c244c9ad6edb5b35f46a75" target="_top" xlink:title="Call GROMACS; prepend the gmxpath to the call to the GROMACS program. ">
<polygon fill="white" stroke="black" points="208.5,-52.5 208.5,-73.5 383.5,-73.5 383.5,-52.5 208.5,-52.5"/>
<text text-anchor="middle" x="296" y="-60.5" font-family="Ubuntu-R" font-size="10.00">forcebalance.gmxio.GMX.callgmx</text>
</a>
</g>
<!-- Node1&#45;&gt;Node2 -->
<g id="edge2" class="edge"><title>Node1&#45;&gt;Node2</title>
<path fill="none" stroke="midnightblue" d="M171.718,-51.1636C180.359,-51.9865 189.18,-52.8266 197.936,-53.6606"/>
<polygon fill="midnightblue" stroke="midnightblue" points="197.884,-57.1714 208.171,-54.6353 198.548,-50.2029 197.884,-57.1714"/>
</g>
<!-- Node9 -->
<g id="node17" class="node"><title>Node9</title>
<a xlink:href="namespaceforcebalance_1_1molecule.html#a0dd31eff88d2bed0884ab21a13261d42" target="_top" xlink:title="ONLY matches integers! If you have a decimal point? None shall pass! ">
<polygon fill="white" stroke="black" points="222.5,-12.5 222.5,-33.5 369.5,-33.5 369.5,-12.5 222.5,-12.5"/>
<text text-anchor="middle" x="296" y="-20.5" font-family="Ubuntu-R" font-size="10.00">forcebalance.molecule.isint</text>
</a>
</g>
<!-- Node1&#45;&gt;Node9 -->
<g id="edge16" class="edge"><title>Node1&#45;&gt;Node9</title>
<path fill="none" stroke="midnightblue" d="M171.718,-34.8364C185.094,-33.5625 198.901,-32.2475 212.233,-30.9778"/>
<polygon fill="midnightblue" stroke="midnightblue" points="212.696,-34.4496 222.319,-30.0172 212.033,-27.4811 212.696,-34.4496"/>
</g>
<!-- Node3 -->
<g id="node5" class="node"><title>Node3</title>
<a xlink:href="namespaceforcebalance_1_1gmxio.html#acac8488f29b62fb0d4cb54bb5a041026" target="_top" xlink:title="forcebalance.gmxio.rm\l_gmx_baks">
<polygon fill="white" stroke="black" points="436.5,-69 436.5,-103 563.5,-103 563.5,-69 436.5,-69"/>
<text text-anchor="start" x="444.5" y="-90" font-family="Ubuntu-R" font-size="10.00">forcebalance.gmxio.rm</text>
<text text-anchor="middle" x="500" y="-77" font-family="Ubuntu-R" font-size="10.00">_gmx_baks</text>
</a>
</g>
<!-- Node2&#45;&gt;Node3 -->
<g id="edge4" class="edge"><title>Node2&#45;&gt;Node3</title>
<path fill="none" stroke="midnightblue" d="M383.698,-72.8876C397.95,-74.4943 412.581,-76.1439 426.45,-77.7075"/>
<polygon fill="midnightblue" stroke="midnightblue" points="426.068,-81.1866 436.397,-78.8291 426.852,-74.2307 426.068,-81.1866"/>
</g>
<!-- Node4 -->
<g id="node7" class="node"><title>Node4</title>
<a xlink:href="classforcebalance_1_1gmxio_1_1GMX.html#a2f9f89e8d7e97c872d4876751df171ce" target="_top" xlink:title="forcebalance.gmxio.GMX.links">
<polygon fill="white" stroke="black" points="420.5,-29.5 420.5,-50.5 579.5,-50.5 579.5,-29.5 420.5,-29.5"/>
<text text-anchor="middle" x="500" y="-37.5" font-family="Ubuntu-R" font-size="10.00">forcebalance.gmxio.GMX.links</text>
</a>
</g>
<!-- Node2&#45;&gt;Node4 -->
<g id="edge6" class="edge"><title>Node2&#45;&gt;Node4</title>
<path fill="none" stroke="midnightblue" d="M383.698,-53.1124C392.564,-52.1128 401.578,-51.0966 410.463,-50.0949"/>
<polygon fill="midnightblue" stroke="midnightblue" points="410.881,-53.5701 420.425,-48.9716 410.096,-46.6141 410.881,-53.5701"/>
</g>
<!-- Node5 -->
<g id="node9" class="node"><title>Node5</title>
<a xlink:href="namespaceforcebalance_1_1nifty.html#ab5417ad84c6c760965cd195c6c387914" target="_top" xlink:title="forcebalance.nifty.onefile">
<polygon fill="white" stroke="black" points="618,-50.5 618,-71.5 752,-71.5 752,-50.5 618,-50.5"/>
<text text-anchor="middle" x="685" y="-58.5" font-family="Ubuntu-R" font-size="10.00">forcebalance.nifty.onefile</text>
</a>
</g>
<!-- Node4&#45;&gt;Node5 -->
<g id="edge8" class="edge"><title>Node4&#45;&gt;Node5</title>
<path fill="none" stroke="midnightblue" d="M579.53,-49.0278C588.88,-50.0891 598.41,-51.1708 607.727,-52.2285"/>
<polygon fill="midnightblue" stroke="midnightblue" points="607.406,-55.7144 617.737,-53.3647 608.195,-48.759 607.406,-55.7144"/>
</g>
<!-- Node7 -->
<g id="node13" class="node"><title>Node7</title>
<a xlink:href="namespaceforcebalance_1_1nifty.html#ab182a9da2a2f42cf45942fbee6acf9b1" target="_top" xlink:title="forcebalance.nifty.LinkFile">
<polygon fill="white" stroke="black" points="616.5,-9.5 616.5,-30.5 753.5,-30.5 753.5,-9.5 616.5,-9.5"/>
<text text-anchor="middle" x="685" y="-17.5" font-family="Ubuntu-R" font-size="10.00">forcebalance.nifty.LinkFile</text>
</a>
</g>
<!-- Node4&#45;&gt;Node7 -->
<g id="edge12" class="edge"><title>Node4&#45;&gt;Node7</title>
<path fill="none" stroke="midnightblue" d="M579.53,-31.4021C588.329,-30.4509 597.287,-29.4825 606.078,-28.5321"/>
<polygon fill="midnightblue" stroke="midnightblue" points="606.736,-31.9815 616.302,-27.4268 605.984,-25.022 606.736,-31.9815"/>
</g>
<!-- Node6 -->
<g id="node11" class="node"><title>Node6</title>
<a xlink:href="namespaceforcebalance_1_1nifty.html#a26e563ec71ed229c30f3d61d3448c8f1" target="_top" xlink:title="Prints a warning but will only do so once in a given run. ">
<polygon fill="white" stroke="black" points="790,-52.5 790,-73.5 944,-73.5 944,-52.5 790,-52.5"/>
<text text-anchor="middle" x="867" y="-60.5" font-family="Ubuntu-R" font-size="10.00">forcebalance.nifty.warn_once</text>
</a>
</g>
<!-- Node5&#45;&gt;Node6 -->
<g id="edge10" class="edge"><title>Node5&#45;&gt;Node6</title>
<path fill="none" stroke="midnightblue" d="M752.253,-61.739C761.251,-61.8379 770.582,-61.9405 779.859,-62.0424"/>
<polygon fill="midnightblue" stroke="midnightblue" points="779.849,-65.5424 789.887,-62.1526 779.926,-58.5428 779.849,-65.5424"/>
</g>
<!-- Node8 -->
<g id="node15" class="node"><title>Node8</title>
<a xlink:href="namespaceforcebalance_1_1nifty.html#ae87c7def5f8edf2ec30737bdb1d2636f" target="_top" xlink:title="forcebalance.nifty.Missing\lFileInspection">
<polygon fill="white" stroke="black" points="798,-0 798,-34 936,-34 936,-0 798,-0"/>
<text text-anchor="start" x="806" y="-21" font-family="Ubuntu-R" font-size="10.00">forcebalance.nifty.Missing</text>
<text text-anchor="middle" x="867" y="-8" font-family="Ubuntu-R" font-size="10.00">FileInspection</text>
</a>
</g>
<!-- Node7&#45;&gt;Node8 -->
<g id="edge14" class="edge"><title>Node7&#45;&gt;Node8</title>
<path fill="none" stroke="midnightblue" d="M753.547,-18.8701C764.656,-18.687 776.242,-18.496 787.583,-18.3091"/>
<polygon fill="midnightblue" stroke="midnightblue" points="787.969,-21.8033 797.91,-18.1389 787.853,-14.8042 787.969,-21.8033"/>
</g>
</g>
</svg>
