<?xml version="1.0" encoding="UTF-8" standalone="no"?>
<!DOCTYPE svg PUBLIC "-//W3C//DTD SVG 1.1//EN"
 "http://www.w3.org/Graphics/SVG/1.1/DTD/svg11.dtd">
<!-- Generated by graphviz version 2.26.3 (20100126.1600)
 -->
<!-- Title: forcebalance.interaction.Interaction.indicate Pages: 1 -->
<svg width="666pt" height="42pt"
 viewBox="0.00 0.00 666.00 42.00" xmlns="http://www.w3.org/2000/svg" xmlns:xlink="http://www.w3.org/1999/xlink">
<g id="graph1" class="graph" transform="scale(1 1) rotate(0) translate(4 38)">
<title>forcebalance.interaction.Interaction.indicate</title>
<polygon fill="white" stroke="white" points="-4,5 -4,-38 663,-38 663,5 -4,5"/>
<!-- Node1 -->
<g id="node1" class="node"><title>Node1</title>
<polygon fill="#bfbfbf" stroke="black" points="0.5,-0 0.5,-34 135.5,-34 135.5,-0 0.5,-0"/>
<text text-anchor="start" x="8.5" y="-21" font-family="Ubuntu-R" font-size="10.00">forcebalance.interaction.</text>
<text text-anchor="middle" x="68" y="-8" font-family="Ubuntu-R" font-size="10.00">Interaction.indicate</text>
</g>
<!-- Node2 -->
<g id="node3" class="node"><title>Node2</title>
<a xlink:href="namespaceforcebalance_1_1nifty.html#a51180e960742cc7547749fdfb3513ec4" target="_top" xlink:title="See documentation for printcool; this is a nice way to print out keys/values in a dictionary...">
<polygon fill="white" stroke="black" points="172,-0 172,-34 316,-34 316,-0 172,-0"/>
<text text-anchor="start" x="180" y="-21" font-family="Ubuntu-R" font-size="10.00">forcebalance.nifty.printcool</text>
<text text-anchor="middle" x="244" y="-8" font-family="Ubuntu-R" font-size="10.00">_dictionary</text>
</a>
</g>
<!-- Node1&#45;&gt;Node2 -->
<g id="edge2" class="edge"><title>Node1&#45;&gt;Node2</title>
<path fill="none" stroke="midnightblue" d="M135.543,-17C144.113,-17 152.957,-17 161.725,-17"/>
<polygon fill="midnightblue" stroke="midnightblue" points="161.962,-20.5001 171.962,-17 161.962,-13.5001 161.962,-20.5001"/>
</g>
<!-- Node3 -->
<g id="node5" class="node"><title>Node3</title>
<a xlink:href="namespaceforcebalance_1_1nifty.html#a11babd62dc7bca389162c6318f9672ca" target="_top" xlink:title="Cool&#45;looking printout for slick formatting of output. ">
<polygon fill="white" stroke="black" points="352,-6.5 352,-27.5 496,-27.5 496,-6.5 352,-6.5"/>
<text text-anchor="middle" x="424" y="-14.5" font-family="Ubuntu-R" font-size="10.00">forcebalance.nifty.printcool</text>
</a>
</g>
<!-- Node2&#45;&gt;Node3 -->
<g id="edge4" class="edge"><title>Node2&#45;&gt;Node3</title>
<path fill="none" stroke="midnightblue" d="M316.176,-17C324.52,-17 333.077,-17 341.544,-17"/>
<polygon fill="midnightblue" stroke="midnightblue" points="341.808,-20.5001 351.808,-17 341.808,-13.5001 341.808,-20.5001"/>
</g>
<!-- Node4 -->
<g id="node7" class="node"><title>Node4</title>
<a xlink:href="namespaceforcebalance_1_1nifty.html#abb8f59044961a12588e0653c2baa8b01" target="_top" xlink:title="forcebalance.nifty.warn\l_press_key">
<polygon fill="white" stroke="black" points="532.5,-0 532.5,-34 657.5,-34 657.5,-0 532.5,-0"/>
<text text-anchor="start" x="540.5" y="-21" font-family="Ubuntu-R" font-size="10.00">forcebalance.nifty.warn</text>
<text text-anchor="middle" x="595" y="-8" font-family="Ubuntu-R" font-size="10.00">_press_key</text>
</a>
</g>
<!-- Node3&#45;&gt;Node4 -->
<g id="edge6" class="edge"><title>Node3&#45;&gt;Node4</title>
<path fill="none" stroke="midnightblue" d="M496.024,-17C504.684,-17 513.533,-17 522.203,-17"/>
<polygon fill="midnightblue" stroke="midnightblue" points="522.278,-20.5001 532.278,-17 522.278,-13.5001 522.278,-20.5001"/>
</g>
</g>
</svg>
