<?xml version="1.0" encoding="UTF-8" standalone="no"?>
<!DOCTYPE svg PUBLIC "-//W3C//DTD SVG 1.1//EN"
 "http://www.w3.org/Graphics/SVG/1.1/DTD/svg11.dtd">
<!-- Generated by graphviz version 2.26.3 (20100126.1600)
 -->
<!-- Title: forcebalance.thermo.Thermo.indicate Pages: 1 -->
<svg width="728pt" height="65pt"
 viewBox="0.00 0.00 728.00 65.00" xmlns="http://www.w3.org/2000/svg" xmlns:xlink="http://www.w3.org/1999/xlink">
<g id="graph1" class="graph" transform="scale(1 1) rotate(0) translate(4 61)">
<title>forcebalance.thermo.Thermo.indicate</title>
<polygon fill="white" stroke="white" points="-4,5 -4,-61 725,-61 725,5 -4,5"/>
<!-- Node1 -->
<g id="node1" class="node"><title>Node1</title>
<polygon fill="#bfbfbf" stroke="black" points="0.5,-6.5 0.5,-27.5 197.5,-27.5 197.5,-6.5 0.5,-6.5"/>
<text text-anchor="middle" x="99" y="-14.5" font-family="Ubuntu-R" font-size="10.00">forcebalance.thermo.Thermo.indicate</text>
</g>
<!-- Node2 -->
<g id="node3" class="node"><title>Node2</title>
<a xlink:href="namespaceforcebalance_1_1nifty.html#a51180e960742cc7547749fdfb3513ec4" target="_top" xlink:title="See documentation for printcool; this is a nice way to print out keys/values in a dictionary...">
<polygon fill="white" stroke="black" points="234,-23 234,-57 378,-57 378,-23 234,-23"/>
<text text-anchor="start" x="242" y="-44" font-family="Ubuntu-R" font-size="10.00">forcebalance.nifty.printcool</text>
<text text-anchor="middle" x="306" y="-31" font-family="Ubuntu-R" font-size="10.00">_dictionary</text>
</a>
</g>
<!-- Node1&#45;&gt;Node2 -->
<g id="edge2" class="edge"><title>Node1&#45;&gt;Node2</title>
<path fill="none" stroke="midnightblue" d="M193.716,-27.524C203.75,-28.6389 213.896,-29.7662 223.771,-30.8634"/>
<polygon fill="midnightblue" stroke="midnightblue" points="223.623,-34.3684 233.948,-31.9942 224.396,-27.4112 223.623,-34.3684"/>
</g>
<!-- Node3 -->
<g id="node5" class="node"><title>Node3</title>
<a xlink:href="namespaceforcebalance_1_1nifty.html#a11babd62dc7bca389162c6318f9672ca" target="_top" xlink:title="Cool&#45;looking printout for slick formatting of output. ">
<polygon fill="white" stroke="black" points="414,-6.5 414,-27.5 558,-27.5 558,-6.5 414,-6.5"/>
<text text-anchor="middle" x="486" y="-14.5" font-family="Ubuntu-R" font-size="10.00">forcebalance.nifty.printcool</text>
</a>
</g>
<!-- Node1&#45;&gt;Node3 -->
<g id="edge8" class="edge"><title>Node1&#45;&gt;Node3</title>
<path fill="none" stroke="midnightblue" d="M197.793,-14.5516C209.987,-14.324 222.279,-14.1302 234,-14 297.996,-13.289 314.006,-13.1114 378,-14 386.358,-14.1161 395.079,-14.2826 403.782,-14.4786"/>
<polygon fill="midnightblue" stroke="midnightblue" points="403.889,-17.982 413.97,-14.7209 404.056,-10.984 403.889,-17.982"/>
</g>
<!-- Node2&#45;&gt;Node3 -->
<g id="edge4" class="edge"><title>Node2&#45;&gt;Node3</title>
<path fill="none" stroke="midnightblue" d="M378.176,-30.7775C386.612,-29.6996 395.265,-28.5939 403.824,-27.5003"/>
<polygon fill="midnightblue" stroke="midnightblue" points="404.332,-30.9639 413.808,-26.2245 403.445,-24.0203 404.332,-30.9639"/>
</g>
<!-- Node4 -->
<g id="node7" class="node"><title>Node4</title>
<a xlink:href="namespaceforcebalance_1_1nifty.html#abb8f59044961a12588e0653c2baa8b01" target="_top" xlink:title="forcebalance.nifty.warn\l_press_key">
<polygon fill="white" stroke="black" points="594.5,-0 594.5,-34 719.5,-34 719.5,-0 594.5,-0"/>
<text text-anchor="start" x="602.5" y="-21" font-family="Ubuntu-R" font-size="10.00">forcebalance.nifty.warn</text>
<text text-anchor="middle" x="657" y="-8" font-family="Ubuntu-R" font-size="10.00">_press_key</text>
</a>
</g>
<!-- Node3&#45;&gt;Node4 -->
<g id="edge6" class="edge"><title>Node3&#45;&gt;Node4</title>
<path fill="none" stroke="midnightblue" d="M558.024,-17C566.684,-17 575.533,-17 584.203,-17"/>
<polygon fill="midnightblue" stroke="midnightblue" points="584.278,-20.5001 594.278,-17 584.278,-13.5001 584.278,-20.5001"/>
</g>
</g>
</svg>
