<?xml version="1.0" encoding="UTF-8" standalone="no"?>
<!DOCTYPE svg PUBLIC "-//W3C//DTD SVG 1.1//EN"
 "http://www.w3.org/Graphics/SVG/1.1/DTD/svg11.dtd">
<!-- Generated by graphviz version 2.26.3 (20100126.1600)
 -->
<!-- Title: forcebalance.abinitio.AbInitio.energy_force_transform_one Pages: 1 -->
<svg width="356pt" height="160pt"
 viewBox="0.00 0.00 356.00 160.00" xmlns="http://www.w3.org/2000/svg" xmlns:xlink="http://www.w3.org/1999/xlink">
<g id="graph1" class="graph" transform="scale(1 1) rotate(0) translate(4 156)">
<title>forcebalance.abinitio.AbInitio.energy_force_transform_one</title>
<polygon fill="white" stroke="white" points="-4,5 -4,-156 353,-156 353,5 -4,5"/>
<!-- Node1 -->
<g id="node1" class="node"><title>Node1</title>
<polygon fill="#bfbfbf" stroke="black" points="0,-59 0,-93 180,-93 180,-59 0,-59"/>
<text text-anchor="start" x="8" y="-80" font-family="Ubuntu-R" font-size="10.00">forcebalance.abinitio.Ab</text>
<text text-anchor="middle" x="90" y="-67" font-family="Ubuntu-R" font-size="10.00">Initio.energy_force_transform_one</text>
</g>
<!-- Node2 -->
<g id="node3" class="node"><title>Node2</title>
<a xlink:href="classforcebalance_1_1abinitio_1_1AbInitio.html#a157be30ae6d556e17d8af30cefe393f4" target="_top" xlink:title="forcebalance.abinitio.Ab\lInitio.energy_force_one">
<polygon fill="white" stroke="black" points="216.5,-118 216.5,-152 347.5,-152 347.5,-118 216.5,-118"/>
<text text-anchor="start" x="224.5" y="-139" font-family="Ubuntu-R" font-size="10.00">forcebalance.abinitio.Ab</text>
<text text-anchor="middle" x="282" y="-126" font-family="Ubuntu-R" font-size="10.00">Initio.energy_force_one</text>
</a>
</g>
<!-- Node1&#45;&gt;Node2 -->
<g id="edge2" class="edge"><title>Node1&#45;&gt;Node2</title>
<path fill="none" stroke="midnightblue" d="M145.534,-93.0652C167.823,-99.9144 193.674,-107.858 216.843,-114.978"/>
<polygon fill="midnightblue" stroke="midnightblue" points="216.003,-118.381 226.59,-117.973 218.06,-111.69 216.003,-118.381"/>
</g>
<!-- Node3 -->
<g id="node5" class="node"><title>Node3</title>
<a xlink:href="classforcebalance_1_1abinitio_1_1AbInitio.html#afbf86c26158a68cae7460b4106809fdd" target="_top" xlink:title="forcebalance.abinitio.Ab\lInitio.compute_netforce\l_torque">
<polygon fill="white" stroke="black" points="216.5,-52.5 216.5,-99.5 347.5,-99.5 347.5,-52.5 216.5,-52.5"/>
<text text-anchor="start" x="224.5" y="-86.5" font-family="Ubuntu-R" font-size="10.00">forcebalance.abinitio.Ab</text>
<text text-anchor="start" x="224.5" y="-73.5" font-family="Ubuntu-R" font-size="10.00">Initio.compute_netforce</text>
<text text-anchor="middle" x="282" y="-60.5" font-family="Ubuntu-R" font-size="10.00">_torque</text>
</a>
</g>
<!-- Node1&#45;&gt;Node3 -->
<g id="edge4" class="edge"><title>Node1&#45;&gt;Node3</title>
<path fill="none" stroke="midnightblue" d="M180.097,-76C188.755,-76 197.478,-76 205.982,-76"/>
<polygon fill="midnightblue" stroke="midnightblue" points="206.227,-79.5001 216.227,-76 206.227,-72.5001 206.227,-79.5001"/>
</g>
<!-- Node4 -->
<g id="node7" class="node"><title>Node4</title>
<a xlink:href="classforcebalance_1_1abinitio_1_1AbInitio.html#aa91a79773331fdf845ab34e54ce99d47" target="_top" xlink:title="forcebalance.abinitio.Ab\lInitio.energy_one">
<polygon fill="white" stroke="black" points="216.5,-0 216.5,-34 347.5,-34 347.5,-0 216.5,-0"/>
<text text-anchor="start" x="224.5" y="-21" font-family="Ubuntu-R" font-size="10.00">forcebalance.abinitio.Ab</text>
<text text-anchor="middle" x="282" y="-8" font-family="Ubuntu-R" font-size="10.00">Initio.energy_one</text>
</a>
</g>
<!-- Node1&#45;&gt;Node4 -->
<g id="edge6" class="edge"><title>Node1&#45;&gt;Node4</title>
<path fill="none" stroke="midnightblue" d="M145.534,-58.9348C167.823,-52.0856 193.674,-44.1418 216.843,-37.0221"/>
<polygon fill="midnightblue" stroke="midnightblue" points="218.06,-40.3099 226.59,-34.0269 216.003,-33.6187 218.06,-40.3099"/>
</g>
</g>
</svg>
