<?xml version="1.0" encoding="UTF-8" standalone="no"?>
<!DOCTYPE svg PUBLIC "-//W3C//DTD SVG 1.1//EN"
 "http://www.w3.org/Graphics/SVG/1.1/DTD/svg11.dtd">
<!-- Generated by graphviz version 2.26.3 (20100126.1600)
 -->
<!-- Title: forcebalance.nifty.Unpickler_LP.__init__ Pages: 1 -->
<svg width="402pt" height="70pt"
 viewBox="0.00 0.00 402.00 70.00" xmlns="http://www.w3.org/2000/svg" xmlns:xlink="http://www.w3.org/1999/xlink">
<g id="graph1" class="graph" transform="scale(1 1) rotate(0) translate(4 66)">
<title>forcebalance.nifty.Unpickler_LP.__init__</title>
<polygon fill="white" stroke="white" points="-4,5 -4,-66 399,-66 399,5 -4,5"/>
<!-- Node1 -->
<g id="node1" class="node"><title>Node1</title>
<polygon fill="#bfbfbf" stroke="black" points="0.5,-14 0.5,-48 147.5,-48 147.5,-14 0.5,-14"/>
<text text-anchor="start" x="8.5" y="-35" font-family="Ubuntu-R" font-size="10.00">forcebalance.nifty.Unpickler</text>
<text text-anchor="middle" x="74" y="-22" font-family="Ubuntu-R" font-size="10.00">_LP.__init__</text>
</g>
<!-- Node2 -->
<g id="node3" class="node"><title>Node2</title>
<a xlink:href="classforcebalance_1_1molecule_1_1Molecule.html#a77417ff99b19f6d0b7c6f527e83fa7f1" target="_top" xlink:title="forcebalance.molecule.Molecule.append">
<polygon fill="white" stroke="black" points="184.5,-40.5 184.5,-61.5 393.5,-61.5 393.5,-40.5 184.5,-40.5"/>
<text text-anchor="middle" x="289" y="-48.5" font-family="Ubuntu-R" font-size="10.00">forcebalance.molecule.Molecule.append</text>
</a>
</g>
<!-- Node1&#45;&gt;Node2 -->
<g id="edge2" class="edge"><title>Node1&#45;&gt;Node2</title>
<path fill="none" stroke="midnightblue" d="M147.69,-37.8549C156.257,-38.6518 165.143,-39.4784 174.098,-40.3114"/>
<polygon fill="midnightblue" stroke="midnightblue" points="173.943,-43.812 184.224,-41.2534 174.591,-36.8421 173.943,-43.812"/>
</g>
<!-- Node3 -->
<g id="node5" class="node"><title>Node3</title>
<a xlink:href="namespaceforcebalance_1_1nifty.html#a26e563ec71ed229c30f3d61d3448c8f1" target="_top" xlink:title="Prints a warning but will only do so once in a given run. ">
<polygon fill="white" stroke="black" points="212,-0.5 212,-21.5 366,-21.5 366,-0.5 212,-0.5"/>
<text text-anchor="middle" x="289" y="-8.5" font-family="Ubuntu-R" font-size="10.00">forcebalance.nifty.warn_once</text>
</a>
</g>
<!-- Node1&#45;&gt;Node3 -->
<g id="edge4" class="edge"><title>Node1&#45;&gt;Node3</title>
<path fill="none" stroke="midnightblue" d="M147.69,-24.1451C164.965,-22.5382 183.536,-20.8106 201.354,-19.1531"/>
<polygon fill="midnightblue" stroke="midnightblue" points="202.109,-22.5981 211.742,-18.1868 201.461,-15.6282 202.109,-22.5981"/>
</g>
</g>
</svg>
