<?xml version="1.0" encoding="UTF-8" standalone="no"?>
<!DOCTYPE svg PUBLIC "-//W3C//DTD SVG 1.1//EN"
 "http://www.w3.org/Graphics/SVG/1.1/DTD/svg11.dtd">
<!-- Generated by graphviz version 2.26.3 (20100126.1600)
 -->
<!-- Title: forcebalance.vibration.Vibration Pages: 1 -->
<svg width="370pt" height="276pt"
 viewBox="0.00 0.00 370.00 276.00" xmlns="http://www.w3.org/2000/svg" xmlns:xlink="http://www.w3.org/1999/xlink">
<g id="graph1" class="graph" transform="scale(1 1) rotate(0) translate(4 272)">
<title>forcebalance.vibration.Vibration</title>
<polygon fill="white" stroke="white" points="-4,5 -4,-272 367,-272 367,5 -4,5"/>
<!-- Node1 -->
<g id="node1" class="node"><title>Node1</title>
<polygon fill="#bfbfbf" stroke="black" points="102,-72.5 102,-93.5 270,-93.5 270,-72.5 102,-72.5"/>
<text text-anchor="middle" x="186" y="-80.5" font-family="Ubuntu-R" font-size="10.00">forcebalance.vibration.Vibration</text>
</g>
<!-- Node5 -->
<g id="node9" class="node"><title>Node5</title>
<a xlink:href="classforcebalance_1_1gmxio_1_1Vibration__GMX.html" target="_top" xlink:title="Vibrational frequency matching using GROMACS. ">
<polygon fill="white" stroke="black" points="-0.5,-7.5 -0.5,-28.5 182.5,-28.5 182.5,-7.5 -0.5,-7.5"/>
<text text-anchor="middle" x="91" y="-15.5" font-family="Ubuntu-R" font-size="10.00">forcebalance.gmxio.Vibration_GMX</text>
</a>
</g>
<!-- Node1&#45;&gt;Node5 -->
<g id="edge8" class="edge"><title>Node1&#45;&gt;Node5</title>
<path fill="none" stroke="midnightblue" d="M161.778,-66.4268C144.351,-54.5032 121.371,-38.7803 106.395,-28.5337"/>
<polygon fill="midnightblue" stroke="midnightblue" points="160.083,-69.5083 170.313,-72.2666 164.036,-63.7311 160.083,-69.5083"/>
</g>
<!-- Node6 -->
<g id="node11" class="node"><title>Node6</title>
<a xlink:href="classforcebalance_1_1tinkerio_1_1Vibration__TINKER.html" target="_top" xlink:title="Vibrational frequency matching using TINKER. ">
<polygon fill="white" stroke="black" points="200,-1 200,-35 362,-35 362,-1 200,-1"/>
<text text-anchor="start" x="208" y="-22" font-family="Ubuntu-R" font-size="10.00">forcebalance.tinkerio.Vibration</text>
<text text-anchor="middle" x="281" y="-9" font-family="Ubuntu-R" font-size="10.00">_TINKER</text>
</a>
</g>
<!-- Node1&#45;&gt;Node6 -->
<g id="edge10" class="edge"><title>Node1&#45;&gt;Node6</title>
<path fill="none" stroke="midnightblue" d="M210.302,-66.3721C224.305,-56.7911 241.873,-44.7709 255.993,-35.1099"/>
<polygon fill="midnightblue" stroke="midnightblue" points="207.964,-63.7311 201.687,-72.2666 211.917,-69.5083 207.964,-63.7311"/>
</g>
<!-- Node2 -->
<g id="node2" class="node"><title>Node2</title>
<a xlink:href="classforcebalance_1_1target_1_1Target.html" target="_top" xlink:title="Base class for all fitting targets. ">
<polygon fill="white" stroke="black" points="114.5,-130.5 114.5,-151.5 257.5,-151.5 257.5,-130.5 114.5,-130.5"/>
<text text-anchor="middle" x="186" y="-138.5" font-family="Ubuntu-R" font-size="10.00">forcebalance.target.Target</text>
</a>
</g>
<!-- Node2&#45;&gt;Node1 -->
<g id="edge2" class="edge"><title>Node2&#45;&gt;Node1</title>
<path fill="none" stroke="midnightblue" d="M186,-120.191C186,-111.168 186,-100.994 186,-93.5707"/>
<polygon fill="midnightblue" stroke="midnightblue" points="182.5,-120.362 186,-130.362 189.5,-120.362 182.5,-120.362"/>
</g>
<!-- Node3 -->
<g id="node4" class="node"><title>Node3</title>
<a xlink:href="classforcebalance_1_1BaseClass.html" target="_top" xlink:title="Provides some nifty functions that are common to all ForceBalance classes. ">
<polygon fill="white" stroke="black" points="120.5,-188.5 120.5,-209.5 251.5,-209.5 251.5,-188.5 120.5,-188.5"/>
<text text-anchor="middle" x="186" y="-196.5" font-family="Ubuntu-R" font-size="10.00">forcebalance.BaseClass</text>
</a>
</g>
<!-- Node3&#45;&gt;Node2 -->
<g id="edge4" class="edge"><title>Node3&#45;&gt;Node2</title>
<path fill="none" stroke="midnightblue" d="M186,-178.191C186,-169.168 186,-158.994 186,-151.571"/>
<polygon fill="midnightblue" stroke="midnightblue" points="182.5,-178.362 186,-188.362 189.5,-178.362 182.5,-178.362"/>
</g>
<!-- Node4 -->
<g id="node6" class="node"><title>Node4</title>
<polygon fill="white" stroke="#bfbfbf" points="163,-246.5 163,-267.5 209,-267.5 209,-246.5 163,-246.5"/>
<text text-anchor="middle" x="186" y="-254.5" font-family="Ubuntu-R" font-size="10.00">object</text>
</g>
<!-- Node4&#45;&gt;Node3 -->
<g id="edge6" class="edge"><title>Node4&#45;&gt;Node3</title>
<path fill="none" stroke="midnightblue" d="M186,-236.191C186,-227.168 186,-216.994 186,-209.571"/>
<polygon fill="midnightblue" stroke="midnightblue" points="182.5,-236.362 186,-246.362 189.5,-236.362 182.5,-236.362"/>
</g>
</g>
</svg>
