<?xml version="1.0" encoding="UTF-8" standalone="no"?>
<!DOCTYPE svg PUBLIC "-//W3C//DTD SVG 1.1//EN"
 "http://www.w3.org/Graphics/SVG/1.1/DTD/svg11.dtd">
<!-- Generated by graphviz version 2.26.3 (20100126.1600)
 -->
<!-- Title: forcebalance.liquid.Liquid.get Pages: 1 -->
<svg width="582pt" height="594pt"
 viewBox="0.00 0.00 582.00 594.00" xmlns="http://www.w3.org/2000/svg" xmlns:xlink="http://www.w3.org/1999/xlink">
<g id="graph1" class="graph" transform="scale(1 1) rotate(0) translate(4 590)">
<title>forcebalance.liquid.Liquid.get</title>
<polygon fill="white" stroke="white" points="-4,5 -4,-590 579,-590 579,5 -4,5"/>
<!-- Node1 -->
<g id="node1" class="node"><title>Node1</title>
<polygon fill="#bfbfbf" stroke="black" points="0.5,-282.5 0.5,-303.5 155.5,-303.5 155.5,-282.5 0.5,-282.5"/>
<text text-anchor="middle" x="78" y="-290.5" font-family="Ubuntu-R" font-size="10.00">forcebalance.liquid.Liquid.get</text>
</g>
<!-- Node2 -->
<g id="node3" class="node"><title>Node2</title>
<a xlink:href="namespaceforcebalance_1_1nifty.html#a577abfd36638c5f4dfdade136abaef12" target="_top" xlink:title="Use this instead of pickle.load for unpickling anything that contains _ElementTree types...">
<polygon fill="white" stroke="black" points="229.5,-564.5 229.5,-585.5 366.5,-585.5 366.5,-564.5 229.5,-564.5"/>
<text text-anchor="middle" x="298" y="-572.5" font-family="Ubuntu-R" font-size="10.00">forcebalance.nifty.lp_load</text>
</a>
</g>
<!-- Node1&#45;&gt;Node2 -->
<g id="edge2" class="edge"><title>Node1&#45;&gt;Node2</title>
<path fill="none" stroke="midnightblue" d="M79.3377,-303.545C84.9032,-342.83 109.913,-481.911 192,-550 200.051,-556.678 209.572,-561.637 219.552,-565.308"/>
<polygon fill="midnightblue" stroke="midnightblue" points="218.636,-568.691 229.228,-568.448 220.797,-562.033 218.636,-568.691"/>
</g>
<!-- Node3 -->
<g id="node5" class="node"><title>Node3</title>
<a xlink:href="namespaceforcebalance_1_1nifty.html#abb8f59044961a12588e0653c2baa8b01" target="_top" xlink:title="forcebalance.nifty.warn\l_press_key">
<polygon fill="white" stroke="black" points="444.5,-459 444.5,-493 569.5,-493 569.5,-459 444.5,-459"/>
<text text-anchor="start" x="452.5" y="-480" font-family="Ubuntu-R" font-size="10.00">forcebalance.nifty.warn</text>
<text text-anchor="middle" x="507" y="-467" font-family="Ubuntu-R" font-size="10.00">_press_key</text>
</a>
</g>
<!-- Node1&#45;&gt;Node3 -->
<g id="edge4" class="edge"><title>Node1&#45;&gt;Node3</title>
<path fill="none" stroke="midnightblue" d="M79.5107,-303.566C85.493,-340.971 111.276,-467.506 192,-517 277.638,-569.507 400.882,-526.538 464.862,-497.376"/>
<polygon fill="midnightblue" stroke="midnightblue" points="466.648,-500.406 474.234,-493.009 463.691,-494.061 466.648,-500.406"/>
</g>
<!-- Node4 -->
<g id="node7" class="node"><title>Node4</title>
<a xlink:href="namespaceforcebalance_1_1nifty.html#a45c982ff08c9117576235248b1aca95a" target="_top" xlink:title="Write an array to a string so we can use it to key a dictionary. ">
<polygon fill="white" stroke="black" points="237,-486.5 237,-507.5 359,-507.5 359,-486.5 237,-486.5"/>
<text text-anchor="middle" x="298" y="-494.5" font-family="Ubuntu-R" font-size="10.00">forcebalance.nifty.astr</text>
</a>
</g>
<!-- Node1&#45;&gt;Node4 -->
<g id="edge6" class="edge"><title>Node1&#45;&gt;Node4</title>
<path fill="none" stroke="midnightblue" d="M81.2682,-303.899C91.5693,-336.232 126.617,-432.144 192,-477 202.357,-484.106 214.564,-488.861 226.939,-492.01"/>
<polygon fill="midnightblue" stroke="midnightblue" points="226.348,-495.463 236.868,-494.204 227.859,-488.628 226.348,-495.463"/>
</g>
<!-- Node5 -->
<g id="node9" class="node"><title>Node5</title>
<a xlink:href="namespaceforcebalance_1_1optimizer.html#ae1f6c649703a22b2f767a5f6bf53297b" target="_top" xlink:title="forcebalance.optimizer.Counter">
<polygon fill="white" stroke="black" points="214.5,-446.5 214.5,-467.5 381.5,-467.5 381.5,-446.5 214.5,-446.5"/>
<text text-anchor="middle" x="298" y="-454.5" font-family="Ubuntu-R" font-size="10.00">forcebalance.optimizer.Counter</text>
</a>
</g>
<!-- Node1&#45;&gt;Node5 -->
<g id="edge8" class="edge"><title>Node1&#45;&gt;Node5</title>
<path fill="none" stroke="midnightblue" d="M83.1106,-303.841C96.6104,-331.184 136.064,-403.179 192,-437 196.092,-439.474 200.421,-441.653 204.901,-443.572"/>
<polygon fill="midnightblue" stroke="midnightblue" points="203.688,-446.856 214.279,-447.157 206.187,-440.317 203.688,-446.856"/>
</g>
<!-- Node6 -->
<g id="node11" class="node"><title>Node6</title>
<a xlink:href="namespaceforcebalance_1_1nifty.html#a11babd62dc7bca389162c6318f9672ca" target="_top" xlink:title="Cool&#45;looking printout for slick formatting of output. ">
<polygon fill="white" stroke="black" points="226,-406.5 226,-427.5 370,-427.5 370,-406.5 226,-406.5"/>
<text text-anchor="middle" x="298" y="-414.5" font-family="Ubuntu-R" font-size="10.00">forcebalance.nifty.printcool</text>
</a>
</g>
<!-- Node1&#45;&gt;Node6 -->
<g id="edge10" class="edge"><title>Node1&#45;&gt;Node6</title>
<path fill="none" stroke="midnightblue" d="M86.1092,-303.596C103.153,-325.043 145.02,-373.547 192,-397 199.527,-400.758 207.676,-403.812 215.998,-406.295"/>
<polygon fill="midnightblue" stroke="midnightblue" points="215.251,-409.719 225.818,-408.955 217.081,-402.962 215.251,-409.719"/>
</g>
<!-- Node7 -->
<g id="node14" class="node"><title>Node7</title>
<a xlink:href="classforcebalance_1_1lipid_1_1Lipid.html#a95a7bd274403cfbc71cfed24d3939112" target="_top" xlink:title="forcebalance.lipid.Lipid.polarization\l_correction">
<polygon fill="white" stroke="black" points="206.5,-354 206.5,-388 389.5,-388 389.5,-354 206.5,-354"/>
<text text-anchor="start" x="214.5" y="-375" font-family="Ubuntu-R" font-size="10.00">forcebalance.lipid.Lipid.polarization</text>
<text text-anchor="middle" x="298" y="-362" font-family="Ubuntu-R" font-size="10.00">_correction</text>
</a>
</g>
<!-- Node1&#45;&gt;Node7 -->
<g id="edge14" class="edge"><title>Node1&#45;&gt;Node7</title>
<path fill="none" stroke="midnightblue" d="M98.1203,-303.577C120.536,-315.027 158.093,-333.225 192,-345 198.254,-347.172 204.775,-349.235 211.374,-351.179"/>
<polygon fill="midnightblue" stroke="midnightblue" points="210.499,-354.569 221.076,-353.94 212.416,-347.836 210.499,-354.569"/>
</g>
<!-- Node9 -->
<g id="node18" class="node"><title>Node9</title>
<a xlink:href="classforcebalance_1_1liquid_1_1Liquid.html#a51ea9d9fb4418ec2497fe8e2d8033d41" target="_top" xlink:title="forcebalance.liquid.Liquid.polarization\l_correction">
<polygon fill="white" stroke="black" points="200.5,-302 200.5,-336 395.5,-336 395.5,-302 200.5,-302"/>
<text text-anchor="start" x="208.5" y="-323" font-family="Ubuntu-R" font-size="10.00">forcebalance.liquid.Liquid.polarization</text>
<text text-anchor="middle" x="298" y="-310" font-family="Ubuntu-R" font-size="10.00">_correction</text>
</a>
</g>
<!-- Node1&#45;&gt;Node9 -->
<g id="edge18" class="edge"><title>Node1&#45;&gt;Node9</title>
<path fill="none" stroke="midnightblue" d="M155.564,-302.167C166.759,-303.49 178.446,-304.871 190.101,-306.248"/>
<polygon fill="midnightblue" stroke="midnightblue" points="189.981,-309.758 200.323,-307.456 190.802,-302.807 189.981,-309.758"/>
</g>
<!-- Node10 -->
<g id="node21" class="node"><title>Node10</title>
<a xlink:href="namespaceforcebalance_1_1finite__difference.html#aa69a8819e4680091f400303c1d6ddeb7" target="_top" xlink:title="A three&#45;point finite difference stencil. ">
<polygon fill="white" stroke="black" points="245.5,-250 245.5,-284 350.5,-284 350.5,-250 245.5,-250"/>
<text text-anchor="start" x="253.5" y="-271" font-family="Ubuntu-R" font-size="10.00">forcebalance.finite</text>
<text text-anchor="middle" x="298" y="-258" font-family="Ubuntu-R" font-size="10.00">_difference.f12d3p</text>
</a>
</g>
<!-- Node1&#45;&gt;Node10 -->
<g id="edge22" class="edge"><title>Node1&#45;&gt;Node10</title>
<path fill="none" stroke="midnightblue" d="M155.564,-283.833C181.659,-280.749 210.428,-277.349 235.24,-274.417"/>
<polygon fill="midnightblue" stroke="midnightblue" points="235.732,-277.883 245.252,-273.234 234.91,-270.932 235.732,-277.883"/>
</g>
<!-- Node11 -->
<g id="node23" class="node"><title>Node11</title>
<a xlink:href="namespaceforcebalance_1_1finite__difference.html#ae484c591ae8c4e5bae73a0ef2660c339" target="_top" xlink:title="A function wrapper for finite difference designed for differentiating &#39;get&#39;&#45;type functions. ">
<polygon fill="white" stroke="black" points="246,-198 246,-232 350,-232 350,-198 246,-198"/>
<text text-anchor="start" x="254" y="-219" font-family="Ubuntu-R" font-size="10.00">forcebalance.finite</text>
<text text-anchor="middle" x="298" y="-206" font-family="Ubuntu-R" font-size="10.00">_difference.fdwrap</text>
</a>
</g>
<!-- Node1&#45;&gt;Node11 -->
<g id="edge24" class="edge"><title>Node1&#45;&gt;Node11</title>
<path fill="none" stroke="midnightblue" d="M98.1203,-282.423C120.536,-270.973 158.093,-252.775 192,-241 206.034,-236.126 221.415,-231.799 236.001,-228.141"/>
<polygon fill="midnightblue" stroke="midnightblue" points="237.06,-231.485 245.946,-225.716 235.402,-224.684 237.06,-231.485"/>
</g>
<!-- Node12 -->
<g id="node25" class="node"><title>Node12</title>
<a xlink:href="namespaceforcebalance_1_1nifty.html#a52114ceee9d55f94d9aecb3e176de294" target="_top" xlink:title="Given any list, array, or matrix, return a single&#45;index array. ">
<polygon fill="white" stroke="black" points="448,-109.5 448,-130.5 566,-130.5 566,-109.5 448,-109.5"/>
<text text-anchor="middle" x="507" y="-117.5" font-family="Ubuntu-R" font-size="10.00">forcebalance.nifty.flat</text>
</a>
</g>
<!-- Node1&#45;&gt;Node12 -->
<g id="edge26" class="edge"><title>Node1&#45;&gt;Node12</title>
<path fill="none" stroke="midnightblue" d="M86.0916,-282.369C103.104,-260.856 144.914,-212.239 192,-189 277.839,-146.636 310.904,-173.275 404,-151 424.475,-146.101 446.892,-139.505 465.57,-133.656"/>
<polygon fill="midnightblue" stroke="midnightblue" points="466.77,-136.948 475.245,-130.59 464.654,-130.275 466.77,-136.948"/>
</g>
<!-- Node13 -->
<g id="node27" class="node"><title>Node13</title>
<a xlink:href="namespaceforcebalance_1_1liquid.html#a6f7d54263236f8788c319aee86b460b6" target="_top" xlink:title="forcebalance.liquid.weight_info">
<polygon fill="white" stroke="black" points="217,-120.5 217,-141.5 379,-141.5 379,-120.5 217,-120.5"/>
<text text-anchor="middle" x="298" y="-128.5" font-family="Ubuntu-R" font-size="10.00">forcebalance.liquid.weight_info</text>
</a>
</g>
<!-- Node1&#45;&gt;Node13 -->
<g id="edge28" class="edge"><title>Node1&#45;&gt;Node13</title>
<path fill="none" stroke="midnightblue" d="M83.5562,-282.45C97.8037,-256.491 138.326,-189.219 192,-156 199.359,-151.445 207.476,-147.72 215.843,-144.674"/>
<polygon fill="midnightblue" stroke="midnightblue" points="216.98,-147.984 225.37,-141.514 214.777,-141.34 216.98,-147.984"/>
</g>
<!-- Node14 -->
<g id="node29" class="node"><title>Node14</title>
<a xlink:href="namespaceforcebalance_1_1nifty.html#afb3f205bce4984856e766af7e9fdaca8" target="_top" xlink:title="Given any list, array, or matrix, return a 1&#45;column matrix. ">
<polygon fill="white" stroke="black" points="240,-80.5 240,-101.5 356,-101.5 356,-80.5 240,-80.5"/>
<text text-anchor="middle" x="298" y="-88.5" font-family="Ubuntu-R" font-size="10.00">forcebalance.nifty.col</text>
</a>
</g>
<!-- Node1&#45;&gt;Node14 -->
<g id="edge30" class="edge"><title>Node1&#45;&gt;Node14</title>
<path fill="none" stroke="midnightblue" d="M81.3057,-282.217C91.7112,-250.229 127.02,-155.345 192,-111 203.156,-103.387 216.438,-98.476 229.764,-95.3489"/>
<polygon fill="midnightblue" stroke="midnightblue" points="230.822,-98.7058 239.928,-93.2902 229.432,-91.8451 230.822,-98.7058"/>
</g>
<!-- Node15 -->
<g id="node31" class="node"><title>Node15</title>
<a xlink:href="classforcebalance_1_1lipid_1_1Lipid.html#ae7c62e18f1281543ee8a627261406626" target="_top" xlink:title="forcebalance.lipid.Lipid.objective_term">
<polygon fill="white" stroke="black" points="198.5,-40.5 198.5,-61.5 397.5,-61.5 397.5,-40.5 198.5,-40.5"/>
<text text-anchor="middle" x="298" y="-48.5" font-family="Ubuntu-R" font-size="10.00">forcebalance.lipid.Lipid.objective_term</text>
</a>
</g>
<!-- Node1&#45;&gt;Node15 -->
<g id="edge32" class="edge"><title>Node1&#45;&gt;Node15</title>
<path fill="none" stroke="midnightblue" d="M80.0398,-282.284C87.5468,-245.991 117.19,-126.867 192,-71 194.356,-69.2404 196.822,-67.6214 199.376,-66.1323"/>
<polygon fill="midnightblue" stroke="midnightblue" points="201.04,-69.2126 208.362,-61.5551 197.863,-62.9752 201.04,-69.2126"/>
</g>
<!-- Node17 -->
<g id="node36" class="node"><title>Node17</title>
<a xlink:href="classforcebalance_1_1liquid_1_1Liquid.html#a00c23db61bcb86cc19f79dacdb2bc1f3" target="_top" xlink:title="forcebalance.liquid.Liquid.objective_term">
<polygon fill="white" stroke="black" points="192.5,-0.5 192.5,-21.5 403.5,-21.5 403.5,-0.5 192.5,-0.5"/>
<text text-anchor="middle" x="298" y="-8.5" font-family="Ubuntu-R" font-size="10.00">forcebalance.liquid.Liquid.objective_term</text>
</a>
</g>
<!-- Node1&#45;&gt;Node17 -->
<g id="edge38" class="edge"><title>Node1&#45;&gt;Node17</title>
<path fill="none" stroke="midnightblue" d="M79.1341,-282.409C84.0249,-242.324 107.081,-98.7537 192,-31 194.049,-29.3648 196.192,-27.8487 198.411,-26.4434"/>
<polygon fill="midnightblue" stroke="midnightblue" points="200.232,-29.4361 207.314,-21.5559 196.864,-23.2998 200.232,-29.4361"/>
</g>
<!-- Node6&#45;&gt;Node3 -->
<g id="edge12" class="edge"><title>Node6&#45;&gt;Node3</title>
<path fill="none" stroke="midnightblue" d="M363.727,-427.541C377.152,-430.213 391.11,-433.374 404,-437 421.695,-441.978 440.624,-448.716 457.367,-455.192"/>
<polygon fill="midnightblue" stroke="midnightblue" points="456.358,-458.556 466.945,-458.959 458.92,-452.042 456.358,-458.556"/>
</g>
<!-- Node8 -->
<g id="node16" class="node"><title>Node8</title>
<a xlink:href="namespaceforcebalance_1_1finite__difference.html#ad84d3e385db1190e7d8ef58bc08a6c52" target="_top" xlink:title="Invoking this function from anywhere will tell us whether we&#39;re being called by a finite&#45;difference f...">
<polygon fill="white" stroke="black" points="455,-328 455,-362 559,-362 559,-328 455,-328"/>
<text text-anchor="start" x="463" y="-349" font-family="Ubuntu-R" font-size="10.00">forcebalance.finite</text>
<text text-anchor="middle" x="507" y="-336" font-family="Ubuntu-R" font-size="10.00">_difference.in_fd</text>
</a>
</g>
<!-- Node7&#45;&gt;Node8 -->
<g id="edge16" class="edge"><title>Node7&#45;&gt;Node8</title>
<path fill="none" stroke="midnightblue" d="M389.67,-359.596C408.374,-357.269 427.635,-354.873 445.006,-352.712"/>
<polygon fill="midnightblue" stroke="midnightblue" points="445.506,-356.177 454.997,-351.469 444.642,-349.231 445.506,-356.177"/>
</g>
<!-- Node9&#45;&gt;Node8 -->
<g id="edge20" class="edge"><title>Node9&#45;&gt;Node8</title>
<path fill="none" stroke="midnightblue" d="M395.769,-331.163C412.501,-333.244 429.465,-335.355 444.935,-337.279"/>
<polygon fill="midnightblue" stroke="midnightblue" points="444.511,-340.753 454.867,-338.515 445.375,-333.807 444.511,-340.753"/>
</g>
<!-- Node15&#45;&gt;Node12 -->
<g id="edge36" class="edge"><title>Node15&#45;&gt;Node12</title>
<path fill="none" stroke="midnightblue" d="M367.926,-61.5435C380.09,-64.127 392.516,-67.2546 404,-71 430.654,-79.693 459.329,-93.7576 479.638,-104.594"/>
<polygon fill="midnightblue" stroke="midnightblue" points="478.158,-107.772 488.616,-109.465 481.496,-101.62 478.158,-107.772"/>
</g>
<!-- Node16 -->
<g id="node33" class="node"><title>Node16</title>
<a xlink:href="namespaceforcebalance_1_1nifty.html#a185aa094549d280fdc18479459980164" target="_top" xlink:title="If trying to write to a symbolic link, remove it first. ">
<polygon fill="white" stroke="black" points="440,-20.5 440,-41.5 574,-41.5 574,-20.5 440,-20.5"/>
<text text-anchor="middle" x="507" y="-28.5" font-family="Ubuntu-R" font-size="10.00">forcebalance.nifty.wopen</text>
</a>
</g>
<!-- Node15&#45;&gt;Node16 -->
<g id="edge34" class="edge"><title>Node15&#45;&gt;Node16</title>
<path fill="none" stroke="midnightblue" d="M397.603,-41.4686C408.327,-40.4424 419.12,-39.4096 429.529,-38.4135"/>
<polygon fill="midnightblue" stroke="midnightblue" points="430.172,-41.8681 439.793,-37.4313 429.505,-34.8999 430.172,-41.8681"/>
</g>
<!-- Node17&#45;&gt;Node16 -->
<g id="edge40" class="edge"><title>Node17&#45;&gt;Node16</title>
<path fill="none" stroke="midnightblue" d="M403.725,-21.1172C412.434,-21.9506 421.133,-22.783 429.577,-23.5911"/>
<polygon fill="midnightblue" stroke="midnightblue" points="429.448,-27.0947 439.736,-24.5633 430.115,-20.1265 429.448,-27.0947"/>
</g>
</g>
</svg>
