<?xml version="1.0" encoding="UTF-8" standalone="no"?>
<!DOCTYPE svg PUBLIC "-//W3C//DTD SVG 1.1//EN"
 "http://www.w3.org/Graphics/SVG/1.1/DTD/svg11.dtd">
<!-- Generated by graphviz version 2.26.3 (20100126.1600)
 -->
<!-- Title: forcebalance.forcefield.FF.make Pages: 1 -->
<svg width="460pt" height="148pt"
 viewBox="0.00 0.00 460.00 148.00" xmlns="http://www.w3.org/2000/svg" xmlns:xlink="http://www.w3.org/1999/xlink">
<g id="graph1" class="graph" transform="scale(1 1) rotate(0) translate(4 144)">
<title>forcebalance.forcefield.FF.make</title>
<polygon fill="white" stroke="white" points="-4,5 -4,-144 457,-144 457,5 -4,5"/>
<!-- Node1 -->
<g id="node1" class="node"><title>Node1</title>
<polygon fill="#bfbfbf" stroke="black" points="0,-40 0,-74 128,-74 128,-40 0,-40"/>
<text text-anchor="start" x="8" y="-61" font-family="Ubuntu-R" font-size="10.00">forcebalance.forcefield.</text>
<text text-anchor="middle" x="64" y="-48" font-family="Ubuntu-R" font-size="10.00">FF.make</text>
</g>
<!-- Node2 -->
<g id="node3" class="node"><title>Node2</title>
<a xlink:href="classforcebalance_1_1forcefield_1_1FF.html#a260031479e0429e497f56987de541930" target="_top" xlink:title="Converts mathematical to physical parameters. ">
<polygon fill="white" stroke="black" points="167,-92 167,-126 295,-126 295,-92 167,-92"/>
<text text-anchor="start" x="175" y="-113" font-family="Ubuntu-R" font-size="10.00">forcebalance.forcefield.</text>
<text text-anchor="middle" x="231" y="-100" font-family="Ubuntu-R" font-size="10.00">FF.create_pvals</text>
</a>
</g>
<!-- Node1&#45;&gt;Node2 -->
<g id="edge2" class="edge"><title>Node1&#45;&gt;Node2</title>
<path fill="none" stroke="midnightblue" d="M118.682,-74.0267C133.965,-78.7854 150.715,-84.0011 166.508,-88.9185"/>
<polygon fill="midnightblue" stroke="midnightblue" points="165.607,-92.3037 176.195,-91.935 167.688,-85.6202 165.607,-92.3037"/>
</g>
<!-- Node5 -->
<g id="node9" class="node"><title>Node5</title>
<a xlink:href="namespaceforcebalance_1_1nifty.html#abb8f59044961a12588e0653c2baa8b01" target="_top" xlink:title="forcebalance.nifty.warn\l_press_key">
<polygon fill="white" stroke="black" points="168.5,-40 168.5,-74 293.5,-74 293.5,-40 168.5,-40"/>
<text text-anchor="start" x="176.5" y="-61" font-family="Ubuntu-R" font-size="10.00">forcebalance.nifty.warn</text>
<text text-anchor="middle" x="231" y="-48" font-family="Ubuntu-R" font-size="10.00">_press_key</text>
</a>
</g>
<!-- Node1&#45;&gt;Node5 -->
<g id="edge8" class="edge"><title>Node1&#45;&gt;Node5</title>
<path fill="none" stroke="midnightblue" d="M128.089,-57C138.023,-57 148.345,-57 158.45,-57"/>
<polygon fill="midnightblue" stroke="midnightblue" points="158.459,-60.5001 168.459,-57 158.459,-53.5001 158.459,-60.5001"/>
</g>
<!-- Node6 -->
<g id="node11" class="node"><title>Node6</title>
<a xlink:href="namespaceforcebalance_1_1nifty.html#a185aa094549d280fdc18479459980164" target="_top" xlink:title="If trying to write to a symbolic link, remove it first. ">
<polygon fill="white" stroke="black" points="164,-0.5 164,-21.5 298,-21.5 298,-0.5 164,-0.5"/>
<text text-anchor="middle" x="231" y="-8.5" font-family="Ubuntu-R" font-size="10.00">forcebalance.nifty.wopen</text>
</a>
</g>
<!-- Node1&#45;&gt;Node6 -->
<g id="edge10" class="edge"><title>Node1&#45;&gt;Node6</title>
<path fill="none" stroke="midnightblue" d="M126.185,-39.8713C144.79,-34.7466 164.908,-29.2051 182.496,-24.3603"/>
<polygon fill="midnightblue" stroke="midnightblue" points="183.818,-27.6266 192.53,-21.5966 181.959,-20.878 183.818,-27.6266"/>
</g>
<!-- Node3 -->
<g id="node5" class="node"><title>Node3</title>
<a xlink:href="namespaceforcebalance_1_1nifty.html#a52114ceee9d55f94d9aecb3e176de294" target="_top" xlink:title="Given any list, array, or matrix, return a single&#45;index array. ">
<polygon fill="white" stroke="black" points="334,-118.5 334,-139.5 452,-139.5 452,-118.5 334,-118.5"/>
<text text-anchor="middle" x="393" y="-126.5" font-family="Ubuntu-R" font-size="10.00">forcebalance.nifty.flat</text>
</a>
</g>
<!-- Node2&#45;&gt;Node3 -->
<g id="edge4" class="edge"><title>Node2&#45;&gt;Node3</title>
<path fill="none" stroke="midnightblue" d="M295.027,-116.905C304.444,-118.067 314.182,-119.269 323.7,-120.444"/>
<polygon fill="midnightblue" stroke="midnightblue" points="323.563,-123.954 333.916,-121.706 324.42,-117.007 323.563,-123.954"/>
</g>
<!-- Node4 -->
<g id="node7" class="node"><title>Node4</title>
<a xlink:href="namespaceforcebalance_1_1nifty.html#afb3f205bce4984856e766af7e9fdaca8" target="_top" xlink:title="Given any list, array, or matrix, return a 1&#45;column matrix. ">
<polygon fill="white" stroke="black" points="335,-78.5 335,-99.5 451,-99.5 451,-78.5 335,-78.5"/>
<text text-anchor="middle" x="393" y="-86.5" font-family="Ubuntu-R" font-size="10.00">forcebalance.nifty.col</text>
</a>
</g>
<!-- Node2&#45;&gt;Node4 -->
<g id="edge6" class="edge"><title>Node2&#45;&gt;Node4</title>
<path fill="none" stroke="midnightblue" d="M295.027,-101.095C304.807,-99.888 314.933,-98.6379 324.799,-97.4199"/>
<polygon fill="midnightblue" stroke="midnightblue" points="325.465,-100.864 334.961,-96.1653 324.608,-93.917 325.465,-100.864"/>
</g>
</g>
</svg>
