<?xml version="1.0" encoding="UTF-8" standalone="no"?>
<!DOCTYPE svg PUBLIC "-//W3C//DTD SVG 1.1//EN"
 "http://www.w3.org/Graphics/SVG/1.1/DTD/svg11.dtd">
<!-- Generated by graphviz version 2.26.3 (20100126.1600)
 -->
<!-- Title: forcebalance.Mol2.mol2.parse Pages: 1 -->
<svg width="356pt" height="406pt"
 viewBox="0.00 0.00 356.00 406.00" xmlns="http://www.w3.org/2000/svg" xmlns:xlink="http://www.w3.org/1999/xlink">
<g id="graph1" class="graph" transform="scale(1 1) rotate(0) translate(4 402)">
<title>forcebalance.Mol2.mol2.parse</title>
<polygon fill="white" stroke="white" points="-4,5 -4,-402 353,-402 353,5 -4,5"/>
<!-- Node1 -->
<g id="node1" class="node"><title>Node1</title>
<polygon fill="#bfbfbf" stroke="black" points="0.5,-188.5 0.5,-209.5 161.5,-209.5 161.5,-188.5 0.5,-188.5"/>
<text text-anchor="middle" x="81" y="-196.5" font-family="Ubuntu-R" font-size="10.00">forcebalance.Mol2.mol2.parse</text>
</g>
<!-- Node2 -->
<g id="node3" class="node"><title>Node2</title>
<a xlink:href="classforcebalance_1_1Mol2_1_1mol2.html#a4055fdaf7ab9a93d60577a8ce4d91ce1" target="_top" xlink:title="bond identifier (integer, starting from 1) ">
<polygon fill="white" stroke="black" points="198.5,-364 198.5,-398 347.5,-398 347.5,-364 198.5,-364"/>
<text text-anchor="start" x="206.5" y="-385" font-family="Ubuntu-R" font-size="10.00">forcebalance.Mol2.mol2.set</text>
<text text-anchor="middle" x="273" y="-372" font-family="Ubuntu-R" font-size="10.00">_mol_name</text>
</a>
</g>
<!-- Node1&#45;&gt;Node2 -->
<g id="edge2" class="edge"><title>Node1&#45;&gt;Node2</title>
<path fill="none" stroke="midnightblue" d="M86.1996,-209.823C100.236,-237.926 141.669,-313.885 198,-355 199.854,-356.353 201.784,-357.64 203.773,-358.865"/>
<polygon fill="midnightblue" stroke="midnightblue" points="202.363,-362.084 212.812,-363.836 205.737,-355.95 202.363,-362.084"/>
</g>
<!-- Node3 -->
<g id="node5" class="node"><title>Node3</title>
<a xlink:href="classforcebalance_1_1Mol2_1_1mol2.html#a9aa06696da4a8e209bf5fca3acdf790b" target="_top" xlink:title="number of atoms (integer) ">
<polygon fill="white" stroke="black" points="198.5,-312 198.5,-346 347.5,-346 347.5,-312 198.5,-312"/>
<text text-anchor="start" x="206.5" y="-333" font-family="Ubuntu-R" font-size="10.00">forcebalance.Mol2.mol2.set</text>
<text text-anchor="middle" x="273" y="-320" font-family="Ubuntu-R" font-size="10.00">_num_atoms</text>
</a>
</g>
<!-- Node1&#45;&gt;Node3 -->
<g id="edge4" class="edge"><title>Node1&#45;&gt;Node3</title>
<path fill="none" stroke="midnightblue" d="M90.2599,-209.654C108.777,-230.361 152.514,-276.339 198,-303 200.794,-304.638 203.707,-306.194 206.694,-307.669"/>
<polygon fill="midnightblue" stroke="midnightblue" points="205.28,-310.872 215.829,-311.857 208.197,-304.508 205.28,-310.872"/>
</g>
<!-- Node4 -->
<g id="node7" class="node"><title>Node4</title>
<a xlink:href="classforcebalance_1_1Mol2_1_1mol2.html#a067b764ea4c695738f51bc5f995f6f73" target="_top" xlink:title="number of bonds (integer) ">
<polygon fill="white" stroke="black" points="198.5,-260 198.5,-294 347.5,-294 347.5,-260 198.5,-260"/>
<text text-anchor="start" x="206.5" y="-281" font-family="Ubuntu-R" font-size="10.00">forcebalance.Mol2.mol2.set</text>
<text text-anchor="middle" x="273" y="-268" font-family="Ubuntu-R" font-size="10.00">_num_bonds</text>
</a>
</g>
<!-- Node1&#45;&gt;Node4 -->
<g id="edge6" class="edge"><title>Node1&#45;&gt;Node4</title>
<path fill="none" stroke="midnightblue" d="M103.192,-209.536C126.549,-220.467 164.505,-237.778 198,-251 202.687,-252.85 207.565,-254.702 212.483,-256.518"/>
<polygon fill="midnightblue" stroke="midnightblue" points="211.359,-259.833 221.954,-259.954 213.747,-253.253 211.359,-259.833"/>
</g>
<!-- Node5 -->
<g id="node9" class="node"><title>Node5</title>
<a xlink:href="classforcebalance_1_1Mol2_1_1mol2.html#a57bf99785e120a6aedd8be49585f4c5d" target="_top" xlink:title="number of substructures (integer) ">
<polygon fill="white" stroke="black" points="198.5,-208 198.5,-242 347.5,-242 347.5,-208 198.5,-208"/>
<text text-anchor="start" x="206.5" y="-229" font-family="Ubuntu-R" font-size="10.00">forcebalance.Mol2.mol2.set</text>
<text text-anchor="middle" x="273" y="-216" font-family="Ubuntu-R" font-size="10.00">_num_subst</text>
</a>
</g>
<!-- Node1&#45;&gt;Node5 -->
<g id="edge8" class="edge"><title>Node1&#45;&gt;Node5</title>
<path fill="none" stroke="midnightblue" d="M158.54,-209.5C168.273,-210.818 178.269,-212.172 188.107,-213.504"/>
<polygon fill="midnightblue" stroke="midnightblue" points="187.905,-217.009 198.285,-214.882 188.845,-210.072 187.905,-217.009"/>
</g>
<!-- Node6 -->
<g id="node11" class="node"><title>Node6</title>
<a xlink:href="classforcebalance_1_1Mol2_1_1mol2.html#ab5de4b8eef6e851d9be12ecb92cf8f86" target="_top" xlink:title="number of features (integer) ">
<polygon fill="white" stroke="black" points="198.5,-156 198.5,-190 347.5,-190 347.5,-156 198.5,-156"/>
<text text-anchor="start" x="206.5" y="-177" font-family="Ubuntu-R" font-size="10.00">forcebalance.Mol2.mol2.set</text>
<text text-anchor="middle" x="273" y="-164" font-family="Ubuntu-R" font-size="10.00">_num_feat</text>
</a>
</g>
<!-- Node1&#45;&gt;Node6 -->
<g id="edge10" class="edge"><title>Node1&#45;&gt;Node6</title>
<path fill="none" stroke="midnightblue" d="M158.54,-188.5C168.273,-187.182 178.269,-185.828 188.107,-184.496"/>
<polygon fill="midnightblue" stroke="midnightblue" points="188.845,-187.928 198.285,-183.118 187.905,-180.991 188.845,-187.928"/>
</g>
<!-- Node7 -->
<g id="node13" class="node"><title>Node7</title>
<a xlink:href="classforcebalance_1_1Mol2_1_1mol2.html#a981c9a485d4db6abbcb61b8188090078" target="_top" xlink:title="number of sets (integer) ">
<polygon fill="white" stroke="black" points="198.5,-104 198.5,-138 347.5,-138 347.5,-104 198.5,-104"/>
<text text-anchor="start" x="206.5" y="-125" font-family="Ubuntu-R" font-size="10.00">forcebalance.Mol2.mol2.set</text>
<text text-anchor="middle" x="273" y="-112" font-family="Ubuntu-R" font-size="10.00">_num_sets</text>
</a>
</g>
<!-- Node1&#45;&gt;Node7 -->
<g id="edge12" class="edge"><title>Node1&#45;&gt;Node7</title>
<path fill="none" stroke="midnightblue" d="M103.192,-188.464C126.549,-177.533 164.505,-160.222 198,-147 202.687,-145.15 207.565,-143.298 212.483,-141.482"/>
<polygon fill="midnightblue" stroke="midnightblue" points="213.747,-144.747 221.954,-138.046 211.359,-138.167 213.747,-144.747"/>
</g>
<!-- Node8 -->
<g id="node15" class="node"><title>Node8</title>
<a xlink:href="classforcebalance_1_1Mol2_1_1mol2.html#a6ee55f5fae46cee9c0e7d6683c9b5c50" target="_top" xlink:title="bond identifier (integer, starting from 1) ">
<polygon fill="white" stroke="black" points="198.5,-52 198.5,-86 347.5,-86 347.5,-52 198.5,-52"/>
<text text-anchor="start" x="206.5" y="-73" font-family="Ubuntu-R" font-size="10.00">forcebalance.Mol2.mol2.set</text>
<text text-anchor="middle" x="273" y="-60" font-family="Ubuntu-R" font-size="10.00">_mol_type</text>
</a>
</g>
<!-- Node1&#45;&gt;Node8 -->
<g id="edge14" class="edge"><title>Node1&#45;&gt;Node8</title>
<path fill="none" stroke="midnightblue" d="M90.2599,-188.346C108.777,-167.639 152.514,-121.661 198,-95 200.794,-93.3623 203.707,-91.8062 206.694,-90.3305"/>
<polygon fill="midnightblue" stroke="midnightblue" points="208.197,-93.4918 215.829,-86.1434 205.28,-87.1283 208.197,-93.4918"/>
</g>
<!-- Node9 -->
<g id="node17" class="node"><title>Node9</title>
<a xlink:href="classforcebalance_1_1Mol2_1_1mol2.html#aaab9bc1afebb05a355c53db2a35740be" target="_top" xlink:title="bond identifier (integer, starting from 1) ">
<polygon fill="white" stroke="black" points="198.5,-0 198.5,-34 347.5,-34 347.5,-0 198.5,-0"/>
<text text-anchor="start" x="206.5" y="-21" font-family="Ubuntu-R" font-size="10.00">forcebalance.Mol2.mol2.set</text>
<text text-anchor="middle" x="273" y="-8" font-family="Ubuntu-R" font-size="10.00">_charge_type</text>
</a>
</g>
<!-- Node1&#45;&gt;Node9 -->
<g id="edge16" class="edge"><title>Node1&#45;&gt;Node9</title>
<path fill="none" stroke="midnightblue" d="M86.1996,-188.177C100.236,-160.074 141.669,-84.1148 198,-43 199.854,-41.6467 201.784,-40.3595 203.773,-39.1355"/>
<polygon fill="midnightblue" stroke="midnightblue" points="205.737,-42.0501 212.812,-34.1643 202.363,-35.9165 205.737,-42.0501"/>
</g>
</g>
</svg>
