<?xml version="1.0" encoding="UTF-8" standalone="no"?>
<!DOCTYPE svg PUBLIC "-//W3C//DTD SVG 1.1//EN"
 "http://www.w3.org/Graphics/SVG/1.1/DTD/svg11.dtd">
<!-- Generated by graphviz version 2.26.3 (20100126.1600)
 -->
<!-- Title: forcebalance.quantity.Quantity_H_vap Pages: 1 -->
<svg width="170pt" height="160pt"
 viewBox="0.00 0.00 170.00 160.00" xmlns="http://www.w3.org/2000/svg" xmlns:xlink="http://www.w3.org/1999/xlink">
<g id="graph1" class="graph" transform="scale(1 1) rotate(0) translate(4 156)">
<title>forcebalance.quantity.Quantity_H_vap</title>
<polygon fill="white" stroke="white" points="-4,5 -4,-156 167,-156 167,5 -4,5"/>
<!-- Node1 -->
<g id="node1" class="node"><title>Node1</title>
<polygon fill="#bfbfbf" stroke="black" points="0,-1 0,-35 162,-35 162,-1 0,-1"/>
<text text-anchor="start" x="8" y="-22" font-family="Ubuntu-R" font-size="10.00">forcebalance.quantity.Quantity</text>
<text text-anchor="middle" x="81" y="-9" font-family="Ubuntu-R" font-size="10.00">_H_vap</text>
</g>
<!-- Node2 -->
<g id="node2" class="node"><title>Node2</title>
<a xlink:href="classforcebalance_1_1quantity_1_1Quantity.html" target="_top" xlink:title="Base class for thermodynamical quantity used for fitting. ">
<polygon fill="white" stroke="black" points="0,-72.5 0,-93.5 162,-93.5 162,-72.5 0,-72.5"/>
<text text-anchor="middle" x="81" y="-80.5" font-family="Ubuntu-R" font-size="10.00">forcebalance.quantity.Quantity</text>
</a>
</g>
<!-- Node2&#45;&gt;Node1 -->
<g id="edge2" class="edge"><title>Node2&#45;&gt;Node1</title>
<path fill="none" stroke="midnightblue" d="M81,-62.1306C81,-53.4049 81,-43.3908 81,-35.1099"/>
<polygon fill="midnightblue" stroke="midnightblue" points="77.5001,-62.2665 81,-72.2666 84.5001,-62.2666 77.5001,-62.2665"/>
</g>
<!-- Node3 -->
<g id="node4" class="node"><title>Node3</title>
<polygon fill="white" stroke="#bfbfbf" points="58,-130.5 58,-151.5 104,-151.5 104,-130.5 58,-130.5"/>
<text text-anchor="middle" x="81" y="-138.5" font-family="Ubuntu-R" font-size="10.00">object</text>
</g>
<!-- Node3&#45;&gt;Node2 -->
<g id="edge4" class="edge"><title>Node3&#45;&gt;Node2</title>
<path fill="none" stroke="midnightblue" d="M81,-120.191C81,-111.168 81,-100.994 81,-93.5707"/>
<polygon fill="midnightblue" stroke="midnightblue" points="77.5001,-120.362 81,-130.362 84.5001,-120.362 77.5001,-120.362"/>
</g>
</g>
</svg>
