<?xml version="1.0" encoding="UTF-8" standalone="no"?>
<!DOCTYPE svg PUBLIC "-//W3C//DTD SVG 1.1//EN"
 "http://www.w3.org/Graphics/SVG/1.1/DTD/svg11.dtd">
<!-- Generated by graphviz version 2.26.3 (20100126.1600)
 -->
<!-- Title: forcebalance.openmmio.OpenMM.evaluate_ Pages: 1 -->
<svg width="744pt" height="146pt"
 viewBox="0.00 0.00 744.00 146.00" xmlns="http://www.w3.org/2000/svg" xmlns:xlink="http://www.w3.org/1999/xlink">
<g id="graph1" class="graph" transform="scale(1 1) rotate(0) translate(4 142)">
<title>forcebalance.openmmio.OpenMM.evaluate_</title>
<polygon fill="white" stroke="white" points="-4,5 -4,-142 741,-142 741,5 -4,5"/>
<!-- Node1 -->
<g id="node1" class="node"><title>Node1</title>
<polygon fill="#bfbfbf" stroke="black" points="0.5,-52 0.5,-86 161.5,-86 161.5,-52 0.5,-52"/>
<text text-anchor="start" x="8.5" y="-73" font-family="Ubuntu-R" font-size="10.00">forcebalance.openmmio.Open</text>
<text text-anchor="middle" x="81" y="-60" font-family="Ubuntu-R" font-size="10.00">MM.evaluate_</text>
</g>
<!-- Node2 -->
<g id="node3" class="node"><title>Node2</title>
<a xlink:href="classforcebalance_1_1openmmio_1_1OpenMM.html#a8f584613e1512c0963c62427f759c8b0" target="_top" xlink:title="Create the simulation object, or update the force field parameters in the existing simulation object...">
<polygon fill="white" stroke="black" points="198.5,-104 198.5,-138 359.5,-138 359.5,-104 198.5,-104"/>
<text text-anchor="start" x="206.5" y="-125" font-family="Ubuntu-R" font-size="10.00">forcebalance.openmmio.Open</text>
<text text-anchor="middle" x="279" y="-112" font-family="Ubuntu-R" font-size="10.00">MM.update_simulation</text>
</a>
</g>
<!-- Node1&#45;&gt;Node2 -->
<g id="edge2" class="edge"><title>Node1&#45;&gt;Node2</title>
<path fill="none" stroke="midnightblue" d="M145.833,-86.0267C164.465,-90.92 184.937,-96.2967 204.123,-101.335"/>
<polygon fill="midnightblue" stroke="midnightblue" points="203.461,-104.78 214.022,-103.935 205.239,-98.0096 203.461,-104.78"/>
</g>
<!-- Node3 -->
<g id="node5" class="node"><title>Node3</title>
<a xlink:href="classforcebalance_1_1openmmio_1_1OpenMM.html#af1d80ea225fd5c44d00896bdf58aac29" target="_top" xlink:title="forcebalance.openmmio.Open\lMM.evaluate_one_">
<polygon fill="white" stroke="black" points="198.5,-52 198.5,-86 359.5,-86 359.5,-52 198.5,-52"/>
<text text-anchor="start" x="206.5" y="-73" font-family="Ubuntu-R" font-size="10.00">forcebalance.openmmio.Open</text>
<text text-anchor="middle" x="279" y="-60" font-family="Ubuntu-R" font-size="10.00">MM.evaluate_one_</text>
</a>
</g>
<!-- Node1&#45;&gt;Node3 -->
<g id="edge4" class="edge"><title>Node1&#45;&gt;Node3</title>
<path fill="none" stroke="midnightblue" d="M161.534,-69C170.23,-69 179.123,-69 187.931,-69"/>
<polygon fill="midnightblue" stroke="midnightblue" points="188.216,-72.5001 198.216,-69 188.216,-65.5001 188.216,-72.5001"/>
</g>
<!-- Node6 -->
<g id="node11" class="node"><title>Node6</title>
<a xlink:href="classforcebalance_1_1openmmio_1_1OpenMM.html#a77e08b50b78e299cc6c80c09ea4975a6" target="_top" xlink:title="Set the positions and periodic box vectors to one of the stored coordinates. ">
<polygon fill="white" stroke="black" points="198.5,-0 198.5,-34 359.5,-34 359.5,-0 198.5,-0"/>
<text text-anchor="start" x="206.5" y="-21" font-family="Ubuntu-R" font-size="10.00">forcebalance.openmmio.Open</text>
<text text-anchor="middle" x="279" y="-8" font-family="Ubuntu-R" font-size="10.00">MM.set_positions</text>
</a>
</g>
<!-- Node1&#45;&gt;Node6 -->
<g id="edge10" class="edge"><title>Node1&#45;&gt;Node6</title>
<path fill="none" stroke="midnightblue" d="M145.833,-51.9733C164.465,-47.08 184.937,-41.7033 204.123,-36.6647"/>
<polygon fill="midnightblue" stroke="midnightblue" points="205.239,-39.9904 214.022,-34.065 203.461,-33.22 205.239,-39.9904"/>
</g>
<!-- Node4 -->
<g id="node7" class="node"><title>Node4</title>
<a xlink:href="namespaceforcebalance_1_1openmmio.html#a8a2081dcaf027b9b9ab224e22680714d" target="_top" xlink:title="Return the current dipole moment in Debye. ">
<polygon fill="white" stroke="black" points="396,-52 396,-86 548,-86 548,-52 396,-52"/>
<text text-anchor="start" x="404" y="-73" font-family="Ubuntu-R" font-size="10.00">forcebalance.openmmio.get</text>
<text text-anchor="middle" x="472" y="-60" font-family="Ubuntu-R" font-size="10.00">_dipole</text>
</a>
</g>
<!-- Node3&#45;&gt;Node4 -->
<g id="edge6" class="edge"><title>Node3&#45;&gt;Node4</title>
<path fill="none" stroke="midnightblue" d="M359.731,-69C368.343,-69 377.128,-69 385.8,-69"/>
<polygon fill="midnightblue" stroke="midnightblue" points="385.912,-72.5001 395.912,-69 385.912,-65.5001 385.912,-72.5001"/>
</g>
<!-- Node5 -->
<g id="node9" class="node"><title>Node5</title>
<a xlink:href="namespaceforcebalance_1_1openmmio.html#a829487387c4b4a4817a2e3fc50242857" target="_top" xlink:title="Return the current multipole moments in Debye and Buckingham units. ">
<polygon fill="white" stroke="black" points="584,-52 584,-86 736,-86 736,-52 584,-52"/>
<text text-anchor="start" x="592" y="-73" font-family="Ubuntu-R" font-size="10.00">forcebalance.openmmio.get</text>
<text text-anchor="middle" x="660" y="-60" font-family="Ubuntu-R" font-size="10.00">_multipoles</text>
</a>
</g>
<!-- Node4&#45;&gt;Node5 -->
<g id="edge8" class="edge"><title>Node4&#45;&gt;Node5</title>
<path fill="none" stroke="midnightblue" d="M548.196,-69C556.517,-69 565.032,-69 573.466,-69"/>
<polygon fill="midnightblue" stroke="midnightblue" points="573.696,-72.5001 583.696,-69 573.696,-65.5001 573.696,-72.5001"/>
</g>
</g>
</svg>
