<?xml version="1.0" encoding="UTF-8" standalone="no"?>
<!DOCTYPE svg PUBLIC "-//W3C//DTD SVG 1.1//EN"
 "http://www.w3.org/Graphics/SVG/1.1/DTD/svg11.dtd">
<!-- Generated by graphviz version 2.26.3 (20100126.1600)
 -->
<!-- Title: forcebalance.lipid.Lipid.npt_simulation Pages: 1 -->
<svg width="330pt" height="94pt"
 viewBox="0.00 0.00 330.00 94.00" xmlns="http://www.w3.org/2000/svg" xmlns:xlink="http://www.w3.org/1999/xlink">
<g id="graph1" class="graph" transform="scale(1 1) rotate(0) translate(4 90)">
<title>forcebalance.lipid.Lipid.npt_simulation</title>
<polygon fill="white" stroke="white" points="-4,5 -4,-90 327,-90 327,5 -4,5"/>
<!-- Node1 -->
<g id="node1" class="node"><title>Node1</title>
<polygon fill="#bfbfbf" stroke="black" points="0.5,-26 0.5,-60 143.5,-60 143.5,-26 0.5,-26"/>
<text text-anchor="start" x="8.5" y="-47" font-family="Ubuntu-R" font-size="10.00">forcebalance.lipid.Lipid.npt</text>
<text text-anchor="middle" x="72" y="-34" font-family="Ubuntu-R" font-size="10.00">_simulation</text>
</g>
<!-- Node2 -->
<g id="node3" class="node"><title>Node2</title>
<a xlink:href="namespaceforcebalance_1_1nifty.html#ac37d4fe58ef70ed546ebfc45d12f7a5d" target="_top" xlink:title="forcebalance.nifty.getWork\lQueue">
<polygon fill="white" stroke="black" points="180.5,-52 180.5,-86 321.5,-86 321.5,-52 180.5,-52"/>
<text text-anchor="start" x="188.5" y="-73" font-family="Ubuntu-R" font-size="10.00">forcebalance.nifty.getWork</text>
<text text-anchor="middle" x="251" y="-60" font-family="Ubuntu-R" font-size="10.00">Queue</text>
</a>
</g>
<!-- Node1&#45;&gt;Node2 -->
<g id="edge2" class="edge"><title>Node1&#45;&gt;Node2</title>
<path fill="none" stroke="midnightblue" d="M143.517,-53.388C152.361,-54.6726 161.45,-55.9927 170.418,-57.2953"/>
<polygon fill="midnightblue" stroke="midnightblue" points="170.072,-60.7818 180.472,-58.7557 171.079,-53.8545 170.072,-60.7818"/>
</g>
<!-- Node3 -->
<g id="node5" class="node"><title>Node3</title>
<a xlink:href="namespaceforcebalance_1_1nifty.html#a0cf4e58f90acf20e3d6224be2354082c" target="_top" xlink:title="forcebalance.nifty.link\l_dir_contents">
<polygon fill="white" stroke="black" points="191.5,-0 191.5,-34 310.5,-34 310.5,-0 191.5,-0"/>
<text text-anchor="start" x="199.5" y="-21" font-family="Ubuntu-R" font-size="10.00">forcebalance.nifty.link</text>
<text text-anchor="middle" x="251" y="-8" font-family="Ubuntu-R" font-size="10.00">_dir_contents</text>
</a>
</g>
<!-- Node1&#45;&gt;Node3 -->
<g id="edge4" class="edge"><title>Node1&#45;&gt;Node3</title>
<path fill="none" stroke="midnightblue" d="M143.517,-32.612C155.918,-30.8108 168.799,-28.9398 181.155,-27.1452"/>
<polygon fill="midnightblue" stroke="midnightblue" points="181.994,-30.56 191.387,-25.6588 180.988,-23.6327 181.994,-30.56"/>
</g>
</g>
</svg>
