<?xml version="1.0" encoding="UTF-8" standalone="no"?>
<!DOCTYPE svg PUBLIC "-//W3C//DTD SVG 1.1//EN"
 "http://www.w3.org/Graphics/SVG/1.1/DTD/svg11.dtd">
<!-- Generated by graphviz version 2.26.3 (20100126.1600)
 -->
<!-- Title: forcebalance.psi4io.GBS_Reader.feed Pages: 1 -->
<svg width="334pt" height="70pt"
 viewBox="0.00 0.00 334.00 70.00" xmlns="http://www.w3.org/2000/svg" xmlns:xlink="http://www.w3.org/1999/xlink">
<g id="graph1" class="graph" transform="scale(1 1) rotate(0) translate(4 66)">
<title>forcebalance.psi4io.GBS_Reader.feed</title>
<polygon fill="white" stroke="white" points="-4,5 -4,-66 331,-66 331,5 -4,5"/>
<!-- Node1 -->
<g id="node1" class="node"><title>Node1</title>
<polygon fill="#bfbfbf" stroke="black" points="0.5,-14 0.5,-48 133.5,-48 133.5,-14 0.5,-14"/>
<text text-anchor="start" x="8.5" y="-35" font-family="Ubuntu-R" font-size="10.00">forcebalance.psi4io.GBS</text>
<text text-anchor="middle" x="67" y="-22" font-family="Ubuntu-R" font-size="10.00">_Reader.feed</text>
</g>
<!-- Node2 -->
<g id="node3" class="node"><title>Node2</title>
<a xlink:href="namespaceforcebalance_1_1molecule.html#a0dd31eff88d2bed0884ab21a13261d42" target="_top" xlink:title="ONLY matches integers! If you have a decimal point? None shall pass! ">
<polygon fill="white" stroke="black" points="174.5,-40.5 174.5,-61.5 321.5,-61.5 321.5,-40.5 174.5,-40.5"/>
<text text-anchor="middle" x="248" y="-48.5" font-family="Ubuntu-R" font-size="10.00">forcebalance.molecule.isint</text>
</a>
</g>
<!-- Node1&#45;&gt;Node2 -->
<g id="edge2" class="edge"><title>Node1&#45;&gt;Node2</title>
<path fill="none" stroke="midnightblue" d="M133.627,-38.3621C143.53,-39.4564 153.844,-40.5961 164.047,-41.7234"/>
<polygon fill="midnightblue" stroke="midnightblue" points="163.869,-45.225 174.193,-42.8446 164.638,-38.2674 163.869,-45.225"/>
</g>
<!-- Node3 -->
<g id="node5" class="node"><title>Node3</title>
<a xlink:href="namespaceforcebalance_1_1molecule.html#afe989ffd119568047fc8265b1d329a70" target="_top" xlink:title="Matches ANY number; it can be a decimal, scientific notation, integer, or what have you...">
<polygon fill="white" stroke="black" points="170,-0.5 170,-21.5 326,-21.5 326,-0.5 170,-0.5"/>
<text text-anchor="middle" x="248" y="-8.5" font-family="Ubuntu-R" font-size="10.00">forcebalance.molecule.isfloat</text>
</a>
</g>
<!-- Node1&#45;&gt;Node3 -->
<g id="edge4" class="edge"><title>Node1&#45;&gt;Node3</title>
<path fill="none" stroke="midnightblue" d="M133.627,-23.6379C142.195,-22.6911 151.072,-21.7103 159.917,-20.7329"/>
<polygon fill="midnightblue" stroke="midnightblue" points="160.317,-24.2101 169.873,-19.6329 159.549,-17.2524 160.317,-24.2101"/>
</g>
</g>
</svg>
