<?xml version="1.0" encoding="UTF-8" standalone="no"?>
<!DOCTYPE svg PUBLIC "-//W3C//DTD SVG 1.1//EN"
 "http://www.w3.org/Graphics/SVG/1.1/DTD/svg11.dtd">
<!-- Generated by graphviz version 2.26.3 (20100126.1600)
 -->
<!-- Title: forcebalance.optimizer.Optimizer.BFGS Pages: 1 -->
<svg width="822pt" height="108pt"
 viewBox="0.00 0.00 822.00 108.00" xmlns="http://www.w3.org/2000/svg" xmlns:xlink="http://www.w3.org/1999/xlink">
<g id="graph1" class="graph" transform="scale(1 1) rotate(0) translate(4 104)">
<title>forcebalance.optimizer.Optimizer.BFGS</title>
<polygon fill="white" stroke="white" points="-4,5 -4,-104 819,-104 819,5 -4,5"/>
<!-- Node1 -->
<g id="node1" class="node"><title>Node1</title>
<polygon fill="#bfbfbf" stroke="black" points="0.5,-39.5 0.5,-60.5 203.5,-60.5 203.5,-39.5 0.5,-39.5"/>
<text text-anchor="middle" x="102" y="-47.5" font-family="Ubuntu-R" font-size="10.00">forcebalance.optimizer.Optimizer.BFGS</text>
</g>
<!-- Node2 -->
<g id="node3" class="node"><title>Node2</title>
<a xlink:href="classforcebalance_1_1optimizer_1_1Optimizer.html#a1d222f82239075ea0d6b9294b2f50e12" target="_top" xlink:title="The main ForceBalance adaptive trust&#45;radius pseudo&#45;Newton optimizer. ">
<polygon fill="white" stroke="black" points="240.5,-33 240.5,-67 417.5,-67 417.5,-33 240.5,-33"/>
<text text-anchor="start" x="248.5" y="-54" font-family="Ubuntu-R" font-size="10.00">forcebalance.optimizer.Optimizer.</text>
<text text-anchor="middle" x="329" y="-41" font-family="Ubuntu-R" font-size="10.00">MainOptimizer</text>
</a>
</g>
<!-- Node1&#45;&gt;Node2 -->
<g id="edge2" class="edge"><title>Node1&#45;&gt;Node2</title>
<path fill="none" stroke="midnightblue" d="M203.549,-50C212.373,-50 221.294,-50 230.097,-50"/>
<polygon fill="midnightblue" stroke="midnightblue" points="230.362,-53.5001 240.362,-50 230.362,-46.5001 230.362,-53.5001"/>
</g>
<!-- Node3 -->
<g id="node5" class="node"><title>Node3</title>
<a xlink:href="namespaceforcebalance_1_1nifty.html#a11babd62dc7bca389162c6318f9672ca" target="_top" xlink:title="Cool&#45;looking printout for slick formatting of output. ">
<polygon fill="white" stroke="black" points="481,-78.5 481,-99.5 625,-99.5 625,-78.5 481,-78.5"/>
<text text-anchor="middle" x="553" y="-86.5" font-family="Ubuntu-R" font-size="10.00">forcebalance.nifty.printcool</text>
</a>
</g>
<!-- Node2&#45;&gt;Node3 -->
<g id="edge4" class="edge"><title>Node2&#45;&gt;Node3</title>
<path fill="none" stroke="midnightblue" d="M417.531,-65.4138C439.18,-69.1831 462.053,-73.1656 482.717,-76.7632"/>
<polygon fill="midnightblue" stroke="midnightblue" points="482.216,-80.2286 492.668,-78.4958 483.417,-73.3323 482.216,-80.2286"/>
</g>
<!-- Node4 -->
<g id="node7" class="node"><title>Node4</title>
<a xlink:href="namespaceforcebalance_1_1nifty.html#abb8f59044961a12588e0653c2baa8b01" target="_top" xlink:title="forcebalance.nifty.warn\l_press_key">
<polygon fill="white" stroke="black" points="688.5,-52 688.5,-86 813.5,-86 813.5,-52 688.5,-52"/>
<text text-anchor="start" x="696.5" y="-73" font-family="Ubuntu-R" font-size="10.00">forcebalance.nifty.warn</text>
<text text-anchor="middle" x="751" y="-60" font-family="Ubuntu-R" font-size="10.00">_press_key</text>
</a>
</g>
<!-- Node2&#45;&gt;Node4 -->
<g id="edge8" class="edge"><title>Node2&#45;&gt;Node4</title>
<path fill="none" stroke="midnightblue" d="M417.722,-53.9946C495.028,-57.4752 605.772,-62.4613 678.032,-65.7147"/>
<polygon fill="midnightblue" stroke="midnightblue" points="678.258,-69.2283 688.405,-66.1818 678.573,-62.2354 678.258,-69.2283"/>
</g>
<!-- Node5 -->
<g id="node10" class="node"><title>Node5</title>
<a xlink:href="classforcebalance_1_1optimizer_1_1Optimizer.html#a0888d8ccc5f89aef8d2fcb40fc3dd599" target="_top" xlink:title="forcebalance.optimizer.Optimizer.adjh">
<polygon fill="white" stroke="black" points="454.5,-0.5 454.5,-21.5 651.5,-21.5 651.5,-0.5 454.5,-0.5"/>
<text text-anchor="middle" x="553" y="-8.5" font-family="Ubuntu-R" font-size="10.00">forcebalance.optimizer.Optimizer.adjh</text>
</a>
</g>
<!-- Node2&#45;&gt;Node5 -->
<g id="edge10" class="edge"><title>Node2&#45;&gt;Node5</title>
<path fill="none" stroke="midnightblue" d="M417.531,-34.5862C439.18,-30.8169 462.053,-26.8344 482.717,-23.2368"/>
<polygon fill="midnightblue" stroke="midnightblue" points="483.417,-26.6677 492.668,-21.5042 482.216,-19.7714 483.417,-26.6677"/>
</g>
<!-- Node3&#45;&gt;Node4 -->
<g id="edge6" class="edge"><title>Node3&#45;&gt;Node4</title>
<path fill="none" stroke="midnightblue" d="M625.043,-81.723C642.42,-79.9677 660.996,-78.0913 678.399,-76.3334"/>
<polygon fill="midnightblue" stroke="midnightblue" points="678.894,-79.8013 688.492,-75.314 678.191,-72.8368 678.894,-79.8013"/>
</g>
</g>
</svg>
