<?xml version="1.0" encoding="UTF-8" standalone="no"?>
<!DOCTYPE svg PUBLIC "-//W3C//DTD SVG 1.1//EN"
 "http://www.w3.org/Graphics/SVG/1.1/DTD/svg11.dtd">
<!-- Generated by graphviz version 2.26.3 (20100126.1600)
 -->
<!-- Title: forcebalance.liquid.Liquid.npt_simulation Pages: 1 -->
<svg width="342pt" height="94pt"
 viewBox="0.00 0.00 342.00 94.00" xmlns="http://www.w3.org/2000/svg" xmlns:xlink="http://www.w3.org/1999/xlink">
<g id="graph1" class="graph" transform="scale(1 1) rotate(0) translate(4 90)">
<title>forcebalance.liquid.Liquid.npt_simulation</title>
<polygon fill="white" stroke="white" points="-4,5 -4,-90 339,-90 339,5 -4,5"/>
<!-- Node1 -->
<g id="node1" class="node"><title>Node1</title>
<polygon fill="#bfbfbf" stroke="black" points="0.5,-26 0.5,-60 155.5,-60 155.5,-26 0.5,-26"/>
<text text-anchor="start" x="8.5" y="-47" font-family="Ubuntu-R" font-size="10.00">forcebalance.liquid.Liquid.npt</text>
<text text-anchor="middle" x="78" y="-34" font-family="Ubuntu-R" font-size="10.00">_simulation</text>
</g>
<!-- Node2 -->
<g id="node3" class="node"><title>Node2</title>
<a xlink:href="namespaceforcebalance_1_1nifty.html#ac37d4fe58ef70ed546ebfc45d12f7a5d" target="_top" xlink:title="forcebalance.nifty.getWork\lQueue">
<polygon fill="white" stroke="black" points="192.5,-52 192.5,-86 333.5,-86 333.5,-52 192.5,-52"/>
<text text-anchor="start" x="200.5" y="-73" font-family="Ubuntu-R" font-size="10.00">forcebalance.nifty.getWork</text>
<text text-anchor="middle" x="263" y="-60" font-family="Ubuntu-R" font-size="10.00">Queue</text>
</a>
</g>
<!-- Node1&#45;&gt;Node2 -->
<g id="edge2" class="edge"><title>Node1&#45;&gt;Node2</title>
<path fill="none" stroke="midnightblue" d="M155.653,-53.9133C164.489,-55.1553 173.512,-56.4233 182.386,-57.6704"/>
<polygon fill="midnightblue" stroke="midnightblue" points="181.934,-61.1413 192.324,-59.0671 182.908,-54.2094 181.934,-61.1413"/>
</g>
<!-- Node3 -->
<g id="node5" class="node"><title>Node3</title>
<a xlink:href="namespaceforcebalance_1_1nifty.html#a0cf4e58f90acf20e3d6224be2354082c" target="_top" xlink:title="forcebalance.nifty.link\l_dir_contents">
<polygon fill="white" stroke="black" points="203.5,-0 203.5,-34 322.5,-34 322.5,-0 203.5,-0"/>
<text text-anchor="start" x="211.5" y="-21" font-family="Ubuntu-R" font-size="10.00">forcebalance.nifty.link</text>
<text text-anchor="middle" x="263" y="-8" font-family="Ubuntu-R" font-size="10.00">_dir_contents</text>
</a>
</g>
<!-- Node1&#45;&gt;Node3 -->
<g id="edge4" class="edge"><title>Node1&#45;&gt;Node3</title>
<path fill="none" stroke="midnightblue" d="M155.653,-32.0867C168.09,-30.3387 180.895,-28.5391 193.137,-26.8186"/>
<polygon fill="midnightblue" stroke="midnightblue" points="193.851,-30.2527 203.267,-25.395 192.877,-23.3208 193.851,-30.2527"/>
</g>
</g>
</svg>
