<?xml version="1.0" encoding="UTF-8" standalone="no"?>
<!DOCTYPE svg PUBLIC "-//W3C//DTD SVG 1.1//EN"
 "http://www.w3.org/Graphics/SVG/1.1/DTD/svg11.dtd">
<!-- Generated by graphviz version 2.26.3 (20100126.1600)
 -->
<!-- Title: forcebalance.openmmio.OpenMM.multipole_moments Pages: 1 -->
<svg width="1376pt" height="334pt"
 viewBox="0.00 0.00 1376.00 334.00" xmlns="http://www.w3.org/2000/svg" xmlns:xlink="http://www.w3.org/1999/xlink">
<g id="graph1" class="graph" transform="scale(1 1) rotate(0) translate(4 330)">
<title>forcebalance.openmmio.OpenMM.multipole_moments</title>
<polygon fill="white" stroke="white" points="-4,5 -4,-330 1373,-330 1373,5 -4,5"/>
<!-- Node1 -->
<g id="node1" class="node"><title>Node1</title>
<polygon fill="#bfbfbf" stroke="black" points="0.5,-90 0.5,-124 161.5,-124 161.5,-90 0.5,-90"/>
<text text-anchor="start" x="8.5" y="-111" font-family="Ubuntu-R" font-size="10.00">forcebalance.openmmio.Open</text>
<text text-anchor="middle" x="81" y="-98" font-family="Ubuntu-R" font-size="10.00">MM.multipole_moments</text>
</g>
<!-- Node2 -->
<g id="node3" class="node"><title>Node2</title>
<a xlink:href="classforcebalance_1_1openmmio_1_1OpenMM.html#a8f584613e1512c0963c62427f759c8b0" target="_top" xlink:title="Create the simulation object, or update the force field parameters in the existing simulation object...">
<polygon fill="white" stroke="black" points="424.5,-140 424.5,-174 585.5,-174 585.5,-140 424.5,-140"/>
<text text-anchor="start" x="432.5" y="-161" font-family="Ubuntu-R" font-size="10.00">forcebalance.openmmio.Open</text>
<text text-anchor="middle" x="505" y="-148" font-family="Ubuntu-R" font-size="10.00">MM.update_simulation</text>
</a>
</g>
<!-- Node1&#45;&gt;Node2 -->
<g id="edge2" class="edge"><title>Node1&#45;&gt;Node2</title>
<path fill="none" stroke="midnightblue" d="M149.99,-124.019C165.694,-127.422 182.36,-130.663 198,-133 270.374,-143.816 353.121,-149.927 414.458,-153.272"/>
<polygon fill="midnightblue" stroke="midnightblue" points="414.326,-156.77 424.497,-153.805 414.697,-149.78 414.326,-156.77"/>
</g>
<!-- Node3 -->
<g id="node5" class="node"><title>Node3</title>
<a xlink:href="classforcebalance_1_1gmxio_1_1GMX.html#a26446fe0d7708c321fb39a2944ca5625" target="_top" xlink:title="Optimize the geometry and align the optimized geometry to the starting geometry. ">
<polygon fill="white" stroke="black" points="198.5,-211.5 198.5,-232.5 377.5,-232.5 377.5,-211.5 198.5,-211.5"/>
<text text-anchor="middle" x="288" y="-219.5" font-family="Ubuntu-R" font-size="10.00">forcebalance.gmxio.GMX.optimize</text>
</a>
</g>
<!-- Node1&#45;&gt;Node3 -->
<g id="edge4" class="edge"><title>Node1&#45;&gt;Node3</title>
<path fill="none" stroke="midnightblue" d="M111.99,-124.217C152.02,-146.456 221.131,-184.851 259.769,-206.316"/>
<polygon fill="midnightblue" stroke="midnightblue" points="258.458,-209.591 268.899,-211.388 261.857,-203.472 258.458,-209.591"/>
</g>
<!-- Node17 -->
<g id="node34" class="node"><title>Node17</title>
<a xlink:href="classforcebalance_1_1openmmio_1_1OpenMM.html#a89b5d622f3f99e64eef752c2b3a89af6" target="_top" xlink:title="Optimize the geometry and align the optimized geometry to the starting geometry, and return the RMSD...">
<polygon fill="white" stroke="black" points="207.5,-90 207.5,-124 368.5,-124 368.5,-90 207.5,-90"/>
<text text-anchor="start" x="215.5" y="-111" font-family="Ubuntu-R" font-size="10.00">forcebalance.openmmio.Open</text>
<text text-anchor="middle" x="288" y="-98" font-family="Ubuntu-R" font-size="10.00">MM.optimize</text>
</a>
</g>
<!-- Node1&#45;&gt;Node17 -->
<g id="edge34" class="edge"><title>Node1&#45;&gt;Node17</title>
<path fill="none" stroke="midnightblue" d="M161.624,-107C173.214,-107 185.206,-107 196.98,-107"/>
<polygon fill="midnightblue" stroke="midnightblue" points="197.255,-110.5 207.255,-107 197.255,-103.5 197.255,-110.5"/>
</g>
<!-- Node18 -->
<g id="node37" class="node"><title>Node18</title>
<a xlink:href="classforcebalance_1_1openmmio_1_1OpenMM.html#a77e08b50b78e299cc6c80c09ea4975a6" target="_top" xlink:title="Set the positions and periodic box vectors to one of the stored coordinates. ">
<polygon fill="white" stroke="black" points="424.5,-36 424.5,-70 585.5,-70 585.5,-36 424.5,-36"/>
<text text-anchor="start" x="432.5" y="-57" font-family="Ubuntu-R" font-size="10.00">forcebalance.openmmio.Open</text>
<text text-anchor="middle" x="505" y="-44" font-family="Ubuntu-R" font-size="10.00">MM.set_positions</text>
</a>
</g>
<!-- Node1&#45;&gt;Node18 -->
<g id="edge42" class="edge"><title>Node1&#45;&gt;Node18</title>
<path fill="none" stroke="midnightblue" d="M150.633,-89.996C166.154,-86.6343 182.581,-83.4063 198,-81 270.257,-69.7236 352.842,-62.5078 414.145,-58.2305"/>
<polygon fill="midnightblue" stroke="midnightblue" points="414.442,-61.7184 424.179,-57.5432 413.964,-54.7348 414.442,-61.7184"/>
</g>
<!-- Node20 -->
<g id="node42" class="node"><title>Node20</title>
<a xlink:href="namespaceforcebalance_1_1openmmio.html#a829487387c4b4a4817a2e3fc50242857" target="_top" xlink:title="Return the current multipole moments in Debye and Buckingham units. ">
<polygon fill="white" stroke="black" points="212,-0 212,-34 364,-34 364,-0 212,-0"/>
<text text-anchor="start" x="220" y="-21" font-family="Ubuntu-R" font-size="10.00">forcebalance.openmmio.get</text>
<text text-anchor="middle" x="288" y="-8" font-family="Ubuntu-R" font-size="10.00">_multipoles</text>
</a>
</g>
<!-- Node1&#45;&gt;Node20 -->
<g id="edge44" class="edge"><title>Node1&#45;&gt;Node20</title>
<path fill="none" stroke="midnightblue" d="M112.235,-89.7935C135.496,-77.3405 168.239,-60.5614 198,-48 206.701,-44.3275 216.002,-40.7499 225.202,-37.4077"/>
<polygon fill="midnightblue" stroke="midnightblue" points="226.478,-40.6687 234.724,-34.0159 224.129,-34.0746 226.478,-40.6687"/>
</g>
<!-- Node4 -->
<g id="node7" class="node"><title>Node4</title>
<a xlink:href="namespaceforcebalance_1_1gmxio.html#a73a881531c27adfddab62cda7f2232cd" target="_top" xlink:title="Create or edit a Gromacs MDP file. ">
<polygon fill="white" stroke="black" points="423.5,-192.5 423.5,-213.5 586.5,-213.5 586.5,-192.5 423.5,-192.5"/>
<text text-anchor="middle" x="505" y="-200.5" font-family="Ubuntu-R" font-size="10.00">forcebalance.gmxio.write_mdp</text>
</a>
</g>
<!-- Node3&#45;&gt;Node4 -->
<g id="edge6" class="edge"><title>Node3&#45;&gt;Node4</title>
<path fill="none" stroke="midnightblue" d="M377.515,-214.162C389.254,-213.134 401.298,-212.08 413.076,-211.049"/>
<polygon fill="midnightblue" stroke="midnightblue" points="413.687,-214.509 423.343,-210.15 413.076,-207.535 413.687,-214.509"/>
</g>
<!-- Node9 -->
<g id="node17" class="node"><title>Node9</title>
<a xlink:href="classforcebalance_1_1gmxio_1_1GMX.html#a0a8687f6d972019fd7eef4cb8a5d86c7" target="_top" xlink:title="Call gromacs and allow for certain expected warnings. ">
<polygon fill="white" stroke="black" points="414,-270.5 414,-291.5 596,-291.5 596,-270.5 414,-270.5"/>
<text text-anchor="middle" x="505" y="-278.5" font-family="Ubuntu-R" font-size="10.00">forcebalance.gmxio.GMX.warngmx</text>
</a>
</g>
<!-- Node3&#45;&gt;Node9 -->
<g id="edge16" class="edge"><title>Node3&#45;&gt;Node9</title>
<path fill="none" stroke="midnightblue" d="M326.795,-232.548C362.941,-242.376 416.987,-257.07 456.077,-267.698"/>
<polygon fill="midnightblue" stroke="midnightblue" points="455.607,-271.198 466.175,-270.444 457.444,-264.443 455.607,-271.198"/>
</g>
<!-- Node10 -->
<g id="node19" class="node"><title>Node10</title>
<a xlink:href="classforcebalance_1_1gmxio_1_1GMX.html#a4e472c27d2c244c9ad6edb5b35f46a75" target="_top" xlink:title="Call GROMACS; prepend the gmxpath to the call to the GROMACS program. ">
<polygon fill="white" stroke="black" points="632.5,-252.5 632.5,-273.5 807.5,-273.5 807.5,-252.5 632.5,-252.5"/>
<text text-anchor="middle" x="720" y="-260.5" font-family="Ubuntu-R" font-size="10.00">forcebalance.gmxio.GMX.callgmx</text>
</a>
</g>
<!-- Node3&#45;&gt;Node10 -->
<g id="edge32" class="edge"><title>Node3&#45;&gt;Node10</title>
<path fill="none" stroke="midnightblue" d="M377.511,-230.495C448.912,-237.272 548.785,-246.75 622.263,-253.724"/>
<polygon fill="midnightblue" stroke="midnightblue" points="622.164,-257.23 632.45,-254.691 622.826,-250.262 622.164,-257.23"/>
</g>
<!-- Node5 -->
<g id="node9" class="node"><title>Node5</title>
<a xlink:href="namespaceforcebalance_1_1nifty.html#a185aa094549d280fdc18479459980164" target="_top" xlink:title="If trying to write to a symbolic link, remove it first. ">
<polygon fill="white" stroke="black" points="653,-209.5 653,-230.5 787,-230.5 787,-209.5 653,-209.5"/>
<text text-anchor="middle" x="720" y="-217.5" font-family="Ubuntu-R" font-size="10.00">forcebalance.nifty.wopen</text>
</a>
</g>
<!-- Node4&#45;&gt;Node5 -->
<g id="edge8" class="edge"><title>Node4&#45;&gt;Node5</title>
<path fill="none" stroke="midnightblue" d="M586.589,-209.451C605.031,-210.909 624.556,-212.453 642.811,-213.897"/>
<polygon fill="midnightblue" stroke="midnightblue" points="642.562,-217.388 652.806,-214.687 643.113,-210.41 642.562,-217.388"/>
</g>
<!-- Node6 -->
<g id="node11" class="node"><title>Node6</title>
<a xlink:href="namespaceforcebalance_1_1nifty.html#a51180e960742cc7547749fdfb3513ec4" target="_top" xlink:title="See documentation for printcool; this is a nice way to print out keys/values in a dictionary...">
<polygon fill="white" stroke="black" points="648,-157 648,-191 792,-191 792,-157 648,-157"/>
<text text-anchor="start" x="656" y="-178" font-family="Ubuntu-R" font-size="10.00">forcebalance.nifty.printcool</text>
<text text-anchor="middle" x="720" y="-165" font-family="Ubuntu-R" font-size="10.00">_dictionary</text>
</a>
</g>
<!-- Node4&#45;&gt;Node6 -->
<g id="edge10" class="edge"><title>Node4&#45;&gt;Node6</title>
<path fill="none" stroke="midnightblue" d="M582.924,-192.489C600.687,-190.093 619.619,-187.54 637.564,-185.119"/>
<polygon fill="midnightblue" stroke="midnightblue" points="638.265,-188.557 647.707,-183.751 637.329,-181.619 638.265,-188.557"/>
</g>
<!-- Node7 -->
<g id="node13" class="node"><title>Node7</title>
<a xlink:href="namespaceforcebalance_1_1nifty.html#a11babd62dc7bca389162c6318f9672ca" target="_top" xlink:title="Cool&#45;looking printout for slick formatting of output. ">
<polygon fill="white" stroke="black" points="852,-163.5 852,-184.5 996,-184.5 996,-163.5 852,-163.5"/>
<text text-anchor="middle" x="924" y="-171.5" font-family="Ubuntu-R" font-size="10.00">forcebalance.nifty.printcool</text>
</a>
</g>
<!-- Node6&#45;&gt;Node7 -->
<g id="edge12" class="edge"><title>Node6&#45;&gt;Node7</title>
<path fill="none" stroke="midnightblue" d="M792.21,-174C808.251,-174 825.37,-174 841.778,-174"/>
<polygon fill="midnightblue" stroke="midnightblue" points="841.887,-177.5 851.887,-174 841.887,-170.5 841.887,-177.5"/>
</g>
<!-- Node8 -->
<g id="node15" class="node"><title>Node8</title>
<a xlink:href="namespaceforcebalance_1_1nifty.html#abb8f59044961a12588e0653c2baa8b01" target="_top" xlink:title="forcebalance.nifty.warn\l_press_key">
<polygon fill="white" stroke="black" points="1046.5,-157 1046.5,-191 1171.5,-191 1171.5,-157 1046.5,-157"/>
<text text-anchor="start" x="1054.5" y="-178" font-family="Ubuntu-R" font-size="10.00">forcebalance.nifty.warn</text>
<text text-anchor="middle" x="1109" y="-165" font-family="Ubuntu-R" font-size="10.00">_press_key</text>
</a>
</g>
<!-- Node7&#45;&gt;Node8 -->
<g id="edge14" class="edge"><title>Node7&#45;&gt;Node8</title>
<path fill="none" stroke="midnightblue" d="M996.056,-174C1009.31,-174 1023.16,-174 1036.44,-174"/>
<polygon fill="midnightblue" stroke="midnightblue" points="1036.46,-177.5 1046.46,-174 1036.46,-170.5 1036.46,-177.5"/>
</g>
<!-- Node9&#45;&gt;Node10 -->
<g id="edge18" class="edge"><title>Node9&#45;&gt;Node10</title>
<path fill="none" stroke="midnightblue" d="M596.179,-273.366C604.817,-272.643 613.598,-271.908 622.293,-271.18"/>
<polygon fill="midnightblue" stroke="midnightblue" points="622.774,-274.652 632.447,-270.33 622.19,-267.677 622.774,-274.652"/>
</g>
<!-- Node11 -->
<g id="node21" class="node"><title>Node11</title>
<a xlink:href="namespaceforcebalance_1_1gmxio.html#acac8488f29b62fb0d4cb54bb5a041026" target="_top" xlink:title="forcebalance.gmxio.rm\l_gmx_baks">
<polygon fill="white" stroke="black" points="860.5,-224 860.5,-258 987.5,-258 987.5,-224 860.5,-224"/>
<text text-anchor="start" x="868.5" y="-245" font-family="Ubuntu-R" font-size="10.00">forcebalance.gmxio.rm</text>
<text text-anchor="middle" x="924" y="-232" font-family="Ubuntu-R" font-size="10.00">_gmx_baks</text>
</a>
</g>
<!-- Node10&#45;&gt;Node11 -->
<g id="edge20" class="edge"><title>Node10&#45;&gt;Node11</title>
<path fill="none" stroke="midnightblue" d="M807.698,-253.542C821.95,-252.005 836.581,-250.428 850.45,-248.932"/>
<polygon fill="midnightblue" stroke="midnightblue" points="850.83,-252.411 860.397,-247.859 850.079,-245.452 850.83,-252.411"/>
</g>
<!-- Node12 -->
<g id="node23" class="node"><title>Node12</title>
<a xlink:href="classforcebalance_1_1gmxio_1_1GMX.html#a2f9f89e8d7e97c872d4876751df171ce" target="_top" xlink:title="forcebalance.gmxio.GMX.links">
<polygon fill="white" stroke="black" points="844.5,-276.5 844.5,-297.5 1003.5,-297.5 1003.5,-276.5 844.5,-276.5"/>
<text text-anchor="middle" x="924" y="-284.5" font-family="Ubuntu-R" font-size="10.00">forcebalance.gmxio.GMX.links</text>
</a>
</g>
<!-- Node10&#45;&gt;Node12 -->
<g id="edge22" class="edge"><title>Node10&#45;&gt;Node12</title>
<path fill="none" stroke="midnightblue" d="M807.698,-273.317C816.564,-274.361 825.578,-275.421 834.463,-276.466"/>
<polygon fill="midnightblue" stroke="midnightblue" points="834.085,-279.946 844.425,-277.638 834.903,-272.994 834.085,-279.946"/>
</g>
<!-- Node13 -->
<g id="node25" class="node"><title>Node13</title>
<a xlink:href="namespaceforcebalance_1_1nifty.html#ab5417ad84c6c760965cd195c6c387914" target="_top" xlink:title="forcebalance.nifty.onefile">
<polygon fill="white" stroke="black" points="1042,-254.5 1042,-275.5 1176,-275.5 1176,-254.5 1042,-254.5"/>
<text text-anchor="middle" x="1109" y="-262.5" font-family="Ubuntu-R" font-size="10.00">forcebalance.nifty.onefile</text>
</a>
</g>
<!-- Node12&#45;&gt;Node13 -->
<g id="edge24" class="edge"><title>Node12&#45;&gt;Node13</title>
<path fill="none" stroke="midnightblue" d="M1003.53,-277.542C1012.88,-276.431 1022.41,-275.297 1031.73,-274.189"/>
<polygon fill="midnightblue" stroke="midnightblue" points="1032.22,-277.655 1041.74,-272.999 1031.39,-270.704 1032.22,-277.655"/>
</g>
<!-- Node15 -->
<g id="node29" class="node"><title>Node15</title>
<a xlink:href="namespaceforcebalance_1_1nifty.html#ab182a9da2a2f42cf45942fbee6acf9b1" target="_top" xlink:title="forcebalance.nifty.LinkFile">
<polygon fill="white" stroke="black" points="1040.5,-297.5 1040.5,-318.5 1177.5,-318.5 1177.5,-297.5 1040.5,-297.5"/>
<text text-anchor="middle" x="1109" y="-305.5" font-family="Ubuntu-R" font-size="10.00">forcebalance.nifty.LinkFile</text>
</a>
</g>
<!-- Node12&#45;&gt;Node15 -->
<g id="edge28" class="edge"><title>Node12&#45;&gt;Node15</title>
<path fill="none" stroke="midnightblue" d="M1003.53,-296.028C1012.42,-297.037 1021.48,-298.066 1030.36,-299.074"/>
<polygon fill="midnightblue" stroke="midnightblue" points="1029.97,-302.552 1040.3,-300.202 1030.76,-295.596 1029.97,-302.552"/>
</g>
<!-- Node14 -->
<g id="node27" class="node"><title>Node14</title>
<a xlink:href="namespaceforcebalance_1_1nifty.html#a26e563ec71ed229c30f3d61d3448c8f1" target="_top" xlink:title="Prints a warning but will only do so once in a given run. ">
<polygon fill="white" stroke="black" points="1214,-252.5 1214,-273.5 1368,-273.5 1368,-252.5 1214,-252.5"/>
<text text-anchor="middle" x="1291" y="-260.5" font-family="Ubuntu-R" font-size="10.00">forcebalance.nifty.warn_once</text>
</a>
</g>
<!-- Node13&#45;&gt;Node14 -->
<g id="edge26" class="edge"><title>Node13&#45;&gt;Node14</title>
<path fill="none" stroke="midnightblue" d="M1176.25,-264.261C1185.25,-264.162 1194.58,-264.06 1203.86,-263.958"/>
<polygon fill="midnightblue" stroke="midnightblue" points="1203.93,-267.457 1213.89,-263.847 1203.85,-260.458 1203.93,-267.457"/>
</g>
<!-- Node16 -->
<g id="node31" class="node"><title>Node16</title>
<a xlink:href="namespaceforcebalance_1_1nifty.html#ae87c7def5f8edf2ec30737bdb1d2636f" target="_top" xlink:title="forcebalance.nifty.Missing\lFileInspection">
<polygon fill="white" stroke="black" points="1222,-292 1222,-326 1360,-326 1360,-292 1222,-292"/>
<text text-anchor="start" x="1230" y="-313" font-family="Ubuntu-R" font-size="10.00">forcebalance.nifty.Missing</text>
<text text-anchor="middle" x="1291" y="-300" font-family="Ubuntu-R" font-size="10.00">FileInspection</text>
</a>
</g>
<!-- Node15&#45;&gt;Node16 -->
<g id="edge30" class="edge"><title>Node15&#45;&gt;Node16</title>
<path fill="none" stroke="midnightblue" d="M1177.55,-308.377C1188.66,-308.438 1200.24,-308.501 1211.58,-308.564"/>
<polygon fill="midnightblue" stroke="midnightblue" points="1211.89,-312.065 1221.91,-308.62 1211.93,-305.065 1211.89,-312.065"/>
</g>
<!-- Node17&#45;&gt;Node2 -->
<g id="edge36" class="edge"><title>Node17&#45;&gt;Node2</title>
<path fill="none" stroke="midnightblue" d="M362.072,-124.067C381.083,-128.448 401.668,-133.191 421.135,-137.676"/>
<polygon fill="midnightblue" stroke="midnightblue" points="420.363,-141.09 430.893,-139.925 421.935,-134.269 420.363,-141.09"/>
</g>
<!-- Node17&#45;&gt;Node18 -->
<g id="edge38" class="edge"><title>Node17&#45;&gt;Node18</title>
<path fill="none" stroke="midnightblue" d="M356.362,-89.9882C378.755,-84.4158 403.803,-78.1826 426.862,-72.4445"/>
<polygon fill="midnightblue" stroke="midnightblue" points="427.75,-75.8304 436.609,-70.0191 426.059,-69.0375 427.75,-75.8304"/>
</g>
<!-- Node19 -->
<g id="node39" class="node"><title>Node19</title>
<a xlink:href="namespaceforcebalance_1_1openmmio.html#a1f92d88085657ca5726f8925bfa68f6f" target="_top" xlink:title="Given a set of OpenMM&#45;compatible positions and a System object, compute the correct virtual site posi...">
<polygon fill="white" stroke="black" points="424,-88 424,-122 586,-122 586,-88 424,-88"/>
<text text-anchor="start" x="432" y="-109" font-family="Ubuntu-R" font-size="10.00">forcebalance.openmmio.Reset</text>
<text text-anchor="middle" x="505" y="-96" font-family="Ubuntu-R" font-size="10.00">VirtualSites_fast</text>
</a>
</g>
<!-- Node17&#45;&gt;Node19 -->
<g id="edge40" class="edge"><title>Node17&#45;&gt;Node19</title>
<path fill="none" stroke="midnightblue" d="M368.803,-106.255C383.391,-106.121 398.695,-105.98 413.561,-105.843"/>
<polygon fill="midnightblue" stroke="midnightblue" points="413.801,-109.341 423.768,-105.749 413.736,-102.341 413.801,-109.341"/>
</g>
</g>
</svg>
