<?xml version="1.0" encoding="UTF-8" standalone="no"?>
<!DOCTYPE svg PUBLIC "-//W3C//DTD SVG 1.1//EN"
 "http://www.w3.org/Graphics/SVG/1.1/DTD/svg11.dtd">
<!-- Generated by graphviz version 2.26.3 (20100126.1600)
 -->
<!-- Title: forcebalance.interaction.Interaction Pages: 1 -->
<svg width="802pt" height="134pt"
 viewBox="0.00 0.00 802.00 134.00" xmlns="http://www.w3.org/2000/svg" xmlns:xlink="http://www.w3.org/1999/xlink">
<g id="graph1" class="graph" transform="scale(1 1) rotate(0) translate(4 130)">
<title>forcebalance.interaction.Interaction</title>
<polygon fill="white" stroke="white" points="-4,5 -4,-130 799,-130 799,5 -4,5"/>
<!-- Node1 -->
<g id="node1" class="node"><title>Node1</title>
<polygon fill="#bfbfbf" stroke="black" points="430.5,-52 430.5,-86 565.5,-86 565.5,-52 430.5,-52"/>
<text text-anchor="start" x="438.5" y="-73" font-family="Ubuntu-R" font-size="10.00">forcebalance.interaction.</text>
<text text-anchor="middle" x="498" y="-60" font-family="Ubuntu-R" font-size="10.00">Interaction</text>
</g>
<!-- Node5 -->
<g id="node9" class="node"><title>Node5</title>
<a xlink:href="classforcebalance_1_1gmxio_1_1Interaction__GMX.html" target="_top" xlink:title="Interaction energy matching using GROMACS. ">
<polygon fill="white" stroke="black" points="602.5,-104.5 602.5,-125.5 793.5,-125.5 793.5,-104.5 602.5,-104.5"/>
<text text-anchor="middle" x="698" y="-112.5" font-family="Ubuntu-R" font-size="10.00">forcebalance.gmxio.Interaction_GMX</text>
</a>
</g>
<!-- Node1&#45;&gt;Node5 -->
<g id="edge8" class="edge"><title>Node1&#45;&gt;Node5</title>
<path fill="none" stroke="midnightblue" d="M574.477,-88.485C583.737,-90.7361 593.074,-92.9553 602,-95 616.105,-98.2312 631.428,-101.522 645.603,-104.476"/>
<polygon fill="midnightblue" stroke="midnightblue" points="575.028,-85.0166 564.483,-86.0366 573.363,-91.8155 575.028,-85.0166"/>
</g>
<!-- Node6 -->
<g id="node11" class="node"><title>Node6</title>
<a xlink:href="classforcebalance_1_1openmmio_1_1Interaction__OpenMM.html" target="_top" xlink:title="Interaction matching using OpenMM. ">
<polygon fill="white" stroke="black" points="604.5,-52 604.5,-86 791.5,-86 791.5,-52 604.5,-52"/>
<text text-anchor="start" x="612.5" y="-73" font-family="Ubuntu-R" font-size="10.00">forcebalance.openmmio.Interaction</text>
<text text-anchor="middle" x="698" y="-60" font-family="Ubuntu-R" font-size="10.00">_OpenMM</text>
</a>
</g>
<!-- Node1&#45;&gt;Node6 -->
<g id="edge10" class="edge"><title>Node1&#45;&gt;Node6</title>
<path fill="none" stroke="midnightblue" d="M575.786,-69C585.187,-69 594.863,-69 604.46,-69"/>
<polygon fill="midnightblue" stroke="midnightblue" points="575.711,-65.5001 565.711,-69 575.711,-72.5001 575.711,-65.5001"/>
</g>
<!-- Node7 -->
<g id="node13" class="node"><title>Node7</title>
<a xlink:href="classforcebalance_1_1tinkerio_1_1Interaction__TINKER.html" target="_top" xlink:title="Subclass of Target for interaction matching using TINKER. ">
<polygon fill="white" stroke="black" points="613,-0 613,-34 783,-34 783,-0 613,-0"/>
<text text-anchor="start" x="621" y="-21" font-family="Ubuntu-R" font-size="10.00">forcebalance.tinkerio.Interaction</text>
<text text-anchor="middle" x="698" y="-8" font-family="Ubuntu-R" font-size="10.00">_TINKER</text>
</a>
</g>
<!-- Node1&#45;&gt;Node7 -->
<g id="edge12" class="edge"><title>Node1&#45;&gt;Node7</title>
<path fill="none" stroke="midnightblue" d="M573.216,-49.444C592.665,-44.3872 613.449,-38.9833 632.365,-34.065"/>
<polygon fill="midnightblue" stroke="midnightblue" points="572.285,-46.0695 563.487,-51.9733 574.046,-52.8442 572.285,-46.0695"/>
</g>
<!-- Node2 -->
<g id="node2" class="node"><title>Node2</title>
<a xlink:href="classforcebalance_1_1target_1_1Target.html" target="_top" xlink:title="Base class for all fitting targets. ">
<polygon fill="white" stroke="black" points="250.5,-58.5 250.5,-79.5 393.5,-79.5 393.5,-58.5 250.5,-58.5"/>
<text text-anchor="middle" x="322" y="-66.5" font-family="Ubuntu-R" font-size="10.00">forcebalance.target.Target</text>
</a>
</g>
<!-- Node2&#45;&gt;Node1 -->
<g id="edge2" class="edge"><title>Node2&#45;&gt;Node1</title>
<path fill="none" stroke="midnightblue" d="M403.656,-69C412.627,-69 421.685,-69 430.457,-69"/>
<polygon fill="midnightblue" stroke="midnightblue" points="403.586,-65.5001 393.586,-69 403.586,-72.5001 403.586,-65.5001"/>
</g>
<!-- Node3 -->
<g id="node4" class="node"><title>Node3</title>
<a xlink:href="classforcebalance_1_1BaseClass.html" target="_top" xlink:title="Provides some nifty functions that are common to all ForceBalance classes. ">
<polygon fill="white" stroke="black" points="82.5,-58.5 82.5,-79.5 213.5,-79.5 213.5,-58.5 82.5,-58.5"/>
<text text-anchor="middle" x="148" y="-66.5" font-family="Ubuntu-R" font-size="10.00">forcebalance.BaseClass</text>
</a>
</g>
<!-- Node3&#45;&gt;Node2 -->
<g id="edge4" class="edge"><title>Node3&#45;&gt;Node2</title>
<path fill="none" stroke="midnightblue" d="M223.964,-69C232.715,-69 241.617,-69 250.309,-69"/>
<polygon fill="midnightblue" stroke="midnightblue" points="223.782,-65.5001 213.782,-69 223.782,-72.5001 223.782,-65.5001"/>
</g>
<!-- Node4 -->
<g id="node6" class="node"><title>Node4</title>
<polygon fill="white" stroke="#bfbfbf" points="0,-58.5 0,-79.5 46,-79.5 46,-58.5 0,-58.5"/>
<text text-anchor="middle" x="23" y="-66.5" font-family="Ubuntu-R" font-size="10.00">object</text>
</g>
<!-- Node4&#45;&gt;Node3 -->
<g id="edge6" class="edge"><title>Node4&#45;&gt;Node3</title>
<path fill="none" stroke="midnightblue" d="M56.3186,-69C64.4195,-69 73.3638,-69 82.3948,-69"/>
<polygon fill="midnightblue" stroke="midnightblue" points="56.2186,-65.5001 46.2186,-69 56.2186,-72.5001 56.2186,-65.5001"/>
</g>
</g>
</svg>
