<?xml version="1.0" encoding="UTF-8" standalone="no"?>
<!DOCTYPE svg PUBLIC "-//W3C//DTD SVG 1.1//EN"
 "http://www.w3.org/Graphics/SVG/1.1/DTD/svg11.dtd">
<!-- Generated by graphviz version 2.26.3 (20100126.1600)
 -->
<!-- Title: forcebalance.optimizer.Optimizer.ScanMVals Pages: 1 -->
<svg width="400pt" height="42pt"
 viewBox="0.00 0.00 400.00 42.00" xmlns="http://www.w3.org/2000/svg" xmlns:xlink="http://www.w3.org/1999/xlink">
<g id="graph1" class="graph" transform="scale(1 1) rotate(0) translate(4 38)">
<title>forcebalance.optimizer.Optimizer.ScanMVals</title>
<polygon fill="white" stroke="white" points="-4,5 -4,-38 397,-38 397,5 -4,5"/>
<!-- Node1 -->
<g id="node1" class="node"><title>Node1</title>
<polygon fill="#bfbfbf" stroke="black" points="0.5,-0 0.5,-34 177.5,-34 177.5,-0 0.5,-0"/>
<text text-anchor="start" x="8.5" y="-21" font-family="Ubuntu-R" font-size="10.00">forcebalance.optimizer.Optimizer.</text>
<text text-anchor="middle" x="89" y="-8" font-family="Ubuntu-R" font-size="10.00">ScanMVals</text>
</g>
<!-- Node2 -->
<g id="node3" class="node"><title>Node2</title>
<a xlink:href="classforcebalance_1_1optimizer_1_1Optimizer.html#a6c7508252398ff7e00469c4c8acb0a48" target="_top" xlink:title="Scan through parameter values. ">
<polygon fill="white" stroke="black" points="214.5,-0 214.5,-34 391.5,-34 391.5,-0 214.5,-0"/>
<text text-anchor="start" x="222.5" y="-21" font-family="Ubuntu-R" font-size="10.00">forcebalance.optimizer.Optimizer.</text>
<text text-anchor="middle" x="303" y="-8" font-family="Ubuntu-R" font-size="10.00">Scan_Values</text>
</a>
</g>
<!-- Node1&#45;&gt;Node2 -->
<g id="edge2" class="edge"><title>Node1&#45;&gt;Node2</title>
<path fill="none" stroke="midnightblue" d="M177.587,-17C186.442,-17 195.472,-17 204.422,-17"/>
<polygon fill="midnightblue" stroke="midnightblue" points="204.48,-20.5001 214.48,-17 204.48,-13.5001 204.48,-20.5001"/>
</g>
</g>
</svg>
