<?xml version="1.0" encoding="UTF-8" standalone="no"?>
<!DOCTYPE svg PUBLIC "-//W3C//DTD SVG 1.1//EN"
 "http://www.w3.org/Graphics/SVG/1.1/DTD/svg11.dtd">
<!-- Generated by graphviz version 2.26.3 (20100126.1600)
 -->
<!-- Title: forcebalance.tinkerio.Moments_TINKER Pages: 1 -->
<svg width="184pt" height="276pt"
 viewBox="0.00 0.00 184.00 276.00" xmlns="http://www.w3.org/2000/svg" xmlns:xlink="http://www.w3.org/1999/xlink">
<g id="graph1" class="graph" transform="scale(1 1) rotate(0) translate(4 272)">
<title>forcebalance.tinkerio.Moments_TINKER</title>
<polygon fill="white" stroke="white" points="-4,5 -4,-272 181,-272 181,5 -4,5"/>
<!-- Node1 -->
<g id="node1" class="node"><title>Node1</title>
<polygon fill="#bfbfbf" stroke="black" points="6,-1 6,-35 170,-35 170,-1 6,-1"/>
<text text-anchor="start" x="14" y="-22" font-family="Ubuntu-R" font-size="10.00">forcebalance.tinkerio.Moments</text>
<text text-anchor="middle" x="88" y="-9" font-family="Ubuntu-R" font-size="10.00">_TINKER</text>
</g>
<!-- Node2 -->
<g id="node2" class="node"><title>Node2</title>
<a xlink:href="classforcebalance_1_1moments_1_1Moments.html" target="_top" xlink:title="Subclass of Target for fitting force fields to multipole moments (from experiment or theory)...">
<polygon fill="white" stroke="black" points="0,-72.5 0,-93.5 176,-93.5 176,-72.5 0,-72.5"/>
<text text-anchor="middle" x="88" y="-80.5" font-family="Ubuntu-R" font-size="10.00">forcebalance.moments.Moments</text>
</a>
</g>
<!-- Node2&#45;&gt;Node1 -->
<g id="edge2" class="edge"><title>Node2&#45;&gt;Node1</title>
<path fill="none" stroke="midnightblue" d="M88,-62.1306C88,-53.4049 88,-43.3908 88,-35.1099"/>
<polygon fill="midnightblue" stroke="midnightblue" points="84.5001,-62.2665 88,-72.2666 91.5001,-62.2666 84.5001,-62.2665"/>
</g>
<!-- Node3 -->
<g id="node4" class="node"><title>Node3</title>
<a xlink:href="classforcebalance_1_1target_1_1Target.html" target="_top" xlink:title="Base class for all fitting targets. ">
<polygon fill="white" stroke="black" points="16.5,-130.5 16.5,-151.5 159.5,-151.5 159.5,-130.5 16.5,-130.5"/>
<text text-anchor="middle" x="88" y="-138.5" font-family="Ubuntu-R" font-size="10.00">forcebalance.target.Target</text>
</a>
</g>
<!-- Node3&#45;&gt;Node2 -->
<g id="edge4" class="edge"><title>Node3&#45;&gt;Node2</title>
<path fill="none" stroke="midnightblue" d="M88,-120.191C88,-111.168 88,-100.994 88,-93.5707"/>
<polygon fill="midnightblue" stroke="midnightblue" points="84.5001,-120.362 88,-130.362 91.5001,-120.362 84.5001,-120.362"/>
</g>
<!-- Node4 -->
<g id="node6" class="node"><title>Node4</title>
<a xlink:href="classforcebalance_1_1BaseClass.html" target="_top" xlink:title="Provides some nifty functions that are common to all ForceBalance classes. ">
<polygon fill="white" stroke="black" points="22.5,-188.5 22.5,-209.5 153.5,-209.5 153.5,-188.5 22.5,-188.5"/>
<text text-anchor="middle" x="88" y="-196.5" font-family="Ubuntu-R" font-size="10.00">forcebalance.BaseClass</text>
</a>
</g>
<!-- Node4&#45;&gt;Node3 -->
<g id="edge6" class="edge"><title>Node4&#45;&gt;Node3</title>
<path fill="none" stroke="midnightblue" d="M88,-178.191C88,-169.168 88,-158.994 88,-151.571"/>
<polygon fill="midnightblue" stroke="midnightblue" points="84.5001,-178.362 88,-188.362 91.5001,-178.362 84.5001,-178.362"/>
</g>
<!-- Node5 -->
<g id="node8" class="node"><title>Node5</title>
<polygon fill="white" stroke="#bfbfbf" points="65,-246.5 65,-267.5 111,-267.5 111,-246.5 65,-246.5"/>
<text text-anchor="middle" x="88" y="-254.5" font-family="Ubuntu-R" font-size="10.00">object</text>
</g>
<!-- Node5&#45;&gt;Node4 -->
<g id="edge8" class="edge"><title>Node5&#45;&gt;Node4</title>
<path fill="none" stroke="midnightblue" d="M88,-236.191C88,-227.168 88,-216.994 88,-209.571"/>
<polygon fill="midnightblue" stroke="midnightblue" points="84.5001,-236.362 88,-246.362 91.5001,-236.362 84.5001,-236.362"/>
</g>
</g>
</svg>
