<?xml version="1.0" encoding="UTF-8" standalone="no"?>
<!DOCTYPE svg PUBLIC "-//W3C//DTD SVG 1.1//EN"
 "http://www.w3.org/Graphics/SVG/1.1/DTD/svg11.dtd">
<!-- Generated by graphviz version 2.26.3 (20100126.1600)
 -->
<!-- Title: forcebalance.forcefield.FF.addff_xml Pages: 1 -->
<svg width="300pt" height="146pt"
 viewBox="0.00 0.00 300.00 146.00" xmlns="http://www.w3.org/2000/svg" xmlns:xlink="http://www.w3.org/1999/xlink">
<g id="graph1" class="graph" transform="scale(1 1) rotate(0) translate(4 142)">
<title>forcebalance.forcefield.FF.addff_xml</title>
<polygon fill="white" stroke="white" points="-4,5 -4,-142 297,-142 297,5 -4,5"/>
<!-- Node1 -->
<g id="node1" class="node"><title>Node1</title>
<polygon fill="#bfbfbf" stroke="black" points="0,-52 0,-86 128,-86 128,-52 0,-52"/>
<text text-anchor="start" x="8" y="-73" font-family="Ubuntu-R" font-size="10.00">forcebalance.forcefield.</text>
<text text-anchor="middle" x="64" y="-60" font-family="Ubuntu-R" font-size="10.00">FF.addff_xml</text>
</g>
<!-- Node2 -->
<g id="node3" class="node"><title>Node2</title>
<a xlink:href="classforcebalance_1_1forcefield_1_1FF.html#a3af07734a2378364ed533e2853ee6b82" target="_top" xlink:title="Assign physical parameter values to the &#39;pvals0&#39; array. ">
<polygon fill="white" stroke="black" points="164,-104 164,-138 292,-138 292,-104 164,-104"/>
<text text-anchor="start" x="172" y="-125" font-family="Ubuntu-R" font-size="10.00">forcebalance.forcefield.</text>
<text text-anchor="middle" x="228" y="-112" font-family="Ubuntu-R" font-size="10.00">FF.assign_p0</text>
</a>
</g>
<!-- Node1&#45;&gt;Node2 -->
<g id="edge2" class="edge"><title>Node1&#45;&gt;Node2</title>
<path fill="none" stroke="midnightblue" d="M117.7,-86.0267C132.566,-90.7405 148.847,-95.9027 164.227,-100.779"/>
<polygon fill="midnightblue" stroke="midnightblue" points="163.589,-104.249 174.18,-103.935 165.705,-97.5762 163.589,-104.249"/>
</g>
<!-- Node3 -->
<g id="node5" class="node"><title>Node3</title>
<a xlink:href="classforcebalance_1_1forcefield_1_1FF.html#a2c9cda9adb5a6446fbccfa7b35f8dff5" target="_top" xlink:title="Record the locations of a parameter in a txt file; [[file name, line number, field number...">
<polygon fill="white" stroke="black" points="164,-52 164,-86 292,-86 292,-52 164,-52"/>
<text text-anchor="start" x="172" y="-73" font-family="Ubuntu-R" font-size="10.00">forcebalance.forcefield.</text>
<text text-anchor="middle" x="228" y="-60" font-family="Ubuntu-R" font-size="10.00">FF.assign_field</text>
</a>
</g>
<!-- Node1&#45;&gt;Node3 -->
<g id="edge4" class="edge"><title>Node1&#45;&gt;Node3</title>
<path fill="none" stroke="midnightblue" d="M128.346,-69C136.64,-69 145.187,-69 153.625,-69"/>
<polygon fill="midnightblue" stroke="midnightblue" points="153.839,-72.5001 163.839,-69 153.839,-65.5001 153.839,-72.5001"/>
</g>
<!-- Node4 -->
<g id="node7" class="node"><title>Node4</title>
<a xlink:href="namespaceforcebalance_1_1nifty.html#abb8f59044961a12588e0653c2baa8b01" target="_top" xlink:title="forcebalance.nifty.warn\l_press_key">
<polygon fill="white" stroke="black" points="165.5,-0 165.5,-34 290.5,-34 290.5,-0 165.5,-0"/>
<text text-anchor="start" x="173.5" y="-21" font-family="Ubuntu-R" font-size="10.00">forcebalance.nifty.warn</text>
<text text-anchor="middle" x="228" y="-8" font-family="Ubuntu-R" font-size="10.00">_press_key</text>
</a>
</g>
<!-- Node1&#45;&gt;Node4 -->
<g id="edge6" class="edge"><title>Node1&#45;&gt;Node4</title>
<path fill="none" stroke="midnightblue" d="M117.7,-51.9733C132.566,-47.2595 148.847,-42.0973 164.227,-37.2207"/>
<polygon fill="midnightblue" stroke="midnightblue" points="165.705,-40.4238 174.18,-34.065 163.589,-33.7512 165.705,-40.4238"/>
</g>
</g>
</svg>
