<?xml version="1.0" encoding="UTF-8" standalone="no"?>
<!DOCTYPE svg PUBLIC "-//W3C//DTD SVG 1.1//EN"
 "http://www.w3.org/Graphics/SVG/1.1/DTD/svg11.dtd">
<!-- Generated by graphviz version 2.26.3 (20100126.1600)
 -->
<!-- Title: forcebalance.nifty.printcool_dictionary Pages: 1 -->
<svg width="494pt" height="42pt"
 viewBox="0.00 0.00 494.00 42.00" xmlns="http://www.w3.org/2000/svg" xmlns:xlink="http://www.w3.org/1999/xlink">
<g id="graph1" class="graph" transform="scale(1 1) rotate(0) translate(4 38)">
<title>forcebalance.nifty.printcool_dictionary</title>
<polygon fill="white" stroke="white" points="-4,5 -4,-38 491,-38 491,5 -4,5"/>
<!-- Node1 -->
<g id="node1" class="node"><title>Node1</title>
<polygon fill="#bfbfbf" stroke="black" points="0,-0 0,-34 144,-34 144,-0 0,-0"/>
<text text-anchor="start" x="8" y="-21" font-family="Ubuntu-R" font-size="10.00">forcebalance.nifty.printcool</text>
<text text-anchor="middle" x="72" y="-8" font-family="Ubuntu-R" font-size="10.00">_dictionary</text>
</g>
<!-- Node2 -->
<g id="node3" class="node"><title>Node2</title>
<a xlink:href="namespaceforcebalance_1_1nifty.html#a11babd62dc7bca389162c6318f9672ca" target="_top" xlink:title="Cool&#45;looking printout for slick formatting of output. ">
<polygon fill="white" stroke="black" points="180,-6.5 180,-27.5 324,-27.5 324,-6.5 180,-6.5"/>
<text text-anchor="middle" x="252" y="-14.5" font-family="Ubuntu-R" font-size="10.00">forcebalance.nifty.printcool</text>
</a>
</g>
<!-- Node1&#45;&gt;Node2 -->
<g id="edge2" class="edge"><title>Node1&#45;&gt;Node2</title>
<path fill="none" stroke="midnightblue" d="M144.176,-17C152.52,-17 161.077,-17 169.544,-17"/>
<polygon fill="midnightblue" stroke="midnightblue" points="169.808,-20.5001 179.808,-17 169.808,-13.5001 169.808,-20.5001"/>
</g>
<!-- Node3 -->
<g id="node5" class="node"><title>Node3</title>
<a xlink:href="namespaceforcebalance_1_1nifty.html#abb8f59044961a12588e0653c2baa8b01" target="_top" xlink:title="forcebalance.nifty.warn\l_press_key">
<polygon fill="white" stroke="black" points="360.5,-0 360.5,-34 485.5,-34 485.5,-0 360.5,-0"/>
<text text-anchor="start" x="368.5" y="-21" font-family="Ubuntu-R" font-size="10.00">forcebalance.nifty.warn</text>
<text text-anchor="middle" x="423" y="-8" font-family="Ubuntu-R" font-size="10.00">_press_key</text>
</a>
</g>
<!-- Node2&#45;&gt;Node3 -->
<g id="edge4" class="edge"><title>Node2&#45;&gt;Node3</title>
<path fill="none" stroke="midnightblue" d="M324.024,-17C332.684,-17 341.533,-17 350.203,-17"/>
<polygon fill="midnightblue" stroke="midnightblue" points="350.278,-20.5001 360.278,-17 350.278,-13.5001 350.278,-20.5001"/>
</g>
</g>
</svg>
