<?xml version="1.0" encoding="UTF-8" standalone="no"?>
<!DOCTYPE svg PUBLIC "-//W3C//DTD SVG 1.1//EN"
 "http://www.w3.org/Graphics/SVG/1.1/DTD/svg11.dtd">
<!-- Generated by graphviz version 2.26.3 (20100126.1600)
 -->
<!-- Title: forcebalance.gmxio.write_ndx Pages: 1 -->
<svg width="368pt" height="110pt"
 viewBox="0.00 0.00 368.00 110.00" xmlns="http://www.w3.org/2000/svg" xmlns:xlink="http://www.w3.org/1999/xlink">
<g id="graph1" class="graph" transform="scale(1 1) rotate(0) translate(4 106)">
<title>forcebalance.gmxio.write_ndx</title>
<polygon fill="white" stroke="white" points="-4,5 -4,-106 365,-106 365,5 -4,5"/>
<!-- Node1 -->
<g id="node1" class="node"><title>Node1</title>
<polygon fill="#bfbfbf" stroke="black" points="0,-40.5 0,-61.5 158,-61.5 158,-40.5 0,-40.5"/>
<text text-anchor="middle" x="79" y="-48.5" font-family="Ubuntu-R" font-size="10.00">forcebalance.gmxio.write_ndx</text>
</g>
<!-- Node2 -->
<g id="node3" class="node"><title>Node2</title>
<a xlink:href="namespaceforcebalance_1_1molecule.html#a0dd31eff88d2bed0884ab21a13261d42" target="_top" xlink:title="ONLY matches integers! If you have a decimal point? None shall pass! ">
<polygon fill="white" stroke="black" points="203.5,-80.5 203.5,-101.5 350.5,-101.5 350.5,-80.5 203.5,-80.5"/>
<text text-anchor="middle" x="277" y="-88.5" font-family="Ubuntu-R" font-size="10.00">forcebalance.molecule.isint</text>
</a>
</g>
<!-- Node1&#45;&gt;Node2 -->
<g id="edge2" class="edge"><title>Node1&#45;&gt;Node2</title>
<path fill="none" stroke="midnightblue" d="M131.022,-61.5095C156.727,-66.7023 187.931,-73.0064 214.882,-78.4508"/>
<polygon fill="midnightblue" stroke="midnightblue" points="214.487,-81.9417 224.982,-80.4913 215.873,-75.0803 214.487,-81.9417"/>
</g>
<!-- Node3 -->
<g id="node5" class="node"><title>Node3</title>
<a xlink:href="namespaceforcebalance_1_1nifty.html#a185aa094549d280fdc18479459980164" target="_top" xlink:title="If trying to write to a symbolic link, remove it first. ">
<polygon fill="white" stroke="black" points="210,-40.5 210,-61.5 344,-61.5 344,-40.5 210,-40.5"/>
<text text-anchor="middle" x="277" y="-48.5" font-family="Ubuntu-R" font-size="10.00">forcebalance.nifty.wopen</text>
</a>
</g>
<!-- Node1&#45;&gt;Node3 -->
<g id="edge4" class="edge"><title>Node1&#45;&gt;Node3</title>
<path fill="none" stroke="midnightblue" d="M158.108,-51C171.756,-51 185.93,-51 199.534,-51"/>
<polygon fill="midnightblue" stroke="midnightblue" points="199.808,-54.5001 209.808,-51 199.808,-47.5001 199.808,-54.5001"/>
</g>
<!-- Node4 -->
<g id="node7" class="node"><title>Node4</title>
<a xlink:href="namespaceforcebalance_1_1molecule.html#a7fe52c2928c7b0329882541bef2e34cd" target="_top" xlink:title="Groups a big long iterable into groups of ten or what have you. ">
<polygon fill="white" stroke="black" points="194.5,-0.5 194.5,-21.5 359.5,-21.5 359.5,-0.5 194.5,-0.5"/>
<text text-anchor="middle" x="277" y="-8.5" font-family="Ubuntu-R" font-size="10.00">forcebalance.molecule.grouper</text>
</a>
</g>
<!-- Node1&#45;&gt;Node4 -->
<g id="edge6" class="edge"><title>Node1&#45;&gt;Node4</title>
<path fill="none" stroke="midnightblue" d="M131.022,-40.4905C156.727,-35.2977 187.931,-28.9936 214.882,-23.5492"/>
<polygon fill="midnightblue" stroke="midnightblue" points="215.873,-26.9197 224.982,-21.5087 214.487,-20.0583 215.873,-26.9197"/>
</g>
</g>
</svg>
