<?xml version="1.0" encoding="UTF-8" standalone="no"?>
<!DOCTYPE svg PUBLIC "-//W3C//DTD SVG 1.1//EN"
 "http://www.w3.org/Graphics/SVG/1.1/DTD/svg11.dtd">
<!-- Generated by graphviz version 2.26.3 (20100126.1600)
 -->
<!-- Title: forcebalance.amberio.is_mol2_atom Pages: 1 -->
<svg width="332pt" height="70pt"
 viewBox="0.00 0.00 332.00 70.00" xmlns="http://www.w3.org/2000/svg" xmlns:xlink="http://www.w3.org/1999/xlink">
<g id="graph1" class="graph" transform="scale(1 1) rotate(0) translate(4 66)">
<title>forcebalance.amberio.is_mol2_atom</title>
<polygon fill="white" stroke="white" points="-4,5 -4,-66 329,-66 329,5 -4,5"/>
<!-- Node1 -->
<g id="node1" class="node"><title>Node1</title>
<polygon fill="#bfbfbf" stroke="black" points="0.5,-14 0.5,-48 131.5,-48 131.5,-14 0.5,-14"/>
<text text-anchor="start" x="8.5" y="-35" font-family="Ubuntu-R" font-size="10.00">forcebalance.amberio.is</text>
<text text-anchor="middle" x="66" y="-22" font-family="Ubuntu-R" font-size="10.00">_mol2_atom</text>
</g>
<!-- Node2 -->
<g id="node3" class="node"><title>Node2</title>
<a xlink:href="namespaceforcebalance_1_1molecule.html#a0dd31eff88d2bed0884ab21a13261d42" target="_top" xlink:title="ONLY matches integers! If you have a decimal point? None shall pass! ">
<polygon fill="white" stroke="black" points="172.5,-40.5 172.5,-61.5 319.5,-61.5 319.5,-40.5 172.5,-40.5"/>
<text text-anchor="middle" x="246" y="-48.5" font-family="Ubuntu-R" font-size="10.00">forcebalance.molecule.isint</text>
</a>
</g>
<!-- Node1&#45;&gt;Node2 -->
<g id="edge2" class="edge"><title>Node1&#45;&gt;Node2</title>
<path fill="none" stroke="midnightblue" d="M131.748,-38.3054C141.615,-39.4017 151.903,-40.5447 162.086,-41.6762"/>
<polygon fill="midnightblue" stroke="midnightblue" points="161.889,-45.1758 172.214,-42.8016 162.662,-38.2186 161.889,-45.1758"/>
</g>
<!-- Node3 -->
<g id="node5" class="node"><title>Node3</title>
<a xlink:href="namespaceforcebalance_1_1molecule.html#afe989ffd119568047fc8265b1d329a70" target="_top" xlink:title="Matches ANY number; it can be a decimal, scientific notation, integer, or what have you...">
<polygon fill="white" stroke="black" points="168,-0.5 168,-21.5 324,-21.5 324,-0.5 168,-0.5"/>
<text text-anchor="middle" x="246" y="-8.5" font-family="Ubuntu-R" font-size="10.00">forcebalance.molecule.isfloat</text>
</a>
</g>
<!-- Node1&#45;&gt;Node3 -->
<g id="edge4" class="edge"><title>Node1&#45;&gt;Node3</title>
<path fill="none" stroke="midnightblue" d="M131.748,-23.6946C140.194,-22.7563 148.947,-21.7837 157.679,-20.8134"/>
<polygon fill="midnightblue" stroke="midnightblue" points="158.348,-24.2607 167.901,-19.6777 157.575,-17.3035 158.348,-24.2607"/>
</g>
</g>
</svg>
