<?xml version="1.0" encoding="UTF-8" standalone="no"?>
<!DOCTYPE svg PUBLIC "-//W3C//DTD SVG 1.1//EN"
 "http://www.w3.org/Graphics/SVG/1.1/DTD/svg11.dtd">
<!-- Generated by graphviz version 2.26.3 (20100126.1600)
 -->
<!-- Title: forcebalance.gmxio.write_mdp Pages: 1 -->
<svg width="694pt" height="82pt"
 viewBox="0.00 0.00 694.00 82.00" xmlns="http://www.w3.org/2000/svg" xmlns:xlink="http://www.w3.org/1999/xlink">
<g id="graph1" class="graph" transform="scale(1 1) rotate(0) translate(4 78)">
<title>forcebalance.gmxio.write_mdp</title>
<polygon fill="white" stroke="white" points="-4,5 -4,-78 691,-78 691,5 -4,5"/>
<!-- Node1 -->
<g id="node1" class="node"><title>Node1</title>
<polygon fill="#bfbfbf" stroke="black" points="0.5,-29.5 0.5,-50.5 163.5,-50.5 163.5,-29.5 0.5,-29.5"/>
<text text-anchor="middle" x="82" y="-37.5" font-family="Ubuntu-R" font-size="10.00">forcebalance.gmxio.write_mdp</text>
</g>
<!-- Node2 -->
<g id="node3" class="node"><title>Node2</title>
<a xlink:href="namespaceforcebalance_1_1nifty.html#a185aa094549d280fdc18479459980164" target="_top" xlink:title="If trying to write to a symbolic link, remove it first. ">
<polygon fill="white" stroke="black" points="205,-52.5 205,-73.5 339,-73.5 339,-52.5 205,-52.5"/>
<text text-anchor="middle" x="272" y="-60.5" font-family="Ubuntu-R" font-size="10.00">forcebalance.nifty.wopen</text>
</a>
</g>
<!-- Node1&#45;&gt;Node2 -->
<g id="edge2" class="edge"><title>Node1&#45;&gt;Node2</title>
<path fill="none" stroke="midnightblue" d="M163.68,-49.8876C174.014,-51.1386 184.563,-52.4156 194.825,-53.6577"/>
<polygon fill="midnightblue" stroke="midnightblue" points="194.623,-57.1588 204.971,-54.886 195.464,-50.2095 194.623,-57.1588"/>
</g>
<!-- Node3 -->
<g id="node5" class="node"><title>Node3</title>
<a xlink:href="namespaceforcebalance_1_1nifty.html#a51180e960742cc7547749fdfb3513ec4" target="_top" xlink:title="See documentation for printcool; this is a nice way to print out keys/values in a dictionary...">
<polygon fill="white" stroke="black" points="200,-0 200,-34 344,-34 344,-0 200,-0"/>
<text text-anchor="start" x="208" y="-21" font-family="Ubuntu-R" font-size="10.00">forcebalance.nifty.printcool</text>
<text text-anchor="middle" x="272" y="-8" font-family="Ubuntu-R" font-size="10.00">_dictionary</text>
</a>
</g>
<!-- Node1&#45;&gt;Node3 -->
<g id="edge4" class="edge"><title>Node1&#45;&gt;Node3</title>
<path fill="none" stroke="midnightblue" d="M163.68,-30.1124C172.355,-29.0623 181.181,-27.9939 189.861,-26.9431"/>
<polygon fill="midnightblue" stroke="midnightblue" points="190.459,-30.3964 199.966,-25.7199 189.618,-23.4471 190.459,-30.3964"/>
</g>
<!-- Node4 -->
<g id="node7" class="node"><title>Node4</title>
<a xlink:href="namespaceforcebalance_1_1nifty.html#a11babd62dc7bca389162c6318f9672ca" target="_top" xlink:title="Cool&#45;looking printout for slick formatting of output. ">
<polygon fill="white" stroke="black" points="380,-6.5 380,-27.5 524,-27.5 524,-6.5 380,-6.5"/>
<text text-anchor="middle" x="452" y="-14.5" font-family="Ubuntu-R" font-size="10.00">forcebalance.nifty.printcool</text>
</a>
</g>
<!-- Node3&#45;&gt;Node4 -->
<g id="edge6" class="edge"><title>Node3&#45;&gt;Node4</title>
<path fill="none" stroke="midnightblue" d="M344.176,-17C352.52,-17 361.077,-17 369.544,-17"/>
<polygon fill="midnightblue" stroke="midnightblue" points="369.808,-20.5001 379.808,-17 369.808,-13.5001 369.808,-20.5001"/>
</g>
<!-- Node5 -->
<g id="node9" class="node"><title>Node5</title>
<a xlink:href="namespaceforcebalance_1_1nifty.html#abb8f59044961a12588e0653c2baa8b01" target="_top" xlink:title="forcebalance.nifty.warn\l_press_key">
<polygon fill="white" stroke="black" points="560.5,-0 560.5,-34 685.5,-34 685.5,-0 560.5,-0"/>
<text text-anchor="start" x="568.5" y="-21" font-family="Ubuntu-R" font-size="10.00">forcebalance.nifty.warn</text>
<text text-anchor="middle" x="623" y="-8" font-family="Ubuntu-R" font-size="10.00">_press_key</text>
</a>
</g>
<!-- Node4&#45;&gt;Node5 -->
<g id="edge8" class="edge"><title>Node4&#45;&gt;Node5</title>
<path fill="none" stroke="midnightblue" d="M524.024,-17C532.684,-17 541.533,-17 550.203,-17"/>
<polygon fill="midnightblue" stroke="midnightblue" points="550.278,-20.5001 560.278,-17 550.278,-13.5001 550.278,-20.5001"/>
</g>
</g>
</svg>
