<?xml version="1.0" encoding="UTF-8" standalone="no"?>
<!DOCTYPE svg PUBLIC "-//W3C//DTD SVG 1.1//EN"
 "http://www.w3.org/Graphics/SVG/1.1/DTD/svg11.dtd">
<!-- Generated by graphviz version 2.28.0 (20111219.2309)
 -->
<!-- Title: G Pages: 1 -->
<svg width="494pt" height="66pt"
 viewBox="0.00 0.00 494.00 66.00" xmlns="http://www.w3.org/2000/svg" xmlns:xlink="http://www.w3.org/1999/xlink">
<g id="graph1" class="graph" transform="scale(1 1) rotate(0) translate(4 62)">
<title>G</title>
<polygon fill="white" stroke="white" points="-4,5 -4,-62 491,-62 491,5 -4,5"/>
<!-- Node1 -->
<g id="node1" class="node"><title>Node1</title>
<polygon fill="#bfbfbf" stroke="black" points="0,-0.5 0,-19.5 230,-19.5 230,-0.5 0,-0.5"/>
<text text-anchor="middle" x="115" y="-7.5" font-family="Ubuntu-R" font-size="10.00">forcebalance.amberio.FrcMod_Reader.Whites</text>
</g>
<!-- Node2 -->
<g id="node3" class="node"><title>Node2</title>
<a xlink:href="classforcebalance_1_1amberio_1_1FrcMod__Reader.html#a689bb40a107f763472b15175be6f0f12" target="_top" xlink:title="forcebalance.amberio.FrcMod_Reader.feed">
<polygon fill="white" stroke="black" points="266.5,-38.5 266.5,-57.5 485.5,-57.5 485.5,-38.5 266.5,-38.5"/>
<text text-anchor="middle" x="376" y="-45.5" font-family="Ubuntu-R" font-size="10.00">forcebalance.amberio.FrcMod_Reader.feed</text>
</a>
</g>
<!-- Node1&#45;&gt;Node2 -->
<g id="edge2" class="edge"><title>Node1&#45;&gt;Node2</title>
<path fill="none" stroke="midnightblue" d="M181.022,-19.54C217.199,-24.8477 262.388,-31.4778 300.047,-37.0031"/>
<polygon fill="midnightblue" stroke="midnightblue" points="299.549,-40.4673 309.951,-38.4561 300.565,-33.5415 299.549,-40.4673"/>
</g>
<!-- Node3 -->
<g id="node5" class="node"><title>Node3</title>
<a xlink:href="classforcebalance_1_1amberio_1_1FrcMod__Reader.html#ac1234e56581721ab2da13eefaa8560f0" target="_top" xlink:title="forcebalance.amberio.FrcMod_Reader.Split">
<polygon fill="white" stroke="black" points="266.5,-0.5 266.5,-19.5 485.5,-19.5 485.5,-0.5 266.5,-0.5"/>
<text text-anchor="middle" x="376" y="-7.5" font-family="Ubuntu-R" font-size="10.00">forcebalance.amberio.FrcMod_Reader.Split</text>
</a>
</g>
<!-- Node1&#45;&gt;Node3 -->
<g id="edge4" class="edge"><title>Node1&#45;&gt;Node3</title>
<path fill="none" stroke="midnightblue" d="M230.355,-3.2912C238.926,-3.24438 247.587,-3.23746 256.185,-3.27046"/>
<polygon fill="midnightblue" stroke="midnightblue" points="256.22,-6.77062 266.24,-3.32754 256.26,0.229267 256.22,-6.77062"/>
</g>
<!-- Node3&#45;&gt;Node1 -->
<g id="edge6" class="edge"><title>Node3&#45;&gt;Node1</title>
<path fill="none" stroke="midnightblue" d="M266.24,-16.6725C257.715,-16.7367 249.067,-16.761 240.449,-16.7454"/>
<polygon fill="midnightblue" stroke="midnightblue" points="240.368,-13.2452 230.355,-16.7088 240.342,-20.2452 240.368,-13.2452"/>
</g>
</g>
</svg>
