<?xml version="1.0" encoding="UTF-8" standalone="no"?>
<!DOCTYPE svg PUBLIC "-//W3C//DTD SVG 1.1//EN"
 "http://www.w3.org/Graphics/SVG/1.1/DTD/svg11.dtd">
<!-- Generated by graphviz version 2.28.0 (20111219.2309)
 -->
<!-- Title: G Pages: 1 -->
<svg width="2546pt" height="427pt"
 viewBox="0.00 0.00 2546.00 427.00" xmlns="http://www.w3.org/2000/svg" xmlns:xlink="http://www.w3.org/1999/xlink">
<g id="graph1" class="graph" transform="scale(1 1) rotate(0) translate(4 423)">
<title>G</title>
<polygon fill="white" stroke="white" points="-4,5 -4,-423 2543,-423 2543,5 -4,5"/>
<!-- Node1 -->
<g id="node1" class="node"><title>Node1</title>
<polygon fill="#bfbfbf" stroke="black" points="0.5,-133.5 0.5,-152.5 173.5,-152.5 173.5,-133.5 0.5,-133.5"/>
<text text-anchor="middle" x="87" y="-140.5" font-family="Ubuntu-R" font-size="10.00">forcebalance.target.Target.stage</text>
</g>
<!-- Node2 -->
<g id="node3" class="node"><title>Node2</title>
<a xlink:href="namespaceforcebalance_1_1optimizer.html#ae1f6c649703a22b2f767a5f6bf53297b" target="_top" target="_top" xlink:title="forcebalance.optimizer.Counter">
<polygon fill="white" stroke="black" points="536.5,-399.5 536.5,-418.5 703.5,-418.5 703.5,-399.5 536.5,-399.5"/>
<text text-anchor="middle" x="620" y="-406.5" font-family="Ubuntu-R" font-size="10.00">forcebalance.optimizer.Counter</text>
</a>
</g>
<!-- Node1&#45;&gt;Node2 -->
<g id="edge2" class="edge"><title>Node1&#45;&gt;Node2</title>
<path fill="none" stroke="midnightblue" d="M92.1525,-152.886C105.005,-182.254 147.093,-269.685 210,-314 304.108,-380.296 437.742,-400.95 526.329,-407.045"/>
<polygon fill="midnightblue" stroke="midnightblue" points="526.163,-410.542 536.366,-407.687 526.61,-403.556 526.163,-410.542"/>
</g>
<!-- Node4 -->
<g id="node7" class="node"><title>Node4</title>
<a xlink:href="classforcebalance_1_1target_1_1Target.html#a5aa4958cea0a48138511567a076c5a82" target="_top" target="_top" xlink:title="forcebalance.target.Target.link_from_tempdir">
<polygon fill="white" stroke="black" points="210,-95.5 210,-114.5 442,-114.5 442,-95.5 210,-95.5"/>
<text text-anchor="middle" x="326" y="-102.5" font-family="Ubuntu-R" font-size="10.00">forcebalance.target.Target.link_from_tempdir</text>
</a>
</g>
<!-- Node1&#45;&gt;Node4 -->
<g id="edge6" class="edge"><title>Node1&#45;&gt;Node4</title>
<path fill="none" stroke="midnightblue" d="M147.499,-133.46C180.321,-128.197 221.251,-121.635 255.533,-116.138"/>
<polygon fill="midnightblue" stroke="midnightblue" points="256.157,-119.583 265.476,-114.544 255.048,-112.671 256.157,-119.583"/>
</g>
<!-- Node5 -->
<g id="node9" class="node"><title>Node5</title>
<a xlink:href="classforcebalance_1_1liquid_1_1Liquid.html#a716e28bb5572b3273036ac753b7e1e1d" target="_top" target="_top" xlink:title="forcebalance.liquid.Liquid.submit_jobs">
<polygon fill="white" stroke="black" points="227.5,-285.5 227.5,-304.5 424.5,-304.5 424.5,-285.5 227.5,-285.5"/>
<text text-anchor="middle" x="326" y="-292.5" font-family="Ubuntu-R" font-size="10.00">forcebalance.liquid.Liquid.submit_jobs</text>
</a>
</g>
<!-- Node1&#45;&gt;Node5 -->
<g id="edge8" class="edge"><title>Node1&#45;&gt;Node5</title>
<path fill="none" stroke="midnightblue" d="M102.825,-152.508C142.81,-178.153 253.115,-248.897 301.61,-279.999"/>
<polygon fill="midnightblue" stroke="midnightblue" points="299.873,-283.043 310.18,-285.495 303.652,-277.151 299.873,-283.043"/>
</g>
<!-- Node7 -->
<g id="node13" class="node"><title>Node7</title>
<a xlink:href="namespaceforcebalance_1_1nifty.html#ac37d4fe58ef70ed546ebfc45d12f7a5d" target="_top" target="_top" xlink:title="forcebalance.nifty.getWorkQueue">
<polygon fill="white" stroke="black" points="836.5,-171.5 836.5,-190.5 1009.5,-190.5 1009.5,-171.5 836.5,-171.5"/>
<text text-anchor="middle" x="923" y="-178.5" font-family="Ubuntu-R" font-size="10.00">forcebalance.nifty.getWorkQueue</text>
</a>
</g>
<!-- Node1&#45;&gt;Node7 -->
<g id="edge94" class="edge"><title>Node1&#45;&gt;Node7</title>
<path fill="none" stroke="midnightblue" d="M139.465,-152.509C161.159,-156.128 186.731,-159.886 210,-162 429.859,-181.971 689.347,-183.328 826.261,-182.32"/>
<polygon fill="midnightblue" stroke="midnightblue" points="826.335,-185.819 836.307,-182.24 826.279,-178.82 826.335,-185.819"/>
</g>
<!-- Node24 -->
<g id="node51" class="node"><title>Node24</title>
<a xlink:href="classforcebalance_1_1target_1_1Target.html#a78cd29b94cbcc201eed99c78aaef46a4" target="_top" target="_top" xlink:title="forcebalance.target.Target.submit_jobs">
<polygon fill="white" stroke="black" points="224.5,-57.5 224.5,-76.5 427.5,-76.5 427.5,-57.5 224.5,-57.5"/>
<text text-anchor="middle" x="326" y="-64.5" font-family="Ubuntu-R" font-size="10.00">forcebalance.target.Target.submit_jobs</text>
</a>
</g>
<!-- Node1&#45;&gt;Node24 -->
<g id="edge54" class="edge"><title>Node1&#45;&gt;Node24</title>
<path fill="none" stroke="midnightblue" d="M104.781,-133.347C127.772,-120.551 170.697,-98.1754 210,-86 219.351,-83.1033 229.274,-80.6229 239.219,-78.5049"/>
<polygon fill="midnightblue" stroke="midnightblue" points="240.039,-81.9102 249.152,-76.5057 238.658,-75.0478 240.039,-81.9102"/>
</g>
<!-- Node25 -->
<g id="node53" class="node"><title>Node25</title>
<a xlink:href="classforcebalance_1_1target_1_1Target.html#af6099ec09486213869dba2491bd8ea04" target="_top" target="_top" xlink:title="This method determines whether the Work Queue tasks for the current target have completed.">
<polygon fill="white" stroke="black" points="221.5,-133.5 221.5,-152.5 430.5,-152.5 430.5,-133.5 221.5,-133.5"/>
<text text-anchor="middle" x="326" y="-140.5" font-family="Ubuntu-R" font-size="10.00">forcebalance.target.Target.wq_complete</text>
</a>
</g>
<!-- Node1&#45;&gt;Node25 -->
<g id="edge56" class="edge"><title>Node1&#45;&gt;Node25</title>
<path fill="none" stroke="midnightblue" d="M173.562,-143C185.803,-143 198.553,-143 211.231,-143"/>
<polygon fill="midnightblue" stroke="midnightblue" points="211.372,-146.5 221.372,-143 211.372,-139.5 211.372,-146.5"/>
</g>
<!-- Node38 -->
<g id="node86" class="node"><title>Node38</title>
<a xlink:href="namespaceforcebalance_1_1nifty.html#abe1e72c32252d62a6551b47290c7584f" target="_top" target="_top" xlink:title="forcebalance.nifty.getWQIds">
<polygon fill="white" stroke="black" points="252,-19.5 252,-38.5 400,-38.5 400,-19.5 252,-19.5"/>
<text text-anchor="middle" x="326" y="-26.5" font-family="Ubuntu-R" font-size="10.00">forcebalance.nifty.getWQIds</text>
</a>
</g>
<!-- Node1&#45;&gt;Node38 -->
<g id="edge96" class="edge"><title>Node1&#45;&gt;Node38</title>
<path fill="none" stroke="midnightblue" d="M97.0207,-133.268C115.893,-113.579 161.801,-69.102 210,-48 220.006,-43.6194 230.905,-40.2413 241.875,-37.6379"/>
<polygon fill="midnightblue" stroke="midnightblue" points="242.913,-40.9943 251.947,-35.4581 241.433,-34.1527 242.913,-40.9943"/>
</g>
<!-- Node3 -->
<g id="node5" class="node"><title>Node3</title>
<a xlink:href="namespaceforcebalance_1_1optimizer.html#ab43948ecf30c90d319e0c0b107fe484a" target="_top" target="_top" xlink:title="forcebalance.optimizer.GoodStep">
<polygon fill="white" stroke="black" points="835,-399.5 835,-418.5 1011,-418.5 1011,-399.5 835,-399.5"/>
<text text-anchor="middle" x="923" y="-406.5" font-family="Ubuntu-R" font-size="10.00">forcebalance.optimizer.GoodStep</text>
</a>
</g>
<!-- Node2&#45;&gt;Node3 -->
<g id="edge4" class="edge"><title>Node2&#45;&gt;Node3</title>
<path fill="none" stroke="midnightblue" d="M703.648,-409C741.032,-409 785.481,-409 824.487,-409"/>
<polygon fill="midnightblue" stroke="midnightblue" points="824.804,-412.5 834.804,-409 824.804,-405.5 824.804,-412.5"/>
</g>
<!-- Node5&#45;&gt;Node2 -->
<g id="edge14" class="edge"><title>Node5&#45;&gt;Node2</title>
<path fill="none" stroke="midnightblue" d="M348.27,-304.509C372.071,-315.587 411.316,-335.178 442,-357 459.688,-369.58 458.343,-380.795 478,-390 492.912,-396.983 509.619,-401.618 526.176,-404.653"/>
<polygon fill="midnightblue" stroke="midnightblue" points="526.012,-408.173 536.447,-406.344 527.148,-401.266 526.012,-408.173"/>
</g>
<!-- Node6 -->
<g id="node11" class="node"><title>Node6</title>
<a xlink:href="namespaceforcebalance_1_1nifty.html#a2ff762a2f2d2b6bb1c7dd067bd1a1e88" target="_top" target="_top" xlink:title="Use this instead of pickle.dump for pickling anything that contains _ElementTree types.">
<polygon fill="white" stroke="black" points="548,-209.5 548,-228.5 692,-228.5 692,-209.5 548,-209.5"/>
<text text-anchor="middle" x="620" y="-216.5" font-family="Ubuntu-R" font-size="10.00">forcebalance.nifty.lp_dump</text>
</a>
</g>
<!-- Node5&#45;&gt;Node6 -->
<g id="edge10" class="edge"><title>Node5&#45;&gt;Node6</title>
<path fill="none" stroke="midnightblue" d="M348.014,-285.319C376.745,-272.491 430.185,-250.079 478,-238 497.068,-233.183 517.914,-229.525 537.588,-226.77"/>
<polygon fill="midnightblue" stroke="midnightblue" points="538.306,-230.205 547.754,-225.41 537.378,-223.267 538.306,-230.205"/>
</g>
<!-- Node8 -->
<g id="node16" class="node"><title>Node8</title>
<a xlink:href="namespaceforcebalance_1_1nifty.html#abb8f59044961a12588e0653c2baa8b01" target="_top" target="_top" xlink:title="forcebalance.nifty.warn_press_key">
<polygon fill="white" stroke="black" points="2134.5,-38.5 2134.5,-57.5 2313.5,-57.5 2313.5,-38.5 2134.5,-38.5"/>
<text text-anchor="middle" x="2224" y="-45.5" font-family="Ubuntu-R" font-size="10.00">forcebalance.nifty.warn_press_key</text>
</a>
</g>
<!-- Node5&#45;&gt;Node8 -->
<g id="edge16" class="edge"><title>Node5&#45;&gt;Node8</title>
<path fill="none" stroke="midnightblue" d="M424.656,-295C542.534,-295 746.78,-295 922,-295 922,-295 922,-295 1772,-295 1922.98,-295 1987.2,-289.68 2092,-181 2128.88,-142.753 2088.45,-102.479 2128,-67 2129.55,-65.6102 2131.17,-64.3103 2132.85,-63.0949"/>
<polygon fill="midnightblue" stroke="midnightblue" points="2135.01,-65.8823 2141.73,-57.6973 2131.37,-59.9005 2135.01,-65.8823"/>
</g>
<!-- Node10 -->
<g id="node20" class="node"><title>Node10</title>
<a xlink:href="classforcebalance_1_1openmmio_1_1Liquid__OpenMM.html#ad6a30e41f4c0bc319d7ffbbb09cfcf5d" target="_top" target="_top" xlink:title="Submit a NPT simulation to the Work Queue.">
<polygon fill="white" stroke="black" points="478,-247.5 478,-266.5 762,-266.5 762,-247.5 478,-247.5"/>
<text text-anchor="middle" x="620" y="-254.5" font-family="Ubuntu-R" font-size="10.00">forcebalance.openmmio.Liquid_OpenMM.npt_simulation</text>
</a>
</g>
<!-- Node5&#45;&gt;Node10 -->
<g id="edge20" class="edge"><title>Node5&#45;&gt;Node10</title>
<path fill="none" stroke="midnightblue" d="M400.307,-285.46C441.518,-280.097 493.104,-273.384 535.823,-267.824"/>
<polygon fill="midnightblue" stroke="midnightblue" points="536.451,-271.272 545.916,-266.511 535.548,-264.331 536.451,-271.272"/>
</g>
<!-- Node21 -->
<g id="node43" class="node"><title>Node21</title>
<a xlink:href="classforcebalance_1_1tinkerio_1_1Liquid__TINKER.html#a53a10ac99cdfbf026526ed625d4de809" target="_top" target="_top" xlink:title="Submit a NPT simulation to the Work Queue.">
<polygon fill="white" stroke="black" points="490.5,-361.5 490.5,-380.5 749.5,-380.5 749.5,-361.5 490.5,-361.5"/>
<text text-anchor="middle" x="620" y="-368.5" font-family="Ubuntu-R" font-size="10.00">forcebalance.tinkerio.Liquid_TINKER.npt_simulation</text>
</a>
</g>
<!-- Node5&#45;&gt;Node21 -->
<g id="edge44" class="edge"><title>Node5&#45;&gt;Node21</title>
<path fill="none" stroke="midnightblue" d="M348.014,-304.681C376.745,-317.509 430.185,-339.921 478,-352 489.999,-355.031 502.703,-357.604 515.375,-359.781"/>
<polygon fill="midnightblue" stroke="midnightblue" points="515.083,-363.28 525.518,-361.444 516.216,-356.372 515.083,-363.28"/>
</g>
<!-- Node23 -->
<g id="node49" class="node"><title>Node23</title>
<a xlink:href="classforcebalance_1_1liquid_1_1Liquid.html#a802c4139e5c002fabdeab5de88093880" target="_top" target="_top" xlink:title="Fitting of liquid bulk properties.">
<polygon fill="white" stroke="black" points="542.5,-323.5 542.5,-342.5 697.5,-342.5 697.5,-323.5 542.5,-323.5"/>
<text text-anchor="middle" x="620" y="-330.5" font-family="Ubuntu-R" font-size="10.00">forcebalance.liquid.Liquid.get</text>
</a>
</g>
<!-- Node5&#45;&gt;Node23 -->
<g id="edge52" class="edge"><title>Node5&#45;&gt;Node23</title>
<path fill="none" stroke="midnightblue" d="M400.307,-304.54C441.518,-309.903 493.104,-316.616 535.823,-322.176"/>
<polygon fill="midnightblue" stroke="midnightblue" points="535.548,-325.669 545.916,-323.489 536.451,-318.728 535.548,-325.669"/>
</g>
<!-- Node6&#45;&gt;Node7 -->
<g id="edge12" class="edge"><title>Node6&#45;&gt;Node7</title>
<path fill="none" stroke="midnightblue" d="M692.333,-209.995C735.567,-204.536 790.987,-197.54 836.554,-191.787"/>
<polygon fill="midnightblue" stroke="midnightblue" points="837.231,-195.23 846.714,-190.505 836.354,-188.285 837.231,-195.23"/>
</g>
<!-- Node9 -->
<g id="node18" class="node"><title>Node9</title>
<a xlink:href="namespaceforcebalance_1_1nifty.html#a2fc81730e7efa7d138dd86f733507bfc" target="_top" target="_top" xlink:title="Similar to the bultin function map().">
<polygon fill="white" stroke="black" points="2356,-38.5 2356,-57.5 2538,-57.5 2538,-38.5 2356,-38.5"/>
<text text-anchor="middle" x="2447" y="-45.5" font-family="Ubuntu-R" font-size="10.00">forcebalance.nifty.concurrent_map</text>
</a>
</g>
<!-- Node8&#45;&gt;Node9 -->
<g id="edge18" class="edge"><title>Node8&#45;&gt;Node9</title>
<path fill="none" stroke="midnightblue" d="M2313.62,-48C2324.17,-48 2335.01,-48 2345.71,-48"/>
<polygon fill="midnightblue" stroke="midnightblue" points="2345.92,-51.5001 2355.92,-48 2345.92,-44.5001 2345.92,-51.5001"/>
</g>
<!-- Node11 -->
<g id="node22" class="node"><title>Node11</title>
<a xlink:href="namespaceforcebalance_1_1nifty.html#a673f4a044169f5d8d822823989a836a7" target="_top" target="_top" xlink:title="Submit a job to the Work Queue.">
<polygon fill="white" stroke="black" points="848,-247.5 848,-266.5 998,-266.5 998,-247.5 848,-247.5"/>
<text text-anchor="middle" x="923" y="-254.5" font-family="Ubuntu-R" font-size="10.00">forcebalance.nifty.queue_up</text>
</a>
</g>
<!-- Node10&#45;&gt;Node11 -->
<g id="edge22" class="edge"><title>Node10&#45;&gt;Node11</title>
<path fill="none" stroke="midnightblue" d="M762.246,-257C788.058,-257 814.235,-257 837.724,-257"/>
<polygon fill="midnightblue" stroke="midnightblue" points="837.965,-260.5 847.965,-257 837.965,-253.5 837.965,-260.5"/>
</g>
<!-- Node20 -->
<g id="node41" class="node"><title>Node20</title>
<a xlink:href="classforcebalance_1_1openmmio_1_1Liquid__OpenMM.html#a92379bd73128234b309fae789946035d" target="_top" target="_top" xlink:title="Instantiation of the subclass.">
<polygon fill="white" stroke="black" points="798.5,-209.5 798.5,-228.5 1047.5,-228.5 1047.5,-209.5 798.5,-209.5"/>
<text text-anchor="middle" x="923" y="-216.5" font-family="Ubuntu-R" font-size="10.00">forcebalance.openmmio.Liquid_OpenMM.__init__</text>
</a>
</g>
<!-- Node10&#45;&gt;Node20 -->
<g id="edge42" class="edge"><title>Node10&#45;&gt;Node20</title>
<path fill="none" stroke="midnightblue" d="M696.566,-247.46C739.138,-242.086 792.448,-235.355 836.538,-229.789"/>
<polygon fill="midnightblue" stroke="midnightblue" points="837.181,-233.236 846.664,-228.511 836.304,-226.291 837.181,-233.236"/>
</g>
<!-- Node12 -->
<g id="node24" class="node"><title>Node12</title>
<a xlink:href="namespaceforcebalance_1_1nifty.html#a5d5abeb4a185fde64721d044831e18ee" target="_top" target="_top" xlink:title="Submit a job to the Work Queue.">
<polygon fill="white" stroke="black" points="1084,-247.5 1084,-266.5 1280,-266.5 1280,-247.5 1084,-247.5"/>
<text text-anchor="middle" x="1182" y="-254.5" font-family="Ubuntu-R" font-size="10.00">forcebalance.nifty.queue_up_src_dest</text>
</a>
</g>
<!-- Node11&#45;&gt;Node12 -->
<g id="edge24" class="edge"><title>Node11&#45;&gt;Node12</title>
<path fill="none" stroke="midnightblue" d="M998.335,-257C1021.89,-257 1048.42,-257 1073.81,-257"/>
<polygon fill="midnightblue" stroke="midnightblue" points="1073.85,-260.5 1083.85,-257 1073.85,-253.5 1073.85,-260.5"/>
</g>
<!-- Node13 -->
<g id="node26" class="node"><title>Node13</title>
<a xlink:href="namespaceforcebalance_1_1nifty.html#a374aac2ef003be02fab49b20ff0a82f0" target="_top" target="_top" xlink:title="This function waits ten seconds to see if a task in the Work Queue has finished.">
<polygon fill="white" stroke="black" points="1109,-190.5 1109,-209.5 1255,-209.5 1255,-190.5 1109,-190.5"/>
<text text-anchor="middle" x="1182" y="-197.5" font-family="Ubuntu-R" font-size="10.00">forcebalance.nifty.wq_wait1</text>
</a>
</g>
<!-- Node11&#45;&gt;Node13 -->
<g id="edge26" class="edge"><title>Node11&#45;&gt;Node13</title>
<path fill="none" stroke="midnightblue" d="M996.41,-247.477C1013.41,-244.808 1031.4,-241.627 1048,-238 1080.04,-230.998 1115.74,-220.654 1142.08,-212.525"/>
<polygon fill="midnightblue" stroke="midnightblue" points="1143.18,-215.847 1151.69,-209.53 1141.1,-209.164 1143.18,-215.847"/>
</g>
<!-- Node14 -->
<g id="node28" class="node"><title>Node14</title>
<a xlink:href="namespaceforcebalance_1_1nifty.html#a576de8c5b6f236280e07e73e39b2ab7c" target="_top" target="_top" xlink:title="This function waits until the work queue is completely empty.">
<polygon fill="white" stroke="black" points="1320,-133.5 1320,-152.5 1460,-152.5 1460,-133.5 1320,-133.5"/>
<text text-anchor="middle" x="1390" y="-140.5" font-family="Ubuntu-R" font-size="10.00">forcebalance.nifty.wq_wait</text>
</a>
</g>
<!-- Node13&#45;&gt;Node14 -->
<g id="edge28" class="edge"><title>Node13&#45;&gt;Node14</title>
<path fill="none" stroke="midnightblue" d="M1217.48,-190.459C1252.39,-180.801 1306.51,-165.825 1344.6,-155.284"/>
<polygon fill="midnightblue" stroke="midnightblue" points="1345.7,-158.612 1354.41,-152.572 1343.84,-151.865 1345.7,-158.612"/>
</g>
<!-- Node15 -->
<g id="node30" class="node"><title>Node15</title>
<a xlink:href="namespaceforcebalance_1_1nifty.html#ac9ab6c5543a2e3080061e0024850edf3" target="_top" target="_top" xlink:title="forcebalance.nifty.allsplit">
<polygon fill="white" stroke="black" points="1500.5,-152.5 1500.5,-171.5 1633.5,-171.5 1633.5,-152.5 1500.5,-152.5"/>
<text text-anchor="middle" x="1567" y="-159.5" font-family="Ubuntu-R" font-size="10.00">forcebalance.nifty.allsplit</text>
</a>
</g>
<!-- Node13&#45;&gt;Node15 -->
<g id="edge38" class="edge"><title>Node13&#45;&gt;Node15</title>
<path fill="none" stroke="midnightblue" d="M1255.04,-192.852C1322.13,-186.196 1421.79,-176.308 1490.09,-169.531"/>
<polygon fill="midnightblue" stroke="midnightblue" points="1490.75,-172.983 1500.36,-168.513 1490.06,-166.018 1490.75,-172.983"/>
</g>
<!-- Node18 -->
<g id="node36" class="node"><title>Node18</title>
<a xlink:href="namespaceforcebalance_1_1nifty.html#ad432b88307e1178b0690c0d350b1af36" target="_top" target="_top" xlink:title="forcebalance.nifty.GoInto">
<polygon fill="white" stroke="black" points="1323,-247.5 1323,-266.5 1457,-266.5 1457,-247.5 1323,-247.5"/>
<text text-anchor="middle" x="1390" y="-254.5" font-family="Ubuntu-R" font-size="10.00">forcebalance.nifty.GoInto</text>
</a>
</g>
<!-- Node13&#45;&gt;Node18 -->
<g id="edge36" class="edge"><title>Node13&#45;&gt;Node18</title>
<path fill="none" stroke="midnightblue" d="M1215.46,-209.507C1242.35,-217.327 1281.6,-228.61 1316,-238 1324.26,-240.255 1333.07,-242.599 1341.6,-244.838"/>
<polygon fill="midnightblue" stroke="midnightblue" points="1340.88,-248.267 1351.44,-247.406 1342.65,-241.494 1340.88,-248.267"/>
</g>
<!-- Node19 -->
<g id="node39" class="node"><title>Node19</title>
<a xlink:href="namespaceforcebalance_1_1nifty.html#ab04e8690d099db2379dc860e0d040120" target="_top" target="_top" xlink:title="forcebalance.nifty.Leave">
<polygon fill="white" stroke="black" points="1324.5,-209.5 1324.5,-228.5 1455.5,-228.5 1455.5,-209.5 1324.5,-209.5"/>
<text text-anchor="middle" x="1390" y="-216.5" font-family="Ubuntu-R" font-size="10.00">forcebalance.nifty.Leave</text>
</a>
</g>
<!-- Node13&#45;&gt;Node19 -->
<g id="edge40" class="edge"><title>Node13&#45;&gt;Node19</title>
<path fill="none" stroke="midnightblue" d="M1255.05,-206.645C1274.13,-208.405 1294.77,-210.309 1314,-212.083"/>
<polygon fill="midnightblue" stroke="midnightblue" points="1313.94,-215.592 1324.22,-213.025 1314.58,-208.621 1313.94,-215.592"/>
</g>
<!-- Node14&#45;&gt;Node15 -->
<g id="edge30" class="edge"><title>Node14&#45;&gt;Node15</title>
<path fill="none" stroke="midnightblue" d="M1460.16,-150.509C1470.12,-151.591 1480.42,-152.708 1490.49,-153.802"/>
<polygon fill="midnightblue" stroke="midnightblue" points="1490.16,-157.286 1500.47,-154.886 1490.91,-150.327 1490.16,-157.286"/>
</g>
<!-- Node16 -->
<g id="node32" class="node"><title>Node16</title>
<a xlink:href="namespaceforcebalance_1_1nifty.html#ae87c7def5f8edf2ec30737bdb1d2636f" target="_top" target="_top" xlink:title="forcebalance.nifty.MissingFileInspection">
<polygon fill="white" stroke="black" points="1670,-152.5 1670,-171.5 1872,-171.5 1872,-152.5 1670,-152.5"/>
<text text-anchor="middle" x="1771" y="-159.5" font-family="Ubuntu-R" font-size="10.00">forcebalance.nifty.MissingFileInspection</text>
</a>
</g>
<!-- Node15&#45;&gt;Node16 -->
<g id="edge32" class="edge"><title>Node15&#45;&gt;Node16</title>
<path fill="none" stroke="midnightblue" d="M1633.58,-162C1642.04,-162 1650.87,-162 1659.8,-162"/>
<polygon fill="midnightblue" stroke="midnightblue" points="1659.91,-165.5 1669.91,-162 1659.91,-158.5 1659.91,-165.5"/>
</g>
<!-- Node17 -->
<g id="node34" class="node"><title>Node17</title>
<a xlink:href="namespaceforcebalance_1_1nifty.html#a0cf4e58f90acf20e3d6224be2354082c" target="_top" target="_top" xlink:title="forcebalance.nifty.link_dir_contents">
<polygon fill="white" stroke="black" points="1908.5,-152.5 1908.5,-171.5 2091.5,-171.5 2091.5,-152.5 1908.5,-152.5"/>
<text text-anchor="middle" x="2000" y="-159.5" font-family="Ubuntu-R" font-size="10.00">forcebalance.nifty.link_dir_contents</text>
</a>
</g>
<!-- Node16&#45;&gt;Node17 -->
<g id="edge34" class="edge"><title>Node16&#45;&gt;Node17</title>
<path fill="none" stroke="midnightblue" d="M1872.23,-162C1880.85,-162 1889.57,-162 1898.2,-162"/>
<polygon fill="midnightblue" stroke="midnightblue" points="1898.27,-165.5 1908.27,-162 1898.27,-158.5 1898.27,-165.5"/>
</g>
<!-- Node21&#45;&gt;Node3 -->
<g id="edge46" class="edge"><title>Node21&#45;&gt;Node3</title>
<path fill="none" stroke="midnightblue" d="M696.566,-380.54C739.138,-385.914 792.448,-392.645 836.538,-398.211"/>
<polygon fill="midnightblue" stroke="midnightblue" points="836.304,-401.709 846.664,-399.489 837.181,-394.764 836.304,-401.709"/>
</g>
<!-- Node21&#45;&gt;Node11 -->
<g id="edge48" class="edge"><title>Node21&#45;&gt;Node11</title>
<path fill="none" stroke="midnightblue" d="M726.811,-361.47C738.847,-359 750.802,-355.897 762,-352 816.195,-333.141 872.212,-294.717 901.431,-272.958"/>
<polygon fill="midnightblue" stroke="midnightblue" points="903.739,-275.601 909.608,-266.78 899.519,-270.016 903.739,-275.601"/>
</g>
<!-- Node22 -->
<g id="node47" class="node"><title>Node22</title>
<a xlink:href="classforcebalance_1_1tinkerio_1_1Liquid__TINKER.html#a307529b9902b34a790a8b016e153c7d6" target="_top" target="_top" xlink:title="Instantiation of the subclass.">
<polygon fill="white" stroke="black" points="811,-361.5 811,-380.5 1035,-380.5 1035,-361.5 811,-361.5"/>
<text text-anchor="middle" x="923" y="-368.5" font-family="Ubuntu-R" font-size="10.00">forcebalance.tinkerio.Liquid_TINKER.__init__</text>
</a>
</g>
<!-- Node21&#45;&gt;Node22 -->
<g id="edge50" class="edge"><title>Node21&#45;&gt;Node22</title>
<path fill="none" stroke="midnightblue" d="M749.524,-371C766.462,-371 783.779,-371 800.592,-371"/>
<polygon fill="midnightblue" stroke="midnightblue" points="800.988,-374.5 810.988,-371 800.987,-367.5 800.988,-374.5"/>
</g>
<!-- Node25&#45;&gt;Node13 -->
<g id="edge58" class="edge"><title>Node25&#45;&gt;Node13</title>
<path fill="none" stroke="midnightblue" d="M430.707,-137.598C571.439,-132.115 830.324,-128.584 1048,-162 1081.68,-167.17 1118.87,-178.28 1145.35,-187.159"/>
<polygon fill="midnightblue" stroke="midnightblue" points="1144.35,-190.515 1154.94,-190.436 1146.61,-183.891 1144.35,-190.515"/>
</g>
<!-- Node26 -->
<g id="node56" class="node"><title>Node26</title>
<a xlink:href="classforcebalance_1_1target_1_1Target.html#ac30a4e9d7d9fe06f7caefa5f7cfab09b" target="_top" target="_top" xlink:title="Print target information in an organized table format.">
<polygon fill="white" stroke="black" points="512,-95.5 512,-114.5 728,-114.5 728,-95.5 512,-95.5"/>
<text text-anchor="middle" x="620" y="-102.5" font-family="Ubuntu-R" font-size="10.00">forcebalance.target.Target.printcool_table</text>
</a>
</g>
<!-- Node25&#45;&gt;Node26 -->
<g id="edge60" class="edge"><title>Node25&#45;&gt;Node26</title>
<path fill="none" stroke="midnightblue" d="M400.307,-133.46C441.518,-128.097 493.104,-121.384 535.823,-115.824"/>
<polygon fill="midnightblue" stroke="midnightblue" points="536.451,-119.272 545.916,-114.511 535.548,-112.331 536.451,-119.272"/>
</g>
<!-- Node27 -->
<g id="node58" class="node"><title>Node27</title>
<a xlink:href="namespaceforcebalance_1_1nifty.html#a51180e960742cc7547749fdfb3513ec4" target="_top" target="_top" xlink:title="See documentation for printcool; this is a nice way to print out keys/values in a dictionary...">
<polygon fill="white" stroke="black" points="825,-95.5 825,-114.5 1021,-114.5 1021,-95.5 825,-95.5"/>
<text text-anchor="middle" x="923" y="-102.5" font-family="Ubuntu-R" font-size="10.00">forcebalance.nifty.printcool_dictionary</text>
</a>
</g>
<!-- Node26&#45;&gt;Node27 -->
<g id="edge62" class="edge"><title>Node26&#45;&gt;Node27</title>
<path fill="none" stroke="midnightblue" d="M728.393,-105C756.361,-105 786.499,-105 814.474,-105"/>
<polygon fill="midnightblue" stroke="midnightblue" points="814.675,-108.5 824.675,-105 814.675,-101.5 814.675,-108.5"/>
</g>
<!-- Node28 -->
<g id="node60" class="node"><title>Node28</title>
<a xlink:href="namespaceforcebalance_1_1nifty.html#a3f1c7a1af9d35d5d1693074bc6f5497c" target="_top" target="_top" xlink:title="ONLY matches integers! If you have a decimal point? None shall pass!">
<polygon fill="white" stroke="black" points="1121,-57.5 1121,-76.5 1243,-76.5 1243,-57.5 1121,-57.5"/>
<text text-anchor="middle" x="1182" y="-64.5" font-family="Ubuntu-R" font-size="10.00">forcebalance.nifty.isint</text>
</a>
</g>
<!-- Node27&#45;&gt;Node28 -->
<g id="edge64" class="edge"><title>Node27&#45;&gt;Node28</title>
<path fill="none" stroke="midnightblue" d="M988.52,-95.46C1025.78,-89.9505 1072.68,-83.0161 1110.86,-77.3716"/>
<polygon fill="midnightblue" stroke="midnightblue" points="1111.49,-80.8164 1120.87,-75.8912 1110.46,-73.8916 1111.49,-80.8164"/>
</g>
<!-- Node30 -->
<g id="node64" class="node"><title>Node30</title>
<a xlink:href="namespaceforcebalance_1_1nifty.html#a8e3ef0108b9d37b82ba0dced7c6037ae" target="_top" target="_top" xlink:title="Matches ANY number; it can be a decimal, scientific notation, what have you CAUTION &#45; this will also ...">
<polygon fill="white" stroke="black" points="1501.5,-66.5 1501.5,-85.5 1632.5,-85.5 1632.5,-66.5 1501.5,-66.5"/>
<text text-anchor="middle" x="1567" y="-73.5" font-family="Ubuntu-R" font-size="10.00">forcebalance.nifty.isfloat</text>
</a>
</g>
<!-- Node27&#45;&gt;Node30 -->
<g id="edge92" class="edge"><title>Node27&#45;&gt;Node30</title>
<path fill="none" stroke="midnightblue" d="M1021.14,-102.893C1129.29,-100.2 1309.27,-94.6851 1464,-85 1472.77,-84.4513 1481.95,-83.7792 1491.06,-83.0517"/>
<polygon fill="midnightblue" stroke="midnightblue" points="1491.61,-86.5184 1501.29,-82.2105 1491.03,-79.5419 1491.61,-86.5184"/>
</g>
<!-- Node29 -->
<g id="node62" class="node"><title>Node29</title>
<a xlink:href="namespaceforcebalance_1_1nifty.html#a09263927eaec9deff283fbf1a820242f" target="_top" target="_top" xlink:title="Matches things with a decimal only; see isint and isfloat.">
<polygon fill="white" stroke="black" points="1316,-19.5 1316,-38.5 1464,-38.5 1464,-19.5 1316,-19.5"/>
<text text-anchor="middle" x="1390" y="-26.5" font-family="Ubuntu-R" font-size="10.00">forcebalance.nifty.isdecimal</text>
</a>
</g>
<!-- Node28&#45;&gt;Node29 -->
<g id="edge66" class="edge"><title>Node28&#45;&gt;Node29</title>
<path fill="none" stroke="midnightblue" d="M1234.72,-57.46C1262.76,-52.2878 1297.6,-45.8599 1327.08,-40.4222"/>
<polygon fill="midnightblue" stroke="midnightblue" points="1328.06,-43.7999 1337.26,-38.5439 1326.79,-36.9161 1328.06,-43.7999"/>
</g>
<!-- Node29&#45;&gt;Node30 -->
<g id="edge68" class="edge"><title>Node29&#45;&gt;Node30</title>
<path fill="none" stroke="midnightblue" d="M1426.41,-38.5112C1453.48,-45.7814 1491.01,-55.8602 1520.34,-63.7366"/>
<polygon fill="midnightblue" stroke="midnightblue" points="1519.77,-67.2088 1530.34,-66.4224 1521.59,-60.4484 1519.77,-67.2088"/>
</g>
<!-- Node34 -->
<g id="node73" class="node"><title>Node34</title>
<a xlink:href="namespaceforcebalance_1_1nifty.html#afb3f205bce4984856e766af7e9fdaca8" target="_top" target="_top" xlink:title="Given any list, array, or matrix, return a 1&#45;column matrix.">
<polygon fill="white" stroke="black" points="1509,-19.5 1509,-38.5 1625,-38.5 1625,-19.5 1509,-19.5"/>
<text text-anchor="middle" x="1567" y="-26.5" font-family="Ubuntu-R" font-size="10.00">forcebalance.nifty.col</text>
</a>
</g>
<!-- Node29&#45;&gt;Node34 -->
<g id="edge78" class="edge"><title>Node29&#45;&gt;Node34</title>
<path fill="none" stroke="midnightblue" d="M1464.2,-29C1475.6,-29 1487.34,-29 1498.6,-29"/>
<polygon fill="midnightblue" stroke="midnightblue" points="1498.79,-32.5001 1508.79,-29 1498.79,-25.5001 1498.79,-32.5001"/>
</g>
<!-- Node30&#45;&gt;Node28 -->
<g id="edge70" class="edge"><title>Node30&#45;&gt;Node28</title>
<path fill="none" stroke="midnightblue" d="M1501.29,-74.4794C1432.56,-72.8644 1324.27,-70.3196 1253.43,-68.6551"/>
<polygon fill="midnightblue" stroke="midnightblue" points="1253.34,-65.1521 1243.27,-68.4162 1253.18,-72.1502 1253.34,-65.1521"/>
</g>
<!-- Node31 -->
<g id="node67" class="node"><title>Node31</title>
<a xlink:href="namespaceforcebalance_1_1nifty.html#a8d63c8ae9a67c66673a6cf81357f827d" target="_top" target="_top" xlink:title="Returns a big number if we encounter NaN.">
<polygon fill="white" stroke="black" points="1695,-76.5 1695,-95.5 1847,-95.5 1847,-76.5 1695,-76.5"/>
<text text-anchor="middle" x="1771" y="-83.5" font-family="Ubuntu-R" font-size="10.00">forcebalance.nifty.floatornan</text>
</a>
</g>
<!-- Node30&#45;&gt;Node31 -->
<g id="edge72" class="edge"><title>Node30&#45;&gt;Node31</title>
<path fill="none" stroke="midnightblue" d="M1632.75,-79.2053C1649.24,-80.0219 1667.23,-80.9122 1684.58,-81.7713"/>
<polygon fill="midnightblue" stroke="midnightblue" points="1684.55,-85.274 1694.71,-82.2728 1684.9,-78.2825 1684.55,-85.274"/>
</g>
<!-- Node32 -->
<g id="node69" class="node"><title>Node32</title>
<a xlink:href="namespaceforcebalance_1_1nifty.html#a6c9727360cdff8f3011a12cc54d0e86e" target="_top" target="_top" xlink:title="Given any list, array, or matrix, return a 1&#45;row matrix.">
<polygon fill="white" stroke="black" points="1940.5,-76.5 1940.5,-95.5 2059.5,-95.5 2059.5,-76.5 1940.5,-76.5"/>
<text text-anchor="middle" x="2000" y="-83.5" font-family="Ubuntu-R" font-size="10.00">forcebalance.nifty.row</text>
</a>
</g>
<!-- Node31&#45;&gt;Node32 -->
<g id="edge74" class="edge"><title>Node31&#45;&gt;Node32</title>
<path fill="none" stroke="midnightblue" d="M1847.27,-86C1874.05,-86 1904.03,-86 1930.24,-86"/>
<polygon fill="midnightblue" stroke="midnightblue" points="1930.45,-89.5001 1940.45,-86 1930.45,-82.5001 1930.45,-89.5001"/>
</g>
<!-- Node33 -->
<g id="node71" class="node"><title>Node33</title>
<a xlink:href="namespaceforcebalance_1_1nifty.html#a7676236002c6a65ea7d2e69a09923889" target="_top" target="_top" xlink:title="Given two vectors vec1 and vec2, project out the component of vec1 that is along the vec2&#45;direction...">
<polygon fill="white" stroke="black" points="2140,-76.5 2140,-95.5 2308,-95.5 2308,-76.5 2140,-76.5"/>
<text text-anchor="middle" x="2224" y="-83.5" font-family="Ubuntu-R" font-size="10.00">forcebalance.nifty.orthogonalize</text>
</a>
</g>
<!-- Node32&#45;&gt;Node33 -->
<g id="edge76" class="edge"><title>Node32&#45;&gt;Node33</title>
<path fill="none" stroke="midnightblue" d="M2059.62,-86C2081.09,-86 2105.95,-86 2129.7,-86"/>
<polygon fill="midnightblue" stroke="midnightblue" points="2129.8,-89.5001 2139.8,-86 2129.8,-82.5001 2129.8,-89.5001"/>
</g>
<!-- Node35 -->
<g id="node75" class="node"><title>Node35</title>
<a xlink:href="namespaceforcebalance_1_1nifty.html#a52114ceee9d55f94d9aecb3e176de294" target="_top" target="_top" xlink:title="Given any list, array, or matrix, return a single&#45;index array.">
<polygon fill="white" stroke="black" points="1712,-0.5 1712,-19.5 1830,-19.5 1830,-0.5 1712,-0.5"/>
<text text-anchor="middle" x="1771" y="-7.5" font-family="Ubuntu-R" font-size="10.00">forcebalance.nifty.flat</text>
</a>
</g>
<!-- Node34&#45;&gt;Node35 -->
<g id="edge80" class="edge"><title>Node34&#45;&gt;Node35</title>
<path fill="none" stroke="midnightblue" d="M1625.08,-23.6315C1648.86,-21.3939 1676.69,-18.7766 1701.57,-16.4368"/>
<polygon fill="midnightblue" stroke="midnightblue" points="1702.03,-19.9084 1711.66,-15.4872 1701.38,-12.9392 1702.03,-19.9084"/>
</g>
<!-- Node36 -->
<g id="node77" class="node"><title>Node36</title>
<a xlink:href="namespaceforcebalance_1_1nifty.html#a4c82187e92dfeb8a159f4aa44b501c40" target="_top" target="_top" xlink:title="Invert a matrix using singular value decomposition.">
<polygon fill="white" stroke="black" points="1924,-38.5 1924,-57.5 2076,-57.5 2076,-38.5 1924,-38.5"/>
<text text-anchor="middle" x="2000" y="-45.5" font-family="Ubuntu-R" font-size="10.00">forcebalance.nifty.invert_svd</text>
</a>
</g>
<!-- Node35&#45;&gt;Node36 -->
<g id="edge82" class="edge"><title>Node35&#45;&gt;Node36</title>
<path fill="none" stroke="midnightblue" d="M1828.99,-19.54C1860.29,-24.7799 1899.29,-31.3088 1932.04,-36.7909"/>
<polygon fill="midnightblue" stroke="midnightblue" points="1931.55,-40.257 1941.99,-38.4561 1932.7,-33.353 1931.55,-40.257"/>
</g>
<!-- Node36&#45;&gt;Node8 -->
<g id="edge90" class="edge"><title>Node36&#45;&gt;Node8</title>
<path fill="none" stroke="midnightblue" d="M2076.16,-48C2091.68,-48 2108.25,-48 2124.46,-48"/>
<polygon fill="midnightblue" stroke="midnightblue" points="2124.49,-51.5001 2134.49,-48 2124.49,-44.5001 2124.49,-51.5001"/>
</g>
<!-- Node36&#45;&gt;Node34 -->
<g id="edge88" class="edge"><title>Node36&#45;&gt;Node34</title>
<path fill="none" stroke="midnightblue" d="M1923.76,-44.6832C1842.34,-41.0941 1713.7,-35.4232 1635.46,-31.9738"/>
<polygon fill="midnightblue" stroke="midnightblue" points="1635.38,-28.467 1625.23,-31.5231 1635.07,-35.4602 1635.38,-28.467"/>
</g>
<!-- Node37 -->
<g id="node79" class="node"><title>Node37</title>
<a xlink:href="namespaceforcebalance_1_1nifty.html#aa9fb9c7c65231eca50a7afc04f489b64" target="_top" target="_top" xlink:title="forcebalance.nifty.get_least_squares">
<polygon fill="white" stroke="black" points="2128.5,-0.5 2128.5,-19.5 2319.5,-19.5 2319.5,-0.5 2128.5,-0.5"/>
<text text-anchor="middle" x="2224" y="-7.5" font-family="Ubuntu-R" font-size="10.00">forcebalance.nifty.get_least_squares</text>
</a>
</g>
<!-- Node36&#45;&gt;Node37 -->
<g id="edge84" class="edge"><title>Node36&#45;&gt;Node37</title>
<path fill="none" stroke="midnightblue" d="M2056.73,-38.46C2087.21,-33.2426 2125.16,-26.7475 2157.1,-21.28"/>
<polygon fill="midnightblue" stroke="midnightblue" points="2157.98,-24.681 2167.24,-19.5439 2156.8,-17.7813 2157.98,-24.681"/>
</g>
<!-- Node37&#45;&gt;Node35 -->
<g id="edge86" class="edge"><title>Node37&#45;&gt;Node35</title>
<path fill="none" stroke="midnightblue" d="M2128.23,-10C2041.99,-10 1916.78,-10 1840.07,-10"/>
<polygon fill="midnightblue" stroke="midnightblue" points="1840.04,-6.5001 1830.04,-10 1840.04,-13.5001 1840.04,-6.5001"/>
</g>
</g>
</svg>
