<?xml version="1.0" encoding="UTF-8" standalone="no"?>
<!DOCTYPE svg PUBLIC "-//W3C//DTD SVG 1.1//EN"
 "http://www.w3.org/Graphics/SVG/1.1/DTD/svg11.dtd">
<!-- Generated by graphviz version 2.28.0 (20111219.2309)
 -->
<!-- Title: G Pages: 1 -->
<svg width="1252pt" height="85pt"
 viewBox="0.00 0.00 1252.00 85.00" xmlns="http://www.w3.org/2000/svg" xmlns:xlink="http://www.w3.org/1999/xlink">
<g id="graph1" class="graph" transform="scale(1 1) rotate(0) translate(4 81)">
<title>G</title>
<polygon fill="white" stroke="white" points="-4,5 -4,-81 1249,-81 1249,5 -4,5"/>
<!-- Node1 -->
<g id="node1" class="node"><title>Node1</title>
<polygon fill="#bfbfbf" stroke="black" points="0.5,-19.5 0.5,-38.5 289.5,-38.5 289.5,-19.5 0.5,-19.5"/>
<text text-anchor="middle" x="145" y="-26.5" font-family="Ubuntu-R" font-size="10.00">forcebalance.gmxio.AbInitio_GMX.energy_force_driver_all</text>
</g>
<!-- Node2 -->
<g id="node3" class="node"><title>Node2</title>
<a xlink:href="classforcebalance_1_1gmxio_1_1AbInitio__GMX.html#ae17e3c379d82935d725dd31f01df23e5" target="_top" xlink:title="Call mdrun in order to update the virtual site positions.">
<polygon fill="white" stroke="black" points="326,-38.5 326,-57.5 624,-57.5 624,-38.5 326,-38.5"/>
<text text-anchor="middle" x="475" y="-45.5" font-family="Ubuntu-R" font-size="10.00">forcebalance.gmxio.AbInitio_GMX.generate_vsite_positions</text>
</a>
</g>
<!-- Node1&#45;&gt;Node2 -->
<g id="edge2" class="edge"><title>Node1&#45;&gt;Node2</title>
<path fill="none" stroke="midnightblue" d="M289.866,-37.3337C298.464,-37.8318 307.137,-38.3342 315.789,-38.8353"/>
<polygon fill="midnightblue" stroke="midnightblue" points="315.744,-42.3385 325.93,-39.4228 316.149,-35.3502 315.744,-42.3385"/>
</g>
<!-- Node6 -->
<g id="node11" class="node"><title>Node6</title>
<a xlink:href="namespaceforcebalance_1_1gmxio.html#acac8488f29b62fb0d4cb54bb5a041026" target="_top" xlink:title="forcebalance.gmxio.rm_gmx_baks">
<polygon fill="white" stroke="black" points="384.5,-0.5 384.5,-19.5 565.5,-19.5 565.5,-0.5 384.5,-0.5"/>
<text text-anchor="middle" x="475" y="-7.5" font-family="Ubuntu-R" font-size="10.00">forcebalance.gmxio.rm_gmx_baks</text>
</a>
</g>
<!-- Node1&#45;&gt;Node6 -->
<g id="edge10" class="edge"><title>Node1&#45;&gt;Node6</title>
<path fill="none" stroke="midnightblue" d="M289.866,-20.6663C318.255,-19.0218 347.461,-17.33 374.012,-15.792"/>
<polygon fill="midnightblue" stroke="midnightblue" points="374.27,-19.283 384.051,-15.2105 373.865,-12.2947 374.27,-19.283"/>
</g>
<!-- Node3 -->
<g id="node5" class="node"><title>Node3</title>
<a xlink:href="classforcebalance_1_1gmxio_1_1AbInitio__GMX.html#a1d03ae8104bcecacf96884058f2698af" target="_top" xlink:title="Initialization; define a few core concepts.">
<polygon fill="white" stroke="black" points="703,-57.5 703,-76.5 917,-76.5 917,-57.5 703,-57.5"/>
<text text-anchor="middle" x="810" y="-64.5" font-family="Ubuntu-R" font-size="10.00">forcebalance.gmxio.AbInitio_GMX.__init__</text>
</a>
</g>
<!-- Node2&#45;&gt;Node3 -->
<g id="edge4" class="edge"><title>Node2&#45;&gt;Node3</title>
<path fill="none" stroke="midnightblue" d="M624.483,-56.472C647.344,-57.7764 670.664,-59.107 692.691,-60.3637"/>
<polygon fill="midnightblue" stroke="midnightblue" points="692.531,-63.8602 702.714,-60.9356 692.93,-56.8716 692.531,-63.8602"/>
</g>
<!-- Node5 -->
<g id="node9" class="node"><title>Node5</title>
<a xlink:href="classforcebalance_1_1baseclass_1_1ForceBalanceBaseClass.html#abaaf4d99b043d41f02fabc41db59252b" target="_top" xlink:title="forcebalance.baseclass.ForceBalanceBaseClass.set_option">
<polygon fill="white" stroke="black" points="660.5,-19.5 660.5,-38.5 959.5,-38.5 959.5,-19.5 660.5,-19.5"/>
<text text-anchor="middle" x="810" y="-26.5" font-family="Ubuntu-R" font-size="10.00">forcebalance.baseclass.ForceBalanceBaseClass.set_option</text>
</a>
</g>
<!-- Node2&#45;&gt;Node5 -->
<g id="edge8" class="edge"><title>Node2&#45;&gt;Node5</title>
<path fill="none" stroke="midnightblue" d="M624.483,-39.528C633.022,-39.0408 641.625,-38.5499 650.201,-38.0606"/>
<polygon fill="midnightblue" stroke="midnightblue" points="650.466,-41.5513 660.25,-37.4872 650.067,-34.5627 650.466,-41.5513"/>
</g>
<!-- Node4 -->
<g id="node7" class="node"><title>Node4</title>
<a xlink:href="classforcebalance_1_1gmxio_1_1AbInitio__GMX.html#aba138ca4195a1737f2f00bd8c5f3ca07" target="_top" xlink:title="This function parses the GROMACS topology file (.top) which contains a listing of the molecules in th...">
<polygon fill="white" stroke="black" points="996.5,-57.5 996.5,-76.5 1243.5,-76.5 1243.5,-57.5 996.5,-57.5"/>
<text text-anchor="middle" x="1120" y="-64.5" font-family="Ubuntu-R" font-size="10.00">forcebalance.gmxio.AbInitio_GMX.read_topology</text>
</a>
</g>
<!-- Node3&#45;&gt;Node4 -->
<g id="edge6" class="edge"><title>Node3&#45;&gt;Node4</title>
<path fill="none" stroke="midnightblue" d="M917.427,-67C939.617,-67 963.268,-67 986.273,-67"/>
<polygon fill="midnightblue" stroke="midnightblue" points="986.437,-70.5001 996.437,-67 986.437,-63.5001 986.437,-70.5001"/>
</g>
</g>
</svg>
