<?xml version="1.0" encoding="UTF-8" standalone="no"?>
<!DOCTYPE svg PUBLIC "-//W3C//DTD SVG 1.1//EN"
 "http://www.w3.org/Graphics/SVG/1.1/DTD/svg11.dtd">
<!-- Generated by graphviz version 2.28.0 (20111219.2309)
 -->
<!-- Title: G Pages: 1 -->
<svg width="1614pt" height="142pt"
 viewBox="0.00 0.00 1614.00 142.00" xmlns="http://www.w3.org/2000/svg" xmlns:xlink="http://www.w3.org/1999/xlink">
<g id="graph1" class="graph" transform="scale(1 1) rotate(0) translate(4 138)">
<title>G</title>
<polygon fill="white" stroke="white" points="-4,5 -4,-138 1611,-138 1611,5 -4,5"/>
<!-- Node1 -->
<g id="node1" class="node"><title>Node1</title>
<polygon fill="#bfbfbf" stroke="black" points="0,-57.5 0,-76.5 284,-76.5 284,-57.5 0,-57.5"/>
<text text-anchor="middle" x="142" y="-64.5" font-family="Ubuntu-R" font-size="10.00">forcebalance.openmmio.Liquid_OpenMM.npt_simulation</text>
</g>
<!-- Node2 -->
<g id="node3" class="node"><title>Node2</title>
<a xlink:href="namespaceforcebalance_1_1nifty.html#a673f4a044169f5d8d822823989a836a7" target="_top" xlink:title="Submit a job to the Work Queue.">
<polygon fill="white" stroke="black" points="370,-76.5 370,-95.5 520,-95.5 520,-76.5 370,-76.5"/>
<text text-anchor="middle" x="445" y="-83.5" font-family="Ubuntu-R" font-size="10.00">forcebalance.nifty.queue_up</text>
</a>
</g>
<!-- Node1&#45;&gt;Node2 -->
<g id="edge2" class="edge"><title>Node1&#45;&gt;Node2</title>
<path fill="none" stroke="midnightblue" d="M284.246,-75.9159C310.058,-77.5452 336.235,-79.1976 359.724,-80.6802"/>
<polygon fill="midnightblue" stroke="midnightblue" points="359.764,-84.1897 369.965,-81.3267 360.205,-77.2036 359.764,-84.1897"/>
</g>
<!-- Node11 -->
<g id="node22" class="node"><title>Node11</title>
<a xlink:href="classforcebalance_1_1openmmio_1_1Liquid__OpenMM.html#a92379bd73128234b309fae789946035d" target="_top" xlink:title="Instantiation of the subclass.">
<polygon fill="white" stroke="black" points="320.5,-38.5 320.5,-57.5 569.5,-57.5 569.5,-38.5 320.5,-38.5"/>
<text text-anchor="middle" x="445" y="-45.5" font-family="Ubuntu-R" font-size="10.00">forcebalance.openmmio.Liquid_OpenMM.__init__</text>
</a>
</g>
<!-- Node1&#45;&gt;Node11 -->
<g id="edge22" class="edge"><title>Node1&#45;&gt;Node11</title>
<path fill="none" stroke="midnightblue" d="M284.246,-58.0841C292.919,-57.5367 301.633,-56.9866 310.272,-56.4413"/>
<polygon fill="midnightblue" stroke="midnightblue" points="310.614,-59.9268 320.373,-55.8037 310.172,-52.9407 310.614,-59.9268"/>
</g>
<!-- Node3 -->
<g id="node5" class="node"><title>Node3</title>
<a xlink:href="namespaceforcebalance_1_1nifty.html#a5d5abeb4a185fde64721d044831e18ee" target="_top" xlink:title="Submit a job to the Work Queue.">
<polygon fill="white" stroke="black" points="606,-95.5 606,-114.5 802,-114.5 802,-95.5 606,-95.5"/>
<text text-anchor="middle" x="704" y="-102.5" font-family="Ubuntu-R" font-size="10.00">forcebalance.nifty.queue_up_src_dest</text>
</a>
</g>
<!-- Node2&#45;&gt;Node3 -->
<g id="edge4" class="edge"><title>Node2&#45;&gt;Node3</title>
<path fill="none" stroke="midnightblue" d="M520.335,-91.4956C543.892,-93.2372 570.422,-95.1985 595.81,-97.0755"/>
<polygon fill="midnightblue" stroke="midnightblue" points="595.62,-100.571 605.851,-97.8178 596.136,-93.5899 595.62,-100.571"/>
</g>
<!-- Node4 -->
<g id="node7" class="node"><title>Node4</title>
<a xlink:href="namespaceforcebalance_1_1nifty.html#a374aac2ef003be02fab49b20ff0a82f0" target="_top" xlink:title="This function waits ten seconds to see if a task in the Work Queue has finished.">
<polygon fill="white" stroke="black" points="631,-57.5 631,-76.5 777,-76.5 777,-57.5 631,-57.5"/>
<text text-anchor="middle" x="704" y="-64.5" font-family="Ubuntu-R" font-size="10.00">forcebalance.nifty.wq_wait1</text>
</a>
</g>
<!-- Node2&#45;&gt;Node4 -->
<g id="edge6" class="edge"><title>Node2&#45;&gt;Node4</title>
<path fill="none" stroke="midnightblue" d="M520.335,-80.5044C551.637,-78.1903 588.187,-75.4881 620.334,-73.1115"/>
<polygon fill="midnightblue" stroke="midnightblue" points="620.889,-76.5801 630.604,-72.3522 620.373,-69.5991 620.889,-76.5801"/>
</g>
<!-- Node5 -->
<g id="node9" class="node"><title>Node5</title>
<a xlink:href="namespaceforcebalance_1_1nifty.html#a576de8c5b6f236280e07e73e39b2ab7c" target="_top" xlink:title="This function waits until the work queue is completely empty.">
<polygon fill="white" stroke="black" points="838,-114.5 838,-133.5 978,-133.5 978,-114.5 838,-114.5"/>
<text text-anchor="middle" x="908" y="-121.5" font-family="Ubuntu-R" font-size="10.00">forcebalance.nifty.wq_wait</text>
</a>
</g>
<!-- Node4&#45;&gt;Node5 -->
<g id="edge8" class="edge"><title>Node4&#45;&gt;Node5</title>
<path fill="none" stroke="midnightblue" d="M762.594,-76.533C775.657,-79.1776 789.391,-82.3449 802,-86 818.488,-90.7799 821.89,-94.068 838,-100 848.102,-103.72 859.09,-107.611 869.266,-111.151"/>
<polygon fill="midnightblue" stroke="midnightblue" points="868.123,-114.459 878.718,-114.421 870.412,-107.844 868.123,-114.459"/>
</g>
<!-- Node6 -->
<g id="node11" class="node"><title>Node6</title>
<a xlink:href="namespaceforcebalance_1_1nifty.html#ac9ab6c5543a2e3080061e0024850edf3" target="_top" xlink:title="forcebalance.nifty.allsplit">
<polygon fill="white" stroke="black" points="1014.5,-95.5 1014.5,-114.5 1147.5,-114.5 1147.5,-95.5 1014.5,-95.5"/>
<text text-anchor="middle" x="1081" y="-102.5" font-family="Ubuntu-R" font-size="10.00">forcebalance.nifty.allsplit</text>
</a>
</g>
<!-- Node4&#45;&gt;Node6 -->
<g id="edge18" class="edge"><title>Node4&#45;&gt;Node6</title>
<path fill="none" stroke="midnightblue" d="M777.304,-74.3268C842.49,-80.9323 938.005,-90.6111 1004.24,-97.3227"/>
<polygon fill="midnightblue" stroke="midnightblue" points="1003.9,-100.806 1014.2,-98.332 1004.6,-93.8416 1003.9,-100.806"/>
</g>
<!-- Node9 -->
<g id="node17" class="node"><title>Node9</title>
<a xlink:href="namespaceforcebalance_1_1nifty.html#ad432b88307e1178b0690c0d350b1af36" target="_top" xlink:title="forcebalance.nifty.GoInto">
<polygon fill="white" stroke="black" points="841,-38.5 841,-57.5 975,-57.5 975,-38.5 841,-38.5"/>
<text text-anchor="middle" x="908" y="-45.5" font-family="Ubuntu-R" font-size="10.00">forcebalance.nifty.GoInto</text>
</a>
</g>
<!-- Node4&#45;&gt;Node9 -->
<g id="edge16" class="edge"><title>Node4&#45;&gt;Node9</title>
<path fill="none" stroke="midnightblue" d="M777.071,-60.221C794.404,-58.5907 812.978,-56.8436 830.505,-55.1951"/>
<polygon fill="midnightblue" stroke="midnightblue" points="831.057,-58.6587 840.686,-54.2375 830.402,-51.6894 831.057,-58.6587"/>
</g>
<!-- Node10 -->
<g id="node20" class="node"><title>Node10</title>
<a xlink:href="namespaceforcebalance_1_1nifty.html#ab04e8690d099db2379dc860e0d040120" target="_top" xlink:title="forcebalance.nifty.Leave">
<polygon fill="white" stroke="black" points="842.5,-0.5 842.5,-19.5 973.5,-19.5 973.5,-0.5 842.5,-0.5"/>
<text text-anchor="middle" x="908" y="-7.5" font-family="Ubuntu-R" font-size="10.00">forcebalance.nifty.Leave</text>
</a>
</g>
<!-- Node4&#45;&gt;Node10 -->
<g id="edge20" class="edge"><title>Node4&#45;&gt;Node10</title>
<path fill="none" stroke="midnightblue" d="M738.043,-57.464C764.939,-49.7249 803.896,-38.5674 838,-29 845.91,-26.7811 854.336,-24.4409 862.485,-22.1902"/>
<polygon fill="midnightblue" stroke="midnightblue" points="863.523,-25.5347 872.234,-19.5034 861.663,-18.7863 863.523,-25.5347"/>
</g>
<!-- Node5&#45;&gt;Node6 -->
<g id="edge10" class="edge"><title>Node5&#45;&gt;Node6</title>
<path fill="none" stroke="midnightblue" d="M978.059,-116.327C986.654,-115.372 995.478,-114.391 1004.17,-113.426"/>
<polygon fill="midnightblue" stroke="midnightblue" points="1004.73,-116.885 1014.29,-112.302 1003.96,-109.927 1004.73,-116.885"/>
</g>
<!-- Node7 -->
<g id="node13" class="node"><title>Node7</title>
<a xlink:href="namespaceforcebalance_1_1nifty.html#ae87c7def5f8edf2ec30737bdb1d2636f" target="_top" xlink:title="forcebalance.nifty.MissingFileInspection">
<polygon fill="white" stroke="black" points="1184,-95.5 1184,-114.5 1386,-114.5 1386,-95.5 1184,-95.5"/>
<text text-anchor="middle" x="1285" y="-102.5" font-family="Ubuntu-R" font-size="10.00">forcebalance.nifty.MissingFileInspection</text>
</a>
</g>
<!-- Node6&#45;&gt;Node7 -->
<g id="edge12" class="edge"><title>Node6&#45;&gt;Node7</title>
<path fill="none" stroke="midnightblue" d="M1147.58,-105C1156.04,-105 1164.87,-105 1173.8,-105"/>
<polygon fill="midnightblue" stroke="midnightblue" points="1173.91,-108.5 1183.91,-105 1173.91,-101.5 1173.91,-108.5"/>
</g>
<!-- Node8 -->
<g id="node15" class="node"><title>Node8</title>
<a xlink:href="namespaceforcebalance_1_1nifty.html#a0cf4e58f90acf20e3d6224be2354082c" target="_top" xlink:title="forcebalance.nifty.link_dir_contents">
<polygon fill="white" stroke="black" points="1422.5,-95.5 1422.5,-114.5 1605.5,-114.5 1605.5,-95.5 1422.5,-95.5"/>
<text text-anchor="middle" x="1514" y="-102.5" font-family="Ubuntu-R" font-size="10.00">forcebalance.nifty.link_dir_contents</text>
</a>
</g>
<!-- Node7&#45;&gt;Node8 -->
<g id="edge14" class="edge"><title>Node7&#45;&gt;Node8</title>
<path fill="none" stroke="midnightblue" d="M1386.23,-105C1394.85,-105 1403.57,-105 1412.2,-105"/>
<polygon fill="midnightblue" stroke="midnightblue" points="1412.27,-108.5 1422.27,-105 1412.27,-101.5 1412.27,-108.5"/>
</g>
</g>
</svg>
