<?xml version="1.0" encoding="UTF-8" standalone="no"?>
<!DOCTYPE svg PUBLIC "-//W3C//DTD SVG 1.1//EN"
 "http://www.w3.org/Graphics/SVG/1.1/DTD/svg11.dtd">
<!-- Generated by graphviz version 2.28.0 (20111219.2309)
 -->
<!-- Title: G Pages: 1 -->
<svg width="586pt" height="104pt"
 viewBox="0.00 0.00 586.00 104.00" xmlns="http://www.w3.org/2000/svg" xmlns:xlink="http://www.w3.org/1999/xlink">
<g id="graph1" class="graph" transform="scale(1 1) rotate(0) translate(4 100)">
<title>G</title>
<polygon fill="white" stroke="white" points="-4,5 -4,-100 583,-100 583,5 -4,5"/>
<!-- Node1 -->
<g id="node1" class="node"><title>Node1</title>
<polygon fill="#bfbfbf" stroke="black" points="0.5,-38.5 0.5,-57.5 205.5,-57.5 205.5,-38.5 0.5,-38.5"/>
<text text-anchor="middle" x="103" y="-45.5" font-family="Ubuntu-R" font-size="10.00">forcebalance.interaction.Interaction.get</text>
</g>
<!-- Node2 -->
<g id="node3" class="node"><title>Node2</title>
<a xlink:href="classforcebalance_1_1gmxio_1_1Interaction__GMX.html#a5bac92638e1962f1ccbe189f4e20898b" target="_top" xlink:title="Computes the energy and force using GROMACS for a trajectory.">
<polygon fill="white" stroke="black" points="263.5,-76.5 263.5,-95.5 556.5,-95.5 556.5,-76.5 263.5,-76.5"/>
<text text-anchor="middle" x="410" y="-83.5" font-family="Ubuntu-R" font-size="10.00">forcebalance.gmxio.Interaction_GMX.interaction_driver_all</text>
</a>
</g>
<!-- Node1&#45;&gt;Node2 -->
<g id="edge2" class="edge"><title>Node1&#45;&gt;Node2</title>
<path fill="none" stroke="midnightblue" d="M170.99,-57.5461C193.537,-60.673 218.844,-64.0891 242,-67 264.572,-69.8375 288.884,-72.7089 311.784,-75.3304"/>
<polygon fill="midnightblue" stroke="midnightblue" points="311.515,-78.8223 321.846,-76.4768 312.307,-71.8673 311.515,-78.8223"/>
</g>
<!-- Node3 -->
<g id="node5" class="node"><title>Node3</title>
<a xlink:href="classforcebalance_1_1openmmio_1_1Interaction__OpenMM.html#a9813c1a24af88156703d05ebe57bf707" target="_top" xlink:title="forcebalance.openmmio.Interaction_OpenMM.interaction_driver_all">
<polygon fill="white" stroke="black" points="242,-38.5 242,-57.5 578,-57.5 578,-38.5 242,-38.5"/>
<text text-anchor="middle" x="410" y="-45.5" font-family="Ubuntu-R" font-size="10.00">forcebalance.openmmio.Interaction_OpenMM.interaction_driver_all</text>
</a>
</g>
<!-- Node1&#45;&gt;Node3 -->
<g id="edge4" class="edge"><title>Node1&#45;&gt;Node3</title>
<path fill="none" stroke="midnightblue" d="M205.561,-48C214.122,-48 222.926,-48 231.845,-48"/>
<polygon fill="midnightblue" stroke="midnightblue" points="231.958,-51.5001 241.958,-48 231.957,-44.5001 231.958,-51.5001"/>
</g>
<!-- Node4 -->
<g id="node7" class="node"><title>Node4</title>
<a xlink:href="classforcebalance_1_1tinkerio_1_1Interaction__TINKER.html#aa04011719babeea254134426db8c7633" target="_top" xlink:title="forcebalance.tinkerio.Interaction_TINKER.interaction_driver_all">
<polygon fill="white" stroke="black" points="254.5,-0.5 254.5,-19.5 565.5,-19.5 565.5,-0.5 254.5,-0.5"/>
<text text-anchor="middle" x="410" y="-7.5" font-family="Ubuntu-R" font-size="10.00">forcebalance.tinkerio.Interaction_TINKER.interaction_driver_all</text>
</a>
</g>
<!-- Node1&#45;&gt;Node4 -->
<g id="edge6" class="edge"><title>Node1&#45;&gt;Node4</title>
<path fill="none" stroke="midnightblue" d="M170.99,-38.4539C193.537,-35.327 218.844,-31.9109 242,-29 264.572,-26.1625 288.884,-23.2911 311.784,-20.6696"/>
<polygon fill="midnightblue" stroke="midnightblue" points="312.307,-24.1327 321.846,-19.5232 311.515,-17.1777 312.307,-24.1327"/>
</g>
</g>
</svg>
