<?xml version="1.0" encoding="UTF-8" standalone="no"?>
<!DOCTYPE svg PUBLIC "-//W3C//DTD SVG 1.1//EN"
 "http://www.w3.org/Graphics/SVG/1.1/DTD/svg11.dtd">
<!-- Generated by graphviz version 2.28.0 (20111219.2309)
 -->
<!-- Title: G Pages: 1 -->
<svg width="1848pt" height="256pt"
 viewBox="0.00 0.00 1848.00 256.00" xmlns="http://www.w3.org/2000/svg" xmlns:xlink="http://www.w3.org/1999/xlink">
<g id="graph1" class="graph" transform="scale(1 1) rotate(0) translate(4 252)">
<title>G</title>
<polygon fill="white" stroke="white" points="-4,5 -4,-252 1845,-252 1845,5 -4,5"/>
<!-- Node1 -->
<g id="node1" class="node"><title>Node1</title>
<polygon fill="#bfbfbf" stroke="black" points="0.5,-133.5 0.5,-152.5 197.5,-152.5 197.5,-133.5 0.5,-133.5"/>
<text text-anchor="middle" x="99" y="-140.5" font-family="Ubuntu-R" font-size="10.00">forcebalance.liquid.Liquid.submit_jobs</text>
</g>
<!-- Node2 -->
<g id="node3" class="node"><title>Node2</title>
<a xlink:href="namespaceforcebalance_1_1nifty.html#a2ff762a2f2d2b6bb1c7dd067bd1a1e88" target="_top" target="_top" xlink:title="Use this instead of pickle.dump for pickling anything that contains _ElementTree types.">
<polygon fill="white" stroke="black" points="304,-228.5 304,-247.5 448,-247.5 448,-228.5 304,-228.5"/>
<text text-anchor="middle" x="376" y="-235.5" font-family="Ubuntu-R" font-size="10.00">forcebalance.nifty.lp_dump</text>
</a>
</g>
<!-- Node1&#45;&gt;Node2 -->
<g id="edge2" class="edge"><title>Node1&#45;&gt;Node2</title>
<path fill="none" stroke="midnightblue" d="M112.888,-152.576C135.888,-169.129 186.097,-202.863 234,-219 252.923,-225.375 273.956,-229.618 293.879,-232.441"/>
<polygon fill="midnightblue" stroke="midnightblue" points="293.495,-235.92 303.866,-233.753 294.407,-228.98 293.495,-235.92"/>
</g>
<!-- Node4 -->
<g id="node7" class="node"><title>Node4</title>
<a xlink:href="namespaceforcebalance_1_1optimizer.html#ae1f6c649703a22b2f767a5f6bf53297b" target="_top" target="_top" xlink:title="forcebalance.optimizer.Counter">
<polygon fill="white" stroke="black" points="292.5,-152.5 292.5,-171.5 459.5,-171.5 459.5,-152.5 292.5,-152.5"/>
<text text-anchor="middle" x="376" y="-159.5" font-family="Ubuntu-R" font-size="10.00">forcebalance.optimizer.Counter</text>
</a>
</g>
<!-- Node1&#45;&gt;Node4 -->
<g id="edge6" class="edge"><title>Node1&#45;&gt;Node4</title>
<path fill="none" stroke="midnightblue" d="M197.729,-149.752C225.107,-151.644 254.788,-153.694 281.89,-155.567"/>
<polygon fill="midnightblue" stroke="midnightblue" points="281.924,-159.078 292.141,-156.275 282.406,-152.094 281.924,-159.078"/>
</g>
<!-- Node6 -->
<g id="node11" class="node"><title>Node6</title>
<a xlink:href="namespaceforcebalance_1_1nifty.html#abb8f59044961a12588e0653c2baa8b01" target="_top" target="_top" xlink:title="forcebalance.nifty.warn_press_key">
<polygon fill="white" stroke="black" points="286.5,-190.5 286.5,-209.5 465.5,-209.5 465.5,-190.5 286.5,-190.5"/>
<text text-anchor="middle" x="376" y="-197.5" font-family="Ubuntu-R" font-size="10.00">forcebalance.nifty.warn_press_key</text>
</a>
</g>
<!-- Node1&#45;&gt;Node6 -->
<g id="edge10" class="edge"><title>Node1&#45;&gt;Node6</title>
<path fill="none" stroke="midnightblue" d="M128.98,-152.512C155.922,-161.045 197.305,-173.365 234,-181 248.68,-184.054 264.325,-186.728 279.654,-189.031"/>
<polygon fill="midnightblue" stroke="midnightblue" points="279.267,-192.511 289.668,-190.491 280.277,-185.585 279.267,-192.511"/>
</g>
<!-- Node8 -->
<g id="node15" class="node"><title>Node8</title>
<a xlink:href="classforcebalance_1_1openmmio_1_1Liquid__OpenMM.html#ad6a30e41f4c0bc319d7ffbbb09cfcf5d" target="_top" target="_top" xlink:title="Submit a NPT simulation to the Work Queue.">
<polygon fill="white" stroke="black" points="234,-76.5 234,-95.5 518,-95.5 518,-76.5 234,-76.5"/>
<text text-anchor="middle" x="376" y="-83.5" font-family="Ubuntu-R" font-size="10.00">forcebalance.openmmio.Liquid_OpenMM.npt_simulation</text>
</a>
</g>
<!-- Node1&#45;&gt;Node8 -->
<g id="edge14" class="edge"><title>Node1&#45;&gt;Node8</title>
<path fill="none" stroke="midnightblue" d="M128.98,-133.488C155.922,-124.955 197.305,-112.635 234,-105 248.68,-101.946 264.325,-99.2716 279.654,-96.9691"/>
<polygon fill="midnightblue" stroke="midnightblue" points="280.277,-100.415 289.668,-95.5094 279.267,-93.4885 280.277,-100.415"/>
</g>
<!-- Node19 -->
<g id="node38" class="node"><title>Node19</title>
<a xlink:href="classforcebalance_1_1tinkerio_1_1Liquid__TINKER.html#a53a10ac99cdfbf026526ed625d4de809" target="_top" target="_top" xlink:title="Submit a NPT simulation to the Work Queue.">
<polygon fill="white" stroke="black" points="246.5,-114.5 246.5,-133.5 505.5,-133.5 505.5,-114.5 246.5,-114.5"/>
<text text-anchor="middle" x="376" y="-121.5" font-family="Ubuntu-R" font-size="10.00">forcebalance.tinkerio.Liquid_TINKER.npt_simulation</text>
</a>
</g>
<!-- Node1&#45;&gt;Node19 -->
<g id="edge38" class="edge"><title>Node1&#45;&gt;Node19</title>
<path fill="none" stroke="midnightblue" d="M197.729,-136.248C210.154,-135.389 223.054,-134.498 235.971,-133.606"/>
<polygon fill="midnightblue" stroke="midnightblue" points="236.59,-137.071 246.325,-132.89 236.108,-130.088 236.59,-137.071"/>
</g>
<!-- Node21 -->
<g id="node44" class="node"><title>Node21</title>
<a xlink:href="classforcebalance_1_1liquid_1_1Liquid.html#a802c4139e5c002fabdeab5de88093880" target="_top" target="_top" xlink:title="Fitting of liquid bulk properties.">
<polygon fill="white" stroke="black" points="298.5,-38.5 298.5,-57.5 453.5,-57.5 453.5,-38.5 298.5,-38.5"/>
<text text-anchor="middle" x="376" y="-45.5" font-family="Ubuntu-R" font-size="10.00">forcebalance.liquid.Liquid.get</text>
</a>
</g>
<!-- Node1&#45;&gt;Node21 -->
<g id="edge46" class="edge"><title>Node1&#45;&gt;Node21</title>
<path fill="none" stroke="midnightblue" d="M112.888,-133.424C135.888,-116.871 186.097,-83.1374 234,-67 251.183,-61.2115 270.105,-57.1804 288.356,-54.3749"/>
<polygon fill="midnightblue" stroke="midnightblue" points="289.006,-57.8176 298.411,-52.9389 288.016,-50.8879 289.006,-57.8176"/>
</g>
<!-- Node3 -->
<g id="node5" class="node"><title>Node3</title>
<a xlink:href="namespaceforcebalance_1_1nifty.html#ac37d4fe58ef70ed546ebfc45d12f7a5d" target="_top" target="_top" xlink:title="forcebalance.nifty.getWorkQueue">
<polygon fill="white" stroke="black" points="592.5,-228.5 592.5,-247.5 765.5,-247.5 765.5,-228.5 592.5,-228.5"/>
<text text-anchor="middle" x="679" y="-235.5" font-family="Ubuntu-R" font-size="10.00">forcebalance.nifty.getWorkQueue</text>
</a>
</g>
<!-- Node2&#45;&gt;Node3 -->
<g id="edge4" class="edge"><title>Node2&#45;&gt;Node3</title>
<path fill="none" stroke="midnightblue" d="M448.333,-238C488.412,-238 538.963,-238 582.428,-238"/>
<polygon fill="midnightblue" stroke="midnightblue" points="582.449,-241.5 592.449,-238 582.448,-234.5 582.449,-241.5"/>
</g>
<!-- Node5 -->
<g id="node9" class="node"><title>Node5</title>
<a xlink:href="namespaceforcebalance_1_1optimizer.html#ab43948ecf30c90d319e0c0b107fe484a" target="_top" target="_top" xlink:title="forcebalance.optimizer.GoodStep">
<polygon fill="white" stroke="black" points="591,-152.5 591,-171.5 767,-171.5 767,-152.5 591,-152.5"/>
<text text-anchor="middle" x="679" y="-159.5" font-family="Ubuntu-R" font-size="10.00">forcebalance.optimizer.GoodStep</text>
</a>
</g>
<!-- Node4&#45;&gt;Node5 -->
<g id="edge8" class="edge"><title>Node4&#45;&gt;Node5</title>
<path fill="none" stroke="midnightblue" d="M459.648,-162C497.032,-162 541.481,-162 580.487,-162"/>
<polygon fill="midnightblue" stroke="midnightblue" points="580.804,-165.5 590.804,-162 580.804,-158.5 580.804,-165.5"/>
</g>
<!-- Node7 -->
<g id="node13" class="node"><title>Node7</title>
<a xlink:href="namespaceforcebalance_1_1nifty.html#a2fc81730e7efa7d138dd86f733507bfc" target="_top" target="_top" xlink:title="Similar to the bultin function map().">
<polygon fill="white" stroke="black" points="588,-190.5 588,-209.5 770,-209.5 770,-190.5 588,-190.5"/>
<text text-anchor="middle" x="679" y="-197.5" font-family="Ubuntu-R" font-size="10.00">forcebalance.nifty.concurrent_map</text>
</a>
</g>
<!-- Node6&#45;&gt;Node7 -->
<g id="edge12" class="edge"><title>Node6&#45;&gt;Node7</title>
<path fill="none" stroke="midnightblue" d="M465.682,-200C500.871,-200 541.518,-200 577.769,-200"/>
<polygon fill="midnightblue" stroke="midnightblue" points="577.869,-203.5 587.869,-200 577.868,-196.5 577.869,-203.5"/>
</g>
<!-- Node9 -->
<g id="node17" class="node"><title>Node9</title>
<a xlink:href="namespaceforcebalance_1_1nifty.html#a673f4a044169f5d8d822823989a836a7" target="_top" target="_top" xlink:title="Submit a job to the Work Queue.">
<polygon fill="white" stroke="black" points="604,-76.5 604,-95.5 754,-95.5 754,-76.5 604,-76.5"/>
<text text-anchor="middle" x="679" y="-83.5" font-family="Ubuntu-R" font-size="10.00">forcebalance.nifty.queue_up</text>
</a>
</g>
<!-- Node8&#45;&gt;Node9 -->
<g id="edge16" class="edge"><title>Node8&#45;&gt;Node9</title>
<path fill="none" stroke="midnightblue" d="M518.246,-86C544.058,-86 570.235,-86 593.724,-86"/>
<polygon fill="midnightblue" stroke="midnightblue" points="593.965,-89.5001 603.965,-86 593.965,-82.5001 593.965,-89.5001"/>
</g>
<!-- Node18 -->
<g id="node36" class="node"><title>Node18</title>
<a xlink:href="classforcebalance_1_1openmmio_1_1Liquid__OpenMM.html#a92379bd73128234b309fae789946035d" target="_top" target="_top" xlink:title="Instantiation of the subclass.">
<polygon fill="white" stroke="black" points="554.5,-38.5 554.5,-57.5 803.5,-57.5 803.5,-38.5 554.5,-38.5"/>
<text text-anchor="middle" x="679" y="-45.5" font-family="Ubuntu-R" font-size="10.00">forcebalance.openmmio.Liquid_OpenMM.__init__</text>
</a>
</g>
<!-- Node8&#45;&gt;Node18 -->
<g id="edge36" class="edge"><title>Node8&#45;&gt;Node18</title>
<path fill="none" stroke="midnightblue" d="M452.566,-76.46C495.138,-71.0856 548.448,-64.3554 592.538,-58.7893"/>
<polygon fill="midnightblue" stroke="midnightblue" points="593.181,-62.236 602.664,-57.5109 592.304,-55.2911 593.181,-62.236"/>
</g>
<!-- Node10 -->
<g id="node19" class="node"><title>Node10</title>
<a xlink:href="namespaceforcebalance_1_1nifty.html#a5d5abeb4a185fde64721d044831e18ee" target="_top" target="_top" xlink:title="Submit a job to the Work Queue.">
<polygon fill="white" stroke="black" points="840,-95.5 840,-114.5 1036,-114.5 1036,-95.5 840,-95.5"/>
<text text-anchor="middle" x="938" y="-102.5" font-family="Ubuntu-R" font-size="10.00">forcebalance.nifty.queue_up_src_dest</text>
</a>
</g>
<!-- Node9&#45;&gt;Node10 -->
<g id="edge18" class="edge"><title>Node9&#45;&gt;Node10</title>
<path fill="none" stroke="midnightblue" d="M754.335,-91.4956C777.892,-93.2372 804.422,-95.1985 829.81,-97.0755"/>
<polygon fill="midnightblue" stroke="midnightblue" points="829.62,-100.571 839.851,-97.8178 830.136,-93.5899 829.62,-100.571"/>
</g>
<!-- Node11 -->
<g id="node21" class="node"><title>Node11</title>
<a xlink:href="namespaceforcebalance_1_1nifty.html#a374aac2ef003be02fab49b20ff0a82f0" target="_top" target="_top" xlink:title="This function waits ten seconds to see if a task in the Work Queue has finished.">
<polygon fill="white" stroke="black" points="865,-57.5 865,-76.5 1011,-76.5 1011,-57.5 865,-57.5"/>
<text text-anchor="middle" x="938" y="-64.5" font-family="Ubuntu-R" font-size="10.00">forcebalance.nifty.wq_wait1</text>
</a>
</g>
<!-- Node9&#45;&gt;Node11 -->
<g id="edge20" class="edge"><title>Node9&#45;&gt;Node11</title>
<path fill="none" stroke="midnightblue" d="M754.335,-80.5044C785.637,-78.1903 822.187,-75.4881 854.334,-73.1115"/>
<polygon fill="midnightblue" stroke="midnightblue" points="854.889,-76.5801 864.604,-72.3522 854.373,-69.5991 854.889,-76.5801"/>
</g>
<!-- Node12 -->
<g id="node23" class="node"><title>Node12</title>
<a xlink:href="namespaceforcebalance_1_1nifty.html#a576de8c5b6f236280e07e73e39b2ab7c" target="_top" target="_top" xlink:title="This function waits until the work queue is completely empty.">
<polygon fill="white" stroke="black" points="1072,-114.5 1072,-133.5 1212,-133.5 1212,-114.5 1072,-114.5"/>
<text text-anchor="middle" x="1142" y="-121.5" font-family="Ubuntu-R" font-size="10.00">forcebalance.nifty.wq_wait</text>
</a>
</g>
<!-- Node11&#45;&gt;Node12 -->
<g id="edge22" class="edge"><title>Node11&#45;&gt;Node12</title>
<path fill="none" stroke="midnightblue" d="M996.594,-76.533C1009.66,-79.1776 1023.39,-82.3449 1036,-86 1052.49,-90.7799 1055.89,-94.068 1072,-100 1082.1,-103.72 1093.09,-107.611 1103.27,-111.151"/>
<polygon fill="midnightblue" stroke="midnightblue" points="1102.12,-114.459 1112.72,-114.421 1104.41,-107.844 1102.12,-114.459"/>
</g>
<!-- Node13 -->
<g id="node25" class="node"><title>Node13</title>
<a xlink:href="namespaceforcebalance_1_1nifty.html#ac9ab6c5543a2e3080061e0024850edf3" target="_top" target="_top" xlink:title="forcebalance.nifty.allsplit">
<polygon fill="white" stroke="black" points="1248.5,-95.5 1248.5,-114.5 1381.5,-114.5 1381.5,-95.5 1248.5,-95.5"/>
<text text-anchor="middle" x="1315" y="-102.5" font-family="Ubuntu-R" font-size="10.00">forcebalance.nifty.allsplit</text>
</a>
</g>
<!-- Node11&#45;&gt;Node13 -->
<g id="edge32" class="edge"><title>Node11&#45;&gt;Node13</title>
<path fill="none" stroke="midnightblue" d="M1011.3,-74.3268C1076.49,-80.9323 1172,-90.6111 1238.24,-97.3227"/>
<polygon fill="midnightblue" stroke="midnightblue" points="1237.9,-100.806 1248.2,-98.332 1238.6,-93.8416 1237.9,-100.806"/>
</g>
<!-- Node16 -->
<g id="node31" class="node"><title>Node16</title>
<a xlink:href="namespaceforcebalance_1_1nifty.html#ad432b88307e1178b0690c0d350b1af36" target="_top" target="_top" xlink:title="forcebalance.nifty.GoInto">
<polygon fill="white" stroke="black" points="1075,-38.5 1075,-57.5 1209,-57.5 1209,-38.5 1075,-38.5"/>
<text text-anchor="middle" x="1142" y="-45.5" font-family="Ubuntu-R" font-size="10.00">forcebalance.nifty.GoInto</text>
</a>
</g>
<!-- Node11&#45;&gt;Node16 -->
<g id="edge30" class="edge"><title>Node11&#45;&gt;Node16</title>
<path fill="none" stroke="midnightblue" d="M1011.07,-60.221C1028.4,-58.5907 1046.98,-56.8436 1064.5,-55.1951"/>
<polygon fill="midnightblue" stroke="midnightblue" points="1065.06,-58.6587 1074.69,-54.2375 1064.4,-51.6894 1065.06,-58.6587"/>
</g>
<!-- Node17 -->
<g id="node34" class="node"><title>Node17</title>
<a xlink:href="namespaceforcebalance_1_1nifty.html#ab04e8690d099db2379dc860e0d040120" target="_top" target="_top" xlink:title="forcebalance.nifty.Leave">
<polygon fill="white" stroke="black" points="1076.5,-0.5 1076.5,-19.5 1207.5,-19.5 1207.5,-0.5 1076.5,-0.5"/>
<text text-anchor="middle" x="1142" y="-7.5" font-family="Ubuntu-R" font-size="10.00">forcebalance.nifty.Leave</text>
</a>
</g>
<!-- Node11&#45;&gt;Node17 -->
<g id="edge34" class="edge"><title>Node11&#45;&gt;Node17</title>
<path fill="none" stroke="midnightblue" d="M972.043,-57.464C998.939,-49.7249 1037.9,-38.5674 1072,-29 1079.91,-26.7811 1088.34,-24.4409 1096.49,-22.1902"/>
<polygon fill="midnightblue" stroke="midnightblue" points="1097.52,-25.5347 1106.23,-19.5034 1095.66,-18.7863 1097.52,-25.5347"/>
</g>
<!-- Node12&#45;&gt;Node13 -->
<g id="edge24" class="edge"><title>Node12&#45;&gt;Node13</title>
<path fill="none" stroke="midnightblue" d="M1212.06,-116.327C1220.65,-115.372 1229.48,-114.391 1238.17,-113.426"/>
<polygon fill="midnightblue" stroke="midnightblue" points="1238.73,-116.885 1248.29,-112.302 1237.96,-109.927 1238.73,-116.885"/>
</g>
<!-- Node14 -->
<g id="node27" class="node"><title>Node14</title>
<a xlink:href="namespaceforcebalance_1_1nifty.html#ae87c7def5f8edf2ec30737bdb1d2636f" target="_top" target="_top" xlink:title="forcebalance.nifty.MissingFileInspection">
<polygon fill="white" stroke="black" points="1418,-95.5 1418,-114.5 1620,-114.5 1620,-95.5 1418,-95.5"/>
<text text-anchor="middle" x="1519" y="-102.5" font-family="Ubuntu-R" font-size="10.00">forcebalance.nifty.MissingFileInspection</text>
</a>
</g>
<!-- Node13&#45;&gt;Node14 -->
<g id="edge26" class="edge"><title>Node13&#45;&gt;Node14</title>
<path fill="none" stroke="midnightblue" d="M1381.58,-105C1390.04,-105 1398.87,-105 1407.8,-105"/>
<polygon fill="midnightblue" stroke="midnightblue" points="1407.91,-108.5 1417.91,-105 1407.91,-101.5 1407.91,-108.5"/>
</g>
<!-- Node15 -->
<g id="node29" class="node"><title>Node15</title>
<a xlink:href="namespaceforcebalance_1_1nifty.html#a0cf4e58f90acf20e3d6224be2354082c" target="_top" target="_top" xlink:title="forcebalance.nifty.link_dir_contents">
<polygon fill="white" stroke="black" points="1656.5,-95.5 1656.5,-114.5 1839.5,-114.5 1839.5,-95.5 1656.5,-95.5"/>
<text text-anchor="middle" x="1748" y="-102.5" font-family="Ubuntu-R" font-size="10.00">forcebalance.nifty.link_dir_contents</text>
</a>
</g>
<!-- Node14&#45;&gt;Node15 -->
<g id="edge28" class="edge"><title>Node14&#45;&gt;Node15</title>
<path fill="none" stroke="midnightblue" d="M1620.23,-105C1628.85,-105 1637.57,-105 1646.2,-105"/>
<polygon fill="midnightblue" stroke="midnightblue" points="1646.27,-108.5 1656.27,-105 1646.27,-101.5 1646.27,-108.5"/>
</g>
<!-- Node19&#45;&gt;Node5 -->
<g id="edge40" class="edge"><title>Node19&#45;&gt;Node5</title>
<path fill="none" stroke="midnightblue" d="M452.566,-133.54C495.138,-138.914 548.448,-145.645 592.538,-151.211"/>
<polygon fill="midnightblue" stroke="midnightblue" points="592.304,-154.709 602.664,-152.489 593.181,-147.764 592.304,-154.709"/>
</g>
<!-- Node19&#45;&gt;Node9 -->
<g id="edge42" class="edge"><title>Node19&#45;&gt;Node9</title>
<path fill="none" stroke="midnightblue" d="M452.566,-114.46C495.541,-109.035 549.46,-102.228 593.79,-96.6311"/>
<polygon fill="midnightblue" stroke="midnightblue" points="594.482,-100.072 603.965,-95.3466 593.605,-93.1268 594.482,-100.072"/>
</g>
<!-- Node20 -->
<g id="node42" class="node"><title>Node20</title>
<a xlink:href="classforcebalance_1_1tinkerio_1_1Liquid__TINKER.html#a307529b9902b34a790a8b016e153c7d6" target="_top" target="_top" xlink:title="Instantiation of the subclass.">
<polygon fill="white" stroke="black" points="567,-114.5 567,-133.5 791,-133.5 791,-114.5 567,-114.5"/>
<text text-anchor="middle" x="679" y="-121.5" font-family="Ubuntu-R" font-size="10.00">forcebalance.tinkerio.Liquid_TINKER.__init__</text>
</a>
</g>
<!-- Node19&#45;&gt;Node20 -->
<g id="edge44" class="edge"><title>Node19&#45;&gt;Node20</title>
<path fill="none" stroke="midnightblue" d="M505.524,-124C522.462,-124 539.779,-124 556.592,-124"/>
<polygon fill="midnightblue" stroke="midnightblue" points="556.988,-127.5 566.988,-124 556.987,-120.5 556.988,-127.5"/>
</g>
</g>
</svg>
