<?xml version="1.0" encoding="UTF-8" standalone="no"?>
<!DOCTYPE svg PUBLIC "-//W3C//DTD SVG 1.1//EN"
 "http://www.w3.org/Graphics/SVG/1.1/DTD/svg11.dtd">
<!-- Generated by graphviz version 2.28.0 (20111219.2309)
 -->
<!-- Title: G Pages: 1 -->
<svg width="466pt" height="46pt"
 viewBox="0.00 0.00 466.00 46.00" xmlns="http://www.w3.org/2000/svg" xmlns:xlink="http://www.w3.org/1999/xlink">
<g id="graph1" class="graph" transform="scale(1 1) rotate(0) translate(4 42)">
<title>G</title>
<polygon fill="white" stroke="white" points="-4,5 -4,-42 463,-42 463,5 -4,5"/>
<!-- Node1 -->
<g id="node1" class="node"><title>Node1</title>
<polygon fill="#bfbfbf" stroke="black" points="0.5,-0.5 0.5,-19.5 207.5,-19.5 207.5,-0.5 0.5,-0.5"/>
<text text-anchor="middle" x="104" y="-7.5" font-family="Ubuntu-R" font-size="10.00">forcebalance.Mol2.mol2.set_num_subst</text>
</g>
<!-- Node2 -->
<g id="node3" class="node"><title>Node2</title>
<a xlink:href="classforcebalance_1_1Mol2_1_1mol2.html#aaab9bc1afebb05a355c53db2a35740be" target="_top" xlink:title="bond identifier (integer, starting from 1)">
<polygon fill="white" stroke="black" points="244.5,-0.5 244.5,-19.5 457.5,-19.5 457.5,-0.5 244.5,-0.5"/>
<text text-anchor="middle" x="351" y="-7.5" font-family="Ubuntu-R" font-size="10.00">forcebalance.Mol2.mol2.set_charge_type</text>
</a>
</g>
<!-- Node1&#45;&gt;Node2 -->
<g id="edge2" class="edge"><title>Node1&#45;&gt;Node2</title>
<path fill="none" stroke="midnightblue" d="M207.837,-10C216.496,-10 225.29,-10 234.039,-10"/>
<polygon fill="midnightblue" stroke="midnightblue" points="234.279,-13.5001 244.279,-10 234.279,-6.5001 234.279,-13.5001"/>
</g>
<!-- Node2&#45;&gt;Node2 -->
<g id="edge4" class="edge"><title>Node2&#45;&gt;Node2</title>
<path fill="none" stroke="midnightblue" d="M313.391,-19.6119C294.501,-28.4613 307.037,-38 351,-38 384.659,-38 399.896,-32.4086 396.712,-25.8161"/>
<polygon fill="midnightblue" stroke="midnightblue" points="398.677,-22.9121 388.609,-19.6119 394.421,-28.4701 398.677,-22.9121"/>
</g>
</g>
</svg>
