<?xml version="1.0" encoding="UTF-8" standalone="no"?>
<!DOCTYPE svg PUBLIC "-//W3C//DTD SVG 1.1//EN"
 "http://www.w3.org/Graphics/SVG/1.1/DTD/svg11.dtd">
<!-- Generated by graphviz version 2.28.0 (20111219.2309)
 -->
<!-- Title: G Pages: 1 -->
<svg width="664pt" height="66pt"
 viewBox="0.00 0.00 664.00 66.00" xmlns="http://www.w3.org/2000/svg" xmlns:xlink="http://www.w3.org/1999/xlink">
<g id="graph1" class="graph" transform="scale(1 1) rotate(0) translate(4 62)">
<title>G</title>
<polygon fill="white" stroke="white" points="-4,5 -4,-62 661,-62 661,5 -4,5"/>
<!-- Node1 -->
<g id="node1" class="node"><title>Node1</title>
<polygon fill="#bfbfbf" stroke="black" points="0.5,-19.5 0.5,-38.5 199.5,-38.5 199.5,-19.5 0.5,-19.5"/>
<text text-anchor="middle" x="100" y="-26.5" font-family="Ubuntu-R" font-size="10.00">forcebalance.forcefield.FF.mktransmat</text>
</g>
<!-- Node2 -->
<g id="node3" class="node"><title>Node2</title>
<a xlink:href="classforcebalance_1_1forcefield_1_1FF.html#ac0046446695a65cb2489fdb560ef5929" target="_top" xlink:title="Create the plist, which is like a reversed version of the parameter map.">
<polygon fill="white" stroke="black" points="240,-38.5 240,-57.5 420,-57.5 420,-38.5 240,-38.5"/>
<text text-anchor="middle" x="330" y="-45.5" font-family="Ubuntu-R" font-size="10.00">forcebalance.forcefield.FF.list_map</text>
</a>
</g>
<!-- Node1&#45;&gt;Node2 -->
<g id="edge2" class="edge"><title>Node1&#45;&gt;Node2</title>
<path fill="none" stroke="midnightblue" d="M199.678,-37.2232C209.593,-38.0494 219.665,-38.8888 229.588,-39.7156"/>
<polygon fill="midnightblue" stroke="midnightblue" points="229.605,-43.2291 239.861,-40.5717 230.186,-36.2533 229.605,-43.2291"/>
</g>
<!-- Node4 -->
<g id="node7" class="node"><title>Node4</title>
<a xlink:href="classforcebalance_1_1forcefield_1_1FF.html#a61082e99cb3a02e35c80bbea919eaafa" target="_top" xlink:title="Prints out the (physical or mathematical) parameter indices, IDs and values in a visually appealing w...">
<polygon fill="white" stroke="black" points="236,-0.5 236,-19.5 424,-19.5 424,-0.5 236,-0.5"/>
<text text-anchor="middle" x="330" y="-7.5" font-family="Ubuntu-R" font-size="10.00">forcebalance.forcefield.FF.print_map</text>
</a>
</g>
<!-- Node1&#45;&gt;Node4 -->
<g id="edge6" class="edge"><title>Node1&#45;&gt;Node4</title>
<path fill="none" stroke="midnightblue" d="M199.678,-20.7768C208.328,-20.056 217.098,-19.3251 225.784,-18.6013"/>
<polygon fill="midnightblue" stroke="midnightblue" points="226.255,-22.0743 235.93,-17.7559 225.674,-15.0985 226.255,-22.0743"/>
</g>
<!-- Node3 -->
<g id="node5" class="node"><title>Node3</title>
<a xlink:href="classforcebalance_1_1forcefield_1_1FF.html#a3af07734a2378364ed533e2853ee6b82" target="_top" xlink:title="Assign physical parameter values to the &#39;pvals0&#39; array.">
<polygon fill="white" stroke="black" points="464,-38.5 464,-57.5 652,-57.5 652,-38.5 464,-38.5"/>
<text text-anchor="middle" x="558" y="-45.5" font-family="Ubuntu-R" font-size="10.00">forcebalance.forcefield.FF.assign_p0</text>
</a>
</g>
<!-- Node2&#45;&gt;Node3 -->
<g id="edge4" class="edge"><title>Node2&#45;&gt;Node3</title>
<path fill="none" stroke="midnightblue" d="M420.321,-48C431.279,-48 442.548,-48 453.69,-48"/>
<polygon fill="midnightblue" stroke="midnightblue" points="453.874,-51.5001 463.874,-48 453.874,-44.5001 453.874,-51.5001"/>
</g>
<!-- Node5 -->
<g id="node9" class="node"><title>Node5</title>
<a xlink:href="classforcebalance_1_1forcefield_1_1FF.html#a2c9cda9adb5a6446fbccfa7b35f8dff5" target="_top" xlink:title="Record the locations of a parameter in a txt file; [[file name, line number, field number...">
<polygon fill="white" stroke="black" points="460.5,-0.5 460.5,-19.5 655.5,-19.5 655.5,-0.5 460.5,-0.5"/>
<text text-anchor="middle" x="558" y="-7.5" font-family="Ubuntu-R" font-size="10.00">forcebalance.forcefield.FF.assign_field</text>
</a>
</g>
<!-- Node4&#45;&gt;Node5 -->
<g id="edge8" class="edge"><title>Node4&#45;&gt;Node5</title>
<path fill="none" stroke="midnightblue" d="M424.228,-10C432.792,-10 441.513,-10 450.185,-10"/>
<polygon fill="midnightblue" stroke="midnightblue" points="450.331,-13.5001 460.331,-10 450.331,-6.5001 450.331,-13.5001"/>
</g>
</g>
</svg>
