<?xml version="1.0" encoding="UTF-8" standalone="no"?>
<!DOCTYPE svg PUBLIC "-//W3C//DTD SVG 1.1//EN"
 "http://www.w3.org/Graphics/SVG/1.1/DTD/svg11.dtd">
<!-- Generated by graphviz version 2.28.0 (20111219.2309)
 -->
<!-- Title: G Pages: 1 -->
<svg width="1324pt" height="104pt"
 viewBox="0.00 0.00 1324.00 104.00" xmlns="http://www.w3.org/2000/svg" xmlns:xlink="http://www.w3.org/1999/xlink">
<g id="graph1" class="graph" transform="scale(1 1) rotate(0) translate(4 100)">
<title>G</title>
<polygon fill="white" stroke="white" points="-4,5 -4,-100 1321,-100 1321,5 -4,5"/>
<!-- Node1 -->
<g id="node1" class="node"><title>Node1</title>
<polygon fill="#bfbfbf" stroke="black" points="0,-57.5 0,-76.5 122,-76.5 122,-57.5 0,-57.5"/>
<text text-anchor="middle" x="61" y="-64.5" font-family="Ubuntu-R" font-size="10.00">forcebalance.nifty.isint</text>
</g>
<!-- Node2 -->
<g id="node3" class="node"><title>Node2</title>
<a xlink:href="namespaceforcebalance_1_1nifty.html#a09263927eaec9deff283fbf1a820242f" target="_top" xlink:title="Matches things with a decimal only; see isint and isfloat.">
<polygon fill="white" stroke="black" points="158,-38.5 158,-57.5 306,-57.5 306,-38.5 158,-38.5"/>
<text text-anchor="middle" x="232" y="-45.5" font-family="Ubuntu-R" font-size="10.00">forcebalance.nifty.isdecimal</text>
</a>
</g>
<!-- Node1&#45;&gt;Node2 -->
<g id="edge2" class="edge"><title>Node1&#45;&gt;Node2</title>
<path fill="none" stroke="midnightblue" d="M122.059,-60.2478C130.378,-59.3125 139.043,-58.3383 147.692,-57.366"/>
<polygon fill="midnightblue" stroke="midnightblue" points="148.269,-60.8233 157.815,-56.2279 147.486,-53.8671 148.269,-60.8233"/>
</g>
<!-- Node3 -->
<g id="node5" class="node"><title>Node3</title>
<a xlink:href="namespaceforcebalance_1_1nifty.html#a8e3ef0108b9d37b82ba0dced7c6037ae" target="_top" xlink:title="Matches ANY number; it can be a decimal, scientific notation, what have you CAUTION &#45; this will also ...">
<polygon fill="white" stroke="black" points="342.5,-76.5 342.5,-95.5 473.5,-95.5 473.5,-76.5 342.5,-76.5"/>
<text text-anchor="middle" x="408" y="-83.5" font-family="Ubuntu-R" font-size="10.00">forcebalance.nifty.isfloat</text>
</a>
</g>
<!-- Node2&#45;&gt;Node3 -->
<g id="edge4" class="edge"><title>Node2&#45;&gt;Node3</title>
<path fill="none" stroke="midnightblue" d="M276.908,-57.589C300.179,-62.6713 328.954,-68.9554 353.519,-74.3203"/>
<polygon fill="midnightblue" stroke="midnightblue" points="352.892,-77.7657 363.408,-76.4799 354.385,-70.9268 352.892,-77.7657"/>
</g>
<!-- Node7 -->
<g id="node14" class="node"><title>Node7</title>
<a xlink:href="namespaceforcebalance_1_1nifty.html#afb3f205bce4984856e766af7e9fdaca8" target="_top" xlink:title="Given any list, array, or matrix, return a 1&#45;column matrix.">
<polygon fill="white" stroke="black" points="350,-38.5 350,-57.5 466,-57.5 466,-38.5 350,-38.5"/>
<text text-anchor="middle" x="408" y="-45.5" font-family="Ubuntu-R" font-size="10.00">forcebalance.nifty.col</text>
</a>
</g>
<!-- Node2&#45;&gt;Node7 -->
<g id="edge14" class="edge"><title>Node2&#45;&gt;Node7</title>
<path fill="none" stroke="midnightblue" d="M306.035,-48C317.1,-48 328.475,-48 339.418,-48"/>
<polygon fill="midnightblue" stroke="midnightblue" points="339.752,-51.5001 349.752,-48 339.752,-44.5001 339.752,-51.5001"/>
</g>
<!-- Node3&#45;&gt;Node1 -->
<g id="edge6" class="edge"><title>Node3&#45;&gt;Node1</title>
<path fill="none" stroke="midnightblue" d="M342.323,-82.4381C282.453,-79.1409 193.656,-74.2506 132.11,-70.8611"/>
<polygon fill="midnightblue" stroke="midnightblue" points="132.272,-67.3648 122.094,-70.3095 131.887,-74.3542 132.272,-67.3648"/>
</g>
<!-- Node4 -->
<g id="node8" class="node"><title>Node4</title>
<a xlink:href="namespaceforcebalance_1_1nifty.html#a8d63c8ae9a67c66673a6cf81357f827d" target="_top" xlink:title="Returns a big number if we encounter NaN.">
<polygon fill="white" stroke="black" points="510,-76.5 510,-95.5 662,-95.5 662,-76.5 510,-76.5"/>
<text text-anchor="middle" x="586" y="-83.5" font-family="Ubuntu-R" font-size="10.00">forcebalance.nifty.floatornan</text>
</a>
</g>
<!-- Node3&#45;&gt;Node4 -->
<g id="edge8" class="edge"><title>Node3&#45;&gt;Node4</title>
<path fill="none" stroke="midnightblue" d="M473.537,-86C481.998,-86 490.772,-86 499.513,-86"/>
<polygon fill="midnightblue" stroke="midnightblue" points="499.738,-89.5001 509.738,-86 499.738,-82.5001 499.738,-89.5001"/>
</g>
<!-- Node5 -->
<g id="node10" class="node"><title>Node5</title>
<a xlink:href="namespaceforcebalance_1_1nifty.html#a6c9727360cdff8f3011a12cc54d0e86e" target="_top" xlink:title="Given any list, array, or matrix, return a 1&#45;row matrix.">
<polygon fill="white" stroke="black" points="714.5,-76.5 714.5,-95.5 833.5,-95.5 833.5,-76.5 714.5,-76.5"/>
<text text-anchor="middle" x="774" y="-83.5" font-family="Ubuntu-R" font-size="10.00">forcebalance.nifty.row</text>
</a>
</g>
<!-- Node4&#45;&gt;Node5 -->
<g id="edge10" class="edge"><title>Node4&#45;&gt;Node5</title>
<path fill="none" stroke="midnightblue" d="M662.117,-86C676.017,-86 690.47,-86 704.171,-86"/>
<polygon fill="midnightblue" stroke="midnightblue" points="704.481,-89.5001 714.48,-86 704.48,-82.5001 704.481,-89.5001"/>
</g>
<!-- Node6 -->
<g id="node12" class="node"><title>Node6</title>
<a xlink:href="namespaceforcebalance_1_1nifty.html#a7676236002c6a65ea7d2e69a09923889" target="_top" xlink:title="Given two vectors vec1 and vec2, project out the component of vec1 that is along the vec2&#45;direction...">
<polygon fill="white" stroke="black" points="898,-76.5 898,-95.5 1066,-95.5 1066,-76.5 898,-76.5"/>
<text text-anchor="middle" x="982" y="-83.5" font-family="Ubuntu-R" font-size="10.00">forcebalance.nifty.orthogonalize</text>
</a>
</g>
<!-- Node5&#45;&gt;Node6 -->
<g id="edge12" class="edge"><title>Node5&#45;&gt;Node6</title>
<path fill="none" stroke="midnightblue" d="M833.756,-86C850.613,-86 869.422,-86 887.811,-86"/>
<polygon fill="midnightblue" stroke="midnightblue" points="887.968,-89.5001 897.968,-86 887.968,-82.5001 887.968,-89.5001"/>
</g>
<!-- Node8 -->
<g id="node16" class="node"><title>Node8</title>
<a xlink:href="namespaceforcebalance_1_1nifty.html#a52114ceee9d55f94d9aecb3e176de294" target="_top" xlink:title="Given any list, array, or matrix, return a single&#45;index array.">
<polygon fill="white" stroke="black" points="527,-0.5 527,-19.5 645,-19.5 645,-0.5 527,-0.5"/>
<text text-anchor="middle" x="586" y="-7.5" font-family="Ubuntu-R" font-size="10.00">forcebalance.nifty.flat</text>
</a>
</g>
<!-- Node7&#45;&gt;Node8 -->
<g id="edge16" class="edge"><title>Node7&#45;&gt;Node8</title>
<path fill="none" stroke="midnightblue" d="M453.412,-38.411C476.951,-33.3287 506.057,-27.0446 530.905,-21.6797"/>
<polygon fill="midnightblue" stroke="midnightblue" points="531.871,-25.0518 540.907,-19.5201 530.394,-18.2094 531.871,-25.0518"/>
</g>
<!-- Node9 -->
<g id="node18" class="node"><title>Node9</title>
<a xlink:href="namespaceforcebalance_1_1nifty.html#a4c82187e92dfeb8a159f4aa44b501c40" target="_top" xlink:title="Invert a matrix using singular value decomposition.">
<polygon fill="white" stroke="black" points="698,-38.5 698,-57.5 850,-57.5 850,-38.5 698,-38.5"/>
<text text-anchor="middle" x="774" y="-45.5" font-family="Ubuntu-R" font-size="10.00">forcebalance.nifty.invert_svd</text>
</a>
</g>
<!-- Node8&#45;&gt;Node9 -->
<g id="edge18" class="edge"><title>Node8&#45;&gt;Node9</title>
<path fill="none" stroke="midnightblue" d="M633.936,-19.589C659.033,-24.7165 690.119,-31.0672 716.53,-36.4632"/>
<polygon fill="midnightblue" stroke="midnightblue" points="715.904,-39.9074 726.402,-38.4799 717.305,-33.049 715.904,-39.9074"/>
</g>
<!-- Node9&#45;&gt;Node7 -->
<g id="edge26" class="edge"><title>Node9&#45;&gt;Node7</title>
<path fill="none" stroke="midnightblue" d="M697.751,-48C632.602,-48 539.225,-48 476.463,-48"/>
<polygon fill="midnightblue" stroke="midnightblue" points="476.275,-44.5001 466.275,-48 476.275,-51.5001 476.275,-44.5001"/>
</g>
<!-- Node10 -->
<g id="node20" class="node"><title>Node10</title>
<a xlink:href="namespaceforcebalance_1_1nifty.html#aa9fb9c7c65231eca50a7afc04f489b64" target="_top" xlink:title="forcebalance.nifty.get_least_squares">
<polygon fill="white" stroke="black" points="886.5,-0.5 886.5,-19.5 1077.5,-19.5 1077.5,-0.5 886.5,-0.5"/>
<text text-anchor="middle" x="982" y="-7.5" font-family="Ubuntu-R" font-size="10.00">forcebalance.nifty.get_least_squares</text>
</a>
</g>
<!-- Node9&#45;&gt;Node10 -->
<g id="edge20" class="edge"><title>Node9&#45;&gt;Node10</title>
<path fill="none" stroke="midnightblue" d="M826.717,-38.46C854.756,-33.2878 889.602,-26.8599 919.079,-21.4222"/>
<polygon fill="midnightblue" stroke="midnightblue" points="920.063,-24.7999 929.262,-19.5439 918.793,-17.9161 920.063,-24.7999"/>
</g>
<!-- Node12 -->
<g id="node26" class="node"><title>Node12</title>
<a xlink:href="namespaceforcebalance_1_1nifty.html#abb8f59044961a12588e0653c2baa8b01" target="_top" xlink:title="forcebalance.nifty.warn_press_key">
<polygon fill="white" stroke="black" points="892.5,-38.5 892.5,-57.5 1071.5,-57.5 1071.5,-38.5 892.5,-38.5"/>
<text text-anchor="middle" x="982" y="-45.5" font-family="Ubuntu-R" font-size="10.00">forcebalance.nifty.warn_press_key</text>
</a>
</g>
<!-- Node9&#45;&gt;Node12 -->
<g id="edge28" class="edge"><title>Node9&#45;&gt;Node12</title>
<path fill="none" stroke="midnightblue" d="M850.245,-48C860.61,-48 871.38,-48 882.091,-48"/>
<polygon fill="midnightblue" stroke="midnightblue" points="882.327,-51.5001 892.327,-48 882.327,-44.5001 882.327,-51.5001"/>
</g>
<!-- Node10&#45;&gt;Node8 -->
<g id="edge22" class="edge"><title>Node10&#45;&gt;Node8</title>
<path fill="none" stroke="midnightblue" d="M886.318,-10C815.16,-10 719.348,-10 655.494,-10"/>
<polygon fill="midnightblue" stroke="midnightblue" points="655.136,-6.5001 645.136,-10 655.136,-13.5001 655.136,-6.5001"/>
</g>
<!-- Node11 -->
<g id="node23" class="node"><title>Node11</title>
<a xlink:href="namespaceforcebalance_1_1nifty.html#ad5ca60565c864b4245a8212fe9d92e10" target="_top" xlink:title="Compute the (cross) statistical inefficiency of (two) timeseries.">
<polygon fill="white" stroke="black" points="1114.5,-0.5 1114.5,-19.5 1315.5,-19.5 1315.5,-0.5 1114.5,-0.5"/>
<text text-anchor="middle" x="1215" y="-7.5" font-family="Ubuntu-R" font-size="10.00">forcebalance.nifty.statisticalInefficiency</text>
</a>
</g>
<!-- Node10&#45;&gt;Node11 -->
<g id="edge24" class="edge"><title>Node10&#45;&gt;Node11</title>
<path fill="none" stroke="midnightblue" d="M1077.62,-10C1086.4,-10 1095.35,-10 1104.25,-10"/>
<polygon fill="midnightblue" stroke="midnightblue" points="1104.27,-13.5001 1114.27,-10 1104.27,-6.5001 1104.27,-13.5001"/>
</g>
</g>
</svg>
