<?xml version="1.0" encoding="UTF-8" standalone="no"?>
<!DOCTYPE svg PUBLIC "-//W3C//DTD SVG 1.1//EN"
 "http://www.w3.org/Graphics/SVG/1.1/DTD/svg11.dtd">
<!-- Generated by graphviz version 2.28.0 (20111219.2309)
 -->
<!-- Title: G Pages: 1 -->
<svg width="626pt" height="142pt"
 viewBox="0.00 0.00 626.00 142.00" xmlns="http://www.w3.org/2000/svg" xmlns:xlink="http://www.w3.org/1999/xlink">
<g id="graph1" class="graph" transform="scale(1 1) rotate(0) translate(4 138)">
<title>G</title>
<polygon fill="white" stroke="white" points="-4,5 -4,-138 623,-138 623,5 -4,5"/>
<!-- Node1 -->
<g id="node1" class="node"><title>Node1</title>
<polygon fill="#bfbfbf" stroke="black" points="0,-57.5 0,-76.5 152,-76.5 152,-57.5 0,-57.5"/>
<text text-anchor="middle" x="76" y="-64.5" font-family="Ubuntu-R" font-size="10.00">forcebalance.nifty.invert_svd</text>
</g>
<!-- Node2 -->
<g id="node3" class="node"><title>Node2</title>
<a xlink:href="namespaceforcebalance_1_1nifty.html#aa9fb9c7c65231eca50a7afc04f489b64" target="_top" xlink:title="forcebalance.nifty.get_least_squares">
<polygon fill="white" stroke="black" points="188.5,-0.5 188.5,-19.5 379.5,-19.5 379.5,-0.5 188.5,-0.5"/>
<text text-anchor="middle" x="284" y="-7.5" font-family="Ubuntu-R" font-size="10.00">forcebalance.nifty.get_least_squares</text>
</a>
</g>
<!-- Node1&#45;&gt;Node2 -->
<g id="edge2" class="edge"><title>Node1&#45;&gt;Node2</title>
<path fill="none" stroke="midnightblue" d="M101.835,-57.4393C124.14,-49.1079 157.912,-37.1206 188,-29 197.968,-26.3097 208.617,-23.8172 219.048,-21.5823"/>
<polygon fill="midnightblue" stroke="midnightblue" points="219.876,-24.9851 228.953,-19.5205 218.45,-18.132 219.876,-24.9851"/>
</g>
<!-- Node5 -->
<g id="node10" class="node"><title>Node5</title>
<a xlink:href="namespaceforcebalance_1_1nifty.html#afb3f205bce4984856e766af7e9fdaca8" target="_top" xlink:title="Given any list, array, or matrix, return a 1&#45;column matrix.">
<polygon fill="white" stroke="black" points="226,-114.5 226,-133.5 342,-133.5 342,-114.5 226,-114.5"/>
<text text-anchor="middle" x="284" y="-121.5" font-family="Ubuntu-R" font-size="10.00">forcebalance.nifty.col</text>
</a>
</g>
<!-- Node1&#45;&gt;Node5 -->
<g id="edge10" class="edge"><title>Node1&#45;&gt;Node5</title>
<path fill="none" stroke="midnightblue" d="M108.001,-76.592C130.207,-83.3709 160.86,-92.541 188,-100 202.793,-104.066 218.954,-108.246 233.683,-111.954"/>
<polygon fill="midnightblue" stroke="midnightblue" points="233.066,-115.408 243.616,-114.44 234.765,-108.617 233.066,-115.408"/>
</g>
<!-- Node6 -->
<g id="node13" class="node"><title>Node6</title>
<a xlink:href="namespaceforcebalance_1_1nifty.html#abb8f59044961a12588e0653c2baa8b01" target="_top" xlink:title="forcebalance.nifty.warn_press_key">
<polygon fill="white" stroke="black" points="194.5,-38.5 194.5,-57.5 373.5,-57.5 373.5,-38.5 194.5,-38.5"/>
<text text-anchor="middle" x="284" y="-45.5" font-family="Ubuntu-R" font-size="10.00">forcebalance.nifty.warn_press_key</text>
</a>
</g>
<!-- Node1&#45;&gt;Node6 -->
<g id="edge14" class="edge"><title>Node1&#45;&gt;Node6</title>
<path fill="none" stroke="midnightblue" d="M152.245,-60.0599C162.61,-59.1039 173.38,-58.1106 184.091,-57.1227"/>
<polygon fill="midnightblue" stroke="midnightblue" points="184.691,-60.5823 194.327,-56.1786 184.048,-53.6119 184.691,-60.5823"/>
</g>
<!-- Node3 -->
<g id="node5" class="node"><title>Node3</title>
<a xlink:href="namespaceforcebalance_1_1nifty.html#a52114ceee9d55f94d9aecb3e176de294" target="_top" xlink:title="Given any list, array, or matrix, return a single&#45;index array.">
<polygon fill="white" stroke="black" points="458,-76.5 458,-95.5 576,-95.5 576,-76.5 458,-76.5"/>
<text text-anchor="middle" x="517" y="-83.5" font-family="Ubuntu-R" font-size="10.00">forcebalance.nifty.flat</text>
</a>
</g>
<!-- Node2&#45;&gt;Node3 -->
<g id="edge4" class="edge"><title>Node2&#45;&gt;Node3</title>
<path fill="none" stroke="midnightblue" d="M342.227,-19.5243C354.79,-22.1465 367.938,-25.3066 380,-29 418.153,-40.6825 460.26,-59.2679 487.364,-72.0206"/>
<polygon fill="midnightblue" stroke="midnightblue" points="486.102,-75.296 496.636,-76.4314 489.109,-68.9749 486.102,-75.296"/>
</g>
<!-- Node4 -->
<g id="node8" class="node"><title>Node4</title>
<a xlink:href="namespaceforcebalance_1_1nifty.html#ad5ca60565c864b4245a8212fe9d92e10" target="_top" xlink:title="Compute the (cross) statistical inefficiency of (two) timeseries.">
<polygon fill="white" stroke="black" points="416.5,-0.5 416.5,-19.5 617.5,-19.5 617.5,-0.5 416.5,-0.5"/>
<text text-anchor="middle" x="517" y="-7.5" font-family="Ubuntu-R" font-size="10.00">forcebalance.nifty.statisticalInefficiency</text>
</a>
</g>
<!-- Node2&#45;&gt;Node4 -->
<g id="edge8" class="edge"><title>Node2&#45;&gt;Node4</title>
<path fill="none" stroke="midnightblue" d="M379.623,-10C388.404,-10 397.352,-10 406.254,-10"/>
<polygon fill="midnightblue" stroke="midnightblue" points="406.274,-13.5001 416.274,-10 406.274,-6.5001 406.274,-13.5001"/>
</g>
<!-- Node3&#45;&gt;Node1 -->
<g id="edge6" class="edge"><title>Node3&#45;&gt;Node1</title>
<path fill="none" stroke="midnightblue" d="M457.969,-83.4884C382.407,-80.2181 249.724,-74.4755 162.595,-70.7046"/>
<polygon fill="midnightblue" stroke="midnightblue" points="162.609,-67.202 152.467,-70.2662 162.306,-74.1954 162.609,-67.202"/>
</g>
<!-- Node5&#45;&gt;Node3 -->
<g id="edge12" class="edge"><title>Node5&#45;&gt;Node3</title>
<path fill="none" stroke="midnightblue" d="M342.101,-114.607C374.066,-109.348 414.129,-102.758 447.743,-97.2285"/>
<polygon fill="midnightblue" stroke="midnightblue" points="448.652,-100.626 457.951,-95.5491 447.516,-93.7188 448.652,-100.626"/>
</g>
</g>
</svg>
