<?xml version="1.0" encoding="UTF-8" standalone="no"?>
<!DOCTYPE svg PUBLIC "-//W3C//DTD SVG 1.1//EN"
 "http://www.w3.org/Graphics/SVG/1.1/DTD/svg11.dtd">
<!-- Generated by graphviz version 2.28.0 (20111219.2309)
 -->
<!-- Title: G Pages: 1 -->
<svg width="572pt" height="66pt"
 viewBox="0.00 0.00 572.00 66.00" xmlns="http://www.w3.org/2000/svg" xmlns:xlink="http://www.w3.org/1999/xlink">
<g id="graph1" class="graph" transform="scale(1 1) rotate(0) translate(4 62)">
<title>G</title>
<polygon fill="white" stroke="white" points="-4,5 -4,-62 569,-62 569,5 -4,5"/>
<!-- Node1 -->
<g id="node1" class="node"><title>Node1</title>
<polygon fill="#bfbfbf" stroke="black" points="0.5,-19.5 0.5,-38.5 129.5,-38.5 129.5,-19.5 0.5,-19.5"/>
<text text-anchor="middle" x="65" y="-26.5" font-family="Ubuntu-R" font-size="10.00">forcebalance.nifty.which</text>
</g>
<!-- Node2 -->
<g id="node3" class="node"><title>Node2</title>
<a xlink:href="namespaceforcebalance_1_1nifty.html#abb8f59044961a12588e0653c2baa8b01" target="_top" xlink:title="forcebalance.nifty.warn_press_key">
<polygon fill="white" stroke="black" points="166.5,-38.5 166.5,-57.5 345.5,-57.5 345.5,-38.5 166.5,-38.5"/>
<text text-anchor="middle" x="256" y="-45.5" font-family="Ubuntu-R" font-size="10.00">forcebalance.nifty.warn_press_key</text>
</a>
</g>
<!-- Node1&#45;&gt;Node2 -->
<g id="edge2" class="edge"><title>Node1&#45;&gt;Node2</title>
<path fill="none" stroke="midnightblue" d="M129.723,-35.406C138.288,-36.2671 147.232,-37.1661 156.227,-38.0704"/>
<polygon fill="midnightblue" stroke="midnightblue" points="156.087,-41.574 166.387,-39.0919 156.788,-34.6091 156.087,-41.574"/>
</g>
<!-- Node3 -->
<g id="node5" class="node"><title>Node3</title>
<a xlink:href="namespaceforcebalance_1_1nifty.html#a26e563ec71ed229c30f3d61d3448c8f1" target="_top" xlink:title="Prints a warning but will only do so once in a given run.">
<polygon fill="white" stroke="black" points="179,-0.5 179,-19.5 333,-19.5 333,-0.5 179,-0.5"/>
<text text-anchor="middle" x="256" y="-7.5" font-family="Ubuntu-R" font-size="10.00">forcebalance.nifty.warn_once</text>
</a>
</g>
<!-- Node1&#45;&gt;Node3 -->
<g id="edge4" class="edge"><title>Node1&#45;&gt;Node3</title>
<path fill="none" stroke="midnightblue" d="M129.723,-22.594C142.277,-21.332 155.644,-19.9882 168.794,-18.6662"/>
<polygon fill="midnightblue" stroke="midnightblue" points="169.192,-22.1439 178.792,-17.6611 168.492,-15.179 169.192,-22.1439"/>
</g>
<!-- Node4 -->
<g id="node7" class="node"><title>Node4</title>
<a xlink:href="namespaceforcebalance_1_1nifty.html#a2fc81730e7efa7d138dd86f733507bfc" target="_top" xlink:title="Similar to the bultin function map().">
<polygon fill="white" stroke="black" points="382,-0.5 382,-19.5 564,-19.5 564,-0.5 382,-0.5"/>
<text text-anchor="middle" x="473" y="-7.5" font-family="Ubuntu-R" font-size="10.00">forcebalance.nifty.concurrent_map</text>
</a>
</g>
<!-- Node3&#45;&gt;Node4 -->
<g id="edge6" class="edge"><title>Node3&#45;&gt;Node4</title>
<path fill="none" stroke="midnightblue" d="M333.104,-10C345.495,-10 358.496,-10 371.366,-10"/>
<polygon fill="midnightblue" stroke="midnightblue" points="371.645,-13.5001 381.644,-10 371.644,-6.5001 371.645,-13.5001"/>
</g>
</g>
</svg>
