<?xml version="1.0" encoding="UTF-8" standalone="no"?>
<!DOCTYPE svg PUBLIC "-//W3C//DTD SVG 1.1//EN"
 "http://www.w3.org/Graphics/SVG/1.1/DTD/svg11.dtd">
<!-- Generated by graphviz version 2.28.0 (20111219.2309)
 -->
<!-- Title: G Pages: 1 -->
<svg width="680pt" height="28pt"
 viewBox="0.00 0.00 680.00 28.00" xmlns="http://www.w3.org/2000/svg" xmlns:xlink="http://www.w3.org/1999/xlink">
<g id="graph1" class="graph" transform="scale(1 1) rotate(0) translate(4 24)">
<title>G</title>
<polygon fill="white" stroke="white" points="-4,5 -4,-24 677,-24 677,5 -4,5"/>
<!-- Node1 -->
<g id="node1" class="node"><title>Node1</title>
<polygon fill="#bfbfbf" stroke="black" points="0,-0.5 0,-19.5 204,-19.5 204,-0.5 0,-0.5"/>
<text text-anchor="middle" x="102" y="-7.5" font-family="Ubuntu-R" font-size="10.00">forcebalance.finite_difference.fdwrap_G</text>
</g>
<!-- Node2 -->
<g id="node3" class="node"><title>Node2</title>
<a xlink:href="namespaceforcebalance_1_1finite__difference.html#ae484c591ae8c4e5bae73a0ef2660c339" target="_top" xlink:title="A function wrapper for finite difference designed for differentiating &#39;get&#39;&#45;type functions.">
<polygon fill="white" stroke="black" points="240.5,-0.5 240.5,-19.5 431.5,-19.5 431.5,-0.5 240.5,-0.5"/>
<text text-anchor="middle" x="336" y="-7.5" font-family="Ubuntu-R" font-size="10.00">forcebalance.finite_difference.fdwrap</text>
</a>
</g>
<!-- Node1&#45;&gt;Node2 -->
<g id="edge2" class="edge"><title>Node1&#45;&gt;Node2</title>
<path fill="none" stroke="midnightblue" d="M204.084,-3.29985C212.772,-3.24149 221.575,-3.23437 230.291,-3.2785"/>
<polygon fill="midnightblue" stroke="midnightblue" points="230.446,-6.77965 240.472,-3.35385 230.498,0.220157 230.446,-6.77965"/>
</g>
<!-- Node2&#45;&gt;Node1 -->
<g id="edge4" class="edge"><title>Node2&#45;&gt;Node1</title>
<path fill="none" stroke="midnightblue" d="M240.472,-16.6461C231.853,-16.7304 223.071,-16.7634 214.324,-16.7451"/>
<polygon fill="midnightblue" stroke="midnightblue" points="214.099,-13.2442 204.084,-16.7001 214.068,-20.2441 214.099,-13.2442"/>
</g>
<!-- Node3 -->
<g id="node6" class="node"><title>Node3</title>
<a xlink:href="namespaceforcebalance_1_1finite__difference.html#a77a0bc1ae3cbbcc8d38a0ef9ca877d6d" target="_top" xlink:title="A driver to fdwrap for Hessians (see documentation for fdwrap) Inputs: tgt = The Target containing th...">
<polygon fill="white" stroke="black" points="468,-0.5 468,-19.5 672,-19.5 672,-0.5 468,-0.5"/>
<text text-anchor="middle" x="570" y="-7.5" font-family="Ubuntu-R" font-size="10.00">forcebalance.finite_difference.fdwrap_H</text>
</a>
</g>
<!-- Node2&#45;&gt;Node3 -->
<g id="edge6" class="edge"><title>Node2&#45;&gt;Node3</title>
<path fill="none" stroke="midnightblue" d="M431.698,-10C440.253,-10 448.968,-10 457.649,-10"/>
<polygon fill="midnightblue" stroke="midnightblue" points="457.812,-13.5001 467.812,-10 457.812,-6.5001 457.812,-13.5001"/>
</g>
</g>
</svg>
