<?xml version="1.0" encoding="UTF-8" standalone="no"?>
<!DOCTYPE svg PUBLIC "-//W3C//DTD SVG 1.1//EN"
 "http://www.w3.org/Graphics/SVG/1.1/DTD/svg11.dtd">
<!-- Generated by graphviz version 2.28.0 (20111219.2309)
 -->
<!-- Title: G Pages: 1 -->
<svg width="3966pt" height="28pt"
 viewBox="0.00 0.00 3966.00 28.00" xmlns="http://www.w3.org/2000/svg" xmlns:xlink="http://www.w3.org/1999/xlink">
<g id="graph1" class="graph" transform="scale(1 1) rotate(0) translate(4 24)">
<title>G</title>
<polygon fill="white" stroke="white" points="-4,5 -4,-24 3963,-24 3963,5 -4,5"/>
<!-- Node1 -->
<g id="node1" class="node"><title>Node1</title>
<polygon fill="#bfbfbf" stroke="black" points="0.5,-0.5 0.5,-19.5 185.5,-19.5 185.5,-0.5 0.5,-0.5"/>
<text text-anchor="middle" x="93" y="-7.5" font-family="Ubuntu-R" font-size="10.00">forcebalance.openmmio.get_dipole</text>
</g>
<!-- Node2 -->
<g id="node3" class="node"><title>Node2</title>
<a xlink:href="namespaceforcebalance_1_1openmmio.html#af623fa5af97de6c6a0bc5f98ce8db432" target="_top" xlink:title="Given a set of OpenMM&#45;compatible positions and a System object, compute the correct virtual site posi...">
<polygon fill="white" stroke="black" points="222.5,-0.5 222.5,-19.5 439.5,-19.5 439.5,-0.5 222.5,-0.5"/>
<text text-anchor="middle" x="331" y="-7.5" font-family="Ubuntu-R" font-size="10.00">forcebalance.openmmio.ResetVirtualSites</text>
</a>
</g>
<!-- Node1&#45;&gt;Node2 -->
<g id="edge2" class="edge"><title>Node1&#45;&gt;Node2</title>
<path fill="none" stroke="midnightblue" d="M185.582,-10C194.336,-10 203.296,-10 212.253,-10"/>
<polygon fill="midnightblue" stroke="midnightblue" points="212.355,-13.5001 222.355,-10 212.354,-6.5001 212.355,-13.5001"/>
</g>
<!-- Node3 -->
<g id="node5" class="node"><title>Node3</title>
<a xlink:href="namespaceforcebalance_1_1openmmio.html#a792a195b31612f2140b35927fe28fa1a" target="_top" xlink:title="forcebalance.openmmio.CopyAmoebaBondParameters">
<polygon fill="white" stroke="black" points="476.5,-0.5 476.5,-19.5 757.5,-19.5 757.5,-0.5 476.5,-0.5"/>
<text text-anchor="middle" x="617" y="-7.5" font-family="Ubuntu-R" font-size="10.00">forcebalance.openmmio.CopyAmoebaBondParameters</text>
</a>
</g>
<!-- Node2&#45;&gt;Node3 -->
<g id="edge4" class="edge"><title>Node2&#45;&gt;Node3</title>
<path fill="none" stroke="midnightblue" d="M439.773,-10C448.438,-10 457.283,-10 466.17,-10"/>
<polygon fill="midnightblue" stroke="midnightblue" points="466.213,-13.5001 476.213,-10 466.213,-6.5001 466.213,-13.5001"/>
</g>
<!-- Node4 -->
<g id="node7" class="node"><title>Node4</title>
<a xlink:href="namespaceforcebalance_1_1openmmio.html#a2e95f600757655d41660c25af8fd8e80" target="_top" xlink:title="forcebalance.openmmio.CopyAmoebaOutOfPlaneBendParameters">
<polygon fill="white" stroke="black" points="794.5,-0.5 794.5,-19.5 1129.5,-19.5 1129.5,-0.5 794.5,-0.5"/>
<text text-anchor="middle" x="962" y="-7.5" font-family="Ubuntu-R" font-size="10.00">forcebalance.openmmio.CopyAmoebaOutOfPlaneBendParameters</text>
</a>
</g>
<!-- Node3&#45;&gt;Node4 -->
<g id="edge6" class="edge"><title>Node3&#45;&gt;Node4</title>
<path fill="none" stroke="midnightblue" d="M757.511,-10C766.338,-10 775.282,-10 784.244,-10"/>
<polygon fill="midnightblue" stroke="midnightblue" points="784.367,-13.5001 794.367,-10 784.367,-6.5001 784.367,-13.5001"/>
</g>
<!-- Node5 -->
<g id="node9" class="node"><title>Node5</title>
<a xlink:href="namespaceforcebalance_1_1openmmio.html#abe9a6b9b200dc8487e56dad7249af3ec" target="_top" xlink:title="forcebalance.openmmio.CopyAmoebaAngleParameters">
<polygon fill="white" stroke="black" points="1166.5,-0.5 1166.5,-19.5 1449.5,-19.5 1449.5,-0.5 1166.5,-0.5"/>
<text text-anchor="middle" x="1308" y="-7.5" font-family="Ubuntu-R" font-size="10.00">forcebalance.openmmio.CopyAmoebaAngleParameters</text>
</a>
</g>
<!-- Node4&#45;&gt;Node5 -->
<g id="edge8" class="edge"><title>Node4&#45;&gt;Node5</title>
<path fill="none" stroke="midnightblue" d="M1129.71,-10C1138.52,-10 1147.34,-10 1156.09,-10"/>
<polygon fill="midnightblue" stroke="midnightblue" points="1156.32,-13.5001 1166.32,-10 1156.32,-6.5001 1156.32,-13.5001"/>
</g>
<!-- Node6 -->
<g id="node11" class="node"><title>Node6</title>
<a xlink:href="namespaceforcebalance_1_1openmmio.html#ad0d4739f80f2aab1a861f2e03b8efcd6" target="_top" xlink:title="forcebalance.openmmio.CopyAmoebaInPlaneAngleParameters">
<polygon fill="white" stroke="black" points="1486.5,-0.5 1486.5,-19.5 1803.5,-19.5 1803.5,-0.5 1486.5,-0.5"/>
<text text-anchor="middle" x="1645" y="-7.5" font-family="Ubuntu-R" font-size="10.00">forcebalance.openmmio.CopyAmoebaInPlaneAngleParameters</text>
</a>
</g>
<!-- Node5&#45;&gt;Node6 -->
<g id="edge10" class="edge"><title>Node5&#45;&gt;Node6</title>
<path fill="none" stroke="midnightblue" d="M1449.61,-10C1458.46,-10 1467.41,-10 1476.36,-10"/>
<polygon fill="midnightblue" stroke="midnightblue" points="1476.46,-13.5001 1486.46,-10 1476.46,-6.5001 1476.46,-13.5001"/>
</g>
<!-- Node7 -->
<g id="node13" class="node"><title>Node7</title>
<a xlink:href="namespaceforcebalance_1_1openmmio.html#abe005f73c6dfe9ce1052c9434bcad9be" target="_top" xlink:title="forcebalance.openmmio.CopyAmoebaVdwParameters">
<polygon fill="white" stroke="black" points="1840.5,-0.5 1840.5,-19.5 2115.5,-19.5 2115.5,-0.5 1840.5,-0.5"/>
<text text-anchor="middle" x="1978" y="-7.5" font-family="Ubuntu-R" font-size="10.00">forcebalance.openmmio.CopyAmoebaVdwParameters</text>
</a>
</g>
<!-- Node6&#45;&gt;Node7 -->
<g id="edge12" class="edge"><title>Node6&#45;&gt;Node7</title>
<path fill="none" stroke="midnightblue" d="M1803.74,-10C1812.48,-10 1821.25,-10 1829.94,-10"/>
<polygon fill="midnightblue" stroke="midnightblue" points="1830.11,-13.5001 1840.11,-10 1830.11,-6.5001 1830.11,-13.5001"/>
</g>
<!-- Node8 -->
<g id="node15" class="node"><title>Node8</title>
<a xlink:href="namespaceforcebalance_1_1openmmio.html#a3706c19e71969cabe5782a4535abeffe" target="_top" xlink:title="forcebalance.openmmio.CopyAmoebaMultipoleParameters">
<polygon fill="white" stroke="black" points="2152.5,-0.5 2152.5,-19.5 2451.5,-19.5 2451.5,-0.5 2152.5,-0.5"/>
<text text-anchor="middle" x="2302" y="-7.5" font-family="Ubuntu-R" font-size="10.00">forcebalance.openmmio.CopyAmoebaMultipoleParameters</text>
</a>
</g>
<!-- Node7&#45;&gt;Node8 -->
<g id="edge14" class="edge"><title>Node7&#45;&gt;Node8</title>
<path fill="none" stroke="midnightblue" d="M2115.56,-10C2124.4,-10 2133.34,-10 2142.28,-10"/>
<polygon fill="midnightblue" stroke="midnightblue" points="2142.35,-13.5001 2152.35,-10 2142.35,-6.5001 2142.35,-13.5001"/>
</g>
<!-- Node9 -->
<g id="node17" class="node"><title>Node9</title>
<a xlink:href="namespaceforcebalance_1_1openmmio.html#a616f12cc53381716e5fa41f00bf623be" target="_top" xlink:title="forcebalance.openmmio.CopyHarmonicBondParameters">
<polygon fill="white" stroke="black" points="2488.5,-0.5 2488.5,-19.5 2775.5,-19.5 2775.5,-0.5 2488.5,-0.5"/>
<text text-anchor="middle" x="2632" y="-7.5" font-family="Ubuntu-R" font-size="10.00">forcebalance.openmmio.CopyHarmonicBondParameters</text>
</a>
</g>
<!-- Node8&#45;&gt;Node9 -->
<g id="edge16" class="edge"><title>Node8&#45;&gt;Node9</title>
<path fill="none" stroke="midnightblue" d="M2451.65,-10C2460.51,-10 2469.44,-10 2478.32,-10"/>
<polygon fill="midnightblue" stroke="midnightblue" points="2478.33,-13.5001 2488.33,-10 2478.33,-6.5001 2478.33,-13.5001"/>
</g>
<!-- Node10 -->
<g id="node19" class="node"><title>Node10</title>
<a xlink:href="namespaceforcebalance_1_1openmmio.html#af4ed16f5e2b1cd12bce2f25fab1b05bc" target="_top" xlink:title="forcebalance.openmmio.CopyHarmonicAngleParameters">
<polygon fill="white" stroke="black" points="2812.5,-0.5 2812.5,-19.5 3101.5,-19.5 3101.5,-0.5 2812.5,-0.5"/>
<text text-anchor="middle" x="2957" y="-7.5" font-family="Ubuntu-R" font-size="10.00">forcebalance.openmmio.CopyHarmonicAngleParameters</text>
</a>
</g>
<!-- Node9&#45;&gt;Node10 -->
<g id="edge18" class="edge"><title>Node9&#45;&gt;Node10</title>
<path fill="none" stroke="midnightblue" d="M2775.61,-10C2784.45,-10 2793.37,-10 2802.26,-10"/>
<polygon fill="midnightblue" stroke="midnightblue" points="2802.27,-13.5001 2812.27,-10 2802.27,-6.5001 2802.27,-13.5001"/>
</g>
<!-- Node11 -->
<g id="node21" class="node"><title>Node11</title>
<a xlink:href="namespaceforcebalance_1_1openmmio.html#a8f13702754f0b4e43e272139a2ce8341" target="_top" xlink:title="forcebalance.openmmio.CopyPeriodicTorsionParameters">
<polygon fill="white" stroke="black" points="3138,-0.5 3138,-19.5 3424,-19.5 3424,-0.5 3138,-0.5"/>
<text text-anchor="middle" x="3281" y="-7.5" font-family="Ubuntu-R" font-size="10.00">forcebalance.openmmio.CopyPeriodicTorsionParameters</text>
</a>
</g>
<!-- Node10&#45;&gt;Node11 -->
<g id="edge20" class="edge"><title>Node10&#45;&gt;Node11</title>
<path fill="none" stroke="midnightblue" d="M3101.58,-10C3110.26,-10 3119,-10 3127.72,-10"/>
<polygon fill="midnightblue" stroke="midnightblue" points="3127.92,-13.5001 3137.92,-10 3127.92,-6.5001 3127.92,-13.5001"/>
</g>
<!-- Node12 -->
<g id="node23" class="node"><title>Node12</title>
<a xlink:href="namespaceforcebalance_1_1openmmio.html#afead47464a644d9225f9fa8eb568a8ed" target="_top" xlink:title="forcebalance.openmmio.CopyNonbondedParameters">
<polygon fill="white" stroke="black" points="3460.5,-0.5 3460.5,-19.5 3731.5,-19.5 3731.5,-0.5 3460.5,-0.5"/>
<text text-anchor="middle" x="3596" y="-7.5" font-family="Ubuntu-R" font-size="10.00">forcebalance.openmmio.CopyNonbondedParameters</text>
</a>
</g>
<!-- Node11&#45;&gt;Node12 -->
<g id="edge22" class="edge"><title>Node11&#45;&gt;Node12</title>
<path fill="none" stroke="midnightblue" d="M3424.3,-10C3432.89,-10 3441.54,-10 3450.14,-10"/>
<polygon fill="midnightblue" stroke="midnightblue" points="3450.21,-13.5001 3460.21,-10 3450.21,-6.5001 3450.21,-13.5001"/>
</g>
<!-- Node13 -->
<g id="node25" class="node"><title>Node13</title>
<a xlink:href="namespaceforcebalance_1_1openmmio.html#a2bb7add6b813d94f2655372c51fe8fdc" target="_top" xlink:title="forcebalance.openmmio.do_nothing">
<polygon fill="white" stroke="black" points="3768.5,-0.5 3768.5,-19.5 3957.5,-19.5 3957.5,-0.5 3768.5,-0.5"/>
<text text-anchor="middle" x="3863" y="-7.5" font-family="Ubuntu-R" font-size="10.00">forcebalance.openmmio.do_nothing</text>
</a>
</g>
<!-- Node12&#45;&gt;Node13 -->
<g id="edge24" class="edge"><title>Node12&#45;&gt;Node13</title>
<path fill="none" stroke="midnightblue" d="M3731.83,-10C3740.65,-10 3749.46,-10 3758.1,-10"/>
<polygon fill="midnightblue" stroke="midnightblue" points="3758.15,-13.5001 3768.15,-10 3758.15,-6.5001 3758.15,-13.5001"/>
</g>
</g>
</svg>
