<?xml version="1.0" encoding="UTF-8" standalone="no"?>
<!DOCTYPE svg PUBLIC "-//W3C//DTD SVG 1.1//EN"
 "http://www.w3.org/Graphics/SVG/1.1/DTD/svg11.dtd">
<!-- Generated by graphviz version 2.28.0 (20111219.2309)
 -->
<!-- Title: G Pages: 1 -->
<svg width="404pt" height="66pt"
 viewBox="0.00 0.00 404.00 66.00" xmlns="http://www.w3.org/2000/svg" xmlns:xlink="http://www.w3.org/1999/xlink">
<g id="graph1" class="graph" transform="scale(1 1) rotate(0) translate(4 62)">
<title>G</title>
<polygon fill="white" stroke="white" points="-4,5 -4,-62 401,-62 401,5 -4,5"/>
<!-- Node1 -->
<g id="node1" class="node"><title>Node1</title>
<polygon fill="#bfbfbf" stroke="black" points="0,-19.5 0,-38.5 164,-38.5 164,-19.5 0,-19.5"/>
<text text-anchor="middle" x="82" y="-26.5" font-family="Ubuntu-R" font-size="10.00">forcebalance.forcefield.FF.addff</text>
</g>
<!-- Node2 -->
<g id="node3" class="node"><title>Node2</title>
<a xlink:href="classforcebalance_1_1forcefield_1_1FF.html#a3af07734a2378364ed533e2853ee6b82" target="_top" xlink:title="Assign physical parameter values to the &#39;pvals0&#39; array.">
<polygon fill="white" stroke="black" points="204,-38.5 204,-57.5 392,-57.5 392,-38.5 204,-38.5"/>
<text text-anchor="middle" x="298" y="-45.5" font-family="Ubuntu-R" font-size="10.00">forcebalance.forcefield.FF.assign_p0</text>
</a>
</g>
<!-- Node1&#45;&gt;Node2 -->
<g id="edge2" class="edge"><title>Node1&#45;&gt;Node2</title>
<path fill="none" stroke="midnightblue" d="M164.209,-36.2102C173.775,-37.0594 183.633,-37.9347 193.452,-38.8065"/>
<polygon fill="midnightblue" stroke="midnightblue" points="193.386,-42.3143 203.656,-39.7125 194.005,-35.3417 193.386,-42.3143"/>
</g>
<!-- Node3 -->
<g id="node5" class="node"><title>Node3</title>
<a xlink:href="classforcebalance_1_1forcefield_1_1FF.html#a2c9cda9adb5a6446fbccfa7b35f8dff5" target="_top" xlink:title="Record the locations of a parameter in a file; [[file name, line number, field number, and multiplier]].">
<polygon fill="white" stroke="black" points="200.5,-0.5 200.5,-19.5 395.5,-19.5 395.5,-0.5 200.5,-0.5"/>
<text text-anchor="middle" x="298" y="-7.5" font-family="Ubuntu-R" font-size="10.00">forcebalance.forcefield.FF.assign_field</text>
</a>
</g>
<!-- Node1&#45;&gt;Node3 -->
<g id="edge4" class="edge"><title>Node1&#45;&gt;Node3</title>
<path fill="none" stroke="midnightblue" d="M164.209,-21.7898C172.708,-21.0353 181.437,-20.2602 190.165,-19.4853"/>
<polygon fill="midnightblue" stroke="midnightblue" points="190.745,-22.9477 200.396,-18.577 190.126,-15.9751 190.745,-22.9477"/>
</g>
</g>
</svg>
