<?xml version="1.0" encoding="UTF-8" standalone="no"?>
<!DOCTYPE svg PUBLIC "-//W3C//DTD SVG 1.1//EN"
 "http://www.w3.org/Graphics/SVG/1.1/DTD/svg11.dtd">
<!-- Generated by graphviz version 2.28.0 (20111219.2309)
 -->
<!-- Title: forcebalance.vibration.Vibration.__init__ Pages: 1 -->
<svg width="592pt" height="234pt"
 viewBox="0.00 0.00 592.00 234.00" xmlns="http://www.w3.org/2000/svg" xmlns:xlink="http://www.w3.org/1999/xlink">
<g id="graph1" class="graph" transform="scale(1 1) rotate(0) translate(4 230)">
<title>forcebalance.vibration.Vibration.__init__</title>
<polygon fill="white" stroke="white" points="-4,5 -4,-230 589,-230 589,5 -4,5"/>
<!-- Node1 -->
<g id="node1" class="node"><title>Node1</title>
<polygon fill="#bfbfbf" stroke="black" points="0.5,-98 0.5,-128 171.5,-128 171.5,-98 0.5,-98"/>
<text text-anchor="start" x="8.5" y="-116" font-family="Ubuntu-R" font-size="10.00">forcebalance.vibration.Vibration.</text>
<text text-anchor="middle" x="86" y="-105" font-family="Ubuntu-R" font-size="10.00">__init__</text>
</g>
<!-- Node2 -->
<g id="node3" class="node"><title>Node2</title>
<a xlink:href="classforcebalance_1_1BaseClass.html#a73e9a37a7632e79eb99f49bd15aced45" target="_top" xlink:title="forcebalance.BaseClass.set\l_option">
<polygon fill="white" stroke="black" points="233.5,-196 233.5,-226 382.5,-226 382.5,-196 233.5,-196"/>
<text text-anchor="start" x="241.5" y="-214" font-family="Ubuntu-R" font-size="10.00">forcebalance.BaseClass.set</text>
<text text-anchor="middle" x="308" y="-203" font-family="Ubuntu-R" font-size="10.00">_option</text>
</a>
</g>
<!-- Node1&#45;&gt;Node2 -->
<g id="edge2" class="edge"><title>Node1&#45;&gt;Node2</title>
<path fill="none" stroke="midnightblue" d="M107.835,-128.208C131.172,-144.597 170.638,-170.419 208,-186 214.101,-188.544 220.525,-190.878 227.049,-193.008"/>
<polygon fill="midnightblue" stroke="midnightblue" points="226.064,-196.367 236.652,-195.984 228.136,-189.681 226.064,-196.367"/>
</g>
<!-- Node3 -->
<g id="node5" class="node"><title>Node3</title>
<a xlink:href="classforcebalance_1_1abinitio_1_1AbInitio.html#aa73bedbf1e2cf19f2fa1e88815f1bd86" target="_top" xlink:title="Read the reference ab initio data from a file such as qdata.txt. ">
<polygon fill="white" stroke="black" points="237,-147 237,-177 379,-177 379,-147 237,-147"/>
<text text-anchor="start" x="245" y="-165" font-family="Ubuntu-R" font-size="10.00">forcebalance.abinitio.Ab</text>
<text text-anchor="middle" x="308" y="-154" font-family="Ubuntu-R" font-size="10.00">Initio.read_reference_data</text>
</a>
</g>
<!-- Node1&#45;&gt;Node3 -->
<g id="edge4" class="edge"><title>Node1&#45;&gt;Node3</title>
<path fill="none" stroke="midnightblue" d="M154.502,-128.035C178.259,-133.326 205.141,-139.313 229.646,-144.771"/>
<polygon fill="midnightblue" stroke="midnightblue" points="229.104,-148.236 239.625,-146.994 230.625,-141.403 229.104,-148.236"/>
</g>
<!-- Node4 -->
<g id="node7" class="node"><title>Node4</title>
<a xlink:href="classforcebalance_1_1interaction_1_1Interaction.html#aa67c082c3b6fa2d87ba3f4cf1a74e4f8" target="_top" xlink:title="Read the reference ab initio data from a file such as qdata.txt. ">
<polygon fill="white" stroke="black" points="223,-98 223,-128 393,-128 393,-98 223,-98"/>
<text text-anchor="start" x="231" y="-116" font-family="Ubuntu-R" font-size="10.00">forcebalance.interaction.</text>
<text text-anchor="middle" x="308" y="-105" font-family="Ubuntu-R" font-size="10.00">Interaction.read_reference_data</text>
</a>
</g>
<!-- Node1&#45;&gt;Node4 -->
<g id="edge6" class="edge"><title>Node1&#45;&gt;Node4</title>
<path fill="none" stroke="midnightblue" d="M171.743,-113C185.054,-113 198.887,-113 212.403,-113"/>
<polygon fill="midnightblue" stroke="midnightblue" points="212.664,-116.5 222.664,-113 212.664,-109.5 212.664,-116.5"/>
</g>
<!-- Node6 -->
<g id="node11" class="node"><title>Node6</title>
<a xlink:href="classforcebalance_1_1moments_1_1Moments.html#a2048e58340147becb826702f61442227" target="_top" xlink:title="Read the reference data from a file. ">
<polygon fill="white" stroke="black" points="208,-49 208,-79 408,-79 408,-49 208,-49"/>
<text text-anchor="start" x="216" y="-67" font-family="Ubuntu-R" font-size="10.00">forcebalance.moments.Moments.read</text>
<text text-anchor="middle" x="308" y="-56" font-family="Ubuntu-R" font-size="10.00">_reference_data</text>
</a>
</g>
<!-- Node1&#45;&gt;Node6 -->
<g id="edge10" class="edge"><title>Node1&#45;&gt;Node6</title>
<path fill="none" stroke="midnightblue" d="M154.502,-97.9654C178.259,-92.6741 205.141,-86.6867 229.646,-81.2288"/>
<polygon fill="midnightblue" stroke="midnightblue" points="230.625,-84.5966 239.625,-79.0062 229.104,-77.764 230.625,-84.5966"/>
</g>
<!-- Node7 -->
<g id="node13" class="node"><title>Node7</title>
<a xlink:href="classforcebalance_1_1vibration_1_1Vibration.html#ad3fc1fdf6452b11933d234b46b07071d" target="_top" xlink:title="Read the reference vibrational data from a file. ">
<polygon fill="white" stroke="black" points="211.5,-0 211.5,-30 404.5,-30 404.5,-0 211.5,-0"/>
<text text-anchor="start" x="219.5" y="-18" font-family="Ubuntu-R" font-size="10.00">forcebalance.vibration.Vibration.read</text>
<text text-anchor="middle" x="308" y="-7" font-family="Ubuntu-R" font-size="10.00">_reference_data</text>
</a>
</g>
<!-- Node1&#45;&gt;Node7 -->
<g id="edge12" class="edge"><title>Node1&#45;&gt;Node7</title>
<path fill="none" stroke="midnightblue" d="M107.835,-97.7918C131.172,-81.4029 170.638,-55.5811 208,-40 214.101,-37.4557 220.525,-35.1222 227.049,-32.992"/>
<polygon fill="midnightblue" stroke="midnightblue" points="228.136,-36.3193 236.652,-30.0158 226.064,-29.6331 228.136,-36.3193"/>
</g>
<!-- Node5 -->
<g id="node9" class="node"><title>Node5</title>
<a xlink:href="classforcebalance_1_1interaction_1_1Interaction.html#a7b5dea70b67d3b2c0449a7cea8b12bf4" target="_top" xlink:title="Prepare the temporary directory, by default does nothing. ">
<polygon fill="white" stroke="black" points="444.5,-92.5 444.5,-133.5 583.5,-133.5 583.5,-92.5 444.5,-92.5"/>
<text text-anchor="start" x="452.5" y="-121.5" font-family="Ubuntu-R" font-size="10.00">forcebalance.interaction.</text>
<text text-anchor="start" x="452.5" y="-110.5" font-family="Ubuntu-R" font-size="10.00">Interaction.prepare_temp</text>
<text text-anchor="middle" x="514" y="-99.5" font-family="Ubuntu-R" font-size="10.00">_directory</text>
</a>
</g>
<!-- Node4&#45;&gt;Node5 -->
<g id="edge8" class="edge"><title>Node4&#45;&gt;Node5</title>
<path fill="none" stroke="midnightblue" d="M393.152,-113C406.709,-113 420.699,-113 434.125,-113"/>
<polygon fill="midnightblue" stroke="midnightblue" points="434.266,-116.5 444.266,-113 434.266,-109.5 434.266,-116.5"/>
</g>
</g>
</svg>
