<?xml version="1.0" encoding="UTF-8" standalone="no"?>
<!DOCTYPE svg PUBLIC "-//W3C//DTD SVG 1.1//EN"
 "http://www.w3.org/Graphics/SVG/1.1/DTD/svg11.dtd">
<!-- Generated by graphviz version 2.28.0 (20111219.2309)
 -->
<!-- Title: G Pages: 1 -->
<svg width="2176pt" height="145pt"
 viewBox="0.00 0.00 2176.00 144.75" xmlns="http://www.w3.org/2000/svg" xmlns:xlink="http://www.w3.org/1999/xlink">
<g id="graph1" class="graph" transform="scale(1 1) rotate(0) translate(4 140.752)">
<title>G</title>
<polygon fill="white" stroke="white" points="-4,5 -4,-140.752 2173,-140.752 2173,5 -4,5"/>
<!-- Node1 -->
<g id="node1" class="node"><title>Node1</title>
<polygon fill="#bfbfbf" stroke="black" points="0,-94.5 0,-113.5 174,-113.5 174,-94.5 0,-94.5"/>
<text text-anchor="middle" x="87" y="-101.5" font-family="Ubuntu-R" font-size="10.00">forcebalance.Mol2.mol2.__repr__</text>
</g>
<!-- Node2 -->
<g id="node3" class="node"><title>Node2</title>
<a xlink:href="classforcebalance_1_1Mol2_1_1mol2.html#a4055fdaf7ab9a93d60577a8ce4d91ce1" target="_top" xlink:title="bond identifier (integer, starting from 1)">
<polygon fill="white" stroke="black" points="952.5,-94.5 952.5,-113.5 1157.5,-113.5 1157.5,-94.5 952.5,-94.5"/>
<text text-anchor="middle" x="1055" y="-101.5" font-family="Ubuntu-R" font-size="10.00">forcebalance.Mol2.mol2.set_mol_name</text>
</a>
</g>
<!-- Node1&#45;&gt;Node2 -->
<g id="edge2" class="edge"><title>Node1&#45;&gt;Node2</title>
<path fill="none" stroke="midnightblue" d="M161.12,-113.523C177.197,-115.3 194.153,-116.932 210,-118 521.302,-138.979 600.682,-143.735 912,-123 936.213,-121.387 962.594,-118.244 985.975,-114.972"/>
<polygon fill="midnightblue" stroke="midnightblue" points="986.739,-118.398 996.141,-113.515 985.746,-111.469 986.739,-118.398"/>
</g>
<!-- Node9 -->
<g id="node18" class="node"><title>Node9</title>
<a xlink:href="classforcebalance_1_1Mol2_1_1mol2.html#a9aa06696da4a8e209bf5fca3acdf790b" target="_top" xlink:title="number of atoms (integer)">
<polygon fill="white" stroke="black" points="456,-94.5 456,-113.5 668,-113.5 668,-94.5 456,-94.5"/>
<text text-anchor="middle" x="562" y="-101.5" font-family="Ubuntu-R" font-size="10.00">forcebalance.Mol2.mol2.set_num_atoms</text>
</a>
</g>
<!-- Node1&#45;&gt;Node9 -->
<g id="edge18" class="edge"><title>Node1&#45;&gt;Node9</title>
<path fill="none" stroke="midnightblue" d="M174.205,-104C250.382,-104 362.079,-104 445.882,-104"/>
<polygon fill="midnightblue" stroke="midnightblue" points="445.959,-107.5 455.959,-104 445.959,-100.5 445.959,-107.5"/>
</g>
<!-- Node11 -->
<g id="node24" class="node"><title>Node11</title>
<a xlink:href="classforcebalance_1_1Mol2_1_1mol2.html#a067b764ea4c695738f51bc5f995f6f73" target="_top" xlink:title="number of bonds (integer)">
<polygon fill="white" stroke="black" points="210,-38.5 210,-57.5 420,-57.5 420,-38.5 210,-38.5"/>
<text text-anchor="middle" x="315" y="-45.5" font-family="Ubuntu-R" font-size="10.00">forcebalance.Mol2.mol2.set_num_bonds</text>
</a>
</g>
<!-- Node1&#45;&gt;Node11 -->
<g id="edge26" class="edge"><title>Node1&#45;&gt;Node11</title>
<path fill="none" stroke="midnightblue" d="M126.594,-94.4369C165.028,-84.9133 224.136,-70.2672 265.671,-59.9753"/>
<polygon fill="midnightblue" stroke="midnightblue" points="266.701,-63.3261 275.565,-57.5237 265.017,-56.5316 266.701,-63.3261"/>
</g>
<!-- Node3 -->
<g id="node5" class="node"><title>Node3</title>
<a xlink:href="classforcebalance_1_1Mol2_1_1mol2.html#ab5de4b8eef6e851d9be12ecb92cf8f86" target="_top" xlink:title="number of features (integer)">
<polygon fill="white" stroke="black" points="1198,-75.5 1198,-94.5 1398,-94.5 1398,-75.5 1198,-75.5"/>
<text text-anchor="middle" x="1298" y="-82.5" font-family="Ubuntu-R" font-size="10.00">forcebalance.Mol2.mol2.set_num_feat</text>
</a>
</g>
<!-- Node2&#45;&gt;Node3 -->
<g id="edge4" class="edge"><title>Node2&#45;&gt;Node3</title>
<path fill="none" stroke="midnightblue" d="M1157.51,-95.9974C1167.54,-95.2063 1177.76,-94.401 1187.86,-93.6043"/>
<polygon fill="midnightblue" stroke="midnightblue" points="1188.23,-97.0863 1197.92,-92.8111 1187.68,-90.108 1188.23,-97.0863"/>
</g>
<!-- Node4 -->
<g id="node7" class="node"><title>Node4</title>
<a xlink:href="classforcebalance_1_1Mol2_1_1mol2.html#a8d49f0024dfe625e1b43a244ec76f3b3" target="_top" xlink:title="Parse a series of text lines, and setup compound information.">
<polygon fill="white" stroke="black" points="1434.5,-75.5 1434.5,-94.5 1595.5,-94.5 1595.5,-75.5 1434.5,-75.5"/>
<text text-anchor="middle" x="1515" y="-82.5" font-family="Ubuntu-R" font-size="10.00">forcebalance.Mol2.mol2.parse</text>
</a>
</g>
<!-- Node3&#45;&gt;Node4 -->
<g id="edge6" class="edge"><title>Node3&#45;&gt;Node4</title>
<path fill="none" stroke="midnightblue" d="M1398,-85C1406.72,-85 1415.51,-85 1424.14,-85"/>
<polygon fill="midnightblue" stroke="midnightblue" points="1424.19,-88.5001 1434.19,-85 1424.19,-81.5001 1424.19,-88.5001"/>
</g>
<!-- Node5 -->
<g id="node9" class="node"><title>Node5</title>
<a xlink:href="classforcebalance_1_1Mol2_1_1mol2.html#af5a261aefed1c65fd5f56b5b30e69995" target="_top" xlink:title="return the atom instance given its atom identifier">
<polygon fill="white" stroke="black" points="1678,-113.5 1678,-132.5 1858,-132.5 1858,-113.5 1678,-113.5"/>
<text text-anchor="middle" x="1768" y="-120.5" font-family="Ubuntu-R" font-size="10.00">forcebalance.Mol2.mol2.get_atom</text>
</a>
</g>
<!-- Node4&#45;&gt;Node5 -->
<g id="edge8" class="edge"><title>Node4&#45;&gt;Node5</title>
<path fill="none" stroke="midnightblue" d="M1579.01,-94.54C1613.92,-99.8251 1657.49,-106.421 1693.9,-111.932"/>
<polygon fill="midnightblue" stroke="midnightblue" points="1693.55,-115.42 1703.96,-113.456 1694.6,-108.499 1693.55,-115.42"/>
</g>
<!-- Node6 -->
<g id="node11" class="node"><title>Node6</title>
<a xlink:href="classforcebalance_1_1Mol2_1_1mol2.html#a2d2b34613f2b72ad3a7fcdc94a3de994" target="_top" xlink:title="return a dictionnary of atom instances bonded to the atom, and their types">
<polygon fill="white" stroke="black" points="1940.5,-94.5 1940.5,-113.5 2167.5,-113.5 2167.5,-94.5 1940.5,-94.5"/>
<text text-anchor="middle" x="2054" y="-101.5" font-family="Ubuntu-R" font-size="10.00">forcebalance.Mol2.mol2.get_bonded_atoms</text>
</a>
</g>
<!-- Node4&#45;&gt;Node6 -->
<g id="edge12" class="edge"><title>Node4&#45;&gt;Node6</title>
<path fill="none" stroke="midnightblue" d="M1595.53,-87.8137C1683.82,-90.9379 1827.42,-96.0187 1930.19,-99.6547"/>
<polygon fill="midnightblue" stroke="midnightblue" points="1930.2,-103.157 1940.31,-100.013 1930.44,-96.1615 1930.2,-103.157"/>
</g>
<!-- Node7 -->
<g id="node14" class="node"><title>Node7</title>
<a xlink:href="classforcebalance_1_1Mol2_1_1mol2.html#aa5a8b41dee69923e1854b0385ba588a4" target="_top" xlink:title="modify atom types to specify donnor, acceptor, or both">
<polygon fill="white" stroke="black" points="1632.5,-37.5 1632.5,-56.5 1903.5,-56.5 1903.5,-37.5 1632.5,-37.5"/>
<text text-anchor="middle" x="1768" y="-44.5" font-family="Ubuntu-R" font-size="10.00">forcebalance.Mol2.mol2.set_donnor_acceptor_atoms</text>
</a>
</g>
<!-- Node4&#45;&gt;Node7 -->
<g id="edge14" class="edge"><title>Node4&#45;&gt;Node7</title>
<path fill="none" stroke="midnightblue" d="M1579.01,-75.46C1613.92,-70.1749 1657.49,-63.5786 1693.9,-58.0675"/>
<polygon fill="midnightblue" stroke="midnightblue" points="1694.6,-61.5014 1703.96,-56.5439 1693.55,-54.5803 1694.6,-61.5014"/>
</g>
<!-- Node5&#45;&gt;Node6 -->
<g id="edge10" class="edge"><title>Node5&#45;&gt;Node6</title>
<path fill="none" stroke="midnightblue" d="M1858.08,-117.04C1881.03,-115.505 1906.13,-113.826 1930.45,-112.199"/>
<polygon fill="midnightblue" stroke="midnightblue" points="1930.71,-115.69 1940.45,-111.53 1930.24,-108.705 1930.71,-115.69"/>
</g>
<!-- Node8 -->
<g id="node16" class="node"><title>Node8</title>
<a xlink:href="classforcebalance_1_1Mol2_1_1mol2.html#ad2182f9984dda90dfbd036d70921d5d8" target="_top" xlink:title="forcebalance.Mol2.mol2.__init__">
<polygon fill="white" stroke="black" points="1969.5,-37.5 1969.5,-56.5 2138.5,-56.5 2138.5,-37.5 1969.5,-37.5"/>
<text text-anchor="middle" x="2054" y="-44.5" font-family="Ubuntu-R" font-size="10.00">forcebalance.Mol2.mol2.__init__</text>
</a>
</g>
<!-- Node7&#45;&gt;Node8 -->
<g id="edge16" class="edge"><title>Node7&#45;&gt;Node8</title>
<path fill="none" stroke="midnightblue" d="M1903.51,-47C1922.21,-47 1941.08,-47 1958.82,-47"/>
<polygon fill="midnightblue" stroke="midnightblue" points="1959.13,-50.5001 1969.13,-47 1959.13,-43.5001 1959.13,-50.5001"/>
</g>
<!-- Node10 -->
<g id="node20" class="node"><title>Node10</title>
<a xlink:href="classforcebalance_1_1Mol2_1_1mol2.html#a981c9a485d4db6abbcb61b8188090078" target="_top" xlink:title="number of sets (integer)">
<polygon fill="white" stroke="black" points="707.5,-94.5 707.5,-113.5 908.5,-113.5 908.5,-94.5 707.5,-94.5"/>
<text text-anchor="middle" x="808" y="-101.5" font-family="Ubuntu-R" font-size="10.00">forcebalance.Mol2.mol2.set_num_sets</text>
</a>
</g>
<!-- Node9&#45;&gt;Node10 -->
<g id="edge20" class="edge"><title>Node9&#45;&gt;Node10</title>
<path fill="none" stroke="midnightblue" d="M668.248,-97.3069C677.917,-97.2408 687.729,-97.2323 697.434,-97.2813"/>
<polygon fill="midnightblue" stroke="midnightblue" points="697.475,-100.782 707.499,-97.3531 697.525,-93.7817 697.475,-100.782"/>
</g>
<!-- Node10&#45;&gt;Node2 -->
<g id="edge22" class="edge"><title>Node10&#45;&gt;Node2</title>
<path fill="none" stroke="midnightblue" d="M908.651,-104C919.707,-104 931.02,-104 942.213,-104"/>
<polygon fill="midnightblue" stroke="midnightblue" points="942.448,-107.5 952.448,-104 942.448,-100.5 942.448,-107.5"/>
</g>
<!-- Node10&#45;&gt;Node9 -->
<g id="edge24" class="edge"><title>Node10&#45;&gt;Node9</title>
<path fill="none" stroke="midnightblue" d="M707.499,-110.647C697.898,-110.736 688.103,-110.767 678.365,-110.741"/>
<polygon fill="midnightblue" stroke="midnightblue" points="678.265,-107.241 668.248,-110.693 678.232,-114.241 678.265,-107.241"/>
</g>
<!-- Node12 -->
<g id="node26" class="node"><title>Node12</title>
<a xlink:href="classforcebalance_1_1Mol2_1_1mol2.html#a6ee55f5fae46cee9c0e7d6683c9b5c50" target="_top" xlink:title="bond identifier (integer, starting from 1)">
<polygon fill="white" stroke="black" points="463,-38.5 463,-57.5 661,-57.5 661,-38.5 463,-38.5"/>
<text text-anchor="middle" x="562" y="-45.5" font-family="Ubuntu-R" font-size="10.00">forcebalance.Mol2.mol2.set_mol_type</text>
</a>
</g>
<!-- Node11&#45;&gt;Node12 -->
<g id="edge28" class="edge"><title>Node11&#45;&gt;Node12</title>
<path fill="none" stroke="midnightblue" d="M420.257,-41.317C430.917,-41.2382 441.764,-41.2289 452.468,-41.2892"/>
<polygon fill="midnightblue" stroke="midnightblue" points="452.649,-44.7906 462.675,-41.3682 452.703,-37.7908 452.649,-44.7906"/>
</g>
<!-- Node12&#45;&gt;Node3 -->
<g id="edge38" class="edge"><title>Node12&#45;&gt;Node3</title>
<path fill="none" stroke="midnightblue" d="M661.229,-52.9516C798.087,-59.8504 1045.33,-72.3135 1187.81,-79.496"/>
<polygon fill="midnightblue" stroke="midnightblue" points="1187.72,-82.9959 1197.89,-80.0038 1188.08,-76.0047 1187.72,-82.9959"/>
</g>
<!-- Node12&#45;&gt;Node10 -->
<g id="edge40" class="edge"><title>Node12&#45;&gt;Node10</title>
<path fill="none" stroke="midnightblue" d="M604.668,-57.5631C646.427,-67.1471 710.789,-81.9188 755.673,-92.22"/>
<polygon fill="midnightblue" stroke="midnightblue" points="754.974,-95.6506 765.504,-94.4763 756.54,-88.828 754.974,-95.6506"/>
</g>
<!-- Node12&#45;&gt;Node11 -->
<g id="edge30" class="edge"><title>Node12&#45;&gt;Node11</title>
<path fill="none" stroke="midnightblue" d="M462.675,-54.6318C452.098,-54.7365 441.27,-54.7716 430.524,-54.7373"/>
<polygon fill="midnightblue" stroke="midnightblue" points="430.276,-51.236 420.257,-54.683 430.239,-58.2359 430.276,-51.236"/>
</g>
<!-- Node12&#45;&gt;Node12 -->
<g id="edge42" class="edge"><title>Node12&#45;&gt;Node12</title>
<path fill="none" stroke="midnightblue" d="M524.391,-57.6119C505.501,-66.4613 518.037,-76 562,-76 595.659,-76 610.896,-70.4086 607.712,-63.8161"/>
<polygon fill="midnightblue" stroke="midnightblue" points="609.677,-60.9121 599.609,-57.6119 605.421,-66.4701 609.677,-60.9121"/>
</g>
<!-- Node13 -->
<g id="node29" class="node"><title>Node13</title>
<a xlink:href="classforcebalance_1_1Mol2_1_1mol2.html#a57bf99785e120a6aedd8be49585f4c5d" target="_top" xlink:title="number of substructures (integer)">
<polygon fill="white" stroke="black" points="704.5,-9.5 704.5,-28.5 911.5,-28.5 911.5,-9.5 704.5,-9.5"/>
<text text-anchor="middle" x="808" y="-16.5" font-family="Ubuntu-R" font-size="10.00">forcebalance.Mol2.mol2.set_num_subst</text>
</a>
</g>
<!-- Node12&#45;&gt;Node13 -->
<g id="edge32" class="edge"><title>Node12&#45;&gt;Node13</title>
<path fill="none" stroke="midnightblue" d="M643.233,-38.4641C666.689,-35.6763 692.489,-32.6099 716.534,-29.7522"/>
<polygon fill="midnightblue" stroke="midnightblue" points="717.202,-33.1974 726.719,-28.5416 716.376,-26.2463 717.202,-33.1974"/>
</g>
<!-- Node14 -->
<g id="node31" class="node"><title>Node14</title>
<a xlink:href="classforcebalance_1_1Mol2_1_1mol2.html#aaab9bc1afebb05a355c53db2a35740be" target="_top" xlink:title="bond identifier (integer, starting from 1)">
<polygon fill="white" stroke="black" points="948.5,-0.5 948.5,-19.5 1161.5,-19.5 1161.5,-0.5 948.5,-0.5"/>
<text text-anchor="middle" x="1055" y="-7.5" font-family="Ubuntu-R" font-size="10.00">forcebalance.Mol2.mol2.set_charge_type</text>
</a>
</g>
<!-- Node13&#45;&gt;Node14 -->
<g id="edge34" class="edge"><title>Node13&#45;&gt;Node14</title>
<path fill="none" stroke="midnightblue" d="M911.837,-15.2223C920.496,-14.9042 929.29,-14.5812 938.039,-14.2598"/>
<polygon fill="midnightblue" stroke="midnightblue" points="938.414,-17.7485 948.279,-13.8836 938.157,-10.7532 938.414,-17.7485"/>
</g>
<!-- Node14&#45;&gt;Node14 -->
<g id="edge36" class="edge"><title>Node14&#45;&gt;Node14</title>
<path fill="none" stroke="midnightblue" d="M1018,-19.6119C999.42,-28.4613 1011.75,-38 1055,-38 1088.11,-38 1103.1,-32.4086 1099.97,-25.8161"/>
<polygon fill="midnightblue" stroke="midnightblue" points="1102.04,-22.9918 1092,-19.6119 1097.74,-28.5159 1102.04,-22.9918"/>
</g>
</g>
</svg>
