<?xml version="1.0" encoding="UTF-8" standalone="no"?>
<!DOCTYPE svg PUBLIC "-//W3C//DTD SVG 1.1//EN"
 "http://www.w3.org/Graphics/SVG/1.1/DTD/svg11.dtd">
<!-- Generated by graphviz version 2.28.0 (20111219.2309)
 -->
<!-- Title: G Pages: 1 -->
<svg width="1228pt" height="28pt"
 viewBox="0.00 0.00 1228.00 28.00" xmlns="http://www.w3.org/2000/svg" xmlns:xlink="http://www.w3.org/1999/xlink">
<g id="graph1" class="graph" transform="scale(1 1) rotate(0) translate(4 24)">
<title>G</title>
<polygon fill="white" stroke="white" points="-4,5 -4,-24 1225,-24 1225,5 -4,5"/>
<!-- Node1 -->
<g id="node1" class="node"><title>Node1</title>
<polygon fill="#bfbfbf" stroke="black" points="0.5,-0.5 0.5,-19.5 329.5,-19.5 329.5,-0.5 0.5,-0.5"/>
<text text-anchor="middle" x="165" y="-7.5" font-family="Ubuntu-R" font-size="10.00">forcebalance.openmmio.Liquid_OpenMM.prepare_temp_directory</text>
</g>
<!-- Node2 -->
<g id="node3" class="node"><title>Node2</title>
<a xlink:href="namespaceforcebalance_1_1openmmio.html#a9f9fc56475dbfcc94a40fef6a84ed25f" target="_top" xlink:title="forcebalance.openmmio.UpdateSimulationParameters">
<polygon fill="white" stroke="black" points="366,-0.5 366,-19.5 644,-19.5 644,-0.5 366,-0.5"/>
<text text-anchor="middle" x="505" y="-7.5" font-family="Ubuntu-R" font-size="10.00">forcebalance.openmmio.UpdateSimulationParameters</text>
</a>
</g>
<!-- Node1&#45;&gt;Node2 -->
<g id="edge2" class="edge"><title>Node1&#45;&gt;Node2</title>
<path fill="none" stroke="midnightblue" d="M329.555,-10C338.275,-10 347.014,-10 355.68,-10"/>
<polygon fill="midnightblue" stroke="midnightblue" points="355.814,-13.5001 365.814,-10 355.814,-6.5001 355.814,-13.5001"/>
</g>
<!-- Node3 -->
<g id="node5" class="node"><title>Node3</title>
<a xlink:href="namespaceforcebalance_1_1openmmio.html#a95d91538d72e354fc95433539c42450c" target="_top" xlink:title="forcebalance.openmmio.SetAmoebaVirtualExclusions">
<polygon fill="white" stroke="black" points="680.5,-0.5 680.5,-19.5 953.5,-19.5 953.5,-0.5 680.5,-0.5"/>
<text text-anchor="middle" x="817" y="-7.5" font-family="Ubuntu-R" font-size="10.00">forcebalance.openmmio.SetAmoebaVirtualExclusions</text>
</a>
</g>
<!-- Node2&#45;&gt;Node3 -->
<g id="edge4" class="edge"><title>Node2&#45;&gt;Node3</title>
<path fill="none" stroke="midnightblue" d="M644.227,-10C652.815,-10 661.472,-10 670.092,-10"/>
<polygon fill="midnightblue" stroke="midnightblue" points="670.186,-13.5001 680.186,-10 670.186,-6.5001 670.186,-13.5001"/>
</g>
<!-- Node4 -->
<g id="node7" class="node"><title>Node4</title>
<a xlink:href="namespaceforcebalance_1_1openmmio.html#aa085594c11e9cd00ce71f5a8ead72b68" target="_top" xlink:title="Create a multiple timestep velocity verlet with velocity randomization (VVVR) integrator.">
<polygon fill="white" stroke="black" points="990,-0.5 990,-19.5 1220,-19.5 1220,-0.5 990,-0.5"/>
<text text-anchor="middle" x="1105" y="-7.5" font-family="Ubuntu-R" font-size="10.00">forcebalance.openmmio.MTSVVVRIntegrator</text>
</a>
</g>
<!-- Node3&#45;&gt;Node4 -->
<g id="edge6" class="edge"><title>Node3&#45;&gt;Node4</title>
<path fill="none" stroke="midnightblue" d="M953.881,-10C962.385,-10 970.923,-10 979.375,-10"/>
<polygon fill="midnightblue" stroke="midnightblue" points="979.632,-13.5001 989.632,-10 979.632,-6.5001 979.632,-13.5001"/>
</g>
</g>
</svg>
