<?xml version="1.0" encoding="UTF-8" standalone="no"?>
<!DOCTYPE svg PUBLIC "-//W3C//DTD SVG 1.1//EN"
 "http://www.w3.org/Graphics/SVG/1.1/DTD/svg11.dtd">
<!-- Generated by graphviz version 2.28.0 (20111219.2309)
 -->
<!-- Title: forcebalance.openmmio.AbInitio_OpenMM Pages: 1 -->
<svg width="156pt" height="276pt"
 viewBox="0.00 0.00 156.00 276.00" xmlns="http://www.w3.org/2000/svg" xmlns:xlink="http://www.w3.org/1999/xlink">
<g id="graph1" class="graph" transform="scale(1 1) rotate(0) translate(4 272)">
<title>forcebalance.openmmio.AbInitio_OpenMM</title>
<polygon fill="white" stroke="white" points="-4,5 -4,-272 153,-272 153,5 -4,5"/>
<!-- Node1 -->
<g id="node1" class="node"><title>Node1</title>
<polygon fill="#bfbfbf" stroke="black" points="-0.5,-1 -0.5,-31 148.5,-31 148.5,-1 -0.5,-1"/>
<text text-anchor="start" x="7.5" y="-19" font-family="Ubuntu-R" font-size="10.00">forcebalance.openmmio.Ab</text>
<text text-anchor="middle" x="74" y="-8" font-family="Ubuntu-R" font-size="10.00">Initio_OpenMM</text>
</g>
<!-- Node2 -->
<g id="node2" class="node"><title>Node2</title>
<a xlink:href="classforcebalance_1_1abinitio_1_1AbInitio.html" target="_top" xlink:title="Subclass of Target for fitting force fields to ab initio data. ">
<polygon fill="white" stroke="black" points="8.5,-69 8.5,-99 139.5,-99 139.5,-69 8.5,-69"/>
<text text-anchor="start" x="16.5" y="-87" font-family="Ubuntu-R" font-size="10.00">forcebalance.abinitio.Ab</text>
<text text-anchor="middle" x="74" y="-76" font-family="Ubuntu-R" font-size="10.00">Initio</text>
</a>
</g>
<!-- Node2&#45;&gt;Node1 -->
<g id="edge2" class="edge"><title>Node2&#45;&gt;Node1</title>
<path fill="none" stroke="midnightblue" d="M74,-58.5322C74,-49.3606 74,-39.2449 74,-31.2931"/>
<polygon fill="midnightblue" stroke="midnightblue" points="70.5001,-58.6789 74,-68.679 77.5001,-58.679 70.5001,-58.6789"/>
</g>
<!-- Node3 -->
<g id="node4" class="node"><title>Node3</title>
<a xlink:href="classforcebalance_1_1target_1_1Target.html" target="_top" xlink:title="Base class for all fitting targets. ">
<polygon fill="white" stroke="black" points="2.5,-136.5 2.5,-155.5 145.5,-155.5 145.5,-136.5 2.5,-136.5"/>
<text text-anchor="middle" x="74" y="-143.5" font-family="Ubuntu-R" font-size="10.00">forcebalance.target.Target</text>
</a>
</g>
<!-- Node3&#45;&gt;Node2 -->
<g id="edge4" class="edge"><title>Node3&#45;&gt;Node2</title>
<path fill="none" stroke="midnightblue" d="M74,-126.371C74,-117.585 74,-107.272 74,-99.1408"/>
<polygon fill="midnightblue" stroke="midnightblue" points="70.5001,-126.403 74,-136.403 77.5001,-126.403 70.5001,-126.403"/>
</g>
<!-- Node4 -->
<g id="node6" class="node"><title>Node4</title>
<a xlink:href="classforcebalance_1_1BaseClass.html" target="_top" xlink:title="Provides some nifty functions that are common to all ForceBalance classes. ">
<polygon fill="white" stroke="black" points="8.5,-192.5 8.5,-211.5 139.5,-211.5 139.5,-192.5 8.5,-192.5"/>
<text text-anchor="middle" x="74" y="-199.5" font-family="Ubuntu-R" font-size="10.00">forcebalance.BaseClass</text>
</a>
</g>
<!-- Node4&#45;&gt;Node3 -->
<g id="edge6" class="edge"><title>Node4&#45;&gt;Node3</title>
<path fill="none" stroke="midnightblue" d="M74,-181.805C74,-172.91 74,-162.78 74,-155.751"/>
<polygon fill="midnightblue" stroke="midnightblue" points="70.5001,-182.083 74,-192.083 77.5001,-182.083 70.5001,-182.083"/>
</g>
<!-- Node5 -->
<g id="node8" class="node"><title>Node5</title>
<polygon fill="white" stroke="#bfbfbf" points="51,-248.5 51,-267.5 97,-267.5 97,-248.5 51,-248.5"/>
<text text-anchor="middle" x="74" y="-255.5" font-family="Ubuntu-R" font-size="10.00">object</text>
</g>
<!-- Node5&#45;&gt;Node4 -->
<g id="edge8" class="edge"><title>Node5&#45;&gt;Node4</title>
<path fill="none" stroke="midnightblue" d="M74,-237.805C74,-228.91 74,-218.78 74,-211.751"/>
<polygon fill="midnightblue" stroke="midnightblue" points="70.5001,-238.083 74,-248.083 77.5001,-238.083 70.5001,-238.083"/>
</g>
</g>
</svg>
