<?xml version="1.0" encoding="UTF-8" standalone="no"?>
<!DOCTYPE svg PUBLIC "-//W3C//DTD SVG 1.1//EN"
 "http://www.w3.org/Graphics/SVG/1.1/DTD/svg11.dtd">
<!-- Generated by graphviz version 2.40.1 (20161225.0304)
 -->
<!-- Title: src.liquid.Liquid.submit_jobs Pages: 1 -->
<svg width="515pt" height="389pt"
 viewBox="0.00 0.00 515.00 388.50" xmlns="http://www.w3.org/2000/svg" xmlns:xlink="http://www.w3.org/1999/xlink">
<g id="graph0" class="graph" transform="scale(1 1) rotate(0) translate(4 384.5)">
<title>src.liquid.Liquid.submit_jobs</title>
<polygon fill="#ffffff" stroke="transparent" points="-4,4 -4,-384.5 511,-384.5 511,4 -4,4"/>
<!-- Node153 -->
<g id="node1" class="node">
<title>Node153</title>
<polygon fill="#bfbfbf" stroke="#000000" points="0,-192 0,-211 155,-211 155,-192 0,-192"/>
<text text-anchor="middle" x="77.5" y="-199" font-family="Ubuntu-R" font-size="10.00" fill="#000000">src.liquid.Liquid.submit_jobs</text>
</g>
<!-- Node154 -->
<g id="node2" class="node">
<title>Node154</title>
<g id="a_node2"><a xlink:href="namespacesrc_1_1nifty.html#a9bda70a78d0f5d31e10dfffaf85803c9" target="_top" xlink:title="Cool&#45;looking printout for slick formatting of output. ">
<polygon fill="#ffffff" stroke="#000000" points="212,-361 212,-380 313,-380 313,-361 212,-361"/>
<text text-anchor="middle" x="262.5" y="-368" font-family="Ubuntu-R" font-size="10.00" fill="#000000">src.nifty.printcool</text>
</a>
</g>
</g>
<!-- Node153&#45;&gt;Node154 -->
<g id="edge1" class="edge">
<title>Node153&#45;&gt;Node154</title>
<path fill="none" stroke="#191970" d="M82.4433,-211.2054C96.1037,-237.0744 136.9596,-308.3061 191,-346.5 197.0281,-350.7604 203.8685,-354.3083 210.8713,-357.2509"/>
<polygon fill="#191970" stroke="#191970" points="209.869,-360.6142 220.4601,-360.8983 212.3578,-354.0716 209.869,-360.6142"/>
</g>
<!-- Node155 -->
<g id="node3" class="node">
<title>Node155</title>
<g id="a_node3"><a xlink:href="namespacesrc_1_1nifty.html#a6ae2951ba2a22420a11abda6be7e5454" target="_top" xlink:title="src.nifty.warn_press_key">
<polygon fill="#ffffff" stroke="#000000" points="370,-342 370,-361 507,-361 507,-342 370,-342"/>
<text text-anchor="middle" x="438.5" y="-349" font-family="Ubuntu-R" font-size="10.00" fill="#000000">src.nifty.warn_press_key</text>
</a>
</g>
</g>
<!-- Node153&#45;&gt;Node155 -->
<g id="edge4" class="edge">
<title>Node153&#45;&gt;Node155</title>
<path fill="none" stroke="#191970" d="M84.0805,-211.3288C99.6658,-233.7222 141.2782,-288.521 191,-313.5 243.3326,-339.7906 309.1268,-348.9341 359.7217,-351.6969"/>
<polygon fill="#191970" stroke="#191970" points="359.7987,-355.2043 369.9529,-352.1805 360.1294,-348.2121 359.7987,-355.2043"/>
</g>
<!-- Node156 -->
<g id="node4" class="node">
<title>Node156</title>
<g id="a_node4"><a xlink:href="namespacesrc_1_1nifty.html#aed3eba850f6ddf4538d09ee61d19e4bd" target="_top" xlink:title="Write an object to a zipped pickle file specified by the path. ">
<polygon fill="#ffffff" stroke="#000000" points="212.5,-285 212.5,-304 312.5,-304 312.5,-285 212.5,-285"/>
<text text-anchor="middle" x="262.5" y="-292" font-family="Ubuntu-R" font-size="10.00" fill="#000000">src.nifty.lp_dump</text>
</a>
</g>
</g>
<!-- Node153&#45;&gt;Node156 -->
<g id="edge3" class="edge">
<title>Node153&#45;&gt;Node156</title>
<path fill="none" stroke="#191970" d="M89.3517,-211.0822C109.2242,-226.7066 151.0275,-257.7093 191,-275.5 196.4124,-277.9089 202.1956,-280.0666 208.0402,-281.9853"/>
<polygon fill="#191970" stroke="#191970" points="207.2934,-285.4168 217.8797,-284.9911 209.3385,-278.7222 207.2934,-285.4168"/>
</g>
<!-- Node157 -->
<g id="node5" class="node">
<title>Node157</title>
<g id="a_node5"><a xlink:href="classsrc_1_1gmxio_1_1Liquid__GMX.html#a6ddb76474e47e2bb1ba6ed2b58f1b29e" target="_top" xlink:title="Submit a NPT simulation to the Work Queue. ">
<polygon fill="#ffffff" stroke="#000000" points="191,-235.5 191,-265.5 334,-265.5 334,-235.5 191,-235.5"/>
<text text-anchor="start" x="199" y="-253.5" font-family="Ubuntu-R" font-size="10.00" fill="#000000">src.gmxio.Liquid_GMX.npt</text>
<text text-anchor="middle" x="262.5" y="-242.5" font-family="Ubuntu-R" font-size="10.00" fill="#000000">_simulation</text>
</a>
</g>
</g>
<!-- Node153&#45;&gt;Node157 -->
<g id="edge5" class="edge">
<title>Node153&#45;&gt;Node157</title>
<path fill="none" stroke="#191970" d="M113.609,-211.064C137.0307,-217.2676 168.2523,-225.5371 196.0547,-232.901"/>
<polygon fill="#191970" stroke="#191970" points="195.165,-236.2859 205.7278,-235.463 196.9573,-229.5193 195.165,-236.2859"/>
</g>
<!-- Node158 -->
<g id="node6" class="node">
<title>Node158</title>
<g id="a_node6"><a xlink:href="classsrc_1_1gmxio_1_1Lipid__GMX.html#a59162d9a53d7199604a0cb0c766c5ba4" target="_top" xlink:title="Submit a NPT simulation to the Work Queue. ">
<polygon fill="#ffffff" stroke="#000000" points="194,-186.5 194,-216.5 331,-216.5 331,-186.5 194,-186.5"/>
<text text-anchor="start" x="202" y="-204.5" font-family="Ubuntu-R" font-size="10.00" fill="#000000">src.gmxio.Lipid_GMX.npt</text>
<text text-anchor="middle" x="262.5" y="-193.5" font-family="Ubuntu-R" font-size="10.00" fill="#000000">_simulation</text>
</a>
</g>
</g>
<!-- Node153&#45;&gt;Node158 -->
<g id="edge6" class="edge">
<title>Node153&#45;&gt;Node158</title>
<path fill="none" stroke="#191970" d="M155.1525,-201.5C164.5926,-201.5 174.2445,-201.5 183.7011,-201.5"/>
<polygon fill="#191970" stroke="#191970" points="183.8665,-205.0001 193.8665,-201.5 183.8665,-198.0001 183.8665,-205.0001"/>
</g>
<!-- Node159 -->
<g id="node7" class="node">
<title>Node159</title>
<g id="a_node7"><a xlink:href="classsrc_1_1lipid_1_1Lipid.html#acc748653a328afae3ab3c61d7e69314d" target="_top" xlink:title="Submit a NPT simulation to the Work Queue. ">
<polygon fill="#ffffff" stroke="#000000" points="212.5,-88.5 212.5,-118.5 312.5,-118.5 312.5,-88.5 212.5,-88.5"/>
<text text-anchor="start" x="220.5" y="-106.5" font-family="Ubuntu-R" font-size="10.00" fill="#000000">src.lipid.Lipid.npt</text>
<text text-anchor="middle" x="262.5" y="-95.5" font-family="Ubuntu-R" font-size="10.00" fill="#000000">_simulation</text>
</a>
</g>
</g>
<!-- Node153&#45;&gt;Node159 -->
<g id="edge7" class="edge">
<title>Node153&#45;&gt;Node159</title>
<path fill="none" stroke="#191970" d="M90.1902,-191.911C110.573,-176.8457 152.2575,-147.4044 191,-128.5 195.5371,-126.2861 200.3214,-124.174 205.1766,-122.183"/>
<polygon fill="#191970" stroke="#191970" points="206.5209,-125.4154 214.5548,-118.5083 203.9671,-118.8978 206.5209,-125.4154"/>
</g>
<!-- Node161 -->
<g id="node9" class="node">
<title>Node161</title>
<g id="a_node9"><a xlink:href="namespacesrc_1_1nifty.html#a5592cf01ab24cb101579643160ce72cf" target="_top" xlink:title="src.nifty.link_dir\l_contents">
<polygon fill="#ffffff" stroke="#000000" points="391.5,-44.5 391.5,-74.5 485.5,-74.5 485.5,-44.5 391.5,-44.5"/>
<text text-anchor="start" x="399.5" y="-62.5" font-family="Ubuntu-R" font-size="10.00" fill="#000000">src.nifty.link_dir</text>
<text text-anchor="middle" x="438.5" y="-51.5" font-family="Ubuntu-R" font-size="10.00" fill="#000000">_contents</text>
</a>
</g>
</g>
<!-- Node153&#45;&gt;Node161 -->
<g id="edge17" class="edge">
<title>Node153&#45;&gt;Node161</title>
<path fill="none" stroke="#191970" d="M82.8641,-191.9814C96.952,-168.0329 137.6264,-105.3518 191,-79.5 251.0147,-50.4315 328.868,-49.1898 381.0897,-52.7598"/>
<polygon fill="#191970" stroke="#191970" points="380.9417,-56.2586 391.1795,-53.5311 381.4754,-49.279 380.9417,-56.2586"/>
</g>
<!-- Node162 -->
<g id="node10" class="node">
<title>Node162</title>
<g id="a_node10"><a xlink:href="classsrc_1_1liquid_1_1Liquid.html#a7ce7650a951da8f4c44c13a55b831719" target="_top" xlink:title="Submit a NPT simulation to the Work Queue. ">
<polygon fill="#ffffff" stroke="#000000" points="206.5,-137.5 206.5,-167.5 318.5,-167.5 318.5,-137.5 206.5,-137.5"/>
<text text-anchor="start" x="214.5" y="-155.5" font-family="Ubuntu-R" font-size="10.00" fill="#000000">src.liquid.Liquid.npt</text>
<text text-anchor="middle" x="262.5" y="-144.5" font-family="Ubuntu-R" font-size="10.00" fill="#000000">_simulation</text>
</a>
</g>
</g>
<!-- Node153&#45;&gt;Node162 -->
<g id="edge10" class="edge">
<title>Node153&#45;&gt;Node162</title>
<path fill="none" stroke="#191970" d="M113.609,-191.936C137.2188,-185.6826 168.7544,-177.3299 196.724,-169.9218"/>
<polygon fill="#191970" stroke="#191970" points="197.6791,-173.2895 206.4496,-167.3458 195.8868,-166.5229 197.6791,-173.2895"/>
</g>
<!-- Node163 -->
<g id="node11" class="node">
<title>Node163</title>
<g id="a_node11"><a xlink:href="classsrc_1_1liquid_1_1Liquid.html#aadcc3367e376135de20c3e1dc60d6e1e" target="_top" xlink:title="Submit a NVT simulation to the Work Queue. ">
<polygon fill="#ffffff" stroke="#000000" points="206.5,-.5 206.5,-30.5 318.5,-30.5 318.5,-.5 206.5,-.5"/>
<text text-anchor="start" x="214.5" y="-18.5" font-family="Ubuntu-R" font-size="10.00" fill="#000000">src.liquid.Liquid.nvt</text>
<text text-anchor="middle" x="262.5" y="-7.5" font-family="Ubuntu-R" font-size="10.00" fill="#000000">_simulation</text>
</a>
</g>
</g>
<!-- Node153&#45;&gt;Node163 -->
<g id="edge13" class="edge">
<title>Node153&#45;&gt;Node163</title>
<path fill="none" stroke="#191970" d="M82.2131,-191.6636C95.5878,-164.698 136.3747,-88.7363 191,-45.5 195.9181,-41.6073 201.4145,-38.1378 207.1158,-35.0664"/>
<polygon fill="#191970" stroke="#191970" points="208.7876,-38.144 216.1899,-30.564 205.6763,-31.8735 208.7876,-38.144"/>
</g>
<!-- Node154&#45;&gt;Node155 -->
<g id="edge2" class="edge">
<title>Node154&#45;&gt;Node155</title>
<path fill="none" stroke="#191970" d="M313.4065,-365.0044C327.814,-363.4491 343.8451,-361.7184 359.493,-360.0292"/>
<polygon fill="#191970" stroke="#191970" points="360.1331,-363.4805 369.6996,-358.9273 359.3817,-356.5209 360.1331,-363.4805"/>
</g>
<!-- Node160 -->
<g id="node8" class="node">
<title>Node160</title>
<g id="a_node8"><a xlink:href="namespacesrc_1_1nifty.html#aa26be058ed4503aa168d81f9076aefc3" target="_top" xlink:title="src.nifty.getWorkQueue">
<polygon fill="#ffffff" stroke="#000000" points="373.5,-94 373.5,-113 503.5,-113 503.5,-94 373.5,-94"/>
<text text-anchor="middle" x="438.5" y="-101" font-family="Ubuntu-R" font-size="10.00" fill="#000000">src.nifty.getWorkQueue</text>
</a>
</g>
</g>
<!-- Node159&#45;&gt;Node160 -->
<g id="edge8" class="edge">
<title>Node159&#45;&gt;Node160</title>
<path fill="none" stroke="#191970" d="M312.9345,-103.5C328.4965,-103.5 345.988,-103.5 362.8609,-103.5"/>
<polygon fill="#191970" stroke="#191970" points="363.264,-107.0001 373.264,-103.5 363.264,-100.0001 363.264,-107.0001"/>
</g>
<!-- Node159&#45;&gt;Node161 -->
<g id="edge9" class="edge">
<title>Node159&#45;&gt;Node161</title>
<path fill="none" stroke="#191970" d="M312.9345,-90.8914C334.3396,-85.5401 359.3951,-79.2762 381.4704,-73.7574"/>
<polygon fill="#191970" stroke="#191970" points="382.527,-77.1011 391.3795,-71.2801 380.8292,-70.3101 382.527,-77.1011"/>
</g>
<!-- Node162&#45;&gt;Node160 -->
<g id="edge11" class="edge">
<title>Node162&#45;&gt;Node160</title>
<path fill="none" stroke="#191970" d="M316.7419,-137.3986C341.7525,-130.4354 371.0512,-122.2784 394.6399,-115.7111"/>
<polygon fill="#191970" stroke="#191970" points="395.6758,-119.0559 404.3706,-113.0019 393.7982,-112.3123 395.6758,-119.0559"/>
</g>
<!-- Node162&#45;&gt;Node161 -->
<g id="edge12" class="edge">
<title>Node162&#45;&gt;Node161</title>
<path fill="none" stroke="#191970" d="M317.8992,-137.4565C323.5606,-134.8909 329.0441,-131.9231 334,-128.5 354.7899,-114.1404 349.3992,-99.1296 370,-84.5 373.861,-81.7581 378.0561,-79.2838 382.4054,-77.0573"/>
<polygon fill="#191970" stroke="#191970" points="383.9019,-80.2214 391.4916,-72.829 380.9485,-73.8749 383.9019,-80.2214"/>
</g>
<!-- Node163&#45;&gt;Node160 -->
<g id="edge14" class="edge">
<title>Node163&#45;&gt;Node160</title>
<path fill="none" stroke="#191970" d="M282.0726,-30.6438C302.8674,-46.0962 337.2046,-69.8308 370,-84.5 375.3407,-86.8888 381.0523,-89.0445 386.8145,-90.9714"/>
<polygon fill="#191970" stroke="#191970" points="385.914,-94.3569 396.5028,-93.9991 388.002,-87.6755 385.914,-94.3569"/>
</g>
<!-- Node163&#45;&gt;Node161 -->
<g id="edge15" class="edge">
<title>Node163&#45;&gt;Node161</title>
<path fill="none" stroke="#191970" d="M318.6714,-29.5428C338.7236,-34.5559 361.324,-40.206 381.4494,-45.2374"/>
<polygon fill="#191970" stroke="#191970" points="380.8635,-48.6985 391.4138,-47.7285 382.5613,-41.9075 380.8635,-48.6985"/>
</g>
<!-- Node164 -->
<g id="node12" class="node">
<title>Node164</title>
<g id="a_node12"><a xlink:href="namespacesrc_1_1nifty.html#a1e3f0a07d4cb01636522cbef8b1e8c72" target="_top" xlink:title="Submit a job to the Work Queue. ">
<polygon fill="#ffffff" stroke="#000000" points="386,-6 386,-25 491,-25 491,-6 386,-6"/>
<text text-anchor="middle" x="438.5" y="-13" font-family="Ubuntu-R" font-size="10.00" fill="#000000">src.nifty.queue_up</text>
</a>
</g>
</g>
<!-- Node163&#45;&gt;Node164 -->
<g id="edge16" class="edge">
<title>Node163&#45;&gt;Node164</title>
<path fill="none" stroke="#191970" d="M318.6714,-15.5C336.8361,-15.5 357.0919,-15.5 375.7048,-15.5"/>
<polygon fill="#191970" stroke="#191970" points="375.8526,-19.0001 385.8525,-15.5 375.8525,-12.0001 375.8526,-19.0001"/>
</g>
</g>
</svg>
