<?xml version="1.0" encoding="UTF-8" standalone="no"?>
<!DOCTYPE svg PUBLIC "-//W3C//DTD SVG 1.1//EN"
 "http://www.w3.org/Graphics/SVG/1.1/DTD/svg11.dtd">
<!-- Generated by graphviz version 2.28.0 (20111219.2309)
 -->
<!-- Title: G Pages: 1 -->
<svg width="646pt" height="66pt"
 viewBox="0.00 0.00 646.00 66.00" xmlns="http://www.w3.org/2000/svg" xmlns:xlink="http://www.w3.org/1999/xlink">
<g id="graph1" class="graph" transform="scale(1 1) rotate(0) translate(4 62)">
<title>G</title>
<polygon fill="white" stroke="white" points="-4,5 -4,-62 643,-62 643,5 -4,5"/>
<!-- Node1 -->
<g id="node1" class="node"><title>Node1</title>
<polygon fill="#bfbfbf" stroke="black" points="0.5,-19.5 0.5,-38.5 203.5,-38.5 203.5,-19.5 0.5,-19.5"/>
<text text-anchor="middle" x="102" y="-26.5" font-family="Ubuntu-R" font-size="10.00">forcebalance.nifty.LineChunker.__exit__</text>
</g>
<!-- Node2 -->
<g id="node3" class="node"><title>Node2</title>
<a xlink:href="namespaceforcebalance_1_1nifty.html#abb8f59044961a12588e0653c2baa8b01" target="_top" xlink:title="forcebalance.nifty.warn_press_key">
<polygon fill="white" stroke="black" points="240.5,-38.5 240.5,-57.5 419.5,-57.5 419.5,-38.5 240.5,-38.5"/>
<text text-anchor="middle" x="330" y="-45.5" font-family="Ubuntu-R" font-size="10.00">forcebalance.nifty.warn_press_key</text>
</a>
</g>
<!-- Node1&#45;&gt;Node2 -->
<g id="edge2" class="edge"><title>Node1&#45;&gt;Node2</title>
<path fill="none" stroke="midnightblue" d="M203.772,-37.472C212.571,-38.2117 221.47,-38.9598 230.252,-39.6982"/>
<polygon fill="midnightblue" stroke="midnightblue" points="230.236,-43.2091 240.495,-40.5593 230.823,-36.2337 230.236,-43.2091"/>
</g>
<!-- Node4 -->
<g id="node7" class="node"><title>Node4</title>
<a xlink:href="namespaceforcebalance_1_1nifty.html#a26e563ec71ed229c30f3d61d3448c8f1" target="_top" xlink:title="Prints a warning but will only do so once in a given run.">
<polygon fill="white" stroke="black" points="253,-0.5 253,-19.5 407,-19.5 407,-0.5 253,-0.5"/>
<text text-anchor="middle" x="330" y="-7.5" font-family="Ubuntu-R" font-size="10.00">forcebalance.nifty.warn_once</text>
</a>
</g>
<!-- Node1&#45;&gt;Node4 -->
<g id="edge6" class="edge"><title>Node1&#45;&gt;Node4</title>
<path fill="none" stroke="midnightblue" d="M203.772,-20.528C216.775,-19.4348 229.997,-18.3233 242.738,-17.2522"/>
<polygon fill="midnightblue" stroke="midnightblue" points="243.167,-20.7285 252.839,-16.4029 242.581,-13.7531 243.167,-20.7285"/>
</g>
<!-- Node3 -->
<g id="node5" class="node"><title>Node3</title>
<a xlink:href="namespaceforcebalance_1_1nifty.html#a2fc81730e7efa7d138dd86f733507bfc" target="_top" xlink:title="Similar to the bultin function map().">
<polygon fill="white" stroke="black" points="456,-38.5 456,-57.5 638,-57.5 638,-38.5 456,-38.5"/>
<text text-anchor="middle" x="547" y="-45.5" font-family="Ubuntu-R" font-size="10.00">forcebalance.nifty.concurrent_map</text>
</a>
</g>
<!-- Node2&#45;&gt;Node3 -->
<g id="edge4" class="edge"><title>Node2&#45;&gt;Node3</title>
<path fill="none" stroke="midnightblue" d="M419.69,-48C428.253,-48 436.981,-48 445.647,-48"/>
<polygon fill="midnightblue" stroke="midnightblue" points="445.777,-51.5001 455.777,-48 445.777,-44.5001 445.777,-51.5001"/>
</g>
<!-- Node5 -->
<g id="node9" class="node"><title>Node5</title>
<a xlink:href="namespaceforcebalance_1_1nifty.html#a64b7c6ca7afa1c11681f5c2897c55cc3" target="_top" xlink:title="This function be given any of several variable types (single file name, file object, or list of lines, or a list of the above) and give a list of files:">
<polygon fill="white" stroke="black" points="471.5,-0.5 471.5,-19.5 622.5,-19.5 622.5,-0.5 471.5,-0.5"/>
<text text-anchor="middle" x="547" y="-7.5" font-family="Ubuntu-R" font-size="10.00">forcebalance.nifty.multiopen</text>
</a>
</g>
<!-- Node4&#45;&gt;Node5 -->
<g id="edge8" class="edge"><title>Node4&#45;&gt;Node5</title>
<path fill="none" stroke="midnightblue" d="M407.104,-10C424.573,-10 443.255,-10 461.071,-10"/>
<polygon fill="midnightblue" stroke="midnightblue" points="461.445,-13.5001 471.445,-10 461.445,-6.5001 461.445,-13.5001"/>
</g>
</g>
</svg>
