<?xml version="1.0" encoding="UTF-8" standalone="no"?>
<!DOCTYPE svg PUBLIC "-//W3C//DTD SVG 1.1//EN"
 "http://www.w3.org/Graphics/SVG/1.1/DTD/svg11.dtd">
<!-- Generated by graphviz version 2.28.0 (20111219.2309)
 -->
<!-- Title: forcebalance.tinkerio.Moments_TINKER.__init__ Pages: 1 -->
<svg width="778pt" height="126pt"
 viewBox="0.00 0.00 778.00 126.00" xmlns="http://www.w3.org/2000/svg" xmlns:xlink="http://www.w3.org/1999/xlink">
<g id="graph1" class="graph" transform="scale(1 1) rotate(0) translate(4 122)">
<title>forcebalance.tinkerio.Moments_TINKER.__init__</title>
<polygon fill="white" stroke="white" points="-4,5 -4,-122 775,-122 775,5 -4,5"/>
<!-- Node1 -->
<g id="node1" class="node"><title>Node1</title>
<polygon fill="#bfbfbf" stroke="black" points="0,-62 0,-92 164,-92 164,-62 0,-62"/>
<text text-anchor="start" x="8" y="-80" font-family="Ubuntu-R" font-size="10.00">forcebalance.tinkerio.Moments</text>
<text text-anchor="middle" x="82" y="-69" font-family="Ubuntu-R" font-size="10.00">_TINKER.__init__</text>
</g>
<!-- Node2 -->
<g id="node3" class="node"><title>Node2</title>
<a xlink:href="namespaceforcebalance_1_1nifty.html#ab182a9da2a2f42cf45942fbee6acf9b1" target="_top" xlink:title="forcebalance.nifty.LinkFile">
<polygon fill="white" stroke="black" points="202.5,-90.5 202.5,-109.5 339.5,-109.5 339.5,-90.5 202.5,-90.5"/>
<text text-anchor="middle" x="271" y="-97.5" font-family="Ubuntu-R" font-size="10.00">forcebalance.nifty.LinkFile</text>
</a>
</g>
<!-- Node1&#45;&gt;Node2 -->
<g id="edge2" class="edge"><title>Node1&#45;&gt;Node2</title>
<path fill="none" stroke="midnightblue" d="M164.205,-86.9878C173.543,-88.1363 183.047,-89.3052 192.336,-90.4478"/>
<polygon fill="midnightblue" stroke="midnightblue" points="191.961,-93.9279 202.314,-91.6749 192.816,-86.9803 191.961,-93.9279"/>
</g>
<!-- Node4 -->
<g id="node7" class="node"><title>Node4</title>
<a xlink:href="namespaceforcebalance_1_1tinkerio.html#a9cde7bd64c6f5286c1f33a39211d5a11" target="_top" xlink:title="Copies a TINKER .key file but changes the parameter keyword as necessary to reflect the ForceBalance ...">
<polygon fill="white" stroke="black" points="200,-39 200,-69 342,-69 342,-39 200,-39"/>
<text text-anchor="start" x="208" y="-57" font-family="Ubuntu-R" font-size="10.00">forcebalance.tinkerio.write</text>
<text text-anchor="middle" x="271" y="-46" font-family="Ubuntu-R" font-size="10.00">_key_with_prm</text>
</a>
</g>
<!-- Node1&#45;&gt;Node4 -->
<g id="edge6" class="edge"><title>Node1&#45;&gt;Node4</title>
<path fill="none" stroke="midnightblue" d="M164.205,-67.0122C172.614,-65.978 181.158,-64.9271 189.559,-63.8939"/>
<polygon fill="midnightblue" stroke="midnightblue" points="190.218,-67.3393 199.715,-62.6446 189.363,-60.3916 190.218,-67.3393"/>
</g>
<!-- Node3 -->
<g id="node5" class="node"><title>Node3</title>
<a xlink:href="namespaceforcebalance_1_1nifty.html#a25efa4d501ad852a234721af18978f7e" target="_top" xlink:title="Remove the file if it exists (doesn&#39;t return an error). ">
<polygon fill="white" stroke="black" points="395,-88 395,-118 535,-118 535,-88 395,-88"/>
<text text-anchor="start" x="403" y="-106" font-family="Ubuntu-R" font-size="10.00">forcebalance.nifty.remove</text>
<text text-anchor="middle" x="465" y="-95" font-family="Ubuntu-R" font-size="10.00">_if_exists</text>
</a>
</g>
<!-- Node2&#45;&gt;Node3 -->
<g id="edge4" class="edge"><title>Node2&#45;&gt;Node3</title>
<path fill="none" stroke="midnightblue" d="M339.692,-101.058C354.254,-101.285 369.77,-101.528 384.727,-101.761"/>
<polygon fill="midnightblue" stroke="midnightblue" points="384.92,-105.265 394.974,-101.921 385.03,-98.2656 384.92,-105.265"/>
</g>
<!-- Node5 -->
<g id="node9" class="node"><title>Node5</title>
<a xlink:href="namespaceforcebalance_1_1nifty.html#abb8f59044961a12588e0653c2baa8b01" target="_top" xlink:title="forcebalance.nifty.warn\l_press_key">
<polygon fill="white" stroke="black" points="402.5,-39 402.5,-69 527.5,-69 527.5,-39 402.5,-39"/>
<text text-anchor="start" x="410.5" y="-57" font-family="Ubuntu-R" font-size="10.00">forcebalance.nifty.warn</text>
<text text-anchor="middle" x="465" y="-46" font-family="Ubuntu-R" font-size="10.00">_press_key</text>
</a>
</g>
<!-- Node4&#45;&gt;Node5 -->
<g id="edge8" class="edge"><title>Node4&#45;&gt;Node5</title>
<path fill="none" stroke="midnightblue" d="M342.131,-54C358.454,-54 375.856,-54 392.248,-54"/>
<polygon fill="midnightblue" stroke="midnightblue" points="392.305,-57.5001 402.305,-54 392.305,-50.5001 392.305,-57.5001"/>
</g>
<!-- Node7 -->
<g id="node13" class="node"><title>Node7</title>
<a xlink:href="namespaceforcebalance_1_1tinkerio.html#aa82c424420ad59b6a78b273d6c1fd469" target="_top" xlink:title="Performs in&#45;place modification of a TINKER .key file. ">
<polygon fill="white" stroke="black" points="378.5,-0.5 378.5,-19.5 551.5,-19.5 551.5,-0.5 378.5,-0.5"/>
<text text-anchor="middle" x="465" y="-7.5" font-family="Ubuntu-R" font-size="10.00">forcebalance.tinkerio.modify_key</text>
</a>
</g>
<!-- Node4&#45;&gt;Node7 -->
<g id="edge12" class="edge"><title>Node4&#45;&gt;Node7</title>
<path fill="none" stroke="midnightblue" d="M335.023,-38.981C349.155,-35.6564 364.083,-32.1783 378,-29 388.393,-26.6265 399.503,-24.1366 410.17,-21.7697"/>
<polygon fill="midnightblue" stroke="midnightblue" points="411.215,-25.1233 420.223,-19.546 409.703,-18.2885 411.215,-25.1233"/>
</g>
<!-- Node6 -->
<g id="node11" class="node"><title>Node6</title>
<a xlink:href="namespaceforcebalance_1_1nifty.html#a2fc81730e7efa7d138dd86f733507bfc" target="_top" xlink:title="Similar to the bultin function map(). ">
<polygon fill="white" stroke="black" points="588,-44.5 588,-63.5 770,-63.5 770,-44.5 588,-44.5"/>
<text text-anchor="middle" x="679" y="-51.5" font-family="Ubuntu-R" font-size="10.00">forcebalance.nifty.concurrent_map</text>
</a>
</g>
<!-- Node5&#45;&gt;Node6 -->
<g id="edge10" class="edge"><title>Node5&#45;&gt;Node6</title>
<path fill="none" stroke="midnightblue" d="M527.604,-54C543.342,-54 560.674,-54 577.803,-54"/>
<polygon fill="midnightblue" stroke="midnightblue" points="577.852,-57.5001 587.852,-54 577.852,-50.5001 577.852,-57.5001"/>
</g>
</g>
</svg>
