<?xml version="1.0" encoding="UTF-8" standalone="no"?>
<!DOCTYPE svg PUBLIC "-//W3C//DTD SVG 1.1//EN"
 "http://www.w3.org/Graphics/SVG/1.1/DTD/svg11.dtd">
<!-- Generated by graphviz version 2.28.0 (20111219.2309)
 -->
<!-- Title: G Pages: 1 -->
<svg width="554pt" height="66pt"
 viewBox="0.00 0.00 554.00 66.00" xmlns="http://www.w3.org/2000/svg" xmlns:xlink="http://www.w3.org/1999/xlink">
<g id="graph1" class="graph" transform="scale(1 1) rotate(0) translate(4 62)">
<title>G</title>
<polygon fill="white" stroke="white" points="-4,5 -4,-62 551,-62 551,5 -4,5"/>
<!-- Node1 -->
<g id="node1" class="node"><title>Node1</title>
<polygon fill="#bfbfbf" stroke="black" points="0.5,-19.5 0.5,-38.5 209.5,-38.5 209.5,-19.5 0.5,-19.5"/>
<text text-anchor="middle" x="105" y="-26.5" font-family="Ubuntu-R" font-size="10.00">forcebalance.objective.Objective.__init__</text>
</g>
<!-- Node2 -->
<g id="node3" class="node"><title>Node2</title>
<a xlink:href="classforcebalance_1_1BaseClass.html#a73e9a37a7632e79eb99f49bd15aced45" target="_top" xlink:title="forcebalance.BaseClass.set_option">
<polygon fill="white" stroke="black" points="304,-38.5 304,-57.5 488,-57.5 488,-38.5 304,-38.5"/>
<text text-anchor="middle" x="396" y="-45.5" font-family="Ubuntu-R" font-size="10.00">forcebalance.BaseClass.set_option</text>
</a>
</g>
<!-- Node1&#45;&gt;Node2 -->
<g id="edge2" class="edge"><title>Node1&#45;&gt;Node2</title>
<path fill="none" stroke="midnightblue" d="M209.519,-35.8058C236.806,-37.5997 266.219,-39.5334 293.404,-41.3207"/>
<polygon fill="midnightblue" stroke="midnightblue" points="293.496,-44.8342 303.704,-41.9979 293.955,-37.8493 293.496,-44.8342"/>
</g>
<!-- Node3 -->
<g id="node5" class="node"><title>Node3</title>
<a xlink:href="classforcebalance_1_1baseclass_1_1ForceBalanceBaseClass.html#abaaf4d99b043d41f02fabc41db59252b" target="_top" xlink:title="forcebalance.baseclass.ForceBalanceBaseClass.set_option">
<polygon fill="white" stroke="black" points="246.5,-0.5 246.5,-19.5 545.5,-19.5 545.5,-0.5 246.5,-0.5"/>
<text text-anchor="middle" x="396" y="-7.5" font-family="Ubuntu-R" font-size="10.00">forcebalance.baseclass.ForceBalanceBaseClass.set_option</text>
</a>
</g>
<!-- Node1&#45;&gt;Node3 -->
<g id="edge4" class="edge"><title>Node1&#45;&gt;Node3</title>
<path fill="none" stroke="midnightblue" d="M209.519,-22.1942C219.584,-21.5325 229.938,-20.8519 240.362,-20.1665"/>
<polygon fill="midnightblue" stroke="midnightblue" points="240.622,-23.6571 250.371,-19.5085 240.163,-16.6721 240.622,-23.6571"/>
</g>
</g>
</svg>
