<?xml version="1.0" encoding="UTF-8" standalone="no"?>
<!DOCTYPE svg PUBLIC "-//W3C//DTD SVG 1.1//EN"
 "http://www.w3.org/Graphics/SVG/1.1/DTD/svg11.dtd">
<!-- Generated by graphviz version 2.32.0 (20130801.1845)
 -->
<!-- Title: forcebalance.liquid.Liquid Pages: 1 -->
<svg width="722pt" height="130pt"
 viewBox="0.00 0.00 722.00 130.00" xmlns="http://www.w3.org/2000/svg" xmlns:xlink="http://www.w3.org/1999/xlink">
<g id="graph0" class="graph" transform="scale(1 1) rotate(0) translate(4 126)">
<title>forcebalance.liquid.Liquid</title>
<polygon fill="white" stroke="white" points="-4,5 -4,-126 719,-126 719,5 -4,5"/>
<!-- Node1 -->
<g id="node1" class="node"><title>Node1</title>
<polygon fill="#bfbfbf" stroke="black" points="401.962,-57 401.962,-77 524.038,-77 524.038,-57 401.962,-57"/>
<text text-anchor="middle" x="463" y="-64" font-family="Ubuntu-R" font-size="10.00">forcebalance.liquid.Liquid</text>
</g>
<!-- Node5 -->
<g id="node5" class="node"><title>Node5</title>
<g id="a_node5"><a xlink:href="classforcebalance_1_1gmxio_1_1Liquid__GMX.html" target="_top" xlink:title="forcebalance.gmxio.Liquid_GMX">
<polygon fill="white" stroke="black" points="560.688,-102 560.688,-122 713.312,-122 713.312,-102 560.688,-102"/>
<text text-anchor="middle" x="637" y="-109" font-family="Ubuntu-R" font-size="10.00">forcebalance.gmxio.Liquid_GMX</text>
</a>
</g>
</g>
<!-- Node1&#45;&gt;Node5 -->
<g id="edge4" class="edge"><title>Node1&#45;&gt;Node5</title>
<path fill="none" stroke="midnightblue" d="M512.582,-79.7104C539.477,-86.7469 572.437,-95.3703 597.529,-101.935"/>
<polygon fill="midnightblue" stroke="midnightblue" points="513.16,-76.244 502.6,-77.0989 511.389,-83.0161 513.16,-76.244"/>
</g>
<!-- Node6 -->
<g id="node6" class="node"><title>Node6</title>
<g id="a_node6"><a xlink:href="classforcebalance_1_1openmmio_1_1Liquid__OpenMM.html" target="_top" xlink:title="forcebalance.openmmio.Liquid\l_OpenMM">
<polygon fill="white" stroke="black" points="566.243,-51 566.243,-83 707.757,-83 707.757,-51 566.243,-51"/>
<text text-anchor="start" x="574.243" y="-70" font-family="Ubuntu-R" font-size="10.00">forcebalance.openmmio.Liquid</text>
<text text-anchor="middle" x="637" y="-58" font-family="Ubuntu-R" font-size="10.00">_OpenMM</text>
</a>
</g>
</g>
<!-- Node1&#45;&gt;Node6 -->
<g id="edge5" class="edge"><title>Node1&#45;&gt;Node6</title>
<path fill="none" stroke="midnightblue" d="M534.482,-67C544.937,-67 555.708,-67 566.15,-67"/>
<polygon fill="midnightblue" stroke="midnightblue" points="534.157,-63.5001 524.157,-67 534.157,-70.5001 534.157,-63.5001"/>
</g>
<!-- Node7 -->
<g id="node7" class="node"><title>Node7</title>
<g id="a_node7"><a xlink:href="classforcebalance_1_1tinkerio_1_1Liquid__TINKER.html" target="_top" xlink:title="forcebalance.tinkerio.Liquid\l_TINKER">
<polygon fill="white" stroke="black" points="572.078,-0 572.078,-32 701.922,-32 701.922,-0 572.078,-0"/>
<text text-anchor="start" x="580.078" y="-19" font-family="Ubuntu-R" font-size="10.00">forcebalance.tinkerio.Liquid</text>
<text text-anchor="middle" x="637" y="-7" font-family="Ubuntu-R" font-size="10.00">_TINKER</text>
</a>
</g>
</g>
<!-- Node1&#45;&gt;Node7 -->
<g id="edge6" class="edge"><title>Node1&#45;&gt;Node7</title>
<path fill="none" stroke="midnightblue" d="M507.618,-54.0667C530.156,-47.3839 557.873,-39.1657 581.777,-32.0777"/>
<polygon fill="midnightblue" stroke="midnightblue" points="506.574,-50.7256 497.982,-56.924 508.564,-57.4368 506.574,-50.7256"/>
</g>
<!-- Node2 -->
<g id="node2" class="node"><title>Node2</title>
<g id="a_node2"><a xlink:href="classforcebalance_1_1target_1_1Target.html" target="_top" xlink:title="Base class for all fitting targets.">
<polygon fill="white" stroke="black" points="244.534,-57 244.534,-77 365.466,-77 365.466,-57 244.534,-57"/>
<text text-anchor="middle" x="305" y="-64" font-family="Ubuntu-R" font-size="10.00">forcebalance.target.Target</text>
</a>
</g>
</g>
<!-- Node2&#45;&gt;Node1 -->
<g id="edge1" class="edge"><title>Node2&#45;&gt;Node1</title>
<path fill="none" stroke="midnightblue" d="M375.912,-67C384.543,-67 393.308,-67 401.777,-67"/>
<polygon fill="midnightblue" stroke="midnightblue" points="375.868,-63.5001 365.868,-67 375.867,-70.5001 375.868,-63.5001"/>
</g>
<!-- Node3 -->
<g id="node3" class="node"><title>Node3</title>
<g id="a_node3"><a xlink:href="classforcebalance_1_1baseclass_1_1ForceBalanceBaseClass.html" target="_top" xlink:title="Provides some nifty functions that are common to all ForceBalance classes.">
<polygon fill="white" stroke="black" points="75.9805,-51 75.9805,-83 208.019,-83 208.019,-51 75.9805,-51"/>
<text text-anchor="start" x="83.9805" y="-70" font-family="Ubuntu-R" font-size="10.00">forcebalance.baseclass.Force</text>
<text text-anchor="middle" x="142" y="-58" font-family="Ubuntu-R" font-size="10.00">BalanceBaseClass</text>
</a>
</g>
</g>
<!-- Node3&#45;&gt;Node2 -->
<g id="edge2" class="edge"><title>Node3&#45;&gt;Node2</title>
<path fill="none" stroke="midnightblue" d="M218.271,-67C227.057,-67 235.927,-67 244.459,-67"/>
<polygon fill="midnightblue" stroke="midnightblue" points="218.021,-63.5001 208.021,-67 218.021,-70.5001 218.021,-63.5001"/>
</g>
<!-- Node4 -->
<g id="node4" class="node"><title>Node4</title>
<polygon fill="white" stroke="#bfbfbf" points="-0.218,-57 -0.218,-77 40.218,-77 40.218,-57 -0.218,-57"/>
<text text-anchor="middle" x="20" y="-64" font-family="Ubuntu-R" font-size="10.00">object</text>
</g>
<!-- Node4&#45;&gt;Node3 -->
<g id="edge3" class="edge"><title>Node4&#45;&gt;Node3</title>
<path fill="none" stroke="midnightblue" d="M50.5424,-67C58.2931,-67 66.9665,-67 75.7914,-67"/>
<polygon fill="midnightblue" stroke="midnightblue" points="50.2801,-63.5001 40.2801,-67 50.28,-70.5001 50.2801,-63.5001"/>
</g>
</g>
</svg>
