<?xml version="1.0" encoding="UTF-8" standalone="no"?>
<!DOCTYPE svg PUBLIC "-//W3C//DTD SVG 1.1//EN"
 "http://www.w3.org/Graphics/SVG/1.1/DTD/svg11.dtd">
<!-- Generated by graphviz version 2.26.3 (20100126.1600)
 -->
<!-- Title: forcebalance.Mol2.mol2.parse Pages: 1 -->
<svg width="570pt" height="120pt"
 viewBox="0.00 0.00 570.00 120.00" xmlns="http://www.w3.org/2000/svg" xmlns:xlink="http://www.w3.org/1999/xlink">
<g id="graph1" class="graph" transform="scale(1 1) rotate(0) translate(4 116)">
<title>forcebalance.Mol2.mol2.parse</title>
<polygon fill="white" stroke="white" points="-4,5 -4,-116 567,-116 567,5 -4,5"/>
<!-- Node1 -->
<g id="node1" class="node"><title>Node1</title>
<polygon fill="#bfbfbf" stroke="black" points="0,-51.5 0,-72.5 160,-72.5 160,-51.5 0,-51.5"/>
<text text-anchor="middle" x="80" y="-59.5" font-family="Ubuntu-R" font-size="10.00">forcebalance.Mol2.mol2.parse</text>
</g>
<!-- Node2 -->
<g id="node3" class="node"><title>Node2</title>
<a xlink:href="classforcebalance_1_1Mol2_1_1mol2.html#af5a261aefed1c65fd5f56b5b30e69995" target="_top" xlink:title="return the atom instance given its atom identifier">
<polygon fill="white" stroke="black" points="196,-90.5 196,-111.5 376,-111.5 376,-90.5 196,-90.5"/>
<text text-anchor="middle" x="286" y="-98.5" font-family="Ubuntu-R" font-size="10.00">forcebalance.Mol2.mol2.get_atom</text>
</a>
</g>
<!-- Node1&#45;&gt;Node2 -->
<g id="edge2" class="edge"><title>Node1&#45;&gt;Node2</title>
<path fill="none" stroke="midnightblue" d="M135.475,-72.5026C161.69,-77.4656 193.166,-83.4246 220.542,-88.6076"/>
<polygon fill="midnightblue" stroke="midnightblue" points="219.949,-92.0573 230.426,-90.4787 221.251,-85.1795 219.949,-92.0573"/>
</g>
<!-- Node3 -->
<g id="node5" class="node"><title>Node3</title>
<a xlink:href="classforcebalance_1_1Mol2_1_1mol2.html#a2d2b34613f2b72ad3a7fcdc94a3de994" target="_top" xlink:title="return a dictionnary of atom instances bonded to the atom, and their types">
<polygon fill="white" stroke="black" points="412.5,-68 412.5,-102 561.5,-102 561.5,-68 412.5,-68"/>
<text text-anchor="start" x="420.5" y="-89" font-family="Ubuntu-R" font-size="10.00">forcebalance.Mol2.mol2.get</text>
<text text-anchor="middle" x="487" y="-76" font-family="Ubuntu-R" font-size="10.00">_bonded_atoms</text>
</a>
</g>
<!-- Node1&#45;&gt;Node3 -->
<g id="edge6" class="edge"><title>Node1&#45;&gt;Node3</title>
<path fill="none" stroke="midnightblue" d="M160.41,-66.5441C230.185,-70.4871 330.884,-76.1777 401.979,-80.1954"/>
<polygon fill="midnightblue" stroke="midnightblue" points="402.065,-83.7057 412.246,-80.7756 402.46,-76.7169 402.065,-83.7057"/>
</g>
<!-- Node4 -->
<g id="node8" class="node"><title>Node4</title>
<a xlink:href="classforcebalance_1_1Mol2_1_1mol2.html#aa5a8b41dee69923e1854b0385ba588a4" target="_top" xlink:title="modify atom types to specify donnor, acceptor, or both">
<polygon fill="white" stroke="black" points="212,-0 212,-34 360,-34 360,-0 212,-0"/>
<text text-anchor="start" x="220" y="-21" font-family="Ubuntu-R" font-size="10.00">forcebalance.Mol2.mol2.set</text>
<text text-anchor="middle" x="286" y="-8" font-family="Ubuntu-R" font-size="10.00">_donnor_acceptor_atoms</text>
</a>
</g>
<!-- Node1&#45;&gt;Node4 -->
<g id="edge8" class="edge"><title>Node1&#45;&gt;Node4</title>
<path fill="none" stroke="midnightblue" d="M128.298,-51.4495C150.24,-46.6564 176.847,-40.8441 201.908,-35.3696"/>
<polygon fill="midnightblue" stroke="midnightblue" points="202.769,-38.7641 211.792,-33.2105 201.275,-31.9254 202.769,-38.7641"/>
</g>
<!-- Node2&#45;&gt;Node3 -->
<g id="edge4" class="edge"><title>Node2&#45;&gt;Node3</title>
<path fill="none" stroke="midnightblue" d="M376.211,-93.819C384.912,-93.1264 393.717,-92.4255 402.362,-91.7373"/>
<polygon fill="midnightblue" stroke="midnightblue" points="402.73,-95.2192 412.421,-90.9367 402.174,-88.2413 402.73,-95.2192"/>
</g>
<!-- Node5 -->
<g id="node10" class="node"><title>Node5</title>
<a xlink:href="classforcebalance_1_1Mol2_1_1mol2.html#ad2182f9984dda90dfbd036d70921d5d8" target="_top" xlink:title="forcebalance.Mol2.mol2.\l__init__">
<polygon fill="white" stroke="black" points="420.5,-0 420.5,-34 553.5,-34 553.5,-0 420.5,-0"/>
<text text-anchor="start" x="428.5" y="-21" font-family="Ubuntu-R" font-size="10.00">forcebalance.Mol2.mol2.</text>
<text text-anchor="middle" x="487" y="-8" font-family="Ubuntu-R" font-size="10.00">__init__</text>
</a>
</g>
<!-- Node4&#45;&gt;Node5 -->
<g id="edge10" class="edge"><title>Node4&#45;&gt;Node5</title>
<path fill="none" stroke="midnightblue" d="M360.274,-17C376.573,-17 393.862,-17 410.256,-17"/>
<polygon fill="midnightblue" stroke="midnightblue" points="410.332,-20.5001 420.332,-17 410.332,-13.5001 410.332,-20.5001"/>
</g>
</g>
</svg>
