<?xml version="1.0" encoding="UTF-8" standalone="no"?>
<!DOCTYPE svg PUBLIC "-//W3C//DTD SVG 1.1//EN"
 "http://www.w3.org/Graphics/SVG/1.1/DTD/svg11.dtd">
<!-- Generated by graphviz version 2.28.0 (20111219.2309)
 -->
<!-- Title: G Pages: 1 -->
<svg width="2064pt" height="236pt"
 viewBox="0.00 0.00 2064.00 236.00" xmlns="http://www.w3.org/2000/svg" xmlns:xlink="http://www.w3.org/1999/xlink">
<g id="graph1" class="graph" transform="scale(1 1) rotate(0) translate(4 232)">
<title>G</title>
<polygon fill="white" stroke="white" points="-4,5 -4,-232 2061,-232 2061,5 -4,5"/>
<!-- Node1 -->
<g id="node1" class="node"><title>Node1</title>
<polygon fill="#bfbfbf" stroke="black" points="0,-142.5 0,-161.5 244,-161.5 244,-142.5 0,-142.5"/>
<text text-anchor="middle" x="122" y="-149.5" font-family="Ubuntu-R" font-size="10.00">forcebalance.Mol2.mol2_atom.set_subst_name</text>
</g>
<!-- Node2 -->
<g id="node3" class="node"><title>Node2</title>
<a xlink:href="classforcebalance_1_1Mol2_1_1mol2__atom.html#a2b8855f5349976b26917fee353618354" target="_top" xlink:title="Never to use (in theory)">
<polygon fill="white" stroke="black" points="280,-142.5 280,-161.5 512,-161.5 512,-142.5 280,-142.5"/>
<text text-anchor="middle" x="396" y="-149.5" font-family="Ubuntu-R" font-size="10.00">forcebalance.Mol2.mol2_atom.set_status_bit</text>
</a>
</g>
<!-- Node1&#45;&gt;Node2 -->
<g id="edge2" class="edge"><title>Node1&#45;&gt;Node2</title>
<path fill="none" stroke="midnightblue" d="M244.283,-152C252.643,-152 261.077,-152 269.459,-152"/>
<polygon fill="midnightblue" stroke="midnightblue" points="269.647,-155.5 279.647,-152 269.647,-148.5 269.647,-155.5"/>
</g>
<!-- Node3 -->
<g id="node5" class="node"><title>Node3</title>
<a xlink:href="classforcebalance_1_1Mol2_1_1mol2__atom.html#a1d745e4db9ba351cb8e4e53bf544132c" target="_top" xlink:title="if data is passed, it will be installed">
<polygon fill="white" stroke="black" points="548,-180.5 548,-199.5 748,-199.5 748,-180.5 548,-180.5"/>
<text text-anchor="middle" x="648" y="-187.5" font-family="Ubuntu-R" font-size="10.00">forcebalance.Mol2.mol2_atom.__init__</text>
</a>
</g>
<!-- Node2&#45;&gt;Node3 -->
<g id="edge4" class="edge"><title>Node2&#45;&gt;Node3</title>
<path fill="none" stroke="midnightblue" d="M459.763,-161.54C494.534,-166.825 537.93,-173.421 574.187,-178.932"/>
<polygon fill="midnightblue" stroke="midnightblue" points="573.799,-182.414 584.211,-180.456 574.851,-175.493 573.799,-182.414"/>
</g>
<!-- Node4 -->
<g id="node7" class="node"><title>Node4</title>
<a xlink:href="classforcebalance_1_1Mol2_1_1mol2__atom.html#a29aaa00b8fa91f4d18cef387622d339d" target="_top" xlink:title="split the text line into a series of properties">
<polygon fill="white" stroke="black" points="552.5,-104.5 552.5,-123.5 743.5,-123.5 743.5,-104.5 552.5,-104.5"/>
<text text-anchor="middle" x="648" y="-111.5" font-family="Ubuntu-R" font-size="10.00">forcebalance.Mol2.mol2_atom.parse</text>
</a>
</g>
<!-- Node2&#45;&gt;Node4 -->
<g id="edge6" class="edge"><title>Node2&#45;&gt;Node4</title>
<path fill="none" stroke="midnightblue" d="M428.917,-142.461C457.616,-136.454 501.418,-129.135 542.257,-123.25"/>
<polygon fill="midnightblue" stroke="midnightblue" points="542.88,-126.697 552.288,-121.826 541.895,-119.767 542.88,-126.697"/>
</g>
<!-- Node9 -->
<g id="node22" class="node"><title>Node9</title>
<a xlink:href="classforcebalance_1_1Mol2_1_1mol2__atom.html#a2e0ecf1c6da8fde8ab146d4341ac1341" target="_top" xlink:title="assemble the properties as a text line, and return it">
<polygon fill="white" stroke="black" points="784.5,-142.5 784.5,-161.5 989.5,-161.5 989.5,-142.5 784.5,-142.5"/>
<text text-anchor="middle" x="887" y="-149.5" font-family="Ubuntu-R" font-size="10.00">forcebalance.Mol2.mol2_atom.__repr__</text>
</a>
</g>
<!-- Node2&#45;&gt;Node9 -->
<g id="edge36" class="edge"><title>Node2&#45;&gt;Node9</title>
<path fill="none" stroke="midnightblue" d="M512.267,-152C591.309,-152 695.639,-152 773.977,-152"/>
<polygon fill="midnightblue" stroke="midnightblue" points="774.366,-155.5 784.366,-152 774.366,-148.5 774.366,-155.5"/>
</g>
<!-- Node4&#45;&gt;Node1 -->
<g id="edge20" class="edge"><title>Node4&#45;&gt;Node1</title>
<path fill="none" stroke="midnightblue" d="M552.209,-117.118C478.031,-119.99 372.327,-125.033 280,-133 254.997,-135.158 227.833,-138.197 203.239,-141.213"/>
<polygon fill="midnightblue" stroke="midnightblue" points="202.724,-137.75 193.232,-142.456 203.587,-144.696 202.724,-137.75"/>
</g>
<!-- Node4&#45;&gt;Node2 -->
<g id="edge24" class="edge"><title>Node4&#45;&gt;Node2</title>
<path fill="none" stroke="midnightblue" d="M615.258,-123.503C589.346,-128.933 551.038,-135.442 513.719,-140.996"/>
<polygon fill="midnightblue" stroke="midnightblue" points="513.133,-137.544 503.748,-142.46 514.15,-144.47 513.133,-137.544"/>
</g>
<!-- Node5 -->
<g id="node9" class="node"><title>Node5</title>
<a xlink:href="classforcebalance_1_1Mol2_1_1mol2__atom.html#a3a6c9728119ace119108183920689a9d" target="_top" xlink:title="the coordinates of the atom">
<polygon fill="white" stroke="black" points="1321.5,-66.5 1321.5,-85.5 1526.5,-85.5 1526.5,-66.5 1321.5,-66.5"/>
<text text-anchor="middle" x="1424" y="-73.5" font-family="Ubuntu-R" font-size="10.00">forcebalance.Mol2.mol2_atom.set_crds</text>
</a>
</g>
<!-- Node4&#45;&gt;Node5 -->
<g id="edge8" class="edge"><title>Node4&#45;&gt;Node5</title>
<path fill="none" stroke="midnightblue" d="M732.462,-104.478C749.496,-102.779 767.312,-101.177 784,-100 968.508,-86.9822 1183.52,-80.7432 1311.17,-77.9734"/>
<polygon fill="midnightblue" stroke="midnightblue" points="1311.43,-81.4689 1321.35,-77.756 1311.28,-74.4705 1311.43,-81.4689"/>
</g>
<!-- Node6 -->
<g id="node11" class="node"><title>Node6</title>
<a xlink:href="classforcebalance_1_1Mol2_1_1mol2__atom.html#ae879ba27197a573b6e3e1e97f0b76aff" target="_top" xlink:title="substructure identifier">
<polygon fill="white" stroke="black" points="1578,-28.5 1578,-47.5 1802,-47.5 1802,-28.5 1578,-28.5"/>
<text text-anchor="middle" x="1690" y="-35.5" font-family="Ubuntu-R" font-size="10.00">forcebalance.Mol2.mol2_atom.set_subst_id</text>
</a>
</g>
<!-- Node4&#45;&gt;Node6 -->
<g id="edge18" class="edge"><title>Node4&#45;&gt;Node6</title>
<path fill="none" stroke="midnightblue" d="M685.682,-104.477C712.679,-97.8715 750.377,-89.4845 784,-85 1062.67,-47.8326 1393.24,-39.6524 1567.49,-38.1013"/>
<polygon fill="midnightblue" stroke="midnightblue" points="1567.74,-41.5994 1577.71,-38.0163 1567.68,-34.5996 1567.74,-41.5994"/>
</g>
<!-- Node7 -->
<g id="node13" class="node"><title>Node7</title>
<a xlink:href="classforcebalance_1_1Mol2_1_1mol2__atom.html#abfe80eac2952ad867d87e8b6e64f3c09" target="_top" xlink:title="atomic charge">
<polygon fill="white" stroke="black" points="1838,-9.5 1838,-28.5 2056,-28.5 2056,-9.5 1838,-9.5"/>
<text text-anchor="middle" x="1947" y="-16.5" font-family="Ubuntu-R" font-size="10.00">forcebalance.Mol2.mol2_atom.set_charge</text>
</a>
</g>
<!-- Node4&#45;&gt;Node7 -->
<g id="edge22" class="edge"><title>Node4&#45;&gt;Node7</title>
<path fill="none" stroke="midnightblue" d="M669.106,-104.354C695.073,-92.2728 741.937,-71.739 784,-60 941.504,-16.0436 983.478,-1.42109e-14 1147,-0 1147,-0 1147,-0 1425,-0 1563.32,-0 1722.16,-6.77074 1827.73,-12.2286"/>
<polygon fill="midnightblue" stroke="midnightblue" points="1827.61,-15.7269 1837.78,-12.7524 1827.97,-8.73641 1827.61,-15.7269"/>
</g>
<!-- Node8 -->
<g id="node15" class="node"><title>Node8</title>
<a xlink:href="classforcebalance_1_1Mol2_1_1mol2__atom.html#a233ebfedcde7e5d75b0ec54f194d2b4f" target="_top" xlink:title="The mol2 type of the atom.">
<polygon fill="white" stroke="black" points="1306,-180.5 1306,-199.5 1542,-199.5 1542,-180.5 1306,-180.5"/>
<text text-anchor="middle" x="1424" y="-187.5" font-family="Ubuntu-R" font-size="10.00">forcebalance.Mol2.mol2_atom.set_atom_type</text>
</a>
</g>
<!-- Node4&#45;&gt;Node8 -->
<g id="edge14" class="edge"><title>Node4&#45;&gt;Node8</title>
<path fill="none" stroke="midnightblue" d="M743.696,-107.43C866.394,-101.066 1086.35,-96.9946 1270,-133 1314.93,-141.809 1364.07,-162.193 1394.22,-176.039"/>
<polygon fill="midnightblue" stroke="midnightblue" points="1392.77,-179.225 1403.32,-180.281 1395.73,-172.881 1392.77,-179.225"/>
</g>
<!-- Node4&#45;&gt;Node9 -->
<g id="edge26" class="edge"><title>Node4&#45;&gt;Node9</title>
<path fill="none" stroke="midnightblue" d="M708.499,-123.54C741.321,-128.803 782.251,-135.365 816.533,-140.862"/>
<polygon fill="midnightblue" stroke="midnightblue" points="816.048,-144.329 826.476,-142.456 817.157,-137.417 816.048,-144.329"/>
</g>
<!-- Node5&#45;&gt;Node6 -->
<g id="edge10" class="edge"><title>Node5&#45;&gt;Node6</title>
<path fill="none" stroke="midnightblue" d="M1491.28,-66.46C1528.15,-61.1523 1574.21,-54.5222 1612.6,-48.9969"/>
<polygon fill="midnightblue" stroke="midnightblue" points="1613.3,-52.433 1622.7,-47.5439 1612.3,-45.5044 1613.3,-52.433"/>
</g>
<!-- Node6&#45;&gt;Node7 -->
<g id="edge12" class="edge"><title>Node6&#45;&gt;Node7</title>
<path fill="none" stroke="midnightblue" d="M1802.1,-29.7216C1810.59,-29.0891 1819.18,-28.4492 1827.71,-27.8135"/>
<polygon fill="midnightblue" stroke="midnightblue" points="1827.98,-31.3032 1837.7,-27.0698 1827.46,-24.3226 1827.98,-31.3032"/>
</g>
<!-- Node8&#45;&gt;Node1 -->
<g id="edge16" class="edge"><title>Node8&#45;&gt;Node1</title>
<path fill="none" stroke="midnightblue" d="M1354.95,-199.544C1328.48,-202.97 1297.87,-206.58 1270,-209 1100.65,-223.707 1057.99,-228 888,-228 647,-228 647,-228 647,-228 470.459,-228 263.894,-185.227 171.71,-163.858"/>
<polygon fill="midnightblue" stroke="midnightblue" points="172.366,-160.417 161.832,-161.548 170.773,-167.234 172.366,-160.417"/>
</g>
<!-- Node10 -->
<g id="node24" class="node"><title>Node10</title>
<a xlink:href="classforcebalance_1_1Mol2_1_1mol2__atom.html#a1af054109bd2d27c29e89b5da0f70920" target="_top" xlink:title="atom identifier (integer, starting from 1)">
<polygon fill="white" stroke="black" points="1036,-142.5 1036,-161.5 1260,-161.5 1260,-142.5 1036,-142.5"/>
<text text-anchor="middle" x="1148" y="-149.5" font-family="Ubuntu-R" font-size="10.00">forcebalance.Mol2.mol2_atom.set_atom_id</text>
</a>
</g>
<!-- Node9&#45;&gt;Node10 -->
<g id="edge28" class="edge"><title>Node9&#45;&gt;Node10</title>
<path fill="none" stroke="midnightblue" d="M989.62,-152C1001.47,-152 1013.64,-152 1025.72,-152"/>
<polygon fill="midnightblue" stroke="midnightblue" points="1025.83,-155.5 1035.83,-152 1025.83,-148.5 1025.83,-155.5"/>
</g>
<!-- Node11 -->
<g id="node27" class="node"><title>Node11</title>
<a xlink:href="classforcebalance_1_1Mol2_1_1mol2__atom.html#a4d57220ec5b591ad018112d600d4cc8b" target="_top" xlink:title="The name of the atom (string)">
<polygon fill="white" stroke="black" points="1026.5,-180.5 1026.5,-199.5 1269.5,-199.5 1269.5,-180.5 1026.5,-180.5"/>
<text text-anchor="middle" x="1148" y="-187.5" font-family="Ubuntu-R" font-size="10.00">forcebalance.Mol2.mol2_atom.set_atom_name</text>
</a>
</g>
<!-- Node9&#45;&gt;Node11 -->
<g id="edge32" class="edge"><title>Node9&#45;&gt;Node11</title>
<path fill="none" stroke="midnightblue" d="M953.022,-161.54C989.199,-166.848 1034.39,-173.478 1072.05,-179.003"/>
<polygon fill="midnightblue" stroke="midnightblue" points="1071.55,-182.467 1081.95,-180.456 1072.56,-175.541 1071.55,-182.467"/>
</g>
<!-- Node10&#45;&gt;Node5 -->
<g id="edge30" class="edge"><title>Node10&#45;&gt;Node5</title>
<path fill="none" stroke="midnightblue" d="M1183.42,-142.452C1232.95,-128.715 1324.31,-103.373 1378.78,-88.2658"/>
<polygon fill="midnightblue" stroke="midnightblue" points="1379.8,-91.6148 1388.5,-85.5692 1377.93,-84.8694 1379.8,-91.6148"/>
</g>
<!-- Node11&#45;&gt;Node8 -->
<g id="edge34" class="edge"><title>Node11&#45;&gt;Node8</title>
<path fill="none" stroke="midnightblue" d="M1269.58,-190C1278.25,-190 1287,-190 1295.71,-190"/>
<polygon fill="midnightblue" stroke="midnightblue" points="1295.9,-193.5 1305.9,-190 1295.9,-186.5 1295.9,-193.5"/>
</g>
</g>
</svg>
