<?xml version="1.0" encoding="UTF-8" standalone="no"?>
<!DOCTYPE svg PUBLIC "-//W3C//DTD SVG 1.1//EN"
 "http://www.w3.org/Graphics/SVG/1.1/DTD/svg11.dtd">
<!-- Generated by graphviz version 2.40.1 (20161225.0304)
 -->
<!-- Title: src.forcefield.FF.make Pages: 1 -->
<svg width="413pt" height="215pt"
 viewBox="0.00 0.00 413.00 214.50" xmlns="http://www.w3.org/2000/svg" xmlns:xlink="http://www.w3.org/1999/xlink">
<g id="graph0" class="graph" transform="scale(1 1) rotate(0) translate(4 210.5)">
<title>src.forcefield.FF.make</title>
<polygon fill="#ffffff" stroke="transparent" points="-4,4 -4,-210.5 409,-210.5 409,4 -4,4"/>
<!-- Node47 -->
<g id="node1" class="node">
<title>Node47</title>
<polygon fill="#bfbfbf" stroke="#000000" points="0,-88.5 0,-107.5 122,-107.5 122,-88.5 0,-88.5"/>
<text text-anchor="middle" x="61" y="-95.5" font-family="Ubuntu-R" font-size="10.00" fill="#000000">src.forcefield.FF.make</text>
</g>
<!-- Node48 -->
<g id="node2" class="node">
<title>Node48</title>
<g id="a_node2"><a xlink:href="classsrc_1_1ffyapf_1_1FF.html#a349f2f0f401834f86f9361d8ec32ad0a" target="_top" xlink:title="Converts mathematical to physical parameters. ">
<polygon fill="#ffffff" stroke="#000000" points="173,-127 173,-157 280,-157 280,-127 173,-127"/>
<text text-anchor="start" x="181" y="-145" font-family="Ubuntu-R" font-size="10.00" fill="#000000">src.ffyapf.FF.create</text>
<text text-anchor="middle" x="226.5" y="-134" font-family="Ubuntu-R" font-size="10.00" fill="#000000">_pvals</text>
</a>
</g>
</g>
<!-- Node47&#45;&gt;Node48 -->
<g id="edge1" class="edge">
<title>Node47&#45;&gt;Node48</title>
<path fill="none" stroke="#191970" d="M96.911,-107.5473C116.2065,-112.6773 140.5683,-119.1541 162.9474,-125.1038"/>
<polygon fill="#191970" stroke="#191970" points="162.1658,-128.5176 172.7294,-127.7045 163.9644,-121.7526 162.1658,-128.5176"/>
</g>
<!-- Node51 -->
<g id="node5" class="node">
<title>Node51</title>
<g id="a_node5"><a xlink:href="classsrc_1_1forcefield_1_1FF.html#ad467744db1396ec74adab0c113317d36" target="_top" xlink:title="Converts mathematical to physical parameters. ">
<polygon fill="#ffffff" stroke="#000000" points="164,-176 164,-206 289,-206 289,-176 164,-176"/>
<text text-anchor="start" x="172" y="-194" font-family="Ubuntu-R" font-size="10.00" fill="#000000">src.forcefield.FF.create</text>
<text text-anchor="middle" x="226.5" y="-183" font-family="Ubuntu-R" font-size="10.00" fill="#000000">_pvals</text>
</a>
</g>
</g>
<!-- Node47&#45;&gt;Node51 -->
<g id="edge4" class="edge">
<title>Node47&#45;&gt;Node51</title>
<path fill="none" stroke="#191970" d="M72.5996,-107.6577C90.1707,-121.9221 124.9936,-148.788 158,-166 162.0235,-168.0981 166.2631,-170.0989 170.5796,-171.9883"/>
<polygon fill="#191970" stroke="#191970" points="169.5199,-175.338 180.0976,-175.9414 172.2049,-168.8734 169.5199,-175.338"/>
</g>
<!-- Node52 -->
<g id="node6" class="node">
<title>Node52</title>
<g id="a_node6"><a xlink:href="namespacesrc_1_1nifty.html#a6ae2951ba2a22420a11abda6be7e5454" target="_top" xlink:title="src.nifty.warn_press_key">
<polygon fill="#ffffff" stroke="#000000" points="158,-88.5 158,-107.5 295,-107.5 295,-88.5 158,-88.5"/>
<text text-anchor="middle" x="226.5" y="-95.5" font-family="Ubuntu-R" font-size="10.00" fill="#000000">src.nifty.warn_press_key</text>
</a>
</g>
</g>
<!-- Node47&#45;&gt;Node52 -->
<g id="edge7" class="edge">
<title>Node47&#45;&gt;Node52</title>
<path fill="none" stroke="#191970" d="M122.1559,-98C130.4948,-98 139.1484,-98 147.7443,-98"/>
<polygon fill="#191970" stroke="#191970" points="147.7864,-101.5001 157.7864,-98 147.7864,-94.5001 147.7864,-101.5001"/>
</g>
<!-- Node53 -->
<g id="node7" class="node">
<title>Node53</title>
<g id="a_node7"><a xlink:href="namespacesrc_1_1smirnoffio.html#aa6131a8e15712415535410609a0c9900" target="_top" xlink:title="Assign a SMIRNOFF parameter given the openforcefield.ForceField object, the desired parameter value...">
<polygon fill="#ffffff" stroke="#000000" points="167.5,-39 167.5,-69 285.5,-69 285.5,-39 167.5,-39"/>
<text text-anchor="start" x="175.5" y="-57" font-family="Ubuntu-R" font-size="10.00" fill="#000000">src.smirnoffio.assign</text>
<text text-anchor="middle" x="226.5" y="-46" font-family="Ubuntu-R" font-size="10.00" fill="#000000">_openff_parameter</text>
</a>
</g>
</g>
<!-- Node47&#45;&gt;Node53 -->
<g id="edge8" class="edge">
<title>Node47&#45;&gt;Node53</title>
<path fill="none" stroke="#191970" d="M96.911,-88.4527C115.378,-83.543 138.4855,-77.3996 160.0542,-71.6653"/>
<polygon fill="#191970" stroke="#191970" points="161.0687,-75.0173 169.8337,-69.0654 159.2701,-68.2523 161.0687,-75.0173"/>
</g>
<!-- Node54 -->
<g id="node8" class="node">
<title>Node54</title>
<g id="a_node8"><a xlink:href="namespacesrc_1_1nifty.html#a82f89e3045bdeed09a928bb9ce8b0dc1" target="_top" xlink:title="If trying to write to a symbolic link, remove it first. ">
<polygon fill="#ffffff" stroke="#000000" points="181.5,-.5 181.5,-19.5 271.5,-19.5 271.5,-.5 181.5,-.5"/>
<text text-anchor="middle" x="226.5" y="-7.5" font-family="Ubuntu-R" font-size="10.00" fill="#000000">src.nifty.wopen</text>
</a>
</g>
</g>
<!-- Node47&#45;&gt;Node54 -->
<g id="edge9" class="edge">
<title>Node47&#45;&gt;Node54</title>
<path fill="none" stroke="#191970" d="M71.8346,-88.3344C88.9593,-73.5325 123.8547,-45.2603 158,-29 162.9445,-26.6454 168.233,-24.5362 173.5977,-22.6581"/>
<polygon fill="#191970" stroke="#191970" points="174.8429,-25.9339 183.2787,-19.524 172.6868,-19.2742 174.8429,-25.9339"/>
</g>
<!-- Node49 -->
<g id="node3" class="node">
<title>Node49</title>
<g id="a_node3"><a xlink:href="namespacesrc_1_1nifty.html#ac5b7efc0b11b4fcbb7d0c37c97c4399d" target="_top" xlink:title="Given any list, array, or matrix, return a single&#45;index array. ">
<polygon fill="#ffffff" stroke="#000000" points="331,-178.5 331,-197.5 405,-197.5 405,-178.5 331,-178.5"/>
<text text-anchor="middle" x="368" y="-185.5" font-family="Ubuntu-R" font-size="10.00" fill="#000000">src.nifty.flat</text>
</a>
</g>
</g>
<!-- Node48&#45;&gt;Node49 -->
<g id="edge2" class="edge">
<title>Node48&#45;&gt;Node49</title>
<path fill="none" stroke="#191970" d="M272.8324,-157.0621C290.8894,-162.9322 311.3651,-169.5886 328.6856,-175.2193"/>
<polygon fill="#191970" stroke="#191970" points="327.8847,-178.6392 338.4769,-178.4024 330.0489,-171.9822 327.8847,-178.6392"/>
</g>
<!-- Node50 -->
<g id="node4" class="node">
<title>Node50</title>
<g id="a_node4"><a xlink:href="namespacesrc_1_1nifty.html#a9548285fa85a369d98169ec25abe974c" target="_top" xlink:title="Given any list, array, or matrix, return a 1&#45;column 2D array. ">
<polygon fill="#ffffff" stroke="#000000" points="332,-137.5 332,-156.5 404,-156.5 404,-137.5 332,-137.5"/>
<text text-anchor="middle" x="368" y="-144.5" font-family="Ubuntu-R" font-size="10.00" fill="#000000">src.nifty.col</text>
</a>
</g>
</g>
<!-- Node48&#45;&gt;Node50 -->
<g id="edge3" class="edge">
<title>Node48&#45;&gt;Node50</title>
<path fill="none" stroke="#191970" d="M280.3987,-143.9045C293.9566,-144.3836 308.3911,-144.8937 321.5492,-145.3586"/>
<polygon fill="#191970" stroke="#191970" points="321.6696,-148.865 331.787,-145.7204 321.9169,-141.8693 321.6696,-148.865"/>
</g>
<!-- Node51&#45;&gt;Node49 -->
<g id="edge5" class="edge">
<title>Node51&#45;&gt;Node49</title>
<path fill="none" stroke="#191970" d="M289.388,-189.6667C299.906,-189.4437 310.6588,-189.2157 320.7008,-189.0028"/>
<polygon fill="#191970" stroke="#191970" points="320.9452,-192.4985 330.8688,-188.7872 320.7968,-185.5001 320.9452,-192.4985"/>
</g>
<!-- Node51&#45;&gt;Node50 -->
<g id="edge6" class="edge">
<title>Node51&#45;&gt;Node50</title>
<path fill="none" stroke="#191970" d="M274.8005,-175.9808C291.9061,-170.6617 310.965,-164.7353 327.3682,-159.6346"/>
<polygon fill="#191970" stroke="#191970" points="328.6874,-162.8898 337.1971,-156.5783 326.6088,-156.2055 328.6874,-162.8898"/>
</g>
</g>
</svg>
