<?xml version="1.0" encoding="UTF-8" standalone="no"?>
<!DOCTYPE svg PUBLIC "-//W3C//DTD SVG 1.1//EN"
 "http://www.w3.org/Graphics/SVG/1.1/DTD/svg11.dtd">
<!-- Generated by graphviz version 2.26.3 (20100126.1600)
 -->
<!-- Title: forcebalance.tinkerio.Interaction_TINKER Pages: 1 -->
<svg width="178pt" height="290pt"
 viewBox="0.00 0.00 178.00 290.00" xmlns="http://www.w3.org/2000/svg" xmlns:xlink="http://www.w3.org/1999/xlink">
<g id="graph1" class="graph" transform="scale(1 1) rotate(0) translate(4 286)">
<title>forcebalance.tinkerio.Interaction_TINKER</title>
<polygon fill="white" stroke="white" points="-4,5 -4,-286 175,-286 175,5 -4,5"/>
<!-- Node1 -->
<g id="node1" class="node"><title>Node1</title>
<polygon fill="#bfbfbf" stroke="black" points="0,-1 0,-35 170,-35 170,-1 0,-1"/>
<text text-anchor="start" x="8" y="-22" font-family="Ubuntu-R" font-size="10.00">forcebalance.tinkerio.Interaction</text>
<text text-anchor="middle" x="85" y="-9" font-family="Ubuntu-R" font-size="10.00">_TINKER</text>
</g>
<!-- Node2 -->
<g id="node2" class="node"><title>Node2</title>
<a xlink:href="classforcebalance_1_1interaction_1_1Interaction.html" target="_top" xlink:title="Subclass of Target for fitting force fields to interaction energies.">
<polygon fill="white" stroke="black" points="17.5,-73 17.5,-107 152.5,-107 152.5,-73 17.5,-73"/>
<text text-anchor="start" x="25.5" y="-94" font-family="Ubuntu-R" font-size="10.00">forcebalance.interaction.</text>
<text text-anchor="middle" x="85" y="-81" font-family="Ubuntu-R" font-size="10.00">Interaction</text>
</a>
</g>
<!-- Node2&#45;&gt;Node1 -->
<g id="edge2" class="edge"><title>Node2&#45;&gt;Node1</title>
<path fill="none" stroke="midnightblue" d="M85,-62.7193C85,-53.572 85,-43.6255 85,-35.4407"/>
<polygon fill="midnightblue" stroke="midnightblue" points="81.5001,-62.937 85,-72.937 88.5001,-62.937 81.5001,-62.937"/>
</g>
<!-- Node3 -->
<g id="node4" class="node"><title>Node3</title>
<a xlink:href="classforcebalance_1_1target_1_1Target.html" target="_top" xlink:title="Base class for all fitting targets.">
<polygon fill="white" stroke="black" points="14,-144.5 14,-165.5 156,-165.5 156,-144.5 14,-144.5"/>
<text text-anchor="middle" x="85" y="-152.5" font-family="Ubuntu-R" font-size="10.00">forcebalance.target.Target</text>
</a>
</g>
<!-- Node3&#45;&gt;Node2 -->
<g id="edge4" class="edge"><title>Node3&#45;&gt;Node2</title>
<path fill="none" stroke="midnightblue" d="M85,-134.131C85,-125.405 85,-115.391 85,-107.11"/>
<polygon fill="midnightblue" stroke="midnightblue" points="81.5001,-134.267 85,-144.267 88.5001,-134.267 81.5001,-134.267"/>
</g>
<!-- Node4 -->
<g id="node6" class="node"><title>Node4</title>
<a xlink:href="classforcebalance_1_1BaseClass.html" target="_top" xlink:title="Provides some nifty functions that are common to all ForceBalance classes.">
<polygon fill="white" stroke="black" points="20,-202.5 20,-223.5 150,-223.5 150,-202.5 20,-202.5"/>
<text text-anchor="middle" x="85" y="-210.5" font-family="Ubuntu-R" font-size="10.00">forcebalance.BaseClass</text>
</a>
</g>
<!-- Node4&#45;&gt;Node3 -->
<g id="edge6" class="edge"><title>Node4&#45;&gt;Node3</title>
<path fill="none" stroke="midnightblue" d="M85,-192.191C85,-183.168 85,-172.994 85,-165.571"/>
<polygon fill="midnightblue" stroke="midnightblue" points="81.5001,-192.362 85,-202.362 88.5001,-192.362 81.5001,-192.362"/>
</g>
<!-- Node5 -->
<g id="node8" class="node"><title>Node5</title>
<polygon fill="white" stroke="#bfbfbf" points="62,-260.5 62,-281.5 108,-281.5 108,-260.5 62,-260.5"/>
<text text-anchor="middle" x="85" y="-268.5" font-family="Ubuntu-R" font-size="10.00">object</text>
</g>
<!-- Node5&#45;&gt;Node4 -->
<g id="edge8" class="edge"><title>Node5&#45;&gt;Node4</title>
<path fill="none" stroke="midnightblue" d="M85,-250.191C85,-241.168 85,-230.994 85,-223.571"/>
<polygon fill="midnightblue" stroke="midnightblue" points="81.5001,-250.362 85,-260.362 88.5001,-250.362 81.5001,-250.362"/>
</g>
</g>
</svg>
