<?xml version="1.0" encoding="UTF-8" standalone="no"?>
<!DOCTYPE svg PUBLIC "-//W3C//DTD SVG 1.1//EN"
 "http://www.w3.org/Graphics/SVG/1.1/DTD/svg11.dtd">
<!-- Generated by graphviz version 2.26.3 (20100126.1600)
 -->
<!-- Title: forcebalance.forcefield.FF.assign_p0 Pages: 1 -->
<svg width="300pt" height="42pt"
 viewBox="0.00 0.00 300.00 42.00" xmlns="http://www.w3.org/2000/svg" xmlns:xlink="http://www.w3.org/1999/xlink">
<g id="graph1" class="graph" transform="scale(1 1) rotate(0) translate(4 38)">
<title>forcebalance.forcefield.FF.assign_p0</title>
<polygon fill="white" stroke="white" points="-4,5 -4,-38 297,-38 297,5 -4,5"/>
<!-- Node1 -->
<g id="node1" class="node"><title>Node1</title>
<polygon fill="#bfbfbf" stroke="black" points="0.5,-0 0.5,-34 127.5,-34 127.5,-0 0.5,-0"/>
<text text-anchor="start" x="8.5" y="-21" font-family="Ubuntu-R" font-size="10.00">forcebalance.forcefield.</text>
<text text-anchor="middle" x="64" y="-8" font-family="Ubuntu-R" font-size="10.00">FF.assign_p0</text>
</g>
<!-- Node2 -->
<g id="node3" class="node"><title>Node2</title>
<a xlink:href="classforcebalance_1_1forcefield_1_1FF.html#a8e7047c4b41a755c24996c9e1619df0b" target="_top" xlink:title="forcebalance.forcefield.\lFF.__eq__">
<polygon fill="white" stroke="black" points="164.5,-0 164.5,-34 291.5,-34 291.5,-0 164.5,-0"/>
<text text-anchor="start" x="172.5" y="-21" font-family="Ubuntu-R" font-size="10.00">forcebalance.forcefield.</text>
<text text-anchor="middle" x="228" y="-8" font-family="Ubuntu-R" font-size="10.00">FF.__eq__</text>
</a>
</g>
<!-- Node1&#45;&gt;Node2 -->
<g id="edge2" class="edge"><title>Node1&#45;&gt;Node2</title>
<path fill="none" stroke="midnightblue" d="M127.876,-17C136.474,-17 145.351,-17 154.104,-17"/>
<polygon fill="midnightblue" stroke="midnightblue" points="154.298,-20.5001 164.298,-17 154.298,-13.5001 154.298,-20.5001"/>
</g>
</g>
</svg>
