<?xml version="1.0" encoding="UTF-8" standalone="no"?>
<!DOCTYPE svg PUBLIC "-//W3C//DTD SVG 1.1//EN"
 "http://www.w3.org/Graphics/SVG/1.1/DTD/svg11.dtd">
<!-- Generated by graphviz version 2.28.0 (20111219.2309)
 -->
<!-- Title: forcebalance.tinkerio.AbInitio_TINKER.__init__ Pages: 1 -->
<svg width="1588pt" height="191pt"
 viewBox="0.00 0.00 1588.00 191.00" xmlns="http://www.w3.org/2000/svg" xmlns:xlink="http://www.w3.org/1999/xlink">
<g id="graph1" class="graph" transform="scale(1 1) rotate(0) translate(4 187)">
<title>forcebalance.tinkerio.AbInitio_TINKER.__init__</title>
<polygon fill="white" stroke="white" points="-4,5 -4,-187 1585,-187 1585,5 -4,5"/>
<!-- Node1 -->
<g id="node1" class="node"><title>Node1</title>
<polygon fill="#bfbfbf" stroke="black" points="0,-0 0,-30 132,-30 132,-0 0,-0"/>
<text text-anchor="start" x="8" y="-18" font-family="Ubuntu-R" font-size="10.00">forcebalance.tinkerio.Ab</text>
<text text-anchor="middle" x="66" y="-7" font-family="Ubuntu-R" font-size="10.00">Initio_TINKER.__init__</text>
</g>
<!-- Node2 -->
<g id="node3" class="node"><title>Node2</title>
<a xlink:href="classforcebalance_1_1tinkerio_1_1AbInitio__TINKER.html#a4f0decc929da6183f1d0d6229fc9733d" target="_top" xlink:title="forcebalance.tinkerio.Ab\lInitio_TINKER.prepare\l_temp_directory">
<polygon fill="white" stroke="black" points="168,-19.5 168,-60.5 300,-60.5 300,-19.5 168,-19.5"/>
<text text-anchor="start" x="176" y="-48.5" font-family="Ubuntu-R" font-size="10.00">forcebalance.tinkerio.Ab</text>
<text text-anchor="start" x="176" y="-37.5" font-family="Ubuntu-R" font-size="10.00">Initio_TINKER.prepare</text>
<text text-anchor="middle" x="234" y="-26.5" font-family="Ubuntu-R" font-size="10.00">_temp_directory</text>
</a>
</g>
<!-- Node1&#45;&gt;Node2 -->
<g id="edge2" class="edge"><title>Node1&#45;&gt;Node2</title>
<path fill="none" stroke="midnightblue" d="M132.131,-24.8089C140.553,-26.0773 149.232,-27.3844 157.8,-28.6747"/>
<polygon fill="midnightblue" stroke="midnightblue" points="157.374,-32.15 167.784,-30.1783 158.417,-25.2281 157.374,-32.15"/>
</g>
<!-- Node3 -->
<g id="node5" class="node"><title>Node3</title>
<a xlink:href="classforcebalance_1_1tinkerio_1_1AbInitio__TINKER.html#ab3835da0b951f77bfef0f14acd133c26" target="_top" xlink:title="forcebalance.tinkerio.Ab\lInitio_TINKER.energy_force\l_driver">
<polygon fill="white" stroke="black" points="336.5,-85.5 336.5,-126.5 479.5,-126.5 479.5,-85.5 336.5,-85.5"/>
<text text-anchor="start" x="344.5" y="-114.5" font-family="Ubuntu-R" font-size="10.00">forcebalance.tinkerio.Ab</text>
<text text-anchor="start" x="344.5" y="-103.5" font-family="Ubuntu-R" font-size="10.00">Initio_TINKER.energy_force</text>
<text text-anchor="middle" x="408" y="-92.5" font-family="Ubuntu-R" font-size="10.00">_driver</text>
</a>
</g>
<!-- Node2&#45;&gt;Node3 -->
<g id="edge4" class="edge"><title>Node2&#45;&gt;Node3</title>
<path fill="none" stroke="midnightblue" d="M288.479,-60.521C306.114,-67.288 325.889,-74.876 344.157,-81.886"/>
<polygon fill="midnightblue" stroke="midnightblue" points="342.964,-85.1768 353.554,-85.4917 345.472,-78.6414 342.964,-85.1768"/>
</g>
<!-- Node4 -->
<g id="node7" class="node"><title>Node4</title>
<a xlink:href="namespaceforcebalance_1_1molecule.html#a0dd31eff88d2bed0884ab21a13261d42" target="_top" xlink:title="ONLY matches integers! If you have a decimal point? None shall pass! ">
<polygon fill="white" stroke="black" points="523.5,-163.5 523.5,-182.5 670.5,-182.5 670.5,-163.5 523.5,-163.5"/>
<text text-anchor="middle" x="597" y="-170.5" font-family="Ubuntu-R" font-size="10.00">forcebalance.molecule.isint</text>
</a>
</g>
<!-- Node3&#45;&gt;Node4 -->
<g id="edge6" class="edge"><title>Node3&#45;&gt;Node4</title>
<path fill="none" stroke="midnightblue" d="M457.386,-126.526C475.62,-133.974 496.632,-142.219 516,-149 527.547,-153.043 540.173,-157.028 551.912,-160.554"/>
<polygon fill="midnightblue" stroke="midnightblue" points="550.939,-163.916 561.522,-163.399 552.927,-157.204 550.939,-163.916"/>
</g>
<!-- Node5 -->
<g id="node9" class="node"><title>Node5</title>
<a xlink:href="namespaceforcebalance_1_1molecule.html#afe989ffd119568047fc8265b1d329a70" target="_top" xlink:title="Matches ANY number; it can be a decimal, scientific notation, integer, or what have you...">
<polygon fill="white" stroke="black" points="730,-144.5 730,-163.5 886,-163.5 886,-144.5 730,-144.5"/>
<text text-anchor="middle" x="808" y="-151.5" font-family="Ubuntu-R" font-size="10.00">forcebalance.molecule.isfloat</text>
</a>
</g>
<!-- Node3&#45;&gt;Node5 -->
<g id="edge10" class="edge"><title>Node3&#45;&gt;Node5</title>
<path fill="none" stroke="midnightblue" d="M479.696,-114.526C546.792,-122.618 647.812,-134.801 719.86,-143.491"/>
<polygon fill="midnightblue" stroke="midnightblue" points="719.48,-146.97 729.827,-144.693 720.318,-140.02 719.48,-146.97"/>
</g>
<!-- Node6 -->
<g id="node12" class="node"><title>Node6</title>
<a xlink:href="classforcebalance_1_1tinkerio_1_1AbInitio__TINKER.html#aafbf91f1422d7b8f65a4aa588d1c6e18" target="_top" xlink:title="forcebalance.tinkerio.Ab\lInitio_TINKER.energy_driver_all">
<polygon fill="white" stroke="black" points="516.5,-58 516.5,-88 677.5,-88 677.5,-58 516.5,-58"/>
<text text-anchor="start" x="524.5" y="-76" font-family="Ubuntu-R" font-size="10.00">forcebalance.tinkerio.Ab</text>
<text text-anchor="middle" x="597" y="-65" font-family="Ubuntu-R" font-size="10.00">Initio_TINKER.energy_driver_all</text>
</a>
</g>
<!-- Node3&#45;&gt;Node6 -->
<g id="edge12" class="edge"><title>Node3&#45;&gt;Node6</title>
<path fill="none" stroke="midnightblue" d="M479.697,-93.5241C488.414,-91.9858 497.412,-90.3978 506.364,-88.8182"/>
<polygon fill="midnightblue" stroke="midnightblue" points="507.193,-92.226 516.432,-87.0413 505.976,-85.3325 507.193,-92.226"/>
</g>
<!-- Node4&#45;&gt;Node5 -->
<g id="edge8" class="edge"><title>Node4&#45;&gt;Node5</title>
<path fill="none" stroke="midnightblue" d="M670.512,-166.408C686.426,-164.961 703.436,-163.415 719.858,-161.922"/>
<polygon fill="midnightblue" stroke="midnightblue" points="720.349,-165.392 729.991,-161.001 719.715,-158.421 720.349,-165.392"/>
</g>
<!-- Node6&#45;&gt;Node6 -->
<g id="edge32" class="edge"><title>Node6&#45;&gt;Node6</title>
<path fill="none" stroke="midnightblue" d="M563.953,-88.2754C556.609,-97.4062 567.625,-106 597,-106 614.441,-106 625.41,-102.97 629.907,-98.5975"/>
<polygon fill="midnightblue" stroke="midnightblue" points="633.411,-98.3219 630.047,-88.2754 626.412,-98.227 633.411,-98.3219"/>
</g>
<!-- Node7 -->
<g id="node14" class="node"><title>Node7</title>
<a xlink:href="classforcebalance_1_1tinkerio_1_1AbInitio__TINKER.html#a27835affec49391fc41b832839a2b0e8" target="_top" xlink:title="forcebalance.tinkerio.Ab\lInitio_TINKER.energy_force\l_driver_all">
<polygon fill="white" stroke="black" points="736.5,-3.5 736.5,-44.5 879.5,-44.5 879.5,-3.5 736.5,-3.5"/>
<text text-anchor="start" x="744.5" y="-32.5" font-family="Ubuntu-R" font-size="10.00">forcebalance.tinkerio.Ab</text>
<text text-anchor="start" x="744.5" y="-21.5" font-family="Ubuntu-R" font-size="10.00">Initio_TINKER.energy_force</text>
<text text-anchor="middle" x="808" y="-10.5" font-family="Ubuntu-R" font-size="10.00">_driver_all</text>
</a>
</g>
<!-- Node6&#45;&gt;Node7 -->
<g id="edge14" class="edge"><title>Node6&#45;&gt;Node7</title>
<path fill="none" stroke="midnightblue" d="M662.127,-57.9654C682.43,-53.2053 705.136,-47.8819 726.439,-42.8874"/>
<polygon fill="midnightblue" stroke="midnightblue" points="727.503,-46.233 736.44,-40.5427 725.905,-39.4178 727.503,-46.233"/>
</g>
<!-- Node8 -->
<g id="node18" class="node"><title>Node8</title>
<a xlink:href="classforcebalance_1_1openmmio_1_1Interaction__OpenMM.html#a535ff72686dc66b91f5dda007e252189" target="_top" xlink:title="forcebalance.openmmio.Interaction\l_OpenMM.energy_driver_all">
<polygon fill="white" stroke="black" points="714.5,-63 714.5,-93 901.5,-93 901.5,-63 714.5,-63"/>
<text text-anchor="start" x="722.5" y="-81" font-family="Ubuntu-R" font-size="10.00">forcebalance.openmmio.Interaction</text>
<text text-anchor="middle" x="808" y="-70" font-family="Ubuntu-R" font-size="10.00">_OpenMM.energy_driver_all</text>
</a>
</g>
<!-- Node6&#45;&gt;Node8 -->
<g id="edge20" class="edge"><title>Node6&#45;&gt;Node8</title>
<path fill="none" stroke="midnightblue" d="M677.61,-74.9045C686.327,-75.1131 695.289,-75.3275 704.234,-75.5415"/>
<polygon fill="midnightblue" stroke="midnightblue" points="704.231,-79.0423 714.312,-75.7826 704.399,-72.0443 704.231,-79.0423"/>
</g>
<!-- Node7&#45;&gt;Node1 -->
<g id="edge16" class="edge"><title>Node7&#45;&gt;Node1</title>
<path fill="none" stroke="midnightblue" d="M736.078,-20.2873C618.16,-14.5992 374.33,-4.89594 168,-10 159.674,-10.206 150.966,-10.5073 142.303,-10.8615"/>
<polygon fill="midnightblue" stroke="midnightblue" points="142.019,-7.37043 132.18,-11.2992 142.322,-14.3639 142.019,-7.37043"/>
</g>
<!-- Node7&#45;&gt;Node2 -->
<g id="edge18" class="edge"><title>Node7&#45;&gt;Node2</title>
<path fill="none" stroke="midnightblue" d="M736.195,-25.9806C627.697,-29.0155 421.24,-34.7905 310.176,-37.8972"/>
<polygon fill="midnightblue" stroke="midnightblue" points="309.957,-34.4018 300.059,-38.1802 310.153,-41.3991 309.957,-34.4018"/>
</g>
<!-- Node8&#45;&gt;Node8 -->
<g id="edge30" class="edge"><title>Node8&#45;&gt;Node8</title>
<path fill="none" stroke="midnightblue" d="M771.086,-93.2754C762.883,-102.406 775.188,-111 808,-111 827.482,-111 839.735,-107.97 844.758,-103.598"/>
<polygon fill="midnightblue" stroke="midnightblue" points="848.262,-103.327 844.914,-93.2754 841.263,-103.221 848.262,-103.327"/>
</g>
<!-- Node9 -->
<g id="node20" class="node"><title>Node9</title>
<a xlink:href="namespaceforcebalance_1_1openmmio.html#a9f9fc56475dbfcc94a40fef6a84ed25f" target="_top" xlink:title="forcebalance.openmmio.Update\lSimulationParameters">
<polygon fill="white" stroke="black" points="946.5,-87 946.5,-117 1117.5,-117 1117.5,-87 946.5,-87"/>
<text text-anchor="start" x="954.5" y="-105" font-family="Ubuntu-R" font-size="10.00">forcebalance.openmmio.Update</text>
<text text-anchor="middle" x="1032" y="-94" font-family="Ubuntu-R" font-size="10.00">SimulationParameters</text>
</a>
</g>
<!-- Node8&#45;&gt;Node9 -->
<g id="edge22" class="edge"><title>Node8&#45;&gt;Node9</title>
<path fill="none" stroke="midnightblue" d="M901.54,-88.0044C913.043,-89.2479 924.817,-90.5208 936.351,-91.7676"/>
<polygon fill="midnightblue" stroke="midnightblue" points="936.093,-95.2601 946.411,-92.8553 936.846,-88.3007 936.093,-95.2601"/>
</g>
<!-- Node12 -->
<g id="node26" class="node"><title>Node12</title>
<a xlink:href="classforcebalance_1_1openmmio_1_1Interaction__OpenMM.html#a9813c1a24af88156703d05ebe57bf707" target="_top" xlink:title="forcebalance.openmmio.Interaction\l_OpenMM.interaction_driver_all">
<polygon fill="white" stroke="black" points="938.5,-38 938.5,-68 1125.5,-68 1125.5,-38 938.5,-38"/>
<text text-anchor="start" x="946.5" y="-56" font-family="Ubuntu-R" font-size="10.00">forcebalance.openmmio.Interaction</text>
<text text-anchor="middle" x="1032" y="-45" font-family="Ubuntu-R" font-size="10.00">_OpenMM.interaction_driver_all</text>
</a>
</g>
<!-- Node8&#45;&gt;Node12 -->
<g id="edge28" class="edge"><title>Node8&#45;&gt;Node12</title>
<path fill="none" stroke="midnightblue" d="M901.54,-67.5788C910.357,-66.5859 919.334,-65.575 928.24,-64.5721"/>
<polygon fill="midnightblue" stroke="midnightblue" points="928.707,-68.0417 938.253,-63.4445 927.924,-61.0857 928.707,-68.0417"/>
</g>
<!-- Node10 -->
<g id="node22" class="node"><title>Node10</title>
<a xlink:href="namespaceforcebalance_1_1openmmio.html#a95d91538d72e354fc95433539c42450c" target="_top" xlink:title="forcebalance.openmmio.Set\lAmoebaVirtualExclusions">
<polygon fill="white" stroke="black" points="1162,-87 1162,-117 1314,-117 1314,-87 1162,-87"/>
<text text-anchor="start" x="1170" y="-105" font-family="Ubuntu-R" font-size="10.00">forcebalance.openmmio.Set</text>
<text text-anchor="middle" x="1238" y="-94" font-family="Ubuntu-R" font-size="10.00">AmoebaVirtualExclusions</text>
</a>
</g>
<!-- Node9&#45;&gt;Node10 -->
<g id="edge24" class="edge"><title>Node9&#45;&gt;Node10</title>
<path fill="none" stroke="midnightblue" d="M1117.74,-102C1128.97,-102 1140.49,-102 1151.73,-102"/>
<polygon fill="midnightblue" stroke="midnightblue" points="1151.96,-105.5 1161.96,-102 1151.96,-98.5001 1151.96,-105.5"/>
</g>
<!-- Node11 -->
<g id="node24" class="node"><title>Node11</title>
<a xlink:href="namespaceforcebalance_1_1openmmio.html#aa085594c11e9cd00ce71f5a8ead72b68" target="_top" xlink:title="Create a multiple timestep velocity verlet with velocity randomization (VVVR) integrator. ">
<polygon fill="white" stroke="black" points="1350,-92.5 1350,-111.5 1580,-111.5 1580,-92.5 1350,-92.5"/>
<text text-anchor="middle" x="1465" y="-99.5" font-family="Ubuntu-R" font-size="10.00">forcebalance.openmmio.MTSVVVRIntegrator</text>
</a>
</g>
<!-- Node10&#45;&gt;Node11 -->
<g id="edge26" class="edge"><title>Node10&#45;&gt;Node11</title>
<path fill="none" stroke="midnightblue" d="M1314.23,-102C1322.5,-102 1331.06,-102 1339.73,-102"/>
<polygon fill="midnightblue" stroke="midnightblue" points="1339.92,-105.5 1349.92,-102 1339.92,-98.5001 1339.92,-105.5"/>
</g>
</g>
</svg>
