<?xml version="1.0" encoding="UTF-8" standalone="no"?>
<!DOCTYPE svg PUBLIC "-//W3C//DTD SVG 1.1//EN"
 "http://www.w3.org/Graphics/SVG/1.1/DTD/svg11.dtd">
<!-- Generated by graphviz version 2.26.3 (20100126.1600)
 -->
<!-- Title: forcebalance.tinkerio.Liquid_TINKER.prepare_temp_directory Pages: 1 -->
<svg width="1456pt" height="339pt"
 viewBox="0.00 0.00 1456.00 339.28" xmlns="http://www.w3.org/2000/svg" xmlns:xlink="http://www.w3.org/1999/xlink">
<g id="graph1" class="graph" transform="scale(1 1) rotate(0) translate(4 335.281)">
<title>forcebalance.tinkerio.Liquid_TINKER.prepare_temp_directory</title>
<polygon fill="white" stroke="white" points="-4,5 -4,-335.281 1453,-335.281 1453,5 -4,5"/>
<!-- Node1 -->
<g id="node1" class="node"><title>Node1</title>
<polygon fill="#bfbfbf" stroke="black" points="0,-177 0,-211 172,-211 172,-177 0,-177"/>
<text text-anchor="start" x="8" y="-198" font-family="Ubuntu-R" font-size="10.00">forcebalance.tinkerio.Liquid</text>
<text text-anchor="middle" x="86" y="-185" font-family="Ubuntu-R" font-size="10.00">_TINKER.prepare_temp_directory</text>
</g>
<!-- Node2 -->
<g id="node3" class="node"><title>Node2</title>
<a xlink:href="namespaceforcebalance_1_1tinkerio.html#a9cde7bd64c6f5286c1f33a39211d5a11" target="_top" xlink:title="Copies a TINKER .key file but changes the parameter keyword as necessary to reflect the ForceBalance ...">
<polygon fill="white" stroke="black" points="210.5,-288 210.5,-322 351.5,-322 351.5,-288 210.5,-288"/>
<text text-anchor="start" x="218.5" y="-309" font-family="Ubuntu-R" font-size="10.00">forcebalance.tinkerio.write</text>
<text text-anchor="middle" x="281" y="-296" font-family="Ubuntu-R" font-size="10.00">_key_with_prm</text>
</a>
</g>
<!-- Node1&#45;&gt;Node2 -->
<g id="edge2" class="edge"><title>Node1&#45;&gt;Node2</title>
<path fill="none" stroke="midnightblue" d="M110.595,-211.219C134.792,-227.796 173.08,-253.072 208,-272 215.382,-276.002 223.343,-279.951 231.198,-283.651"/>
<polygon fill="midnightblue" stroke="midnightblue" points="229.785,-286.853 240.331,-287.867 232.719,-280.497 229.785,-286.853"/>
</g>
<!-- Node5 -->
<g id="node9" class="node"><title>Node5</title>
<a xlink:href="namespaceforcebalance_1_1tinkerio.html#aa82c424420ad59b6a78b273d6c1fd469" target="_top" xlink:title="Performs in&#45;place modification of a TINKER .key file.">
<polygon fill="white" stroke="black" points="392,-294.5 392,-315.5 564,-315.5 564,-294.5 392,-294.5"/>
<text text-anchor="middle" x="478" y="-302.5" font-family="Ubuntu-R" font-size="10.00">forcebalance.tinkerio.modify_key</text>
</a>
</g>
<!-- Node1&#45;&gt;Node5 -->
<g id="edge10" class="edge"><title>Node1&#45;&gt;Node5</title>
<path fill="none" stroke="midnightblue" d="M130.281,-211.098C153.289,-219.694 181.968,-229.964 208,-238 287.825,-262.643 308.814,-265.296 390,-285 399.82,-287.383 410.278,-289.835 420.43,-292.17"/>
<polygon fill="midnightblue" stroke="midnightblue" points="419.915,-295.643 430.443,-294.459 421.475,-288.819 419.915,-295.643"/>
</g>
<!-- Node6 -->
<g id="node12" class="node"><title>Node6</title>
<a xlink:href="namespaceforcebalance_1_1nifty.html#ab182a9da2a2f42cf45942fbee6acf9b1" target="_top" xlink:title="forcebalance.nifty.LinkFile">
<polygon fill="white" stroke="black" points="213,-207.5 213,-228.5 349,-228.5 349,-207.5 213,-207.5"/>
<text text-anchor="middle" x="281" y="-215.5" font-family="Ubuntu-R" font-size="10.00">forcebalance.nifty.LinkFile</text>
</a>
</g>
<!-- Node1&#45;&gt;Node6 -->
<g id="edge12" class="edge"><title>Node1&#45;&gt;Node6</title>
<path fill="none" stroke="midnightblue" d="M172.097,-204.597C182.351,-205.859 192.775,-207.142 202.908,-208.389"/>
<polygon fill="midnightblue" stroke="midnightblue" points="202.574,-211.874 212.927,-209.622 203.429,-204.926 202.574,-211.874"/>
</g>
<!-- Node8 -->
<g id="node16" class="node"><title>Node8</title>
<a xlink:href="classforcebalance_1_1tinkerio_1_1Liquid__TINKER.html#a53a10ac99cdfbf026526ed625d4de809" target="_top" xlink:title="Submit a NPT simulation to the Work Queue.">
<polygon fill="white" stroke="black" points="208,-154 208,-188 354,-188 354,-154 208,-154"/>
<text text-anchor="start" x="216" y="-175" font-family="Ubuntu-R" font-size="10.00">forcebalance.tinkerio.Liquid</text>
<text text-anchor="middle" x="281" y="-162" font-family="Ubuntu-R" font-size="10.00">_TINKER.npt_simulation</text>
</a>
</g>
<!-- Node1&#45;&gt;Node8 -->
<g id="edge16" class="edge"><title>Node1&#45;&gt;Node8</title>
<path fill="none" stroke="midnightblue" d="M172.097,-183.845C180.677,-182.833 189.377,-181.807 197.925,-180.799"/>
<polygon fill="midnightblue" stroke="midnightblue" points="198.352,-184.273 207.873,-179.625 197.532,-177.321 198.352,-184.273"/>
</g>
<!-- Node16 -->
<g id="node32" class="node"><title>Node16</title>
<a xlink:href="namespaceforcebalance_1_1nifty.html#a0cf4e58f90acf20e3d6224be2354082c" target="_top" xlink:title="forcebalance.nifty.link\l_dir_contents">
<polygon fill="white" stroke="black" points="1330,-85 1330,-119 1448,-119 1448,-85 1330,-85"/>
<text text-anchor="start" x="1338" y="-106" font-family="Ubuntu-R" font-size="10.00">forcebalance.nifty.link</text>
<text text-anchor="middle" x="1389" y="-93" font-family="Ubuntu-R" font-size="10.00">_dir_contents</text>
</a>
</g>
<!-- Node1&#45;&gt;Node16 -->
<g id="edge46" class="edge"><title>Node1&#45;&gt;Node16</title>
<path fill="none" stroke="midnightblue" d="M115.352,-176.743C179.076,-140.963 335.815,-62 478,-62 478,-62 478,-62 1054,-62 1146.48,-62 1252.32,-77.2165 1319.86,-88.8791"/>
<polygon fill="midnightblue" stroke="midnightblue" points="1319.5,-92.3688 1329.95,-90.6446 1320.7,-85.4736 1319.5,-92.3688"/>
</g>
<!-- Node20 -->
<g id="node42" class="node"><title>Node20</title>
<a xlink:href="namespaceforcebalance_1_1nifty.html#ac37d4fe58ef70ed546ebfc45d12f7a5d" target="_top" xlink:title="forcebalance.nifty.getWork\lQueue">
<polygon fill="white" stroke="black" points="210.5,-0 210.5,-34 351.5,-34 351.5,-0 210.5,-0"/>
<text text-anchor="start" x="218.5" y="-21" font-family="Ubuntu-R" font-size="10.00">forcebalance.nifty.getWork</text>
<text text-anchor="middle" x="281" y="-8" font-family="Ubuntu-R" font-size="10.00">Queue</text>
</a>
</g>
<!-- Node1&#45;&gt;Node20 -->
<g id="edge44" class="edge"><title>Node1&#45;&gt;Node20</title>
<path fill="none" stroke="midnightblue" d="M96.3916,-176.875C115.256,-147.045 157.856,-85.19 208,-48 212.493,-44.6678 217.398,-41.6125 222.472,-38.8302"/>
<polygon fill="midnightblue" stroke="midnightblue" points="224.409,-41.7714 231.733,-34.1159 221.234,-35.5331 224.409,-41.7714"/>
</g>
<!-- Node3 -->
<g id="node5" class="node"><title>Node3</title>
<a xlink:href="namespaceforcebalance_1_1nifty.html#abb8f59044961a12588e0653c2baa8b01" target="_top" xlink:title="forcebalance.nifty.warn\l_press_key">
<polygon fill="white" stroke="black" points="605.5,-284 605.5,-318 730.5,-318 730.5,-284 605.5,-284"/>
<text text-anchor="start" x="613.5" y="-305" font-family="Ubuntu-R" font-size="10.00">forcebalance.nifty.warn</text>
<text text-anchor="middle" x="668" y="-292" font-family="Ubuntu-R" font-size="10.00">_press_key</text>
</a>
</g>
<!-- Node2&#45;&gt;Node3 -->
<g id="edge4" class="edge"><title>Node2&#45;&gt;Node3</title>
<path fill="none" stroke="midnightblue" d="M351.689,-319.894C364.389,-322.02 377.546,-323.867 390,-325 467.9,-332.088 488.299,-334.018 566,-325 575.758,-323.867 585.938,-322.145 595.928,-320.131"/>
<polygon fill="midnightblue" stroke="midnightblue" points="596.774,-323.53 605.831,-318.032 595.322,-316.682 596.774,-323.53"/>
</g>
<!-- Node2&#45;&gt;Node5 -->
<g id="edge8" class="edge"><title>Node2&#45;&gt;Node5</title>
<path fill="none" stroke="midnightblue" d="M351.565,-305C361.336,-305 371.506,-305 381.647,-305"/>
<polygon fill="midnightblue" stroke="midnightblue" points="381.761,-308.5 391.761,-305 381.761,-301.5 381.761,-308.5"/>
</g>
<!-- Node4 -->
<g id="node7" class="node"><title>Node4</title>
<a xlink:href="namespaceforcebalance_1_1nifty.html#a2fc81730e7efa7d138dd86f733507bfc" target="_top" xlink:title="Similar to the bultin function map().">
<polygon fill="white" stroke="black" points="770.5,-290.5 770.5,-311.5 951.5,-311.5 951.5,-290.5 770.5,-290.5"/>
<text text-anchor="middle" x="861" y="-298.5" font-family="Ubuntu-R" font-size="10.00">forcebalance.nifty.concurrent_map</text>
</a>
</g>
<!-- Node3&#45;&gt;Node4 -->
<g id="edge6" class="edge"><title>Node3&#45;&gt;Node4</title>
<path fill="none" stroke="midnightblue" d="M730.662,-301C740.155,-301 750.149,-301 760.204,-301"/>
<polygon fill="midnightblue" stroke="midnightblue" points="760.265,-304.5 770.265,-301 760.265,-297.5 760.265,-304.5"/>
</g>
<!-- Node7 -->
<g id="node14" class="node"><title>Node7</title>
<a xlink:href="namespaceforcebalance_1_1nifty.html#a25efa4d501ad852a234721af18978f7e" target="_top" xlink:title="Remove the file if it exists (doesn&#39;t return an error).">
<polygon fill="white" stroke="black" points="408.5,-242 408.5,-276 547.5,-276 547.5,-242 408.5,-242"/>
<text text-anchor="start" x="416.5" y="-263" font-family="Ubuntu-R" font-size="10.00">forcebalance.nifty.remove</text>
<text text-anchor="middle" x="478" y="-250" font-family="Ubuntu-R" font-size="10.00">_if_exists</text>
</a>
</g>
<!-- Node6&#45;&gt;Node7 -->
<g id="edge14" class="edge"><title>Node6&#45;&gt;Node7</title>
<path fill="none" stroke="midnightblue" d="M331.477,-228.505C351.834,-232.742 375.815,-237.733 398.416,-242.437"/>
<polygon fill="midnightblue" stroke="midnightblue" points="397.839,-245.892 408.342,-244.503 399.265,-239.038 397.839,-245.892"/>
</g>
<!-- Node9 -->
<g id="node18" class="node"><title>Node9</title>
<a xlink:href="namespaceforcebalance_1_1optimizer.html#ab43948ecf30c90d319e0c0b107fe484a" target="_top" xlink:title="forcebalance.optimizer.GoodStep">
<polygon fill="white" stroke="black" points="390,-202.5 390,-223.5 566,-223.5 566,-202.5 390,-202.5"/>
<text text-anchor="middle" x="478" y="-210.5" font-family="Ubuntu-R" font-size="10.00">forcebalance.optimizer.GoodStep</text>
</a>
</g>
<!-- Node8&#45;&gt;Node9 -->
<g id="edge18" class="edge"><title>Node8&#45;&gt;Node9</title>
<path fill="none" stroke="midnightblue" d="M354.076,-186.58C375.34,-191.113 398.301,-196.008 418.612,-200.339"/>
<polygon fill="midnightblue" stroke="midnightblue" points="418.149,-203.819 428.659,-202.481 419.609,-196.972 418.149,-203.819"/>
</g>
<!-- Node10 -->
<g id="node20" class="node"><title>Node10</title>
<a xlink:href="namespaceforcebalance_1_1nifty.html#a673f4a044169f5d8d822823989a836a7" target="_top" xlink:title="Submit a job to the Work Queue.">
<polygon fill="white" stroke="black" points="403,-110.5 403,-131.5 553,-131.5 553,-110.5 403,-110.5"/>
<text text-anchor="middle" x="478" y="-118.5" font-family="Ubuntu-R" font-size="10.00">forcebalance.nifty.queue_up</text>
</a>
</g>
<!-- Node8&#45;&gt;Node10 -->
<g id="edge20" class="edge"><title>Node8&#45;&gt;Node10</title>
<path fill="none" stroke="midnightblue" d="M341.124,-153.93C356.982,-149.571 374.105,-144.992 390,-141 399.687,-138.567 410.007,-136.106 420.043,-133.781"/>
<polygon fill="midnightblue" stroke="midnightblue" points="420.987,-137.156 429.951,-131.508 419.422,-130.333 420.987,-137.156"/>
</g>
<!-- Node19 -->
<g id="node39" class="node"><title>Node19</title>
<a xlink:href="classforcebalance_1_1tinkerio_1_1Liquid__TINKER.html#a307529b9902b34a790a8b016e153c7d6" target="_top" xlink:title="forcebalance.tinkerio.Liquid\l_TINKER.__init__">
<polygon fill="white" stroke="black" points="405,-150 405,-184 551,-184 551,-150 405,-150"/>
<text text-anchor="start" x="413" y="-171" font-family="Ubuntu-R" font-size="10.00">forcebalance.tinkerio.Liquid</text>
<text text-anchor="middle" x="478" y="-158" font-family="Ubuntu-R" font-size="10.00">_TINKER.__init__</text>
</a>
</g>
<!-- Node8&#45;&gt;Node19 -->
<g id="edge40" class="edge"><title>Node8&#45;&gt;Node19</title>
<path fill="none" stroke="midnightblue" d="M354.076,-169.516C367.252,-169.249 381.079,-168.968 394.524,-168.695"/>
<polygon fill="midnightblue" stroke="midnightblue" points="394.787,-172.19 404.714,-168.488 394.645,-165.192 394.787,-172.19"/>
</g>
<!-- Node11 -->
<g id="node22" class="node"><title>Node11</title>
<a xlink:href="namespaceforcebalance_1_1nifty.html#a5d5abeb4a185fde64721d044831e18ee" target="_top" xlink:title="Submit a job to the Work Queue.">
<polygon fill="white" stroke="black" points="602,-166 602,-200 734,-200 734,-166 602,-166"/>
<text text-anchor="start" x="610" y="-187" font-family="Ubuntu-R" font-size="10.00">forcebalance.nifty.queue</text>
<text text-anchor="middle" x="668" y="-174" font-family="Ubuntu-R" font-size="10.00">_up_src_dest</text>
</a>
</g>
<!-- Node10&#45;&gt;Node11 -->
<g id="edge22" class="edge"><title>Node10&#45;&gt;Node11</title>
<path fill="none" stroke="midnightblue" d="M531.976,-131.519C543.327,-134.217 555.146,-137.393 566,-141 582.616,-146.522 585.851,-150.234 602,-157 606.071,-158.706 610.297,-160.444 614.553,-162.171"/>
<polygon fill="midnightblue" stroke="midnightblue" points="613.288,-165.435 623.871,-165.92 615.9,-158.94 613.288,-165.435"/>
</g>
<!-- Node12 -->
<g id="node24" class="node"><title>Node12</title>
<a xlink:href="namespaceforcebalance_1_1nifty.html#a374aac2ef003be02fab49b20ff0a82f0" target="_top" xlink:title="This function waits ten seconds to see if a task in the Work Queue has finished.">
<polygon fill="white" stroke="black" points="610.5,-114 610.5,-148 725.5,-148 725.5,-114 610.5,-114"/>
<text text-anchor="start" x="618.5" y="-135" font-family="Ubuntu-R" font-size="10.00">forcebalance.nifty.wq</text>
<text text-anchor="middle" x="668" y="-122" font-family="Ubuntu-R" font-size="10.00">_wait1</text>
</a>
</g>
<!-- Node10&#45;&gt;Node12 -->
<g id="edge24" class="edge"><title>Node10&#45;&gt;Node12</title>
<path fill="none" stroke="midnightblue" d="M553.093,-124.952C568.6,-125.768 584.848,-126.624 600.083,-127.425"/>
<polygon fill="midnightblue" stroke="midnightblue" points="600.276,-130.94 610.446,-127.971 600.644,-123.95 600.276,-130.94"/>
</g>
<!-- Node13 -->
<g id="node26" class="node"><title>Node13</title>
<a xlink:href="namespaceforcebalance_1_1nifty.html#a576de8c5b6f236280e07e73e39b2ab7c" target="_top" xlink:title="This function waits until the work queue is completely empty.">
<polygon fill="white" stroke="black" points="791.5,-208.5 791.5,-229.5 930.5,-229.5 930.5,-208.5 791.5,-208.5"/>
<text text-anchor="middle" x="861" y="-216.5" font-family="Ubuntu-R" font-size="10.00">forcebalance.nifty.wq_wait</text>
</a>
</g>
<!-- Node12&#45;&gt;Node13 -->
<g id="edge26" class="edge"><title>Node12&#45;&gt;Node13</title>
<path fill="none" stroke="midnightblue" d="M718.163,-148.115C723.683,-150.764 729.079,-153.725 734,-157 753.101,-169.711 750.246,-182.33 770,-194 777.584,-198.481 785.997,-202.182 794.555,-205.234"/>
<polygon fill="midnightblue" stroke="midnightblue" points="793.651,-208.62 804.243,-208.41 795.831,-201.969 793.651,-208.62"/>
</g>
<!-- Node14 -->
<g id="node28" class="node"><title>Node14</title>
<a xlink:href="namespaceforcebalance_1_1nifty.html#ac9ab6c5543a2e3080061e0024850edf3" target="_top" xlink:title="forcebalance.nifty.allsplit">
<polygon fill="white" stroke="black" points="988,-169.5 988,-190.5 1120,-190.5 1120,-169.5 988,-169.5"/>
<text text-anchor="middle" x="1054" y="-177.5" font-family="Ubuntu-R" font-size="10.00">forcebalance.nifty.allsplit</text>
</a>
</g>
<!-- Node12&#45;&gt;Node14 -->
<g id="edge36" class="edge"><title>Node12&#45;&gt;Node14</title>
<path fill="none" stroke="midnightblue" d="M717.802,-148.02C734.24,-152.998 752.737,-157.922 770,-161 839.643,-173.416 920.205,-177.887 977.697,-179.417"/>
<polygon fill="midnightblue" stroke="midnightblue" points="977.714,-182.918 987.796,-179.662 977.883,-175.92 977.714,-182.918"/>
</g>
<!-- Node17 -->
<g id="node34" class="node"><title>Node17</title>
<a xlink:href="namespaceforcebalance_1_1nifty.html#ad432b88307e1178b0690c0d350b1af36" target="_top" xlink:title="forcebalance.nifty.GoInto">
<polygon fill="white" stroke="black" points="794,-130.5 794,-151.5 928,-151.5 928,-130.5 794,-130.5"/>
<text text-anchor="middle" x="861" y="-138.5" font-family="Ubuntu-R" font-size="10.00">forcebalance.nifty.GoInto</text>
</a>
</g>
<!-- Node12&#45;&gt;Node17 -->
<g id="edge34" class="edge"><title>Node12&#45;&gt;Node17</title>
<path fill="none" stroke="midnightblue" d="M725.645,-133.987C743.9,-134.933 764.383,-135.994 783.782,-136.999"/>
<polygon fill="midnightblue" stroke="midnightblue" points="783.642,-140.496 793.81,-137.519 784.004,-133.506 783.642,-140.496"/>
</g>
<!-- Node18 -->
<g id="node37" class="node"><title>Node18</title>
<a xlink:href="namespaceforcebalance_1_1nifty.html#ab04e8690d099db2379dc860e0d040120" target="_top" xlink:title="forcebalance.nifty.Leave">
<polygon fill="white" stroke="black" points="795.5,-90.5 795.5,-111.5 926.5,-111.5 926.5,-90.5 795.5,-90.5"/>
<text text-anchor="middle" x="861" y="-98.5" font-family="Ubuntu-R" font-size="10.00">forcebalance.nifty.Leave</text>
</a>
</g>
<!-- Node12&#45;&gt;Node18 -->
<g id="edge38" class="edge"><title>Node12&#45;&gt;Node18</title>
<path fill="none" stroke="midnightblue" d="M725.645,-122.04C744.364,-119.13 765.425,-115.856 785.258,-112.773"/>
<polygon fill="midnightblue" stroke="midnightblue" points="785.844,-116.224 795.188,-111.23 784.769,-109.307 785.844,-116.224"/>
</g>
<!-- Node13&#45;&gt;Node14 -->
<g id="edge28" class="edge"><title>Node13&#45;&gt;Node14</title>
<path fill="none" stroke="midnightblue" d="M912.974,-208.497C937.32,-203.578 966.508,-197.68 991.997,-192.529"/>
<polygon fill="midnightblue" stroke="midnightblue" points="992.824,-195.933 1001.93,-190.521 991.438,-189.071 992.824,-195.933"/>
</g>
<!-- Node15 -->
<g id="node30" class="node"><title>Node15</title>
<a xlink:href="namespaceforcebalance_1_1nifty.html#ae87c7def5f8edf2ec30737bdb1d2636f" target="_top" xlink:title="forcebalance.nifty.Missing\lFileInspection">
<polygon fill="white" stroke="black" points="1156,-126 1156,-160 1294,-160 1294,-126 1156,-126"/>
<text text-anchor="start" x="1164" y="-147" font-family="Ubuntu-R" font-size="10.00">forcebalance.nifty.Missing</text>
<text text-anchor="middle" x="1225" y="-134" font-family="Ubuntu-R" font-size="10.00">FileInspection</text>
</a>
</g>
<!-- Node14&#45;&gt;Node15 -->
<g id="edge30" class="edge"><title>Node14&#45;&gt;Node15</title>
<path fill="none" stroke="midnightblue" d="M1102.54,-169.496C1116.02,-166.58 1131.02,-163.335 1145.76,-160.145"/>
<polygon fill="midnightblue" stroke="midnightblue" points="1146.88,-163.485 1155.91,-157.949 1145.4,-156.643 1146.88,-163.485"/>
</g>
<!-- Node15&#45;&gt;Node16 -->
<g id="edge32" class="edge"><title>Node15&#45;&gt;Node16</title>
<path fill="none" stroke="midnightblue" d="M1293.13,-125.968C1302.01,-123.747 1311.13,-121.469 1320.03,-119.243"/>
<polygon fill="midnightblue" stroke="midnightblue" points="1321.11,-122.58 1329.97,-116.759 1319.41,-115.789 1321.11,-122.58"/>
</g>
<!-- Node19&#45;&gt;Node3 -->
<g id="edge42" class="edge"><title>Node19&#45;&gt;Node3</title>
<path fill="none" stroke="midnightblue" d="M548.628,-184.173C554.688,-186.739 560.57,-189.666 566,-193 600.996,-214.486 631.918,-251.025 650.295,-275.58"/>
<polygon fill="midnightblue" stroke="midnightblue" points="647.526,-277.722 656.258,-283.721 653.173,-273.585 647.526,-277.722"/>
</g>
</g>
</svg>
