<?xml version="1.0" encoding="UTF-8" standalone="no"?>
<!DOCTYPE svg PUBLIC "-//W3C//DTD SVG 1.1//EN"
 "http://www.w3.org/Graphics/SVG/1.1/DTD/svg11.dtd">
<!-- Generated by graphviz version 2.28.0 (20111219.2309)
 -->
<!-- Title: forcebalance.moments.Moments Pages: 1 -->
<svg width="182pt" height="196pt"
 viewBox="0.00 0.00 182.00 196.00" xmlns="http://www.w3.org/2000/svg" xmlns:xlink="http://www.w3.org/1999/xlink">
<g id="graph1" class="graph" transform="scale(1 1) rotate(0) translate(4 192)">
<title>forcebalance.moments.Moments</title>
<polygon fill="white" stroke="white" points="-4,5 -4,-192 179,-192 179,5 -4,5"/>
<!-- Node1 -->
<g id="node1" class="node"><title>Node1</title>
<polygon fill="#bfbfbf" stroke="black" points="-1,-0.5 -1,-19.5 175,-19.5 175,-0.5 -1,-0.5"/>
<text text-anchor="middle" x="87" y="-7.5" font-family="Ubuntu-R" font-size="10.00">forcebalance.moments.Moments</text>
</g>
<!-- Node2 -->
<g id="node2" class="node"><title>Node2</title>
<a xlink:href="classforcebalance_1_1target_1_1Target.html" target="_top" xlink:title="Base class for all fitting targets. ">
<polygon fill="white" stroke="black" points="15.5,-56.5 15.5,-75.5 158.5,-75.5 158.5,-56.5 15.5,-56.5"/>
<text text-anchor="middle" x="87" y="-63.5" font-family="Ubuntu-R" font-size="10.00">forcebalance.target.Target</text>
</a>
</g>
<!-- Node2&#45;&gt;Node1 -->
<g id="edge2" class="edge"><title>Node2&#45;&gt;Node1</title>
<path fill="none" stroke="midnightblue" d="M87,-45.8045C87,-36.9102 87,-26.7798 87,-19.7511"/>
<polygon fill="midnightblue" stroke="midnightblue" points="83.5001,-46.083 87,-56.083 90.5001,-46.083 83.5001,-46.083"/>
</g>
<!-- Node3 -->
<g id="node4" class="node"><title>Node3</title>
<a xlink:href="classforcebalance_1_1BaseClass.html" target="_top" xlink:title="Provides some nifty functions that are common to all ForceBalance classes. ">
<polygon fill="white" stroke="black" points="21.5,-112.5 21.5,-131.5 152.5,-131.5 152.5,-112.5 21.5,-112.5"/>
<text text-anchor="middle" x="87" y="-119.5" font-family="Ubuntu-R" font-size="10.00">forcebalance.BaseClass</text>
</a>
</g>
<!-- Node3&#45;&gt;Node2 -->
<g id="edge4" class="edge"><title>Node3&#45;&gt;Node2</title>
<path fill="none" stroke="midnightblue" d="M87,-101.805C87,-92.9102 87,-82.7798 87,-75.7511"/>
<polygon fill="midnightblue" stroke="midnightblue" points="83.5001,-102.083 87,-112.083 90.5001,-102.083 83.5001,-102.083"/>
</g>
<!-- Node4 -->
<g id="node6" class="node"><title>Node4</title>
<polygon fill="white" stroke="#bfbfbf" points="64,-168.5 64,-187.5 110,-187.5 110,-168.5 64,-168.5"/>
<text text-anchor="middle" x="87" y="-175.5" font-family="Ubuntu-R" font-size="10.00">object</text>
</g>
<!-- Node4&#45;&gt;Node3 -->
<g id="edge6" class="edge"><title>Node4&#45;&gt;Node3</title>
<path fill="none" stroke="midnightblue" d="M87,-157.805C87,-148.91 87,-138.78 87,-131.751"/>
<polygon fill="midnightblue" stroke="midnightblue" points="83.5001,-158.083 87,-168.083 90.5001,-158.083 83.5001,-158.083"/>
</g>
</g>
</svg>
