<?xml version="1.0" encoding="UTF-8" standalone="no"?>
<!DOCTYPE svg PUBLIC "-//W3C//DTD SVG 1.1//EN"
 "http://www.w3.org/Graphics/SVG/1.1/DTD/svg11.dtd">
<!-- Generated by graphviz version 2.32.0 (20130801.1845)
 -->
<!-- Title: forcebalance.objective.Objective.Full Pages: 1 -->
<svg width="1746pt" height="305pt"
 viewBox="0.00 0.00 1746.00 305.00" xmlns="http://www.w3.org/2000/svg" xmlns:xlink="http://www.w3.org/1999/xlink">
<g id="graph0" class="graph" transform="scale(1 1) rotate(0) translate(4 301)">
<title>forcebalance.objective.Objective.Full</title>
<polygon fill="white" stroke="white" points="-4,5 -4,-301 1743,-301 1743,5 -4,5"/>
<!-- Node1 -->
<g id="node1" class="node"><title>Node1</title>
<polygon fill="#bfbfbf" stroke="black" points="-0.1075,-226 -0.1075,-246 166.108,-246 166.108,-226 -0.1075,-226"/>
<text text-anchor="middle" x="83" y="-233" font-family="Ubuntu-R" font-size="10.00">forcebalance.objective.Objective.Full</text>
</g>
<!-- Node2 -->
<g id="node2" class="node"><title>Node2</title>
<g id="a_node2"><a xlink:href="namespaceforcebalance_1_1finite__difference.html#ad84d3e385db1190e7d8ef58bc08a6c52" target="_top" xlink:title="Invoking this function from anywhere will tell us whether we&#39;re being called by a finite&#45;difference f...">
<polygon fill="white" stroke="black" points="591.662,-265 591.662,-297 682.338,-297 682.338,-265 591.662,-265"/>
<text text-anchor="start" x="599.662" y="-284" font-family="Ubuntu-R" font-size="10.00">forcebalance.finite</text>
<text text-anchor="middle" x="637" y="-272" font-family="Ubuntu-R" font-size="10.00">_difference.in_fd</text>
</a>
</g>
</g>
<!-- Node1&#45;&gt;Node2 -->
<g id="edge1" class="edge"><title>Node1&#45;&gt;Node2</title>
<path fill="none" stroke="midnightblue" d="M123.328,-246.009C146.143,-251.393 175.517,-257.607 202,-261 337.602,-278.372 498.74,-281.17 581.283,-281.324"/>
<polygon fill="midnightblue" stroke="midnightblue" points="581.432,-284.824 591.434,-281.33 581.437,-277.824 581.432,-284.824"/>
</g>
<!-- Node3 -->
<g id="node3" class="node"><title>Node3</title>
<g id="a_node3"><a xlink:href="classforcebalance_1_1objective_1_1Objective.html#a184305cae26dd9be2351297340481ca5" target="_top" xlink:title="Print objective function contributions.">
<polygon fill="white" stroke="black" points="201.951,-220 201.951,-252 352.049,-252 352.049,-220 201.951,-220"/>
<text text-anchor="start" x="209.951" y="-239" font-family="Ubuntu-R" font-size="10.00">forcebalance.objective.Objective.</text>
<text text-anchor="middle" x="277" y="-227" font-family="Ubuntu-R" font-size="10.00">Indicate</text>
</a>
</g>
</g>
<!-- Node1&#45;&gt;Node3 -->
<g id="edge2" class="edge"><title>Node1&#45;&gt;Node3</title>
<path fill="none" stroke="midnightblue" d="M166.261,-229.312C174.655,-229.236 183.191,-229.23 191.608,-229.294"/>
<polygon fill="midnightblue" stroke="midnightblue" points="191.757,-232.796 201.796,-229.407 191.835,-225.796 191.757,-232.796"/>
</g>
<!-- Node3&#45;&gt;Node1 -->
<g id="edge21" class="edge"><title>Node3&#45;&gt;Node1</title>
<path fill="none" stroke="midnightblue" d="M201.796,-242.593C193.431,-242.715 184.832,-242.766 176.274,-242.745"/>
<polygon fill="midnightblue" stroke="midnightblue" points="176.281,-239.246 166.261,-242.688 176.241,-246.245 176.281,-239.246"/>
</g>
<!-- Node4 -->
<g id="node4" class="node"><title>Node4</title>
<g id="a_node4"><a xlink:href="namespaceforcebalance_1_1nifty.html#a51180e960742cc7547749fdfb3513ec4" target="_top" xlink:title="See documentation for printcool; this is a nice way to print out keys/values in a dictionary...">
<polygon fill="white" stroke="black" points="399.469,-130 399.469,-162 526.532,-162 526.532,-130 399.469,-130"/>
<text text-anchor="start" x="407.469" y="-149" font-family="Ubuntu-R" font-size="10.00">forcebalance.nifty.printcool</text>
<text text-anchor="middle" x="463" y="-137" font-family="Ubuntu-R" font-size="10.00">_dictionary</text>
</a>
</g>
</g>
<!-- Node3&#45;&gt;Node4 -->
<g id="edge3" class="edge"><title>Node3&#45;&gt;Node4</title>
<path fill="none" stroke="midnightblue" d="M310.896,-219.91C341.414,-204.982 386.981,-182.694 420.093,-166.498"/>
<polygon fill="midnightblue" stroke="midnightblue" points="421.634,-169.64 429.08,-162.102 418.559,-163.352 421.634,-169.64"/>
</g>
<!-- Node18 -->
<g id="node18" class="node"><title>Node18</title>
<g id="a_node18"><a xlink:href="classforcebalance_1_1objective_1_1Objective.html#aa14af29457c3784b9b97b46186c230ce" target="_top" xlink:title="forcebalance.objective.Objective.\lTarget_Terms">
<polygon fill="white" stroke="black" points="387.951,-220 387.951,-252 538.049,-252 538.049,-220 387.951,-220"/>
<text text-anchor="start" x="395.951" y="-239" font-family="Ubuntu-R" font-size="10.00">forcebalance.objective.Objective.</text>
<text text-anchor="middle" x="463" y="-227" font-family="Ubuntu-R" font-size="10.00">Target_Terms</text>
</a>
</g>
</g>
<!-- Node3&#45;&gt;Node18 -->
<g id="edge22" class="edge"><title>Node3&#45;&gt;Node18</title>
<path fill="none" stroke="midnightblue" d="M352.309,-229.362C360.606,-229.256 369.102,-229.225 377.513,-229.27"/>
<polygon fill="midnightblue" stroke="midnightblue" points="377.681,-232.772 387.712,-229.362 377.744,-225.772 377.681,-232.772"/>
</g>
<!-- Node5 -->
<g id="node5" class="node"><title>Node5</title>
<g id="a_node5"><a xlink:href="namespaceforcebalance_1_1nifty.html#a3f1c7a1af9d35d5d1693074bc6f5497c" target="_top" xlink:title="ONLY matches integers! If you have a decimal point? None shall pass!">
<polygon fill="white" stroke="black" points="582.908,-97 582.908,-117 691.092,-117 691.092,-97 582.908,-97"/>
<text text-anchor="middle" x="637" y="-104" font-family="Ubuntu-R" font-size="10.00">forcebalance.nifty.isint</text>
</a>
</g>
</g>
<!-- Node4&#45;&gt;Node5 -->
<g id="edge4" class="edge"><title>Node4&#45;&gt;Node5</title>
<path fill="none" stroke="midnightblue" d="M526.583,-131.81C544.649,-127.713 564.207,-123.279 581.724,-119.307"/>
<polygon fill="midnightblue" stroke="midnightblue" points="582.796,-122.653 591.775,-117.028 581.248,-115.826 582.796,-122.653"/>
</g>
<!-- Node7 -->
<g id="node7" class="node"><title>Node7</title>
<g id="a_node7"><a xlink:href="namespaceforcebalance_1_1nifty.html#a8e3ef0108b9d37b82ba0dced7c6037ae" target="_top" xlink:title="Matches ANY number; it can be a decimal, scientific notation, what have you CAUTION &#45; this will also ...">
<polygon fill="white" stroke="black" points="906.024,-99 906.024,-119 1021.98,-119 1021.98,-99 906.024,-99"/>
<text text-anchor="middle" x="964" y="-106" font-family="Ubuntu-R" font-size="10.00">forcebalance.nifty.isfloat</text>
</a>
</g>
</g>
<!-- Node4&#45;&gt;Node7 -->
<g id="edge20" class="edge"><title>Node4&#45;&gt;Node7</title>
<path fill="none" stroke="midnightblue" d="M526.78,-143.683C605.98,-140.432 746.303,-133.578 866,-122 875.703,-121.061 885.929,-119.891 895.957,-118.639"/>
<polygon fill="midnightblue" stroke="midnightblue" points="896.417,-122.108 905.891,-117.365 895.527,-115.165 896.417,-122.108"/>
</g>
<!-- Node6 -->
<g id="node6" class="node"><title>Node6</title>
<g id="a_node6"><a xlink:href="namespaceforcebalance_1_1nifty.html#a09263927eaec9deff283fbf1a820242f" target="_top" xlink:title="Matches things with a decimal only; see isint and isfloat.">
<polygon fill="white" stroke="black" points="736.36,-59 736.36,-79 865.64,-79 865.64,-59 736.36,-59"/>
<text text-anchor="middle" x="801" y="-66" font-family="Ubuntu-R" font-size="10.00">forcebalance.nifty.isdecimal</text>
</a>
</g>
</g>
<!-- Node5&#45;&gt;Node6 -->
<g id="edge5" class="edge"><title>Node5&#45;&gt;Node6</title>
<path fill="none" stroke="midnightblue" d="M680.988,-96.9165C701.299,-92.1521 725.734,-86.4204 747.165,-81.3934"/>
<polygon fill="midnightblue" stroke="midnightblue" points="748.156,-84.7559 757.093,-79.0647 746.558,-77.9409 748.156,-84.7559"/>
</g>
<!-- Node6&#45;&gt;Node7 -->
<g id="edge6" class="edge"><title>Node6&#45;&gt;Node7</title>
<path fill="none" stroke="midnightblue" d="M842.627,-79.0937C863.968,-84.3959 890.312,-90.9409 912.908,-96.5548"/>
<polygon fill="midnightblue" stroke="midnightblue" points="912.116,-99.9644 922.665,-98.9789 913.804,-93.1709 912.116,-99.9644"/>
</g>
<!-- Node11 -->
<g id="node11" class="node"><title>Node11</title>
<g id="a_node11"><a xlink:href="namespaceforcebalance_1_1nifty.html#afb3f205bce4984856e766af7e9fdaca8" target="_top" xlink:title="Given any list, array, or matrix, return a 1&#45;column matrix.">
<polygon fill="white" stroke="black" points="912.412,-58 912.412,-78 1015.59,-78 1015.59,-58 912.412,-58"/>
<text text-anchor="middle" x="964" y="-65" font-family="Ubuntu-R" font-size="10.00">forcebalance.nifty.col</text>
</a>
</g>
</g>
<!-- Node6&#45;&gt;Node11 -->
<g id="edge11" class="edge"><title>Node6&#45;&gt;Node11</title>
<path fill="none" stroke="midnightblue" d="M866.094,-68.6019C877.963,-68.5282 890.329,-68.4514 902.1,-68.3783"/>
<polygon fill="midnightblue" stroke="midnightblue" points="902.285,-71.8773 912.263,-68.3151 902.242,-64.8774 902.285,-71.8773"/>
</g>
<!-- Node7&#45;&gt;Node5 -->
<g id="edge7" class="edge"><title>Node7&#45;&gt;Node5</title>
<path fill="none" stroke="midnightblue" d="M905.837,-108.648C848.575,-108.296 760.646,-107.755 701.304,-107.39"/>
<polygon fill="midnightblue" stroke="midnightblue" points="701.325,-103.89 691.303,-107.328 701.281,-110.89 701.325,-103.89"/>
</g>
<!-- Node8 -->
<g id="node8" class="node"><title>Node8</title>
<g id="a_node8"><a xlink:href="namespaceforcebalance_1_1nifty.html#a8d63c8ae9a67c66673a6cf81357f827d" target="_top" xlink:title="Returns a big number if we encounter NaN.">
<polygon fill="white" stroke="black" points="1061.97,-100 1061.97,-120 1194.03,-120 1194.03,-100 1061.97,-100"/>
<text text-anchor="middle" x="1128" y="-107" font-family="Ubuntu-R" font-size="10.00">forcebalance.nifty.floatornan</text>
</a>
</g>
</g>
<!-- Node7&#45;&gt;Node8 -->
<g id="edge8" class="edge"><title>Node7&#45;&gt;Node8</title>
<path fill="none" stroke="midnightblue" d="M1022.12,-109.353C1031.65,-109.411 1041.67,-109.473 1051.57,-109.534"/>
<polygon fill="midnightblue" stroke="midnightblue" points="1051.81,-113.036 1061.83,-109.598 1051.85,-106.036 1051.81,-113.036"/>
</g>
<!-- Node9 -->
<g id="node9" class="node"><title>Node9</title>
<g id="a_node9"><a xlink:href="namespaceforcebalance_1_1nifty.html#a6c9727360cdff8f3011a12cc54d0e86e" target="_top" xlink:title="Given any list, array, or matrix, return a 1&#45;row matrix.">
<polygon fill="white" stroke="black" points="1243.75,-100 1243.75,-120 1350.25,-120 1350.25,-100 1243.75,-100"/>
<text text-anchor="middle" x="1297" y="-107" font-family="Ubuntu-R" font-size="10.00">forcebalance.nifty.row</text>
</a>
</g>
</g>
<!-- Node8&#45;&gt;Node9 -->
<g id="edge9" class="edge"><title>Node8&#45;&gt;Node9</title>
<path fill="none" stroke="midnightblue" d="M1194.04,-110C1206.98,-110 1220.54,-110 1233.39,-110"/>
<polygon fill="midnightblue" stroke="midnightblue" points="1233.52,-113.5 1243.52,-110 1233.52,-106.5 1233.52,-113.5"/>
</g>
<!-- Node10 -->
<g id="node10" class="node"><title>Node10</title>
<g id="a_node10"><a xlink:href="namespaceforcebalance_1_1nifty.html#a7676236002c6a65ea7d2e69a09923889" target="_top" xlink:title="Given two vectors vec1 and vec2, project out the component of vec1 that is along the vec2&#45;direction...">
<polygon fill="white" stroke="black" points="1400.03,-102 1400.03,-122 1545.97,-122 1545.97,-102 1400.03,-102"/>
<text text-anchor="middle" x="1473" y="-109" font-family="Ubuntu-R" font-size="10.00">forcebalance.nifty.orthogonalize</text>
</a>
</g>
</g>
<!-- Node9&#45;&gt;Node10 -->
<g id="edge10" class="edge"><title>Node9&#45;&gt;Node10</title>
<path fill="none" stroke="midnightblue" d="M1350.68,-110.605C1363.03,-110.748 1376.49,-110.902 1389.79,-111.055"/>
<polygon fill="midnightblue" stroke="midnightblue" points="1389.88,-114.556 1399.92,-111.171 1389.96,-107.557 1389.88,-114.556"/>
</g>
<!-- Node12 -->
<g id="node12" class="node"><title>Node12</title>
<g id="a_node12"><a xlink:href="namespaceforcebalance_1_1nifty.html#a52114ceee9d55f94d9aecb3e176de294" target="_top" xlink:title="Given any list, array, or matrix, return a single&#45;index array.">
<polygon fill="white" stroke="black" points="1075.86,-58 1075.86,-78 1180.14,-78 1180.14,-58 1075.86,-58"/>
<text text-anchor="middle" x="1128" y="-65" font-family="Ubuntu-R" font-size="10.00">forcebalance.nifty.flat</text>
</a>
</g>
</g>
<!-- Node11&#45;&gt;Node12 -->
<g id="edge12" class="edge"><title>Node11&#45;&gt;Node12</title>
<path fill="none" stroke="midnightblue" d="M1015.81,-68C1031.64,-68 1049.27,-68 1065.73,-68"/>
<polygon fill="midnightblue" stroke="midnightblue" points="1065.81,-71.5001 1075.81,-68 1065.81,-64.5001 1065.81,-71.5001"/>
</g>
<!-- Node13 -->
<g id="node13" class="node"><title>Node13</title>
<g id="a_node13"><a xlink:href="namespaceforcebalance_1_1nifty.html#a4c82187e92dfeb8a159f4aa44b501c40" target="_top" xlink:title="Invert a matrix using singular value decomposition.">
<polygon fill="white" stroke="black" points="1230.41,-19 1230.41,-39 1363.59,-39 1363.59,-19 1230.41,-19"/>
<text text-anchor="middle" x="1297" y="-26" font-family="Ubuntu-R" font-size="10.00">forcebalance.nifty.invert_svd</text>
</a>
</g>
</g>
<!-- Node12&#45;&gt;Node13 -->
<g id="edge13" class="edge"><title>Node12&#45;&gt;Node13</title>
<path fill="none" stroke="midnightblue" d="M1172.01,-57.9565C1193.73,-52.8843 1220.27,-46.6857 1243.22,-41.3269"/>
<polygon fill="midnightblue" stroke="midnightblue" points="1244.2,-44.6919 1253.14,-39.0094 1242.61,-37.8754 1244.2,-44.6919"/>
</g>
<!-- Node13&#45;&gt;Node11 -->
<g id="edge17" class="edge"><title>Node13&#45;&gt;Node11</title>
<path fill="none" stroke="midnightblue" d="M1230.2,-32.1875C1183.17,-34.99 1118.49,-39.9143 1062,-48 1047.76,-50.039 1032.46,-52.8822 1018.32,-55.7859"/>
<polygon fill="midnightblue" stroke="midnightblue" points="1017.33,-52.4182 1008.26,-57.9004 1018.77,-59.2685 1017.33,-52.4182"/>
</g>
<!-- Node14 -->
<g id="node14" class="node"><title>Node14</title>
<g id="a_node14"><a xlink:href="namespaceforcebalance_1_1nifty.html#aa9fb9c7c65231eca50a7afc04f489b64" target="_top" xlink:title="forcebalance.nifty.get\l_least_squares">
<polygon fill="white" stroke="black" points="1421.41,-51 1421.41,-83 1524.59,-83 1524.59,-51 1421.41,-51"/>
<text text-anchor="start" x="1429.41" y="-70" font-family="Ubuntu-R" font-size="10.00">forcebalance.nifty.get</text>
<text text-anchor="middle" x="1473" y="-58" font-family="Ubuntu-R" font-size="10.00">_least_squares</text>
</a>
</g>
</g>
<!-- Node13&#45;&gt;Node14 -->
<g id="edge14" class="edge"><title>Node13&#45;&gt;Node14</title>
<path fill="none" stroke="midnightblue" d="M1344.17,-39.0835C1364.78,-43.5835 1389.33,-48.9463 1411.39,-53.7633"/>
<polygon fill="midnightblue" stroke="midnightblue" points="1410.81,-57.2187 1421.32,-55.933 1412.3,-50.3799 1410.81,-57.2187"/>
</g>
<!-- Node16 -->
<g id="node16" class="node"><title>Node16</title>
<g id="a_node16"><a xlink:href="namespaceforcebalance_1_1nifty.html#abb8f59044961a12588e0653c2baa8b01" target="_top" xlink:title="forcebalance.nifty.warn\l_press_key">
<polygon fill="white" stroke="black" points="1417.53,-0 1417.53,-32 1528.47,-32 1528.47,-0 1417.53,-0"/>
<text text-anchor="start" x="1425.53" y="-19" font-family="Ubuntu-R" font-size="10.00">forcebalance.nifty.warn</text>
<text text-anchor="middle" x="1473" y="-7" font-family="Ubuntu-R" font-size="10.00">_press_key</text>
</a>
</g>
</g>
<!-- Node13&#45;&gt;Node16 -->
<g id="edge18" class="edge"><title>Node13&#45;&gt;Node16</title>
<path fill="none" stroke="midnightblue" d="M1363.78,-24.0853C1378.03,-23.0207 1393.09,-21.8956 1407.3,-20.8342"/>
<polygon fill="midnightblue" stroke="midnightblue" points="1407.76,-24.3097 1417.47,-20.0743 1407.23,-17.3291 1407.76,-24.3097"/>
</g>
<!-- Node14&#45;&gt;Node12 -->
<g id="edge15" class="edge"><title>Node14&#45;&gt;Node12</title>
<path fill="none" stroke="midnightblue" d="M1421.14,-67.1483C1359.72,-67.3274 1256.46,-67.6284 1190.59,-67.8204"/>
<polygon fill="midnightblue" stroke="midnightblue" points="1190.34,-64.3211 1180.35,-67.8503 1190.36,-71.321 1190.34,-64.3211"/>
</g>
<!-- Node15 -->
<g id="node15" class="node"><title>Node15</title>
<g id="a_node15"><a xlink:href="namespaceforcebalance_1_1nifty.html#ad5ca60565c864b4245a8212fe9d92e10" target="_top" xlink:title="Compute the (cross) statistical inefficiency of (two) timeseries.">
<polygon fill="white" stroke="black" points="1595.64,-51 1595.64,-83 1724.36,-83 1724.36,-51 1595.64,-51"/>
<text text-anchor="start" x="1603.64" y="-70" font-family="Ubuntu-R" font-size="10.00">forcebalance.nifty.statistical</text>
<text text-anchor="middle" x="1660" y="-58" font-family="Ubuntu-R" font-size="10.00">Inefficiency</text>
</a>
</g>
</g>
<!-- Node14&#45;&gt;Node15 -->
<g id="edge16" class="edge"><title>Node14&#45;&gt;Node15</title>
<path fill="none" stroke="midnightblue" d="M1525.04,-67C1543.71,-67 1565.21,-67 1585.45,-67"/>
<polygon fill="midnightblue" stroke="midnightblue" points="1585.58,-70.5001 1595.58,-67 1585.58,-63.5001 1585.58,-70.5001"/>
</g>
<!-- Node17 -->
<g id="node17" class="node"><title>Node17</title>
<g id="a_node17"><a xlink:href="namespaceforcebalance_1_1nifty.html#a2fc81730e7efa7d138dd86f733507bfc" target="_top" xlink:title="Similar to the bultin function map().">
<polygon fill="white" stroke="black" points="1582.04,-6 1582.04,-26 1737.96,-26 1737.96,-6 1582.04,-6"/>
<text text-anchor="middle" x="1660" y="-13" font-family="Ubuntu-R" font-size="10.00">forcebalance.nifty.concurrent_map</text>
</a>
</g>
</g>
<!-- Node16&#45;&gt;Node17 -->
<g id="edge19" class="edge"><title>Node16&#45;&gt;Node17</title>
<path fill="none" stroke="midnightblue" d="M1528.51,-16C1542.1,-16 1557.02,-16 1571.77,-16"/>
<polygon fill="midnightblue" stroke="midnightblue" points="1571.92,-19.5001 1581.92,-16 1571.92,-12.5001 1571.92,-19.5001"/>
</g>
<!-- Node18&#45;&gt;Node2 -->
<g id="edge23" class="edge"><title>Node18&#45;&gt;Node2</title>
<path fill="none" stroke="midnightblue" d="M525.61,-252.119C543.991,-256.928 563.993,-262.161 581.858,-266.835"/>
<polygon fill="midnightblue" stroke="midnightblue" points="580.979,-270.223 591.54,-269.368 582.751,-263.451 580.979,-270.223"/>
</g>
<!-- Node18&#45;&gt;Node3 -->
<g id="edge29" class="edge"><title>Node18&#45;&gt;Node3</title>
<path fill="none" stroke="midnightblue" d="M387.712,-242.638C379.416,-242.744 370.921,-242.775 362.509,-242.73"/>
<polygon fill="midnightblue" stroke="midnightblue" points="362.341,-239.229 352.309,-242.638 362.277,-246.228 362.341,-239.229"/>
</g>
<!-- Node19 -->
<g id="node19" class="node"><title>Node19</title>
<g id="a_node19"><a xlink:href="namespaceforcebalance_1_1nifty.html#ac37d4fe58ef70ed546ebfc45d12f7a5d" target="_top" xlink:title="forcebalance.nifty.getWork\lQueue">
<polygon fill="white" stroke="black" points="574.028,-175 574.028,-207 699.972,-207 699.972,-175 574.028,-175"/>
<text text-anchor="start" x="582.028" y="-194" font-family="Ubuntu-R" font-size="10.00">forcebalance.nifty.getWork</text>
<text text-anchor="middle" x="637" y="-182" font-family="Ubuntu-R" font-size="10.00">Queue</text>
</a>
</g>
</g>
<!-- Node18&#45;&gt;Node19 -->
<g id="edge24" class="edge"><title>Node18&#45;&gt;Node19</title>
<path fill="none" stroke="midnightblue" d="M525.61,-219.881C538.361,-216.545 551.892,-213.005 564.949,-209.589"/>
<polygon fill="midnightblue" stroke="midnightblue" points="566.032,-212.924 574.82,-207.006 564.26,-206.152 566.032,-212.924"/>
</g>
<!-- Node20 -->
<g id="node20" class="node"><title>Node20</title>
<g id="a_node20"><a xlink:href="namespaceforcebalance_1_1nifty.html#a576de8c5b6f236280e07e73e39b2ab7c" target="_top" xlink:title="This function waits until the work queue is completely empty.">
<polygon fill="white" stroke="black" points="574.303,-226 574.303,-246 699.697,-246 699.697,-226 574.303,-226"/>
<text text-anchor="middle" x="637" y="-233" font-family="Ubuntu-R" font-size="10.00">forcebalance.nifty.wq_wait</text>
</a>
</g>
</g>
<!-- Node18&#45;&gt;Node20 -->
<g id="edge25" class="edge"><title>Node18&#45;&gt;Node20</title>
<path fill="none" stroke="midnightblue" d="M538.191,-236C546.724,-236 555.414,-236 563.918,-236"/>
<polygon fill="midnightblue" stroke="midnightblue" points="564.176,-239.5 574.176,-236 564.175,-232.5 564.176,-239.5"/>
</g>
<!-- Node21 -->
<g id="node21" class="node"><title>Node21</title>
<g id="a_node21"><a xlink:href="namespaceforcebalance_1_1nifty.html#ac9ab6c5543a2e3080061e0024850edf3" target="_top" xlink:title="forcebalance.nifty.allsplit">
<polygon fill="white" stroke="black" points="741.909,-226 741.909,-246 860.091,-246 860.091,-226 741.909,-226"/>
<text text-anchor="middle" x="801" y="-233" font-family="Ubuntu-R" font-size="10.00">forcebalance.nifty.allsplit</text>
</a>
</g>
</g>
<!-- Node20&#45;&gt;Node21 -->
<g id="edge26" class="edge"><title>Node20&#45;&gt;Node21</title>
<path fill="none" stroke="midnightblue" d="M699.707,-236C710.143,-236 721.031,-236 731.625,-236"/>
<polygon fill="midnightblue" stroke="midnightblue" points="731.666,-239.5 741.666,-236 731.666,-232.5 731.666,-239.5"/>
</g>
<!-- Node22 -->
<g id="node22" class="node"><title>Node22</title>
<g id="a_node22"><a xlink:href="namespaceforcebalance_1_1nifty.html#ae87c7def5f8edf2ec30737bdb1d2636f" target="_top" xlink:title="forcebalance.nifty.Missing\lFileInspection">
<polygon fill="white" stroke="black" points="902.409,-220 902.409,-252 1025.59,-252 1025.59,-220 902.409,-220"/>
<text text-anchor="start" x="910.409" y="-239" font-family="Ubuntu-R" font-size="10.00">forcebalance.nifty.Missing</text>
<text text-anchor="middle" x="964" y="-227" font-family="Ubuntu-R" font-size="10.00">FileInspection</text>
</a>
</g>
</g>
<!-- Node21&#45;&gt;Node22 -->
<g id="edge27" class="edge"><title>Node21&#45;&gt;Node22</title>
<path fill="none" stroke="midnightblue" d="M860.125,-236C870.5,-236 881.414,-236 892.098,-236"/>
<polygon fill="midnightblue" stroke="midnightblue" points="892.248,-239.5 902.248,-236 892.247,-232.5 892.248,-239.5"/>
</g>
<!-- Node23 -->
<g id="node23" class="node"><title>Node23</title>
<g id="a_node23"><a xlink:href="namespaceforcebalance_1_1nifty.html#a0cf4e58f90acf20e3d6224be2354082c" target="_top" xlink:title="forcebalance.nifty.link\l_dir_contents">
<polygon fill="white" stroke="black" points="1074.74,-220 1074.74,-252 1181.26,-252 1181.26,-220 1074.74,-220"/>
<text text-anchor="start" x="1082.74" y="-239" font-family="Ubuntu-R" font-size="10.00">forcebalance.nifty.link</text>
<text text-anchor="middle" x="1128" y="-227" font-family="Ubuntu-R" font-size="10.00">_dir_contents</text>
</a>
</g>
</g>
<!-- Node22&#45;&gt;Node23 -->
<g id="edge28" class="edge"><title>Node22&#45;&gt;Node23</title>
<path fill="none" stroke="midnightblue" d="M1025.78,-236C1038.46,-236 1051.85,-236 1064.59,-236"/>
<polygon fill="midnightblue" stroke="midnightblue" points="1064.64,-239.5 1074.64,-236 1064.64,-232.5 1064.64,-239.5"/>
</g>
</g>
</svg>
