<?xml version="1.0" encoding="UTF-8" standalone="no"?>
<!DOCTYPE svg PUBLIC "-//W3C//DTD SVG 1.1//EN"
 "http://www.w3.org/Graphics/SVG/1.1/DTD/svg11.dtd">
<!-- Generated by graphviz version 2.40.1 (20161225.0304)
 -->
<!-- Title: src.amberio.AMBER.molecular_dynamics Pages: 1 -->
<svg width="741pt" height="192pt"
 viewBox="0.00 0.00 741.00 191.50" xmlns="http://www.w3.org/2000/svg" xmlns:xlink="http://www.w3.org/1999/xlink">
<g id="graph0" class="graph" transform="scale(1 1) rotate(0) translate(4 187.5)">
<title>src.amberio.AMBER.molecular_dynamics</title>
<polygon fill="#ffffff" stroke="transparent" points="-4,4 -4,-187.5 737,-187.5 737,4 -4,4"/>
<!-- Node97 -->
<g id="node1" class="node">
<title>Node97</title>
<polygon fill="#bfbfbf" stroke="#000000" points="0,-58 0,-88 164,-88 164,-58 0,-58"/>
<text text-anchor="start" x="8" y="-76" font-family="Ubuntu-R" font-size="10.00" fill="#000000">src.amberio.AMBER.molecular</text>
<text text-anchor="middle" x="82" y="-65" font-family="Ubuntu-R" font-size="10.00" fill="#000000">_dynamics</text>
</g>
<!-- Node98 -->
<g id="node2" class="node">
<title>Node98</title>
<g id="a_node2"><a xlink:href="namespacesrc_1_1nifty.html#a9bda70a78d0f5d31e10dfffaf85803c9" target="_top" xlink:title="Cool&#45;looking printout for slick formatting of output. ">
<polygon fill="#ffffff" stroke="#000000" points="217.5,-101.5 217.5,-120.5 318.5,-120.5 318.5,-101.5 217.5,-101.5"/>
<text text-anchor="middle" x="268" y="-108.5" font-family="Ubuntu-R" font-size="10.00" fill="#000000">src.nifty.printcool</text>
</a>
</g>
</g>
<!-- Node97&#45;&gt;Node98 -->
<g id="edge1" class="edge">
<title>Node97&#45;&gt;Node98</title>
<path fill="none" stroke="#191970" d="M155.5121,-88.0186C174.1017,-91.8165 193.7789,-95.8366 211.3894,-99.4344"/>
<polygon fill="#191970" stroke="#191970" points="210.9973,-102.9265 221.4955,-101.4991 212.3985,-96.0682 210.9973,-102.9265"/>
</g>
<!-- Node100 -->
<g id="node4" class="node">
<title>Node100</title>
<g id="a_node4"><a xlink:href="namespacesrc_1_1amberio.html#aa3b1df1e806f3b06b41bcaabe3873998" target="_top" xlink:title="Write an AMBER .mdin file to carry out a calculation using sander or pmemd.cuda. ">
<polygon fill="#ffffff" stroke="#000000" points="202,-151.5 202,-170.5 334,-170.5 334,-151.5 202,-151.5"/>
<text text-anchor="middle" x="268" y="-158.5" font-family="Ubuntu-R" font-size="10.00" fill="#000000">src.amberio.write_mdin</text>
</a>
</g>
</g>
<!-- Node97&#45;&gt;Node100 -->
<g id="edge3" class="edge">
<title>Node97&#45;&gt;Node100</title>
<path fill="none" stroke="#191970" d="M112.9656,-88.1905C136.7144,-99.7842 170.3432,-116.0792 200,-130 212.2037,-135.7284 225.7033,-141.9136 237.4363,-147.2412"/>
<polygon fill="#191970" stroke="#191970" points="236.256,-150.5488 246.8093,-151.4857 239.1437,-144.1721 236.256,-150.5488"/>
</g>
<!-- Node103 -->
<g id="node7" class="node">
<title>Node103</title>
<g id="a_node7"><a xlink:href="classsrc_1_1amberio_1_1AMBER.html#a8cb2d1848fd4fa90dd2998e38592a21e" target="_top" xlink:title="src.amberio.AMBER.leap">
<polygon fill="#ffffff" stroke="#000000" points="200,-44.5 200,-63.5 336,-63.5 336,-44.5 200,-44.5"/>
<text text-anchor="middle" x="268" y="-51.5" font-family="Ubuntu-R" font-size="10.00" fill="#000000">src.amberio.AMBER.leap</text>
</a>
</g>
</g>
<!-- Node97&#45;&gt;Node103 -->
<g id="edge6" class="edge">
<title>Node97&#45;&gt;Node103</title>
<path fill="none" stroke="#191970" d="M164.1237,-64.611C172.6337,-63.7417 181.2669,-62.8598 189.733,-61.995"/>
<polygon fill="#191970" stroke="#191970" points="190.3647,-65.4488 199.9573,-60.9506 189.6533,-58.485 190.3647,-65.4488"/>
</g>
<!-- Node108 -->
<g id="node12" class="node">
<title>Node108</title>
<g id="a_node12"><a xlink:href="classsrc_1_1amberio_1_1AMBER.html#a4fa14e4e3ccc8936084020563bf86e53" target="_top" xlink:title="Call AMBER; prepend amberhome to calling the appropriate ambertools program. ">
<polygon fill="#ffffff" stroke="#000000" points="372,-.5 372,-19.5 536,-19.5 536,-.5 372,-.5"/>
<text text-anchor="middle" x="454" y="-7.5" font-family="Ubuntu-R" font-size="10.00" fill="#000000">src.amberio.AMBER.callamber</text>
</a>
</g>
</g>
<!-- Node97&#45;&gt;Node108 -->
<g id="edge13" class="edge">
<title>Node97&#45;&gt;Node108</title>
<path fill="none" stroke="#191970" d="M121.5734,-57.9172C144.2185,-49.8812 173.3436,-40.5376 200,-35 252.9578,-23.9985 313.1624,-17.8045 361.6623,-14.3347"/>
<polygon fill="#191970" stroke="#191970" points="362.0913,-17.8135 371.8272,-13.6349 361.6104,-10.8301 362.0913,-17.8135"/>
</g>
<!-- Node99 -->
<g id="node3" class="node">
<title>Node99</title>
<g id="a_node3"><a xlink:href="namespacesrc_1_1nifty.html#a6ae2951ba2a22420a11abda6be7e5454" target="_top" xlink:title="src.nifty.warn_press_key">
<polygon fill="#ffffff" stroke="#000000" points="584,-114.5 584,-133.5 721,-133.5 721,-114.5 584,-114.5"/>
<text text-anchor="middle" x="652.5" y="-121.5" font-family="Ubuntu-R" font-size="10.00" fill="#000000">src.nifty.warn_press_key</text>
</a>
</g>
</g>
<!-- Node98&#45;&gt;Node99 -->
<g id="edge2" class="edge">
<title>Node98&#45;&gt;Node99</title>
<path fill="none" stroke="#191970" d="M318.662,-112.7129C383.748,-114.9135 497.4173,-118.7566 573.8059,-121.3393"/>
<polygon fill="#191970" stroke="#191970" points="573.7491,-124.8393 583.8617,-121.6793 573.9858,-117.8433 573.7491,-124.8393"/>
</g>
<!-- Node101 -->
<g id="node5" class="node">
<title>Node101</title>
<g id="a_node5"><a xlink:href="namespacesrc_1_1amberio.html#a526ac77cde3d083631db82b2d229d2db" target="_top" xlink:title="Parse a file containing an AMBER namelist (only significantly tested for sander input). ">
<polygon fill="#ffffff" stroke="#000000" points="383.5,-153 383.5,-183 524.5,-183 524.5,-153 383.5,-153"/>
<text text-anchor="start" x="391.5" y="-171" font-family="Ubuntu-R" font-size="10.00" fill="#000000">src.amberio.parse_amber</text>
<text text-anchor="middle" x="454" y="-160" font-family="Ubuntu-R" font-size="10.00" fill="#000000">_namelist</text>
</a>
</g>
</g>
<!-- Node100&#45;&gt;Node101 -->
<g id="edge4" class="edge">
<title>Node100&#45;&gt;Node101</title>
<path fill="none" stroke="#191970" d="M334.1004,-163.4876C346.7063,-163.9621 360.0337,-164.4636 373.0415,-164.9532"/>
<polygon fill="#191970" stroke="#191970" points="373.2605,-168.4638 383.3851,-165.3424 373.5238,-161.4688 373.2605,-168.4638"/>
</g>
<!-- Node102 -->
<g id="node6" class="node">
<title>Node102</title>
<g id="a_node6"><a xlink:href="namespacesrc_1_1amberio.html#ab145e7dc869bc06009b5f5cf0208bb77" target="_top" xlink:title="Remove the comment from a line in an AMBER namelist. ">
<polygon fill="#ffffff" stroke="#000000" points="579.5,-158.5 579.5,-177.5 725.5,-177.5 725.5,-158.5 579.5,-158.5"/>
<text text-anchor="middle" x="652.5" y="-165.5" font-family="Ubuntu-R" font-size="10.00" fill="#000000">src.amberio.splitComment</text>
</a>
</g>
</g>
<!-- Node101&#45;&gt;Node102 -->
<g id="edge5" class="edge">
<title>Node101&#45;&gt;Node102</title>
<path fill="none" stroke="#191970" d="M524.5426,-168C538.9386,-168 554.2162,-168 569.014,-168"/>
<polygon fill="#191970" stroke="#191970" points="569.1653,-171.5001 579.1653,-168 569.1653,-164.5001 569.1653,-171.5001"/>
</g>
<!-- Node104 -->
<g id="node8" class="node">
<title>Node104</title>
<g id="a_node8"><a xlink:href="namespacesrc_1_1nifty.html#a7fd3a0edb0212c320360d7685227b0f5" target="_top" xlink:title="src.nifty.LinkFile">
<polygon fill="#ffffff" stroke="#000000" points="406.5,-38.5 406.5,-57.5 501.5,-57.5 501.5,-38.5 406.5,-38.5"/>
<text text-anchor="middle" x="454" y="-45.5" font-family="Ubuntu-R" font-size="10.00" fill="#000000">src.nifty.LinkFile</text>
</a>
</g>
</g>
<!-- Node103&#45;&gt;Node104 -->
<g id="edge7" class="edge">
<title>Node103&#45;&gt;Node104</title>
<path fill="none" stroke="#191970" d="M336.2034,-51.7999C355.9776,-51.162 377.3652,-50.4721 396.4205,-49.8574"/>
<polygon fill="#191970" stroke="#191970" points="396.5637,-53.3547 406.4456,-49.534 396.3379,-46.3583 396.5637,-53.3547"/>
</g>
<!-- Node106 -->
<g id="node10" class="node">
<title>Node106</title>
<g id="a_node10"><a xlink:href="namespacesrc_1_1amberio.html#ac5df3fe728e9cc0536e1abc7ce6c982d" target="_top" xlink:title="Parse and edit an AMBER LEaP input file. ">
<polygon fill="#ffffff" stroke="#000000" points="390,-76.5 390,-95.5 518,-95.5 518,-76.5 390,-76.5"/>
<text text-anchor="middle" x="454" y="-83.5" font-family="Ubuntu-R" font-size="10.00" fill="#000000">src.amberio.write_leap</text>
</a>
</g>
</g>
<!-- Node103&#45;&gt;Node106 -->
<g id="edge9" class="edge">
<title>Node103&#45;&gt;Node106</title>
<path fill="none" stroke="#191970" d="M323.3025,-63.5144C343.8253,-67.0452 367.2962,-71.0832 388.6329,-74.754"/>
<polygon fill="#191970" stroke="#191970" points="388.1407,-78.2207 398.5894,-76.467 389.3276,-71.3221 388.1407,-78.2207"/>
</g>
<!-- Node103&#45;&gt;Node108 -->
<g id="edge12" class="edge">
<title>Node103&#45;&gt;Node108</title>
<path fill="none" stroke="#191970" d="M307.4897,-44.4265C326.9113,-39.7388 350.6736,-34.0339 372,-29 381.9201,-26.6584 392.5219,-24.1824 402.6973,-21.8189"/>
<polygon fill="#191970" stroke="#191970" points="403.7386,-25.1704 412.6896,-19.5022 402.1575,-18.3513 403.7386,-25.1704"/>
</g>
<!-- Node105 -->
<g id="node9" class="node">
<title>Node105</title>
<g id="a_node9"><a xlink:href="namespacesrc_1_1nifty.html#a39a23ca3b83aadd4bfdf3eee9abb3257" target="_top" xlink:title="src.nifty.MissingFileInspection">
<polygon fill="#ffffff" stroke="#000000" points="572,-38.5 572,-57.5 733,-57.5 733,-38.5 572,-38.5"/>
<text text-anchor="middle" x="652.5" y="-45.5" font-family="Ubuntu-R" font-size="10.00" fill="#000000">src.nifty.MissingFileInspection</text>
</a>
</g>
</g>
<!-- Node104&#45;&gt;Node105 -->
<g id="edge8" class="edge">
<title>Node104&#45;&gt;Node105</title>
<path fill="none" stroke="#191970" d="M501.5457,-48C519.5835,-48 540.7824,-48 561.4987,-48"/>
<polygon fill="#191970" stroke="#191970" points="561.6138,-51.5001 571.6137,-48 561.6137,-44.5001 561.6138,-51.5001"/>
</g>
<!-- Node106&#45;&gt;Node99 -->
<g id="edge10" class="edge">
<title>Node106&#45;&gt;Node99</title>
<path fill="none" stroke="#191970" d="M503.8337,-95.54C530.7339,-100.6896 564.1362,-107.084 592.4614,-112.5065"/>
<polygon fill="#191970" stroke="#191970" points="592.166,-116.0134 602.6458,-114.4561 593.4822,-109.1382 592.166,-116.0134"/>
</g>
<!-- Node107 -->
<g id="node11" class="node">
<title>Node107</title>
<g id="a_node11"><a xlink:href="namespacesrc_1_1nifty.html#a82f89e3045bdeed09a928bb9ce8b0dc1" target="_top" xlink:title="If trying to write to a symbolic link, remove it first. ">
<polygon fill="#ffffff" stroke="#000000" points="607.5,-76.5 607.5,-95.5 697.5,-95.5 697.5,-76.5 607.5,-76.5"/>
<text text-anchor="middle" x="652.5" y="-83.5" font-family="Ubuntu-R" font-size="10.00" fill="#000000">src.nifty.wopen</text>
</a>
</g>
</g>
<!-- Node106&#45;&gt;Node107 -->
<g id="edge11" class="edge">
<title>Node106&#45;&gt;Node107</title>
<path fill="none" stroke="#191970" d="M518.1731,-86C543.6449,-86 572.6541,-86 597.1797,-86"/>
<polygon fill="#191970" stroke="#191970" points="597.3928,-89.5001 607.3928,-86 597.3928,-82.5001 597.3928,-89.5001"/>
</g>
</g>
</svg>
