<?xml version="1.0" encoding="UTF-8" standalone="no"?>
<!DOCTYPE svg PUBLIC "-//W3C//DTD SVG 1.1//EN"
 "http://www.w3.org/Graphics/SVG/1.1/DTD/svg11.dtd">
<!-- Generated by graphviz version 2.40.1 (20161225.0304)
 -->
<!-- Title: src.forcefield.FF.find_spacings Pages: 1 -->
<svg width="404pt" height="127pt"
 viewBox="0.00 0.00 404.00 126.50" xmlns="http://www.w3.org/2000/svg" xmlns:xlink="http://www.w3.org/1999/xlink">
<g id="graph0" class="graph" transform="scale(1 1) rotate(0) translate(4 122.5)">
<title>src.forcefield.FF.find_spacings</title>
<polygon fill="#ffffff" stroke="transparent" points="-4,4 -4,-122.5 400,-122.5 400,4 -4,4"/>
<!-- Node36 -->
<g id="node1" class="node">
<title>Node36</title>
<polygon fill="#bfbfbf" stroke="#000000" points="0,-49.5 0,-79.5 113,-79.5 113,-49.5 0,-49.5"/>
<text text-anchor="start" x="8" y="-67.5" font-family="Ubuntu-R" font-size="10.00" fill="#000000">src.forcefield.FF.find</text>
<text text-anchor="middle" x="56.5" y="-56.5" font-family="Ubuntu-R" font-size="10.00" fill="#000000">_spacings</text>
</g>
<!-- Node37 -->
<g id="node2" class="node">
<title>Node37</title>
<g id="a_node2"><a xlink:href="namespacesrc_1_1nifty.html#a6ae2951ba2a22420a11abda6be7e5454" target="_top" xlink:title="src.nifty.warn_press_key">
<polygon fill="#ffffff" stroke="#000000" points="149,-99 149,-118 286,-118 286,-99 149,-99"/>
<text text-anchor="middle" x="217.5" y="-106" font-family="Ubuntu-R" font-size="10.00" fill="#000000">src.nifty.warn_press_key</text>
</a>
</g>
</g>
<!-- Node36&#45;&gt;Node37 -->
<g id="edge1" class="edge">
<title>Node36&#45;&gt;Node37</title>
<path fill="none" stroke="#191970" d="M111.4568,-79.5192C131.3787,-84.9638 153.6292,-91.0446 172.5842,-96.2249"/>
<polygon fill="#191970" stroke="#191970" points="171.8832,-99.6616 182.4522,-98.9217 173.7286,-92.9092 171.8832,-99.6616"/>
</g>
<!-- Node38 -->
<g id="node3" class="node">
<title>Node38</title>
<g id="a_node3"><a xlink:href="classsrc_1_1ffyapf_1_1FF.html#a349f2f0f401834f86f9361d8ec32ad0a" target="_top" xlink:title="Converts mathematical to physical parameters. ">
<polygon fill="#ffffff" stroke="#000000" points="164,-.5 164,-30.5 271,-30.5 271,-.5 164,-.5"/>
<text text-anchor="start" x="172" y="-18.5" font-family="Ubuntu-R" font-size="10.00" fill="#000000">src.ffyapf.FF.create</text>
<text text-anchor="middle" x="217.5" y="-7.5" font-family="Ubuntu-R" font-size="10.00" fill="#000000">_pvals</text>
</a>
</g>
</g>
<!-- Node36&#45;&gt;Node38 -->
<g id="edge2" class="edge">
<title>Node36&#45;&gt;Node38</title>
<path fill="none" stroke="#191970" d="M106.119,-49.3986C122.5702,-44.3917 141.0494,-38.7676 158.1566,-33.561"/>
<polygon fill="#191970" stroke="#191970" points="159.4972,-36.8116 168.0448,-30.5516 157.459,-30.1149 159.4972,-36.8116"/>
</g>
<!-- Node41 -->
<g id="node6" class="node">
<title>Node41</title>
<g id="a_node6"><a xlink:href="classsrc_1_1forcefield_1_1FF.html#ad467744db1396ec74adab0c113317d36" target="_top" xlink:title="Converts mathematical to physical parameters. ">
<polygon fill="#ffffff" stroke="#000000" points="155,-49.5 155,-79.5 280,-79.5 280,-49.5 155,-49.5"/>
<text text-anchor="start" x="163" y="-67.5" font-family="Ubuntu-R" font-size="10.00" fill="#000000">src.forcefield.FF.create</text>
<text text-anchor="middle" x="217.5" y="-56.5" font-family="Ubuntu-R" font-size="10.00" fill="#000000">_pvals</text>
</a>
</g>
</g>
<!-- Node36&#45;&gt;Node41 -->
<g id="edge5" class="edge">
<title>Node36&#45;&gt;Node41</title>
<path fill="none" stroke="#191970" d="M113.2626,-64.5C123.485,-64.5 134.2683,-64.5 144.8679,-64.5"/>
<polygon fill="#191970" stroke="#191970" points="144.9499,-68.0001 154.9498,-64.5 144.9498,-61.0001 144.9499,-68.0001"/>
</g>
<!-- Node39 -->
<g id="node4" class="node">
<title>Node39</title>
<g id="a_node4"><a xlink:href="namespacesrc_1_1nifty.html#ac5b7efc0b11b4fcbb7d0c37c97c4399d" target="_top" xlink:title="Given any list, array, or matrix, return a single&#45;index array. ">
<polygon fill="#ffffff" stroke="#000000" points="322,-52 322,-71 396,-71 396,-52 322,-52"/>
<text text-anchor="middle" x="359" y="-59" font-family="Ubuntu-R" font-size="10.00" fill="#000000">src.nifty.flat</text>
</a>
</g>
</g>
<!-- Node38&#45;&gt;Node39 -->
<g id="edge3" class="edge">
<title>Node38&#45;&gt;Node39</title>
<path fill="none" stroke="#191970" d="M263.8324,-30.5621C281.8894,-36.4322 302.3651,-43.0886 319.6856,-48.7193"/>
<polygon fill="#191970" stroke="#191970" points="318.8847,-52.1392 329.4769,-51.9024 321.0489,-45.4822 318.8847,-52.1392"/>
</g>
<!-- Node40 -->
<g id="node5" class="node">
<title>Node40</title>
<g id="a_node5"><a xlink:href="namespacesrc_1_1nifty.html#a9548285fa85a369d98169ec25abe974c" target="_top" xlink:title="Given any list, array, or matrix, return a 1&#45;column 2D array. ">
<polygon fill="#ffffff" stroke="#000000" points="323,-11 323,-30 395,-30 395,-11 323,-11"/>
<text text-anchor="middle" x="359" y="-18" font-family="Ubuntu-R" font-size="10.00" fill="#000000">src.nifty.col</text>
</a>
</g>
</g>
<!-- Node38&#45;&gt;Node40 -->
<g id="edge4" class="edge">
<title>Node38&#45;&gt;Node40</title>
<path fill="none" stroke="#191970" d="M271.3987,-17.4045C284.9566,-17.8836 299.3911,-18.3937 312.5492,-18.8586"/>
<polygon fill="#191970" stroke="#191970" points="312.6696,-22.365 322.787,-19.2204 312.9169,-15.3693 312.6696,-22.365"/>
</g>
<!-- Node41&#45;&gt;Node39 -->
<g id="edge6" class="edge">
<title>Node41&#45;&gt;Node39</title>
<path fill="none" stroke="#191970" d="M280.388,-63.1667C290.906,-62.9437 301.6588,-62.7157 311.7008,-62.5028"/>
<polygon fill="#191970" stroke="#191970" points="311.9452,-65.9985 321.8688,-62.2872 311.7968,-59.0001 311.9452,-65.9985"/>
</g>
<!-- Node41&#45;&gt;Node40 -->
<g id="edge7" class="edge">
<title>Node41&#45;&gt;Node40</title>
<path fill="none" stroke="#191970" d="M265.8005,-49.4808C282.9061,-44.1617 301.965,-38.2353 318.3682,-33.1346"/>
<polygon fill="#191970" stroke="#191970" points="319.6874,-36.3898 328.1971,-30.0783 317.6088,-29.7055 319.6874,-36.3898"/>
</g>
</g>
</svg>
