<?xml version="1.0" encoding="UTF-8" standalone="no"?>
<!DOCTYPE svg PUBLIC "-//W3C//DTD SVG 1.1//EN"
 "http://www.w3.org/Graphics/SVG/1.1/DTD/svg11.dtd">
<!-- Generated by graphviz version 2.26.3 (20100126.1600)
 -->
<!-- Title: forcebalance.interaction.Interaction Pages: 1 -->
<svg width="798pt" height="134pt"
 viewBox="0.00 0.00 798.00 134.00" xmlns="http://www.w3.org/2000/svg" xmlns:xlink="http://www.w3.org/1999/xlink">
<g id="graph1" class="graph" transform="scale(1 1) rotate(0) translate(4 130)">
<title>forcebalance.interaction.Interaction</title>
<polygon fill="white" stroke="white" points="-4,5 -4,-130 795,-130 795,5 -4,5"/>
<!-- Node1 -->
<g id="node1" class="node"><title>Node1</title>
<polygon fill="#bfbfbf" stroke="black" points="426.5,-52 426.5,-86 561.5,-86 561.5,-52 426.5,-52"/>
<text text-anchor="start" x="434.5" y="-73" font-family="Ubuntu-R" font-size="10.00">forcebalance.interaction.</text>
<text text-anchor="middle" x="494" y="-60" font-family="Ubuntu-R" font-size="10.00">Interaction</text>
</g>
<!-- Node5 -->
<g id="node9" class="node"><title>Node5</title>
<a xlink:href="classforcebalance_1_1gmxio_1_1Interaction__GMX.html" target="_top" xlink:title="Subclass of Interaction for interaction energy matching using GROMACS.">
<polygon fill="white" stroke="black" points="598.5,-104.5 598.5,-125.5 789.5,-125.5 789.5,-104.5 598.5,-104.5"/>
<text text-anchor="middle" x="694" y="-112.5" font-family="Ubuntu-R" font-size="10.00">forcebalance.gmxio.Interaction_GMX</text>
</a>
</g>
<!-- Node1&#45;&gt;Node5 -->
<g id="edge8" class="edge"><title>Node1&#45;&gt;Node5</title>
<path fill="none" stroke="midnightblue" d="M570.477,-88.485C579.737,-90.7361 589.074,-92.9553 598,-95 612.105,-98.2312 627.428,-101.522 641.603,-104.476"/>
<polygon fill="midnightblue" stroke="midnightblue" points="571.028,-85.0166 560.483,-86.0366 569.363,-91.8155 571.028,-85.0166"/>
</g>
<!-- Node6 -->
<g id="node11" class="node"><title>Node6</title>
<a xlink:href="classforcebalance_1_1openmmio_1_1Interaction__OpenMM.html" target="_top" xlink:title="Subclass of Target for interaction matching using OpenMM.">
<polygon fill="white" stroke="black" points="601,-52 601,-86 787,-86 787,-52 601,-52"/>
<text text-anchor="start" x="609" y="-73" font-family="Ubuntu-R" font-size="10.00">forcebalance.openmmio.Interaction</text>
<text text-anchor="middle" x="694" y="-60" font-family="Ubuntu-R" font-size="10.00">_OpenMM</text>
</a>
</g>
<!-- Node1&#45;&gt;Node6 -->
<g id="edge10" class="edge"><title>Node1&#45;&gt;Node6</title>
<path fill="none" stroke="midnightblue" d="M571.879,-69C581.367,-69 591.134,-69 600.816,-69"/>
<polygon fill="midnightblue" stroke="midnightblue" points="571.711,-65.5001 561.711,-69 571.711,-72.5001 571.711,-65.5001"/>
</g>
<!-- Node7 -->
<g id="node13" class="node"><title>Node7</title>
<a xlink:href="classforcebalance_1_1tinkerio_1_1Interaction__TINKER.html" target="_top" xlink:title="Subclass of Target for interaction matching using TINKER.">
<polygon fill="white" stroke="black" points="609,-0 609,-34 779,-34 779,-0 609,-0"/>
<text text-anchor="start" x="617" y="-21" font-family="Ubuntu-R" font-size="10.00">forcebalance.tinkerio.Interaction</text>
<text text-anchor="middle" x="694" y="-8" font-family="Ubuntu-R" font-size="10.00">_TINKER</text>
</a>
</g>
<!-- Node1&#45;&gt;Node7 -->
<g id="edge12" class="edge"><title>Node1&#45;&gt;Node7</title>
<path fill="none" stroke="midnightblue" d="M569.216,-49.444C588.665,-44.3872 609.449,-38.9833 628.365,-34.065"/>
<polygon fill="midnightblue" stroke="midnightblue" points="568.285,-46.0695 559.487,-51.9733 570.046,-52.8442 568.285,-46.0695"/>
</g>
<!-- Node2 -->
<g id="node2" class="node"><title>Node2</title>
<a xlink:href="classforcebalance_1_1target_1_1Target.html" target="_top" xlink:title="Base class for all fitting targets.">
<polygon fill="white" stroke="black" points="248,-58.5 248,-79.5 390,-79.5 390,-58.5 248,-58.5"/>
<text text-anchor="middle" x="319" y="-66.5" font-family="Ubuntu-R" font-size="10.00">forcebalance.target.Target</text>
</a>
</g>
<!-- Node2&#45;&gt;Node1 -->
<g id="edge2" class="edge"><title>Node2&#45;&gt;Node1</title>
<path fill="none" stroke="midnightblue" d="M400.318,-69C409.005,-69 417.773,-69 426.278,-69"/>
<polygon fill="midnightblue" stroke="midnightblue" points="400.179,-65.5001 390.179,-69 400.179,-72.5001 400.179,-65.5001"/>
</g>
<!-- Node3 -->
<g id="node4" class="node"><title>Node3</title>
<a xlink:href="classforcebalance_1_1BaseClass.html" target="_top" xlink:title="Provides some nifty functions that are common to all ForceBalance classes.">
<polygon fill="white" stroke="black" points="82,-58.5 82,-79.5 212,-79.5 212,-58.5 82,-58.5"/>
<text text-anchor="middle" x="147" y="-66.5" font-family="Ubuntu-R" font-size="10.00">forcebalance.BaseClass</text>
</a>
</g>
<!-- Node3&#45;&gt;Node2 -->
<g id="edge4" class="edge"><title>Node3&#45;&gt;Node2</title>
<path fill="none" stroke="midnightblue" d="M222.289,-69C230.778,-69 239.409,-69 247.844,-69"/>
<polygon fill="midnightblue" stroke="midnightblue" points="222.026,-65.5001 212.026,-69 222.026,-72.5001 222.026,-65.5001"/>
</g>
<!-- Node4 -->
<g id="node6" class="node"><title>Node4</title>
<polygon fill="white" stroke="#bfbfbf" points="0,-58.5 0,-79.5 46,-79.5 46,-58.5 0,-58.5"/>
<text text-anchor="middle" x="23" y="-66.5" font-family="Ubuntu-R" font-size="10.00">object</text>
</g>
<!-- Node4&#45;&gt;Node3 -->
<g id="edge6" class="edge"><title>Node4&#45;&gt;Node3</title>
<path fill="none" stroke="midnightblue" d="M56.052,-69C64.0882,-69 72.9609,-69 81.9196,-69"/>
<polygon fill="midnightblue" stroke="midnightblue" points="56.0329,-65.5001 46.0328,-69 56.0328,-72.5001 56.0329,-65.5001"/>
</g>
</g>
</svg>
