<?xml version="1.0" encoding="UTF-8" standalone="no"?>
<!DOCTYPE svg PUBLIC "-//W3C//DTD SVG 1.1//EN"
 "http://www.w3.org/Graphics/SVG/1.1/DTD/svg11.dtd">
<!-- Generated by graphviz version 2.28.0 (20111219.2309)
 -->
<!-- Title: G Pages: 1 -->
<svg width="2680pt" height="190pt"
 viewBox="0.00 0.00 2680.00 190.00" xmlns="http://www.w3.org/2000/svg" xmlns:xlink="http://www.w3.org/1999/xlink">
<g id="graph1" class="graph" transform="scale(1 1) rotate(0) translate(4 186)">
<title>G</title>
<polygon fill="white" stroke="white" points="-4,5 -4,-186 2677,-186 2677,5 -4,5"/>
<!-- Node1 -->
<g id="node1" class="node"><title>Node1</title>
<polygon fill="#bfbfbf" stroke="black" points="0,-57.5 0,-76.5 198,-76.5 198,-57.5 0,-57.5"/>
<text text-anchor="middle" x="99" y="-64.5" font-family="Ubuntu-R" font-size="10.00">forcebalance.optimizer.Optimizer.step</text>
</g>
<!-- Node2 -->
<g id="node3" class="node"><title>Node2</title>
<a xlink:href="classforcebalance_1_1optimizer_1_1Optimizer.html#a674f1c17cbfaffa7955fb5d833d33e0b" target="_top" xlink:title="Create an Optimizer object.">
<polygon fill="white" stroke="black" points="255,-114.5 255,-133.5 467,-133.5 467,-114.5 255,-114.5"/>
<text text-anchor="middle" x="361" y="-121.5" font-family="Ubuntu-R" font-size="10.00">forcebalance.optimizer.Optimizer.__init__</text>
</a>
</g>
<!-- Node1&#45;&gt;Node2 -->
<g id="edge2" class="edge"><title>Node1&#45;&gt;Node2</title>
<path fill="none" stroke="midnightblue" d="M129.532,-76.5415C156.504,-84.9757 197.602,-97.128 234,-105 247.484,-107.916 261.876,-110.539 275.934,-112.839"/>
<polygon fill="midnightblue" stroke="midnightblue" points="275.667,-116.34 286.092,-114.456 276.767,-109.427 275.667,-116.34"/>
</g>
<!-- Node3 -->
<g id="node5" class="node"><title>Node3</title>
<a xlink:href="classforcebalance_1_1optimizer_1_1Optimizer.html#a5b6e95f9f49b7d970ac8441d68a0023f" target="_top" xlink:title="Optimize the force field parameters using the Newton&#45;Raphson method (.">
<polygon fill="white" stroke="black" points="234,-76.5 234,-95.5 488,-95.5 488,-76.5 234,-76.5"/>
<text text-anchor="middle" x="361" y="-83.5" font-family="Ubuntu-R" font-size="10.00">forcebalance.optimizer.Optimizer.NewtonRaphson</text>
</a>
</g>
<!-- Node1&#45;&gt;Node3 -->
<g id="edge4" class="edge"><title>Node1&#45;&gt;Node3</title>
<path fill="none" stroke="midnightblue" d="M198.295,-74.1831C206.667,-74.7949 215.226,-75.4203 223.821,-76.0484"/>
<polygon fill="midnightblue" stroke="midnightblue" points="223.69,-79.5481 233.918,-76.7863 224.2,-72.5667 223.69,-79.5481"/>
</g>
<!-- Node20 -->
<g id="node42" class="node"><title>Node20</title>
<a xlink:href="classforcebalance_1_1optimizer_1_1Optimizer.html#a1d222f82239075ea0d6b9294b2f50e12" target="_top" xlink:title="The main ForceBalance adaptive trust&#45;radius pseudo&#45;Newton optimizer.">
<polygon fill="white" stroke="black" points="238,-38.5 238,-57.5 484,-57.5 484,-38.5 238,-38.5"/>
<text text-anchor="middle" x="361" y="-45.5" font-family="Ubuntu-R" font-size="10.00">forcebalance.optimizer.Optimizer.MainOptimizer</text>
</a>
</g>
<!-- Node1&#45;&gt;Node20 -->
<g id="edge44" class="edge"><title>Node1&#45;&gt;Node20</title>
<path fill="none" stroke="midnightblue" d="M198.295,-59.8169C207.9,-59.115 217.752,-58.395 227.622,-57.6738"/>
<polygon fill="midnightblue" stroke="midnightblue" points="228.186,-61.142 237.904,-56.9224 227.676,-54.1606 228.186,-61.142"/>
</g>
<!-- Node21 -->
<g id="node44" class="node"><title>Node21</title>
<a xlink:href="classforcebalance_1_1optimizer_1_1Optimizer.html#a58b957fe289822934711c29dfeb8d203" target="_top" xlink:title="Optimize the force field parameters using the BFGS method; currently the recommended choice (...">
<polygon fill="white" stroke="black" points="259.5,-0.5 259.5,-19.5 462.5,-19.5 462.5,-0.5 259.5,-0.5"/>
<text text-anchor="middle" x="361" y="-7.5" font-family="Ubuntu-R" font-size="10.00">forcebalance.optimizer.Optimizer.BFGS</text>
</a>
</g>
<!-- Node1&#45;&gt;Node21 -->
<g id="edge46" class="edge"><title>Node1&#45;&gt;Node21</title>
<path fill="none" stroke="midnightblue" d="M129.532,-57.4585C156.504,-49.0243 197.602,-36.872 234,-29 247.484,-26.0836 261.876,-23.4606 275.934,-21.1611"/>
<polygon fill="midnightblue" stroke="midnightblue" points="276.767,-24.5726 286.092,-19.5443 275.667,-17.6596 276.767,-24.5726"/>
</g>
<!-- Node4 -->
<g id="node7" class="node"><title>Node4</title>
<a xlink:href="classforcebalance_1_1optimizer_1_1Optimizer.html#a503e87533bd9c257cb9c4b505af9c1de" target="_top" xlink:title="Driver for SciPy optimizations.">
<polygon fill="white" stroke="black" points="524.5,-76.5 524.5,-95.5 773.5,-95.5 773.5,-76.5 524.5,-76.5"/>
<text text-anchor="middle" x="649" y="-83.5" font-family="Ubuntu-R" font-size="10.00">forcebalance.optimizer.Optimizer.ScipyOptimizer</text>
</a>
</g>
<!-- Node3&#45;&gt;Node4 -->
<g id="edge6" class="edge"><title>Node3&#45;&gt;Node4</title>
<path fill="none" stroke="midnightblue" d="M488.276,-86C496.881,-86 505.567,-86 514.208,-86"/>
<polygon fill="midnightblue" stroke="midnightblue" points="514.324,-89.5001 524.324,-86 514.323,-82.5001 514.324,-89.5001"/>
</g>
<!-- Node5 -->
<g id="node9" class="node"><title>Node5</title>
<a xlink:href="classforcebalance_1_1optimizer_1_1Optimizer.html#a50ffc779fbba5a99085cba45d868fc29" target="_top" xlink:title="Genetic algorithm, under development.">
<polygon fill="white" stroke="black" points="810,-76.5 810,-95.5 1070,-95.5 1070,-76.5 810,-76.5"/>
<text text-anchor="middle" x="940" y="-83.5" font-family="Ubuntu-R" font-size="10.00">forcebalance.optimizer.Optimizer.GeneticAlgorithm</text>
</a>
</g>
<!-- Node4&#45;&gt;Node5 -->
<g id="edge8" class="edge"><title>Node4&#45;&gt;Node5</title>
<path fill="none" stroke="midnightblue" d="M773.82,-79.3118C782.409,-79.2602 791.097,-79.2409 799.76,-79.254"/>
<polygon fill="midnightblue" stroke="midnightblue" points="799.9,-82.7543 809.911,-79.2842 799.921,-75.7543 799.9,-82.7543"/>
</g>
<!-- Node5&#45;&gt;Node4 -->
<g id="edge38" class="edge"><title>Node5&#45;&gt;Node4</title>
<path fill="none" stroke="midnightblue" d="M809.911,-92.7158C801.287,-92.7542 792.588,-92.7603 783.941,-92.734"/>
<polygon fill="midnightblue" stroke="midnightblue" points="783.835,-89.2335 773.82,-92.6882 783.804,-96.2335 783.835,-89.2335"/>
</g>
<!-- Node6 -->
<g id="node11" class="node"><title>Node6</title>
<a xlink:href="classforcebalance_1_1optimizer_1_1Optimizer.html#a6b3af8115718f61a6a21c3297d717ead" target="_top" xlink:title="Use SciPy&#39;s built&#45;in simplex algorithm to optimize the parameters.">
<polygon fill="white" stroke="black" points="1106.5,-114.5 1106.5,-133.5 1321.5,-133.5 1321.5,-114.5 1106.5,-114.5"/>
<text text-anchor="middle" x="1214" y="-121.5" font-family="Ubuntu-R" font-size="10.00">forcebalance.optimizer.Optimizer.Simplex</text>
</a>
</g>
<!-- Node5&#45;&gt;Node6 -->
<g id="edge10" class="edge"><title>Node5&#45;&gt;Node6</title>
<path fill="none" stroke="midnightblue" d="M1009.29,-95.54C1047.36,-100.859 1094.94,-107.506 1134.54,-113.038"/>
<polygon fill="midnightblue" stroke="midnightblue" points="1134.3,-116.539 1144.69,-114.456 1135.27,-109.606 1134.3,-116.539"/>
</g>
<!-- Node18 -->
<g id="node38" class="node"><title>Node18</title>
<a xlink:href="classforcebalance_1_1optimizer_1_1Optimizer.html#a0745b2e3607ef308ba48bb1d34e5be79" target="_top" xlink:title="Use SciPy&#39;s built&#45;in Powell direction&#45;set algorithm to optimize the parameters.">
<polygon fill="white" stroke="black" points="1111,-76.5 1111,-95.5 1317,-95.5 1317,-76.5 1111,-76.5"/>
<text text-anchor="middle" x="1214" y="-83.5" font-family="Ubuntu-R" font-size="10.00">forcebalance.optimizer.Optimizer.Powell</text>
</a>
</g>
<!-- Node5&#45;&gt;Node18 -->
<g id="edge40" class="edge"><title>Node5&#45;&gt;Node18</title>
<path fill="none" stroke="midnightblue" d="M1070.23,-86C1080.3,-86 1090.42,-86 1100.37,-86"/>
<polygon fill="midnightblue" stroke="midnightblue" points="1100.67,-89.5001 1110.67,-86 1100.67,-82.5001 1100.67,-89.5001"/>
</g>
<!-- Node19 -->
<g id="node40" class="node"><title>Node19</title>
<a xlink:href="classforcebalance_1_1optimizer_1_1Optimizer.html#a183911848e43ca0be1893b87290dc31e" target="_top" xlink:title="Use SciPy&#39;s built&#45;in simulated annealing algorithm to optimize the parameters.">
<polygon fill="white" stroke="black" points="1109,-38.5 1109,-57.5 1319,-57.5 1319,-38.5 1109,-38.5"/>
<text text-anchor="middle" x="1214" y="-45.5" font-family="Ubuntu-R" font-size="10.00">forcebalance.optimizer.Optimizer.Anneal</text>
</a>
</g>
<!-- Node5&#45;&gt;Node19 -->
<g id="edge42" class="edge"><title>Node5&#45;&gt;Node19</title>
<path fill="none" stroke="midnightblue" d="M1009.29,-76.46C1047.36,-71.141 1094.94,-64.494 1134.54,-58.9617"/>
<polygon fill="midnightblue" stroke="midnightblue" points="1135.27,-62.3939 1144.69,-57.5439 1134.3,-55.4612 1135.27,-62.3939"/>
</g>
<!-- Node6&#45;&gt;Node4 -->
<g id="edge14" class="edge"><title>Node6&#45;&gt;Node4</title>
<path fill="none" stroke="midnightblue" d="M1106.38,-121.039C1025.07,-118.281 910.343,-113.313 810,-105 784.159,-102.859 756.054,-99.7777 730.712,-96.7173"/>
<polygon fill="midnightblue" stroke="midnightblue" points="731.13,-93.2424 720.779,-95.502 730.279,-100.191 731.13,-93.2424"/>
</g>
<!-- Node7 -->
<g id="node13" class="node"><title>Node7</title>
<a xlink:href="classforcebalance_1_1optimizer_1_1Optimizer.html#ad1e151204a172a4e75737b2b699d1623" target="_top" xlink:title="Use SciPy&#39;s built&#45;in simulated annealing algorithm to optimize the parameters.">
<polygon fill="white" stroke="black" points="1358.5,-142.5 1358.5,-161.5 1625.5,-161.5 1625.5,-142.5 1358.5,-142.5"/>
<text text-anchor="middle" x="1492" y="-149.5" font-family="Ubuntu-R" font-size="10.00">forcebalance.optimizer.Optimizer.ConjugateGradient</text>
</a>
</g>
<!-- Node6&#45;&gt;Node7 -->
<g id="edge12" class="edge"><title>Node6&#45;&gt;Node7</title>
<path fill="none" stroke="midnightblue" d="M1308.83,-133.519C1333.94,-136.066 1361.23,-138.834 1386.85,-141.435"/>
<polygon fill="midnightblue" stroke="midnightblue" points="1386.66,-144.933 1396.96,-142.46 1387.37,-137.969 1386.66,-144.933"/>
</g>
<!-- Node8 -->
<g id="node16" class="node"><title>Node8</title>
<a xlink:href="classforcebalance_1_1optimizer_1_1Optimizer.html#a6c7508252398ff7e00469c4c8acb0a48" target="_top" xlink:title="Scan through parameter values.">
<polygon fill="white" stroke="black" points="1373,-86.5 1373,-105.5 1611,-105.5 1611,-86.5 1373,-86.5"/>
<text text-anchor="middle" x="1492" y="-93.5" font-family="Ubuntu-R" font-size="10.00">forcebalance.optimizer.Optimizer.Scan_Values</text>
</a>
</g>
<!-- Node6&#45;&gt;Node8 -->
<g id="edge16" class="edge"><title>Node6&#45;&gt;Node8</title>
<path fill="none" stroke="midnightblue" d="M1308.83,-114.481C1333.94,-111.934 1361.23,-109.166 1386.85,-106.565"/>
<polygon fill="midnightblue" stroke="midnightblue" points="1387.37,-110.031 1396.96,-105.54 1386.66,-103.067 1387.37,-110.031"/>
</g>
<!-- Node8&#45;&gt;Node8 -->
<g id="edge28" class="edge"><title>Node8&#45;&gt;Node8</title>
<path fill="none" stroke="midnightblue" d="M1449.5,-105.612C1428.15,-114.461 1442.32,-124 1492,-124 1531.59,-124 1548.63,-117.943 1543.11,-111.004"/>
<polygon fill="midnightblue" stroke="midnightblue" points="1544.83,-107.952 1534.5,-105.612 1541.12,-113.885 1544.83,-107.952"/>
</g>
<!-- Node9 -->
<g id="node18" class="node"><title>Node9</title>
<a xlink:href="classforcebalance_1_1optimizer_1_1Optimizer.html#a43ab8c6bea2b3112468922ab61163f67" target="_top" xlink:title="Scan through the mathematical parameter space.">
<polygon fill="white" stroke="black" points="1662.5,-143.5 1662.5,-162.5 1891.5,-162.5 1891.5,-143.5 1662.5,-143.5"/>
<text text-anchor="middle" x="1777" y="-150.5" font-family="Ubuntu-R" font-size="10.00">forcebalance.optimizer.Optimizer.ScanMVals</text>
</a>
</g>
<!-- Node8&#45;&gt;Node9 -->
<g id="edge18" class="edge"><title>Node8&#45;&gt;Node9</title>
<path fill="none" stroke="midnightblue" d="M1532.48,-105.535C1566.64,-113.629 1617.43,-125.283 1662,-134 1675.79,-136.696 1690.56,-139.339 1704.74,-141.756"/>
<polygon fill="midnightblue" stroke="midnightblue" points="1704.51,-145.265 1714.95,-143.473 1705.67,-138.362 1704.51,-145.265"/>
</g>
<!-- Node14 -->
<g id="node29" class="node"><title>Node14</title>
<a xlink:href="classforcebalance_1_1optimizer_1_1Optimizer.html#a70bff76f2e56d87c8dee8aa92fe56d29" target="_top" xlink:title="Scan through the physical parameter space.">
<polygon fill="white" stroke="black" points="1663.5,-105.5 1663.5,-124.5 1890.5,-124.5 1890.5,-105.5 1663.5,-105.5"/>
<text text-anchor="middle" x="1777" y="-112.5" font-family="Ubuntu-R" font-size="10.00">forcebalance.optimizer.Optimizer.ScanPVals</text>
</a>
</g>
<!-- Node8&#45;&gt;Node14 -->
<g id="edge30" class="edge"><title>Node8&#45;&gt;Node14</title>
<path fill="none" stroke="midnightblue" d="M1611.38,-103.948C1625.15,-104.872 1639.22,-105.817 1653.06,-106.746"/>
<polygon fill="midnightblue" stroke="midnightblue" points="1652.87,-110.241 1663.08,-107.419 1653.33,-103.257 1652.87,-110.241"/>
</g>
<!-- Node15 -->
<g id="node31" class="node"><title>Node15</title>
<a xlink:href="classforcebalance_1_1optimizer_1_1Optimizer.html#a1477d2b88faa1d4991418538133abcff" target="_top" xlink:title="A single&#45;point objective function computation.">
<polygon fill="white" stroke="black" points="1662,-67.5 1662,-86.5 1892,-86.5 1892,-67.5 1662,-67.5"/>
<text text-anchor="middle" x="1777" y="-74.5" font-family="Ubuntu-R" font-size="10.00">forcebalance.optimizer.Optimizer.SinglePoint</text>
</a>
</g>
<!-- Node8&#45;&gt;Node15 -->
<g id="edge32" class="edge"><title>Node8&#45;&gt;Node15</title>
<path fill="none" stroke="midnightblue" d="M1611.38,-88.0524C1624.65,-87.161 1638.21,-86.2509 1651.56,-85.3546"/>
<polygon fill="midnightblue" stroke="midnightblue" points="1651.98,-88.8345 1661.72,-84.6724 1651.51,-81.8502 1651.98,-88.8345"/>
</g>
<!-- Node17 -->
<g id="node35" class="node"><title>Node17</title>
<a xlink:href="classforcebalance_1_1optimizer_1_1Optimizer.html#ac5adf24cf3ea3976eb67f75b6b89d101" target="_top" xlink:title="A single&#45;point gradient computation.">
<polygon fill="white" stroke="black" points="1668,-29.5 1668,-48.5 1886,-48.5 1886,-29.5 1668,-29.5"/>
<text text-anchor="middle" x="1777" y="-36.5" font-family="Ubuntu-R" font-size="10.00">forcebalance.optimizer.Optimizer.Gradient</text>
</a>
</g>
<!-- Node8&#45;&gt;Node17 -->
<g id="edge36" class="edge"><title>Node8&#45;&gt;Node17</title>
<path fill="none" stroke="midnightblue" d="M1532.48,-86.4653C1566.64,-78.3715 1617.43,-66.717 1662,-58 1675.79,-55.3035 1690.56,-52.661 1704.74,-50.2444"/>
<polygon fill="midnightblue" stroke="midnightblue" points="1705.67,-53.6383 1714.95,-48.5273 1704.51,-46.7353 1705.67,-53.6383"/>
</g>
<!-- Node10 -->
<g id="node20" class="node"><title>Node10</title>
<a xlink:href="classforcebalance_1_1optimizer_1_1Optimizer.html#a0c16ad8678a6480e235a45d69fb077d3" target="_top" xlink:title="A single&#45;point Hessian computation.">
<polygon fill="white" stroke="black" points="1934.5,-143.5 1934.5,-162.5 2149.5,-162.5 2149.5,-143.5 1934.5,-143.5"/>
<text text-anchor="middle" x="2042" y="-150.5" font-family="Ubuntu-R" font-size="10.00">forcebalance.optimizer.Optimizer.Hessian</text>
</a>
</g>
<!-- Node9&#45;&gt;Node10 -->
<g id="edge20" class="edge"><title>Node9&#45;&gt;Node10</title>
<path fill="none" stroke="midnightblue" d="M1891.83,-153C1902.56,-153 1913.45,-153 1924.21,-153"/>
<polygon fill="midnightblue" stroke="midnightblue" points="1924.47,-156.5 1934.47,-153 1924.47,-149.5 1924.47,-156.5"/>
</g>
<!-- Node11 -->
<g id="node22" class="node"><title>Node11</title>
<a xlink:href="classforcebalance_1_1optimizer_1_1Optimizer.html#adb86c1f6580bb088a23563a6103986fe" target="_top" xlink:title="Finite&#45;difference checker for the objective function Hessian.">
<polygon fill="white" stroke="black" points="2192.5,-143.5 2192.5,-162.5 2419.5,-162.5 2419.5,-143.5 2192.5,-143.5"/>
<text text-anchor="middle" x="2306" y="-150.5" font-family="Ubuntu-R" font-size="10.00">forcebalance.optimizer.Optimizer.FDCheckH</text>
</a>
</g>
<!-- Node10&#45;&gt;Node11 -->
<g id="edge22" class="edge"><title>Node10&#45;&gt;Node11</title>
<path fill="none" stroke="midnightblue" d="M2149.57,-153C2160.19,-153 2171.05,-153 2181.83,-153"/>
<polygon fill="midnightblue" stroke="midnightblue" points="2182.13,-156.5 2192.13,-153 2182.13,-149.5 2182.13,-156.5"/>
</g>
<!-- Node12 -->
<g id="node24" class="node"><title>Node12</title>
<a xlink:href="classforcebalance_1_1optimizer_1_1Optimizer.html#a05ee5fe985b3e2ec71071ca061e42d66" target="_top" xlink:title="Read the checkpoint file for the main optimizer.">
<polygon fill="white" stroke="black" points="2456.5,-162.5 2456.5,-181.5 2671.5,-181.5 2671.5,-162.5 2456.5,-162.5"/>
<text text-anchor="middle" x="2564" y="-169.5" font-family="Ubuntu-R" font-size="10.00">forcebalance.optimizer.Optimizer.readchk</text>
</a>
</g>
<!-- Node11&#45;&gt;Node12 -->
<g id="edge24" class="edge"><title>Node11&#45;&gt;Node12</title>
<path fill="none" stroke="midnightblue" d="M2419.66,-161.361C2428.53,-162.02 2437.5,-162.685 2446.39,-163.345"/>
<polygon fill="midnightblue" stroke="midnightblue" points="2446.16,-166.838 2456.39,-164.088 2446.68,-159.857 2446.16,-166.838"/>
</g>
<!-- Node13 -->
<g id="node26" class="node"><title>Node13</title>
<a xlink:href="classforcebalance_1_1optimizer_1_1Optimizer.html#aa7ac7cda43b70ac58ccbd6c8445e88ef" target="_top" xlink:title="Write the checkpoint file for the main optimizer.">
<polygon fill="white" stroke="black" points="2456,-124.5 2456,-143.5 2672,-143.5 2672,-124.5 2456,-124.5"/>
<text text-anchor="middle" x="2564" y="-131.5" font-family="Ubuntu-R" font-size="10.00">forcebalance.optimizer.Optimizer.writechk</text>
</a>
</g>
<!-- Node11&#45;&gt;Node13 -->
<g id="edge26" class="edge"><title>Node11&#45;&gt;Node13</title>
<path fill="none" stroke="midnightblue" d="M2419.66,-144.639C2428.34,-143.995 2437.11,-143.344 2445.81,-142.697"/>
<polygon fill="midnightblue" stroke="midnightblue" points="2446.28,-146.173 2455.99,-141.942 2445.76,-139.192 2446.28,-146.173"/>
</g>
<!-- Node16 -->
<g id="node33" class="node"><title>Node16</title>
<a xlink:href="classforcebalance_1_1optimizer_1_1Optimizer.html#aacf96d137fb0e491af7e380c8bd61eb9" target="_top" xlink:title="Finite&#45;difference checker for the objective function gradient.">
<polygon fill="white" stroke="black" points="1928.5,-67.5 1928.5,-86.5 2155.5,-86.5 2155.5,-67.5 1928.5,-67.5"/>
<text text-anchor="middle" x="2042" y="-74.5" font-family="Ubuntu-R" font-size="10.00">forcebalance.optimizer.Optimizer.FDCheckG</text>
</a>
</g>
<!-- Node15&#45;&gt;Node16 -->
<g id="edge34" class="edge"><title>Node15&#45;&gt;Node16</title>
<path fill="none" stroke="midnightblue" d="M1892.21,-77C1900.78,-77 1909.45,-77 1918.06,-77"/>
<polygon fill="midnightblue" stroke="midnightblue" points="1918.15,-80.5001 1928.15,-77 1918.15,-73.5001 1918.15,-80.5001"/>
</g>
</g>
</svg>
