<?xml version="1.0" encoding="UTF-8" standalone="no"?>
<!DOCTYPE svg PUBLIC "-//W3C//DTD SVG 1.1//EN"
 "http://www.w3.org/Graphics/SVG/1.1/DTD/svg11.dtd">
<!-- Generated by graphviz version 2.32.0 (20130801.1845)
 -->
<!-- Title: forcebalance.openmmio.Liquid_OpenMM Pages: 1 -->
<svg width="148pt" height="286pt"
 viewBox="0.00 0.00 148.00 286.00" xmlns="http://www.w3.org/2000/svg" xmlns:xlink="http://www.w3.org/1999/xlink">
<g id="graph0" class="graph" transform="scale(1 1) rotate(0) translate(4 282)">
<title>forcebalance.openmmio.Liquid_OpenMM</title>
<polygon fill="white" stroke="white" points="-4,5 -4,-282 145,-282 145,5 -4,5"/>
<!-- Node1 -->
<g id="node1" class="node"><title>Node1</title>
<polygon fill="#bfbfbf" stroke="black" points="-0.757,-1 -0.757,-33 140.757,-33 140.757,-1 -0.757,-1"/>
<text text-anchor="start" x="7.243" y="-20" font-family="Ubuntu-R" font-size="10.00">forcebalance.openmmio.Liquid</text>
<text text-anchor="middle" x="70" y="-8" font-family="Ubuntu-R" font-size="10.00">_OpenMM</text>
</g>
<!-- Node2 -->
<g id="node2" class="node"><title>Node2</title>
<g id="a_node2"><a xlink:href="classforcebalance_1_1liquid_1_1Liquid.html" target="_top" xlink:title="Subclass of Target for liquid property matching.">
<polygon fill="white" stroke="black" points="8.9625,-71 8.9625,-91 131.038,-91 131.038,-71 8.9625,-71"/>
<text text-anchor="middle" x="70" y="-78" font-family="Ubuntu-R" font-size="10.00">forcebalance.liquid.Liquid</text>
</a>
</g>
</g>
<!-- Node2&#45;&gt;Node1 -->
<g id="edge1" class="edge"><title>Node2&#45;&gt;Node1</title>
<path fill="none" stroke="midnightblue" d="M70,-60.7747C70,-51.9863 70,-41.715 70,-33.4404"/>
<polygon fill="midnightblue" stroke="midnightblue" points="66.5001,-60.8517 70,-70.8517 73.5001,-60.8517 66.5001,-60.8517"/>
</g>
<!-- Node3 -->
<g id="node3" class="node"><title>Node3</title>
<g id="a_node3"><a xlink:href="classforcebalance_1_1target_1_1Target.html" target="_top" xlink:title="Base class for all fitting targets.">
<polygon fill="white" stroke="black" points="9.5345,-129 9.5345,-149 130.466,-149 130.466,-129 9.5345,-129"/>
<text text-anchor="middle" x="70" y="-136" font-family="Ubuntu-R" font-size="10.00">forcebalance.target.Target</text>
</a>
</g>
</g>
<!-- Node3&#45;&gt;Node2 -->
<g id="edge2" class="edge"><title>Node3&#45;&gt;Node2</title>
<path fill="none" stroke="midnightblue" d="M70,-118.707C70,-109.338 70,-98.5262 70,-91.0752"/>
<polygon fill="midnightblue" stroke="midnightblue" points="66.5001,-118.753 70,-128.753 73.5001,-118.753 66.5001,-118.753"/>
</g>
<!-- Node4 -->
<g id="node4" class="node"><title>Node4</title>
<g id="a_node4"><a xlink:href="classforcebalance_1_1baseclass_1_1ForceBalanceBaseClass.html" target="_top" xlink:title="Provides some nifty functions that are common to all ForceBalance classes.">
<polygon fill="white" stroke="black" points="3.9805,-187 3.9805,-219 136.019,-219 136.019,-187 3.9805,-187"/>
<text text-anchor="start" x="11.9805" y="-206" font-family="Ubuntu-R" font-size="10.00">forcebalance.baseclass.Force</text>
<text text-anchor="middle" x="70" y="-194" font-family="Ubuntu-R" font-size="10.00">BalanceBaseClass</text>
</a>
</g>
</g>
<!-- Node4&#45;&gt;Node3 -->
<g id="edge3" class="edge"><title>Node4&#45;&gt;Node3</title>
<path fill="none" stroke="midnightblue" d="M70,-176.922C70,-167.172 70,-156.61 70,-149.29"/>
<polygon fill="midnightblue" stroke="midnightblue" points="66.5001,-176.991 70,-186.992 73.5001,-176.992 66.5001,-176.991"/>
</g>
<!-- Node5 -->
<g id="node5" class="node"><title>Node5</title>
<polygon fill="white" stroke="#bfbfbf" points="49.782,-257 49.782,-277 90.218,-277 90.218,-257 49.782,-257"/>
<text text-anchor="middle" x="70" y="-264" font-family="Ubuntu-R" font-size="10.00">object</text>
</g>
<!-- Node5&#45;&gt;Node4 -->
<g id="edge4" class="edge"><title>Node5&#45;&gt;Node4</title>
<path fill="none" stroke="midnightblue" d="M70,-246.775C70,-237.986 70,-227.715 70,-219.44"/>
<polygon fill="midnightblue" stroke="midnightblue" points="66.5001,-246.852 70,-256.852 73.5001,-246.852 66.5001,-246.852"/>
</g>
</g>
</svg>
