<?xml version="1.0" encoding="UTF-8" standalone="no"?>
<!DOCTYPE svg PUBLIC "-//W3C//DTD SVG 1.1//EN"
 "http://www.w3.org/Graphics/SVG/1.1/DTD/svg11.dtd">
<!-- Generated by graphviz version 2.28.0 (20111219.2309)
 -->
<!-- Title: G Pages: 1 -->
<svg width="854pt" height="85pt"
 viewBox="0.00 0.00 854.00 85.00" xmlns="http://www.w3.org/2000/svg" xmlns:xlink="http://www.w3.org/1999/xlink">
<g id="graph1" class="graph" transform="scale(1 1) rotate(0) translate(4 81)">
<title>G</title>
<polygon fill="white" stroke="white" points="-4,5 -4,-81 851,-81 851,5 -4,5"/>
<!-- Node1 -->
<g id="node1" class="node"><title>Node1</title>
<polygon fill="#bfbfbf" stroke="black" points="0.5,-19.5 0.5,-38.5 287.5,-38.5 287.5,-19.5 0.5,-19.5"/>
<text text-anchor="middle" x="144" y="-26.5" font-family="Ubuntu-R" font-size="10.00">forcebalance.gmxio.Liquid_GMX.prepare_temp_directory</text>
</g>
<!-- Node2 -->
<g id="node3" class="node"><title>Node2</title>
<a xlink:href="namespaceforcebalance_1_1nifty.html#ab182a9da2a2f42cf45942fbee6acf9b1" target="_top" xlink:title="forcebalance.nifty.LinkFile">
<polygon fill="white" stroke="black" points="395.5,-57.5 395.5,-76.5 532.5,-76.5 532.5,-57.5 395.5,-57.5"/>
<text text-anchor="middle" x="464" y="-64.5" font-family="Ubuntu-R" font-size="10.00">forcebalance.nifty.LinkFile</text>
</a>
</g>
<!-- Node1&#45;&gt;Node2 -->
<g id="edge2" class="edge"><title>Node1&#45;&gt;Node2</title>
<path fill="none" stroke="midnightblue" d="M224.834,-38.54C273.873,-44.3999 336.399,-51.8716 385.08,-57.6888"/>
<polygon fill="midnightblue" stroke="midnightblue" points="384.904,-61.1925 395.248,-58.9039 385.734,-54.242 384.904,-61.1925"/>
</g>
<!-- Node4 -->
<g id="node7" class="node"><title>Node4</title>
<a xlink:href="classforcebalance_1_1gmxio_1_1Liquid__GMX.html#a70a950655df19e6ed0365ba873fd0cc5" target="_top" xlink:title="Return the self&#45;polarization correction as described in Berendsen et al., JPC 1987.">
<polygon fill="white" stroke="black" points="324,-19.5 324,-38.5 604,-38.5 604,-19.5 324,-19.5"/>
<text text-anchor="middle" x="464" y="-26.5" font-family="Ubuntu-R" font-size="10.00">forcebalance.gmxio.Liquid_GMX.polarization_correction</text>
</a>
</g>
<!-- Node1&#45;&gt;Node4 -->
<g id="edge6" class="edge"><title>Node1&#45;&gt;Node4</title>
<path fill="none" stroke="midnightblue" d="M287.722,-22.2815C296.385,-22.2479 305.113,-22.2412 313.803,-22.2614"/>
<polygon fill="midnightblue" stroke="midnightblue" points="313.966,-25.7619 323.979,-22.2976 313.991,-18.762 313.966,-25.7619"/>
</g>
<!-- Node5 -->
<g id="node9" class="node"><title>Node5</title>
<a xlink:href="classforcebalance_1_1gmxio_1_1Liquid__GMX.html#a858330327e84a1186b9a932fe2437489" target="_top" xlink:title="Create an instance of the class.">
<polygon fill="white" stroke="black" points="640,-0.5 640,-19.5 846,-19.5 846,-0.5 640,-0.5"/>
<text text-anchor="middle" x="743" y="-7.5" font-family="Ubuntu-R" font-size="10.00">forcebalance.gmxio.Liquid_GMX.__init__</text>
</a>
</g>
<!-- Node1&#45;&gt;Node5 -->
<g id="edge12" class="edge"><title>Node1&#45;&gt;Node5</title>
<path fill="none" stroke="midnightblue" d="M218.017,-19.4839C250.417,-15.7178 289.048,-11.8498 324,-10 427.411,-4.52706 545.415,-5.15556 629.611,-6.78391"/>
<polygon fill="midnightblue" stroke="midnightblue" points="629.64,-10.2851 639.708,-6.98711 629.781,-3.28652 629.64,-10.2851"/>
</g>
<!-- Node3 -->
<g id="node5" class="node"><title>Node3</title>
<a xlink:href="namespaceforcebalance_1_1nifty.html#a25efa4d501ad852a234721af18978f7e" target="_top" xlink:title="Remove the file if it exists (doesn&#39;t return an error).">
<polygon fill="white" stroke="black" points="651.5,-57.5 651.5,-76.5 834.5,-76.5 834.5,-57.5 651.5,-57.5"/>
<text text-anchor="middle" x="743" y="-64.5" font-family="Ubuntu-R" font-size="10.00">forcebalance.nifty.remove_if_exists</text>
</a>
</g>
<!-- Node2&#45;&gt;Node3 -->
<g id="edge4" class="edge"><title>Node2&#45;&gt;Node3</title>
<path fill="none" stroke="midnightblue" d="M532.762,-67C565.41,-67 605.226,-67 641.328,-67"/>
<polygon fill="midnightblue" stroke="midnightblue" points="641.403,-70.5001 651.403,-67 641.403,-63.5001 641.403,-70.5001"/>
</g>
<!-- Node4&#45;&gt;Node1 -->
<g id="edge10" class="edge"><title>Node4&#45;&gt;Node1</title>
<path fill="none" stroke="midnightblue" d="M323.979,-35.7024C315.336,-35.7438 306.614,-35.7582 297.915,-35.7456"/>
<polygon fill="midnightblue" stroke="midnightblue" points="297.731,-32.2452 287.722,-35.7185 297.712,-39.2452 297.731,-32.2452"/>
</g>
<!-- Node4&#45;&gt;Node5 -->
<g id="edge8" class="edge"><title>Node4&#45;&gt;Node5</title>
<path fill="none" stroke="midnightblue" d="M603.906,-19.4722C612.638,-18.8732 621.368,-18.2744 629.957,-17.6853"/>
<polygon fill="midnightblue" stroke="midnightblue" points="630.229,-21.1749 639.966,-16.9987 629.75,-14.1913 630.229,-21.1749"/>
</g>
</g>
</svg>
