<?xml version="1.0" encoding="UTF-8" standalone="no"?>
<!DOCTYPE svg PUBLIC "-//W3C//DTD SVG 1.1//EN"
 "http://www.w3.org/Graphics/SVG/1.1/DTD/svg11.dtd">
<!-- Generated by graphviz version 2.26.3 (20100126.1600)
 -->
<!-- Title: forcebalance.amberio.FrcMod_Reader.Split Pages: 1 -->
<svg width="1088pt" height="94pt"
 viewBox="0.00 0.00 1088.00 94.00" xmlns="http://www.w3.org/2000/svg" xmlns:xlink="http://www.w3.org/1999/xlink">
<g id="graph1" class="graph" transform="scale(1 1) rotate(0) translate(4 90)">
<title>forcebalance.amberio.FrcMod_Reader.Split</title>
<polygon fill="white" stroke="white" points="-4,5 -4,-90 1085,-90 1085,5 -4,5"/>
<!-- Node1 -->
<g id="node1" class="node"><title>Node1</title>
<polygon fill="#bfbfbf" stroke="black" points="0.5,-26 0.5,-60 137.5,-60 137.5,-26 0.5,-26"/>
<text text-anchor="start" x="8.5" y="-47" font-family="Ubuntu-R" font-size="10.00">forcebalance.amberio.Frc</text>
<text text-anchor="middle" x="69" y="-34" font-family="Ubuntu-R" font-size="10.00">Mod_Reader.Split</text>
</g>
<!-- Node2 -->
<g id="node3" class="node"><title>Node2</title>
<a xlink:href="classforcebalance_1_1amberio_1_1FrcMod__Reader.html#a684b946f7faca6589c8ed49e77e31f73" target="_top" xlink:title="forcebalance.amberio.Frc\lMod_Reader.Whites">
<polygon fill="white" stroke="black" points="174.5,-26 174.5,-60 311.5,-60 311.5,-26 174.5,-26"/>
<text text-anchor="start" x="182.5" y="-47" font-family="Ubuntu-R" font-size="10.00">forcebalance.amberio.Frc</text>
<text text-anchor="middle" x="243" y="-34" font-family="Ubuntu-R" font-size="10.00">Mod_Reader.Whites</text>
</a>
</g>
<!-- Node1&#45;&gt;Node2 -->
<g id="edge2" class="edge"><title>Node1&#45;&gt;Node2</title>
<path fill="none" stroke="midnightblue" d="M137.769,-43C146.44,-43 155.364,-43 164.176,-43"/>
<polygon fill="midnightblue" stroke="midnightblue" points="164.445,-46.5001 174.445,-43 164.445,-39.5001 164.445,-46.5001"/>
</g>
<!-- Node3 -->
<g id="node5" class="node"><title>Node3</title>
<a xlink:href="classforcebalance_1_1amberio_1_1FrcMod__Reader.html#a689bb40a107f763472b15175be6f0f12" target="_top" xlink:title="forcebalance.amberio.Frc\lMod_Reader.feed">
<polygon fill="white" stroke="black" points="349.5,-52 349.5,-86 486.5,-86 486.5,-52 349.5,-52"/>
<text text-anchor="start" x="357.5" y="-73" font-family="Ubuntu-R" font-size="10.00">forcebalance.amberio.Frc</text>
<text text-anchor="middle" x="418" y="-60" font-family="Ubuntu-R" font-size="10.00">Mod_Reader.feed</text>
</a>
</g>
<!-- Node2&#45;&gt;Node3 -->
<g id="edge4" class="edge"><title>Node2&#45;&gt;Node3</title>
<path fill="none" stroke="midnightblue" d="M311.662,-53.2013C320.734,-54.549 330.089,-55.9389 339.312,-57.3092"/>
<polygon fill="midnightblue" stroke="midnightblue" points="338.843,-60.7778 349.248,-58.7855 339.871,-53.8538 338.843,-60.7778"/>
</g>
<!-- Node4 -->
<g id="node7" class="node"><title>Node4</title>
<a xlink:href="classforcebalance_1_1BaseReader.html#acded199bbc003eb93d071a972ef38901" target="_top" xlink:title="forcebalance.BaseReader.\lSplit">
<polygon fill="white" stroke="black" points="348,-0 348,-34 488,-34 488,-0 348,-0"/>
<text text-anchor="start" x="356" y="-21" font-family="Ubuntu-R" font-size="10.00">forcebalance.BaseReader.</text>
<text text-anchor="middle" x="418" y="-8" font-family="Ubuntu-R" font-size="10.00">Split</text>
</a>
</g>
<!-- Node2&#45;&gt;Node4 -->
<g id="edge6" class="edge"><title>Node2&#45;&gt;Node4</title>
<path fill="none" stroke="midnightblue" d="M311.662,-32.7987C320.197,-31.5308 328.982,-30.2255 337.672,-28.9344"/>
<polygon fill="midnightblue" stroke="midnightblue" points="338.432,-32.36 347.809,-27.4283 337.404,-25.436 338.432,-32.36"/>
</g>
<!-- Node5 -->
<g id="node9" class="node"><title>Node5</title>
<a xlink:href="classforcebalance_1_1BaseReader.html#af2af8a559625614474a1c6fe245b5e13" target="_top" xlink:title="forcebalance.BaseReader.\lWhites">
<polygon fill="white" stroke="black" points="524,-0 524,-34 664,-34 664,-0 524,-0"/>
<text text-anchor="start" x="532" y="-21" font-family="Ubuntu-R" font-size="10.00">forcebalance.BaseReader.</text>
<text text-anchor="middle" x="594" y="-8" font-family="Ubuntu-R" font-size="10.00">Whites</text>
</a>
</g>
<!-- Node4&#45;&gt;Node5 -->
<g id="edge8" class="edge"><title>Node4&#45;&gt;Node5</title>
<path fill="none" stroke="midnightblue" d="M488.066,-17C496.54,-17 505.247,-17 513.852,-17"/>
<polygon fill="midnightblue" stroke="midnightblue" points="513.888,-20.5001 523.888,-17 513.888,-13.5001 513.888,-20.5001"/>
</g>
<!-- Node6 -->
<g id="node11" class="node"><title>Node6</title>
<a xlink:href="classforcebalance_1_1BaseReader.html#a3c46942ef8cc25ece21d52be5b7ba05f" target="_top" xlink:title="forcebalance.BaseReader.feed">
<polygon fill="white" stroke="black" points="700.5,-6.5 700.5,-27.5 861.5,-27.5 861.5,-6.5 700.5,-6.5"/>
<text text-anchor="middle" x="781" y="-14.5" font-family="Ubuntu-R" font-size="10.00">forcebalance.BaseReader.feed</text>
</a>
</g>
<!-- Node5&#45;&gt;Node6 -->
<g id="edge10" class="edge"><title>Node5&#45;&gt;Node6</title>
<path fill="none" stroke="midnightblue" d="M664.164,-17C672.656,-17 681.422,-17 690.157,-17"/>
<polygon fill="midnightblue" stroke="midnightblue" points="690.379,-20.5001 700.379,-17 690.379,-13.5001 690.379,-20.5001"/>
</g>
<!-- Node7 -->
<g id="node13" class="node"><title>Node7</title>
<a xlink:href="classforcebalance_1_1BaseReader.html#aab2c64ccf0f803d4eff3bbf40a6cb0b7" target="_top" xlink:title="Returns the parameter type (e.g.">
<polygon fill="white" stroke="black" points="898,-6.5 898,-27.5 1080,-27.5 1080,-6.5 898,-6.5"/>
<text text-anchor="middle" x="989" y="-14.5" font-family="Ubuntu-R" font-size="10.00">forcebalance.BaseReader.build_pid</text>
</a>
</g>
<!-- Node6&#45;&gt;Node7 -->
<g id="edge12" class="edge"><title>Node6&#45;&gt;Node7</title>
<path fill="none" stroke="midnightblue" d="M861.716,-17C870.252,-17 879.009,-17 887.739,-17"/>
<polygon fill="midnightblue" stroke="midnightblue" points="887.962,-20.5001 897.962,-17 887.962,-13.5001 887.962,-20.5001"/>
</g>
</g>
</svg>
