<?xml version="1.0" encoding="UTF-8" standalone="no"?>
<!DOCTYPE svg PUBLIC "-//W3C//DTD SVG 1.1//EN"
 "http://www.w3.org/Graphics/SVG/1.1/DTD/svg11.dtd">
<!-- Generated by graphviz version 2.26.3 (20100126.1600)
 -->
<!-- Title: forcebalance.psi4io.RDVR3_Psi4.get Pages: 1 -->
<svg width="330pt" height="42pt"
 viewBox="0.00 0.00 330.00 42.00" xmlns="http://www.w3.org/2000/svg" xmlns:xlink="http://www.w3.org/1999/xlink">
<g id="graph1" class="graph" transform="scale(1 1) rotate(0) translate(4 38)">
<title>forcebalance.psi4io.RDVR3_Psi4.get</title>
<polygon fill="white" stroke="white" points="-4,5 -4,-38 327,-38 327,5 -4,5"/>
<!-- Node1 -->
<g id="node1" class="node"><title>Node1</title>
<polygon fill="#bfbfbf" stroke="black" points="0.5,-0 0.5,-34 143.5,-34 143.5,-0 0.5,-0"/>
<text text-anchor="start" x="8.5" y="-21" font-family="Ubuntu-R" font-size="10.00">forcebalance.psi4io.RDVR3</text>
<text text-anchor="middle" x="72" y="-8" font-family="Ubuntu-R" font-size="10.00">_Psi4.get</text>
</g>
<!-- Node2 -->
<g id="node3" class="node"><title>Node2</title>
<a xlink:href="namespaceforcebalance_1_1nifty.html#ac37d4fe58ef70ed546ebfc45d12f7a5d" target="_top" xlink:title="forcebalance.nifty.getWork\lQueue">
<polygon fill="white" stroke="black" points="180.5,-0 180.5,-34 321.5,-34 321.5,-0 180.5,-0"/>
<text text-anchor="start" x="188.5" y="-21" font-family="Ubuntu-R" font-size="10.00">forcebalance.nifty.getWork</text>
<text text-anchor="middle" x="251" y="-8" font-family="Ubuntu-R" font-size="10.00">Queue</text>
</a>
</g>
<!-- Node1&#45;&gt;Node2 -->
<g id="edge2" class="edge"><title>Node1&#45;&gt;Node2</title>
<path fill="none" stroke="midnightblue" d="M143.517,-17C152.361,-17 161.45,-17 170.418,-17"/>
<polygon fill="midnightblue" stroke="midnightblue" points="170.472,-20.5001 180.472,-17 170.472,-13.5001 170.472,-20.5001"/>
</g>
</g>
</svg>
