<?xml version="1.0" encoding="UTF-8" standalone="no"?>
<!DOCTYPE svg PUBLIC "-//W3C//DTD SVG 1.1//EN"
 "http://www.w3.org/Graphics/SVG/1.1/DTD/svg11.dtd">
<!-- Generated by graphviz version 2.26.3 (20100126.1600)
 -->
<!-- Title: forcebalance.target.Target.printcool_table Pages: 1 -->
<svg width="1464pt" height="152pt"
 viewBox="0.00 0.00 1464.00 152.00" xmlns="http://www.w3.org/2000/svg" xmlns:xlink="http://www.w3.org/1999/xlink">
<g id="graph1" class="graph" transform="scale(1 1) rotate(0) translate(4 148)">
<title>forcebalance.target.Target.printcool_table</title>
<polygon fill="white" stroke="white" points="-4,5 -4,-148 1461,-148 1461,5 -4,5"/>
<!-- Node1 -->
<g id="node1" class="node"><title>Node1</title>
<polygon fill="#bfbfbf" stroke="black" points="0,-0 0,-34 186,-34 186,-0 0,-0"/>
<text text-anchor="start" x="8" y="-21" font-family="Ubuntu-R" font-size="10.00">forcebalance.target.Target.printcool</text>
<text text-anchor="middle" x="93" y="-8" font-family="Ubuntu-R" font-size="10.00">_table</text>
</g>
<!-- Node2 -->
<g id="node3" class="node"><title>Node2</title>
<a xlink:href="namespaceforcebalance_1_1nifty.html#a51180e960742cc7547749fdfb3513ec4" target="_top" xlink:title="See documentation for printcool; this is a nice way to print out keys/values in a dictionary...">
<polygon fill="white" stroke="black" points="222,-0 222,-34 366,-34 366,-0 222,-0"/>
<text text-anchor="start" x="230" y="-21" font-family="Ubuntu-R" font-size="10.00">forcebalance.nifty.printcool</text>
<text text-anchor="middle" x="294" y="-8" font-family="Ubuntu-R" font-size="10.00">_dictionary</text>
</a>
</g>
<!-- Node1&#45;&gt;Node2 -->
<g id="edge2" class="edge"><title>Node1&#45;&gt;Node2</title>
<path fill="none" stroke="midnightblue" d="M186.145,-17C194.687,-17 203.3,-17 211.736,-17"/>
<polygon fill="midnightblue" stroke="midnightblue" points="211.921,-20.5001 221.921,-17 211.921,-13.5001 211.921,-20.5001"/>
</g>
<!-- Node3 -->
<g id="node5" class="node"><title>Node3</title>
<a xlink:href="namespaceforcebalance_1_1nifty.html#a3f1c7a1af9d35d5d1693074bc6f5497c" target="_top" xlink:title="ONLY matches integers! If you have a decimal point? None shall pass!">
<polygon fill="white" stroke="black" points="402,-26.5 402,-47.5 524,-47.5 524,-26.5 402,-26.5"/>
<text text-anchor="middle" x="463" y="-34.5" font-family="Ubuntu-R" font-size="10.00">forcebalance.nifty.isint</text>
</a>
</g>
<!-- Node2&#45;&gt;Node3 -->
<g id="edge4" class="edge"><title>Node2&#45;&gt;Node3</title>
<path fill="none" stroke="midnightblue" d="M366.161,-25.5398C374.738,-26.5547 383.487,-27.5902 392.046,-28.6031"/>
<polygon fill="midnightblue" stroke="midnightblue" points="391.642,-32.0796 401.984,-29.7792 392.465,-25.1281 391.642,-32.0796"/>
</g>
<!-- Node5 -->
<g id="node9" class="node"><title>Node5</title>
<a xlink:href="namespaceforcebalance_1_1nifty.html#a8e3ef0108b9d37b82ba0dced7c6037ae" target="_top" xlink:title="Matches ANY number; it can be a decimal, scientific notation, what have you CAUTION &#45; this will also ...">
<polygon fill="white" stroke="black" points="744.5,-24.5 744.5,-45.5 875.5,-45.5 875.5,-24.5 744.5,-24.5"/>
<text text-anchor="middle" x="810" y="-32.5" font-family="Ubuntu-R" font-size="10.00">forcebalance.nifty.isfloat</text>
</a>
</g>
<!-- Node2&#45;&gt;Node5 -->
<g id="edge32" class="edge"><title>Node2&#45;&gt;Node5</title>
<path fill="none" stroke="midnightblue" d="M366.016,-15.8393C411.363,-15.396 471.118,-15.3375 524,-17 595.42,-19.2453 676.725,-24.637 734.341,-28.9378"/>
<polygon fill="midnightblue" stroke="midnightblue" points="734.221,-32.4386 744.456,-29.6998 734.747,-25.4584 734.221,-32.4386"/>
</g>
<!-- Node4 -->
<g id="node7" class="node"><title>Node4</title>
<a xlink:href="namespaceforcebalance_1_1nifty.html#a09263927eaec9deff283fbf1a820242f" target="_top" xlink:title="Matches things with a decimal only; see isint and isfloat.">
<polygon fill="white" stroke="black" points="560.5,-64.5 560.5,-85.5 707.5,-85.5 707.5,-64.5 560.5,-64.5"/>
<text text-anchor="middle" x="634" y="-72.5" font-family="Ubuntu-R" font-size="10.00">forcebalance.nifty.isdecimal</text>
</a>
</g>
<!-- Node3&#45;&gt;Node4 -->
<g id="edge6" class="edge"><title>Node3&#45;&gt;Node4</title>
<path fill="none" stroke="midnightblue" d="M510.633,-47.5851C531.108,-52.1351 555.214,-57.4919 576.659,-62.2575"/>
<polygon fill="midnightblue" stroke="midnightblue" points="576.101,-65.7189 586.622,-64.4716 577.62,-58.8856 576.101,-65.7189"/>
</g>
<!-- Node4&#45;&gt;Node5 -->
<g id="edge8" class="edge"><title>Node4&#45;&gt;Node5</title>
<path fill="none" stroke="midnightblue" d="M680.242,-64.4905C702.788,-59.3663 730.096,-53.1601 753.832,-47.7655"/>
<polygon fill="midnightblue" stroke="midnightblue" points="754.786,-51.138 763.762,-45.5087 753.235,-44.312 754.786,-51.138"/>
</g>
<!-- Node9 -->
<g id="node18" class="node"><title>Node9</title>
<a xlink:href="namespaceforcebalance_1_1nifty.html#afb3f205bce4984856e766af7e9fdaca8" target="_top" xlink:title="Given any list, array, or matrix, return a 1&#45;column matrix.">
<polygon fill="white" stroke="black" points="752,-65.5 752,-86.5 868,-86.5 868,-65.5 752,-65.5"/>
<text text-anchor="middle" x="810" y="-73.5" font-family="Ubuntu-R" font-size="10.00">forcebalance.nifty.col</text>
</a>
</g>
<!-- Node4&#45;&gt;Node9 -->
<g id="edge18" class="edge"><title>Node4&#45;&gt;Node9</title>
<path fill="none" stroke="midnightblue" d="M707.62,-75.4183C718.943,-75.4826 730.592,-75.5488 741.79,-75.6124"/>
<polygon fill="midnightblue" stroke="midnightblue" points="741.905,-79.1131 751.925,-75.67 741.945,-72.1132 741.905,-79.1131"/>
</g>
<!-- Node5&#45;&gt;Node3 -->
<g id="edge10" class="edge"><title>Node5&#45;&gt;Node3</title>
<path fill="none" stroke="midnightblue" d="M744.36,-35.3783C684.398,-35.7239 595.948,-36.2337 534.279,-36.5892"/>
<polygon fill="midnightblue" stroke="midnightblue" points="534.217,-33.0894 524.238,-36.647 534.258,-40.0893 534.217,-33.0894"/>
</g>
<!-- Node6 -->
<g id="node12" class="node"><title>Node6</title>
<a xlink:href="namespaceforcebalance_1_1nifty.html#a8d63c8ae9a67c66673a6cf81357f827d" target="_top" xlink:title="Returns a big number if we encounter NaN.">
<polygon fill="white" stroke="black" points="912.5,-21.5 912.5,-42.5 1063.5,-42.5 1063.5,-21.5 912.5,-21.5"/>
<text text-anchor="middle" x="988" y="-29.5" font-family="Ubuntu-R" font-size="10.00">forcebalance.nifty.floatornan</text>
</a>
</g>
<!-- Node5&#45;&gt;Node6 -->
<g id="edge12" class="edge"><title>Node5&#45;&gt;Node6</title>
<path fill="none" stroke="midnightblue" d="M875.522,-33.8957C884.237,-33.7488 893.275,-33.5965 902.269,-33.4449"/>
<polygon fill="midnightblue" stroke="midnightblue" points="902.445,-36.9425 912.384,-33.2744 902.327,-29.9435 902.445,-36.9425"/>
</g>
<!-- Node7 -->
<g id="node14" class="node"><title>Node7</title>
<a xlink:href="namespaceforcebalance_1_1nifty.html#a6c9727360cdff8f3011a12cc54d0e86e" target="_top" xlink:title="Given any list, array, or matrix, return a 1&#45;row matrix.">
<polygon fill="white" stroke="black" points="1116.5,-20.5 1116.5,-41.5 1235.5,-41.5 1235.5,-20.5 1116.5,-20.5"/>
<text text-anchor="middle" x="1176" y="-28.5" font-family="Ubuntu-R" font-size="10.00">forcebalance.nifty.row</text>
</a>
</g>
<!-- Node6&#45;&gt;Node7 -->
<g id="edge14" class="edge"><title>Node6&#45;&gt;Node7</title>
<path fill="none" stroke="midnightblue" d="M1063.65,-31.5976C1077.64,-31.5232 1092.19,-31.4458 1106,-31.3724"/>
<polygon fill="midnightblue" stroke="midnightblue" points="1106.41,-34.8703 1116.39,-31.3171 1106.37,-27.8704 1106.41,-34.8703"/>
</g>
<!-- Node8 -->
<g id="node16" class="node"><title>Node8</title>
<a xlink:href="namespaceforcebalance_1_1nifty.html#a7676236002c6a65ea7d2e69a09923889" target="_top" xlink:title="Given two vectors vec1 and vec2, project out the component of vec1 that is along the vec2&#45;direction...">
<polygon fill="white" stroke="black" points="1288,-18.5 1288,-39.5 1456,-39.5 1456,-18.5 1288,-18.5"/>
<text text-anchor="middle" x="1372" y="-26.5" font-family="Ubuntu-R" font-size="10.00">forcebalance.nifty.orthogonalize</text>
</a>
</g>
<!-- Node7&#45;&gt;Node8 -->
<g id="edge16" class="edge"><title>Node7&#45;&gt;Node8</title>
<path fill="none" stroke="midnightblue" d="M1235.6,-30.3918C1248.84,-30.2568 1263.18,-30.1104 1277.42,-29.9651"/>
<polygon fill="midnightblue" stroke="midnightblue" points="1277.8,-33.4615 1287.76,-29.8596 1277.72,-26.4619 1277.8,-33.4615"/>
</g>
<!-- Node10 -->
<g id="node20" class="node"><title>Node10</title>
<a xlink:href="namespaceforcebalance_1_1nifty.html#a52114ceee9d55f94d9aecb3e176de294" target="_top" xlink:title="Given any list, array, or matrix, return a single&#45;index array.">
<polygon fill="white" stroke="black" points="929.5,-104.5 929.5,-125.5 1046.5,-125.5 1046.5,-104.5 929.5,-104.5"/>
<text text-anchor="middle" x="988" y="-112.5" font-family="Ubuntu-R" font-size="10.00">forcebalance.nifty.flat</text>
</a>
</g>
<!-- Node9&#45;&gt;Node10 -->
<g id="edge20" class="edge"><title>Node9&#45;&gt;Node10</title>
<path fill="none" stroke="midnightblue" d="M858.169,-86.554C880.233,-91.388 906.57,-97.1586 929.739,-102.235"/>
<polygon fill="midnightblue" stroke="midnightblue" points="929.275,-105.716 939.792,-104.438 930.773,-98.8784 929.275,-105.716"/>
</g>
<!-- Node11 -->
<g id="node22" class="node"><title>Node11</title>
<a xlink:href="namespaceforcebalance_1_1nifty.html#a4c82187e92dfeb8a159f4aa44b501c40" target="_top" xlink:title="Invert a matrix using singular value decomposition.">
<polygon fill="white" stroke="black" points="1100.5,-67.5 1100.5,-88.5 1251.5,-88.5 1251.5,-67.5 1100.5,-67.5"/>
<text text-anchor="middle" x="1176" y="-75.5" font-family="Ubuntu-R" font-size="10.00">forcebalance.nifty.invert_svd</text>
</a>
</g>
<!-- Node10&#45;&gt;Node11 -->
<g id="edge22" class="edge"><title>Node10&#45;&gt;Node11</title>
<path fill="none" stroke="midnightblue" d="M1041.37,-104.496C1063.5,-100.141 1089.35,-95.0544 1112.44,-90.5085"/>
<polygon fill="midnightblue" stroke="midnightblue" points="1113.36,-93.8953 1122.5,-88.53 1112.01,-87.027 1113.36,-93.8953"/>
</g>
<!-- Node11&#45;&gt;Node9 -->
<g id="edge28" class="edge"><title>Node11&#45;&gt;Node9</title>
<path fill="none" stroke="midnightblue" d="M1100.35,-77.5866C1035.13,-77.2302 941.749,-76.7199 878.646,-76.3751"/>
<polygon fill="midnightblue" stroke="midnightblue" points="878.418,-72.8739 868.398,-76.3191 878.379,-79.8738 878.418,-72.8739"/>
</g>
<!-- Node12 -->
<g id="node24" class="node"><title>Node12</title>
<a xlink:href="namespaceforcebalance_1_1nifty.html#aa9fb9c7c65231eca50a7afc04f489b64" target="_top" xlink:title="forcebalance.nifty.get\l_least_squares">
<polygon fill="white" stroke="black" points="1313,-110 1313,-144 1431,-144 1431,-110 1313,-110"/>
<text text-anchor="start" x="1321" y="-131" font-family="Ubuntu-R" font-size="10.00">forcebalance.nifty.get</text>
<text text-anchor="middle" x="1372" y="-118" font-family="Ubuntu-R" font-size="10.00">_least_squares</text>
</a>
</g>
<!-- Node11&#45;&gt;Node12 -->
<g id="edge24" class="edge"><title>Node11&#45;&gt;Node12</title>
<path fill="none" stroke="midnightblue" d="M1218.05,-88.5117C1242.8,-94.6998 1274.71,-102.678 1303.06,-109.765"/>
<polygon fill="midnightblue" stroke="midnightblue" points="1302.37,-113.2 1312.92,-112.23 1304.07,-106.409 1302.37,-113.2"/>
</g>
<!-- Node13 -->
<g id="node28" class="node"><title>Node13</title>
<a xlink:href="namespaceforcebalance_1_1nifty.html#abb8f59044961a12588e0653c2baa8b01" target="_top" xlink:title="forcebalance.nifty.warn\l_press_key">
<polygon fill="white" stroke="black" points="1309.5,-58 1309.5,-92 1434.5,-92 1434.5,-58 1309.5,-58"/>
<text text-anchor="start" x="1317.5" y="-79" font-family="Ubuntu-R" font-size="10.00">forcebalance.nifty.warn</text>
<text text-anchor="middle" x="1372" y="-66" font-family="Ubuntu-R" font-size="10.00">_press_key</text>
</a>
</g>
<!-- Node11&#45;&gt;Node13 -->
<g id="edge30" class="edge"><title>Node11&#45;&gt;Node13</title>
<path fill="none" stroke="midnightblue" d="M1251.78,-76.8401C1267.42,-76.6007 1283.86,-76.3491 1299.38,-76.1115"/>
<polygon fill="midnightblue" stroke="midnightblue" points="1299.49,-79.6103 1309.44,-75.9576 1299.38,-72.6112 1299.49,-79.6103"/>
</g>
<!-- Node12&#45;&gt;Node10 -->
<g id="edge26" class="edge"><title>Node12&#45;&gt;Node10</title>
<path fill="none" stroke="midnightblue" d="M1312.95,-125.155C1243.89,-122.997 1129.75,-119.43 1056.76,-117.149"/>
<polygon fill="midnightblue" stroke="midnightblue" points="1056.84,-113.65 1046.74,-116.836 1056.63,-120.646 1056.84,-113.65"/>
</g>
</g>
</svg>
