<?xml version="1.0" encoding="UTF-8" standalone="no"?>
<!DOCTYPE svg PUBLIC "-//W3C//DTD SVG 1.1//EN"
 "http://www.w3.org/Graphics/SVG/1.1/DTD/svg11.dtd">
<!-- Generated by graphviz version 2.26.3 (20100126.1600)
 -->
<!-- Title: forcebalance.tinkerio.Interaction_TINKER.__init__ Pages: 1 -->
<svg width="1756pt" height="210pt"
 viewBox="0.00 0.00 1756.00 210.00" xmlns="http://www.w3.org/2000/svg" xmlns:xlink="http://www.w3.org/1999/xlink">
<g id="graph1" class="graph" transform="scale(1 1) rotate(0) translate(4 206)">
<title>forcebalance.tinkerio.Interaction_TINKER.__init__</title>
<polygon fill="white" stroke="white" points="-4,5 -4,-206 1753,-206 1753,5 -4,5"/>
<!-- Node1 -->
<g id="node1" class="node"><title>Node1</title>
<polygon fill="#bfbfbf" stroke="black" points="0,-116 0,-150 170,-150 170,-116 0,-116"/>
<text text-anchor="start" x="8" y="-137" font-family="Ubuntu-R" font-size="10.00">forcebalance.tinkerio.Interaction</text>
<text text-anchor="middle" x="85" y="-124" font-family="Ubuntu-R" font-size="10.00">_TINKER.__init__</text>
</g>
<!-- Node2 -->
<g id="node3" class="node"><title>Node2</title>
<a xlink:href="classforcebalance_1_1tinkerio_1_1Interaction__TINKER.html#a5c55a2a8ed4c2923ed9866e1a7b6d202" target="_top" xlink:title="forcebalance.tinkerio.Interaction\l_TINKER.energy_driver_all">
<polygon fill="white" stroke="black" points="206,-116 206,-150 376,-150 376,-116 206,-116"/>
<text text-anchor="start" x="214" y="-137" font-family="Ubuntu-R" font-size="10.00">forcebalance.tinkerio.Interaction</text>
<text text-anchor="middle" x="291" y="-124" font-family="Ubuntu-R" font-size="10.00">_TINKER.energy_driver_all</text>
</a>
</g>
<!-- Node1&#45;&gt;Node2 -->
<g id="edge2" class="edge"><title>Node1&#45;&gt;Node2</title>
<path fill="none" stroke="midnightblue" d="M170.275,-133C178.616,-133 187.118,-133 195.551,-133"/>
<polygon fill="midnightblue" stroke="midnightblue" points="195.789,-136.5 205.789,-133 195.789,-129.5 195.789,-136.5"/>
</g>
<!-- Node2&#45;&gt;Node2 -->
<g id="edge38" class="edge"><title>Node2&#45;&gt;Node2</title>
<path fill="none" stroke="midnightblue" d="M253.969,-150.288C247.676,-159.556 260.02,-168 291,-168 309.879,-168 321.837,-164.864 326.875,-160.318"/>
<polygon fill="midnightblue" stroke="midnightblue" points="330.363,-160.623 328.031,-150.288 323.409,-159.821 330.363,-160.623"/>
</g>
<!-- Node3 -->
<g id="node5" class="node"><title>Node3</title>
<a xlink:href="classforcebalance_1_1tinkerio_1_1Interaction__TINKER.html#aa04011719babeea254134426db8c7633" target="_top" xlink:title="forcebalance.tinkerio.Interaction\l_TINKER.interaction_driver_all">
<polygon fill="white" stroke="black" points="412,-161 412,-195 582,-195 582,-161 412,-161"/>
<text text-anchor="start" x="420" y="-182" font-family="Ubuntu-R" font-size="10.00">forcebalance.tinkerio.Interaction</text>
<text text-anchor="middle" x="497" y="-169" font-family="Ubuntu-R" font-size="10.00">_TINKER.interaction_driver_all</text>
</a>
</g>
<!-- Node2&#45;&gt;Node3 -->
<g id="edge4" class="edge"><title>Node2&#45;&gt;Node3</title>
<path fill="none" stroke="midnightblue" d="M368.88,-150.013C381.954,-152.869 395.603,-155.85 408.913,-158.758"/>
<polygon fill="midnightblue" stroke="midnightblue" points="408.494,-162.249 419.01,-160.963 409.987,-155.41 408.494,-162.249"/>
</g>
<!-- Node4 -->
<g id="node7" class="node"><title>Node4</title>
<a xlink:href="classforcebalance_1_1openmmio_1_1Interaction__OpenMM.html#a535ff72686dc66b91f5dda007e252189" target="_top" xlink:title="forcebalance.openmmio.Interaction\l_OpenMM.energy_driver_all">
<polygon fill="white" stroke="black" points="618,-116 618,-150 804,-150 804,-116 618,-116"/>
<text text-anchor="start" x="626" y="-137" font-family="Ubuntu-R" font-size="10.00">forcebalance.openmmio.Interaction</text>
<text text-anchor="middle" x="711" y="-124" font-family="Ubuntu-R" font-size="10.00">_OpenMM.energy_driver_all</text>
</a>
</g>
<!-- Node2&#45;&gt;Node4 -->
<g id="edge6" class="edge"><title>Node2&#45;&gt;Node4</title>
<path fill="none" stroke="midnightblue" d="M376.246,-133C443.092,-133 536.393,-133 607.52,-133"/>
<polygon fill="midnightblue" stroke="midnightblue" points="607.847,-136.5 617.847,-133 607.847,-129.5 607.847,-136.5"/>
</g>
<!-- Node7 -->
<g id="node14" class="node"><title>Node7</title>
<a xlink:href="classforcebalance_1_1tinkerio_1_1AbInitio__TINKER.html#aafbf91f1422d7b8f65a4aa588d1c6e18" target="_top" xlink:title="forcebalance.tinkerio.Ab\lInitio_TINKER.energy_driver_all">
<polygon fill="white" stroke="black" points="416.5,-53 416.5,-87 577.5,-87 577.5,-53 416.5,-53"/>
<text text-anchor="start" x="424.5" y="-74" font-family="Ubuntu-R" font-size="10.00">forcebalance.tinkerio.Ab</text>
<text text-anchor="middle" x="497" y="-61" font-family="Ubuntu-R" font-size="10.00">Initio_TINKER.energy_driver_all</text>
</a>
</g>
<!-- Node2&#45;&gt;Node7 -->
<g id="edge14" class="edge"><title>Node2&#45;&gt;Node7</title>
<path fill="none" stroke="midnightblue" d="M346.747,-115.951C372.853,-107.967 404.13,-98.402 431.372,-90.0707"/>
<polygon fill="midnightblue" stroke="midnightblue" points="432.67,-93.3339 441.209,-87.0623 430.622,-86.64 432.67,-93.3339"/>
</g>
<!-- Node4&#45;&gt;Node4 -->
<g id="edge12" class="edge"><title>Node4&#45;&gt;Node4</title>
<path fill="none" stroke="midnightblue" d="M672.531,-150.288C665.993,-159.556 678.816,-168 711,-168 730.612,-168 743.034,-164.864 748.268,-160.318"/>
<polygon fill="midnightblue" stroke="midnightblue" points="751.755,-160.633 749.469,-150.288 744.805,-159.8 751.755,-160.633"/>
</g>
<!-- Node5 -->
<g id="node9" class="node"><title>Node5</title>
<a xlink:href="namespaceforcebalance_1_1openmmio.html#a9f9fc56475dbfcc94a40fef6a84ed25f" target="_top" xlink:title="forcebalance.openmmio.Update\lSimulationParameters">
<polygon fill="white" stroke="black" points="847.5,-168 847.5,-202 1018.5,-202 1018.5,-168 847.5,-168"/>
<text text-anchor="start" x="855.5" y="-189" font-family="Ubuntu-R" font-size="10.00">forcebalance.openmmio.Update</text>
<text text-anchor="middle" x="933" y="-176" font-family="Ubuntu-R" font-size="10.00">SimulationParameters</text>
</a>
</g>
<!-- Node4&#45;&gt;Node5 -->
<g id="edge8" class="edge"><title>Node4&#45;&gt;Node5</title>
<path fill="none" stroke="midnightblue" d="M783.691,-150.027C804.965,-155.01 828.379,-160.494 850.229,-165.612"/>
<polygon fill="midnightblue" stroke="midnightblue" points="849.611,-169.062 860.146,-167.935 851.207,-162.247 849.611,-169.062"/>
</g>
<!-- Node6 -->
<g id="node11" class="node"><title>Node6</title>
<a xlink:href="classforcebalance_1_1openmmio_1_1Interaction__OpenMM.html#a9813c1a24af88156703d05ebe57bf707" target="_top" xlink:title="forcebalance.openmmio.Interaction\l_OpenMM.interaction_driver_all">
<polygon fill="white" stroke="black" points="840,-116 840,-150 1026,-150 1026,-116 840,-116"/>
<text text-anchor="start" x="848" y="-137" font-family="Ubuntu-R" font-size="10.00">forcebalance.openmmio.Interaction</text>
<text text-anchor="middle" x="933" y="-124" font-family="Ubuntu-R" font-size="10.00">_OpenMM.interaction_driver_all</text>
</a>
</g>
<!-- Node4&#45;&gt;Node6 -->
<g id="edge10" class="edge"><title>Node4&#45;&gt;Node6</title>
<path fill="none" stroke="midnightblue" d="M804.183,-133C812.535,-133 821.024,-133 829.456,-133"/>
<polygon fill="midnightblue" stroke="midnightblue" points="829.7,-136.5 839.7,-133 829.699,-129.5 829.7,-136.5"/>
</g>
<!-- Node7&#45;&gt;Node4 -->
<g id="edge34" class="edge"><title>Node7&#45;&gt;Node4</title>
<path fill="none" stroke="midnightblue" d="M554.911,-87.0487C582.151,-95.0677 614.808,-104.682 643.195,-113.039"/>
<polygon fill="midnightblue" stroke="midnightblue" points="642.461,-116.471 653.042,-115.938 644.438,-109.756 642.461,-116.471"/>
</g>
<!-- Node7&#45;&gt;Node7 -->
<g id="edge36" class="edge"><title>Node7&#45;&gt;Node7</title>
<path fill="none" stroke="midnightblue" d="M459.969,-87.2878C453.676,-96.5562 466.02,-105 497,-105 515.879,-105 527.837,-101.864 532.875,-97.3176"/>
<polygon fill="midnightblue" stroke="midnightblue" points="536.363,-97.623 534.031,-87.2878 529.409,-96.8209 536.363,-97.623"/>
</g>
<!-- Node8 -->
<g id="node16" class="node"><title>Node8</title>
<a xlink:href="classforcebalance_1_1tinkerio_1_1AbInitio__TINKER.html#a27835affec49391fc41b832839a2b0e8" target="_top" xlink:title="forcebalance.tinkerio.Ab\lInitio_TINKER.energy_force\l_driver_all">
<polygon fill="white" stroke="black" points="640,-46.5 640,-93.5 782,-93.5 782,-46.5 640,-46.5"/>
<text text-anchor="start" x="648" y="-80.5" font-family="Ubuntu-R" font-size="10.00">forcebalance.tinkerio.Ab</text>
<text text-anchor="start" x="648" y="-67.5" font-family="Ubuntu-R" font-size="10.00">Initio_TINKER.energy_force</text>
<text text-anchor="middle" x="711" y="-54.5" font-family="Ubuntu-R" font-size="10.00">_driver_all</text>
</a>
</g>
<!-- Node7&#45;&gt;Node8 -->
<g id="edge16" class="edge"><title>Node7&#45;&gt;Node8</title>
<path fill="none" stroke="midnightblue" d="M577.599,-70C594.574,-70 612.493,-70 629.501,-70"/>
<polygon fill="midnightblue" stroke="midnightblue" points="629.955,-73.5001 639.955,-70 629.955,-66.5001 629.955,-73.5001"/>
</g>
<!-- Node9 -->
<g id="node18" class="node"><title>Node9</title>
<a xlink:href="classforcebalance_1_1tinkerio_1_1AbInitio__TINKER.html#adeddb898c79da3df601bc742bc2c2be7" target="_top" xlink:title="forcebalance.tinkerio.Ab\lInitio_TINKER.__init__">
<polygon fill="white" stroke="black" points="867.5,-64 867.5,-98 998.5,-98 998.5,-64 867.5,-64"/>
<text text-anchor="start" x="875.5" y="-85" font-family="Ubuntu-R" font-size="10.00">forcebalance.tinkerio.Ab</text>
<text text-anchor="middle" x="933" y="-72" font-family="Ubuntu-R" font-size="10.00">Initio_TINKER.__init__</text>
</a>
</g>
<!-- Node8&#45;&gt;Node9 -->
<g id="edge18" class="edge"><title>Node8&#45;&gt;Node9</title>
<path fill="none" stroke="midnightblue" d="M782.158,-73.5259C806.017,-74.7081 832.707,-76.0306 856.928,-77.2306"/>
<polygon fill="midnightblue" stroke="midnightblue" points="856.98,-80.7374 867.141,-77.7367 857.326,-73.746 856.98,-80.7374"/>
</g>
<!-- Node10 -->
<g id="node20" class="node"><title>Node10</title>
<a xlink:href="classforcebalance_1_1tinkerio_1_1AbInitio__TINKER.html#a4f0decc929da6183f1d0d6229fc9733d" target="_top" xlink:title="forcebalance.tinkerio.Ab\lInitio_TINKER.prepare\l_temp_directory">
<polygon fill="white" stroke="black" points="1062.5,-26.5 1062.5,-73.5 1193.5,-73.5 1193.5,-26.5 1062.5,-26.5"/>
<text text-anchor="start" x="1070.5" y="-60.5" font-family="Ubuntu-R" font-size="10.00">forcebalance.tinkerio.Ab</text>
<text text-anchor="start" x="1070.5" y="-47.5" font-family="Ubuntu-R" font-size="10.00">Initio_TINKER.prepare</text>
<text text-anchor="middle" x="1128" y="-34.5" font-family="Ubuntu-R" font-size="10.00">_temp_directory</text>
</a>
</g>
<!-- Node8&#45;&gt;Node10 -->
<g id="edge32" class="edge"><title>Node8&#45;&gt;Node10</title>
<path fill="none" stroke="midnightblue" d="M782.193,-60.452C800.96,-58.2833 821.215,-56.2522 840,-55 911.9,-50.2073 994.107,-49.2259 1052.24,-49.2836"/>
<polygon fill="midnightblue" stroke="midnightblue" points="1052.43,-52.7839 1062.44,-49.3047 1052.45,-45.7839 1052.43,-52.7839"/>
</g>
<!-- Node9&#45;&gt;Node10 -->
<g id="edge20" class="edge"><title>Node9&#45;&gt;Node10</title>
<path fill="none" stroke="midnightblue" d="M998.746,-70.548C1015.85,-67.8297 1034.41,-64.8789 1051.99,-62.084"/>
<polygon fill="midnightblue" stroke="midnightblue" points="1052.88,-65.486 1062.21,-60.4593 1051.78,-58.5728 1052.88,-65.486"/>
</g>
<!-- Node11 -->
<g id="node22" class="node"><title>Node11</title>
<a xlink:href="classforcebalance_1_1tinkerio_1_1AbInitio__TINKER.html#ab3835da0b951f77bfef0f14acd133c26" target="_top" xlink:title="forcebalance.tinkerio.Ab\lInitio_TINKER.energy_force\l_driver">
<polygon fill="white" stroke="black" points="1230,-0.5 1230,-47.5 1372,-47.5 1372,-0.5 1230,-0.5"/>
<text text-anchor="start" x="1238" y="-34.5" font-family="Ubuntu-R" font-size="10.00">forcebalance.tinkerio.Ab</text>
<text text-anchor="start" x="1238" y="-21.5" font-family="Ubuntu-R" font-size="10.00">Initio_TINKER.energy_force</text>
<text text-anchor="middle" x="1301" y="-8.5" font-family="Ubuntu-R" font-size="10.00">_driver</text>
</a>
</g>
<!-- Node10&#45;&gt;Node11 -->
<g id="edge22" class="edge"><title>Node10&#45;&gt;Node11</title>
<path fill="none" stroke="midnightblue" d="M1193.9,-40.0963C1202.34,-38.8276 1211.06,-37.5172 1219.71,-36.2172"/>
<polygon fill="midnightblue" stroke="midnightblue" points="1220.44,-39.6465 1229.81,-34.699 1219.4,-32.7242 1220.44,-39.6465"/>
</g>
<!-- Node11&#45;&gt;Node7 -->
<g id="edge30" class="edge"><title>Node11&#45;&gt;Node7</title>
<path fill="none" stroke="midnightblue" d="M1229.95,-18.6992C1217.96,-17.9917 1205.63,-17.38 1194,-17 937.982,-8.63453 871.058,2.7054 618,-37 598.672,-40.0326 578.006,-45.0017 559.322,-50.1743"/>
<polygon fill="midnightblue" stroke="midnightblue" points="558.124,-46.8759 549.459,-52.9728 560.035,-53.61 558.124,-46.8759"/>
</g>
<!-- Node12 -->
<g id="node24" class="node"><title>Node12</title>
<a xlink:href="namespaceforcebalance_1_1molecule.html#a0dd31eff88d2bed0884ab21a13261d42" target="_top" xlink:title="ONLY matches integers! If you have a decimal point? None shall pass!">
<polygon fill="white" stroke="black" points="1408.5,-33.5 1408.5,-54.5 1555.5,-54.5 1555.5,-33.5 1408.5,-33.5"/>
<text text-anchor="middle" x="1482" y="-41.5" font-family="Ubuntu-R" font-size="10.00">forcebalance.molecule.isint</text>
</a>
</g>
<!-- Node11&#45;&gt;Node12 -->
<g id="edge24" class="edge"><title>Node11&#45;&gt;Node12</title>
<path fill="none" stroke="midnightblue" d="M1372.02,-31.8471C1380.56,-32.791 1389.34,-33.7618 1398.05,-34.7235"/>
<polygon fill="midnightblue" stroke="midnightblue" points="1397.89,-38.2268 1408.21,-35.8463 1398.65,-31.2691 1397.89,-38.2268"/>
</g>
<!-- Node13 -->
<g id="node26" class="node"><title>Node13</title>
<a xlink:href="namespaceforcebalance_1_1molecule.html#afe989ffd119568047fc8265b1d329a70" target="_top" xlink:title="Matches ANY number; it can be a decimal, scientific notation, integer, or what have you...">
<polygon fill="white" stroke="black" points="1592,-13.5 1592,-34.5 1748,-34.5 1748,-13.5 1592,-13.5"/>
<text text-anchor="middle" x="1670" y="-21.5" font-family="Ubuntu-R" font-size="10.00">forcebalance.molecule.isfloat</text>
</a>
</g>
<!-- Node11&#45;&gt;Node13 -->
<g id="edge28" class="edge"><title>Node11&#45;&gt;Node13</title>
<path fill="none" stroke="midnightblue" d="M1372.15,-24C1431.88,-24 1517.51,-24 1581.63,-24"/>
<polygon fill="midnightblue" stroke="midnightblue" points="1581.73,-27.5001 1591.73,-24 1581.73,-20.5001 1581.73,-27.5001"/>
</g>
<!-- Node12&#45;&gt;Node13 -->
<g id="edge26" class="edge"><title>Node12&#45;&gt;Node13</title>
<path fill="none" stroke="midnightblue" d="M1555.76,-36.1529C1564.27,-35.2483 1573,-34.3191 1581.67,-33.3967"/>
<polygon fill="midnightblue" stroke="midnightblue" points="1582.23,-36.8573 1591.8,-32.319 1581.49,-29.8966 1582.23,-36.8573"/>
</g>
</g>
</svg>
