<?xml version="1.0" encoding="UTF-8" standalone="no"?>
<!DOCTYPE svg PUBLIC "-//W3C//DTD SVG 1.1//EN"
 "http://www.w3.org/Graphics/SVG/1.1/DTD/svg11.dtd">
<!-- Generated by graphviz version 2.32.0 (20130801.1845)
 -->
<!-- Title: forcebalance.fitsim.FittingSimulation.sget Pages: 1 -->
<svg width="830pt" height="346pt"
 viewBox="0.00 0.00 830.00 346.29" xmlns="http://www.w3.org/2000/svg" xmlns:xlink="http://www.w3.org/1999/xlink">
<g id="graph0" class="graph" transform="scale(1 1) rotate(0) translate(4 342.287)">
<title>forcebalance.fitsim.FittingSimulation.sget</title>
<polygon fill="white" stroke="white" points="-4,5 -4,-342.287 827,-342.287 827,5 -4,5"/>
<!-- Node1 -->
<g id="node1" class="node"><title>Node1</title>
<polygon fill="#bfbfbf" stroke="black" points="-0.04,-101.287 -0.04,-133.287 122.04,-133.287 122.04,-101.287 -0.04,-101.287"/>
<text text-anchor="start" x="7.96" y="-120.287" font-family="Ubuntu-R" font-size="10.00">forcebalance.fitsim.Fitting</text>
<text text-anchor="middle" x="61" y="-108.287" font-family="Ubuntu-R" font-size="10.00">Simulation.sget</text>
</g>
<!-- Node2 -->
<g id="node2" class="node"><title>Node2</title>
<g id="a_node2"><a xlink:href="namespaceforcebalance_1_1optimizer.html#ae1f6c649703a22b2f767a5f6bf53297b" target="_top" xlink:title="forcebalance.optimizer.Counter">
<polygon fill="white" stroke="black" points="332.695,-62.2871 332.695,-82.2871 475.305,-82.2871 475.305,-62.2871 332.695,-62.2871"/>
<text text-anchor="middle" x="404" y="-69.2871" font-family="Ubuntu-R" font-size="10.00">forcebalance.optimizer.Counter</text>
</a>
</g>
</g>
<!-- Node1&#45;&gt;Node2 -->
<g id="edge1" class="edge"><title>Node1&#45;&gt;Node2</title>
<path fill="none" stroke="midnightblue" d="M71.2426,-101.046C85.9902,-76.9898 117.372,-32.8415 158,-15.2871 214.303,9.03975 236.494,-0.425988 296,-15.2871 327.663,-23.1947 360.224,-42.4338 380.979,-56.3769"/>
<polygon fill="midnightblue" stroke="midnightblue" points="379.157,-59.3716 389.376,-62.1651 383.129,-53.6081 379.157,-59.3716"/>
</g>
<!-- Node4 -->
<g id="node4" class="node"><title>Node4</title>
<g id="a_node4"><a xlink:href="classforcebalance_1_1fitsim_1_1FittingSimulation.html#af2467e635cc05270c463a9a3d01919a4" target="_top" xlink:title="forcebalance.fitsim.Fitting\lSimulation.link_from_tempdir">
<polygon fill="white" stroke="black" points="157.753,-178.287 157.753,-210.287 296.247,-210.287 296.247,-178.287 157.753,-178.287"/>
<text text-anchor="start" x="165.753" y="-197.287" font-family="Ubuntu-R" font-size="10.00">forcebalance.fitsim.Fitting</text>
<text text-anchor="middle" x="227" y="-185.287" font-family="Ubuntu-R" font-size="10.00">Simulation.link_from_tempdir</text>
</a>
</g>
</g>
<!-- Node1&#45;&gt;Node4 -->
<g id="edge3" class="edge"><title>Node1&#45;&gt;Node4</title>
<path fill="none" stroke="midnightblue" d="M90.1044,-133.396C109.002,-143.933 134.635,-157.663 158,-168.287 162.627,-170.391 167.479,-172.476 172.371,-174.495"/>
<polygon fill="midnightblue" stroke="midnightblue" points="171.194,-177.795 181.777,-178.286 173.811,-171.302 171.194,-177.795"/>
</g>
<!-- Node5 -->
<g id="node5" class="node"><title>Node5</title>
<g id="a_node5"><a xlink:href="classforcebalance_1_1abinitio_1_1AbInitio.html#a2bb3ed7209707f688ec8b731392466b5" target="_top" xlink:title="forcebalance.abinitio.Ab\lInitio.get">
<polygon fill="white" stroke="black" points="169.577,-229.287 169.577,-261.287 284.423,-261.287 284.423,-229.287 169.577,-229.287"/>
<text text-anchor="start" x="177.577" y="-248.287" font-family="Ubuntu-R" font-size="10.00">forcebalance.abinitio.Ab</text>
<text text-anchor="middle" x="227" y="-236.287" font-family="Ubuntu-R" font-size="10.00">Initio.get</text>
</a>
</g>
</g>
<!-- Node1&#45;&gt;Node5 -->
<g id="edge4" class="edge"><title>Node1&#45;&gt;Node5</title>
<path fill="none" stroke="midnightblue" d="M73.5689,-133.586C90.0402,-155.737 122.245,-195.324 158,-219.287 160.869,-221.21 163.901,-223.019 167.027,-224.716"/>
<polygon fill="midnightblue" stroke="midnightblue" points="165.523,-227.876 176.034,-229.204 168.645,-221.611 165.523,-227.876"/>
</g>
<!-- Node12 -->
<g id="node12" class="node"><title>Node12</title>
<g id="a_node12"><a xlink:href="classforcebalance_1_1binding_1_1BindingEnergy.html#a263fadef13141ef341a01d1f538f85af" target="_top" xlink:title="forcebalance.binding.Binding\lEnergy.get">
<polygon fill="white" stroke="black" points="159.572,-76.2871 159.572,-108.287 294.428,-108.287 294.428,-76.2871 159.572,-76.2871"/>
<text text-anchor="start" x="167.572" y="-95.2871" font-family="Ubuntu-R" font-size="10.00">forcebalance.binding.Binding</text>
<text text-anchor="middle" x="227" y="-83.2871" font-family="Ubuntu-R" font-size="10.00">Energy.get</text>
</a>
</g>
</g>
<!-- Node1&#45;&gt;Node12 -->
<g id="edge11" class="edge"><title>Node1&#45;&gt;Node12</title>
<path fill="none" stroke="midnightblue" d="M122.136,-108.12C131.065,-106.759 140.367,-105.341 149.575,-103.937"/>
<polygon fill="midnightblue" stroke="midnightblue" points="150.149,-107.39 159.507,-102.423 149.094,-100.47 150.149,-107.39"/>
</g>
<!-- Node13 -->
<g id="node13" class="node"><title>Node13</title>
<g id="a_node13"><a xlink:href="classforcebalance_1_1counterpoise_1_1Counterpoise.html#a5fd50a4bb7d5e939b7e99ac648b35d59" target="_top" xlink:title="Gets the objective function for fitting the counterpoise correction.">
<polygon fill="white" stroke="black" points="165.418,-25.2871 165.418,-57.2871 288.582,-57.2871 288.582,-25.2871 165.418,-25.2871"/>
<text text-anchor="start" x="173.418" y="-44.2871" font-family="Ubuntu-R" font-size="10.00">forcebalance.counterpoise.</text>
<text text-anchor="middle" x="227" y="-32.2871" font-family="Ubuntu-R" font-size="10.00">Counterpoise.get</text>
</a>
</g>
</g>
<!-- Node1&#45;&gt;Node13 -->
<g id="edge12" class="edge"><title>Node1&#45;&gt;Node13</title>
<path fill="none" stroke="midnightblue" d="M90.0596,-101.078C108.938,-90.4994 134.567,-76.7605 158,-66.2871 161.876,-64.5548 165.911,-62.8448 169.997,-61.1813"/>
<polygon fill="midnightblue" stroke="midnightblue" points="171.559,-64.3275 179.571,-57.3954 168.985,-57.8179 171.559,-64.3275"/>
</g>
<!-- Node14 -->
<g id="node14" class="node"><title>Node14</title>
<g id="a_node14"><a xlink:href="classforcebalance_1_1fitsim_1_1FittingSimulation.html#ab973882d13b0b632a27e3507fcf47a7b" target="_top" xlink:title="Every fitting simulation must be able to return a contribution to the objective function &#45; however...">
<polygon fill="white" stroke="black" points="165.96,-127.287 165.96,-159.287 288.04,-159.287 288.04,-127.287 165.96,-127.287"/>
<text text-anchor="start" x="173.96" y="-146.287" font-family="Ubuntu-R" font-size="10.00">forcebalance.fitsim.Fitting</text>
<text text-anchor="middle" x="227" y="-134.287" font-family="Ubuntu-R" font-size="10.00">Simulation.get</text>
</a>
</g>
</g>
<!-- Node1&#45;&gt;Node14 -->
<g id="edge13" class="edge"><title>Node1&#45;&gt;Node14</title>
<path fill="none" stroke="midnightblue" d="M122.136,-126.821C133.055,-128.552 144.531,-130.371 155.711,-132.144"/>
<polygon fill="midnightblue" stroke="midnightblue" points="155.446,-135.645 165.871,-133.754 156.542,-128.732 155.446,-135.645"/>
</g>
<!-- Node3 -->
<g id="node3" class="node"><title>Node3</title>
<g id="a_node3"><a xlink:href="namespaceforcebalance_1_1optimizer.html#ab43948ecf30c90d319e0c0b107fe484a" target="_top" xlink:title="forcebalance.optimizer.GoodStep">
<polygon fill="white" stroke="black" points="511.805,-62.2871 511.805,-82.2871 662.195,-82.2871 662.195,-62.2871 511.805,-62.2871"/>
<text text-anchor="middle" x="587" y="-69.2871" font-family="Ubuntu-R" font-size="10.00">forcebalance.optimizer.GoodStep</text>
</a>
</g>
</g>
<!-- Node2&#45;&gt;Node3 -->
<g id="edge2" class="edge"><title>Node2&#45;&gt;Node3</title>
<path fill="none" stroke="midnightblue" d="M475.498,-72.2871C483.988,-72.2871 492.725,-72.2871 501.39,-72.2871"/>
<polygon fill="midnightblue" stroke="midnightblue" points="501.509,-75.7872 511.509,-72.2871 501.509,-68.7872 501.509,-75.7872"/>
</g>
<!-- Node6 -->
<g id="node6" class="node"><title>Node6</title>
<g id="a_node6"><a xlink:href="classforcebalance_1_1abinitio_1_1AbInitio.html#a313c848f46579817803c8a3ff100974e" target="_top" xlink:title="LPW 06&#45;30&#45;2013.">
<polygon fill="white" stroke="black" points="346.437,-254.287 346.437,-286.287 461.563,-286.287 461.563,-254.287 346.437,-254.287"/>
<text text-anchor="start" x="354.437" y="-273.287" font-family="Ubuntu-R" font-size="10.00">forcebalance.abinitio.Ab</text>
<text text-anchor="middle" x="404" y="-261.287" font-family="Ubuntu-R" font-size="10.00">Initio.get_energy_force_</text>
</a>
</g>
</g>
<!-- Node5&#45;&gt;Node6 -->
<g id="edge5" class="edge"><title>Node5&#45;&gt;Node6</title>
<path fill="none" stroke="midnightblue" d="M284.817,-253.404C301.099,-255.73 319.004,-258.288 335.844,-260.693"/>
<polygon fill="midnightblue" stroke="midnightblue" points="335.774,-264.219 346.168,-262.168 336.764,-257.289 335.774,-264.219"/>
</g>
<!-- Node7 -->
<g id="node7" class="node"><title>Node7</title>
<g id="a_node7"><a xlink:href="classforcebalance_1_1abinitio_1_1AbInitio.html#abfe50569805218075c5942fd3be8bbe7" target="_top" xlink:title="Electrostatic potential fitting.">
<polygon fill="white" stroke="black" points="346.577,-203.287 346.577,-235.287 461.423,-235.287 461.423,-203.287 346.577,-203.287"/>
<text text-anchor="start" x="354.577" y="-222.287" font-family="Ubuntu-R" font-size="10.00">forcebalance.abinitio.Ab</text>
<text text-anchor="middle" x="404" y="-210.287" font-family="Ubuntu-R" font-size="10.00">Initio.get_resp_</text>
</a>
</g>
</g>
<!-- Node5&#45;&gt;Node7 -->
<g id="edge6" class="edge"><title>Node5&#45;&gt;Node7</title>
<path fill="none" stroke="midnightblue" d="M284.817,-236.846C301.182,-234.414 319.186,-231.739 336.101,-229.226"/>
<polygon fill="midnightblue" stroke="midnightblue" points="337.091,-232.618 346.468,-227.686 336.062,-225.694 337.091,-232.618"/>
</g>
<!-- Node8 -->
<g id="node8" class="node"><title>Node8</title>
<g id="a_node8"><a xlink:href="namespaceforcebalance_1_1finite__difference.html#ad84d3e385db1190e7d8ef58bc08a6c52" target="_top" xlink:title="Invoking this function from anywhere will tell us whether we&#39;re being called by a finite&#45;difference f...">
<polygon fill="white" stroke="black" points="358.662,-152.287 358.662,-184.287 449.338,-184.287 449.338,-152.287 358.662,-152.287"/>
<text text-anchor="start" x="366.662" y="-171.287" font-family="Ubuntu-R" font-size="10.00">forcebalance.finite</text>
<text text-anchor="middle" x="404" y="-159.287" font-family="Ubuntu-R" font-size="10.00">_difference.in_fd</text>
</a>
</g>
</g>
<!-- Node5&#45;&gt;Node8 -->
<g id="edge7" class="edge"><title>Node5&#45;&gt;Node8</title>
<path fill="none" stroke="midnightblue" d="M274.812,-229.241C282.048,-226.235 289.328,-222.892 296,-219.287 313.364,-209.906 314.512,-202.436 332,-193.287 337.471,-190.425 343.341,-187.767 349.277,-185.337"/>
<polygon fill="midnightblue" stroke="midnightblue" points="350.559,-188.594 358.61,-181.707 348.022,-182.07 350.559,-188.594"/>
</g>
<!-- Node9 -->
<g id="node9" class="node"><title>Node9</title>
<g id="a_node9"><a xlink:href="namespaceforcebalance_1_1abinitio.html#aba970cb59bab95eec79027ea05655110" target="_top" xlink:title="A more generalized version of build_objective which is callable for derivatives, but the covariance i...">
<polygon fill="white" stroke="black" points="334.36,-305.287 334.36,-337.287 473.64,-337.287 473.64,-305.287 334.36,-305.287"/>
<text text-anchor="start" x="342.36" y="-324.287" font-family="Ubuntu-R" font-size="10.00">forcebalance.abinitio.weighted</text>
<text text-anchor="middle" x="404" y="-312.287" font-family="Ubuntu-R" font-size="10.00">_variance</text>
</a>
</g>
</g>
<!-- Node5&#45;&gt;Node9 -->
<g id="edge8" class="edge"><title>Node5&#45;&gt;Node9</title>
<path fill="none" stroke="midnightblue" d="M259.497,-261.415C279.934,-271.633 307.269,-284.843 332,-295.287 336.988,-297.394 342.212,-299.496 347.467,-301.542"/>
<polygon fill="midnightblue" stroke="midnightblue" points="346.323,-304.851 356.913,-305.15 348.821,-298.312 346.323,-304.851"/>
</g>
<!-- Node10 -->
<g id="node10" class="node"><title>Node10</title>
<g id="a_node10"><a xlink:href="namespaceforcebalance_1_1abinitio.html#ab9554761125a4ec7c3c13d6ae4ea537d" target="_top" xlink:title="A bit of a hack, since we have to subtract out two mean quantities to get Hessian elements...">
<polygon fill="white" stroke="black" points="517.36,-305.287 517.36,-337.287 656.64,-337.287 656.64,-305.287 517.36,-305.287"/>
<text text-anchor="start" x="525.36" y="-324.287" font-family="Ubuntu-R" font-size="10.00">forcebalance.abinitio.weighted</text>
<text text-anchor="middle" x="587" y="-312.287" font-family="Ubuntu-R" font-size="10.00">_variance2</text>
</a>
</g>
</g>
<!-- Node9&#45;&gt;Node10 -->
<g id="edge9" class="edge"><title>Node9&#45;&gt;Node10</title>
<path fill="none" stroke="midnightblue" d="M473.686,-321.287C484.559,-321.287 495.878,-321.287 506.964,-321.287"/>
<polygon fill="midnightblue" stroke="midnightblue" points="507.06,-324.787 517.06,-321.287 507.06,-317.787 507.06,-324.787"/>
</g>
<!-- Node11 -->
<g id="node11" class="node"><title>Node11</title>
<g id="a_node11"><a xlink:href="namespaceforcebalance_1_1abinitio.html#aadd1d6c5a34c82d495d6be7380b73601" target="_top" xlink:title="This function builds an objective function (number) from the complicated polytensor and covariance ma...">
<polygon fill="white" stroke="black" points="698.408,-305.287 698.408,-337.287 821.592,-337.287 821.592,-305.287 698.408,-305.287"/>
<text text-anchor="start" x="706.408" y="-324.287" font-family="Ubuntu-R" font-size="10.00">forcebalance.abinitio.build</text>
<text text-anchor="middle" x="760" y="-312.287" font-family="Ubuntu-R" font-size="10.00">_objective</text>
</a>
</g>
</g>
<!-- Node10&#45;&gt;Node11 -->
<g id="edge10" class="edge"><title>Node10&#45;&gt;Node11</title>
<path fill="none" stroke="midnightblue" d="M657.059,-321.287C667.279,-321.287 677.824,-321.287 688.08,-321.287"/>
<polygon fill="midnightblue" stroke="midnightblue" points="688.218,-324.787 698.218,-321.287 688.218,-317.787 688.218,-324.787"/>
</g>
<!-- Node14&#45;&gt;Node2 -->
<g id="edge14" class="edge"><title>Node14&#45;&gt;Node2</title>
<path fill="none" stroke="midnightblue" d="M270.524,-127.274C278.984,-124.019 287.789,-120.582 296,-117.287 321.025,-107.244 349.123,-95.4052 370.243,-86.3921"/>
<polygon fill="midnightblue" stroke="midnightblue" points="371.896,-89.492 379.713,-82.3408 369.143,-83.0562 371.896,-89.492"/>
</g>
</g>
</svg>
