<?xml version="1.0" encoding="UTF-8" standalone="no"?>
<!DOCTYPE svg PUBLIC "-//W3C//DTD SVG 1.1//EN"
 "http://www.w3.org/Graphics/SVG/1.1/DTD/svg11.dtd">
<!-- Generated by graphviz version 2.28.0 (20111219.2309)
 -->
<!-- Title: G Pages: 1 -->
<svg width="652pt" height="46pt"
 viewBox="0.00 0.00 652.00 46.00" xmlns="http://www.w3.org/2000/svg" xmlns:xlink="http://www.w3.org/1999/xlink">
<g id="graph1" class="graph" transform="scale(1 1) rotate(0) translate(4 42)">
<title>G</title>
<polygon fill="white" stroke="white" points="-4,5 -4,-42 649,-42 649,5 -4,5"/>
<!-- Node1 -->
<g id="node1" class="node"><title>Node1</title>
<polygon fill="#bfbfbf" stroke="black" points="0.5,-0.5 0.5,-19.5 149.5,-19.5 149.5,-0.5 0.5,-0.5"/>
<text text-anchor="middle" x="75" y="-7.5" font-family="Ubuntu-R" font-size="10.00">forcebalance.Mol2.mol2.out</text>
</g>
<!-- Node2 -->
<g id="node3" class="node"><title>Node2</title>
<a xlink:href="classforcebalance_1_1Mol2_1_1mol2.html#a57bf99785e120a6aedd8be49585f4c5d" target="_top" xlink:title="number of substructures (integer)">
<polygon fill="white" stroke="black" points="186.5,-0.5 186.5,-19.5 393.5,-19.5 393.5,-0.5 186.5,-0.5"/>
<text text-anchor="middle" x="290" y="-7.5" font-family="Ubuntu-R" font-size="10.00">forcebalance.Mol2.mol2.set_num_subst</text>
</a>
</g>
<!-- Node1&#45;&gt;Node2 -->
<g id="edge2" class="edge"><title>Node1&#45;&gt;Node2</title>
<path fill="none" stroke="midnightblue" d="M149.601,-10C158.25,-10 167.221,-10 176.251,-10"/>
<polygon fill="midnightblue" stroke="midnightblue" points="176.458,-13.5001 186.458,-10 176.458,-6.5001 176.458,-13.5001"/>
</g>
<!-- Node3 -->
<g id="node5" class="node"><title>Node3</title>
<a xlink:href="classforcebalance_1_1Mol2_1_1mol2.html#aaab9bc1afebb05a355c53db2a35740be" target="_top" xlink:title="bond identifier (integer, starting from 1)">
<polygon fill="white" stroke="black" points="430.5,-0.5 430.5,-19.5 643.5,-19.5 643.5,-0.5 430.5,-0.5"/>
<text text-anchor="middle" x="537" y="-7.5" font-family="Ubuntu-R" font-size="10.00">forcebalance.Mol2.mol2.set_charge_type</text>
</a>
</g>
<!-- Node2&#45;&gt;Node3 -->
<g id="edge4" class="edge"><title>Node2&#45;&gt;Node3</title>
<path fill="none" stroke="midnightblue" d="M393.837,-10C402.496,-10 411.29,-10 420.039,-10"/>
<polygon fill="midnightblue" stroke="midnightblue" points="420.279,-13.5001 430.279,-10 420.279,-6.5001 420.279,-13.5001"/>
</g>
<!-- Node3&#45;&gt;Node3 -->
<g id="edge6" class="edge"><title>Node3&#45;&gt;Node3</title>
<path fill="none" stroke="midnightblue" d="M499.391,-19.6119C480.501,-28.4613 493.037,-38 537,-38 570.659,-38 585.896,-32.4086 582.712,-25.8161"/>
<polygon fill="midnightblue" stroke="midnightblue" points="584.677,-22.9121 574.609,-19.6119 580.421,-28.4701 584.677,-22.9121"/>
</g>
</g>
</svg>
