<?xml version="1.0" encoding="UTF-8" standalone="no"?>
<!DOCTYPE svg PUBLIC "-//W3C//DTD SVG 1.1//EN"
 "http://www.w3.org/Graphics/SVG/1.1/DTD/svg11.dtd">
<!-- Generated by graphviz version 2.26.3 (20100126.1600)
 -->
<!-- Title: forcebalance.gmxio.AbInitio_GMX.prepare_temp_directory Pages: 1 -->
<svg width="1116pt" height="200pt"
 viewBox="0.00 0.00 1116.00 200.00" xmlns="http://www.w3.org/2000/svg" xmlns:xlink="http://www.w3.org/1999/xlink">
<g id="graph1" class="graph" transform="scale(1 1) rotate(0) translate(4 196)">
<title>forcebalance.gmxio.AbInitio_GMX.prepare_temp_directory</title>
<polygon fill="white" stroke="white" points="-4,5 -4,-196 1113,-196 1113,5 -4,5"/>
<!-- Node1 -->
<g id="node1" class="node"><title>Node1</title>
<polygon fill="#bfbfbf" stroke="black" points="0.5,-66 0.5,-100 161.5,-100 161.5,-66 0.5,-66"/>
<text text-anchor="start" x="8.5" y="-87" font-family="Ubuntu-R" font-size="10.00">forcebalance.gmxio.AbInitio</text>
<text text-anchor="middle" x="81" y="-74" font-family="Ubuntu-R" font-size="10.00">_GMX.prepare_temp_directory</text>
</g>
<!-- Node2 -->
<g id="node3" class="node"><title>Node2</title>
<a xlink:href="namespaceforcebalance_1_1nifty.html#abb8f59044961a12588e0653c2baa8b01" target="_top" xlink:title="forcebalance.nifty.warn\l_press_key">
<polygon fill="white" stroke="black" points="209.5,-158 209.5,-192 334.5,-192 334.5,-158 209.5,-158"/>
<text text-anchor="start" x="217.5" y="-179" font-family="Ubuntu-R" font-size="10.00">forcebalance.nifty.warn</text>
<text text-anchor="middle" x="272" y="-166" font-family="Ubuntu-R" font-size="10.00">_press_key</text>
</a>
</g>
<!-- Node1&#45;&gt;Node2 -->
<g id="edge2" class="edge"><title>Node1&#45;&gt;Node2</title>
<path fill="none" stroke="midnightblue" d="M108.18,-100.145C131.448,-114.376 166.141,-134.552 198,-149 202.015,-150.821 206.198,-152.597 210.442,-154.31"/>
<polygon fill="midnightblue" stroke="midnightblue" points="209.202,-157.583 219.79,-157.955 211.745,-151.061 209.202,-157.583"/>
</g>
<!-- Node3 -->
<g id="node5" class="node"><title>Node3</title>
<a xlink:href="namespaceforcebalance_1_1nifty.html#ab182a9da2a2f42cf45942fbee6acf9b1" target="_top" xlink:title="forcebalance.nifty.LinkFile">
<polygon fill="white" stroke="black" points="204,-118.5 204,-139.5 340,-139.5 340,-118.5 204,-118.5"/>
<text text-anchor="middle" x="272" y="-126.5" font-family="Ubuntu-R" font-size="10.00">forcebalance.nifty.LinkFile</text>
</a>
</g>
<!-- Node1&#45;&gt;Node3 -->
<g id="edge4" class="edge"><title>Node1&#45;&gt;Node3</title>
<path fill="none" stroke="midnightblue" d="M151.85,-100.063C173.838,-105.359 197.697,-111.105 218.316,-116.071"/>
<polygon fill="midnightblue" stroke="midnightblue" points="217.613,-119.502 228.155,-118.44 219.253,-112.696 217.613,-119.502"/>
</g>
<!-- Node5 -->
<g id="node9" class="node"><title>Node5</title>
<a xlink:href="classforcebalance_1_1gmxio_1_1AbInitio__GMX.html#a4bc31d1c02d47749d26b14779f025ebd" target="_top" xlink:title="Computes the energy and force using GROMACS for a single snapshot.">
<polygon fill="white" stroke="black" points="198,-66 198,-100 346,-100 346,-66 198,-66"/>
<text text-anchor="start" x="206" y="-87" font-family="Ubuntu-R" font-size="10.00">forcebalance.gmxio.AbInitio</text>
<text text-anchor="middle" x="272" y="-74" font-family="Ubuntu-R" font-size="10.00">_GMX.energy_force_driver</text>
</a>
</g>
<!-- Node1&#45;&gt;Node5 -->
<g id="edge8" class="edge"><title>Node1&#45;&gt;Node5</title>
<path fill="none" stroke="midnightblue" d="M161.724,-83C170.359,-83 179.16,-83 187.833,-83"/>
<polygon fill="midnightblue" stroke="midnightblue" points="187.94,-86.5001 197.94,-83 187.94,-79.5001 187.94,-86.5001"/>
</g>
<!-- Node10 -->
<g id="node20" class="node"><title>Node10</title>
<a xlink:href="namespaceforcebalance_1_1gmxio.html#acac8488f29b62fb0d4cb54bb5a041026" target="_top" xlink:title="forcebalance.gmxio.rm\l_gmx_baks">
<polygon fill="white" stroke="black" points="594,-52 594,-86 720,-86 720,-52 594,-52"/>
<text text-anchor="start" x="602" y="-73" font-family="Ubuntu-R" font-size="10.00">forcebalance.gmxio.rm</text>
<text text-anchor="middle" x="657" y="-60" font-family="Ubuntu-R" font-size="10.00">_gmx_baks</text>
</a>
</g>
<!-- Node1&#45;&gt;Node10 -->
<g id="edge24" class="edge"><title>Node1&#45;&gt;Node10</title>
<path fill="none" stroke="midnightblue" d="M145.865,-65.9415C162.719,-62.2392 180.936,-58.8732 198,-57 333.429,-42.1336 492.615,-52.4664 583.471,-60.9774"/>
<polygon fill="midnightblue" stroke="midnightblue" points="583.379,-64.4844 593.666,-61.9518 584.045,-57.5162 583.379,-64.4844"/>
</g>
<!-- Node4 -->
<g id="node7" class="node"><title>Node4</title>
<a xlink:href="namespaceforcebalance_1_1nifty.html#a25efa4d501ad852a234721af18978f7e" target="_top" xlink:title="Remove the file if it exists (doesn&#39;t return an error).">
<polygon fill="white" stroke="black" points="390.5,-156 390.5,-190 529.5,-190 529.5,-156 390.5,-156"/>
<text text-anchor="start" x="398.5" y="-177" font-family="Ubuntu-R" font-size="10.00">forcebalance.nifty.remove</text>
<text text-anchor="middle" x="460" y="-164" font-family="Ubuntu-R" font-size="10.00">_if_exists</text>
</a>
</g>
<!-- Node3&#45;&gt;Node4 -->
<g id="edge6" class="edge"><title>Node3&#45;&gt;Node4</title>
<path fill="none" stroke="midnightblue" d="M317.031,-139.539C336.059,-143.993 358.803,-149.316 380.491,-154.392"/>
<polygon fill="midnightblue" stroke="midnightblue" points="379.831,-157.831 390.365,-156.702 381.426,-151.016 379.831,-157.831"/>
</g>
<!-- Node6 -->
<g id="node11" class="node"><title>Node6</title>
<a xlink:href="classforcebalance_1_1gmxio_1_1AbInitio__GMX.html#a6e43c323b2286c546ff8afd3377f8808" target="_top" xlink:title="Computes the energy and force using GROMACS for a trajectory.">
<polygon fill="white" stroke="black" points="382,-104 382,-138 538,-138 538,-104 382,-104"/>
<text text-anchor="start" x="390" y="-125" font-family="Ubuntu-R" font-size="10.00">forcebalance.gmxio.AbInitio</text>
<text text-anchor="middle" x="460" y="-112" font-family="Ubuntu-R" font-size="10.00">_GMX.energy_force_driver_all</text>
</a>
</g>
<!-- Node5&#45;&gt;Node6 -->
<g id="edge10" class="edge"><title>Node5&#45;&gt;Node6</title>
<path fill="none" stroke="midnightblue" d="M346.033,-97.9641C354.452,-99.6658 363.095,-101.413 371.675,-103.147"/>
<polygon fill="midnightblue" stroke="midnightblue" points="371.206,-106.623 381.701,-105.174 372.593,-99.7618 371.206,-106.623"/>
</g>
<!-- Node5&#45;&gt;Node10 -->
<g id="edge22" class="edge"><title>Node5&#45;&gt;Node10</title>
<path fill="none" stroke="midnightblue" d="M346.232,-80.3007C414.611,-77.8141 515.496,-74.1456 583.608,-71.6688"/>
<polygon fill="midnightblue" stroke="midnightblue" points="583.963,-75.1583 593.829,-71.2971 583.709,-68.1629 583.963,-75.1583"/>
</g>
<!-- Node7 -->
<g id="node13" class="node"><title>Node7</title>
<a xlink:href="classforcebalance_1_1gmxio_1_1AbInitio__GMX.html#ae17e3c379d82935d725dd31f01df23e5" target="_top" xlink:title="Call mdrun in order to update the virtual site positions.">
<polygon fill="white" stroke="black" points="574,-104 574,-138 740,-138 740,-104 574,-104"/>
<text text-anchor="start" x="582" y="-125" font-family="Ubuntu-R" font-size="10.00">forcebalance.gmxio.AbInitio</text>
<text text-anchor="middle" x="657" y="-112" font-family="Ubuntu-R" font-size="10.00">_GMX.generate_vsite_positions</text>
</a>
</g>
<!-- Node6&#45;&gt;Node7 -->
<g id="edge12" class="edge"><title>Node6&#45;&gt;Node7</title>
<path fill="none" stroke="midnightblue" d="M538.143,-121C546.559,-121 555.182,-121 563.752,-121"/>
<polygon fill="midnightblue" stroke="midnightblue" points="563.773,-124.5 573.773,-121 563.773,-117.5 563.773,-124.5"/>
</g>
<!-- Node6&#45;&gt;Node10 -->
<g id="edge20" class="edge"><title>Node6&#45;&gt;Node10</title>
<path fill="none" stroke="midnightblue" d="M524.505,-103.973C543.512,-98.9562 564.444,-93.4309 583.947,-88.2829"/>
<polygon fill="midnightblue" stroke="midnightblue" points="584.918,-91.6466 593.694,-85.7102 583.132,-84.8784 584.918,-91.6466"/>
</g>
<!-- Node8 -->
<g id="node15" class="node"><title>Node8</title>
<a xlink:href="classforcebalance_1_1gmxio_1_1AbInitio__GMX.html#a1d03ae8104bcecacf96884058f2698af" target="_top" xlink:title="forcebalance.gmxio.AbInitio\l_GMX.__init__">
<polygon fill="white" stroke="black" points="776,-66 776,-100 924,-100 924,-66 776,-66"/>
<text text-anchor="start" x="784" y="-87" font-family="Ubuntu-R" font-size="10.00">forcebalance.gmxio.AbInitio</text>
<text text-anchor="middle" x="850" y="-74" font-family="Ubuntu-R" font-size="10.00">_GMX.__init__</text>
</a>
</g>
<!-- Node7&#45;&gt;Node8 -->
<g id="edge14" class="edge"><title>Node7&#45;&gt;Node8</title>
<path fill="none" stroke="midnightblue" d="M740.25,-104.609C748.756,-102.934 757.402,-101.232 765.917,-99.5552"/>
<polygon fill="midnightblue" stroke="midnightblue" points="766.701,-102.968 775.836,-97.6022 765.348,-96.1 766.701,-102.968"/>
</g>
<!-- Node9 -->
<g id="node17" class="node"><title>Node9</title>
<a xlink:href="classforcebalance_1_1gmxio_1_1AbInitio__GMX.html#aba138ca4195a1737f2f00bd8c5f3ca07" target="_top" xlink:title="This function parses the GROMACS topology file (.top) which contains a listing of the molecules in th...">
<polygon fill="white" stroke="black" points="960,-24 960,-58 1108,-58 1108,-24 960,-24"/>
<text text-anchor="start" x="968" y="-45" font-family="Ubuntu-R" font-size="10.00">forcebalance.gmxio.AbInitio</text>
<text text-anchor="middle" x="1034" y="-32" font-family="Ubuntu-R" font-size="10.00">_GMX.read_topology</text>
</a>
</g>
<!-- Node8&#45;&gt;Node9 -->
<g id="edge16" class="edge"><title>Node8&#45;&gt;Node9</title>
<path fill="none" stroke="midnightblue" d="M924.044,-66.0985C932.514,-64.1653 941.195,-62.1838 949.784,-60.2232"/>
<polygon fill="midnightblue" stroke="midnightblue" points="950.837,-63.5729 959.808,-57.9352 949.279,-56.7485 950.837,-63.5729"/>
</g>
<!-- Node9&#45;&gt;Node1 -->
<g id="edge18" class="edge"><title>Node9&#45;&gt;Node1</title>
<path fill="none" stroke="midnightblue" d="M959.865,-28.1398C884.026,-16.1159 762.669,-1.42109e-14 657,-0 460,-0 460,-0 460,-0 343.16,-0 210.651,-38.1071 137.351,-62.6797"/>
<polygon fill="midnightblue" stroke="midnightblue" points="136.189,-59.3777 127.842,-65.903 138.437,-66.0071 136.189,-59.3777"/>
</g>
</g>
</svg>
