<?xml version="1.0" encoding="UTF-8" standalone="no"?>
<!DOCTYPE svg PUBLIC "-//W3C//DTD SVG 1.1//EN"
 "http://www.w3.org/Graphics/SVG/1.1/DTD/svg11.dtd">
<!-- Generated by graphviz version 2.32.0 (20130801.1845)
 -->
<!-- Title: forcebalance.gmxio.AbInitio_GMX.read_topology Pages: 1 -->
<svg width="1032pt" height="235pt"
 viewBox="0.00 0.00 1032.00 235.00" xmlns="http://www.w3.org/2000/svg" xmlns:xlink="http://www.w3.org/1999/xlink">
<g id="graph0" class="graph" transform="scale(1 1) rotate(0) translate(4 231)">
<title>forcebalance.gmxio.AbInitio_GMX.read_topology</title>
<polygon fill="white" stroke="white" points="-4,5 -4,-231 1029,-231 1029,5 -4,5"/>
<!-- Node1 -->
<g id="node1" class="node"><title>Node1</title>
<polygon fill="#bfbfbf" stroke="black" points="0.243,-35 0.243,-67 131.757,-67 131.757,-35 0.243,-35"/>
<text text-anchor="start" x="8.243" y="-54" font-family="Ubuntu-R" font-size="10.00">forcebalance.gmxio.AbInitio</text>
<text text-anchor="middle" x="66" y="-42" font-family="Ubuntu-R" font-size="10.00">_GMX.read_topology</text>
</g>
<!-- Node2 -->
<g id="node2" class="node"><title>Node2</title>
<g id="a_node2"><a xlink:href="classforcebalance_1_1gmxio_1_1AbInitio__GMX.html#ab2eac76585bdb8401812f0c8e465a44e" target="_top" xlink:title="forcebalance.gmxio.AbInitio\l_GMX.prepare_temp_directory">
<polygon fill="white" stroke="black" points="168.553,-86 168.553,-118 311.447,-118 311.447,-86 168.553,-86"/>
<text text-anchor="start" x="176.553" y="-105" font-family="Ubuntu-R" font-size="10.00">forcebalance.gmxio.AbInitio</text>
<text text-anchor="middle" x="240" y="-93" font-family="Ubuntu-R" font-size="10.00">_GMX.prepare_temp_directory</text>
</a>
</g>
</g>
<!-- Node1&#45;&gt;Node2 -->
<g id="edge1" class="edge"><title>Node1&#45;&gt;Node2</title>
<path fill="none" stroke="midnightblue" d="M121.422,-67.1367C138.528,-72.209 157.571,-77.8552 175.263,-83.1012"/>
<polygon fill="midnightblue" stroke="midnightblue" points="174.35,-86.481 184.932,-85.9683 176.34,-79.7698 174.35,-86.481"/>
</g>
<!-- Node3 -->
<g id="node3" class="node"><title>Node3</title>
<g id="a_node3"><a xlink:href="namespaceforcebalance_1_1nifty.html#abb8f59044961a12588e0653c2baa8b01" target="_top" xlink:title="forcebalance.nifty.warn\l_press_key">
<polygon fill="white" stroke="black" points="358.527,-194 358.527,-226 469.473,-226 469.473,-194 358.527,-194"/>
<text text-anchor="start" x="366.527" y="-213" font-family="Ubuntu-R" font-size="10.00">forcebalance.nifty.warn</text>
<text text-anchor="middle" x="414" y="-201" font-family="Ubuntu-R" font-size="10.00">_press_key</text>
</a>
</g>
</g>
<!-- Node2&#45;&gt;Node3 -->
<g id="edge2" class="edge"><title>Node2&#45;&gt;Node3</title>
<path fill="none" stroke="midnightblue" d="M261.644,-118.172C282.717,-134.313 316.685,-159.333 348,-178 354.462,-181.852 361.453,-185.651 368.373,-189.211"/>
<polygon fill="midnightblue" stroke="midnightblue" points="367.201,-192.539 377.708,-193.901 370.343,-186.284 367.201,-192.539"/>
</g>
<!-- Node5 -->
<g id="node5" class="node"><title>Node5</title>
<g id="a_node5"><a xlink:href="namespaceforcebalance_1_1nifty.html#ab182a9da2a2f42cf45942fbee6acf9b1" target="_top" xlink:title="forcebalance.nifty.LinkFile">
<polygon fill="white" stroke="black" points="351.299,-149 351.299,-169 476.701,-169 476.701,-149 351.299,-149"/>
<text text-anchor="middle" x="414" y="-156" font-family="Ubuntu-R" font-size="10.00">forcebalance.nifty.LinkFile</text>
</a>
</g>
</g>
<!-- Node2&#45;&gt;Node5 -->
<g id="edge4" class="edge"><title>Node2&#45;&gt;Node5</title>
<path fill="none" stroke="midnightblue" d="M289.369,-118.029C315.86,-126.808 348.285,-137.554 373.281,-145.837"/>
<polygon fill="midnightblue" stroke="midnightblue" points="372.217,-149.172 382.811,-148.995 374.419,-142.527 372.217,-149.172"/>
</g>
<!-- Node7 -->
<g id="node7" class="node"><title>Node7</title>
<g id="a_node7"><a xlink:href="classforcebalance_1_1gmxio_1_1AbInitio__GMX.html#a4bc31d1c02d47749d26b14779f025ebd" target="_top" xlink:title="Computes the energy and force using GROMACS for a single snapshot.">
<polygon fill="white" stroke="black" points="348.243,-86 348.243,-118 479.757,-118 479.757,-86 348.243,-86"/>
<text text-anchor="start" x="356.243" y="-105" font-family="Ubuntu-R" font-size="10.00">forcebalance.gmxio.AbInitio</text>
<text text-anchor="middle" x="414" y="-93" font-family="Ubuntu-R" font-size="10.00">_GMX.energy_force_driver</text>
</a>
</g>
</g>
<!-- Node2&#45;&gt;Node7 -->
<g id="edge6" class="edge"><title>Node2&#45;&gt;Node7</title>
<path fill="none" stroke="midnightblue" d="M311.455,-102C320.19,-102 329.147,-102 337.948,-102"/>
<polygon fill="midnightblue" stroke="midnightblue" points="338.186,-105.5 348.186,-102 338.186,-98.5001 338.186,-105.5"/>
</g>
<!-- Node12 -->
<g id="node12" class="node"><title>Node12</title>
<g id="a_node12"><a xlink:href="namespaceforcebalance_1_1gmxio.html#acac8488f29b62fb0d4cb54bb5a041026" target="_top" xlink:title="forcebalance.gmxio.rm\l_gmx_baks">
<polygon fill="white" stroke="black" points="726.631,-54 726.631,-86 835.369,-86 835.369,-54 726.631,-54"/>
<text text-anchor="start" x="734.631" y="-73" font-family="Ubuntu-R" font-size="10.00">forcebalance.gmxio.rm</text>
<text text-anchor="middle" x="781" y="-61" font-family="Ubuntu-R" font-size="10.00">_gmx_baks</text>
</a>
</g>
</g>
<!-- Node2&#45;&gt;Node12 -->
<g id="edge14" class="edge"><title>Node2&#45;&gt;Node12</title>
<path fill="none" stroke="midnightblue" d="M296.646,-85.9749C313.046,-81.9349 331.121,-78.1403 348,-76 478.006,-59.5149 631.773,-62.7364 716.316,-66.4444"/>
<polygon fill="midnightblue" stroke="midnightblue" points="716.378,-69.9507 726.526,-66.9095 716.696,-62.958 716.378,-69.9507"/>
</g>
<!-- Node4 -->
<g id="node4" class="node"><title>Node4</title>
<g id="a_node4"><a xlink:href="namespaceforcebalance_1_1nifty.html#a2fc81730e7efa7d138dd86f733507bfc" target="_top" xlink:title="Similar to the bultin function map().">
<polygon fill="white" stroke="black" points="516.035,-207 516.035,-227 671.965,-227 671.965,-207 516.035,-207"/>
<text text-anchor="middle" x="594" y="-214" font-family="Ubuntu-R" font-size="10.00">forcebalance.nifty.concurrent_map</text>
</a>
</g>
</g>
<!-- Node3&#45;&gt;Node4 -->
<g id="edge3" class="edge"><title>Node3&#45;&gt;Node4</title>
<path fill="none" stroke="midnightblue" d="M469.858,-212.157C481.191,-212.603 493.393,-213.083 505.557,-213.561"/>
<polygon fill="midnightblue" stroke="midnightblue" points="505.616,-217.066 515.746,-213.962 505.891,-210.072 505.616,-217.066"/>
</g>
<!-- Node6 -->
<g id="node6" class="node"><title>Node6</title>
<g id="a_node6"><a xlink:href="namespaceforcebalance_1_1nifty.html#a25efa4d501ad852a234721af18978f7e" target="_top" xlink:title="Remove the file if it exists (doesn&#39;t return an error).">
<polygon fill="white" stroke="black" points="533.528,-156 533.528,-188 654.472,-188 654.472,-156 533.528,-156"/>
<text text-anchor="start" x="541.528" y="-175" font-family="Ubuntu-R" font-size="10.00">forcebalance.nifty.remove</text>
<text text-anchor="middle" x="594" y="-163" font-family="Ubuntu-R" font-size="10.00">_if_exists</text>
</a>
</g>
</g>
<!-- Node5&#45;&gt;Node6 -->
<g id="edge5" class="edge"><title>Node5&#45;&gt;Node6</title>
<path fill="none" stroke="midnightblue" d="M476.756,-163.51C491.83,-164.611 508.057,-165.796 523.466,-166.922"/>
<polygon fill="midnightblue" stroke="midnightblue" points="523.225,-170.413 533.453,-167.651 523.735,-163.432 523.225,-170.413"/>
</g>
<!-- Node8 -->
<g id="node8" class="node"><title>Node8</title>
<g id="a_node8"><a xlink:href="classforcebalance_1_1gmxio_1_1AbInitio__GMX.html#a6e43c323b2286c546ff8afd3377f8808" target="_top" xlink:title="Computes the energy and force using GROMACS for a trajectory.">
<polygon fill="white" stroke="black" points="522.279,-105 522.279,-137 665.721,-137 665.721,-105 522.279,-105"/>
<text text-anchor="start" x="530.279" y="-124" font-family="Ubuntu-R" font-size="10.00">forcebalance.gmxio.AbInitio</text>
<text text-anchor="middle" x="594" y="-112" font-family="Ubuntu-R" font-size="10.00">_GMX.energy_force_driver_all</text>
</a>
</g>
</g>
<!-- Node7&#45;&gt;Node8 -->
<g id="edge7" class="edge"><title>Node7&#45;&gt;Node8</title>
<path fill="none" stroke="midnightblue" d="M479.766,-108.913C490.344,-110.042 501.418,-111.224 512.323,-112.388"/>
<polygon fill="midnightblue" stroke="midnightblue" points="511.956,-115.869 522.271,-113.45 512.699,-108.909 511.956,-115.869"/>
</g>
<!-- Node7&#45;&gt;Node12 -->
<g id="edge13" class="edge"><title>Node7&#45;&gt;Node12</title>
<path fill="none" stroke="midnightblue" d="M479.834,-96.3159C546.532,-90.4685 649.782,-81.4164 716.126,-75.5999"/>
<polygon fill="midnightblue" stroke="midnightblue" points="716.789,-79.0553 726.445,-74.6952 716.178,-72.082 716.789,-79.0553"/>
</g>
<!-- Node9 -->
<g id="node9" class="node"><title>Node9</title>
<g id="a_node9"><a xlink:href="classforcebalance_1_1gmxio_1_1AbInitio__GMX.html#ae17e3c379d82935d725dd31f01df23e5" target="_top" xlink:title="Call mdrun in order to update the virtual site positions.">
<polygon fill="white" stroke="black" points="708.154,-105 708.154,-137 853.846,-137 853.846,-105 708.154,-105"/>
<text text-anchor="start" x="716.154" y="-124" font-family="Ubuntu-R" font-size="10.00">forcebalance.gmxio.AbInitio</text>
<text text-anchor="middle" x="781" y="-112" font-family="Ubuntu-R" font-size="10.00">_GMX.generate_vsite_positions</text>
</a>
</g>
</g>
<!-- Node8&#45;&gt;Node9 -->
<g id="edge8" class="edge"><title>Node8&#45;&gt;Node9</title>
<path fill="none" stroke="midnightblue" d="M665.732,-121C676.245,-121 687.156,-121 697.878,-121"/>
<polygon fill="midnightblue" stroke="midnightblue" points="698.081,-124.5 708.081,-121 698.081,-117.5 698.081,-124.5"/>
</g>
<!-- Node8&#45;&gt;Node12 -->
<g id="edge12" class="edge"><title>Node8&#45;&gt;Node12</title>
<path fill="none" stroke="midnightblue" d="M653.281,-104.933C673.396,-99.388 696.025,-93.15 716.534,-87.4961"/>
<polygon fill="midnightblue" stroke="midnightblue" points="717.701,-90.8049 726.411,-84.7731 715.841,-84.0567 717.701,-90.8049"/>
</g>
<!-- Node10 -->
<g id="node10" class="node"><title>Node10</title>
<g id="a_node10"><a xlink:href="classforcebalance_1_1gmxio_1_1AbInitio__GMX.html#a1d03ae8104bcecacf96884058f2698af" target="_top" xlink:title="forcebalance.gmxio.AbInitio\l_GMX.__init__">
<polygon fill="white" stroke="black" points="891.243,-19 891.243,-51 1022.76,-51 1022.76,-19 891.243,-19"/>
<text text-anchor="start" x="899.243" y="-38" font-family="Ubuntu-R" font-size="10.00">forcebalance.gmxio.AbInitio</text>
<text text-anchor="middle" x="957" y="-26" font-family="Ubuntu-R" font-size="10.00">_GMX.__init__</text>
</a>
</g>
</g>
<!-- Node9&#45;&gt;Node10 -->
<g id="edge9" class="edge"><title>Node9&#45;&gt;Node10</title>
<path fill="none" stroke="midnightblue" d="M830.527,-104.872C838.473,-101.835 846.542,-98.5032 854,-95 877.866,-83.7895 903.439,-68.739 923.009,-56.5164"/>
<polygon fill="midnightblue" stroke="midnightblue" points="924.963,-59.4218 931.551,-51.1236 921.226,-53.5028 924.963,-59.4218"/>
</g>
<!-- Node11 -->
<g id="node11" class="node"><title>Node11</title>
<g id="a_node11"><a xlink:href="classforcebalance_1_1baseclass_1_1ForceBalanceBaseClass.html#abaaf4d99b043d41f02fabc41db59252b" target="_top" xlink:title="forcebalance.baseclass.Force\lBalanceBaseClass.set_option">
<polygon fill="white" stroke="black" points="890.265,-105 890.265,-137 1023.74,-137 1023.74,-105 890.265,-105"/>
<text text-anchor="start" x="898.265" y="-124" font-family="Ubuntu-R" font-size="10.00">forcebalance.baseclass.Force</text>
<text text-anchor="middle" x="957" y="-112" font-family="Ubuntu-R" font-size="10.00">BalanceBaseClass.set_option</text>
</a>
</g>
</g>
<!-- Node9&#45;&gt;Node11 -->
<g id="edge11" class="edge"><title>Node9&#45;&gt;Node11</title>
<path fill="none" stroke="midnightblue" d="M854.028,-121C862.63,-121 871.433,-121 880.086,-121"/>
<polygon fill="midnightblue" stroke="midnightblue" points="880.156,-124.5 890.156,-121 880.156,-117.5 880.156,-124.5"/>
</g>
<!-- Node10&#45;&gt;Node1 -->
<g id="edge10" class="edge"><title>Node10&#45;&gt;Node1</title>
<path fill="none" stroke="midnightblue" d="M890.968,-24.8765C818.831,-14.5397 698.896,-0 595,-0 413,-0 413,-0 413,-0 318.813,-0 211.73,-18.7254 141.962,-33.4833"/>
<polygon fill="midnightblue" stroke="midnightblue" points="140.99,-30.112 131.945,-35.6292 142.457,-36.9567 140.99,-30.112"/>
</g>
</g>
</svg>
