<?xml version="1.0" encoding="UTF-8" standalone="no"?>
<!DOCTYPE svg PUBLIC "-//W3C//DTD SVG 1.1//EN"
 "http://www.w3.org/Graphics/SVG/1.1/DTD/svg11.dtd">
<!-- Generated by graphviz version 2.40.1 (20161225.0304)
 -->
<!-- Title: src.ffyapf.FF.make_redirect Pages: 1 -->
<svg width="395pt" height="91pt"
 viewBox="0.00 0.00 395.00 91.00" xmlns="http://www.w3.org/2000/svg" xmlns:xlink="http://www.w3.org/1999/xlink">
<g id="graph0" class="graph" transform="scale(1 1) rotate(0) translate(4 87)">
<title>src.ffyapf.FF.make_redirect</title>
<polygon fill="#ffffff" stroke="transparent" points="-4,4 -4,-87 391,-87 391,4 -4,4"/>
<!-- Node44 -->
<g id="node1" class="node">
<title>Node44</title>
<polygon fill="#bfbfbf" stroke="#000000" points="0,-36 0,-66 104,-66 104,-36 0,-36"/>
<text text-anchor="start" x="8" y="-54" font-family="Ubuntu-R" font-size="10.00" fill="#000000">src.ffyapf.FF.make</text>
<text text-anchor="middle" x="52" y="-43" font-family="Ubuntu-R" font-size="10.00" fill="#000000">_redirect</text>
</g>
<!-- Node45 -->
<g id="node2" class="node">
<title>Node45</title>
<g id="a_node2"><a xlink:href="namespacesrc_1_1nifty.html#a6ae2951ba2a22420a11abda6be7e5454" target="_top" xlink:title="src.nifty.warn_press_key">
<polygon fill="#ffffff" stroke="#000000" points="140,-63.5 140,-82.5 277,-82.5 277,-63.5 140,-63.5"/>
<text text-anchor="middle" x="208.5" y="-70.5" font-family="Ubuntu-R" font-size="10.00" fill="#000000">src.nifty.warn_press_key</text>
</a>
</g>
</g>
<!-- Node44&#45;&gt;Node45 -->
<g id="edge1" class="edge">
<title>Node44&#45;&gt;Node45</title>
<path fill="none" stroke="#191970" d="M104.1122,-58.3257C112.64,-59.5245 121.6357,-60.789 130.6248,-62.0527"/>
<polygon fill="#191970" stroke="#191970" points="130.3558,-65.5492 140.7457,-63.4754 131.3303,-58.6174 130.3558,-65.5492"/>
</g>
<!-- Node46 -->
<g id="node3" class="node">
<title>Node46</title>
<g id="a_node3"><a xlink:href="classsrc_1_1ffyapf_1_1FF.html#a349f2f0f401834f86f9361d8ec32ad0a" target="_top" xlink:title="Converts mathematical to physical parameters. ">
<polygon fill="#ffffff" stroke="#000000" points="155,-14 155,-44 262,-44 262,-14 155,-14"/>
<text text-anchor="start" x="163" y="-32" font-family="Ubuntu-R" font-size="10.00" fill="#000000">src.ffyapf.FF.create</text>
<text text-anchor="middle" x="208.5" y="-21" font-family="Ubuntu-R" font-size="10.00" fill="#000000">_pvals</text>
</a>
</g>
</g>
<!-- Node44&#45;&gt;Node46 -->
<g id="edge2" class="edge">
<title>Node44&#45;&gt;Node46</title>
<path fill="none" stroke="#191970" d="M104.1122,-43.6743C117.079,-41.8515 131.1275,-39.8766 144.5898,-37.9842"/>
<polygon fill="#191970" stroke="#191970" points="145.3271,-41.415 154.7425,-36.557 144.3526,-34.4832 145.3271,-41.415"/>
</g>
<!-- Node47 -->
<g id="node4" class="node">
<title>Node47</title>
<g id="a_node4"><a xlink:href="namespacesrc_1_1nifty.html#ac5b7efc0b11b4fcbb7d0c37c97c4399d" target="_top" xlink:title="Given any list, array, or matrix, return a single&#45;index array. ">
<polygon fill="#ffffff" stroke="#000000" points="313,-38.5 313,-57.5 387,-57.5 387,-38.5 313,-38.5"/>
<text text-anchor="middle" x="350" y="-45.5" font-family="Ubuntu-R" font-size="10.00" fill="#000000">src.nifty.flat</text>
</a>
</g>
</g>
<!-- Node46&#45;&gt;Node47 -->
<g id="edge3" class="edge">
<title>Node46&#45;&gt;Node47</title>
<path fill="none" stroke="#191970" d="M262.3987,-36.2373C275.7101,-38.0247 289.8665,-39.9255 302.8303,-41.6663"/>
<polygon fill="#191970" stroke="#191970" points="302.5554,-45.1607 312.9323,-43.0227 303.4871,-38.2229 302.5554,-45.1607"/>
</g>
<!-- Node48 -->
<g id="node5" class="node">
<title>Node48</title>
<g id="a_node5"><a xlink:href="namespacesrc_1_1nifty.html#a9548285fa85a369d98169ec25abe974c" target="_top" xlink:title="Given any list, array, or matrix, return a 1&#45;column 2D array. ">
<polygon fill="#ffffff" stroke="#000000" points="314,-.5 314,-19.5 386,-19.5 386,-.5 314,-.5"/>
<text text-anchor="middle" x="350" y="-7.5" font-family="Ubuntu-R" font-size="10.00" fill="#000000">src.nifty.col</text>
</a>
</g>
</g>
<!-- Node46&#45;&gt;Node48 -->
<g id="edge4" class="edge">
<title>Node46&#45;&gt;Node48</title>
<path fill="none" stroke="#191970" d="M262.3987,-21.7627C275.9566,-19.9422 290.3911,-18.004 303.5492,-16.2372"/>
<polygon fill="#191970" stroke="#191970" points="304.3418,-19.6623 313.787,-14.8625 303.4101,-12.7246 304.3418,-19.6623"/>
</g>
</g>
</svg>
