<?xml version="1.0" encoding="UTF-8" standalone="no"?>
<!DOCTYPE svg PUBLIC "-//W3C//DTD SVG 1.1//EN"
 "http://www.w3.org/Graphics/SVG/1.1/DTD/svg11.dtd">
<!-- Generated by graphviz version 2.32.0 (20130801.1845)
 -->
<!-- Title: forcebalance.target.Target.get Pages: 1 -->
<svg width="510pt" height="28pt"
 viewBox="0.00 0.00 510.00 28.00" xmlns="http://www.w3.org/2000/svg" xmlns:xlink="http://www.w3.org/1999/xlink">
<g id="graph0" class="graph" transform="scale(1 1) rotate(0) translate(4 24)">
<title>forcebalance.target.Target.get</title>
<polygon fill="white" stroke="white" points="-4,5 -4,-24 507,-24 507,5 -4,5"/>
<!-- Node1 -->
<g id="node1" class="node"><title>Node1</title>
<polygon fill="#bfbfbf" stroke="black" points="0.1755,-0 0.1755,-20 135.825,-20 135.825,-0 0.1755,-0"/>
<text text-anchor="middle" x="68" y="-7" font-family="Ubuntu-R" font-size="10.00">forcebalance.target.Target.get</text>
</g>
<!-- Node2 -->
<g id="node2" class="node"><title>Node2</title>
<g id="a_node2"><a xlink:href="namespaceforcebalance_1_1optimizer.html#ae1f6c649703a22b2f767a5f6bf53297b" target="_top" xlink:title="forcebalance.optimizer.Counter">
<polygon fill="white" stroke="black" points="172.695,-0 172.695,-20 315.305,-20 315.305,-0 172.695,-0"/>
<text text-anchor="middle" x="244" y="-7" font-family="Ubuntu-R" font-size="10.00">forcebalance.optimizer.Counter</text>
</a>
</g>
</g>
<!-- Node1&#45;&gt;Node2 -->
<g id="edge1" class="edge"><title>Node1&#45;&gt;Node2</title>
<path fill="none" stroke="midnightblue" d="M136.273,-10C144.796,-10 153.586,-10 162.291,-10"/>
<polygon fill="midnightblue" stroke="midnightblue" points="162.451,-13.5001 172.451,-10 162.451,-6.5001 162.451,-13.5001"/>
</g>
<!-- Node3 -->
<g id="node3" class="node"><title>Node3</title>
<g id="a_node3"><a xlink:href="namespaceforcebalance_1_1optimizer.html#ab43948ecf30c90d319e0c0b107fe484a" target="_top" xlink:title="forcebalance.optimizer.GoodStep">
<polygon fill="white" stroke="black" points="351.805,-0 351.805,-20 502.195,-20 502.195,-0 351.805,-0"/>
<text text-anchor="middle" x="427" y="-7" font-family="Ubuntu-R" font-size="10.00">forcebalance.optimizer.GoodStep</text>
</a>
</g>
</g>
<!-- Node2&#45;&gt;Node3 -->
<g id="edge2" class="edge"><title>Node2&#45;&gt;Node3</title>
<path fill="none" stroke="midnightblue" d="M315.498,-10C323.988,-10 332.725,-10 341.39,-10"/>
<polygon fill="midnightblue" stroke="midnightblue" points="341.509,-13.5001 351.509,-10 341.509,-6.5001 341.509,-13.5001"/>
</g>
</g>
</svg>
