<?xml version="1.0" encoding="UTF-8" standalone="no"?>
<!DOCTYPE svg PUBLIC "-//W3C//DTD SVG 1.1//EN"
 "http://www.w3.org/Graphics/SVG/1.1/DTD/svg11.dtd">
<!-- Generated by graphviz version 2.28.0 (20111219.2309)
 -->
<!-- Title: G Pages: 1 -->
<svg width="632pt" height="28pt"
 viewBox="0.00 0.00 632.00 28.00" xmlns="http://www.w3.org/2000/svg" xmlns:xlink="http://www.w3.org/1999/xlink">
<g id="graph1" class="graph" transform="scale(1 1) rotate(0) translate(4 24)">
<title>G</title>
<polygon fill="white" stroke="white" points="-4,5 -4,-24 629,-24 629,5 -4,5"/>
<!-- Node1 -->
<g id="node1" class="node"><title>Node1</title>
<polygon fill="#bfbfbf" stroke="black" points="0,-0.5 0,-19.5 230,-19.5 230,-0.5 0,-0.5"/>
<text text-anchor="middle" x="115" y="-7.5" font-family="Ubuntu-R" font-size="10.00">forcebalance.gmxio.Interaction_GMX.__init__</text>
</g>
<!-- Node2 -->
<g id="node3" class="node"><title>Node2</title>
<a xlink:href="namespaceforcebalance_1_1nifty.html#ab182a9da2a2f42cf45942fbee6acf9b1" target="_top" xlink:title="forcebalance.nifty.LinkFile">
<polygon fill="white" stroke="black" points="266.5,-0.5 266.5,-19.5 403.5,-19.5 403.5,-0.5 266.5,-0.5"/>
<text text-anchor="middle" x="335" y="-7.5" font-family="Ubuntu-R" font-size="10.00">forcebalance.nifty.LinkFile</text>
</a>
</g>
<!-- Node1&#45;&gt;Node2 -->
<g id="edge2" class="edge"><title>Node1&#45;&gt;Node2</title>
<path fill="none" stroke="midnightblue" d="M230.108,-10C238.896,-10 247.641,-10 256.112,-10"/>
<polygon fill="midnightblue" stroke="midnightblue" points="256.293,-13.5001 266.293,-10 256.293,-6.5001 256.293,-13.5001"/>
</g>
<!-- Node3 -->
<g id="node5" class="node"><title>Node3</title>
<a xlink:href="namespaceforcebalance_1_1nifty.html#a25efa4d501ad852a234721af18978f7e" target="_top" xlink:title="Remove the file if it exists (doesn&#39;t return an error).">
<polygon fill="white" stroke="black" points="440.5,-0.5 440.5,-19.5 623.5,-19.5 623.5,-0.5 440.5,-0.5"/>
<text text-anchor="middle" x="532" y="-7.5" font-family="Ubuntu-R" font-size="10.00">forcebalance.nifty.remove_if_exists</text>
</a>
</g>
<!-- Node2&#45;&gt;Node3 -->
<g id="edge4" class="edge"><title>Node2&#45;&gt;Node3</title>
<path fill="none" stroke="midnightblue" d="M403.654,-10C412.286,-10 421.263,-10 430.277,-10"/>
<polygon fill="midnightblue" stroke="midnightblue" points="430.453,-13.5001 440.453,-10 430.453,-6.5001 430.453,-13.5001"/>
</g>
</g>
</svg>
