<?xml version="1.0" encoding="UTF-8" standalone="no"?>
<!DOCTYPE svg PUBLIC "-//W3C//DTD SVG 1.1//EN"
 "http://www.w3.org/Graphics/SVG/1.1/DTD/svg11.dtd">
<!-- Generated by graphviz version 2.28.0 (20111219.2309)
 -->
<!-- Title: G Pages: 1 -->
<svg width="174pt" height="140pt"
 viewBox="0.00 0.00 174.00 140.00" xmlns="http://www.w3.org/2000/svg" xmlns:xlink="http://www.w3.org/1999/xlink">
<g id="graph1" class="graph" transform="scale(1 1) rotate(0) translate(4 136)">
<title>G</title>
<polygon fill="white" stroke="white" points="-4,5 -4,-136 171,-136 171,5 -4,5"/>
<!-- Node1 -->
<g id="node1" class="node"><title>Node1</title>
<polygon fill="#bfbfbf" stroke="black" points="-1,-0.5 -1,-19.5 167,-19.5 167,-0.5 -1,-0.5"/>
<text text-anchor="middle" x="83" y="-7.5" font-family="Ubuntu-R" font-size="10.00">forcebalance.vibration.Vibration</text>
</g>
<!-- Node2 -->
<g id="node2" class="node"><title>Node2</title>
<a xlink:href="classforcebalance_1_1target_1_1Target.html" target="_top" xlink:title="Base class for all fitting targets.">
<polygon fill="white" stroke="black" points="11.5,-56.5 11.5,-75.5 154.5,-75.5 154.5,-56.5 11.5,-56.5"/>
<text text-anchor="middle" x="83" y="-63.5" font-family="Ubuntu-R" font-size="10.00">forcebalance.target.Target</text>
</a>
</g>
<!-- Node2&#45;&gt;Node1 -->
<g id="edge2" class="edge"><title>Node2&#45;&gt;Node1</title>
<path fill="none" stroke="midnightblue" d="M83,-45.8045C83,-36.9102 83,-26.7798 83,-19.7511"/>
<polygon fill="midnightblue" stroke="midnightblue" points="79.5001,-46.083 83,-56.083 86.5001,-46.083 79.5001,-46.083"/>
</g>
<!-- Node3 -->
<g id="node4" class="node"><title>Node3</title>
<a xlink:href="classforcebalance_1_1BaseClass.html" target="_top" xlink:title="Provides some nifty functions that are common to all ForceBalance classes.">
<polygon fill="white" stroke="black" points="17.5,-112.5 17.5,-131.5 148.5,-131.5 148.5,-112.5 17.5,-112.5"/>
<text text-anchor="middle" x="83" y="-119.5" font-family="Ubuntu-R" font-size="10.00">forcebalance.BaseClass</text>
</a>
</g>
<!-- Node3&#45;&gt;Node2 -->
<g id="edge4" class="edge"><title>Node3&#45;&gt;Node2</title>
<path fill="none" stroke="midnightblue" d="M83,-101.805C83,-92.9102 83,-82.7798 83,-75.7511"/>
<polygon fill="midnightblue" stroke="midnightblue" points="79.5001,-102.083 83,-112.083 86.5001,-102.083 79.5001,-102.083"/>
</g>
</g>
</svg>
