<?xml version="1.0" encoding="UTF-8" standalone="no"?>
<!DOCTYPE svg PUBLIC "-//W3C//DTD SVG 1.1//EN"
 "http://www.w3.org/Graphics/SVG/1.1/DTD/svg11.dtd">
<!-- Generated by graphviz version 2.26.3 (20100126.1600)
 -->
<!-- Title: forcebalance.target.Target.get Pages: 1 -->
<svg width="584pt" height="30pt"
 viewBox="0.00 0.00 584.00 30.00" xmlns="http://www.w3.org/2000/svg" xmlns:xlink="http://www.w3.org/1999/xlink">
<g id="graph1" class="graph" transform="scale(1 1) rotate(0) translate(4 26)">
<title>forcebalance.target.Target.get</title>
<polygon fill="white" stroke="white" points="-4,5 -4,-26 581,-26 581,5 -4,5"/>
<!-- Node1 -->
<g id="node1" class="node"><title>Node1</title>
<polygon fill="#bfbfbf" stroke="black" points="0.5,-0.5 0.5,-21.5 161.5,-21.5 161.5,-0.5 0.5,-0.5"/>
<text text-anchor="middle" x="81" y="-8.5" font-family="Ubuntu-R" font-size="10.00">forcebalance.target.Target.get</text>
</g>
<!-- Node2 -->
<g id="node3" class="node"><title>Node2</title>
<a xlink:href="namespaceforcebalance_1_1optimizer.html#ae1f6c649703a22b2f767a5f6bf53297b" target="_top" xlink:title="forcebalance.optimizer.Counter">
<polygon fill="white" stroke="black" points="198,-0.5 198,-21.5 364,-21.5 364,-0.5 198,-0.5"/>
<text text-anchor="middle" x="281" y="-8.5" font-family="Ubuntu-R" font-size="10.00">forcebalance.optimizer.Counter</text>
</a>
</g>
<!-- Node1&#45;&gt;Node2 -->
<g id="edge2" class="edge"><title>Node1&#45;&gt;Node2</title>
<path fill="none" stroke="midnightblue" d="M161.771,-11C170.343,-11 179.11,-11 187.808,-11"/>
<polygon fill="midnightblue" stroke="midnightblue" points="187.972,-14.5001 197.971,-11 187.971,-7.5001 187.972,-14.5001"/>
</g>
<!-- Node3 -->
<g id="node5" class="node"><title>Node3</title>
<a xlink:href="namespaceforcebalance_1_1optimizer.html#ab43948ecf30c90d319e0c0b107fe484a" target="_top" xlink:title="forcebalance.optimizer.GoodStep">
<polygon fill="white" stroke="black" points="400,-0.5 400,-21.5 576,-21.5 576,-0.5 400,-0.5"/>
<text text-anchor="middle" x="488" y="-8.5" font-family="Ubuntu-R" font-size="10.00">forcebalance.optimizer.GoodStep</text>
</a>
</g>
<!-- Node2&#45;&gt;Node3 -->
<g id="edge4" class="edge"><title>Node2&#45;&gt;Node3</title>
<path fill="none" stroke="midnightblue" d="M364.002,-11C372.491,-11 381.171,-11 389.802,-11"/>
<polygon fill="midnightblue" stroke="midnightblue" points="389.897,-14.5001 399.897,-11 389.897,-7.5001 389.897,-14.5001"/>
</g>
</g>
</svg>
