<?xml version="1.0" encoding="UTF-8" standalone="no"?>
<!DOCTYPE svg PUBLIC "-//W3C//DTD SVG 1.1//EN"
 "http://www.w3.org/Graphics/SVG/1.1/DTD/svg11.dtd">
<!-- Generated by graphviz version 2.26.3 (20100126.1600)
 -->
<!-- Title: forcebalance.target.Target.stage Pages: 1 -->
<svg width="838pt" height="591pt"
 viewBox="0.00 0.00 838.00 591.05" xmlns="http://www.w3.org/2000/svg" xmlns:xlink="http://www.w3.org/1999/xlink">
<g id="graph1" class="graph" transform="scale(1 1) rotate(0) translate(4 587.054)">
<title>forcebalance.target.Target.stage</title>
<polygon fill="white" stroke="white" points="-4,5 -4,-587.054 835,-587.054 835,5 -4,5"/>
<!-- Node1 -->
<g id="node1" class="node"><title>Node1</title>
<polygon fill="#bfbfbf" stroke="black" points="0.5,-273.554 0.5,-294.554 173.5,-294.554 173.5,-273.554 0.5,-273.554"/>
<text text-anchor="middle" x="87" y="-281.554" font-family="Ubuntu-R" font-size="10.00">forcebalance.target.Target.stage</text>
</g>
<!-- Node2 -->
<g id="node3" class="node"><title>Node2</title>
<a xlink:href="namespaceforcebalance_1_1optimizer.html#ae1f6c649703a22b2f767a5f6bf53297b" target="_top" xlink:title="forcebalance.optimizer.Counter">
<polygon fill="white" stroke="black" points="450.5,-445.554 450.5,-466.554 617.5,-466.554 617.5,-445.554 450.5,-445.554"/>
<text text-anchor="middle" x="534" y="-453.554" font-family="Ubuntu-R" font-size="10.00">forcebalance.optimizer.Counter</text>
</a>
</g>
<!-- Node1&#45;&gt;Node2 -->
<g id="edge2" class="edge"><title>Node1&#45;&gt;Node2</title>
<path fill="none" stroke="midnightblue" d="M94.1186,-294.758C110.982,-319.145 156.025,-378.826 210,-406.054 281.656,-442.203 372.677,-453.699 439.988,-456.733"/>
<polygon fill="midnightblue" stroke="midnightblue" points="440.03,-460.237 450.16,-457.135 440.307,-453.242 440.03,-460.237"/>
</g>
<!-- Node3 -->
<g id="node5" class="node"><title>Node3</title>
<a xlink:href="classforcebalance_1_1target_1_1Target.html#a5aa4958cea0a48138511567a076c5a82" target="_top" xlink:title="forcebalance.target.Target.link\l_from_tempdir">
<polygon fill="white" stroke="black" points="231.5,-267.054 231.5,-301.054 392.5,-301.054 392.5,-267.054 231.5,-267.054"/>
<text text-anchor="start" x="239.5" y="-288.054" font-family="Ubuntu-R" font-size="10.00">forcebalance.target.Target.link</text>
<text text-anchor="middle" x="312" y="-275.054" font-family="Ubuntu-R" font-size="10.00">_from_tempdir</text>
</a>
</g>
<!-- Node1&#45;&gt;Node3 -->
<g id="edge4" class="edge"><title>Node1&#45;&gt;Node3</title>
<path fill="none" stroke="midnightblue" d="M173.669,-284.054C189.206,-284.054 205.439,-284.054 221.091,-284.054"/>
<polygon fill="midnightblue" stroke="midnightblue" points="221.281,-287.554 231.281,-284.054 221.281,-280.554 221.281,-287.554"/>
</g>
<!-- Node5 -->
<g id="node9" class="node"><title>Node5</title>
<a xlink:href="namespaceforcebalance_1_1finite__difference.html#a978c262bfab74a29143808b7562ab61b" target="_top" xlink:title="Invoking this function from anywhere will tell us whether we&#39;re being called by a finite&#45;difference f...">
<polygon fill="white" stroke="black" points="252,-215.054 252,-249.054 372,-249.054 372,-215.054 252,-215.054"/>
<text text-anchor="start" x="260" y="-236.054" font-family="Ubuntu-R" font-size="10.00">forcebalance.finite</text>
<text text-anchor="middle" x="312" y="-223.054" font-family="Ubuntu-R" font-size="10.00">_difference.in_fd_srch</text>
</a>
</g>
<!-- Node1&#45;&gt;Node5 -->
<g id="edge8" class="edge"><title>Node1&#45;&gt;Node5</title>
<path fill="none" stroke="midnightblue" d="M132.532,-273.531C163.871,-266.289 206.111,-256.527 241.739,-248.293"/>
<polygon fill="midnightblue" stroke="midnightblue" points="242.643,-251.676 251.598,-246.014 241.066,-244.856 242.643,-251.676"/>
</g>
<!-- Node6 -->
<g id="node11" class="node"><title>Node6</title>
<a xlink:href="classforcebalance_1_1target_1_1Target.html#a09bb0e8350a17974c908a9728b2709bf" target="_top" xlink:title="Read a file from the target directory containing names of parameters that don&#39;t contribute to the gra...">
<polygon fill="white" stroke="black" points="228.5,-163.054 228.5,-197.054 395.5,-197.054 395.5,-163.054 228.5,-163.054"/>
<text text-anchor="start" x="236.5" y="-184.054" font-family="Ubuntu-R" font-size="10.00">forcebalance.target.Target.read</text>
<text text-anchor="middle" x="312" y="-171.054" font-family="Ubuntu-R" font-size="10.00">_0grads</text>
</a>
</g>
<!-- Node1&#45;&gt;Node6 -->
<g id="edge10" class="edge"><title>Node1&#45;&gt;Node6</title>
<path fill="none" stroke="midnightblue" d="M100.578,-273.389C122.429,-256.718 167.281,-224.488 210,-206.054 214.703,-204.025 219.6,-202.128 224.59,-200.359"/>
<polygon fill="midnightblue" stroke="midnightblue" points="225.907,-203.609 234.278,-197.114 223.684,-196.972 225.907,-203.609"/>
</g>
<!-- Node7 -->
<g id="node13" class="node"><title>Node7</title>
<a xlink:href="namespaceforcebalance_1_1optimizer.html#a1b6394e430a899f19957694a173e9150" target="_top" xlink:title="forcebalance.optimizer.First">
<polygon fill="white" stroke="black" points="460,-561.554 460,-582.554 608,-582.554 608,-561.554 460,-561.554"/>
<text text-anchor="middle" x="534" y="-569.554" font-family="Ubuntu-R" font-size="10.00">forcebalance.optimizer.First</text>
</a>
</g>
<!-- Node1&#45;&gt;Node7 -->
<g id="edge12" class="edge"><title>Node1&#45;&gt;Node7</title>
<path fill="none" stroke="midnightblue" d="M92.4278,-294.598C107.407,-322.732 152.08,-400.404 210,-444.054 291.599,-505.55 406.602,-541.625 475.385,-559.049"/>
<polygon fill="midnightblue" stroke="midnightblue" points="474.639,-562.47 485.188,-561.485 476.327,-555.677 474.639,-562.47"/>
</g>
<!-- Node8 -->
<g id="node15" class="node"><title>Node8</title>
<a xlink:href="classforcebalance_1_1lipid_1_1Lipid.html#a245fcbc89c3f2f83200843a8d2578423" target="_top" xlink:title="forcebalance.lipid.Lipid.submit_jobs">
<polygon fill="white" stroke="black" points="219.5,-375.554 219.5,-396.554 404.5,-396.554 404.5,-375.554 219.5,-375.554"/>
<text text-anchor="middle" x="312" y="-383.554" font-family="Ubuntu-R" font-size="10.00">forcebalance.lipid.Lipid.submit_jobs</text>
</a>
</g>
<!-- Node1&#45;&gt;Node8 -->
<g id="edge14" class="edge"><title>Node1&#45;&gt;Node8</title>
<path fill="none" stroke="midnightblue" d="M104.902,-294.787C128.466,-308.65 171.427,-333.019 210,-350.054 228.784,-358.35 250.131,-366.127 268.424,-372.315"/>
<polygon fill="midnightblue" stroke="midnightblue" points="267.365,-375.651 277.959,-375.491 269.578,-369.01 267.365,-375.651"/>
</g>
<!-- Node17 -->
<g id="node38" class="node"><title>Node17</title>
<a xlink:href="classforcebalance_1_1liquid_1_1Liquid.html#a716e28bb5572b3273036ac753b7e1e1d" target="_top" xlink:title="forcebalance.liquid.Liquid.submit_jobs">
<polygon fill="white" stroke="black" points="213.5,-319.554 213.5,-340.554 410.5,-340.554 410.5,-319.554 213.5,-319.554"/>
<text text-anchor="middle" x="312" y="-327.554" font-family="Ubuntu-R" font-size="10.00">forcebalance.liquid.Liquid.submit_jobs</text>
</a>
</g>
<!-- Node1&#45;&gt;Node17 -->
<g id="edge42" class="edge"><title>Node1&#45;&gt;Node17</title>
<path fill="none" stroke="midnightblue" d="M136.045,-294.594C158.561,-299.388 185.619,-305.088 210,-310.054 222.139,-312.527 235.102,-315.112 247.574,-317.571"/>
<polygon fill="midnightblue" stroke="midnightblue" points="246.96,-321.017 257.447,-319.511 248.31,-314.148 246.96,-321.017"/>
</g>
<!-- Node20 -->
<g id="node56" class="node"><title>Node20</title>
<a xlink:href="classforcebalance_1_1psi4io_1_1RDVR3__Psi4.html#a728adb334e4ad6e26200c265fc2f351a" target="_top" xlink:title="Create a grid file and a psi4 input file in the absolute path and submit it to the work queue...">
<polygon fill="white" stroke="black" points="240,-111.054 240,-145.054 384,-145.054 384,-111.054 240,-111.054"/>
<text text-anchor="start" x="248" y="-132.054" font-family="Ubuntu-R" font-size="10.00">forcebalance.psi4io.RDVR3</text>
<text text-anchor="middle" x="312" y="-119.054" font-family="Ubuntu-R" font-size="10.00">_Psi4.submit_jobs</text>
</a>
</g>
<!-- Node1&#45;&gt;Node20 -->
<g id="edge72" class="edge"><title>Node1&#45;&gt;Node20</title>
<path fill="none" stroke="midnightblue" d="M93.8869,-273.387C110.59,-248.411 155.89,-185.855 210,-154.054 216.282,-150.362 223.082,-147.189 230.086,-144.464"/>
<polygon fill="midnightblue" stroke="midnightblue" points="231.494,-147.678 239.734,-141.018 229.139,-141.086 231.494,-147.678"/>
</g>
<!-- Node21 -->
<g id="node58" class="node"><title>Node21</title>
<a xlink:href="classforcebalance_1_1target_1_1Target.html#a78cd29b94cbcc201eed99c78aaef46a4" target="_top" xlink:title="forcebalance.target.Target.submit_jobs">
<polygon fill="white" stroke="black" points="210.5,-71.5544 210.5,-92.5544 413.5,-92.5544 413.5,-71.5544 210.5,-71.5544"/>
<text text-anchor="middle" x="312" y="-79.5544" font-family="Ubuntu-R" font-size="10.00">forcebalance.target.Target.submit_jobs</text>
</a>
</g>
<!-- Node1&#45;&gt;Node21 -->
<g id="edge74" class="edge"><title>Node1&#45;&gt;Node21</title>
<path fill="none" stroke="midnightblue" d="M90.847,-273.28C102.857,-241.316 142.915,-146.492 210,-102.054 212.948,-100.102 216.042,-98.3309 219.242,-96.7253"/>
<polygon fill="midnightblue" stroke="midnightblue" points="220.783,-99.8712 228.512,-92.6249 217.951,-93.4696 220.783,-99.8712"/>
</g>
<!-- Node4 -->
<g id="node7" class="node"><title>Node4</title>
<a xlink:href="namespaceforcebalance_1_1nifty.html#a0cf4e58f90acf20e3d6224be2354082c" target="_top" xlink:title="forcebalance.nifty.link\l_dir_contents">
<polygon fill="white" stroke="black" points="682.5,-41.0544 682.5,-75.0544 801.5,-75.0544 801.5,-41.0544 682.5,-41.0544"/>
<text text-anchor="start" x="690.5" y="-62.0544" font-family="Ubuntu-R" font-size="10.00">forcebalance.nifty.link</text>
<text text-anchor="middle" x="742" y="-49.0544" font-family="Ubuntu-R" font-size="10.00">_dir_contents</text>
</a>
</g>
<!-- Node3&#45;&gt;Node4 -->
<g id="edge6" class="edge"><title>Node3&#45;&gt;Node4</title>
<path fill="none" stroke="midnightblue" d="M392.878,-273.287C400.807,-269.499 408.088,-264.534 414,-258.054 482.551,-182.916 372.629,-98.076 450,-32.0544 519.784,27.493 636.056,-9.70236 698.758,-36.9294"/>
<polygon fill="midnightblue" stroke="midnightblue" points="697.418,-40.1639 707.978,-41.0293 700.262,-33.7678 697.418,-40.1639"/>
</g>
<!-- Node8&#45;&gt;Node2 -->
<g id="edge20" class="edge"><title>Node8&#45;&gt;Node2</title>
<path fill="none" stroke="midnightblue" d="M338.413,-396.642C365.97,-407.447 410.572,-424.26 450,-436.054 458.155,-438.494 466.825,-440.835 475.38,-443.002"/>
<polygon fill="midnightblue" stroke="midnightblue" points="474.785,-446.46 485.333,-445.46 476.464,-439.664 474.785,-446.46"/>
</g>
<!-- Node8&#45;&gt;Node7 -->
<g id="edge22" class="edge"><title>Node8&#45;&gt;Node7</title>
<path fill="none" stroke="midnightblue" d="M319.928,-396.805C344.109,-429.339 417.267,-525.809 450,-547.054 456.805,-551.471 464.42,-555.133 472.211,-558.162"/>
<polygon fill="midnightblue" stroke="midnightblue" points="471.165,-561.505 481.76,-561.552 473.507,-554.908 471.165,-561.505"/>
</g>
<!-- Node9 -->
<g id="node17" class="node"><title>Node9</title>
<a xlink:href="namespaceforcebalance_1_1nifty.html#a185aa094549d280fdc18479459980164" target="_top" xlink:title="If trying to write to a symbolic link, remove it first. ">
<polygon fill="white" stroke="black" points="467,-405.554 467,-426.554 601,-426.554 601,-405.554 467,-405.554"/>
<text text-anchor="middle" x="534" y="-413.554" font-family="Ubuntu-R" font-size="10.00">forcebalance.nifty.wopen</text>
</a>
</g>
<!-- Node8&#45;&gt;Node9 -->
<g id="edge16" class="edge"><title>Node8&#45;&gt;Node9</title>
<path fill="none" stroke="midnightblue" d="M389.957,-396.589C411.636,-399.519 435.165,-402.698 456.8,-405.622"/>
<polygon fill="midnightblue" stroke="midnightblue" points="456.543,-409.119 466.922,-406.99 457.48,-402.182 456.543,-409.119"/>
</g>
<!-- Node10 -->
<g id="node19" class="node"><title>Node10</title>
<a xlink:href="namespaceforcebalance_1_1nifty.html#a2ff762a2f2d2b6bb1c7dd067bd1a1e88" target="_top" xlink:title="Use this instead of pickle.dump for pickling anything that contains _ElementTree types. ">
<polygon fill="white" stroke="black" points="462,-365.554 462,-386.554 606,-386.554 606,-365.554 462,-365.554"/>
<text text-anchor="middle" x="534" y="-373.554" font-family="Ubuntu-R" font-size="10.00">forcebalance.nifty.lp_dump</text>
</a>
</g>
<!-- Node8&#45;&gt;Node10 -->
<g id="edge18" class="edge"><title>Node8&#45;&gt;Node10</title>
<path fill="none" stroke="midnightblue" d="M404.54,-381.886C420.253,-381.178 436.474,-380.447 451.895,-379.753"/>
<polygon fill="midnightblue" stroke="midnightblue" points="452.067,-383.249 461.9,-379.302 451.752,-376.256 452.067,-383.249"/>
</g>
<!-- Node11 -->
<g id="node23" class="node"><title>Node11</title>
<a xlink:href="namespaceforcebalance_1_1nifty.html#abb8f59044961a12588e0653c2baa8b01" target="_top" xlink:title="forcebalance.nifty.warn\l_press_key">
<polygon fill="white" stroke="black" points="679.5,-177.054 679.5,-211.054 804.5,-211.054 804.5,-177.054 679.5,-177.054"/>
<text text-anchor="start" x="687.5" y="-198.054" font-family="Ubuntu-R" font-size="10.00">forcebalance.nifty.warn</text>
<text text-anchor="middle" x="742" y="-185.054" font-family="Ubuntu-R" font-size="10.00">_press_key</text>
</a>
</g>
<!-- Node8&#45;&gt;Node11 -->
<g id="edge24" class="edge"><title>Node8&#45;&gt;Node11</title>
<path fill="none" stroke="midnightblue" d="M324.392,-396.768C369.242,-434.225 525.32,-552.972 618,-476.054 684.809,-420.608 613.927,-361.073 654,-284.054 667.652,-257.815 691.468,-234.163 710.883,-217.698"/>
<polygon fill="midnightblue" stroke="midnightblue" points="713.135,-220.378 718.62,-211.314 708.679,-214.979 713.135,-220.378"/>
</g>
<!-- Node12 -->
<g id="node25" class="node"><title>Node12</title>
<a xlink:href="namespaceforcebalance_1_1optimizer.html#ab43948ecf30c90d319e0c0b107fe484a" target="_top" xlink:title="forcebalance.optimizer.GoodStep">
<polygon fill="white" stroke="black" points="654,-293.554 654,-314.554 830,-314.554 830,-293.554 654,-293.554"/>
<text text-anchor="middle" x="742" y="-301.554" font-family="Ubuntu-R" font-size="10.00">forcebalance.optimizer.GoodStep</text>
</a>
</g>
<!-- Node8&#45;&gt;Node12 -->
<g id="edge26" class="edge"><title>Node8&#45;&gt;Node12</title>
<path fill="none" stroke="midnightblue" d="M319.467,-396.705C338.017,-422.108 389.118,-485.86 450,-509.054 519.775,-535.636 552.959,-545.726 618,-509.054 689.813,-468.564 724.756,-367.887 736.874,-324.492"/>
<polygon fill="midnightblue" stroke="midnightblue" points="740.273,-325.33 739.471,-314.765 733.51,-323.523 740.273,-325.33"/>
</g>
<!-- Node13 -->
<g id="node27" class="node"><title>Node13</title>
<a xlink:href="classforcebalance_1_1gmxio_1_1Liquid__GMX.html#a4f844facdd6963b7981cc9e1cf3dc750" target="_top" xlink:title="Submit a NPT simulation to the Work Queue. ">
<polygon fill="white" stroke="black" points="463.5,-261.054 463.5,-295.054 604.5,-295.054 604.5,-261.054 463.5,-261.054"/>
<text text-anchor="start" x="471.5" y="-282.054" font-family="Ubuntu-R" font-size="10.00">forcebalance.gmxio.Liquid</text>
<text text-anchor="middle" x="534" y="-269.054" font-family="Ubuntu-R" font-size="10.00">_GMX.npt_simulation</text>
</a>
</g>
<!-- Node8&#45;&gt;Node13 -->
<g id="edge28" class="edge"><title>Node8&#45;&gt;Node13</title>
<path fill="none" stroke="midnightblue" d="M359.111,-375.501C377.377,-369.915 397.758,-361.724 414,-350.054 435.083,-334.906 428.624,-318.787 450,-304.054 452.145,-302.576 454.377,-301.18 456.675,-299.86"/>
<polygon fill="midnightblue" stroke="midnightblue" points="458.537,-302.838 465.821,-295.145 455.329,-296.616 458.537,-302.838"/>
</g>
<!-- Node14 -->
<g id="node30" class="node"><title>Node14</title>
<a xlink:href="classforcebalance_1_1gmxio_1_1Lipid__GMX.html#a96b5ec8ce3421a14841f76ac21b55958" target="_top" xlink:title="Submit a NPT simulation to the Work Queue. ">
<polygon fill="white" stroke="black" points="466.5,-313.054 466.5,-347.054 601.5,-347.054 601.5,-313.054 466.5,-313.054"/>
<text text-anchor="start" x="474.5" y="-334.054" font-family="Ubuntu-R" font-size="10.00">forcebalance.gmxio.Lipid</text>
<text text-anchor="middle" x="534" y="-321.054" font-family="Ubuntu-R" font-size="10.00">_GMX.npt_simulation</text>
</a>
</g>
<!-- Node8&#45;&gt;Node14 -->
<g id="edge32" class="edge"><title>Node8&#45;&gt;Node14</title>
<path fill="none" stroke="midnightblue" d="M353.757,-375.521C382.564,-368.254 421.733,-358.374 456.198,-349.68"/>
<polygon fill="midnightblue" stroke="midnightblue" points="457.412,-352.983 466.253,-347.144 455.7,-346.196 457.412,-352.983"/>
</g>
<!-- Node15 -->
<g id="node33" class="node"><title>Node15</title>
<a xlink:href="classforcebalance_1_1lipid_1_1Lipid.html#ade4fa56d07269b34736f6a06e0cc8237" target="_top" xlink:title="Submit a NPT simulation to the Work Queue. ">
<polygon fill="white" stroke="black" points="462.5,-93.0544 462.5,-127.054 605.5,-127.054 605.5,-93.0544 462.5,-93.0544"/>
<text text-anchor="start" x="470.5" y="-114.054" font-family="Ubuntu-R" font-size="10.00">forcebalance.lipid.Lipid.npt</text>
<text text-anchor="middle" x="534" y="-101.054" font-family="Ubuntu-R" font-size="10.00">_simulation</text>
</a>
</g>
<!-- Node8&#45;&gt;Node15 -->
<g id="edge36" class="edge"><title>Node8&#45;&gt;Node15</title>
<path fill="none" stroke="midnightblue" d="M373.433,-375.53C388.574,-370.196 403.454,-362.161 414,-350.054 466.444,-289.852 407.539,-241.669 450,-174.054 460.53,-157.286 477.126,-143.275 492.795,-132.68"/>
<polygon fill="midnightblue" stroke="midnightblue" points="494.858,-135.514 501.36,-127.149 491.061,-129.633 494.858,-135.514"/>
</g>
<!-- Node13&#45;&gt;Node12 -->
<g id="edge30" class="edge"><title>Node13&#45;&gt;Node12</title>
<path fill="none" stroke="midnightblue" d="M604.71,-286.893C618.585,-288.627 633.343,-290.472 647.845,-292.285"/>
<polygon fill="midnightblue" stroke="midnightblue" points="647.472,-295.766 657.829,-293.533 648.34,-288.82 647.472,-295.766"/>
</g>
<!-- Node14&#45;&gt;Node12 -->
<g id="edge34" class="edge"><title>Node14&#45;&gt;Node12</title>
<path fill="none" stroke="midnightblue" d="M601.532,-321.613C616.225,-319.776 632.03,-317.801 647.55,-315.861"/>
<polygon fill="midnightblue" stroke="midnightblue" points="648.204,-319.306 657.692,-314.593 647.336,-312.36 648.204,-319.306"/>
</g>
<!-- Node15&#45;&gt;Node4 -->
<g id="edge40" class="edge"><title>Node15&#45;&gt;Node4</title>
<path fill="none" stroke="midnightblue" d="M602.107,-93.0276C624.709,-87.377 649.89,-81.082 672.589,-75.4071"/>
<polygon fill="midnightblue" stroke="midnightblue" points="673.634,-78.7536 682.487,-72.9326 671.937,-71.9626 673.634,-78.7536"/>
</g>
<!-- Node16 -->
<g id="node35" class="node"><title>Node16</title>
<a xlink:href="namespaceforcebalance_1_1nifty.html#ac37d4fe58ef70ed546ebfc45d12f7a5d" target="_top" xlink:title="forcebalance.nifty.getWork\lQueue">
<polygon fill="white" stroke="black" points="671.5,-93.0544 671.5,-127.054 812.5,-127.054 812.5,-93.0544 671.5,-93.0544"/>
<text text-anchor="start" x="679.5" y="-114.054" font-family="Ubuntu-R" font-size="10.00">forcebalance.nifty.getWork</text>
<text text-anchor="middle" x="742" y="-101.054" font-family="Ubuntu-R" font-size="10.00">Queue</text>
</a>
</g>
<!-- Node15&#45;&gt;Node16 -->
<g id="edge38" class="edge"><title>Node15&#45;&gt;Node16</title>
<path fill="none" stroke="midnightblue" d="M605.582,-110.054C623.528,-110.054 642.906,-110.054 661.264,-110.054"/>
<polygon fill="midnightblue" stroke="midnightblue" points="661.343,-113.554 671.343,-110.054 661.343,-106.554 661.343,-113.554"/>
</g>
<!-- Node17&#45;&gt;Node2 -->
<g id="edge52" class="edge"><title>Node17&#45;&gt;Node2</title>
<path fill="none" stroke="midnightblue" d="M365.283,-340.605C382.308,-346.008 400.276,-354.077 414,-366.054 440.358,-389.058 422.465,-414.473 450,-436.054 452.116,-437.713 454.349,-439.238 456.67,-440.639"/>
<polygon fill="midnightblue" stroke="midnightblue" points="455.518,-443.982 466.01,-445.452 458.724,-437.76 455.518,-443.982"/>
</g>
<!-- Node17&#45;&gt;Node7 -->
<g id="edge54" class="edge"><title>Node17&#45;&gt;Node7</title>
<path fill="none" stroke="midnightblue" d="M370.143,-340.587C386.074,-345.929 402.187,-353.967 414,-366.054 449.953,-402.844 424.549,-431.351 450,-476.054 467.449,-506.703 495.695,-536.37 514.552,-554.416"/>
<polygon fill="midnightblue" stroke="midnightblue" points="512.314,-557.115 522,-561.408 517.105,-552.012 512.314,-557.115"/>
</g>
<!-- Node17&#45;&gt;Node9 -->
<g id="edge48" class="edge"><title>Node17&#45;&gt;Node9</title>
<path fill="none" stroke="midnightblue" d="M352.172,-340.611C371.561,-346.597 394.737,-355.101 414,-366.054 432.105,-376.349 431.377,-386.729 450,-396.054 454.656,-398.386 459.595,-400.453 464.654,-402.284"/>
<polygon fill="midnightblue" stroke="midnightblue" points="463.896,-405.719 474.489,-405.523 466.086,-399.071 463.896,-405.719"/>
</g>
<!-- Node17&#45;&gt;Node10 -->
<g id="edge50" class="edge"><title>Node17&#45;&gt;Node10</title>
<path fill="none" stroke="midnightblue" d="M362.931,-340.608C395.787,-347.416 438.691,-356.306 473.313,-363.48"/>
<polygon fill="midnightblue" stroke="midnightblue" points="472.804,-366.948 483.306,-365.55 474.224,-360.094 472.804,-366.948"/>
</g>
<!-- Node17&#45;&gt;Node11 -->
<g id="edge56" class="edge"><title>Node17&#45;&gt;Node11</title>
<path fill="none" stroke="midnightblue" d="M400.889,-319.468C405.624,-316.864 410.049,-313.756 414,-310.054 459.629,-267.305 400.452,-212.193 450,-174.054 520.518,-119.774 631.209,-149.121 694.105,-173.078"/>
<polygon fill="midnightblue" stroke="midnightblue" points="693.187,-176.478 703.775,-176.863 695.739,-169.959 693.187,-176.478"/>
</g>
<!-- Node17&#45;&gt;Node12 -->
<g id="edge58" class="edge"><title>Node17&#45;&gt;Node12</title>
<path fill="none" stroke="midnightblue" d="M396.162,-319.518C402.47,-316.964 408.506,-313.849 414,-310.054 438.964,-292.812 423.487,-266.803 450,-252.054 537.871,-203.174 661.589,-259.121 715.338,-288.414"/>
<polygon fill="midnightblue" stroke="midnightblue" points="713.8,-291.564 724.239,-293.373 717.207,-285.449 713.8,-291.564"/>
</g>
<!-- Node17&#45;&gt;Node13 -->
<g id="edge60" class="edge"><title>Node17&#45;&gt;Node13</title>
<path fill="none" stroke="midnightblue" d="M369.327,-319.513C383.936,-316.636 399.583,-313.386 414,-310.054 430.005,-306.356 447.112,-302.024 463.248,-297.764"/>
<polygon fill="midnightblue" stroke="midnightblue" points="464.388,-301.083 473.15,-295.127 462.587,-294.318 464.388,-301.083"/>
</g>
<!-- Node17&#45;&gt;Node14 -->
<g id="edge62" class="edge"><title>Node17&#45;&gt;Node14</title>
<path fill="none" stroke="midnightblue" d="M410.665,-330.054C425.908,-330.054 441.464,-330.054 456.166,-330.054"/>
<polygon fill="midnightblue" stroke="midnightblue" points="456.194,-333.554 466.193,-330.054 456.193,-326.554 456.194,-333.554"/>
</g>
<!-- Node17&#45;&gt;Node15 -->
<g id="edge64" class="edge"><title>Node17&#45;&gt;Node15</title>
<path fill="none" stroke="midnightblue" d="M401.57,-319.424C406.075,-316.82 410.27,-313.725 414,-310.054 468.743,-256.194 399.734,-199.115 450,-141.054 452.615,-138.034 455.552,-135.307 458.72,-132.846"/>
<polygon fill="midnightblue" stroke="midnightblue" points="460.677,-135.747 467.016,-127.259 456.767,-129.941 460.677,-135.747"/>
</g>
<!-- Node18 -->
<g id="node40" class="node"><title>Node18</title>
<a xlink:href="namespaceforcebalance_1_1nifty.html#a11babd62dc7bca389162c6318f9672ca" target="_top" xlink:title="Cool&#45;looking printout for slick formatting of output. ">
<polygon fill="white" stroke="black" points="462,-183.554 462,-204.554 606,-204.554 606,-183.554 462,-183.554"/>
<text text-anchor="middle" x="534" y="-191.554" font-family="Ubuntu-R" font-size="10.00">forcebalance.nifty.printcool</text>
</a>
</g>
<!-- Node17&#45;&gt;Node18 -->
<g id="edge44" class="edge"><title>Node17&#45;&gt;Node18</title>
<path fill="none" stroke="midnightblue" d="M399.42,-319.396C404.637,-316.829 409.561,-313.747 414,-310.054 447.438,-282.24 417.93,-248.436 450,-219.054 454.384,-215.038 459.387,-211.665 464.718,-208.833"/>
<polygon fill="midnightblue" stroke="midnightblue" points="466.344,-211.937 473.947,-204.559 463.402,-205.585 466.344,-211.937"/>
</g>
<!-- Node19 -->
<g id="node52" class="node"><title>Node19</title>
<a xlink:href="classforcebalance_1_1liquid_1_1Liquid.html#a07a59f9f335693329b789a9c7608fc9f" target="_top" xlink:title="Submit a NPT simulation to the Work Queue. ">
<polygon fill="white" stroke="black" points="456.5,-41.0544 456.5,-75.0544 611.5,-75.0544 611.5,-41.0544 456.5,-41.0544"/>
<text text-anchor="start" x="464.5" y="-62.0544" font-family="Ubuntu-R" font-size="10.00">forcebalance.liquid.Liquid.npt</text>
<text text-anchor="middle" x="534" y="-49.0544" font-family="Ubuntu-R" font-size="10.00">_simulation</text>
</a>
</g>
<!-- Node17&#45;&gt;Node19 -->
<g id="edge66" class="edge"><title>Node17&#45;&gt;Node19</title>
<path fill="none" stroke="midnightblue" d="M402.257,-319.372C406.53,-316.77 410.491,-313.69 414,-310.054 484.627,-236.863 383.371,-160.902 450,-84.0544 450.634,-83.3227 451.289,-82.6112 451.962,-81.9196"/>
<polygon fill="midnightblue" stroke="midnightblue" points="454.473,-84.3793 459.83,-75.2389 449.942,-79.0433 454.473,-84.3793"/>
</g>
<!-- Node18&#45;&gt;Node11 -->
<g id="edge46" class="edge"><title>Node18&#45;&gt;Node11</title>
<path fill="none" stroke="midnightblue" d="M606.165,-194.054C626.541,-194.054 648.722,-194.054 669.139,-194.054"/>
<polygon fill="midnightblue" stroke="midnightblue" points="669.319,-197.554 679.319,-194.054 669.319,-190.554 669.319,-197.554"/>
</g>
<!-- Node19&#45;&gt;Node4 -->
<g id="edge70" class="edge"><title>Node19&#45;&gt;Node4</title>
<path fill="none" stroke="midnightblue" d="M611.747,-58.0544C631.505,-58.0544 652.615,-58.0544 671.964,-58.0544"/>
<polygon fill="midnightblue" stroke="midnightblue" points="672.207,-61.5545 682.207,-58.0544 672.207,-54.5545 672.207,-61.5545"/>
</g>
<!-- Node19&#45;&gt;Node16 -->
<g id="edge68" class="edge"><title>Node19&#45;&gt;Node16</title>
<path fill="none" stroke="midnightblue" d="M602.107,-75.0811C621.86,-80.0193 643.581,-85.4497 663.896,-90.5282"/>
<polygon fill="midnightblue" stroke="midnightblue" points="663.19,-93.9594 673.74,-92.9894 664.887,-87.1684 663.19,-93.9594"/>
</g>
</g>
</svg>
