<?xml version="1.0" encoding="UTF-8" standalone="no"?>
<!DOCTYPE svg PUBLIC "-//W3C//DTD SVG 1.1//EN"
 "http://www.w3.org/Graphics/SVG/1.1/DTD/svg11.dtd">
<!-- Generated by graphviz version 2.28.0 (20111219.2309)
 -->
<!-- Title: forcebalance.gmxqpio.Monomer_QTPIE.prepare_temp_directory Pages: 1 -->
<svg width="1128pt" height="236pt"
 viewBox="0.00 0.00 1128.00 236.00" xmlns="http://www.w3.org/2000/svg" xmlns:xlink="http://www.w3.org/1999/xlink">
<g id="graph1" class="graph" transform="scale(1 1) rotate(0) translate(4 232)">
<title>forcebalance.gmxqpio.Monomer_QTPIE.prepare_temp_directory</title>
<polygon fill="white" stroke="white" points="-4,5 -4,-232 1125,-232 1125,5 -4,5"/>
<!-- Node1 -->
<g id="node1" class="node"><title>Node1</title>
<polygon fill="#bfbfbf" stroke="black" points="0.5,-154 0.5,-184 171.5,-184 171.5,-154 0.5,-154"/>
<text text-anchor="start" x="8.5" y="-172" font-family="Ubuntu-R" font-size="10.00">forcebalance.gmxqpio.Monomer</text>
<text text-anchor="middle" x="86" y="-161" font-family="Ubuntu-R" font-size="10.00">_QTPIE.prepare_temp_directory</text>
</g>
<!-- Node2 -->
<g id="node3" class="node"><title>Node2</title>
<a xlink:href="namespaceforcebalance_1_1nifty.html#abb8f59044961a12588e0653c2baa8b01" target="_top" xlink:title="forcebalance.nifty.warn\l_press_key">
<polygon fill="white" stroke="black" points="231.5,-198 231.5,-228 356.5,-228 356.5,-198 231.5,-198"/>
<text text-anchor="start" x="239.5" y="-216" font-family="Ubuntu-R" font-size="10.00">forcebalance.nifty.warn</text>
<text text-anchor="middle" x="294" y="-205" font-family="Ubuntu-R" font-size="10.00">_press_key</text>
</a>
</g>
<!-- Node1&#45;&gt;Node2 -->
<g id="edge2" class="edge"><title>Node1&#45;&gt;Node2</title>
<path fill="none" stroke="midnightblue" d="M157.317,-184.019C177.951,-188.427 200.538,-193.251 221.259,-197.677"/>
<polygon fill="midnightblue" stroke="midnightblue" points="220.755,-201.148 231.265,-199.814 222.217,-194.302 220.755,-201.148"/>
</g>
<!-- Node4 -->
<g id="node7" class="node"><title>Node4</title>
<a xlink:href="namespaceforcebalance_1_1nifty.html#ab182a9da2a2f42cf45942fbee6acf9b1" target="_top" xlink:title="forcebalance.nifty.LinkFile">
<polygon fill="white" stroke="black" points="225.5,-159.5 225.5,-178.5 362.5,-178.5 362.5,-159.5 225.5,-159.5"/>
<text text-anchor="middle" x="294" y="-166.5" font-family="Ubuntu-R" font-size="10.00">forcebalance.nifty.LinkFile</text>
</a>
</g>
<!-- Node1&#45;&gt;Node4 -->
<g id="edge6" class="edge"><title>Node1&#45;&gt;Node4</title>
<path fill="none" stroke="midnightblue" d="M171.68,-169C186.057,-169 200.926,-169 215.117,-169"/>
<polygon fill="midnightblue" stroke="midnightblue" points="215.314,-172.5 225.314,-169 215.314,-165.5 215.314,-172.5"/>
</g>
<!-- Node6 -->
<g id="node11" class="node"><title>Node6</title>
<a xlink:href="classforcebalance_1_1gmxqpio_1_1Monomer__QTPIE.html#ac227bf1f1ed6d579fea2eeda64c389cb" target="_top" xlink:title="forcebalance.gmxqpio.Monomer\l_QTPIE.unpack_moments">
<polygon fill="white" stroke="black" points="208.5,-105 208.5,-135 379.5,-135 379.5,-105 208.5,-105"/>
<text text-anchor="start" x="216.5" y="-123" font-family="Ubuntu-R" font-size="10.00">forcebalance.gmxqpio.Monomer</text>
<text text-anchor="middle" x="294" y="-112" font-family="Ubuntu-R" font-size="10.00">_QTPIE.unpack_moments</text>
</a>
</g>
<!-- Node1&#45;&gt;Node6 -->
<g id="edge10" class="edge"><title>Node1&#45;&gt;Node6</title>
<path fill="none" stroke="midnightblue" d="M150.207,-153.965C172.254,-148.721 197.176,-142.793 219.956,-137.374"/>
<polygon fill="midnightblue" stroke="midnightblue" points="220.994,-140.725 229.913,-135.006 219.374,-133.915 220.994,-140.725"/>
</g>
<!-- Node3 -->
<g id="node5" class="node"><title>Node3</title>
<a xlink:href="namespaceforcebalance_1_1nifty.html#a2fc81730e7efa7d138dd86f733507bfc" target="_top" xlink:title="Similar to the bultin function map(). ">
<polygon fill="white" stroke="black" points="416,-203.5 416,-222.5 598,-222.5 598,-203.5 416,-203.5"/>
<text text-anchor="middle" x="507" y="-210.5" font-family="Ubuntu-R" font-size="10.00">forcebalance.nifty.concurrent_map</text>
</a>
</g>
<!-- Node2&#45;&gt;Node3 -->
<g id="edge4" class="edge"><title>Node2&#45;&gt;Node3</title>
<path fill="none" stroke="midnightblue" d="M356.597,-213C371.909,-213 388.722,-213 405.372,-213"/>
<polygon fill="midnightblue" stroke="midnightblue" points="405.704,-216.5 415.704,-213 405.704,-209.5 405.704,-216.5"/>
</g>
<!-- Node5 -->
<g id="node9" class="node"><title>Node5</title>
<a xlink:href="namespaceforcebalance_1_1nifty.html#a25efa4d501ad852a234721af18978f7e" target="_top" xlink:title="Remove the file if it exists (doesn&#39;t return an error). ">
<polygon fill="white" stroke="black" points="437,-154 437,-184 577,-184 577,-154 437,-154"/>
<text text-anchor="start" x="445" y="-172" font-family="Ubuntu-R" font-size="10.00">forcebalance.nifty.remove</text>
<text text-anchor="middle" x="507" y="-161" font-family="Ubuntu-R" font-size="10.00">_if_exists</text>
</a>
</g>
<!-- Node4&#45;&gt;Node5 -->
<g id="edge8" class="edge"><title>Node4&#45;&gt;Node5</title>
<path fill="none" stroke="midnightblue" d="M362.632,-169C383.039,-169 405.626,-169 426.72,-169"/>
<polygon fill="midnightblue" stroke="midnightblue" points="426.939,-172.5 436.939,-169 426.939,-165.5 426.939,-172.5"/>
</g>
<!-- Node7 -->
<g id="node13" class="node"><title>Node7</title>
<a xlink:href="classforcebalance_1_1gmxqpio_1_1Monomer__QTPIE.html#a46144411b5166a1839bf954b584ca3a7" target="_top" xlink:title="forcebalance.gmxqpio.Monomer\l_QTPIE.get">
<polygon fill="white" stroke="black" points="421.5,-105 421.5,-135 592.5,-135 592.5,-105 421.5,-105"/>
<text text-anchor="start" x="429.5" y="-123" font-family="Ubuntu-R" font-size="10.00">forcebalance.gmxqpio.Monomer</text>
<text text-anchor="middle" x="507" y="-112" font-family="Ubuntu-R" font-size="10.00">_QTPIE.get</text>
</a>
</g>
<!-- Node6&#45;&gt;Node7 -->
<g id="edge12" class="edge"><title>Node6&#45;&gt;Node7</title>
<path fill="none" stroke="midnightblue" d="M379.606,-113.369C390.032,-113.249 400.742,-113.22 411.306,-113.282"/>
<polygon fill="midnightblue" stroke="midnightblue" points="411.345,-116.782 421.375,-113.369 411.406,-109.782 411.345,-116.782"/>
</g>
<!-- Node7&#45;&gt;Node6 -->
<g id="edge18" class="edge"><title>Node7&#45;&gt;Node6</title>
<path fill="none" stroke="midnightblue" d="M421.375,-126.631C410.949,-126.751 400.239,-126.78 389.675,-126.718"/>
<polygon fill="midnightblue" stroke="midnightblue" points="389.636,-123.218 379.606,-126.631 389.575,-130.218 389.636,-123.218"/>
</g>
<!-- Node8 -->
<g id="node15" class="node"><title>Node8</title>
<a xlink:href="namespaceforcebalance_1_1gmxqpio.html#a499ed366638eae7be524b18760a986b8" target="_top" xlink:title="forcebalance.gmxqpio.get\l_monomer_properties">
<polygon fill="white" stroke="black" points="634.5,-171 634.5,-201 775.5,-201 775.5,-171 634.5,-171"/>
<text text-anchor="start" x="642.5" y="-189" font-family="Ubuntu-R" font-size="10.00">forcebalance.gmxqpio.get</text>
<text text-anchor="middle" x="705" y="-178" font-family="Ubuntu-R" font-size="10.00">_monomer_properties</text>
</a>
</g>
<!-- Node7&#45;&gt;Node8 -->
<g id="edge14" class="edge"><title>Node7&#45;&gt;Node8</title>
<path fill="none" stroke="midnightblue" d="M565.388,-135.033C576.276,-138.141 587.533,-141.531 598,-145 617.937,-151.607 639.621,-159.808 658.152,-167.135"/>
<polygon fill="midnightblue" stroke="midnightblue" points="656.944,-170.422 667.529,-170.874 659.536,-163.92 656.944,-170.422"/>
</g>
<!-- Node10 -->
<g id="node20" class="node"><title>Node10</title>
<a xlink:href="namespaceforcebalance_1_1finite__difference.html#aa69a8819e4680091f400303c1d6ddeb7" target="_top" xlink:title="A three&#45;point finite difference stencil. ">
<polygon fill="white" stroke="black" points="652.5,-83 652.5,-113 757.5,-113 757.5,-83 652.5,-83"/>
<text text-anchor="start" x="660.5" y="-101" font-family="Ubuntu-R" font-size="10.00">forcebalance.finite</text>
<text text-anchor="middle" x="705" y="-90" font-family="Ubuntu-R" font-size="10.00">_difference.f12d3p</text>
</a>
</g>
<!-- Node7&#45;&gt;Node10 -->
<g id="edge20" class="edge"><title>Node7&#45;&gt;Node10</title>
<path fill="none" stroke="midnightblue" d="M592.544,-110.51C609.202,-108.641 626.389,-106.711 642.13,-104.945"/>
<polygon fill="midnightblue" stroke="midnightblue" points="642.698,-108.403 652.245,-103.809 641.917,-101.447 642.698,-108.403"/>
</g>
<!-- Node11 -->
<g id="node22" class="node"><title>Node11</title>
<a xlink:href="namespaceforcebalance_1_1finite__difference.html#ad84d3e385db1190e7d8ef58bc08a6c52" target="_top" xlink:title="Invoking this function from anywhere will tell us whether we&#39;re being called by a finite&#45;difference f...">
<polygon fill="white" stroke="black" points="838,-117 838,-147 942,-147 942,-117 838,-117"/>
<text text-anchor="start" x="846" y="-135" font-family="Ubuntu-R" font-size="10.00">forcebalance.finite</text>
<text text-anchor="middle" x="890" y="-124" font-family="Ubuntu-R" font-size="10.00">_difference.in_fd</text>
</a>
</g>
<!-- Node7&#45;&gt;Node11 -->
<g id="edge34" class="edge"><title>Node7&#45;&gt;Node11</title>
<path fill="none" stroke="midnightblue" d="M592.556,-122.663C663.683,-124.903 763.701,-128.054 827.435,-130.061"/>
<polygon fill="midnightblue" stroke="midnightblue" points="827.626,-133.569 837.731,-130.385 827.846,-126.572 827.626,-133.569"/>
</g>
<!-- Node12 -->
<g id="node24" class="node"><title>Node12</title>
<a xlink:href="namespaceforcebalance_1_1finite__difference.html#ae484c591ae8c4e5bae73a0ef2660c339" target="_top" xlink:title="A function wrapper for finite difference designed for differentiating &#39;get&#39;&#45;type functions. ">
<polygon fill="white" stroke="black" points="838,-49 838,-79 942,-79 942,-49 838,-49"/>
<text text-anchor="start" x="846" y="-67" font-family="Ubuntu-R" font-size="10.00">forcebalance.finite</text>
<text text-anchor="middle" x="890" y="-56" font-family="Ubuntu-R" font-size="10.00">_difference.fdwrap</text>
</a>
</g>
<!-- Node7&#45;&gt;Node12 -->
<g id="edge32" class="edge"><title>Node7&#45;&gt;Node12</title>
<path fill="none" stroke="midnightblue" d="M539.537,-104.99C564.534,-93.8981 600.681,-79.6208 634,-73 699.173,-60.0494 775.519,-59.1854 827.569,-60.6902"/>
<polygon fill="midnightblue" stroke="midnightblue" points="827.535,-64.1909 837.644,-61.0199 827.764,-57.1946 827.535,-64.1909"/>
</g>
<!-- Node9 -->
<g id="node17" class="node"><title>Node9</title>
<a xlink:href="namespaceforcebalance_1_1molecule.html#afe989ffd119568047fc8265b1d329a70" target="_top" xlink:title="Matches ANY number; it can be a decimal, scientific notation, integer, or what have you...">
<polygon fill="white" stroke="black" points="812,-176.5 812,-195.5 968,-195.5 968,-176.5 812,-176.5"/>
<text text-anchor="middle" x="890" y="-183.5" font-family="Ubuntu-R" font-size="10.00">forcebalance.molecule.isfloat</text>
</a>
</g>
<!-- Node8&#45;&gt;Node9 -->
<g id="edge16" class="edge"><title>Node8&#45;&gt;Node9</title>
<path fill="none" stroke="midnightblue" d="M775.706,-186C784.201,-186 792.961,-186 801.67,-186"/>
<polygon fill="midnightblue" stroke="midnightblue" points="801.853,-189.5 811.853,-186 801.852,-182.5 801.853,-189.5"/>
</g>
<!-- Node10&#45;&gt;Node11 -->
<g id="edge22" class="edge"><title>Node10&#45;&gt;Node11</title>
<path fill="none" stroke="midnightblue" d="M757.951,-107.652C779.766,-111.705 805.296,-116.448 827.997,-120.666"/>
<polygon fill="midnightblue" stroke="midnightblue" points="827.397,-124.115 837.868,-122.5 828.676,-117.232 827.397,-124.115"/>
</g>
<!-- Node10&#45;&gt;Node12 -->
<g id="edge24" class="edge"><title>Node10&#45;&gt;Node12</title>
<path fill="none" stroke="midnightblue" d="M757.951,-88.3479C779.766,-84.2948 805.296,-79.5516 827.997,-75.3338"/>
<polygon fill="midnightblue" stroke="midnightblue" points="828.676,-78.7677 837.868,-73.4999 827.397,-71.8855 828.676,-78.7677"/>
</g>
<!-- Node13 -->
<g id="node26" class="node"><title>Node13</title>
<a xlink:href="namespaceforcebalance_1_1finite__difference.html#a00322fb65860c390616f74d05037c797" target="_top" xlink:title="A driver to fdwrap for gradients (see documentation for fdwrap) Inputs: tgt = The Target containing t...">
<polygon fill="white" stroke="black" points="1004,-49 1004,-79 1120,-79 1120,-49 1004,-49"/>
<text text-anchor="start" x="1012" y="-67" font-family="Ubuntu-R" font-size="10.00">forcebalance.finite</text>
<text text-anchor="middle" x="1062" y="-56" font-family="Ubuntu-R" font-size="10.00">_difference.fdwrap_G</text>
</a>
</g>
<!-- Node12&#45;&gt;Node13 -->
<g id="edge26" class="edge"><title>Node12&#45;&gt;Node13</title>
<path fill="none" stroke="midnightblue" d="M942.006,-57.7547C958.275,-57.2456 976.534,-57.1216 993.772,-57.3829"/>
<polygon fill="midnightblue" stroke="midnightblue" points="993.713,-60.8823 1003.78,-57.5812 993.852,-53.8837 993.713,-60.8823"/>
</g>
<!-- Node14 -->
<g id="node29" class="node"><title>Node14</title>
<a xlink:href="namespaceforcebalance_1_1finite__difference.html#a77a0bc1ae3cbbcc8d38a0ef9ca877d6d" target="_top" xlink:title="A driver to fdwrap for Hessians (see documentation for fdwrap) Inputs: tgt = The Target containing th...">
<polygon fill="white" stroke="black" points="1004,-0 1004,-30 1120,-30 1120,-0 1004,-0"/>
<text text-anchor="start" x="1012" y="-18" font-family="Ubuntu-R" font-size="10.00">forcebalance.finite</text>
<text text-anchor="middle" x="1062" y="-7" font-family="Ubuntu-R" font-size="10.00">_difference.fdwrap_H</text>
</a>
</g>
<!-- Node12&#45;&gt;Node14 -->
<g id="edge30" class="edge"><title>Node12&#45;&gt;Node14</title>
<path fill="none" stroke="midnightblue" d="M942.006,-49.2984C959.995,-44.1132 980.417,-38.227 999.201,-32.8126"/>
<polygon fill="midnightblue" stroke="midnightblue" points="1000.21,-36.1632 1008.85,-30.0304 998.275,-29.437 1000.21,-36.1632"/>
</g>
<!-- Node13&#45;&gt;Node12 -->
<g id="edge28" class="edge"><title>Node13&#45;&gt;Node12</title>
<path fill="none" stroke="midnightblue" d="M1003.78,-70.4188C987.216,-70.8274 969.069,-70.8579 952.267,-70.5105"/>
<polygon fill="midnightblue" stroke="midnightblue" points="952.093,-67.0049 942.006,-70.2453 951.912,-74.0026 952.093,-67.0049"/>
</g>
</g>
</svg>
