<?xml version="1.0" encoding="UTF-8" standalone="no"?>
<!DOCTYPE svg PUBLIC "-//W3C//DTD SVG 1.1//EN"
 "http://www.w3.org/Graphics/SVG/1.1/DTD/svg11.dtd">
<!-- Generated by graphviz version 2.28.0 (20111219.2309)
 -->
<!-- Title: G Pages: 1 -->
<svg width="1074pt" height="104pt"
 viewBox="0.00 0.00 1074.00 104.00" xmlns="http://www.w3.org/2000/svg" xmlns:xlink="http://www.w3.org/1999/xlink">
<g id="graph1" class="graph" transform="scale(1 1) rotate(0) translate(4 100)">
<title>G</title>
<polygon fill="white" stroke="white" points="-4,5 -4,-100 1071,-100 1071,5 -4,5"/>
<!-- Node1 -->
<g id="node1" class="node"><title>Node1</title>
<polygon fill="#bfbfbf" stroke="black" points="0,-38.5 0,-57.5 280,-57.5 280,-38.5 0,-38.5"/>
<text text-anchor="middle" x="140" y="-45.5" font-family="Ubuntu-R" font-size="10.00">forcebalance.gmxio.Liquid_GMX.polarization_correction</text>
</g>
<!-- Node2 -->
<g id="node3" class="node"><title>Node2</title>
<a xlink:href="classforcebalance_1_1gmxio_1_1Liquid__GMX.html#a499a65278055bae95d3789ed74f6dc60" target="_top" xlink:title="Prepare the temporary directory by copying in important files.">
<polygon fill="white" stroke="black" points="316.5,-38.5 316.5,-57.5 603.5,-57.5 603.5,-38.5 316.5,-38.5"/>
<text text-anchor="middle" x="460" y="-45.5" font-family="Ubuntu-R" font-size="10.00">forcebalance.gmxio.Liquid_GMX.prepare_temp_directory</text>
</a>
</g>
<!-- Node1&#45;&gt;Node2 -->
<g id="edge2" class="edge"><title>Node1&#45;&gt;Node2</title>
<path fill="none" stroke="midnightblue" d="M280.017,-41.2976C288.666,-41.2562 297.395,-41.2418 306.099,-41.2544"/>
<polygon fill="midnightblue" stroke="midnightblue" points="306.291,-44.7548 316.3,-41.2816 306.309,-37.7549 306.291,-44.7548"/>
</g>
<!-- Node6 -->
<g id="node12" class="node"><title>Node6</title>
<a xlink:href="namespaceforcebalance_1_1nifty.html#abb8f59044961a12588e0653c2baa8b01" target="_top" xlink:title="forcebalance.nifty.warn_press_key">
<polygon fill="white" stroke="black" points="370.5,-0.5 370.5,-19.5 549.5,-19.5 549.5,-0.5 370.5,-0.5"/>
<text text-anchor="middle" x="460" y="-7.5" font-family="Ubuntu-R" font-size="10.00">forcebalance.nifty.warn_press_key</text>
</a>
</g>
<!-- Node1&#45;&gt;Node6 -->
<g id="edge12" class="edge"><title>Node1&#45;&gt;Node6</title>
<path fill="none" stroke="midnightblue" d="M220.834,-38.46C265.999,-33.063 322.605,-26.2987 369.299,-20.719"/>
<polygon fill="midnightblue" stroke="midnightblue" points="369.895,-24.1728 379.409,-19.5109 369.064,-17.2223 369.895,-24.1728"/>
</g>
<!-- Node2&#45;&gt;Node1 -->
<g id="edge8" class="edge"><title>Node2&#45;&gt;Node1</title>
<path fill="none" stroke="midnightblue" d="M316.3,-54.7184C307.631,-54.7521 298.896,-54.7589 290.2,-54.7386"/>
<polygon fill="midnightblue" stroke="midnightblue" points="290.029,-51.2381 280.017,-54.7024 290.004,-58.238 290.029,-51.2381"/>
</g>
<!-- Node3 -->
<g id="node5" class="node"><title>Node3</title>
<a xlink:href="namespaceforcebalance_1_1nifty.html#ab182a9da2a2f42cf45942fbee6acf9b1" target="_top" xlink:title="forcebalance.nifty.LinkFile">
<polygon fill="white" stroke="black" points="674.5,-76.5 674.5,-95.5 811.5,-95.5 811.5,-76.5 674.5,-76.5"/>
<text text-anchor="middle" x="743" y="-83.5" font-family="Ubuntu-R" font-size="10.00">forcebalance.nifty.LinkFile</text>
</a>
</g>
<!-- Node2&#45;&gt;Node3 -->
<g id="edge4" class="edge"><title>Node2&#45;&gt;Node3</title>
<path fill="none" stroke="midnightblue" d="M531.545,-57.54C571.947,-63.0034 622.709,-69.8681 664.256,-75.4865"/>
<polygon fill="midnightblue" stroke="midnightblue" points="663.955,-78.9776 674.334,-76.8494 664.893,-72.0408 663.955,-78.9776"/>
</g>
<!-- Node5 -->
<g id="node10" class="node"><title>Node5</title>
<a xlink:href="classforcebalance_1_1gmxio_1_1Liquid__GMX.html#a858330327e84a1186b9a932fe2437489" target="_top" xlink:title="Create an instance of the class.">
<polygon fill="white" stroke="black" points="640,-38.5 640,-57.5 846,-57.5 846,-38.5 640,-38.5"/>
<text text-anchor="middle" x="743" y="-45.5" font-family="Ubuntu-R" font-size="10.00">forcebalance.gmxio.Liquid_GMX.__init__</text>
</a>
</g>
<!-- Node2&#45;&gt;Node5 -->
<g id="edge10" class="edge"><title>Node2&#45;&gt;Node5</title>
<path fill="none" stroke="midnightblue" d="M603.558,-48C612.346,-48 621.123,-48 629.752,-48"/>
<polygon fill="midnightblue" stroke="midnightblue" points="629.806,-51.5001 639.806,-48 629.806,-44.5001 629.806,-51.5001"/>
</g>
<!-- Node4 -->
<g id="node7" class="node"><title>Node4</title>
<a xlink:href="namespaceforcebalance_1_1nifty.html#a25efa4d501ad852a234721af18978f7e" target="_top" xlink:title="Remove the file if it exists (doesn&#39;t return an error).">
<polygon fill="white" stroke="black" points="882.5,-76.5 882.5,-95.5 1065.5,-95.5 1065.5,-76.5 882.5,-76.5"/>
<text text-anchor="middle" x="974" y="-83.5" font-family="Ubuntu-R" font-size="10.00">forcebalance.nifty.remove_if_exists</text>
</a>
</g>
<!-- Node3&#45;&gt;Node4 -->
<g id="edge6" class="edge"><title>Node3&#45;&gt;Node4</title>
<path fill="none" stroke="midnightblue" d="M811.778,-86C830.819,-86 851.941,-86 872.457,-86"/>
<polygon fill="midnightblue" stroke="midnightblue" points="872.467,-89.5001 882.467,-86 872.467,-82.5001 872.467,-89.5001"/>
</g>
<!-- Node7 -->
<g id="node14" class="node"><title>Node7</title>
<a xlink:href="namespaceforcebalance_1_1nifty.html#a2fc81730e7efa7d138dd86f733507bfc" target="_top" xlink:title="Similar to the bultin function map().">
<polygon fill="white" stroke="black" points="652,-0.5 652,-19.5 834,-19.5 834,-0.5 652,-0.5"/>
<text text-anchor="middle" x="743" y="-7.5" font-family="Ubuntu-R" font-size="10.00">forcebalance.nifty.concurrent_map</text>
</a>
</g>
<!-- Node6&#45;&gt;Node7 -->
<g id="edge14" class="edge"><title>Node6&#45;&gt;Node7</title>
<path fill="none" stroke="midnightblue" d="M549.524,-10C578.865,-10 611.725,-10 641.875,-10"/>
<polygon fill="midnightblue" stroke="midnightblue" points="641.987,-13.5001 651.987,-10 641.987,-6.5001 641.987,-13.5001"/>
</g>
</g>
</svg>
