<?xml version="1.0" encoding="UTF-8" standalone="no"?>
<!DOCTYPE svg PUBLIC "-//W3C//DTD SVG 1.1//EN"
 "http://www.w3.org/Graphics/SVG/1.1/DTD/svg11.dtd">
<!-- Generated by graphviz version 2.28.0 (20111219.2309)
 -->
<!-- Title: forcebalance.tinkerio.AbInitio_TINKER.energy_driver_all Pages: 1 -->
<svg width="1448pt" height="207pt"
 viewBox="0.00 0.00 1448.00 207.00" xmlns="http://www.w3.org/2000/svg" xmlns:xlink="http://www.w3.org/1999/xlink">
<g id="graph1" class="graph" transform="scale(1 1) rotate(0) translate(4 203)">
<title>forcebalance.tinkerio.AbInitio_TINKER.energy_driver_all</title>
<polygon fill="white" stroke="white" points="-4,5 -4,-203 1445,-203 1445,5 -4,5"/>
<!-- Node1 -->
<g id="node1" class="node"><title>Node1</title>
<polygon fill="#bfbfbf" stroke="black" points="0.5,-126 0.5,-156 161.5,-156 161.5,-126 0.5,-126"/>
<text text-anchor="start" x="8.5" y="-144" font-family="Ubuntu-R" font-size="10.00">forcebalance.tinkerio.Ab</text>
<text text-anchor="middle" x="81" y="-133" font-family="Ubuntu-R" font-size="10.00">Initio_TINKER.energy_driver_all</text>
</g>
<!-- Node1&#45;&gt;Node1 -->
<g id="edge32" class="edge"><title>Node1&#45;&gt;Node1</title>
<path fill="none" stroke="midnightblue" d="M44.0859,-156.275C35.8828,-165.406 48.1875,-174 81,-174 100.482,-174 112.735,-170.97 117.758,-166.598"/>
<polygon fill="midnightblue" stroke="midnightblue" points="121.262,-166.327 117.914,-156.275 114.263,-166.221 121.262,-166.327"/>
</g>
<!-- Node2 -->
<g id="node3" class="node"><title>Node2</title>
<a xlink:href="classforcebalance_1_1tinkerio_1_1AbInitio__TINKER.html#a27835affec49391fc41b832839a2b0e8" target="_top" xlink:title="forcebalance.tinkerio.Ab\lInitio_TINKER.energy_force\l_driver_all">
<polygon fill="white" stroke="black" points="220.5,-120.5 220.5,-161.5 363.5,-161.5 363.5,-120.5 220.5,-120.5"/>
<text text-anchor="start" x="228.5" y="-149.5" font-family="Ubuntu-R" font-size="10.00">forcebalance.tinkerio.Ab</text>
<text text-anchor="start" x="228.5" y="-138.5" font-family="Ubuntu-R" font-size="10.00">Initio_TINKER.energy_force</text>
<text text-anchor="middle" x="292" y="-127.5" font-family="Ubuntu-R" font-size="10.00">_driver_all</text>
</a>
</g>
<!-- Node1&#45;&gt;Node2 -->
<g id="edge2" class="edge"><title>Node1&#45;&gt;Node2</title>
<path fill="none" stroke="midnightblue" d="M161.61,-141C177.413,-141 194.023,-141 209.876,-141"/>
<polygon fill="midnightblue" stroke="midnightblue" points="210.168,-144.5 220.168,-141 210.168,-137.5 210.168,-144.5"/>
</g>
<!-- Node8 -->
<g id="node18" class="node"><title>Node8</title>
<a xlink:href="classforcebalance_1_1openmmio_1_1Interaction__OpenMM.html#a535ff72686dc66b91f5dda007e252189" target="_top" xlink:title="forcebalance.openmmio.Interaction\l_OpenMM.energy_driver_all">
<polygon fill="white" stroke="black" points="198.5,-49 198.5,-79 385.5,-79 385.5,-49 198.5,-49"/>
<text text-anchor="start" x="206.5" y="-67" font-family="Ubuntu-R" font-size="10.00">forcebalance.openmmio.Interaction</text>
<text text-anchor="middle" x="292" y="-56" font-family="Ubuntu-R" font-size="10.00">_OpenMM.energy_driver_all</text>
</a>
</g>
<!-- Node1&#45;&gt;Node8 -->
<g id="edge20" class="edge"><title>Node1&#45;&gt;Node8</title>
<path fill="none" stroke="midnightblue" d="M122.793,-125.971C156.346,-113.609 204.069,-96.0273 240.117,-82.7465"/>
<polygon fill="midnightblue" stroke="midnightblue" points="241.779,-85.864 249.953,-79.1226 239.359,-79.2956 241.779,-85.864"/>
</g>
<!-- Node3 -->
<g id="node5" class="node"><title>Node3</title>
<a xlink:href="classforcebalance_1_1tinkerio_1_1AbInitio__TINKER.html#adeddb898c79da3df601bc742bc2c2be7" target="_top" xlink:title="forcebalance.tinkerio.Ab\lInitio_TINKER.__init__">
<polygon fill="white" stroke="black" points="450,-98 450,-128 582,-128 582,-98 450,-98"/>
<text text-anchor="start" x="458" y="-116" font-family="Ubuntu-R" font-size="10.00">forcebalance.tinkerio.Ab</text>
<text text-anchor="middle" x="516" y="-105" font-family="Ubuntu-R" font-size="10.00">Initio_TINKER.__init__</text>
</a>
</g>
<!-- Node2&#45;&gt;Node3 -->
<g id="edge4" class="edge"><title>Node2&#45;&gt;Node3</title>
<path fill="none" stroke="midnightblue" d="M363.547,-132.102C387.873,-129.034 415.203,-125.587 439.88,-122.475"/>
<polygon fill="midnightblue" stroke="midnightblue" points="440.431,-125.933 449.915,-121.209 439.555,-118.988 440.431,-125.933"/>
</g>
<!-- Node4 -->
<g id="node7" class="node"><title>Node4</title>
<a xlink:href="classforcebalance_1_1tinkerio_1_1AbInitio__TINKER.html#a4f0decc929da6183f1d0d6229fc9733d" target="_top" xlink:title="forcebalance.tinkerio.Ab\lInitio_TINKER.prepare\l_temp_directory">
<polygon fill="white" stroke="black" points="656,-125.5 656,-166.5 788,-166.5 788,-125.5 656,-125.5"/>
<text text-anchor="start" x="664" y="-154.5" font-family="Ubuntu-R" font-size="10.00">forcebalance.tinkerio.Ab</text>
<text text-anchor="start" x="664" y="-143.5" font-family="Ubuntu-R" font-size="10.00">Initio_TINKER.prepare</text>
<text text-anchor="middle" x="722" y="-132.5" font-family="Ubuntu-R" font-size="10.00">_temp_directory</text>
</a>
</g>
<!-- Node2&#45;&gt;Node4 -->
<g id="edge18" class="edge"><title>Node2&#45;&gt;Node4</title>
<path fill="none" stroke="midnightblue" d="M363.675,-141.826C441.387,-142.733 565.767,-144.187 645.39,-145.117"/>
<polygon fill="midnightblue" stroke="midnightblue" points="645.796,-148.622 655.836,-145.239 645.878,-141.622 645.796,-148.622"/>
</g>
<!-- Node3&#45;&gt;Node4 -->
<g id="edge6" class="edge"><title>Node3&#45;&gt;Node4</title>
<path fill="none" stroke="midnightblue" d="M582.108,-123.532C602.35,-126.807 624.832,-130.443 645.708,-133.82"/>
<polygon fill="midnightblue" stroke="midnightblue" points="645.38,-137.313 655.811,-135.455 646.498,-130.403 645.38,-137.313"/>
</g>
<!-- Node5 -->
<g id="node9" class="node"><title>Node5</title>
<a xlink:href="classforcebalance_1_1tinkerio_1_1AbInitio__TINKER.html#ab3835da0b951f77bfef0f14acd133c26" target="_top" xlink:title="forcebalance.tinkerio.Ab\lInitio_TINKER.energy_force\l_driver">
<polygon fill="white" stroke="black" points="877.5,-149.5 877.5,-190.5 1020.5,-190.5 1020.5,-149.5 877.5,-149.5"/>
<text text-anchor="start" x="885.5" y="-178.5" font-family="Ubuntu-R" font-size="10.00">forcebalance.tinkerio.Ab</text>
<text text-anchor="start" x="885.5" y="-167.5" font-family="Ubuntu-R" font-size="10.00">Initio_TINKER.energy_force</text>
<text text-anchor="middle" x="949" y="-156.5" font-family="Ubuntu-R" font-size="10.00">_driver</text>
</a>
</g>
<!-- Node4&#45;&gt;Node5 -->
<g id="edge8" class="edge"><title>Node4&#45;&gt;Node5</title>
<path fill="none" stroke="midnightblue" d="M788.079,-152.942C812.714,-155.569 841.061,-158.593 866.983,-161.358"/>
<polygon fill="midnightblue" stroke="midnightblue" points="866.848,-164.864 877.163,-162.444 867.591,-157.903 866.848,-164.864"/>
</g>
<!-- Node5&#45;&gt;Node1 -->
<g id="edge16" class="edge"><title>Node5&#45;&gt;Node1</title>
<path fill="none" stroke="midnightblue" d="M877.428,-172.837C852.354,-173.717 823.922,-174.568 798,-175 531.361,-179.443 462.492,-204.06 198,-170 179.325,-167.595 159.322,-163.254 141.276,-158.65"/>
<polygon fill="midnightblue" stroke="midnightblue" points="142.033,-155.231 131.472,-156.076 140.255,-162.001 142.033,-155.231"/>
</g>
<!-- Node6 -->
<g id="node11" class="node"><title>Node6</title>
<a xlink:href="namespaceforcebalance_1_1molecule.html#a0dd31eff88d2bed0884ab21a13261d42" target="_top" xlink:title="ONLY matches integers! If you have a decimal point? None shall pass! ">
<polygon fill="white" stroke="black" points="1100.5,-179.5 1100.5,-198.5 1247.5,-198.5 1247.5,-179.5 1100.5,-179.5"/>
<text text-anchor="middle" x="1174" y="-186.5" font-family="Ubuntu-R" font-size="10.00">forcebalance.molecule.isint</text>
</a>
</g>
<!-- Node5&#45;&gt;Node6 -->
<g id="edge10" class="edge"><title>Node5&#45;&gt;Node6</title>
<path fill="none" stroke="midnightblue" d="M1020.56,-176.012C1042.68,-177.896 1067.29,-179.994 1090.18,-181.944"/>
<polygon fill="midnightblue" stroke="midnightblue" points="1089.95,-185.437 1100.21,-182.798 1090.55,-178.462 1089.95,-185.437"/>
</g>
<!-- Node7 -->
<g id="node13" class="node"><title>Node7</title>
<a xlink:href="namespaceforcebalance_1_1molecule.html#afe989ffd119568047fc8265b1d329a70" target="_top" xlink:title="Matches ANY number; it can be a decimal, scientific notation, integer, or what have you...">
<polygon fill="white" stroke="black" points="1284,-160.5 1284,-179.5 1440,-179.5 1440,-160.5 1284,-160.5"/>
<text text-anchor="middle" x="1362" y="-167.5" font-family="Ubuntu-R" font-size="10.00">forcebalance.molecule.isfloat</text>
</a>
</g>
<!-- Node5&#45;&gt;Node7 -->
<g id="edge14" class="edge"><title>Node5&#45;&gt;Node7</title>
<path fill="none" stroke="midnightblue" d="M1020.65,-170C1090.69,-170 1198.14,-170 1273.52,-170"/>
<polygon fill="midnightblue" stroke="midnightblue" points="1273.94,-173.5 1283.94,-170 1273.94,-166.5 1273.94,-173.5"/>
</g>
<!-- Node6&#45;&gt;Node7 -->
<g id="edge12" class="edge"><title>Node6&#45;&gt;Node7</title>
<path fill="none" stroke="midnightblue" d="M1247.71,-181.572C1256.21,-180.705 1264.94,-179.813 1273.61,-178.927"/>
<polygon fill="midnightblue" stroke="midnightblue" points="1274.14,-182.391 1283.73,-177.893 1273.43,-175.427 1274.14,-182.391"/>
</g>
<!-- Node8&#45;&gt;Node8 -->
<g id="edge30" class="edge"><title>Node8&#45;&gt;Node8</title>
<path fill="none" stroke="midnightblue" d="M255.086,-79.2754C246.883,-88.4062 259.188,-97 292,-97 311.482,-97 323.735,-93.9704 328.758,-89.5975"/>
<polygon fill="midnightblue" stroke="midnightblue" points="332.262,-89.3272 328.914,-79.2754 325.263,-89.2213 332.262,-89.3272"/>
</g>
<!-- Node9 -->
<g id="node20" class="node"><title>Node9</title>
<a xlink:href="namespaceforcebalance_1_1openmmio.html#a9f9fc56475dbfcc94a40fef6a84ed25f" target="_top" xlink:title="forcebalance.openmmio.Update\lSimulationParameters">
<polygon fill="white" stroke="black" points="430.5,-0 430.5,-30 601.5,-30 601.5,-0 430.5,-0"/>
<text text-anchor="start" x="438.5" y="-18" font-family="Ubuntu-R" font-size="10.00">forcebalance.openmmio.Update</text>
<text text-anchor="middle" x="516" y="-7" font-family="Ubuntu-R" font-size="10.00">SimulationParameters</text>
</a>
</g>
<!-- Node8&#45;&gt;Node9 -->
<g id="edge22" class="edge"><title>Node8&#45;&gt;Node9</title>
<path fill="none" stroke="midnightblue" d="M361.116,-48.9654C385.089,-43.6741 412.215,-37.6867 436.943,-32.2288"/>
<polygon fill="midnightblue" stroke="midnightblue" points="438.002,-35.5793 447.013,-30.0062 436.493,-28.7439 438.002,-35.5793"/>
</g>
<!-- Node12 -->
<g id="node26" class="node"><title>Node12</title>
<a xlink:href="classforcebalance_1_1openmmio_1_1Interaction__OpenMM.html#a9813c1a24af88156703d05ebe57bf707" target="_top" xlink:title="forcebalance.openmmio.Interaction\l_OpenMM.interaction_driver_all">
<polygon fill="white" stroke="black" points="422.5,-49 422.5,-79 609.5,-79 609.5,-49 422.5,-49"/>
<text text-anchor="start" x="430.5" y="-67" font-family="Ubuntu-R" font-size="10.00">forcebalance.openmmio.Interaction</text>
<text text-anchor="middle" x="516" y="-56" font-family="Ubuntu-R" font-size="10.00">_OpenMM.interaction_driver_all</text>
</a>
</g>
<!-- Node8&#45;&gt;Node12 -->
<g id="edge28" class="edge"><title>Node8&#45;&gt;Node12</title>
<path fill="none" stroke="midnightblue" d="M385.54,-64C394.357,-64 403.334,-64 412.24,-64"/>
<polygon fill="midnightblue" stroke="midnightblue" points="412.253,-67.5001 422.253,-64 412.252,-60.5001 412.253,-67.5001"/>
</g>
<!-- Node10 -->
<g id="node22" class="node"><title>Node10</title>
<a xlink:href="namespaceforcebalance_1_1openmmio.html#a95d91538d72e354fc95433539c42450c" target="_top" xlink:title="forcebalance.openmmio.Set\lAmoebaVirtualExclusions">
<polygon fill="white" stroke="black" points="646,-0 646,-30 798,-30 798,-0 646,-0"/>
<text text-anchor="start" x="654" y="-18" font-family="Ubuntu-R" font-size="10.00">forcebalance.openmmio.Set</text>
<text text-anchor="middle" x="722" y="-7" font-family="Ubuntu-R" font-size="10.00">AmoebaVirtualExclusions</text>
</a>
</g>
<!-- Node9&#45;&gt;Node10 -->
<g id="edge24" class="edge"><title>Node9&#45;&gt;Node10</title>
<path fill="none" stroke="midnightblue" d="M601.742,-15C612.973,-15 624.492,-15 635.731,-15"/>
<polygon fill="midnightblue" stroke="midnightblue" points="635.959,-18.5001 645.959,-15 635.959,-11.5001 635.959,-18.5001"/>
</g>
<!-- Node11 -->
<g id="node24" class="node"><title>Node11</title>
<a xlink:href="namespaceforcebalance_1_1openmmio.html#aa085594c11e9cd00ce71f5a8ead72b68" target="_top" xlink:title="Create a multiple timestep velocity verlet with velocity randomization (VVVR) integrator. ">
<polygon fill="white" stroke="black" points="834,-5.5 834,-24.5 1064,-24.5 1064,-5.5 834,-5.5"/>
<text text-anchor="middle" x="949" y="-12.5" font-family="Ubuntu-R" font-size="10.00">forcebalance.openmmio.MTSVVVRIntegrator</text>
</a>
</g>
<!-- Node10&#45;&gt;Node11 -->
<g id="edge26" class="edge"><title>Node10&#45;&gt;Node11</title>
<path fill="none" stroke="midnightblue" d="M798.235,-15C806.499,-15 815.065,-15 823.725,-15"/>
<polygon fill="midnightblue" stroke="midnightblue" points="823.923,-18.5001 833.923,-15 823.923,-11.5001 823.923,-18.5001"/>
</g>
</g>
</svg>
