<?xml version="1.0" encoding="UTF-8" standalone="no"?>
<!DOCTYPE svg PUBLIC "-//W3C//DTD SVG 1.1//EN"
 "http://www.w3.org/Graphics/SVG/1.1/DTD/svg11.dtd">
<!-- Generated by graphviz version 2.28.0 (20111219.2309)
 -->
<!-- Title: forcebalance.output.ForceBalanceLogger.removeHandler Pages: 1 -->
<svg width="354pt" height="87pt"
 viewBox="0.00 0.00 354.00 87.00" xmlns="http://www.w3.org/2000/svg" xmlns:xlink="http://www.w3.org/1999/xlink">
<g id="graph1" class="graph" transform="scale(1 1) rotate(0) translate(4 83)">
<title>forcebalance.output.ForceBalanceLogger.removeHandler</title>
<polygon fill="white" stroke="white" points="-4,5 -4,-83 351,-83 351,5 -4,5"/>
<!-- Node1 -->
<g id="node1" class="node"><title>Node1</title>
<polygon fill="#bfbfbf" stroke="black" points="0,-49 0,-79 164,-79 164,-49 0,-49"/>
<text text-anchor="start" x="8" y="-67" font-family="Ubuntu-R" font-size="10.00">forcebalance.output.Force</text>
<text text-anchor="middle" x="82" y="-56" font-family="Ubuntu-R" font-size="10.00">BalanceLogger.removeHandler</text>
</g>
<!-- Node2 -->
<g id="node3" class="node"><title>Node2</title>
<a xlink:href="classforcebalance_1_1output_1_1ForceBalanceLogger.html#a7c6325e6fc8f6c99ef8ea9a3a3acff77" target="_top" xlink:title="forcebalance.output.Force\lBalanceLogger.addHandler">
<polygon fill="white" stroke="black" points="200,-49 200,-79 346,-79 346,-49 200,-49"/>
<text text-anchor="start" x="208" y="-67" font-family="Ubuntu-R" font-size="10.00">forcebalance.output.Force</text>
<text text-anchor="middle" x="273" y="-56" font-family="Ubuntu-R" font-size="10.00">BalanceLogger.addHandler</text>
</a>
</g>
<!-- Node1&#45;&gt;Node2 -->
<g id="edge2" class="edge"><title>Node1&#45;&gt;Node2</title>
<path fill="none" stroke="midnightblue" d="M164.25,-57.3093C172.643,-57.2337 181.179,-57.2304 189.584,-57.2993"/>
<polygon fill="midnightblue" stroke="midnightblue" points="189.714,-60.801 199.755,-57.4192 189.797,-53.8015 189.714,-60.801"/>
</g>
<!-- Node3 -->
<g id="node6" class="node"><title>Node3</title>
<a xlink:href="classforcebalance_1_1output_1_1ForceBalanceLogger.html#aebc2ee02e48bab63b37dfbe1f8db5683" target="_top" xlink:title="forcebalance.output.Force\lBalanceLogger.__init__">
<polygon fill="white" stroke="black" points="202,-0 202,-30 344,-30 344,-0 202,-0"/>
<text text-anchor="start" x="210" y="-18" font-family="Ubuntu-R" font-size="10.00">forcebalance.output.Force</text>
<text text-anchor="middle" x="273" y="-7" font-family="Ubuntu-R" font-size="10.00">BalanceLogger.__init__</text>
</a>
</g>
<!-- Node1&#45;&gt;Node3 -->
<g id="edge6" class="edge"><title>Node1&#45;&gt;Node3</title>
<path fill="none" stroke="midnightblue" d="M140.991,-48.9654C161.037,-43.7682 183.674,-37.8994 204.421,-32.5204"/>
<polygon fill="midnightblue" stroke="midnightblue" points="205.317,-35.9039 214.119,-30.0062 203.561,-29.1279 205.317,-35.9039"/>
</g>
<!-- Node2&#45;&gt;Node1 -->
<g id="edge4" class="edge"><title>Node2&#45;&gt;Node1</title>
<path fill="none" stroke="midnightblue" d="M199.755,-70.5808C191.409,-70.7099 182.817,-70.7651 174.261,-70.7465"/>
<polygon fill="midnightblue" stroke="midnightblue" points="174.269,-67.2466 164.25,-70.6907 174.23,-74.2465 174.269,-67.2466"/>
</g>
</g>
</svg>
