<?xml version="1.0" encoding="UTF-8" standalone="no"?>
<!DOCTYPE svg PUBLIC "-//W3C//DTD SVG 1.1//EN"
 "http://www.w3.org/Graphics/SVG/1.1/DTD/svg11.dtd">
<!-- Generated by graphviz version 2.28.0 (20111219.2309)
 -->
<!-- Title: forcebalance.nifty.LineChunker.__exit__ Pages: 1 -->
<svg width="580pt" height="77pt"
 viewBox="0.00 0.00 580.00 77.00" xmlns="http://www.w3.org/2000/svg" xmlns:xlink="http://www.w3.org/1999/xlink">
<g id="graph1" class="graph" transform="scale(1 1) rotate(0) translate(4 73)">
<title>forcebalance.nifty.LineChunker.__exit__</title>
<polygon fill="white" stroke="white" points="-4,5 -4,-73 577,-73 577,5 -4,5"/>
<!-- Node1 -->
<g id="node1" class="node"><title>Node1</title>
<polygon fill="#bfbfbf" stroke="black" points="0,-17 0,-47 164,-47 164,-17 0,-17"/>
<text text-anchor="start" x="8" y="-35" font-family="Ubuntu-R" font-size="10.00">forcebalance.nifty.LineChunker.</text>
<text text-anchor="middle" x="82" y="-24" font-family="Ubuntu-R" font-size="10.00">__exit__</text>
</g>
<!-- Node2 -->
<g id="node3" class="node"><title>Node2</title>
<a xlink:href="namespaceforcebalance_1_1nifty.html#abb8f59044961a12588e0653c2baa8b01" target="_top" xlink:title="forcebalance.nifty.warn\l_press_key">
<polygon fill="white" stroke="black" points="214.5,-39 214.5,-69 339.5,-69 339.5,-39 214.5,-39"/>
<text text-anchor="start" x="222.5" y="-57" font-family="Ubuntu-R" font-size="10.00">forcebalance.nifty.warn</text>
<text text-anchor="middle" x="277" y="-46" font-family="Ubuntu-R" font-size="10.00">_press_key</text>
</a>
</g>
<!-- Node1&#45;&gt;Node2 -->
<g id="edge2" class="edge"><title>Node1&#45;&gt;Node2</title>
<path fill="none" stroke="midnightblue" d="M164.01,-41.2344C177.278,-42.7467 190.947,-44.3049 203.978,-45.7903"/>
<polygon fill="midnightblue" stroke="midnightblue" points="203.941,-49.3086 214.273,-46.9637 204.733,-42.3536 203.941,-49.3086"/>
</g>
<!-- Node4 -->
<g id="node7" class="node"><title>Node4</title>
<a xlink:href="namespaceforcebalance_1_1nifty.html#a26e563ec71ed229c30f3d61d3448c8f1" target="_top" xlink:title="Prints a warning but will only do so once in a given run. ">
<polygon fill="white" stroke="black" points="200,-0.5 200,-19.5 354,-19.5 354,-0.5 200,-0.5"/>
<text text-anchor="middle" x="277" y="-7.5" font-family="Ubuntu-R" font-size="10.00">forcebalance.nifty.warn_once</text>
</a>
</g>
<!-- Node1&#45;&gt;Node4 -->
<g id="edge6" class="edge"><title>Node1&#45;&gt;Node4</title>
<path fill="none" stroke="midnightblue" d="M164.01,-22.7656C172.537,-21.7937 181.229,-20.8029 189.812,-19.8246"/>
<polygon fill="midnightblue" stroke="midnightblue" points="190.28,-23.2939 199.819,-18.6838 189.487,-16.339 190.28,-23.2939"/>
</g>
<!-- Node3 -->
<g id="node5" class="node"><title>Node3</title>
<a xlink:href="namespaceforcebalance_1_1nifty.html#a2fc81730e7efa7d138dd86f733507bfc" target="_top" xlink:title="Similar to the bultin function map(). ">
<polygon fill="white" stroke="black" points="390,-44.5 390,-63.5 572,-63.5 572,-44.5 390,-44.5"/>
<text text-anchor="middle" x="481" y="-51.5" font-family="Ubuntu-R" font-size="10.00">forcebalance.nifty.concurrent_map</text>
</a>
</g>
<!-- Node2&#45;&gt;Node3 -->
<g id="edge4" class="edge"><title>Node2&#45;&gt;Node3</title>
<path fill="none" stroke="midnightblue" d="M339.704,-54C352.278,-54 365.815,-54 379.344,-54"/>
<polygon fill="midnightblue" stroke="midnightblue" points="379.672,-57.5001 389.672,-54 379.672,-50.5001 379.672,-57.5001"/>
</g>
<!-- Node5 -->
<g id="node9" class="node"><title>Node5</title>
<a xlink:href="namespaceforcebalance_1_1nifty.html#a64b7c6ca7afa1c11681f5c2897c55cc3" target="_top" xlink:title="This function be given any of several variable types (single file name, file object, or list of lines, or a list of the above) and give a list of files: ">
<polygon fill="white" stroke="black" points="405.5,-0.5 405.5,-19.5 556.5,-19.5 556.5,-0.5 405.5,-0.5"/>
<text text-anchor="middle" x="481" y="-7.5" font-family="Ubuntu-R" font-size="10.00">forcebalance.nifty.multiopen</text>
</a>
</g>
<!-- Node4&#45;&gt;Node5 -->
<g id="edge8" class="edge"><title>Node4&#45;&gt;Node5</title>
<path fill="none" stroke="midnightblue" d="M354.08,-10C367.448,-10 381.437,-10 395.029,-10"/>
<polygon fill="midnightblue" stroke="midnightblue" points="395.329,-13.5001 405.329,-10 395.329,-6.5001 395.329,-13.5001"/>
</g>
</g>
</svg>
