<?xml version="1.0" encoding="UTF-8" standalone="no"?>
<!DOCTYPE svg PUBLIC "-//W3C//DTD SVG 1.1//EN"
 "http://www.w3.org/Graphics/SVG/1.1/DTD/svg11.dtd">
<!-- Generated by graphviz version 2.26.3 (20100126.1600)
 -->
<!-- Title: forcebalance.psi4io.Grid_Reader Pages: 1 -->
<svg width="144pt" height="174pt"
 viewBox="0.00 0.00 144.00 174.00" xmlns="http://www.w3.org/2000/svg" xmlns:xlink="http://www.w3.org/1999/xlink">
<g id="graph1" class="graph" transform="scale(1 1) rotate(0) translate(4 170)">
<title>forcebalance.psi4io.Grid_Reader</title>
<polygon fill="white" stroke="white" points="-4,5 -4,-170 141,-170 141,5 -4,5"/>
<!-- Node1 -->
<g id="node1" class="node"><title>Node1</title>
<polygon fill="#bfbfbf" stroke="black" points="2.5,-1 2.5,-35 133.5,-35 133.5,-1 2.5,-1"/>
<text text-anchor="start" x="10.5" y="-22" font-family="Ubuntu-R" font-size="10.00">forcebalance.psi4io.Grid</text>
<text text-anchor="middle" x="68" y="-9" font-family="Ubuntu-R" font-size="10.00">_Reader</text>
</g>
<!-- Node2 -->
<g id="node2" class="node"><title>Node2</title>
<a xlink:href="classforcebalance_1_1basereader_1_1BaseReader.html" target="_top" xlink:title="The &#39;reader&#39; class.">
<polygon fill="white" stroke="black" points="-0.5,-73 -0.5,-107 136.5,-107 136.5,-73 -0.5,-73"/>
<text text-anchor="start" x="7.5" y="-94" font-family="Ubuntu-R" font-size="10.00">forcebalance.basereader.</text>
<text text-anchor="middle" x="68" y="-81" font-family="Ubuntu-R" font-size="10.00">BaseReader</text>
</a>
</g>
<!-- Node2&#45;&gt;Node1 -->
<g id="edge2" class="edge"><title>Node2&#45;&gt;Node1</title>
<path fill="none" stroke="midnightblue" d="M68,-62.7193C68,-53.572 68,-43.6255 68,-35.4407"/>
<polygon fill="midnightblue" stroke="midnightblue" points="64.5001,-62.937 68,-72.937 71.5001,-62.937 64.5001,-62.937"/>
</g>
<!-- Node3 -->
<g id="node4" class="node"><title>Node3</title>
<polygon fill="white" stroke="#bfbfbf" points="45,-144.5 45,-165.5 91,-165.5 91,-144.5 45,-144.5"/>
<text text-anchor="middle" x="68" y="-152.5" font-family="Ubuntu-R" font-size="10.00">object</text>
</g>
<!-- Node3&#45;&gt;Node2 -->
<g id="edge4" class="edge"><title>Node3&#45;&gt;Node2</title>
<path fill="none" stroke="midnightblue" d="M68,-134.131C68,-125.405 68,-115.391 68,-107.11"/>
<polygon fill="midnightblue" stroke="midnightblue" points="64.5001,-134.267 68,-144.267 71.5001,-134.267 64.5001,-134.267"/>
</g>
</g>
</svg>
