<?xml version="1.0" encoding="UTF-8" standalone="no"?>
<!DOCTYPE svg PUBLIC "-//W3C//DTD SVG 1.1//EN"
 "http://www.w3.org/Graphics/SVG/1.1/DTD/svg11.dtd">
<!-- Generated by graphviz version 2.28.0 (20111219.2309)
 -->
<!-- Title: G Pages: 1 -->
<svg width="2604pt" height="141pt"
 viewBox="0.00 0.00 2604.00 141.00" xmlns="http://www.w3.org/2000/svg" xmlns:xlink="http://www.w3.org/1999/xlink">
<g id="graph1" class="graph" transform="scale(1 1) rotate(0) translate(4 137)">
<title>G</title>
<polygon fill="white" stroke="white" points="-4,5 -4,-137 2601,-137 2601,5 -4,5"/>
<!-- Node1 -->
<g id="node1" class="node"><title>Node1</title>
<polygon fill="#bfbfbf" stroke="black" points="0,-68.5 0,-87.5 306,-87.5 306,-68.5 0,-68.5"/>
<text text-anchor="middle" x="153" y="-75.5" font-family="Ubuntu-R" font-size="10.00">forcebalance.tinkerio.AbInitio_TINKER.energy_force_driver_all</text>
</g>
<!-- Node2 -->
<g id="node3" class="node"><title>Node2</title>
<a xlink:href="classforcebalance_1_1tinkerio_1_1AbInitio__TINKER.html#adeddb898c79da3df601bc742bc2c2be7" target="_top" xlink:title="Initialization; define a few core concepts.">
<polygon fill="white" stroke="black" points="382.5,-106.5 382.5,-125.5 613.5,-125.5 613.5,-106.5 382.5,-106.5"/>
<text text-anchor="middle" x="498" y="-113.5" font-family="Ubuntu-R" font-size="10.00">forcebalance.tinkerio.AbInitio_TINKER.__init__</text>
</a>
</g>
<!-- Node1&#45;&gt;Node2 -->
<g id="edge2" class="edge"><title>Node1&#45;&gt;Node2</title>
<path fill="none" stroke="midnightblue" d="M240.111,-87.54C289.132,-92.9709 350.651,-99.7864 401.196,-105.386"/>
<polygon fill="midnightblue" stroke="midnightblue" points="400.827,-108.867 411.151,-106.489 401.598,-101.909 400.827,-108.867"/>
</g>
<!-- Node3 -->
<g id="node5" class="node"><title>Node3</title>
<a xlink:href="classforcebalance_1_1tinkerio_1_1AbInitio__TINKER.html#a4f0decc929da6183f1d0d6229fc9733d" target="_top" xlink:title="Prepare the temporary directory, by default does nothing.">
<polygon fill="white" stroke="black" points="342.5,-68.5 342.5,-87.5 653.5,-87.5 653.5,-68.5 342.5,-68.5"/>
<text text-anchor="middle" x="498" y="-75.5" font-family="Ubuntu-R" font-size="10.00">forcebalance.tinkerio.AbInitio_TINKER.prepare_temp_directory</text>
</a>
</g>
<!-- Node1&#45;&gt;Node3 -->
<g id="edge4" class="edge"><title>Node1&#45;&gt;Node3</title>
<path fill="none" stroke="midnightblue" d="M306.442,-78C314.994,-78 323.61,-78 332.203,-78"/>
<polygon fill="midnightblue" stroke="midnightblue" points="332.276,-81.5001 342.276,-78 332.275,-74.5001 332.276,-81.5001"/>
</g>
<!-- Node4 -->
<g id="node7" class="node"><title>Node4</title>
<a xlink:href="classforcebalance_1_1tinkerio_1_1AbInitio__TINKER.html#ab3835da0b951f77bfef0f14acd133c26" target="_top" xlink:title="forcebalance.tinkerio.AbInitio_TINKER.energy_force_driver">
<polygon fill="white" stroke="black" points="690,-72.5 690,-91.5 980,-91.5 980,-72.5 690,-72.5"/>
<text text-anchor="middle" x="835" y="-79.5" font-family="Ubuntu-R" font-size="10.00">forcebalance.tinkerio.AbInitio_TINKER.energy_force_driver</text>
</a>
</g>
<!-- Node3&#45;&gt;Node4 -->
<g id="edge6" class="edge"><title>Node3&#45;&gt;Node4</title>
<path fill="none" stroke="midnightblue" d="M653.752,-79.8478C662.378,-79.9508 671.048,-80.0543 679.672,-80.1573"/>
<polygon fill="midnightblue" stroke="midnightblue" points="679.728,-83.6581 689.769,-80.2778 679.812,-76.6586 679.728,-83.6581"/>
</g>
<!-- Node5 -->
<g id="node9" class="node"><title>Node5</title>
<a xlink:href="namespaceforcebalance_1_1molecule.html#a0dd31eff88d2bed0884ab21a13261d42" target="_top" xlink:title="ONLY matches integers! If you have a decimal point? None shall pass!">
<polygon fill="white" stroke="black" points="1081.5,-113.5 1081.5,-132.5 1228.5,-132.5 1228.5,-113.5 1081.5,-113.5"/>
<text text-anchor="middle" x="1155" y="-120.5" font-family="Ubuntu-R" font-size="10.00">forcebalance.molecule.isint</text>
</a>
</g>
<!-- Node4&#45;&gt;Node5 -->
<g id="edge8" class="edge"><title>Node4&#45;&gt;Node5</title>
<path fill="none" stroke="midnightblue" d="M909.755,-91.5093C958.075,-97.7392 1021.31,-105.892 1071.33,-112.341"/>
<polygon fill="midnightblue" stroke="midnightblue" points="1071.1,-115.841 1081.47,-113.648 1072,-108.898 1071.1,-115.841"/>
</g>
<!-- Node6 -->
<g id="node11" class="node"><title>Node6</title>
<a xlink:href="namespaceforcebalance_1_1molecule.html#afe989ffd119568047fc8265b1d329a70" target="_top" xlink:title="Matches ANY number; it can be a decimal, scientific notation, integer, or what have you...">
<polygon fill="white" stroke="black" points="1411,-94.5 1411,-113.5 1567,-113.5 1567,-94.5 1411,-94.5"/>
<text text-anchor="middle" x="1489" y="-101.5" font-family="Ubuntu-R" font-size="10.00">forcebalance.molecule.isfloat</text>
</a>
</g>
<!-- Node4&#45;&gt;Node6 -->
<g id="edge12" class="edge"><title>Node4&#45;&gt;Node6</title>
<path fill="none" stroke="midnightblue" d="M980.295,-86.8689C1108.93,-91.2092 1293.02,-97.4208 1400.56,-101.05"/>
<polygon fill="midnightblue" stroke="midnightblue" points="1400.62,-104.553 1410.73,-101.393 1400.85,-97.5573 1400.62,-104.553"/>
</g>
<!-- Node7 -->
<g id="node14" class="node"><title>Node7</title>
<a xlink:href="classforcebalance_1_1tinkerio_1_1AbInitio__TINKER.html#aafbf91f1422d7b8f65a4aa588d1c6e18" target="_top" xlink:title="forcebalance.tinkerio.AbInitio_TINKER.energy_driver_all">
<polygon fill="white" stroke="black" points="1016.5,-19.5 1016.5,-38.5 1293.5,-38.5 1293.5,-19.5 1016.5,-19.5"/>
<text text-anchor="middle" x="1155" y="-26.5" font-family="Ubuntu-R" font-size="10.00">forcebalance.tinkerio.AbInitio_TINKER.energy_driver_all</text>
</a>
</g>
<!-- Node4&#45;&gt;Node7 -->
<g id="edge14" class="edge"><title>Node4&#45;&gt;Node7</title>
<path fill="none" stroke="midnightblue" d="M893.219,-72.4635C947.621,-63.3964 1029.45,-49.7587 1086.9,-40.1835"/>
<polygon fill="midnightblue" stroke="midnightblue" points="1087.68,-43.601 1096.97,-38.5046 1086.53,-36.6962 1087.68,-43.601"/>
</g>
<!-- Node5&#45;&gt;Node6 -->
<g id="edge10" class="edge"><title>Node5&#45;&gt;Node6</title>
<path fill="none" stroke="midnightblue" d="M1228.86,-118.83C1279.52,-115.931 1347.29,-112.053 1400.82,-108.989"/>
<polygon fill="midnightblue" stroke="midnightblue" points="1401.2,-112.474 1410.98,-108.408 1400.8,-105.485 1401.2,-112.474"/>
</g>
<!-- Node7&#45;&gt;Node1 -->
<g id="edge16" class="edge"><title>Node7&#45;&gt;Node1</title>
<path fill="none" stroke="midnightblue" d="M1016.29,-31.4123C854.658,-34.8633 578.61,-42.6895 342,-59 310.979,-61.1384 277.157,-64.298 246.86,-67.4294"/>
<polygon fill="midnightblue" stroke="midnightblue" points="246.312,-63.9676 236.73,-68.4887 247.04,-70.9296 246.312,-63.9676"/>
</g>
<!-- Node7&#45;&gt;Node7 -->
<g id="edge30" class="edge"><title>Node7&#45;&gt;Node7</title>
<path fill="none" stroke="midnightblue" d="M1106.08,-38.6119C1081.51,-47.4613 1097.81,-57 1155,-57 1202.36,-57 1221.68,-50.4584 1212.97,-43.184"/>
<polygon fill="midnightblue" stroke="midnightblue" points="1214.43,-39.9985 1203.92,-38.6119 1211.27,-46.2461 1214.43,-39.9985"/>
</g>
<!-- Node8 -->
<g id="node17" class="node"><title>Node8</title>
<a xlink:href="classforcebalance_1_1openmmio_1_1Interaction__OpenMM.html#a535ff72686dc66b91f5dda007e252189" target="_top" xlink:title="forcebalance.openmmio.Interaction_OpenMM.energy_driver_all">
<polygon fill="white" stroke="black" points="1330,-19.5 1330,-38.5 1648,-38.5 1648,-19.5 1330,-19.5"/>
<text text-anchor="middle" x="1489" y="-26.5" font-family="Ubuntu-R" font-size="10.00">forcebalance.openmmio.Interaction_OpenMM.energy_driver_all</text>
</a>
</g>
<!-- Node7&#45;&gt;Node8 -->
<g id="edge18" class="edge"><title>Node7&#45;&gt;Node8</title>
<path fill="none" stroke="midnightblue" d="M1293.91,-29C1302.43,-29 1311.05,-29 1319.67,-29"/>
<polygon fill="midnightblue" stroke="midnightblue" points="1319.79,-32.5001 1329.79,-29 1319.79,-25.5001 1319.79,-32.5001"/>
</g>
<!-- Node8&#45;&gt;Node8 -->
<g id="edge28" class="edge"><title>Node8&#45;&gt;Node8</title>
<path fill="none" stroke="midnightblue" d="M1437.94,-38.6119C1412.29,-47.4613 1429.31,-57 1489,-57 1538.9,-57 1558.98,-50.3344 1549.24,-42.978"/>
<polygon fill="midnightblue" stroke="midnightblue" points="1550.6,-39.7471 1540.06,-38.6119 1547.59,-46.0684 1550.6,-39.7471"/>
</g>
<!-- Node9 -->
<g id="node19" class="node"><title>Node9</title>
<a xlink:href="namespaceforcebalance_1_1openmmio.html#a9f9fc56475dbfcc94a40fef6a84ed25f" target="_top" xlink:title="forcebalance.openmmio.UpdateSimulationParameters">
<polygon fill="white" stroke="black" points="1713,-38.5 1713,-57.5 1991,-57.5 1991,-38.5 1713,-38.5"/>
<text text-anchor="middle" x="1852" y="-45.5" font-family="Ubuntu-R" font-size="10.00">forcebalance.openmmio.UpdateSimulationParameters</text>
</a>
</g>
<!-- Node8&#45;&gt;Node9 -->
<g id="edge20" class="edge"><title>Node8&#45;&gt;Node9</title>
<path fill="none" stroke="midnightblue" d="M1648.08,-37.3199C1666.31,-38.2796 1684.86,-39.2557 1702.95,-40.2082"/>
<polygon fill="midnightblue" stroke="midnightblue" points="1702.79,-43.7041 1712.96,-40.7346 1703.15,-36.7137 1702.79,-43.7041"/>
</g>
<!-- Node12 -->
<g id="node25" class="node"><title>Node12</title>
<a xlink:href="classforcebalance_1_1openmmio_1_1Interaction__OpenMM.html#a9813c1a24af88156703d05ebe57bf707" target="_top" xlink:title="forcebalance.openmmio.Interaction_OpenMM.interaction_driver_all">
<polygon fill="white" stroke="black" points="1684,-0.5 1684,-19.5 2020,-19.5 2020,-0.5 1684,-0.5"/>
<text text-anchor="middle" x="1852" y="-7.5" font-family="Ubuntu-R" font-size="10.00">forcebalance.openmmio.Interaction_OpenMM.interaction_driver_all</text>
</a>
</g>
<!-- Node8&#45;&gt;Node12 -->
<g id="edge26" class="edge"><title>Node8&#45;&gt;Node12</title>
<path fill="none" stroke="midnightblue" d="M1648.08,-20.6801C1656.59,-20.2319 1665.18,-19.7801 1673.75,-19.3288"/>
<polygon fill="midnightblue" stroke="midnightblue" points="1674.01,-22.8204 1683.81,-18.7995 1673.64,-15.8301 1674.01,-22.8204"/>
</g>
<!-- Node10 -->
<g id="node21" class="node"><title>Node10</title>
<a xlink:href="namespaceforcebalance_1_1openmmio.html#a95d91538d72e354fc95433539c42450c" target="_top" xlink:title="forcebalance.openmmio.SetAmoebaVirtualExclusions">
<polygon fill="white" stroke="black" points="2056.5,-38.5 2056.5,-57.5 2329.5,-57.5 2329.5,-38.5 2056.5,-38.5"/>
<text text-anchor="middle" x="2193" y="-45.5" font-family="Ubuntu-R" font-size="10.00">forcebalance.openmmio.SetAmoebaVirtualExclusions</text>
</a>
</g>
<!-- Node9&#45;&gt;Node10 -->
<g id="edge22" class="edge"><title>Node9&#45;&gt;Node10</title>
<path fill="none" stroke="midnightblue" d="M1991.37,-48C2009.45,-48 2028.01,-48 2046.2,-48"/>
<polygon fill="midnightblue" stroke="midnightblue" points="2046.26,-51.5001 2056.26,-48 2046.26,-44.5001 2046.26,-51.5001"/>
</g>
<!-- Node11 -->
<g id="node23" class="node"><title>Node11</title>
<a xlink:href="namespaceforcebalance_1_1openmmio.html#aa085594c11e9cd00ce71f5a8ead72b68" target="_top" xlink:title="Create a multiple timestep velocity verlet with velocity randomization (VVVR) integrator.">
<polygon fill="white" stroke="black" points="2366,-38.5 2366,-57.5 2596,-57.5 2596,-38.5 2366,-38.5"/>
<text text-anchor="middle" x="2481" y="-45.5" font-family="Ubuntu-R" font-size="10.00">forcebalance.openmmio.MTSVVVRIntegrator</text>
</a>
</g>
<!-- Node10&#45;&gt;Node11 -->
<g id="edge24" class="edge"><title>Node10&#45;&gt;Node11</title>
<path fill="none" stroke="midnightblue" d="M2329.88,-48C2338.39,-48 2346.92,-48 2355.37,-48"/>
<polygon fill="midnightblue" stroke="midnightblue" points="2355.63,-51.5001 2365.63,-48 2355.63,-44.5001 2355.63,-51.5001"/>
</g>
</g>
</svg>
