<?xml version="1.0" encoding="UTF-8" standalone="no"?>
<!DOCTYPE svg PUBLIC "-//W3C//DTD SVG 1.1//EN"
 "http://www.w3.org/Graphics/SVG/1.1/DTD/svg11.dtd">
<!-- Generated by graphviz version 2.32.0 (20130801.1845)
 -->
<!-- Title: forcebalance.forcefield.FF.addff Pages: 1 -->
<svg width="460pt" height="40pt"
 viewBox="0.00 0.00 460.00 40.00" xmlns="http://www.w3.org/2000/svg" xmlns:xlink="http://www.w3.org/1999/xlink">
<g id="graph0" class="graph" transform="scale(1 1) rotate(0) translate(4 36)">
<title>forcebalance.forcefield.FF.addff</title>
<polygon fill="white" stroke="white" points="-4,5 -4,-36 457,-36 457,5 -4,5"/>
<!-- Node1 -->
<g id="node1" class="node"><title>Node1</title>
<polygon fill="#bfbfbf" stroke="black" points="0.5335,-0 0.5335,-32 111.467,-32 111.467,-0 0.5335,-0"/>
<text text-anchor="start" x="8.5335" y="-19" font-family="Ubuntu-R" font-size="10.00">forcebalance.forcefield.</text>
<text text-anchor="middle" x="56" y="-7" font-family="Ubuntu-R" font-size="10.00">FF.addff</text>
</g>
<!-- Node2 -->
<g id="node2" class="node"><title>Node2</title>
<g id="a_node2"><a xlink:href="namespaceforcebalance_1_1nifty.html#abb8f59044961a12588e0653c2baa8b01" target="_top" xlink:title="forcebalance.nifty.warn\l_press_key">
<polygon fill="white" stroke="black" points="148.528,-0 148.528,-32 259.473,-32 259.473,-0 148.528,-0"/>
<text text-anchor="start" x="156.528" y="-19" font-family="Ubuntu-R" font-size="10.00">forcebalance.nifty.warn</text>
<text text-anchor="middle" x="204" y="-7" font-family="Ubuntu-R" font-size="10.00">_press_key</text>
</a>
</g>
</g>
<!-- Node1&#45;&gt;Node2 -->
<g id="edge1" class="edge"><title>Node1&#45;&gt;Node2</title>
<path fill="none" stroke="midnightblue" d="M111.78,-16C120.388,-16 129.356,-16 138.164,-16"/>
<polygon fill="midnightblue" stroke="midnightblue" points="138.398,-19.5001 148.398,-16 138.398,-12.5001 138.398,-19.5001"/>
</g>
<!-- Node3 -->
<g id="node3" class="node"><title>Node3</title>
<g id="a_node3"><a xlink:href="namespaceforcebalance_1_1nifty.html#a2fc81730e7efa7d138dd86f733507bfc" target="_top" xlink:title="Similar to the bultin function map().">
<polygon fill="white" stroke="black" points="296.035,-6 296.035,-26 451.965,-26 451.965,-6 296.035,-6"/>
<text text-anchor="middle" x="374" y="-13" font-family="Ubuntu-R" font-size="10.00">forcebalance.nifty.concurrent_map</text>
</a>
</g>
</g>
<!-- Node2&#45;&gt;Node3 -->
<g id="edge2" class="edge"><title>Node2&#45;&gt;Node3</title>
<path fill="none" stroke="midnightblue" d="M259.545,-16C267.968,-16 276.843,-16 285.768,-16"/>
<polygon fill="midnightblue" stroke="midnightblue" points="285.843,-19.5001 295.843,-16 285.843,-12.5001 285.843,-19.5001"/>
</g>
</g>
</svg>
