<?xml version="1.0" encoding="UTF-8" standalone="no"?>
<!DOCTYPE svg PUBLIC "-//W3C//DTD SVG 1.1//EN"
 "http://www.w3.org/Graphics/SVG/1.1/DTD/svg11.dtd">
<!-- Generated by graphviz version 2.26.3 (20100126.1600)
 -->
<!-- Title: forcebalance.gmxio.Interaction_GMX.interaction_driver_all Pages: 1 -->
<svg width="1428pt" height="267pt"
 viewBox="0.00 0.00 1428.00 266.84" xmlns="http://www.w3.org/2000/svg" xmlns:xlink="http://www.w3.org/1999/xlink">
<g id="graph1" class="graph" transform="scale(1 1) rotate(0) translate(4 262.843)">
<title>forcebalance.gmxio.Interaction_GMX.interaction_driver_all</title>
<polygon fill="white" stroke="white" points="-4,5 -4,-262.843 1425,-262.843 1425,5 -4,5"/>
<!-- Node1 -->
<g id="node1" class="node"><title>Node1</title>
<polygon fill="#bfbfbf" stroke="black" points="0,-172.843 0,-206.843 164,-206.843 164,-172.843 0,-172.843"/>
<text text-anchor="start" x="8" y="-193.843" font-family="Ubuntu-R" font-size="10.00">forcebalance.gmxio.Interaction</text>
<text text-anchor="middle" x="82" y="-180.843" font-family="Ubuntu-R" font-size="10.00">_GMX.interaction_driver_all</text>
</g>
<!-- Node2 -->
<g id="node3" class="node"><title>Node2</title>
<a xlink:href="namespaceforcebalance_1_1nifty.html#ac37d4fe58ef70ed546ebfc45d12f7a5d" target="_top" xlink:title="forcebalance.nifty.getWork\lQueue">
<polygon fill="white" stroke="black" points="210.5,-224.843 210.5,-258.843 351.5,-258.843 351.5,-224.843 210.5,-224.843"/>
<text text-anchor="start" x="218.5" y="-245.843" font-family="Ubuntu-R" font-size="10.00">forcebalance.nifty.getWork</text>
<text text-anchor="middle" x="281" y="-232.843" font-family="Ubuntu-R" font-size="10.00">Queue</text>
</a>
</g>
<!-- Node1&#45;&gt;Node2 -->
<g id="edge2" class="edge"><title>Node1&#45;&gt;Node2</title>
<path fill="none" stroke="midnightblue" d="M147.16,-206.87C165.972,-211.785 186.651,-217.189 206.01,-222.247"/>
<polygon fill="midnightblue" stroke="midnightblue" points="205.134,-225.636 215.694,-224.778 206.903,-218.863 205.134,-225.636"/>
</g>
<!-- Node3 -->
<g id="node5" class="node"><title>Node3</title>
<a xlink:href="namespaceforcebalance_1_1nifty.html#abb8f59044961a12588e0653c2baa8b01" target="_top" xlink:title="forcebalance.nifty.warn\l_press_key">
<polygon fill="white" stroke="black" points="218.5,-172.843 218.5,-206.843 343.5,-206.843 343.5,-172.843 218.5,-172.843"/>
<text text-anchor="start" x="226.5" y="-193.843" font-family="Ubuntu-R" font-size="10.00">forcebalance.nifty.warn</text>
<text text-anchor="middle" x="281" y="-180.843" font-family="Ubuntu-R" font-size="10.00">_press_key</text>
</a>
</g>
<!-- Node1&#45;&gt;Node3 -->
<g id="edge4" class="edge"><title>Node1&#45;&gt;Node3</title>
<path fill="none" stroke="midnightblue" d="M164.09,-189.843C178.65,-189.843 193.723,-189.843 208.01,-189.843"/>
<polygon fill="midnightblue" stroke="midnightblue" points="208.255,-193.343 218.255,-189.843 208.255,-186.343 208.255,-193.343"/>
</g>
<!-- Node5 -->
<g id="node9" class="node"><title>Node5</title>
<a xlink:href="namespaceforcebalance_1_1qchemio.html#a067c1b4f6695fc5dc20b5de66114bb7f" target="_top" xlink:title="forcebalance.qchemio.QChem\l_Dielectric_Energy">
<polygon fill="white" stroke="black" points="200.5,-108.843 200.5,-142.843 361.5,-142.843 361.5,-108.843 200.5,-108.843"/>
<text text-anchor="start" x="208.5" y="-129.843" font-family="Ubuntu-R" font-size="10.00">forcebalance.qchemio.QChem</text>
<text text-anchor="middle" x="281" y="-116.843" font-family="Ubuntu-R" font-size="10.00">_Dielectric_Energy</text>
</a>
</g>
<!-- Node1&#45;&gt;Node5 -->
<g id="edge8" class="edge"><title>Node1&#45;&gt;Node5</title>
<path fill="none" stroke="midnightblue" d="M135.067,-172.776C160.703,-164.531 191.641,-154.581 218.42,-145.969"/>
<polygon fill="midnightblue" stroke="midnightblue" points="219.633,-149.256 228.081,-142.862 217.49,-142.592 219.633,-149.256"/>
</g>
<!-- Node4 -->
<g id="node7" class="node"><title>Node4</title>
<a xlink:href="namespaceforcebalance_1_1nifty.html#a2fc81730e7efa7d138dd86f733507bfc" target="_top" xlink:title="Similar to the bultin function map().">
<polygon fill="white" stroke="black" points="398.5,-192.343 398.5,-213.343 579.5,-213.343 579.5,-192.343 398.5,-192.343"/>
<text text-anchor="middle" x="489" y="-200.343" font-family="Ubuntu-R" font-size="10.00">forcebalance.nifty.concurrent_map</text>
</a>
</g>
<!-- Node3&#45;&gt;Node4 -->
<g id="edge6" class="edge"><title>Node3&#45;&gt;Node4</title>
<path fill="none" stroke="midnightblue" d="M343.689,-193.761C357.819,-194.644 373.163,-195.603 388.41,-196.556"/>
<polygon fill="midnightblue" stroke="midnightblue" points="388.203,-200.05 398.402,-197.18 388.639,-193.063 388.203,-200.05"/>
</g>
<!-- Node6 -->
<g id="node11" class="node"><title>Node6</title>
<a xlink:href="namespaceforcebalance_1_1nifty.html#ad432b88307e1178b0690c0d350b1af36" target="_top" xlink:title="forcebalance.nifty.GoInto">
<polygon fill="white" stroke="black" points="787,-151.343 787,-172.343 921,-172.343 921,-151.343 787,-151.343"/>
<text text-anchor="middle" x="854" y="-159.343" font-family="Ubuntu-R" font-size="10.00">forcebalance.nifty.GoInto</text>
</a>
</g>
<!-- Node5&#45;&gt;Node6 -->
<g id="edge10" class="edge"><title>Node5&#45;&gt;Node6</title>
<path fill="none" stroke="midnightblue" d="M361.527,-133.829C373.74,-134.92 386.199,-135.965 398,-136.843 530.852,-146.726 685.75,-154.405 776.524,-158.516"/>
<polygon fill="midnightblue" stroke="midnightblue" points="776.581,-162.022 786.728,-158.976 776.896,-155.029 776.581,-162.022"/>
</g>
<!-- Node7 -->
<g id="node13" class="node"><title>Node7</title>
<a xlink:href="namespaceforcebalance_1_1nifty.html#a673f4a044169f5d8d822823989a836a7" target="_top" xlink:title="Submit a job to the Work Queue.">
<polygon fill="white" stroke="black" points="414,-70.3428 414,-91.3428 564,-91.3428 564,-70.3428 414,-70.3428"/>
<text text-anchor="middle" x="489" y="-78.3428" font-family="Ubuntu-R" font-size="10.00">forcebalance.nifty.queue_up</text>
</a>
</g>
<!-- Node5&#45;&gt;Node7 -->
<g id="edge12" class="edge"><title>Node5&#45;&gt;Node7</title>
<path fill="none" stroke="midnightblue" d="M359.636,-108.83C383.18,-103.737 408.571,-98.2432 430.571,-93.4836"/>
<polygon fill="midnightblue" stroke="midnightblue" points="431.388,-96.8879 440.422,-91.3525 429.908,-90.0462 431.388,-96.8879"/>
</g>
<!-- Node10 -->
<g id="node19" class="node"><title>Node10</title>
<a xlink:href="namespaceforcebalance_1_1nifty.html#a576de8c5b6f236280e07e73e39b2ab7c" target="_top" xlink:title="This function waits until the work queue is completely empty.">
<polygon fill="white" stroke="black" points="784.5,-109.343 784.5,-130.343 923.5,-130.343 923.5,-109.343 784.5,-109.343"/>
<text text-anchor="middle" x="854" y="-117.343" font-family="Ubuntu-R" font-size="10.00">forcebalance.nifty.wq_wait</text>
</a>
</g>
<!-- Node5&#45;&gt;Node10 -->
<g id="edge34" class="edge"><title>Node5&#45;&gt;Node10</title>
<path fill="none" stroke="midnightblue" d="M361.579,-124.999C470.872,-123.855 664.94,-121.822 773.956,-120.681"/>
<polygon fill="midnightblue" stroke="midnightblue" points="774.272,-124.178 784.235,-120.573 774.199,-117.178 774.272,-124.178"/>
</g>
<!-- Node14 -->
<g id="node29" class="node"><title>Node14</title>
<a xlink:href="namespaceforcebalance_1_1nifty.html#ab04e8690d099db2379dc860e0d040120" target="_top" xlink:title="forcebalance.nifty.Leave">
<polygon fill="white" stroke="black" points="788.5,-2.34279 788.5,-23.3428 919.5,-23.3428 919.5,-2.34279 788.5,-2.34279"/>
<text text-anchor="middle" x="854" y="-10.3428" font-family="Ubuntu-R" font-size="10.00">forcebalance.nifty.Leave</text>
</a>
</g>
<!-- Node5&#45;&gt;Node14 -->
<g id="edge32" class="edge"><title>Node5&#45;&gt;Node14</title>
<path fill="none" stroke="midnightblue" d="M307.481,-108.635C330.603,-94.2286 365.462,-73.9735 398,-60.8428 544.22,-1.83555 590.497,4.57012 748,-2.84279 757.832,-3.30555 768.16,-4.00846 778.353,-4.8316"/>
<polygon fill="midnightblue" stroke="midnightblue" points="778.216,-8.33252 788.476,-5.69037 778.808,-1.35756 778.216,-8.33252"/>
</g>
<!-- Node8 -->
<g id="node15" class="node"><title>Node8</title>
<a xlink:href="namespaceforcebalance_1_1nifty.html#a5d5abeb4a185fde64721d044831e18ee" target="_top" xlink:title="Submit a job to the Work Queue.">
<polygon fill="white" stroke="black" points="616,-11.8428 616,-45.8428 748,-45.8428 748,-11.8428 616,-11.8428"/>
<text text-anchor="start" x="624" y="-32.8428" font-family="Ubuntu-R" font-size="10.00">forcebalance.nifty.queue</text>
<text text-anchor="middle" x="682" y="-19.8428" font-family="Ubuntu-R" font-size="10.00">_up_src_dest</text>
</a>
</g>
<!-- Node7&#45;&gt;Node8 -->
<g id="edge14" class="edge"><title>Node7&#45;&gt;Node8</title>
<path fill="none" stroke="midnightblue" d="M528.056,-70.3198C551.208,-64.0821 581.295,-55.9758 608.721,-48.5863"/>
<polygon fill="midnightblue" stroke="midnightblue" points="609.943,-51.8821 618.688,-45.901 608.121,-45.1232 609.943,-51.8821"/>
</g>
<!-- Node9 -->
<g id="node17" class="node"><title>Node9</title>
<a xlink:href="namespaceforcebalance_1_1nifty.html#a374aac2ef003be02fab49b20ff0a82f0" target="_top" xlink:title="This function waits ten seconds to see if a task in the Work Queue has finished.">
<polygon fill="white" stroke="black" points="624.5,-63.8428 624.5,-97.8428 739.5,-97.8428 739.5,-63.8428 624.5,-63.8428"/>
<text text-anchor="start" x="632.5" y="-84.8428" font-family="Ubuntu-R" font-size="10.00">forcebalance.nifty.wq</text>
<text text-anchor="middle" x="682" y="-71.8428" font-family="Ubuntu-R" font-size="10.00">_wait1</text>
</a>
</g>
<!-- Node7&#45;&gt;Node9 -->
<g id="edge16" class="edge"><title>Node7&#45;&gt;Node9</title>
<path fill="none" stroke="midnightblue" d="M564.171,-80.8428C580.581,-80.8428 597.857,-80.8428 613.97,-80.8428"/>
<polygon fill="midnightblue" stroke="midnightblue" points="614.369,-84.3429 624.369,-80.8428 614.369,-77.3429 614.369,-84.3429"/>
</g>
<!-- Node9&#45;&gt;Node6 -->
<g id="edge26" class="edge"><title>Node9&#45;&gt;Node6</title>
<path fill="none" stroke="midnightblue" d="M708.004,-98.0285C728.133,-110.795 757.035,-127.98 784,-139.843 790.734,-142.805 797.992,-145.551 805.195,-148.026"/>
<polygon fill="midnightblue" stroke="midnightblue" points="804.335,-151.428 814.928,-151.23 806.524,-144.779 804.335,-151.428"/>
</g>
<!-- Node9&#45;&gt;Node10 -->
<g id="edge18" class="edge"><title>Node9&#45;&gt;Node10</title>
<path fill="none" stroke="midnightblue" d="M739.752,-93.9377C758.448,-98.1769 779.148,-102.87 797.734,-107.085"/>
<polygon fill="midnightblue" stroke="midnightblue" points="797.001,-110.507 807.527,-109.305 798.548,-103.681 797.001,-110.507"/>
</g>
<!-- Node11 -->
<g id="node21" class="node"><title>Node11</title>
<a xlink:href="namespaceforcebalance_1_1nifty.html#ac9ab6c5543a2e3080061e0024850edf3" target="_top" xlink:title="forcebalance.nifty.allsplit">
<polygon fill="white" stroke="black" points="960,-89.3428 960,-110.343 1092,-110.343 1092,-89.3428 960,-89.3428"/>
<text text-anchor="middle" x="1026" y="-97.3428" font-family="Ubuntu-R" font-size="10.00">forcebalance.nifty.allsplit</text>
</a>
</g>
<!-- Node9&#45;&gt;Node11 -->
<g id="edge28" class="edge"><title>Node9&#45;&gt;Node11</title>
<path fill="none" stroke="midnightblue" d="M739.578,-84.023C797.193,-87.2052 886.157,-92.1189 949.639,-95.6252"/>
<polygon fill="midnightblue" stroke="midnightblue" points="949.817,-99.1402 959.995,-96.1971 950.203,-92.1509 949.817,-99.1402"/>
</g>
<!-- Node9&#45;&gt;Node14 -->
<g id="edge30" class="edge"><title>Node9&#45;&gt;Node14</title>
<path fill="none" stroke="midnightblue" d="M725.317,-63.7925C732.879,-60.812 740.67,-57.7389 748,-54.8428 771.257,-45.6544 797.373,-35.3069 817.863,-27.1817"/>
<polygon fill="midnightblue" stroke="midnightblue" points="819.427,-30.3265 827.433,-23.3863 816.847,-23.8196 819.427,-30.3265"/>
</g>
<!-- Node10&#45;&gt;Node11 -->
<g id="edge20" class="edge"><title>Node10&#45;&gt;Node11</title>
<path fill="none" stroke="midnightblue" d="M923.959,-111.708C932.516,-110.713 941.292,-109.693 949.932,-108.688"/>
<polygon fill="midnightblue" stroke="midnightblue" points="950.463,-112.15 959.992,-107.518 949.655,-105.197 950.463,-112.15"/>
</g>
<!-- Node12 -->
<g id="node23" class="node"><title>Node12</title>
<a xlink:href="namespaceforcebalance_1_1nifty.html#ae87c7def5f8edf2ec30737bdb1d2636f" target="_top" xlink:title="forcebalance.nifty.Missing\lFileInspection">
<polygon fill="white" stroke="black" points="1128,-82.8428 1128,-116.843 1266,-116.843 1266,-82.8428 1128,-82.8428"/>
<text text-anchor="start" x="1136" y="-103.843" font-family="Ubuntu-R" font-size="10.00">forcebalance.nifty.Missing</text>
<text text-anchor="middle" x="1197" y="-90.8428" font-family="Ubuntu-R" font-size="10.00">FileInspection</text>
</a>
</g>
<!-- Node11&#45;&gt;Node12 -->
<g id="edge22" class="edge"><title>Node11&#45;&gt;Node12</title>
<path fill="none" stroke="midnightblue" d="M1092.11,-99.8428C1100.56,-99.8428 1109.27,-99.8428 1117.89,-99.8428"/>
<polygon fill="midnightblue" stroke="midnightblue" points="1117.95,-103.343 1127.95,-99.8428 1117.95,-96.3429 1117.95,-103.343"/>
</g>
<!-- Node13 -->
<g id="node25" class="node"><title>Node13</title>
<a xlink:href="namespaceforcebalance_1_1nifty.html#a0cf4e58f90acf20e3d6224be2354082c" target="_top" xlink:title="forcebalance.nifty.link\l_dir_contents">
<polygon fill="white" stroke="black" points="1302,-82.8428 1302,-116.843 1420,-116.843 1420,-82.8428 1302,-82.8428"/>
<text text-anchor="start" x="1310" y="-103.843" font-family="Ubuntu-R" font-size="10.00">forcebalance.nifty.link</text>
<text text-anchor="middle" x="1361" y="-90.8428" font-family="Ubuntu-R" font-size="10.00">_dir_contents</text>
</a>
</g>
<!-- Node12&#45;&gt;Node13 -->
<g id="edge24" class="edge"><title>Node12&#45;&gt;Node13</title>
<path fill="none" stroke="midnightblue" d="M1266.08,-99.8428C1274.54,-99.8428 1283.19,-99.8428 1291.66,-99.8428"/>
<polygon fill="midnightblue" stroke="midnightblue" points="1291.87,-103.343 1301.87,-99.8428 1291.87,-96.3429 1291.87,-103.343"/>
</g>
</g>
</svg>
