<?xml version="1.0" encoding="UTF-8" standalone="no"?>
<!DOCTYPE svg PUBLIC "-//W3C//DTD SVG 1.1//EN"
 "http://www.w3.org/Graphics/SVG/1.1/DTD/svg11.dtd">
<!-- Generated by graphviz version 2.26.3 (20100126.1600)
 -->
<!-- Title: forcebalance.tinkerio.Vibration_TINKER.__init__ Pages: 1 -->
<svg width="556pt" height="134pt"
 viewBox="0.00 0.00 556.00 134.00" xmlns="http://www.w3.org/2000/svg" xmlns:xlink="http://www.w3.org/1999/xlink">
<g id="graph1" class="graph" transform="scale(1 1) rotate(0) translate(4 130)">
<title>forcebalance.tinkerio.Vibration_TINKER.__init__</title>
<polygon fill="white" stroke="white" points="-4,5 -4,-130 553,-130 553,5 -4,5"/>
<!-- Node1 -->
<g id="node1" class="node"><title>Node1</title>
<polygon fill="#bfbfbf" stroke="black" points="0.5,-64 0.5,-98 161.5,-98 161.5,-64 0.5,-64"/>
<text text-anchor="start" x="8.5" y="-85" font-family="Ubuntu-R" font-size="10.00">forcebalance.tinkerio.Vibration</text>
<text text-anchor="middle" x="81" y="-72" font-family="Ubuntu-R" font-size="10.00">_TINKER.__init__</text>
</g>
<!-- Node2 -->
<g id="node3" class="node"><title>Node2</title>
<a xlink:href="namespaceforcebalance_1_1nifty.html#ab182a9da2a2f42cf45942fbee6acf9b1" target="_top" xlink:title="forcebalance.nifty.LinkFile">
<polygon fill="white" stroke="black" points="201,-95.5 201,-116.5 337,-116.5 337,-95.5 201,-95.5"/>
<text text-anchor="middle" x="269" y="-103.5" font-family="Ubuntu-R" font-size="10.00">forcebalance.nifty.LinkFile</text>
</a>
</g>
<!-- Node1&#45;&gt;Node2 -->
<g id="edge2" class="edge"><title>Node1&#45;&gt;Node2</title>
<path fill="none" stroke="midnightblue" d="M161.547,-91.711C171.237,-92.9996 181.121,-94.314 190.777,-95.598"/>
<polygon fill="midnightblue" stroke="midnightblue" points="190.365,-99.0739 200.739,-96.9227 191.287,-92.135 190.365,-99.0739"/>
</g>
<!-- Node4 -->
<g id="node7" class="node"><title>Node4</title>
<a xlink:href="namespaceforcebalance_1_1tinkerio.html#a9cde7bd64c6f5286c1f33a39211d5a11" target="_top" xlink:title="Copies a TINKER .key file but changes the parameter keyword as necessary to reflect the ForceBalance ...">
<polygon fill="white" stroke="black" points="198.5,-40 198.5,-74 339.5,-74 339.5,-40 198.5,-40"/>
<text text-anchor="start" x="206.5" y="-61" font-family="Ubuntu-R" font-size="10.00">forcebalance.tinkerio.write</text>
<text text-anchor="middle" x="269" y="-48" font-family="Ubuntu-R" font-size="10.00">_key_with_prm</text>
</a>
</g>
<!-- Node1&#45;&gt;Node4 -->
<g id="edge6" class="edge"><title>Node1&#45;&gt;Node4</title>
<path fill="none" stroke="midnightblue" d="M161.547,-70.7174C170.453,-69.5804 179.524,-68.4224 188.431,-67.2854"/>
<polygon fill="midnightblue" stroke="midnightblue" points="188.923,-70.751 198.4,-66.0128 188.037,-63.8074 188.923,-70.751"/>
</g>
<!-- Node3 -->
<g id="node5" class="node"><title>Node3</title>
<a xlink:href="namespaceforcebalance_1_1nifty.html#a25efa4d501ad852a234721af18978f7e" target="_top" xlink:title="Remove the file if it exists (doesn&#39;t return an error).">
<polygon fill="white" stroke="black" points="392.5,-92 392.5,-126 531.5,-126 531.5,-92 392.5,-92"/>
<text text-anchor="start" x="400.5" y="-113" font-family="Ubuntu-R" font-size="10.00">forcebalance.nifty.remove</text>
<text text-anchor="middle" x="462" y="-100" font-family="Ubuntu-R" font-size="10.00">_if_exists</text>
</a>
</g>
<!-- Node2&#45;&gt;Node3 -->
<g id="edge4" class="edge"><title>Node2&#45;&gt;Node3</title>
<path fill="none" stroke="midnightblue" d="M337.045,-107.058C351.594,-107.284 367.091,-107.525 382.042,-107.757"/>
<polygon fill="midnightblue" stroke="midnightblue" points="382.234,-111.26 392.287,-107.916 382.343,-104.261 382.234,-111.26"/>
</g>
<!-- Node5 -->
<g id="node9" class="node"><title>Node5</title>
<a xlink:href="namespaceforcebalance_1_1nifty.html#abb8f59044961a12588e0653c2baa8b01" target="_top" xlink:title="forcebalance.nifty.warn\l_press_key">
<polygon fill="white" stroke="black" points="399.5,-40 399.5,-74 524.5,-74 524.5,-40 399.5,-40"/>
<text text-anchor="start" x="407.5" y="-61" font-family="Ubuntu-R" font-size="10.00">forcebalance.nifty.warn</text>
<text text-anchor="middle" x="462" y="-48" font-family="Ubuntu-R" font-size="10.00">_press_key</text>
</a>
</g>
<!-- Node4&#45;&gt;Node5 -->
<g id="edge8" class="edge"><title>Node4&#45;&gt;Node5</title>
<path fill="none" stroke="midnightblue" d="M339.77,-57C355.744,-57 372.732,-57 388.803,-57"/>
<polygon fill="midnightblue" stroke="midnightblue" points="389.211,-60.5001 399.211,-57 389.211,-53.5001 389.211,-60.5001"/>
</g>
<!-- Node6 -->
<g id="node11" class="node"><title>Node6</title>
<a xlink:href="namespaceforcebalance_1_1tinkerio.html#aa82c424420ad59b6a78b273d6c1fd469" target="_top" xlink:title="Performs in&#45;place modification of a TINKER .key file.">
<polygon fill="white" stroke="black" points="376,-0.5 376,-21.5 548,-21.5 548,-0.5 376,-0.5"/>
<text text-anchor="middle" x="462" y="-8.5" font-family="Ubuntu-R" font-size="10.00">forcebalance.tinkerio.modify_key</text>
</a>
</g>
<!-- Node4&#45;&gt;Node6 -->
<g id="edge10" class="edge"><title>Node4&#45;&gt;Node6</title>
<path fill="none" stroke="midnightblue" d="M338.62,-39.9775C351.063,-36.9653 363.911,-33.8744 376,-31 385.843,-28.6597 396.326,-26.1968 406.467,-23.83"/>
<polygon fill="midnightblue" stroke="midnightblue" points="407.51,-27.1807 416.456,-21.5034 405.922,-20.3632 407.51,-27.1807"/>
</g>
</g>
</svg>
