<?xml version="1.0" encoding="UTF-8" standalone="no"?>
<!DOCTYPE svg PUBLIC "-//W3C//DTD SVG 1.1//EN"
 "http://www.w3.org/Graphics/SVG/1.1/DTD/svg11.dtd">
<!-- Generated by graphviz version 2.26.3 (20100126.1600)
 -->
<!-- Title: forcebalance.abinitio.AbInitio.read_topology Pages: 1 -->
<svg width="1640pt" height="248pt"
 viewBox="0.00 0.00 1640.00 247.64" xmlns="http://www.w3.org/2000/svg" xmlns:xlink="http://www.w3.org/1999/xlink">
<g id="graph1" class="graph" transform="scale(1 1) rotate(0) translate(4 243.645)">
<title>forcebalance.abinitio.AbInitio.read_topology</title>
<polygon fill="white" stroke="white" points="-4,5 -4,-243.645 1637,-243.645 1637,5 -4,5"/>
<!-- Node1 -->
<g id="node1" class="node"><title>Node1</title>
<polygon fill="#bfbfbf" stroke="black" points="0.5,-36 0.5,-70 131.5,-70 131.5,-36 0.5,-36"/>
<text text-anchor="start" x="8.5" y="-57" font-family="Ubuntu-R" font-size="10.00">forcebalance.abinitio.Ab</text>
<text text-anchor="middle" x="66" y="-44" font-family="Ubuntu-R" font-size="10.00">Initio.read_topology</text>
</g>
<!-- Node2 -->
<g id="node3" class="node"><title>Node2</title>
<a xlink:href="classforcebalance_1_1abinitio_1_1AbInitio.html#a7475857193eefd4edd020d4f2a8fec17" target="_top" xlink:title="forcebalance.abinitio.Ab\lInitio.build_invdist">
<polygon fill="white" stroke="black" points="168.5,-36 168.5,-70 299.5,-70 299.5,-36 168.5,-36"/>
<text text-anchor="start" x="176.5" y="-57" font-family="Ubuntu-R" font-size="10.00">forcebalance.abinitio.Ab</text>
<text text-anchor="middle" x="234" y="-44" font-family="Ubuntu-R" font-size="10.00">Initio.build_invdist</text>
</a>
</g>
<!-- Node1&#45;&gt;Node2 -->
<g id="edge2" class="edge"><title>Node1&#45;&gt;Node2</title>
<path fill="none" stroke="midnightblue" d="M131.916,-53C140.505,-53 149.359,-53 158.096,-53"/>
<polygon fill="midnightblue" stroke="midnightblue" points="158.274,-56.5001 168.274,-53 158.274,-49.5001 158.274,-56.5001"/>
</g>
<!-- Node3 -->
<g id="node5" class="node"><title>Node3</title>
<a xlink:href="classforcebalance_1_1gmxio_1_1AbInitio__GMX.html#ae17e3c379d82935d725dd31f01df23e5" target="_top" xlink:title="Call mdrun in order to update the virtual site positions.">
<polygon fill="white" stroke="black" points="336,-66 336,-100 502,-100 502,-66 336,-66"/>
<text text-anchor="start" x="344" y="-87" font-family="Ubuntu-R" font-size="10.00">forcebalance.gmxio.AbInitio</text>
<text text-anchor="middle" x="419" y="-74" font-family="Ubuntu-R" font-size="10.00">_GMX.generate_vsite_positions</text>
</a>
</g>
<!-- Node2&#45;&gt;Node3 -->
<g id="edge4" class="edge"><title>Node2&#45;&gt;Node3</title>
<path fill="none" stroke="midnightblue" d="M299.745,-63.6613C308.272,-65.0441 317.13,-66.4806 325.995,-67.9181"/>
<polygon fill="midnightblue" stroke="midnightblue" points="325.558,-71.3928 335.989,-69.5388 326.678,-64.4831 325.558,-71.3928"/>
</g>
<!-- Node14 -->
<g id="node30" class="node"><title>Node14</title>
<a xlink:href="classforcebalance_1_1abinitio_1_1AbInitio.html#afbf86c26158a68cae7460b4106809fdd" target="_top" xlink:title="forcebalance.abinitio.Ab\lInitio.compute_netforce\l_torque">
<polygon fill="white" stroke="black" points="353.5,-0.5 353.5,-47.5 484.5,-47.5 484.5,-0.5 353.5,-0.5"/>
<text text-anchor="start" x="361.5" y="-34.5" font-family="Ubuntu-R" font-size="10.00">forcebalance.abinitio.Ab</text>
<text text-anchor="start" x="361.5" y="-21.5" font-family="Ubuntu-R" font-size="10.00">Initio.compute_netforce</text>
<text text-anchor="middle" x="419" y="-8.5" font-family="Ubuntu-R" font-size="10.00">_torque</text>
</a>
</g>
<!-- Node2&#45;&gt;Node14 -->
<g id="edge32" class="edge"><title>Node2&#45;&gt;Node14</title>
<path fill="none" stroke="midnightblue" d="M299.745,-42.694C313.921,-40.4718 329.015,-38.1058 343.529,-35.8305"/>
<polygon fill="midnightblue" stroke="midnightblue" points="344.129,-39.2793 353.467,-34.2728 343.045,-32.3637 344.129,-39.2793"/>
</g>
<!-- Node4 -->
<g id="node7" class="node"><title>Node4</title>
<a xlink:href="classforcebalance_1_1gmxio_1_1AbInitio__GMX.html#a1d03ae8104bcecacf96884058f2698af" target="_top" xlink:title="forcebalance.gmxio.AbInitio\l_GMX.__init__">
<polygon fill="white" stroke="black" points="538,-111 538,-145 686,-145 686,-111 538,-111"/>
<text text-anchor="start" x="546" y="-132" font-family="Ubuntu-R" font-size="10.00">forcebalance.gmxio.AbInitio</text>
<text text-anchor="middle" x="612" y="-119" font-family="Ubuntu-R" font-size="10.00">_GMX.__init__</text>
</a>
</g>
<!-- Node3&#45;&gt;Node4 -->
<g id="edge6" class="edge"><title>Node3&#45;&gt;Node4</title>
<path fill="none" stroke="midnightblue" d="M491.965,-100.013C504.094,-102.841 516.751,-105.792 529.105,-108.672"/>
<polygon fill="midnightblue" stroke="midnightblue" points="528.398,-112.101 538.932,-110.963 529.988,-105.284 528.398,-112.101"/>
</g>
<!-- Node5 -->
<g id="node9" class="node"><title>Node5</title>
<a xlink:href="classforcebalance_1_1gmxio_1_1AbInitio__GMX.html#aba138ca4195a1737f2f00bd8c5f3ca07" target="_top" xlink:title="This function parses the GROMACS topology file (.top) which contains a listing of the molecules in th...">
<polygon fill="white" stroke="black" points="722,-134 722,-168 870,-168 870,-134 722,-134"/>
<text text-anchor="start" x="730" y="-155" font-family="Ubuntu-R" font-size="10.00">forcebalance.gmxio.AbInitio</text>
<text text-anchor="middle" x="796" y="-142" font-family="Ubuntu-R" font-size="10.00">_GMX.read_topology</text>
</a>
</g>
<!-- Node4&#45;&gt;Node5 -->
<g id="edge8" class="edge"><title>Node4&#45;&gt;Node5</title>
<path fill="none" stroke="midnightblue" d="M686.044,-137.256C694.514,-138.314 703.195,-139.399 711.784,-140.473"/>
<polygon fill="midnightblue" stroke="midnightblue" points="711.451,-143.958 721.808,-141.726 712.319,-137.013 711.451,-143.958"/>
</g>
<!-- Node6 -->
<g id="node11" class="node"><title>Node6</title>
<a xlink:href="classforcebalance_1_1gmxio_1_1AbInitio__GMX.html#ab2eac76585bdb8401812f0c8e465a44e" target="_top" xlink:title="forcebalance.gmxio.AbInitio\l_GMX.prepare_temp_directory">
<polygon fill="white" stroke="black" points="906.5,-145 906.5,-179 1067.5,-179 1067.5,-145 906.5,-145"/>
<text text-anchor="start" x="914.5" y="-166" font-family="Ubuntu-R" font-size="10.00">forcebalance.gmxio.AbInitio</text>
<text text-anchor="middle" x="987" y="-153" font-family="Ubuntu-R" font-size="10.00">_GMX.prepare_temp_directory</text>
</a>
</g>
<!-- Node5&#45;&gt;Node6 -->
<g id="edge10" class="edge"><title>Node5&#45;&gt;Node6</title>
<path fill="none" stroke="midnightblue" d="M870.119,-155.269C878.636,-155.759 887.391,-156.263 896.096,-156.765"/>
<polygon fill="midnightblue" stroke="midnightblue" points="896.089,-160.27 906.274,-157.351 896.492,-153.282 896.089,-160.27"/>
</g>
<!-- Node7 -->
<g id="node13" class="node"><title>Node7</title>
<a xlink:href="namespaceforcebalance_1_1nifty.html#abb8f59044961a12588e0653c2baa8b01" target="_top" xlink:title="forcebalance.nifty.warn\l_press_key">
<polygon fill="white" stroke="black" points="1115.5,-191 1115.5,-225 1240.5,-225 1240.5,-191 1115.5,-191"/>
<text text-anchor="start" x="1123.5" y="-212" font-family="Ubuntu-R" font-size="10.00">forcebalance.nifty.warn</text>
<text text-anchor="middle" x="1178" y="-199" font-family="Ubuntu-R" font-size="10.00">_press_key</text>
</a>
</g>
<!-- Node6&#45;&gt;Node7 -->
<g id="edge12" class="edge"><title>Node6&#45;&gt;Node7</title>
<path fill="none" stroke="midnightblue" d="M1057.85,-179.063C1073.35,-182.797 1089.78,-186.754 1105.35,-190.504"/>
<polygon fill="midnightblue" stroke="midnightblue" points="1104.9,-193.995 1115.44,-192.934 1106.54,-187.19 1104.9,-193.995"/>
</g>
<!-- Node9 -->
<g id="node17" class="node"><title>Node9</title>
<a xlink:href="namespaceforcebalance_1_1nifty.html#ab182a9da2a2f42cf45942fbee6acf9b1" target="_top" xlink:title="forcebalance.nifty.LinkFile">
<polygon fill="white" stroke="black" points="1110,-151.5 1110,-172.5 1246,-172.5 1246,-151.5 1110,-151.5"/>
<text text-anchor="middle" x="1178" y="-159.5" font-family="Ubuntu-R" font-size="10.00">forcebalance.nifty.LinkFile</text>
</a>
</g>
<!-- Node6&#45;&gt;Node9 -->
<g id="edge16" class="edge"><title>Node6&#45;&gt;Node9</title>
<path fill="none" stroke="midnightblue" d="M1067.72,-162C1078.37,-162 1089.27,-162 1099.87,-162"/>
<polygon fill="midnightblue" stroke="midnightblue" points="1099.93,-165.5 1109.93,-162 1099.93,-158.5 1099.93,-165.5"/>
</g>
<!-- Node11 -->
<g id="node21" class="node"><title>Node11</title>
<a xlink:href="classforcebalance_1_1gmxio_1_1AbInitio__GMX.html#a4bc31d1c02d47749d26b14779f025ebd" target="_top" xlink:title="Computes the energy and force using GROMACS for a single snapshot.">
<polygon fill="white" stroke="black" points="1104,-99 1104,-133 1252,-133 1252,-99 1104,-99"/>
<text text-anchor="start" x="1112" y="-120" font-family="Ubuntu-R" font-size="10.00">forcebalance.gmxio.AbInitio</text>
<text text-anchor="middle" x="1178" y="-107" font-family="Ubuntu-R" font-size="10.00">_GMX.energy_force_driver</text>
</a>
</g>
<!-- Node6&#45;&gt;Node11 -->
<g id="edge20" class="edge"><title>Node6&#45;&gt;Node11</title>
<path fill="none" stroke="midnightblue" d="M1057.85,-144.937C1070.71,-141.84 1084.21,-138.589 1097.33,-135.429"/>
<polygon fill="midnightblue" stroke="midnightblue" points="1098.36,-138.78 1107.26,-133.036 1096.72,-131.975 1098.36,-138.78"/>
</g>
<!-- Node13 -->
<g id="node26" class="node"><title>Node13</title>
<a xlink:href="namespaceforcebalance_1_1gmxio.html#acac8488f29b62fb0d4cb54bb5a041026" target="_top" xlink:title="forcebalance.gmxio.rm\l_gmx_baks">
<polygon fill="white" stroke="black" points="1506,-99 1506,-133 1632,-133 1632,-99 1506,-99"/>
<text text-anchor="start" x="1514" y="-120" font-family="Ubuntu-R" font-size="10.00">forcebalance.gmxio.rm</text>
<text text-anchor="middle" x="1569" y="-107" font-family="Ubuntu-R" font-size="10.00">_gmx_baks</text>
</a>
</g>
<!-- Node6&#45;&gt;Node13 -->
<g id="edge30" class="edge"><title>Node6&#45;&gt;Node13</title>
<path fill="none" stroke="midnightblue" d="M1006.89,-179.086C1028.93,-196.795 1066.36,-223.347 1104,-234 1145.49,-245.744 1453.96,-235.496 1470,-228 1508.49,-210.012 1538.23,-169.232 1554.68,-142.165"/>
<polygon fill="midnightblue" stroke="midnightblue" points="1557.89,-143.617 1559.94,-133.222 1551.85,-140.07 1557.89,-143.617"/>
</g>
<!-- Node8 -->
<g id="node15" class="node"><title>Node8</title>
<a xlink:href="namespaceforcebalance_1_1nifty.html#a2fc81730e7efa7d138dd86f733507bfc" target="_top" xlink:title="Similar to the bultin function map().">
<polygon fill="white" stroke="black" points="1288.5,-197.5 1288.5,-218.5 1469.5,-218.5 1469.5,-197.5 1288.5,-197.5"/>
<text text-anchor="middle" x="1379" y="-205.5" font-family="Ubuntu-R" font-size="10.00">forcebalance.nifty.concurrent_map</text>
</a>
</g>
<!-- Node7&#45;&gt;Node8 -->
<g id="edge14" class="edge"><title>Node7&#45;&gt;Node8</title>
<path fill="none" stroke="midnightblue" d="M1240.77,-208C1252.68,-208 1265.41,-208 1278.15,-208"/>
<polygon fill="midnightblue" stroke="midnightblue" points="1278.35,-211.5 1288.35,-208 1278.35,-204.5 1278.35,-211.5"/>
</g>
<!-- Node10 -->
<g id="node19" class="node"><title>Node10</title>
<a xlink:href="namespaceforcebalance_1_1nifty.html#a25efa4d501ad852a234721af18978f7e" target="_top" xlink:title="Remove the file if it exists (doesn&#39;t return an error).">
<polygon fill="white" stroke="black" points="1309.5,-145 1309.5,-179 1448.5,-179 1448.5,-145 1309.5,-145"/>
<text text-anchor="start" x="1317.5" y="-166" font-family="Ubuntu-R" font-size="10.00">forcebalance.nifty.remove</text>
<text text-anchor="middle" x="1379" y="-153" font-family="Ubuntu-R" font-size="10.00">_if_exists</text>
</a>
</g>
<!-- Node9&#45;&gt;Node10 -->
<g id="edge18" class="edge"><title>Node9&#45;&gt;Node10</title>
<path fill="none" stroke="midnightblue" d="M1246.05,-162C1263.09,-162 1281.53,-162 1299.09,-162"/>
<polygon fill="midnightblue" stroke="midnightblue" points="1299.31,-165.5 1309.31,-162 1299.31,-158.5 1299.31,-165.5"/>
</g>
<!-- Node12 -->
<g id="node23" class="node"><title>Node12</title>
<a xlink:href="classforcebalance_1_1gmxio_1_1AbInitio__GMX.html#a6e43c323b2286c546ff8afd3377f8808" target="_top" xlink:title="Computes the energy and force using GROMACS for a trajectory.">
<polygon fill="white" stroke="black" points="1301,-54 1301,-88 1457,-88 1457,-54 1301,-54"/>
<text text-anchor="start" x="1309" y="-75" font-family="Ubuntu-R" font-size="10.00">forcebalance.gmxio.AbInitio</text>
<text text-anchor="middle" x="1379" y="-62" font-family="Ubuntu-R" font-size="10.00">_GMX.energy_force_driver_all</text>
</a>
</g>
<!-- Node11&#45;&gt;Node12 -->
<g id="edge22" class="edge"><title>Node11&#45;&gt;Node12</title>
<path fill="none" stroke="midnightblue" d="M1252.27,-99.3715C1265.59,-96.3898 1279.57,-93.2602 1293.18,-90.2127"/>
<polygon fill="midnightblue" stroke="midnightblue" points="1294.02,-93.6118 1303.01,-88.0116 1292.49,-86.7809 1294.02,-93.6118"/>
</g>
<!-- Node11&#45;&gt;Node13 -->
<g id="edge28" class="edge"><title>Node11&#45;&gt;Node13</title>
<path fill="none" stroke="midnightblue" d="M1252,-116C1321.96,-116 1426.29,-116 1495.94,-116"/>
<polygon fill="midnightblue" stroke="midnightblue" points="1495.95,-119.5 1505.95,-116 1495.95,-112.5 1495.95,-119.5"/>
</g>
<!-- Node12&#45;&gt;Node3 -->
<g id="edge24" class="edge"><title>Node12&#45;&gt;Node3</title>
<path fill="none" stroke="midnightblue" d="M1300.91,-71C1221.79,-71 1095.89,-71 987,-71 796,-71 796,-71 796,-71 699.174,-71 588.43,-75.0032 512.147,-78.3853"/>
<polygon fill="midnightblue" stroke="midnightblue" points="511.918,-74.8919 502.085,-78.8367 512.232,-81.8849 511.918,-74.8919"/>
</g>
<!-- Node12&#45;&gt;Node13 -->
<g id="edge26" class="edge"><title>Node12&#45;&gt;Node13</title>
<path fill="none" stroke="midnightblue" d="M1450.83,-88.0126C1465.52,-91.4908 1480.99,-95.1554 1495.73,-98.6455"/>
<polygon fill="midnightblue" stroke="midnightblue" points="1495.25,-102.13 1505.79,-101.029 1496.87,-95.3188 1495.25,-102.13"/>
</g>
</g>
</svg>
