<?xml version="1.0" encoding="UTF-8" standalone="no"?>
<!DOCTYPE svg PUBLIC "-//W3C//DTD SVG 1.1//EN"
 "http://www.w3.org/Graphics/SVG/1.1/DTD/svg11.dtd">
<!-- Generated by graphviz version 2.28.0 (20111219.2309)
 -->
<!-- Title: forcebalance.output.RawStreamHandler.__init__ Pages: 1 -->
<svg width="384pt" height="38pt"
 viewBox="0.00 0.00 384.00 38.00" xmlns="http://www.w3.org/2000/svg" xmlns:xlink="http://www.w3.org/1999/xlink">
<g id="graph1" class="graph" transform="scale(1 1) rotate(0) translate(4 34)">
<title>forcebalance.output.RawStreamHandler.__init__</title>
<polygon fill="white" stroke="white" points="-4,5 -4,-34 381,-34 381,5 -4,5"/>
<!-- Node1 -->
<g id="node1" class="node"><title>Node1</title>
<polygon fill="#bfbfbf" stroke="black" points="0,-0 0,-30 170,-30 170,-0 0,-0"/>
<text text-anchor="start" x="8" y="-18" font-family="Ubuntu-R" font-size="10.00">forcebalance.output.RawStream</text>
<text text-anchor="middle" x="85" y="-7" font-family="Ubuntu-R" font-size="10.00">Handler.__init__</text>
</g>
<!-- Node2 -->
<g id="node3" class="node"><title>Node2</title>
<a xlink:href="classforcebalance_1_1output_1_1RawStreamHandler.html#afad8f30df1c81ce5ee43baad1362120b" target="_top" xlink:title="forcebalance.output.RawStream\lHandler.emit">
<polygon fill="white" stroke="black" points="206,-0 206,-30 376,-30 376,-0 206,-0"/>
<text text-anchor="start" x="214" y="-18" font-family="Ubuntu-R" font-size="10.00">forcebalance.output.RawStream</text>
<text text-anchor="middle" x="291" y="-7" font-family="Ubuntu-R" font-size="10.00">Handler.emit</text>
</a>
</g>
<!-- Node1&#45;&gt;Node2 -->
<g id="edge2" class="edge"><title>Node1&#45;&gt;Node2</title>
<path fill="none" stroke="midnightblue" d="M170.152,-15C178.501,-15 187.015,-15 195.46,-15"/>
<polygon fill="midnightblue" stroke="midnightblue" points="195.712,-18.5001 205.712,-15 195.712,-11.5001 195.712,-18.5001"/>
</g>
</g>
</svg>
