<?xml version="1.0" encoding="UTF-8" standalone="no"?>
<!DOCTYPE svg PUBLIC "-//W3C//DTD SVG 1.1//EN"
 "http://www.w3.org/Graphics/SVG/1.1/DTD/svg11.dtd">
<!-- Generated by graphviz version 2.32.0 (20130801.1845)
 -->
<!-- Title: forcebalance.Mol2.mol2.set_num_feat Pages: 1 -->
<svg width="666pt" height="118pt"
 viewBox="0.00 0.00 666.00 118.00" xmlns="http://www.w3.org/2000/svg" xmlns:xlink="http://www.w3.org/1999/xlink">
<g id="graph0" class="graph" transform="scale(1 1) rotate(0) translate(4 114)">
<title>forcebalance.Mol2.mol2.set_num_feat</title>
<polygon fill="white" stroke="white" points="-4,5 -4,-114 663,-114 663,5 -4,5"/>
<!-- Node1 -->
<g id="node1" class="node"><title>Node1</title>
<polygon fill="#bfbfbf" stroke="black" points="0.048,-45 0.048,-77 127.952,-77 127.952,-45 0.048,-45"/>
<text text-anchor="start" x="8.048" y="-64" font-family="Ubuntu-R" font-size="10.00">forcebalance.Mol2.mol2.set</text>
<text text-anchor="middle" x="64" y="-52" font-family="Ubuntu-R" font-size="10.00">_num_feat</text>
</g>
<!-- Node2 -->
<g id="node2" class="node"><title>Node2</title>
<g id="a_node2"><a xlink:href="classforcebalance_1_1Mol2_1_1mol2.html#a8d49f0024dfe625e1b43a244ec76f3b3" target="_top" xlink:title="Parse a series of text lines, and setup compound information.">
<polygon fill="white" stroke="black" points="164.053,-51 164.053,-71 301.947,-71 301.947,-51 164.053,-51"/>
<text text-anchor="middle" x="233" y="-58" font-family="Ubuntu-R" font-size="10.00">forcebalance.Mol2.mol2.parse</text>
</a>
</g>
</g>
<!-- Node1&#45;&gt;Node2 -->
<g id="edge1" class="edge"><title>Node1&#45;&gt;Node2</title>
<path fill="none" stroke="midnightblue" d="M128.136,-61C136.567,-61 145.293,-61 153.941,-61"/>
<polygon fill="midnightblue" stroke="midnightblue" points="154.035,-64.5001 164.035,-61 154.035,-57.5001 154.035,-64.5001"/>
</g>
<!-- Node3 -->
<g id="node3" class="node"><title>Node3</title>
<g id="a_node3"><a xlink:href="classforcebalance_1_1Mol2_1_1mol2.html#af5a261aefed1c65fd5f56b5b30e69995" target="_top" xlink:title="return the atom instance given its atom identifier">
<polygon fill="white" stroke="black" points="337.994,-90 337.994,-110 492.006,-110 492.006,-90 337.994,-90"/>
<text text-anchor="middle" x="415" y="-97" font-family="Ubuntu-R" font-size="10.00">forcebalance.Mol2.mol2.get_atom</text>
</a>
</g>
</g>
<!-- Node2&#45;&gt;Node3 -->
<g id="edge2" class="edge"><title>Node2&#45;&gt;Node3</title>
<path fill="none" stroke="midnightblue" d="M280.354,-71.0435C303.975,-76.1612 332.887,-82.4256 357.771,-87.8171"/>
<polygon fill="midnightblue" stroke="midnightblue" points="357.288,-91.2936 367.803,-89.9906 358.771,-84.4523 357.288,-91.2936"/>
</g>
<!-- Node4 -->
<g id="node4" class="node"><title>Node4</title>
<g id="a_node4"><a xlink:href="classforcebalance_1_1Mol2_1_1mol2.html#a2d2b34613f2b72ad3a7fcdc94a3de994" target="_top" xlink:title="return a dictionnary of atom instances bonded to the atom, and their types">
<polygon fill="white" stroke="black" points="528.492,-67 528.492,-99 657.508,-99 657.508,-67 528.492,-67"/>
<text text-anchor="start" x="536.492" y="-86" font-family="Ubuntu-R" font-size="10.00">forcebalance.Mol2.mol2.get</text>
<text text-anchor="middle" x="593" y="-74" font-family="Ubuntu-R" font-size="10.00">_bonded_atoms</text>
</a>
</g>
</g>
<!-- Node2&#45;&gt;Node4 -->
<g id="edge4" class="edge"><title>Node2&#45;&gt;Node4</title>
<path fill="none" stroke="midnightblue" d="M302.18,-65.1898C363.867,-68.9807 454.505,-74.5506 517.949,-78.4494"/>
<polygon fill="midnightblue" stroke="midnightblue" points="518.086,-81.9643 528.282,-79.0844 518.516,-74.9775 518.086,-81.9643"/>
</g>
<!-- Node5 -->
<g id="node5" class="node"><title>Node5</title>
<g id="a_node5"><a xlink:href="classforcebalance_1_1Mol2_1_1mol2.html#aa5a8b41dee69923e1854b0385ba588a4" target="_top" xlink:title="modify atom types to specify donnor, acceptor, or both">
<polygon fill="white" stroke="black" points="351.048,-0 351.048,-32 478.952,-32 478.952,-0 351.048,-0"/>
<text text-anchor="start" x="359.048" y="-19" font-family="Ubuntu-R" font-size="10.00">forcebalance.Mol2.mol2.set</text>
<text text-anchor="middle" x="415" y="-7" font-family="Ubuntu-R" font-size="10.00">_donnor_acceptor_atoms</text>
</a>
</g>
</g>
<!-- Node2&#45;&gt;Node5 -->
<g id="edge5" class="edge"><title>Node2&#45;&gt;Node5</title>
<path fill="none" stroke="midnightblue" d="M274.396,-50.9011C293.989,-46.0028 318.143,-39.9642 340.82,-34.2949"/>
<polygon fill="midnightblue" stroke="midnightblue" points="341.919,-37.6282 350.771,-31.8072 340.221,-30.8372 341.919,-37.6282"/>
</g>
<!-- Node3&#45;&gt;Node4 -->
<g id="edge3" class="edge"><title>Node3&#45;&gt;Node4</title>
<path fill="none" stroke="midnightblue" d="M492.173,-92.6424C500.853,-91.804 509.69,-90.9504 518.337,-90.1152"/>
<polygon fill="midnightblue" stroke="midnightblue" points="518.763,-93.5904 528.38,-89.1451 518.09,-86.6228 518.763,-93.5904"/>
</g>
<!-- Node6 -->
<g id="node6" class="node"><title>Node6</title>
<g id="a_node6"><a xlink:href="classforcebalance_1_1Mol2_1_1mol2.html#ad2182f9984dda90dfbd036d70921d5d8" target="_top" xlink:title="forcebalance.Mol2.mol2.\l__init__">
<polygon fill="white" stroke="black" points="534.601,-0 534.601,-32 651.399,-32 651.399,-0 534.601,-0"/>
<text text-anchor="start" x="542.601" y="-19" font-family="Ubuntu-R" font-size="10.00">forcebalance.Mol2.mol2.</text>
<text text-anchor="middle" x="593" y="-7" font-family="Ubuntu-R" font-size="10.00">__init__</text>
</a>
</g>
</g>
<!-- Node5&#45;&gt;Node6 -->
<g id="edge6" class="edge"><title>Node5&#45;&gt;Node6</title>
<path fill="none" stroke="midnightblue" d="M479.043,-16C493.709,-16 509.383,-16 524.243,-16"/>
<polygon fill="midnightblue" stroke="midnightblue" points="524.378,-19.5001 534.378,-16 524.378,-12.5001 524.378,-19.5001"/>
</g>
</g>
</svg>
