<?xml version="1.0" encoding="UTF-8" standalone="no"?>
<!DOCTYPE svg PUBLIC "-//W3C//DTD SVG 1.1//EN"
 "http://www.w3.org/Graphics/SVG/1.1/DTD/svg11.dtd">
<!-- Generated by graphviz version 2.28.0 (20111219.2309)
 -->
<!-- Title: G Pages: 1 -->
<svg width="2576pt" height="381pt"
 viewBox="0.00 0.00 2576.00 381.27" xmlns="http://www.w3.org/2000/svg" xmlns:xlink="http://www.w3.org/1999/xlink">
<g id="graph1" class="graph" transform="scale(1 1) rotate(0) translate(4 377.267)">
<title>G</title>
<polygon fill="white" stroke="white" points="-4,5 -4,-377.267 2573,-377.267 2573,5 -4,5"/>
<!-- Node1 -->
<g id="node1" class="node"><title>Node1</title>
<polygon fill="#bfbfbf" stroke="black" points="0,-99.5 0,-118.5 230,-118.5 230,-99.5 0,-99.5"/>
<text text-anchor="middle" x="115" y="-106.5" font-family="Ubuntu-R" font-size="10.00">forcebalance.Mol2.mol2_bond.set_status_bit</text>
</g>
<!-- Node2 -->
<g id="node3" class="node"><title>Node2</title>
<a xlink:href="classforcebalance_1_1Mol2_1_1mol2__bond.html#a093622f1fda304a18ee25b232ba2f998" target="_top" xlink:title="if data is passed, it will be installed">
<polygon fill="white" stroke="black" points="269,-218.5 269,-237.5 467,-237.5 467,-218.5 269,-218.5"/>
<text text-anchor="middle" x="368" y="-225.5" font-family="Ubuntu-R" font-size="10.00">forcebalance.Mol2.mol2_bond.__init__</text>
</a>
</g>
<!-- Node1&#45;&gt;Node2 -->
<g id="edge2" class="edge"><title>Node1&#45;&gt;Node2</title>
<path fill="none" stroke="midnightblue" d="M127.131,-118.779C150.855,-139.057 208.902,-185.731 266,-209 272.589,-211.685 279.575,-213.994 286.676,-215.98"/>
<polygon fill="midnightblue" stroke="midnightblue" points="285.845,-219.381 296.402,-218.493 287.595,-212.603 285.845,-219.381"/>
</g>
<!-- Node3 -->
<g id="node5" class="node"><title>Node3</title>
<a xlink:href="classforcebalance_1_1Mol2_1_1mol2__atom.html#a29aaa00b8fa91f4d18cef387622d339d" target="_top" xlink:title="split the text line into a series of properties">
<polygon fill="white" stroke="black" points="272.5,-180.5 272.5,-199.5 463.5,-199.5 463.5,-180.5 272.5,-180.5"/>
<text text-anchor="middle" x="368" y="-187.5" font-family="Ubuntu-R" font-size="10.00">forcebalance.Mol2.mol2_atom.parse</text>
</a>
</g>
<!-- Node1&#45;&gt;Node3 -->
<g id="edge4" class="edge"><title>Node1&#45;&gt;Node3</title>
<path fill="none" stroke="midnightblue" d="M145.779,-118.61C191.067,-133.225 277.298,-161.052 327.684,-177.312"/>
<polygon fill="midnightblue" stroke="midnightblue" points="326.668,-180.662 337.26,-180.403 328.818,-174.001 326.668,-180.662"/>
</g>
<!-- Node14 -->
<g id="node35" class="node"><title>Node14</title>
<a xlink:href="classforcebalance_1_1Mol2_1_1mol2__bond.html#a66ca9cb935bd3a9a1f41335d85d39b2f" target="_top" xlink:title="split the text line into a series of properties">
<polygon fill="white" stroke="black" points="273,-61.5 273,-80.5 463,-80.5 463,-61.5 273,-61.5"/>
<text text-anchor="middle" x="368" y="-68.5" font-family="Ubuntu-R" font-size="10.00">forcebalance.Mol2.mol2_bond.parse</text>
</a>
</g>
<!-- Node1&#45;&gt;Node14 -->
<g id="edge42" class="edge"><title>Node1&#45;&gt;Node14</title>
<path fill="none" stroke="midnightblue" d="M179.014,-99.46C213.924,-94.1749 257.494,-87.5786 293.896,-82.0675"/>
<polygon fill="midnightblue" stroke="midnightblue" points="294.597,-85.5014 303.96,-80.5439 293.549,-78.5803 294.597,-85.5014"/>
</g>
<!-- Node15 -->
<g id="node37" class="node"><title>Node15</title>
<a xlink:href="classforcebalance_1_1Mol2_1_1mol2__bond.html#adb17d4278c0063cf557807b77f2cb3e1" target="_top" xlink:title="forcebalance.Mol2.mol2_bond.__repr__">
<polygon fill="white" stroke="black" points="266.5,-99.5 266.5,-118.5 469.5,-118.5 469.5,-99.5 266.5,-99.5"/>
<text text-anchor="middle" x="368" y="-106.5" font-family="Ubuntu-R" font-size="10.00">forcebalance.Mol2.mol2_bond.__repr__</text>
</a>
</g>
<!-- Node1&#45;&gt;Node15 -->
<g id="edge44" class="edge"><title>Node1&#45;&gt;Node15</title>
<path fill="none" stroke="midnightblue" d="M230.116,-102.275C238.772,-102.237 247.502,-102.242 256.137,-102.291"/>
<polygon fill="midnightblue" stroke="midnightblue" points="256.195,-105.791 266.222,-102.368 256.249,-98.7916 256.195,-105.791"/>
</g>
<!-- Node4 -->
<g id="node7" class="node"><title>Node4</title>
<a xlink:href="classforcebalance_1_1Mol2_1_1mol2__atom.html#a3a6c9728119ace119108183920689a9d" target="_top" xlink:title="the coordinates of the atom">
<polygon fill="white" stroke="black" points="1848.5,-265.5 1848.5,-284.5 2053.5,-284.5 2053.5,-265.5 1848.5,-265.5"/>
<text text-anchor="middle" x="1951" y="-272.5" font-family="Ubuntu-R" font-size="10.00">forcebalance.Mol2.mol2_atom.set_crds</text>
</a>
</g>
<!-- Node3&#45;&gt;Node4 -->
<g id="edge6" class="edge"><title>Node3&#45;&gt;Node4</title>
<path fill="none" stroke="midnightblue" d="M440.471,-199.54C450.587,-202.007 460.701,-205.107 470,-209 487.969,-216.522 487.738,-227.221 506,-234 670.636,-295.119 723.385,-275 899,-275 899,-275 899,-275 1430,-275 1570.81,-275 1733.06,-275 1838.36,-275"/>
<polygon fill="midnightblue" stroke="midnightblue" points="1838.37,-278.5 1848.37,-275 1838.37,-271.5 1838.37,-278.5"/>
</g>
<!-- Node5 -->
<g id="node9" class="node"><title>Node5</title>
<a xlink:href="classforcebalance_1_1Mol2_1_1mol2__atom.html#ae879ba27197a573b6e3e1e97f0b76aff" target="_top" xlink:title="substructure identifier">
<polygon fill="white" stroke="black" points="2090,-303.5 2090,-322.5 2314,-322.5 2314,-303.5 2090,-303.5"/>
<text text-anchor="middle" x="2202" y="-310.5" font-family="Ubuntu-R" font-size="10.00">forcebalance.Mol2.mol2_atom.set_subst_id</text>
</a>
</g>
<!-- Node3&#45;&gt;Node5 -->
<g id="edge32" class="edge"><title>Node3&#45;&gt;Node5</title>
<path fill="none" stroke="midnightblue" d="M452.416,-199.6C458.644,-202.116 464.596,-205.208 470,-209 495.77,-227.08 479.553,-252.925 506,-270 653.615,-365.308 723.291,-313 899,-313 899,-313 899,-313 1691,-313 1823.82,-313 1976.09,-313 2079.42,-313"/>
<polygon fill="midnightblue" stroke="midnightblue" points="2079.57,-316.5 2089.57,-313 2079.57,-309.5 2079.57,-316.5"/>
</g>
<!-- Node6 -->
<g id="node11" class="node"><title>Node6</title>
<a xlink:href="classforcebalance_1_1Mol2_1_1mol2__atom.html#abfe80eac2952ad867d87e8b6e64f3c09" target="_top" xlink:title="atomic charge">
<polygon fill="white" stroke="black" points="2350,-322.5 2350,-341.5 2568,-341.5 2568,-322.5 2350,-322.5"/>
<text text-anchor="middle" x="2459" y="-329.5" font-family="Ubuntu-R" font-size="10.00">forcebalance.Mol2.mol2_atom.set_charge</text>
</a>
</g>
<!-- Node3&#45;&gt;Node6 -->
<g id="edge36" class="edge"><title>Node3&#45;&gt;Node6</title>
<path fill="none" stroke="midnightblue" d="M455.717,-199.633C460.846,-202.188 465.671,-205.277 470,-209 506.768,-240.619 467.892,-282.011 506,-312 643.935,-420.548 723.475,-351 899,-351 899,-351 899,-351 1952,-351 2084.93,-351 2237.37,-344.371 2339.89,-338.944"/>
<polygon fill="midnightblue" stroke="midnightblue" points="2340.16,-342.434 2349.96,-338.406 2339.79,-335.444 2340.16,-342.434"/>
</g>
<!-- Node7 -->
<g id="node13" class="node"><title>Node7</title>
<a xlink:href="classforcebalance_1_1Mol2_1_1mol2__atom.html#a233ebfedcde7e5d75b0ec54f194d2b4f" target="_top" xlink:title="The mol2 type of the atom.">
<polygon fill="white" stroke="black" points="506,-95.5 506,-114.5 742,-114.5 742,-95.5 506,-95.5"/>
<text text-anchor="middle" x="624" y="-102.5" font-family="Ubuntu-R" font-size="10.00">forcebalance.Mol2.mol2_atom.set_atom_type</text>
</a>
</g>
<!-- Node3&#45;&gt;Node7 -->
<g id="edge12" class="edge"><title>Node3&#45;&gt;Node7</title>
<path fill="none" stroke="midnightblue" d="M387.115,-180.407C412.877,-167.123 461.874,-143.165 506,-129 521.369,-124.067 538.209,-119.914 554.205,-116.524"/>
<polygon fill="midnightblue" stroke="midnightblue" points="554.94,-119.947 564.035,-114.512 553.536,-113.089 554.94,-119.947"/>
</g>
<!-- Node8 -->
<g id="node15" class="node"><title>Node8</title>
<a xlink:href="classforcebalance_1_1Mol2_1_1mol2__atom.html#af149e1d049adee0318eef510a8d32f9c" target="_top" xlink:title="substructure name">
<polygon fill="white" stroke="black" points="778,-133.5 778,-152.5 1022,-152.5 1022,-133.5 778,-133.5"/>
<text text-anchor="middle" x="900" y="-140.5" font-family="Ubuntu-R" font-size="10.00">forcebalance.Mol2.mol2_atom.set_subst_name</text>
</a>
</g>
<!-- Node3&#45;&gt;Node8 -->
<g id="edge34" class="edge"><title>Node3&#45;&gt;Node8</title>
<path fill="none" stroke="midnightblue" d="M417.965,-180.493C444.015,-175.761 476.647,-170.351 506,-167 592.933,-157.076 691.186,-151.076 767.704,-147.557"/>
<polygon fill="midnightblue" stroke="midnightblue" points="768.044,-151.045 777.876,-147.098 767.728,-144.052 768.044,-151.045"/>
</g>
<!-- Node9 -->
<g id="node17" class="node"><title>Node9</title>
<a xlink:href="classforcebalance_1_1Mol2_1_1mol2__atom.html#a2b8855f5349976b26917fee353618354" target="_top" xlink:title="Never to use (in theory)">
<polygon fill="white" stroke="black" points="1058,-180.5 1058,-199.5 1290,-199.5 1290,-180.5 1058,-180.5"/>
<text text-anchor="middle" x="1174" y="-187.5" font-family="Ubuntu-R" font-size="10.00">forcebalance.Mol2.mol2_atom.set_status_bit</text>
</a>
</g>
<!-- Node3&#45;&gt;Node9 -->
<g id="edge38" class="edge"><title>Node3&#45;&gt;Node9</title>
<path fill="none" stroke="midnightblue" d="M463.593,-185.461C608.498,-182.7 885.585,-182.525 1047.25,-184.936"/>
<polygon fill="midnightblue" stroke="midnightblue" points="1047.67,-188.443 1057.73,-185.098 1047.78,-181.443 1047.67,-188.443"/>
</g>
<!-- Node11 -->
<g id="node22" class="node"><title>Node11</title>
<a xlink:href="classforcebalance_1_1Mol2_1_1mol2__atom.html#a2e0ecf1c6da8fde8ab146d4341ac1341" target="_top" xlink:title="assemble the properties as a text line, and return it">
<polygon fill="white" stroke="black" points="1326.5,-223.5 1326.5,-242.5 1531.5,-242.5 1531.5,-223.5 1326.5,-223.5"/>
<text text-anchor="middle" x="1429" y="-230.5" font-family="Ubuntu-R" font-size="10.00">forcebalance.Mol2.mol2_atom.__repr__</text>
</a>
</g>
<!-- Node3&#45;&gt;Node11 -->
<g id="edge40" class="edge"><title>Node3&#45;&gt;Node11</title>
<path fill="none" stroke="midnightblue" d="M415.386,-199.504C441.818,-204.487 475.626,-210.136 506,-213 797.28,-240.464 1142.5,-238.911 1316.25,-235.772"/>
<polygon fill="midnightblue" stroke="midnightblue" points="1316.49,-239.268 1326.42,-235.582 1316.36,-232.269 1316.49,-239.268"/>
</g>
<!-- Node4&#45;&gt;Node5 -->
<g id="edge8" class="edge"><title>Node4&#45;&gt;Node5</title>
<path fill="none" stroke="midnightblue" d="M2014.51,-284.54C2049.14,-289.825 2092.37,-296.421 2128.48,-301.932"/>
<polygon fill="midnightblue" stroke="midnightblue" points="2128.05,-305.407 2138.46,-303.456 2129.1,-298.487 2128.05,-305.407"/>
</g>
<!-- Node5&#45;&gt;Node6 -->
<g id="edge10" class="edge"><title>Node5&#45;&gt;Node6</title>
<path fill="none" stroke="midnightblue" d="M2314.1,-321.278C2322.59,-321.911 2331.18,-322.551 2339.71,-323.187"/>
<polygon fill="midnightblue" stroke="midnightblue" points="2339.46,-326.677 2349.7,-323.93 2339.98,-319.697 2339.46,-326.677"/>
</g>
<!-- Node7&#45;&gt;Node8 -->
<g id="edge14" class="edge"><title>Node7&#45;&gt;Node8</title>
<path fill="none" stroke="midnightblue" d="M693.788,-114.54C732.223,-119.87 780.273,-126.534 820.215,-132.074"/>
<polygon fill="midnightblue" stroke="midnightblue" points="819.798,-135.549 830.184,-133.456 820.759,-128.616 819.798,-135.549"/>
</g>
<!-- Node8&#45;&gt;Node9 -->
<g id="edge16" class="edge"><title>Node8&#45;&gt;Node9</title>
<path fill="none" stroke="midnightblue" d="M956.043,-152.511C999.863,-160.083 1061.31,-170.701 1107.63,-178.705"/>
<polygon fill="midnightblue" stroke="midnightblue" points="1107.12,-182.169 1117.57,-180.422 1108.31,-175.271 1107.12,-182.169"/>
</g>
<!-- Node9&#45;&gt;Node3 -->
<g id="edge20" class="edge"><title>Node9&#45;&gt;Node3</title>
<path fill="none" stroke="midnightblue" d="M1057.73,-194.902C901.408,-197.424 624.47,-197.365 473.778,-194.725"/>
<polygon fill="midnightblue" stroke="midnightblue" points="473.656,-191.223 463.593,-194.539 473.528,-198.222 473.656,-191.223"/>
</g>
<!-- Node10 -->
<g id="node19" class="node"><title>Node10</title>
<a xlink:href="classforcebalance_1_1Mol2_1_1mol2__atom.html#a1d745e4db9ba351cb8e4e53bf544132c" target="_top" xlink:title="if data is passed, it will be installed">
<polygon fill="white" stroke="black" points="1329,-180.5 1329,-199.5 1529,-199.5 1529,-180.5 1329,-180.5"/>
<text text-anchor="middle" x="1429" y="-187.5" font-family="Ubuntu-R" font-size="10.00">forcebalance.Mol2.mol2_atom.__init__</text>
</a>
</g>
<!-- Node9&#45;&gt;Node10 -->
<g id="edge18" class="edge"><title>Node9&#45;&gt;Node10</title>
<path fill="none" stroke="midnightblue" d="M1290.03,-190C1299.52,-190 1309.09,-190 1318.54,-190"/>
<polygon fill="midnightblue" stroke="midnightblue" points="1318.73,-193.5 1328.73,-190 1318.73,-186.5 1318.73,-193.5"/>
</g>
<!-- Node9&#45;&gt;Node11 -->
<g id="edge22" class="edge"><title>Node9&#45;&gt;Node11</title>
<path fill="none" stroke="midnightblue" d="M1231.15,-199.543C1269.8,-206.112 1321.3,-214.865 1361.93,-221.77"/>
<polygon fill="midnightblue" stroke="midnightblue" points="1361.56,-225.258 1372.01,-223.484 1362.74,-218.357 1361.56,-225.258"/>
</g>
<!-- Node12 -->
<g id="node24" class="node"><title>Node12</title>
<a xlink:href="classforcebalance_1_1Mol2_1_1mol2__atom.html#a1af054109bd2d27c29e89b5da0f70920" target="_top" xlink:title="atom identifier (integer, starting from 1)">
<polygon fill="white" stroke="black" points="1578,-225.5 1578,-244.5 1802,-244.5 1802,-225.5 1578,-225.5"/>
<text text-anchor="middle" x="1690" y="-232.5" font-family="Ubuntu-R" font-size="10.00">forcebalance.Mol2.mol2_atom.set_atom_id</text>
</a>
</g>
<!-- Node11&#45;&gt;Node12 -->
<g id="edge24" class="edge"><title>Node11&#45;&gt;Node12</title>
<path fill="none" stroke="midnightblue" d="M1531.62,-233.785C1543.47,-233.876 1555.64,-233.97 1567.72,-234.063"/>
<polygon fill="midnightblue" stroke="midnightblue" points="1567.81,-237.564 1577.83,-234.142 1567.86,-230.564 1567.81,-237.564"/>
</g>
<!-- Node13 -->
<g id="node27" class="node"><title>Node13</title>
<a xlink:href="classforcebalance_1_1Mol2_1_1mol2__atom.html#a4d57220ec5b591ad018112d600d4cc8b" target="_top" xlink:title="The name of the atom (string)">
<polygon fill="white" stroke="black" points="1568.5,-112.5 1568.5,-131.5 1811.5,-131.5 1811.5,-112.5 1568.5,-112.5"/>
<text text-anchor="middle" x="1690" y="-119.5" font-family="Ubuntu-R" font-size="10.00">forcebalance.Mol2.mol2_atom.set_atom_name</text>
</a>
</g>
<!-- Node11&#45;&gt;Node13 -->
<g id="edge28" class="edge"><title>Node11&#45;&gt;Node13</title>
<path fill="none" stroke="midnightblue" d="M1482.73,-223.495C1498.82,-219.825 1516.39,-215.03 1532,-209 1582.58,-189.466 1636.93,-156.294 1666.56,-137.048"/>
<polygon fill="midnightblue" stroke="midnightblue" points="1668.5,-139.966 1674.93,-131.552 1664.65,-134.115 1668.5,-139.966"/>
</g>
<!-- Node12&#45;&gt;Node4 -->
<g id="edge26" class="edge"><title>Node12&#45;&gt;Node4</title>
<path fill="none" stroke="midnightblue" d="M1752.71,-244.53C1790.42,-250.355 1838.82,-257.829 1878.24,-263.917"/>
<polygon fill="midnightblue" stroke="midnightblue" points="1877.9,-267.406 1888.32,-265.474 1878.97,-260.488 1877.9,-267.406"/>
</g>
<!-- Node13&#45;&gt;Node7 -->
<g id="edge30" class="edge"><title>Node13&#45;&gt;Node7</title>
<path fill="none" stroke="midnightblue" d="M1568.3,-120.071C1365.67,-116.834 959.04,-110.337 752.167,-107.032"/>
<polygon fill="midnightblue" stroke="midnightblue" points="752.22,-103.532 742.165,-106.872 752.108,-110.531 752.22,-103.532"/>
</g>
<!-- Node15&#45;&gt;Node1 -->
<g id="edge48" class="edge"><title>Node15&#45;&gt;Node1</title>
<path fill="none" stroke="midnightblue" d="M266.222,-115.632C257.685,-115.715 248.989,-115.754 240.301,-115.75"/>
<polygon fill="midnightblue" stroke="midnightblue" points="240.124,-112.249 230.116,-115.725 240.108,-119.249 240.124,-112.249"/>
</g>
<!-- Node15&#45;&gt;Node9 -->
<g id="edge46" class="edge"><title>Node15&#45;&gt;Node9</title>
<path fill="none" stroke="midnightblue" d="M414.116,-99.4832C440.719,-94.3594 475.116,-88.5744 506,-86 735.16,-66.8976 800.591,-61.8938 1022,-124 1067.29,-136.704 1116.69,-160.313 1146.24,-175.58"/>
<polygon fill="midnightblue" stroke="midnightblue" points="1144.98,-178.873 1155.46,-180.41 1148.23,-172.671 1144.98,-178.873"/>
</g>
<!-- Node16 -->
<g id="node41" class="node"><title>Node16</title>
<a xlink:href="classforcebalance_1_1Mol2_1_1mol2__bond.html#a7e8bcec38c5dd62a0c672ad855388ce0" target="_top" xlink:title="bond identifier (integer, starting from 1)">
<polygon fill="white" stroke="black" points="513.5,-10.5 513.5,-29.5 734.5,-29.5 734.5,-10.5 513.5,-10.5"/>
<text text-anchor="middle" x="624" y="-17.5" font-family="Ubuntu-R" font-size="10.00">forcebalance.Mol2.mol2_bond.set_bond_id</text>
</a>
</g>
<!-- Node15&#45;&gt;Node16 -->
<g id="edge50" class="edge"><title>Node15&#45;&gt;Node16</title>
<path fill="none" stroke="midnightblue" d="M446.789,-99.4544C454.874,-96.9805 462.768,-93.8809 470,-90 490.217,-79.151 486.286,-64.7372 506,-53 521.462,-43.7943 539.604,-37.06 556.925,-32.172"/>
<polygon fill="midnightblue" stroke="midnightblue" points="558.232,-35.4467 567.002,-29.5027 556.439,-28.6801 558.232,-35.4467"/>
</g>
<!-- Node17 -->
<g id="node43" class="node"><title>Node17</title>
<a xlink:href="classforcebalance_1_1Mol2_1_1mol2__bond.html#a1ced365259f0c6b7b4fa0f0d9fc5dc4d" target="_top" xlink:title="bond type (string) one of: 1 = single 2 = double 3 = triple am = amide ar = aromatic du = dummy un = ...">
<polygon fill="white" stroke="black" points="783.5,-0.5 783.5,-19.5 1016.5,-19.5 1016.5,-0.5 783.5,-0.5"/>
<text text-anchor="middle" x="900" y="-7.5" font-family="Ubuntu-R" font-size="10.00">forcebalance.Mol2.mol2_bond.set_bond_type</text>
</a>
</g>
<!-- Node16&#45;&gt;Node17 -->
<g id="edge52" class="edge"><title>Node16&#45;&gt;Node17</title>
<path fill="none" stroke="midnightblue" d="M734.868,-15.9902C747.438,-15.5315 760.326,-15.0611 773.084,-14.5955"/>
<polygon fill="midnightblue" stroke="midnightblue" points="773.415,-18.0858 783.28,-14.2233 773.159,-11.0905 773.415,-18.0858"/>
</g>
</g>
</svg>
