<?xml version="1.0" encoding="UTF-8" standalone="no"?>
<!DOCTYPE svg PUBLIC "-//W3C//DTD SVG 1.1//EN"
 "http://www.w3.org/Graphics/SVG/1.1/DTD/svg11.dtd">
<!-- Generated by graphviz version 2.32.0 (20130801.1845)
 -->
<!-- Title: forcebalance.vibration.Vibration Pages: 1 -->
<svg width="154pt" height="216pt"
 viewBox="0.00 0.00 154.00 216.00" xmlns="http://www.w3.org/2000/svg" xmlns:xlink="http://www.w3.org/1999/xlink">
<g id="graph0" class="graph" transform="scale(1 1) rotate(0) translate(4 212)">
<title>forcebalance.vibration.Vibration</title>
<polygon fill="white" stroke="white" points="-4,5 -4,-212 151,-212 151,5 -4,5"/>
<!-- Node1 -->
<g id="node1" class="node"><title>Node1</title>
<polygon fill="#bfbfbf" stroke="black" points="-0.25,-1 -0.25,-21 146.25,-21 146.25,-1 -0.25,-1"/>
<text text-anchor="middle" x="73" y="-8" font-family="Ubuntu-R" font-size="10.00">forcebalance.vibration.Vibration</text>
</g>
<!-- Node2 -->
<g id="node2" class="node"><title>Node2</title>
<g id="a_node2"><a xlink:href="classforcebalance_1_1target_1_1Target.html" target="_top" xlink:title="Base class for all fitting targets.">
<polygon fill="white" stroke="black" points="12.5345,-59 12.5345,-79 133.466,-79 133.466,-59 12.5345,-59"/>
<text text-anchor="middle" x="73" y="-66" font-family="Ubuntu-R" font-size="10.00">forcebalance.target.Target</text>
</a>
</g>
</g>
<!-- Node2&#45;&gt;Node1 -->
<g id="edge1" class="edge"><title>Node2&#45;&gt;Node1</title>
<path fill="none" stroke="midnightblue" d="M73,-48.7065C73,-39.3384 73,-28.5262 73,-21.0752"/>
<polygon fill="midnightblue" stroke="midnightblue" points="69.5001,-48.7527 73,-58.7527 76.5001,-48.7528 69.5001,-48.7527"/>
</g>
<!-- Node3 -->
<g id="node3" class="node"><title>Node3</title>
<g id="a_node3"><a xlink:href="classforcebalance_1_1baseclass_1_1ForceBalanceBaseClass.html" target="_top" xlink:title="Provides some nifty functions that are common to all ForceBalance classes.">
<polygon fill="white" stroke="black" points="6.9805,-117 6.9805,-149 139.019,-149 139.019,-117 6.9805,-117"/>
<text text-anchor="start" x="14.9805" y="-136" font-family="Ubuntu-R" font-size="10.00">forcebalance.baseclass.Force</text>
<text text-anchor="middle" x="73" y="-124" font-family="Ubuntu-R" font-size="10.00">BalanceBaseClass</text>
</a>
</g>
</g>
<!-- Node3&#45;&gt;Node2 -->
<g id="edge2" class="edge"><title>Node3&#45;&gt;Node2</title>
<path fill="none" stroke="midnightblue" d="M73,-106.922C73,-97.1719 73,-86.6099 73,-79.2904"/>
<polygon fill="midnightblue" stroke="midnightblue" points="69.5001,-106.991 73,-116.992 76.5001,-106.992 69.5001,-106.991"/>
</g>
<!-- Node4 -->
<g id="node4" class="node"><title>Node4</title>
<polygon fill="white" stroke="#bfbfbf" points="52.782,-187 52.782,-207 93.218,-207 93.218,-187 52.782,-187"/>
<text text-anchor="middle" x="73" y="-194" font-family="Ubuntu-R" font-size="10.00">object</text>
</g>
<!-- Node4&#45;&gt;Node3 -->
<g id="edge3" class="edge"><title>Node4&#45;&gt;Node3</title>
<path fill="none" stroke="midnightblue" d="M73,-176.775C73,-167.986 73,-157.715 73,-149.44"/>
<polygon fill="midnightblue" stroke="midnightblue" points="69.5001,-176.852 73,-186.852 76.5001,-176.852 69.5001,-176.852"/>
</g>
</g>
</svg>
