<?xml version="1.0" encoding="UTF-8" standalone="no"?>
<!DOCTYPE svg PUBLIC "-//W3C//DTD SVG 1.1//EN"
 "http://www.w3.org/Graphics/SVG/1.1/DTD/svg11.dtd">
<!-- Generated by graphviz version 2.28.0 (20111219.2309)
 -->
<!-- Title: forcebalance.forcefield.FF.create_mvals Pages: 1 -->
<svg width="512pt" height="38pt"
 viewBox="0.00 0.00 512.00 38.00" xmlns="http://www.w3.org/2000/svg" xmlns:xlink="http://www.w3.org/1999/xlink">
<g id="graph1" class="graph" transform="scale(1 1) rotate(0) translate(4 34)">
<title>forcebalance.forcefield.FF.create_mvals</title>
<polygon fill="white" stroke="white" points="-4,5 -4,-34 509,-34 509,5 -4,5"/>
<!-- Node1 -->
<g id="node1" class="node"><title>Node1</title>
<polygon fill="#bfbfbf" stroke="black" points="0,-0 0,-30 128,-30 128,-0 0,-0"/>
<text text-anchor="start" x="8" y="-18" font-family="Ubuntu-R" font-size="10.00">forcebalance.forcefield.</text>
<text text-anchor="middle" x="64" y="-7" font-family="Ubuntu-R" font-size="10.00">FF.create_mvals</text>
</g>
<!-- Node2 -->
<g id="node3" class="node"><title>Node2</title>
<a xlink:href="namespaceforcebalance_1_1molecule.html#a0dd31eff88d2bed0884ab21a13261d42" target="_top" xlink:title="ONLY matches integers! If you have a decimal point? None shall pass! ">
<polygon fill="white" stroke="black" points="164.5,-5.5 164.5,-24.5 311.5,-24.5 311.5,-5.5 164.5,-5.5"/>
<text text-anchor="middle" x="238" y="-12.5" font-family="Ubuntu-R" font-size="10.00">forcebalance.molecule.isint</text>
</a>
</g>
<!-- Node1&#45;&gt;Node2 -->
<g id="edge2" class="edge"><title>Node1&#45;&gt;Node2</title>
<path fill="none" stroke="midnightblue" d="M128.07,-15C136.546,-15 145.343,-15 154.096,-15"/>
<polygon fill="midnightblue" stroke="midnightblue" points="154.331,-18.5001 164.331,-15 154.331,-11.5001 154.331,-18.5001"/>
</g>
<!-- Node3 -->
<g id="node5" class="node"><title>Node3</title>
<a xlink:href="namespaceforcebalance_1_1molecule.html#afe989ffd119568047fc8265b1d329a70" target="_top" xlink:title="Matches ANY number; it can be a decimal, scientific notation, integer, or what have you...">
<polygon fill="white" stroke="black" points="348,-5.5 348,-24.5 504,-24.5 504,-5.5 348,-5.5"/>
<text text-anchor="middle" x="426" y="-12.5" font-family="Ubuntu-R" font-size="10.00">forcebalance.molecule.isfloat</text>
</a>
</g>
<!-- Node2&#45;&gt;Node3 -->
<g id="edge4" class="edge"><title>Node2&#45;&gt;Node3</title>
<path fill="none" stroke="midnightblue" d="M311.712,-15C320.207,-15 328.939,-15 337.606,-15"/>
<polygon fill="midnightblue" stroke="midnightblue" points="337.733,-18.5001 347.733,-15 337.733,-11.5001 337.733,-18.5001"/>
</g>
</g>
</svg>
