<?xml version="1.0" encoding="UTF-8" standalone="no"?>
<!DOCTYPE svg PUBLIC "-//W3C//DTD SVG 1.1//EN"
 "http://www.w3.org/Graphics/SVG/1.1/DTD/svg11.dtd">
<!-- Generated by graphviz version 2.28.0 (20111219.2309)
 -->
<!-- Title: G Pages: 1 -->
<svg width="2298pt" height="266pt"
 viewBox="0.00 0.00 2298.00 265.62" xmlns="http://www.w3.org/2000/svg" xmlns:xlink="http://www.w3.org/1999/xlink">
<g id="graph1" class="graph" transform="scale(1 1) rotate(0) translate(4 261.623)">
<title>G</title>
<polygon fill="white" stroke="white" points="-4,5 -4,-261.623 2295,-261.623 2295,5 -4,5"/>
<!-- Node1 -->
<g id="node1" class="node"><title>Node1</title>
<polygon fill="#bfbfbf" stroke="black" points="0.5,-108.5 0.5,-127.5 191.5,-127.5 191.5,-108.5 0.5,-108.5"/>
<text text-anchor="middle" x="96" y="-115.5" font-family="Ubuntu-R" font-size="10.00">forcebalance.Mol2.mol2_atom.parse</text>
</g>
<!-- Node2 -->
<g id="node3" class="node"><title>Node2</title>
<a xlink:href="classforcebalance_1_1Mol2_1_1mol2__atom.html#a3a6c9728119ace119108183920689a9d" target="_top" xlink:title="the coordinates of the atom">
<polygon fill="white" stroke="black" points="1570.5,-170.5 1570.5,-189.5 1775.5,-189.5 1775.5,-170.5 1570.5,-170.5"/>
<text text-anchor="middle" x="1673" y="-177.5" font-family="Ubuntu-R" font-size="10.00">forcebalance.Mol2.mol2_atom.set_crds</text>
</a>
</g>
<!-- Node1&#45;&gt;Node2 -->
<g id="edge2" class="edge"><title>Node1&#45;&gt;Node2</title>
<path fill="none" stroke="midnightblue" d="M137.213,-127.531C163.023,-133.34 197.33,-140.489 228,-145 401.491,-170.519 445.642,-180 621,-180 621,-180 621,-180 1152,-180 1292.81,-180 1455.06,-180 1560.36,-180"/>
<polygon fill="midnightblue" stroke="midnightblue" points="1560.37,-183.5 1570.37,-180 1560.37,-176.5 1560.37,-183.5"/>
</g>
<!-- Node3 -->
<g id="node5" class="node"><title>Node3</title>
<a xlink:href="classforcebalance_1_1Mol2_1_1mol2__atom.html#ae879ba27197a573b6e3e1e97f0b76aff" target="_top" xlink:title="substructure identifier">
<polygon fill="white" stroke="black" points="1812,-208.5 1812,-227.5 2036,-227.5 2036,-208.5 1812,-208.5"/>
<text text-anchor="middle" x="1924" y="-215.5" font-family="Ubuntu-R" font-size="10.00">forcebalance.Mol2.mol2_atom.set_subst_id</text>
</a>
</g>
<!-- Node1&#45;&gt;Node3 -->
<g id="edge28" class="edge"><title>Node1&#45;&gt;Node3</title>
<path fill="none" stroke="midnightblue" d="M114.632,-127.519C139.249,-140.343 185.667,-162.841 228,-174 397.953,-218.799 445.242,-218 621,-218 621,-218 621,-218 1413,-218 1545.82,-218 1698.09,-218 1801.42,-218"/>
<polygon fill="midnightblue" stroke="midnightblue" points="1801.57,-221.5 1811.57,-218 1801.57,-214.5 1801.57,-221.5"/>
</g>
<!-- Node4 -->
<g id="node7" class="node"><title>Node4</title>
<a xlink:href="classforcebalance_1_1Mol2_1_1mol2__atom.html#abfe80eac2952ad867d87e8b6e64f3c09" target="_top" xlink:title="atomic charge">
<polygon fill="white" stroke="black" points="2072,-227.5 2072,-246.5 2290,-246.5 2290,-227.5 2072,-227.5"/>
<text text-anchor="middle" x="2181" y="-234.5" font-family="Ubuntu-R" font-size="10.00">forcebalance.Mol2.mol2_atom.set_charge</text>
</a>
</g>
<!-- Node1&#45;&gt;Node4 -->
<g id="edge32" class="edge"><title>Node1&#45;&gt;Node4</title>
<path fill="none" stroke="midnightblue" d="M107.197,-127.651C128.009,-146.706 177.676,-188.957 228,-208 392.576,-270.276 445.035,-256 621,-256 621,-256 621,-256 1674,-256 1806.93,-256 1959.37,-249.371 2061.89,-243.944"/>
<polygon fill="midnightblue" stroke="midnightblue" points="2062.16,-247.434 2071.96,-243.406 2061.79,-240.444 2062.16,-247.434"/>
</g>
<!-- Node5 -->
<g id="node9" class="node"><title>Node5</title>
<a xlink:href="classforcebalance_1_1Mol2_1_1mol2__atom.html#a233ebfedcde7e5d75b0ec54f194d2b4f" target="_top" xlink:title="The mol2 type of the atom.">
<polygon fill="white" stroke="black" points="228,-0.5 228,-19.5 464,-19.5 464,-0.5 228,-0.5"/>
<text text-anchor="middle" x="346" y="-7.5" font-family="Ubuntu-R" font-size="10.00">forcebalance.Mol2.mol2_atom.set_atom_type</text>
</a>
</g>
<!-- Node1&#45;&gt;Node5 -->
<g id="edge8" class="edge"><title>Node1&#45;&gt;Node5</title>
<path fill="none" stroke="midnightblue" d="M108.802,-108.264C130.804,-90.6308 180.199,-53.4396 228,-34 240.322,-28.9891 253.814,-24.9825 267.118,-21.7915"/>
<polygon fill="midnightblue" stroke="midnightblue" points="268.249,-25.1244 277.232,-19.5072 266.707,-18.2964 268.249,-25.1244"/>
</g>
<!-- Node6 -->
<g id="node11" class="node"><title>Node6</title>
<a xlink:href="classforcebalance_1_1Mol2_1_1mol2__atom.html#af149e1d049adee0318eef510a8d32f9c" target="_top" xlink:title="substructure name">
<polygon fill="white" stroke="black" points="500,-38.5 500,-57.5 744,-57.5 744,-38.5 500,-38.5"/>
<text text-anchor="middle" x="622" y="-45.5" font-family="Ubuntu-R" font-size="10.00">forcebalance.Mol2.mol2_atom.set_subst_name</text>
</a>
</g>
<!-- Node1&#45;&gt;Node6 -->
<g id="edge30" class="edge"><title>Node1&#45;&gt;Node6</title>
<path fill="none" stroke="midnightblue" d="M118.271,-108.468C143.77,-97.5301 188.07,-80.0669 228,-72 314.086,-54.6083 412.753,-48.6285 489.688,-46.9865"/>
<polygon fill="midnightblue" stroke="midnightblue" points="489.985,-50.4815 499.917,-46.7909 489.851,-43.4828 489.985,-50.4815"/>
</g>
<!-- Node7 -->
<g id="node13" class="node"><title>Node7</title>
<a xlink:href="classforcebalance_1_1Mol2_1_1mol2__atom.html#a2b8855f5349976b26917fee353618354" target="_top" xlink:title="Never to use (in theory)">
<polygon fill="white" stroke="black" points="780,-85.5 780,-104.5 1012,-104.5 1012,-85.5 780,-85.5"/>
<text text-anchor="middle" x="896" y="-92.5" font-family="Ubuntu-R" font-size="10.00">forcebalance.Mol2.mol2_atom.set_status_bit</text>
</a>
</g>
<!-- Node1&#45;&gt;Node7 -->
<g id="edge34" class="edge"><title>Node1&#45;&gt;Node7</title>
<path fill="none" stroke="midnightblue" d="M191.675,-110.717C335.494,-103.83 609.187,-95.7676 769.453,-93.5431"/>
<polygon fill="midnightblue" stroke="midnightblue" points="769.89,-97.0377 779.843,-93.4051 769.797,-90.0384 769.89,-97.0377"/>
</g>
<!-- Node9 -->
<g id="node18" class="node"><title>Node9</title>
<a xlink:href="classforcebalance_1_1Mol2_1_1mol2__atom.html#a2e0ecf1c6da8fde8ab146d4341ac1341" target="_top" xlink:title="assemble the properties as a text line, and return it">
<polygon fill="white" stroke="black" points="1048.5,-128.5 1048.5,-147.5 1253.5,-147.5 1253.5,-128.5 1048.5,-128.5"/>
<text text-anchor="middle" x="1151" y="-135.5" font-family="Ubuntu-R" font-size="10.00">forcebalance.Mol2.mol2_atom.__repr__</text>
</a>
</g>
<!-- Node1&#45;&gt;Node9 -->
<g id="edge36" class="edge"><title>Node1&#45;&gt;Node9</title>
<path fill="none" stroke="midnightblue" d="M191.762,-125.97C203.949,-126.779 216.264,-127.489 228,-128 520.047,-140.717 864.592,-140.38 1038.13,-139.141"/>
<polygon fill="midnightblue" stroke="midnightblue" points="1038.33,-142.64 1048.3,-139.066 1038.27,-135.64 1038.33,-142.64"/>
</g>
<!-- Node2&#45;&gt;Node3 -->
<g id="edge4" class="edge"><title>Node2&#45;&gt;Node3</title>
<path fill="none" stroke="midnightblue" d="M1736.51,-189.54C1771.14,-194.825 1814.37,-201.421 1850.48,-206.932"/>
<polygon fill="midnightblue" stroke="midnightblue" points="1850.05,-210.407 1860.46,-208.456 1851.1,-203.487 1850.05,-210.407"/>
</g>
<!-- Node3&#45;&gt;Node4 -->
<g id="edge6" class="edge"><title>Node3&#45;&gt;Node4</title>
<path fill="none" stroke="midnightblue" d="M2036.1,-226.278C2044.59,-226.911 2053.18,-227.551 2061.71,-228.187"/>
<polygon fill="midnightblue" stroke="midnightblue" points="2061.46,-231.677 2071.7,-228.93 2061.98,-224.697 2061.46,-231.677"/>
</g>
<!-- Node5&#45;&gt;Node6 -->
<g id="edge10" class="edge"><title>Node5&#45;&gt;Node6</title>
<path fill="none" stroke="midnightblue" d="M415.788,-19.54C454.223,-24.8703 502.273,-31.5343 542.215,-37.0736"/>
<polygon fill="midnightblue" stroke="midnightblue" points="541.798,-40.5491 552.184,-38.4561 542.759,-33.6155 541.798,-40.5491"/>
</g>
<!-- Node6&#45;&gt;Node7 -->
<g id="edge12" class="edge"><title>Node6&#45;&gt;Node7</title>
<path fill="none" stroke="midnightblue" d="M678.043,-57.5112C721.863,-65.083 783.314,-75.7013 829.634,-83.7051"/>
<polygon fill="midnightblue" stroke="midnightblue" points="829.123,-87.1685 839.572,-85.4224 830.314,-80.2708 829.123,-87.1685"/>
</g>
<!-- Node7&#45;&gt;Node1 -->
<g id="edge16" class="edge"><title>Node7&#45;&gt;Node1</title>
<path fill="none" stroke="midnightblue" d="M779.843,-103.233C624.83,-110.206 351.284,-118.032 201.781,-119.719"/>
<polygon fill="midnightblue" stroke="midnightblue" points="201.637,-116.22 191.675,-119.826 201.711,-123.22 201.637,-116.22"/>
</g>
<!-- Node8 -->
<g id="node15" class="node"><title>Node8</title>
<a xlink:href="classforcebalance_1_1Mol2_1_1mol2__atom.html#a1d745e4db9ba351cb8e4e53bf544132c" target="_top" xlink:title="if data is passed, it will be installed">
<polygon fill="white" stroke="black" points="1051,-85.5 1051,-104.5 1251,-104.5 1251,-85.5 1051,-85.5"/>
<text text-anchor="middle" x="1151" y="-92.5" font-family="Ubuntu-R" font-size="10.00">forcebalance.Mol2.mol2_atom.__init__</text>
</a>
</g>
<!-- Node7&#45;&gt;Node8 -->
<g id="edge14" class="edge"><title>Node7&#45;&gt;Node8</title>
<path fill="none" stroke="midnightblue" d="M1012.03,-95C1021.52,-95 1031.09,-95 1040.54,-95"/>
<polygon fill="midnightblue" stroke="midnightblue" points="1040.73,-98.5001 1050.73,-95 1040.73,-91.5001 1040.73,-98.5001"/>
</g>
<!-- Node7&#45;&gt;Node9 -->
<g id="edge18" class="edge"><title>Node7&#45;&gt;Node9</title>
<path fill="none" stroke="midnightblue" d="M953.149,-104.543C991.8,-111.112 1043.3,-119.865 1083.93,-126.77"/>
<polygon fill="midnightblue" stroke="midnightblue" points="1083.56,-130.258 1094.01,-128.484 1084.74,-123.357 1083.56,-130.258"/>
</g>
<!-- Node10 -->
<g id="node20" class="node"><title>Node10</title>
<a xlink:href="classforcebalance_1_1Mol2_1_1mol2__atom.html#a1af054109bd2d27c29e89b5da0f70920" target="_top" xlink:title="atom identifier (integer, starting from 1)">
<polygon fill="white" stroke="black" points="1300,-130.5 1300,-149.5 1524,-149.5 1524,-130.5 1300,-130.5"/>
<text text-anchor="middle" x="1412" y="-137.5" font-family="Ubuntu-R" font-size="10.00">forcebalance.Mol2.mol2_atom.set_atom_id</text>
</a>
</g>
<!-- Node9&#45;&gt;Node10 -->
<g id="edge20" class="edge"><title>Node9&#45;&gt;Node10</title>
<path fill="none" stroke="midnightblue" d="M1253.62,-138.785C1265.47,-138.876 1277.64,-138.97 1289.72,-139.063"/>
<polygon fill="midnightblue" stroke="midnightblue" points="1289.81,-142.564 1299.83,-139.142 1289.86,-135.564 1289.81,-142.564"/>
</g>
<!-- Node11 -->
<g id="node23" class="node"><title>Node11</title>
<a xlink:href="classforcebalance_1_1Mol2_1_1mol2__atom.html#a4d57220ec5b591ad018112d600d4cc8b" target="_top" xlink:title="The name of the atom (string)">
<polygon fill="white" stroke="black" points="1290.5,-45.5 1290.5,-64.5 1533.5,-64.5 1533.5,-45.5 1290.5,-45.5"/>
<text text-anchor="middle" x="1412" y="-52.5" font-family="Ubuntu-R" font-size="10.00">forcebalance.Mol2.mol2_atom.set_atom_name</text>
</a>
</g>
<!-- Node9&#45;&gt;Node11 -->
<g id="edge24" class="edge"><title>Node9&#45;&gt;Node11</title>
<path fill="none" stroke="midnightblue" d="M1198.03,-128.488C1215.67,-124.499 1235.9,-119.506 1254,-114 1297.99,-100.619 1347.45,-81.2973 1378.89,-68.4548"/>
<polygon fill="midnightblue" stroke="midnightblue" points="1380.52,-71.5694 1388.44,-64.5285 1377.86,-65.0956 1380.52,-71.5694"/>
</g>
<!-- Node10&#45;&gt;Node2 -->
<g id="edge22" class="edge"><title>Node10&#45;&gt;Node2</title>
<path fill="none" stroke="midnightblue" d="M1474.71,-149.53C1512.42,-155.355 1560.82,-162.829 1600.24,-168.917"/>
<polygon fill="midnightblue" stroke="midnightblue" points="1599.9,-172.406 1610.32,-170.474 1600.97,-165.488 1599.9,-172.406"/>
</g>
<!-- Node11&#45;&gt;Node5 -->
<g id="edge26" class="edge"><title>Node11&#45;&gt;Node5</title>
<path fill="none" stroke="midnightblue" d="M1290.3,-49.895C1087.67,-41.3254 681.04,-24.1276 474.167,-15.3783"/>
<polygon fill="midnightblue" stroke="midnightblue" points="474.304,-11.8811 464.165,-14.9553 474.008,-18.8748 474.304,-11.8811"/>
</g>
</g>
</svg>
