<?xml version="1.0" encoding="UTF-8" standalone="no"?>
<!DOCTYPE svg PUBLIC "-//W3C//DTD SVG 1.1//EN"
 "http://www.w3.org/Graphics/SVG/1.1/DTD/svg11.dtd">
<!-- Generated by graphviz version 2.28.0 (20111219.2309)
 -->
<!-- Title: forcebalance.interaction.Interaction.__init__ Pages: 1 -->
<svg width="2024pt" height="161pt"
 viewBox="0.00 0.00 2024.00 161.00" xmlns="http://www.w3.org/2000/svg" xmlns:xlink="http://www.w3.org/1999/xlink">
<g id="graph1" class="graph" transform="scale(1 1) rotate(0) translate(4 157)">
<title>forcebalance.interaction.Interaction.__init__</title>
<polygon fill="white" stroke="white" points="-4,5 -4,-157 2021,-157 2021,5 -4,5"/>
<!-- Node1 -->
<g id="node1" class="node"><title>Node1</title>
<polygon fill="#bfbfbf" stroke="black" points="0.5,-101 0.5,-131 135.5,-131 135.5,-101 0.5,-101"/>
<text text-anchor="start" x="8.5" y="-119" font-family="Ubuntu-R" font-size="10.00">forcebalance.interaction.</text>
<text text-anchor="middle" x="68" y="-108" font-family="Ubuntu-R" font-size="10.00">Interaction.__init__</text>
</g>
<!-- Node2 -->
<g id="node3" class="node"><title>Node2</title>
<a xlink:href="classforcebalance_1_1BaseClass.html#a73e9a37a7632e79eb99f49bd15aced45" target="_top" xlink:title="forcebalance.BaseClass.set\l_option">
<polygon fill="white" stroke="black" points="185.5,-123 185.5,-153 334.5,-153 334.5,-123 185.5,-123"/>
<text text-anchor="start" x="193.5" y="-141" font-family="Ubuntu-R" font-size="10.00">forcebalance.BaseClass.set</text>
<text text-anchor="middle" x="260" y="-130" font-family="Ubuntu-R" font-size="10.00">_option</text>
</a>
</g>
<!-- Node1&#45;&gt;Node2 -->
<g id="edge2" class="edge"><title>Node1&#45;&gt;Node2</title>
<path fill="none" stroke="midnightblue" d="M135.72,-123.725C148.501,-125.205 162.033,-126.772 175.27,-128.305"/>
<polygon fill="midnightblue" stroke="midnightblue" points="174.981,-131.795 185.317,-129.468 175.786,-124.841 174.981,-131.795"/>
</g>
<!-- Node3 -->
<g id="node5" class="node"><title>Node3</title>
<a xlink:href="namespaceforcebalance_1_1nifty.html#afa670d68f01813ac8d429bc5cbdb4f9f" target="_top" xlink:title="forcebalance.nifty.uncommadash">
<polygon fill="white" stroke="black" points="172.5,-84.5 172.5,-103.5 347.5,-103.5 347.5,-84.5 172.5,-84.5"/>
<text text-anchor="middle" x="260" y="-91.5" font-family="Ubuntu-R" font-size="10.00">forcebalance.nifty.uncommadash</text>
</a>
</g>
<!-- Node1&#45;&gt;Node3 -->
<g id="edge4" class="edge"><title>Node1&#45;&gt;Node3</title>
<path fill="none" stroke="midnightblue" d="M135.72,-108.275C145.768,-107.111 156.28,-105.894 166.747,-104.682"/>
<polygon fill="midnightblue" stroke="midnightblue" points="167.222,-108.15 176.753,-103.523 166.417,-101.197 167.222,-108.15"/>
</g>
<!-- Node4 -->
<g id="node7" class="node"><title>Node4</title>
<a xlink:href="namespaceforcebalance_1_1nifty.html#a11babd62dc7bca389162c6318f9672ca" target="_top" xlink:title="Cool&#45;looking printout for slick formatting of output. ">
<polygon fill="white" stroke="black" points="384,-84.5 384,-103.5 528,-103.5 528,-84.5 384,-84.5"/>
<text text-anchor="middle" x="456" y="-91.5" font-family="Ubuntu-R" font-size="10.00">forcebalance.nifty.printcool</text>
</a>
</g>
<!-- Node3&#45;&gt;Node4 -->
<g id="edge6" class="edge"><title>Node3&#45;&gt;Node4</title>
<path fill="none" stroke="midnightblue" d="M347.504,-94C356.218,-94 365.048,-94 373.705,-94"/>
<polygon fill="midnightblue" stroke="midnightblue" points="373.773,-97.5001 383.773,-94 373.773,-90.5001 373.773,-97.5001"/>
</g>
<!-- Node5 -->
<g id="node9" class="node"><title>Node5</title>
<a xlink:href="namespaceforcebalance_1_1nifty.html#abb8f59044961a12588e0653c2baa8b01" target="_top" xlink:title="forcebalance.nifty.warn\l_press_key">
<polygon fill="white" stroke="black" points="1651.5,-103 1651.5,-133 1776.5,-133 1776.5,-103 1651.5,-103"/>
<text text-anchor="start" x="1659.5" y="-121" font-family="Ubuntu-R" font-size="10.00">forcebalance.nifty.warn</text>
<text text-anchor="middle" x="1714" y="-110" font-family="Ubuntu-R" font-size="10.00">_press_key</text>
</a>
</g>
<!-- Node4&#45;&gt;Node5 -->
<g id="edge8" class="edge"><title>Node4&#45;&gt;Node5</title>
<path fill="none" stroke="midnightblue" d="M526.305,-103.533C596.24,-112.318 707.403,-124 804,-124 804,-124 804,-124 1331,-124 1439.23,-124 1564.69,-121.562 1641.44,-119.795"/>
<polygon fill="midnightblue" stroke="midnightblue" points="1641.56,-123.293 1651.47,-119.561 1641.4,-116.295 1641.56,-123.293"/>
</g>
<!-- Node7 -->
<g id="node13" class="node"><title>Node7</title>
<a xlink:href="namespaceforcebalance_1_1nifty.html#a51180e960742cc7547749fdfb3513ec4" target="_top" xlink:title="See documentation for printcool; this is a nice way to print out keys/values in a dictionary...">
<polygon fill="white" stroke="black" points="564,-49 564,-79 708,-79 708,-49 564,-49"/>
<text text-anchor="start" x="572" y="-67" font-family="Ubuntu-R" font-size="10.00">forcebalance.nifty.printcool</text>
<text text-anchor="middle" x="636" y="-56" font-family="Ubuntu-R" font-size="10.00">_dictionary</text>
</a>
</g>
<!-- Node4&#45;&gt;Node7 -->
<g id="edge12" class="edge"><title>Node4&#45;&gt;Node7</title>
<path fill="none" stroke="midnightblue" d="M513.81,-84.4253C526.458,-82.2936 540.108,-79.993 553.529,-77.7311"/>
<polygon fill="midnightblue" stroke="midnightblue" points="554.447,-81.1258 563.726,-76.0124 553.284,-74.2231 554.447,-81.1258"/>
</g>
<!-- Node6 -->
<g id="node11" class="node"><title>Node6</title>
<a xlink:href="namespaceforcebalance_1_1nifty.html#a2fc81730e7efa7d138dd86f733507bfc" target="_top" xlink:title="Similar to the bultin function map(). ">
<polygon fill="white" stroke="black" points="1834,-108.5 1834,-127.5 2016,-127.5 2016,-108.5 1834,-108.5"/>
<text text-anchor="middle" x="1925" y="-115.5" font-family="Ubuntu-R" font-size="10.00">forcebalance.nifty.concurrent_map</text>
</a>
</g>
<!-- Node5&#45;&gt;Node6 -->
<g id="edge10" class="edge"><title>Node5&#45;&gt;Node6</title>
<path fill="none" stroke="midnightblue" d="M1776.58,-118C1791.43,-118 1807.69,-118 1823.81,-118"/>
<polygon fill="midnightblue" stroke="midnightblue" points="1823.82,-121.5 1833.82,-118 1823.82,-114.5 1823.82,-121.5"/>
</g>
<!-- Node8 -->
<g id="node15" class="node"><title>Node8</title>
<a xlink:href="namespaceforcebalance_1_1nifty.html#a3f1c7a1af9d35d5d1693074bc6f5497c" target="_top" xlink:title="ONLY matches integers! If you have a decimal point? None shall pass! ">
<polygon fill="white" stroke="black" points="744,-54.5 744,-73.5 866,-73.5 866,-54.5 744,-54.5"/>
<text text-anchor="middle" x="805" y="-61.5" font-family="Ubuntu-R" font-size="10.00">forcebalance.nifty.isint</text>
</a>
</g>
<!-- Node7&#45;&gt;Node8 -->
<g id="edge14" class="edge"><title>Node7&#45;&gt;Node8</title>
<path fill="none" stroke="midnightblue" d="M708.307,-64C716.753,-64 725.369,-64 733.799,-64"/>
<polygon fill="midnightblue" stroke="midnightblue" points="733.965,-67.5001 743.965,-64 733.965,-60.5001 733.965,-67.5001"/>
</g>
<!-- Node10 -->
<g id="node19" class="node"><title>Node10</title>
<a xlink:href="namespaceforcebalance_1_1nifty.html#a8e3ef0108b9d37b82ba0dced7c6037ae" target="_top" xlink:title="Matches ANY number; it can be a decimal, scientific notation, what have you CAUTION &#45; this will also ...">
<polygon fill="white" stroke="black" points="1086.5,-19.5 1086.5,-38.5 1217.5,-38.5 1217.5,-19.5 1086.5,-19.5"/>
<text text-anchor="middle" x="1152" y="-26.5" font-family="Ubuntu-R" font-size="10.00">forcebalance.nifty.isfloat</text>
</a>
</g>
<!-- Node7&#45;&gt;Node10 -->
<g id="edge44" class="edge"><title>Node7&#45;&gt;Node10</title>
<path fill="none" stroke="midnightblue" d="M708.195,-50.1424C720.115,-48.172 732.382,-46.3576 744,-45 859.347,-31.5221 994.195,-28.7521 1076.06,-28.4981"/>
<polygon fill="midnightblue" stroke="midnightblue" points="1076.27,-31.9978 1086.26,-28.4787 1076.26,-24.9978 1076.27,-31.9978"/>
</g>
<!-- Node9 -->
<g id="node17" class="node"><title>Node9</title>
<a xlink:href="namespaceforcebalance_1_1nifty.html#a09263927eaec9deff283fbf1a820242f" target="_top" xlink:title="Matches things with a decimal only; see isint and isfloat. ">
<polygon fill="white" stroke="black" points="902,-76.5 902,-95.5 1050,-95.5 1050,-76.5 902,-76.5"/>
<text text-anchor="middle" x="976" y="-83.5" font-family="Ubuntu-R" font-size="10.00">forcebalance.nifty.isdecimal</text>
</a>
</g>
<!-- Node8&#45;&gt;Node9 -->
<g id="edge16" class="edge"><title>Node8&#45;&gt;Node9</title>
<path fill="none" stroke="midnightblue" d="M866.059,-71.8183C874.378,-72.9013 883.043,-74.0293 891.692,-75.1551"/>
<polygon fill="midnightblue" stroke="midnightblue" points="891.447,-78.6527 901.815,-76.4729 892.35,-71.7113 891.447,-78.6527"/>
</g>
<!-- Node9&#45;&gt;Node10 -->
<g id="edge18" class="edge"><title>Node9&#45;&gt;Node10</title>
<path fill="none" stroke="midnightblue" d="M1006.12,-76.4595C1035.23,-66.924 1080.16,-52.2064 1112.26,-41.6901"/>
<polygon fill="midnightblue" stroke="midnightblue" points="1113.37,-45.0109 1121.78,-38.5716 1111.19,-38.3587 1113.37,-45.0109"/>
</g>
<!-- Node14 -->
<g id="node28" class="node"><title>Node14</title>
<a xlink:href="namespaceforcebalance_1_1nifty.html#afb3f205bce4984856e766af7e9fdaca8" target="_top" xlink:title="Given any list, array, or matrix, return a 1&#45;column matrix. ">
<polygon fill="white" stroke="black" points="1094,-76.5 1094,-95.5 1210,-95.5 1210,-76.5 1094,-76.5"/>
<text text-anchor="middle" x="1152" y="-83.5" font-family="Ubuntu-R" font-size="10.00">forcebalance.nifty.col</text>
</a>
</g>
<!-- Node9&#45;&gt;Node14 -->
<g id="edge28" class="edge"><title>Node9&#45;&gt;Node14</title>
<path fill="none" stroke="midnightblue" d="M1050.04,-86C1061.1,-86 1072.47,-86 1083.42,-86"/>
<polygon fill="midnightblue" stroke="midnightblue" points="1083.75,-89.5001 1093.75,-86 1083.75,-82.5001 1083.75,-89.5001"/>
</g>
<!-- Node10&#45;&gt;Node8 -->
<g id="edge20" class="edge"><title>Node10&#45;&gt;Node8</title>
<path fill="none" stroke="midnightblue" d="M1086.32,-35.5614C1026.45,-41.6352 937.656,-50.6436 876.11,-56.8874"/>
<polygon fill="midnightblue" stroke="midnightblue" points="875.69,-53.4119 866.094,-57.9035 876.397,-60.3762 875.69,-53.4119"/>
</g>
<!-- Node11 -->
<g id="node22" class="node"><title>Node11</title>
<a xlink:href="namespaceforcebalance_1_1nifty.html#a8d63c8ae9a67c66673a6cf81357f827d" target="_top" xlink:title="Returns a big number if we encounter NaN. ">
<polygon fill="white" stroke="black" points="1254,-0.5 1254,-19.5 1406,-19.5 1406,-0.5 1254,-0.5"/>
<text text-anchor="middle" x="1330" y="-7.5" font-family="Ubuntu-R" font-size="10.00">forcebalance.nifty.floatornan</text>
</a>
</g>
<!-- Node10&#45;&gt;Node11 -->
<g id="edge22" class="edge"><title>Node10&#45;&gt;Node11</title>
<path fill="none" stroke="midnightblue" d="M1217.54,-22.033C1226,-21.1195 1234.77,-20.1723 1243.51,-19.2287"/>
<polygon fill="midnightblue" stroke="midnightblue" points="1244.17,-22.6781 1253.74,-18.1249 1243.42,-15.7185 1244.17,-22.6781"/>
</g>
<!-- Node12 -->
<g id="node24" class="node"><title>Node12</title>
<a xlink:href="namespaceforcebalance_1_1nifty.html#a6c9727360cdff8f3011a12cc54d0e86e" target="_top" xlink:title="Given any list, array, or matrix, return a 1&#45;row matrix. ">
<polygon fill="white" stroke="black" points="1458.5,-0.5 1458.5,-19.5 1577.5,-19.5 1577.5,-0.5 1458.5,-0.5"/>
<text text-anchor="middle" x="1518" y="-7.5" font-family="Ubuntu-R" font-size="10.00">forcebalance.nifty.row</text>
</a>
</g>
<!-- Node11&#45;&gt;Node12 -->
<g id="edge24" class="edge"><title>Node11&#45;&gt;Node12</title>
<path fill="none" stroke="midnightblue" d="M1406.12,-10C1420.02,-10 1434.47,-10 1448.17,-10"/>
<polygon fill="midnightblue" stroke="midnightblue" points="1448.48,-13.5001 1458.48,-10 1448.48,-6.5001 1448.48,-13.5001"/>
</g>
<!-- Node13 -->
<g id="node26" class="node"><title>Node13</title>
<a xlink:href="namespaceforcebalance_1_1nifty.html#a7676236002c6a65ea7d2e69a09923889" target="_top" xlink:title="Given two vectors vec1 and vec2, project out the component of vec1 that is along the vec2&#45;direction...">
<polygon fill="white" stroke="black" points="1630,-0.5 1630,-19.5 1798,-19.5 1798,-0.5 1630,-0.5"/>
<text text-anchor="middle" x="1714" y="-7.5" font-family="Ubuntu-R" font-size="10.00">forcebalance.nifty.orthogonalize</text>
</a>
</g>
<!-- Node12&#45;&gt;Node13 -->
<g id="edge26" class="edge"><title>Node12&#45;&gt;Node13</title>
<path fill="none" stroke="midnightblue" d="M1577.73,-10C1590.92,-10 1605.24,-10 1619.46,-10"/>
<polygon fill="midnightblue" stroke="midnightblue" points="1619.78,-13.5001 1629.78,-10 1619.78,-6.5001 1619.78,-13.5001"/>
</g>
<!-- Node15 -->
<g id="node30" class="node"><title>Node15</title>
<a xlink:href="namespaceforcebalance_1_1nifty.html#a52114ceee9d55f94d9aecb3e176de294" target="_top" xlink:title="Given any list, array, or matrix, return a single&#45;index array. ">
<polygon fill="white" stroke="black" points="1271,-38.5 1271,-57.5 1389,-57.5 1389,-38.5 1271,-38.5"/>
<text text-anchor="middle" x="1330" y="-45.5" font-family="Ubuntu-R" font-size="10.00">forcebalance.nifty.flat</text>
</a>
</g>
<!-- Node14&#45;&gt;Node15 -->
<g id="edge30" class="edge"><title>Node14&#45;&gt;Node15</title>
<path fill="none" stroke="midnightblue" d="M1197.41,-76.411C1220.95,-71.3287 1250.06,-65.0446 1274.9,-59.6797"/>
<polygon fill="midnightblue" stroke="midnightblue" points="1275.87,-63.0518 1284.91,-57.5201 1274.39,-56.2094 1275.87,-63.0518"/>
</g>
<!-- Node16 -->
<g id="node32" class="node"><title>Node16</title>
<a xlink:href="namespaceforcebalance_1_1nifty.html#a4c82187e92dfeb8a159f4aa44b501c40" target="_top" xlink:title="Invert a matrix using singular value decomposition. ">
<polygon fill="white" stroke="black" points="1442,-76.5 1442,-95.5 1594,-95.5 1594,-76.5 1442,-76.5"/>
<text text-anchor="middle" x="1518" y="-83.5" font-family="Ubuntu-R" font-size="10.00">forcebalance.nifty.invert_svd</text>
</a>
</g>
<!-- Node15&#45;&gt;Node16 -->
<g id="edge32" class="edge"><title>Node15&#45;&gt;Node16</title>
<path fill="none" stroke="midnightblue" d="M1377.94,-57.589C1403.03,-62.7165 1434.12,-69.0672 1460.53,-74.4632"/>
<polygon fill="midnightblue" stroke="midnightblue" points="1459.9,-77.9074 1470.4,-76.4799 1461.3,-71.049 1459.9,-77.9074"/>
</g>
<!-- Node16&#45;&gt;Node5 -->
<g id="edge42" class="edge"><title>Node16&#45;&gt;Node5</title>
<path fill="none" stroke="midnightblue" d="M1576.68,-95.5144C1597.03,-98.8703 1620.15,-102.684 1641.5,-106.206"/>
<polygon fill="midnightblue" stroke="midnightblue" points="1641.05,-109.68 1651.49,-107.854 1642.19,-102.773 1641.05,-109.68"/>
</g>
<!-- Node16&#45;&gt;Node14 -->
<g id="edge40" class="edge"><title>Node16&#45;&gt;Node14</title>
<path fill="none" stroke="midnightblue" d="M1441.75,-86C1376.6,-86 1283.22,-86 1220.46,-86"/>
<polygon fill="midnightblue" stroke="midnightblue" points="1220.28,-82.5001 1210.28,-86 1220.28,-89.5001 1220.28,-82.5001"/>
</g>
<!-- Node17 -->
<g id="node34" class="node"><title>Node17</title>
<a xlink:href="namespaceforcebalance_1_1nifty.html#aa9fb9c7c65231eca50a7afc04f489b64" target="_top" xlink:title="forcebalance.nifty.get\l_least_squares">
<polygon fill="white" stroke="black" points="1654.5,-49 1654.5,-79 1773.5,-79 1773.5,-49 1654.5,-49"/>
<text text-anchor="start" x="1662.5" y="-67" font-family="Ubuntu-R" font-size="10.00">forcebalance.nifty.get</text>
<text text-anchor="middle" x="1714" y="-56" font-family="Ubuntu-R" font-size="10.00">_least_squares</text>
</a>
</g>
<!-- Node16&#45;&gt;Node17 -->
<g id="edge34" class="edge"><title>Node16&#45;&gt;Node17</title>
<path fill="none" stroke="midnightblue" d="M1594.01,-77.4942C1610.61,-75.6117 1628.11,-73.6264 1644.44,-71.7748"/>
<polygon fill="midnightblue" stroke="midnightblue" points="1644.89,-75.2459 1654.44,-70.6413 1644.11,-68.2905 1644.89,-75.2459"/>
</g>
<!-- Node17&#45;&gt;Node15 -->
<g id="edge36" class="edge"><title>Node17&#45;&gt;Node15</title>
<path fill="none" stroke="midnightblue" d="M1654.44,-61.5471C1585.76,-58.6707 1472.1,-53.9101 1399.43,-50.8663"/>
<polygon fill="midnightblue" stroke="midnightblue" points="1399.16,-47.3517 1389.02,-50.4301 1398.86,-54.3456 1399.16,-47.3517"/>
</g>
<!-- Node18 -->
<g id="node37" class="node"><title>Node18</title>
<a xlink:href="namespaceforcebalance_1_1nifty.html#ad5ca60565c864b4245a8212fe9d92e10" target="_top" xlink:title="Compute the (cross) statistical inefficiency of (two) timeseries. ">
<polygon fill="white" stroke="black" points="1850.5,-49 1850.5,-79 1999.5,-79 1999.5,-49 1850.5,-49"/>
<text text-anchor="start" x="1858.5" y="-67" font-family="Ubuntu-R" font-size="10.00">forcebalance.nifty.statistical</text>
<text text-anchor="middle" x="1925" y="-56" font-family="Ubuntu-R" font-size="10.00">Inefficiency</text>
</a>
</g>
<!-- Node17&#45;&gt;Node18 -->
<g id="edge38" class="edge"><title>Node17&#45;&gt;Node18</title>
<path fill="none" stroke="midnightblue" d="M1773.77,-64C1794.4,-64 1817.99,-64 1840.26,-64"/>
<polygon fill="midnightblue" stroke="midnightblue" points="1840.39,-67.5001 1850.39,-64 1840.39,-60.5001 1840.39,-67.5001"/>
</g>
</g>
</svg>
