<?xml version="1.0" encoding="UTF-8" standalone="no"?>
<!DOCTYPE svg PUBLIC "-//W3C//DTD SVG 1.1//EN"
 "http://www.w3.org/Graphics/SVG/1.1/DTD/svg11.dtd">
<!-- Generated by graphviz version 2.26.3 (20100126.1600)
 -->
<!-- Title: forcebalance.optimizer.Optimizer.SinglePoint Pages: 1 -->
<svg width="1846pt" height="314pt"
 viewBox="0.00 0.00 1846.00 314.00" xmlns="http://www.w3.org/2000/svg" xmlns:xlink="http://www.w3.org/1999/xlink">
<g id="graph1" class="graph" transform="scale(1 1) rotate(0) translate(4 310)">
<title>forcebalance.optimizer.Optimizer.SinglePoint</title>
<polygon fill="white" stroke="white" points="-4,5 -4,-310 1843,-310 1843,5 -4,5"/>
<!-- Node1 -->
<g id="node1" class="node"><title>Node1</title>
<polygon fill="#bfbfbf" stroke="black" points="0,-97 0,-131 176,-131 176,-97 0,-97"/>
<text text-anchor="start" x="8" y="-118" font-family="Ubuntu-R" font-size="10.00">forcebalance.optimizer.Optimizer.</text>
<text text-anchor="middle" x="88" y="-105" font-family="Ubuntu-R" font-size="10.00">SinglePoint</text>
</g>
<!-- Node2 -->
<g id="node3" class="node"><title>Node2</title>
<a xlink:href="classforcebalance_1_1optimizer_1_1Optimizer.html#aacf96d137fb0e491af7e380c8bd61eb9" target="_top" xlink:title="Finite&#45;difference checker for the objective function gradient.">
<polygon fill="white" stroke="black" points="212,-97 212,-131 388,-131 388,-97 212,-97"/>
<text text-anchor="start" x="220" y="-118" font-family="Ubuntu-R" font-size="10.00">forcebalance.optimizer.Optimizer.</text>
<text text-anchor="middle" x="300" y="-105" font-family="Ubuntu-R" font-size="10.00">FDCheckG</text>
</a>
</g>
<!-- Node1&#45;&gt;Node2 -->
<g id="edge2" class="edge"><title>Node1&#45;&gt;Node2</title>
<path fill="none" stroke="midnightblue" d="M176.065,-114C184.569,-114 193.232,-114 201.825,-114"/>
<polygon fill="midnightblue" stroke="midnightblue" points="201.868,-117.5 211.868,-114 201.868,-110.5 201.868,-117.5"/>
</g>
<!-- Node3 -->
<g id="node5" class="node"><title>Node3</title>
<a xlink:href="namespaceforcebalance_1_1nifty.html#a11babd62dc7bca389162c6318f9672ca" target="_top" xlink:title="Cool&#45;looking printout for slick formatting of output.">
<polygon fill="white" stroke="black" points="424,-171.5 424,-192.5 568,-192.5 568,-171.5 424,-171.5"/>
<text text-anchor="middle" x="496" y="-179.5" font-family="Ubuntu-R" font-size="10.00">forcebalance.nifty.printcool</text>
</a>
</g>
<!-- Node2&#45;&gt;Node3 -->
<g id="edge4" class="edge"><title>Node2&#45;&gt;Node3</title>
<path fill="none" stroke="midnightblue" d="M349.206,-131.071C382.256,-142.538 425.247,-157.453 456.151,-168.175"/>
<polygon fill="midnightblue" stroke="midnightblue" points="455.137,-171.528 465.732,-171.499 457.432,-164.914 455.137,-171.528"/>
</g>
<!-- Node16 -->
<g id="node36" class="node"><title>Node16</title>
<a xlink:href="namespaceforcebalance_1_1finite__difference.html#a123c5d5dea0f3f50ab57796bb3bc39be" target="_top" xlink:title="A highly accurate five&#45;point finite difference stencil for computing derivatives of a function...">
<polygon fill="white" stroke="black" points="444,-97 444,-131 548,-131 548,-97 444,-97"/>
<text text-anchor="start" x="452" y="-118" font-family="Ubuntu-R" font-size="10.00">forcebalance.finite</text>
<text text-anchor="middle" x="496" y="-105" font-family="Ubuntu-R" font-size="10.00">_difference.f1d5p</text>
</a>
</g>
<!-- Node2&#45;&gt;Node16 -->
<g id="edge40" class="edge"><title>Node2&#45;&gt;Node16</title>
<path fill="none" stroke="midnightblue" d="M388.253,-114C403.542,-114 419.152,-114 433.572,-114"/>
<polygon fill="midnightblue" stroke="midnightblue" points="433.841,-117.5 443.841,-114 433.841,-110.5 433.841,-117.5"/>
</g>
<!-- Node21 -->
<g id="node46" class="node"><title>Node21</title>
<a xlink:href="namespaceforcebalance_1_1finite__difference.html#ae484c591ae8c4e5bae73a0ef2660c339" target="_top" xlink:title="A function wrapper for finite difference designed for differentiating &#39;get&#39;&#45;type functions.">
<polygon fill="white" stroke="black" points="1140,-52 1140,-86 1244,-86 1244,-52 1140,-52"/>
<text text-anchor="start" x="1148" y="-73" font-family="Ubuntu-R" font-size="10.00">forcebalance.finite</text>
<text text-anchor="middle" x="1192" y="-60" font-family="Ubuntu-R" font-size="10.00">_difference.fdwrap</text>
</a>
</g>
<!-- Node2&#45;&gt;Node21 -->
<g id="edge58" class="edge"><title>Node2&#45;&gt;Node21</title>
<path fill="none" stroke="midnightblue" d="M373.155,-96.9975C389.796,-93.5945 407.449,-90.3488 424,-88 535.204,-72.2191 563.682,-69 676,-69 676,-69 676,-69 845,-69 944.561,-69 1060.19,-69 1129.65,-69"/>
<polygon fill="midnightblue" stroke="midnightblue" points="1129.97,-72.5001 1139.97,-69 1129.97,-65.5001 1129.97,-72.5001"/>
</g>
<!-- Node4 -->
<g id="node7" class="node"><title>Node4</title>
<a xlink:href="namespaceforcebalance_1_1nifty.html#abb8f59044961a12588e0653c2baa8b01" target="_top" xlink:title="forcebalance.nifty.warn\l_press_key">
<polygon fill="white" stroke="black" points="1691.5,-272 1691.5,-306 1816.5,-306 1816.5,-272 1691.5,-272"/>
<text text-anchor="start" x="1699.5" y="-293" font-family="Ubuntu-R" font-size="10.00">forcebalance.nifty.warn</text>
<text text-anchor="middle" x="1754" y="-280" font-family="Ubuntu-R" font-size="10.00">_press_key</text>
</a>
</g>
<!-- Node3&#45;&gt;Node4 -->
<g id="edge6" class="edge"><title>Node3&#45;&gt;Node4</title>
<path fill="none" stroke="midnightblue" d="M514.615,-192.537C565.681,-220.418 712.96,-294 845,-294 845,-294 845,-294 1370,-294 1478.47,-294 1604.17,-291.981 1681.38,-290.508"/>
<polygon fill="midnightblue" stroke="midnightblue" points="1681.55,-294.006 1691.48,-290.314 1681.42,-287.007 1681.55,-294.006"/>
</g>
<!-- Node5 -->
<g id="node9" class="node"><title>Node5</title>
<a xlink:href="namespaceforcebalance_1_1nifty.html#a51180e960742cc7547749fdfb3513ec4" target="_top" xlink:title="See documentation for printcool; this is a nice way to print out keys/values in a dictionary...">
<polygon fill="white" stroke="black" points="604,-165 604,-199 748,-199 748,-165 604,-165"/>
<text text-anchor="start" x="612" y="-186" font-family="Ubuntu-R" font-size="10.00">forcebalance.nifty.printcool</text>
<text text-anchor="middle" x="676" y="-173" font-family="Ubuntu-R" font-size="10.00">_dictionary</text>
</a>
</g>
<!-- Node3&#45;&gt;Node5 -->
<g id="edge8" class="edge"><title>Node3&#45;&gt;Node5</title>
<path fill="none" stroke="midnightblue" d="M568.176,-182C576.52,-182 585.077,-182 593.544,-182"/>
<polygon fill="midnightblue" stroke="midnightblue" points="593.808,-185.5 603.808,-182 593.808,-178.5 593.808,-185.5"/>
</g>
<!-- Node6 -->
<g id="node11" class="node"><title>Node6</title>
<a xlink:href="namespaceforcebalance_1_1nifty.html#a3f1c7a1af9d35d5d1693074bc6f5497c" target="_top" xlink:title="ONLY matches integers! If you have a decimal point? None shall pass!">
<polygon fill="white" stroke="black" points="784,-187.5 784,-208.5 906,-208.5 906,-187.5 784,-187.5"/>
<text text-anchor="middle" x="845" y="-195.5" font-family="Ubuntu-R" font-size="10.00">forcebalance.nifty.isint</text>
</a>
</g>
<!-- Node5&#45;&gt;Node6 -->
<g id="edge10" class="edge"><title>Node5&#45;&gt;Node6</title>
<path fill="none" stroke="midnightblue" d="M748.161,-188.832C756.644,-189.635 765.297,-190.454 773.767,-191.256"/>
<polygon fill="midnightblue" stroke="midnightblue" points="773.699,-194.765 783.984,-192.223 774.359,-187.796 773.699,-194.765"/>
</g>
<!-- Node8 -->
<g id="node15" class="node"><title>Node8</title>
<a xlink:href="namespaceforcebalance_1_1nifty.html#a8e3ef0108b9d37b82ba0dced7c6037ae" target="_top" xlink:title="Matches ANY number; it can be a decimal, scientific notation, what have you CAUTION &#45; this will also ...">
<polygon fill="white" stroke="black" points="1126.5,-176.5 1126.5,-197.5 1257.5,-197.5 1257.5,-176.5 1126.5,-176.5"/>
<text text-anchor="middle" x="1192" y="-184.5" font-family="Ubuntu-R" font-size="10.00">forcebalance.nifty.isfloat</text>
</a>
</g>
<!-- Node5&#45;&gt;Node8 -->
<g id="edge38" class="edge"><title>Node5&#45;&gt;Node8</title>
<path fill="none" stroke="midnightblue" d="M748.026,-178.961C760.037,-178.561 772.369,-178.215 784,-178 899.826,-175.856 1034.13,-180.122 1116.07,-183.485"/>
<polygon fill="midnightblue" stroke="midnightblue" points="1116.15,-186.991 1126.29,-183.911 1116.44,-179.997 1116.15,-186.991"/>
</g>
<!-- Node7 -->
<g id="node13" class="node"><title>Node7</title>
<a xlink:href="namespaceforcebalance_1_1nifty.html#a09263927eaec9deff283fbf1a820242f" target="_top" xlink:title="Matches things with a decimal only; see isint and isfloat.">
<polygon fill="white" stroke="black" points="942.5,-225.5 942.5,-246.5 1089.5,-246.5 1089.5,-225.5 942.5,-225.5"/>
<text text-anchor="middle" x="1016" y="-233.5" font-family="Ubuntu-R" font-size="10.00">forcebalance.nifty.isdecimal</text>
</a>
</g>
<!-- Node6&#45;&gt;Node7 -->
<g id="edge12" class="edge"><title>Node6&#45;&gt;Node7</title>
<path fill="none" stroke="midnightblue" d="M892.633,-208.585C913.108,-213.135 937.214,-218.492 958.659,-223.257"/>
<polygon fill="midnightblue" stroke="midnightblue" points="958.101,-226.719 968.622,-225.472 959.62,-219.886 958.101,-226.719"/>
</g>
<!-- Node7&#45;&gt;Node8 -->
<g id="edge14" class="edge"><title>Node7&#45;&gt;Node8</title>
<path fill="none" stroke="midnightblue" d="M1053.76,-225.488C1080.23,-218.118 1115.83,-208.208 1144.27,-200.289"/>
<polygon fill="midnightblue" stroke="midnightblue" points="1145.31,-203.633 1154,-197.579 1143.43,-196.889 1145.31,-203.633"/>
</g>
<!-- Node12 -->
<g id="node24" class="node"><title>Node12</title>
<a xlink:href="namespaceforcebalance_1_1nifty.html#afb3f205bce4984856e766af7e9fdaca8" target="_top" xlink:title="Given any list, array, or matrix, return a 1&#45;column matrix.">
<polygon fill="white" stroke="black" points="1134,-225.5 1134,-246.5 1250,-246.5 1250,-225.5 1134,-225.5"/>
<text text-anchor="middle" x="1192" y="-233.5" font-family="Ubuntu-R" font-size="10.00">forcebalance.nifty.col</text>
</a>
</g>
<!-- Node7&#45;&gt;Node12 -->
<g id="edge24" class="edge"><title>Node7&#45;&gt;Node12</title>
<path fill="none" stroke="midnightblue" d="M1089.62,-236C1100.94,-236 1112.59,-236 1123.79,-236"/>
<polygon fill="midnightblue" stroke="midnightblue" points="1123.93,-239.5 1133.93,-236 1123.93,-232.5 1123.93,-239.5"/>
</g>
<!-- Node8&#45;&gt;Node6 -->
<g id="edge16" class="edge"><title>Node8&#45;&gt;Node6</title>
<path fill="none" stroke="midnightblue" d="M1126.36,-189.081C1066.4,-190.982 977.948,-193.786 916.279,-195.74"/>
<polygon fill="midnightblue" stroke="midnightblue" points="916.122,-192.244 906.238,-196.059 916.344,-199.24 916.122,-192.244"/>
</g>
<!-- Node9 -->
<g id="node18" class="node"><title>Node9</title>
<a xlink:href="namespaceforcebalance_1_1nifty.html#a8d63c8ae9a67c66673a6cf81357f827d" target="_top" xlink:title="Returns a big number if we encounter NaN.">
<polygon fill="white" stroke="black" points="1294.5,-166.5 1294.5,-187.5 1445.5,-187.5 1445.5,-166.5 1294.5,-166.5"/>
<text text-anchor="middle" x="1370" y="-174.5" font-family="Ubuntu-R" font-size="10.00">forcebalance.nifty.floatornan</text>
</a>
</g>
<!-- Node8&#45;&gt;Node9 -->
<g id="edge18" class="edge"><title>Node8&#45;&gt;Node9</title>
<path fill="none" stroke="midnightblue" d="M1257.52,-183.319C1266.24,-182.829 1275.28,-182.322 1284.27,-181.816"/>
<polygon fill="midnightblue" stroke="midnightblue" points="1284.6,-185.304 1294.38,-181.248 1284.2,-178.315 1284.6,-185.304"/>
</g>
<!-- Node10 -->
<g id="node20" class="node"><title>Node10</title>
<a xlink:href="namespaceforcebalance_1_1nifty.html#a6c9727360cdff8f3011a12cc54d0e86e" target="_top" xlink:title="Given any list, array, or matrix, return a 1&#45;row matrix.">
<polygon fill="white" stroke="black" points="1498.5,-166.5 1498.5,-187.5 1617.5,-187.5 1617.5,-166.5 1498.5,-166.5"/>
<text text-anchor="middle" x="1558" y="-174.5" font-family="Ubuntu-R" font-size="10.00">forcebalance.nifty.row</text>
</a>
</g>
<!-- Node9&#45;&gt;Node10 -->
<g id="edge20" class="edge"><title>Node9&#45;&gt;Node10</title>
<path fill="none" stroke="midnightblue" d="M1445.65,-177C1459.64,-177 1474.19,-177 1488,-177"/>
<polygon fill="midnightblue" stroke="midnightblue" points="1488.39,-180.5 1498.39,-177 1488.39,-173.5 1488.39,-180.5"/>
</g>
<!-- Node11 -->
<g id="node22" class="node"><title>Node11</title>
<a xlink:href="namespaceforcebalance_1_1nifty.html#a7676236002c6a65ea7d2e69a09923889" target="_top" xlink:title="Given two vectors vec1 and vec2, project out the component of vec1 that is along the vec2&#45;direction...">
<polygon fill="white" stroke="black" points="1670,-166.5 1670,-187.5 1838,-187.5 1838,-166.5 1670,-166.5"/>
<text text-anchor="middle" x="1754" y="-174.5" font-family="Ubuntu-R" font-size="10.00">forcebalance.nifty.orthogonalize</text>
</a>
</g>
<!-- Node10&#45;&gt;Node11 -->
<g id="edge22" class="edge"><title>Node10&#45;&gt;Node11</title>
<path fill="none" stroke="midnightblue" d="M1617.6,-177C1630.84,-177 1645.18,-177 1659.42,-177"/>
<polygon fill="midnightblue" stroke="midnightblue" points="1659.76,-180.5 1669.76,-177 1659.76,-173.5 1659.76,-180.5"/>
</g>
<!-- Node13 -->
<g id="node26" class="node"><title>Node13</title>
<a xlink:href="namespaceforcebalance_1_1nifty.html#a52114ceee9d55f94d9aecb3e176de294" target="_top" xlink:title="Given any list, array, or matrix, return a single&#45;index array.">
<polygon fill="white" stroke="black" points="1311.5,-206.5 1311.5,-227.5 1428.5,-227.5 1428.5,-206.5 1311.5,-206.5"/>
<text text-anchor="middle" x="1370" y="-214.5" font-family="Ubuntu-R" font-size="10.00">forcebalance.nifty.flat</text>
</a>
</g>
<!-- Node12&#45;&gt;Node13 -->
<g id="edge26" class="edge"><title>Node12&#45;&gt;Node13</title>
<path fill="none" stroke="midnightblue" d="M1250.28,-229.779C1266.49,-228.049 1284.24,-226.154 1301,-224.365"/>
<polygon fill="midnightblue" stroke="midnightblue" points="1301.71,-227.809 1311.28,-223.268 1300.97,-220.849 1301.71,-227.809"/>
</g>
<!-- Node14 -->
<g id="node28" class="node"><title>Node14</title>
<a xlink:href="namespaceforcebalance_1_1nifty.html#a4c82187e92dfeb8a159f4aa44b501c40" target="_top" xlink:title="Invert a matrix using singular value decomposition.">
<polygon fill="white" stroke="black" points="1482.5,-244.5 1482.5,-265.5 1633.5,-265.5 1633.5,-244.5 1482.5,-244.5"/>
<text text-anchor="middle" x="1558" y="-252.5" font-family="Ubuntu-R" font-size="10.00">forcebalance.nifty.invert_svd</text>
</a>
</g>
<!-- Node13&#45;&gt;Node14 -->
<g id="edge28" class="edge"><title>Node13&#45;&gt;Node14</title>
<path fill="none" stroke="midnightblue" d="M1422.37,-227.585C1445.18,-232.197 1472.1,-237.637 1495.92,-242.451"/>
<polygon fill="midnightblue" stroke="midnightblue" points="1495.42,-245.921 1505.91,-244.472 1496.8,-239.06 1495.42,-245.921"/>
</g>
<!-- Node14&#45;&gt;Node4 -->
<g id="edge36" class="edge"><title>Node14&#45;&gt;Node4</title>
<path fill="none" stroke="midnightblue" d="M1618.67,-265.525C1638.48,-268.961 1660.68,-272.812 1681.28,-276.385"/>
<polygon fill="midnightblue" stroke="midnightblue" points="1680.79,-279.853 1691.24,-278.114 1681.99,-272.956 1680.79,-279.853"/>
</g>
<!-- Node14&#45;&gt;Node12 -->
<g id="edge34" class="edge"><title>Node14&#45;&gt;Node12</title>
<path fill="none" stroke="midnightblue" d="M1482.35,-251.073C1417.13,-247.687 1323.75,-242.839 1260.65,-239.564"/>
<polygon fill="midnightblue" stroke="midnightblue" points="1260.57,-236.055 1250.4,-239.032 1260.2,-243.045 1260.57,-236.055"/>
</g>
<!-- Node15 -->
<g id="node30" class="node"><title>Node15</title>
<a xlink:href="namespaceforcebalance_1_1nifty.html#aa9fb9c7c65231eca50a7afc04f489b64" target="_top" xlink:title="forcebalance.nifty.get\l_least_squares">
<polygon fill="white" stroke="black" points="1695,-215 1695,-249 1813,-249 1813,-215 1695,-215"/>
<text text-anchor="start" x="1703" y="-236" font-family="Ubuntu-R" font-size="10.00">forcebalance.nifty.get</text>
<text text-anchor="middle" x="1754" y="-223" font-family="Ubuntu-R" font-size="10.00">_least_squares</text>
</a>
</g>
<!-- Node14&#45;&gt;Node15 -->
<g id="edge30" class="edge"><title>Node14&#45;&gt;Node15</title>
<path fill="none" stroke="midnightblue" d="M1633.78,-246.108C1650.55,-244.14 1668.24,-242.064 1684.73,-240.128"/>
<polygon fill="midnightblue" stroke="midnightblue" points="1685.31,-243.585 1694.83,-238.943 1684.49,-236.633 1685.31,-243.585"/>
</g>
<!-- Node15&#45;&gt;Node13 -->
<g id="edge32" class="edge"><title>Node15&#45;&gt;Node13</title>
<path fill="none" stroke="midnightblue" d="M1694.95,-229.693C1625.89,-226.996 1511.75,-222.537 1438.76,-219.686"/>
<polygon fill="midnightblue" stroke="midnightblue" points="1438.87,-216.188 1428.74,-219.295 1438.6,-223.182 1438.87,-216.188"/>
</g>
<!-- Node17 -->
<g id="node38" class="node"><title>Node17</title>
<a xlink:href="namespaceforcebalance_1_1finite__difference.html#a9be9f0d21300958092e380514e2e980d" target="_top" xlink:title="A highly accurate seven&#45;point finite difference stencil for computing derivatives of a function...">
<polygon fill="white" stroke="black" points="624,-97 624,-131 728,-131 728,-97 624,-97"/>
<text text-anchor="start" x="632" y="-118" font-family="Ubuntu-R" font-size="10.00">forcebalance.finite</text>
<text text-anchor="middle" x="676" y="-105" font-family="Ubuntu-R" font-size="10.00">_difference.f1d7p</text>
</a>
</g>
<!-- Node16&#45;&gt;Node17 -->
<g id="edge42" class="edge"><title>Node16&#45;&gt;Node17</title>
<path fill="none" stroke="midnightblue" d="M548.063,-114C568.497,-114 592.124,-114 613.47,-114"/>
<polygon fill="midnightblue" stroke="midnightblue" points="613.742,-117.5 623.742,-114 613.742,-110.5 613.742,-117.5"/>
</g>
<!-- Node18 -->
<g id="node40" class="node"><title>Node18</title>
<a xlink:href="namespaceforcebalance_1_1finite__difference.html#acc281f85b668062745f711d9b4a610fa" target="_top" xlink:title="forcebalance.finite\l_difference.f12d7p">
<polygon fill="white" stroke="black" points="792.5,-97 792.5,-131 897.5,-131 897.5,-97 792.5,-97"/>
<text text-anchor="start" x="800.5" y="-118" font-family="Ubuntu-R" font-size="10.00">forcebalance.finite</text>
<text text-anchor="middle" x="845" y="-105" font-family="Ubuntu-R" font-size="10.00">_difference.f12d7p</text>
</a>
</g>
<!-- Node17&#45;&gt;Node18 -->
<g id="edge44" class="edge"><title>Node17&#45;&gt;Node18</title>
<path fill="none" stroke="midnightblue" d="M728.085,-114C745.11,-114 764.205,-114 781.948,-114"/>
<polygon fill="midnightblue" stroke="midnightblue" points="782.214,-117.5 792.213,-114 782.213,-110.5 782.214,-117.5"/>
</g>
<!-- Node19 -->
<g id="node42" class="node"><title>Node19</title>
<a xlink:href="namespaceforcebalance_1_1finite__difference.html#aa69a8819e4680091f400303c1d6ddeb7" target="_top" xlink:title="A three&#45;point finite difference stencil.">
<polygon fill="white" stroke="black" points="963.5,-97 963.5,-131 1068.5,-131 1068.5,-97 963.5,-97"/>
<text text-anchor="start" x="971.5" y="-118" font-family="Ubuntu-R" font-size="10.00">forcebalance.finite</text>
<text text-anchor="middle" x="1016" y="-105" font-family="Ubuntu-R" font-size="10.00">_difference.f12d3p</text>
</a>
</g>
<!-- Node18&#45;&gt;Node19 -->
<g id="edge46" class="edge"><title>Node18&#45;&gt;Node19</title>
<path fill="none" stroke="midnightblue" d="M897.701,-114C915.256,-114 934.984,-114 953.225,-114"/>
<polygon fill="midnightblue" stroke="midnightblue" points="953.473,-117.5 963.473,-114 953.473,-110.5 953.473,-117.5"/>
</g>
<!-- Node20 -->
<g id="node44" class="node"><title>Node20</title>
<a xlink:href="namespaceforcebalance_1_1finite__difference.html#ad84d3e385db1190e7d8ef58bc08a6c52" target="_top" xlink:title="Invoking this function from anywhere will tell us whether we&#39;re being called by a finite&#45;difference f...">
<polygon fill="white" stroke="black" points="1140,-104 1140,-138 1244,-138 1244,-104 1140,-104"/>
<text text-anchor="start" x="1148" y="-125" font-family="Ubuntu-R" font-size="10.00">forcebalance.finite</text>
<text text-anchor="middle" x="1192" y="-112" font-family="Ubuntu-R" font-size="10.00">_difference.in_fd</text>
</a>
</g>
<!-- Node19&#45;&gt;Node20 -->
<g id="edge48" class="edge"><title>Node19&#45;&gt;Node20</title>
<path fill="none" stroke="midnightblue" d="M1068.81,-116.1C1087.95,-116.862 1109.75,-117.729 1129.64,-118.52"/>
<polygon fill="midnightblue" stroke="midnightblue" points="1129.71,-122.025 1139.84,-118.925 1129.99,-115.031 1129.71,-122.025"/>
</g>
<!-- Node19&#45;&gt;Node21 -->
<g id="edge50" class="edge"><title>Node19&#45;&gt;Node21</title>
<path fill="none" stroke="midnightblue" d="M1068.81,-100.499C1088.04,-95.5819 1109.95,-89.9789 1129.91,-84.8752"/>
<polygon fill="midnightblue" stroke="midnightblue" points="1131.02,-88.205 1139.84,-82.3369 1129.28,-81.4232 1131.02,-88.205"/>
</g>
<!-- Node22 -->
<g id="node48" class="node"><title>Node22</title>
<a xlink:href="namespaceforcebalance_1_1finite__difference.html#a00322fb65860c390616f74d05037c797" target="_top" xlink:title="A driver to fdwrap for gradients (see documentation for fdwrap) Inputs: tgt = The Target containing t...">
<polygon fill="white" stroke="black" points="1312,-52 1312,-86 1428,-86 1428,-52 1312,-52"/>
<text text-anchor="start" x="1320" y="-73" font-family="Ubuntu-R" font-size="10.00">forcebalance.finite</text>
<text text-anchor="middle" x="1370" y="-60" font-family="Ubuntu-R" font-size="10.00">_difference.fdwrap_G</text>
</a>
</g>
<!-- Node21&#45;&gt;Node22 -->
<g id="edge52" class="edge"><title>Node21&#45;&gt;Node22</title>
<path fill="none" stroke="midnightblue" d="M1244.44,-62.7839C1262.35,-62.2309 1282.65,-62.1075 1301.62,-62.4137"/>
<polygon fill="midnightblue" stroke="midnightblue" points="1301.63,-65.9145 1311.7,-62.6204 1301.77,-58.916 1301.63,-65.9145"/>
</g>
<!-- Node23 -->
<g id="node51" class="node"><title>Node23</title>
<a xlink:href="namespaceforcebalance_1_1finite__difference.html#a77a0bc1ae3cbbcc8d38a0ef9ca877d6d" target="_top" xlink:title="A driver to fdwrap for Hessians (see documentation for fdwrap) Inputs: tgt = The Target containing th...">
<polygon fill="white" stroke="black" points="1312,-0 1312,-34 1428,-34 1428,-0 1312,-0"/>
<text text-anchor="start" x="1320" y="-21" font-family="Ubuntu-R" font-size="10.00">forcebalance.finite</text>
<text text-anchor="middle" x="1370" y="-8" font-family="Ubuntu-R" font-size="10.00">_difference.fdwrap_H</text>
</a>
</g>
<!-- Node21&#45;&gt;Node23 -->
<g id="edge56" class="edge"><title>Node21&#45;&gt;Node23</title>
<path fill="none" stroke="midnightblue" d="M1244.44,-53.6795C1262.43,-48.4242 1282.83,-42.4642 1301.88,-36.8994"/>
<polygon fill="midnightblue" stroke="midnightblue" points="1303.08,-40.195 1311.7,-34.0312 1301.12,-33.4759 1303.08,-40.195"/>
</g>
<!-- Node22&#45;&gt;Node21 -->
<g id="edge54" class="edge"><title>Node22&#45;&gt;Node21</title>
<path fill="none" stroke="midnightblue" d="M1311.7,-75.3796C1293.41,-75.8381 1273.14,-75.8709 1254.57,-75.4781"/>
<polygon fill="midnightblue" stroke="midnightblue" points="1254.53,-71.9761 1244.44,-75.2161 1254.35,-78.9738 1254.53,-71.9761"/>
</g>
</g>
</svg>
