<?xml version="1.0" encoding="UTF-8" standalone="no"?>
<!DOCTYPE svg PUBLIC "-//W3C//DTD SVG 1.1//EN"
 "http://www.w3.org/Graphics/SVG/1.1/DTD/svg11.dtd">
<!-- Generated by graphviz version 2.28.0 (20111219.2309)
 -->
<!-- Title: G Pages: 1 -->
<svg width="2316pt" height="711pt"
 viewBox="0.00 0.00 2316.00 711.28" xmlns="http://www.w3.org/2000/svg" xmlns:xlink="http://www.w3.org/1999/xlink">
<g id="graph1" class="graph" transform="scale(1 1) rotate(0) translate(4 707.277)">
<title>G</title>
<polygon fill="white" stroke="white" points="-4,5 -4,-707.277 2313,-707.277 2313,5 -4,5"/>
<!-- Node1 -->
<g id="node1" class="node"><title>Node1</title>
<polygon fill="#bfbfbf" stroke="black" points="0.5,-420.777 0.5,-439.777 173.5,-439.777 173.5,-420.777 0.5,-420.777"/>
<text text-anchor="middle" x="87" y="-427.777" font-family="Ubuntu-R" font-size="10.00">forcebalance.target.Target.get_X</text>
</g>
<!-- Node2 -->
<g id="node3" class="node"><title>Node2</title>
<a xlink:href="classforcebalance_1_1target_1_1Target.html#afa8cc38c8bba8861c072e789717aa049" target="_top" xlink:title="Computes the objective function contribution and its gradient.">
<polygon fill="white" stroke="black" points="210,-555.777 210,-574.777 384,-574.777 384,-555.777 210,-555.777"/>
<text text-anchor="middle" x="297" y="-562.777" font-family="Ubuntu-R" font-size="10.00">forcebalance.target.Target.get_G</text>
</a>
</g>
<!-- Node1&#45;&gt;Node2 -->
<g id="edge2" class="edge"><title>Node1&#45;&gt;Node2</title>
<path fill="none" stroke="midnightblue" d="M102.959,-439.986C138.788,-463.241 229.732,-522.267 272.759,-550.193"/>
<polygon fill="midnightblue" stroke="midnightblue" points="270.883,-553.148 281.177,-555.657 274.694,-547.276 270.883,-553.148"/>
</g>
<!-- Node19 -->
<g id="node44" class="node"><title>Node19</title>
<a xlink:href="classforcebalance_1_1target_1_1Target.html#a51d58b55242bf4d4909c1837174f5f3c" target="_top" xlink:title="Stages the directory for the target, and then calls &#39;get&#39;.">
<polygon fill="white" stroke="black" points="934.5,-280.777 934.5,-299.777 1101.5,-299.777 1101.5,-280.777 934.5,-280.777"/>
<text text-anchor="middle" x="1018" y="-287.777" font-family="Ubuntu-R" font-size="10.00">forcebalance.target.Target.sget</text>
</a>
</g>
<!-- Node1&#45;&gt;Node19 -->
<g id="edge80" class="edge"><title>Node1&#45;&gt;Node19</title>
<path fill="none" stroke="midnightblue" d="M121.257,-420.763C205.522,-397.117 434.611,-335.687 630,-309.277 729.844,-295.782 845.326,-291.574 923.973,-290.406"/>
<polygon fill="midnightblue" stroke="midnightblue" points="924.387,-293.901 934.338,-290.266 924.292,-286.901 924.387,-293.901"/>
</g>
<!-- Node3 -->
<g id="node5" class="node"><title>Node3</title>
<a xlink:href="namespaceforcebalance_1_1finite__difference.html#aa69a8819e4680091f400303c1d6ddeb7" target="_top" xlink:title="A three&#45;point finite difference stencil.">
<polygon fill="white" stroke="black" points="1646.5,-617.777 1646.5,-636.777 1839.5,-636.777 1839.5,-617.777 1646.5,-617.777"/>
<text text-anchor="middle" x="1743" y="-624.777" font-family="Ubuntu-R" font-size="10.00">forcebalance.finite_difference.f12d3p</text>
</a>
</g>
<!-- Node2&#45;&gt;Node3 -->
<g id="edge4" class="edge"><title>Node2&#45;&gt;Node3</title>
<path fill="none" stroke="midnightblue" d="M323.513,-574.866C392.479,-599.895 588.826,-665.277 758,-665.277 758,-665.277 758,-665.277 1265,-665.277 1418.57,-665.277 1457.19,-661.454 1610,-646.277 1630.7,-644.222 1653.12,-641.27 1673.51,-638.303"/>
<polygon fill="midnightblue" stroke="midnightblue" points="1674.27,-641.729 1683.65,-636.803 1673.25,-634.804 1674.27,-641.729"/>
</g>
<!-- Node6 -->
<g id="node11" class="node"><title>Node6</title>
<a xlink:href="namespaceforcebalance_1_1finite__difference.html#a00322fb65860c390616f74d05037c797" target="_top" xlink:title="A driver to fdwrap for gradients (see documentation for fdwrap) Inputs: tgt = The Target containing t...">
<polygon fill="white" stroke="black" points="2104,-579.777 2104,-598.777 2308,-598.777 2308,-579.777 2104,-579.777"/>
<text text-anchor="middle" x="2206" y="-586.777" font-family="Ubuntu-R" font-size="10.00">forcebalance.finite_difference.fdwrap_G</text>
</a>
</g>
<!-- Node2&#45;&gt;Node6 -->
<g id="edge16" class="edge"><title>Node2&#45;&gt;Node6</title>
<path fill="none" stroke="midnightblue" d="M309.629,-574.815C330.408,-591.33 375.879,-625.125 420,-642.277 562.276,-697.589 605.351,-703.277 758,-703.277 758,-703.277 758,-703.277 1744,-703.277 1890.21,-703.277 1927.65,-687.275 2068,-646.277 2106.54,-635.019 2148.93,-616.341 2176.2,-603.452"/>
<polygon fill="midnightblue" stroke="midnightblue" points="2178.02,-606.462 2185.53,-598.989 2175,-600.148 2178.02,-606.462"/>
</g>
<!-- Node8 -->
<g id="node17" class="node"><title>Node8</title>
<a xlink:href="namespaceforcebalance_1_1finite__difference.html#ac5bb1552a9b8dd22c9c80e6444de2218" target="_top" xlink:title="A two&#45;point finite difference stencil.">
<polygon fill="white" stroke="black" points="665.5,-617.777 665.5,-636.777 852.5,-636.777 852.5,-617.777 665.5,-617.777"/>
<text text-anchor="middle" x="759" y="-624.777" font-family="Ubuntu-R" font-size="10.00">forcebalance.finite_difference.f1d2p</text>
</a>
</g>
<!-- Node2&#45;&gt;Node8 -->
<g id="edge18" class="edge"><title>Node2&#45;&gt;Node8</title>
<path fill="none" stroke="midnightblue" d="M368.616,-574.795C451.831,-586.011 589.809,-604.608 677.21,-616.388"/>
<polygon fill="midnightblue" stroke="midnightblue" points="676.97,-619.888 687.348,-617.755 677.905,-612.95 676.97,-619.888"/>
</g>
<!-- Node12 -->
<g id="node26" class="node"><title>Node12</title>
<a xlink:href="classforcebalance_1_1target_1_1Target.html#a1d2ee27fe86a09769c1816af23b09adb" target="_top" xlink:title="Computes the objective function contribution and its gradient / Hessian.">
<polygon fill="white" stroke="black" points="420,-522.777 420,-541.777 594,-541.777 594,-522.777 420,-522.777"/>
<text text-anchor="middle" x="507" y="-529.777" font-family="Ubuntu-R" font-size="10.00">forcebalance.target.Target.get_H</text>
</a>
</g>
<!-- Node2&#45;&gt;Node12 -->
<g id="edge28" class="edge"><title>Node2&#45;&gt;Node12</title>
<path fill="none" stroke="midnightblue" d="M357.883,-555.777C382.252,-551.911 410.587,-547.415 435.91,-543.397"/>
<polygon fill="midnightblue" stroke="midnightblue" points="436.491,-546.849 445.819,-541.825 435.394,-539.936 436.491,-546.849"/>
</g>
<!-- Node2&#45;&gt;Node19 -->
<g id="edge78" class="edge"><title>Node2&#45;&gt;Node19</title>
<path fill="none" stroke="midnightblue" d="M311.856,-555.657C356.119,-525.353 498.887,-430.896 630,-380.277 734.447,-339.954 862.017,-314.584 941.404,-301.415"/>
<polygon fill="midnightblue" stroke="midnightblue" points="942.016,-304.862 951.32,-299.792 940.886,-297.953 942.016,-304.862"/>
</g>
<!-- Node4 -->
<g id="node7" class="node"><title>Node4</title>
<a xlink:href="namespaceforcebalance_1_1finite__difference.html#ad84d3e385db1190e7d8ef58bc08a6c52" target="_top" xlink:title="Invoking this function from anywhere will tell us whether we&#39;re being called by a finite&#45;difference f...">
<polygon fill="white" stroke="black" points="1881,-617.777 1881,-636.777 2063,-636.777 2063,-617.777 1881,-617.777"/>
<text text-anchor="middle" x="1972" y="-624.777" font-family="Ubuntu-R" font-size="10.00">forcebalance.finite_difference.in_fd</text>
</a>
</g>
<!-- Node3&#45;&gt;Node4 -->
<g id="edge6" class="edge"><title>Node3&#45;&gt;Node4</title>
<path fill="none" stroke="midnightblue" d="M1839.61,-627.277C1849.88,-627.277 1860.35,-627.277 1870.67,-627.277"/>
<polygon fill="midnightblue" stroke="midnightblue" points="1870.93,-630.778 1880.93,-627.277 1870.93,-623.778 1870.93,-630.778"/>
</g>
<!-- Node5 -->
<g id="node9" class="node"><title>Node5</title>
<a xlink:href="namespaceforcebalance_1_1finite__difference.html#ae484c591ae8c4e5bae73a0ef2660c339" target="_top" xlink:title="A function wrapper for finite difference designed for differentiating &#39;get&#39;&#45;type functions.">
<polygon fill="white" stroke="black" points="1876.5,-579.777 1876.5,-598.777 2067.5,-598.777 2067.5,-579.777 1876.5,-579.777"/>
<text text-anchor="middle" x="1972" y="-586.777" font-family="Ubuntu-R" font-size="10.00">forcebalance.finite_difference.fdwrap</text>
</a>
</g>
<!-- Node3&#45;&gt;Node5 -->
<g id="edge8" class="edge"><title>Node3&#45;&gt;Node5</title>
<path fill="none" stroke="midnightblue" d="M1800.99,-617.737C1832.29,-612.497 1871.29,-605.969 1904.04,-600.486"/>
<polygon fill="midnightblue" stroke="midnightblue" points="1904.7,-603.924 1913.99,-598.821 1903.55,-597.02 1904.7,-603.924"/>
</g>
<!-- Node5&#45;&gt;Node6 -->
<g id="edge10" class="edge"><title>Node5&#45;&gt;Node6</title>
<path fill="none" stroke="midnightblue" d="M2067.7,-582.63C2076.25,-582.547 2084.97,-582.514 2093.65,-582.532"/>
<polygon fill="midnightblue" stroke="midnightblue" points="2093.8,-586.033 2103.81,-582.577 2093.83,-579.033 2093.8,-586.033"/>
</g>
<!-- Node7 -->
<g id="node14" class="node"><title>Node7</title>
<a xlink:href="namespaceforcebalance_1_1finite__difference.html#a77a0bc1ae3cbbcc8d38a0ef9ca877d6d" target="_top" xlink:title="A driver to fdwrap for Hessians (see documentation for fdwrap) Inputs: tgt = The Target containing th...">
<polygon fill="white" stroke="black" points="2104,-522.777 2104,-541.777 2308,-541.777 2308,-522.777 2104,-522.777"/>
<text text-anchor="middle" x="2206" y="-529.777" font-family="Ubuntu-R" font-size="10.00">forcebalance.finite_difference.fdwrap_H</text>
</a>
</g>
<!-- Node5&#45;&gt;Node7 -->
<g id="edge14" class="edge"><title>Node5&#45;&gt;Node7</title>
<path fill="none" stroke="midnightblue" d="M2011.83,-579.737C2051.48,-569.996 2113.14,-554.847 2156.09,-544.294"/>
<polygon fill="midnightblue" stroke="midnightblue" points="2157.17,-547.634 2166.04,-541.849 2155.5,-540.836 2157.17,-547.634"/>
</g>
<!-- Node6&#45;&gt;Node5 -->
<g id="edge12" class="edge"><title>Node6&#45;&gt;Node5</title>
<path fill="none" stroke="midnightblue" d="M2103.81,-595.978C2095.19,-596.036 2086.45,-596.043 2077.8,-595.999"/>
<polygon fill="midnightblue" stroke="midnightblue" points="2077.72,-592.499 2067.7,-595.925 2077.67,-599.499 2077.72,-592.499"/>
</g>
<!-- Node9 -->
<g id="node19" class="node"><title>Node9</title>
<a xlink:href="namespaceforcebalance_1_1finite__difference.html#a123c5d5dea0f3f50ab57796bb3bc39be" target="_top" xlink:title="A highly accurate five&#45;point finite difference stencil for computing derivatives of a function...">
<polygon fill="white" stroke="black" points="924.5,-617.777 924.5,-636.777 1111.5,-636.777 1111.5,-617.777 924.5,-617.777"/>
<text text-anchor="middle" x="1018" y="-624.777" font-family="Ubuntu-R" font-size="10.00">forcebalance.finite_difference.f1d5p</text>
</a>
</g>
<!-- Node8&#45;&gt;Node9 -->
<g id="edge20" class="edge"><title>Node8&#45;&gt;Node9</title>
<path fill="none" stroke="midnightblue" d="M852.783,-627.277C872.709,-627.277 893.879,-627.277 914.16,-627.277"/>
<polygon fill="midnightblue" stroke="midnightblue" points="914.353,-630.778 924.353,-627.277 914.353,-623.778 914.353,-630.778"/>
</g>
<!-- Node10 -->
<g id="node21" class="node"><title>Node10</title>
<a xlink:href="namespaceforcebalance_1_1finite__difference.html#a9be9f0d21300958092e380514e2e980d" target="_top" xlink:title="A highly accurate seven&#45;point finite difference stencil for computing derivatives of a function...">
<polygon fill="white" stroke="black" points="1170.5,-617.777 1170.5,-636.777 1357.5,-636.777 1357.5,-617.777 1170.5,-617.777"/>
<text text-anchor="middle" x="1264" y="-624.777" font-family="Ubuntu-R" font-size="10.00">forcebalance.finite_difference.f1d7p</text>
</a>
</g>
<!-- Node9&#45;&gt;Node10 -->
<g id="edge22" class="edge"><title>Node9&#45;&gt;Node10</title>
<path fill="none" stroke="midnightblue" d="M1111.59,-627.277C1127.56,-627.277 1144.24,-627.277 1160.45,-627.277"/>
<polygon fill="midnightblue" stroke="midnightblue" points="1160.47,-630.778 1170.47,-627.277 1160.47,-623.778 1160.47,-630.778"/>
</g>
<!-- Node11 -->
<g id="node23" class="node"><title>Node11</title>
<a xlink:href="namespaceforcebalance_1_1finite__difference.html#acc281f85b668062745f711d9b4a610fa" target="_top" xlink:title="forcebalance.finite_difference.f12d7p">
<polygon fill="white" stroke="black" points="1416.5,-617.777 1416.5,-636.777 1609.5,-636.777 1609.5,-617.777 1416.5,-617.777"/>
<text text-anchor="middle" x="1513" y="-624.777" font-family="Ubuntu-R" font-size="10.00">forcebalance.finite_difference.f12d7p</text>
</a>
</g>
<!-- Node10&#45;&gt;Node11 -->
<g id="edge24" class="edge"><title>Node10&#45;&gt;Node11</title>
<path fill="none" stroke="midnightblue" d="M1357.68,-627.277C1373.55,-627.277 1390.14,-627.277 1406.32,-627.277"/>
<polygon fill="midnightblue" stroke="midnightblue" points="1406.33,-630.778 1416.33,-627.277 1406.33,-623.778 1406.33,-630.778"/>
</g>
<!-- Node11&#45;&gt;Node3 -->
<g id="edge26" class="edge"><title>Node11&#45;&gt;Node3</title>
<path fill="none" stroke="midnightblue" d="M1609.7,-627.277C1618.37,-627.277 1627.19,-627.277 1635.94,-627.277"/>
<polygon fill="midnightblue" stroke="midnightblue" points="1636.18,-630.778 1646.18,-627.277 1636.18,-623.778 1636.18,-630.778"/>
</g>
<!-- Node12&#45;&gt;Node3 -->
<g id="edge34" class="edge"><title>Node12&#45;&gt;Node3</title>
<path fill="none" stroke="midnightblue" d="M536.724,-541.817C561.22,-549.523 597.524,-559.935 630,-565.277 800.045,-593.252 844.67,-589.277 1017,-589.277 1017,-589.277 1017,-589.277 1265,-589.277 1418.57,-589.277 1457.19,-593.101 1610,-608.277 1630.7,-610.333 1653.12,-613.285 1673.51,-616.251"/>
<polygon fill="midnightblue" stroke="midnightblue" points="1673.25,-619.751 1683.65,-617.752 1674.27,-612.826 1673.25,-619.751"/>
</g>
<!-- Node12&#45;&gt;Node6 -->
<g id="edge36" class="edge"><title>Node12&#45;&gt;Node6</title>
<path fill="none" stroke="midnightblue" d="M594.423,-537.469C695.656,-543.095 868.438,-551.277 1017,-551.277 1017,-551.277 1017,-551.277 1744,-551.277 1888.25,-551.277 1924.45,-556.136 2068,-570.277 2089.56,-572.401 2112.93,-575.387 2134.17,-578.365"/>
<polygon fill="midnightblue" stroke="midnightblue" points="2133.69,-581.832 2144.09,-579.775 2134.68,-574.901 2133.69,-581.832"/>
</g>
<!-- Node12&#45;&gt;Node7 -->
<g id="edge32" class="edge"><title>Node12&#45;&gt;Node7</title>
<path fill="none" stroke="midnightblue" d="M594.423,-527.086C695.656,-521.46 868.438,-513.277 1017,-513.277 1017,-513.277 1017,-513.277 1744,-513.277 1863.6,-513.277 2000.51,-519.741 2093.85,-525.128"/>
<polygon fill="midnightblue" stroke="midnightblue" points="2093.69,-528.624 2103.88,-525.712 2094.1,-521.636 2093.69,-528.624"/>
</g>
<!-- Node12&#45;&gt;Node8 -->
<g id="edge30" class="edge"><title>Node12&#45;&gt;Node8</title>
<path fill="none" stroke="midnightblue" d="M522.928,-541.833C550.35,-559.238 607.951,-595.074 630,-603.277 643.688,-608.37 658.617,-612.421 673.29,-615.631"/>
<polygon fill="midnightblue" stroke="midnightblue" points="672.887,-619.122 683.389,-617.722 674.306,-612.267 672.887,-619.122"/>
</g>
<!-- Node13 -->
<g id="node32" class="node"><title>Node13</title>
<a xlink:href="classforcebalance_1_1target_1_1Target.html#a5aa4958cea0a48138511567a076c5a82" target="_top" xlink:title="forcebalance.target.Target.link_from_tempdir">
<polygon fill="white" stroke="black" points="1148,-465.777 1148,-484.777 1380,-484.777 1380,-465.777 1148,-465.777"/>
<text text-anchor="middle" x="1264" y="-472.777" font-family="Ubuntu-R" font-size="10.00">forcebalance.target.Target.link_from_tempdir</text>
</a>
</g>
<!-- Node12&#45;&gt;Node13 -->
<g id="edge38" class="edge"><title>Node12&#45;&gt;Node13</title>
<path fill="none" stroke="midnightblue" d="M536.205,-522.693C560.685,-514.848 597.245,-504.262 630,-499.277 804.663,-472.695 1009.39,-470.024 1137.66,-471.722"/>
<polygon fill="midnightblue" stroke="midnightblue" points="1137.86,-475.226 1147.91,-471.87 1137.96,-468.226 1137.86,-475.226"/>
</g>
<!-- Node14 -->
<g id="node34" class="node"><title>Node14</title>
<a xlink:href="namespaceforcebalance_1_1nifty.html#a0cf4e58f90acf20e3d6224be2354082c" target="_top" xlink:title="forcebalance.nifty.link_dir_contents">
<polygon fill="white" stroke="black" points="667.5,-427.777 667.5,-446.777 850.5,-446.777 850.5,-427.777 667.5,-427.777"/>
<text text-anchor="middle" x="759" y="-434.777" font-family="Ubuntu-R" font-size="10.00">forcebalance.nifty.link_dir_contents</text>
</a>
</g>
<!-- Node12&#45;&gt;Node14 -->
<g id="edge40" class="edge"><title>Node12&#45;&gt;Node14</title>
<path fill="none" stroke="midnightblue" d="M521.142,-522.571C542.719,-507.125 587.509,-477.087 630,-461.277 643.688,-456.185 658.617,-452.134 673.29,-448.924"/>
<polygon fill="midnightblue" stroke="midnightblue" points="674.306,-452.288 683.389,-446.833 672.887,-445.433 674.306,-452.288"/>
</g>
<!-- Node15 -->
<g id="node36" class="node"><title>Node15</title>
<a xlink:href="classforcebalance_1_1target_1_1Target.html#afe815eafab06ac92f10bbf4b88ad95c8" target="_top" xlink:title="Back up the temporary directory if desired, delete it and then create a new one.">
<polygon fill="white" stroke="black" points="630.5,-389.777 630.5,-408.777 887.5,-408.777 887.5,-389.777 630.5,-389.777"/>
<text text-anchor="middle" x="759" y="-396.777" font-family="Ubuntu-R" font-size="10.00">forcebalance.target.Target.refresh_temp_directory</text>
</a>
</g>
<!-- Node12&#45;&gt;Node15 -->
<g id="edge42" class="edge"><title>Node12&#45;&gt;Node15</title>
<path fill="none" stroke="midnightblue" d="M514.955,-522.596C531.79,-499.989 577.259,-443.718 630,-418.277 634.995,-415.868 640.218,-413.746 645.577,-411.88"/>
<polygon fill="midnightblue" stroke="midnightblue" points="646.872,-415.141 655.351,-408.788 644.761,-408.467 646.872,-415.141"/>
</g>
<!-- Node16 -->
<g id="node38" class="node"><title>Node16</title>
<a xlink:href="classforcebalance_1_1target_1_1Target.html#a1389888302c49d529716cb45b13a6f5a" target="_top" xlink:title="Every target must be able to return a contribution to the objective function &#45; however, this must be implemented in the specific subclass.">
<polygon fill="white" stroke="black" points="1183.5,-427.777 1183.5,-446.777 1344.5,-446.777 1344.5,-427.777 1183.5,-427.777"/>
<text text-anchor="middle" x="1264" y="-434.777" font-family="Ubuntu-R" font-size="10.00">forcebalance.target.Target.get</text>
</a>
</g>
<!-- Node15&#45;&gt;Node16 -->
<g id="edge44" class="edge"><title>Node15&#45;&gt;Node16</title>
<path fill="none" stroke="midnightblue" d="M885.955,-408.793C975.395,-415.55 1093.33,-424.459 1173.31,-430.502"/>
<polygon fill="midnightblue" stroke="midnightblue" points="1173.12,-433.998 1183.36,-431.261 1173.65,-427.017 1173.12,-433.998"/>
</g>
<!-- Node15&#45;&gt;Node19 -->
<g id="edge50" class="edge"><title>Node15&#45;&gt;Node19</title>
<path fill="none" stroke="midnightblue" d="M792.849,-389.721C819.004,-381.76 856.348,-369.604 888,-356.277 924.801,-340.783 965.557,-319.131 991.217,-304.913"/>
<polygon fill="midnightblue" stroke="midnightblue" points="993.249,-307.787 1000.27,-299.856 989.836,-301.676 993.249,-307.787"/>
</g>
<!-- Node17 -->
<g id="node40" class="node"><title>Node17</title>
<a xlink:href="namespaceforcebalance_1_1optimizer.html#ae1f6c649703a22b2f767a5f6bf53297b" target="_top" xlink:title="forcebalance.optimizer.Counter">
<polygon fill="white" stroke="black" points="1429.5,-218.777 1429.5,-237.777 1596.5,-237.777 1596.5,-218.777 1429.5,-218.777"/>
<text text-anchor="middle" x="1513" y="-225.777" font-family="Ubuntu-R" font-size="10.00">forcebalance.optimizer.Counter</text>
</a>
</g>
<!-- Node16&#45;&gt;Node17 -->
<g id="edge46" class="edge"><title>Node16&#45;&gt;Node17</title>
<path fill="none" stroke="midnightblue" d="M1344.76,-432.63C1357.18,-429.552 1369.39,-424.981 1380,-418.277 1446.87,-376.013 1488.97,-286.328 1504.84,-247.199"/>
<polygon fill="midnightblue" stroke="midnightblue" points="1508.14,-248.374 1508.54,-237.786 1501.63,-245.811 1508.14,-248.374"/>
</g>
<!-- Node18 -->
<g id="node42" class="node"><title>Node18</title>
<a xlink:href="namespaceforcebalance_1_1optimizer.html#ab43948ecf30c90d319e0c0b107fe484a" target="_top" xlink:title="forcebalance.optimizer.GoodStep">
<polygon fill="white" stroke="black" points="1655,-218.777 1655,-237.777 1831,-237.777 1831,-218.777 1655,-218.777"/>
<text text-anchor="middle" x="1743" y="-225.777" font-family="Ubuntu-R" font-size="10.00">forcebalance.optimizer.GoodStep</text>
</a>
</g>
<!-- Node17&#45;&gt;Node18 -->
<g id="edge48" class="edge"><title>Node17&#45;&gt;Node18</title>
<path fill="none" stroke="midnightblue" d="M1596.64,-228.277C1612.11,-228.277 1628.42,-228.277 1644.29,-228.277"/>
<polygon fill="midnightblue" stroke="midnightblue" points="1644.65,-231.778 1654.65,-228.277 1644.65,-224.778 1644.65,-231.778"/>
</g>
<!-- Node19&#45;&gt;Node13 -->
<g id="edge54" class="edge"><title>Node19&#45;&gt;Node13</title>
<path fill="none" stroke="midnightblue" d="M1023.23,-299.795C1036.68,-328.831 1081.51,-416.698 1148,-456.277 1151.62,-458.432 1155.41,-460.361 1159.32,-462.089"/>
<polygon fill="midnightblue" stroke="midnightblue" points="1158.05,-465.35 1168.64,-465.762 1160.62,-458.838 1158.05,-465.35"/>
</g>
<!-- Node19&#45;&gt;Node16 -->
<g id="edge74" class="edge"><title>Node19&#45;&gt;Node16</title>
<path fill="none" stroke="midnightblue" d="M1025.46,-299.988C1042.33,-324.466 1090.41,-388.835 1148,-418.277 1156.01,-422.37 1164.7,-425.615 1173.59,-428.182"/>
<polygon fill="midnightblue" stroke="midnightblue" points="1172.75,-431.578 1183.3,-430.71 1174.51,-424.804 1172.75,-431.578"/>
</g>
<!-- Node19&#45;&gt;Node17 -->
<g id="edge52" class="edge"><title>Node19&#45;&gt;Node17</title>
<path fill="none" stroke="midnightblue" d="M1020.38,-280.612C1026.52,-241.576 1055.33,-94.9436 1148,-38.2774 1235.97,15.515 1288.63,9.50221 1380,-38.2774 1450.57,-75.1812 1491.01,-168.901 1505.66,-209.285"/>
<polygon fill="midnightblue" stroke="midnightblue" points="1502.37,-210.471 1508.97,-218.755 1508.97,-208.161 1502.37,-210.471"/>
</g>
<!-- Node20 -->
<g id="node48" class="node"><title>Node20</title>
<a xlink:href="classforcebalance_1_1abinitio_1_1AbInitio.html#a2bb3ed7209707f688ec8b731392466b5" target="_top" xlink:title="Every target must be able to return a contribution to the objective function &#45; however, this must be implemented in the specific subclass.">
<polygon fill="white" stroke="black" points="1177.5,-47.7774 1177.5,-66.7774 1350.5,-66.7774 1350.5,-47.7774 1177.5,-47.7774"/>
<text text-anchor="middle" x="1264" y="-54.7774" font-family="Ubuntu-R" font-size="10.00">forcebalance.abinitio.AbInitio.get</text>
</a>
</g>
<!-- Node19&#45;&gt;Node20 -->
<g id="edge56" class="edge"><title>Node19&#45;&gt;Node20</title>
<path fill="none" stroke="midnightblue" d="M1021.65,-280.57C1031.57,-246.142 1070.1,-129.122 1148,-76.2774 1154.1,-72.1383 1160.8,-68.7925 1167.79,-66.098"/>
<polygon fill="midnightblue" stroke="midnightblue" points="1169.14,-69.3367 1177.49,-62.8142 1166.9,-62.7065 1169.14,-69.3367"/>
</g>
<!-- Node21 -->
<g id="node50" class="node"><title>Node21</title>
<a xlink:href="classforcebalance_1_1binding_1_1BindingEnergy.html#a263fadef13141ef341a01d1f538f85af" target="_top" xlink:title="Every target must be able to return a contribution to the objective function &#45; however, this must be implemented in the specific subclass.">
<polygon fill="white" stroke="black" points="1162,-389.777 1162,-408.777 1366,-408.777 1366,-389.777 1162,-389.777"/>
<text text-anchor="middle" x="1264" y="-396.777" font-family="Ubuntu-R" font-size="10.00">forcebalance.binding.BindingEnergy.get</text>
</a>
</g>
<!-- Node19&#45;&gt;Node21 -->
<g id="edge58" class="edge"><title>Node19&#45;&gt;Node21</title>
<path fill="none" stroke="midnightblue" d="M1029.4,-300.044C1050.15,-318.921 1098.93,-360.31 1148,-380.277 1154.57,-382.952 1161.5,-385.25 1168.57,-387.225"/>
<polygon fill="midnightblue" stroke="midnightblue" points="1167.71,-390.617 1178.26,-389.722 1169.45,-383.839 1167.71,-390.617"/>
</g>
<!-- Node22 -->
<g id="node52" class="node"><title>Node22</title>
<a xlink:href="classforcebalance_1_1counterpoise_1_1Counterpoise.html#a5fd50a4bb7d5e939b7e99ac648b35d59" target="_top" xlink:title="Gets the objective function for fitting the counterpoise correction.">
<polygon fill="white" stroke="black" points="1149.5,-351.777 1149.5,-370.777 1378.5,-370.777 1378.5,-351.777 1149.5,-351.777"/>
<text text-anchor="middle" x="1264" y="-358.777" font-family="Ubuntu-R" font-size="10.00">forcebalance.counterpoise.Counterpoise.get</text>
</a>
</g>
<!-- Node19&#45;&gt;Node22 -->
<g id="edge60" class="edge"><title>Node19&#45;&gt;Node22</title>
<path fill="none" stroke="midnightblue" d="M1039.07,-299.981C1064.04,-311.671 1108.24,-331.126 1148,-342.277 1158.37,-345.185 1169.39,-347.705 1180.36,-349.873"/>
<polygon fill="midnightblue" stroke="midnightblue" points="1179.91,-353.35 1190.39,-351.766 1181.21,-346.472 1179.91,-353.35"/>
</g>
<!-- Node23 -->
<g id="node54" class="node"><title>Node23</title>
<a xlink:href="classforcebalance_1_1gmxqpio_1_1Monomer__QTPIE.html#a46144411b5166a1839bf954b584ca3a7" target="_top" xlink:title="Every target must be able to return a contribution to the objective function &#45; however, this must be implemented in the specific subclass.">
<polygon fill="white" stroke="black" points="1153,-313.777 1153,-332.777 1375,-332.777 1375,-313.777 1153,-313.777"/>
<text text-anchor="middle" x="1264" y="-320.777" font-family="Ubuntu-R" font-size="10.00">forcebalance.gmxqpio.Monomer_QTPIE.get</text>
</a>
</g>
<!-- Node19&#45;&gt;Node23 -->
<g id="edge62" class="edge"><title>Node19&#45;&gt;Node23</title>
<path fill="none" stroke="midnightblue" d="M1089.25,-299.778C1118.34,-303.713 1152.25,-308.299 1182.35,-312.37"/>
<polygon fill="midnightblue" stroke="midnightblue" points="1182.02,-315.858 1192.4,-313.73 1182.96,-308.921 1182.02,-315.858"/>
</g>
<!-- Node24 -->
<g id="node56" class="node"><title>Node24</title>
<a xlink:href="classforcebalance_1_1interaction_1_1Interaction.html#a9fc3a40eb2852241ea440af719f6cf29" target="_top" xlink:title="Evaluate objective function.">
<polygon fill="white" stroke="black" points="1161.5,-275.777 1161.5,-294.777 1366.5,-294.777 1366.5,-275.777 1161.5,-275.777"/>
<text text-anchor="middle" x="1264" y="-282.777" font-family="Ubuntu-R" font-size="10.00">forcebalance.interaction.Interaction.get</text>
</a>
</g>
<!-- Node19&#45;&gt;Node24 -->
<g id="edge64" class="edge"><title>Node19&#45;&gt;Node24</title>
<path fill="none" stroke="midnightblue" d="M1101.61,-288.585C1117.52,-288.259 1134.44,-287.912 1151.1,-287.57"/>
<polygon fill="midnightblue" stroke="midnightblue" points="1151.51,-291.063 1161.43,-287.359 1151.36,-284.064 1151.51,-291.063"/>
</g>
<!-- Node25 -->
<g id="node58" class="node"><title>Node25</title>
<a xlink:href="classforcebalance_1_1leastsq_1_1LeastSquares.html#a2010f34730d88209b738d557cca09a1c" target="_top" xlink:title="LPW 05&#45;30&#45;2012.">
<polygon fill="white" stroke="black" points="1162.5,-237.777 1162.5,-256.777 1365.5,-256.777 1365.5,-237.777 1162.5,-237.777"/>
<text text-anchor="middle" x="1264" y="-244.777" font-family="Ubuntu-R" font-size="10.00">forcebalance.leastsq.LeastSquares.get</text>
</a>
</g>
<!-- Node19&#45;&gt;Node25 -->
<g id="edge66" class="edge"><title>Node19&#45;&gt;Node25</title>
<path fill="none" stroke="midnightblue" d="M1068.88,-280.754C1092.8,-276.25 1121.86,-270.868 1148,-266.277 1162.74,-263.69 1178.55,-261.012 1193.6,-258.511"/>
<polygon fill="midnightblue" stroke="midnightblue" points="1194.57,-261.898 1203.87,-256.812 1193.43,-254.992 1194.57,-261.898"/>
</g>
<!-- Node26 -->
<g id="node60" class="node"><title>Node26</title>
<a xlink:href="classforcebalance_1_1liquid_1_1Liquid.html#a802c4139e5c002fabdeab5de88093880" target="_top" xlink:title="Fitting of liquid bulk properties.">
<polygon fill="white" stroke="black" points="1186.5,-199.777 1186.5,-218.777 1341.5,-218.777 1341.5,-199.777 1186.5,-199.777"/>
<text text-anchor="middle" x="1264" y="-206.777" font-family="Ubuntu-R" font-size="10.00">forcebalance.liquid.Liquid.get</text>
</a>
</g>
<!-- Node19&#45;&gt;Node26 -->
<g id="edge68" class="edge"><title>Node19&#45;&gt;Node26</title>
<path fill="none" stroke="midnightblue" d="M1035.08,-280.69C1058.9,-266.926 1105.35,-241.746 1148,-228.277 1157.09,-225.406 1166.74,-222.947 1176.42,-220.847"/>
<polygon fill="midnightblue" stroke="midnightblue" points="1177.41,-224.218 1186.5,-218.786 1176,-217.36 1177.41,-224.218"/>
</g>
<!-- Node27 -->
<g id="node62" class="node"><title>Node27</title>
<a xlink:href="classforcebalance_1_1moments_1_1Moments.html#a488308fb94a59f876efecb115b2e60b3" target="_top" xlink:title="Evaluate objective function.">
<polygon fill="white" stroke="black" points="1167,-161.777 1167,-180.777 1361,-180.777 1361,-161.777 1167,-161.777"/>
<text text-anchor="middle" x="1264" y="-168.777" font-family="Ubuntu-R" font-size="10.00">forcebalance.moments.Moments.get</text>
</a>
</g>
<!-- Node19&#45;&gt;Node27 -->
<g id="edge70" class="edge"><title>Node19&#45;&gt;Node27</title>
<path fill="none" stroke="midnightblue" d="M1027.95,-280.661C1047.53,-260.269 1096.58,-212.724 1148,-190.277 1153.84,-187.727 1159.99,-185.517 1166.27,-183.602"/>
<polygon fill="midnightblue" stroke="midnightblue" points="1167.55,-186.88 1176.24,-180.828 1165.67,-180.136 1167.55,-186.88"/>
</g>
<!-- Node28 -->
<g id="node64" class="node"><title>Node28</title>
<a xlink:href="classforcebalance_1_1psi4io_1_1RDVR3__Psi4.html#a70936cb704ab5df307013cc6aa5b85c8" target="_top" xlink:title="LPW 04&#45;17&#45;2013.">
<polygon fill="white" stroke="black" points="1170,-123.777 1170,-142.777 1358,-142.777 1358,-123.777 1170,-123.777"/>
<text text-anchor="middle" x="1264" y="-130.777" font-family="Ubuntu-R" font-size="10.00">forcebalance.psi4io.RDVR3_Psi4.get</text>
</a>
</g>
<!-- Node19&#45;&gt;Node28 -->
<g id="edge72" class="edge"><title>Node19&#45;&gt;Node28</title>
<path fill="none" stroke="midnightblue" d="M1024.79,-280.566C1040.74,-254.768 1088.15,-184.312 1148,-152.277 1152.29,-149.981 1156.79,-147.949 1161.42,-146.151"/>
<polygon fill="midnightblue" stroke="midnightblue" points="1162.8,-149.378 1171.08,-142.78 1160.49,-142.768 1162.8,-149.378"/>
</g>
<!-- Node29 -->
<g id="node67" class="node"><title>Node29</title>
<a xlink:href="classforcebalance_1_1target_1_1Target.html#a78cd29b94cbcc201eed99c78aaef46a4" target="_top" xlink:title="forcebalance.target.Target.submit_jobs">
<polygon fill="white" stroke="black" points="1162.5,-85.7774 1162.5,-104.777 1365.5,-104.777 1365.5,-85.7774 1162.5,-85.7774"/>
<text text-anchor="middle" x="1264" y="-92.7774" font-family="Ubuntu-R" font-size="10.00">forcebalance.target.Target.submit_jobs</text>
</a>
</g>
<!-- Node19&#45;&gt;Node29 -->
<g id="edge76" class="edge"><title>Node19&#45;&gt;Node29</title>
<path fill="none" stroke="midnightblue" d="M1022.88,-280.625C1035.6,-250.31 1079.25,-156.525 1148,-114.277 1151.39,-112.192 1154.95,-110.314 1158.61,-108.626"/>
<polygon fill="midnightblue" stroke="midnightblue" points="1160.01,-111.836 1167.93,-104.806 1157.35,-105.359 1160.01,-111.836"/>
</g>
</g>
</svg>
