<?xml version="1.0" encoding="UTF-8" standalone="no"?>
<!DOCTYPE svg PUBLIC "-//W3C//DTD SVG 1.1//EN"
 "http://www.w3.org/Graphics/SVG/1.1/DTD/svg11.dtd">
<!-- Generated by graphviz version 2.28.0 (20111219.2309)
 -->
<!-- Title: forcebalance.amberio.AbInitio_AMBER Pages: 1 -->
<svg width="166pt" height="276pt"
 viewBox="0.00 0.00 166.00 276.00" xmlns="http://www.w3.org/2000/svg" xmlns:xlink="http://www.w3.org/1999/xlink">
<g id="graph1" class="graph" transform="scale(1 1) rotate(0) translate(4 272)">
<title>forcebalance.amberio.AbInitio_AMBER</title>
<polygon fill="white" stroke="white" points="-4,5 -4,-272 163,-272 163,5 -4,5"/>
<!-- Node1 -->
<g id="node1" class="node"><title>Node1</title>
<polygon fill="#bfbfbf" stroke="black" points="-0.5,-1 -0.5,-31 158.5,-31 158.5,-1 -0.5,-1"/>
<text text-anchor="start" x="7.5" y="-19" font-family="Ubuntu-R" font-size="10.00">forcebalance.amberio.AbInitio</text>
<text text-anchor="middle" x="79" y="-8" font-family="Ubuntu-R" font-size="10.00">_AMBER</text>
</g>
<!-- Node2 -->
<g id="node2" class="node"><title>Node2</title>
<a xlink:href="classforcebalance_1_1abinitio_1_1AbInitio.html" target="_top" xlink:title="Subclass of Target for fitting force fields to ab initio data. ">
<polygon fill="white" stroke="black" points="13.5,-69 13.5,-99 144.5,-99 144.5,-69 13.5,-69"/>
<text text-anchor="start" x="21.5" y="-87" font-family="Ubuntu-R" font-size="10.00">forcebalance.abinitio.Ab</text>
<text text-anchor="middle" x="79" y="-76" font-family="Ubuntu-R" font-size="10.00">Initio</text>
</a>
</g>
<!-- Node2&#45;&gt;Node1 -->
<g id="edge2" class="edge"><title>Node2&#45;&gt;Node1</title>
<path fill="none" stroke="midnightblue" d="M79,-58.5322C79,-49.3606 79,-39.2449 79,-31.2931"/>
<polygon fill="midnightblue" stroke="midnightblue" points="75.5001,-58.6789 79,-68.679 82.5001,-58.679 75.5001,-58.6789"/>
</g>
<!-- Node3 -->
<g id="node4" class="node"><title>Node3</title>
<a xlink:href="classforcebalance_1_1target_1_1Target.html" target="_top" xlink:title="Base class for all fitting targets. ">
<polygon fill="white" stroke="black" points="7.5,-136.5 7.5,-155.5 150.5,-155.5 150.5,-136.5 7.5,-136.5"/>
<text text-anchor="middle" x="79" y="-143.5" font-family="Ubuntu-R" font-size="10.00">forcebalance.target.Target</text>
</a>
</g>
<!-- Node3&#45;&gt;Node2 -->
<g id="edge4" class="edge"><title>Node3&#45;&gt;Node2</title>
<path fill="none" stroke="midnightblue" d="M79,-126.371C79,-117.585 79,-107.272 79,-99.1408"/>
<polygon fill="midnightblue" stroke="midnightblue" points="75.5001,-126.403 79,-136.403 82.5001,-126.403 75.5001,-126.403"/>
</g>
<!-- Node4 -->
<g id="node6" class="node"><title>Node4</title>
<a xlink:href="classforcebalance_1_1BaseClass.html" target="_top" xlink:title="Provides some nifty functions that are common to all ForceBalance classes. ">
<polygon fill="white" stroke="black" points="13.5,-192.5 13.5,-211.5 144.5,-211.5 144.5,-192.5 13.5,-192.5"/>
<text text-anchor="middle" x="79" y="-199.5" font-family="Ubuntu-R" font-size="10.00">forcebalance.BaseClass</text>
</a>
</g>
<!-- Node4&#45;&gt;Node3 -->
<g id="edge6" class="edge"><title>Node4&#45;&gt;Node3</title>
<path fill="none" stroke="midnightblue" d="M79,-181.805C79,-172.91 79,-162.78 79,-155.751"/>
<polygon fill="midnightblue" stroke="midnightblue" points="75.5001,-182.083 79,-192.083 82.5001,-182.083 75.5001,-182.083"/>
</g>
<!-- Node5 -->
<g id="node8" class="node"><title>Node5</title>
<polygon fill="white" stroke="#bfbfbf" points="56,-248.5 56,-267.5 102,-267.5 102,-248.5 56,-248.5"/>
<text text-anchor="middle" x="79" y="-255.5" font-family="Ubuntu-R" font-size="10.00">object</text>
</g>
<!-- Node5&#45;&gt;Node4 -->
<g id="edge8" class="edge"><title>Node5&#45;&gt;Node4</title>
<path fill="none" stroke="midnightblue" d="M79,-237.805C79,-228.91 79,-218.78 79,-211.751"/>
<polygon fill="midnightblue" stroke="midnightblue" points="75.5001,-238.083 79,-248.083 82.5001,-238.083 75.5001,-238.083"/>
</g>
</g>
</svg>
