<?xml version="1.0" encoding="UTF-8" standalone="no"?>
<!DOCTYPE svg PUBLIC "-//W3C//DTD SVG 1.1//EN"
 "http://www.w3.org/Graphics/SVG/1.1/DTD/svg11.dtd">
<!-- Generated by graphviz version 2.32.0 (20130801.1845)
 -->
<!-- Title: forcebalance.abinitio.AbInitio.build_invdist Pages: 1 -->
<svg width="1330pt" height="207pt"
 viewBox="0.00 0.00 1330.00 206.55" xmlns="http://www.w3.org/2000/svg" xmlns:xlink="http://www.w3.org/1999/xlink">
<g id="graph0" class="graph" transform="scale(1 1) rotate(0) translate(4 202.547)">
<title>forcebalance.abinitio.AbInitio.build_invdist</title>
<polygon fill="white" stroke="white" points="-4,5 -4,-202.547 1327,-202.547 1327,5 -4,5"/>
<!-- Node1 -->
<g id="node1" class="node"><title>Node1</title>
<polygon fill="#bfbfbf" stroke="black" points="0.5775,-34 0.5775,-66 115.423,-66 115.423,-34 0.5775,-34"/>
<text text-anchor="start" x="8.5775" y="-53" font-family="Ubuntu-R" font-size="10.00">forcebalance.abinitio.Ab</text>
<text text-anchor="middle" x="58" y="-41" font-family="Ubuntu-R" font-size="10.00">Initio.build_invdist</text>
</g>
<!-- Node2 -->
<g id="node2" class="node"><title>Node2</title>
<g id="a_node2"><a xlink:href="classforcebalance_1_1gmxio_1_1AbInitio__GMX.html#ae17e3c379d82935d725dd31f01df23e5" target="_top" target="_top" target="_top" target="_top" target="_top" xlink:title="Call mdrun in order to update the virtual site positions.">
<polygon fill="white" stroke="black" points="152.154,-63 152.154,-95 297.846,-95 297.846,-63 152.154,-63"/>
<text text-anchor="start" x="160.154" y="-82" font-family="Ubuntu-R" font-size="10.00">forcebalance.gmxio.AbInitio</text>
<text text-anchor="middle" x="225" y="-70" font-family="Ubuntu-R" font-size="10.00">_GMX.generate_vsite_positions</text>
</a>
</g>
</g>
<!-- Node1&#45;&gt;Node2 -->
<g id="edge1" class="edge"><title>Node1&#45;&gt;Node2</title>
<path fill="none" stroke="midnightblue" d="M115.784,-59.9802C124.25,-61.4682 133.118,-63.0267 141.978,-64.584"/>
<polygon fill="midnightblue" stroke="midnightblue" points="141.502,-68.0539 151.957,-66.3379 142.714,-61.1596 141.502,-68.0539"/>
</g>
<!-- Node14 -->
<g id="node14" class="node"><title>Node14</title>
<g id="a_node14"><a xlink:href="classforcebalance_1_1abinitio_1_1AbInitio.html#afbf86c26158a68cae7460b4106809fdd" target="_top" target="_top" target="_top" target="_top" target="_top" xlink:title="forcebalance.abinitio.Ab\lInitio.compute_netforce\l_torque">
<polygon fill="white" stroke="black" points="167.577,-0 167.577,-44 282.423,-44 282.423,-0 167.577,-0"/>
<text text-anchor="start" x="175.577" y="-31" font-family="Ubuntu-R" font-size="10.00">forcebalance.abinitio.Ab</text>
<text text-anchor="start" x="175.577" y="-19" font-family="Ubuntu-R" font-size="10.00">Initio.compute_netforce</text>
<text text-anchor="middle" x="225" y="-7" font-family="Ubuntu-R" font-size="10.00">_torque</text>
</a>
</g>
</g>
<!-- Node1&#45;&gt;Node14 -->
<g id="edge16" class="edge"><title>Node1&#45;&gt;Node14</title>
<path fill="none" stroke="midnightblue" d="M115.784,-40.364C129.211,-38.0854 143.648,-35.6355 157.464,-33.2909"/>
<polygon fill="midnightblue" stroke="midnightblue" points="158.118,-36.7301 167.391,-31.6063 156.947,-29.8288 158.118,-36.7301"/>
</g>
<!-- Node3 -->
<g id="node3" class="node"><title>Node3</title>
<g id="a_node3"><a xlink:href="classforcebalance_1_1gmxio_1_1AbInitio__GMX.html#a1d03ae8104bcecacf96884058f2698af" target="_top" target="_top" target="_top" target="_top" target="_top" xlink:title="forcebalance.gmxio.AbInitio\l_GMX.__init__">
<polygon fill="white" stroke="black" points="335.243,-114 335.243,-146 466.757,-146 466.757,-114 335.243,-114"/>
<text text-anchor="start" x="343.243" y="-133" font-family="Ubuntu-R" font-size="10.00">forcebalance.gmxio.AbInitio</text>
<text text-anchor="middle" x="401" y="-121" font-family="Ubuntu-R" font-size="10.00">_GMX.__init__</text>
</a>
</g>
</g>
<!-- Node2&#45;&gt;Node3 -->
<g id="edge2" class="edge"><title>Node2&#45;&gt;Node3</title>
<path fill="none" stroke="midnightblue" d="M281.055,-95.1367C298.36,-100.209 317.624,-105.855 335.522,-111.101"/>
<polygon fill="midnightblue" stroke="midnightblue" points="334.723,-114.514 345.303,-113.968 336.692,-107.797 334.723,-114.514"/>
</g>
<!-- Node13 -->
<g id="node13" class="node"><title>Node13</title>
<g id="a_node13"><a xlink:href="classforcebalance_1_1baseclass_1_1ForceBalanceBaseClass.html#abaaf4d99b043d41f02fabc41db59252b" target="_top" target="_top" target="_top" target="_top" target="_top" xlink:title="forcebalance.baseclass.Force\lBalanceBaseClass.set_option">
<polygon fill="white" stroke="black" points="334.265,-63 334.265,-95 467.735,-95 467.735,-63 334.265,-63"/>
<text text-anchor="start" x="342.265" y="-82" font-family="Ubuntu-R" font-size="10.00">forcebalance.baseclass.Force</text>
<text text-anchor="middle" x="401" y="-70" font-family="Ubuntu-R" font-size="10.00">BalanceBaseClass.set_option</text>
</a>
</g>
</g>
<!-- Node2&#45;&gt;Node13 -->
<g id="edge15" class="edge"><title>Node2&#45;&gt;Node13</title>
<path fill="none" stroke="midnightblue" d="M298.028,-79C306.63,-79 315.433,-79 324.086,-79"/>
<polygon fill="midnightblue" stroke="midnightblue" points="324.156,-82.5001 334.156,-79 324.156,-75.5001 324.156,-82.5001"/>
</g>
<!-- Node4 -->
<g id="node4" class="node"><title>Node4</title>
<g id="a_node4"><a xlink:href="classforcebalance_1_1gmxio_1_1AbInitio__GMX.html#aba138ca4195a1737f2f00bd8c5f3ca07" target="_top" target="_top" target="_top" target="_top" target="_top" xlink:title="This function parses the GROMACS topology file (.top) which contains a listing of the molecules in th...">
<polygon fill="white" stroke="black" points="504.243,-114 504.243,-146 635.757,-146 635.757,-114 504.243,-114"/>
<text text-anchor="start" x="512.243" y="-133" font-family="Ubuntu-R" font-size="10.00">forcebalance.gmxio.AbInitio</text>
<text text-anchor="middle" x="570" y="-121" font-family="Ubuntu-R" font-size="10.00">_GMX.read_topology</text>
</a>
</g>
</g>
<!-- Node3&#45;&gt;Node4 -->
<g id="edge3" class="edge"><title>Node3&#45;&gt;Node4</title>
<path fill="none" stroke="midnightblue" d="M467.045,-130C475.895,-130 485.036,-130 494.043,-130"/>
<polygon fill="midnightblue" stroke="midnightblue" points="494.133,-133.5 504.133,-130 494.133,-126.5 494.133,-133.5"/>
</g>
<!-- Node5 -->
<g id="node5" class="node"><title>Node5</title>
<g id="a_node5"><a xlink:href="classforcebalance_1_1gmxio_1_1AbInitio__GMX.html#ab2eac76585bdb8401812f0c8e465a44e" target="_top" target="_top" target="_top" target="_top" target="_top" xlink:title="forcebalance.gmxio.AbInitio\l_GMX.prepare_temp_directory">
<polygon fill="white" stroke="black" points="672.553,-114 672.553,-146 815.447,-146 815.447,-114 672.553,-114"/>
<text text-anchor="start" x="680.553" y="-133" font-family="Ubuntu-R" font-size="10.00">forcebalance.gmxio.AbInitio</text>
<text text-anchor="middle" x="744" y="-121" font-family="Ubuntu-R" font-size="10.00">_GMX.prepare_temp_directory</text>
</a>
</g>
</g>
<!-- Node4&#45;&gt;Node5 -->
<g id="edge4" class="edge"><title>Node4&#45;&gt;Node5</title>
<path fill="none" stroke="midnightblue" d="M636.026,-130C644.573,-130 653.414,-130 662.183,-130"/>
<polygon fill="midnightblue" stroke="midnightblue" points="662.423,-133.5 672.423,-130 662.423,-126.5 662.423,-133.5"/>
</g>
<!-- Node6 -->
<g id="node6" class="node"><title>Node6</title>
<g id="a_node6"><a xlink:href="namespaceforcebalance_1_1nifty.html#abb8f59044961a12588e0653c2baa8b01" target="_top" target="_top" target="_top" target="_top" target="_top" xlink:title="forcebalance.nifty.warn\l_press_key">
<polygon fill="white" stroke="black" points="862.528,-153 862.528,-185 973.472,-185 973.472,-153 862.528,-153"/>
<text text-anchor="start" x="870.528" y="-172" font-family="Ubuntu-R" font-size="10.00">forcebalance.nifty.warn</text>
<text text-anchor="middle" x="918" y="-160" font-family="Ubuntu-R" font-size="10.00">_press_key</text>
</a>
</g>
</g>
<!-- Node5&#45;&gt;Node6 -->
<g id="edge5" class="edge"><title>Node5&#45;&gt;Node6</title>
<path fill="none" stroke="midnightblue" d="M815.455,-145.975C827.704,-148.753 840.389,-151.629 852.469,-154.368"/>
<polygon fill="midnightblue" stroke="midnightblue" points="851.925,-157.833 862.452,-156.631 853.473,-151.007 851.925,-157.833"/>
</g>
<!-- Node8 -->
<g id="node8" class="node"><title>Node8</title>
<g id="a_node8"><a xlink:href="namespaceforcebalance_1_1nifty.html#ab182a9da2a2f42cf45942fbee6acf9b1" target="_top" target="_top" target="_top" target="_top" target="_top" xlink:title="forcebalance.nifty.LinkFile">
<polygon fill="white" stroke="black" points="855.299,-114 855.299,-134 980.701,-134 980.701,-114 855.299,-114"/>
<text text-anchor="middle" x="918" y="-121" font-family="Ubuntu-R" font-size="10.00">forcebalance.nifty.LinkFile</text>
</a>
</g>
</g>
<!-- Node5&#45;&gt;Node8 -->
<g id="edge7" class="edge"><title>Node5&#45;&gt;Node8</title>
<path fill="none" stroke="midnightblue" d="M815.455,-127.542C825.233,-127.201 835.288,-126.85 845.091,-126.508"/>
<polygon fill="midnightblue" stroke="midnightblue" points="845.323,-130.003 855.194,-126.156 845.079,-123.007 845.323,-130.003"/>
</g>
<!-- Node10 -->
<g id="node10" class="node"><title>Node10</title>
<g id="a_node10"><a xlink:href="classforcebalance_1_1gmxio_1_1AbInitio__GMX.html#a4bc31d1c02d47749d26b14779f025ebd" target="_top" target="_top" target="_top" target="_top" target="_top" xlink:title="Computes the energy and force using GROMACS for a single snapshot.">
<polygon fill="white" stroke="black" points="852.243,-63 852.243,-95 983.757,-95 983.757,-63 852.243,-63"/>
<text text-anchor="start" x="860.243" y="-82" font-family="Ubuntu-R" font-size="10.00">forcebalance.gmxio.AbInitio</text>
<text text-anchor="middle" x="918" y="-70" font-family="Ubuntu-R" font-size="10.00">_GMX.energy_force_driver</text>
</a>
</g>
</g>
<!-- Node5&#45;&gt;Node10 -->
<g id="edge9" class="edge"><title>Node5&#45;&gt;Node10</title>
<path fill="none" stroke="midnightblue" d="M799.422,-113.863C816.528,-108.791 835.571,-103.145 853.263,-97.8988"/>
<polygon fill="midnightblue" stroke="midnightblue" points="854.34,-101.23 862.932,-95.0317 852.35,-94.519 854.34,-101.23"/>
</g>
<!-- Node12 -->
<g id="node12" class="node"><title>Node12</title>
<g id="a_node12"><a xlink:href="namespaceforcebalance_1_1gmxio.html#acac8488f29b62fb0d4cb54bb5a041026" target="_top" target="_top" target="_top" target="_top" target="_top" xlink:title="forcebalance.gmxio.rm\l_gmx_baks">
<polygon fill="white" stroke="black" points="1212.63,-63 1212.63,-95 1321.37,-95 1321.37,-63 1212.63,-63"/>
<text text-anchor="start" x="1220.63" y="-82" font-family="Ubuntu-R" font-size="10.00">forcebalance.gmxio.rm</text>
<text text-anchor="middle" x="1267" y="-70" font-family="Ubuntu-R" font-size="10.00">_gmx_baks</text>
</a>
</g>
</g>
<!-- Node5&#45;&gt;Node12 -->
<g id="edge14" class="edge"><title>Node5&#45;&gt;Node12</title>
<path fill="none" stroke="midnightblue" d="M764.391,-146.066C784.748,-161.799 818.408,-184.721 852,-194 889.705,-204.416 1165.14,-193.325 1176,-188 1212.11,-170.294 1238.87,-130.591 1253.45,-104.309"/>
<polygon fill="midnightblue" stroke="midnightblue" points="1256.64,-105.768 1258.27,-95.2985 1250.47,-102.467 1256.64,-105.768"/>
</g>
<!-- Node7 -->
<g id="node7" class="node"><title>Node7</title>
<g id="a_node7"><a xlink:href="namespaceforcebalance_1_1nifty.html#a2fc81730e7efa7d138dd86f733507bfc" target="_top" target="_top" target="_top" target="_top" target="_top" xlink:title="Similar to the bultin function map().">
<polygon fill="white" stroke="black" points="1020.03,-159 1020.03,-179 1175.96,-179 1175.96,-159 1020.03,-159"/>
<text text-anchor="middle" x="1098" y="-166" font-family="Ubuntu-R" font-size="10.00">forcebalance.nifty.concurrent_map</text>
</a>
</g>
</g>
<!-- Node6&#45;&gt;Node7 -->
<g id="edge6" class="edge"><title>Node6&#45;&gt;Node7</title>
<path fill="none" stroke="midnightblue" d="M973.858,-169C985.191,-169 997.393,-169 1009.56,-169"/>
<polygon fill="midnightblue" stroke="midnightblue" points="1009.75,-172.5 1019.75,-169 1009.75,-165.5 1009.75,-172.5"/>
</g>
<!-- Node9 -->
<g id="node9" class="node"><title>Node9</title>
<g id="a_node9"><a xlink:href="namespaceforcebalance_1_1nifty.html#a25efa4d501ad852a234721af18978f7e" target="_top" target="_top" target="_top" target="_top" target="_top" xlink:title="Remove the file if it exists (doesn&#39;t return an error).">
<polygon fill="white" stroke="black" points="1037.53,-108 1037.53,-140 1158.47,-140 1158.47,-108 1037.53,-108"/>
<text text-anchor="start" x="1045.53" y="-127" font-family="Ubuntu-R" font-size="10.00">forcebalance.nifty.remove</text>
<text text-anchor="middle" x="1098" y="-115" font-family="Ubuntu-R" font-size="10.00">_if_exists</text>
</a>
</g>
</g>
<!-- Node8&#45;&gt;Node9 -->
<g id="edge8" class="edge"><title>Node8&#45;&gt;Node9</title>
<path fill="none" stroke="midnightblue" d="M980.756,-124C995.686,-124 1011.75,-124 1027.03,-124"/>
<polygon fill="midnightblue" stroke="midnightblue" points="1027.45,-127.5 1037.45,-124 1027.45,-120.5 1027.45,-127.5"/>
</g>
<!-- Node11 -->
<g id="node11" class="node"><title>Node11</title>
<g id="a_node11"><a xlink:href="classforcebalance_1_1gmxio_1_1AbInitio__GMX.html#a6e43c323b2286c546ff8afd3377f8808" target="_top" target="_top" target="_top" target="_top" target="_top" xlink:title="Computes the energy and force using GROMACS for a trajectory.">
<polygon fill="white" stroke="black" points="1026.28,-18 1026.28,-50 1169.72,-50 1169.72,-18 1026.28,-18"/>
<text text-anchor="start" x="1034.28" y="-37" font-family="Ubuntu-R" font-size="10.00">forcebalance.gmxio.AbInitio</text>
<text text-anchor="middle" x="1098" y="-25" font-family="Ubuntu-R" font-size="10.00">_GMX.energy_force_driver_all</text>
</a>
</g>
</g>
<!-- Node10&#45;&gt;Node11 -->
<g id="edge10" class="edge"><title>Node10&#45;&gt;Node11</title>
<path fill="none" stroke="midnightblue" d="M982.508,-62.9445C995.845,-59.5729 1010.02,-55.9904 1023.68,-52.5366"/>
<polygon fill="midnightblue" stroke="midnightblue" points="1024.68,-55.8936 1033.52,-50.0493 1022.96,-49.1071 1024.68,-55.8936"/>
</g>
<!-- Node10&#45;&gt;Node12 -->
<g id="edge13" class="edge"><title>Node10&#45;&gt;Node12</title>
<path fill="none" stroke="midnightblue" d="M983.861,-79C1046.39,-79 1140.42,-79 1202.49,-79"/>
<polygon fill="midnightblue" stroke="midnightblue" points="1202.54,-82.5001 1212.54,-79 1202.54,-75.5001 1202.54,-82.5001"/>
</g>
<!-- Node11&#45;&gt;Node2 -->
<g id="edge11" class="edge"><title>Node11&#45;&gt;Node2</title>
<path fill="none" stroke="midnightblue" d="M1026.21,-34C955.127,-34 842.472,-34 745,-34 569,-34 569,-34 569,-34 464.215,-34 437.472,-36.4651 334,-53 321.452,-55.0051 308.21,-57.7003 295.461,-60.5976"/>
<polygon fill="midnightblue" stroke="midnightblue" points="294.307,-57.2728 285.365,-62.9552 295.899,-64.0894 294.307,-57.2728"/>
</g>
<!-- Node11&#45;&gt;Node12 -->
<g id="edge12" class="edge"><title>Node11&#45;&gt;Node12</title>
<path fill="none" stroke="midnightblue" d="M1158.82,-50.1189C1173.04,-53.9507 1188.26,-58.0516 1202.63,-61.9245"/>
<polygon fill="midnightblue" stroke="midnightblue" points="1201.86,-65.3408 1212.42,-64.5632 1203.68,-58.5819 1201.86,-65.3408"/>
</g>
</g>
</svg>
