<?xml version="1.0" encoding="UTF-8" standalone="no"?>
<!DOCTYPE svg PUBLIC "-//W3C//DTD SVG 1.1//EN"
 "http://www.w3.org/Graphics/SVG/1.1/DTD/svg11.dtd">
<!-- Generated by graphviz version 2.32.0 (20130801.1845)
 -->
<!-- Title: forcebalance.forcefield.FF.create_mvals Pages: 1 -->
<svg width="452pt" height="40pt"
 viewBox="0.00 0.00 452.00 40.00" xmlns="http://www.w3.org/2000/svg" xmlns:xlink="http://www.w3.org/1999/xlink">
<g id="graph0" class="graph" transform="scale(1 1) rotate(0) translate(4 36)">
<title>forcebalance.forcefield.FF.create_mvals</title>
<polygon fill="white" stroke="white" points="-4,5 -4,-36 449,-36 449,5 -4,5"/>
<!-- Node1 -->
<g id="node1" class="node"><title>Node1</title>
<polygon fill="#bfbfbf" stroke="black" points="0.5335,-0 0.5335,-32 111.467,-32 111.467,-0 0.5335,-0"/>
<text text-anchor="start" x="8.5335" y="-19" font-family="Ubuntu-R" font-size="10.00">forcebalance.forcefield.</text>
<text text-anchor="middle" x="56" y="-7" font-family="Ubuntu-R" font-size="10.00">FF.create_mvals</text>
</g>
<!-- Node2 -->
<g id="node2" class="node"><title>Node2</title>
<g id="a_node2"><a xlink:href="namespaceforcebalance_1_1molecule.html#a0dd31eff88d2bed0884ab21a13261d42" target="_top" xlink:title="ONLY matches integers! If you have a decimal point? None shall pass!">
<polygon fill="white" stroke="black" points="148.024,-6 148.024,-26 273.976,-26 273.976,-6 148.024,-6"/>
<text text-anchor="middle" x="211" y="-13" font-family="Ubuntu-R" font-size="10.00">forcebalance.molecule.isint</text>
</a>
</g>
</g>
<!-- Node1&#45;&gt;Node2 -->
<g id="edge1" class="edge"><title>Node1&#45;&gt;Node2</title>
<path fill="none" stroke="midnightblue" d="M111.804,-16C120.186,-16 128.946,-16 137.635,-16"/>
<polygon fill="midnightblue" stroke="midnightblue" points="137.776,-19.5001 147.776,-16 137.776,-12.5001 137.776,-19.5001"/>
</g>
<!-- Node3 -->
<g id="node3" class="node"><title>Node3</title>
<g id="a_node3"><a xlink:href="namespaceforcebalance_1_1molecule.html#afe989ffd119568047fc8265b1d329a70" target="_top" xlink:title="Matches ANY number; it can be a decimal, scientific notation, integer, or what have you...">
<polygon fill="white" stroke="black" points="310.14,-6 310.14,-26 443.86,-26 443.86,-6 310.14,-6"/>
<text text-anchor="middle" x="377" y="-13" font-family="Ubuntu-R" font-size="10.00">forcebalance.molecule.isfloat</text>
</a>
</g>
</g>
<!-- Node2&#45;&gt;Node3 -->
<g id="edge2" class="edge"><title>Node2&#45;&gt;Node3</title>
<path fill="none" stroke="midnightblue" d="M274.001,-16C282.477,-16 291.256,-16 299.945,-16"/>
<polygon fill="midnightblue" stroke="midnightblue" points="300.081,-19.5001 310.081,-16 300.081,-12.5001 300.081,-19.5001"/>
</g>
</g>
</svg>
