<?xml version="1.0" encoding="UTF-8" standalone="no"?>
<!DOCTYPE svg PUBLIC "-//W3C//DTD SVG 1.1//EN"
 "http://www.w3.org/Graphics/SVG/1.1/DTD/svg11.dtd">
<!-- Generated by graphviz version 2.40.1 (20161225.0304)
 -->
<!-- Title: src.optimizer.Optimizer.Anneal Pages: 1 -->
<svg width="310pt" height="39pt"
 viewBox="0.00 0.00 310.00 39.00" xmlns="http://www.w3.org/2000/svg" xmlns:xlink="http://www.w3.org/1999/xlink">
<g id="graph0" class="graph" transform="scale(1 1) rotate(0) translate(4 35)">
<title>src.optimizer.Optimizer.Anneal</title>
<polygon fill="#ffffff" stroke="transparent" points="-4,4 -4,-35 306,-35 306,4 -4,4"/>
<!-- Node2 -->
<g id="node1" class="node">
<title>Node2</title>
<polygon fill="#bfbfbf" stroke="#000000" points="0,-.5 0,-30.5 133,-30.5 133,-.5 0,-.5"/>
<text text-anchor="start" x="8" y="-18.5" font-family="Ubuntu-R" font-size="10.00" fill="#000000">src.optimizer.Optimizer.</text>
<text text-anchor="middle" x="66.5" y="-7.5" font-family="Ubuntu-R" font-size="10.00" fill="#000000">Anneal</text>
</g>
<!-- Node3 -->
<g id="node2" class="node">
<title>Node3</title>
<g id="a_node2"><a xlink:href="classsrc_1_1optimizer_1_1Optimizer.html#a1e616a4c920b3e8935ca19e208b1c3be" target="_top" xlink:title="Driver for SciPy optimizations. ">
<polygon fill="#ffffff" stroke="#000000" points="169,-.5 169,-30.5 302,-30.5 302,-.5 169,-.5"/>
<text text-anchor="start" x="177" y="-18.5" font-family="Ubuntu-R" font-size="10.00" fill="#000000">src.optimizer.Optimizer.</text>
<text text-anchor="middle" x="235.5" y="-7.5" font-family="Ubuntu-R" font-size="10.00" fill="#000000">ScipyOptimizer</text>
</a>
</g>
</g>
<!-- Node2&#45;&gt;Node3 -->
<g id="edge1" class="edge">
<title>Node2&#45;&gt;Node3</title>
<path fill="none" stroke="#191970" d="M133.2933,-15.5C141.6236,-15.5 150.1942,-15.5 158.6615,-15.5"/>
<polygon fill="#191970" stroke="#191970" points="158.9152,-19.0001 168.9152,-15.5 158.9152,-12.0001 158.9152,-19.0001"/>
</g>
</g>
</svg>
