<?xml version="1.0" encoding="UTF-8" standalone="no"?>
<!DOCTYPE svg PUBLIC "-//W3C//DTD SVG 1.1//EN"
 "http://www.w3.org/Graphics/SVG/1.1/DTD/svg11.dtd">
<!-- Generated by graphviz version 2.28.0 (20111219.2309)
 -->
<!-- Title: forcebalance.tinkerio.Interaction_TINKER.energy_driver_all Pages: 1 -->
<svg width="1662pt" height="199pt"
 viewBox="0.00 0.00 1662.00 199.00" xmlns="http://www.w3.org/2000/svg" xmlns:xlink="http://www.w3.org/1999/xlink">
<g id="graph1" class="graph" transform="scale(1 1) rotate(0) translate(4 195)">
<title>forcebalance.tinkerio.Interaction_TINKER.energy_driver_all</title>
<polygon fill="white" stroke="white" points="-4,5 -4,-195 1659,-195 1659,5 -4,5"/>
<!-- Node1 -->
<g id="node1" class="node"><title>Node1</title>
<polygon fill="#bfbfbf" stroke="black" points="0,-112 0,-142 170,-142 170,-112 0,-112"/>
<text text-anchor="start" x="8" y="-130" font-family="Ubuntu-R" font-size="10.00">forcebalance.tinkerio.Interaction</text>
<text text-anchor="middle" x="85" y="-119" font-family="Ubuntu-R" font-size="10.00">_TINKER.energy_driver_all</text>
</g>
<!-- Node1&#45;&gt;Node1 -->
<g id="edge40" class="edge"><title>Node1&#45;&gt;Node1</title>
<path fill="none" stroke="midnightblue" d="M48.7891,-142.275C40.7422,-151.406 52.8125,-160 85,-160 104.111,-160 116.131,-156.97 121.058,-152.598"/>
<polygon fill="midnightblue" stroke="midnightblue" points="124.562,-152.326 121.211,-142.275 117.563,-152.222 124.562,-152.326"/>
</g>
<!-- Node2 -->
<g id="node3" class="node"><title>Node2</title>
<a xlink:href="classforcebalance_1_1tinkerio_1_1Interaction__TINKER.html#aa04011719babeea254134426db8c7633" target="_top" xlink:title="forcebalance.tinkerio.Interaction\l_TINKER.interaction_driver_all">
<polygon fill="white" stroke="black" points="206,-156 206,-186 376,-186 376,-156 206,-156"/>
<text text-anchor="start" x="214" y="-174" font-family="Ubuntu-R" font-size="10.00">forcebalance.tinkerio.Interaction</text>
<text text-anchor="middle" x="291" y="-163" font-family="Ubuntu-R" font-size="10.00">_TINKER.interaction_driver_all</text>
</a>
</g>
<!-- Node1&#45;&gt;Node2 -->
<g id="edge2" class="edge"><title>Node1&#45;&gt;Node2</title>
<path fill="none" stroke="midnightblue" d="M155.635,-142.019C173.262,-145.821 192.328,-149.934 210.407,-153.833"/>
<polygon fill="midnightblue" stroke="midnightblue" points="209.82,-157.287 220.333,-155.974 211.296,-150.444 209.82,-157.287"/>
</g>
<!-- Node3 -->
<g id="node5" class="node"><title>Node3</title>
<a xlink:href="classforcebalance_1_1openmmio_1_1Interaction__OpenMM.html#a535ff72686dc66b91f5dda007e252189" target="_top" xlink:title="forcebalance.openmmio.Interaction\l_OpenMM.energy_driver_all">
<polygon fill="white" stroke="black" points="412.5,-112 412.5,-142 599.5,-142 599.5,-112 412.5,-112"/>
<text text-anchor="start" x="420.5" y="-130" font-family="Ubuntu-R" font-size="10.00">forcebalance.openmmio.Interaction</text>
<text text-anchor="middle" x="506" y="-119" font-family="Ubuntu-R" font-size="10.00">_OpenMM.energy_driver_all</text>
</a>
</g>
<!-- Node1&#45;&gt;Node3 -->
<g id="edge4" class="edge"><title>Node1&#45;&gt;Node3</title>
<path fill="none" stroke="midnightblue" d="M170.035,-127C236.865,-127 330.661,-127 402.006,-127"/>
<polygon fill="midnightblue" stroke="midnightblue" points="402.364,-130.5 412.364,-127 402.364,-123.5 402.364,-130.5"/>
</g>
<!-- Node8 -->
<g id="node16" class="node"><title>Node8</title>
<a xlink:href="classforcebalance_1_1tinkerio_1_1AbInitio__TINKER.html#aafbf91f1422d7b8f65a4aa588d1c6e18" target="_top" xlink:title="forcebalance.tinkerio.Ab\lInitio_TINKER.energy_driver_all">
<polygon fill="white" stroke="black" points="210.5,-50 210.5,-80 371.5,-80 371.5,-50 210.5,-50"/>
<text text-anchor="start" x="218.5" y="-68" font-family="Ubuntu-R" font-size="10.00">forcebalance.tinkerio.Ab</text>
<text text-anchor="middle" x="291" y="-57" font-family="Ubuntu-R" font-size="10.00">Initio_TINKER.energy_driver_all</text>
</a>
</g>
<!-- Node1&#45;&gt;Node8 -->
<g id="edge16" class="edge"><title>Node1&#45;&gt;Node8</title>
<path fill="none" stroke="midnightblue" d="M135.383,-111.992C164.112,-103.26 200.509,-92.1982 230.772,-83.0006"/>
<polygon fill="midnightblue" stroke="midnightblue" points="231.815,-86.3419 240.365,-80.0851 229.779,-79.6443 231.815,-86.3419"/>
</g>
<!-- Node3&#45;&gt;Node3 -->
<g id="edge14" class="edge"><title>Node3&#45;&gt;Node3</title>
<path fill="none" stroke="midnightblue" d="M468.383,-142.275C460.023,-151.406 472.562,-160 506,-160 525.854,-160 538.34,-156.97 543.458,-152.598"/>
<polygon fill="midnightblue" stroke="midnightblue" points="546.962,-152.328 543.617,-142.275 539.963,-152.22 546.962,-152.328"/>
</g>
<!-- Node4 -->
<g id="node7" class="node"><title>Node4</title>
<a xlink:href="namespaceforcebalance_1_1openmmio.html#a9f9fc56475dbfcc94a40fef6a84ed25f" target="_top" xlink:title="forcebalance.openmmio.Update\lSimulationParameters">
<polygon fill="white" stroke="black" points="644.5,-161 644.5,-191 815.5,-191 815.5,-161 644.5,-161"/>
<text text-anchor="start" x="652.5" y="-179" font-family="Ubuntu-R" font-size="10.00">forcebalance.openmmio.Update</text>
<text text-anchor="middle" x="730" y="-168" font-family="Ubuntu-R" font-size="10.00">SimulationParameters</text>
</a>
</g>
<!-- Node3&#45;&gt;Node4 -->
<g id="edge6" class="edge"><title>Node3&#45;&gt;Node4</title>
<path fill="none" stroke="midnightblue" d="M575.116,-142.035C599.089,-147.326 626.215,-153.313 650.943,-158.771"/>
<polygon fill="midnightblue" stroke="midnightblue" points="650.493,-162.256 661.013,-160.994 652.002,-155.421 650.493,-162.256"/>
</g>
<!-- Node7 -->
<g id="node13" class="node"><title>Node7</title>
<a xlink:href="classforcebalance_1_1openmmio_1_1Interaction__OpenMM.html#a9813c1a24af88156703d05ebe57bf707" target="_top" xlink:title="forcebalance.openmmio.Interaction\l_OpenMM.interaction_driver_all">
<polygon fill="white" stroke="black" points="636.5,-112 636.5,-142 823.5,-142 823.5,-112 636.5,-112"/>
<text text-anchor="start" x="644.5" y="-130" font-family="Ubuntu-R" font-size="10.00">forcebalance.openmmio.Interaction</text>
<text text-anchor="middle" x="730" y="-119" font-family="Ubuntu-R" font-size="10.00">_OpenMM.interaction_driver_all</text>
</a>
</g>
<!-- Node3&#45;&gt;Node7 -->
<g id="edge12" class="edge"><title>Node3&#45;&gt;Node7</title>
<path fill="none" stroke="midnightblue" d="M599.54,-127C608.357,-127 617.334,-127 626.24,-127"/>
<polygon fill="midnightblue" stroke="midnightblue" points="626.253,-130.5 636.253,-127 626.252,-123.5 626.253,-130.5"/>
</g>
<!-- Node5 -->
<g id="node9" class="node"><title>Node5</title>
<a xlink:href="namespaceforcebalance_1_1openmmio.html#a95d91538d72e354fc95433539c42450c" target="_top" xlink:title="forcebalance.openmmio.Set\lAmoebaVirtualExclusions">
<polygon fill="white" stroke="black" points="860,-161 860,-191 1012,-191 1012,-161 860,-161"/>
<text text-anchor="start" x="868" y="-179" font-family="Ubuntu-R" font-size="10.00">forcebalance.openmmio.Set</text>
<text text-anchor="middle" x="936" y="-168" font-family="Ubuntu-R" font-size="10.00">AmoebaVirtualExclusions</text>
</a>
</g>
<!-- Node4&#45;&gt;Node5 -->
<g id="edge8" class="edge"><title>Node4&#45;&gt;Node5</title>
<path fill="none" stroke="midnightblue" d="M815.742,-176C826.973,-176 838.492,-176 849.731,-176"/>
<polygon fill="midnightblue" stroke="midnightblue" points="849.959,-179.5 859.959,-176 849.959,-172.5 849.959,-179.5"/>
</g>
<!-- Node6 -->
<g id="node11" class="node"><title>Node6</title>
<a xlink:href="namespaceforcebalance_1_1openmmio.html#aa085594c11e9cd00ce71f5a8ead72b68" target="_top" xlink:title="Create a multiple timestep velocity verlet with velocity randomization (VVVR) integrator. ">
<polygon fill="white" stroke="black" points="1048,-166.5 1048,-185.5 1278,-185.5 1278,-166.5 1048,-166.5"/>
<text text-anchor="middle" x="1163" y="-173.5" font-family="Ubuntu-R" font-size="10.00">forcebalance.openmmio.MTSVVVRIntegrator</text>
</a>
</g>
<!-- Node5&#45;&gt;Node6 -->
<g id="edge10" class="edge"><title>Node5&#45;&gt;Node6</title>
<path fill="none" stroke="midnightblue" d="M1012.23,-176C1020.5,-176 1029.06,-176 1037.73,-176"/>
<polygon fill="midnightblue" stroke="midnightblue" points="1037.92,-179.5 1047.92,-176 1037.92,-172.5 1037.92,-179.5"/>
</g>
<!-- Node8&#45;&gt;Node3 -->
<g id="edge36" class="edge"><title>Node8&#45;&gt;Node3</title>
<path fill="none" stroke="midnightblue" d="M343.561,-80.0085C373.688,-88.7776 411.89,-99.8976 443.569,-109.119"/>
<polygon fill="midnightblue" stroke="midnightblue" points="442.595,-112.481 453.175,-111.915 444.552,-105.759 442.595,-112.481"/>
</g>
<!-- Node8&#45;&gt;Node8 -->
<g id="edge38" class="edge"><title>Node8&#45;&gt;Node8</title>
<path fill="none" stroke="midnightblue" d="M254.789,-80.2754C246.742,-89.4062 258.812,-98 291,-98 310.111,-98 322.131,-94.9704 327.058,-90.5975"/>
<polygon fill="midnightblue" stroke="midnightblue" points="330.562,-90.3263 327.211,-80.2754 323.563,-90.2223 330.562,-90.3263"/>
</g>
<!-- Node9 -->
<g id="node18" class="node"><title>Node9</title>
<a xlink:href="classforcebalance_1_1tinkerio_1_1AbInitio__TINKER.html#a27835affec49391fc41b832839a2b0e8" target="_top" xlink:title="forcebalance.tinkerio.Ab\lInitio_TINKER.energy_force\l_driver_all">
<polygon fill="white" stroke="black" points="434.5,-44.5 434.5,-85.5 577.5,-85.5 577.5,-44.5 434.5,-44.5"/>
<text text-anchor="start" x="442.5" y="-73.5" font-family="Ubuntu-R" font-size="10.00">forcebalance.tinkerio.Ab</text>
<text text-anchor="start" x="442.5" y="-62.5" font-family="Ubuntu-R" font-size="10.00">Initio_TINKER.energy_force</text>
<text text-anchor="middle" x="506" y="-51.5" font-family="Ubuntu-R" font-size="10.00">_driver_all</text>
</a>
</g>
<!-- Node8&#45;&gt;Node9 -->
<g id="edge18" class="edge"><title>Node8&#45;&gt;Node9</title>
<path fill="none" stroke="midnightblue" d="M371.616,-65C388.803,-65 406.99,-65 424.221,-65"/>
<polygon fill="midnightblue" stroke="midnightblue" points="424.242,-68.5001 434.242,-65 424.242,-61.5001 424.242,-68.5001"/>
</g>
<!-- Node10 -->
<g id="node20" class="node"><title>Node10</title>
<a xlink:href="classforcebalance_1_1tinkerio_1_1AbInitio__TINKER.html#adeddb898c79da3df601bc742bc2c2be7" target="_top" xlink:title="forcebalance.tinkerio.Ab\lInitio_TINKER.__init__">
<polygon fill="white" stroke="black" points="664,-63 664,-93 796,-93 796,-63 664,-63"/>
<text text-anchor="start" x="672" y="-81" font-family="Ubuntu-R" font-size="10.00">forcebalance.tinkerio.Ab</text>
<text text-anchor="middle" x="730" y="-70" font-family="Ubuntu-R" font-size="10.00">Initio_TINKER.__init__</text>
</a>
</g>
<!-- Node9&#45;&gt;Node10 -->
<g id="edge20" class="edge"><title>Node9&#45;&gt;Node10</title>
<path fill="none" stroke="midnightblue" d="M577.547,-69.1311C601.873,-70.5557 629.203,-72.156 653.88,-73.6011"/>
<polygon fill="midnightblue" stroke="midnightblue" points="653.727,-77.098 663.915,-74.1887 654.137,-70.11 653.727,-77.098"/>
</g>
<!-- Node11 -->
<g id="node22" class="node"><title>Node11</title>
<a xlink:href="classforcebalance_1_1tinkerio_1_1AbInitio__TINKER.html#a4f0decc929da6183f1d0d6229fc9733d" target="_top" xlink:title="forcebalance.tinkerio.Ab\lInitio_TINKER.prepare\l_temp_directory">
<polygon fill="white" stroke="black" points="870,-24.5 870,-65.5 1002,-65.5 1002,-24.5 870,-24.5"/>
<text text-anchor="start" x="878" y="-53.5" font-family="Ubuntu-R" font-size="10.00">forcebalance.tinkerio.Ab</text>
<text text-anchor="start" x="878" y="-42.5" font-family="Ubuntu-R" font-size="10.00">Initio_TINKER.prepare</text>
<text text-anchor="middle" x="936" y="-31.5" font-family="Ubuntu-R" font-size="10.00">_temp_directory</text>
</a>
</g>
<!-- Node9&#45;&gt;Node11 -->
<g id="edge34" class="edge"><title>Node9&#45;&gt;Node11</title>
<path fill="none" stroke="midnightblue" d="M577.57,-57.5873C596.525,-55.8281 617.028,-54.135 636,-53 712.074,-48.449 799.191,-46.4868 859.688,-45.6408"/>
<polygon fill="midnightblue" stroke="midnightblue" points="859.96,-49.1376 869.913,-45.5049 859.867,-42.1382 859.96,-49.1376"/>
</g>
<!-- Node10&#45;&gt;Node11 -->
<g id="edge22" class="edge"><title>Node10&#45;&gt;Node11</title>
<path fill="none" stroke="midnightblue" d="M796.108,-67.4679C816.35,-64.1934 838.832,-60.5566 859.708,-57.1795"/>
<polygon fill="midnightblue" stroke="midnightblue" points="860.498,-60.5973 869.811,-55.5453 859.38,-53.6872 860.498,-60.5973"/>
</g>
<!-- Node12 -->
<g id="node24" class="node"><title>Node12</title>
<a xlink:href="classforcebalance_1_1tinkerio_1_1AbInitio__TINKER.html#ab3835da0b951f77bfef0f14acd133c26" target="_top" xlink:title="forcebalance.tinkerio.Ab\lInitio_TINKER.energy_force\l_driver">
<polygon fill="white" stroke="black" points="1091.5,-0.5 1091.5,-41.5 1234.5,-41.5 1234.5,-0.5 1091.5,-0.5"/>
<text text-anchor="start" x="1099.5" y="-29.5" font-family="Ubuntu-R" font-size="10.00">forcebalance.tinkerio.Ab</text>
<text text-anchor="start" x="1099.5" y="-18.5" font-family="Ubuntu-R" font-size="10.00">Initio_TINKER.energy_force</text>
<text text-anchor="middle" x="1163" y="-7.5" font-family="Ubuntu-R" font-size="10.00">_driver</text>
</a>
</g>
<!-- Node11&#45;&gt;Node12 -->
<g id="edge24" class="edge"><title>Node11&#45;&gt;Node12</title>
<path fill="none" stroke="midnightblue" d="M1002.08,-38.0582C1026.71,-35.4306 1055.06,-32.4068 1080.98,-29.6418"/>
<polygon fill="midnightblue" stroke="midnightblue" points="1081.59,-33.0969 1091.16,-28.5559 1080.85,-26.1364 1081.59,-33.0969"/>
</g>
<!-- Node12&#45;&gt;Node8 -->
<g id="edge32" class="edge"><title>Node12&#45;&gt;Node8</title>
<path fill="none" stroke="midnightblue" d="M1091.43,-17.5957C1066.36,-16.5401 1037.93,-15.5183 1012,-15 745.239,-9.6669 676.023,3.49884 412,-35 392.366,-37.8629 371.274,-42.5671 352.333,-47.4105"/>
<polygon fill="midnightblue" stroke="midnightblue" points="351.431,-44.0286 342.643,-49.947 353.203,-50.8005 351.431,-44.0286"/>
</g>
<!-- Node13 -->
<g id="node26" class="node"><title>Node13</title>
<a xlink:href="namespaceforcebalance_1_1molecule.html#a0dd31eff88d2bed0884ab21a13261d42" target="_top" xlink:title="ONLY matches integers! If you have a decimal point? None shall pass! ">
<polygon fill="white" stroke="black" points="1314.5,-30.5 1314.5,-49.5 1461.5,-49.5 1461.5,-30.5 1314.5,-30.5"/>
<text text-anchor="middle" x="1388" y="-37.5" font-family="Ubuntu-R" font-size="10.00">forcebalance.molecule.isint</text>
</a>
</g>
<!-- Node12&#45;&gt;Node13 -->
<g id="edge26" class="edge"><title>Node12&#45;&gt;Node13</title>
<path fill="none" stroke="midnightblue" d="M1234.56,-27.0117C1256.68,-28.8963 1281.29,-30.9936 1304.18,-32.9436"/>
<polygon fill="midnightblue" stroke="midnightblue" points="1303.95,-36.4367 1314.21,-33.7984 1304.55,-29.462 1303.95,-36.4367"/>
</g>
<!-- Node14 -->
<g id="node28" class="node"><title>Node14</title>
<a xlink:href="namespaceforcebalance_1_1molecule.html#afe989ffd119568047fc8265b1d329a70" target="_top" xlink:title="Matches ANY number; it can be a decimal, scientific notation, integer, or what have you...">
<polygon fill="white" stroke="black" points="1498,-11.5 1498,-30.5 1654,-30.5 1654,-11.5 1498,-11.5"/>
<text text-anchor="middle" x="1576" y="-18.5" font-family="Ubuntu-R" font-size="10.00">forcebalance.molecule.isfloat</text>
</a>
</g>
<!-- Node12&#45;&gt;Node14 -->
<g id="edge30" class="edge"><title>Node12&#45;&gt;Node14</title>
<path fill="none" stroke="midnightblue" d="M1234.65,-21C1304.69,-21 1412.14,-21 1487.52,-21"/>
<polygon fill="midnightblue" stroke="midnightblue" points="1487.94,-24.5001 1497.94,-21 1487.94,-17.5001 1487.94,-24.5001"/>
</g>
<!-- Node13&#45;&gt;Node14 -->
<g id="edge28" class="edge"><title>Node13&#45;&gt;Node14</title>
<path fill="none" stroke="midnightblue" d="M1461.71,-32.5725C1470.21,-31.7047 1478.94,-30.8127 1487.61,-29.9273"/>
<polygon fill="midnightblue" stroke="midnightblue" points="1488.14,-33.391 1497.73,-28.8929 1487.43,-26.4273 1488.14,-33.391"/>
</g>
</g>
</svg>
