<?xml version="1.0" encoding="UTF-8" standalone="no"?>
<!DOCTYPE svg PUBLIC "-//W3C//DTD SVG 1.1//EN"
 "http://www.w3.org/Graphics/SVG/1.1/DTD/svg11.dtd">
<!-- Generated by graphviz version 2.28.0 (20111219.2309)
 -->
<!-- Title: forcebalance.psi4io.THCDF_Psi4.write_nested_destroy Pages: 1 -->
<svg width="718pt" height="131pt"
 viewBox="0.00 0.00 718.00 131.00" xmlns="http://www.w3.org/2000/svg" xmlns:xlink="http://www.w3.org/1999/xlink">
<g id="graph1" class="graph" transform="scale(1 1) rotate(0) translate(4 127)">
<title>forcebalance.psi4io.THCDF_Psi4.write_nested_destroy</title>
<polygon fill="white" stroke="white" points="-4,5 -4,-127 715,-127 715,5 -4,5"/>
<!-- Node1 -->
<g id="node1" class="node"><title>Node1</title>
<polygon fill="#bfbfbf" stroke="black" points="0,-66 0,-96 146,-96 146,-66 0,-66"/>
<text text-anchor="start" x="8" y="-84" font-family="Ubuntu-R" font-size="10.00">forcebalance.psi4io.THCDF</text>
<text text-anchor="middle" x="73" y="-73" font-family="Ubuntu-R" font-size="10.00">_Psi4.write_nested_destroy</text>
</g>
<!-- Node2 -->
<g id="node3" class="node"><title>Node2</title>
<a xlink:href="classforcebalance_1_1psi4io_1_1THCDF__Psi4.html#a14993bd872840bd869fefced495e7ba2" target="_top" xlink:title="forcebalance.psi4io.THCDF\l_Psi4.driver">
<polygon fill="white" stroke="black" points="184,-88 184,-118 328,-118 328,-88 184,-88"/>
<text text-anchor="start" x="192" y="-106" font-family="Ubuntu-R" font-size="10.00">forcebalance.psi4io.THCDF</text>
<text text-anchor="middle" x="256" y="-95" font-family="Ubuntu-R" font-size="10.00">_Psi4.driver</text>
</a>
</g>
<!-- Node1&#45;&gt;Node2 -->
<g id="edge2" class="edge"><title>Node1&#45;&gt;Node2</title>
<path fill="none" stroke="midnightblue" d="M146.056,-83.1344C155.714,-84.1745 165.665,-85.3566 175.443,-86.6241"/>
<polygon fill="midnightblue" stroke="midnightblue" points="175.175,-90.1194 185.55,-87.9736 176.102,-83.1809 175.175,-90.1194"/>
</g>
<!-- Node5 -->
<g id="node10" class="node"><title>Node5</title>
<a xlink:href="namespaceforcebalance_1_1finite__difference.html#ad84d3e385db1190e7d8ef58bc08a6c52" target="_top" xlink:title="Invoking this function from anywhere will tell us whether we&#39;re being called by a finite&#45;difference f...">
<polygon fill="white" stroke="black" points="377,-44 377,-74 481,-74 481,-44 377,-44"/>
<text text-anchor="start" x="385" y="-62" font-family="Ubuntu-R" font-size="10.00">forcebalance.finite</text>
<text text-anchor="middle" x="429" y="-51" font-family="Ubuntu-R" font-size="10.00">_difference.in_fd</text>
</a>
</g>
<!-- Node1&#45;&gt;Node5 -->
<g id="edge12" class="edge"><title>Node1&#45;&gt;Node5</title>
<path fill="none" stroke="midnightblue" d="M146.064,-76.5215C210.943,-72.4894 305.261,-66.6278 366.621,-62.8145"/>
<polygon fill="midnightblue" stroke="midnightblue" points="367.164,-66.2876 376.927,-62.174 366.73,-59.3011 367.164,-66.2876"/>
</g>
<!-- Node6 -->
<g id="node13" class="node"><title>Node6</title>
<a xlink:href="namespaceforcebalance_1_1leastsq.html#a8e7ef329e27aff738bc91dd79bd2dd1c" target="_top" xlink:title="forcebalance.leastsq.Check\lBasis">
<polygon fill="white" stroke="black" points="182,-0 182,-30 330,-30 330,-0 182,-0"/>
<text text-anchor="start" x="190" y="-18" font-family="Ubuntu-R" font-size="10.00">forcebalance.leastsq.Check</text>
<text text-anchor="middle" x="256" y="-7" font-family="Ubuntu-R" font-size="10.00">Basis</text>
</a>
</g>
<!-- Node1&#45;&gt;Node6 -->
<g id="edge14" class="edge"><title>Node1&#45;&gt;Node6</title>
<path fill="none" stroke="midnightblue" d="M115.525,-65.8583C141.853,-56.258 176.095,-43.7721 204.061,-33.5744"/>
<polygon fill="midnightblue" stroke="midnightblue" points="205.472,-36.7853 213.668,-30.0713 203.074,-30.2089 205.472,-36.7853"/>
</g>
<!-- Node2&#45;&gt;Node1 -->
<g id="edge4" class="edge"><title>Node2&#45;&gt;Node1</title>
<path fill="none" stroke="midnightblue" d="M183.927,-100.971C173.945,-99.9039 163.633,-98.6824 153.507,-97.3693"/>
<polygon fill="midnightblue" stroke="midnightblue" points="153.837,-93.8825 143.462,-96.0281 152.91,-100.821 153.837,-93.8825"/>
</g>
<!-- Node3 -->
<g id="node6" class="node"><title>Node3</title>
<a xlink:href="namespaceforcebalance_1_1nifty.html#abb8f59044961a12588e0653c2baa8b01" target="_top" xlink:title="forcebalance.nifty.warn\l_press_key">
<polygon fill="white" stroke="black" points="366.5,-93 366.5,-123 491.5,-123 491.5,-93 366.5,-93"/>
<text text-anchor="start" x="374.5" y="-111" font-family="Ubuntu-R" font-size="10.00">forcebalance.nifty.warn</text>
<text text-anchor="middle" x="429" y="-100" font-family="Ubuntu-R" font-size="10.00">_press_key</text>
</a>
</g>
<!-- Node2&#45;&gt;Node3 -->
<g id="edge6" class="edge"><title>Node2&#45;&gt;Node3</title>
<path fill="none" stroke="midnightblue" d="M328.034,-105.077C337.401,-105.351 347.006,-105.632 356.383,-105.906"/>
<polygon fill="midnightblue" stroke="midnightblue" points="356.347,-109.406 366.445,-106.2 356.552,-102.409 356.347,-109.406"/>
</g>
<!-- Node2&#45;&gt;Node5 -->
<g id="edge10" class="edge"><title>Node2&#45;&gt;Node5</title>
<path fill="none" stroke="midnightblue" d="M315.37,-87.9808C332.031,-83.6937 350.226,-79.0121 367.037,-74.6863"/>
<polygon fill="midnightblue" stroke="midnightblue" points="367.942,-78.0677 376.754,-72.1861 366.197,-71.2885 367.942,-78.0677"/>
</g>
<!-- Node4 -->
<g id="node8" class="node"><title>Node4</title>
<a xlink:href="namespaceforcebalance_1_1nifty.html#a2fc81730e7efa7d138dd86f733507bfc" target="_top" xlink:title="Similar to the bultin function map(). ">
<polygon fill="white" stroke="black" points="528,-98.5 528,-117.5 710,-117.5 710,-98.5 528,-98.5"/>
<text text-anchor="middle" x="619" y="-105.5" font-family="Ubuntu-R" font-size="10.00">forcebalance.nifty.concurrent_map</text>
</a>
</g>
<!-- Node3&#45;&gt;Node4 -->
<g id="edge8" class="edge"><title>Node3&#45;&gt;Node4</title>
<path fill="none" stroke="midnightblue" d="M491.558,-108C499.961,-108 508.758,-108 517.632,-108"/>
<polygon fill="midnightblue" stroke="midnightblue" points="517.665,-111.5 527.665,-108 517.665,-104.5 517.665,-111.5"/>
</g>
</g>
</svg>
