<?xml version="1.0" encoding="UTF-8" standalone="no"?>
<!DOCTYPE svg PUBLIC "-//W3C//DTD SVG 1.1//EN"
 "http://www.w3.org/Graphics/SVG/1.1/DTD/svg11.dtd">
<!-- Generated by graphviz version 2.40.1 (20161225.0304)
 -->
<!-- Title: src.forcefield.FF.rsmake Pages: 1 -->
<svg width="485pt" height="104pt"
 viewBox="0.00 0.00 485.00 104.00" xmlns="http://www.w3.org/2000/svg" xmlns:xlink="http://www.w3.org/1999/xlink">
<g id="graph0" class="graph" transform="scale(1 1) rotate(0) translate(4 100)">
<title>src.forcefield.FF.rsmake</title>
<polygon fill="#ffffff" stroke="transparent" points="-4,4 -4,-100 481,-100 481,4 -4,4"/>
<!-- Node66 -->
<g id="node1" class="node">
<title>Node66</title>
<polygon fill="#bfbfbf" stroke="#000000" points="0,-38.5 0,-57.5 131,-57.5 131,-38.5 0,-38.5"/>
<text text-anchor="middle" x="65.5" y="-45.5" font-family="Ubuntu-R" font-size="10.00" fill="#000000">src.forcefield.FF.rsmake</text>
</g>
<!-- Node67 -->
<g id="node2" class="node">
<title>Node67</title>
<g id="a_node2"><a xlink:href="namespacesrc_1_1molecule.html#a651f6c6d23932f5a2151784c992e94a8" target="_top" xlink:title="ONLY matches integers! If you have a decimal point? None shall pass! ">
<polygon fill="#ffffff" stroke="#000000" points="184,-76.5 184,-95.5 287,-95.5 287,-76.5 184,-76.5"/>
<text text-anchor="middle" x="235.5" y="-83.5" font-family="Ubuntu-R" font-size="10.00" fill="#000000">src.molecule.isint</text>
</a>
</g>
</g>
<!-- Node66&#45;&gt;Node67 -->
<g id="edge1" class="edge">
<title>Node66&#45;&gt;Node67</title>
<path fill="none" stroke="#191970" d="M108.3982,-57.589C131.0336,-62.6487 158.9982,-68.8996 182.9287,-74.2488"/>
<polygon fill="#191970" stroke="#191970" points="182.3876,-77.7141 192.9103,-76.4799 183.9147,-70.8827 182.3876,-77.7141"/>
</g>
<!-- Node68 -->
<g id="node3" class="node">
<title>Node68</title>
<g id="a_node3"><a xlink:href="namespacesrc_1_1forcefield.html#a2dd794c9844e1c875997ab1b21f4284a" target="_top" xlink:title="This function takes in a dictionary (rsfactors) and a string (termtype). ">
<polygon fill="#ffffff" stroke="#000000" points="167,-38.5 167,-57.5 304,-57.5 304,-38.5 167,-38.5"/>
<text text-anchor="middle" x="235.5" y="-45.5" font-family="Ubuntu-R" font-size="10.00" fill="#000000">src.forcefield.rs_override</text>
</a>
</g>
</g>
<!-- Node66&#45;&gt;Node68 -->
<g id="edge2" class="edge">
<title>Node66&#45;&gt;Node68</title>
<path fill="none" stroke="#191970" d="M131.2264,-48C139.6209,-48 148.28,-48 156.8525,-48"/>
<polygon fill="#191970" stroke="#191970" points="156.8551,-51.5001 166.855,-48 156.855,-44.5001 156.8551,-51.5001"/>
</g>
<!-- Node69 -->
<g id="node4" class="node">
<title>Node69</title>
<g id="a_node4"><a xlink:href="namespacesrc_1_1nifty.html#a9bda70a78d0f5d31e10dfffaf85803c9" target="_top" xlink:title="Cool&#45;looking printout for slick formatting of output. ">
<polygon fill="#ffffff" stroke="#000000" points="185,-.5 185,-19.5 286,-19.5 286,-.5 185,-.5"/>
<text text-anchor="middle" x="235.5" y="-7.5" font-family="Ubuntu-R" font-size="10.00" fill="#000000">src.nifty.printcool</text>
</a>
</g>
</g>
<!-- Node66&#45;&gt;Node69 -->
<g id="edge3" class="edge">
<title>Node66&#45;&gt;Node69</title>
<path fill="none" stroke="#191970" d="M108.3982,-38.411C131.0336,-33.3513 158.9982,-27.1004 182.9287,-21.7512"/>
<polygon fill="#191970" stroke="#191970" points="183.9147,-25.1173 192.9103,-19.5201 182.3876,-18.2859 183.9147,-25.1173"/>
</g>
<!-- Node70 -->
<g id="node5" class="node">
<title>Node70</title>
<g id="a_node5"><a xlink:href="namespacesrc_1_1nifty.html#a6ae2951ba2a22420a11abda6be7e5454" target="_top" xlink:title="src.nifty.warn_press_key">
<polygon fill="#ffffff" stroke="#000000" points="340,-.5 340,-19.5 477,-19.5 477,-.5 340,-.5"/>
<text text-anchor="middle" x="408.5" y="-7.5" font-family="Ubuntu-R" font-size="10.00" fill="#000000">src.nifty.warn_press_key</text>
</a>
</g>
</g>
<!-- Node69&#45;&gt;Node70 -->
<g id="edge4" class="edge">
<title>Node69&#45;&gt;Node70</title>
<path fill="none" stroke="#191970" d="M286.0038,-10C299.6984,-10 314.8581,-10 329.712,-10"/>
<polygon fill="#191970" stroke="#191970" points="329.9249,-13.5001 339.9249,-10 329.9249,-6.5001 329.9249,-13.5001"/>
</g>
</g>
</svg>
