<?xml version="1.0" encoding="UTF-8" standalone="no"?>
<!DOCTYPE svg PUBLIC "-//W3C//DTD SVG 1.1//EN"
 "http://www.w3.org/Graphics/SVG/1.1/DTD/svg11.dtd">
<!-- Generated by graphviz version 2.40.1 (20161225.0304)
 -->
<!-- Title: src.optimizer.Optimizer.BFGS Pages: 1 -->
<svg width="698pt" height="154pt"
 viewBox="0.00 0.00 698.00 154.00" xmlns="http://www.w3.org/2000/svg" xmlns:xlink="http://www.w3.org/1999/xlink">
<g id="graph0" class="graph" transform="scale(1 1) rotate(0) translate(4 150)">
<title>src.optimizer.Optimizer.BFGS</title>
<polygon fill="#ffffff" stroke="transparent" points="-4,4 -4,-150 694,-150 694,4 -4,4"/>
<!-- Node6 -->
<g id="node1" class="node">
<title>Node6</title>
<polygon fill="#bfbfbf" stroke="#000000" points="0,-66.5 0,-85.5 158,-85.5 158,-66.5 0,-66.5"/>
<text text-anchor="middle" x="79" y="-73.5" font-family="Ubuntu-R" font-size="10.00" fill="#000000">src.optimizer.Optimizer.BFGS</text>
</g>
<!-- Node7 -->
<g id="node2" class="node">
<title>Node7</title>
<g id="a_node2"><a xlink:href="classsrc_1_1optimizer_1_1Optimizer.html#a30443d919712b0f3529de3c7d62619ca" target="_top" xlink:title="The main ForceBalance adaptive trust&#45;radius pseudo&#45;Newton optimizer. ">
<polygon fill="#ffffff" stroke="#000000" points="194,-61 194,-91 327,-91 327,-61 194,-61"/>
<text text-anchor="start" x="202" y="-79" font-family="Ubuntu-R" font-size="10.00" fill="#000000">src.optimizer.Optimizer.</text>
<text text-anchor="middle" x="260.5" y="-68" font-family="Ubuntu-R" font-size="10.00" fill="#000000">MainOptimizer</text>
</a>
</g>
</g>
<!-- Node6&#45;&gt;Node7 -->
<g id="edge1" class="edge">
<title>Node6&#45;&gt;Node7</title>
<path fill="none" stroke="#191970" d="M158.0806,-76C166.5699,-76 175.1978,-76 183.6603,-76"/>
<polygon fill="#191970" stroke="#191970" points="183.8804,-79.5001 193.8804,-76 183.8803,-72.5001 183.8804,-79.5001"/>
</g>
<!-- Node8 -->
<g id="node3" class="node">
<title>Node8</title>
<g id="a_node3"><a xlink:href="namespacesrc_1_1nifty.html#a9bda70a78d0f5d31e10dfffaf85803c9" target="_top" xlink:title="Cool&#45;looking printout for slick formatting of output. ">
<polygon fill="#ffffff" stroke="#000000" points="389.5,-126.5 389.5,-145.5 490.5,-145.5 490.5,-126.5 389.5,-126.5"/>
<text text-anchor="middle" x="440" y="-133.5" font-family="Ubuntu-R" font-size="10.00" fill="#000000">src.nifty.printcool</text>
</a>
</g>
</g>
<!-- Node7&#45;&gt;Node8 -->
<g id="edge2" class="edge">
<title>Node7&#45;&gt;Node8</title>
<path fill="none" stroke="#191970" d="M302.2756,-91.0508C320.8223,-97.6349 342.948,-105.356 363,-112 374.514,-115.815 387.0523,-119.7962 398.6034,-123.3943"/>
<polygon fill="#191970" stroke="#191970" points="397.8618,-126.8285 408.4496,-126.4438 399.9328,-120.1419 397.8618,-126.8285"/>
</g>
<!-- Node9 -->
<g id="node4" class="node">
<title>Node9</title>
<g id="a_node4"><a xlink:href="namespacesrc_1_1nifty.html#a6ae2951ba2a22420a11abda6be7e5454" target="_top" xlink:title="src.nifty.warn_press_key">
<polygon fill="#ffffff" stroke="#000000" points="553,-107.5 553,-126.5 690,-126.5 690,-107.5 553,-107.5"/>
<text text-anchor="middle" x="621.5" y="-114.5" font-family="Ubuntu-R" font-size="10.00" fill="#000000">src.nifty.warn_press_key</text>
</a>
</g>
</g>
<!-- Node7&#45;&gt;Node9 -->
<g id="edge4" class="edge">
<title>Node7&#45;&gt;Node9</title>
<path fill="none" stroke="#191970" d="M327.1337,-83.5678C388.0492,-90.4862 478.209,-100.726 542.6812,-108.0483"/>
<polygon fill="#191970" stroke="#191970" points="542.4685,-111.5465 552.7997,-109.1975 543.2585,-104.5913 542.4685,-111.5465"/>
</g>
<!-- Node10 -->
<g id="node5" class="node">
<title>Node10</title>
<g id="a_node5"><a xlink:href="classsrc_1_1optimizer_1_1Optimizer.html#abb29ac2f8b4bd4fca545eb3f6b0470fe" target="_top" xlink:title="Mark in each target that the previous optimization step was good or bad. ">
<polygon fill="#ffffff" stroke="#000000" points="366,-39 366,-69 514,-69 514,-39 366,-39"/>
<text text-anchor="start" x="374" y="-57" font-family="Ubuntu-R" font-size="10.00" fill="#000000">src.optimizer.Optimizer.set</text>
<text text-anchor="middle" x="440" y="-46" font-family="Ubuntu-R" font-size="10.00" fill="#000000">_goodstep</text>
</a>
</g>
</g>
<!-- Node7&#45;&gt;Node10 -->
<g id="edge5" class="edge">
<title>Node7&#45;&gt;Node10</title>
<path fill="none" stroke="#191970" d="M327.0841,-67.8393C336.4885,-66.6866 346.2572,-65.4894 355.9373,-64.303"/>
<polygon fill="#191970" stroke="#191970" points="356.474,-67.7635 365.9739,-63.0728 355.6224,-60.8154 356.474,-67.7635"/>
</g>
<!-- Node11 -->
<g id="node6" class="node">
<title>Node11</title>
<g id="a_node6"><a xlink:href="classsrc_1_1optimizer_1_1Optimizer.html#a7ec731011adb2f1b994dfa112e364e7d" target="_top" xlink:title="src.optimizer.Optimizer.adjh">
<polygon fill="#ffffff" stroke="#000000" points="363,-.5 363,-19.5 517,-19.5 517,-.5 363,-.5"/>
<text text-anchor="middle" x="440" y="-7.5" font-family="Ubuntu-R" font-size="10.00" fill="#000000">src.optimizer.Optimizer.adjh</text>
</a>
</g>
</g>
<!-- Node7&#45;&gt;Node11 -->
<g id="edge6" class="edge">
<title>Node7&#45;&gt;Node11</title>
<path fill="none" stroke="#191970" d="M290.4549,-60.9515C310.6098,-51.2285 337.9739,-38.7959 363,-30 371.0543,-27.1692 379.7083,-24.5394 388.2027,-22.1785"/>
<polygon fill="#191970" stroke="#191970" points="389.3044,-25.5068 398.0557,-19.5348 387.4903,-18.746 389.3044,-25.5068"/>
</g>
<!-- Node8&#45;&gt;Node9 -->
<g id="edge3" class="edge">
<title>Node8&#45;&gt;Node9</title>
<path fill="none" stroke="#191970" d="M490.5579,-130.7074C506.6915,-129.0185 524.9489,-127.1073 542.5982,-125.2597"/>
<polygon fill="#191970" stroke="#191970" points="543.3176,-128.7036 552.8988,-124.1814 542.5887,-121.7416 543.3176,-128.7036"/>
</g>
</g>
</svg>
