<?xml version="1.0" encoding="UTF-8" standalone="no"?>
<!DOCTYPE svg PUBLIC "-//W3C//DTD SVG 1.1//EN"
 "http://www.w3.org/Graphics/SVG/1.1/DTD/svg11.dtd">
<!-- Generated by graphviz version 2.28.0 (20111219.2309)
 -->
<!-- Title: forcebalance.Mol2.mol2.set_mol_type Pages: 1 -->
<svg width="1316pt" height="224pt"
 viewBox="0.00 0.00 1316.00 224.00" xmlns="http://www.w3.org/2000/svg" xmlns:xlink="http://www.w3.org/1999/xlink">
<g id="graph1" class="graph" transform="scale(1 1) rotate(0) translate(4 220)">
<title>forcebalance.Mol2.mol2.set_mol_type</title>
<polygon fill="white" stroke="white" points="-4,5 -4,-220 1313,-220 1313,5 -4,5"/>
<!-- Node1 -->
<g id="node1" class="node"><title>Node1</title>
<polygon fill="#bfbfbf" stroke="black" points="0.5,-137 0.5,-167 149.5,-167 149.5,-137 0.5,-137"/>
<text text-anchor="start" x="8.5" y="-155" font-family="Ubuntu-R" font-size="10.00">forcebalance.Mol2.mol2.set</text>
<text text-anchor="middle" x="75" y="-144" font-family="Ubuntu-R" font-size="10.00">_mol_type</text>
</g>
<!-- Node1&#45;&gt;Node1 -->
<g id="edge36" class="edge"><title>Node1&#45;&gt;Node1</title>
<path fill="none" stroke="midnightblue" d="M42.3047,-167.275C35.0391,-176.406 45.9375,-185 75,-185 92.2559,-185 103.108,-181.97 107.557,-177.598"/>
<polygon fill="midnightblue" stroke="midnightblue" points="111.061,-177.321 107.695,-167.275 104.062,-177.228 111.061,-177.321"/>
</g>
<!-- Node2 -->
<g id="node3" class="node"><title>Node2</title>
<a xlink:href="classforcebalance_1_1Mol2_1_1mol2.html#a067b764ea4c695738f51bc5f995f6f73" target="_top" xlink:title="number of bonds (integer) ">
<polygon fill="white" stroke="black" points="186.5,-186 186.5,-216 335.5,-216 335.5,-186 186.5,-186"/>
<text text-anchor="start" x="194.5" y="-204" font-family="Ubuntu-R" font-size="10.00">forcebalance.Mol2.mol2.set</text>
<text text-anchor="middle" x="261" y="-193" font-family="Ubuntu-R" font-size="10.00">_num_bonds</text>
</a>
</g>
<!-- Node1&#45;&gt;Node2 -->
<g id="edge2" class="edge"><title>Node1&#45;&gt;Node2</title>
<path fill="none" stroke="midnightblue" d="M149.515,-164.95C171.437,-170.493 194.819,-176.956 214.402,-182.937"/>
<polygon fill="midnightblue" stroke="midnightblue" points="213.388,-186.287 223.977,-185.92 215.471,-179.604 213.388,-186.287"/>
</g>
<!-- Node3 -->
<g id="node6" class="node"><title>Node3</title>
<a xlink:href="classforcebalance_1_1Mol2_1_1mol2.html#a57bf99785e120a6aedd8be49585f4c5d" target="_top" xlink:title="number of substructures (integer) ">
<polygon fill="white" stroke="black" points="186.5,-137 186.5,-167 335.5,-167 335.5,-137 186.5,-137"/>
<text text-anchor="start" x="194.5" y="-155" font-family="Ubuntu-R" font-size="10.00">forcebalance.Mol2.mol2.set</text>
<text text-anchor="middle" x="261" y="-144" font-family="Ubuntu-R" font-size="10.00">_num_subst</text>
</a>
</g>
<!-- Node1&#45;&gt;Node3 -->
<g id="edge6" class="edge"><title>Node1&#45;&gt;Node3</title>
<path fill="none" stroke="midnightblue" d="M149.515,-152C158.315,-152 167.351,-152 176.281,-152"/>
<polygon fill="midnightblue" stroke="midnightblue" points="176.302,-155.5 186.302,-152 176.302,-148.5 176.302,-155.5"/>
</g>
<!-- Node5 -->
<g id="node11" class="node"><title>Node5</title>
<a xlink:href="classforcebalance_1_1Mol2_1_1mol2.html#ab5de4b8eef6e851d9be12ecb92cf8f86" target="_top" xlink:title="number of features (integer) ">
<polygon fill="white" stroke="black" points="558.5,-71 558.5,-101 707.5,-101 707.5,-71 558.5,-71"/>
<text text-anchor="start" x="566.5" y="-89" font-family="Ubuntu-R" font-size="10.00">forcebalance.Mol2.mol2.set</text>
<text text-anchor="middle" x="633" y="-78" font-family="Ubuntu-R" font-size="10.00">_num_feat</text>
</a>
</g>
<!-- Node1&#45;&gt;Node5 -->
<g id="edge12" class="edge"><title>Node1&#45;&gt;Node5</title>
<path fill="none" stroke="midnightblue" d="M138.578,-136.975C154.012,-133.649 170.549,-130.404 186,-128 311.424,-108.485 458.202,-96.782 548.127,-90.8621"/>
<polygon fill="midnightblue" stroke="midnightblue" points="548.514,-94.3444 558.266,-90.2033 548.06,-87.3591 548.514,-94.3444"/>
</g>
<!-- Node11 -->
<g id="node24" class="node"><title>Node11</title>
<a xlink:href="classforcebalance_1_1Mol2_1_1mol2.html#a981c9a485d4db6abbcb61b8188090078" target="_top" xlink:title="number of sets (integer) ">
<polygon fill="white" stroke="black" points="186.5,-25 186.5,-55 335.5,-55 335.5,-25 186.5,-25"/>
<text text-anchor="start" x="194.5" y="-43" font-family="Ubuntu-R" font-size="10.00">forcebalance.Mol2.mol2.set</text>
<text text-anchor="middle" x="261" y="-32" font-family="Ubuntu-R" font-size="10.00">_num_sets</text>
</a>
</g>
<!-- Node1&#45;&gt;Node11 -->
<g id="edge26" class="edge"><title>Node1&#45;&gt;Node11</title>
<path fill="none" stroke="midnightblue" d="M100.815,-136.895C133.28,-117.134 190.286,-82.4348 226.542,-60.3658"/>
<polygon fill="midnightblue" stroke="midnightblue" points="228.563,-63.2332 235.285,-55.0439 224.923,-57.2538 228.563,-63.2332"/>
</g>
<!-- Node2&#45;&gt;Node1 -->
<g id="edge4" class="edge"><title>Node2&#45;&gt;Node1</title>
<path fill="none" stroke="midnightblue" d="M186.49,-188.051C164.529,-182.498 141.102,-176.022 121.498,-170.033"/>
<polygon fill="midnightblue" stroke="midnightblue" points="122.502,-166.68 111.914,-167.045 120.419,-173.363 122.502,-166.68"/>
</g>
<!-- Node4 -->
<g id="node8" class="node"><title>Node4</title>
<a xlink:href="classforcebalance_1_1Mol2_1_1mol2.html#aaab9bc1afebb05a355c53db2a35740be" target="_top" xlink:title="bond identifier (integer, starting from 1) ">
<polygon fill="white" stroke="black" points="372.5,-137 372.5,-167 521.5,-167 521.5,-137 372.5,-137"/>
<text text-anchor="start" x="380.5" y="-155" font-family="Ubuntu-R" font-size="10.00">forcebalance.Mol2.mol2.set</text>
<text text-anchor="middle" x="447" y="-144" font-family="Ubuntu-R" font-size="10.00">_charge_type</text>
</a>
</g>
<!-- Node3&#45;&gt;Node4 -->
<g id="edge8" class="edge"><title>Node3&#45;&gt;Node4</title>
<path fill="none" stroke="midnightblue" d="M335.515,-152C344.315,-152 353.351,-152 362.281,-152"/>
<polygon fill="midnightblue" stroke="midnightblue" points="362.302,-155.5 372.302,-152 362.302,-148.5 362.302,-155.5"/>
</g>
<!-- Node4&#45;&gt;Node4 -->
<g id="edge10" class="edge"><title>Node4&#45;&gt;Node4</title>
<path fill="none" stroke="midnightblue" d="M414.305,-167.275C407.039,-176.406 417.938,-185 447,-185 464.256,-185 475.108,-181.97 479.557,-177.598"/>
<polygon fill="midnightblue" stroke="midnightblue" points="483.061,-177.321 479.695,-167.275 476.062,-177.228 483.061,-177.321"/>
</g>
<!-- Node6 -->
<g id="node13" class="node"><title>Node6</title>
<a xlink:href="classforcebalance_1_1Mol2_1_1mol2.html#a8d49f0024dfe625e1b43a244ec76f3b3" target="_top" xlink:title="Parse a series of text lines, and setup compound information. ">
<polygon fill="white" stroke="black" points="744.5,-76.5 744.5,-95.5 905.5,-95.5 905.5,-76.5 744.5,-76.5"/>
<text text-anchor="middle" x="825" y="-83.5" font-family="Ubuntu-R" font-size="10.00">forcebalance.Mol2.mol2.parse</text>
</a>
</g>
<!-- Node5&#45;&gt;Node6 -->
<g id="edge14" class="edge"><title>Node5&#45;&gt;Node6</title>
<path fill="none" stroke="midnightblue" d="M707.731,-86C716.447,-86 725.414,-86 734.319,-86"/>
<polygon fill="midnightblue" stroke="midnightblue" points="734.33,-89.5001 744.33,-86 734.33,-82.5001 734.33,-89.5001"/>
</g>
<!-- Node7 -->
<g id="node15" class="node"><title>Node7</title>
<a xlink:href="classforcebalance_1_1Mol2_1_1mol2.html#af5a261aefed1c65fd5f56b5b30e69995" target="_top" xlink:title="return the atom instance given its atom identifier ">
<polygon fill="white" stroke="black" points="942,-114.5 942,-133.5 1122,-133.5 1122,-114.5 942,-114.5"/>
<text text-anchor="middle" x="1032" y="-121.5" font-family="Ubuntu-R" font-size="10.00">forcebalance.Mol2.mol2.get_atom</text>
</a>
</g>
<!-- Node6&#45;&gt;Node7 -->
<g id="edge16" class="edge"><title>Node6&#45;&gt;Node7</title>
<path fill="none" stroke="midnightblue" d="M877.466,-95.54C905.368,-100.712 940.045,-107.14 969.38,-112.578"/>
<polygon fill="midnightblue" stroke="midnightblue" points="969.043,-116.075 979.513,-114.456 970.319,-109.192 969.043,-116.075"/>
</g>
<!-- Node8 -->
<g id="node17" class="node"><title>Node8</title>
<a xlink:href="classforcebalance_1_1Mol2_1_1mol2.html#a2d2b34613f2b72ad3a7fcdc94a3de994" target="_top" xlink:title="return a dictionnary of atom instances bonded to the atom, and their types ">
<polygon fill="white" stroke="black" points="1158.5,-92 1158.5,-122 1307.5,-122 1307.5,-92 1158.5,-92"/>
<text text-anchor="start" x="1166.5" y="-110" font-family="Ubuntu-R" font-size="10.00">forcebalance.Mol2.mol2.get</text>
<text text-anchor="middle" x="1233" y="-99" font-family="Ubuntu-R" font-size="10.00">_bonded_atoms</text>
</a>
</g>
<!-- Node6&#45;&gt;Node8 -->
<g id="edge20" class="edge"><title>Node6&#45;&gt;Node8</title>
<path fill="none" stroke="midnightblue" d="M905.728,-90.1239C975.613,-93.7386 1076.87,-98.9758 1147.99,-102.655"/>
<polygon fill="midnightblue" stroke="midnightblue" points="1148.1,-106.165 1158.26,-103.186 1148.46,-99.174 1148.1,-106.165"/>
</g>
<!-- Node9 -->
<g id="node20" class="node"><title>Node9</title>
<a xlink:href="classforcebalance_1_1Mol2_1_1mol2.html#aa5a8b41dee69923e1854b0385ba588a4" target="_top" xlink:title="modify atom types to specify donnor, acceptor, or both ">
<polygon fill="white" stroke="black" points="957.5,-27 957.5,-57 1106.5,-57 1106.5,-27 957.5,-27"/>
<text text-anchor="start" x="965.5" y="-45" font-family="Ubuntu-R" font-size="10.00">forcebalance.Mol2.mol2.set</text>
<text text-anchor="middle" x="1032" y="-34" font-family="Ubuntu-R" font-size="10.00">_donnor_acceptor_atoms</text>
</a>
</g>
<!-- Node6&#45;&gt;Node9 -->
<g id="edge22" class="edge"><title>Node6&#45;&gt;Node9</title>
<path fill="none" stroke="midnightblue" d="M870.482,-76.4527C893.975,-71.4103 923.53,-65.0666 950.857,-59.2013"/>
<polygon fill="midnightblue" stroke="midnightblue" points="951.766,-62.5861 960.809,-57.0654 950.297,-55.7419 951.766,-62.5861"/>
</g>
<!-- Node7&#45;&gt;Node8 -->
<g id="edge18" class="edge"><title>Node7&#45;&gt;Node8</title>
<path fill="none" stroke="midnightblue" d="M1122.02,-116.395C1130.73,-115.652 1139.54,-114.899 1148.18,-114.16"/>
<polygon fill="midnightblue" stroke="midnightblue" points="1148.58,-117.639 1158.25,-113.301 1147.98,-110.665 1148.58,-117.639"/>
</g>
<!-- Node10 -->
<g id="node22" class="node"><title>Node10</title>
<a xlink:href="classforcebalance_1_1Mol2_1_1mol2.html#ad2182f9984dda90dfbd036d70921d5d8" target="_top" xlink:title="forcebalance.Mol2.mol2.\l__init__">
<polygon fill="white" stroke="black" points="1166,-27 1166,-57 1300,-57 1300,-27 1166,-27"/>
<text text-anchor="start" x="1174" y="-45" font-family="Ubuntu-R" font-size="10.00">forcebalance.Mol2.mol2.</text>
<text text-anchor="middle" x="1233" y="-34" font-family="Ubuntu-R" font-size="10.00">__init__</text>
</a>
</g>
<!-- Node9&#45;&gt;Node10 -->
<g id="edge24" class="edge"><title>Node9&#45;&gt;Node10</title>
<path fill="none" stroke="midnightblue" d="M1106.53,-42C1122.52,-42 1139.47,-42 1155.56,-42"/>
<polygon fill="midnightblue" stroke="midnightblue" points="1156,-45.5001 1166,-42 1155.99,-38.5001 1156,-45.5001"/>
</g>
<!-- Node12 -->
<g id="node26" class="node"><title>Node12</title>
<a xlink:href="classforcebalance_1_1Mol2_1_1mol2.html#a4055fdaf7ab9a93d60577a8ce4d91ce1" target="_top" xlink:title="bond identifier (integer, starting from 1) ">
<polygon fill="white" stroke="black" points="372.5,-49 372.5,-79 521.5,-79 521.5,-49 372.5,-49"/>
<text text-anchor="start" x="380.5" y="-67" font-family="Ubuntu-R" font-size="10.00">forcebalance.Mol2.mol2.set</text>
<text text-anchor="middle" x="447" y="-56" font-family="Ubuntu-R" font-size="10.00">_mol_name</text>
</a>
</g>
<!-- Node11&#45;&gt;Node12 -->
<g id="edge28" class="edge"><title>Node11&#45;&gt;Node12</title>
<path fill="none" stroke="midnightblue" d="M335.515,-49.5889C344.315,-50.7368 353.351,-51.9153 362.281,-53.0802"/>
<polygon fill="midnightblue" stroke="midnightblue" points="361.933,-56.5643 372.302,-54.3872 362.838,-49.6231 361.933,-56.5643"/>
</g>
<!-- Node13 -->
<g id="node29" class="node"><title>Node13</title>
<a xlink:href="classforcebalance_1_1Mol2_1_1mol2.html#a9aa06696da4a8e209bf5fca3acdf790b" target="_top" xlink:title="number of atoms (integer) ">
<polygon fill="white" stroke="black" points="372.5,-0 372.5,-30 521.5,-30 521.5,-0 372.5,-0"/>
<text text-anchor="start" x="380.5" y="-18" font-family="Ubuntu-R" font-size="10.00">forcebalance.Mol2.mol2.set</text>
<text text-anchor="middle" x="447" y="-7" font-family="Ubuntu-R" font-size="10.00">_num_atoms</text>
</a>
</g>
<!-- Node11&#45;&gt;Node13 -->
<g id="edge32" class="edge"><title>Node11&#45;&gt;Node13</title>
<path fill="none" stroke="midnightblue" d="M325.065,-24.9873C337.05,-23.0975 349.764,-21.2762 362.272,-19.6503"/>
<polygon fill="midnightblue" stroke="midnightblue" points="362.76,-23.1167 372.242,-18.3908 361.882,-16.1719 362.76,-23.1167"/>
</g>
<!-- Node12&#45;&gt;Node5 -->
<g id="edge30" class="edge"><title>Node12&#45;&gt;Node5</title>
<path fill="none" stroke="midnightblue" d="M521.515,-72.7898C530.315,-73.842 539.351,-74.9224 548.281,-75.9902"/>
<polygon fill="midnightblue" stroke="midnightblue" points="547.957,-79.4762 558.302,-77.1882 548.788,-72.5257 547.957,-79.4762"/>
</g>
<!-- Node13&#45;&gt;Node11 -->
<g id="edge34" class="edge"><title>Node13&#45;&gt;Node11</title>
<path fill="none" stroke="midnightblue" d="M382.976,-30.0063C370.92,-31.9077 358.125,-33.74 345.542,-35.3738"/>
<polygon fill="midnightblue" stroke="midnightblue" points="344.998,-31.9146 335.515,-36.639 345.874,-38.8595 344.998,-31.9146"/>
</g>
</g>
</svg>
