<?xml version="1.0" encoding="UTF-8" standalone="no"?>
<!DOCTYPE svg PUBLIC "-//W3C//DTD SVG 1.1//EN"
 "http://www.w3.org/Graphics/SVG/1.1/DTD/svg11.dtd">
<!-- Generated by graphviz version 2.26.3 (20100126.1600)
 -->
<!-- Title: forcebalance.liquid.Liquid.submit_jobs Pages: 1 -->
<svg width="2180pt" height="703pt"
 viewBox="0.00 0.00 2180.00 703.00" xmlns="http://www.w3.org/2000/svg" xmlns:xlink="http://www.w3.org/1999/xlink">
<g id="graph1" class="graph" transform="scale(1 1) rotate(0) translate(4 699)">
<title>forcebalance.liquid.Liquid.submit_jobs</title>
<polygon fill="white" stroke="white" points="-4,5 -4,-699 2177,-699 2177,5 -4,5"/>
<!-- Node1 -->
<g id="node1" class="node"><title>Node1</title>
<polygon fill="#bfbfbf" stroke="black" points="0.5,-458.5 0.5,-479.5 197.5,-479.5 197.5,-458.5 0.5,-458.5"/>
<text text-anchor="middle" x="99" y="-466.5" font-family="Ubuntu-R" font-size="10.00">forcebalance.liquid.Liquid.submit_jobs</text>
</g>
<!-- Node2 -->
<g id="node3" class="node"><title>Node2</title>
<a xlink:href="namespaceforcebalance_1_1nifty.html#a2ff762a2f2d2b6bb1c7dd067bd1a1e88" target="_top" xlink:title="Use this instead of pickle.dump for pickling anything that contains _ElementTree types.">
<polygon fill="white" stroke="black" points="245,-632.5 245,-653.5 389,-653.5 389,-632.5 245,-632.5"/>
<text text-anchor="middle" x="317" y="-640.5" font-family="Ubuntu-R" font-size="10.00">forcebalance.nifty.lp_dump</text>
</a>
</g>
<!-- Node1&#45;&gt;Node2 -->
<g id="edge2" class="edge"><title>Node1&#45;&gt;Node2</title>
<path fill="none" stroke="midnightblue" d="M106.264,-479.537C124.696,-505.55 175.964,-573.493 234,-612 244.314,-618.843 256.345,-624.447 267.994,-628.915"/>
<polygon fill="midnightblue" stroke="midnightblue" points="267.049,-632.295 277.643,-632.403 269.428,-625.712 267.049,-632.295"/>
</g>
<!-- Node4 -->
<g id="node7" class="node"><title>Node4</title>
<a xlink:href="namespaceforcebalance_1_1optimizer.html#ae1f6c649703a22b2f767a5f6bf53297b" target="_top" xlink:title="forcebalance.optimizer.Counter">
<polygon fill="white" stroke="black" points="234,-581.5 234,-602.5 400,-602.5 400,-581.5 234,-581.5"/>
<text text-anchor="middle" x="317" y="-589.5" font-family="Ubuntu-R" font-size="10.00">forcebalance.optimizer.Counter</text>
</a>
</g>
<!-- Node1&#45;&gt;Node4 -->
<g id="edge6" class="edge"><title>Node1&#45;&gt;Node4</title>
<path fill="none" stroke="midnightblue" d="M113.895,-479.753C138.264,-497.078 188.507,-531.685 234,-556 248.772,-563.895 265.64,-571.46 280.294,-577.599"/>
<polygon fill="midnightblue" stroke="midnightblue" points="278.98,-580.843 289.56,-581.417 281.647,-574.371 278.98,-580.843"/>
</g>
<!-- Node6 -->
<g id="node11" class="node"><title>Node6</title>
<a xlink:href="namespaceforcebalance_1_1nifty.html#abb8f59044961a12588e0653c2baa8b01" target="_top" xlink:title="forcebalance.nifty.warn\l_press_key">
<polygon fill="white" stroke="black" points="1807.5,-339 1807.5,-373 1932.5,-373 1932.5,-339 1807.5,-339"/>
<text text-anchor="start" x="1815.5" y="-360" font-family="Ubuntu-R" font-size="10.00">forcebalance.nifty.warn</text>
<text text-anchor="middle" x="1870" y="-347" font-family="Ubuntu-R" font-size="10.00">_press_key</text>
</a>
</g>
<!-- Node1&#45;&gt;Node6 -->
<g id="edge10" class="edge"><title>Node1&#45;&gt;Node6</title>
<path fill="none" stroke="midnightblue" d="M148.118,-458.479C229.422,-442.009 397.282,-412 541,-412 541,-412 541,-412 1486,-412 1595.29,-412 1720.26,-389.515 1797.16,-373.04"/>
<polygon fill="midnightblue" stroke="midnightblue" points="1798.18,-376.398 1807.22,-370.86 1796.7,-369.557 1798.18,-376.398"/>
</g>
<!-- Node8 -->
<g id="node15" class="node"><title>Node8</title>
<a xlink:href="classforcebalance_1_1openmmio_1_1Liquid__OpenMM.html#ad6a30e41f4c0bc319d7ffbbb09cfcf5d" target="_top" xlink:title="Submit a NPT simulation to the Work Queue.">
<polygon fill="white" stroke="black" points="235.5,-452 235.5,-486 398.5,-486 398.5,-452 235.5,-452"/>
<text text-anchor="start" x="243.5" y="-473" font-family="Ubuntu-R" font-size="10.00">forcebalance.openmmio.Liquid</text>
<text text-anchor="middle" x="317" y="-460" font-family="Ubuntu-R" font-size="10.00">_OpenMM.npt_simulation</text>
</a>
</g>
<!-- Node1&#45;&gt;Node8 -->
<g id="edge14" class="edge"><title>Node1&#45;&gt;Node8</title>
<path fill="none" stroke="midnightblue" d="M197.795,-469C206.88,-469 216.061,-469 225.082,-469"/>
<polygon fill="midnightblue" stroke="midnightblue" points="225.185,-472.5 235.185,-469 225.185,-465.5 225.185,-472.5"/>
</g>
<!-- Node20 -->
<g id="node40" class="node"><title>Node20</title>
<a xlink:href="classforcebalance_1_1tinkerio_1_1Liquid__TINKER.html#a53a10ac99cdfbf026526ed625d4de809" target="_top" xlink:title="Submit a NPT simulation to the Work Queue.">
<polygon fill="white" stroke="black" points="244,-513 244,-547 390,-547 390,-513 244,-513"/>
<text text-anchor="start" x="252" y="-534" font-family="Ubuntu-R" font-size="10.00">forcebalance.tinkerio.Liquid</text>
<text text-anchor="middle" x="317" y="-521" font-family="Ubuntu-R" font-size="10.00">_TINKER.npt_simulation</text>
</a>
</g>
<!-- Node1&#45;&gt;Node20 -->
<g id="edge40" class="edge"><title>Node1&#45;&gt;Node20</title>
<path fill="none" stroke="midnightblue" d="M136.973,-479.625C166.968,-488.018 209.673,-499.968 245.963,-510.123"/>
<polygon fill="midnightblue" stroke="midnightblue" points="245.439,-513.61 256.012,-512.935 247.325,-506.869 245.439,-513.61"/>
</g>
<!-- Node22 -->
<g id="node47" class="node"><title>Node22</title>
<a xlink:href="classforcebalance_1_1liquid_1_1Liquid.html#a802c4139e5c002fabdeab5de88093880" target="_top" xlink:title="Fitting of liquid bulk properties.">
<polygon fill="white" stroke="black" points="239.5,-202.5 239.5,-223.5 394.5,-223.5 394.5,-202.5 239.5,-202.5"/>
<text text-anchor="middle" x="317" y="-210.5" font-family="Ubuntu-R" font-size="10.00">forcebalance.liquid.Liquid.get</text>
</a>
</g>
<!-- Node1&#45;&gt;Node22 -->
<g id="edge50" class="edge"><title>Node1&#45;&gt;Node22</title>
<path fill="none" stroke="midnightblue" d="M108.09,-458.326C141.607,-418.966 258.539,-281.652 301.237,-231.511"/>
<polygon fill="midnightblue" stroke="midnightblue" points="304.053,-233.602 307.872,-223.72 298.723,-229.064 304.053,-233.602"/>
</g>
<!-- Node3 -->
<g id="node5" class="node"><title>Node3</title>
<a xlink:href="namespaceforcebalance_1_1nifty.html#ac37d4fe58ef70ed546ebfc45d12f7a5d" target="_top" xlink:title="forcebalance.nifty.getWork\lQueue">
<polygon fill="white" stroke="black" points="470.5,-661 470.5,-695 611.5,-695 611.5,-661 470.5,-661"/>
<text text-anchor="start" x="478.5" y="-682" font-family="Ubuntu-R" font-size="10.00">forcebalance.nifty.getWork</text>
<text text-anchor="middle" x="541" y="-669" font-family="Ubuntu-R" font-size="10.00">Queue</text>
</a>
</g>
<!-- Node2&#45;&gt;Node3 -->
<g id="edge4" class="edge"><title>Node2&#45;&gt;Node3</title>
<path fill="none" stroke="midnightblue" d="M384.207,-653.501C408.106,-657.235 435.262,-661.478 460.181,-665.372"/>
<polygon fill="midnightblue" stroke="midnightblue" points="459.918,-668.873 470.339,-666.959 460.999,-661.957 459.918,-668.873"/>
</g>
<!-- Node5 -->
<g id="node9" class="node"><title>Node5</title>
<a xlink:href="namespaceforcebalance_1_1optimizer.html#ab43948ecf30c90d319e0c0b107fe484a" target="_top" xlink:title="forcebalance.optimizer.GoodStep">
<polygon fill="white" stroke="black" points="453,-621.5 453,-642.5 629,-642.5 629,-621.5 453,-621.5"/>
<text text-anchor="middle" x="541" y="-629.5" font-family="Ubuntu-R" font-size="10.00">forcebalance.optimizer.GoodStep</text>
</a>
</g>
<!-- Node4&#45;&gt;Node5 -->
<g id="edge8" class="edge"><title>Node4&#45;&gt;Node5</title>
<path fill="none" stroke="midnightblue" d="M375.853,-602.51C405.317,-607.771 441.17,-614.173 471.931,-619.666"/>
<polygon fill="midnightblue" stroke="midnightblue" points="471.692,-623.179 482.151,-621.491 472.922,-616.288 471.692,-623.179"/>
</g>
<!-- Node7 -->
<g id="node13" class="node"><title>Node7</title>
<a xlink:href="namespaceforcebalance_1_1nifty.html#a2fc81730e7efa7d138dd86f733507bfc" target="_top" xlink:title="Similar to the bultin function map().">
<polygon fill="white" stroke="black" points="1990.5,-345.5 1990.5,-366.5 2171.5,-366.5 2171.5,-345.5 1990.5,-345.5"/>
<text text-anchor="middle" x="2081" y="-353.5" font-family="Ubuntu-R" font-size="10.00">forcebalance.nifty.concurrent_map</text>
</a>
</g>
<!-- Node6&#45;&gt;Node7 -->
<g id="edge12" class="edge"><title>Node6&#45;&gt;Node7</title>
<path fill="none" stroke="midnightblue" d="M1932.74,-356C1947.72,-356 1964.1,-356 1980.32,-356"/>
<polygon fill="midnightblue" stroke="midnightblue" points="1980.39,-359.5 1990.39,-356 1980.39,-352.5 1980.39,-359.5"/>
</g>
<!-- Node9 -->
<g id="node17" class="node"><title>Node9</title>
<a xlink:href="namespaceforcebalance_1_1nifty.html#a673f4a044169f5d8d822823989a836a7" target="_top" xlink:title="Submit a job to the Work Queue.">
<polygon fill="white" stroke="black" points="466,-514.5 466,-535.5 616,-535.5 616,-514.5 466,-514.5"/>
<text text-anchor="middle" x="541" y="-522.5" font-family="Ubuntu-R" font-size="10.00">forcebalance.nifty.queue_up</text>
</a>
</g>
<!-- Node8&#45;&gt;Node9 -->
<g id="edge16" class="edge"><title>Node8&#45;&gt;Node9</title>
<path fill="none" stroke="midnightblue" d="M385.12,-486.03C418.57,-494.392 458.222,-504.305 489.163,-512.041"/>
<polygon fill="midnightblue" stroke="midnightblue" points="488.333,-515.441 498.884,-514.471 490.031,-508.65 488.333,-515.441"/>
</g>
<!-- Node18 -->
<g id="node36" class="node"><title>Node18</title>
<a xlink:href="classforcebalance_1_1openmmio_1_1Liquid__OpenMM.html#a92379bd73128234b309fae789946035d" target="_top" xlink:title="forcebalance.openmmio.Liquid\l_OpenMM.__init__">
<polygon fill="white" stroke="black" points="459.5,-450 459.5,-484 622.5,-484 622.5,-450 459.5,-450"/>
<text text-anchor="start" x="467.5" y="-471" font-family="Ubuntu-R" font-size="10.00">forcebalance.openmmio.Liquid</text>
<text text-anchor="middle" x="541" y="-458" font-family="Ubuntu-R" font-size="10.00">_OpenMM.__init__</text>
</a>
</g>
<!-- Node8&#45;&gt;Node18 -->
<g id="edge36" class="edge"><title>Node8&#45;&gt;Node18</title>
<path fill="none" stroke="midnightblue" d="M398.503,-468.272C414.87,-468.126 432.178,-467.972 448.878,-467.823"/>
<polygon fill="midnightblue" stroke="midnightblue" points="449.214,-471.32 459.182,-467.731 449.152,-464.32 449.214,-471.32"/>
</g>
<!-- Node10 -->
<g id="node19" class="node"><title>Node10</title>
<a xlink:href="namespaceforcebalance_1_1nifty.html#a5d5abeb4a185fde64721d044831e18ee" target="_top" xlink:title="Submit a job to the Work Queue.">
<polygon fill="white" stroke="black" points="695,-546 695,-580 827,-580 827,-546 695,-546"/>
<text text-anchor="start" x="703" y="-567" font-family="Ubuntu-R" font-size="10.00">forcebalance.nifty.queue</text>
<text text-anchor="middle" x="761" y="-554" font-family="Ubuntu-R" font-size="10.00">_up_src_dest</text>
</a>
</g>
<!-- Node9&#45;&gt;Node10 -->
<g id="edge18" class="edge"><title>Node9&#45;&gt;Node10</title>
<path fill="none" stroke="midnightblue" d="M601.99,-535.535C627.586,-539.956 657.633,-545.146 684.674,-549.816"/>
<polygon fill="midnightblue" stroke="midnightblue" points="684.426,-553.325 694.876,-551.579 685.617,-546.427 684.426,-553.325"/>
</g>
<!-- Node11 -->
<g id="node21" class="node"><title>Node11</title>
<a xlink:href="namespaceforcebalance_1_1nifty.html#a374aac2ef003be02fab49b20ff0a82f0" target="_top" xlink:title="This function waits ten seconds to see if a task in the Work Queue has finished.">
<polygon fill="white" stroke="black" points="703.5,-494 703.5,-528 818.5,-528 818.5,-494 703.5,-494"/>
<text text-anchor="start" x="711.5" y="-515" font-family="Ubuntu-R" font-size="10.00">forcebalance.nifty.wq</text>
<text text-anchor="middle" x="761" y="-502" font-family="Ubuntu-R" font-size="10.00">_wait1</text>
</a>
</g>
<!-- Node9&#45;&gt;Node11 -->
<g id="edge20" class="edge"><title>Node9&#45;&gt;Node11</title>
<path fill="none" stroke="midnightblue" d="M616.096,-520.221C641.038,-518.634 668.651,-516.877 693.025,-515.326"/>
<polygon fill="midnightblue" stroke="midnightblue" points="693.497,-518.803 703.255,-514.675 693.053,-511.817 693.497,-518.803"/>
</g>
<!-- Node12 -->
<g id="node23" class="node"><title>Node12</title>
<a xlink:href="namespaceforcebalance_1_1nifty.html#a576de8c5b6f236280e07e73e39b2ab7c" target="_top" xlink:title="This function waits until the work queue is completely empty.">
<polygon fill="white" stroke="black" points="876.5,-478.5 876.5,-499.5 1015.5,-499.5 1015.5,-478.5 876.5,-478.5"/>
<text text-anchor="middle" x="946" y="-486.5" font-family="Ubuntu-R" font-size="10.00">forcebalance.nifty.wq_wait</text>
</a>
</g>
<!-- Node11&#45;&gt;Node12 -->
<g id="edge22" class="edge"><title>Node11&#45;&gt;Node12</title>
<path fill="none" stroke="midnightblue" d="M818.521,-504.16C833.717,-502.353 850.39,-500.37 866.524,-498.451"/>
<polygon fill="midnightblue" stroke="midnightblue" points="866.965,-501.924 876.482,-497.267 866.138,-494.973 866.965,-501.924"/>
</g>
<!-- Node13 -->
<g id="node25" class="node"><title>Node13</title>
<a xlink:href="namespaceforcebalance_1_1nifty.html#ac9ab6c5543a2e3080061e0024850edf3" target="_top" xlink:title="forcebalance.nifty.allsplit">
<polygon fill="white" stroke="black" points="1060,-462.5 1060,-483.5 1192,-483.5 1192,-462.5 1060,-462.5"/>
<text text-anchor="middle" x="1126" y="-470.5" font-family="Ubuntu-R" font-size="10.00">forcebalance.nifty.allsplit</text>
</a>
</g>
<!-- Node11&#45;&gt;Node13 -->
<g id="edge32" class="edge"><title>Node11&#45;&gt;Node13</title>
<path fill="none" stroke="midnightblue" d="M815.225,-493.952C823.571,-491.099 832.052,-488.065 840,-485 856.336,-478.7 858.872,-472.635 876,-469 933.404,-456.818 999.896,-458.617 1049.87,-463.029"/>
<polygon fill="midnightblue" stroke="midnightblue" points="1049.67,-466.526 1059.96,-463.974 1050.33,-459.556 1049.67,-466.526"/>
</g>
<!-- Node16 -->
<g id="node31" class="node"><title>Node16</title>
<a xlink:href="namespaceforcebalance_1_1nifty.html#ad432b88307e1178b0690c0d350b1af36" target="_top" xlink:title="forcebalance.nifty.GoInto">
<polygon fill="white" stroke="black" points="879,-558.5 879,-579.5 1013,-579.5 1013,-558.5 879,-558.5"/>
<text text-anchor="middle" x="946" y="-566.5" font-family="Ubuntu-R" font-size="10.00">forcebalance.nifty.GoInto</text>
</a>
</g>
<!-- Node11&#45;&gt;Node16 -->
<g id="edge30" class="edge"><title>Node11&#45;&gt;Node16</title>
<path fill="none" stroke="midnightblue" d="M812.853,-528.034C821.904,-531.017 831.228,-534.094 840,-537 856.01,-542.303 859.888,-544.016 876,-549 883.136,-551.208 890.708,-553.462 898.135,-555.624"/>
<polygon fill="midnightblue" stroke="midnightblue" points="897.186,-558.993 907.765,-558.401 899.126,-552.267 897.186,-558.993"/>
</g>
<!-- Node17 -->
<g id="node34" class="node"><title>Node17</title>
<a xlink:href="namespaceforcebalance_1_1nifty.html#ab04e8690d099db2379dc860e0d040120" target="_top" xlink:title="forcebalance.nifty.Leave">
<polygon fill="white" stroke="black" points="880.5,-518.5 880.5,-539.5 1011.5,-539.5 1011.5,-518.5 880.5,-518.5"/>
<text text-anchor="middle" x="946" y="-526.5" font-family="Ubuntu-R" font-size="10.00">forcebalance.nifty.Leave</text>
</a>
</g>
<!-- Node11&#45;&gt;Node17 -->
<g id="edge34" class="edge"><title>Node11&#45;&gt;Node17</title>
<path fill="none" stroke="midnightblue" d="M818.521,-516.597C834.924,-518.193 853.049,-519.956 870.358,-521.64"/>
<polygon fill="midnightblue" stroke="midnightblue" points="870.144,-525.136 880.436,-522.621 870.822,-518.169 870.144,-525.136"/>
</g>
<!-- Node12&#45;&gt;Node13 -->
<g id="edge24" class="edge"><title>Node12&#45;&gt;Node13</title>
<path fill="none" stroke="midnightblue" d="M1015.59,-482.814C1026.73,-481.824 1038.3,-480.795 1049.58,-479.793"/>
<polygon fill="midnightblue" stroke="midnightblue" points="1050.19,-483.252 1059.84,-478.881 1049.57,-476.28 1050.19,-483.252"/>
</g>
<!-- Node14 -->
<g id="node27" class="node"><title>Node14</title>
<a xlink:href="namespaceforcebalance_1_1nifty.html#ae87c7def5f8edf2ec30737bdb1d2636f" target="_top" xlink:title="forcebalance.nifty.Missing\lFileInspection">
<polygon fill="white" stroke="black" points="1236,-456 1236,-490 1374,-490 1374,-456 1236,-456"/>
<text text-anchor="start" x="1244" y="-477" font-family="Ubuntu-R" font-size="10.00">forcebalance.nifty.Missing</text>
<text text-anchor="middle" x="1305" y="-464" font-family="Ubuntu-R" font-size="10.00">FileInspection</text>
</a>
</g>
<!-- Node13&#45;&gt;Node14 -->
<g id="edge26" class="edge"><title>Node13&#45;&gt;Node14</title>
<path fill="none" stroke="midnightblue" d="M1192.14,-473C1203.05,-473 1214.45,-473 1225.64,-473"/>
<polygon fill="midnightblue" stroke="midnightblue" points="1225.83,-476.5 1235.83,-473 1225.83,-469.5 1225.83,-476.5"/>
</g>
<!-- Node15 -->
<g id="node29" class="node"><title>Node15</title>
<a xlink:href="namespaceforcebalance_1_1nifty.html#a0cf4e58f90acf20e3d6224be2354082c" target="_top" xlink:title="forcebalance.nifty.link\l_dir_contents">
<polygon fill="white" stroke="black" points="1427,-456 1427,-490 1545,-490 1545,-456 1427,-456"/>
<text text-anchor="start" x="1435" y="-477" font-family="Ubuntu-R" font-size="10.00">forcebalance.nifty.link</text>
<text text-anchor="middle" x="1486" y="-464" font-family="Ubuntu-R" font-size="10.00">_dir_contents</text>
</a>
</g>
<!-- Node14&#45;&gt;Node15 -->
<g id="edge28" class="edge"><title>Node14&#45;&gt;Node15</title>
<path fill="none" stroke="midnightblue" d="M1374.2,-473C1388.18,-473 1402.87,-473 1416.84,-473"/>
<polygon fill="midnightblue" stroke="midnightblue" points="1416.87,-476.5 1426.87,-473 1416.87,-469.5 1416.87,-476.5"/>
</g>
<!-- Node19 -->
<g id="node38" class="node"><title>Node19</title>
<a xlink:href="classforcebalance_1_1baseclass_1_1ForceBalanceBaseClass.html#abaaf4d99b043d41f02fabc41db59252b" target="_top" xlink:title="forcebalance.baseclass.Force\lBalanceBaseClass.set_option">
<polygon fill="white" stroke="black" points="682,-442 682,-476 840,-476 840,-442 682,-442"/>
<text text-anchor="start" x="690" y="-463" font-family="Ubuntu-R" font-size="10.00">forcebalance.baseclass.Force</text>
<text text-anchor="middle" x="761" y="-450" font-family="Ubuntu-R" font-size="10.00">BalanceBaseClass.set_option</text>
</a>
</g>
<!-- Node18&#45;&gt;Node19 -->
<g id="edge38" class="edge"><title>Node18&#45;&gt;Node19</title>
<path fill="none" stroke="midnightblue" d="M622.607,-464.032C638.607,-463.451 655.468,-462.838 671.704,-462.247"/>
<polygon fill="midnightblue" stroke="midnightblue" points="671.853,-465.744 681.719,-461.883 671.599,-458.749 671.853,-465.744"/>
</g>
<!-- Node20&#45;&gt;Node5 -->
<g id="edge42" class="edge"><title>Node20&#45;&gt;Node5</title>
<path fill="none" stroke="midnightblue" d="M356.835,-547.125C371.004,-553.988 386.724,-562.524 400,-572 418.163,-584.964 416.444,-596.252 436,-607 444.41,-611.622 453.657,-615.395 463.07,-618.474"/>
<polygon fill="midnightblue" stroke="midnightblue" points="462.326,-621.906 472.91,-621.438 464.345,-615.203 462.326,-621.906"/>
</g>
<!-- Node20&#45;&gt;Node9 -->
<g id="edge44" class="edge"><title>Node20&#45;&gt;Node9</title>
<path fill="none" stroke="midnightblue" d="M390.036,-528.37C410.977,-527.902 433.994,-527.389 455.608,-526.906"/>
<polygon fill="midnightblue" stroke="midnightblue" points="455.838,-530.402 465.758,-526.68 455.682,-523.404 455.838,-530.402"/>
</g>
<!-- Node21 -->
<g id="node44" class="node"><title>Node21</title>
<a xlink:href="classforcebalance_1_1tinkerio_1_1Liquid__TINKER.html#a307529b9902b34a790a8b016e153c7d6" target="_top" xlink:title="forcebalance.tinkerio.Liquid\l_TINKER.__init__">
<polygon fill="white" stroke="black" points="1053,-554 1053,-588 1199,-588 1199,-554 1053,-554"/>
<text text-anchor="start" x="1061" y="-575" font-family="Ubuntu-R" font-size="10.00">forcebalance.tinkerio.Liquid</text>
<text text-anchor="middle" x="1126" y="-562" font-family="Ubuntu-R" font-size="10.00">_TINKER.__init__</text>
</a>
</g>
<!-- Node20&#45;&gt;Node21 -->
<g id="edge46" class="edge"><title>Node20&#45;&gt;Node21</title>
<path fill="none" stroke="midnightblue" d="M390.333,-545.405C463.737,-559.984 580.104,-580.818 682,-589 829.968,-600.882 868.043,-601.026 1016,-589 1024.69,-588.294 1033.73,-587.279 1042.72,-586.086"/>
<polygon fill="midnightblue" stroke="midnightblue" points="1043.42,-589.522 1052.83,-584.67 1042.44,-582.59 1043.42,-589.522"/>
</g>
<!-- Node21&#45;&gt;Node6 -->
<g id="edge48" class="edge"><title>Node21&#45;&gt;Node6</title>
<path fill="none" stroke="midnightblue" d="M1199.12,-563.603C1286.54,-553.691 1436.75,-533.261 1562,-499 1648.46,-475.35 1669.26,-464.925 1750,-426 1779.48,-411.79 1811.41,-392.982 1834.92,-378.44"/>
<polygon fill="midnightblue" stroke="midnightblue" points="1836.86,-381.354 1843.5,-373.094 1833.16,-375.414 1836.86,-381.354"/>
</g>
<!-- Node23 -->
<g id="node49" class="node"><title>Node23</title>
<a xlink:href="namespaceforcebalance_1_1nifty.html#a577abfd36638c5f4dfdade136abaef12" target="_top" xlink:title="Use this instead of pickle.load for unpickling anything that contains _ElementTree types...">
<polygon fill="white" stroke="black" points="473,-102.5 473,-123.5 609,-123.5 609,-102.5 473,-102.5"/>
<text text-anchor="middle" x="541" y="-110.5" font-family="Ubuntu-R" font-size="10.00">forcebalance.nifty.lp_load</text>
</a>
</g>
<!-- Node22&#45;&gt;Node23 -->
<g id="edge52" class="edge"><title>Node22&#45;&gt;Node23</title>
<path fill="none" stroke="midnightblue" d="M329.22,-202.276C349.76,-184.86 393.174,-150.606 436,-133 444.508,-129.502 453.658,-126.609 462.882,-124.218"/>
<polygon fill="midnightblue" stroke="midnightblue" points="463.987,-127.552 472.894,-121.815 462.353,-120.746 463.987,-127.552"/>
</g>
<!-- Node26 -->
<g id="node55" class="node"><title>Node26</title>
<a xlink:href="classforcebalance_1_1liquid_1_1Liquid.html#a51ea9d9fb4418ec2497fe8e2d8033d41" target="_top" xlink:title="Return the self&#45;polarization correction as described in Berendsen et al., JPC 1987.">
<polygon fill="white" stroke="black" points="443.5,-312 443.5,-346 638.5,-346 638.5,-312 443.5,-312"/>
<text text-anchor="start" x="451.5" y="-333" font-family="Ubuntu-R" font-size="10.00">forcebalance.liquid.Liquid.polarization</text>
<text text-anchor="middle" x="541" y="-320" font-family="Ubuntu-R" font-size="10.00">_correction</text>
</a>
</g>
<!-- Node22&#45;&gt;Node26 -->
<g id="edge58" class="edge"><title>Node22&#45;&gt;Node26</title>
<path fill="none" stroke="midnightblue" d="M327.793,-223.636C347.546,-242.498 391.58,-281.809 436,-303 440.116,-304.963 444.395,-306.788 448.77,-308.483"/>
<polygon fill="midnightblue" stroke="midnightblue" points="447.881,-311.883 458.475,-311.989 450.259,-305.3 447.881,-311.883"/>
</g>
<!-- Node27 -->
<g id="node57" class="node"><title>Node27</title>
<a xlink:href="namespaceforcebalance_1_1finite__difference.html#aa69a8819e4680091f400303c1d6ddeb7" target="_top" xlink:title="A three&#45;point finite difference stencil.">
<polygon fill="white" stroke="black" points="488.5,-260 488.5,-294 593.5,-294 593.5,-260 488.5,-260"/>
<text text-anchor="start" x="496.5" y="-281" font-family="Ubuntu-R" font-size="10.00">forcebalance.finite</text>
<text text-anchor="middle" x="541" y="-268" font-family="Ubuntu-R" font-size="10.00">_difference.f12d3p</text>
</a>
</g>
<!-- Node22&#45;&gt;Node27 -->
<g id="edge60" class="edge"><title>Node22&#45;&gt;Node27</title>
<path fill="none" stroke="midnightblue" d="M353.989,-223.568C387.854,-233.244 438.653,-247.758 478.763,-259.218"/>
<polygon fill="midnightblue" stroke="midnightblue" points="477.874,-262.604 488.451,-261.986 479.797,-255.873 477.874,-262.604"/>
</g>
<!-- Node29 -->
<g id="node61" class="node"><title>Node29</title>
<a xlink:href="namespaceforcebalance_1_1finite__difference.html#ae484c591ae8c4e5bae73a0ef2660c339" target="_top" xlink:title="A function wrapper for finite difference designed for differentiating &#39;get&#39;&#45;type functions.">
<polygon fill="white" stroke="black" points="709,-260 709,-294 813,-294 813,-260 709,-260"/>
<text text-anchor="start" x="717" y="-281" font-family="Ubuntu-R" font-size="10.00">forcebalance.finite</text>
<text text-anchor="middle" x="761" y="-268" font-family="Ubuntu-R" font-size="10.00">_difference.fdwrap</text>
</a>
</g>
<!-- Node22&#45;&gt;Node29 -->
<g id="edge72" class="edge"><title>Node22&#45;&gt;Node29</title>
<path fill="none" stroke="midnightblue" d="M394.776,-219.609C461.654,-225.858 560.552,-236.449 646,-251 663.29,-253.944 681.889,-257.83 698.983,-261.698"/>
<polygon fill="midnightblue" stroke="midnightblue" points="698.324,-265.137 708.853,-263.966 699.891,-258.315 698.324,-265.137"/>
</g>
<!-- Node32 -->
<g id="node69" class="node"><title>Node32</title>
<a xlink:href="namespaceforcebalance_1_1nifty.html#a11babd62dc7bca389162c6318f9672ca" target="_top" xlink:title="Cool&#45;looking printout for slick formatting of output.">
<polygon fill="white" stroke="black" points="469,-142.5 469,-163.5 613,-163.5 613,-142.5 469,-142.5"/>
<text text-anchor="middle" x="541" y="-150.5" font-family="Ubuntu-R" font-size="10.00">forcebalance.nifty.printcool</text>
</a>
</g>
<!-- Node22&#45;&gt;Node32 -->
<g id="edge74" class="edge"><title>Node22&#45;&gt;Node32</title>
<path fill="none" stroke="midnightblue" d="M345.045,-202.367C368.954,-193.595 404.374,-181.286 436,-173 446.377,-170.281 457.42,-167.771 468.301,-165.513"/>
<polygon fill="midnightblue" stroke="midnightblue" points="469.114,-168.919 478.224,-163.511 467.73,-162.058 469.114,-168.919"/>
</g>
<!-- Node40 -->
<g id="node87" class="node"><title>Node40</title>
<a xlink:href="namespaceforcebalance_1_1nifty.html#afb3f205bce4984856e766af7e9fdaca8" target="_top" xlink:title="Given any list, array, or matrix, return a 1&#45;column matrix.">
<polygon fill="white" stroke="black" points="1247,-276.5 1247,-297.5 1363,-297.5 1363,-276.5 1247,-276.5"/>
<text text-anchor="middle" x="1305" y="-284.5" font-family="Ubuntu-R" font-size="10.00">forcebalance.nifty.col</text>
</a>
</g>
<!-- Node22&#45;&gt;Node40 -->
<g id="edge114" class="edge"><title>Node22&#45;&gt;Node40</title>
<path fill="none" stroke="midnightblue" d="M321.779,-223.521C335.098,-251.378 375.666,-326.842 436,-355 552.796,-409.508 887.971,-369.859 1016,-355 1104.87,-344.685 1206.09,-317.096 1262.06,-300.4"/>
<polygon fill="midnightblue" stroke="midnightblue" points="1263.07,-303.75 1271.63,-297.516 1261.05,-297.048 1263.07,-303.75"/>
</g>
<!-- Node41 -->
<g id="node89" class="node"><title>Node41</title>
<a xlink:href="namespaceforcebalance_1_1nifty.html#a52114ceee9d55f94d9aecb3e176de294" target="_top" xlink:title="Given any list, array, or matrix, return a single&#45;index array.">
<polygon fill="white" stroke="black" points="1427.5,-250.5 1427.5,-271.5 1544.5,-271.5 1544.5,-250.5 1427.5,-250.5"/>
<text text-anchor="middle" x="1486" y="-258.5" font-family="Ubuntu-R" font-size="10.00">forcebalance.nifty.flat</text>
</a>
</g>
<!-- Node22&#45;&gt;Node41 -->
<g id="edge110" class="edge"><title>Node22&#45;&gt;Node41</title>
<path fill="none" stroke="midnightblue" d="M329.961,-202.417C346.815,-188.409 376.833,-162.602 400,-138 417.559,-119.354 413.695,-105.588 436,-93 562.891,-21.3884 615.297,-50 761,-50 761,-50 761,-50 1126,-50 1249.03,-50 1275.99,-98.6199 1374,-173 1393.05,-187.459 1391.72,-197.58 1410,-213 1424.52,-225.248 1442.42,-236.701 1457.2,-245.346"/>
<polygon fill="midnightblue" stroke="midnightblue" points="1455.52,-248.419 1465.94,-250.348 1459,-242.344 1455.52,-248.419"/>
</g>
<!-- Node44 -->
<g id="node100" class="node"><title>Node44</title>
<a xlink:href="namespaceforcebalance_1_1liquid.html#a6f7d54263236f8788c319aee86b460b6" target="_top" xlink:title="forcebalance.liquid.weight_info">
<polygon fill="white" stroke="black" points="460,-182.5 460,-203.5 622,-203.5 622,-182.5 460,-182.5"/>
<text text-anchor="middle" x="541" y="-190.5" font-family="Ubuntu-R" font-size="10.00">forcebalance.liquid.weight_info</text>
</a>
</g>
<!-- Node22&#45;&gt;Node44 -->
<g id="edge112" class="edge"><title>Node22&#45;&gt;Node44</title>
<path fill="none" stroke="midnightblue" d="M394.716,-206.061C412.521,-204.471 431.605,-202.767 449.916,-201.133"/>
<polygon fill="midnightblue" stroke="midnightblue" points="450.347,-204.608 459.996,-200.232 449.724,-197.636 450.347,-204.608"/>
</g>
<!-- Node45 -->
<g id="node103" class="node"><title>Node45</title>
<a xlink:href="classforcebalance_1_1liquid_1_1Liquid.html#a00c23db61bcb86cc19f79dacdb2bc1f3" target="_top" xlink:title="forcebalance.liquid.Liquid.objective_term">
<polygon fill="white" stroke="black" points="436,-0.5 436,-21.5 646,-21.5 646,-0.5 436,-0.5"/>
<text text-anchor="middle" x="541" y="-8.5" font-family="Ubuntu-R" font-size="10.00">forcebalance.liquid.Liquid.objective_term</text>
</a>
</g>
<!-- Node22&#45;&gt;Node45 -->
<g id="edge116" class="edge"><title>Node22&#45;&gt;Node45</title>
<path fill="none" stroke="midnightblue" d="M325.105,-202.346C340.342,-182.173 374.059,-136.845 400,-97 417.176,-70.6181 410.669,-54.691 436,-36 441.805,-31.7166 448.239,-28.1561 454.981,-25.1979"/>
<polygon fill="midnightblue" stroke="midnightblue" points="456.306,-28.4379 464.336,-21.5262 453.749,-21.9218 456.306,-28.4379"/>
</g>
<!-- Node24 -->
<g id="node51" class="node"><title>Node24</title>
<a xlink:href="namespaceforcebalance_1_1nifty.html#abe1e72c32252d62a6551b47290c7584f" target="_top" xlink:title="forcebalance.nifty.getWQIds">
<polygon fill="white" stroke="black" points="687.5,-78.5 687.5,-99.5 834.5,-99.5 834.5,-78.5 687.5,-78.5"/>
<text text-anchor="middle" x="761" y="-86.5" font-family="Ubuntu-R" font-size="10.00">forcebalance.nifty.getWQIds</text>
</a>
</g>
<!-- Node23&#45;&gt;Node24 -->
<g id="edge54" class="edge"><title>Node23&#45;&gt;Node24</title>
<path fill="none" stroke="midnightblue" d="M609.103,-105.571C630.661,-103.219 654.744,-100.592 677.267,-98.1345"/>
<polygon fill="midnightblue" stroke="midnightblue" points="677.929,-101.583 687.491,-97.0192 677.17,-94.6244 677.929,-101.583"/>
</g>
<!-- Node25 -->
<g id="node53" class="node"><title>Node25</title>
<a xlink:href="namespaceforcebalance_1_1nifty.html#ab5f3072ad95e9c75659cb1adac341051" target="_top" xlink:title="forcebalance.nifty.create\lWorkQueue">
<polygon fill="white" stroke="black" points="694.5,-118 694.5,-152 827.5,-152 827.5,-118 694.5,-118"/>
<text text-anchor="start" x="702.5" y="-139" font-family="Ubuntu-R" font-size="10.00">forcebalance.nifty.create</text>
<text text-anchor="middle" x="761" y="-126" font-family="Ubuntu-R" font-size="10.00">WorkQueue</text>
</a>
</g>
<!-- Node23&#45;&gt;Node25 -->
<g id="edge56" class="edge"><title>Node23&#45;&gt;Node25</title>
<path fill="none" stroke="midnightblue" d="M609.103,-119.81C632.949,-122.195 659.884,-124.888 684.379,-127.338"/>
<polygon fill="midnightblue" stroke="midnightblue" points="684.052,-130.823 694.351,-128.335 684.749,-123.857 684.052,-130.823"/>
</g>
<!-- Node28 -->
<g id="node59" class="node"><title>Node28</title>
<a xlink:href="namespaceforcebalance_1_1finite__difference.html#ad84d3e385db1190e7d8ef58bc08a6c52" target="_top" xlink:title="Invoking this function from anywhere will tell us whether we&#39;re being called by a finite&#45;difference f...">
<polygon fill="white" stroke="black" points="709,-312 709,-346 813,-346 813,-312 709,-312"/>
<text text-anchor="start" x="717" y="-333" font-family="Ubuntu-R" font-size="10.00">forcebalance.finite</text>
<text text-anchor="middle" x="761" y="-320" font-family="Ubuntu-R" font-size="10.00">_difference.in_fd</text>
</a>
</g>
<!-- Node27&#45;&gt;Node28 -->
<g id="edge62" class="edge"><title>Node27&#45;&gt;Node28</title>
<path fill="none" stroke="midnightblue" d="M593.695,-289.455C625.261,-296.916 665.56,-306.442 698.698,-314.274"/>
<polygon fill="midnightblue" stroke="midnightblue" points="698.198,-317.752 708.735,-316.646 699.808,-310.94 698.198,-317.752"/>
</g>
<!-- Node27&#45;&gt;Node29 -->
<g id="edge64" class="edge"><title>Node27&#45;&gt;Node29</title>
<path fill="none" stroke="midnightblue" d="M593.695,-277C625.261,-277 665.56,-277 698.698,-277"/>
<polygon fill="midnightblue" stroke="midnightblue" points="698.735,-280.5 708.735,-277 698.734,-273.5 698.735,-280.5"/>
</g>
<!-- Node30 -->
<g id="node63" class="node"><title>Node30</title>
<a xlink:href="namespaceforcebalance_1_1finite__difference.html#a00322fb65860c390616f74d05037c797" target="_top" xlink:title="A driver to fdwrap for gradients (see documentation for fdwrap) Inputs: tgt = The Target containing t...">
<polygon fill="white" stroke="black" points="888,-260 888,-294 1004,-294 1004,-260 888,-260"/>
<text text-anchor="start" x="896" y="-281" font-family="Ubuntu-R" font-size="10.00">forcebalance.finite</text>
<text text-anchor="middle" x="946" y="-268" font-family="Ubuntu-R" font-size="10.00">_difference.fdwrap_G</text>
</a>
</g>
<!-- Node29&#45;&gt;Node30 -->
<g id="edge66" class="edge"><title>Node29&#45;&gt;Node30</title>
<path fill="none" stroke="midnightblue" d="M813.025,-270.861C833.138,-270.214 856.431,-270.081 877.849,-270.462"/>
<polygon fill="midnightblue" stroke="midnightblue" points="877.789,-273.962 887.863,-270.682 877.943,-266.963 877.789,-273.962"/>
</g>
<!-- Node31 -->
<g id="node66" class="node"><title>Node31</title>
<a xlink:href="namespaceforcebalance_1_1finite__difference.html#a77a0bc1ae3cbbcc8d38a0ef9ca877d6d" target="_top" xlink:title="A driver to fdwrap for Hessians (see documentation for fdwrap) Inputs: tgt = The Target containing th...">
<polygon fill="white" stroke="black" points="888,-312 888,-346 1004,-346 1004,-312 888,-312"/>
<text text-anchor="start" x="896" y="-333" font-family="Ubuntu-R" font-size="10.00">forcebalance.finite</text>
<text text-anchor="middle" x="946" y="-320" font-family="Ubuntu-R" font-size="10.00">_difference.fdwrap_H</text>
</a>
</g>
<!-- Node29&#45;&gt;Node31 -->
<g id="edge70" class="edge"><title>Node29&#45;&gt;Node31</title>
<path fill="none" stroke="midnightblue" d="M813.025,-291.623C833.229,-297.302 856.642,-303.883 878.139,-309.926"/>
<polygon fill="midnightblue" stroke="midnightblue" points="877.289,-313.322 887.863,-312.659 879.184,-306.583 877.289,-313.322"/>
</g>
<!-- Node30&#45;&gt;Node29 -->
<g id="edge68" class="edge"><title>Node30&#45;&gt;Node29</title>
<path fill="none" stroke="midnightblue" d="M887.863,-283.318C867.26,-283.86 844.005,-283.892 823.085,-283.415"/>
<polygon fill="midnightblue" stroke="midnightblue" points="823.117,-279.914 813.025,-283.139 822.926,-286.912 823.117,-279.914"/>
</g>
<!-- Node32&#45;&gt;Node6 -->
<g id="edge76" class="edge"><title>Node32&#45;&gt;Node6</title>
<path fill="none" stroke="midnightblue" d="M613.238,-160.319C624.649,-163.267 635.976,-167.352 646,-173 666.838,-184.741 660.737,-202.048 682,-213 814.819,-281.411 870.002,-219.29 1016,-251 1147.99,-279.668 1169.93,-345 1305,-345 1305,-345 1305,-345 1486,-345 1594.51,-345 1720.19,-349.443 1797.4,-352.681"/>
<polygon fill="midnightblue" stroke="midnightblue" points="1797.36,-356.183 1807.49,-353.11 1797.65,-349.189 1797.36,-356.183"/>
</g>
<!-- Node33 -->
<g id="node72" class="node"><title>Node33</title>
<a xlink:href="namespaceforcebalance_1_1nifty.html#a51180e960742cc7547749fdfb3513ec4" target="_top" xlink:title="See documentation for printcool; this is a nice way to print out keys/values in a dictionary...">
<polygon fill="white" stroke="black" points="689,-170 689,-204 833,-204 833,-170 689,-170"/>
<text text-anchor="start" x="697" y="-191" font-family="Ubuntu-R" font-size="10.00">forcebalance.nifty.printcool</text>
<text text-anchor="middle" x="761" y="-178" font-family="Ubuntu-R" font-size="10.00">_dictionary</text>
</a>
</g>
<!-- Node32&#45;&gt;Node33 -->
<g id="edge78" class="edge"><title>Node32&#45;&gt;Node33</title>
<path fill="none" stroke="midnightblue" d="M609.103,-163.525C631.088,-166.923 655.699,-170.726 678.603,-174.266"/>
<polygon fill="midnightblue" stroke="midnightblue" points="678.228,-177.749 688.645,-175.818 679.297,-170.831 678.228,-177.749"/>
</g>
<!-- Node34 -->
<g id="node74" class="node"><title>Node34</title>
<a xlink:href="namespaceforcebalance_1_1nifty.html#a3f1c7a1af9d35d5d1693074bc6f5497c" target="_top" xlink:title="ONLY matches integers! If you have a decimal point? None shall pass!">
<polygon fill="white" stroke="black" points="885,-182.5 885,-203.5 1007,-203.5 1007,-182.5 885,-182.5"/>
<text text-anchor="middle" x="946" y="-190.5" font-family="Ubuntu-R" font-size="10.00">forcebalance.nifty.isint</text>
</a>
</g>
<!-- Node33&#45;&gt;Node34 -->
<g id="edge80" class="edge"><title>Node33&#45;&gt;Node34</title>
<path fill="none" stroke="midnightblue" d="M833.056,-189.337C846.719,-189.78 861.008,-190.244 874.649,-190.686"/>
<polygon fill="midnightblue" stroke="midnightblue" points="874.825,-194.193 884.933,-191.019 875.052,-187.197 874.825,-194.193"/>
</g>
<!-- Node36 -->
<g id="node78" class="node"><title>Node36</title>
<a xlink:href="namespaceforcebalance_1_1nifty.html#a8e3ef0108b9d37b82ba0dced7c6037ae" target="_top" xlink:title="Matches ANY number; it can be a decimal, scientific notation, what have you CAUTION &#45; this will also ...">
<polygon fill="white" stroke="black" points="1239.5,-182.5 1239.5,-203.5 1370.5,-203.5 1370.5,-182.5 1239.5,-182.5"/>
<text text-anchor="middle" x="1305" y="-190.5" font-family="Ubuntu-R" font-size="10.00">forcebalance.nifty.isfloat</text>
</a>
</g>
<!-- Node33&#45;&gt;Node36 -->
<g id="edge108" class="edge"><title>Node33&#45;&gt;Node36</title>
<path fill="none" stroke="midnightblue" d="M833.266,-176.848C847.408,-175.244 862.148,-173.84 876,-173 999.544,-165.508 1143.25,-176.142 1229.02,-184.545"/>
<polygon fill="midnightblue" stroke="midnightblue" points="1228.89,-188.049 1239.19,-185.557 1229.59,-181.083 1228.89,-188.049"/>
</g>
<!-- Node35 -->
<g id="node76" class="node"><title>Node35</title>
<a xlink:href="namespaceforcebalance_1_1nifty.html#a09263927eaec9deff283fbf1a820242f" target="_top" xlink:title="Matches things with a decimal only; see isint and isfloat.">
<polygon fill="white" stroke="black" points="1052.5,-221.5 1052.5,-242.5 1199.5,-242.5 1199.5,-221.5 1052.5,-221.5"/>
<text text-anchor="middle" x="1126" y="-229.5" font-family="Ubuntu-R" font-size="10.00">forcebalance.nifty.isdecimal</text>
</a>
</g>
<!-- Node34&#45;&gt;Node35 -->
<g id="edge82" class="edge"><title>Node34&#45;&gt;Node35</title>
<path fill="none" stroke="midnightblue" d="M994.711,-203.554C1017.12,-208.41 1043.89,-214.21 1067.4,-219.303"/>
<polygon fill="midnightblue" stroke="midnightblue" points="1066.74,-222.741 1077.25,-221.438 1068.22,-215.899 1066.74,-222.741"/>
</g>
<!-- Node35&#45;&gt;Node36 -->
<g id="edge84" class="edge"><title>Node35&#45;&gt;Node36</title>
<path fill="none" stroke="midnightblue" d="M1174.44,-221.446C1196.73,-216.59 1223.35,-210.79 1246.72,-205.697"/>
<polygon fill="midnightblue" stroke="midnightblue" points="1247.5,-209.111 1256.52,-203.562 1246.01,-202.272 1247.5,-209.111"/>
</g>
<!-- Node35&#45;&gt;Node40 -->
<g id="edge94" class="edge"><title>Node35&#45;&gt;Node40</title>
<path fill="none" stroke="midnightblue" d="M1160.51,-242.605C1189.11,-251.393 1229.95,-263.939 1260.91,-273.454"/>
<polygon fill="midnightblue" stroke="midnightblue" points="1260.01,-276.836 1270.59,-276.428 1262.06,-270.145 1260.01,-276.836"/>
</g>
<!-- Node36&#45;&gt;Node34 -->
<g id="edge86" class="edge"><title>Node36&#45;&gt;Node34</title>
<path fill="none" stroke="midnightblue" d="M1239.39,-193C1176.58,-193 1082.09,-193 1017.42,-193"/>
<polygon fill="midnightblue" stroke="midnightblue" points="1017.31,-189.5 1007.31,-193 1017.31,-196.5 1017.31,-189.5"/>
</g>
<!-- Node37 -->
<g id="node81" class="node"><title>Node37</title>
<a xlink:href="namespaceforcebalance_1_1nifty.html#a8d63c8ae9a67c66673a6cf81357f827d" target="_top" xlink:title="Returns a big number if we encounter NaN.">
<polygon fill="white" stroke="black" points="1410.5,-182.5 1410.5,-203.5 1561.5,-203.5 1561.5,-182.5 1410.5,-182.5"/>
<text text-anchor="middle" x="1486" y="-190.5" font-family="Ubuntu-R" font-size="10.00">forcebalance.nifty.floatornan</text>
</a>
</g>
<!-- Node36&#45;&gt;Node37 -->
<g id="edge88" class="edge"><title>Node36&#45;&gt;Node37</title>
<path fill="none" stroke="midnightblue" d="M1370.6,-193C1380.21,-193 1390.23,-193 1400.17,-193"/>
<polygon fill="midnightblue" stroke="midnightblue" points="1400.48,-196.5 1410.48,-193 1400.48,-189.5 1400.48,-196.5"/>
</g>
<!-- Node38 -->
<g id="node83" class="node"><title>Node38</title>
<a xlink:href="namespaceforcebalance_1_1nifty.html#a6c9727360cdff8f3011a12cc54d0e86e" target="_top" xlink:title="Given any list, array, or matrix, return a 1&#45;row matrix.">
<polygon fill="white" stroke="black" points="1614.5,-182.5 1614.5,-203.5 1733.5,-203.5 1733.5,-182.5 1614.5,-182.5"/>
<text text-anchor="middle" x="1674" y="-190.5" font-family="Ubuntu-R" font-size="10.00">forcebalance.nifty.row</text>
</a>
</g>
<!-- Node37&#45;&gt;Node38 -->
<g id="edge90" class="edge"><title>Node37&#45;&gt;Node38</title>
<path fill="none" stroke="midnightblue" d="M1561.65,-193C1575.64,-193 1590.19,-193 1604,-193"/>
<polygon fill="midnightblue" stroke="midnightblue" points="1604.39,-196.5 1614.39,-193 1604.39,-189.5 1604.39,-196.5"/>
</g>
<!-- Node39 -->
<g id="node85" class="node"><title>Node39</title>
<a xlink:href="namespaceforcebalance_1_1nifty.html#a7676236002c6a65ea7d2e69a09923889" target="_top" xlink:title="Given two vectors vec1 and vec2, project out the component of vec1 that is along the vec2&#45;direction...">
<polygon fill="white" stroke="black" points="1786,-182.5 1786,-203.5 1954,-203.5 1954,-182.5 1786,-182.5"/>
<text text-anchor="middle" x="1870" y="-190.5" font-family="Ubuntu-R" font-size="10.00">forcebalance.nifty.orthogonalize</text>
</a>
</g>
<!-- Node38&#45;&gt;Node39 -->
<g id="edge92" class="edge"><title>Node38&#45;&gt;Node39</title>
<path fill="none" stroke="midnightblue" d="M1733.6,-193C1746.84,-193 1761.18,-193 1775.42,-193"/>
<polygon fill="midnightblue" stroke="midnightblue" points="1775.76,-196.5 1785.76,-193 1775.76,-189.5 1775.76,-196.5"/>
</g>
<!-- Node40&#45;&gt;Node41 -->
<g id="edge96" class="edge"><title>Node40&#45;&gt;Node41</title>
<path fill="none" stroke="midnightblue" d="M1363.27,-278.63C1380.37,-276.173 1399.24,-273.462 1416.95,-270.918"/>
<polygon fill="midnightblue" stroke="midnightblue" points="1417.82,-274.33 1427.22,-269.443 1416.83,-267.401 1417.82,-274.33"/>
</g>
<!-- Node42 -->
<g id="node91" class="node"><title>Node42</title>
<a xlink:href="namespaceforcebalance_1_1nifty.html#a4c82187e92dfeb8a159f4aa44b501c40" target="_top" xlink:title="Invert a matrix using singular value decomposition.">
<polygon fill="white" stroke="black" points="1598.5,-289.5 1598.5,-310.5 1749.5,-310.5 1749.5,-289.5 1598.5,-289.5"/>
<text text-anchor="middle" x="1674" y="-297.5" font-family="Ubuntu-R" font-size="10.00">forcebalance.nifty.invert_svd</text>
</a>
</g>
<!-- Node41&#45;&gt;Node42 -->
<g id="edge98" class="edge"><title>Node41&#45;&gt;Node42</title>
<path fill="none" stroke="midnightblue" d="M1536.88,-271.554C1560.39,-276.431 1588.49,-282.262 1613.12,-287.371"/>
<polygon fill="midnightblue" stroke="midnightblue" points="1612.58,-290.833 1623.08,-289.438 1614,-283.979 1612.58,-290.833"/>
</g>
<!-- Node42&#45;&gt;Node6 -->
<g id="edge106" class="edge"><title>Node42&#45;&gt;Node6</title>
<path fill="none" stroke="midnightblue" d="M1710.87,-310.533C1736.08,-317.738 1770.29,-327.511 1800.53,-336.15"/>
<polygon fill="midnightblue" stroke="midnightblue" points="1799.61,-339.529 1810.19,-338.911 1801.53,-332.798 1799.61,-339.529"/>
</g>
<!-- Node42&#45;&gt;Node40 -->
<g id="edge104" class="edge"><title>Node42&#45;&gt;Node40</title>
<path fill="none" stroke="midnightblue" d="M1598.39,-297.336C1532.33,-295.009 1437.26,-291.66 1373.42,-289.411"/>
<polygon fill="midnightblue" stroke="midnightblue" points="1373.18,-285.9 1363.06,-289.046 1372.93,-292.896 1373.18,-285.9"/>
</g>
<!-- Node43 -->
<g id="node93" class="node"><title>Node43</title>
<a xlink:href="namespaceforcebalance_1_1nifty.html#aa9fb9c7c65231eca50a7afc04f489b64" target="_top" xlink:title="forcebalance.nifty.get\l_least_squares">
<polygon fill="white" stroke="black" points="1811,-271 1811,-305 1929,-305 1929,-271 1811,-271"/>
<text text-anchor="start" x="1819" y="-292" font-family="Ubuntu-R" font-size="10.00">forcebalance.nifty.get</text>
<text text-anchor="middle" x="1870" y="-279" font-family="Ubuntu-R" font-size="10.00">_least_squares</text>
</a>
</g>
<!-- Node42&#45;&gt;Node43 -->
<g id="edge100" class="edge"><title>Node42&#45;&gt;Node43</title>
<path fill="none" stroke="midnightblue" d="M1749.78,-295.36C1766.55,-294.334 1784.24,-293.251 1800.73,-292.241"/>
<polygon fill="midnightblue" stroke="midnightblue" points="1801.06,-295.727 1810.83,-291.623 1800.64,-288.74 1801.06,-295.727"/>
</g>
<!-- Node43&#45;&gt;Node41 -->
<g id="edge102" class="edge"><title>Node43&#45;&gt;Node41</title>
<path fill="none" stroke="midnightblue" d="M1810.95,-283.848C1741.89,-278.992 1627.75,-270.966 1554.76,-265.834"/>
<polygon fill="midnightblue" stroke="midnightblue" points="1554.96,-262.34 1544.74,-265.13 1554.47,-269.323 1554.96,-262.34"/>
</g>
<!-- Node45&#45;&gt;Node1 -->
<g id="edge118" class="edge"><title>Node45&#45;&gt;Node1</title>
<path fill="none" stroke="midnightblue" d="M477.313,-21.5636C463.312,-25.1357 448.841,-29.8411 436,-36 333.477,-85.1734 305.719,-104.765 234,-193 165.968,-276.699 121.183,-400.371 105.366,-448.649"/>
<polygon fill="midnightblue" stroke="midnightblue" points="102.005,-447.668 102.276,-458.259 108.669,-449.81 102.005,-447.668"/>
</g>
</g>
</svg>
