<?xml version="1.0" encoding="UTF-8" standalone="no"?>
<!DOCTYPE svg PUBLIC "-//W3C//DTD SVG 1.1//EN"
 "http://www.w3.org/Graphics/SVG/1.1/DTD/svg11.dtd">
<!-- Generated by graphviz version 2.32.0 (20130801.1845)
 -->
<!-- Title: forcebalance.target.Target.wq_complete Pages: 1 -->
<svg width="1688pt" height="196pt"
 viewBox="0.00 0.00 1688.00 196.00" xmlns="http://www.w3.org/2000/svg" xmlns:xlink="http://www.w3.org/1999/xlink">
<g id="graph0" class="graph" transform="scale(1 1) rotate(0) translate(4 192)">
<title>forcebalance.target.Target.wq_complete</title>
<polygon fill="white" stroke="white" points="-4,5 -4,-192 1685,-192 1685,5 -4,5"/>
<!-- Node1 -->
<g id="node1" class="node"><title>Node1</title>
<polygon fill="#bfbfbf" stroke="black" points="0.175,-50 0.175,-82 135.825,-82 135.825,-50 0.175,-50"/>
<text text-anchor="start" x="8.175" y="-69" font-family="Ubuntu-R" font-size="10.00">forcebalance.target.Target.wq</text>
<text text-anchor="middle" x="68" y="-57" font-family="Ubuntu-R" font-size="10.00">_complete</text>
</g>
<!-- Node2 -->
<g id="node2" class="node"><title>Node2</title>
<g id="a_node2"><a xlink:href="namespaceforcebalance_1_1nifty.html#a374aac2ef003be02fab49b20ff0a82f0" target="_top" target="_top" target="_top" xlink:title="This function waits ten seconds to see if a task in the Work Queue has finished.">
<polygon fill="white" stroke="black" points="200.411,-84 200.411,-116 303.589,-116 303.589,-84 200.411,-84"/>
<text text-anchor="start" x="208.411" y="-103" font-family="Ubuntu-R" font-size="10.00">forcebalance.nifty.wq</text>
<text text-anchor="middle" x="252" y="-91" font-family="Ubuntu-R" font-size="10.00">_wait1</text>
</a>
</g>
</g>
<!-- Node1&#45;&gt;Node2 -->
<g id="edge1" class="edge"><title>Node1&#45;&gt;Node2</title>
<path fill="none" stroke="midnightblue" d="M135.995,-78.5155C153.787,-81.8394 172.899,-85.4096 190.333,-88.6666"/>
<polygon fill="midnightblue" stroke="midnightblue" points="189.909,-92.1478 200.381,-90.5437 191.194,-85.2668 189.909,-92.1478"/>
</g>
<!-- Node9 -->
<g id="node9" class="node"><title>Node9</title>
<g id="a_node9"><a xlink:href="classforcebalance_1_1target_1_1Target.html#ac30a4e9d7d9fe06f7caefa5f7cfab09b" target="_top" target="_top" target="_top" xlink:title="Print target information in an organized table format.">
<polygon fill="white" stroke="black" points="172.232,-17 172.232,-49 331.768,-49 331.768,-17 172.232,-17"/>
<text text-anchor="start" x="180.232" y="-36" font-family="Ubuntu-R" font-size="10.00">forcebalance.target.Target.printcool</text>
<text text-anchor="middle" x="252" y="-24" font-family="Ubuntu-R" font-size="10.00">_table</text>
</a>
</g>
</g>
<!-- Node1&#45;&gt;Node9 -->
<g id="edge9" class="edge"><title>Node1&#45;&gt;Node9</title>
<path fill="none" stroke="midnightblue" d="M135.995,-53.8526C144.537,-52.3037 153.383,-50.6997 162.202,-49.1007"/>
<polygon fill="midnightblue" stroke="midnightblue" points="162.914,-52.5287 172.129,-47.3007 161.665,-45.641 162.914,-52.5287"/>
</g>
<!-- Node3 -->
<g id="node3" class="node"><title>Node3</title>
<g id="a_node3"><a xlink:href="namespaceforcebalance_1_1nifty.html#a576de8c5b6f236280e07e73e39b2ab7c" target="_top" target="_top" target="_top" xlink:title="This function waits until the work queue is completely empty.">
<polygon fill="white" stroke="black" points="369.303,-90 369.303,-110 494.697,-110 494.697,-90 369.303,-90"/>
<text text-anchor="middle" x="432" y="-97" font-family="Ubuntu-R" font-size="10.00">forcebalance.nifty.wq_wait</text>
</a>
</g>
</g>
<!-- Node2&#45;&gt;Node3 -->
<g id="edge2" class="edge"><title>Node2&#45;&gt;Node3</title>
<path fill="none" stroke="midnightblue" d="M304.008,-100C321.17,-100 340.653,-100 359.115,-100"/>
<polygon fill="midnightblue" stroke="midnightblue" points="359.246,-103.5 369.246,-100 359.246,-96.5001 359.246,-103.5"/>
</g>
<!-- Node4 -->
<g id="node4" class="node"><title>Node4</title>
<g id="a_node4"><a xlink:href="namespaceforcebalance_1_1nifty.html#ac9ab6c5543a2e3080061e0024850edf3" target="_top" target="_top" target="_top" xlink:title="forcebalance.nifty.allsplit">
<polygon fill="white" stroke="black" points="531.909,-109 531.909,-129 650.091,-129 650.091,-109 531.909,-109"/>
<text text-anchor="middle" x="591" y="-116" font-family="Ubuntu-R" font-size="10.00">forcebalance.nifty.allsplit</text>
</a>
</g>
</g>
<!-- Node2&#45;&gt;Node4 -->
<g id="edge7" class="edge"><title>Node2&#45;&gt;Node4</title>
<path fill="none" stroke="midnightblue" d="M303.728,-110.219C323.672,-113.754 346.823,-117.262 368,-119 419.317,-123.211 477.531,-123.027 521.469,-121.888"/>
<polygon fill="midnightblue" stroke="midnightblue" points="521.569,-125.387 531.466,-121.606 521.372,-118.389 521.569,-125.387"/>
</g>
<!-- Node7 -->
<g id="node7" class="node"><title>Node7</title>
<g id="a_node7"><a xlink:href="namespaceforcebalance_1_1nifty.html#ad432b88307e1178b0690c0d350b1af36" target="_top" target="_top" target="_top" xlink:title="forcebalance.nifty.GoInto">
<polygon fill="white" stroke="black" points="372.357,-51 372.357,-71 491.643,-71 491.643,-51 372.357,-51"/>
<text text-anchor="middle" x="432" y="-58" font-family="Ubuntu-R" font-size="10.00">forcebalance.nifty.GoInto</text>
</a>
</g>
</g>
<!-- Node2&#45;&gt;Node7 -->
<g id="edge6" class="edge"><title>Node2&#45;&gt;Node7</title>
<path fill="none" stroke="midnightblue" d="M304.008,-88.8242C326.29,-83.942 352.485,-78.2028 375.277,-73.2089"/>
<polygon fill="midnightblue" stroke="midnightblue" points="376.13,-76.6053 385.149,-71.046 374.631,-69.7675 376.13,-76.6053"/>
</g>
<!-- Node8 -->
<g id="node8" class="node"><title>Node8</title>
<g id="a_node8"><a xlink:href="namespaceforcebalance_1_1nifty.html#ab04e8690d099db2379dc860e0d040120" target="_top" target="_top" target="_top" xlink:title="forcebalance.nifty.Leave">
<polygon fill="white" stroke="black" points="374.308,-168 374.308,-188 489.692,-188 489.692,-168 374.308,-168"/>
<text text-anchor="middle" x="432" y="-175" font-family="Ubuntu-R" font-size="10.00">forcebalance.nifty.Leave</text>
</a>
</g>
</g>
<!-- Node2&#45;&gt;Node8 -->
<g id="edge8" class="edge"><title>Node2&#45;&gt;Node8</title>
<path fill="none" stroke="midnightblue" d="M286.5,-116.021C309.328,-126.794 340.317,-141.138 368,-153 376.817,-156.778 386.406,-160.685 395.383,-164.255"/>
<polygon fill="midnightblue" stroke="midnightblue" points="394.23,-167.563 404.817,-167.975 396.798,-161.051 394.23,-167.563"/>
</g>
<!-- Node3&#45;&gt;Node4 -->
<g id="edge3" class="edge"><title>Node3&#45;&gt;Node4</title>
<path fill="none" stroke="midnightblue" d="M495.051,-107.509C503.831,-108.572 512.899,-109.669 521.789,-110.745"/>
<polygon fill="midnightblue" stroke="midnightblue" points="521.376,-114.221 531.724,-111.947 522.217,-107.271 521.376,-114.221"/>
</g>
<!-- Node5 -->
<g id="node5" class="node"><title>Node5</title>
<g id="a_node5"><a xlink:href="namespaceforcebalance_1_1nifty.html#ae87c7def5f8edf2ec30737bdb1d2636f" target="_top" target="_top" target="_top" xlink:title="forcebalance.nifty.Missing\lFileInspection">
<polygon fill="white" stroke="black" points="689.409,-103 689.409,-135 812.591,-135 812.591,-103 689.409,-103"/>
<text text-anchor="start" x="697.409" y="-122" font-family="Ubuntu-R" font-size="10.00">forcebalance.nifty.Missing</text>
<text text-anchor="middle" x="751" y="-110" font-family="Ubuntu-R" font-size="10.00">FileInspection</text>
</a>
</g>
</g>
<!-- Node4&#45;&gt;Node5 -->
<g id="edge4" class="edge"><title>Node4&#45;&gt;Node5</title>
<path fill="none" stroke="midnightblue" d="M650.384,-119C659.681,-119 669.386,-119 678.936,-119"/>
<polygon fill="midnightblue" stroke="midnightblue" points="679.21,-122.5 689.21,-119 679.21,-115.5 679.21,-122.5"/>
</g>
<!-- Node6 -->
<g id="node6" class="node"><title>Node6</title>
<g id="a_node6"><a xlink:href="namespaceforcebalance_1_1nifty.html#a0cf4e58f90acf20e3d6224be2354082c" target="_top" target="_top" target="_top" xlink:title="forcebalance.nifty.link\l_dir_contents">
<polygon fill="white" stroke="black" points="856.742,-103 856.742,-135 963.258,-135 963.258,-103 856.742,-103"/>
<text text-anchor="start" x="864.742" y="-122" font-family="Ubuntu-R" font-size="10.00">forcebalance.nifty.link</text>
<text text-anchor="middle" x="910" y="-110" font-family="Ubuntu-R" font-size="10.00">_dir_contents</text>
</a>
</g>
</g>
<!-- Node5&#45;&gt;Node6 -->
<g id="edge5" class="edge"><title>Node5&#45;&gt;Node6</title>
<path fill="none" stroke="midnightblue" d="M812.7,-119C823.799,-119 835.399,-119 846.548,-119"/>
<polygon fill="midnightblue" stroke="midnightblue" points="846.633,-122.5 856.633,-119 846.633,-115.5 846.633,-122.5"/>
</g>
<!-- Node10 -->
<g id="node10" class="node"><title>Node10</title>
<g id="a_node10"><a xlink:href="namespaceforcebalance_1_1nifty.html#a51180e960742cc7547749fdfb3513ec4" target="_top" target="_top" target="_top" xlink:title="See documentation for printcool; this is a nice way to print out keys/values in a dictionary...">
<polygon fill="white" stroke="black" points="368.469,-0 368.469,-32 495.531,-32 495.531,-0 368.469,-0"/>
<text text-anchor="start" x="376.469" y="-19" font-family="Ubuntu-R" font-size="10.00">forcebalance.nifty.printcool</text>
<text text-anchor="middle" x="432" y="-7" font-family="Ubuntu-R" font-size="10.00">_dictionary</text>
</a>
</g>
</g>
<!-- Node9&#45;&gt;Node10 -->
<g id="edge10" class="edge"><title>Node9&#45;&gt;Node10</title>
<path fill="none" stroke="midnightblue" d="M331.851,-25.4693C340.606,-24.6331 349.495,-23.7842 358.171,-22.9555"/>
<polygon fill="midnightblue" stroke="midnightblue" points="358.617,-26.429 368.238,-21.9941 357.951,-19.4608 358.617,-26.429"/>
</g>
<!-- Node11 -->
<g id="node11" class="node"><title>Node11</title>
<g id="a_node11"><a xlink:href="namespaceforcebalance_1_1nifty.html#a3f1c7a1af9d35d5d1693074bc6f5497c" target="_top" target="_top" target="_top" xlink:title="ONLY matches integers! If you have a decimal point? None shall pass!">
<polygon fill="white" stroke="black" points="536.908,-26 536.908,-46 645.092,-46 645.092,-26 536.908,-26"/>
<text text-anchor="middle" x="591" y="-33" font-family="Ubuntu-R" font-size="10.00">forcebalance.nifty.isint</text>
</a>
</g>
</g>
<!-- Node10&#45;&gt;Node11 -->
<g id="edge11" class="edge"><title>Node10&#45;&gt;Node11</title>
<path fill="none" stroke="midnightblue" d="M495.953,-24.0195C506.062,-25.3073 516.53,-26.6408 526.649,-27.9297"/>
<polygon fill="midnightblue" stroke="midnightblue" points="526.262,-31.4088 536.624,-29.2006 527.147,-24.4649 526.262,-31.4088"/>
</g>
<!-- Node13 -->
<g id="node13" class="node"><title>Node13</title>
<g id="a_node13"><a xlink:href="namespaceforcebalance_1_1nifty.html#a8e3ef0108b9d37b82ba0dced7c6037ae" target="_top" target="_top" target="_top" xlink:title="Matches ANY number; it can be a decimal, scientific notation, what have you CAUTION &#45; this will also ...">
<polygon fill="white" stroke="black" points="852.024,-20 852.024,-40 967.976,-40 967.976,-20 852.024,-20"/>
<text text-anchor="middle" x="910" y="-27" font-family="Ubuntu-R" font-size="10.00">forcebalance.nifty.isfloat</text>
</a>
</g>
</g>
<!-- Node10&#45;&gt;Node13 -->
<g id="edge27" class="edge"><title>Node10&#45;&gt;Node13</title>
<path fill="none" stroke="midnightblue" d="M495.685,-15.1054C539.032,-14.7061 598.029,-14.5964 650,-16 715.201,-17.7609 789.533,-22.0109 841.792,-25.3697"/>
<polygon fill="midnightblue" stroke="midnightblue" points="841.734,-28.8732 851.94,-26.0286 842.188,-21.8879 841.734,-28.8732"/>
</g>
<!-- Node12 -->
<g id="node12" class="node"><title>Node12</title>
<g id="a_node12"><a xlink:href="namespaceforcebalance_1_1nifty.html#a09263927eaec9deff283fbf1a820242f" target="_top" target="_top" target="_top" xlink:title="Matches things with a decimal only; see isint and isfloat.">
<polygon fill="white" stroke="black" points="686.36,-64 686.36,-84 815.64,-84 815.64,-64 686.36,-64"/>
<text text-anchor="middle" x="751" y="-71" font-family="Ubuntu-R" font-size="10.00">forcebalance.nifty.isdecimal</text>
</a>
</g>
</g>
<!-- Node11&#45;&gt;Node12 -->
<g id="edge12" class="edge"><title>Node11&#45;&gt;Node12</title>
<path fill="none" stroke="midnightblue" d="M633.926,-46.0835C653.646,-50.8263 677.352,-56.5278 698.186,-61.5383"/>
<polygon fill="midnightblue" stroke="midnightblue" points="697.611,-64.9998 708.152,-63.9353 699.248,-58.1939 697.611,-64.9998"/>
</g>
<!-- Node12&#45;&gt;Node13 -->
<g id="edge13" class="edge"><title>Node12&#45;&gt;Node13</title>
<path fill="none" stroke="midnightblue" d="M788.019,-63.9055C810.357,-57.645 839.264,-49.5439 863.219,-42.8304"/>
<polygon fill="midnightblue" stroke="midnightblue" points="864.464,-46.1163 873.149,-40.0475 862.575,-39.376 864.464,-46.1163"/>
</g>
<!-- Node17 -->
<g id="node17" class="node"><title>Node17</title>
<g id="a_node17"><a xlink:href="namespaceforcebalance_1_1nifty.html#afb3f205bce4984856e766af7e9fdaca8" target="_top" target="_top" target="_top" xlink:title="Given any list, array, or matrix, return a 1&#45;column matrix.">
<polygon fill="white" stroke="black" points="858.412,-64 858.412,-84 961.588,-84 961.588,-64 858.412,-64"/>
<text text-anchor="middle" x="910" y="-71" font-family="Ubuntu-R" font-size="10.00">forcebalance.nifty.col</text>
</a>
</g>
</g>
<!-- Node12&#45;&gt;Node17 -->
<g id="edge18" class="edge"><title>Node12&#45;&gt;Node17</title>
<path fill="none" stroke="midnightblue" d="M815.858,-74C826.427,-74 837.364,-74 847.864,-74"/>
<polygon fill="midnightblue" stroke="midnightblue" points="848.189,-77.5001 858.189,-74 848.189,-70.5001 848.189,-77.5001"/>
</g>
<!-- Node13&#45;&gt;Node11 -->
<g id="edge14" class="edge"><title>Node13&#45;&gt;Node11</title>
<path fill="none" stroke="midnightblue" d="M851.879,-31.0811C796.554,-32.1283 712.83,-33.713 655.454,-34.799"/>
<polygon fill="midnightblue" stroke="midnightblue" points="655.348,-31.3003 645.416,-34.989 655.481,-38.299 655.348,-31.3003"/>
</g>
<!-- Node14 -->
<g id="node14" class="node"><title>Node14</title>
<g id="a_node14"><a xlink:href="namespaceforcebalance_1_1nifty.html#a8d63c8ae9a67c66673a6cf81357f827d" target="_top" target="_top" target="_top" xlink:title="Returns a big number if we encounter NaN.">
<polygon fill="white" stroke="black" points="1003.97,-19 1003.97,-39 1136.03,-39 1136.03,-19 1003.97,-19"/>
<text text-anchor="middle" x="1070" y="-26" font-family="Ubuntu-R" font-size="10.00">forcebalance.nifty.floatornan</text>
</a>
</g>
</g>
<!-- Node13&#45;&gt;Node14 -->
<g id="edge15" class="edge"><title>Node13&#45;&gt;Node14</title>
<path fill="none" stroke="midnightblue" d="M968.042,-29.639C976.364,-29.5863 985.04,-29.5314 993.658,-29.4768"/>
<polygon fill="midnightblue" stroke="midnightblue" points="993.746,-32.9765 1003.72,-29.4131 993.701,-25.9766 993.746,-32.9765"/>
</g>
<!-- Node15 -->
<g id="node15" class="node"><title>Node15</title>
<g id="a_node15"><a xlink:href="namespaceforcebalance_1_1nifty.html#a6c9727360cdff8f3011a12cc54d0e86e" target="_top" target="_top" target="_top" xlink:title="Given any list, array, or matrix, return a 1&#45;row matrix.">
<polygon fill="white" stroke="black" points="1185.75,-18 1185.75,-38 1292.25,-38 1292.25,-18 1185.75,-18"/>
<text text-anchor="middle" x="1239" y="-25" font-family="Ubuntu-R" font-size="10.00">forcebalance.nifty.row</text>
</a>
</g>
</g>
<!-- Node14&#45;&gt;Node15 -->
<g id="edge16" class="edge"><title>Node14&#45;&gt;Node15</title>
<path fill="none" stroke="midnightblue" d="M1136.04,-28.6105C1148.98,-28.5331 1162.54,-28.4519 1175.39,-28.3749"/>
<polygon fill="midnightblue" stroke="midnightblue" points="1175.54,-31.8742 1185.52,-28.3143 1175.5,-24.8743 1175.54,-31.8742"/>
</g>
<!-- Node16 -->
<g id="node16" class="node"><title>Node16</title>
<g id="a_node16"><a xlink:href="namespaceforcebalance_1_1nifty.html#a7676236002c6a65ea7d2e69a09923889" target="_top" target="_top" target="_top" xlink:title="Given two vectors vec1 and vec2, project out the component of vec1 that is along the vec2&#45;direction...">
<polygon fill="white" stroke="black" points="1342.03,-18 1342.03,-38 1487.97,-38 1487.97,-18 1342.03,-18"/>
<text text-anchor="middle" x="1415" y="-25" font-family="Ubuntu-R" font-size="10.00">forcebalance.nifty.orthogonalize</text>
</a>
</g>
</g>
<!-- Node15&#45;&gt;Node16 -->
<g id="edge17" class="edge"><title>Node15&#45;&gt;Node16</title>
<path fill="none" stroke="midnightblue" d="M1292.68,-28C1305.03,-28 1318.49,-28 1331.79,-28"/>
<polygon fill="midnightblue" stroke="midnightblue" points="1331.92,-31.5001 1341.92,-28 1331.92,-24.5001 1331.92,-31.5001"/>
</g>
<!-- Node18 -->
<g id="node18" class="node"><title>Node18</title>
<g id="a_node18"><a xlink:href="namespaceforcebalance_1_1nifty.html#a52114ceee9d55f94d9aecb3e176de294" target="_top" target="_top" target="_top" xlink:title="Given any list, array, or matrix, return a single&#45;index array.">
<polygon fill="white" stroke="black" points="1017.86,-103 1017.86,-123 1122.14,-123 1122.14,-103 1017.86,-103"/>
<text text-anchor="middle" x="1070" y="-110" font-family="Ubuntu-R" font-size="10.00">forcebalance.nifty.flat</text>
</a>
</g>
</g>
<!-- Node17&#45;&gt;Node18 -->
<g id="edge19" class="edge"><title>Node17&#45;&gt;Node18</title>
<path fill="none" stroke="midnightblue" d="M951.689,-84.0435C972.054,-89.0702 996.9,-95.2032 1018.48,-100.529"/>
<polygon fill="midnightblue" stroke="midnightblue" points="1017.9,-103.992 1028.45,-102.991 1019.58,-97.196 1017.9,-103.992"/>
</g>
<!-- Node19 -->
<g id="node19" class="node"><title>Node19</title>
<g id="a_node19"><a xlink:href="namespaceforcebalance_1_1nifty.html#a4c82187e92dfeb8a159f4aa44b501c40" target="_top" target="_top" target="_top" xlink:title="Invert a matrix using singular value decomposition.">
<polygon fill="white" stroke="black" points="1172.41,-67 1172.41,-87 1305.59,-87 1305.59,-67 1172.41,-67"/>
<text text-anchor="middle" x="1239" y="-74" font-family="Ubuntu-R" font-size="10.00">forcebalance.nifty.invert_svd</text>
</a>
</g>
</g>
<!-- Node18&#45;&gt;Node19 -->
<g id="edge20" class="edge"><title>Node18&#45;&gt;Node19</title>
<path fill="none" stroke="midnightblue" d="M1117.52,-102.972C1137.34,-98.6989 1160.65,-93.6746 1181.45,-89.1894"/>
<polygon fill="midnightblue" stroke="midnightblue" points="1182.4,-92.5654 1191.44,-87.0366 1180.93,-85.7226 1182.4,-92.5654"/>
</g>
<!-- Node19&#45;&gt;Node17 -->
<g id="edge24" class="edge"><title>Node19&#45;&gt;Node17</title>
<path fill="none" stroke="midnightblue" d="M1172.17,-76.396C1113.72,-75.8598 1028.98,-75.0824 972.033,-74.5599"/>
<polygon fill="midnightblue" stroke="midnightblue" points="971.767,-71.0574 961.735,-74.4655 971.702,-78.0571 971.767,-71.0574"/>
</g>
<!-- Node20 -->
<g id="node20" class="node"><title>Node20</title>
<g id="a_node20"><a xlink:href="namespaceforcebalance_1_1nifty.html#aa9fb9c7c65231eca50a7afc04f489b64" target="_top" target="_top" target="_top" xlink:title="forcebalance.nifty.get\l_least_squares">
<polygon fill="white" stroke="black" points="1363.41,-108 1363.41,-140 1466.59,-140 1466.59,-108 1363.41,-108"/>
<text text-anchor="start" x="1371.41" y="-127" font-family="Ubuntu-R" font-size="10.00">forcebalance.nifty.get</text>
<text text-anchor="middle" x="1415" y="-115" font-family="Ubuntu-R" font-size="10.00">_least_squares</text>
</a>
</g>
</g>
<!-- Node19&#45;&gt;Node20 -->
<g id="edge21" class="edge"><title>Node19&#45;&gt;Node20</title>
<path fill="none" stroke="midnightblue" d="M1277.33,-87.0827C1299.45,-93.0595 1328.03,-100.778 1353.32,-107.61"/>
<polygon fill="midnightblue" stroke="midnightblue" points="1352.63,-111.05 1363.2,-110.279 1354.46,-104.292 1352.63,-111.05"/>
</g>
<!-- Node22 -->
<g id="node22" class="node"><title>Node22</title>
<g id="a_node22"><a xlink:href="namespaceforcebalance_1_1nifty.html#abb8f59044961a12588e0653c2baa8b01" target="_top" target="_top" target="_top" xlink:title="forcebalance.nifty.warn\l_press_key">
<polygon fill="white" stroke="black" points="1359.53,-57 1359.53,-89 1470.47,-89 1470.47,-57 1359.53,-57"/>
<text text-anchor="start" x="1367.53" y="-76" font-family="Ubuntu-R" font-size="10.00">forcebalance.nifty.warn</text>
<text text-anchor="middle" x="1415" y="-64" font-family="Ubuntu-R" font-size="10.00">_press_key</text>
</a>
</g>
</g>
<!-- Node19&#45;&gt;Node22 -->
<g id="edge25" class="edge"><title>Node19&#45;&gt;Node22</title>
<path fill="none" stroke="midnightblue" d="M1305.78,-75.4878C1320.03,-75.1602 1335.09,-74.814 1349.3,-74.4874"/>
<polygon fill="midnightblue" stroke="midnightblue" points="1349.55,-77.9826 1359.47,-74.2536 1349.39,-70.9845 1349.55,-77.9826"/>
</g>
<!-- Node20&#45;&gt;Node18 -->
<g id="edge22" class="edge"><title>Node20&#45;&gt;Node18</title>
<path fill="none" stroke="midnightblue" d="M1363.14,-122.369C1301.72,-120.399 1198.46,-117.088 1132.59,-114.975"/>
<polygon fill="midnightblue" stroke="midnightblue" points="1132.46,-111.469 1122.35,-114.647 1132.23,-118.466 1132.46,-111.469"/>
</g>
<!-- Node21 -->
<g id="node21" class="node"><title>Node21</title>
<g id="a_node21"><a xlink:href="namespaceforcebalance_1_1nifty.html#ad5ca60565c864b4245a8212fe9d92e10" target="_top" target="_top" target="_top" xlink:title="Compute the (cross) statistical inefficiency of (two) timeseries.">
<polygon fill="white" stroke="black" points="1537.64,-108 1537.64,-140 1666.36,-140 1666.36,-108 1537.64,-108"/>
<text text-anchor="start" x="1545.64" y="-127" font-family="Ubuntu-R" font-size="10.00">forcebalance.nifty.statistical</text>
<text text-anchor="middle" x="1602" y="-115" font-family="Ubuntu-R" font-size="10.00">Inefficiency</text>
</a>
</g>
</g>
<!-- Node20&#45;&gt;Node21 -->
<g id="edge23" class="edge"><title>Node20&#45;&gt;Node21</title>
<path fill="none" stroke="midnightblue" d="M1467.04,-124C1485.71,-124 1507.21,-124 1527.45,-124"/>
<polygon fill="midnightblue" stroke="midnightblue" points="1527.58,-127.5 1537.58,-124 1527.58,-120.5 1527.58,-127.5"/>
</g>
<!-- Node23 -->
<g id="node23" class="node"><title>Node23</title>
<g id="a_node23"><a xlink:href="namespaceforcebalance_1_1nifty.html#a2fc81730e7efa7d138dd86f733507bfc" target="_top" target="_top" target="_top" xlink:title="Similar to the bultin function map().">
<polygon fill="white" stroke="black" points="1524.04,-63 1524.04,-83 1679.96,-83 1679.96,-63 1524.04,-63"/>
<text text-anchor="middle" x="1602" y="-70" font-family="Ubuntu-R" font-size="10.00">forcebalance.nifty.concurrent_map</text>
</a>
</g>
</g>
<!-- Node22&#45;&gt;Node23 -->
<g id="edge26" class="edge"><title>Node22&#45;&gt;Node23</title>
<path fill="none" stroke="midnightblue" d="M1470.51,-73C1484.1,-73 1499.02,-73 1513.77,-73"/>
<polygon fill="midnightblue" stroke="midnightblue" points="1513.92,-76.5001 1523.92,-73 1513.92,-69.5001 1513.92,-76.5001"/>
</g>
</g>
</svg>
