<?xml version="1.0" encoding="UTF-8" standalone="no"?>
<!DOCTYPE svg PUBLIC "-//W3C//DTD SVG 1.1//EN"
 "http://www.w3.org/Graphics/SVG/1.1/DTD/svg11.dtd">
<!-- Generated by graphviz version 2.26.3 (20100126.1600)
 -->
<!-- Title: forcebalance.psi4io.Grid_Reader.feed Pages: 1 -->
<svg width="516pt" height="56pt"
 viewBox="0.00 0.00 516.00 56.00" xmlns="http://www.w3.org/2000/svg" xmlns:xlink="http://www.w3.org/1999/xlink">
<g id="graph1" class="graph" transform="scale(1 1) rotate(0) translate(4 52)">
<title>forcebalance.psi4io.Grid_Reader.feed</title>
<polygon fill="white" stroke="white" points="-4,5 -4,-52 513,-52 513,5 -4,5"/>
<!-- Node1 -->
<g id="node1" class="node"><title>Node1</title>
<polygon fill="#bfbfbf" stroke="black" points="0.5,-0 0.5,-34 131.5,-34 131.5,-0 0.5,-0"/>
<text text-anchor="start" x="8.5" y="-21" font-family="Ubuntu-R" font-size="10.00">forcebalance.psi4io.Grid</text>
<text text-anchor="middle" x="66" y="-8" font-family="Ubuntu-R" font-size="10.00">_Reader.feed</text>
</g>
<!-- Node2 -->
<g id="node3" class="node"><title>Node2</title>
<a xlink:href="namespaceforcebalance_1_1molecule.html#a0dd31eff88d2bed0884ab21a13261d42" target="_top" xlink:title="ONLY matches integers! If you have a decimal point? None shall pass!">
<polygon fill="white" stroke="black" points="168.5,-26.5 168.5,-47.5 315.5,-47.5 315.5,-26.5 168.5,-26.5"/>
<text text-anchor="middle" x="242" y="-34.5" font-family="Ubuntu-R" font-size="10.00">forcebalance.molecule.isint</text>
</a>
</g>
<!-- Node1&#45;&gt;Node2 -->
<g id="edge2" class="edge"><title>Node1&#45;&gt;Node2</title>
<path fill="none" stroke="midnightblue" d="M131.536,-24.4473C140.27,-25.4398 149.321,-26.4682 158.311,-27.4899"/>
<polygon fill="midnightblue" stroke="midnightblue" points="158.084,-30.9866 168.416,-28.6382 158.875,-24.0314 158.084,-30.9866"/>
</g>
<!-- Node3 -->
<g id="node5" class="node"><title>Node3</title>
<a xlink:href="namespaceforcebalance_1_1molecule.html#afe989ffd119568047fc8265b1d329a70" target="_top" xlink:title="Matches ANY number; it can be a decimal, scientific notation, integer, or what have you...">
<polygon fill="white" stroke="black" points="352,-6.5 352,-27.5 508,-27.5 508,-6.5 352,-6.5"/>
<text text-anchor="middle" x="430" y="-14.5" font-family="Ubuntu-R" font-size="10.00">forcebalance.molecule.isfloat</text>
</a>
</g>
<!-- Node1&#45;&gt;Node3 -->
<g id="edge6" class="edge"><title>Node1&#45;&gt;Node3</title>
<path fill="none" stroke="midnightblue" d="M131.918,-17C190.647,-17 277.055,-17 341.736,-17"/>
<polygon fill="midnightblue" stroke="midnightblue" points="341.923,-20.5001 351.923,-17 341.923,-13.5001 341.923,-20.5001"/>
</g>
<!-- Node2&#45;&gt;Node3 -->
<g id="edge4" class="edge"><title>Node2&#45;&gt;Node3</title>
<path fill="none" stroke="midnightblue" d="M315.763,-29.1529C324.266,-28.2483 333.001,-27.3191 341.671,-26.3967"/>
<polygon fill="midnightblue" stroke="midnightblue" points="342.228,-29.8573 351.801,-25.319 341.487,-22.8966 342.228,-29.8573"/>
</g>
</g>
</svg>
