<?xml version="1.0" encoding="UTF-8" standalone="no"?>
<!DOCTYPE svg PUBLIC "-//W3C//DTD SVG 1.1//EN"
 "http://www.w3.org/Graphics/SVG/1.1/DTD/svg11.dtd">
<!-- Generated by graphviz version 2.32.0 (20130801.1845)
 -->
<!-- Title: forcebalance.abinitio.AbInitio Pages: 1 -->
<svg width="140pt" height="228pt"
 viewBox="0.00 0.00 140.00 228.00" xmlns="http://www.w3.org/2000/svg" xmlns:xlink="http://www.w3.org/1999/xlink">
<g id="graph0" class="graph" transform="scale(1 1) rotate(0) translate(4 224)">
<title>forcebalance.abinitio.AbInitio</title>
<polygon fill="white" stroke="white" points="-4,5 -4,-224 137,-224 137,5 -4,5"/>
<!-- Node1 -->
<g id="node1" class="node"><title>Node1</title>
<polygon fill="#bfbfbf" stroke="black" points="8.5775,-1 8.5775,-33 123.423,-33 123.423,-1 8.5775,-1"/>
<text text-anchor="start" x="16.5775" y="-20" font-family="Ubuntu-R" font-size="10.00">forcebalance.abinitio.Ab</text>
<text text-anchor="middle" x="66" y="-8" font-family="Ubuntu-R" font-size="10.00">Initio</text>
</g>
<!-- Node2 -->
<g id="node2" class="node"><title>Node2</title>
<g id="a_node2"><a xlink:href="classforcebalance_1_1target_1_1Target.html" target="_top" xlink:title="Base class for all fitting targets.">
<polygon fill="white" stroke="black" points="5.5345,-71 5.5345,-91 126.466,-91 126.466,-71 5.5345,-71"/>
<text text-anchor="middle" x="66" y="-78" font-family="Ubuntu-R" font-size="10.00">forcebalance.target.Target</text>
</a>
</g>
</g>
<!-- Node2&#45;&gt;Node1 -->
<g id="edge1" class="edge"><title>Node2&#45;&gt;Node1</title>
<path fill="none" stroke="midnightblue" d="M66,-60.7747C66,-51.9863 66,-41.715 66,-33.4404"/>
<polygon fill="midnightblue" stroke="midnightblue" points="62.5001,-60.8517 66,-70.8517 69.5001,-60.8517 62.5001,-60.8517"/>
</g>
<!-- Node3 -->
<g id="node3" class="node"><title>Node3</title>
<g id="a_node3"><a xlink:href="classforcebalance_1_1baseclass_1_1ForceBalanceBaseClass.html" target="_top" xlink:title="Provides some nifty functions that are common to all ForceBalance classes.">
<polygon fill="white" stroke="black" points="-0.0195,-129 -0.0195,-161 132.019,-161 132.019,-129 -0.0195,-129"/>
<text text-anchor="start" x="7.9805" y="-148" font-family="Ubuntu-R" font-size="10.00">forcebalance.baseclass.Force</text>
<text text-anchor="middle" x="66" y="-136" font-family="Ubuntu-R" font-size="10.00">BalanceBaseClass</text>
</a>
</g>
</g>
<!-- Node3&#45;&gt;Node2 -->
<g id="edge2" class="edge"><title>Node3&#45;&gt;Node2</title>
<path fill="none" stroke="midnightblue" d="M66,-118.922C66,-109.172 66,-98.6099 66,-91.2904"/>
<polygon fill="midnightblue" stroke="midnightblue" points="62.5001,-118.991 66,-128.992 69.5001,-118.992 62.5001,-118.991"/>
</g>
<!-- Node4 -->
<g id="node4" class="node"><title>Node4</title>
<polygon fill="white" stroke="#bfbfbf" points="45.782,-199 45.782,-219 86.218,-219 86.218,-199 45.782,-199"/>
<text text-anchor="middle" x="66" y="-206" font-family="Ubuntu-R" font-size="10.00">object</text>
</g>
<!-- Node4&#45;&gt;Node3 -->
<g id="edge3" class="edge"><title>Node4&#45;&gt;Node3</title>
<path fill="none" stroke="midnightblue" d="M66,-188.775C66,-179.986 66,-169.715 66,-161.44"/>
<polygon fill="midnightblue" stroke="midnightblue" points="62.5001,-188.852 66,-198.852 69.5001,-188.852 62.5001,-188.852"/>
</g>
</g>
</svg>
