<?xml version="1.0" encoding="UTF-8" standalone="no"?>
<!DOCTYPE svg PUBLIC "-//W3C//DTD SVG 1.1//EN"
 "http://www.w3.org/Graphics/SVG/1.1/DTD/svg11.dtd">
<!-- Generated by graphviz version 2.32.0 (20130801.1845)
 -->
<!-- Title: forcebalance.psi4io.THCDF_Psi4.prepare_temp_directory Pages: 1 -->
<svg width="984pt" height="136pt"
 viewBox="0.00 0.00 984.00 136.00" xmlns="http://www.w3.org/2000/svg" xmlns:xlink="http://www.w3.org/1999/xlink">
<g id="graph0" class="graph" transform="scale(1 1) rotate(0) translate(4 132)">
<title>forcebalance.psi4io.THCDF_Psi4.prepare_temp_directory</title>
<polygon fill="white" stroke="white" points="-4,5 -4,-132 981,-132 981,5 -4,5"/>
<!-- Node1 -->
<g id="node1" class="node"><title>Node1</title>
<polygon fill="#bfbfbf" stroke="black" points="0.6035,-67 0.6035,-99 137.397,-99 137.397,-67 0.6035,-67"/>
<text text-anchor="start" x="8.6035" y="-86" font-family="Ubuntu-R" font-size="10.00">forcebalance.psi4io.THCDF</text>
<text text-anchor="middle" x="69" y="-74" font-family="Ubuntu-R" font-size="10.00">_Psi4.prepare_temp_directory</text>
</g>
<!-- Node2 -->
<g id="node2" class="node"><title>Node2</title>
<g id="a_node2"><a xlink:href="classforcebalance_1_1psi4io_1_1THCDF__Psi4.html#a2fd5e08b9c214fc374167a029270be99" target="_top" xlink:title="forcebalance.psi4io.THCDF\l_Psi4.indicate">
<polygon fill="white" stroke="black" points="174.353,-67 174.353,-99 303.647,-99 303.647,-67 174.353,-67"/>
<text text-anchor="start" x="182.353" y="-86" font-family="Ubuntu-R" font-size="10.00">forcebalance.psi4io.THCDF</text>
<text text-anchor="middle" x="239" y="-74" font-family="Ubuntu-R" font-size="10.00">_Psi4.indicate</text>
</a>
</g>
</g>
<!-- Node1&#45;&gt;Node2 -->
<g id="edge1" class="edge"><title>Node1&#45;&gt;Node2</title>
<path fill="none" stroke="midnightblue" d="M137.848,-83C146.488,-83 155.365,-83 164.094,-83"/>
<polygon fill="midnightblue" stroke="midnightblue" points="164.251,-86.5001 174.251,-83 164.251,-79.5001 164.251,-86.5001"/>
</g>
<!-- Node3 -->
<g id="node3" class="node"><title>Node3</title>
<g id="a_node3"><a xlink:href="classforcebalance_1_1psi4io_1_1THCDF__Psi4.html#ae4389941b46ce11689f45115fdb61b39" target="_top" xlink:title="forcebalance.psi4io.THCDF\l_Psi4.write_nested_destroy">
<polygon fill="white" stroke="black" points="340.353,-67 340.353,-99 469.647,-99 469.647,-67 340.353,-67"/>
<text text-anchor="start" x="348.353" y="-86" font-family="Ubuntu-R" font-size="10.00">forcebalance.psi4io.THCDF</text>
<text text-anchor="middle" x="405" y="-74" font-family="Ubuntu-R" font-size="10.00">_Psi4.write_nested_destroy</text>
</a>
</g>
</g>
<!-- Node2&#45;&gt;Node3 -->
<g id="edge2" class="edge"><title>Node2&#45;&gt;Node3</title>
<path fill="none" stroke="midnightblue" d="M303.876,-83C312.474,-83 321.351,-83 330.104,-83"/>
<polygon fill="midnightblue" stroke="midnightblue" points="330.298,-86.5001 340.298,-83 330.298,-79.5001 330.298,-86.5001"/>
</g>
<!-- Node4 -->
<g id="node4" class="node"><title>Node4</title>
<g id="a_node4"><a xlink:href="classforcebalance_1_1psi4io_1_1THCDF__Psi4.html#a14993bd872840bd869fefced495e7ba2" target="_top" xlink:title="forcebalance.psi4io.THCDF\l_Psi4.driver">
<polygon fill="white" stroke="black" points="506.353,-90 506.353,-122 635.647,-122 635.647,-90 506.353,-90"/>
<text text-anchor="start" x="514.353" y="-109" font-family="Ubuntu-R" font-size="10.00">forcebalance.psi4io.THCDF</text>
<text text-anchor="middle" x="571" y="-97" font-family="Ubuntu-R" font-size="10.00">_Psi4.driver</text>
</a>
</g>
</g>
<!-- Node3&#45;&gt;Node4 -->
<g id="edge3" class="edge"><title>Node3&#45;&gt;Node4</title>
<path fill="none" stroke="midnightblue" d="M469.876,-85.357C478.567,-86.4311 487.544,-87.6509 496.39,-88.9581"/>
<polygon fill="midnightblue" stroke="midnightblue" points="495.885,-92.4215 506.298,-90.4678 496.939,-85.5014 495.885,-92.4215"/>
</g>
<!-- Node7 -->
<g id="node7" class="node"><title>Node7</title>
<g id="a_node7"><a xlink:href="namespaceforcebalance_1_1finite__difference.html#ad84d3e385db1190e7d8ef58bc08a6c52" target="_top" xlink:title="Invoking this function from anywhere will tell us whether we&#39;re being called by a finite&#45;difference f...">
<polygon fill="white" stroke="black" points="682.662,-45 682.662,-77 773.338,-77 773.338,-45 682.662,-45"/>
<text text-anchor="start" x="690.662" y="-64" font-family="Ubuntu-R" font-size="10.00">forcebalance.finite</text>
<text text-anchor="middle" x="728" y="-52" font-family="Ubuntu-R" font-size="10.00">_difference.in_fd</text>
</a>
</g>
</g>
<!-- Node3&#45;&gt;Node7 -->
<g id="edge8" class="edge"><title>Node3&#45;&gt;Node7</title>
<path fill="none" stroke="midnightblue" d="M469.803,-78.6272C529.014,-74.5691 616.218,-68.5925 672.315,-64.7479"/>
<polygon fill="midnightblue" stroke="midnightblue" points="672.677,-68.2314 682.414,-64.0558 672.198,-61.2478 672.677,-68.2314"/>
</g>
<!-- Node8 -->
<g id="node8" class="node"><title>Node8</title>
<g id="a_node8"><a xlink:href="namespaceforcebalance_1_1leastsq.html#a8e7ef329e27aff738bc91dd79bd2dd1c" target="_top" xlink:title="forcebalance.leastsq.Check\lBasis">
<polygon fill="white" stroke="black" points="508.584,-0 508.584,-32 633.416,-32 633.416,-0 508.584,-0"/>
<text text-anchor="start" x="516.584" y="-19" font-family="Ubuntu-R" font-size="10.00">forcebalance.leastsq.Check</text>
<text text-anchor="middle" x="571" y="-7" font-family="Ubuntu-R" font-size="10.00">Basis</text>
</a>
</g>
</g>
<!-- Node3&#45;&gt;Node8 -->
<g id="edge9" class="edge"><title>Node3&#45;&gt;Node8</title>
<path fill="none" stroke="midnightblue" d="M445.282,-66.9518C468.12,-57.6216 497.092,-45.7855 521.363,-35.87"/>
<polygon fill="midnightblue" stroke="midnightblue" points="522.821,-39.0552 530.755,-32.0332 520.174,-32.5751 522.821,-39.0552"/>
</g>
<!-- Node4&#45;&gt;Node3 -->
<g id="edge4" class="edge"><title>Node4&#45;&gt;Node3</title>
<path fill="none" stroke="midnightblue" d="M506.298,-103.665C497.611,-102.592 488.635,-101.374 479.788,-100.068"/>
<polygon fill="midnightblue" stroke="midnightblue" points="480.289,-96.6042 469.876,-98.5595 479.236,-103.524 480.289,-96.6042"/>
</g>
<!-- Node5 -->
<g id="node5" class="node"><title>Node5</title>
<g id="a_node5"><a xlink:href="namespaceforcebalance_1_1nifty.html#abb8f59044961a12588e0653c2baa8b01" target="_top" xlink:title="forcebalance.nifty.warn\l_press_key">
<polygon fill="white" stroke="black" points="672.528,-96 672.528,-128 783.472,-128 783.472,-96 672.528,-96"/>
<text text-anchor="start" x="680.528" y="-115" font-family="Ubuntu-R" font-size="10.00">forcebalance.nifty.warn</text>
<text text-anchor="middle" x="728" y="-103" font-family="Ubuntu-R" font-size="10.00">_press_key</text>
</a>
</g>
</g>
<!-- Node4&#45;&gt;Node5 -->
<g id="edge5" class="edge"><title>Node4&#45;&gt;Node5</title>
<path fill="none" stroke="midnightblue" d="M635.939,-108.475C644.57,-108.809 653.433,-109.152 662.081,-109.487"/>
<polygon fill="midnightblue" stroke="midnightblue" points="661.979,-112.986 672.107,-109.875 662.25,-105.991 661.979,-112.986"/>
</g>
<!-- Node4&#45;&gt;Node7 -->
<g id="edge7" class="edge"><title>Node4&#45;&gt;Node7</title>
<path fill="none" stroke="midnightblue" d="M627.521,-89.8811C642.201,-85.619 658.029,-81.0239 672.646,-76.7801"/>
<polygon fill="midnightblue" stroke="midnightblue" points="673.917,-80.0559 682.544,-73.9065 671.965,-73.3335 673.917,-80.0559"/>
</g>
<!-- Node6 -->
<g id="node6" class="node"><title>Node6</title>
<g id="a_node6"><a xlink:href="namespaceforcebalance_1_1nifty.html#a2fc81730e7efa7d138dd86f733507bfc" target="_top" xlink:title="Similar to the bultin function map().">
<polygon fill="white" stroke="black" points="820.035,-102 820.035,-122 975.965,-122 975.965,-102 820.035,-102"/>
<text text-anchor="middle" x="898" y="-109" font-family="Ubuntu-R" font-size="10.00">forcebalance.nifty.concurrent_map</text>
</a>
</g>
</g>
<!-- Node5&#45;&gt;Node6 -->
<g id="edge6" class="edge"><title>Node5&#45;&gt;Node6</title>
<path fill="none" stroke="midnightblue" d="M783.545,-112C791.968,-112 800.843,-112 809.768,-112"/>
<polygon fill="midnightblue" stroke="midnightblue" points="809.843,-115.5 819.843,-112 809.843,-108.5 809.843,-115.5"/>
</g>
</g>
</svg>
