<?xml version="1.0" encoding="UTF-8" standalone="no"?>
<!DOCTYPE svg PUBLIC "-//W3C//DTD SVG 1.1//EN"
 "http://www.w3.org/Graphics/SVG/1.1/DTD/svg11.dtd">
<!-- Generated by graphviz version 2.32.0 (20130801.1845)
 -->
<!-- Title: forcebalance.interactions.Interactions.__init__ Pages: 1 -->
<svg width="644pt" height="40pt"
 viewBox="0.00 0.00 644.00 40.00" xmlns="http://www.w3.org/2000/svg" xmlns:xlink="http://www.w3.org/1999/xlink">
<g id="graph0" class="graph" transform="scale(1 1) rotate(0) translate(4 36)">
<title>forcebalance.interactions.Interactions.__init__</title>
<polygon fill="white" stroke="white" points="-4,5 -4,-36 641,-36 641,5 -4,5"/>
<!-- Node1 -->
<g id="node1" class="node"><title>Node1</title>
<polygon fill="#bfbfbf" stroke="black" points="0.639,-0 0.639,-32 119.361,-32 119.361,-0 0.639,-0"/>
<text text-anchor="start" x="8.639" y="-19" font-family="Ubuntu-R" font-size="10.00">forcebalance.interactions.</text>
<text text-anchor="middle" x="60" y="-7" font-family="Ubuntu-R" font-size="10.00">Interactions.__init__</text>
</g>
<!-- Node2 -->
<g id="node2" class="node"><title>Node2</title>
<g id="a_node2"><a xlink:href="namespaceforcebalance_1_1interactions.html#a691a769ac8494a1aba28330f12173812" target="_top" xlink:title="Parse through the interactions input file.">
<polygon fill="white" stroke="black" points="156.091,-0 156.091,-32 295.909,-32 295.909,-0 156.091,-0"/>
<text text-anchor="start" x="164.091" y="-19" font-family="Ubuntu-R" font-size="10.00">forcebalance.interactions.parse</text>
<text text-anchor="middle" x="226" y="-7" font-family="Ubuntu-R" font-size="10.00">_interactions</text>
</a>
</g>
</g>
<!-- Node1&#45;&gt;Node2 -->
<g id="edge1" class="edge"><title>Node1&#45;&gt;Node2</title>
<path fill="none" stroke="midnightblue" d="M119.745,-16C128.2,-16 137.016,-16 145.788,-16"/>
<polygon fill="midnightblue" stroke="midnightblue" points="146.043,-19.5001 156.043,-16 146.043,-12.5001 146.043,-19.5001"/>
</g>
<!-- Node3 -->
<g id="node3" class="node"><title>Node3</title>
<g id="a_node3"><a xlink:href="namespaceforcebalance_1_1nifty.html#abb8f59044961a12588e0653c2baa8b01" target="_top" xlink:title="forcebalance.nifty.warn\l_press_key">
<polygon fill="white" stroke="black" points="332.527,-0 332.527,-32 443.473,-32 443.473,-0 332.527,-0"/>
<text text-anchor="start" x="340.527" y="-19" font-family="Ubuntu-R" font-size="10.00">forcebalance.nifty.warn</text>
<text text-anchor="middle" x="388" y="-7" font-family="Ubuntu-R" font-size="10.00">_press_key</text>
</a>
</g>
</g>
<!-- Node2&#45;&gt;Node3 -->
<g id="edge2" class="edge"><title>Node2&#45;&gt;Node3</title>
<path fill="none" stroke="midnightblue" d="M296.248,-16C304.774,-16 313.466,-16 321.927,-16"/>
<polygon fill="midnightblue" stroke="midnightblue" points="322.107,-19.5001 332.107,-16 322.107,-12.5001 322.107,-19.5001"/>
</g>
<!-- Node4 -->
<g id="node4" class="node"><title>Node4</title>
<g id="a_node4"><a xlink:href="namespaceforcebalance_1_1nifty.html#a2fc81730e7efa7d138dd86f733507bfc" target="_top" xlink:title="Similar to the bultin function map().">
<polygon fill="white" stroke="black" points="480.035,-6 480.035,-26 635.965,-26 635.965,-6 480.035,-6"/>
<text text-anchor="middle" x="558" y="-13" font-family="Ubuntu-R" font-size="10.00">forcebalance.nifty.concurrent_map</text>
</a>
</g>
</g>
<!-- Node3&#45;&gt;Node4 -->
<g id="edge3" class="edge"><title>Node3&#45;&gt;Node4</title>
<path fill="none" stroke="midnightblue" d="M443.545,-16C451.968,-16 460.843,-16 469.768,-16"/>
<polygon fill="midnightblue" stroke="midnightblue" points="469.843,-19.5001 479.843,-16 469.843,-12.5001 469.843,-19.5001"/>
</g>
</g>
</svg>
