<?xml version="1.0" encoding="UTF-8" standalone="no"?>
<!DOCTYPE svg PUBLIC "-//W3C//DTD SVG 1.1//EN"
 "http://www.w3.org/Graphics/SVG/1.1/DTD/svg11.dtd">
<!-- Generated by graphviz version 2.28.0 (20111219.2309)
 -->
<!-- Title: G Pages: 1 -->
<svg width="2540pt" height="332pt"
 viewBox="0.00 0.00 2540.00 332.00" xmlns="http://www.w3.org/2000/svg" xmlns:xlink="http://www.w3.org/1999/xlink">
<g id="graph1" class="graph" transform="scale(1 1) rotate(0) translate(4 328)">
<title>G</title>
<polygon fill="white" stroke="white" points="-4,5 -4,-328 2537,-328 2537,5 -4,5"/>
<!-- Node1 -->
<g id="node1" class="node"><title>Node1</title>
<polygon fill="#bfbfbf" stroke="black" points="0.5,-171.5 0.5,-190.5 209.5,-190.5 209.5,-171.5 0.5,-171.5"/>
<text text-anchor="middle" x="105" y="-178.5" font-family="Ubuntu-R" font-size="10.00">forcebalance.forcefield.FF.make_redirect</text>
</g>
<!-- Node2 -->
<g id="node3" class="node"><title>Node2</title>
<a xlink:href="classforcebalance_1_1forcefield_1_1FF.html#a260031479e0429e497f56987de541930" target="_top" xlink:title="Converts mathematical to physical parameters.">
<polygon fill="white" stroke="black" points="486,-133.5 486,-152.5 686,-152.5 686,-133.5 486,-133.5"/>
<text text-anchor="middle" x="586" y="-140.5" font-family="Ubuntu-R" font-size="10.00">forcebalance.forcefield.FF.create_pvals</text>
</a>
</g>
<!-- Node1&#45;&gt;Node2 -->
<g id="edge2" class="edge"><title>Node1&#45;&gt;Node2</title>
<path fill="none" stroke="midnightblue" d="M209.664,-177.562C278.029,-174.732 369.487,-169.875 450,-162 471.256,-159.921 494.3,-156.947 515.23,-153.967"/>
<polygon fill="midnightblue" stroke="midnightblue" points="515.922,-157.404 525.318,-152.508 514.92,-150.476 515.922,-157.404"/>
</g>
<!-- Node8 -->
<g id="node17" class="node"><title>Node8</title>
<a xlink:href="namespaceforcebalance_1_1nifty.html#abb8f59044961a12588e0653c2baa8b01" target="_top" xlink:title="forcebalance.nifty.warn_press_key">
<polygon fill="white" stroke="black" points="1206.5,-257.5 1206.5,-276.5 1385.5,-276.5 1385.5,-257.5 1206.5,-257.5"/>
<text text-anchor="middle" x="1296" y="-264.5" font-family="Ubuntu-R" font-size="10.00">forcebalance.nifty.warn_press_key</text>
</a>
</g>
<!-- Node1&#45;&gt;Node8 -->
<g id="edge66" class="edge"><title>Node1&#45;&gt;Node8</title>
<path fill="none" stroke="midnightblue" d="M133.959,-190.544C207.11,-214.635 410.566,-276 585,-276 585,-276 585,-276 825,-276 953.154,-276 1100.93,-272.614 1196.03,-269.995"/>
<polygon fill="midnightblue" stroke="midnightblue" points="1196.32,-273.489 1206.22,-269.713 1196.12,-266.492 1196.32,-273.489"/>
</g>
<!-- Node24 -->
<g id="node55" class="node"><title>Node24</title>
<a xlink:href="classforcebalance_1_1forcefield_1_1FF.html#a2515e2361eb460edeab69f3d7742d3d9" target="_top" xlink:title="forcebalance.forcefield.FF.find_spacings">
<polygon fill="white" stroke="black" points="246,-133.5 246,-152.5 450,-152.5 450,-133.5 246,-133.5"/>
<text text-anchor="middle" x="348" y="-140.5" font-family="Ubuntu-R" font-size="10.00">forcebalance.forcefield.FF.find_spacings</text>
</a>
</g>
<!-- Node1&#45;&gt;Node24 -->
<g id="edge62" class="edge"><title>Node1&#45;&gt;Node24</title>
<path fill="none" stroke="midnightblue" d="M166.503,-171.46C199.879,-166.197 241.5,-159.635 276.36,-154.138"/>
<polygon fill="midnightblue" stroke="midnightblue" points="277.139,-157.559 286.472,-152.544 276.049,-150.644 277.139,-157.559"/>
</g>
<!-- Node3 -->
<g id="node5" class="node"><title>Node3</title>
<a xlink:href="namespaceforcebalance_1_1nifty.html#a52114ceee9d55f94d9aecb3e176de294" target="_top" xlink:title="Given any list, array, or matrix, return a single&#45;index array.">
<polygon fill="white" stroke="black" points="765,-114.5 765,-133.5 883,-133.5 883,-114.5 765,-114.5"/>
<text text-anchor="middle" x="824" y="-121.5" font-family="Ubuntu-R" font-size="10.00">forcebalance.nifty.flat</text>
</a>
</g>
<!-- Node2&#45;&gt;Node3 -->
<g id="edge4" class="edge"><title>Node2&#45;&gt;Node3</title>
<path fill="none" stroke="midnightblue" d="M686.059,-135.025C709.254,-133.158 733.451,-131.209 754.939,-129.479"/>
<polygon fill="midnightblue" stroke="midnightblue" points="755.243,-132.966 764.93,-128.675 754.681,-125.989 755.243,-132.966"/>
</g>
<!-- Node4 -->
<g id="node7" class="node"><title>Node4</title>
<a xlink:href="namespaceforcebalance_1_1nifty.html#a4c82187e92dfeb8a159f4aa44b501c40" target="_top" xlink:title="Invert a matrix using singular value decomposition.">
<polygon fill="white" stroke="black" points="986,-152.5 986,-171.5 1138,-171.5 1138,-152.5 986,-152.5"/>
<text text-anchor="middle" x="1062" y="-159.5" font-family="Ubuntu-R" font-size="10.00">forcebalance.nifty.invert_svd</text>
</a>
</g>
<!-- Node2&#45;&gt;Node4 -->
<g id="edge30" class="edge"><title>Node2&#45;&gt;Node4</title>
<path fill="none" stroke="midnightblue" d="M686.077,-146.971C771.704,-150.404 894.17,-155.313 975.558,-158.575"/>
<polygon fill="midnightblue" stroke="midnightblue" points="975.637,-162.081 985.769,-158.984 975.917,-155.087 975.637,-162.081"/>
</g>
<!-- Node7 -->
<g id="node14" class="node"><title>Node7</title>
<a xlink:href="namespaceforcebalance_1_1nifty.html#afb3f205bce4984856e766af7e9fdaca8" target="_top" xlink:title="Given any list, array, or matrix, return a 1&#45;column matrix.">
<polygon fill="white" stroke="black" points="1860,-114.5 1860,-133.5 1976,-133.5 1976,-114.5 1860,-114.5"/>
<text text-anchor="middle" x="1918" y="-121.5" font-family="Ubuntu-R" font-size="10.00">forcebalance.nifty.col</text>
</a>
</g>
<!-- Node2&#45;&gt;Node7 -->
<g id="edge22" class="edge"><title>Node2&#45;&gt;Node7</title>
<path fill="none" stroke="midnightblue" d="M614.659,-133.456C687.028,-109.365 888.318,-48 1061,-48 1061,-48 1061,-48 1532,-48 1659.53,-48 1692.08,-58.8739 1816,-89 1839.14,-94.6253 1864.46,-103.405 1883.96,-110.764"/>
<polygon fill="midnightblue" stroke="midnightblue" points="1882.71,-114.035 1893.3,-114.349 1885.22,-107.5 1882.71,-114.035"/>
</g>
<!-- Node10 -->
<g id="node22" class="node"><title>Node10</title>
<a xlink:href="classforcebalance_1_1forcefield_1_1FF.html#ae5fba4d3e22f210632ead3653e6e12dd" target="_top" xlink:title="Converts physical to mathematical parameters.">
<polygon fill="white" stroke="black" points="722,-0.5 722,-19.5 926,-19.5 926,-0.5 722,-0.5"/>
<text text-anchor="middle" x="824" y="-7.5" font-family="Ubuntu-R" font-size="10.00">forcebalance.forcefield.FF.create_mvals</text>
</a>
</g>
<!-- Node2&#45;&gt;Node10 -->
<g id="edge24" class="edge"><title>Node2&#45;&gt;Node10</title>
<path fill="none" stroke="midnightblue" d="M595.79,-133.445C615.941,-112.142 667.916,-60.5449 722,-34 731.786,-29.197 742.586,-25.3238 753.374,-22.2092"/>
<polygon fill="midnightblue" stroke="midnightblue" points="754.499,-25.5312 763.249,-19.5572 752.683,-18.7707 754.499,-25.5312"/>
</g>
<!-- Node13 -->
<g id="node29" class="node"><title>Node13</title>
<a xlink:href="classforcebalance_1_1forcefield_1_1FF.html#a88715f96ff8e14c3c83b4f976ad147b4" target="_top" xlink:title="Create the rescaling factors for the coordinate transformation in parameter space.">
<polygon fill="white" stroke="black" points="736,-190.5 736,-209.5 912,-209.5 912,-190.5 736,-190.5"/>
<text text-anchor="middle" x="824" y="-197.5" font-family="Ubuntu-R" font-size="10.00">forcebalance.forcefield.FF.rsmake</text>
</a>
</g>
<!-- Node2&#45;&gt;Node13 -->
<g id="edge32" class="edge"><title>Node2&#45;&gt;Node13</title>
<path fill="none" stroke="midnightblue" d="M625.682,-152.526C652.664,-159.153 689.514,-168.17 722,-176 738.541,-179.987 756.618,-184.297 772.848,-188.15"/>
<polygon fill="midnightblue" stroke="midnightblue" points="772.147,-191.581 782.685,-190.483 773.762,-184.77 772.147,-191.581"/>
</g>
<!-- Node3&#45;&gt;Node4 -->
<g id="edge6" class="edge"><title>Node3&#45;&gt;Node4</title>
<path fill="none" stroke="midnightblue" d="M883.034,-133.345C915.952,-138.645 957.349,-145.31 991.932,-150.879"/>
<polygon fill="midnightblue" stroke="midnightblue" points="991.53,-154.359 1001.96,-152.493 992.643,-147.448 991.53,-154.359"/>
</g>
<!-- Node5 -->
<g id="node9" class="node"><title>Node5</title>
<a xlink:href="namespaceforcebalance_1_1nifty.html#aa9fb9c7c65231eca50a7afc04f489b64" target="_top" xlink:title="forcebalance.nifty.get_least_squares">
<polygon fill="white" stroke="black" points="1200.5,-114.5 1200.5,-133.5 1391.5,-133.5 1391.5,-114.5 1200.5,-114.5"/>
<text text-anchor="middle" x="1296" y="-121.5" font-family="Ubuntu-R" font-size="10.00">forcebalance.nifty.get_least_squares</text>
</a>
</g>
<!-- Node4&#45;&gt;Node5 -->
<g id="edge8" class="edge"><title>Node4&#45;&gt;Node5</title>
<path fill="none" stroke="midnightblue" d="M1121.24,-152.46C1153.24,-147.22 1193.1,-140.691 1226.57,-135.209"/>
<polygon fill="midnightblue" stroke="midnightblue" points="1227.43,-138.614 1236.73,-133.544 1226.3,-131.706 1227.43,-138.614"/>
</g>
<!-- Node4&#45;&gt;Node7 -->
<g id="edge14" class="edge"><title>Node4&#45;&gt;Node7</title>
<path fill="none" stroke="midnightblue" d="M1138.05,-160.287C1246.93,-157.622 1455.05,-151.85 1632,-143 1706.64,-139.267 1792.17,-133.345 1849.9,-129.104"/>
<polygon fill="midnightblue" stroke="midnightblue" points="1850.27,-132.586 1859.99,-128.36 1849.75,-125.605 1850.27,-132.586"/>
</g>
<!-- Node4&#45;&gt;Node8 -->
<g id="edge18" class="edge"><title>Node4&#45;&gt;Node8</title>
<path fill="none" stroke="midnightblue" d="M1131.36,-171.54C1141.82,-174.017 1152.34,-177.12 1162,-181 1205.83,-198.596 1250.71,-231.291 1275.51,-250.905"/>
<polygon fill="midnightblue" stroke="midnightblue" points="1273.42,-253.716 1283.4,-257.251 1277.8,-248.259 1273.42,-253.716"/>
</g>
<!-- Node5&#45;&gt;Node3 -->
<g id="edge10" class="edge"><title>Node5&#45;&gt;Node3</title>
<path fill="none" stroke="midnightblue" d="M1200.49,-124C1109.49,-124 974.095,-124 893.178,-124"/>
<polygon fill="midnightblue" stroke="midnightblue" points="893.103,-120.5 883.103,-124 893.103,-127.5 893.103,-120.5"/>
</g>
<!-- Node6 -->
<g id="node12" class="node"><title>Node6</title>
<a xlink:href="namespaceforcebalance_1_1nifty.html#ad5ca60565c864b4245a8212fe9d92e10" target="_top" xlink:title="Compute the (cross) statistical inefficiency of (two) timeseries.">
<polygon fill="white" stroke="black" points="1430.5,-114.5 1430.5,-133.5 1631.5,-133.5 1631.5,-114.5 1430.5,-114.5"/>
<text text-anchor="middle" x="1531" y="-121.5" font-family="Ubuntu-R" font-size="10.00">forcebalance.nifty.statisticalInefficiency</text>
</a>
</g>
<!-- Node5&#45;&gt;Node6 -->
<g id="edge12" class="edge"><title>Node5&#45;&gt;Node6</title>
<path fill="none" stroke="midnightblue" d="M1391.77,-124C1401.11,-124 1410.65,-124 1420.13,-124"/>
<polygon fill="midnightblue" stroke="midnightblue" points="1420.38,-127.5 1430.38,-124 1420.38,-120.5 1420.38,-127.5"/>
</g>
<!-- Node7&#45;&gt;Node3 -->
<g id="edge16" class="edge"><title>Node7&#45;&gt;Node3</title>
<path fill="none" stroke="midnightblue" d="M1859.77,-114.801C1784.73,-103.555 1648.87,-86 1532,-86 1295,-86 1295,-86 1295,-86 1151.59,-86 984.362,-103.795 893.07,-115.03"/>
<polygon fill="midnightblue" stroke="midnightblue" points="892.621,-111.559 883.129,-116.264 893.484,-118.505 892.621,-111.559"/>
</g>
<!-- Node9 -->
<g id="node19" class="node"><title>Node9</title>
<a xlink:href="namespaceforcebalance_1_1nifty.html#a2fc81730e7efa7d138dd86f733507bfc" target="_top" xlink:title="Similar to the bultin function map().">
<polygon fill="white" stroke="black" points="1440,-247.5 1440,-266.5 1622,-266.5 1622,-247.5 1440,-247.5"/>
<text text-anchor="middle" x="1531" y="-254.5" font-family="Ubuntu-R" font-size="10.00">forcebalance.nifty.concurrent_map</text>
</a>
</g>
<!-- Node8&#45;&gt;Node9 -->
<g id="edge20" class="edge"><title>Node8&#45;&gt;Node9</title>
<path fill="none" stroke="midnightblue" d="M1385.75,-263.191C1400.17,-262.572 1415.19,-261.927 1429.86,-261.298"/>
<polygon fill="midnightblue" stroke="midnightblue" points="1430.11,-264.79 1439.95,-260.865 1429.81,-257.797 1430.11,-264.79"/>
</g>
<!-- Node11 -->
<g id="node24" class="node"><title>Node11</title>
<a xlink:href="namespaceforcebalance_1_1molecule.html#a0dd31eff88d2bed0884ab21a13261d42" target="_top" xlink:title="ONLY matches integers! If you have a decimal point? None shall pass!">
<polygon fill="white" stroke="black" points="988.5,-0.5 988.5,-19.5 1135.5,-19.5 1135.5,-0.5 988.5,-0.5"/>
<text text-anchor="middle" x="1062" y="-7.5" font-family="Ubuntu-R" font-size="10.00">forcebalance.molecule.isint</text>
</a>
</g>
<!-- Node10&#45;&gt;Node11 -->
<g id="edge26" class="edge"><title>Node10&#45;&gt;Node11</title>
<path fill="none" stroke="midnightblue" d="M926.112,-10C943.414,-10 961.21,-10 977.972,-10"/>
<polygon fill="midnightblue" stroke="midnightblue" points="978.261,-13.5001 988.261,-10 978.261,-6.5001 978.261,-13.5001"/>
</g>
<!-- Node12 -->
<g id="node26" class="node"><title>Node12</title>
<a xlink:href="namespaceforcebalance_1_1molecule.html#afe989ffd119568047fc8265b1d329a70" target="_top" xlink:title="Matches ANY number; it can be a decimal, scientific notation, integer, or what have you...">
<polygon fill="white" stroke="black" points="1218,-0.5 1218,-19.5 1374,-19.5 1374,-0.5 1218,-0.5"/>
<text text-anchor="middle" x="1296" y="-7.5" font-family="Ubuntu-R" font-size="10.00">forcebalance.molecule.isfloat</text>
</a>
</g>
<!-- Node11&#45;&gt;Node12 -->
<g id="edge28" class="edge"><title>Node11&#45;&gt;Node12</title>
<path fill="none" stroke="midnightblue" d="M1135.77,-10C1158.56,-10 1183.95,-10 1207.64,-10"/>
<polygon fill="midnightblue" stroke="midnightblue" points="1207.67,-13.5001 1217.67,-10 1207.67,-6.5001 1207.67,-13.5001"/>
</g>
<!-- Node14 -->
<g id="node31" class="node"><title>Node14</title>
<a xlink:href="namespaceforcebalance_1_1forcefield.html#ab1a855bace20dd5e45928467e2a133f1" target="_top" xlink:title="This function takes in a dictionary (rsfactors) and a string (termtype).">
<polygon fill="white" stroke="black" points="971.5,-228.5 971.5,-247.5 1152.5,-247.5 1152.5,-228.5 971.5,-228.5"/>
<text text-anchor="middle" x="1062" y="-235.5" font-family="Ubuntu-R" font-size="10.00">forcebalance.forcefield.rs_override</text>
</a>
</g>
<!-- Node13&#45;&gt;Node14 -->
<g id="edge34" class="edge"><title>Node13&#45;&gt;Node14</title>
<path fill="none" stroke="midnightblue" d="M884.248,-209.54C916.932,-214.803 957.688,-221.365 991.826,-226.862"/>
<polygon fill="midnightblue" stroke="midnightblue" points="991.298,-230.322 1001.73,-228.456 992.411,-223.411 991.298,-230.322"/>
</g>
<!-- Node15 -->
<g id="node33" class="node"><title>Node15</title>
<a xlink:href="namespaceforcebalance_1_1nifty.html#a11babd62dc7bca389162c6318f9672ca" target="_top" xlink:title="Cool&#45;looking printout for slick formatting of output.">
<polygon fill="white" stroke="black" points="990,-304.5 990,-323.5 1134,-323.5 1134,-304.5 990,-304.5"/>
<text text-anchor="middle" x="1062" y="-311.5" font-family="Ubuntu-R" font-size="10.00">forcebalance.nifty.printcool</text>
</a>
</g>
<!-- Node13&#45;&gt;Node15 -->
<g id="edge36" class="edge"><title>Node13&#45;&gt;Node15</title>
<path fill="none" stroke="midnightblue" d="M844.715,-209.523C886.362,-229.641 983.455,-276.542 1032.12,-300.049"/>
<polygon fill="midnightblue" stroke="midnightblue" points="1030.65,-303.225 1041.17,-304.423 1033.69,-296.922 1030.65,-303.225"/>
</g>
<!-- Node23 -->
<g id="node53" class="node"><title>Node23</title>
<a xlink:href="classforcebalance_1_1forcefield_1_1FF.html#acf0ce8fc4e9fbf5257f93d14d4a4f10f" target="_top" xlink:title="Create the transformation matrix to rescale and rotate the mathematical parameters.">
<polygon fill="white" stroke="black" points="962.5,-190.5 962.5,-209.5 1161.5,-209.5 1161.5,-190.5 962.5,-190.5"/>
<text text-anchor="middle" x="1062" y="-197.5" font-family="Ubuntu-R" font-size="10.00">forcebalance.forcefield.FF.mktransmat</text>
</a>
</g>
<!-- Node13&#45;&gt;Node23 -->
<g id="edge60" class="edge"><title>Node13&#45;&gt;Node23</title>
<path fill="none" stroke="midnightblue" d="M912.207,-200C925.182,-200 938.69,-200 952.043,-200"/>
<polygon fill="midnightblue" stroke="midnightblue" points="952.213,-203.5 962.213,-200 952.213,-196.5 952.213,-203.5"/>
</g>
<!-- Node15&#45;&gt;Node8 -->
<g id="edge38" class="edge"><title>Node15&#45;&gt;Node8</title>
<path fill="none" stroke="midnightblue" d="M1109.95,-304.489C1146.85,-297.012 1198.42,-286.565 1237.75,-278.598"/>
<polygon fill="midnightblue" stroke="midnightblue" points="1238.62,-281.993 1247.72,-276.578 1237.23,-275.133 1238.62,-281.993"/>
</g>
<!-- Node16 -->
<g id="node36" class="node"><title>Node16</title>
<a xlink:href="namespaceforcebalance_1_1nifty.html#a51180e960742cc7547749fdfb3513ec4" target="_top" xlink:title="See documentation for printcool; this is a nice way to print out keys/values in a dictionary...">
<polygon fill="white" stroke="black" points="1198,-304.5 1198,-323.5 1394,-323.5 1394,-304.5 1198,-304.5"/>
<text text-anchor="middle" x="1296" y="-311.5" font-family="Ubuntu-R" font-size="10.00">forcebalance.nifty.printcool_dictionary</text>
</a>
</g>
<!-- Node15&#45;&gt;Node16 -->
<g id="edge40" class="edge"><title>Node15&#45;&gt;Node16</title>
<path fill="none" stroke="midnightblue" d="M1134.18,-314C1151.15,-314 1169.64,-314 1187.83,-314"/>
<polygon fill="midnightblue" stroke="midnightblue" points="1187.89,-317.5 1197.89,-314 1187.89,-310.5 1187.89,-317.5"/>
</g>
<!-- Node17 -->
<g id="node38" class="node"><title>Node17</title>
<a xlink:href="namespaceforcebalance_1_1nifty.html#a3f1c7a1af9d35d5d1693074bc6f5497c" target="_top" xlink:title="ONLY matches integers! If you have a decimal point? None shall pass!">
<polygon fill="white" stroke="black" points="1470,-285.5 1470,-304.5 1592,-304.5 1592,-285.5 1470,-285.5"/>
<text text-anchor="middle" x="1531" y="-292.5" font-family="Ubuntu-R" font-size="10.00">forcebalance.nifty.isint</text>
</a>
</g>
<!-- Node16&#45;&gt;Node17 -->
<g id="edge42" class="edge"><title>Node16&#45;&gt;Node17</title>
<path fill="none" stroke="midnightblue" d="M1394.13,-306.08C1416.13,-304.285 1439.08,-302.414 1459.73,-300.73"/>
<polygon fill="midnightblue" stroke="midnightblue" points="1460.29,-304.196 1469.98,-299.895 1459.73,-297.219 1460.29,-304.196"/>
</g>
<!-- Node19 -->
<g id="node42" class="node"><title>Node19</title>
<a xlink:href="namespaceforcebalance_1_1nifty.html#a8e3ef0108b9d37b82ba0dced7c6037ae" target="_top" xlink:title="Matches ANY number; it can be a decimal, scientific notation, what have you CAUTION &#45; this will also ...">
<polygon fill="white" stroke="black" points="1852.5,-285.5 1852.5,-304.5 1983.5,-304.5 1983.5,-285.5 1852.5,-285.5"/>
<text text-anchor="middle" x="1918" y="-292.5" font-family="Ubuntu-R" font-size="10.00">forcebalance.nifty.isfloat</text>
</a>
</g>
<!-- Node16&#45;&gt;Node19 -->
<g id="edge58" class="edge"><title>Node16&#45;&gt;Node19</title>
<path fill="none" stroke="midnightblue" d="M1394.28,-317.277C1498.72,-319.812 1669.4,-321.115 1816,-309 1825.79,-308.191 1836.08,-307.075 1846.2,-305.822"/>
<polygon fill="midnightblue" stroke="midnightblue" points="1846.76,-309.279 1856.23,-304.531 1845.87,-302.336 1846.76,-309.279"/>
</g>
<!-- Node18 -->
<g id="node40" class="node"><title>Node18</title>
<a xlink:href="namespaceforcebalance_1_1nifty.html#a09263927eaec9deff283fbf1a820242f" target="_top" xlink:title="Matches things with a decimal only; see isint and isfloat.">
<polygon fill="white" stroke="black" points="1668,-247.5 1668,-266.5 1816,-266.5 1816,-247.5 1668,-247.5"/>
<text text-anchor="middle" x="1742" y="-254.5" font-family="Ubuntu-R" font-size="10.00">forcebalance.nifty.isdecimal</text>
</a>
</g>
<!-- Node17&#45;&gt;Node18 -->
<g id="edge44" class="edge"><title>Node17&#45;&gt;Node18</title>
<path fill="none" stroke="midnightblue" d="M1584.47,-285.46C1613.04,-280.265 1648.58,-273.804 1678.57,-268.351"/>
<polygon fill="midnightblue" stroke="midnightblue" points="1679.3,-271.776 1688.51,-266.544 1678.04,-264.889 1679.3,-271.776"/>
</g>
<!-- Node18&#45;&gt;Node7 -->
<g id="edge56" class="edge"><title>Node18&#45;&gt;Node7</title>
<path fill="none" stroke="midnightblue" d="M1755.51,-247.435C1785.09,-224.827 1859.57,-167.9 1896.11,-139.964"/>
<polygon fill="midnightblue" stroke="midnightblue" points="1898.31,-142.691 1904.13,-133.837 1894.06,-137.129 1898.31,-142.691"/>
</g>
<!-- Node18&#45;&gt;Node19 -->
<g id="edge46" class="edge"><title>Node18&#45;&gt;Node19</title>
<path fill="none" stroke="midnightblue" d="M1786.91,-266.589C1810.18,-271.671 1838.95,-277.955 1863.52,-283.32"/>
<polygon fill="midnightblue" stroke="midnightblue" points="1862.89,-286.766 1873.41,-285.48 1864.39,-279.927 1862.89,-286.766"/>
</g>
<!-- Node19&#45;&gt;Node17 -->
<g id="edge48" class="edge"><title>Node19&#45;&gt;Node17</title>
<path fill="none" stroke="midnightblue" d="M1852.45,-295C1783.26,-295 1673.77,-295 1602.4,-295"/>
<polygon fill="midnightblue" stroke="midnightblue" points="1602.16,-291.5 1592.16,-295 1602.16,-298.5 1602.16,-291.5"/>
</g>
<!-- Node20 -->
<g id="node45" class="node"><title>Node20</title>
<a xlink:href="namespaceforcebalance_1_1nifty.html#a8d63c8ae9a67c66673a6cf81357f827d" target="_top" xlink:title="Returns a big number if we encounter NaN.">
<polygon fill="white" stroke="black" points="2020,-285.5 2020,-304.5 2172,-304.5 2172,-285.5 2020,-285.5"/>
<text text-anchor="middle" x="2096" y="-292.5" font-family="Ubuntu-R" font-size="10.00">forcebalance.nifty.floatornan</text>
</a>
</g>
<!-- Node19&#45;&gt;Node20 -->
<g id="edge50" class="edge"><title>Node19&#45;&gt;Node20</title>
<path fill="none" stroke="midnightblue" d="M1983.54,-295C1992,-295 2000.77,-295 2009.51,-295"/>
<polygon fill="midnightblue" stroke="midnightblue" points="2009.74,-298.5 2019.74,-295 2009.74,-291.5 2009.74,-298.5"/>
</g>
<!-- Node21 -->
<g id="node47" class="node"><title>Node21</title>
<a xlink:href="namespaceforcebalance_1_1nifty.html#a6c9727360cdff8f3011a12cc54d0e86e" target="_top" xlink:title="Given any list, array, or matrix, return a 1&#45;row matrix.">
<polygon fill="white" stroke="black" points="2208.5,-285.5 2208.5,-304.5 2327.5,-304.5 2327.5,-285.5 2208.5,-285.5"/>
<text text-anchor="middle" x="2268" y="-292.5" font-family="Ubuntu-R" font-size="10.00">forcebalance.nifty.row</text>
</a>
</g>
<!-- Node20&#45;&gt;Node21 -->
<g id="edge52" class="edge"><title>Node20&#45;&gt;Node21</title>
<path fill="none" stroke="midnightblue" d="M2172.06,-295C2180.82,-295 2189.72,-295 2198.38,-295"/>
<polygon fill="midnightblue" stroke="midnightblue" points="2198.43,-298.5 2208.42,-295 2198.42,-291.5 2198.43,-298.5"/>
</g>
<!-- Node22 -->
<g id="node49" class="node"><title>Node22</title>
<a xlink:href="namespaceforcebalance_1_1nifty.html#a7676236002c6a65ea7d2e69a09923889" target="_top" xlink:title="Given two vectors vec1 and vec2, project out the component of vec1 that is along the vec2&#45;direction...">
<polygon fill="white" stroke="black" points="2364,-285.5 2364,-304.5 2532,-304.5 2532,-285.5 2364,-285.5"/>
<text text-anchor="middle" x="2448" y="-292.5" font-family="Ubuntu-R" font-size="10.00">forcebalance.nifty.orthogonalize</text>
</a>
</g>
<!-- Node21&#45;&gt;Node22 -->
<g id="edge54" class="edge"><title>Node21&#45;&gt;Node22</title>
<path fill="none" stroke="midnightblue" d="M2327.78,-295C2336.07,-295 2344.77,-295 2353.52,-295"/>
<polygon fill="midnightblue" stroke="midnightblue" points="2353.8,-298.5 2363.8,-295 2353.8,-291.5 2353.8,-298.5"/>
</g>
<!-- Node24&#45;&gt;Node2 -->
<g id="edge64" class="edge"><title>Node24&#45;&gt;Node2</title>
<path fill="none" stroke="midnightblue" d="M450.112,-143C458.655,-143 467.318,-143 475.917,-143"/>
<polygon fill="midnightblue" stroke="midnightblue" points="475.972,-146.5 485.972,-143 475.972,-139.5 475.972,-146.5"/>
</g>
</g>
</svg>
