<?xml version="1.0" encoding="UTF-8" standalone="no"?>
<!DOCTYPE svg PUBLIC "-//W3C//DTD SVG 1.1//EN"
 "http://www.w3.org/Graphics/SVG/1.1/DTD/svg11.dtd">
<!-- Generated by graphviz version 2.26.3 (20100126.1600)
 -->
<!-- Title: forcebalance.optimizer.Optimizer.Run Pages: 1 -->
<svg width="1936pt" height="286pt"
 viewBox="0.00 0.00 1936.00 286.00" xmlns="http://www.w3.org/2000/svg" xmlns:xlink="http://www.w3.org/1999/xlink">
<g id="graph1" class="graph" transform="scale(1 1) rotate(0) translate(4 282)">
<title>forcebalance.optimizer.Optimizer.Run</title>
<polygon fill="white" stroke="white" points="-4,5 -4,-282 1933,-282 1933,5 -4,5"/>
<!-- Node1 -->
<g id="node1" class="node"><title>Node1</title>
<polygon fill="#bfbfbf" stroke="black" points="0,-155.5 0,-176.5 194,-176.5 194,-155.5 0,-155.5"/>
<text text-anchor="middle" x="97" y="-163.5" font-family="Ubuntu-R" font-size="10.00">forcebalance.optimizer.Optimizer.Run</text>
</g>
<!-- Node2 -->
<g id="node3" class="node"><title>Node2</title>
<a xlink:href="classforcebalance_1_1optimizer_1_1Optimizer.html#aacf96d137fb0e491af7e380c8bd61eb9" target="_top" xlink:title="Finite&#45;difference checker for the objective function gradient.">
<polygon fill="white" stroke="black" points="230,-59 230,-93 406,-93 406,-59 230,-59"/>
<text text-anchor="start" x="238" y="-80" font-family="Ubuntu-R" font-size="10.00">forcebalance.optimizer.Optimizer.</text>
<text text-anchor="middle" x="318" y="-67" font-family="Ubuntu-R" font-size="10.00">FDCheckG</text>
</a>
</g>
<!-- Node1&#45;&gt;Node2 -->
<g id="edge2" class="edge"><title>Node1&#45;&gt;Node2</title>
<path fill="none" stroke="midnightblue" d="M119.362,-155.432C145.607,-143.18 190.56,-122.666 230,-107 238.938,-103.45 248.464,-99.8784 257.824,-96.4872"/>
<polygon fill="midnightblue" stroke="midnightblue" points="259.252,-99.6935 267.487,-93.0268 256.892,-93.1033 259.252,-99.6935"/>
</g>
<!-- Node3 -->
<g id="node5" class="node"><title>Node3</title>
<a xlink:href="namespaceforcebalance_1_1nifty.html#a11babd62dc7bca389162c6318f9672ca" target="_top" xlink:title="Cool&#45;looking printout for slick formatting of output.">
<polygon fill="white" stroke="black" points="478,-155.5 478,-176.5 622,-176.5 622,-155.5 478,-155.5"/>
<text text-anchor="middle" x="550" y="-163.5" font-family="Ubuntu-R" font-size="10.00">forcebalance.nifty.printcool</text>
</a>
</g>
<!-- Node1&#45;&gt;Node3 -->
<g id="edge60" class="edge"><title>Node1&#45;&gt;Node3</title>
<path fill="none" stroke="midnightblue" d="M139.817,-176.553C165.735,-182.394 199.557,-189.052 230,-192 307.858,-199.539 328.09,-198.977 406,-192 435.168,-189.388 467.265,-183.857 493.739,-178.564"/>
<polygon fill="midnightblue" stroke="midnightblue" points="494.494,-181.983 503.593,-176.555 493.095,-175.124 494.494,-181.983"/>
</g>
<!-- Node4 -->
<g id="node7" class="node"><title>Node4</title>
<a xlink:href="namespaceforcebalance_1_1nifty.html#abb8f59044961a12588e0653c2baa8b01" target="_top" xlink:title="forcebalance.nifty.warn\l_press_key">
<polygon fill="white" stroke="black" points="1781.5,-223 1781.5,-257 1906.5,-257 1906.5,-223 1781.5,-223"/>
<text text-anchor="start" x="1789.5" y="-244" font-family="Ubuntu-R" font-size="10.00">forcebalance.nifty.warn</text>
<text text-anchor="middle" x="1844" y="-231" font-family="Ubuntu-R" font-size="10.00">_press_key</text>
</a>
</g>
<!-- Node1&#45;&gt;Node4 -->
<g id="edge70" class="edge"><title>Node1&#45;&gt;Node4</title>
<path fill="none" stroke="midnightblue" d="M121.516,-176.537C188.69,-204.418 381.896,-278 550,-278 550,-278 550,-278 1460,-278 1568.83,-278 1694.18,-262.697 1771.25,-251.513"/>
<polygon fill="midnightblue" stroke="midnightblue" points="1771.95,-254.949 1781.33,-250.034 1770.93,-248.023 1771.95,-254.949"/>
</g>
<!-- Node24 -->
<g id="node55" class="node"><title>Node24</title>
<a xlink:href="classforcebalance_1_1optimizer_1_1Optimizer.html#aa7ac7cda43b70ac58ccbd6c8445e88ef" target="_top" xlink:title="Write the checkpoint file for the main optimizer.">
<polygon fill="white" stroke="black" points="442.5,-113.5 442.5,-134.5 657.5,-134.5 657.5,-113.5 442.5,-113.5"/>
<text text-anchor="middle" x="550" y="-121.5" font-family="Ubuntu-R" font-size="10.00">forcebalance.optimizer.Optimizer.writechk</text>
</a>
</g>
<!-- Node1&#45;&gt;Node24 -->
<g id="edge62" class="edge"><title>Node1&#45;&gt;Node24</title>
<path fill="none" stroke="midnightblue" d="M142.294,-155.475C167.895,-149.948 200.574,-143.593 230,-140 296.549,-131.874 371.366,-127.853 431.914,-125.873"/>
<polygon fill="midnightblue" stroke="midnightblue" points="432.389,-129.36 442.275,-125.549 432.171,-122.363 432.389,-129.36"/>
</g>
<!-- Node25 -->
<g id="node57" class="node"><title>Node25</title>
<a xlink:href="classforcebalance_1_1optimizer_1_1Optimizer.html#a1d222f82239075ea0d6b9294b2f50e12" target="_top" xlink:title="The main ForceBalance adaptive trust&#45;radius pseudo&#45;Newton optimizer.">
<polygon fill="white" stroke="black" points="230,-149 230,-183 406,-183 406,-149 230,-149"/>
<text text-anchor="start" x="238" y="-170" font-family="Ubuntu-R" font-size="10.00">forcebalance.optimizer.Optimizer.</text>
<text text-anchor="middle" x="318" y="-157" font-family="Ubuntu-R" font-size="10.00">MainOptimizer</text>
</a>
</g>
<!-- Node1&#45;&gt;Node25 -->
<g id="edge64" class="edge"><title>Node1&#45;&gt;Node25</title>
<path fill="none" stroke="midnightblue" d="M194.255,-166C202.653,-166 211.154,-166 219.561,-166"/>
<polygon fill="midnightblue" stroke="midnightblue" points="219.756,-169.5 229.756,-166 219.756,-162.5 219.756,-169.5"/>
</g>
<!-- Node2&#45;&gt;Node3 -->
<g id="edge4" class="edge"><title>Node2&#45;&gt;Node3</title>
<path fill="none" stroke="midnightblue" d="M343.988,-93.2868C368.348,-108.739 406.268,-130.905 442,-144 451.667,-147.543 462.041,-150.568 472.398,-153.137"/>
<polygon fill="midnightblue" stroke="midnightblue" points="471.764,-156.583 482.299,-155.462 473.364,-149.769 471.764,-156.583"/>
</g>
<!-- Node16 -->
<g id="node36" class="node"><title>Node16</title>
<a xlink:href="namespaceforcebalance_1_1finite__difference.html#a123c5d5dea0f3f50ab57796bb3bc39be" target="_top" xlink:title="A highly accurate five&#45;point finite difference stencil for computing derivatives of a function...">
<polygon fill="white" stroke="black" points="498,-14 498,-48 602,-48 602,-14 498,-14"/>
<text text-anchor="start" x="506" y="-35" font-family="Ubuntu-R" font-size="10.00">forcebalance.finite</text>
<text text-anchor="middle" x="550" y="-22" font-family="Ubuntu-R" font-size="10.00">_difference.f1d5p</text>
</a>
</g>
<!-- Node2&#45;&gt;Node16 -->
<g id="edge40" class="edge"><title>Node2&#45;&gt;Node16</title>
<path fill="none" stroke="midnightblue" d="M405.709,-58.9874C433.002,-53.6936 462.519,-47.9682 487.703,-43.0834"/>
<polygon fill="midnightblue" stroke="midnightblue" points="488.698,-46.4557 497.849,-41.1155 487.365,-39.5838 488.698,-46.4557"/>
</g>
<!-- Node21 -->
<g id="node46" class="node"><title>Node21</title>
<a xlink:href="namespaceforcebalance_1_1finite__difference.html#ae484c591ae8c4e5bae73a0ef2660c339" target="_top" xlink:title="A function wrapper for finite difference designed for differentiating &#39;get&#39;&#45;type functions.">
<polygon fill="white" stroke="black" points="1230,-52 1230,-86 1334,-86 1334,-52 1230,-52"/>
<text text-anchor="start" x="1238" y="-73" font-family="Ubuntu-R" font-size="10.00">forcebalance.finite</text>
<text text-anchor="middle" x="1282" y="-60" font-family="Ubuntu-R" font-size="10.00">_difference.fdwrap</text>
</a>
</g>
<!-- Node2&#45;&gt;Node21 -->
<g id="edge58" class="edge"><title>Node2&#45;&gt;Node21</title>
<path fill="none" stroke="midnightblue" d="M406.404,-76C496.767,-76 641.167,-76 766,-76 766,-76 766,-76 935,-76 1034.58,-76 1150.21,-73.0827 1219.66,-71.0147"/>
<polygon fill="midnightblue" stroke="midnightblue" points="1220.09,-74.5033 1229.98,-70.7034 1219.88,-67.5065 1220.09,-74.5033"/>
</g>
<!-- Node3&#45;&gt;Node4 -->
<g id="edge6" class="edge"><title>Node3&#45;&gt;Node4</title>
<path fill="none" stroke="midnightblue" d="M582.301,-176.524C647.971,-196.954 802.106,-240 935,-240 935,-240 935,-240 1460,-240 1568.46,-240 1694.16,-240 1771.38,-240"/>
<polygon fill="midnightblue" stroke="midnightblue" points="1771.48,-243.5 1781.48,-240 1771.48,-236.5 1771.48,-243.5"/>
</g>
<!-- Node5 -->
<g id="node9" class="node"><title>Node5</title>
<a xlink:href="namespaceforcebalance_1_1nifty.html#a51180e960742cc7547749fdfb3513ec4" target="_top" xlink:title="See documentation for printcool; this is a nice way to print out keys/values in a dictionary...">
<polygon fill="white" stroke="black" points="694,-145 694,-179 838,-179 838,-145 694,-145"/>
<text text-anchor="start" x="702" y="-166" font-family="Ubuntu-R" font-size="10.00">forcebalance.nifty.printcool</text>
<text text-anchor="middle" x="766" y="-153" font-family="Ubuntu-R" font-size="10.00">_dictionary</text>
</a>
</g>
<!-- Node3&#45;&gt;Node5 -->
<g id="edge8" class="edge"><title>Node3&#45;&gt;Node5</title>
<path fill="none" stroke="midnightblue" d="M622.225,-164.662C641.949,-164.297 663.469,-163.899 683.709,-163.524"/>
<polygon fill="midnightblue" stroke="midnightblue" points="683.909,-167.021 693.843,-163.336 683.78,-160.022 683.909,-167.021"/>
</g>
<!-- Node6 -->
<g id="node11" class="node"><title>Node6</title>
<a xlink:href="namespaceforcebalance_1_1nifty.html#a3f1c7a1af9d35d5d1693074bc6f5497c" target="_top" xlink:title="ONLY matches integers! If you have a decimal point? None shall pass!">
<polygon fill="white" stroke="black" points="874,-151.5 874,-172.5 996,-172.5 996,-151.5 874,-151.5"/>
<text text-anchor="middle" x="935" y="-159.5" font-family="Ubuntu-R" font-size="10.00">forcebalance.nifty.isint</text>
</a>
</g>
<!-- Node5&#45;&gt;Node6 -->
<g id="edge10" class="edge"><title>Node5&#45;&gt;Node6</title>
<path fill="none" stroke="midnightblue" d="M838.161,-162C846.644,-162 855.297,-162 863.767,-162"/>
<polygon fill="midnightblue" stroke="midnightblue" points="863.984,-165.5 873.984,-162 863.984,-158.5 863.984,-165.5"/>
</g>
<!-- Node8 -->
<g id="node15" class="node"><title>Node8</title>
<a xlink:href="namespaceforcebalance_1_1nifty.html#a8e3ef0108b9d37b82ba0dced7c6037ae" target="_top" xlink:title="Matches ANY number; it can be a decimal, scientific notation, what have you CAUTION &#45; this will also ...">
<polygon fill="white" stroke="black" points="1216.5,-127.5 1216.5,-148.5 1347.5,-148.5 1347.5,-127.5 1216.5,-127.5"/>
<text text-anchor="middle" x="1282" y="-135.5" font-family="Ubuntu-R" font-size="10.00">forcebalance.nifty.isfloat</text>
</a>
</g>
<!-- Node5&#45;&gt;Node8 -->
<g id="edge38" class="edge"><title>Node5&#45;&gt;Node8</title>
<path fill="none" stroke="midnightblue" d="M838.082,-146.864C850.03,-144.87 862.327,-143.129 874,-142 989.454,-130.829 1124.14,-132.312 1206.21,-134.832"/>
<polygon fill="midnightblue" stroke="midnightblue" points="1206.34,-138.338 1216.45,-135.16 1206.57,-131.341 1206.34,-138.338"/>
</g>
<!-- Node7 -->
<g id="node13" class="node"><title>Node7</title>
<a xlink:href="namespaceforcebalance_1_1nifty.html#a09263927eaec9deff283fbf1a820242f" target="_top" xlink:title="Matches things with a decimal only; see isint and isfloat.">
<polygon fill="white" stroke="black" points="1032.5,-183.5 1032.5,-204.5 1179.5,-204.5 1179.5,-183.5 1032.5,-183.5"/>
<text text-anchor="middle" x="1106" y="-191.5" font-family="Ubuntu-R" font-size="10.00">forcebalance.nifty.isdecimal</text>
</a>
</g>
<!-- Node6&#45;&gt;Node7 -->
<g id="edge12" class="edge"><title>Node6&#45;&gt;Node7</title>
<path fill="none" stroke="midnightblue" d="M991.466,-172.567C1007.01,-175.476 1024.02,-178.658 1040.05,-181.658"/>
<polygon fill="midnightblue" stroke="midnightblue" points="1039.41,-185.1 1049.89,-183.499 1040.7,-178.219 1039.41,-185.1"/>
</g>
<!-- Node7&#45;&gt;Node8 -->
<g id="edge14" class="edge"><title>Node7&#45;&gt;Node8</title>
<path fill="none" stroke="midnightblue" d="M1139.1,-183.467C1167.41,-174.461 1208.33,-161.442 1239.13,-151.641"/>
<polygon fill="midnightblue" stroke="midnightblue" points="1240.28,-154.948 1248.75,-148.581 1238.15,-148.278 1240.28,-154.948"/>
</g>
<!-- Node12 -->
<g id="node24" class="node"><title>Node12</title>
<a xlink:href="namespaceforcebalance_1_1nifty.html#afb3f205bce4984856e766af7e9fdaca8" target="_top" xlink:title="Given any list, array, or matrix, return a 1&#45;column matrix.">
<polygon fill="white" stroke="black" points="1224,-183.5 1224,-204.5 1340,-204.5 1340,-183.5 1224,-183.5"/>
<text text-anchor="middle" x="1282" y="-191.5" font-family="Ubuntu-R" font-size="10.00">forcebalance.nifty.col</text>
</a>
</g>
<!-- Node7&#45;&gt;Node12 -->
<g id="edge24" class="edge"><title>Node7&#45;&gt;Node12</title>
<path fill="none" stroke="midnightblue" d="M1179.62,-194C1190.94,-194 1202.59,-194 1213.79,-194"/>
<polygon fill="midnightblue" stroke="midnightblue" points="1213.93,-197.5 1223.93,-194 1213.93,-190.5 1213.93,-197.5"/>
</g>
<!-- Node8&#45;&gt;Node6 -->
<g id="edge16" class="edge"><title>Node8&#45;&gt;Node6</title>
<path fill="none" stroke="midnightblue" d="M1216.36,-142.54C1156.4,-146.687 1067.95,-152.805 1006.28,-157.07"/>
<polygon fill="midnightblue" stroke="midnightblue" points="1005.97,-153.583 996.238,-157.765 1006.46,-160.566 1005.97,-153.583"/>
</g>
<!-- Node9 -->
<g id="node18" class="node"><title>Node9</title>
<a xlink:href="namespaceforcebalance_1_1nifty.html#a8d63c8ae9a67c66673a6cf81357f827d" target="_top" xlink:title="Returns a big number if we encounter NaN.">
<polygon fill="white" stroke="black" points="1384.5,-112.5 1384.5,-133.5 1535.5,-133.5 1535.5,-112.5 1384.5,-112.5"/>
<text text-anchor="middle" x="1460" y="-120.5" font-family="Ubuntu-R" font-size="10.00">forcebalance.nifty.floatornan</text>
</a>
</g>
<!-- Node8&#45;&gt;Node9 -->
<g id="edge18" class="edge"><title>Node8&#45;&gt;Node9</title>
<path fill="none" stroke="midnightblue" d="M1347.52,-132.478C1356.24,-131.744 1365.28,-130.982 1374.27,-130.225"/>
<polygon fill="midnightblue" stroke="midnightblue" points="1374.71,-133.7 1384.38,-129.372 1374.13,-126.724 1374.71,-133.7"/>
</g>
<!-- Node10 -->
<g id="node20" class="node"><title>Node10</title>
<a xlink:href="namespaceforcebalance_1_1nifty.html#a6c9727360cdff8f3011a12cc54d0e86e" target="_top" xlink:title="Given any list, array, or matrix, return a 1&#45;row matrix.">
<polygon fill="white" stroke="black" points="1588.5,-112.5 1588.5,-133.5 1707.5,-133.5 1707.5,-112.5 1588.5,-112.5"/>
<text text-anchor="middle" x="1648" y="-120.5" font-family="Ubuntu-R" font-size="10.00">forcebalance.nifty.row</text>
</a>
</g>
<!-- Node9&#45;&gt;Node10 -->
<g id="edge20" class="edge"><title>Node9&#45;&gt;Node10</title>
<path fill="none" stroke="midnightblue" d="M1535.65,-123C1549.64,-123 1564.19,-123 1578,-123"/>
<polygon fill="midnightblue" stroke="midnightblue" points="1578.39,-126.5 1588.39,-123 1578.39,-119.5 1578.39,-126.5"/>
</g>
<!-- Node11 -->
<g id="node22" class="node"><title>Node11</title>
<a xlink:href="namespaceforcebalance_1_1nifty.html#a7676236002c6a65ea7d2e69a09923889" target="_top" xlink:title="Given two vectors vec1 and vec2, project out the component of vec1 that is along the vec2&#45;direction...">
<polygon fill="white" stroke="black" points="1760,-112.5 1760,-133.5 1928,-133.5 1928,-112.5 1760,-112.5"/>
<text text-anchor="middle" x="1844" y="-120.5" font-family="Ubuntu-R" font-size="10.00">forcebalance.nifty.orthogonalize</text>
</a>
</g>
<!-- Node10&#45;&gt;Node11 -->
<g id="edge22" class="edge"><title>Node10&#45;&gt;Node11</title>
<path fill="none" stroke="midnightblue" d="M1707.6,-123C1720.84,-123 1735.18,-123 1749.42,-123"/>
<polygon fill="midnightblue" stroke="midnightblue" points="1749.76,-126.5 1759.76,-123 1749.76,-119.5 1749.76,-126.5"/>
</g>
<!-- Node13 -->
<g id="node26" class="node"><title>Node13</title>
<a xlink:href="namespaceforcebalance_1_1nifty.html#a52114ceee9d55f94d9aecb3e176de294" target="_top" xlink:title="Given any list, array, or matrix, return a single&#45;index array.">
<polygon fill="white" stroke="black" points="1401.5,-152.5 1401.5,-173.5 1518.5,-173.5 1518.5,-152.5 1401.5,-152.5"/>
<text text-anchor="middle" x="1460" y="-160.5" font-family="Ubuntu-R" font-size="10.00">forcebalance.nifty.flat</text>
</a>
</g>
<!-- Node12&#45;&gt;Node13 -->
<g id="edge26" class="edge"><title>Node12&#45;&gt;Node13</title>
<path fill="none" stroke="midnightblue" d="M1340.28,-183.849C1356.49,-181.027 1374.24,-177.935 1391,-175.017"/>
<polygon fill="midnightblue" stroke="midnightblue" points="1392.03,-178.39 1401.28,-173.226 1390.83,-171.494 1392.03,-178.39"/>
</g>
<!-- Node14 -->
<g id="node28" class="node"><title>Node14</title>
<a xlink:href="namespaceforcebalance_1_1nifty.html#a4c82187e92dfeb8a159f4aa44b501c40" target="_top" xlink:title="Invert a matrix using singular value decomposition.">
<polygon fill="white" stroke="black" points="1572.5,-190.5 1572.5,-211.5 1723.5,-211.5 1723.5,-190.5 1572.5,-190.5"/>
<text text-anchor="middle" x="1648" y="-198.5" font-family="Ubuntu-R" font-size="10.00">forcebalance.nifty.invert_svd</text>
</a>
</g>
<!-- Node13&#45;&gt;Node14 -->
<g id="edge28" class="edge"><title>Node13&#45;&gt;Node14</title>
<path fill="none" stroke="midnightblue" d="M1512.37,-173.585C1535.18,-178.197 1562.1,-183.637 1585.92,-188.451"/>
<polygon fill="midnightblue" stroke="midnightblue" points="1585.42,-191.921 1595.91,-190.472 1586.8,-185.06 1585.42,-191.921"/>
</g>
<!-- Node14&#45;&gt;Node4 -->
<g id="edge36" class="edge"><title>Node14&#45;&gt;Node4</title>
<path fill="none" stroke="midnightblue" d="M1700.78,-211.503C1722.51,-215.826 1748.03,-220.905 1771.47,-225.568"/>
<polygon fill="midnightblue" stroke="midnightblue" points="1770.88,-229.019 1781.37,-227.538 1772.25,-222.154 1770.88,-229.019"/>
</g>
<!-- Node14&#45;&gt;Node12 -->
<g id="edge34" class="edge"><title>Node14&#45;&gt;Node12</title>
<path fill="none" stroke="midnightblue" d="M1572.35,-199.553C1507.13,-198.306 1413.75,-196.52 1350.65,-195.313"/>
<polygon fill="midnightblue" stroke="midnightblue" points="1350.46,-191.809 1340.4,-195.117 1350.33,-198.808 1350.46,-191.809"/>
</g>
<!-- Node15 -->
<g id="node30" class="node"><title>Node15</title>
<a xlink:href="namespaceforcebalance_1_1nifty.html#aa9fb9c7c65231eca50a7afc04f489b64" target="_top" xlink:title="forcebalance.nifty.get\l_least_squares">
<polygon fill="white" stroke="black" points="1785,-162 1785,-196 1903,-196 1903,-162 1785,-162"/>
<text text-anchor="start" x="1793" y="-183" font-family="Ubuntu-R" font-size="10.00">forcebalance.nifty.get</text>
<text text-anchor="middle" x="1844" y="-170" font-family="Ubuntu-R" font-size="10.00">_least_squares</text>
</a>
</g>
<!-- Node14&#45;&gt;Node15 -->
<g id="edge30" class="edge"><title>Node14&#45;&gt;Node15</title>
<path fill="none" stroke="midnightblue" d="M1723.78,-192.494C1740.55,-190.612 1758.24,-188.626 1774.73,-186.775"/>
<polygon fill="midnightblue" stroke="midnightblue" points="1775.28,-190.235 1784.83,-185.641 1774.5,-183.279 1775.28,-190.235"/>
</g>
<!-- Node15&#45;&gt;Node13 -->
<g id="edge32" class="edge"><title>Node15&#45;&gt;Node13</title>
<path fill="none" stroke="midnightblue" d="M1784.95,-176.54C1715.89,-173.662 1601.75,-168.906 1528.76,-165.865"/>
<polygon fill="midnightblue" stroke="midnightblue" points="1528.88,-162.367 1518.74,-165.447 1528.58,-169.361 1528.88,-162.367"/>
</g>
<!-- Node17 -->
<g id="node38" class="node"><title>Node17</title>
<a xlink:href="namespaceforcebalance_1_1finite__difference.html#a9be9f0d21300958092e380514e2e980d" target="_top" xlink:title="A highly accurate seven&#45;point finite difference stencil for computing derivatives of a function...">
<polygon fill="white" stroke="black" points="714,-14 714,-48 818,-48 818,-14 714,-14"/>
<text text-anchor="start" x="722" y="-35" font-family="Ubuntu-R" font-size="10.00">forcebalance.finite</text>
<text text-anchor="middle" x="766" y="-22" font-family="Ubuntu-R" font-size="10.00">_difference.f1d7p</text>
</a>
</g>
<!-- Node16&#45;&gt;Node17 -->
<g id="edge42" class="edge"><title>Node16&#45;&gt;Node17</title>
<path fill="none" stroke="midnightblue" d="M602.012,-31C632.538,-31 671.312,-31 703.493,-31"/>
<polygon fill="midnightblue" stroke="midnightblue" points="703.69,-34.5001 713.69,-31 703.69,-27.5001 703.69,-34.5001"/>
</g>
<!-- Node18 -->
<g id="node40" class="node"><title>Node18</title>
<a xlink:href="namespaceforcebalance_1_1finite__difference.html#acc281f85b668062745f711d9b4a610fa" target="_top" xlink:title="forcebalance.finite\l_difference.f12d7p">
<polygon fill="white" stroke="black" points="882.5,-14 882.5,-48 987.5,-48 987.5,-14 882.5,-14"/>
<text text-anchor="start" x="890.5" y="-35" font-family="Ubuntu-R" font-size="10.00">forcebalance.finite</text>
<text text-anchor="middle" x="935" y="-22" font-family="Ubuntu-R" font-size="10.00">_difference.f12d7p</text>
</a>
</g>
<!-- Node17&#45;&gt;Node18 -->
<g id="edge44" class="edge"><title>Node17&#45;&gt;Node18</title>
<path fill="none" stroke="midnightblue" d="M818.085,-31C835.11,-31 854.205,-31 871.948,-31"/>
<polygon fill="midnightblue" stroke="midnightblue" points="872.214,-34.5001 882.213,-31 872.213,-27.5001 872.214,-34.5001"/>
</g>
<!-- Node19 -->
<g id="node42" class="node"><title>Node19</title>
<a xlink:href="namespaceforcebalance_1_1finite__difference.html#aa69a8819e4680091f400303c1d6ddeb7" target="_top" xlink:title="A three&#45;point finite difference stencil.">
<polygon fill="white" stroke="black" points="1053.5,-14 1053.5,-48 1158.5,-48 1158.5,-14 1053.5,-14"/>
<text text-anchor="start" x="1061.5" y="-35" font-family="Ubuntu-R" font-size="10.00">forcebalance.finite</text>
<text text-anchor="middle" x="1106" y="-22" font-family="Ubuntu-R" font-size="10.00">_difference.f12d3p</text>
</a>
</g>
<!-- Node18&#45;&gt;Node19 -->
<g id="edge46" class="edge"><title>Node18&#45;&gt;Node19</title>
<path fill="none" stroke="midnightblue" d="M987.701,-31C1005.26,-31 1024.98,-31 1043.23,-31"/>
<polygon fill="midnightblue" stroke="midnightblue" points="1043.47,-34.5001 1053.47,-31 1043.47,-27.5001 1043.47,-34.5001"/>
</g>
<!-- Node20 -->
<g id="node44" class="node"><title>Node20</title>
<a xlink:href="namespaceforcebalance_1_1finite__difference.html#ad84d3e385db1190e7d8ef58bc08a6c52" target="_top" xlink:title="Invoking this function from anywhere will tell us whether we&#39;re being called by a finite&#45;difference f...">
<polygon fill="white" stroke="black" points="1230,-0 1230,-34 1334,-34 1334,-0 1230,-0"/>
<text text-anchor="start" x="1238" y="-21" font-family="Ubuntu-R" font-size="10.00">forcebalance.finite</text>
<text text-anchor="middle" x="1282" y="-8" font-family="Ubuntu-R" font-size="10.00">_difference.in_fd</text>
</a>
</g>
<!-- Node19&#45;&gt;Node20 -->
<g id="edge48" class="edge"><title>Node19&#45;&gt;Node20</title>
<path fill="none" stroke="midnightblue" d="M1158.81,-26.7995C1177.95,-25.2769 1199.75,-23.5427 1219.64,-21.9607"/>
<polygon fill="midnightblue" stroke="midnightblue" points="1220.15,-25.4313 1229.84,-21.1493 1219.59,-18.4533 1220.15,-25.4313"/>
</g>
<!-- Node19&#45;&gt;Node21 -->
<g id="edge50" class="edge"><title>Node19&#45;&gt;Node21</title>
<path fill="none" stroke="midnightblue" d="M1158.81,-42.4013C1178.04,-46.5531 1199.95,-51.2845 1219.91,-55.5943"/>
<polygon fill="midnightblue" stroke="midnightblue" points="1219.32,-59.0484 1229.84,-57.7377 1220.8,-52.206 1219.32,-59.0484"/>
</g>
<!-- Node22 -->
<g id="node48" class="node"><title>Node22</title>
<a xlink:href="namespaceforcebalance_1_1finite__difference.html#a00322fb65860c390616f74d05037c797" target="_top" xlink:title="A driver to fdwrap for gradients (see documentation for fdwrap) Inputs: tgt = The Target containing t...">
<polygon fill="white" stroke="black" points="1402,-8 1402,-42 1518,-42 1518,-8 1402,-8"/>
<text text-anchor="start" x="1410" y="-29" font-family="Ubuntu-R" font-size="10.00">forcebalance.finite</text>
<text text-anchor="middle" x="1460" y="-16" font-family="Ubuntu-R" font-size="10.00">_difference.fdwrap_G</text>
</a>
</g>
<!-- Node21&#45;&gt;Node22 -->
<g id="edge52" class="edge"><title>Node21&#45;&gt;Node22</title>
<path fill="none" stroke="midnightblue" d="M1326.92,-51.9445C1346.65,-46.2875 1370.26,-40.243 1392.08,-35.2109"/>
<polygon fill="midnightblue" stroke="midnightblue" points="1392.97,-38.5966 1401.95,-32.9751 1391.43,-31.7693 1392.97,-38.5966"/>
</g>
<!-- Node23 -->
<g id="node51" class="node"><title>Node23</title>
<a xlink:href="namespaceforcebalance_1_1finite__difference.html#a77a0bc1ae3cbbcc8d38a0ef9ca877d6d" target="_top" xlink:title="A driver to fdwrap for Hessians (see documentation for fdwrap) Inputs: tgt = The Target containing th...">
<polygon fill="white" stroke="black" points="1402,-60 1402,-94 1518,-94 1518,-60 1402,-60"/>
<text text-anchor="start" x="1410" y="-81" font-family="Ubuntu-R" font-size="10.00">forcebalance.finite</text>
<text text-anchor="middle" x="1460" y="-68" font-family="Ubuntu-R" font-size="10.00">_difference.fdwrap_H</text>
</a>
</g>
<!-- Node21&#45;&gt;Node23 -->
<g id="edge56" class="edge"><title>Node21&#45;&gt;Node23</title>
<path fill="none" stroke="midnightblue" d="M1334.44,-71.357C1352.35,-72.1618 1372.65,-73.074 1391.62,-73.9268"/>
<polygon fill="midnightblue" stroke="midnightblue" points="1391.55,-77.4272 1401.7,-74.3798 1391.87,-70.4343 1391.55,-77.4272"/>
</g>
<!-- Node22&#45;&gt;Node21 -->
<g id="edge54" class="edge"><title>Node22&#45;&gt;Node21</title>
<path fill="none" stroke="midnightblue" d="M1415.15,-42.0349C1393.68,-48.1906 1367.62,-54.8072 1344.27,-60.0802"/>
<polygon fill="midnightblue" stroke="midnightblue" points="1343.45,-56.6756 1334.44,-62.2526 1344.96,-63.5105 1343.45,-56.6756"/>
</g>
<!-- Node25&#45;&gt;Node3 -->
<g id="edge66" class="edge"><title>Node25&#45;&gt;Node3</title>
<path fill="none" stroke="midnightblue" d="M406.04,-166C426.327,-166 447.827,-166 467.852,-166"/>
<polygon fill="midnightblue" stroke="midnightblue" points="467.862,-169.5 477.862,-166 467.862,-162.5 467.862,-169.5"/>
</g>
<!-- Node25&#45;&gt;Node24 -->
<g id="edge68" class="edge"><title>Node25&#45;&gt;Node24</title>
<path fill="none" stroke="midnightblue" d="M406.04,-150.062C431.164,-145.513 458.15,-140.628 481.889,-136.33"/>
<polygon fill="midnightblue" stroke="midnightblue" points="482.633,-139.753 491.85,-134.527 481.386,-132.865 482.633,-139.753"/>
</g>
</g>
</svg>
