<?xml version="1.0" encoding="UTF-8" standalone="no"?>
<!DOCTYPE svg PUBLIC "-//W3C//DTD SVG 1.1//EN"
 "http://www.w3.org/Graphics/SVG/1.1/DTD/svg11.dtd">
<!-- Generated by graphviz version 2.26.3 (20100126.1600)
 -->
<!-- Title: forcebalance.amberio.FrcMod_Reader.Whites Pages: 1 -->
<svg width="914pt" height="94pt"
 viewBox="0.00 0.00 914.00 94.00" xmlns="http://www.w3.org/2000/svg" xmlns:xlink="http://www.w3.org/1999/xlink">
<g id="graph1" class="graph" transform="scale(1 1) rotate(0) translate(4 90)">
<title>forcebalance.amberio.FrcMod_Reader.Whites</title>
<polygon fill="white" stroke="white" points="-4,5 -4,-90 911,-90 911,5 -4,5"/>
<!-- Node1 -->
<g id="node1" class="node"><title>Node1</title>
<polygon fill="#bfbfbf" stroke="black" points="0.5,-26 0.5,-60 137.5,-60 137.5,-26 0.5,-26"/>
<text text-anchor="start" x="8.5" y="-47" font-family="Ubuntu-R" font-size="10.00">forcebalance.amberio.Frc</text>
<text text-anchor="middle" x="69" y="-34" font-family="Ubuntu-R" font-size="10.00">Mod_Reader.Whites</text>
</g>
<!-- Node2 -->
<g id="node3" class="node"><title>Node2</title>
<a xlink:href="classforcebalance_1_1amberio_1_1FrcMod__Reader.html#a689bb40a107f763472b15175be6f0f12" target="_top" xlink:title="forcebalance.amberio.Frc\lMod_Reader.feed">
<polygon fill="white" stroke="black" points="175.5,-52 175.5,-86 312.5,-86 312.5,-52 175.5,-52"/>
<text text-anchor="start" x="183.5" y="-73" font-family="Ubuntu-R" font-size="10.00">forcebalance.amberio.Frc</text>
<text text-anchor="middle" x="244" y="-60" font-family="Ubuntu-R" font-size="10.00">Mod_Reader.feed</text>
</a>
</g>
<!-- Node1&#45;&gt;Node2 -->
<g id="edge2" class="edge"><title>Node1&#45;&gt;Node2</title>
<path fill="none" stroke="midnightblue" d="M137.662,-53.2013C146.734,-54.549 156.089,-55.9389 165.312,-57.3092"/>
<polygon fill="midnightblue" stroke="midnightblue" points="164.843,-60.7778 175.248,-58.7855 165.871,-53.8538 164.843,-60.7778"/>
</g>
<!-- Node3 -->
<g id="node5" class="node"><title>Node3</title>
<a xlink:href="classforcebalance_1_1BaseReader.html#acded199bbc003eb93d071a972ef38901" target="_top" xlink:title="forcebalance.BaseReader.\lSplit">
<polygon fill="white" stroke="black" points="174,-0 174,-34 314,-34 314,-0 174,-0"/>
<text text-anchor="start" x="182" y="-21" font-family="Ubuntu-R" font-size="10.00">forcebalance.BaseReader.</text>
<text text-anchor="middle" x="244" y="-8" font-family="Ubuntu-R" font-size="10.00">Split</text>
</a>
</g>
<!-- Node1&#45;&gt;Node3 -->
<g id="edge4" class="edge"><title>Node1&#45;&gt;Node3</title>
<path fill="none" stroke="midnightblue" d="M137.662,-32.7987C146.197,-31.5308 154.982,-30.2255 163.672,-28.9344"/>
<polygon fill="midnightblue" stroke="midnightblue" points="164.432,-32.36 173.809,-27.4283 163.404,-25.436 164.432,-32.36"/>
</g>
<!-- Node4 -->
<g id="node7" class="node"><title>Node4</title>
<a xlink:href="classforcebalance_1_1BaseReader.html#af2af8a559625614474a1c6fe245b5e13" target="_top" xlink:title="forcebalance.BaseReader.\lWhites">
<polygon fill="white" stroke="black" points="350,-0 350,-34 490,-34 490,-0 350,-0"/>
<text text-anchor="start" x="358" y="-21" font-family="Ubuntu-R" font-size="10.00">forcebalance.BaseReader.</text>
<text text-anchor="middle" x="420" y="-8" font-family="Ubuntu-R" font-size="10.00">Whites</text>
</a>
</g>
<!-- Node3&#45;&gt;Node4 -->
<g id="edge6" class="edge"><title>Node3&#45;&gt;Node4</title>
<path fill="none" stroke="midnightblue" d="M314.066,-17C322.54,-17 331.247,-17 339.852,-17"/>
<polygon fill="midnightblue" stroke="midnightblue" points="339.888,-20.5001 349.888,-17 339.888,-13.5001 339.888,-20.5001"/>
</g>
<!-- Node5 -->
<g id="node9" class="node"><title>Node5</title>
<a xlink:href="classforcebalance_1_1BaseReader.html#a3c46942ef8cc25ece21d52be5b7ba05f" target="_top" xlink:title="forcebalance.BaseReader.feed">
<polygon fill="white" stroke="black" points="526.5,-6.5 526.5,-27.5 687.5,-27.5 687.5,-6.5 526.5,-6.5"/>
<text text-anchor="middle" x="607" y="-14.5" font-family="Ubuntu-R" font-size="10.00">forcebalance.BaseReader.feed</text>
</a>
</g>
<!-- Node4&#45;&gt;Node5 -->
<g id="edge8" class="edge"><title>Node4&#45;&gt;Node5</title>
<path fill="none" stroke="midnightblue" d="M490.164,-17C498.656,-17 507.422,-17 516.157,-17"/>
<polygon fill="midnightblue" stroke="midnightblue" points="516.379,-20.5001 526.379,-17 516.379,-13.5001 516.379,-20.5001"/>
</g>
<!-- Node6 -->
<g id="node11" class="node"><title>Node6</title>
<a xlink:href="classforcebalance_1_1BaseReader.html#aab2c64ccf0f803d4eff3bbf40a6cb0b7" target="_top" xlink:title="Returns the parameter type (e.g.">
<polygon fill="white" stroke="black" points="724,-6.5 724,-27.5 906,-27.5 906,-6.5 724,-6.5"/>
<text text-anchor="middle" x="815" y="-14.5" font-family="Ubuntu-R" font-size="10.00">forcebalance.BaseReader.build_pid</text>
</a>
</g>
<!-- Node5&#45;&gt;Node6 -->
<g id="edge10" class="edge"><title>Node5&#45;&gt;Node6</title>
<path fill="none" stroke="midnightblue" d="M687.716,-17C696.252,-17 705.009,-17 713.739,-17"/>
<polygon fill="midnightblue" stroke="midnightblue" points="713.962,-20.5001 723.962,-17 713.962,-13.5001 713.962,-20.5001"/>
</g>
</g>
</svg>
