<?xml version="1.0" encoding="UTF-8" standalone="no"?>
<!DOCTYPE svg PUBLIC "-//W3C//DTD SVG 1.1//EN"
 "http://www.w3.org/Graphics/SVG/1.1/DTD/svg11.dtd">
<!-- Generated by graphviz version 2.28.0 (20111219.2309)
 -->
<!-- Title: forcebalance.vibration.Vibration.get Pages: 1 -->
<svg width="630pt" height="146pt"
 viewBox="0.00 0.00 630.00 146.00" xmlns="http://www.w3.org/2000/svg" xmlns:xlink="http://www.w3.org/1999/xlink">
<g id="graph1" class="graph" transform="scale(1 1) rotate(0) translate(4 142)">
<title>forcebalance.vibration.Vibration.get</title>
<polygon fill="white" stroke="white" points="-4,5 -4,-142 627,-142 627,5 -4,5"/>
<!-- Node1 -->
<g id="node1" class="node"><title>Node1</title>
<polygon fill="#bfbfbf" stroke="black" points="0.5,-79.5 0.5,-98.5 187.5,-98.5 187.5,-79.5 0.5,-79.5"/>
<text text-anchor="middle" x="94" y="-86.5" font-family="Ubuntu-R" font-size="10.00">forcebalance.vibration.Vibration.get</text>
</g>
<!-- Node2 -->
<g id="node3" class="node"><title>Node2</title>
<a xlink:href="namespaceforcebalance_1_1finite__difference.html#aa69a8819e4680091f400303c1d6ddeb7" target="_top" xlink:title="A three&#45;point finite difference stencil. ">
<polygon fill="white" stroke="black" points="224.5,-74 224.5,-104 329.5,-104 329.5,-74 224.5,-74"/>
<text text-anchor="start" x="232.5" y="-92" font-family="Ubuntu-R" font-size="10.00">forcebalance.finite</text>
<text text-anchor="middle" x="277" y="-81" font-family="Ubuntu-R" font-size="10.00">_difference.f12d3p</text>
</a>
</g>
<!-- Node1&#45;&gt;Node2 -->
<g id="edge2" class="edge"><title>Node1&#45;&gt;Node2</title>
<path fill="none" stroke="midnightblue" d="M187.621,-89C196.525,-89 205.402,-89 213.906,-89"/>
<polygon fill="midnightblue" stroke="midnightblue" points="214.072,-92.5001 224.072,-89 214.072,-85.5001 214.072,-92.5001"/>
</g>
<!-- Node3 -->
<g id="node5" class="node"><title>Node3</title>
<a xlink:href="namespaceforcebalance_1_1finite__difference.html#ad84d3e385db1190e7d8ef58bc08a6c52" target="_top" xlink:title="Invoking this function from anywhere will tell us whether we&#39;re being called by a finite&#45;difference f...">
<polygon fill="white" stroke="black" points="366,-108 366,-138 470,-138 470,-108 366,-108"/>
<text text-anchor="start" x="374" y="-126" font-family="Ubuntu-R" font-size="10.00">forcebalance.finite</text>
<text text-anchor="middle" x="418" y="-115" font-family="Ubuntu-R" font-size="10.00">_difference.in_fd</text>
</a>
</g>
<!-- Node1&#45;&gt;Node3 -->
<g id="edge16" class="edge"><title>Node1&#45;&gt;Node3</title>
<path fill="none" stroke="midnightblue" d="M138.37,-98.5493C163.297,-103.665 195.27,-109.598 224,-113 267.704,-118.175 317.29,-120.672 355.257,-121.877"/>
<polygon fill="midnightblue" stroke="midnightblue" points="355.544,-125.387 365.643,-122.184 355.751,-118.39 355.544,-125.387"/>
</g>
<!-- Node4 -->
<g id="node7" class="node"><title>Node4</title>
<a xlink:href="namespaceforcebalance_1_1finite__difference.html#ae484c591ae8c4e5bae73a0ef2660c339" target="_top" xlink:title="A function wrapper for finite difference designed for differentiating &#39;get&#39;&#45;type functions. ">
<polygon fill="white" stroke="black" points="366,-49 366,-79 470,-79 470,-49 366,-49"/>
<text text-anchor="start" x="374" y="-67" font-family="Ubuntu-R" font-size="10.00">forcebalance.finite</text>
<text text-anchor="middle" x="418" y="-56" font-family="Ubuntu-R" font-size="10.00">_difference.fdwrap</text>
</a>
</g>
<!-- Node1&#45;&gt;Node4 -->
<g id="edge14" class="edge"><title>Node1&#45;&gt;Node4</title>
<path fill="none" stroke="midnightblue" d="M133.668,-79.4969C159.147,-73.7345 193.344,-66.9432 224,-64 267.749,-59.7998 317.334,-59.9038 355.29,-61.0039"/>
<polygon fill="midnightblue" stroke="midnightblue" points="355.565,-64.5144 365.672,-61.3378 355.79,-57.518 355.565,-64.5144"/>
</g>
<!-- Node2&#45;&gt;Node3 -->
<g id="edge4" class="edge"><title>Node2&#45;&gt;Node3</title>
<path fill="none" stroke="midnightblue" d="M329.758,-101.66C338.283,-103.745 347.189,-105.924 355.915,-108.058"/>
<polygon fill="midnightblue" stroke="midnightblue" points="355.116,-111.466 365.661,-110.442 356.779,-104.666 355.116,-111.466"/>
</g>
<!-- Node2&#45;&gt;Node4 -->
<g id="edge6" class="edge"><title>Node2&#45;&gt;Node4</title>
<path fill="none" stroke="midnightblue" d="M329.758,-79.6909C338.191,-78.1743 346.997,-76.5904 355.633,-75.0371"/>
<polygon fill="midnightblue" stroke="midnightblue" points="356.439,-78.4486 365.661,-73.2336 355.199,-71.5591 356.439,-78.4486"/>
</g>
<!-- Node5 -->
<g id="node9" class="node"><title>Node5</title>
<a xlink:href="namespaceforcebalance_1_1finite__difference.html#a00322fb65860c390616f74d05037c797" target="_top" xlink:title="A driver to fdwrap for gradients (see documentation for fdwrap) Inputs: tgt = The Target containing t...">
<polygon fill="white" stroke="black" points="506,-49 506,-79 622,-79 622,-49 506,-49"/>
<text text-anchor="start" x="514" y="-67" font-family="Ubuntu-R" font-size="10.00">forcebalance.finite</text>
<text text-anchor="middle" x="564" y="-56" font-family="Ubuntu-R" font-size="10.00">_difference.fdwrap_G</text>
</a>
</g>
<!-- Node4&#45;&gt;Node5 -->
<g id="edge8" class="edge"><title>Node4&#45;&gt;Node5</title>
<path fill="none" stroke="midnightblue" d="M470.174,-57.5075C478.335,-57.3003 486.887,-57.2182 495.358,-57.261"/>
<polygon fill="midnightblue" stroke="midnightblue" points="495.58,-60.7636 505.619,-57.3752 495.658,-53.764 495.58,-60.7636"/>
</g>
<!-- Node6 -->
<g id="node12" class="node"><title>Node6</title>
<a xlink:href="namespaceforcebalance_1_1finite__difference.html#a77a0bc1ae3cbbcc8d38a0ef9ca877d6d" target="_top" xlink:title="A driver to fdwrap for Hessians (see documentation for fdwrap) Inputs: tgt = The Target containing th...">
<polygon fill="white" stroke="black" points="506,-0 506,-30 622,-30 622,-0 506,-0"/>
<text text-anchor="start" x="514" y="-18" font-family="Ubuntu-R" font-size="10.00">forcebalance.finite</text>
<text text-anchor="middle" x="564" y="-7" font-family="Ubuntu-R" font-size="10.00">_difference.fdwrap_H</text>
</a>
</g>
<!-- Node4&#45;&gt;Node6 -->
<g id="edge12" class="edge"><title>Node4&#45;&gt;Node6</title>
<path fill="none" stroke="midnightblue" d="M463.38,-48.8986C477.751,-44.0083 493.853,-38.5293 508.851,-33.4256"/>
<polygon fill="midnightblue" stroke="midnightblue" points="510.179,-36.6708 518.519,-30.1359 507.924,-30.0439 510.179,-36.6708"/>
</g>
<!-- Node5&#45;&gt;Node4 -->
<g id="edge10" class="edge"><title>Node5&#45;&gt;Node4</title>
<path fill="none" stroke="midnightblue" d="M505.619,-70.6248C497.291,-70.7692 488.692,-70.7887 480.291,-70.6832"/>
<polygon fill="midnightblue" stroke="midnightblue" points="480.239,-67.1817 470.174,-70.4925 480.107,-74.1804 480.239,-67.1817"/>
</g>
</g>
</svg>
