<?xml version="1.0" encoding="UTF-8" standalone="no"?>
<!DOCTYPE svg PUBLIC "-//W3C//DTD SVG 1.1//EN"
 "http://www.w3.org/Graphics/SVG/1.1/DTD/svg11.dtd">
<!-- Generated by graphviz version 2.26.3 (20100126.1600)
 -->
<!-- Title: forcebalance.optimizer.Optimizer.ScanMVals Pages: 1 -->
<svg width="1294pt" height="170pt"
 viewBox="0.00 0.00 1294.00 170.00" xmlns="http://www.w3.org/2000/svg" xmlns:xlink="http://www.w3.org/1999/xlink">
<g id="graph1" class="graph" transform="scale(1 1) rotate(0) translate(4 166)">
<title>forcebalance.optimizer.Optimizer.ScanMVals</title>
<polygon fill="white" stroke="white" points="-4,5 -4,-166 1291,-166 1291,5 -4,5"/>
<!-- Node1 -->
<g id="node1" class="node"><title>Node1</title>
<polygon fill="#bfbfbf" stroke="black" points="0,-76 0,-110 176,-110 176,-76 0,-76"/>
<text text-anchor="start" x="8" y="-97" font-family="Ubuntu-R" font-size="10.00">forcebalance.optimizer.Optimizer.</text>
<text text-anchor="middle" x="88" y="-84" font-family="Ubuntu-R" font-size="10.00">ScanMVals</text>
</g>
<!-- Node2 -->
<g id="node3" class="node"><title>Node2</title>
<a xlink:href="classforcebalance_1_1optimizer_1_1Optimizer.html#a0c16ad8678a6480e235a45d69fb077d3" target="_top" xlink:title="A single&#45;point Hessian computation.">
<polygon fill="white" stroke="black" points="212,-76 212,-110 388,-110 388,-76 212,-76"/>
<text text-anchor="start" x="220" y="-97" font-family="Ubuntu-R" font-size="10.00">forcebalance.optimizer.Optimizer.</text>
<text text-anchor="middle" x="300" y="-84" font-family="Ubuntu-R" font-size="10.00">Hessian</text>
</a>
</g>
<!-- Node1&#45;&gt;Node2 -->
<g id="edge2" class="edge"><title>Node1&#45;&gt;Node2</title>
<path fill="none" stroke="midnightblue" d="M176.065,-93C184.569,-93 193.232,-93 201.825,-93"/>
<polygon fill="midnightblue" stroke="midnightblue" points="201.868,-96.5001 211.868,-93 201.868,-89.5001 201.868,-96.5001"/>
</g>
<!-- Node3 -->
<g id="node5" class="node"><title>Node3</title>
<a xlink:href="namespaceforcebalance_1_1finite__difference.html#a9be9f0d21300958092e380514e2e980d" target="_top" xlink:title="A highly accurate seven&#45;point finite difference stencil for computing derivatives of a function...">
<polygon fill="white" stroke="black" points="460,-121 460,-155 564,-155 564,-121 460,-121"/>
<text text-anchor="start" x="468" y="-142" font-family="Ubuntu-R" font-size="10.00">forcebalance.finite</text>
<text text-anchor="middle" x="512" y="-129" font-family="Ubuntu-R" font-size="10.00">_difference.f1d7p</text>
</a>
</g>
<!-- Node2&#45;&gt;Node3 -->
<g id="edge4" class="edge"><title>Node2&#45;&gt;Node3</title>
<path fill="none" stroke="midnightblue" d="M380.148,-110.013C403.332,-114.934 428.272,-120.228 450.156,-124.873"/>
<polygon fill="midnightblue" stroke="midnightblue" points="449.469,-128.305 459.978,-126.958 450.923,-121.457 449.469,-128.305"/>
</g>
<!-- Node7 -->
<g id="node13" class="node"><title>Node7</title>
<a xlink:href="namespaceforcebalance_1_1finite__difference.html#ae484c591ae8c4e5bae73a0ef2660c339" target="_top" xlink:title="A function wrapper for finite difference designed for differentiating &#39;get&#39;&#45;type functions.">
<polygon fill="white" stroke="black" points="1030,-76 1030,-110 1134,-110 1134,-76 1030,-76"/>
<text text-anchor="start" x="1038" y="-97" font-family="Ubuntu-R" font-size="10.00">forcebalance.finite</text>
<text text-anchor="middle" x="1082" y="-84" font-family="Ubuntu-R" font-size="10.00">_difference.fdwrap</text>
</a>
</g>
<!-- Node2&#45;&gt;Node7 -->
<g id="edge20" class="edge"><title>Node2&#45;&gt;Node7</title>
<path fill="none" stroke="midnightblue" d="M388.185,-93C547.957,-93 881.542,-93 1019.85,-93"/>
<polygon fill="midnightblue" stroke="midnightblue" points="1019.86,-96.5001 1029.86,-93 1019.86,-89.5001 1019.86,-96.5001"/>
</g>
<!-- Node10 -->
<g id="node21" class="node"><title>Node10</title>
<a xlink:href="classforcebalance_1_1optimizer_1_1Optimizer.html#adb86c1f6580bb088a23563a6103986fe" target="_top" xlink:title="Finite&#45;difference checker for the objective function Hessian.">
<polygon fill="white" stroke="black" points="424,-31 424,-65 600,-65 600,-31 424,-31"/>
<text text-anchor="start" x="432" y="-52" font-family="Ubuntu-R" font-size="10.00">forcebalance.optimizer.Optimizer.</text>
<text text-anchor="middle" x="512" y="-39" font-family="Ubuntu-R" font-size="10.00">FDCheckH</text>
</a>
</g>
<!-- Node2&#45;&gt;Node10 -->
<g id="edge22" class="edge"><title>Node2&#45;&gt;Node10</title>
<path fill="none" stroke="midnightblue" d="M380.148,-75.9874C393.735,-73.1034 407.926,-70.0913 421.75,-67.1568"/>
<polygon fill="midnightblue" stroke="midnightblue" points="422.683,-70.5368 431.739,-65.0366 421.23,-63.6894 422.683,-70.5368"/>
</g>
<!-- Node4 -->
<g id="node7" class="node"><title>Node4</title>
<a xlink:href="namespaceforcebalance_1_1finite__difference.html#acc281f85b668062745f711d9b4a610fa" target="_top" xlink:title="forcebalance.finite\l_difference.f12d7p">
<polygon fill="white" stroke="black" points="691.5,-121 691.5,-155 796.5,-155 796.5,-121 691.5,-121"/>
<text text-anchor="start" x="699.5" y="-142" font-family="Ubuntu-R" font-size="10.00">forcebalance.finite</text>
<text text-anchor="middle" x="744" y="-129" font-family="Ubuntu-R" font-size="10.00">_difference.f12d7p</text>
</a>
</g>
<!-- Node3&#45;&gt;Node4 -->
<g id="edge6" class="edge"><title>Node3&#45;&gt;Node4</title>
<path fill="none" stroke="midnightblue" d="M564.065,-138C598.746,-138 644.515,-138 681.212,-138"/>
<polygon fill="midnightblue" stroke="midnightblue" points="681.306,-141.5 691.306,-138 681.306,-134.5 681.306,-141.5"/>
</g>
<!-- Node5 -->
<g id="node9" class="node"><title>Node5</title>
<a xlink:href="namespaceforcebalance_1_1finite__difference.html#aa69a8819e4680091f400303c1d6ddeb7" target="_top" xlink:title="A three&#45;point finite difference stencil.">
<polygon fill="white" stroke="black" points="888.5,-121 888.5,-155 993.5,-155 993.5,-121 888.5,-121"/>
<text text-anchor="start" x="896.5" y="-142" font-family="Ubuntu-R" font-size="10.00">forcebalance.finite</text>
<text text-anchor="middle" x="941" y="-129" font-family="Ubuntu-R" font-size="10.00">_difference.f12d3p</text>
</a>
</g>
<!-- Node4&#45;&gt;Node5 -->
<g id="edge8" class="edge"><title>Node4&#45;&gt;Node5</title>
<path fill="none" stroke="midnightblue" d="M796.534,-138C821.589,-138 851.759,-138 878.034,-138"/>
<polygon fill="midnightblue" stroke="midnightblue" points="878.271,-141.5 888.271,-138 878.271,-134.5 878.271,-141.5"/>
</g>
<!-- Node6 -->
<g id="node11" class="node"><title>Node6</title>
<a xlink:href="namespaceforcebalance_1_1finite__difference.html#ad84d3e385db1190e7d8ef58bc08a6c52" target="_top" xlink:title="Invoking this function from anywhere will tell us whether we&#39;re being called by a finite&#45;difference f...">
<polygon fill="white" stroke="black" points="1030,-128 1030,-162 1134,-162 1134,-128 1030,-128"/>
<text text-anchor="start" x="1038" y="-149" font-family="Ubuntu-R" font-size="10.00">forcebalance.finite</text>
<text text-anchor="middle" x="1082" y="-136" font-family="Ubuntu-R" font-size="10.00">_difference.in_fd</text>
</a>
</g>
<!-- Node5&#45;&gt;Node6 -->
<g id="edge10" class="edge"><title>Node5&#45;&gt;Node6</title>
<path fill="none" stroke="midnightblue" d="M993.503,-140.607C1002.06,-141.031 1010.99,-141.475 1019.75,-141.91"/>
<polygon fill="midnightblue" stroke="midnightblue" points="1019.76,-145.414 1029.92,-142.415 1020.11,-138.423 1019.76,-145.414"/>
</g>
<!-- Node5&#45;&gt;Node7 -->
<g id="edge12" class="edge"><title>Node5&#45;&gt;Node7</title>
<path fill="none" stroke="midnightblue" d="M993.503,-121.244C1002.24,-118.454 1011.38,-115.539 1020.32,-112.685"/>
<polygon fill="midnightblue" stroke="midnightblue" points="1021.46,-115.995 1029.92,-109.621 1019.33,-109.327 1021.46,-115.995"/>
</g>
<!-- Node8 -->
<g id="node15" class="node"><title>Node8</title>
<a xlink:href="namespaceforcebalance_1_1finite__difference.html#a00322fb65860c390616f74d05037c797" target="_top" xlink:title="A driver to fdwrap for gradients (see documentation for fdwrap) Inputs: tgt = The Target containing t...">
<polygon fill="white" stroke="black" points="1170,-76 1170,-110 1286,-110 1286,-76 1170,-76"/>
<text text-anchor="start" x="1178" y="-97" font-family="Ubuntu-R" font-size="10.00">forcebalance.finite</text>
<text text-anchor="middle" x="1228" y="-84" font-family="Ubuntu-R" font-size="10.00">_difference.fdwrap_G</text>
</a>
</g>
<!-- Node7&#45;&gt;Node8 -->
<g id="edge14" class="edge"><title>Node7&#45;&gt;Node8</title>
<path fill="none" stroke="midnightblue" d="M1134.3,-86.4973C1142.59,-86.2942 1151.27,-86.2162 1159.86,-86.2633"/>
<polygon fill="midnightblue" stroke="midnightblue" points="1159.84,-89.7632 1169.87,-86.3761 1159.92,-82.7636 1159.84,-89.7632"/>
</g>
<!-- Node9 -->
<g id="node18" class="node"><title>Node9</title>
<a xlink:href="namespaceforcebalance_1_1finite__difference.html#a77a0bc1ae3cbbcc8d38a0ef9ca877d6d" target="_top" xlink:title="A driver to fdwrap for Hessians (see documentation for fdwrap) Inputs: tgt = The Target containing th...">
<polygon fill="white" stroke="black" points="1170,-24 1170,-58 1286,-58 1286,-24 1170,-24"/>
<text text-anchor="start" x="1178" y="-45" font-family="Ubuntu-R" font-size="10.00">forcebalance.finite</text>
<text text-anchor="middle" x="1228" y="-32" font-family="Ubuntu-R" font-size="10.00">_difference.fdwrap_H</text>
</a>
</g>
<!-- Node7&#45;&gt;Node9 -->
<g id="edge18" class="edge"><title>Node7&#45;&gt;Node9</title>
<path fill="none" stroke="midnightblue" d="M1129.81,-75.9733C1142.79,-71.3493 1156.98,-66.2938 1170.44,-61.4997"/>
<polygon fill="midnightblue" stroke="midnightblue" points="1171.84,-64.7174 1180.09,-58.065 1169.49,-58.1231 1171.84,-64.7174"/>
</g>
<!-- Node8&#45;&gt;Node7 -->
<g id="edge16" class="edge"><title>Node8&#45;&gt;Node7</title>
<path fill="none" stroke="midnightblue" d="M1169.87,-99.6239C1161.52,-99.7674 1152.89,-99.7884 1144.46,-99.6871"/>
<polygon fill="midnightblue" stroke="midnightblue" points="1144.36,-96.1848 1134.3,-99.5027 1144.23,-103.184 1144.36,-96.1848"/>
</g>
<!-- Node11 -->
<g id="node23" class="node"><title>Node11</title>
<a xlink:href="classforcebalance_1_1optimizer_1_1Optimizer.html#a05ee5fe985b3e2ec71071ca061e42d66" target="_top" xlink:title="Read the checkpoint file for the main optimizer.">
<polygon fill="white" stroke="black" points="637,-40.5 637,-61.5 851,-61.5 851,-40.5 637,-40.5"/>
<text text-anchor="middle" x="744" y="-48.5" font-family="Ubuntu-R" font-size="10.00">forcebalance.optimizer.Optimizer.readchk</text>
</a>
</g>
<!-- Node10&#45;&gt;Node11 -->
<g id="edge24" class="edge"><title>Node10&#45;&gt;Node11</title>
<path fill="none" stroke="midnightblue" d="M600.04,-49.1384C608.795,-49.2517 617.775,-49.3678 626.766,-49.484"/>
<polygon fill="midnightblue" stroke="midnightblue" points="626.865,-52.9855 636.909,-49.6152 626.955,-45.9861 626.865,-52.9855"/>
</g>
<!-- Node12 -->
<g id="node25" class="node"><title>Node12</title>
<a xlink:href="classforcebalance_1_1optimizer_1_1Optimizer.html#aa7ac7cda43b70ac58ccbd6c8445e88ef" target="_top" xlink:title="Write the checkpoint file for the main optimizer.">
<polygon fill="white" stroke="black" points="636.5,-0.5 636.5,-21.5 851.5,-21.5 851.5,-0.5 636.5,-0.5"/>
<text text-anchor="middle" x="744" y="-8.5" font-family="Ubuntu-R" font-size="10.00">forcebalance.optimizer.Optimizer.writechk</text>
</a>
</g>
<!-- Node10&#45;&gt;Node12 -->
<g id="edge26" class="edge"><title>Node10&#45;&gt;Node12</title>
<path fill="none" stroke="midnightblue" d="M600.04,-33.9591C622.393,-30.3942 646.22,-26.5943 667.923,-23.133"/>
<polygon fill="midnightblue" stroke="midnightblue" points="668.736,-26.5476 678.06,-21.5163 667.634,-19.635 668.736,-26.5476"/>
</g>
</g>
</svg>
