<?xml version="1.0" encoding="UTF-8" standalone="no"?>
<!DOCTYPE svg PUBLIC "-//W3C//DTD SVG 1.1//EN"
 "http://www.w3.org/Graphics/SVG/1.1/DTD/svg11.dtd">
<!-- Generated by graphviz version 2.28.0 (20111219.2309)
 -->
<!-- Title: forcebalance.gmxqpio.Monomer_QTPIE.indicate Pages: 1 -->
<svg width="1784pt" height="316pt"
 viewBox="0.00 0.00 1784.00 316.00" xmlns="http://www.w3.org/2000/svg" xmlns:xlink="http://www.w3.org/1999/xlink">
<g id="graph1" class="graph" transform="scale(1 1) rotate(0) translate(4 312)">
<title>forcebalance.gmxqpio.Monomer_QTPIE.indicate</title>
<polygon fill="white" stroke="white" points="-4,5 -4,-312 1781,-312 1781,5 -4,5"/>
<!-- Node1 -->
<g id="node1" class="node"><title>Node1</title>
<polygon fill="#bfbfbf" stroke="black" points="0.5,-153 0.5,-183 171.5,-183 171.5,-153 0.5,-153"/>
<text text-anchor="start" x="8.5" y="-171" font-family="Ubuntu-R" font-size="10.00">forcebalance.gmxqpio.Monomer</text>
<text text-anchor="middle" x="86" y="-160" font-family="Ubuntu-R" font-size="10.00">_QTPIE.indicate</text>
</g>
<!-- Node2 -->
<g id="node3" class="node"><title>Node2</title>
<a xlink:href="classforcebalance_1_1gmxqpio_1_1Monomer__QTPIE.html#ac227bf1f1ed6d579fea2eeda64c389cb" target="_top" xlink:title="forcebalance.gmxqpio.Monomer\l_QTPIE.unpack_moments">
<polygon fill="white" stroke="black" points="416.5,-200 416.5,-230 587.5,-230 587.5,-200 416.5,-200"/>
<text text-anchor="start" x="424.5" y="-218" font-family="Ubuntu-R" font-size="10.00">forcebalance.gmxqpio.Monomer</text>
<text text-anchor="middle" x="502" y="-207" font-family="Ubuntu-R" font-size="10.00">_QTPIE.unpack_moments</text>
</a>
</g>
<!-- Node1&#45;&gt;Node2 -->
<g id="edge2" class="edge"><title>Node1&#45;&gt;Node2</title>
<path fill="none" stroke="midnightblue" d="M155.552,-183.052C172.619,-186.397 190.922,-189.644 208,-192 273.922,-201.093 348.721,-206.891 406.243,-210.39"/>
<polygon fill="midnightblue" stroke="midnightblue" points="406.221,-213.895 416.412,-210.996 406.638,-206.908 406.221,-213.895"/>
</g>
<!-- Node11 -->
<g id="node25" class="node"><title>Node11</title>
<a xlink:href="namespaceforcebalance_1_1nifty.html#a51180e960742cc7547749fdfb3513ec4" target="_top" xlink:title="See documentation for printcool; this is a nice way to print out keys/values in a dictionary...">
<polygon fill="white" stroke="black" points="222,-62 222,-92 366,-92 366,-62 222,-62"/>
<text text-anchor="start" x="230" y="-80" font-family="Ubuntu-R" font-size="10.00">forcebalance.nifty.printcool</text>
<text text-anchor="middle" x="294" y="-69" font-family="Ubuntu-R" font-size="10.00">_dictionary</text>
</a>
</g>
<!-- Node1&#45;&gt;Node11 -->
<g id="edge28" class="edge"><title>Node1&#45;&gt;Node11</title>
<path fill="none" stroke="midnightblue" d="M121.017,-152.973C156.203,-137.43 211.268,-113.105 249.577,-96.1822"/>
<polygon fill="midnightblue" stroke="midnightblue" points="251.2,-99.2915 258.933,-92.0491 248.371,-92.8884 251.2,-99.2915"/>
</g>
<!-- Node25 -->
<g id="node57" class="node"><title>Node25</title>
<a xlink:href="classforcebalance_1_1gmxqpio_1_1Monomer__QTPIE.html#a0a859c87a87d4021e61ada64fdce4ebd" target="_top" xlink:title="forcebalance.gmxqpio.Monomer\l_QTPIE.prepare_temp_directory">
<polygon fill="white" stroke="black" points="208.5,-153 208.5,-183 379.5,-183 379.5,-153 208.5,-153"/>
<text text-anchor="start" x="216.5" y="-171" font-family="Ubuntu-R" font-size="10.00">forcebalance.gmxqpio.Monomer</text>
<text text-anchor="middle" x="294" y="-160" font-family="Ubuntu-R" font-size="10.00">_QTPIE.prepare_temp_directory</text>
</a>
</g>
<!-- Node1&#45;&gt;Node25 -->
<g id="edge64" class="edge"><title>Node1&#45;&gt;Node25</title>
<path fill="none" stroke="midnightblue" d="M171.68,-168C180.374,-168 189.248,-168 198.043,-168"/>
<polygon fill="midnightblue" stroke="midnightblue" points="198.316,-171.5 208.316,-168 198.316,-164.5 198.316,-171.5"/>
</g>
<!-- Node3 -->
<g id="node5" class="node"><title>Node3</title>
<a xlink:href="classforcebalance_1_1gmxqpio_1_1Monomer__QTPIE.html#a46144411b5166a1839bf954b584ca3a7" target="_top" xlink:title="forcebalance.gmxqpio.Monomer\l_QTPIE.get">
<polygon fill="white" stroke="black" points="624.5,-202 624.5,-232 795.5,-232 795.5,-202 624.5,-202"/>
<text text-anchor="start" x="632.5" y="-220" font-family="Ubuntu-R" font-size="10.00">forcebalance.gmxqpio.Monomer</text>
<text text-anchor="middle" x="710" y="-209" font-family="Ubuntu-R" font-size="10.00">_QTPIE.get</text>
</a>
</g>
<!-- Node2&#45;&gt;Node3 -->
<g id="edge4" class="edge"><title>Node2&#45;&gt;Node3</title>
<path fill="none" stroke="midnightblue" d="M587.68,-209.168C596.374,-209.161 605.248,-209.221 614.043,-209.346"/>
<polygon fill="midnightblue" stroke="midnightblue" points="614.257,-212.851 624.316,-209.524 614.378,-205.852 614.257,-212.851"/>
</g>
<!-- Node3&#45;&gt;Node2 -->
<g id="edge10" class="edge"><title>Node3&#45;&gt;Node2</title>
<path fill="none" stroke="midnightblue" d="M624.316,-222.832C615.622,-222.839 606.748,-222.779 597.953,-222.654"/>
<polygon fill="midnightblue" stroke="midnightblue" points="597.739,-219.149 587.68,-222.476 597.618,-226.148 597.739,-219.149"/>
</g>
<!-- Node4 -->
<g id="node7" class="node"><title>Node4</title>
<a xlink:href="namespaceforcebalance_1_1gmxqpio.html#a499ed366638eae7be524b18760a986b8" target="_top" xlink:title="forcebalance.gmxqpio.get\l_monomer_properties">
<polygon fill="white" stroke="black" points="832.5,-155 832.5,-185 973.5,-185 973.5,-155 832.5,-155"/>
<text text-anchor="start" x="840.5" y="-173" font-family="Ubuntu-R" font-size="10.00">forcebalance.gmxqpio.get</text>
<text text-anchor="middle" x="903" y="-162" font-family="Ubuntu-R" font-size="10.00">_monomer_properties</text>
</a>
</g>
<!-- Node3&#45;&gt;Node4 -->
<g id="edge6" class="edge"><title>Node3&#45;&gt;Node4</title>
<path fill="none" stroke="midnightblue" d="M771.959,-202C790.825,-197.357 811.769,-192.203 831.24,-187.412"/>
<polygon fill="midnightblue" stroke="midnightblue" points="832.091,-190.807 840.965,-185.019 830.419,-184.01 832.091,-190.807"/>
</g>
<!-- Node6 -->
<g id="node12" class="node"><title>Node6</title>
<a xlink:href="namespaceforcebalance_1_1finite__difference.html#aa69a8819e4680091f400303c1d6ddeb7" target="_top" xlink:title="A three&#45;point finite difference stencil. ">
<polygon fill="white" stroke="black" points="850.5,-243 850.5,-273 955.5,-273 955.5,-243 850.5,-243"/>
<text text-anchor="start" x="858.5" y="-261" font-family="Ubuntu-R" font-size="10.00">forcebalance.finite</text>
<text text-anchor="middle" x="903" y="-250" font-family="Ubuntu-R" font-size="10.00">_difference.f12d3p</text>
</a>
</g>
<!-- Node3&#45;&gt;Node6 -->
<g id="edge12" class="edge"><title>Node3&#45;&gt;Node6</title>
<path fill="none" stroke="midnightblue" d="M781.037,-232.034C800.44,-236.199 821.356,-240.689 840.25,-244.745"/>
<polygon fill="midnightblue" stroke="midnightblue" points="839.708,-248.208 850.22,-246.885 841.178,-241.364 839.708,-248.208"/>
</g>
<!-- Node7 -->
<g id="node14" class="node"><title>Node7</title>
<a xlink:href="namespaceforcebalance_1_1finite__difference.html#ad84d3e385db1190e7d8ef58bc08a6c52" target="_top" xlink:title="Invoking this function from anywhere will tell us whether we&#39;re being called by a finite&#45;difference f...">
<polygon fill="white" stroke="black" points="1036,-278 1036,-308 1140,-308 1140,-278 1036,-278"/>
<text text-anchor="start" x="1044" y="-296" font-family="Ubuntu-R" font-size="10.00">forcebalance.finite</text>
<text text-anchor="middle" x="1088" y="-285" font-family="Ubuntu-R" font-size="10.00">_difference.in_fd</text>
</a>
</g>
<!-- Node3&#45;&gt;Node7 -->
<g id="edge26" class="edge"><title>Node3&#45;&gt;Node7</title>
<path fill="none" stroke="midnightblue" d="M732.038,-232.138C755.237,-247.88 794.289,-271.643 832,-282 896.295,-299.658 973.104,-300.359 1025.5,-297.935"/>
<polygon fill="midnightblue" stroke="midnightblue" points="1025.84,-301.423 1035.65,-297.413 1025.48,-294.432 1025.84,-301.423"/>
</g>
<!-- Node8 -->
<g id="node16" class="node"><title>Node8</title>
<a xlink:href="namespaceforcebalance_1_1finite__difference.html#ae484c591ae8c4e5bae73a0ef2660c339" target="_top" xlink:title="A function wrapper for finite difference designed for differentiating &#39;get&#39;&#45;type functions. ">
<polygon fill="white" stroke="black" points="1036,-211 1036,-241 1140,-241 1140,-211 1036,-211"/>
<text text-anchor="start" x="1044" y="-229" font-family="Ubuntu-R" font-size="10.00">forcebalance.finite</text>
<text text-anchor="middle" x="1088" y="-218" font-family="Ubuntu-R" font-size="10.00">_difference.fdwrap</text>
</a>
</g>
<!-- Node3&#45;&gt;Node8 -->
<g id="edge24" class="edge"><title>Node3&#45;&gt;Node8</title>
<path fill="none" stroke="midnightblue" d="M795.851,-219.031C865.815,-220.706 963.384,-223.041 1025.88,-224.537"/>
<polygon fill="midnightblue" stroke="midnightblue" points="1025.9,-228.038 1035.98,-224.779 1026.07,-221.04 1025.9,-228.038"/>
</g>
<!-- Node5 -->
<g id="node9" class="node"><title>Node5</title>
<a xlink:href="namespaceforcebalance_1_1molecule.html#afe989ffd119568047fc8265b1d329a70" target="_top" xlink:title="Matches ANY number; it can be a decimal, scientific notation, integer, or what have you...">
<polygon fill="white" stroke="black" points="1010,-160.5 1010,-179.5 1166,-179.5 1166,-160.5 1010,-160.5"/>
<text text-anchor="middle" x="1088" y="-167.5" font-family="Ubuntu-R" font-size="10.00">forcebalance.molecule.isfloat</text>
</a>
</g>
<!-- Node4&#45;&gt;Node5 -->
<g id="edge8" class="edge"><title>Node4&#45;&gt;Node5</title>
<path fill="none" stroke="midnightblue" d="M973.706,-170C982.201,-170 990.961,-170 999.67,-170"/>
<polygon fill="midnightblue" stroke="midnightblue" points="999.853,-173.5 1009.85,-170 999.852,-166.5 999.853,-173.5"/>
</g>
<!-- Node6&#45;&gt;Node7 -->
<g id="edge14" class="edge"><title>Node6&#45;&gt;Node7</title>
<path fill="none" stroke="midnightblue" d="M955.951,-267.936C977.766,-272.108 1003.3,-276.991 1026,-281.333"/>
<polygon fill="midnightblue" stroke="midnightblue" points="1025.39,-284.78 1035.87,-283.221 1026.7,-277.904 1025.39,-284.78"/>
</g>
<!-- Node6&#45;&gt;Node8 -->
<g id="edge16" class="edge"><title>Node6&#45;&gt;Node8</title>
<path fill="none" stroke="midnightblue" d="M955.951,-248.916C977.766,-245.101 1003.3,-240.637 1026,-236.667"/>
<polygon fill="midnightblue" stroke="midnightblue" points="1026.62,-240.111 1035.87,-234.941 1025.42,-233.216 1026.62,-240.111"/>
</g>
<!-- Node9 -->
<g id="node18" class="node"><title>Node9</title>
<a xlink:href="namespaceforcebalance_1_1finite__difference.html#a00322fb65860c390616f74d05037c797" target="_top" xlink:title="A driver to fdwrap for gradients (see documentation for fdwrap) Inputs: tgt = The Target containing t...">
<polygon fill="white" stroke="black" points="1220,-211 1220,-241 1336,-241 1336,-211 1220,-211"/>
<text text-anchor="start" x="1228" y="-229" font-family="Ubuntu-R" font-size="10.00">forcebalance.finite</text>
<text text-anchor="middle" x="1278" y="-218" font-family="Ubuntu-R" font-size="10.00">_difference.fdwrap_G</text>
</a>
</g>
<!-- Node8&#45;&gt;Node9 -->
<g id="edge18" class="edge"><title>Node8&#45;&gt;Node9</title>
<path fill="none" stroke="midnightblue" d="M1140.37,-219.909C1161.68,-219.203 1186.69,-219.064 1209.45,-219.493"/>
<polygon fill="midnightblue" stroke="midnightblue" points="1209.65,-222.999 1219.73,-219.731 1209.82,-216.001 1209.65,-222.999"/>
</g>
<!-- Node10 -->
<g id="node21" class="node"><title>Node10</title>
<a xlink:href="namespaceforcebalance_1_1finite__difference.html#a77a0bc1ae3cbbcc8d38a0ef9ca877d6d" target="_top" xlink:title="A driver to fdwrap for Hessians (see documentation for fdwrap) Inputs: tgt = The Target containing th...">
<polygon fill="white" stroke="black" points="1220,-162 1220,-192 1336,-192 1336,-162 1220,-162"/>
<text text-anchor="start" x="1228" y="-180" font-family="Ubuntu-R" font-size="10.00">forcebalance.finite</text>
<text text-anchor="middle" x="1278" y="-169" font-family="Ubuntu-R" font-size="10.00">_difference.fdwrap_H</text>
</a>
</g>
<!-- Node8&#45;&gt;Node10 -->
<g id="edge22" class="edge"><title>Node8&#45;&gt;Node10</title>
<path fill="none" stroke="midnightblue" d="M1140.37,-212.611C1161.77,-207.032 1186.92,-200.479 1209.76,-194.525"/>
<polygon fill="midnightblue" stroke="midnightblue" points="1210.94,-197.835 1219.73,-191.926 1209.17,-191.062 1210.94,-197.835"/>
</g>
<!-- Node9&#45;&gt;Node8 -->
<g id="edge20" class="edge"><title>Node9&#45;&gt;Node8</title>
<path fill="none" stroke="midnightblue" d="M1219.73,-232.269C1197.8,-232.873 1172.7,-232.908 1150.4,-232.375"/>
<polygon fill="midnightblue" stroke="midnightblue" points="1150.47,-228.876 1140.37,-232.091 1150.27,-235.873 1150.47,-228.876"/>
</g>
<!-- Node12 -->
<g id="node27" class="node"><title>Node12</title>
<a xlink:href="namespaceforcebalance_1_1nifty.html#a3f1c7a1af9d35d5d1693074bc6f5497c" target="_top" xlink:title="ONLY matches integers! If you have a decimal point? None shall pass! ">
<polygon fill="white" stroke="black" points="441,-67.5 441,-86.5 563,-86.5 563,-67.5 441,-67.5"/>
<text text-anchor="middle" x="502" y="-74.5" font-family="Ubuntu-R" font-size="10.00">forcebalance.nifty.isint</text>
</a>
</g>
<!-- Node11&#45;&gt;Node12 -->
<g id="edge30" class="edge"><title>Node11&#45;&gt;Node12</title>
<path fill="none" stroke="midnightblue" d="M366.182,-77C387.07,-77 409.893,-77 430.724,-77"/>
<polygon fill="midnightblue" stroke="midnightblue" points="430.773,-80.5001 440.773,-77 430.773,-73.5001 430.773,-80.5001"/>
</g>
<!-- Node14 -->
<g id="node31" class="node"><title>Node14</title>
<a xlink:href="namespaceforcebalance_1_1nifty.html#a8e3ef0108b9d37b82ba0dced7c6037ae" target="_top" xlink:title="Matches ANY number; it can be a decimal, scientific notation, what have you CAUTION &#45; this will also ...">
<polygon fill="white" stroke="black" points="837.5,-10.5 837.5,-29.5 968.5,-29.5 968.5,-10.5 837.5,-10.5"/>
<text text-anchor="middle" x="903" y="-17.5" font-family="Ubuntu-R" font-size="10.00">forcebalance.nifty.isfloat</text>
</a>
</g>
<!-- Node11&#45;&gt;Node14 -->
<g id="edge62" class="edge"><title>Node11&#45;&gt;Node14</title>
<path fill="none" stroke="midnightblue" d="M366.292,-65.4815C382.614,-62.9346 399.897,-60.3089 416,-58 508.276,-44.7685 531.111,-38.8507 624,-31 692.645,-25.1984 771.089,-22.4469 827.108,-21.1478"/>
<polygon fill="midnightblue" stroke="midnightblue" points="827.38,-24.6427 837.3,-20.9217 827.224,-17.6444 827.38,-24.6427"/>
</g>
<!-- Node13 -->
<g id="node29" class="node"><title>Node13</title>
<a xlink:href="namespaceforcebalance_1_1nifty.html#a09263927eaec9deff283fbf1a820242f" target="_top" xlink:title="Matches things with a decimal only; see isint and isfloat. ">
<polygon fill="white" stroke="black" points="636,-67.5 636,-86.5 784,-86.5 784,-67.5 636,-67.5"/>
<text text-anchor="middle" x="710" y="-74.5" font-family="Ubuntu-R" font-size="10.00">forcebalance.nifty.isdecimal</text>
</a>
</g>
<!-- Node12&#45;&gt;Node13 -->
<g id="edge32" class="edge"><title>Node12&#45;&gt;Node13</title>
<path fill="none" stroke="midnightblue" d="M563.138,-77C582.63,-77 604.616,-77 625.493,-77"/>
<polygon fill="midnightblue" stroke="midnightblue" points="625.637,-80.5001 635.637,-77 625.637,-73.5001 625.637,-80.5001"/>
</g>
<!-- Node13&#45;&gt;Node14 -->
<g id="edge34" class="edge"><title>Node13&#45;&gt;Node14</title>
<path fill="none" stroke="midnightblue" d="M745.799,-67.3998C761.208,-63.0908 779.536,-57.8862 796,-53 817.972,-46.4793 842.402,-38.8964 862.266,-32.6449"/>
<polygon fill="midnightblue" stroke="midnightblue" points="863.426,-35.949 871.909,-29.6019 861.32,-29.2734 863.426,-35.949"/>
</g>
<!-- Node18 -->
<g id="node40" class="node"><title>Node18</title>
<a xlink:href="namespaceforcebalance_1_1nifty.html#afb3f205bce4984856e766af7e9fdaca8" target="_top" xlink:title="Given any list, array, or matrix, return a 1&#45;column matrix. ">
<polygon fill="white" stroke="black" points="845,-67.5 845,-86.5 961,-86.5 961,-67.5 845,-67.5"/>
<text text-anchor="middle" x="903" y="-74.5" font-family="Ubuntu-R" font-size="10.00">forcebalance.nifty.col</text>
</a>
</g>
<!-- Node13&#45;&gt;Node18 -->
<g id="edge44" class="edge"><title>Node13&#45;&gt;Node18</title>
<path fill="none" stroke="midnightblue" d="M784.026,-77C800.684,-77 818.309,-77 834.713,-77"/>
<polygon fill="midnightblue" stroke="midnightblue" points="834.75,-80.5001 844.75,-77 834.75,-73.5001 834.75,-80.5001"/>
</g>
<!-- Node14&#45;&gt;Node12 -->
<g id="edge36" class="edge"><title>Node14&#45;&gt;Node12</title>
<path fill="none" stroke="midnightblue" d="M837.349,-28.4666C780.973,-35.938 697.017,-47.278 624,-58 607.274,-60.4561 589.268,-63.219 572.389,-65.8614"/>
<polygon fill="midnightblue" stroke="midnightblue" points="571.381,-62.4767 562.046,-67.4873 572.469,-69.3918 571.381,-62.4767"/>
</g>
<!-- Node15 -->
<g id="node34" class="node"><title>Node15</title>
<a xlink:href="namespaceforcebalance_1_1nifty.html#a8d63c8ae9a67c66673a6cf81357f827d" target="_top" xlink:title="Returns a big number if we encounter NaN. ">
<polygon fill="white" stroke="black" points="1012,-0.5 1012,-19.5 1164,-19.5 1164,-0.5 1012,-0.5"/>
<text text-anchor="middle" x="1088" y="-7.5" font-family="Ubuntu-R" font-size="10.00">forcebalance.nifty.floatornan</text>
</a>
</g>
<!-- Node14&#45;&gt;Node15 -->
<g id="edge38" class="edge"><title>Node14&#45;&gt;Node15</title>
<path fill="none" stroke="midnightblue" d="M968.519,-16.4744C979.234,-15.8889 990.491,-15.2737 1001.63,-14.6652"/>
<polygon fill="midnightblue" stroke="midnightblue" points="1002.01,-18.1498 1011.8,-14.1093 1001.62,-11.1603 1002.01,-18.1498"/>
</g>
<!-- Node16 -->
<g id="node36" class="node"><title>Node16</title>
<a xlink:href="namespaceforcebalance_1_1nifty.html#a6c9727360cdff8f3011a12cc54d0e86e" target="_top" xlink:title="Given any list, array, or matrix, return a 1&#45;row matrix. ">
<polygon fill="white" stroke="black" points="1218.5,-0.5 1218.5,-19.5 1337.5,-19.5 1337.5,-0.5 1218.5,-0.5"/>
<text text-anchor="middle" x="1278" y="-7.5" font-family="Ubuntu-R" font-size="10.00">forcebalance.nifty.row</text>
</a>
</g>
<!-- Node15&#45;&gt;Node16 -->
<g id="edge40" class="edge"><title>Node15&#45;&gt;Node16</title>
<path fill="none" stroke="midnightblue" d="M1164.11,-10C1178.6,-10 1193.71,-10 1207.99,-10"/>
<polygon fill="midnightblue" stroke="midnightblue" points="1208.22,-13.5001 1218.22,-10 1208.22,-6.5001 1208.22,-13.5001"/>
</g>
<!-- Node17 -->
<g id="node38" class="node"><title>Node17</title>
<a xlink:href="namespaceforcebalance_1_1nifty.html#a7676236002c6a65ea7d2e69a09923889" target="_top" xlink:title="Given two vectors vec1 and vec2, project out the component of vec1 that is along the vec2&#45;direction...">
<polygon fill="white" stroke="black" points="1390,-0.5 1390,-19.5 1558,-19.5 1558,-0.5 1390,-0.5"/>
<text text-anchor="middle" x="1474" y="-7.5" font-family="Ubuntu-R" font-size="10.00">forcebalance.nifty.orthogonalize</text>
</a>
</g>
<!-- Node16&#45;&gt;Node17 -->
<g id="edge42" class="edge"><title>Node16&#45;&gt;Node17</title>
<path fill="none" stroke="midnightblue" d="M1337.73,-10C1350.92,-10 1365.24,-10 1379.46,-10"/>
<polygon fill="midnightblue" stroke="midnightblue" points="1379.78,-13.5001 1389.78,-10 1379.78,-6.5001 1379.78,-13.5001"/>
</g>
<!-- Node19 -->
<g id="node42" class="node"><title>Node19</title>
<a xlink:href="namespaceforcebalance_1_1nifty.html#a52114ceee9d55f94d9aecb3e176de294" target="_top" xlink:title="Given any list, array, or matrix, return a single&#45;index array. ">
<polygon fill="white" stroke="black" points="1029,-38.5 1029,-57.5 1147,-57.5 1147,-38.5 1029,-38.5"/>
<text text-anchor="middle" x="1088" y="-45.5" font-family="Ubuntu-R" font-size="10.00">forcebalance.nifty.flat</text>
</a>
</g>
<!-- Node18&#45;&gt;Node19 -->
<g id="edge46" class="edge"><title>Node18&#45;&gt;Node19</title>
<path fill="none" stroke="midnightblue" d="M961.15,-67.9435C979.373,-65.0556 999.723,-61.8308 1018.66,-58.8303"/>
<polygon fill="midnightblue" stroke="midnightblue" points="1019.38,-62.2596 1028.71,-57.2375 1018.28,-55.3459 1019.38,-62.2596"/>
</g>
<!-- Node20 -->
<g id="node44" class="node"><title>Node20</title>
<a xlink:href="namespaceforcebalance_1_1nifty.html#a4c82187e92dfeb8a159f4aa44b501c40" target="_top" xlink:title="Invert a matrix using singular value decomposition. ">
<polygon fill="white" stroke="black" points="1202,-76.5 1202,-95.5 1354,-95.5 1354,-76.5 1202,-76.5"/>
<text text-anchor="middle" x="1278" y="-83.5" font-family="Ubuntu-R" font-size="10.00">forcebalance.nifty.invert_svd</text>
</a>
</g>
<!-- Node19&#45;&gt;Node20 -->
<g id="edge48" class="edge"><title>Node19&#45;&gt;Node20</title>
<path fill="none" stroke="midnightblue" d="M1136.44,-57.589C1161.81,-62.7165 1193.23,-69.0672 1219.92,-74.4632"/>
<polygon fill="midnightblue" stroke="midnightblue" points="1219.41,-77.9293 1229.9,-76.4799 1220.79,-71.068 1219.41,-77.9293"/>
</g>
<!-- Node20&#45;&gt;Node18 -->
<g id="edge56" class="edge"><title>Node20&#45;&gt;Node18</title>
<path fill="none" stroke="midnightblue" d="M1201.9,-84.1879C1134.39,-82.5591 1036.15,-80.1885 971.187,-78.6211"/>
<polygon fill="midnightblue" stroke="midnightblue" points="971.138,-75.119 961.057,-78.3767 970.969,-82.117 971.138,-75.119"/>
</g>
<!-- Node21 -->
<g id="node46" class="node"><title>Node21</title>
<a xlink:href="namespaceforcebalance_1_1nifty.html#aa9fb9c7c65231eca50a7afc04f489b64" target="_top" xlink:title="forcebalance.nifty.get\l_least_squares">
<polygon fill="white" stroke="black" points="1414.5,-49 1414.5,-79 1533.5,-79 1533.5,-49 1414.5,-49"/>
<text text-anchor="start" x="1422.5" y="-67" font-family="Ubuntu-R" font-size="10.00">forcebalance.nifty.get</text>
<text text-anchor="middle" x="1474" y="-56" font-family="Ubuntu-R" font-size="10.00">_least_squares</text>
</a>
</g>
<!-- Node20&#45;&gt;Node21 -->
<g id="edge50" class="edge"><title>Node20&#45;&gt;Node21</title>
<path fill="none" stroke="midnightblue" d="M1354.01,-77.4942C1370.61,-75.6117 1388.11,-73.6264 1404.44,-71.7748"/>
<polygon fill="midnightblue" stroke="midnightblue" points="1404.89,-75.2459 1414.44,-70.6413 1404.11,-68.2905 1404.89,-75.2459"/>
</g>
<!-- Node23 -->
<g id="node52" class="node"><title>Node23</title>
<a xlink:href="namespaceforcebalance_1_1nifty.html#abb8f59044961a12588e0653c2baa8b01" target="_top" xlink:title="forcebalance.nifty.warn\l_press_key">
<polygon fill="white" stroke="black" points="1411.5,-103 1411.5,-133 1536.5,-133 1536.5,-103 1411.5,-103"/>
<text text-anchor="start" x="1419.5" y="-121" font-family="Ubuntu-R" font-size="10.00">forcebalance.nifty.warn</text>
<text text-anchor="middle" x="1474" y="-110" font-family="Ubuntu-R" font-size="10.00">_press_key</text>
</a>
</g>
<!-- Node20&#45;&gt;Node23 -->
<g id="edge58" class="edge"><title>Node20&#45;&gt;Node23</title>
<path fill="none" stroke="midnightblue" d="M1336.68,-95.5144C1357.03,-98.8703 1380.15,-102.684 1401.5,-106.206"/>
<polygon fill="midnightblue" stroke="midnightblue" points="1401.05,-109.68 1411.49,-107.854 1402.19,-102.773 1401.05,-109.68"/>
</g>
<!-- Node21&#45;&gt;Node19 -->
<g id="edge52" class="edge"><title>Node21&#45;&gt;Node19</title>
<path fill="none" stroke="midnightblue" d="M1414.45,-61.5602C1345.31,-58.6796 1230.5,-53.8959 1157.36,-50.8482"/>
<polygon fill="midnightblue" stroke="midnightblue" points="1157.46,-47.3495 1147.32,-50.4301 1157.17,-54.3434 1157.46,-47.3495"/>
</g>
<!-- Node22 -->
<g id="node49" class="node"><title>Node22</title>
<a xlink:href="namespaceforcebalance_1_1nifty.html#ad5ca60565c864b4245a8212fe9d92e10" target="_top" xlink:title="Compute the (cross) statistical inefficiency of (two) timeseries. ">
<polygon fill="white" stroke="black" points="1610.5,-49 1610.5,-79 1759.5,-79 1759.5,-49 1610.5,-49"/>
<text text-anchor="start" x="1618.5" y="-67" font-family="Ubuntu-R" font-size="10.00">forcebalance.nifty.statistical</text>
<text text-anchor="middle" x="1685" y="-56" font-family="Ubuntu-R" font-size="10.00">Inefficiency</text>
</a>
</g>
<!-- Node21&#45;&gt;Node22 -->
<g id="edge54" class="edge"><title>Node21&#45;&gt;Node22</title>
<path fill="none" stroke="midnightblue" d="M1533.77,-64C1554.4,-64 1577.99,-64 1600.26,-64"/>
<polygon fill="midnightblue" stroke="midnightblue" points="1600.39,-67.5001 1610.39,-64 1600.39,-60.5001 1600.39,-67.5001"/>
</g>
<!-- Node24 -->
<g id="node54" class="node"><title>Node24</title>
<a xlink:href="namespaceforcebalance_1_1nifty.html#a2fc81730e7efa7d138dd86f733507bfc" target="_top" xlink:title="Similar to the bultin function map(). ">
<polygon fill="white" stroke="black" points="1594,-108.5 1594,-127.5 1776,-127.5 1776,-108.5 1594,-108.5"/>
<text text-anchor="middle" x="1685" y="-115.5" font-family="Ubuntu-R" font-size="10.00">forcebalance.nifty.concurrent_map</text>
</a>
</g>
<!-- Node23&#45;&gt;Node24 -->
<g id="edge60" class="edge"><title>Node23&#45;&gt;Node24</title>
<path fill="none" stroke="midnightblue" d="M1536.58,-118C1551.43,-118 1567.69,-118 1583.81,-118"/>
<polygon fill="midnightblue" stroke="midnightblue" points="1583.82,-121.5 1593.82,-118 1583.82,-114.5 1583.82,-121.5"/>
</g>
<!-- Node25&#45;&gt;Node2 -->
<g id="edge72" class="edge"><title>Node25&#45;&gt;Node2</title>
<path fill="none" stroke="midnightblue" d="M360.746,-183C381.279,-187.685 404.096,-192.891 425.258,-197.719"/>
<polygon fill="midnightblue" stroke="midnightblue" points="424.644,-201.169 435.172,-199.981 426.201,-194.344 424.644,-201.169"/>
</g>
<!-- Node25&#45;&gt;Node23 -->
<g id="edge66" class="edge"><title>Node25&#45;&gt;Node23</title>
<path fill="none" stroke="midnightblue" d="M379.56,-153.714C463.034,-140.867 594.437,-124 709,-124 709,-124 709,-124 1089,-124 1197.96,-124 1324.28,-121.555 1401.4,-119.787"/>
<polygon fill="midnightblue" stroke="midnightblue" points="1401.57,-123.284 1411.49,-119.553 1401.41,-116.286 1401.57,-123.284"/>
</g>
<!-- Node26 -->
<g id="node60" class="node"><title>Node26</title>
<a xlink:href="namespaceforcebalance_1_1nifty.html#ab182a9da2a2f42cf45942fbee6acf9b1" target="_top" xlink:title="forcebalance.nifty.LinkFile">
<polygon fill="white" stroke="black" points="433.5,-158.5 433.5,-177.5 570.5,-177.5 570.5,-158.5 433.5,-158.5"/>
<text text-anchor="middle" x="502" y="-165.5" font-family="Ubuntu-R" font-size="10.00">forcebalance.nifty.LinkFile</text>
</a>
</g>
<!-- Node25&#45;&gt;Node26 -->
<g id="edge68" class="edge"><title>Node25&#45;&gt;Node26</title>
<path fill="none" stroke="midnightblue" d="M379.68,-168C394.057,-168 408.926,-168 423.117,-168"/>
<polygon fill="midnightblue" stroke="midnightblue" points="423.314,-171.5 433.314,-168 423.314,-164.5 423.314,-171.5"/>
</g>
<!-- Node27 -->
<g id="node62" class="node"><title>Node27</title>
<a xlink:href="namespaceforcebalance_1_1nifty.html#a25efa4d501ad852a234721af18978f7e" target="_top" xlink:title="Remove the file if it exists (doesn&#39;t return an error). ">
<polygon fill="white" stroke="black" points="640,-153 640,-183 780,-183 780,-153 640,-153"/>
<text text-anchor="start" x="648" y="-171" font-family="Ubuntu-R" font-size="10.00">forcebalance.nifty.remove</text>
<text text-anchor="middle" x="710" y="-160" font-family="Ubuntu-R" font-size="10.00">_if_exists</text>
</a>
</g>
<!-- Node26&#45;&gt;Node27 -->
<g id="edge70" class="edge"><title>Node26&#45;&gt;Node27</title>
<path fill="none" stroke="midnightblue" d="M570.737,-168C589.611,-168 610.281,-168 629.754,-168"/>
<polygon fill="midnightblue" stroke="midnightblue" points="629.811,-171.5 639.811,-168 629.811,-164.5 629.811,-171.5"/>
</g>
</g>
</svg>
