<?xml version="1.0" encoding="UTF-8" standalone="no"?>
<!DOCTYPE svg PUBLIC "-//W3C//DTD SVG 1.1//EN"
 "http://www.w3.org/Graphics/SVG/1.1/DTD/svg11.dtd">
<!-- Generated by graphviz version 2.28.0 (20111219.2309)
 -->
<!-- Title: forcebalance.openmmio.AbInitio_OpenMM.energy_force_driver_all_internal_ Pages: 1 -->
<svg width="2618pt" height="373pt"
 viewBox="0.00 0.00 2618.00 373.00" xmlns="http://www.w3.org/2000/svg" xmlns:xlink="http://www.w3.org/1999/xlink">
<g id="graph1" class="graph" transform="scale(1 1) rotate(0) translate(4 369)">
<title>forcebalance.openmmio.AbInitio_OpenMM.energy_force_driver_all_internal_</title>
<polygon fill="white" stroke="white" points="-4,5 -4,-369 2615,-369 2615,5 -4,5"/>
<!-- Node1 -->
<g id="node1" class="node"><title>Node1</title>
<polygon fill="#bfbfbf" stroke="black" points="0,-187.5 0,-228.5 152,-228.5 152,-187.5 0,-187.5"/>
<text text-anchor="start" x="8" y="-216.5" font-family="Ubuntu-R" font-size="10.00">forcebalance.openmmio.Ab</text>
<text text-anchor="start" x="8" y="-205.5" font-family="Ubuntu-R" font-size="10.00">Initio_OpenMM.energy_force</text>
<text text-anchor="middle" x="76" y="-194.5" font-family="Ubuntu-R" font-size="10.00">_driver_all_internal_</text>
</g>
<!-- Node1&#45;&gt;Node1 -->
<g id="edge38" class="edge"><title>Node1&#45;&gt;Node1</title>
<path fill="none" stroke="midnightblue" d="M39.4551,-228.716C35.9746,-237.984 48.1562,-246 76,-246 92.9673,-246 104.119,-243.023 109.454,-238.601"/>
<polygon fill="midnightblue" stroke="midnightblue" points="112.901,-239.305 112.545,-228.716 106.22,-237.216 112.901,-239.305"/>
</g>
<!-- Node2 -->
<g id="node3" class="node"><title>Node2</title>
<a xlink:href="namespaceforcebalance_1_1openmmio.html#a9f9fc56475dbfcc94a40fef6a84ed25f" target="_top" xlink:title="forcebalance.openmmio.Update\lSimulationParameters">
<polygon fill="white" stroke="black" points="188.5,-335 188.5,-365 359.5,-365 359.5,-335 188.5,-335"/>
<text text-anchor="start" x="196.5" y="-353" font-family="Ubuntu-R" font-size="10.00">forcebalance.openmmio.Update</text>
<text text-anchor="middle" x="274" y="-342" font-family="Ubuntu-R" font-size="10.00">SimulationParameters</text>
</a>
</g>
<!-- Node1&#45;&gt;Node2 -->
<g id="edge2" class="edge"><title>Node1&#45;&gt;Node2</title>
<path fill="none" stroke="midnightblue" d="M92.5053,-228.558C112.211,-253.394 148.452,-294.952 188,-320 194.6,-324.18 201.858,-327.871 209.267,-331.104"/>
<polygon fill="midnightblue" stroke="midnightblue" points="208.113,-334.413 218.694,-334.957 210.761,-327.934 208.113,-334.413"/>
</g>
<!-- Node3 -->
<g id="node5" class="node"><title>Node3</title>
<a xlink:href="namespaceforcebalance_1_1openmmio.html#a95d91538d72e354fc95433539c42450c" target="_top" xlink:title="forcebalance.openmmio.Set\lAmoebaVirtualExclusions">
<polygon fill="white" stroke="black" points="411,-315 411,-345 563,-345 563,-315 411,-315"/>
<text text-anchor="start" x="419" y="-333" font-family="Ubuntu-R" font-size="10.00">forcebalance.openmmio.Set</text>
<text text-anchor="middle" x="487" y="-322" font-family="Ubuntu-R" font-size="10.00">AmoebaVirtualExclusions</text>
</a>
</g>
<!-- Node1&#45;&gt;Node3 -->
<g id="edge8" class="edge"><title>Node1&#45;&gt;Node3</title>
<path fill="none" stroke="midnightblue" d="M99.3657,-228.527C120.552,-246.733 154.091,-272.474 188,-286 256.445,-313.303 339.824,-323.88 400.962,-327.872"/>
<polygon fill="midnightblue" stroke="midnightblue" points="400.766,-331.367 410.96,-328.479 401.19,-324.38 400.766,-331.367"/>
</g>
<!-- Node5 -->
<g id="node10" class="node"><title>Node5</title>
<a xlink:href="namespaceforcebalance_1_1openmmio.html#af623fa5af97de6c6a0bc5f98ce8db432" target="_top" xlink:title="Given a set of OpenMM&#45;compatible positions and a System object, compute the correct virtual site posi...">
<polygon fill="white" stroke="black" points="193,-247 193,-277 355,-277 355,-247 193,-247"/>
<text text-anchor="start" x="201" y="-265" font-family="Ubuntu-R" font-size="10.00">forcebalance.openmmio.Reset</text>
<text text-anchor="middle" x="274" y="-254" font-family="Ubuntu-R" font-size="10.00">VirtualSites</text>
</a>
</g>
<!-- Node1&#45;&gt;Node5 -->
<g id="edge10" class="edge"><title>Node1&#45;&gt;Node5</title>
<path fill="none" stroke="midnightblue" d="M151.658,-228.569C170.457,-233.748 190.473,-239.263 208.714,-244.288"/>
<polygon fill="midnightblue" stroke="midnightblue" points="207.789,-247.664 218.359,-246.946 209.648,-240.915 207.789,-247.664"/>
</g>
<!-- Node17 -->
<g id="node34" class="node"><title>Node17</title>
<a xlink:href="classforcebalance_1_1openmmio_1_1AbInitio__OpenMM.html#a0673b350bb0638307875d1a4d153bf34" target="_top" xlink:title="forcebalance.openmmio.Ab\lInitio_OpenMM.energy_force\l_driver_all">
<polygon fill="white" stroke="black" points="198,-187.5 198,-228.5 350,-228.5 350,-187.5 198,-187.5"/>
<text text-anchor="start" x="206" y="-216.5" font-family="Ubuntu-R" font-size="10.00">forcebalance.openmmio.Ab</text>
<text text-anchor="start" x="206" y="-205.5" font-family="Ubuntu-R" font-size="10.00">Initio_OpenMM.energy_force</text>
<text text-anchor="middle" x="274" y="-194.5" font-family="Ubuntu-R" font-size="10.00">_driver_all</text>
</a>
</g>
<!-- Node1&#45;&gt;Node17 -->
<g id="edge34" class="edge"><title>Node1&#45;&gt;Node17</title>
<path fill="none" stroke="midnightblue" d="M152.218,-208C163.824,-208 175.882,-208 187.689,-208"/>
<polygon fill="midnightblue" stroke="midnightblue" points="187.983,-211.5 197.983,-208 187.983,-204.5 187.983,-211.5"/>
</g>
<!-- Node19 -->
<g id="node39" class="node"><title>Node19</title>
<a xlink:href="namespaceforcebalance_1_1nifty.html#abb8f59044961a12588e0653c2baa8b01" target="_top" xlink:title="forcebalance.nifty.warn\l_press_key">
<polygon fill="white" stroke="black" points="211.5,-139 211.5,-169 336.5,-169 336.5,-139 211.5,-139"/>
<text text-anchor="start" x="219.5" y="-157" font-family="Ubuntu-R" font-size="10.00">forcebalance.nifty.warn</text>
<text text-anchor="middle" x="274" y="-146" font-family="Ubuntu-R" font-size="10.00">_press_key</text>
</a>
</g>
<!-- Node1&#45;&gt;Node19 -->
<g id="edge40" class="edge"><title>Node1&#45;&gt;Node19</title>
<path fill="none" stroke="midnightblue" d="M151.658,-187.431C170.457,-182.252 190.473,-176.737 208.714,-171.712"/>
<polygon fill="midnightblue" stroke="midnightblue" points="209.648,-175.085 218.359,-169.054 207.789,-168.336 209.648,-175.085"/>
</g>
<!-- Node21 -->
<g id="node43" class="node"><title>Node21</title>
<a xlink:href="classforcebalance_1_1amberio_1_1AbInitio__AMBER.html#ad0fcc43d857471ee074361076c040ea5" target="_top" xlink:title="forcebalance.amberio.AbInitio\l_AMBER.energy_force_driver\l_all_external_">
<polygon fill="white" stroke="black" points="194.5,-60.5 194.5,-101.5 353.5,-101.5 353.5,-60.5 194.5,-60.5"/>
<text text-anchor="start" x="202.5" y="-89.5" font-family="Ubuntu-R" font-size="10.00">forcebalance.amberio.AbInitio</text>
<text text-anchor="start" x="202.5" y="-78.5" font-family="Ubuntu-R" font-size="10.00">_AMBER.energy_force_driver</text>
<text text-anchor="middle" x="274" y="-67.5" font-family="Ubuntu-R" font-size="10.00">_all_external_</text>
</a>
</g>
<!-- Node1&#45;&gt;Node21 -->
<g id="edge44" class="edge"><title>Node1&#45;&gt;Node21</title>
<path fill="none" stroke="midnightblue" d="M104.811,-187.414C126.981,-171.261 159.007,-148.491 188,-130 200.365,-122.114 214.028,-113.989 226.717,-106.679"/>
<polygon fill="midnightblue" stroke="midnightblue" points="228.806,-109.516 235.751,-101.515 225.333,-103.439 228.806,-109.516"/>
</g>
<!-- Node24 -->
<g id="node50" class="node"><title>Node24</title>
<a xlink:href="classforcebalance_1_1openmmio_1_1AbInitio__OpenMM.html#a665d40a34e6c4f8eb8af0faeff9aa3cb" target="_top" xlink:title="forcebalance.openmmio.Ab\lInitio_OpenMM.energy_force\l_driver_all_external_">
<polygon fill="white" stroke="black" points="198,-0.5 198,-41.5 350,-41.5 350,-0.5 198,-0.5"/>
<text text-anchor="start" x="206" y="-29.5" font-family="Ubuntu-R" font-size="10.00">forcebalance.openmmio.Ab</text>
<text text-anchor="start" x="206" y="-18.5" font-family="Ubuntu-R" font-size="10.00">Initio_OpenMM.energy_force</text>
<text text-anchor="middle" x="274" y="-7.5" font-family="Ubuntu-R" font-size="10.00">_driver_all_external_</text>
</a>
</g>
<!-- Node1&#45;&gt;Node24 -->
<g id="edge52" class="edge"><title>Node1&#45;&gt;Node24</title>
<path fill="none" stroke="midnightblue" d="M86.3798,-187.334C102.513,-154.002 138.605,-88.3431 188,-51 189.876,-49.5814 191.825,-48.226 193.832,-46.9313"/>
<polygon fill="midnightblue" stroke="midnightblue" points="196.063,-49.683 202.954,-41.6348 192.549,-43.6294 196.063,-49.683"/>
</g>
<!-- Node2&#45;&gt;Node3 -->
<g id="edge4" class="edge"><title>Node2&#45;&gt;Node3</title>
<path fill="none" stroke="midnightblue" d="M359.606,-341.98C373.128,-340.699 387.127,-339.372 400.665,-338.089"/>
<polygon fill="midnightblue" stroke="midnightblue" points="401.288,-341.545 410.913,-337.117 400.627,-334.577 401.288,-341.545"/>
</g>
<!-- Node4 -->
<g id="node7" class="node"><title>Node4</title>
<a xlink:href="namespaceforcebalance_1_1openmmio.html#aa085594c11e9cd00ce71f5a8ead72b68" target="_top" xlink:title="Create a multiple timestep velocity verlet with velocity randomization (VVVR) integrator. ">
<polygon fill="white" stroke="black" points="614,-320.5 614,-339.5 844,-339.5 844,-320.5 614,-320.5"/>
<text text-anchor="middle" x="729" y="-327.5" font-family="Ubuntu-R" font-size="10.00">forcebalance.openmmio.MTSVVVRIntegrator</text>
</a>
</g>
<!-- Node3&#45;&gt;Node4 -->
<g id="edge6" class="edge"><title>Node3&#45;&gt;Node4</title>
<path fill="none" stroke="midnightblue" d="M563.279,-330C576.222,-330 589.974,-330 603.801,-330"/>
<polygon fill="midnightblue" stroke="midnightblue" points="603.872,-333.5 613.871,-330 603.871,-326.5 603.872,-333.5"/>
</g>
<!-- Node6 -->
<g id="node12" class="node"><title>Node6</title>
<a xlink:href="namespaceforcebalance_1_1openmmio.html#a792a195b31612f2140b35927fe28fa1a" target="_top" xlink:title="forcebalance.openmmio.Copy\lAmoebaBondParameters">
<polygon fill="white" stroke="black" points="407,-247 407,-277 567,-277 567,-247 407,-247"/>
<text text-anchor="start" x="415" y="-265" font-family="Ubuntu-R" font-size="10.00">forcebalance.openmmio.Copy</text>
<text text-anchor="middle" x="487" y="-254" font-family="Ubuntu-R" font-size="10.00">AmoebaBondParameters</text>
</a>
</g>
<!-- Node5&#45;&gt;Node6 -->
<g id="edge12" class="edge"><title>Node5&#45;&gt;Node6</title>
<path fill="none" stroke="midnightblue" d="M355.071,-262C368.542,-262 382.601,-262 396.296,-262"/>
<polygon fill="midnightblue" stroke="midnightblue" points="396.683,-265.5 406.683,-262 396.683,-258.5 396.683,-265.5"/>
</g>
<!-- Node7 -->
<g id="node14" class="node"><title>Node7</title>
<a xlink:href="namespaceforcebalance_1_1openmmio.html#a2e95f600757655d41660c25af8fd8e80" target="_top" xlink:title="forcebalance.openmmio.Copy\lAmoebaOutOfPlaneBendParameters">
<polygon fill="white" stroke="black" points="633.5,-247 633.5,-277 824.5,-277 824.5,-247 633.5,-247"/>
<text text-anchor="start" x="641.5" y="-265" font-family="Ubuntu-R" font-size="10.00">forcebalance.openmmio.Copy</text>
<text text-anchor="middle" x="729" y="-254" font-family="Ubuntu-R" font-size="10.00">AmoebaOutOfPlaneBendParameters</text>
</a>
</g>
<!-- Node6&#45;&gt;Node7 -->
<g id="edge14" class="edge"><title>Node6&#45;&gt;Node7</title>
<path fill="none" stroke="midnightblue" d="M567.25,-262C585.189,-262 604.507,-262 623.315,-262"/>
<polygon fill="midnightblue" stroke="midnightblue" points="623.395,-265.5 633.395,-262 623.395,-258.5 623.395,-265.5"/>
</g>
<!-- Node8 -->
<g id="node16" class="node"><title>Node8</title>
<a xlink:href="namespaceforcebalance_1_1openmmio.html#abe9a6b9b200dc8487e56dad7249af3ec" target="_top" xlink:title="forcebalance.openmmio.Copy\lAmoebaAngleParameters">
<polygon fill="white" stroke="black" points="880,-247 880,-277 1040,-277 1040,-247 880,-247"/>
<text text-anchor="start" x="888" y="-265" font-family="Ubuntu-R" font-size="10.00">forcebalance.openmmio.Copy</text>
<text text-anchor="middle" x="960" y="-254" font-family="Ubuntu-R" font-size="10.00">AmoebaAngleParameters</text>
</a>
</g>
<!-- Node7&#45;&gt;Node8 -->
<g id="edge16" class="edge"><title>Node7&#45;&gt;Node8</title>
<path fill="none" stroke="midnightblue" d="M824.796,-262C839.692,-262 855.047,-262 869.811,-262"/>
<polygon fill="midnightblue" stroke="midnightblue" points="869.925,-265.5 879.925,-262 869.925,-258.5 869.925,-265.5"/>
</g>
<!-- Node9 -->
<g id="node18" class="node"><title>Node9</title>
<a xlink:href="namespaceforcebalance_1_1openmmio.html#ad0d4739f80f2aab1a861f2e03b8efcd6" target="_top" xlink:title="forcebalance.openmmio.Copy\lAmoebaInPlaneAngleParameters">
<polygon fill="white" stroke="black" points="1076,-247 1076,-277 1250,-277 1250,-247 1076,-247"/>
<text text-anchor="start" x="1084" y="-265" font-family="Ubuntu-R" font-size="10.00">forcebalance.openmmio.Copy</text>
<text text-anchor="middle" x="1163" y="-254" font-family="Ubuntu-R" font-size="10.00">AmoebaInPlaneAngleParameters</text>
</a>
</g>
<!-- Node8&#45;&gt;Node9 -->
<g id="edge18" class="edge"><title>Node8&#45;&gt;Node9</title>
<path fill="none" stroke="midnightblue" d="M1040.15,-262C1048.6,-262 1057.26,-262 1065.88,-262"/>
<polygon fill="midnightblue" stroke="midnightblue" points="1065.96,-265.5 1075.96,-262 1065.96,-258.5 1065.96,-265.5"/>
</g>
<!-- Node10 -->
<g id="node20" class="node"><title>Node10</title>
<a xlink:href="namespaceforcebalance_1_1openmmio.html#abe005f73c6dfe9ce1052c9434bcad9be" target="_top" xlink:title="forcebalance.openmmio.Copy\lAmoebaVdwParameters">
<polygon fill="white" stroke="black" points="1286,-247 1286,-277 1446,-277 1446,-247 1286,-247"/>
<text text-anchor="start" x="1294" y="-265" font-family="Ubuntu-R" font-size="10.00">forcebalance.openmmio.Copy</text>
<text text-anchor="middle" x="1366" y="-254" font-family="Ubuntu-R" font-size="10.00">AmoebaVdwParameters</text>
</a>
</g>
<!-- Node9&#45;&gt;Node10 -->
<g id="edge20" class="edge"><title>Node9&#45;&gt;Node10</title>
<path fill="none" stroke="midnightblue" d="M1250.12,-262C1258.53,-262 1267.07,-262 1275.51,-262"/>
<polygon fill="midnightblue" stroke="midnightblue" points="1275.74,-265.5 1285.74,-262 1275.74,-258.5 1275.74,-265.5"/>
</g>
<!-- Node11 -->
<g id="node22" class="node"><title>Node11</title>
<a xlink:href="namespaceforcebalance_1_1openmmio.html#a3706c19e71969cabe5782a4535abeffe" target="_top" xlink:title="forcebalance.openmmio.Copy\lAmoebaMultipoleParameters">
<polygon fill="white" stroke="black" points="1482,-247 1482,-277 1642,-277 1642,-247 1482,-247"/>
<text text-anchor="start" x="1490" y="-265" font-family="Ubuntu-R" font-size="10.00">forcebalance.openmmio.Copy</text>
<text text-anchor="middle" x="1562" y="-254" font-family="Ubuntu-R" font-size="10.00">AmoebaMultipoleParameters</text>
</a>
</g>
<!-- Node10&#45;&gt;Node11 -->
<g id="edge22" class="edge"><title>Node10&#45;&gt;Node11</title>
<path fill="none" stroke="midnightblue" d="M1446.19,-262C1454.53,-262 1463.05,-262 1471.5,-262"/>
<polygon fill="midnightblue" stroke="midnightblue" points="1471.75,-265.5 1481.75,-262 1471.75,-258.5 1471.75,-265.5"/>
</g>
<!-- Node12 -->
<g id="node24" class="node"><title>Node12</title>
<a xlink:href="namespaceforcebalance_1_1openmmio.html#a616f12cc53381716e5fa41f00bf623be" target="_top" xlink:title="forcebalance.openmmio.Copy\lHarmonicBondParameters">
<polygon fill="white" stroke="black" points="1678,-247 1678,-277 1838,-277 1838,-247 1678,-247"/>
<text text-anchor="start" x="1686" y="-265" font-family="Ubuntu-R" font-size="10.00">forcebalance.openmmio.Copy</text>
<text text-anchor="middle" x="1758" y="-254" font-family="Ubuntu-R" font-size="10.00">HarmonicBondParameters</text>
</a>
</g>
<!-- Node11&#45;&gt;Node12 -->
<g id="edge24" class="edge"><title>Node11&#45;&gt;Node12</title>
<path fill="none" stroke="midnightblue" d="M1642.19,-262C1650.53,-262 1659.05,-262 1667.5,-262"/>
<polygon fill="midnightblue" stroke="midnightblue" points="1667.75,-265.5 1677.75,-262 1667.75,-258.5 1667.75,-265.5"/>
</g>
<!-- Node13 -->
<g id="node26" class="node"><title>Node13</title>
<a xlink:href="namespaceforcebalance_1_1openmmio.html#af4ed16f5e2b1cd12bce2f25fab1b05bc" target="_top" xlink:title="forcebalance.openmmio.Copy\lHarmonicAngleParameters">
<polygon fill="white" stroke="black" points="1874,-247 1874,-277 2034,-277 2034,-247 1874,-247"/>
<text text-anchor="start" x="1882" y="-265" font-family="Ubuntu-R" font-size="10.00">forcebalance.openmmio.Copy</text>
<text text-anchor="middle" x="1954" y="-254" font-family="Ubuntu-R" font-size="10.00">HarmonicAngleParameters</text>
</a>
</g>
<!-- Node12&#45;&gt;Node13 -->
<g id="edge26" class="edge"><title>Node12&#45;&gt;Node13</title>
<path fill="none" stroke="midnightblue" d="M1838.19,-262C1846.53,-262 1855.05,-262 1863.5,-262"/>
<polygon fill="midnightblue" stroke="midnightblue" points="1863.75,-265.5 1873.75,-262 1863.75,-258.5 1863.75,-265.5"/>
</g>
<!-- Node14 -->
<g id="node28" class="node"><title>Node14</title>
<a xlink:href="namespaceforcebalance_1_1openmmio.html#a8f13702754f0b4e43e272139a2ce8341" target="_top" xlink:title="forcebalance.openmmio.Copy\lPeriodicTorsionParameters">
<polygon fill="white" stroke="black" points="2070,-247 2070,-277 2230,-277 2230,-247 2070,-247"/>
<text text-anchor="start" x="2078" y="-265" font-family="Ubuntu-R" font-size="10.00">forcebalance.openmmio.Copy</text>
<text text-anchor="middle" x="2150" y="-254" font-family="Ubuntu-R" font-size="10.00">PeriodicTorsionParameters</text>
</a>
</g>
<!-- Node13&#45;&gt;Node14 -->
<g id="edge28" class="edge"><title>Node13&#45;&gt;Node14</title>
<path fill="none" stroke="midnightblue" d="M2034.19,-262C2042.53,-262 2051.05,-262 2059.5,-262"/>
<polygon fill="midnightblue" stroke="midnightblue" points="2059.75,-265.5 2069.75,-262 2059.75,-258.5 2059.75,-265.5"/>
</g>
<!-- Node15 -->
<g id="node30" class="node"><title>Node15</title>
<a xlink:href="namespaceforcebalance_1_1openmmio.html#afead47464a644d9225f9fa8eb568a8ed" target="_top" xlink:title="forcebalance.openmmio.Copy\lNonbondedParameters">
<polygon fill="white" stroke="black" points="2266,-247 2266,-277 2426,-277 2426,-247 2266,-247"/>
<text text-anchor="start" x="2274" y="-265" font-family="Ubuntu-R" font-size="10.00">forcebalance.openmmio.Copy</text>
<text text-anchor="middle" x="2346" y="-254" font-family="Ubuntu-R" font-size="10.00">NonbondedParameters</text>
</a>
</g>
<!-- Node14&#45;&gt;Node15 -->
<g id="edge30" class="edge"><title>Node14&#45;&gt;Node15</title>
<path fill="none" stroke="midnightblue" d="M2230.19,-262C2238.53,-262 2247.05,-262 2255.5,-262"/>
<polygon fill="midnightblue" stroke="midnightblue" points="2255.75,-265.5 2265.75,-262 2255.75,-258.5 2255.75,-265.5"/>
</g>
<!-- Node16 -->
<g id="node32" class="node"><title>Node16</title>
<a xlink:href="namespaceforcebalance_1_1openmmio.html#a2bb7add6b813d94f2655372c51fe8fdc" target="_top" xlink:title="forcebalance.openmmio.do\l_nothing">
<polygon fill="white" stroke="black" points="2462,-247 2462,-277 2610,-277 2610,-247 2462,-247"/>
<text text-anchor="start" x="2470" y="-265" font-family="Ubuntu-R" font-size="10.00">forcebalance.openmmio.do</text>
<text text-anchor="middle" x="2536" y="-254" font-family="Ubuntu-R" font-size="10.00">_nothing</text>
</a>
</g>
<!-- Node15&#45;&gt;Node16 -->
<g id="edge32" class="edge"><title>Node15&#45;&gt;Node16</title>
<path fill="none" stroke="midnightblue" d="M2426.18,-262C2434.6,-262 2443.18,-262 2451.65,-262"/>
<polygon fill="midnightblue" stroke="midnightblue" points="2451.9,-265.5 2461.9,-262 2451.9,-258.5 2451.9,-265.5"/>
</g>
<!-- Node18 -->
<g id="node36" class="node"><title>Node18</title>
<a xlink:href="classforcebalance_1_1openmmio_1_1AbInitio__OpenMM.html#af5fcee0c4321c7d3024868742a266f7a" target="_top" xlink:title="forcebalance.openmmio.Ab\lInitio_OpenMM.__init__">
<polygon fill="white" stroke="black" points="412.5,-193 412.5,-223 561.5,-223 561.5,-193 412.5,-193"/>
<text text-anchor="start" x="420.5" y="-211" font-family="Ubuntu-R" font-size="10.00">forcebalance.openmmio.Ab</text>
<text text-anchor="middle" x="487" y="-200" font-family="Ubuntu-R" font-size="10.00">Initio_OpenMM.__init__</text>
</a>
</g>
<!-- Node17&#45;&gt;Node18 -->
<g id="edge36" class="edge"><title>Node17&#45;&gt;Node18</title>
<path fill="none" stroke="midnightblue" d="M350.282,-208C366.944,-208 384.704,-208 401.698,-208"/>
<polygon fill="midnightblue" stroke="midnightblue" points="402.164,-211.5 412.164,-208 402.164,-204.5 402.164,-211.5"/>
</g>
<!-- Node20 -->
<g id="node41" class="node"><title>Node20</title>
<a xlink:href="namespaceforcebalance_1_1nifty.html#a2fc81730e7efa7d138dd86f733507bfc" target="_top" xlink:title="Similar to the bultin function map(). ">
<polygon fill="white" stroke="black" points="396,-144.5 396,-163.5 578,-163.5 578,-144.5 396,-144.5"/>
<text text-anchor="middle" x="487" y="-151.5" font-family="Ubuntu-R" font-size="10.00">forcebalance.nifty.concurrent_map</text>
</a>
</g>
<!-- Node19&#45;&gt;Node20 -->
<g id="edge42" class="edge"><title>Node19&#45;&gt;Node20</title>
<path fill="none" stroke="midnightblue" d="M336.597,-154C351.909,-154 368.722,-154 385.372,-154"/>
<polygon fill="midnightblue" stroke="midnightblue" points="385.704,-157.5 395.704,-154 385.704,-150.5 385.704,-157.5"/>
</g>
<!-- Node21&#45;&gt;Node21 -->
<g id="edge50" class="edge"><title>Node21&#45;&gt;Node21</title>
<path fill="none" stroke="midnightblue" d="M237.455,-101.716C233.975,-110.984 246.156,-119 274,-119 290.967,-119 302.119,-116.023 307.454,-111.601"/>
<polygon fill="midnightblue" stroke="midnightblue" points="310.901,-112.305 310.545,-101.716 304.22,-110.216 310.901,-112.305"/>
</g>
<!-- Node22 -->
<g id="node45" class="node"><title>Node22</title>
<a xlink:href="namespaceforcebalance_1_1molecule.html#afe989ffd119568047fc8265b1d329a70" target="_top" xlink:title="Matches ANY number; it can be a decimal, scientific notation, integer, or what have you...">
<polygon fill="white" stroke="black" points="409,-88.5 409,-107.5 565,-107.5 565,-88.5 409,-88.5"/>
<text text-anchor="middle" x="487" y="-95.5" font-family="Ubuntu-R" font-size="10.00">forcebalance.molecule.isfloat</text>
</a>
</g>
<!-- Node21&#45;&gt;Node22 -->
<g id="edge46" class="edge"><title>Node21&#45;&gt;Node22</title>
<path fill="none" stroke="midnightblue" d="M353.569,-87.3302C368.229,-88.5114 383.634,-89.7525 398.543,-90.9537"/>
<polygon fill="midnightblue" stroke="midnightblue" points="398.521,-94.4632 408.77,-91.7777 399.083,-87.4858 398.521,-94.4632"/>
</g>
<!-- Node23 -->
<g id="node47" class="node"><title>Node23</title>
<a xlink:href="classforcebalance_1_1amberio_1_1AbInitio__AMBER.html#a64ccf943e550392c654ec7bb6c6ff81b" target="_top" xlink:title="forcebalance.amberio.AbInitio\l_AMBER.energy_force_driver_all">
<polygon fill="white" stroke="black" points="402.5,-39 402.5,-69 571.5,-69 571.5,-39 402.5,-39"/>
<text text-anchor="start" x="410.5" y="-57" font-family="Ubuntu-R" font-size="10.00">forcebalance.amberio.AbInitio</text>
<text text-anchor="middle" x="487" y="-46" font-family="Ubuntu-R" font-size="10.00">_AMBER.energy_force_driver_all</text>
</a>
</g>
<!-- Node21&#45;&gt;Node23 -->
<g id="edge48" class="edge"><title>Node21&#45;&gt;Node23</title>
<path fill="none" stroke="midnightblue" d="M353.569,-70.9462C366.142,-69.3372 379.263,-67.6583 392.149,-66.0094"/>
<polygon fill="midnightblue" stroke="midnightblue" points="392.943,-69.4364 402.418,-64.6953 392.054,-62.493 392.943,-69.4364"/>
</g>
</g>
</svg>
