<?xml version="1.0" encoding="UTF-8" standalone="no"?>
<!DOCTYPE svg PUBLIC "-//W3C//DTD SVG 1.1//EN"
 "http://www.w3.org/Graphics/SVG/1.1/DTD/svg11.dtd">
<!-- Generated by graphviz version 2.26.3 (20100126.1600)
 -->
<!-- Title: forcebalance.BaseClass Pages: 1 -->
<svg width="876pt" height="1038pt"
 viewBox="0.00 0.00 876.00 1038.00" xmlns="http://www.w3.org/2000/svg" xmlns:xlink="http://www.w3.org/1999/xlink">
<g id="graph1" class="graph" transform="scale(1 1) rotate(0) translate(4 1034)">
<title>forcebalance.BaseClass</title>
<polygon fill="white" stroke="white" points="-4,5 -4,-1034 873,-1034 873,5 -4,5"/>
<!-- Node1 -->
<g id="node1" class="node"><title>Node1</title>
<polygon fill="#bfbfbf" stroke="black" points="82.5,-679.5 82.5,-700.5 213.5,-700.5 213.5,-679.5 82.5,-679.5"/>
<text text-anchor="middle" x="148" y="-687.5" font-family="Ubuntu-R" font-size="10.00">forcebalance.BaseClass</text>
</g>
<!-- Node3 -->
<g id="node5" class="node"><title>Node3</title>
<a xlink:href="classforcebalance_1_1engine_1_1Engine.html" target="_top" xlink:title="Base class for all engines. ">
<polygon fill="white" stroke="black" points="263.5,-924.5 263.5,-945.5 412.5,-945.5 412.5,-924.5 263.5,-924.5"/>
<text text-anchor="middle" x="338" y="-932.5" font-family="Ubuntu-R" font-size="10.00">forcebalance.engine.Engine</text>
</a>
</g>
<!-- Node1&#45;&gt;Node3 -->
<g id="edge4" class="edge"><title>Node1&#45;&gt;Node3</title>
<path fill="none" stroke="midnightblue" d="M162.423,-708.598C200.004,-757.058 300.071,-886.091 329.652,-924.236"/>
<polygon fill="midnightblue" stroke="midnightblue" points="165.058,-706.285 156.164,-700.527 159.527,-710.574 165.058,-706.285"/>
</g>
<!-- Node7 -->
<g id="node13" class="node"><title>Node7</title>
<a xlink:href="classforcebalance_1_1forcefield_1_1FF.html" target="_top" xlink:title="Force field class. ">
<polygon fill="white" stroke="black" points="269,-719.5 269,-740.5 407,-740.5 407,-719.5 269,-719.5"/>
<text text-anchor="middle" x="338" y="-727.5" font-family="Ubuntu-R" font-size="10.00">forcebalance.forcefield.FF</text>
</a>
</g>
<!-- Node1&#45;&gt;Node7 -->
<g id="edge12" class="edge"><title>Node1&#45;&gt;Node7</title>
<path fill="none" stroke="midnightblue" d="M207.955,-702.622C233.738,-708.05 263.527,-714.321 288.084,-719.491"/>
<polygon fill="midnightblue" stroke="midnightblue" points="208.427,-699.145 197.92,-700.51 206.985,-705.995 208.427,-699.145"/>
</g>
<!-- Node8 -->
<g id="node15" class="node"><title>Node8</title>
<a xlink:href="classforcebalance_1_1objective_1_1Objective.html" target="_top" xlink:title="Objective function. ">
<polygon fill="white" stroke="black" points="252.5,-679.5 252.5,-700.5 423.5,-700.5 423.5,-679.5 252.5,-679.5"/>
<text text-anchor="middle" x="338" y="-687.5" font-family="Ubuntu-R" font-size="10.00">forcebalance.objective.Objective</text>
</a>
</g>
<!-- Node1&#45;&gt;Node8 -->
<g id="edge14" class="edge"><title>Node1&#45;&gt;Node8</title>
<path fill="none" stroke="midnightblue" d="M223.708,-690C233.085,-690 242.724,-690 252.239,-690"/>
<polygon fill="midnightblue" stroke="midnightblue" points="223.653,-686.5 213.653,-690 223.653,-693.5 223.653,-686.5"/>
</g>
<!-- Node9 -->
<g id="node17" class="node"><title>Node9</title>
<a xlink:href="classforcebalance_1_1optimizer_1_1Optimizer.html" target="_top" xlink:title="Optimizer class. ">
<polygon fill="white" stroke="black" points="250.5,-639.5 250.5,-660.5 425.5,-660.5 425.5,-639.5 250.5,-639.5"/>
<text text-anchor="middle" x="338" y="-647.5" font-family="Ubuntu-R" font-size="10.00">forcebalance.optimizer.Optimizer</text>
</a>
</g>
<!-- Node1&#45;&gt;Node9 -->
<g id="edge16" class="edge"><title>Node1&#45;&gt;Node9</title>
<path fill="none" stroke="midnightblue" d="M207.955,-677.378C233.738,-671.95 263.527,-665.679 288.084,-660.509"/>
<polygon fill="midnightblue" stroke="midnightblue" points="206.985,-674.005 197.92,-679.49 208.427,-680.855 206.985,-674.005"/>
</g>
<!-- Node10 -->
<g id="node19" class="node"><title>Node10</title>
<a xlink:href="classforcebalance_1_1target_1_1Target.html" target="_top" xlink:title="Base class for all fitting targets. ">
<polygon fill="white" stroke="black" points="266.5,-411.5 266.5,-432.5 409.5,-432.5 409.5,-411.5 266.5,-411.5"/>
<text text-anchor="middle" x="338" y="-419.5" font-family="Ubuntu-R" font-size="10.00">forcebalance.target.Target</text>
</a>
</g>
<!-- Node1&#45;&gt;Node10 -->
<g id="edge18" class="edge"><title>Node1&#45;&gt;Node10</title>
<path fill="none" stroke="midnightblue" d="M161.376,-671.132C198.422,-618.879 301.522,-473.454 330.397,-432.725"/>
<polygon fill="midnightblue" stroke="midnightblue" points="158.377,-669.312 155.448,-679.494 164.087,-673.36 158.377,-669.312"/>
</g>
<!-- Node2 -->
<g id="node2" class="node"><title>Node2</title>
<polygon fill="white" stroke="#bfbfbf" points="0,-679.5 0,-700.5 46,-700.5 46,-679.5 0,-679.5"/>
<text text-anchor="middle" x="23" y="-687.5" font-family="Ubuntu-R" font-size="10.00">object</text>
</g>
<!-- Node2&#45;&gt;Node1 -->
<g id="edge2" class="edge"><title>Node2&#45;&gt;Node1</title>
<path fill="none" stroke="midnightblue" d="M56.3186,-690C64.4195,-690 73.3638,-690 82.3948,-690"/>
<polygon fill="midnightblue" stroke="midnightblue" points="56.2186,-686.5 46.2186,-690 56.2186,-693.5 56.2186,-686.5"/>
</g>
<!-- Node4 -->
<g id="node7" class="node"><title>Node4</title>
<a xlink:href="classforcebalance_1_1gmxio_1_1GMX.html" target="_top" xlink:title="Derived from Engine object for carrying out general purpose GROMACS calculations. ...">
<polygon fill="white" stroke="black" points="483.5,-984.5 483.5,-1005.5 618.5,-1005.5 618.5,-984.5 483.5,-984.5"/>
<text text-anchor="middle" x="551" y="-992.5" font-family="Ubuntu-R" font-size="10.00">forcebalance.gmxio.GMX</text>
</a>
</g>
<!-- Node3&#45;&gt;Node4 -->
<g id="edge6" class="edge"><title>Node3&#45;&gt;Node4</title>
<path fill="none" stroke="midnightblue" d="M377.643,-948.805C401.848,-956.979 433.519,-967.224 462,-975 474.375,-978.379 487.829,-981.622 500.44,-984.476"/>
<polygon fill="midnightblue" stroke="midnightblue" points="378.685,-945.463 368.091,-945.556 376.431,-952.09 378.685,-945.463"/>
</g>
<!-- Node5 -->
<g id="node9" class="node"><title>Node5</title>
<a xlink:href="classforcebalance_1_1openmmio_1_1OpenMM.html" target="_top" xlink:title="Derived from Engine object for carrying out general purpose OpenMM calculations. ">
<polygon fill="white" stroke="black" points="462,-944.5 462,-965.5 640,-965.5 640,-944.5 462,-944.5"/>
<text text-anchor="middle" x="551" y="-952.5" font-family="Ubuntu-R" font-size="10.00">forcebalance.openmmio.OpenMM</text>
</a>
</g>
<!-- Node3&#45;&gt;Node5 -->
<g id="edge8" class="edge"><title>Node3&#45;&gt;Node5</title>
<path fill="none" stroke="midnightblue" d="M422.932,-942.975C435.703,-944.174 448.907,-945.414 461.766,-946.621"/>
<polygon fill="midnightblue" stroke="midnightblue" points="423.08,-939.473 412.796,-942.023 422.425,-946.443 423.08,-939.473"/>
</g>
<!-- Node6 -->
<g id="node11" class="node"><title>Node6</title>
<a xlink:href="classforcebalance_1_1tinkerio_1_1TINKER.html" target="_top" xlink:title="Engine for carrying out general purpose TINKER calculations. ">
<polygon fill="white" stroke="black" points="475,-904.5 475,-925.5 627,-925.5 627,-904.5 475,-904.5"/>
<text text-anchor="middle" x="551" y="-912.5" font-family="Ubuntu-R" font-size="10.00">forcebalance.tinkerio.TINKER</text>
</a>
</g>
<!-- Node3&#45;&gt;Node6 -->
<g id="edge10" class="edge"><title>Node3&#45;&gt;Node6</title>
<path fill="none" stroke="midnightblue" d="M422.828,-927.035C440.046,-925.418 458.052,-923.728 474.943,-922.141"/>
<polygon fill="midnightblue" stroke="midnightblue" points="422.425,-923.557 412.796,-927.977 423.08,-930.527 422.425,-923.557"/>
</g>
<!-- Node11 -->
<g id="node21" class="node"><title>Node11</title>
<a xlink:href="classforcebalance_1_1abinitio_1_1AbInitio.html" target="_top" xlink:title="Subclass of Target for fitting force fields to ab initio data. ">
<polygon fill="white" stroke="black" points="485.5,-852 485.5,-886 616.5,-886 616.5,-852 485.5,-852"/>
<text text-anchor="start" x="493.5" y="-873" font-family="Ubuntu-R" font-size="10.00">forcebalance.abinitio.Ab</text>
<text text-anchor="middle" x="551" y="-860" font-family="Ubuntu-R" font-size="10.00">Initio</text>
</a>
</g>
<!-- Node10&#45;&gt;Node11 -->
<g id="edge20" class="edge"><title>Node10&#45;&gt;Node11</title>
<path fill="none" stroke="midnightblue" d="M346.538,-442.215C373.508,-506.045 455.482,-699.865 462,-713 487.642,-764.672 522.702,-823.13 540.177,-851.581"/>
<polygon fill="midnightblue" stroke="midnightblue" points="349.684,-440.667 342.568,-432.817 343.235,-443.391 349.684,-440.667"/>
</g>
<!-- Node17 -->
<g id="node33" class="node"><title>Node17</title>
<a xlink:href="classforcebalance_1_1binding_1_1BindingEnergy.html" target="_top" xlink:title="Improved subclass of Target for fitting force fields to binding energies. ">
<polygon fill="white" stroke="black" points="474,-670 474,-704 628,-704 628,-670 474,-670"/>
<text text-anchor="start" x="482" y="-691" font-family="Ubuntu-R" font-size="10.00">forcebalance.binding.Binding</text>
<text text-anchor="middle" x="551" y="-678" font-family="Ubuntu-R" font-size="10.00">Energy</text>
</a>
</g>
<!-- Node10&#45;&gt;Node17 -->
<g id="edge32" class="edge"><title>Node10&#45;&gt;Node17</title>
<path fill="none" stroke="midnightblue" d="M350.193,-441.547C371.335,-474.896 416.875,-544.381 462,-598 484.372,-624.583 513.286,-652.477 531.986,-669.799"/>
<polygon fill="midnightblue" stroke="midnightblue" points="352.96,-439.373 344.669,-432.777 347.037,-443.104 352.96,-439.373"/>
</g>
<!-- Node21 -->
<g id="node41" class="node"><title>Node21</title>
<a xlink:href="classforcebalance_1_1counterpoise_1_1Counterpoise.html" target="_top" xlink:title="Target subclass for matching the counterpoise correction. ">
<polygon fill="white" stroke="black" points="478,-555 478,-589 624,-589 624,-555 478,-555"/>
<text text-anchor="start" x="486" y="-576" font-family="Ubuntu-R" font-size="10.00">forcebalance.counterpoise.</text>
<text text-anchor="middle" x="551" y="-563" font-family="Ubuntu-R" font-size="10.00">Counterpoise</text>
</a>
</g>
<!-- Node10&#45;&gt;Node21 -->
<g id="edge40" class="edge"><title>Node10&#45;&gt;Node21</title>
<path fill="none" stroke="midnightblue" d="M351.94,-441.054C372.848,-468.286 414.933,-518.118 462,-546 467.678,-549.364 473.821,-552.317 480.133,-554.905"/>
<polygon fill="midnightblue" stroke="midnightblue" points="354.497,-438.631 345.684,-432.75 348.906,-442.843 354.497,-438.631"/>
</g>
<!-- Node22 -->
<g id="node43" class="node"><title>Node22</title>
<a xlink:href="classforcebalance_1_1interaction_1_1Interaction.html" target="_top" xlink:title="Subclass of Target for fitting force fields to interaction energies. ">
<polygon fill="white" stroke="black" points="483.5,-503 483.5,-537 618.5,-537 618.5,-503 483.5,-503"/>
<text text-anchor="start" x="491.5" y="-524" font-family="Ubuntu-R" font-size="10.00">forcebalance.interaction.</text>
<text text-anchor="middle" x="551" y="-511" font-family="Ubuntu-R" font-size="10.00">Interaction</text>
</a>
</g>
<!-- Node10&#45;&gt;Node22 -->
<g id="edge42" class="edge"><title>Node10&#45;&gt;Node22</title>
<path fill="none" stroke="midnightblue" d="M361.97,-438.275C386.3,-454.219 425.484,-478.339 462,-494 469.545,-497.236 477.616,-500.214 485.704,-502.909"/>
<polygon fill="midnightblue" stroke="midnightblue" points="363.677,-435.208 353.409,-432.6 359.81,-441.042 363.677,-435.208"/>
</g>
<!-- Node26 -->
<g id="node51" class="node"><title>Node26</title>
<a xlink:href="classforcebalance_1_1leastsq_1_1LeastSquares.html" target="_top" xlink:title="Subclass of Target for general least squares fitting. ">
<polygon fill="white" stroke="black" points="478.5,-451 478.5,-485 623.5,-485 623.5,-451 478.5,-451"/>
<text text-anchor="start" x="486.5" y="-472" font-family="Ubuntu-R" font-size="10.00">forcebalance.leastsq.Least</text>
<text text-anchor="middle" x="551" y="-459" font-family="Ubuntu-R" font-size="10.00">Squares</text>
</a>
</g>
<!-- Node10&#45;&gt;Node26 -->
<g id="edge50" class="edge"><title>Node10&#45;&gt;Node26</title>
<path fill="none" stroke="midnightblue" d="M396.975,-434.736C422.088,-440.16 451.638,-446.541 478.103,-452.257"/>
<polygon fill="midnightblue" stroke="midnightblue" points="397.38,-431.243 386.867,-432.553 395.902,-438.085 397.38,-431.243"/>
</g>
<!-- Node28 -->
<g id="node55" class="node"><title>Node28</title>
<a xlink:href="classforcebalance_1_1lipid_1_1Lipid.html" target="_top" xlink:title="Subclass of Target for lipid property matching. ">
<polygon fill="white" stroke="black" points="488.5,-411.5 488.5,-432.5 613.5,-432.5 613.5,-411.5 488.5,-411.5"/>
<text text-anchor="middle" x="551" y="-419.5" font-family="Ubuntu-R" font-size="10.00">forcebalance.lipid.Lipid</text>
</a>
</g>
<!-- Node10&#45;&gt;Node28 -->
<g id="edge54" class="edge"><title>Node10&#45;&gt;Node28</title>
<path fill="none" stroke="midnightblue" d="M419.822,-422C442.525,-422 466.812,-422 488.239,-422"/>
<polygon fill="midnightblue" stroke="midnightblue" points="419.518,-418.5 409.518,-422 419.518,-425.5 419.518,-418.5"/>
</g>
<!-- Node30 -->
<g id="node59" class="node"><title>Node30</title>
<a xlink:href="classforcebalance_1_1liquid_1_1Liquid.html" target="_top" xlink:title="Subclass of Target for liquid property matching. ">
<polygon fill="white" stroke="black" points="482.5,-357.5 482.5,-378.5 619.5,-378.5 619.5,-357.5 482.5,-357.5"/>
<text text-anchor="middle" x="551" y="-365.5" font-family="Ubuntu-R" font-size="10.00">forcebalance.liquid.Liquid</text>
</a>
</g>
<!-- Node10&#45;&gt;Node30 -->
<g id="edge58" class="edge"><title>Node10&#45;&gt;Node30</title>
<path fill="none" stroke="midnightblue" d="M389.613,-408.915C426.417,-399.584 475.255,-387.203 509.531,-378.513"/>
<polygon fill="midnightblue" stroke="midnightblue" points="388.407,-405.61 379.574,-411.46 390.128,-412.395 388.407,-405.61"/>
</g>
<!-- Node34 -->
<g id="node67" class="node"><title>Node34</title>
<a xlink:href="classforcebalance_1_1moments_1_1Moments.html" target="_top" xlink:title="Subclass of Target for fitting force fields to multipole moments (from experiment or theory)...">
<polygon fill="white" stroke="black" points="463,-290.5 463,-311.5 639,-311.5 639,-290.5 463,-290.5"/>
<text text-anchor="middle" x="551" y="-298.5" font-family="Ubuntu-R" font-size="10.00">forcebalance.moments.Moments</text>
</a>
</g>
<!-- Node10&#45;&gt;Node34 -->
<g id="edge66" class="edge"><title>Node10&#45;&gt;Node34</title>
<path fill="none" stroke="midnightblue" d="M363.92,-405.995C388.848,-390.73 427.698,-367.275 462,-348 485.155,-334.989 512.189,-320.859 530.333,-311.526"/>
<polygon fill="midnightblue" stroke="midnightblue" points="361.777,-403.204 355.086,-411.419 365.439,-409.169 361.777,-403.204"/>
</g>
<!-- Node38 -->
<g id="node75" class="node"><title>Node38</title>
<a xlink:href="classforcebalance_1_1psi4io_1_1RDVR3__Psi4.html" target="_top" xlink:title="Subclass of Target for R&#45;DVR3 grid fitting. ">
<polygon fill="white" stroke="black" points="466.5,-250.5 466.5,-271.5 635.5,-271.5 635.5,-250.5 466.5,-250.5"/>
<text text-anchor="middle" x="551" y="-258.5" font-family="Ubuntu-R" font-size="10.00">forcebalance.psi4io.RDVR3_Psi4</text>
</a>
</g>
<!-- Node10&#45;&gt;Node38 -->
<g id="edge74" class="edge"><title>Node10&#45;&gt;Node38</title>
<path fill="none" stroke="midnightblue" d="M349.392,-402.515C368.526,-371.616 410.162,-311.74 462,-281 468.402,-277.203 475.454,-274.127 482.7,-271.634"/>
<polygon fill="midnightblue" stroke="midnightblue" points="346.374,-400.742 344.19,-411.109 352.362,-404.367 346.374,-400.742"/>
</g>
<!-- Node39 -->
<g id="node77" class="node"><title>Node39</title>
<a xlink:href="classforcebalance_1_1target_1_1RemoteTarget.html" target="_top" xlink:title="forcebalance.target.Remote\lTarget">
<polygon fill="white" stroke="black" points="476,-198 476,-232 626,-232 626,-198 476,-198"/>
<text text-anchor="start" x="484" y="-219" font-family="Ubuntu-R" font-size="10.00">forcebalance.target.Remote</text>
<text text-anchor="middle" x="551" y="-206" font-family="Ubuntu-R" font-size="10.00">Target</text>
</a>
</g>
<!-- Node10&#45;&gt;Node39 -->
<g id="edge76" class="edge"><title>Node10&#45;&gt;Node39</title>
<path fill="none" stroke="midnightblue" d="M346.284,-401.739C362.662,-364.233 402.799,-283.91 462,-241 466.692,-237.599 471.825,-234.641 477.181,-232.067"/>
<polygon fill="midnightblue" stroke="midnightblue" points="342.99,-400.543 342.299,-411.115 349.432,-403.281 342.99,-400.543"/>
</g>
<!-- Node40 -->
<g id="node79" class="node"><title>Node40</title>
<a xlink:href="classforcebalance_1_1thermo_1_1Thermo.html" target="_top" xlink:title="A target for fitting general experimental data sets. ">
<polygon fill="white" stroke="black" points="473,-103.5 473,-124.5 629,-124.5 629,-103.5 473,-103.5"/>
<text text-anchor="middle" x="551" y="-111.5" font-family="Ubuntu-R" font-size="10.00">forcebalance.thermo.Thermo</text>
</a>
</g>
<!-- Node10&#45;&gt;Node40 -->
<g id="edge78" class="edge"><title>Node10&#45;&gt;Node40</title>
<path fill="none" stroke="midnightblue" d="M345.609,-401.945C362.29,-359.623 405.17,-259.304 462,-189 483.594,-162.286 515.756,-137.978 534.927,-124.661"/>
<polygon fill="midnightblue" stroke="midnightblue" points="342.294,-400.812 341.94,-411.401 348.82,-403.344 342.294,-400.812"/>
</g>
<!-- Node42 -->
<g id="node83" class="node"><title>Node42</title>
<a xlink:href="classforcebalance_1_1vibration_1_1Vibration.html" target="_top" xlink:title="Subclass of Target for fitting force fields to vibrational spectra (from experiment or theory)...">
<polygon fill="white" stroke="black" points="467,-52.5 467,-73.5 635,-73.5 635,-52.5 467,-52.5"/>
<text text-anchor="middle" x="551" y="-60.5" font-family="Ubuntu-R" font-size="10.00">forcebalance.vibration.Vibration</text>
</a>
</g>
<!-- Node10&#45;&gt;Node42 -->
<g id="edge82" class="edge"><title>Node10&#45;&gt;Node42</title>
<path fill="none" stroke="midnightblue" d="M339.862,-401.181C346.087,-343.911 371.224,-182.422 462,-94 471.611,-84.6384 484.196,-78.0934 496.864,-73.5212"/>
<polygon fill="midnightblue" stroke="midnightblue" points="336.345,-401.176 338.83,-411.475 343.31,-401.874 336.345,-401.176"/>
</g>
<!-- Node12 -->
<g id="node23" class="node"><title>Node12</title>
<a xlink:href="classforcebalance_1_1abinitio__internal_1_1AbInitio__Internal.html" target="_top" xlink:title="Subclass of Target for force and energy matching using an internal implementation. ">
<polygon fill="white" stroke="black" points="703.5,-996 703.5,-1030 840.5,-1030 840.5,-996 703.5,-996"/>
<text text-anchor="start" x="711.5" y="-1017" font-family="Ubuntu-R" font-size="10.00">forcebalance.abinitio</text>
<text text-anchor="middle" x="772" y="-1004" font-family="Ubuntu-R" font-size="10.00">_internal.AbInitio_Internal</text>
</a>
</g>
<!-- Node11&#45;&gt;Node12 -->
<g id="edge22" class="edge"><title>Node11&#45;&gt;Node12</title>
<path fill="none" stroke="midnightblue" d="M626.171,-885.172C631.16,-887.948 635.843,-891.197 640,-895 672.394,-924.64 643.315,-957.682 676,-987 683.841,-994.033 693.396,-999.191 703.403,-1002.97"/>
<polygon fill="midnightblue" stroke="midnightblue" points="627.433,-881.894 616.909,-880.67 624.373,-888.189 627.433,-881.894"/>
</g>
<!-- Node13 -->
<g id="node25" class="node"><title>Node13</title>
<a xlink:href="classforcebalance_1_1amberio_1_1AbInitio__AMBER.html" target="_top" xlink:title="Subclass of Target for force and energy matching using AMBER. ">
<polygon fill="white" stroke="black" points="692.5,-944 692.5,-978 851.5,-978 851.5,-944 692.5,-944"/>
<text text-anchor="start" x="700.5" y="-965" font-family="Ubuntu-R" font-size="10.00">forcebalance.amberio.AbInitio</text>
<text text-anchor="middle" x="772" y="-952" font-family="Ubuntu-R" font-size="10.00">_AMBER</text>
</a>
</g>
<!-- Node11&#45;&gt;Node13 -->
<g id="edge24" class="edge"><title>Node11&#45;&gt;Node13</title>
<path fill="none" stroke="midnightblue" d="M626.024,-887.526C630.891,-889.751 635.598,-892.234 640,-895 660.25,-907.727 655.625,-922.473 676,-935 681.443,-938.346 687.317,-941.268 693.385,-943.819"/>
<polygon fill="midnightblue" stroke="midnightblue" points="627.086,-884.176 616.509,-883.554 624.39,-890.636 627.086,-884.176"/>
</g>
<!-- Node14 -->
<g id="node27" class="node"><title>Node14</title>
<a xlink:href="classforcebalance_1_1gmxio_1_1AbInitio__GMX.html" target="_top" xlink:title="Subclass of AbInitio for force and energy matching using GROMACS. ">
<polygon fill="white" stroke="black" points="684,-904.5 684,-925.5 860,-925.5 860,-904.5 684,-904.5"/>
<text text-anchor="middle" x="772" y="-912.5" font-family="Ubuntu-R" font-size="10.00">forcebalance.gmxio.AbInitio_GMX</text>
</a>
</g>
<!-- Node11&#45;&gt;Node14 -->
<g id="edge26" class="edge"><title>Node11&#45;&gt;Node14</title>
<path fill="none" stroke="midnightblue" d="M626.687,-884.754C657.91,-891.253 693.264,-898.612 721.282,-904.443"/>
<polygon fill="midnightblue" stroke="midnightblue" points="627.212,-881.288 616.709,-882.677 625.786,-888.141 627.212,-881.288"/>
</g>
<!-- Node15 -->
<g id="node29" class="node"><title>Node15</title>
<a xlink:href="classforcebalance_1_1openmmio_1_1AbInitio__OpenMM.html" target="_top" xlink:title="Force and energy matching using OpenMM. ">
<polygon fill="white" stroke="black" points="697.5,-852 697.5,-886 846.5,-886 846.5,-852 697.5,-852"/>
<text text-anchor="start" x="705.5" y="-873" font-family="Ubuntu-R" font-size="10.00">forcebalance.openmmio.Ab</text>
<text text-anchor="middle" x="772" y="-860" font-family="Ubuntu-R" font-size="10.00">Initio_OpenMM</text>
</a>
</g>
<!-- Node11&#45;&gt;Node15 -->
<g id="edge28" class="edge"><title>Node11&#45;&gt;Node15</title>
<path fill="none" stroke="midnightblue" d="M626.981,-869C649.705,-869 674.594,-869 697.238,-869"/>
<polygon fill="midnightblue" stroke="midnightblue" points="626.709,-865.5 616.709,-869 626.709,-872.5 626.709,-865.5"/>
</g>
<!-- Node16 -->
<g id="node31" class="node"><title>Node16</title>
<a xlink:href="classforcebalance_1_1tinkerio_1_1AbInitio__TINKER.html" target="_top" xlink:title="Subclass of Target for force and energy matching using TINKER. ">
<polygon fill="white" stroke="black" points="706,-800 706,-834 838,-834 838,-800 706,-800"/>
<text text-anchor="start" x="714" y="-821" font-family="Ubuntu-R" font-size="10.00">forcebalance.tinkerio.Ab</text>
<text text-anchor="middle" x="772" y="-808" font-family="Ubuntu-R" font-size="10.00">Initio_TINKER</text>
</a>
</g>
<!-- Node11&#45;&gt;Node16 -->
<g id="edge30" class="edge"><title>Node11&#45;&gt;Node16</title>
<path fill="none" stroke="midnightblue" d="M626.772,-851.171C652.447,-845.13 680.907,-838.434 705.78,-832.581"/>
<polygon fill="midnightblue" stroke="midnightblue" points="625.641,-847.842 616.709,-853.539 627.245,-854.656 625.641,-847.842"/>
</g>
<!-- Node18 -->
<g id="node35" class="node"><title>Node18</title>
<a xlink:href="classforcebalance_1_1gmxio_1_1BindingEnergy__GMX.html" target="_top" xlink:title="Binding energy matching using Gromacs. ">
<polygon fill="white" stroke="black" points="697.5,-748 697.5,-782 846.5,-782 846.5,-748 697.5,-748"/>
<text text-anchor="start" x="705.5" y="-769" font-family="Ubuntu-R" font-size="10.00">forcebalance.gmxio.Binding</text>
<text text-anchor="middle" x="772" y="-756" font-family="Ubuntu-R" font-size="10.00">Energy_GMX</text>
</a>
</g>
<!-- Node17&#45;&gt;Node18 -->
<g id="edge34" class="edge"><title>Node17&#45;&gt;Node18</title>
<path fill="none" stroke="midnightblue" d="M597.805,-708.166C621.044,-718.238 649.708,-730.013 676,-739 685.232,-742.155 695.064,-745.184 704.783,-747.989"/>
<polygon fill="midnightblue" stroke="midnightblue" points="599.093,-704.91 588.529,-704.112 596.29,-711.324 599.093,-704.91"/>
</g>
<!-- Node19 -->
<g id="node37" class="node"><title>Node19</title>
<a xlink:href="classforcebalance_1_1openmmio_1_1BindingEnergy__OpenMM.html" target="_top" xlink:title="Binding energy matching using OpenMM. ">
<polygon fill="white" stroke="black" points="686.5,-696 686.5,-730 857.5,-730 857.5,-696 686.5,-696"/>
<text text-anchor="start" x="694.5" y="-717" font-family="Ubuntu-R" font-size="10.00">forcebalance.openmmio.Binding</text>
<text text-anchor="middle" x="772" y="-704" font-family="Ubuntu-R" font-size="10.00">Energy_OpenMM</text>
</a>
</g>
<!-- Node17&#45;&gt;Node19 -->
<g id="edge36" class="edge"><title>Node17&#45;&gt;Node19</title>
<path fill="none" stroke="midnightblue" d="M638.55,-697.3C654.319,-699.155 670.74,-701.087 686.452,-702.936"/>
<polygon fill="midnightblue" stroke="midnightblue" points="638.636,-693.786 628.295,-696.094 637.818,-700.738 638.636,-693.786"/>
</g>
<!-- Node20 -->
<g id="node39" class="node"><title>Node20</title>
<a xlink:href="classforcebalance_1_1tinkerio_1_1BindingEnergy__TINKER.html" target="_top" xlink:title="Binding energy matching using TINKER. ">
<polygon fill="white" stroke="black" points="694.5,-644 694.5,-678 849.5,-678 849.5,-644 694.5,-644"/>
<text text-anchor="start" x="702.5" y="-665" font-family="Ubuntu-R" font-size="10.00">forcebalance.tinkerio.Binding</text>
<text text-anchor="middle" x="772" y="-652" font-family="Ubuntu-R" font-size="10.00">Energy_TINKER</text>
</a>
</g>
<!-- Node17&#45;&gt;Node20 -->
<g id="edge38" class="edge"><title>Node17&#45;&gt;Node20</title>
<path fill="none" stroke="midnightblue" d="M638.451,-676.712C656.923,-674.538 676.295,-672.259 694.375,-670.132"/>
<polygon fill="midnightblue" stroke="midnightblue" points="637.818,-673.262 628.295,-677.906 638.636,-680.214 637.818,-673.262"/>
</g>
<!-- Node23 -->
<g id="node45" class="node"><title>Node23</title>
<a xlink:href="classforcebalance_1_1gmxio_1_1Interaction__GMX.html" target="_top" xlink:title="Interaction energy matching using GROMACS. ">
<polygon fill="white" stroke="black" points="676.5,-604.5 676.5,-625.5 867.5,-625.5 867.5,-604.5 676.5,-604.5"/>
<text text-anchor="middle" x="772" y="-612.5" font-family="Ubuntu-R" font-size="10.00">forcebalance.gmxio.Interaction_GMX</text>
</a>
</g>
<!-- Node22&#45;&gt;Node23 -->
<g id="edge44" class="edge"><title>Node22&#45;&gt;Node23</title>
<path fill="none" stroke="midnightblue" d="M628.107,-538.911C632.265,-541.031 636.264,-543.385 640,-546 662.139,-561.496 653.268,-580.388 676,-595 681.872,-598.774 688.325,-601.852 695.023,-604.361"/>
<polygon fill="midnightblue" stroke="midnightblue" points="629.34,-535.625 618.791,-534.635 626.42,-541.987 629.34,-535.625"/>
</g>
<!-- Node24 -->
<g id="node47" class="node"><title>Node24</title>
<a xlink:href="classforcebalance_1_1openmmio_1_1Interaction__OpenMM.html" target="_top" xlink:title="Interaction matching using OpenMM. ">
<polygon fill="white" stroke="black" points="678.5,-552 678.5,-586 865.5,-586 865.5,-552 678.5,-552"/>
<text text-anchor="start" x="686.5" y="-573" font-family="Ubuntu-R" font-size="10.00">forcebalance.openmmio.Interaction</text>
<text text-anchor="middle" x="772" y="-560" font-family="Ubuntu-R" font-size="10.00">_OpenMM</text>
</a>
</g>
<!-- Node22&#45;&gt;Node24 -->
<g id="edge46" class="edge"><title>Node22&#45;&gt;Node24</title>
<path fill="none" stroke="midnightblue" d="M628.328,-537.145C650.017,-541.954 673.586,-547.18 695.243,-551.981"/>
<polygon fill="midnightblue" stroke="midnightblue" points="629.029,-533.716 618.508,-534.968 627.513,-540.55 629.029,-533.716"/>
</g>
<!-- Node25 -->
<g id="node49" class="node"><title>Node25</title>
<a xlink:href="classforcebalance_1_1tinkerio_1_1Interaction__TINKER.html" target="_top" xlink:title="Subclass of Target for interaction matching using TINKER. ">
<polygon fill="white" stroke="black" points="687,-500 687,-534 857,-534 857,-500 687,-500"/>
<text text-anchor="start" x="695" y="-521" font-family="Ubuntu-R" font-size="10.00">forcebalance.tinkerio.Interaction</text>
<text text-anchor="middle" x="772" y="-508" font-family="Ubuntu-R" font-size="10.00">_TINKER</text>
</a>
</g>
<!-- Node22&#45;&gt;Node25 -->
<g id="edge48" class="edge"><title>Node22&#45;&gt;Node25</title>
<path fill="none" stroke="midnightblue" d="M628.537,-518.947C647.417,-518.691 667.711,-518.416 686.921,-518.155"/>
<polygon fill="midnightblue" stroke="midnightblue" points="628.46,-515.448 618.508,-519.084 628.555,-522.447 628.46,-515.448"/>
</g>
<!-- Node27 -->
<g id="node53" class="node"><title>Node27</title>
<a xlink:href="classforcebalance_1_1psi4io_1_1THCDF__Psi4.html" target="_top" xlink:title="forcebalance.psi4io.THCDF_Psi4">
<polygon fill="white" stroke="black" points="687.5,-460.5 687.5,-481.5 856.5,-481.5 856.5,-460.5 687.5,-460.5"/>
<text text-anchor="middle" x="772" y="-468.5" font-family="Ubuntu-R" font-size="10.00">forcebalance.psi4io.THCDF_Psi4</text>
</a>
</g>
<!-- Node26&#45;&gt;Node27 -->
<g id="edge52" class="edge"><title>Node26&#45;&gt;Node27</title>
<path fill="none" stroke="midnightblue" d="M633.844,-469.125C651.343,-469.362 669.831,-469.613 687.394,-469.851"/>
<polygon fill="midnightblue" stroke="midnightblue" points="633.716,-465.623 623.67,-468.986 633.621,-472.622 633.716,-465.623"/>
</g>
<!-- Node29 -->
<g id="node57" class="node"><title>Node29</title>
<a xlink:href="classforcebalance_1_1gmxio_1_1Lipid__GMX.html" target="_top" xlink:title="forcebalance.gmxio.Lipid_GMX">
<polygon fill="white" stroke="black" points="691,-420.5 691,-441.5 853,-441.5 853,-420.5 691,-420.5"/>
<text text-anchor="middle" x="772" y="-428.5" font-family="Ubuntu-R" font-size="10.00">forcebalance.gmxio.Lipid_GMX</text>
</a>
</g>
<!-- Node28&#45;&gt;Node29 -->
<g id="edge56" class="edge"><title>Node28&#45;&gt;Node29</title>
<path fill="none" stroke="midnightblue" d="M623.772,-424.964C645.265,-425.839 668.921,-426.802 690.904,-427.697"/>
<polygon fill="midnightblue" stroke="midnightblue" points="623.873,-421.465 613.739,-424.555 623.588,-428.459 623.873,-421.465"/>
</g>
<!-- Node31 -->
<g id="node61" class="node"><title>Node31</title>
<a xlink:href="classforcebalance_1_1gmxio_1_1Liquid__GMX.html" target="_top" xlink:title="forcebalance.gmxio.Liquid_GMX">
<polygon fill="white" stroke="black" points="688,-380.5 688,-401.5 856,-401.5 856,-380.5 688,-380.5"/>
<text text-anchor="middle" x="772" y="-388.5" font-family="Ubuntu-R" font-size="10.00">forcebalance.gmxio.Liquid_GMX</text>
</a>
</g>
<!-- Node30&#45;&gt;Node31 -->
<g id="edge60" class="edge"><title>Node30&#45;&gt;Node31</title>
<path fill="none" stroke="midnightblue" d="M629.718,-376.192C648.539,-378.151 668.705,-380.25 687.765,-382.233"/>
<polygon fill="midnightblue" stroke="midnightblue" points="630.023,-372.705 619.714,-375.151 629.298,-379.668 630.023,-372.705"/>
</g>
<!-- Node32 -->
<g id="node63" class="node"><title>Node32</title>
<a xlink:href="classforcebalance_1_1openmmio_1_1Liquid__OpenMM.html" target="_top" xlink:title="Condensed phase property matching using OpenMM. ">
<polygon fill="white" stroke="black" points="690,-328 690,-362 854,-362 854,-328 690,-328"/>
<text text-anchor="start" x="698" y="-349" font-family="Ubuntu-R" font-size="10.00">forcebalance.openmmio.Liquid</text>
<text text-anchor="middle" x="772" y="-336" font-family="Ubuntu-R" font-size="10.00">_OpenMM</text>
</a>
</g>
<!-- Node30&#45;&gt;Node32 -->
<g id="edge62" class="edge"><title>Node30&#45;&gt;Node32</title>
<path fill="none" stroke="midnightblue" d="M629.748,-359.804C649.214,-357.779 670.117,-355.603 689.745,-353.561"/>
<polygon fill="midnightblue" stroke="midnightblue" points="629.298,-356.332 619.714,-360.849 630.023,-363.295 629.298,-356.332"/>
</g>
<!-- Node33 -->
<g id="node65" class="node"><title>Node33</title>
<a xlink:href="classforcebalance_1_1tinkerio_1_1Liquid__TINKER.html" target="_top" xlink:title="Condensed phase property matching using TINKER. ">
<polygon fill="white" stroke="black" points="698.5,-276 698.5,-310 845.5,-310 845.5,-276 698.5,-276"/>
<text text-anchor="start" x="706.5" y="-297" font-family="Ubuntu-R" font-size="10.00">forcebalance.tinkerio.Liquid</text>
<text text-anchor="middle" x="772" y="-284" font-family="Ubuntu-R" font-size="10.00">_TINKER</text>
</a>
</g>
<!-- Node30&#45;&gt;Node33 -->
<g id="edge64" class="edge"><title>Node30&#45;&gt;Node33</title>
<path fill="none" stroke="midnightblue" d="M584.986,-353.515C609.919,-343.175 644.737,-329.327 676,-319 685.428,-315.886 695.463,-312.859 705.358,-310.037"/>
<polygon fill="midnightblue" stroke="midnightblue" points="583.49,-350.347 575.611,-357.431 586.187,-356.806 583.49,-350.347"/>
</g>
<!-- Node35 -->
<g id="node69" class="node"><title>Node35</title>
<a xlink:href="classforcebalance_1_1gmxio_1_1Moments__GMX.html" target="_top" xlink:title="Multipole moment matching using GROMACS. ">
<polygon fill="white" stroke="black" points="679.5,-236.5 679.5,-257.5 864.5,-257.5 864.5,-236.5 679.5,-236.5"/>
<text text-anchor="middle" x="772" y="-244.5" font-family="Ubuntu-R" font-size="10.00">forcebalance.gmxio.Moments_GMX</text>
</a>
</g>
<!-- Node34&#45;&gt;Node35 -->
<g id="edge68" class="edge"><title>Node34&#45;&gt;Node35</title>
<path fill="none" stroke="midnightblue" d="M613.928,-288.097C622.738,-285.931 631.635,-283.551 640,-281 656.421,-275.993 659.54,-271.878 676,-267 688.079,-263.42 701.196,-260.238 713.742,-257.524"/>
<polygon fill="midnightblue" stroke="midnightblue" points="612.968,-284.728 604.05,-290.448 614.589,-291.537 612.968,-284.728"/>
</g>
<!-- Node36 -->
<g id="node71" class="node"><title>Node36</title>
<a xlink:href="classforcebalance_1_1openmmio_1_1Moments__OpenMM.html" target="_top" xlink:title="Multipole moment matching using OpenMM. ">
<polygon fill="white" stroke="black" points="681.5,-184 681.5,-218 862.5,-218 862.5,-184 681.5,-184"/>
<text text-anchor="start" x="689.5" y="-205" font-family="Ubuntu-R" font-size="10.00">forcebalance.openmmio.Moments</text>
<text text-anchor="middle" x="772" y="-192" font-family="Ubuntu-R" font-size="10.00">_OpenMM</text>
</a>
</g>
<!-- Node34&#45;&gt;Node36 -->
<g id="edge70" class="edge"><title>Node34&#45;&gt;Node36</title>
<path fill="none" stroke="midnightblue" d="M631.372,-286.142C634.368,-284.592 637.259,-282.883 640,-281 663.775,-264.668 652.585,-243.845 676,-227 680.766,-223.571 685.959,-220.595 691.382,-218.011"/>
<polygon fill="midnightblue" stroke="midnightblue" points="629.775,-283.023 622.106,-290.334 632.66,-289.401 629.775,-283.023"/>
</g>
<!-- Node37 -->
<g id="node73" class="node"><title>Node37</title>
<a xlink:href="classforcebalance_1_1tinkerio_1_1Moments__TINKER.html" target="_top" xlink:title="Subclass of Target for multipole moment matching using TINKER. ">
<polygon fill="white" stroke="black" points="690,-132 690,-166 854,-166 854,-132 690,-132"/>
<text text-anchor="start" x="698" y="-153" font-family="Ubuntu-R" font-size="10.00">forcebalance.tinkerio.Moments</text>
<text text-anchor="middle" x="772" y="-140" font-family="Ubuntu-R" font-size="10.00">_TINKER</text>
</a>
</g>
<!-- Node34&#45;&gt;Node37 -->
<g id="edge72" class="edge"><title>Node34&#45;&gt;Node37</title>
<path fill="none" stroke="midnightblue" d="M635.148,-284.905C636.833,-283.689 638.454,-282.39 640,-281 677.002,-247.738 639.73,-209.057 676,-175 680.154,-171.1 684.832,-167.773 689.83,-164.936"/>
<polygon fill="midnightblue" stroke="midnightblue" points="632.982,-282.125 626.248,-290.304 636.613,-288.109 632.982,-282.125"/>
</g>
<!-- Node41 -->
<g id="node81" class="node"><title>Node41</title>
<a xlink:href="classforcebalance_1_1gmxio_1_1Thermo__GMX.html" target="_top" xlink:title="Thermodynamical property matching using GROMACS. ">
<polygon fill="white" stroke="black" points="683.5,-92.5 683.5,-113.5 860.5,-113.5 860.5,-92.5 683.5,-92.5"/>
<text text-anchor="middle" x="772" y="-100.5" font-family="Ubuntu-R" font-size="10.00">forcebalance.gmxio.Thermo_GMX</text>
</a>
</g>
<!-- Node40&#45;&gt;Node41 -->
<g id="edge80" class="edge"><title>Node40&#45;&gt;Node41</title>
<path fill="none" stroke="midnightblue" d="M639.607,-109.59C654.007,-108.873 668.924,-108.131 683.325,-107.414"/>
<polygon fill="midnightblue" stroke="midnightblue" points="639.041,-106.113 629.227,-110.106 639.389,-113.105 639.041,-106.113"/>
</g>
<!-- Node43 -->
<g id="node85" class="node"><title>Node43</title>
<a xlink:href="classforcebalance_1_1gmxio_1_1Vibration__GMX.html" target="_top" xlink:title="Vibrational frequency matching using GROMACS. ">
<polygon fill="white" stroke="black" points="680.5,-52.5 680.5,-73.5 863.5,-73.5 863.5,-52.5 680.5,-52.5"/>
<text text-anchor="middle" x="772" y="-60.5" font-family="Ubuntu-R" font-size="10.00">forcebalance.gmxio.Vibration_GMX</text>
</a>
</g>
<!-- Node42&#45;&gt;Node43 -->
<g id="edge84" class="edge"><title>Node42&#45;&gt;Node43</title>
<path fill="none" stroke="midnightblue" d="M645.302,-63C656.906,-63 668.753,-63 680.317,-63"/>
<polygon fill="midnightblue" stroke="midnightblue" points="645.181,-59.5001 635.181,-63 645.181,-66.5001 645.181,-59.5001"/>
</g>
<!-- Node44 -->
<g id="node87" class="node"><title>Node44</title>
<a xlink:href="classforcebalance_1_1tinkerio_1_1Vibration__TINKER.html" target="_top" xlink:title="Vibrational frequency matching using TINKER. ">
<polygon fill="white" stroke="black" points="691,-0 691,-34 853,-34 853,-0 691,-0"/>
<text text-anchor="start" x="699" y="-21" font-family="Ubuntu-R" font-size="10.00">forcebalance.tinkerio.Vibration</text>
<text text-anchor="middle" x="772" y="-8" font-family="Ubuntu-R" font-size="10.00">_TINKER</text>
</a>
</g>
<!-- Node42&#45;&gt;Node44 -->
<g id="edge86" class="edge"><title>Node42&#45;&gt;Node44</title>
<path fill="none" stroke="midnightblue" d="M611.554,-50.396C636,-45.3076 664.577,-39.3595 690.785,-33.9044"/>
<polygon fill="midnightblue" stroke="midnightblue" points="610.779,-46.9823 601.702,-52.4467 612.205,-53.8354 610.779,-46.9823"/>
</g>
</g>
</svg>
