<?xml version="1.0" encoding="UTF-8" standalone="no"?>
<!DOCTYPE svg PUBLIC "-//W3C//DTD SVG 1.1//EN"
 "http://www.w3.org/Graphics/SVG/1.1/DTD/svg11.dtd">
<!-- Generated by graphviz version 2.28.0 (20111219.2309)
 -->
<!-- Title: G Pages: 1 -->
<svg width="2904pt" height="616pt"
 viewBox="0.00 0.00 2904.00 616.00" xmlns="http://www.w3.org/2000/svg" xmlns:xlink="http://www.w3.org/1999/xlink">
<g id="graph1" class="graph" transform="scale(1 1) rotate(0) translate(4 612)">
<title>G</title>
<polygon fill="white" stroke="white" points="-4,5 -4,-612 2901,-612 2901,5 -4,5"/>
<!-- Node1 -->
<g id="node1" class="node"><title>Node1</title>
<polygon fill="#bfbfbf" stroke="black" points="0,-114.5 0,-133.5 194,-133.5 194,-114.5 0,-114.5"/>
<text text-anchor="middle" x="97" y="-121.5" font-family="Ubuntu-R" font-size="10.00">forcebalance.abinitio.AbInitio.indicate</text>
</g>
<!-- Node2 -->
<g id="node3" class="node"><title>Node2</title>
<a xlink:href="classforcebalance_1_1target_1_1Target.html#ac30a4e9d7d9fe06f7caefa5f7cfab09b" target="_top" xlink:title="Print target information in an organized table format.">
<polygon fill="white" stroke="black" points="297,-425.5 297,-444.5 513,-444.5 513,-425.5 297,-425.5"/>
<text text-anchor="middle" x="405" y="-432.5" font-family="Ubuntu-R" font-size="10.00">forcebalance.target.Target.printcool_table</text>
</a>
</g>
<!-- Node1&#45;&gt;Node2 -->
<g id="edge2" class="edge"><title>Node1&#45;&gt;Node2</title>
<path fill="none" stroke="midnightblue" d="M101.014,-133.957C112.212,-169.391 154.7,-290.875 230,-359 265.454,-391.076 316.587,-411.201 354.252,-422.621"/>
<polygon fill="midnightblue" stroke="midnightblue" points="353.425,-426.026 364.006,-425.477 355.392,-419.308 353.425,-426.026"/>
</g>
<!-- Node16 -->
<g id="node35" class="node"><title>Node16</title>
<a xlink:href="classforcebalance_1_1abinitio_1_1AbInitio.html#a3d28520925c6dfd179647d0abf7e1368" target="_top" xlink:title="forcebalance.abinitio.AbInitio.energy_force_transformer_all">
<polygon fill="white" stroke="black" points="256.5,-330.5 256.5,-349.5 553.5,-349.5 553.5,-330.5 256.5,-330.5"/>
<text text-anchor="middle" x="405" y="-337.5" font-family="Ubuntu-R" font-size="10.00">forcebalance.abinitio.AbInitio.energy_force_transformer_all</text>
</a>
</g>
<!-- Node1&#45;&gt;Node16 -->
<g id="edge38" class="edge"><title>Node1&#45;&gt;Node16</title>
<path fill="none" stroke="midnightblue" d="M101.624,-133.933C113.912,-166.059 157.322,-267.683 230,-313 239.235,-318.758 249.267,-323.437 259.695,-327.226"/>
<polygon fill="midnightblue" stroke="midnightblue" points="258.778,-330.609 269.372,-330.46 260.997,-323.97 258.778,-330.609"/>
</g>
<!-- Node21 -->
<g id="node47" class="node"><title>Node21</title>
<a xlink:href="classforcebalance_1_1gmxio_1_1AbInitio__GMX.html#a6e43c323b2286c546ff8afd3377f8808" target="_top" xlink:title="Computes the energy and force using GROMACS for a trajectory.">
<polygon fill="white" stroke="black" points="942.5,-322.5 942.5,-341.5 1231.5,-341.5 1231.5,-322.5 942.5,-322.5"/>
<text text-anchor="middle" x="1087" y="-329.5" font-family="Ubuntu-R" font-size="10.00">forcebalance.gmxio.AbInitio_GMX.energy_force_driver_all</text>
</a>
</g>
<!-- Node1&#45;&gt;Node21 -->
<g id="edge100" class="edge"><title>Node1&#45;&gt;Node21</title>
<path fill="none" stroke="midnightblue" d="M124.848,-133.52C200.856,-160.102 424.439,-235.736 616,-275 727.874,-297.93 856.753,-312.76 951.226,-321.528"/>
<polygon fill="midnightblue" stroke="midnightblue" points="951.136,-325.035 961.414,-322.463 951.775,-318.064 951.136,-325.035"/>
</g>
<!-- Node31 -->
<g id="node69" class="node"><title>Node31</title>
<a xlink:href="classforcebalance_1_1tinkerio_1_1AbInitio__TINKER.html#a27835affec49391fc41b832839a2b0e8" target="_top" xlink:title="forcebalance.tinkerio.AbInitio_TINKER.energy_force_driver_all">
<polygon fill="white" stroke="black" points="1274,-114.5 1274,-133.5 1580,-133.5 1580,-114.5 1274,-114.5"/>
<text text-anchor="middle" x="1427" y="-121.5" font-family="Ubuntu-R" font-size="10.00">forcebalance.tinkerio.AbInitio_TINKER.energy_force_driver_all</text>
</a>
</g>
<!-- Node1&#45;&gt;Node31 -->
<g id="edge106" class="edge"><title>Node1&#45;&gt;Node31</title>
<path fill="none" stroke="midnightblue" d="M194.041,-124C419.372,-124 984.016,-124 1263.74,-124"/>
<polygon fill="midnightblue" stroke="midnightblue" points="1263.98,-127.5 1273.98,-124 1263.98,-120.5 1263.98,-127.5"/>
</g>
<!-- Node38 -->
<g id="node86" class="node"><title>Node38</title>
<a xlink:href="classforcebalance_1_1abinitio__internal_1_1AbInitio__Internal.html#a289dc4371654f7e3278363597c906c7f" target="_top" xlink:title="Here we actually compute the interactions and return the energies and forces.">
<polygon fill="white" stroke="black" points="230,-76.5 230,-95.5 580,-95.5 580,-76.5 230,-76.5"/>
<text text-anchor="middle" x="405" y="-83.5" font-family="Ubuntu-R" font-size="10.00">forcebalance.abinitio_internal.AbInitio_Internal.energy_force_driver_all</text>
</a>
</g>
<!-- Node1&#45;&gt;Node38 -->
<g id="edge96" class="edge"><title>Node1&#45;&gt;Node38</title>
<path fill="none" stroke="midnightblue" d="M174.822,-114.46C218.191,-109.074 272.524,-102.327 317.401,-96.7541"/>
<polygon fill="midnightblue" stroke="midnightblue" points="317.92,-100.217 327.412,-95.5109 317.057,-93.27 317.92,-100.217"/>
</g>
<!-- Node39 -->
<g id="node88" class="node"><title>Node39</title>
<a xlink:href="classforcebalance_1_1amberio_1_1AbInitio__AMBER.html#a64ccf943e550392c654ec7bb6c6ff81b" target="_top" xlink:title="forcebalance.amberio.AbInitio_AMBER.energy_force_driver_all">
<polygon fill="white" stroke="black" points="249.5,-38.5 249.5,-57.5 560.5,-57.5 560.5,-38.5 249.5,-38.5"/>
<text text-anchor="middle" x="405" y="-45.5" font-family="Ubuntu-R" font-size="10.00">forcebalance.amberio.AbInitio_AMBER.energy_force_driver_all</text>
</a>
</g>
<!-- Node1&#45;&gt;Node39 -->
<g id="edge98" class="edge"><title>Node1&#45;&gt;Node39</title>
<path fill="none" stroke="midnightblue" d="M115.749,-114.289C140.533,-101.211 187.282,-78.2816 230,-67 241.477,-63.9691 253.502,-61.4207 265.642,-59.2782"/>
<polygon fill="midnightblue" stroke="midnightblue" points="266.57,-62.6719 275.857,-57.5724 265.417,-55.7675 266.57,-62.6719"/>
</g>
<!-- Node40 -->
<g id="node91" class="node"><title>Node40</title>
<a xlink:href="classforcebalance_1_1openmmio_1_1AbInitio__OpenMM.html#a0673b350bb0638307875d1a4d153bf34" target="_top" xlink:title="forcebalance.openmmio.AbInitio_OpenMM.energy_force_driver_all">
<polygon fill="white" stroke="black" points="239,-0.5 239,-19.5 571,-19.5 571,-0.5 239,-0.5"/>
<text text-anchor="middle" x="405" y="-7.5" font-family="Ubuntu-R" font-size="10.00">forcebalance.openmmio.AbInitio_OpenMM.energy_force_driver_all</text>
</a>
</g>
<!-- Node1&#45;&gt;Node40 -->
<g id="edge102" class="edge"><title>Node1&#45;&gt;Node40</title>
<path fill="none" stroke="midnightblue" d="M107.527,-114.362C127.895,-94.4395 178.068,-48.9215 230,-29 236.827,-26.3811 243.908,-24.0867 251.135,-22.0789"/>
<polygon fill="midnightblue" stroke="midnightblue" points="252.261,-25.4029 261.069,-19.515 250.512,-18.6249 252.261,-25.4029"/>
</g>
<!-- Node3 -->
<g id="node5" class="node"><title>Node3</title>
<a xlink:href="namespaceforcebalance_1_1nifty.html#a51180e960742cc7547749fdfb3513ec4" target="_top" xlink:title="See documentation for printcool; this is a nice way to print out keys/values in a dictionary...">
<polygon fill="white" stroke="black" points="663,-512.5 663,-531.5 859,-531.5 859,-512.5 663,-512.5"/>
<text text-anchor="middle" x="761" y="-519.5" font-family="Ubuntu-R" font-size="10.00">forcebalance.nifty.printcool_dictionary</text>
</a>
</g>
<!-- Node2&#45;&gt;Node3 -->
<g id="edge4" class="edge"><title>Node2&#45;&gt;Node3</title>
<path fill="none" stroke="midnightblue" d="M444.897,-444.559C509.863,-460.526 640.303,-492.583 711.282,-510.027"/>
<polygon fill="midnightblue" stroke="midnightblue" points="710.762,-513.503 721.308,-512.491 712.432,-506.705 710.762,-513.503"/>
</g>
<!-- Node4 -->
<g id="node7" class="node"><title>Node4</title>
<a xlink:href="namespaceforcebalance_1_1nifty.html#a3f1c7a1af9d35d5d1693074bc6f5497c" target="_top" xlink:title="ONLY matches integers! If you have a decimal point? None shall pass!">
<polygon fill="white" stroke="black" points="1026,-512.5 1026,-531.5 1148,-531.5 1148,-512.5 1026,-512.5"/>
<text text-anchor="middle" x="1087" y="-519.5" font-family="Ubuntu-R" font-size="10.00">forcebalance.nifty.isint</text>
</a>
</g>
<!-- Node3&#45;&gt;Node4 -->
<g id="edge6" class="edge"><title>Node3&#45;&gt;Node4</title>
<path fill="none" stroke="midnightblue" d="M859.211,-522C909.466,-522 969.68,-522 1015.43,-522"/>
<polygon fill="midnightblue" stroke="midnightblue" points="1015.55,-525.5 1025.55,-522 1015.55,-518.5 1015.55,-525.5"/>
</g>
<!-- Node6 -->
<g id="node11" class="node"><title>Node6</title>
<a xlink:href="namespaceforcebalance_1_1nifty.html#a8e3ef0108b9d37b82ba0dced7c6037ae" target="_top" xlink:title="Matches ANY number; it can be a decimal, scientific notation, what have you CAUTION &#45; this will also ...">
<polygon fill="white" stroke="black" points="1724.5,-569.5 1724.5,-588.5 1855.5,-588.5 1855.5,-569.5 1724.5,-569.5"/>
<text text-anchor="middle" x="1790" y="-576.5" font-family="Ubuntu-R" font-size="10.00">forcebalance.nifty.isfloat</text>
</a>
</g>
<!-- Node3&#45;&gt;Node6 -->
<g id="edge36" class="edge"><title>Node3&#45;&gt;Node6</title>
<path fill="none" stroke="midnightblue" d="M848.02,-531.532C877.771,-534.709 911.336,-538.159 942,-541 1086.73,-554.408 1122.84,-559.546 1268,-567 1426.77,-575.153 1613.04,-577.767 1714.26,-578.605"/>
<polygon fill="midnightblue" stroke="midnightblue" points="1714.36,-582.106 1724.38,-578.685 1714.41,-575.106 1714.36,-582.106"/>
</g>
<!-- Node5 -->
<g id="node9" class="node"><title>Node5</title>
<a xlink:href="namespaceforcebalance_1_1nifty.html#a09263927eaec9deff283fbf1a820242f" target="_top" xlink:title="Matches things with a decimal only; see isint and isfloat.">
<polygon fill="white" stroke="black" points="1353,-512.5 1353,-531.5 1501,-531.5 1501,-512.5 1353,-512.5"/>
<text text-anchor="middle" x="1427" y="-519.5" font-family="Ubuntu-R" font-size="10.00">forcebalance.nifty.isdecimal</text>
</a>
</g>
<!-- Node4&#45;&gt;Node5 -->
<g id="edge8" class="edge"><title>Node4&#45;&gt;Node5</title>
<path fill="none" stroke="midnightblue" d="M1148.04,-522C1202.2,-522 1282.38,-522 1342.72,-522"/>
<polygon fill="midnightblue" stroke="midnightblue" points="1342.99,-525.5 1352.99,-522 1342.99,-518.5 1342.99,-525.5"/>
</g>
<!-- Node5&#45;&gt;Node6 -->
<g id="edge10" class="edge"><title>Node5&#45;&gt;Node6</title>
<path fill="none" stroke="midnightblue" d="M1491.83,-531.541C1520.61,-535.884 1555.03,-541.13 1586,-546 1631.1,-553.091 1681.79,-561.332 1721.24,-567.804"/>
<polygon fill="midnightblue" stroke="midnightblue" points="1720.84,-571.285 1731.27,-569.452 1721.97,-564.378 1720.84,-571.285"/>
</g>
<!-- Node10 -->
<g id="node20" class="node"><title>Node10</title>
<a xlink:href="namespaceforcebalance_1_1nifty.html#afb3f205bce4984856e766af7e9fdaca8" target="_top" xlink:title="Given any list, array, or matrix, return a 1&#45;column matrix.">
<polygon fill="white" stroke="black" points="1732,-512.5 1732,-531.5 1848,-531.5 1848,-512.5 1732,-512.5"/>
<text text-anchor="middle" x="1790" y="-519.5" font-family="Ubuntu-R" font-size="10.00">forcebalance.nifty.col</text>
</a>
</g>
<!-- Node5&#45;&gt;Node10 -->
<g id="edge20" class="edge"><title>Node5&#45;&gt;Node10</title>
<path fill="none" stroke="midnightblue" d="M1501.05,-522C1565.55,-522 1658.84,-522 1721.58,-522"/>
<polygon fill="midnightblue" stroke="midnightblue" points="1721.77,-525.5 1731.77,-522 1721.77,-518.5 1721.77,-525.5"/>
</g>
<!-- Node6&#45;&gt;Node4 -->
<g id="edge12" class="edge"><title>Node6&#45;&gt;Node4</title>
<path fill="none" stroke="midnightblue" d="M1724.37,-574.961C1625.84,-568.651 1432.18,-555.649 1268,-541 1231.83,-537.773 1191.65,-533.589 1158.43,-529.968"/>
<polygon fill="midnightblue" stroke="midnightblue" points="1158.68,-526.475 1148.36,-528.864 1157.92,-533.433 1158.68,-526.475"/>
</g>
<!-- Node7 -->
<g id="node14" class="node"><title>Node7</title>
<a xlink:href="namespaceforcebalance_1_1nifty.html#a8d63c8ae9a67c66673a6cf81357f827d" target="_top" xlink:title="Returns a big number if we encounter NaN.">
<polygon fill="white" stroke="black" points="2042,-588.5 2042,-607.5 2194,-607.5 2194,-588.5 2042,-588.5"/>
<text text-anchor="middle" x="2118" y="-595.5" font-family="Ubuntu-R" font-size="10.00">forcebalance.nifty.floatornan</text>
</a>
</g>
<!-- Node6&#45;&gt;Node7 -->
<g id="edge14" class="edge"><title>Node6&#45;&gt;Node7</title>
<path fill="none" stroke="midnightblue" d="M1855.8,-582.777C1906.23,-585.716 1976.66,-589.82 2031.67,-593.027"/>
<polygon fill="midnightblue" stroke="midnightblue" points="2031.57,-596.527 2041.76,-593.615 2031.98,-589.539 2031.57,-596.527"/>
</g>
<!-- Node8 -->
<g id="node16" class="node"><title>Node8</title>
<a xlink:href="namespaceforcebalance_1_1nifty.html#a6c9727360cdff8f3011a12cc54d0e86e" target="_top" xlink:title="Given any list, array, or matrix, return a 1&#45;row matrix.">
<polygon fill="white" stroke="black" points="2294.5,-588.5 2294.5,-607.5 2413.5,-607.5 2413.5,-588.5 2294.5,-588.5"/>
<text text-anchor="middle" x="2354" y="-595.5" font-family="Ubuntu-R" font-size="10.00">forcebalance.nifty.row</text>
</a>
</g>
<!-- Node7&#45;&gt;Node8 -->
<g id="edge16" class="edge"><title>Node7&#45;&gt;Node8</title>
<path fill="none" stroke="midnightblue" d="M2194,-598C2222.94,-598 2255.82,-598 2284.14,-598"/>
<polygon fill="midnightblue" stroke="midnightblue" points="2284.35,-601.5 2294.35,-598 2284.35,-594.5 2284.35,-601.5"/>
</g>
<!-- Node9 -->
<g id="node18" class="node"><title>Node9</title>
<a xlink:href="namespaceforcebalance_1_1nifty.html#a7676236002c6a65ea7d2e69a09923889" target="_top" xlink:title="Given two vectors vec1 and vec2, project out the component of vec1 that is along the vec2&#45;direction...">
<polygon fill="white" stroke="black" points="2478,-588.5 2478,-607.5 2646,-607.5 2646,-588.5 2478,-588.5"/>
<text text-anchor="middle" x="2562" y="-595.5" font-family="Ubuntu-R" font-size="10.00">forcebalance.nifty.orthogonalize</text>
</a>
</g>
<!-- Node8&#45;&gt;Node9 -->
<g id="edge18" class="edge"><title>Node8&#45;&gt;Node9</title>
<path fill="none" stroke="midnightblue" d="M2413.76,-598C2430.61,-598 2449.42,-598 2467.81,-598"/>
<polygon fill="midnightblue" stroke="midnightblue" points="2467.97,-601.5 2477.97,-598 2467.97,-594.5 2467.97,-601.5"/>
</g>
<!-- Node11 -->
<g id="node22" class="node"><title>Node11</title>
<a xlink:href="namespaceforcebalance_1_1nifty.html#a52114ceee9d55f94d9aecb3e176de294" target="_top" xlink:title="Given any list, array, or matrix, return a single&#45;index array.">
<polygon fill="white" stroke="black" points="2059,-550.5 2059,-569.5 2177,-569.5 2177,-550.5 2059,-550.5"/>
<text text-anchor="middle" x="2118" y="-557.5" font-family="Ubuntu-R" font-size="10.00">forcebalance.nifty.flat</text>
</a>
</g>
<!-- Node10&#45;&gt;Node11 -->
<g id="edge22" class="edge"><title>Node10&#45;&gt;Node11</title>
<path fill="none" stroke="midnightblue" d="M1848.16,-528.663C1904.09,-535.182 1989.31,-545.116 2048.76,-552.046"/>
<polygon fill="midnightblue" stroke="midnightblue" points="2048.47,-555.536 2058.81,-553.217 2049.28,-548.583 2048.47,-555.536"/>
</g>
<!-- Node12 -->
<g id="node24" class="node"><title>Node12</title>
<a xlink:href="namespaceforcebalance_1_1nifty.html#a4c82187e92dfeb8a159f4aa44b501c40" target="_top" xlink:title="Invert a matrix using singular value decomposition.">
<polygon fill="white" stroke="black" points="2278,-512.5 2278,-531.5 2430,-531.5 2430,-512.5 2278,-512.5"/>
<text text-anchor="middle" x="2354" y="-519.5" font-family="Ubuntu-R" font-size="10.00">forcebalance.nifty.invert_svd</text>
</a>
</g>
<!-- Node11&#45;&gt;Node12 -->
<g id="edge24" class="edge"><title>Node11&#45;&gt;Node12</title>
<path fill="none" stroke="midnightblue" d="M2177.14,-550.558C2209.67,-545.276 2250.39,-538.662 2284.46,-533.13"/>
<polygon fill="midnightblue" stroke="midnightblue" points="2285.03,-536.583 2294.34,-531.525 2283.91,-529.674 2285.03,-536.583"/>
</g>
<!-- Node12&#45;&gt;Node10 -->
<g id="edge32" class="edge"><title>Node12&#45;&gt;Node10</title>
<path fill="none" stroke="midnightblue" d="M2277.76,-522C2167.58,-522 1964.02,-522 1858.45,-522"/>
<polygon fill="midnightblue" stroke="midnightblue" points="1858.24,-518.5 1848.24,-522 1858.24,-525.5 1858.24,-518.5"/>
</g>
<!-- Node13 -->
<g id="node26" class="node"><title>Node13</title>
<a xlink:href="namespaceforcebalance_1_1nifty.html#aa9fb9c7c65231eca50a7afc04f489b64" target="_top" xlink:title="forcebalance.nifty.get_least_squares">
<polygon fill="white" stroke="black" points="2466.5,-540.5 2466.5,-559.5 2657.5,-559.5 2657.5,-540.5 2466.5,-540.5"/>
<text text-anchor="middle" x="2562" y="-547.5" font-family="Ubuntu-R" font-size="10.00">forcebalance.nifty.get_least_squares</text>
</a>
</g>
<!-- Node12&#45;&gt;Node13 -->
<g id="edge26" class="edge"><title>Node12&#45;&gt;Node13</title>
<path fill="none" stroke="midnightblue" d="M2425.03,-531.519C2442.94,-533.953 2462.34,-536.59 2480.72,-539.088"/>
<polygon fill="midnightblue" stroke="midnightblue" points="2480.43,-542.581 2490.81,-540.46 2481.38,-535.645 2480.43,-542.581"/>
</g>
<!-- Node15 -->
<g id="node32" class="node"><title>Node15</title>
<a xlink:href="namespaceforcebalance_1_1nifty.html#abb8f59044961a12588e0653c2baa8b01" target="_top" xlink:title="forcebalance.nifty.warn_press_key">
<polygon fill="white" stroke="black" points="2472.5,-483.5 2472.5,-502.5 2651.5,-502.5 2651.5,-483.5 2472.5,-483.5"/>
<text text-anchor="middle" x="2562" y="-490.5" font-family="Ubuntu-R" font-size="10.00">forcebalance.nifty.warn_press_key</text>
</a>
</g>
<!-- Node12&#45;&gt;Node15 -->
<g id="edge34" class="edge"><title>Node12&#45;&gt;Node15</title>
<path fill="none" stroke="midnightblue" d="M2422.74,-512.464C2442.1,-509.738 2463.35,-506.747 2483.26,-503.944"/>
<polygon fill="midnightblue" stroke="midnightblue" points="2483.81,-507.402 2493.22,-502.542 2482.83,-500.47 2483.81,-507.402"/>
</g>
<!-- Node13&#45;&gt;Node11 -->
<g id="edge28" class="edge"><title>Node13&#45;&gt;Node11</title>
<path fill="none" stroke="midnightblue" d="M2466.24,-552.144C2382.45,-554.04 2262.23,-556.759 2187.48,-558.451"/>
<polygon fill="midnightblue" stroke="midnightblue" points="2187.16,-554.957 2177.24,-558.682 2187.31,-561.955 2187.16,-554.957"/>
</g>
<!-- Node14 -->
<g id="node29" class="node"><title>Node14</title>
<a xlink:href="namespaceforcebalance_1_1nifty.html#ad5ca60565c864b4245a8212fe9d92e10" target="_top" xlink:title="Compute the (cross) statistical inefficiency of (two) timeseries.">
<polygon fill="white" stroke="black" points="2694.5,-540.5 2694.5,-559.5 2895.5,-559.5 2895.5,-540.5 2694.5,-540.5"/>
<text text-anchor="middle" x="2795" y="-547.5" font-family="Ubuntu-R" font-size="10.00">forcebalance.nifty.statisticalInefficiency</text>
</a>
</g>
<!-- Node13&#45;&gt;Node14 -->
<g id="edge30" class="edge"><title>Node13&#45;&gt;Node14</title>
<path fill="none" stroke="midnightblue" d="M2657.62,-550C2666.4,-550 2675.35,-550 2684.25,-550"/>
<polygon fill="midnightblue" stroke="midnightblue" points="2684.27,-553.5 2694.27,-550 2684.27,-546.5 2684.27,-553.5"/>
</g>
<!-- Node17 -->
<g id="node37" class="node"><title>Node17</title>
<a xlink:href="classforcebalance_1_1abinitio_1_1AbInitio.html#afbf86c26158a68cae7460b4106809fdd" target="_top" xlink:title="forcebalance.abinitio.AbInitio.compute_netforce_torque">
<polygon fill="white" stroke="black" points="946.5,-398.5 946.5,-417.5 1227.5,-417.5 1227.5,-398.5 946.5,-398.5"/>
<text text-anchor="middle" x="1087" y="-405.5" font-family="Ubuntu-R" font-size="10.00">forcebalance.abinitio.AbInitio.compute_netforce_torque</text>
</a>
</g>
<!-- Node16&#45;&gt;Node17 -->
<g id="edge40" class="edge"><title>Node16&#45;&gt;Node17</title>
<path fill="none" stroke="midnightblue" d="M501.267,-349.527C627.553,-362.155 849.666,-384.367 980.772,-397.477"/>
<polygon fill="midnightblue" stroke="midnightblue" points="980.532,-400.971 990.83,-398.483 981.228,-394.005 980.532,-400.971"/>
</g>
<!-- Node18 -->
<g id="node39" class="node"><title>Node18</title>
<a xlink:href="classforcebalance_1_1abinitio_1_1AbInitio.html#a9167da321a9fff748eef5ebe754cc7ca" target="_top" xlink:title="forcebalance.abinitio.AbInitio.energy_force_transformer">
<polygon fill="white" stroke="black" points="620.5,-434.5 620.5,-453.5 901.5,-453.5 901.5,-434.5 620.5,-434.5"/>
<text text-anchor="middle" x="761" y="-441.5" font-family="Ubuntu-R" font-size="10.00">forcebalance.abinitio.AbInitio.energy_force_transformer</text>
</a>
</g>
<!-- Node16&#45;&gt;Node18 -->
<g id="edge42" class="edge"><title>Node16&#45;&gt;Node18</title>
<path fill="none" stroke="midnightblue" d="M438.354,-349.505C502.531,-368.359 645.919,-410.485 717.562,-431.532"/>
<polygon fill="midnightblue" stroke="midnightblue" points="717.013,-435.019 727.594,-434.48 718.986,-428.303 717.013,-435.019"/>
</g>
<!-- Node20 -->
<g id="node45" class="node"><title>Node20</title>
<a xlink:href="classforcebalance_1_1gmxio_1_1AbInitio__GMX.html#a4bc31d1c02d47749d26b14779f025ebd" target="_top" xlink:title="Computes the energy and force using GROMACS for a single snapshot.">
<polygon fill="white" stroke="black" points="624.5,-330.5 624.5,-349.5 897.5,-349.5 897.5,-330.5 624.5,-330.5"/>
<text text-anchor="middle" x="761" y="-337.5" font-family="Ubuntu-R" font-size="10.00">forcebalance.gmxio.AbInitio_GMX.energy_force_driver</text>
</a>
</g>
<!-- Node16&#45;&gt;Node20 -->
<g id="edge50" class="edge"><title>Node16&#45;&gt;Node20</title>
<path fill="none" stroke="midnightblue" d="M553.564,-340C573.608,-340 594.169,-340 614.182,-340"/>
<polygon fill="midnightblue" stroke="midnightblue" points="614.273,-343.5 624.273,-340 614.273,-336.5 614.273,-343.5"/>
</g>
<!-- Node27 -->
<g id="node60" class="node"><title>Node27</title>
<a xlink:href="classforcebalance_1_1tinkerio_1_1AbInitio__TINKER.html#ab3835da0b951f77bfef0f14acd133c26" target="_top" xlink:title="forcebalance.tinkerio.AbInitio_TINKER.energy_force_driver">
<polygon fill="white" stroke="black" points="616,-246.5 616,-265.5 906,-265.5 906,-246.5 616,-246.5"/>
<text text-anchor="middle" x="761" y="-253.5" font-family="Ubuntu-R" font-size="10.00">forcebalance.tinkerio.AbInitio_TINKER.energy_force_driver</text>
</a>
</g>
<!-- Node16&#45;&gt;Node27 -->
<g id="edge66" class="edge"><title>Node16&#45;&gt;Node27</title>
<path fill="none" stroke="midnightblue" d="M446.264,-330.446C511.207,-315.036 638.946,-284.725 709.754,-267.923"/>
<polygon fill="midnightblue" stroke="midnightblue" points="710.852,-271.259 719.774,-265.545 709.236,-264.449 710.852,-271.259"/>
</g>
<!-- Node18&#45;&gt;Node15 -->
<g id="edge48" class="edge"><title>Node18&#45;&gt;Node15</title>
<path fill="none" stroke="midnightblue" d="M832.835,-453.539C865.941,-457.669 905.928,-462.192 942,-465 1156.63,-481.708 1210.72,-484 1426,-484 1426,-484 1426,-484 2119,-484 2236.88,-484 2372.4,-487.239 2461.97,-489.831"/>
<polygon fill="midnightblue" stroke="midnightblue" points="2462.02,-493.334 2472.12,-490.128 2462.22,-486.337 2462.02,-493.334"/>
</g>
<!-- Node18&#45;&gt;Node17 -->
<g id="edge44" class="edge"><title>Node18&#45;&gt;Node17</title>
<path fill="none" stroke="midnightblue" d="M847.551,-434.494C891.388,-429.624 944.915,-423.676 990.14,-418.651"/>
<polygon fill="midnightblue" stroke="midnightblue" points="990.698,-422.111 1000.25,-417.528 989.925,-415.154 990.698,-422.111"/>
</g>
<!-- Node19 -->
<g id="node42" class="node"><title>Node19</title>
<a xlink:href="classforcebalance_1_1abinitio_1_1AbInitio.html#a313c848f46579817803c8a3ff100974e" target="_top" xlink:title="LPW 06&#45;30&#45;2013.">
<polygon fill="white" stroke="black" points="964.5,-436.5 964.5,-455.5 1209.5,-455.5 1209.5,-436.5 964.5,-436.5"/>
<text text-anchor="middle" x="1087" y="-443.5" font-family="Ubuntu-R" font-size="10.00">forcebalance.abinitio.AbInitio.get_energy_force_</text>
</a>
</g>
<!-- Node18&#45;&gt;Node19 -->
<g id="edge46" class="edge"><title>Node18&#45;&gt;Node19</title>
<path fill="none" stroke="midnightblue" d="M901.756,-444.863C919.151,-444.97 936.895,-445.08 954.165,-445.186"/>
<polygon fill="midnightblue" stroke="midnightblue" points="954.251,-448.687 964.273,-445.249 954.294,-441.687 954.251,-448.687"/>
</g>
<!-- Node20&#45;&gt;Node21 -->
<g id="edge52" class="edge"><title>Node20&#45;&gt;Node21</title>
<path fill="none" stroke="midnightblue" d="M897.528,-336.654C908.995,-336.37 920.644,-336.083 932.237,-335.797"/>
<polygon fill="midnightblue" stroke="midnightblue" points="932.493,-339.291 942.404,-335.546 932.321,-332.294 932.493,-339.291"/>
</g>
<!-- Node26 -->
<g id="node57" class="node"><title>Node26</title>
<a xlink:href="namespaceforcebalance_1_1gmxio.html#acac8488f29b62fb0d4cb54bb5a041026" target="_top" xlink:title="forcebalance.gmxio.rm_gmx_baks">
<polygon fill="white" stroke="black" points="1336.5,-360.5 1336.5,-379.5 1517.5,-379.5 1517.5,-360.5 1336.5,-360.5"/>
<text text-anchor="middle" x="1427" y="-367.5" font-family="Ubuntu-R" font-size="10.00">forcebalance.gmxio.rm_gmx_baks</text>
</a>
</g>
<!-- Node20&#45;&gt;Node26 -->
<g id="edge64" class="edge"><title>Node20&#45;&gt;Node26</title>
<path fill="none" stroke="midnightblue" d="M897.616,-348.605C912.59,-349.461 927.616,-350.278 942,-351 1074.83,-357.665 1228.26,-363.346 1326.14,-366.716"/>
<polygon fill="midnightblue" stroke="midnightblue" points="1326.21,-370.22 1336.32,-367.065 1326.45,-363.224 1326.21,-370.22"/>
</g>
<!-- Node22 -->
<g id="node49" class="node"><title>Node22</title>
<a xlink:href="classforcebalance_1_1gmxio_1_1AbInitio__GMX.html#ae17e3c379d82935d725dd31f01df23e5" target="_top" xlink:title="Call mdrun in order to update the virtual site positions.">
<polygon fill="white" stroke="black" points="1278,-322.5 1278,-341.5 1576,-341.5 1576,-322.5 1278,-322.5"/>
<text text-anchor="middle" x="1427" y="-329.5" font-family="Ubuntu-R" font-size="10.00">forcebalance.gmxio.AbInitio_GMX.generate_vsite_positions</text>
</a>
</g>
<!-- Node21&#45;&gt;Node22 -->
<g id="edge54" class="edge"><title>Node21&#45;&gt;Node22</title>
<path fill="none" stroke="midnightblue" d="M1231.83,-332C1243.76,-332 1255.87,-332 1267.9,-332"/>
<polygon fill="midnightblue" stroke="midnightblue" points="1267.98,-335.5 1277.98,-332 1267.98,-328.5 1267.98,-335.5"/>
</g>
<!-- Node21&#45;&gt;Node26 -->
<g id="edge62" class="edge"><title>Node21&#45;&gt;Node26</title>
<path fill="none" stroke="midnightblue" d="M1172.86,-341.54C1221.06,-346.96 1281.53,-353.758 1331.28,-359.351"/>
<polygon fill="midnightblue" stroke="midnightblue" points="1331.07,-362.85 1341.4,-360.489 1331.86,-355.894 1331.07,-362.85"/>
</g>
<!-- Node23 -->
<g id="node51" class="node"><title>Node23</title>
<a xlink:href="classforcebalance_1_1gmxio_1_1AbInitio__GMX.html#a1d03ae8104bcecacf96884058f2698af" target="_top" xlink:title="Initialization; define a few core concepts.">
<polygon fill="white" stroke="black" points="1683,-303.5 1683,-322.5 1897,-322.5 1897,-303.5 1683,-303.5"/>
<text text-anchor="middle" x="1790" y="-310.5" font-family="Ubuntu-R" font-size="10.00">forcebalance.gmxio.AbInitio_GMX.__init__</text>
</a>
</g>
<!-- Node22&#45;&gt;Node23 -->
<g id="edge56" class="edge"><title>Node22&#45;&gt;Node23</title>
<path fill="none" stroke="midnightblue" d="M1576.13,-324.203C1608.3,-322.51 1641.89,-320.743 1672.63,-319.125"/>
<polygon fill="midnightblue" stroke="midnightblue" points="1673.13,-322.603 1682.93,-318.582 1672.76,-315.613 1673.13,-322.603"/>
</g>
<!-- Node25 -->
<g id="node55" class="node"><title>Node25</title>
<a xlink:href="classforcebalance_1_1baseclass_1_1ForceBalanceBaseClass.html#abaaf4d99b043d41f02fabc41db59252b" target="_top" xlink:title="forcebalance.baseclass.ForceBalanceBaseClass.set_option">
<polygon fill="white" stroke="black" points="1640.5,-341.5 1640.5,-360.5 1939.5,-360.5 1939.5,-341.5 1640.5,-341.5"/>
<text text-anchor="middle" x="1790" y="-348.5" font-family="Ubuntu-R" font-size="10.00">forcebalance.baseclass.ForceBalanceBaseClass.set_option</text>
</a>
</g>
<!-- Node22&#45;&gt;Node25 -->
<g id="edge60" class="edge"><title>Node22&#45;&gt;Node25</title>
<path fill="none" stroke="midnightblue" d="M1576.13,-339.797C1594.03,-340.738 1612.37,-341.704 1630.41,-342.653"/>
<polygon fill="midnightblue" stroke="midnightblue" points="1630.22,-346.148 1640.39,-343.179 1630.59,-339.158 1630.22,-346.148"/>
</g>
<!-- Node24 -->
<g id="node53" class="node"><title>Node24</title>
<a xlink:href="classforcebalance_1_1gmxio_1_1AbInitio__GMX.html#aba138ca4195a1737f2f00bd8c5f3ca07" target="_top" xlink:title="This function parses the GROMACS topology file (.top) which contains a listing of the molecules in th...">
<polygon fill="white" stroke="black" points="1994.5,-303.5 1994.5,-322.5 2241.5,-322.5 2241.5,-303.5 1994.5,-303.5"/>
<text text-anchor="middle" x="2118" y="-310.5" font-family="Ubuntu-R" font-size="10.00">forcebalance.gmxio.AbInitio_GMX.read_topology</text>
</a>
</g>
<!-- Node23&#45;&gt;Node24 -->
<g id="edge58" class="edge"><title>Node23&#45;&gt;Node24</title>
<path fill="none" stroke="midnightblue" d="M1897.29,-313C1925.05,-313 1955.31,-313 1984.26,-313"/>
<polygon fill="midnightblue" stroke="midnightblue" points="1984.43,-316.5 1994.43,-313 1984.43,-309.5 1984.43,-316.5"/>
</g>
<!-- Node28 -->
<g id="node62" class="node"><title>Node28</title>
<a xlink:href="namespaceforcebalance_1_1molecule.html#a0dd31eff88d2bed0884ab21a13261d42" target="_top" xlink:title="ONLY matches integers! If you have a decimal point? None shall pass!">
<polygon fill="white" stroke="black" points="1013.5,-246.5 1013.5,-265.5 1160.5,-265.5 1160.5,-246.5 1013.5,-246.5"/>
<text text-anchor="middle" x="1087" y="-253.5" font-family="Ubuntu-R" font-size="10.00">forcebalance.molecule.isint</text>
</a>
</g>
<!-- Node27&#45;&gt;Node28 -->
<g id="edge68" class="edge"><title>Node27&#45;&gt;Node28</title>
<path fill="none" stroke="midnightblue" d="M906.47,-256C939.529,-256 973.572,-256 1003.01,-256"/>
<polygon fill="midnightblue" stroke="midnightblue" points="1003.22,-259.5 1013.22,-256 1003.22,-252.5 1003.22,-259.5"/>
</g>
<!-- Node29 -->
<g id="node64" class="node"><title>Node29</title>
<a xlink:href="namespaceforcebalance_1_1molecule.html#afe989ffd119568047fc8265b1d329a70" target="_top" xlink:title="Matches ANY number; it can be a decimal, scientific notation, integer, or what have you...">
<polygon fill="white" stroke="black" points="1349,-265.5 1349,-284.5 1505,-284.5 1505,-265.5 1349,-265.5"/>
<text text-anchor="middle" x="1427" y="-272.5" font-family="Ubuntu-R" font-size="10.00">forcebalance.molecule.isfloat</text>
</a>
</g>
<!-- Node27&#45;&gt;Node29 -->
<g id="edge72" class="edge"><title>Node27&#45;&gt;Node29</title>
<path fill="none" stroke="midnightblue" d="M835.426,-265.516C868.008,-269.282 906.854,-273.15 942,-275 1080.58,-282.294 1241.8,-280.177 1338.77,-277.756"/>
<polygon fill="midnightblue" stroke="midnightblue" points="1338.91,-281.253 1348.81,-277.498 1338.73,-274.255 1338.91,-281.253"/>
</g>
<!-- Node30 -->
<g id="node67" class="node"><title>Node30</title>
<a xlink:href="classforcebalance_1_1tinkerio_1_1AbInitio__TINKER.html#aafbf91f1422d7b8f65a4aa588d1c6e18" target="_top" xlink:title="forcebalance.tinkerio.AbInitio_TINKER.energy_driver_all">
<polygon fill="white" stroke="black" points="948.5,-190.5 948.5,-209.5 1225.5,-209.5 1225.5,-190.5 948.5,-190.5"/>
<text text-anchor="middle" x="1087" y="-197.5" font-family="Ubuntu-R" font-size="10.00">forcebalance.tinkerio.AbInitio_TINKER.energy_driver_all</text>
</a>
</g>
<!-- Node27&#45;&gt;Node30 -->
<g id="edge74" class="edge"><title>Node27&#45;&gt;Node30</title>
<path fill="none" stroke="midnightblue" d="M817.329,-246.437C873.711,-236.692 961.126,-221.583 1020.83,-211.264"/>
<polygon fill="midnightblue" stroke="midnightblue" points="1021.64,-214.676 1030.9,-209.524 1020.45,-207.778 1021.64,-214.676"/>
</g>
<!-- Node28&#45;&gt;Node29 -->
<g id="edge70" class="edge"><title>Node28&#45;&gt;Node29</title>
<path fill="none" stroke="midnightblue" d="M1160.51,-260.076C1212.74,-263.012 1283.45,-266.987 1338.77,-270.096"/>
<polygon fill="midnightblue" stroke="midnightblue" points="1338.73,-273.6 1348.91,-270.667 1339.12,-266.611 1338.73,-273.6"/>
</g>
<!-- Node30&#45;&gt;Node30 -->
<g id="edge94" class="edge"><title>Node30&#45;&gt;Node30</title>
<path fill="none" stroke="midnightblue" d="M1037.16,-209.612C1012.13,-218.461 1028.74,-228 1087,-228 1135.25,-228 1154.93,-221.458 1146.06,-214.184"/>
<polygon fill="midnightblue" stroke="midnightblue" points="1147.35,-210.92 1136.84,-209.612 1144.24,-217.191 1147.35,-210.92"/>
</g>
<!-- Node30&#45;&gt;Node31 -->
<g id="edge76" class="edge"><title>Node30&#45;&gt;Node31</title>
<path fill="none" stroke="midnightblue" d="M1130.47,-190.452C1192.27,-176.554 1306.92,-150.775 1373.8,-135.737"/>
<polygon fill="midnightblue" stroke="midnightblue" points="1374.72,-139.118 1383.71,-133.509 1373.18,-132.289 1374.72,-139.118"/>
</g>
<!-- Node34 -->
<g id="node76" class="node"><title>Node34</title>
<a xlink:href="classforcebalance_1_1openmmio_1_1Interaction__OpenMM.html#a535ff72686dc66b91f5dda007e252189" target="_top" xlink:title="forcebalance.openmmio.Interaction_OpenMM.energy_driver_all">
<polygon fill="white" stroke="black" points="1268,-190.5 1268,-209.5 1586,-209.5 1586,-190.5 1268,-190.5"/>
<text text-anchor="middle" x="1427" y="-197.5" font-family="Ubuntu-R" font-size="10.00">forcebalance.openmmio.Interaction_OpenMM.energy_driver_all</text>
</a>
</g>
<!-- Node30&#45;&gt;Node34 -->
<g id="edge84" class="edge"><title>Node30&#45;&gt;Node34</title>
<path fill="none" stroke="midnightblue" d="M1225.97,-200C1236.41,-200 1247.02,-200 1257.62,-200"/>
<polygon fill="midnightblue" stroke="midnightblue" points="1257.78,-203.5 1267.78,-200 1257.78,-196.5 1257.78,-203.5"/>
</g>
<!-- Node32 -->
<g id="node71" class="node"><title>Node32</title>
<a xlink:href="classforcebalance_1_1tinkerio_1_1AbInitio__TINKER.html#adeddb898c79da3df601bc742bc2c2be7" target="_top" xlink:title="Initialization; define a few core concepts.">
<polygon fill="white" stroke="black" points="1674.5,-114.5 1674.5,-133.5 1905.5,-133.5 1905.5,-114.5 1674.5,-114.5"/>
<text text-anchor="middle" x="1790" y="-121.5" font-family="Ubuntu-R" font-size="10.00">forcebalance.tinkerio.AbInitio_TINKER.__init__</text>
</a>
</g>
<!-- Node31&#45;&gt;Node32 -->
<g id="edge78" class="edge"><title>Node31&#45;&gt;Node32</title>
<path fill="none" stroke="midnightblue" d="M1580.05,-124C1608.07,-124 1637.03,-124 1664.14,-124"/>
<polygon fill="midnightblue" stroke="midnightblue" points="1664.43,-127.5 1674.43,-124 1664.43,-120.5 1664.43,-127.5"/>
</g>
<!-- Node33 -->
<g id="node73" class="node"><title>Node33</title>
<a xlink:href="classforcebalance_1_1tinkerio_1_1AbInitio__TINKER.html#a4f0decc929da6183f1d0d6229fc9733d" target="_top" xlink:title="Prepare the temporary directory, by default does nothing.">
<polygon fill="white" stroke="black" points="1634.5,-152.5 1634.5,-171.5 1945.5,-171.5 1945.5,-152.5 1634.5,-152.5"/>
<text text-anchor="middle" x="1790" y="-159.5" font-family="Ubuntu-R" font-size="10.00">forcebalance.tinkerio.AbInitio_TINKER.prepare_temp_directory</text>
</a>
</g>
<!-- Node31&#45;&gt;Node33 -->
<g id="edge80" class="edge"><title>Node31&#45;&gt;Node33</title>
<path fill="none" stroke="midnightblue" d="M1518.63,-133.54C1570.33,-138.982 1635.24,-145.815 1688.5,-151.421"/>
<polygon fill="midnightblue" stroke="midnightblue" points="1688.33,-154.923 1698.65,-152.489 1689.07,-147.961 1688.33,-154.923"/>
</g>
<!-- Node33&#45;&gt;Node27 -->
<g id="edge82" class="edge"><title>Node33&#45;&gt;Node27</title>
<path fill="none" stroke="midnightblue" d="M1634.06,-158.624C1426.51,-155.282 1069.53,-154.004 942,-181 884.48,-193.176 822.161,-223.349 788.028,-241.497"/>
<polygon fill="midnightblue" stroke="midnightblue" points="786.315,-238.444 779.175,-246.272 789.638,-244.605 786.315,-238.444"/>
</g>
<!-- Node34&#45;&gt;Node34 -->
<g id="edge92" class="edge"><title>Node34&#45;&gt;Node34</title>
<path fill="none" stroke="midnightblue" d="M1375.02,-209.612C1348.91,-218.461 1366.24,-228 1427,-228 1477.79,-228 1498.23,-221.334 1488.32,-213.978"/>
<polygon fill="midnightblue" stroke="midnightblue" points="1489.52,-210.675 1478.98,-209.612 1486.56,-217.016 1489.52,-210.675"/>
</g>
<!-- Node35 -->
<g id="node78" class="node"><title>Node35</title>
<a xlink:href="namespaceforcebalance_1_1openmmio.html#a9f9fc56475dbfcc94a40fef6a84ed25f" target="_top" xlink:title="forcebalance.openmmio.UpdateSimulationParameters">
<polygon fill="white" stroke="black" points="1651,-228.5 1651,-247.5 1929,-247.5 1929,-228.5 1651,-228.5"/>
<text text-anchor="middle" x="1790" y="-235.5" font-family="Ubuntu-R" font-size="10.00">forcebalance.openmmio.UpdateSimulationParameters</text>
</a>
</g>
<!-- Node34&#45;&gt;Node35 -->
<g id="edge86" class="edge"><title>Node34&#45;&gt;Node35</title>
<path fill="none" stroke="midnightblue" d="M1518.63,-209.54C1570.33,-214.982 1635.24,-221.815 1688.5,-227.421"/>
<polygon fill="midnightblue" stroke="midnightblue" points="1688.33,-230.923 1698.65,-228.489 1689.07,-223.961 1688.33,-230.923"/>
</g>
<!-- Node37 -->
<g id="node82" class="node"><title>Node37</title>
<a xlink:href="classforcebalance_1_1openmmio_1_1Interaction__OpenMM.html#a9813c1a24af88156703d05ebe57bf707" target="_top" xlink:title="forcebalance.openmmio.Interaction_OpenMM.interaction_driver_all">
<polygon fill="white" stroke="black" points="1622,-190.5 1622,-209.5 1958,-209.5 1958,-190.5 1622,-190.5"/>
<text text-anchor="middle" x="1790" y="-197.5" font-family="Ubuntu-R" font-size="10.00">forcebalance.openmmio.Interaction_OpenMM.interaction_driver_all</text>
</a>
</g>
<!-- Node34&#45;&gt;Node37 -->
<g id="edge90" class="edge"><title>Node34&#45;&gt;Node37</title>
<path fill="none" stroke="midnightblue" d="M1586.08,-200C1594.59,-200 1603.18,-200 1611.75,-200"/>
<polygon fill="midnightblue" stroke="midnightblue" points="1611.81,-203.5 1621.81,-200 1611.81,-196.5 1611.81,-203.5"/>
</g>
<!-- Node36 -->
<g id="node80" class="node"><title>Node36</title>
<a xlink:href="namespaceforcebalance_1_1openmmio.html#aa085594c11e9cd00ce71f5a8ead72b68" target="_top" xlink:title="Create a multiple timestep velocity verlet with velocity randomization (VVVR) integrator.">
<polygon fill="white" stroke="black" points="2003,-228.5 2003,-247.5 2233,-247.5 2233,-228.5 2003,-228.5"/>
<text text-anchor="middle" x="2118" y="-235.5" font-family="Ubuntu-R" font-size="10.00">forcebalance.openmmio.MTSVVVRIntegrator</text>
</a>
</g>
<!-- Node35&#45;&gt;Node36 -->
<g id="edge88" class="edge"><title>Node35&#45;&gt;Node36</title>
<path fill="none" stroke="midnightblue" d="M1929.25,-238C1950.36,-238 1972.02,-238 1992.8,-238"/>
<polygon fill="midnightblue" stroke="midnightblue" points="1992.92,-241.5 2002.92,-238 1992.92,-234.5 1992.92,-241.5"/>
</g>
<!-- Node41 -->
<g id="node93" class="node"><title>Node41</title>
<a xlink:href="classforcebalance_1_1openmmio_1_1AbInitio__OpenMM.html#af5fcee0c4321c7d3024868742a266f7a" target="_top" xlink:title="Initialization; define a few core concepts.">
<polygon fill="white" stroke="black" points="632.5,-0.5 632.5,-19.5 889.5,-19.5 889.5,-0.5 632.5,-0.5"/>
<text text-anchor="middle" x="761" y="-7.5" font-family="Ubuntu-R" font-size="10.00">forcebalance.openmmio.AbInitio_OpenMM.__init__</text>
</a>
</g>
<!-- Node40&#45;&gt;Node41 -->
<g id="edge104" class="edge"><title>Node40&#45;&gt;Node41</title>
<path fill="none" stroke="midnightblue" d="M571.081,-10C588.098,-10 605.263,-10 621.942,-10"/>
<polygon fill="midnightblue" stroke="midnightblue" points="622.258,-13.5001 632.258,-10 622.258,-6.5001 622.258,-13.5001"/>
</g>
</g>
</svg>
