<?xml version="1.0" encoding="UTF-8" standalone="no"?>
<!DOCTYPE svg PUBLIC "-//W3C//DTD SVG 1.1//EN"
 "http://www.w3.org/Graphics/SVG/1.1/DTD/svg11.dtd">
<!-- Generated by graphviz version 2.28.0 (20111219.2309)
 -->
<!-- Title: forcebalance.openmmio.AbInitio_OpenMM.energy_force_driver_all Pages: 1 -->
<svg width="346pt" height="48pt"
 viewBox="0.00 0.00 346.00 48.00" xmlns="http://www.w3.org/2000/svg" xmlns:xlink="http://www.w3.org/1999/xlink">
<g id="graph1" class="graph" transform="scale(1 1) rotate(0) translate(4 44)">
<title>forcebalance.openmmio.AbInitio_OpenMM.energy_force_driver_all</title>
<polygon fill="white" stroke="white" points="-4,5 -4,-44 343,-44 343,5 -4,5"/>
<!-- Node1 -->
<g id="node1" class="node"><title>Node1</title>
<polygon fill="#bfbfbf" stroke="black" points="0,0.5 0,-40.5 152,-40.5 152,0.5 0,0.5"/>
<text text-anchor="start" x="8" y="-28.5" font-family="Ubuntu-R" font-size="10.00">forcebalance.openmmio.Ab</text>
<text text-anchor="start" x="8" y="-17.5" font-family="Ubuntu-R" font-size="10.00">Initio_OpenMM.energy_force</text>
<text text-anchor="middle" x="76" y="-6.5" font-family="Ubuntu-R" font-size="10.00">_driver_all</text>
</g>
<!-- Node2 -->
<g id="node3" class="node"><title>Node2</title>
<a xlink:href="classforcebalance_1_1openmmio_1_1AbInitio__OpenMM.html#af5fcee0c4321c7d3024868742a266f7a" target="_top" xlink:title="forcebalance.openmmio.Ab\lInitio_OpenMM.__init__">
<polygon fill="white" stroke="black" points="188.5,-5 188.5,-35 337.5,-35 337.5,-5 188.5,-5"/>
<text text-anchor="start" x="196.5" y="-23" font-family="Ubuntu-R" font-size="10.00">forcebalance.openmmio.Ab</text>
<text text-anchor="middle" x="263" y="-12" font-family="Ubuntu-R" font-size="10.00">Initio_OpenMM.__init__</text>
</a>
</g>
<!-- Node1&#45;&gt;Node2 -->
<g id="edge2" class="edge"><title>Node1&#45;&gt;Node2</title>
<path fill="none" stroke="midnightblue" d="M152.247,-20C160.803,-20 169.563,-20 178.221,-20"/>
<polygon fill="midnightblue" stroke="midnightblue" points="178.318,-23.5001 188.318,-20 178.318,-16.5001 178.318,-23.5001"/>
</g>
</g>
</svg>
