<?xml version="1.0" encoding="UTF-8" standalone="no"?>
<!DOCTYPE svg PUBLIC "-//W3C//DTD SVG 1.1//EN"
 "http://www.w3.org/Graphics/SVG/1.1/DTD/svg11.dtd">
<!-- Generated by graphviz version 2.40.1 (20161225.0304)
 -->
<!-- Title: src.lipid.Lipid.indicate Pages: 1 -->
<svg width="578pt" height="56pt"
 viewBox="0.00 0.00 578.00 55.50" xmlns="http://www.w3.org/2000/svg" xmlns:xlink="http://www.w3.org/1999/xlink">
<g id="graph0" class="graph" transform="scale(1 1) rotate(0) translate(4 51.5)">
<title>src.lipid.Lipid.indicate</title>
<polygon fill="#ffffff" stroke="transparent" points="-4,4 -4,-51.5 574,-51.5 574,4 -4,4"/>
<!-- Node18 -->
<g id="node1" class="node">
<title>Node18</title>
<polygon fill="#bfbfbf" stroke="#000000" points="0,-.5 0,-19.5 123,-19.5 123,-.5 0,-.5"/>
<text text-anchor="middle" x="61.5" y="-7.5" font-family="Ubuntu-R" font-size="10.00" fill="#000000">src.lipid.Lipid.indicate</text>
</g>
<!-- Node19 -->
<g id="node2" class="node">
<title>Node19</title>
<g id="a_node2"><a xlink:href="namespacesrc_1_1nifty.html#a78476d8a6da41a734762a4e44c339975" target="_top" xlink:title="See documentation for printcool; this is a nice way to print out keys/values in a dictionary...">
<polygon fill="#ffffff" stroke="#000000" points="159,-17 159,-47 260,-47 260,-17 159,-17"/>
<text text-anchor="start" x="167" y="-35" font-family="Ubuntu-R" font-size="10.00" fill="#000000">src.nifty.printcool</text>
<text text-anchor="middle" x="209.5" y="-24" font-family="Ubuntu-R" font-size="10.00" fill="#000000">_dictionary</text>
</a>
</g>
</g>
<!-- Node18&#45;&gt;Node19 -->
<g id="edge1" class="edge">
<title>Node18&#45;&gt;Node19</title>
<path fill="none" stroke="#191970" d="M123.4078,-19.2025C131.7422,-20.4414 140.287,-21.7116 148.6037,-22.9478"/>
<polygon fill="#191970" stroke="#191970" points="148.1997,-26.4262 158.6056,-24.4346 149.229,-19.5022 148.1997,-26.4262"/>
</g>
<!-- Node20 -->
<g id="node3" class="node">
<title>Node20</title>
<g id="a_node3"><a xlink:href="namespacesrc_1_1nifty.html#a9bda70a78d0f5d31e10dfffaf85803c9" target="_top" xlink:title="Cool&#45;looking printout for slick formatting of output. ">
<polygon fill="#ffffff" stroke="#000000" points="296,-.5 296,-19.5 397,-19.5 397,-.5 296,-.5"/>
<text text-anchor="middle" x="346.5" y="-7.5" font-family="Ubuntu-R" font-size="10.00" fill="#000000">src.nifty.printcool</text>
</a>
</g>
</g>
<!-- Node18&#45;&gt;Node20 -->
<g id="edge4" class="edge">
<title>Node18&#45;&gt;Node20</title>
<path fill="none" stroke="#191970" d="M123.1302,-8.5444C135.0316,-8.3174 147.4031,-8.1189 159,-8 203.8865,-7.5397 215.1141,-7.4812 260,-8 268.3128,-8.0961 277.0741,-8.2441 285.7015,-8.4171"/>
<polygon fill="#191970" stroke="#191970" points="285.6608,-11.9169 295.7328,-8.6301 285.8094,-4.9185 285.6608,-11.9169"/>
</g>
<!-- Node19&#45;&gt;Node20 -->
<g id="edge2" class="edge">
<title>Node19&#45;&gt;Node20</title>
<path fill="none" stroke="#191970" d="M260.1245,-23.8705C268.4519,-22.5333 277.1582,-21.1352 285.7026,-19.7631"/>
<polygon fill="#191970" stroke="#191970" points="286.3077,-23.2109 295.6262,-18.1695 285.1977,-16.2994 286.3077,-23.2109"/>
</g>
<!-- Node21 -->
<g id="node4" class="node">
<title>Node21</title>
<g id="a_node4"><a xlink:href="namespacesrc_1_1nifty.html#a6ae2951ba2a22420a11abda6be7e5454" target="_top" xlink:title="src.nifty.warn_press_key">
<polygon fill="#ffffff" stroke="#000000" points="433,-.5 433,-19.5 570,-19.5 570,-.5 433,-.5"/>
<text text-anchor="middle" x="501.5" y="-7.5" font-family="Ubuntu-R" font-size="10.00" fill="#000000">src.nifty.warn_press_key</text>
</a>
</g>
</g>
<!-- Node20&#45;&gt;Node21 -->
<g id="edge3" class="edge">
<title>Node20&#45;&gt;Node21</title>
<path fill="none" stroke="#191970" d="M397.2528,-10C405.4389,-10 414.0789,-10 422.7399,-10"/>
<polygon fill="#191970" stroke="#191970" points="422.8908,-13.5001 432.8908,-10 422.8907,-6.5001 422.8908,-13.5001"/>
</g>
</g>
</svg>
