<?xml version="1.0" encoding="UTF-8" standalone="no"?>
<!DOCTYPE svg PUBLIC "-//W3C//DTD SVG 1.1//EN"
 "http://www.w3.org/Graphics/SVG/1.1/DTD/svg11.dtd">
<!-- Generated by graphviz version 2.28.0 (20111219.2309)
 -->
<!-- Title: G Pages: 1 -->
<svg width="3212pt" height="427pt"
 viewBox="0.00 0.00 3212.00 426.74" xmlns="http://www.w3.org/2000/svg" xmlns:xlink="http://www.w3.org/1999/xlink">
<g id="graph1" class="graph" transform="scale(1 1) rotate(0) translate(4 422.738)">
<title>G</title>
<polygon fill="white" stroke="white" points="-4,5 -4,-422.738 3209,-422.738 3209,5 -4,5"/>
<!-- Node1 -->
<g id="node1" class="node"><title>Node1</title>
<polygon fill="#bfbfbf" stroke="black" points="0,-48.2376 0,-67.2376 182,-67.2376 182,-48.2376 0,-48.2376"/>
<text text-anchor="middle" x="91" y="-55.2376" font-family="Ubuntu-R" font-size="10.00">forcebalance.forcefield.FF.addff_txt</text>
</g>
<!-- Node2 -->
<g id="node3" class="node"><title>Node2</title>
<a xlink:href="namespaceforcebalance_1_1nifty.html#abb8f59044961a12588e0653c2baa8b01" target="_top" xlink:title="forcebalance.nifty.warn_press_key">
<polygon fill="white" stroke="black" points="1878.5,-105.238 1878.5,-124.238 2057.5,-124.238 2057.5,-105.238 1878.5,-105.238"/>
<text text-anchor="middle" x="1968" y="-112.238" font-family="Ubuntu-R" font-size="10.00">forcebalance.nifty.warn_press_key</text>
</a>
</g>
<!-- Node1&#45;&gt;Node2 -->
<g id="edge2" class="edge"><title>Node1&#45;&gt;Node2</title>
<path fill="none" stroke="midnightblue" d="M136.604,-48.197C216.482,-31.9705 389.402,-0.737556 537,-0.737556 537,-0.737556 537,-0.737556 1497,-0.737556 1647.73,-0.737556 1690.72,8.0627 1834,-38.7376 1876.55,-52.6371 1920.65,-81.1163 1945.86,-98.9926"/>
<polygon fill="midnightblue" stroke="midnightblue" points="1944.1,-102.038 1954.26,-105.052 1948.2,-96.3619 1944.1,-102.038"/>
</g>
<!-- Node4 -->
<g id="node7" class="node"><title>Node4</title>
<a xlink:href="classforcebalance_1_1forcefield_1_1FF.html#a3af07734a2378364ed533e2853ee6b82" target="_top" xlink:title="Assign physical parameter values to the &#39;pvals0&#39; array.">
<polygon fill="white" stroke="black" points="444,-143.238 444,-162.238 632,-162.238 632,-143.238 444,-143.238"/>
<text text-anchor="middle" x="538" y="-150.238" font-family="Ubuntu-R" font-size="10.00">forcebalance.forcefield.FF.assign_p0</text>
</a>
</g>
<!-- Node1&#45;&gt;Node4 -->
<g id="edge6" class="edge"><title>Node1&#45;&gt;Node4</title>
<path fill="none" stroke="midnightblue" d="M120.267,-67.2912C145.636,-75.618 184.002,-87.6025 218,-95.7376 300.189,-115.404 395.758,-131.616 460.707,-141.657"/>
<polygon fill="midnightblue" stroke="midnightblue" points="460.446,-145.157 470.861,-143.215 461.508,-138.238 460.446,-145.157"/>
</g>
<!-- Node6 -->
<g id="node11" class="node"><title>Node6</title>
<a xlink:href="classforcebalance_1_1forcefield_1_1FF.html#a2c9cda9adb5a6446fbccfa7b35f8dff5" target="_top" xlink:title="Record the locations of a parameter in a txt file; [[file name, line number, field number...">
<polygon fill="white" stroke="black" points="440.5,-29.2376 440.5,-48.2376 635.5,-48.2376 635.5,-29.2376 440.5,-29.2376"/>
<text text-anchor="middle" x="538" y="-36.2376" font-family="Ubuntu-R" font-size="10.00">forcebalance.forcefield.FF.assign_field</text>
</a>
</g>
<!-- Node1&#45;&gt;Node6 -->
<g id="edge10" class="edge"><title>Node1&#45;&gt;Node6</title>
<path fill="none" stroke="midnightblue" d="M182.052,-53.8926C253.753,-50.8312 354.305,-46.538 430.089,-43.3023"/>
<polygon fill="midnightblue" stroke="midnightblue" points="430.3,-46.7966 440.142,-42.8731 430.001,-39.8029 430.3,-46.7966"/>
</g>
<!-- Node8 -->
<g id="node15" class="node"><title>Node8</title>
<a xlink:href="classforcebalance_1_1forcefield_1_1FF.html#aaed8b2b725141c301f58016c80acec27" target="_top" xlink:title="Parse an XML force field file and create important instance variables.">
<polygon fill="white" stroke="black" points="218,-67.2376 218,-86.2376 404,-86.2376 404,-67.2376 218,-67.2376"/>
<text text-anchor="middle" x="311" y="-74.2376" font-family="Ubuntu-R" font-size="10.00">forcebalance.forcefield.FF.addff_xml</text>
</a>
</g>
<!-- Node1&#45;&gt;Node8 -->
<g id="edge14" class="edge"><title>Node1&#45;&gt;Node8</title>
<path fill="none" stroke="midnightblue" d="M182.243,-65.6027C190.57,-66.3285 199.048,-67.0675 207.475,-67.8019"/>
<polygon fill="midnightblue" stroke="midnightblue" points="207.448,-71.3127 217.714,-68.6943 208.055,-64.3391 207.448,-71.3127"/>
</g>
<!-- Node3 -->
<g id="node5" class="node"><title>Node3</title>
<a xlink:href="namespaceforcebalance_1_1nifty.html#a2fc81730e7efa7d138dd86f733507bfc" target="_top" xlink:title="Similar to the bultin function map().">
<polygon fill="white" stroke="black" points="2112,-105.238 2112,-124.238 2294,-124.238 2294,-105.238 2112,-105.238"/>
<text text-anchor="middle" x="2203" y="-112.238" font-family="Ubuntu-R" font-size="10.00">forcebalance.nifty.concurrent_map</text>
</a>
</g>
<!-- Node2&#45;&gt;Node3 -->
<g id="edge4" class="edge"><title>Node2&#45;&gt;Node3</title>
<path fill="none" stroke="midnightblue" d="M2057.75,-114.738C2072.17,-114.738 2087.19,-114.738 2101.86,-114.738"/>
<polygon fill="midnightblue" stroke="midnightblue" points="2101.95,-118.238 2111.95,-114.738 2101.95,-111.238 2101.95,-118.238"/>
</g>
<!-- Node5 -->
<g id="node9" class="node"><title>Node5</title>
<a xlink:href="classforcebalance_1_1forcefield_1_1FF.html#a8e7047c4b41a755c24996c9e1619df0b" target="_top" xlink:title="forcebalance.forcefield.FF.__eq__">
<polygon fill="white" stroke="black" points="690.5,-295.238 690.5,-314.238 863.5,-314.238 863.5,-295.238 690.5,-295.238"/>
<text text-anchor="middle" x="777" y="-302.238" font-family="Ubuntu-R" font-size="10.00">forcebalance.forcefield.FF.__eq__</text>
</a>
</g>
<!-- Node4&#45;&gt;Node5 -->
<g id="edge8" class="edge"><title>Node4&#45;&gt;Node5</title>
<path fill="none" stroke="midnightblue" d="M546.118,-162.581C564.192,-186.805 614.519,-249.595 672,-280.738 680.798,-285.504 690.512,-289.328 700.363,-292.394"/>
<polygon fill="midnightblue" stroke="midnightblue" points="699.656,-295.832 710.232,-295.215 701.579,-289.101 699.656,-295.832"/>
</g>
<!-- Node7 -->
<g id="node13" class="node"><title>Node7</title>
<a xlink:href="namespaceforcebalance_1_1forcefield.html#ab1a855bace20dd5e45928467e2a133f1" target="_top" xlink:title="This function takes in a dictionary (rsfactors) and a string (termtype).">
<polygon fill="white" stroke="black" points="1643.5,-105.238 1643.5,-124.238 1824.5,-124.238 1824.5,-105.238 1643.5,-105.238"/>
<text text-anchor="middle" x="1734" y="-112.238" font-family="Ubuntu-R" font-size="10.00">forcebalance.forcefield.rs_override</text>
</a>
</g>
<!-- Node6&#45;&gt;Node7 -->
<g id="edge12" class="edge"><title>Node6&#45;&gt;Node7</title>
<path fill="none" stroke="midnightblue" d="M635.699,-44.8926C858.645,-59.0835 1406.9,-93.9806 1633.01,-108.373"/>
<polygon fill="midnightblue" stroke="midnightblue" points="1633,-111.88 1643.2,-109.022 1633.45,-104.894 1633,-111.88"/>
</g>
<!-- Node8&#45;&gt;Node2 -->
<g id="edge20" class="edge"><title>Node8&#45;&gt;Node2</title>
<path fill="none" stroke="midnightblue" d="M404.113,-71.2323C581.686,-60.701 959.192,-38.7376 1019,-38.7376 1019,-38.7376 1019,-38.7376 1497,-38.7376 1647.63,-38.7376 1686.35,-44.9177 1834,-74.7376 1867.43,-81.4886 1904.51,-92.989 1931.01,-101.93"/>
<polygon fill="midnightblue" stroke="midnightblue" points="1930.03,-105.292 1940.62,-105.217 1932.29,-98.6689 1930.03,-105.292"/>
</g>
<!-- Node8&#45;&gt;Node4 -->
<g id="edge16" class="edge"><title>Node8&#45;&gt;Node4</title>
<path fill="none" stroke="midnightblue" d="M331.863,-86.2443C362.18,-100.641 418.719,-127.01 440,-133.738 448.712,-136.492 457.995,-138.922 467.236,-141.044"/>
<polygon fill="midnightblue" stroke="midnightblue" points="466.701,-144.51 477.218,-143.226 468.196,-137.671 466.701,-144.51"/>
</g>
<!-- Node8&#45;&gt;Node6 -->
<g id="edge18" class="edge"><title>Node8&#45;&gt;Node6</title>
<path fill="none" stroke="midnightblue" d="M368.487,-67.1976C399.379,-61.9802 437.837,-55.485 470.21,-50.0176"/>
<polygon fill="midnightblue" stroke="midnightblue" points="471.213,-53.3979 480.49,-48.2814 470.047,-46.4957 471.213,-53.3979"/>
</g>
<!-- Node9 -->
<g id="node20" class="node"><title>Node9</title>
<a xlink:href="classforcebalance_1_1forcefield_1_1FF.html#aecd595ddb369aedd7009e6756276ffc5" target="_top" xlink:title="Create a new force field using provided parameter values.">
<polygon fill="white" stroke="black" points="454.5,-105.238 454.5,-124.238 621.5,-124.238 621.5,-105.238 454.5,-105.238"/>
<text text-anchor="middle" x="538" y="-112.238" font-family="Ubuntu-R" font-size="10.00">forcebalance.forcefield.FF.make</text>
</a>
</g>
<!-- Node8&#45;&gt;Node9 -->
<g id="edge22" class="edge"><title>Node8&#45;&gt;Node9</title>
<path fill="none" stroke="midnightblue" d="M368.487,-86.2775C399.379,-91.4949 437.837,-97.9901 470.21,-103.458"/>
<polygon fill="midnightblue" stroke="midnightblue" points="470.047,-106.979 480.49,-105.194 471.213,-100.077 470.047,-106.979"/>
</g>
<!-- Node9&#45;&gt;Node2 -->
<g id="edge92" class="edge"><title>Node9&#45;&gt;Node2</title>
<path fill="none" stroke="midnightblue" d="M621.573,-107.523C755.046,-96.502 1026.54,-76.7376 1257,-76.7376 1257,-76.7376 1257,-76.7376 1497,-76.7376 1647.02,-76.7376 1684.72,-80.894 1834,-95.7376 1854.94,-97.8201 1877.65,-100.795 1898.27,-103.775"/>
<polygon fill="midnightblue" stroke="midnightblue" points="1897.8,-107.244 1908.21,-105.234 1898.82,-100.318 1897.8,-107.244"/>
</g>
<!-- Node10 -->
<g id="node22" class="node"><title>Node10</title>
<a xlink:href="classforcebalance_1_1forcefield_1_1FF.html#a260031479e0429e497f56987de541930" target="_top" xlink:title="Converts mathematical to physical parameters.">
<polygon fill="white" stroke="black" points="1158,-257.238 1158,-276.238 1358,-276.238 1358,-257.238 1158,-257.238"/>
<text text-anchor="middle" x="1258" y="-264.238" font-family="Ubuntu-R" font-size="10.00">forcebalance.forcefield.FF.create_pvals</text>
</a>
</g>
<!-- Node9&#45;&gt;Node10 -->
<g id="edge24" class="edge"><title>Node9&#45;&gt;Node10</title>
<path fill="none" stroke="midnightblue" d="M618.03,-124.398C624.387,-126.886 630.478,-129.956 636,-133.738 660.722,-150.667 647.372,-173.672 672,-190.738 827.416,-298.427 1062.92,-290.318 1182.17,-277.424"/>
<polygon fill="midnightblue" stroke="midnightblue" points="1182.75,-280.881 1192.29,-276.287 1181.96,-273.925 1182.75,-280.881"/>
</g>
<!-- Node29 -->
<g id="node70" class="node"><title>Node29</title>
<a xlink:href="classforcebalance_1_1forcefield_1_1FF.html#a0540c3df2c0dece9f2711cc04fd958d4" target="_top" xlink:title="forcebalance.forcefield.FF.make_redirect">
<polygon fill="white" stroke="black" points="672.5,-162.238 672.5,-181.238 881.5,-181.238 881.5,-162.238 672.5,-162.238"/>
<text text-anchor="middle" x="777" y="-169.238" font-family="Ubuntu-R" font-size="10.00">forcebalance.forcefield.FF.make_redirect</text>
</a>
</g>
<!-- Node9&#45;&gt;Node29 -->
<g id="edge82" class="edge"><title>Node9&#45;&gt;Node29</title>
<path fill="none" stroke="midnightblue" d="M591.249,-124.26C605.783,-127.102 621.545,-130.365 636,-133.738 668.984,-141.434 705.949,-151.531 733.61,-159.382"/>
<polygon fill="midnightblue" stroke="midnightblue" points="732.778,-162.785 743.355,-162.165 734.7,-156.054 732.778,-162.785"/>
</g>
<!-- Node11 -->
<g id="node24" class="node"><title>Node11</title>
<a xlink:href="namespaceforcebalance_1_1nifty.html#a52114ceee9d55f94d9aecb3e176de294" target="_top" xlink:title="Given any list, array, or matrix, return a single&#45;index array.">
<polygon fill="white" stroke="black" points="1437,-371.238 1437,-390.238 1555,-390.238 1555,-371.238 1437,-371.238"/>
<text text-anchor="middle" x="1496" y="-378.238" font-family="Ubuntu-R" font-size="10.00">forcebalance.nifty.flat</text>
</a>
</g>
<!-- Node10&#45;&gt;Node11 -->
<g id="edge26" class="edge"><title>Node10&#45;&gt;Node11</title>
<path fill="none" stroke="midnightblue" d="M1270.45,-276.464C1292.74,-294.902 1344.15,-335.035 1394,-356.738 1405.1,-361.572 1417.33,-365.521 1429.34,-368.718"/>
<polygon fill="midnightblue" stroke="midnightblue" points="1428.79,-372.188 1439.34,-371.229 1430.49,-365.399 1428.79,-372.188"/>
</g>
<!-- Node12 -->
<g id="node26" class="node"><title>Node12</title>
<a xlink:href="namespaceforcebalance_1_1nifty.html#a4c82187e92dfeb8a159f4aa44b501c40" target="_top" xlink:title="Invert a matrix using singular value decomposition.">
<polygon fill="white" stroke="black" points="1658,-295.238 1658,-314.238 1810,-314.238 1810,-295.238 1658,-295.238"/>
<text text-anchor="middle" x="1734" y="-302.238" font-family="Ubuntu-R" font-size="10.00">forcebalance.nifty.invert_svd</text>
</a>
</g>
<!-- Node10&#45;&gt;Node12 -->
<g id="edge50" class="edge"><title>Node10&#45;&gt;Node12</title>
<path fill="none" stroke="midnightblue" d="M1319.02,-276.284C1342.37,-279.71 1369.38,-283.32 1394,-285.738 1480.07,-294.191 1578.83,-299.196 1647.47,-301.928"/>
<polygon fill="midnightblue" stroke="midnightblue" points="1647.67,-305.438 1657.8,-302.331 1647.94,-298.444 1647.67,-305.438"/>
</g>
<!-- Node15 -->
<g id="node33" class="node"><title>Node15</title>
<a xlink:href="namespaceforcebalance_1_1nifty.html#afb3f205bce4984856e766af7e9fdaca8" target="_top" xlink:title="Given any list, array, or matrix, return a 1&#45;column matrix.">
<polygon fill="white" stroke="black" points="2532,-314.238 2532,-333.238 2648,-333.238 2648,-314.238 2532,-314.238"/>
<text text-anchor="middle" x="2590" y="-321.238" font-family="Ubuntu-R" font-size="10.00">forcebalance.nifty.col</text>
</a>
</g>
<!-- Node10&#45;&gt;Node15 -->
<g id="edge42" class="edge"><title>Node10&#45;&gt;Node15</title>
<path fill="none" stroke="midnightblue" d="M1286.84,-276.309C1313.89,-285.247 1356.3,-298.293 1394,-305.738 1542.69,-335.101 1581.44,-342.738 1733,-342.738 1733,-342.738 1733,-342.738 2204,-342.738 2315.6,-342.738 2445.18,-334.675 2521.95,-329.054"/>
<polygon fill="midnightblue" stroke="midnightblue" points="2522.25,-332.541 2531.97,-328.313 2521.74,-325.561 2522.25,-332.541"/>
</g>
<!-- Node16 -->
<g id="node38" class="node"><title>Node16</title>
<a xlink:href="classforcebalance_1_1forcefield_1_1FF.html#ae5fba4d3e22f210632ead3653e6e12dd" target="_top" xlink:title="Converts physical to mathematical parameters.">
<polygon fill="white" stroke="black" points="1394,-257.238 1394,-276.238 1598,-276.238 1598,-257.238 1394,-257.238"/>
<text text-anchor="middle" x="1496" y="-264.238" font-family="Ubuntu-R" font-size="10.00">forcebalance.forcefield.FF.create_mvals</text>
</a>
</g>
<!-- Node10&#45;&gt;Node16 -->
<g id="edge44" class="edge"><title>Node10&#45;&gt;Node16</title>
<path fill="none" stroke="midnightblue" d="M1358.06,-266.738C1366.58,-266.738 1375.24,-266.738 1383.85,-266.738"/>
<polygon fill="midnightblue" stroke="midnightblue" points="1383.92,-270.238 1393.92,-266.738 1383.92,-263.238 1383.92,-270.238"/>
</g>
<!-- Node19 -->
<g id="node45" class="node"><title>Node19</title>
<a xlink:href="classforcebalance_1_1forcefield_1_1FF.html#a88715f96ff8e14c3c83b4f976ad147b4" target="_top" xlink:title="Create the rescaling factors for the coordinate transformation in parameter space.">
<polygon fill="white" stroke="black" points="1408,-200.238 1408,-219.238 1584,-219.238 1584,-200.238 1408,-200.238"/>
<text text-anchor="middle" x="1496" y="-207.238" font-family="Ubuntu-R" font-size="10.00">forcebalance.forcefield.FF.rsmake</text>
</a>
</g>
<!-- Node10&#45;&gt;Node19 -->
<g id="edge52" class="edge"><title>Node10&#45;&gt;Node19</title>
<path fill="none" stroke="midnightblue" d="M1298.5,-257.197C1338.92,-247.436 1401.82,-232.243 1445.53,-221.687"/>
<polygon fill="midnightblue" stroke="midnightblue" points="1446.47,-225.059 1455.37,-219.309 1444.83,-218.255 1446.47,-225.059"/>
</g>
<!-- Node11&#45;&gt;Node12 -->
<g id="edge28" class="edge"><title>Node11&#45;&gt;Node12</title>
<path fill="none" stroke="midnightblue" d="M1526.89,-371.112C1569.27,-357.464 1646.88,-332.47 1693.83,-317.353"/>
<polygon fill="midnightblue" stroke="midnightblue" points="1694.91,-320.682 1703.35,-314.285 1692.76,-314.019 1694.91,-320.682"/>
</g>
<!-- Node12&#45;&gt;Node2 -->
<g id="edge40" class="edge"><title>Node12&#45;&gt;Node2</title>
<path fill="none" stroke="midnightblue" d="M1810.45,-299.297C1819.08,-296.164 1827.2,-291.788 1834,-285.738 1873.69,-250.413 1836.89,-213.295 1870,-171.738 1885.66,-152.087 1910.07,-137.793 1930.48,-128.434"/>
<polygon fill="midnightblue" stroke="midnightblue" points="1932.07,-131.562 1939.83,-124.357 1929.27,-125.146 1932.07,-131.562"/>
</g>
<!-- Node13 -->
<g id="node28" class="node"><title>Node13</title>
<a xlink:href="namespaceforcebalance_1_1nifty.html#aa9fb9c7c65231eca50a7afc04f489b64" target="_top" xlink:title="forcebalance.nifty.get_least_squares">
<polygon fill="white" stroke="black" points="1872.5,-371.238 1872.5,-390.238 2063.5,-390.238 2063.5,-371.238 1872.5,-371.238"/>
<text text-anchor="middle" x="1968" y="-378.238" font-family="Ubuntu-R" font-size="10.00">forcebalance.nifty.get_least_squares</text>
</a>
</g>
<!-- Node12&#45;&gt;Node13 -->
<g id="edge30" class="edge"><title>Node12&#45;&gt;Node13</title>
<path fill="none" stroke="midnightblue" d="M1764.38,-314.363C1805.96,-327.983 1882.02,-352.9 1928.2,-368.027"/>
<polygon fill="midnightblue" stroke="midnightblue" points="1927.26,-371.403 1937.86,-371.19 1929.44,-364.751 1927.26,-371.403"/>
</g>
<!-- Node12&#45;&gt;Node15 -->
<g id="edge36" class="edge"><title>Node12&#45;&gt;Node15</title>
<path fill="none" stroke="midnightblue" d="M1810.04,-306.407C1974.52,-310.067 2364.65,-318.746 2521.74,-322.241"/>
<polygon fill="midnightblue" stroke="midnightblue" points="2521.67,-325.74 2531.75,-322.464 2521.83,-318.742 2521.67,-325.74"/>
</g>
<!-- Node13&#45;&gt;Node11 -->
<g id="edge32" class="edge"><title>Node13&#45;&gt;Node11</title>
<path fill="none" stroke="midnightblue" d="M1872.49,-380.738C1781.49,-380.738 1646.1,-380.738 1565.18,-380.738"/>
<polygon fill="midnightblue" stroke="midnightblue" points="1565.1,-377.238 1555.1,-380.738 1565.1,-384.238 1565.1,-377.238"/>
</g>
<!-- Node14 -->
<g id="node31" class="node"><title>Node14</title>
<a xlink:href="namespaceforcebalance_1_1nifty.html#ad5ca60565c864b4245a8212fe9d92e10" target="_top" xlink:title="Compute the (cross) statistical inefficiency of (two) timeseries.">
<polygon fill="white" stroke="black" points="2102.5,-371.238 2102.5,-390.238 2303.5,-390.238 2303.5,-371.238 2102.5,-371.238"/>
<text text-anchor="middle" x="2203" y="-378.238" font-family="Ubuntu-R" font-size="10.00">forcebalance.nifty.statisticalInefficiency</text>
</a>
</g>
<!-- Node13&#45;&gt;Node14 -->
<g id="edge34" class="edge"><title>Node13&#45;&gt;Node14</title>
<path fill="none" stroke="midnightblue" d="M2063.77,-380.738C2073.11,-380.738 2082.65,-380.738 2092.13,-380.738"/>
<polygon fill="midnightblue" stroke="midnightblue" points="2092.38,-384.238 2102.38,-380.738 2092.38,-377.238 2092.38,-384.238"/>
</g>
<!-- Node15&#45;&gt;Node11 -->
<g id="edge38" class="edge"><title>Node15&#45;&gt;Node11</title>
<path fill="none" stroke="midnightblue" d="M2566.48,-333.369C2507.9,-357.521 2345.48,-418.738 2204,-418.738 1967,-418.738 1967,-418.738 1967,-418.738 1823.59,-418.738 1656.36,-400.943 1565.07,-389.708"/>
<polygon fill="midnightblue" stroke="midnightblue" points="1565.48,-386.232 1555.13,-388.473 1564.62,-393.179 1565.48,-386.232"/>
</g>
<!-- Node17 -->
<g id="node40" class="node"><title>Node17</title>
<a xlink:href="namespaceforcebalance_1_1molecule.html#a0dd31eff88d2bed0884ab21a13261d42" target="_top" xlink:title="ONLY matches integers! If you have a decimal point? None shall pass!">
<polygon fill="white" stroke="black" points="1660.5,-257.238 1660.5,-276.238 1807.5,-276.238 1807.5,-257.238 1660.5,-257.238"/>
<text text-anchor="middle" x="1734" y="-264.238" font-family="Ubuntu-R" font-size="10.00">forcebalance.molecule.isint</text>
</a>
</g>
<!-- Node16&#45;&gt;Node17 -->
<g id="edge46" class="edge"><title>Node16&#45;&gt;Node17</title>
<path fill="none" stroke="midnightblue" d="M1598.11,-266.738C1615.41,-266.738 1633.21,-266.738 1649.97,-266.738"/>
<polygon fill="midnightblue" stroke="midnightblue" points="1650.26,-270.238 1660.26,-266.738 1650.26,-263.238 1650.26,-270.238"/>
</g>
<!-- Node18 -->
<g id="node42" class="node"><title>Node18</title>
<a xlink:href="namespaceforcebalance_1_1molecule.html#afe989ffd119568047fc8265b1d329a70" target="_top" xlink:title="Matches ANY number; it can be a decimal, scientific notation, integer, or what have you...">
<polygon fill="white" stroke="black" points="1890,-257.238 1890,-276.238 2046,-276.238 2046,-257.238 1890,-257.238"/>
<text text-anchor="middle" x="1968" y="-264.238" font-family="Ubuntu-R" font-size="10.00">forcebalance.molecule.isfloat</text>
</a>
</g>
<!-- Node17&#45;&gt;Node18 -->
<g id="edge48" class="edge"><title>Node17&#45;&gt;Node18</title>
<path fill="none" stroke="midnightblue" d="M1807.77,-266.738C1830.56,-266.738 1855.95,-266.738 1879.64,-266.738"/>
<polygon fill="midnightblue" stroke="midnightblue" points="1879.67,-270.238 1889.67,-266.738 1879.67,-263.238 1879.67,-270.238"/>
</g>
<!-- Node19&#45;&gt;Node7 -->
<g id="edge54" class="edge"><title>Node19&#45;&gt;Node7</title>
<path fill="none" stroke="midnightblue" d="M1520.93,-200.106C1563.35,-183.027 1651.82,-147.414 1700,-128.02"/>
<polygon fill="midnightblue" stroke="midnightblue" points="1701.39,-131.235 1709.36,-124.254 1698.78,-124.741 1701.39,-131.235"/>
</g>
<!-- Node20 -->
<g id="node48" class="node"><title>Node20</title>
<a xlink:href="namespaceforcebalance_1_1nifty.html#a11babd62dc7bca389162c6318f9672ca" target="_top" xlink:title="Cool&#45;looking printout for slick formatting of output.">
<polygon fill="white" stroke="black" points="1662,-181.238 1662,-200.238 1806,-200.238 1806,-181.238 1662,-181.238"/>
<text text-anchor="middle" x="1734" y="-188.238" font-family="Ubuntu-R" font-size="10.00">forcebalance.nifty.printcool</text>
</a>
</g>
<!-- Node19&#45;&gt;Node20 -->
<g id="edge56" class="edge"><title>Node19&#45;&gt;Node20</title>
<path fill="none" stroke="midnightblue" d="M1584.21,-202.717C1606.31,-200.937 1629.96,-199.033 1651.76,-197.278"/>
<polygon fill="midnightblue" stroke="midnightblue" points="1652.27,-200.748 1661.96,-196.457 1651.71,-193.771 1652.27,-200.748"/>
</g>
<!-- Node28 -->
<g id="node68" class="node"><title>Node28</title>
<a xlink:href="classforcebalance_1_1forcefield_1_1FF.html#acf0ce8fc4e9fbf5257f93d14d4a4f10f" target="_top" xlink:title="Create the transformation matrix to rescale and rotate the mathematical parameters.">
<polygon fill="white" stroke="black" points="1634.5,-219.238 1634.5,-238.238 1833.5,-238.238 1833.5,-219.238 1634.5,-219.238"/>
<text text-anchor="middle" x="1734" y="-226.238" font-family="Ubuntu-R" font-size="10.00">forcebalance.forcefield.FF.mktransmat</text>
</a>
</g>
<!-- Node19&#45;&gt;Node28 -->
<g id="edge80" class="edge"><title>Node19&#45;&gt;Node28</title>
<path fill="none" stroke="midnightblue" d="M1584.21,-216.758C1597.18,-217.803 1610.69,-218.891 1624.04,-219.966"/>
<polygon fill="midnightblue" stroke="midnightblue" points="1623.96,-223.47 1634.21,-220.784 1624.53,-216.493 1623.96,-223.47"/>
</g>
<!-- Node20&#45;&gt;Node2 -->
<g id="edge58" class="edge"><title>Node20&#45;&gt;Node2</title>
<path fill="none" stroke="midnightblue" d="M1780.2,-181.133C1797.21,-177.167 1816.63,-172.212 1834,-166.738 1869.59,-155.522 1909.31,-139.519 1935.99,-128.235"/>
<polygon fill="midnightblue" stroke="midnightblue" points="1937.38,-131.45 1945.2,-124.309 1934.63,-125.011 1937.38,-131.45"/>
</g>
<!-- Node21 -->
<g id="node51" class="node"><title>Node21</title>
<a xlink:href="namespaceforcebalance_1_1nifty.html#a51180e960742cc7547749fdfb3513ec4" target="_top" xlink:title="See documentation for printcool; this is a nice way to print out keys/values in a dictionary...">
<polygon fill="white" stroke="black" points="1870,-181.238 1870,-200.238 2066,-200.238 2066,-181.238 1870,-181.238"/>
<text text-anchor="middle" x="1968" y="-188.238" font-family="Ubuntu-R" font-size="10.00">forcebalance.nifty.printcool_dictionary</text>
</a>
</g>
<!-- Node20&#45;&gt;Node21 -->
<g id="edge60" class="edge"><title>Node20&#45;&gt;Node21</title>
<path fill="none" stroke="midnightblue" d="M1806.18,-190.738C1823.15,-190.738 1841.64,-190.738 1859.83,-190.738"/>
<polygon fill="midnightblue" stroke="midnightblue" points="1859.89,-194.238 1869.89,-190.738 1859.89,-187.238 1859.89,-194.238"/>
</g>
<!-- Node22 -->
<g id="node53" class="node"><title>Node22</title>
<a xlink:href="namespaceforcebalance_1_1nifty.html#a3f1c7a1af9d35d5d1693074bc6f5497c" target="_top" xlink:title="ONLY matches integers! If you have a decimal point? None shall pass!">
<polygon fill="white" stroke="black" points="2142,-219.238 2142,-238.238 2264,-238.238 2264,-219.238 2142,-219.238"/>
<text text-anchor="middle" x="2203" y="-226.238" font-family="Ubuntu-R" font-size="10.00">forcebalance.nifty.isint</text>
</a>
</g>
<!-- Node21&#45;&gt;Node22 -->
<g id="edge62" class="edge"><title>Node21&#45;&gt;Node22</title>
<path fill="none" stroke="midnightblue" d="M2027.49,-200.278C2059.62,-205.518 2099.66,-212.046 2133.27,-217.528"/>
<polygon fill="midnightblue" stroke="midnightblue" points="2133.05,-221.038 2143.48,-219.194 2134.17,-214.13 2133.05,-221.038"/>
</g>
<!-- Node24 -->
<g id="node57" class="node"><title>Node24</title>
<a xlink:href="namespaceforcebalance_1_1nifty.html#a8e3ef0108b9d37b82ba0dced7c6037ae" target="_top" xlink:title="Matches ANY number; it can be a decimal, scientific notation, what have you CAUTION &#45; this will also ...">
<polygon fill="white" stroke="black" points="2524.5,-219.238 2524.5,-238.238 2655.5,-238.238 2655.5,-219.238 2524.5,-219.238"/>
<text text-anchor="middle" x="2590" y="-226.238" font-family="Ubuntu-R" font-size="10.00">forcebalance.nifty.isfloat</text>
</a>
</g>
<!-- Node21&#45;&gt;Node24 -->
<g id="edge78" class="edge"><title>Node21&#45;&gt;Node24</title>
<path fill="none" stroke="midnightblue" d="M2066.13,-195.992C2133.01,-199.672 2223.91,-204.797 2304,-209.738 2375.44,-214.145 2456.92,-219.622 2514.41,-223.562"/>
<polygon fill="midnightblue" stroke="midnightblue" points="2514.28,-227.061 2524.49,-224.254 2514.76,-220.077 2514.28,-227.061"/>
</g>
<!-- Node23 -->
<g id="node55" class="node"><title>Node23</title>
<a xlink:href="namespaceforcebalance_1_1nifty.html#a09263927eaec9deff283fbf1a820242f" target="_top" xlink:title="Matches things with a decimal only; see isint and isfloat.">
<polygon fill="white" stroke="black" points="2340,-257.238 2340,-276.238 2488,-276.238 2488,-257.238 2340,-257.238"/>
<text text-anchor="middle" x="2414" y="-264.238" font-family="Ubuntu-R" font-size="10.00">forcebalance.nifty.isdecimal</text>
</a>
</g>
<!-- Node22&#45;&gt;Node23 -->
<g id="edge64" class="edge"><title>Node22&#45;&gt;Node23</title>
<path fill="none" stroke="midnightblue" d="M2256.47,-238.278C2285.04,-243.472 2320.58,-249.934 2350.57,-255.386"/>
<polygon fill="midnightblue" stroke="midnightblue" points="2350.04,-258.848 2360.51,-257.194 2351.3,-251.961 2350.04,-258.848"/>
</g>
<!-- Node23&#45;&gt;Node15 -->
<g id="edge76" class="edge"><title>Node23&#45;&gt;Node15</title>
<path fill="none" stroke="midnightblue" d="M2444.12,-276.278C2473.23,-285.814 2518.16,-300.531 2550.26,-311.047"/>
<polygon fill="midnightblue" stroke="midnightblue" points="2549.19,-314.379 2559.78,-314.166 2551.37,-307.727 2549.19,-314.379"/>
</g>
<!-- Node23&#45;&gt;Node24 -->
<g id="edge66" class="edge"><title>Node23&#45;&gt;Node24</title>
<path fill="none" stroke="midnightblue" d="M2458.91,-257.149C2482.18,-252.066 2510.95,-245.782 2535.52,-240.417"/>
<polygon fill="midnightblue" stroke="midnightblue" points="2536.39,-243.811 2545.41,-238.258 2534.89,-236.972 2536.39,-243.811"/>
</g>
<!-- Node24&#45;&gt;Node22 -->
<g id="edge68" class="edge"><title>Node24&#45;&gt;Node22</title>
<path fill="none" stroke="midnightblue" d="M2524.45,-228.738C2455.26,-228.738 2345.77,-228.738 2274.4,-228.738"/>
<polygon fill="midnightblue" stroke="midnightblue" points="2274.16,-225.238 2264.16,-228.738 2274.16,-232.238 2274.16,-225.238"/>
</g>
<!-- Node25 -->
<g id="node60" class="node"><title>Node25</title>
<a xlink:href="namespaceforcebalance_1_1nifty.html#a8d63c8ae9a67c66673a6cf81357f827d" target="_top" xlink:title="Returns a big number if we encounter NaN.">
<polygon fill="white" stroke="black" points="2692,-219.238 2692,-238.238 2844,-238.238 2844,-219.238 2692,-219.238"/>
<text text-anchor="middle" x="2768" y="-226.238" font-family="Ubuntu-R" font-size="10.00">forcebalance.nifty.floatornan</text>
</a>
</g>
<!-- Node24&#45;&gt;Node25 -->
<g id="edge70" class="edge"><title>Node24&#45;&gt;Node25</title>
<path fill="none" stroke="midnightblue" d="M2655.54,-228.738C2664,-228.738 2672.77,-228.738 2681.51,-228.738"/>
<polygon fill="midnightblue" stroke="midnightblue" points="2681.74,-232.238 2691.74,-228.738 2681.74,-225.238 2681.74,-232.238"/>
</g>
<!-- Node26 -->
<g id="node62" class="node"><title>Node26</title>
<a xlink:href="namespaceforcebalance_1_1nifty.html#a6c9727360cdff8f3011a12cc54d0e86e" target="_top" xlink:title="Given any list, array, or matrix, return a 1&#45;row matrix.">
<polygon fill="white" stroke="black" points="2880.5,-219.238 2880.5,-238.238 2999.5,-238.238 2999.5,-219.238 2880.5,-219.238"/>
<text text-anchor="middle" x="2940" y="-226.238" font-family="Ubuntu-R" font-size="10.00">forcebalance.nifty.row</text>
</a>
</g>
<!-- Node25&#45;&gt;Node26 -->
<g id="edge72" class="edge"><title>Node25&#45;&gt;Node26</title>
<path fill="none" stroke="midnightblue" d="M2844.06,-228.738C2852.82,-228.738 2861.72,-228.738 2870.38,-228.738"/>
<polygon fill="midnightblue" stroke="midnightblue" points="2870.43,-232.238 2880.42,-228.738 2870.42,-225.238 2870.43,-232.238"/>
</g>
<!-- Node27 -->
<g id="node64" class="node"><title>Node27</title>
<a xlink:href="namespaceforcebalance_1_1nifty.html#a7676236002c6a65ea7d2e69a09923889" target="_top" xlink:title="Given two vectors vec1 and vec2, project out the component of vec1 that is along the vec2&#45;direction...">
<polygon fill="white" stroke="black" points="3036,-219.238 3036,-238.238 3204,-238.238 3204,-219.238 3036,-219.238"/>
<text text-anchor="middle" x="3120" y="-226.238" font-family="Ubuntu-R" font-size="10.00">forcebalance.nifty.orthogonalize</text>
</a>
</g>
<!-- Node26&#45;&gt;Node27 -->
<g id="edge74" class="edge"><title>Node26&#45;&gt;Node27</title>
<path fill="none" stroke="midnightblue" d="M2999.78,-228.738C3008.07,-228.738 3016.77,-228.738 3025.52,-228.738"/>
<polygon fill="midnightblue" stroke="midnightblue" points="3025.8,-232.238 3035.8,-228.738 3025.8,-225.238 3025.8,-232.238"/>
</g>
<!-- Node29&#45;&gt;Node2 -->
<g id="edge90" class="edge"><title>Node29&#45;&gt;Node2</title>
<path fill="none" stroke="midnightblue" d="M881.67,-165.252C978.656,-159.748 1127.58,-152.738 1257,-152.738 1257,-152.738 1257,-152.738 1497,-152.738 1647.02,-152.738 1684.72,-148.581 1834,-133.738 1854.94,-131.655 1877.65,-128.68 1898.27,-125.7"/>
<polygon fill="midnightblue" stroke="midnightblue" points="1898.82,-129.157 1908.21,-124.241 1897.8,-122.231 1898.82,-129.157"/>
</g>
<!-- Node29&#45;&gt;Node10 -->
<g id="edge84" class="edge"><title>Node29&#45;&gt;Node10</title>
<path fill="none" stroke="midnightblue" d="M809.751,-181.316C837.984,-189.602 880.484,-201.513 918,-209.738 1006.62,-229.166 1109.54,-245.621 1178.52,-255.782"/>
<polygon fill="midnightblue" stroke="midnightblue" points="1178.04,-259.249 1188.44,-257.235 1179.06,-252.323 1178.04,-259.249"/>
</g>
<!-- Node30 -->
<g id="node73" class="node"><title>Node30</title>
<a xlink:href="classforcebalance_1_1forcefield_1_1FF.html#a2515e2361eb460edeab69f3d7742d3d9" target="_top" xlink:title="forcebalance.forcefield.FF.find_spacings">
<polygon fill="white" stroke="black" points="918,-181.238 918,-200.238 1122,-200.238 1122,-181.238 918,-181.238"/>
<text text-anchor="middle" x="1020" y="-188.238" font-family="Ubuntu-R" font-size="10.00">forcebalance.forcefield.FF.find_spacings</text>
</a>
</g>
<!-- Node29&#45;&gt;Node30 -->
<g id="edge86" class="edge"><title>Node29&#45;&gt;Node30</title>
<path fill="none" stroke="midnightblue" d="M881.604,-179.906C890.224,-180.585 898.961,-181.274 907.634,-181.958"/>
<polygon fill="midnightblue" stroke="midnightblue" points="907.532,-185.46 917.776,-182.757 908.082,-178.482 907.532,-185.46"/>
</g>
<!-- Node30&#45;&gt;Node10 -->
<g id="edge88" class="edge"><title>Node30&#45;&gt;Node10</title>
<path fill="none" stroke="midnightblue" d="M1066.85,-200.263C1084.26,-204.237 1104.18,-209.216 1122,-214.738 1158.11,-225.927 1198.43,-241.934 1225.52,-253.226"/>
<polygon fill="midnightblue" stroke="midnightblue" points="1224.3,-256.508 1234.87,-257.155 1227.01,-250.055 1224.3,-256.508"/>
</g>
</g>
</svg>
