<?xml version="1.0" encoding="UTF-8" standalone="no"?>
<!DOCTYPE svg PUBLIC "-//W3C//DTD SVG 1.1//EN"
 "http://www.w3.org/Graphics/SVG/1.1/DTD/svg11.dtd">
<!-- Generated by graphviz version 2.26.3 (20100126.1600)
 -->
<!-- Title: forcebalance.leastsq.LeastSquares.__init__ Pages: 1 -->
<svg width="336pt" height="42pt"
 viewBox="0.00 0.00 336.00 42.00" xmlns="http://www.w3.org/2000/svg" xmlns:xlink="http://www.w3.org/1999/xlink">
<g id="graph1" class="graph" transform="scale(1 1) rotate(0) translate(4 38)">
<title>forcebalance.leastsq.LeastSquares.__init__</title>
<polygon fill="white" stroke="white" points="-4,5 -4,-38 333,-38 333,5 -4,5"/>
<!-- Node1 -->
<g id="node1" class="node"><title>Node1</title>
<polygon fill="#bfbfbf" stroke="black" points="0,-0 0,-34 144,-34 144,-0 0,-0"/>
<text text-anchor="start" x="8" y="-21" font-family="Ubuntu-R" font-size="10.00">forcebalance.leastsq.Least</text>
<text text-anchor="middle" x="72" y="-8" font-family="Ubuntu-R" font-size="10.00">Squares.__init__</text>
</g>
<!-- Node2 -->
<g id="node3" class="node"><title>Node2</title>
<a xlink:href="classforcebalance_1_1BaseClass.html#a73e9a37a7632e79eb99f49bd15aced45" target="_top" xlink:title="forcebalance.BaseClass.set\l_option">
<polygon fill="white" stroke="black" points="180,-0 180,-34 328,-34 328,-0 180,-0"/>
<text text-anchor="start" x="188" y="-21" font-family="Ubuntu-R" font-size="10.00">forcebalance.BaseClass.set</text>
<text text-anchor="middle" x="254" y="-8" font-family="Ubuntu-R" font-size="10.00">_option</text>
</a>
</g>
<!-- Node1&#45;&gt;Node2 -->
<g id="edge2" class="edge"><title>Node1&#45;&gt;Node2</title>
<path fill="none" stroke="midnightblue" d="M144.193,-17C152.518,-17 161.064,-17 169.533,-17"/>
<polygon fill="midnightblue" stroke="midnightblue" points="169.807,-20.5001 179.807,-17 169.806,-13.5001 169.807,-20.5001"/>
</g>
</g>
</svg>
