<?xml version="1.0" encoding="UTF-8" standalone="no"?>
<!DOCTYPE svg PUBLIC "-//W3C//DTD SVG 1.1//EN"
 "http://www.w3.org/Graphics/SVG/1.1/DTD/svg11.dtd">
<!-- Generated by graphviz version 2.28.0 (20111219.2309)
 -->
<!-- Title: G Pages: 1 -->
<svg width="718pt" height="104pt"
 viewBox="0.00 0.00 718.00 104.00" xmlns="http://www.w3.org/2000/svg" xmlns:xlink="http://www.w3.org/1999/xlink">
<g id="graph1" class="graph" transform="scale(1 1) rotate(0) translate(4 100)">
<title>G</title>
<polygon fill="white" stroke="white" points="-4,5 -4,-100 715,-100 715,5 -4,5"/>
<!-- Node1 -->
<g id="node1" class="node"><title>Node1</title>
<polygon fill="#bfbfbf" stroke="black" points="0.5,-57.5 0.5,-76.5 241.5,-76.5 241.5,-57.5 0.5,-57.5"/>
<text text-anchor="middle" x="121" y="-64.5" font-family="Ubuntu-R" font-size="10.00">forcebalance.tinkerio.Moments_TINKER.__init__</text>
</g>
<!-- Node2 -->
<g id="node3" class="node"><title>Node2</title>
<a xlink:href="namespaceforcebalance_1_1nifty.html#ab182a9da2a2f42cf45942fbee6acf9b1" target="_top" xlink:title="forcebalance.nifty.LinkFile">
<polygon fill="white" stroke="black" points="315.5,-76.5 315.5,-95.5 452.5,-95.5 452.5,-76.5 315.5,-76.5"/>
<text text-anchor="middle" x="384" y="-83.5" font-family="Ubuntu-R" font-size="10.00">forcebalance.nifty.LinkFile</text>
</a>
</g>
<!-- Node1&#45;&gt;Node2 -->
<g id="edge2" class="edge"><title>Node1&#45;&gt;Node2</title>
<path fill="none" stroke="midnightblue" d="M241.806,-75.7215C263.26,-77.2833 285.102,-78.8733 304.992,-80.3212"/>
<polygon fill="midnightblue" stroke="midnightblue" points="304.975,-83.8292 315.202,-81.0645 305.483,-76.8476 304.975,-83.8292"/>
</g>
<!-- Node4 -->
<g id="node7" class="node"><title>Node4</title>
<a xlink:href="namespaceforcebalance_1_1tinkerio.html#a9cde7bd64c6f5286c1f33a39211d5a11" target="_top" xlink:title="Copies a TINKER .key file but changes the parameter keyword as necessary to reflect the ForceBalance ...">
<polygon fill="white" stroke="black" points="278,-38.5 278,-57.5 490,-57.5 490,-38.5 278,-38.5"/>
<text text-anchor="middle" x="384" y="-45.5" font-family="Ubuntu-R" font-size="10.00">forcebalance.tinkerio.write_key_with_prm</text>
</a>
</g>
<!-- Node1&#45;&gt;Node4 -->
<g id="edge6" class="edge"><title>Node1&#45;&gt;Node4</title>
<path fill="none" stroke="midnightblue" d="M241.806,-58.2785C250.474,-57.6475 259.206,-57.0118 267.847,-56.3828"/>
<polygon fill="midnightblue" stroke="midnightblue" points="268.221,-59.8649 277.94,-55.648 267.712,-52.8834 268.221,-59.8649"/>
</g>
<!-- Node3 -->
<g id="node5" class="node"><title>Node3</title>
<a xlink:href="namespaceforcebalance_1_1nifty.html#a25efa4d501ad852a234721af18978f7e" target="_top" xlink:title="Remove the file if it exists (doesn&#39;t return an error).">
<polygon fill="white" stroke="black" points="526.5,-76.5 526.5,-95.5 709.5,-95.5 709.5,-76.5 526.5,-76.5"/>
<text text-anchor="middle" x="618" y="-83.5" font-family="Ubuntu-R" font-size="10.00">forcebalance.nifty.remove_if_exists</text>
</a>
</g>
<!-- Node2&#45;&gt;Node3 -->
<g id="edge4" class="edge"><title>Node2&#45;&gt;Node3</title>
<path fill="none" stroke="midnightblue" d="M452.728,-86C472.587,-86 494.744,-86 516.195,-86"/>
<polygon fill="midnightblue" stroke="midnightblue" points="516.322,-89.5001 526.322,-86 516.322,-82.5001 516.322,-89.5001"/>
</g>
<!-- Node5 -->
<g id="node9" class="node"><title>Node5</title>
<a xlink:href="namespaceforcebalance_1_1nifty.html#abb8f59044961a12588e0653c2baa8b01" target="_top" xlink:title="forcebalance.nifty.warn_press_key">
<polygon fill="white" stroke="black" points="528.5,-38.5 528.5,-57.5 707.5,-57.5 707.5,-38.5 528.5,-38.5"/>
<text text-anchor="middle" x="618" y="-45.5" font-family="Ubuntu-R" font-size="10.00">forcebalance.nifty.warn_press_key</text>
</a>
</g>
<!-- Node4&#45;&gt;Node5 -->
<g id="edge8" class="edge"><title>Node4&#45;&gt;Node5</title>
<path fill="none" stroke="midnightblue" d="M490.139,-48C499.373,-48 508.699,-48 517.881,-48"/>
<polygon fill="midnightblue" stroke="midnightblue" points="518.173,-51.5001 528.173,-48 518.173,-44.5001 518.173,-51.5001"/>
</g>
<!-- Node6 -->
<g id="node11" class="node"><title>Node6</title>
<a xlink:href="namespaceforcebalance_1_1tinkerio.html#aa82c424420ad59b6a78b273d6c1fd469" target="_top" xlink:title="Performs in&#45;place modification of a TINKER .key file.">
<polygon fill="white" stroke="black" points="531.5,-0.5 531.5,-19.5 704.5,-19.5 704.5,-0.5 531.5,-0.5"/>
<text text-anchor="middle" x="618" y="-7.5" font-family="Ubuntu-R" font-size="10.00">forcebalance.tinkerio.modify_key</text>
</a>
</g>
<!-- Node4&#45;&gt;Node6 -->
<g id="edge10" class="edge"><title>Node4&#45;&gt;Node6</title>
<path fill="none" stroke="midnightblue" d="M443.244,-38.46C475.235,-33.2201 515.096,-26.6912 548.566,-21.2091"/>
<polygon fill="midnightblue" stroke="midnightblue" points="549.429,-24.6143 558.732,-19.5439 548.298,-17.7064 549.429,-24.6143"/>
</g>
</g>
</svg>
