<?xml version="1.0" encoding="UTF-8" standalone="no"?>
<!DOCTYPE svg PUBLIC "-//W3C//DTD SVG 1.1//EN"
 "http://www.w3.org/Graphics/SVG/1.1/DTD/svg11.dtd">
<!-- Generated by graphviz version 2.40.1 (20161225.0304)
 -->
<!-- Title: src.gmxio.GMX.get_charges Pages: 1 -->
<svg width="1004pt" height="85pt"
 viewBox="0.00 0.00 1004.00 85.00" xmlns="http://www.w3.org/2000/svg" xmlns:xlink="http://www.w3.org/1999/xlink">
<g id="graph0" class="graph" transform="scale(1 1) rotate(0) translate(4 81)">
<title>src.gmxio.GMX.get_charges</title>
<polygon fill="#ffffff" stroke="transparent" points="-4,4 -4,-81 1000,-81 1000,4 -4,4"/>
<!-- Node175 -->
<g id="node1" class="node">
<title>Node175</title>
<polygon fill="#bfbfbf" stroke="#000000" points="0,-38.5 0,-57.5 152,-57.5 152,-38.5 0,-38.5"/>
<text text-anchor="middle" x="76" y="-45.5" font-family="Ubuntu-R" font-size="10.00" fill="#000000">src.gmxio.GMX.get_charges</text>
</g>
<!-- Node176 -->
<g id="node2" class="node">
<title>Node176</title>
<g id="a_node2"><a xlink:href="classsrc_1_1gmxio_1_1GMX.html#a24343e631722ec863df94641493128a9" target="_top" xlink:title="Call gromacs and allow for certain expected warnings. ">
<polygon fill="#ffffff" stroke="#000000" points="188,-57.5 188,-76.5 327,-76.5 327,-57.5 188,-57.5"/>
<text text-anchor="middle" x="257.5" y="-64.5" font-family="Ubuntu-R" font-size="10.00" fill="#000000">src.gmxio.GMX.warngmx</text>
</a>
</g>
</g>
<!-- Node175&#45;&gt;Node176 -->
<g id="edge1" class="edge">
<title>Node175&#45;&gt;Node176</title>
<path fill="none" stroke="#191970" d="M152.1834,-55.9751C160.6901,-56.8656 169.372,-57.7745 177.9197,-58.6693"/>
<polygon fill="#191970" stroke="#191970" points="177.5637,-62.1511 187.8738,-59.7113 178.2926,-55.1891 177.5637,-62.1511"/>
</g>
<!-- Node177 -->
<g id="node3" class="node">
<title>Node177</title>
<g id="a_node3"><a xlink:href="classsrc_1_1gmxio_1_1GMX.html#a9cd8a8dde96ee479107dd2933922235d" target="_top" xlink:title="Call GROMACS; prepend the gmxpath to the call to the GROMACS program. ">
<polygon fill="#ffffff" stroke="#000000" points="363,-38.5 363,-57.5 495,-57.5 495,-38.5 363,-38.5"/>
<text text-anchor="middle" x="429" y="-45.5" font-family="Ubuntu-R" font-size="10.00" fill="#000000">src.gmxio.GMX.callgmx</text>
</a>
</g>
</g>
<!-- Node175&#45;&gt;Node177 -->
<g id="edge9" class="edge">
<title>Node175&#45;&gt;Node177</title>
<path fill="none" stroke="#191970" d="M152.1611,-48C211.4602,-48 293.3863,-48 352.7165,-48"/>
<polygon fill="#191970" stroke="#191970" points="352.7778,-51.5001 362.7778,-48 352.7778,-44.5001 352.7778,-51.5001"/>
</g>
<!-- Node176&#45;&gt;Node177 -->
<g id="edge2" class="edge">
<title>Node176&#45;&gt;Node177</title>
<path fill="none" stroke="#191970" d="M327.2556,-59.272C335.7207,-58.3342 344.4013,-57.3725 352.9516,-56.4252"/>
<polygon fill="#191970" stroke="#191970" points="353.3545,-59.9021 362.9083,-55.3221 352.5837,-52.9446 353.3545,-59.9021"/>
</g>
<!-- Node178 -->
<g id="node4" class="node">
<title>Node178</title>
<g id="a_node4"><a xlink:href="namespacesrc_1_1gmxio.html#a7430b70092fa07b4cad7d894a6ade4f9" target="_top" xlink:title="src.gmxio.rm_gmx_baks">
<polygon fill="#ffffff" stroke="#000000" points="531,-57.5 531,-76.5 668,-76.5 668,-57.5 531,-57.5"/>
<text text-anchor="middle" x="599.5" y="-64.5" font-family="Ubuntu-R" font-size="10.00" fill="#000000">src.gmxio.rm_gmx_baks</text>
</a>
</g>
</g>
<!-- Node177&#45;&gt;Node178 -->
<g id="edge3" class="edge">
<title>Node177&#45;&gt;Node178</title>
<path fill="none" stroke="#191970" d="M495.408,-55.4003C503.6508,-56.3189 512.1411,-57.265 520.5492,-58.202"/>
<polygon fill="#191970" stroke="#191970" points="520.4162,-61.7087 530.7424,-59.3379 521.1915,-54.7518 520.4162,-61.7087"/>
</g>
<!-- Node179 -->
<g id="node5" class="node">
<title>Node179</title>
<g id="a_node5"><a xlink:href="classsrc_1_1gmxio_1_1GMX.html#a3f0267ba817464cc778e6fe4a50e8440" target="_top" xlink:title="src.gmxio.GMX.links">
<polygon fill="#ffffff" stroke="#000000" points="541.5,-19.5 541.5,-38.5 657.5,-38.5 657.5,-19.5 541.5,-19.5"/>
<text text-anchor="middle" x="599.5" y="-26.5" font-family="Ubuntu-R" font-size="10.00" fill="#000000">src.gmxio.GMX.links</text>
</a>
</g>
</g>
<!-- Node177&#45;&gt;Node179 -->
<g id="edge4" class="edge">
<title>Node177&#45;&gt;Node179</title>
<path fill="none" stroke="#191970" d="M495.408,-40.5997C507.1236,-39.2941 519.339,-37.9329 531.1079,-36.6214"/>
<polygon fill="#191970" stroke="#191970" points="531.7608,-40.0704 541.3116,-35.4843 530.9855,-33.1135 531.7608,-40.0704"/>
</g>
<!-- Node180 -->
<g id="node6" class="node">
<title>Node180</title>
<g id="a_node6"><a xlink:href="namespacesrc_1_1nifty.html#aa751e61b12e5549898f8e1b03c3cb74b" target="_top" xlink:title="src.nifty.onefile">
<polygon fill="#ffffff" stroke="#000000" points="706,-38.5 706,-57.5 797,-57.5 797,-38.5 706,-38.5"/>
<text text-anchor="middle" x="751.5" y="-45.5" font-family="Ubuntu-R" font-size="10.00" fill="#000000">src.nifty.onefile</text>
</a>
</g>
</g>
<!-- Node179&#45;&gt;Node180 -->
<g id="edge5" class="edge">
<title>Node179&#45;&gt;Node180</title>
<path fill="none" stroke="#191970" d="M657.8325,-36.2916C670.2597,-37.845 683.3541,-39.4818 695.6844,-41.023"/>
<polygon fill="#191970" stroke="#191970" points="695.4737,-44.5239 705.8306,-42.2913 696.342,-37.5779 695.4737,-44.5239"/>
</g>
<!-- Node182 -->
<g id="node8" class="node">
<title>Node182</title>
<g id="a_node8"><a xlink:href="namespacesrc_1_1nifty.html#a7fd3a0edb0212c320360d7685227b0f5" target="_top" xlink:title="src.nifty.LinkFile">
<polygon fill="#ffffff" stroke="#000000" points="704,-.5 704,-19.5 799,-19.5 799,-.5 704,-.5"/>
<text text-anchor="middle" x="751.5" y="-7.5" font-family="Ubuntu-R" font-size="10.00" fill="#000000">src.nifty.LinkFile</text>
</a>
</g>
</g>
<!-- Node179&#45;&gt;Node182 -->
<g id="edge7" class="edge">
<title>Node179&#45;&gt;Node182</title>
<path fill="none" stroke="#191970" d="M657.8325,-21.7084C669.6174,-20.2353 682.0024,-18.6872 693.7666,-17.2167"/>
<polygon fill="#191970" stroke="#191970" points="694.4258,-20.6616 703.9144,-15.9482 693.5575,-13.7157 694.4258,-20.6616"/>
</g>
<!-- Node181 -->
<g id="node7" class="node">
<title>Node181</title>
<g id="a_node7"><a xlink:href="namespacesrc_1_1nifty.html#ab233937d3663f03a912737572c08da9d" target="_top" xlink:title="Prints a warning but will only do so once in a given run. ">
<polygon fill="#ffffff" stroke="#000000" points="860.5,-38.5 860.5,-57.5 970.5,-57.5 970.5,-38.5 860.5,-38.5"/>
<text text-anchor="middle" x="915.5" y="-45.5" font-family="Ubuntu-R" font-size="10.00" fill="#000000">src.nifty.warn_once</text>
</a>
</g>
</g>
<!-- Node180&#45;&gt;Node181 -->
<g id="edge6" class="edge">
<title>Node180&#45;&gt;Node181</title>
<path fill="none" stroke="#191970" d="M797.1831,-48C813.5834,-48 832.4125,-48 850.1555,-48"/>
<polygon fill="#191970" stroke="#191970" points="850.4502,-51.5001 860.4502,-48 850.4502,-44.5001 850.4502,-51.5001"/>
</g>
<!-- Node183 -->
<g id="node9" class="node">
<title>Node183</title>
<g id="a_node9"><a xlink:href="namespacesrc_1_1nifty.html#a39a23ca3b83aadd4bfdf3eee9abb3257" target="_top" xlink:title="src.nifty.MissingFileInspection">
<polygon fill="#ffffff" stroke="#000000" points="835,-.5 835,-19.5 996,-19.5 996,-.5 835,-.5"/>
<text text-anchor="middle" x="915.5" y="-7.5" font-family="Ubuntu-R" font-size="10.00" fill="#000000">src.nifty.MissingFileInspection</text>
</a>
</g>
</g>
<!-- Node182&#45;&gt;Node183 -->
<g id="edge8" class="edge">
<title>Node182&#45;&gt;Node183</title>
<path fill="none" stroke="#191970" d="M799.3765,-10C807.395,-10 815.9434,-10 824.6262,-10"/>
<polygon fill="#191970" stroke="#191970" points="824.8569,-13.5001 834.8569,-10 824.8569,-6.5001 824.8569,-13.5001"/>
</g>
</g>
</svg>
