<?xml version="1.0" encoding="UTF-8" standalone="no"?>
<!DOCTYPE svg PUBLIC "-//W3C//DTD SVG 1.1//EN"
 "http://www.w3.org/Graphics/SVG/1.1/DTD/svg11.dtd">
<!-- Generated by graphviz version 2.32.0 (20130801.1845)
 -->
<!-- Title: forcebalance.tinkerio.AbInitio_TINKER.energy_driver_all Pages: 1 -->
<svg width="1294pt" height="199pt"
 viewBox="0.00 0.00 1294.00 199.31" xmlns="http://www.w3.org/2000/svg" xmlns:xlink="http://www.w3.org/1999/xlink">
<g id="graph0" class="graph" transform="scale(1 1) rotate(0) translate(4 195.309)">
<title>forcebalance.tinkerio.AbInitio_TINKER.energy_driver_all</title>
<polygon fill="white" stroke="white" points="-4,5 -4,-195.309 1291,-195.309 1291,5 -4,5"/>
<!-- Node1 -->
<g id="node1" class="node"><title>Node1</title>
<polygon fill="#bfbfbf" stroke="black" points="0.55,-28.3087 0.55,-60.3087 153.45,-60.3087 153.45,-28.3087 0.55,-28.3087"/>
<text text-anchor="start" x="8.55" y="-47.3087" font-family="Ubuntu-R" font-size="10.00">forcebalance.tinkerio.Ab</text>
<text text-anchor="middle" x="77" y="-35.3087" font-family="Ubuntu-R" font-size="10.00">Initio_TINKER.energy_driver_all</text>
</g>
<!-- Node1&#45;&gt;Node1 -->
<g id="edge15" class="edge"><title>Node1&#45;&gt;Node1</title>
<path fill="none" stroke="midnightblue" d="M42.9775,-60.3995C36.0342,-69.6745 47.375,-78.3087 77,-78.3087 95.0527,-78.3087 106.316,-75.1025 110.789,-70.4989"/>
<polygon fill="midnightblue" stroke="midnightblue" points="114.291,-70.4776 111.022,-60.3995 107.293,-70.3161 114.291,-70.4776"/>
</g>
<!-- Node2 -->
<g id="node2" class="node"><title>Node2</title>
<g id="a_node2"><a xlink:href="classforcebalance_1_1tinkerio_1_1AbInitio__TINKER.html#a27835affec49391fc41b832839a2b0e8" target="_top" xlink:title="forcebalance.tinkerio.Ab\lInitio_TINKER.energy_force\l_driver_all">
<polygon fill="white" stroke="black" points="201.719,-108.309 201.719,-152.309 336.281,-152.309 336.281,-108.309 201.719,-108.309"/>
<text text-anchor="start" x="209.719" y="-139.309" font-family="Ubuntu-R" font-size="10.00">forcebalance.tinkerio.Ab</text>
<text text-anchor="start" x="209.719" y="-127.309" font-family="Ubuntu-R" font-size="10.00">Initio_TINKER.energy_force</text>
<text text-anchor="middle" x="269" y="-115.309" font-family="Ubuntu-R" font-size="10.00">_driver_all</text>
</a>
</g>
</g>
<!-- Node1&#45;&gt;Node2 -->
<g id="edge1" class="edge"><title>Node1&#45;&gt;Node2</title>
<path fill="none" stroke="midnightblue" d="M113.738,-60.4847C140.723,-72.699 178.329,-89.721 209.656,-103.9"/>
<polygon fill="midnightblue" stroke="midnightblue" points="208.604,-107.266 219.157,-108.201 211.49,-100.889 208.604,-107.266"/>
</g>
<!-- Node8 -->
<g id="node8" class="node"><title>Node8</title>
<g id="a_node8"><a xlink:href="classforcebalance_1_1openmmio_1_1Interaction__OpenMM.html#a535ff72686dc66b91f5dda007e252189" target="_top" xlink:title="forcebalance.openmmio.Interaction\l_OpenMM.energy_driver_all">
<polygon fill="white" stroke="black" points="189.921,-28.3087 189.921,-60.3087 348.079,-60.3087 348.079,-28.3087 189.921,-28.3087"/>
<text text-anchor="start" x="197.921" y="-47.3087" font-family="Ubuntu-R" font-size="10.00">forcebalance.openmmio.Interaction</text>
<text text-anchor="middle" x="269" y="-35.3087" font-family="Ubuntu-R" font-size="10.00">_OpenMM.energy_driver_all</text>
</a>
</g>
</g>
<!-- Node1&#45;&gt;Node8 -->
<g id="edge10" class="edge"><title>Node1&#45;&gt;Node8</title>
<path fill="none" stroke="midnightblue" d="M153.639,-44.3087C162.193,-44.3087 170.965,-44.3087 179.663,-44.3087"/>
<polygon fill="midnightblue" stroke="midnightblue" points="179.821,-47.8088 189.821,-44.3087 179.821,-40.8088 179.821,-47.8088"/>
</g>
<!-- Node3 -->
<g id="node3" class="node"><title>Node3</title>
<g id="a_node3"><a xlink:href="classforcebalance_1_1tinkerio_1_1AbInitio__TINKER.html#adeddb898c79da3df601bc742bc2c2be7" target="_top" xlink:title="forcebalance.tinkerio.Ab\lInitio_TINKER.__init__">
<polygon fill="white" stroke="black" points="405.303,-159.309 405.303,-191.309 520.697,-191.309 520.697,-159.309 405.303,-159.309"/>
<text text-anchor="start" x="413.303" y="-178.309" font-family="Ubuntu-R" font-size="10.00">forcebalance.tinkerio.Ab</text>
<text text-anchor="middle" x="463" y="-166.309" font-family="Ubuntu-R" font-size="10.00">Initio_TINKER.__init__</text>
</a>
</g>
</g>
<!-- Node2&#45;&gt;Node3 -->
<g id="edge2" class="edge"><title>Node2&#45;&gt;Node3</title>
<path fill="none" stroke="midnightblue" d="M336.344,-145.858C355.451,-150.336 376.296,-155.222 395.417,-159.703"/>
<polygon fill="midnightblue" stroke="midnightblue" points="394.705,-163.131 405.24,-162.006 396.303,-156.316 394.705,-163.131"/>
</g>
<!-- Node4 -->
<g id="node4" class="node"><title>Node4</title>
<g id="a_node4"><a xlink:href="classforcebalance_1_1tinkerio_1_1AbInitio__TINKER.html#a4f0decc929da6183f1d0d6229fc9733d" target="_top" xlink:title="forcebalance.tinkerio.Ab\lInitio_TINKER.prepare\l_temp_directory">
<polygon fill="white" stroke="black" points="622.303,-111.309 622.303,-155.309 737.697,-155.309 737.697,-111.309 622.303,-111.309"/>
<text text-anchor="start" x="630.303" y="-142.309" font-family="Ubuntu-R" font-size="10.00">forcebalance.tinkerio.Ab</text>
<text text-anchor="start" x="630.303" y="-130.309" font-family="Ubuntu-R" font-size="10.00">Initio_TINKER.prepare</text>
<text text-anchor="middle" x="680" y="-118.309" font-family="Ubuntu-R" font-size="10.00">_temp_directory</text>
</a>
</g>
</g>
<!-- Node2&#45;&gt;Node4 -->
<g id="edge9" class="edge"><title>Node2&#45;&gt;Node4</title>
<path fill="none" stroke="midnightblue" d="M336.623,-130.797C412.506,-131.354 535.796,-132.258 611.883,-132.816"/>
<polygon fill="midnightblue" stroke="midnightblue" points="612.271,-136.319 622.297,-132.893 612.322,-129.319 612.271,-136.319"/>
</g>
<!-- Node3&#45;&gt;Node4 -->
<g id="edge3" class="edge"><title>Node3&#45;&gt;Node4</title>
<path fill="none" stroke="midnightblue" d="M520.77,-164.219C548.815,-158.74 582.837,-152.094 612.136,-146.371"/>
<polygon fill="midnightblue" stroke="midnightblue" points="613.142,-149.74 622.285,-144.388 611.799,-142.87 613.142,-149.74"/>
</g>
<!-- Node5 -->
<g id="node5" class="node"><title>Node5</title>
<g id="a_node5"><a xlink:href="classforcebalance_1_1tinkerio_1_1AbInitio__TINKER.html#ab3835da0b951f77bfef0f14acd133c26" target="_top" xlink:title="forcebalance.tinkerio.Ab\lInitio_TINKER.energy_force\l_driver">
<polygon fill="white" stroke="black" points="818.718,-39.3087 818.718,-83.3087 953.282,-83.3087 953.282,-39.3087 818.718,-39.3087"/>
<text text-anchor="start" x="826.718" y="-70.3087" font-family="Ubuntu-R" font-size="10.00">forcebalance.tinkerio.Ab</text>
<text text-anchor="start" x="826.718" y="-58.3087" font-family="Ubuntu-R" font-size="10.00">Initio_TINKER.energy_force</text>
<text text-anchor="middle" x="886" y="-46.3087" font-family="Ubuntu-R" font-size="10.00">_driver</text>
</a>
</g>
</g>
<!-- Node4&#45;&gt;Node5 -->
<g id="edge4" class="edge"><title>Node4&#45;&gt;Node5</title>
<path fill="none" stroke="midnightblue" d="M737.834,-115.999C752.298,-111.403 767.774,-106.319 782,-101.309 794.544,-96.8908 807.848,-91.9322 820.58,-87.0497"/>
<polygon fill="midnightblue" stroke="midnightblue" points="822.115,-90.2088 830.183,-83.3411 819.593,-83.6789 822.115,-90.2088"/>
</g>
<!-- Node5&#45;&gt;Node1 -->
<g id="edge8" class="edge"><title>Node5&#45;&gt;Node1</title>
<path fill="none" stroke="midnightblue" d="M818.634,-47.9599C749.797,-34.8443 638.876,-15.7492 542,-8.30872 385.952,3.67634 344.981,3.5001 190,-18.3087 176.321,-20.2337 161.853,-23.0178 148.022,-26.0561"/>
<polygon fill="midnightblue" stroke="midnightblue" points="147.065,-22.684 138.084,-28.3046 148.61,-29.5114 147.065,-22.684"/>
</g>
<!-- Node6 -->
<g id="node6" class="node"><title>Node6</title>
<g id="a_node6"><a xlink:href="namespaceforcebalance_1_1molecule.html#a0dd31eff88d2bed0884ab21a13261d42" target="_top" xlink:title="ONLY matches integers! If you have a decimal point? None shall pass!">
<polygon fill="white" stroke="black" points="990.024,-71.3087 990.024,-91.3087 1115.98,-91.3087 1115.98,-71.3087 990.024,-71.3087"/>
<text text-anchor="middle" x="1053" y="-78.3087" font-family="Ubuntu-R" font-size="10.00">forcebalance.molecule.isint</text>
</a>
</g>
</g>
<!-- Node5&#45;&gt;Node6 -->
<g id="edge5" class="edge"><title>Node5&#45;&gt;Node6</title>
<path fill="none" stroke="midnightblue" d="M953.636,-69.3858C962.25,-70.43 971.104,-71.5032 979.803,-72.5576"/>
<polygon fill="midnightblue" stroke="midnightblue" points="979.571,-76.055 989.92,-73.7839 980.414,-69.1059 979.571,-76.055"/>
</g>
<!-- Node7 -->
<g id="node7" class="node"><title>Node7</title>
<g id="a_node7"><a xlink:href="namespaceforcebalance_1_1molecule.html#afe989ffd119568047fc8265b1d329a70" target="_top" xlink:title="Matches ANY number; it can be a decimal, scientific notation, integer, or what have you...">
<polygon fill="white" stroke="black" points="1152.14,-51.3087 1152.14,-71.3087 1285.86,-71.3087 1285.86,-51.3087 1152.14,-51.3087"/>
<text text-anchor="middle" x="1219" y="-58.3087" font-family="Ubuntu-R" font-size="10.00">forcebalance.molecule.isfloat</text>
</a>
</g>
</g>
<!-- Node5&#45;&gt;Node7 -->
<g id="edge7" class="edge"><title>Node5&#45;&gt;Node7</title>
<path fill="none" stroke="midnightblue" d="M953.585,-61.3087C1008.08,-61.3087 1085.18,-61.3087 1142.07,-61.3087"/>
<polygon fill="midnightblue" stroke="midnightblue" points="1142.09,-64.8088 1152.09,-61.3087 1142.09,-57.8088 1142.09,-64.8088"/>
</g>
<!-- Node6&#45;&gt;Node7 -->
<g id="edge6" class="edge"><title>Node6&#45;&gt;Node7</title>
<path fill="none" stroke="midnightblue" d="M1116,-73.7476C1124.48,-72.714 1133.26,-71.6434 1141.95,-70.5837"/>
<polygon fill="midnightblue" stroke="midnightblue" points="1142.58,-74.0325 1152.08,-69.3476 1141.73,-67.084 1142.58,-74.0325"/>
</g>
<!-- Node8&#45;&gt;Node8 -->
<g id="edge14" class="edge"><title>Node8&#45;&gt;Node8</title>
<path fill="none" stroke="midnightblue" d="M234.978,-60.3995C228.034,-69.6745 239.375,-78.3087 269,-78.3087 287.053,-78.3087 298.316,-75.1025 302.789,-70.4989"/>
<polygon fill="midnightblue" stroke="midnightblue" points="306.291,-70.4776 303.022,-60.3995 299.293,-70.3161 306.291,-70.4776"/>
</g>
<!-- Node9 -->
<g id="node9" class="node"><title>Node9</title>
<g id="a_node9"><a xlink:href="namespaceforcebalance_1_1openmmio.html#a9f9fc56475dbfcc94a40fef6a84ed25f" target="_top" xlink:title="forcebalance.openmmio.Update\lSimulationParameters">
<polygon fill="white" stroke="black" points="391.139,-69.3087 391.139,-101.309 534.861,-101.309 534.861,-69.3087 391.139,-69.3087"/>
<text text-anchor="start" x="399.139" y="-88.3087" font-family="Ubuntu-R" font-size="10.00">forcebalance.openmmio.Update</text>
<text text-anchor="middle" x="463" y="-76.3087" font-family="Ubuntu-R" font-size="10.00">SimulationParameters</text>
</a>
</g>
</g>
<!-- Node8&#45;&gt;Node9 -->
<g id="edge11" class="edge"><title>Node8&#45;&gt;Node9</title>
<path fill="none" stroke="midnightblue" d="M345.057,-60.3365C356.889,-62.8633 369.168,-65.4852 381.125,-68.0386"/>
<polygon fill="midnightblue" stroke="midnightblue" points="380.567,-71.4982 391.077,-70.1638 382.029,-64.6525 380.567,-71.4982"/>
</g>
<!-- Node11 -->
<g id="node11" class="node"><title>Node11</title>
<g id="a_node11"><a xlink:href="classforcebalance_1_1openmmio_1_1Interaction__OpenMM.html#a9813c1a24af88156703d05ebe57bf707" target="_top" xlink:title="forcebalance.openmmio.Interaction\l_OpenMM.interaction_driver_all">
<polygon fill="white" stroke="black" points="383.921,-18.3087 383.921,-50.3087 542.08,-50.3087 542.08,-18.3087 383.921,-18.3087"/>
<text text-anchor="start" x="391.921" y="-37.3087" font-family="Ubuntu-R" font-size="10.00">forcebalance.openmmio.Interaction</text>
<text text-anchor="middle" x="463" y="-25.3087" font-family="Ubuntu-R" font-size="10.00">_OpenMM.interaction_driver_all</text>
</a>
</g>
</g>
<!-- Node8&#45;&gt;Node11 -->
<g id="edge13" class="edge"><title>Node8&#45;&gt;Node11</title>
<path fill="none" stroke="midnightblue" d="M348.094,-40.2413C356.434,-39.8069 364.962,-39.3628 373.412,-38.9227"/>
<polygon fill="midnightblue" stroke="midnightblue" points="373.86,-42.4042 383.664,-38.3887 373.495,-35.4137 373.86,-42.4042"/>
</g>
<!-- Node10 -->
<g id="node10" class="node"><title>Node10</title>
<g id="a_node10"><a xlink:href="namespaceforcebalance_1_1openmmio.html#aa085594c11e9cd00ce71f5a8ead72b68" target="_top" xlink:title="Create a multiple timestep velocity verlet with velocity randomization (VVVR) integrator.">
<polygon fill="white" stroke="black" points="578.423,-72.3087 578.423,-92.3087 781.577,-92.3087 781.577,-72.3087 578.423,-72.3087"/>
<text text-anchor="middle" x="680" y="-79.3087" font-family="Ubuntu-R" font-size="10.00">forcebalance.openmmio.MTSVVVRIntegrator</text>
</a>
</g>
</g>
<!-- Node9&#45;&gt;Node10 -->
<g id="edge12" class="edge"><title>Node9&#45;&gt;Node10</title>
<path fill="none" stroke="midnightblue" d="M534.995,-84.3181C545.577,-84.1704 556.695,-84.0153 567.865,-83.8595"/>
<polygon fill="midnightblue" stroke="midnightblue" points="568.173,-87.3556 578.124,-83.7163 568.076,-80.3563 568.173,-87.3556"/>
</g>
</g>
</svg>
