<?xml version="1.0" encoding="UTF-8" standalone="no"?>
<!DOCTYPE svg PUBLIC "-//W3C//DTD SVG 1.1//EN"
 "http://www.w3.org/Graphics/SVG/1.1/DTD/svg11.dtd">
<!-- Generated by graphviz version 2.28.0 (20111219.2309)
 -->
<!-- Title: G Pages: 1 -->
<svg width="1574pt" height="161pt"
 viewBox="0.00 0.00 1574.00 161.00" xmlns="http://www.w3.org/2000/svg" xmlns:xlink="http://www.w3.org/1999/xlink">
<g id="graph1" class="graph" transform="scale(1 1) rotate(0) translate(4 157)">
<title>G</title>
<polygon fill="white" stroke="white" points="-4,5 -4,-157 1571,-157 1571,5 -4,5"/>
<!-- Node1 -->
<g id="node1" class="node"><title>Node1</title>
<polygon fill="#bfbfbf" stroke="black" points="0.5,-76.5 0.5,-95.5 209.5,-95.5 209.5,-76.5 0.5,-76.5"/>
<text text-anchor="middle" x="105" y="-83.5" font-family="Ubuntu-R" font-size="10.00">forcebalance.vibration.Vibration.indicate</text>
</g>
<!-- Node2 -->
<g id="node3" class="node"><title>Node2</title>
<a xlink:href="classforcebalance_1_1vibration_1_1Vibration.html#a3b20f6a97f3aba4f704056ed12a999a5" target="_top" xlink:title="Evaluate objective function.">
<polygon fill="white" stroke="black" points="291.5,-95.5 291.5,-114.5 478.5,-114.5 478.5,-95.5 291.5,-95.5"/>
<text text-anchor="middle" x="385" y="-102.5" font-family="Ubuntu-R" font-size="10.00">forcebalance.vibration.Vibration.get</text>
</a>
</g>
<!-- Node1&#45;&gt;Node2 -->
<g id="edge2" class="edge"><title>Node1&#45;&gt;Node2</title>
<path fill="none" stroke="midnightblue" d="M209.517,-93.0749C232.915,-94.6741 257.752,-96.3715 281.123,-97.9689"/>
<polygon fill="midnightblue" stroke="midnightblue" points="281.178,-101.481 291.394,-98.6708 281.656,-94.497 281.178,-101.481"/>
</g>
<!-- Node3 -->
<g id="node5" class="node"><title>Node3</title>
<a xlink:href="classforcebalance_1_1tinkerio_1_1Vibration__TINKER.html#a5d118d5c5f66c81653cc2be3329fdc96" target="_top" xlink:title="forcebalance.tinkerio.Vibration_TINKER.vibration_driver">
<polygon fill="white" stroke="black" points="246.5,-57.5 246.5,-76.5 523.5,-76.5 523.5,-57.5 246.5,-57.5"/>
<text text-anchor="middle" x="385" y="-64.5" font-family="Ubuntu-R" font-size="10.00">forcebalance.tinkerio.Vibration_TINKER.vibration_driver</text>
</a>
</g>
<!-- Node1&#45;&gt;Node3 -->
<g id="edge4" class="edge"><title>Node1&#45;&gt;Node3</title>
<path fill="none" stroke="midnightblue" d="M209.517,-78.9251C218.266,-78.3272 227.215,-77.7155 236.214,-77.1005"/>
<polygon fill="midnightblue" stroke="midnightblue" points="236.649,-80.579 246.387,-76.4052 236.172,-73.5953 236.649,-80.579"/>
</g>
<!-- Node4 -->
<g id="node7" class="node"><title>Node4</title>
<a xlink:href="namespaceforcebalance_1_1molecule.html#a0dd31eff88d2bed0884ab21a13261d42" target="_top" xlink:title="ONLY matches integers! If you have a decimal point? None shall pass!">
<polygon fill="white" stroke="black" points="646.5,-133.5 646.5,-152.5 793.5,-152.5 793.5,-133.5 646.5,-133.5"/>
<text text-anchor="middle" x="720" y="-140.5" font-family="Ubuntu-R" font-size="10.00">forcebalance.molecule.isint</text>
</a>
</g>
<!-- Node3&#45;&gt;Node4 -->
<g id="edge6" class="edge"><title>Node3&#45;&gt;Node4</title>
<path fill="none" stroke="midnightblue" d="M498.406,-76.5671C507.262,-79.0906 515.902,-82.1936 524,-86 543.643,-95.233 540.417,-109.64 560,-119 583.459,-130.213 610.894,-136.444 636.307,-139.833"/>
<polygon fill="midnightblue" stroke="midnightblue" points="635.959,-143.317 646.306,-141.038 636.796,-136.367 635.959,-143.317"/>
</g>
<!-- Node5 -->
<g id="node9" class="node"><title>Node5</title>
<a xlink:href="namespaceforcebalance_1_1molecule.html#afe989ffd119568047fc8265b1d329a70" target="_top" xlink:title="Matches ANY number; it can be a decimal, scientific notation, integer, or what have you...">
<polygon fill="white" stroke="black" points="944,-114.5 944,-133.5 1100,-133.5 1100,-114.5 944,-114.5"/>
<text text-anchor="middle" x="1022" y="-121.5" font-family="Ubuntu-R" font-size="10.00">forcebalance.molecule.isfloat</text>
</a>
</g>
<!-- Node3&#45;&gt;Node5 -->
<g id="edge10" class="edge"><title>Node3&#45;&gt;Node5</title>
<path fill="none" stroke="midnightblue" d="M469.149,-76.5335C497.909,-79.7103 530.356,-83.1602 560,-86 690.025,-98.4558 840.923,-110.424 933.681,-117.496"/>
<polygon fill="midnightblue" stroke="midnightblue" points="933.626,-121.001 943.863,-118.27 934.157,-114.022 933.626,-121.001"/>
</g>
<!-- Node6 -->
<g id="node12" class="node"><title>Node6</title>
<a xlink:href="classforcebalance_1_1tinkerio_1_1Vibration__TINKER.html#a4f4dcaa18b29ae9dd69e6c0a60e40b09" target="_top" xlink:title="forcebalance.tinkerio.Vibration_TINKER.__init__">
<polygon fill="white" stroke="black" points="600.5,-57.5 600.5,-76.5 839.5,-76.5 839.5,-57.5 600.5,-57.5"/>
<text text-anchor="middle" x="720" y="-64.5" font-family="Ubuntu-R" font-size="10.00">forcebalance.tinkerio.Vibration_TINKER.__init__</text>
</a>
</g>
<!-- Node3&#45;&gt;Node6 -->
<g id="edge12" class="edge"><title>Node3&#45;&gt;Node6</title>
<path fill="none" stroke="midnightblue" d="M523.848,-67C545.781,-67 568.399,-67 590.116,-67"/>
<polygon fill="midnightblue" stroke="midnightblue" points="590.36,-70.5001 600.36,-67 590.36,-63.5001 590.36,-70.5001"/>
</g>
<!-- Node13 -->
<g id="node26" class="node"><title>Node13</title>
<a xlink:href="classforcebalance_1_1tinkerio_1_1Vibration__TINKER.html#ab4268eae2d7d9ab515028eb2736f4c68" target="_top" xlink:title="forcebalance.tinkerio.Vibration_TINKER.prepare_temp_directory">
<polygon fill="white" stroke="black" points="560.5,-19.5 560.5,-38.5 879.5,-38.5 879.5,-19.5 560.5,-19.5"/>
<text text-anchor="middle" x="720" y="-26.5" font-family="Ubuntu-R" font-size="10.00">forcebalance.tinkerio.Vibration_TINKER.prepare_temp_directory</text>
</a>
</g>
<!-- Node3&#45;&gt;Node13 -->
<g id="edge26" class="edge"><title>Node3&#45;&gt;Node13</title>
<path fill="none" stroke="midnightblue" d="M428.513,-57.4609C463.772,-51.9204 516.145,-45.2638 566.75,-39.6459"/>
<polygon fill="midnightblue" stroke="midnightblue" points="567.284,-43.1084 576.842,-38.5368 566.519,-36.1503 567.284,-43.1084"/>
</g>
<!-- Node4&#45;&gt;Node5 -->
<g id="edge8" class="edge"><title>Node4&#45;&gt;Node5</title>
<path fill="none" stroke="midnightblue" d="M793.622,-138.401C835.772,-135.731 889.147,-132.351 933.59,-129.536"/>
<polygon fill="midnightblue" stroke="midnightblue" points="934.045,-133.014 943.803,-128.889 933.602,-126.028 934.045,-133.014"/>
</g>
<!-- Node7 -->
<g id="node14" class="node"><title>Node7</title>
<a xlink:href="namespaceforcebalance_1_1nifty.html#ab182a9da2a2f42cf45942fbee6acf9b1" target="_top" xlink:title="forcebalance.nifty.LinkFile">
<polygon fill="white" stroke="black" points="953.5,-76.5 953.5,-95.5 1090.5,-95.5 1090.5,-76.5 953.5,-76.5"/>
<text text-anchor="middle" x="1022" y="-83.5" font-family="Ubuntu-R" font-size="10.00">forcebalance.nifty.LinkFile</text>
</a>
</g>
<!-- Node6&#45;&gt;Node7 -->
<g id="edge14" class="edge"><title>Node6&#45;&gt;Node7</title>
<path fill="none" stroke="midnightblue" d="M839.568,-74.5093C874.445,-76.7182 911.696,-79.0774 943.313,-81.0798"/>
<polygon fill="midnightblue" stroke="midnightblue" points="943.169,-84.5776 953.37,-81.7168 943.612,-77.5916 943.169,-84.5776"/>
</g>
<!-- Node9 -->
<g id="node18" class="node"><title>Node9</title>
<a xlink:href="namespaceforcebalance_1_1tinkerio.html#a9cde7bd64c6f5286c1f33a39211d5a11" target="_top" xlink:title="Copies a TINKER .key file but changes the parameter keyword as necessary to reflect the ForceBalance ...">
<polygon fill="white" stroke="black" points="916,-38.5 916,-57.5 1128,-57.5 1128,-38.5 916,-38.5"/>
<text text-anchor="middle" x="1022" y="-45.5" font-family="Ubuntu-R" font-size="10.00">forcebalance.tinkerio.write_key_with_prm</text>
</a>
</g>
<!-- Node6&#45;&gt;Node9 -->
<g id="edge18" class="edge"><title>Node6&#45;&gt;Node9</title>
<path fill="none" stroke="midnightblue" d="M839.568,-59.4907C861.342,-58.1117 884.041,-56.6741 905.716,-55.3013"/>
<polygon fill="midnightblue" stroke="midnightblue" points="906.171,-58.7796 915.93,-54.6545 905.728,-51.7936 906.171,-58.7796"/>
</g>
<!-- Node8 -->
<g id="node16" class="node"><title>Node8</title>
<a xlink:href="namespaceforcebalance_1_1nifty.html#a25efa4d501ad852a234721af18978f7e" target="_top" xlink:title="Remove the file if it exists (doesn&#39;t return an error).">
<polygon fill="white" stroke="black" points="1164.5,-76.5 1164.5,-95.5 1347.5,-95.5 1347.5,-76.5 1164.5,-76.5"/>
<text text-anchor="middle" x="1256" y="-83.5" font-family="Ubuntu-R" font-size="10.00">forcebalance.nifty.remove_if_exists</text>
</a>
</g>
<!-- Node7&#45;&gt;Node8 -->
<g id="edge16" class="edge"><title>Node7&#45;&gt;Node8</title>
<path fill="none" stroke="midnightblue" d="M1090.73,-86C1110.59,-86 1132.74,-86 1154.19,-86"/>
<polygon fill="midnightblue" stroke="midnightblue" points="1154.32,-89.5001 1164.32,-86 1154.32,-82.5001 1154.32,-89.5001"/>
</g>
<!-- Node10 -->
<g id="node20" class="node"><title>Node10</title>
<a xlink:href="namespaceforcebalance_1_1nifty.html#abb8f59044961a12588e0653c2baa8b01" target="_top" xlink:title="forcebalance.nifty.warn_press_key">
<polygon fill="white" stroke="black" points="1166.5,-38.5 1166.5,-57.5 1345.5,-57.5 1345.5,-38.5 1166.5,-38.5"/>
<text text-anchor="middle" x="1256" y="-45.5" font-family="Ubuntu-R" font-size="10.00">forcebalance.nifty.warn_press_key</text>
</a>
</g>
<!-- Node9&#45;&gt;Node10 -->
<g id="edge20" class="edge"><title>Node9&#45;&gt;Node10</title>
<path fill="none" stroke="midnightblue" d="M1128.14,-48C1137.37,-48 1146.7,-48 1155.88,-48"/>
<polygon fill="midnightblue" stroke="midnightblue" points="1156.17,-51.5001 1166.17,-48 1156.17,-44.5001 1156.17,-51.5001"/>
</g>
<!-- Node12 -->
<g id="node24" class="node"><title>Node12</title>
<a xlink:href="namespaceforcebalance_1_1tinkerio.html#aa82c424420ad59b6a78b273d6c1fd469" target="_top" xlink:title="Performs in&#45;place modification of a TINKER .key file.">
<polygon fill="white" stroke="black" points="1169.5,-0.5 1169.5,-19.5 1342.5,-19.5 1342.5,-0.5 1169.5,-0.5"/>
<text text-anchor="middle" x="1256" y="-7.5" font-family="Ubuntu-R" font-size="10.00">forcebalance.tinkerio.modify_key</text>
</a>
</g>
<!-- Node9&#45;&gt;Node12 -->
<g id="edge24" class="edge"><title>Node9&#45;&gt;Node12</title>
<path fill="none" stroke="midnightblue" d="M1081.24,-38.46C1113.24,-33.2201 1153.1,-26.6912 1186.57,-21.2091"/>
<polygon fill="midnightblue" stroke="midnightblue" points="1187.43,-24.6143 1196.73,-19.5439 1186.3,-17.7064 1187.43,-24.6143"/>
</g>
<!-- Node11 -->
<g id="node22" class="node"><title>Node11</title>
<a xlink:href="namespaceforcebalance_1_1nifty.html#a2fc81730e7efa7d138dd86f733507bfc" target="_top" xlink:title="Similar to the bultin function map().">
<polygon fill="white" stroke="black" points="1384,-38.5 1384,-57.5 1566,-57.5 1566,-38.5 1384,-38.5"/>
<text text-anchor="middle" x="1475" y="-45.5" font-family="Ubuntu-R" font-size="10.00">forcebalance.nifty.concurrent_map</text>
</a>
</g>
<!-- Node10&#45;&gt;Node11 -->
<g id="edge22" class="edge"><title>Node10&#45;&gt;Node11</title>
<path fill="none" stroke="midnightblue" d="M1345.58,-48C1354.87,-48 1364.37,-48 1373.78,-48"/>
<polygon fill="midnightblue" stroke="midnightblue" points="1373.95,-51.5001 1383.95,-48 1373.95,-44.5001 1373.95,-51.5001"/>
</g>
<!-- Node13&#45;&gt;Node3 -->
<g id="edge28" class="edge"><title>Node13&#45;&gt;Node3</title>
<path fill="none" stroke="midnightblue" d="M676.615,-38.519C640.336,-44.2235 585.874,-51.1152 533.867,-56.8386"/>
<polygon fill="midnightblue" stroke="midnightblue" points="533.41,-53.3676 523.848,-57.93 534.168,-60.3264 533.41,-53.3676"/>
</g>
</g>
</svg>
