<?xml version="1.0" encoding="UTF-8" standalone="no"?>
<!DOCTYPE svg PUBLIC "-//W3C//DTD SVG 1.1//EN"
 "http://www.w3.org/Graphics/SVG/1.1/DTD/svg11.dtd">
<!-- Generated by graphviz version 2.28.0 (20111219.2309)
 -->
<!-- Title: G Pages: 1 -->
<svg width="678pt" height="28pt"
 viewBox="0.00 0.00 678.00 28.00" xmlns="http://www.w3.org/2000/svg" xmlns:xlink="http://www.w3.org/1999/xlink">
<g id="graph1" class="graph" transform="scale(1 1) rotate(0) translate(4 24)">
<title>G</title>
<polygon fill="white" stroke="white" points="-4,5 -4,-24 675,-24 675,5 -4,5"/>
<!-- Node1 -->
<g id="node1" class="node"><title>Node1</title>
<polygon fill="#bfbfbf" stroke="black" points="0.5,-0.5 0.5,-19.5 209.5,-19.5 209.5,-0.5 0.5,-0.5"/>
<text text-anchor="middle" x="105" y="-7.5" font-family="Ubuntu-R" font-size="10.00">forcebalance.psi4io.RDVR3_Psi4.indicate</text>
</g>
<!-- Node2 -->
<g id="node3" class="node"><title>Node2</title>
<a xlink:href="classforcebalance_1_1psi4io_1_1RDVR3__Psi4.html#a8c4cf7a59ef8714519631145669a5df9" target="_top" xlink:title="forcebalance.psi4io.RDVR3_Psi4.driver">
<polygon fill="white" stroke="black" points="246.5,-0.5 246.5,-19.5 445.5,-19.5 445.5,-0.5 246.5,-0.5"/>
<text text-anchor="middle" x="346" y="-7.5" font-family="Ubuntu-R" font-size="10.00">forcebalance.psi4io.RDVR3_Psi4.driver</text>
</a>
</g>
<!-- Node1&#45;&gt;Node2 -->
<g id="edge2" class="edge"><title>Node1&#45;&gt;Node2</title>
<path fill="none" stroke="midnightblue" d="M209.786,-10C218.478,-10 227.284,-10 236.013,-10"/>
<polygon fill="midnightblue" stroke="midnightblue" points="236.215,-13.5001 246.215,-10 236.215,-6.5001 236.215,-13.5001"/>
</g>
<!-- Node3 -->
<g id="node5" class="node"><title>Node3</title>
<a xlink:href="classforcebalance_1_1psi4io_1_1RDVR3__Psi4.html#a70936cb704ab5df307013cc6aa5b85c8" target="_top" xlink:title="LPW 04&#45;17&#45;2013.">
<polygon fill="white" stroke="black" points="482,-0.5 482,-19.5 670,-19.5 670,-0.5 482,-0.5"/>
<text text-anchor="middle" x="576" y="-7.5" font-family="Ubuntu-R" font-size="10.00">forcebalance.psi4io.RDVR3_Psi4.get</text>
</a>
</g>
<!-- Node2&#45;&gt;Node3 -->
<g id="edge4" class="edge"><title>Node2&#45;&gt;Node3</title>
<path fill="none" stroke="midnightblue" d="M445.678,-10C454.328,-10 463.098,-10 471.784,-10"/>
<polygon fill="midnightblue" stroke="midnightblue" points="471.93,-13.5001 481.93,-10 471.93,-6.5001 471.93,-13.5001"/>
</g>
</g>
</svg>
