<?xml version="1.0" encoding="UTF-8" standalone="no"?>
<!DOCTYPE svg PUBLIC "-//W3C//DTD SVG 1.1//EN"
 "http://www.w3.org/Graphics/SVG/1.1/DTD/svg11.dtd">
<!-- Generated by graphviz version 2.28.0 (20111219.2309)
 -->
<!-- Title: G Pages: 1 -->
<svg width="1144pt" height="85pt"
 viewBox="0.00 0.00 1144.00 85.00" xmlns="http://www.w3.org/2000/svg" xmlns:xlink="http://www.w3.org/1999/xlink">
<g id="graph1" class="graph" transform="scale(1 1) rotate(0) translate(4 81)">
<title>G</title>
<polygon fill="white" stroke="white" points="-4,5 -4,-81 1141,-81 1141,5 -4,5"/>
<!-- Node1 -->
<g id="node1" class="node"><title>Node1</title>
<polygon fill="#bfbfbf" stroke="black" points="0.5,-57.5 0.5,-76.5 189.5,-76.5 189.5,-57.5 0.5,-57.5"/>
<text text-anchor="middle" x="95" y="-64.5" font-family="Ubuntu-R" font-size="10.00">forcebalance.objective.Penalty.FUSE</text>
</g>
<!-- Node2 -->
<g id="node3" class="node"><title>Node2</title>
<a xlink:href="namespaceforcebalance_1_1nifty.html#abb8f59044961a12588e0653c2baa8b01" target="_top" xlink:title="forcebalance.nifty.warn_press_key">
<polygon fill="white" stroke="black" points="738.5,-38.5 738.5,-57.5 917.5,-57.5 917.5,-38.5 738.5,-38.5"/>
<text text-anchor="middle" x="828" y="-45.5" font-family="Ubuntu-R" font-size="10.00">forcebalance.nifty.warn_press_key</text>
</a>
</g>
<!-- Node1&#45;&gt;Node2 -->
<g id="edge2" class="edge"><title>Node1&#45;&gt;Node2</title>
<path fill="none" stroke="midnightblue" d="M189.557,-69.5771C308.713,-72.09 520.906,-73.9872 702,-62 714.936,-61.1437 728.594,-59.9317 741.944,-58.575"/>
<polygon fill="midnightblue" stroke="midnightblue" points="742.496,-62.0364 752.076,-57.5128 741.766,-55.0746 742.496,-62.0364"/>
</g>
<!-- Node4 -->
<g id="node7" class="node"><title>Node4</title>
<a xlink:href="classforcebalance_1_1objective_1_1Penalty.html#a9badc0a78d23016aa3dcc2d610e2e16c" target="_top" xlink:title="forcebalance.objective.Penalty.FUSE_BARRIER">
<polygon fill="white" stroke="black" points="226,-38.5 226,-57.5 460,-57.5 460,-38.5 226,-38.5"/>
<text text-anchor="middle" x="343" y="-45.5" font-family="Ubuntu-R" font-size="10.00">forcebalance.objective.Penalty.FUSE_BARRIER</text>
</a>
</g>
<!-- Node1&#45;&gt;Node4 -->
<g id="edge6" class="edge"><title>Node1&#45;&gt;Node4</title>
<path fill="none" stroke="midnightblue" d="M189.704,-59.7627C198.194,-59.1069 206.883,-58.4359 215.594,-57.7631"/>
<polygon fill="midnightblue" stroke="midnightblue" points="216.119,-61.233 225.82,-56.9733 215.58,-54.2538 216.119,-61.233"/>
</g>
<!-- Node3 -->
<g id="node5" class="node"><title>Node3</title>
<a xlink:href="namespaceforcebalance_1_1nifty.html#a2fc81730e7efa7d138dd86f733507bfc" target="_top" xlink:title="Similar to the bultin function map().">
<polygon fill="white" stroke="black" points="954,-38.5 954,-57.5 1136,-57.5 1136,-38.5 954,-38.5"/>
<text text-anchor="middle" x="1045" y="-45.5" font-family="Ubuntu-R" font-size="10.00">forcebalance.nifty.concurrent_map</text>
</a>
</g>
<!-- Node2&#45;&gt;Node3 -->
<g id="edge4" class="edge"><title>Node2&#45;&gt;Node3</title>
<path fill="none" stroke="midnightblue" d="M917.69,-48C926.253,-48 934.981,-48 943.647,-48"/>
<polygon fill="midnightblue" stroke="midnightblue" points="943.777,-51.5001 953.777,-48 943.777,-44.5001 943.777,-51.5001"/>
</g>
<!-- Node4&#45;&gt;Node2 -->
<g id="edge8" class="edge"><title>Node4&#45;&gt;Node2</title>
<path fill="none" stroke="midnightblue" d="M460.305,-48C542.051,-48 650.25,-48 727.898,-48"/>
<polygon fill="midnightblue" stroke="midnightblue" points="728.166,-51.5001 738.166,-48 728.166,-44.5001 728.166,-51.5001"/>
</g>
<!-- Node5 -->
<g id="node10" class="node"><title>Node5</title>
<a xlink:href="classforcebalance_1_1objective_1_1Penalty.html#ab54cfe22065a5aa22766e16cc8cb90aa" target="_top" xlink:title="forcebalance.objective.Penalty.FUSE_L0">
<polygon fill="white" stroke="black" points="496,-0.5 496,-19.5 702,-19.5 702,-0.5 496,-0.5"/>
<text text-anchor="middle" x="599" y="-7.5" font-family="Ubuntu-R" font-size="10.00">forcebalance.objective.Penalty.FUSE_L0</text>
</a>
</g>
<!-- Node4&#45;&gt;Node5 -->
<g id="edge10" class="edge"><title>Node4&#45;&gt;Node5</title>
<path fill="none" stroke="midnightblue" d="M407.767,-38.46C443.094,-33.1749 487.185,-26.5786 524.022,-21.0675"/>
<polygon fill="midnightblue" stroke="midnightblue" points="524.835,-24.485 534.207,-19.5439 523.799,-17.5621 524.835,-24.485"/>
</g>
<!-- Node5&#45;&gt;Node2 -->
<g id="edge12" class="edge"><title>Node5&#45;&gt;Node2</title>
<path fill="none" stroke="midnightblue" d="M656.989,-19.54C688.291,-24.7799 727.292,-31.3088 760.041,-36.7909"/>
<polygon fill="midnightblue" stroke="midnightblue" points="759.547,-40.257 769.988,-38.4561 760.703,-33.353 759.547,-40.257"/>
</g>
</g>
</svg>
