<?xml version="1.0" encoding="UTF-8" standalone="no"?>
<!DOCTYPE svg PUBLIC "-//W3C//DTD SVG 1.1//EN"
 "http://www.w3.org/Graphics/SVG/1.1/DTD/svg11.dtd">
<!-- Generated by graphviz version 2.26.3 (20100126.1600)
 -->
<!-- Title: forcebalance.vibration.Vibration.indicate Pages: 1 -->
<svg width="964pt" height="42pt"
 viewBox="0.00 0.00 964.00 42.00" xmlns="http://www.w3.org/2000/svg" xmlns:xlink="http://www.w3.org/1999/xlink">
<g id="graph1" class="graph" transform="scale(1 1) rotate(0) translate(4 38)">
<title>forcebalance.vibration.Vibration.indicate</title>
<polygon fill="white" stroke="white" points="-4,5 -4,-38 961,-38 961,5 -4,5"/>
<!-- Node1 -->
<g id="node1" class="node"><title>Node1</title>
<polygon fill="#bfbfbf" stroke="black" points="0.5,-6.5 0.5,-27.5 209.5,-27.5 209.5,-6.5 0.5,-6.5"/>
<text text-anchor="middle" x="105" y="-14.5" font-family="Ubuntu-R" font-size="10.00">forcebalance.vibration.Vibration.indicate</text>
</g>
<!-- Node2 -->
<g id="node3" class="node"><title>Node2</title>
<a xlink:href="classforcebalance_1_1target_1_1Target.html#ac30a4e9d7d9fe06f7caefa5f7cfab09b" target="_top" xlink:title="Print target information in an organized table format. ">
<polygon fill="white" stroke="black" points="246.5,-0 246.5,-34 433.5,-34 433.5,-0 246.5,-0"/>
<text text-anchor="start" x="254.5" y="-21" font-family="Ubuntu-R" font-size="10.00">forcebalance.target.Target.printcool</text>
<text text-anchor="middle" x="340" y="-8" font-family="Ubuntu-R" font-size="10.00">_table</text>
</a>
</g>
<!-- Node1&#45;&gt;Node2 -->
<g id="edge2" class="edge"><title>Node1&#45;&gt;Node2</title>
<path fill="none" stroke="midnightblue" d="M209.785,-17C218.495,-17 227.298,-17 236.001,-17"/>
<polygon fill="midnightblue" stroke="midnightblue" points="236.161,-20.5001 246.161,-17 236.161,-13.5001 236.161,-20.5001"/>
</g>
<!-- Node3 -->
<g id="node5" class="node"><title>Node3</title>
<a xlink:href="namespaceforcebalance_1_1nifty.html#a51180e960742cc7547749fdfb3513ec4" target="_top" xlink:title="See documentation for printcool; this is a nice way to print out keys/values in a dictionary...">
<polygon fill="white" stroke="black" points="470,-0 470,-34 614,-34 614,-0 470,-0"/>
<text text-anchor="start" x="478" y="-21" font-family="Ubuntu-R" font-size="10.00">forcebalance.nifty.printcool</text>
<text text-anchor="middle" x="542" y="-8" font-family="Ubuntu-R" font-size="10.00">_dictionary</text>
</a>
</g>
<!-- Node2&#45;&gt;Node3 -->
<g id="edge4" class="edge"><title>Node2&#45;&gt;Node3</title>
<path fill="none" stroke="midnightblue" d="M433.608,-17C442.361,-17 451.189,-17 459.825,-17"/>
<polygon fill="midnightblue" stroke="midnightblue" points="459.861,-20.5001 469.861,-17 459.861,-13.5001 459.861,-20.5001"/>
</g>
<!-- Node4 -->
<g id="node7" class="node"><title>Node4</title>
<a xlink:href="namespaceforcebalance_1_1nifty.html#a11babd62dc7bca389162c6318f9672ca" target="_top" xlink:title="Cool&#45;looking printout for slick formatting of output. ">
<polygon fill="white" stroke="black" points="650,-6.5 650,-27.5 794,-27.5 794,-6.5 650,-6.5"/>
<text text-anchor="middle" x="722" y="-14.5" font-family="Ubuntu-R" font-size="10.00">forcebalance.nifty.printcool</text>
</a>
</g>
<!-- Node3&#45;&gt;Node4 -->
<g id="edge6" class="edge"><title>Node3&#45;&gt;Node4</title>
<path fill="none" stroke="midnightblue" d="M614.176,-17C622.52,-17 631.077,-17 639.544,-17"/>
<polygon fill="midnightblue" stroke="midnightblue" points="639.808,-20.5001 649.808,-17 639.808,-13.5001 639.808,-20.5001"/>
</g>
<!-- Node5 -->
<g id="node9" class="node"><title>Node5</title>
<a xlink:href="namespaceforcebalance_1_1nifty.html#abb8f59044961a12588e0653c2baa8b01" target="_top" xlink:title="forcebalance.nifty.warn\l_press_key">
<polygon fill="white" stroke="black" points="830.5,-0 830.5,-34 955.5,-34 955.5,-0 830.5,-0"/>
<text text-anchor="start" x="838.5" y="-21" font-family="Ubuntu-R" font-size="10.00">forcebalance.nifty.warn</text>
<text text-anchor="middle" x="893" y="-8" font-family="Ubuntu-R" font-size="10.00">_press_key</text>
</a>
</g>
<!-- Node4&#45;&gt;Node5 -->
<g id="edge8" class="edge"><title>Node4&#45;&gt;Node5</title>
<path fill="none" stroke="midnightblue" d="M794.024,-17C802.684,-17 811.533,-17 820.203,-17"/>
<polygon fill="midnightblue" stroke="midnightblue" points="820.278,-20.5001 830.278,-17 820.278,-13.5001 820.278,-20.5001"/>
</g>
</g>
</svg>
