<?xml version="1.0" encoding="UTF-8" standalone="no"?>
<!DOCTYPE svg PUBLIC "-//W3C//DTD SVG 1.1//EN"
 "http://www.w3.org/Graphics/SVG/1.1/DTD/svg11.dtd">
<!-- Generated by graphviz version 2.26.3 (20100126.1600)
 -->
<!-- Title: forcebalance.moments.Moments Pages: 1 -->
<svg width="182pt" height="276pt"
 viewBox="0.00 0.00 182.00 276.00" xmlns="http://www.w3.org/2000/svg" xmlns:xlink="http://www.w3.org/1999/xlink">
<g id="graph1" class="graph" transform="scale(1 1) rotate(0) translate(4 272)">
<title>forcebalance.moments.Moments</title>
<polygon fill="white" stroke="white" points="-4,5 -4,-272 179,-272 179,5 -4,5"/>
<!-- Node1 -->
<g id="node1" class="node"><title>Node1</title>
<polygon fill="#bfbfbf" stroke="black" points="-0.5,-72.5 -0.5,-93.5 174.5,-93.5 174.5,-72.5 -0.5,-72.5"/>
<text text-anchor="middle" x="87" y="-80.5" font-family="Ubuntu-R" font-size="10.00">forcebalance.moments.Moments</text>
</g>
<!-- Node5 -->
<g id="node9" class="node"><title>Node5</title>
<a xlink:href="classforcebalance_1_1tinkerio_1_1Moments__TINKER.html" target="_top" xlink:title="Subclass of Target for multipole moment matching using TINKER.">
<polygon fill="white" stroke="black" points="5,-1 5,-35 169,-35 169,-1 5,-1"/>
<text text-anchor="start" x="13" y="-22" font-family="Ubuntu-R" font-size="10.00">forcebalance.tinkerio.Moments</text>
<text text-anchor="middle" x="87" y="-9" font-family="Ubuntu-R" font-size="10.00">_TINKER</text>
</a>
</g>
<!-- Node1&#45;&gt;Node5 -->
<g id="edge8" class="edge"><title>Node1&#45;&gt;Node5</title>
<path fill="none" stroke="midnightblue" d="M87,-62.1306C87,-53.4049 87,-43.3908 87,-35.1099"/>
<polygon fill="midnightblue" stroke="midnightblue" points="83.5001,-62.2665 87,-72.2666 90.5001,-62.2666 83.5001,-62.2665"/>
</g>
<!-- Node2 -->
<g id="node2" class="node"><title>Node2</title>
<a xlink:href="classforcebalance_1_1target_1_1Target.html" target="_top" xlink:title="Base class for all fitting targets.">
<polygon fill="white" stroke="black" points="16,-130.5 16,-151.5 158,-151.5 158,-130.5 16,-130.5"/>
<text text-anchor="middle" x="87" y="-138.5" font-family="Ubuntu-R" font-size="10.00">forcebalance.target.Target</text>
</a>
</g>
<!-- Node2&#45;&gt;Node1 -->
<g id="edge2" class="edge"><title>Node2&#45;&gt;Node1</title>
<path fill="none" stroke="midnightblue" d="M87,-120.191C87,-111.168 87,-100.994 87,-93.5707"/>
<polygon fill="midnightblue" stroke="midnightblue" points="83.5001,-120.362 87,-130.362 90.5001,-120.362 83.5001,-120.362"/>
</g>
<!-- Node3 -->
<g id="node4" class="node"><title>Node3</title>
<a xlink:href="classforcebalance_1_1BaseClass.html" target="_top" xlink:title="Provides some nifty functions that are common to all ForceBalance classes.">
<polygon fill="white" stroke="black" points="22,-188.5 22,-209.5 152,-209.5 152,-188.5 22,-188.5"/>
<text text-anchor="middle" x="87" y="-196.5" font-family="Ubuntu-R" font-size="10.00">forcebalance.BaseClass</text>
</a>
</g>
<!-- Node3&#45;&gt;Node2 -->
<g id="edge4" class="edge"><title>Node3&#45;&gt;Node2</title>
<path fill="none" stroke="midnightblue" d="M87,-178.191C87,-169.168 87,-158.994 87,-151.571"/>
<polygon fill="midnightblue" stroke="midnightblue" points="83.5001,-178.362 87,-188.362 90.5001,-178.362 83.5001,-178.362"/>
</g>
<!-- Node4 -->
<g id="node6" class="node"><title>Node4</title>
<polygon fill="white" stroke="#bfbfbf" points="64,-246.5 64,-267.5 110,-267.5 110,-246.5 64,-246.5"/>
<text text-anchor="middle" x="87" y="-254.5" font-family="Ubuntu-R" font-size="10.00">object</text>
</g>
<!-- Node4&#45;&gt;Node3 -->
<g id="edge6" class="edge"><title>Node4&#45;&gt;Node3</title>
<path fill="none" stroke="midnightblue" d="M87,-236.191C87,-227.168 87,-216.994 87,-209.571"/>
<polygon fill="midnightblue" stroke="midnightblue" points="83.5001,-236.362 87,-246.362 90.5001,-236.362 83.5001,-236.362"/>
</g>
</g>
</svg>
