<?xml version="1.0" encoding="UTF-8" standalone="no"?>
<!DOCTYPE svg PUBLIC "-//W3C//DTD SVG 1.1//EN"
 "http://www.w3.org/Graphics/SVG/1.1/DTD/svg11.dtd">
<!-- Generated by graphviz version 2.28.0 (20111219.2309)
 -->
<!-- Title: G Pages: 1 -->
<svg width="1792pt" height="180pt"
 viewBox="0.00 0.00 1792.00 180.00" xmlns="http://www.w3.org/2000/svg" xmlns:xlink="http://www.w3.org/1999/xlink">
<g id="graph1" class="graph" transform="scale(1 1) rotate(0) translate(4 176)">
<title>G</title>
<polygon fill="white" stroke="white" points="-4,5 -4,-176 1789,-176 1789,5 -4,5"/>
<!-- Node1 -->
<g id="node1" class="node"><title>Node1</title>
<polygon fill="#bfbfbf" stroke="black" points="0.5,-114.5 0.5,-133.5 293.5,-133.5 293.5,-114.5 0.5,-114.5"/>
<text text-anchor="middle" x="147" y="-121.5" font-family="Ubuntu-R" font-size="10.00">forcebalance.gmxio.Interaction_GMX.interaction_driver_all</text>
</g>
<!-- Node2 -->
<g id="node3" class="node"><title>Node2</title>
<a xlink:href="namespaceforcebalance_1_1nifty.html#ac37d4fe58ef70ed546ebfc45d12f7a5d" target="_top" xlink:title="forcebalance.nifty.getWorkQueue">
<polygon fill="white" stroke="black" points="368.5,-152.5 368.5,-171.5 541.5,-171.5 541.5,-152.5 368.5,-152.5"/>
<text text-anchor="middle" x="455" y="-159.5" font-family="Ubuntu-R" font-size="10.00">forcebalance.nifty.getWorkQueue</text>
</a>
</g>
<!-- Node1&#45;&gt;Node2 -->
<g id="edge2" class="edge"><title>Node1&#45;&gt;Node2</title>
<path fill="none" stroke="midnightblue" d="M224.822,-133.54C268.191,-138.926 322.524,-145.673 367.401,-151.246"/>
<polygon fill="midnightblue" stroke="midnightblue" points="367.057,-154.73 377.412,-152.489 367.92,-147.783 367.057,-154.73"/>
</g>
<!-- Node3 -->
<g id="node5" class="node"><title>Node3</title>
<a xlink:href="namespaceforcebalance_1_1nifty.html#abb8f59044961a12588e0653c2baa8b01" target="_top" xlink:title="forcebalance.nifty.warn_press_key">
<polygon fill="white" stroke="black" points="365.5,-114.5 365.5,-133.5 544.5,-133.5 544.5,-114.5 365.5,-114.5"/>
<text text-anchor="middle" x="455" y="-121.5" font-family="Ubuntu-R" font-size="10.00">forcebalance.nifty.warn_press_key</text>
</a>
</g>
<!-- Node1&#45;&gt;Node3 -->
<g id="edge4" class="edge"><title>Node1&#45;&gt;Node3</title>
<path fill="none" stroke="midnightblue" d="M293.83,-124C314.673,-124 335.693,-124 355.339,-124"/>
<polygon fill="midnightblue" stroke="midnightblue" points="355.479,-127.5 365.479,-124 355.479,-120.5 355.479,-127.5"/>
</g>
<!-- Node5 -->
<g id="node9" class="node"><title>Node5</title>
<a xlink:href="namespaceforcebalance_1_1qchemio.html#a067c1b4f6695fc5dc20b5de66114bb7f" target="_top" xlink:title="forcebalance.qchemio.QChem_Dielectric_Energy">
<polygon fill="white" stroke="black" points="330.5,-57.5 330.5,-76.5 579.5,-76.5 579.5,-57.5 330.5,-57.5"/>
<text text-anchor="middle" x="455" y="-64.5" font-family="Ubuntu-R" font-size="10.00">forcebalance.qchemio.QChem_Dielectric_Energy</text>
</a>
</g>
<!-- Node1&#45;&gt;Node5 -->
<g id="edge8" class="edge"><title>Node1&#45;&gt;Node5</title>
<path fill="none" stroke="midnightblue" d="M199.218,-114.459C252.584,-104.519 336.187,-88.9456 392.949,-78.3722"/>
<polygon fill="midnightblue" stroke="midnightblue" points="393.681,-81.7962 402.871,-76.5241 392.399,-74.9146 393.681,-81.7962"/>
</g>
<!-- Node4 -->
<g id="node7" class="node"><title>Node4</title>
<a xlink:href="namespaceforcebalance_1_1nifty.html#a2fc81730e7efa7d138dd86f733507bfc" target="_top" xlink:title="Similar to the bultin function map().">
<polygon fill="white" stroke="black" points="616,-133.5 616,-152.5 798,-152.5 798,-133.5 616,-133.5"/>
<text text-anchor="middle" x="707" y="-140.5" font-family="Ubuntu-R" font-size="10.00">forcebalance.nifty.concurrent_map</text>
</a>
</g>
<!-- Node3&#45;&gt;Node4 -->
<g id="edge6" class="edge"><title>Node3&#45;&gt;Node4</title>
<path fill="none" stroke="midnightblue" d="M544.845,-130.752C564.535,-132.249 585.534,-133.845 605.647,-135.373"/>
<polygon fill="midnightblue" stroke="midnightblue" points="605.519,-138.873 615.755,-136.141 606.049,-131.894 605.519,-138.873"/>
</g>
<!-- Node6 -->
<g id="node11" class="node"><title>Node6</title>
<a xlink:href="namespaceforcebalance_1_1nifty.html#ad432b88307e1178b0690c0d350b1af36" target="_top" xlink:title="forcebalance.nifty.GoInto">
<polygon fill="white" stroke="black" points="1192,-0.5 1192,-19.5 1326,-19.5 1326,-0.5 1192,-0.5"/>
<text text-anchor="middle" x="1259" y="-7.5" font-family="Ubuntu-R" font-size="10.00">forcebalance.nifty.GoInto</text>
</a>
</g>
<!-- Node5&#45;&gt;Node6 -->
<g id="edge10" class="edge"><title>Node5&#45;&gt;Node6</title>
<path fill="none" stroke="midnightblue" d="M492.901,-57.4898C525.152,-49.5797 573.359,-38.7227 616,-33 818.733,-5.79154 1060.5,-5.76361 1181.31,-7.93575"/>
<polygon fill="midnightblue" stroke="midnightblue" points="1181.5,-11.4398 1191.56,-8.13066 1181.63,-4.4411 1181.5,-11.4398"/>
</g>
<!-- Node7 -->
<g id="node13" class="node"><title>Node7</title>
<a xlink:href="namespaceforcebalance_1_1nifty.html#a673f4a044169f5d8d822823989a836a7" target="_top" xlink:title="Submit a job to the Work Queue.">
<polygon fill="white" stroke="black" points="632,-57.5 632,-76.5 782,-76.5 782,-57.5 632,-57.5"/>
<text text-anchor="middle" x="707" y="-64.5" font-family="Ubuntu-R" font-size="10.00">forcebalance.nifty.queue_up</text>
</a>
</g>
<!-- Node5&#45;&gt;Node7 -->
<g id="edge12" class="edge"><title>Node5&#45;&gt;Node7</title>
<path fill="none" stroke="midnightblue" d="M579.535,-67C593.749,-67 607.989,-67 621.518,-67"/>
<polygon fill="midnightblue" stroke="midnightblue" points="621.714,-70.5001 631.714,-67 621.713,-63.5001 621.714,-70.5001"/>
</g>
<!-- Node9 -->
<g id="node17" class="node"><title>Node9</title>
<a xlink:href="namespaceforcebalance_1_1nifty.html#a576de8c5b6f236280e07e73e39b2ab7c" target="_top" xlink:title="This function waits until the work queue is completely empty.">
<polygon fill="white" stroke="black" points="1016,-19.5 1016,-38.5 1156,-38.5 1156,-19.5 1016,-19.5"/>
<text text-anchor="middle" x="1086" y="-26.5" font-family="Ubuntu-R" font-size="10.00">forcebalance.nifty.wq_wait</text>
</a>
</g>
<!-- Node5&#45;&gt;Node9 -->
<g id="edge32" class="edge"><title>Node5&#45;&gt;Node9</title>
<path fill="none" stroke="midnightblue" d="M525.978,-57.4955C553.93,-54.0116 586.442,-50.3502 616,-48 752.631,-37.1364 912.176,-32.3462 1005.55,-30.3383"/>
<polygon fill="midnightblue" stroke="midnightblue" points="1005.84,-33.833 1015.76,-30.124 1005.69,-26.8345 1005.84,-33.833"/>
</g>
<!-- Node14 -->
<g id="node28" class="node"><title>Node14</title>
<a xlink:href="namespaceforcebalance_1_1nifty.html#ab04e8690d099db2379dc860e0d040120" target="_top" xlink:title="forcebalance.nifty.Leave">
<polygon fill="white" stroke="black" points="1193.5,-95.5 1193.5,-114.5 1324.5,-114.5 1324.5,-95.5 1193.5,-95.5"/>
<text text-anchor="middle" x="1259" y="-102.5" font-family="Ubuntu-R" font-size="10.00">forcebalance.nifty.Leave</text>
</a>
</g>
<!-- Node5&#45;&gt;Node14 -->
<g id="edge30" class="edge"><title>Node5&#45;&gt;Node14</title>
<path fill="none" stroke="midnightblue" d="M524.782,-76.5217C552.995,-80.0741 586.011,-83.78 616,-86 820.761,-101.158 1063.1,-104.34 1183.03,-104.932"/>
<polygon fill="midnightblue" stroke="midnightblue" points="1183.19,-108.433 1193.2,-104.978 1183.22,-101.433 1183.19,-108.433"/>
</g>
<!-- Node8 -->
<g id="node15" class="node"><title>Node8</title>
<a xlink:href="namespaceforcebalance_1_1nifty.html#a374aac2ef003be02fab49b20ff0a82f0" target="_top" xlink:title="This function waits ten seconds to see if a task in the Work Queue has finished.">
<polygon fill="white" stroke="black" points="834,-57.5 834,-76.5 980,-76.5 980,-57.5 834,-57.5"/>
<text text-anchor="middle" x="907" y="-64.5" font-family="Ubuntu-R" font-size="10.00">forcebalance.nifty.wq_wait1</text>
</a>
</g>
<!-- Node7&#45;&gt;Node8 -->
<g id="edge14" class="edge"><title>Node7&#45;&gt;Node8</title>
<path fill="none" stroke="midnightblue" d="M782.009,-67C795.489,-67 809.63,-67 823.341,-67"/>
<polygon fill="midnightblue" stroke="midnightblue" points="823.724,-70.5001 833.724,-67 823.724,-63.5001 823.724,-70.5001"/>
</g>
<!-- Node8&#45;&gt;Node9 -->
<g id="edge16" class="edge"><title>Node8&#45;&gt;Node9</title>
<path fill="none" stroke="midnightblue" d="M952.665,-57.411C976.337,-52.3287 1005.61,-46.0446 1030.6,-40.6797"/>
<polygon fill="midnightblue" stroke="midnightblue" points="1031.61,-44.0412 1040.66,-38.5201 1030.14,-37.1972 1031.61,-44.0412"/>
</g>
<!-- Node10 -->
<g id="node20" class="node"><title>Node10</title>
<a xlink:href="namespaceforcebalance_1_1nifty.html#ab5417ad84c6c760965cd195c6c387914" target="_top" xlink:title="forcebalance.nifty.onefile">
<polygon fill="white" stroke="black" points="1019,-57.5 1019,-76.5 1153,-76.5 1153,-57.5 1019,-57.5"/>
<text text-anchor="middle" x="1086" y="-64.5" font-family="Ubuntu-R" font-size="10.00">forcebalance.nifty.onefile</text>
</a>
</g>
<!-- Node8&#45;&gt;Node10 -->
<g id="edge20" class="edge"><title>Node8&#45;&gt;Node10</title>
<path fill="none" stroke="midnightblue" d="M980.248,-67C989.655,-67 999.315,-67 1008.78,-67"/>
<polygon fill="midnightblue" stroke="midnightblue" points="1008.96,-70.5001 1018.96,-67 1008.96,-63.5001 1008.96,-70.5001"/>
</g>
<!-- Node9&#45;&gt;Node6 -->
<g id="edge18" class="edge"><title>Node9&#45;&gt;Node6</title>
<path fill="none" stroke="midnightblue" d="M1156.06,-21.3267C1164.52,-20.3866 1173.2,-19.4217 1181.76,-18.4707"/>
<polygon fill="midnightblue" stroke="midnightblue" points="1182.18,-21.946 1191.73,-17.363 1181.41,-14.9888 1182.18,-21.946"/>
</g>
<!-- Node11 -->
<g id="node22" class="node"><title>Node11</title>
<a xlink:href="namespaceforcebalance_1_1nifty.html#ac9ab6c5543a2e3080061e0024850edf3" target="_top" xlink:title="forcebalance.nifty.allsplit">
<polygon fill="white" stroke="black" points="1192.5,-57.5 1192.5,-76.5 1325.5,-76.5 1325.5,-57.5 1192.5,-57.5"/>
<text text-anchor="middle" x="1259" y="-64.5" font-family="Ubuntu-R" font-size="10.00">forcebalance.nifty.allsplit</text>
</a>
</g>
<!-- Node10&#45;&gt;Node11 -->
<g id="edge22" class="edge"><title>Node10&#45;&gt;Node11</title>
<path fill="none" stroke="midnightblue" d="M1153.11,-67C1162.67,-67 1172.57,-67 1182.29,-67"/>
<polygon fill="midnightblue" stroke="midnightblue" points="1182.34,-70.5001 1192.34,-67 1182.34,-63.5001 1182.34,-70.5001"/>
</g>
<!-- Node10&#45;&gt;Node14 -->
<g id="edge28" class="edge"><title>Node10&#45;&gt;Node14</title>
<path fill="none" stroke="midnightblue" d="M1130.15,-76.589C1152.92,-81.6487 1181.05,-87.8996 1205.12,-93.2488"/>
<polygon fill="midnightblue" stroke="midnightblue" points="1204.64,-96.7272 1215.16,-95.4799 1206.16,-89.8939 1204.64,-96.7272"/>
</g>
<!-- Node12 -->
<g id="node24" class="node"><title>Node12</title>
<a xlink:href="namespaceforcebalance_1_1nifty.html#ae87c7def5f8edf2ec30737bdb1d2636f" target="_top" xlink:title="forcebalance.nifty.MissingFileInspection">
<polygon fill="white" stroke="black" points="1362,-57.5 1362,-76.5 1564,-76.5 1564,-57.5 1362,-57.5"/>
<text text-anchor="middle" x="1463" y="-64.5" font-family="Ubuntu-R" font-size="10.00">forcebalance.nifty.MissingFileInspection</text>
</a>
</g>
<!-- Node11&#45;&gt;Node12 -->
<g id="edge24" class="edge"><title>Node11&#45;&gt;Node12</title>
<path fill="none" stroke="midnightblue" d="M1325.58,-67C1334.04,-67 1342.87,-67 1351.8,-67"/>
<polygon fill="midnightblue" stroke="midnightblue" points="1351.91,-70.5001 1361.91,-67 1351.91,-63.5001 1351.91,-70.5001"/>
</g>
<!-- Node13 -->
<g id="node26" class="node"><title>Node13</title>
<a xlink:href="namespaceforcebalance_1_1nifty.html#a0cf4e58f90acf20e3d6224be2354082c" target="_top" xlink:title="forcebalance.nifty.link_dir_contents">
<polygon fill="white" stroke="black" points="1600.5,-57.5 1600.5,-76.5 1783.5,-76.5 1783.5,-57.5 1600.5,-57.5"/>
<text text-anchor="middle" x="1692" y="-64.5" font-family="Ubuntu-R" font-size="10.00">forcebalance.nifty.link_dir_contents</text>
</a>
</g>
<!-- Node12&#45;&gt;Node13 -->
<g id="edge26" class="edge"><title>Node12&#45;&gt;Node13</title>
<path fill="none" stroke="midnightblue" d="M1564.23,-67C1572.85,-67 1581.57,-67 1590.2,-67"/>
<polygon fill="midnightblue" stroke="midnightblue" points="1590.27,-70.5001 1600.27,-67 1590.27,-63.5001 1590.27,-70.5001"/>
</g>
</g>
</svg>
