<?xml version="1.0" encoding="UTF-8" standalone="no"?>
<!DOCTYPE svg PUBLIC "-//W3C//DTD SVG 1.1//EN"
 "http://www.w3.org/Graphics/SVG/1.1/DTD/svg11.dtd">
<!-- Generated by graphviz version 2.26.3 (20100126.1600)
 -->
<!-- Title: forcebalance.openmmio.OpenMM.molecular_dynamics Pages: 1 -->
<svg width="368pt" height="134pt"
 viewBox="0.00 0.00 368.00 134.00" xmlns="http://www.w3.org/2000/svg" xmlns:xlink="http://www.w3.org/1999/xlink">
<g id="graph1" class="graph" transform="scale(1 1) rotate(0) translate(4 130)">
<title>forcebalance.openmmio.OpenMM.molecular_dynamics</title>
<polygon fill="white" stroke="white" points="-4,5 -4,-130 365,-130 365,5 -4,5"/>
<!-- Node1 -->
<g id="node1" class="node"><title>Node1</title>
<polygon fill="#bfbfbf" stroke="black" points="0.5,-40 0.5,-74 161.5,-74 161.5,-40 0.5,-40"/>
<text text-anchor="start" x="8.5" y="-61" font-family="Ubuntu-R" font-size="10.00">forcebalance.openmmio.Open</text>
<text text-anchor="middle" x="81" y="-48" font-family="Ubuntu-R" font-size="10.00">MM.molecular_dynamics</text>
</g>
<!-- Node2 -->
<g id="node3" class="node"><title>Node2</title>
<a xlink:href="classforcebalance_1_1openmmio_1_1OpenMM.html#a8f584613e1512c0963c62427f759c8b0" target="_top" xlink:title="Create the simulation object, or update the force field parameters in the existing simulation object...">
<polygon fill="white" stroke="black" points="198.5,-92 198.5,-126 359.5,-126 359.5,-92 198.5,-92"/>
<text text-anchor="start" x="206.5" y="-113" font-family="Ubuntu-R" font-size="10.00">forcebalance.openmmio.Open</text>
<text text-anchor="middle" x="279" y="-100" font-family="Ubuntu-R" font-size="10.00">MM.update_simulation</text>
</a>
</g>
<!-- Node1&#45;&gt;Node2 -->
<g id="edge2" class="edge"><title>Node1&#45;&gt;Node2</title>
<path fill="none" stroke="midnightblue" d="M145.833,-74.0267C164.465,-78.92 184.937,-84.2967 204.123,-89.3353"/>
<polygon fill="midnightblue" stroke="midnightblue" points="203.461,-92.78 214.022,-91.935 205.239,-86.0096 203.461,-92.78"/>
</g>
<!-- Node3 -->
<g id="node5" class="node"><title>Node3</title>
<a xlink:href="classforcebalance_1_1openmmio_1_1OpenMM.html#a77e08b50b78e299cc6c80c09ea4975a6" target="_top" xlink:title="Set the positions and periodic box vectors to one of the stored coordinates. ">
<polygon fill="white" stroke="black" points="198.5,-40 198.5,-74 359.5,-74 359.5,-40 198.5,-40"/>
<text text-anchor="start" x="206.5" y="-61" font-family="Ubuntu-R" font-size="10.00">forcebalance.openmmio.Open</text>
<text text-anchor="middle" x="279" y="-48" font-family="Ubuntu-R" font-size="10.00">MM.set_positions</text>
</a>
</g>
<!-- Node1&#45;&gt;Node3 -->
<g id="edge4" class="edge"><title>Node1&#45;&gt;Node3</title>
<path fill="none" stroke="midnightblue" d="M161.534,-57C170.23,-57 179.123,-57 187.931,-57"/>
<polygon fill="midnightblue" stroke="midnightblue" points="188.216,-60.5001 198.216,-57 188.216,-53.5001 188.216,-60.5001"/>
</g>
<!-- Node4 -->
<g id="node7" class="node"><title>Node4</title>
<a xlink:href="namespaceforcebalance_1_1nifty.html#a185aa094549d280fdc18479459980164" target="_top" xlink:title="If trying to write to a symbolic link, remove it first. ">
<polygon fill="white" stroke="black" points="212,-0.5 212,-21.5 346,-21.5 346,-0.5 212,-0.5"/>
<text text-anchor="middle" x="279" y="-8.5" font-family="Ubuntu-R" font-size="10.00">forcebalance.nifty.wopen</text>
</a>
</g>
<!-- Node1&#45;&gt;Node4 -->
<g id="edge6" class="edge"><title>Node1&#45;&gt;Node4</title>
<path fill="none" stroke="midnightblue" d="M154.447,-39.9367C177.344,-34.6171 202.199,-28.8427 223.64,-23.8615"/>
<polygon fill="midnightblue" stroke="midnightblue" points="224.6,-27.2318 233.548,-21.5595 223.015,-20.4134 224.6,-27.2318"/>
</g>
</g>
</svg>
