<?xml version="1.0" encoding="UTF-8" standalone="no"?>
<!DOCTYPE svg PUBLIC "-//W3C//DTD SVG 1.1//EN"
 "http://www.w3.org/Graphics/SVG/1.1/DTD/svg11.dtd">
<!-- Generated by graphviz version 2.32.0 (20130801.1845)
 -->
<!-- Title: forcebalance.Mol2.mol2.set_mol_name Pages: 1 -->
<svg width="830pt" height="118pt"
 viewBox="0.00 0.00 830.00 118.00" xmlns="http://www.w3.org/2000/svg" xmlns:xlink="http://www.w3.org/1999/xlink">
<g id="graph0" class="graph" transform="scale(1 1) rotate(0) translate(4 114)">
<title>forcebalance.Mol2.mol2.set_mol_name</title>
<polygon fill="white" stroke="white" points="-4,5 -4,-114 827,-114 827,5 -4,5"/>
<!-- Node1 -->
<g id="node1" class="node"><title>Node1</title>
<polygon fill="#bfbfbf" stroke="black" points="0.048,-45 0.048,-77 127.952,-77 127.952,-45 0.048,-45"/>
<text text-anchor="start" x="8.048" y="-64" font-family="Ubuntu-R" font-size="10.00">forcebalance.Mol2.mol2.set</text>
<text text-anchor="middle" x="64" y="-52" font-family="Ubuntu-R" font-size="10.00">_mol_name</text>
</g>
<!-- Node2 -->
<g id="node2" class="node"><title>Node2</title>
<g id="a_node2"><a xlink:href="classforcebalance_1_1Mol2_1_1mol2.html#ab5de4b8eef6e851d9be12ecb92cf8f86" target="_top" xlink:title="number of features (integer)">
<polygon fill="white" stroke="black" points="164.048,-45 164.048,-77 291.952,-77 291.952,-45 164.048,-45"/>
<text text-anchor="start" x="172.048" y="-64" font-family="Ubuntu-R" font-size="10.00">forcebalance.Mol2.mol2.set</text>
<text text-anchor="middle" x="228" y="-52" font-family="Ubuntu-R" font-size="10.00">_num_feat</text>
</a>
</g>
</g>
<!-- Node1&#45;&gt;Node2 -->
<g id="edge1" class="edge"><title>Node1&#45;&gt;Node2</title>
<path fill="none" stroke="midnightblue" d="M128.097,-61C136.435,-61 145.038,-61 153.53,-61"/>
<polygon fill="midnightblue" stroke="midnightblue" points="153.808,-64.5001 163.808,-61 153.808,-57.5001 153.808,-64.5001"/>
</g>
<!-- Node3 -->
<g id="node3" class="node"><title>Node3</title>
<g id="a_node3"><a xlink:href="classforcebalance_1_1Mol2_1_1mol2.html#a8d49f0024dfe625e1b43a244ec76f3b3" target="_top" xlink:title="Parse a series of text lines, and setup compound information.">
<polygon fill="white" stroke="black" points="328.053,-51 328.053,-71 465.947,-71 465.947,-51 328.053,-51"/>
<text text-anchor="middle" x="397" y="-58" font-family="Ubuntu-R" font-size="10.00">forcebalance.Mol2.mol2.parse</text>
</a>
</g>
</g>
<!-- Node2&#45;&gt;Node3 -->
<g id="edge2" class="edge"><title>Node2&#45;&gt;Node3</title>
<path fill="none" stroke="midnightblue" d="M292.136,-61C300.567,-61 309.293,-61 317.941,-61"/>
<polygon fill="midnightblue" stroke="midnightblue" points="318.035,-64.5001 328.035,-61 318.035,-57.5001 318.035,-64.5001"/>
</g>
<!-- Node4 -->
<g id="node4" class="node"><title>Node4</title>
<g id="a_node4"><a xlink:href="classforcebalance_1_1Mol2_1_1mol2.html#af5a261aefed1c65fd5f56b5b30e69995" target="_top" xlink:title="return the atom instance given its atom identifier">
<polygon fill="white" stroke="black" points="501.994,-90 501.994,-110 656.006,-110 656.006,-90 501.994,-90"/>
<text text-anchor="middle" x="579" y="-97" font-family="Ubuntu-R" font-size="10.00">forcebalance.Mol2.mol2.get_atom</text>
</a>
</g>
</g>
<!-- Node3&#45;&gt;Node4 -->
<g id="edge3" class="edge"><title>Node3&#45;&gt;Node4</title>
<path fill="none" stroke="midnightblue" d="M444.354,-71.0435C467.975,-76.1612 496.887,-82.4256 521.771,-87.8171"/>
<polygon fill="midnightblue" stroke="midnightblue" points="521.288,-91.2936 531.803,-89.9906 522.771,-84.4523 521.288,-91.2936"/>
</g>
<!-- Node5 -->
<g id="node5" class="node"><title>Node5</title>
<g id="a_node5"><a xlink:href="classforcebalance_1_1Mol2_1_1mol2.html#a2d2b34613f2b72ad3a7fcdc94a3de994" target="_top" xlink:title="return a dictionnary of atom instances bonded to the atom, and their types">
<polygon fill="white" stroke="black" points="692.492,-67 692.492,-99 821.508,-99 821.508,-67 692.492,-67"/>
<text text-anchor="start" x="700.492" y="-86" font-family="Ubuntu-R" font-size="10.00">forcebalance.Mol2.mol2.get</text>
<text text-anchor="middle" x="757" y="-74" font-family="Ubuntu-R" font-size="10.00">_bonded_atoms</text>
</a>
</g>
</g>
<!-- Node3&#45;&gt;Node5 -->
<g id="edge5" class="edge"><title>Node3&#45;&gt;Node5</title>
<path fill="none" stroke="midnightblue" d="M466.18,-65.1898C527.867,-68.9807 618.505,-74.5506 681.949,-78.4494"/>
<polygon fill="midnightblue" stroke="midnightblue" points="682.086,-81.9643 692.282,-79.0844 682.516,-74.9775 682.086,-81.9643"/>
</g>
<!-- Node6 -->
<g id="node6" class="node"><title>Node6</title>
<g id="a_node6"><a xlink:href="classforcebalance_1_1Mol2_1_1mol2.html#aa5a8b41dee69923e1854b0385ba588a4" target="_top" xlink:title="modify atom types to specify donnor, acceptor, or both">
<polygon fill="white" stroke="black" points="515.048,-0 515.048,-32 642.952,-32 642.952,-0 515.048,-0"/>
<text text-anchor="start" x="523.048" y="-19" font-family="Ubuntu-R" font-size="10.00">forcebalance.Mol2.mol2.set</text>
<text text-anchor="middle" x="579" y="-7" font-family="Ubuntu-R" font-size="10.00">_donnor_acceptor_atoms</text>
</a>
</g>
</g>
<!-- Node3&#45;&gt;Node6 -->
<g id="edge6" class="edge"><title>Node3&#45;&gt;Node6</title>
<path fill="none" stroke="midnightblue" d="M438.396,-50.9011C457.989,-46.0028 482.143,-39.9642 504.82,-34.2949"/>
<polygon fill="midnightblue" stroke="midnightblue" points="505.919,-37.6282 514.771,-31.8072 504.221,-30.8372 505.919,-37.6282"/>
</g>
<!-- Node4&#45;&gt;Node5 -->
<g id="edge4" class="edge"><title>Node4&#45;&gt;Node5</title>
<path fill="none" stroke="midnightblue" d="M656.173,-92.6424C664.853,-91.804 673.69,-90.9504 682.337,-90.1152"/>
<polygon fill="midnightblue" stroke="midnightblue" points="682.763,-93.5904 692.38,-89.1451 682.09,-86.6228 682.763,-93.5904"/>
</g>
<!-- Node7 -->
<g id="node7" class="node"><title>Node7</title>
<g id="a_node7"><a xlink:href="classforcebalance_1_1Mol2_1_1mol2.html#ad2182f9984dda90dfbd036d70921d5d8" target="_top" xlink:title="forcebalance.Mol2.mol2.\l__init__">
<polygon fill="white" stroke="black" points="698.601,-0 698.601,-32 815.399,-32 815.399,-0 698.601,-0"/>
<text text-anchor="start" x="706.601" y="-19" font-family="Ubuntu-R" font-size="10.00">forcebalance.Mol2.mol2.</text>
<text text-anchor="middle" x="757" y="-7" font-family="Ubuntu-R" font-size="10.00">__init__</text>
</a>
</g>
</g>
<!-- Node6&#45;&gt;Node7 -->
<g id="edge7" class="edge"><title>Node6&#45;&gt;Node7</title>
<path fill="none" stroke="midnightblue" d="M643.043,-16C657.709,-16 673.383,-16 688.243,-16"/>
<polygon fill="midnightblue" stroke="midnightblue" points="688.378,-19.5001 698.378,-16 688.378,-12.5001 688.378,-19.5001"/>
</g>
</g>
</svg>
