<?xml version="1.0" encoding="UTF-8" standalone="no"?>
<!DOCTYPE svg PUBLIC "-//W3C//DTD SVG 1.1//EN"
 "http://www.w3.org/Graphics/SVG/1.1/DTD/svg11.dtd">
<!-- Generated by graphviz version 2.26.3 (20100126.1600)
 -->
<!-- Title: forcebalance.psi4io.THCDF_Psi4.driver Pages: 1 -->
<svg width="518pt" height="139pt"
 viewBox="0.00 0.00 518.00 139.00" xmlns="http://www.w3.org/2000/svg" xmlns:xlink="http://www.w3.org/1999/xlink">
<g id="graph1" class="graph" transform="scale(1 1) rotate(0) translate(4 135)">
<title>forcebalance.psi4io.THCDF_Psi4.driver</title>
<polygon fill="white" stroke="white" points="-4,5 -4,-135 515,-135 515,5 -4,5"/>
<!-- Node1 -->
<g id="node1" class="node"><title>Node1</title>
<polygon fill="#bfbfbf" stroke="black" points="0,-52 0,-86 144,-86 144,-52 0,-52"/>
<text text-anchor="start" x="8" y="-73" font-family="Ubuntu-R" font-size="10.00">forcebalance.psi4io.THCDF</text>
<text text-anchor="middle" x="72" y="-60" font-family="Ubuntu-R" font-size="10.00">_Psi4.driver</text>
</g>
<!-- Node2 -->
<g id="node3" class="node"><title>Node2</title>
<a xlink:href="classforcebalance_1_1psi4io_1_1THCDF__Psi4.html#ae4389941b46ce11689f45115fdb61b39" target="_top" xlink:title="forcebalance.psi4io.THCDF\l_Psi4.write_nested_destroy">
<polygon fill="white" stroke="black" points="180,-52 180,-86 326,-86 326,-52 180,-52"/>
<text text-anchor="start" x="188" y="-73" font-family="Ubuntu-R" font-size="10.00">forcebalance.psi4io.THCDF</text>
<text text-anchor="middle" x="253" y="-60" font-family="Ubuntu-R" font-size="10.00">_Psi4.write_nested_destroy</text>
</a>
</g>
<!-- Node1&#45;&gt;Node2 -->
<g id="edge2" class="edge"><title>Node1&#45;&gt;Node2</title>
<path fill="none" stroke="midnightblue" d="M144.056,-62.3762C152.488,-62.2593 161.143,-62.2236 169.712,-62.2691"/>
<polygon fill="midnightblue" stroke="midnightblue" points="169.68,-65.7688 179.712,-62.3597 169.744,-58.7691 169.68,-65.7688"/>
</g>
<!-- Node3 -->
<g id="node6" class="node"><title>Node3</title>
<a xlink:href="namespaceforcebalance_1_1finite__difference.html#ad84d3e385db1190e7d8ef58bc08a6c52" target="_top" xlink:title="Invoking this function from anywhere will tell us whether we&#39;re being called by a finite&#45;difference f...">
<polygon fill="white" stroke="black" points="384,-97 384,-131 488,-131 488,-97 384,-97"/>
<text text-anchor="start" x="392" y="-118" font-family="Ubuntu-R" font-size="10.00">forcebalance.finite</text>
<text text-anchor="middle" x="436" y="-105" font-family="Ubuntu-R" font-size="10.00">_difference.in_fd</text>
</a>
</g>
<!-- Node1&#45;&gt;Node3 -->
<g id="edge12" class="edge"><title>Node1&#45;&gt;Node3</title>
<path fill="none" stroke="midnightblue" d="M135.332,-86.0594C149.915,-89.4808 165.424,-92.72 180,-95 245.634,-105.267 321.629,-110.019 373.667,-112.198"/>
<polygon fill="midnightblue" stroke="midnightblue" points="373.613,-115.699 383.745,-112.6 373.892,-108.704 373.613,-115.699"/>
</g>
<!-- Node5 -->
<g id="node10" class="node"><title>Node5</title>
<a xlink:href="namespaceforcebalance_1_1nifty.html#abb8f59044961a12588e0653c2baa8b01" target="_top" xlink:title="forcebalance.nifty.warn\l_press_key">
<polygon fill="white" stroke="black" points="190.5,-0 190.5,-34 315.5,-34 315.5,-0 190.5,-0"/>
<text text-anchor="start" x="198.5" y="-21" font-family="Ubuntu-R" font-size="10.00">forcebalance.nifty.warn</text>
<text text-anchor="middle" x="253" y="-8" font-family="Ubuntu-R" font-size="10.00">_press_key</text>
</a>
</g>
<!-- Node1&#45;&gt;Node5 -->
<g id="edge10" class="edge"><title>Node1&#45;&gt;Node5</title>
<path fill="none" stroke="midnightblue" d="M131.266,-51.9733C147.986,-47.1697 166.327,-41.9005 183.585,-36.9424"/>
<polygon fill="midnightblue" stroke="midnightblue" points="184.956,-40.1902 193.601,-34.065 183.023,-33.4624 184.956,-40.1902"/>
</g>
<!-- Node2&#45;&gt;Node1 -->
<g id="edge4" class="edge"><title>Node2&#45;&gt;Node1</title>
<path fill="none" stroke="midnightblue" d="M179.712,-75.6403C171.35,-75.7481 162.786,-75.7764 154.318,-75.7254"/>
<polygon fill="midnightblue" stroke="midnightblue" points="154.09,-72.2231 144.056,-75.6238 154.021,-79.2227 154.09,-72.2231"/>
</g>
<!-- Node2&#45;&gt;Node3 -->
<g id="edge6" class="edge"><title>Node2&#45;&gt;Node3</title>
<path fill="none" stroke="midnightblue" d="M322.184,-86.0126C339.116,-90.176 357.133,-94.6065 373.719,-98.685"/>
<polygon fill="midnightblue" stroke="midnightblue" points="373.292,-102.184 383.839,-101.173 374.964,-95.3868 373.292,-102.184"/>
</g>
<!-- Node4 -->
<g id="node8" class="node"><title>Node4</title>
<a xlink:href="namespaceforcebalance_1_1leastsq.html#a8e7ef329e27aff738bc91dd79bd2dd1c" target="_top" xlink:title="forcebalance.leastsq.Check\lBasis">
<polygon fill="white" stroke="black" points="362,-45 362,-79 510,-79 510,-45 362,-45"/>
<text text-anchor="start" x="370" y="-66" font-family="Ubuntu-R" font-size="10.00">forcebalance.leastsq.Check</text>
<text text-anchor="middle" x="436" y="-53" font-family="Ubuntu-R" font-size="10.00">Basis</text>
</a>
</g>
<!-- Node2&#45;&gt;Node4 -->
<g id="edge8" class="edge"><title>Node2&#45;&gt;Node4</title>
<path fill="none" stroke="midnightblue" d="M326.115,-66.2032C334.559,-65.8803 343.22,-65.5489 351.796,-65.2209"/>
<polygon fill="midnightblue" stroke="midnightblue" points="351.946,-68.7178 361.805,-64.8381 351.678,-61.7229 351.946,-68.7178"/>
</g>
</g>
</svg>
