<?xml version="1.0" encoding="UTF-8" standalone="no"?>
<!DOCTYPE svg PUBLIC "-//W3C//DTD SVG 1.1//EN"
 "http://www.w3.org/Graphics/SVG/1.1/DTD/svg11.dtd">
<!-- Generated by graphviz version 2.28.0 (20111219.2309)
 -->
<!-- Title: forcebalance.openmmio.Liquid_OpenMM.polarization_correction Pages: 1 -->
<svg width="2842pt" height="158pt"
 viewBox="0.00 0.00 2842.00 158.00" xmlns="http://www.w3.org/2000/svg" xmlns:xlink="http://www.w3.org/1999/xlink">
<g id="graph1" class="graph" transform="scale(1 1) rotate(0) translate(4 154)">
<title>forcebalance.openmmio.Liquid_OpenMM.polarization_correction</title>
<polygon fill="white" stroke="white" points="-4,5 -4,-154 2839,-154 2839,5 -4,5"/>
<!-- Node1 -->
<g id="node1" class="node"><title>Node1</title>
<polygon fill="#bfbfbf" stroke="black" points="0,-73 0,-103 176,-103 176,-73 0,-73"/>
<text text-anchor="start" x="8" y="-91" font-family="Ubuntu-R" font-size="10.00">forcebalance.openmmio.Liquid</text>
<text text-anchor="middle" x="88" y="-80" font-family="Ubuntu-R" font-size="10.00">_OpenMM.polarization_correction</text>
</g>
<!-- Node2 -->
<g id="node3" class="node"><title>Node2</title>
<a xlink:href="namespaceforcebalance_1_1openmmio.html#af623fa5af97de6c6a0bc5f98ce8db432" target="_top" xlink:title="Given a set of OpenMM&#45;compatible positions and a System object, compute the correct virtual site posi...">
<polygon fill="white" stroke="black" points="412,-120 412,-150 574,-150 574,-120 412,-120"/>
<text text-anchor="start" x="420" y="-138" font-family="Ubuntu-R" font-size="10.00">forcebalance.openmmio.Reset</text>
<text text-anchor="middle" x="493" y="-127" font-family="Ubuntu-R" font-size="10.00">VirtualSites</text>
</a>
</g>
<!-- Node1&#45;&gt;Node2 -->
<g id="edge2" class="edge"><title>Node1&#45;&gt;Node2</title>
<path fill="none" stroke="midnightblue" d="M117.873,-103.143C142.215,-115.006 178.364,-130.547 212,-137 274.585,-149.007 346.495,-148.193 401.769,-144.54"/>
<polygon fill="midnightblue" stroke="midnightblue" points="402.161,-148.021 411.89,-143.827 401.669,-141.038 402.161,-148.021"/>
</g>
<!-- Node14 -->
<g id="node27" class="node"><title>Node14</title>
<a xlink:href="namespaceforcebalance_1_1openmmio.html#a8a2081dcaf027b9b9ab224e22680714d" target="_top" xlink:title="Return the current dipole moment in Debye. ">
<polygon fill="white" stroke="black" points="218,-98 218,-128 370,-128 370,-98 218,-98"/>
<text text-anchor="start" x="226" y="-116" font-family="Ubuntu-R" font-size="10.00">forcebalance.openmmio.get</text>
<text text-anchor="middle" x="294" y="-105" font-family="Ubuntu-R" font-size="10.00">_dipole</text>
</a>
</g>
<!-- Node1&#45;&gt;Node14 -->
<g id="edge26" class="edge"><title>Node1&#45;&gt;Node14</title>
<path fill="none" stroke="midnightblue" d="M176.106,-98.6748C186.611,-99.9621 197.331,-101.276 207.807,-102.56"/>
<polygon fill="midnightblue" stroke="midnightblue" points="207.411,-106.037 217.762,-103.78 208.262,-99.0892 207.411,-106.037"/>
</g>
<!-- Node15 -->
<g id="node30" class="node"><title>Node15</title>
<a xlink:href="namespaceforcebalance_1_1finite__difference.html#ad84d3e385db1190e7d8ef58bc08a6c52" target="_top" xlink:title="Invoking this function from anywhere will tell us whether we&#39;re being called by a finite&#45;difference f...">
<polygon fill="white" stroke="black" points="242,-49 242,-79 346,-79 346,-49 242,-49"/>
<text text-anchor="start" x="250" y="-67" font-family="Ubuntu-R" font-size="10.00">forcebalance.finite</text>
<text text-anchor="middle" x="294" y="-56" font-family="Ubuntu-R" font-size="10.00">_difference.in_fd</text>
</a>
</g>
<!-- Node1&#45;&gt;Node15 -->
<g id="edge30" class="edge"><title>Node1&#45;&gt;Node15</title>
<path fill="none" stroke="midnightblue" d="M176.106,-77.7522C194.845,-75.5476 214.27,-73.2624 231.776,-71.2028"/>
<polygon fill="midnightblue" stroke="midnightblue" points="232.319,-74.6631 241.842,-70.0186 231.502,-67.7111 232.319,-74.6631"/>
</g>
<!-- Node16 -->
<g id="node32" class="node"><title>Node16</title>
<a xlink:href="classforcebalance_1_1openmmio_1_1Liquid__OpenMM.html#a92379bd73128234b309fae789946035d" target="_top" xlink:title="forcebalance.openmmio.Liquid\l_OpenMM.__init__">
<polygon fill="white" stroke="black" points="212,-0 212,-30 376,-30 376,-0 212,-0"/>
<text text-anchor="start" x="220" y="-18" font-family="Ubuntu-R" font-size="10.00">forcebalance.openmmio.Liquid</text>
<text text-anchor="middle" x="294" y="-7" font-family="Ubuntu-R" font-size="10.00">_OpenMM.__init__</text>
</a>
</g>
<!-- Node1&#45;&gt;Node16 -->
<g id="edge32" class="edge"><title>Node1&#45;&gt;Node16</title>
<path fill="none" stroke="midnightblue" d="M124.203,-72.9854C148.627,-62.8137 182.028,-49.3863 212,-39 217.82,-36.983 223.911,-34.9819 230.027,-33.0457"/>
<polygon fill="midnightblue" stroke="midnightblue" points="231.112,-36.3736 239.623,-30.0635 229.035,-29.689 231.112,-36.3736"/>
</g>
<!-- Node3 -->
<g id="node5" class="node"><title>Node3</title>
<a xlink:href="namespaceforcebalance_1_1openmmio.html#a792a195b31612f2140b35927fe28fa1a" target="_top" xlink:title="forcebalance.openmmio.Copy\lAmoebaBondParameters">
<polygon fill="white" stroke="black" points="645,-120 645,-150 805,-150 805,-120 645,-120"/>
<text text-anchor="start" x="653" y="-138" font-family="Ubuntu-R" font-size="10.00">forcebalance.openmmio.Copy</text>
<text text-anchor="middle" x="725" y="-127" font-family="Ubuntu-R" font-size="10.00">AmoebaBondParameters</text>
</a>
</g>
<!-- Node2&#45;&gt;Node3 -->
<g id="edge4" class="edge"><title>Node2&#45;&gt;Node3</title>
<path fill="none" stroke="midnightblue" d="M574.12,-135C593.75,-135 614.879,-135 634.902,-135"/>
<polygon fill="midnightblue" stroke="midnightblue" points="634.943,-138.5 644.943,-135 634.943,-131.5 634.943,-138.5"/>
</g>
<!-- Node4 -->
<g id="node7" class="node"><title>Node4</title>
<a xlink:href="namespaceforcebalance_1_1openmmio.html#a2e95f600757655d41660c25af8fd8e80" target="_top" xlink:title="forcebalance.openmmio.Copy\lAmoebaOutOfPlaneBendParameters">
<polygon fill="white" stroke="black" points="876.5,-120 876.5,-150 1067.5,-150 1067.5,-120 876.5,-120"/>
<text text-anchor="start" x="884.5" y="-138" font-family="Ubuntu-R" font-size="10.00">forcebalance.openmmio.Copy</text>
<text text-anchor="middle" x="972" y="-127" font-family="Ubuntu-R" font-size="10.00">AmoebaOutOfPlaneBendParameters</text>
</a>
</g>
<!-- Node3&#45;&gt;Node4 -->
<g id="edge6" class="edge"><title>Node3&#45;&gt;Node4</title>
<path fill="none" stroke="midnightblue" d="M805.206,-135C824.581,-135 845.614,-135 865.989,-135"/>
<polygon fill="midnightblue" stroke="midnightblue" points="866.248,-138.5 876.248,-135 866.248,-131.5 866.248,-138.5"/>
</g>
<!-- Node5 -->
<g id="node9" class="node"><title>Node5</title>
<a xlink:href="namespaceforcebalance_1_1openmmio.html#abe9a6b9b200dc8487e56dad7249af3ec" target="_top" xlink:title="forcebalance.openmmio.Copy\lAmoebaAngleParameters">
<polygon fill="white" stroke="black" points="1104,-120 1104,-150 1264,-150 1264,-120 1104,-120"/>
<text text-anchor="start" x="1112" y="-138" font-family="Ubuntu-R" font-size="10.00">forcebalance.openmmio.Copy</text>
<text text-anchor="middle" x="1184" y="-127" font-family="Ubuntu-R" font-size="10.00">AmoebaAngleParameters</text>
</a>
</g>
<!-- Node4&#45;&gt;Node5 -->
<g id="edge8" class="edge"><title>Node4&#45;&gt;Node5</title>
<path fill="none" stroke="midnightblue" d="M1067.56,-135C1076.24,-135 1085.02,-135 1093.66,-135"/>
<polygon fill="midnightblue" stroke="midnightblue" points="1093.72,-138.5 1103.72,-135 1093.72,-131.5 1093.72,-138.5"/>
</g>
<!-- Node6 -->
<g id="node11" class="node"><title>Node6</title>
<a xlink:href="namespaceforcebalance_1_1openmmio.html#ad0d4739f80f2aab1a861f2e03b8efcd6" target="_top" xlink:title="forcebalance.openmmio.Copy\lAmoebaInPlaneAngleParameters">
<polygon fill="white" stroke="black" points="1300,-120 1300,-150 1474,-150 1474,-120 1300,-120"/>
<text text-anchor="start" x="1308" y="-138" font-family="Ubuntu-R" font-size="10.00">forcebalance.openmmio.Copy</text>
<text text-anchor="middle" x="1387" y="-127" font-family="Ubuntu-R" font-size="10.00">AmoebaInPlaneAngleParameters</text>
</a>
</g>
<!-- Node5&#45;&gt;Node6 -->
<g id="edge10" class="edge"><title>Node5&#45;&gt;Node6</title>
<path fill="none" stroke="midnightblue" d="M1264.15,-135C1272.6,-135 1281.26,-135 1289.88,-135"/>
<polygon fill="midnightblue" stroke="midnightblue" points="1289.96,-138.5 1299.96,-135 1289.96,-131.5 1289.96,-138.5"/>
</g>
<!-- Node7 -->
<g id="node13" class="node"><title>Node7</title>
<a xlink:href="namespaceforcebalance_1_1openmmio.html#abe005f73c6dfe9ce1052c9434bcad9be" target="_top" xlink:title="forcebalance.openmmio.Copy\lAmoebaVdwParameters">
<polygon fill="white" stroke="black" points="1510,-120 1510,-150 1670,-150 1670,-120 1510,-120"/>
<text text-anchor="start" x="1518" y="-138" font-family="Ubuntu-R" font-size="10.00">forcebalance.openmmio.Copy</text>
<text text-anchor="middle" x="1590" y="-127" font-family="Ubuntu-R" font-size="10.00">AmoebaVdwParameters</text>
</a>
</g>
<!-- Node6&#45;&gt;Node7 -->
<g id="edge12" class="edge"><title>Node6&#45;&gt;Node7</title>
<path fill="none" stroke="midnightblue" d="M1474.12,-135C1482.53,-135 1491.07,-135 1499.51,-135"/>
<polygon fill="midnightblue" stroke="midnightblue" points="1499.74,-138.5 1509.74,-135 1499.74,-131.5 1499.74,-138.5"/>
</g>
<!-- Node8 -->
<g id="node15" class="node"><title>Node8</title>
<a xlink:href="namespaceforcebalance_1_1openmmio.html#a3706c19e71969cabe5782a4535abeffe" target="_top" xlink:title="forcebalance.openmmio.Copy\lAmoebaMultipoleParameters">
<polygon fill="white" stroke="black" points="1706,-120 1706,-150 1866,-150 1866,-120 1706,-120"/>
<text text-anchor="start" x="1714" y="-138" font-family="Ubuntu-R" font-size="10.00">forcebalance.openmmio.Copy</text>
<text text-anchor="middle" x="1786" y="-127" font-family="Ubuntu-R" font-size="10.00">AmoebaMultipoleParameters</text>
</a>
</g>
<!-- Node7&#45;&gt;Node8 -->
<g id="edge14" class="edge"><title>Node7&#45;&gt;Node8</title>
<path fill="none" stroke="midnightblue" d="M1670.19,-135C1678.53,-135 1687.05,-135 1695.5,-135"/>
<polygon fill="midnightblue" stroke="midnightblue" points="1695.75,-138.5 1705.75,-135 1695.75,-131.5 1695.75,-138.5"/>
</g>
<!-- Node9 -->
<g id="node17" class="node"><title>Node9</title>
<a xlink:href="namespaceforcebalance_1_1openmmio.html#a616f12cc53381716e5fa41f00bf623be" target="_top" xlink:title="forcebalance.openmmio.Copy\lHarmonicBondParameters">
<polygon fill="white" stroke="black" points="1902,-120 1902,-150 2062,-150 2062,-120 1902,-120"/>
<text text-anchor="start" x="1910" y="-138" font-family="Ubuntu-R" font-size="10.00">forcebalance.openmmio.Copy</text>
<text text-anchor="middle" x="1982" y="-127" font-family="Ubuntu-R" font-size="10.00">HarmonicBondParameters</text>
</a>
</g>
<!-- Node8&#45;&gt;Node9 -->
<g id="edge16" class="edge"><title>Node8&#45;&gt;Node9</title>
<path fill="none" stroke="midnightblue" d="M1866.19,-135C1874.53,-135 1883.05,-135 1891.5,-135"/>
<polygon fill="midnightblue" stroke="midnightblue" points="1891.75,-138.5 1901.75,-135 1891.75,-131.5 1891.75,-138.5"/>
</g>
<!-- Node10 -->
<g id="node19" class="node"><title>Node10</title>
<a xlink:href="namespaceforcebalance_1_1openmmio.html#af4ed16f5e2b1cd12bce2f25fab1b05bc" target="_top" xlink:title="forcebalance.openmmio.Copy\lHarmonicAngleParameters">
<polygon fill="white" stroke="black" points="2098,-120 2098,-150 2258,-150 2258,-120 2098,-120"/>
<text text-anchor="start" x="2106" y="-138" font-family="Ubuntu-R" font-size="10.00">forcebalance.openmmio.Copy</text>
<text text-anchor="middle" x="2178" y="-127" font-family="Ubuntu-R" font-size="10.00">HarmonicAngleParameters</text>
</a>
</g>
<!-- Node9&#45;&gt;Node10 -->
<g id="edge18" class="edge"><title>Node9&#45;&gt;Node10</title>
<path fill="none" stroke="midnightblue" d="M2062.19,-135C2070.53,-135 2079.05,-135 2087.5,-135"/>
<polygon fill="midnightblue" stroke="midnightblue" points="2087.75,-138.5 2097.75,-135 2087.75,-131.5 2087.75,-138.5"/>
</g>
<!-- Node11 -->
<g id="node21" class="node"><title>Node11</title>
<a xlink:href="namespaceforcebalance_1_1openmmio.html#a8f13702754f0b4e43e272139a2ce8341" target="_top" xlink:title="forcebalance.openmmio.Copy\lPeriodicTorsionParameters">
<polygon fill="white" stroke="black" points="2294,-120 2294,-150 2454,-150 2454,-120 2294,-120"/>
<text text-anchor="start" x="2302" y="-138" font-family="Ubuntu-R" font-size="10.00">forcebalance.openmmio.Copy</text>
<text text-anchor="middle" x="2374" y="-127" font-family="Ubuntu-R" font-size="10.00">PeriodicTorsionParameters</text>
</a>
</g>
<!-- Node10&#45;&gt;Node11 -->
<g id="edge20" class="edge"><title>Node10&#45;&gt;Node11</title>
<path fill="none" stroke="midnightblue" d="M2258.19,-135C2266.53,-135 2275.05,-135 2283.5,-135"/>
<polygon fill="midnightblue" stroke="midnightblue" points="2283.75,-138.5 2293.75,-135 2283.75,-131.5 2283.75,-138.5"/>
</g>
<!-- Node12 -->
<g id="node23" class="node"><title>Node12</title>
<a xlink:href="namespaceforcebalance_1_1openmmio.html#afead47464a644d9225f9fa8eb568a8ed" target="_top" xlink:title="forcebalance.openmmio.Copy\lNonbondedParameters">
<polygon fill="white" stroke="black" points="2490,-120 2490,-150 2650,-150 2650,-120 2490,-120"/>
<text text-anchor="start" x="2498" y="-138" font-family="Ubuntu-R" font-size="10.00">forcebalance.openmmio.Copy</text>
<text text-anchor="middle" x="2570" y="-127" font-family="Ubuntu-R" font-size="10.00">NonbondedParameters</text>
</a>
</g>
<!-- Node11&#45;&gt;Node12 -->
<g id="edge22" class="edge"><title>Node11&#45;&gt;Node12</title>
<path fill="none" stroke="midnightblue" d="M2454.19,-135C2462.53,-135 2471.05,-135 2479.5,-135"/>
<polygon fill="midnightblue" stroke="midnightblue" points="2479.75,-138.5 2489.75,-135 2479.75,-131.5 2479.75,-138.5"/>
</g>
<!-- Node13 -->
<g id="node25" class="node"><title>Node13</title>
<a xlink:href="namespaceforcebalance_1_1openmmio.html#a2bb7add6b813d94f2655372c51fe8fdc" target="_top" xlink:title="forcebalance.openmmio.do\l_nothing">
<polygon fill="white" stroke="black" points="2686,-120 2686,-150 2834,-150 2834,-120 2686,-120"/>
<text text-anchor="start" x="2694" y="-138" font-family="Ubuntu-R" font-size="10.00">forcebalance.openmmio.do</text>
<text text-anchor="middle" x="2760" y="-127" font-family="Ubuntu-R" font-size="10.00">_nothing</text>
</a>
</g>
<!-- Node12&#45;&gt;Node13 -->
<g id="edge24" class="edge"><title>Node12&#45;&gt;Node13</title>
<path fill="none" stroke="midnightblue" d="M2650.18,-135C2658.6,-135 2667.18,-135 2675.65,-135"/>
<polygon fill="midnightblue" stroke="midnightblue" points="2675.9,-138.5 2685.9,-135 2675.9,-131.5 2675.9,-138.5"/>
</g>
<!-- Node14&#45;&gt;Node2 -->
<g id="edge28" class="edge"><title>Node14&#45;&gt;Node2</title>
<path fill="none" stroke="midnightblue" d="M370.039,-121.38C380.422,-122.539 391.173,-123.74 401.795,-124.926"/>
<polygon fill="midnightblue" stroke="midnightblue" points="401.597,-128.426 411.924,-126.057 402.374,-121.469 401.597,-128.426"/>
</g>
<!-- Node17 -->
<g id="node34" class="node"><title>Node17</title>
<a xlink:href="namespaceforcebalance_1_1openmmio.html#a95d91538d72e354fc95433539c42450c" target="_top" xlink:title="forcebalance.openmmio.Set\lAmoebaVirtualExclusions">
<polygon fill="white" stroke="black" points="417,-0 417,-30 569,-30 569,-0 417,-0"/>
<text text-anchor="start" x="425" y="-18" font-family="Ubuntu-R" font-size="10.00">forcebalance.openmmio.Set</text>
<text text-anchor="middle" x="493" y="-7" font-family="Ubuntu-R" font-size="10.00">AmoebaVirtualExclusions</text>
</a>
</g>
<!-- Node16&#45;&gt;Node17 -->
<g id="edge34" class="edge"><title>Node16&#45;&gt;Node17</title>
<path fill="none" stroke="midnightblue" d="M376.265,-15C386.36,-15 396.705,-15 406.857,-15"/>
<polygon fill="midnightblue" stroke="midnightblue" points="406.928,-18.5001 416.928,-15 406.928,-11.5001 406.928,-18.5001"/>
</g>
<!-- Node18 -->
<g id="node36" class="node"><title>Node18</title>
<a xlink:href="namespaceforcebalance_1_1openmmio.html#aa085594c11e9cd00ce71f5a8ead72b68" target="_top" xlink:title="Create a multiple timestep velocity verlet with velocity randomization (VVVR) integrator. ">
<polygon fill="white" stroke="black" points="610,-5.5 610,-24.5 840,-24.5 840,-5.5 610,-5.5"/>
<text text-anchor="middle" x="725" y="-12.5" font-family="Ubuntu-R" font-size="10.00">forcebalance.openmmio.MTSVVVRIntegrator</text>
</a>
</g>
<!-- Node17&#45;&gt;Node18 -->
<g id="edge36" class="edge"><title>Node17&#45;&gt;Node18</title>
<path fill="none" stroke="midnightblue" d="M569.311,-15C579.038,-15 589.198,-15 599.459,-15"/>
<polygon fill="midnightblue" stroke="midnightblue" points="599.742,-18.5001 609.742,-15 599.742,-11.5001 599.742,-18.5001"/>
</g>
</g>
</svg>
