<?xml version="1.0" encoding="UTF-8" standalone="no"?>
<!DOCTYPE svg PUBLIC "-//W3C//DTD SVG 1.1//EN"
 "http://www.w3.org/Graphics/SVG/1.1/DTD/svg11.dtd">
<!-- Generated by graphviz version 2.26.3 (20100126.1600)
 -->
<!-- Title: forcebalance.openmmio.AbInitio_OpenMM.energy_force_driver_all Pages: 1 -->
<svg width="344pt" height="56pt"
 viewBox="0.00 0.00 344.00 56.00" xmlns="http://www.w3.org/2000/svg" xmlns:xlink="http://www.w3.org/1999/xlink">
<g id="graph1" class="graph" transform="scale(1 1) rotate(0) translate(4 52)">
<title>forcebalance.openmmio.AbInitio_OpenMM.energy_force_driver_all</title>
<polygon fill="white" stroke="white" points="-4,5 -4,-52 341,-52 341,5 -4,5"/>
<!-- Node1 -->
<g id="node1" class="node"><title>Node1</title>
<polygon fill="#bfbfbf" stroke="black" points="0.5,-0.5 0.5,-47.5 151.5,-47.5 151.5,-0.5 0.5,-0.5"/>
<text text-anchor="start" x="8.5" y="-34.5" font-family="Ubuntu-R" font-size="10.00">forcebalance.openmmio.Ab</text>
<text text-anchor="start" x="8.5" y="-21.5" font-family="Ubuntu-R" font-size="10.00">Initio_OpenMM.energy_force</text>
<text text-anchor="middle" x="76" y="-8.5" font-family="Ubuntu-R" font-size="10.00">_driver_all</text>
</g>
<!-- Node2 -->
<g id="node3" class="node"><title>Node2</title>
<a xlink:href="classforcebalance_1_1openmmio_1_1AbInitio__OpenMM.html#af5fcee0c4321c7d3024868742a266f7a" target="_top" xlink:title="forcebalance.openmmio.Ab\lInitio_OpenMM.__init__">
<polygon fill="white" stroke="black" points="188,-7 188,-41 336,-41 336,-7 188,-7"/>
<text text-anchor="start" x="196" y="-28" font-family="Ubuntu-R" font-size="10.00">forcebalance.openmmio.Ab</text>
<text text-anchor="middle" x="262" y="-15" font-family="Ubuntu-R" font-size="10.00">Initio_OpenMM.__init__</text>
</a>
</g>
<!-- Node1&#45;&gt;Node2 -->
<g id="edge2" class="edge"><title>Node1&#45;&gt;Node2</title>
<path fill="none" stroke="midnightblue" d="M151.653,-24C160.256,-24 169.063,-24 177.768,-24"/>
<polygon fill="midnightblue" stroke="midnightblue" points="177.92,-27.5001 187.92,-24 177.92,-20.5001 177.92,-27.5001"/>
</g>
</g>
</svg>
