<?xml version="1.0" encoding="UTF-8" standalone="no"?>
<!DOCTYPE svg PUBLIC "-//W3C//DTD SVG 1.1//EN"
 "http://www.w3.org/Graphics/SVG/1.1/DTD/svg11.dtd">
<!-- Generated by graphviz version 2.32.0 (20130801.1845)
 -->
<!-- Title: forcebalance.openmmio.AbInitio_OpenMM Pages: 1 -->
<svg width="140pt" height="298pt"
 viewBox="0.00 0.00 140.00 298.00" xmlns="http://www.w3.org/2000/svg" xmlns:xlink="http://www.w3.org/1999/xlink">
<g id="graph0" class="graph" transform="scale(1 1) rotate(0) translate(4 294)">
<title>forcebalance.openmmio.AbInitio_OpenMM</title>
<polygon fill="white" stroke="white" points="-4,5 -4,-294 137,-294 137,5 -4,5"/>
<!-- Node1 -->
<g id="node1" class="node"><title>Node1</title>
<polygon fill="#bfbfbf" stroke="black" points="2.467,-1 2.467,-33 129.533,-33 129.533,-1 2.467,-1"/>
<text text-anchor="start" x="10.467" y="-20" font-family="Ubuntu-R" font-size="10.00">forcebalance.openmmio.Ab</text>
<text text-anchor="middle" x="66" y="-8" font-family="Ubuntu-R" font-size="10.00">Initio_OpenMM</text>
</g>
<!-- Node2 -->
<g id="node2" class="node"><title>Node2</title>
<g id="a_node2"><a xlink:href="classforcebalance_1_1abinitio_1_1AbInitio.html" target="_top" xlink:title="Subclass of Target for fitting force fields to ab initio data.">
<polygon fill="white" stroke="black" points="8.5775,-71 8.5775,-103 123.423,-103 123.423,-71 8.5775,-71"/>
<text text-anchor="start" x="16.5775" y="-90" font-family="Ubuntu-R" font-size="10.00">forcebalance.abinitio.Ab</text>
<text text-anchor="middle" x="66" y="-78" font-family="Ubuntu-R" font-size="10.00">Initio</text>
</a>
</g>
</g>
<!-- Node2&#45;&gt;Node1 -->
<g id="edge1" class="edge"><title>Node2&#45;&gt;Node1</title>
<path fill="none" stroke="midnightblue" d="M66,-60.6174C66,-51.3378 66,-41.1413 66,-33.0492"/>
<polygon fill="midnightblue" stroke="midnightblue" points="62.5001,-60.9086 66,-70.9086 69.5001,-60.9086 62.5001,-60.9086"/>
</g>
<!-- Node3 -->
<g id="node3" class="node"><title>Node3</title>
<g id="a_node3"><a xlink:href="classforcebalance_1_1target_1_1Target.html" target="_top" xlink:title="Base class for all fitting targets.">
<polygon fill="white" stroke="black" points="5.5345,-141 5.5345,-161 126.466,-161 126.466,-141 5.5345,-141"/>
<text text-anchor="middle" x="66" y="-148" font-family="Ubuntu-R" font-size="10.00">forcebalance.target.Target</text>
</a>
</g>
</g>
<!-- Node3&#45;&gt;Node2 -->
<g id="edge2" class="edge"><title>Node3&#45;&gt;Node2</title>
<path fill="none" stroke="midnightblue" d="M66,-130.775C66,-121.986 66,-111.715 66,-103.44"/>
<polygon fill="midnightblue" stroke="midnightblue" points="62.5001,-130.852 66,-140.852 69.5001,-130.852 62.5001,-130.852"/>
</g>
<!-- Node4 -->
<g id="node4" class="node"><title>Node4</title>
<g id="a_node4"><a xlink:href="classforcebalance_1_1baseclass_1_1ForceBalanceBaseClass.html" target="_top" xlink:title="Provides some nifty functions that are common to all ForceBalance classes.">
<polygon fill="white" stroke="black" points="-0.0195,-199 -0.0195,-231 132.019,-231 132.019,-199 -0.0195,-199"/>
<text text-anchor="start" x="7.9805" y="-218" font-family="Ubuntu-R" font-size="10.00">forcebalance.baseclass.Force</text>
<text text-anchor="middle" x="66" y="-206" font-family="Ubuntu-R" font-size="10.00">BalanceBaseClass</text>
</a>
</g>
</g>
<!-- Node4&#45;&gt;Node3 -->
<g id="edge3" class="edge"><title>Node4&#45;&gt;Node3</title>
<path fill="none" stroke="midnightblue" d="M66,-188.922C66,-179.172 66,-168.61 66,-161.29"/>
<polygon fill="midnightblue" stroke="midnightblue" points="62.5001,-188.991 66,-198.992 69.5001,-188.992 62.5001,-188.991"/>
</g>
<!-- Node5 -->
<g id="node5" class="node"><title>Node5</title>
<polygon fill="white" stroke="#bfbfbf" points="45.782,-269 45.782,-289 86.218,-289 86.218,-269 45.782,-269"/>
<text text-anchor="middle" x="66" y="-276" font-family="Ubuntu-R" font-size="10.00">object</text>
</g>
<!-- Node5&#45;&gt;Node4 -->
<g id="edge4" class="edge"><title>Node5&#45;&gt;Node4</title>
<path fill="none" stroke="midnightblue" d="M66,-258.775C66,-249.986 66,-239.715 66,-231.44"/>
<polygon fill="midnightblue" stroke="midnightblue" points="62.5001,-258.852 66,-268.852 69.5001,-258.852 62.5001,-258.852"/>
</g>
</g>
</svg>
