<?xml version="1.0" encoding="UTF-8" standalone="no"?>
<!DOCTYPE svg PUBLIC "-//W3C//DTD SVG 1.1//EN"
 "http://www.w3.org/Graphics/SVG/1.1/DTD/svg11.dtd">
<!-- Generated by graphviz version 2.32.0 (20130801.1845)
 -->
<!-- Title: forcebalance.interactions.Interactions.indicate Pages: 1 -->
<svg width="1466pt" height="198pt"
 viewBox="0.00 0.00 1466.00 198.00" xmlns="http://www.w3.org/2000/svg" xmlns:xlink="http://www.w3.org/1999/xlink">
<g id="graph0" class="graph" transform="scale(1 1) rotate(0) translate(4 194)">
<title>forcebalance.interactions.Interactions.indicate</title>
<polygon fill="white" stroke="white" points="-4,5 -4,-194 1463,-194 1463,5 -4,5"/>
<!-- Node1 -->
<g id="node1" class="node"><title>Node1</title>
<polygon fill="#bfbfbf" stroke="black" points="0.639,-25 0.639,-57 119.361,-57 119.361,-25 0.639,-25"/>
<text text-anchor="start" x="8.639" y="-44" font-family="Ubuntu-R" font-size="10.00">forcebalance.interactions.</text>
<text text-anchor="middle" x="60" y="-32" font-family="Ubuntu-R" font-size="10.00">Interactions.indicate</text>
</g>
<!-- Node2 -->
<g id="node2" class="node"><title>Node2</title>
<g id="a_node2"><a xlink:href="namespaceforcebalance_1_1nifty.html#a51180e960742cc7547749fdfb3513ec4" target="_top" xlink:title="See documentation for printcool; this is a nice way to print out keys/values in a dictionary...">
<polygon fill="white" stroke="black" points="156.469,-51 156.469,-83 283.531,-83 283.531,-51 156.469,-51"/>
<text text-anchor="start" x="164.469" y="-70" font-family="Ubuntu-R" font-size="10.00">forcebalance.nifty.printcool</text>
<text text-anchor="middle" x="220" y="-58" font-family="Ubuntu-R" font-size="10.00">_dictionary</text>
</a>
</g>
</g>
<!-- Node1&#45;&gt;Node2 -->
<g id="edge1" class="edge"><title>Node1&#45;&gt;Node2</title>
<path fill="none" stroke="midnightblue" d="M119.384,-50.6076C128.135,-52.0475 137.248,-53.5471 146.252,-55.0287"/>
<polygon fill="midnightblue" stroke="midnightblue" points="145.91,-58.5196 156.346,-56.6898 147.047,-51.6125 145.91,-58.5196"/>
</g>
<!-- Node16 -->
<g id="node16" class="node"><title>Node16</title>
<g id="a_node16"><a xlink:href="classforcebalance_1_1interactions_1_1Interactions.html#ad16a38d2828d4a9d1aecb827d7acd211" target="_top" xlink:title="forcebalance.interactions.\lInteractions.get">
<polygon fill="white" stroke="black" points="160.639,-0 160.639,-32 279.361,-32 279.361,-0 160.639,-0"/>
<text text-anchor="start" x="168.639" y="-19" font-family="Ubuntu-R" font-size="10.00">forcebalance.interactions.</text>
<text text-anchor="middle" x="220" y="-7" font-family="Ubuntu-R" font-size="10.00">Interactions.get</text>
</a>
</g>
</g>
<!-- Node1&#45;&gt;Node16 -->
<g id="edge19" class="edge"><title>Node1&#45;&gt;Node16</title>
<path fill="none" stroke="midnightblue" d="M119.384,-31.762C129.577,-30.1492 140.261,-28.4586 150.693,-26.8081"/>
<polygon fill="midnightblue" stroke="midnightblue" points="151.262,-30.2617 160.592,-25.2418 150.168,-23.3477 151.262,-30.2617"/>
</g>
<!-- Node3 -->
<g id="node3" class="node"><title>Node3</title>
<g id="a_node3"><a xlink:href="namespaceforcebalance_1_1nifty.html#a3f1c7a1af9d35d5d1693074bc6f5497c" target="_top" xlink:title="ONLY matches integers! If you have a decimal point? None shall pass!">
<polygon fill="white" stroke="black" points="319.908,-76 319.908,-96 428.092,-96 428.092,-76 319.908,-76"/>
<text text-anchor="middle" x="374" y="-83" font-family="Ubuntu-R" font-size="10.00">forcebalance.nifty.isint</text>
</a>
</g>
</g>
<!-- Node2&#45;&gt;Node3 -->
<g id="edge2" class="edge"><title>Node2&#45;&gt;Node3</title>
<path fill="none" stroke="midnightblue" d="M283.702,-74.8377C292.283,-75.9104 301.098,-77.0123 309.691,-78.0863"/>
<polygon fill="midnightblue" stroke="midnightblue" points="309.291,-81.5635 319.648,-79.3309 310.159,-74.6175 309.291,-81.5635"/>
</g>
<!-- Node5 -->
<g id="node5" class="node"><title>Node5</title>
<g id="a_node5"><a xlink:href="namespaceforcebalance_1_1nifty.html#a8e3ef0108b9d37b82ba0dced7c6037ae" target="_top" xlink:title="Matches ANY number; it can be a decimal, scientific notation, what have you CAUTION &#45; this will also ...">
<polygon fill="white" stroke="black" points="630.024,-70 630.024,-90 745.976,-90 745.976,-70 630.024,-70"/>
<text text-anchor="middle" x="688" y="-77" font-family="Ubuntu-R" font-size="10.00">forcebalance.nifty.isfloat</text>
</a>
</g>
</g>
<!-- Node2&#45;&gt;Node5 -->
<g id="edge18" class="edge"><title>Node2&#45;&gt;Node5</title>
<path fill="none" stroke="midnightblue" d="M283.581,-66.2722C295.665,-66.1587 308.226,-66.0595 320,-66 367.999,-65.7576 380.017,-64.7041 428,-66 493.201,-67.7609 567.533,-72.0109 619.792,-75.3697"/>
<polygon fill="midnightblue" stroke="midnightblue" points="619.734,-78.8732 629.94,-76.0286 620.188,-71.8879 619.734,-78.8732"/>
</g>
<!-- Node4 -->
<g id="node4" class="node"><title>Node4</title>
<g id="a_node4"><a xlink:href="namespaceforcebalance_1_1nifty.html#a09263927eaec9deff283fbf1a820242f" target="_top" xlink:title="Matches things with a decimal only; see isint and isfloat.">
<polygon fill="white" stroke="black" points="464.36,-114 464.36,-134 593.64,-134 593.64,-114 464.36,-114"/>
<text text-anchor="middle" x="529" y="-121" font-family="Ubuntu-R" font-size="10.00">forcebalance.nifty.isdecimal</text>
</a>
</g>
</g>
<!-- Node3&#45;&gt;Node4 -->
<g id="edge3" class="edge"><title>Node3&#45;&gt;Node4</title>
<path fill="none" stroke="midnightblue" d="M415.6,-96.0835C434.609,-100.805 457.443,-106.476 477.55,-111.47"/>
<polygon fill="midnightblue" stroke="midnightblue" points="476.928,-114.922 487.476,-113.935 478.615,-108.128 476.928,-114.922"/>
</g>
<!-- Node4&#45;&gt;Node5 -->
<g id="edge4" class="edge"><title>Node4&#45;&gt;Node5</title>
<path fill="none" stroke="midnightblue" d="M566.019,-113.906C588.357,-107.645 617.264,-99.5439 641.219,-92.8304"/>
<polygon fill="midnightblue" stroke="midnightblue" points="642.464,-96.1163 651.149,-90.0475 640.575,-89.376 642.464,-96.1163"/>
</g>
<!-- Node9 -->
<g id="node9" class="node"><title>Node9</title>
<g id="a_node9"><a xlink:href="namespaceforcebalance_1_1nifty.html#afb3f205bce4984856e766af7e9fdaca8" target="_top" xlink:title="Given any list, array, or matrix, return a 1&#45;column matrix.">
<polygon fill="white" stroke="black" points="636.412,-114 636.412,-134 739.588,-134 739.588,-114 636.412,-114"/>
<text text-anchor="middle" x="688" y="-121" font-family="Ubuntu-R" font-size="10.00">forcebalance.nifty.col</text>
</a>
</g>
</g>
<!-- Node4&#45;&gt;Node9 -->
<g id="edge9" class="edge"><title>Node4&#45;&gt;Node9</title>
<path fill="none" stroke="midnightblue" d="M593.858,-124C604.427,-124 615.364,-124 625.864,-124"/>
<polygon fill="midnightblue" stroke="midnightblue" points="626.189,-127.5 636.189,-124 626.189,-120.5 626.189,-127.5"/>
</g>
<!-- Node5&#45;&gt;Node3 -->
<g id="edge5" class="edge"><title>Node5&#45;&gt;Node3</title>
<path fill="none" stroke="midnightblue" d="M629.978,-81.0966C575.846,-82.1376 494.625,-83.6995 438.463,-84.7796"/>
<polygon fill="midnightblue" stroke="midnightblue" points="438.211,-81.2837 428.28,-84.9754 438.346,-88.2824 438.211,-81.2837"/>
</g>
<!-- Node6 -->
<g id="node6" class="node"><title>Node6</title>
<g id="a_node6"><a xlink:href="namespaceforcebalance_1_1nifty.html#a8d63c8ae9a67c66673a6cf81357f827d" target="_top" xlink:title="Returns a big number if we encounter NaN.">
<polygon fill="white" stroke="black" points="781.974,-69 781.974,-89 914.026,-89 914.026,-69 781.974,-69"/>
<text text-anchor="middle" x="848" y="-76" font-family="Ubuntu-R" font-size="10.00">forcebalance.nifty.floatornan</text>
</a>
</g>
</g>
<!-- Node5&#45;&gt;Node6 -->
<g id="edge6" class="edge"><title>Node5&#45;&gt;Node6</title>
<path fill="none" stroke="midnightblue" d="M746.042,-79.639C754.364,-79.5863 763.04,-79.5314 771.658,-79.4768"/>
<polygon fill="midnightblue" stroke="midnightblue" points="771.746,-82.9765 781.723,-79.4131 771.701,-75.9766 771.746,-82.9765"/>
</g>
<!-- Node7 -->
<g id="node7" class="node"><title>Node7</title>
<g id="a_node7"><a xlink:href="namespaceforcebalance_1_1nifty.html#a6c9727360cdff8f3011a12cc54d0e86e" target="_top" xlink:title="Given any list, array, or matrix, return a 1&#45;row matrix.">
<polygon fill="white" stroke="black" points="963.747,-68 963.747,-88 1070.25,-88 1070.25,-68 963.747,-68"/>
<text text-anchor="middle" x="1017" y="-75" font-family="Ubuntu-R" font-size="10.00">forcebalance.nifty.row</text>
</a>
</g>
</g>
<!-- Node6&#45;&gt;Node7 -->
<g id="edge7" class="edge"><title>Node6&#45;&gt;Node7</title>
<path fill="none" stroke="midnightblue" d="M914.045,-78.6105C926.98,-78.5331 940.538,-78.4519 953.39,-78.3749"/>
<polygon fill="midnightblue" stroke="midnightblue" points="953.541,-81.8742 963.52,-78.3143 953.499,-74.8743 953.541,-81.8742"/>
</g>
<!-- Node8 -->
<g id="node8" class="node"><title>Node8</title>
<g id="a_node8"><a xlink:href="namespaceforcebalance_1_1nifty.html#a7676236002c6a65ea7d2e69a09923889" target="_top" xlink:title="Given two vectors vec1 and vec2, project out the component of vec1 that is along the vec2&#45;direction...">
<polygon fill="white" stroke="black" points="1120.03,-68 1120.03,-88 1265.97,-88 1265.97,-68 1120.03,-68"/>
<text text-anchor="middle" x="1193" y="-75" font-family="Ubuntu-R" font-size="10.00">forcebalance.nifty.orthogonalize</text>
</a>
</g>
</g>
<!-- Node7&#45;&gt;Node8 -->
<g id="edge8" class="edge"><title>Node7&#45;&gt;Node8</title>
<path fill="none" stroke="midnightblue" d="M1070.68,-78C1083.03,-78 1096.49,-78 1109.79,-78"/>
<polygon fill="midnightblue" stroke="midnightblue" points="1109.92,-81.5001 1119.92,-78 1109.92,-74.5001 1109.92,-81.5001"/>
</g>
<!-- Node10 -->
<g id="node10" class="node"><title>Node10</title>
<g id="a_node10"><a xlink:href="namespaceforcebalance_1_1nifty.html#a52114ceee9d55f94d9aecb3e176de294" target="_top" xlink:title="Given any list, array, or matrix, return a single&#45;index array.">
<polygon fill="white" stroke="black" points="795.858,-153 795.858,-173 900.142,-173 900.142,-153 795.858,-153"/>
<text text-anchor="middle" x="848" y="-160" font-family="Ubuntu-R" font-size="10.00">forcebalance.nifty.flat</text>
</a>
</g>
</g>
<!-- Node9&#45;&gt;Node10 -->
<g id="edge10" class="edge"><title>Node9&#45;&gt;Node10</title>
<path fill="none" stroke="midnightblue" d="M729.689,-134.043C750.054,-139.07 774.9,-145.203 796.475,-150.529"/>
<polygon fill="midnightblue" stroke="midnightblue" points="795.902,-153.992 806.449,-152.991 797.579,-147.196 795.902,-153.992"/>
</g>
<!-- Node11 -->
<g id="node11" class="node"><title>Node11</title>
<g id="a_node11"><a xlink:href="namespaceforcebalance_1_1nifty.html#a4c82187e92dfeb8a159f4aa44b501c40" target="_top" xlink:title="Invert a matrix using singular value decomposition.">
<polygon fill="white" stroke="black" points="950.413,-117 950.413,-137 1083.59,-137 1083.59,-117 950.413,-117"/>
<text text-anchor="middle" x="1017" y="-124" font-family="Ubuntu-R" font-size="10.00">forcebalance.nifty.invert_svd</text>
</a>
</g>
</g>
<!-- Node10&#45;&gt;Node11 -->
<g id="edge11" class="edge"><title>Node10&#45;&gt;Node11</title>
<path fill="none" stroke="midnightblue" d="M895.519,-152.972C915.341,-148.699 938.649,-143.675 959.455,-139.189"/>
<polygon fill="midnightblue" stroke="midnightblue" points="960.403,-142.565 969.441,-137.037 958.928,-135.723 960.403,-142.565"/>
</g>
<!-- Node11&#45;&gt;Node9 -->
<g id="edge15" class="edge"><title>Node11&#45;&gt;Node9</title>
<path fill="none" stroke="midnightblue" d="M950.167,-126.396C891.718,-125.86 806.983,-125.082 750.033,-124.56"/>
<polygon fill="midnightblue" stroke="midnightblue" points="749.767,-121.057 739.735,-124.465 749.702,-128.057 749.767,-121.057"/>
</g>
<!-- Node12 -->
<g id="node12" class="node"><title>Node12</title>
<g id="a_node12"><a xlink:href="namespaceforcebalance_1_1nifty.html#aa9fb9c7c65231eca50a7afc04f489b64" target="_top" xlink:title="forcebalance.nifty.get\l_least_squares">
<polygon fill="white" stroke="black" points="1141.41,-158 1141.41,-190 1244.59,-190 1244.59,-158 1141.41,-158"/>
<text text-anchor="start" x="1149.41" y="-177" font-family="Ubuntu-R" font-size="10.00">forcebalance.nifty.get</text>
<text text-anchor="middle" x="1193" y="-165" font-family="Ubuntu-R" font-size="10.00">_least_squares</text>
</a>
</g>
</g>
<!-- Node11&#45;&gt;Node12 -->
<g id="edge12" class="edge"><title>Node11&#45;&gt;Node12</title>
<path fill="none" stroke="midnightblue" d="M1055.33,-137.083C1077.45,-143.06 1106.03,-150.778 1131.32,-157.61"/>
<polygon fill="midnightblue" stroke="midnightblue" points="1130.63,-161.05 1141.2,-160.279 1132.46,-154.292 1130.63,-161.05"/>
</g>
<!-- Node14 -->
<g id="node14" class="node"><title>Node14</title>
<g id="a_node14"><a xlink:href="namespaceforcebalance_1_1nifty.html#abb8f59044961a12588e0653c2baa8b01" target="_top" xlink:title="forcebalance.nifty.warn\l_press_key">
<polygon fill="white" stroke="black" points="1137.53,-107 1137.53,-139 1248.47,-139 1248.47,-107 1137.53,-107"/>
<text text-anchor="start" x="1145.53" y="-126" font-family="Ubuntu-R" font-size="10.00">forcebalance.nifty.warn</text>
<text text-anchor="middle" x="1193" y="-114" font-family="Ubuntu-R" font-size="10.00">_press_key</text>
</a>
</g>
</g>
<!-- Node11&#45;&gt;Node14 -->
<g id="edge16" class="edge"><title>Node11&#45;&gt;Node14</title>
<path fill="none" stroke="midnightblue" d="M1083.78,-125.488C1098.03,-125.16 1113.09,-124.814 1127.3,-124.487"/>
<polygon fill="midnightblue" stroke="midnightblue" points="1127.55,-127.983 1137.47,-124.254 1127.39,-120.984 1127.55,-127.983"/>
</g>
<!-- Node12&#45;&gt;Node10 -->
<g id="edge13" class="edge"><title>Node12&#45;&gt;Node10</title>
<path fill="none" stroke="midnightblue" d="M1141.14,-172.369C1079.72,-170.399 976.461,-167.088 910.589,-164.975"/>
<polygon fill="midnightblue" stroke="midnightblue" points="910.458,-161.469 900.351,-164.647 910.233,-168.466 910.458,-161.469"/>
</g>
<!-- Node13 -->
<g id="node13" class="node"><title>Node13</title>
<g id="a_node13"><a xlink:href="namespaceforcebalance_1_1nifty.html#ad5ca60565c864b4245a8212fe9d92e10" target="_top" xlink:title="Compute the (cross) statistical inefficiency of (two) timeseries.">
<polygon fill="white" stroke="black" points="1315.64,-158 1315.64,-190 1444.36,-190 1444.36,-158 1315.64,-158"/>
<text text-anchor="start" x="1323.64" y="-177" font-family="Ubuntu-R" font-size="10.00">forcebalance.nifty.statistical</text>
<text text-anchor="middle" x="1380" y="-165" font-family="Ubuntu-R" font-size="10.00">Inefficiency</text>
</a>
</g>
</g>
<!-- Node12&#45;&gt;Node13 -->
<g id="edge14" class="edge"><title>Node12&#45;&gt;Node13</title>
<path fill="none" stroke="midnightblue" d="M1245.04,-174C1263.71,-174 1285.21,-174 1305.45,-174"/>
<polygon fill="midnightblue" stroke="midnightblue" points="1305.58,-177.5 1315.58,-174 1305.58,-170.5 1305.58,-177.5"/>
</g>
<!-- Node15 -->
<g id="node15" class="node"><title>Node15</title>
<g id="a_node15"><a xlink:href="namespaceforcebalance_1_1nifty.html#a2fc81730e7efa7d138dd86f733507bfc" target="_top" xlink:title="Similar to the bultin function map().">
<polygon fill="white" stroke="black" points="1302.04,-113 1302.04,-133 1457.96,-133 1457.96,-113 1302.04,-113"/>
<text text-anchor="middle" x="1380" y="-120" font-family="Ubuntu-R" font-size="10.00">forcebalance.nifty.concurrent_map</text>
</a>
</g>
</g>
<!-- Node14&#45;&gt;Node15 -->
<g id="edge17" class="edge"><title>Node14&#45;&gt;Node15</title>
<path fill="none" stroke="midnightblue" d="M1248.51,-123C1262.1,-123 1277.02,-123 1291.77,-123"/>
<polygon fill="midnightblue" stroke="midnightblue" points="1291.92,-126.5 1301.92,-123 1291.92,-119.5 1291.92,-126.5"/>
</g>
</g>
</svg>
