<?xml version="1.0" encoding="UTF-8" standalone="no"?>
<!DOCTYPE svg PUBLIC "-//W3C//DTD SVG 1.1//EN"
 "http://www.w3.org/Graphics/SVG/1.1/DTD/svg11.dtd">
<!-- Generated by graphviz version 2.28.0 (20111219.2309)
 -->
<!-- Title: G Pages: 1 -->
<svg width="838pt" height="560pt"
 viewBox="0.00 0.00 838.00 560.00" xmlns="http://www.w3.org/2000/svg" xmlns:xlink="http://www.w3.org/1999/xlink">
<g id="graph1" class="graph" transform="scale(1 1) rotate(0) translate(4 556)">
<title>G</title>
<polygon fill="white" stroke="white" points="-4,5 -4,-556 835,-556 835,5 -4,5"/>
<!-- Node1 -->
<g id="node1" class="node"><title>Node1</title>
<polygon fill="#bfbfbf" stroke="black" points="168.5,-190.5 168.5,-209.5 311.5,-209.5 311.5,-190.5 168.5,-190.5"/>
<text text-anchor="middle" x="240" y="-197.5" font-family="Ubuntu-R" font-size="10.00">forcebalance.target.Target</text>
</g>
<!-- Node3 -->
<g id="node5" class="node"><title>Node3</title>
<a xlink:href="classforcebalance_1_1abinitio_1_1AbInitio.html" target="_top" xlink:title="Subclass of Target for fitting force fields to ab initio data.">
<polygon fill="white" stroke="black" points="376,-437.5 376,-456.5 530,-456.5 530,-437.5 376,-437.5"/>
<text text-anchor="middle" x="453" y="-444.5" font-family="Ubuntu-R" font-size="10.00">forcebalance.abinitio.AbInitio</text>
</a>
</g>
<!-- Node1&#45;&gt;Node3 -->
<g id="edge4" class="edge"><title>Node1&#45;&gt;Node3</title>
<path fill="none" stroke="midnightblue" d="M249.782,-218.836C265.919,-252.13 302.814,-322.44 348,-371 374.507,-399.486 413.026,-424.359 434.983,-437.371"/>
<polygon fill="midnightblue" stroke="midnightblue" points="252.916,-217.278 245.454,-209.757 246.597,-220.29 252.916,-217.278"/>
</g>
<!-- Node9 -->
<g id="node17" class="node"><title>Node9</title>
<a xlink:href="classforcebalance_1_1binding_1_1BindingEnergy.html" target="_top" xlink:title="Improved subclass of Target for fitting force fields to binding energies.">
<polygon fill="white" stroke="black" points="359.5,-342.5 359.5,-361.5 546.5,-361.5 546.5,-342.5 359.5,-342.5"/>
<text text-anchor="middle" x="453" y="-349.5" font-family="Ubuntu-R" font-size="10.00">forcebalance.binding.BindingEnergy</text>
</a>
</g>
<!-- Node1&#45;&gt;Node9 -->
<g id="edge16" class="edge"><title>Node1&#45;&gt;Node9</title>
<path fill="none" stroke="midnightblue" d="M250.442,-218.892C266.265,-248.433 301.077,-305.064 348,-333 354.466,-336.85 361.529,-339.954 368.831,-342.452"/>
<polygon fill="midnightblue" stroke="midnightblue" points="253.364,-216.925 245.648,-209.665 247.152,-220.152 253.364,-216.925"/>
</g>
<!-- Node11 -->
<g id="node21" class="node"><title>Node11</title>
<a xlink:href="classforcebalance_1_1counterpoise_1_1Counterpoise.html" target="_top" xlink:title="Target subclass for matching the counterpoise correction.">
<polygon fill="white" stroke="black" points="348,-304.5 348,-323.5 558,-323.5 558,-304.5 348,-304.5"/>
<text text-anchor="middle" x="453" y="-311.5" font-family="Ubuntu-R" font-size="10.00">forcebalance.counterpoise.Counterpoise</text>
</a>
</g>
<!-- Node1&#45;&gt;Node11 -->
<g id="edge20" class="edge"><title>Node1&#45;&gt;Node11</title>
<path fill="none" stroke="midnightblue" d="M255.256,-217.535C274.071,-239.396 309.359,-276.173 348,-295 356.003,-298.899 364.706,-302.003 373.557,-304.472"/>
<polygon fill="midnightblue" stroke="midnightblue" points="257.779,-215.097 248.665,-209.695 252.421,-219.602 257.779,-215.097"/>
</g>
<!-- Node12 -->
<g id="node23" class="node"><title>Node12</title>
<a xlink:href="classforcebalance_1_1gmxqpio_1_1Monomer__QTPIE.html" target="_top" xlink:title="Subclass of Target for monomer properties of QTPIE (implemented within gromacs WCV branch)...">
<polygon fill="white" stroke="black" points="351.5,-266.5 351.5,-285.5 554.5,-285.5 554.5,-266.5 351.5,-266.5"/>
<text text-anchor="middle" x="453" y="-273.5" font-family="Ubuntu-R" font-size="10.00">forcebalance.gmxqpio.Monomer_QTPIE</text>
</a>
</g>
<!-- Node1&#45;&gt;Node12 -->
<g id="edge22" class="edge"><title>Node1&#45;&gt;Node12</title>
<path fill="none" stroke="midnightblue" d="M264.127,-215.034C285.176,-228.044 317.526,-246.388 348,-257 359.093,-260.863 371.14,-263.982 382.97,-266.487"/>
<polygon fill="midnightblue" stroke="midnightblue" points="265.896,-212.012 255.568,-209.651 262.17,-217.938 265.896,-212.012"/>
</g>
<!-- Node13 -->
<g id="node25" class="node"><title>Node13</title>
<a xlink:href="classforcebalance_1_1interaction_1_1Interaction.html" target="_top" xlink:title="Subclass of Target for fitting force fields to interaction energies.">
<polygon fill="white" stroke="black" points="360,-228.5 360,-247.5 546,-247.5 546,-228.5 360,-228.5"/>
<text text-anchor="middle" x="453" y="-235.5" font-family="Ubuntu-R" font-size="10.00">forcebalance.interaction.Interaction</text>
</a>
</g>
<!-- Node1&#45;&gt;Node13 -->
<g id="edge24" class="edge"><title>Node1&#45;&gt;Node13</title>
<path fill="none" stroke="midnightblue" d="M304.005,-211.347C334.279,-216.799 370.158,-223.261 399.006,-228.456"/>
<polygon fill="midnightblue" stroke="midnightblue" points="304.434,-207.868 293.972,-209.54 303.193,-214.757 304.434,-207.868"/>
</g>
<!-- Node17 -->
<g id="node33" class="node"><title>Node17</title>
<a xlink:href="classforcebalance_1_1leastsq_1_1LeastSquares.html" target="_top" xlink:title="Subclass of Target for general least squares fitting.">
<polygon fill="white" stroke="black" points="360.5,-190.5 360.5,-209.5 545.5,-209.5 545.5,-190.5 360.5,-190.5"/>
<text text-anchor="middle" x="453" y="-197.5" font-family="Ubuntu-R" font-size="10.00">forcebalance.leastsq.LeastSquares</text>
</a>
</g>
<!-- Node1&#45;&gt;Node17 -->
<g id="edge32" class="edge"><title>Node1&#45;&gt;Node17</title>
<path fill="none" stroke="midnightblue" d="M321.922,-200C334.422,-200 347.409,-200 360.127,-200"/>
<polygon fill="midnightblue" stroke="midnightblue" points="321.553,-196.5 311.553,-200 321.553,-203.5 321.553,-196.5"/>
</g>
<!-- Node19 -->
<g id="node37" class="node"><title>Node19</title>
<a xlink:href="classforcebalance_1_1liquid_1_1Liquid.html" target="_top" xlink:title="Subclass of Target for liquid property matching.">
<polygon fill="white" stroke="black" points="384.5,-152.5 384.5,-171.5 521.5,-171.5 521.5,-152.5 384.5,-152.5"/>
<text text-anchor="middle" x="453" y="-159.5" font-family="Ubuntu-R" font-size="10.00">forcebalance.liquid.Liquid</text>
</a>
</g>
<!-- Node1&#45;&gt;Node19 -->
<g id="edge36" class="edge"><title>Node1&#45;&gt;Node19</title>
<path fill="none" stroke="midnightblue" d="M304.005,-188.653C334.279,-183.201 370.158,-176.739 399.006,-171.544"/>
<polygon fill="midnightblue" stroke="midnightblue" points="303.193,-185.243 293.972,-190.46 304.434,-192.132 303.193,-185.243"/>
</g>
<!-- Node23 -->
<g id="node45" class="node"><title>Node23</title>
<a xlink:href="classforcebalance_1_1moments_1_1Moments.html" target="_top" xlink:title="Subclass of Target for fitting force fields to multipole moments (from experiment or theory)...">
<polygon fill="white" stroke="black" points="365,-114.5 365,-133.5 541,-133.5 541,-114.5 365,-114.5"/>
<text text-anchor="middle" x="453" y="-121.5" font-family="Ubuntu-R" font-size="10.00">forcebalance.moments.Moments</text>
</a>
</g>
<!-- Node1&#45;&gt;Node23 -->
<g id="edge44" class="edge"><title>Node1&#45;&gt;Node23</title>
<path fill="none" stroke="midnightblue" d="M264.127,-184.966C285.176,-171.956 317.526,-153.612 348,-143 359.093,-139.137 371.14,-136.018 382.97,-133.513"/>
<polygon fill="midnightblue" stroke="midnightblue" points="262.17,-182.062 255.568,-190.349 265.896,-187.988 262.17,-182.062"/>
</g>
<!-- Node25 -->
<g id="node49" class="node"><title>Node25</title>
<a xlink:href="classforcebalance_1_1psi4io_1_1RDVR3__Psi4.html" target="_top" xlink:title="Subclass of Target for R&#45;DVR3 grid fitting.">
<polygon fill="white" stroke="black" points="368.5,-76.5 368.5,-95.5 537.5,-95.5 537.5,-76.5 368.5,-76.5"/>
<text text-anchor="middle" x="453" y="-83.5" font-family="Ubuntu-R" font-size="10.00">forcebalance.psi4io.RDVR3_Psi4</text>
</a>
</g>
<!-- Node1&#45;&gt;Node25 -->
<g id="edge48" class="edge"><title>Node1&#45;&gt;Node25</title>
<path fill="none" stroke="midnightblue" d="M255.256,-182.465C274.071,-160.604 309.359,-123.827 348,-105 356.003,-101.101 364.706,-97.9973 373.557,-95.5276"/>
<polygon fill="midnightblue" stroke="midnightblue" points="252.421,-180.398 248.665,-190.305 257.779,-184.903 252.421,-180.398"/>
</g>
<!-- Node26 -->
<g id="node51" class="node"><title>Node26</title>
<a xlink:href="classforcebalance_1_1target_1_1RemoteTarget.html" target="_top" xlink:title="forcebalance.target.RemoteTarget">
<polygon fill="white" stroke="black" points="363.5,-38.5 363.5,-57.5 542.5,-57.5 542.5,-38.5 363.5,-38.5"/>
<text text-anchor="middle" x="453" y="-45.5" font-family="Ubuntu-R" font-size="10.00">forcebalance.target.RemoteTarget</text>
</a>
</g>
<!-- Node1&#45;&gt;Node26 -->
<g id="edge50" class="edge"><title>Node1&#45;&gt;Node26</title>
<path fill="none" stroke="midnightblue" d="M250.442,-181.108C266.265,-151.567 301.077,-94.9364 348,-67 354.466,-63.1503 361.529,-60.0464 368.831,-57.5481"/>
<polygon fill="midnightblue" stroke="midnightblue" points="247.152,-179.848 245.648,-190.335 253.364,-183.075 247.152,-179.848"/>
</g>
<!-- Node27 -->
<g id="node53" class="node"><title>Node27</title>
<a xlink:href="classforcebalance_1_1vibration_1_1Vibration.html" target="_top" xlink:title="Subclass of Target for fitting force fields to vibrational spectra (from experiment or theory)...">
<polygon fill="white" stroke="black" points="369,-0.5 369,-19.5 537,-19.5 537,-0.5 369,-0.5"/>
<text text-anchor="middle" x="453" y="-7.5" font-family="Ubuntu-R" font-size="10.00">forcebalance.vibration.Vibration</text>
</a>
</g>
<!-- Node1&#45;&gt;Node27 -->
<g id="edge52" class="edge"><title>Node1&#45;&gt;Node27</title>
<path fill="none" stroke="midnightblue" d="M247.262,-180.431C259.951,-144.165 292.324,-66.7787 348,-29 354.379,-24.6716 361.464,-21.252 368.852,-18.5595"/>
<polygon fill="midnightblue" stroke="midnightblue" points="243.821,-179.682 243.952,-190.276 250.456,-181.913 243.821,-179.682"/>
</g>
<!-- Node2 -->
<g id="node2" class="node"><title>Node2</title>
<a xlink:href="classforcebalance_1_1BaseClass.html" target="_top" xlink:title="Provides some nifty functions that are common to all ForceBalance classes.">
<polygon fill="white" stroke="black" points="0.5,-190.5 0.5,-209.5 131.5,-209.5 131.5,-190.5 0.5,-190.5"/>
<text text-anchor="middle" x="66" y="-197.5" font-family="Ubuntu-R" font-size="10.00">forcebalance.BaseClass</text>
</a>
</g>
<!-- Node2&#45;&gt;Node1 -->
<g id="edge2" class="edge"><title>Node2&#45;&gt;Node1</title>
<path fill="none" stroke="midnightblue" d="M141.789,-200C150.605,-200 159.581,-200 168.337,-200"/>
<polygon fill="midnightblue" stroke="midnightblue" points="141.536,-196.5 131.536,-200 141.536,-203.5 141.536,-196.5"/>
</g>
<!-- Node4 -->
<g id="node7" class="node"><title>Node4</title>
<a xlink:href="classforcebalance_1_1abinitio__internal_1_1AbInitio__Internal.html" target="_top" xlink:title="Subclass of Target for force and energy matching using an internal implementation.">
<polygon fill="white" stroke="black" points="594,-532.5 594,-551.5 830,-551.5 830,-532.5 594,-532.5"/>
<text text-anchor="middle" x="712" y="-539.5" font-family="Ubuntu-R" font-size="10.00">forcebalance.abinitio_internal.AbInitio_Internal</text>
</a>
</g>
<!-- Node3&#45;&gt;Node4 -->
<g id="edge6" class="edge"><title>Node3&#45;&gt;Node4</title>
<path fill="none" stroke="midnightblue" d="M476.587,-462.39C503.384,-479.887 549.987,-507.966 594,-523 605.392,-526.891 617.687,-529.997 629.878,-532.472"/>
<polygon fill="midnightblue" stroke="midnightblue" points="478.241,-459.287 467.972,-456.681 474.374,-465.122 478.241,-459.287"/>
</g>
<!-- Node5 -->
<g id="node9" class="node"><title>Node5</title>
<a xlink:href="classforcebalance_1_1amberio_1_1AbInitio__AMBER.html" target="_top" xlink:title="Subclass of Target for force and energy matching using AMBER.">
<polygon fill="white" stroke="black" points="613,-494.5 613,-513.5 811,-513.5 811,-494.5 613,-494.5"/>
<text text-anchor="middle" x="712" y="-501.5" font-family="Ubuntu-R" font-size="10.00">forcebalance.amberio.AbInitio_AMBER</text>
</a>
</g>
<!-- Node3&#45;&gt;Node5 -->
<g id="edge8" class="edge"><title>Node3&#45;&gt;Node5</title>
<path fill="none" stroke="midnightblue" d="M495.216,-459.401C522.957,-467.447 560.457,-477.745 594,-485 610.392,-488.546 628.206,-491.759 644.874,-494.493"/>
<polygon fill="midnightblue" stroke="midnightblue" points="496.043,-455.996 485.463,-456.548 494.078,-462.715 496.043,-455.996"/>
</g>
<!-- Node6 -->
<g id="node11" class="node"><title>Node6</title>
<a xlink:href="classforcebalance_1_1gmxio_1_1AbInitio__GMX.html" target="_top" xlink:title="Subclass of AbInitio for force and energy matching using normal GROMACS.">
<polygon fill="white" stroke="black" points="624,-456.5 624,-475.5 800,-475.5 800,-456.5 624,-456.5"/>
<text text-anchor="middle" x="712" y="-463.5" font-family="Ubuntu-R" font-size="10.00">forcebalance.gmxio.AbInitio_GMX</text>
</a>
</g>
<!-- Node3&#45;&gt;Node6 -->
<g id="edge10" class="edge"><title>Node3&#45;&gt;Node6</title>
<path fill="none" stroke="midnightblue" d="M540.235,-453.375C567.154,-455.365 596.859,-457.562 623.841,-459.556"/>
<polygon fill="midnightblue" stroke="midnightblue" points="540.296,-449.87 530.065,-452.624 539.78,-456.851 540.296,-449.87"/>
</g>
<!-- Node7 -->
<g id="node13" class="node"><title>Node7</title>
<a xlink:href="classforcebalance_1_1openmmio_1_1AbInitio__OpenMM.html" target="_top" xlink:title="Subclass of AbInitio for force and energy matching using OpenMM.">
<polygon fill="white" stroke="black" points="603,-418.5 603,-437.5 821,-437.5 821,-418.5 603,-418.5"/>
<text text-anchor="middle" x="712" y="-425.5" font-family="Ubuntu-R" font-size="10.00">forcebalance.openmmio.AbInitio_OpenMM</text>
</a>
</g>
<!-- Node3&#45;&gt;Node7 -->
<g id="edge12" class="edge"><title>Node3&#45;&gt;Node7</title>
<path fill="none" stroke="midnightblue" d="M540.104,-440.634C560.195,-439.149 581.844,-437.548 602.758,-436.002"/>
<polygon fill="midnightblue" stroke="midnightblue" points="539.78,-437.149 530.065,-441.376 540.296,-444.13 539.78,-437.149"/>
</g>
<!-- Node8 -->
<g id="node15" class="node"><title>Node8</title>
<a xlink:href="classforcebalance_1_1tinkerio_1_1AbInitio__TINKER.html" target="_top" xlink:title="Subclass of Target for force and energy matching using TINKER.">
<polygon fill="white" stroke="black" points="615.5,-380.5 615.5,-399.5 808.5,-399.5 808.5,-380.5 615.5,-380.5"/>
<text text-anchor="middle" x="712" y="-387.5" font-family="Ubuntu-R" font-size="10.00">forcebalance.tinkerio.AbInitio_TINKER</text>
</a>
</g>
<!-- Node3&#45;&gt;Node8 -->
<g id="edge14" class="edge"><title>Node3&#45;&gt;Node8</title>
<path fill="none" stroke="midnightblue" d="M495.216,-434.599C522.957,-426.553 560.457,-416.255 594,-409 610.392,-405.454 628.206,-402.241 644.874,-399.507"/>
<polygon fill="midnightblue" stroke="midnightblue" points="494.078,-431.285 485.463,-437.452 496.043,-438.004 494.078,-431.285"/>
</g>
<!-- Node10 -->
<g id="node19" class="node"><title>Node10</title>
<a xlink:href="classforcebalance_1_1tinkerio_1_1BindingEnergy__TINKER.html" target="_top" xlink:title="Subclass of BindingEnergy for binding energy matching using TINKER.">
<polygon fill="white" stroke="black" points="599,-342.5 599,-361.5 825,-361.5 825,-342.5 599,-342.5"/>
<text text-anchor="middle" x="712" y="-349.5" font-family="Ubuntu-R" font-size="10.00">forcebalance.tinkerio.BindingEnergy_TINKER</text>
</a>
</g>
<!-- Node9&#45;&gt;Node10 -->
<g id="edge18" class="edge"><title>Node9&#45;&gt;Node10</title>
<path fill="none" stroke="midnightblue" d="M557.133,-352C570.783,-352 584.831,-352 598.627,-352"/>
<polygon fill="midnightblue" stroke="midnightblue" points="556.783,-348.5 546.783,-352 556.783,-355.5 556.783,-348.5"/>
</g>
<!-- Node14 -->
<g id="node27" class="node"><title>Node14</title>
<a xlink:href="classforcebalance_1_1gmxio_1_1Interaction__GMX.html" target="_top" xlink:title="Subclass of Interaction for interaction energy matching using GROMACS.">
<polygon fill="white" stroke="black" points="616.5,-304.5 616.5,-323.5 807.5,-323.5 807.5,-304.5 616.5,-304.5"/>
<text text-anchor="middle" x="712" y="-311.5" font-family="Ubuntu-R" font-size="10.00">forcebalance.gmxio.Interaction_GMX</text>
</a>
</g>
<!-- Node13&#45;&gt;Node14 -->
<g id="edge26" class="edge"><title>Node13&#45;&gt;Node14</title>
<path fill="none" stroke="midnightblue" d="M544.618,-250.86C549.245,-252.654 553.736,-254.69 558,-257 578.455,-268.083 573.437,-284.119 594,-295 601.276,-298.85 609.134,-301.961 617.216,-304.469"/>
<polygon fill="midnightblue" stroke="midnightblue" points="545.555,-247.481 534.96,-247.509 543.26,-254.094 545.555,-247.481"/>
</g>
<!-- Node15 -->
<g id="node29" class="node"><title>Node15</title>
<a xlink:href="classforcebalance_1_1openmmio_1_1Interaction__OpenMM.html" target="_top" xlink:title="Subclass of Target for interaction matching using OpenMM.">
<polygon fill="white" stroke="black" points="595,-266.5 595,-285.5 829,-285.5 829,-266.5 595,-266.5"/>
<text text-anchor="middle" x="712" y="-273.5" font-family="Ubuntu-R" font-size="10.00">forcebalance.openmmio.Interaction_OpenMM</text>
</a>
</g>
<!-- Node13&#45;&gt;Node15 -->
<g id="edge28" class="edge"><title>Node13&#45;&gt;Node15</title>
<path fill="none" stroke="midnightblue" d="M528.824,-249.063C566.092,-254.574 610.704,-261.17 646.453,-266.456"/>
<polygon fill="midnightblue" stroke="midnightblue" points="528.925,-245.54 518.52,-247.54 527.901,-252.465 528.925,-245.54"/>
</g>
<!-- Node16 -->
<g id="node31" class="node"><title>Node16</title>
<a xlink:href="classforcebalance_1_1tinkerio_1_1Interaction__TINKER.html" target="_top" xlink:title="Subclass of Target for interaction matching using TINKER.">
<polygon fill="white" stroke="black" points="607.5,-228.5 607.5,-247.5 816.5,-247.5 816.5,-228.5 607.5,-228.5"/>
<text text-anchor="middle" x="712" y="-235.5" font-family="Ubuntu-R" font-size="10.00">forcebalance.tinkerio.Interaction_TINKER</text>
</a>
</g>
<!-- Node13&#45;&gt;Node16 -->
<g id="edge30" class="edge"><title>Node13&#45;&gt;Node16</title>
<path fill="none" stroke="midnightblue" d="M556.407,-238C573.176,-238 590.564,-238 607.362,-238"/>
<polygon fill="midnightblue" stroke="midnightblue" points="556.057,-234.5 546.057,-238 556.057,-241.5 556.057,-234.5"/>
</g>
<!-- Node18 -->
<g id="node35" class="node"><title>Node18</title>
<a xlink:href="classforcebalance_1_1psi4io_1_1THCDF__Psi4.html" target="_top" xlink:title="forcebalance.psi4io.THCDF_Psi4">
<polygon fill="white" stroke="black" points="627.5,-190.5 627.5,-209.5 796.5,-209.5 796.5,-190.5 627.5,-190.5"/>
<text text-anchor="middle" x="712" y="-197.5" font-family="Ubuntu-R" font-size="10.00">forcebalance.psi4io.THCDF_Psi4</text>
</a>
</g>
<!-- Node17&#45;&gt;Node18 -->
<g id="edge34" class="edge"><title>Node17&#45;&gt;Node18</title>
<path fill="none" stroke="midnightblue" d="M555.793,-200C579.563,-200 604.608,-200 627.478,-200"/>
<polygon fill="midnightblue" stroke="midnightblue" points="555.694,-196.5 545.694,-200 555.694,-203.5 555.694,-196.5"/>
</g>
<!-- Node20 -->
<g id="node39" class="node"><title>Node20</title>
<a xlink:href="classforcebalance_1_1gmxio_1_1Liquid__GMX.html" target="_top" xlink:title="forcebalance.gmxio.Liquid_GMX">
<polygon fill="white" stroke="black" points="628,-152.5 628,-171.5 796,-171.5 796,-152.5 628,-152.5"/>
<text text-anchor="middle" x="712" y="-159.5" font-family="Ubuntu-R" font-size="10.00">forcebalance.gmxio.Liquid_GMX</text>
</a>
</g>
<!-- Node19&#45;&gt;Node20 -->
<g id="edge38" class="edge"><title>Node19&#45;&gt;Node20</title>
<path fill="none" stroke="midnightblue" d="M531.645,-162C562.04,-162 596.96,-162 627.864,-162"/>
<polygon fill="midnightblue" stroke="midnightblue" points="531.524,-158.5 521.524,-162 531.524,-165.5 531.524,-158.5"/>
</g>
<!-- Node21 -->
<g id="node41" class="node"><title>Node21</title>
<a xlink:href="classforcebalance_1_1openmmio_1_1Liquid__OpenMM.html" target="_top" xlink:title="forcebalance.openmmio.Liquid_OpenMM">
<polygon fill="white" stroke="black" points="606.5,-114.5 606.5,-133.5 817.5,-133.5 817.5,-114.5 606.5,-114.5"/>
<text text-anchor="middle" x="712" y="-121.5" font-family="Ubuntu-R" font-size="10.00">forcebalance.openmmio.Liquid_OpenMM</text>
</a>
</g>
<!-- Node19&#45;&gt;Node21 -->
<g id="edge40" class="edge"><title>Node19&#45;&gt;Node21</title>
<path fill="none" stroke="midnightblue" d="M528.824,-150.937C566.092,-145.426 610.704,-138.83 646.453,-133.544"/>
<polygon fill="midnightblue" stroke="midnightblue" points="527.901,-147.535 518.52,-152.46 528.925,-154.46 527.901,-147.535"/>
</g>
<!-- Node22 -->
<g id="node43" class="node"><title>Node22</title>
<a xlink:href="classforcebalance_1_1tinkerio_1_1Liquid__TINKER.html" target="_top" xlink:title="forcebalance.tinkerio.Liquid_TINKER">
<polygon fill="white" stroke="black" points="619.5,-76.5 619.5,-95.5 804.5,-95.5 804.5,-76.5 619.5,-76.5"/>
<text text-anchor="middle" x="712" y="-83.5" font-family="Ubuntu-R" font-size="10.00">forcebalance.tinkerio.Liquid_TINKER</text>
</a>
</g>
<!-- Node19&#45;&gt;Node22 -->
<g id="edge42" class="edge"><title>Node19&#45;&gt;Node22</title>
<path fill="none" stroke="midnightblue" d="M531.314,-153.573C540.616,-150.925 549.736,-147.478 558,-143 578.455,-131.917 573.437,-115.881 594,-105 601.912,-100.813 610.514,-97.5006 619.342,-94.8861"/>
<polygon fill="midnightblue" stroke="midnightblue" points="530.408,-150.193 521.582,-156.055 532.137,-156.976 530.408,-150.193"/>
</g>
<!-- Node24 -->
<g id="node47" class="node"><title>Node24</title>
<a xlink:href="classforcebalance_1_1tinkerio_1_1Moments__TINKER.html" target="_top" xlink:title="Subclass of Target for multipole moment matching using TINKER.">
<polygon fill="white" stroke="black" points="610.5,-38.5 610.5,-57.5 813.5,-57.5 813.5,-38.5 610.5,-38.5"/>
<text text-anchor="middle" x="712" y="-45.5" font-family="Ubuntu-R" font-size="10.00">forcebalance.tinkerio.Moments_TINKER</text>
</a>
</g>
<!-- Node23&#45;&gt;Node24 -->
<g id="edge46" class="edge"><title>Node23&#45;&gt;Node24</title>
<path fill="none" stroke="midnightblue" d="M544.618,-111.14C549.245,-109.346 553.736,-107.31 558,-105 578.455,-93.9167 573.437,-77.8811 594,-67 601.276,-63.15 609.134,-60.0393 617.216,-57.5308"/>
<polygon fill="midnightblue" stroke="midnightblue" points="543.26,-107.906 534.96,-114.491 545.555,-114.519 543.26,-107.906"/>
</g>
</g>
</svg>
