<?xml version="1.0" encoding="UTF-8" standalone="no"?>
<!DOCTYPE svg PUBLIC "-//W3C//DTD SVG 1.1//EN"
 "http://www.w3.org/Graphics/SVG/1.1/DTD/svg11.dtd">
<!-- Generated by graphviz version 2.40.1 (20161225.0304)
 -->
<!-- Title: src.optimizer.Optimizer.Hessian Pages: 1 -->
<svg width="451pt" height="66pt"
 viewBox="0.00 0.00 451.00 66.00" xmlns="http://www.w3.org/2000/svg" xmlns:xlink="http://www.w3.org/1999/xlink">
<g id="graph0" class="graph" transform="scale(1 1) rotate(0) translate(4 62)">
<title>src.optimizer.Optimizer.Hessian</title>
<polygon fill="#ffffff" stroke="transparent" points="-4,4 -4,-62 447,-62 447,4 -4,4"/>
<!-- Node28 -->
<g id="node1" class="node">
<title>Node28</title>
<polygon fill="#bfbfbf" stroke="#000000" points="0,-14 0,-44 133,-44 133,-14 0,-14"/>
<text text-anchor="start" x="8" y="-32" font-family="Ubuntu-R" font-size="10.00" fill="#000000">src.optimizer.Optimizer.</text>
<text text-anchor="middle" x="66.5" y="-21" font-family="Ubuntu-R" font-size="10.00" fill="#000000">Hessian</text>
</g>
<!-- Node29 -->
<g id="node2" class="node">
<title>Node29</title>
<g id="a_node2"><a xlink:href="namespacesrc_1_1nifty.html#a9bda70a78d0f5d31e10dfffaf85803c9" target="_top" xlink:title="Cool&#45;looking printout for slick formatting of output. ">
<polygon fill="#ffffff" stroke="#000000" points="169,-38.5 169,-57.5 270,-57.5 270,-38.5 169,-38.5"/>
<text text-anchor="middle" x="219.5" y="-45.5" font-family="Ubuntu-R" font-size="10.00" fill="#000000">src.nifty.printcool</text>
</a>
</g>
</g>
<!-- Node28&#45;&gt;Node29 -->
<g id="edge1" class="edge">
<title>Node28&#45;&gt;Node29</title>
<path fill="none" stroke="#191970" d="M133.1629,-37.2784C141.636,-38.3306 150.2728,-39.4032 158.6481,-40.4432"/>
<polygon fill="#191970" stroke="#191970" points="158.3509,-43.9331 168.706,-41.6922 159.2136,-36.9865 158.3509,-43.9331"/>
</g>
<!-- Node31 -->
<g id="node4" class="node">
<title>Node31</title>
<g id="a_node4"><a xlink:href="namespacesrc_1_1nifty.html#a11bdf49dd8157535d935181a390cf877" target="_top" xlink:title="Printout of a 2&#45;D array. ">
<polygon fill="#ffffff" stroke="#000000" points="172,-.5 172,-19.5 267,-19.5 267,-.5 172,-.5"/>
<text text-anchor="middle" x="219.5" y="-7.5" font-family="Ubuntu-R" font-size="10.00" fill="#000000">src.nifty.pmat2d</text>
</a>
</g>
</g>
<!-- Node28&#45;&gt;Node31 -->
<g id="edge3" class="edge">
<title>Node28&#45;&gt;Node31</title>
<path fill="none" stroke="#191970" d="M133.1629,-20.7216C142.7433,-19.5319 152.5329,-18.3162 161.9173,-17.1508"/>
<polygon fill="#191970" stroke="#191970" points="162.4198,-20.6154 171.9122,-15.9096 161.5571,-13.6687 162.4198,-20.6154"/>
</g>
<!-- Node30 -->
<g id="node3" class="node">
<title>Node30</title>
<g id="a_node3"><a xlink:href="namespacesrc_1_1nifty.html#a6ae2951ba2a22420a11abda6be7e5454" target="_top" xlink:title="src.nifty.warn_press_key">
<polygon fill="#ffffff" stroke="#000000" points="306,-38.5 306,-57.5 443,-57.5 443,-38.5 306,-38.5"/>
<text text-anchor="middle" x="374.5" y="-45.5" font-family="Ubuntu-R" font-size="10.00" fill="#000000">src.nifty.warn_press_key</text>
</a>
</g>
</g>
<!-- Node29&#45;&gt;Node30 -->
<g id="edge2" class="edge">
<title>Node29&#45;&gt;Node30</title>
<path fill="none" stroke="#191970" d="M270.2528,-48C278.4389,-48 287.0789,-48 295.7399,-48"/>
<polygon fill="#191970" stroke="#191970" points="295.8908,-51.5001 305.8908,-48 295.8907,-44.5001 295.8908,-51.5001"/>
</g>
</g>
</svg>
