<?xml version="1.0" encoding="UTF-8" standalone="no"?>
<!DOCTYPE svg PUBLIC "-//W3C//DTD SVG 1.1//EN"
 "http://www.w3.org/Graphics/SVG/1.1/DTD/svg11.dtd">
<!-- Generated by graphviz version 2.40.1 (20161225.0304)
 -->
<!-- Title: src.thermo.Thermo.submit_jobs Pages: 1 -->
<svg width="513pt" height="116pt"
 viewBox="0.00 0.00 513.00 116.00" xmlns="http://www.w3.org/2000/svg" xmlns:xlink="http://www.w3.org/1999/xlink">
<g id="graph0" class="graph" transform="scale(1 1) rotate(0) translate(4 112)">
<title>src.thermo.Thermo.submit_jobs</title>
<polygon fill="#ffffff" stroke="transparent" points="-4,4 -4,-112 509,-112 509,4 -4,4"/>
<!-- Node19 -->
<g id="node1" class="node">
<title>Node19</title>
<polygon fill="#bfbfbf" stroke="#000000" points="0,-44.5 0,-63.5 172,-63.5 172,-44.5 0,-44.5"/>
<text text-anchor="middle" x="86" y="-51.5" font-family="Ubuntu-R" font-size="10.00" fill="#000000">src.thermo.Thermo.submit_jobs</text>
</g>
<!-- Node20 -->
<g id="node2" class="node">
<title>Node20</title>
<g id="a_node2"><a xlink:href="namespacesrc_1_1nifty.html#a7fd3a0edb0212c320360d7685227b0f5" target="_top" xlink:title="src.nifty.LinkFile">
<polygon fill="#ffffff" stroke="#000000" points="210.5,-88.5 210.5,-107.5 305.5,-107.5 305.5,-88.5 210.5,-88.5"/>
<text text-anchor="middle" x="258" y="-95.5" font-family="Ubuntu-R" font-size="10.00" fill="#000000">src.nifty.LinkFile</text>
</a>
</g>
</g>
<!-- Node19&#45;&gt;Node20 -->
<g id="edge1" class="edge">
<title>Node19&#45;&gt;Node20</title>
<path fill="none" stroke="#191970" d="M123.3214,-63.5473C149.0161,-70.1204 183.3551,-78.9048 210.9277,-85.9583"/>
<polygon fill="#191970" stroke="#191970" points="210.1959,-89.3837 220.7514,-88.4713 211.9308,-82.6021 210.1959,-89.3837"/>
</g>
<!-- Node22 -->
<g id="node4" class="node">
<title>Node22</title>
<g id="a_node4"><a xlink:href="namespacesrc_1_1nifty.html#a5592cf01ab24cb101579643160ce72cf" target="_top" xlink:title="src.nifty.link_dir\l_contents">
<polygon fill="#ffffff" stroke="#000000" points="211,-39 211,-69 305,-69 305,-39 211,-39"/>
<text text-anchor="start" x="219" y="-57" font-family="Ubuntu-R" font-size="10.00" fill="#000000">src.nifty.link_dir</text>
<text text-anchor="middle" x="258" y="-46" font-family="Ubuntu-R" font-size="10.00" fill="#000000">_contents</text>
</a>
</g>
</g>
<!-- Node19&#45;&gt;Node22 -->
<g id="edge3" class="edge">
<title>Node19&#45;&gt;Node22</title>
<path fill="none" stroke="#191970" d="M172.252,-54C181.8742,-54 191.4923,-54 200.6243,-54"/>
<polygon fill="#191970" stroke="#191970" points="200.7025,-57.5001 210.7025,-54 200.7024,-50.5001 200.7025,-57.5001"/>
</g>
<!-- Node23 -->
<g id="node5" class="node">
<title>Node23</title>
<g id="a_node5"><a xlink:href="namespacesrc_1_1nifty.html#aed3eba850f6ddf4538d09ee61d19e4bd" target="_top" xlink:title="Write an object to a zipped pickle file specified by the path. ">
<polygon fill="#ffffff" stroke="#000000" points="208,-.5 208,-19.5 308,-19.5 308,-.5 208,-.5"/>
<text text-anchor="middle" x="258" y="-7.5" font-family="Ubuntu-R" font-size="10.00" fill="#000000">src.nifty.lp_dump</text>
</a>
</g>
</g>
<!-- Node19&#45;&gt;Node23 -->
<g id="edge4" class="edge">
<title>Node19&#45;&gt;Node23</title>
<path fill="none" stroke="#191970" d="M123.3214,-44.4527C149.0161,-37.8796 183.3551,-29.0952 210.9277,-22.0417"/>
<polygon fill="#191970" stroke="#191970" points="211.9308,-25.3979 220.7514,-19.5287 210.1959,-18.6163 211.9308,-25.3979"/>
</g>
<!-- Node21 -->
<g id="node3" class="node">
<title>Node21</title>
<g id="a_node3"><a xlink:href="namespacesrc_1_1nifty.html#a39a23ca3b83aadd4bfdf3eee9abb3257" target="_top" xlink:title="src.nifty.MissingFileInspection">
<polygon fill="#ffffff" stroke="#000000" points="344,-88.5 344,-107.5 505,-107.5 505,-88.5 344,-88.5"/>
<text text-anchor="middle" x="424.5" y="-95.5" font-family="Ubuntu-R" font-size="10.00" fill="#000000">src.nifty.MissingFileInspection</text>
</a>
</g>
</g>
<!-- Node20&#45;&gt;Node21 -->
<g id="edge2" class="edge">
<title>Node20&#45;&gt;Node21</title>
<path fill="none" stroke="#191970" d="M305.7122,-98C314.5559,-98 324.0583,-98 333.6969,-98"/>
<polygon fill="#191970" stroke="#191970" points="333.7687,-101.5001 343.7687,-98 333.7686,-94.5001 333.7687,-101.5001"/>
</g>
</g>
</svg>
