<?xml version="1.0" encoding="UTF-8" standalone="no"?>
<!DOCTYPE svg PUBLIC "-//W3C//DTD SVG 1.1//EN"
 "http://www.w3.org/Graphics/SVG/1.1/DTD/svg11.dtd">
<!-- Generated by graphviz version 2.28.0 (20111219.2309)
 -->
<!-- Title: forcebalance.Mol2.mol2.set_num_bonds Pages: 1 -->
<svg width="1502pt" height="193pt"
 viewBox="0.00 0.00 1502.00 193.00" xmlns="http://www.w3.org/2000/svg" xmlns:xlink="http://www.w3.org/1999/xlink">
<g id="graph1" class="graph" transform="scale(1 1) rotate(0) translate(4 189)">
<title>forcebalance.Mol2.mol2.set_num_bonds</title>
<polygon fill="white" stroke="white" points="-4,5 -4,-189 1499,-189 1499,5 -4,5"/>
<!-- Node1 -->
<g id="node1" class="node"><title>Node1</title>
<polygon fill="#bfbfbf" stroke="black" points="0.5,-93 0.5,-123 149.5,-123 149.5,-93 0.5,-93"/>
<text text-anchor="start" x="8.5" y="-111" font-family="Ubuntu-R" font-size="10.00">forcebalance.Mol2.mol2.set</text>
<text text-anchor="middle" x="75" y="-100" font-family="Ubuntu-R" font-size="10.00">_num_bonds</text>
</g>
<!-- Node2 -->
<g id="node3" class="node"><title>Node2</title>
<a xlink:href="classforcebalance_1_1Mol2_1_1mol2.html#a6ee55f5fae46cee9c0e7d6683c9b5c50" target="_top" xlink:title="bond identifier (integer, starting from 1) ">
<polygon fill="white" stroke="black" points="186.5,-93 186.5,-123 335.5,-123 335.5,-93 186.5,-93"/>
<text text-anchor="start" x="194.5" y="-111" font-family="Ubuntu-R" font-size="10.00">forcebalance.Mol2.mol2.set</text>
<text text-anchor="middle" x="261" y="-100" font-family="Ubuntu-R" font-size="10.00">_mol_type</text>
</a>
</g>
<!-- Node1&#45;&gt;Node2 -->
<g id="edge2" class="edge"><title>Node1&#45;&gt;Node2</title>
<path fill="none" stroke="midnightblue" d="M149.515,-101.373C158.315,-101.254 167.351,-101.222 176.281,-101.274"/>
<polygon fill="midnightblue" stroke="midnightblue" points="176.269,-104.774 186.302,-101.37 176.335,-97.7746 176.269,-104.774"/>
</g>
<!-- Node2&#45;&gt;Node1 -->
<g id="edge4" class="edge"><title>Node2&#45;&gt;Node1</title>
<path fill="none" stroke="midnightblue" d="M186.302,-114.63C177.498,-114.747 168.462,-114.778 159.533,-114.725"/>
<polygon fill="midnightblue" stroke="midnightblue" points="159.548,-111.225 149.515,-114.627 159.48,-118.224 159.548,-111.225"/>
</g>
<!-- Node2&#45;&gt;Node2 -->
<g id="edge36" class="edge"><title>Node2&#45;&gt;Node2</title>
<path fill="none" stroke="midnightblue" d="M228.305,-123.275C221.039,-132.406 231.938,-141 261,-141 278.256,-141 289.108,-137.97 293.557,-133.598"/>
<polygon fill="midnightblue" stroke="midnightblue" points="297.061,-133.321 293.695,-123.275 290.062,-133.228 297.061,-133.321"/>
</g>
<!-- Node3 -->
<g id="node6" class="node"><title>Node3</title>
<a xlink:href="classforcebalance_1_1Mol2_1_1mol2.html#a57bf99785e120a6aedd8be49585f4c5d" target="_top" xlink:title="number of substructures (integer) ">
<polygon fill="white" stroke="black" points="372.5,-137 372.5,-167 521.5,-167 521.5,-137 372.5,-137"/>
<text text-anchor="start" x="380.5" y="-155" font-family="Ubuntu-R" font-size="10.00">forcebalance.Mol2.mol2.set</text>
<text text-anchor="middle" x="447" y="-144" font-family="Ubuntu-R" font-size="10.00">_num_subst</text>
</a>
</g>
<!-- Node2&#45;&gt;Node3 -->
<g id="edge6" class="edge"><title>Node2&#45;&gt;Node3</title>
<path fill="none" stroke="midnightblue" d="M324.808,-123.019C340.413,-126.751 357.267,-130.781 373.303,-134.616"/>
<polygon fill="midnightblue" stroke="midnightblue" points="372.623,-138.052 383.163,-136.974 374.251,-131.244 372.623,-138.052"/>
</g>
<!-- Node5 -->
<g id="node11" class="node"><title>Node5</title>
<a xlink:href="classforcebalance_1_1Mol2_1_1mol2.html#ab5de4b8eef6e851d9be12ecb92cf8f86" target="_top" xlink:title="number of features (integer) ">
<polygon fill="white" stroke="black" points="744.5,-71 744.5,-101 893.5,-101 893.5,-71 744.5,-71"/>
<text text-anchor="start" x="752.5" y="-89" font-family="Ubuntu-R" font-size="10.00">forcebalance.Mol2.mol2.set</text>
<text text-anchor="middle" x="819" y="-78" font-family="Ubuntu-R" font-size="10.00">_num_feat</text>
</a>
</g>
<!-- Node2&#45;&gt;Node5 -->
<g id="edge12" class="edge"><title>Node2&#45;&gt;Node5</title>
<path fill="none" stroke="midnightblue" d="M335.546,-105.09C438.618,-101.012 625.545,-93.6151 733.978,-89.3246"/>
<polygon fill="midnightblue" stroke="midnightblue" points="734.367,-92.8121 744.22,-88.9193 734.09,-85.8175 734.367,-92.8121"/>
</g>
<!-- Node11 -->
<g id="node24" class="node"><title>Node11</title>
<a xlink:href="classforcebalance_1_1Mol2_1_1mol2.html#a981c9a485d4db6abbcb61b8188090078" target="_top" xlink:title="number of sets (integer) ">
<polygon fill="white" stroke="black" points="372.5,-25 372.5,-55 521.5,-55 521.5,-25 372.5,-25"/>
<text text-anchor="start" x="380.5" y="-43" font-family="Ubuntu-R" font-size="10.00">forcebalance.Mol2.mol2.set</text>
<text text-anchor="middle" x="447" y="-32" font-family="Ubuntu-R" font-size="10.00">_num_sets</text>
</a>
</g>
<!-- Node2&#45;&gt;Node11 -->
<g id="edge26" class="edge"><title>Node2&#45;&gt;Node11</title>
<path fill="none" stroke="midnightblue" d="M302.836,-92.9086C330.231,-82.7843 366.501,-69.3802 395.678,-58.5971"/>
<polygon fill="midnightblue" stroke="midnightblue" points="397.112,-61.7988 405.279,-55.0492 394.685,-55.2328 397.112,-61.7988"/>
</g>
<!-- Node4 -->
<g id="node8" class="node"><title>Node4</title>
<a xlink:href="classforcebalance_1_1Mol2_1_1mol2.html#aaab9bc1afebb05a355c53db2a35740be" target="_top" xlink:title="bond identifier (integer, starting from 1) ">
<polygon fill="white" stroke="black" points="558.5,-137 558.5,-167 707.5,-167 707.5,-137 558.5,-137"/>
<text text-anchor="start" x="566.5" y="-155" font-family="Ubuntu-R" font-size="10.00">forcebalance.Mol2.mol2.set</text>
<text text-anchor="middle" x="633" y="-144" font-family="Ubuntu-R" font-size="10.00">_charge_type</text>
</a>
</g>
<!-- Node3&#45;&gt;Node4 -->
<g id="edge8" class="edge"><title>Node3&#45;&gt;Node4</title>
<path fill="none" stroke="midnightblue" d="M521.515,-152C530.315,-152 539.351,-152 548.281,-152"/>
<polygon fill="midnightblue" stroke="midnightblue" points="548.302,-155.5 558.302,-152 548.302,-148.5 548.302,-155.5"/>
</g>
<!-- Node4&#45;&gt;Node4 -->
<g id="edge10" class="edge"><title>Node4&#45;&gt;Node4</title>
<path fill="none" stroke="midnightblue" d="M600.305,-167.275C593.039,-176.406 603.938,-185 633,-185 650.256,-185 661.108,-181.97 665.557,-177.598"/>
<polygon fill="midnightblue" stroke="midnightblue" points="669.061,-177.321 665.695,-167.275 662.062,-177.228 669.061,-177.321"/>
</g>
<!-- Node6 -->
<g id="node13" class="node"><title>Node6</title>
<a xlink:href="classforcebalance_1_1Mol2_1_1mol2.html#a8d49f0024dfe625e1b43a244ec76f3b3" target="_top" xlink:title="Parse a series of text lines, and setup compound information. ">
<polygon fill="white" stroke="black" points="930.5,-76.5 930.5,-95.5 1091.5,-95.5 1091.5,-76.5 930.5,-76.5"/>
<text text-anchor="middle" x="1011" y="-83.5" font-family="Ubuntu-R" font-size="10.00">forcebalance.Mol2.mol2.parse</text>
</a>
</g>
<!-- Node5&#45;&gt;Node6 -->
<g id="edge14" class="edge"><title>Node5&#45;&gt;Node6</title>
<path fill="none" stroke="midnightblue" d="M893.731,-86C902.447,-86 911.414,-86 920.319,-86"/>
<polygon fill="midnightblue" stroke="midnightblue" points="920.33,-89.5001 930.33,-86 920.33,-82.5001 920.33,-89.5001"/>
</g>
<!-- Node7 -->
<g id="node15" class="node"><title>Node7</title>
<a xlink:href="classforcebalance_1_1Mol2_1_1mol2.html#af5a261aefed1c65fd5f56b5b30e69995" target="_top" xlink:title="return the atom instance given its atom identifier ">
<polygon fill="white" stroke="black" points="1128,-114.5 1128,-133.5 1308,-133.5 1308,-114.5 1128,-114.5"/>
<text text-anchor="middle" x="1218" y="-121.5" font-family="Ubuntu-R" font-size="10.00">forcebalance.Mol2.mol2.get_atom</text>
</a>
</g>
<!-- Node6&#45;&gt;Node7 -->
<g id="edge16" class="edge"><title>Node6&#45;&gt;Node7</title>
<path fill="none" stroke="midnightblue" d="M1063.47,-95.54C1091.37,-100.712 1126.05,-107.14 1155.38,-112.578"/>
<polygon fill="midnightblue" stroke="midnightblue" points="1155.04,-116.075 1165.51,-114.456 1156.32,-109.192 1155.04,-116.075"/>
</g>
<!-- Node8 -->
<g id="node17" class="node"><title>Node8</title>
<a xlink:href="classforcebalance_1_1Mol2_1_1mol2.html#a2d2b34613f2b72ad3a7fcdc94a3de994" target="_top" xlink:title="return a dictionnary of atom instances bonded to the atom, and their types ">
<polygon fill="white" stroke="black" points="1344.5,-92 1344.5,-122 1493.5,-122 1493.5,-92 1344.5,-92"/>
<text text-anchor="start" x="1352.5" y="-110" font-family="Ubuntu-R" font-size="10.00">forcebalance.Mol2.mol2.get</text>
<text text-anchor="middle" x="1419" y="-99" font-family="Ubuntu-R" font-size="10.00">_bonded_atoms</text>
</a>
</g>
<!-- Node6&#45;&gt;Node8 -->
<g id="edge20" class="edge"><title>Node6&#45;&gt;Node8</title>
<path fill="none" stroke="midnightblue" d="M1091.73,-90.1239C1161.61,-93.7386 1262.87,-98.9758 1333.99,-102.655"/>
<polygon fill="midnightblue" stroke="midnightblue" points="1334.1,-106.165 1344.26,-103.186 1334.46,-99.174 1334.1,-106.165"/>
</g>
<!-- Node9 -->
<g id="node20" class="node"><title>Node9</title>
<a xlink:href="classforcebalance_1_1Mol2_1_1mol2.html#aa5a8b41dee69923e1854b0385ba588a4" target="_top" xlink:title="modify atom types to specify donnor, acceptor, or both ">
<polygon fill="white" stroke="black" points="1143.5,-27 1143.5,-57 1292.5,-57 1292.5,-27 1143.5,-27"/>
<text text-anchor="start" x="1151.5" y="-45" font-family="Ubuntu-R" font-size="10.00">forcebalance.Mol2.mol2.set</text>
<text text-anchor="middle" x="1218" y="-34" font-family="Ubuntu-R" font-size="10.00">_donnor_acceptor_atoms</text>
</a>
</g>
<!-- Node6&#45;&gt;Node9 -->
<g id="edge22" class="edge"><title>Node6&#45;&gt;Node9</title>
<path fill="none" stroke="midnightblue" d="M1056.48,-76.4527C1079.97,-71.4103 1109.53,-65.0666 1136.86,-59.2013"/>
<polygon fill="midnightblue" stroke="midnightblue" points="1137.77,-62.5861 1146.81,-57.0654 1136.3,-55.7419 1137.77,-62.5861"/>
</g>
<!-- Node7&#45;&gt;Node8 -->
<g id="edge18" class="edge"><title>Node7&#45;&gt;Node8</title>
<path fill="none" stroke="midnightblue" d="M1308.02,-116.395C1316.73,-115.652 1325.54,-114.899 1334.18,-114.16"/>
<polygon fill="midnightblue" stroke="midnightblue" points="1334.58,-117.639 1344.25,-113.301 1333.98,-110.665 1334.58,-117.639"/>
</g>
<!-- Node10 -->
<g id="node22" class="node"><title>Node10</title>
<a xlink:href="classforcebalance_1_1Mol2_1_1mol2.html#ad2182f9984dda90dfbd036d70921d5d8" target="_top" xlink:title="forcebalance.Mol2.mol2.\l__init__">
<polygon fill="white" stroke="black" points="1352,-27 1352,-57 1486,-57 1486,-27 1352,-27"/>
<text text-anchor="start" x="1360" y="-45" font-family="Ubuntu-R" font-size="10.00">forcebalance.Mol2.mol2.</text>
<text text-anchor="middle" x="1419" y="-34" font-family="Ubuntu-R" font-size="10.00">__init__</text>
</a>
</g>
<!-- Node9&#45;&gt;Node10 -->
<g id="edge24" class="edge"><title>Node9&#45;&gt;Node10</title>
<path fill="none" stroke="midnightblue" d="M1292.53,-42C1308.52,-42 1325.47,-42 1341.56,-42"/>
<polygon fill="midnightblue" stroke="midnightblue" points="1342,-45.5001 1352,-42 1341.99,-38.5001 1342,-45.5001"/>
</g>
<!-- Node12 -->
<g id="node26" class="node"><title>Node12</title>
<a xlink:href="classforcebalance_1_1Mol2_1_1mol2.html#a4055fdaf7ab9a93d60577a8ce4d91ce1" target="_top" xlink:title="bond identifier (integer, starting from 1) ">
<polygon fill="white" stroke="black" points="558.5,-49 558.5,-79 707.5,-79 707.5,-49 558.5,-49"/>
<text text-anchor="start" x="566.5" y="-67" font-family="Ubuntu-R" font-size="10.00">forcebalance.Mol2.mol2.set</text>
<text text-anchor="middle" x="633" y="-56" font-family="Ubuntu-R" font-size="10.00">_mol_name</text>
</a>
</g>
<!-- Node11&#45;&gt;Node12 -->
<g id="edge28" class="edge"><title>Node11&#45;&gt;Node12</title>
<path fill="none" stroke="midnightblue" d="M521.515,-49.5889C530.315,-50.7368 539.351,-51.9153 548.281,-53.0802"/>
<polygon fill="midnightblue" stroke="midnightblue" points="547.933,-56.5643 558.302,-54.3872 548.838,-49.6231 547.933,-56.5643"/>
</g>
<!-- Node13 -->
<g id="node29" class="node"><title>Node13</title>
<a xlink:href="classforcebalance_1_1Mol2_1_1mol2.html#a9aa06696da4a8e209bf5fca3acdf790b" target="_top" xlink:title="number of atoms (integer) ">
<polygon fill="white" stroke="black" points="558.5,-0 558.5,-30 707.5,-30 707.5,-0 558.5,-0"/>
<text text-anchor="start" x="566.5" y="-18" font-family="Ubuntu-R" font-size="10.00">forcebalance.Mol2.mol2.set</text>
<text text-anchor="middle" x="633" y="-7" font-family="Ubuntu-R" font-size="10.00">_num_atoms</text>
</a>
</g>
<!-- Node11&#45;&gt;Node13 -->
<g id="edge32" class="edge"><title>Node11&#45;&gt;Node13</title>
<path fill="none" stroke="midnightblue" d="M511.065,-24.9873C523.05,-23.0975 535.764,-21.2762 548.272,-19.6503"/>
<polygon fill="midnightblue" stroke="midnightblue" points="548.76,-23.1167 558.242,-18.3908 547.882,-16.1719 548.76,-23.1167"/>
</g>
<!-- Node12&#45;&gt;Node5 -->
<g id="edge30" class="edge"><title>Node12&#45;&gt;Node5</title>
<path fill="none" stroke="midnightblue" d="M707.515,-72.7898C716.315,-73.842 725.351,-74.9224 734.281,-75.9902"/>
<polygon fill="midnightblue" stroke="midnightblue" points="733.957,-79.4762 744.302,-77.1882 734.788,-72.5257 733.957,-79.4762"/>
</g>
<!-- Node13&#45;&gt;Node11 -->
<g id="edge34" class="edge"><title>Node13&#45;&gt;Node11</title>
<path fill="none" stroke="midnightblue" d="M568.976,-30.0063C556.92,-31.9077 544.125,-33.74 531.542,-35.3738"/>
<polygon fill="midnightblue" stroke="midnightblue" points="530.998,-31.9146 521.515,-36.639 531.874,-38.8595 530.998,-31.9146"/>
</g>
</g>
</svg>
