<?xml version="1.0" encoding="UTF-8" standalone="no"?>
<!DOCTYPE svg PUBLIC "-//W3C//DTD SVG 1.1//EN"
 "http://www.w3.org/Graphics/SVG/1.1/DTD/svg11.dtd">
<!-- Generated by graphviz version 2.28.0 (20111219.2309)
 -->
<!-- Title: G Pages: 1 -->
<svg width="2870pt" height="381pt"
 viewBox="0.00 0.00 2870.00 381.27" xmlns="http://www.w3.org/2000/svg" xmlns:xlink="http://www.w3.org/1999/xlink">
<g id="graph1" class="graph" transform="scale(1 1) rotate(0) translate(4 377.267)">
<title>G</title>
<polygon fill="white" stroke="white" points="-4,5 -4,-377.267 2867,-377.267 2867,5 -4,5"/>
<!-- Node1 -->
<g id="node1" class="node"><title>Node1</title>
<polygon fill="#bfbfbf" stroke="black" points="0.5,-99.5 0.5,-118.5 257.5,-118.5 257.5,-99.5 0.5,-99.5"/>
<text text-anchor="middle" x="129" y="-106.5" font-family="Ubuntu-R" font-size="10.00">forcebalance.Mol2.mol2_bond.set_target_atom_id</text>
</g>
<!-- Node2 -->
<g id="node3" class="node"><title>Node2</title>
<a xlink:href="classforcebalance_1_1Mol2_1_1mol2__bond.html#a1c2a0d5ae943de6bd80b4e32e956b09a" target="_top" xlink:title="Never to use (in theory)">
<polygon fill="white" stroke="black" points="294,-99.5 294,-118.5 524,-118.5 524,-99.5 294,-99.5"/>
<text text-anchor="middle" x="409" y="-106.5" font-family="Ubuntu-R" font-size="10.00">forcebalance.Mol2.mol2_bond.set_status_bit</text>
</a>
</g>
<!-- Node1&#45;&gt;Node2 -->
<g id="edge2" class="edge"><title>Node1&#45;&gt;Node2</title>
<path fill="none" stroke="midnightblue" d="M257.609,-109C266.329,-109 275.11,-109 283.812,-109"/>
<polygon fill="midnightblue" stroke="midnightblue" points="283.984,-112.5 293.984,-109 283.984,-105.5 283.984,-112.5"/>
</g>
<!-- Node3 -->
<g id="node5" class="node"><title>Node3</title>
<a xlink:href="classforcebalance_1_1Mol2_1_1mol2__bond.html#a093622f1fda304a18ee25b232ba2f998" target="_top" xlink:title="if data is passed, it will be installed">
<polygon fill="white" stroke="black" points="563,-218.5 563,-237.5 761,-237.5 761,-218.5 563,-218.5"/>
<text text-anchor="middle" x="662" y="-225.5" font-family="Ubuntu-R" font-size="10.00">forcebalance.Mol2.mol2_bond.__init__</text>
</a>
</g>
<!-- Node2&#45;&gt;Node3 -->
<g id="edge4" class="edge"><title>Node2&#45;&gt;Node3</title>
<path fill="none" stroke="midnightblue" d="M421.131,-118.779C444.855,-139.057 502.902,-185.731 560,-209 566.589,-211.685 573.575,-213.994 580.676,-215.98"/>
<polygon fill="midnightblue" stroke="midnightblue" points="579.845,-219.381 590.402,-218.493 581.595,-212.603 579.845,-219.381"/>
</g>
<!-- Node4 -->
<g id="node7" class="node"><title>Node4</title>
<a xlink:href="classforcebalance_1_1Mol2_1_1mol2__atom.html#a29aaa00b8fa91f4d18cef387622d339d" target="_top" xlink:title="split the text line into a series of properties">
<polygon fill="white" stroke="black" points="566.5,-180.5 566.5,-199.5 757.5,-199.5 757.5,-180.5 566.5,-180.5"/>
<text text-anchor="middle" x="662" y="-187.5" font-family="Ubuntu-R" font-size="10.00">forcebalance.Mol2.mol2_atom.parse</text>
</a>
</g>
<!-- Node2&#45;&gt;Node4 -->
<g id="edge6" class="edge"><title>Node2&#45;&gt;Node4</title>
<path fill="none" stroke="midnightblue" d="M439.779,-118.61C485.067,-133.225 571.298,-161.052 621.684,-177.312"/>
<polygon fill="midnightblue" stroke="midnightblue" points="620.668,-180.662 631.26,-180.403 622.818,-174.001 620.668,-180.662"/>
</g>
<!-- Node15 -->
<g id="node37" class="node"><title>Node15</title>
<a xlink:href="classforcebalance_1_1Mol2_1_1mol2__bond.html#a66ca9cb935bd3a9a1f41335d85d39b2f" target="_top" xlink:title="split the text line into a series of properties">
<polygon fill="white" stroke="black" points="567,-61.5 567,-80.5 757,-80.5 757,-61.5 567,-61.5"/>
<text text-anchor="middle" x="662" y="-68.5" font-family="Ubuntu-R" font-size="10.00">forcebalance.Mol2.mol2_bond.parse</text>
</a>
</g>
<!-- Node2&#45;&gt;Node15 -->
<g id="edge44" class="edge"><title>Node2&#45;&gt;Node15</title>
<path fill="none" stroke="midnightblue" d="M473.014,-99.46C507.924,-94.1749 551.494,-87.5786 587.896,-82.0675"/>
<polygon fill="midnightblue" stroke="midnightblue" points="588.597,-85.5014 597.96,-80.5439 587.549,-78.5803 588.597,-85.5014"/>
</g>
<!-- Node16 -->
<g id="node39" class="node"><title>Node16</title>
<a xlink:href="classforcebalance_1_1Mol2_1_1mol2__bond.html#adb17d4278c0063cf557807b77f2cb3e1" target="_top" xlink:title="forcebalance.Mol2.mol2_bond.__repr__">
<polygon fill="white" stroke="black" points="560.5,-99.5 560.5,-118.5 763.5,-118.5 763.5,-99.5 560.5,-99.5"/>
<text text-anchor="middle" x="662" y="-106.5" font-family="Ubuntu-R" font-size="10.00">forcebalance.Mol2.mol2_bond.__repr__</text>
</a>
</g>
<!-- Node2&#45;&gt;Node16 -->
<g id="edge46" class="edge"><title>Node2&#45;&gt;Node16</title>
<path fill="none" stroke="midnightblue" d="M524.116,-102.275C532.772,-102.237 541.502,-102.242 550.137,-102.291"/>
<polygon fill="midnightblue" stroke="midnightblue" points="550.195,-105.791 560.222,-102.368 550.249,-98.7916 550.195,-105.791"/>
</g>
<!-- Node5 -->
<g id="node9" class="node"><title>Node5</title>
<a xlink:href="classforcebalance_1_1Mol2_1_1mol2__atom.html#a3a6c9728119ace119108183920689a9d" target="_top" xlink:title="the coordinates of the atom">
<polygon fill="white" stroke="black" points="2142.5,-265.5 2142.5,-284.5 2347.5,-284.5 2347.5,-265.5 2142.5,-265.5"/>
<text text-anchor="middle" x="2245" y="-272.5" font-family="Ubuntu-R" font-size="10.00">forcebalance.Mol2.mol2_atom.set_crds</text>
</a>
</g>
<!-- Node4&#45;&gt;Node5 -->
<g id="edge8" class="edge"><title>Node4&#45;&gt;Node5</title>
<path fill="none" stroke="midnightblue" d="M734.471,-199.54C744.587,-202.007 754.701,-205.107 764,-209 781.969,-216.522 781.738,-227.221 800,-234 964.636,-295.119 1017.39,-275 1193,-275 1193,-275 1193,-275 1724,-275 1864.81,-275 2027.06,-275 2132.36,-275"/>
<polygon fill="midnightblue" stroke="midnightblue" points="2132.37,-278.5 2142.37,-275 2132.37,-271.5 2132.37,-278.5"/>
</g>
<!-- Node6 -->
<g id="node11" class="node"><title>Node6</title>
<a xlink:href="classforcebalance_1_1Mol2_1_1mol2__atom.html#ae879ba27197a573b6e3e1e97f0b76aff" target="_top" xlink:title="substructure identifier">
<polygon fill="white" stroke="black" points="2384,-303.5 2384,-322.5 2608,-322.5 2608,-303.5 2384,-303.5"/>
<text text-anchor="middle" x="2496" y="-310.5" font-family="Ubuntu-R" font-size="10.00">forcebalance.Mol2.mol2_atom.set_subst_id</text>
</a>
</g>
<!-- Node4&#45;&gt;Node6 -->
<g id="edge34" class="edge"><title>Node4&#45;&gt;Node6</title>
<path fill="none" stroke="midnightblue" d="M746.416,-199.6C752.644,-202.116 758.596,-205.208 764,-209 789.77,-227.08 773.553,-252.925 800,-270 947.615,-365.308 1017.29,-313 1193,-313 1193,-313 1193,-313 1985,-313 2117.82,-313 2270.09,-313 2373.42,-313"/>
<polygon fill="midnightblue" stroke="midnightblue" points="2373.57,-316.5 2383.57,-313 2373.57,-309.5 2373.57,-316.5"/>
</g>
<!-- Node7 -->
<g id="node13" class="node"><title>Node7</title>
<a xlink:href="classforcebalance_1_1Mol2_1_1mol2__atom.html#abfe80eac2952ad867d87e8b6e64f3c09" target="_top" xlink:title="atomic charge">
<polygon fill="white" stroke="black" points="2644,-322.5 2644,-341.5 2862,-341.5 2862,-322.5 2644,-322.5"/>
<text text-anchor="middle" x="2753" y="-329.5" font-family="Ubuntu-R" font-size="10.00">forcebalance.Mol2.mol2_atom.set_charge</text>
</a>
</g>
<!-- Node4&#45;&gt;Node7 -->
<g id="edge38" class="edge"><title>Node4&#45;&gt;Node7</title>
<path fill="none" stroke="midnightblue" d="M749.717,-199.633C754.846,-202.188 759.671,-205.277 764,-209 800.768,-240.619 761.892,-282.011 800,-312 937.935,-420.548 1017.48,-351 1193,-351 1193,-351 1193,-351 2246,-351 2378.93,-351 2531.37,-344.371 2633.89,-338.944"/>
<polygon fill="midnightblue" stroke="midnightblue" points="2634.16,-342.434 2643.96,-338.406 2633.79,-335.444 2634.16,-342.434"/>
</g>
<!-- Node8 -->
<g id="node15" class="node"><title>Node8</title>
<a xlink:href="classforcebalance_1_1Mol2_1_1mol2__atom.html#a233ebfedcde7e5d75b0ec54f194d2b4f" target="_top" xlink:title="The mol2 type of the atom.">
<polygon fill="white" stroke="black" points="800,-95.5 800,-114.5 1036,-114.5 1036,-95.5 800,-95.5"/>
<text text-anchor="middle" x="918" y="-102.5" font-family="Ubuntu-R" font-size="10.00">forcebalance.Mol2.mol2_atom.set_atom_type</text>
</a>
</g>
<!-- Node4&#45;&gt;Node8 -->
<g id="edge14" class="edge"><title>Node4&#45;&gt;Node8</title>
<path fill="none" stroke="midnightblue" d="M681.115,-180.407C706.877,-167.123 755.874,-143.165 800,-129 815.369,-124.067 832.209,-119.914 848.205,-116.524"/>
<polygon fill="midnightblue" stroke="midnightblue" points="848.94,-119.947 858.035,-114.512 847.536,-113.089 848.94,-119.947"/>
</g>
<!-- Node9 -->
<g id="node17" class="node"><title>Node9</title>
<a xlink:href="classforcebalance_1_1Mol2_1_1mol2__atom.html#af149e1d049adee0318eef510a8d32f9c" target="_top" xlink:title="substructure name">
<polygon fill="white" stroke="black" points="1072,-133.5 1072,-152.5 1316,-152.5 1316,-133.5 1072,-133.5"/>
<text text-anchor="middle" x="1194" y="-140.5" font-family="Ubuntu-R" font-size="10.00">forcebalance.Mol2.mol2_atom.set_subst_name</text>
</a>
</g>
<!-- Node4&#45;&gt;Node9 -->
<g id="edge36" class="edge"><title>Node4&#45;&gt;Node9</title>
<path fill="none" stroke="midnightblue" d="M711.965,-180.493C738.015,-175.761 770.647,-170.351 800,-167 886.933,-157.076 985.186,-151.076 1061.7,-147.557"/>
<polygon fill="midnightblue" stroke="midnightblue" points="1062.04,-151.045 1071.88,-147.098 1061.73,-144.052 1062.04,-151.045"/>
</g>
<!-- Node10 -->
<g id="node19" class="node"><title>Node10</title>
<a xlink:href="classforcebalance_1_1Mol2_1_1mol2__atom.html#a2b8855f5349976b26917fee353618354" target="_top" xlink:title="Never to use (in theory)">
<polygon fill="white" stroke="black" points="1352,-180.5 1352,-199.5 1584,-199.5 1584,-180.5 1352,-180.5"/>
<text text-anchor="middle" x="1468" y="-187.5" font-family="Ubuntu-R" font-size="10.00">forcebalance.Mol2.mol2_atom.set_status_bit</text>
</a>
</g>
<!-- Node4&#45;&gt;Node10 -->
<g id="edge40" class="edge"><title>Node4&#45;&gt;Node10</title>
<path fill="none" stroke="midnightblue" d="M757.593,-185.461C902.498,-182.7 1179.58,-182.525 1341.25,-184.936"/>
<polygon fill="midnightblue" stroke="midnightblue" points="1341.67,-188.443 1351.73,-185.098 1341.78,-181.443 1341.67,-188.443"/>
</g>
<!-- Node12 -->
<g id="node24" class="node"><title>Node12</title>
<a xlink:href="classforcebalance_1_1Mol2_1_1mol2__atom.html#a2e0ecf1c6da8fde8ab146d4341ac1341" target="_top" xlink:title="assemble the properties as a text line, and return it">
<polygon fill="white" stroke="black" points="1620.5,-223.5 1620.5,-242.5 1825.5,-242.5 1825.5,-223.5 1620.5,-223.5"/>
<text text-anchor="middle" x="1723" y="-230.5" font-family="Ubuntu-R" font-size="10.00">forcebalance.Mol2.mol2_atom.__repr__</text>
</a>
</g>
<!-- Node4&#45;&gt;Node12 -->
<g id="edge42" class="edge"><title>Node4&#45;&gt;Node12</title>
<path fill="none" stroke="midnightblue" d="M709.386,-199.504C735.818,-204.487 769.626,-210.136 800,-213 1091.28,-240.464 1436.5,-238.911 1610.25,-235.772"/>
<polygon fill="midnightblue" stroke="midnightblue" points="1610.49,-239.268 1620.42,-235.582 1610.36,-232.269 1610.49,-239.268"/>
</g>
<!-- Node5&#45;&gt;Node6 -->
<g id="edge10" class="edge"><title>Node5&#45;&gt;Node6</title>
<path fill="none" stroke="midnightblue" d="M2308.51,-284.54C2343.14,-289.825 2386.37,-296.421 2422.48,-301.932"/>
<polygon fill="midnightblue" stroke="midnightblue" points="2422.05,-305.407 2432.46,-303.456 2423.1,-298.487 2422.05,-305.407"/>
</g>
<!-- Node6&#45;&gt;Node7 -->
<g id="edge12" class="edge"><title>Node6&#45;&gt;Node7</title>
<path fill="none" stroke="midnightblue" d="M2608.1,-321.278C2616.59,-321.911 2625.18,-322.551 2633.71,-323.187"/>
<polygon fill="midnightblue" stroke="midnightblue" points="2633.46,-326.677 2643.7,-323.93 2633.98,-319.697 2633.46,-326.677"/>
</g>
<!-- Node8&#45;&gt;Node9 -->
<g id="edge16" class="edge"><title>Node8&#45;&gt;Node9</title>
<path fill="none" stroke="midnightblue" d="M987.788,-114.54C1026.22,-119.87 1074.27,-126.534 1114.21,-132.074"/>
<polygon fill="midnightblue" stroke="midnightblue" points="1113.8,-135.549 1124.18,-133.456 1114.76,-128.616 1113.8,-135.549"/>
</g>
<!-- Node9&#45;&gt;Node10 -->
<g id="edge18" class="edge"><title>Node9&#45;&gt;Node10</title>
<path fill="none" stroke="midnightblue" d="M1250.04,-152.511C1293.86,-160.083 1355.31,-170.701 1401.63,-178.705"/>
<polygon fill="midnightblue" stroke="midnightblue" points="1401.12,-182.169 1411.57,-180.422 1402.31,-175.271 1401.12,-182.169"/>
</g>
<!-- Node10&#45;&gt;Node4 -->
<g id="edge22" class="edge"><title>Node10&#45;&gt;Node4</title>
<path fill="none" stroke="midnightblue" d="M1351.73,-194.902C1195.41,-197.424 918.47,-197.365 767.778,-194.725"/>
<polygon fill="midnightblue" stroke="midnightblue" points="767.656,-191.223 757.593,-194.539 767.528,-198.222 767.656,-191.223"/>
</g>
<!-- Node11 -->
<g id="node21" class="node"><title>Node11</title>
<a xlink:href="classforcebalance_1_1Mol2_1_1mol2__atom.html#a1d745e4db9ba351cb8e4e53bf544132c" target="_top" xlink:title="if data is passed, it will be installed">
<polygon fill="white" stroke="black" points="1623,-180.5 1623,-199.5 1823,-199.5 1823,-180.5 1623,-180.5"/>
<text text-anchor="middle" x="1723" y="-187.5" font-family="Ubuntu-R" font-size="10.00">forcebalance.Mol2.mol2_atom.__init__</text>
</a>
</g>
<!-- Node10&#45;&gt;Node11 -->
<g id="edge20" class="edge"><title>Node10&#45;&gt;Node11</title>
<path fill="none" stroke="midnightblue" d="M1584.03,-190C1593.52,-190 1603.09,-190 1612.54,-190"/>
<polygon fill="midnightblue" stroke="midnightblue" points="1612.73,-193.5 1622.73,-190 1612.73,-186.5 1612.73,-193.5"/>
</g>
<!-- Node10&#45;&gt;Node12 -->
<g id="edge24" class="edge"><title>Node10&#45;&gt;Node12</title>
<path fill="none" stroke="midnightblue" d="M1525.15,-199.543C1563.8,-206.112 1615.3,-214.865 1655.93,-221.77"/>
<polygon fill="midnightblue" stroke="midnightblue" points="1655.56,-225.258 1666.01,-223.484 1656.74,-218.357 1655.56,-225.258"/>
</g>
<!-- Node13 -->
<g id="node26" class="node"><title>Node13</title>
<a xlink:href="classforcebalance_1_1Mol2_1_1mol2__atom.html#a1af054109bd2d27c29e89b5da0f70920" target="_top" xlink:title="atom identifier (integer, starting from 1)">
<polygon fill="white" stroke="black" points="1872,-225.5 1872,-244.5 2096,-244.5 2096,-225.5 1872,-225.5"/>
<text text-anchor="middle" x="1984" y="-232.5" font-family="Ubuntu-R" font-size="10.00">forcebalance.Mol2.mol2_atom.set_atom_id</text>
</a>
</g>
<!-- Node12&#45;&gt;Node13 -->
<g id="edge26" class="edge"><title>Node12&#45;&gt;Node13</title>
<path fill="none" stroke="midnightblue" d="M1825.62,-233.785C1837.47,-233.876 1849.64,-233.97 1861.72,-234.063"/>
<polygon fill="midnightblue" stroke="midnightblue" points="1861.81,-237.564 1871.83,-234.142 1861.86,-230.564 1861.81,-237.564"/>
</g>
<!-- Node14 -->
<g id="node29" class="node"><title>Node14</title>
<a xlink:href="classforcebalance_1_1Mol2_1_1mol2__atom.html#a4d57220ec5b591ad018112d600d4cc8b" target="_top" xlink:title="The name of the atom (string)">
<polygon fill="white" stroke="black" points="1862.5,-112.5 1862.5,-131.5 2105.5,-131.5 2105.5,-112.5 1862.5,-112.5"/>
<text text-anchor="middle" x="1984" y="-119.5" font-family="Ubuntu-R" font-size="10.00">forcebalance.Mol2.mol2_atom.set_atom_name</text>
</a>
</g>
<!-- Node12&#45;&gt;Node14 -->
<g id="edge30" class="edge"><title>Node12&#45;&gt;Node14</title>
<path fill="none" stroke="midnightblue" d="M1776.73,-223.495C1792.82,-219.825 1810.39,-215.03 1826,-209 1876.58,-189.466 1930.93,-156.294 1960.56,-137.048"/>
<polygon fill="midnightblue" stroke="midnightblue" points="1962.5,-139.966 1968.93,-131.552 1958.65,-134.115 1962.5,-139.966"/>
</g>
<!-- Node13&#45;&gt;Node5 -->
<g id="edge28" class="edge"><title>Node13&#45;&gt;Node5</title>
<path fill="none" stroke="midnightblue" d="M2046.71,-244.53C2084.42,-250.355 2132.82,-257.829 2172.24,-263.917"/>
<polygon fill="midnightblue" stroke="midnightblue" points="2171.9,-267.406 2182.32,-265.474 2172.97,-260.488 2171.9,-267.406"/>
</g>
<!-- Node14&#45;&gt;Node8 -->
<g id="edge32" class="edge"><title>Node14&#45;&gt;Node8</title>
<path fill="none" stroke="midnightblue" d="M1862.3,-120.071C1659.67,-116.834 1253.04,-110.337 1046.17,-107.032"/>
<polygon fill="midnightblue" stroke="midnightblue" points="1046.22,-103.532 1036.17,-106.872 1046.11,-110.531 1046.22,-103.532"/>
</g>
<!-- Node16&#45;&gt;Node2 -->
<g id="edge50" class="edge"><title>Node16&#45;&gt;Node2</title>
<path fill="none" stroke="midnightblue" d="M560.222,-115.632C551.685,-115.715 542.989,-115.754 534.301,-115.75"/>
<polygon fill="midnightblue" stroke="midnightblue" points="534.124,-112.249 524.116,-115.725 534.108,-119.249 534.124,-112.249"/>
</g>
<!-- Node16&#45;&gt;Node10 -->
<g id="edge48" class="edge"><title>Node16&#45;&gt;Node10</title>
<path fill="none" stroke="midnightblue" d="M708.116,-99.4832C734.719,-94.3594 769.116,-88.5744 800,-86 1029.16,-66.8976 1094.59,-61.8938 1316,-124 1361.29,-136.704 1410.69,-160.313 1440.24,-175.58"/>
<polygon fill="midnightblue" stroke="midnightblue" points="1438.98,-178.873 1449.46,-180.41 1442.23,-172.671 1438.98,-178.873"/>
</g>
<!-- Node17 -->
<g id="node43" class="node"><title>Node17</title>
<a xlink:href="classforcebalance_1_1Mol2_1_1mol2__bond.html#a7e8bcec38c5dd62a0c672ad855388ce0" target="_top" xlink:title="bond identifier (integer, starting from 1)">
<polygon fill="white" stroke="black" points="807.5,-10.5 807.5,-29.5 1028.5,-29.5 1028.5,-10.5 807.5,-10.5"/>
<text text-anchor="middle" x="918" y="-17.5" font-family="Ubuntu-R" font-size="10.00">forcebalance.Mol2.mol2_bond.set_bond_id</text>
</a>
</g>
<!-- Node16&#45;&gt;Node17 -->
<g id="edge52" class="edge"><title>Node16&#45;&gt;Node17</title>
<path fill="none" stroke="midnightblue" d="M740.789,-99.4544C748.874,-96.9805 756.768,-93.8809 764,-90 784.217,-79.151 780.286,-64.7372 800,-53 815.462,-43.7943 833.604,-37.06 850.925,-32.172"/>
<polygon fill="midnightblue" stroke="midnightblue" points="852.232,-35.4467 861.002,-29.5027 850.439,-28.6801 852.232,-35.4467"/>
</g>
<!-- Node18 -->
<g id="node45" class="node"><title>Node18</title>
<a xlink:href="classforcebalance_1_1Mol2_1_1mol2__bond.html#a1ced365259f0c6b7b4fa0f0d9fc5dc4d" target="_top" xlink:title="bond type (string) one of: 1 = single 2 = double 3 = triple am = amide ar = aromatic du = dummy un = ...">
<polygon fill="white" stroke="black" points="1077.5,-0.5 1077.5,-19.5 1310.5,-19.5 1310.5,-0.5 1077.5,-0.5"/>
<text text-anchor="middle" x="1194" y="-7.5" font-family="Ubuntu-R" font-size="10.00">forcebalance.Mol2.mol2_bond.set_bond_type</text>
</a>
</g>
<!-- Node17&#45;&gt;Node18 -->
<g id="edge54" class="edge"><title>Node17&#45;&gt;Node18</title>
<path fill="none" stroke="midnightblue" d="M1028.87,-15.9902C1041.44,-15.5315 1054.33,-15.0611 1067.08,-14.5955"/>
<polygon fill="midnightblue" stroke="midnightblue" points="1067.41,-18.0858 1077.28,-14.2233 1067.16,-11.0905 1067.41,-18.0858"/>
</g>
</g>
</svg>
