<?xml version="1.0" encoding="UTF-8" standalone="no"?>
<!DOCTYPE svg PUBLIC "-//W3C//DTD SVG 1.1//EN"
 "http://www.w3.org/Graphics/SVG/1.1/DTD/svg11.dtd">
<!-- Generated by graphviz version 2.32.0 (20130801.1845)
 -->
<!-- Title: forcebalance.forcefield.FF.find_spacings Pages: 1 -->
<svg width="1760pt" height="382pt"
 viewBox="0.00 0.00 1760.00 381.51" xmlns="http://www.w3.org/2000/svg" xmlns:xlink="http://www.w3.org/1999/xlink">
<g id="graph0" class="graph" transform="scale(1 1) rotate(0) translate(4 377.507)">
<title>forcebalance.forcefield.FF.find_spacings</title>
<polygon fill="white" stroke="white" points="-4,5 -4,-377.507 1757,-377.507 1757,5 -4,5"/>
<!-- Node1 -->
<g id="node1" class="node"><title>Node1</title>
<polygon fill="#bfbfbf" stroke="black" points="0.5335,-174 0.5335,-206 111.467,-206 111.467,-174 0.5335,-174"/>
<text text-anchor="start" x="8.5335" y="-193" font-family="Ubuntu-R" font-size="10.00">forcebalance.forcefield.</text>
<text text-anchor="middle" x="56" y="-181" font-family="Ubuntu-R" font-size="10.00">FF.find_spacings</text>
</g>
<!-- Node2 -->
<g id="node2" class="node"><title>Node2</title>
<g id="a_node2"><a xlink:href="classforcebalance_1_1forcefield_1_1FF.html#a260031479e0429e497f56987de541930" target="_top" xlink:title="Converts mathematical to physical parameters.">
<polygon fill="white" stroke="black" points="148.533,-174 148.533,-206 259.466,-206 259.466,-174 148.533,-174"/>
<text text-anchor="start" x="156.533" y="-193" font-family="Ubuntu-R" font-size="10.00">forcebalance.forcefield.</text>
<text text-anchor="middle" x="204" y="-181" font-family="Ubuntu-R" font-size="10.00">FF.create_pvals</text>
</a>
</g>
</g>
<!-- Node1&#45;&gt;Node2 -->
<g id="edge1" class="edge"><title>Node1&#45;&gt;Node2</title>
<path fill="none" stroke="midnightblue" d="M111.78,-190C120.388,-190 129.356,-190 138.164,-190"/>
<polygon fill="midnightblue" stroke="midnightblue" points="138.398,-193.5 148.398,-190 138.398,-186.5 138.398,-193.5"/>
</g>
<!-- Node3 -->
<g id="node3" class="node"><title>Node3</title>
<g id="a_node3"><a xlink:href="namespaceforcebalance_1_1nifty.html#a52114ceee9d55f94d9aecb3e176de294" target="_top" xlink:title="Given any list, array, or matrix, return a single&#45;index array.">
<polygon fill="white" stroke="black" points="299.858,-237 299.858,-257 404.142,-257 404.142,-237 299.858,-237"/>
<text text-anchor="middle" x="352" y="-244" font-family="Ubuntu-R" font-size="10.00">forcebalance.nifty.flat</text>
</a>
</g>
</g>
<!-- Node2&#45;&gt;Node3 -->
<g id="edge2" class="edge"><title>Node2&#45;&gt;Node3</title>
<path fill="none" stroke="midnightblue" d="M246.058,-206.029C268.047,-214.614 294.852,-225.079 315.867,-233.284"/>
<polygon fill="midnightblue" stroke="midnightblue" points="314.786,-236.619 325.374,-236.995 317.332,-230.098 314.786,-236.619"/>
</g>
<!-- Node4 -->
<g id="node4" class="node"><title>Node4</title>
<g id="a_node4"><a xlink:href="namespaceforcebalance_1_1nifty.html#a4c82187e92dfeb8a159f4aa44b501c40" target="_top" xlink:title="Invert a matrix using singular value decomposition.">
<polygon fill="white" stroke="black" points="444.413,-295 444.413,-315 577.587,-315 577.587,-295 444.413,-295"/>
<text text-anchor="middle" x="511" y="-302" font-family="Ubuntu-R" font-size="10.00">forcebalance.nifty.invert_svd</text>
</a>
</g>
</g>
<!-- Node2&#45;&gt;Node4 -->
<g id="edge15" class="edge"><title>Node2&#45;&gt;Node4</title>
<path fill="none" stroke="midnightblue" d="M219.36,-206.201C235.98,-223.854 265.057,-251.507 296,-266 339.217,-286.242 391.913,-296.004 434.199,-300.699"/>
<polygon fill="midnightblue" stroke="midnightblue" points="433.85,-304.181 444.158,-301.733 434.573,-297.218 433.85,-304.181"/>
</g>
<!-- Node7 -->
<g id="node7" class="node"><title>Node7</title>
<g id="a_node7"><a xlink:href="namespaceforcebalance_1_1nifty.html#afb3f205bce4984856e766af7e9fdaca8" target="_top" xlink:title="Given any list, array, or matrix, return a 1&#45;column matrix.">
<polygon fill="white" stroke="black" points="1148.41,-199 1148.41,-219 1251.59,-219 1251.59,-199 1148.41,-199"/>
<text text-anchor="middle" x="1200" y="-206" font-family="Ubuntu-R" font-size="10.00">forcebalance.nifty.col</text>
</a>
</g>
</g>
<!-- Node2&#45;&gt;Node7 -->
<g id="edge11" class="edge"><title>Node2&#45;&gt;Node7</title>
<path fill="none" stroke="midnightblue" d="M259.545,-190C320.567,-190 422.365,-190 510,-190 510,-190 510,-190 863,-190 959.42,-190 1071.16,-197.896 1138.39,-203.507"/>
<polygon fill="midnightblue" stroke="midnightblue" points="1138.13,-206.997 1148.39,-204.352 1138.72,-200.022 1138.13,-206.997"/>
</g>
<!-- Node10 -->
<g id="node10" class="node"><title>Node10</title>
<g id="a_node10"><a xlink:href="classforcebalance_1_1forcefield_1_1FF.html#ae5fba4d3e22f210632ead3653e6e12dd" target="_top" xlink:title="Converts physical to mathematical parameters.">
<polygon fill="white" stroke="black" points="296.534,-17 296.534,-49 407.466,-49 407.466,-17 296.534,-17"/>
<text text-anchor="start" x="304.534" y="-36" font-family="Ubuntu-R" font-size="10.00">forcebalance.forcefield.</text>
<text text-anchor="middle" x="352" y="-24" font-family="Ubuntu-R" font-size="10.00">FF.create_mvals</text>
</a>
</g>
</g>
<!-- Node2&#45;&gt;Node10 -->
<g id="edge12" class="edge"><title>Node2&#45;&gt;Node10</title>
<path fill="none" stroke="midnightblue" d="M220.075,-173.79C245.866,-146.055 298.581,-89.3688 328.659,-57.0238"/>
<polygon fill="midnightblue" stroke="midnightblue" points="331.542,-59.0639 335.789,-49.3574 326.416,-54.297 331.542,-59.0639"/>
</g>
<!-- Node13 -->
<g id="node13" class="node"><title>Node13</title>
<g id="a_node13"><a xlink:href="classforcebalance_1_1forcefield_1_1FF.html#a88715f96ff8e14c3c83b4f976ad147b4" target="_top" xlink:title="Create the rescaling factors for the coordinate transformation in parameter space.">
<polygon fill="white" stroke="black" points="296.534,-110 296.534,-142 407.466,-142 407.466,-110 296.534,-110"/>
<text text-anchor="start" x="304.534" y="-129" font-family="Ubuntu-R" font-size="10.00">forcebalance.forcefield.</text>
<text text-anchor="middle" x="352" y="-117" font-family="Ubuntu-R" font-size="10.00">FF.rsmake</text>
</a>
</g>
</g>
<!-- Node2&#45;&gt;Node13 -->
<g id="edge16" class="edge"><title>Node2&#45;&gt;Node13</title>
<path fill="none" stroke="midnightblue" d="M241.842,-173.85C261.021,-165.443 284.656,-155.082 305.023,-146.154"/>
<polygon fill="midnightblue" stroke="midnightblue" points="306.669,-149.254 314.423,-142.034 303.859,-142.843 306.669,-149.254"/>
</g>
<!-- Node3&#45;&gt;Node4 -->
<g id="edge3" class="edge"><title>Node3&#45;&gt;Node4</title>
<path fill="none" stroke="midnightblue" d="M380.347,-257.103C406.046,-266.597 444.699,-280.876 473.116,-291.374"/>
<polygon fill="midnightblue" stroke="midnightblue" points="472.11,-294.734 482.703,-294.916 474.536,-288.167 472.11,-294.734"/>
</g>
<!-- Node5 -->
<g id="node5" class="node"><title>Node5</title>
<g id="a_node5"><a xlink:href="namespaceforcebalance_1_1nifty.html#aa9fb9c7c65231eca50a7afc04f489b64" target="_top" xlink:title="forcebalance.nifty.get\l_least_squares">
<polygon fill="white" stroke="black" points="629.412,-308 629.412,-340 732.588,-340 732.588,-308 629.412,-308"/>
<text text-anchor="start" x="637.412" y="-327" font-family="Ubuntu-R" font-size="10.00">forcebalance.nifty.get</text>
<text text-anchor="middle" x="681" y="-315" font-family="Ubuntu-R" font-size="10.00">_least_squares</text>
</a>
</g>
</g>
<!-- Node4&#45;&gt;Node5 -->
<g id="edge4" class="edge"><title>Node4&#45;&gt;Node5</title>
<path fill="none" stroke="midnightblue" d="M577.916,-312.455C591.541,-313.996 605.833,-315.612 619.263,-317.131"/>
<polygon fill="midnightblue" stroke="midnightblue" points="619.01,-320.625 629.34,-318.271 619.797,-313.669 619.01,-320.625"/>
</g>
<!-- Node4&#45;&gt;Node7 -->
<g id="edge7" class="edge"><title>Node4&#45;&gt;Node7</title>
<path fill="none" stroke="midnightblue" d="M529.331,-315.09C549.067,-325.947 582.647,-342.526 614,-349 755.895,-378.3 799.536,-384.534 940,-349 1036.23,-324.657 1135.49,-256.69 1177.82,-225.287"/>
<polygon fill="midnightblue" stroke="midnightblue" points="1180.07,-227.973 1185.97,-219.17 1175.87,-222.376 1180.07,-227.973"/>
</g>
<!-- Node8 -->
<g id="node8" class="node"><title>Node8</title>
<g id="a_node8"><a xlink:href="namespaceforcebalance_1_1nifty.html#abb8f59044961a12588e0653c2baa8b01" target="_top" xlink:title="forcebalance.nifty.warn\l_press_key">
<polygon fill="white" stroke="black" points="625.528,-257 625.528,-289 736.472,-289 736.472,-257 625.528,-257"/>
<text text-anchor="start" x="633.528" y="-276" font-family="Ubuntu-R" font-size="10.00">forcebalance.nifty.warn</text>
<text text-anchor="middle" x="681" y="-264" font-family="Ubuntu-R" font-size="10.00">_press_key</text>
</a>
</g>
</g>
<!-- Node4&#45;&gt;Node8 -->
<g id="edge9" class="edge"><title>Node4&#45;&gt;Node8</title>
<path fill="none" stroke="midnightblue" d="M564.695,-294.963C580.713,-291.912 598.502,-288.523 615.219,-285.339"/>
<polygon fill="midnightblue" stroke="midnightblue" points="616.295,-288.697 625.463,-283.388 614.985,-281.821 616.295,-288.697"/>
</g>
<!-- Node5&#45;&gt;Node3 -->
<g id="edge5" class="edge"><title>Node5&#45;&gt;Node3</title>
<path fill="none" stroke="midnightblue" d="M639.339,-307.979C616.378,-299.106 589.948,-289.231 578,-286 523.564,-271.278 460.157,-260.876 414.554,-254.538"/>
<polygon fill="midnightblue" stroke="midnightblue" points="414.906,-251.053 404.524,-253.169 413.959,-257.989 414.906,-251.053"/>
</g>
<!-- Node6 -->
<g id="node6" class="node"><title>Node6</title>
<g id="a_node6"><a xlink:href="namespaceforcebalance_1_1nifty.html#ad5ca60565c864b4245a8212fe9d92e10" target="_top" xlink:title="Compute the (cross) statistical inefficiency of (two) timeseries.">
<polygon fill="white" stroke="black" points="797.636,-308 797.636,-340 926.364,-340 926.364,-308 797.636,-308"/>
<text text-anchor="start" x="805.636" y="-327" font-family="Ubuntu-R" font-size="10.00">forcebalance.nifty.statistical</text>
<text text-anchor="middle" x="862" y="-315" font-family="Ubuntu-R" font-size="10.00">Inefficiency</text>
</a>
</g>
</g>
<!-- Node5&#45;&gt;Node6 -->
<g id="edge6" class="edge"><title>Node5&#45;&gt;Node6</title>
<path fill="none" stroke="midnightblue" d="M732.815,-324C749.821,-324 769.135,-324 787.516,-324"/>
<polygon fill="midnightblue" stroke="midnightblue" points="787.612,-327.5 797.612,-324 787.612,-320.5 787.612,-327.5"/>
</g>
<!-- Node7&#45;&gt;Node3 -->
<g id="edge8" class="edge"><title>Node7&#45;&gt;Node3</title>
<path fill="none" stroke="midnightblue" d="M1148.39,-213.648C1082.67,-219.273 964.37,-228 863,-228 680,-228 680,-228 680,-228 587.291,-228 480.047,-235.705 414.378,-241.302"/>
<polygon fill="midnightblue" stroke="midnightblue" points="413.866,-237.833 404.204,-242.181 414.468,-244.807 413.866,-237.833"/>
</g>
<!-- Node9 -->
<g id="node9" class="node"><title>Node9</title>
<g id="a_node9"><a xlink:href="namespaceforcebalance_1_1nifty.html#a2fc81730e7efa7d138dd86f733507bfc" target="_top" xlink:title="Similar to the bultin function map().">
<polygon fill="white" stroke="black" points="784.035,-263 784.035,-283 939.965,-283 939.965,-263 784.035,-263"/>
<text text-anchor="middle" x="862" y="-270" font-family="Ubuntu-R" font-size="10.00">forcebalance.nifty.concurrent_map</text>
</a>
</g>
</g>
<!-- Node8&#45;&gt;Node9 -->
<g id="edge10" class="edge"><title>Node8&#45;&gt;Node9</title>
<path fill="none" stroke="midnightblue" d="M736.679,-273C748.442,-273 761.156,-273 773.809,-273"/>
<polygon fill="midnightblue" stroke="midnightblue" points="773.923,-276.5 783.923,-273 773.923,-269.5 773.923,-276.5"/>
</g>
<!-- Node11 -->
<g id="node11" class="node"><title>Node11</title>
<g id="a_node11"><a xlink:href="namespaceforcebalance_1_1molecule.html#a0dd31eff88d2bed0884ab21a13261d42" target="_top" xlink:title="ONLY matches integers! If you have a decimal point? None shall pass!">
<polygon fill="white" stroke="black" points="448.024,-0 448.024,-20 573.976,-20 573.976,-0 448.024,-0"/>
<text text-anchor="middle" x="511" y="-7" font-family="Ubuntu-R" font-size="10.00">forcebalance.molecule.isint</text>
</a>
</g>
</g>
<!-- Node10&#45;&gt;Node11 -->
<g id="edge13" class="edge"><title>Node10&#45;&gt;Node11</title>
<path fill="none" stroke="midnightblue" d="M407.47,-25.0203C417.235,-23.5898 427.548,-22.079 437.721,-20.5886"/>
<polygon fill="midnightblue" stroke="midnightblue" points="438.435,-24.0215 447.822,-19.1089 437.42,-17.0955 438.435,-24.0215"/>
</g>
<!-- Node12 -->
<g id="node12" class="node"><title>Node12</title>
<g id="a_node12"><a xlink:href="namespaceforcebalance_1_1molecule.html#afe989ffd119568047fc8265b1d329a70" target="_top" xlink:title="Matches ANY number; it can be a decimal, scientific notation, integer, or what have you...">
<polygon fill="white" stroke="black" points="614.14,-0 614.14,-20 747.86,-20 747.86,-0 614.14,-0"/>
<text text-anchor="middle" x="681" y="-7" font-family="Ubuntu-R" font-size="10.00">forcebalance.molecule.isfloat</text>
</a>
</g>
</g>
<!-- Node11&#45;&gt;Node12 -->
<g id="edge14" class="edge"><title>Node11&#45;&gt;Node12</title>
<path fill="none" stroke="midnightblue" d="M574.08,-10C583.722,-10 593.78,-10 603.693,-10"/>
<polygon fill="midnightblue" stroke="midnightblue" points="603.948,-13.5001 613.948,-10 603.948,-6.5001 603.948,-13.5001"/>
</g>
<!-- Node14 -->
<g id="node14" class="node"><title>Node14</title>
<g id="a_node14"><a xlink:href="namespaceforcebalance_1_1forcefield.html#ab1a855bace20dd5e45928467e2a133f1" target="_top" xlink:title="This function takes in a dictionary (rsfactors) and a string (termtype).">
<polygon fill="white" stroke="black" points="451.924,-90 451.924,-122 570.076,-122 570.076,-90 451.924,-90"/>
<text text-anchor="start" x="459.924" y="-109" font-family="Ubuntu-R" font-size="10.00">forcebalance.forcefield.rs</text>
<text text-anchor="middle" x="511" y="-97" font-family="Ubuntu-R" font-size="10.00">_override</text>
</a>
</g>
</g>
<!-- Node13&#45;&gt;Node14 -->
<g id="edge17" class="edge"><title>Node13&#45;&gt;Node14</title>
<path fill="none" stroke="midnightblue" d="M407.47,-119.061C418.567,-117.647 430.373,-116.144 441.877,-114.678"/>
<polygon fill="midnightblue" stroke="midnightblue" points="442.405,-118.139 451.882,-113.404 441.52,-111.195 442.405,-118.139"/>
</g>
<!-- Node15 -->
<g id="node15" class="node"><title>Node15</title>
<g id="a_node15"><a xlink:href="namespaceforcebalance_1_1nifty.html#a11babd62dc7bca389162c6318f9672ca" target="_top" xlink:title="Cool&#45;looking printout for slick formatting of output.">
<polygon fill="white" stroke="black" points="447.469,-141 447.469,-161 574.532,-161 574.532,-141 447.469,-141"/>
<text text-anchor="middle" x="511" y="-148" font-family="Ubuntu-R" font-size="10.00">forcebalance.nifty.printcool</text>
</a>
</g>
</g>
<!-- Node13&#45;&gt;Node15 -->
<g id="edge18" class="edge"><title>Node13&#45;&gt;Node15</title>
<path fill="none" stroke="midnightblue" d="M407.47,-134.674C417.102,-136.207 427.267,-137.826 437.306,-139.424"/>
<polygon fill="midnightblue" stroke="midnightblue" points="436.851,-142.896 447.277,-141.012 437.952,-135.983 436.851,-142.896"/>
</g>
<!-- Node23 -->
<g id="node23" class="node"><title>Node23</title>
<g id="a_node23"><a xlink:href="classforcebalance_1_1forcefield_1_1FF.html#acf0ce8fc4e9fbf5257f93d14d4a4f10f" target="_top" xlink:title="Create the transformation matrix to rescale and rotate the mathematical parameters.">
<polygon fill="white" stroke="black" points="455.534,-39 455.534,-71 566.466,-71 566.466,-39 455.534,-39"/>
<text text-anchor="start" x="463.534" y="-58" font-family="Ubuntu-R" font-size="10.00">forcebalance.forcefield.</text>
<text text-anchor="middle" x="511" y="-46" font-family="Ubuntu-R" font-size="10.00">FF.mktransmat</text>
</a>
</g>
</g>
<!-- Node13&#45;&gt;Node23 -->
<g id="edge30" class="edge"><title>Node13&#45;&gt;Node23</title>
<path fill="none" stroke="midnightblue" d="M382.949,-109.853C400.515,-100.637 423.265,-89.1372 444,-80 447.91,-78.2769 451.98,-76.5592 456.093,-74.8776"/>
<polygon fill="midnightblue" stroke="midnightblue" points="457.727,-77.9938 465.715,-71.0335 455.13,-71.4934 457.727,-77.9938"/>
</g>
<!-- Node15&#45;&gt;Node8 -->
<g id="edge19" class="edge"><title>Node15&#45;&gt;Node8</title>
<path fill="none" stroke="midnightblue" d="M526.035,-161.192C553.048,-180.808 612.83,-224.221 649.443,-250.81"/>
<polygon fill="midnightblue" stroke="midnightblue" points="647.625,-253.815 657.774,-256.859 651.739,-248.151 647.625,-253.815"/>
</g>
<!-- Node16 -->
<g id="node16" class="node"><title>Node16</title>
<g id="a_node16"><a xlink:href="namespaceforcebalance_1_1nifty.html#a51180e960742cc7547749fdfb3513ec4" target="_top" xlink:title="See documentation for printcool; this is a nice way to print out keys/values in a dictionary...">
<polygon fill="white" stroke="black" points="617.468,-113 617.468,-145 744.532,-145 744.532,-113 617.468,-113"/>
<text text-anchor="start" x="625.468" y="-132" font-family="Ubuntu-R" font-size="10.00">forcebalance.nifty.printcool</text>
<text text-anchor="middle" x="681" y="-120" font-family="Ubuntu-R" font-size="10.00">_dictionary</text>
</a>
</g>
</g>
<!-- Node15&#45;&gt;Node16 -->
<g id="edge20" class="edge"><title>Node15&#45;&gt;Node16</title>
<path fill="none" stroke="midnightblue" d="M574.557,-142.808C585.271,-141.405 596.483,-139.937 607.432,-138.503"/>
<polygon fill="midnightblue" stroke="midnightblue" points="607.93,-141.968 617.391,-137.199 607.021,-135.027 607.93,-141.968"/>
</g>
<!-- Node17 -->
<g id="node17" class="node"><title>Node17</title>
<g id="a_node17"><a xlink:href="namespaceforcebalance_1_1nifty.html#a3f1c7a1af9d35d5d1693074bc6f5497c" target="_top" xlink:title="ONLY matches integers! If you have a decimal point? None shall pass!">
<polygon fill="white" stroke="black" points="807.908,-119 807.908,-139 916.092,-139 916.092,-119 807.908,-119"/>
<text text-anchor="middle" x="862" y="-126" font-family="Ubuntu-R" font-size="10.00">forcebalance.nifty.isint</text>
</a>
</g>
</g>
<!-- Node16&#45;&gt;Node17 -->
<g id="edge21" class="edge"><title>Node16&#45;&gt;Node17</title>
<path fill="none" stroke="midnightblue" d="M744.606,-129C761.637,-129 780.102,-129 797.199,-129"/>
<polygon fill="midnightblue" stroke="midnightblue" points="797.643,-132.5 807.643,-129 797.643,-125.5 797.643,-132.5"/>
</g>
<!-- Node19 -->
<g id="node19" class="node"><title>Node19</title>
<g id="a_node19"><a xlink:href="namespaceforcebalance_1_1nifty.html#a8e3ef0108b9d37b82ba0dced7c6037ae" target="_top" xlink:title="Matches ANY number; it can be a decimal, scientific notation, what have you CAUTION &#45; this will also ...">
<polygon fill="white" stroke="black" points="1142.02,-102 1142.02,-122 1257.98,-122 1257.98,-102 1142.02,-102"/>
<text text-anchor="middle" x="1200" y="-109" font-family="Ubuntu-R" font-size="10.00">forcebalance.nifty.isfloat</text>
</a>
</g>
</g>
<!-- Node16&#45;&gt;Node19 -->
<g id="edge29" class="edge"><title>Node16&#45;&gt;Node19</title>
<path fill="none" stroke="midnightblue" d="M744.563,-114.752C757.533,-112.358 771.158,-110.247 784,-109 906.07,-97.1452 1049.29,-102.382 1131.56,-107.222"/>
<polygon fill="midnightblue" stroke="midnightblue" points="1131.58,-110.73 1141.77,-107.84 1132,-103.743 1131.58,-110.73"/>
</g>
<!-- Node18 -->
<g id="node18" class="node"><title>Node18</title>
<g id="a_node18"><a xlink:href="namespaceforcebalance_1_1nifty.html#a09263927eaec9deff283fbf1a820242f" target="_top" xlink:title="Matches things with a decimal only; see isint and isfloat.">
<polygon fill="white" stroke="black" points="976.36,-141 976.36,-161 1105.64,-161 1105.64,-141 976.36,-141"/>
<text text-anchor="middle" x="1041" y="-148" font-family="Ubuntu-R" font-size="10.00">forcebalance.nifty.isdecimal</text>
</a>
</g>
</g>
<!-- Node17&#45;&gt;Node18 -->
<g id="edge22" class="edge"><title>Node17&#45;&gt;Node18</title>
<path fill="none" stroke="midnightblue" d="M916.106,-135.601C931.791,-137.55 949.251,-139.721 966,-141.802"/>
<polygon fill="midnightblue" stroke="midnightblue" points="965.958,-145.324 976.314,-143.084 966.822,-138.377 965.958,-145.324"/>
</g>
<!-- Node18&#45;&gt;Node7 -->
<g id="edge28" class="edge"><title>Node18&#45;&gt;Node7</title>
<path fill="none" stroke="midnightblue" d="M1069.35,-161.103C1095.05,-170.597 1133.7,-184.876 1162.12,-195.374"/>
<polygon fill="midnightblue" stroke="midnightblue" points="1161.11,-198.734 1171.7,-198.916 1163.54,-192.167 1161.11,-198.734"/>
</g>
<!-- Node18&#45;&gt;Node19 -->
<g id="edge23" class="edge"><title>Node18&#45;&gt;Node19</title>
<path fill="none" stroke="midnightblue" d="M1082.43,-140.957C1102.67,-135.93 1127.36,-129.797 1148.8,-124.471"/>
<polygon fill="midnightblue" stroke="midnightblue" points="1149.84,-127.817 1158.71,-122.009 1148.16,-121.024 1149.84,-127.817"/>
</g>
<!-- Node19&#45;&gt;Node17 -->
<g id="edge24" class="edge"><title>Node19&#45;&gt;Node17</title>
<path fill="none" stroke="midnightblue" d="M1141.79,-114.894C1081.96,-117.922 988.301,-122.66 926.291,-125.798"/>
<polygon fill="midnightblue" stroke="midnightblue" points="926.051,-122.305 916.24,-126.306 926.404,-129.296 926.051,-122.305"/>
</g>
<!-- Node20 -->
<g id="node20" class="node"><title>Node20</title>
<g id="a_node20"><a xlink:href="namespaceforcebalance_1_1nifty.html#a8d63c8ae9a67c66673a6cf81357f827d" target="_top" xlink:title="Returns a big number if we encounter NaN.">
<polygon fill="white" stroke="black" points="1293.97,-102 1293.97,-122 1426.03,-122 1426.03,-102 1293.97,-102"/>
<text text-anchor="middle" x="1360" y="-109" font-family="Ubuntu-R" font-size="10.00">forcebalance.nifty.floatornan</text>
</a>
</g>
</g>
<!-- Node19&#45;&gt;Node20 -->
<g id="edge25" class="edge"><title>Node19&#45;&gt;Node20</title>
<path fill="none" stroke="midnightblue" d="M1258.04,-112C1266.36,-112 1275.04,-112 1283.66,-112"/>
<polygon fill="midnightblue" stroke="midnightblue" points="1283.72,-115.5 1293.72,-112 1283.72,-108.5 1283.72,-115.5"/>
</g>
<!-- Node21 -->
<g id="node21" class="node"><title>Node21</title>
<g id="a_node21"><a xlink:href="namespaceforcebalance_1_1nifty.html#a6c9727360cdff8f3011a12cc54d0e86e" target="_top" xlink:title="Given any list, array, or matrix, return a 1&#45;row matrix.">
<polygon fill="white" stroke="black" points="1462.75,-102 1462.75,-122 1569.25,-122 1569.25,-102 1462.75,-102"/>
<text text-anchor="middle" x="1516" y="-109" font-family="Ubuntu-R" font-size="10.00">forcebalance.nifty.row</text>
</a>
</g>
</g>
<!-- Node20&#45;&gt;Node21 -->
<g id="edge26" class="edge"><title>Node20&#45;&gt;Node21</title>
<path fill="none" stroke="midnightblue" d="M1426.31,-112C1435.03,-112 1443.96,-112 1452.62,-112"/>
<polygon fill="midnightblue" stroke="midnightblue" points="1452.65,-115.5 1462.65,-112 1452.65,-108.5 1452.65,-115.5"/>
</g>
<!-- Node22 -->
<g id="node22" class="node"><title>Node22</title>
<g id="a_node22"><a xlink:href="namespaceforcebalance_1_1nifty.html#a7676236002c6a65ea7d2e69a09923889" target="_top" xlink:title="Given two vectors vec1 and vec2, project out the component of vec1 that is along the vec2&#45;direction...">
<polygon fill="white" stroke="black" points="1606.03,-102 1606.03,-122 1751.97,-122 1751.97,-102 1606.03,-102"/>
<text text-anchor="middle" x="1679" y="-109" font-family="Ubuntu-R" font-size="10.00">forcebalance.nifty.orthogonalize</text>
</a>
</g>
</g>
<!-- Node21&#45;&gt;Node22 -->
<g id="edge27" class="edge"><title>Node21&#45;&gt;Node22</title>
<path fill="none" stroke="midnightblue" d="M1569.27,-112C1577.74,-112 1586.69,-112 1595.67,-112"/>
<polygon fill="midnightblue" stroke="midnightblue" points="1595.8,-115.5 1605.8,-112 1595.8,-108.5 1595.8,-115.5"/>
</g>
</g>
</svg>
