<?xml version="1.0" encoding="UTF-8" standalone="no"?>
<!DOCTYPE svg PUBLIC "-//W3C//DTD SVG 1.1//EN"
 "http://www.w3.org/Graphics/SVG/1.1/DTD/svg11.dtd">
<!-- Generated by graphviz version 2.32.0 (20130801.1845)
 -->
<!-- Title: forcebalance.interaction.Interaction.indicate Pages: 1 -->
<svg width="1462pt" height="198pt"
 viewBox="0.00 0.00 1462.00 198.00" xmlns="http://www.w3.org/2000/svg" xmlns:xlink="http://www.w3.org/1999/xlink">
<g id="graph0" class="graph" transform="scale(1 1) rotate(0) translate(4 194)">
<title>forcebalance.interaction.Interaction.indicate</title>
<polygon fill="white" stroke="white" points="-4,5 -4,-194 1459,-194 1459,5 -4,5"/>
<!-- Node1 -->
<g id="node1" class="node"><title>Node1</title>
<polygon fill="#bfbfbf" stroke="black" points="0.5835,-25 0.5835,-57 115.417,-57 115.417,-25 0.5835,-25"/>
<text text-anchor="start" x="8.5835" y="-44" font-family="Ubuntu-R" font-size="10.00">forcebalance.interaction.</text>
<text text-anchor="middle" x="58" y="-32" font-family="Ubuntu-R" font-size="10.00">Interaction.indicate</text>
</g>
<!-- Node2 -->
<g id="node2" class="node"><title>Node2</title>
<g id="a_node2"><a xlink:href="namespaceforcebalance_1_1nifty.html#a51180e960742cc7547749fdfb3513ec4" target="_top" xlink:title="See documentation for printcool; this is a nice way to print out keys/values in a dictionary...">
<polygon fill="white" stroke="black" points="152.469,-51 152.469,-83 279.531,-83 279.531,-51 152.469,-51"/>
<text text-anchor="start" x="160.469" y="-70" font-family="Ubuntu-R" font-size="10.00">forcebalance.nifty.printcool</text>
<text text-anchor="middle" x="216" y="-58" font-family="Ubuntu-R" font-size="10.00">_dictionary</text>
</a>
</g>
</g>
<!-- Node1&#45;&gt;Node2 -->
<g id="edge1" class="edge"><title>Node1&#45;&gt;Node2</title>
<path fill="none" stroke="midnightblue" d="M115.761,-50.4601C124.369,-51.8949 133.351,-53.3919 142.242,-54.8736"/>
<polygon fill="midnightblue" stroke="midnightblue" points="141.777,-58.3443 152.216,-56.536 142.928,-51.4396 141.777,-58.3443"/>
</g>
<!-- Node16 -->
<g id="node16" class="node"><title>Node16</title>
<g id="a_node16"><a xlink:href="classforcebalance_1_1interaction_1_1Interaction.html#a9fc3a40eb2852241ea440af719f6cf29" target="_top" xlink:title="Evaluate objective function.">
<polygon fill="white" stroke="black" points="158.583,-0 158.583,-32 273.417,-32 273.417,-0 158.583,-0"/>
<text text-anchor="start" x="166.583" y="-19" font-family="Ubuntu-R" font-size="10.00">forcebalance.interaction.</text>
<text text-anchor="middle" x="216" y="-7" font-family="Ubuntu-R" font-size="10.00">Interaction.get</text>
</a>
</g>
</g>
<!-- Node1&#45;&gt;Node16 -->
<g id="edge19" class="edge"><title>Node1&#45;&gt;Node16</title>
<path fill="none" stroke="midnightblue" d="M115.761,-31.9037C126.433,-30.1935 137.679,-28.3912 148.614,-26.6389"/>
<polygon fill="midnightblue" stroke="midnightblue" points="149.222,-30.086 158.543,-25.0477 148.115,-23.1742 149.222,-30.086"/>
</g>
<!-- Node3 -->
<g id="node3" class="node"><title>Node3</title>
<g id="a_node3"><a xlink:href="namespaceforcebalance_1_1nifty.html#a3f1c7a1af9d35d5d1693074bc6f5497c" target="_top" xlink:title="ONLY matches integers! If you have a decimal point? None shall pass!">
<polygon fill="white" stroke="black" points="315.908,-76 315.908,-96 424.092,-96 424.092,-76 315.908,-76"/>
<text text-anchor="middle" x="370" y="-83" font-family="Ubuntu-R" font-size="10.00">forcebalance.nifty.isint</text>
</a>
</g>
</g>
<!-- Node2&#45;&gt;Node3 -->
<g id="edge2" class="edge"><title>Node2&#45;&gt;Node3</title>
<path fill="none" stroke="midnightblue" d="M279.702,-74.8377C288.283,-75.9104 297.098,-77.0123 305.691,-78.0863"/>
<polygon fill="midnightblue" stroke="midnightblue" points="305.291,-81.5635 315.648,-79.3309 306.159,-74.6175 305.291,-81.5635"/>
</g>
<!-- Node5 -->
<g id="node5" class="node"><title>Node5</title>
<g id="a_node5"><a xlink:href="namespaceforcebalance_1_1nifty.html#a8e3ef0108b9d37b82ba0dced7c6037ae" target="_top" xlink:title="Matches ANY number; it can be a decimal, scientific notation, what have you CAUTION &#45; this will also ...">
<polygon fill="white" stroke="black" points="626.024,-70 626.024,-90 741.976,-90 741.976,-70 626.024,-70"/>
<text text-anchor="middle" x="684" y="-77" font-family="Ubuntu-R" font-size="10.00">forcebalance.nifty.isfloat</text>
</a>
</g>
</g>
<!-- Node2&#45;&gt;Node5 -->
<g id="edge18" class="edge"><title>Node2&#45;&gt;Node5</title>
<path fill="none" stroke="midnightblue" d="M279.581,-66.2722C291.665,-66.1587 304.226,-66.0595 316,-66 363.999,-65.7576 376.017,-64.7041 424,-66 489.201,-67.7609 563.533,-72.0109 615.792,-75.3697"/>
<polygon fill="midnightblue" stroke="midnightblue" points="615.734,-78.8732 625.94,-76.0286 616.188,-71.8879 615.734,-78.8732"/>
</g>
<!-- Node4 -->
<g id="node4" class="node"><title>Node4</title>
<g id="a_node4"><a xlink:href="namespaceforcebalance_1_1nifty.html#a09263927eaec9deff283fbf1a820242f" target="_top" xlink:title="Matches things with a decimal only; see isint and isfloat.">
<polygon fill="white" stroke="black" points="460.36,-114 460.36,-134 589.64,-134 589.64,-114 460.36,-114"/>
<text text-anchor="middle" x="525" y="-121" font-family="Ubuntu-R" font-size="10.00">forcebalance.nifty.isdecimal</text>
</a>
</g>
</g>
<!-- Node3&#45;&gt;Node4 -->
<g id="edge3" class="edge"><title>Node3&#45;&gt;Node4</title>
<path fill="none" stroke="midnightblue" d="M411.6,-96.0835C430.609,-100.805 453.443,-106.476 473.55,-111.47"/>
<polygon fill="midnightblue" stroke="midnightblue" points="472.928,-114.922 483.476,-113.935 474.615,-108.128 472.928,-114.922"/>
</g>
<!-- Node4&#45;&gt;Node5 -->
<g id="edge4" class="edge"><title>Node4&#45;&gt;Node5</title>
<path fill="none" stroke="midnightblue" d="M562.019,-113.906C584.357,-107.645 613.264,-99.5439 637.219,-92.8304"/>
<polygon fill="midnightblue" stroke="midnightblue" points="638.464,-96.1163 647.149,-90.0475 636.575,-89.376 638.464,-96.1163"/>
</g>
<!-- Node9 -->
<g id="node9" class="node"><title>Node9</title>
<g id="a_node9"><a xlink:href="namespaceforcebalance_1_1nifty.html#afb3f205bce4984856e766af7e9fdaca8" target="_top" xlink:title="Given any list, array, or matrix, return a 1&#45;column matrix.">
<polygon fill="white" stroke="black" points="632.412,-114 632.412,-134 735.588,-134 735.588,-114 632.412,-114"/>
<text text-anchor="middle" x="684" y="-121" font-family="Ubuntu-R" font-size="10.00">forcebalance.nifty.col</text>
</a>
</g>
</g>
<!-- Node4&#45;&gt;Node9 -->
<g id="edge9" class="edge"><title>Node4&#45;&gt;Node9</title>
<path fill="none" stroke="midnightblue" d="M589.858,-124C600.427,-124 611.364,-124 621.864,-124"/>
<polygon fill="midnightblue" stroke="midnightblue" points="622.189,-127.5 632.189,-124 622.189,-120.5 622.189,-127.5"/>
</g>
<!-- Node5&#45;&gt;Node3 -->
<g id="edge5" class="edge"><title>Node5&#45;&gt;Node3</title>
<path fill="none" stroke="midnightblue" d="M625.978,-81.0966C571.846,-82.1376 490.625,-83.6995 434.463,-84.7796"/>
<polygon fill="midnightblue" stroke="midnightblue" points="434.211,-81.2837 424.28,-84.9754 434.346,-88.2824 434.211,-81.2837"/>
</g>
<!-- Node6 -->
<g id="node6" class="node"><title>Node6</title>
<g id="a_node6"><a xlink:href="namespaceforcebalance_1_1nifty.html#a8d63c8ae9a67c66673a6cf81357f827d" target="_top" xlink:title="Returns a big number if we encounter NaN.">
<polygon fill="white" stroke="black" points="777.974,-69 777.974,-89 910.026,-89 910.026,-69 777.974,-69"/>
<text text-anchor="middle" x="844" y="-76" font-family="Ubuntu-R" font-size="10.00">forcebalance.nifty.floatornan</text>
</a>
</g>
</g>
<!-- Node5&#45;&gt;Node6 -->
<g id="edge6" class="edge"><title>Node5&#45;&gt;Node6</title>
<path fill="none" stroke="midnightblue" d="M742.042,-79.639C750.364,-79.5863 759.04,-79.5314 767.658,-79.4768"/>
<polygon fill="midnightblue" stroke="midnightblue" points="767.746,-82.9765 777.723,-79.4131 767.701,-75.9766 767.746,-82.9765"/>
</g>
<!-- Node7 -->
<g id="node7" class="node"><title>Node7</title>
<g id="a_node7"><a xlink:href="namespaceforcebalance_1_1nifty.html#a6c9727360cdff8f3011a12cc54d0e86e" target="_top" xlink:title="Given any list, array, or matrix, return a 1&#45;row matrix.">
<polygon fill="white" stroke="black" points="959.747,-68 959.747,-88 1066.25,-88 1066.25,-68 959.747,-68"/>
<text text-anchor="middle" x="1013" y="-75" font-family="Ubuntu-R" font-size="10.00">forcebalance.nifty.row</text>
</a>
</g>
</g>
<!-- Node6&#45;&gt;Node7 -->
<g id="edge7" class="edge"><title>Node6&#45;&gt;Node7</title>
<path fill="none" stroke="midnightblue" d="M910.045,-78.6105C922.98,-78.5331 936.538,-78.4519 949.39,-78.3749"/>
<polygon fill="midnightblue" stroke="midnightblue" points="949.541,-81.8742 959.52,-78.3143 949.499,-74.8743 949.541,-81.8742"/>
</g>
<!-- Node8 -->
<g id="node8" class="node"><title>Node8</title>
<g id="a_node8"><a xlink:href="namespaceforcebalance_1_1nifty.html#a7676236002c6a65ea7d2e69a09923889" target="_top" xlink:title="Given two vectors vec1 and vec2, project out the component of vec1 that is along the vec2&#45;direction...">
<polygon fill="white" stroke="black" points="1116.03,-68 1116.03,-88 1261.97,-88 1261.97,-68 1116.03,-68"/>
<text text-anchor="middle" x="1189" y="-75" font-family="Ubuntu-R" font-size="10.00">forcebalance.nifty.orthogonalize</text>
</a>
</g>
</g>
<!-- Node7&#45;&gt;Node8 -->
<g id="edge8" class="edge"><title>Node7&#45;&gt;Node8</title>
<path fill="none" stroke="midnightblue" d="M1066.68,-78C1079.03,-78 1092.49,-78 1105.79,-78"/>
<polygon fill="midnightblue" stroke="midnightblue" points="1105.92,-81.5001 1115.92,-78 1105.92,-74.5001 1105.92,-81.5001"/>
</g>
<!-- Node10 -->
<g id="node10" class="node"><title>Node10</title>
<g id="a_node10"><a xlink:href="namespaceforcebalance_1_1nifty.html#a52114ceee9d55f94d9aecb3e176de294" target="_top" xlink:title="Given any list, array, or matrix, return a single&#45;index array.">
<polygon fill="white" stroke="black" points="791.858,-153 791.858,-173 896.142,-173 896.142,-153 791.858,-153"/>
<text text-anchor="middle" x="844" y="-160" font-family="Ubuntu-R" font-size="10.00">forcebalance.nifty.flat</text>
</a>
</g>
</g>
<!-- Node9&#45;&gt;Node10 -->
<g id="edge10" class="edge"><title>Node9&#45;&gt;Node10</title>
<path fill="none" stroke="midnightblue" d="M725.689,-134.043C746.054,-139.07 770.9,-145.203 792.475,-150.529"/>
<polygon fill="midnightblue" stroke="midnightblue" points="791.902,-153.992 802.449,-152.991 793.579,-147.196 791.902,-153.992"/>
</g>
<!-- Node11 -->
<g id="node11" class="node"><title>Node11</title>
<g id="a_node11"><a xlink:href="namespaceforcebalance_1_1nifty.html#a4c82187e92dfeb8a159f4aa44b501c40" target="_top" xlink:title="Invert a matrix using singular value decomposition.">
<polygon fill="white" stroke="black" points="946.413,-117 946.413,-137 1079.59,-137 1079.59,-117 946.413,-117"/>
<text text-anchor="middle" x="1013" y="-124" font-family="Ubuntu-R" font-size="10.00">forcebalance.nifty.invert_svd</text>
</a>
</g>
</g>
<!-- Node10&#45;&gt;Node11 -->
<g id="edge11" class="edge"><title>Node10&#45;&gt;Node11</title>
<path fill="none" stroke="midnightblue" d="M891.519,-152.972C911.341,-148.699 934.649,-143.675 955.455,-139.189"/>
<polygon fill="midnightblue" stroke="midnightblue" points="956.403,-142.565 965.441,-137.037 954.928,-135.723 956.403,-142.565"/>
</g>
<!-- Node11&#45;&gt;Node9 -->
<g id="edge15" class="edge"><title>Node11&#45;&gt;Node9</title>
<path fill="none" stroke="midnightblue" d="M946.167,-126.396C887.718,-125.86 802.983,-125.082 746.033,-124.56"/>
<polygon fill="midnightblue" stroke="midnightblue" points="745.767,-121.057 735.735,-124.465 745.702,-128.057 745.767,-121.057"/>
</g>
<!-- Node12 -->
<g id="node12" class="node"><title>Node12</title>
<g id="a_node12"><a xlink:href="namespaceforcebalance_1_1nifty.html#aa9fb9c7c65231eca50a7afc04f489b64" target="_top" xlink:title="forcebalance.nifty.get\l_least_squares">
<polygon fill="white" stroke="black" points="1137.41,-158 1137.41,-190 1240.59,-190 1240.59,-158 1137.41,-158"/>
<text text-anchor="start" x="1145.41" y="-177" font-family="Ubuntu-R" font-size="10.00">forcebalance.nifty.get</text>
<text text-anchor="middle" x="1189" y="-165" font-family="Ubuntu-R" font-size="10.00">_least_squares</text>
</a>
</g>
</g>
<!-- Node11&#45;&gt;Node12 -->
<g id="edge12" class="edge"><title>Node11&#45;&gt;Node12</title>
<path fill="none" stroke="midnightblue" d="M1051.33,-137.083C1073.45,-143.06 1102.03,-150.778 1127.32,-157.61"/>
<polygon fill="midnightblue" stroke="midnightblue" points="1126.63,-161.05 1137.2,-160.279 1128.46,-154.292 1126.63,-161.05"/>
</g>
<!-- Node14 -->
<g id="node14" class="node"><title>Node14</title>
<g id="a_node14"><a xlink:href="namespaceforcebalance_1_1nifty.html#abb8f59044961a12588e0653c2baa8b01" target="_top" xlink:title="forcebalance.nifty.warn\l_press_key">
<polygon fill="white" stroke="black" points="1133.53,-107 1133.53,-139 1244.47,-139 1244.47,-107 1133.53,-107"/>
<text text-anchor="start" x="1141.53" y="-126" font-family="Ubuntu-R" font-size="10.00">forcebalance.nifty.warn</text>
<text text-anchor="middle" x="1189" y="-114" font-family="Ubuntu-R" font-size="10.00">_press_key</text>
</a>
</g>
</g>
<!-- Node11&#45;&gt;Node14 -->
<g id="edge16" class="edge"><title>Node11&#45;&gt;Node14</title>
<path fill="none" stroke="midnightblue" d="M1079.78,-125.488C1094.03,-125.16 1109.09,-124.814 1123.3,-124.487"/>
<polygon fill="midnightblue" stroke="midnightblue" points="1123.55,-127.983 1133.47,-124.254 1123.39,-120.984 1123.55,-127.983"/>
</g>
<!-- Node12&#45;&gt;Node10 -->
<g id="edge13" class="edge"><title>Node12&#45;&gt;Node10</title>
<path fill="none" stroke="midnightblue" d="M1137.14,-172.369C1075.72,-170.399 972.461,-167.088 906.589,-164.975"/>
<polygon fill="midnightblue" stroke="midnightblue" points="906.458,-161.469 896.351,-164.647 906.233,-168.466 906.458,-161.469"/>
</g>
<!-- Node13 -->
<g id="node13" class="node"><title>Node13</title>
<g id="a_node13"><a xlink:href="namespaceforcebalance_1_1nifty.html#ad5ca60565c864b4245a8212fe9d92e10" target="_top" xlink:title="Compute the (cross) statistical inefficiency of (two) timeseries.">
<polygon fill="white" stroke="black" points="1311.64,-158 1311.64,-190 1440.36,-190 1440.36,-158 1311.64,-158"/>
<text text-anchor="start" x="1319.64" y="-177" font-family="Ubuntu-R" font-size="10.00">forcebalance.nifty.statistical</text>
<text text-anchor="middle" x="1376" y="-165" font-family="Ubuntu-R" font-size="10.00">Inefficiency</text>
</a>
</g>
</g>
<!-- Node12&#45;&gt;Node13 -->
<g id="edge14" class="edge"><title>Node12&#45;&gt;Node13</title>
<path fill="none" stroke="midnightblue" d="M1241.04,-174C1259.71,-174 1281.21,-174 1301.45,-174"/>
<polygon fill="midnightblue" stroke="midnightblue" points="1301.58,-177.5 1311.58,-174 1301.58,-170.5 1301.58,-177.5"/>
</g>
<!-- Node15 -->
<g id="node15" class="node"><title>Node15</title>
<g id="a_node15"><a xlink:href="namespaceforcebalance_1_1nifty.html#a2fc81730e7efa7d138dd86f733507bfc" target="_top" xlink:title="Similar to the bultin function map().">
<polygon fill="white" stroke="black" points="1298.04,-113 1298.04,-133 1453.96,-133 1453.96,-113 1298.04,-113"/>
<text text-anchor="middle" x="1376" y="-120" font-family="Ubuntu-R" font-size="10.00">forcebalance.nifty.concurrent_map</text>
</a>
</g>
</g>
<!-- Node14&#45;&gt;Node15 -->
<g id="edge17" class="edge"><title>Node14&#45;&gt;Node15</title>
<path fill="none" stroke="midnightblue" d="M1244.51,-123C1258.1,-123 1273.02,-123 1287.77,-123"/>
<polygon fill="midnightblue" stroke="midnightblue" points="1287.92,-126.5 1297.92,-123 1287.92,-119.5 1287.92,-126.5"/>
</g>
</g>
</svg>
