<?xml version="1.0" encoding="UTF-8" standalone="no"?>
<!DOCTYPE svg PUBLIC "-//W3C//DTD SVG 1.1//EN"
 "http://www.w3.org/Graphics/SVG/1.1/DTD/svg11.dtd">
<!-- Generated by graphviz version 2.28.0 (20111219.2309)
 -->
<!-- Title: G Pages: 1 -->
<svg width="1892pt" height="142pt"
 viewBox="0.00 0.00 1892.00 142.00" xmlns="http://www.w3.org/2000/svg" xmlns:xlink="http://www.w3.org/1999/xlink">
<g id="graph1" class="graph" transform="scale(1 1) rotate(0) translate(4 138)">
<title>G</title>
<polygon fill="white" stroke="white" points="-4,5 -4,-138 1889,-138 1889,5 -4,5"/>
<!-- Node1 -->
<g id="node1" class="node"><title>Node1</title>
<polygon fill="#bfbfbf" stroke="black" points="0,-57.5 0,-76.5 294,-76.5 294,-57.5 0,-57.5"/>
<text text-anchor="middle" x="147" y="-64.5" font-family="Ubuntu-R" font-size="10.00">forcebalance.gmxio.AbInitio_GMX.prepare_temp_directory</text>
</g>
<!-- Node2 -->
<g id="node3" class="node"><title>Node2</title>
<a xlink:href="namespaceforcebalance_1_1nifty.html#abb8f59044961a12588e0653c2baa8b01" target="_top" xlink:title="forcebalance.nifty.warn_press_key">
<polygon fill="white" stroke="black" points="377.5,-114.5 377.5,-133.5 556.5,-133.5 556.5,-114.5 377.5,-114.5"/>
<text text-anchor="middle" x="467" y="-121.5" font-family="Ubuntu-R" font-size="10.00">forcebalance.nifty.warn_press_key</text>
</a>
</g>
<!-- Node1&#45;&gt;Node2 -->
<g id="edge2" class="edge"><title>Node1&#45;&gt;Node2</title>
<path fill="none" stroke="midnightblue" d="M189.774,-76.5535C226.564,-84.7681 281.663,-96.5871 330,-105 346.591,-107.888 364.38,-110.628 381.444,-113.083"/>
<polygon fill="midnightblue" stroke="midnightblue" points="380.999,-116.555 391.392,-114.494 381.983,-109.624 380.999,-116.555"/>
</g>
<!-- Node4 -->
<g id="node7" class="node"><title>Node4</title>
<a xlink:href="namespaceforcebalance_1_1nifty.html#ab182a9da2a2f42cf45942fbee6acf9b1" target="_top" xlink:title="forcebalance.nifty.LinkFile">
<polygon fill="white" stroke="black" points="398.5,-76.5 398.5,-95.5 535.5,-95.5 535.5,-76.5 398.5,-76.5"/>
<text text-anchor="middle" x="467" y="-83.5" font-family="Ubuntu-R" font-size="10.00">forcebalance.nifty.LinkFile</text>
</a>
</g>
<!-- Node1&#45;&gt;Node4 -->
<g id="edge6" class="edge"><title>Node1&#45;&gt;Node4</title>
<path fill="none" stroke="midnightblue" d="M294.435,-75.7492C326.809,-77.6836 359.883,-79.6597 388.242,-81.3541"/>
<polygon fill="midnightblue" stroke="midnightblue" points="388.276,-84.8623 398.467,-81.965 388.694,-77.8747 388.276,-84.8623"/>
</g>
<!-- Node6 -->
<g id="node11" class="node"><title>Node6</title>
<a xlink:href="classforcebalance_1_1gmxio_1_1AbInitio__GMX.html#a4bc31d1c02d47749d26b14779f025ebd" target="_top" xlink:title="Computes the energy and force using GROMACS for a single snapshot.">
<polygon fill="white" stroke="black" points="330.5,-38.5 330.5,-57.5 603.5,-57.5 603.5,-38.5 330.5,-38.5"/>
<text text-anchor="middle" x="467" y="-45.5" font-family="Ubuntu-R" font-size="10.00">forcebalance.gmxio.AbInitio_GMX.energy_force_driver</text>
</a>
</g>
<!-- Node1&#45;&gt;Node6 -->
<g id="edge10" class="edge"><title>Node1&#45;&gt;Node6</title>
<path fill="none" stroke="midnightblue" d="M294.435,-58.2508C302.987,-57.7398 311.589,-57.2258 320.139,-56.7149"/>
<polygon fill="midnightblue" stroke="midnightblue" points="320.374,-60.2073 330.148,-56.117 319.957,-53.2197 320.374,-60.2073"/>
</g>
<!-- Node13 -->
<g id="node25" class="node"><title>Node13</title>
<a xlink:href="namespaceforcebalance_1_1gmxio.html#acac8488f29b62fb0d4cb54bb5a041026" target="_top" xlink:title="forcebalance.gmxio.rm_gmx_baks">
<polygon fill="white" stroke="black" points="1024.5,-0.5 1024.5,-19.5 1205.5,-19.5 1205.5,-0.5 1024.5,-0.5"/>
<text text-anchor="middle" x="1115" y="-7.5" font-family="Ubuntu-R" font-size="10.00">forcebalance.gmxio.rm_gmx_baks</text>
</a>
</g>
<!-- Node1&#45;&gt;Node13 -->
<g id="edge28" class="edge"><title>Node1&#45;&gt;Node13</title>
<path fill="none" stroke="midnightblue" d="M185.715,-57.422C222.328,-48.5294 279.603,-35.6871 330,-29 574.248,3.40858 864.95,-0.507723 1014.38,-5.58755"/>
<polygon fill="midnightblue" stroke="midnightblue" points="1014.33,-9.08812 1024.45,-5.93912 1014.58,-2.09238 1014.33,-9.08812"/>
</g>
<!-- Node3 -->
<g id="node5" class="node"><title>Node3</title>
<a xlink:href="namespaceforcebalance_1_1nifty.html#a2fc81730e7efa7d138dd86f733507bfc" target="_top" xlink:title="Similar to the bultin function map().">
<polygon fill="white" stroke="black" points="694,-114.5 694,-133.5 876,-133.5 876,-114.5 694,-114.5"/>
<text text-anchor="middle" x="785" y="-121.5" font-family="Ubuntu-R" font-size="10.00">forcebalance.nifty.concurrent_map</text>
</a>
</g>
<!-- Node2&#45;&gt;Node3 -->
<g id="edge4" class="edge"><title>Node2&#45;&gt;Node3</title>
<path fill="none" stroke="midnightblue" d="M556.865,-124C596.328,-124 642.959,-124 683.669,-124"/>
<polygon fill="midnightblue" stroke="midnightblue" points="683.884,-127.5 693.884,-124 683.884,-120.5 683.884,-127.5"/>
</g>
<!-- Node5 -->
<g id="node9" class="node"><title>Node5</title>
<a xlink:href="namespaceforcebalance_1_1nifty.html#a25efa4d501ad852a234721af18978f7e" target="_top" xlink:title="Remove the file if it exists (doesn&#39;t return an error).">
<polygon fill="white" stroke="black" points="693.5,-76.5 693.5,-95.5 876.5,-95.5 876.5,-76.5 693.5,-76.5"/>
<text text-anchor="middle" x="785" y="-83.5" font-family="Ubuntu-R" font-size="10.00">forcebalance.nifty.remove_if_exists</text>
</a>
</g>
<!-- Node4&#45;&gt;Node5 -->
<g id="edge8" class="edge"><title>Node4&#45;&gt;Node5</title>
<path fill="none" stroke="midnightblue" d="M535.79,-86C578.709,-86 634.984,-86 683.098,-86"/>
<polygon fill="midnightblue" stroke="midnightblue" points="683.233,-89.5001 693.233,-86 683.233,-82.5001 683.233,-89.5001"/>
</g>
<!-- Node7 -->
<g id="node13" class="node"><title>Node7</title>
<a xlink:href="classforcebalance_1_1gmxio_1_1AbInitio__GMX.html#a6e43c323b2286c546ff8afd3377f8808" target="_top" xlink:title="Computes the energy and force using GROMACS for a trajectory.">
<polygon fill="white" stroke="black" points="640.5,-38.5 640.5,-57.5 929.5,-57.5 929.5,-38.5 640.5,-38.5"/>
<text text-anchor="middle" x="785" y="-45.5" font-family="Ubuntu-R" font-size="10.00">forcebalance.gmxio.AbInitio_GMX.energy_force_driver_all</text>
</a>
</g>
<!-- Node6&#45;&gt;Node7 -->
<g id="edge12" class="edge"><title>Node6&#45;&gt;Node7</title>
<path fill="none" stroke="midnightblue" d="M603.846,-48C612.658,-48 621.563,-48 630.45,-48"/>
<polygon fill="midnightblue" stroke="midnightblue" points="630.469,-51.5001 640.469,-48 630.469,-44.5001 630.469,-51.5001"/>
</g>
<!-- Node6&#45;&gt;Node13 -->
<g id="edge26" class="edge"><title>Node6&#45;&gt;Node13</title>
<path fill="none" stroke="midnightblue" d="M543.672,-38.4847C573.627,-35.0207 608.394,-31.3762 640,-29 768.961,-19.3044 918.057,-14.3545 1014.07,-11.9763"/>
<polygon fill="midnightblue" stroke="midnightblue" points="1014.43,-15.4685 1024.35,-11.7264 1014.26,-8.47052 1014.43,-15.4685"/>
</g>
<!-- Node8 -->
<g id="node15" class="node"><title>Node8</title>
<a xlink:href="classforcebalance_1_1gmxio_1_1AbInitio__GMX.html#ae17e3c379d82935d725dd31f01df23e5" target="_top" xlink:title="Call mdrun in order to update the virtual site positions.">
<polygon fill="white" stroke="black" points="966,-38.5 966,-57.5 1264,-57.5 1264,-38.5 966,-38.5"/>
<text text-anchor="middle" x="1115" y="-45.5" font-family="Ubuntu-R" font-size="10.00">forcebalance.gmxio.AbInitio_GMX.generate_vsite_positions</text>
</a>
</g>
<!-- Node7&#45;&gt;Node8 -->
<g id="edge14" class="edge"><title>Node7&#45;&gt;Node8</title>
<path fill="none" stroke="midnightblue" d="M929.866,-48C938.464,-48 947.137,-48 955.789,-48"/>
<polygon fill="midnightblue" stroke="midnightblue" points="955.93,-51.5001 965.93,-48 955.93,-44.5001 955.93,-51.5001"/>
</g>
<!-- Node7&#45;&gt;Node13 -->
<g id="edge24" class="edge"><title>Node7&#45;&gt;Node13</title>
<path fill="none" stroke="midnightblue" d="M868.345,-38.46C915.028,-33.0517 973.561,-26.2704 1021.78,-20.6839"/>
<polygon fill="midnightblue" stroke="midnightblue" points="1022.38,-24.1386 1031.91,-19.5109 1021.57,-17.1851 1022.38,-24.1386"/>
</g>
<!-- Node9 -->
<g id="node17" class="node"><title>Node9</title>
<a xlink:href="classforcebalance_1_1gmxio_1_1AbInitio__GMX.html#a1d03ae8104bcecacf96884058f2698af" target="_top" xlink:title="Initialization; define a few core concepts.">
<polygon fill="white" stroke="black" points="1343,-76.5 1343,-95.5 1557,-95.5 1557,-76.5 1343,-76.5"/>
<text text-anchor="middle" x="1450" y="-83.5" font-family="Ubuntu-R" font-size="10.00">forcebalance.gmxio.AbInitio_GMX.__init__</text>
</a>
</g>
<!-- Node8&#45;&gt;Node9 -->
<g id="edge16" class="edge"><title>Node8&#45;&gt;Node9</title>
<path fill="none" stroke="midnightblue" d="M1199.6,-57.54C1247.09,-62.9596 1306.67,-69.758 1355.68,-75.3511"/>
<polygon fill="midnightblue" stroke="midnightblue" points="1355.32,-78.8326 1365.65,-76.4891 1356.12,-71.8778 1355.32,-78.8326"/>
</g>
<!-- Node11 -->
<g id="node21" class="node"><title>Node11</title>
<a xlink:href="classforcebalance_1_1BaseClass.html#a73e9a37a7632e79eb99f49bd15aced45" target="_top" xlink:title="forcebalance.BaseClass.set_option">
<polygon fill="white" stroke="black" points="1358,-38.5 1358,-57.5 1542,-57.5 1542,-38.5 1358,-38.5"/>
<text text-anchor="middle" x="1450" y="-45.5" font-family="Ubuntu-R" font-size="10.00">forcebalance.BaseClass.set_option</text>
</a>
</g>
<!-- Node8&#45;&gt;Node11 -->
<g id="edge20" class="edge"><title>Node8&#45;&gt;Node11</title>
<path fill="none" stroke="midnightblue" d="M1264.48,-48C1292.5,-48 1321.21,-48 1347.38,-48"/>
<polygon fill="midnightblue" stroke="midnightblue" points="1347.66,-51.5001 1357.66,-48 1347.66,-44.5001 1347.66,-51.5001"/>
</g>
<!-- Node12 -->
<g id="node23" class="node"><title>Node12</title>
<a xlink:href="classforcebalance_1_1baseclass_1_1ForceBalanceBaseClass.html#abaaf4d99b043d41f02fabc41db59252b" target="_top" xlink:title="forcebalance.baseclass.ForceBalanceBaseClass.set_option">
<polygon fill="white" stroke="black" points="1300.5,-0.5 1300.5,-19.5 1599.5,-19.5 1599.5,-0.5 1300.5,-0.5"/>
<text text-anchor="middle" x="1450" y="-7.5" font-family="Ubuntu-R" font-size="10.00">forcebalance.baseclass.ForceBalanceBaseClass.set_option</text>
</a>
</g>
<!-- Node8&#45;&gt;Node12 -->
<g id="edge22" class="edge"><title>Node8&#45;&gt;Node12</title>
<path fill="none" stroke="midnightblue" d="M1199.6,-38.46C1247.09,-33.0404 1306.67,-26.242 1355.68,-20.6489"/>
<polygon fill="midnightblue" stroke="midnightblue" points="1356.12,-24.1222 1365.65,-19.5109 1355.32,-17.1674 1356.12,-24.1222"/>
</g>
<!-- Node10 -->
<g id="node19" class="node"><title>Node10</title>
<a xlink:href="classforcebalance_1_1gmxio_1_1AbInitio__GMX.html#aba138ca4195a1737f2f00bd8c5f3ca07" target="_top" xlink:title="This function parses the GROMACS topology file (.top) which contains a listing of the molecules in th...">
<polygon fill="white" stroke="black" points="1636.5,-76.5 1636.5,-95.5 1883.5,-95.5 1883.5,-76.5 1636.5,-76.5"/>
<text text-anchor="middle" x="1760" y="-83.5" font-family="Ubuntu-R" font-size="10.00">forcebalance.gmxio.AbInitio_GMX.read_topology</text>
</a>
</g>
<!-- Node9&#45;&gt;Node10 -->
<g id="edge18" class="edge"><title>Node9&#45;&gt;Node10</title>
<path fill="none" stroke="midnightblue" d="M1557.43,-86C1579.62,-86 1603.27,-86 1626.27,-86"/>
<polygon fill="midnightblue" stroke="midnightblue" points="1626.44,-89.5001 1636.44,-86 1626.44,-82.5001 1626.44,-89.5001"/>
</g>
</g>
</svg>
