<?xml version="1.0" encoding="UTF-8" standalone="no"?>
<!DOCTYPE svg PUBLIC "-//W3C//DTD SVG 1.1//EN"
 "http://www.w3.org/Graphics/SVG/1.1/DTD/svg11.dtd">
<!-- Generated by graphviz version 2.26.3 (20100126.1600)
 -->
<!-- Title: forcebalance.nifty.Pickler_LP.__init__ Pages: 1 -->
<svg width="2178pt" height="652pt"
 viewBox="0.00 0.00 2178.00 652.00" xmlns="http://www.w3.org/2000/svg" xmlns:xlink="http://www.w3.org/1999/xlink">
<g id="graph1" class="graph" transform="scale(1 1) rotate(0) translate(4 648)">
<title>forcebalance.nifty.Pickler_LP.__init__</title>
<polygon fill="white" stroke="white" points="-4,5 -4,-648 2175,-648 2175,5 -4,5"/>
<!-- Node1 -->
<g id="node1" class="node"><title>Node1</title>
<polygon fill="#bfbfbf" stroke="black" points="0.5,-168 0.5,-202 133.5,-202 133.5,-168 0.5,-168"/>
<text text-anchor="start" x="8.5" y="-189" font-family="Ubuntu-R" font-size="10.00">forcebalance.nifty.Pickler</text>
<text text-anchor="middle" x="67" y="-176" font-family="Ubuntu-R" font-size="10.00">_LP.__init__</text>
</g>
<!-- Node2 -->
<g id="node3" class="node"><title>Node2</title>
<a xlink:href="namespaceforcebalance_1_1nifty.html#a26e563ec71ed229c30f3d61d3448c8f1" target="_top" xlink:title="Prints a warning but will only do so once in a given run.">
<polygon fill="white" stroke="black" points="197.5,-218.5 197.5,-239.5 350.5,-239.5 350.5,-218.5 197.5,-218.5"/>
<text text-anchor="middle" x="274" y="-226.5" font-family="Ubuntu-R" font-size="10.00">forcebalance.nifty.warn_once</text>
</a>
</g>
<!-- Node1&#45;&gt;Node2 -->
<g id="edge2" class="edge"><title>Node1&#45;&gt;Node2</title>
<path fill="none" stroke="midnightblue" d="M133.636,-199.164C159.72,-204.709 189.398,-211.017 214.725,-216.4"/>
<polygon fill="midnightblue" stroke="midnightblue" points="214.053,-219.836 224.562,-218.491 215.508,-212.989 214.053,-219.836"/>
</g>
<!-- Node4 -->
<g id="node7" class="node"><title>Node4</title>
<a xlink:href="classforcebalance_1_1molecule_1_1Molecule.html#a77417ff99b19f6d0b7c6f527e83fa7f1" target="_top" xlink:title="forcebalance.molecule.Molecule.append">
<polygon fill="white" stroke="black" points="170,-131.5 170,-152.5 378,-152.5 378,-131.5 170,-131.5"/>
<text text-anchor="middle" x="274" y="-139.5" font-family="Ubuntu-R" font-size="10.00">forcebalance.molecule.Molecule.append</text>
</a>
</g>
<!-- Node1&#45;&gt;Node4 -->
<g id="edge6" class="edge"><title>Node1&#45;&gt;Node4</title>
<path fill="none" stroke="midnightblue" d="M133.636,-171.158C159.189,-165.85 188.192,-159.825 213.173,-154.636"/>
<polygon fill="midnightblue" stroke="midnightblue" points="214.171,-158.003 223.25,-152.542 212.747,-151.149 214.171,-158.003"/>
</g>
<!-- Node3 -->
<g id="node5" class="node"><title>Node3</title>
<a xlink:href="namespaceforcebalance_1_1nifty.html#a2fc81730e7efa7d138dd86f733507bfc" target="_top" xlink:title="Similar to the bultin function map().">
<polygon fill="white" stroke="black" points="433.5,-242.5 433.5,-263.5 614.5,-263.5 614.5,-242.5 433.5,-242.5"/>
<text text-anchor="middle" x="524" y="-250.5" font-family="Ubuntu-R" font-size="10.00">forcebalance.nifty.concurrent_map</text>
</a>
</g>
<!-- Node2&#45;&gt;Node3 -->
<g id="edge4" class="edge"><title>Node2&#45;&gt;Node3</title>
<path fill="none" stroke="midnightblue" d="M350.707,-236.364C373.565,-238.558 398.968,-240.997 423.122,-243.316"/>
<polygon fill="midnightblue" stroke="midnightblue" points="423.098,-246.829 433.387,-244.301 423.767,-239.861 423.098,-246.829"/>
</g>
<!-- Node5 -->
<g id="node9" class="node"><title>Node5</title>
<a xlink:href="classforcebalance_1_1molecule_1_1Molecule.html#af46b2ba6ef777cf8301bc16e157c724d" target="_top" xlink:title="forcebalance.molecule.Molecule.write_qcin">
<polygon fill="white" stroke="black" points="414,-202.5 414,-223.5 634,-223.5 634,-202.5 414,-202.5"/>
<text text-anchor="middle" x="524" y="-210.5" font-family="Ubuntu-R" font-size="10.00">forcebalance.molecule.Molecule.write_qcin</text>
</a>
</g>
<!-- Node4&#45;&gt;Node5 -->
<g id="edge8" class="edge"><title>Node4&#45;&gt;Node5</title>
<path fill="none" stroke="midnightblue" d="M311.158,-152.553C355.222,-165.067 428.735,-185.945 476.79,-199.592"/>
<polygon fill="midnightblue" stroke="midnightblue" points="476.063,-203.024 486.638,-202.389 477.975,-196.29 476.063,-203.024"/>
</g>
<!-- Node23 -->
<g id="node48" class="node"><title>Node23</title>
<a xlink:href="classforcebalance_1_1molecule_1_1Molecule.html#a95782abfb36e7080a1b98bfad2ced4f3" target="_top" xlink:title="forcebalance.molecule.Molecule.write_arc">
<polygon fill="white" stroke="black" points="670.5,-54.5 670.5,-75.5 885.5,-75.5 885.5,-54.5 670.5,-54.5"/>
<text text-anchor="middle" x="778" y="-62.5" font-family="Ubuntu-R" font-size="10.00">forcebalance.molecule.Molecule.write_arc</text>
</a>
</g>
<!-- Node4&#45;&gt;Node23 -->
<g id="edge100" class="edge"><title>Node4&#45;&gt;Node23</title>
<path fill="none" stroke="midnightblue" d="M342.759,-131.495C435.638,-117.305 600.808,-92.0709 698.782,-77.1028"/>
<polygon fill="midnightblue" stroke="midnightblue" points="699.568,-80.5234 708.925,-75.5532 698.511,-73.6036 699.568,-80.5234"/>
</g>
<!-- Node25 -->
<g id="node52" class="node"><title>Node25</title>
<a xlink:href="classforcebalance_1_1molecule_1_1Molecule.html#a1ef6aefd3218f8ab3f9dc2b37e602fbf" target="_top" xlink:title="Text quantum data format.">
<polygon fill="white" stroke="black" points="1181.5,-0 1181.5,-34 1376.5,-34 1376.5,-0 1181.5,-0"/>
<text text-anchor="start" x="1189.5" y="-21" font-family="Ubuntu-R" font-size="10.00">forcebalance.molecule.Molecule.write</text>
<text text-anchor="middle" x="1279" y="-8" font-family="Ubuntu-R" font-size="10.00">_qdata</text>
</a>
</g>
<!-- Node4&#45;&gt;Node25 -->
<g id="edge98" class="edge"><title>Node4&#45;&gt;Node25</title>
<path fill="none" stroke="midnightblue" d="M295.249,-131.29C322.197,-118.159 370.412,-96.1558 414,-84 678.505,-10.2345 1004.96,-7.55313 1170.99,-12.1219"/>
<polygon fill="midnightblue" stroke="midnightblue" points="1171.11,-15.6267 1181.2,-12.4178 1171.31,-8.62961 1171.11,-15.6267"/>
</g>
<!-- Node6 -->
<g id="node11" class="node"><title>Node6</title>
<a xlink:href="classforcebalance_1_1molecule_1_1Molecule.html#aba14226f272f91c91ecf7060ff136a2b" target="_top" xlink:title="forcebalance.molecule.Molecule.write\l_molproq">
<polygon fill="white" stroke="black" points="680.5,-300 680.5,-334 875.5,-334 875.5,-300 680.5,-300"/>
<text text-anchor="start" x="688.5" y="-321" font-family="Ubuntu-R" font-size="10.00">forcebalance.molecule.Molecule.write</text>
<text text-anchor="middle" x="778" y="-308" font-family="Ubuntu-R" font-size="10.00">_molproq</text>
</a>
</g>
<!-- Node5&#45;&gt;Node6 -->
<g id="edge10" class="edge"><title>Node5&#45;&gt;Node6</title>
<path fill="none" stroke="midnightblue" d="M615.387,-223.587C621.936,-226.14 628.225,-229.241 634,-233 657.866,-248.534 646.938,-269.297 670,-286 675.08,-289.679 680.588,-292.924 686.336,-295.784"/>
<polygon fill="midnightblue" stroke="midnightblue" points="684.988,-299.016 695.54,-299.97 687.886,-292.644 684.988,-299.016"/>
</g>
<!-- Node16 -->
<g id="node33" class="node"><title>Node16</title>
<a xlink:href="classforcebalance_1_1molecule_1_1Molecule.html#a80851250d8e749bea882d5aa4bcfcdd1" target="_top" xlink:title="forcebalance.molecule.Molecule.require">
<polygon fill="white" stroke="black" points="1176,-329.5 1176,-350.5 1382,-350.5 1382,-329.5 1176,-329.5"/>
<text text-anchor="middle" x="1279" y="-337.5" font-family="Ubuntu-R" font-size="10.00">forcebalance.molecule.Molecule.require</text>
</a>
</g>
<!-- Node5&#45;&gt;Node16 -->
<g id="edge42" class="edge"><title>Node5&#45;&gt;Node16</title>
<path fill="none" stroke="midnightblue" d="M620.078,-223.561C625.065,-226.182 629.758,-229.3 634,-233 672.769,-266.81 628.352,-312.808 670,-343 751.821,-402.314 1051.03,-371.372 1197.34,-351.894"/>
<polygon fill="midnightblue" stroke="midnightblue" points="1198.16,-355.315 1207.6,-350.513 1197.23,-348.378 1198.16,-355.315"/>
</g>
<!-- Node17 -->
<g id="node35" class="node"><title>Node17</title>
<a xlink:href="classforcebalance_1_1molecule_1_1Molecule.html#ad47d05a3ea76e013a628bd7b25ae3050" target="_top" xlink:title="forcebalance.molecule.Molecule.require\l_resname">
<polygon fill="white" stroke="black" points="1176,-180 1176,-214 1382,-214 1382,-180 1176,-180"/>
<text text-anchor="start" x="1184" y="-201" font-family="Ubuntu-R" font-size="10.00">forcebalance.molecule.Molecule.require</text>
<text text-anchor="middle" x="1279" y="-188" font-family="Ubuntu-R" font-size="10.00">_resname</text>
</a>
</g>
<!-- Node5&#45;&gt;Node17 -->
<g id="edge92" class="edge"><title>Node5&#45;&gt;Node17</title>
<path fill="none" stroke="midnightblue" d="M634.187,-210.665C776.278,-207.654 1022.14,-202.443 1165.72,-199.401"/>
<polygon fill="midnightblue" stroke="midnightblue" points="1165.95,-202.897 1175.88,-199.185 1165.8,-195.898 1165.95,-202.897"/>
</g>
<!-- Node19 -->
<g id="node39" class="node"><title>Node19</title>
<a xlink:href="classforcebalance_1_1molecule_1_1Molecule.html#a90fe456919fda305703e36af389e60e1" target="_top" xlink:title="forcebalance.molecule.Molecule.require\l_resid">
<polygon fill="white" stroke="black" points="1176,-255 1176,-289 1382,-289 1382,-255 1176,-255"/>
<text text-anchor="start" x="1184" y="-276" font-family="Ubuntu-R" font-size="10.00">forcebalance.molecule.Molecule.require</text>
<text text-anchor="middle" x="1279" y="-263" font-family="Ubuntu-R" font-size="10.00">_resid</text>
</a>
</g>
<!-- Node5&#45;&gt;Node19 -->
<g id="edge94" class="edge"><title>Node5&#45;&gt;Node19</title>
<path fill="none" stroke="midnightblue" d="M600.302,-223.516C611.759,-226.055 623.308,-229.176 634,-233 651.234,-239.164 652.356,-248.133 670,-253 837.745,-299.27 1041.37,-293.921 1165.5,-284.186"/>
<polygon fill="midnightblue" stroke="midnightblue" points="1166.1,-287.65 1175.78,-283.356 1165.53,-280.673 1166.1,-287.65"/>
</g>
<!-- Node20 -->
<g id="node42" class="node"><title>Node20</title>
<a xlink:href="classforcebalance_1_1molecule_1_1Molecule.html#aab5ea35ab9d68559fd6ea7b747c2bddb" target="_top" xlink:title="forcebalance.molecule.Molecule.write\l_mdcrd">
<polygon fill="white" stroke="black" points="680.5,-132 680.5,-166 875.5,-166 875.5,-132 680.5,-132"/>
<text text-anchor="start" x="688.5" y="-153" font-family="Ubuntu-R" font-size="10.00">forcebalance.molecule.Molecule.write</text>
<text text-anchor="middle" x="778" y="-140" font-family="Ubuntu-R" font-size="10.00">_mdcrd</text>
</a>
</g>
<!-- Node5&#45;&gt;Node20 -->
<g id="edge44" class="edge"><title>Node5&#45;&gt;Node20</title>
<path fill="none" stroke="midnightblue" d="M565.943,-202.432C602.36,-193.256 656.046,-179.728 700.287,-168.581"/>
<polygon fill="midnightblue" stroke="midnightblue" points="701.31,-171.933 710.152,-166.096 699.6,-165.145 701.31,-171.933"/>
</g>
<!-- Node21 -->
<g id="node44" class="node"><title>Node21</title>
<a xlink:href="namespaceforcebalance_1_1molecule.html#a7fe52c2928c7b0329882541bef2e34cd" target="_top" xlink:title="Groups a big long iterable into groups of ten or what have you.">
<polygon fill="white" stroke="black" points="1606.5,-412.5 1606.5,-433.5 1771.5,-433.5 1771.5,-412.5 1606.5,-412.5"/>
<text text-anchor="middle" x="1689" y="-420.5" font-family="Ubuntu-R" font-size="10.00">forcebalance.molecule.grouper</text>
</a>
</g>
<!-- Node5&#45;&gt;Node21 -->
<g id="edge46" class="edge"><title>Node5&#45;&gt;Node21</title>
<path fill="none" stroke="midnightblue" d="M620.88,-223.516C625.603,-226.159 630.025,-229.294 634,-233 681.309,-277.102 620.381,-332.514 670,-374 793.409,-477.18 870.14,-400 1031,-400 1031,-400 1031,-400 1279,-400 1387.99,-400 1513.02,-408.202 1596.06,-414.81"/>
<polygon fill="midnightblue" stroke="midnightblue" points="1595.98,-418.315 1606.23,-415.628 1596.54,-411.337 1595.98,-418.315"/>
</g>
<!-- Node5&#45;&gt;Node23 -->
<g id="edge50" class="edge"><title>Node5&#45;&gt;Node23</title>
<path fill="none" stroke="midnightblue" d="M541.385,-202.267C563.946,-187.925 603.973,-161.046 634,-133 652.215,-115.987 648.759,-103.041 670,-90 677.388,-85.4639 685.52,-81.7501 693.906,-78.7096"/>
<polygon fill="midnightblue" stroke="midnightblue" points="695.058,-82.0153 703.455,-75.555 692.862,-75.3686 695.058,-82.0153"/>
</g>
<!-- Node29 -->
<g id="node63" class="node"><title>Node29</title>
<a xlink:href="classforcebalance_1_1molecule_1_1Molecule.html#a03af3cfb99ea8f1c8c7e93d04bdcf967" target="_top" xlink:title="forcebalance.molecule.Molecule.require\l_boxes">
<polygon fill="white" stroke="black" points="1176,-128 1176,-162 1382,-162 1382,-128 1176,-128"/>
<text text-anchor="start" x="1184" y="-149" font-family="Ubuntu-R" font-size="10.00">forcebalance.molecule.Molecule.require</text>
<text text-anchor="middle" x="1279" y="-136" font-family="Ubuntu-R" font-size="10.00">_boxes</text>
</a>
</g>
<!-- Node5&#45;&gt;Node29 -->
<g id="edge96" class="edge"><title>Node5&#45;&gt;Node29</title>
<path fill="none" stroke="midnightblue" d="M535.763,-202.492C559.235,-182.316 614.424,-138.753 670,-123 851.491,-71.5554 1075.6,-102.445 1194.91,-125.934"/>
<polygon fill="midnightblue" stroke="midnightblue" points="1194.58,-129.437 1205.07,-127.967 1195.96,-122.573 1194.58,-129.437"/>
</g>
<!-- Node30 -->
<g id="node67" class="node"><title>Node30</title>
<a xlink:href="namespaceforcebalance_1_1molecule.html#a2eba3cad44138b3b10ea883240888412" target="_top" xlink:title="Print a line consisting of (element, x, y, z) in accordance with .xyz file format.">
<polygon fill="white" stroke="black" points="698.5,-449 698.5,-483 857.5,-483 857.5,-449 698.5,-449"/>
<text text-anchor="start" x="706.5" y="-470" font-family="Ubuntu-R" font-size="10.00">forcebalance.molecule.format</text>
<text text-anchor="middle" x="778" y="-457" font-family="Ubuntu-R" font-size="10.00">_xyz_coord</text>
</a>
</g>
<!-- Node5&#45;&gt;Node30 -->
<g id="edge74" class="edge"><title>Node5&#45;&gt;Node30</title>
<path fill="none" stroke="midnightblue" d="M621.618,-223.557C626.092,-226.202 630.264,-229.325 634,-233 692.473,-290.517 619.764,-349.165 670,-414 680.133,-427.078 694.388,-437.048 709.227,-444.579"/>
<polygon fill="midnightblue" stroke="midnightblue" points="707.974,-447.858 718.511,-448.959 710.961,-441.527 707.974,-447.858"/>
</g>
<!-- Node34 -->
<g id="node79" class="node"><title>Node34</title>
<a xlink:href="classforcebalance_1_1molecule_1_1Molecule.html#a503eae2cee228e4cc5fc736504714925" target="_top" xlink:title="forcebalance.molecule.Molecule.write_gro">
<polygon fill="white" stroke="black" points="670,-222.5 670,-243.5 886,-243.5 886,-222.5 670,-222.5"/>
<text text-anchor="middle" x="778" y="-230.5" font-family="Ubuntu-R" font-size="10.00">forcebalance.molecule.Molecule.write_gro</text>
</a>
</g>
<!-- Node5&#45;&gt;Node34 -->
<g id="edge90" class="edge"><title>Node5&#45;&gt;Node34</title>
<path fill="none" stroke="midnightblue" d="M634.3,-221.685C642.676,-222.345 651.151,-223.012 659.575,-223.675"/>
<polygon fill="midnightblue" stroke="midnightblue" points="659.571,-227.186 669.815,-224.481 660.121,-220.207 659.571,-227.186"/>
</g>
<!-- Node7 -->
<g id="node13" class="node"><title>Node7</title>
<a xlink:href="namespaceforcebalance_1_1molecule.html#ae25aa5331b3a2dd0e9d1e184380357db" target="_top" xlink:title="Print a line corresponding to the box vector in accordance with .gro file format.">
<polygon fill="white" stroke="black" points="1199.5,-538 1199.5,-572 1358.5,-572 1358.5,-538 1199.5,-538"/>
<text text-anchor="start" x="1207.5" y="-559" font-family="Ubuntu-R" font-size="10.00">forcebalance.molecule.format</text>
<text text-anchor="middle" x="1279" y="-546" font-family="Ubuntu-R" font-size="10.00">_gro_box</text>
</a>
</g>
<!-- Node6&#45;&gt;Node7 -->
<g id="edge12" class="edge"><title>Node6&#45;&gt;Node7</title>
<path fill="none" stroke="midnightblue" d="M857.796,-334.017C936.27,-353.916 1056.16,-393.107 1140,-461 1162.42,-479.153 1153.51,-496.939 1176,-515 1185.35,-522.507 1196.27,-528.733 1207.44,-533.856"/>
<polygon fill="midnightblue" stroke="midnightblue" points="1206.29,-537.168 1216.86,-537.903 1209.05,-530.737 1206.29,-537.168"/>
</g>
<!-- Node15 -->
<g id="node31" class="node"><title>Node15</title>
<a xlink:href="classforcebalance_1_1molecule_1_1Molecule.html#a0dee435704418bf51199d6bab6d92249" target="_top" xlink:title="forcebalance.molecule.Molecule.write_dcd">
<polygon fill="white" stroke="black" points="922.5,-303.5 922.5,-324.5 1139.5,-324.5 1139.5,-303.5 922.5,-303.5"/>
<text text-anchor="middle" x="1031" y="-311.5" font-family="Ubuntu-R" font-size="10.00">forcebalance.molecule.Molecule.write_dcd</text>
</a>
</g>
<!-- Node6&#45;&gt;Node15 -->
<g id="edge32" class="edge"><title>Node6&#45;&gt;Node15</title>
<path fill="none" stroke="midnightblue" d="M875.816,-315.84C887.657,-315.7 899.852,-315.555 911.956,-315.412"/>
<polygon fill="midnightblue" stroke="midnightblue" points="912.134,-318.91 922.092,-315.291 912.051,-311.91 912.134,-318.91"/>
</g>
<!-- Node8 -->
<g id="node15" class="node"><title>Node8</title>
<a xlink:href="namespaceforcebalance_1_1molecule.html#a0dd31eff88d2bed0884ab21a13261d42" target="_top" xlink:title="ONLY matches integers! If you have a decimal point? None shall pass!">
<polygon fill="white" stroke="black" points="1420.5,-518.5 1420.5,-539.5 1567.5,-539.5 1567.5,-518.5 1420.5,-518.5"/>
<text text-anchor="middle" x="1494" y="-526.5" font-family="Ubuntu-R" font-size="10.00">forcebalance.molecule.isint</text>
</a>
</g>
<!-- Node7&#45;&gt;Node8 -->
<g id="edge14" class="edge"><title>Node7&#45;&gt;Node8</title>
<path fill="none" stroke="midnightblue" d="M1358.75,-545.356C1375.48,-543.333 1393.16,-541.194 1410.04,-539.154"/>
<polygon fill="midnightblue" stroke="midnightblue" points="1410.92,-542.573 1420.42,-537.898 1410.08,-535.624 1410.92,-542.573"/>
</g>
<!-- Node9 -->
<g id="node17" class="node"><title>Node9</title>
<a xlink:href="namespaceforcebalance_1_1molecule.html#afe989ffd119568047fc8265b1d329a70" target="_top" xlink:title="Matches ANY number; it can be a decimal, scientific notation, integer, or what have you...">
<polygon fill="white" stroke="black" points="1611,-537.5 1611,-558.5 1767,-558.5 1767,-537.5 1611,-537.5"/>
<text text-anchor="middle" x="1689" y="-545.5" font-family="Ubuntu-R" font-size="10.00">forcebalance.molecule.isfloat</text>
</a>
</g>
<!-- Node7&#45;&gt;Node9 -->
<g id="edge18" class="edge"><title>Node7&#45;&gt;Node9</title>
<path fill="none" stroke="midnightblue" d="M1358.54,-553.642C1427.9,-552.458 1528.4,-550.742 1600.33,-549.514"/>
<polygon fill="midnightblue" stroke="midnightblue" points="1600.79,-553.007 1610.73,-549.336 1600.67,-546.008 1600.79,-553.007"/>
</g>
<!-- Node10 -->
<g id="node20" class="node"><title>Node10</title>
<a xlink:href="namespaceforcebalance_1_1molecule.html#a838d85848bd817e801d0f5f6502217ef" target="_top" xlink:title="Determines whether a line contains CHARMM data or not.">
<polygon fill="white" stroke="black" points="1426.5,-596 1426.5,-630 1561.5,-630 1561.5,-596 1426.5,-596"/>
<text text-anchor="start" x="1434.5" y="-617" font-family="Ubuntu-R" font-size="10.00">forcebalance.molecule.is</text>
<text text-anchor="middle" x="1494" y="-604" font-family="Ubuntu-R" font-size="10.00">_charmm_coord</text>
</a>
</g>
<!-- Node7&#45;&gt;Node10 -->
<g id="edge20" class="edge"><title>Node7&#45;&gt;Node10</title>
<path fill="none" stroke="midnightblue" d="M1342.05,-572.01C1366.89,-578.709 1395.56,-586.443 1421.26,-593.376"/>
<polygon fill="midnightblue" stroke="midnightblue" points="1420.38,-596.765 1430.95,-595.99 1422.2,-590.006 1420.38,-596.765"/>
</g>
<!-- Node8&#45;&gt;Node9 -->
<g id="edge16" class="edge"><title>Node8&#45;&gt;Node9</title>
<path fill="none" stroke="midnightblue" d="M1567.72,-536.183C1578.54,-537.237 1589.77,-538.332 1600.84,-539.41"/>
<polygon fill="midnightblue" stroke="midnightblue" points="1600.66,-542.909 1610.95,-540.395 1601.33,-535.942 1600.66,-542.909"/>
</g>
<!-- Node10&#45;&gt;Node9 -->
<g id="edge22" class="edge"><title>Node10&#45;&gt;Node9</title>
<path fill="none" stroke="midnightblue" d="M1545.23,-595.922C1577.17,-585.277 1617.73,-571.758 1647.61,-561.795"/>
<polygon fill="midnightblue" stroke="midnightblue" points="1648.93,-565.045 1657.31,-558.562 1646.72,-558.404 1648.93,-565.045"/>
</g>
<!-- Node11 -->
<g id="node23" class="node"><title>Node11</title>
<a xlink:href="namespaceforcebalance_1_1molecule.html#a4cdb2086978b281ed84cd66179c3f5b2" target="_top" xlink:title="forcebalance.molecule.add\l_strip_to_mat">
<polygon fill="white" stroke="black" points="1616.5,-596 1616.5,-630 1761.5,-630 1761.5,-596 1616.5,-596"/>
<text text-anchor="start" x="1624.5" y="-617" font-family="Ubuntu-R" font-size="10.00">forcebalance.molecule.add</text>
<text text-anchor="middle" x="1689" y="-604" font-family="Ubuntu-R" font-size="10.00">_strip_to_mat</text>
</a>
</g>
<!-- Node10&#45;&gt;Node11 -->
<g id="edge24" class="edge"><title>Node10&#45;&gt;Node11</title>
<path fill="none" stroke="midnightblue" d="M1561.65,-613C1576.04,-613 1591.39,-613 1606.27,-613"/>
<polygon fill="midnightblue" stroke="midnightblue" points="1606.48,-616.5 1616.48,-613 1606.48,-609.5 1606.48,-616.5"/>
</g>
<!-- Node12 -->
<g id="node25" class="node"><title>Node12</title>
<a xlink:href="namespaceforcebalance_1_1molecule.html#a5f529179461765fadbd0a742cdc2c677" target="_top" xlink:title="Creates a list of number sequences divided as evenly as possible.">
<polygon fill="white" stroke="black" points="1808.5,-602.5 1808.5,-623.5 1977.5,-623.5 1977.5,-602.5 1808.5,-602.5"/>
<text text-anchor="middle" x="1893" y="-610.5" font-family="Ubuntu-R" font-size="10.00">forcebalance.molecule.even_list</text>
</a>
</g>
<!-- Node11&#45;&gt;Node12 -->
<g id="edge26" class="edge"><title>Node11&#45;&gt;Node12</title>
<path fill="none" stroke="midnightblue" d="M1761.78,-613C1773.58,-613 1785.95,-613 1798.19,-613"/>
<polygon fill="midnightblue" stroke="midnightblue" points="1798.41,-616.5 1808.41,-613 1798.41,-609.5 1798.41,-616.5"/>
</g>
<!-- Node13 -->
<g id="node27" class="node"><title>Node13</title>
<a xlink:href="namespaceforcebalance_1_1molecule.html#a6f7c6217b1c64da309a8abd21dfdcf08" target="_top" xlink:title="forcebalance.molecule.diff">
<polygon fill="white" stroke="black" points="2021,-622.5 2021,-643.5 2163,-643.5 2163,-622.5 2021,-622.5"/>
<text text-anchor="middle" x="2092" y="-630.5" font-family="Ubuntu-R" font-size="10.00">forcebalance.molecule.diff</text>
</a>
</g>
<!-- Node12&#45;&gt;Node13 -->
<g id="edge28" class="edge"><title>Node12&#45;&gt;Node13</title>
<path fill="none" stroke="midnightblue" d="M1977.68,-621.511C1988.7,-622.618 1999.96,-623.75 2010.91,-624.851"/>
<polygon fill="midnightblue" stroke="midnightblue" points="2010.57,-628.334 2020.87,-625.851 2011.27,-621.369 2010.57,-628.334"/>
</g>
<!-- Node14 -->
<g id="node29" class="node"><title>Node14</title>
<a xlink:href="namespaceforcebalance_1_1molecule.html#a75775be6563ad7f10695a9a45ff49ba9" target="_top" xlink:title="forcebalance.molecule.either">
<polygon fill="white" stroke="black" points="2014.5,-582.5 2014.5,-603.5 2169.5,-603.5 2169.5,-582.5 2014.5,-582.5"/>
<text text-anchor="middle" x="2092" y="-590.5" font-family="Ubuntu-R" font-size="10.00">forcebalance.molecule.either</text>
</a>
</g>
<!-- Node12&#45;&gt;Node14 -->
<g id="edge30" class="edge"><title>Node12&#45;&gt;Node14</title>
<path fill="none" stroke="midnightblue" d="M1977.68,-604.489C1986.43,-603.61 1995.33,-602.716 2004.1,-601.834"/>
<polygon fill="midnightblue" stroke="midnightblue" points="2004.74,-605.288 2014.34,-600.805 2004.04,-598.323 2004.74,-605.288"/>
</g>
<!-- Node15&#45;&gt;Node16 -->
<g id="edge34" class="edge"><title>Node15&#45;&gt;Node16</title>
<path fill="none" stroke="midnightblue" d="M1131.16,-324.5C1143.34,-325.777 1155.84,-327.088 1168.17,-328.38"/>
<polygon fill="midnightblue" stroke="midnightblue" points="1168.16,-331.899 1178.47,-329.461 1168.89,-324.937 1168.16,-331.899"/>
</g>
<!-- Node15&#45;&gt;Node17 -->
<g id="edge36" class="edge"><title>Node15&#45;&gt;Node17</title>
<path fill="none" stroke="midnightblue" d="M1053.45,-303.411C1094.05,-284.254 1180.43,-243.504 1233.72,-218.36"/>
<polygon fill="midnightblue" stroke="midnightblue" points="1235.4,-221.441 1242.95,-214.008 1232.41,-215.11 1235.4,-221.441"/>
</g>
<!-- Node15&#45;&gt;Node19 -->
<g id="edge40" class="edge"><title>Node15&#45;&gt;Node19</title>
<path fill="none" stroke="midnightblue" d="M1093.26,-303.456C1116.16,-299.577 1142.83,-295.06 1168.7,-290.679"/>
<polygon fill="midnightblue" stroke="midnightblue" points="1169.29,-294.129 1178.57,-289.009 1168.12,-287.228 1169.29,-294.129"/>
</g>
<!-- Node18 -->
<g id="node37" class="node"><title>Node18</title>
<a xlink:href="namespaceforcebalance_1_1molecule.html#ab9cb167fbbd809aedcf8c7434d405547" target="_top" xlink:title="forcebalance.molecule.main">
<polygon fill="white" stroke="black" points="1418.5,-160.5 1418.5,-181.5 1569.5,-181.5 1569.5,-160.5 1418.5,-160.5"/>
<text text-anchor="middle" x="1494" y="-168.5" font-family="Ubuntu-R" font-size="10.00">forcebalance.molecule.main</text>
</a>
</g>
<!-- Node17&#45;&gt;Node18 -->
<g id="edge38" class="edge"><title>Node17&#45;&gt;Node18</title>
<path fill="none" stroke="midnightblue" d="M1382.09,-184.533C1390.84,-183.475 1399.64,-182.411 1408.24,-181.372"/>
<polygon fill="midnightblue" stroke="midnightblue" points="1408.72,-184.839 1418.23,-180.163 1407.88,-177.889 1408.72,-184.839"/>
</g>
<!-- Node22 -->
<g id="node46" class="node"><title>Node22</title>
<a xlink:href="namespaceforcebalance_1_1molecule.html#a5b50df23cc4d0e617fdc56538f0bea63" target="_top" xlink:title="forcebalance.molecule.both">
<polygon fill="white" stroke="black" points="1818.5,-412.5 1818.5,-433.5 1967.5,-433.5 1967.5,-412.5 1818.5,-412.5"/>
<text text-anchor="middle" x="1893" y="-420.5" font-family="Ubuntu-R" font-size="10.00">forcebalance.molecule.both</text>
</a>
</g>
<!-- Node21&#45;&gt;Node22 -->
<g id="edge48" class="edge"><title>Node21&#45;&gt;Node22</title>
<path fill="none" stroke="midnightblue" d="M1771.68,-423C1783.76,-423 1796.22,-423 1808.33,-423"/>
<polygon fill="midnightblue" stroke="midnightblue" points="1808.42,-426.5 1818.42,-423 1808.42,-419.5 1808.42,-426.5"/>
</g>
<!-- Node24 -->
<g id="node50" class="node"><title>Node24</title>
<a xlink:href="classforcebalance_1_1molecule_1_1Molecule.html#a47082443566cd50add3f2ec20af9cc10" target="_top" xlink:title="Save to a PDB.">
<polygon fill="white" stroke="black" points="922,-54.5 922,-75.5 1140,-75.5 1140,-54.5 922,-54.5"/>
<text text-anchor="middle" x="1031" y="-62.5" font-family="Ubuntu-R" font-size="10.00">forcebalance.molecule.Molecule.write_pdb</text>
</a>
</g>
<!-- Node23&#45;&gt;Node24 -->
<g id="edge52" class="edge"><title>Node23&#45;&gt;Node24</title>
<path fill="none" stroke="midnightblue" d="M885.662,-65C894.265,-65 902.987,-65 911.664,-65"/>
<polygon fill="midnightblue" stroke="midnightblue" points="911.82,-68.5001 921.82,-65 911.82,-61.5001 911.82,-68.5001"/>
</g>
<!-- Node24&#45;&gt;Node17 -->
<g id="edge66" class="edge"><title>Node24&#45;&gt;Node17</title>
<path fill="none" stroke="midnightblue" d="M1042.4,-75.7825C1065.64,-97.1737 1120.97,-145.141 1176,-171 1180.26,-173.002 1184.7,-174.864 1189.23,-176.593"/>
<polygon fill="midnightblue" stroke="midnightblue" points="1188.05,-179.889 1198.65,-179.958 1190.41,-173.297 1188.05,-179.889"/>
</g>
<!-- Node24&#45;&gt;Node19 -->
<g id="edge64" class="edge"><title>Node24&#45;&gt;Node19</title>
<path fill="none" stroke="midnightblue" d="M1038.37,-75.5127C1058.01,-102.892 1114.31,-177.434 1176,-223 1190.65,-233.818 1208.06,-243.187 1224.36,-250.751"/>
<polygon fill="midnightblue" stroke="midnightblue" points="1223.25,-254.087 1233.81,-254.994 1226.12,-247.702 1223.25,-254.087"/>
</g>
<!-- Node24&#45;&gt;Node25 -->
<g id="edge54" class="edge"><title>Node24&#45;&gt;Node25</title>
<path fill="none" stroke="midnightblue" d="M1085.42,-54.4662C1113.46,-49.0391 1148.52,-42.2537 1181.07,-35.9541"/>
<polygon fill="midnightblue" stroke="midnightblue" points="1181.93,-39.3532 1191.08,-34.0167 1180.6,-32.4808 1181.93,-39.3532"/>
</g>
<!-- Node26 -->
<g id="node54" class="node"><title>Node26</title>
<a xlink:href="namespaceforcebalance_1_1molecule.html#a0a6e3e79b04534bf2e83d09def189444" target="_top" xlink:title="This function takes in three lattice lengths and three lattice angles, and tries to return a complete...">
<polygon fill="white" stroke="black" points="1418.5,-38 1418.5,-72 1569.5,-72 1569.5,-38 1418.5,-38"/>
<text text-anchor="start" x="1426.5" y="-59" font-family="Ubuntu-R" font-size="10.00">forcebalance.molecule.Build</text>
<text text-anchor="middle" x="1494" y="-46" font-family="Ubuntu-R" font-size="10.00">LatticeFromLengthsAngles</text>
</a>
</g>
<!-- Node24&#45;&gt;Node26 -->
<g id="edge72" class="edge"><title>Node24&#45;&gt;Node26</title>
<path fill="none" stroke="midnightblue" d="M1140.14,-62.6428C1221.97,-60.8753 1332.44,-58.4894 1408.05,-56.8563"/>
<polygon fill="midnightblue" stroke="midnightblue" points="1408.56,-60.3463 1418.48,-56.6311 1408.41,-53.3479 1408.56,-60.3463"/>
</g>
<!-- Node28 -->
<g id="node59" class="node"><title>Node28</title>
<a xlink:href="namespaceforcebalance_1_1molecule.html#a58c3f09152db4d1c6e1db9df29c60c43" target="_top" xlink:title="forcebalance.molecule.pvec">
<polygon fill="white" stroke="black" points="1614,-100.5 1614,-121.5 1764,-121.5 1764,-100.5 1614,-100.5"/>
<text text-anchor="middle" x="1689" y="-108.5" font-family="Ubuntu-R" font-size="10.00">forcebalance.molecule.pvec</text>
</a>
</g>
<!-- Node24&#45;&gt;Node28 -->
<g id="edge62" class="edge"><title>Node24&#45;&gt;Node28</title>
<path fill="none" stroke="midnightblue" d="M1140.02,-72.6218C1270.09,-81.7145 1484.81,-96.7253 1603.5,-105.023"/>
<polygon fill="midnightblue" stroke="midnightblue" points="1603.41,-108.525 1613.63,-105.731 1603.89,-101.542 1603.41,-108.525"/>
</g>
<!-- Node24&#45;&gt;Node29 -->
<g id="edge68" class="edge"><title>Node24&#45;&gt;Node29</title>
<path fill="none" stroke="midnightblue" d="M1094.78,-75.5569C1109.94,-79.1692 1125.82,-83.8938 1140,-90 1157.66,-97.6074 1158.6,-105.806 1176,-114 1184.4,-117.957 1193.42,-121.546 1202.51,-124.761"/>
<polygon fill="midnightblue" stroke="midnightblue" points="1201.39,-128.076 1211.98,-127.976 1203.64,-121.447 1201.39,-128.076"/>
</g>
<!-- Node25&#45;&gt;Node26 -->
<g id="edge56" class="edge"><title>Node25&#45;&gt;Node26</title>
<path fill="none" stroke="midnightblue" d="M1375.49,-34.0548C1386.52,-36.0035 1397.7,-37.9798 1408.57,-39.9005"/>
<polygon fill="midnightblue" stroke="midnightblue" points="1407.99,-43.3524 1418.45,-41.6464 1409.21,-36.4592 1407.99,-43.3524"/>
</g>
<!-- Node27 -->
<g id="node56" class="node"><title>Node27</title>
<a xlink:href="namespaceforcebalance_1_1molecule.html#a29fb1ac9324f4280f07c65baea339989" target="_top" xlink:title="This function takes in three lattice vectors and tries to return a complete box specification.">
<polygon fill="white" stroke="black" points="1613.5,-26 1613.5,-60 1764.5,-60 1764.5,-26 1613.5,-26"/>
<text text-anchor="start" x="1621.5" y="-47" font-family="Ubuntu-R" font-size="10.00">forcebalance.molecule.Build</text>
<text text-anchor="middle" x="1689" y="-34" font-family="Ubuntu-R" font-size="10.00">LatticeFromVectors</text>
</a>
</g>
<!-- Node25&#45;&gt;Node27 -->
<g id="edge60" class="edge"><title>Node25&#45;&gt;Node27</title>
<path fill="none" stroke="midnightblue" d="M1376.78,-19.1816C1433.3,-20.9054 1505.73,-23.9019 1570,-29 1580.72,-29.8501 1591.96,-30.9276 1603.07,-32.1059"/>
<polygon fill="midnightblue" stroke="midnightblue" points="1602.9,-35.6083 1613.22,-33.2128 1603.66,-28.6496 1602.9,-35.6083"/>
</g>
<!-- Node26&#45;&gt;Node27 -->
<g id="edge58" class="edge"><title>Node26&#45;&gt;Node27</title>
<path fill="none" stroke="midnightblue" d="M1569.67,-50.3433C1580.65,-49.6674 1592.03,-48.9675 1603.19,-48.2804"/>
<polygon fill="midnightblue" stroke="midnightblue" points="1603.61,-51.7618 1613.37,-47.6541 1603.18,-44.775 1603.61,-51.7618"/>
</g>
<!-- Node29&#45;&gt;Node18 -->
<g id="edge70" class="edge"><title>Node29&#45;&gt;Node18</title>
<path fill="none" stroke="midnightblue" d="M1382.09,-157.467C1390.84,-158.525 1399.64,-159.589 1408.24,-160.628"/>
<polygon fill="midnightblue" stroke="midnightblue" points="1407.88,-164.111 1418.23,-161.837 1408.72,-157.161 1407.88,-164.111"/>
</g>
<!-- Node31 -->
<g id="node69" class="node"><title>Node31</title>
<a xlink:href="namespaceforcebalance_1_1molecule.html#a4948e4662b8d2c8d515427d1bbb3d01e" target="_top" xlink:title="Print a line consisting of (element, p, q, r, s, t, ...) where (p, q, r) are arbitrary atom&#45;wise data...">
<polygon fill="white" stroke="black" points="951.5,-470 951.5,-504 1110.5,-504 1110.5,-470 951.5,-470"/>
<text text-anchor="start" x="959.5" y="-491" font-family="Ubuntu-R" font-size="10.00">forcebalance.molecule.format</text>
<text text-anchor="middle" x="1031" y="-478" font-family="Ubuntu-R" font-size="10.00">_xyzgen_coord</text>
</a>
</g>
<!-- Node30&#45;&gt;Node31 -->
<g id="edge76" class="edge"><title>Node30&#45;&gt;Node31</title>
<path fill="none" stroke="midnightblue" d="M857.704,-472.616C884.161,-474.812 913.798,-477.272 940.978,-479.528"/>
<polygon fill="midnightblue" stroke="midnightblue" points="941.007,-483.042 951.263,-480.381 941.586,-476.066 941.007,-483.042"/>
</g>
<!-- Node32 -->
<g id="node71" class="node"><title>Node32</title>
<a xlink:href="namespaceforcebalance_1_1molecule.html#a12b7bb398c2fa49a223f258ec7737483" target="_top" xlink:title="Determines whether a line contains GROMACS data or not.">
<polygon fill="white" stroke="black" points="1211.5,-472 1211.5,-506 1346.5,-506 1346.5,-472 1211.5,-472"/>
<text text-anchor="start" x="1219.5" y="-493" font-family="Ubuntu-R" font-size="10.00">forcebalance.molecule.is</text>
<text text-anchor="middle" x="1279" y="-480" font-family="Ubuntu-R" font-size="10.00">_gro_coord</text>
</a>
</g>
<!-- Node31&#45;&gt;Node32 -->
<g id="edge78" class="edge"><title>Node31&#45;&gt;Node32</title>
<path fill="none" stroke="midnightblue" d="M1110.83,-487.644C1139.84,-487.878 1172.55,-488.142 1201.37,-488.374"/>
<polygon fill="midnightblue" stroke="midnightblue" points="1201.36,-491.874 1211.38,-488.455 1201.41,-484.874 1201.36,-491.874"/>
</g>
<!-- Node32&#45;&gt;Node8 -->
<g id="edge80" class="edge"><title>Node32&#45;&gt;Node8</title>
<path fill="none" stroke="midnightblue" d="M1346.73,-501.601C1372.49,-506.393 1401.78,-511.843 1427.43,-516.615"/>
<polygon fill="midnightblue" stroke="midnightblue" points="1426.96,-520.087 1437.43,-518.475 1428.24,-513.205 1426.96,-520.087"/>
</g>
<!-- Node32&#45;&gt;Node9 -->
<g id="edge82" class="edge"><title>Node32&#45;&gt;Node9</title>
<path fill="none" stroke="midnightblue" d="M1346.65,-488.923C1406.03,-489.975 1494.45,-494.262 1570,-509 1598.75,-514.609 1630.21,-525.119 1653.55,-533.816"/>
<polygon fill="midnightblue" stroke="midnightblue" points="1652.44,-537.137 1663.03,-537.413 1654.92,-530.592 1652.44,-537.137"/>
</g>
<!-- Node33 -->
<g id="node75" class="node"><title>Node33</title>
<a xlink:href="namespaceforcebalance_1_1molecule.html#aafc8c924eed4480fed8ddc9c474d3bc1" target="_top" xlink:title="Determines whether a line contains a GROMACS box vector or not.">
<polygon fill="white" stroke="black" points="1426.5,-428 1426.5,-462 1561.5,-462 1561.5,-428 1426.5,-428"/>
<text text-anchor="start" x="1434.5" y="-449" font-family="Ubuntu-R" font-size="10.00">forcebalance.molecule.is</text>
<text text-anchor="middle" x="1494" y="-436" font-family="Ubuntu-R" font-size="10.00">_gro_box</text>
</a>
</g>
<!-- Node32&#45;&gt;Node33 -->
<g id="edge84" class="edge"><title>Node32&#45;&gt;Node33</title>
<path fill="none" stroke="midnightblue" d="M1346.73,-475.139C1368.82,-470.618 1393.51,-465.564 1416.28,-460.906"/>
<polygon fill="midnightblue" stroke="midnightblue" points="1417.14,-464.301 1426.24,-458.867 1415.74,-457.443 1417.14,-464.301"/>
</g>
<!-- Node33&#45;&gt;Node21 -->
<g id="edge88" class="edge"><title>Node33&#45;&gt;Node21</title>
<path fill="none" stroke="midnightblue" d="M1561.65,-437.367C1572.8,-436.11 1584.52,-434.787 1596.15,-433.475"/>
<polygon fill="midnightblue" stroke="midnightblue" points="1596.79,-436.925 1606.34,-432.326 1596.01,-429.969 1596.79,-436.925"/>
</g>
<!-- Node33&#45;&gt;Node28 -->
<g id="edge86" class="edge"><title>Node33&#45;&gt;Node28</title>
<path fill="none" stroke="midnightblue" d="M1503.94,-427.978C1536.95,-371.438 1642.82,-190.096 1677.72,-130.316"/>
<polygon fill="midnightblue" stroke="midnightblue" points="1680.85,-131.906 1682.87,-121.505 1674.8,-128.377 1680.85,-131.906"/>
</g>
</g>
</svg>
