<?xml version="1.0" encoding="UTF-8" standalone="no"?>
<!DOCTYPE svg PUBLIC "-//W3C//DTD SVG 1.1//EN"
 "http://www.w3.org/Graphics/SVG/1.1/DTD/svg11.dtd">
<!-- Generated by graphviz version 2.28.0 (20111219.2309)
 -->
<!-- Title: forcebalance.optimizer.Optimizer.__init__ Pages: 1 -->
<svg width="3514pt" height="358pt"
 viewBox="0.00 0.00 3514.00 358.00" xmlns="http://www.w3.org/2000/svg" xmlns:xlink="http://www.w3.org/1999/xlink">
<g id="graph1" class="graph" transform="scale(1 1) rotate(0) translate(4 354)">
<title>forcebalance.optimizer.Optimizer.__init__</title>
<polygon fill="white" stroke="white" points="-4,5 -4,-354 3511,-354 3511,5 -4,5"/>
<!-- Node1 -->
<g id="node1" class="node"><title>Node1</title>
<polygon fill="#bfbfbf" stroke="black" points="0.5,-183 0.5,-213 177.5,-213 177.5,-183 0.5,-183"/>
<text text-anchor="start" x="8.5" y="-201" font-family="Ubuntu-R" font-size="10.00">forcebalance.optimizer.Optimizer.</text>
<text text-anchor="middle" x="89" y="-190" font-family="Ubuntu-R" font-size="10.00">__init__</text>
</g>
<!-- Node2 -->
<g id="node3" class="node"><title>Node2</title>
<a xlink:href="classforcebalance_1_1optimizer_1_1Optimizer.html#a5b6e95f9f49b7d970ac8441d68a0023f" target="_top" xlink:title="Optimize the force field parameters using the Newton&#45;Raphson method (. ">
<polygon fill="white" stroke="black" points="214.5,-183 214.5,-213 391.5,-213 391.5,-183 214.5,-183"/>
<text text-anchor="start" x="222.5" y="-201" font-family="Ubuntu-R" font-size="10.00">forcebalance.optimizer.Optimizer.</text>
<text text-anchor="middle" x="303" y="-190" font-family="Ubuntu-R" font-size="10.00">NewtonRaphson</text>
</a>
</g>
<!-- Node1&#45;&gt;Node2 -->
<g id="edge2" class="edge"><title>Node1&#45;&gt;Node2</title>
<path fill="none" stroke="midnightblue" d="M177.759,-198C186.437,-198 195.284,-198 204.057,-198"/>
<polygon fill="midnightblue" stroke="midnightblue" points="204.307,-201.5 214.307,-198 204.307,-194.5 204.307,-201.5"/>
</g>
<!-- Node3 -->
<g id="node5" class="node"><title>Node3</title>
<a xlink:href="classforcebalance_1_1optimizer_1_1Optimizer.html#a503e87533bd9c257cb9c4b505af9c1de" target="_top" xlink:title="Driver for SciPy optimizations. ">
<polygon fill="white" stroke="black" points="428.5,-183 428.5,-213 605.5,-213 605.5,-183 428.5,-183"/>
<text text-anchor="start" x="436.5" y="-201" font-family="Ubuntu-R" font-size="10.00">forcebalance.optimizer.Optimizer.</text>
<text text-anchor="middle" x="517" y="-190" font-family="Ubuntu-R" font-size="10.00">ScipyOptimizer</text>
</a>
</g>
<!-- Node2&#45;&gt;Node3 -->
<g id="edge4" class="edge"><title>Node2&#45;&gt;Node3</title>
<path fill="none" stroke="midnightblue" d="M391.759,-198C400.437,-198 409.284,-198 418.057,-198"/>
<polygon fill="midnightblue" stroke="midnightblue" points="418.307,-201.5 428.307,-198 418.307,-194.5 418.307,-201.5"/>
</g>
<!-- Node4 -->
<g id="node7" class="node"><title>Node4</title>
<a xlink:href="namespaceforcebalance_1_1nifty.html#a11babd62dc7bca389162c6318f9672ca" target="_top" xlink:title="Cool&#45;looking printout for slick formatting of output. ">
<polygon fill="white" stroke="black" points="1729,-226.5 1729,-245.5 1873,-245.5 1873,-226.5 1729,-226.5"/>
<text text-anchor="middle" x="1801" y="-233.5" font-family="Ubuntu-R" font-size="10.00">forcebalance.nifty.printcool</text>
</a>
</g>
<!-- Node3&#45;&gt;Node4 -->
<g id="edge6" class="edge"><title>Node3&#45;&gt;Node4</title>
<path fill="none" stroke="midnightblue" d="M577.168,-213.059C659.028,-232.538 811.719,-264 944,-264 944,-264 944,-264 1374,-264 1494.19,-264 1633.04,-252.765 1718.69,-244.529"/>
<polygon fill="midnightblue" stroke="midnightblue" points="1719.25,-247.991 1728.86,-243.54 1718.57,-241.024 1719.25,-247.991"/>
</g>
<!-- Node19 -->
<g id="node42" class="node"><title>Node19</title>
<a xlink:href="classforcebalance_1_1optimizer_1_1Optimizer.html#a50ffc779fbba5a99085cba45d868fc29" target="_top" xlink:title="Genetic algorithm, under development. ">
<polygon fill="white" stroke="black" points="642.5,-161 642.5,-191 819.5,-191 819.5,-161 642.5,-161"/>
<text text-anchor="start" x="650.5" y="-179" font-family="Ubuntu-R" font-size="10.00">forcebalance.optimizer.Optimizer.</text>
<text text-anchor="middle" x="731" y="-168" font-family="Ubuntu-R" font-size="10.00">GeneticAlgorithm</text>
</a>
</g>
<!-- Node3&#45;&gt;Node19 -->
<g id="edge46" class="edge"><title>Node3&#45;&gt;Node19</title>
<path fill="none" stroke="midnightblue" d="M599.358,-182.972C610.086,-181.713 621.171,-180.513 632.139,-179.423"/>
<polygon fill="midnightblue" stroke="midnightblue" points="632.548,-182.9 642.165,-178.454 631.874,-175.932 632.548,-182.9"/>
</g>
<!-- Node5 -->
<g id="node9" class="node"><title>Node5</title>
<a xlink:href="namespaceforcebalance_1_1nifty.html#abb8f59044961a12588e0653c2baa8b01" target="_top" xlink:title="forcebalance.nifty.warn\l_press_key">
<polygon fill="white" stroke="black" points="3141.5,-319 3141.5,-349 3266.5,-349 3266.5,-319 3141.5,-319"/>
<text text-anchor="start" x="3149.5" y="-337" font-family="Ubuntu-R" font-size="10.00">forcebalance.nifty.warn</text>
<text text-anchor="middle" x="3204" y="-326" font-family="Ubuntu-R" font-size="10.00">_press_key</text>
</a>
</g>
<!-- Node4&#45;&gt;Node5 -->
<g id="edge8" class="edge"><title>Node4&#45;&gt;Node5</title>
<path fill="none" stroke="midnightblue" d="M1825.66,-245.598C1891.35,-271.344 2081.98,-340 2247,-340 2247,-340 2247,-340 2821,-340 2929.23,-340 3054.69,-337.562 3131.44,-335.795"/>
<polygon fill="midnightblue" stroke="midnightblue" points="3131.56,-339.293 3141.47,-335.561 3131.4,-332.295 3131.56,-339.293"/>
</g>
<!-- Node7 -->
<g id="node13" class="node"><title>Node7</title>
<a xlink:href="namespaceforcebalance_1_1nifty.html#a51180e960742cc7547749fdfb3513ec4" target="_top" xlink:title="See documentation for printcool; this is a nice way to print out keys/values in a dictionary...">
<polygon fill="white" stroke="black" points="1943,-221 1943,-251 2087,-251 2087,-221 1943,-221"/>
<text text-anchor="start" x="1951" y="-239" font-family="Ubuntu-R" font-size="10.00">forcebalance.nifty.printcool</text>
<text text-anchor="middle" x="2015" y="-228" font-family="Ubuntu-R" font-size="10.00">_dictionary</text>
</a>
</g>
<!-- Node4&#45;&gt;Node7 -->
<g id="edge12" class="edge"><title>Node4&#45;&gt;Node7</title>
<path fill="none" stroke="midnightblue" d="M1873.18,-236C1892.24,-236 1912.98,-236 1932.54,-236"/>
<polygon fill="midnightblue" stroke="midnightblue" points="1932.64,-239.5 1942.64,-236 1932.64,-232.5 1932.64,-239.5"/>
</g>
<!-- Node6 -->
<g id="node11" class="node"><title>Node6</title>
<a xlink:href="namespaceforcebalance_1_1nifty.html#a2fc81730e7efa7d138dd86f733507bfc" target="_top" xlink:title="Similar to the bultin function map(). ">
<polygon fill="white" stroke="black" points="3324,-324.5 3324,-343.5 3506,-343.5 3506,-324.5 3324,-324.5"/>
<text text-anchor="middle" x="3415" y="-331.5" font-family="Ubuntu-R" font-size="10.00">forcebalance.nifty.concurrent_map</text>
</a>
</g>
<!-- Node5&#45;&gt;Node6 -->
<g id="edge10" class="edge"><title>Node5&#45;&gt;Node6</title>
<path fill="none" stroke="midnightblue" d="M3266.58,-334C3281.43,-334 3297.69,-334 3313.81,-334"/>
<polygon fill="midnightblue" stroke="midnightblue" points="3313.82,-337.5 3323.82,-334 3313.82,-330.5 3313.82,-337.5"/>
</g>
<!-- Node8 -->
<g id="node15" class="node"><title>Node8</title>
<a xlink:href="namespaceforcebalance_1_1nifty.html#a3f1c7a1af9d35d5d1693074bc6f5497c" target="_top" xlink:title="ONLY matches integers! If you have a decimal point? None shall pass! ">
<polygon fill="white" stroke="black" points="2187,-243.5 2187,-262.5 2309,-262.5 2309,-243.5 2187,-243.5"/>
<text text-anchor="middle" x="2248" y="-250.5" font-family="Ubuntu-R" font-size="10.00">forcebalance.nifty.isint</text>
</a>
</g>
<!-- Node7&#45;&gt;Node8 -->
<g id="edge14" class="edge"><title>Node7&#45;&gt;Node8</title>
<path fill="none" stroke="midnightblue" d="M2087.19,-241.239C2115.65,-243.333 2148.33,-245.738 2176.69,-247.826"/>
<polygon fill="midnightblue" stroke="midnightblue" points="2176.7,-251.336 2186.93,-248.579 2177.22,-244.355 2176.7,-251.336"/>
</g>
<!-- Node10 -->
<g id="node19" class="node"><title>Node10</title>
<a xlink:href="namespaceforcebalance_1_1nifty.html#a8e3ef0108b9d37b82ba0dced7c6037ae" target="_top" xlink:title="Matches ANY number; it can be a decimal, scientific notation, what have you CAUTION &#45; this will also ...">
<polygon fill="white" stroke="black" points="2576.5,-227.5 2576.5,-246.5 2707.5,-246.5 2707.5,-227.5 2576.5,-227.5"/>
<text text-anchor="middle" x="2642" y="-234.5" font-family="Ubuntu-R" font-size="10.00">forcebalance.nifty.isfloat</text>
</a>
</g>
<!-- Node7&#45;&gt;Node10 -->
<g id="edge44" class="edge"><title>Node7&#45;&gt;Node10</title>
<path fill="none" stroke="midnightblue" d="M2087.14,-234.656C2104.44,-234.383 2122.88,-234.138 2140,-234 2291.21,-232.781 2468.09,-234.601 2566.05,-235.895"/>
<polygon fill="midnightblue" stroke="midnightblue" points="2566.1,-239.396 2576.15,-236.03 2566.19,-232.396 2566.1,-239.396"/>
</g>
<!-- Node9 -->
<g id="node17" class="node"><title>Node9</title>
<a xlink:href="namespaceforcebalance_1_1nifty.html#a09263927eaec9deff283fbf1a820242f" target="_top" xlink:title="Matches things with a decimal only; see isint and isfloat. ">
<polygon fill="white" stroke="black" points="2392,-281.5 2392,-300.5 2540,-300.5 2540,-281.5 2392,-281.5"/>
<text text-anchor="middle" x="2466" y="-288.5" font-family="Ubuntu-R" font-size="10.00">forcebalance.nifty.isdecimal</text>
</a>
</g>
<!-- Node8&#45;&gt;Node9 -->
<g id="edge16" class="edge"><title>Node8&#45;&gt;Node9</title>
<path fill="none" stroke="midnightblue" d="M2303.23,-262.54C2332.88,-267.757 2369.8,-274.253 2400.88,-279.72"/>
<polygon fill="midnightblue" stroke="midnightblue" points="2400.3,-283.17 2410.75,-281.456 2401.51,-276.276 2400.3,-283.17"/>
</g>
<!-- Node9&#45;&gt;Node10 -->
<g id="edge18" class="edge"><title>Node9&#45;&gt;Node10</title>
<path fill="none" stroke="midnightblue" d="M2497.71,-281.47C2526.32,-272.591 2569.16,-259.294 2600.55,-249.553"/>
<polygon fill="midnightblue" stroke="midnightblue" points="2601.79,-252.832 2610.31,-246.525 2599.72,-246.147 2601.79,-252.832"/>
</g>
<!-- Node14 -->
<g id="node28" class="node"><title>Node14</title>
<a xlink:href="namespaceforcebalance_1_1nifty.html#afb3f205bce4984856e766af7e9fdaca8" target="_top" xlink:title="Given any list, array, or matrix, return a 1&#45;column matrix. ">
<polygon fill="white" stroke="black" points="2584,-281.5 2584,-300.5 2700,-300.5 2700,-281.5 2584,-281.5"/>
<text text-anchor="middle" x="2642" y="-288.5" font-family="Ubuntu-R" font-size="10.00">forcebalance.nifty.col</text>
</a>
</g>
<!-- Node9&#45;&gt;Node14 -->
<g id="edge28" class="edge"><title>Node9&#45;&gt;Node14</title>
<path fill="none" stroke="midnightblue" d="M2540.04,-291C2551.1,-291 2562.47,-291 2573.42,-291"/>
<polygon fill="midnightblue" stroke="midnightblue" points="2573.75,-294.5 2583.75,-291 2573.75,-287.5 2573.75,-294.5"/>
</g>
<!-- Node10&#45;&gt;Node8 -->
<g id="edge20" class="edge"><title>Node10&#45;&gt;Node8</title>
<path fill="none" stroke="midnightblue" d="M2576.3,-239.641C2505.5,-242.531 2392.39,-247.147 2319.41,-250.126"/>
<polygon fill="midnightblue" stroke="midnightblue" points="2319.24,-246.63 2309.39,-250.535 2319.53,-253.624 2319.24,-246.63"/>
</g>
<!-- Node11 -->
<g id="node22" class="node"><title>Node11</title>
<a xlink:href="namespaceforcebalance_1_1nifty.html#a8d63c8ae9a67c66673a6cf81357f827d" target="_top" xlink:title="Returns a big number if we encounter NaN. ">
<polygon fill="white" stroke="black" points="2744,-216.5 2744,-235.5 2896,-235.5 2896,-216.5 2744,-216.5"/>
<text text-anchor="middle" x="2820" y="-223.5" font-family="Ubuntu-R" font-size="10.00">forcebalance.nifty.floatornan</text>
</a>
</g>
<!-- Node10&#45;&gt;Node11 -->
<g id="edge22" class="edge"><title>Node10&#45;&gt;Node11</title>
<path fill="none" stroke="midnightblue" d="M2707.54,-232.966C2716,-232.438 2724.77,-231.889 2733.51,-231.343"/>
<polygon fill="midnightblue" stroke="midnightblue" points="2733.98,-234.821 2743.74,-230.704 2733.54,-227.835 2733.98,-234.821"/>
</g>
<!-- Node12 -->
<g id="node24" class="node"><title>Node12</title>
<a xlink:href="namespaceforcebalance_1_1nifty.html#a6c9727360cdff8f3011a12cc54d0e86e" target="_top" xlink:title="Given any list, array, or matrix, return a 1&#45;row matrix. ">
<polygon fill="white" stroke="black" points="2948.5,-216.5 2948.5,-235.5 3067.5,-235.5 3067.5,-216.5 2948.5,-216.5"/>
<text text-anchor="middle" x="3008" y="-223.5" font-family="Ubuntu-R" font-size="10.00">forcebalance.nifty.row</text>
</a>
</g>
<!-- Node11&#45;&gt;Node12 -->
<g id="edge24" class="edge"><title>Node11&#45;&gt;Node12</title>
<path fill="none" stroke="midnightblue" d="M2896.12,-226C2910.02,-226 2924.47,-226 2938.17,-226"/>
<polygon fill="midnightblue" stroke="midnightblue" points="2938.48,-229.5 2948.48,-226 2938.48,-222.5 2938.48,-229.5"/>
</g>
<!-- Node13 -->
<g id="node26" class="node"><title>Node13</title>
<a xlink:href="namespaceforcebalance_1_1nifty.html#a7676236002c6a65ea7d2e69a09923889" target="_top" xlink:title="Given two vectors vec1 and vec2, project out the component of vec1 that is along the vec2&#45;direction...">
<polygon fill="white" stroke="black" points="3120,-216.5 3120,-235.5 3288,-235.5 3288,-216.5 3120,-216.5"/>
<text text-anchor="middle" x="3204" y="-223.5" font-family="Ubuntu-R" font-size="10.00">forcebalance.nifty.orthogonalize</text>
</a>
</g>
<!-- Node12&#45;&gt;Node13 -->
<g id="edge26" class="edge"><title>Node12&#45;&gt;Node13</title>
<path fill="none" stroke="midnightblue" d="M3067.73,-226C3080.92,-226 3095.24,-226 3109.46,-226"/>
<polygon fill="midnightblue" stroke="midnightblue" points="3109.78,-229.5 3119.78,-226 3109.78,-222.5 3109.78,-229.5"/>
</g>
<!-- Node15 -->
<g id="node30" class="node"><title>Node15</title>
<a xlink:href="namespaceforcebalance_1_1nifty.html#a52114ceee9d55f94d9aecb3e176de294" target="_top" xlink:title="Given any list, array, or matrix, return a single&#45;index array. ">
<polygon fill="white" stroke="black" points="2761,-254.5 2761,-273.5 2879,-273.5 2879,-254.5 2761,-254.5"/>
<text text-anchor="middle" x="2820" y="-261.5" font-family="Ubuntu-R" font-size="10.00">forcebalance.nifty.flat</text>
</a>
</g>
<!-- Node14&#45;&gt;Node15 -->
<g id="edge30" class="edge"><title>Node14&#45;&gt;Node15</title>
<path fill="none" stroke="midnightblue" d="M2700.14,-282.234C2716.27,-279.76 2733.98,-277.043 2750.69,-274.48"/>
<polygon fill="midnightblue" stroke="midnightblue" points="2751.58,-277.883 2760.94,-272.907 2750.52,-270.964 2751.58,-277.883"/>
</g>
<!-- Node16 -->
<g id="node32" class="node"><title>Node16</title>
<a xlink:href="namespaceforcebalance_1_1nifty.html#a4c82187e92dfeb8a159f4aa44b501c40" target="_top" xlink:title="Invert a matrix using singular value decomposition. ">
<polygon fill="white" stroke="black" points="2932,-292.5 2932,-311.5 3084,-311.5 3084,-292.5 2932,-292.5"/>
<text text-anchor="middle" x="3008" y="-299.5" font-family="Ubuntu-R" font-size="10.00">forcebalance.nifty.invert_svd</text>
</a>
</g>
<!-- Node15&#45;&gt;Node16 -->
<g id="edge32" class="edge"><title>Node15&#45;&gt;Node16</title>
<path fill="none" stroke="midnightblue" d="M2867.94,-273.589C2893.03,-278.716 2924.12,-285.067 2950.53,-290.463"/>
<polygon fill="midnightblue" stroke="midnightblue" points="2949.9,-293.907 2960.4,-292.48 2951.3,-287.049 2949.9,-293.907"/>
</g>
<!-- Node16&#45;&gt;Node5 -->
<g id="edge42" class="edge"><title>Node16&#45;&gt;Node5</title>
<path fill="none" stroke="midnightblue" d="M3066.68,-311.514C3087.03,-314.87 3110.15,-318.684 3131.5,-322.206"/>
<polygon fill="midnightblue" stroke="midnightblue" points="3131.05,-325.68 3141.49,-323.854 3132.19,-318.773 3131.05,-325.68"/>
</g>
<!-- Node16&#45;&gt;Node14 -->
<g id="edge40" class="edge"><title>Node16&#45;&gt;Node14</title>
<path fill="none" stroke="midnightblue" d="M2931.75,-299.726C2866.6,-297.757 2773.22,-294.935 2710.46,-293.039"/>
<polygon fill="midnightblue" stroke="midnightblue" points="2710.38,-289.535 2700.28,-292.731 2710.17,-296.531 2710.38,-289.535"/>
</g>
<!-- Node17 -->
<g id="node34" class="node"><title>Node17</title>
<a xlink:href="namespaceforcebalance_1_1nifty.html#aa9fb9c7c65231eca50a7afc04f489b64" target="_top" xlink:title="forcebalance.nifty.get\l_least_squares">
<polygon fill="white" stroke="black" points="3144.5,-265 3144.5,-295 3263.5,-295 3263.5,-265 3144.5,-265"/>
<text text-anchor="start" x="3152.5" y="-283" font-family="Ubuntu-R" font-size="10.00">forcebalance.nifty.get</text>
<text text-anchor="middle" x="3204" y="-272" font-family="Ubuntu-R" font-size="10.00">_least_squares</text>
</a>
</g>
<!-- Node16&#45;&gt;Node17 -->
<g id="edge34" class="edge"><title>Node16&#45;&gt;Node17</title>
<path fill="none" stroke="midnightblue" d="M3084.01,-293.494C3100.61,-291.612 3118.11,-289.626 3134.44,-287.775"/>
<polygon fill="midnightblue" stroke="midnightblue" points="3134.89,-291.246 3144.44,-286.641 3134.11,-284.29 3134.89,-291.246"/>
</g>
<!-- Node17&#45;&gt;Node15 -->
<g id="edge36" class="edge"><title>Node17&#45;&gt;Node15</title>
<path fill="none" stroke="midnightblue" d="M3144.44,-277.547C3075.76,-274.671 2962.1,-269.91 2889.43,-266.866"/>
<polygon fill="midnightblue" stroke="midnightblue" points="2889.16,-263.352 2879.02,-266.43 2888.86,-270.346 2889.16,-263.352"/>
</g>
<!-- Node18 -->
<g id="node37" class="node"><title>Node18</title>
<a xlink:href="namespaceforcebalance_1_1nifty.html#ad5ca60565c864b4245a8212fe9d92e10" target="_top" xlink:title="Compute the (cross) statistical inefficiency of (two) timeseries. ">
<polygon fill="white" stroke="black" points="3340.5,-265 3340.5,-295 3489.5,-295 3489.5,-265 3340.5,-265"/>
<text text-anchor="start" x="3348.5" y="-283" font-family="Ubuntu-R" font-size="10.00">forcebalance.nifty.statistical</text>
<text text-anchor="middle" x="3415" y="-272" font-family="Ubuntu-R" font-size="10.00">Inefficiency</text>
</a>
</g>
<!-- Node17&#45;&gt;Node18 -->
<g id="edge38" class="edge"><title>Node17&#45;&gt;Node18</title>
<path fill="none" stroke="midnightblue" d="M3263.77,-280C3284.4,-280 3307.99,-280 3330.26,-280"/>
<polygon fill="midnightblue" stroke="midnightblue" points="3330.39,-283.5 3340.39,-280 3330.39,-276.5 3330.39,-283.5"/>
</g>
<!-- Node19&#45;&gt;Node3 -->
<g id="edge104" class="edge"><title>Node19&#45;&gt;Node3</title>
<path fill="none" stroke="midnightblue" d="M648.764,-191.014C637.988,-192.279 626.851,-193.485 615.831,-194.58"/>
<polygon fill="midnightblue" stroke="midnightblue" points="615.376,-191.107 605.759,-195.553 616.049,-198.075 615.376,-191.107"/>
</g>
<!-- Node20 -->
<g id="node44" class="node"><title>Node20</title>
<a xlink:href="classforcebalance_1_1optimizer_1_1Optimizer.html#a6b3af8115718f61a6a21c3297d717ead" target="_top" xlink:title="Use SciPy&#39;s built&#45;in simplex algorithm to optimize the parameters. ">
<polygon fill="white" stroke="black" points="856.5,-205 856.5,-235 1033.5,-235 1033.5,-205 856.5,-205"/>
<text text-anchor="start" x="864.5" y="-223" font-family="Ubuntu-R" font-size="10.00">forcebalance.optimizer.Optimizer.</text>
<text text-anchor="middle" x="945" y="-212" font-family="Ubuntu-R" font-size="10.00">Simplex</text>
</a>
</g>
<!-- Node19&#45;&gt;Node20 -->
<g id="edge48" class="edge"><title>Node19&#45;&gt;Node20</title>
<path fill="none" stroke="midnightblue" d="M804.365,-191.019C822.854,-194.856 842.865,-199.01 861.807,-202.941"/>
<polygon fill="midnightblue" stroke="midnightblue" points="861.098,-206.369 871.601,-204.974 862.521,-199.515 861.098,-206.369"/>
</g>
<!-- Node40 -->
<g id="node93" class="node"><title>Node40</title>
<a xlink:href="classforcebalance_1_1optimizer_1_1Optimizer.html#a0745b2e3607ef308ba48bb1d34e5be79" target="_top" xlink:title="Use SciPy&#39;s built&#45;in Powell direction&#45;set algorithm to optimize the parameters. ">
<polygon fill="white" stroke="black" points="856.5,-156 856.5,-186 1033.5,-186 1033.5,-156 856.5,-156"/>
<text text-anchor="start" x="864.5" y="-174" font-family="Ubuntu-R" font-size="10.00">forcebalance.optimizer.Optimizer.</text>
<text text-anchor="middle" x="945" y="-163" font-family="Ubuntu-R" font-size="10.00">Powell</text>
</a>
</g>
<!-- Node19&#45;&gt;Node40 -->
<g id="edge106" class="edge"><title>Node19&#45;&gt;Node40</title>
<path fill="none" stroke="midnightblue" d="M819.759,-173.93C828.437,-173.726 837.284,-173.517 846.057,-173.31"/>
<polygon fill="midnightblue" stroke="midnightblue" points="846.392,-176.803 856.307,-173.068 846.227,-169.805 846.392,-176.803"/>
</g>
<!-- Node41 -->
<g id="node95" class="node"><title>Node41</title>
<a xlink:href="classforcebalance_1_1optimizer_1_1Optimizer.html#a183911848e43ca0be1893b87290dc31e" target="_top" xlink:title="Use SciPy&#39;s built&#45;in simulated annealing algorithm to optimize the parameters. ">
<polygon fill="white" stroke="black" points="856.5,-107 856.5,-137 1033.5,-137 1033.5,-107 856.5,-107"/>
<text text-anchor="start" x="864.5" y="-125" font-family="Ubuntu-R" font-size="10.00">forcebalance.optimizer.Optimizer.</text>
<text text-anchor="middle" x="945" y="-114" font-family="Ubuntu-R" font-size="10.00">Anneal</text>
</a>
</g>
<!-- Node19&#45;&gt;Node41 -->
<g id="edge108" class="edge"><title>Node19&#45;&gt;Node41</title>
<path fill="none" stroke="midnightblue" d="M791.054,-160.958C817.133,-154.315 847.963,-146.462 875.086,-139.554"/>
<polygon fill="midnightblue" stroke="midnightblue" points="876.069,-142.915 884.896,-137.055 874.341,-136.132 876.069,-142.915"/>
</g>
<!-- Node20&#45;&gt;Node3 -->
<g id="edge52" class="edge"><title>Node20&#45;&gt;Node3</title>
<path fill="none" stroke="midnightblue" d="M856.363,-215.474C786.373,-211.86 688.348,-206.797 615.811,-203.051"/>
<polygon fill="midnightblue" stroke="midnightblue" points="615.918,-199.552 605.751,-202.532 615.557,-206.543 615.918,-199.552"/>
</g>
<!-- Node21 -->
<g id="node46" class="node"><title>Node21</title>
<a xlink:href="classforcebalance_1_1optimizer_1_1Optimizer.html#ad1e151204a172a4e75737b2b699d1623" target="_top" xlink:title="Use SciPy&#39;s built&#45;in simulated annealing algorithm to optimize the parameters. ">
<polygon fill="white" stroke="black" points="1070.5,-205 1070.5,-235 1247.5,-235 1247.5,-205 1070.5,-205"/>
<text text-anchor="start" x="1078.5" y="-223" font-family="Ubuntu-R" font-size="10.00">forcebalance.optimizer.Optimizer.</text>
<text text-anchor="middle" x="1159" y="-212" font-family="Ubuntu-R" font-size="10.00">ConjugateGradient</text>
</a>
</g>
<!-- Node20&#45;&gt;Node21 -->
<g id="edge50" class="edge"><title>Node20&#45;&gt;Node21</title>
<path fill="none" stroke="midnightblue" d="M1033.76,-220C1042.44,-220 1051.28,-220 1060.06,-220"/>
<polygon fill="midnightblue" stroke="midnightblue" points="1060.31,-223.5 1070.31,-220 1060.31,-216.5 1060.31,-223.5"/>
</g>
<!-- Node22 -->
<g id="node49" class="node"><title>Node22</title>
<a xlink:href="classforcebalance_1_1optimizer_1_1Optimizer.html#a6c7508252398ff7e00469c4c8acb0a48" target="_top" xlink:title="Scan through parameter values. ">
<polygon fill="white" stroke="black" points="1070.5,-138 1070.5,-168 1247.5,-168 1247.5,-138 1070.5,-138"/>
<text text-anchor="start" x="1078.5" y="-156" font-family="Ubuntu-R" font-size="10.00">forcebalance.optimizer.Optimizer.</text>
<text text-anchor="middle" x="1159" y="-145" font-family="Ubuntu-R" font-size="10.00">Scan_Values</text>
</a>
</g>
<!-- Node20&#45;&gt;Node22 -->
<g id="edge54" class="edge"><title>Node20&#45;&gt;Node22</title>
<path fill="none" stroke="midnightblue" d="M1000.58,-204.952C1011.67,-201.766 1023.23,-198.351 1034,-195 1057.73,-187.617 1083.8,-178.88 1105.89,-171.293"/>
<polygon fill="midnightblue" stroke="midnightblue" points="1107.1,-174.577 1115.42,-168.008 1104.82,-167.959 1107.1,-174.577"/>
</g>
<!-- Node22&#45;&gt;Node22 -->
<g id="edge84" class="edge"><title>Node22&#45;&gt;Node22</title>
<path fill="none" stroke="midnightblue" d="M1121.38,-168.275C1113.02,-177.406 1125.56,-186 1159,-186 1178.85,-186 1191.34,-182.97 1196.46,-178.598"/>
<polygon fill="midnightblue" stroke="midnightblue" points="1199.96,-178.328 1196.62,-168.275 1192.96,-178.22 1199.96,-178.328"/>
</g>
<!-- Node23 -->
<g id="node51" class="node"><title>Node23</title>
<a xlink:href="classforcebalance_1_1optimizer_1_1Optimizer.html#a43ab8c6bea2b3112468922ab61163f67" target="_top" xlink:title="Scan through the mathematical parameter space. ">
<polygon fill="white" stroke="black" points="1498.5,-68 1498.5,-98 1675.5,-98 1675.5,-68 1498.5,-68"/>
<text text-anchor="start" x="1506.5" y="-86" font-family="Ubuntu-R" font-size="10.00">forcebalance.optimizer.Optimizer.</text>
<text text-anchor="middle" x="1587" y="-75" font-family="Ubuntu-R" font-size="10.00">ScanMVals</text>
</a>
</g>
<!-- Node22&#45;&gt;Node23 -->
<g id="edge56" class="edge"><title>Node22&#45;&gt;Node23</title>
<path fill="none" stroke="midnightblue" d="M1189.17,-137.801C1213.74,-125.788 1250.2,-109.789 1284,-102 1351.02,-86.5529 1428.48,-81.9364 1488.17,-81.1126"/>
<polygon fill="midnightblue" stroke="midnightblue" points="1488.39,-84.6107 1498.35,-81.0063 1488.31,-77.611 1488.39,-84.6107"/>
</g>
<!-- Node35 -->
<g id="node78" class="node"><title>Node35</title>
<a xlink:href="classforcebalance_1_1optimizer_1_1Optimizer.html#a70bff76f2e56d87c8dee8aa92fe56d29" target="_top" xlink:title="Scan through the physical parameter space. ">
<polygon fill="white" stroke="black" points="1284.5,-112 1284.5,-142 1461.5,-142 1461.5,-112 1284.5,-112"/>
<text text-anchor="start" x="1292.5" y="-130" font-family="Ubuntu-R" font-size="10.00">forcebalance.optimizer.Optimizer.</text>
<text text-anchor="middle" x="1373" y="-119" font-family="Ubuntu-R" font-size="10.00">ScanPVals</text>
</a>
</g>
<!-- Node22&#45;&gt;Node35 -->
<g id="edge86" class="edge"><title>Node22&#45;&gt;Node35</title>
<path fill="none" stroke="midnightblue" d="M1247.76,-142.237C1256.53,-141.161 1265.48,-140.064 1274.34,-138.977"/>
<polygon fill="midnightblue" stroke="midnightblue" points="1274.81,-142.446 1284.31,-137.755 1273.96,-135.498 1274.81,-142.446"/>
</g>
<!-- Node36 -->
<g id="node80" class="node"><title>Node36</title>
<a xlink:href="classforcebalance_1_1optimizer_1_1Optimizer.html#a1477d2b88faa1d4991418538133abcff" target="_top" xlink:title="A single&#45;point objective function computation. ">
<polygon fill="white" stroke="black" points="1284.5,-161 1284.5,-191 1461.5,-191 1461.5,-161 1284.5,-161"/>
<text text-anchor="start" x="1292.5" y="-179" font-family="Ubuntu-R" font-size="10.00">forcebalance.optimizer.Optimizer.</text>
<text text-anchor="middle" x="1373" y="-168" font-family="Ubuntu-R" font-size="10.00">SinglePoint</text>
</a>
</g>
<!-- Node22&#45;&gt;Node36 -->
<g id="edge88" class="edge"><title>Node22&#45;&gt;Node36</title>
<path fill="none" stroke="midnightblue" d="M1247.76,-162.521C1256.53,-163.473 1265.48,-164.443 1274.34,-165.405"/>
<polygon fill="midnightblue" stroke="midnightblue" points="1273.99,-168.887 1284.31,-166.486 1274.74,-161.928 1273.99,-168.887"/>
</g>
<!-- Node39 -->
<g id="node89" class="node"><title>Node39</title>
<a xlink:href="classforcebalance_1_1optimizer_1_1Optimizer.html#ac5adf24cf3ea3976eb67f75b6b89d101" target="_top" xlink:title="A single&#45;point gradient computation. ">
<polygon fill="white" stroke="black" points="1498.5,-205 1498.5,-235 1675.5,-235 1675.5,-205 1498.5,-205"/>
<text text-anchor="start" x="1506.5" y="-223" font-family="Ubuntu-R" font-size="10.00">forcebalance.optimizer.Optimizer.</text>
<text text-anchor="middle" x="1587" y="-212" font-family="Ubuntu-R" font-size="10.00">Gradient</text>
</a>
</g>
<!-- Node22&#45;&gt;Node39 -->
<g id="edge100" class="edge"><title>Node22&#45;&gt;Node39</title>
<path fill="none" stroke="midnightblue" d="M1191.83,-168.07C1216.42,-178.962 1251.61,-192.953 1284,-200 1351.22,-214.625 1428.68,-219.521 1488.32,-220.816"/>
<polygon fill="midnightblue" stroke="midnightblue" points="1488.42,-224.318 1498.48,-221.005 1488.55,-217.319 1488.42,-224.318"/>
</g>
<!-- Node24 -->
<g id="node53" class="node"><title>Node24</title>
<a xlink:href="classforcebalance_1_1optimizer_1_1Optimizer.html#a0c16ad8678a6480e235a45d69fb077d3" target="_top" xlink:title="A single&#45;point Hessian computation. ">
<polygon fill="white" stroke="black" points="1712.5,-68 1712.5,-98 1889.5,-98 1889.5,-68 1712.5,-68"/>
<text text-anchor="start" x="1720.5" y="-86" font-family="Ubuntu-R" font-size="10.00">forcebalance.optimizer.Optimizer.</text>
<text text-anchor="middle" x="1801" y="-75" font-family="Ubuntu-R" font-size="10.00">Hessian</text>
</a>
</g>
<!-- Node23&#45;&gt;Node24 -->
<g id="edge58" class="edge"><title>Node23&#45;&gt;Node24</title>
<path fill="none" stroke="midnightblue" d="M1675.76,-83C1684.44,-83 1693.28,-83 1702.06,-83"/>
<polygon fill="midnightblue" stroke="midnightblue" points="1702.31,-86.5001 1712.31,-83 1702.31,-79.5001 1702.31,-86.5001"/>
</g>
<!-- Node25 -->
<g id="node55" class="node"><title>Node25</title>
<a xlink:href="namespaceforcebalance_1_1finite__difference.html#a9be9f0d21300958092e380514e2e980d" target="_top" xlink:title="A highly accurate seven&#45;point finite difference stencil for computing derivatives of a function...">
<polygon fill="white" stroke="black" points="1963,-156 1963,-186 2067,-186 2067,-156 1963,-156"/>
<text text-anchor="start" x="1971" y="-174" font-family="Ubuntu-R" font-size="10.00">forcebalance.finite</text>
<text text-anchor="middle" x="2015" y="-163" font-family="Ubuntu-R" font-size="10.00">_difference.f1d7p</text>
</a>
</g>
<!-- Node24&#45;&gt;Node25 -->
<g id="edge60" class="edge"><title>Node24&#45;&gt;Node25</title>
<path fill="none" stroke="midnightblue" d="M1838.44,-98.1277C1874.35,-113.032 1929.32,-135.85 1968.17,-151.976"/>
<polygon fill="midnightblue" stroke="midnightblue" points="1967.1,-155.321 1977.68,-155.923 1969.78,-148.856 1967.1,-155.321"/>
</g>
<!-- Node29 -->
<g id="node63" class="node"><title>Node29</title>
<a xlink:href="namespaceforcebalance_1_1finite__difference.html#ae484c591ae8c4e5bae73a0ef2660c339" target="_top" xlink:title="A function wrapper for finite difference designed for differentiating &#39;get&#39;&#45;type functions. ">
<polygon fill="white" stroke="black" points="2590,-110 2590,-140 2694,-140 2694,-110 2590,-110"/>
<text text-anchor="start" x="2598" y="-128" font-family="Ubuntu-R" font-size="10.00">forcebalance.finite</text>
<text text-anchor="middle" x="2642" y="-117" font-family="Ubuntu-R" font-size="10.00">_difference.fdwrap</text>
</a>
</g>
<!-- Node24&#45;&gt;Node29 -->
<g id="edge76" class="edge"><title>Node24&#45;&gt;Node29</title>
<path fill="none" stroke="midnightblue" d="M1889.61,-84.3624C2027.96,-87.0093 2305.44,-94.3265 2540,-113 2552.85,-114.023 2566.58,-115.438 2579.65,-116.938"/>
<polygon fill="midnightblue" stroke="midnightblue" points="2579.61,-120.459 2589.95,-118.154 2580.43,-113.507 2579.61,-120.459"/>
</g>
<!-- Node32 -->
<g id="node71" class="node"><title>Node32</title>
<a xlink:href="classforcebalance_1_1optimizer_1_1Optimizer.html#adb86c1f6580bb088a23563a6103986fe" target="_top" xlink:title="Finite&#45;difference checker for the objective function Hessian. ">
<polygon fill="white" stroke="black" points="1926.5,-30 1926.5,-60 2103.5,-60 2103.5,-30 1926.5,-30"/>
<text text-anchor="start" x="1934.5" y="-48" font-family="Ubuntu-R" font-size="10.00">forcebalance.optimizer.Optimizer.</text>
<text text-anchor="middle" x="2015" y="-37" font-family="Ubuntu-R" font-size="10.00">FDCheckH</text>
</a>
</g>
<!-- Node24&#45;&gt;Node32 -->
<g id="edge78" class="edge"><title>Node24&#45;&gt;Node32</title>
<path fill="none" stroke="midnightblue" d="M1885.79,-67.9814C1897.07,-65.9597 1908.7,-63.875 1920.14,-61.8246"/>
<polygon fill="midnightblue" stroke="midnightblue" points="1920.9,-65.2435 1930.13,-60.034 1919.67,-58.3533 1920.9,-65.2435"/>
</g>
<!-- Node26 -->
<g id="node57" class="node"><title>Node26</title>
<a xlink:href="namespaceforcebalance_1_1finite__difference.html#acc281f85b668062745f711d9b4a610fa" target="_top" xlink:title="forcebalance.finite\l_difference.f12d7p">
<polygon fill="white" stroke="black" points="2195.5,-156 2195.5,-186 2300.5,-186 2300.5,-156 2195.5,-156"/>
<text text-anchor="start" x="2203.5" y="-174" font-family="Ubuntu-R" font-size="10.00">forcebalance.finite</text>
<text text-anchor="middle" x="2248" y="-163" font-family="Ubuntu-R" font-size="10.00">_difference.f12d7p</text>
</a>
</g>
<!-- Node25&#45;&gt;Node26 -->
<g id="edge62" class="edge"><title>Node25&#45;&gt;Node26</title>
<path fill="none" stroke="midnightblue" d="M2067.27,-171C2102.14,-171 2148.46,-171 2185.34,-171"/>
<polygon fill="midnightblue" stroke="midnightblue" points="2185.48,-174.5 2195.48,-171 2185.48,-167.5 2185.48,-174.5"/>
</g>
<!-- Node27 -->
<g id="node59" class="node"><title>Node27</title>
<a xlink:href="namespaceforcebalance_1_1finite__difference.html#aa69a8819e4680091f400303c1d6ddeb7" target="_top" xlink:title="A three&#45;point finite difference stencil. ">
<polygon fill="white" stroke="black" points="2413.5,-156 2413.5,-186 2518.5,-186 2518.5,-156 2413.5,-156"/>
<text text-anchor="start" x="2421.5" y="-174" font-family="Ubuntu-R" font-size="10.00">forcebalance.finite</text>
<text text-anchor="middle" x="2466" y="-163" font-family="Ubuntu-R" font-size="10.00">_difference.f12d3p</text>
</a>
</g>
<!-- Node26&#45;&gt;Node27 -->
<g id="edge64" class="edge"><title>Node26&#45;&gt;Node27</title>
<path fill="none" stroke="midnightblue" d="M2300.74,-171C2331.48,-171 2370.67,-171 2403.05,-171"/>
<polygon fill="midnightblue" stroke="midnightblue" points="2403.31,-174.5 2413.31,-171 2403.31,-167.5 2403.31,-174.5"/>
</g>
<!-- Node28 -->
<g id="node61" class="node"><title>Node28</title>
<a xlink:href="namespaceforcebalance_1_1finite__difference.html#ad84d3e385db1190e7d8ef58bc08a6c52" target="_top" xlink:title="Invoking this function from anywhere will tell us whether we&#39;re being called by a finite&#45;difference f...">
<polygon fill="white" stroke="black" points="2590,-159 2590,-189 2694,-189 2694,-159 2590,-159"/>
<text text-anchor="start" x="2598" y="-177" font-family="Ubuntu-R" font-size="10.00">forcebalance.finite</text>
<text text-anchor="middle" x="2642" y="-166" font-family="Ubuntu-R" font-size="10.00">_difference.in_fd</text>
</a>
</g>
<!-- Node27&#45;&gt;Node28 -->
<g id="edge66" class="edge"><title>Node27&#45;&gt;Node28</title>
<path fill="none" stroke="midnightblue" d="M2518.73,-171.892C2537.84,-172.221 2559.68,-172.598 2579.57,-172.941"/>
<polygon fill="midnightblue" stroke="midnightblue" points="2579.71,-176.444 2589.76,-173.117 2579.83,-169.445 2579.71,-176.444"/>
</g>
<!-- Node27&#45;&gt;Node29 -->
<g id="edge68" class="edge"><title>Node27&#45;&gt;Node29</title>
<path fill="none" stroke="midnightblue" d="M2518.73,-157.323C2537.93,-152.248 2559.88,-146.444 2579.84,-141.168"/>
<polygon fill="midnightblue" stroke="midnightblue" points="2580.99,-144.485 2589.76,-138.545 2579.2,-137.717 2580.99,-144.485"/>
</g>
<!-- Node30 -->
<g id="node65" class="node"><title>Node30</title>
<a xlink:href="namespaceforcebalance_1_1finite__difference.html#a00322fb65860c390616f74d05037c797" target="_top" xlink:title="A driver to fdwrap for gradients (see documentation for fdwrap) Inputs: tgt = The Target containing t...">
<polygon fill="white" stroke="black" points="2762,-110 2762,-140 2878,-140 2878,-110 2762,-110"/>
<text text-anchor="start" x="2770" y="-128" font-family="Ubuntu-R" font-size="10.00">forcebalance.finite</text>
<text text-anchor="middle" x="2820" y="-117" font-family="Ubuntu-R" font-size="10.00">_difference.fdwrap_G</text>
</a>
</g>
<!-- Node29&#45;&gt;Node30 -->
<g id="edge70" class="edge"><title>Node29&#45;&gt;Node30</title>
<path fill="none" stroke="midnightblue" d="M2694.38,-118.799C2712.27,-118.231 2732.62,-118.104 2751.61,-118.417"/>
<polygon fill="midnightblue" stroke="midnightblue" points="2751.62,-121.918 2761.69,-118.629 2751.77,-114.92 2751.62,-121.918"/>
</g>
<!-- Node31 -->
<g id="node68" class="node"><title>Node31</title>
<a xlink:href="namespaceforcebalance_1_1finite__difference.html#a77a0bc1ae3cbbcc8d38a0ef9ca877d6d" target="_top" xlink:title="A driver to fdwrap for Hessians (see documentation for fdwrap) Inputs: tgt = The Target containing th...">
<polygon fill="white" stroke="black" points="2762,-61 2762,-91 2878,-91 2878,-61 2762,-61"/>
<text text-anchor="start" x="2770" y="-79" font-family="Ubuntu-R" font-size="10.00">forcebalance.finite</text>
<text text-anchor="middle" x="2820" y="-68" font-family="Ubuntu-R" font-size="10.00">_difference.fdwrap_H</text>
</a>
</g>
<!-- Node29&#45;&gt;Node31 -->
<g id="edge74" class="edge"><title>Node29&#45;&gt;Node31</title>
<path fill="none" stroke="midnightblue" d="M2694.38,-110.695C2713.48,-105.379 2735.37,-99.2831 2755.43,-93.6991"/>
<polygon fill="midnightblue" stroke="midnightblue" points="2756.41,-97.0585 2765.11,-91.0046 2754.53,-90.315 2756.41,-97.0585"/>
</g>
<!-- Node30&#45;&gt;Node29 -->
<g id="edge72" class="edge"><title>Node30&#45;&gt;Node29</title>
<path fill="none" stroke="midnightblue" d="M2761.69,-131.371C2743.4,-131.841 2723.08,-131.874 2704.5,-131.47"/>
<polygon fill="midnightblue" stroke="midnightblue" points="2704.47,-127.968 2694.38,-131.201 2704.28,-134.966 2704.47,-127.968"/>
</g>
<!-- Node33 -->
<g id="node73" class="node"><title>Node33</title>
<a xlink:href="classforcebalance_1_1optimizer_1_1Optimizer.html#a05ee5fe985b3e2ec71071ca061e42d66" target="_top" xlink:title="Read the checkpoint file for the main optimizer. ">
<polygon fill="white" stroke="black" points="2140.5,-38.5 2140.5,-57.5 2355.5,-57.5 2355.5,-38.5 2140.5,-38.5"/>
<text text-anchor="middle" x="2248" y="-45.5" font-family="Ubuntu-R" font-size="10.00">forcebalance.optimizer.Optimizer.readchk</text>
</a>
</g>
<!-- Node32&#45;&gt;Node33 -->
<g id="edge80" class="edge"><title>Node32&#45;&gt;Node33</title>
<path fill="none" stroke="midnightblue" d="M2103.66,-46.1384C2112.38,-46.2517 2121.32,-46.3678 2130.27,-46.484"/>
<polygon fill="midnightblue" stroke="midnightblue" points="2130.33,-49.985 2140.37,-46.6152 2130.42,-42.9855 2130.33,-49.985"/>
</g>
<!-- Node34 -->
<g id="node75" class="node"><title>Node34</title>
<a xlink:href="classforcebalance_1_1optimizer_1_1Optimizer.html#aa7ac7cda43b70ac58ccbd6c8445e88ef" target="_top" xlink:title="Write the checkpoint file for the main optimizer. ">
<polygon fill="white" stroke="black" points="2140,-0.5 2140,-19.5 2356,-19.5 2356,-0.5 2140,-0.5"/>
<text text-anchor="middle" x="2248" y="-7.5" font-family="Ubuntu-R" font-size="10.00">forcebalance.optimizer.Optimizer.writechk</text>
</a>
</g>
<!-- Node32&#45;&gt;Node34 -->
<g id="edge82" class="edge"><title>Node32&#45;&gt;Node34</title>
<path fill="none" stroke="midnightblue" d="M2103.66,-31.7181C2126.9,-28.1964 2151.75,-24.4324 2174.11,-21.0439"/>
<polygon fill="midnightblue" stroke="midnightblue" points="2174.83,-24.4743 2184.2,-19.5157 2173.78,-17.5533 2174.83,-24.4743"/>
</g>
<!-- Node37 -->
<g id="node82" class="node"><title>Node37</title>
<a xlink:href="classforcebalance_1_1optimizer_1_1Optimizer.html#aacf96d137fb0e491af7e380c8bd61eb9" target="_top" xlink:title="Finite&#45;difference checker for the objective function gradient. ">
<polygon fill="white" stroke="black" points="1498.5,-156 1498.5,-186 1675.5,-186 1675.5,-156 1498.5,-156"/>
<text text-anchor="start" x="1506.5" y="-174" font-family="Ubuntu-R" font-size="10.00">forcebalance.optimizer.Optimizer.</text>
<text text-anchor="middle" x="1587" y="-163" font-family="Ubuntu-R" font-size="10.00">FDCheckG</text>
</a>
</g>
<!-- Node36&#45;&gt;Node37 -->
<g id="edge90" class="edge"><title>Node36&#45;&gt;Node37</title>
<path fill="none" stroke="midnightblue" d="M1461.76,-173.93C1470.44,-173.726 1479.28,-173.517 1488.06,-173.31"/>
<polygon fill="midnightblue" stroke="midnightblue" points="1488.39,-176.803 1498.31,-173.068 1488.23,-169.805 1488.39,-176.803"/>
</g>
<!-- Node37&#45;&gt;Node4 -->
<g id="edge92" class="edge"><title>Node37&#45;&gt;Node4</title>
<path fill="none" stroke="midnightblue" d="M1644.93,-186.052C1655.3,-188.927 1665.99,-191.983 1676,-195 1705.38,-203.858 1738.36,-214.81 1762.91,-223.166"/>
<polygon fill="midnightblue" stroke="midnightblue" points="1761.96,-226.538 1772.55,-226.46 1764.22,-219.914 1761.96,-226.538"/>
</g>
<!-- Node37&#45;&gt;Node29 -->
<g id="edge98" class="edge"><title>Node37&#45;&gt;Node29</title>
<path fill="none" stroke="midnightblue" d="M1654,-155.96C1672.67,-152.18 1693.06,-148.494 1712,-146 1845.34,-128.447 1879.51,-127 2014,-127 2014,-127 2014,-127 2249,-127 2366.08,-127 2502.82,-126.097 2579.93,-125.504"/>
<polygon fill="midnightblue" stroke="midnightblue" points="2579.97,-129.004 2589.95,-125.427 2579.92,-122.004 2579.97,-129.004"/>
</g>
<!-- Node38 -->
<g id="node85" class="node"><title>Node38</title>
<a xlink:href="namespaceforcebalance_1_1finite__difference.html#a123c5d5dea0f3f50ab57796bb3bc39be" target="_top" xlink:title="A highly accurate five&#45;point finite difference stencil for computing derivatives of a function...">
<polygon fill="white" stroke="black" points="1749,-156 1749,-186 1853,-186 1853,-156 1749,-156"/>
<text text-anchor="start" x="1757" y="-174" font-family="Ubuntu-R" font-size="10.00">forcebalance.finite</text>
<text text-anchor="middle" x="1801" y="-163" font-family="Ubuntu-R" font-size="10.00">_difference.f1d5p</text>
</a>
</g>
<!-- Node37&#45;&gt;Node38 -->
<g id="edge94" class="edge"><title>Node37&#45;&gt;Node38</title>
<path fill="none" stroke="midnightblue" d="M1675.76,-171C1696.91,-171 1719.05,-171 1738.69,-171"/>
<polygon fill="midnightblue" stroke="midnightblue" points="1738.71,-174.5 1748.71,-171 1738.71,-167.5 1738.71,-174.5"/>
</g>
<!-- Node38&#45;&gt;Node25 -->
<g id="edge96" class="edge"><title>Node38&#45;&gt;Node25</title>
<path fill="none" stroke="midnightblue" d="M1853.05,-171C1883.01,-171 1921.07,-171 1952.65,-171"/>
<polygon fill="midnightblue" stroke="midnightblue" points="1952.66,-174.5 1962.66,-171 1952.66,-167.5 1952.66,-174.5"/>
</g>
<!-- Node39&#45;&gt;Node4 -->
<g id="edge102" class="edge"><title>Node39&#45;&gt;Node4</title>
<path fill="none" stroke="midnightblue" d="M1675.76,-226.623C1689.97,-227.696 1704.63,-228.802 1718.67,-229.862"/>
<polygon fill="midnightblue" stroke="midnightblue" points="1718.54,-233.362 1728.78,-230.625 1719.07,-226.382 1718.54,-233.362"/>
</g>
</g>
</svg>
