<?xml version="1.0" encoding="UTF-8" standalone="no"?>
<!DOCTYPE svg PUBLIC "-//W3C//DTD SVG 1.1//EN"
 "http://www.w3.org/Graphics/SVG/1.1/DTD/svg11.dtd">
<!-- Generated by graphviz version 2.32.0 (20130801.1845)
 -->
<!-- Title: forcebalance.optimizer.Optimizer.FDCheckH Pages: 1 -->
<svg width="386pt" height="67pt"
 viewBox="0.00 0.00 386.00 67.00" xmlns="http://www.w3.org/2000/svg" xmlns:xlink="http://www.w3.org/1999/xlink">
<g id="graph0" class="graph" transform="scale(1 1) rotate(0) translate(4 63)">
<title>forcebalance.optimizer.Optimizer.FDCheckH</title>
<polygon fill="white" stroke="white" points="-4,5 -4,-63 383,-63 383,5 -4,5"/>
<!-- Node1 -->
<g id="node1" class="node"><title>Node1</title>
<polygon fill="#bfbfbf" stroke="black" points="0.282,-13 0.282,-45 153.718,-45 153.718,-13 0.282,-13"/>
<text text-anchor="start" x="8.282" y="-32" font-family="Ubuntu-R" font-size="10.00">forcebalance.optimizer.Optimizer.</text>
<text text-anchor="middle" x="77" y="-20" font-family="Ubuntu-R" font-size="10.00">FDCheckH</text>
</g>
<!-- Node2 -->
<g id="node2" class="node"><title>Node2</title>
<g id="a_node2"><a xlink:href="classforcebalance_1_1optimizer_1_1Optimizer.html#a05ee5fe985b3e2ec71071ca061e42d66" target="_top" xlink:title="Read the checkpoint file for the main optimizer.">
<polygon fill="white" stroke="black" points="191.459,-39 191.459,-59 376.541,-59 376.541,-39 191.459,-39"/>
<text text-anchor="middle" x="284" y="-46" font-family="Ubuntu-R" font-size="10.00">forcebalance.optimizer.Optimizer.readchk</text>
</a>
</g>
</g>
<!-- Node1&#45;&gt;Node2 -->
<g id="edge1" class="edge"><title>Node1&#45;&gt;Node2</title>
<path fill="none" stroke="midnightblue" d="M153.752,-36.3904C162.714,-37.2648 171.97,-38.1678 181.218,-39.07"/>
<polygon fill="midnightblue" stroke="midnightblue" points="180.943,-42.5597 191.236,-40.0474 181.623,-35.5928 180.943,-42.5597"/>
</g>
<!-- Node3 -->
<g id="node3" class="node"><title>Node3</title>
<g id="a_node3"><a xlink:href="classforcebalance_1_1optimizer_1_1Optimizer.html#aa7ac7cda43b70ac58ccbd6c8445e88ef" target="_top" xlink:title="Write the checkpoint file for the main optimizer.">
<polygon fill="white" stroke="black" points="189.79,-0 189.79,-20 378.21,-20 378.21,-0 189.79,-0"/>
<text text-anchor="middle" x="284" y="-7" font-family="Ubuntu-R" font-size="10.00">forcebalance.optimizer.Optimizer.writechk</text>
</a>
</g>
</g>
<!-- Node1&#45;&gt;Node3 -->
<g id="edge2" class="edge"><title>Node1&#45;&gt;Node3</title>
<path fill="none" stroke="midnightblue" d="M153.752,-21.9791C162.114,-21.2041 170.731,-20.4054 179.359,-19.6058"/>
<polygon fill="midnightblue" stroke="midnightblue" points="179.843,-23.076 189.477,-18.6679 179.197,-16.1058 179.843,-23.076"/>
</g>
</g>
</svg>
