<?xml version="1.0" encoding="UTF-8" standalone="no"?>
<!DOCTYPE svg PUBLIC "-//W3C//DTD SVG 1.1//EN"
 "http://www.w3.org/Graphics/SVG/1.1/DTD/svg11.dtd">
<!-- Generated by graphviz version 2.32.0 (20130801.1845)
 -->
<!-- Title: forcebalance.optimizer.Optimizer.Simplex Pages: 1 -->
<svg width="2366pt" height="397pt"
 viewBox="0.00 0.00 2366.00 397.00" xmlns="http://www.w3.org/2000/svg" xmlns:xlink="http://www.w3.org/1999/xlink">
<g id="graph0" class="graph" transform="scale(1 1) rotate(0) translate(4 393)">
<title>forcebalance.optimizer.Optimizer.Simplex</title>
<polygon fill="white" stroke="white" points="-4,5 -4,-393 2363,-393 2363,5 -4,5"/>
<!-- Node1 -->
<g id="node1" class="node"><title>Node1</title>
<polygon fill="#bfbfbf" stroke="black" points="0.282,-131 0.282,-163 153.718,-163 153.718,-131 0.282,-131"/>
<text text-anchor="start" x="8.282" y="-150" font-family="Ubuntu-R" font-size="10.00">forcebalance.optimizer.Optimizer.</text>
<text text-anchor="middle" x="77" y="-138" font-family="Ubuntu-R" font-size="10.00">Simplex</text>
</g>
<!-- Node2 -->
<g id="node2" class="node"><title>Node2</title>
<g id="a_node2"><a xlink:href="classforcebalance_1_1optimizer_1_1Optimizer.html#ad1e151204a172a4e75737b2b699d1623" target="_top" xlink:title="Use SciPy&#39;s built&#45;in simulated annealing algorithm to optimize the parameters.">
<polygon fill="white" stroke="black" points="190.282,-235 190.282,-267 343.718,-267 343.718,-235 190.282,-235"/>
<text text-anchor="start" x="198.282" y="-254" font-family="Ubuntu-R" font-size="10.00">forcebalance.optimizer.Optimizer.</text>
<text text-anchor="middle" x="267" y="-242" font-family="Ubuntu-R" font-size="10.00">ConjugateGradient</text>
</a>
</g>
</g>
<!-- Node1&#45;&gt;Node2 -->
<g id="edge1" class="edge"><title>Node1&#45;&gt;Node2</title>
<path fill="none" stroke="midnightblue" d="M97.5671,-163.176C119.12,-180.365 155.335,-207.436 190,-225 194.284,-227.171 198.791,-229.228 203.382,-231.162"/>
<polygon fill="midnightblue" stroke="midnightblue" points="202.299,-234.499 212.884,-234.96 204.897,-227.998 202.299,-234.499"/>
</g>
<!-- Node3 -->
<g id="node3" class="node"><title>Node3</title>
<g id="a_node3"><a xlink:href="classforcebalance_1_1optimizer_1_1Optimizer.html#a503e87533bd9c257cb9c4b505af9c1de" target="_top" xlink:title="Driver for SciPy optimizations.">
<polygon fill="white" stroke="black" points="190.282,-96 190.282,-128 343.718,-128 343.718,-96 190.282,-96"/>
<text text-anchor="start" x="198.282" y="-115" font-family="Ubuntu-R" font-size="10.00">forcebalance.optimizer.Optimizer.</text>
<text text-anchor="middle" x="267" y="-103" font-family="Ubuntu-R" font-size="10.00">ScipyOptimizer</text>
</a>
</g>
</g>
<!-- Node1&#45;&gt;Node3 -->
<g id="edge2" class="edge"><title>Node1&#45;&gt;Node3</title>
<path fill="none" stroke="midnightblue" d="M153.925,-132.865C162.588,-131.252 171.464,-129.6 180.243,-127.965"/>
<polygon fill="midnightblue" stroke="midnightblue" points="180.907,-131.402 190.097,-126.131 179.626,-124.52 180.907,-131.402"/>
</g>
<!-- Node22 -->
<g id="node22" class="node"><title>Node22</title>
<g id="a_node22"><a xlink:href="classforcebalance_1_1optimizer_1_1Optimizer.html#a6c7508252398ff7e00469c4c8acb0a48" target="_top" xlink:title="Scan through parameter values.">
<polygon fill="white" stroke="black" points="190.282,-166 190.282,-198 343.718,-198 343.718,-166 190.282,-166"/>
<text text-anchor="start" x="198.282" y="-185" font-family="Ubuntu-R" font-size="10.00">forcebalance.optimizer.Optimizer.</text>
<text text-anchor="middle" x="267" y="-173" font-family="Ubuntu-R" font-size="10.00">Scan_Values</text>
</a>
</g>
</g>
<!-- Node1&#45;&gt;Node22 -->
<g id="edge28" class="edge"><title>Node1&#45;&gt;Node22</title>
<path fill="none" stroke="midnightblue" d="M153.925,-161.135C162.588,-162.748 171.464,-164.4 180.243,-166.035"/>
<polygon fill="midnightblue" stroke="midnightblue" points="179.626,-169.48 190.097,-167.869 180.907,-162.598 179.626,-169.48"/>
</g>
<!-- Node4 -->
<g id="node4" class="node"><title>Node4</title>
<g id="a_node4"><a xlink:href="namespaceforcebalance_1_1nifty.html#a11babd62dc7bca389162c6318f9672ca" target="_top" xlink:title="Cool&#45;looking printout for slick formatting of output.">
<polygon fill="white" stroke="black" points="773.468,-134 773.468,-154 900.532,-154 900.532,-134 773.468,-134"/>
<text text-anchor="middle" x="837" y="-141" font-family="Ubuntu-R" font-size="10.00">forcebalance.nifty.printcool</text>
</a>
</g>
</g>
<!-- Node3&#45;&gt;Node4 -->
<g id="edge3" class="edge"><title>Node3&#45;&gt;Node4</title>
<path fill="none" stroke="midnightblue" d="M343.946,-113.449C434.538,-115.573 590.506,-120.486 724,-131 736.627,-131.994 750.025,-133.317 762.999,-134.737"/>
<polygon fill="midnightblue" stroke="midnightblue" points="762.961,-138.255 773.29,-135.894 763.743,-131.299 762.961,-138.255"/>
</g>
<!-- Node19 -->
<g id="node19" class="node"><title>Node19</title>
<g id="a_node19"><a xlink:href="classforcebalance_1_1optimizer_1_1Optimizer.html#a50ffc779fbba5a99085cba45d868fc29" target="_top" xlink:title="Genetic algorithm, under development.">
<polygon fill="white" stroke="black" points="380.282,-51 380.282,-83 533.718,-83 533.718,-51 380.282,-51"/>
<text text-anchor="start" x="388.282" y="-70" font-family="Ubuntu-R" font-size="10.00">forcebalance.optimizer.Optimizer.</text>
<text text-anchor="middle" x="457" y="-58" font-family="Ubuntu-R" font-size="10.00">GeneticAlgorithm</text>
</a>
</g>
</g>
<!-- Node3&#45;&gt;Node19 -->
<g id="edge23" class="edge"><title>Node3&#45;&gt;Node19</title>
<path fill="none" stroke="midnightblue" d="M311.131,-95.8952C328.739,-90.9348 349.754,-85.5892 370.243,-80.8002"/>
<polygon fill="midnightblue" stroke="midnightblue" points="371.281,-84.1526 380.241,-78.498 369.711,-77.3311 371.281,-84.1526"/>
</g>
<!-- Node5 -->
<g id="node5" class="node"><title>Node5</title>
<g id="a_node5"><a xlink:href="namespaceforcebalance_1_1nifty.html#abb8f59044961a12588e0653c2baa8b01" target="_top" xlink:title="forcebalance.nifty.warn\l_press_key">
<polygon fill="white" stroke="black" points="2037.53,-29 2037.53,-61 2148.47,-61 2148.47,-29 2037.53,-29"/>
<text text-anchor="start" x="2045.53" y="-48" font-family="Ubuntu-R" font-size="10.00">forcebalance.nifty.warn</text>
<text text-anchor="middle" x="2093" y="-36" font-family="Ubuntu-R" font-size="10.00">_press_key</text>
</a>
</g>
</g>
<!-- Node4&#45;&gt;Node5 -->
<g id="edge4" class="edge"><title>Node4&#45;&gt;Node5</title>
<path fill="none" stroke="midnightblue" d="M859.731,-133.932C918.511,-107.652 1086.12,-39 1233,-39 1233,-39 1233,-39 1749,-39 1845.87,-39 1958.11,-41.422 2027.08,-43.1884"/>
<polygon fill="midnightblue" stroke="midnightblue" points="2027.26,-46.6943 2037.35,-43.4549 2027.45,-39.6966 2027.26,-46.6943"/>
</g>
<!-- Node7 -->
<g id="node7" class="node"><title>Node7</title>
<g id="a_node7"><a xlink:href="namespaceforcebalance_1_1nifty.html#a51180e960742cc7547749fdfb3513ec4" target="_top" xlink:title="See documentation for printcool; this is a nice way to print out keys/values in a dictionary...">
<polygon fill="white" stroke="black" points="963.468,-128 963.468,-160 1090.53,-160 1090.53,-128 963.468,-128"/>
<text text-anchor="start" x="971.468" y="-147" font-family="Ubuntu-R" font-size="10.00">forcebalance.nifty.printcool</text>
<text text-anchor="middle" x="1027" y="-135" font-family="Ubuntu-R" font-size="10.00">_dictionary</text>
</a>
</g>
</g>
<!-- Node4&#45;&gt;Node7 -->
<g id="edge6" class="edge"><title>Node4&#45;&gt;Node7</title>
<path fill="none" stroke="midnightblue" d="M900.601,-144C917.477,-144 935.879,-144 953.257,-144"/>
<polygon fill="midnightblue" stroke="midnightblue" points="953.352,-147.5 963.352,-144 953.352,-140.5 953.352,-147.5"/>
</g>
<!-- Node6 -->
<g id="node6" class="node"><title>Node6</title>
<g id="a_node6"><a xlink:href="namespaceforcebalance_1_1nifty.html#a2fc81730e7efa7d138dd86f733507bfc" target="_top" xlink:title="Similar to the bultin function map().">
<polygon fill="white" stroke="black" points="2202.03,-35 2202.03,-55 2357.97,-55 2357.97,-35 2202.03,-35"/>
<text text-anchor="middle" x="2280" y="-42" font-family="Ubuntu-R" font-size="10.00">forcebalance.nifty.concurrent_map</text>
</a>
</g>
</g>
<!-- Node5&#45;&gt;Node6 -->
<g id="edge5" class="edge"><title>Node5&#45;&gt;Node6</title>
<path fill="none" stroke="midnightblue" d="M2148.51,-45C2162.1,-45 2177.02,-45 2191.77,-45"/>
<polygon fill="midnightblue" stroke="midnightblue" points="2191.92,-48.5001 2201.92,-45 2191.92,-41.5001 2191.92,-48.5001"/>
</g>
<!-- Node8 -->
<g id="node8" class="node"><title>Node8</title>
<g id="a_node8"><a xlink:href="namespaceforcebalance_1_1nifty.html#a3f1c7a1af9d35d5d1693074bc6f5497c" target="_top" xlink:title="ONLY matches integers! If you have a decimal point? None shall pass!">
<polygon fill="white" stroke="black" points="1179.91,-121 1179.91,-141 1288.09,-141 1288.09,-121 1179.91,-121"/>
<text text-anchor="middle" x="1234" y="-128" font-family="Ubuntu-R" font-size="10.00">forcebalance.nifty.isint</text>
</a>
</g>
</g>
<!-- Node7&#45;&gt;Node8 -->
<g id="edge7" class="edge"><title>Node7&#45;&gt;Node8</title>
<path fill="none" stroke="midnightblue" d="M1090.62,-140.029C1115.67,-138.441 1144.47,-136.614 1169.59,-135.021"/>
<polygon fill="midnightblue" stroke="midnightblue" points="1169.99,-138.503 1179.75,-134.377 1169.55,-131.517 1169.99,-138.503"/>
</g>
<!-- Node10 -->
<g id="node10" class="node"><title>Node10</title>
<g id="a_node10"><a xlink:href="namespaceforcebalance_1_1nifty.html#a8e3ef0108b9d37b82ba0dced7c6037ae" target="_top" xlink:title="Matches ANY number; it can be a decimal, scientific notation, what have you CAUTION &#45; this will also ...">
<polygon fill="white" stroke="black" points="1530.02,-138 1530.02,-158 1645.98,-158 1645.98,-138 1530.02,-138"/>
<text text-anchor="middle" x="1588" y="-145" font-family="Ubuntu-R" font-size="10.00">forcebalance.nifty.isfloat</text>
</a>
</g>
</g>
<!-- Node7&#45;&gt;Node10 -->
<g id="edge22" class="edge"><title>Node7&#45;&gt;Node10</title>
<path fill="none" stroke="midnightblue" d="M1090.77,-147.709C1106.82,-148.562 1124.04,-149.395 1140,-150 1297.24,-155.965 1336.76,-160.909 1494,-155 1502.37,-154.685 1511.16,-154.212 1519.85,-153.657"/>
<polygon fill="midnightblue" stroke="midnightblue" points="1520.24,-157.138 1529.99,-152.972 1519.77,-150.154 1520.24,-157.138"/>
</g>
<!-- Node9 -->
<g id="node9" class="node"><title>Node9</title>
<g id="a_node9"><a xlink:href="namespaceforcebalance_1_1nifty.html#a09263927eaec9deff283fbf1a820242f" target="_top" xlink:title="Matches things with a decimal only; see isint and isfloat.">
<polygon fill="white" stroke="black" points="1364.36,-83 1364.36,-103 1493.64,-103 1493.64,-83 1364.36,-83"/>
<text text-anchor="middle" x="1429" y="-90" font-family="Ubuntu-R" font-size="10.00">forcebalance.nifty.isdecimal</text>
</a>
</g>
</g>
<!-- Node8&#45;&gt;Node9 -->
<g id="edge8" class="edge"><title>Node8&#45;&gt;Node9</title>
<path fill="none" stroke="midnightblue" d="M1285.96,-120.966C1310.81,-116.074 1340.88,-110.154 1366.94,-105.022"/>
<polygon fill="midnightblue" stroke="midnightblue" points="1367.95,-108.39 1377.09,-103.024 1366.6,-101.522 1367.95,-108.39"/>
</g>
<!-- Node9&#45;&gt;Node10 -->
<g id="edge9" class="edge"><title>Node9&#45;&gt;Node10</title>
<path fill="none" stroke="midnightblue" d="M1458.8,-103.088C1484.03,-111.926 1520.89,-124.841 1548.62,-134.555"/>
<polygon fill="midnightblue" stroke="midnightblue" points="1547.79,-137.973 1558.39,-137.976 1550.11,-131.367 1547.79,-137.973"/>
</g>
<!-- Node14 -->
<g id="node14" class="node"><title>Node14</title>
<g id="a_node14"><a xlink:href="namespaceforcebalance_1_1nifty.html#afb3f205bce4984856e766af7e9fdaca8" target="_top" xlink:title="Given any list, array, or matrix, return a 1&#45;column matrix.">
<polygon fill="white" stroke="black" points="1536.41,-83 1536.41,-103 1639.59,-103 1639.59,-83 1536.41,-83"/>
<text text-anchor="middle" x="1588" y="-90" font-family="Ubuntu-R" font-size="10.00">forcebalance.nifty.col</text>
</a>
</g>
</g>
<!-- Node9&#45;&gt;Node14 -->
<g id="edge14" class="edge"><title>Node9&#45;&gt;Node14</title>
<path fill="none" stroke="midnightblue" d="M1493.86,-93C1504.43,-93 1515.36,-93 1525.86,-93"/>
<polygon fill="midnightblue" stroke="midnightblue" points="1526.19,-96.5001 1536.19,-93 1526.19,-89.5001 1526.19,-96.5001"/>
</g>
<!-- Node10&#45;&gt;Node8 -->
<g id="edge10" class="edge"><title>Node10&#45;&gt;Node8</title>
<path fill="none" stroke="midnightblue" d="M1529.82,-145.238C1466.46,-142.179 1364.58,-137.258 1298.71,-134.077"/>
<polygon fill="midnightblue" stroke="midnightblue" points="1298.62,-130.568 1288.46,-133.582 1298.28,-137.56 1298.62,-130.568"/>
</g>
<!-- Node11 -->
<g id="node11" class="node"><title>Node11</title>
<g id="a_node11"><a xlink:href="namespaceforcebalance_1_1nifty.html#a8d63c8ae9a67c66673a6cf81357f827d" target="_top" xlink:title="Returns a big number if we encounter NaN.">
<polygon fill="white" stroke="black" points="1681.97,-146 1681.97,-166 1814.03,-166 1814.03,-146 1681.97,-146"/>
<text text-anchor="middle" x="1748" y="-153" font-family="Ubuntu-R" font-size="10.00">forcebalance.nifty.floatornan</text>
</a>
</g>
</g>
<!-- Node10&#45;&gt;Node11 -->
<g id="edge11" class="edge"><title>Node10&#45;&gt;Node11</title>
<path fill="none" stroke="midnightblue" d="M1646.04,-150.888C1654.36,-151.31 1663.04,-151.749 1671.66,-152.185"/>
<polygon fill="midnightblue" stroke="midnightblue" points="1671.56,-155.685 1681.72,-152.695 1671.91,-148.694 1671.56,-155.685"/>
</g>
<!-- Node12 -->
<g id="node12" class="node"><title>Node12</title>
<g id="a_node12"><a xlink:href="namespaceforcebalance_1_1nifty.html#a6c9727360cdff8f3011a12cc54d0e86e" target="_top" xlink:title="Given any list, array, or matrix, return a 1&#45;row matrix.">
<polygon fill="white" stroke="black" points="1863.75,-146 1863.75,-166 1970.25,-166 1970.25,-146 1863.75,-146"/>
<text text-anchor="middle" x="1917" y="-153" font-family="Ubuntu-R" font-size="10.00">forcebalance.nifty.row</text>
</a>
</g>
</g>
<!-- Node11&#45;&gt;Node12 -->
<g id="edge12" class="edge"><title>Node11&#45;&gt;Node12</title>
<path fill="none" stroke="midnightblue" d="M1814.04,-156C1826.98,-156 1840.54,-156 1853.39,-156"/>
<polygon fill="midnightblue" stroke="midnightblue" points="1853.52,-159.5 1863.52,-156 1853.52,-152.5 1853.52,-159.5"/>
</g>
<!-- Node13 -->
<g id="node13" class="node"><title>Node13</title>
<g id="a_node13"><a xlink:href="namespaceforcebalance_1_1nifty.html#a7676236002c6a65ea7d2e69a09923889" target="_top" xlink:title="Given two vectors vec1 and vec2, project out the component of vec1 that is along the vec2&#45;direction...">
<polygon fill="white" stroke="black" points="2020.03,-146 2020.03,-166 2165.97,-166 2165.97,-146 2020.03,-146"/>
<text text-anchor="middle" x="2093" y="-153" font-family="Ubuntu-R" font-size="10.00">forcebalance.nifty.orthogonalize</text>
</a>
</g>
</g>
<!-- Node12&#45;&gt;Node13 -->
<g id="edge13" class="edge"><title>Node12&#45;&gt;Node13</title>
<path fill="none" stroke="midnightblue" d="M1970.68,-156C1983.03,-156 1996.49,-156 2009.79,-156"/>
<polygon fill="midnightblue" stroke="midnightblue" points="2009.92,-159.5 2019.92,-156 2009.92,-152.5 2009.92,-159.5"/>
</g>
<!-- Node15 -->
<g id="node15" class="node"><title>Node15</title>
<g id="a_node15"><a xlink:href="namespaceforcebalance_1_1nifty.html#a52114ceee9d55f94d9aecb3e176de294" target="_top" xlink:title="Given any list, array, or matrix, return a single&#45;index array.">
<polygon fill="white" stroke="black" points="1695.86,-107 1695.86,-127 1800.14,-127 1800.14,-107 1695.86,-107"/>
<text text-anchor="middle" x="1748" y="-114" font-family="Ubuntu-R" font-size="10.00">forcebalance.nifty.flat</text>
</a>
</g>
</g>
<!-- Node14&#45;&gt;Node15 -->
<g id="edge15" class="edge"><title>Node14&#45;&gt;Node15</title>
<path fill="none" stroke="midnightblue" d="M1639.86,-100.726C1654.37,-102.93 1670.34,-105.356 1685.42,-107.647"/>
<polygon fill="midnightblue" stroke="midnightblue" points="1685.28,-111.165 1695.69,-109.206 1686.33,-104.244 1685.28,-111.165"/>
</g>
<!-- Node16 -->
<g id="node16" class="node"><title>Node16</title>
<g id="a_node16"><a xlink:href="namespaceforcebalance_1_1nifty.html#a4c82187e92dfeb8a159f4aa44b501c40" target="_top" xlink:title="Invert a matrix using singular value decomposition.">
<polygon fill="white" stroke="black" points="1850.41,-68 1850.41,-88 1983.59,-88 1983.59,-68 1850.41,-68"/>
<text text-anchor="middle" x="1917" y="-75" font-family="Ubuntu-R" font-size="10.00">forcebalance.nifty.invert_svd</text>
</a>
</g>
</g>
<!-- Node15&#45;&gt;Node16 -->
<g id="edge16" class="edge"><title>Node15&#45;&gt;Node16</title>
<path fill="none" stroke="midnightblue" d="M1792.01,-106.957C1813.73,-101.884 1840.27,-95.6857 1863.22,-90.3269"/>
<polygon fill="midnightblue" stroke="midnightblue" points="1864.2,-93.6919 1873.14,-88.0094 1862.61,-86.8754 1864.2,-93.6919"/>
</g>
<!-- Node16&#45;&gt;Node5 -->
<g id="edge21" class="edge"><title>Node16&#45;&gt;Node5</title>
<path fill="none" stroke="midnightblue" d="M1971.15,-67.9196C1988.94,-64.5456 2008.97,-60.7472 2027.53,-57.2274"/>
<polygon fill="midnightblue" stroke="midnightblue" points="2028.2,-60.6629 2037.37,-55.3608 2026.89,-53.7855 2028.2,-60.6629"/>
</g>
<!-- Node16&#45;&gt;Node14 -->
<g id="edge20" class="edge"><title>Node16&#45;&gt;Node14</title>
<path fill="none" stroke="midnightblue" d="M1850.17,-81.0198C1791.72,-83.701 1706.98,-87.588 1650.03,-90.2003"/>
<polygon fill="midnightblue" stroke="midnightblue" points="1649.56,-86.7181 1639.73,-90.6727 1649.88,-93.7107 1649.56,-86.7181"/>
</g>
<!-- Node17 -->
<g id="node17" class="node"><title>Node17</title>
<g id="a_node17"><a xlink:href="namespaceforcebalance_1_1nifty.html#aa9fb9c7c65231eca50a7afc04f489b64" target="_top" xlink:title="forcebalance.nifty.get\l_least_squares">
<polygon fill="white" stroke="black" points="2041.41,-90 2041.41,-122 2144.59,-122 2144.59,-90 2041.41,-90"/>
<text text-anchor="start" x="2049.41" y="-109" font-family="Ubuntu-R" font-size="10.00">forcebalance.nifty.get</text>
<text text-anchor="middle" x="2093" y="-97" font-family="Ubuntu-R" font-size="10.00">_least_squares</text>
</a>
</g>
</g>
<!-- Node16&#45;&gt;Node17 -->
<g id="edge17" class="edge"><title>Node16&#45;&gt;Node17</title>
<path fill="none" stroke="midnightblue" d="M1980.33,-88.0296C1996.88,-90.6935 2014.74,-93.5666 2031.21,-96.2172"/>
<polygon fill="midnightblue" stroke="midnightblue" points="2030.83,-99.7017 2041.26,-97.8349 2031.94,-92.7906 2030.83,-99.7017"/>
</g>
<!-- Node17&#45;&gt;Node15 -->
<g id="edge18" class="edge"><title>Node17&#45;&gt;Node15</title>
<path fill="none" stroke="midnightblue" d="M2041.14,-107.631C1979.72,-109.601 1876.46,-112.912 1810.59,-115.025"/>
<polygon fill="midnightblue" stroke="midnightblue" points="1810.23,-111.534 1800.35,-115.353 1810.46,-118.531 1810.23,-111.534"/>
</g>
<!-- Node18 -->
<g id="node18" class="node"><title>Node18</title>
<g id="a_node18"><a xlink:href="namespaceforcebalance_1_1nifty.html#ad5ca60565c864b4245a8212fe9d92e10" target="_top" xlink:title="Compute the (cross) statistical inefficiency of (two) timeseries.">
<polygon fill="white" stroke="black" points="2215.64,-90 2215.64,-122 2344.36,-122 2344.36,-90 2215.64,-90"/>
<text text-anchor="start" x="2223.64" y="-109" font-family="Ubuntu-R" font-size="10.00">forcebalance.nifty.statistical</text>
<text text-anchor="middle" x="2280" y="-97" font-family="Ubuntu-R" font-size="10.00">Inefficiency</text>
</a>
</g>
</g>
<!-- Node17&#45;&gt;Node18 -->
<g id="edge19" class="edge"><title>Node17&#45;&gt;Node18</title>
<path fill="none" stroke="midnightblue" d="M2145.04,-106C2163.71,-106 2185.21,-106 2205.45,-106"/>
<polygon fill="midnightblue" stroke="midnightblue" points="2205.58,-109.5 2215.58,-106 2205.58,-102.5 2205.58,-109.5"/>
</g>
<!-- Node19&#45;&gt;Node1 -->
<g id="edge24" class="edge"><title>Node19&#45;&gt;Node1</title>
<path fill="none" stroke="midnightblue" d="M380.252,-63.9429C326.188,-63.7872 252.314,-67.7426 190,-86 160.867,-94.5358 130.813,-111.426 109.181,-125.273"/>
<polygon fill="midnightblue" stroke="midnightblue" points="107.196,-122.39 100.745,-130.794 111.029,-128.247 107.196,-122.39"/>
</g>
<!-- Node19&#45;&gt;Node3 -->
<g id="edge25" class="edge"><title>Node19&#45;&gt;Node3</title>
<path fill="none" stroke="midnightblue" d="M413.052,-83.0532C395.457,-88.014 374.437,-93.3638 353.932,-98.159"/>
<polygon fill="midnightblue" stroke="midnightblue" points="352.884,-94.8087 343.925,-100.464 354.455,-101.63 352.884,-94.8087"/>
</g>
<!-- Node20 -->
<g id="node20" class="node"><title>Node20</title>
<g id="a_node20"><a xlink:href="classforcebalance_1_1optimizer_1_1Optimizer.html#a0745b2e3607ef308ba48bb1d34e5be79" target="_top" xlink:title="Use SciPy&#39;s built&#45;in Powell direction&#45;set algorithm to optimize the parameters.">
<polygon fill="white" stroke="black" points="570.282,-51 570.282,-83 723.718,-83 723.718,-51 570.282,-51"/>
<text text-anchor="start" x="578.282" y="-70" font-family="Ubuntu-R" font-size="10.00">forcebalance.optimizer.Optimizer.</text>
<text text-anchor="middle" x="647" y="-58" font-family="Ubuntu-R" font-size="10.00">Powell</text>
</a>
</g>
</g>
<!-- Node19&#45;&gt;Node20 -->
<g id="edge26" class="edge"><title>Node19&#45;&gt;Node20</title>
<path fill="none" stroke="midnightblue" d="M533.925,-67C542.495,-67 551.273,-67 559.96,-67"/>
<polygon fill="midnightblue" stroke="midnightblue" points="560.097,-70.5001 570.097,-67 560.097,-63.5001 560.097,-70.5001"/>
</g>
<!-- Node21 -->
<g id="node21" class="node"><title>Node21</title>
<g id="a_node21"><a xlink:href="classforcebalance_1_1optimizer_1_1Optimizer.html#a183911848e43ca0be1893b87290dc31e" target="_top" xlink:title="Use SciPy&#39;s built&#45;in simulated annealing algorithm to optimize the parameters.">
<polygon fill="white" stroke="black" points="570.282,-0 570.282,-32 723.718,-32 723.718,-0 570.282,-0"/>
<text text-anchor="start" x="578.282" y="-19" font-family="Ubuntu-R" font-size="10.00">forcebalance.optimizer.Optimizer.</text>
<text text-anchor="middle" x="647" y="-7" font-family="Ubuntu-R" font-size="10.00">Anneal</text>
</a>
</g>
</g>
<!-- Node19&#45;&gt;Node21 -->
<g id="edge27" class="edge"><title>Node19&#45;&gt;Node21</title>
<path fill="none" stroke="midnightblue" d="M517.226,-50.9333C536.194,-45.7879 557.36,-40.046 576.964,-34.7279"/>
<polygon fill="midnightblue" stroke="midnightblue" points="578.014,-38.0697 586.748,-32.0736 576.181,-31.3138 578.014,-38.0697"/>
</g>
<!-- Node22&#45;&gt;Node22 -->
<g id="edge43" class="edge"><title>Node22&#45;&gt;Node22</title>
<path fill="none" stroke="midnightblue" d="M233.332,-198.091C226.461,-207.366 237.684,-216 267,-216 284.865,-216 296.01,-212.794 300.437,-208.19"/>
<polygon fill="midnightblue" stroke="midnightblue" points="303.939,-208.168 300.668,-198.091 296.941,-208.008 303.939,-208.168"/>
</g>
<!-- Node23 -->
<g id="node23" class="node"><title>Node23</title>
<g id="a_node23"><a xlink:href="classforcebalance_1_1optimizer_1_1Optimizer.html#a43ab8c6bea2b3112468922ab61163f67" target="_top" xlink:title="Scan through the mathematical parameter space.">
<polygon fill="white" stroke="black" points="380.282,-288 380.282,-320 533.718,-320 533.718,-288 380.282,-288"/>
<text text-anchor="start" x="388.282" y="-307" font-family="Ubuntu-R" font-size="10.00">forcebalance.optimizer.Optimizer.</text>
<text text-anchor="middle" x="457" y="-295" font-family="Ubuntu-R" font-size="10.00">ScanMVals</text>
</a>
</g>
</g>
<!-- Node22&#45;&gt;Node23 -->
<g id="edge29" class="edge"><title>Node22&#45;&gt;Node23</title>
<path fill="none" stroke="midnightblue" d="M304.299,-198.177C317.688,-205.217 332.405,-214.317 344,-225 364.942,-244.295 357.363,-260.724 380,-278 382.338,-279.785 384.807,-281.452 387.37,-283.008"/>
<polygon fill="midnightblue" stroke="midnightblue" points="385.925,-286.206 396.386,-287.887 389.256,-280.05 385.925,-286.206"/>
</g>
<!-- Node35 -->
<g id="node35" class="node"><title>Node35</title>
<g id="a_node35"><a xlink:href="classforcebalance_1_1optimizer_1_1Optimizer.html#a70bff76f2e56d87c8dee8aa92fe56d29" target="_top" xlink:title="Scan through the physical parameter space.">
<polygon fill="white" stroke="black" points="380.282,-237 380.282,-269 533.718,-269 533.718,-237 380.282,-237"/>
<text text-anchor="start" x="388.282" y="-256" font-family="Ubuntu-R" font-size="10.00">forcebalance.optimizer.Optimizer.</text>
<text text-anchor="middle" x="457" y="-244" font-family="Ubuntu-R" font-size="10.00">ScanPVals</text>
</a>
</g>
</g>
<!-- Node22&#45;&gt;Node35 -->
<g id="edge44" class="edge"><title>Node22&#45;&gt;Node35</title>
<path fill="none" stroke="midnightblue" d="M306.423,-198.017C327.95,-206.844 355.349,-217.838 380,-227 385.833,-229.168 391.942,-231.37 398.053,-233.529"/>
<polygon fill="midnightblue" stroke="midnightblue" points="397.025,-236.877 407.619,-236.874 399.335,-230.269 397.025,-236.877"/>
</g>
<!-- Node36 -->
<g id="node36" class="node"><title>Node36</title>
<g id="a_node36"><a xlink:href="classforcebalance_1_1optimizer_1_1Optimizer.html#a1477d2b88faa1d4991418538133abcff" target="_top" xlink:title="A single&#45;point objective function computation.">
<polygon fill="white" stroke="black" points="380.282,-186 380.282,-218 533.718,-218 533.718,-186 380.282,-186"/>
<text text-anchor="start" x="388.282" y="-205" font-family="Ubuntu-R" font-size="10.00">forcebalance.optimizer.Optimizer.</text>
<text text-anchor="middle" x="457" y="-193" font-family="Ubuntu-R" font-size="10.00">SinglePoint</text>
</a>
</g>
</g>
<!-- Node22&#45;&gt;Node36 -->
<g id="edge45" class="edge"><title>Node22&#45;&gt;Node36</title>
<path fill="none" stroke="midnightblue" d="M343.925,-190.077C352.495,-190.989 361.273,-191.923 369.96,-192.847"/>
<polygon fill="midnightblue" stroke="midnightblue" points="369.783,-196.348 380.097,-193.925 370.524,-189.387 369.783,-196.348"/>
</g>
<!-- Node39 -->
<g id="node39" class="node"><title>Node39</title>
<g id="a_node39"><a xlink:href="classforcebalance_1_1optimizer_1_1Optimizer.html#ac5adf24cf3ea3976eb67f75b6b89d101" target="_top" xlink:title="A single&#45;point gradient computation.">
<polygon fill="white" stroke="black" points="570.282,-141 570.282,-173 723.718,-173 723.718,-141 570.282,-141"/>
<text text-anchor="start" x="578.282" y="-160" font-family="Ubuntu-R" font-size="10.00">forcebalance.optimizer.Optimizer.</text>
<text text-anchor="middle" x="647" y="-148" font-family="Ubuntu-R" font-size="10.00">Gradient</text>
</a>
</g>
</g>
<!-- Node22&#45;&gt;Node39 -->
<g id="edge51" class="edge"><title>Node22&#45;&gt;Node39</title>
<path fill="none" stroke="midnightblue" d="M344.039,-176.971C406.455,-172.843 494.832,-166.998 559.855,-162.697"/>
<polygon fill="midnightblue" stroke="midnightblue" points="560.335,-166.173 570.082,-162.021 559.873,-159.189 560.335,-166.173"/>
</g>
<!-- Node24 -->
<g id="node24" class="node"><title>Node24</title>
<g id="a_node24"><a xlink:href="classforcebalance_1_1optimizer_1_1Optimizer.html#a0c16ad8678a6480e235a45d69fb077d3" target="_top" xlink:title="A single&#45;point Hessian computation.">
<polygon fill="white" stroke="black" points="760.282,-288 760.282,-320 913.718,-320 913.718,-288 760.282,-288"/>
<text text-anchor="start" x="768.282" y="-307" font-family="Ubuntu-R" font-size="10.00">forcebalance.optimizer.Optimizer.</text>
<text text-anchor="middle" x="837" y="-295" font-family="Ubuntu-R" font-size="10.00">Hessian</text>
</a>
</g>
</g>
<!-- Node23&#45;&gt;Node24 -->
<g id="edge30" class="edge"><title>Node23&#45;&gt;Node24</title>
<path fill="none" stroke="midnightblue" d="M534.039,-304C596.455,-304 684.832,-304 749.855,-304"/>
<polygon fill="midnightblue" stroke="midnightblue" points="750.082,-307.5 760.082,-304 750.082,-300.5 750.082,-307.5"/>
</g>
<!-- Node25 -->
<g id="node25" class="node"><title>Node25</title>
<g id="a_node25"><a xlink:href="namespaceforcebalance_1_1finite__difference.html#a9be9f0d21300958092e380514e2e980d" target="_top" xlink:title="A highly accurate seven&#45;point finite difference stencil for computing derivatives of a function...">
<polygon fill="white" stroke="black" points="981.662,-237 981.662,-269 1072.34,-269 1072.34,-237 981.662,-237"/>
<text text-anchor="start" x="989.662" y="-256" font-family="Ubuntu-R" font-size="10.00">forcebalance.finite</text>
<text text-anchor="middle" x="1027" y="-244" font-family="Ubuntu-R" font-size="10.00">_difference.f1d7p</text>
</a>
</g>
</g>
<!-- Node24&#45;&gt;Node25 -->
<g id="edge31" class="edge"><title>Node24&#45;&gt;Node25</title>
<path fill="none" stroke="midnightblue" d="M897.226,-287.933C921.053,-281.47 948.349,-274.065 971.661,-267.741"/>
<polygon fill="midnightblue" stroke="midnightblue" points="972.651,-271.099 981.386,-265.103 970.818,-264.343 972.651,-271.099"/>
</g>
<!-- Node29 -->
<g id="node29" class="node"><title>Node29</title>
<g id="a_node29"><a xlink:href="namespaceforcebalance_1_1finite__difference.html#ae484c591ae8c4e5bae73a0ef2660c339" target="_top" xlink:title="A function wrapper for finite difference designed for differentiating &#39;get&#39;&#45;type functions.">
<polygon fill="white" stroke="black" points="1541.83,-244 1541.83,-276 1634.17,-276 1634.17,-244 1541.83,-244"/>
<text text-anchor="start" x="1549.83" y="-263" font-family="Ubuntu-R" font-size="10.00">forcebalance.finite</text>
<text text-anchor="middle" x="1588" y="-251" font-family="Ubuntu-R" font-size="10.00">_difference.fdwrap</text>
</a>
</g>
</g>
<!-- Node24&#45;&gt;Node29 -->
<g id="edge39" class="edge"><title>Node24&#45;&gt;Node29</title>
<path fill="none" stroke="midnightblue" d="M914.048,-304.715C1036.58,-305.03 1285.11,-302.213 1494,-278 1506.25,-276.58 1519.31,-274.447 1531.64,-272.141"/>
<polygon fill="midnightblue" stroke="midnightblue" points="1532.65,-275.511 1541.8,-270.174 1531.32,-268.638 1532.65,-275.511"/>
</g>
<!-- Node32 -->
<g id="node32" class="node"><title>Node32</title>
<g id="a_node32"><a xlink:href="classforcebalance_1_1optimizer_1_1Optimizer.html#adb86c1f6580bb088a23563a6103986fe" target="_top" xlink:title="Finite&#45;difference checker for the objective function Hessian.">
<polygon fill="white" stroke="black" points="950.282,-327 950.282,-359 1103.72,-359 1103.72,-327 950.282,-327"/>
<text text-anchor="start" x="958.282" y="-346" font-family="Ubuntu-R" font-size="10.00">forcebalance.optimizer.Optimizer.</text>
<text text-anchor="middle" x="1027" y="-334" font-family="Ubuntu-R" font-size="10.00">FDCheckH</text>
</a>
</g>
</g>
<!-- Node24&#45;&gt;Node32 -->
<g id="edge40" class="edge"><title>Node24&#45;&gt;Node32</title>
<path fill="none" stroke="midnightblue" d="M913.925,-319.75C922.588,-321.547 931.464,-323.389 940.243,-325.21"/>
<polygon fill="midnightblue" stroke="midnightblue" points="939.595,-328.65 950.097,-327.254 941.017,-321.796 939.595,-328.65"/>
</g>
<!-- Node26 -->
<g id="node26" class="node"><title>Node26</title>
<g id="a_node26"><a xlink:href="namespaceforcebalance_1_1finite__difference.html#acc281f85b668062745f711d9b4a610fa" target="_top" xlink:title="forcebalance.finite\l_difference.f12d7p">
<polygon fill="white" stroke="black" points="1187.82,-237 1187.82,-269 1280.18,-269 1280.18,-237 1187.82,-237"/>
<text text-anchor="start" x="1195.82" y="-256" font-family="Ubuntu-R" font-size="10.00">forcebalance.finite</text>
<text text-anchor="middle" x="1234" y="-244" font-family="Ubuntu-R" font-size="10.00">_difference.f12d7p</text>
</a>
</g>
</g>
<!-- Node25&#45;&gt;Node26 -->
<g id="edge32" class="edge"><title>Node25&#45;&gt;Node26</title>
<path fill="none" stroke="midnightblue" d="M1072.48,-253C1103.19,-253 1144.26,-253 1177.17,-253"/>
<polygon fill="midnightblue" stroke="midnightblue" points="1177.54,-256.5 1187.54,-253 1177.54,-249.5 1177.54,-256.5"/>
</g>
<!-- Node27 -->
<g id="node27" class="node"><title>Node27</title>
<g id="a_node27"><a xlink:href="namespaceforcebalance_1_1finite__difference.html#aa69a8819e4680091f400303c1d6ddeb7" target="_top" xlink:title="A three&#45;point finite difference stencil.">
<polygon fill="white" stroke="black" points="1382.82,-237 1382.82,-269 1475.18,-269 1475.18,-237 1382.82,-237"/>
<text text-anchor="start" x="1390.82" y="-256" font-family="Ubuntu-R" font-size="10.00">forcebalance.finite</text>
<text text-anchor="middle" x="1429" y="-244" font-family="Ubuntu-R" font-size="10.00">_difference.f12d3p</text>
</a>
</g>
</g>
<!-- Node26&#45;&gt;Node27 -->
<g id="edge33" class="edge"><title>Node26&#45;&gt;Node27</title>
<path fill="none" stroke="midnightblue" d="M1280.25,-253C1307.86,-253 1343.35,-253 1372.63,-253"/>
<polygon fill="midnightblue" stroke="midnightblue" points="1372.7,-256.5 1382.7,-253 1372.7,-249.5 1372.7,-256.5"/>
</g>
<!-- Node28 -->
<g id="node28" class="node"><title>Node28</title>
<g id="a_node28"><a xlink:href="namespaceforcebalance_1_1finite__difference.html#ad84d3e385db1190e7d8ef58bc08a6c52" target="_top" xlink:title="Invoking this function from anywhere will tell us whether we&#39;re being called by a finite&#45;difference f...">
<polygon fill="white" stroke="black" points="1542.66,-193 1542.66,-225 1633.34,-225 1633.34,-193 1542.66,-193"/>
<text text-anchor="start" x="1550.66" y="-212" font-family="Ubuntu-R" font-size="10.00">forcebalance.finite</text>
<text text-anchor="middle" x="1588" y="-200" font-family="Ubuntu-R" font-size="10.00">_difference.in_fd</text>
</a>
</g>
</g>
<!-- Node27&#45;&gt;Node28 -->
<g id="edge34" class="edge"><title>Node27&#45;&gt;Node28</title>
<path fill="none" stroke="midnightblue" d="M1475.41,-240.273C1493.3,-235.261 1513.99,-229.462 1532.66,-224.229"/>
<polygon fill="midnightblue" stroke="midnightblue" points="1533.82,-227.539 1542.5,-221.47 1531.93,-220.799 1533.82,-227.539"/>
</g>
<!-- Node27&#45;&gt;Node29 -->
<g id="edge35" class="edge"><title>Node27&#45;&gt;Node29</title>
<path fill="none" stroke="midnightblue" d="M1475.41,-255.025C1492.99,-255.808 1513.27,-256.713 1531.68,-257.534"/>
<polygon fill="midnightblue" stroke="midnightblue" points="1531.55,-261.031 1541.69,-257.98 1531.86,-254.038 1531.55,-261.031"/>
</g>
<!-- Node30 -->
<g id="node30" class="node"><title>Node30</title>
<g id="a_node30"><a xlink:href="namespaceforcebalance_1_1finite__difference.html#a00322fb65860c390616f74d05037c797" target="_top" xlink:title="A driver to fdwrap for gradients (see documentation for fdwrap) Inputs: tgt = The Target containing t...">
<polygon fill="white" stroke="black" points="1695.72,-244 1695.72,-276 1800.28,-276 1800.28,-244 1695.72,-244"/>
<text text-anchor="start" x="1703.72" y="-263" font-family="Ubuntu-R" font-size="10.00">forcebalance.finite</text>
<text text-anchor="middle" x="1748" y="-251" font-family="Ubuntu-R" font-size="10.00">_difference.fdwrap_G</text>
</a>
</g>
</g>
<!-- Node29&#45;&gt;Node30 -->
<g id="edge36" class="edge"><title>Node29&#45;&gt;Node30</title>
<path fill="none" stroke="midnightblue" d="M1634.28,-253.829C1650.13,-253.25 1668.23,-253.105 1685.2,-253.394"/>
<polygon fill="midnightblue" stroke="midnightblue" points="1685.52,-256.902 1695.6,-253.63 1685.68,-249.904 1685.52,-256.902"/>
</g>
<!-- Node31 -->
<g id="node31" class="node"><title>Node31</title>
<g id="a_node31"><a xlink:href="namespaceforcebalance_1_1finite__difference.html#a77a0bc1ae3cbbcc8d38a0ef9ca877d6d" target="_top" xlink:title="A driver to fdwrap for Hessians (see documentation for fdwrap) Inputs: tgt = The Target containing th...">
<polygon fill="white" stroke="black" points="1695.72,-193 1695.72,-225 1800.28,-225 1800.28,-193 1695.72,-193"/>
<text text-anchor="start" x="1703.72" y="-212" font-family="Ubuntu-R" font-size="10.00">forcebalance.finite</text>
<text text-anchor="middle" x="1748" y="-200" font-family="Ubuntu-R" font-size="10.00">_difference.fdwrap_H</text>
</a>
</g>
</g>
<!-- Node29&#45;&gt;Node31 -->
<g id="edge38" class="edge"><title>Node29&#45;&gt;Node31</title>
<path fill="none" stroke="midnightblue" d="M1634.28,-245.385C1650.9,-240.021 1669.97,-233.865 1687.64,-228.161"/>
<polygon fill="midnightblue" stroke="midnightblue" points="1688.84,-231.45 1697.29,-225.047 1686.69,-224.788 1688.84,-231.45"/>
</g>
<!-- Node30&#45;&gt;Node29 -->
<g id="edge37" class="edge"><title>Node30&#45;&gt;Node29</title>
<path fill="none" stroke="midnightblue" d="M1695.6,-266.37C1679.23,-266.839 1661.05,-266.874 1644.41,-266.475"/>
<polygon fill="midnightblue" stroke="midnightblue" points="1644.38,-262.973 1634.28,-266.171 1644.17,-269.969 1644.38,-262.973"/>
</g>
<!-- Node33 -->
<g id="node33" class="node"><title>Node33</title>
<g id="a_node33"><a xlink:href="classforcebalance_1_1optimizer_1_1Optimizer.html#a05ee5fe985b3e2ec71071ca061e42d66" target="_top" xlink:title="Read the checkpoint file for the main optimizer.">
<polygon fill="white" stroke="black" points="1141.46,-369 1141.46,-389 1326.54,-389 1326.54,-369 1141.46,-369"/>
<text text-anchor="middle" x="1234" y="-376" font-family="Ubuntu-R" font-size="10.00">forcebalance.optimizer.Optimizer.readchk</text>
</a>
</g>
</g>
<!-- Node32&#45;&gt;Node33 -->
<g id="edge41" class="edge"><title>Node32&#45;&gt;Node33</title>
<path fill="none" stroke="midnightblue" d="M1103.75,-356.303C1124.14,-359.884 1146.06,-363.732 1165.94,-367.223"/>
<polygon fill="midnightblue" stroke="midnightblue" points="1165.37,-370.677 1175.82,-368.959 1166.58,-363.783 1165.37,-370.677"/>
</g>
<!-- Node34 -->
<g id="node34" class="node"><title>Node34</title>
<g id="a_node34"><a xlink:href="classforcebalance_1_1optimizer_1_1Optimizer.html#aa7ac7cda43b70ac58ccbd6c8445e88ef" target="_top" xlink:title="Write the checkpoint file for the main optimizer.">
<polygon fill="white" stroke="black" points="1139.79,-330 1139.79,-350 1328.21,-350 1328.21,-330 1139.79,-330"/>
<text text-anchor="middle" x="1234" y="-337" font-family="Ubuntu-R" font-size="10.00">forcebalance.optimizer.Optimizer.writechk</text>
</a>
</g>
</g>
<!-- Node32&#45;&gt;Node34 -->
<g id="edge42" class="edge"><title>Node32&#45;&gt;Node34</title>
<path fill="none" stroke="midnightblue" d="M1103.75,-341.891C1112.11,-341.769 1120.73,-341.643 1129.36,-341.517"/>
<polygon fill="midnightblue" stroke="midnightblue" points="1129.53,-345.015 1139.48,-341.369 1129.43,-338.015 1129.53,-345.015"/>
</g>
<!-- Node37 -->
<g id="node37" class="node"><title>Node37</title>
<g id="a_node37"><a xlink:href="classforcebalance_1_1optimizer_1_1Optimizer.html#aacf96d137fb0e491af7e380c8bd61eb9" target="_top" xlink:title="Finite&#45;difference checker for the objective function gradient.">
<polygon fill="white" stroke="black" points="570.282,-192 570.282,-224 723.718,-224 723.718,-192 570.282,-192"/>
<text text-anchor="start" x="578.282" y="-211" font-family="Ubuntu-R" font-size="10.00">forcebalance.optimizer.Optimizer.</text>
<text text-anchor="middle" x="647" y="-199" font-family="Ubuntu-R" font-size="10.00">FDCheckG</text>
</a>
</g>
</g>
<!-- Node36&#45;&gt;Node37 -->
<g id="edge46" class="edge"><title>Node36&#45;&gt;Node37</title>
<path fill="none" stroke="midnightblue" d="M533.925,-204.423C542.495,-204.697 551.273,-204.977 559.96,-205.254"/>
<polygon fill="midnightblue" stroke="midnightblue" points="559.991,-208.757 570.097,-205.578 560.214,-201.76 559.991,-208.757"/>
</g>
<!-- Node37&#45;&gt;Node4 -->
<g id="edge47" class="edge"><title>Node37&#45;&gt;Node4</title>
<path fill="none" stroke="midnightblue" d="M695.44,-191.85C726.811,-181.171 767.438,-167.34 796.94,-157.297"/>
<polygon fill="midnightblue" stroke="midnightblue" points="798.151,-160.582 806.489,-154.046 795.895,-153.956 798.151,-160.582"/>
</g>
<!-- Node37&#45;&gt;Node29 -->
<g id="edge50" class="edge"><title>Node37&#45;&gt;Node29</title>
<path fill="none" stroke="midnightblue" d="M724.021,-208C800.352,-208 921.328,-208 1026,-208 1026,-208 1026,-208 1235,-208 1350.42,-208 1381.05,-203.267 1494,-227 1509.12,-230.177 1525.13,-235.211 1539.53,-240.4"/>
<polygon fill="midnightblue" stroke="midnightblue" points="1538.61,-243.793 1549.2,-243.996 1541.05,-237.232 1538.61,-243.793"/>
</g>
<!-- Node38 -->
<g id="node38" class="node"><title>Node38</title>
<g id="a_node38"><a xlink:href="namespaceforcebalance_1_1finite__difference.html#a123c5d5dea0f3f50ab57796bb3bc39be" target="_top" xlink:title="A highly accurate five&#45;point finite difference stencil for computing derivatives of a function...">
<polygon fill="white" stroke="black" points="791.662,-237 791.662,-269 882.338,-269 882.338,-237 791.662,-237"/>
<text text-anchor="start" x="799.662" y="-256" font-family="Ubuntu-R" font-size="10.00">forcebalance.finite</text>
<text text-anchor="middle" x="837" y="-244" font-family="Ubuntu-R" font-size="10.00">_difference.f1d5p</text>
</a>
</g>
</g>
<!-- Node37&#45;&gt;Node38 -->
<g id="edge48" class="edge"><title>Node37&#45;&gt;Node38</title>
<path fill="none" stroke="midnightblue" d="M715.076,-224.055C736.916,-229.283 760.874,-235.018 781.662,-239.994"/>
<polygon fill="midnightblue" stroke="midnightblue" points="781.049,-243.446 791.589,-242.37 782.679,-236.638 781.049,-243.446"/>
</g>
<!-- Node38&#45;&gt;Node25 -->
<g id="edge49" class="edge"><title>Node38&#45;&gt;Node25</title>
<path fill="none" stroke="midnightblue" d="M882.553,-253C909.148,-253 943.123,-253 971.333,-253"/>
<polygon fill="midnightblue" stroke="midnightblue" points="971.441,-256.5 981.441,-253 971.441,-249.5 971.441,-256.5"/>
</g>
<!-- Node39&#45;&gt;Node4 -->
<g id="edge52" class="edge"><title>Node39&#45;&gt;Node4</title>
<path fill="none" stroke="midnightblue" d="M723.925,-151.75C736.871,-150.855 750.293,-149.927 763.157,-149.037"/>
<polygon fill="midnightblue" stroke="midnightblue" points="763.6,-152.515 773.334,-148.333 763.117,-145.532 763.6,-152.515"/>
</g>
</g>
</svg>
