<?xml version="1.0" encoding="UTF-8" standalone="no"?>
<!DOCTYPE svg PUBLIC "-//W3C//DTD SVG 1.1//EN"
 "http://www.w3.org/Graphics/SVG/1.1/DTD/svg11.dtd">
<!-- Generated by graphviz version 2.28.0 (20111219.2309)
 -->
<!-- Title: G Pages: 1 -->
<svg width="1374pt" height="66pt"
 viewBox="0.00 0.00 1374.00 66.00" xmlns="http://www.w3.org/2000/svg" xmlns:xlink="http://www.w3.org/1999/xlink">
<g id="graph1" class="graph" transform="scale(1 1) rotate(0) translate(4 62)">
<title>G</title>
<polygon fill="white" stroke="white" points="-4,5 -4,-62 1371,-62 1371,5 -4,5"/>
<!-- Node1 -->
<g id="node1" class="node"><title>Node1</title>
<polygon fill="#bfbfbf" stroke="black" points="0.5,-19.5 0.5,-38.5 219.5,-38.5 219.5,-19.5 0.5,-19.5"/>
<text text-anchor="middle" x="110" y="-26.5" font-family="Ubuntu-R" font-size="10.00">forcebalance.amberio.FrcMod_Reader.Split</text>
</g>
<!-- Node2 -->
<g id="node3" class="node"><title>Node2</title>
<a xlink:href="classforcebalance_1_1amberio_1_1FrcMod__Reader.html#a684b946f7faca6589c8ed49e77e31f73" target="_top" xlink:title="forcebalance.amberio.FrcMod_Reader.Whites">
<polygon fill="white" stroke="black" points="256,-19.5 256,-38.5 486,-38.5 486,-19.5 256,-19.5"/>
<text text-anchor="middle" x="371" y="-26.5" font-family="Ubuntu-R" font-size="10.00">forcebalance.amberio.FrcMod_Reader.Whites</text>
</a>
</g>
<!-- Node1&#45;&gt;Node2 -->
<g id="edge2" class="edge"><title>Node1&#45;&gt;Node2</title>
<path fill="none" stroke="midnightblue" d="M219.714,-22.3279C228.271,-22.2633 236.952,-22.2389 245.603,-22.2547"/>
<polygon fill="midnightblue" stroke="midnightblue" points="245.722,-25.755 255.735,-22.2917 245.748,-18.7551 245.722,-25.755"/>
</g>
<!-- Node2&#45;&gt;Node1 -->
<g id="edge14" class="edge"><title>Node2&#45;&gt;Node1</title>
<path fill="none" stroke="midnightblue" d="M255.735,-35.7083C247.131,-35.7556 238.437,-35.7627 229.807,-35.7295"/>
<polygon fill="midnightblue" stroke="midnightblue" points="229.733,-32.2291 219.714,-35.6721 229.693,-39.229 229.733,-32.2291"/>
</g>
<!-- Node3 -->
<g id="node5" class="node"><title>Node3</title>
<a xlink:href="classforcebalance_1_1amberio_1_1FrcMod__Reader.html#a689bb40a107f763472b15175be6f0f12" target="_top" xlink:title="forcebalance.amberio.FrcMod_Reader.feed">
<polygon fill="white" stroke="black" points="522.5,-38.5 522.5,-57.5 741.5,-57.5 741.5,-38.5 522.5,-38.5"/>
<text text-anchor="middle" x="632" y="-45.5" font-family="Ubuntu-R" font-size="10.00">forcebalance.amberio.FrcMod_Reader.feed</text>
</a>
</g>
<!-- Node2&#45;&gt;Node3 -->
<g id="edge4" class="edge"><title>Node2&#45;&gt;Node3</title>
<path fill="none" stroke="midnightblue" d="M486.355,-37.389C494.926,-38.0178 503.587,-38.6531 512.185,-39.2838"/>
<polygon fill="midnightblue" stroke="midnightblue" points="512.01,-42.7803 522.24,-40.0214 512.522,-35.7991 512.01,-42.7803"/>
</g>
<!-- Node4 -->
<g id="node7" class="node"><title>Node4</title>
<a xlink:href="classforcebalance_1_1BaseReader.html#acded199bbc003eb93d071a972ef38901" target="_top" xlink:title="forcebalance.BaseReader.Split">
<polygon fill="white" stroke="black" points="551.5,-0.5 551.5,-19.5 712.5,-19.5 712.5,-0.5 551.5,-0.5"/>
<text text-anchor="middle" x="632" y="-7.5" font-family="Ubuntu-R" font-size="10.00">forcebalance.BaseReader.Split</text>
</a>
</g>
<!-- Node2&#45;&gt;Node4 -->
<g id="edge6" class="edge"><title>Node2&#45;&gt;Node4</title>
<path fill="none" stroke="midnightblue" d="M486.355,-20.611C504.706,-19.2648 523.469,-17.8884 541.142,-16.5919"/>
<polygon fill="midnightblue" stroke="midnightblue" points="541.693,-20.061 551.41,-15.8387 541.181,-13.0797 541.693,-20.061"/>
</g>
<!-- Node5 -->
<g id="node9" class="node"><title>Node5</title>
<a xlink:href="classforcebalance_1_1BaseReader.html#af2af8a559625614474a1c6fe245b5e13" target="_top" xlink:title="forcebalance.BaseReader.Whites">
<polygon fill="white" stroke="black" points="778,-0.5 778,-19.5 950,-19.5 950,-0.5 778,-0.5"/>
<text text-anchor="middle" x="864" y="-7.5" font-family="Ubuntu-R" font-size="10.00">forcebalance.BaseReader.Whites</text>
</a>
</g>
<!-- Node4&#45;&gt;Node5 -->
<g id="edge8" class="edge"><title>Node4&#45;&gt;Node5</title>
<path fill="none" stroke="midnightblue" d="M712.797,-10C730.532,-10 749.503,-10 767.785,-10"/>
<polygon fill="midnightblue" stroke="midnightblue" points="767.859,-13.5001 777.859,-10 767.859,-6.5001 767.859,-13.5001"/>
</g>
<!-- Node6 -->
<g id="node11" class="node"><title>Node6</title>
<a xlink:href="classforcebalance_1_1BaseReader.html#a3c46942ef8cc25ece21d52be5b7ba05f" target="_top" xlink:title="forcebalance.BaseReader.feed">
<polygon fill="white" stroke="black" points="986.5,-0.5 986.5,-19.5 1147.5,-19.5 1147.5,-0.5 986.5,-0.5"/>
<text text-anchor="middle" x="1067" y="-7.5" font-family="Ubuntu-R" font-size="10.00">forcebalance.BaseReader.feed</text>
</a>
</g>
<!-- Node5&#45;&gt;Node6 -->
<g id="edge10" class="edge"><title>Node5&#45;&gt;Node6</title>
<path fill="none" stroke="midnightblue" d="M950.242,-10C958.855,-10 967.622,-10 976.28,-10"/>
<polygon fill="midnightblue" stroke="midnightblue" points="976.379,-13.5001 986.379,-10 976.379,-6.5001 976.379,-13.5001"/>
</g>
<!-- Node7 -->
<g id="node13" class="node"><title>Node7</title>
<a xlink:href="classforcebalance_1_1BaseReader.html#aab2c64ccf0f803d4eff3bbf40a6cb0b7" target="_top" xlink:title="Returns the parameter type (e.g.">
<polygon fill="white" stroke="black" points="1184,-0.5 1184,-19.5 1366,-19.5 1366,-0.5 1184,-0.5"/>
<text text-anchor="middle" x="1275" y="-7.5" font-family="Ubuntu-R" font-size="10.00">forcebalance.BaseReader.build_pid</text>
</a>
</g>
<!-- Node6&#45;&gt;Node7 -->
<g id="edge12" class="edge"><title>Node6&#45;&gt;Node7</title>
<path fill="none" stroke="midnightblue" d="M1147.64,-10C1156.19,-10 1164.96,-10 1173.71,-10"/>
<polygon fill="midnightblue" stroke="midnightblue" points="1173.94,-13.5001 1183.94,-10 1173.94,-6.5001 1173.94,-13.5001"/>
</g>
</g>
</svg>
