<?xml version="1.0" encoding="UTF-8" standalone="no"?>
<!DOCTYPE svg PUBLIC "-//W3C//DTD SVG 1.1//EN"
 "http://www.w3.org/Graphics/SVG/1.1/DTD/svg11.dtd">
<!-- Generated by graphviz version 2.32.0 (20130801.1845)
 -->
<!-- Title: forcebalance.objective.Penalty.compute Pages: 1 -->
<svg width="1458pt" height="115pt"
 viewBox="0.00 0.00 1458.00 115.16" xmlns="http://www.w3.org/2000/svg" xmlns:xlink="http://www.w3.org/1999/xlink">
<g id="graph0" class="graph" transform="scale(1 1) rotate(0) translate(4 111.163)">
<title>forcebalance.objective.Penalty.compute</title>
<polygon fill="white" stroke="white" points="-4,5 -4,-111.163 1455,-111.163 1455,5 -4,5"/>
<!-- Node1 -->
<g id="node1" class="node"><title>Node1</title>
<polygon fill="#bfbfbf" stroke="black" points="0.172,-30.3496 0.172,-50.3496 175.828,-50.3496 175.828,-30.3496 0.172,-30.3496"/>
<text text-anchor="middle" x="88" y="-37.3496" font-family="Ubuntu-R" font-size="10.00">forcebalance.objective.Penalty.compute</text>
</g>
<!-- Node2 -->
<g id="node2" class="node"><title>Node2</title>
<g id="a_node2"><a xlink:href="classforcebalance_1_1objective_1_1Penalty.html#ab59d5beafbab0918b7c3e0c61ece41a3" target="_top" xlink:title="Harmonic L2&#45;norm constraints.">
<polygon fill="white" stroke="black" points="212.39,-24.3496 212.39,-56.3496 353.61,-56.3496 353.61,-24.3496 212.39,-24.3496"/>
<text text-anchor="start" x="220.39" y="-43.3496" font-family="Ubuntu-R" font-size="10.00">forcebalance.objective.Penalty.</text>
<text text-anchor="middle" x="283" y="-31.3496" font-family="Ubuntu-R" font-size="10.00">L2_norm</text>
</a>
</g>
</g>
<!-- Node1&#45;&gt;Node2 -->
<g id="edge1" class="edge"><title>Node1&#45;&gt;Node2</title>
<path fill="none" stroke="midnightblue" d="M175.902,-40.3496C184.675,-40.3496 193.556,-40.3496 202.249,-40.3496"/>
<polygon fill="midnightblue" stroke="midnightblue" points="202.35,-43.8497 212.35,-40.3496 202.35,-36.8497 202.35,-43.8497"/>
</g>
<!-- Node3 -->
<g id="node3" class="node"><title>Node3</title>
<g id="a_node3"><a xlink:href="classforcebalance_1_1objective_1_1Penalty.html#a1f3fa55d1c27db3eca0af41bb57c04ef" target="_top" xlink:title="Hyperbolic constraints.">
<polygon fill="white" stroke="black" points="390.392,-30.3496 390.392,-50.3496 551.609,-50.3496 551.609,-30.3496 390.392,-30.3496"/>
<text text-anchor="middle" x="471" y="-37.3496" font-family="Ubuntu-R" font-size="10.00">forcebalance.objective.Penalty.HYP</text>
</a>
</g>
</g>
<!-- Node2&#45;&gt;Node3 -->
<g id="edge2" class="edge"><title>Node2&#45;&gt;Node3</title>
<path fill="none" stroke="midnightblue" d="M353.789,-40.3496C362.309,-40.3496 371.107,-40.3496 379.871,-40.3496"/>
<polygon fill="midnightblue" stroke="midnightblue" points="380.125,-43.8497 390.125,-40.3496 380.125,-36.8497 380.125,-43.8497"/>
</g>
<!-- Node4 -->
<g id="node4" class="node"><title>Node4</title>
<g id="a_node4"><a xlink:href="classforcebalance_1_1objective_1_1Penalty.html#aafc1810e03e4e3f2ca1569588a8189d4" target="_top" xlink:title="forcebalance.objective.Penalty.FUSE">
<polygon fill="white" stroke="black" points="588.167,-62.3496 588.167,-82.3496 753.833,-82.3496 753.833,-62.3496 588.167,-62.3496"/>
<text text-anchor="middle" x="671" y="-69.3496" font-family="Ubuntu-R" font-size="10.00">forcebalance.objective.Penalty.FUSE</text>
</a>
</g>
</g>
<!-- Node3&#45;&gt;Node4 -->
<g id="edge3" class="edge"><title>Node3&#45;&gt;Node4</title>
<path fill="none" stroke="midnightblue" d="M534.105,-50.3868C554.378,-53.6631 577.059,-57.3287 597.995,-60.7125"/>
<polygon fill="midnightblue" stroke="midnightblue" points="597.685,-64.2076 608.115,-62.348 598.802,-57.2973 597.685,-64.2076"/>
</g>
<!-- Node5 -->
<g id="node5" class="node"><title>Node5</title>
<g id="a_node5"><a xlink:href="namespaceforcebalance_1_1nifty.html#abb8f59044961a12588e0653c2baa8b01" target="_top" xlink:title="forcebalance.nifty.warn\l_press_key">
<polygon fill="white" stroke="black" points="1146.53,-59.3496 1146.53,-91.3496 1257.47,-91.3496 1257.47,-59.3496 1146.53,-59.3496"/>
<text text-anchor="start" x="1154.53" y="-78.3496" font-family="Ubuntu-R" font-size="10.00">forcebalance.nifty.warn</text>
<text text-anchor="middle" x="1202" y="-66.3496" font-family="Ubuntu-R" font-size="10.00">_press_key</text>
</a>
</g>
</g>
<!-- Node3&#45;&gt;Node5 -->
<g id="edge10" class="edge"><title>Node3&#45;&gt;Node5</title>
<path fill="none" stroke="midnightblue" d="M523.866,-30.3124C633.87,-10.9636 897.877,25.166 1110,-27.3496 1130.92,-32.5287 1152.33,-43.4884 1169.13,-53.6293"/>
<polygon fill="midnightblue" stroke="midnightblue" points="1167.62,-56.8108 1177.95,-59.1369 1171.32,-50.8727 1167.62,-56.8108"/>
</g>
<!-- Node4&#45;&gt;Node5 -->
<g id="edge4" class="edge"><title>Node4&#45;&gt;Node5</title>
<path fill="none" stroke="midnightblue" d="M709.412,-82.3657C732.457,-88.0117 762.717,-94.4911 790,-97.3496 931.459,-112.17 968.609,-108.805 1110,-93.3496 1118.61,-92.4087 1127.61,-91.0691 1136.47,-89.5397"/>
<polygon fill="midnightblue" stroke="midnightblue" points="1137.16,-92.9713 1146.38,-87.7435 1135.91,-86.0836 1137.16,-92.9713"/>
</g>
<!-- Node7 -->
<g id="node7" class="node"><title>Node7</title>
<g id="a_node7"><a xlink:href="classforcebalance_1_1objective_1_1Penalty.html#a9badc0a78d23016aa3dcc2d610e2e16c" target="_top" xlink:title="forcebalance.objective.Penalty.\lFUSE_BARRIER">
<polygon fill="white" stroke="black" points="790.39,-56.3496 790.39,-88.3496 931.61,-88.3496 931.61,-56.3496 790.39,-56.3496"/>
<text text-anchor="start" x="798.39" y="-75.3496" font-family="Ubuntu-R" font-size="10.00">forcebalance.objective.Penalty.</text>
<text text-anchor="middle" x="861" y="-63.3496" font-family="Ubuntu-R" font-size="10.00">FUSE_BARRIER</text>
</a>
</g>
</g>
<!-- Node4&#45;&gt;Node7 -->
<g id="edge6" class="edge"><title>Node4&#45;&gt;Node7</title>
<path fill="none" stroke="midnightblue" d="M753.913,-72.3496C762.589,-72.3496 771.406,-72.3496 780.059,-72.3496"/>
<polygon fill="midnightblue" stroke="midnightblue" points="780.125,-75.8497 790.125,-72.3496 780.125,-68.8497 780.125,-75.8497"/>
</g>
<!-- Node6 -->
<g id="node6" class="node"><title>Node6</title>
<g id="a_node6"><a xlink:href="namespaceforcebalance_1_1nifty.html#a2fc81730e7efa7d138dd86f733507bfc" target="_top" xlink:title="Similar to the bultin function map().">
<polygon fill="white" stroke="black" points="1294.04,-65.3496 1294.04,-85.3496 1449.96,-85.3496 1449.96,-65.3496 1294.04,-65.3496"/>
<text text-anchor="middle" x="1372" y="-72.3496" font-family="Ubuntu-R" font-size="10.00">forcebalance.nifty.concurrent_map</text>
</a>
</g>
</g>
<!-- Node5&#45;&gt;Node6 -->
<g id="edge5" class="edge"><title>Node5&#45;&gt;Node6</title>
<path fill="none" stroke="midnightblue" d="M1257.54,-75.3496C1265.97,-75.3496 1274.84,-75.3496 1283.77,-75.3496"/>
<polygon fill="midnightblue" stroke="midnightblue" points="1283.84,-78.8497 1293.84,-75.3496 1283.84,-71.8497 1283.84,-78.8497"/>
</g>
<!-- Node7&#45;&gt;Node5 -->
<g id="edge7" class="edge"><title>Node7&#45;&gt;Node5</title>
<path fill="none" stroke="midnightblue" d="M931.823,-76.864C943.883,-77.4828 956.3,-78.0187 968,-78.3496 1031.09,-80.1336 1046.9,-79.3895 1110,-78.3496 1118.41,-78.2111 1127.25,-78.0006 1135.98,-77.7541"/>
<polygon fill="midnightblue" stroke="midnightblue" points="1136.26,-81.2474 1146.15,-77.4503 1136.05,-74.2505 1136.26,-81.2474"/>
</g>
<!-- Node8 -->
<g id="node8" class="node"><title>Node8</title>
<g id="a_node8"><a xlink:href="classforcebalance_1_1objective_1_1Penalty.html#ab54cfe22065a5aa22766e16cc8cb90aa" target="_top" xlink:title="forcebalance.objective.Penalty.\lFUSE_L0">
<polygon fill="white" stroke="black" points="968.39,-37.3496 968.39,-69.3496 1109.61,-69.3496 1109.61,-37.3496 968.39,-37.3496"/>
<text text-anchor="start" x="976.39" y="-56.3496" font-family="Ubuntu-R" font-size="10.00">forcebalance.objective.Penalty.</text>
<text text-anchor="middle" x="1039" y="-44.3496" font-family="Ubuntu-R" font-size="10.00">FUSE_L0</text>
</a>
</g>
</g>
<!-- Node7&#45;&gt;Node8 -->
<g id="edge8" class="edge"><title>Node7&#45;&gt;Node8</title>
<path fill="none" stroke="midnightblue" d="M931.813,-64.813C940.435,-63.8822 949.301,-62.925 958.06,-61.9795"/>
<polygon fill="midnightblue" stroke="midnightblue" points="958.705,-65.4302 968.272,-60.8771 957.954,-58.4707 958.705,-65.4302"/>
</g>
<!-- Node8&#45;&gt;Node5 -->
<g id="edge9" class="edge"><title>Node8&#45;&gt;Node5</title>
<path fill="none" stroke="midnightblue" d="M1109.68,-62.8712C1118.48,-64.0731 1127.45,-65.299 1136.16,-66.4901"/>
<polygon fill="midnightblue" stroke="midnightblue" points="1135.87,-69.9826 1146.25,-67.8688 1136.82,-63.047 1135.87,-69.9826"/>
</g>
</g>
</svg>
