<?xml version="1.0" encoding="UTF-8" standalone="no"?>
<!DOCTYPE svg PUBLIC "-//W3C//DTD SVG 1.1//EN"
 "http://www.w3.org/Graphics/SVG/1.1/DTD/svg11.dtd">
<!-- Generated by graphviz version 2.28.0 (20111219.2309)
 -->
<!-- Title: forcebalance.objective.Penalty.L2_norm Pages: 1 -->
<svg width="1396pt" height="114pt"
 viewBox="0.00 0.00 1396.00 114.43" xmlns="http://www.w3.org/2000/svg" xmlns:xlink="http://www.w3.org/1999/xlink">
<g id="graph1" class="graph" transform="scale(1 1) rotate(0) translate(4 110.426)">
<title>forcebalance.objective.Penalty.L2_norm</title>
<polygon fill="white" stroke="white" points="-4,5 -4,-110.426 1393,-110.426 1393,5 -4,5"/>
<!-- Node1 -->
<g id="node1" class="node"><title>Node1</title>
<polygon fill="#bfbfbf" stroke="black" points="0,-25.6335 0,-55.6335 164,-55.6335 164,-25.6335 0,-25.6335"/>
<text text-anchor="start" x="8" y="-43.6335" font-family="Ubuntu-R" font-size="10.00">forcebalance.objective.Penalty.</text>
<text text-anchor="middle" x="82" y="-32.6335" font-family="Ubuntu-R" font-size="10.00">L2_norm</text>
</g>
<!-- Node2 -->
<g id="node3" class="node"><title>Node2</title>
<a xlink:href="classforcebalance_1_1objective_1_1Penalty.html#a1f3fa55d1c27db3eca0af41bb57c04ef" target="_top" xlink:title="Hyperbolic constraints. ">
<polygon fill="white" stroke="black" points="200,-31.1335 200,-50.1335 382,-50.1335 382,-31.1335 200,-31.1335"/>
<text text-anchor="middle" x="291" y="-38.1335" font-family="Ubuntu-R" font-size="10.00">forcebalance.objective.Penalty.HYP</text>
</a>
</g>
<!-- Node1&#45;&gt;Node2 -->
<g id="edge2" class="edge"><title>Node1&#45;&gt;Node2</title>
<path fill="none" stroke="midnightblue" d="M164.218,-40.6335C172.603,-40.6335 181.193,-40.6335 189.753,-40.6335"/>
<polygon fill="midnightblue" stroke="midnightblue" points="189.775,-44.1336 199.775,-40.6335 189.775,-37.1336 189.775,-44.1336"/>
</g>
<!-- Node3 -->
<g id="node5" class="node"><title>Node3</title>
<a xlink:href="classforcebalance_1_1objective_1_1Penalty.html#aafc1810e03e4e3f2ca1569588a8189d4" target="_top" xlink:title="forcebalance.objective.Penalty.FUSE">
<polygon fill="white" stroke="black" points="418.5,-63.1335 418.5,-82.1335 607.5,-82.1335 607.5,-63.1335 418.5,-63.1335"/>
<text text-anchor="middle" x="513" y="-70.1335" font-family="Ubuntu-R" font-size="10.00">forcebalance.objective.Penalty.FUSE</text>
</a>
</g>
<!-- Node2&#45;&gt;Node3 -->
<g id="edge4" class="edge"><title>Node2&#45;&gt;Node3</title>
<path fill="none" stroke="midnightblue" d="M357.412,-50.1479C382.235,-53.7586 410.705,-57.8997 436.393,-61.6361"/>
<polygon fill="midnightblue" stroke="midnightblue" points="436.061,-65.1246 446.461,-63.1005 437.068,-58.1975 436.061,-65.1246"/>
</g>
<!-- Node4 -->
<g id="node7" class="node"><title>Node4</title>
<a xlink:href="namespaceforcebalance_1_1nifty.html#abb8f59044961a12588e0653c2baa8b01" target="_top" xlink:title="forcebalance.nifty.warn\l_press_key">
<polygon fill="white" stroke="black" points="1044.5,-60.6335 1044.5,-90.6335 1169.5,-90.6335 1169.5,-60.6335 1044.5,-60.6335"/>
<text text-anchor="start" x="1052.5" y="-78.6335" font-family="Ubuntu-R" font-size="10.00">forcebalance.nifty.warn</text>
<text text-anchor="middle" x="1107" y="-67.6335" font-family="Ubuntu-R" font-size="10.00">_press_key</text>
</a>
</g>
<!-- Node2&#45;&gt;Node4 -->
<g id="edge18" class="edge"><title>Node2&#45;&gt;Node4</title>
<path fill="none" stroke="midnightblue" d="M345.893,-31.1014C466.416,-11.6456 766.15,26.3624 1008,-28.6335 1030.98,-33.8593 1054.86,-45.1734 1073.3,-55.3911"/>
<polygon fill="midnightblue" stroke="midnightblue" points="1071.73,-58.5233 1082.15,-60.4414 1075.2,-52.4441 1071.73,-58.5233"/>
</g>
<!-- Node3&#45;&gt;Node4 -->
<g id="edge6" class="edge"><title>Node3&#45;&gt;Node4</title>
<path fill="none" stroke="midnightblue" d="M555.009,-82.1895C580.465,-87.6251 613.945,-93.8825 644,-96.6335 805.114,-111.381 846.956,-108.122 1008,-92.6335 1016.55,-91.8108 1025.49,-90.6654 1034.33,-89.3539"/>
<polygon fill="midnightblue" stroke="midnightblue" points="1034.9,-92.8069 1044.24,-87.811 1033.82,-85.8902 1034.9,-92.8069"/>
</g>
<!-- Node6 -->
<g id="node11" class="node"><title>Node6</title>
<a xlink:href="classforcebalance_1_1objective_1_1Penalty.html#a9badc0a78d23016aa3dcc2d610e2e16c" target="_top" xlink:title="forcebalance.objective.Penalty.\lFUSE_BARRIER">
<polygon fill="white" stroke="black" points="644,-57.6335 644,-87.6335 808,-87.6335 808,-57.6335 644,-57.6335"/>
<text text-anchor="start" x="652" y="-75.6335" font-family="Ubuntu-R" font-size="10.00">forcebalance.objective.Penalty.</text>
<text text-anchor="middle" x="726" y="-64.6335" font-family="Ubuntu-R" font-size="10.00">FUSE_BARRIER</text>
</a>
</g>
<!-- Node3&#45;&gt;Node6 -->
<g id="edge10" class="edge"><title>Node3&#45;&gt;Node6</title>
<path fill="none" stroke="midnightblue" d="M607.776,-72.6335C616.399,-72.6335 625.128,-72.6335 633.728,-72.6335"/>
<polygon fill="midnightblue" stroke="midnightblue" points="633.751,-76.1336 643.751,-72.6335 633.751,-69.1336 633.751,-76.1336"/>
</g>
<!-- Node5 -->
<g id="node9" class="node"><title>Node5</title>
<a xlink:href="namespaceforcebalance_1_1nifty.html#a2fc81730e7efa7d138dd86f733507bfc" target="_top" xlink:title="Similar to the bultin function map(). ">
<polygon fill="white" stroke="black" points="1206,-66.1335 1206,-85.1335 1388,-85.1335 1388,-66.1335 1206,-66.1335"/>
<text text-anchor="middle" x="1297" y="-73.1335" font-family="Ubuntu-R" font-size="10.00">forcebalance.nifty.concurrent_map</text>
</a>
</g>
<!-- Node4&#45;&gt;Node5 -->
<g id="edge8" class="edge"><title>Node4&#45;&gt;Node5</title>
<path fill="none" stroke="midnightblue" d="M1169.56,-75.6335C1177.96,-75.6335 1186.76,-75.6335 1195.63,-75.6335"/>
<polygon fill="midnightblue" stroke="midnightblue" points="1195.67,-79.1336 1205.67,-75.6335 1195.67,-72.1336 1195.67,-79.1336"/>
</g>
<!-- Node6&#45;&gt;Node4 -->
<g id="edge12" class="edge"><title>Node6&#45;&gt;Node4</title>
<path fill="none" stroke="midnightblue" d="M808.179,-76.5517C820.187,-77.0009 832.414,-77.386 844,-77.6335 916.872,-79.1899 935.115,-78.3771 1008,-77.6335 1016.44,-77.5474 1025.29,-77.4196 1034.07,-77.2695"/>
<polygon fill="midnightblue" stroke="midnightblue" points="1034.38,-80.7645 1044.32,-77.0842 1034.25,-73.7656 1034.38,-80.7645"/>
</g>
<!-- Node7 -->
<g id="node14" class="node"><title>Node7</title>
<a xlink:href="classforcebalance_1_1objective_1_1Penalty.html#ab54cfe22065a5aa22766e16cc8cb90aa" target="_top" xlink:title="forcebalance.objective.Penalty.\lFUSE_L0">
<polygon fill="white" stroke="black" points="844,-38.6335 844,-68.6335 1008,-68.6335 1008,-38.6335 844,-38.6335"/>
<text text-anchor="start" x="852" y="-56.6335" font-family="Ubuntu-R" font-size="10.00">forcebalance.objective.Penalty.</text>
<text text-anchor="middle" x="926" y="-45.6335" font-family="Ubuntu-R" font-size="10.00">FUSE_L0</text>
</a>
</g>
<!-- Node6&#45;&gt;Node7 -->
<g id="edge14" class="edge"><title>Node6&#45;&gt;Node7</title>
<path fill="none" stroke="midnightblue" d="M808.105,-64.8507C816.549,-64.0404 825.172,-63.2129 833.719,-62.3928"/>
<polygon fill="midnightblue" stroke="midnightblue" points="834.08,-65.8743 843.7,-61.435 833.412,-58.9063 834.08,-65.8743"/>
</g>
<!-- Node7&#45;&gt;Node4 -->
<g id="edge16" class="edge"><title>Node7&#45;&gt;Node4</title>
<path fill="none" stroke="midnightblue" d="M1008.12,-63.6036C1016.9,-64.6822 1025.78,-65.7742 1034.43,-66.8375"/>
<polygon fill="midnightblue" stroke="midnightblue" points="1034.11,-70.3239 1044.46,-68.07 1034.96,-63.3762 1034.11,-70.3239"/>
</g>
</g>
</svg>
