<?xml version="1.0" encoding="UTF-8" standalone="no"?>
<!DOCTYPE svg PUBLIC "-//W3C//DTD SVG 1.1//EN"
 "http://www.w3.org/Graphics/SVG/1.1/DTD/svg11.dtd">
<!-- Generated by graphviz version 2.28.0 (20111219.2309)
 -->
<!-- Title: G Pages: 1 -->
<svg width="1022pt" height="28pt"
 viewBox="0.00 0.00 1022.00 28.00" xmlns="http://www.w3.org/2000/svg" xmlns:xlink="http://www.w3.org/1999/xlink">
<g id="graph1" class="graph" transform="scale(1 1) rotate(0) translate(4 24)">
<title>G</title>
<polygon fill="white" stroke="white" points="-4,5 -4,-24 1019,-24 1019,5 -4,5"/>
<!-- Node1 -->
<g id="node1" class="node"><title>Node1</title>
<polygon fill="#bfbfbf" stroke="black" points="0,-0.5 0,-19.5 218,-19.5 218,-0.5 0,-0.5"/>
<text text-anchor="middle" x="109" y="-7.5" font-family="Ubuntu-R" font-size="10.00">forcebalance.basereader.BaseReader.Split</text>
</g>
<!-- Node2 -->
<g id="node3" class="node"><title>Node2</title>
<a xlink:href="classforcebalance_1_1basereader_1_1BaseReader.html#a2819ab1e523b6ff8e7467e56e3582386" target="_top" xlink:title="forcebalance.basereader.BaseReader.Whites">
<polygon fill="white" stroke="black" points="254.5,-0.5 254.5,-19.5 483.5,-19.5 483.5,-0.5 254.5,-0.5"/>
<text text-anchor="middle" x="369" y="-7.5" font-family="Ubuntu-R" font-size="10.00">forcebalance.basereader.BaseReader.Whites</text>
</a>
</g>
<!-- Node1&#45;&gt;Node2 -->
<g id="edge2" class="edge"><title>Node1&#45;&gt;Node2</title>
<path fill="none" stroke="midnightblue" d="M218.294,-10C226.818,-10 235.465,-10 244.083,-10"/>
<polygon fill="midnightblue" stroke="midnightblue" points="244.176,-13.5001 254.176,-10 244.176,-6.5001 244.176,-13.5001"/>
</g>
<!-- Node3 -->
<g id="node5" class="node"><title>Node3</title>
<a xlink:href="classforcebalance_1_1basereader_1_1BaseReader.html#ad345848c6683d9ba66eed0d2b0197fb6" target="_top" xlink:title="forcebalance.basereader.BaseReader.feed">
<polygon fill="white" stroke="black" points="520,-0.5 520,-19.5 738,-19.5 738,-0.5 520,-0.5"/>
<text text-anchor="middle" x="629" y="-7.5" font-family="Ubuntu-R" font-size="10.00">forcebalance.basereader.BaseReader.feed</text>
</a>
</g>
<!-- Node2&#45;&gt;Node3 -->
<g id="edge4" class="edge"><title>Node2&#45;&gt;Node3</title>
<path fill="none" stroke="midnightblue" d="M483.538,-10C492.186,-10 500.928,-10 509.606,-10"/>
<polygon fill="midnightblue" stroke="midnightblue" points="509.754,-13.5001 519.754,-10 509.754,-6.5001 509.754,-13.5001"/>
</g>
<!-- Node4 -->
<g id="node7" class="node"><title>Node4</title>
<a xlink:href="classforcebalance_1_1basereader_1_1BaseReader.html#a208a252b78a079e81a4a0b5320f3d564" target="_top" xlink:title="Returns the parameter type (e.g.">
<polygon fill="white" stroke="black" points="774.5,-0.5 774.5,-19.5 1013.5,-19.5 1013.5,-0.5 774.5,-0.5"/>
<text text-anchor="middle" x="894" y="-7.5" font-family="Ubuntu-R" font-size="10.00">forcebalance.basereader.BaseReader.build_pid</text>
</a>
</g>
<!-- Node3&#45;&gt;Node4 -->
<g id="edge6" class="edge"><title>Node3&#45;&gt;Node4</title>
<path fill="none" stroke="midnightblue" d="M738.111,-10C746.664,-10 755.355,-10 764.03,-10"/>
<polygon fill="midnightblue" stroke="midnightblue" points="764.199,-13.5001 774.199,-10 764.199,-6.5001 764.199,-13.5001"/>
</g>
</g>
</svg>
