<?xml version="1.0" encoding="UTF-8" standalone="no"?>
<!DOCTYPE svg PUBLIC "-//W3C//DTD SVG 1.1//EN"
 "http://www.w3.org/Graphics/SVG/1.1/DTD/svg11.dtd">
<!-- Generated by graphviz version 2.26.3 (20100126.1600)
 -->
<!-- Title: forcebalance.optimizer.Optimizer.ScipyOptimizer Pages: 1 -->
<svg width="2852pt" height="376pt"
 viewBox="0.00 0.00 2852.00 376.00" xmlns="http://www.w3.org/2000/svg" xmlns:xlink="http://www.w3.org/1999/xlink">
<g id="graph1" class="graph" transform="scale(1 1) rotate(0) translate(4 372)">
<title>forcebalance.optimizer.Optimizer.ScipyOptimizer</title>
<polygon fill="white" stroke="white" points="-4,5 -4,-372 2849,-372 2849,5 -4,5"/>
<!-- Node1 -->
<g id="node1" class="node"><title>Node1</title>
<polygon fill="#bfbfbf" stroke="black" points="0,-188 0,-222 176,-222 176,-188 0,-188"/>
<text text-anchor="start" x="8" y="-209" font-family="Ubuntu-R" font-size="10.00">forcebalance.optimizer.Optimizer.</text>
<text text-anchor="middle" x="88" y="-196" font-family="Ubuntu-R" font-size="10.00">ScipyOptimizer</text>
</g>
<!-- Node2 -->
<g id="node3" class="node"><title>Node2</title>
<a xlink:href="namespaceforcebalance_1_1nifty.html#a11babd62dc7bca389162c6318f9672ca" target="_top" xlink:title="Cool&#45;looking printout for slick formatting of output.">
<polygon fill="white" stroke="black" points="1288,-233.5 1288,-254.5 1432,-254.5 1432,-233.5 1288,-233.5"/>
<text text-anchor="middle" x="1360" y="-241.5" font-family="Ubuntu-R" font-size="10.00">forcebalance.nifty.printcool</text>
</a>
</g>
<!-- Node1&#45;&gt;Node2 -->
<g id="edge2" class="edge"><title>Node1&#45;&gt;Node2</title>
<path fill="none" stroke="midnightblue" d="M153.214,-222.071C236.021,-242.214 383.585,-273 512,-273 512,-273 512,-273 936,-273 1054.94,-273 1192.2,-261.502 1277.56,-252.986"/>
<polygon fill="midnightblue" stroke="midnightblue" points="1278.11,-256.448 1287.7,-251.963 1277.4,-249.483 1278.11,-256.448"/>
</g>
<!-- Node15 -->
<g id="node34" class="node"><title>Node15</title>
<a xlink:href="classforcebalance_1_1optimizer_1_1Optimizer.html#a50ffc779fbba5a99085cba45d868fc29" target="_top" xlink:title="Genetic algorithm, under development.">
<polygon fill="white" stroke="black" points="212,-166 212,-200 388,-200 388,-166 212,-166"/>
<text text-anchor="start" x="220" y="-187" font-family="Ubuntu-R" font-size="10.00">forcebalance.optimizer.Optimizer.</text>
<text text-anchor="middle" x="300" y="-174" font-family="Ubuntu-R" font-size="10.00">GeneticAlgorithm</text>
</a>
</g>
<!-- Node1&#45;&gt;Node15 -->
<g id="edge38" class="edge"><title>Node1&#45;&gt;Node15</title>
<path fill="none" stroke="midnightblue" d="M176.065,-189.198C184.569,-188.232 193.232,-187.31 201.825,-186.454"/>
<polygon fill="midnightblue" stroke="midnightblue" points="202.252,-189.93 211.868,-185.482 201.577,-182.962 202.252,-189.93"/>
</g>
<!-- Node3 -->
<g id="node5" class="node"><title>Node3</title>
<a xlink:href="namespaceforcebalance_1_1nifty.html#abb8f59044961a12588e0653c2baa8b01" target="_top" xlink:title="forcebalance.nifty.warn\l_press_key">
<polygon fill="white" stroke="black" points="2697.5,-334 2697.5,-368 2822.5,-368 2822.5,-334 2697.5,-334"/>
<text text-anchor="start" x="2705.5" y="-355" font-family="Ubuntu-R" font-size="10.00">forcebalance.nifty.warn</text>
<text text-anchor="middle" x="2760" y="-342" font-family="Ubuntu-R" font-size="10.00">_press_key</text>
</a>
</g>
<!-- Node2&#45;&gt;Node3 -->
<g id="edge4" class="edge"><title>Node2&#45;&gt;Node3</title>
<path fill="none" stroke="midnightblue" d="M1384.01,-254.537C1449.79,-282.418 1639.04,-356 1804,-356 1804,-356 1804,-356 2376,-356 2484.47,-356 2610.17,-353.981 2687.38,-352.508"/>
<polygon fill="midnightblue" stroke="midnightblue" points="2687.55,-356.006 2697.48,-352.314 2687.42,-349.007 2687.55,-356.006"/>
</g>
<!-- Node4 -->
<g id="node7" class="node"><title>Node4</title>
<a xlink:href="namespaceforcebalance_1_1nifty.html#a51180e960742cc7547749fdfb3513ec4" target="_top" xlink:title="See documentation for printcool; this is a nice way to print out keys/values in a dictionary...">
<polygon fill="white" stroke="black" points="1500,-227 1500,-261 1644,-261 1644,-227 1500,-227"/>
<text text-anchor="start" x="1508" y="-248" font-family="Ubuntu-R" font-size="10.00">forcebalance.nifty.printcool</text>
<text text-anchor="middle" x="1572" y="-235" font-family="Ubuntu-R" font-size="10.00">_dictionary</text>
</a>
</g>
<!-- Node2&#45;&gt;Node4 -->
<g id="edge6" class="edge"><title>Node2&#45;&gt;Node4</title>
<path fill="none" stroke="midnightblue" d="M1432.07,-244C1450.59,-244 1470.65,-244 1489.65,-244"/>
<polygon fill="midnightblue" stroke="midnightblue" points="1489.77,-247.5 1499.77,-244 1489.77,-240.5 1489.77,-247.5"/>
</g>
<!-- Node5 -->
<g id="node9" class="node"><title>Node5</title>
<a xlink:href="namespaceforcebalance_1_1nifty.html#a3f1c7a1af9d35d5d1693074bc6f5497c" target="_top" xlink:title="ONLY matches integers! If you have a decimal point? None shall pass!">
<polygon fill="white" stroke="black" points="1743,-249.5 1743,-270.5 1865,-270.5 1865,-249.5 1743,-249.5"/>
<text text-anchor="middle" x="1804" y="-257.5" font-family="Ubuntu-R" font-size="10.00">forcebalance.nifty.isint</text>
</a>
</g>
<!-- Node4&#45;&gt;Node5 -->
<g id="edge8" class="edge"><title>Node4&#45;&gt;Node5</title>
<path fill="none" stroke="midnightblue" d="M1644.13,-248.975C1672.33,-250.919 1704.58,-253.143 1732.69,-255.082"/>
<polygon fill="midnightblue" stroke="midnightblue" points="1732.63,-258.586 1742.85,-255.783 1733.11,-251.603 1732.63,-258.586"/>
</g>
<!-- Node7 -->
<g id="node13" class="node"><title>Node7</title>
<a xlink:href="namespaceforcebalance_1_1nifty.html#a8e3ef0108b9d37b82ba0dced7c6037ae" target="_top" xlink:title="Matches ANY number; it can be a decimal, scientific notation, what have you CAUTION &#45; this will also ...">
<polygon fill="white" stroke="black" points="2132.5,-238.5 2132.5,-259.5 2263.5,-259.5 2263.5,-238.5 2132.5,-238.5"/>
<text text-anchor="middle" x="2198" y="-246.5" font-family="Ubuntu-R" font-size="10.00">forcebalance.nifty.isfloat</text>
</a>
</g>
<!-- Node4&#45;&gt;Node7 -->
<g id="edge36" class="edge"><title>Node4&#45;&gt;Node7</title>
<path fill="none" stroke="midnightblue" d="M1644.12,-241.281C1661.13,-240.748 1679.2,-240.271 1696,-240 1791.99,-238.452 1816.01,-238.49 1912,-240 1983.34,-241.122 2064.65,-243.818 2122.3,-245.969"/>
<polygon fill="midnightblue" stroke="midnightblue" points="2122.29,-249.471 2132.41,-246.35 2122.55,-242.476 2122.29,-249.471"/>
</g>
<!-- Node6 -->
<g id="node11" class="node"><title>Node6</title>
<a xlink:href="namespaceforcebalance_1_1nifty.html#a09263927eaec9deff283fbf1a820242f" target="_top" xlink:title="Matches things with a decimal only; see isint and isfloat.">
<polygon fill="white" stroke="black" points="1948.5,-287.5 1948.5,-308.5 2095.5,-308.5 2095.5,-287.5 1948.5,-287.5"/>
<text text-anchor="middle" x="2022" y="-295.5" font-family="Ubuntu-R" font-size="10.00">forcebalance.nifty.isdecimal</text>
</a>
</g>
<!-- Node5&#45;&gt;Node6 -->
<g id="edge10" class="edge"><title>Node5&#45;&gt;Node6</title>
<path fill="none" stroke="midnightblue" d="M1864.44,-270.535C1891.37,-275.23 1923.28,-280.791 1951.31,-285.678"/>
<polygon fill="midnightblue" stroke="midnightblue" points="1950.99,-289.176 1961.45,-287.445 1952.2,-282.28 1950.99,-289.176"/>
</g>
<!-- Node6&#45;&gt;Node7 -->
<g id="edge12" class="edge"><title>Node6&#45;&gt;Node7</title>
<path fill="none" stroke="midnightblue" d="M2059.76,-287.488C2086.23,-280.118 2121.83,-270.208 2150.27,-262.289"/>
<polygon fill="midnightblue" stroke="midnightblue" points="2151.31,-265.633 2160,-259.579 2149.43,-258.889 2151.31,-265.633"/>
</g>
<!-- Node11 -->
<g id="node22" class="node"><title>Node11</title>
<a xlink:href="namespaceforcebalance_1_1nifty.html#afb3f205bce4984856e766af7e9fdaca8" target="_top" xlink:title="Given any list, array, or matrix, return a 1&#45;column matrix.">
<polygon fill="white" stroke="black" points="2140,-287.5 2140,-308.5 2256,-308.5 2256,-287.5 2140,-287.5"/>
<text text-anchor="middle" x="2198" y="-295.5" font-family="Ubuntu-R" font-size="10.00">forcebalance.nifty.col</text>
</a>
</g>
<!-- Node6&#45;&gt;Node11 -->
<g id="edge22" class="edge"><title>Node6&#45;&gt;Node11</title>
<path fill="none" stroke="midnightblue" d="M2095.62,-298C2106.94,-298 2118.59,-298 2129.79,-298"/>
<polygon fill="midnightblue" stroke="midnightblue" points="2129.93,-301.5 2139.93,-298 2129.93,-294.5 2129.93,-301.5"/>
</g>
<!-- Node7&#45;&gt;Node5 -->
<g id="edge14" class="edge"><title>Node7&#45;&gt;Node5</title>
<path fill="none" stroke="midnightblue" d="M2132.45,-250.83C2061.4,-252.814 1948.37,-255.969 1875.18,-258.013"/>
<polygon fill="midnightblue" stroke="midnightblue" points="1875.03,-254.516 1865.13,-258.293 1875.22,-261.513 1875.03,-254.516"/>
</g>
<!-- Node8 -->
<g id="node16" class="node"><title>Node8</title>
<a xlink:href="namespaceforcebalance_1_1nifty.html#a8d63c8ae9a67c66673a6cf81357f827d" target="_top" xlink:title="Returns a big number if we encounter NaN.">
<polygon fill="white" stroke="black" points="2300.5,-228.5 2300.5,-249.5 2451.5,-249.5 2451.5,-228.5 2300.5,-228.5"/>
<text text-anchor="middle" x="2376" y="-236.5" font-family="Ubuntu-R" font-size="10.00">forcebalance.nifty.floatornan</text>
</a>
</g>
<!-- Node7&#45;&gt;Node8 -->
<g id="edge16" class="edge"><title>Node7&#45;&gt;Node8</title>
<path fill="none" stroke="midnightblue" d="M2263.52,-245.319C2272.24,-244.829 2281.28,-244.322 2290.27,-243.816"/>
<polygon fill="midnightblue" stroke="midnightblue" points="2290.6,-247.304 2300.38,-243.248 2290.2,-240.315 2290.6,-247.304"/>
</g>
<!-- Node9 -->
<g id="node18" class="node"><title>Node9</title>
<a xlink:href="namespaceforcebalance_1_1nifty.html#a6c9727360cdff8f3011a12cc54d0e86e" target="_top" xlink:title="Given any list, array, or matrix, return a 1&#45;row matrix.">
<polygon fill="white" stroke="black" points="2504.5,-228.5 2504.5,-249.5 2623.5,-249.5 2623.5,-228.5 2504.5,-228.5"/>
<text text-anchor="middle" x="2564" y="-236.5" font-family="Ubuntu-R" font-size="10.00">forcebalance.nifty.row</text>
</a>
</g>
<!-- Node8&#45;&gt;Node9 -->
<g id="edge18" class="edge"><title>Node8&#45;&gt;Node9</title>
<path fill="none" stroke="midnightblue" d="M2451.65,-239C2465.64,-239 2480.19,-239 2494,-239"/>
<polygon fill="midnightblue" stroke="midnightblue" points="2494.39,-242.5 2504.39,-239 2494.39,-235.5 2494.39,-242.5"/>
</g>
<!-- Node10 -->
<g id="node20" class="node"><title>Node10</title>
<a xlink:href="namespaceforcebalance_1_1nifty.html#a7676236002c6a65ea7d2e69a09923889" target="_top" xlink:title="Given two vectors vec1 and vec2, project out the component of vec1 that is along the vec2&#45;direction...">
<polygon fill="white" stroke="black" points="2676,-228.5 2676,-249.5 2844,-249.5 2844,-228.5 2676,-228.5"/>
<text text-anchor="middle" x="2760" y="-236.5" font-family="Ubuntu-R" font-size="10.00">forcebalance.nifty.orthogonalize</text>
</a>
</g>
<!-- Node9&#45;&gt;Node10 -->
<g id="edge20" class="edge"><title>Node9&#45;&gt;Node10</title>
<path fill="none" stroke="midnightblue" d="M2623.6,-239C2636.84,-239 2651.18,-239 2665.42,-239"/>
<polygon fill="midnightblue" stroke="midnightblue" points="2665.76,-242.5 2675.76,-239 2665.76,-235.5 2665.76,-242.5"/>
</g>
<!-- Node12 -->
<g id="node24" class="node"><title>Node12</title>
<a xlink:href="namespaceforcebalance_1_1nifty.html#a52114ceee9d55f94d9aecb3e176de294" target="_top" xlink:title="Given any list, array, or matrix, return a single&#45;index array.">
<polygon fill="white" stroke="black" points="2317.5,-268.5 2317.5,-289.5 2434.5,-289.5 2434.5,-268.5 2317.5,-268.5"/>
<text text-anchor="middle" x="2376" y="-276.5" font-family="Ubuntu-R" font-size="10.00">forcebalance.nifty.flat</text>
</a>
</g>
<!-- Node11&#45;&gt;Node12 -->
<g id="edge24" class="edge"><title>Node11&#45;&gt;Node12</title>
<path fill="none" stroke="midnightblue" d="M2256.28,-291.779C2272.49,-290.049 2290.24,-288.154 2307,-286.365"/>
<polygon fill="midnightblue" stroke="midnightblue" points="2307.71,-289.809 2317.28,-285.268 2306.97,-282.849 2307.71,-289.809"/>
</g>
<!-- Node13 -->
<g id="node26" class="node"><title>Node13</title>
<a xlink:href="namespaceforcebalance_1_1nifty.html#a4c82187e92dfeb8a159f4aa44b501c40" target="_top" xlink:title="Invert a matrix using singular value decomposition.">
<polygon fill="white" stroke="black" points="2488.5,-306.5 2488.5,-327.5 2639.5,-327.5 2639.5,-306.5 2488.5,-306.5"/>
<text text-anchor="middle" x="2564" y="-314.5" font-family="Ubuntu-R" font-size="10.00">forcebalance.nifty.invert_svd</text>
</a>
</g>
<!-- Node12&#45;&gt;Node13 -->
<g id="edge26" class="edge"><title>Node12&#45;&gt;Node13</title>
<path fill="none" stroke="midnightblue" d="M2428.37,-289.585C2451.18,-294.197 2478.1,-299.637 2501.92,-304.451"/>
<polygon fill="midnightblue" stroke="midnightblue" points="2501.42,-307.921 2511.91,-306.472 2502.8,-301.06 2501.42,-307.921"/>
</g>
<!-- Node13&#45;&gt;Node3 -->
<g id="edge34" class="edge"><title>Node13&#45;&gt;Node3</title>
<path fill="none" stroke="midnightblue" d="M2624.67,-327.525C2644.48,-330.961 2666.68,-334.812 2687.28,-338.385"/>
<polygon fill="midnightblue" stroke="midnightblue" points="2686.79,-341.853 2697.24,-340.114 2687.99,-334.956 2686.79,-341.853"/>
</g>
<!-- Node13&#45;&gt;Node11 -->
<g id="edge32" class="edge"><title>Node13&#45;&gt;Node11</title>
<path fill="none" stroke="midnightblue" d="M2488.35,-313.073C2423.13,-309.687 2329.75,-304.839 2266.65,-301.564"/>
<polygon fill="midnightblue" stroke="midnightblue" points="2266.57,-298.055 2256.4,-301.032 2266.2,-305.045 2266.57,-298.055"/>
</g>
<!-- Node14 -->
<g id="node28" class="node"><title>Node14</title>
<a xlink:href="namespaceforcebalance_1_1nifty.html#aa9fb9c7c65231eca50a7afc04f489b64" target="_top" xlink:title="forcebalance.nifty.get\l_least_squares">
<polygon fill="white" stroke="black" points="2701,-277 2701,-311 2819,-311 2819,-277 2701,-277"/>
<text text-anchor="start" x="2709" y="-298" font-family="Ubuntu-R" font-size="10.00">forcebalance.nifty.get</text>
<text text-anchor="middle" x="2760" y="-285" font-family="Ubuntu-R" font-size="10.00">_least_squares</text>
</a>
</g>
<!-- Node13&#45;&gt;Node14 -->
<g id="edge28" class="edge"><title>Node13&#45;&gt;Node14</title>
<path fill="none" stroke="midnightblue" d="M2639.78,-308.108C2656.55,-306.14 2674.24,-304.064 2690.73,-302.128"/>
<polygon fill="midnightblue" stroke="midnightblue" points="2691.31,-305.585 2700.83,-300.943 2690.49,-298.633 2691.31,-305.585"/>
</g>
<!-- Node14&#45;&gt;Node12 -->
<g id="edge30" class="edge"><title>Node14&#45;&gt;Node12</title>
<path fill="none" stroke="midnightblue" d="M2700.95,-291.693C2631.89,-288.996 2517.75,-284.537 2444.76,-281.686"/>
<polygon fill="midnightblue" stroke="midnightblue" points="2444.87,-278.188 2434.74,-281.295 2444.6,-285.182 2444.87,-278.188"/>
</g>
<!-- Node15&#45;&gt;Node1 -->
<g id="edge96" class="edge"><title>Node15&#45;&gt;Node1</title>
<path fill="none" stroke="midnightblue" d="M211.868,-198.81C203.363,-199.775 194.7,-200.697 186.107,-201.552"/>
<polygon fill="midnightblue" stroke="midnightblue" points="185.682,-198.077 176.065,-202.525 186.356,-205.045 185.682,-198.077"/>
</g>
<!-- Node16 -->
<g id="node36" class="node"><title>Node16</title>
<a xlink:href="classforcebalance_1_1optimizer_1_1Optimizer.html#a6b3af8115718f61a6a21c3297d717ead" target="_top" xlink:title="Use SciPy&#39;s built&#45;in simplex algorithm to optimize the parameters.">
<polygon fill="white" stroke="black" points="424,-211 424,-245 600,-245 600,-211 424,-211"/>
<text text-anchor="start" x="432" y="-232" font-family="Ubuntu-R" font-size="10.00">forcebalance.optimizer.Optimizer.</text>
<text text-anchor="middle" x="512" y="-219" font-family="Ubuntu-R" font-size="10.00">Simplex</text>
</a>
</g>
<!-- Node15&#45;&gt;Node16 -->
<g id="edge40" class="edge"><title>Node15&#45;&gt;Node16</title>
<path fill="none" stroke="midnightblue" d="M380.148,-200.013C393.735,-202.897 407.926,-205.909 421.75,-208.843"/>
<polygon fill="midnightblue" stroke="midnightblue" points="421.23,-212.311 431.739,-210.963 422.683,-205.463 421.23,-212.311"/>
</g>
<!-- Node36 -->
<g id="node85" class="node"><title>Node36</title>
<a xlink:href="classforcebalance_1_1optimizer_1_1Optimizer.html#a0745b2e3607ef308ba48bb1d34e5be79" target="_top" xlink:title="Use SciPy&#39;s built&#45;in Powell direction&#45;set algorithm to optimize the parameters.">
<polygon fill="white" stroke="black" points="424,-159 424,-193 600,-193 600,-159 424,-159"/>
<text text-anchor="start" x="432" y="-180" font-family="Ubuntu-R" font-size="10.00">forcebalance.optimizer.Optimizer.</text>
<text text-anchor="middle" x="512" y="-167" font-family="Ubuntu-R" font-size="10.00">Powell</text>
</a>
</g>
<!-- Node15&#45;&gt;Node36 -->
<g id="edge98" class="edge"><title>Node15&#45;&gt;Node36</title>
<path fill="none" stroke="midnightblue" d="M388.065,-180.092C396.569,-179.811 405.232,-179.525 413.825,-179.242"/>
<polygon fill="midnightblue" stroke="midnightblue" points="413.989,-182.738 423.868,-178.91 413.758,-175.742 413.989,-182.738"/>
</g>
<!-- Node37 -->
<g id="node87" class="node"><title>Node37</title>
<a xlink:href="classforcebalance_1_1optimizer_1_1Optimizer.html#a183911848e43ca0be1893b87290dc31e" target="_top" xlink:title="Use SciPy&#39;s built&#45;in simulated annealing algorithm to optimize the parameters.">
<polygon fill="white" stroke="black" points="424,-107 424,-141 600,-141 600,-107 424,-107"/>
<text text-anchor="start" x="432" y="-128" font-family="Ubuntu-R" font-size="10.00">forcebalance.optimizer.Optimizer.</text>
<text text-anchor="middle" x="512" y="-115" font-family="Ubuntu-R" font-size="10.00">Anneal</text>
</a>
</g>
<!-- Node15&#45;&gt;Node37 -->
<g id="edge100" class="edge"><title>Node15&#45;&gt;Node37</title>
<path fill="none" stroke="midnightblue" d="M361.319,-165.935C386.259,-158.994 415.239,-150.929 441.082,-143.737"/>
<polygon fill="midnightblue" stroke="midnightblue" points="442.123,-147.08 450.819,-141.027 440.246,-140.336 442.123,-147.08"/>
</g>
<!-- Node16&#45;&gt;Node1 -->
<g id="edge44" class="edge"><title>Node16&#45;&gt;Node1</title>
<path fill="none" stroke="midnightblue" d="M423.638,-223.207C354.427,-219.452 258.189,-214.232 186.503,-210.343"/>
<polygon fill="midnightblue" stroke="midnightblue" points="186.285,-206.826 176.111,-209.78 185.906,-213.816 186.285,-206.826"/>
</g>
<!-- Node17 -->
<g id="node38" class="node"><title>Node17</title>
<a xlink:href="classforcebalance_1_1optimizer_1_1Optimizer.html#ad1e151204a172a4e75737b2b699d1623" target="_top" xlink:title="Use SciPy&#39;s built&#45;in simulated annealing algorithm to optimize the parameters.">
<polygon fill="white" stroke="black" points="636,-211 636,-245 812,-245 812,-211 636,-211"/>
<text text-anchor="start" x="644" y="-232" font-family="Ubuntu-R" font-size="10.00">forcebalance.optimizer.Optimizer.</text>
<text text-anchor="middle" x="724" y="-219" font-family="Ubuntu-R" font-size="10.00">ConjugateGradient</text>
</a>
</g>
<!-- Node16&#45;&gt;Node17 -->
<g id="edge42" class="edge"><title>Node16&#45;&gt;Node17</title>
<path fill="none" stroke="midnightblue" d="M600.065,-228C608.569,-228 617.232,-228 625.825,-228"/>
<polygon fill="midnightblue" stroke="midnightblue" points="625.868,-231.5 635.868,-228 625.868,-224.5 625.868,-231.5"/>
</g>
<!-- Node18 -->
<g id="node41" class="node"><title>Node18</title>
<a xlink:href="classforcebalance_1_1optimizer_1_1Optimizer.html#a6c7508252398ff7e00469c4c8acb0a48" target="_top" xlink:title="Scan through parameter values.">
<polygon fill="white" stroke="black" points="636,-141 636,-175 812,-175 812,-141 636,-141"/>
<text text-anchor="start" x="644" y="-162" font-family="Ubuntu-R" font-size="10.00">forcebalance.optimizer.Optimizer.</text>
<text text-anchor="middle" x="724" y="-149" font-family="Ubuntu-R" font-size="10.00">Scan_Values</text>
</a>
</g>
<!-- Node16&#45;&gt;Node18 -->
<g id="edge46" class="edge"><title>Node16&#45;&gt;Node18</title>
<path fill="none" stroke="midnightblue" d="M571.304,-210.952C580.924,-208.051 590.758,-205.003 600,-202 622.419,-194.716 646.913,-186.155 668.166,-178.53"/>
<polygon fill="midnightblue" stroke="midnightblue" points="669.463,-181.783 677.684,-175.1 667.089,-175.197 669.463,-181.783"/>
</g>
<!-- Node18&#45;&gt;Node18 -->
<g id="edge76" class="edge"><title>Node18&#45;&gt;Node18</title>
<path fill="none" stroke="midnightblue" d="M685.89,-175.288C679.414,-184.556 692.117,-193 724,-193 743.429,-193 755.735,-189.864 760.92,-185.318"/>
<polygon fill="midnightblue" stroke="midnightblue" points="764.407,-185.631 762.11,-175.288 757.456,-184.806 764.407,-185.631"/>
</g>
<!-- Node19 -->
<g id="node43" class="node"><title>Node19</title>
<a xlink:href="classforcebalance_1_1optimizer_1_1Optimizer.html#a43ab8c6bea2b3112468922ab61163f67" target="_top" xlink:title="Scan through the mathematical parameter space.">
<polygon fill="white" stroke="black" points="1060,-69 1060,-103 1236,-103 1236,-69 1060,-69"/>
<text text-anchor="start" x="1068" y="-90" font-family="Ubuntu-R" font-size="10.00">forcebalance.optimizer.Optimizer.</text>
<text text-anchor="middle" x="1148" y="-77" font-family="Ubuntu-R" font-size="10.00">ScanMVals</text>
</a>
</g>
<!-- Node18&#45;&gt;Node19 -->
<g id="edge48" class="edge"><title>Node18&#45;&gt;Node19</title>
<path fill="none" stroke="midnightblue" d="M755.603,-140.924C780.068,-128.597 815.203,-112.803 848,-105 914.112,-89.2703 990.587,-84.6268 1049.78,-83.861"/>
<polygon fill="midnightblue" stroke="midnightblue" points="1049.9,-87.3601 1059.87,-83.7657 1049.84,-80.3604 1049.9,-87.3601"/>
</g>
<!-- Node31 -->
<g id="node70" class="node"><title>Node31</title>
<a xlink:href="classforcebalance_1_1optimizer_1_1Optimizer.html#a70bff76f2e56d87c8dee8aa92fe56d29" target="_top" xlink:title="Scan through the physical parameter space.">
<polygon fill="white" stroke="black" points="848,-114 848,-148 1024,-148 1024,-114 848,-114"/>
<text text-anchor="start" x="856" y="-135" font-family="Ubuntu-R" font-size="10.00">forcebalance.optimizer.Optimizer.</text>
<text text-anchor="middle" x="936" y="-122" font-family="Ubuntu-R" font-size="10.00">ScanPVals</text>
</a>
</g>
<!-- Node18&#45;&gt;Node31 -->
<g id="edge78" class="edge"><title>Node18&#45;&gt;Node31</title>
<path fill="none" stroke="midnightblue" d="M812.065,-146.784C820.569,-145.701 829.232,-144.598 837.825,-143.503"/>
<polygon fill="midnightblue" stroke="midnightblue" points="838.39,-146.96 847.868,-142.224 837.506,-140.016 838.39,-146.96"/>
</g>
<!-- Node32 -->
<g id="node72" class="node"><title>Node32</title>
<a xlink:href="classforcebalance_1_1optimizer_1_1Optimizer.html#a1477d2b88faa1d4991418538133abcff" target="_top" xlink:title="A single&#45;point objective function computation.">
<polygon fill="white" stroke="black" points="848,-166 848,-200 1024,-200 1024,-166 848,-166"/>
<text text-anchor="start" x="856" y="-187" font-family="Ubuntu-R" font-size="10.00">forcebalance.optimizer.Optimizer.</text>
<text text-anchor="middle" x="936" y="-174" font-family="Ubuntu-R" font-size="10.00">SinglePoint</text>
</a>
</g>
<!-- Node18&#45;&gt;Node32 -->
<g id="edge80" class="edge"><title>Node18&#45;&gt;Node32</title>
<path fill="none" stroke="midnightblue" d="M812.065,-168.385C820.569,-169.388 829.232,-170.409 837.825,-171.423"/>
<polygon fill="midnightblue" stroke="midnightblue" points="837.526,-174.912 847.868,-172.607 838.346,-167.96 837.526,-174.912"/>
</g>
<!-- Node35 -->
<g id="node81" class="node"><title>Node35</title>
<a xlink:href="classforcebalance_1_1optimizer_1_1Optimizer.html#ac5adf24cf3ea3976eb67f75b6b89d101" target="_top" xlink:title="A single&#45;point gradient computation.">
<polygon fill="white" stroke="black" points="1060,-211 1060,-245 1236,-245 1236,-211 1060,-211"/>
<text text-anchor="start" x="1068" y="-232" font-family="Ubuntu-R" font-size="10.00">forcebalance.optimizer.Optimizer.</text>
<text text-anchor="middle" x="1148" y="-219" font-family="Ubuntu-R" font-size="10.00">Gradient</text>
</a>
</g>
<!-- Node18&#45;&gt;Node35 -->
<g id="edge92" class="edge"><title>Node18&#45;&gt;Node35</title>
<path fill="none" stroke="midnightblue" d="M756.966,-175.037C781.406,-186.796 815.905,-201.596 848,-209 914.218,-224.276 990.691,-228.927 1049.85,-229.81"/>
<polygon fill="midnightblue" stroke="midnightblue" points="1049.9,-233.311 1059.94,-229.927 1049.98,-226.311 1049.9,-233.311"/>
</g>
<!-- Node20 -->
<g id="node45" class="node"><title>Node20</title>
<a xlink:href="classforcebalance_1_1optimizer_1_1Optimizer.html#a0c16ad8678a6480e235a45d69fb077d3" target="_top" xlink:title="A single&#45;point Hessian computation.">
<polygon fill="white" stroke="black" points="1272,-69 1272,-103 1448,-103 1448,-69 1272,-69"/>
<text text-anchor="start" x="1280" y="-90" font-family="Ubuntu-R" font-size="10.00">forcebalance.optimizer.Optimizer.</text>
<text text-anchor="middle" x="1360" y="-77" font-family="Ubuntu-R" font-size="10.00">Hessian</text>
</a>
</g>
<!-- Node19&#45;&gt;Node20 -->
<g id="edge50" class="edge"><title>Node19&#45;&gt;Node20</title>
<path fill="none" stroke="midnightblue" d="M1236.07,-86C1244.57,-86 1253.23,-86 1261.82,-86"/>
<polygon fill="midnightblue" stroke="midnightblue" points="1261.87,-89.5001 1271.87,-86 1261.87,-82.5001 1261.87,-89.5001"/>
</g>
<!-- Node21 -->
<g id="node47" class="node"><title>Node21</title>
<a xlink:href="namespaceforcebalance_1_1finite__difference.html#a9be9f0d21300958092e380514e2e980d" target="_top" xlink:title="A highly accurate seven&#45;point finite difference stencil for computing derivatives of a function...">
<polygon fill="white" stroke="black" points="1520,-159 1520,-193 1624,-193 1624,-159 1520,-159"/>
<text text-anchor="start" x="1528" y="-180" font-family="Ubuntu-R" font-size="10.00">forcebalance.finite</text>
<text text-anchor="middle" x="1572" y="-167" font-family="Ubuntu-R" font-size="10.00">_difference.f1d7p</text>
</a>
</g>
<!-- Node20&#45;&gt;Node21 -->
<g id="edge52" class="edge"><title>Node20&#45;&gt;Node21</title>
<path fill="none" stroke="midnightblue" d="M1400.37,-103.14C1435,-117.841 1485.04,-139.081 1522.15,-154.839"/>
<polygon fill="midnightblue" stroke="midnightblue" points="1521.2,-158.238 1531.78,-158.924 1523.94,-151.794 1521.2,-158.238"/>
</g>
<!-- Node25 -->
<g id="node55" class="node"><title>Node25</title>
<a xlink:href="namespaceforcebalance_1_1finite__difference.html#ae484c591ae8c4e5bae73a0ef2660c339" target="_top" xlink:title="A function wrapper for finite difference designed for differentiating &#39;get&#39;&#45;type functions.">
<polygon fill="white" stroke="black" points="2146,-111 2146,-145 2250,-145 2250,-111 2146,-111"/>
<text text-anchor="start" x="2154" y="-132" font-family="Ubuntu-R" font-size="10.00">forcebalance.finite</text>
<text text-anchor="middle" x="2198" y="-119" font-family="Ubuntu-R" font-size="10.00">_difference.fdwrap</text>
</a>
</g>
<!-- Node20&#45;&gt;Node25 -->
<g id="edge68" class="edge"><title>Node20&#45;&gt;Node25</title>
<path fill="none" stroke="midnightblue" d="M1448.19,-87.8535C1586.42,-91.178 1862.45,-99.5072 2096,-117 2108.82,-117.96 2122.53,-119.254 2135.59,-120.617"/>
<polygon fill="midnightblue" stroke="midnightblue" points="2135.59,-124.136 2145.91,-121.719 2136.34,-117.176 2135.59,-124.136"/>
</g>
<!-- Node28 -->
<g id="node63" class="node"><title>Node28</title>
<a xlink:href="classforcebalance_1_1optimizer_1_1Optimizer.html#adb86c1f6580bb088a23563a6103986fe" target="_top" xlink:title="Finite&#45;difference checker for the objective function Hessian.">
<polygon fill="white" stroke="black" points="1484,-31 1484,-65 1660,-65 1660,-31 1484,-31"/>
<text text-anchor="start" x="1492" y="-52" font-family="Ubuntu-R" font-size="10.00">forcebalance.optimizer.Optimizer.</text>
<text text-anchor="middle" x="1572" y="-39" font-family="Ubuntu-R" font-size="10.00">FDCheckH</text>
</a>
</g>
<!-- Node20&#45;&gt;Node28 -->
<g id="edge70" class="edge"><title>Node20&#45;&gt;Node28</title>
<path fill="none" stroke="midnightblue" d="M1448.07,-70.2147C1456.57,-68.6904 1465.23,-67.1377 1473.82,-65.5974"/>
<polygon fill="midnightblue" stroke="midnightblue" points="1474.64,-69.0068 1483.87,-63.7973 1473.41,-62.1166 1474.64,-69.0068"/>
</g>
<!-- Node22 -->
<g id="node49" class="node"><title>Node22</title>
<a xlink:href="namespaceforcebalance_1_1finite__difference.html#acc281f85b668062745f711d9b4a610fa" target="_top" xlink:title="forcebalance.finite\l_difference.f12d7p">
<polygon fill="white" stroke="black" points="1751.5,-159 1751.5,-193 1856.5,-193 1856.5,-159 1751.5,-159"/>
<text text-anchor="start" x="1759.5" y="-180" font-family="Ubuntu-R" font-size="10.00">forcebalance.finite</text>
<text text-anchor="middle" x="1804" y="-167" font-family="Ubuntu-R" font-size="10.00">_difference.f12d7p</text>
</a>
</g>
<!-- Node21&#45;&gt;Node22 -->
<g id="edge54" class="edge"><title>Node21&#45;&gt;Node22</title>
<path fill="none" stroke="midnightblue" d="M1624.07,-176C1658.75,-176 1704.51,-176 1741.21,-176"/>
<polygon fill="midnightblue" stroke="midnightblue" points="1741.31,-179.5 1751.31,-176 1741.31,-172.5 1741.31,-179.5"/>
</g>
<!-- Node23 -->
<g id="node51" class="node"><title>Node23</title>
<a xlink:href="namespaceforcebalance_1_1finite__difference.html#aa69a8819e4680091f400303c1d6ddeb7" target="_top" xlink:title="A three&#45;point finite difference stencil.">
<polygon fill="white" stroke="black" points="1969.5,-159 1969.5,-193 2074.5,-193 2074.5,-159 1969.5,-159"/>
<text text-anchor="start" x="1977.5" y="-180" font-family="Ubuntu-R" font-size="10.00">forcebalance.finite</text>
<text text-anchor="middle" x="2022" y="-167" font-family="Ubuntu-R" font-size="10.00">_difference.f12d3p</text>
</a>
</g>
<!-- Node22&#45;&gt;Node23 -->
<g id="edge56" class="edge"><title>Node22&#45;&gt;Node23</title>
<path fill="none" stroke="midnightblue" d="M1856.77,-176C1887.59,-176 1926.66,-176 1959.07,-176"/>
<polygon fill="midnightblue" stroke="midnightblue" points="1959.34,-179.5 1969.34,-176 1959.34,-172.5 1959.34,-179.5"/>
</g>
<!-- Node24 -->
<g id="node53" class="node"><title>Node24</title>
<a xlink:href="namespaceforcebalance_1_1finite__difference.html#ad84d3e385db1190e7d8ef58bc08a6c52" target="_top" xlink:title="Invoking this function from anywhere will tell us whether we&#39;re being called by a finite&#45;difference f...">
<polygon fill="white" stroke="black" points="2146,-163 2146,-197 2250,-197 2250,-163 2146,-163"/>
<text text-anchor="start" x="2154" y="-184" font-family="Ubuntu-R" font-size="10.00">forcebalance.finite</text>
<text text-anchor="middle" x="2198" y="-171" font-family="Ubuntu-R" font-size="10.00">_difference.in_fd</text>
</a>
</g>
<!-- Node23&#45;&gt;Node24 -->
<g id="edge58" class="edge"><title>Node23&#45;&gt;Node24</title>
<path fill="none" stroke="midnightblue" d="M2074.81,-177.2C2093.95,-177.635 2115.75,-178.131 2135.64,-178.583"/>
<polygon fill="midnightblue" stroke="midnightblue" points="2135.76,-182.086 2145.84,-178.814 2135.92,-175.088 2135.76,-182.086"/>
</g>
<!-- Node23&#45;&gt;Node25 -->
<g id="edge60" class="edge"><title>Node23&#45;&gt;Node25</title>
<path fill="none" stroke="midnightblue" d="M2074.81,-161.598C2094.12,-156.33 2116.15,-150.323 2136.18,-144.859"/>
<polygon fill="midnightblue" stroke="midnightblue" points="2137.11,-148.234 2145.84,-142.226 2135.27,-141.481 2137.11,-148.234"/>
</g>
<!-- Node26 -->
<g id="node57" class="node"><title>Node26</title>
<a xlink:href="namespaceforcebalance_1_1finite__difference.html#a00322fb65860c390616f74d05037c797" target="_top" xlink:title="A driver to fdwrap for gradients (see documentation for fdwrap) Inputs: tgt = The Target containing t...">
<polygon fill="white" stroke="black" points="2318,-111 2318,-145 2434,-145 2434,-111 2318,-111"/>
<text text-anchor="start" x="2326" y="-132" font-family="Ubuntu-R" font-size="10.00">forcebalance.finite</text>
<text text-anchor="middle" x="2376" y="-119" font-family="Ubuntu-R" font-size="10.00">_difference.fdwrap_G</text>
</a>
</g>
<!-- Node25&#45;&gt;Node26 -->
<g id="edge62" class="edge"><title>Node25&#45;&gt;Node26</title>
<path fill="none" stroke="midnightblue" d="M2250.44,-121.784C2268.35,-121.231 2288.65,-121.107 2307.62,-121.414"/>
<polygon fill="midnightblue" stroke="midnightblue" points="2307.63,-124.915 2317.7,-121.62 2307.77,-117.916 2307.63,-124.915"/>
</g>
<!-- Node27 -->
<g id="node60" class="node"><title>Node27</title>
<a xlink:href="namespaceforcebalance_1_1finite__difference.html#a77a0bc1ae3cbbcc8d38a0ef9ca877d6d" target="_top" xlink:title="A driver to fdwrap for Hessians (see documentation for fdwrap) Inputs: tgt = The Target containing th...">
<polygon fill="white" stroke="black" points="2318,-59 2318,-93 2434,-93 2434,-59 2318,-59"/>
<text text-anchor="start" x="2326" y="-80" font-family="Ubuntu-R" font-size="10.00">forcebalance.finite</text>
<text text-anchor="middle" x="2376" y="-67" font-family="Ubuntu-R" font-size="10.00">_difference.fdwrap_H</text>
</a>
</g>
<!-- Node25&#45;&gt;Node27 -->
<g id="edge66" class="edge"><title>Node25&#45;&gt;Node27</title>
<path fill="none" stroke="midnightblue" d="M2250.44,-112.68C2268.43,-107.424 2288.83,-101.464 2307.88,-95.8994"/>
<polygon fill="midnightblue" stroke="midnightblue" points="2309.08,-99.195 2317.7,-93.0312 2307.12,-92.4759 2309.08,-99.195"/>
</g>
<!-- Node26&#45;&gt;Node25 -->
<g id="edge64" class="edge"><title>Node26&#45;&gt;Node25</title>
<path fill="none" stroke="midnightblue" d="M2317.7,-134.38C2299.41,-134.838 2279.14,-134.871 2260.57,-134.478"/>
<polygon fill="midnightblue" stroke="midnightblue" points="2260.53,-130.976 2250.44,-134.216 2260.35,-137.974 2260.53,-130.976"/>
</g>
<!-- Node29 -->
<g id="node65" class="node"><title>Node29</title>
<a xlink:href="classforcebalance_1_1optimizer_1_1Optimizer.html#a05ee5fe985b3e2ec71071ca061e42d66" target="_top" xlink:title="Read the checkpoint file for the main optimizer.">
<polygon fill="white" stroke="black" points="1697,-40.5 1697,-61.5 1911,-61.5 1911,-40.5 1697,-40.5"/>
<text text-anchor="middle" x="1804" y="-48.5" font-family="Ubuntu-R" font-size="10.00">forcebalance.optimizer.Optimizer.readchk</text>
</a>
</g>
<!-- Node28&#45;&gt;Node29 -->
<g id="edge72" class="edge"><title>Node28&#45;&gt;Node29</title>
<path fill="none" stroke="midnightblue" d="M1660.04,-49.1384C1668.79,-49.2517 1677.78,-49.3678 1686.77,-49.484"/>
<polygon fill="midnightblue" stroke="midnightblue" points="1686.86,-52.9855 1696.91,-49.6152 1686.96,-45.9861 1686.86,-52.9855"/>
</g>
<!-- Node30 -->
<g id="node67" class="node"><title>Node30</title>
<a xlink:href="classforcebalance_1_1optimizer_1_1Optimizer.html#aa7ac7cda43b70ac58ccbd6c8445e88ef" target="_top" xlink:title="Write the checkpoint file for the main optimizer.">
<polygon fill="white" stroke="black" points="1696.5,-0.5 1696.5,-21.5 1911.5,-21.5 1911.5,-0.5 1696.5,-0.5"/>
<text text-anchor="middle" x="1804" y="-8.5" font-family="Ubuntu-R" font-size="10.00">forcebalance.optimizer.Optimizer.writechk</text>
</a>
</g>
<!-- Node28&#45;&gt;Node30 -->
<g id="edge74" class="edge"><title>Node28&#45;&gt;Node30</title>
<path fill="none" stroke="midnightblue" d="M1660.04,-33.9591C1682.39,-30.3942 1706.22,-26.5943 1727.92,-23.133"/>
<polygon fill="midnightblue" stroke="midnightblue" points="1728.74,-26.5476 1738.06,-21.5163 1727.63,-19.635 1728.74,-26.5476"/>
</g>
<!-- Node33 -->
<g id="node74" class="node"><title>Node33</title>
<a xlink:href="classforcebalance_1_1optimizer_1_1Optimizer.html#aacf96d137fb0e491af7e380c8bd61eb9" target="_top" xlink:title="Finite&#45;difference checker for the objective function gradient.">
<polygon fill="white" stroke="black" points="1060,-159 1060,-193 1236,-193 1236,-159 1060,-159"/>
<text text-anchor="start" x="1068" y="-180" font-family="Ubuntu-R" font-size="10.00">forcebalance.optimizer.Optimizer.</text>
<text text-anchor="middle" x="1148" y="-167" font-family="Ubuntu-R" font-size="10.00">FDCheckG</text>
</a>
</g>
<!-- Node32&#45;&gt;Node33 -->
<g id="edge82" class="edge"><title>Node32&#45;&gt;Node33</title>
<path fill="none" stroke="midnightblue" d="M1024.07,-180.092C1032.57,-179.811 1041.23,-179.525 1049.82,-179.242"/>
<polygon fill="midnightblue" stroke="midnightblue" points="1049.99,-182.738 1059.87,-178.91 1049.76,-175.742 1049.99,-182.738"/>
</g>
<!-- Node33&#45;&gt;Node2 -->
<g id="edge84" class="edge"><title>Node33&#45;&gt;Node2</title>
<path fill="none" stroke="midnightblue" d="M1206.79,-193.022C1216.57,-195.952 1226.58,-199.016 1236,-202 1264.37,-210.993 1296.17,-221.776 1320.46,-230.164"/>
<polygon fill="midnightblue" stroke="midnightblue" points="1319.45,-233.518 1330.04,-233.484 1321.74,-226.904 1319.45,-233.518"/>
</g>
<!-- Node33&#45;&gt;Node25 -->
<g id="edge90" class="edge"><title>Node33&#45;&gt;Node25</title>
<path fill="none" stroke="midnightblue" d="M1220.48,-158.984C1237.31,-155.539 1255.22,-152.279 1272,-150 1404.39,-132.023 1438.4,-131 1572,-131 1572,-131 1572,-131 1804,-131 1921.18,-131 2057.97,-129.657 2135.64,-128.768"/>
<polygon fill="midnightblue" stroke="midnightblue" points="2135.78,-132.266 2145.74,-128.651 2135.7,-125.267 2135.78,-132.266"/>
</g>
<!-- Node34 -->
<g id="node77" class="node"><title>Node34</title>
<a xlink:href="namespaceforcebalance_1_1finite__difference.html#a123c5d5dea0f3f50ab57796bb3bc39be" target="_top" xlink:title="A highly accurate five&#45;point finite difference stencil for computing derivatives of a function...">
<polygon fill="white" stroke="black" points="1308,-159 1308,-193 1412,-193 1412,-159 1308,-159"/>
<text text-anchor="start" x="1316" y="-180" font-family="Ubuntu-R" font-size="10.00">forcebalance.finite</text>
<text text-anchor="middle" x="1360" y="-167" font-family="Ubuntu-R" font-size="10.00">_difference.f1d5p</text>
</a>
</g>
<!-- Node33&#45;&gt;Node34 -->
<g id="edge86" class="edge"><title>Node33&#45;&gt;Node34</title>
<path fill="none" stroke="midnightblue" d="M1236.07,-176C1256.8,-176 1278.47,-176 1297.79,-176"/>
<polygon fill="midnightblue" stroke="midnightblue" points="1297.96,-179.5 1307.96,-176 1297.96,-172.5 1297.96,-179.5"/>
</g>
<!-- Node34&#45;&gt;Node21 -->
<g id="edge88" class="edge"><title>Node34&#45;&gt;Node21</title>
<path fill="none" stroke="midnightblue" d="M1412.13,-176C1441.54,-176 1478.49,-176 1509.45,-176"/>
<polygon fill="midnightblue" stroke="midnightblue" points="1509.7,-179.5 1519.7,-176 1509.7,-172.5 1509.7,-179.5"/>
</g>
<!-- Node35&#45;&gt;Node2 -->
<g id="edge94" class="edge"><title>Node35&#45;&gt;Node2</title>
<path fill="none" stroke="midnightblue" d="M1236.07,-234.646C1249.84,-235.686 1264.04,-236.758 1277.69,-237.788"/>
<polygon fill="midnightblue" stroke="midnightblue" points="1277.76,-241.303 1288,-238.566 1278.29,-234.323 1277.76,-241.303"/>
</g>
</g>
</svg>
