<?xml version="1.0" encoding="UTF-8" standalone="no"?>
<!DOCTYPE svg PUBLIC "-//W3C//DTD SVG 1.1//EN"
 "http://www.w3.org/Graphics/SVG/1.1/DTD/svg11.dtd">
<!-- Generated by graphviz version 2.26.3 (20100126.1600)
 -->
<!-- Title: forcebalance.tinkerio.Liquid_TINKER.__init__ Pages: 1 -->
<svg width="534pt" height="42pt"
 viewBox="0.00 0.00 534.00 42.00" xmlns="http://www.w3.org/2000/svg" xmlns:xlink="http://www.w3.org/1999/xlink">
<g id="graph1" class="graph" transform="scale(1 1) rotate(0) translate(4 38)">
<title>forcebalance.tinkerio.Liquid_TINKER.__init__</title>
<polygon fill="white" stroke="white" points="-4,5 -4,-38 531,-38 531,5 -4,5"/>
<!-- Node1 -->
<g id="node1" class="node"><title>Node1</title>
<polygon fill="#bfbfbf" stroke="black" points="0,-0 0,-34 146,-34 146,-0 0,-0"/>
<text text-anchor="start" x="8" y="-21" font-family="Ubuntu-R" font-size="10.00">forcebalance.tinkerio.Liquid</text>
<text text-anchor="middle" x="73" y="-8" font-family="Ubuntu-R" font-size="10.00">_TINKER.__init__</text>
</g>
<!-- Node2 -->
<g id="node3" class="node"><title>Node2</title>
<a xlink:href="namespaceforcebalance_1_1nifty.html#abb8f59044961a12588e0653c2baa8b01" target="_top" xlink:title="forcebalance.nifty.warn\l_press_key">
<polygon fill="white" stroke="black" points="182.5,-0 182.5,-34 307.5,-34 307.5,-0 182.5,-0"/>
<text text-anchor="start" x="190.5" y="-21" font-family="Ubuntu-R" font-size="10.00">forcebalance.nifty.warn</text>
<text text-anchor="middle" x="245" y="-8" font-family="Ubuntu-R" font-size="10.00">_press_key</text>
</a>
</g>
<!-- Node1&#45;&gt;Node2 -->
<g id="edge2" class="edge"><title>Node1&#45;&gt;Node2</title>
<path fill="none" stroke="midnightblue" d="M146.442,-17C154.946,-17 163.617,-17 172.113,-17"/>
<polygon fill="midnightblue" stroke="midnightblue" points="172.367,-20.5001 182.367,-17 172.367,-13.5001 172.367,-20.5001"/>
</g>
<!-- Node3 -->
<g id="node5" class="node"><title>Node3</title>
<a xlink:href="namespaceforcebalance_1_1nifty.html#a2fc81730e7efa7d138dd86f733507bfc" target="_top" xlink:title="Similar to the bultin function map().">
<polygon fill="white" stroke="black" points="344.5,-6.5 344.5,-27.5 525.5,-27.5 525.5,-6.5 344.5,-6.5"/>
<text text-anchor="middle" x="435" y="-14.5" font-family="Ubuntu-R" font-size="10.00">forcebalance.nifty.concurrent_map</text>
</a>
</g>
<!-- Node2&#45;&gt;Node3 -->
<g id="edge4" class="edge"><title>Node2&#45;&gt;Node3</title>
<path fill="none" stroke="midnightblue" d="M307.74,-17C316.3,-17 325.257,-17 334.283,-17"/>
<polygon fill="midnightblue" stroke="midnightblue" points="334.485,-20.5001 344.485,-17 334.485,-13.5001 334.485,-20.5001"/>
</g>
</g>
</svg>
