<?xml version="1.0" encoding="UTF-8" standalone="no"?>
<!DOCTYPE svg PUBLIC "-//W3C//DTD SVG 1.1//EN"
 "http://www.w3.org/Graphics/SVG/1.1/DTD/svg11.dtd">
<!-- Generated by graphviz version 2.28.0 (20111219.2309)
 -->
<!-- Title: G Pages: 1 -->
<svg width="1604pt" height="96pt"
 viewBox="0.00 0.00 1604.00 96.29" xmlns="http://www.w3.org/2000/svg" xmlns:xlink="http://www.w3.org/1999/xlink">
<g id="graph1" class="graph" transform="scale(1 1) rotate(0) translate(4 92.2921)">
<title>G</title>
<polygon fill="white" stroke="white" points="-4,5 -4,-92.2921 1601,-92.2921 1601,5 -4,5"/>
<!-- Node1 -->
<g id="node1" class="node"><title>Node1</title>
<polygon fill="#bfbfbf" stroke="black" points="0,-21.5897 0,-40.5897 206,-40.5897 206,-21.5897 0,-21.5897"/>
<text text-anchor="middle" x="103" y="-28.5897" font-family="Ubuntu-R" font-size="10.00">forcebalance.objective.Penalty.L2_norm</text>
</g>
<!-- Node2 -->
<g id="node3" class="node"><title>Node2</title>
<a xlink:href="classforcebalance_1_1objective_1_1Penalty.html#a1f3fa55d1c27db3eca0af41bb57c04ef" target="_top" xlink:title="Hyperbolic constraints.">
<polygon fill="white" stroke="black" points="242,-21.5897 242,-40.5897 424,-40.5897 424,-21.5897 242,-21.5897"/>
<text text-anchor="middle" x="333" y="-28.5897" font-family="Ubuntu-R" font-size="10.00">forcebalance.objective.Penalty.HYP</text>
</a>
</g>
<!-- Node1&#45;&gt;Node2 -->
<g id="edge2" class="edge"><title>Node1&#45;&gt;Node2</title>
<path fill="none" stroke="midnightblue" d="M206.329,-31.0897C214.745,-31.0897 223.247,-31.0897 231.649,-31.0897"/>
<polygon fill="midnightblue" stroke="midnightblue" points="231.835,-34.5898 241.835,-31.0897 231.835,-27.5898 231.835,-34.5898"/>
</g>
<!-- Node3 -->
<g id="node5" class="node"><title>Node3</title>
<a xlink:href="classforcebalance_1_1objective_1_1Penalty.html#aafc1810e03e4e3f2ca1569588a8189d4" target="_top" xlink:title="forcebalance.objective.Penalty.FUSE">
<polygon fill="white" stroke="black" points="460.5,-50.5897 460.5,-69.5897 649.5,-69.5897 649.5,-50.5897 460.5,-50.5897"/>
<text text-anchor="middle" x="555" y="-57.5897" font-family="Ubuntu-R" font-size="10.00">forcebalance.objective.Penalty.FUSE</text>
</a>
</g>
<!-- Node2&#45;&gt;Node3 -->
<g id="edge4" class="edge"><title>Node2&#45;&gt;Node3</title>
<path fill="none" stroke="midnightblue" d="M406.341,-40.6256C427.207,-43.3761 450.129,-46.3977 471.56,-49.2226"/>
<polygon fill="midnightblue" stroke="midnightblue" points="471.244,-52.7111 481.616,-50.5481 472.159,-45.7712 471.244,-52.7111"/>
</g>
<!-- Node4 -->
<g id="node7" class="node"><title>Node4</title>
<a xlink:href="namespaceforcebalance_1_1nifty.html#abb8f59044961a12588e0653c2baa8b01" target="_top" xlink:title="forcebalance.nifty.warn_press_key">
<polygon fill="white" stroke="black" points="1198.5,-50.5897 1198.5,-69.5897 1377.5,-69.5897 1377.5,-50.5897 1198.5,-50.5897"/>
<text text-anchor="middle" x="1288" y="-57.5897" font-family="Ubuntu-R" font-size="10.00">forcebalance.nifty.warn_press_key</text>
</a>
</g>
<!-- Node2&#45;&gt;Node4 -->
<g id="edge18" class="edge"><title>Node2&#45;&gt;Node4</title>
<path fill="none" stroke="midnightblue" d="M417.15,-21.5656C567.023,-6.30824 892.005,18.0428 1162,-22.0897 1193.75,-26.8086 1228.59,-37.921 1253.41,-46.9171"/>
<polygon fill="midnightblue" stroke="midnightblue" points="1252.46,-50.3008 1263.06,-50.4927 1254.9,-43.7368 1252.46,-50.3008"/>
</g>
<!-- Node3&#45;&gt;Node4 -->
<g id="edge6" class="edge"><title>Node3&#45;&gt;Node4</title>
<path fill="none" stroke="midnightblue" d="M608.939,-69.6036C632.453,-73.3694 660.521,-77.2376 686,-79.0897 897.01,-94.4282 950.895,-88.0634 1162,-74.0897 1174.94,-73.2334 1188.59,-72.0214 1201.94,-70.6647"/>
<polygon fill="midnightblue" stroke="midnightblue" points="1202.5,-74.1261 1212.08,-69.6025 1201.77,-67.1643 1202.5,-74.1261"/>
</g>
<!-- Node6 -->
<g id="node11" class="node"><title>Node6</title>
<a xlink:href="classforcebalance_1_1objective_1_1Penalty.html#a9badc0a78d23016aa3dcc2d610e2e16c" target="_top" xlink:title="forcebalance.objective.Penalty.FUSE_BARRIER">
<polygon fill="white" stroke="black" points="686,-50.5897 686,-69.5897 920,-69.5897 920,-50.5897 686,-50.5897"/>
<text text-anchor="middle" x="803" y="-57.5897" font-family="Ubuntu-R" font-size="10.00">forcebalance.objective.Penalty.FUSE_BARRIER</text>
</a>
</g>
<!-- Node3&#45;&gt;Node6 -->
<g id="edge10" class="edge"><title>Node3&#45;&gt;Node6</title>
<path fill="none" stroke="midnightblue" d="M649.704,-60.0897C658.194,-60.0897 666.883,-60.0897 675.594,-60.0897"/>
<polygon fill="midnightblue" stroke="midnightblue" points="675.82,-63.5898 685.82,-60.0897 675.82,-56.5898 675.82,-63.5898"/>
</g>
<!-- Node5 -->
<g id="node9" class="node"><title>Node5</title>
<a xlink:href="namespaceforcebalance_1_1nifty.html#a2fc81730e7efa7d138dd86f733507bfc" target="_top" xlink:title="Similar to the bultin function map().">
<polygon fill="white" stroke="black" points="1414,-50.5897 1414,-69.5897 1596,-69.5897 1596,-50.5897 1414,-50.5897"/>
<text text-anchor="middle" x="1505" y="-57.5897" font-family="Ubuntu-R" font-size="10.00">forcebalance.nifty.concurrent_map</text>
</a>
</g>
<!-- Node4&#45;&gt;Node5 -->
<g id="edge8" class="edge"><title>Node4&#45;&gt;Node5</title>
<path fill="none" stroke="midnightblue" d="M1377.69,-60.0897C1386.25,-60.0897 1394.98,-60.0897 1403.65,-60.0897"/>
<polygon fill="midnightblue" stroke="midnightblue" points="1403.78,-63.5898 1413.78,-60.0897 1403.78,-56.5898 1403.78,-63.5898"/>
</g>
<!-- Node6&#45;&gt;Node4 -->
<g id="edge12" class="edge"><title>Node6&#45;&gt;Node4</title>
<path fill="none" stroke="midnightblue" d="M920.305,-60.0897C1002.05,-60.0897 1110.25,-60.0897 1187.9,-60.0897"/>
<polygon fill="midnightblue" stroke="midnightblue" points="1188.17,-63.5898 1198.17,-60.0897 1188.17,-56.5898 1188.17,-63.5898"/>
</g>
<!-- Node7 -->
<g id="node14" class="node"><title>Node7</title>
<a xlink:href="classforcebalance_1_1objective_1_1Penalty.html#ab54cfe22065a5aa22766e16cc8cb90aa" target="_top" xlink:title="forcebalance.objective.Penalty.FUSE_L0">
<polygon fill="white" stroke="black" points="956,-31.5897 956,-50.5897 1162,-50.5897 1162,-31.5897 956,-31.5897"/>
<text text-anchor="middle" x="1059" y="-38.5897" font-family="Ubuntu-R" font-size="10.00">forcebalance.objective.Penalty.FUSE_L0</text>
</a>
</g>
<!-- Node6&#45;&gt;Node7 -->
<g id="edge14" class="edge"><title>Node6&#45;&gt;Node7</title>
<path fill="none" stroke="midnightblue" d="M920.221,-51.396C928.673,-50.7638 937.188,-50.1268 945.616,-49.4964"/>
<polygon fill="midnightblue" stroke="midnightblue" points="946.132,-52.9677 955.843,-48.7314 945.61,-45.9872 946.132,-52.9677"/>
</g>
<!-- Node7&#45;&gt;Node4 -->
<g id="edge16" class="edge"><title>Node7&#45;&gt;Node4</title>
<path fill="none" stroke="midnightblue" d="M1162.21,-49.6448C1170.84,-50.3669 1179.55,-51.0964 1188.15,-51.8163"/>
<polygon fill="midnightblue" stroke="midnightblue" points="1187.93,-55.3096 1198.19,-52.656 1188.51,-48.334 1187.93,-55.3096"/>
</g>
</g>
</svg>
