<?xml version="1.0" encoding="UTF-8" standalone="no"?>
<!DOCTYPE svg PUBLIC "-//W3C//DTD SVG 1.1//EN"
 "http://www.w3.org/Graphics/SVG/1.1/DTD/svg11.dtd">
<!-- Generated by graphviz version 2.32.0 (20130801.1845)
 -->
<!-- Title: forcebalance.psi4io.THCDF_Psi4.write_nested_destroy Pages: 1 -->
<svg width="644pt" height="136pt"
 viewBox="0.00 0.00 644.00 136.00" xmlns="http://www.w3.org/2000/svg" xmlns:xlink="http://www.w3.org/1999/xlink">
<g id="graph0" class="graph" transform="scale(1 1) rotate(0) translate(4 132)">
<title>forcebalance.psi4io.THCDF_Psi4.write_nested_destroy</title>
<polygon fill="white" stroke="white" points="-4,5 -4,-132 641,-132 641,5 -4,5"/>
<!-- Node1 -->
<g id="node1" class="node"><title>Node1</title>
<polygon fill="#bfbfbf" stroke="black" points="0.3535,-67 0.3535,-99 129.647,-99 129.647,-67 0.3535,-67"/>
<text text-anchor="start" x="8.3535" y="-86" font-family="Ubuntu-R" font-size="10.00">forcebalance.psi4io.THCDF</text>
<text text-anchor="middle" x="65" y="-74" font-family="Ubuntu-R" font-size="10.00">_Psi4.write_nested_destroy</text>
</g>
<!-- Node2 -->
<g id="node2" class="node"><title>Node2</title>
<g id="a_node2"><a xlink:href="classforcebalance_1_1psi4io_1_1THCDF__Psi4.html#a14993bd872840bd869fefced495e7ba2" target="_top" xlink:title="forcebalance.psi4io.THCDF\l_Psi4.driver">
<polygon fill="white" stroke="black" points="166.353,-90 166.353,-122 295.647,-122 295.647,-90 166.353,-90"/>
<text text-anchor="start" x="174.353" y="-109" font-family="Ubuntu-R" font-size="10.00">forcebalance.psi4io.THCDF</text>
<text text-anchor="middle" x="231" y="-97" font-family="Ubuntu-R" font-size="10.00">_Psi4.driver</text>
</a>
</g>
</g>
<!-- Node1&#45;&gt;Node2 -->
<g id="edge1" class="edge"><title>Node1&#45;&gt;Node2</title>
<path fill="none" stroke="midnightblue" d="M129.876,-85.357C138.567,-86.4311 147.544,-87.6509 156.39,-88.9581"/>
<polygon fill="midnightblue" stroke="midnightblue" points="155.885,-92.4215 166.298,-90.4678 156.939,-85.5014 155.885,-92.4215"/>
</g>
<!-- Node5 -->
<g id="node5" class="node"><title>Node5</title>
<g id="a_node5"><a xlink:href="namespaceforcebalance_1_1finite__difference.html#ad84d3e385db1190e7d8ef58bc08a6c52" target="_top" xlink:title="Invoking this function from anywhere will tell us whether we&#39;re being called by a finite&#45;difference f...">
<polygon fill="white" stroke="black" points="342.662,-45 342.662,-77 433.338,-77 433.338,-45 342.662,-45"/>
<text text-anchor="start" x="350.662" y="-64" font-family="Ubuntu-R" font-size="10.00">forcebalance.finite</text>
<text text-anchor="middle" x="388" y="-52" font-family="Ubuntu-R" font-size="10.00">_difference.in_fd</text>
</a>
</g>
</g>
<!-- Node1&#45;&gt;Node5 -->
<g id="edge6" class="edge"><title>Node1&#45;&gt;Node5</title>
<path fill="none" stroke="midnightblue" d="M129.803,-78.6272C189.014,-74.5691 276.218,-68.5925 332.315,-64.7479"/>
<polygon fill="midnightblue" stroke="midnightblue" points="332.677,-68.2314 342.414,-64.0558 332.198,-61.2478 332.677,-68.2314"/>
</g>
<!-- Node6 -->
<g id="node6" class="node"><title>Node6</title>
<g id="a_node6"><a xlink:href="namespaceforcebalance_1_1leastsq.html#a8e7ef329e27aff738bc91dd79bd2dd1c" target="_top" xlink:title="forcebalance.leastsq.Check\lBasis">
<polygon fill="white" stroke="black" points="168.584,-0 168.584,-32 293.416,-32 293.416,-0 168.584,-0"/>
<text text-anchor="start" x="176.584" y="-19" font-family="Ubuntu-R" font-size="10.00">forcebalance.leastsq.Check</text>
<text text-anchor="middle" x="231" y="-7" font-family="Ubuntu-R" font-size="10.00">Basis</text>
</a>
</g>
</g>
<!-- Node1&#45;&gt;Node6 -->
<g id="edge7" class="edge"><title>Node1&#45;&gt;Node6</title>
<path fill="none" stroke="midnightblue" d="M105.282,-66.9518C128.12,-57.6216 157.092,-45.7855 181.363,-35.87"/>
<polygon fill="midnightblue" stroke="midnightblue" points="182.821,-39.0552 190.755,-32.0332 180.174,-32.5751 182.821,-39.0552"/>
</g>
<!-- Node2&#45;&gt;Node1 -->
<g id="edge2" class="edge"><title>Node2&#45;&gt;Node1</title>
<path fill="none" stroke="midnightblue" d="M166.298,-103.665C157.611,-102.592 148.635,-101.374 139.788,-100.068"/>
<polygon fill="midnightblue" stroke="midnightblue" points="140.289,-96.6042 129.876,-98.5595 139.236,-103.524 140.289,-96.6042"/>
</g>
<!-- Node3 -->
<g id="node3" class="node"><title>Node3</title>
<g id="a_node3"><a xlink:href="namespaceforcebalance_1_1nifty.html#abb8f59044961a12588e0653c2baa8b01" target="_top" xlink:title="forcebalance.nifty.warn\l_press_key">
<polygon fill="white" stroke="black" points="332.527,-96 332.527,-128 443.473,-128 443.473,-96 332.527,-96"/>
<text text-anchor="start" x="340.527" y="-115" font-family="Ubuntu-R" font-size="10.00">forcebalance.nifty.warn</text>
<text text-anchor="middle" x="388" y="-103" font-family="Ubuntu-R" font-size="10.00">_press_key</text>
</a>
</g>
</g>
<!-- Node2&#45;&gt;Node3 -->
<g id="edge3" class="edge"><title>Node2&#45;&gt;Node3</title>
<path fill="none" stroke="midnightblue" d="M295.939,-108.475C304.57,-108.809 313.433,-109.152 322.081,-109.487"/>
<polygon fill="midnightblue" stroke="midnightblue" points="321.979,-112.986 332.107,-109.875 322.25,-105.991 321.979,-112.986"/>
</g>
<!-- Node2&#45;&gt;Node5 -->
<g id="edge5" class="edge"><title>Node2&#45;&gt;Node5</title>
<path fill="none" stroke="midnightblue" d="M287.521,-89.8811C302.201,-85.619 318.029,-81.0239 332.646,-76.7801"/>
<polygon fill="midnightblue" stroke="midnightblue" points="333.917,-80.0559 342.544,-73.9065 331.965,-73.3335 333.917,-80.0559"/>
</g>
<!-- Node4 -->
<g id="node4" class="node"><title>Node4</title>
<g id="a_node4"><a xlink:href="namespaceforcebalance_1_1nifty.html#a2fc81730e7efa7d138dd86f733507bfc" target="_top" xlink:title="Similar to the bultin function map().">
<polygon fill="white" stroke="black" points="480.035,-102 480.035,-122 635.965,-122 635.965,-102 480.035,-102"/>
<text text-anchor="middle" x="558" y="-109" font-family="Ubuntu-R" font-size="10.00">forcebalance.nifty.concurrent_map</text>
</a>
</g>
</g>
<!-- Node3&#45;&gt;Node4 -->
<g id="edge4" class="edge"><title>Node3&#45;&gt;Node4</title>
<path fill="none" stroke="midnightblue" d="M443.545,-112C451.968,-112 460.843,-112 469.768,-112"/>
<polygon fill="midnightblue" stroke="midnightblue" points="469.843,-115.5 479.843,-112 469.843,-108.5 469.843,-115.5"/>
</g>
</g>
</svg>
