<?xml version="1.0" encoding="UTF-8" standalone="no"?>
<!DOCTYPE svg PUBLIC "-//W3C//DTD SVG 1.1//EN"
 "http://www.w3.org/Graphics/SVG/1.1/DTD/svg11.dtd">
<!-- Generated by graphviz version 2.28.0 (20111219.2309)
 -->
<!-- Title: G Pages: 1 -->
<svg width="894pt" height="28pt"
 viewBox="0.00 0.00 894.00 28.00" xmlns="http://www.w3.org/2000/svg" xmlns:xlink="http://www.w3.org/1999/xlink">
<g id="graph1" class="graph" transform="scale(1 1) rotate(0) translate(4 24)">
<title>G</title>
<polygon fill="white" stroke="white" points="-4,5 -4,-24 891,-24 891,5 -4,5"/>
<!-- Node1 -->
<g id="node1" class="node"><title>Node1</title>
<polygon fill="#bfbfbf" stroke="black" points="0.5,-0.5 0.5,-19.5 271.5,-19.5 271.5,-0.5 0.5,-0.5"/>
<text text-anchor="middle" x="136" y="-7.5" font-family="Ubuntu-R" font-size="10.00">forcebalance.output.ForceBalanceLogger.addHandler</text>
</g>
<!-- Node2 -->
<g id="node3" class="node"><title>Node2</title>
<a xlink:href="classforcebalance_1_1output_1_1ForceBalanceLogger.html#ad8aa2fcfa32166607ee3d0cb0dcebd2d" target="_top" xlink:title="forcebalance.output.ForceBalanceLogger.removeHandler">
<polygon fill="white" stroke="black" points="308,-0.5 308,-19.5 598,-19.5 598,-0.5 308,-0.5"/>
<text text-anchor="middle" x="453" y="-7.5" font-family="Ubuntu-R" font-size="10.00">forcebalance.output.ForceBalanceLogger.removeHandler</text>
</a>
</g>
<!-- Node1&#45;&gt;Node2 -->
<g id="edge2" class="edge"><title>Node1&#45;&gt;Node2</title>
<path fill="none" stroke="midnightblue" d="M271.502,-3.31437C280.156,-3.26562 288.904,-3.24456 297.639,-3.25119"/>
<polygon fill="midnightblue" stroke="midnightblue" points="297.874,-6.75157 307.881,-3.2717 297.888,0.248413 297.874,-6.75157"/>
</g>
<!-- Node2&#45;&gt;Node1 -->
<g id="edge4" class="edge"><title>Node2&#45;&gt;Node1</title>
<path fill="none" stroke="midnightblue" d="M307.881,-16.7283C299.173,-16.7566 290.409,-16.7572 281.698,-16.7301"/>
<polygon fill="midnightblue" stroke="midnightblue" points="281.517,-13.2294 271.502,-16.6856 281.487,-20.2293 281.517,-13.2294"/>
</g>
<!-- Node3 -->
<g id="node6" class="node"><title>Node3</title>
<a xlink:href="classforcebalance_1_1output_1_1ForceBalanceLogger.html#aebc2ee02e48bab63b37dfbe1f8db5683" target="_top" xlink:title="forcebalance.output.ForceBalanceLogger.__init__">
<polygon fill="white" stroke="black" points="634.5,-0.5 634.5,-19.5 885.5,-19.5 885.5,-0.5 634.5,-0.5"/>
<text text-anchor="middle" x="760" y="-7.5" font-family="Ubuntu-R" font-size="10.00">forcebalance.output.ForceBalanceLogger.__init__</text>
</a>
</g>
<!-- Node2&#45;&gt;Node3 -->
<g id="edge6" class="edge"><title>Node2&#45;&gt;Node3</title>
<path fill="none" stroke="midnightblue" d="M598.015,-10C606.773,-10 615.568,-10 624.285,-10"/>
<polygon fill="midnightblue" stroke="midnightblue" points="624.475,-13.5001 634.475,-10 624.475,-6.5001 624.475,-13.5001"/>
</g>
</g>
</svg>
