<?xml version="1.0" encoding="UTF-8" standalone="no"?>
<!DOCTYPE svg PUBLIC "-//W3C//DTD SVG 1.1//EN"
 "http://www.w3.org/Graphics/SVG/1.1/DTD/svg11.dtd">
<!-- Generated by graphviz version 2.28.0 (20111219.2309)
 -->
<!-- Title: forcebalance.Mol2.mol2_atom.set_status_bit Pages: 1 -->
<svg width="1148pt" height="298pt"
 viewBox="0.00 0.00 1148.00 298.25" xmlns="http://www.w3.org/2000/svg" xmlns:xlink="http://www.w3.org/1999/xlink">
<g id="graph1" class="graph" transform="scale(1 1) rotate(0) translate(4 294.254)">
<title>forcebalance.Mol2.mol2_atom.set_status_bit</title>
<polygon fill="white" stroke="white" points="-4,5 -4,-294.254 1145,-294.254 1145,5 -4,5"/>
<!-- Node1 -->
<g id="node1" class="node"><title>Node1</title>
<polygon fill="#bfbfbf" stroke="black" points="0.5,-111 0.5,-141 131.5,-141 131.5,-111 0.5,-111"/>
<text text-anchor="start" x="8.5" y="-129" font-family="Ubuntu-R" font-size="10.00">forcebalance.Mol2.mol2</text>
<text text-anchor="middle" x="66" y="-118" font-family="Ubuntu-R" font-size="10.00">_atom.set_status_bit</text>
</g>
<!-- Node2 -->
<g id="node3" class="node"><title>Node2</title>
<a xlink:href="classforcebalance_1_1Mol2_1_1mol2__atom.html#a1d745e4db9ba351cb8e4e53bf544132c" target="_top" xlink:title="if data is passed, it will be installed ">
<polygon fill="white" stroke="black" points="168.5,-160 168.5,-190 299.5,-190 299.5,-160 168.5,-160"/>
<text text-anchor="start" x="176.5" y="-178" font-family="Ubuntu-R" font-size="10.00">forcebalance.Mol2.mol2</text>
<text text-anchor="middle" x="234" y="-167" font-family="Ubuntu-R" font-size="10.00">_atom.__init__</text>
</a>
</g>
<!-- Node1&#45;&gt;Node2 -->
<g id="edge2" class="edge"><title>Node1&#45;&gt;Node2</title>
<path fill="none" stroke="midnightblue" d="M118.16,-141.101C135.281,-146.155 154.532,-151.838 172.308,-157.085"/>
<polygon fill="midnightblue" stroke="midnightblue" points="171.427,-160.474 182.009,-159.948 173.409,-153.76 171.427,-160.474"/>
</g>
<!-- Node3 -->
<g id="node5" class="node"><title>Node3</title>
<a xlink:href="classforcebalance_1_1Mol2_1_1mol2__atom.html#a29aaa00b8fa91f4d18cef387622d339d" target="_top" xlink:title="split the text line into a series of properties ">
<polygon fill="white" stroke="black" points="168.5,-111 168.5,-141 299.5,-141 299.5,-111 168.5,-111"/>
<text text-anchor="start" x="176.5" y="-129" font-family="Ubuntu-R" font-size="10.00">forcebalance.Mol2.mol2</text>
<text text-anchor="middle" x="234" y="-118" font-family="Ubuntu-R" font-size="10.00">_atom.parse</text>
</a>
</g>
<!-- Node1&#45;&gt;Node3 -->
<g id="edge4" class="edge"><title>Node1&#45;&gt;Node3</title>
<path fill="none" stroke="midnightblue" d="M131.655,-119.399C140.292,-119.257 149.208,-119.216 158.003,-119.278"/>
<polygon fill="midnightblue" stroke="midnightblue" points="158.208,-122.78 168.248,-119.397 158.29,-115.781 158.208,-122.78"/>
</g>
<!-- Node9 -->
<g id="node22" class="node"><title>Node9</title>
<a xlink:href="classforcebalance_1_1Mol2_1_1mol2__atom.html#a2e0ecf1c6da8fde8ab146d4341ac1341" target="_top" xlink:title="assemble the properties as a text line, and return it ">
<polygon fill="white" stroke="black" points="336.5,-67 336.5,-97 467.5,-97 467.5,-67 336.5,-67"/>
<text text-anchor="start" x="344.5" y="-85" font-family="Ubuntu-R" font-size="10.00">forcebalance.Mol2.mol2</text>
<text text-anchor="middle" x="402" y="-74" font-family="Ubuntu-R" font-size="10.00">_atom.__repr__</text>
</a>
</g>
<!-- Node1&#45;&gt;Node9 -->
<g id="edge36" class="edge"><title>Node1&#45;&gt;Node9</title>
<path fill="none" stroke="midnightblue" d="M120.918,-110.949C136.048,-107.192 152.579,-103.52 168,-101 220.505,-92.4186 280.332,-87.6437 326.215,-85.027"/>
<polygon fill="midnightblue" stroke="midnightblue" points="326.584,-88.5122 336.377,-84.4697 326.201,-81.5227 326.584,-88.5122"/>
</g>
<!-- Node3&#45;&gt;Node1 -->
<g id="edge24" class="edge"><title>Node3&#45;&gt;Node1</title>
<path fill="none" stroke="midnightblue" d="M168.248,-132.603C159.609,-132.744 150.693,-132.784 141.898,-132.721"/>
<polygon fill="midnightblue" stroke="midnightblue" points="141.696,-129.219 131.655,-132.601 141.614,-136.218 141.696,-129.219"/>
</g>
<!-- Node4 -->
<g id="node7" class="node"><title>Node4</title>
<a xlink:href="classforcebalance_1_1Mol2_1_1mol2__atom.html#a3a6c9728119ace119108183920689a9d" target="_top" xlink:title="the coordinates of the atom ">
<polygon fill="white" stroke="black" points="672.5,-193 672.5,-223 803.5,-223 803.5,-193 672.5,-193"/>
<text text-anchor="start" x="680.5" y="-211" font-family="Ubuntu-R" font-size="10.00">forcebalance.Mol2.mol2</text>
<text text-anchor="middle" x="738" y="-200" font-family="Ubuntu-R" font-size="10.00">_atom.set_crds</text>
</a>
</g>
<!-- Node3&#45;&gt;Node4 -->
<g id="edge6" class="edge"><title>Node3&#45;&gt;Node4</title>
<path fill="none" stroke="midnightblue" d="M283.032,-141.053C336.413,-157.095 425.457,-181.823 504,-194 556.495,-202.138 616.322,-205.613 662.208,-207.066"/>
<polygon fill="midnightblue" stroke="midnightblue" points="662.273,-210.569 672.37,-207.362 662.477,-203.572 662.273,-210.569"/>
</g>
<!-- Node5 -->
<g id="node9" class="node"><title>Node5</title>
<a xlink:href="classforcebalance_1_1Mol2_1_1mol2__atom.html#ae879ba27197a573b6e3e1e97f0b76aff" target="_top" xlink:title="substructure identifier ">
<polygon fill="white" stroke="black" points="840.5,-231 840.5,-261 971.5,-261 971.5,-231 840.5,-231"/>
<text text-anchor="start" x="848.5" y="-249" font-family="Ubuntu-R" font-size="10.00">forcebalance.Mol2.mol2</text>
<text text-anchor="middle" x="906" y="-238" font-family="Ubuntu-R" font-size="10.00">_atom.set_subst_id</text>
</a>
</g>
<!-- Node3&#45;&gt;Node5 -->
<g id="edge18" class="edge"><title>Node3&#45;&gt;Node5</title>
<path fill="none" stroke="midnightblue" d="M283.393,-141.09C289.182,-143.692 294.856,-146.656 300,-150 319.237,-162.505 315.641,-176.421 336,-187 496.397,-270.346 716.333,-265.003 830.073,-254.951"/>
<polygon fill="midnightblue" stroke="midnightblue" points="830.439,-258.432 840.076,-254.03 829.797,-251.462 830.439,-258.432"/>
</g>
<!-- Node6 -->
<g id="node11" class="node"><title>Node6</title>
<a xlink:href="classforcebalance_1_1Mol2_1_1mol2__atom.html#abfe80eac2952ad867d87e8b6e64f3c09" target="_top" xlink:title="atomic charge ">
<polygon fill="white" stroke="black" points="1008.5,-253 1008.5,-283 1139.5,-283 1139.5,-253 1008.5,-253"/>
<text text-anchor="start" x="1016.5" y="-271" font-family="Ubuntu-R" font-size="10.00">forcebalance.Mol2.mol2</text>
<text text-anchor="middle" x="1074" y="-260" font-family="Ubuntu-R" font-size="10.00">_atom.set_charge</text>
</a>
</g>
<!-- Node3&#45;&gt;Node6 -->
<g id="edge22" class="edge"><title>Node3&#45;&gt;Node6</title>
<path fill="none" stroke="midnightblue" d="M287.493,-141.144C292.004,-143.668 296.264,-146.599 300,-150 327.342,-174.89 307.665,-201.246 336,-225 418.389,-294.067 461.49,-290 569,-290 569,-290 569,-290 739,-290 828.268,-290 930.667,-282.079 998.295,-275.742"/>
<polygon fill="midnightblue" stroke="midnightblue" points="998.805,-279.21 1008.43,-274.78 998.143,-272.241 998.805,-279.21"/>
</g>
<!-- Node7 -->
<g id="node13" class="node"><title>Node7</title>
<a xlink:href="classforcebalance_1_1Mol2_1_1mol2__atom.html#a233ebfedcde7e5d75b0ec54f194d2b4f" target="_top" xlink:title="The mol2 type of the atom. ">
<polygon fill="white" stroke="black" points="672.5,-48 672.5,-78 803.5,-78 803.5,-48 672.5,-48"/>
<text text-anchor="start" x="680.5" y="-66" font-family="Ubuntu-R" font-size="10.00">forcebalance.Mol2.mol2</text>
<text text-anchor="middle" x="738" y="-55" font-family="Ubuntu-R" font-size="10.00">_atom.set_atom_type</text>
</a>
</g>
<!-- Node3&#45;&gt;Node7 -->
<g id="edge12" class="edge"><title>Node3&#45;&gt;Node7</title>
<path fill="none" stroke="midnightblue" d="M250.515,-110.879C269.068,-93.9565 301.914,-67.5319 336,-57 445.678,-23.1121 580.411,-35.363 662.433,-48.3787"/>
<polygon fill="midnightblue" stroke="midnightblue" points="661.983,-51.8513 672.416,-50.008 663.11,-44.9427 661.983,-51.8513"/>
</g>
<!-- Node8 -->
<g id="node15" class="node"><title>Node8</title>
<a xlink:href="classforcebalance_1_1Mol2_1_1mol2__atom.html#af149e1d049adee0318eef510a8d32f9c" target="_top" xlink:title="substructure name ">
<polygon fill="white" stroke="black" points="840.5,-48 840.5,-78 971.5,-78 971.5,-48 840.5,-48"/>
<text text-anchor="start" x="848.5" y="-66" font-family="Ubuntu-R" font-size="10.00">forcebalance.Mol2.mol2</text>
<text text-anchor="middle" x="906" y="-55" font-family="Ubuntu-R" font-size="10.00">_atom.set_subst_name</text>
</a>
</g>
<!-- Node3&#45;&gt;Node8 -->
<g id="edge20" class="edge"><title>Node3&#45;&gt;Node8</title>
<path fill="none" stroke="midnightblue" d="M299.525,-125.948C405.586,-124.887 623.065,-118.61 804,-87 814.738,-85.124 826.041,-82.7947 837.041,-80.3311"/>
<polygon fill="midnightblue" stroke="midnightblue" points="838.068,-83.6864 847.033,-78.0399 836.504,-76.8634 838.068,-83.6864"/>
</g>
<!-- Node3&#45;&gt;Node9 -->
<g id="edge26" class="edge"><title>Node3&#45;&gt;Node9</title>
<path fill="none" stroke="midnightblue" d="M291.663,-110.981C305.476,-107.32 320.374,-103.371 334.595,-99.6013"/>
<polygon fill="midnightblue" stroke="midnightblue" points="335.541,-102.972 344.31,-97.0262 333.747,-96.2052 335.541,-102.972"/>
</g>
<!-- Node4&#45;&gt;Node5 -->
<g id="edge8" class="edge"><title>Node4&#45;&gt;Node5</title>
<path fill="none" stroke="midnightblue" d="M803.655,-222.801C812.386,-224.799 821.402,-226.863 830.29,-228.898"/>
<polygon fill="midnightblue" stroke="midnightblue" points="829.719,-232.358 840.248,-231.177 831.281,-225.534 829.719,-232.358"/>
</g>
<!-- Node5&#45;&gt;Node6 -->
<g id="edge10" class="edge"><title>Node5&#45;&gt;Node6</title>
<path fill="none" stroke="midnightblue" d="M971.655,-254.569C980.386,-255.726 989.402,-256.921 998.29,-258.099"/>
<polygon fill="midnightblue" stroke="midnightblue" points="997.875,-261.574 1008.25,-259.418 998.795,-254.635 997.875,-261.574"/>
</g>
<!-- Node7&#45;&gt;Node8 -->
<g id="edge14" class="edge"><title>Node7&#45;&gt;Node8</title>
<path fill="none" stroke="midnightblue" d="M803.655,-63C812.292,-63 821.208,-63 830.003,-63"/>
<polygon fill="midnightblue" stroke="midnightblue" points="830.248,-66.5001 840.248,-63 830.248,-59.5001 830.248,-66.5001"/>
</g>
<!-- Node8&#45;&gt;Node1 -->
<g id="edge16" class="edge"><title>Node8&#45;&gt;Node1</title>
<path fill="none" stroke="midnightblue" d="M856.585,-47.99C792.088,-29.3559 674.118,-0 571,-0 401,-0 401,-0 401,-0 283.05,-0 155.877,-69.6389 98.3841,-105.373"/>
<polygon fill="midnightblue" stroke="midnightblue" points="96.3628,-102.51 89.7672,-110.801 100.094,-108.433 96.3628,-102.51"/>
</g>
<!-- Node10 -->
<g id="node24" class="node"><title>Node10</title>
<a xlink:href="classforcebalance_1_1Mol2_1_1mol2__atom.html#a1af054109bd2d27c29e89b5da0f70920" target="_top" xlink:title="atom identifier (integer, starting from 1) ">
<polygon fill="white" stroke="black" points="504.5,-155 504.5,-185 635.5,-185 635.5,-155 504.5,-155"/>
<text text-anchor="start" x="512.5" y="-173" font-family="Ubuntu-R" font-size="10.00">forcebalance.Mol2.mol2</text>
<text text-anchor="middle" x="570" y="-162" font-family="Ubuntu-R" font-size="10.00">_atom.set_atom_id</text>
</a>
</g>
<!-- Node9&#45;&gt;Node10 -->
<g id="edge28" class="edge"><title>Node9&#45;&gt;Node10</title>
<path fill="none" stroke="midnightblue" d="M431.536,-97.1277C459.175,-111.78 501.24,-134.079 531.556,-150.15"/>
<polygon fill="midnightblue" stroke="midnightblue" points="530.084,-153.331 540.559,-154.923 533.363,-147.147 530.084,-153.331"/>
</g>
<!-- Node11 -->
<g id="node27" class="node"><title>Node11</title>
<a xlink:href="classforcebalance_1_1Mol2_1_1mol2__atom.html#a4d57220ec5b591ad018112d600d4cc8b" target="_top" xlink:title="The name of the atom (string) ">
<polygon fill="white" stroke="black" points="504.5,-67 504.5,-97 635.5,-97 635.5,-67 504.5,-67"/>
<text text-anchor="start" x="512.5" y="-85" font-family="Ubuntu-R" font-size="10.00">forcebalance.Mol2.mol2</text>
<text text-anchor="middle" x="570" y="-74" font-family="Ubuntu-R" font-size="10.00">_atom.set_atom_name</text>
</a>
</g>
<!-- Node9&#45;&gt;Node11 -->
<g id="edge32" class="edge"><title>Node9&#45;&gt;Node11</title>
<path fill="none" stroke="midnightblue" d="M467.655,-82C476.292,-82 485.208,-82 494.003,-82"/>
<polygon fill="midnightblue" stroke="midnightblue" points="494.248,-85.5001 504.248,-82 494.248,-78.5001 494.248,-85.5001"/>
</g>
<!-- Node10&#45;&gt;Node4 -->
<g id="edge30" class="edge"><title>Node10&#45;&gt;Node4</title>
<path fill="none" stroke="midnightblue" d="M635.655,-184.801C644.386,-186.799 653.402,-188.863 662.29,-190.898"/>
<polygon fill="midnightblue" stroke="midnightblue" points="661.719,-194.358 672.248,-193.177 663.281,-187.534 661.719,-194.358"/>
</g>
<!-- Node11&#45;&gt;Node7 -->
<g id="edge34" class="edge"><title>Node11&#45;&gt;Node7</title>
<path fill="none" stroke="midnightblue" d="M635.655,-74.5997C644.386,-73.6004 653.402,-72.5684 662.29,-71.5512"/>
<polygon fill="midnightblue" stroke="midnightblue" points="662.711,-75.0259 672.248,-70.4114 661.915,-68.0713 662.711,-75.0259"/>
</g>
</g>
</svg>
