<?xml version="1.0" encoding="UTF-8" standalone="no"?>
<!DOCTYPE svg PUBLIC "-//W3C//DTD SVG 1.1//EN"
 "http://www.w3.org/Graphics/SVG/1.1/DTD/svg11.dtd">
<!-- Generated by graphviz version 2.32.0 (20130801.1845)
 -->
<!-- Title: forcebalance.liquid.Liquid.get Pages: 1 -->
<svg width="1814pt" height="797pt"
 viewBox="0.00 0.00 1814.00 797.00" xmlns="http://www.w3.org/2000/svg" xmlns:xlink="http://www.w3.org/1999/xlink">
<g id="graph0" class="graph" transform="scale(1 1) rotate(0) translate(4 793)">
<title>forcebalance.liquid.Liquid.get</title>
<polygon fill="white" stroke="white" points="-4,5 -4,-793 1811,-793 1811,5 -4,5"/>
<!-- Node1 -->
<g id="node1" class="node"><title>Node1</title>
<polygon fill="#bfbfbf" stroke="black" points="0.6035,-236 0.6035,-256 137.397,-256 137.397,-236 0.6035,-236"/>
<text text-anchor="middle" x="69" y="-243" font-family="Ubuntu-R" font-size="10.00">forcebalance.liquid.Liquid.get</text>
</g>
<!-- Node2 -->
<g id="node2" class="node"><title>Node2</title>
<g id="a_node2"><a xlink:href="namespaceforcebalance_1_1nifty.html#a577abfd36638c5f4dfdade136abaef12" target="_top" target="_top" target="_top" xlink:title="Use this instead of pickle.load for unpickling anything that contains _ElementTree types...">
<polygon fill="white" stroke="black" points="422.522,-644 422.522,-664 543.477,-664 543.477,-644 422.522,-644"/>
<text text-anchor="middle" x="483" y="-651" font-family="Ubuntu-R" font-size="10.00">forcebalance.nifty.lp_load</text>
</a>
</g>
</g>
<!-- Node1&#45;&gt;Node2 -->
<g id="edge1" class="edge"><title>Node1&#45;&gt;Node2</title>
<path fill="none" stroke="midnightblue" d="M70.4063,-256.285C72.6394,-298.711 86.8004,-461.982 174,-549 238.223,-613.089 343.084,-638.09 412.319,-647.824"/>
<polygon fill="midnightblue" stroke="midnightblue" points="411.891,-651.298 422.266,-649.152 412.817,-644.359 411.891,-651.298"/>
</g>
<!-- Node11 -->
<g id="node11" class="node"><title>Node11</title>
<g id="a_node11"><a xlink:href="classforcebalance_1_1gmxio_1_1Liquid__GMX.html#a70a950655df19e6ed0365ba873fd0cc5" target="_top" target="_top" target="_top" xlink:title="forcebalance.gmxio.Liquid\l_GMX.polarization_correction">
<polygon fill="white" stroke="black" points="196.939,-426 196.939,-458 337.061,-458 337.061,-426 196.939,-426"/>
<text text-anchor="start" x="204.939" y="-445" font-family="Ubuntu-R" font-size="10.00">forcebalance.gmxio.Liquid</text>
<text text-anchor="middle" x="267" y="-433" font-family="Ubuntu-R" font-size="10.00">_GMX.polarization_correction</text>
</a>
</g>
</g>
<!-- Node1&#45;&gt;Node11 -->
<g id="edge11" class="edge"><title>Node1&#45;&gt;Node11</title>
<path fill="none" stroke="midnightblue" d="M78.9136,-256.148C96.5698,-276.124 137.447,-321.753 174,-358 195.501,-379.321 221,-402.444 239.694,-419.022"/>
<polygon fill="midnightblue" stroke="midnightblue" points="237.445,-421.705 247.257,-425.702 242.078,-416.459 237.445,-421.705"/>
</g>
<!-- Node18 -->
<g id="node18" class="node"><title>Node18</title>
<g id="a_node18"><a xlink:href="classforcebalance_1_1liquid_1_1Liquid.html#a51ea9d9fb4418ec2497fe8e2d8033d41" target="_top" target="_top" target="_top" xlink:title="Return the self&#45;polarization correction as described in Berendsen et al., JPC 1987.">
<polygon fill="white" stroke="black" points="180.832,-147 180.832,-179 353.168,-179 353.168,-147 180.832,-147"/>
<text text-anchor="start" x="188.832" y="-166" font-family="Ubuntu-R" font-size="10.00">forcebalance.liquid.Liquid.polarization</text>
<text text-anchor="middle" x="267" y="-154" font-family="Ubuntu-R" font-size="10.00">_correction</text>
</a>
</g>
</g>
<!-- Node1&#45;&gt;Node18 -->
<g id="edge20" class="edge"><title>Node1&#45;&gt;Node18</title>
<path fill="none" stroke="midnightblue" d="M88.4239,-235.81C108.934,-224.699 143.248,-206.797 174,-194 183.67,-189.976 194.066,-186.079 204.266,-182.485"/>
<polygon fill="midnightblue" stroke="midnightblue" points="205.647,-185.711 213.955,-179.137 203.36,-179.095 205.647,-185.711"/>
</g>
<!-- Node19 -->
<g id="node19" class="node"><title>Node19</title>
<g id="a_node19"><a xlink:href="namespaceforcebalance_1_1finite__difference.html#aa69a8819e4680091f400303c1d6ddeb7" target="_top" target="_top" target="_top" xlink:title="A three&#45;point finite difference stencil.">
<polygon fill="white" stroke="black" points="220.825,-96 220.825,-128 313.175,-128 313.175,-96 220.825,-96"/>
<text text-anchor="start" x="228.825" y="-115" font-family="Ubuntu-R" font-size="10.00">forcebalance.finite</text>
<text text-anchor="middle" x="267" y="-103" font-family="Ubuntu-R" font-size="10.00">_difference.f12d3p</text>
</a>
</g>
</g>
<!-- Node1&#45;&gt;Node19 -->
<g id="edge21" class="edge"><title>Node1&#45;&gt;Node19</title>
<path fill="none" stroke="midnightblue" d="M76.7442,-235.83C91.6245,-214.211 129.504,-163.497 174,-137 185.109,-130.385 198.005,-125.479 210.562,-121.855"/>
<polygon fill="midnightblue" stroke="midnightblue" points="211.751,-125.161 220.52,-119.216 209.957,-118.395 211.751,-125.161"/>
</g>
<!-- Node21 -->
<g id="node21" class="node"><title>Node21</title>
<g id="a_node21"><a xlink:href="namespaceforcebalance_1_1finite__difference.html#ae484c591ae8c4e5bae73a0ef2660c339" target="_top" target="_top" target="_top" xlink:title="A function wrapper for finite difference designed for differentiating &#39;get&#39;&#45;type functions.">
<polygon fill="white" stroke="black" points="436.831,-51 436.831,-83 529.169,-83 529.169,-51 436.831,-51"/>
<text text-anchor="start" x="444.831" y="-70" font-family="Ubuntu-R" font-size="10.00">forcebalance.finite</text>
<text text-anchor="middle" x="483" y="-58" font-family="Ubuntu-R" font-size="10.00">_difference.fdwrap</text>
</a>
</g>
</g>
<!-- Node1&#45;&gt;Node21 -->
<g id="edge27" class="edge"><title>Node1&#45;&gt;Node21</title>
<path fill="none" stroke="midnightblue" d="M73.0457,-235.754C82.4194,-206.263 113.902,-121.052 174,-86 252.191,-40.3947 361.336,-46.7123 426.514,-56.28"/>
<polygon fill="midnightblue" stroke="midnightblue" points="426.169,-59.7681 436.586,-57.836 427.238,-52.8502 426.169,-59.7681"/>
</g>
<!-- Node24 -->
<g id="node24" class="node"><title>Node24</title>
<g id="a_node24"><a xlink:href="namespaceforcebalance_1_1nifty.html#a11babd62dc7bca389162c6318f9672ca" target="_top" target="_top" target="_top" xlink:title="Cool&#45;looking printout for slick formatting of output.">
<polygon fill="white" stroke="black" points="203.469,-329 203.469,-349 330.531,-349 330.531,-329 203.469,-329"/>
<text text-anchor="middle" x="267" y="-336" font-family="Ubuntu-R" font-size="10.00">forcebalance.nifty.printcool</text>
</a>
</g>
</g>
<!-- Node1&#45;&gt;Node24 -->
<g id="edge28" class="edge"><title>Node1&#45;&gt;Node24</title>
<path fill="none" stroke="midnightblue" d="M91.3485,-256.13C126.179,-272.656 195.354,-305.479 235.401,-324.481"/>
<polygon fill="midnightblue" stroke="midnightblue" points="234.143,-327.758 244.678,-328.883 237.144,-321.434 234.143,-327.758"/>
</g>
<!-- Node32 -->
<g id="node32" class="node"><title>Node32</title>
<g id="a_node32"><a xlink:href="namespaceforcebalance_1_1nifty.html#afb3f205bce4984856e766af7e9fdaca8" target="_top" target="_top" target="_top" xlink:title="Given any list, array, or matrix, return a 1&#45;column matrix.">
<polygon fill="white" stroke="black" points="984.412,-255 984.412,-275 1087.59,-275 1087.59,-255 984.412,-255"/>
<text text-anchor="middle" x="1036" y="-262" font-family="Ubuntu-R" font-size="10.00">forcebalance.nifty.col</text>
</a>
</g>
</g>
<!-- Node1&#45;&gt;Node32 -->
<g id="edge49" class="edge"><title>Node1&#45;&gt;Node32</title>
<path fill="none" stroke="midnightblue" d="M137.44,-246C219.035,-246 360.582,-246 482,-246 482,-246 482,-246 679,-246 782.826,-246 903.444,-254.158 974.266,-259.783"/>
<polygon fill="midnightblue" stroke="midnightblue" points="974.097,-263.281 984.345,-260.593 974.658,-256.303 974.097,-263.281"/>
</g>
<!-- Node33 -->
<g id="node33" class="node"><title>Node33</title>
<g id="a_node33"><a xlink:href="namespaceforcebalance_1_1nifty.html#a52114ceee9d55f94d9aecb3e176de294" target="_top" target="_top" target="_top" xlink:title="Given any list, array, or matrix, return a single&#45;index array.">
<polygon fill="white" stroke="black" points="1143.86,-233 1143.86,-253 1248.14,-253 1248.14,-233 1143.86,-233"/>
<text text-anchor="middle" x="1196" y="-240" font-family="Ubuntu-R" font-size="10.00">forcebalance.nifty.flat</text>
</a>
</g>
</g>
<!-- Node1&#45;&gt;Node33 -->
<g id="edge47" class="edge"><title>Node1&#45;&gt;Node33</title>
<path fill="none" stroke="midnightblue" d="M137.265,-235.966C218.688,-224.708 360.066,-208 482,-208 482,-208 482,-208 865,-208 959.062,-208 1067.37,-222.236 1133.49,-232.549"/>
<polygon fill="midnightblue" stroke="midnightblue" points="1133.31,-236.064 1143.73,-234.168 1134.4,-229.15 1133.31,-236.064"/>
</g>
<!-- Node37 -->
<g id="node37" class="node"><title>Node37</title>
<g id="a_node37"><a xlink:href="namespaceforcebalance_1_1liquid.html#a6f7d54263236f8788c319aee86b460b6" target="_top" target="_top" target="_top" xlink:title="forcebalance.liquid.weight_info">
<polygon fill="white" stroke="black" points="195.134,-18 195.134,-38 338.866,-38 338.866,-18 195.134,-18"/>
<text text-anchor="middle" x="267" y="-25" font-family="Ubuntu-R" font-size="10.00">forcebalance.liquid.weight_info</text>
</a>
</g>
</g>
<!-- Node1&#45;&gt;Node37 -->
<g id="edge48" class="edge"><title>Node1&#45;&gt;Node37</title>
<path fill="none" stroke="midnightblue" d="M72.4423,-235.76C80.6717,-203.542 110.501,-103.404 174,-53 179.487,-48.6443 185.675,-45.0455 192.182,-42.0724"/>
<polygon fill="midnightblue" stroke="midnightblue" points="193.937,-45.1384 201.899,-38.1488 191.316,-38.6476 193.937,-45.1384"/>
</g>
<!-- Node38 -->
<g id="node38" class="node"><title>Node38</title>
<g id="a_node38"><a xlink:href="classforcebalance_1_1liquid_1_1Liquid.html#a00c23db61bcb86cc19f79dacdb2bc1f3" target="_top" target="_top" target="_top" xlink:title="forcebalance.liquid.Liquid.objective_term">
<polygon fill="white" stroke="black" points="174.722,-520 174.722,-540 359.278,-540 359.278,-520 174.722,-520"/>
<text text-anchor="middle" x="267" y="-527" font-family="Ubuntu-R" font-size="10.00">forcebalance.liquid.Liquid.objective_term</text>
</a>
</g>
</g>
<!-- Node1&#45;&gt;Node38 -->
<g id="edge50" class="edge"><title>Node1&#45;&gt;Node38</title>
<path fill="none" stroke="midnightblue" d="M70.9572,-256.183C75.1394,-294.766 95.2952,-433.35 174,-504 179.228,-508.693 185.243,-512.545 191.64,-515.706"/>
<polygon fill="midnightblue" stroke="midnightblue" points="190.673,-519.101 201.241,-519.859 193.453,-512.676 190.673,-519.101"/>
</g>
<!-- Node3 -->
<g id="node3" class="node"><title>Node3</title>
<g id="a_node3"><a xlink:href="namespaceforcebalance_1_1nifty.html#a673f4a044169f5d8d822823989a836a7" target="_top" target="_top" target="_top" xlink:title="Submit a job to the Work Queue.">
<polygon fill="white" stroke="black" points="799.082,-725 799.082,-745 928.918,-745 928.918,-725 799.082,-725"/>
<text text-anchor="middle" x="864" y="-732" font-family="Ubuntu-R" font-size="10.00">forcebalance.nifty.queue_up</text>
</a>
</g>
</g>
<!-- Node2&#45;&gt;Node3 -->
<g id="edge2" class="edge"><title>Node2&#45;&gt;Node3</title>
<path fill="none" stroke="midnightblue" d="M499.386,-664.16C521.782,-678.359 565.155,-703.667 606,-715 666.036,-731.658 736.781,-736.113 788.831,-736.711"/>
<polygon fill="midnightblue" stroke="midnightblue" points="788.959,-740.212 798.983,-736.781 789.008,-733.212 788.959,-740.212"/>
</g>
<!-- Node4 -->
<g id="node4" class="node"><title>Node4</title>
<g id="a_node4"><a xlink:href="namespaceforcebalance_1_1nifty.html#a374aac2ef003be02fab49b20ff0a82f0" target="_top" target="_top" target="_top" xlink:title="This function waits ten seconds to see if a task in the Work Queue has finished.">
<polygon fill="white" stroke="black" points="984.412,-719 984.412,-751 1087.59,-751 1087.59,-719 984.412,-719"/>
<text text-anchor="start" x="992.412" y="-738" font-family="Ubuntu-R" font-size="10.00">forcebalance.nifty.wq</text>
<text text-anchor="middle" x="1036" y="-726" font-family="Ubuntu-R" font-size="10.00">_wait1</text>
</a>
</g>
</g>
<!-- Node3&#45;&gt;Node4 -->
<g id="edge3" class="edge"><title>Node3&#45;&gt;Node4</title>
<path fill="none" stroke="midnightblue" d="M929.27,-735C943.872,-735 959.344,-735 973.815,-735"/>
<polygon fill="midnightblue" stroke="midnightblue" points="974.147,-738.5 984.147,-735 974.147,-731.5 974.147,-738.5"/>
</g>
<!-- Node5 -->
<g id="node5" class="node"><title>Node5</title>
<g id="a_node5"><a xlink:href="namespaceforcebalance_1_1nifty.html#a576de8c5b6f236280e07e73e39b2ab7c" target="_top" target="_top" target="_top" xlink:title="This function waits until the work queue is completely empty.">
<polygon fill="white" stroke="black" points="1133.3,-744 1133.3,-764 1258.7,-764 1258.7,-744 1133.3,-744"/>
<text text-anchor="middle" x="1196" y="-751" font-family="Ubuntu-R" font-size="10.00">forcebalance.nifty.wq_wait</text>
</a>
</g>
</g>
<!-- Node4&#45;&gt;Node5 -->
<g id="edge4" class="edge"><title>Node4&#45;&gt;Node5</title>
<path fill="none" stroke="midnightblue" d="M1087.86,-741.116C1099.14,-742.472 1111.29,-743.934 1123.23,-745.369"/>
<polygon fill="midnightblue" stroke="midnightblue" points="1122.83,-748.847 1133.18,-746.566 1123.67,-741.897 1122.83,-748.847"/>
</g>
<!-- Node6 -->
<g id="node6" class="node"><title>Node6</title>
<g id="a_node6"><a xlink:href="namespaceforcebalance_1_1nifty.html#ac9ab6c5543a2e3080061e0024850edf3" target="_top" target="_top" target="_top" xlink:title="forcebalance.nifty.allsplit">
<polygon fill="white" stroke="black" points="1305.91,-763 1305.91,-783 1424.09,-783 1424.09,-763 1305.91,-763"/>
<text text-anchor="middle" x="1365" y="-770" font-family="Ubuntu-R" font-size="10.00">forcebalance.nifty.allsplit</text>
</a>
</g>
</g>
<!-- Node4&#45;&gt;Node6 -->
<g id="edge9" class="edge"><title>Node4&#45;&gt;Node6</title>
<path fill="none" stroke="midnightblue" d="M1067.91,-751.168C1085.57,-759.493 1108.44,-768.764 1130,-773 1184.96,-783.796 1248.6,-782.963 1295.63,-779.895"/>
<polygon fill="midnightblue" stroke="midnightblue" points="1295.97,-783.38 1305.7,-779.187 1295.48,-776.397 1295.97,-783.38"/>
</g>
<!-- Node9 -->
<g id="node9" class="node"><title>Node9</title>
<g id="a_node9"><a xlink:href="namespaceforcebalance_1_1nifty.html#ad432b88307e1178b0690c0d350b1af36" target="_top" target="_top" target="_top" xlink:title="forcebalance.nifty.GoInto">
<polygon fill="white" stroke="black" points="1136.36,-705 1136.36,-725 1255.64,-725 1255.64,-705 1136.36,-705"/>
<text text-anchor="middle" x="1196" y="-712" font-family="Ubuntu-R" font-size="10.00">forcebalance.nifty.GoInto</text>
</a>
</g>
</g>
<!-- Node4&#45;&gt;Node9 -->
<g id="edge8" class="edge"><title>Node4&#45;&gt;Node9</title>
<path fill="none" stroke="midnightblue" d="M1087.86,-728.562C1100.03,-727.021 1113.23,-725.35 1126.07,-723.726"/>
<polygon fill="midnightblue" stroke="midnightblue" points="1126.78,-727.164 1136.26,-722.435 1125.9,-720.219 1126.78,-727.164"/>
</g>
<!-- Node10 -->
<g id="node10" class="node"><title>Node10</title>
<g id="a_node10"><a xlink:href="namespaceforcebalance_1_1nifty.html#ab04e8690d099db2379dc860e0d040120" target="_top" target="_top" target="_top" xlink:title="forcebalance.nifty.Leave">
<polygon fill="white" stroke="black" points="1138.31,-666 1138.31,-686 1253.69,-686 1253.69,-666 1138.31,-666"/>
<text text-anchor="middle" x="1196" y="-673" font-family="Ubuntu-R" font-size="10.00">forcebalance.nifty.Leave</text>
</a>
</g>
</g>
<!-- Node4&#45;&gt;Node10 -->
<g id="edge10" class="edge"><title>Node4&#45;&gt;Node10</title>
<path fill="none" stroke="midnightblue" d="M1072.89,-718.976C1090.02,-711.578 1110.91,-702.922 1130,-696 1136.49,-693.648 1143.4,-691.327 1150.21,-689.146"/>
<polygon fill="midnightblue" stroke="midnightblue" points="1151.55,-692.394 1160.04,-686.063 1149.46,-685.715 1151.55,-692.394"/>
</g>
<!-- Node5&#45;&gt;Node6 -->
<g id="edge5" class="edge"><title>Node5&#45;&gt;Node6</title>
<path fill="none" stroke="midnightblue" d="M1258.71,-761.021C1270.76,-762.392 1283.46,-763.837 1295.71,-765.23"/>
<polygon fill="midnightblue" stroke="midnightblue" points="1295.54,-768.733 1305.87,-766.386 1296.33,-761.778 1295.54,-768.733"/>
</g>
<!-- Node7 -->
<g id="node7" class="node"><title>Node7</title>
<g id="a_node7"><a xlink:href="namespaceforcebalance_1_1nifty.html#ae87c7def5f8edf2ec30737bdb1d2636f" target="_top" target="_top" target="_top" xlink:title="forcebalance.nifty.Missing\lFileInspection">
<polygon fill="white" stroke="black" points="1479.41,-757 1479.41,-789 1602.59,-789 1602.59,-757 1479.41,-757"/>
<text text-anchor="start" x="1487.41" y="-776" font-family="Ubuntu-R" font-size="10.00">forcebalance.nifty.Missing</text>
<text text-anchor="middle" x="1541" y="-764" font-family="Ubuntu-R" font-size="10.00">FileInspection</text>
</a>
</g>
</g>
<!-- Node6&#45;&gt;Node7 -->
<g id="edge6" class="edge"><title>Node6&#45;&gt;Node7</title>
<path fill="none" stroke="midnightblue" d="M1424.42,-773C1438.78,-773 1454.31,-773 1469.18,-773"/>
<polygon fill="midnightblue" stroke="midnightblue" points="1469.35,-776.5 1479.35,-773 1469.35,-769.5 1469.35,-776.5"/>
</g>
<!-- Node8 -->
<g id="node8" class="node"><title>Node8</title>
<g id="a_node8"><a xlink:href="namespaceforcebalance_1_1nifty.html#a0cf4e58f90acf20e3d6224be2354082c" target="_top" target="_top" target="_top" xlink:title="forcebalance.nifty.link\l_dir_contents">
<polygon fill="white" stroke="black" points="1674.74,-757 1674.74,-789 1781.26,-789 1781.26,-757 1674.74,-757"/>
<text text-anchor="start" x="1682.74" y="-776" font-family="Ubuntu-R" font-size="10.00">forcebalance.nifty.link</text>
<text text-anchor="middle" x="1728" y="-764" font-family="Ubuntu-R" font-size="10.00">_dir_contents</text>
</a>
</g>
</g>
<!-- Node7&#45;&gt;Node8 -->
<g id="edge7" class="edge"><title>Node7&#45;&gt;Node8</title>
<path fill="none" stroke="midnightblue" d="M1602.83,-773C1622.56,-773 1644.48,-773 1664.34,-773"/>
<polygon fill="midnightblue" stroke="midnightblue" points="1664.51,-776.5 1674.51,-773 1664.51,-769.5 1664.51,-776.5"/>
</g>
<!-- Node12 -->
<g id="node12" class="node"><title>Node12</title>
<g id="a_node12"><a xlink:href="classforcebalance_1_1gmxio_1_1Liquid__GMX.html#a858330327e84a1186b9a932fe2437489" target="_top" target="_top" target="_top" xlink:title="forcebalance.gmxio.Liquid\l_GMX.__init__">
<polygon fill="white" stroke="black" points="615.852,-429 615.852,-461 740.148,-461 740.148,-429 615.852,-429"/>
<text text-anchor="start" x="623.852" y="-448" font-family="Ubuntu-R" font-size="10.00">forcebalance.gmxio.Liquid</text>
<text text-anchor="middle" x="678" y="-436" font-family="Ubuntu-R" font-size="10.00">_GMX.__init__</text>
</a>
</g>
</g>
<!-- Node11&#45;&gt;Node12 -->
<g id="edge12" class="edge"><title>Node11&#45;&gt;Node12</title>
<path fill="none" stroke="midnightblue" d="M337.381,-442.509C411.934,-443.056 529.852,-443.921 605.292,-444.474"/>
<polygon fill="midnightblue" stroke="midnightblue" points="605.62,-447.976 615.646,-444.55 605.672,-440.977 605.62,-447.976"/>
</g>
<!-- Node15 -->
<g id="node15" class="node"><title>Node15</title>
<g id="a_node15"><a xlink:href="classforcebalance_1_1gmxio_1_1Liquid__GMX.html#a499a65278055bae95d3789ed74f6dc60" target="_top" target="_top" target="_top" xlink:title="Prepare the temporary directory by copying in important files.">
<polygon fill="white" stroke="black" points="411.553,-471 411.553,-503 554.447,-503 554.447,-471 411.553,-471"/>
<text text-anchor="start" x="419.553" y="-490" font-family="Ubuntu-R" font-size="10.00">forcebalance.gmxio.Liquid</text>
<text text-anchor="middle" x="483" y="-478" font-family="Ubuntu-R" font-size="10.00">_GMX.prepare_temp_directory</text>
</a>
</g>
</g>
<!-- Node11&#45;&gt;Node15 -->
<g id="edge15" class="edge"><title>Node11&#45;&gt;Node15</title>
<path fill="none" stroke="midnightblue" d="M337.184,-450.188C364.904,-455.422 396.511,-462.154 423.108,-468.513"/>
<polygon fill="midnightblue" stroke="midnightblue" points="422.494,-471.966 433.038,-470.928 424.149,-465.164 422.494,-471.966"/>
</g>
<!-- Node13 -->
<g id="node13" class="node"><title>Node13</title>
<g id="a_node13"><a xlink:href="namespaceforcebalance_1_1nifty.html#abb8f59044961a12588e0653c2baa8b01" target="_top" target="_top" target="_top" xlink:title="forcebalance.nifty.warn\l_press_key">
<polygon fill="white" stroke="black" points="1485.53,-403 1485.53,-435 1596.47,-435 1596.47,-403 1485.53,-403"/>
<text text-anchor="start" x="1493.53" y="-422" font-family="Ubuntu-R" font-size="10.00">forcebalance.nifty.warn</text>
<text text-anchor="middle" x="1541" y="-410" font-family="Ubuntu-R" font-size="10.00">_press_key</text>
</a>
</g>
</g>
<!-- Node12&#45;&gt;Node13 -->
<g id="edge13" class="edge"><title>Node12&#45;&gt;Node13</title>
<path fill="none" stroke="midnightblue" d="M740.415,-443.059C811.363,-440.988 931.61,-438 1035,-438 1035,-438 1035,-438 1197,-438 1294,-438 1406.2,-430.33 1475.13,-424.737"/>
<polygon fill="midnightblue" stroke="midnightblue" points="1475.72,-428.2 1485.4,-423.893 1475.15,-421.224 1475.72,-428.2"/>
</g>
<!-- Node14 -->
<g id="node14" class="node"><title>Node14</title>
<g id="a_node14"><a xlink:href="namespaceforcebalance_1_1nifty.html#a2fc81730e7efa7d138dd86f733507bfc" target="_top" target="_top" target="_top" xlink:title="Similar to the bultin function map().">
<polygon fill="white" stroke="black" points="1650.04,-409 1650.04,-429 1805.96,-429 1805.96,-409 1650.04,-409"/>
<text text-anchor="middle" x="1728" y="-416" font-family="Ubuntu-R" font-size="10.00">forcebalance.nifty.concurrent_map</text>
</a>
</g>
</g>
<!-- Node13&#45;&gt;Node14 -->
<g id="edge14" class="edge"><title>Node13&#45;&gt;Node14</title>
<path fill="none" stroke="midnightblue" d="M1596.51,-419C1610.1,-419 1625.02,-419 1639.77,-419"/>
<polygon fill="midnightblue" stroke="midnightblue" points="1639.92,-422.5 1649.92,-419 1639.92,-415.5 1639.92,-422.5"/>
</g>
<!-- Node15&#45;&gt;Node11 -->
<g id="edge18" class="edge"><title>Node15&#45;&gt;Node11</title>
<path fill="none" stroke="midnightblue" d="M411.47,-478.558C383.982,-473.343 352.845,-466.697 326.62,-460.422"/>
<polygon fill="midnightblue" stroke="midnightblue" points="327.372,-457.002 316.828,-458.038 325.716,-463.804 327.372,-457.002"/>
</g>
<!-- Node15&#45;&gt;Node12 -->
<g id="edge19" class="edge"><title>Node15&#45;&gt;Node12</title>
<path fill="none" stroke="midnightblue" d="M554.497,-471.659C571.083,-468.049 588.777,-464.199 605.411,-460.579"/>
<polygon fill="midnightblue" stroke="midnightblue" points="606.584,-463.906 615.611,-458.359 605.096,-457.066 606.584,-463.906"/>
</g>
<!-- Node16 -->
<g id="node16" class="node"><title>Node16</title>
<g id="a_node16"><a xlink:href="namespaceforcebalance_1_1nifty.html#ab182a9da2a2f42cf45942fbee6acf9b1" target="_top" target="_top" target="_top" xlink:title="forcebalance.nifty.LinkFile">
<polygon fill="white" stroke="black" points="615.299,-480 615.299,-500 740.701,-500 740.701,-480 615.299,-480"/>
<text text-anchor="middle" x="678" y="-487" font-family="Ubuntu-R" font-size="10.00">forcebalance.nifty.LinkFile</text>
</a>
</g>
</g>
<!-- Node15&#45;&gt;Node16 -->
<g id="edge16" class="edge"><title>Node15&#45;&gt;Node16</title>
<path fill="none" stroke="midnightblue" d="M554.497,-488.096C570.994,-488.352 588.587,-488.626 605.142,-488.883"/>
<polygon fill="midnightblue" stroke="midnightblue" points="605.244,-492.385 615.298,-489.041 605.353,-485.386 605.244,-492.385"/>
</g>
<!-- Node17 -->
<g id="node17" class="node"><title>Node17</title>
<g id="a_node17"><a xlink:href="namespaceforcebalance_1_1nifty.html#a25efa4d501ad852a234721af18978f7e" target="_top" target="_top" target="_top" xlink:title="Remove the file if it exists (doesn&#39;t return an error).">
<polygon fill="white" stroke="black" points="803.528,-467 803.528,-499 924.472,-499 924.472,-467 803.528,-467"/>
<text text-anchor="start" x="811.528" y="-486" font-family="Ubuntu-R" font-size="10.00">forcebalance.nifty.remove</text>
<text text-anchor="middle" x="864" y="-474" font-family="Ubuntu-R" font-size="10.00">_if_exists</text>
</a>
</g>
</g>
<!-- Node16&#45;&gt;Node17 -->
<g id="edge17" class="edge"><title>Node16&#45;&gt;Node17</title>
<path fill="none" stroke="midnightblue" d="M740.781,-487.65C757.625,-487.009 775.989,-486.31 793.243,-485.654"/>
<polygon fill="midnightblue" stroke="midnightblue" points="793.394,-489.151 803.254,-485.273 793.128,-482.156 793.394,-489.151"/>
</g>
<!-- Node20 -->
<g id="node20" class="node"><title>Node20</title>
<g id="a_node20"><a xlink:href="namespaceforcebalance_1_1finite__difference.html#ad84d3e385db1190e7d8ef58bc08a6c52" target="_top" target="_top" target="_top" xlink:title="Invoking this function from anywhere will tell us whether we&#39;re being called by a finite&#45;difference f...">
<polygon fill="white" stroke="black" points="437.662,-102 437.662,-134 528.338,-134 528.338,-102 437.662,-102"/>
<text text-anchor="start" x="445.662" y="-121" font-family="Ubuntu-R" font-size="10.00">forcebalance.finite</text>
<text text-anchor="middle" x="483" y="-109" font-family="Ubuntu-R" font-size="10.00">_difference.in_fd</text>
</a>
</g>
</g>
<!-- Node19&#45;&gt;Node20 -->
<g id="edge22" class="edge"><title>Node19&#45;&gt;Node20</title>
<path fill="none" stroke="midnightblue" d="M313.384,-113.272C346.661,-114.205 391.999,-115.477 427.282,-116.466"/>
<polygon fill="midnightblue" stroke="midnightblue" points="427.321,-119.968 437.415,-116.75 427.517,-112.971 427.321,-119.968"/>
</g>
<!-- Node19&#45;&gt;Node21 -->
<g id="edge23" class="edge"><title>Node19&#45;&gt;Node21</title>
<path fill="none" stroke="midnightblue" d="M313.384,-102.457C346.438,-95.5061 391.391,-86.0532 426.57,-78.6558"/>
<polygon fill="midnightblue" stroke="midnightblue" points="427.616,-82.0126 436.682,-76.5296 426.175,-75.1624 427.616,-82.0126"/>
</g>
<!-- Node22 -->
<g id="node22" class="node"><title>Node22</title>
<g id="a_node22"><a xlink:href="namespaceforcebalance_1_1finite__difference.html#a00322fb65860c390616f74d05037c797" target="_top" target="_top" target="_top" xlink:title="A driver to fdwrap for gradients (see documentation for fdwrap) Inputs: tgt = The Target containing t...">
<polygon fill="white" stroke="black" points="625.721,-51 625.721,-83 730.279,-83 730.279,-51 625.721,-51"/>
<text text-anchor="start" x="633.721" y="-70" font-family="Ubuntu-R" font-size="10.00">forcebalance.finite</text>
<text text-anchor="middle" x="678" y="-58" font-family="Ubuntu-R" font-size="10.00">_difference.fdwrap_G</text>
</a>
</g>
</g>
<!-- Node21&#45;&gt;Node22 -->
<g id="edge24" class="edge"><title>Node21&#45;&gt;Node22</title>
<path fill="none" stroke="midnightblue" d="M529.25,-61.1795C554.95,-60.148 587.483,-59.975 615.475,-60.6606"/>
<polygon fill="midnightblue" stroke="midnightblue" points="615.465,-64.1616 625.562,-60.952 615.667,-57.1645 615.465,-64.1616"/>
</g>
<!-- Node23 -->
<g id="node23" class="node"><title>Node23</title>
<g id="a_node23"><a xlink:href="namespaceforcebalance_1_1finite__difference.html#a77a0bc1ae3cbbcc8d38a0ef9ca877d6d" target="_top" target="_top" target="_top" xlink:title="A driver to fdwrap for Hessians (see documentation for fdwrap) Inputs: tgt = The Target containing th...">
<polygon fill="white" stroke="black" points="625.721,-0 625.721,-32 730.279,-32 730.279,-0 625.721,-0"/>
<text text-anchor="start" x="633.721" y="-19" font-family="Ubuntu-R" font-size="10.00">forcebalance.finite</text>
<text text-anchor="middle" x="678" y="-7" font-family="Ubuntu-R" font-size="10.00">_difference.fdwrap_H</text>
</a>
</g>
</g>
<!-- Node21&#45;&gt;Node23 -->
<g id="edge26" class="edge"><title>Node21&#45;&gt;Node23</title>
<path fill="none" stroke="midnightblue" d="M529.25,-55.0428C555.063,-48.2216 587.769,-39.5792 615.843,-32.1605"/>
<polygon fill="midnightblue" stroke="midnightblue" points="616.788,-35.5312 625.562,-29.5925 614.999,-28.7635 616.788,-35.5312"/>
</g>
<!-- Node22&#45;&gt;Node21 -->
<g id="edge25" class="edge"><title>Node22&#45;&gt;Node21</title>
<path fill="none" stroke="midnightblue" d="M625.562,-73.048C598.974,-73.9405 566.5,-73.982 539.365,-73.1724"/>
<polygon fill="midnightblue" stroke="midnightblue" points="539.366,-69.6704 529.25,-72.8205 539.122,-76.6662 539.366,-69.6704"/>
</g>
<!-- Node24&#45;&gt;Node13 -->
<g id="edge29" class="edge"><title>Node24&#45;&gt;Node13</title>
<path fill="none" stroke="midnightblue" d="M308.051,-349.005C380.952,-366.31 540.415,-400 677,-400 677,-400 677,-400 1197,-400 1294,-400 1406.2,-407.67 1475.13,-413.263"/>
<polygon fill="midnightblue" stroke="midnightblue" points="1475.15,-416.776 1485.4,-414.107 1475.72,-409.8 1475.15,-416.776"/>
</g>
<!-- Node25 -->
<g id="node25" class="node"><title>Node25</title>
<g id="a_node25"><a xlink:href="namespaceforcebalance_1_1nifty.html#a51180e960742cc7547749fdfb3513ec4" target="_top" target="_top" target="_top" xlink:title="See documentation for printcool; this is a nice way to print out keys/values in a dictionary...">
<polygon fill="white" stroke="black" points="419.469,-323 419.469,-355 546.532,-355 546.532,-323 419.469,-323"/>
<text text-anchor="start" x="427.469" y="-342" font-family="Ubuntu-R" font-size="10.00">forcebalance.nifty.printcool</text>
<text text-anchor="middle" x="483" y="-330" font-family="Ubuntu-R" font-size="10.00">_dictionary</text>
</a>
</g>
</g>
<!-- Node24&#45;&gt;Node25 -->
<g id="edge30" class="edge"><title>Node24&#45;&gt;Node25</title>
<path fill="none" stroke="midnightblue" d="M330.761,-339C355.259,-339 383.511,-339 408.918,-339"/>
<polygon fill="midnightblue" stroke="midnightblue" points="409.24,-342.5 419.24,-339 409.24,-335.5 409.24,-342.5"/>
</g>
<!-- Node26 -->
<g id="node26" class="node"><title>Node26</title>
<g id="a_node26"><a xlink:href="namespaceforcebalance_1_1nifty.html#a3f1c7a1af9d35d5d1693074bc6f5497c" target="_top" target="_top" target="_top" xlink:title="ONLY matches integers! If you have a decimal point? None shall pass!">
<polygon fill="white" stroke="black" points="623.908,-313 623.908,-333 732.092,-333 732.092,-313 623.908,-313"/>
<text text-anchor="middle" x="678" y="-320" font-family="Ubuntu-R" font-size="10.00">forcebalance.nifty.isint</text>
</a>
</g>
</g>
<!-- Node25&#45;&gt;Node26 -->
<g id="edge31" class="edge"><title>Node25&#45;&gt;Node26</title>
<path fill="none" stroke="midnightblue" d="M546.662,-333.805C568.136,-332.025 592.17,-330.033 613.695,-328.248"/>
<polygon fill="midnightblue" stroke="midnightblue" points="614.036,-331.732 623.713,-327.418 613.458,-324.756 614.036,-331.732"/>
</g>
<!-- Node28 -->
<g id="node28" class="node"><title>Node28</title>
<g id="a_node28"><a xlink:href="namespaceforcebalance_1_1nifty.html#a8e3ef0108b9d37b82ba0dced7c6037ae" target="_top" target="_top" target="_top" xlink:title="Matches ANY number; it can be a decimal, scientific notation, what have you CAUTION &#45; this will also ...">
<polygon fill="white" stroke="black" points="978.024,-314 978.024,-334 1093.98,-334 1093.98,-314 978.024,-314"/>
<text text-anchor="middle" x="1036" y="-321" font-family="Ubuntu-R" font-size="10.00">forcebalance.nifty.isfloat</text>
</a>
</g>
</g>
<!-- Node25&#45;&gt;Node28 -->
<g id="edge46" class="edge"><title>Node25&#45;&gt;Node28</title>
<path fill="none" stroke="midnightblue" d="M546.686,-340.837C565.733,-341.315 586.721,-341.763 606,-342 755.333,-343.836 793.197,-350.697 942,-338 950.302,-337.292 958.99,-336.309 967.58,-335.19"/>
<polygon fill="midnightblue" stroke="midnightblue" points="968.155,-338.644 977.589,-333.823 967.207,-331.709 968.155,-338.644"/>
</g>
<!-- Node27 -->
<g id="node27" class="node"><title>Node27</title>
<g id="a_node27"><a xlink:href="namespaceforcebalance_1_1nifty.html#a09263927eaec9deff283fbf1a820242f" target="_top" target="_top" target="_top" xlink:title="Matches things with a decimal only; see isint and isfloat.">
<polygon fill="white" stroke="black" points="799.36,-275 799.36,-295 928.64,-295 928.64,-275 799.36,-275"/>
<text text-anchor="middle" x="864" y="-282" font-family="Ubuntu-R" font-size="10.00">forcebalance.nifty.isdecimal</text>
</a>
</g>
</g>
<!-- Node26&#45;&gt;Node27 -->
<g id="edge32" class="edge"><title>Node26&#45;&gt;Node27</title>
<path fill="none" stroke="midnightblue" d="M727.826,-312.916C751.313,-308.066 779.655,-302.213 804.308,-297.121"/>
<polygon fill="midnightblue" stroke="midnightblue" points="805.18,-300.515 814.266,-295.065 803.765,-293.66 805.18,-300.515"/>
</g>
<!-- Node27&#45;&gt;Node28 -->
<g id="edge33" class="edge"><title>Node27&#45;&gt;Node28</title>
<path fill="none" stroke="midnightblue" d="M908.779,-295.043C930.988,-300.138 958.151,-306.37 981.581,-311.745"/>
<polygon fill="midnightblue" stroke="midnightblue" points="980.84,-315.166 991.369,-313.991 982.405,-308.343 980.84,-315.166"/>
</g>
<!-- Node27&#45;&gt;Node32 -->
<g id="edge38" class="edge"><title>Node27&#45;&gt;Node32</title>
<path fill="none" stroke="midnightblue" d="M928.785,-277.496C943.713,-275.74 959.572,-273.874 974.358,-272.134"/>
<polygon fill="midnightblue" stroke="midnightblue" points="974.876,-275.598 984.398,-270.953 974.058,-268.646 974.876,-275.598"/>
</g>
<!-- Node28&#45;&gt;Node26 -->
<g id="edge34" class="edge"><title>Node28&#45;&gt;Node26</title>
<path fill="none" stroke="midnightblue" d="M977.796,-323.839C913.53,-323.659 809.492,-323.367 742.687,-323.179"/>
<polygon fill="midnightblue" stroke="midnightblue" points="742.307,-319.678 732.297,-323.15 742.287,-326.678 742.307,-319.678"/>
</g>
<!-- Node29 -->
<g id="node29" class="node"><title>Node29</title>
<g id="a_node29"><a xlink:href="namespaceforcebalance_1_1nifty.html#a8d63c8ae9a67c66673a6cf81357f827d" target="_top" target="_top" target="_top" xlink:title="Returns a big number if we encounter NaN.">
<polygon fill="white" stroke="black" points="1129.97,-314 1129.97,-334 1262.03,-334 1262.03,-314 1129.97,-314"/>
<text text-anchor="middle" x="1196" y="-321" font-family="Ubuntu-R" font-size="10.00">forcebalance.nifty.floatornan</text>
</a>
</g>
</g>
<!-- Node28&#45;&gt;Node29 -->
<g id="edge35" class="edge"><title>Node28&#45;&gt;Node29</title>
<path fill="none" stroke="midnightblue" d="M1094.04,-324C1102.36,-324 1111.04,-324 1119.66,-324"/>
<polygon fill="midnightblue" stroke="midnightblue" points="1119.72,-327.5 1129.72,-324 1119.72,-320.5 1119.72,-327.5"/>
</g>
<!-- Node30 -->
<g id="node30" class="node"><title>Node30</title>
<g id="a_node30"><a xlink:href="namespaceforcebalance_1_1nifty.html#a6c9727360cdff8f3011a12cc54d0e86e" target="_top" target="_top" target="_top" xlink:title="Given any list, array, or matrix, return a 1&#45;row matrix.">
<polygon fill="white" stroke="black" points="1311.75,-314 1311.75,-334 1418.25,-334 1418.25,-314 1311.75,-314"/>
<text text-anchor="middle" x="1365" y="-321" font-family="Ubuntu-R" font-size="10.00">forcebalance.nifty.row</text>
</a>
</g>
</g>
<!-- Node29&#45;&gt;Node30 -->
<g id="edge36" class="edge"><title>Node29&#45;&gt;Node30</title>
<path fill="none" stroke="midnightblue" d="M1262.04,-324C1274.98,-324 1288.54,-324 1301.39,-324"/>
<polygon fill="midnightblue" stroke="midnightblue" points="1301.52,-327.5 1311.52,-324 1301.52,-320.5 1301.52,-327.5"/>
</g>
<!-- Node31 -->
<g id="node31" class="node"><title>Node31</title>
<g id="a_node31"><a xlink:href="namespaceforcebalance_1_1nifty.html#a7676236002c6a65ea7d2e69a09923889" target="_top" target="_top" target="_top" xlink:title="Given two vectors vec1 and vec2, project out the component of vec1 that is along the vec2&#45;direction...">
<polygon fill="white" stroke="black" points="1468.03,-314 1468.03,-334 1613.97,-334 1613.97,-314 1468.03,-314"/>
<text text-anchor="middle" x="1541" y="-321" font-family="Ubuntu-R" font-size="10.00">forcebalance.nifty.orthogonalize</text>
</a>
</g>
</g>
<!-- Node30&#45;&gt;Node31 -->
<g id="edge37" class="edge"><title>Node30&#45;&gt;Node31</title>
<path fill="none" stroke="midnightblue" d="M1418.68,-324C1431.03,-324 1444.49,-324 1457.79,-324"/>
<polygon fill="midnightblue" stroke="midnightblue" points="1457.92,-327.5 1467.92,-324 1457.92,-320.5 1457.92,-327.5"/>
</g>
<!-- Node32&#45;&gt;Node33 -->
<g id="edge39" class="edge"><title>Node32&#45;&gt;Node33</title>
<path fill="none" stroke="midnightblue" d="M1087.86,-257.918C1102.37,-255.897 1118.34,-253.673 1133.42,-251.574"/>
<polygon fill="midnightblue" stroke="midnightblue" points="1134.27,-254.99 1143.69,-250.144 1133.3,-248.057 1134.27,-254.99"/>
</g>
<!-- Node34 -->
<g id="node34" class="node"><title>Node34</title>
<g id="a_node34"><a xlink:href="namespaceforcebalance_1_1nifty.html#a4c82187e92dfeb8a159f4aa44b501c40" target="_top" target="_top" target="_top" xlink:title="Invert a matrix using singular value decomposition.">
<polygon fill="white" stroke="black" points="1298.41,-272 1298.41,-292 1431.59,-292 1431.59,-272 1298.41,-272"/>
<text text-anchor="middle" x="1365" y="-279" font-family="Ubuntu-R" font-size="10.00">forcebalance.nifty.invert_svd</text>
</a>
</g>
</g>
<!-- Node33&#45;&gt;Node34 -->
<g id="edge40" class="edge"><title>Node33&#45;&gt;Node34</title>
<path fill="none" stroke="midnightblue" d="M1240.01,-253.043C1261.73,-258.116 1288.27,-264.314 1311.22,-269.673"/>
<polygon fill="midnightblue" stroke="midnightblue" points="1310.61,-273.125 1321.14,-271.991 1312.2,-266.308 1310.61,-273.125"/>
</g>
<!-- Node34&#45;&gt;Node13 -->
<g id="edge45" class="edge"><title>Node34&#45;&gt;Node13</title>
<path fill="none" stroke="midnightblue" d="M1406.91,-292.07C1415.58,-295.161 1424.39,-299.085 1432,-304 1451.81,-316.8 1451.89,-325.771 1468,-343 1484.49,-360.635 1503.26,-380.433 1517.49,-395.4"/>
<polygon fill="midnightblue" stroke="midnightblue" points="1515.06,-397.92 1524.49,-402.75 1520.13,-393.094 1515.06,-397.92"/>
</g>
<!-- Node34&#45;&gt;Node32 -->
<g id="edge44" class="edge"><title>Node34&#45;&gt;Node32</title>
<path fill="none" stroke="midnightblue" d="M1298.17,-278.578C1239.72,-275.539 1154.98,-271.134 1098.03,-268.173"/>
<polygon fill="midnightblue" stroke="midnightblue" points="1097.9,-264.662 1087.73,-267.638 1097.54,-271.652 1097.9,-264.662"/>
</g>
<!-- Node35 -->
<g id="node35" class="node"><title>Node35</title>
<g id="a_node35"><a xlink:href="namespaceforcebalance_1_1nifty.html#aa9fb9c7c65231eca50a7afc04f489b64" target="_top" target="_top" target="_top" xlink:title="forcebalance.nifty.get\l_least_squares">
<polygon fill="white" stroke="black" points="1489.41,-245 1489.41,-277 1592.59,-277 1592.59,-245 1489.41,-245"/>
<text text-anchor="start" x="1497.41" y="-264" font-family="Ubuntu-R" font-size="10.00">forcebalance.nifty.get</text>
<text text-anchor="middle" x="1541" y="-252" font-family="Ubuntu-R" font-size="10.00">_least_squares</text>
</a>
</g>
</g>
<!-- Node34&#45;&gt;Node35 -->
<g id="edge41" class="edge"><title>Node34&#45;&gt;Node35</title>
<path fill="none" stroke="midnightblue" d="M1431.78,-274.061C1447.26,-272.192 1463.7,-270.208 1478.96,-268.366"/>
<polygon fill="midnightblue" stroke="midnightblue" points="1479.81,-271.79 1489.32,-267.117 1478.97,-264.84 1479.81,-271.79"/>
</g>
<!-- Node35&#45;&gt;Node33 -->
<g id="edge42" class="edge"><title>Node35&#45;&gt;Node33</title>
<path fill="none" stroke="midnightblue" d="M1489.14,-258.331C1427.72,-255.108 1324.46,-249.689 1258.59,-246.232"/>
<polygon fill="midnightblue" stroke="midnightblue" points="1258.52,-242.724 1248.35,-245.695 1258.15,-249.714 1258.52,-242.724"/>
</g>
<!-- Node36 -->
<g id="node36" class="node"><title>Node36</title>
<g id="a_node36"><a xlink:href="namespaceforcebalance_1_1nifty.html#ad5ca60565c864b4245a8212fe9d92e10" target="_top" target="_top" target="_top" xlink:title="Compute the (cross) statistical inefficiency of (two) timeseries.">
<polygon fill="white" stroke="black" points="1663.64,-245 1663.64,-277 1792.36,-277 1792.36,-245 1663.64,-245"/>
<text text-anchor="start" x="1671.64" y="-264" font-family="Ubuntu-R" font-size="10.00">forcebalance.nifty.statistical</text>
<text text-anchor="middle" x="1728" y="-252" font-family="Ubuntu-R" font-size="10.00">Inefficiency</text>
</a>
</g>
</g>
<!-- Node35&#45;&gt;Node36 -->
<g id="edge43" class="edge"><title>Node35&#45;&gt;Node36</title>
<path fill="none" stroke="midnightblue" d="M1593.04,-261C1611.71,-261 1633.21,-261 1653.45,-261"/>
<polygon fill="midnightblue" stroke="midnightblue" points="1653.58,-264.5 1663.58,-261 1653.58,-257.5 1653.58,-264.5"/>
</g>
<!-- Node39 -->
<g id="node39" class="node"><title>Node39</title>
<g id="a_node39"><a xlink:href="classforcebalance_1_1liquid_1_1Liquid.html#a716e28bb5572b3273036ac753b7e1e1d" target="_top" target="_top" target="_top" xlink:title="forcebalance.liquid.Liquid.submit_jobs">
<polygon fill="white" stroke="black" points="396.265,-522 396.265,-542 569.735,-542 569.735,-522 396.265,-522"/>
<text text-anchor="middle" x="483" y="-529" font-family="Ubuntu-R" font-size="10.00">forcebalance.liquid.Liquid.submit_jobs</text>
</a>
</g>
</g>
<!-- Node38&#45;&gt;Node39 -->
<g id="edge51" class="edge"><title>Node38&#45;&gt;Node39</title>
<path fill="none" stroke="midnightblue" d="M359.376,-530.854C368.113,-530.936 376.992,-531.019 385.773,-531.101"/>
<polygon fill="midnightblue" stroke="midnightblue" points="385.989,-534.603 396.021,-531.196 386.055,-527.603 385.989,-534.603"/>
</g>
<!-- Node39&#45;&gt;Node1 -->
<g id="edge62" class="edge"><title>Node39&#45;&gt;Node1</title>
<path fill="none" stroke="midnightblue" d="M428.432,-521.977C342.891,-505.791 183.99,-474.906 174,-467 107.929,-414.712 81.7684,-310.45 73.3679,-266.399"/>
<polygon fill="midnightblue" stroke="midnightblue" points="76.7739,-265.562 71.5633,-256.337 69.8838,-266.798 76.7739,-265.562"/>
</g>
<!-- Node39&#45;&gt;Node13 -->
<g id="edge58" class="edge"><title>Node39&#45;&gt;Node13</title>
<path fill="none" stroke="midnightblue" d="M569.895,-530.991C678.291,-529.806 870.461,-528 1035,-528 1035,-528 1035,-528 1197,-528 1312.3,-528 1439.59,-471.367 1501.68,-439.745"/>
<polygon fill="midnightblue" stroke="midnightblue" points="1503.44,-442.778 1510.72,-435.083 1500.23,-436.557 1503.44,-442.778"/>
</g>
<!-- Node40 -->
<g id="node40" class="node"><title>Node40</title>
<g id="a_node40"><a xlink:href="namespaceforcebalance_1_1nifty.html#a2ff762a2f2d2b6bb1c7dd067bd1a1e88" target="_top" target="_top" target="_top" xlink:title="Use this instead of pickle.dump for pickling anything that contains _ElementTree types.">
<polygon fill="white" stroke="black" points="614.742,-563 614.742,-583 741.258,-583 741.258,-563 614.742,-563"/>
<text text-anchor="middle" x="678" y="-570" font-family="Ubuntu-R" font-size="10.00">forcebalance.nifty.lp_dump</text>
</a>
</g>
</g>
<!-- Node39&#45;&gt;Node40 -->
<g id="edge52" class="edge"><title>Node39&#45;&gt;Node40</title>
<path fill="none" stroke="midnightblue" d="M531.213,-542.03C557.85,-547.688 591.335,-554.802 619.494,-560.784"/>
<polygon fill="midnightblue" stroke="midnightblue" points="619.096,-564.277 629.605,-562.932 620.551,-557.43 619.096,-564.277"/>
</g>
<!-- Node44 -->
<g id="node44" class="node"><title>Node44</title>
<g id="a_node44"><a xlink:href="namespaceforcebalance_1_1optimizer.html#ae1f6c649703a22b2f767a5f6bf53297b" target="_top" target="_top" target="_top" xlink:title="forcebalance.optimizer.Counter">
<polygon fill="white" stroke="black" points="606.695,-619 606.695,-639 749.305,-639 749.305,-619 606.695,-619"/>
<text text-anchor="middle" x="678" y="-626" font-family="Ubuntu-R" font-size="10.00">forcebalance.optimizer.Counter</text>
</a>
</g>
</g>
<!-- Node39&#45;&gt;Node44 -->
<g id="edge56" class="edge"><title>Node39&#45;&gt;Node44</title>
<path fill="none" stroke="midnightblue" d="M503.927,-542.015C538.094,-559.187 608.001,-594.322 647.72,-614.284"/>
<polygon fill="midnightblue" stroke="midnightblue" points="646.385,-617.53 656.892,-618.894 649.529,-611.276 646.385,-617.53"/>
</g>
<!-- Node46 -->
<g id="node46" class="node"><title>Node46</title>
<g id="a_node46"><a xlink:href="classforcebalance_1_1liquid_1_1Liquid.html#a07a59f9f335693329b789a9c7608fc9f" target="_top" target="_top" target="_top" xlink:title="Submit a NPT simulation to the Work Queue.">
<polygon fill="white" stroke="black" points="609.323,-674 609.323,-706 746.677,-706 746.677,-674 609.323,-674"/>
<text text-anchor="start" x="617.323" y="-693" font-family="Ubuntu-R" font-size="10.00">forcebalance.liquid.Liquid.npt</text>
<text text-anchor="middle" x="678" y="-681" font-family="Ubuntu-R" font-size="10.00">_simulation</text>
</a>
</g>
</g>
<!-- Node39&#45;&gt;Node46 -->
<g id="edge59" class="edge"><title>Node39&#45;&gt;Node46</title>
<path fill="none" stroke="midnightblue" d="M493.134,-542.112C512.582,-563.306 560.067,-613.285 606,-648 615.819,-655.421 627.046,-662.592 637.63,-668.846"/>
<polygon fill="midnightblue" stroke="midnightblue" points="635.915,-671.897 646.325,-673.868 639.416,-665.835 635.915,-671.897"/>
</g>
<!-- Node41 -->
<g id="node41" class="node"><title>Node41</title>
<g id="a_node41"><a xlink:href="namespaceforcebalance_1_1nifty.html#abe1e72c32252d62a6551b47290c7584f" target="_top" target="_top" target="_top" xlink:title="forcebalance.nifty.getWQIds">
<polygon fill="white" stroke="black" points="797.974,-608 797.974,-628 930.026,-628 930.026,-608 797.974,-608"/>
<text text-anchor="middle" x="864" y="-615" font-family="Ubuntu-R" font-size="10.00">forcebalance.nifty.getWQIds</text>
</a>
</g>
</g>
<!-- Node40&#45;&gt;Node41 -->
<g id="edge53" class="edge"><title>Node40&#45;&gt;Node41</title>
<path fill="none" stroke="midnightblue" d="M720.293,-583.099C747.4,-589.728 783.049,-598.447 811.935,-605.511"/>
<polygon fill="midnightblue" stroke="midnightblue" points="811.299,-608.959 821.845,-607.935 812.962,-602.159 811.299,-608.959"/>
</g>
<!-- Node42 -->
<g id="node42" class="node"><title>Node42</title>
<g id="a_node42"><a xlink:href="namespaceforcebalance_1_1nifty.html#ab5f3072ad95e9c75659cb1adac341051" target="_top" target="_top" target="_top" xlink:title="forcebalance.nifty.create\lWorkQueue">
<polygon fill="white" stroke="black" points="806.589,-557 806.589,-589 921.411,-589 921.411,-557 806.589,-557"/>
<text text-anchor="start" x="814.589" y="-576" font-family="Ubuntu-R" font-size="10.00">forcebalance.nifty.create</text>
<text text-anchor="middle" x="864" y="-564" font-family="Ubuntu-R" font-size="10.00">WorkQueue</text>
</a>
</g>
</g>
<!-- Node40&#45;&gt;Node42 -->
<g id="edge54" class="edge"><title>Node40&#45;&gt;Node42</title>
<path fill="none" stroke="midnightblue" d="M741.294,-573C758.981,-573 778.309,-573 796.249,-573"/>
<polygon fill="midnightblue" stroke="midnightblue" points="796.34,-576.5 806.34,-573 796.34,-569.5 796.34,-576.5"/>
</g>
<!-- Node43 -->
<g id="node43" class="node"><title>Node43</title>
<g id="a_node43"><a xlink:href="namespaceforcebalance_1_1nifty.html#a5d5abeb4a185fde64721d044831e18ee" target="_top" target="_top" target="_top" xlink:title="Submit a job to the Work Queue.">
<polygon fill="white" stroke="black" points="978.582,-557 978.582,-589 1093.42,-589 1093.42,-557 978.582,-557"/>
<text text-anchor="start" x="986.582" y="-576" font-family="Ubuntu-R" font-size="10.00">forcebalance.nifty.queue</text>
<text text-anchor="middle" x="1036" y="-564" font-family="Ubuntu-R" font-size="10.00">_up_src_dest</text>
</a>
</g>
</g>
<!-- Node42&#45;&gt;Node43 -->
<g id="edge55" class="edge"><title>Node42&#45;&gt;Node43</title>
<path fill="none" stroke="midnightblue" d="M921.608,-573C936.582,-573 952.886,-573 968.34,-573"/>
<polygon fill="midnightblue" stroke="midnightblue" points="968.35,-576.5 978.35,-573 968.35,-569.5 968.35,-576.5"/>
</g>
<!-- Node45 -->
<g id="node45" class="node"><title>Node45</title>
<g id="a_node45"><a xlink:href="namespaceforcebalance_1_1optimizer.html#ab43948ecf30c90d319e0c0b107fe484a" target="_top" target="_top" target="_top" xlink:title="forcebalance.optimizer.GoodStep">
<polygon fill="white" stroke="black" points="788.805,-647 788.805,-667 939.195,-667 939.195,-647 788.805,-647"/>
<text text-anchor="middle" x="864" y="-654" font-family="Ubuntu-R" font-size="10.00">forcebalance.optimizer.GoodStep</text>
</a>
</g>
</g>
<!-- Node44&#45;&gt;Node45 -->
<g id="edge57" class="edge"><title>Node44&#45;&gt;Node45</title>
<path fill="none" stroke="midnightblue" d="M744.909,-639.03C758.6,-641.113 773.132,-643.324 787.148,-645.457"/>
<polygon fill="midnightblue" stroke="midnightblue" points="786.83,-648.949 797.243,-646.993 787.883,-642.029 786.83,-648.949"/>
</g>
<!-- Node46&#45;&gt;Node3 -->
<g id="edge60" class="edge"><title>Node46&#45;&gt;Node3</title>
<path fill="none" stroke="midnightblue" d="M744.649,-706.055C766.822,-711.478 791.226,-717.447 812.084,-722.548"/>
<polygon fill="midnightblue" stroke="midnightblue" points="811.468,-726 822.014,-724.976 813.131,-719.201 811.468,-726"/>
</g>
<!-- Node47 -->
<g id="node47" class="node"><title>Node47</title>
<g id="a_node47"><a xlink:href="classforcebalance_1_1liquid_1_1Liquid.html#ae94ce30dfd0e92fdd6d746e6743be844" target="_top" target="_top" target="_top" xlink:title="forcebalance.liquid.Liquid.indicate">
<polygon fill="white" stroke="black" points="785.885,-686 785.885,-706 942.115,-706 942.115,-686 785.885,-686"/>
<text text-anchor="middle" x="864" y="-693" font-family="Ubuntu-R" font-size="10.00">forcebalance.liquid.Liquid.indicate</text>
</a>
</g>
</g>
<!-- Node46&#45;&gt;Node47 -->
<g id="edge61" class="edge"><title>Node46&#45;&gt;Node47</title>
<path fill="none" stroke="midnightblue" d="M746.731,-692.209C756.161,-692.516 765.958,-692.836 775.685,-693.153"/>
<polygon fill="midnightblue" stroke="midnightblue" points="775.669,-696.654 785.778,-693.482 775.897,-689.658 775.669,-696.654"/>
</g>
</g>
</svg>
