<?xml version="1.0" encoding="UTF-8" standalone="no"?>
<!DOCTYPE svg PUBLIC "-//W3C//DTD SVG 1.1//EN"
 "http://www.w3.org/Graphics/SVG/1.1/DTD/svg11.dtd">
<!-- Generated by graphviz version 2.26.3 (20100126.1600)
 -->
<!-- Title: forcebalance.BaseReader Pages: 1 -->
<svg width="426pt" height="510pt"
 viewBox="0.00 0.00 426.00 510.00" xmlns="http://www.w3.org/2000/svg" xmlns:xlink="http://www.w3.org/1999/xlink">
<g id="graph1" class="graph" transform="scale(1 1) rotate(0) translate(4 506)">
<title>forcebalance.BaseReader</title>
<polygon fill="white" stroke="white" points="-4,5 -4,-506 423,-506 423,5 -4,5"/>
<!-- Node1 -->
<g id="node1" class="node"><title>Node1</title>
<polygon fill="#bfbfbf" stroke="black" points="82,-240.5 82,-261.5 220,-261.5 220,-240.5 82,-240.5"/>
<text text-anchor="middle" x="151" y="-248.5" font-family="Ubuntu-R" font-size="10.00">forcebalance.BaseReader</text>
</g>
<!-- Node3 -->
<g id="node5" class="node"><title>Node3</title>
<a xlink:href="classforcebalance_1_1amberio_1_1FrcMod__Reader.html" target="_top" xlink:title="Finite state machine for parsing FrcMod force field file. ">
<polygon fill="white" stroke="black" points="268.5,-468 268.5,-502 405.5,-502 405.5,-468 268.5,-468"/>
<text text-anchor="start" x="276.5" y="-489" font-family="Ubuntu-R" font-size="10.00">forcebalance.amberio.Frc</text>
<text text-anchor="middle" x="337" y="-476" font-family="Ubuntu-R" font-size="10.00">Mod_Reader</text>
</a>
</g>
<!-- Node1&#45;&gt;Node3 -->
<g id="edge4" class="edge"><title>Node1&#45;&gt;Node3</title>
<path fill="none" stroke="midnightblue" d="M155.742,-271.736C166.336,-313.391 195.862,-407.627 256,-459 259.93,-462.358 264.3,-465.283 268.916,-467.832"/>
<polygon fill="midnightblue" stroke="midnightblue" points="159.113,-270.786 153.347,-261.897 152.311,-272.441 159.113,-270.786"/>
</g>
<!-- Node4 -->
<g id="node7" class="node"><title>Node4</title>
<a xlink:href="classforcebalance_1_1amberio_1_1Mol2__Reader.html" target="_top" xlink:title="Finite state machine for parsing Mol2 force field file. ">
<polygon fill="white" stroke="black" points="264,-416 264,-450 410,-450 410,-416 264,-416"/>
<text text-anchor="start" x="272" y="-437" font-family="Ubuntu-R" font-size="10.00">forcebalance.amberio.Mol2</text>
<text text-anchor="middle" x="337" y="-424" font-family="Ubuntu-R" font-size="10.00">_Reader</text>
</a>
</g>
<!-- Node1&#45;&gt;Node4 -->
<g id="edge6" class="edge"><title>Node1&#45;&gt;Node4</title>
<path fill="none" stroke="midnightblue" d="M159.398,-271.493C174.067,-304.781 207.488,-370.542 256,-407 260.487,-410.372 265.426,-413.315 270.585,-415.884"/>
<polygon fill="midnightblue" stroke="midnightblue" points="162.448,-269.724 155.299,-261.904 156.012,-272.475 162.448,-269.724"/>
</g>
<!-- Node5 -->
<g id="node9" class="node"><title>Node5</title>
<a xlink:href="classforcebalance_1_1custom__io_1_1Gen__Reader.html" target="_top" xlink:title="Finite state machine for parsing custom GROMACS force field files. ">
<polygon fill="white" stroke="black" points="278.5,-364 278.5,-398 395.5,-398 395.5,-364 278.5,-364"/>
<text text-anchor="start" x="286.5" y="-385" font-family="Ubuntu-R" font-size="10.00">forcebalance.custom</text>
<text text-anchor="middle" x="337" y="-372" font-family="Ubuntu-R" font-size="10.00">_io.Gen_Reader</text>
</a>
</g>
<!-- Node1&#45;&gt;Node5 -->
<g id="edge8" class="edge"><title>Node1&#45;&gt;Node5</title>
<path fill="none" stroke="midnightblue" d="M165.304,-269.837C183.836,-293.013 218.271,-332.096 256,-355 262.944,-359.215 270.643,-362.82 278.452,-365.881"/>
<polygon fill="midnightblue" stroke="midnightblue" points="167.929,-267.513 159.006,-261.8 162.419,-271.83 167.929,-267.513"/>
</g>
<!-- Node6 -->
<g id="node11" class="node"><title>Node6</title>
<a xlink:href="classforcebalance_1_1gmxio_1_1ITP__Reader.html" target="_top" xlink:title="Finite state machine for parsing GROMACS force field files. ">
<polygon fill="white" stroke="black" points="273.5,-312 273.5,-346 400.5,-346 400.5,-312 273.5,-312"/>
<text text-anchor="start" x="281.5" y="-333" font-family="Ubuntu-R" font-size="10.00">forcebalance.gmxio.ITP</text>
<text text-anchor="middle" x="337" y="-320" font-family="Ubuntu-R" font-size="10.00">_Reader</text>
</a>
</g>
<!-- Node1&#45;&gt;Node6 -->
<g id="edge10" class="edge"><title>Node1&#45;&gt;Node6</title>
<path fill="none" stroke="midnightblue" d="M179.282,-266.446C200.121,-277.469 229.353,-292.195 256,-303 263.665,-306.108 271.852,-309.1 279.967,-311.879"/>
<polygon fill="midnightblue" stroke="midnightblue" points="180.807,-263.292 170.338,-261.669 177.51,-269.467 180.807,-263.292"/>
</g>
<!-- Node7 -->
<g id="node13" class="node"><title>Node7</title>
<a xlink:href="classforcebalance_1_1mol2io_1_1Mol2__Reader.html" target="_top" xlink:title="Finite state machine for parsing Mol2 force field file. ">
<polygon fill="white" stroke="black" points="267.5,-260 267.5,-294 406.5,-294 406.5,-260 267.5,-260"/>
<text text-anchor="start" x="275.5" y="-281" font-family="Ubuntu-R" font-size="10.00">forcebalance.mol2io.Mol2</text>
<text text-anchor="middle" x="337" y="-268" font-family="Ubuntu-R" font-size="10.00">_Reader</text>
</a>
</g>
<!-- Node1&#45;&gt;Node7 -->
<g id="edge12" class="edge"><title>Node1&#45;&gt;Node7</title>
<path fill="none" stroke="midnightblue" d="M230.473,-262.109C242.745,-263.825 255.338,-265.585 267.373,-267.267"/>
<polygon fill="midnightblue" stroke="midnightblue" points="230.648,-258.6 220.26,-260.681 229.679,-265.532 230.648,-258.6"/>
</g>
<!-- Node8 -->
<g id="node15" class="node"><title>Node8</title>
<a xlink:href="classforcebalance_1_1openmmio_1_1OpenMM__Reader.html" target="_top" xlink:title="Class for parsing OpenMM force field files. ">
<polygon fill="white" stroke="black" points="256.5,-208 256.5,-242 417.5,-242 417.5,-208 256.5,-208"/>
<text text-anchor="start" x="264.5" y="-229" font-family="Ubuntu-R" font-size="10.00">forcebalance.openmmio.Open</text>
<text text-anchor="middle" x="337" y="-216" font-family="Ubuntu-R" font-size="10.00">MM_Reader</text>
</a>
</g>
<!-- Node1&#45;&gt;Node8 -->
<g id="edge14" class="edge"><title>Node1&#45;&gt;Node8</title>
<path fill="none" stroke="midnightblue" d="M230.305,-239.914C238.941,-238.707 247.738,-237.477 256.39,-236.268"/>
<polygon fill="midnightblue" stroke="midnightblue" points="229.679,-236.468 220.26,-241.319 230.648,-243.4 229.679,-236.468"/>
</g>
<!-- Node9 -->
<g id="node17" class="node"><title>Node9</title>
<a xlink:href="classforcebalance_1_1psi4io_1_1GBS__Reader.html" target="_top" xlink:title="Interaction type &#45;&gt; Parameter Dictionary. ">
<polygon fill="white" stroke="black" points="270.5,-156 270.5,-190 403.5,-190 403.5,-156 270.5,-156"/>
<text text-anchor="start" x="278.5" y="-177" font-family="Ubuntu-R" font-size="10.00">forcebalance.psi4io.GBS</text>
<text text-anchor="middle" x="337" y="-164" font-family="Ubuntu-R" font-size="10.00">_Reader</text>
</a>
</g>
<!-- Node1&#45;&gt;Node9 -->
<g id="edge16" class="edge"><title>Node1&#45;&gt;Node9</title>
<path fill="none" stroke="midnightblue" d="M179.282,-235.554C200.121,-224.531 229.353,-209.805 256,-199 263.665,-195.892 271.852,-192.9 279.967,-190.121"/>
<polygon fill="midnightblue" stroke="midnightblue" points="177.51,-232.533 170.338,-240.331 180.807,-238.708 177.51,-232.533"/>
</g>
<!-- Node10 -->
<g id="node19" class="node"><title>Node10</title>
<a xlink:href="classforcebalance_1_1psi4io_1_1Grid__Reader.html" target="_top" xlink:title="Finite state machine for parsing DVR grid files. ">
<polygon fill="white" stroke="black" points="271.5,-104 271.5,-138 402.5,-138 402.5,-104 271.5,-104"/>
<text text-anchor="start" x="279.5" y="-125" font-family="Ubuntu-R" font-size="10.00">forcebalance.psi4io.Grid</text>
<text text-anchor="middle" x="337" y="-112" font-family="Ubuntu-R" font-size="10.00">_Reader</text>
</a>
</g>
<!-- Node1&#45;&gt;Node10 -->
<g id="edge18" class="edge"><title>Node1&#45;&gt;Node10</title>
<path fill="none" stroke="midnightblue" d="M165.304,-232.163C183.836,-208.987 218.271,-169.904 256,-147 261.555,-143.628 267.593,-140.647 273.785,-138.022"/>
<polygon fill="midnightblue" stroke="midnightblue" points="162.419,-230.17 159.006,-240.2 167.929,-234.487 162.419,-230.17"/>
</g>
<!-- Node11 -->
<g id="node21" class="node"><title>Node11</title>
<a xlink:href="classforcebalance_1_1qchemio_1_1QCIn__Reader.html" target="_top" xlink:title="Finite state machine for parsing Q&#45;Chem input files. ">
<polygon fill="white" stroke="black" points="263,-52 263,-86 411,-86 411,-52 263,-52"/>
<text text-anchor="start" x="271" y="-73" font-family="Ubuntu-R" font-size="10.00">forcebalance.qchemio.QCIn</text>
<text text-anchor="middle" x="337" y="-60" font-family="Ubuntu-R" font-size="10.00">_Reader</text>
</a>
</g>
<!-- Node1&#45;&gt;Node11 -->
<g id="edge20" class="edge"><title>Node1&#45;&gt;Node11</title>
<path fill="none" stroke="midnightblue" d="M159.398,-230.507C174.067,-197.219 207.488,-131.458 256,-95 260.487,-91.6282 265.426,-88.6845 270.585,-86.1162"/>
<polygon fill="midnightblue" stroke="midnightblue" points="156.012,-229.525 155.299,-240.096 162.448,-232.276 156.012,-229.525"/>
</g>
<!-- Node12 -->
<g id="node23" class="node"><title>Node12</title>
<a xlink:href="classforcebalance_1_1tinkerio_1_1Tinker__Reader.html" target="_top" xlink:title="Finite state machine for parsing TINKER force field files. ">
<polygon fill="white" stroke="black" points="263,-0 263,-34 411,-34 411,-0 263,-0"/>
<text text-anchor="start" x="271" y="-21" font-family="Ubuntu-R" font-size="10.00">forcebalance.tinkerio.Tinker</text>
<text text-anchor="middle" x="337" y="-8" font-family="Ubuntu-R" font-size="10.00">_Reader</text>
</a>
</g>
<!-- Node1&#45;&gt;Node12 -->
<g id="edge22" class="edge"><title>Node1&#45;&gt;Node12</title>
<path fill="none" stroke="midnightblue" d="M155.742,-230.264C166.336,-188.609 195.862,-94.3729 256,-43 259.93,-39.6425 264.3,-36.717 268.916,-34.1683"/>
<polygon fill="midnightblue" stroke="midnightblue" points="152.311,-229.559 153.347,-240.103 159.113,-231.214 152.311,-229.559"/>
</g>
<!-- Node2 -->
<g id="node2" class="node"><title>Node2</title>
<polygon fill="white" stroke="#bfbfbf" points="0,-240.5 0,-261.5 46,-261.5 46,-240.5 0,-240.5"/>
<text text-anchor="middle" x="23" y="-248.5" font-family="Ubuntu-R" font-size="10.00">object</text>
</g>
<!-- Node2&#45;&gt;Node1 -->
<g id="edge2" class="edge"><title>Node2&#45;&gt;Node1</title>
<path fill="none" stroke="midnightblue" d="M56.4058,-251C64.3234,-251 73.0579,-251 81.9232,-251"/>
<polygon fill="midnightblue" stroke="midnightblue" points="56.1799,-247.5 46.1798,-251 56.1798,-254.5 56.1799,-247.5"/>
</g>
</g>
</svg>
