<?xml version="1.0" encoding="UTF-8" standalone="no"?>
<!DOCTYPE svg PUBLIC "-//W3C//DTD SVG 1.1//EN"
 "http://www.w3.org/Graphics/SVG/1.1/DTD/svg11.dtd">
<!-- Generated by graphviz version 2.28.0 (20111219.2309)
 -->
<!-- Title: G Pages: 1 -->
<svg width="1438pt" height="142pt"
 viewBox="0.00 0.00 1438.00 142.00" xmlns="http://www.w3.org/2000/svg" xmlns:xlink="http://www.w3.org/1999/xlink">
<g id="graph1" class="graph" transform="scale(1 1) rotate(0) translate(4 138)">
<title>G</title>
<polygon fill="white" stroke="white" points="-4,5 -4,-138 1435,-138 1435,5 -4,5"/>
<!-- Node1 -->
<g id="node1" class="node"><title>Node1</title>
<polygon fill="#bfbfbf" stroke="black" points="0.5,-76.5 0.5,-95.5 215.5,-95.5 215.5,-76.5 0.5,-76.5"/>
<text text-anchor="middle" x="108" y="-83.5" font-family="Ubuntu-R" font-size="10.00">forcebalance.optimizer.Optimizer.Hessian</text>
</g>
<!-- Node2 -->
<g id="node3" class="node"><title>Node2</title>
<a xlink:href="namespaceforcebalance_1_1finite__difference.html#a9be9f0d21300958092e380514e2e980d" target="_top" xlink:title="A highly accurate seven&#45;point finite difference stencil for computing derivatives of a function...">
<polygon fill="white" stroke="black" points="272.5,-114.5 272.5,-133.5 459.5,-133.5 459.5,-114.5 272.5,-114.5"/>
<text text-anchor="middle" x="366" y="-121.5" font-family="Ubuntu-R" font-size="10.00">forcebalance.finite_difference.f1d7p</text>
</a>
</g>
<!-- Node1&#45;&gt;Node2 -->
<g id="edge2" class="edge"><title>Node1&#45;&gt;Node2</title>
<path fill="none" stroke="midnightblue" d="M173.269,-95.54C208.875,-100.825 253.313,-107.421 290.44,-112.932"/>
<polygon fill="midnightblue" stroke="midnightblue" points="290.299,-116.45 300.704,-114.456 291.327,-109.526 290.299,-116.45"/>
</g>
<!-- Node6 -->
<g id="node11" class="node"><title>Node6</title>
<a xlink:href="namespaceforcebalance_1_1finite__difference.html#ae484c591ae8c4e5bae73a0ef2660c339" target="_top" xlink:title="A function wrapper for finite difference designed for differentiating &#39;get&#39;&#45;type functions.">
<polygon fill="white" stroke="black" points="998.5,-76.5 998.5,-95.5 1189.5,-95.5 1189.5,-76.5 998.5,-76.5"/>
<text text-anchor="middle" x="1094" y="-83.5" font-family="Ubuntu-R" font-size="10.00">forcebalance.finite_difference.fdwrap</text>
</a>
</g>
<!-- Node1&#45;&gt;Node6 -->
<g id="edge18" class="edge"><title>Node1&#45;&gt;Node6</title>
<path fill="none" stroke="midnightblue" d="M215.709,-86C405.508,-86 799.5,-86 988.038,-86"/>
<polygon fill="midnightblue" stroke="midnightblue" points="988.233,-89.5001 998.233,-86 988.233,-82.5001 988.233,-89.5001"/>
</g>
<!-- Node9 -->
<g id="node19" class="node"><title>Node9</title>
<a xlink:href="classforcebalance_1_1optimizer_1_1Optimizer.html#adb86c1f6580bb088a23563a6103986fe" target="_top" xlink:title="Finite&#45;difference checker for the objective function Hessian.">
<polygon fill="white" stroke="black" points="252.5,-38.5 252.5,-57.5 479.5,-57.5 479.5,-38.5 252.5,-38.5"/>
<text text-anchor="middle" x="366" y="-45.5" font-family="Ubuntu-R" font-size="10.00">forcebalance.optimizer.Optimizer.FDCheckH</text>
</a>
</g>
<!-- Node1&#45;&gt;Node9 -->
<g id="edge20" class="edge"><title>Node1&#45;&gt;Node9</title>
<path fill="none" stroke="midnightblue" d="M173.269,-76.46C208.875,-71.1749 253.313,-64.5786 290.44,-59.0675"/>
<polygon fill="midnightblue" stroke="midnightblue" points="291.327,-62.4743 300.704,-57.5439 290.299,-55.5502 291.327,-62.4743"/>
</g>
<!-- Node3 -->
<g id="node5" class="node"><title>Node3</title>
<a xlink:href="namespaceforcebalance_1_1finite__difference.html#acc281f85b668062745f711d9b4a610fa" target="_top" xlink:title="forcebalance.finite_difference.f12d7p">
<polygon fill="white" stroke="black" points="527.5,-114.5 527.5,-133.5 720.5,-133.5 720.5,-114.5 527.5,-114.5"/>
<text text-anchor="middle" x="624" y="-121.5" font-family="Ubuntu-R" font-size="10.00">forcebalance.finite_difference.f12d7p</text>
</a>
</g>
<!-- Node2&#45;&gt;Node3 -->
<g id="edge4" class="edge"><title>Node2&#45;&gt;Node3</title>
<path fill="none" stroke="midnightblue" d="M459.784,-124C478.342,-124 497.97,-124 516.936,-124"/>
<polygon fill="midnightblue" stroke="midnightblue" points="517.088,-127.5 527.088,-124 517.088,-120.5 517.088,-127.5"/>
</g>
<!-- Node4 -->
<g id="node7" class="node"><title>Node4</title>
<a xlink:href="namespaceforcebalance_1_1finite__difference.html#aa69a8819e4680091f400303c1d6ddeb7" target="_top" xlink:title="A three&#45;point finite difference stencil.">
<polygon fill="white" stroke="black" points="768.5,-114.5 768.5,-133.5 961.5,-133.5 961.5,-114.5 768.5,-114.5"/>
<text text-anchor="middle" x="865" y="-121.5" font-family="Ubuntu-R" font-size="10.00">forcebalance.finite_difference.f12d3p</text>
</a>
</g>
<!-- Node3&#45;&gt;Node4 -->
<g id="edge6" class="edge"><title>Node3&#45;&gt;Node4</title>
<path fill="none" stroke="midnightblue" d="M720.833,-124C733.008,-124 745.525,-124 757.849,-124"/>
<polygon fill="midnightblue" stroke="midnightblue" points="758.145,-127.5 768.145,-124 758.145,-120.5 758.145,-127.5"/>
</g>
<!-- Node5 -->
<g id="node9" class="node"><title>Node5</title>
<a xlink:href="namespaceforcebalance_1_1finite__difference.html#ad84d3e385db1190e7d8ef58bc08a6c52" target="_top" xlink:title="Invoking this function from anywhere will tell us whether we&#39;re being called by a finite&#45;difference f...">
<polygon fill="white" stroke="black" points="1003,-114.5 1003,-133.5 1185,-133.5 1185,-114.5 1003,-114.5"/>
<text text-anchor="middle" x="1094" y="-121.5" font-family="Ubuntu-R" font-size="10.00">forcebalance.finite_difference.in_fd</text>
</a>
</g>
<!-- Node4&#45;&gt;Node5 -->
<g id="edge8" class="edge"><title>Node4&#45;&gt;Node5</title>
<path fill="none" stroke="midnightblue" d="M961.611,-124C971.879,-124 982.349,-124 992.671,-124"/>
<polygon fill="midnightblue" stroke="midnightblue" points="992.931,-127.5 1002.93,-124 992.931,-120.5 992.931,-127.5"/>
</g>
<!-- Node4&#45;&gt;Node6 -->
<g id="edge10" class="edge"><title>Node4&#45;&gt;Node6</title>
<path fill="none" stroke="midnightblue" d="M922.989,-114.46C954.291,-109.22 993.292,-102.691 1026.04,-97.2091"/>
<polygon fill="midnightblue" stroke="midnightblue" points="1026.7,-100.647 1035.99,-95.5439 1025.55,-93.743 1026.7,-100.647"/>
</g>
<!-- Node7 -->
<g id="node13" class="node"><title>Node7</title>
<a xlink:href="namespaceforcebalance_1_1finite__difference.html#a00322fb65860c390616f74d05037c797" target="_top" xlink:title="A driver to fdwrap for gradients (see documentation for fdwrap) Inputs: tgt = The Target containing t...">
<polygon fill="white" stroke="black" points="1226,-76.5 1226,-95.5 1430,-95.5 1430,-76.5 1226,-76.5"/>
<text text-anchor="middle" x="1328" y="-83.5" font-family="Ubuntu-R" font-size="10.00">forcebalance.finite_difference.fdwrap_G</text>
</a>
</g>
<!-- Node6&#45;&gt;Node7 -->
<g id="edge12" class="edge"><title>Node6&#45;&gt;Node7</title>
<path fill="none" stroke="midnightblue" d="M1189.7,-79.3522C1198.25,-79.2693 1206.97,-79.2368 1215.65,-79.2548"/>
<polygon fill="midnightblue" stroke="midnightblue" points="1215.8,-82.7554 1225.81,-79.2991 1215.83,-75.7555 1215.8,-82.7554"/>
</g>
<!-- Node8 -->
<g id="node16" class="node"><title>Node8</title>
<a xlink:href="namespaceforcebalance_1_1finite__difference.html#a77a0bc1ae3cbbcc8d38a0ef9ca877d6d" target="_top" xlink:title="A driver to fdwrap for Hessians (see documentation for fdwrap) Inputs: tgt = The Target containing th...">
<polygon fill="white" stroke="black" points="1226,-38.5 1226,-57.5 1430,-57.5 1430,-38.5 1226,-38.5"/>
<text text-anchor="middle" x="1328" y="-45.5" font-family="Ubuntu-R" font-size="10.00">forcebalance.finite_difference.fdwrap_H</text>
</a>
</g>
<!-- Node6&#45;&gt;Node8 -->
<g id="edge16" class="edge"><title>Node6&#45;&gt;Node8</title>
<path fill="none" stroke="midnightblue" d="M1153.24,-76.46C1185.24,-71.2201 1225.1,-64.6912 1258.57,-59.2091"/>
<polygon fill="midnightblue" stroke="midnightblue" points="1259.43,-62.6143 1268.73,-57.5439 1258.3,-55.7064 1259.43,-62.6143"/>
</g>
<!-- Node7&#45;&gt;Node6 -->
<g id="edge14" class="edge"><title>Node7&#45;&gt;Node6</title>
<path fill="none" stroke="midnightblue" d="M1225.81,-92.7009C1217.19,-92.7584 1208.45,-92.7654 1199.8,-92.722"/>
<polygon fill="midnightblue" stroke="midnightblue" points="1199.72,-89.2214 1189.7,-92.6478 1199.67,-96.2212 1199.72,-89.2214"/>
</g>
<!-- Node10 -->
<g id="node21" class="node"><title>Node10</title>
<a xlink:href="classforcebalance_1_1optimizer_1_1Optimizer.html#a05ee5fe985b3e2ec71071ca061e42d66" target="_top" xlink:title="Read the checkpoint file for the main optimizer.">
<polygon fill="white" stroke="black" points="516.5,-38.5 516.5,-57.5 731.5,-57.5 731.5,-38.5 516.5,-38.5"/>
<text text-anchor="middle" x="624" y="-45.5" font-family="Ubuntu-R" font-size="10.00">forcebalance.optimizer.Optimizer.readchk</text>
</a>
</g>
<!-- Node9&#45;&gt;Node10 -->
<g id="edge22" class="edge"><title>Node9&#45;&gt;Node10</title>
<path fill="none" stroke="midnightblue" d="M479.658,-48C488.527,-48 497.496,-48 506.391,-48"/>
<polygon fill="midnightblue" stroke="midnightblue" points="506.393,-51.5001 516.393,-48 506.393,-44.5001 506.393,-51.5001"/>
</g>
<!-- Node11 -->
<g id="node23" class="node"><title>Node11</title>
<a xlink:href="classforcebalance_1_1optimizer_1_1Optimizer.html#aa7ac7cda43b70ac58ccbd6c8445e88ef" target="_top" xlink:title="Write the checkpoint file for the main optimizer.">
<polygon fill="white" stroke="black" points="516,-0.5 516,-19.5 732,-19.5 732,-0.5 516,-0.5"/>
<text text-anchor="middle" x="624" y="-7.5" font-family="Ubuntu-R" font-size="10.00">forcebalance.optimizer.Optimizer.writechk</text>
</a>
</g>
<!-- Node9&#45;&gt;Node11 -->
<g id="edge24" class="edge"><title>Node9&#45;&gt;Node11</title>
<path fill="none" stroke="midnightblue" d="M431.269,-38.46C466.875,-33.1749 511.313,-26.5786 548.44,-21.0675"/>
<polygon fill="midnightblue" stroke="midnightblue" points="549.327,-24.4743 558.704,-19.5439 548.299,-17.5502 549.327,-24.4743"/>
</g>
</g>
</svg>
