<?xml version="1.0" encoding="UTF-8" standalone="no"?>
<!DOCTYPE svg PUBLIC "-//W3C//DTD SVG 1.1//EN"
 "http://www.w3.org/Graphics/SVG/1.1/DTD/svg11.dtd">
<!-- Generated by graphviz version 2.26.3 (20100126.1600)
 -->
<!-- Title: forcebalance.gmxio.AbInitio_GMX.generate_vsite_positions Pages: 1 -->
<svg width="1304pt" height="194pt"
 viewBox="0.00 0.00 1304.00 193.64" xmlns="http://www.w3.org/2000/svg" xmlns:xlink="http://www.w3.org/1999/xlink">
<g id="graph1" class="graph" transform="scale(1 1) rotate(0) translate(4 189.645)">
<title>forcebalance.gmxio.AbInitio_GMX.generate_vsite_positions</title>
<polygon fill="white" stroke="white" points="-4,5 -4,-189.645 1301,-189.645 1301,5 -4,5"/>
<!-- Node1 -->
<g id="node1" class="node"><title>Node1</title>
<polygon fill="#bfbfbf" stroke="black" points="0,-28 0,-62 166,-62 166,-28 0,-28"/>
<text text-anchor="start" x="8" y="-49" font-family="Ubuntu-R" font-size="10.00">forcebalance.gmxio.AbInitio</text>
<text text-anchor="middle" x="83" y="-36" font-family="Ubuntu-R" font-size="10.00">_GMX.generate_vsite_positions</text>
</g>
<!-- Node2 -->
<g id="node3" class="node"><title>Node2</title>
<a xlink:href="classforcebalance_1_1gmxio_1_1AbInitio__GMX.html#a1d03ae8104bcecacf96884058f2698af" target="_top" xlink:title="forcebalance.gmxio.AbInitio\l_GMX.__init__">
<polygon fill="white" stroke="black" points="202,-57 202,-91 350,-91 350,-57 202,-57"/>
<text text-anchor="start" x="210" y="-78" font-family="Ubuntu-R" font-size="10.00">forcebalance.gmxio.AbInitio</text>
<text text-anchor="middle" x="276" y="-65" font-family="Ubuntu-R" font-size="10.00">_GMX.__init__</text>
</a>
</g>
<!-- Node1&#45;&gt;Node2 -->
<g id="edge2" class="edge"><title>Node1&#45;&gt;Node2</title>
<path fill="none" stroke="midnightblue" d="M166.25,-57.509C174.756,-58.7871 183.402,-60.0863 191.917,-61.3657"/>
<polygon fill="midnightblue" stroke="midnightblue" points="191.427,-64.8314 201.836,-62.8562 192.467,-57.9091 191.427,-64.8314"/>
</g>
<!-- Node3 -->
<g id="node5" class="node"><title>Node3</title>
<a xlink:href="classforcebalance_1_1gmxio_1_1AbInitio__GMX.html#aba138ca4195a1737f2f00bd8c5f3ca07" target="_top" xlink:title="This function parses the GROMACS topology file (.top) which contains a listing of the molecules in th...">
<polygon fill="white" stroke="black" points="386,-80 386,-114 534,-114 534,-80 386,-80"/>
<text text-anchor="start" x="394" y="-101" font-family="Ubuntu-R" font-size="10.00">forcebalance.gmxio.AbInitio</text>
<text text-anchor="middle" x="460" y="-88" font-family="Ubuntu-R" font-size="10.00">_GMX.read_topology</text>
</a>
</g>
<!-- Node2&#45;&gt;Node3 -->
<g id="edge4" class="edge"><title>Node2&#45;&gt;Node3</title>
<path fill="none" stroke="midnightblue" d="M350.044,-83.2556C358.514,-84.3142 367.195,-85.3993 375.784,-86.473"/>
<polygon fill="midnightblue" stroke="midnightblue" points="375.451,-89.9585 385.808,-87.7259 376.319,-83.0125 375.451,-89.9585"/>
</g>
<!-- Node4 -->
<g id="node7" class="node"><title>Node4</title>
<a xlink:href="classforcebalance_1_1gmxio_1_1AbInitio__GMX.html#ab2eac76585bdb8401812f0c8e465a44e" target="_top" xlink:title="forcebalance.gmxio.AbInitio\l_GMX.prepare_temp_directory">
<polygon fill="white" stroke="black" points="570.5,-91 570.5,-125 731.5,-125 731.5,-91 570.5,-91"/>
<text text-anchor="start" x="578.5" y="-112" font-family="Ubuntu-R" font-size="10.00">forcebalance.gmxio.AbInitio</text>
<text text-anchor="middle" x="651" y="-99" font-family="Ubuntu-R" font-size="10.00">_GMX.prepare_temp_directory</text>
</a>
</g>
<!-- Node3&#45;&gt;Node4 -->
<g id="edge6" class="edge"><title>Node3&#45;&gt;Node4</title>
<path fill="none" stroke="midnightblue" d="M534.119,-101.269C542.636,-101.759 551.391,-102.263 560.096,-102.765"/>
<polygon fill="midnightblue" stroke="midnightblue" points="560.089,-106.27 570.274,-103.351 560.492,-99.2816 560.089,-106.27"/>
</g>
<!-- Node5 -->
<g id="node9" class="node"><title>Node5</title>
<a xlink:href="namespaceforcebalance_1_1nifty.html#abb8f59044961a12588e0653c2baa8b01" target="_top" xlink:title="forcebalance.nifty.warn\l_press_key">
<polygon fill="white" stroke="black" points="779.5,-137 779.5,-171 904.5,-171 904.5,-137 779.5,-137"/>
<text text-anchor="start" x="787.5" y="-158" font-family="Ubuntu-R" font-size="10.00">forcebalance.nifty.warn</text>
<text text-anchor="middle" x="842" y="-145" font-family="Ubuntu-R" font-size="10.00">_press_key</text>
</a>
</g>
<!-- Node4&#45;&gt;Node5 -->
<g id="edge8" class="edge"><title>Node4&#45;&gt;Node5</title>
<path fill="none" stroke="midnightblue" d="M721.85,-125.063C737.352,-128.797 753.784,-132.754 769.355,-136.504"/>
<polygon fill="midnightblue" stroke="midnightblue" points="768.902,-139.995 779.444,-138.934 770.541,-133.19 768.902,-139.995"/>
</g>
<!-- Node7 -->
<g id="node13" class="node"><title>Node7</title>
<a xlink:href="namespaceforcebalance_1_1nifty.html#ab182a9da2a2f42cf45942fbee6acf9b1" target="_top" xlink:title="forcebalance.nifty.LinkFile">
<polygon fill="white" stroke="black" points="774,-97.5 774,-118.5 910,-118.5 910,-97.5 774,-97.5"/>
<text text-anchor="middle" x="842" y="-105.5" font-family="Ubuntu-R" font-size="10.00">forcebalance.nifty.LinkFile</text>
</a>
</g>
<!-- Node4&#45;&gt;Node7 -->
<g id="edge12" class="edge"><title>Node4&#45;&gt;Node7</title>
<path fill="none" stroke="midnightblue" d="M731.724,-108C742.372,-108 753.27,-108 763.873,-108"/>
<polygon fill="midnightblue" stroke="midnightblue" points="763.93,-111.5 773.93,-108 763.93,-104.5 763.93,-111.5"/>
</g>
<!-- Node9 -->
<g id="node17" class="node"><title>Node9</title>
<a xlink:href="classforcebalance_1_1gmxio_1_1AbInitio__GMX.html#a4bc31d1c02d47749d26b14779f025ebd" target="_top" xlink:title="Computes the energy and force using GROMACS for a single snapshot.">
<polygon fill="white" stroke="black" points="768,-45 768,-79 916,-79 916,-45 768,-45"/>
<text text-anchor="start" x="776" y="-66" font-family="Ubuntu-R" font-size="10.00">forcebalance.gmxio.AbInitio</text>
<text text-anchor="middle" x="842" y="-53" font-family="Ubuntu-R" font-size="10.00">_GMX.energy_force_driver</text>
</a>
</g>
<!-- Node4&#45;&gt;Node9 -->
<g id="edge16" class="edge"><title>Node4&#45;&gt;Node9</title>
<path fill="none" stroke="midnightblue" d="M721.85,-90.9367C734.709,-87.8397 748.209,-84.5885 761.325,-81.4295"/>
<polygon fill="midnightblue" stroke="midnightblue" points="762.362,-84.78 771.265,-79.0358 760.723,-77.9746 762.362,-84.78"/>
</g>
<!-- Node11 -->
<g id="node22" class="node"><title>Node11</title>
<a xlink:href="namespaceforcebalance_1_1gmxio.html#acac8488f29b62fb0d4cb54bb5a041026" target="_top" xlink:title="forcebalance.gmxio.rm\l_gmx_baks">
<polygon fill="white" stroke="black" points="1170,-45 1170,-79 1296,-79 1296,-45 1170,-45"/>
<text text-anchor="start" x="1178" y="-66" font-family="Ubuntu-R" font-size="10.00">forcebalance.gmxio.rm</text>
<text text-anchor="middle" x="1233" y="-53" font-family="Ubuntu-R" font-size="10.00">_gmx_baks</text>
</a>
</g>
<!-- Node4&#45;&gt;Node11 -->
<g id="edge26" class="edge"><title>Node4&#45;&gt;Node11</title>
<path fill="none" stroke="midnightblue" d="M670.889,-125.086C692.932,-142.795 730.364,-169.347 768,-180 809.494,-191.744 1117.96,-181.496 1134,-174 1172.49,-156.012 1202.23,-115.232 1218.68,-88.1646"/>
<polygon fill="midnightblue" stroke="midnightblue" points="1221.89,-89.6169 1223.94,-79.2221 1215.85,-86.0701 1221.89,-89.6169"/>
</g>
<!-- Node6 -->
<g id="node11" class="node"><title>Node6</title>
<a xlink:href="namespaceforcebalance_1_1nifty.html#a2fc81730e7efa7d138dd86f733507bfc" target="_top" xlink:title="Similar to the bultin function map().">
<polygon fill="white" stroke="black" points="952.5,-143.5 952.5,-164.5 1133.5,-164.5 1133.5,-143.5 952.5,-143.5"/>
<text text-anchor="middle" x="1043" y="-151.5" font-family="Ubuntu-R" font-size="10.00">forcebalance.nifty.concurrent_map</text>
</a>
</g>
<!-- Node5&#45;&gt;Node6 -->
<g id="edge10" class="edge"><title>Node5&#45;&gt;Node6</title>
<path fill="none" stroke="midnightblue" d="M904.771,-154C916.677,-154 929.41,-154 942.151,-154"/>
<polygon fill="midnightblue" stroke="midnightblue" points="942.355,-157.5 952.355,-154 942.355,-150.5 942.355,-157.5"/>
</g>
<!-- Node8 -->
<g id="node15" class="node"><title>Node8</title>
<a xlink:href="namespaceforcebalance_1_1nifty.html#a25efa4d501ad852a234721af18978f7e" target="_top" xlink:title="Remove the file if it exists (doesn&#39;t return an error).">
<polygon fill="white" stroke="black" points="973.5,-91 973.5,-125 1112.5,-125 1112.5,-91 973.5,-91"/>
<text text-anchor="start" x="981.5" y="-112" font-family="Ubuntu-R" font-size="10.00">forcebalance.nifty.remove</text>
<text text-anchor="middle" x="1043" y="-99" font-family="Ubuntu-R" font-size="10.00">_if_exists</text>
</a>
</g>
<!-- Node7&#45;&gt;Node8 -->
<g id="edge14" class="edge"><title>Node7&#45;&gt;Node8</title>
<path fill="none" stroke="midnightblue" d="M910.049,-108C927.091,-108 945.527,-108 963.087,-108"/>
<polygon fill="midnightblue" stroke="midnightblue" points="963.308,-111.5 973.308,-108 963.308,-104.5 963.308,-111.5"/>
</g>
<!-- Node10 -->
<g id="node19" class="node"><title>Node10</title>
<a xlink:href="classforcebalance_1_1gmxio_1_1AbInitio__GMX.html#a6e43c323b2286c546ff8afd3377f8808" target="_top" xlink:title="Computes the energy and force using GROMACS for a trajectory.">
<polygon fill="white" stroke="black" points="965,-0 965,-34 1121,-34 1121,-0 965,-0"/>
<text text-anchor="start" x="973" y="-21" font-family="Ubuntu-R" font-size="10.00">forcebalance.gmxio.AbInitio</text>
<text text-anchor="middle" x="1043" y="-8" font-family="Ubuntu-R" font-size="10.00">_GMX.energy_force_driver_all</text>
</a>
</g>
<!-- Node9&#45;&gt;Node10 -->
<g id="edge18" class="edge"><title>Node9&#45;&gt;Node10</title>
<path fill="none" stroke="midnightblue" d="M916.274,-45.3715C929.592,-42.3898 943.571,-39.2602 957.183,-36.2127"/>
<polygon fill="midnightblue" stroke="midnightblue" points="958.021,-39.6118 967.015,-34.0116 956.492,-32.7809 958.021,-39.6118"/>
</g>
<!-- Node9&#45;&gt;Node11 -->
<g id="edge24" class="edge"><title>Node9&#45;&gt;Node11</title>
<path fill="none" stroke="midnightblue" d="M916.004,-62C985.956,-62 1090.29,-62 1159.94,-62"/>
<polygon fill="midnightblue" stroke="midnightblue" points="1159.95,-65.5001 1169.95,-62 1159.95,-58.5001 1159.95,-65.5001"/>
</g>
<!-- Node10&#45;&gt;Node1 -->
<g id="edge20" class="edge"><title>Node10&#45;&gt;Node1</title>
<path fill="none" stroke="midnightblue" d="M964.906,-17C885.792,-17 759.889,-17 651,-17 460,-17 460,-17 460,-17 363.113,-17 252.604,-26.3107 176.401,-34.194"/>
<polygon fill="midnightblue" stroke="midnightblue" points="175.93,-30.7241 166.348,-35.2463 176.658,-37.6861 175.93,-30.7241"/>
</g>
<!-- Node10&#45;&gt;Node11 -->
<g id="edge22" class="edge"><title>Node10&#45;&gt;Node11</title>
<path fill="none" stroke="midnightblue" d="M1114.83,-34.0126C1129.52,-37.4908 1144.99,-41.1554 1159.73,-44.6455"/>
<polygon fill="midnightblue" stroke="midnightblue" points="1159.25,-48.1304 1169.79,-47.0293 1160.87,-41.3188 1159.25,-48.1304"/>
</g>
</g>
</svg>
