<?xml version="1.0" encoding="UTF-8" standalone="no"?>
<!DOCTYPE svg PUBLIC "-//W3C//DTD SVG 1.1//EN"
 "http://www.w3.org/Graphics/SVG/1.1/DTD/svg11.dtd">
<!-- Generated by graphviz version 2.32.0 (20130801.1845)
 -->
<!-- Title: forcebalance.abinitio.AbInitio.__init__ Pages: 1 -->
<svg width="294pt" height="40pt"
 viewBox="0.00 0.00 294.00 40.00" xmlns="http://www.w3.org/2000/svg" xmlns:xlink="http://www.w3.org/1999/xlink">
<g id="graph0" class="graph" transform="scale(1 1) rotate(0) translate(4 36)">
<title>forcebalance.abinitio.AbInitio.__init__</title>
<polygon fill="white" stroke="white" points="-4,5 -4,-36 291,-36 291,5 -4,5"/>
<!-- Node1 -->
<g id="node1" class="node"><title>Node1</title>
<polygon fill="#bfbfbf" stroke="black" points="0.5775,-0 0.5775,-32 115.423,-32 115.423,-0 0.5775,-0"/>
<text text-anchor="start" x="8.5775" y="-19" font-family="Ubuntu-R" font-size="10.00">forcebalance.abinitio.Ab</text>
<text text-anchor="middle" x="58" y="-7" font-family="Ubuntu-R" font-size="10.00">Initio.__init__</text>
</g>
<!-- Node2 -->
<g id="node2" class="node"><title>Node2</title>
<g id="a_node2"><a xlink:href="classforcebalance_1_1baseclass_1_1ForceBalanceBaseClass.html#abaaf4d99b043d41f02fabc41db59252b" target="_top" xlink:title="forcebalance.baseclass.Force\lBalanceBaseClass.set_option">
<polygon fill="white" stroke="black" points="152.265,-0 152.265,-32 285.735,-32 285.735,-0 152.265,-0"/>
<text text-anchor="start" x="160.265" y="-19" font-family="Ubuntu-R" font-size="10.00">forcebalance.baseclass.Force</text>
<text text-anchor="middle" x="219" y="-7" font-family="Ubuntu-R" font-size="10.00">BalanceBaseClass.set_option</text>
</a>
</g>
</g>
<!-- Node1&#45;&gt;Node2 -->
<g id="edge1" class="edge"><title>Node1&#45;&gt;Node2</title>
<path fill="none" stroke="midnightblue" d="M115.505,-16C124.131,-16 133.151,-16 142.11,-16"/>
<polygon fill="midnightblue" stroke="midnightblue" points="142.176,-19.5001 152.175,-16 142.175,-12.5001 142.176,-19.5001"/>
</g>
</g>
</svg>
