<?xml version="1.0" encoding="UTF-8" standalone="no"?>
<!DOCTYPE svg PUBLIC "-//W3C//DTD SVG 1.1//EN"
 "http://www.w3.org/Graphics/SVG/1.1/DTD/svg11.dtd">
<!-- Generated by graphviz version 2.26.3 (20100126.1600)
 -->
<!-- Title: forcebalance.gmxqpio.Monomer_QTPIE.prepare_temp_directory Pages: 1 -->
<svg width="1118pt" height="246pt"
 viewBox="0.00 0.00 1118.00 246.00" xmlns="http://www.w3.org/2000/svg" xmlns:xlink="http://www.w3.org/1999/xlink">
<g id="graph1" class="graph" transform="scale(1 1) rotate(0) translate(4 242)">
<title>forcebalance.gmxqpio.Monomer_QTPIE.prepare_temp_directory</title>
<polygon fill="white" stroke="white" points="-4,5 -4,-242 1115,-242 1115,5 -4,5"/>
<!-- Node1 -->
<g id="node1" class="node"><title>Node1</title>
<polygon fill="#bfbfbf" stroke="black" points="0.5,-158 0.5,-192 171.5,-192 171.5,-158 0.5,-158"/>
<text text-anchor="start" x="8.5" y="-179" font-family="Ubuntu-R" font-size="10.00">forcebalance.gmxqpio.Monomer</text>
<text text-anchor="middle" x="86" y="-166" font-family="Ubuntu-R" font-size="10.00">_QTPIE.prepare_temp_directory</text>
</g>
<!-- Node2 -->
<g id="node3" class="node"><title>Node2</title>
<a xlink:href="namespaceforcebalance_1_1nifty.html#abb8f59044961a12588e0653c2baa8b01" target="_top" xlink:title="forcebalance.nifty.warn\l_press_key">
<polygon fill="white" stroke="black" points="231.5,-204 231.5,-238 356.5,-238 356.5,-204 231.5,-204"/>
<text text-anchor="start" x="239.5" y="-225" font-family="Ubuntu-R" font-size="10.00">forcebalance.nifty.warn</text>
<text text-anchor="middle" x="294" y="-212" font-family="Ubuntu-R" font-size="10.00">_press_key</text>
</a>
</g>
<!-- Node1&#45;&gt;Node2 -->
<g id="edge2" class="edge"><title>Node1&#45;&gt;Node2</title>
<path fill="none" stroke="midnightblue" d="M163.156,-192.063C182.168,-196.268 202.465,-200.757 221.261,-204.913"/>
<polygon fill="midnightblue" stroke="midnightblue" points="220.713,-208.377 231.233,-207.119 222.225,-201.542 220.713,-208.377"/>
</g>
<!-- Node3 -->
<g id="node5" class="node"><title>Node3</title>
<a xlink:href="namespaceforcebalance_1_1nifty.html#ab182a9da2a2f42cf45942fbee6acf9b1" target="_top" xlink:title="forcebalance.nifty.LinkFile">
<polygon fill="white" stroke="black" points="226,-164.5 226,-185.5 362,-185.5 362,-164.5 226,-164.5"/>
<text text-anchor="middle" x="294" y="-172.5" font-family="Ubuntu-R" font-size="10.00">forcebalance.nifty.LinkFile</text>
</a>
</g>
<!-- Node1&#45;&gt;Node3 -->
<g id="edge4" class="edge"><title>Node1&#45;&gt;Node3</title>
<path fill="none" stroke="midnightblue" d="M171.502,-175C186.109,-175 201.218,-175 215.628,-175"/>
<polygon fill="midnightblue" stroke="midnightblue" points="215.98,-178.5 225.98,-175 215.98,-171.5 215.98,-178.5"/>
</g>
<!-- Node5 -->
<g id="node9" class="node"><title>Node5</title>
<a xlink:href="classforcebalance_1_1gmxqpio_1_1Monomer__QTPIE.html#ac227bf1f1ed6d579fea2eeda64c389cb" target="_top" xlink:title="forcebalance.gmxqpio.Monomer\l_QTPIE.unpack_moments">
<polygon fill="white" stroke="black" points="208.5,-109 208.5,-143 379.5,-143 379.5,-109 208.5,-109"/>
<text text-anchor="start" x="216.5" y="-130" font-family="Ubuntu-R" font-size="10.00">forcebalance.gmxqpio.Monomer</text>
<text text-anchor="middle" x="294" y="-117" font-family="Ubuntu-R" font-size="10.00">_QTPIE.unpack_moments</text>
</a>
</g>
<!-- Node1&#45;&gt;Node5 -->
<g id="edge8" class="edge"><title>Node1&#45;&gt;Node5</title>
<path fill="none" stroke="midnightblue" d="M158.165,-158C175.49,-153.918 194.119,-149.53 211.86,-145.35"/>
<polygon fill="midnightblue" stroke="midnightblue" points="212.68,-148.753 221.611,-143.053 211.075,-141.94 212.68,-148.753"/>
</g>
<!-- Node4 -->
<g id="node7" class="node"><title>Node4</title>
<a xlink:href="namespaceforcebalance_1_1nifty.html#a25efa4d501ad852a234721af18978f7e" target="_top" xlink:title="Remove the file if it exists (doesn&#39;t return an error).">
<polygon fill="white" stroke="black" points="432.5,-161 432.5,-195 571.5,-195 571.5,-161 432.5,-161"/>
<text text-anchor="start" x="440.5" y="-182" font-family="Ubuntu-R" font-size="10.00">forcebalance.nifty.remove</text>
<text text-anchor="middle" x="502" y="-169" font-family="Ubuntu-R" font-size="10.00">_if_exists</text>
</a>
</g>
<!-- Node3&#45;&gt;Node4 -->
<g id="edge6" class="edge"><title>Node3&#45;&gt;Node4</title>
<path fill="none" stroke="midnightblue" d="M362.107,-175.982C381.277,-176.259 402.301,-176.562 422.093,-176.847"/>
<polygon fill="midnightblue" stroke="midnightblue" points="422.265,-180.35 432.314,-176.995 422.366,-173.351 422.265,-180.35"/>
</g>
<!-- Node6 -->
<g id="node11" class="node"><title>Node6</title>
<a xlink:href="classforcebalance_1_1gmxqpio_1_1Monomer__QTPIE.html#a46144411b5166a1839bf954b584ca3a7" target="_top" xlink:title="forcebalance.gmxqpio.Monomer\l_QTPIE.get">
<polygon fill="white" stroke="black" points="416.5,-109 416.5,-143 587.5,-143 587.5,-109 416.5,-109"/>
<text text-anchor="start" x="424.5" y="-130" font-family="Ubuntu-R" font-size="10.00">forcebalance.gmxqpio.Monomer</text>
<text text-anchor="middle" x="502" y="-117" font-family="Ubuntu-R" font-size="10.00">_QTPIE.get</text>
</a>
</g>
<!-- Node5&#45;&gt;Node6 -->
<g id="edge10" class="edge"><title>Node5&#45;&gt;Node6</title>
<path fill="none" stroke="midnightblue" d="M379.502,-119.346C388.376,-119.253 397.435,-119.228 406.411,-119.27"/>
<polygon fill="midnightblue" stroke="midnightblue" points="406.468,-122.77 416.494,-119.346 406.521,-115.77 406.468,-122.77"/>
</g>
<!-- Node6&#45;&gt;Node5 -->
<g id="edge16" class="edge"><title>Node6&#45;&gt;Node5</title>
<path fill="none" stroke="midnightblue" d="M416.494,-132.654C407.62,-132.747 398.561,-132.772 389.585,-132.73"/>
<polygon fill="midnightblue" stroke="midnightblue" points="389.528,-129.23 379.502,-132.654 389.475,-136.23 389.528,-129.23"/>
</g>
<!-- Node7 -->
<g id="node13" class="node"><title>Node7</title>
<a xlink:href="namespaceforcebalance_1_1gmxqpio.html#a499ed366638eae7be524b18760a986b8" target="_top" xlink:title="forcebalance.gmxqpio.get\l_monomer_properties">
<polygon fill="white" stroke="black" points="624.5,-177 624.5,-211 765.5,-211 765.5,-177 624.5,-177"/>
<text text-anchor="start" x="632.5" y="-198" font-family="Ubuntu-R" font-size="10.00">forcebalance.gmxqpio.get</text>
<text text-anchor="middle" x="695" y="-185" font-family="Ubuntu-R" font-size="10.00">_monomer_properties</text>
</a>
</g>
<!-- Node6&#45;&gt;Node7 -->
<g id="edge12" class="edge"><title>Node6&#45;&gt;Node7</title>
<path fill="none" stroke="midnightblue" d="M560.955,-143.137C570.05,-145.978 579.305,-148.985 588,-152 606.533,-158.427 626.61,-166.111 644.312,-173.139"/>
<polygon fill="midnightblue" stroke="midnightblue" points="643.292,-176.5 653.877,-176.963 645.891,-170.001 643.292,-176.5"/>
</g>
<!-- Node9 -->
<g id="node18" class="node"><title>Node9</title>
<a xlink:href="namespaceforcebalance_1_1finite__difference.html#aa69a8819e4680091f400303c1d6ddeb7" target="_top" xlink:title="A three&#45;point finite difference stencil.">
<polygon fill="white" stroke="black" points="642.5,-87 642.5,-121 747.5,-121 747.5,-87 642.5,-87"/>
<text text-anchor="start" x="650.5" y="-108" font-family="Ubuntu-R" font-size="10.00">forcebalance.finite</text>
<text text-anchor="middle" x="695" y="-95" font-family="Ubuntu-R" font-size="10.00">_difference.f12d3p</text>
</a>
</g>
<!-- Node6&#45;&gt;Node9 -->
<g id="edge18" class="edge"><title>Node6&#45;&gt;Node9</title>
<path fill="none" stroke="midnightblue" d="M587.777,-116.222C602.764,-114.514 618.1,-112.766 632.316,-111.145"/>
<polygon fill="midnightblue" stroke="midnightblue" points="632.909,-114.6 642.448,-109.99 632.116,-107.646 632.909,-114.6"/>
</g>
<!-- Node10 -->
<g id="node20" class="node"><title>Node10</title>
<a xlink:href="namespaceforcebalance_1_1finite__difference.html#ad84d3e385db1190e7d8ef58bc08a6c52" target="_top" xlink:title="Invoking this function from anywhere will tell us whether we&#39;re being called by a finite&#45;difference f...">
<polygon fill="white" stroke="black" points="828,-122 828,-156 932,-156 932,-122 828,-122"/>
<text text-anchor="start" x="836" y="-143" font-family="Ubuntu-R" font-size="10.00">forcebalance.finite</text>
<text text-anchor="middle" x="880" y="-130" font-family="Ubuntu-R" font-size="10.00">_difference.in_fd</text>
</a>
</g>
<!-- Node6&#45;&gt;Node10 -->
<g id="edge32" class="edge"><title>Node6&#45;&gt;Node10</title>
<path fill="none" stroke="midnightblue" d="M587.774,-128.95C657.722,-131.356 754.882,-134.697 817.603,-136.854"/>
<polygon fill="midnightblue" stroke="midnightblue" points="817.633,-140.357 827.748,-137.203 817.874,-133.361 817.633,-140.357"/>
</g>
<!-- Node11 -->
<g id="node22" class="node"><title>Node11</title>
<a xlink:href="namespaceforcebalance_1_1finite__difference.html#ae484c591ae8c4e5bae73a0ef2660c339" target="_top" xlink:title="A function wrapper for finite difference designed for differentiating &#39;get&#39;&#45;type functions.">
<polygon fill="white" stroke="black" points="828,-52 828,-86 932,-86 932,-52 828,-52"/>
<text text-anchor="start" x="836" y="-73" font-family="Ubuntu-R" font-size="10.00">forcebalance.finite</text>
<text text-anchor="middle" x="880" y="-60" font-family="Ubuntu-R" font-size="10.00">_difference.fdwrap</text>
</a>
</g>
<!-- Node6&#45;&gt;Node11 -->
<g id="edge30" class="edge"><title>Node6&#45;&gt;Node11</title>
<path fill="none" stroke="midnightblue" d="M536.265,-108.882C560.198,-97.8425 593.248,-84.3938 624,-78 689.107,-64.4635 765.497,-63.6699 817.776,-65.3511"/>
<polygon fill="midnightblue" stroke="midnightblue" points="817.78,-68.8535 827.9,-65.7173 818.033,-61.858 817.78,-68.8535"/>
</g>
<!-- Node8 -->
<g id="node15" class="node"><title>Node8</title>
<a xlink:href="namespaceforcebalance_1_1molecule.html#afe989ffd119568047fc8265b1d329a70" target="_top" xlink:title="Matches ANY number; it can be a decimal, scientific notation, integer, or what have you...">
<polygon fill="white" stroke="black" points="802,-183.5 802,-204.5 958,-204.5 958,-183.5 802,-183.5"/>
<text text-anchor="middle" x="880" y="-191.5" font-family="Ubuntu-R" font-size="10.00">forcebalance.molecule.isfloat</text>
</a>
</g>
<!-- Node7&#45;&gt;Node8 -->
<g id="edge14" class="edge"><title>Node7&#45;&gt;Node8</title>
<path fill="none" stroke="midnightblue" d="M765.732,-194C774.237,-194 783.002,-194 791.717,-194"/>
<polygon fill="midnightblue" stroke="midnightblue" points="791.906,-197.5 801.906,-194 791.906,-190.5 791.906,-197.5"/>
</g>
<!-- Node9&#45;&gt;Node10 -->
<g id="edge20" class="edge"><title>Node9&#45;&gt;Node10</title>
<path fill="none" stroke="midnightblue" d="M747.519,-113.936C769.479,-118.091 795.163,-122.95 818.04,-127.278"/>
<polygon fill="midnightblue" stroke="midnightblue" points="817.514,-130.74 827.99,-129.16 818.815,-123.862 817.514,-130.74"/>
</g>
<!-- Node9&#45;&gt;Node11 -->
<g id="edge22" class="edge"><title>Node9&#45;&gt;Node11</title>
<path fill="none" stroke="midnightblue" d="M747.519,-94.064C769.479,-89.9093 795.163,-85.0502 818.04,-80.7222"/>
<polygon fill="midnightblue" stroke="midnightblue" points="818.815,-84.1377 827.99,-78.8397 817.514,-77.2597 818.815,-84.1377"/>
</g>
<!-- Node12 -->
<g id="node24" class="node"><title>Node12</title>
<a xlink:href="namespaceforcebalance_1_1finite__difference.html#a00322fb65860c390616f74d05037c797" target="_top" xlink:title="A driver to fdwrap for gradients (see documentation for fdwrap) Inputs: tgt = The Target containing t...">
<polygon fill="white" stroke="black" points="994,-52 994,-86 1110,-86 1110,-52 994,-52"/>
<text text-anchor="start" x="1002" y="-73" font-family="Ubuntu-R" font-size="10.00">forcebalance.finite</text>
<text text-anchor="middle" x="1052" y="-60" font-family="Ubuntu-R" font-size="10.00">_difference.fdwrap_G</text>
</a>
</g>
<!-- Node11&#45;&gt;Node12 -->
<g id="edge24" class="edge"><title>Node11&#45;&gt;Node12</title>
<path fill="none" stroke="midnightblue" d="M932.072,-62.7404C948.355,-62.2451 966.57,-62.125 983.79,-62.38"/>
<polygon fill="midnightblue" stroke="midnightblue" points="983.726,-65.8794 993.792,-62.5736 983.862,-58.8807 983.726,-65.8794"/>
</g>
<!-- Node13 -->
<g id="node27" class="node"><title>Node13</title>
<a xlink:href="namespaceforcebalance_1_1finite__difference.html#a77a0bc1ae3cbbcc8d38a0ef9ca877d6d" target="_top" xlink:title="A driver to fdwrap for Hessians (see documentation for fdwrap) Inputs: tgt = The Target containing th...">
<polygon fill="white" stroke="black" points="994,-0 994,-34 1110,-34 1110,-0 994,-0"/>
<text text-anchor="start" x="1002" y="-21" font-family="Ubuntu-R" font-size="10.00">forcebalance.finite</text>
<text text-anchor="middle" x="1052" y="-8" font-family="Ubuntu-R" font-size="10.00">_difference.fdwrap_H</text>
</a>
</g>
<!-- Node11&#45;&gt;Node13 -->
<g id="edge28" class="edge"><title>Node11&#45;&gt;Node13</title>
<path fill="none" stroke="midnightblue" d="M932.072,-53.2572C949.008,-48.1372 968.034,-42.3851 985.856,-36.997"/>
<polygon fill="midnightblue" stroke="midnightblue" points="987.054,-40.2915 995.613,-34.0473 985.028,-33.591 987.054,-40.2915"/>
</g>
<!-- Node12&#45;&gt;Node11 -->
<g id="edge26" class="edge"><title>Node12&#45;&gt;Node11</title>
<path fill="none" stroke="midnightblue" d="M993.792,-75.4264C977.232,-75.825 959.131,-75.8553 942.336,-75.5175"/>
<polygon fill="midnightblue" stroke="midnightblue" points="942.157,-72.012 932.072,-75.2596 941.981,-79.0098 942.157,-72.012"/>
</g>
</g>
</svg>
