<?xml version="1.0" encoding="UTF-8" standalone="no"?>
<!DOCTYPE svg PUBLIC "-//W3C//DTD SVG 1.1//EN"
 "http://www.w3.org/Graphics/SVG/1.1/DTD/svg11.dtd">
<!-- Generated by graphviz version 2.26.3 (20100126.1600)
 -->
<!-- Title: forcebalance.forcefield.FF.list_map Pages: 1 -->
<svg width="492pt" height="82pt"
 viewBox="0.00 0.00 492.00 82.00" xmlns="http://www.w3.org/2000/svg" xmlns:xlink="http://www.w3.org/1999/xlink">
<g id="graph1" class="graph" transform="scale(1 1) rotate(0) translate(4 78)">
<title>forcebalance.forcefield.FF.list_map</title>
<polygon fill="white" stroke="white" points="-4,5 -4,-78 489,-78 489,5 -4,5"/>
<!-- Node1 -->
<g id="node1" class="node"><title>Node1</title>
<polygon fill="#bfbfbf" stroke="black" points="0.5,-23 0.5,-57 127.5,-57 127.5,-23 0.5,-23"/>
<text text-anchor="start" x="8.5" y="-44" font-family="Ubuntu-R" font-size="10.00">forcebalance.forcefield.</text>
<text text-anchor="middle" x="64" y="-31" font-family="Ubuntu-R" font-size="10.00">FF.list_map</text>
</g>
<!-- Node2 -->
<g id="node3" class="node"><title>Node2</title>
<a xlink:href="namespaceforcebalance_1_1molecule.html#afe989ffd119568047fc8265b1d329a70" target="_top" xlink:title="Matches ANY number; it can be a decimal, scientific notation, integer, or what have you...">
<polygon fill="white" stroke="black" points="164,-52.5 164,-73.5 320,-73.5 320,-52.5 164,-52.5"/>
<text text-anchor="middle" x="242" y="-60.5" font-family="Ubuntu-R" font-size="10.00">forcebalance.molecule.isfloat</text>
</a>
</g>
<!-- Node1&#45;&gt;Node2 -->
<g id="edge2" class="edge"><title>Node1&#45;&gt;Node2</title>
<path fill="none" stroke="midnightblue" d="M127.508,-48.2061C136.068,-49.3122 144.972,-50.4626 153.864,-51.6116"/>
<polygon fill="midnightblue" stroke="midnightblue" points="153.513,-55.0953 163.879,-52.9057 154.41,-48.153 153.513,-55.0953"/>
</g>
<!-- Node3 -->
<g id="node5" class="node"><title>Node3</title>
<a xlink:href="classforcebalance_1_1forcefield_1_1FF.html#a3af07734a2378364ed533e2853ee6b82" target="_top" xlink:title="Assign physical parameter values to the &#39;pvals0&#39; array.">
<polygon fill="white" stroke="black" points="178.5,-0 178.5,-34 305.5,-34 305.5,-0 178.5,-0"/>
<text text-anchor="start" x="186.5" y="-21" font-family="Ubuntu-R" font-size="10.00">forcebalance.forcefield.</text>
<text text-anchor="middle" x="242" y="-8" font-family="Ubuntu-R" font-size="10.00">FF.assign_p0</text>
</a>
</g>
<!-- Node1&#45;&gt;Node3 -->
<g id="edge4" class="edge"><title>Node1&#45;&gt;Node3</title>
<path fill="none" stroke="midnightblue" d="M127.508,-31.7939C140.636,-30.0976 154.572,-28.2969 168.035,-26.5573"/>
<polygon fill="midnightblue" stroke="midnightblue" points="168.748,-29.9944 178.217,-25.2417 167.851,-23.0521 168.748,-29.9944"/>
</g>
<!-- Node4 -->
<g id="node7" class="node"><title>Node4</title>
<a xlink:href="classforcebalance_1_1forcefield_1_1FF.html#a8e7047c4b41a755c24996c9e1619df0b" target="_top" xlink:title="forcebalance.forcefield.\lFF.__eq__">
<polygon fill="white" stroke="black" points="356.5,-0 356.5,-34 483.5,-34 483.5,-0 356.5,-0"/>
<text text-anchor="start" x="364.5" y="-21" font-family="Ubuntu-R" font-size="10.00">forcebalance.forcefield.</text>
<text text-anchor="middle" x="420" y="-8" font-family="Ubuntu-R" font-size="10.00">FF.__eq__</text>
</a>
</g>
<!-- Node3&#45;&gt;Node4 -->
<g id="edge6" class="edge"><title>Node3&#45;&gt;Node4</title>
<path fill="none" stroke="midnightblue" d="M305.508,-17C318.636,-17 332.572,-17 346.035,-17"/>
<polygon fill="midnightblue" stroke="midnightblue" points="346.217,-20.5001 356.217,-17 346.217,-13.5001 346.217,-20.5001"/>
</g>
</g>
</svg>
