<?xml version="1.0" encoding="UTF-8" standalone="no"?>
<!DOCTYPE svg PUBLIC "-//W3C//DTD SVG 1.1//EN"
 "http://www.w3.org/Graphics/SVG/1.1/DTD/svg11.dtd">
<!-- Generated by graphviz version 2.28.0 (20111219.2309)
 -->
<!-- Title: G Pages: 1 -->
<svg width="244pt" height="196pt"
 viewBox="0.00 0.00 244.00 196.00" xmlns="http://www.w3.org/2000/svg" xmlns:xlink="http://www.w3.org/1999/xlink">
<g id="graph1" class="graph" transform="scale(1 1) rotate(0) translate(4 192)">
<title>G</title>
<polygon fill="white" stroke="white" points="-4,5 -4,-192 241,-192 241,5 -4,5"/>
<!-- Node1 -->
<g id="node1" class="node"><title>Node1</title>
<polygon fill="#bfbfbf" stroke="black" points="0,-0.5 0,-19.5 236,-19.5 236,-0.5 0,-0.5"/>
<text text-anchor="middle" x="118" y="-7.5" font-family="Ubuntu-R" font-size="10.00">forcebalance.abinitio_internal.AbInitio_Internal</text>
</g>
<!-- Node2 -->
<g id="node2" class="node"><title>Node2</title>
<a xlink:href="classforcebalance_1_1abinitio_1_1AbInitio.html" target="_top" xlink:title="Subclass of Target for fitting force fields to ab initio data.">
<polygon fill="white" stroke="black" points="41,-56.5 41,-75.5 195,-75.5 195,-56.5 41,-56.5"/>
<text text-anchor="middle" x="118" y="-63.5" font-family="Ubuntu-R" font-size="10.00">forcebalance.abinitio.AbInitio</text>
</a>
</g>
<!-- Node2&#45;&gt;Node1 -->
<g id="edge2" class="edge"><title>Node2&#45;&gt;Node1</title>
<path fill="none" stroke="midnightblue" d="M118,-45.8045C118,-36.9102 118,-26.7798 118,-19.7511"/>
<polygon fill="midnightblue" stroke="midnightblue" points="114.5,-46.083 118,-56.083 121.5,-46.083 114.5,-46.083"/>
</g>
<!-- Node3 -->
<g id="node4" class="node"><title>Node3</title>
<a xlink:href="classforcebalance_1_1target_1_1Target.html" target="_top" xlink:title="Base class for all fitting targets.">
<polygon fill="white" stroke="black" points="46.5,-112.5 46.5,-131.5 189.5,-131.5 189.5,-112.5 46.5,-112.5"/>
<text text-anchor="middle" x="118" y="-119.5" font-family="Ubuntu-R" font-size="10.00">forcebalance.target.Target</text>
</a>
</g>
<!-- Node3&#45;&gt;Node2 -->
<g id="edge4" class="edge"><title>Node3&#45;&gt;Node2</title>
<path fill="none" stroke="midnightblue" d="M118,-101.805C118,-92.9102 118,-82.7798 118,-75.7511"/>
<polygon fill="midnightblue" stroke="midnightblue" points="114.5,-102.083 118,-112.083 121.5,-102.083 114.5,-102.083"/>
</g>
<!-- Node4 -->
<g id="node6" class="node"><title>Node4</title>
<a xlink:href="classforcebalance_1_1BaseClass.html" target="_top" xlink:title="Provides some nifty functions that are common to all ForceBalance classes.">
<polygon fill="white" stroke="black" points="52.5,-168.5 52.5,-187.5 183.5,-187.5 183.5,-168.5 52.5,-168.5"/>
<text text-anchor="middle" x="118" y="-175.5" font-family="Ubuntu-R" font-size="10.00">forcebalance.BaseClass</text>
</a>
</g>
<!-- Node4&#45;&gt;Node3 -->
<g id="edge6" class="edge"><title>Node4&#45;&gt;Node3</title>
<path fill="none" stroke="midnightblue" d="M118,-157.805C118,-148.91 118,-138.78 118,-131.751"/>
<polygon fill="midnightblue" stroke="midnightblue" points="114.5,-158.083 118,-168.083 121.5,-158.083 114.5,-158.083"/>
</g>
</g>
</svg>
