<?xml version="1.0" encoding="UTF-8" standalone="no"?>
<!DOCTYPE svg PUBLIC "-//W3C//DTD SVG 1.1//EN"
 "http://www.w3.org/Graphics/SVG/1.1/DTD/svg11.dtd">
<!-- Generated by graphviz version 2.40.1 (20161225.0304)
 -->
<!-- Title: src.smirnoffio.TorsionProfileTarget_SMIRNOFF.submit_jobs Pages: 1 -->
<svg width="397pt" height="160pt"
 viewBox="0.00 0.00 397.00 160.00" xmlns="http://www.w3.org/2000/svg" xmlns:xlink="http://www.w3.org/1999/xlink">
<g id="graph0" class="graph" transform="scale(1 1) rotate(0) translate(4 156)">
<title>src.smirnoffio.TorsionProfileTarget_SMIRNOFF.submit_jobs</title>
<polygon fill="#ffffff" stroke="transparent" points="-4,4 -4,-156 393,-156 393,4 -4,4"/>
<!-- Node3 -->
<g id="node1" class="node">
<title>Node3</title>
<polygon fill="#bfbfbf" stroke="#000000" points="0,-61 0,-91 162,-91 162,-61 0,-61"/>
<text text-anchor="start" x="8" y="-79" font-family="Ubuntu-R" font-size="10.00" fill="#000000">src.smirnoffio.TorsionProfile</text>
<text text-anchor="middle" x="81" y="-68" font-family="Ubuntu-R" font-size="10.00" fill="#000000">Target_SMIRNOFF.submit_jobs</text>
</g>
<!-- Node4 -->
<g id="node2" class="node">
<title>Node4</title>
<g id="a_node2"><a xlink:href="classsrc_1_1smirnoffio_1_1AbInitio__SMIRNOFF.html#aba6c15a7fd233b8ec236dfa8551d1c93" target="_top" xlink:title="Update self.pgrads based on smirks present in mol2 files. ">
<polygon fill="#ffffff" stroke="#000000" points="217.5,-110.5 217.5,-151.5 369.5,-151.5 369.5,-110.5 217.5,-110.5"/>
<text text-anchor="start" x="225.5" y="-139.5" font-family="Ubuntu-R" font-size="10.00" fill="#000000">src.smirnoffio.AbInitio</text>
<text text-anchor="start" x="225.5" y="-128.5" font-family="Ubuntu-R" font-size="10.00" fill="#000000">_SMIRNOFF.smirnoff_update</text>
<text text-anchor="middle" x="293.5" y="-117.5" font-family="Ubuntu-R" font-size="10.00" fill="#000000">_pgrads</text>
</a>
</g>
</g>
<!-- Node3&#45;&gt;Node4 -->
<g id="edge1" class="edge">
<title>Node3&#45;&gt;Node4</title>
<path fill="none" stroke="#191970" d="M139.0666,-91.029C160.1414,-96.4837 184.425,-102.7688 207.4032,-108.7161"/>
<polygon fill="#191970" stroke="#191970" points="206.5999,-112.1235 217.1579,-111.2409 208.3539,-105.3468 206.5999,-112.1235"/>
</g>
<!-- Node5 -->
<g id="node3" class="node">
<title>Node5</title>
<g id="a_node3"><a xlink:href="classsrc_1_1smirnoffio_1_1Vibration__SMIRNOFF.html#a210c06bf1e21c3c93e584eef9256ef0c" target="_top" xlink:title="Update self.pgrads based on smirks present in mol2 files. ">
<polygon fill="#ffffff" stroke="#000000" points="198,-61 198,-91 389,-91 389,-61 198,-61"/>
<text text-anchor="start" x="206" y="-79" font-family="Ubuntu-R" font-size="10.00" fill="#000000">src.smirnoffio.Vibration</text>
<text text-anchor="middle" x="293.5" y="-68" font-family="Ubuntu-R" font-size="10.00" fill="#000000">_SMIRNOFF.smirnoff_update_pgrads</text>
</a>
</g>
</g>
<!-- Node3&#45;&gt;Node5 -->
<g id="edge2" class="edge">
<title>Node3&#45;&gt;Node5</title>
<path fill="none" stroke="#191970" d="M162.2467,-76C170.5839,-76 179.1388,-76 187.69,-76"/>
<polygon fill="#191970" stroke="#191970" points="187.7133,-79.5001 197.7132,-76 187.7132,-72.5001 187.7133,-79.5001"/>
</g>
<!-- Node6 -->
<g id="node4" class="node">
<title>Node6</title>
<g id="a_node4"><a xlink:href="classsrc_1_1smirnoffio_1_1TorsionProfileTarget__SMIRNOFF.html#ab5d2114016d36c5526bb25a823133ea6" target="_top" xlink:title="Update self.pgrads based on smirks present in mol2 files. ">
<polygon fill="#ffffff" stroke="#000000" points="217.5,-.5 217.5,-41.5 369.5,-41.5 369.5,-.5 217.5,-.5"/>
<text text-anchor="start" x="225.5" y="-29.5" font-family="Ubuntu-R" font-size="10.00" fill="#000000">src.smirnoffio.TorsionProfile</text>
<text text-anchor="start" x="225.5" y="-18.5" font-family="Ubuntu-R" font-size="10.00" fill="#000000">Target_SMIRNOFF.smirnoff</text>
<text text-anchor="middle" x="293.5" y="-7.5" font-family="Ubuntu-R" font-size="10.00" fill="#000000">_update_pgrads</text>
</a>
</g>
</g>
<!-- Node3&#45;&gt;Node6 -->
<g id="edge3" class="edge">
<title>Node3&#45;&gt;Node6</title>
<path fill="none" stroke="#191970" d="M139.0666,-60.971C160.1414,-55.5163 184.425,-49.2312 207.4032,-43.2839"/>
<polygon fill="#191970" stroke="#191970" points="208.3539,-46.6532 217.1579,-40.7591 206.5999,-39.8765 208.3539,-46.6532"/>
</g>
</g>
</svg>
