<?xml version="1.0" encoding="UTF-8" standalone="no"?>
<!DOCTYPE svg PUBLIC "-//W3C//DTD SVG 1.1//EN"
 "http://www.w3.org/Graphics/SVG/1.1/DTD/svg11.dtd">
<!-- Generated by graphviz version 2.32.0 (20130801.1845)
 -->
<!-- Title: forcebalance.tinkerio.Liquid_TINKER.npt_simulation Pages: 1 -->
<svg width="1122pt" height="184pt"
 viewBox="0.00 0.00 1122.00 184.00" xmlns="http://www.w3.org/2000/svg" xmlns:xlink="http://www.w3.org/1999/xlink">
<g id="graph0" class="graph" transform="scale(1 1) rotate(0) translate(4 180)">
<title>forcebalance.tinkerio.Liquid_TINKER.npt_simulation</title>
<polygon fill="white" stroke="white" points="-4,5 -4,-180 1119,-180 1119,5 -4,5"/>
<!-- Node1 -->
<g id="node1" class="node"><title>Node1</title>
<polygon fill="#bfbfbf" stroke="black" points="0.0785,-67 0.0785,-99 129.922,-99 129.922,-67 0.0785,-67"/>
<text text-anchor="start" x="8.0785" y="-86" font-family="Ubuntu-R" font-size="10.00">forcebalance.tinkerio.Liquid</text>
<text text-anchor="middle" x="65" y="-74" font-family="Ubuntu-R" font-size="10.00">_TINKER.npt_simulation</text>
</g>
<!-- Node2 -->
<g id="node2" class="node"><title>Node2</title>
<g id="a_node2"><a xlink:href="namespaceforcebalance_1_1optimizer.html#ab43948ecf30c90d319e0c0b107fe484a" target="_top" xlink:title="forcebalance.optimizer.GoodStep">
<polygon fill="white" stroke="black" points="165.805,-112 165.805,-132 316.195,-132 316.195,-112 165.805,-112"/>
<text text-anchor="middle" x="241" y="-119" font-family="Ubuntu-R" font-size="10.00">forcebalance.optimizer.GoodStep</text>
</a>
</g>
</g>
<!-- Node1&#45;&gt;Node2 -->
<g id="edge1" class="edge"><title>Node1&#45;&gt;Node2</title>
<path fill="none" stroke="midnightblue" d="M130.297,-97.4114C148.343,-101.456 167.791,-105.815 185.228,-109.723"/>
<polygon fill="midnightblue" stroke="midnightblue" points="184.712,-113.195 195.236,-111.967 186.243,-106.364 184.712,-113.195"/>
</g>
<!-- Node3 -->
<g id="node3" class="node"><title>Node3</title>
<g id="a_node3"><a xlink:href="namespaceforcebalance_1_1nifty.html#a673f4a044169f5d8d822823989a836a7" target="_top" xlink:title="Submit a job to the Work Queue.">
<polygon fill="white" stroke="black" points="176.082,-73 176.082,-93 305.918,-93 305.918,-73 176.082,-73"/>
<text text-anchor="middle" x="241" y="-80" font-family="Ubuntu-R" font-size="10.00">forcebalance.nifty.queue_up</text>
</a>
</g>
</g>
<!-- Node1&#45;&gt;Node3 -->
<g id="edge2" class="edge"><title>Node1&#45;&gt;Node3</title>
<path fill="none" stroke="midnightblue" d="M130.297,-83C141.828,-83 153.931,-83 165.715,-83"/>
<polygon fill="midnightblue" stroke="midnightblue" points="165.967,-86.5001 175.967,-83 165.967,-79.5001 165.967,-86.5001"/>
</g>
<!-- Node11 -->
<g id="node11" class="node"><title>Node11</title>
<g id="a_node11"><a xlink:href="classforcebalance_1_1tinkerio_1_1Liquid__TINKER.html#a307529b9902b34a790a8b016e153c7d6" target="_top" xlink:title="forcebalance.tinkerio.Liquid\l_TINKER.__init__">
<polygon fill="white" stroke="black" points="176.078,-17 176.078,-49 305.922,-49 305.922,-17 176.078,-17"/>
<text text-anchor="start" x="184.078" y="-36" font-family="Ubuntu-R" font-size="10.00">forcebalance.tinkerio.Liquid</text>
<text text-anchor="middle" x="241" y="-24" font-family="Ubuntu-R" font-size="10.00">_TINKER.__init__</text>
</a>
</g>
</g>
<!-- Node1&#45;&gt;Node11 -->
<g id="edge11" class="edge"><title>Node1&#45;&gt;Node11</title>
<path fill="none" stroke="midnightblue" d="M122.012,-66.9045C138.622,-62.1316 156.965,-56.8606 174.138,-51.9258"/>
<polygon fill="midnightblue" stroke="midnightblue" points="175.448,-55.1911 184.092,-49.0654 173.515,-48.4634 175.448,-55.1911"/>
</g>
<!-- Node4 -->
<g id="node4" class="node"><title>Node4</title>
<g id="a_node4"><a xlink:href="namespaceforcebalance_1_1nifty.html#a374aac2ef003be02fab49b20ff0a82f0" target="_top" xlink:title="This function waits ten seconds to see if a task in the Work Queue has finished.">
<polygon fill="white" stroke="black" points="356.411,-72 356.411,-104 459.589,-104 459.589,-72 356.411,-72"/>
<text text-anchor="start" x="364.411" y="-91" font-family="Ubuntu-R" font-size="10.00">forcebalance.nifty.wq</text>
<text text-anchor="middle" x="408" y="-79" font-family="Ubuntu-R" font-size="10.00">_wait1</text>
</a>
</g>
</g>
<!-- Node3&#45;&gt;Node4 -->
<g id="edge3" class="edge"><title>Node3&#45;&gt;Node4</title>
<path fill="none" stroke="midnightblue" d="M306.266,-84.9474C319.332,-85.3434 333.04,-85.7588 345.99,-86.1512"/>
<polygon fill="midnightblue" stroke="midnightblue" points="346.084,-89.6556 356.185,-86.4602 346.296,-82.6588 346.084,-89.6556"/>
</g>
<!-- Node5 -->
<g id="node5" class="node"><title>Node5</title>
<g id="a_node5"><a xlink:href="namespaceforcebalance_1_1nifty.html#a576de8c5b6f236280e07e73e39b2ab7c" target="_top" xlink:title="This function waits until the work queue is completely empty.">
<polygon fill="white" stroke="black" points="515.303,-156 515.303,-176 640.697,-176 640.697,-156 515.303,-156"/>
<text text-anchor="middle" x="578" y="-163" font-family="Ubuntu-R" font-size="10.00">forcebalance.nifty.wq_wait</text>
</a>
</g>
</g>
<!-- Node4&#45;&gt;Node5 -->
<g id="edge4" class="edge"><title>Node4&#45;&gt;Node5</title>
<path fill="none" stroke="midnightblue" d="M433.347,-104.104C451.253,-115.464 476.469,-130.473 500,-141 509.82,-145.393 520.651,-149.394 531.01,-152.845"/>
<polygon fill="midnightblue" stroke="midnightblue" points="530.158,-156.247 540.75,-155.979 532.303,-149.584 530.158,-156.247"/>
</g>
<!-- Node6 -->
<g id="node6" class="node"><title>Node6</title>
<g id="a_node6"><a xlink:href="namespaceforcebalance_1_1nifty.html#ac9ab6c5543a2e3080061e0024850edf3" target="_top" xlink:title="forcebalance.nifty.allsplit">
<polygon fill="white" stroke="black" points="691.909,-136 691.909,-156 810.091,-156 810.091,-136 691.909,-136"/>
<text text-anchor="middle" x="751" y="-143" font-family="Ubuntu-R" font-size="10.00">forcebalance.nifty.allsplit</text>
</a>
</g>
</g>
<!-- Node4&#45;&gt;Node6 -->
<g id="edge9" class="edge"><title>Node4&#45;&gt;Node6</title>
<path fill="none" stroke="midnightblue" d="M459.927,-99.1116C472.965,-101.825 486.98,-104.627 500,-107 561.252,-118.165 631.312,-128.921 681.652,-136.299"/>
<polygon fill="midnightblue" stroke="midnightblue" points="681.365,-139.795 691.766,-137.775 682.376,-132.868 681.365,-139.795"/>
</g>
<!-- Node9 -->
<g id="node9" class="node"><title>Node9</title>
<g id="a_node9"><a xlink:href="namespaceforcebalance_1_1nifty.html#ad432b88307e1178b0690c0d350b1af36" target="_top" xlink:title="forcebalance.nifty.GoInto">
<polygon fill="white" stroke="black" points="518.357,-78 518.357,-98 637.643,-98 637.643,-78 518.357,-78"/>
<text text-anchor="middle" x="578" y="-85" font-family="Ubuntu-R" font-size="10.00">forcebalance.nifty.GoInto</text>
</a>
</g>
</g>
<!-- Node4&#45;&gt;Node9 -->
<g id="edge8" class="edge"><title>Node4&#45;&gt;Node9</title>
<path fill="none" stroke="midnightblue" d="M459.861,-88C474.993,-88 491.833,-88 507.919,-88"/>
<polygon fill="midnightblue" stroke="midnightblue" points="508.355,-91.5001 518.355,-88 508.355,-84.5001 508.355,-91.5001"/>
</g>
<!-- Node10 -->
<g id="node10" class="node"><title>Node10</title>
<g id="a_node10"><a xlink:href="namespaceforcebalance_1_1nifty.html#ab04e8690d099db2379dc860e0d040120" target="_top" xlink:title="forcebalance.nifty.Leave">
<polygon fill="white" stroke="black" points="520.308,-39 520.308,-59 635.692,-59 635.692,-39 520.308,-39"/>
<text text-anchor="middle" x="578" y="-46" font-family="Ubuntu-R" font-size="10.00">forcebalance.nifty.Leave</text>
</a>
</g>
</g>
<!-- Node4&#45;&gt;Node10 -->
<g id="edge10" class="edge"><title>Node4&#45;&gt;Node10</title>
<path fill="none" stroke="midnightblue" d="M459.861,-76.1929C480.112,-71.4918 503.423,-66.0804 523.891,-61.3289"/>
<polygon fill="midnightblue" stroke="midnightblue" points="524.735,-64.7261 533.685,-59.0553 523.152,-57.9074 524.735,-64.7261"/>
</g>
<!-- Node5&#45;&gt;Node6 -->
<g id="edge5" class="edge"><title>Node5&#45;&gt;Node6</title>
<path fill="none" stroke="midnightblue" d="M640.735,-158.78C654,-157.228 668.093,-155.58 681.594,-154.001"/>
<polygon fill="midnightblue" stroke="midnightblue" points="682.253,-157.448 691.779,-152.809 681.44,-150.495 682.253,-157.448"/>
</g>
<!-- Node7 -->
<g id="node7" class="node"><title>Node7</title>
<g id="a_node7"><a xlink:href="namespaceforcebalance_1_1nifty.html#ae87c7def5f8edf2ec30737bdb1d2636f" target="_top" xlink:title="forcebalance.nifty.Missing\lFileInspection">
<polygon fill="white" stroke="black" points="846.409,-130 846.409,-162 969.591,-162 969.591,-130 846.409,-130"/>
<text text-anchor="start" x="854.409" y="-149" font-family="Ubuntu-R" font-size="10.00">forcebalance.nifty.Missing</text>
<text text-anchor="middle" x="908" y="-137" font-family="Ubuntu-R" font-size="10.00">FileInspection</text>
</a>
</g>
</g>
<!-- Node6&#45;&gt;Node7 -->
<g id="edge6" class="edge"><title>Node6&#45;&gt;Node7</title>
<path fill="none" stroke="midnightblue" d="M810.157,-146C818.616,-146 827.403,-146 836.079,-146"/>
<polygon fill="midnightblue" stroke="midnightblue" points="836.187,-149.5 846.187,-146 836.187,-142.5 836.187,-149.5"/>
</g>
<!-- Node8 -->
<g id="node8" class="node"><title>Node8</title>
<g id="a_node8"><a xlink:href="namespaceforcebalance_1_1nifty.html#a0cf4e58f90acf20e3d6224be2354082c" target="_top" xlink:title="forcebalance.nifty.link\l_dir_contents">
<polygon fill="white" stroke="black" points="1006.74,-130 1006.74,-162 1113.26,-162 1113.26,-130 1006.74,-130"/>
<text text-anchor="start" x="1014.74" y="-149" font-family="Ubuntu-R" font-size="10.00">forcebalance.nifty.link</text>
<text text-anchor="middle" x="1060" y="-137" font-family="Ubuntu-R" font-size="10.00">_dir_contents</text>
</a>
</g>
</g>
<!-- Node7&#45;&gt;Node8 -->
<g id="edge7" class="edge"><title>Node7&#45;&gt;Node8</title>
<path fill="none" stroke="midnightblue" d="M970.011,-146C978.755,-146 987.763,-146 996.535,-146"/>
<polygon fill="midnightblue" stroke="midnightblue" points="996.695,-149.5 1006.7,-146 996.695,-142.5 996.695,-149.5"/>
</g>
<!-- Node12 -->
<g id="node12" class="node"><title>Node12</title>
<g id="a_node12"><a xlink:href="namespaceforcebalance_1_1nifty.html#abb8f59044961a12588e0653c2baa8b01" target="_top" xlink:title="forcebalance.nifty.warn\l_press_key">
<polygon fill="white" stroke="black" points="352.527,-8 352.527,-40 463.473,-40 463.473,-8 352.527,-8"/>
<text text-anchor="start" x="360.527" y="-27" font-family="Ubuntu-R" font-size="10.00">forcebalance.nifty.warn</text>
<text text-anchor="middle" x="408" y="-15" font-family="Ubuntu-R" font-size="10.00">_press_key</text>
</a>
</g>
</g>
<!-- Node11&#45;&gt;Node12 -->
<g id="edge12" class="edge"><title>Node11&#45;&gt;Node12</title>
<path fill="none" stroke="midnightblue" d="M306.266,-29.4946C318.023,-28.8533 330.301,-28.1836 342.078,-27.5412"/>
<polygon fill="midnightblue" stroke="midnightblue" points="342.478,-31.0247 352.272,-26.9851 342.096,-24.0351 342.478,-31.0247"/>
</g>
<!-- Node13 -->
<g id="node13" class="node"><title>Node13</title>
<g id="a_node13"><a xlink:href="namespaceforcebalance_1_1nifty.html#a2fc81730e7efa7d138dd86f733507bfc" target="_top" xlink:title="Similar to the bultin function map().">
<polygon fill="white" stroke="black" points="500.035,-0 500.035,-20 655.965,-20 655.965,-0 500.035,-0"/>
<text text-anchor="middle" x="578" y="-7" font-family="Ubuntu-R" font-size="10.00">forcebalance.nifty.concurrent_map</text>
</a>
</g>
</g>
<!-- Node12&#45;&gt;Node13 -->
<g id="edge13" class="edge"><title>Node12&#45;&gt;Node13</title>
<path fill="none" stroke="midnightblue" d="M463.545,-19.4546C471.968,-18.7527 480.843,-18.0131 489.768,-17.2694"/>
<polygon fill="midnightblue" stroke="midnightblue" points="490.168,-20.7482 499.843,-16.4298 489.586,-13.7724 490.168,-20.7482"/>
</g>
</g>
</svg>
