<?xml version="1.0" encoding="UTF-8" standalone="no"?>
<!DOCTYPE svg PUBLIC "-//W3C//DTD SVG 1.1//EN"
 "http://www.w3.org/Graphics/SVG/1.1/DTD/svg11.dtd">
<!-- Generated by graphviz version 2.28.0 (20111219.2309)
 -->
<!-- Title: G Pages: 1 -->
<svg width="1760pt" height="161pt"
 viewBox="0.00 0.00 1760.00 161.00" xmlns="http://www.w3.org/2000/svg" xmlns:xlink="http://www.w3.org/1999/xlink">
<g id="graph1" class="graph" transform="scale(1 1) rotate(0) translate(4 157)">
<title>G</title>
<polygon fill="white" stroke="white" points="-4,5 -4,-157 1757,-157 1757,5 -4,5"/>
<!-- Node1 -->
<g id="node1" class="node"><title>Node1</title>
<polygon fill="#bfbfbf" stroke="black" points="0.5,-95.5 0.5,-114.5 293.5,-114.5 293.5,-95.5 0.5,-95.5"/>
<text text-anchor="middle" x="147" y="-102.5" font-family="Ubuntu-R" font-size="10.00">forcebalance.gmxio.Interaction_GMX.interaction_driver_all</text>
</g>
<!-- Node2 -->
<g id="node3" class="node"><title>Node2</title>
<a xlink:href="namespaceforcebalance_1_1nifty.html#ac37d4fe58ef70ed546ebfc45d12f7a5d" target="_top" xlink:title="forcebalance.nifty.getWorkQueue">
<polygon fill="white" stroke="black" points="368.5,-133.5 368.5,-152.5 541.5,-152.5 541.5,-133.5 368.5,-133.5"/>
<text text-anchor="middle" x="455" y="-140.5" font-family="Ubuntu-R" font-size="10.00">forcebalance.nifty.getWorkQueue</text>
</a>
</g>
<!-- Node1&#45;&gt;Node2 -->
<g id="edge2" class="edge"><title>Node1&#45;&gt;Node2</title>
<path fill="none" stroke="midnightblue" d="M224.822,-114.54C268.191,-119.926 322.524,-126.673 367.401,-132.246"/>
<polygon fill="midnightblue" stroke="midnightblue" points="367.057,-135.73 377.412,-133.489 367.92,-128.783 367.057,-135.73"/>
</g>
<!-- Node3 -->
<g id="node5" class="node"><title>Node3</title>
<a xlink:href="namespaceforcebalance_1_1nifty.html#abb8f59044961a12588e0653c2baa8b01" target="_top" xlink:title="forcebalance.nifty.warn_press_key">
<polygon fill="white" stroke="black" points="365.5,-95.5 365.5,-114.5 544.5,-114.5 544.5,-95.5 365.5,-95.5"/>
<text text-anchor="middle" x="455" y="-102.5" font-family="Ubuntu-R" font-size="10.00">forcebalance.nifty.warn_press_key</text>
</a>
</g>
<!-- Node1&#45;&gt;Node3 -->
<g id="edge4" class="edge"><title>Node1&#45;&gt;Node3</title>
<path fill="none" stroke="midnightblue" d="M293.83,-105C314.673,-105 335.693,-105 355.339,-105"/>
<polygon fill="midnightblue" stroke="midnightblue" points="355.479,-108.5 365.479,-105 355.479,-101.5 355.479,-108.5"/>
</g>
<!-- Node4 -->
<g id="node7" class="node"><title>Node4</title>
<a xlink:href="namespaceforcebalance_1_1qchemio.html#a067c1b4f6695fc5dc20b5de66114bb7f" target="_top" xlink:title="forcebalance.qchemio.QChem_Dielectric_Energy">
<polygon fill="white" stroke="black" points="330.5,-57.5 330.5,-76.5 579.5,-76.5 579.5,-57.5 330.5,-57.5"/>
<text text-anchor="middle" x="455" y="-64.5" font-family="Ubuntu-R" font-size="10.00">forcebalance.qchemio.QChem_Dielectric_Energy</text>
</a>
</g>
<!-- Node1&#45;&gt;Node4 -->
<g id="edge6" class="edge"><title>Node1&#45;&gt;Node4</title>
<path fill="none" stroke="midnightblue" d="M224.822,-95.46C268.191,-90.0743 322.524,-83.3271 367.401,-77.7541"/>
<polygon fill="midnightblue" stroke="midnightblue" points="367.92,-81.2167 377.412,-76.5109 367.057,-74.27 367.92,-81.2167"/>
</g>
<!-- Node5 -->
<g id="node9" class="node"><title>Node5</title>
<a xlink:href="namespaceforcebalance_1_1nifty.html#ad432b88307e1178b0690c0d350b1af36" target="_top" xlink:title="forcebalance.nifty.GoInto">
<polygon fill="white" stroke="black" points="987,-114.5 987,-133.5 1121,-133.5 1121,-114.5 987,-114.5"/>
<text text-anchor="middle" x="1054" y="-121.5" font-family="Ubuntu-R" font-size="10.00">forcebalance.nifty.GoInto</text>
</a>
</g>
<!-- Node4&#45;&gt;Node5 -->
<g id="edge8" class="edge"><title>Node4&#45;&gt;Node5</title>
<path fill="none" stroke="midnightblue" d="M542.925,-76.5396C555.525,-79.0083 568.212,-82.1087 580,-86 597.18,-91.671 598.538,-100.27 616,-105 738.857,-138.28 888.171,-136.126 976.629,-130.671"/>
<polygon fill="midnightblue" stroke="midnightblue" points="977.092,-134.148 986.845,-130.009 976.64,-127.163 977.092,-134.148"/>
</g>
<!-- Node6 -->
<g id="node11" class="node"><title>Node6</title>
<a xlink:href="namespaceforcebalance_1_1nifty.html#a673f4a044169f5d8d822823989a836a7" target="_top" xlink:title="Submit a job to the Work Queue.">
<polygon fill="white" stroke="black" points="616,-76.5 616,-95.5 766,-95.5 766,-76.5 616,-76.5"/>
<text text-anchor="middle" x="691" y="-83.5" font-family="Ubuntu-R" font-size="10.00">forcebalance.nifty.queue_up</text>
</a>
</g>
<!-- Node4&#45;&gt;Node6 -->
<g id="edge10" class="edge"><title>Node4&#45;&gt;Node6</title>
<path fill="none" stroke="midnightblue" d="M573.343,-76.5278C584.318,-77.419 595.289,-78.3098 605.869,-79.1689"/>
<polygon fill="midnightblue" stroke="midnightblue" points="605.631,-82.6609 615.881,-79.9818 606.197,-75.6839 605.631,-82.6609"/>
</g>
<!-- Node8 -->
<g id="node15" class="node"><title>Node8</title>
<a xlink:href="namespaceforcebalance_1_1nifty.html#a576de8c5b6f236280e07e73e39b2ab7c" target="_top" xlink:title="This function waits until the work queue is completely empty.">
<polygon fill="white" stroke="black" points="984,-38.5 984,-57.5 1124,-57.5 1124,-38.5 984,-38.5"/>
<text text-anchor="middle" x="1054" y="-45.5" font-family="Ubuntu-R" font-size="10.00">forcebalance.nifty.wq_wait</text>
</a>
</g>
<!-- Node4&#45;&gt;Node8 -->
<g id="edge30" class="edge"><title>Node4&#45;&gt;Node8</title>
<path fill="none" stroke="midnightblue" d="M579.699,-63.0632C698.073,-59.2958 873.075,-53.7263 973.79,-50.5209"/>
<polygon fill="midnightblue" stroke="midnightblue" points="974.015,-54.0156 983.899,-50.1992 973.793,-47.0192 974.015,-54.0156"/>
</g>
<!-- Node12 -->
<g id="node25" class="node"><title>Node12</title>
<a xlink:href="namespaceforcebalance_1_1nifty.html#ab04e8690d099db2379dc860e0d040120" target="_top" xlink:title="forcebalance.nifty.Leave">
<polygon fill="white" stroke="black" points="988.5,-0.5 988.5,-19.5 1119.5,-19.5 1119.5,-0.5 988.5,-0.5"/>
<text text-anchor="middle" x="1054" y="-7.5" font-family="Ubuntu-R" font-size="10.00">forcebalance.nifty.Leave</text>
</a>
</g>
<!-- Node4&#45;&gt;Node12 -->
<g id="edge28" class="edge"><title>Node4&#45;&gt;Node12</title>
<path fill="none" stroke="midnightblue" d="M555.588,-57.4916C674.66,-46.1229 871.231,-27.3548 978.129,-17.1485"/>
<polygon fill="midnightblue" stroke="midnightblue" points="978.566,-20.6228 988.188,-16.1881 977.901,-13.6545 978.566,-20.6228"/>
</g>
<!-- Node7 -->
<g id="node13" class="node"><title>Node7</title>
<a xlink:href="namespaceforcebalance_1_1nifty.html#a374aac2ef003be02fab49b20ff0a82f0" target="_top" xlink:title="This function waits ten seconds to see if a task in the Work Queue has finished.">
<polygon fill="white" stroke="black" points="802,-76.5 802,-95.5 948,-95.5 948,-76.5 802,-76.5"/>
<text text-anchor="middle" x="875" y="-83.5" font-family="Ubuntu-R" font-size="10.00">forcebalance.nifty.wq_wait1</text>
</a>
</g>
<!-- Node6&#45;&gt;Node7 -->
<g id="edge12" class="edge"><title>Node6&#45;&gt;Node7</title>
<path fill="none" stroke="midnightblue" d="M766.026,-86C774.515,-86 783.207,-86 791.794,-86"/>
<polygon fill="midnightblue" stroke="midnightblue" points="791.807,-89.5001 801.807,-86 791.807,-82.5001 791.807,-89.5001"/>
</g>
<!-- Node7&#45;&gt;Node5 -->
<g id="edge22" class="edge"><title>Node7&#45;&gt;Node5</title>
<path fill="none" stroke="midnightblue" d="M920.665,-95.589C944.337,-100.671 973.608,-106.955 998.597,-112.32"/>
<polygon fill="midnightblue" stroke="midnightblue" points="998.145,-115.803 1008.66,-114.48 999.614,-108.959 998.145,-115.803"/>
</g>
<!-- Node7&#45;&gt;Node8 -->
<g id="edge14" class="edge"><title>Node7&#45;&gt;Node8</title>
<path fill="none" stroke="midnightblue" d="M920.665,-76.411C944.337,-71.3287 973.608,-65.0446 998.597,-59.6797"/>
<polygon fill="midnightblue" stroke="midnightblue" points="999.614,-63.0412 1008.66,-57.5201 998.145,-56.1972 999.614,-63.0412"/>
</g>
<!-- Node9 -->
<g id="node17" class="node"><title>Node9</title>
<a xlink:href="namespaceforcebalance_1_1nifty.html#ac9ab6c5543a2e3080061e0024850edf3" target="_top" xlink:title="forcebalance.nifty.allsplit">
<polygon fill="white" stroke="black" points="1160.5,-57.5 1160.5,-76.5 1293.5,-76.5 1293.5,-57.5 1160.5,-57.5"/>
<text text-anchor="middle" x="1227" y="-64.5" font-family="Ubuntu-R" font-size="10.00">forcebalance.nifty.allsplit</text>
</a>
</g>
<!-- Node7&#45;&gt;Node9 -->
<g id="edge24" class="edge"><title>Node7&#45;&gt;Node9</title>
<path fill="none" stroke="midnightblue" d="M948.096,-82.0862C1007.12,-78.8822 1090.36,-74.3634 1150.33,-71.1078"/>
<polygon fill="midnightblue" stroke="midnightblue" points="1150.7,-74.593 1160.49,-70.556 1150.32,-67.6033 1150.7,-74.593"/>
</g>
<!-- Node7&#45;&gt;Node12 -->
<g id="edge26" class="edge"><title>Node7&#45;&gt;Node12</title>
<path fill="none" stroke="midnightblue" d="M891.587,-76.3837C912.135,-64.0361 949.703,-42.586 984,-29 989.989,-26.6277 996.382,-24.437 1002.77,-22.4516"/>
<polygon fill="midnightblue" stroke="midnightblue" points="1004.15,-25.6945 1012.74,-19.5042 1002.16,-18.9814 1004.15,-25.6945"/>
</g>
<!-- Node8&#45;&gt;Node9 -->
<g id="edge16" class="edge"><title>Node8&#45;&gt;Node9</title>
<path fill="none" stroke="midnightblue" d="M1124.06,-55.6733C1132.65,-56.6282 1141.48,-57.6087 1150.17,-58.5742"/>
<polygon fill="midnightblue" stroke="midnightblue" points="1149.96,-62.0726 1160.29,-59.6984 1150.73,-55.1154 1149.96,-62.0726"/>
</g>
<!-- Node10 -->
<g id="node19" class="node"><title>Node10</title>
<a xlink:href="namespaceforcebalance_1_1nifty.html#ae87c7def5f8edf2ec30737bdb1d2636f" target="_top" xlink:title="forcebalance.nifty.MissingFileInspection">
<polygon fill="white" stroke="black" points="1330,-57.5 1330,-76.5 1532,-76.5 1532,-57.5 1330,-57.5"/>
<text text-anchor="middle" x="1431" y="-64.5" font-family="Ubuntu-R" font-size="10.00">forcebalance.nifty.MissingFileInspection</text>
</a>
</g>
<!-- Node9&#45;&gt;Node10 -->
<g id="edge18" class="edge"><title>Node9&#45;&gt;Node10</title>
<path fill="none" stroke="midnightblue" d="M1293.58,-67C1302.04,-67 1310.87,-67 1319.8,-67"/>
<polygon fill="midnightblue" stroke="midnightblue" points="1319.91,-70.5001 1329.91,-67 1319.91,-63.5001 1319.91,-70.5001"/>
</g>
<!-- Node11 -->
<g id="node21" class="node"><title>Node11</title>
<a xlink:href="namespaceforcebalance_1_1nifty.html#a0cf4e58f90acf20e3d6224be2354082c" target="_top" xlink:title="forcebalance.nifty.link_dir_contents">
<polygon fill="white" stroke="black" points="1568.5,-57.5 1568.5,-76.5 1751.5,-76.5 1751.5,-57.5 1568.5,-57.5"/>
<text text-anchor="middle" x="1660" y="-64.5" font-family="Ubuntu-R" font-size="10.00">forcebalance.nifty.link_dir_contents</text>
</a>
</g>
<!-- Node10&#45;&gt;Node11 -->
<g id="edge20" class="edge"><title>Node10&#45;&gt;Node11</title>
<path fill="none" stroke="midnightblue" d="M1532.23,-67C1540.85,-67 1549.57,-67 1558.2,-67"/>
<polygon fill="midnightblue" stroke="midnightblue" points="1558.27,-70.5001 1568.27,-67 1558.27,-63.5001 1558.27,-70.5001"/>
</g>
</g>
</svg>
