<?xml version="1.0" encoding="UTF-8" standalone="no"?>
<!DOCTYPE svg PUBLIC "-//W3C//DTD SVG 1.1//EN"
 "http://www.w3.org/Graphics/SVG/1.1/DTD/svg11.dtd">
<!-- Generated by graphviz version 2.28.0 (20111219.2309)
 -->
<!-- Title: forcebalance.optimizer.Optimizer.SinglePoint Pages: 1 -->
<svg width="2068pt" height="294pt"
 viewBox="0.00 0.00 2068.00 294.00" xmlns="http://www.w3.org/2000/svg" xmlns:xlink="http://www.w3.org/1999/xlink">
<g id="graph1" class="graph" transform="scale(1 1) rotate(0) translate(4 290)">
<title>forcebalance.optimizer.Optimizer.SinglePoint</title>
<polygon fill="white" stroke="white" points="-4,5 -4,-290 2065,-290 2065,5 -4,5"/>
<!-- Node1 -->
<g id="node1" class="node"><title>Node1</title>
<polygon fill="#bfbfbf" stroke="black" points="0.5,-93 0.5,-123 177.5,-123 177.5,-93 0.5,-93"/>
<text text-anchor="start" x="8.5" y="-111" font-family="Ubuntu-R" font-size="10.00">forcebalance.optimizer.Optimizer.</text>
<text text-anchor="middle" x="89" y="-100" font-family="Ubuntu-R" font-size="10.00">SinglePoint</text>
</g>
<!-- Node2 -->
<g id="node3" class="node"><title>Node2</title>
<a xlink:href="classforcebalance_1_1optimizer_1_1Optimizer.html#aacf96d137fb0e491af7e380c8bd61eb9" target="_top" xlink:title="Finite&#45;difference checker for the objective function gradient. ">
<polygon fill="white" stroke="black" points="214.5,-93 214.5,-123 391.5,-123 391.5,-93 214.5,-93"/>
<text text-anchor="start" x="222.5" y="-111" font-family="Ubuntu-R" font-size="10.00">forcebalance.optimizer.Optimizer.</text>
<text text-anchor="middle" x="303" y="-100" font-family="Ubuntu-R" font-size="10.00">FDCheckG</text>
</a>
</g>
<!-- Node1&#45;&gt;Node2 -->
<g id="edge2" class="edge"><title>Node1&#45;&gt;Node2</title>
<path fill="none" stroke="midnightblue" d="M177.759,-108C186.437,-108 195.284,-108 204.057,-108"/>
<polygon fill="midnightblue" stroke="midnightblue" points="204.307,-111.5 214.307,-108 204.307,-104.5 204.307,-111.5"/>
</g>
<!-- Node3 -->
<g id="node5" class="node"><title>Node3</title>
<a xlink:href="namespaceforcebalance_1_1nifty.html#a11babd62dc7bca389162c6318f9672ca" target="_top" xlink:title="Cool&#45;looking printout for slick formatting of output. ">
<polygon fill="white" stroke="black" points="428,-163.5 428,-182.5 572,-182.5 572,-163.5 428,-163.5"/>
<text text-anchor="middle" x="500" y="-170.5" font-family="Ubuntu-R" font-size="10.00">forcebalance.nifty.printcool</text>
</a>
</g>
<!-- Node2&#45;&gt;Node3 -->
<g id="edge4" class="edge"><title>Node2&#45;&gt;Node3</title>
<path fill="none" stroke="midnightblue" d="M349.227,-123.076C382.933,-134.311 428.471,-149.49 460.456,-160.152"/>
<polygon fill="midnightblue" stroke="midnightblue" points="459.738,-163.602 470.332,-163.444 461.952,-156.961 459.738,-163.602"/>
</g>
<!-- Node18 -->
<g id="node40" class="node"><title>Node18</title>
<a xlink:href="namespaceforcebalance_1_1finite__difference.html#a123c5d5dea0f3f50ab57796bb3bc39be" target="_top" xlink:title="A highly accurate five&#45;point finite difference stencil for computing derivatives of a function...">
<polygon fill="white" stroke="black" points="448,-93 448,-123 552,-123 552,-93 448,-93"/>
<text text-anchor="start" x="456" y="-111" font-family="Ubuntu-R" font-size="10.00">forcebalance.finite</text>
<text text-anchor="middle" x="500" y="-100" font-family="Ubuntu-R" font-size="10.00">_difference.f1d5p</text>
</a>
</g>
<!-- Node2&#45;&gt;Node18 -->
<g id="edge44" class="edge"><title>Node2&#45;&gt;Node18</title>
<path fill="none" stroke="midnightblue" d="M391.518,-108C406.998,-108 422.817,-108 437.392,-108"/>
<polygon fill="midnightblue" stroke="midnightblue" points="437.763,-111.5 447.763,-108 437.763,-104.5 437.763,-111.5"/>
</g>
<!-- Node23 -->
<g id="node50" class="node"><title>Node23</title>
<a xlink:href="namespaceforcebalance_1_1finite__difference.html#ae484c591ae8c4e5bae73a0ef2660c339" target="_top" xlink:title="A function wrapper for finite difference designed for differentiating &#39;get&#39;&#45;type functions. ">
<polygon fill="white" stroke="black" points="1144,-49 1144,-79 1248,-79 1248,-49 1144,-49"/>
<text text-anchor="start" x="1152" y="-67" font-family="Ubuntu-R" font-size="10.00">forcebalance.finite</text>
<text text-anchor="middle" x="1196" y="-56" font-family="Ubuntu-R" font-size="10.00">_difference.fdwrap</text>
</a>
</g>
<!-- Node2&#45;&gt;Node23 -->
<g id="edge62" class="edge"><title>Node2&#45;&gt;Node23</title>
<path fill="none" stroke="midnightblue" d="M370.67,-92.987C389.158,-89.2533 409.291,-85.584 428,-83 538.823,-67.6934 567.125,-64 679,-64 679,-64 679,-64 850,-64 949.272,-64 1064.61,-64 1133.6,-64"/>
<polygon fill="midnightblue" stroke="midnightblue" points="1133.85,-67.5001 1143.85,-64 1133.85,-60.5001 1133.85,-67.5001"/>
</g>
<!-- Node4 -->
<g id="node7" class="node"><title>Node4</title>
<a xlink:href="namespaceforcebalance_1_1nifty.html#abb8f59044961a12588e0653c2baa8b01" target="_top" xlink:title="forcebalance.nifty.warn\l_press_key">
<polygon fill="white" stroke="black" points="1695.5,-256 1695.5,-286 1820.5,-286 1820.5,-256 1695.5,-256"/>
<text text-anchor="start" x="1703.5" y="-274" font-family="Ubuntu-R" font-size="10.00">forcebalance.nifty.warn</text>
<text text-anchor="middle" x="1758" y="-263" font-family="Ubuntu-R" font-size="10.00">_press_key</text>
</a>
</g>
<!-- Node3&#45;&gt;Node4 -->
<g id="edge6" class="edge"><title>Node3&#45;&gt;Node4</title>
<path fill="none" stroke="midnightblue" d="M519.226,-182.598C569.871,-208.344 717.188,-277 848,-277 848,-277 848,-277 1375,-277 1483.23,-277 1608.69,-274.562 1685.44,-272.795"/>
<polygon fill="midnightblue" stroke="midnightblue" points="1685.56,-276.293 1695.47,-272.561 1685.4,-269.295 1685.56,-276.293"/>
</g>
<!-- Node6 -->
<g id="node11" class="node"><title>Node6</title>
<a xlink:href="namespaceforcebalance_1_1nifty.html#a51180e960742cc7547749fdfb3513ec4" target="_top" xlink:title="See documentation for printcool; this is a nice way to print out keys/values in a dictionary...">
<polygon fill="white" stroke="black" points="608,-158 608,-188 752,-188 752,-158 608,-158"/>
<text text-anchor="start" x="616" y="-176" font-family="Ubuntu-R" font-size="10.00">forcebalance.nifty.printcool</text>
<text text-anchor="middle" x="680" y="-165" font-family="Ubuntu-R" font-size="10.00">_dictionary</text>
</a>
</g>
<!-- Node3&#45;&gt;Node6 -->
<g id="edge10" class="edge"><title>Node3&#45;&gt;Node6</title>
<path fill="none" stroke="midnightblue" d="M572.118,-173C580.609,-173 589.327,-173 597.944,-173"/>
<polygon fill="midnightblue" stroke="midnightblue" points="597.995,-176.5 607.995,-173 597.995,-169.5 597.995,-176.5"/>
</g>
<!-- Node5 -->
<g id="node9" class="node"><title>Node5</title>
<a xlink:href="namespaceforcebalance_1_1nifty.html#a2fc81730e7efa7d138dd86f733507bfc" target="_top" xlink:title="Similar to the bultin function map(). ">
<polygon fill="white" stroke="black" points="1878,-261.5 1878,-280.5 2060,-280.5 2060,-261.5 1878,-261.5"/>
<text text-anchor="middle" x="1969" y="-268.5" font-family="Ubuntu-R" font-size="10.00">forcebalance.nifty.concurrent_map</text>
</a>
</g>
<!-- Node4&#45;&gt;Node5 -->
<g id="edge8" class="edge"><title>Node4&#45;&gt;Node5</title>
<path fill="none" stroke="midnightblue" d="M1820.58,-271C1835.43,-271 1851.69,-271 1867.81,-271"/>
<polygon fill="midnightblue" stroke="midnightblue" points="1867.82,-274.5 1877.82,-271 1867.82,-267.5 1867.82,-274.5"/>
</g>
<!-- Node7 -->
<g id="node13" class="node"><title>Node7</title>
<a xlink:href="namespaceforcebalance_1_1nifty.html#a3f1c7a1af9d35d5d1693074bc6f5497c" target="_top" xlink:title="ONLY matches integers! If you have a decimal point? None shall pass! ">
<polygon fill="white" stroke="black" points="788,-180.5 788,-199.5 910,-199.5 910,-180.5 788,-180.5"/>
<text text-anchor="middle" x="849" y="-187.5" font-family="Ubuntu-R" font-size="10.00">forcebalance.nifty.isint</text>
</a>
</g>
<!-- Node6&#45;&gt;Node7 -->
<g id="edge12" class="edge"><title>Node6&#45;&gt;Node7</title>
<path fill="none" stroke="midnightblue" d="M752.307,-180.259C760.753,-181.119 769.369,-181.996 777.799,-182.854"/>
<polygon fill="midnightblue" stroke="midnightblue" points="777.662,-186.358 787.965,-183.889 778.371,-179.394 777.662,-186.358"/>
</g>
<!-- Node9 -->
<g id="node17" class="node"><title>Node9</title>
<a xlink:href="namespaceforcebalance_1_1nifty.html#a8e3ef0108b9d37b82ba0dced7c6037ae" target="_top" xlink:title="Matches ANY number; it can be a decimal, scientific notation, what have you CAUTION &#45; this will also ...">
<polygon fill="white" stroke="black" points="1130.5,-164.5 1130.5,-183.5 1261.5,-183.5 1261.5,-164.5 1130.5,-164.5"/>
<text text-anchor="middle" x="1196" y="-171.5" font-family="Ubuntu-R" font-size="10.00">forcebalance.nifty.isfloat</text>
</a>
</g>
<!-- Node6&#45;&gt;Node9 -->
<g id="edge42" class="edge"><title>Node6&#45;&gt;Node9</title>
<path fill="none" stroke="midnightblue" d="M752.079,-171.485C764.069,-171.283 776.388,-171.109 788,-171 903.87,-169.917 1038.3,-171.453 1119.97,-172.696"/>
<polygon fill="midnightblue" stroke="midnightblue" points="1120.1,-176.199 1130.15,-172.854 1120.2,-169.199 1120.1,-176.199"/>
</g>
<!-- Node8 -->
<g id="node15" class="node"><title>Node8</title>
<a xlink:href="namespaceforcebalance_1_1nifty.html#a09263927eaec9deff283fbf1a820242f" target="_top" xlink:title="Matches things with a decimal only; see isint and isfloat. ">
<polygon fill="white" stroke="black" points="946,-218.5 946,-237.5 1094,-237.5 1094,-218.5 946,-218.5"/>
<text text-anchor="middle" x="1020" y="-225.5" font-family="Ubuntu-R" font-size="10.00">forcebalance.nifty.isdecimal</text>
</a>
</g>
<!-- Node7&#45;&gt;Node8 -->
<g id="edge14" class="edge"><title>Node7&#45;&gt;Node8</title>
<path fill="none" stroke="midnightblue" d="M892.646,-199.589C915.148,-204.649 942.948,-210.9 966.738,-216.249"/>
<polygon fill="midnightblue" stroke="midnightblue" points="966.137,-219.701 976.661,-218.48 967.672,-212.871 966.137,-219.701"/>
</g>
<!-- Node8&#45;&gt;Node9 -->
<g id="edge16" class="edge"><title>Node8&#45;&gt;Node9</title>
<path fill="none" stroke="midnightblue" d="M1051.71,-218.47C1080.32,-209.591 1123.16,-196.294 1154.55,-186.553"/>
<polygon fill="midnightblue" stroke="midnightblue" points="1155.79,-189.832 1164.31,-183.525 1153.72,-183.147 1155.79,-189.832"/>
</g>
<!-- Node13 -->
<g id="node26" class="node"><title>Node13</title>
<a xlink:href="namespaceforcebalance_1_1nifty.html#afb3f205bce4984856e766af7e9fdaca8" target="_top" xlink:title="Given any list, array, or matrix, return a 1&#45;column matrix. ">
<polygon fill="white" stroke="black" points="1138,-218.5 1138,-237.5 1254,-237.5 1254,-218.5 1138,-218.5"/>
<text text-anchor="middle" x="1196" y="-225.5" font-family="Ubuntu-R" font-size="10.00">forcebalance.nifty.col</text>
</a>
</g>
<!-- Node8&#45;&gt;Node13 -->
<g id="edge26" class="edge"><title>Node8&#45;&gt;Node13</title>
<path fill="none" stroke="midnightblue" d="M1094.04,-228C1105.1,-228 1116.47,-228 1127.42,-228"/>
<polygon fill="midnightblue" stroke="midnightblue" points="1127.75,-231.5 1137.75,-228 1127.75,-224.5 1127.75,-231.5"/>
</g>
<!-- Node9&#45;&gt;Node7 -->
<g id="edge18" class="edge"><title>Node9&#45;&gt;Node7</title>
<path fill="none" stroke="midnightblue" d="M1130.32,-177C1070.45,-179.776 981.656,-183.894 920.11,-186.749"/>
<polygon fill="midnightblue" stroke="midnightblue" points="919.921,-183.253 910.094,-187.213 920.246,-190.246 919.921,-183.253"/>
</g>
<!-- Node10 -->
<g id="node20" class="node"><title>Node10</title>
<a xlink:href="namespaceforcebalance_1_1nifty.html#a8d63c8ae9a67c66673a6cf81357f827d" target="_top" xlink:title="Returns a big number if we encounter NaN. ">
<polygon fill="white" stroke="black" points="1298,-153.5 1298,-172.5 1450,-172.5 1450,-153.5 1298,-153.5"/>
<text text-anchor="middle" x="1374" y="-160.5" font-family="Ubuntu-R" font-size="10.00">forcebalance.nifty.floatornan</text>
</a>
</g>
<!-- Node9&#45;&gt;Node10 -->
<g id="edge20" class="edge"><title>Node9&#45;&gt;Node10</title>
<path fill="none" stroke="midnightblue" d="M1261.54,-169.966C1270,-169.438 1278.77,-168.889 1287.51,-168.343"/>
<polygon fill="midnightblue" stroke="midnightblue" points="1287.98,-171.821 1297.74,-167.704 1287.54,-164.835 1287.98,-171.821"/>
</g>
<!-- Node11 -->
<g id="node22" class="node"><title>Node11</title>
<a xlink:href="namespaceforcebalance_1_1nifty.html#a6c9727360cdff8f3011a12cc54d0e86e" target="_top" xlink:title="Given any list, array, or matrix, return a 1&#45;row matrix. ">
<polygon fill="white" stroke="black" points="1502.5,-153.5 1502.5,-172.5 1621.5,-172.5 1621.5,-153.5 1502.5,-153.5"/>
<text text-anchor="middle" x="1562" y="-160.5" font-family="Ubuntu-R" font-size="10.00">forcebalance.nifty.row</text>
</a>
</g>
<!-- Node10&#45;&gt;Node11 -->
<g id="edge22" class="edge"><title>Node10&#45;&gt;Node11</title>
<path fill="none" stroke="midnightblue" d="M1450.12,-163C1464.02,-163 1478.47,-163 1492.17,-163"/>
<polygon fill="midnightblue" stroke="midnightblue" points="1492.48,-166.5 1502.48,-163 1492.48,-159.5 1492.48,-166.5"/>
</g>
<!-- Node12 -->
<g id="node24" class="node"><title>Node12</title>
<a xlink:href="namespaceforcebalance_1_1nifty.html#a7676236002c6a65ea7d2e69a09923889" target="_top" xlink:title="Given two vectors vec1 and vec2, project out the component of vec1 that is along the vec2&#45;direction...">
<polygon fill="white" stroke="black" points="1674,-153.5 1674,-172.5 1842,-172.5 1842,-153.5 1674,-153.5"/>
<text text-anchor="middle" x="1758" y="-160.5" font-family="Ubuntu-R" font-size="10.00">forcebalance.nifty.orthogonalize</text>
</a>
</g>
<!-- Node11&#45;&gt;Node12 -->
<g id="edge24" class="edge"><title>Node11&#45;&gt;Node12</title>
<path fill="none" stroke="midnightblue" d="M1621.73,-163C1634.92,-163 1649.24,-163 1663.46,-163"/>
<polygon fill="midnightblue" stroke="midnightblue" points="1663.78,-166.5 1673.78,-163 1663.78,-159.5 1663.78,-166.5"/>
</g>
<!-- Node14 -->
<g id="node28" class="node"><title>Node14</title>
<a xlink:href="namespaceforcebalance_1_1nifty.html#a52114ceee9d55f94d9aecb3e176de294" target="_top" xlink:title="Given any list, array, or matrix, return a single&#45;index array. ">
<polygon fill="white" stroke="black" points="1315,-191.5 1315,-210.5 1433,-210.5 1433,-191.5 1315,-191.5"/>
<text text-anchor="middle" x="1374" y="-198.5" font-family="Ubuntu-R" font-size="10.00">forcebalance.nifty.flat</text>
</a>
</g>
<!-- Node13&#45;&gt;Node14 -->
<g id="edge28" class="edge"><title>Node13&#45;&gt;Node14</title>
<path fill="none" stroke="midnightblue" d="M1254.14,-219.234C1270.27,-216.76 1287.98,-214.043 1304.69,-211.48"/>
<polygon fill="midnightblue" stroke="midnightblue" points="1305.58,-214.883 1314.94,-209.907 1304.52,-207.964 1305.58,-214.883"/>
</g>
<!-- Node15 -->
<g id="node30" class="node"><title>Node15</title>
<a xlink:href="namespaceforcebalance_1_1nifty.html#a4c82187e92dfeb8a159f4aa44b501c40" target="_top" xlink:title="Invert a matrix using singular value decomposition. ">
<polygon fill="white" stroke="black" points="1486,-229.5 1486,-248.5 1638,-248.5 1638,-229.5 1486,-229.5"/>
<text text-anchor="middle" x="1562" y="-236.5" font-family="Ubuntu-R" font-size="10.00">forcebalance.nifty.invert_svd</text>
</a>
</g>
<!-- Node14&#45;&gt;Node15 -->
<g id="edge30" class="edge"><title>Node14&#45;&gt;Node15</title>
<path fill="none" stroke="midnightblue" d="M1421.94,-210.589C1447.03,-215.716 1478.12,-222.067 1504.53,-227.463"/>
<polygon fill="midnightblue" stroke="midnightblue" points="1503.9,-230.907 1514.4,-229.48 1505.3,-224.049 1503.9,-230.907"/>
</g>
<!-- Node15&#45;&gt;Node4 -->
<g id="edge40" class="edge"><title>Node15&#45;&gt;Node4</title>
<path fill="none" stroke="midnightblue" d="M1620.68,-248.514C1641.03,-251.87 1664.15,-255.684 1685.5,-259.206"/>
<polygon fill="midnightblue" stroke="midnightblue" points="1685.05,-262.68 1695.49,-260.854 1686.19,-255.773 1685.05,-262.68"/>
</g>
<!-- Node15&#45;&gt;Node13 -->
<g id="edge38" class="edge"><title>Node15&#45;&gt;Node13</title>
<path fill="none" stroke="midnightblue" d="M1485.75,-236.726C1420.6,-234.757 1327.22,-231.935 1264.46,-230.039"/>
<polygon fill="midnightblue" stroke="midnightblue" points="1264.38,-226.535 1254.28,-229.731 1264.17,-233.531 1264.38,-226.535"/>
</g>
<!-- Node16 -->
<g id="node32" class="node"><title>Node16</title>
<a xlink:href="namespaceforcebalance_1_1nifty.html#aa9fb9c7c65231eca50a7afc04f489b64" target="_top" xlink:title="forcebalance.nifty.get\l_least_squares">
<polygon fill="white" stroke="black" points="1698.5,-202 1698.5,-232 1817.5,-232 1817.5,-202 1698.5,-202"/>
<text text-anchor="start" x="1706.5" y="-220" font-family="Ubuntu-R" font-size="10.00">forcebalance.nifty.get</text>
<text text-anchor="middle" x="1758" y="-209" font-family="Ubuntu-R" font-size="10.00">_least_squares</text>
</a>
</g>
<!-- Node15&#45;&gt;Node16 -->
<g id="edge32" class="edge"><title>Node15&#45;&gt;Node16</title>
<path fill="none" stroke="midnightblue" d="M1638.01,-230.494C1654.61,-228.612 1672.11,-226.626 1688.44,-224.775"/>
<polygon fill="midnightblue" stroke="midnightblue" points="1688.89,-228.246 1698.44,-223.641 1688.11,-221.29 1688.89,-228.246"/>
</g>
<!-- Node16&#45;&gt;Node14 -->
<g id="edge34" class="edge"><title>Node16&#45;&gt;Node14</title>
<path fill="none" stroke="midnightblue" d="M1698.44,-214.547C1629.76,-211.671 1516.1,-206.91 1443.43,-203.866"/>
<polygon fill="midnightblue" stroke="midnightblue" points="1443.16,-200.352 1433.02,-203.43 1442.86,-207.346 1443.16,-200.352"/>
</g>
<!-- Node17 -->
<g id="node35" class="node"><title>Node17</title>
<a xlink:href="namespaceforcebalance_1_1nifty.html#ad5ca60565c864b4245a8212fe9d92e10" target="_top" xlink:title="Compute the (cross) statistical inefficiency of (two) timeseries. ">
<polygon fill="white" stroke="black" points="1894.5,-202 1894.5,-232 2043.5,-232 2043.5,-202 1894.5,-202"/>
<text text-anchor="start" x="1902.5" y="-220" font-family="Ubuntu-R" font-size="10.00">forcebalance.nifty.statistical</text>
<text text-anchor="middle" x="1969" y="-209" font-family="Ubuntu-R" font-size="10.00">Inefficiency</text>
</a>
</g>
<!-- Node16&#45;&gt;Node17 -->
<g id="edge36" class="edge"><title>Node16&#45;&gt;Node17</title>
<path fill="none" stroke="midnightblue" d="M1817.77,-217C1838.4,-217 1861.99,-217 1884.26,-217"/>
<polygon fill="midnightblue" stroke="midnightblue" points="1884.39,-220.5 1894.39,-217 1884.39,-213.5 1884.39,-220.5"/>
</g>
<!-- Node19 -->
<g id="node42" class="node"><title>Node19</title>
<a xlink:href="namespaceforcebalance_1_1finite__difference.html#a9be9f0d21300958092e380514e2e980d" target="_top" xlink:title="A highly accurate seven&#45;point finite difference stencil for computing derivatives of a function...">
<polygon fill="white" stroke="black" points="628,-93 628,-123 732,-123 732,-93 628,-93"/>
<text text-anchor="start" x="636" y="-111" font-family="Ubuntu-R" font-size="10.00">forcebalance.finite</text>
<text text-anchor="middle" x="680" y="-100" font-family="Ubuntu-R" font-size="10.00">_difference.f1d7p</text>
</a>
</g>
<!-- Node18&#45;&gt;Node19 -->
<g id="edge46" class="edge"><title>Node18&#45;&gt;Node19</title>
<path fill="none" stroke="midnightblue" d="M552.008,-108C572.583,-108 596.493,-108 617.981,-108"/>
<polygon fill="midnightblue" stroke="midnightblue" points="617.985,-111.5 627.985,-108 617.985,-104.5 617.985,-111.5"/>
</g>
<!-- Node20 -->
<g id="node44" class="node"><title>Node20</title>
<a xlink:href="namespaceforcebalance_1_1finite__difference.html#acc281f85b668062745f711d9b4a610fa" target="_top" xlink:title="forcebalance.finite\l_difference.f12d7p">
<polygon fill="white" stroke="black" points="796.5,-93 796.5,-123 901.5,-123 901.5,-93 796.5,-93"/>
<text text-anchor="start" x="804.5" y="-111" font-family="Ubuntu-R" font-size="10.00">forcebalance.finite</text>
<text text-anchor="middle" x="849" y="-100" font-family="Ubuntu-R" font-size="10.00">_difference.f12d7p</text>
</a>
</g>
<!-- Node19&#45;&gt;Node20 -->
<g id="edge48" class="edge"><title>Node19&#45;&gt;Node20</title>
<path fill="none" stroke="midnightblue" d="M732.013,-108C749.092,-108 768.32,-108 786.136,-108"/>
<polygon fill="midnightblue" stroke="midnightblue" points="786.436,-111.5 796.436,-108 786.436,-104.5 786.436,-111.5"/>
</g>
<!-- Node21 -->
<g id="node46" class="node"><title>Node21</title>
<a xlink:href="namespaceforcebalance_1_1finite__difference.html#aa69a8819e4680091f400303c1d6ddeb7" target="_top" xlink:title="A three&#45;point finite difference stencil. ">
<polygon fill="white" stroke="black" points="967.5,-93 967.5,-123 1072.5,-123 1072.5,-93 967.5,-93"/>
<text text-anchor="start" x="975.5" y="-111" font-family="Ubuntu-R" font-size="10.00">forcebalance.finite</text>
<text text-anchor="middle" x="1020" y="-100" font-family="Ubuntu-R" font-size="10.00">_difference.f12d3p</text>
</a>
</g>
<!-- Node20&#45;&gt;Node21 -->
<g id="edge50" class="edge"><title>Node20&#45;&gt;Node21</title>
<path fill="none" stroke="midnightblue" d="M901.624,-108C919.151,-108 938.915,-108 957.157,-108"/>
<polygon fill="midnightblue" stroke="midnightblue" points="957.401,-111.5 967.401,-108 957.401,-104.5 957.401,-111.5"/>
</g>
<!-- Node22 -->
<g id="node48" class="node"><title>Node22</title>
<a xlink:href="namespaceforcebalance_1_1finite__difference.html#ad84d3e385db1190e7d8ef58bc08a6c52" target="_top" xlink:title="Invoking this function from anywhere will tell us whether we&#39;re being called by a finite&#45;difference f...">
<polygon fill="white" stroke="black" points="1144,-98 1144,-128 1248,-128 1248,-98 1144,-98"/>
<text text-anchor="start" x="1152" y="-116" font-family="Ubuntu-R" font-size="10.00">forcebalance.finite</text>
<text text-anchor="middle" x="1196" y="-105" font-family="Ubuntu-R" font-size="10.00">_difference.in_fd</text>
</a>
</g>
<!-- Node21&#45;&gt;Node22 -->
<g id="edge52" class="edge"><title>Node21&#45;&gt;Node22</title>
<path fill="none" stroke="midnightblue" d="M1072.73,-109.487C1091.84,-110.036 1113.68,-110.663 1133.57,-111.235"/>
<polygon fill="midnightblue" stroke="midnightblue" points="1133.67,-114.739 1143.76,-111.528 1133.87,-107.742 1133.67,-114.739"/>
</g>
<!-- Node21&#45;&gt;Node23 -->
<g id="edge54" class="edge"><title>Node21&#45;&gt;Node23</title>
<path fill="none" stroke="midnightblue" d="M1072.73,-94.9177C1091.93,-90.0634 1113.88,-84.5119 1133.84,-79.465"/>
<polygon fill="midnightblue" stroke="midnightblue" points="1134.93,-82.8009 1143.76,-76.9561 1133.21,-76.0145 1134.93,-82.8009"/>
</g>
<!-- Node24 -->
<g id="node52" class="node"><title>Node24</title>
<a xlink:href="namespaceforcebalance_1_1finite__difference.html#a00322fb65860c390616f74d05037c797" target="_top" xlink:title="A driver to fdwrap for gradients (see documentation for fdwrap) Inputs: tgt = The Target containing t...">
<polygon fill="white" stroke="black" points="1316,-49 1316,-79 1432,-79 1432,-49 1316,-49"/>
<text text-anchor="start" x="1324" y="-67" font-family="Ubuntu-R" font-size="10.00">forcebalance.finite</text>
<text text-anchor="middle" x="1374" y="-56" font-family="Ubuntu-R" font-size="10.00">_difference.fdwrap_G</text>
</a>
</g>
<!-- Node23&#45;&gt;Node24 -->
<g id="edge56" class="edge"><title>Node23&#45;&gt;Node24</title>
<path fill="none" stroke="midnightblue" d="M1248.38,-57.7989C1266.27,-57.231 1286.62,-57.1038 1305.61,-57.4172"/>
<polygon fill="midnightblue" stroke="midnightblue" points="1305.62,-60.9182 1315.69,-57.6289 1305.77,-53.9197 1305.62,-60.9182"/>
</g>
<!-- Node25 -->
<g id="node55" class="node"><title>Node25</title>
<a xlink:href="namespaceforcebalance_1_1finite__difference.html#a77a0bc1ae3cbbcc8d38a0ef9ca877d6d" target="_top" xlink:title="A driver to fdwrap for Hessians (see documentation for fdwrap) Inputs: tgt = The Target containing th...">
<polygon fill="white" stroke="black" points="1316,-0 1316,-30 1432,-30 1432,-0 1316,-0"/>
<text text-anchor="start" x="1324" y="-18" font-family="Ubuntu-R" font-size="10.00">forcebalance.finite</text>
<text text-anchor="middle" x="1374" y="-7" font-family="Ubuntu-R" font-size="10.00">_difference.fdwrap_H</text>
</a>
</g>
<!-- Node23&#45;&gt;Node25 -->
<g id="edge60" class="edge"><title>Node23&#45;&gt;Node25</title>
<path fill="none" stroke="midnightblue" d="M1248.38,-49.6954C1267.48,-44.3791 1289.37,-38.2831 1309.43,-32.6991"/>
<polygon fill="midnightblue" stroke="midnightblue" points="1310.41,-36.0585 1319.11,-30.0046 1308.53,-29.315 1310.41,-36.0585"/>
</g>
<!-- Node24&#45;&gt;Node23 -->
<g id="edge58" class="edge"><title>Node24&#45;&gt;Node23</title>
<path fill="none" stroke="midnightblue" d="M1315.69,-70.3711C1297.4,-70.8407 1277.08,-70.8738 1258.5,-70.4703"/>
<polygon fill="midnightblue" stroke="midnightblue" points="1258.47,-66.9683 1248.38,-70.2011 1258.28,-73.9658 1258.47,-66.9683"/>
</g>
</g>
</svg>
