<?xml version="1.0" encoding="UTF-8" standalone="no"?>
<!DOCTYPE svg PUBLIC "-//W3C//DTD SVG 1.1//EN"
 "http://www.w3.org/Graphics/SVG/1.1/DTD/svg11.dtd">
<!-- Generated by graphviz version 2.28.0 (20111219.2309)
 -->
<!-- Title: G Pages: 1 -->
<svg width="532pt" height="66pt"
 viewBox="0.00 0.00 532.00 66.00" xmlns="http://www.w3.org/2000/svg" xmlns:xlink="http://www.w3.org/1999/xlink">
<g id="graph1" class="graph" transform="scale(1 1) rotate(0) translate(4 62)">
<title>G</title>
<polygon fill="white" stroke="white" points="-4,5 -4,-62 529,-62 529,5 -4,5"/>
<!-- Node1 -->
<g id="node1" class="node"><title>Node1</title>
<polygon fill="#bfbfbf" stroke="black" points="0.5,-19.5 0.5,-38.5 273.5,-38.5 273.5,-19.5 0.5,-19.5"/>
<text text-anchor="middle" x="137" y="-26.5" font-family="Ubuntu-R" font-size="10.00">forcebalance.gmxio.AbInitio_GMX.energy_force_driver</text>
</g>
<!-- Node2 -->
<g id="node3" class="node"><title>Node2</title>
<a xlink:href="classforcebalance_1_1gmxio_1_1AbInitio__GMX.html#a1d03ae8104bcecacf96884058f2698af" target="_top" xlink:title="Initialization; define a few core concepts.">
<polygon fill="white" stroke="black" points="310,-38.5 310,-57.5 524,-57.5 524,-38.5 310,-38.5"/>
<text text-anchor="middle" x="417" y="-45.5" font-family="Ubuntu-R" font-size="10.00">forcebalance.gmxio.AbInitio_GMX.__init__</text>
</a>
</g>
<!-- Node1&#45;&gt;Node2 -->
<g id="edge2" class="edge"><title>Node1&#45;&gt;Node2</title>
<path fill="none" stroke="midnightblue" d="M273.742,-38.2774C282.46,-38.8732 291.195,-39.4702 299.81,-40.0589"/>
<polygon fill="midnightblue" stroke="midnightblue" points="299.644,-43.5557 309.859,-40.7458 300.121,-36.572 299.644,-43.5557"/>
</g>
<!-- Node3 -->
<g id="node5" class="node"><title>Node3</title>
<a xlink:href="classforcebalance_1_1BaseClass.html#a73e9a37a7632e79eb99f49bd15aced45" target="_top" xlink:title="forcebalance.BaseClass.set_option">
<polygon fill="white" stroke="black" points="325,-0.5 325,-19.5 509,-19.5 509,-0.5 325,-0.5"/>
<text text-anchor="middle" x="417" y="-7.5" font-family="Ubuntu-R" font-size="10.00">forcebalance.BaseClass.set_option</text>
</a>
</g>
<!-- Node1&#45;&gt;Node3 -->
<g id="edge4" class="edge"><title>Node1&#45;&gt;Node3</title>
<path fill="none" stroke="midnightblue" d="M273.742,-19.7226C287.581,-18.7768 301.463,-17.828 314.839,-16.9139"/>
<polygon fill="midnightblue" stroke="midnightblue" points="315.222,-20.3959 324.96,-16.2221 314.745,-13.4122 315.222,-20.3959"/>
</g>
</g>
</svg>
