<?xml version="1.0" encoding="UTF-8" standalone="no"?>
<!DOCTYPE svg PUBLIC "-//W3C//DTD SVG 1.1//EN"
 "http://www.w3.org/Graphics/SVG/1.1/DTD/svg11.dtd">
<!-- Generated by graphviz version 2.32.0 (20130801.1845)
 -->
<!-- Title: forcebalance.forcefield.FF.create_pvals Pages: 1 -->
<svg width="1612pt" height="382pt"
 viewBox="0.00 0.00 1612.00 381.51" xmlns="http://www.w3.org/2000/svg" xmlns:xlink="http://www.w3.org/1999/xlink">
<g id="graph0" class="graph" transform="scale(1 1) rotate(0) translate(4 377.507)">
<title>forcebalance.forcefield.FF.create_pvals</title>
<polygon fill="white" stroke="white" points="-4,5 -4,-377.507 1609,-377.507 1609,5 -4,5"/>
<!-- Node1 -->
<g id="node1" class="node"><title>Node1</title>
<polygon fill="#bfbfbf" stroke="black" points="0.5335,-174 0.5335,-206 111.467,-206 111.467,-174 0.5335,-174"/>
<text text-anchor="start" x="8.5335" y="-193" font-family="Ubuntu-R" font-size="10.00">forcebalance.forcefield.</text>
<text text-anchor="middle" x="56" y="-181" font-family="Ubuntu-R" font-size="10.00">FF.create_pvals</text>
</g>
<!-- Node2 -->
<g id="node2" class="node"><title>Node2</title>
<g id="a_node2"><a xlink:href="namespaceforcebalance_1_1nifty.html#a52114ceee9d55f94d9aecb3e176de294" target="_top" xlink:title="Given any list, array, or matrix, return a single&#45;index array.">
<polygon fill="white" stroke="black" points="151.858,-237 151.858,-257 256.142,-257 256.142,-237 151.858,-237"/>
<text text-anchor="middle" x="204" y="-244" font-family="Ubuntu-R" font-size="10.00">forcebalance.nifty.flat</text>
</a>
</g>
</g>
<!-- Node1&#45;&gt;Node2 -->
<g id="edge1" class="edge"><title>Node1&#45;&gt;Node2</title>
<path fill="none" stroke="midnightblue" d="M98.0577,-206.029C120.047,-214.614 146.852,-225.079 167.867,-233.284"/>
<polygon fill="midnightblue" stroke="midnightblue" points="166.786,-236.619 177.374,-236.995 169.332,-230.098 166.786,-236.619"/>
</g>
<!-- Node3 -->
<g id="node3" class="node"><title>Node3</title>
<g id="a_node3"><a xlink:href="namespaceforcebalance_1_1nifty.html#a4c82187e92dfeb8a159f4aa44b501c40" target="_top" xlink:title="Invert a matrix using singular value decomposition.">
<polygon fill="white" stroke="black" points="296.413,-295 296.413,-315 429.587,-315 429.587,-295 296.413,-295"/>
<text text-anchor="middle" x="363" y="-302" font-family="Ubuntu-R" font-size="10.00">forcebalance.nifty.invert_svd</text>
</a>
</g>
</g>
<!-- Node1&#45;&gt;Node3 -->
<g id="edge14" class="edge"><title>Node1&#45;&gt;Node3</title>
<path fill="none" stroke="midnightblue" d="M71.3603,-206.201C87.9804,-223.854 117.057,-251.507 148,-266 191.217,-286.242 243.913,-296.004 286.199,-300.699"/>
<polygon fill="midnightblue" stroke="midnightblue" points="285.85,-304.181 296.158,-301.733 286.573,-297.218 285.85,-304.181"/>
</g>
<!-- Node6 -->
<g id="node6" class="node"><title>Node6</title>
<g id="a_node6"><a xlink:href="namespaceforcebalance_1_1nifty.html#afb3f205bce4984856e766af7e9fdaca8" target="_top" xlink:title="Given any list, array, or matrix, return a 1&#45;column matrix.">
<polygon fill="white" stroke="black" points="1000.41,-199 1000.41,-219 1103.59,-219 1103.59,-199 1000.41,-199"/>
<text text-anchor="middle" x="1052" y="-206" font-family="Ubuntu-R" font-size="10.00">forcebalance.nifty.col</text>
</a>
</g>
</g>
<!-- Node1&#45;&gt;Node6 -->
<g id="edge10" class="edge"><title>Node1&#45;&gt;Node6</title>
<path fill="none" stroke="midnightblue" d="M111.545,-190C172.567,-190 274.365,-190 362,-190 362,-190 362,-190 715,-190 811.42,-190 923.157,-197.896 990.394,-203.507"/>
<polygon fill="midnightblue" stroke="midnightblue" points="990.129,-206.997 1000.39,-204.352 990.719,-200.022 990.129,-206.997"/>
</g>
<!-- Node9 -->
<g id="node9" class="node"><title>Node9</title>
<g id="a_node9"><a xlink:href="classforcebalance_1_1forcefield_1_1FF.html#ae5fba4d3e22f210632ead3653e6e12dd" target="_top" xlink:title="Converts physical to mathematical parameters.">
<polygon fill="white" stroke="black" points="148.533,-17 148.533,-49 259.466,-49 259.466,-17 148.533,-17"/>
<text text-anchor="start" x="156.533" y="-36" font-family="Ubuntu-R" font-size="10.00">forcebalance.forcefield.</text>
<text text-anchor="middle" x="204" y="-24" font-family="Ubuntu-R" font-size="10.00">FF.create_mvals</text>
</a>
</g>
</g>
<!-- Node1&#45;&gt;Node9 -->
<g id="edge11" class="edge"><title>Node1&#45;&gt;Node9</title>
<path fill="none" stroke="midnightblue" d="M72.0747,-173.79C97.866,-146.055 150.581,-89.3688 180.659,-57.0238"/>
<polygon fill="midnightblue" stroke="midnightblue" points="183.542,-59.0639 187.789,-49.3574 178.416,-54.297 183.542,-59.0639"/>
</g>
<!-- Node12 -->
<g id="node12" class="node"><title>Node12</title>
<g id="a_node12"><a xlink:href="classforcebalance_1_1forcefield_1_1FF.html#a88715f96ff8e14c3c83b4f976ad147b4" target="_top" xlink:title="Create the rescaling factors for the coordinate transformation in parameter space.">
<polygon fill="white" stroke="black" points="148.533,-110 148.533,-142 259.466,-142 259.466,-110 148.533,-110"/>
<text text-anchor="start" x="156.533" y="-129" font-family="Ubuntu-R" font-size="10.00">forcebalance.forcefield.</text>
<text text-anchor="middle" x="204" y="-117" font-family="Ubuntu-R" font-size="10.00">FF.rsmake</text>
</a>
</g>
</g>
<!-- Node1&#45;&gt;Node12 -->
<g id="edge15" class="edge"><title>Node1&#45;&gt;Node12</title>
<path fill="none" stroke="midnightblue" d="M93.842,-173.85C113.021,-165.443 136.656,-155.082 157.023,-146.154"/>
<polygon fill="midnightblue" stroke="midnightblue" points="158.669,-149.254 166.423,-142.034 155.859,-142.843 158.669,-149.254"/>
</g>
<!-- Node2&#45;&gt;Node3 -->
<g id="edge2" class="edge"><title>Node2&#45;&gt;Node3</title>
<path fill="none" stroke="midnightblue" d="M232.347,-257.103C258.046,-266.597 296.699,-280.876 325.116,-291.374"/>
<polygon fill="midnightblue" stroke="midnightblue" points="324.11,-294.734 334.703,-294.916 326.536,-288.167 324.11,-294.734"/>
</g>
<!-- Node4 -->
<g id="node4" class="node"><title>Node4</title>
<g id="a_node4"><a xlink:href="namespaceforcebalance_1_1nifty.html#aa9fb9c7c65231eca50a7afc04f489b64" target="_top" xlink:title="forcebalance.nifty.get\l_least_squares">
<polygon fill="white" stroke="black" points="481.412,-308 481.412,-340 584.588,-340 584.588,-308 481.412,-308"/>
<text text-anchor="start" x="489.412" y="-327" font-family="Ubuntu-R" font-size="10.00">forcebalance.nifty.get</text>
<text text-anchor="middle" x="533" y="-315" font-family="Ubuntu-R" font-size="10.00">_least_squares</text>
</a>
</g>
</g>
<!-- Node3&#45;&gt;Node4 -->
<g id="edge3" class="edge"><title>Node3&#45;&gt;Node4</title>
<path fill="none" stroke="midnightblue" d="M429.916,-312.455C443.541,-313.996 457.833,-315.612 471.263,-317.131"/>
<polygon fill="midnightblue" stroke="midnightblue" points="471.01,-320.625 481.34,-318.271 471.797,-313.669 471.01,-320.625"/>
</g>
<!-- Node3&#45;&gt;Node6 -->
<g id="edge6" class="edge"><title>Node3&#45;&gt;Node6</title>
<path fill="none" stroke="midnightblue" d="M381.331,-315.09C401.067,-325.947 434.647,-342.526 466,-349 607.895,-378.3 651.536,-384.534 792,-349 888.226,-324.657 987.494,-256.69 1029.82,-225.287"/>
<polygon fill="midnightblue" stroke="midnightblue" points="1032.07,-227.973 1037.97,-219.17 1027.87,-222.376 1032.07,-227.973"/>
</g>
<!-- Node7 -->
<g id="node7" class="node"><title>Node7</title>
<g id="a_node7"><a xlink:href="namespaceforcebalance_1_1nifty.html#abb8f59044961a12588e0653c2baa8b01" target="_top" xlink:title="forcebalance.nifty.warn\l_press_key">
<polygon fill="white" stroke="black" points="477.527,-257 477.527,-289 588.472,-289 588.472,-257 477.527,-257"/>
<text text-anchor="start" x="485.527" y="-276" font-family="Ubuntu-R" font-size="10.00">forcebalance.nifty.warn</text>
<text text-anchor="middle" x="533" y="-264" font-family="Ubuntu-R" font-size="10.00">_press_key</text>
</a>
</g>
</g>
<!-- Node3&#45;&gt;Node7 -->
<g id="edge8" class="edge"><title>Node3&#45;&gt;Node7</title>
<path fill="none" stroke="midnightblue" d="M416.695,-294.963C432.713,-291.912 450.502,-288.523 467.219,-285.339"/>
<polygon fill="midnightblue" stroke="midnightblue" points="468.295,-288.697 477.463,-283.388 466.985,-281.821 468.295,-288.697"/>
</g>
<!-- Node4&#45;&gt;Node2 -->
<g id="edge4" class="edge"><title>Node4&#45;&gt;Node2</title>
<path fill="none" stroke="midnightblue" d="M491.339,-307.979C468.378,-299.106 441.948,-289.231 430,-286 375.564,-271.278 312.157,-260.876 266.554,-254.538"/>
<polygon fill="midnightblue" stroke="midnightblue" points="266.906,-251.053 256.524,-253.169 265.959,-257.989 266.906,-251.053"/>
</g>
<!-- Node5 -->
<g id="node5" class="node"><title>Node5</title>
<g id="a_node5"><a xlink:href="namespaceforcebalance_1_1nifty.html#ad5ca60565c864b4245a8212fe9d92e10" target="_top" xlink:title="Compute the (cross) statistical inefficiency of (two) timeseries.">
<polygon fill="white" stroke="black" points="649.636,-308 649.636,-340 778.364,-340 778.364,-308 649.636,-308"/>
<text text-anchor="start" x="657.636" y="-327" font-family="Ubuntu-R" font-size="10.00">forcebalance.nifty.statistical</text>
<text text-anchor="middle" x="714" y="-315" font-family="Ubuntu-R" font-size="10.00">Inefficiency</text>
</a>
</g>
</g>
<!-- Node4&#45;&gt;Node5 -->
<g id="edge5" class="edge"><title>Node4&#45;&gt;Node5</title>
<path fill="none" stroke="midnightblue" d="M584.815,-324C601.821,-324 621.135,-324 639.516,-324"/>
<polygon fill="midnightblue" stroke="midnightblue" points="639.612,-327.5 649.612,-324 639.612,-320.5 639.612,-327.5"/>
</g>
<!-- Node6&#45;&gt;Node2 -->
<g id="edge7" class="edge"><title>Node6&#45;&gt;Node2</title>
<path fill="none" stroke="midnightblue" d="M1000.39,-213.648C934.669,-219.273 816.37,-228 715,-228 532,-228 532,-228 532,-228 439.291,-228 332.047,-235.705 266.378,-241.302"/>
<polygon fill="midnightblue" stroke="midnightblue" points="265.866,-237.833 256.204,-242.181 266.468,-244.807 265.866,-237.833"/>
</g>
<!-- Node8 -->
<g id="node8" class="node"><title>Node8</title>
<g id="a_node8"><a xlink:href="namespaceforcebalance_1_1nifty.html#a2fc81730e7efa7d138dd86f733507bfc" target="_top" xlink:title="Similar to the bultin function map().">
<polygon fill="white" stroke="black" points="636.035,-263 636.035,-283 791.965,-283 791.965,-263 636.035,-263"/>
<text text-anchor="middle" x="714" y="-270" font-family="Ubuntu-R" font-size="10.00">forcebalance.nifty.concurrent_map</text>
</a>
</g>
</g>
<!-- Node7&#45;&gt;Node8 -->
<g id="edge9" class="edge"><title>Node7&#45;&gt;Node8</title>
<path fill="none" stroke="midnightblue" d="M588.679,-273C600.442,-273 613.156,-273 625.809,-273"/>
<polygon fill="midnightblue" stroke="midnightblue" points="625.923,-276.5 635.923,-273 625.923,-269.5 625.923,-276.5"/>
</g>
<!-- Node10 -->
<g id="node10" class="node"><title>Node10</title>
<g id="a_node10"><a xlink:href="namespaceforcebalance_1_1molecule.html#a0dd31eff88d2bed0884ab21a13261d42" target="_top" xlink:title="ONLY matches integers! If you have a decimal point? None shall pass!">
<polygon fill="white" stroke="black" points="300.024,-0 300.024,-20 425.976,-20 425.976,-0 300.024,-0"/>
<text text-anchor="middle" x="363" y="-7" font-family="Ubuntu-R" font-size="10.00">forcebalance.molecule.isint</text>
</a>
</g>
</g>
<!-- Node9&#45;&gt;Node10 -->
<g id="edge12" class="edge"><title>Node9&#45;&gt;Node10</title>
<path fill="none" stroke="midnightblue" d="M259.47,-25.0203C269.235,-23.5898 279.548,-22.079 289.721,-20.5886"/>
<polygon fill="midnightblue" stroke="midnightblue" points="290.435,-24.0215 299.822,-19.1089 289.42,-17.0955 290.435,-24.0215"/>
</g>
<!-- Node11 -->
<g id="node11" class="node"><title>Node11</title>
<g id="a_node11"><a xlink:href="namespaceforcebalance_1_1molecule.html#afe989ffd119568047fc8265b1d329a70" target="_top" xlink:title="Matches ANY number; it can be a decimal, scientific notation, integer, or what have you...">
<polygon fill="white" stroke="black" points="466.14,-0 466.14,-20 599.86,-20 599.86,-0 466.14,-0"/>
<text text-anchor="middle" x="533" y="-7" font-family="Ubuntu-R" font-size="10.00">forcebalance.molecule.isfloat</text>
</a>
</g>
</g>
<!-- Node10&#45;&gt;Node11 -->
<g id="edge13" class="edge"><title>Node10&#45;&gt;Node11</title>
<path fill="none" stroke="midnightblue" d="M426.08,-10C435.722,-10 445.78,-10 455.693,-10"/>
<polygon fill="midnightblue" stroke="midnightblue" points="455.948,-13.5001 465.948,-10 455.948,-6.5001 455.948,-13.5001"/>
</g>
<!-- Node13 -->
<g id="node13" class="node"><title>Node13</title>
<g id="a_node13"><a xlink:href="namespaceforcebalance_1_1forcefield.html#ab1a855bace20dd5e45928467e2a133f1" target="_top" xlink:title="This function takes in a dictionary (rsfactors) and a string (termtype).">
<polygon fill="white" stroke="black" points="303.924,-90 303.924,-122 422.076,-122 422.076,-90 303.924,-90"/>
<text text-anchor="start" x="311.924" y="-109" font-family="Ubuntu-R" font-size="10.00">forcebalance.forcefield.rs</text>
<text text-anchor="middle" x="363" y="-97" font-family="Ubuntu-R" font-size="10.00">_override</text>
</a>
</g>
</g>
<!-- Node12&#45;&gt;Node13 -->
<g id="edge16" class="edge"><title>Node12&#45;&gt;Node13</title>
<path fill="none" stroke="midnightblue" d="M259.47,-119.061C270.567,-117.647 282.373,-116.144 293.877,-114.678"/>
<polygon fill="midnightblue" stroke="midnightblue" points="294.405,-118.139 303.882,-113.404 293.52,-111.195 294.405,-118.139"/>
</g>
<!-- Node14 -->
<g id="node14" class="node"><title>Node14</title>
<g id="a_node14"><a xlink:href="namespaceforcebalance_1_1nifty.html#a11babd62dc7bca389162c6318f9672ca" target="_top" xlink:title="Cool&#45;looking printout for slick formatting of output.">
<polygon fill="white" stroke="black" points="299.469,-141 299.469,-161 426.531,-161 426.531,-141 299.469,-141"/>
<text text-anchor="middle" x="363" y="-148" font-family="Ubuntu-R" font-size="10.00">forcebalance.nifty.printcool</text>
</a>
</g>
</g>
<!-- Node12&#45;&gt;Node14 -->
<g id="edge17" class="edge"><title>Node12&#45;&gt;Node14</title>
<path fill="none" stroke="midnightblue" d="M259.47,-134.674C269.102,-136.207 279.267,-137.826 289.306,-139.424"/>
<polygon fill="midnightblue" stroke="midnightblue" points="288.851,-142.896 299.277,-141.012 289.952,-135.983 288.851,-142.896"/>
</g>
<!-- Node22 -->
<g id="node22" class="node"><title>Node22</title>
<g id="a_node22"><a xlink:href="classforcebalance_1_1forcefield_1_1FF.html#acf0ce8fc4e9fbf5257f93d14d4a4f10f" target="_top" xlink:title="Create the transformation matrix to rescale and rotate the mathematical parameters.">
<polygon fill="white" stroke="black" points="307.534,-39 307.534,-71 418.466,-71 418.466,-39 307.534,-39"/>
<text text-anchor="start" x="315.534" y="-58" font-family="Ubuntu-R" font-size="10.00">forcebalance.forcefield.</text>
<text text-anchor="middle" x="363" y="-46" font-family="Ubuntu-R" font-size="10.00">FF.mktransmat</text>
</a>
</g>
</g>
<!-- Node12&#45;&gt;Node22 -->
<g id="edge29" class="edge"><title>Node12&#45;&gt;Node22</title>
<path fill="none" stroke="midnightblue" d="M234.949,-109.853C252.515,-100.637 275.265,-89.1372 296,-80 299.91,-78.2769 303.98,-76.5592 308.093,-74.8776"/>
<polygon fill="midnightblue" stroke="midnightblue" points="309.727,-77.9938 317.715,-71.0335 307.13,-71.4934 309.727,-77.9938"/>
</g>
<!-- Node14&#45;&gt;Node7 -->
<g id="edge18" class="edge"><title>Node14&#45;&gt;Node7</title>
<path fill="none" stroke="midnightblue" d="M378.035,-161.192C405.048,-180.808 464.83,-224.221 501.443,-250.81"/>
<polygon fill="midnightblue" stroke="midnightblue" points="499.625,-253.815 509.774,-256.859 503.739,-248.151 499.625,-253.815"/>
</g>
<!-- Node15 -->
<g id="node15" class="node"><title>Node15</title>
<g id="a_node15"><a xlink:href="namespaceforcebalance_1_1nifty.html#a51180e960742cc7547749fdfb3513ec4" target="_top" xlink:title="See documentation for printcool; this is a nice way to print out keys/values in a dictionary...">
<polygon fill="white" stroke="black" points="469.469,-113 469.469,-145 596.532,-145 596.532,-113 469.469,-113"/>
<text text-anchor="start" x="477.469" y="-132" font-family="Ubuntu-R" font-size="10.00">forcebalance.nifty.printcool</text>
<text text-anchor="middle" x="533" y="-120" font-family="Ubuntu-R" font-size="10.00">_dictionary</text>
</a>
</g>
</g>
<!-- Node14&#45;&gt;Node15 -->
<g id="edge19" class="edge"><title>Node14&#45;&gt;Node15</title>
<path fill="none" stroke="midnightblue" d="M426.557,-142.808C437.271,-141.405 448.483,-139.937 459.432,-138.503"/>
<polygon fill="midnightblue" stroke="midnightblue" points="459.93,-141.968 469.391,-137.199 459.021,-135.027 459.93,-141.968"/>
</g>
<!-- Node16 -->
<g id="node16" class="node"><title>Node16</title>
<g id="a_node16"><a xlink:href="namespaceforcebalance_1_1nifty.html#a3f1c7a1af9d35d5d1693074bc6f5497c" target="_top" xlink:title="ONLY matches integers! If you have a decimal point? None shall pass!">
<polygon fill="white" stroke="black" points="659.908,-119 659.908,-139 768.092,-139 768.092,-119 659.908,-119"/>
<text text-anchor="middle" x="714" y="-126" font-family="Ubuntu-R" font-size="10.00">forcebalance.nifty.isint</text>
</a>
</g>
</g>
<!-- Node15&#45;&gt;Node16 -->
<g id="edge20" class="edge"><title>Node15&#45;&gt;Node16</title>
<path fill="none" stroke="midnightblue" d="M596.606,-129C613.637,-129 632.102,-129 649.199,-129"/>
<polygon fill="midnightblue" stroke="midnightblue" points="649.643,-132.5 659.643,-129 649.643,-125.5 649.643,-132.5"/>
</g>
<!-- Node18 -->
<g id="node18" class="node"><title>Node18</title>
<g id="a_node18"><a xlink:href="namespaceforcebalance_1_1nifty.html#a8e3ef0108b9d37b82ba0dced7c6037ae" target="_top" xlink:title="Matches ANY number; it can be a decimal, scientific notation, what have you CAUTION &#45; this will also ...">
<polygon fill="white" stroke="black" points="994.024,-102 994.024,-122 1109.98,-122 1109.98,-102 994.024,-102"/>
<text text-anchor="middle" x="1052" y="-109" font-family="Ubuntu-R" font-size="10.00">forcebalance.nifty.isfloat</text>
</a>
</g>
</g>
<!-- Node15&#45;&gt;Node18 -->
<g id="edge28" class="edge"><title>Node15&#45;&gt;Node18</title>
<path fill="none" stroke="midnightblue" d="M596.563,-114.752C609.533,-112.358 623.158,-110.247 636,-109 758.07,-97.1452 901.286,-102.382 983.557,-107.222"/>
<polygon fill="midnightblue" stroke="midnightblue" points="983.58,-110.73 993.773,-107.84 984.002,-103.743 983.58,-110.73"/>
</g>
<!-- Node17 -->
<g id="node17" class="node"><title>Node17</title>
<g id="a_node17"><a xlink:href="namespaceforcebalance_1_1nifty.html#a09263927eaec9deff283fbf1a820242f" target="_top" xlink:title="Matches things with a decimal only; see isint and isfloat.">
<polygon fill="white" stroke="black" points="828.36,-141 828.36,-161 957.64,-161 957.64,-141 828.36,-141"/>
<text text-anchor="middle" x="893" y="-148" font-family="Ubuntu-R" font-size="10.00">forcebalance.nifty.isdecimal</text>
</a>
</g>
</g>
<!-- Node16&#45;&gt;Node17 -->
<g id="edge21" class="edge"><title>Node16&#45;&gt;Node17</title>
<path fill="none" stroke="midnightblue" d="M768.106,-135.601C783.791,-137.55 801.251,-139.721 818,-141.802"/>
<polygon fill="midnightblue" stroke="midnightblue" points="817.958,-145.324 828.314,-143.084 818.822,-138.377 817.958,-145.324"/>
</g>
<!-- Node17&#45;&gt;Node6 -->
<g id="edge27" class="edge"><title>Node17&#45;&gt;Node6</title>
<path fill="none" stroke="midnightblue" d="M921.347,-161.103C947.046,-170.597 985.699,-184.876 1014.12,-195.374"/>
<polygon fill="midnightblue" stroke="midnightblue" points="1013.11,-198.734 1023.7,-198.916 1015.54,-192.167 1013.11,-198.734"/>
</g>
<!-- Node17&#45;&gt;Node18 -->
<g id="edge22" class="edge"><title>Node17&#45;&gt;Node18</title>
<path fill="none" stroke="midnightblue" d="M934.431,-140.957C954.667,-135.93 979.356,-129.797 1000.8,-124.471"/>
<polygon fill="midnightblue" stroke="midnightblue" points="1001.84,-127.817 1010.71,-122.009 1000.16,-121.024 1001.84,-127.817"/>
</g>
<!-- Node18&#45;&gt;Node16 -->
<g id="edge23" class="edge"><title>Node18&#45;&gt;Node16</title>
<path fill="none" stroke="midnightblue" d="M993.793,-114.894C933.963,-117.922 840.301,-122.66 778.291,-125.798"/>
<polygon fill="midnightblue" stroke="midnightblue" points="778.051,-122.305 768.24,-126.306 778.404,-129.296 778.051,-122.305"/>
</g>
<!-- Node19 -->
<g id="node19" class="node"><title>Node19</title>
<g id="a_node19"><a xlink:href="namespaceforcebalance_1_1nifty.html#a8d63c8ae9a67c66673a6cf81357f827d" target="_top" xlink:title="Returns a big number if we encounter NaN.">
<polygon fill="white" stroke="black" points="1145.97,-102 1145.97,-122 1278.03,-122 1278.03,-102 1145.97,-102"/>
<text text-anchor="middle" x="1212" y="-109" font-family="Ubuntu-R" font-size="10.00">forcebalance.nifty.floatornan</text>
</a>
</g>
</g>
<!-- Node18&#45;&gt;Node19 -->
<g id="edge24" class="edge"><title>Node18&#45;&gt;Node19</title>
<path fill="none" stroke="midnightblue" d="M1110.04,-112C1118.36,-112 1127.04,-112 1135.66,-112"/>
<polygon fill="midnightblue" stroke="midnightblue" points="1135.72,-115.5 1145.72,-112 1135.72,-108.5 1135.72,-115.5"/>
</g>
<!-- Node20 -->
<g id="node20" class="node"><title>Node20</title>
<g id="a_node20"><a xlink:href="namespaceforcebalance_1_1nifty.html#a6c9727360cdff8f3011a12cc54d0e86e" target="_top" xlink:title="Given any list, array, or matrix, return a 1&#45;row matrix.">
<polygon fill="white" stroke="black" points="1314.75,-102 1314.75,-122 1421.25,-122 1421.25,-102 1314.75,-102"/>
<text text-anchor="middle" x="1368" y="-109" font-family="Ubuntu-R" font-size="10.00">forcebalance.nifty.row</text>
</a>
</g>
</g>
<!-- Node19&#45;&gt;Node20 -->
<g id="edge25" class="edge"><title>Node19&#45;&gt;Node20</title>
<path fill="none" stroke="midnightblue" d="M1278.31,-112C1287.03,-112 1295.96,-112 1304.62,-112"/>
<polygon fill="midnightblue" stroke="midnightblue" points="1304.65,-115.5 1314.65,-112 1304.65,-108.5 1304.65,-115.5"/>
</g>
<!-- Node21 -->
<g id="node21" class="node"><title>Node21</title>
<g id="a_node21"><a xlink:href="namespaceforcebalance_1_1nifty.html#a7676236002c6a65ea7d2e69a09923889" target="_top" xlink:title="Given two vectors vec1 and vec2, project out the component of vec1 that is along the vec2&#45;direction...">
<polygon fill="white" stroke="black" points="1458.03,-102 1458.03,-122 1603.97,-122 1603.97,-102 1458.03,-102"/>
<text text-anchor="middle" x="1531" y="-109" font-family="Ubuntu-R" font-size="10.00">forcebalance.nifty.orthogonalize</text>
</a>
</g>
</g>
<!-- Node20&#45;&gt;Node21 -->
<g id="edge26" class="edge"><title>Node20&#45;&gt;Node21</title>
<path fill="none" stroke="midnightblue" d="M1421.27,-112C1429.74,-112 1438.69,-112 1447.67,-112"/>
<polygon fill="midnightblue" stroke="midnightblue" points="1447.8,-115.5 1457.8,-112 1447.8,-108.5 1447.8,-115.5"/>
</g>
</g>
</svg>
