<?xml version="1.0" encoding="UTF-8" standalone="no"?>
<!DOCTYPE svg PUBLIC "-//W3C//DTD SVG 1.1//EN"
 "http://www.w3.org/Graphics/SVG/1.1/DTD/svg11.dtd">
<!-- Generated by graphviz version 2.28.0 (20111219.2309)
 -->
<!-- Title: forcebalance.Mol2.mol2_bond.parse Pages: 1 -->
<svg width="316pt" height="38pt"
 viewBox="0.00 0.00 316.00 38.00" xmlns="http://www.w3.org/2000/svg" xmlns:xlink="http://www.w3.org/1999/xlink">
<g id="graph1" class="graph" transform="scale(1 1) rotate(0) translate(4 34)">
<title>forcebalance.Mol2.mol2_bond.parse</title>
<polygon fill="white" stroke="white" points="-4,5 -4,-34 313,-34 313,5 -4,5"/>
<!-- Node1 -->
<g id="node1" class="node"><title>Node1</title>
<polygon fill="#bfbfbf" stroke="black" points="0.5,-0 0.5,-30 131.5,-30 131.5,-0 0.5,-0"/>
<text text-anchor="start" x="8.5" y="-18" font-family="Ubuntu-R" font-size="10.00">forcebalance.Mol2.mol2</text>
<text text-anchor="middle" x="66" y="-7" font-family="Ubuntu-R" font-size="10.00">_bond.parse</text>
</g>
<!-- Node2 -->
<g id="node3" class="node"><title>Node2</title>
<a xlink:href="classforcebalance_1_1Mol2_1_1mol2__bond.html#a6116c2ff70b27afcd3acd507861496ae" target="_top" xlink:title="the origin atom identifier (integer) ">
<polygon fill="white" stroke="black" points="168,-0 168,-30 308,-30 308,-0 168,-0"/>
<text text-anchor="start" x="176" y="-18" font-family="Ubuntu-R" font-size="10.00">forcebalance.Mol2.mol2</text>
<text text-anchor="middle" x="238" y="-7" font-family="Ubuntu-R" font-size="10.00">_bond.set_origin_atom_id</text>
</a>
</g>
<!-- Node1&#45;&gt;Node2 -->
<g id="edge2" class="edge"><title>Node1&#45;&gt;Node2</title>
<path fill="none" stroke="midnightblue" d="M131.755,-15C140.252,-15 149.037,-15 157.74,-15"/>
<polygon fill="midnightblue" stroke="midnightblue" points="157.899,-18.5001 167.899,-15 157.899,-11.5001 157.899,-18.5001"/>
</g>
</g>
</svg>
