<?xml version="1.0" encoding="UTF-8" standalone="no"?>
<!DOCTYPE svg PUBLIC "-//W3C//DTD SVG 1.1//EN"
 "http://www.w3.org/Graphics/SVG/1.1/DTD/svg11.dtd">
<!-- Generated by graphviz version 2.40.1 (20161225.0304)
 -->
<!-- Title: src.ffyapf.FF.find_spacings Pages: 1 -->
<svg width="386pt" height="91pt"
 viewBox="0.00 0.00 386.00 91.00" xmlns="http://www.w3.org/2000/svg" xmlns:xlink="http://www.w3.org/1999/xlink">
<g id="graph0" class="graph" transform="scale(1 1) rotate(0) translate(4 87)">
<title>src.ffyapf.FF.find_spacings</title>
<polygon fill="#ffffff" stroke="transparent" points="-4,4 -4,-87 382,-87 382,4 -4,4"/>
<!-- Node29 -->
<g id="node1" class="node">
<title>Node29</title>
<polygon fill="#bfbfbf" stroke="#000000" points="0,-36 0,-66 95,-66 95,-36 0,-36"/>
<text text-anchor="start" x="8" y="-54" font-family="Ubuntu-R" font-size="10.00" fill="#000000">src.ffyapf.FF.find</text>
<text text-anchor="middle" x="47.5" y="-43" font-family="Ubuntu-R" font-size="10.00" fill="#000000">_spacings</text>
</g>
<!-- Node30 -->
<g id="node2" class="node">
<title>Node30</title>
<g id="a_node2"><a xlink:href="namespacesrc_1_1nifty.html#a6ae2951ba2a22420a11abda6be7e5454" target="_top" xlink:title="src.nifty.warn_press_key">
<polygon fill="#ffffff" stroke="#000000" points="131,-63.5 131,-82.5 268,-82.5 268,-63.5 131,-63.5"/>
<text text-anchor="middle" x="199.5" y="-70.5" font-family="Ubuntu-R" font-size="10.00" fill="#000000">src.nifty.warn_press_key</text>
</a>
</g>
</g>
<!-- Node29&#45;&gt;Node30 -->
<g id="edge1" class="edge">
<title>Node29&#45;&gt;Node30</title>
<path fill="none" stroke="#191970" d="M95.1767,-57.9006C104.2232,-59.2099 113.8944,-60.6097 123.5643,-62.0093"/>
<polygon fill="#191970" stroke="#191970" points="123.2163,-65.4953 133.6145,-63.4639 124.2191,-58.5675 123.2163,-65.4953"/>
</g>
<!-- Node31 -->
<g id="node3" class="node">
<title>Node31</title>
<g id="a_node3"><a xlink:href="classsrc_1_1ffyapf_1_1FF.html#a349f2f0f401834f86f9361d8ec32ad0a" target="_top" xlink:title="Converts mathematical to physical parameters. ">
<polygon fill="#ffffff" stroke="#000000" points="146,-14 146,-44 253,-44 253,-14 146,-14"/>
<text text-anchor="start" x="154" y="-32" font-family="Ubuntu-R" font-size="10.00" fill="#000000">src.ffyapf.FF.create</text>
<text text-anchor="middle" x="199.5" y="-21" font-family="Ubuntu-R" font-size="10.00" fill="#000000">_pvals</text>
</a>
</g>
</g>
<!-- Node29&#45;&gt;Node31 -->
<g id="edge2" class="edge">
<title>Node29&#45;&gt;Node31</title>
<path fill="none" stroke="#191970" d="M95.1767,-44.0994C108.0118,-42.2417 122.1046,-40.202 135.6667,-38.239"/>
<polygon fill="#191970" stroke="#191970" points="136.5091,-41.6537 145.9046,-36.7572 135.5064,-34.7258 136.5091,-41.6537"/>
</g>
<!-- Node32 -->
<g id="node4" class="node">
<title>Node32</title>
<g id="a_node4"><a xlink:href="namespacesrc_1_1nifty.html#ac5b7efc0b11b4fcbb7d0c37c97c4399d" target="_top" xlink:title="Given any list, array, or matrix, return a single&#45;index array. ">
<polygon fill="#ffffff" stroke="#000000" points="304,-38.5 304,-57.5 378,-57.5 378,-38.5 304,-38.5"/>
<text text-anchor="middle" x="341" y="-45.5" font-family="Ubuntu-R" font-size="10.00" fill="#000000">src.nifty.flat</text>
</a>
</g>
</g>
<!-- Node31&#45;&gt;Node32 -->
<g id="edge3" class="edge">
<title>Node31&#45;&gt;Node32</title>
<path fill="none" stroke="#191970" d="M253.3987,-36.2373C266.7101,-38.0247 280.8665,-39.9255 293.8303,-41.6663"/>
<polygon fill="#191970" stroke="#191970" points="293.5554,-45.1607 303.9323,-43.0227 294.4871,-38.2229 293.5554,-45.1607"/>
</g>
<!-- Node33 -->
<g id="node5" class="node">
<title>Node33</title>
<g id="a_node5"><a xlink:href="namespacesrc_1_1nifty.html#a9548285fa85a369d98169ec25abe974c" target="_top" xlink:title="Given any list, array, or matrix, return a 1&#45;column 2D array. ">
<polygon fill="#ffffff" stroke="#000000" points="305,-.5 305,-19.5 377,-19.5 377,-.5 305,-.5"/>
<text text-anchor="middle" x="341" y="-7.5" font-family="Ubuntu-R" font-size="10.00" fill="#000000">src.nifty.col</text>
</a>
</g>
</g>
<!-- Node31&#45;&gt;Node33 -->
<g id="edge4" class="edge">
<title>Node31&#45;&gt;Node33</title>
<path fill="none" stroke="#191970" d="M253.3987,-21.7627C266.9566,-19.9422 281.3911,-18.004 294.5492,-16.2372"/>
<polygon fill="#191970" stroke="#191970" points="295.3418,-19.6623 304.787,-14.8625 294.4101,-12.7246 295.3418,-19.6623"/>
</g>
</g>
</svg>
