<?xml version="1.0" encoding="UTF-8" standalone="no"?>
<!DOCTYPE svg PUBLIC "-//W3C//DTD SVG 1.1//EN"
 "http://www.w3.org/Graphics/SVG/1.1/DTD/svg11.dtd">
<!-- Generated by graphviz version 2.26.3 (20100126.1600)
 -->
<!-- Title: forcebalance.interaction.Interaction.read_reference_data Pages: 1 -->
<svg width="352pt" height="56pt"
 viewBox="0.00 0.00 352.00 56.00" xmlns="http://www.w3.org/2000/svg" xmlns:xlink="http://www.w3.org/1999/xlink">
<g id="graph1" class="graph" transform="scale(1 1) rotate(0) translate(4 52)">
<title>forcebalance.interaction.Interaction.read_reference_data</title>
<polygon fill="white" stroke="white" points="-4,5 -4,-52 349,-52 349,5 -4,5"/>
<!-- Node1 -->
<g id="node1" class="node"><title>Node1</title>
<polygon fill="#bfbfbf" stroke="black" points="0,-7 0,-41 170,-41 170,-7 0,-7"/>
<text text-anchor="start" x="8" y="-28" font-family="Ubuntu-R" font-size="10.00">forcebalance.interaction.</text>
<text text-anchor="middle" x="85" y="-15" font-family="Ubuntu-R" font-size="10.00">Interaction.read_reference_data</text>
</g>
<!-- Node2 -->
<g id="node3" class="node"><title>Node2</title>
<a xlink:href="classforcebalance_1_1interaction_1_1Interaction.html#a7b5dea70b67d3b2c0449a7cea8b12bf4" target="_top" xlink:title="Prepare the temporary directory, by default does nothing.">
<polygon fill="white" stroke="black" points="206,-0.5 206,-47.5 344,-47.5 344,-0.5 206,-0.5"/>
<text text-anchor="start" x="214" y="-34.5" font-family="Ubuntu-R" font-size="10.00">forcebalance.interaction.</text>
<text text-anchor="start" x="214" y="-21.5" font-family="Ubuntu-R" font-size="10.00">Interaction.prepare_temp</text>
<text text-anchor="middle" x="275" y="-8.5" font-family="Ubuntu-R" font-size="10.00">_directory</text>
</a>
</g>
<!-- Node1&#45;&gt;Node2 -->
<g id="edge2" class="edge"><title>Node1&#45;&gt;Node2</title>
<path fill="none" stroke="midnightblue" d="M170.274,-24C178.76,-24 187.351,-24 195.772,-24"/>
<polygon fill="midnightblue" stroke="midnightblue" points="195.941,-27.5001 205.941,-24 195.941,-20.5001 195.941,-27.5001"/>
</g>
</g>
</svg>
