<?xml version="1.0" encoding="UTF-8" standalone="no"?>
<!DOCTYPE svg PUBLIC "-//W3C//DTD SVG 1.1//EN"
 "http://www.w3.org/Graphics/SVG/1.1/DTD/svg11.dtd">
<!-- Generated by graphviz version 2.26.3 (20100126.1600)
 -->
<!-- Title: forcebalance.lipid.Lipid.prepare_temp_directory Pages: 1 -->
<svg width="522pt" height="42pt"
 viewBox="0.00 0.00 522.00 42.00" xmlns="http://www.w3.org/2000/svg" xmlns:xlink="http://www.w3.org/1999/xlink">
<g id="graph1" class="graph" transform="scale(1 1) rotate(0) translate(4 38)">
<title>forcebalance.lipid.Lipid.prepare_temp_directory</title>
<polygon fill="white" stroke="white" points="-4,5 -4,-38 519,-38 519,5 -4,5"/>
<!-- Node1 -->
<g id="node1" class="node"><title>Node1</title>
<polygon fill="#bfbfbf" stroke="black" points="0.5,-0 0.5,-34 165.5,-34 165.5,-0 0.5,-0"/>
<text text-anchor="start" x="8.5" y="-21" font-family="Ubuntu-R" font-size="10.00">forcebalance.lipid.Lipid.prepare</text>
<text text-anchor="middle" x="83" y="-8" font-family="Ubuntu-R" font-size="10.00">_temp_directory</text>
</g>
<!-- Node2 -->
<g id="node3" class="node"><title>Node2</title>
<a xlink:href="namespaceforcebalance_1_1nifty.html#ab182a9da2a2f42cf45942fbee6acf9b1" target="_top" xlink:title="forcebalance.nifty.LinkFile">
<polygon fill="white" stroke="black" points="202.5,-6.5 202.5,-27.5 339.5,-27.5 339.5,-6.5 202.5,-6.5"/>
<text text-anchor="middle" x="271" y="-14.5" font-family="Ubuntu-R" font-size="10.00">forcebalance.nifty.LinkFile</text>
</a>
</g>
<!-- Node1&#45;&gt;Node2 -->
<g id="edge2" class="edge"><title>Node1&#45;&gt;Node2</title>
<path fill="none" stroke="midnightblue" d="M165.733,-17C174.513,-17 183.426,-17 192.16,-17"/>
<polygon fill="midnightblue" stroke="midnightblue" points="192.311,-20.5001 202.311,-17 192.311,-13.5001 192.311,-20.5001"/>
</g>
<!-- Node3 -->
<g id="node5" class="node"><title>Node3</title>
<a xlink:href="namespaceforcebalance_1_1nifty.html#ae87c7def5f8edf2ec30737bdb1d2636f" target="_top" xlink:title="forcebalance.nifty.Missing\lFileInspection">
<polygon fill="white" stroke="black" points="376,-0 376,-34 514,-34 514,-0 376,-0"/>
<text text-anchor="start" x="384" y="-21" font-family="Ubuntu-R" font-size="10.00">forcebalance.nifty.Missing</text>
<text text-anchor="middle" x="445" y="-8" font-family="Ubuntu-R" font-size="10.00">FileInspection</text>
</a>
</g>
<!-- Node2&#45;&gt;Node3 -->
<g id="edge4" class="edge"><title>Node2&#45;&gt;Node3</title>
<path fill="none" stroke="midnightblue" d="M339.769,-17C348.304,-17 357.083,-17 365.759,-17"/>
<polygon fill="midnightblue" stroke="midnightblue" points="365.875,-20.5001 375.875,-17 365.875,-13.5001 365.875,-20.5001"/>
</g>
</g>
</svg>
