<?xml version="1.0" encoding="UTF-8" standalone="no"?>
<!DOCTYPE svg PUBLIC "-//W3C//DTD SVG 1.1//EN"
 "http://www.w3.org/Graphics/SVG/1.1/DTD/svg11.dtd">
<!-- Generated by graphviz version 2.28.0 (20111219.2309)
 -->
<!-- Title: G Pages: 1 -->
<svg width="2306pt" height="170pt"
 viewBox="0.00 0.00 2306.00 170.00" xmlns="http://www.w3.org/2000/svg" xmlns:xlink="http://www.w3.org/1999/xlink">
<g id="graph1" class="graph" transform="scale(1 1) rotate(0) translate(4 166)">
<title>G</title>
<polygon fill="white" stroke="white" points="-4,5 -4,-166 2303,-166 2303,5 -4,5"/>
<!-- Node1 -->
<g id="node1" class="node"><title>Node1</title>
<polygon fill="#bfbfbf" stroke="black" points="0,-95.5 0,-114.5 236,-114.5 236,-95.5 0,-95.5"/>
<text text-anchor="middle" x="118" y="-102.5" font-family="Ubuntu-R" font-size="10.00">forcebalance.Mol2.mol2_atom.set_atom_type</text>
</g>
<!-- Node2 -->
<g id="node3" class="node"><title>Node2</title>
<a xlink:href="classforcebalance_1_1Mol2_1_1mol2__atom.html#af149e1d049adee0318eef510a8d32f9c" target="_top" xlink:title="substructure name">
<polygon fill="white" stroke="black" points="272,-95.5 272,-114.5 516,-114.5 516,-95.5 272,-95.5"/>
<text text-anchor="middle" x="394" y="-102.5" font-family="Ubuntu-R" font-size="10.00">forcebalance.Mol2.mol2_atom.set_subst_name</text>
</a>
</g>
<!-- Node1&#45;&gt;Node2 -->
<g id="edge2" class="edge"><title>Node1&#45;&gt;Node2</title>
<path fill="none" stroke="midnightblue" d="M236.393,-105C244.757,-105 253.221,-105 261.657,-105"/>
<polygon fill="midnightblue" stroke="midnightblue" points="261.923,-108.5 271.923,-105 261.923,-101.5 261.923,-108.5"/>
</g>
<!-- Node3 -->
<g id="node5" class="node"><title>Node3</title>
<a xlink:href="classforcebalance_1_1Mol2_1_1mol2__atom.html#a2b8855f5349976b26917fee353618354" target="_top" xlink:title="Never to use (in theory)">
<polygon fill="white" stroke="black" points="552,-76.5 552,-95.5 784,-95.5 784,-76.5 552,-76.5"/>
<text text-anchor="middle" x="668" y="-83.5" font-family="Ubuntu-R" font-size="10.00">forcebalance.Mol2.mol2_atom.set_status_bit</text>
</a>
</g>
<!-- Node2&#45;&gt;Node3 -->
<g id="edge4" class="edge"><title>Node2&#45;&gt;Node3</title>
<path fill="none" stroke="midnightblue" d="M516.283,-96.528C524.643,-95.9441 533.077,-95.3549 541.459,-94.7694"/>
<polygon fill="midnightblue" stroke="midnightblue" points="541.915,-98.2462 551.647,-94.0578 541.427,-91.2632 541.915,-98.2462"/>
</g>
<!-- Node4 -->
<g id="node7" class="node"><title>Node4</title>
<a xlink:href="classforcebalance_1_1Mol2_1_1mol2__atom.html#a1d745e4db9ba351cb8e4e53bf544132c" target="_top" xlink:title="if data is passed, it will be installed">
<polygon fill="white" stroke="black" points="820,-76.5 820,-95.5 1020,-95.5 1020,-76.5 820,-76.5"/>
<text text-anchor="middle" x="920" y="-83.5" font-family="Ubuntu-R" font-size="10.00">forcebalance.Mol2.mol2_atom.__init__</text>
</a>
</g>
<!-- Node3&#45;&gt;Node4 -->
<g id="edge6" class="edge"><title>Node3&#45;&gt;Node4</title>
<path fill="none" stroke="midnightblue" d="M784.121,-86C792.594,-86 801.128,-86 809.566,-86"/>
<polygon fill="midnightblue" stroke="midnightblue" points="809.8,-89.5001 819.8,-86 809.8,-82.5001 809.8,-89.5001"/>
</g>
<!-- Node5 -->
<g id="node9" class="node"><title>Node5</title>
<a xlink:href="classforcebalance_1_1Mol2_1_1mol2__atom.html#a29aaa00b8fa91f4d18cef387622d339d" target="_top" xlink:title="split the text line into a series of properties">
<polygon fill="white" stroke="black" points="824.5,-114.5 824.5,-133.5 1015.5,-133.5 1015.5,-114.5 824.5,-114.5"/>
<text text-anchor="middle" x="920" y="-121.5" font-family="Ubuntu-R" font-size="10.00">forcebalance.Mol2.mol2_atom.parse</text>
</a>
</g>
<!-- Node3&#45;&gt;Node5 -->
<g id="edge8" class="edge"><title>Node3&#45;&gt;Node5</title>
<path fill="none" stroke="midnightblue" d="M775.748,-95.54C811.522,-100.724 849.335,-106.969 877.124,-112.442"/>
<polygon fill="midnightblue" stroke="midnightblue" points="876.762,-115.939 887.258,-114.497 878.154,-109.079 876.762,-115.939"/>
</g>
<!-- Node9 -->
<g id="node22" class="node"><title>Node9</title>
<a xlink:href="classforcebalance_1_1Mol2_1_1mol2__atom.html#a2e0ecf1c6da8fde8ab146d4341ac1341" target="_top" xlink:title="assemble the properties as a text line, and return it">
<polygon fill="white" stroke="black" points="1056.5,-38.5 1056.5,-57.5 1261.5,-57.5 1261.5,-38.5 1056.5,-38.5"/>
<text text-anchor="middle" x="1159" y="-45.5" font-family="Ubuntu-R" font-size="10.00">forcebalance.Mol2.mol2_atom.__repr__</text>
</a>
</g>
<!-- Node3&#45;&gt;Node9 -->
<g id="edge36" class="edge"><title>Node3&#45;&gt;Node9</title>
<path fill="none" stroke="midnightblue" d="M736.543,-76.4907C762.582,-73.0901 792.634,-69.4879 820,-67 895.299,-60.1545 980.274,-55.391 1046.18,-52.3456"/>
<polygon fill="midnightblue" stroke="midnightblue" points="1046.35,-55.8418 1056.18,-51.8902 1046.03,-48.8491 1046.35,-55.8418"/>
</g>
<!-- Node5&#45;&gt;Node1 -->
<g id="edge16" class="edge"><title>Node5&#45;&gt;Node1</title>
<path fill="none" stroke="midnightblue" d="M824.29,-128.181C698.096,-132.795 467.94,-137.877 272,-124 246.304,-122.18 218.305,-119.043 193.366,-115.837"/>
<polygon fill="midnightblue" stroke="midnightblue" points="193.616,-112.34 183.246,-114.511 192.707,-119.281 193.616,-112.34"/>
</g>
<!-- Node5&#45;&gt;Node2 -->
<g id="edge20" class="edge"><title>Node5&#45;&gt;Node2</title>
<path fill="none" stroke="midnightblue" d="M824.14,-120.56C740.844,-117.54 618.855,-113.117 526.21,-109.758"/>
<polygon fill="midnightblue" stroke="midnightblue" points="526.324,-106.26 516.204,-109.395 526.07,-113.255 526.324,-106.26"/>
</g>
<!-- Node5&#45;&gt;Node3 -->
<g id="edge24" class="edge"><title>Node5&#45;&gt;Node3</title>
<path fill="none" stroke="midnightblue" d="M824.288,-116.174C785.167,-110.7 741.833,-103.654 710.906,-97.5642"/>
<polygon fill="midnightblue" stroke="midnightblue" points="711.413,-94.0958 700.917,-95.5391 710.022,-100.956 711.413,-94.0958"/>
</g>
<!-- Node6 -->
<g id="node11" class="node"><title>Node6</title>
<a xlink:href="classforcebalance_1_1Mol2_1_1mol2__atom.html#a3a6c9728119ace119108183920689a9d" target="_top" xlink:title="the coordinates of the atom">
<polygon fill="white" stroke="black" points="1578.5,-76.5 1578.5,-95.5 1783.5,-95.5 1783.5,-76.5 1578.5,-76.5"/>
<text text-anchor="middle" x="1681" y="-83.5" font-family="Ubuntu-R" font-size="10.00">forcebalance.Mol2.mol2_atom.set_crds</text>
</a>
</g>
<!-- Node5&#45;&gt;Node6 -->
<g id="edge10" class="edge"><title>Node5&#45;&gt;Node6</title>
<path fill="none" stroke="midnightblue" d="M1004.46,-114.49C1021.5,-112.79 1039.31,-111.185 1056,-110 1234.81,-97.3029 1442.96,-90.9954 1567.95,-88.1205"/>
<polygon fill="midnightblue" stroke="midnightblue" points="1568.37,-91.6119 1578.29,-87.8861 1568.22,-84.6137 1568.37,-91.6119"/>
</g>
<!-- Node7 -->
<g id="node13" class="node"><title>Node7</title>
<a xlink:href="classforcebalance_1_1Mol2_1_1mol2__atom.html#ae879ba27197a573b6e3e1e97f0b76aff" target="_top" xlink:title="substructure identifier">
<polygon fill="white" stroke="black" points="1820,-114.5 1820,-133.5 2044,-133.5 2044,-114.5 1820,-114.5"/>
<text text-anchor="middle" x="1932" y="-121.5" font-family="Ubuntu-R" font-size="10.00">forcebalance.Mol2.mol2_atom.set_subst_id</text>
</a>
</g>
<!-- Node5&#45;&gt;Node7 -->
<g id="edge18" class="edge"><title>Node5&#45;&gt;Node7</title>
<path fill="none" stroke="midnightblue" d="M1015.56,-124C1199.66,-124 1605.95,-124 1809.62,-124"/>
<polygon fill="midnightblue" stroke="midnightblue" points="1809.76,-127.5 1819.76,-124 1809.76,-120.5 1809.76,-127.5"/>
</g>
<!-- Node8 -->
<g id="node15" class="node"><title>Node8</title>
<a xlink:href="classforcebalance_1_1Mol2_1_1mol2__atom.html#abfe80eac2952ad867d87e8b6e64f3c09" target="_top" xlink:title="atomic charge">
<polygon fill="white" stroke="black" points="2080,-133.5 2080,-152.5 2298,-152.5 2298,-133.5 2080,-133.5"/>
<text text-anchor="middle" x="2189" y="-140.5" font-family="Ubuntu-R" font-size="10.00">forcebalance.Mol2.mol2_atom.set_charge</text>
</a>
</g>
<!-- Node5&#45;&gt;Node8 -->
<g id="edge22" class="edge"><title>Node5&#45;&gt;Node8</title>
<path fill="none" stroke="midnightblue" d="M998.068,-133.54C1095.82,-144.796 1269.64,-162 1419,-162 1419,-162 1419,-162 1682,-162 1814.93,-162 1967.37,-155.371 2069.89,-149.944"/>
<polygon fill="midnightblue" stroke="midnightblue" points="2070.16,-153.434 2079.96,-149.406 2069.79,-146.444 2070.16,-153.434"/>
</g>
<!-- Node5&#45;&gt;Node9 -->
<g id="edge26" class="edge"><title>Node5&#45;&gt;Node9</title>
<path fill="none" stroke="midnightblue" d="M995.218,-114.451C1003.81,-111.987 1012.26,-108.891 1020,-105 1039.39,-95.2518 1036.81,-82.1483 1056,-72 1065.08,-67.198 1075.11,-63.3467 1085.24,-60.2604"/>
<polygon fill="midnightblue" stroke="midnightblue" points="1086.27,-63.6061 1094.95,-57.5297 1084.38,-56.8674 1086.27,-63.6061"/>
</g>
<!-- Node6&#45;&gt;Node7 -->
<g id="edge12" class="edge"><title>Node6&#45;&gt;Node7</title>
<path fill="none" stroke="midnightblue" d="M1744.51,-95.54C1779.14,-100.825 1822.37,-107.421 1858.48,-112.932"/>
<polygon fill="midnightblue" stroke="midnightblue" points="1858.05,-116.407 1868.46,-114.456 1859.1,-109.487 1858.05,-116.407"/>
</g>
<!-- Node7&#45;&gt;Node8 -->
<g id="edge14" class="edge"><title>Node7&#45;&gt;Node8</title>
<path fill="none" stroke="midnightblue" d="M2044.1,-132.278C2052.59,-132.911 2061.18,-133.551 2069.71,-134.187"/>
<polygon fill="midnightblue" stroke="midnightblue" points="2069.46,-137.677 2079.7,-134.93 2069.98,-130.697 2069.46,-137.677"/>
</g>
<!-- Node10 -->
<g id="node24" class="node"><title>Node10</title>
<a xlink:href="classforcebalance_1_1Mol2_1_1mol2__atom.html#a1af054109bd2d27c29e89b5da0f70920" target="_top" xlink:title="atom identifier (integer, starting from 1)">
<polygon fill="white" stroke="black" points="1308,-38.5 1308,-57.5 1532,-57.5 1532,-38.5 1308,-38.5"/>
<text text-anchor="middle" x="1420" y="-45.5" font-family="Ubuntu-R" font-size="10.00">forcebalance.Mol2.mol2_atom.set_atom_id</text>
</a>
</g>
<!-- Node9&#45;&gt;Node10 -->
<g id="edge28" class="edge"><title>Node9&#45;&gt;Node10</title>
<path fill="none" stroke="midnightblue" d="M1261.62,-48C1273.47,-48 1285.64,-48 1297.72,-48"/>
<polygon fill="midnightblue" stroke="midnightblue" points="1297.83,-51.5001 1307.83,-48 1297.83,-44.5001 1297.83,-51.5001"/>
</g>
<!-- Node11 -->
<g id="node27" class="node"><title>Node11</title>
<a xlink:href="classforcebalance_1_1Mol2_1_1mol2__atom.html#a4d57220ec5b591ad018112d600d4cc8b" target="_top" xlink:title="The name of the atom (string)">
<polygon fill="white" stroke="black" points="1298.5,-0.5 1298.5,-19.5 1541.5,-19.5 1541.5,-0.5 1298.5,-0.5"/>
<text text-anchor="middle" x="1420" y="-7.5" font-family="Ubuntu-R" font-size="10.00">forcebalance.Mol2.mol2_atom.set_atom_name</text>
</a>
</g>
<!-- Node9&#45;&gt;Node11 -->
<g id="edge32" class="edge"><title>Node9&#45;&gt;Node11</title>
<path fill="none" stroke="midnightblue" d="M1225.02,-38.46C1261.2,-33.1523 1306.39,-26.5222 1344.05,-20.9969"/>
<polygon fill="midnightblue" stroke="midnightblue" points="1344.56,-24.4585 1353.95,-19.5439 1343.55,-17.5327 1344.56,-24.4585"/>
</g>
<!-- Node10&#45;&gt;Node6 -->
<g id="edge30" class="edge"><title>Node10&#45;&gt;Node6</title>
<path fill="none" stroke="midnightblue" d="M1486.02,-57.54C1522.2,-62.8477 1567.39,-69.4778 1605.05,-75.0031"/>
<polygon fill="midnightblue" stroke="midnightblue" points="1604.55,-78.4673 1614.95,-76.4561 1605.56,-71.5415 1604.55,-78.4673"/>
</g>
<!-- Node11&#45;&gt;Node1 -->
<g id="edge34" class="edge"><title>Node11&#45;&gt;Node1</title>
<path fill="none" stroke="midnightblue" d="M1298.5,-10C1197.64,-10 1049.93,-10 921,-10 667,-10 667,-10 667,-10 475.511,-10 251.841,-67.0109 160.765,-92.7033"/>
<polygon fill="midnightblue" stroke="midnightblue" points="159.75,-89.353 151.09,-95.4561 161.666,-96.0858 159.75,-89.353"/>
</g>
</g>
</svg>
