<?xml version="1.0" encoding="UTF-8" standalone="no"?>
<!DOCTYPE svg PUBLIC "-//W3C//DTD SVG 1.1//EN"
 "http://www.w3.org/Graphics/SVG/1.1/DTD/svg11.dtd">
<!-- Generated by graphviz version 2.28.0 (20111219.2309)
 -->
<!-- Title: G Pages: 1 -->
<svg width="606pt" height="66pt"
 viewBox="0.00 0.00 606.00 66.00" xmlns="http://www.w3.org/2000/svg" xmlns:xlink="http://www.w3.org/1999/xlink">
<g id="graph1" class="graph" transform="scale(1 1) rotate(0) translate(4 62)">
<title>G</title>
<polygon fill="white" stroke="white" points="-4,5 -4,-62 603,-62 603,5 -4,5"/>
<!-- Node1 -->
<g id="node1" class="node"><title>Node1</title>
<polygon fill="#bfbfbf" stroke="black" points="0,-38.5 0,-57.5 290,-57.5 290,-38.5 0,-38.5"/>
<text text-anchor="middle" x="145" y="-45.5" font-family="Ubuntu-R" font-size="10.00">forcebalance.output.ForceBalanceLogger.removeHandler</text>
</g>
<!-- Node2 -->
<g id="node3" class="node"><title>Node2</title>
<a xlink:href="classforcebalance_1_1output_1_1ForceBalanceLogger.html#a7c6325e6fc8f6c99ef8ea9a3a3acff77" target="_top" xlink:title="forcebalance.output.ForceBalanceLogger.addHandler">
<polygon fill="white" stroke="black" points="326.5,-38.5 326.5,-57.5 597.5,-57.5 597.5,-38.5 326.5,-38.5"/>
<text text-anchor="middle" x="462" y="-45.5" font-family="Ubuntu-R" font-size="10.00">forcebalance.output.ForceBalanceLogger.addHandler</text>
</a>
</g>
<!-- Node1&#45;&gt;Node2 -->
<g id="edge2" class="edge"><title>Node1&#45;&gt;Node2</title>
<path fill="none" stroke="midnightblue" d="M290.133,-41.2717C298.749,-41.2437 307.419,-41.2428 316.039,-41.2691"/>
<polygon fill="midnightblue" stroke="midnightblue" points="316.113,-44.7693 326.128,-41.3123 316.143,-37.7694 316.113,-44.7693"/>
</g>
<!-- Node3 -->
<g id="node6" class="node"><title>Node3</title>
<a xlink:href="classforcebalance_1_1output_1_1ForceBalanceLogger.html#aebc2ee02e48bab63b37dfbe1f8db5683" target="_top" xlink:title="forcebalance.output.ForceBalanceLogger.__init__">
<polygon fill="white" stroke="black" points="336.5,-0.5 336.5,-19.5 587.5,-19.5 587.5,-0.5 336.5,-0.5"/>
<text text-anchor="middle" x="462" y="-7.5" font-family="Ubuntu-R" font-size="10.00">forcebalance.output.ForceBalanceLogger.__init__</text>
</a>
</g>
<!-- Node1&#45;&gt;Node3 -->
<g id="edge6" class="edge"><title>Node1&#45;&gt;Node3</title>
<path fill="none" stroke="midnightblue" d="M225.081,-38.46C269.82,-33.063 325.892,-26.2987 372.145,-20.719"/>
<polygon fill="midnightblue" stroke="midnightblue" points="372.651,-24.1835 382.16,-19.5109 371.812,-17.2339 372.651,-24.1835"/>
</g>
<!-- Node2&#45;&gt;Node1 -->
<g id="edge4" class="edge"><title>Node2&#45;&gt;Node1</title>
<path fill="none" stroke="midnightblue" d="M326.128,-54.6877C317.564,-54.7351 308.909,-54.7555 300.266,-54.7487"/>
<polygon fill="midnightblue" stroke="midnightblue" points="300.14,-51.2486 290.133,-54.7283 300.126,-58.2486 300.14,-51.2486"/>
</g>
</g>
</svg>
