<?xml version="1.0" encoding="UTF-8" standalone="no"?>
<!DOCTYPE svg PUBLIC "-//W3C//DTD SVG 1.1//EN"
 "http://www.w3.org/Graphics/SVG/1.1/DTD/svg11.dtd">
<!-- Generated by graphviz version 2.28.0 (20111219.2309)
 -->
<!-- Title: G Pages: 1 -->
<svg width="206pt" height="196pt"
 viewBox="0.00 0.00 206.00 196.00" xmlns="http://www.w3.org/2000/svg" xmlns:xlink="http://www.w3.org/1999/xlink">
<g id="graph1" class="graph" transform="scale(1 1) rotate(0) translate(4 192)">
<title>G</title>
<polygon fill="white" stroke="white" points="-4,5 -4,-192 203,-192 203,5 -4,5"/>
<!-- Node1 -->
<g id="node1" class="node"><title>Node1</title>
<polygon fill="#bfbfbf" stroke="black" points="0,-0.5 0,-19.5 198,-19.5 198,-0.5 0,-0.5"/>
<text text-anchor="middle" x="99" y="-7.5" font-family="Ubuntu-R" font-size="10.00">forcebalance.amberio.AbInitio_AMBER</text>
</g>
<!-- Node2 -->
<g id="node2" class="node"><title>Node2</title>
<a xlink:href="classforcebalance_1_1abinitio_1_1AbInitio.html" target="_top" xlink:title="Subclass of Target for fitting force fields to ab initio data.">
<polygon fill="white" stroke="black" points="22,-56.5 22,-75.5 176,-75.5 176,-56.5 22,-56.5"/>
<text text-anchor="middle" x="99" y="-63.5" font-family="Ubuntu-R" font-size="10.00">forcebalance.abinitio.AbInitio</text>
</a>
</g>
<!-- Node2&#45;&gt;Node1 -->
<g id="edge2" class="edge"><title>Node2&#45;&gt;Node1</title>
<path fill="none" stroke="midnightblue" d="M99,-45.8045C99,-36.9102 99,-26.7798 99,-19.7511"/>
<polygon fill="midnightblue" stroke="midnightblue" points="95.5001,-46.083 99,-56.083 102.5,-46.083 95.5001,-46.083"/>
</g>
<!-- Node3 -->
<g id="node4" class="node"><title>Node3</title>
<a xlink:href="classforcebalance_1_1target_1_1Target.html" target="_top" xlink:title="Base class for all fitting targets.">
<polygon fill="white" stroke="black" points="27.5,-112.5 27.5,-131.5 170.5,-131.5 170.5,-112.5 27.5,-112.5"/>
<text text-anchor="middle" x="99" y="-119.5" font-family="Ubuntu-R" font-size="10.00">forcebalance.target.Target</text>
</a>
</g>
<!-- Node3&#45;&gt;Node2 -->
<g id="edge4" class="edge"><title>Node3&#45;&gt;Node2</title>
<path fill="none" stroke="midnightblue" d="M99,-101.805C99,-92.9102 99,-82.7798 99,-75.7511"/>
<polygon fill="midnightblue" stroke="midnightblue" points="95.5001,-102.083 99,-112.083 102.5,-102.083 95.5001,-102.083"/>
</g>
<!-- Node4 -->
<g id="node6" class="node"><title>Node4</title>
<a xlink:href="classforcebalance_1_1BaseClass.html" target="_top" xlink:title="Provides some nifty functions that are common to all ForceBalance classes.">
<polygon fill="white" stroke="black" points="33.5,-168.5 33.5,-187.5 164.5,-187.5 164.5,-168.5 33.5,-168.5"/>
<text text-anchor="middle" x="99" y="-175.5" font-family="Ubuntu-R" font-size="10.00">forcebalance.BaseClass</text>
</a>
</g>
<!-- Node4&#45;&gt;Node3 -->
<g id="edge6" class="edge"><title>Node4&#45;&gt;Node3</title>
<path fill="none" stroke="midnightblue" d="M99,-157.805C99,-148.91 99,-138.78 99,-131.751"/>
<polygon fill="midnightblue" stroke="midnightblue" points="95.5001,-158.083 99,-168.083 102.5,-158.083 95.5001,-158.083"/>
</g>
</g>
</svg>
