<?xml version="1.0" encoding="UTF-8" standalone="no"?>
<!DOCTYPE svg PUBLIC "-//W3C//DTD SVG 1.1//EN"
 "http://www.w3.org/Graphics/SVG/1.1/DTD/svg11.dtd">
<!-- Generated by graphviz version 2.28.0 (20111219.2309)
 -->
<!-- Title: G Pages: 1 -->
<svg width="608pt" height="104pt"
 viewBox="0.00 0.00 608.00 104.00" xmlns="http://www.w3.org/2000/svg" xmlns:xlink="http://www.w3.org/1999/xlink">
<g id="graph1" class="graph" transform="scale(1 1) rotate(0) translate(4 100)">
<title>G</title>
<polygon fill="white" stroke="white" points="-4,5 -4,-100 605,-100 605,5 -4,5"/>
<!-- Node1 -->
<g id="node1" class="node"><title>Node1</title>
<polygon fill="#bfbfbf" stroke="black" points="0.5,-38.5 0.5,-57.5 281.5,-57.5 281.5,-38.5 0.5,-38.5"/>
<text text-anchor="middle" x="141" y="-45.5" font-family="Ubuntu-R" font-size="10.00">forcebalance.abinitio.AbInitio.energy_force_transformer</text>
</g>
<!-- Node2 -->
<g id="node3" class="node"><title>Node2</title>
<a xlink:href="classforcebalance_1_1abinitio_1_1AbInitio.html#afbf86c26158a68cae7460b4106809fdd" target="_top" xlink:title="forcebalance.abinitio.AbInitio.compute_netforce_torque">
<polygon fill="white" stroke="black" points="318.5,-76.5 318.5,-95.5 599.5,-95.5 599.5,-76.5 318.5,-76.5"/>
<text text-anchor="middle" x="459" y="-83.5" font-family="Ubuntu-R" font-size="10.00">forcebalance.abinitio.AbInitio.compute_netforce_torque</text>
</a>
</g>
<!-- Node1&#45;&gt;Node2 -->
<g id="edge2" class="edge"><title>Node1&#45;&gt;Node2</title>
<path fill="none" stroke="midnightblue" d="M221.332,-57.54C266.213,-62.937 322.463,-69.7013 368.863,-75.281"/>
<polygon fill="midnightblue" stroke="midnightblue" points="368.563,-78.77 378.909,-76.4891 369.399,-71.8201 368.563,-78.77"/>
</g>
<!-- Node3 -->
<g id="node5" class="node"><title>Node3</title>
<a xlink:href="classforcebalance_1_1abinitio_1_1AbInitio.html#a313c848f46579817803c8a3ff100974e" target="_top" xlink:title="LPW 06&#45;30&#45;2013.">
<polygon fill="white" stroke="black" points="336.5,-38.5 336.5,-57.5 581.5,-57.5 581.5,-38.5 336.5,-38.5"/>
<text text-anchor="middle" x="459" y="-45.5" font-family="Ubuntu-R" font-size="10.00">forcebalance.abinitio.AbInitio.get_energy_force_</text>
</a>
</g>
<!-- Node1&#45;&gt;Node3 -->
<g id="edge4" class="edge"><title>Node1&#45;&gt;Node3</title>
<path fill="none" stroke="midnightblue" d="M281.522,-48C296.299,-48 311.294,-48 325.982,-48"/>
<polygon fill="midnightblue" stroke="midnightblue" points="326.095,-51.5001 336.095,-48 326.095,-44.5001 326.095,-51.5001"/>
</g>
<!-- Node4 -->
<g id="node7" class="node"><title>Node4</title>
<a xlink:href="namespaceforcebalance_1_1nifty.html#abb8f59044961a12588e0653c2baa8b01" target="_top" xlink:title="forcebalance.nifty.warn_press_key">
<polygon fill="white" stroke="black" points="369.5,-0.5 369.5,-19.5 548.5,-19.5 548.5,-0.5 369.5,-0.5"/>
<text text-anchor="middle" x="459" y="-7.5" font-family="Ubuntu-R" font-size="10.00">forcebalance.nifty.warn_press_key</text>
</a>
</g>
<!-- Node1&#45;&gt;Node4 -->
<g id="edge6" class="edge"><title>Node1&#45;&gt;Node4</title>
<path fill="none" stroke="midnightblue" d="M221.332,-38.46C266.213,-33.063 322.463,-26.2987 368.863,-20.719"/>
<polygon fill="midnightblue" stroke="midnightblue" points="369.399,-24.1799 378.909,-19.5109 368.563,-17.23 369.399,-24.1799"/>
</g>
</g>
</svg>
