<?xml version="1.0" encoding="UTF-8" standalone="no"?>
<!DOCTYPE svg PUBLIC "-//W3C//DTD SVG 1.1//EN"
 "http://www.w3.org/Graphics/SVG/1.1/DTD/svg11.dtd">
<!-- Generated by graphviz version 2.26.3 (20100126.1600)
 -->
<!-- Title: forcebalance.optimizer.Optimizer.NewtonRaphson Pages: 1 -->
<svg width="3282pt" height="376pt"
 viewBox="0.00 0.00 3282.00 376.00" xmlns="http://www.w3.org/2000/svg" xmlns:xlink="http://www.w3.org/1999/xlink">
<g id="graph1" class="graph" transform="scale(1 1) rotate(0) translate(4 372)">
<title>forcebalance.optimizer.Optimizer.NewtonRaphson</title>
<polygon fill="white" stroke="white" points="-4,5 -4,-372 3279,-372 3279,5 -4,5"/>
<!-- Node1 -->
<g id="node1" class="node"><title>Node1</title>
<polygon fill="#bfbfbf" stroke="black" points="0,-188 0,-222 176,-222 176,-188 0,-188"/>
<text text-anchor="start" x="8" y="-209" font-family="Ubuntu-R" font-size="10.00">forcebalance.optimizer.Optimizer.</text>
<text text-anchor="middle" x="88" y="-196" font-family="Ubuntu-R" font-size="10.00">NewtonRaphson</text>
</g>
<!-- Node2 -->
<g id="node3" class="node"><title>Node2</title>
<a xlink:href="classforcebalance_1_1optimizer_1_1Optimizer.html#a503e87533bd9c257cb9c4b505af9c1de" target="_top" xlink:title="Driver for SciPy optimizations.">
<polygon fill="white" stroke="black" points="212,-188 212,-222 388,-222 388,-188 212,-188"/>
<text text-anchor="start" x="220" y="-209" font-family="Ubuntu-R" font-size="10.00">forcebalance.optimizer.Optimizer.</text>
<text text-anchor="middle" x="300" y="-196" font-family="Ubuntu-R" font-size="10.00">ScipyOptimizer</text>
</a>
</g>
<!-- Node1&#45;&gt;Node2 -->
<g id="edge2" class="edge"><title>Node1&#45;&gt;Node2</title>
<path fill="none" stroke="midnightblue" d="M176.065,-205C184.569,-205 193.232,-205 201.825,-205"/>
<polygon fill="midnightblue" stroke="midnightblue" points="201.868,-208.5 211.868,-205 201.868,-201.5 201.868,-208.5"/>
</g>
<!-- Node3 -->
<g id="node5" class="node"><title>Node3</title>
<a xlink:href="namespaceforcebalance_1_1nifty.html#a11babd62dc7bca389162c6318f9672ca" target="_top" xlink:title="Cool&#45;looking printout for slick formatting of output.">
<polygon fill="white" stroke="black" points="1500,-233.5 1500,-254.5 1644,-254.5 1644,-233.5 1500,-233.5"/>
<text text-anchor="middle" x="1572" y="-241.5" font-family="Ubuntu-R" font-size="10.00">forcebalance.nifty.printcool</text>
</a>
</g>
<!-- Node2&#45;&gt;Node3 -->
<g id="edge4" class="edge"><title>Node2&#45;&gt;Node3</title>
<path fill="none" stroke="midnightblue" d="M365.214,-222.071C448.021,-242.214 595.585,-273 724,-273 724,-273 724,-273 1148,-273 1266.94,-273 1404.2,-261.502 1489.56,-252.986"/>
<polygon fill="midnightblue" stroke="midnightblue" points="1490.11,-256.448 1499.7,-251.963 1489.4,-249.483 1490.11,-256.448"/>
</g>
<!-- Node17 -->
<g id="node38" class="node"><title>Node17</title>
<a xlink:href="classforcebalance_1_1optimizer_1_1Optimizer.html#a50ffc779fbba5a99085cba45d868fc29" target="_top" xlink:title="Genetic algorithm, under development.">
<polygon fill="white" stroke="black" points="424,-166 424,-200 600,-200 600,-166 424,-166"/>
<text text-anchor="start" x="432" y="-187" font-family="Ubuntu-R" font-size="10.00">forcebalance.optimizer.Optimizer.</text>
<text text-anchor="middle" x="512" y="-174" font-family="Ubuntu-R" font-size="10.00">GeneticAlgorithm</text>
</a>
</g>
<!-- Node2&#45;&gt;Node17 -->
<g id="edge42" class="edge"><title>Node2&#45;&gt;Node17</title>
<path fill="none" stroke="midnightblue" d="M388.065,-189.198C396.569,-188.232 405.232,-187.31 413.825,-186.454"/>
<polygon fill="midnightblue" stroke="midnightblue" points="414.252,-189.93 423.868,-185.482 413.577,-182.962 414.252,-189.93"/>
</g>
<!-- Node4 -->
<g id="node7" class="node"><title>Node4</title>
<a xlink:href="namespaceforcebalance_1_1nifty.html#abb8f59044961a12588e0653c2baa8b01" target="_top" xlink:title="forcebalance.nifty.warn\l_press_key">
<polygon fill="white" stroke="black" points="2909.5,-334 2909.5,-368 3034.5,-368 3034.5,-334 2909.5,-334"/>
<text text-anchor="start" x="2917.5" y="-355" font-family="Ubuntu-R" font-size="10.00">forcebalance.nifty.warn</text>
<text text-anchor="middle" x="2972" y="-342" font-family="Ubuntu-R" font-size="10.00">_press_key</text>
</a>
</g>
<!-- Node3&#45;&gt;Node4 -->
<g id="edge6" class="edge"><title>Node3&#45;&gt;Node4</title>
<path fill="none" stroke="midnightblue" d="M1596.01,-254.537C1661.79,-282.418 1851.04,-356 2016,-356 2016,-356 2016,-356 2588,-356 2696.47,-356 2822.17,-353.981 2899.38,-352.508"/>
<polygon fill="midnightblue" stroke="midnightblue" points="2899.55,-356.006 2909.48,-352.314 2899.42,-349.007 2899.55,-356.006"/>
</g>
<!-- Node6 -->
<g id="node11" class="node"><title>Node6</title>
<a xlink:href="namespaceforcebalance_1_1nifty.html#a51180e960742cc7547749fdfb3513ec4" target="_top" xlink:title="See documentation for printcool; this is a nice way to print out keys/values in a dictionary...">
<polygon fill="white" stroke="black" points="1712,-227 1712,-261 1856,-261 1856,-227 1712,-227"/>
<text text-anchor="start" x="1720" y="-248" font-family="Ubuntu-R" font-size="10.00">forcebalance.nifty.printcool</text>
<text text-anchor="middle" x="1784" y="-235" font-family="Ubuntu-R" font-size="10.00">_dictionary</text>
</a>
</g>
<!-- Node3&#45;&gt;Node6 -->
<g id="edge10" class="edge"><title>Node3&#45;&gt;Node6</title>
<path fill="none" stroke="midnightblue" d="M1644.07,-244C1662.59,-244 1682.65,-244 1701.65,-244"/>
<polygon fill="midnightblue" stroke="midnightblue" points="1701.77,-247.5 1711.77,-244 1701.77,-240.5 1701.77,-247.5"/>
</g>
<!-- Node5 -->
<g id="node9" class="node"><title>Node5</title>
<a xlink:href="namespaceforcebalance_1_1nifty.html#a2fc81730e7efa7d138dd86f733507bfc" target="_top" xlink:title="Similar to the bultin function map().">
<polygon fill="white" stroke="black" points="3092.5,-340.5 3092.5,-361.5 3273.5,-361.5 3273.5,-340.5 3092.5,-340.5"/>
<text text-anchor="middle" x="3183" y="-348.5" font-family="Ubuntu-R" font-size="10.00">forcebalance.nifty.concurrent_map</text>
</a>
</g>
<!-- Node4&#45;&gt;Node5 -->
<g id="edge8" class="edge"><title>Node4&#45;&gt;Node5</title>
<path fill="none" stroke="midnightblue" d="M3034.74,-351C3049.72,-351 3066.1,-351 3082.32,-351"/>
<polygon fill="midnightblue" stroke="midnightblue" points="3082.39,-354.5 3092.39,-351 3082.39,-347.5 3082.39,-354.5"/>
</g>
<!-- Node7 -->
<g id="node13" class="node"><title>Node7</title>
<a xlink:href="namespaceforcebalance_1_1nifty.html#a3f1c7a1af9d35d5d1693074bc6f5497c" target="_top" xlink:title="ONLY matches integers! If you have a decimal point? None shall pass!">
<polygon fill="white" stroke="black" points="1955,-249.5 1955,-270.5 2077,-270.5 2077,-249.5 1955,-249.5"/>
<text text-anchor="middle" x="2016" y="-257.5" font-family="Ubuntu-R" font-size="10.00">forcebalance.nifty.isint</text>
</a>
</g>
<!-- Node6&#45;&gt;Node7 -->
<g id="edge12" class="edge"><title>Node6&#45;&gt;Node7</title>
<path fill="none" stroke="midnightblue" d="M1856.13,-248.975C1884.33,-250.919 1916.58,-253.143 1944.69,-255.082"/>
<polygon fill="midnightblue" stroke="midnightblue" points="1944.63,-258.586 1954.85,-255.783 1945.11,-251.603 1944.63,-258.586"/>
</g>
<!-- Node9 -->
<g id="node17" class="node"><title>Node9</title>
<a xlink:href="namespaceforcebalance_1_1nifty.html#a8e3ef0108b9d37b82ba0dced7c6037ae" target="_top" xlink:title="Matches ANY number; it can be a decimal, scientific notation, what have you CAUTION &#45; this will also ...">
<polygon fill="white" stroke="black" points="2344.5,-238.5 2344.5,-259.5 2475.5,-259.5 2475.5,-238.5 2344.5,-238.5"/>
<text text-anchor="middle" x="2410" y="-246.5" font-family="Ubuntu-R" font-size="10.00">forcebalance.nifty.isfloat</text>
</a>
</g>
<!-- Node6&#45;&gt;Node9 -->
<g id="edge40" class="edge"><title>Node6&#45;&gt;Node9</title>
<path fill="none" stroke="midnightblue" d="M1856.12,-241.281C1873.13,-240.748 1891.2,-240.271 1908,-240 2003.99,-238.452 2028.01,-238.49 2124,-240 2195.34,-241.122 2276.65,-243.818 2334.3,-245.969"/>
<polygon fill="midnightblue" stroke="midnightblue" points="2334.29,-249.471 2344.41,-246.35 2334.55,-242.476 2334.29,-249.471"/>
</g>
<!-- Node8 -->
<g id="node15" class="node"><title>Node8</title>
<a xlink:href="namespaceforcebalance_1_1nifty.html#a09263927eaec9deff283fbf1a820242f" target="_top" xlink:title="Matches things with a decimal only; see isint and isfloat.">
<polygon fill="white" stroke="black" points="2160.5,-287.5 2160.5,-308.5 2307.5,-308.5 2307.5,-287.5 2160.5,-287.5"/>
<text text-anchor="middle" x="2234" y="-295.5" font-family="Ubuntu-R" font-size="10.00">forcebalance.nifty.isdecimal</text>
</a>
</g>
<!-- Node7&#45;&gt;Node8 -->
<g id="edge14" class="edge"><title>Node7&#45;&gt;Node8</title>
<path fill="none" stroke="midnightblue" d="M2076.44,-270.535C2103.37,-275.23 2135.28,-280.791 2163.31,-285.678"/>
<polygon fill="midnightblue" stroke="midnightblue" points="2162.99,-289.176 2173.45,-287.445 2164.2,-282.28 2162.99,-289.176"/>
</g>
<!-- Node8&#45;&gt;Node9 -->
<g id="edge16" class="edge"><title>Node8&#45;&gt;Node9</title>
<path fill="none" stroke="midnightblue" d="M2271.76,-287.488C2298.23,-280.118 2333.83,-270.208 2362.27,-262.289"/>
<polygon fill="midnightblue" stroke="midnightblue" points="2363.31,-265.633 2372,-259.579 2361.43,-258.889 2363.31,-265.633"/>
</g>
<!-- Node13 -->
<g id="node26" class="node"><title>Node13</title>
<a xlink:href="namespaceforcebalance_1_1nifty.html#afb3f205bce4984856e766af7e9fdaca8" target="_top" xlink:title="Given any list, array, or matrix, return a 1&#45;column matrix.">
<polygon fill="white" stroke="black" points="2352,-287.5 2352,-308.5 2468,-308.5 2468,-287.5 2352,-287.5"/>
<text text-anchor="middle" x="2410" y="-295.5" font-family="Ubuntu-R" font-size="10.00">forcebalance.nifty.col</text>
</a>
</g>
<!-- Node8&#45;&gt;Node13 -->
<g id="edge26" class="edge"><title>Node8&#45;&gt;Node13</title>
<path fill="none" stroke="midnightblue" d="M2307.62,-298C2318.94,-298 2330.59,-298 2341.79,-298"/>
<polygon fill="midnightblue" stroke="midnightblue" points="2341.93,-301.5 2351.93,-298 2341.93,-294.5 2341.93,-301.5"/>
</g>
<!-- Node9&#45;&gt;Node7 -->
<g id="edge18" class="edge"><title>Node9&#45;&gt;Node7</title>
<path fill="none" stroke="midnightblue" d="M2344.45,-250.83C2273.4,-252.814 2160.37,-255.969 2087.18,-258.013"/>
<polygon fill="midnightblue" stroke="midnightblue" points="2087.03,-254.516 2077.13,-258.293 2087.22,-261.513 2087.03,-254.516"/>
</g>
<!-- Node10 -->
<g id="node20" class="node"><title>Node10</title>
<a xlink:href="namespaceforcebalance_1_1nifty.html#a8d63c8ae9a67c66673a6cf81357f827d" target="_top" xlink:title="Returns a big number if we encounter NaN.">
<polygon fill="white" stroke="black" points="2512.5,-228.5 2512.5,-249.5 2663.5,-249.5 2663.5,-228.5 2512.5,-228.5"/>
<text text-anchor="middle" x="2588" y="-236.5" font-family="Ubuntu-R" font-size="10.00">forcebalance.nifty.floatornan</text>
</a>
</g>
<!-- Node9&#45;&gt;Node10 -->
<g id="edge20" class="edge"><title>Node9&#45;&gt;Node10</title>
<path fill="none" stroke="midnightblue" d="M2475.52,-245.319C2484.24,-244.829 2493.28,-244.322 2502.27,-243.816"/>
<polygon fill="midnightblue" stroke="midnightblue" points="2502.6,-247.304 2512.38,-243.248 2502.2,-240.315 2502.6,-247.304"/>
</g>
<!-- Node11 -->
<g id="node22" class="node"><title>Node11</title>
<a xlink:href="namespaceforcebalance_1_1nifty.html#a6c9727360cdff8f3011a12cc54d0e86e" target="_top" xlink:title="Given any list, array, or matrix, return a 1&#45;row matrix.">
<polygon fill="white" stroke="black" points="2716.5,-228.5 2716.5,-249.5 2835.5,-249.5 2835.5,-228.5 2716.5,-228.5"/>
<text text-anchor="middle" x="2776" y="-236.5" font-family="Ubuntu-R" font-size="10.00">forcebalance.nifty.row</text>
</a>
</g>
<!-- Node10&#45;&gt;Node11 -->
<g id="edge22" class="edge"><title>Node10&#45;&gt;Node11</title>
<path fill="none" stroke="midnightblue" d="M2663.65,-239C2677.64,-239 2692.19,-239 2706,-239"/>
<polygon fill="midnightblue" stroke="midnightblue" points="2706.39,-242.5 2716.39,-239 2706.39,-235.5 2706.39,-242.5"/>
</g>
<!-- Node12 -->
<g id="node24" class="node"><title>Node12</title>
<a xlink:href="namespaceforcebalance_1_1nifty.html#a7676236002c6a65ea7d2e69a09923889" target="_top" xlink:title="Given two vectors vec1 and vec2, project out the component of vec1 that is along the vec2&#45;direction...">
<polygon fill="white" stroke="black" points="2888,-228.5 2888,-249.5 3056,-249.5 3056,-228.5 2888,-228.5"/>
<text text-anchor="middle" x="2972" y="-236.5" font-family="Ubuntu-R" font-size="10.00">forcebalance.nifty.orthogonalize</text>
</a>
</g>
<!-- Node11&#45;&gt;Node12 -->
<g id="edge24" class="edge"><title>Node11&#45;&gt;Node12</title>
<path fill="none" stroke="midnightblue" d="M2835.6,-239C2848.84,-239 2863.18,-239 2877.42,-239"/>
<polygon fill="midnightblue" stroke="midnightblue" points="2877.76,-242.5 2887.76,-239 2877.76,-235.5 2877.76,-242.5"/>
</g>
<!-- Node14 -->
<g id="node28" class="node"><title>Node14</title>
<a xlink:href="namespaceforcebalance_1_1nifty.html#a52114ceee9d55f94d9aecb3e176de294" target="_top" xlink:title="Given any list, array, or matrix, return a single&#45;index array.">
<polygon fill="white" stroke="black" points="2529.5,-268.5 2529.5,-289.5 2646.5,-289.5 2646.5,-268.5 2529.5,-268.5"/>
<text text-anchor="middle" x="2588" y="-276.5" font-family="Ubuntu-R" font-size="10.00">forcebalance.nifty.flat</text>
</a>
</g>
<!-- Node13&#45;&gt;Node14 -->
<g id="edge28" class="edge"><title>Node13&#45;&gt;Node14</title>
<path fill="none" stroke="midnightblue" d="M2468.28,-291.779C2484.49,-290.049 2502.24,-288.154 2519,-286.365"/>
<polygon fill="midnightblue" stroke="midnightblue" points="2519.71,-289.809 2529.28,-285.268 2518.97,-282.849 2519.71,-289.809"/>
</g>
<!-- Node15 -->
<g id="node30" class="node"><title>Node15</title>
<a xlink:href="namespaceforcebalance_1_1nifty.html#a4c82187e92dfeb8a159f4aa44b501c40" target="_top" xlink:title="Invert a matrix using singular value decomposition.">
<polygon fill="white" stroke="black" points="2700.5,-306.5 2700.5,-327.5 2851.5,-327.5 2851.5,-306.5 2700.5,-306.5"/>
<text text-anchor="middle" x="2776" y="-314.5" font-family="Ubuntu-R" font-size="10.00">forcebalance.nifty.invert_svd</text>
</a>
</g>
<!-- Node14&#45;&gt;Node15 -->
<g id="edge30" class="edge"><title>Node14&#45;&gt;Node15</title>
<path fill="none" stroke="midnightblue" d="M2640.37,-289.585C2663.18,-294.197 2690.1,-299.637 2713.92,-304.451"/>
<polygon fill="midnightblue" stroke="midnightblue" points="2713.42,-307.921 2723.91,-306.472 2714.8,-301.06 2713.42,-307.921"/>
</g>
<!-- Node15&#45;&gt;Node4 -->
<g id="edge38" class="edge"><title>Node15&#45;&gt;Node4</title>
<path fill="none" stroke="midnightblue" d="M2836.67,-327.525C2856.48,-330.961 2878.68,-334.812 2899.28,-338.385"/>
<polygon fill="midnightblue" stroke="midnightblue" points="2898.79,-341.853 2909.24,-340.114 2899.99,-334.956 2898.79,-341.853"/>
</g>
<!-- Node15&#45;&gt;Node13 -->
<g id="edge36" class="edge"><title>Node15&#45;&gt;Node13</title>
<path fill="none" stroke="midnightblue" d="M2700.35,-313.073C2635.13,-309.687 2541.75,-304.839 2478.65,-301.564"/>
<polygon fill="midnightblue" stroke="midnightblue" points="2478.57,-298.055 2468.4,-301.032 2478.2,-305.045 2478.57,-298.055"/>
</g>
<!-- Node16 -->
<g id="node32" class="node"><title>Node16</title>
<a xlink:href="namespaceforcebalance_1_1nifty.html#aa9fb9c7c65231eca50a7afc04f489b64" target="_top" xlink:title="forcebalance.nifty.get\l_least_squares">
<polygon fill="white" stroke="black" points="2913,-277 2913,-311 3031,-311 3031,-277 2913,-277"/>
<text text-anchor="start" x="2921" y="-298" font-family="Ubuntu-R" font-size="10.00">forcebalance.nifty.get</text>
<text text-anchor="middle" x="2972" y="-285" font-family="Ubuntu-R" font-size="10.00">_least_squares</text>
</a>
</g>
<!-- Node15&#45;&gt;Node16 -->
<g id="edge32" class="edge"><title>Node15&#45;&gt;Node16</title>
<path fill="none" stroke="midnightblue" d="M2851.78,-308.108C2868.55,-306.14 2886.24,-304.064 2902.73,-302.128"/>
<polygon fill="midnightblue" stroke="midnightblue" points="2903.31,-305.585 2912.83,-300.943 2902.49,-298.633 2903.31,-305.585"/>
</g>
<!-- Node16&#45;&gt;Node14 -->
<g id="edge34" class="edge"><title>Node16&#45;&gt;Node14</title>
<path fill="none" stroke="midnightblue" d="M2912.95,-291.693C2843.89,-288.996 2729.75,-284.537 2656.76,-281.686"/>
<polygon fill="midnightblue" stroke="midnightblue" points="2656.87,-278.188 2646.74,-281.295 2656.6,-285.182 2656.87,-278.188"/>
</g>
<!-- Node17&#45;&gt;Node2 -->
<g id="edge100" class="edge"><title>Node17&#45;&gt;Node2</title>
<path fill="none" stroke="midnightblue" d="M423.868,-198.81C415.363,-199.775 406.7,-200.697 398.107,-201.552"/>
<polygon fill="midnightblue" stroke="midnightblue" points="397.682,-198.077 388.065,-202.525 398.356,-205.045 397.682,-198.077"/>
</g>
<!-- Node18 -->
<g id="node40" class="node"><title>Node18</title>
<a xlink:href="classforcebalance_1_1optimizer_1_1Optimizer.html#a6b3af8115718f61a6a21c3297d717ead" target="_top" xlink:title="Use SciPy&#39;s built&#45;in simplex algorithm to optimize the parameters.">
<polygon fill="white" stroke="black" points="636,-211 636,-245 812,-245 812,-211 636,-211"/>
<text text-anchor="start" x="644" y="-232" font-family="Ubuntu-R" font-size="10.00">forcebalance.optimizer.Optimizer.</text>
<text text-anchor="middle" x="724" y="-219" font-family="Ubuntu-R" font-size="10.00">Simplex</text>
</a>
</g>
<!-- Node17&#45;&gt;Node18 -->
<g id="edge44" class="edge"><title>Node17&#45;&gt;Node18</title>
<path fill="none" stroke="midnightblue" d="M592.148,-200.013C605.735,-202.897 619.926,-205.909 633.75,-208.843"/>
<polygon fill="midnightblue" stroke="midnightblue" points="633.23,-212.311 643.739,-210.963 634.683,-205.463 633.23,-212.311"/>
</g>
<!-- Node38 -->
<g id="node89" class="node"><title>Node38</title>
<a xlink:href="classforcebalance_1_1optimizer_1_1Optimizer.html#a0745b2e3607ef308ba48bb1d34e5be79" target="_top" xlink:title="Use SciPy&#39;s built&#45;in Powell direction&#45;set algorithm to optimize the parameters.">
<polygon fill="white" stroke="black" points="636,-159 636,-193 812,-193 812,-159 636,-159"/>
<text text-anchor="start" x="644" y="-180" font-family="Ubuntu-R" font-size="10.00">forcebalance.optimizer.Optimizer.</text>
<text text-anchor="middle" x="724" y="-167" font-family="Ubuntu-R" font-size="10.00">Powell</text>
</a>
</g>
<!-- Node17&#45;&gt;Node38 -->
<g id="edge102" class="edge"><title>Node17&#45;&gt;Node38</title>
<path fill="none" stroke="midnightblue" d="M600.065,-180.092C608.569,-179.811 617.232,-179.525 625.825,-179.242"/>
<polygon fill="midnightblue" stroke="midnightblue" points="625.989,-182.738 635.868,-178.91 625.758,-175.742 625.989,-182.738"/>
</g>
<!-- Node39 -->
<g id="node91" class="node"><title>Node39</title>
<a xlink:href="classforcebalance_1_1optimizer_1_1Optimizer.html#a183911848e43ca0be1893b87290dc31e" target="_top" xlink:title="Use SciPy&#39;s built&#45;in simulated annealing algorithm to optimize the parameters.">
<polygon fill="white" stroke="black" points="636,-107 636,-141 812,-141 812,-107 636,-107"/>
<text text-anchor="start" x="644" y="-128" font-family="Ubuntu-R" font-size="10.00">forcebalance.optimizer.Optimizer.</text>
<text text-anchor="middle" x="724" y="-115" font-family="Ubuntu-R" font-size="10.00">Anneal</text>
</a>
</g>
<!-- Node17&#45;&gt;Node39 -->
<g id="edge104" class="edge"><title>Node17&#45;&gt;Node39</title>
<path fill="none" stroke="midnightblue" d="M573.319,-165.935C598.259,-158.994 627.239,-150.929 653.082,-143.737"/>
<polygon fill="midnightblue" stroke="midnightblue" points="654.123,-147.08 662.819,-141.027 652.246,-140.336 654.123,-147.08"/>
</g>
<!-- Node18&#45;&gt;Node2 -->
<g id="edge48" class="edge"><title>Node18&#45;&gt;Node2</title>
<path fill="none" stroke="midnightblue" d="M635.638,-223.207C566.427,-219.452 470.189,-214.232 398.503,-210.343"/>
<polygon fill="midnightblue" stroke="midnightblue" points="398.285,-206.826 388.111,-209.78 397.906,-213.816 398.285,-206.826"/>
</g>
<!-- Node19 -->
<g id="node42" class="node"><title>Node19</title>
<a xlink:href="classforcebalance_1_1optimizer_1_1Optimizer.html#ad1e151204a172a4e75737b2b699d1623" target="_top" xlink:title="Use SciPy&#39;s built&#45;in simulated annealing algorithm to optimize the parameters.">
<polygon fill="white" stroke="black" points="848,-211 848,-245 1024,-245 1024,-211 848,-211"/>
<text text-anchor="start" x="856" y="-232" font-family="Ubuntu-R" font-size="10.00">forcebalance.optimizer.Optimizer.</text>
<text text-anchor="middle" x="936" y="-219" font-family="Ubuntu-R" font-size="10.00">ConjugateGradient</text>
</a>
</g>
<!-- Node18&#45;&gt;Node19 -->
<g id="edge46" class="edge"><title>Node18&#45;&gt;Node19</title>
<path fill="none" stroke="midnightblue" d="M812.065,-228C820.569,-228 829.232,-228 837.825,-228"/>
<polygon fill="midnightblue" stroke="midnightblue" points="837.868,-231.5 847.868,-228 837.868,-224.5 837.868,-231.5"/>
</g>
<!-- Node20 -->
<g id="node45" class="node"><title>Node20</title>
<a xlink:href="classforcebalance_1_1optimizer_1_1Optimizer.html#a6c7508252398ff7e00469c4c8acb0a48" target="_top" xlink:title="Scan through parameter values.">
<polygon fill="white" stroke="black" points="848,-141 848,-175 1024,-175 1024,-141 848,-141"/>
<text text-anchor="start" x="856" y="-162" font-family="Ubuntu-R" font-size="10.00">forcebalance.optimizer.Optimizer.</text>
<text text-anchor="middle" x="936" y="-149" font-family="Ubuntu-R" font-size="10.00">Scan_Values</text>
</a>
</g>
<!-- Node18&#45;&gt;Node20 -->
<g id="edge50" class="edge"><title>Node18&#45;&gt;Node20</title>
<path fill="none" stroke="midnightblue" d="M783.304,-210.952C792.924,-208.051 802.758,-205.003 812,-202 834.419,-194.716 858.913,-186.155 880.166,-178.53"/>
<polygon fill="midnightblue" stroke="midnightblue" points="881.463,-181.783 889.684,-175.1 879.089,-175.197 881.463,-181.783"/>
</g>
<!-- Node20&#45;&gt;Node20 -->
<g id="edge80" class="edge"><title>Node20&#45;&gt;Node20</title>
<path fill="none" stroke="midnightblue" d="M897.89,-175.288C891.414,-184.556 904.117,-193 936,-193 955.429,-193 967.735,-189.864 972.92,-185.318"/>
<polygon fill="midnightblue" stroke="midnightblue" points="976.407,-185.631 974.11,-175.288 969.456,-184.806 976.407,-185.631"/>
</g>
<!-- Node21 -->
<g id="node47" class="node"><title>Node21</title>
<a xlink:href="classforcebalance_1_1optimizer_1_1Optimizer.html#a43ab8c6bea2b3112468922ab61163f67" target="_top" xlink:title="Scan through the mathematical parameter space.">
<polygon fill="white" stroke="black" points="1272,-69 1272,-103 1448,-103 1448,-69 1272,-69"/>
<text text-anchor="start" x="1280" y="-90" font-family="Ubuntu-R" font-size="10.00">forcebalance.optimizer.Optimizer.</text>
<text text-anchor="middle" x="1360" y="-77" font-family="Ubuntu-R" font-size="10.00">ScanMVals</text>
</a>
</g>
<!-- Node20&#45;&gt;Node21 -->
<g id="edge52" class="edge"><title>Node20&#45;&gt;Node21</title>
<path fill="none" stroke="midnightblue" d="M967.603,-140.924C992.068,-128.597 1027.2,-112.803 1060,-105 1126.11,-89.2703 1202.59,-84.6268 1261.78,-83.861"/>
<polygon fill="midnightblue" stroke="midnightblue" points="1261.9,-87.3601 1271.87,-83.7657 1261.84,-80.3604 1261.9,-87.3601"/>
</g>
<!-- Node33 -->
<g id="node74" class="node"><title>Node33</title>
<a xlink:href="classforcebalance_1_1optimizer_1_1Optimizer.html#a70bff76f2e56d87c8dee8aa92fe56d29" target="_top" xlink:title="Scan through the physical parameter space.">
<polygon fill="white" stroke="black" points="1060,-114 1060,-148 1236,-148 1236,-114 1060,-114"/>
<text text-anchor="start" x="1068" y="-135" font-family="Ubuntu-R" font-size="10.00">forcebalance.optimizer.Optimizer.</text>
<text text-anchor="middle" x="1148" y="-122" font-family="Ubuntu-R" font-size="10.00">ScanPVals</text>
</a>
</g>
<!-- Node20&#45;&gt;Node33 -->
<g id="edge82" class="edge"><title>Node20&#45;&gt;Node33</title>
<path fill="none" stroke="midnightblue" d="M1024.07,-146.784C1032.57,-145.701 1041.23,-144.598 1049.82,-143.503"/>
<polygon fill="midnightblue" stroke="midnightblue" points="1050.39,-146.96 1059.87,-142.224 1049.51,-140.016 1050.39,-146.96"/>
</g>
<!-- Node34 -->
<g id="node76" class="node"><title>Node34</title>
<a xlink:href="classforcebalance_1_1optimizer_1_1Optimizer.html#a1477d2b88faa1d4991418538133abcff" target="_top" xlink:title="A single&#45;point objective function computation.">
<polygon fill="white" stroke="black" points="1060,-166 1060,-200 1236,-200 1236,-166 1060,-166"/>
<text text-anchor="start" x="1068" y="-187" font-family="Ubuntu-R" font-size="10.00">forcebalance.optimizer.Optimizer.</text>
<text text-anchor="middle" x="1148" y="-174" font-family="Ubuntu-R" font-size="10.00">SinglePoint</text>
</a>
</g>
<!-- Node20&#45;&gt;Node34 -->
<g id="edge84" class="edge"><title>Node20&#45;&gt;Node34</title>
<path fill="none" stroke="midnightblue" d="M1024.07,-168.385C1032.57,-169.388 1041.23,-170.409 1049.82,-171.423"/>
<polygon fill="midnightblue" stroke="midnightblue" points="1049.53,-174.912 1059.87,-172.607 1050.35,-167.96 1049.53,-174.912"/>
</g>
<!-- Node37 -->
<g id="node85" class="node"><title>Node37</title>
<a xlink:href="classforcebalance_1_1optimizer_1_1Optimizer.html#ac5adf24cf3ea3976eb67f75b6b89d101" target="_top" xlink:title="A single&#45;point gradient computation.">
<polygon fill="white" stroke="black" points="1272,-211 1272,-245 1448,-245 1448,-211 1272,-211"/>
<text text-anchor="start" x="1280" y="-232" font-family="Ubuntu-R" font-size="10.00">forcebalance.optimizer.Optimizer.</text>
<text text-anchor="middle" x="1360" y="-219" font-family="Ubuntu-R" font-size="10.00">Gradient</text>
</a>
</g>
<!-- Node20&#45;&gt;Node37 -->
<g id="edge96" class="edge"><title>Node20&#45;&gt;Node37</title>
<path fill="none" stroke="midnightblue" d="M968.966,-175.037C993.406,-186.796 1027.91,-201.596 1060,-209 1126.22,-224.276 1202.69,-228.927 1261.85,-229.81"/>
<polygon fill="midnightblue" stroke="midnightblue" points="1261.9,-233.311 1271.94,-229.927 1261.98,-226.311 1261.9,-233.311"/>
</g>
<!-- Node22 -->
<g id="node49" class="node"><title>Node22</title>
<a xlink:href="classforcebalance_1_1optimizer_1_1Optimizer.html#a0c16ad8678a6480e235a45d69fb077d3" target="_top" xlink:title="A single&#45;point Hessian computation.">
<polygon fill="white" stroke="black" points="1484,-69 1484,-103 1660,-103 1660,-69 1484,-69"/>
<text text-anchor="start" x="1492" y="-90" font-family="Ubuntu-R" font-size="10.00">forcebalance.optimizer.Optimizer.</text>
<text text-anchor="middle" x="1572" y="-77" font-family="Ubuntu-R" font-size="10.00">Hessian</text>
</a>
</g>
<!-- Node21&#45;&gt;Node22 -->
<g id="edge54" class="edge"><title>Node21&#45;&gt;Node22</title>
<path fill="none" stroke="midnightblue" d="M1448.07,-86C1456.57,-86 1465.23,-86 1473.82,-86"/>
<polygon fill="midnightblue" stroke="midnightblue" points="1473.87,-89.5001 1483.87,-86 1473.87,-82.5001 1473.87,-89.5001"/>
</g>
<!-- Node23 -->
<g id="node51" class="node"><title>Node23</title>
<a xlink:href="namespaceforcebalance_1_1finite__difference.html#a9be9f0d21300958092e380514e2e980d" target="_top" xlink:title="A highly accurate seven&#45;point finite difference stencil for computing derivatives of a function...">
<polygon fill="white" stroke="black" points="1732,-159 1732,-193 1836,-193 1836,-159 1732,-159"/>
<text text-anchor="start" x="1740" y="-180" font-family="Ubuntu-R" font-size="10.00">forcebalance.finite</text>
<text text-anchor="middle" x="1784" y="-167" font-family="Ubuntu-R" font-size="10.00">_difference.f1d7p</text>
</a>
</g>
<!-- Node22&#45;&gt;Node23 -->
<g id="edge56" class="edge"><title>Node22&#45;&gt;Node23</title>
<path fill="none" stroke="midnightblue" d="M1612.37,-103.14C1647,-117.841 1697.04,-139.081 1734.15,-154.839"/>
<polygon fill="midnightblue" stroke="midnightblue" points="1733.2,-158.238 1743.78,-158.924 1735.94,-151.794 1733.2,-158.238"/>
</g>
<!-- Node27 -->
<g id="node59" class="node"><title>Node27</title>
<a xlink:href="namespaceforcebalance_1_1finite__difference.html#ae484c591ae8c4e5bae73a0ef2660c339" target="_top" xlink:title="A function wrapper for finite difference designed for differentiating &#39;get&#39;&#45;type functions.">
<polygon fill="white" stroke="black" points="2358,-111 2358,-145 2462,-145 2462,-111 2358,-111"/>
<text text-anchor="start" x="2366" y="-132" font-family="Ubuntu-R" font-size="10.00">forcebalance.finite</text>
<text text-anchor="middle" x="2410" y="-119" font-family="Ubuntu-R" font-size="10.00">_difference.fdwrap</text>
</a>
</g>
<!-- Node22&#45;&gt;Node27 -->
<g id="edge72" class="edge"><title>Node22&#45;&gt;Node27</title>
<path fill="none" stroke="midnightblue" d="M1660.19,-87.8535C1798.42,-91.178 2074.45,-99.5072 2308,-117 2320.82,-117.96 2334.53,-119.254 2347.59,-120.617"/>
<polygon fill="midnightblue" stroke="midnightblue" points="2347.59,-124.136 2357.91,-121.719 2348.34,-117.176 2347.59,-124.136"/>
</g>
<!-- Node30 -->
<g id="node67" class="node"><title>Node30</title>
<a xlink:href="classforcebalance_1_1optimizer_1_1Optimizer.html#adb86c1f6580bb088a23563a6103986fe" target="_top" xlink:title="Finite&#45;difference checker for the objective function Hessian.">
<polygon fill="white" stroke="black" points="1696,-31 1696,-65 1872,-65 1872,-31 1696,-31"/>
<text text-anchor="start" x="1704" y="-52" font-family="Ubuntu-R" font-size="10.00">forcebalance.optimizer.Optimizer.</text>
<text text-anchor="middle" x="1784" y="-39" font-family="Ubuntu-R" font-size="10.00">FDCheckH</text>
</a>
</g>
<!-- Node22&#45;&gt;Node30 -->
<g id="edge74" class="edge"><title>Node22&#45;&gt;Node30</title>
<path fill="none" stroke="midnightblue" d="M1660.07,-70.2147C1668.57,-68.6904 1677.23,-67.1377 1685.82,-65.5974"/>
<polygon fill="midnightblue" stroke="midnightblue" points="1686.64,-69.0068 1695.87,-63.7973 1685.41,-62.1166 1686.64,-69.0068"/>
</g>
<!-- Node24 -->
<g id="node53" class="node"><title>Node24</title>
<a xlink:href="namespaceforcebalance_1_1finite__difference.html#acc281f85b668062745f711d9b4a610fa" target="_top" xlink:title="forcebalance.finite\l_difference.f12d7p">
<polygon fill="white" stroke="black" points="1963.5,-159 1963.5,-193 2068.5,-193 2068.5,-159 1963.5,-159"/>
<text text-anchor="start" x="1971.5" y="-180" font-family="Ubuntu-R" font-size="10.00">forcebalance.finite</text>
<text text-anchor="middle" x="2016" y="-167" font-family="Ubuntu-R" font-size="10.00">_difference.f12d7p</text>
</a>
</g>
<!-- Node23&#45;&gt;Node24 -->
<g id="edge58" class="edge"><title>Node23&#45;&gt;Node24</title>
<path fill="none" stroke="midnightblue" d="M1836.07,-176C1870.75,-176 1916.51,-176 1953.21,-176"/>
<polygon fill="midnightblue" stroke="midnightblue" points="1953.31,-179.5 1963.31,-176 1953.31,-172.5 1953.31,-179.5"/>
</g>
<!-- Node25 -->
<g id="node55" class="node"><title>Node25</title>
<a xlink:href="namespaceforcebalance_1_1finite__difference.html#aa69a8819e4680091f400303c1d6ddeb7" target="_top" xlink:title="A three&#45;point finite difference stencil.">
<polygon fill="white" stroke="black" points="2181.5,-159 2181.5,-193 2286.5,-193 2286.5,-159 2181.5,-159"/>
<text text-anchor="start" x="2189.5" y="-180" font-family="Ubuntu-R" font-size="10.00">forcebalance.finite</text>
<text text-anchor="middle" x="2234" y="-167" font-family="Ubuntu-R" font-size="10.00">_difference.f12d3p</text>
</a>
</g>
<!-- Node24&#45;&gt;Node25 -->
<g id="edge60" class="edge"><title>Node24&#45;&gt;Node25</title>
<path fill="none" stroke="midnightblue" d="M2068.77,-176C2099.59,-176 2138.66,-176 2171.07,-176"/>
<polygon fill="midnightblue" stroke="midnightblue" points="2171.34,-179.5 2181.34,-176 2171.34,-172.5 2171.34,-179.5"/>
</g>
<!-- Node26 -->
<g id="node57" class="node"><title>Node26</title>
<a xlink:href="namespaceforcebalance_1_1finite__difference.html#ad84d3e385db1190e7d8ef58bc08a6c52" target="_top" xlink:title="Invoking this function from anywhere will tell us whether we&#39;re being called by a finite&#45;difference f...">
<polygon fill="white" stroke="black" points="2358,-163 2358,-197 2462,-197 2462,-163 2358,-163"/>
<text text-anchor="start" x="2366" y="-184" font-family="Ubuntu-R" font-size="10.00">forcebalance.finite</text>
<text text-anchor="middle" x="2410" y="-171" font-family="Ubuntu-R" font-size="10.00">_difference.in_fd</text>
</a>
</g>
<!-- Node25&#45;&gt;Node26 -->
<g id="edge62" class="edge"><title>Node25&#45;&gt;Node26</title>
<path fill="none" stroke="midnightblue" d="M2286.81,-177.2C2305.95,-177.635 2327.75,-178.131 2347.64,-178.583"/>
<polygon fill="midnightblue" stroke="midnightblue" points="2347.76,-182.086 2357.84,-178.814 2347.92,-175.088 2347.76,-182.086"/>
</g>
<!-- Node25&#45;&gt;Node27 -->
<g id="edge64" class="edge"><title>Node25&#45;&gt;Node27</title>
<path fill="none" stroke="midnightblue" d="M2286.81,-161.598C2306.12,-156.33 2328.15,-150.323 2348.18,-144.859"/>
<polygon fill="midnightblue" stroke="midnightblue" points="2349.11,-148.234 2357.84,-142.226 2347.27,-141.481 2349.11,-148.234"/>
</g>
<!-- Node28 -->
<g id="node61" class="node"><title>Node28</title>
<a xlink:href="namespaceforcebalance_1_1finite__difference.html#a00322fb65860c390616f74d05037c797" target="_top" xlink:title="A driver to fdwrap for gradients (see documentation for fdwrap) Inputs: tgt = The Target containing t...">
<polygon fill="white" stroke="black" points="2530,-111 2530,-145 2646,-145 2646,-111 2530,-111"/>
<text text-anchor="start" x="2538" y="-132" font-family="Ubuntu-R" font-size="10.00">forcebalance.finite</text>
<text text-anchor="middle" x="2588" y="-119" font-family="Ubuntu-R" font-size="10.00">_difference.fdwrap_G</text>
</a>
</g>
<!-- Node27&#45;&gt;Node28 -->
<g id="edge66" class="edge"><title>Node27&#45;&gt;Node28</title>
<path fill="none" stroke="midnightblue" d="M2462.44,-121.784C2480.35,-121.231 2500.65,-121.107 2519.62,-121.414"/>
<polygon fill="midnightblue" stroke="midnightblue" points="2519.63,-124.915 2529.7,-121.62 2519.77,-117.916 2519.63,-124.915"/>
</g>
<!-- Node29 -->
<g id="node64" class="node"><title>Node29</title>
<a xlink:href="namespaceforcebalance_1_1finite__difference.html#a77a0bc1ae3cbbcc8d38a0ef9ca877d6d" target="_top" xlink:title="A driver to fdwrap for Hessians (see documentation for fdwrap) Inputs: tgt = The Target containing th...">
<polygon fill="white" stroke="black" points="2530,-59 2530,-93 2646,-93 2646,-59 2530,-59"/>
<text text-anchor="start" x="2538" y="-80" font-family="Ubuntu-R" font-size="10.00">forcebalance.finite</text>
<text text-anchor="middle" x="2588" y="-67" font-family="Ubuntu-R" font-size="10.00">_difference.fdwrap_H</text>
</a>
</g>
<!-- Node27&#45;&gt;Node29 -->
<g id="edge70" class="edge"><title>Node27&#45;&gt;Node29</title>
<path fill="none" stroke="midnightblue" d="M2462.44,-112.68C2480.43,-107.424 2500.83,-101.464 2519.88,-95.8994"/>
<polygon fill="midnightblue" stroke="midnightblue" points="2521.08,-99.195 2529.7,-93.0312 2519.12,-92.4759 2521.08,-99.195"/>
</g>
<!-- Node28&#45;&gt;Node27 -->
<g id="edge68" class="edge"><title>Node28&#45;&gt;Node27</title>
<path fill="none" stroke="midnightblue" d="M2529.7,-134.38C2511.41,-134.838 2491.14,-134.871 2472.57,-134.478"/>
<polygon fill="midnightblue" stroke="midnightblue" points="2472.53,-130.976 2462.44,-134.216 2472.35,-137.974 2472.53,-130.976"/>
</g>
<!-- Node31 -->
<g id="node69" class="node"><title>Node31</title>
<a xlink:href="classforcebalance_1_1optimizer_1_1Optimizer.html#a05ee5fe985b3e2ec71071ca061e42d66" target="_top" xlink:title="Read the checkpoint file for the main optimizer.">
<polygon fill="white" stroke="black" points="1909,-40.5 1909,-61.5 2123,-61.5 2123,-40.5 1909,-40.5"/>
<text text-anchor="middle" x="2016" y="-48.5" font-family="Ubuntu-R" font-size="10.00">forcebalance.optimizer.Optimizer.readchk</text>
</a>
</g>
<!-- Node30&#45;&gt;Node31 -->
<g id="edge76" class="edge"><title>Node30&#45;&gt;Node31</title>
<path fill="none" stroke="midnightblue" d="M1872.04,-49.1384C1880.79,-49.2517 1889.78,-49.3678 1898.77,-49.484"/>
<polygon fill="midnightblue" stroke="midnightblue" points="1898.86,-52.9855 1908.91,-49.6152 1898.96,-45.9861 1898.86,-52.9855"/>
</g>
<!-- Node32 -->
<g id="node71" class="node"><title>Node32</title>
<a xlink:href="classforcebalance_1_1optimizer_1_1Optimizer.html#aa7ac7cda43b70ac58ccbd6c8445e88ef" target="_top" xlink:title="Write the checkpoint file for the main optimizer.">
<polygon fill="white" stroke="black" points="1908.5,-0.5 1908.5,-21.5 2123.5,-21.5 2123.5,-0.5 1908.5,-0.5"/>
<text text-anchor="middle" x="2016" y="-8.5" font-family="Ubuntu-R" font-size="10.00">forcebalance.optimizer.Optimizer.writechk</text>
</a>
</g>
<!-- Node30&#45;&gt;Node32 -->
<g id="edge78" class="edge"><title>Node30&#45;&gt;Node32</title>
<path fill="none" stroke="midnightblue" d="M1872.04,-33.9591C1894.39,-30.3942 1918.22,-26.5943 1939.92,-23.133"/>
<polygon fill="midnightblue" stroke="midnightblue" points="1940.74,-26.5476 1950.06,-21.5163 1939.63,-19.635 1940.74,-26.5476"/>
</g>
<!-- Node35 -->
<g id="node78" class="node"><title>Node35</title>
<a xlink:href="classforcebalance_1_1optimizer_1_1Optimizer.html#aacf96d137fb0e491af7e380c8bd61eb9" target="_top" xlink:title="Finite&#45;difference checker for the objective function gradient.">
<polygon fill="white" stroke="black" points="1272,-159 1272,-193 1448,-193 1448,-159 1272,-159"/>
<text text-anchor="start" x="1280" y="-180" font-family="Ubuntu-R" font-size="10.00">forcebalance.optimizer.Optimizer.</text>
<text text-anchor="middle" x="1360" y="-167" font-family="Ubuntu-R" font-size="10.00">FDCheckG</text>
</a>
</g>
<!-- Node34&#45;&gt;Node35 -->
<g id="edge86" class="edge"><title>Node34&#45;&gt;Node35</title>
<path fill="none" stroke="midnightblue" d="M1236.07,-180.092C1244.57,-179.811 1253.23,-179.525 1261.82,-179.242"/>
<polygon fill="midnightblue" stroke="midnightblue" points="1261.99,-182.738 1271.87,-178.91 1261.76,-175.742 1261.99,-182.738"/>
</g>
<!-- Node35&#45;&gt;Node3 -->
<g id="edge88" class="edge"><title>Node35&#45;&gt;Node3</title>
<path fill="none" stroke="midnightblue" d="M1418.79,-193.022C1428.57,-195.952 1438.58,-199.016 1448,-202 1476.37,-210.993 1508.17,-221.776 1532.46,-230.164"/>
<polygon fill="midnightblue" stroke="midnightblue" points="1531.45,-233.518 1542.04,-233.484 1533.74,-226.904 1531.45,-233.518"/>
</g>
<!-- Node35&#45;&gt;Node27 -->
<g id="edge94" class="edge"><title>Node35&#45;&gt;Node27</title>
<path fill="none" stroke="midnightblue" d="M1432.48,-158.984C1449.31,-155.539 1467.22,-152.279 1484,-150 1616.39,-132.023 1650.4,-131 1784,-131 1784,-131 1784,-131 2016,-131 2133.18,-131 2269.97,-129.657 2347.64,-128.768"/>
<polygon fill="midnightblue" stroke="midnightblue" points="2347.78,-132.266 2357.74,-128.651 2347.7,-125.267 2347.78,-132.266"/>
</g>
<!-- Node36 -->
<g id="node81" class="node"><title>Node36</title>
<a xlink:href="namespaceforcebalance_1_1finite__difference.html#a123c5d5dea0f3f50ab57796bb3bc39be" target="_top" xlink:title="A highly accurate five&#45;point finite difference stencil for computing derivatives of a function...">
<polygon fill="white" stroke="black" points="1520,-159 1520,-193 1624,-193 1624,-159 1520,-159"/>
<text text-anchor="start" x="1528" y="-180" font-family="Ubuntu-R" font-size="10.00">forcebalance.finite</text>
<text text-anchor="middle" x="1572" y="-167" font-family="Ubuntu-R" font-size="10.00">_difference.f1d5p</text>
</a>
</g>
<!-- Node35&#45;&gt;Node36 -->
<g id="edge90" class="edge"><title>Node35&#45;&gt;Node36</title>
<path fill="none" stroke="midnightblue" d="M1448.07,-176C1468.8,-176 1490.47,-176 1509.79,-176"/>
<polygon fill="midnightblue" stroke="midnightblue" points="1509.96,-179.5 1519.96,-176 1509.96,-172.5 1509.96,-179.5"/>
</g>
<!-- Node36&#45;&gt;Node23 -->
<g id="edge92" class="edge"><title>Node36&#45;&gt;Node23</title>
<path fill="none" stroke="midnightblue" d="M1624.13,-176C1653.54,-176 1690.49,-176 1721.45,-176"/>
<polygon fill="midnightblue" stroke="midnightblue" points="1721.7,-179.5 1731.7,-176 1721.7,-172.5 1721.7,-179.5"/>
</g>
<!-- Node37&#45;&gt;Node3 -->
<g id="edge98" class="edge"><title>Node37&#45;&gt;Node3</title>
<path fill="none" stroke="midnightblue" d="M1448.07,-234.646C1461.84,-235.686 1476.04,-236.758 1489.69,-237.788"/>
<polygon fill="midnightblue" stroke="midnightblue" points="1489.76,-241.303 1500,-238.566 1490.29,-234.323 1489.76,-241.303"/>
</g>
</g>
</svg>
