<?xml version="1.0" encoding="UTF-8" standalone="no"?>
<!DOCTYPE svg PUBLIC "-//W3C//DTD SVG 1.1//EN"
 "http://www.w3.org/Graphics/SVG/1.1/DTD/svg11.dtd">
<!-- Generated by graphviz version 2.28.0 (20111219.2309)
 -->
<!-- Title: G Pages: 1 -->
<svg width="562pt" height="28pt"
 viewBox="0.00 0.00 562.00 28.00" xmlns="http://www.w3.org/2000/svg" xmlns:xlink="http://www.w3.org/1999/xlink">
<g id="graph1" class="graph" transform="scale(1 1) rotate(0) translate(4 24)">
<title>G</title>
<polygon fill="white" stroke="white" points="-4,5 -4,-24 559,-24 559,5 -4,5"/>
<!-- Node1 -->
<g id="node1" class="node"><title>Node1</title>
<polygon fill="#bfbfbf" stroke="black" points="0,-0.5 0,-19.5 176,-19.5 176,-0.5 0,-0.5"/>
<text text-anchor="middle" x="88" y="-7.5" font-family="Ubuntu-R" font-size="10.00">forcebalance.gmxio.GMX.prepare</text>
</g>
<!-- Node2 -->
<g id="node3" class="node"><title>Node2</title>
<a xlink:href="namespaceforcebalance_1_1nifty.html#a26e563ec71ed229c30f3d61d3448c8f1" target="_top" xlink:title="Prints a warning but will only do so once in a given run.">
<polygon fill="white" stroke="black" points="212,-0.5 212,-19.5 366,-19.5 366,-0.5 212,-0.5"/>
<text text-anchor="middle" x="289" y="-7.5" font-family="Ubuntu-R" font-size="10.00">forcebalance.nifty.warn_once</text>
</a>
</g>
<!-- Node1&#45;&gt;Node2 -->
<g id="edge2" class="edge"><title>Node1&#45;&gt;Node2</title>
<path fill="none" stroke="midnightblue" d="M176.284,-10C184.674,-10 193.181,-10 201.562,-10"/>
<polygon fill="midnightblue" stroke="midnightblue" points="201.707,-13.5001 211.707,-10 201.707,-6.5001 201.707,-13.5001"/>
</g>
<!-- Node3 -->
<g id="node5" class="node"><title>Node3</title>
<a xlink:href="namespaceforcebalance_1_1nifty.html#a64b7c6ca7afa1c11681f5c2897c55cc3" target="_top" xlink:title="This function be given any of several variable types (single file name, file object, or list of lines, or a list of the above) and give a list of files:">
<polygon fill="white" stroke="black" points="402.5,-0.5 402.5,-19.5 553.5,-19.5 553.5,-0.5 402.5,-0.5"/>
<text text-anchor="middle" x="478" y="-7.5" font-family="Ubuntu-R" font-size="10.00">forcebalance.nifty.multiopen</text>
</a>
</g>
<!-- Node2&#45;&gt;Node3 -->
<g id="edge4" class="edge"><title>Node2&#45;&gt;Node3</title>
<path fill="none" stroke="midnightblue" d="M366.06,-10C374.636,-10 383.415,-10 392.094,-10"/>
<polygon fill="midnightblue" stroke="midnightblue" points="392.219,-13.5001 402.219,-10 392.219,-6.5001 392.219,-13.5001"/>
</g>
</g>
</svg>
