<?xml version="1.0" encoding="UTF-8" standalone="no"?>
<!DOCTYPE svg PUBLIC "-//W3C//DTD SVG 1.1//EN"
 "http://www.w3.org/Graphics/SVG/1.1/DTD/svg11.dtd">
<!-- Generated by graphviz version 2.26.3 (20100126.1600)
 -->
<!-- Title: forcebalance.Mol2.mol2.__repr__ Pages: 1 -->
<svg width="1660pt" height="169pt"
 viewBox="0.00 0.00 1660.00 169.12" xmlns="http://www.w3.org/2000/svg" xmlns:xlink="http://www.w3.org/1999/xlink">
<g id="graph1" class="graph" transform="scale(1 1) rotate(0) translate(4 165.118)">
<title>forcebalance.Mol2.mol2.__repr__</title>
<polygon fill="white" stroke="white" points="-4,5 -4,-165.118 1657,-165.118 1657,5 -4,5"/>
<!-- Node1 -->
<g id="node1" class="node"><title>Node1</title>
<polygon fill="#bfbfbf" stroke="black" points="0.5,-108 0.5,-142 133.5,-142 133.5,-108 0.5,-108"/>
<text text-anchor="start" x="8.5" y="-129" font-family="Ubuntu-R" font-size="10.00">forcebalance.Mol2.mol2.</text>
<text text-anchor="middle" x="67" y="-116" font-family="Ubuntu-R" font-size="10.00">__repr__</text>
</g>
<!-- Node2 -->
<g id="node3" class="node"><title>Node2</title>
<a xlink:href="classforcebalance_1_1Mol2_1_1mol2.html#a4055fdaf7ab9a93d60577a8ce4d91ce1" target="_top" xlink:title="bond identifier (integer, starting from 1)">
<polygon fill="white" stroke="black" points="722,-108 722,-142 870,-142 870,-108 722,-108"/>
<text text-anchor="start" x="730" y="-129" font-family="Ubuntu-R" font-size="10.00">forcebalance.Mol2.mol2.set</text>
<text text-anchor="middle" x="796" y="-116" font-family="Ubuntu-R" font-size="10.00">_mol_name</text>
</a>
</g>
<!-- Node1&#45;&gt;Node2 -->
<g id="edge2" class="edge"><title>Node1&#45;&gt;Node2</title>
<path fill="none" stroke="midnightblue" d="M133.667,-134.664C247.378,-149.616 485.949,-174.321 686,-151 698.814,-149.506 712.301,-147.065 725.27,-144.261"/>
<polygon fill="midnightblue" stroke="midnightblue" points="726.08,-147.667 735.067,-142.057 724.543,-140.838 726.08,-147.667"/>
</g>
<!-- Node9 -->
<g id="node18" class="node"><title>Node9</title>
<a xlink:href="classforcebalance_1_1Mol2_1_1mol2.html#a9aa06696da4a8e209bf5fca3acdf790b" target="_top" xlink:title="number of atoms (integer)">
<polygon fill="white" stroke="black" points="354,-108 354,-142 502,-142 502,-108 354,-108"/>
<text text-anchor="start" x="362" y="-129" font-family="Ubuntu-R" font-size="10.00">forcebalance.Mol2.mol2.set</text>
<text text-anchor="middle" x="428" y="-116" font-family="Ubuntu-R" font-size="10.00">_num_atoms</text>
</a>
</g>
<!-- Node1&#45;&gt;Node9 -->
<g id="edge18" class="edge"><title>Node1&#45;&gt;Node9</title>
<path fill="none" stroke="midnightblue" d="M133.634,-125C192.905,-125 279.865,-125 343.907,-125"/>
<polygon fill="midnightblue" stroke="midnightblue" points="343.981,-128.5 353.981,-125 343.981,-121.5 343.981,-128.5"/>
</g>
<!-- Node11 -->
<g id="node24" class="node"><title>Node11</title>
<a xlink:href="classforcebalance_1_1Mol2_1_1mol2.html#a067b764ea4c695738f51bc5f995f6f73" target="_top" xlink:title="number of bonds (integer)">
<polygon fill="white" stroke="black" points="170,-38 170,-72 318,-72 318,-38 170,-38"/>
<text text-anchor="start" x="178" y="-59" font-family="Ubuntu-R" font-size="10.00">forcebalance.Mol2.mol2.set</text>
<text text-anchor="middle" x="244" y="-46" font-family="Ubuntu-R" font-size="10.00">_num_bonds</text>
</a>
</g>
<!-- Node1&#45;&gt;Node11 -->
<g id="edge26" class="edge"><title>Node1&#45;&gt;Node11</title>
<path fill="none" stroke="midnightblue" d="M110.299,-107.876C134.711,-98.2216 165.396,-86.0865 191.21,-75.8775"/>
<polygon fill="midnightblue" stroke="midnightblue" points="192.83,-79.0007 200.842,-72.0683 190.255,-72.4913 192.83,-79.0007"/>
</g>
<!-- Node3 -->
<g id="node5" class="node"><title>Node3</title>
<a xlink:href="classforcebalance_1_1Mol2_1_1mol2.html#ab5de4b8eef6e851d9be12ecb92cf8f86" target="_top" xlink:title="number of features (integer)">
<polygon fill="white" stroke="black" points="906,-85 906,-119 1054,-119 1054,-85 906,-85"/>
<text text-anchor="start" x="914" y="-106" font-family="Ubuntu-R" font-size="10.00">forcebalance.Mol2.mol2.set</text>
<text text-anchor="middle" x="980" y="-93" font-family="Ubuntu-R" font-size="10.00">_num_feat</text>
</a>
</g>
<!-- Node2&#45;&gt;Node3 -->
<g id="edge4" class="edge"><title>Node2&#45;&gt;Node3</title>
<path fill="none" stroke="midnightblue" d="M870.044,-115.744C878.514,-114.686 887.195,-113.601 895.784,-112.527"/>
<polygon fill="midnightblue" stroke="midnightblue" points="896.319,-115.987 905.808,-111.274 895.451,-109.042 896.319,-115.987"/>
</g>
<!-- Node4 -->
<g id="node7" class="node"><title>Node4</title>
<a xlink:href="classforcebalance_1_1Mol2_1_1mol2.html#a8d49f0024dfe625e1b43a244ec76f3b3" target="_top" xlink:title="Parse a series of text lines, and setup compound information.">
<polygon fill="white" stroke="black" points="1090,-91.5 1090,-112.5 1250,-112.5 1250,-91.5 1090,-91.5"/>
<text text-anchor="middle" x="1170" y="-99.5" font-family="Ubuntu-R" font-size="10.00">forcebalance.Mol2.mol2.parse</text>
</a>
</g>
<!-- Node3&#45;&gt;Node4 -->
<g id="edge6" class="edge"><title>Node3&#45;&gt;Node4</title>
<path fill="none" stroke="midnightblue" d="M1054,-102C1062.47,-102 1071.16,-102 1079.81,-102"/>
<polygon fill="midnightblue" stroke="midnightblue" points="1079.91,-105.5 1089.91,-102 1079.91,-98.5001 1079.91,-105.5"/>
</g>
<!-- Node5 -->
<g id="node9" class="node"><title>Node5</title>
<a xlink:href="classforcebalance_1_1Mol2_1_1mol2.html#af5a261aefed1c65fd5f56b5b30e69995" target="_top" xlink:title="return the atom instance given its atom identifier">
<polygon fill="white" stroke="black" points="1286,-130.5 1286,-151.5 1466,-151.5 1466,-130.5 1286,-130.5"/>
<text text-anchor="middle" x="1376" y="-138.5" font-family="Ubuntu-R" font-size="10.00">forcebalance.Mol2.mol2.get_atom</text>
</a>
</g>
<!-- Node4&#45;&gt;Node5 -->
<g id="edge8" class="edge"><title>Node4&#45;&gt;Node5</title>
<path fill="none" stroke="midnightblue" d="M1225.48,-112.503C1251.69,-117.466 1283.17,-123.425 1310.54,-128.608"/>
<polygon fill="midnightblue" stroke="midnightblue" points="1309.95,-132.057 1320.43,-130.479 1311.25,-125.18 1309.95,-132.057"/>
</g>
<!-- Node6 -->
<g id="node11" class="node"><title>Node6</title>
<a xlink:href="classforcebalance_1_1Mol2_1_1mol2.html#a2d2b34613f2b72ad3a7fcdc94a3de994" target="_top" xlink:title="return a dictionnary of atom instances bonded to the atom, and their types">
<polygon fill="white" stroke="black" points="1502.5,-108 1502.5,-142 1651.5,-142 1651.5,-108 1502.5,-108"/>
<text text-anchor="start" x="1510.5" y="-129" font-family="Ubuntu-R" font-size="10.00">forcebalance.Mol2.mol2.get</text>
<text text-anchor="middle" x="1577" y="-116" font-family="Ubuntu-R" font-size="10.00">_bonded_atoms</text>
</a>
</g>
<!-- Node4&#45;&gt;Node6 -->
<g id="edge12" class="edge"><title>Node4&#45;&gt;Node6</title>
<path fill="none" stroke="midnightblue" d="M1250.41,-106.544C1320.18,-110.487 1420.88,-116.178 1491.98,-120.195"/>
<polygon fill="midnightblue" stroke="midnightblue" points="1492.06,-123.706 1502.25,-120.776 1492.46,-116.717 1492.06,-123.706"/>
</g>
<!-- Node7 -->
<g id="node14" class="node"><title>Node7</title>
<a xlink:href="classforcebalance_1_1Mol2_1_1mol2.html#aa5a8b41dee69923e1854b0385ba588a4" target="_top" xlink:title="modify atom types to specify donnor, acceptor, or both">
<polygon fill="white" stroke="black" points="1302,-40 1302,-74 1450,-74 1450,-40 1302,-40"/>
<text text-anchor="start" x="1310" y="-61" font-family="Ubuntu-R" font-size="10.00">forcebalance.Mol2.mol2.set</text>
<text text-anchor="middle" x="1376" y="-48" font-family="Ubuntu-R" font-size="10.00">_donnor_acceptor_atoms</text>
</a>
</g>
<!-- Node4&#45;&gt;Node7 -->
<g id="edge14" class="edge"><title>Node4&#45;&gt;Node7</title>
<path fill="none" stroke="midnightblue" d="M1218.3,-91.4495C1240.24,-86.6564 1266.85,-80.8441 1291.91,-75.3696"/>
<polygon fill="midnightblue" stroke="midnightblue" points="1292.77,-78.7641 1301.79,-73.2105 1291.28,-71.9254 1292.77,-78.7641"/>
</g>
<!-- Node5&#45;&gt;Node6 -->
<g id="edge10" class="edge"><title>Node5&#45;&gt;Node6</title>
<path fill="none" stroke="midnightblue" d="M1466.21,-133.819C1474.91,-133.126 1483.72,-132.425 1492.36,-131.737"/>
<polygon fill="midnightblue" stroke="midnightblue" points="1492.73,-135.219 1502.42,-130.937 1492.17,-128.241 1492.73,-135.219"/>
</g>
<!-- Node8 -->
<g id="node16" class="node"><title>Node8</title>
<a xlink:href="classforcebalance_1_1Mol2_1_1mol2.html#ad2182f9984dda90dfbd036d70921d5d8" target="_top" xlink:title="forcebalance.Mol2.mol2.\l__init__">
<polygon fill="white" stroke="black" points="1510.5,-40 1510.5,-74 1643.5,-74 1643.5,-40 1510.5,-40"/>
<text text-anchor="start" x="1518.5" y="-61" font-family="Ubuntu-R" font-size="10.00">forcebalance.Mol2.mol2.</text>
<text text-anchor="middle" x="1577" y="-48" font-family="Ubuntu-R" font-size="10.00">__init__</text>
</a>
</g>
<!-- Node7&#45;&gt;Node8 -->
<g id="edge16" class="edge"><title>Node7&#45;&gt;Node8</title>
<path fill="none" stroke="midnightblue" d="M1450.27,-57C1466.57,-57 1483.86,-57 1500.26,-57"/>
<polygon fill="midnightblue" stroke="midnightblue" points="1500.33,-60.5001 1510.33,-57 1500.33,-53.5001 1500.33,-60.5001"/>
</g>
<!-- Node10 -->
<g id="node20" class="node"><title>Node10</title>
<a xlink:href="classforcebalance_1_1Mol2_1_1mol2.html#a981c9a485d4db6abbcb61b8188090078" target="_top" xlink:title="number of sets (integer)">
<polygon fill="white" stroke="black" points="538,-108 538,-142 686,-142 686,-108 538,-108"/>
<text text-anchor="start" x="546" y="-129" font-family="Ubuntu-R" font-size="10.00">forcebalance.Mol2.mol2.set</text>
<text text-anchor="middle" x="612" y="-116" font-family="Ubuntu-R" font-size="10.00">_num_sets</text>
</a>
</g>
<!-- Node9&#45;&gt;Node10 -->
<g id="edge20" class="edge"><title>Node9&#45;&gt;Node10</title>
<path fill="none" stroke="midnightblue" d="M502.044,-118.366C510.514,-118.255 519.195,-118.224 527.784,-118.272"/>
<polygon fill="midnightblue" stroke="midnightblue" points="527.776,-121.771 537.808,-118.364 527.84,-114.772 527.776,-121.771"/>
</g>
<!-- Node10&#45;&gt;Node2 -->
<g id="edge22" class="edge"><title>Node10&#45;&gt;Node2</title>
<path fill="none" stroke="midnightblue" d="M686.044,-125C694.514,-125 703.195,-125 711.784,-125"/>
<polygon fill="midnightblue" stroke="midnightblue" points="711.808,-128.5 721.808,-125 711.807,-121.5 711.808,-128.5"/>
</g>
<!-- Node10&#45;&gt;Node9 -->
<g id="edge24" class="edge"><title>Node10&#45;&gt;Node9</title>
<path fill="none" stroke="midnightblue" d="M537.808,-131.636C529.336,-131.746 520.654,-131.776 512.066,-131.728"/>
<polygon fill="midnightblue" stroke="midnightblue" points="512.077,-128.228 502.044,-131.634 512.011,-135.227 512.077,-128.228"/>
</g>
<!-- Node12 -->
<g id="node26" class="node"><title>Node12</title>
<a xlink:href="classforcebalance_1_1Mol2_1_1mol2.html#a6ee55f5fae46cee9c0e7d6683c9b5c50" target="_top" xlink:title="bond identifier (integer, starting from 1)">
<polygon fill="white" stroke="black" points="354,-38 354,-72 502,-72 502,-38 354,-38"/>
<text text-anchor="start" x="362" y="-59" font-family="Ubuntu-R" font-size="10.00">forcebalance.Mol2.mol2.set</text>
<text text-anchor="middle" x="428" y="-46" font-family="Ubuntu-R" font-size="10.00">_mol_type</text>
</a>
</g>
<!-- Node11&#45;&gt;Node12 -->
<g id="edge28" class="edge"><title>Node11&#45;&gt;Node12</title>
<path fill="none" stroke="midnightblue" d="M318.044,-48.3656C326.514,-48.2553 335.195,-48.2239 343.784,-48.2715"/>
<polygon fill="midnightblue" stroke="midnightblue" points="343.776,-51.7715 353.808,-48.3637 343.84,-44.7718 343.776,-51.7715"/>
</g>
<!-- Node12&#45;&gt;Node3 -->
<g id="edge38" class="edge"><title>Node12&#45;&gt;Node3</title>
<path fill="none" stroke="midnightblue" d="M502.159,-61.3142C604.417,-70.021 788.229,-85.6717 895.62,-94.8155"/>
<polygon fill="midnightblue" stroke="midnightblue" points="895.508,-98.3185 905.769,-95.6796 896.102,-91.3438 895.508,-98.3185"/>
</g>
<!-- Node12&#45;&gt;Node10 -->
<g id="edge40" class="edge"><title>Node12&#45;&gt;Node10</title>
<path fill="none" stroke="midnightblue" d="M473.011,-72.1239C498.501,-81.8209 530.568,-94.0205 557.476,-104.257"/>
<polygon fill="midnightblue" stroke="midnightblue" points="556.544,-107.647 567.135,-107.932 559.033,-101.105 556.544,-107.647"/>
</g>
<!-- Node12&#45;&gt;Node11 -->
<g id="edge30" class="edge"><title>Node12&#45;&gt;Node11</title>
<path fill="none" stroke="midnightblue" d="M353.808,-61.6363C345.336,-61.7457 336.654,-61.7762 328.066,-61.7276"/>
<polygon fill="midnightblue" stroke="midnightblue" points="328.077,-58.2277 318.044,-61.6344 328.011,-65.2274 328.077,-58.2277"/>
</g>
<!-- Node12&#45;&gt;Node12 -->
<g id="edge42" class="edge"><title>Node12&#45;&gt;Node12</title>
<path fill="none" stroke="midnightblue" d="M394.923,-72.2878C389.303,-81.5562 400.328,-90 428,-90 444.863,-90 455.544,-86.8645 460.043,-82.3176"/>
<polygon fill="midnightblue" stroke="midnightblue" points="463.533,-82.5938 461.077,-72.2878 456.57,-81.8765 463.533,-82.5938"/>
</g>
<!-- Node13 -->
<g id="node29" class="node"><title>Node13</title>
<a xlink:href="classforcebalance_1_1Mol2_1_1mol2.html#a57bf99785e120a6aedd8be49585f4c5d" target="_top" xlink:title="number of substructures (integer)">
<polygon fill="white" stroke="black" points="538,-9 538,-43 686,-43 686,-9 538,-9"/>
<text text-anchor="start" x="546" y="-30" font-family="Ubuntu-R" font-size="10.00">forcebalance.Mol2.mol2.set</text>
<text text-anchor="middle" x="612" y="-17" font-family="Ubuntu-R" font-size="10.00">_num_subst</text>
</a>
</g>
<!-- Node12&#45;&gt;Node13 -->
<g id="edge32" class="edge"><title>Node12&#45;&gt;Node13</title>
<path fill="none" stroke="midnightblue" d="M502.044,-43.3299C510.514,-41.9951 519.195,-40.6269 527.784,-39.2732"/>
<polygon fill="midnightblue" stroke="midnightblue" points="528.474,-42.7077 537.808,-37.6934 527.385,-35.793 528.474,-42.7077"/>
</g>
<!-- Node14 -->
<g id="node31" class="node"><title>Node14</title>
<a xlink:href="classforcebalance_1_1Mol2_1_1mol2.html#aaab9bc1afebb05a355c53db2a35740be" target="_top" xlink:title="bond identifier (integer, starting from 1)">
<polygon fill="white" stroke="black" points="722,-0 722,-34 870,-34 870,-0 722,-0"/>
<text text-anchor="start" x="730" y="-21" font-family="Ubuntu-R" font-size="10.00">forcebalance.Mol2.mol2.set</text>
<text text-anchor="middle" x="796" y="-8" font-family="Ubuntu-R" font-size="10.00">_charge_type</text>
</a>
</g>
<!-- Node13&#45;&gt;Node14 -->
<g id="edge34" class="edge"><title>Node13&#45;&gt;Node14</title>
<path fill="none" stroke="midnightblue" d="M686.044,-22.3783C694.514,-21.964 703.195,-21.5394 711.784,-21.1193"/>
<polygon fill="midnightblue" stroke="midnightblue" points="711.99,-24.6134 721.808,-20.629 711.648,-17.6218 711.99,-24.6134"/>
</g>
<!-- Node14&#45;&gt;Node14 -->
<g id="edge36" class="edge"><title>Node14&#45;&gt;Node14</title>
<path fill="none" stroke="midnightblue" d="M762.923,-34.2878C757.303,-43.5562 768.328,-52 796,-52 812.863,-52 823.544,-48.8645 828.043,-44.3176"/>
<polygon fill="midnightblue" stroke="midnightblue" points="831.533,-44.5938 829.077,-34.2878 824.57,-43.8765 831.533,-44.5938"/>
</g>
</g>
</svg>
