<?xml version="1.0" encoding="UTF-8" standalone="no"?>
<!DOCTYPE svg PUBLIC "-//W3C//DTD SVG 1.1//EN"
 "http://www.w3.org/Graphics/SVG/1.1/DTD/svg11.dtd">
<!-- Generated by graphviz version 2.26.3 (20100126.1600)
 -->
<!-- Title: forcebalance.leastsq.LeastSquares.get Pages: 1 -->
<svg width="732pt" height="191pt"
 viewBox="0.00 0.00 732.00 191.00" xmlns="http://www.w3.org/2000/svg" xmlns:xlink="http://www.w3.org/1999/xlink">
<g id="graph1" class="graph" transform="scale(1 1) rotate(0) translate(4 187)">
<title>forcebalance.leastsq.LeastSquares.get</title>
<polygon fill="white" stroke="white" points="-4,5 -4,-187 729,-187 729,5 -4,5"/>
<!-- Node1 -->
<g id="node1" class="node"><title>Node1</title>
<polygon fill="#bfbfbf" stroke="black" points="0,-65 0,-99 144,-99 144,-65 0,-65"/>
<text text-anchor="start" x="8" y="-86" font-family="Ubuntu-R" font-size="10.00">forcebalance.leastsq.Least</text>
<text text-anchor="middle" x="72" y="-73" font-family="Ubuntu-R" font-size="10.00">Squares.get</text>
</g>
<!-- Node2 -->
<g id="node3" class="node"><title>Node2</title>
<a xlink:href="classforcebalance_1_1psi4io_1_1THCDF__Psi4.html#a14993bd872840bd869fefced495e7ba2" target="_top" xlink:title="forcebalance.psi4io.THCDF\l_Psi4.driver">
<polygon fill="white" stroke="black" points="180,-104 180,-138 324,-138 324,-104 180,-104"/>
<text text-anchor="start" x="188" y="-125" font-family="Ubuntu-R" font-size="10.00">forcebalance.psi4io.THCDF</text>
<text text-anchor="middle" x="252" y="-112" font-family="Ubuntu-R" font-size="10.00">_Psi4.driver</text>
</a>
</g>
<!-- Node1&#45;&gt;Node2 -->
<g id="edge2" class="edge"><title>Node1&#45;&gt;Node2</title>
<path fill="none" stroke="midnightblue" d="M144.176,-97.6381C152.612,-99.4659 161.265,-101.341 169.824,-103.195"/>
<polygon fill="midnightblue" stroke="midnightblue" points="169.294,-106.661 179.808,-105.358 170.776,-99.8202 169.294,-106.661"/>
</g>
<!-- Node8 -->
<g id="node17" class="node"><title>Node8</title>
<a xlink:href="classforcebalance_1_1psi4io_1_1RDVR3__Psi4.html#a8c4cf7a59ef8714519631145669a5df9" target="_top" xlink:title="forcebalance.psi4io.RDVR3\l_Psi4.driver">
<polygon fill="white" stroke="black" points="180.5,-26 180.5,-60 323.5,-60 323.5,-26 180.5,-26"/>
<text text-anchor="start" x="188.5" y="-47" font-family="Ubuntu-R" font-size="10.00">forcebalance.psi4io.RDVR3</text>
<text text-anchor="middle" x="252" y="-34" font-family="Ubuntu-R" font-size="10.00">_Psi4.driver</text>
</a>
</g>
<!-- Node1&#45;&gt;Node8 -->
<g id="edge18" class="edge"><title>Node1&#45;&gt;Node8</title>
<path fill="none" stroke="midnightblue" d="M144.176,-66.3619C152.845,-64.4835 161.745,-62.5552 170.535,-60.6507"/>
<polygon fill="midnightblue" stroke="midnightblue" points="171.363,-64.0527 180.395,-58.5145 169.88,-57.2115 171.363,-64.0527"/>
</g>
<!-- Node3 -->
<g id="node5" class="node"><title>Node3</title>
<a xlink:href="classforcebalance_1_1psi4io_1_1THCDF__Psi4.html#ae4389941b46ce11689f45115fdb61b39" target="_top" xlink:title="forcebalance.psi4io.THCDF\l_Psi4.write_nested_destroy">
<polygon fill="white" stroke="black" points="360,-104 360,-138 506,-138 506,-104 360,-104"/>
<text text-anchor="start" x="368" y="-125" font-family="Ubuntu-R" font-size="10.00">forcebalance.psi4io.THCDF</text>
<text text-anchor="middle" x="433" y="-112" font-family="Ubuntu-R" font-size="10.00">_Psi4.write_nested_destroy</text>
</a>
</g>
<!-- Node2&#45;&gt;Node3 -->
<g id="edge4" class="edge"><title>Node2&#45;&gt;Node3</title>
<path fill="none" stroke="midnightblue" d="M324.056,-114.376C332.488,-114.259 341.143,-114.224 349.712,-114.269"/>
<polygon fill="midnightblue" stroke="midnightblue" points="349.68,-117.769 359.712,-114.36 349.744,-110.769 349.68,-117.769"/>
</g>
<!-- Node4 -->
<g id="node8" class="node"><title>Node4</title>
<a xlink:href="namespaceforcebalance_1_1finite__difference.html#ad84d3e385db1190e7d8ef58bc08a6c52" target="_top" xlink:title="Invoking this function from anywhere will tell us whether we&#39;re being called by a finite&#45;difference f...">
<polygon fill="white" stroke="black" points="581,-149 581,-183 685,-183 685,-149 581,-149"/>
<text text-anchor="start" x="589" y="-170" font-family="Ubuntu-R" font-size="10.00">forcebalance.finite</text>
<text text-anchor="middle" x="633" y="-157" font-family="Ubuntu-R" font-size="10.00">_difference.in_fd</text>
</a>
</g>
<!-- Node2&#45;&gt;Node4 -->
<g id="edge16" class="edge"><title>Node2&#45;&gt;Node4</title>
<path fill="none" stroke="midnightblue" d="M315.039,-138.042C329.705,-141.486 345.323,-144.739 360,-147 431.833,-158.067 515.302,-162.692 570.848,-164.622"/>
<polygon fill="midnightblue" stroke="midnightblue" points="570.777,-168.122 580.886,-164.952 571.007,-161.126 570.777,-168.122"/>
</g>
<!-- Node6 -->
<g id="node12" class="node"><title>Node6</title>
<a xlink:href="namespaceforcebalance_1_1nifty.html#abb8f59044961a12588e0653c2baa8b01" target="_top" xlink:title="forcebalance.nifty.warn\l_press_key">
<polygon fill="white" stroke="black" points="370.5,-52 370.5,-86 495.5,-86 495.5,-52 370.5,-52"/>
<text text-anchor="start" x="378.5" y="-73" font-family="Ubuntu-R" font-size="10.00">forcebalance.nifty.warn</text>
<text text-anchor="middle" x="433" y="-60" font-family="Ubuntu-R" font-size="10.00">_press_key</text>
</a>
</g>
<!-- Node2&#45;&gt;Node6 -->
<g id="edge12" class="edge"><title>Node2&#45;&gt;Node6</title>
<path fill="none" stroke="midnightblue" d="M311.266,-103.973C327.986,-99.1697 346.327,-93.9005 363.585,-88.9424"/>
<polygon fill="midnightblue" stroke="midnightblue" points="364.956,-92.1902 373.601,-86.065 363.023,-85.4624 364.956,-92.1902"/>
</g>
<!-- Node3&#45;&gt;Node2 -->
<g id="edge6" class="edge"><title>Node3&#45;&gt;Node2</title>
<path fill="none" stroke="midnightblue" d="M359.712,-127.64C351.35,-127.748 342.786,-127.776 334.318,-127.725"/>
<polygon fill="midnightblue" stroke="midnightblue" points="334.09,-124.223 324.056,-127.624 334.021,-131.223 334.09,-124.223"/>
</g>
<!-- Node3&#45;&gt;Node4 -->
<g id="edge8" class="edge"><title>Node3&#45;&gt;Node4</title>
<path fill="none" stroke="midnightblue" d="M506.054,-137.437C527.342,-142.227 550.392,-147.413 570.934,-152.035"/>
<polygon fill="midnightblue" stroke="midnightblue" points="570.274,-155.474 580.798,-154.255 571.81,-148.645 570.274,-155.474"/>
</g>
<!-- Node5 -->
<g id="node10" class="node"><title>Node5</title>
<a xlink:href="namespaceforcebalance_1_1leastsq.html#a8e7ef329e27aff738bc91dd79bd2dd1c" target="_top" xlink:title="forcebalance.leastsq.Check\lBasis">
<polygon fill="white" stroke="black" points="559,-97 559,-131 707,-131 707,-97 559,-97"/>
<text text-anchor="start" x="567" y="-118" font-family="Ubuntu-R" font-size="10.00">forcebalance.leastsq.Check</text>
<text text-anchor="middle" x="633" y="-105" font-family="Ubuntu-R" font-size="10.00">Basis</text>
</a>
</g>
<!-- Node3&#45;&gt;Node5 -->
<g id="edge10" class="edge"><title>Node3&#45;&gt;Node5</title>
<path fill="none" stroke="midnightblue" d="M506.054,-118.443C519.882,-117.959 534.453,-117.449 548.597,-116.954"/>
<polygon fill="midnightblue" stroke="midnightblue" points="548.932,-120.445 558.804,-116.597 548.687,-113.449 548.932,-120.445"/>
</g>
<!-- Node7 -->
<g id="node14" class="node"><title>Node7</title>
<a xlink:href="namespaceforcebalance_1_1nifty.html#a2fc81730e7efa7d138dd86f733507bfc" target="_top" xlink:title="Similar to the bultin function map().">
<polygon fill="white" stroke="black" points="542.5,-57.5 542.5,-78.5 723.5,-78.5 723.5,-57.5 542.5,-57.5"/>
<text text-anchor="middle" x="633" y="-65.5" font-family="Ubuntu-R" font-size="10.00">forcebalance.nifty.concurrent_map</text>
</a>
</g>
<!-- Node6&#45;&gt;Node7 -->
<g id="edge14" class="edge"><title>Node6&#45;&gt;Node7</title>
<path fill="none" stroke="midnightblue" d="M495.733,-68.6863C507.278,-68.6286 519.596,-68.567 531.937,-68.5053"/>
<polygon fill="midnightblue" stroke="midnightblue" points="532.309,-72.0036 542.291,-68.4535 532.274,-65.0037 532.309,-72.0036"/>
</g>
<!-- Node9 -->
<g id="node19" class="node"><title>Node9</title>
<a xlink:href="classforcebalance_1_1psi4io_1_1RDVR3__Psi4.html#a70936cb704ab5df307013cc6aa5b85c8" target="_top" xlink:title="LPW 04&#45;17&#45;2013.">
<polygon fill="white" stroke="black" points="361.5,-0 361.5,-34 504.5,-34 504.5,-0 361.5,-0"/>
<text text-anchor="start" x="369.5" y="-21" font-family="Ubuntu-R" font-size="10.00">forcebalance.psi4io.RDVR3</text>
<text text-anchor="middle" x="433" y="-8" font-family="Ubuntu-R" font-size="10.00">_Psi4.get</text>
</a>
</g>
<!-- Node8&#45;&gt;Node9 -->
<g id="edge20" class="edge"><title>Node8&#45;&gt;Node9</title>
<path fill="none" stroke="midnightblue" d="M323.536,-32.7241C332.679,-31.4107 342.093,-30.0584 351.381,-28.7243"/>
<polygon fill="midnightblue" stroke="midnightblue" points="351.99,-32.1728 361.391,-27.2864 350.995,-25.2439 351.99,-32.1728"/>
</g>
</g>
</svg>
