<?xml version="1.0" encoding="UTF-8" standalone="no"?>
<!DOCTYPE svg PUBLIC "-//W3C//DTD SVG 1.1//EN"
 "http://www.w3.org/Graphics/SVG/1.1/DTD/svg11.dtd">
<!-- Generated by graphviz version 2.28.0 (20111219.2309)
 -->
<!-- Title: forcebalance.tinkerio.Moments_TINKER.prepare_temp_directory Pages: 1 -->
<svg width="2138pt" height="546pt"
 viewBox="0.00 0.00 2138.00 546.00" xmlns="http://www.w3.org/2000/svg" xmlns:xlink="http://www.w3.org/1999/xlink">
<g id="graph1" class="graph" transform="scale(1 1) rotate(0) translate(4 542)">
<title>forcebalance.tinkerio.Moments_TINKER.prepare_temp_directory</title>
<polygon fill="white" stroke="white" points="-4,5 -4,-542 2135,-542 2135,5 -4,5"/>
<!-- Node1 -->
<g id="node1" class="node"><title>Node1</title>
<polygon fill="#bfbfbf" stroke="black" points="0.5,-276 0.5,-306 173.5,-306 173.5,-276 0.5,-276"/>
<text text-anchor="start" x="8.5" y="-294" font-family="Ubuntu-R" font-size="10.00">forcebalance.tinkerio.Moments</text>
<text text-anchor="middle" x="87" y="-283" font-family="Ubuntu-R" font-size="10.00">_TINKER.prepare_temp_directory</text>
</g>
<!-- Node2 -->
<g id="node3" class="node"><title>Node2</title>
<a xlink:href="classforcebalance_1_1tinkerio_1_1Moments__TINKER.html#a325347296dd2854942dd4319c65103be" target="_top" xlink:title="forcebalance.tinkerio.Moments\l_TINKER.moments_driver">
<polygon fill="white" stroke="black" points="210,-276 210,-306 374,-306 374,-276 210,-276"/>
<text text-anchor="start" x="218" y="-294" font-family="Ubuntu-R" font-size="10.00">forcebalance.tinkerio.Moments</text>
<text text-anchor="middle" x="292" y="-283" font-family="Ubuntu-R" font-size="10.00">_TINKER.moments_driver</text>
</a>
</g>
<!-- Node1&#45;&gt;Node2 -->
<g id="edge2" class="edge"><title>Node1&#45;&gt;Node2</title>
<path fill="none" stroke="midnightblue" d="M173.502,-284.325C182.147,-284.243 190.95,-284.228 199.653,-284.28"/>
<polygon fill="midnightblue" stroke="midnightblue" points="199.777,-287.781 209.808,-284.372 199.84,-280.782 199.777,-287.781"/>
</g>
<!-- Node2&#45;&gt;Node1 -->
<g id="edge120" class="edge"><title>Node2&#45;&gt;Node1</title>
<path fill="none" stroke="midnightblue" d="M209.808,-297.628C201.224,-297.732 192.437,-297.77 183.708,-297.74"/>
<polygon fill="midnightblue" stroke="midnightblue" points="183.524,-294.239 173.502,-297.675 183.479,-301.239 183.524,-294.239"/>
</g>
<!-- Node3 -->
<g id="node5" class="node"><title>Node3</title>
<a xlink:href="classforcebalance_1_1tinkerio_1_1Moments__TINKER.html#a55fdabe19222bb5804724a8f0d550547" target="_top" xlink:title="forcebalance.tinkerio.Moments\l_TINKER.__init__">
<polygon fill="white" stroke="black" points="436,-392 436,-422 600,-422 600,-392 436,-392"/>
<text text-anchor="start" x="444" y="-410" font-family="Ubuntu-R" font-size="10.00">forcebalance.tinkerio.Moments</text>
<text text-anchor="middle" x="518" y="-399" font-family="Ubuntu-R" font-size="10.00">_TINKER.__init__</text>
</a>
</g>
<!-- Node2&#45;&gt;Node3 -->
<g id="edge4" class="edge"><title>Node2&#45;&gt;Node3</title>
<path fill="none" stroke="midnightblue" d="M314.752,-306.194C337.752,-321.868 375.419,-346.435 410,-364 427.47,-372.874 447.222,-381.248 464.958,-388.207"/>
<polygon fill="midnightblue" stroke="midnightblue" points="463.987,-391.584 474.576,-391.922 466.509,-385.054 463.987,-391.584"/>
</g>
<!-- Node10 -->
<g id="node19" class="node"><title>Node10</title>
<a xlink:href="classforcebalance_1_1abinitio_1_1AbInitio.html#a2d0f465f1988fd6bc611f7de4b59fd04" target="_top" xlink:title="Prepare the temporary directory, by default does nothing. ">
<polygon fill="white" stroke="black" points="439,-441 439,-471 597,-471 597,-441 439,-441"/>
<text text-anchor="start" x="447" y="-459" font-family="Ubuntu-R" font-size="10.00">forcebalance.abinitio.Ab</text>
<text text-anchor="middle" x="518" y="-448" font-family="Ubuntu-R" font-size="10.00">Initio.prepare_temp_directory</text>
</a>
</g>
<!-- Node2&#45;&gt;Node10 -->
<g id="edge18" class="edge"><title>Node2&#45;&gt;Node10</title>
<path fill="none" stroke="midnightblue" d="M301.313,-306.438C317.881,-335.647 357.948,-398.937 410,-431 416.086,-434.749 422.682,-437.936 429.51,-440.645"/>
<polygon fill="midnightblue" stroke="midnightblue" points="428.342,-443.945 438.936,-444.051 430.721,-437.361 428.342,-443.945"/>
</g>
<!-- Node11 -->
<g id="node21" class="node"><title>Node11</title>
<a xlink:href="classforcebalance_1_1amberio_1_1AbInitio__AMBER.html#a1d224b2406545021d839c6189a0a4cdb" target="_top" xlink:title="forcebalance.amberio.AbInitio\l_AMBER.prepare_temp_directory">
<polygon fill="white" stroke="black" points="431,-194 431,-224 605,-224 605,-194 431,-194"/>
<text text-anchor="start" x="439" y="-212" font-family="Ubuntu-R" font-size="10.00">forcebalance.amberio.AbInitio</text>
<text text-anchor="middle" x="518" y="-201" font-family="Ubuntu-R" font-size="10.00">_AMBER.prepare_temp_directory</text>
</a>
</g>
<!-- Node2&#45;&gt;Node11 -->
<g id="edge20" class="edge"><title>Node2&#45;&gt;Node11</title>
<path fill="none" stroke="midnightblue" d="M334.085,-275.96C371.307,-262.334 426.28,-242.21 466.237,-227.583"/>
<polygon fill="midnightblue" stroke="midnightblue" points="467.609,-230.808 475.797,-224.083 465.203,-224.234 467.609,-230.808"/>
</g>
<!-- Node15 -->
<g id="node30" class="node"><title>Node15</title>
<a xlink:href="classforcebalance_1_1gmxio_1_1AbInitio__GMX.html#ab2eac76585bdb8401812f0c8e465a44e" target="_top" xlink:title="forcebalance.gmxio.AbInitio\l_GMX.prepare_temp_directory">
<polygon fill="white" stroke="black" points="437,-499 437,-529 599,-529 599,-499 437,-499"/>
<text text-anchor="start" x="445" y="-517" font-family="Ubuntu-R" font-size="10.00">forcebalance.gmxio.AbInitio</text>
<text text-anchor="middle" x="518" y="-506" font-family="Ubuntu-R" font-size="10.00">_GMX.prepare_temp_directory</text>
</a>
</g>
<!-- Node2&#45;&gt;Node15 -->
<g id="edge30" class="edge"><title>Node2&#45;&gt;Node15</title>
<path fill="none" stroke="midnightblue" d="M298.118,-306.019C311.031,-341.662 348.365,-431.959 410,-480 417.725,-486.021 426.54,-490.989 435.72,-495.084"/>
<polygon fill="midnightblue" stroke="midnightblue" points="434.414,-498.331 444.994,-498.895 437.075,-491.857 434.414,-498.331"/>
</g>
<!-- Node17 -->
<g id="node34" class="node"><title>Node17</title>
<a xlink:href="classforcebalance_1_1gmxio_1_1Liquid__GMX.html#a499a65278055bae95d3789ed74f6dc60" target="_top" xlink:title="Prepare the temporary directory by copying in important files. ">
<polygon fill="white" stroke="black" points="437,-325 437,-355 599,-355 599,-325 437,-325"/>
<text text-anchor="start" x="445" y="-343" font-family="Ubuntu-R" font-size="10.00">forcebalance.gmxio.Liquid</text>
<text text-anchor="middle" x="518" y="-332" font-family="Ubuntu-R" font-size="10.00">_GMX.prepare_temp_directory</text>
</a>
</g>
<!-- Node2&#45;&gt;Node17 -->
<g id="edge34" class="edge"><title>Node2&#45;&gt;Node17</title>
<path fill="none" stroke="midnightblue" d="M361.73,-306.035C386.026,-311.349 413.533,-317.367 438.572,-322.844"/>
<polygon fill="midnightblue" stroke="midnightblue" points="437.883,-326.276 448.4,-324.994 439.379,-319.438 437.883,-326.276"/>
</g>
<!-- Node20 -->
<g id="node43" class="node"><title>Node20</title>
<a xlink:href="classforcebalance_1_1gmxio_1_1Interaction__GMX.html#a2dee88df57edbb437dbf69678038dd17" target="_top" xlink:title="forcebalance.gmxio.Interaction\l_GMX.prepare_temp_directory">
<polygon fill="white" stroke="black" points="436,-126 436,-156 600,-156 600,-126 436,-126"/>
<text text-anchor="start" x="444" y="-144" font-family="Ubuntu-R" font-size="10.00">forcebalance.gmxio.Interaction</text>
<text text-anchor="middle" x="518" y="-133" font-family="Ubuntu-R" font-size="10.00">_GMX.prepare_temp_directory</text>
</a>
</g>
<!-- Node2&#45;&gt;Node20 -->
<g id="edge46" class="edge"><title>Node2&#45;&gt;Node20</title>
<path fill="none" stroke="midnightblue" d="M306.383,-275.66C326.801,-253.031 367.826,-210.526 410,-184 425.229,-174.421 442.951,-166.269 459.539,-159.722"/>
<polygon fill="midnightblue" stroke="midnightblue" points="461.054,-162.89 469.148,-156.054 458.557,-156.35 461.054,-162.89"/>
</g>
<!-- Node35 -->
<g id="node77" class="node"><title>Node35</title>
<a xlink:href="classforcebalance_1_1gmxqpio_1_1Monomer__QTPIE.html#a0a859c87a87d4021e61ada64fdce4ebd" target="_top" xlink:title="forcebalance.gmxqpio.Monomer\l_QTPIE.prepare_temp_directory">
<polygon fill="white" stroke="black" points="432.5,-276 432.5,-306 603.5,-306 603.5,-276 432.5,-276"/>
<text text-anchor="start" x="440.5" y="-294" font-family="Ubuntu-R" font-size="10.00">forcebalance.gmxqpio.Monomer</text>
<text text-anchor="middle" x="518" y="-283" font-family="Ubuntu-R" font-size="10.00">_QTPIE.prepare_temp_directory</text>
</a>
</g>
<!-- Node2&#45;&gt;Node35 -->
<g id="edge84" class="edge"><title>Node2&#45;&gt;Node35</title>
<path fill="none" stroke="midnightblue" d="M374.186,-291C389.695,-291 406.058,-291 421.955,-291"/>
<polygon fill="midnightblue" stroke="midnightblue" points="422.321,-294.5 432.321,-291 422.321,-287.5 422.321,-294.5"/>
</g>
<!-- Node44 -->
<g id="node102" class="node"><title>Node44</title>
<a xlink:href="classforcebalance_1_1interaction_1_1Interaction.html#a7b5dea70b67d3b2c0449a7cea8b12bf4" target="_top" xlink:title="Prepare the temporary directory, by default does nothing. ">
<polygon fill="white" stroke="black" points="448.5,-66.5 448.5,-107.5 587.5,-107.5 587.5,-66.5 448.5,-66.5"/>
<text text-anchor="start" x="456.5" y="-95.5" font-family="Ubuntu-R" font-size="10.00">forcebalance.interaction.</text>
<text text-anchor="start" x="456.5" y="-84.5" font-family="Ubuntu-R" font-size="10.00">Interaction.prepare_temp</text>
<text text-anchor="middle" x="518" y="-73.5" font-family="Ubuntu-R" font-size="10.00">_directory</text>
</a>
</g>
<!-- Node2&#45;&gt;Node44 -->
<g id="edge116" class="edge"><title>Node2&#45;&gt;Node44</title>
<path fill="none" stroke="midnightblue" d="M298.722,-275.92C312.43,-241.886 350.493,-158.759 410,-116 418.676,-109.766 428.62,-104.872 438.874,-101.03"/>
<polygon fill="midnightblue" stroke="midnightblue" points="440.022,-104.336 448.351,-97.7889 437.757,-97.713 440.022,-104.336"/>
</g>
<!-- Node45 -->
<g id="node104" class="node"><title>Node45</title>
<a xlink:href="classforcebalance_1_1moments_1_1Moments.html#a0cf19932924e283f8b54fc1524446e4a" target="_top" xlink:title="Prepare the temporary directory. ">
<polygon fill="white" stroke="black" points="410,-18 410,-48 626,-48 626,-18 410,-18"/>
<text text-anchor="start" x="418" y="-36" font-family="Ubuntu-R" font-size="10.00">forcebalance.moments.Moments.prepare</text>
<text text-anchor="middle" x="518" y="-25" font-family="Ubuntu-R" font-size="10.00">_temp_directory</text>
</a>
</g>
<!-- Node2&#45;&gt;Node45 -->
<g id="edge118" class="edge"><title>Node2&#45;&gt;Node45</title>
<path fill="none" stroke="midnightblue" d="M295.886,-275.848C304.711,-233.875 335.414,-115.354 410,-57 411.631,-55.7243 413.316,-54.5136 415.048,-53.3648"/>
<polygon fill="midnightblue" stroke="midnightblue" points="417.18,-56.1738 424.065,-48.1212 413.661,-50.1226 417.18,-56.1738"/>
</g>
<!-- Node4 -->
<g id="node7" class="node"><title>Node4</title>
<a xlink:href="namespaceforcebalance_1_1nifty.html#ab182a9da2a2f42cf45942fbee6acf9b1" target="_top" xlink:title="forcebalance.nifty.LinkFile">
<polygon fill="white" stroke="black" points="679.5,-420.5 679.5,-439.5 816.5,-439.5 816.5,-420.5 679.5,-420.5"/>
<text text-anchor="middle" x="748" y="-427.5" font-family="Ubuntu-R" font-size="10.00">forcebalance.nifty.LinkFile</text>
</a>
</g>
<!-- Node3&#45;&gt;Node4 -->
<g id="edge6" class="edge"><title>Node3&#45;&gt;Node4</title>
<path fill="none" stroke="midnightblue" d="M600.026,-415.174C622.558,-417.447 646.971,-419.909 669.307,-422.163"/>
<polygon fill="midnightblue" stroke="midnightblue" points="669.109,-425.66 679.41,-423.182 669.811,-418.696 669.109,-425.66"/>
</g>
<!-- Node6 -->
<g id="node11" class="node"><title>Node6</title>
<a xlink:href="namespaceforcebalance_1_1tinkerio.html#a9cde7bd64c6f5286c1f33a39211d5a11" target="_top" xlink:title="Copies a TINKER .key file but changes the parameter keyword as necessary to reflect the ForceBalance ...">
<polygon fill="white" stroke="black" points="677,-459 677,-489 819,-489 819,-459 677,-459"/>
<text text-anchor="start" x="685" y="-477" font-family="Ubuntu-R" font-size="10.00">forcebalance.tinkerio.write</text>
<text text-anchor="middle" x="748" y="-466" font-family="Ubuntu-R" font-size="10.00">_key_with_prm</text>
</a>
</g>
<!-- Node3&#45;&gt;Node6 -->
<g id="edge10" class="edge"><title>Node3&#45;&gt;Node6</title>
<path fill="none" stroke="midnightblue" d="M592.688,-422.048C603.959,-424.971 615.372,-428.296 626,-432 642.709,-437.823 645.463,-442.707 662,-449 668.278,-451.389 674.888,-453.691 681.534,-455.865"/>
<polygon fill="midnightblue" stroke="midnightblue" points="680.672,-459.263 691.262,-458.955 682.791,-452.592 680.672,-459.263"/>
</g>
<!-- Node5 -->
<g id="node9" class="node"><title>Node5</title>
<a xlink:href="namespaceforcebalance_1_1nifty.html#a25efa4d501ad852a234721af18978f7e" target="_top" xlink:title="Remove the file if it exists (doesn&#39;t return an error). ">
<polygon fill="white" stroke="black" points="887,-415 887,-445 1027,-445 1027,-415 887,-415"/>
<text text-anchor="start" x="895" y="-433" font-family="Ubuntu-R" font-size="10.00">forcebalance.nifty.remove</text>
<text text-anchor="middle" x="957" y="-422" font-family="Ubuntu-R" font-size="10.00">_if_exists</text>
</a>
</g>
<!-- Node4&#45;&gt;Node5 -->
<g id="edge8" class="edge"><title>Node4&#45;&gt;Node5</title>
<path fill="none" stroke="midnightblue" d="M816.78,-430C835.857,-430 856.78,-430 876.477,-430"/>
<polygon fill="midnightblue" stroke="midnightblue" points="876.649,-433.5 886.649,-430 876.649,-426.5 876.649,-433.5"/>
</g>
<!-- Node7 -->
<g id="node13" class="node"><title>Node7</title>
<a xlink:href="namespaceforcebalance_1_1nifty.html#abb8f59044961a12588e0653c2baa8b01" target="_top" xlink:title="forcebalance.nifty.warn\l_press_key">
<polygon fill="white" stroke="black" points="894.5,-322 894.5,-352 1019.5,-352 1019.5,-322 894.5,-322"/>
<text text-anchor="start" x="902.5" y="-340" font-family="Ubuntu-R" font-size="10.00">forcebalance.nifty.warn</text>
<text text-anchor="middle" x="957" y="-329" font-family="Ubuntu-R" font-size="10.00">_press_key</text>
</a>
</g>
<!-- Node6&#45;&gt;Node7 -->
<g id="edge12" class="edge"><title>Node6&#45;&gt;Node7</title>
<path fill="none" stroke="midnightblue" d="M814.804,-458.958C821.545,-456.168 828.081,-452.877 834,-449 854.85,-435.343 852.193,-423.44 870,-406 887.747,-388.62 909.599,-371.13 926.835,-358.108"/>
<polygon fill="midnightblue" stroke="midnightblue" points="928.969,-360.882 934.887,-352.094 924.781,-355.274 928.969,-360.882"/>
</g>
<!-- Node9 -->
<g id="node17" class="node"><title>Node9</title>
<a xlink:href="namespaceforcebalance_1_1tinkerio.html#aa82c424420ad59b6a78b273d6c1fd469" target="_top" xlink:title="Performs in&#45;place modification of a TINKER .key file. ">
<polygon fill="white" stroke="black" points="870.5,-464.5 870.5,-483.5 1043.5,-483.5 1043.5,-464.5 870.5,-464.5"/>
<text text-anchor="middle" x="957" y="-471.5" font-family="Ubuntu-R" font-size="10.00">forcebalance.tinkerio.modify_key</text>
</a>
</g>
<!-- Node6&#45;&gt;Node9 -->
<g id="edge16" class="edge"><title>Node6&#45;&gt;Node9</title>
<path fill="none" stroke="midnightblue" d="M819.081,-474C832.294,-474 846.322,-474 860.165,-474"/>
<polygon fill="midnightblue" stroke="midnightblue" points="860.199,-477.5 870.199,-474 860.199,-470.5 860.199,-477.5"/>
</g>
<!-- Node8 -->
<g id="node15" class="node"><title>Node8</title>
<a xlink:href="namespaceforcebalance_1_1nifty.html#a2fc81730e7efa7d138dd86f733507bfc" target="_top" xlink:title="Similar to the bultin function map(). ">
<polygon fill="white" stroke="black" points="1080,-359.5 1080,-378.5 1262,-378.5 1262,-359.5 1080,-359.5"/>
<text text-anchor="middle" x="1171" y="-366.5" font-family="Ubuntu-R" font-size="10.00">forcebalance.nifty.concurrent_map</text>
</a>
</g>
<!-- Node7&#45;&gt;Node8 -->
<g id="edge14" class="edge"><title>Node7&#45;&gt;Node8</title>
<path fill="none" stroke="midnightblue" d="M1019.6,-346.299C1043.67,-349.932 1071.47,-354.127 1096.57,-357.916"/>
<polygon fill="midnightblue" stroke="midnightblue" points="1096.36,-361.424 1106.77,-359.456 1097.4,-354.502 1096.36,-361.424"/>
</g>
<!-- Node12 -->
<g id="node23" class="node"><title>Node12</title>
<a xlink:href="classforcebalance_1_1amberio_1_1AbInitio__AMBER.html#ad0fcc43d857471ee074361076c040ea5" target="_top" xlink:title="forcebalance.amberio.AbInitio\l_AMBER.energy_force_driver\l_all_external_">
<polygon fill="white" stroke="black" points="668.5,-155.5 668.5,-196.5 827.5,-196.5 827.5,-155.5 668.5,-155.5"/>
<text text-anchor="start" x="676.5" y="-184.5" font-family="Ubuntu-R" font-size="10.00">forcebalance.amberio.AbInitio</text>
<text text-anchor="start" x="676.5" y="-173.5" font-family="Ubuntu-R" font-size="10.00">_AMBER.energy_force_driver</text>
<text text-anchor="middle" x="748" y="-162.5" font-family="Ubuntu-R" font-size="10.00">_all_external_</text>
</a>
</g>
<!-- Node11&#45;&gt;Node12 -->
<g id="edge22" class="edge"><title>Node11&#45;&gt;Node12</title>
<path fill="none" stroke="midnightblue" d="M605.197,-196.524C622.485,-194.022 640.682,-191.388 658.061,-188.873"/>
<polygon fill="midnightblue" stroke="midnightblue" points="658.791,-192.304 668.186,-187.407 657.788,-185.376 658.791,-192.304"/>
</g>
<!-- Node12&#45;&gt;Node12 -->
<g id="edge28" class="edge"><title>Node12&#45;&gt;Node12</title>
<path fill="none" stroke="midnightblue" d="M709.609,-196.716C705.953,-205.984 718.75,-214 748,-214 765.824,-214 777.539,-211.023 783.144,-206.601"/>
<polygon fill="midnightblue" stroke="midnightblue" points="786.595,-207.309 786.391,-196.716 779.945,-205.125 786.595,-207.309"/>
</g>
<!-- Node13 -->
<g id="node25" class="node"><title>Node13</title>
<a xlink:href="namespaceforcebalance_1_1molecule.html#afe989ffd119568047fc8265b1d329a70" target="_top" xlink:title="Matches ANY number; it can be a decimal, scientific notation, integer, or what have you...">
<polygon fill="white" stroke="black" points="1298,-167.5 1298,-186.5 1454,-186.5 1454,-167.5 1298,-167.5"/>
<text text-anchor="middle" x="1376" y="-174.5" font-family="Ubuntu-R" font-size="10.00">forcebalance.molecule.isfloat</text>
</a>
</g>
<!-- Node12&#45;&gt;Node13 -->
<g id="edge24" class="edge"><title>Node12&#45;&gt;Node13</title>
<path fill="none" stroke="midnightblue" d="M827.754,-174.51C841.822,-174.297 856.344,-174.113 870,-174 1044.22,-172.56 1087.79,-171.688 1262,-174 1270.32,-174.11 1278.99,-174.267 1287.65,-174.45"/>
<polygon fill="midnightblue" stroke="midnightblue" points="1287.73,-177.953 1297.81,-174.678 1287.89,-170.955 1287.73,-177.953"/>
</g>
<!-- Node14 -->
<g id="node27" class="node"><title>Node14</title>
<a xlink:href="classforcebalance_1_1amberio_1_1AbInitio__AMBER.html#a64ccf943e550392c654ec7bb6c6ff81b" target="_top" xlink:title="forcebalance.amberio.AbInitio\l_AMBER.energy_force_driver_all">
<polygon fill="white" stroke="black" points="872.5,-184 872.5,-214 1041.5,-214 1041.5,-184 872.5,-184"/>
<text text-anchor="start" x="880.5" y="-202" font-family="Ubuntu-R" font-size="10.00">forcebalance.amberio.AbInitio</text>
<text text-anchor="middle" x="957" y="-191" font-family="Ubuntu-R" font-size="10.00">_AMBER.energy_force_driver_all</text>
</a>
</g>
<!-- Node12&#45;&gt;Node14 -->
<g id="edge26" class="edge"><title>Node12&#45;&gt;Node14</title>
<path fill="none" stroke="midnightblue" d="M827.553,-184.728C838.876,-185.986 850.622,-187.291 862.205,-188.578"/>
<polygon fill="midnightblue" stroke="midnightblue" points="862.002,-192.077 872.327,-189.703 862.775,-185.12 862.002,-192.077"/>
</g>
<!-- Node16 -->
<g id="node32" class="node"><title>Node16</title>
<a xlink:href="classforcebalance_1_1gmxio_1_1AbInitio__GMX.html#a6e43c323b2286c546ff8afd3377f8808" target="_top" xlink:title="Computes the energy and force using GROMACS for a trajectory. ">
<polygon fill="white" stroke="black" points="669.5,-508 669.5,-538 826.5,-538 826.5,-508 669.5,-508"/>
<text text-anchor="start" x="677.5" y="-526" font-family="Ubuntu-R" font-size="10.00">forcebalance.gmxio.AbInitio</text>
<text text-anchor="middle" x="748" y="-515" font-family="Ubuntu-R" font-size="10.00">_GMX.energy_force_driver_all</text>
</a>
</g>
<!-- Node15&#45;&gt;Node16 -->
<g id="edge32" class="edge"><title>Node15&#45;&gt;Node16</title>
<path fill="none" stroke="midnightblue" d="M599.064,-517.16C618.513,-517.928 639.412,-518.753 659.199,-519.534"/>
<polygon fill="midnightblue" stroke="midnightblue" points="659.3,-523.041 669.431,-519.938 659.576,-516.046 659.3,-523.041"/>
</g>
<!-- Node17&#45;&gt;Node4 -->
<g id="edge36" class="edge"><title>Node17&#45;&gt;Node4</title>
<path fill="none" stroke="midnightblue" d="M563.933,-355.068C583.539,-362.393 606.461,-371.999 626,-383 643.427,-392.813 643.882,-401.53 662,-410 668.182,-412.89 674.818,-415.382 681.558,-417.527"/>
<polygon fill="midnightblue" stroke="midnightblue" points="680.884,-420.976 691.465,-420.426 682.851,-414.258 680.884,-420.976"/>
</g>
<!-- Node18 -->
<g id="node37" class="node"><title>Node18</title>
<a xlink:href="classforcebalance_1_1gmxio_1_1Liquid__GMX.html#a70a950655df19e6ed0365ba873fd0cc5" target="_top" xlink:title="forcebalance.gmxio.Liquid\l_GMX.polarization_correction">
<polygon fill="white" stroke="black" points="670.5,-322 670.5,-352 825.5,-352 825.5,-322 670.5,-322"/>
<text text-anchor="start" x="678.5" y="-340" font-family="Ubuntu-R" font-size="10.00">forcebalance.gmxio.Liquid</text>
<text text-anchor="middle" x="748" y="-329" font-family="Ubuntu-R" font-size="10.00">_GMX.polarization_correction</text>
</a>
</g>
<!-- Node17&#45;&gt;Node18 -->
<g id="edge38" class="edge"><title>Node17&#45;&gt;Node18</title>
<path fill="none" stroke="midnightblue" d="M599.064,-332.47C618.822,-331.883 640.076,-331.57 660.14,-331.566"/>
<polygon fill="midnightblue" stroke="midnightblue" points="660.186,-335.066 670.194,-331.591 660.203,-328.066 660.186,-335.066"/>
</g>
<!-- Node19 -->
<g id="node41" class="node"><title>Node19</title>
<a xlink:href="classforcebalance_1_1gmxio_1_1Liquid__GMX.html#a858330327e84a1186b9a932fe2437489" target="_top" xlink:title="forcebalance.gmxio.Liquid\l_GMX.__init__">
<polygon fill="white" stroke="black" points="677.5,-371 677.5,-401 818.5,-401 818.5,-371 677.5,-371"/>
<text text-anchor="start" x="685.5" y="-389" font-family="Ubuntu-R" font-size="10.00">forcebalance.gmxio.Liquid</text>
<text text-anchor="middle" x="748" y="-378" font-family="Ubuntu-R" font-size="10.00">_GMX.__init__</text>
</a>
</g>
<!-- Node17&#45;&gt;Node19 -->
<g id="edge44" class="edge"><title>Node17&#45;&gt;Node19</title>
<path fill="none" stroke="midnightblue" d="M593.656,-355.062C617.179,-359.808 643.249,-365.068 667.121,-369.884"/>
<polygon fill="midnightblue" stroke="midnightblue" points="666.708,-373.371 677.203,-371.918 668.093,-366.51 666.708,-373.371"/>
</g>
<!-- Node18&#45;&gt;Node7 -->
<g id="edge42" class="edge"><title>Node18&#45;&gt;Node7</title>
<path fill="none" stroke="midnightblue" d="M825.785,-337C844.901,-337 865.322,-337 884.188,-337"/>
<polygon fill="midnightblue" stroke="midnightblue" points="884.193,-340.5 894.193,-337 884.193,-333.5 884.193,-340.5"/>
</g>
<!-- Node18&#45;&gt;Node17 -->
<g id="edge40" class="edge"><title>Node18&#45;&gt;Node17</title>
<path fill="none" stroke="midnightblue" d="M670.194,-344.431C650.61,-345.048 629.38,-345.393 609.193,-345.431"/>
<polygon fill="midnightblue" stroke="midnightblue" points="609.066,-341.931 599.064,-345.423 609.061,-348.931 609.066,-341.931"/>
</g>
<!-- Node21 -->
<g id="node45" class="node"><title>Node21</title>
<a xlink:href="classforcebalance_1_1gmxio_1_1Interaction__GMX.html#a8ce5c501d7ca8ae08ee2f5c21a67e0fc" target="_top" xlink:title="Computes the energy and force using GROMACS for a single snapshot. ">
<polygon fill="white" stroke="black" points="666,-107 666,-137 830,-137 830,-107 666,-107"/>
<text text-anchor="start" x="674" y="-125" font-family="Ubuntu-R" font-size="10.00">forcebalance.gmxio.Interaction</text>
<text text-anchor="middle" x="748" y="-114" font-family="Ubuntu-R" font-size="10.00">_GMX.interaction_driver</text>
</a>
</g>
<!-- Node20&#45;&gt;Node21 -->
<g id="edge48" class="edge"><title>Node20&#45;&gt;Node21</title>
<path fill="none" stroke="midnightblue" d="M600.026,-134.248C618.062,-132.745 637.302,-131.142 655.717,-129.607"/>
<polygon fill="midnightblue" stroke="midnightblue" points="656.176,-133.081 665.851,-128.762 655.595,-126.105 656.176,-133.081"/>
</g>
<!-- Node22 -->
<g id="node47" class="node"><title>Node22</title>
<a xlink:href="classforcebalance_1_1gmxio_1_1Interaction__GMX.html#a5bac92638e1962f1ccbe189f4e20898b" target="_top" xlink:title="Computes the energy and force using GROMACS for a trajectory. ">
<polygon fill="white" stroke="black" points="666,-58 666,-88 830,-88 830,-58 666,-58"/>
<text text-anchor="start" x="674" y="-76" font-family="Ubuntu-R" font-size="10.00">forcebalance.gmxio.Interaction</text>
<text text-anchor="middle" x="748" y="-65" font-family="Ubuntu-R" font-size="10.00">_GMX.interaction_driver_all</text>
</a>
</g>
<!-- Node20&#45;&gt;Node22 -->
<g id="edge50" class="edge"><title>Node20&#45;&gt;Node22</title>
<path fill="none" stroke="midnightblue" d="M594.27,-125.989C605.052,-123.097 615.903,-119.772 626,-116 642.947,-109.668 645.202,-103.717 662,-97 667.072,-94.9717 672.379,-93.0432 677.756,-91.2259"/>
<polygon fill="midnightblue" stroke="midnightblue" points="679.042,-94.4885 687.477,-88.0774 676.885,-87.8291 679.042,-94.4885"/>
</g>
<!-- Node34 -->
<g id="node75" class="node"><title>Node34</title>
<a xlink:href="namespaceforcebalance_1_1gmxio.html#acac8488f29b62fb0d4cb54bb5a041026" target="_top" xlink:title="forcebalance.gmxio.rm\l_gmx_baks">
<polygon fill="white" stroke="black" points="684.5,-9 684.5,-39 811.5,-39 811.5,-9 684.5,-9"/>
<text text-anchor="start" x="692.5" y="-27" font-family="Ubuntu-R" font-size="10.00">forcebalance.gmxio.rm</text>
<text text-anchor="middle" x="748" y="-16" font-family="Ubuntu-R" font-size="10.00">_gmx_baks</text>
</a>
</g>
<!-- Node20&#45;&gt;Node34 -->
<g id="edge82" class="edge"><title>Node20&#45;&gt;Node34</title>
<path fill="none" stroke="midnightblue" d="M600.129,-130.008C609.413,-126.505 618.295,-121.94 626,-116 653.084,-95.1226 635.4,-69.4902 662,-48 665.998,-44.7703 670.405,-41.9749 675.047,-39.5554"/>
<polygon fill="midnightblue" stroke="midnightblue" points="676.586,-42.7005 684.217,-35.3507 673.668,-36.3376 676.586,-42.7005"/>
</g>
<!-- Node22&#45;&gt;Node7 -->
<g id="edge54" class="edge"><title>Node22&#45;&gt;Node7</title>
<path fill="none" stroke="midnightblue" d="M823.451,-88.2091C827.304,-90.7202 830.869,-93.63 834,-97 888.346,-155.491 827.157,-205.626 870,-273 881.481,-291.055 899.993,-305.8 916.906,-316.567"/>
<polygon fill="midnightblue" stroke="midnightblue" points="915.197,-319.624 925.56,-321.832 918.836,-313.644 915.197,-319.624"/>
</g>
<!-- Node23 -->
<g id="node49" class="node"><title>Node23</title>
<a xlink:href="namespaceforcebalance_1_1nifty.html#ac37d4fe58ef70ed546ebfc45d12f7a5d" target="_top" xlink:title="forcebalance.nifty.getWork\lQueue">
<polygon fill="white" stroke="black" points="886.5,-9 886.5,-39 1027.5,-39 1027.5,-9 886.5,-9"/>
<text text-anchor="start" x="894.5" y="-27" font-family="Ubuntu-R" font-size="10.00">forcebalance.nifty.getWork</text>
<text text-anchor="middle" x="957" y="-16" font-family="Ubuntu-R" font-size="10.00">Queue</text>
</a>
</g>
<!-- Node22&#45;&gt;Node23 -->
<g id="edge52" class="edge"><title>Node22&#45;&gt;Node23</title>
<path fill="none" stroke="midnightblue" d="M812.514,-57.9654C834.668,-52.7211 859.711,-46.7931 882.602,-41.3745"/>
<polygon fill="midnightblue" stroke="midnightblue" points="883.682,-44.7156 892.607,-39.0062 882.069,-37.9039 883.682,-44.7156"/>
</g>
<!-- Node24 -->
<g id="node52" class="node"><title>Node24</title>
<a xlink:href="namespaceforcebalance_1_1qchemio.html#a067c1b4f6695fc5dc20b5de66114bb7f" target="_top" xlink:title="forcebalance.qchemio.QChem\l_Dielectric_Energy">
<polygon fill="white" stroke="black" points="876.5,-58 876.5,-88 1037.5,-88 1037.5,-58 876.5,-58"/>
<text text-anchor="start" x="884.5" y="-76" font-family="Ubuntu-R" font-size="10.00">forcebalance.qchemio.QChem</text>
<text text-anchor="middle" x="957" y="-65" font-family="Ubuntu-R" font-size="10.00">_Dielectric_Energy</text>
</a>
</g>
<!-- Node22&#45;&gt;Node24 -->
<g id="edge56" class="edge"><title>Node22&#45;&gt;Node24</title>
<path fill="none" stroke="midnightblue" d="M830.218,-73C842.075,-73 854.342,-73 866.356,-73"/>
<polygon fill="midnightblue" stroke="midnightblue" points="866.373,-76.5001 876.373,-73 866.373,-69.5001 866.373,-76.5001"/>
</g>
<!-- Node25 -->
<g id="node54" class="node"><title>Node25</title>
<a xlink:href="namespaceforcebalance_1_1nifty.html#ad432b88307e1178b0690c0d350b1af36" target="_top" xlink:title="forcebalance.nifty.GoInto">
<polygon fill="white" stroke="black" points="1666,-0.5 1666,-19.5 1800,-19.5 1800,-0.5 1666,-0.5"/>
<text text-anchor="middle" x="1733" y="-7.5" font-family="Ubuntu-R" font-size="10.00">forcebalance.nifty.GoInto</text>
</a>
</g>
<!-- Node24&#45;&gt;Node25 -->
<g id="edge58" class="edge"><title>Node24&#45;&gt;Node25</title>
<path fill="none" stroke="midnightblue" d="M1010.86,-57.9861C1021.83,-54.769 1033.31,-51.3332 1044,-48 1060.1,-42.9785 1063.45,-39.2273 1080,-36 1285.22,4.00793 1533.42,-0.157306 1655.96,-5.5975"/>
<polygon fill="midnightblue" stroke="midnightblue" points="1655.84,-9.09573 1665.99,-6.05838 1656.16,-2.1031 1655.84,-9.09573"/>
</g>
<!-- Node26 -->
<g id="node56" class="node"><title>Node26</title>
<a xlink:href="namespaceforcebalance_1_1nifty.html#a673f4a044169f5d8d822823989a836a7" target="_top" xlink:title="Submit a job to the Work Queue. ">
<polygon fill="white" stroke="black" points="1096,-63.5 1096,-82.5 1246,-82.5 1246,-63.5 1096,-63.5"/>
<text text-anchor="middle" x="1171" y="-70.5" font-family="Ubuntu-R" font-size="10.00">forcebalance.nifty.queue_up</text>
</a>
</g>
<!-- Node24&#45;&gt;Node26 -->
<g id="edge60" class="edge"><title>Node24&#45;&gt;Node26</title>
<path fill="none" stroke="midnightblue" d="M1037.54,-73C1053.25,-73 1069.79,-73 1085.65,-73"/>
<polygon fill="midnightblue" stroke="midnightblue" points="1085.97,-76.5001 1095.97,-73 1085.97,-69.5001 1085.97,-76.5001"/>
</g>
<!-- Node28 -->
<g id="node60" class="node"><title>Node28</title>
<a xlink:href="namespaceforcebalance_1_1nifty.html#a576de8c5b6f236280e07e73e39b2ab7c" target="_top" xlink:title="This function waits until the work queue is completely empty. ">
<polygon fill="white" stroke="black" points="1490,-19.5 1490,-38.5 1630,-38.5 1630,-19.5 1490,-19.5"/>
<text text-anchor="middle" x="1560" y="-26.5" font-family="Ubuntu-R" font-size="10.00">forcebalance.nifty.wq_wait</text>
</a>
</g>
<!-- Node24&#45;&gt;Node28 -->
<g id="edge80" class="edge"><title>Node24&#45;&gt;Node28</title>
<path fill="none" stroke="midnightblue" d="M1037.58,-59.4044C1051.68,-57.3395 1066.25,-55.426 1080,-54 1220.25,-39.4571 1384.53,-33.2151 1479.69,-30.6555"/>
<polygon fill="midnightblue" stroke="midnightblue" points="1479.91,-34.1511 1489.82,-30.3901 1479.73,-27.1535 1479.91,-34.1511"/>
</g>
<!-- Node33 -->
<g id="node71" class="node"><title>Node33</title>
<a xlink:href="namespaceforcebalance_1_1nifty.html#ab04e8690d099db2379dc860e0d040120" target="_top" xlink:title="forcebalance.nifty.Leave">
<polygon fill="white" stroke="black" points="1667.5,-105.5 1667.5,-124.5 1798.5,-124.5 1798.5,-105.5 1667.5,-105.5"/>
<text text-anchor="middle" x="1733" y="-112.5" font-family="Ubuntu-R" font-size="10.00">forcebalance.nifty.Leave</text>
</a>
</g>
<!-- Node24&#45;&gt;Node33 -->
<g id="edge78" class="edge"><title>Node24&#45;&gt;Node33</title>
<path fill="none" stroke="midnightblue" d="M1037.56,-86.7905C1051.66,-88.8342 1066.24,-90.6902 1080,-92 1288.17,-111.81 1535.18,-115.009 1656.75,-115.253"/>
<polygon fill="midnightblue" stroke="midnightblue" points="1657.05,-118.754 1667.05,-115.267 1657.06,-111.754 1657.05,-118.754"/>
</g>
<!-- Node27 -->
<g id="node58" class="node"><title>Node27</title>
<a xlink:href="namespaceforcebalance_1_1nifty.html#a374aac2ef003be02fab49b20ff0a82f0" target="_top" xlink:title="This function waits ten seconds to see if a task in the Work Queue has finished. ">
<polygon fill="white" stroke="black" points="1318,-58 1318,-88 1434,-88 1434,-58 1318,-58"/>
<text text-anchor="start" x="1326" y="-76" font-family="Ubuntu-R" font-size="10.00">forcebalance.nifty.wq</text>
<text text-anchor="middle" x="1376" y="-65" font-family="Ubuntu-R" font-size="10.00">_wait1</text>
</a>
</g>
<!-- Node26&#45;&gt;Node27 -->
<g id="edge62" class="edge"><title>Node26&#45;&gt;Node27</title>
<path fill="none" stroke="midnightblue" d="M1246.15,-73C1266.31,-73 1288.02,-73 1307.77,-73"/>
<polygon fill="midnightblue" stroke="midnightblue" points="1307.9,-76.5001 1317.9,-73 1307.9,-69.5001 1307.9,-76.5001"/>
</g>
<!-- Node27&#45;&gt;Node28 -->
<g id="edge64" class="edge"><title>Node27&#45;&gt;Node28</title>
<path fill="none" stroke="midnightblue" d="M1434.09,-59.1988C1458.33,-53.3372 1486.33,-46.5693 1509.66,-40.9281"/>
<polygon fill="midnightblue" stroke="midnightblue" points="1510.79,-44.2563 1519.69,-38.5044 1509.14,-37.4523 1510.79,-44.2563"/>
</g>
<!-- Node29 -->
<g id="node63" class="node"><title>Node29</title>
<a xlink:href="namespaceforcebalance_1_1nifty.html#ab5417ad84c6c760965cd195c6c387914" target="_top" xlink:title="forcebalance.nifty.onefile">
<polygon fill="white" stroke="black" points="1493,-66.5 1493,-85.5 1627,-85.5 1627,-66.5 1493,-66.5"/>
<text text-anchor="middle" x="1560" y="-73.5" font-family="Ubuntu-R" font-size="10.00">forcebalance.nifty.onefile</text>
</a>
</g>
<!-- Node27&#45;&gt;Node29 -->
<g id="edge68" class="edge"><title>Node27&#45;&gt;Node29</title>
<path fill="none" stroke="midnightblue" d="M1434.09,-73.941C1449.54,-74.1957 1466.52,-74.4755 1482.84,-74.7446"/>
<polygon fill="midnightblue" stroke="midnightblue" points="1482.84,-78.245 1492.89,-74.9104 1482.95,-71.2459 1482.84,-78.245"/>
</g>
<!-- Node28&#45;&gt;Node25 -->
<g id="edge66" class="edge"><title>Node28&#45;&gt;Node25</title>
<path fill="none" stroke="midnightblue" d="M1630.06,-21.3267C1638.52,-20.3866 1647.2,-19.4217 1655.76,-18.4707"/>
<polygon fill="midnightblue" stroke="midnightblue" points="1656.18,-21.946 1665.73,-17.363 1655.41,-14.9888 1656.18,-21.946"/>
</g>
<!-- Node30 -->
<g id="node65" class="node"><title>Node30</title>
<a xlink:href="namespaceforcebalance_1_1nifty.html#ac9ab6c5543a2e3080061e0024850edf3" target="_top" xlink:title="forcebalance.nifty.allsplit">
<polygon fill="white" stroke="black" points="1666.5,-66.5 1666.5,-85.5 1799.5,-85.5 1799.5,-66.5 1666.5,-66.5"/>
<text text-anchor="middle" x="1733" y="-73.5" font-family="Ubuntu-R" font-size="10.00">forcebalance.nifty.allsplit</text>
</a>
</g>
<!-- Node29&#45;&gt;Node30 -->
<g id="edge70" class="edge"><title>Node29&#45;&gt;Node30</title>
<path fill="none" stroke="midnightblue" d="M1627.11,-76C1636.67,-76 1646.57,-76 1656.29,-76"/>
<polygon fill="midnightblue" stroke="midnightblue" points="1656.34,-79.5001 1666.34,-76 1656.34,-72.5001 1656.34,-79.5001"/>
</g>
<!-- Node29&#45;&gt;Node33 -->
<g id="edge76" class="edge"><title>Node29&#45;&gt;Node33</title>
<path fill="none" stroke="midnightblue" d="M1602.83,-85.5405C1626.21,-90.872 1655.54,-97.5613 1680.34,-103.218"/>
<polygon fill="midnightblue" stroke="midnightblue" points="1679.78,-106.679 1690.3,-105.491 1681.33,-99.8545 1679.78,-106.679"/>
</g>
<!-- Node31 -->
<g id="node67" class="node"><title>Node31</title>
<a xlink:href="namespaceforcebalance_1_1nifty.html#ae87c7def5f8edf2ec30737bdb1d2636f" target="_top" xlink:title="forcebalance.nifty.Missing\lFileInspection">
<polygon fill="white" stroke="black" points="1836,-61 1836,-91 1974,-91 1974,-61 1836,-61"/>
<text text-anchor="start" x="1844" y="-79" font-family="Ubuntu-R" font-size="10.00">forcebalance.nifty.Missing</text>
<text text-anchor="middle" x="1905" y="-68" font-family="Ubuntu-R" font-size="10.00">FileInspection</text>
</a>
</g>
<!-- Node30&#45;&gt;Node31 -->
<g id="edge72" class="edge"><title>Node30&#45;&gt;Node31</title>
<path fill="none" stroke="midnightblue" d="M1799.73,-76C1808.26,-76 1817.06,-76 1825.76,-76"/>
<polygon fill="midnightblue" stroke="midnightblue" points="1825.92,-79.5001 1835.92,-76 1825.92,-72.5001 1825.92,-79.5001"/>
</g>
<!-- Node32 -->
<g id="node69" class="node"><title>Node32</title>
<a xlink:href="namespaceforcebalance_1_1nifty.html#a0cf4e58f90acf20e3d6224be2354082c" target="_top" xlink:title="forcebalance.nifty.link\l_dir_contents">
<polygon fill="white" stroke="black" points="2010.5,-61 2010.5,-91 2129.5,-91 2129.5,-61 2010.5,-61"/>
<text text-anchor="start" x="2018.5" y="-79" font-family="Ubuntu-R" font-size="10.00">forcebalance.nifty.link</text>
<text text-anchor="middle" x="2070" y="-68" font-family="Ubuntu-R" font-size="10.00">_dir_contents</text>
</a>
</g>
<!-- Node31&#45;&gt;Node32 -->
<g id="edge74" class="edge"><title>Node31&#45;&gt;Node32</title>
<path fill="none" stroke="midnightblue" d="M1974.18,-76C1982.84,-76 1991.69,-76 2000.35,-76"/>
<polygon fill="midnightblue" stroke="midnightblue" points="2000.41,-79.5001 2010.41,-76 2000.41,-72.5001 2000.41,-79.5001"/>
</g>
<!-- Node35&#45;&gt;Node4 -->
<g id="edge88" class="edge"><title>Node35&#45;&gt;Node4</title>
<path fill="none" stroke="midnightblue" d="M603.527,-302.224C611.696,-305.729 619.387,-310.232 626,-316 659.713,-345.407 628.31,-380.566 662,-410 664.569,-412.244 667.343,-414.248 670.266,-416.037"/>
<polygon fill="midnightblue" stroke="midnightblue" points="668.937,-419.291 679.426,-420.784 672.157,-413.076 668.937,-419.291"/>
</g>
<!-- Node35&#45;&gt;Node7 -->
<g id="edge86" class="edge"><title>Node35&#45;&gt;Node7</title>
<path fill="none" stroke="midnightblue" d="M603.517,-294.045C667.107,-297.028 756.288,-302.683 834,-313 850.392,-315.176 867.897,-318.199 884.382,-321.367"/>
<polygon fill="midnightblue" stroke="midnightblue" points="884.009,-324.86 894.496,-323.351 885.357,-317.991 884.009,-324.86"/>
</g>
<!-- Node36 -->
<g id="node81" class="node"><title>Node36</title>
<a xlink:href="classforcebalance_1_1gmxqpio_1_1Monomer__QTPIE.html#ac227bf1f1ed6d579fea2eeda64c389cb" target="_top" xlink:title="forcebalance.gmxqpio.Monomer\l_QTPIE.unpack_moments">
<polygon fill="white" stroke="black" points="662.5,-234 662.5,-264 833.5,-264 833.5,-234 662.5,-234"/>
<text text-anchor="start" x="670.5" y="-252" font-family="Ubuntu-R" font-size="10.00">forcebalance.gmxqpio.Monomer</text>
<text text-anchor="middle" x="748" y="-241" font-family="Ubuntu-R" font-size="10.00">_QTPIE.unpack_moments</text>
</a>
</g>
<!-- Node35&#45;&gt;Node36 -->
<g id="edge90" class="edge"><title>Node35&#45;&gt;Node36</title>
<path fill="none" stroke="midnightblue" d="M600.669,-275.956C618.458,-272.679 637.392,-269.191 655.533,-265.849"/>
<polygon fill="midnightblue" stroke="midnightblue" points="656.318,-269.264 665.518,-264.01 655.049,-262.379 656.318,-269.264"/>
</g>
<!-- Node37 -->
<g id="node83" class="node"><title>Node37</title>
<a xlink:href="classforcebalance_1_1gmxqpio_1_1Monomer__QTPIE.html#a46144411b5166a1839bf954b584ca3a7" target="_top" xlink:title="forcebalance.gmxqpio.Monomer\l_QTPIE.get">
<polygon fill="white" stroke="black" points="871.5,-234 871.5,-264 1042.5,-264 1042.5,-234 871.5,-234"/>
<text text-anchor="start" x="879.5" y="-252" font-family="Ubuntu-R" font-size="10.00">forcebalance.gmxqpio.Monomer</text>
<text text-anchor="middle" x="957" y="-241" font-family="Ubuntu-R" font-size="10.00">_QTPIE.get</text>
</a>
</g>
<!-- Node36&#45;&gt;Node37 -->
<g id="edge92" class="edge"><title>Node36&#45;&gt;Node37</title>
<path fill="none" stroke="midnightblue" d="M833.792,-242.349C842.797,-242.253 851.997,-242.227 861.107,-242.271"/>
<polygon fill="midnightblue" stroke="midnightblue" points="861.313,-245.772 871.34,-242.35 861.367,-238.773 861.313,-245.772"/>
</g>
<!-- Node37&#45;&gt;Node36 -->
<g id="edge98" class="edge"><title>Node37&#45;&gt;Node36</title>
<path fill="none" stroke="midnightblue" d="M871.34,-255.65C862.337,-255.747 853.138,-255.773 844.026,-255.73"/>
<polygon fill="midnightblue" stroke="midnightblue" points="843.819,-252.228 833.792,-255.651 843.765,-259.228 843.819,-252.228"/>
</g>
<!-- Node38 -->
<g id="node85" class="node"><title>Node38</title>
<a xlink:href="namespaceforcebalance_1_1gmxqpio.html#a499ed366638eae7be524b18760a986b8" target="_top" xlink:title="forcebalance.gmxqpio.get\l_monomer_properties">
<polygon fill="white" stroke="black" points="1100.5,-184 1100.5,-214 1241.5,-214 1241.5,-184 1100.5,-184"/>
<text text-anchor="start" x="1108.5" y="-202" font-family="Ubuntu-R" font-size="10.00">forcebalance.gmxqpio.get</text>
<text text-anchor="middle" x="1171" y="-191" font-family="Ubuntu-R" font-size="10.00">_monomer_properties</text>
</a>
</g>
<!-- Node37&#45;&gt;Node38 -->
<g id="edge94" class="edge"><title>Node37&#45;&gt;Node38</title>
<path fill="none" stroke="midnightblue" d="M1021.61,-233.998C1045.08,-228.462 1071.88,-222.141 1096.18,-216.41"/>
<polygon fill="midnightblue" stroke="midnightblue" points="1097.14,-219.78 1106.07,-214.077 1095.54,-212.966 1097.14,-219.78"/>
</g>
<!-- Node39 -->
<g id="node89" class="node"><title>Node39</title>
<a xlink:href="namespaceforcebalance_1_1finite__difference.html#aa69a8819e4680091f400303c1d6ddeb7" target="_top" xlink:title="A three&#45;point finite difference stencil. ">
<polygon fill="white" stroke="black" points="1118.5,-272 1118.5,-302 1223.5,-302 1223.5,-272 1118.5,-272"/>
<text text-anchor="start" x="1126.5" y="-290" font-family="Ubuntu-R" font-size="10.00">forcebalance.finite</text>
<text text-anchor="middle" x="1171" y="-279" font-family="Ubuntu-R" font-size="10.00">_difference.f12d3p</text>
</a>
</g>
<!-- Node37&#45;&gt;Node39 -->
<g id="edge100" class="edge"><title>Node37&#45;&gt;Node39</title>
<path fill="none" stroke="midnightblue" d="M1041.79,-264.019C1063.97,-267.994 1087.51,-272.213 1108.28,-275.937"/>
<polygon fill="midnightblue" stroke="midnightblue" points="1107.78,-279.402 1118.24,-277.722 1109.01,-272.512 1107.78,-279.402"/>
</g>
<!-- Node40 -->
<g id="node91" class="node"><title>Node40</title>
<a xlink:href="namespaceforcebalance_1_1finite__difference.html#ad84d3e385db1190e7d8ef58bc08a6c52" target="_top" xlink:title="Invoking this function from anywhere will tell us whether we&#39;re being called by a finite&#45;difference f...">
<polygon fill="white" stroke="black" points="1324,-238 1324,-268 1428,-268 1428,-238 1324,-238"/>
<text text-anchor="start" x="1332" y="-256" font-family="Ubuntu-R" font-size="10.00">forcebalance.finite</text>
<text text-anchor="middle" x="1376" y="-245" font-family="Ubuntu-R" font-size="10.00">_difference.in_fd</text>
</a>
</g>
<!-- Node37&#45;&gt;Node40 -->
<g id="edge114" class="edge"><title>Node37&#45;&gt;Node40</title>
<path fill="none" stroke="midnightblue" d="M1042.64,-249.812C1123.07,-250.583 1242.09,-251.725 1313.74,-252.412"/>
<polygon fill="midnightblue" stroke="midnightblue" points="1313.92,-255.914 1323.95,-252.51 1313.99,-248.915 1313.92,-255.914"/>
</g>
<!-- Node41 -->
<g id="node93" class="node"><title>Node41</title>
<a xlink:href="namespaceforcebalance_1_1finite__difference.html#ae484c591ae8c4e5bae73a0ef2660c339" target="_top" xlink:title="A function wrapper for finite difference designed for differentiating &#39;get&#39;&#45;type functions. ">
<polygon fill="white" stroke="black" points="1324,-306 1324,-336 1428,-336 1428,-306 1324,-306"/>
<text text-anchor="start" x="1332" y="-324" font-family="Ubuntu-R" font-size="10.00">forcebalance.finite</text>
<text text-anchor="middle" x="1376" y="-313" font-family="Ubuntu-R" font-size="10.00">_difference.fdwrap</text>
</a>
</g>
<!-- Node37&#45;&gt;Node41 -->
<g id="edge112" class="edge"><title>Node37&#45;&gt;Node41</title>
<path fill="none" stroke="midnightblue" d="M980.191,-264.057C1003.77,-279.123 1042.73,-301.402 1080,-311 1158.81,-331.295 1253.37,-330.258 1313.81,-326.546"/>
<polygon fill="midnightblue" stroke="midnightblue" points="1314.2,-330.028 1323.94,-325.878 1313.74,-323.043 1314.2,-330.028"/>
</g>
<!-- Node38&#45;&gt;Node13 -->
<g id="edge96" class="edge"><title>Node38&#45;&gt;Node13</title>
<path fill="none" stroke="midnightblue" d="M1241.58,-191.46C1256.45,-189.847 1272.35,-188.125 1287.79,-186.451"/>
<polygon fill="midnightblue" stroke="midnightblue" points="1288.3,-189.917 1297.86,-185.36 1287.54,-182.958 1288.3,-189.917"/>
</g>
<!-- Node39&#45;&gt;Node40 -->
<g id="edge102" class="edge"><title>Node39&#45;&gt;Node40</title>
<path fill="none" stroke="midnightblue" d="M1223.75,-278.332C1251.18,-273.739 1285.04,-268.067 1313.77,-263.256"/>
<polygon fill="midnightblue" stroke="midnightblue" points="1314.41,-266.697 1323.7,-261.593 1313.25,-259.793 1314.41,-266.697"/>
</g>
<!-- Node39&#45;&gt;Node41 -->
<g id="edge104" class="edge"><title>Node39&#45;&gt;Node41</title>
<path fill="none" stroke="midnightblue" d="M1223.75,-295.668C1251.18,-300.261 1285.04,-305.933 1313.77,-310.744"/>
<polygon fill="midnightblue" stroke="midnightblue" points="1313.25,-314.207 1323.7,-312.407 1314.41,-307.303 1313.25,-314.207"/>
</g>
<!-- Node42 -->
<g id="node95" class="node"><title>Node42</title>
<a xlink:href="namespaceforcebalance_1_1finite__difference.html#a00322fb65860c390616f74d05037c797" target="_top" xlink:title="A driver to fdwrap for gradients (see documentation for fdwrap) Inputs: tgt = The Target containing t...">
<polygon fill="white" stroke="black" points="1502,-306 1502,-336 1618,-336 1618,-306 1502,-306"/>
<text text-anchor="start" x="1510" y="-324" font-family="Ubuntu-R" font-size="10.00">forcebalance.finite</text>
<text text-anchor="middle" x="1560" y="-313" font-family="Ubuntu-R" font-size="10.00">_difference.fdwrap_G</text>
</a>
</g>
<!-- Node41&#45;&gt;Node42 -->
<g id="edge106" class="edge"><title>Node41&#45;&gt;Node42</title>
<path fill="none" stroke="midnightblue" d="M1428.18,-314.861C1447.88,-314.216 1470.68,-314.082 1491.67,-314.457"/>
<polygon fill="midnightblue" stroke="midnightblue" points="1491.73,-317.959 1501.81,-314.682 1491.89,-310.961 1491.73,-317.959"/>
</g>
<!-- Node43 -->
<g id="node98" class="node"><title>Node43</title>
<a xlink:href="namespaceforcebalance_1_1finite__difference.html#a77a0bc1ae3cbbcc8d38a0ef9ca877d6d" target="_top" xlink:title="A driver to fdwrap for Hessians (see documentation for fdwrap) Inputs: tgt = The Target containing th...">
<polygon fill="white" stroke="black" points="1502,-257 1502,-287 1618,-287 1618,-257 1502,-257"/>
<text text-anchor="start" x="1510" y="-275" font-family="Ubuntu-R" font-size="10.00">forcebalance.finite</text>
<text text-anchor="middle" x="1560" y="-264" font-family="Ubuntu-R" font-size="10.00">_difference.fdwrap_H</text>
</a>
</g>
<!-- Node41&#45;&gt;Node43 -->
<g id="edge110" class="edge"><title>Node41&#45;&gt;Node43</title>
<path fill="none" stroke="midnightblue" d="M1428.18,-307.22C1448.42,-301.771 1471.94,-295.44 1493.4,-289.661"/>
<polygon fill="midnightblue" stroke="midnightblue" points="1494.35,-293.029 1503.1,-287.05 1492.53,-286.27 1494.35,-293.029"/>
</g>
<!-- Node42&#45;&gt;Node41 -->
<g id="edge108" class="edge"><title>Node42&#45;&gt;Node41</title>
<path fill="none" stroke="midnightblue" d="M1501.81,-327.318C1481.63,-327.857 1458.87,-327.892 1438.36,-327.421"/>
<polygon fill="midnightblue" stroke="midnightblue" points="1438.27,-323.918 1428.18,-327.139 1438.08,-330.915 1438.27,-323.918"/>
</g>
</g>
</svg>
