<?xml version="1.0" encoding="UTF-8" standalone="no"?>
<!DOCTYPE svg PUBLIC "-//W3C//DTD SVG 1.1//EN"
 "http://www.w3.org/Graphics/SVG/1.1/DTD/svg11.dtd">
<!-- Generated by graphviz version 2.32.0 (20130801.1845)
 -->
<!-- Title: forcebalance.optimizer.Optimizer.SinglePoint Pages: 1 -->
<svg width="1854pt" height="302pt"
 viewBox="0.00 0.00 1854.00 302.00" xmlns="http://www.w3.org/2000/svg" xmlns:xlink="http://www.w3.org/1999/xlink">
<g id="graph0" class="graph" transform="scale(1 1) rotate(0) translate(4 298)">
<title>forcebalance.optimizer.Optimizer.SinglePoint</title>
<polygon fill="white" stroke="white" points="-4,5 -4,-298 1851,-298 1851,5 -4,5"/>
<!-- Node1 -->
<g id="node1" class="node"><title>Node1</title>
<polygon fill="#bfbfbf" stroke="black" points="0.282,-96 0.282,-128 153.718,-128 153.718,-96 0.282,-96"/>
<text text-anchor="start" x="8.282" y="-115" font-family="Ubuntu-R" font-size="10.00">forcebalance.optimizer.Optimizer.</text>
<text text-anchor="middle" x="77" y="-103" font-family="Ubuntu-R" font-size="10.00">SinglePoint</text>
</g>
<!-- Node2 -->
<g id="node2" class="node"><title>Node2</title>
<g id="a_node2"><a xlink:href="classforcebalance_1_1optimizer_1_1Optimizer.html#aacf96d137fb0e491af7e380c8bd61eb9" target="_top" xlink:title="Finite&#45;difference checker for the objective function gradient.">
<polygon fill="white" stroke="black" points="190.282,-96 190.282,-128 343.718,-128 343.718,-96 190.282,-96"/>
<text text-anchor="start" x="198.282" y="-115" font-family="Ubuntu-R" font-size="10.00">forcebalance.optimizer.Optimizer.</text>
<text text-anchor="middle" x="267" y="-103" font-family="Ubuntu-R" font-size="10.00">FDCheckG</text>
</a>
</g>
</g>
<!-- Node1&#45;&gt;Node2 -->
<g id="edge1" class="edge"><title>Node1&#45;&gt;Node2</title>
<path fill="none" stroke="midnightblue" d="M153.925,-112C162.495,-112 171.273,-112 179.96,-112"/>
<polygon fill="midnightblue" stroke="midnightblue" points="180.097,-115.5 190.097,-112 180.097,-108.5 180.097,-115.5"/>
</g>
<!-- Node3 -->
<g id="node3" class="node"><title>Node3</title>
<g id="a_node3"><a xlink:href="namespaceforcebalance_1_1nifty.html#a11babd62dc7bca389162c6318f9672ca" target="_top" xlink:title="Cool&#45;looking printout for slick formatting of output.">
<polygon fill="white" stroke="black" points="380.469,-169 380.469,-189 507.531,-189 507.531,-169 380.469,-169"/>
<text text-anchor="middle" x="444" y="-176" font-family="Ubuntu-R" font-size="10.00">forcebalance.nifty.printcool</text>
</a>
</g>
</g>
<!-- Node2&#45;&gt;Node3 -->
<g id="edge2" class="edge"><title>Node2&#45;&gt;Node3</title>
<path fill="none" stroke="midnightblue" d="M309.917,-128.048C339.585,-139.407 378.954,-154.48 407.163,-165.279"/>
<polygon fill="midnightblue" stroke="midnightblue" points="406.05,-168.601 416.641,-168.908 408.553,-162.064 406.05,-168.601"/>
</g>
<!-- Node18 -->
<g id="node18" class="node"><title>Node18</title>
<g id="a_node18"><a xlink:href="namespaceforcebalance_1_1finite__difference.html#a123c5d5dea0f3f50ab57796bb3bc39be" target="_top" xlink:title="A highly accurate five&#45;point finite difference stencil for computing derivatives of a function...">
<polygon fill="white" stroke="black" points="398.662,-96 398.662,-128 489.338,-128 489.338,-96 398.662,-96"/>
<text text-anchor="start" x="406.662" y="-115" font-family="Ubuntu-R" font-size="10.00">forcebalance.finite</text>
<text text-anchor="middle" x="444" y="-103" font-family="Ubuntu-R" font-size="10.00">_difference.f1d5p</text>
</a>
</g>
</g>
<!-- Node2&#45;&gt;Node18 -->
<g id="edge22" class="edge"><title>Node2&#45;&gt;Node18</title>
<path fill="none" stroke="midnightblue" d="M343.74,-112C358.755,-112 374.241,-112 388.385,-112"/>
<polygon fill="midnightblue" stroke="midnightblue" points="388.421,-115.5 398.421,-112 388.421,-108.5 388.421,-115.5"/>
</g>
<!-- Node23 -->
<g id="node23" class="node"><title>Node23</title>
<g id="a_node23"><a xlink:href="namespaceforcebalance_1_1finite__difference.html#ae484c591ae8c4e5bae73a0ef2660c339" target="_top" xlink:title="A function wrapper for finite difference designed for differentiating &#39;get&#39;&#45;type functions.">
<polygon fill="white" stroke="black" points="1029.83,-51 1029.83,-83 1122.17,-83 1122.17,-51 1029.83,-51"/>
<text text-anchor="start" x="1037.83" y="-70" font-family="Ubuntu-R" font-size="10.00">forcebalance.finite</text>
<text text-anchor="middle" x="1076" y="-58" font-family="Ubuntu-R" font-size="10.00">_difference.fdwrap</text>
</a>
</g>
</g>
<!-- Node2&#45;&gt;Node23 -->
<g id="edge31" class="edge"><title>Node2&#45;&gt;Node23</title>
<path fill="none" stroke="midnightblue" d="M329.891,-95.9493C346.105,-92.2078 363.633,-88.5709 380,-86 480.015,-70.2899 505.758,-67 607,-67 607,-67 607,-67 763,-67 852.921,-67 957.42,-67 1019.78,-67"/>
<polygon fill="midnightblue" stroke="midnightblue" points="1019.79,-70.5001 1029.79,-67 1019.79,-63.5001 1019.79,-70.5001"/>
</g>
<!-- Node4 -->
<g id="node4" class="node"><title>Node4</title>
<g id="a_node4"><a xlink:href="namespaceforcebalance_1_1nifty.html#abb8f59044961a12588e0653c2baa8b01" target="_top" xlink:title="forcebalance.nifty.warn\l_press_key">
<polygon fill="white" stroke="black" points="1525.53,-262 1525.53,-294 1636.47,-294 1636.47,-262 1525.53,-262"/>
<text text-anchor="start" x="1533.53" y="-281" font-family="Ubuntu-R" font-size="10.00">forcebalance.nifty.warn</text>
<text text-anchor="middle" x="1581" y="-269" font-family="Ubuntu-R" font-size="10.00">_press_key</text>
</a>
</g>
</g>
<!-- Node3&#45;&gt;Node4 -->
<g id="edge3" class="edge"><title>Node3&#45;&gt;Node4</title>
<path fill="none" stroke="midnightblue" d="M462.147,-189.068C508.581,-215.348 641.332,-284 761,-284 761,-284 761,-284 1237,-284 1333.87,-284 1446.11,-281.578 1515.08,-279.812"/>
<polygon fill="midnightblue" stroke="midnightblue" points="1515.45,-283.303 1525.35,-279.545 1515.26,-276.306 1515.45,-283.303"/>
</g>
<!-- Node6 -->
<g id="node6" class="node"><title>Node6</title>
<g id="a_node6"><a xlink:href="namespaceforcebalance_1_1nifty.html#a51180e960742cc7547749fdfb3513ec4" target="_top" xlink:title="See documentation for printcool; this is a nice way to print out keys/values in a dictionary...">
<polygon fill="white" stroke="black" points="544.468,-163 544.468,-195 671.532,-195 671.532,-163 544.468,-163"/>
<text text-anchor="start" x="552.468" y="-182" font-family="Ubuntu-R" font-size="10.00">forcebalance.nifty.printcool</text>
<text text-anchor="middle" x="608" y="-170" font-family="Ubuntu-R" font-size="10.00">_dictionary</text>
</a>
</g>
</g>
<!-- Node3&#45;&gt;Node6 -->
<g id="edge5" class="edge"><title>Node3&#45;&gt;Node6</title>
<path fill="none" stroke="midnightblue" d="M507.633,-179C516.273,-179 525.206,-179 534.012,-179"/>
<polygon fill="midnightblue" stroke="midnightblue" points="534.266,-182.5 544.266,-179 534.266,-175.5 534.266,-182.5"/>
</g>
<!-- Node5 -->
<g id="node5" class="node"><title>Node5</title>
<g id="a_node5"><a xlink:href="namespaceforcebalance_1_1nifty.html#a2fc81730e7efa7d138dd86f733507bfc" target="_top" xlink:title="Similar to the bultin function map().">
<polygon fill="white" stroke="black" points="1690.04,-268 1690.04,-288 1845.96,-288 1845.96,-268 1690.04,-268"/>
<text text-anchor="middle" x="1768" y="-275" font-family="Ubuntu-R" font-size="10.00">forcebalance.nifty.concurrent_map</text>
</a>
</g>
</g>
<!-- Node4&#45;&gt;Node5 -->
<g id="edge4" class="edge"><title>Node4&#45;&gt;Node5</title>
<path fill="none" stroke="midnightblue" d="M1636.51,-278C1650.1,-278 1665.02,-278 1679.77,-278"/>
<polygon fill="midnightblue" stroke="midnightblue" points="1679.92,-281.5 1689.92,-278 1679.92,-274.5 1679.92,-281.5"/>
</g>
<!-- Node7 -->
<g id="node7" class="node"><title>Node7</title>
<g id="a_node7"><a xlink:href="namespaceforcebalance_1_1nifty.html#a3f1c7a1af9d35d5d1693074bc6f5497c" target="_top" xlink:title="ONLY matches integers! If you have a decimal point? None shall pass!">
<polygon fill="white" stroke="black" points="707.908,-186 707.908,-206 816.092,-206 816.092,-186 707.908,-186"/>
<text text-anchor="middle" x="762" y="-193" font-family="Ubuntu-R" font-size="10.00">forcebalance.nifty.isint</text>
</a>
</g>
</g>
<!-- Node6&#45;&gt;Node7 -->
<g id="edge6" class="edge"><title>Node6&#45;&gt;Node7</title>
<path fill="none" stroke="midnightblue" d="M671.702,-186.013C680.283,-186.972 689.098,-187.958 697.691,-188.919"/>
<polygon fill="midnightblue" stroke="midnightblue" points="697.32,-192.4 707.648,-190.033 698.099,-185.443 697.32,-192.4"/>
</g>
<!-- Node9 -->
<g id="node9" class="node"><title>Node9</title>
<g id="a_node9"><a xlink:href="namespaceforcebalance_1_1nifty.html#a8e3ef0108b9d37b82ba0dced7c6037ae" target="_top" xlink:title="Matches ANY number; it can be a decimal, scientific notation, what have you CAUTION &#45; this will also ...">
<polygon fill="white" stroke="black" points="1018.02,-169 1018.02,-189 1133.98,-189 1133.98,-169 1018.02,-169"/>
<text text-anchor="middle" x="1076" y="-176" font-family="Ubuntu-R" font-size="10.00">forcebalance.nifty.isfloat</text>
</a>
</g>
</g>
<!-- Node6&#45;&gt;Node9 -->
<g id="edge21" class="edge"><title>Node6&#45;&gt;Node9</title>
<path fill="none" stroke="midnightblue" d="M671.575,-176.817C683.66,-176.476 696.223,-176.178 708,-176 812.659,-174.415 934.12,-176.099 1007.72,-177.51"/>
<polygon fill="midnightblue" stroke="midnightblue" points="1007.72,-181.01 1017.78,-177.707 1007.86,-174.012 1007.72,-181.01"/>
</g>
<!-- Node8 -->
<g id="node8" class="node"><title>Node8</title>
<g id="a_node8"><a xlink:href="namespaceforcebalance_1_1nifty.html#a09263927eaec9deff283fbf1a820242f" target="_top" xlink:title="Matches things with a decimal only; see isint and isfloat.">
<polygon fill="white" stroke="black" points="852.36,-224 852.36,-244 981.64,-244 981.64,-224 852.36,-224"/>
<text text-anchor="middle" x="917" y="-231" font-family="Ubuntu-R" font-size="10.00">forcebalance.nifty.isdecimal</text>
</a>
</g>
</g>
<!-- Node7&#45;&gt;Node8 -->
<g id="edge7" class="edge"><title>Node7&#45;&gt;Node8</title>
<path fill="none" stroke="midnightblue" d="M803.6,-206.084C822.609,-210.805 845.443,-216.476 865.55,-221.47"/>
<polygon fill="midnightblue" stroke="midnightblue" points="864.928,-224.922 875.476,-223.935 866.615,-218.128 864.928,-224.922"/>
</g>
<!-- Node8&#45;&gt;Node9 -->
<g id="edge8" class="edge"><title>Node8&#45;&gt;Node9</title>
<path fill="none" stroke="midnightblue" d="M946.796,-223.912C972.026,-215.074 1008.89,-202.159 1036.62,-192.445"/>
<polygon fill="midnightblue" stroke="midnightblue" points="1038.11,-195.633 1046.39,-189.024 1035.79,-189.027 1038.11,-195.633"/>
</g>
<!-- Node13 -->
<g id="node13" class="node"><title>Node13</title>
<g id="a_node13"><a xlink:href="namespaceforcebalance_1_1nifty.html#afb3f205bce4984856e766af7e9fdaca8" target="_top" xlink:title="Given any list, array, or matrix, return a 1&#45;column matrix.">
<polygon fill="white" stroke="black" points="1024.41,-224 1024.41,-244 1127.59,-244 1127.59,-224 1024.41,-224"/>
<text text-anchor="middle" x="1076" y="-231" font-family="Ubuntu-R" font-size="10.00">forcebalance.nifty.col</text>
</a>
</g>
</g>
<!-- Node8&#45;&gt;Node13 -->
<g id="edge13" class="edge"><title>Node8&#45;&gt;Node13</title>
<path fill="none" stroke="midnightblue" d="M981.858,-234C992.427,-234 1003.36,-234 1013.86,-234"/>
<polygon fill="midnightblue" stroke="midnightblue" points="1014.19,-237.5 1024.19,-234 1014.19,-230.5 1014.19,-237.5"/>
</g>
<!-- Node9&#45;&gt;Node7 -->
<g id="edge9" class="edge"><title>Node9&#45;&gt;Node7</title>
<path fill="none" stroke="midnightblue" d="M1017.98,-182.107C963.846,-185.056 882.625,-189.482 826.463,-192.542"/>
<polygon fill="midnightblue" stroke="midnightblue" points="826.075,-189.058 816.28,-193.097 826.456,-196.048 826.075,-189.058"/>
</g>
<!-- Node10 -->
<g id="node10" class="node"><title>Node10</title>
<g id="a_node10"><a xlink:href="namespaceforcebalance_1_1nifty.html#a8d63c8ae9a67c66673a6cf81357f827d" target="_top" xlink:title="Returns a big number if we encounter NaN.">
<polygon fill="white" stroke="black" points="1169.97,-157 1169.97,-177 1302.03,-177 1302.03,-157 1169.97,-157"/>
<text text-anchor="middle" x="1236" y="-164" font-family="Ubuntu-R" font-size="10.00">forcebalance.nifty.floatornan</text>
</a>
</g>
</g>
<!-- Node9&#45;&gt;Node10 -->
<g id="edge10" class="edge"><title>Node9&#45;&gt;Node10</title>
<path fill="none" stroke="midnightblue" d="M1134.04,-174.668C1142.36,-174.036 1151.04,-173.377 1159.66,-172.722"/>
<polygon fill="midnightblue" stroke="midnightblue" points="1160.02,-176.205 1169.72,-171.958 1159.49,-169.225 1160.02,-176.205"/>
</g>
<!-- Node11 -->
<g id="node11" class="node"><title>Node11</title>
<g id="a_node11"><a xlink:href="namespaceforcebalance_1_1nifty.html#a6c9727360cdff8f3011a12cc54d0e86e" target="_top" xlink:title="Given any list, array, or matrix, return a 1&#45;row matrix.">
<polygon fill="white" stroke="black" points="1351.75,-157 1351.75,-177 1458.25,-177 1458.25,-157 1351.75,-157"/>
<text text-anchor="middle" x="1405" y="-164" font-family="Ubuntu-R" font-size="10.00">forcebalance.nifty.row</text>
</a>
</g>
</g>
<!-- Node10&#45;&gt;Node11 -->
<g id="edge11" class="edge"><title>Node10&#45;&gt;Node11</title>
<path fill="none" stroke="midnightblue" d="M1302.04,-167C1314.98,-167 1328.54,-167 1341.39,-167"/>
<polygon fill="midnightblue" stroke="midnightblue" points="1341.52,-170.5 1351.52,-167 1341.52,-163.5 1341.52,-170.5"/>
</g>
<!-- Node12 -->
<g id="node12" class="node"><title>Node12</title>
<g id="a_node12"><a xlink:href="namespaceforcebalance_1_1nifty.html#a7676236002c6a65ea7d2e69a09923889" target="_top" xlink:title="Given two vectors vec1 and vec2, project out the component of vec1 that is along the vec2&#45;direction...">
<polygon fill="white" stroke="black" points="1508.03,-157 1508.03,-177 1653.97,-177 1653.97,-157 1508.03,-157"/>
<text text-anchor="middle" x="1581" y="-164" font-family="Ubuntu-R" font-size="10.00">forcebalance.nifty.orthogonalize</text>
</a>
</g>
</g>
<!-- Node11&#45;&gt;Node12 -->
<g id="edge12" class="edge"><title>Node11&#45;&gt;Node12</title>
<path fill="none" stroke="midnightblue" d="M1458.68,-167C1471.03,-167 1484.49,-167 1497.79,-167"/>
<polygon fill="midnightblue" stroke="midnightblue" points="1497.92,-170.5 1507.92,-167 1497.92,-163.5 1497.92,-170.5"/>
</g>
<!-- Node14 -->
<g id="node14" class="node"><title>Node14</title>
<g id="a_node14"><a xlink:href="namespaceforcebalance_1_1nifty.html#a52114ceee9d55f94d9aecb3e176de294" target="_top" xlink:title="Given any list, array, or matrix, return a single&#45;index array.">
<polygon fill="white" stroke="black" points="1183.86,-196 1183.86,-216 1288.14,-216 1288.14,-196 1183.86,-196"/>
<text text-anchor="middle" x="1236" y="-203" font-family="Ubuntu-R" font-size="10.00">forcebalance.nifty.flat</text>
</a>
</g>
</g>
<!-- Node13&#45;&gt;Node14 -->
<g id="edge14" class="edge"><title>Node13&#45;&gt;Node14</title>
<path fill="none" stroke="midnightblue" d="M1127.86,-224.986C1142.37,-222.415 1158.34,-219.584 1173.42,-216.912"/>
<polygon fill="midnightblue" stroke="midnightblue" points="1174.46,-220.284 1183.69,-215.093 1173.23,-213.391 1174.46,-220.284"/>
</g>
<!-- Node15 -->
<g id="node15" class="node"><title>Node15</title>
<g id="a_node15"><a xlink:href="namespaceforcebalance_1_1nifty.html#a4c82187e92dfeb8a159f4aa44b501c40" target="_top" xlink:title="Invert a matrix using singular value decomposition.">
<polygon fill="white" stroke="black" points="1338.41,-235 1338.41,-255 1471.59,-255 1471.59,-235 1338.41,-235"/>
<text text-anchor="middle" x="1405" y="-242" font-family="Ubuntu-R" font-size="10.00">forcebalance.nifty.invert_svd</text>
</a>
</g>
</g>
<!-- Node14&#45;&gt;Node15 -->
<g id="edge15" class="edge"><title>Node14&#45;&gt;Node15</title>
<path fill="none" stroke="midnightblue" d="M1280.01,-216.043C1301.73,-221.116 1328.27,-227.314 1351.22,-232.673"/>
<polygon fill="midnightblue" stroke="midnightblue" points="1350.61,-236.125 1361.14,-234.991 1352.2,-229.308 1350.61,-236.125"/>
</g>
<!-- Node15&#45;&gt;Node4 -->
<g id="edge20" class="edge"><title>Node15&#45;&gt;Node4</title>
<path fill="none" stroke="midnightblue" d="M1459.15,-255.08C1476.94,-258.454 1496.97,-262.253 1515.53,-265.773"/>
<polygon fill="midnightblue" stroke="midnightblue" points="1514.89,-269.215 1525.37,-267.639 1516.2,-262.337 1514.89,-269.215"/>
</g>
<!-- Node15&#45;&gt;Node13 -->
<g id="edge19" class="edge"><title>Node15&#45;&gt;Node13</title>
<path fill="none" stroke="midnightblue" d="M1338.17,-242.785C1279.72,-240.819 1194.98,-237.969 1138.03,-236.053"/>
<polygon fill="midnightblue" stroke="midnightblue" points="1137.85,-232.545 1127.73,-235.707 1137.61,-239.541 1137.85,-232.545"/>
</g>
<!-- Node16 -->
<g id="node16" class="node"><title>Node16</title>
<g id="a_node16"><a xlink:href="namespaceforcebalance_1_1nifty.html#aa9fb9c7c65231eca50a7afc04f489b64" target="_top" xlink:title="forcebalance.nifty.get\l_least_squares">
<polygon fill="white" stroke="black" points="1529.41,-206 1529.41,-238 1632.59,-238 1632.59,-206 1529.41,-206"/>
<text text-anchor="start" x="1537.41" y="-225" font-family="Ubuntu-R" font-size="10.00">forcebalance.nifty.get</text>
<text text-anchor="middle" x="1581" y="-213" font-family="Ubuntu-R" font-size="10.00">_least_squares</text>
</a>
</g>
</g>
<!-- Node15&#45;&gt;Node16 -->
<g id="edge16" class="edge"><title>Node15&#45;&gt;Node16</title>
<path fill="none" stroke="midnightblue" d="M1471.78,-236.305C1487.26,-234.258 1503.7,-232.085 1518.96,-230.068"/>
<polygon fill="midnightblue" stroke="midnightblue" points="1519.86,-233.48 1529.32,-228.699 1518.95,-226.54 1519.86,-233.48"/>
</g>
<!-- Node16&#45;&gt;Node14 -->
<g id="edge17" class="edge"><title>Node16&#45;&gt;Node14</title>
<path fill="none" stroke="midnightblue" d="M1529.14,-219.627C1467.72,-216.762 1364.46,-211.946 1298.59,-208.873"/>
<polygon fill="midnightblue" stroke="midnightblue" points="1298.5,-205.365 1288.35,-208.395 1298.18,-212.358 1298.5,-205.365"/>
</g>
<!-- Node17 -->
<g id="node17" class="node"><title>Node17</title>
<g id="a_node17"><a xlink:href="namespaceforcebalance_1_1nifty.html#ad5ca60565c864b4245a8212fe9d92e10" target="_top" xlink:title="Compute the (cross) statistical inefficiency of (two) timeseries.">
<polygon fill="white" stroke="black" points="1703.64,-206 1703.64,-238 1832.36,-238 1832.36,-206 1703.64,-206"/>
<text text-anchor="start" x="1711.64" y="-225" font-family="Ubuntu-R" font-size="10.00">forcebalance.nifty.statistical</text>
<text text-anchor="middle" x="1768" y="-213" font-family="Ubuntu-R" font-size="10.00">Inefficiency</text>
</a>
</g>
</g>
<!-- Node16&#45;&gt;Node17 -->
<g id="edge18" class="edge"><title>Node16&#45;&gt;Node17</title>
<path fill="none" stroke="midnightblue" d="M1633.04,-222C1651.71,-222 1673.21,-222 1693.45,-222"/>
<polygon fill="midnightblue" stroke="midnightblue" points="1693.58,-225.5 1703.58,-222 1693.58,-218.5 1693.58,-225.5"/>
</g>
<!-- Node19 -->
<g id="node19" class="node"><title>Node19</title>
<g id="a_node19"><a xlink:href="namespaceforcebalance_1_1finite__difference.html#a9be9f0d21300958092e380514e2e980d" target="_top" xlink:title="A highly accurate seven&#45;point finite difference stencil for computing derivatives of a function...">
<polygon fill="white" stroke="black" points="562.662,-96 562.662,-128 653.338,-128 653.338,-96 562.662,-96"/>
<text text-anchor="start" x="570.662" y="-115" font-family="Ubuntu-R" font-size="10.00">forcebalance.finite</text>
<text text-anchor="middle" x="608" y="-103" font-family="Ubuntu-R" font-size="10.00">_difference.f1d7p</text>
</a>
</g>
</g>
<!-- Node18&#45;&gt;Node19 -->
<g id="edge23" class="edge"><title>Node18&#45;&gt;Node19</title>
<path fill="none" stroke="midnightblue" d="M489.696,-112C509.085,-112 531.972,-112 552.36,-112"/>
<polygon fill="midnightblue" stroke="midnightblue" points="552.45,-115.5 562.45,-112 552.45,-108.5 552.45,-115.5"/>
</g>
<!-- Node20 -->
<g id="node20" class="node"><title>Node20</title>
<g id="a_node20"><a xlink:href="namespaceforcebalance_1_1finite__difference.html#acc281f85b668062745f711d9b4a610fa" target="_top" xlink:title="forcebalance.finite\l_difference.f12d7p">
<polygon fill="white" stroke="black" points="715.824,-96 715.824,-128 808.176,-128 808.176,-96 715.824,-96"/>
<text text-anchor="start" x="723.824" y="-115" font-family="Ubuntu-R" font-size="10.00">forcebalance.finite</text>
<text text-anchor="middle" x="762" y="-103" font-family="Ubuntu-R" font-size="10.00">_difference.f12d7p</text>
</a>
</g>
</g>
<!-- Node19&#45;&gt;Node20 -->
<g id="edge24" class="edge"><title>Node19&#45;&gt;Node20</title>
<path fill="none" stroke="midnightblue" d="M653.373,-112C669.628,-112 688.232,-112 705.349,-112"/>
<polygon fill="midnightblue" stroke="midnightblue" points="705.781,-115.5 715.781,-112 705.781,-108.5 705.781,-115.5"/>
</g>
<!-- Node21 -->
<g id="node21" class="node"><title>Node21</title>
<g id="a_node21"><a xlink:href="namespaceforcebalance_1_1finite__difference.html#aa69a8819e4680091f400303c1d6ddeb7" target="_top" xlink:title="A three&#45;point finite difference stencil.">
<polygon fill="white" stroke="black" points="870.824,-96 870.824,-128 963.176,-128 963.176,-96 870.824,-96"/>
<text text-anchor="start" x="878.824" y="-115" font-family="Ubuntu-R" font-size="10.00">forcebalance.finite</text>
<text text-anchor="middle" x="917" y="-103" font-family="Ubuntu-R" font-size="10.00">_difference.f12d3p</text>
</a>
</g>
</g>
<!-- Node20&#45;&gt;Node21 -->
<g id="edge25" class="edge"><title>Node20&#45;&gt;Node21</title>
<path fill="none" stroke="midnightblue" d="M808.491,-112C824.758,-112 843.277,-112 860.307,-112"/>
<polygon fill="midnightblue" stroke="midnightblue" points="860.685,-115.5 870.684,-112 860.684,-108.5 860.685,-115.5"/>
</g>
<!-- Node22 -->
<g id="node22" class="node"><title>Node22</title>
<g id="a_node22"><a xlink:href="namespaceforcebalance_1_1finite__difference.html#ad84d3e385db1190e7d8ef58bc08a6c52" target="_top" xlink:title="Invoking this function from anywhere will tell us whether we&#39;re being called by a finite&#45;difference f...">
<polygon fill="white" stroke="black" points="1030.66,-102 1030.66,-134 1121.34,-134 1121.34,-102 1030.66,-102"/>
<text text-anchor="start" x="1038.66" y="-121" font-family="Ubuntu-R" font-size="10.00">forcebalance.finite</text>
<text text-anchor="middle" x="1076" y="-109" font-family="Ubuntu-R" font-size="10.00">_difference.in_fd</text>
</a>
</g>
</g>
<!-- Node21&#45;&gt;Node22 -->
<g id="edge26" class="edge"><title>Node21&#45;&gt;Node22</title>
<path fill="none" stroke="midnightblue" d="M963.411,-113.735C981.215,-114.416 1001.8,-115.202 1020.4,-115.913"/>
<polygon fill="midnightblue" stroke="midnightblue" points="1020.38,-119.415 1030.5,-116.3 1020.64,-112.42 1020.38,-119.415"/>
</g>
<!-- Node21&#45;&gt;Node23 -->
<g id="edge27" class="edge"><title>Node21&#45;&gt;Node23</title>
<path fill="none" stroke="midnightblue" d="M963.411,-98.9841C981.067,-93.9234 1001.46,-88.0792 1019.94,-82.782"/>
<polygon fill="midnightblue" stroke="midnightblue" points="1021.04,-86.1065 1029.69,-79.9866 1019.11,-79.3775 1021.04,-86.1065"/>
</g>
<!-- Node24 -->
<g id="node24" class="node"><title>Node24</title>
<g id="a_node24"><a xlink:href="namespaceforcebalance_1_1finite__difference.html#a00322fb65860c390616f74d05037c797" target="_top" xlink:title="A driver to fdwrap for gradients (see documentation for fdwrap) Inputs: tgt = The Target containing t...">
<polygon fill="white" stroke="black" points="1183.72,-51 1183.72,-83 1288.28,-83 1288.28,-51 1183.72,-51"/>
<text text-anchor="start" x="1191.72" y="-70" font-family="Ubuntu-R" font-size="10.00">forcebalance.finite</text>
<text text-anchor="middle" x="1236" y="-58" font-family="Ubuntu-R" font-size="10.00">_difference.fdwrap_G</text>
</a>
</g>
</g>
<!-- Node23&#45;&gt;Node24 -->
<g id="edge28" class="edge"><title>Node23&#45;&gt;Node24</title>
<path fill="none" stroke="midnightblue" d="M1122.28,-60.8294C1138.13,-60.2504 1156.23,-60.1053 1173.2,-60.3943"/>
<polygon fill="midnightblue" stroke="midnightblue" points="1173.52,-63.9023 1183.6,-60.6303 1173.68,-56.9041 1173.52,-63.9023"/>
</g>
<!-- Node25 -->
<g id="node25" class="node"><title>Node25</title>
<g id="a_node25"><a xlink:href="namespaceforcebalance_1_1finite__difference.html#a77a0bc1ae3cbbcc8d38a0ef9ca877d6d" target="_top" xlink:title="A driver to fdwrap for Hessians (see documentation for fdwrap) Inputs: tgt = The Target containing th...">
<polygon fill="white" stroke="black" points="1183.72,-0 1183.72,-32 1288.28,-32 1288.28,-0 1183.72,-0"/>
<text text-anchor="start" x="1191.72" y="-19" font-family="Ubuntu-R" font-size="10.00">forcebalance.finite</text>
<text text-anchor="middle" x="1236" y="-7" font-family="Ubuntu-R" font-size="10.00">_difference.fdwrap_H</text>
</a>
</g>
</g>
<!-- Node23&#45;&gt;Node25 -->
<g id="edge30" class="edge"><title>Node23&#45;&gt;Node25</title>
<path fill="none" stroke="midnightblue" d="M1122.28,-52.3854C1138.9,-47.021 1157.97,-40.8654 1175.64,-35.1615"/>
<polygon fill="midnightblue" stroke="midnightblue" points="1176.84,-38.4497 1185.29,-32.047 1174.69,-31.7881 1176.84,-38.4497"/>
</g>
<!-- Node24&#45;&gt;Node23 -->
<g id="edge29" class="edge"><title>Node24&#45;&gt;Node23</title>
<path fill="none" stroke="midnightblue" d="M1183.6,-73.3697C1167.23,-73.8388 1149.05,-73.8739 1132.41,-73.4751"/>
<polygon fill="midnightblue" stroke="midnightblue" points="1132.38,-69.9726 1122.28,-73.1706 1132.17,-76.9695 1132.38,-69.9726"/>
</g>
</g>
</svg>
