<?xml version="1.0" encoding="UTF-8" standalone="no"?>
<!DOCTYPE svg PUBLIC "-//W3C//DTD SVG 1.1//EN"
 "http://www.w3.org/Graphics/SVG/1.1/DTD/svg11.dtd">
<!-- Generated by graphviz version 2.40.1 (20161225.0304)
 -->
<!-- Title: src.output.ForceBalanceLogger.removeHandler Pages: 1 -->
<svg width="437pt" height="39pt"
 viewBox="0.00 0.00 437.00 39.00" xmlns="http://www.w3.org/2000/svg" xmlns:xlink="http://www.w3.org/1999/xlink">
<g id="graph0" class="graph" transform="scale(1 1) rotate(0) translate(4 35)">
<title>src.output.ForceBalanceLogger.removeHandler</title>
<polygon fill="#ffffff" stroke="transparent" points="-4,4 -4,-35 433,-35 433,4 -4,4"/>
<!-- Node3 -->
<g id="node1" class="node">
<title>Node3</title>
<polygon fill="#bfbfbf" stroke="#000000" points="0,-.5 0,-30.5 206,-30.5 206,-.5 0,-.5"/>
<text text-anchor="start" x="8" y="-18.5" font-family="Ubuntu-R" font-size="10.00" fill="#000000">src.output.ForceBalanceLogger.remove</text>
<text text-anchor="middle" x="103" y="-7.5" font-family="Ubuntu-R" font-size="10.00" fill="#000000">Handler</text>
</g>
<!-- Node4 -->
<g id="node2" class="node">
<title>Node4</title>
<g id="a_node2"><a xlink:href="classsrc_1_1output_1_1ForceBalanceLogger.html#a81672b6c5dfd96e11a73c6c345533d1f" target="_top" xlink:title="src.output.ForceBalanceLogger.add\lHandler">
<polygon fill="#ffffff" stroke="#000000" points="242,-.5 242,-30.5 429,-30.5 429,-.5 242,-.5"/>
<text text-anchor="start" x="250" y="-18.5" font-family="Ubuntu-R" font-size="10.00" fill="#000000">src.output.ForceBalanceLogger.add</text>
<text text-anchor="middle" x="335.5" y="-7.5" font-family="Ubuntu-R" font-size="10.00" fill="#000000">Handler</text>
</a>
</g>
</g>
<!-- Node3&#45;&gt;Node4 -->
<g id="edge1" class="edge">
<title>Node3&#45;&gt;Node4</title>
<path fill="none" stroke="#191970" d="M206.3319,-8.7872C214.6954,-8.7389 223.1493,-8.7376 231.5174,-8.7835"/>
<polygon fill="#191970" stroke="#191970" points="231.6432,-12.2845 241.6702,-8.8628 231.6979,-5.2847 231.6432,-12.2845"/>
</g>
<!-- Node4&#45;&gt;Node3 -->
<g id="edge2" class="edge">
<title>Node4&#45;&gt;Node3</title>
<path fill="none" stroke="#191970" d="M241.6702,-22.1372C233.401,-22.2213 224.9744,-22.2584 216.5665,-22.2484"/>
<polygon fill="#191970" stroke="#191970" points="216.344,-18.7477 206.3319,-22.2128 216.3196,-25.7477 216.344,-18.7477"/>
</g>
</g>
</svg>
