<?xml version="1.0" encoding="UTF-8" standalone="no"?>
<!DOCTYPE svg PUBLIC "-//W3C//DTD SVG 1.1//EN"
 "http://www.w3.org/Graphics/SVG/1.1/DTD/svg11.dtd">
<!-- Generated by graphviz version 2.26.3 (20100126.1600)
 -->
<!-- Title: forcebalance.optimizer.Optimizer.MainOptimizer Pages: 1 -->
<svg width="1706pt" height="148pt"
 viewBox="0.00 0.00 1706.00 148.00" xmlns="http://www.w3.org/2000/svg" xmlns:xlink="http://www.w3.org/1999/xlink">
<g id="graph1" class="graph" transform="scale(1 1) rotate(0) translate(4 144)">
<title>forcebalance.optimizer.Optimizer.MainOptimizer</title>
<polygon fill="white" stroke="white" points="-4,5 -4,-144 1703,-144 1703,5 -4,5"/>
<!-- Node1 -->
<g id="node1" class="node"><title>Node1</title>
<polygon fill="#bfbfbf" stroke="black" points="0,-61 0,-95 176,-95 176,-61 0,-61"/>
<text text-anchor="start" x="8" y="-82" font-family="Ubuntu-R" font-size="10.00">forcebalance.optimizer.Optimizer.</text>
<text text-anchor="middle" x="88" y="-69" font-family="Ubuntu-R" font-size="10.00">MainOptimizer</text>
</g>
<!-- Node2 -->
<g id="node3" class="node"><title>Node2</title>
<a xlink:href="namespaceforcebalance_1_1nifty.html#a11babd62dc7bca389162c6318f9672ca" target="_top" xlink:title="Cool&#45;looking printout for slick formatting of output.">
<polygon fill="white" stroke="black" points="248,-87.5 248,-108.5 392,-108.5 392,-87.5 248,-87.5"/>
<text text-anchor="middle" x="320" y="-95.5" font-family="Ubuntu-R" font-size="10.00">forcebalance.nifty.printcool</text>
</a>
</g>
<!-- Node1&#45;&gt;Node2 -->
<g id="edge2" class="edge"><title>Node1&#45;&gt;Node2</title>
<path fill="none" stroke="midnightblue" d="M176.04,-85.5897C196.327,-87.3385 217.827,-89.192 237.852,-90.9183"/>
<polygon fill="midnightblue" stroke="midnightblue" points="237.599,-94.4093 247.862,-91.7812 238.2,-87.4352 237.599,-94.4093"/>
</g>
<!-- Node15 -->
<g id="node34" class="node"><title>Node15</title>
<a xlink:href="classforcebalance_1_1optimizer_1_1Optimizer.html#aa7ac7cda43b70ac58ccbd6c8445e88ef" target="_top" xlink:title="Write the checkpoint file for the main optimizer.">
<polygon fill="white" stroke="black" points="212.5,-47.5 212.5,-68.5 427.5,-68.5 427.5,-47.5 212.5,-47.5"/>
<text text-anchor="middle" x="320" y="-55.5" font-family="Ubuntu-R" font-size="10.00">forcebalance.optimizer.Optimizer.writechk</text>
</a>
</g>
<!-- Node1&#45;&gt;Node15 -->
<g id="edge38" class="edge"><title>Node1&#45;&gt;Node15</title>
<path fill="none" stroke="midnightblue" d="M176.04,-70.4103C184.516,-69.6796 193.204,-68.9307 201.908,-68.1803"/>
<polygon fill="midnightblue" stroke="midnightblue" points="202.459,-71.6459 212.121,-67.2999 201.857,-64.6718 202.459,-71.6459"/>
</g>
<!-- Node3 -->
<g id="node5" class="node"><title>Node3</title>
<a xlink:href="namespaceforcebalance_1_1nifty.html#abb8f59044961a12588e0653c2baa8b01" target="_top" xlink:title="forcebalance.nifty.warn\l_press_key">
<polygon fill="white" stroke="black" points="1551.5,-106 1551.5,-140 1676.5,-140 1676.5,-106 1551.5,-106"/>
<text text-anchor="start" x="1559.5" y="-127" font-family="Ubuntu-R" font-size="10.00">forcebalance.nifty.warn</text>
<text text-anchor="middle" x="1614" y="-114" font-family="Ubuntu-R" font-size="10.00">_press_key</text>
</a>
</g>
<!-- Node2&#45;&gt;Node3 -->
<g id="edge4" class="edge"><title>Node2&#45;&gt;Node3</title>
<path fill="none" stroke="midnightblue" d="M392.247,-107.001C469.518,-115.838 595.72,-128 705,-128 705,-128 705,-128 1230,-128 1338.47,-128 1464.17,-125.981 1541.38,-124.508"/>
<polygon fill="midnightblue" stroke="midnightblue" points="1541.55,-128.006 1551.48,-124.314 1541.42,-121.007 1541.55,-128.006"/>
</g>
<!-- Node4 -->
<g id="node7" class="node"><title>Node4</title>
<a xlink:href="namespaceforcebalance_1_1nifty.html#a51180e960742cc7547749fdfb3513ec4" target="_top" xlink:title="See documentation for printcool; this is a nice way to print out keys/values in a dictionary...">
<polygon fill="white" stroke="black" points="464,-50 464,-84 608,-84 608,-50 464,-50"/>
<text text-anchor="start" x="472" y="-71" font-family="Ubuntu-R" font-size="10.00">forcebalance.nifty.printcool</text>
<text text-anchor="middle" x="536" y="-58" font-family="Ubuntu-R" font-size="10.00">_dictionary</text>
</a>
</g>
<!-- Node2&#45;&gt;Node4 -->
<g id="edge6" class="edge"><title>Node2&#45;&gt;Node4</title>
<path fill="none" stroke="midnightblue" d="M392.225,-87.6343C411.949,-84.8035 433.469,-81.7152 453.709,-78.8103"/>
<polygon fill="midnightblue" stroke="midnightblue" points="454.442,-82.2411 463.843,-77.3559 453.447,-75.3121 454.442,-82.2411"/>
</g>
<!-- Node5 -->
<g id="node9" class="node"><title>Node5</title>
<a xlink:href="namespaceforcebalance_1_1nifty.html#a3f1c7a1af9d35d5d1693074bc6f5497c" target="_top" xlink:title="ONLY matches integers! If you have a decimal point? None shall pass!">
<polygon fill="white" stroke="black" points="644,-56.5 644,-77.5 766,-77.5 766,-56.5 644,-56.5"/>
<text text-anchor="middle" x="705" y="-64.5" font-family="Ubuntu-R" font-size="10.00">forcebalance.nifty.isint</text>
</a>
</g>
<!-- Node4&#45;&gt;Node5 -->
<g id="edge8" class="edge"><title>Node4&#45;&gt;Node5</title>
<path fill="none" stroke="midnightblue" d="M608.161,-67C616.644,-67 625.297,-67 633.767,-67"/>
<polygon fill="midnightblue" stroke="midnightblue" points="633.984,-70.5001 643.984,-67 633.984,-63.5001 633.984,-70.5001"/>
</g>
<!-- Node7 -->
<g id="node13" class="node"><title>Node7</title>
<a xlink:href="namespaceforcebalance_1_1nifty.html#a8e3ef0108b9d37b82ba0dced7c6037ae" target="_top" xlink:title="Matches ANY number; it can be a decimal, scientific notation, what have you CAUTION &#45; this will also ...">
<polygon fill="white" stroke="black" points="986.5,-19.5 986.5,-40.5 1117.5,-40.5 1117.5,-19.5 986.5,-19.5"/>
<text text-anchor="middle" x="1052" y="-27.5" font-family="Ubuntu-R" font-size="10.00">forcebalance.nifty.isfloat</text>
</a>
</g>
<!-- Node4&#45;&gt;Node7 -->
<g id="edge36" class="edge"><title>Node4&#45;&gt;Node7</title>
<path fill="none" stroke="midnightblue" d="M608.149,-52.4665C620.089,-50.3991 632.366,-48.4773 644,-47 759.163,-32.376 893.928,-29.5048 976.101,-29.3345"/>
<polygon fill="midnightblue" stroke="midnightblue" points="976.353,-32.8344 986.351,-29.3268 976.348,-25.8344 976.353,-32.8344"/>
</g>
<!-- Node6 -->
<g id="node11" class="node"><title>Node6</title>
<a xlink:href="namespaceforcebalance_1_1nifty.html#a09263927eaec9deff283fbf1a820242f" target="_top" xlink:title="Matches things with a decimal only; see isint and isfloat.">
<polygon fill="white" stroke="black" points="802.5,-78.5 802.5,-99.5 949.5,-99.5 949.5,-78.5 802.5,-78.5"/>
<text text-anchor="middle" x="876" y="-86.5" font-family="Ubuntu-R" font-size="10.00">forcebalance.nifty.isdecimal</text>
</a>
</g>
<!-- Node5&#45;&gt;Node6 -->
<g id="edge10" class="edge"><title>Node5&#45;&gt;Node6</title>
<path fill="none" stroke="midnightblue" d="M766.252,-74.8804C774.747,-75.9733 783.589,-77.1109 792.405,-78.2451"/>
<polygon fill="midnightblue" stroke="midnightblue" points="791.962,-81.7169 802.327,-79.5216 792.856,-74.7741 791.962,-81.7169"/>
</g>
<!-- Node6&#45;&gt;Node7 -->
<g id="edge12" class="edge"><title>Node6&#45;&gt;Node7</title>
<path fill="none" stroke="midnightblue" d="M907.465,-78.452C936.283,-68.7915 979.128,-54.4288 1010.69,-43.8477"/>
<polygon fill="midnightblue" stroke="midnightblue" points="1012.14,-47.053 1020.51,-40.556 1009.92,-40.416 1012.14,-47.053"/>
</g>
<!-- Node11 -->
<g id="node22" class="node"><title>Node11</title>
<a xlink:href="namespaceforcebalance_1_1nifty.html#afb3f205bce4984856e766af7e9fdaca8" target="_top" xlink:title="Given any list, array, or matrix, return a 1&#45;column matrix.">
<polygon fill="white" stroke="black" points="994,-78.5 994,-99.5 1110,-99.5 1110,-78.5 994,-78.5"/>
<text text-anchor="middle" x="1052" y="-86.5" font-family="Ubuntu-R" font-size="10.00">forcebalance.nifty.col</text>
</a>
</g>
<!-- Node6&#45;&gt;Node11 -->
<g id="edge22" class="edge"><title>Node6&#45;&gt;Node11</title>
<path fill="none" stroke="midnightblue" d="M949.62,-89C960.943,-89 972.592,-89 983.79,-89"/>
<polygon fill="midnightblue" stroke="midnightblue" points="983.925,-92.5001 993.925,-89 983.925,-85.5001 983.925,-92.5001"/>
</g>
<!-- Node7&#45;&gt;Node5 -->
<g id="edge14" class="edge"><title>Node7&#45;&gt;Node5</title>
<path fill="none" stroke="midnightblue" d="M986.36,-36.9991C926.398,-43.3927 837.948,-52.824 776.279,-59.3997"/>
<polygon fill="midnightblue" stroke="midnightblue" points="775.81,-55.9297 766.238,-60.4703 776.553,-62.8902 775.81,-55.9297"/>
</g>
<!-- Node8 -->
<g id="node16" class="node"><title>Node8</title>
<a xlink:href="namespaceforcebalance_1_1nifty.html#a8d63c8ae9a67c66673a6cf81357f827d" target="_top" xlink:title="Returns a big number if we encounter NaN.">
<polygon fill="white" stroke="black" points="1154.5,-0.5 1154.5,-21.5 1305.5,-21.5 1305.5,-0.5 1154.5,-0.5"/>
<text text-anchor="middle" x="1230" y="-8.5" font-family="Ubuntu-R" font-size="10.00">forcebalance.nifty.floatornan</text>
</a>
</g>
<!-- Node7&#45;&gt;Node8 -->
<g id="edge16" class="edge"><title>Node7&#45;&gt;Node8</title>
<path fill="none" stroke="midnightblue" d="M1117.52,-23.006C1126.24,-22.0758 1135.28,-21.1111 1144.27,-20.1511"/>
<polygon fill="midnightblue" stroke="midnightblue" points="1144.81,-23.613 1154.38,-19.0713 1144.07,-16.6526 1144.81,-23.613"/>
</g>
<!-- Node9 -->
<g id="node18" class="node"><title>Node9</title>
<a xlink:href="namespaceforcebalance_1_1nifty.html#a6c9727360cdff8f3011a12cc54d0e86e" target="_top" xlink:title="Given any list, array, or matrix, return a 1&#45;row matrix.">
<polygon fill="white" stroke="black" points="1358.5,-0.5 1358.5,-21.5 1477.5,-21.5 1477.5,-0.5 1358.5,-0.5"/>
<text text-anchor="middle" x="1418" y="-8.5" font-family="Ubuntu-R" font-size="10.00">forcebalance.nifty.row</text>
</a>
</g>
<!-- Node8&#45;&gt;Node9 -->
<g id="edge18" class="edge"><title>Node8&#45;&gt;Node9</title>
<path fill="none" stroke="midnightblue" d="M1305.65,-11C1319.64,-11 1334.19,-11 1348,-11"/>
<polygon fill="midnightblue" stroke="midnightblue" points="1348.39,-14.5001 1358.39,-11 1348.39,-7.5001 1348.39,-14.5001"/>
</g>
<!-- Node10 -->
<g id="node20" class="node"><title>Node10</title>
<a xlink:href="namespaceforcebalance_1_1nifty.html#a7676236002c6a65ea7d2e69a09923889" target="_top" xlink:title="Given two vectors vec1 and vec2, project out the component of vec1 that is along the vec2&#45;direction...">
<polygon fill="white" stroke="black" points="1530,-0.5 1530,-21.5 1698,-21.5 1698,-0.5 1530,-0.5"/>
<text text-anchor="middle" x="1614" y="-8.5" font-family="Ubuntu-R" font-size="10.00">forcebalance.nifty.orthogonalize</text>
</a>
</g>
<!-- Node9&#45;&gt;Node10 -->
<g id="edge20" class="edge"><title>Node9&#45;&gt;Node10</title>
<path fill="none" stroke="midnightblue" d="M1477.6,-11C1490.84,-11 1505.18,-11 1519.42,-11"/>
<polygon fill="midnightblue" stroke="midnightblue" points="1519.76,-14.5001 1529.76,-11 1519.76,-7.5001 1519.76,-14.5001"/>
</g>
<!-- Node12 -->
<g id="node24" class="node"><title>Node12</title>
<a xlink:href="namespaceforcebalance_1_1nifty.html#a52114ceee9d55f94d9aecb3e176de294" target="_top" xlink:title="Given any list, array, or matrix, return a single&#45;index array.">
<polygon fill="white" stroke="black" points="1171.5,-40.5 1171.5,-61.5 1288.5,-61.5 1288.5,-40.5 1171.5,-40.5"/>
<text text-anchor="middle" x="1230" y="-48.5" font-family="Ubuntu-R" font-size="10.00">forcebalance.nifty.flat</text>
</a>
</g>
<!-- Node11&#45;&gt;Node12 -->
<g id="edge24" class="edge"><title>Node11&#45;&gt;Node12</title>
<path fill="none" stroke="midnightblue" d="M1101.58,-78.4149C1122.99,-73.8443 1148.22,-68.4596 1170.61,-63.6778"/>
<polygon fill="midnightblue" stroke="midnightblue" points="1171.63,-67.0391 1180.68,-61.5284 1170.17,-60.1933 1171.63,-67.0391"/>
</g>
<!-- Node13 -->
<g id="node26" class="node"><title>Node13</title>
<a xlink:href="namespaceforcebalance_1_1nifty.html#a4c82187e92dfeb8a159f4aa44b501c40" target="_top" xlink:title="Invert a matrix using singular value decomposition.">
<polygon fill="white" stroke="black" points="1342.5,-78.5 1342.5,-99.5 1493.5,-99.5 1493.5,-78.5 1342.5,-78.5"/>
<text text-anchor="middle" x="1418" y="-86.5" font-family="Ubuntu-R" font-size="10.00">forcebalance.nifty.invert_svd</text>
</a>
</g>
<!-- Node12&#45;&gt;Node13 -->
<g id="edge26" class="edge"><title>Node12&#45;&gt;Node13</title>
<path fill="none" stroke="midnightblue" d="M1282.37,-61.5851C1305.18,-66.1969 1332.1,-71.6375 1355.92,-76.4512"/>
<polygon fill="midnightblue" stroke="midnightblue" points="1355.42,-79.921 1365.91,-78.4716 1356.8,-73.0597 1355.42,-79.921"/>
</g>
<!-- Node13&#45;&gt;Node3 -->
<g id="edge34" class="edge"><title>Node13&#45;&gt;Node3</title>
<path fill="none" stroke="midnightblue" d="M1478.67,-99.525C1498.48,-102.961 1520.68,-106.812 1541.28,-110.385"/>
<polygon fill="midnightblue" stroke="midnightblue" points="1540.79,-113.853 1551.24,-112.114 1541.99,-106.956 1540.79,-113.853"/>
</g>
<!-- Node13&#45;&gt;Node11 -->
<g id="edge32" class="edge"><title>Node13&#45;&gt;Node11</title>
<path fill="none" stroke="midnightblue" d="M1342.35,-89C1277.13,-89 1183.75,-89 1120.65,-89"/>
<polygon fill="midnightblue" stroke="midnightblue" points="1120.4,-85.5001 1110.4,-89 1120.4,-92.5001 1120.4,-85.5001"/>
</g>
<!-- Node14 -->
<g id="node28" class="node"><title>Node14</title>
<a xlink:href="namespaceforcebalance_1_1nifty.html#aa9fb9c7c65231eca50a7afc04f489b64" target="_top" xlink:title="forcebalance.nifty.get\l_least_squares">
<polygon fill="white" stroke="black" points="1555,-49 1555,-83 1673,-83 1673,-49 1555,-49"/>
<text text-anchor="start" x="1563" y="-70" font-family="Ubuntu-R" font-size="10.00">forcebalance.nifty.get</text>
<text text-anchor="middle" x="1614" y="-57" font-family="Ubuntu-R" font-size="10.00">_least_squares</text>
</a>
</g>
<!-- Node13&#45;&gt;Node14 -->
<g id="edge28" class="edge"><title>Node13&#45;&gt;Node14</title>
<path fill="none" stroke="midnightblue" d="M1493.78,-80.1076C1510.55,-78.1396 1528.24,-76.064 1544.73,-74.1282"/>
<polygon fill="midnightblue" stroke="midnightblue" points="1545.31,-77.5849 1554.83,-72.9432 1544.49,-70.6326 1545.31,-77.5849"/>
</g>
<!-- Node14&#45;&gt;Node12 -->
<g id="edge30" class="edge"><title>Node14&#45;&gt;Node12</title>
<path fill="none" stroke="midnightblue" d="M1554.95,-63.6934C1485.89,-60.9957 1371.75,-56.5369 1298.76,-53.6858"/>
<polygon fill="midnightblue" stroke="midnightblue" points="1298.87,-50.1876 1288.74,-53.2945 1298.6,-57.1823 1298.87,-50.1876"/>
</g>
</g>
</svg>
