<?xml version="1.0" encoding="UTF-8" standalone="no"?>
<!DOCTYPE svg PUBLIC "-//W3C//DTD SVG 1.1//EN"
 "http://www.w3.org/Graphics/SVG/1.1/DTD/svg11.dtd">
<!-- Generated by graphviz version 2.40.1 (20161225.0304)
 -->
<!-- Title: src.torsion_profile.TorsionProfileTarget.indicate Pages: 1 -->
<svg width="596pt" height="39pt"
 viewBox="0.00 0.00 596.00 39.00" xmlns="http://www.w3.org/2000/svg" xmlns:xlink="http://www.w3.org/1999/xlink">
<g id="graph0" class="graph" transform="scale(1 1) rotate(0) translate(4 35)">
<title>src.torsion_profile.TorsionProfileTarget.indicate</title>
<polygon fill="#ffffff" stroke="transparent" points="-4,4 -4,-35 592,-35 592,4 -4,4"/>
<!-- Node2 -->
<g id="node1" class="node">
<title>Node2</title>
<polygon fill="#bfbfbf" stroke="#000000" points="0,-.5 0,-30.5 141,-30.5 141,-.5 0,-.5"/>
<text text-anchor="start" x="8" y="-18.5" font-family="Ubuntu-R" font-size="10.00" fill="#000000">src.torsion_profile.Torsion</text>
<text text-anchor="middle" x="70.5" y="-7.5" font-family="Ubuntu-R" font-size="10.00" fill="#000000">ProfileTarget.indicate</text>
</g>
<!-- Node3 -->
<g id="node2" class="node">
<title>Node3</title>
<g id="a_node2"><a xlink:href="namespacesrc_1_1nifty.html#a78476d8a6da41a734762a4e44c339975" target="_top" xlink:title="See documentation for printcool; this is a nice way to print out keys/values in a dictionary...">
<polygon fill="#ffffff" stroke="#000000" points="177,-.5 177,-30.5 278,-30.5 278,-.5 177,-.5"/>
<text text-anchor="start" x="185" y="-18.5" font-family="Ubuntu-R" font-size="10.00" fill="#000000">src.nifty.printcool</text>
<text text-anchor="middle" x="227.5" y="-7.5" font-family="Ubuntu-R" font-size="10.00" fill="#000000">_dictionary</text>
</a>
</g>
</g>
<!-- Node2&#45;&gt;Node3 -->
<g id="edge1" class="edge">
<title>Node2&#45;&gt;Node3</title>
<path fill="none" stroke="#191970" d="M141.1922,-15.5C149.756,-15.5 158.4449,-15.5 166.846,-15.5"/>
<polygon fill="#191970" stroke="#191970" points="166.9228,-19.0001 176.9228,-15.5 166.9228,-12.0001 166.9228,-19.0001"/>
</g>
<!-- Node4 -->
<g id="node3" class="node">
<title>Node4</title>
<g id="a_node3"><a xlink:href="namespacesrc_1_1nifty.html#a9bda70a78d0f5d31e10dfffaf85803c9" target="_top" xlink:title="Cool&#45;looking printout for slick formatting of output. ">
<polygon fill="#ffffff" stroke="#000000" points="314,-6 314,-25 415,-25 415,-6 314,-6"/>
<text text-anchor="middle" x="364.5" y="-13" font-family="Ubuntu-R" font-size="10.00" fill="#000000">src.nifty.printcool</text>
</a>
</g>
</g>
<!-- Node3&#45;&gt;Node4 -->
<g id="edge2" class="edge">
<title>Node3&#45;&gt;Node4</title>
<path fill="none" stroke="#191970" d="M278.1245,-15.5C286.3614,-15.5 294.969,-15.5 303.4239,-15.5"/>
<polygon fill="#191970" stroke="#191970" points="303.6262,-19.0001 313.6262,-15.5 303.6262,-12.0001 303.6262,-19.0001"/>
</g>
<!-- Node5 -->
<g id="node4" class="node">
<title>Node5</title>
<g id="a_node4"><a xlink:href="namespacesrc_1_1nifty.html#a6ae2951ba2a22420a11abda6be7e5454" target="_top" xlink:title="src.nifty.warn_press_key">
<polygon fill="#ffffff" stroke="#000000" points="451,-6 451,-25 588,-25 588,-6 451,-6"/>
<text text-anchor="middle" x="519.5" y="-13" font-family="Ubuntu-R" font-size="10.00" fill="#000000">src.nifty.warn_press_key</text>
</a>
</g>
</g>
<!-- Node4&#45;&gt;Node5 -->
<g id="edge3" class="edge">
<title>Node4&#45;&gt;Node5</title>
<path fill="none" stroke="#191970" d="M415.2528,-15.5C423.4389,-15.5 432.0789,-15.5 440.7399,-15.5"/>
<polygon fill="#191970" stroke="#191970" points="440.8908,-19.0001 450.8908,-15.5 440.8907,-12.0001 440.8908,-19.0001"/>
</g>
</g>
</svg>
