<?xml version="1.0" encoding="UTF-8" standalone="no"?>
<!DOCTYPE svg PUBLIC "-//W3C//DTD SVG 1.1//EN"
 "http://www.w3.org/Graphics/SVG/1.1/DTD/svg11.dtd">
<!-- Generated by graphviz version 2.40.1 (20161225.0304)
 -->
<!-- Title: src.hydration.Hydration.get_ti2 Pages: 1 -->
<svg width="305pt" height="104pt"
 viewBox="0.00 0.00 305.00 104.00" xmlns="http://www.w3.org/2000/svg" xmlns:xlink="http://www.w3.org/1999/xlink">
<g id="graph0" class="graph" transform="scale(1 1) rotate(0) translate(4 100)">
<title>src.hydration.Hydration.get_ti2</title>
<polygon fill="#ffffff" stroke="transparent" points="-4,4 -4,-100 301,-100 301,4 -4,4"/>
<!-- Node13 -->
<g id="node1" class="node">
<title>Node13</title>
<polygon fill="#bfbfbf" stroke="#000000" points="0,-38.5 0,-57.5 168,-57.5 168,-38.5 0,-38.5"/>
<text text-anchor="middle" x="84" y="-45.5" font-family="Ubuntu-R" font-size="10.00" fill="#000000">src.hydration.Hydration.get_ti2</text>
</g>
<!-- Node14 -->
<g id="node2" class="node">
<title>Node14</title>
<g id="a_node2"><a xlink:href="namespacesrc_1_1nifty.html#ac39961fd8c4c603c68b53cdd6b577fef" target="_top" xlink:title="Read an object from a bzipped file specified by the path. ">
<polygon fill="#ffffff" stroke="#000000" points="204,-76.5 204,-95.5 297,-95.5 297,-76.5 204,-76.5"/>
<text text-anchor="middle" x="250.5" y="-83.5" font-family="Ubuntu-R" font-size="10.00" fill="#000000">src.nifty.lp_load</text>
</a>
</g>
</g>
<!-- Node13&#45;&gt;Node14 -->
<g id="edge1" class="edge">
<title>Node13&#45;&gt;Node14</title>
<path fill="none" stroke="#191970" d="M126.015,-57.589C148.1844,-62.6487 175.5732,-68.8996 199.011,-74.2488"/>
<polygon fill="#191970" stroke="#191970" points="198.259,-77.6671 208.7871,-76.4799 199.8166,-70.8425 198.259,-77.6671"/>
</g>
<!-- Node15 -->
<g id="node3" class="node">
<title>Node15</title>
<g id="a_node3"><a xlink:href="namespacesrc_1_1nifty.html#ac5b7efc0b11b4fcbb7d0c37c97c4399d" target="_top" xlink:title="Given any list, array, or matrix, return a single&#45;index array. ">
<polygon fill="#ffffff" stroke="#000000" points="213.5,-38.5 213.5,-57.5 287.5,-57.5 287.5,-38.5 213.5,-38.5"/>
<text text-anchor="middle" x="250.5" y="-45.5" font-family="Ubuntu-R" font-size="10.00" fill="#000000">src.nifty.flat</text>
</a>
</g>
</g>
<!-- Node13&#45;&gt;Node15 -->
<g id="edge2" class="edge">
<title>Node13&#45;&gt;Node15</title>
<path fill="none" stroke="#191970" d="M168.2256,-48C180.2059,-48 192.1593,-48 203.0932,-48"/>
<polygon fill="#191970" stroke="#191970" points="203.2314,-51.5001 213.2313,-48 203.2313,-44.5001 203.2314,-51.5001"/>
</g>
<!-- Node16 -->
<g id="node4" class="node">
<title>Node16</title>
<g id="a_node4"><a xlink:href="namespacesrc_1_1nifty.html#a9548285fa85a369d98169ec25abe974c" target="_top" xlink:title="Given any list, array, or matrix, return a 1&#45;column 2D array. ">
<polygon fill="#ffffff" stroke="#000000" points="214.5,-.5 214.5,-19.5 286.5,-19.5 286.5,-.5 214.5,-.5"/>
<text text-anchor="middle" x="250.5" y="-7.5" font-family="Ubuntu-R" font-size="10.00" fill="#000000">src.nifty.col</text>
</a>
</g>
</g>
<!-- Node13&#45;&gt;Node16 -->
<g id="edge3" class="edge">
<title>Node13&#45;&gt;Node16</title>
<path fill="none" stroke="#191970" d="M126.015,-38.411C149.9768,-32.9422 180.0361,-26.0819 204.6135,-20.4726"/>
<polygon fill="#191970" stroke="#191970" points="205.4592,-23.8697 214.4297,-18.2323 203.9016,-17.0452 205.4592,-23.8697"/>
</g>
</g>
</svg>
