<?xml version="1.0" encoding="UTF-8" standalone="no"?>
<!DOCTYPE svg PUBLIC "-//W3C//DTD SVG 1.1//EN"
 "http://www.w3.org/Graphics/SVG/1.1/DTD/svg11.dtd">
<!-- Generated by graphviz version 2.40.1 (20161225.0304)
 -->
<!-- Title: src.target.Target.printcool_table Pages: 1 -->
<svg width="597pt" height="39pt"
 viewBox="0.00 0.00 597.00 39.00" xmlns="http://www.w3.org/2000/svg" xmlns:xlink="http://www.w3.org/1999/xlink">
<g id="graph0" class="graph" transform="scale(1 1) rotate(0) translate(4 35)">
<title>src.target.Target.printcool_table</title>
<polygon fill="#ffffff" stroke="transparent" points="-4,4 -4,-35 593,-35 593,4 -4,4"/>
<!-- Node403 -->
<g id="node1" class="node">
<title>Node403</title>
<polygon fill="#bfbfbf" stroke="#000000" points="0,-.5 0,-30.5 142,-30.5 142,-.5 0,-.5"/>
<text text-anchor="start" x="8" y="-18.5" font-family="Ubuntu-R" font-size="10.00" fill="#000000">src.target.Target.printcool</text>
<text text-anchor="middle" x="71" y="-7.5" font-family="Ubuntu-R" font-size="10.00" fill="#000000">_table</text>
</g>
<!-- Node404 -->
<g id="node2" class="node">
<title>Node404</title>
<g id="a_node2"><a xlink:href="namespacesrc_1_1nifty.html#a78476d8a6da41a734762a4e44c339975" target="_top" xlink:title="See documentation for printcool; this is a nice way to print out keys/values in a dictionary...">
<polygon fill="#ffffff" stroke="#000000" points="178,-.5 178,-30.5 279,-30.5 279,-.5 178,-.5"/>
<text text-anchor="start" x="186" y="-18.5" font-family="Ubuntu-R" font-size="10.00" fill="#000000">src.nifty.printcool</text>
<text text-anchor="middle" x="228.5" y="-7.5" font-family="Ubuntu-R" font-size="10.00" fill="#000000">_dictionary</text>
</a>
</g>
</g>
<!-- Node403&#45;&gt;Node404 -->
<g id="edge1" class="edge">
<title>Node403&#45;&gt;Node404</title>
<path fill="none" stroke="#191970" d="M142.3768,-15.5C150.7322,-15.5 159.1992,-15.5 167.3973,-15.5"/>
<polygon fill="#191970" stroke="#191970" points="167.609,-19.0001 177.6089,-15.5 167.6089,-12.0001 167.609,-19.0001"/>
</g>
<!-- Node405 -->
<g id="node3" class="node">
<title>Node405</title>
<g id="a_node3"><a xlink:href="namespacesrc_1_1nifty.html#a9bda70a78d0f5d31e10dfffaf85803c9" target="_top" xlink:title="Cool&#45;looking printout for slick formatting of output. ">
<polygon fill="#ffffff" stroke="#000000" points="315,-6 315,-25 416,-25 416,-6 315,-6"/>
<text text-anchor="middle" x="365.5" y="-13" font-family="Ubuntu-R" font-size="10.00" fill="#000000">src.nifty.printcool</text>
</a>
</g>
</g>
<!-- Node404&#45;&gt;Node405 -->
<g id="edge2" class="edge">
<title>Node404&#45;&gt;Node405</title>
<path fill="none" stroke="#191970" d="M279.1245,-15.5C287.3614,-15.5 295.969,-15.5 304.4239,-15.5"/>
<polygon fill="#191970" stroke="#191970" points="304.6262,-19.0001 314.6262,-15.5 304.6262,-12.0001 304.6262,-19.0001"/>
</g>
<!-- Node406 -->
<g id="node4" class="node">
<title>Node406</title>
<g id="a_node4"><a xlink:href="namespacesrc_1_1nifty.html#a6ae2951ba2a22420a11abda6be7e5454" target="_top" xlink:title="src.nifty.warn_press_key">
<polygon fill="#ffffff" stroke="#000000" points="452,-6 452,-25 589,-25 589,-6 452,-6"/>
<text text-anchor="middle" x="520.5" y="-13" font-family="Ubuntu-R" font-size="10.00" fill="#000000">src.nifty.warn_press_key</text>
</a>
</g>
</g>
<!-- Node405&#45;&gt;Node406 -->
<g id="edge3" class="edge">
<title>Node405&#45;&gt;Node406</title>
<path fill="none" stroke="#191970" d="M416.2528,-15.5C424.4389,-15.5 433.0789,-15.5 441.7399,-15.5"/>
<polygon fill="#191970" stroke="#191970" points="441.8908,-19.0001 451.8908,-15.5 441.8907,-12.0001 441.8908,-19.0001"/>
</g>
</g>
</svg>
