<?xml version="1.0" encoding="UTF-8" standalone="no"?>
<!DOCTYPE svg PUBLIC "-//W3C//DTD SVG 1.1//EN"
 "http://www.w3.org/Graphics/SVG/1.1/DTD/svg11.dtd">
<!-- Generated by graphviz version 2.32.0 (20130801.1845)
 -->
<!-- Title: forcebalance.optimizer.Optimizer.ScanMVals Pages: 1 -->
<svg width="1164pt" height="166pt"
 viewBox="0.00 0.00 1164.00 166.00" xmlns="http://www.w3.org/2000/svg" xmlns:xlink="http://www.w3.org/1999/xlink">
<g id="graph0" class="graph" transform="scale(1 1) rotate(0) translate(4 162)">
<title>forcebalance.optimizer.Optimizer.ScanMVals</title>
<polygon fill="white" stroke="white" points="-4,5 -4,-162 1161,-162 1161,5 -4,5"/>
<!-- Node1 -->
<g id="node1" class="node"><title>Node1</title>
<polygon fill="#bfbfbf" stroke="black" points="0.282,-75 0.282,-107 153.718,-107 153.718,-75 0.282,-75"/>
<text text-anchor="start" x="8.282" y="-94" font-family="Ubuntu-R" font-size="10.00">forcebalance.optimizer.Optimizer.</text>
<text text-anchor="middle" x="77" y="-82" font-family="Ubuntu-R" font-size="10.00">ScanMVals</text>
</g>
<!-- Node2 -->
<g id="node2" class="node"><title>Node2</title>
<g id="a_node2"><a xlink:href="classforcebalance_1_1optimizer_1_1Optimizer.html#a0c16ad8678a6480e235a45d69fb077d3" target="_top" xlink:title="A single&#45;point Hessian computation.">
<polygon fill="white" stroke="black" points="190.282,-75 190.282,-107 343.718,-107 343.718,-75 190.282,-75"/>
<text text-anchor="start" x="198.282" y="-94" font-family="Ubuntu-R" font-size="10.00">forcebalance.optimizer.Optimizer.</text>
<text text-anchor="middle" x="267" y="-82" font-family="Ubuntu-R" font-size="10.00">Hessian</text>
</a>
</g>
</g>
<!-- Node1&#45;&gt;Node2 -->
<g id="edge1" class="edge"><title>Node1&#45;&gt;Node2</title>
<path fill="none" stroke="midnightblue" d="M153.925,-91C162.495,-91 171.273,-91 179.96,-91"/>
<polygon fill="midnightblue" stroke="midnightblue" points="180.097,-94.5001 190.097,-91 180.097,-87.5001 180.097,-94.5001"/>
</g>
<!-- Node3 -->
<g id="node3" class="node"><title>Node3</title>
<g id="a_node3"><a xlink:href="namespaceforcebalance_1_1finite__difference.html#a9be9f0d21300958092e380514e2e980d" target="_top" xlink:title="A highly accurate seven&#45;point finite difference stencil for computing derivatives of a function...">
<polygon fill="white" stroke="black" points="411.662,-120 411.662,-152 502.338,-152 502.338,-120 411.662,-120"/>
<text text-anchor="start" x="419.662" y="-139" font-family="Ubuntu-R" font-size="10.00">forcebalance.finite</text>
<text text-anchor="middle" x="457" y="-127" font-family="Ubuntu-R" font-size="10.00">_difference.f1d7p</text>
</a>
</g>
</g>
<!-- Node2&#45;&gt;Node3 -->
<g id="edge2" class="edge"><title>Node2&#45;&gt;Node3</title>
<path fill="none" stroke="midnightblue" d="M335.076,-107.055C356.916,-112.283 380.874,-118.018 401.662,-122.994"/>
<polygon fill="midnightblue" stroke="midnightblue" points="401.049,-126.446 411.589,-125.37 402.679,-119.638 401.049,-126.446"/>
</g>
<!-- Node7 -->
<g id="node7" class="node"><title>Node7</title>
<g id="a_node7"><a xlink:href="namespaceforcebalance_1_1finite__difference.html#ae484c591ae8c4e5bae73a0ef2660c339" target="_top" xlink:title="A function wrapper for finite difference designed for differentiating &#39;get&#39;&#45;type functions.">
<polygon fill="white" stroke="black" points="921.831,-75 921.831,-107 1014.17,-107 1014.17,-75 921.831,-75"/>
<text text-anchor="start" x="929.831" y="-94" font-family="Ubuntu-R" font-size="10.00">forcebalance.finite</text>
<text text-anchor="middle" x="968" y="-82" font-family="Ubuntu-R" font-size="10.00">_difference.fdwrap</text>
</a>
</g>
</g>
<!-- Node2&#45;&gt;Node7 -->
<g id="edge10" class="edge"><title>Node2&#45;&gt;Node7</title>
<path fill="none" stroke="midnightblue" d="M343.802,-91C485.434,-91 787.127,-91 911.564,-91"/>
<polygon fill="midnightblue" stroke="midnightblue" points="911.631,-94.5001 921.631,-91 911.631,-87.5001 911.631,-94.5001"/>
</g>
<!-- Node10 -->
<g id="node10" class="node"><title>Node10</title>
<g id="a_node10"><a xlink:href="classforcebalance_1_1optimizer_1_1Optimizer.html#adb86c1f6580bb088a23563a6103986fe" target="_top" xlink:title="Finite&#45;difference checker for the objective function Hessian.">
<polygon fill="white" stroke="black" points="380.282,-30 380.282,-62 533.718,-62 533.718,-30 380.282,-30"/>
<text text-anchor="start" x="388.282" y="-49" font-family="Ubuntu-R" font-size="10.00">forcebalance.optimizer.Optimizer.</text>
<text text-anchor="middle" x="457" y="-37" font-family="Ubuntu-R" font-size="10.00">FDCheckH</text>
</a>
</g>
</g>
<!-- Node2&#45;&gt;Node10 -->
<g id="edge11" class="edge"><title>Node2&#45;&gt;Node10</title>
<path fill="none" stroke="midnightblue" d="M335.076,-74.9445C349.299,-71.5402 364.42,-67.9208 378.978,-64.436"/>
<polygon fill="midnightblue" stroke="midnightblue" points="380.039,-67.781 388.95,-62.0493 378.41,-60.9733 380.039,-67.781"/>
</g>
<!-- Node4 -->
<g id="node4" class="node"><title>Node4</title>
<g id="a_node4"><a xlink:href="namespaceforcebalance_1_1finite__difference.html#acc281f85b668062745f711d9b4a610fa" target="_top" xlink:title="forcebalance.finite\l_difference.f12d7p">
<polygon fill="white" stroke="black" points="617.824,-120 617.824,-152 710.176,-152 710.176,-120 617.824,-120"/>
<text text-anchor="start" x="625.824" y="-139" font-family="Ubuntu-R" font-size="10.00">forcebalance.finite</text>
<text text-anchor="middle" x="664" y="-127" font-family="Ubuntu-R" font-size="10.00">_difference.f12d7p</text>
</a>
</g>
</g>
<!-- Node3&#45;&gt;Node4 -->
<g id="edge3" class="edge"><title>Node3&#45;&gt;Node4</title>
<path fill="none" stroke="midnightblue" d="M502.482,-136C533.191,-136 574.259,-136 607.167,-136"/>
<polygon fill="midnightblue" stroke="midnightblue" points="607.542,-139.5 617.542,-136 607.542,-132.5 607.542,-139.5"/>
</g>
<!-- Node5 -->
<g id="node5" class="node"><title>Node5</title>
<g id="a_node5"><a xlink:href="namespaceforcebalance_1_1finite__difference.html#aa69a8819e4680091f400303c1d6ddeb7" target="_top" xlink:title="A three&#45;point finite difference stencil.">
<polygon fill="white" stroke="black" points="793.824,-120 793.824,-152 886.176,-152 886.176,-120 793.824,-120"/>
<text text-anchor="start" x="801.824" y="-139" font-family="Ubuntu-R" font-size="10.00">forcebalance.finite</text>
<text text-anchor="middle" x="840" y="-127" font-family="Ubuntu-R" font-size="10.00">_difference.f12d3p</text>
</a>
</g>
</g>
<!-- Node4&#45;&gt;Node5 -->
<g id="edge4" class="edge"><title>Node4&#45;&gt;Node5</title>
<path fill="none" stroke="midnightblue" d="M710.262,-136C732.629,-136 759.82,-136 783.439,-136"/>
<polygon fill="midnightblue" stroke="midnightblue" points="783.662,-139.5 793.662,-136 783.662,-132.5 783.662,-139.5"/>
</g>
<!-- Node6 -->
<g id="node6" class="node"><title>Node6</title>
<g id="a_node6"><a xlink:href="namespaceforcebalance_1_1finite__difference.html#ad84d3e385db1190e7d8ef58bc08a6c52" target="_top" xlink:title="Invoking this function from anywhere will tell us whether we&#39;re being called by a finite&#45;difference f...">
<polygon fill="white" stroke="black" points="922.662,-126 922.662,-158 1013.34,-158 1013.34,-126 922.662,-126"/>
<text text-anchor="start" x="930.662" y="-145" font-family="Ubuntu-R" font-size="10.00">forcebalance.finite</text>
<text text-anchor="middle" x="968" y="-133" font-family="Ubuntu-R" font-size="10.00">_difference.in_fd</text>
</a>
</g>
</g>
<!-- Node5&#45;&gt;Node6 -->
<g id="edge5" class="edge"><title>Node5&#45;&gt;Node6</title>
<path fill="none" stroke="midnightblue" d="M886.489,-138.166C894.899,-138.567 903.762,-138.989 912.409,-139.4"/>
<polygon fill="midnightblue" stroke="midnightblue" points="912.267,-142.898 922.422,-139.877 912.6,-135.905 912.267,-142.898"/>
</g>
<!-- Node5&#45;&gt;Node7 -->
<g id="edge6" class="edge"><title>Node5&#45;&gt;Node7</title>
<path fill="none" stroke="midnightblue" d="M886.133,-119.881C894.741,-116.807 903.835,-113.559 912.694,-110.395"/>
<polygon fill="midnightblue" stroke="midnightblue" points="913.942,-113.666 922.182,-107.006 911.587,-107.074 913.942,-113.666"/>
</g>
<!-- Node8 -->
<g id="node8" class="node"><title>Node8</title>
<g id="a_node8"><a xlink:href="namespaceforcebalance_1_1finite__difference.html#a00322fb65860c390616f74d05037c797" target="_top" xlink:title="A driver to fdwrap for gradients (see documentation for fdwrap) Inputs: tgt = The Target containing t...">
<polygon fill="white" stroke="black" points="1050.72,-75 1050.72,-107 1155.28,-107 1155.28,-75 1050.72,-75"/>
<text text-anchor="start" x="1058.72" y="-94" font-family="Ubuntu-R" font-size="10.00">forcebalance.finite</text>
<text text-anchor="middle" x="1103" y="-82" font-family="Ubuntu-R" font-size="10.00">_difference.fdwrap_G</text>
</a>
</g>
</g>
<!-- Node7&#45;&gt;Node8 -->
<g id="edge7" class="edge"><title>Node7&#45;&gt;Node8</title>
<path fill="none" stroke="midnightblue" d="M1014.4,-84.5616C1022.73,-84.3077 1031.55,-84.2089 1040.26,-84.2654"/>
<polygon fill="midnightblue" stroke="midnightblue" points="1040.36,-87.7669 1050.4,-84.403 1040.45,-80.7676 1040.36,-87.7669"/>
</g>
<!-- Node9 -->
<g id="node9" class="node"><title>Node9</title>
<g id="a_node9"><a xlink:href="namespaceforcebalance_1_1finite__difference.html#a77a0bc1ae3cbbcc8d38a0ef9ca877d6d" target="_top" xlink:title="A driver to fdwrap for Hessians (see documentation for fdwrap) Inputs: tgt = The Target containing th...">
<polygon fill="white" stroke="black" points="1050.72,-24 1050.72,-56 1155.28,-56 1155.28,-24 1050.72,-24"/>
<text text-anchor="start" x="1058.72" y="-43" font-family="Ubuntu-R" font-size="10.00">forcebalance.finite</text>
<text text-anchor="middle" x="1103" y="-31" font-family="Ubuntu-R" font-size="10.00">_difference.fdwrap_H</text>
</a>
</g>
</g>
<!-- Node7&#45;&gt;Node9 -->
<g id="edge9" class="edge"><title>Node7&#45;&gt;Node9</title>
<path fill="none" stroke="midnightblue" d="M1011.08,-74.8633C1023.7,-70.0258 1037.67,-64.6663 1050.81,-59.6299"/>
<polygon fill="midnightblue" stroke="midnightblue" points="1052.11,-62.8802 1060.19,-56.0317 1049.6,-56.3442 1052.11,-62.8802"/>
</g>
<!-- Node8&#45;&gt;Node7 -->
<g id="edge8" class="edge"><title>Node8&#45;&gt;Node7</title>
<path fill="none" stroke="midnightblue" d="M1050.4,-97.597C1041.96,-97.773 1033.18,-97.7972 1024.65,-97.6695"/>
<polygon fill="midnightblue" stroke="midnightblue" points="1024.48,-94.1648 1014.4,-97.4384 1024.32,-101.163 1024.48,-94.1648"/>
</g>
<!-- Node11 -->
<g id="node11" class="node"><title>Node11</title>
<g id="a_node11"><a xlink:href="classforcebalance_1_1optimizer_1_1Optimizer.html#a05ee5fe985b3e2ec71071ca061e42d66" target="_top" xlink:title="Read the checkpoint file for the main optimizer.">
<polygon fill="white" stroke="black" points="571.459,-39 571.459,-59 756.541,-59 756.541,-39 571.459,-39"/>
<text text-anchor="middle" x="664" y="-46" font-family="Ubuntu-R" font-size="10.00">forcebalance.optimizer.Optimizer.readchk</text>
</a>
</g>
</g>
<!-- Node10&#45;&gt;Node11 -->
<g id="edge12" class="edge"><title>Node10&#45;&gt;Node11</title>
<path fill="none" stroke="midnightblue" d="M533.752,-47.1086C542.714,-47.2397 551.97,-47.3752 561.218,-47.5105"/>
<polygon fill="midnightblue" stroke="midnightblue" points="561.185,-51.0103 571.236,-47.6571 561.288,-44.0111 561.185,-51.0103"/>
</g>
<!-- Node12 -->
<g id="node12" class="node"><title>Node12</title>
<g id="a_node12"><a xlink:href="classforcebalance_1_1optimizer_1_1Optimizer.html#aa7ac7cda43b70ac58ccbd6c8445e88ef" target="_top" xlink:title="Write the checkpoint file for the main optimizer.">
<polygon fill="white" stroke="black" points="569.79,-0 569.79,-20 758.21,-20 758.21,-0 569.79,-0"/>
<text text-anchor="middle" x="664" y="-7" font-family="Ubuntu-R" font-size="10.00">forcebalance.optimizer.Optimizer.writechk</text>
</a>
</g>
</g>
<!-- Node10&#45;&gt;Node12 -->
<g id="edge13" class="edge"><title>Node10&#45;&gt;Node12</title>
<path fill="none" stroke="midnightblue" d="M533.752,-32.6972C554.144,-29.1161 576.056,-25.2683 595.938,-21.7767"/>
<polygon fill="midnightblue" stroke="midnightblue" points="596.581,-25.2175 605.825,-20.0405 595.37,-18.323 596.581,-25.2175"/>
</g>
</g>
</svg>
