<?xml version="1.0" encoding="UTF-8" standalone="no"?>
<!DOCTYPE svg PUBLIC "-//W3C//DTD SVG 1.1//EN"
 "http://www.w3.org/Graphics/SVG/1.1/DTD/svg11.dtd">
<!-- Generated by graphviz version 2.40.1 (20161225.0304)
 -->
<!-- Title: src.evaluator_io.Evaluator_SMIRNOFF.get Pages: 1 -->
<svg width="374pt" height="39pt"
 viewBox="0.00 0.00 374.00 39.00" xmlns="http://www.w3.org/2000/svg" xmlns:xlink="http://www.w3.org/1999/xlink">
<g id="graph0" class="graph" transform="scale(1 1) rotate(0) translate(4 35)">
<title>src.evaluator_io.Evaluator_SMIRNOFF.get</title>
<polygon fill="#ffffff" stroke="transparent" points="-4,4 -4,-35 370,-35 370,4 -4,4"/>
<!-- Node8 -->
<g id="node1" class="node">
<title>Node8</title>
<polygon fill="#bfbfbf" stroke="#000000" points="0,-.5 0,-30.5 144,-30.5 144,-.5 0,-.5"/>
<text text-anchor="start" x="8" y="-18.5" font-family="Ubuntu-R" font-size="10.00" fill="#000000">src.evaluator_io.Evaluator</text>
<text text-anchor="middle" x="72" y="-7.5" font-family="Ubuntu-R" font-size="10.00" fill="#000000">_SMIRNOFF.get</text>
</g>
<!-- Node9 -->
<g id="node2" class="node">
<title>Node9</title>
<g id="a_node2"><a xlink:href="classsrc_1_1evaluator__io_1_1Evaluator__SMIRNOFF.html#ad59109d64ba6cf9de70de1d9bb1ed68e" target="_top" xlink:title="Extract the property estimates #and their gradients# from a relevant evaluator request object...">
<polygon fill="#ffffff" stroke="#000000" points="180,-.5 180,-30.5 366,-30.5 366,-.5 180,-.5"/>
<text text-anchor="start" x="188" y="-18.5" font-family="Ubuntu-R" font-size="10.00" fill="#000000">src.evaluator_io.Evaluator</text>
<text text-anchor="middle" x="273" y="-7.5" font-family="Ubuntu-R" font-size="10.00" fill="#000000">_SMIRNOFF._extract_property_data</text>
</a>
</g>
</g>
<!-- Node8&#45;&gt;Node9 -->
<g id="edge1" class="edge">
<title>Node8&#45;&gt;Node9</title>
<path fill="none" stroke="#191970" d="M144.2816,-15.5C152.5328,-15.5 161.0602,-15.5 169.6154,-15.5"/>
<polygon fill="#191970" stroke="#191970" points="169.6565,-19.0001 179.6565,-15.5 169.6564,-12.0001 169.6565,-19.0001"/>
</g>
</g>
</svg>
