<?xml version="1.0" encoding="UTF-8" standalone="no"?>
<!DOCTYPE svg PUBLIC "-//W3C//DTD SVG 1.1//EN"
 "http://www.w3.org/Graphics/SVG/1.1/DTD/svg11.dtd">
<!-- Generated by graphviz version 2.26.3 (20100126.1600)
 -->
<!-- Title: forcebalance.abinitio.AbInitio Pages: 1 -->
<svg width="806pt" height="238pt"
 viewBox="0.00 0.00 806.00 238.00" xmlns="http://www.w3.org/2000/svg" xmlns:xlink="http://www.w3.org/1999/xlink">
<g id="graph1" class="graph" transform="scale(1 1) rotate(0) translate(4 234)">
<title>forcebalance.abinitio.AbInitio</title>
<polygon fill="white" stroke="white" points="-4,5 -4,-234 803,-234 803,5 -4,5"/>
<!-- Node1 -->
<g id="node1" class="node"><title>Node1</title>
<polygon fill="#bfbfbf" stroke="black" points="454.5,-98 454.5,-132 585.5,-132 585.5,-98 454.5,-98"/>
<text text-anchor="start" x="462.5" y="-119" font-family="Ubuntu-R" font-size="10.00">forcebalance.abinitio.Ab</text>
<text text-anchor="middle" x="520" y="-106" font-family="Ubuntu-R" font-size="10.00">Initio</text>
</g>
<!-- Node5 -->
<g id="node9" class="node"><title>Node5</title>
<a xlink:href="classforcebalance_1_1abinitio__internal_1_1AbInitio__Internal.html" target="_top" xlink:title="Subclass of Target for force and energy matching using an internal implementation.">
<polygon fill="white" stroke="black" points="641.5,-196 641.5,-230 778.5,-230 778.5,-196 641.5,-196"/>
<text text-anchor="start" x="649.5" y="-217" font-family="Ubuntu-R" font-size="10.00">forcebalance.abinitio</text>
<text text-anchor="middle" x="710" y="-204" font-family="Ubuntu-R" font-size="10.00">_internal.AbInitio_Internal</text>
</a>
</g>
<!-- Node1&#45;&gt;Node5 -->
<g id="edge8" class="edge"><title>Node1&#45;&gt;Node5</title>
<path fill="none" stroke="midnightblue" d="M547.769,-138.396C567.442,-153.987 595.029,-173.939 622,-187 628.882,-190.333 636.277,-193.33 643.751,-196"/>
<polygon fill="midnightblue" stroke="midnightblue" points="549.83,-135.562 539.847,-132.013 545.439,-141.013 549.83,-135.562"/>
</g>
<!-- Node6 -->
<g id="node11" class="node"><title>Node6</title>
<a xlink:href="classforcebalance_1_1amberio_1_1AbInitio__AMBER.html" target="_top" xlink:title="Subclass of Target for force and energy matching using AMBER.">
<polygon fill="white" stroke="black" points="630.5,-144 630.5,-178 789.5,-178 789.5,-144 630.5,-144"/>
<text text-anchor="start" x="638.5" y="-165" font-family="Ubuntu-R" font-size="10.00">forcebalance.amberio.AbInitio</text>
<text text-anchor="middle" x="710" y="-152" font-family="Ubuntu-R" font-size="10.00">_AMBER</text>
</a>
</g>
<!-- Node1&#45;&gt;Node6 -->
<g id="edge10" class="edge"><title>Node1&#45;&gt;Node6</title>
<path fill="none" stroke="midnightblue" d="M595.563,-133.294C610.048,-136.801 625.163,-140.461 639.482,-143.927"/>
<polygon fill="midnightblue" stroke="midnightblue" points="596.196,-129.846 585.653,-130.895 594.549,-136.65 596.196,-129.846"/>
</g>
<!-- Node7 -->
<g id="node13" class="node"><title>Node7</title>
<a xlink:href="classforcebalance_1_1gmxio_1_1AbInitio__GMX.html" target="_top" xlink:title="Subclass of AbInitio for force and energy matching using normal GROMACS.">
<polygon fill="white" stroke="black" points="622.5,-104.5 622.5,-125.5 797.5,-125.5 797.5,-104.5 622.5,-104.5"/>
<text text-anchor="middle" x="710" y="-112.5" font-family="Ubuntu-R" font-size="10.00">forcebalance.gmxio.AbInitio_GMX</text>
</a>
</g>
<!-- Node1&#45;&gt;Node7 -->
<g id="edge12" class="edge"><title>Node1&#45;&gt;Node7</title>
<path fill="none" stroke="midnightblue" d="M595.749,-115C604.453,-115 613.382,-115 622.227,-115"/>
<polygon fill="midnightblue" stroke="midnightblue" points="595.653,-111.5 585.653,-115 595.653,-118.5 595.653,-111.5"/>
</g>
<!-- Node8 -->
<g id="node15" class="node"><title>Node8</title>
<a xlink:href="classforcebalance_1_1openmmio_1_1AbInitio__OpenMM.html" target="_top" xlink:title="Subclass of AbInitio for force and energy matching using OpenMM.">
<polygon fill="white" stroke="black" points="636,-52 636,-86 784,-86 784,-52 636,-52"/>
<text text-anchor="start" x="644" y="-73" font-family="Ubuntu-R" font-size="10.00">forcebalance.openmmio.Ab</text>
<text text-anchor="middle" x="710" y="-60" font-family="Ubuntu-R" font-size="10.00">Initio_OpenMM</text>
</a>
</g>
<!-- Node1&#45;&gt;Node8 -->
<g id="edge14" class="edge"><title>Node1&#45;&gt;Node8</title>
<path fill="none" stroke="midnightblue" d="M595.563,-96.7057C610.048,-93.1988 625.163,-89.5394 639.482,-86.0728"/>
<polygon fill="midnightblue" stroke="midnightblue" points="594.549,-93.3501 585.653,-99.105 596.196,-100.154 594.549,-93.3501"/>
</g>
<!-- Node9 -->
<g id="node17" class="node"><title>Node9</title>
<a xlink:href="classforcebalance_1_1tinkerio_1_1AbInitio__TINKER.html" target="_top" xlink:title="Subclass of Target for force and energy matching using TINKER.">
<polygon fill="white" stroke="black" points="644.5,-0 644.5,-34 775.5,-34 775.5,-0 644.5,-0"/>
<text text-anchor="start" x="652.5" y="-21" font-family="Ubuntu-R" font-size="10.00">forcebalance.tinkerio.Ab</text>
<text text-anchor="middle" x="710" y="-8" font-family="Ubuntu-R" font-size="10.00">Initio_TINKER</text>
</a>
</g>
<!-- Node1&#45;&gt;Node9 -->
<g id="edge16" class="edge"><title>Node1&#45;&gt;Node9</title>
<path fill="none" stroke="midnightblue" d="M547.769,-91.6045C567.442,-76.013 595.029,-56.0607 622,-43 629.026,-39.5978 636.586,-36.5455 644.218,-33.8337"/>
<polygon fill="midnightblue" stroke="midnightblue" points="545.439,-88.9873 539.847,-97.9867 549.83,-94.4383 545.439,-88.9873"/>
</g>
<!-- Node2 -->
<g id="node2" class="node"><title>Node2</title>
<a xlink:href="classforcebalance_1_1target_1_1Target.html" target="_top" xlink:title="Base class for all fitting targets.">
<polygon fill="white" stroke="black" points="276,-104.5 276,-125.5 418,-125.5 418,-104.5 276,-104.5"/>
<text text-anchor="middle" x="347" y="-112.5" font-family="Ubuntu-R" font-size="10.00">forcebalance.target.Target</text>
</a>
</g>
<!-- Node2&#45;&gt;Node1 -->
<g id="edge2" class="edge"><title>Node2&#45;&gt;Node1</title>
<path fill="none" stroke="midnightblue" d="M428.49,-115C437.159,-115 445.895,-115 454.349,-115"/>
<polygon fill="midnightblue" stroke="midnightblue" points="428.365,-111.5 418.365,-115 428.364,-118.5 428.365,-111.5"/>
</g>
<!-- Node3 -->
<g id="node4" class="node"><title>Node3</title>
<a xlink:href="classforcebalance_1_1baseclass_1_1ForceBalanceBaseClass.html" target="_top" xlink:title="Provides some nifty functions that are common to all ForceBalance classes.">
<polygon fill="white" stroke="black" points="82.5,-98 82.5,-132 239.5,-132 239.5,-98 82.5,-98"/>
<text text-anchor="start" x="90.5" y="-119" font-family="Ubuntu-R" font-size="10.00">forcebalance.baseclass.Force</text>
<text text-anchor="middle" x="161" y="-106" font-family="Ubuntu-R" font-size="10.00">BalanceBaseClass</text>
</a>
</g>
<!-- Node3&#45;&gt;Node2 -->
<g id="edge4" class="edge"><title>Node3&#45;&gt;Node2</title>
<path fill="none" stroke="midnightblue" d="M249.793,-115C258.501,-115 267.259,-115 275.759,-115"/>
<polygon fill="midnightblue" stroke="midnightblue" points="249.611,-111.5 239.611,-115 249.611,-118.5 249.611,-111.5"/>
</g>
<!-- Node4 -->
<g id="node6" class="node"><title>Node4</title>
<polygon fill="white" stroke="#bfbfbf" points="0,-104.5 0,-125.5 46,-125.5 46,-104.5 0,-104.5"/>
<text text-anchor="middle" x="23" y="-112.5" font-family="Ubuntu-R" font-size="10.00">object</text>
</g>
<!-- Node4&#45;&gt;Node3 -->
<g id="edge6" class="edge"><title>Node4&#45;&gt;Node3</title>
<path fill="none" stroke="midnightblue" d="M56.1325,-115C64.2064,-115 73.1878,-115 82.402,-115"/>
<polygon fill="midnightblue" stroke="midnightblue" points="56.0981,-111.5 46.0981,-115 56.0981,-118.5 56.0981,-111.5"/>
</g>
</g>
</svg>
