<?xml version="1.0" encoding="UTF-8" standalone="no"?>
<!DOCTYPE svg PUBLIC "-//W3C//DTD SVG 1.1//EN"
 "http://www.w3.org/Graphics/SVG/1.1/DTD/svg11.dtd">
<!-- Generated by graphviz version 2.26.3 (20100126.1600)
 -->
<!-- Title: forcebalance.gmxio.AbInitio_GMX.__init__ Pages: 1 -->
<svg width="1116pt" height="174pt"
 viewBox="0.00 0.00 1116.00 174.42" xmlns="http://www.w3.org/2000/svg" xmlns:xlink="http://www.w3.org/1999/xlink">
<g id="graph1" class="graph" transform="scale(1 1) rotate(0) translate(4 170.421)">
<title>forcebalance.gmxio.AbInitio_GMX.__init__</title>
<polygon fill="white" stroke="white" points="-4,5 -4,-170.421 1113,-170.421 1113,5 -4,5"/>
<!-- Node1 -->
<g id="node1" class="node"><title>Node1</title>
<polygon fill="#bfbfbf" stroke="black" points="0,-17 0,-51 148,-51 148,-17 0,-17"/>
<text text-anchor="start" x="8" y="-38" font-family="Ubuntu-R" font-size="10.00">forcebalance.gmxio.AbInitio</text>
<text text-anchor="middle" x="74" y="-25" font-family="Ubuntu-R" font-size="10.00">_GMX.__init__</text>
</g>
<!-- Node2 -->
<g id="node3" class="node"><title>Node2</title>
<a xlink:href="classforcebalance_1_1gmxio_1_1AbInitio__GMX.html#aba138ca4195a1737f2f00bd8c5f3ca07" target="_top" xlink:title="This function parses the GROMACS topology file (.top) which contains a listing of the molecules in th...">
<polygon fill="white" stroke="black" points="184,-51 184,-85 332,-85 332,-51 184,-51"/>
<text text-anchor="start" x="192" y="-72" font-family="Ubuntu-R" font-size="10.00">forcebalance.gmxio.AbInitio</text>
<text text-anchor="middle" x="258" y="-59" font-family="Ubuntu-R" font-size="10.00">_GMX.read_topology</text>
</a>
</g>
<!-- Node1&#45;&gt;Node2 -->
<g id="edge2" class="edge"><title>Node1&#45;&gt;Node2</title>
<path fill="none" stroke="midnightblue" d="M148.044,-47.6821C156.514,-49.2471 165.195,-50.8512 173.784,-52.4384"/>
<polygon fill="midnightblue" stroke="midnightblue" points="173.338,-55.9151 183.808,-54.2905 174.61,-49.0316 173.338,-55.9151"/>
</g>
<!-- Node3 -->
<g id="node5" class="node"><title>Node3</title>
<a xlink:href="classforcebalance_1_1gmxio_1_1AbInitio__GMX.html#ab2eac76585bdb8401812f0c8e465a44e" target="_top" xlink:title="forcebalance.gmxio.AbInitio\l_GMX.prepare_temp_directory">
<polygon fill="white" stroke="black" points="368.5,-74 368.5,-108 529.5,-108 529.5,-74 368.5,-74"/>
<text text-anchor="start" x="376.5" y="-95" font-family="Ubuntu-R" font-size="10.00">forcebalance.gmxio.AbInitio</text>
<text text-anchor="middle" x="449" y="-82" font-family="Ubuntu-R" font-size="10.00">_GMX.prepare_temp_directory</text>
</a>
</g>
<!-- Node2&#45;&gt;Node3 -->
<g id="edge4" class="edge"><title>Node2&#45;&gt;Node3</title>
<path fill="none" stroke="midnightblue" d="M332.119,-76.9253C340.636,-77.9509 349.391,-79.0053 358.096,-80.0535"/>
<polygon fill="midnightblue" stroke="midnightblue" points="357.927,-83.5583 368.274,-81.2791 358.764,-76.6085 357.927,-83.5583"/>
</g>
<!-- Node4 -->
<g id="node7" class="node"><title>Node4</title>
<a xlink:href="namespaceforcebalance_1_1nifty.html#abb8f59044961a12588e0653c2baa8b01" target="_top" xlink:title="forcebalance.nifty.warn\l_press_key">
<polygon fill="white" stroke="black" points="577.5,-120 577.5,-154 702.5,-154 702.5,-120 577.5,-120"/>
<text text-anchor="start" x="585.5" y="-141" font-family="Ubuntu-R" font-size="10.00">forcebalance.nifty.warn</text>
<text text-anchor="middle" x="640" y="-128" font-family="Ubuntu-R" font-size="10.00">_press_key</text>
</a>
</g>
<!-- Node3&#45;&gt;Node4 -->
<g id="edge6" class="edge"><title>Node3&#45;&gt;Node4</title>
<path fill="none" stroke="midnightblue" d="M519.85,-108.063C535.352,-111.797 551.784,-115.754 567.355,-119.504"/>
<polygon fill="midnightblue" stroke="midnightblue" points="566.902,-122.995 577.444,-121.934 568.541,-116.19 566.902,-122.995"/>
</g>
<!-- Node5 -->
<g id="node9" class="node"><title>Node5</title>
<a xlink:href="namespaceforcebalance_1_1nifty.html#ab182a9da2a2f42cf45942fbee6acf9b1" target="_top" xlink:title="forcebalance.nifty.LinkFile">
<polygon fill="white" stroke="black" points="572,-80.5 572,-101.5 708,-101.5 708,-80.5 572,-80.5"/>
<text text-anchor="middle" x="640" y="-88.5" font-family="Ubuntu-R" font-size="10.00">forcebalance.nifty.LinkFile</text>
</a>
</g>
<!-- Node3&#45;&gt;Node5 -->
<g id="edge8" class="edge"><title>Node3&#45;&gt;Node5</title>
<path fill="none" stroke="midnightblue" d="M529.724,-91C540.372,-91 551.27,-91 561.873,-91"/>
<polygon fill="midnightblue" stroke="midnightblue" points="561.93,-94.5001 571.93,-91 561.93,-87.5001 561.93,-94.5001"/>
</g>
<!-- Node7 -->
<g id="node13" class="node"><title>Node7</title>
<a xlink:href="classforcebalance_1_1gmxio_1_1AbInitio__GMX.html#a4bc31d1c02d47749d26b14779f025ebd" target="_top" xlink:title="Computes the energy and force using GROMACS for a single snapshot.">
<polygon fill="white" stroke="black" points="566,-28 566,-62 714,-62 714,-28 566,-28"/>
<text text-anchor="start" x="574" y="-49" font-family="Ubuntu-R" font-size="10.00">forcebalance.gmxio.AbInitio</text>
<text text-anchor="middle" x="640" y="-36" font-family="Ubuntu-R" font-size="10.00">_GMX.energy_force_driver</text>
</a>
</g>
<!-- Node3&#45;&gt;Node7 -->
<g id="edge12" class="edge"><title>Node3&#45;&gt;Node7</title>
<path fill="none" stroke="midnightblue" d="M519.85,-73.9367C532.709,-70.8397 546.209,-67.5885 559.325,-64.4295"/>
<polygon fill="midnightblue" stroke="midnightblue" points="560.362,-67.78 569.265,-62.0358 558.723,-60.9746 560.362,-67.78"/>
</g>
<!-- Node10 -->
<g id="node20" class="node"><title>Node10</title>
<a xlink:href="namespaceforcebalance_1_1gmxio.html#acac8488f29b62fb0d4cb54bb5a041026" target="_top" xlink:title="forcebalance.gmxio.rm\l_gmx_baks">
<polygon fill="white" stroke="black" points="962,-73 962,-107 1088,-107 1088,-73 962,-73"/>
<text text-anchor="start" x="970" y="-94" font-family="Ubuntu-R" font-size="10.00">forcebalance.gmxio.rm</text>
<text text-anchor="middle" x="1025" y="-81" font-family="Ubuntu-R" font-size="10.00">_gmx_baks</text>
</a>
</g>
<!-- Node3&#45;&gt;Node10 -->
<g id="edge24" class="edge"><title>Node3&#45;&gt;Node10</title>
<path fill="none" stroke="midnightblue" d="M468.889,-108.086C490.932,-125.795 528.364,-152.347 566,-163 587.849,-169.184 889.392,-165.671 906,-161 939.473,-151.585 973.081,-130.169 996.003,-113.305"/>
<polygon fill="midnightblue" stroke="midnightblue" points="998.36,-115.911 1004.24,-107.099 994.148,-110.32 998.36,-115.911"/>
</g>
<!-- Node6 -->
<g id="node11" class="node"><title>Node6</title>
<a xlink:href="namespaceforcebalance_1_1nifty.html#a25efa4d501ad852a234721af18978f7e" target="_top" xlink:title="Remove the file if it exists (doesn&#39;t return an error).">
<polygon fill="white" stroke="black" points="758.5,-118 758.5,-152 897.5,-152 897.5,-118 758.5,-118"/>
<text text-anchor="start" x="766.5" y="-139" font-family="Ubuntu-R" font-size="10.00">forcebalance.nifty.remove</text>
<text text-anchor="middle" x="828" y="-126" font-family="Ubuntu-R" font-size="10.00">_if_exists</text>
</a>
</g>
<!-- Node5&#45;&gt;Node6 -->
<g id="edge10" class="edge"><title>Node5&#45;&gt;Node6</title>
<path fill="none" stroke="midnightblue" d="M685.031,-101.539C704.059,-105.993 726.803,-111.316 748.491,-116.392"/>
<polygon fill="midnightblue" stroke="midnightblue" points="747.831,-119.831 758.365,-118.702 749.426,-113.016 747.831,-119.831"/>
</g>
<!-- Node8 -->
<g id="node15" class="node"><title>Node8</title>
<a xlink:href="classforcebalance_1_1gmxio_1_1AbInitio__GMX.html#a6e43c323b2286c546ff8afd3377f8808" target="_top" xlink:title="Computes the energy and force using GROMACS for a trajectory.">
<polygon fill="white" stroke="black" points="750,-28 750,-62 906,-62 906,-28 750,-28"/>
<text text-anchor="start" x="758" y="-49" font-family="Ubuntu-R" font-size="10.00">forcebalance.gmxio.AbInitio</text>
<text text-anchor="middle" x="828" y="-36" font-family="Ubuntu-R" font-size="10.00">_GMX.energy_force_driver_all</text>
</a>
</g>
<!-- Node7&#45;&gt;Node8 -->
<g id="edge14" class="edge"><title>Node7&#45;&gt;Node8</title>
<path fill="none" stroke="midnightblue" d="M714.033,-45C722.452,-45 731.095,-45 739.675,-45"/>
<polygon fill="midnightblue" stroke="midnightblue" points="739.702,-48.5001 749.701,-45 739.701,-41.5001 739.702,-48.5001"/>
</g>
<!-- Node7&#45;&gt;Node10 -->
<g id="edge22" class="edge"><title>Node7&#45;&gt;Node10</title>
<path fill="none" stroke="midnightblue" d="M704.22,-62.0346C719.157,-65.4788 735.061,-68.7339 750,-71 817.928,-81.3041 896.155,-86.0265 951.766,-88.1871"/>
<polygon fill="midnightblue" stroke="midnightblue" points="951.756,-91.6891 961.879,-88.5615 952.015,-84.6939 951.756,-91.6891"/>
</g>
<!-- Node9 -->
<g id="node17" class="node"><title>Node9</title>
<a xlink:href="classforcebalance_1_1gmxio_1_1AbInitio__GMX.html#ae17e3c379d82935d725dd31f01df23e5" target="_top" xlink:title="Call mdrun in order to update the virtual site positions.">
<polygon fill="white" stroke="black" points="942,-2 942,-36 1108,-36 1108,-2 942,-2"/>
<text text-anchor="start" x="950" y="-23" font-family="Ubuntu-R" font-size="10.00">forcebalance.gmxio.AbInitio</text>
<text text-anchor="middle" x="1025" y="-10" font-family="Ubuntu-R" font-size="10.00">_GMX.generate_vsite_positions</text>
</a>
</g>
<!-- Node8&#45;&gt;Node9 -->
<g id="edge16" class="edge"><title>Node8&#45;&gt;Node9</title>
<path fill="none" stroke="midnightblue" d="M906.143,-34.6868C914.559,-33.576 923.182,-32.4379 931.752,-31.3068"/>
<polygon fill="midnightblue" stroke="midnightblue" points="932.317,-34.7628 941.773,-29.9843 931.401,-27.8229 932.317,-34.7628"/>
</g>
<!-- Node8&#45;&gt;Node10 -->
<g id="edge20" class="edge"><title>Node8&#45;&gt;Node10</title>
<path fill="none" stroke="midnightblue" d="M902.477,-62.0126C918.719,-65.7226 935.889,-69.6446 952.069,-73.3407"/>
<polygon fill="midnightblue" stroke="midnightblue" points="951.471,-76.7941 961.999,-75.609 953.03,-69.9699 951.471,-76.7941"/>
</g>
<!-- Node9&#45;&gt;Node1 -->
<g id="edge18" class="edge"><title>Node9&#45;&gt;Node1</title>
<path fill="none" stroke="midnightblue" d="M941.696,-12.5144C863.756,-7.01027 744.063,-0 640,-0 449,-0 449,-0 449,-0 348.744,-0 234.025,-12.2025 158.153,-21.9869"/>
<polygon fill="midnightblue" stroke="midnightblue" points="157.636,-18.5245 148.173,-23.2889 158.542,-25.4657 157.636,-18.5245"/>
</g>
</g>
</svg>
