<?xml version="1.0" encoding="UTF-8" standalone="no"?>
<!DOCTYPE svg PUBLIC "-//W3C//DTD SVG 1.1//EN"
 "http://www.w3.org/Graphics/SVG/1.1/DTD/svg11.dtd">
<!-- Generated by graphviz version 2.28.0 (20111219.2309)
 -->
<!-- Title: G Pages: 1 -->
<svg width="3762pt" height="341pt"
 viewBox="0.00 0.00 3762.00 341.00" xmlns="http://www.w3.org/2000/svg" xmlns:xlink="http://www.w3.org/1999/xlink">
<g id="graph1" class="graph" transform="scale(1 1) rotate(0) translate(4 337)">
<title>G</title>
<polygon fill="white" stroke="white" points="-4,5 -4,-337 3759,-337 3759,5 -4,5"/>
<!-- Node1 -->
<g id="node1" class="node"><title>Node1</title>
<polygon fill="#bfbfbf" stroke="black" points="0.5,-171.5 0.5,-190.5 249.5,-190.5 249.5,-171.5 0.5,-171.5"/>
<text text-anchor="middle" x="125" y="-178.5" font-family="Ubuntu-R" font-size="10.00">forcebalance.optimizer.Optimizer.ScipyOptimizer</text>
</g>
<!-- Node2 -->
<g id="node3" class="node"><title>Node2</title>
<a xlink:href="namespaceforcebalance_1_1nifty.html#a11babd62dc7bca389162c6318f9672ca" target="_top" xlink:title="Cool&#45;looking printout for slick formatting of output.">
<polygon fill="white" stroke="black" points="1706,-209.5 1706,-228.5 1850,-228.5 1850,-209.5 1706,-209.5"/>
<text text-anchor="middle" x="1778" y="-216.5" font-family="Ubuntu-R" font-size="10.00">forcebalance.nifty.printcool</text>
</a>
</g>
<!-- Node1&#45;&gt;Node2 -->
<g id="edge2" class="edge"><title>Node1&#45;&gt;Node2</title>
<path fill="none" stroke="midnightblue" d="M182.546,-190.541C283.785,-206.767 502.83,-238 689,-238 689,-238 689,-238 1254,-238 1410.52,-238 1593.21,-229.397 1695.97,-223.769"/>
<polygon fill="midnightblue" stroke="midnightblue" points="1696.18,-227.263 1705.97,-223.217 1695.79,-220.273 1696.18,-227.263"/>
</g>
<!-- Node17 -->
<g id="node38" class="node"><title>Node17</title>
<a xlink:href="classforcebalance_1_1optimizer_1_1Optimizer.html#a50ffc779fbba5a99085cba45d868fc29" target="_top" xlink:title="Genetic algorithm, under development.">
<polygon fill="white" stroke="black" points="286,-152.5 286,-171.5 546,-171.5 546,-152.5 286,-152.5"/>
<text text-anchor="middle" x="416" y="-159.5" font-family="Ubuntu-R" font-size="10.00">forcebalance.optimizer.Optimizer.GeneticAlgorithm</text>
</a>
</g>
<!-- Node1&#45;&gt;Node17 -->
<g id="edge42" class="edge"><title>Node1&#45;&gt;Node17</title>
<path fill="none" stroke="midnightblue" d="M185.881,-171.47C212.063,-168.934 243.968,-166.452 275.551,-164.422"/>
<polygon fill="midnightblue" stroke="midnightblue" points="276.025,-167.899 285.786,-163.779 275.586,-160.913 276.025,-167.899"/>
</g>
<!-- Node3 -->
<g id="node5" class="node"><title>Node3</title>
<a xlink:href="namespaceforcebalance_1_1nifty.html#abb8f59044961a12588e0653c2baa8b01" target="_top" xlink:title="forcebalance.nifty.warn_press_key">
<polygon fill="white" stroke="black" points="3330.5,-313.5 3330.5,-332.5 3509.5,-332.5 3509.5,-313.5 3330.5,-313.5"/>
<text text-anchor="middle" x="3420" y="-320.5" font-family="Ubuntu-R" font-size="10.00">forcebalance.nifty.warn_press_key</text>
</a>
</g>
<!-- Node2&#45;&gt;Node3 -->
<g id="edge4" class="edge"><title>Node2&#45;&gt;Node3</title>
<path fill="none" stroke="midnightblue" d="M1803.71,-228.523C1877.08,-255.922 2100.59,-333 2293,-333 2293,-333 2293,-333 2999,-333 3108.86,-333 3234.85,-329.538 3319.94,-326.688"/>
<polygon fill="midnightblue" stroke="midnightblue" points="3320.24,-330.18 3330.12,-326.344 3320,-323.184 3320.24,-330.18"/>
</g>
<!-- Node5 -->
<g id="node9" class="node"><title>Node5</title>
<a xlink:href="namespaceforcebalance_1_1nifty.html#a51180e960742cc7547749fdfb3513ec4" target="_top" xlink:title="See documentation for printcool; this is a nice way to print out keys/values in a dictionary...">
<polygon fill="white" stroke="black" points="1938,-209.5 1938,-228.5 2134,-228.5 2134,-209.5 1938,-209.5"/>
<text text-anchor="middle" x="2036" y="-216.5" font-family="Ubuntu-R" font-size="10.00">forcebalance.nifty.printcool_dictionary</text>
</a>
</g>
<!-- Node2&#45;&gt;Node5 -->
<g id="edge8" class="edge"><title>Node2&#45;&gt;Node5</title>
<path fill="none" stroke="midnightblue" d="M1850.31,-219C1874.21,-219 1901.42,-219 1927.46,-219"/>
<polygon fill="midnightblue" stroke="midnightblue" points="1927.76,-222.5 1937.76,-219 1927.76,-215.5 1927.76,-222.5"/>
</g>
<!-- Node4 -->
<g id="node7" class="node"><title>Node4</title>
<a xlink:href="namespaceforcebalance_1_1nifty.html#a2fc81730e7efa7d138dd86f733507bfc" target="_top" xlink:title="Similar to the bultin function map().">
<polygon fill="white" stroke="black" points="3562,-313.5 3562,-332.5 3744,-332.5 3744,-313.5 3562,-313.5"/>
<text text-anchor="middle" x="3653" y="-320.5" font-family="Ubuntu-R" font-size="10.00">forcebalance.nifty.concurrent_map</text>
</a>
</g>
<!-- Node3&#45;&gt;Node4 -->
<g id="edge6" class="edge"><title>Node3&#45;&gt;Node4</title>
<path fill="none" stroke="midnightblue" d="M3509.65,-323C3523.37,-323 3537.62,-323 3551.58,-323"/>
<polygon fill="midnightblue" stroke="midnightblue" points="3551.68,-326.5 3561.68,-323 3551.68,-319.5 3551.68,-326.5"/>
</g>
<!-- Node6 -->
<g id="node11" class="node"><title>Node6</title>
<a xlink:href="namespaceforcebalance_1_1nifty.html#a3f1c7a1af9d35d5d1693074bc6f5497c" target="_top" xlink:title="ONLY matches integers! If you have a decimal point? None shall pass!">
<polygon fill="white" stroke="black" points="2233,-228.5 2233,-247.5 2355,-247.5 2355,-228.5 2233,-228.5"/>
<text text-anchor="middle" x="2294" y="-235.5" font-family="Ubuntu-R" font-size="10.00">forcebalance.nifty.isint</text>
</a>
</g>
<!-- Node5&#45;&gt;Node6 -->
<g id="edge10" class="edge"><title>Node5&#45;&gt;Node6</title>
<path fill="none" stroke="midnightblue" d="M2134.15,-226.21C2163.5,-228.388 2195.15,-230.737 2222.41,-232.761"/>
<polygon fill="midnightblue" stroke="midnightblue" points="2222.4,-236.27 2232.63,-233.52 2222.92,-229.289 2222.4,-236.27"/>
</g>
<!-- Node8 -->
<g id="node15" class="node"><title>Node8</title>
<a xlink:href="namespaceforcebalance_1_1nifty.html#a8e3ef0108b9d37b82ba0dced7c6037ae" target="_top" xlink:title="Matches ANY number; it can be a decimal, scientific notation, what have you CAUTION &#45; this will also ...">
<polygon fill="white" stroke="black" points="2698.5,-228.5 2698.5,-247.5 2829.5,-247.5 2829.5,-228.5 2698.5,-228.5"/>
<text text-anchor="middle" x="2764" y="-235.5" font-family="Ubuntu-R" font-size="10.00">forcebalance.nifty.isfloat</text>
</a>
</g>
<!-- Node5&#45;&gt;Node8 -->
<g id="edge40" class="edge"><title>Node5&#45;&gt;Node8</title>
<path fill="none" stroke="midnightblue" d="M2134.23,-217.611C2207.78,-216.898 2311.26,-216.614 2402,-219 2501.17,-221.608 2615.5,-228.239 2688.47,-232.931"/>
<polygon fill="midnightblue" stroke="midnightblue" points="2688.28,-236.425 2698.48,-233.579 2688.73,-229.44 2688.28,-236.425"/>
</g>
<!-- Node7 -->
<g id="node13" class="node"><title>Node7</title>
<a xlink:href="namespaceforcebalance_1_1nifty.html#a09263927eaec9deff283fbf1a820242f" target="_top" xlink:title="Matches things with a decimal only; see isint and isfloat.">
<polygon fill="white" stroke="black" points="2461,-266.5 2461,-285.5 2609,-285.5 2609,-266.5 2461,-266.5"/>
<text text-anchor="middle" x="2535" y="-273.5" font-family="Ubuntu-R" font-size="10.00">forcebalance.nifty.isdecimal</text>
</a>
</g>
<!-- Node6&#45;&gt;Node7 -->
<g id="edge12" class="edge"><title>Node6&#45;&gt;Node7</title>
<path fill="none" stroke="midnightblue" d="M2355,-247.54C2388.1,-252.803 2429.38,-259.365 2463.95,-264.862"/>
<polygon fill="midnightblue" stroke="midnightblue" points="2463.55,-268.342 2473.97,-266.456 2464.65,-261.429 2463.55,-268.342"/>
</g>
<!-- Node7&#45;&gt;Node8 -->
<g id="edge14" class="edge"><title>Node7&#45;&gt;Node8</title>
<path fill="none" stroke="midnightblue" d="M2592.99,-266.46C2624.29,-261.22 2663.29,-254.691 2696.04,-249.209"/>
<polygon fill="midnightblue" stroke="midnightblue" points="2696.7,-252.647 2705.99,-247.544 2695.55,-245.743 2696.7,-252.647"/>
</g>
<!-- Node12 -->
<g id="node24" class="node"><title>Node12</title>
<a xlink:href="namespaceforcebalance_1_1nifty.html#afb3f205bce4984856e766af7e9fdaca8" target="_top" xlink:title="Given any list, array, or matrix, return a 1&#45;column matrix.">
<polygon fill="white" stroke="black" points="2706,-266.5 2706,-285.5 2822,-285.5 2822,-266.5 2706,-266.5"/>
<text text-anchor="middle" x="2764" y="-273.5" font-family="Ubuntu-R" font-size="10.00">forcebalance.nifty.col</text>
</a>
</g>
<!-- Node7&#45;&gt;Node12 -->
<g id="edge24" class="edge"><title>Node7&#45;&gt;Node12</title>
<path fill="none" stroke="midnightblue" d="M2609.07,-276C2636.89,-276 2668.42,-276 2695.68,-276"/>
<polygon fill="midnightblue" stroke="midnightblue" points="2695.9,-279.5 2705.9,-276 2695.9,-272.5 2695.9,-279.5"/>
</g>
<!-- Node8&#45;&gt;Node6 -->
<g id="edge16" class="edge"><title>Node8&#45;&gt;Node6</title>
<path fill="none" stroke="midnightblue" d="M2698.13,-238C2610.67,-238 2455.54,-238 2365.35,-238"/>
<polygon fill="midnightblue" stroke="midnightblue" points="2365.22,-234.5 2355.22,-238 2365.22,-241.5 2365.22,-234.5"/>
</g>
<!-- Node9 -->
<g id="node18" class="node"><title>Node9</title>
<a xlink:href="namespaceforcebalance_1_1nifty.html#a8d63c8ae9a67c66673a6cf81357f827d" target="_top" xlink:title="Returns a big number if we encounter NaN.">
<polygon fill="white" stroke="black" points="2922,-209.5 2922,-228.5 3074,-228.5 3074,-209.5 2922,-209.5"/>
<text text-anchor="middle" x="2998" y="-216.5" font-family="Ubuntu-R" font-size="10.00">forcebalance.nifty.floatornan</text>
</a>
</g>
<!-- Node8&#45;&gt;Node9 -->
<g id="edge18" class="edge"><title>Node8&#45;&gt;Node9</title>
<path fill="none" stroke="midnightblue" d="M2829.62,-232.707C2854.95,-230.634 2884.36,-228.224 2911.41,-226.01"/>
<polygon fill="midnightblue" stroke="midnightblue" points="2911.96,-229.476 2921.64,-225.171 2911.39,-222.499 2911.96,-229.476"/>
</g>
<!-- Node10 -->
<g id="node20" class="node"><title>Node10</title>
<a xlink:href="namespaceforcebalance_1_1nifty.html#a6c9727360cdff8f3011a12cc54d0e86e" target="_top" xlink:title="Given any list, array, or matrix, return a 1&#45;row matrix.">
<polygon fill="white" stroke="black" points="3152.5,-209.5 3152.5,-228.5 3271.5,-228.5 3271.5,-209.5 3152.5,-209.5"/>
<text text-anchor="middle" x="3212" y="-216.5" font-family="Ubuntu-R" font-size="10.00">forcebalance.nifty.row</text>
</a>
</g>
<!-- Node9&#45;&gt;Node10 -->
<g id="edge20" class="edge"><title>Node9&#45;&gt;Node10</title>
<path fill="none" stroke="midnightblue" d="M3074.04,-219C3096.25,-219 3120.45,-219 3142.24,-219"/>
<polygon fill="midnightblue" stroke="midnightblue" points="3142.4,-222.5 3152.4,-219 3142.4,-215.5 3142.4,-222.5"/>
</g>
<!-- Node11 -->
<g id="node22" class="node"><title>Node11</title>
<a xlink:href="namespaceforcebalance_1_1nifty.html#a7676236002c6a65ea7d2e69a09923889" target="_top" xlink:title="Given two vectors vec1 and vec2, project out the component of vec1 that is along the vec2&#45;direction...">
<polygon fill="white" stroke="black" points="3336,-209.5 3336,-228.5 3504,-228.5 3504,-209.5 3336,-209.5"/>
<text text-anchor="middle" x="3420" y="-216.5" font-family="Ubuntu-R" font-size="10.00">forcebalance.nifty.orthogonalize</text>
</a>
</g>
<!-- Node10&#45;&gt;Node11 -->
<g id="edge22" class="edge"><title>Node10&#45;&gt;Node11</title>
<path fill="none" stroke="midnightblue" d="M3271.76,-219C3288.61,-219 3307.42,-219 3325.81,-219"/>
<polygon fill="midnightblue" stroke="midnightblue" points="3325.97,-222.5 3335.97,-219 3325.97,-215.5 3325.97,-222.5"/>
</g>
<!-- Node13 -->
<g id="node26" class="node"><title>Node13</title>
<a xlink:href="namespaceforcebalance_1_1nifty.html#a52114ceee9d55f94d9aecb3e176de294" target="_top" xlink:title="Given any list, array, or matrix, return a single&#45;index array.">
<polygon fill="white" stroke="black" points="2939,-247.5 2939,-266.5 3057,-266.5 3057,-247.5 2939,-247.5"/>
<text text-anchor="middle" x="2998" y="-254.5" font-family="Ubuntu-R" font-size="10.00">forcebalance.nifty.flat</text>
</a>
</g>
<!-- Node12&#45;&gt;Node13 -->
<g id="edge26" class="edge"><title>Node12&#45;&gt;Node13</title>
<path fill="none" stroke="midnightblue" d="M2822.05,-271.328C2854.27,-268.689 2894.76,-265.373 2928.66,-262.596"/>
<polygon fill="midnightblue" stroke="midnightblue" points="2929.28,-266.058 2938.96,-261.753 2928.71,-259.081 2929.28,-266.058"/>
</g>
<!-- Node14 -->
<g id="node28" class="node"><title>Node14</title>
<a xlink:href="namespaceforcebalance_1_1nifty.html#a4c82187e92dfeb8a159f4aa44b501c40" target="_top" xlink:title="Invert a matrix using singular value decomposition.">
<polygon fill="white" stroke="black" points="3136,-285.5 3136,-304.5 3288,-304.5 3288,-285.5 3136,-285.5"/>
<text text-anchor="middle" x="3212" y="-292.5" font-family="Ubuntu-R" font-size="10.00">forcebalance.nifty.invert_svd</text>
</a>
</g>
<!-- Node13&#45;&gt;Node14 -->
<g id="edge28" class="edge"><title>Node13&#45;&gt;Node14</title>
<path fill="none" stroke="midnightblue" d="M3052.22,-266.54C3081.2,-271.735 3117.25,-278.196 3147.67,-283.649"/>
<polygon fill="midnightblue" stroke="midnightblue" points="3147.29,-287.137 3157.76,-285.456 3148.53,-280.247 3147.29,-287.137"/>
</g>
<!-- Node14&#45;&gt;Node3 -->
<g id="edge38" class="edge"><title>Node14&#45;&gt;Node3</title>
<path fill="none" stroke="midnightblue" d="M3283.03,-304.519C3300.94,-306.953 3320.34,-309.59 3338.72,-312.088"/>
<polygon fill="midnightblue" stroke="midnightblue" points="3338.43,-315.581 3348.81,-313.46 3339.38,-308.645 3338.43,-315.581"/>
</g>
<!-- Node14&#45;&gt;Node12 -->
<g id="edge36" class="edge"><title>Node14&#45;&gt;Node12</title>
<path fill="none" stroke="midnightblue" d="M3135.98,-291.804C3051.13,-288.19 2914.19,-282.356 2832.56,-278.878"/>
<polygon fill="midnightblue" stroke="midnightblue" points="2832.53,-275.374 2822.39,-278.445 2832.24,-282.368 2832.53,-275.374"/>
</g>
<!-- Node15 -->
<g id="node30" class="node"><title>Node15</title>
<a xlink:href="namespaceforcebalance_1_1nifty.html#aa9fb9c7c65231eca50a7afc04f489b64" target="_top" xlink:title="forcebalance.nifty.get_least_squares">
<polygon fill="white" stroke="black" points="3324.5,-256.5 3324.5,-275.5 3515.5,-275.5 3515.5,-256.5 3324.5,-256.5"/>
<text text-anchor="middle" x="3420" y="-263.5" font-family="Ubuntu-R" font-size="10.00">forcebalance.nifty.get_least_squares</text>
</a>
</g>
<!-- Node14&#45;&gt;Node15 -->
<g id="edge30" class="edge"><title>Node14&#45;&gt;Node15</title>
<path fill="none" stroke="midnightblue" d="M3280.74,-285.464C3300.1,-282.738 3321.35,-279.747 3341.26,-276.944"/>
<polygon fill="midnightblue" stroke="midnightblue" points="3341.81,-280.402 3351.22,-275.542 3340.83,-273.47 3341.81,-280.402"/>
</g>
<!-- Node15&#45;&gt;Node13 -->
<g id="edge32" class="edge"><title>Node15&#45;&gt;Node13</title>
<path fill="none" stroke="midnightblue" d="M3324.39,-263.973C3246.28,-262.299 3137.28,-259.963 3067.41,-258.466"/>
<polygon fill="midnightblue" stroke="midnightblue" points="3067.47,-254.967 3057.4,-258.251 3067.32,-261.965 3067.47,-254.967"/>
</g>
<!-- Node16 -->
<g id="node33" class="node"><title>Node16</title>
<a xlink:href="namespaceforcebalance_1_1nifty.html#ad5ca60565c864b4245a8212fe9d92e10" target="_top" xlink:title="Compute the (cross) statistical inefficiency of (two) timeseries.">
<polygon fill="white" stroke="black" points="3552.5,-256.5 3552.5,-275.5 3753.5,-275.5 3753.5,-256.5 3552.5,-256.5"/>
<text text-anchor="middle" x="3653" y="-263.5" font-family="Ubuntu-R" font-size="10.00">forcebalance.nifty.statisticalInefficiency</text>
</a>
</g>
<!-- Node15&#45;&gt;Node16 -->
<g id="edge34" class="edge"><title>Node15&#45;&gt;Node16</title>
<path fill="none" stroke="midnightblue" d="M3515.62,-266C3524.4,-266 3533.35,-266 3542.25,-266"/>
<polygon fill="midnightblue" stroke="midnightblue" points="3542.27,-269.5 3552.27,-266 3542.27,-262.5 3542.27,-269.5"/>
</g>
<!-- Node17&#45;&gt;Node1 -->
<g id="edge100" class="edge"><title>Node17&#45;&gt;Node1</title>
<path fill="none" stroke="midnightblue" d="M355.041,-171.537C327.397,-174.214 293.387,-176.829 260.114,-178.917"/>
<polygon fill="midnightblue" stroke="midnightblue" points="259.587,-175.443 249.82,-179.548 260.015,-182.43 259.587,-175.443"/>
</g>
<!-- Node18 -->
<g id="node40" class="node"><title>Node18</title>
<a xlink:href="classforcebalance_1_1optimizer_1_1Optimizer.html#a6b3af8115718f61a6a21c3297d717ead" target="_top" xlink:title="Use SciPy&#39;s built&#45;in simplex algorithm to optimize the parameters.">
<polygon fill="white" stroke="black" points="582.5,-190.5 582.5,-209.5 797.5,-209.5 797.5,-190.5 582.5,-190.5"/>
<text text-anchor="middle" x="690" y="-197.5" font-family="Ubuntu-R" font-size="10.00">forcebalance.optimizer.Optimizer.Simplex</text>
</a>
</g>
<!-- Node17&#45;&gt;Node18 -->
<g id="edge44" class="edge"><title>Node17&#45;&gt;Node18</title>
<path fill="none" stroke="midnightblue" d="M485.286,-171.54C523.359,-176.859 570.938,-183.506 610.538,-189.038"/>
<polygon fill="midnightblue" stroke="midnightblue" points="610.298,-192.539 620.686,-190.456 611.266,-185.606 610.298,-192.539"/>
</g>
<!-- Node38 -->
<g id="node89" class="node"><title>Node38</title>
<a xlink:href="classforcebalance_1_1optimizer_1_1Optimizer.html#a0745b2e3607ef308ba48bb1d34e5be79" target="_top" xlink:title="Use SciPy&#39;s built&#45;in Powell direction&#45;set algorithm to optimize the parameters.">
<polygon fill="white" stroke="black" points="587,-152.5 587,-171.5 793,-171.5 793,-152.5 587,-152.5"/>
<text text-anchor="middle" x="690" y="-159.5" font-family="Ubuntu-R" font-size="10.00">forcebalance.optimizer.Optimizer.Powell</text>
</a>
</g>
<!-- Node17&#45;&gt;Node38 -->
<g id="edge102" class="edge"><title>Node17&#45;&gt;Node38</title>
<path fill="none" stroke="midnightblue" d="M546.229,-162C556.301,-162 566.422,-162 576.371,-162"/>
<polygon fill="midnightblue" stroke="midnightblue" points="576.667,-165.5 586.667,-162 576.667,-158.5 576.667,-165.5"/>
</g>
<!-- Node39 -->
<g id="node91" class="node"><title>Node39</title>
<a xlink:href="classforcebalance_1_1optimizer_1_1Optimizer.html#a183911848e43ca0be1893b87290dc31e" target="_top" xlink:title="Use SciPy&#39;s built&#45;in simulated annealing algorithm to optimize the parameters.">
<polygon fill="white" stroke="black" points="585,-114.5 585,-133.5 795,-133.5 795,-114.5 585,-114.5"/>
<text text-anchor="middle" x="690" y="-121.5" font-family="Ubuntu-R" font-size="10.00">forcebalance.optimizer.Optimizer.Anneal</text>
</a>
</g>
<!-- Node17&#45;&gt;Node39 -->
<g id="edge104" class="edge"><title>Node17&#45;&gt;Node39</title>
<path fill="none" stroke="midnightblue" d="M485.286,-152.46C523.359,-147.141 570.938,-140.494 610.538,-134.962"/>
<polygon fill="midnightblue" stroke="midnightblue" points="611.266,-138.394 620.686,-133.544 610.298,-131.461 611.266,-138.394"/>
</g>
<!-- Node18&#45;&gt;Node1 -->
<g id="edge48" class="edge"><title>Node18&#45;&gt;Node1</title>
<path fill="none" stroke="midnightblue" d="M582.322,-196.4C490.719,-193.308 358.235,-188.837 259.593,-185.508"/>
<polygon fill="midnightblue" stroke="midnightblue" points="259.665,-182.009 249.553,-185.17 259.429,-189.005 259.665,-182.009"/>
</g>
<!-- Node19 -->
<g id="node42" class="node"><title>Node19</title>
<a xlink:href="classforcebalance_1_1optimizer_1_1Optimizer.html#ad1e151204a172a4e75737b2b699d1623" target="_top" xlink:title="Use SciPy&#39;s built&#45;in simulated annealing algorithm to optimize the parameters.">
<polygon fill="white" stroke="black" points="834.5,-190.5 834.5,-209.5 1101.5,-209.5 1101.5,-190.5 834.5,-190.5"/>
<text text-anchor="middle" x="968" y="-197.5" font-family="Ubuntu-R" font-size="10.00">forcebalance.optimizer.Optimizer.ConjugateGradient</text>
</a>
</g>
<!-- Node18&#45;&gt;Node19 -->
<g id="edge46" class="edge"><title>Node18&#45;&gt;Node19</title>
<path fill="none" stroke="midnightblue" d="M797.709,-200C806.416,-200 815.298,-200 824.207,-200"/>
<polygon fill="midnightblue" stroke="midnightblue" points="824.269,-203.5 834.269,-200 824.269,-196.5 824.269,-203.5"/>
</g>
<!-- Node20 -->
<g id="node45" class="node"><title>Node20</title>
<a xlink:href="classforcebalance_1_1optimizer_1_1Optimizer.html#a6c7508252398ff7e00469c4c8acb0a48" target="_top" xlink:title="Scan through parameter values.">
<polygon fill="white" stroke="black" points="849,-134.5 849,-153.5 1087,-153.5 1087,-134.5 849,-134.5"/>
<text text-anchor="middle" x="968" y="-141.5" font-family="Ubuntu-R" font-size="10.00">forcebalance.optimizer.Optimizer.Scan_Values</text>
</a>
</g>
<!-- Node18&#45;&gt;Node20 -->
<g id="edge50" class="edge"><title>Node18&#45;&gt;Node20</title>
<path fill="none" stroke="midnightblue" d="M747.166,-190.46C763.578,-187.555 781.529,-184.264 798,-181 837.65,-173.143 882.316,-163.321 915.768,-155.772"/>
<polygon fill="midnightblue" stroke="midnightblue" points="916.791,-159.129 925.771,-153.507 915.245,-152.302 916.791,-159.129"/>
</g>
<!-- Node20&#45;&gt;Node20 -->
<g id="edge80" class="edge"><title>Node20&#45;&gt;Node20</title>
<path fill="none" stroke="midnightblue" d="M925.499,-153.612C904.151,-162.461 918.318,-172 968,-172 1007.59,-172 1024.63,-165.943 1019.11,-159.004"/>
<polygon fill="midnightblue" stroke="midnightblue" points="1020.83,-155.952 1010.5,-153.612 1017.12,-161.885 1020.83,-155.952"/>
</g>
<!-- Node21 -->
<g id="node47" class="node"><title>Node21</title>
<a xlink:href="classforcebalance_1_1optimizer_1_1Optimizer.html#a43ab8c6bea2b3112468922ab61163f67" target="_top" xlink:title="Scan through the mathematical parameter space.">
<polygon fill="white" stroke="black" points="1404.5,-76.5 1404.5,-95.5 1633.5,-95.5 1633.5,-76.5 1404.5,-76.5"/>
<text text-anchor="middle" x="1519" y="-83.5" font-family="Ubuntu-R" font-size="10.00">forcebalance.optimizer.Optimizer.ScanMVals</text>
</a>
</g>
<!-- Node20&#45;&gt;Node21 -->
<g id="edge52" class="edge"><title>Node20&#45;&gt;Node21</title>
<path fill="none" stroke="midnightblue" d="M1002.34,-134.464C1036.2,-125.219 1090.28,-111.646 1138,-105 1222.98,-93.1651 1319.55,-88.4486 1394.07,-86.6737"/>
<polygon fill="midnightblue" stroke="midnightblue" points="1394.52,-90.1647 1404.44,-86.4423 1394.36,-83.1664 1394.52,-90.1647"/>
</g>
<!-- Node33 -->
<g id="node74" class="node"><title>Node33</title>
<a xlink:href="classforcebalance_1_1optimizer_1_1Optimizer.html#a70bff76f2e56d87c8dee8aa92fe56d29" target="_top" xlink:title="Scan through the physical parameter space.">
<polygon fill="white" stroke="black" points="1139.5,-114.5 1139.5,-133.5 1366.5,-133.5 1366.5,-114.5 1139.5,-114.5"/>
<text text-anchor="middle" x="1253" y="-121.5" font-family="Ubuntu-R" font-size="10.00">forcebalance.optimizer.Optimizer.ScanPVals</text>
</a>
</g>
<!-- Node20&#45;&gt;Node33 -->
<g id="edge82" class="edge"><title>Node20&#45;&gt;Node33</title>
<path fill="none" stroke="midnightblue" d="M1087.38,-135.634C1101.15,-134.661 1115.22,-133.666 1129.06,-132.689"/>
<polygon fill="midnightblue" stroke="midnightblue" points="1129.35,-136.177 1139.08,-131.98 1128.86,-129.194 1129.35,-136.177"/>
</g>
<!-- Node34 -->
<g id="node76" class="node"><title>Node34</title>
<a xlink:href="classforcebalance_1_1optimizer_1_1Optimizer.html#a1477d2b88faa1d4991418538133abcff" target="_top" xlink:title="A single&#45;point objective function computation.">
<polygon fill="white" stroke="black" points="1138,-152.5 1138,-171.5 1368,-171.5 1368,-152.5 1138,-152.5"/>
<text text-anchor="middle" x="1253" y="-159.5" font-family="Ubuntu-R" font-size="10.00">forcebalance.optimizer.Optimizer.SinglePoint</text>
</a>
</g>
<!-- Node20&#45;&gt;Node34 -->
<g id="edge84" class="edge"><title>Node20&#45;&gt;Node34</title>
<path fill="none" stroke="midnightblue" d="M1087.38,-151.529C1100.65,-152.374 1114.21,-153.236 1127.56,-154.085"/>
<polygon fill="midnightblue" stroke="midnightblue" points="1127.52,-157.589 1137.72,-154.731 1127.96,-150.604 1127.52,-157.589"/>
</g>
<!-- Node37 -->
<g id="node85" class="node"><title>Node37</title>
<a xlink:href="classforcebalance_1_1optimizer_1_1Optimizer.html#ac5adf24cf3ea3976eb67f75b6b89d101" target="_top" xlink:title="A single&#45;point gradient computation.">
<polygon fill="white" stroke="black" points="1410,-190.5 1410,-209.5 1628,-209.5 1628,-190.5 1410,-190.5"/>
<text text-anchor="middle" x="1519" y="-197.5" font-family="Ubuntu-R" font-size="10.00">forcebalance.optimizer.Optimizer.Gradient</text>
</a>
</g>
<!-- Node20&#45;&gt;Node37 -->
<g id="edge96" class="edge"><title>Node20&#45;&gt;Node37</title>
<path fill="none" stroke="midnightblue" d="M1004.3,-153.52C1038.29,-162.257 1091.26,-174.759 1138,-181 1225.08,-192.627 1324.24,-197.302 1399.43,-199.109"/>
<polygon fill="midnightblue" stroke="midnightblue" points="1399.8,-202.618 1409.87,-199.345 1399.95,-195.62 1399.8,-202.618"/>
</g>
<!-- Node22 -->
<g id="node49" class="node"><title>Node22</title>
<a xlink:href="classforcebalance_1_1optimizer_1_1Optimizer.html#a0c16ad8678a6480e235a45d69fb077d3" target="_top" xlink:title="A single&#45;point Hessian computation.">
<polygon fill="white" stroke="black" points="1670.5,-76.5 1670.5,-95.5 1885.5,-95.5 1885.5,-76.5 1670.5,-76.5"/>
<text text-anchor="middle" x="1778" y="-83.5" font-family="Ubuntu-R" font-size="10.00">forcebalance.optimizer.Optimizer.Hessian</text>
</a>
</g>
<!-- Node21&#45;&gt;Node22 -->
<g id="edge54" class="edge"><title>Node21&#45;&gt;Node22</title>
<path fill="none" stroke="midnightblue" d="M1633.85,-86C1642.53,-86 1651.31,-86 1660.01,-86"/>
<polygon fill="midnightblue" stroke="midnightblue" points="1660.19,-89.5001 1670.19,-86 1660.19,-82.5001 1660.19,-89.5001"/>
</g>
<!-- Node23 -->
<g id="node51" class="node"><title>Node23</title>
<a xlink:href="namespaceforcebalance_1_1finite__difference.html#a9be9f0d21300958092e380514e2e980d" target="_top" xlink:title="A highly accurate seven&#45;point finite difference stencil for computing derivatives of a function...">
<polygon fill="white" stroke="black" points="1942.5,-152.5 1942.5,-171.5 2129.5,-171.5 2129.5,-152.5 1942.5,-152.5"/>
<text text-anchor="middle" x="2036" y="-159.5" font-family="Ubuntu-R" font-size="10.00">forcebalance.finite_difference.f1d7p</text>
</a>
</g>
<!-- Node22&#45;&gt;Node23 -->
<g id="edge56" class="edge"><title>Node22&#45;&gt;Node23</title>
<path fill="none" stroke="midnightblue" d="M1811.16,-95.5485C1857.24,-109.228 1942.09,-134.417 1993.05,-149.546"/>
<polygon fill="midnightblue" stroke="midnightblue" points="1992.18,-152.94 2002.77,-152.431 1994.18,-146.229 1992.18,-152.94"/>
</g>
<!-- Node27 -->
<g id="node59" class="node"><title>Node27</title>
<a xlink:href="namespaceforcebalance_1_1finite__difference.html#ae484c591ae8c4e5bae73a0ef2660c339" target="_top" xlink:title="A function wrapper for finite difference designed for differentiating &#39;get&#39;&#45;type functions.">
<polygon fill="white" stroke="black" points="2668.5,-114.5 2668.5,-133.5 2859.5,-133.5 2859.5,-114.5 2668.5,-114.5"/>
<text text-anchor="middle" x="2764" y="-121.5" font-family="Ubuntu-R" font-size="10.00">forcebalance.finite_difference.fdwrap</text>
</a>
</g>
<!-- Node22&#45;&gt;Node27 -->
<g id="edge72" class="edge"><title>Node22&#45;&gt;Node27</title>
<path fill="none" stroke="midnightblue" d="M1885.51,-86.3206C2047.08,-87.4119 2363.72,-91.9181 2632,-110 2645.41,-110.904 2659.56,-112.13 2673.4,-113.482"/>
<polygon fill="midnightblue" stroke="midnightblue" points="2673.12,-116.971 2683.42,-114.487 2673.82,-110.006 2673.12,-116.971"/>
</g>
<!-- Node30 -->
<g id="node67" class="node"><title>Node30</title>
<a xlink:href="classforcebalance_1_1optimizer_1_1Optimizer.html#adb86c1f6580bb088a23563a6103986fe" target="_top" xlink:title="Finite&#45;difference checker for the objective function Hessian.">
<polygon fill="white" stroke="black" points="1922.5,-38.5 1922.5,-57.5 2149.5,-57.5 2149.5,-38.5 1922.5,-38.5"/>
<text text-anchor="middle" x="2036" y="-45.5" font-family="Ubuntu-R" font-size="10.00">forcebalance.optimizer.Optimizer.FDCheckH</text>
</a>
</g>
<!-- Node22&#45;&gt;Node30 -->
<g id="edge74" class="edge"><title>Node22&#45;&gt;Node30</title>
<path fill="none" stroke="midnightblue" d="M1843.27,-76.46C1878.87,-71.1749 1923.31,-64.5786 1960.44,-59.0675"/>
<polygon fill="midnightblue" stroke="midnightblue" points="1961.33,-62.4743 1970.7,-57.5439 1960.3,-55.5502 1961.33,-62.4743"/>
</g>
<!-- Node24 -->
<g id="node53" class="node"><title>Node24</title>
<a xlink:href="namespaceforcebalance_1_1finite__difference.html#acc281f85b668062745f711d9b4a610fa" target="_top" xlink:title="forcebalance.finite_difference.f12d7p">
<polygon fill="white" stroke="black" points="2197.5,-152.5 2197.5,-171.5 2390.5,-171.5 2390.5,-152.5 2197.5,-152.5"/>
<text text-anchor="middle" x="2294" y="-159.5" font-family="Ubuntu-R" font-size="10.00">forcebalance.finite_difference.f12d7p</text>
</a>
</g>
<!-- Node23&#45;&gt;Node24 -->
<g id="edge58" class="edge"><title>Node23&#45;&gt;Node24</title>
<path fill="none" stroke="midnightblue" d="M2129.78,-162C2148.34,-162 2167.97,-162 2186.94,-162"/>
<polygon fill="midnightblue" stroke="midnightblue" points="2187.09,-165.5 2197.09,-162 2187.09,-158.5 2187.09,-165.5"/>
</g>
<!-- Node25 -->
<g id="node55" class="node"><title>Node25</title>
<a xlink:href="namespaceforcebalance_1_1finite__difference.html#aa69a8819e4680091f400303c1d6ddeb7" target="_top" xlink:title="A three&#45;point finite difference stencil.">
<polygon fill="white" stroke="black" points="2438.5,-152.5 2438.5,-171.5 2631.5,-171.5 2631.5,-152.5 2438.5,-152.5"/>
<text text-anchor="middle" x="2535" y="-159.5" font-family="Ubuntu-R" font-size="10.00">forcebalance.finite_difference.f12d3p</text>
</a>
</g>
<!-- Node24&#45;&gt;Node25 -->
<g id="edge60" class="edge"><title>Node24&#45;&gt;Node25</title>
<path fill="none" stroke="midnightblue" d="M2390.83,-162C2403.01,-162 2415.52,-162 2427.85,-162"/>
<polygon fill="midnightblue" stroke="midnightblue" points="2428.15,-165.5 2438.15,-162 2428.15,-158.5 2428.15,-165.5"/>
</g>
<!-- Node26 -->
<g id="node57" class="node"><title>Node26</title>
<a xlink:href="namespaceforcebalance_1_1finite__difference.html#ad84d3e385db1190e7d8ef58bc08a6c52" target="_top" xlink:title="Invoking this function from anywhere will tell us whether we&#39;re being called by a finite&#45;difference f...">
<polygon fill="white" stroke="black" points="2673,-152.5 2673,-171.5 2855,-171.5 2855,-152.5 2673,-152.5"/>
<text text-anchor="middle" x="2764" y="-159.5" font-family="Ubuntu-R" font-size="10.00">forcebalance.finite_difference.in_fd</text>
</a>
</g>
<!-- Node25&#45;&gt;Node26 -->
<g id="edge62" class="edge"><title>Node25&#45;&gt;Node26</title>
<path fill="none" stroke="midnightblue" d="M2631.61,-162C2641.88,-162 2652.35,-162 2662.67,-162"/>
<polygon fill="midnightblue" stroke="midnightblue" points="2662.93,-165.5 2672.93,-162 2662.93,-158.5 2662.93,-165.5"/>
</g>
<!-- Node25&#45;&gt;Node27 -->
<g id="edge64" class="edge"><title>Node25&#45;&gt;Node27</title>
<path fill="none" stroke="midnightblue" d="M2592.99,-152.46C2624.29,-147.22 2663.29,-140.691 2696.04,-135.209"/>
<polygon fill="midnightblue" stroke="midnightblue" points="2696.7,-138.647 2705.99,-133.544 2695.55,-131.743 2696.7,-138.647"/>
</g>
<!-- Node28 -->
<g id="node61" class="node"><title>Node28</title>
<a xlink:href="namespaceforcebalance_1_1finite__difference.html#a00322fb65860c390616f74d05037c797" target="_top" xlink:title="A driver to fdwrap for gradients (see documentation for fdwrap) Inputs: tgt = The Target containing t...">
<polygon fill="white" stroke="black" points="2896,-114.5 2896,-133.5 3100,-133.5 3100,-114.5 2896,-114.5"/>
<text text-anchor="middle" x="2998" y="-121.5" font-family="Ubuntu-R" font-size="10.00">forcebalance.finite_difference.fdwrap_G</text>
</a>
</g>
<!-- Node27&#45;&gt;Node28 -->
<g id="edge66" class="edge"><title>Node27&#45;&gt;Node28</title>
<path fill="none" stroke="midnightblue" d="M2859.7,-117.352C2868.25,-117.269 2876.97,-117.237 2885.65,-117.255"/>
<polygon fill="midnightblue" stroke="midnightblue" points="2885.8,-120.755 2895.81,-117.299 2885.83,-113.755 2885.8,-120.755"/>
</g>
<!-- Node29 -->
<g id="node64" class="node"><title>Node29</title>
<a xlink:href="namespaceforcebalance_1_1finite__difference.html#a77a0bc1ae3cbbcc8d38a0ef9ca877d6d" target="_top" xlink:title="A driver to fdwrap for Hessians (see documentation for fdwrap) Inputs: tgt = The Target containing th...">
<polygon fill="white" stroke="black" points="2896,-76.5 2896,-95.5 3100,-95.5 3100,-76.5 2896,-76.5"/>
<text text-anchor="middle" x="2998" y="-83.5" font-family="Ubuntu-R" font-size="10.00">forcebalance.finite_difference.fdwrap_H</text>
</a>
</g>
<!-- Node27&#45;&gt;Node29 -->
<g id="edge70" class="edge"><title>Node27&#45;&gt;Node29</title>
<path fill="none" stroke="midnightblue" d="M2823.24,-114.46C2855.24,-109.22 2895.1,-102.691 2928.57,-97.2091"/>
<polygon fill="midnightblue" stroke="midnightblue" points="2929.43,-100.614 2938.73,-95.5439 2928.3,-93.7064 2929.43,-100.614"/>
</g>
<!-- Node28&#45;&gt;Node27 -->
<g id="edge68" class="edge"><title>Node28&#45;&gt;Node27</title>
<path fill="none" stroke="midnightblue" d="M2895.81,-130.701C2887.19,-130.758 2878.45,-130.765 2869.8,-130.722"/>
<polygon fill="midnightblue" stroke="midnightblue" points="2869.72,-127.221 2859.7,-130.648 2869.67,-134.221 2869.72,-127.221"/>
</g>
<!-- Node31 -->
<g id="node69" class="node"><title>Node31</title>
<a xlink:href="classforcebalance_1_1optimizer_1_1Optimizer.html#a05ee5fe985b3e2ec71071ca061e42d66" target="_top" xlink:title="Read the checkpoint file for the main optimizer.">
<polygon fill="white" stroke="black" points="2186.5,-38.5 2186.5,-57.5 2401.5,-57.5 2401.5,-38.5 2186.5,-38.5"/>
<text text-anchor="middle" x="2294" y="-45.5" font-family="Ubuntu-R" font-size="10.00">forcebalance.optimizer.Optimizer.readchk</text>
</a>
</g>
<!-- Node30&#45;&gt;Node31 -->
<g id="edge76" class="edge"><title>Node30&#45;&gt;Node31</title>
<path fill="none" stroke="midnightblue" d="M2149.66,-48C2158.53,-48 2167.5,-48 2176.39,-48"/>
<polygon fill="midnightblue" stroke="midnightblue" points="2176.39,-51.5001 2186.39,-48 2176.39,-44.5001 2176.39,-51.5001"/>
</g>
<!-- Node32 -->
<g id="node71" class="node"><title>Node32</title>
<a xlink:href="classforcebalance_1_1optimizer_1_1Optimizer.html#aa7ac7cda43b70ac58ccbd6c8445e88ef" target="_top" xlink:title="Write the checkpoint file for the main optimizer.">
<polygon fill="white" stroke="black" points="2186,-0.5 2186,-19.5 2402,-19.5 2402,-0.5 2186,-0.5"/>
<text text-anchor="middle" x="2294" y="-7.5" font-family="Ubuntu-R" font-size="10.00">forcebalance.optimizer.Optimizer.writechk</text>
</a>
</g>
<!-- Node30&#45;&gt;Node32 -->
<g id="edge78" class="edge"><title>Node30&#45;&gt;Node32</title>
<path fill="none" stroke="midnightblue" d="M2101.27,-38.46C2136.87,-33.1749 2181.31,-26.5786 2218.44,-21.0675"/>
<polygon fill="midnightblue" stroke="midnightblue" points="2219.33,-24.4743 2228.7,-19.5439 2218.3,-17.5502 2219.33,-24.4743"/>
</g>
<!-- Node35 -->
<g id="node78" class="node"><title>Node35</title>
<a xlink:href="classforcebalance_1_1optimizer_1_1Optimizer.html#aacf96d137fb0e491af7e380c8bd61eb9" target="_top" xlink:title="Finite&#45;difference checker for the objective function gradient.">
<polygon fill="white" stroke="black" points="1405.5,-152.5 1405.5,-171.5 1632.5,-171.5 1632.5,-152.5 1405.5,-152.5"/>
<text text-anchor="middle" x="1519" y="-159.5" font-family="Ubuntu-R" font-size="10.00">forcebalance.optimizer.Optimizer.FDCheckG</text>
</a>
</g>
<!-- Node34&#45;&gt;Node35 -->
<g id="edge86" class="edge"><title>Node34&#45;&gt;Node35</title>
<path fill="none" stroke="midnightblue" d="M1368.26,-162C1377.17,-162 1386.19,-162 1395.15,-162"/>
<polygon fill="midnightblue" stroke="midnightblue" points="1395.24,-165.5 1405.24,-162 1395.24,-158.5 1395.24,-165.5"/>
</g>
<!-- Node35&#45;&gt;Node2 -->
<g id="edge88" class="edge"><title>Node35&#45;&gt;Node2</title>
<path fill="none" stroke="midnightblue" d="M1583.82,-171.543C1600.23,-174.296 1617.82,-177.51 1634,-181 1668.11,-188.356 1706.27,-198.603 1734.59,-206.603"/>
<polygon fill="midnightblue" stroke="midnightblue" points="1733.98,-210.067 1744.56,-209.439 1735.9,-203.334 1733.98,-210.067"/>
</g>
<!-- Node35&#45;&gt;Node27 -->
<g id="edge94" class="edge"><title>Node35&#45;&gt;Node27</title>
<path fill="none" stroke="midnightblue" d="M1586.72,-152.475C1612.67,-149.052 1642.68,-145.438 1670,-143 1831.8,-128.561 1872.56,-124 2035,-124 2035,-124 2035,-124 2295,-124 2419.84,-124 2563.42,-124 2658.26,-124"/>
<polygon fill="midnightblue" stroke="midnightblue" points="2658.43,-127.5 2668.43,-124 2658.43,-120.5 2658.43,-127.5"/>
</g>
<!-- Node36 -->
<g id="node81" class="node"><title>Node36</title>
<a xlink:href="namespaceforcebalance_1_1finite__difference.html#a123c5d5dea0f3f50ab57796bb3bc39be" target="_top" xlink:title="A highly accurate five&#45;point finite difference stencil for computing derivatives of a function...">
<polygon fill="white" stroke="black" points="1684.5,-152.5 1684.5,-171.5 1871.5,-171.5 1871.5,-152.5 1684.5,-152.5"/>
<text text-anchor="middle" x="1778" y="-159.5" font-family="Ubuntu-R" font-size="10.00">forcebalance.finite_difference.f1d5p</text>
</a>
</g>
<!-- Node35&#45;&gt;Node36 -->
<g id="edge90" class="edge"><title>Node35&#45;&gt;Node36</title>
<path fill="none" stroke="midnightblue" d="M1632.72,-162C1646.48,-162 1660.48,-162 1674.08,-162"/>
<polygon fill="midnightblue" stroke="midnightblue" points="1674.4,-165.5 1684.4,-162 1674.4,-158.5 1674.4,-165.5"/>
</g>
<!-- Node36&#45;&gt;Node23 -->
<g id="edge92" class="edge"><title>Node36&#45;&gt;Node23</title>
<path fill="none" stroke="midnightblue" d="M1871.78,-162C1891.37,-162 1912.15,-162 1932.08,-162"/>
<polygon fill="midnightblue" stroke="midnightblue" points="1932.1,-165.5 1942.1,-162 1932.1,-158.5 1932.1,-165.5"/>
</g>
<!-- Node37&#45;&gt;Node2 -->
<g id="edge98" class="edge"><title>Node37&#45;&gt;Node2</title>
<path fill="none" stroke="midnightblue" d="M1628.25,-208.003C1650.87,-209.675 1674.34,-211.411 1695.78,-212.996"/>
<polygon fill="midnightblue" stroke="midnightblue" points="1695.57,-216.489 1705.8,-213.736 1696.09,-209.508 1695.57,-216.489"/>
</g>
</g>
</svg>
