<?xml version="1.0" encoding="UTF-8" standalone="no"?>
<!DOCTYPE svg PUBLIC "-//W3C//DTD SVG 1.1//EN"
 "http://www.w3.org/Graphics/SVG/1.1/DTD/svg11.dtd">
<!-- Generated by graphviz version 2.26.3 (20100126.1600)
 -->
<!-- Title: forcebalance.gmxqpio.Monomer_QTPIE.__init__ Pages: 1 -->
<svg width="1880pt" height="648pt"
 viewBox="0.00 0.00 1880.00 647.62" xmlns="http://www.w3.org/2000/svg" xmlns:xlink="http://www.w3.org/1999/xlink">
<g id="graph1" class="graph" transform="scale(1 1) rotate(0) translate(4 643.623)">
<title>forcebalance.gmxqpio.Monomer_QTPIE.__init__</title>
<polygon fill="white" stroke="white" points="-4,5 -4,-643.623 1877,-643.623 1877,5 -4,5"/>
<!-- Node1 -->
<g id="node1" class="node"><title>Node1</title>
<polygon fill="#bfbfbf" stroke="black" points="0.5,-433 0.5,-467 171.5,-467 171.5,-433 0.5,-433"/>
<text text-anchor="start" x="8.5" y="-454" font-family="Ubuntu-R" font-size="10.00">forcebalance.gmxqpio.Monomer</text>
<text text-anchor="middle" x="86" y="-441" font-family="Ubuntu-R" font-size="10.00">_QTPIE.__init__</text>
</g>
<!-- Node2 -->
<g id="node3" class="node"><title>Node2</title>
<a xlink:href="classforcebalance_1_1abinitio_1_1AbInitio.html#a2d0f465f1988fd6bc611f7de4b59fd04" target="_top" xlink:title="Prepare the temporary directory, by default does nothing.">
<polygon fill="white" stroke="black" points="216.5,-537 216.5,-571 373.5,-571 373.5,-537 216.5,-537"/>
<text text-anchor="start" x="224.5" y="-558" font-family="Ubuntu-R" font-size="10.00">forcebalance.abinitio.Ab</text>
<text text-anchor="middle" x="295" y="-545" font-family="Ubuntu-R" font-size="10.00">Initio.prepare_temp_directory</text>
</a>
</g>
<!-- Node1&#45;&gt;Node2 -->
<g id="edge2" class="edge"><title>Node1&#45;&gt;Node2</title>
<path fill="none" stroke="midnightblue" d="M108.731,-467.287C132.436,-484.637 171.204,-511.141 208,-528 212.143,-529.898 216.459,-531.699 220.857,-533.4"/>
<polygon fill="midnightblue" stroke="midnightblue" points="219.986,-536.809 230.58,-536.966 222.396,-530.237 219.986,-536.809"/>
</g>
<!-- Node3 -->
<g id="node5" class="node"><title>Node3</title>
<a xlink:href="classforcebalance_1_1amberio_1_1AbInitio__AMBER.html#a1d224b2406545021d839c6189a0a4cdb" target="_top" xlink:title="forcebalance.amberio.AbInitio\l_AMBER.prepare_temp_directory">
<polygon fill="white" stroke="black" points="208.5,-485 208.5,-519 381.5,-519 381.5,-485 208.5,-485"/>
<text text-anchor="start" x="216.5" y="-506" font-family="Ubuntu-R" font-size="10.00">forcebalance.amberio.AbInitio</text>
<text text-anchor="middle" x="295" y="-493" font-family="Ubuntu-R" font-size="10.00">_AMBER.prepare_temp_directory</text>
</a>
</g>
<!-- Node1&#45;&gt;Node3 -->
<g id="edge4" class="edge"><title>Node1&#45;&gt;Node3</title>
<path fill="none" stroke="midnightblue" d="M154.434,-467.027C174.282,-471.965 196.108,-477.395 216.52,-482.474"/>
<polygon fill="midnightblue" stroke="midnightblue" points="215.863,-485.917 226.412,-484.935 217.553,-479.124 215.863,-485.917"/>
</g>
<!-- Node7 -->
<g id="node14" class="node"><title>Node7</title>
<a xlink:href="classforcebalance_1_1gmxio_1_1AbInitio__GMX.html#ab2eac76585bdb8401812f0c8e465a44e" target="_top" xlink:title="forcebalance.gmxio.AbInitio\l_GMX.prepare_temp_directory">
<polygon fill="white" stroke="black" points="214.5,-341 214.5,-375 375.5,-375 375.5,-341 214.5,-341"/>
<text text-anchor="start" x="222.5" y="-362" font-family="Ubuntu-R" font-size="10.00">forcebalance.gmxio.AbInitio</text>
<text text-anchor="middle" x="295" y="-349" font-family="Ubuntu-R" font-size="10.00">_GMX.prepare_temp_directory</text>
</a>
</g>
<!-- Node1&#45;&gt;Node7 -->
<g id="edge14" class="edge"><title>Node1&#45;&gt;Node7</title>
<path fill="none" stroke="midnightblue" d="M124.821,-432.911C159.173,-417.79 209.449,-395.659 246.451,-379.371"/>
<polygon fill="midnightblue" stroke="midnightblue" points="248.29,-382.386 256.032,-375.153 245.47,-375.979 248.29,-382.386"/>
</g>
<!-- Node17 -->
<g id="node37" class="node"><title>Node17</title>
<a xlink:href="classforcebalance_1_1gmxio_1_1Interaction__GMX.html#a2dee88df57edbb437dbf69678038dd17" target="_top" xlink:title="forcebalance.gmxio.Interaction\l_GMX.prepare_temp_directory">
<polygon fill="white" stroke="black" points="213,-145 213,-179 377,-179 377,-145 213,-145"/>
<text text-anchor="start" x="221" y="-166" font-family="Ubuntu-R" font-size="10.00">forcebalance.gmxio.Interaction</text>
<text text-anchor="middle" x="295" y="-153" font-family="Ubuntu-R" font-size="10.00">_GMX.prepare_temp_directory</text>
</a>
</g>
<!-- Node1&#45;&gt;Node17 -->
<g id="edge40" class="edge"><title>Node1&#45;&gt;Node17</title>
<path fill="none" stroke="midnightblue" d="M98.448,-432.847C133.806,-384.124 234.97,-244.721 276.681,-187.244"/>
<polygon fill="midnightblue" stroke="midnightblue" points="279.577,-189.212 282.617,-179.063 273.911,-185.101 279.577,-189.212"/>
</g>
<!-- Node31 -->
<g id="node72" class="node"><title>Node31</title>
<a xlink:href="classforcebalance_1_1gmxqpio_1_1Monomer__QTPIE.html#a0a859c87a87d4021e61ada64fdce4ebd" target="_top" xlink:title="forcebalance.gmxqpio.Monomer\l_QTPIE.prepare_temp_directory">
<polygon fill="white" stroke="black" points="209.5,-433 209.5,-467 380.5,-467 380.5,-433 209.5,-433"/>
<text text-anchor="start" x="217.5" y="-454" font-family="Ubuntu-R" font-size="10.00">forcebalance.gmxqpio.Monomer</text>
<text text-anchor="middle" x="295" y="-441" font-family="Ubuntu-R" font-size="10.00">_QTPIE.prepare_temp_directory</text>
</a>
</g>
<!-- Node1&#45;&gt;Node31 -->
<g id="edge82" class="edge"><title>Node1&#45;&gt;Node31</title>
<path fill="none" stroke="midnightblue" d="M171.611,-450C180.621,-450 189.824,-450 198.942,-450"/>
<polygon fill="midnightblue" stroke="midnightblue" points="199.184,-453.5 209.184,-450 199.184,-446.5 199.184,-453.5"/>
</g>
<!-- Node4 -->
<g id="node7" class="node"><title>Node4</title>
<a xlink:href="classforcebalance_1_1amberio_1_1AbInitio__AMBER.html#ad0fcc43d857471ee074361076c040ea5" target="_top" xlink:title="forcebalance.amberio.AbInitio\l_AMBER.energy_force_driver\l_all_external_">
<polygon fill="white" stroke="black" points="424.5,-565.5 424.5,-612.5 583.5,-612.5 583.5,-565.5 424.5,-565.5"/>
<text text-anchor="start" x="432.5" y="-599.5" font-family="Ubuntu-R" font-size="10.00">forcebalance.amberio.AbInitio</text>
<text text-anchor="start" x="432.5" y="-586.5" font-family="Ubuntu-R" font-size="10.00">_AMBER.energy_force_driver</text>
<text text-anchor="middle" x="504" y="-573.5" font-family="Ubuntu-R" font-size="10.00">_all_external_</text>
</a>
</g>
<!-- Node3&#45;&gt;Node4 -->
<g id="edge6" class="edge"><title>Node3&#45;&gt;Node4</title>
<path fill="none" stroke="midnightblue" d="M356.77,-519.012C365.325,-521.787 373.939,-524.808 382,-528 405.696,-537.383 431.031,-549.658 452.438,-560.735"/>
<polygon fill="midnightblue" stroke="midnightblue" points="450.873,-563.866 461.356,-565.397 454.116,-557.662 450.873,-563.866"/>
</g>
<!-- Node4&#45;&gt;Node4 -->
<g id="edge12" class="edge"><title>Node4&#45;&gt;Node4</title>
<path fill="none" stroke="midnightblue" d="M465.343,-612.747C462.677,-622.626 475.562,-631 504,-631 522.218,-631 534.053,-627.563 539.506,-622.496"/>
<polygon fill="midnightblue" stroke="midnightblue" points="542.912,-623.339 542.657,-612.747 536.251,-621.186 542.912,-623.339"/>
</g>
<!-- Node5 -->
<g id="node9" class="node"><title>Node5</title>
<a xlink:href="namespaceforcebalance_1_1molecule.html#afe989ffd119568047fc8265b1d329a70" target="_top" xlink:title="Matches ANY number; it can be a decimal, scientific notation, integer, or what have you...">
<polygon fill="white" stroke="black" points="1036,-598.5 1036,-619.5 1192,-619.5 1192,-598.5 1036,-598.5"/>
<text text-anchor="middle" x="1114" y="-606.5" font-family="Ubuntu-R" font-size="10.00">forcebalance.molecule.isfloat</text>
</a>
</g>
<!-- Node4&#45;&gt;Node5 -->
<g id="edge8" class="edge"><title>Node4&#45;&gt;Node5</title>
<path fill="none" stroke="midnightblue" d="M583.789,-607.596C597.798,-610.404 612.282,-613.02 626,-615 790.667,-638.772 834.381,-646.835 1000,-631 1019.73,-629.114 1041.12,-625.431 1059.99,-621.61"/>
<polygon fill="midnightblue" stroke="midnightblue" points="1060.82,-625.012 1069.89,-619.546 1059.39,-618.16 1060.82,-625.012"/>
</g>
<!-- Node6 -->
<g id="node11" class="node"><title>Node6</title>
<a xlink:href="classforcebalance_1_1amberio_1_1AbInitio__AMBER.html#a64ccf943e550392c654ec7bb6c6ff81b" target="_top" xlink:title="forcebalance.amberio.AbInitio\l_AMBER.energy_force_driver_all">
<polygon fill="white" stroke="black" points="628,-572 628,-606 796,-606 796,-572 628,-572"/>
<text text-anchor="start" x="636" y="-593" font-family="Ubuntu-R" font-size="10.00">forcebalance.amberio.AbInitio</text>
<text text-anchor="middle" x="712" y="-580" font-family="Ubuntu-R" font-size="10.00">_AMBER.energy_force_driver_all</text>
</a>
</g>
<!-- Node4&#45;&gt;Node6 -->
<g id="edge10" class="edge"><title>Node4&#45;&gt;Node6</title>
<path fill="none" stroke="midnightblue" d="M583.526,-589C594.59,-589 606.045,-589 617.352,-589"/>
<polygon fill="midnightblue" stroke="midnightblue" points="617.678,-592.5 627.678,-589 617.678,-585.5 617.678,-592.5"/>
</g>
<!-- Node8 -->
<g id="node16" class="node"><title>Node8</title>
<a xlink:href="namespaceforcebalance_1_1nifty.html#abb8f59044961a12588e0653c2baa8b01" target="_top" xlink:title="forcebalance.nifty.warn\l_press_key">
<polygon fill="white" stroke="black" points="649.5,-370 649.5,-404 774.5,-404 774.5,-370 649.5,-370"/>
<text text-anchor="start" x="657.5" y="-391" font-family="Ubuntu-R" font-size="10.00">forcebalance.nifty.warn</text>
<text text-anchor="middle" x="712" y="-378" font-family="Ubuntu-R" font-size="10.00">_press_key</text>
</a>
</g>
<!-- Node7&#45;&gt;Node8 -->
<g id="edge16" class="edge"><title>Node7&#45;&gt;Node8</title>
<path fill="none" stroke="midnightblue" d="M375.896,-363.626C452.241,-368.935 565.674,-376.824 639.237,-381.94"/>
<polygon fill="midnightblue" stroke="midnightblue" points="639.125,-385.44 649.344,-382.643 639.611,-378.457 639.125,-385.44"/>
</g>
<!-- Node9 -->
<g id="node18" class="node"><title>Node9</title>
<a xlink:href="namespaceforcebalance_1_1nifty.html#ab182a9da2a2f42cf45942fbee6acf9b1" target="_top" xlink:title="forcebalance.nifty.LinkFile">
<polygon fill="white" stroke="black" points="436,-327.5 436,-348.5 572,-348.5 572,-327.5 436,-327.5"/>
<text text-anchor="middle" x="504" y="-335.5" font-family="Ubuntu-R" font-size="10.00">forcebalance.nifty.LinkFile</text>
</a>
</g>
<!-- Node7&#45;&gt;Node9 -->
<g id="edge18" class="edge"><title>Node7&#45;&gt;Node9</title>
<path fill="none" stroke="midnightblue" d="M375.506,-350.296C391.98,-348.72 409.296,-347.063 425.692,-345.494"/>
<polygon fill="midnightblue" stroke="midnightblue" points="426.145,-348.966 435.766,-344.53 425.478,-341.998 426.145,-348.966"/>
</g>
<!-- Node11 -->
<g id="node22" class="node"><title>Node11</title>
<a xlink:href="classforcebalance_1_1gmxio_1_1AbInitio__GMX.html#a4bc31d1c02d47749d26b14779f025ebd" target="_top" xlink:title="Computes the energy and force using GROMACS for a single snapshot.">
<polygon fill="white" stroke="black" points="430,-266 430,-300 578,-300 578,-266 430,-266"/>
<text text-anchor="start" x="438" y="-287" font-family="Ubuntu-R" font-size="10.00">forcebalance.gmxio.AbInitio</text>
<text text-anchor="middle" x="504" y="-274" font-family="Ubuntu-R" font-size="10.00">_GMX.energy_force_driver</text>
</a>
</g>
<!-- Node7&#45;&gt;Node11 -->
<g id="edge22" class="edge"><title>Node7&#45;&gt;Node11</title>
<path fill="none" stroke="midnightblue" d="M342.425,-340.981C373.447,-329.849 414.148,-315.244 446.939,-303.477"/>
<polygon fill="midnightblue" stroke="midnightblue" points="448.171,-306.753 456.401,-300.081 445.807,-300.164 448.171,-306.753"/>
</g>
<!-- Node16 -->
<g id="node33" class="node"><title>Node16</title>
<a xlink:href="namespaceforcebalance_1_1gmxio.html#acac8488f29b62fb0d4cb54bb5a041026" target="_top" xlink:title="forcebalance.gmxio.rm\l_gmx_baks">
<polygon fill="white" stroke="black" points="854,-206 854,-240 980,-240 980,-206 854,-206"/>
<text text-anchor="start" x="862" y="-227" font-family="Ubuntu-R" font-size="10.00">forcebalance.gmxio.rm</text>
<text text-anchor="middle" x="917" y="-214" font-family="Ubuntu-R" font-size="10.00">_gmx_baks</text>
</a>
</g>
<!-- Node7&#45;&gt;Node16 -->
<g id="edge38" class="edge"><title>Node7&#45;&gt;Node16</title>
<path fill="none" stroke="midnightblue" d="M309.713,-340.994C330.999,-317.664 372.814,-276.421 418,-257 558.951,-196.42 743.03,-203.265 843.568,-213.322"/>
<polygon fill="midnightblue" stroke="midnightblue" points="843.318,-216.815 853.626,-214.367 844.041,-209.853 843.318,-216.815"/>
</g>
<!-- Node10 -->
<g id="node20" class="node"><title>Node10</title>
<a xlink:href="namespaceforcebalance_1_1nifty.html#a25efa4d501ad852a234721af18978f7e" target="_top" xlink:title="Remove the file if it exists (doesn&#39;t return an error).">
<polygon fill="white" stroke="black" points="642.5,-318 642.5,-352 781.5,-352 781.5,-318 642.5,-318"/>
<text text-anchor="start" x="650.5" y="-339" font-family="Ubuntu-R" font-size="10.00">forcebalance.nifty.remove</text>
<text text-anchor="middle" x="712" y="-326" font-family="Ubuntu-R" font-size="10.00">_if_exists</text>
</a>
</g>
<!-- Node9&#45;&gt;Node10 -->
<g id="edge20" class="edge"><title>Node9&#45;&gt;Node10</title>
<path fill="none" stroke="midnightblue" d="M572.107,-337.018C591.277,-336.741 612.301,-336.438 632.093,-336.153"/>
<polygon fill="midnightblue" stroke="midnightblue" points="632.366,-339.649 642.314,-336.005 632.265,-332.65 632.366,-339.649"/>
</g>
<!-- Node12 -->
<g id="node24" class="node"><title>Node12</title>
<a xlink:href="classforcebalance_1_1gmxio_1_1AbInitio__GMX.html#a6e43c323b2286c546ff8afd3377f8808" target="_top" xlink:title="Computes the energy and force using GROMACS for a trajectory.">
<polygon fill="white" stroke="black" points="634,-266 634,-300 790,-300 790,-266 634,-266"/>
<text text-anchor="start" x="642" y="-287" font-family="Ubuntu-R" font-size="10.00">forcebalance.gmxio.AbInitio</text>
<text text-anchor="middle" x="712" y="-274" font-family="Ubuntu-R" font-size="10.00">_GMX.energy_force_driver_all</text>
</a>
</g>
<!-- Node11&#45;&gt;Node12 -->
<g id="edge24" class="edge"><title>Node11&#45;&gt;Node12</title>
<path fill="none" stroke="midnightblue" d="M578.212,-283C592.905,-283 608.464,-283 623.575,-283"/>
<polygon fill="midnightblue" stroke="midnightblue" points="623.948,-286.5 633.948,-283 623.948,-279.5 623.948,-286.5"/>
</g>
<!-- Node11&#45;&gt;Node16 -->
<g id="edge36" class="edge"><title>Node11&#45;&gt;Node16</title>
<path fill="none" stroke="midnightblue" d="M578.308,-266.006C594.005,-262.741 610.508,-259.55 626,-257 699.776,-244.856 784.773,-235.448 843.779,-229.638"/>
<polygon fill="midnightblue" stroke="midnightblue" points="844.139,-233.12 853.752,-228.666 843.46,-226.153 844.139,-233.12"/>
</g>
<!-- Node13 -->
<g id="node26" class="node"><title>Node13</title>
<a xlink:href="classforcebalance_1_1gmxio_1_1AbInitio__GMX.html#ae17e3c379d82935d725dd31f01df23e5" target="_top" xlink:title="Call mdrun in order to update the virtual site positions.">
<polygon fill="white" stroke="black" points="834,-306 834,-340 1000,-340 1000,-306 834,-306"/>
<text text-anchor="start" x="842" y="-327" font-family="Ubuntu-R" font-size="10.00">forcebalance.gmxio.AbInitio</text>
<text text-anchor="middle" x="917" y="-314" font-family="Ubuntu-R" font-size="10.00">_GMX.generate_vsite_positions</text>
</a>
</g>
<!-- Node12&#45;&gt;Node13 -->
<g id="edge26" class="edge"><title>Node12&#45;&gt;Node13</title>
<path fill="none" stroke="midnightblue" d="M790.087,-298.236C801.113,-300.388 812.54,-302.618 823.816,-304.818"/>
<polygon fill="midnightblue" stroke="midnightblue" points="823.187,-308.261 833.672,-306.741 824.527,-301.39 823.187,-308.261"/>
</g>
<!-- Node12&#45;&gt;Node16 -->
<g id="edge34" class="edge"><title>Node12&#45;&gt;Node16</title>
<path fill="none" stroke="midnightblue" d="M770.196,-265.967C794.758,-258.778 823.522,-250.359 849.049,-242.888"/>
<polygon fill="midnightblue" stroke="midnightblue" points="850.044,-246.244 858.658,-240.076 848.078,-239.526 850.044,-246.244"/>
</g>
<!-- Node14 -->
<g id="node28" class="node"><title>Node14</title>
<a xlink:href="classforcebalance_1_1gmxio_1_1AbInitio__GMX.html#a1d03ae8104bcecacf96884058f2698af" target="_top" xlink:title="forcebalance.gmxio.AbInitio\l_GMX.__init__">
<polygon fill="white" stroke="black" points="1040,-330 1040,-364 1188,-364 1188,-330 1040,-330"/>
<text text-anchor="start" x="1048" y="-351" font-family="Ubuntu-R" font-size="10.00">forcebalance.gmxio.AbInitio</text>
<text text-anchor="middle" x="1114" y="-338" font-family="Ubuntu-R" font-size="10.00">_GMX.__init__</text>
</a>
</g>
<!-- Node13&#45;&gt;Node14 -->
<g id="edge28" class="edge"><title>Node13&#45;&gt;Node14</title>
<path fill="none" stroke="midnightblue" d="M1000.26,-333.143C1010,-334.33 1019.95,-335.542 1029.7,-336.731"/>
<polygon fill="midnightblue" stroke="midnightblue" points="1029.44,-340.224 1039.79,-337.959 1030.28,-333.275 1029.44,-340.224"/>
</g>
<!-- Node15 -->
<g id="node30" class="node"><title>Node15</title>
<a xlink:href="classforcebalance_1_1gmxio_1_1AbInitio__GMX.html#aba138ca4195a1737f2f00bd8c5f3ca07" target="_top" xlink:title="This function parses the GROMACS topology file (.top) which contains a listing of the molecules in th...">
<polygon fill="white" stroke="black" points="1228,-349 1228,-383 1376,-383 1376,-349 1228,-349"/>
<text text-anchor="start" x="1236" y="-370" font-family="Ubuntu-R" font-size="10.00">forcebalance.gmxio.AbInitio</text>
<text text-anchor="middle" x="1302" y="-357" font-family="Ubuntu-R" font-size="10.00">_GMX.read_topology</text>
</a>
</g>
<!-- Node14&#45;&gt;Node15 -->
<g id="edge30" class="edge"><title>Node14&#45;&gt;Node15</title>
<path fill="none" stroke="midnightblue" d="M1188.03,-354.482C1197.72,-355.461 1207.7,-356.47 1217.54,-357.464"/>
<polygon fill="midnightblue" stroke="midnightblue" points="1217.43,-360.97 1227.73,-358.494 1218.13,-354.006 1217.43,-360.97"/>
</g>
<!-- Node15&#45;&gt;Node7 -->
<g id="edge32" class="edge"><title>Node15&#45;&gt;Node7</title>
<path fill="none" stroke="midnightblue" d="M1240.88,-383.082C1165.4,-402.638 1032.79,-432 917,-432 712,-432 712,-432 712,-432 587.471,-432 445.197,-399.611 363.163,-377.689"/>
<polygon fill="midnightblue" stroke="midnightblue" points="364.029,-374.297 353.463,-375.07 362.205,-381.055 364.029,-374.297"/>
</g>
<!-- Node17&#45;&gt;Node9 -->
<g id="edge42" class="edge"><title>Node17&#45;&gt;Node9</title>
<path fill="none" stroke="midnightblue" d="M304.903,-179.159C323.334,-209.628 365.805,-273.319 418,-309 427.063,-315.195 437.562,-320.167 448.046,-324.121"/>
<polygon fill="midnightblue" stroke="midnightblue" points="447.032,-327.474 457.627,-327.473 449.343,-320.867 447.032,-327.474"/>
</g>
<!-- Node17&#45;&gt;Node16 -->
<g id="edge80" class="edge"><title>Node17&#45;&gt;Node16</title>
<path fill="none" stroke="midnightblue" d="M377.162,-159.573C477.337,-158.067 651.42,-160.149 798,-186 819.331,-189.762 842.179,-196.24 862.094,-202.735"/>
<polygon fill="midnightblue" stroke="midnightblue" points="861.021,-206.067 871.615,-205.913 863.238,-199.427 861.021,-206.067"/>
</g>
<!-- Node18 -->
<g id="node40" class="node"><title>Node18</title>
<a xlink:href="classforcebalance_1_1gmxio_1_1Interaction__GMX.html#a8ce5c501d7ca8ae08ee2f5c21a67e0fc" target="_top" xlink:title="Computes the energy and force using GROMACS for a single snapshot.">
<polygon fill="white" stroke="black" points="422,-100 422,-134 586,-134 586,-100 422,-100"/>
<text text-anchor="start" x="430" y="-121" font-family="Ubuntu-R" font-size="10.00">forcebalance.gmxio.Interaction</text>
<text text-anchor="middle" x="504" y="-108" font-family="Ubuntu-R" font-size="10.00">_GMX.interaction_driver</text>
</a>
</g>
<!-- Node17&#45;&gt;Node18 -->
<g id="edge44" class="edge"><title>Node17&#45;&gt;Node18</title>
<path fill="none" stroke="midnightblue" d="M374.014,-144.987C387.409,-142.103 401.398,-139.091 415.027,-136.157"/>
<polygon fill="midnightblue" stroke="midnightblue" points="415.835,-139.563 424.874,-134.037 414.362,-132.72 415.835,-139.563"/>
</g>
<!-- Node19 -->
<g id="node42" class="node"><title>Node19</title>
<a xlink:href="classforcebalance_1_1gmxio_1_1Interaction__GMX.html#a5bac92638e1962f1ccbe189f4e20898b" target="_top" xlink:title="Computes the energy and force using GROMACS for a trajectory.">
<polygon fill="white" stroke="black" points="422,-48 422,-82 586,-82 586,-48 422,-48"/>
<text text-anchor="start" x="430" y="-69" font-family="Ubuntu-R" font-size="10.00">forcebalance.gmxio.Interaction</text>
<text text-anchor="middle" x="504" y="-56" font-family="Ubuntu-R" font-size="10.00">_GMX.interaction_driver_all</text>
</a>
</g>
<!-- Node17&#45;&gt;Node19 -->
<g id="edge46" class="edge"><title>Node17&#45;&gt;Node19</title>
<path fill="none" stroke="midnightblue" d="M320.484,-144.958C344.749,-129.303 382.702,-106.281 418,-91 422.42,-89.0868 427.024,-87.2568 431.704,-85.5179"/>
<polygon fill="midnightblue" stroke="midnightblue" points="433.132,-88.725 441.383,-82.0789 430.789,-82.129 433.132,-88.725"/>
</g>
<!-- Node19&#45;&gt;Node8 -->
<g id="edge50" class="edge"><title>Node19&#45;&gt;Node8</title>
<path fill="none" stroke="midnightblue" d="M580.405,-82.2188C583.931,-84.7634 587.17,-87.6734 590,-91 668.441,-183.212 547.559,-268.788 626,-361 630.112,-365.834 635.09,-369.788 640.553,-373.02"/>
<polygon fill="midnightblue" stroke="midnightblue" points="638.98,-376.147 649.485,-377.527 642.134,-369.897 638.98,-376.147"/>
</g>
<!-- Node20 -->
<g id="node44" class="node"><title>Node20</title>
<a xlink:href="namespaceforcebalance_1_1nifty.html#ac37d4fe58ef70ed546ebfc45d12f7a5d" target="_top" xlink:title="forcebalance.nifty.getWork\lQueue">
<polygon fill="white" stroke="black" points="641.5,-86 641.5,-120 782.5,-120 782.5,-86 641.5,-86"/>
<text text-anchor="start" x="649.5" y="-107" font-family="Ubuntu-R" font-size="10.00">forcebalance.nifty.getWork</text>
<text text-anchor="middle" x="712" y="-94" font-family="Ubuntu-R" font-size="10.00">Queue</text>
</a>
</g>
<!-- Node19&#45;&gt;Node20 -->
<g id="edge48" class="edge"><title>Node19&#45;&gt;Node20</title>
<path fill="none" stroke="midnightblue" d="M586.207,-80.0186C601.061,-82.7324 616.537,-85.5596 631.346,-88.2651"/>
<polygon fill="midnightblue" stroke="midnightblue" points="631.01,-91.7616 641.476,-90.1159 632.268,-84.8756 631.01,-91.7616"/>
</g>
<!-- Node21 -->
<g id="node47" class="node"><title>Node21</title>
<a xlink:href="namespaceforcebalance_1_1qchemio.html#a067c1b4f6695fc5dc20b5de66114bb7f" target="_top" xlink:title="forcebalance.qchemio.QChem\l_Dielectric_Energy">
<polygon fill="white" stroke="black" points="631.5,-34 631.5,-68 792.5,-68 792.5,-34 631.5,-34"/>
<text text-anchor="start" x="639.5" y="-55" font-family="Ubuntu-R" font-size="10.00">forcebalance.qchemio.QChem</text>
<text text-anchor="middle" x="712" y="-42" font-family="Ubuntu-R" font-size="10.00">_Dielectric_Energy</text>
</a>
</g>
<!-- Node19&#45;&gt;Node21 -->
<g id="edge52" class="edge"><title>Node19&#45;&gt;Node21</title>
<path fill="none" stroke="midnightblue" d="M586.207,-59.4668C597.712,-58.6924 609.59,-57.893 621.243,-57.1087"/>
<polygon fill="midnightblue" stroke="midnightblue" points="621.667,-60.5881 631.41,-56.4243 621.197,-53.6039 621.667,-60.5881"/>
</g>
<!-- Node22 -->
<g id="node49" class="node"><title>Node22</title>
<a xlink:href="namespaceforcebalance_1_1nifty.html#ad432b88307e1178b0690c0d350b1af36" target="_top" xlink:title="forcebalance.nifty.GoInto">
<polygon fill="white" stroke="black" points="1235,-149.5 1235,-170.5 1369,-170.5 1369,-149.5 1235,-149.5"/>
<text text-anchor="middle" x="1302" y="-157.5" font-family="Ubuntu-R" font-size="10.00">forcebalance.nifty.GoInto</text>
</a>
</g>
<!-- Node21&#45;&gt;Node22 -->
<g id="edge54" class="edge"><title>Node21&#45;&gt;Node22</title>
<path fill="none" stroke="midnightblue" d="M768.873,-68.0605C854.542,-93.6472 1009.54,-139.463 1036,-144 1098.97,-154.797 1171.41,-158.601 1224.78,-159.815"/>
<polygon fill="midnightblue" stroke="midnightblue" points="1224.78,-163.316 1234.85,-160.019 1224.92,-156.317 1224.78,-163.316"/>
</g>
<!-- Node23 -->
<g id="node51" class="node"><title>Node23</title>
<a xlink:href="namespaceforcebalance_1_1nifty.html#a673f4a044169f5d8d822823989a836a7" target="_top" xlink:title="Submit a job to the Work Queue.">
<polygon fill="white" stroke="black" points="842,-55.5 842,-76.5 992,-76.5 992,-55.5 842,-55.5"/>
<text text-anchor="middle" x="917" y="-63.5" font-family="Ubuntu-R" font-size="10.00">forcebalance.nifty.queue_up</text>
</a>
</g>
<!-- Node21&#45;&gt;Node23 -->
<g id="edge56" class="edge"><title>Node21&#45;&gt;Node23</title>
<path fill="none" stroke="midnightblue" d="M792.727,-56.9069C805.458,-57.8384 818.659,-58.8043 831.494,-59.7435"/>
<polygon fill="midnightblue" stroke="midnightblue" points="831.465,-63.2506 841.693,-60.4898 831.975,-56.2692 831.465,-63.2506"/>
</g>
<!-- Node26 -->
<g id="node57" class="node"><title>Node26</title>
<a xlink:href="namespaceforcebalance_1_1nifty.html#a576de8c5b6f236280e07e73e39b2ab7c" target="_top" xlink:title="This function waits until the work queue is completely empty.">
<polygon fill="white" stroke="black" points="1232.5,-68.5 1232.5,-89.5 1371.5,-89.5 1371.5,-68.5 1232.5,-68.5"/>
<text text-anchor="middle" x="1302" y="-76.5" font-family="Ubuntu-R" font-size="10.00">forcebalance.nifty.wq_wait</text>
</a>
</g>
<!-- Node21&#45;&gt;Node26 -->
<g id="edge78" class="edge"><title>Node21&#45;&gt;Node26</title>
<path fill="none" stroke="midnightblue" d="M792.529,-39.7773C888.451,-28.5611 1053.17,-16.1174 1192,-40 1219.19,-44.6769 1248.57,-55.41 1270.12,-64.4348"/>
<polygon fill="midnightblue" stroke="midnightblue" points="1268.87,-67.7052 1279.44,-68.4332 1271.63,-61.2727 1268.87,-67.7052"/>
</g>
<!-- Node30 -->
<g id="node67" class="node"><title>Node30</title>
<a xlink:href="namespaceforcebalance_1_1nifty.html#ab04e8690d099db2379dc860e0d040120" target="_top" xlink:title="forcebalance.nifty.Leave">
<polygon fill="white" stroke="black" points="1236.5,-0.5 1236.5,-21.5 1367.5,-21.5 1367.5,-0.5 1236.5,-0.5"/>
<text text-anchor="middle" x="1302" y="-8.5" font-family="Ubuntu-R" font-size="10.00">forcebalance.nifty.Leave</text>
</a>
</g>
<!-- Node21&#45;&gt;Node30 -->
<g id="edge76" class="edge"><title>Node21&#45;&gt;Node30</title>
<path fill="none" stroke="midnightblue" d="M775.204,-33.9664C793.988,-29.5921 814.704,-25.4368 834,-23 971.375,-5.65186 1133.17,-6.07908 1226.04,-8.3062"/>
<polygon fill="midnightblue" stroke="midnightblue" points="1226.11,-11.8088 1236.19,-8.56342 1226.29,-4.8111 1226.11,-11.8088"/>
</g>
<!-- Node24 -->
<g id="node53" class="node"><title>Node24</title>
<a xlink:href="namespaceforcebalance_1_1nifty.html#a5d5abeb4a185fde64721d044831e18ee" target="_top" xlink:title="Submit a job to the Work Queue.">
<polygon fill="white" stroke="black" points="1048,-49 1048,-83 1180,-83 1180,-49 1048,-49"/>
<text text-anchor="start" x="1056" y="-70" font-family="Ubuntu-R" font-size="10.00">forcebalance.nifty.queue</text>
<text text-anchor="middle" x="1114" y="-57" font-family="Ubuntu-R" font-size="10.00">_up_src_dest</text>
</a>
</g>
<!-- Node23&#45;&gt;Node24 -->
<g id="edge58" class="edge"><title>Node23&#45;&gt;Node24</title>
<path fill="none" stroke="midnightblue" d="M992.039,-66C1006.97,-66 1022.66,-66 1037.64,-66"/>
<polygon fill="midnightblue" stroke="midnightblue" points="1037.87,-69.5001 1047.87,-66 1037.87,-62.5001 1037.87,-69.5001"/>
</g>
<!-- Node25 -->
<g id="node55" class="node"><title>Node25</title>
<a xlink:href="namespaceforcebalance_1_1nifty.html#a374aac2ef003be02fab49b20ff0a82f0" target="_top" xlink:title="This function waits ten seconds to see if a task in the Work Queue has finished.">
<polygon fill="white" stroke="black" points="1056.5,-101 1056.5,-135 1171.5,-135 1171.5,-101 1056.5,-101"/>
<text text-anchor="start" x="1064.5" y="-122" font-family="Ubuntu-R" font-size="10.00">forcebalance.nifty.wq</text>
<text text-anchor="middle" x="1114" y="-109" font-family="Ubuntu-R" font-size="10.00">_wait1</text>
</a>
</g>
<!-- Node23&#45;&gt;Node25 -->
<g id="edge60" class="edge"><title>Node23&#45;&gt;Node25</title>
<path fill="none" stroke="midnightblue" d="M956.866,-76.523C982.523,-83.2953 1016.52,-92.2704 1046.34,-100.139"/>
<polygon fill="midnightblue" stroke="midnightblue" points="1045.7,-103.592 1056.27,-102.761 1047.49,-96.8242 1045.7,-103.592"/>
</g>
<!-- Node25&#45;&gt;Node22 -->
<g id="edge70" class="edge"><title>Node25&#45;&gt;Node22</title>
<path fill="none" stroke="midnightblue" d="M1171.68,-130.887C1194.91,-136.075 1221.63,-142.044 1244.8,-147.221"/>
<polygon fill="midnightblue" stroke="midnightblue" points="1244.31,-150.698 1254.83,-149.463 1245.84,-143.867 1244.31,-150.698"/>
</g>
<!-- Node25&#45;&gt;Node26 -->
<g id="edge62" class="edge"><title>Node25&#45;&gt;Node26</title>
<path fill="none" stroke="midnightblue" d="M1171.68,-106.034C1193.68,-101.471 1218.81,-96.2572 1241.1,-91.634"/>
<polygon fill="midnightblue" stroke="midnightblue" points="1242.03,-95.0142 1251.12,-89.5559 1240.61,-88.1601 1242.03,-95.0142"/>
</g>
<!-- Node27 -->
<g id="node59" class="node"><title>Node27</title>
<a xlink:href="namespaceforcebalance_1_1nifty.html#ac9ab6c5543a2e3080061e0024850edf3" target="_top" xlink:title="forcebalance.nifty.allsplit">
<polygon fill="white" stroke="black" points="1412,-87.5 1412,-108.5 1544,-108.5 1544,-87.5 1412,-87.5"/>
<text text-anchor="middle" x="1478" y="-95.5" font-family="Ubuntu-R" font-size="10.00">forcebalance.nifty.allsplit</text>
</a>
</g>
<!-- Node25&#45;&gt;Node27 -->
<g id="edge72" class="edge"><title>Node25&#45;&gt;Node27</title>
<path fill="none" stroke="midnightblue" d="M1171.68,-114.831C1233.84,-111.416 1333.06,-105.964 1401.65,-102.195"/>
<polygon fill="midnightblue" stroke="midnightblue" points="1402.17,-105.672 1411.97,-101.628 1401.79,-98.6822 1402.17,-105.672"/>
</g>
<!-- Node25&#45;&gt;Node30 -->
<g id="edge74" class="edge"><title>Node25&#45;&gt;Node30</title>
<path fill="none" stroke="midnightblue" d="M1171.88,-101.787C1178.86,-98.9445 1185.73,-95.6918 1192,-92 1210.71,-80.9927 1210.84,-72.2852 1228,-59 1242.9,-47.4669 1260.57,-35.9314 1274.91,-27.0602"/>
<polygon fill="midnightblue" stroke="midnightblue" points="1277.08,-29.8393 1283.79,-21.6421 1273.43,-23.8642 1277.08,-29.8393"/>
</g>
<!-- Node26&#45;&gt;Node27 -->
<g id="edge64" class="edge"><title>Node26&#45;&gt;Node27</title>
<path fill="none" stroke="midnightblue" d="M1371.56,-86.5093C1381.5,-87.5829 1391.78,-88.692 1401.84,-89.7783"/>
<polygon fill="midnightblue" stroke="midnightblue" points="1401.5,-93.2614 1411.81,-90.855 1402.25,-86.3018 1401.5,-93.2614"/>
</g>
<!-- Node28 -->
<g id="node61" class="node"><title>Node28</title>
<a xlink:href="namespaceforcebalance_1_1nifty.html#ae87c7def5f8edf2ec30737bdb1d2636f" target="_top" xlink:title="forcebalance.nifty.Missing\lFileInspection">
<polygon fill="white" stroke="black" points="1580,-81 1580,-115 1718,-115 1718,-81 1580,-81"/>
<text text-anchor="start" x="1588" y="-102" font-family="Ubuntu-R" font-size="10.00">forcebalance.nifty.Missing</text>
<text text-anchor="middle" x="1649" y="-89" font-family="Ubuntu-R" font-size="10.00">FileInspection</text>
</a>
</g>
<!-- Node27&#45;&gt;Node28 -->
<g id="edge66" class="edge"><title>Node27&#45;&gt;Node28</title>
<path fill="none" stroke="midnightblue" d="M1544.11,-98C1552.56,-98 1561.27,-98 1569.89,-98"/>
<polygon fill="midnightblue" stroke="midnightblue" points="1569.95,-101.5 1579.95,-98 1569.95,-94.5001 1569.95,-101.5"/>
</g>
<!-- Node29 -->
<g id="node63" class="node"><title>Node29</title>
<a xlink:href="namespaceforcebalance_1_1nifty.html#a0cf4e58f90acf20e3d6224be2354082c" target="_top" xlink:title="forcebalance.nifty.link\l_dir_contents">
<polygon fill="white" stroke="black" points="1754,-81 1754,-115 1872,-115 1872,-81 1754,-81"/>
<text text-anchor="start" x="1762" y="-102" font-family="Ubuntu-R" font-size="10.00">forcebalance.nifty.link</text>
<text text-anchor="middle" x="1813" y="-89" font-family="Ubuntu-R" font-size="10.00">_dir_contents</text>
</a>
</g>
<!-- Node28&#45;&gt;Node29 -->
<g id="edge68" class="edge"><title>Node28&#45;&gt;Node29</title>
<path fill="none" stroke="midnightblue" d="M1718.08,-98C1726.54,-98 1735.19,-98 1743.66,-98"/>
<polygon fill="midnightblue" stroke="midnightblue" points="1743.87,-101.5 1753.87,-98 1743.87,-94.5001 1743.87,-101.5"/>
</g>
<!-- Node31&#45;&gt;Node8 -->
<g id="edge84" class="edge"><title>Node31&#45;&gt;Node8</title>
<path fill="none" stroke="midnightblue" d="M380.645,-437.061C456.905,-425.54 567.251,-408.869 639.301,-397.983"/>
<polygon fill="midnightblue" stroke="midnightblue" points="639.841,-401.441 649.206,-396.487 638.796,-394.52 639.841,-401.441"/>
</g>
<!-- Node31&#45;&gt;Node9 -->
<g id="edge86" class="edge"><title>Node31&#45;&gt;Node9</title>
<path fill="none" stroke="midnightblue" d="M326.743,-432.99C367.062,-411.383 436.068,-374.404 475.022,-353.529"/>
<polygon fill="midnightblue" stroke="midnightblue" points="477.081,-356.396 484.242,-348.588 473.775,-350.226 477.081,-356.396"/>
</g>
<!-- Node32 -->
<g id="node76" class="node"><title>Node32</title>
<a xlink:href="classforcebalance_1_1gmxqpio_1_1Monomer__QTPIE.html#ac227bf1f1ed6d579fea2eeda64c389cb" target="_top" xlink:title="forcebalance.gmxqpio.Monomer\l_QTPIE.unpack_moments">
<polygon fill="white" stroke="black" points="418.5,-498 418.5,-532 589.5,-532 589.5,-498 418.5,-498"/>
<text text-anchor="start" x="426.5" y="-519" font-family="Ubuntu-R" font-size="10.00">forcebalance.gmxqpio.Monomer</text>
<text text-anchor="middle" x="504" y="-506" font-family="Ubuntu-R" font-size="10.00">_QTPIE.unpack_moments</text>
</a>
</g>
<!-- Node31&#45;&gt;Node32 -->
<g id="edge88" class="edge"><title>Node31&#45;&gt;Node32</title>
<path fill="none" stroke="midnightblue" d="M352.608,-467.048C362.425,-470.001 372.512,-473.066 382,-476 401.537,-482.041 422.78,-488.775 441.984,-494.924"/>
<polygon fill="midnightblue" stroke="midnightblue" points="440.933,-498.263 451.525,-497.984 443.072,-491.597 440.933,-498.263"/>
</g>
<!-- Node33 -->
<g id="node78" class="node"><title>Node33</title>
<a xlink:href="classforcebalance_1_1gmxqpio_1_1Monomer__QTPIE.html#a46144411b5166a1839bf954b584ca3a7" target="_top" xlink:title="forcebalance.gmxqpio.Monomer\l_QTPIE.get">
<polygon fill="white" stroke="black" points="626.5,-498 626.5,-532 797.5,-532 797.5,-498 626.5,-498"/>
<text text-anchor="start" x="634.5" y="-519" font-family="Ubuntu-R" font-size="10.00">forcebalance.gmxqpio.Monomer</text>
<text text-anchor="middle" x="712" y="-506" font-family="Ubuntu-R" font-size="10.00">_QTPIE.get</text>
</a>
</g>
<!-- Node32&#45;&gt;Node33 -->
<g id="edge90" class="edge"><title>Node32&#45;&gt;Node33</title>
<path fill="none" stroke="midnightblue" d="M589.502,-508.346C598.376,-508.253 607.435,-508.228 616.411,-508.27"/>
<polygon fill="midnightblue" stroke="midnightblue" points="616.468,-511.77 626.494,-508.346 616.521,-504.77 616.468,-511.77"/>
</g>
<!-- Node33&#45;&gt;Node32 -->
<g id="edge96" class="edge"><title>Node33&#45;&gt;Node32</title>
<path fill="none" stroke="midnightblue" d="M626.494,-521.654C617.62,-521.747 608.561,-521.772 599.585,-521.73"/>
<polygon fill="midnightblue" stroke="midnightblue" points="599.528,-518.23 589.502,-521.654 599.475,-525.23 599.528,-518.23"/>
</g>
<!-- Node34 -->
<g id="node80" class="node"><title>Node34</title>
<a xlink:href="namespaceforcebalance_1_1gmxqpio.html#a499ed366638eae7be524b18760a986b8" target="_top" xlink:title="forcebalance.gmxqpio.get\l_monomer_properties">
<polygon fill="white" stroke="black" points="846.5,-588 846.5,-622 987.5,-622 987.5,-588 846.5,-588"/>
<text text-anchor="start" x="854.5" y="-609" font-family="Ubuntu-R" font-size="10.00">forcebalance.gmxqpio.get</text>
<text text-anchor="middle" x="917" y="-596" font-family="Ubuntu-R" font-size="10.00">_monomer_properties</text>
</a>
</g>
<!-- Node33&#45;&gt;Node34 -->
<g id="edge92" class="edge"><title>Node33&#45;&gt;Node34</title>
<path fill="none" stroke="midnightblue" d="M745.272,-532.128C769.584,-544.387 803.496,-560.961 834,-574 842.118,-577.47 850.769,-580.943 859.305,-584.242"/>
<polygon fill="midnightblue" stroke="midnightblue" points="858.268,-587.592 868.859,-587.884 860.761,-581.052 858.268,-587.592"/>
</g>
<!-- Node35 -->
<g id="node84" class="node"><title>Node35</title>
<a xlink:href="namespaceforcebalance_1_1finite__difference.html#aa69a8819e4680091f400303c1d6ddeb7" target="_top" xlink:title="A three&#45;point finite difference stencil.">
<polygon fill="white" stroke="black" points="864.5,-498 864.5,-532 969.5,-532 969.5,-498 864.5,-498"/>
<text text-anchor="start" x="872.5" y="-519" font-family="Ubuntu-R" font-size="10.00">forcebalance.finite</text>
<text text-anchor="middle" x="917" y="-506" font-family="Ubuntu-R" font-size="10.00">_difference.f12d3p</text>
</a>
</g>
<!-- Node33&#45;&gt;Node35 -->
<g id="edge98" class="edge"><title>Node33&#45;&gt;Node35</title>
<path fill="none" stroke="midnightblue" d="M797.751,-515C816.644,-515 836.318,-515 854.111,-515"/>
<polygon fill="midnightblue" stroke="midnightblue" points="854.349,-518.5 864.349,-515 854.349,-511.5 854.349,-518.5"/>
</g>
<!-- Node36 -->
<g id="node86" class="node"><title>Node36</title>
<a xlink:href="namespaceforcebalance_1_1finite__difference.html#ad84d3e385db1190e7d8ef58bc08a6c52" target="_top" xlink:title="Invoking this function from anywhere will tell us whether we&#39;re being called by a finite&#45;difference f...">
<polygon fill="white" stroke="black" points="1062,-539 1062,-573 1166,-573 1166,-539 1062,-539"/>
<text text-anchor="start" x="1070" y="-560" font-family="Ubuntu-R" font-size="10.00">forcebalance.finite</text>
<text text-anchor="middle" x="1114" y="-547" font-family="Ubuntu-R" font-size="10.00">_difference.in_fd</text>
</a>
</g>
<!-- Node33&#45;&gt;Node36 -->
<g id="edge112" class="edge"><title>Node33&#45;&gt;Node36</title>
<path fill="none" stroke="midnightblue" d="M782.637,-532.011C799.388,-535.5 817.255,-538.781 834,-541 908.394,-550.858 994.722,-554.283 1051.64,-555.448"/>
<polygon fill="midnightblue" stroke="midnightblue" points="1051.85,-558.952 1061.91,-555.64 1051.98,-551.953 1051.85,-558.952"/>
</g>
<!-- Node37 -->
<g id="node88" class="node"><title>Node37</title>
<a xlink:href="namespaceforcebalance_1_1finite__difference.html#ae484c591ae8c4e5bae73a0ef2660c339" target="_top" xlink:title="A function wrapper for finite difference designed for differentiating &#39;get&#39;&#45;type functions.">
<polygon fill="white" stroke="black" points="1062,-472 1062,-506 1166,-506 1166,-472 1062,-472"/>
<text text-anchor="start" x="1070" y="-493" font-family="Ubuntu-R" font-size="10.00">forcebalance.finite</text>
<text text-anchor="middle" x="1114" y="-480" font-family="Ubuntu-R" font-size="10.00">_difference.fdwrap</text>
</a>
</g>
<!-- Node33&#45;&gt;Node37 -->
<g id="edge110" class="edge"><title>Node33&#45;&gt;Node37</title>
<path fill="none" stroke="midnightblue" d="M779.672,-497.94C797.246,-494.238 816.232,-490.872 834,-489 908.524,-481.147 994.826,-482.752 1051.7,-485.271"/>
<polygon fill="midnightblue" stroke="midnightblue" points="1051.81,-488.78 1061.97,-485.75 1052.14,-481.788 1051.81,-488.78"/>
</g>
<!-- Node34&#45;&gt;Node5 -->
<g id="edge94" class="edge"><title>Node34&#45;&gt;Node5</title>
<path fill="none" stroke="midnightblue" d="M987.565,-606.433C999.936,-606.684 1012.95,-606.948 1025.73,-607.208"/>
<polygon fill="midnightblue" stroke="midnightblue" points="1025.84,-610.711 1035.91,-607.414 1025.98,-603.712 1025.84,-610.711"/>
</g>
<!-- Node35&#45;&gt;Node36 -->
<g id="edge100" class="edge"><title>Node35&#45;&gt;Node36</title>
<path fill="none" stroke="midnightblue" d="M969.534,-525.933C994.902,-531.213 1025.51,-537.584 1052.02,-543.1"/>
<polygon fill="midnightblue" stroke="midnightblue" points="1051.45,-546.557 1061.95,-545.168 1052.88,-539.704 1051.45,-546.557"/>
</g>
<!-- Node35&#45;&gt;Node37 -->
<g id="edge102" class="edge"><title>Node35&#45;&gt;Node37</title>
<path fill="none" stroke="midnightblue" d="M969.534,-508.067C994.902,-504.719 1025.51,-500.678 1052.02,-497.18"/>
<polygon fill="midnightblue" stroke="midnightblue" points="1052.5,-500.647 1061.95,-495.869 1051.58,-493.708 1052.5,-500.647"/>
</g>
<!-- Node38 -->
<g id="node90" class="node"><title>Node38</title>
<a xlink:href="namespaceforcebalance_1_1finite__difference.html#a00322fb65860c390616f74d05037c797" target="_top" xlink:title="A driver to fdwrap for gradients (see documentation for fdwrap) Inputs: tgt = The Target containing t...">
<polygon fill="white" stroke="black" points="1244,-472 1244,-506 1360,-506 1360,-472 1244,-472"/>
<text text-anchor="start" x="1252" y="-493" font-family="Ubuntu-R" font-size="10.00">forcebalance.finite</text>
<text text-anchor="middle" x="1302" y="-480" font-family="Ubuntu-R" font-size="10.00">_difference.fdwrap_G</text>
</a>
</g>
<!-- Node37&#45;&gt;Node38 -->
<g id="edge104" class="edge"><title>Node37&#45;&gt;Node38</title>
<path fill="none" stroke="midnightblue" d="M1166.37,-482.877C1187.28,-482.204 1211.65,-482.073 1233.91,-482.483"/>
<polygon fill="midnightblue" stroke="midnightblue" points="1233.89,-485.984 1243.97,-482.71 1234.05,-478.985 1233.89,-485.984"/>
</g>
<!-- Node39 -->
<g id="node93" class="node"><title>Node39</title>
<a xlink:href="namespaceforcebalance_1_1finite__difference.html#a77a0bc1ae3cbbcc8d38a0ef9ca877d6d" target="_top" xlink:title="A driver to fdwrap for Hessians (see documentation for fdwrap) Inputs: tgt = The Target containing th...">
<polygon fill="white" stroke="black" points="1244,-420 1244,-454 1360,-454 1360,-420 1244,-420"/>
<text text-anchor="start" x="1252" y="-441" font-family="Ubuntu-R" font-size="10.00">forcebalance.finite</text>
<text text-anchor="middle" x="1302" y="-428" font-family="Ubuntu-R" font-size="10.00">_difference.fdwrap_H</text>
</a>
</g>
<!-- Node37&#45;&gt;Node39 -->
<g id="edge108" class="edge"><title>Node37&#45;&gt;Node39</title>
<path fill="none" stroke="midnightblue" d="M1166.37,-474.515C1187.38,-468.704 1211.87,-461.93 1234.21,-455.751"/>
<polygon fill="midnightblue" stroke="midnightblue" points="1235.26,-459.091 1243.97,-453.052 1233.4,-452.344 1235.26,-459.091"/>
</g>
<!-- Node38&#45;&gt;Node37 -->
<g id="edge106" class="edge"><title>Node38&#45;&gt;Node37</title>
<path fill="none" stroke="midnightblue" d="M1243.97,-495.29C1222.58,-495.864 1198.26,-495.901 1176.5,-495.401"/>
<polygon fill="midnightblue" stroke="midnightblue" points="1176.46,-491.899 1166.37,-495.123 1176.27,-498.896 1176.46,-491.899"/>
</g>
</g>
</svg>
