<?xml version="1.0" encoding="UTF-8" standalone="no"?>
<!DOCTYPE svg PUBLIC "-//W3C//DTD SVG 1.1//EN"
 "http://www.w3.org/Graphics/SVG/1.1/DTD/svg11.dtd">
<!-- Generated by graphviz version 2.32.0 (20130801.1845)
 -->
<!-- Title: forcebalance.tinkerio.Interaction_TINKER.__init__ Pages: 1 -->
<svg width="1658pt" height="206pt"
 viewBox="0.00 0.00 1658.00 206.00" xmlns="http://www.w3.org/2000/svg" xmlns:xlink="http://www.w3.org/1999/xlink">
<g id="graph0" class="graph" transform="scale(1 1) rotate(0) translate(4 202)">
<title>forcebalance.tinkerio.Interaction_TINKER.__init__</title>
<polygon fill="white" stroke="white" points="-4,5 -4,-202 1655,-202 1655,5 -4,5"/>
<!-- Node1 -->
<g id="node1" class="node"><title>Node1</title>
<polygon fill="#bfbfbf" stroke="black" points="-0.244,-115 -0.244,-147 146.244,-147 146.244,-115 -0.244,-115"/>
<text text-anchor="start" x="7.756" y="-134" font-family="Ubuntu-R" font-size="10.00">forcebalance.tinkerio.Interaction</text>
<text text-anchor="middle" x="73" y="-122" font-family="Ubuntu-R" font-size="10.00">_TINKER.__init__</text>
</g>
<!-- Node2 -->
<g id="node2" class="node"><title>Node2</title>
<g id="a_node2"><a xlink:href="classforcebalance_1_1tinkerio_1_1Interaction__TINKER.html#a5c55a2a8ed4c2923ed9866e1a7b6d202" target="_top" xlink:title="forcebalance.tinkerio.Interaction\l_TINKER.energy_driver_all">
<polygon fill="white" stroke="black" points="181.756,-115 181.756,-147 328.244,-147 328.244,-115 181.756,-115"/>
<text text-anchor="start" x="189.756" y="-134" font-family="Ubuntu-R" font-size="10.00">forcebalance.tinkerio.Interaction</text>
<text text-anchor="middle" x="255" y="-122" font-family="Ubuntu-R" font-size="10.00">_TINKER.energy_driver_all</text>
</a>
</g>
</g>
<!-- Node1&#45;&gt;Node2 -->
<g id="edge1" class="edge"><title>Node1&#45;&gt;Node2</title>
<path fill="none" stroke="midnightblue" d="M146.435,-131C154.7,-131 163.17,-131 171.552,-131"/>
<polygon fill="midnightblue" stroke="midnightblue" points="171.713,-134.5 181.713,-131 171.713,-127.5 171.713,-134.5"/>
</g>
<!-- Node2&#45;&gt;Node2 -->
<g id="edge20" class="edge"><title>Node2&#45;&gt;Node2</title>
<path fill="none" stroke="midnightblue" d="M222.75,-147.091C216.168,-156.366 226.918,-165 255,-165 272.112,-165 282.789,-161.794 287.03,-157.19"/>
<polygon fill="midnightblue" stroke="midnightblue" points="290.531,-157.165 287.25,-147.091 283.532,-157.012 290.531,-157.165"/>
</g>
<!-- Node3 -->
<g id="node3" class="node"><title>Node3</title>
<g id="a_node3"><a xlink:href="classforcebalance_1_1tinkerio_1_1Interaction__TINKER.html#aa04011719babeea254134426db8c7633" target="_top" xlink:title="forcebalance.tinkerio.Interaction\l_TINKER.interaction_driver_all">
<polygon fill="white" stroke="black" points="367.606,-160 367.606,-192 514.394,-192 514.394,-160 367.606,-160"/>
<text text-anchor="start" x="375.606" y="-179" font-family="Ubuntu-R" font-size="10.00">forcebalance.tinkerio.Interaction</text>
<text text-anchor="middle" x="441" y="-167" font-family="Ubuntu-R" font-size="10.00">_TINKER.interaction_driver_all</text>
</a>
</g>
</g>
<!-- Node2&#45;&gt;Node3 -->
<g id="edge2" class="edge"><title>Node2&#45;&gt;Node3</title>
<path fill="none" stroke="midnightblue" d="M321.649,-147.055C335.569,-150.46 350.368,-154.079 364.617,-157.564"/>
<polygon fill="midnightblue" stroke="midnightblue" points="363.831,-160.975 374.376,-159.951 365.494,-154.175 363.831,-160.975"/>
</g>
<!-- Node4 -->
<g id="node4" class="node"><title>Node4</title>
<g id="a_node4"><a xlink:href="classforcebalance_1_1openmmio_1_1Interaction__OpenMM.html#a535ff72686dc66b91f5dda007e252189" target="_top" xlink:title="forcebalance.openmmio.Interaction\l_OpenMM.energy_driver_all">
<polygon fill="white" stroke="black" points="553.92,-115 553.92,-147 712.08,-147 712.08,-115 553.92,-115"/>
<text text-anchor="start" x="561.92" y="-134" font-family="Ubuntu-R" font-size="10.00">forcebalance.openmmio.Interaction</text>
<text text-anchor="middle" x="633" y="-122" font-family="Ubuntu-R" font-size="10.00">_OpenMM.energy_driver_all</text>
</a>
</g>
</g>
<!-- Node2&#45;&gt;Node4 -->
<g id="edge3" class="edge"><title>Node2&#45;&gt;Node4</title>
<path fill="none" stroke="midnightblue" d="M328.497,-131C389.873,-131 478.067,-131 543.581,-131"/>
<polygon fill="midnightblue" stroke="midnightblue" points="543.893,-134.5 553.893,-131 543.893,-127.5 543.893,-134.5"/>
</g>
<!-- Node8 -->
<g id="node8" class="node"><title>Node8</title>
<g id="a_node8"><a xlink:href="classforcebalance_1_1tinkerio_1_1AbInitio__TINKER.html#aafbf91f1422d7b8f65a4aa588d1c6e18" target="_top" xlink:title="forcebalance.tinkerio.Ab\lInitio_TINKER.energy_driver_all">
<polygon fill="white" stroke="black" points="364.55,-52 364.55,-84 517.45,-84 517.45,-52 364.55,-52"/>
<text text-anchor="start" x="372.55" y="-71" font-family="Ubuntu-R" font-size="10.00">forcebalance.tinkerio.Ab</text>
<text text-anchor="middle" x="441" y="-59" font-family="Ubuntu-R" font-size="10.00">Initio_TINKER.energy_driver_all</text>
</a>
</g>
</g>
<!-- Node2&#45;&gt;Node8 -->
<g id="edge8" class="edge"><title>Node2&#45;&gt;Node8</title>
<path fill="none" stroke="midnightblue" d="M302.907,-114.939C327.454,-106.535 357.692,-96.1817 383.518,-87.3391"/>
<polygon fill="midnightblue" stroke="midnightblue" points="384.852,-90.5819 393.179,-84.0312 382.584,-83.9593 384.852,-90.5819"/>
</g>
<!-- Node4&#45;&gt;Node4 -->
<g id="edge7" class="edge"><title>Node4&#45;&gt;Node4</title>
<path fill="none" stroke="midnightblue" d="M598.978,-147.091C592.034,-156.366 603.375,-165 633,-165 651.053,-165 662.316,-161.794 666.789,-157.19"/>
<polygon fill="midnightblue" stroke="midnightblue" points="670.291,-157.169 667.022,-147.091 663.293,-157.007 670.291,-157.169"/>
</g>
<!-- Node5 -->
<g id="node5" class="node"><title>Node5</title>
<g id="a_node5"><a xlink:href="namespaceforcebalance_1_1openmmio.html#a9f9fc56475dbfcc94a40fef6a84ed25f" target="_top" xlink:title="forcebalance.openmmio.Update\lSimulationParameters">
<polygon fill="white" stroke="black" points="755.139,-166 755.139,-198 898.861,-198 898.861,-166 755.139,-166"/>
<text text-anchor="start" x="763.139" y="-185" font-family="Ubuntu-R" font-size="10.00">forcebalance.openmmio.Update</text>
<text text-anchor="middle" x="827" y="-173" font-family="Ubuntu-R" font-size="10.00">SimulationParameters</text>
</a>
</g>
</g>
<!-- Node4&#45;&gt;Node5 -->
<g id="edge4" class="edge"><title>Node4&#45;&gt;Node5</title>
<path fill="none" stroke="midnightblue" d="M694.486,-147.067C713.946,-152.236 735.671,-158.006 755.769,-163.345"/>
<polygon fill="midnightblue" stroke="midnightblue" points="754.924,-166.742 765.488,-165.926 756.722,-159.976 754.924,-166.742"/>
</g>
<!-- Node7 -->
<g id="node7" class="node"><title>Node7</title>
<g id="a_node7"><a xlink:href="classforcebalance_1_1openmmio_1_1Interaction__OpenMM.html#a9813c1a24af88156703d05ebe57bf707" target="_top" xlink:title="forcebalance.openmmio.Interaction\l_OpenMM.interaction_driver_all">
<polygon fill="white" stroke="black" points="747.92,-115 747.92,-147 906.08,-147 906.08,-115 747.92,-115"/>
<text text-anchor="start" x="755.92" y="-134" font-family="Ubuntu-R" font-size="10.00">forcebalance.openmmio.Interaction</text>
<text text-anchor="middle" x="827" y="-122" font-family="Ubuntu-R" font-size="10.00">_OpenMM.interaction_driver_all</text>
</a>
</g>
</g>
<!-- Node4&#45;&gt;Node7 -->
<g id="edge6" class="edge"><title>Node4&#45;&gt;Node7</title>
<path fill="none" stroke="midnightblue" d="M712.094,-131C720.434,-131 728.962,-131 737.412,-131"/>
<polygon fill="midnightblue" stroke="midnightblue" points="737.664,-134.5 747.664,-131 737.664,-127.5 737.664,-134.5"/>
</g>
<!-- Node6 -->
<g id="node6" class="node"><title>Node6</title>
<g id="a_node6"><a xlink:href="namespaceforcebalance_1_1openmmio.html#aa085594c11e9cd00ce71f5a8ead72b68" target="_top" xlink:title="Create a multiple timestep velocity verlet with velocity randomization (VVVR) integrator.">
<polygon fill="white" stroke="black" points="942.423,-172 942.423,-192 1145.58,-192 1145.58,-172 942.423,-172"/>
<text text-anchor="middle" x="1044" y="-179" font-family="Ubuntu-R" font-size="10.00">forcebalance.openmmio.MTSVVVRIntegrator</text>
</a>
</g>
</g>
<!-- Node5&#45;&gt;Node6 -->
<g id="edge5" class="edge"><title>Node5&#45;&gt;Node6</title>
<path fill="none" stroke="midnightblue" d="M898.995,-182C909.577,-182 920.695,-182 931.865,-182"/>
<polygon fill="midnightblue" stroke="midnightblue" points="932.124,-185.5 942.124,-182 932.124,-178.5 932.124,-185.5"/>
</g>
<!-- Node8&#45;&gt;Node4 -->
<g id="edge18" class="edge"><title>Node8&#45;&gt;Node4</title>
<path fill="none" stroke="midnightblue" d="M490.437,-84.0606C515.896,-92.5023 547.283,-102.91 574.028,-111.778"/>
<polygon fill="midnightblue" stroke="midnightblue" points="573.058,-115.144 583.652,-114.969 575.262,-108.499 573.058,-115.144"/>
</g>
<!-- Node8&#45;&gt;Node8 -->
<g id="edge19" class="edge"><title>Node8&#45;&gt;Node8</title>
<path fill="none" stroke="midnightblue" d="M408.041,-84.0908C401.314,-93.3658 412.301,-102 441,-102 458.489,-102 469.4,-98.7938 473.733,-94.1902"/>
<polygon fill="midnightblue" stroke="midnightblue" points="477.235,-94.1666 473.959,-84.0908 470.237,-94.01 477.235,-94.1666"/>
</g>
<!-- Node9 -->
<g id="node9" class="node"><title>Node9</title>
<g id="a_node9"><a xlink:href="classforcebalance_1_1tinkerio_1_1AbInitio__TINKER.html#a27835affec49391fc41b832839a2b0e8" target="_top" xlink:title="forcebalance.tinkerio.Ab\lInitio_TINKER.energy_force\l_driver_all">
<polygon fill="white" stroke="black" points="565.718,-46 565.718,-90 700.282,-90 700.282,-46 565.718,-46"/>
<text text-anchor="start" x="573.718" y="-77" font-family="Ubuntu-R" font-size="10.00">forcebalance.tinkerio.Ab</text>
<text text-anchor="start" x="573.718" y="-65" font-family="Ubuntu-R" font-size="10.00">Initio_TINKER.energy_force</text>
<text text-anchor="middle" x="633" y="-53" font-family="Ubuntu-R" font-size="10.00">_driver_all</text>
</a>
</g>
</g>
<!-- Node8&#45;&gt;Node9 -->
<g id="edge9" class="edge"><title>Node8&#45;&gt;Node9</title>
<path fill="none" stroke="midnightblue" d="M517.639,-68C530.009,-68 542.836,-68 555.233,-68"/>
<polygon fill="midnightblue" stroke="midnightblue" points="555.525,-71.5001 565.525,-68 555.525,-64.5001 555.525,-71.5001"/>
</g>
<!-- Node10 -->
<g id="node10" class="node"><title>Node10</title>
<g id="a_node10"><a xlink:href="classforcebalance_1_1tinkerio_1_1AbInitio__TINKER.html#adeddb898c79da3df601bc742bc2c2be7" target="_top" xlink:title="forcebalance.tinkerio.Ab\lInitio_TINKER.__init__">
<polygon fill="white" stroke="black" points="769.303,-64 769.303,-96 884.697,-96 884.697,-64 769.303,-64"/>
<text text-anchor="start" x="777.303" y="-83" font-family="Ubuntu-R" font-size="10.00">forcebalance.tinkerio.Ab</text>
<text text-anchor="middle" x="827" y="-71" font-family="Ubuntu-R" font-size="10.00">Initio_TINKER.__init__</text>
</a>
</g>
</g>
<!-- Node9&#45;&gt;Node10 -->
<g id="edge10" class="edge"><title>Node9&#45;&gt;Node10</title>
<path fill="none" stroke="midnightblue" d="M700.344,-72.1465C719.363,-73.3352 740.104,-74.6315 759.153,-75.8221"/>
<polygon fill="midnightblue" stroke="midnightblue" points="759.041,-79.3218 769.24,-76.4525 759.478,-72.3355 759.041,-79.3218"/>
</g>
<!-- Node11 -->
<g id="node11" class="node"><title>Node11</title>
<g id="a_node11"><a xlink:href="classforcebalance_1_1tinkerio_1_1AbInitio__TINKER.html#a4f0decc929da6183f1d0d6229fc9733d" target="_top" xlink:title="forcebalance.tinkerio.Ab\lInitio_TINKER.prepare\l_temp_directory">
<polygon fill="white" stroke="black" points="986.303,-26 986.303,-70 1101.7,-70 1101.7,-26 986.303,-26"/>
<text text-anchor="start" x="994.303" y="-57" font-family="Ubuntu-R" font-size="10.00">forcebalance.tinkerio.Ab</text>
<text text-anchor="start" x="994.303" y="-45" font-family="Ubuntu-R" font-size="10.00">Initio_TINKER.prepare</text>
<text text-anchor="middle" x="1044" y="-33" font-family="Ubuntu-R" font-size="10.00">_temp_directory</text>
</a>
</g>
</g>
<!-- Node9&#45;&gt;Node11 -->
<g id="edge17" class="edge"><title>Node9&#45;&gt;Node11</title>
<path fill="none" stroke="midnightblue" d="M700.5,-58.6773C716.056,-56.8176 732.585,-55.1004 748,-54 826.128,-48.4227 916.167,-47.3674 976.017,-47.4219"/>
<polygon fill="midnightblue" stroke="midnightblue" points="976.086,-50.922 986.093,-47.4419 976.1,-43.922 976.086,-50.922"/>
</g>
<!-- Node10&#45;&gt;Node11 -->
<g id="edge11" class="edge"><title>Node10&#45;&gt;Node11</title>
<path fill="none" stroke="midnightblue" d="M884.77,-71.5505C912.815,-67.3764 946.837,-62.3127 976.136,-57.9519"/>
<polygon fill="midnightblue" stroke="midnightblue" points="976.909,-61.3754 986.285,-56.4413 975.879,-54.4517 976.909,-61.3754"/>
</g>
<!-- Node12 -->
<g id="node12" class="node"><title>Node12</title>
<g id="a_node12"><a xlink:href="classforcebalance_1_1tinkerio_1_1AbInitio__TINKER.html#ab3835da0b951f77bfef0f14acd133c26" target="_top" xlink:title="forcebalance.tinkerio.Ab\lInitio_TINKER.energy_force\l_driver">
<polygon fill="white" stroke="black" points="1182.72,-0 1182.72,-44 1317.28,-44 1317.28,-0 1182.72,-0"/>
<text text-anchor="start" x="1190.72" y="-31" font-family="Ubuntu-R" font-size="10.00">forcebalance.tinkerio.Ab</text>
<text text-anchor="start" x="1190.72" y="-19" font-family="Ubuntu-R" font-size="10.00">Initio_TINKER.energy_force</text>
<text text-anchor="middle" x="1250" y="-7" font-family="Ubuntu-R" font-size="10.00">_driver</text>
</a>
</g>
</g>
<!-- Node11&#45;&gt;Node12 -->
<g id="edge12" class="edge"><title>Node11&#45;&gt;Node12</title>
<path fill="none" stroke="midnightblue" d="M1101.83,-40.7576C1123.6,-37.9827 1148.81,-34.7693 1172.15,-31.7947"/>
<polygon fill="midnightblue" stroke="midnightblue" points="1172.89,-35.2283 1182.37,-30.492 1172.01,-28.2845 1172.89,-35.2283"/>
</g>
<!-- Node12&#45;&gt;Node8 -->
<g id="edge16" class="edge"><title>Node12&#45;&gt;Node8</title>
<path fill="none" stroke="midnightblue" d="M1182.29,-16.9935C1057.78,-9.04894 781.975,1.93765 554,-36 535.907,-39.0109 516.576,-43.905 499.155,-48.9701"/>
<polygon fill="midnightblue" stroke="midnightblue" points="497.723,-45.7448 489.142,-51.9591 499.726,-52.4523 497.723,-45.7448"/>
</g>
<!-- Node13 -->
<g id="node13" class="node"><title>Node13</title>
<g id="a_node13"><a xlink:href="namespaceforcebalance_1_1molecule.html#a0dd31eff88d2bed0884ab21a13261d42" target="_top" xlink:title="ONLY matches integers! If you have a decimal point? None shall pass!">
<polygon fill="white" stroke="black" points="1354.02,-32 1354.02,-52 1479.98,-52 1479.98,-32 1354.02,-32"/>
<text text-anchor="middle" x="1417" y="-39" font-family="Ubuntu-R" font-size="10.00">forcebalance.molecule.isint</text>
</a>
</g>
</g>
<!-- Node12&#45;&gt;Node13 -->
<g id="edge13" class="edge"><title>Node12&#45;&gt;Node13</title>
<path fill="none" stroke="midnightblue" d="M1317.64,-30.0771C1326.25,-31.1213 1335.1,-32.1945 1343.8,-33.2489"/>
<polygon fill="midnightblue" stroke="midnightblue" points="1343.57,-36.7463 1353.92,-34.4751 1344.41,-29.7972 1343.57,-36.7463"/>
</g>
<!-- Node14 -->
<g id="node14" class="node"><title>Node14</title>
<g id="a_node14"><a xlink:href="namespaceforcebalance_1_1molecule.html#afe989ffd119568047fc8265b1d329a70" target="_top" xlink:title="Matches ANY number; it can be a decimal, scientific notation, integer, or what have you...">
<polygon fill="white" stroke="black" points="1516.14,-12 1516.14,-32 1649.86,-32 1649.86,-12 1516.14,-12"/>
<text text-anchor="middle" x="1583" y="-19" font-family="Ubuntu-R" font-size="10.00">forcebalance.molecule.isfloat</text>
</a>
</g>
</g>
<!-- Node12&#45;&gt;Node14 -->
<g id="edge15" class="edge"><title>Node12&#45;&gt;Node14</title>
<path fill="none" stroke="midnightblue" d="M1317.58,-22C1372.08,-22 1449.18,-22 1506.07,-22"/>
<polygon fill="midnightblue" stroke="midnightblue" points="1506.09,-25.5001 1516.09,-22 1506.09,-18.5001 1506.09,-25.5001"/>
</g>
<!-- Node13&#45;&gt;Node14 -->
<g id="edge14" class="edge"><title>Node13&#45;&gt;Node14</title>
<path fill="none" stroke="midnightblue" d="M1480,-34.4389C1488.48,-33.4053 1497.26,-32.3347 1505.95,-31.275"/>
<polygon fill="midnightblue" stroke="midnightblue" points="1506.58,-34.7238 1516.08,-30.0389 1505.73,-27.7752 1506.58,-34.7238"/>
</g>
</g>
</svg>
