<?xml version="1.0" encoding="UTF-8" standalone="no"?>
<!DOCTYPE svg PUBLIC "-//W3C//DTD SVG 1.1//EN"
 "http://www.w3.org/Graphics/SVG/1.1/DTD/svg11.dtd">
<!-- Generated by graphviz version 2.26.3 (20100126.1600)
 -->
<!-- Title: forcebalance.target.Target.link_from_tempdir Pages: 1 -->
<svg width="326pt" height="42pt"
 viewBox="0.00 0.00 326.00 42.00" xmlns="http://www.w3.org/2000/svg" xmlns:xlink="http://www.w3.org/1999/xlink">
<g id="graph1" class="graph" transform="scale(1 1) rotate(0) translate(4 38)">
<title>forcebalance.target.Target.link_from_tempdir</title>
<polygon fill="white" stroke="white" points="-4,5 -4,-38 323,-38 323,5 -4,5"/>
<!-- Node1 -->
<g id="node1" class="node"><title>Node1</title>
<polygon fill="#bfbfbf" stroke="black" points="0.5,-0 0.5,-34 161.5,-34 161.5,-0 0.5,-0"/>
<text text-anchor="start" x="8.5" y="-21" font-family="Ubuntu-R" font-size="10.00">forcebalance.target.Target.link</text>
<text text-anchor="middle" x="81" y="-8" font-family="Ubuntu-R" font-size="10.00">_from_tempdir</text>
</g>
<!-- Node2 -->
<g id="node3" class="node"><title>Node2</title>
<a xlink:href="namespaceforcebalance_1_1nifty.html#a0cf4e58f90acf20e3d6224be2354082c" target="_top" xlink:title="forcebalance.nifty.link\l_dir_contents">
<polygon fill="white" stroke="black" points="198.5,-0 198.5,-34 317.5,-34 317.5,-0 198.5,-0"/>
<text text-anchor="start" x="206.5" y="-21" font-family="Ubuntu-R" font-size="10.00">forcebalance.nifty.link</text>
<text text-anchor="middle" x="258" y="-8" font-family="Ubuntu-R" font-size="10.00">_dir_contents</text>
</a>
</g>
<!-- Node1&#45;&gt;Node2 -->
<g id="edge2" class="edge"><title>Node1&#45;&gt;Node2</title>
<path fill="none" stroke="midnightblue" d="M161.731,-17C170.577,-17 179.529,-17 188.227,-17"/>
<polygon fill="midnightblue" stroke="midnightblue" points="188.301,-20.5001 198.3,-17 188.3,-13.5001 188.301,-20.5001"/>
</g>
</g>
</svg>
