<?xml version="1.0" encoding="UTF-8" standalone="no"?>
<!DOCTYPE svg PUBLIC "-//W3C//DTD SVG 1.1//EN"
 "http://www.w3.org/Graphics/SVG/1.1/DTD/svg11.dtd">
<!-- Generated by graphviz version 2.32.0 (20130801.1845)
 -->
<!-- Title: forcebalance.abinitio_gmxx2.AbInitio_GMXX2.prepare_temp_directory Pages: 1 -->
<svg width="506pt" height="52pt"
 viewBox="0.00 0.00 506.00 52.00" xmlns="http://www.w3.org/2000/svg" xmlns:xlink="http://www.w3.org/1999/xlink">
<g id="graph0" class="graph" transform="scale(1 1) rotate(0) translate(4 48)">
<title>forcebalance.abinitio_gmxx2.AbInitio_GMXX2.prepare_temp_directory</title>
<polygon fill="white" stroke="white" points="-4,5 -4,-48 503,-48 503,5 -4,5"/>
<!-- Node1 -->
<g id="node1" class="node"><title>Node1</title>
<polygon fill="#bfbfbf" stroke="black" points="-0.0925,-0 -0.0925,-44 158.092,-44 158.092,-0 -0.0925,-0"/>
<text text-anchor="start" x="7.9075" y="-31" font-family="Ubuntu-R" font-size="10.00">forcebalance.abinitio</text>
<text text-anchor="start" x="7.9075" y="-19" font-family="Ubuntu-R" font-size="10.00">_gmxx2.AbInitio_GMXX2.prepare</text>
<text text-anchor="middle" x="79" y="-7" font-family="Ubuntu-R" font-size="10.00">_temp_directory</text>
</g>
<!-- Node2 -->
<g id="node2" class="node"><title>Node2</title>
<g id="a_node2"><a xlink:href="namespaceforcebalance_1_1nifty.html#abb8f59044961a12588e0653c2baa8b01" target="_top" xlink:title="forcebalance.nifty.warn\l_press_key">
<polygon fill="white" stroke="black" points="194.528,-6 194.528,-38 305.473,-38 305.473,-6 194.528,-6"/>
<text text-anchor="start" x="202.528" y="-25" font-family="Ubuntu-R" font-size="10.00">forcebalance.nifty.warn</text>
<text text-anchor="middle" x="250" y="-13" font-family="Ubuntu-R" font-size="10.00">_press_key</text>
</a>
</g>
</g>
<!-- Node1&#45;&gt;Node2 -->
<g id="edge1" class="edge"><title>Node1&#45;&gt;Node2</title>
<path fill="none" stroke="midnightblue" d="M158.563,-22C167.142,-22 175.804,-22 184.191,-22"/>
<polygon fill="midnightblue" stroke="midnightblue" points="184.262,-25.5001 194.262,-22 184.262,-18.5001 184.262,-25.5001"/>
</g>
<!-- Node3 -->
<g id="node3" class="node"><title>Node3</title>
<g id="a_node3"><a xlink:href="namespaceforcebalance_1_1nifty.html#a2fc81730e7efa7d138dd86f733507bfc" target="_top" xlink:title="Similar to the bultin function map().">
<polygon fill="white" stroke="black" points="342.035,-12 342.035,-32 497.965,-32 497.965,-12 342.035,-12"/>
<text text-anchor="middle" x="420" y="-19" font-family="Ubuntu-R" font-size="10.00">forcebalance.nifty.concurrent_map</text>
</a>
</g>
</g>
<!-- Node2&#45;&gt;Node3 -->
<g id="edge2" class="edge"><title>Node2&#45;&gt;Node3</title>
<path fill="none" stroke="midnightblue" d="M305.545,-22C313.968,-22 322.843,-22 331.768,-22"/>
<polygon fill="midnightblue" stroke="midnightblue" points="331.843,-25.5001 341.843,-22 331.843,-18.5001 331.843,-25.5001"/>
</g>
</g>
</svg>
