<?xml version="1.0" encoding="UTF-8" standalone="no"?>
<!DOCTYPE svg PUBLIC "-//W3C//DTD SVG 1.1//EN"
 "http://www.w3.org/Graphics/SVG/1.1/DTD/svg11.dtd">
<!-- Generated by graphviz version 2.40.1 (20161225.0304)
 -->
<!-- Title: src.liquid.Liquid.npt_simulation Pages: 1 -->
<svg width="286pt" height="78pt"
 viewBox="0.00 0.00 286.00 77.50" xmlns="http://www.w3.org/2000/svg" xmlns:xlink="http://www.w3.org/1999/xlink">
<g id="graph0" class="graph" transform="scale(1 1) rotate(0) translate(4 73.5)">
<title>src.liquid.Liquid.npt_simulation</title>
<polygon fill="#ffffff" stroke="transparent" points="-4,4 -4,-73.5 282,-73.5 282,4 -4,4"/>
<!-- Node61 -->
<g id="node1" class="node">
<title>Node61</title>
<polygon fill="#bfbfbf" stroke="#000000" points="0,-22.5 0,-52.5 112,-52.5 112,-22.5 0,-22.5"/>
<text text-anchor="start" x="8" y="-40.5" font-family="Ubuntu-R" font-size="10.00" fill="#000000">src.liquid.Liquid.npt</text>
<text text-anchor="middle" x="56" y="-29.5" font-family="Ubuntu-R" font-size="10.00" fill="#000000">_simulation</text>
</g>
<!-- Node62 -->
<g id="node2" class="node">
<title>Node62</title>
<g id="a_node2"><a xlink:href="namespacesrc_1_1nifty.html#aa26be058ed4503aa168d81f9076aefc3" target="_top" xlink:title="src.nifty.getWorkQueue">
<polygon fill="#ffffff" stroke="#000000" points="148,-50 148,-69 278,-69 278,-50 148,-50"/>
<text text-anchor="middle" x="213" y="-57" font-family="Ubuntu-R" font-size="10.00" fill="#000000">src.nifty.getWorkQueue</text>
</a>
</g>
</g>
<!-- Node61&#45;&gt;Node62 -->
<g id="edge1" class="edge">
<title>Node61&#45;&gt;Node62</title>
<path fill="none" stroke="#191970" d="M112.2372,-45.3804C120.5217,-46.5413 129.1669,-47.7527 137.7599,-48.9568"/>
<polygon fill="#191970" stroke="#191970" points="137.4097,-52.4418 147.7987,-50.3635 138.3811,-45.5096 137.4097,-52.4418"/>
</g>
<!-- Node63 -->
<g id="node3" class="node">
<title>Node63</title>
<g id="a_node3"><a xlink:href="namespacesrc_1_1nifty.html#a5592cf01ab24cb101579643160ce72cf" target="_top" xlink:title="src.nifty.link_dir\l_contents">
<polygon fill="#ffffff" stroke="#000000" points="166,-.5 166,-30.5 260,-30.5 260,-.5 166,-.5"/>
<text text-anchor="start" x="174" y="-18.5" font-family="Ubuntu-R" font-size="10.00" fill="#000000">src.nifty.link_dir</text>
<text text-anchor="middle" x="213" y="-7.5" font-family="Ubuntu-R" font-size="10.00" fill="#000000">_contents</text>
</a>
</g>
</g>
<!-- Node61&#45;&gt;Node63 -->
<g id="edge2" class="edge">
<title>Node61&#45;&gt;Node63</title>
<path fill="none" stroke="#191970" d="M112.2372,-29.6196C126.3976,-27.6354 141.6117,-25.5035 155.8179,-23.5128"/>
<polygon fill="#191970" stroke="#191970" points="156.5371,-26.9463 165.9547,-22.0923 155.5657,-20.014 156.5371,-26.9463"/>
</g>
</g>
</svg>
