<?xml version="1.0" encoding="UTF-8" standalone="no"?>
<!DOCTYPE svg PUBLIC "-//W3C//DTD SVG 1.1//EN"
 "http://www.w3.org/Graphics/SVG/1.1/DTD/svg11.dtd">
<!-- Generated by graphviz version 2.28.0 (20111219.2309)
 -->
<!-- Title: forcebalance.forcefield.FF.find_spacings Pages: 1 -->
<svg width="1962pt" height="373pt"
 viewBox="0.00 0.00 1962.00 372.96" xmlns="http://www.w3.org/2000/svg" xmlns:xlink="http://www.w3.org/1999/xlink">
<g id="graph1" class="graph" transform="scale(1 1) rotate(0) translate(4 368.965)">
<title>forcebalance.forcefield.FF.find_spacings</title>
<polygon fill="white" stroke="white" points="-4,5 -4,-368.965 1959,-368.965 1959,5 -4,5"/>
<!-- Node1 -->
<g id="node1" class="node"><title>Node1</title>
<polygon fill="#bfbfbf" stroke="black" points="0,-170 0,-200 128,-200 128,-170 0,-170"/>
<text text-anchor="start" x="8" y="-188" font-family="Ubuntu-R" font-size="10.00">forcebalance.forcefield.</text>
<text text-anchor="middle" x="64" y="-177" font-family="Ubuntu-R" font-size="10.00">FF.find_spacings</text>
</g>
<!-- Node2 -->
<g id="node3" class="node"><title>Node2</title>
<a xlink:href="classforcebalance_1_1forcefield_1_1FF.html#a260031479e0429e497f56987de541930" target="_top" xlink:title="Converts mathematical to physical parameters. ">
<polygon fill="white" stroke="black" points="164,-170 164,-200 292,-200 292,-170 164,-170"/>
<text text-anchor="start" x="172" y="-188" font-family="Ubuntu-R" font-size="10.00">forcebalance.forcefield.</text>
<text text-anchor="middle" x="228" y="-177" font-family="Ubuntu-R" font-size="10.00">FF.create_pvals</text>
</a>
</g>
<!-- Node1&#45;&gt;Node2 -->
<g id="edge2" class="edge"><title>Node1&#45;&gt;Node2</title>
<path fill="none" stroke="midnightblue" d="M128.097,-185C136.435,-185 145.038,-185 153.53,-185"/>
<polygon fill="midnightblue" stroke="midnightblue" points="153.808,-188.5 163.808,-185 153.808,-181.5 153.808,-188.5"/>
</g>
<!-- Node3 -->
<g id="node5" class="node"><title>Node3</title>
<a xlink:href="namespaceforcebalance_1_1nifty.html#a52114ceee9d55f94d9aecb3e176de294" target="_top" xlink:title="Given any list, array, or matrix, return a single&#45;index array. ">
<polygon fill="white" stroke="black" points="333,-222.5 333,-241.5 451,-241.5 451,-222.5 333,-222.5"/>
<text text-anchor="middle" x="392" y="-229.5" font-family="Ubuntu-R" font-size="10.00">forcebalance.nifty.flat</text>
</a>
</g>
<!-- Node2&#45;&gt;Node3 -->
<g id="edge4" class="edge"><title>Node2&#45;&gt;Node3</title>
<path fill="none" stroke="midnightblue" d="M280.703,-200C302.507,-206.326 327.585,-213.602 348.313,-219.615"/>
<polygon fill="midnightblue" stroke="midnightblue" points="347.526,-223.032 358.106,-222.457 349.477,-216.309 347.526,-223.032"/>
</g>
<!-- Node4 -->
<g id="node7" class="node"><title>Node4</title>
<a xlink:href="namespaceforcebalance_1_1nifty.html#a4c82187e92dfeb8a159f4aa44b501c40" target="_top" xlink:title="Invert a matrix using singular value decomposition. ">
<polygon fill="white" stroke="black" points="492,-289.5 492,-308.5 644,-308.5 644,-289.5 492,-289.5"/>
<text text-anchor="middle" x="568" y="-296.5" font-family="Ubuntu-R" font-size="10.00">forcebalance.nifty.invert_svd</text>
</a>
</g>
<!-- Node2&#45;&gt;Node4 -->
<g id="edge30" class="edge"><title>Node2&#45;&gt;Node4</title>
<path fill="none" stroke="midnightblue" d="M247.09,-200.258C266.043,-215.44 297.279,-238.261 328,-251 376.895,-271.276 435.062,-283.197 481.769,-290.087"/>
<polygon fill="midnightblue" stroke="midnightblue" points="481.464,-293.579 491.858,-291.524 482.451,-286.649 481.464,-293.579"/>
</g>
<!-- Node7 -->
<g id="node14" class="node"><title>Node7</title>
<a xlink:href="namespaceforcebalance_1_1nifty.html#afb3f205bce4984856e766af7e9fdaca8" target="_top" xlink:title="Given any list, array, or matrix, return a 1&#45;column matrix. ">
<polygon fill="white" stroke="black" points="1282,-194.5 1282,-213.5 1398,-213.5 1398,-194.5 1282,-194.5"/>
<text text-anchor="middle" x="1340" y="-201.5" font-family="Ubuntu-R" font-size="10.00">forcebalance.nifty.col</text>
</a>
</g>
<!-- Node2&#45;&gt;Node7 -->
<g id="edge22" class="edge"><title>Node2&#45;&gt;Node7</title>
<path fill="none" stroke="midnightblue" d="M292.229,-185C360.136,-185 471.204,-185 567,-185 567,-185 567,-185 964,-185 1071.71,-185 1196.6,-192.915 1271.62,-198.528"/>
<polygon fill="midnightblue" stroke="midnightblue" points="1271.63,-202.039 1281.87,-199.303 1272.16,-195.059 1271.63,-202.039"/>
</g>
<!-- Node10 -->
<g id="node22" class="node"><title>Node10</title>
<a xlink:href="classforcebalance_1_1forcefield_1_1FF.html#ae5fba4d3e22f210632ead3653e6e12dd" target="_top" xlink:title="Converts physical to mathematical parameters. ">
<polygon fill="white" stroke="black" points="328,-17 328,-47 456,-47 456,-17 328,-17"/>
<text text-anchor="start" x="336" y="-35" font-family="Ubuntu-R" font-size="10.00">forcebalance.forcefield.</text>
<text text-anchor="middle" x="392" y="-24" font-family="Ubuntu-R" font-size="10.00">FF.create_mvals</text>
</a>
</g>
<!-- Node2&#45;&gt;Node10 -->
<g id="edge24" class="edge"><title>Node2&#45;&gt;Node10</title>
<path fill="none" stroke="midnightblue" d="M245.125,-169.77C273.873,-142.62 334.083,-85.755 367.46,-54.2324"/>
<polygon fill="midnightblue" stroke="midnightblue" points="370.073,-56.5788 374.94,-47.168 365.266,-51.4897 370.073,-56.5788"/>
</g>
<!-- Node13 -->
<g id="node29" class="node"><title>Node13</title>
<a xlink:href="classforcebalance_1_1forcefield_1_1FF.html#a88715f96ff8e14c3c83b4f976ad147b4" target="_top" xlink:title="Create the rescaling factors for the coordinate transformation in parameter space. ">
<polygon fill="white" stroke="black" points="328,-107 328,-137 456,-137 456,-107 328,-107"/>
<text text-anchor="start" x="336" y="-125" font-family="Ubuntu-R" font-size="10.00">forcebalance.forcefield.</text>
<text text-anchor="middle" x="392" y="-114" font-family="Ubuntu-R" font-size="10.00">FF.rsmake</text>
</a>
</g>
<!-- Node2&#45;&gt;Node13 -->
<g id="edge32" class="edge"><title>Node2&#45;&gt;Node13</title>
<path fill="none" stroke="midnightblue" d="M267.803,-169.91C290.263,-161.176 318.728,-150.106 342.638,-140.808"/>
<polygon fill="midnightblue" stroke="midnightblue" points="344.182,-143.963 352.233,-137.076 341.645,-137.438 344.182,-143.963"/>
</g>
<!-- Node3&#45;&gt;Node4 -->
<g id="edge6" class="edge"><title>Node3&#45;&gt;Node4</title>
<path fill="none" stroke="midnightblue" d="M413.611,-241.672C433.467,-250.817 464.463,-264.644 492,-275 502.581,-278.979 514.151,-282.892 524.968,-286.366"/>
<polygon fill="midnightblue" stroke="midnightblue" points="524.05,-289.746 534.639,-289.422 526.159,-283.071 524.05,-289.746"/>
</g>
<!-- Node5 -->
<g id="node9" class="node"><title>Node5</title>
<a xlink:href="namespaceforcebalance_1_1nifty.html#aa9fb9c7c65231eca50a7afc04f489b64" target="_top" xlink:title="forcebalance.nifty.get\l_least_squares">
<polygon fill="white" stroke="black" points="698.5,-301 698.5,-331 817.5,-331 817.5,-301 698.5,-301"/>
<text text-anchor="start" x="706.5" y="-319" font-family="Ubuntu-R" font-size="10.00">forcebalance.nifty.get</text>
<text text-anchor="middle" x="758" y="-308" font-family="Ubuntu-R" font-size="10.00">_least_squares</text>
</a>
</g>
<!-- Node4&#45;&gt;Node5 -->
<g id="edge8" class="edge"><title>Node4&#45;&gt;Node5</title>
<path fill="none" stroke="midnightblue" d="M644.113,-305.792C658.598,-307.102 673.707,-308.468 687.986,-309.759"/>
<polygon fill="midnightblue" stroke="midnightblue" points="687.942,-313.27 698.217,-310.684 688.572,-306.298 687.942,-313.27"/>
</g>
<!-- Node4&#45;&gt;Node7 -->
<g id="edge14" class="edge"><title>Node4&#45;&gt;Node7</title>
<path fill="none" stroke="midnightblue" d="M588.457,-308.598C610.166,-318.727 646.632,-334.034 680,-340 843.628,-369.254 891.88,-376.699 1054,-340 1158.77,-316.283 1270.12,-249.201 1316.6,-219.029"/>
<polygon fill="midnightblue" stroke="midnightblue" points="1318.57,-221.923 1325.01,-213.511 1314.73,-216.071 1318.57,-221.923"/>
</g>
<!-- Node8 -->
<g id="node17" class="node"><title>Node8</title>
<a xlink:href="namespaceforcebalance_1_1nifty.html#abb8f59044961a12588e0653c2baa8b01" target="_top" xlink:title="forcebalance.nifty.warn\l_press_key">
<polygon fill="white" stroke="black" points="695.5,-252 695.5,-282 820.5,-282 820.5,-252 695.5,-252"/>
<text text-anchor="start" x="703.5" y="-270" font-family="Ubuntu-R" font-size="10.00">forcebalance.nifty.warn</text>
<text text-anchor="middle" x="758" y="-259" font-family="Ubuntu-R" font-size="10.00">_press_key</text>
</a>
</g>
<!-- Node4&#45;&gt;Node8 -->
<g id="edge18" class="edge"><title>Node4&#45;&gt;Node8</title>
<path fill="none" stroke="midnightblue" d="M624.897,-289.486C643.879,-286.255 665.356,-282.599 685.391,-279.189"/>
<polygon fill="midnightblue" stroke="midnightblue" points="686.133,-282.613 695.404,-277.484 684.959,-275.712 686.133,-282.613"/>
</g>
<!-- Node5&#45;&gt;Node3 -->
<g id="edge10" class="edge"><title>Node5&#45;&gt;Node3</title>
<path fill="none" stroke="midnightblue" d="M710.571,-300.921C682.484,-291.85 650.81,-281.729 644,-280 582.623,-264.414 511.66,-251.286 460.881,-242.721"/>
<polygon fill="midnightblue" stroke="midnightblue" points="461.443,-239.266 451.003,-241.069 460.289,-246.171 461.443,-239.266"/>
</g>
<!-- Node6 -->
<g id="node12" class="node"><title>Node6</title>
<a xlink:href="namespaceforcebalance_1_1nifty.html#ad5ca60565c864b4245a8212fe9d92e10" target="_top" xlink:title="Compute the (cross) statistical inefficiency of (two) timeseries. ">
<polygon fill="white" stroke="black" points="888.5,-301 888.5,-331 1037.5,-331 1037.5,-301 888.5,-301"/>
<text text-anchor="start" x="896.5" y="-319" font-family="Ubuntu-R" font-size="10.00">forcebalance.nifty.statistical</text>
<text text-anchor="middle" x="963" y="-308" font-family="Ubuntu-R" font-size="10.00">Inefficiency</text>
</a>
</g>
<!-- Node5&#45;&gt;Node6 -->
<g id="edge12" class="edge"><title>Node5&#45;&gt;Node6</title>
<path fill="none" stroke="midnightblue" d="M817.716,-316C836.548,-316 857.786,-316 878.06,-316"/>
<polygon fill="midnightblue" stroke="midnightblue" points="878.237,-319.5 888.237,-316 878.237,-312.5 878.237,-319.5"/>
</g>
<!-- Node7&#45;&gt;Node3 -->
<g id="edge16" class="edge"><title>Node7&#45;&gt;Node3</title>
<path fill="none" stroke="midnightblue" d="M1281.87,-208.697C1208.38,-214.323 1076.77,-223 964,-223 757,-223 757,-223 757,-223 653.911,-223 534.45,-226.652 461.31,-229.304"/>
<polygon fill="midnightblue" stroke="midnightblue" points="461.168,-225.806 451.303,-229.671 461.425,-232.802 461.168,-225.806"/>
</g>
<!-- Node9 -->
<g id="node19" class="node"><title>Node9</title>
<a xlink:href="namespaceforcebalance_1_1nifty.html#a2fc81730e7efa7d138dd86f733507bfc" target="_top" xlink:title="Similar to the bultin function map(). ">
<polygon fill="white" stroke="black" points="872,-257.5 872,-276.5 1054,-276.5 1054,-257.5 872,-257.5"/>
<text text-anchor="middle" x="963" y="-264.5" font-family="Ubuntu-R" font-size="10.00">forcebalance.nifty.concurrent_map</text>
</a>
</g>
<!-- Node8&#45;&gt;Node9 -->
<g id="edge20" class="edge"><title>Node8&#45;&gt;Node9</title>
<path fill="none" stroke="midnightblue" d="M820.734,-267C833.687,-267 847.667,-267 861.618,-267"/>
<polygon fill="midnightblue" stroke="midnightblue" points="861.757,-270.5 871.757,-267 861.757,-263.5 861.757,-270.5"/>
</g>
<!-- Node11 -->
<g id="node24" class="node"><title>Node11</title>
<a xlink:href="namespaceforcebalance_1_1molecule.html#a0dd31eff88d2bed0884ab21a13261d42" target="_top" xlink:title="ONLY matches integers! If you have a decimal point? None shall pass! ">
<polygon fill="white" stroke="black" points="494.5,-0.5 494.5,-19.5 641.5,-19.5 641.5,-0.5 494.5,-0.5"/>
<text text-anchor="middle" x="568" y="-7.5" font-family="Ubuntu-R" font-size="10.00">forcebalance.molecule.isint</text>
</a>
</g>
<!-- Node10&#45;&gt;Node11 -->
<g id="edge26" class="edge"><title>Node10&#45;&gt;Node11</title>
<path fill="none" stroke="midnightblue" d="M456.31,-23.9953C465.373,-22.8494 474.807,-21.6566 484.176,-20.472"/>
<polygon fill="midnightblue" stroke="midnightblue" points="484.814,-23.9193 494.296,-19.1924 483.936,-16.9745 484.814,-23.9193"/>
</g>
<!-- Node12 -->
<g id="node26" class="node"><title>Node12</title>
<a xlink:href="namespaceforcebalance_1_1molecule.html#afe989ffd119568047fc8265b1d329a70" target="_top" xlink:title="Matches ANY number; it can be a decimal, scientific notation, integer, or what have you...">
<polygon fill="white" stroke="black" points="680,-0.5 680,-19.5 836,-19.5 836,-0.5 680,-0.5"/>
<text text-anchor="middle" x="758" y="-7.5" font-family="Ubuntu-R" font-size="10.00">forcebalance.molecule.isfloat</text>
</a>
</g>
<!-- Node11&#45;&gt;Node12 -->
<g id="edge28" class="edge"><title>Node11&#45;&gt;Node12</title>
<path fill="none" stroke="midnightblue" d="M641.686,-10C650.867,-10 660.335,-10 669.713,-10"/>
<polygon fill="midnightblue" stroke="midnightblue" points="669.837,-13.5001 679.837,-10 669.837,-6.5001 669.837,-13.5001"/>
</g>
<!-- Node14 -->
<g id="node31" class="node"><title>Node14</title>
<a xlink:href="namespaceforcebalance_1_1forcefield.html#ab1a855bace20dd5e45928467e2a133f1" target="_top" xlink:title="This function takes in a dictionary (rsfactors) and a string (termtype). ">
<polygon fill="white" stroke="black" points="499.5,-88 499.5,-118 636.5,-118 636.5,-88 499.5,-88"/>
<text text-anchor="start" x="507.5" y="-106" font-family="Ubuntu-R" font-size="10.00">forcebalance.forcefield.rs</text>
<text text-anchor="middle" x="568" y="-95" font-family="Ubuntu-R" font-size="10.00">_override</text>
</a>
</g>
<!-- Node13&#45;&gt;Node14 -->
<g id="edge34" class="edge"><title>Node13&#45;&gt;Node14</title>
<path fill="none" stroke="midnightblue" d="M456.31,-115.087C467.023,-113.917 478.255,-112.691 489.285,-111.486"/>
<polygon fill="midnightblue" stroke="midnightblue" points="489.777,-114.953 499.338,-110.388 489.017,-107.995 489.777,-114.953"/>
</g>
<!-- Node15 -->
<g id="node33" class="node"><title>Node15</title>
<a xlink:href="namespaceforcebalance_1_1nifty.html#a11babd62dc7bca389162c6318f9672ca" target="_top" xlink:title="Cool&#45;looking printout for slick formatting of output. ">
<polygon fill="white" stroke="black" points="496,-137.5 496,-156.5 640,-156.5 640,-137.5 496,-137.5"/>
<text text-anchor="middle" x="568" y="-144.5" font-family="Ubuntu-R" font-size="10.00">forcebalance.nifty.printcool</text>
</a>
</g>
<!-- Node13&#45;&gt;Node15 -->
<g id="edge36" class="edge"><title>Node13&#45;&gt;Node15</title>
<path fill="none" stroke="midnightblue" d="M456.31,-131.096C467.508,-132.705 479.273,-134.396 490.782,-136.049"/>
<polygon fill="midnightblue" stroke="midnightblue" points="490.414,-139.532 500.81,-137.49 491.409,-132.603 490.414,-139.532"/>
</g>
<!-- Node23 -->
<g id="node53" class="node"><title>Node23</title>
<a xlink:href="classforcebalance_1_1forcefield_1_1FF.html#acf0ce8fc4e9fbf5257f93d14d4a4f10f" target="_top" xlink:title="Create the transformation matrix to rescale and rotate the mathematical parameters. ">
<polygon fill="white" stroke="black" points="504,-39 504,-69 632,-69 632,-39 504,-39"/>
<text text-anchor="start" x="512" y="-57" font-family="Ubuntu-R" font-size="10.00">forcebalance.forcefield.</text>
<text text-anchor="middle" x="568" y="-46" font-family="Ubuntu-R" font-size="10.00">FF.mktransmat</text>
</a>
</g>
<!-- Node13&#45;&gt;Node23 -->
<g id="edge60" class="edge"><title>Node13&#45;&gt;Node23</title>
<path fill="none" stroke="midnightblue" d="M424.734,-106.841C443.978,-97.9146 469.151,-86.7041 492,-78 497.03,-76.0837 502.288,-74.1892 507.583,-72.355"/>
<polygon fill="midnightblue" stroke="midnightblue" points="508.766,-75.6497 517.115,-69.127 506.521,-69.0196 508.766,-75.6497"/>
</g>
<!-- Node15&#45;&gt;Node8 -->
<g id="edge38" class="edge"><title>Node15&#45;&gt;Node8</title>
<path fill="none" stroke="midnightblue" d="M584.067,-156.617C614.508,-176.048 683.925,-220.356 724.953,-246.545"/>
<polygon fill="midnightblue" stroke="midnightblue" points="723.187,-249.569 733.499,-252 726.953,-243.669 723.187,-249.569"/>
</g>
<!-- Node16 -->
<g id="node36" class="node"><title>Node16</title>
<a xlink:href="namespaceforcebalance_1_1nifty.html#a51180e960742cc7547749fdfb3513ec4" target="_top" xlink:title="See documentation for printcool; this is a nice way to print out keys/values in a dictionary...">
<polygon fill="white" stroke="black" points="686,-110 686,-140 830,-140 830,-110 686,-110"/>
<text text-anchor="start" x="694" y="-128" font-family="Ubuntu-R" font-size="10.00">forcebalance.nifty.printcool</text>
<text text-anchor="middle" x="758" y="-117" font-family="Ubuntu-R" font-size="10.00">_dictionary</text>
</a>
</g>
<!-- Node15&#45;&gt;Node16 -->
<g id="edge40" class="edge"><title>Node15&#45;&gt;Node16</title>
<path fill="none" stroke="midnightblue" d="M640.075,-138.683C651.656,-137.328 663.731,-135.914 675.538,-134.533"/>
<polygon fill="midnightblue" stroke="midnightblue" points="676.299,-137.968 685.825,-133.329 675.486,-131.015 676.299,-137.968"/>
</g>
<!-- Node17 -->
<g id="node38" class="node"><title>Node17</title>
<a xlink:href="namespaceforcebalance_1_1nifty.html#a3f1c7a1af9d35d5d1693074bc6f5497c" target="_top" xlink:title="ONLY matches integers! If you have a decimal point? None shall pass! ">
<polygon fill="white" stroke="black" points="902,-115.5 902,-134.5 1024,-134.5 1024,-115.5 902,-115.5"/>
<text text-anchor="middle" x="963" y="-122.5" font-family="Ubuntu-R" font-size="10.00">forcebalance.nifty.isint</text>
</a>
</g>
<!-- Node16&#45;&gt;Node17 -->
<g id="edge42" class="edge"><title>Node16&#45;&gt;Node17</title>
<path fill="none" stroke="midnightblue" d="M830.285,-125C850.228,-125 871.884,-125 891.766,-125"/>
<polygon fill="midnightblue" stroke="midnightblue" points="891.983,-128.5 901.983,-125 891.983,-121.5 891.983,-128.5"/>
</g>
<!-- Node19 -->
<g id="node42" class="node"><title>Node19</title>
<a xlink:href="namespaceforcebalance_1_1nifty.html#a8e3ef0108b9d37b82ba0dced7c6037ae" target="_top" xlink:title="Matches ANY number; it can be a decimal, scientific notation, what have you CAUTION &#45; this will also ...">
<polygon fill="white" stroke="black" points="1274.5,-99.5 1274.5,-118.5 1405.5,-118.5 1405.5,-99.5 1274.5,-99.5"/>
<text text-anchor="middle" x="1340" y="-106.5" font-family="Ubuntu-R" font-size="10.00">forcebalance.nifty.isfloat</text>
</a>
</g>
<!-- Node16&#45;&gt;Node19 -->
<g id="edge58" class="edge"><title>Node16&#45;&gt;Node19</title>
<path fill="none" stroke="midnightblue" d="M830.204,-111.178C844.017,-109.021 858.42,-107.134 872,-106 1010.04,-94.4759 1171.82,-99.6695 1264.18,-104.4"/>
<polygon fill="midnightblue" stroke="midnightblue" points="1264.1,-107.9 1274.27,-104.929 1264.47,-100.91 1264.1,-107.9"/>
</g>
<!-- Node18 -->
<g id="node40" class="node"><title>Node18</title>
<a xlink:href="namespaceforcebalance_1_1nifty.html#a09263927eaec9deff283fbf1a820242f" target="_top" xlink:title="Matches things with a decimal only; see isint and isfloat. ">
<polygon fill="white" stroke="black" points="1090,-137.5 1090,-156.5 1238,-156.5 1238,-137.5 1090,-137.5"/>
<text text-anchor="middle" x="1164" y="-144.5" font-family="Ubuntu-R" font-size="10.00">forcebalance.nifty.isdecimal</text>
</a>
</g>
<!-- Node17&#45;&gt;Node18 -->
<g id="edge44" class="edge"><title>Node17&#45;&gt;Node18</title>
<path fill="none" stroke="midnightblue" d="M1024.25,-131.66C1041.8,-133.601 1061.29,-135.756 1079.98,-137.822"/>
<polygon fill="midnightblue" stroke="midnightblue" points="1079.65,-141.306 1089.97,-138.926 1080.41,-134.349 1079.65,-141.306"/>
</g>
<!-- Node18&#45;&gt;Node7 -->
<g id="edge56" class="edge"><title>Node18&#45;&gt;Node7</title>
<path fill="none" stroke="midnightblue" d="M1194.12,-156.541C1223.23,-166.076 1268.16,-180.794 1300.26,-191.31"/>
<polygon fill="midnightblue" stroke="midnightblue" points="1299.19,-194.641 1309.78,-194.428 1301.37,-187.989 1299.19,-194.641"/>
</g>
<!-- Node18&#45;&gt;Node19 -->
<g id="edge46" class="edge"><title>Node18&#45;&gt;Node19</title>
<path fill="none" stroke="midnightblue" d="M1208.91,-137.411C1232.18,-132.329 1260.95,-126.045 1285.52,-120.68"/>
<polygon fill="midnightblue" stroke="midnightblue" points="1286.39,-124.073 1295.41,-118.52 1284.89,-117.234 1286.39,-124.073"/>
</g>
<!-- Node19&#45;&gt;Node17 -->
<g id="edge48" class="edge"><title>Node19&#45;&gt;Node17</title>
<path fill="none" stroke="midnightblue" d="M1274.5,-111.752C1207.68,-114.603 1103.57,-119.045 1034.59,-121.988"/>
<polygon fill="midnightblue" stroke="midnightblue" points="1034.09,-118.506 1024.25,-122.429 1034.39,-125.5 1034.09,-118.506"/>
</g>
<!-- Node20 -->
<g id="node45" class="node"><title>Node20</title>
<a xlink:href="namespaceforcebalance_1_1nifty.html#a8d63c8ae9a67c66673a6cf81357f827d" target="_top" xlink:title="Returns a big number if we encounter NaN. ">
<polygon fill="white" stroke="black" points="1442,-99.5 1442,-118.5 1594,-118.5 1594,-99.5 1442,-99.5"/>
<text text-anchor="middle" x="1518" y="-106.5" font-family="Ubuntu-R" font-size="10.00">forcebalance.nifty.floatornan</text>
</a>
</g>
<!-- Node19&#45;&gt;Node20 -->
<g id="edge50" class="edge"><title>Node19&#45;&gt;Node20</title>
<path fill="none" stroke="midnightblue" d="M1405.54,-109C1414,-109 1422.77,-109 1431.51,-109"/>
<polygon fill="midnightblue" stroke="midnightblue" points="1431.74,-112.5 1441.74,-109 1431.74,-105.5 1431.74,-112.5"/>
</g>
<!-- Node21 -->
<g id="node47" class="node"><title>Node21</title>
<a xlink:href="namespaceforcebalance_1_1nifty.html#a6c9727360cdff8f3011a12cc54d0e86e" target="_top" xlink:title="Given any list, array, or matrix, return a 1&#45;row matrix. ">
<polygon fill="white" stroke="black" points="1630.5,-99.5 1630.5,-118.5 1749.5,-118.5 1749.5,-99.5 1630.5,-99.5"/>
<text text-anchor="middle" x="1690" y="-106.5" font-family="Ubuntu-R" font-size="10.00">forcebalance.nifty.row</text>
</a>
</g>
<!-- Node20&#45;&gt;Node21 -->
<g id="edge52" class="edge"><title>Node20&#45;&gt;Node21</title>
<path fill="none" stroke="midnightblue" d="M1594.06,-109C1602.82,-109 1611.72,-109 1620.38,-109"/>
<polygon fill="midnightblue" stroke="midnightblue" points="1620.43,-112.5 1630.42,-109 1620.42,-105.5 1620.43,-112.5"/>
</g>
<!-- Node22 -->
<g id="node49" class="node"><title>Node22</title>
<a xlink:href="namespaceforcebalance_1_1nifty.html#a7676236002c6a65ea7d2e69a09923889" target="_top" xlink:title="Given two vectors vec1 and vec2, project out the component of vec1 that is along the vec2&#45;direction...">
<polygon fill="white" stroke="black" points="1786,-99.5 1786,-118.5 1954,-118.5 1954,-99.5 1786,-99.5"/>
<text text-anchor="middle" x="1870" y="-106.5" font-family="Ubuntu-R" font-size="10.00">forcebalance.nifty.orthogonalize</text>
</a>
</g>
<!-- Node21&#45;&gt;Node22 -->
<g id="edge54" class="edge"><title>Node21&#45;&gt;Node22</title>
<path fill="none" stroke="midnightblue" d="M1749.78,-109C1758.07,-109 1766.77,-109 1775.52,-109"/>
<polygon fill="midnightblue" stroke="midnightblue" points="1775.8,-112.5 1785.8,-109 1775.8,-105.5 1775.8,-112.5"/>
</g>
</g>
</svg>
