<?xml version="1.0" encoding="UTF-8" standalone="no"?>
<!DOCTYPE svg PUBLIC "-//W3C//DTD SVG 1.1//EN"
 "http://www.w3.org/Graphics/SVG/1.1/DTD/svg11.dtd">
<!-- Generated by graphviz version 2.28.0 (20111219.2309)
 -->
<!-- Title: G Pages: 1 -->
<svg width="252pt" height="140pt"
 viewBox="0.00 0.00 252.00 140.00" xmlns="http://www.w3.org/2000/svg" xmlns:xlink="http://www.w3.org/1999/xlink">
<g id="graph1" class="graph" transform="scale(1 1) rotate(0) translate(4 136)">
<title>G</title>
<polygon fill="white" stroke="white" points="-4,5 -4,-136 249,-136 249,5 -4,5"/>
<!-- Node1 -->
<g id="node1" class="node"><title>Node1</title>
<polygon fill="#bfbfbf" stroke="black" points="38,-0.5 38,-19.5 206,-19.5 206,-0.5 38,-0.5"/>
<text text-anchor="middle" x="122" y="-7.5" font-family="Ubuntu-R" font-size="10.00">forcebalance.vibration.Vibration</text>
</g>
<!-- Node2 -->
<g id="node2" class="node"><title>Node2</title>
<a xlink:href="classforcebalance_1_1target_1_1Target.html" target="_top" xlink:title="Base class for all fitting targets.">
<polygon fill="white" stroke="black" points="50.5,-56.5 50.5,-75.5 193.5,-75.5 193.5,-56.5 50.5,-56.5"/>
<text text-anchor="middle" x="122" y="-63.5" font-family="Ubuntu-R" font-size="10.00">forcebalance.target.Target</text>
</a>
</g>
<!-- Node2&#45;&gt;Node1 -->
<g id="edge2" class="edge"><title>Node2&#45;&gt;Node1</title>
<path fill="none" stroke="midnightblue" d="M122,-45.8045C122,-36.9102 122,-26.7798 122,-19.7511"/>
<polygon fill="midnightblue" stroke="midnightblue" points="118.5,-46.083 122,-56.083 125.5,-46.083 118.5,-46.083"/>
</g>
<!-- Node3 -->
<g id="node4" class="node"><title>Node3</title>
<a xlink:href="classforcebalance_1_1baseclass_1_1ForceBalanceBaseClass.html" target="_top" xlink:title="Provides some nifty functions that are common to all ForceBalance classes.">
<polygon fill="white" stroke="black" points="-0.5,-112.5 -0.5,-131.5 244.5,-131.5 244.5,-112.5 -0.5,-112.5"/>
<text text-anchor="middle" x="122" y="-119.5" font-family="Ubuntu-R" font-size="10.00">forcebalance.baseclass.ForceBalanceBaseClass</text>
</a>
</g>
<!-- Node3&#45;&gt;Node2 -->
<g id="edge4" class="edge"><title>Node3&#45;&gt;Node2</title>
<path fill="none" stroke="midnightblue" d="M122,-101.805C122,-92.9102 122,-82.7798 122,-75.7511"/>
<polygon fill="midnightblue" stroke="midnightblue" points="118.5,-102.083 122,-112.083 125.5,-102.083 118.5,-102.083"/>
</g>
</g>
</svg>
