<?xml version="1.0" encoding="UTF-8" standalone="no"?>
<!DOCTYPE svg PUBLIC "-//W3C//DTD SVG 1.1//EN"
 "http://www.w3.org/Graphics/SVG/1.1/DTD/svg11.dtd">
<!-- Generated by graphviz version 2.26.3 (20100126.1600)
 -->
<!-- Title: forcebalance.gmxio.AbInitio_GMX.energy_force_driver_all Pages: 1 -->
<svg width="1334pt" height="206pt"
 viewBox="0.00 0.00 1334.00 206.00" xmlns="http://www.w3.org/2000/svg" xmlns:xlink="http://www.w3.org/1999/xlink">
<g id="graph1" class="graph" transform="scale(1 1) rotate(0) translate(4 202)">
<title>forcebalance.gmxio.AbInitio_GMX.energy_force_driver_all</title>
<polygon fill="white" stroke="white" points="-4,5 -4,-202 1331,-202 1331,5 -4,5"/>
<!-- Node1 -->
<g id="node1" class="node"><title>Node1</title>
<polygon fill="#bfbfbf" stroke="black" points="0,-21 0,-55 156,-55 156,-21 0,-21"/>
<text text-anchor="start" x="8" y="-42" font-family="Ubuntu-R" font-size="10.00">forcebalance.gmxio.AbInitio</text>
<text text-anchor="middle" x="78" y="-29" font-family="Ubuntu-R" font-size="10.00">_GMX.energy_force_driver_all</text>
</g>
<!-- Node2 -->
<g id="node3" class="node"><title>Node2</title>
<a xlink:href="classforcebalance_1_1gmxio_1_1AbInitio__GMX.html#ae17e3c379d82935d725dd31f01df23e5" target="_top" xlink:title="Call mdrun in order to update the virtual site positions.">
<polygon fill="white" stroke="black" points="192,-66 192,-100 358,-100 358,-66 192,-66"/>
<text text-anchor="start" x="200" y="-87" font-family="Ubuntu-R" font-size="10.00">forcebalance.gmxio.AbInitio</text>
<text text-anchor="middle" x="275" y="-74" font-family="Ubuntu-R" font-size="10.00">_GMX.generate_vsite_positions</text>
</a>
</g>
<!-- Node1&#45;&gt;Node2 -->
<g id="edge2" class="edge"><title>Node1&#45;&gt;Node2</title>
<path fill="none" stroke="midnightblue" d="M152.477,-55.0126C164.858,-57.8406 177.777,-60.7918 190.387,-63.6722"/>
<polygon fill="midnightblue" stroke="midnightblue" points="189.889,-67.1485 200.417,-65.9634 191.448,-60.3243 189.889,-67.1485"/>
</g>
<!-- Node11 -->
<g id="node22" class="node"><title>Node11</title>
<a xlink:href="namespaceforcebalance_1_1gmxio.html#acac8488f29b62fb0d4cb54bb5a041026" target="_top" xlink:title="forcebalance.gmxio.rm\l_gmx_baks">
<polygon fill="white" stroke="black" points="1172,-28 1172,-62 1298,-62 1298,-28 1172,-28"/>
<text text-anchor="start" x="1180" y="-49" font-family="Ubuntu-R" font-size="10.00">forcebalance.gmxio.rm</text>
<text text-anchor="middle" x="1235" y="-36" font-family="Ubuntu-R" font-size="10.00">_gmx_baks</text>
</a>
</g>
<!-- Node1&#45;&gt;Node11 -->
<g id="edge28" class="edge"><title>Node1&#45;&gt;Node11</title>
<path fill="none" stroke="midnightblue" d="M156.217,-25.8721C234.803,-14.7511 359.494,-7.10543e-15 468,-0 468,-0 468,-0 843,-0 961.08,-7.23032e-15 991.022,-2.90226 1108,-19 1125.52,-21.4109 1144.25,-24.7914 1161.8,-28.3191"/>
<polygon fill="midnightblue" stroke="midnightblue" points="1161.47,-31.8257 1171.97,-30.407 1162.88,-24.9685 1161.47,-31.8257"/>
</g>
<!-- Node3 -->
<g id="node5" class="node"><title>Node3</title>
<a xlink:href="classforcebalance_1_1gmxio_1_1AbInitio__GMX.html#a1d03ae8104bcecacf96884058f2698af" target="_top" xlink:title="forcebalance.gmxio.AbInitio\l_GMX.__init__">
<polygon fill="white" stroke="black" points="394,-118 394,-152 542,-152 542,-118 394,-118"/>
<text text-anchor="start" x="402" y="-139" font-family="Ubuntu-R" font-size="10.00">forcebalance.gmxio.AbInitio</text>
<text text-anchor="middle" x="468" y="-126" font-family="Ubuntu-R" font-size="10.00">_GMX.__init__</text>
</a>
</g>
<!-- Node2&#45;&gt;Node3 -->
<g id="edge4" class="edge"><title>Node2&#45;&gt;Node3</title>
<path fill="none" stroke="midnightblue" d="M338.195,-100.027C356.274,-104.898 376.13,-110.247 394.756,-115.266"/>
<polygon fill="midnightblue" stroke="midnightblue" points="394.096,-118.713 404.663,-117.935 395.917,-111.954 394.096,-118.713"/>
</g>
<!-- Node12 -->
<g id="node25" class="node"><title>Node12</title>
<a xlink:href="classforcebalance_1_1BaseClass.html#a73e9a37a7632e79eb99f49bd15aced45" target="_top" xlink:title="forcebalance.BaseClass.set\l_option">
<polygon fill="white" stroke="black" points="394,-66 394,-100 542,-100 542,-66 394,-66"/>
<text text-anchor="start" x="402" y="-87" font-family="Ubuntu-R" font-size="10.00">forcebalance.BaseClass.set</text>
<text text-anchor="middle" x="468" y="-74" font-family="Ubuntu-R" font-size="10.00">_option</text>
</a>
</g>
<!-- Node2&#45;&gt;Node12 -->
<g id="edge26" class="edge"><title>Node2&#45;&gt;Node12</title>
<path fill="none" stroke="midnightblue" d="M358.25,-83C366.663,-83 375.214,-83 383.639,-83"/>
<polygon fill="midnightblue" stroke="midnightblue" points="383.836,-86.5001 393.836,-83 383.836,-79.5001 383.836,-86.5001"/>
</g>
<!-- Node4 -->
<g id="node7" class="node"><title>Node4</title>
<a xlink:href="classforcebalance_1_1gmxio_1_1AbInitio__GMX.html#aba138ca4195a1737f2f00bd8c5f3ca07" target="_top" xlink:title="This function parses the GROMACS topology file (.top) which contains a listing of the molecules in th...">
<polygon fill="white" stroke="black" points="578,-118 578,-152 726,-152 726,-118 578,-118"/>
<text text-anchor="start" x="586" y="-139" font-family="Ubuntu-R" font-size="10.00">forcebalance.gmxio.AbInitio</text>
<text text-anchor="middle" x="652" y="-126" font-family="Ubuntu-R" font-size="10.00">_GMX.read_topology</text>
</a>
</g>
<!-- Node3&#45;&gt;Node4 -->
<g id="edge6" class="edge"><title>Node3&#45;&gt;Node4</title>
<path fill="none" stroke="midnightblue" d="M542.044,-135C550.514,-135 559.195,-135 567.784,-135"/>
<polygon fill="midnightblue" stroke="midnightblue" points="567.808,-138.5 577.808,-135 567.807,-131.5 567.808,-138.5"/>
</g>
<!-- Node5 -->
<g id="node9" class="node"><title>Node5</title>
<a xlink:href="classforcebalance_1_1gmxio_1_1AbInitio__GMX.html#ab2eac76585bdb8401812f0c8e465a44e" target="_top" xlink:title="forcebalance.gmxio.AbInitio\l_GMX.prepare_temp_directory">
<polygon fill="white" stroke="black" points="762.5,-118 762.5,-152 923.5,-152 923.5,-118 762.5,-118"/>
<text text-anchor="start" x="770.5" y="-139" font-family="Ubuntu-R" font-size="10.00">forcebalance.gmxio.AbInitio</text>
<text text-anchor="middle" x="843" y="-126" font-family="Ubuntu-R" font-size="10.00">_GMX.prepare_temp_directory</text>
</a>
</g>
<!-- Node4&#45;&gt;Node5 -->
<g id="edge8" class="edge"><title>Node4&#45;&gt;Node5</title>
<path fill="none" stroke="midnightblue" d="M726.119,-135C734.636,-135 743.391,-135 752.096,-135"/>
<polygon fill="midnightblue" stroke="midnightblue" points="752.274,-138.5 762.274,-135 752.274,-131.5 752.274,-138.5"/>
</g>
<!-- Node6 -->
<g id="node11" class="node"><title>Node6</title>
<a xlink:href="namespaceforcebalance_1_1nifty.html#abb8f59044961a12588e0653c2baa8b01" target="_top" xlink:title="forcebalance.nifty.warn\l_press_key">
<polygon fill="white" stroke="black" points="971.5,-118 971.5,-152 1096.5,-152 1096.5,-118 971.5,-118"/>
<text text-anchor="start" x="979.5" y="-139" font-family="Ubuntu-R" font-size="10.00">forcebalance.nifty.warn</text>
<text text-anchor="middle" x="1034" y="-126" font-family="Ubuntu-R" font-size="10.00">_press_key</text>
</a>
</g>
<!-- Node5&#45;&gt;Node6 -->
<g id="edge10" class="edge"><title>Node5&#45;&gt;Node6</title>
<path fill="none" stroke="midnightblue" d="M923.724,-135C936.133,-135 948.882,-135 961.107,-135"/>
<polygon fill="midnightblue" stroke="midnightblue" points="961.234,-138.5 971.234,-135 961.234,-131.5 961.234,-138.5"/>
</g>
<!-- Node8 -->
<g id="node15" class="node"><title>Node8</title>
<a xlink:href="namespaceforcebalance_1_1nifty.html#ab182a9da2a2f42cf45942fbee6acf9b1" target="_top" xlink:title="forcebalance.nifty.LinkFile">
<polygon fill="white" stroke="black" points="966,-170.5 966,-191.5 1102,-191.5 1102,-170.5 966,-170.5"/>
<text text-anchor="middle" x="1034" y="-178.5" font-family="Ubuntu-R" font-size="10.00">forcebalance.nifty.LinkFile</text>
</a>
</g>
<!-- Node5&#45;&gt;Node8 -->
<g id="edge14" class="edge"><title>Node5&#45;&gt;Node8</title>
<path fill="none" stroke="midnightblue" d="M913.85,-152.063C935.838,-157.359 959.697,-163.105 980.316,-168.071"/>
<polygon fill="midnightblue" stroke="midnightblue" points="979.613,-171.502 990.155,-170.44 981.253,-164.696 979.613,-171.502"/>
</g>
<!-- Node10 -->
<g id="node19" class="node"><title>Node10</title>
<a xlink:href="classforcebalance_1_1gmxio_1_1AbInitio__GMX.html#a4bc31d1c02d47749d26b14779f025ebd" target="_top" xlink:title="Computes the energy and force using GROMACS for a single snapshot.">
<polygon fill="white" stroke="black" points="960,-28 960,-62 1108,-62 1108,-28 960,-28"/>
<text text-anchor="start" x="968" y="-49" font-family="Ubuntu-R" font-size="10.00">forcebalance.gmxio.AbInitio</text>
<text text-anchor="middle" x="1034" y="-36" font-family="Ubuntu-R" font-size="10.00">_GMX.energy_force_driver</text>
</a>
</g>
<!-- Node5&#45;&gt;Node10 -->
<g id="edge18" class="edge"><title>Node5&#45;&gt;Node10</title>
<path fill="none" stroke="midnightblue" d="M875.481,-117.848C898.796,-105.727 931.076,-89.3313 960,-76 967.285,-72.6425 975.036,-69.2269 982.677,-65.9492"/>
<polygon fill="midnightblue" stroke="midnightblue" points="984.065,-69.1624 991.902,-62.0327 981.329,-62.719 984.065,-69.1624"/>
</g>
<!-- Node5&#45;&gt;Node11 -->
<g id="edge24" class="edge"><title>Node5&#45;&gt;Node11</title>
<path fill="none" stroke="midnightblue" d="M917.193,-117.966C987.325,-101.864 1091.93,-77.8483 1161.75,-61.818"/>
<polygon fill="midnightblue" stroke="midnightblue" points="1162.83,-65.1617 1171.79,-59.5127 1161.26,-58.3392 1162.83,-65.1617"/>
</g>
<!-- Node7 -->
<g id="node13" class="node"><title>Node7</title>
<a xlink:href="namespaceforcebalance_1_1nifty.html#a2fc81730e7efa7d138dd86f733507bfc" target="_top" xlink:title="Similar to the bultin function map().">
<polygon fill="white" stroke="black" points="1144.5,-124.5 1144.5,-145.5 1325.5,-145.5 1325.5,-124.5 1144.5,-124.5"/>
<text text-anchor="middle" x="1235" y="-132.5" font-family="Ubuntu-R" font-size="10.00">forcebalance.nifty.concurrent_map</text>
</a>
</g>
<!-- Node6&#45;&gt;Node7 -->
<g id="edge12" class="edge"><title>Node6&#45;&gt;Node7</title>
<path fill="none" stroke="midnightblue" d="M1096.77,-135C1108.68,-135 1121.41,-135 1134.15,-135"/>
<polygon fill="midnightblue" stroke="midnightblue" points="1134.35,-138.5 1144.35,-135 1134.35,-131.5 1134.35,-138.5"/>
</g>
<!-- Node9 -->
<g id="node17" class="node"><title>Node9</title>
<a xlink:href="namespaceforcebalance_1_1nifty.html#a25efa4d501ad852a234721af18978f7e" target="_top" xlink:title="Remove the file if it exists (doesn&#39;t return an error).">
<polygon fill="white" stroke="black" points="1165.5,-164 1165.5,-198 1304.5,-198 1304.5,-164 1165.5,-164"/>
<text text-anchor="start" x="1173.5" y="-185" font-family="Ubuntu-R" font-size="10.00">forcebalance.nifty.remove</text>
<text text-anchor="middle" x="1235" y="-172" font-family="Ubuntu-R" font-size="10.00">_if_exists</text>
</a>
</g>
<!-- Node8&#45;&gt;Node9 -->
<g id="edge16" class="edge"><title>Node8&#45;&gt;Node9</title>
<path fill="none" stroke="midnightblue" d="M1102.05,-181C1119.09,-181 1137.53,-181 1155.09,-181"/>
<polygon fill="midnightblue" stroke="midnightblue" points="1155.31,-184.5 1165.31,-181 1155.31,-177.5 1155.31,-184.5"/>
</g>
<!-- Node10&#45;&gt;Node1 -->
<g id="edge20" class="edge"><title>Node10&#45;&gt;Node1</title>
<path fill="none" stroke="midnightblue" d="M959.704,-42.8331C882.733,-40.7773 758.958,-38 652,-38 468,-38 468,-38 468,-38 364.484,-38 245.512,-38 166.465,-38"/>
<polygon fill="midnightblue" stroke="midnightblue" points="166.065,-34.5001 156.065,-38 166.065,-41.5001 166.065,-34.5001"/>
</g>
<!-- Node10&#45;&gt;Node11 -->
<g id="edge22" class="edge"><title>Node10&#45;&gt;Node11</title>
<path fill="none" stroke="midnightblue" d="M1108.27,-45C1125.76,-45 1144.38,-45 1161.81,-45"/>
<polygon fill="midnightblue" stroke="midnightblue" points="1161.92,-48.5001 1171.92,-45 1161.92,-41.5001 1161.92,-48.5001"/>
</g>
</g>
</svg>
