<?xml version="1.0" encoding="UTF-8" standalone="no"?>
<!DOCTYPE svg PUBLIC "-//W3C//DTD SVG 1.1//EN"
 "http://www.w3.org/Graphics/SVG/1.1/DTD/svg11.dtd">
<!-- Generated by graphviz version 2.32.0 (20130801.1845)
 -->
<!-- Title: forcebalance.abinitio.AbInitio.energy_force_transformer Pages: 1 -->
<svg width="498pt" height="154pt"
 viewBox="0.00 0.00 498.00 154.00" xmlns="http://www.w3.org/2000/svg" xmlns:xlink="http://www.w3.org/1999/xlink">
<g id="graph0" class="graph" transform="scale(1 1) rotate(0) translate(4 150)">
<title>forcebalance.abinitio.AbInitio.energy_force_transformer</title>
<polygon fill="white" stroke="white" points="-4,5 -4,-150 495,-150 495,5 -4,5"/>
<!-- Node1 -->
<g id="node1" class="node"><title>Node1</title>
<polygon fill="#bfbfbf" stroke="black" points="0.725,-51 0.725,-83 145.275,-83 145.275,-51 0.725,-51"/>
<text text-anchor="start" x="8.725" y="-70" font-family="Ubuntu-R" font-size="10.00">forcebalance.abinitio.Ab</text>
<text text-anchor="middle" x="73" y="-58" font-family="Ubuntu-R" font-size="10.00">Initio.energy_force_transformer</text>
</g>
<!-- Node2 -->
<g id="node2" class="node"><title>Node2</title>
<g id="a_node2"><a xlink:href="classforcebalance_1_1abinitio_1_1AbInitio.html#afbf86c26158a68cae7460b4106809fdd" target="_top" target="_top" xlink:title="forcebalance.abinitio.Ab\lInitio.compute_netforce\l_torque">
<polygon fill="white" stroke="black" points="182.577,-102 182.577,-146 297.423,-146 297.423,-102 182.577,-102"/>
<text text-anchor="start" x="190.577" y="-133" font-family="Ubuntu-R" font-size="10.00">forcebalance.abinitio.Ab</text>
<text text-anchor="start" x="190.577" y="-121" font-family="Ubuntu-R" font-size="10.00">Initio.compute_netforce</text>
<text text-anchor="middle" x="240" y="-109" font-family="Ubuntu-R" font-size="10.00">_torque</text>
</a>
</g>
</g>
<!-- Node1&#45;&gt;Node2 -->
<g id="edge1" class="edge"><title>Node1&#45;&gt;Node2</title>
<path fill="none" stroke="midnightblue" d="M120.401,-83.0294C136.647,-88.6415 155.219,-95.0574 172.768,-101.12"/>
<polygon fill="midnightblue" stroke="midnightblue" points="171.797,-104.487 182.391,-104.444 174.082,-97.8708 171.797,-104.487"/>
</g>
<!-- Node3 -->
<g id="node3" class="node"><title>Node3</title>
<g id="a_node3"><a xlink:href="classforcebalance_1_1abinitio_1_1AbInitio.html#a313c848f46579817803c8a3ff100974e" target="_top" target="_top" xlink:title="LPW 06&#45;30&#45;2013.">
<polygon fill="white" stroke="black" points="182.436,-51 182.436,-83 297.563,-83 297.563,-51 182.436,-51"/>
<text text-anchor="start" x="190.436" y="-70" font-family="Ubuntu-R" font-size="10.00">forcebalance.abinitio.Ab</text>
<text text-anchor="middle" x="240" y="-58" font-family="Ubuntu-R" font-size="10.00">Initio.get_energy_force_</text>
</a>
</g>
</g>
<!-- Node1&#45;&gt;Node3 -->
<g id="edge2" class="edge"><title>Node1&#45;&gt;Node3</title>
<path fill="none" stroke="midnightblue" d="M145.412,-67C154.301,-67 163.365,-67 172.181,-67"/>
<polygon fill="midnightblue" stroke="midnightblue" points="172.391,-70.5001 182.391,-67 172.391,-63.5001 172.391,-70.5001"/>
</g>
<!-- Node4 -->
<g id="node4" class="node"><title>Node4</title>
<g id="a_node4"><a xlink:href="namespaceforcebalance_1_1nifty.html#abb8f59044961a12588e0653c2baa8b01" target="_top" target="_top" xlink:title="forcebalance.nifty.warn\l_press_key">
<polygon fill="white" stroke="black" points="184.528,-0 184.528,-32 295.473,-32 295.473,-0 184.528,-0"/>
<text text-anchor="start" x="192.528" y="-19" font-family="Ubuntu-R" font-size="10.00">forcebalance.nifty.warn</text>
<text text-anchor="middle" x="240" y="-7" font-family="Ubuntu-R" font-size="10.00">_press_key</text>
</a>
</g>
</g>
<!-- Node1&#45;&gt;Node4 -->
<g id="edge3" class="edge"><title>Node1&#45;&gt;Node4</title>
<path fill="none" stroke="midnightblue" d="M126.207,-50.8633C142.465,-45.838 160.546,-40.2493 177.385,-35.0446"/>
<polygon fill="midnightblue" stroke="midnightblue" points="178.612,-38.3288 187.133,-32.0317 176.545,-31.641 178.612,-38.3288"/>
</g>
<!-- Node5 -->
<g id="node5" class="node"><title>Node5</title>
<g id="a_node5"><a xlink:href="namespaceforcebalance_1_1nifty.html#a2fc81730e7efa7d138dd86f733507bfc" target="_top" target="_top" xlink:title="Similar to the bultin function map().">
<polygon fill="white" stroke="black" points="334.035,-6 334.035,-26 489.965,-26 489.965,-6 334.035,-6"/>
<text text-anchor="middle" x="412" y="-13" font-family="Ubuntu-R" font-size="10.00">forcebalance.nifty.concurrent_map</text>
</a>
</g>
</g>
<!-- Node4&#45;&gt;Node5 -->
<g id="edge4" class="edge"><title>Node4&#45;&gt;Node5</title>
<path fill="none" stroke="midnightblue" d="M295.725,-16C304.635,-16 314.056,-16 323.517,-16"/>
<polygon fill="midnightblue" stroke="midnightblue" points="323.778,-19.5001 333.778,-16 323.778,-12.5001 323.778,-19.5001"/>
</g>
</g>
</svg>
