<?xml version="1.0" encoding="UTF-8" standalone="no"?>
<!DOCTYPE svg PUBLIC "-//W3C//DTD SVG 1.1//EN"
 "http://www.w3.org/Graphics/SVG/1.1/DTD/svg11.dtd">
<!-- Generated by graphviz version 2.40.1 (20161225.0304)
 -->
<!-- Title: src.amberio.AMBER.get_charges Pages: 1 -->
<svg width="708pt" height="104pt"
 viewBox="0.00 0.00 708.00 104.00" xmlns="http://www.w3.org/2000/svg" xmlns:xlink="http://www.w3.org/1999/xlink">
<g id="graph0" class="graph" transform="scale(1 1) rotate(0) translate(4 100)">
<title>src.amberio.AMBER.get_charges</title>
<polygon fill="#ffffff" stroke="transparent" points="-4,4 -4,-100 704,-100 704,4 -4,4"/>
<!-- Node73 -->
<g id="node1" class="node">
<title>Node73</title>
<polygon fill="#bfbfbf" stroke="#000000" points="0,-33 0,-63 131,-63 131,-33 0,-33"/>
<text text-anchor="start" x="8" y="-51" font-family="Ubuntu-R" font-size="10.00" fill="#000000">src.amberio.AMBER.get</text>
<text text-anchor="middle" x="65.5" y="-40" font-family="Ubuntu-R" font-size="10.00" fill="#000000">_charges</text>
</g>
<!-- Node74 -->
<g id="node2" class="node">
<title>Node74</title>
<g id="a_node2"><a xlink:href="classsrc_1_1amberio_1_1AMBER.html#a8cb2d1848fd4fa90dd2998e38592a21e" target="_top" xlink:title="src.amberio.AMBER.leap">
<polygon fill="#ffffff" stroke="#000000" points="167,-38.5 167,-57.5 303,-57.5 303,-38.5 167,-38.5"/>
<text text-anchor="middle" x="235" y="-45.5" font-family="Ubuntu-R" font-size="10.00" fill="#000000">src.amberio.AMBER.leap</text>
</a>
</g>
</g>
<!-- Node73&#45;&gt;Node74 -->
<g id="edge1" class="edge">
<title>Node73&#45;&gt;Node74</title>
<path fill="none" stroke="#191970" d="M131.0331,-48C139.4698,-48 148.1747,-48 156.789,-48"/>
<polygon fill="#191970" stroke="#191970" points="156.8382,-51.5001 166.8382,-48 156.8382,-44.5001 156.8382,-51.5001"/>
</g>
<!-- Node75 -->
<g id="node3" class="node">
<title>Node75</title>
<g id="a_node3"><a xlink:href="namespacesrc_1_1nifty.html#a7fd3a0edb0212c320360d7685227b0f5" target="_top" xlink:title="src.nifty.LinkFile">
<polygon fill="#ffffff" stroke="#000000" points="373.5,-76.5 373.5,-95.5 468.5,-95.5 468.5,-76.5 373.5,-76.5"/>
<text text-anchor="middle" x="421" y="-83.5" font-family="Ubuntu-R" font-size="10.00" fill="#000000">src.nifty.LinkFile</text>
</a>
</g>
</g>
<!-- Node74&#45;&gt;Node75 -->
<g id="edge2" class="edge">
<title>Node74&#45;&gt;Node75</title>
<path fill="none" stroke="#191970" d="M281.9357,-57.589C307.0332,-62.7165 338.1186,-69.0672 364.5304,-74.4632"/>
<polygon fill="#191970" stroke="#191970" points="363.9036,-77.9074 374.4019,-76.4799 365.3048,-71.049 363.9036,-77.9074"/>
</g>
<!-- Node77 -->
<g id="node5" class="node">
<title>Node77</title>
<g id="a_node5"><a xlink:href="namespacesrc_1_1amberio.html#ac5df3fe728e9cc0536e1abc7ce6c982d" target="_top" xlink:title="Parse and edit an AMBER LEaP input file. ">
<polygon fill="#ffffff" stroke="#000000" points="357,-38.5 357,-57.5 485,-57.5 485,-38.5 357,-38.5"/>
<text text-anchor="middle" x="421" y="-45.5" font-family="Ubuntu-R" font-size="10.00" fill="#000000">src.amberio.write_leap</text>
</a>
</g>
</g>
<!-- Node74&#45;&gt;Node77 -->
<g id="edge4" class="edge">
<title>Node74&#45;&gt;Node77</title>
<path fill="none" stroke="#191970" d="M303.2034,-48C317.3031,-48 332.2231,-48 346.533,-48"/>
<polygon fill="#191970" stroke="#191970" points="346.8246,-51.5001 356.8246,-48 346.8245,-44.5001 346.8246,-51.5001"/>
</g>
<!-- Node80 -->
<g id="node8" class="node">
<title>Node80</title>
<g id="a_node8"><a xlink:href="classsrc_1_1amberio_1_1AMBER.html#a4fa14e4e3ccc8936084020563bf86e53" target="_top" xlink:title="Call AMBER; prepend amberhome to calling the appropriate ambertools program. ">
<polygon fill="#ffffff" stroke="#000000" points="339,-.5 339,-19.5 503,-19.5 503,-.5 339,-.5"/>
<text text-anchor="middle" x="421" y="-7.5" font-family="Ubuntu-R" font-size="10.00" fill="#000000">src.amberio.AMBER.callamber</text>
</a>
</g>
</g>
<!-- Node74&#45;&gt;Node80 -->
<g id="edge7" class="edge">
<title>Node74&#45;&gt;Node80</title>
<path fill="none" stroke="#191970" d="M281.9357,-38.411C307.0332,-33.2835 338.1186,-26.9328 364.5304,-21.5368"/>
<polygon fill="#191970" stroke="#191970" points="365.3048,-24.951 374.4019,-19.5201 363.9036,-18.0926 365.3048,-24.951"/>
</g>
<!-- Node76 -->
<g id="node4" class="node">
<title>Node76</title>
<g id="a_node4"><a xlink:href="namespacesrc_1_1nifty.html#a39a23ca3b83aadd4bfdf3eee9abb3257" target="_top" xlink:title="src.nifty.MissingFileInspection">
<polygon fill="#ffffff" stroke="#000000" points="539,-76.5 539,-95.5 700,-95.5 700,-76.5 539,-76.5"/>
<text text-anchor="middle" x="619.5" y="-83.5" font-family="Ubuntu-R" font-size="10.00" fill="#000000">src.nifty.MissingFileInspection</text>
</a>
</g>
</g>
<!-- Node75&#45;&gt;Node76 -->
<g id="edge3" class="edge">
<title>Node75&#45;&gt;Node76</title>
<path fill="none" stroke="#191970" d="M468.5457,-86C486.5835,-86 507.7824,-86 528.4987,-86"/>
<polygon fill="#191970" stroke="#191970" points="528.6138,-89.5001 538.6137,-86 528.6137,-82.5001 528.6138,-89.5001"/>
</g>
<!-- Node78 -->
<g id="node6" class="node">
<title>Node78</title>
<g id="a_node6"><a xlink:href="namespacesrc_1_1nifty.html#a6ae2951ba2a22420a11abda6be7e5454" target="_top" xlink:title="src.nifty.warn_press_key">
<polygon fill="#ffffff" stroke="#000000" points="551,-38.5 551,-57.5 688,-57.5 688,-38.5 551,-38.5"/>
<text text-anchor="middle" x="619.5" y="-45.5" font-family="Ubuntu-R" font-size="10.00" fill="#000000">src.nifty.warn_press_key</text>
</a>
</g>
</g>
<!-- Node77&#45;&gt;Node78 -->
<g id="edge5" class="edge">
<title>Node77&#45;&gt;Node78</title>
<path fill="none" stroke="#191970" d="M485.1731,-48C502.854,-48 522.2393,-48 540.6463,-48"/>
<polygon fill="#191970" stroke="#191970" points="540.7548,-51.5001 550.7548,-48 540.7547,-44.5001 540.7548,-51.5001"/>
</g>
<!-- Node79 -->
<g id="node7" class="node">
<title>Node79</title>
<g id="a_node7"><a xlink:href="namespacesrc_1_1nifty.html#a82f89e3045bdeed09a928bb9ce8b0dc1" target="_top" xlink:title="If trying to write to a symbolic link, remove it first. ">
<polygon fill="#ffffff" stroke="#000000" points="574.5,-.5 574.5,-19.5 664.5,-19.5 664.5,-.5 574.5,-.5"/>
<text text-anchor="middle" x="619.5" y="-7.5" font-family="Ubuntu-R" font-size="10.00" fill="#000000">src.nifty.wopen</text>
</a>
</g>
</g>
<!-- Node77&#45;&gt;Node79 -->
<g id="edge6" class="edge">
<title>Node77&#45;&gt;Node79</title>
<path fill="none" stroke="#191970" d="M470.8337,-38.46C499.2901,-33.0125 535.0228,-26.172 564.3241,-20.5626"/>
<polygon fill="#191970" stroke="#191970" points="565.2341,-23.9521 574.3976,-18.6342 563.9179,-17.0769 565.2341,-23.9521"/>
</g>
</g>
</svg>
