<?xml version="1.0" encoding="UTF-8" standalone="no"?>
<!DOCTYPE svg PUBLIC "-//W3C//DTD SVG 1.1//EN"
 "http://www.w3.org/Graphics/SVG/1.1/DTD/svg11.dtd">
<!-- Generated by graphviz version 2.28.0 (20111219.2309)
 -->
<!-- Title: G Pages: 1 -->
<svg width="1952pt" height="140pt"
 viewBox="0.00 0.00 1952.00 139.86" xmlns="http://www.w3.org/2000/svg" xmlns:xlink="http://www.w3.org/1999/xlink">
<g id="graph1" class="graph" transform="scale(1 1) rotate(0) translate(4 135.856)">
<title>G</title>
<polygon fill="white" stroke="white" points="-4,5 -4,-135.856 1949,-135.856 1949,5 -4,5"/>
<!-- Node1 -->
<g id="node1" class="node"><title>Node1</title>
<polygon fill="#bfbfbf" stroke="black" points="0.5,-33.5 0.5,-52.5 311.5,-52.5 311.5,-33.5 0.5,-33.5"/>
<text text-anchor="middle" x="156" y="-40.5" font-family="Ubuntu-R" font-size="10.00">forcebalance.tinkerio.AbInitio_TINKER.prepare_temp_directory</text>
</g>
<!-- Node2 -->
<g id="node3" class="node"><title>Node2</title>
<a xlink:href="classforcebalance_1_1tinkerio_1_1AbInitio__TINKER.html#ab3835da0b951f77bfef0f14acd133c26" target="_top" xlink:title="forcebalance.tinkerio.AbInitio_TINKER.energy_force_driver">
<polygon fill="white" stroke="black" points="348,-66.5 348,-85.5 638,-85.5 638,-66.5 348,-66.5"/>
<text text-anchor="middle" x="493" y="-73.5" font-family="Ubuntu-R" font-size="10.00">forcebalance.tinkerio.AbInitio_TINKER.energy_force_driver</text>
</a>
</g>
<!-- Node1&#45;&gt;Node2 -->
<g id="edge2" class="edge"><title>Node1&#45;&gt;Node2</title>
<path fill="none" stroke="midnightblue" d="M253.446,-52.5007C294.694,-56.5638 342.997,-61.3221 385.31,-65.4903"/>
<polygon fill="midnightblue" stroke="midnightblue" points="385.069,-68.9834 395.364,-66.4807 385.756,-62.0171 385.069,-68.9834"/>
</g>
<!-- Node3 -->
<g id="node5" class="node"><title>Node3</title>
<a xlink:href="namespaceforcebalance_1_1molecule.html#a0dd31eff88d2bed0884ab21a13261d42" target="_top" xlink:title="ONLY matches integers! If you have a decimal point? None shall pass!">
<polygon fill="white" stroke="black" points="739.5,-94.5 739.5,-113.5 886.5,-113.5 886.5,-94.5 739.5,-94.5"/>
<text text-anchor="middle" x="813" y="-101.5" font-family="Ubuntu-R" font-size="10.00">forcebalance.molecule.isint</text>
</a>
</g>
<!-- Node2&#45;&gt;Node3 -->
<g id="edge4" class="edge"><title>Node2&#45;&gt;Node3</title>
<path fill="none" stroke="midnightblue" d="M602.104,-85.5186C643.591,-89.1715 690.245,-93.2795 729.015,-96.6931"/>
<polygon fill="midnightblue" stroke="midnightblue" points="728.942,-100.2 739.21,-97.5908 729.556,-93.2271 728.942,-100.2"/>
</g>
<!-- Node4 -->
<g id="node7" class="node"><title>Node4</title>
<a xlink:href="namespaceforcebalance_1_1molecule.html#afe989ffd119568047fc8265b1d329a70" target="_top" xlink:title="Matches ANY number; it can be a decimal, scientific notation, integer, or what have you...">
<polygon fill="white" stroke="black" points="1069,-94.5 1069,-113.5 1225,-113.5 1225,-94.5 1069,-94.5"/>
<text text-anchor="middle" x="1147" y="-101.5" font-family="Ubuntu-R" font-size="10.00">forcebalance.molecule.isfloat</text>
</a>
</g>
<!-- Node2&#45;&gt;Node4 -->
<g id="edge8" class="edge"><title>Node2&#45;&gt;Node4</title>
<path fill="none" stroke="midnightblue" d="M521.624,-85.5749C556.586,-97.1405 618.9,-115.925 674,-123 813.112,-140.862 977.002,-126.38 1070.48,-114.796"/>
<polygon fill="midnightblue" stroke="midnightblue" points="1070.93,-118.267 1080.42,-113.543 1070.06,-111.322 1070.93,-118.267"/>
</g>
<!-- Node5 -->
<g id="node10" class="node"><title>Node5</title>
<a xlink:href="classforcebalance_1_1tinkerio_1_1AbInitio__TINKER.html#aafbf91f1422d7b8f65a4aa588d1c6e18" target="_top" xlink:title="forcebalance.tinkerio.AbInitio_TINKER.energy_driver_all">
<polygon fill="white" stroke="black" points="674.5,-38.5 674.5,-57.5 951.5,-57.5 951.5,-38.5 674.5,-38.5"/>
<text text-anchor="middle" x="813" y="-45.5" font-family="Ubuntu-R" font-size="10.00">forcebalance.tinkerio.AbInitio_TINKER.energy_driver_all</text>
</a>
</g>
<!-- Node2&#45;&gt;Node5 -->
<g id="edge10" class="edge"><title>Node2&#45;&gt;Node5</title>
<path fill="none" stroke="midnightblue" d="M602.104,-66.4814C631.627,-63.8819 663.767,-61.052 693.82,-58.4058"/>
<polygon fill="midnightblue" stroke="midnightblue" points="694.271,-61.8797 703.925,-57.516 693.657,-54.9067 694.271,-61.8797"/>
</g>
<!-- Node3&#45;&gt;Node4 -->
<g id="edge6" class="edge"><title>Node3&#45;&gt;Node4</title>
<path fill="none" stroke="midnightblue" d="M886.859,-104C937.517,-104 1005.29,-104 1058.82,-104"/>
<polygon fill="midnightblue" stroke="midnightblue" points="1058.98,-107.5 1068.98,-104 1058.98,-100.5 1058.98,-107.5"/>
</g>
<!-- Node5&#45;&gt;Node5 -->
<g id="edge28" class="edge"><title>Node5&#45;&gt;Node5</title>
<path fill="none" stroke="midnightblue" d="M764.078,-57.6119C739.505,-66.4613 755.812,-76 813,-76 860.358,-76 879.682,-69.4584 870.97,-62.184"/>
<polygon fill="midnightblue" stroke="midnightblue" points="872.426,-58.9985 861.922,-57.6119 869.269,-65.2461 872.426,-58.9985"/>
</g>
<!-- Node6 -->
<g id="node12" class="node"><title>Node6</title>
<a xlink:href="classforcebalance_1_1tinkerio_1_1AbInitio__TINKER.html#a27835affec49391fc41b832839a2b0e8" target="_top" xlink:title="forcebalance.tinkerio.AbInitio_TINKER.energy_force_driver_all">
<polygon fill="white" stroke="black" points="994,-0.5 994,-19.5 1300,-19.5 1300,-0.5 994,-0.5"/>
<text text-anchor="middle" x="1147" y="-7.5" font-family="Ubuntu-R" font-size="10.00">forcebalance.tinkerio.AbInitio_TINKER.energy_force_driver_all</text>
</a>
</g>
<!-- Node5&#45;&gt;Node6 -->
<g id="edge12" class="edge"><title>Node5&#45;&gt;Node6</title>
<path fill="none" stroke="midnightblue" d="M897.349,-38.46C944.7,-33.0404 1004.1,-26.242 1052.96,-20.6489"/>
<polygon fill="midnightblue" stroke="midnightblue" points="1053.37,-24.1255 1062.9,-19.5109 1052.57,-17.1709 1053.37,-24.1255"/>
</g>
<!-- Node8 -->
<g id="node17" class="node"><title>Node8</title>
<a xlink:href="classforcebalance_1_1openmmio_1_1Interaction__OpenMM.html#a535ff72686dc66b91f5dda007e252189" target="_top" xlink:title="forcebalance.openmmio.Interaction_OpenMM.energy_driver_all">
<polygon fill="white" stroke="black" points="988,-38.5 988,-57.5 1306,-57.5 1306,-38.5 988,-38.5"/>
<text text-anchor="middle" x="1147" y="-45.5" font-family="Ubuntu-R" font-size="10.00">forcebalance.openmmio.Interaction_OpenMM.energy_driver_all</text>
</a>
</g>
<!-- Node5&#45;&gt;Node8 -->
<g id="edge18" class="edge"><title>Node5&#45;&gt;Node8</title>
<path fill="none" stroke="midnightblue" d="M951.914,-48C960.429,-48 969.046,-48 977.671,-48"/>
<polygon fill="midnightblue" stroke="midnightblue" points="977.795,-51.5001 987.795,-48 977.795,-44.5001 977.795,-51.5001"/>
</g>
<!-- Node6&#45;&gt;Node1 -->
<g id="edge16" class="edge"><title>Node6&#45;&gt;Node1</title>
<path fill="none" stroke="midnightblue" d="M993.771,-15.0794C811.944,-21.1465 508.93,-31.2572 321.744,-37.503"/>
<polygon fill="midnightblue" stroke="midnightblue" points="321.409,-34.0121 311.531,-37.8438 321.642,-41.0082 321.409,-34.0121"/>
</g>
<!-- Node7 -->
<g id="node14" class="node"><title>Node7</title>
<a xlink:href="classforcebalance_1_1tinkerio_1_1AbInitio__TINKER.html#adeddb898c79da3df601bc742bc2c2be7" target="_top" xlink:title="Initialization; define a few core concepts.">
<polygon fill="white" stroke="black" points="1394.5,-0.5 1394.5,-19.5 1625.5,-19.5 1625.5,-0.5 1394.5,-0.5"/>
<text text-anchor="middle" x="1510" y="-7.5" font-family="Ubuntu-R" font-size="10.00">forcebalance.tinkerio.AbInitio_TINKER.__init__</text>
</a>
</g>
<!-- Node6&#45;&gt;Node7 -->
<g id="edge14" class="edge"><title>Node6&#45;&gt;Node7</title>
<path fill="none" stroke="midnightblue" d="M1300.05,-10C1328.07,-10 1357.03,-10 1384.14,-10"/>
<polygon fill="midnightblue" stroke="midnightblue" points="1384.43,-13.5001 1394.43,-10 1384.43,-6.5001 1384.43,-13.5001"/>
</g>
<!-- Node8&#45;&gt;Node8 -->
<g id="edge26" class="edge"><title>Node8&#45;&gt;Node8</title>
<path fill="none" stroke="midnightblue" d="M1095.94,-57.6119C1070.29,-66.4613 1087.31,-76 1147,-76 1196.9,-76 1216.98,-69.3344 1207.24,-61.978"/>
<polygon fill="midnightblue" stroke="midnightblue" points="1208.6,-58.7471 1198.06,-57.6119 1205.59,-65.0684 1208.6,-58.7471"/>
</g>
<!-- Node9 -->
<g id="node19" class="node"><title>Node9</title>
<a xlink:href="namespaceforcebalance_1_1openmmio.html#a9f9fc56475dbfcc94a40fef6a84ed25f" target="_top" xlink:title="forcebalance.openmmio.UpdateSimulationParameters">
<polygon fill="white" stroke="black" points="1371,-38.5 1371,-57.5 1649,-57.5 1649,-38.5 1371,-38.5"/>
<text text-anchor="middle" x="1510" y="-45.5" font-family="Ubuntu-R" font-size="10.00">forcebalance.openmmio.UpdateSimulationParameters</text>
</a>
</g>
<!-- Node8&#45;&gt;Node9 -->
<g id="edge20" class="edge"><title>Node8&#45;&gt;Node9</title>
<path fill="none" stroke="midnightblue" d="M1306.08,-48C1324.31,-48 1342.86,-48 1360.95,-48"/>
<polygon fill="midnightblue" stroke="midnightblue" points="1360.96,-51.5001 1370.96,-48 1360.96,-44.5001 1360.96,-51.5001"/>
</g>
<!-- Node11 -->
<g id="node23" class="node"><title>Node11</title>
<a xlink:href="classforcebalance_1_1openmmio_1_1Interaction__OpenMM.html#a9813c1a24af88156703d05ebe57bf707" target="_top" xlink:title="forcebalance.openmmio.Interaction_OpenMM.interaction_driver_all">
<polygon fill="white" stroke="black" points="1342,-76.5 1342,-95.5 1678,-95.5 1678,-76.5 1342,-76.5"/>
<text text-anchor="middle" x="1510" y="-83.5" font-family="Ubuntu-R" font-size="10.00">forcebalance.openmmio.Interaction_OpenMM.interaction_driver_all</text>
</a>
</g>
<!-- Node8&#45;&gt;Node11 -->
<g id="edge24" class="edge"><title>Node8&#45;&gt;Node11</title>
<path fill="none" stroke="midnightblue" d="M1238.63,-57.54C1290.33,-62.9823 1355.24,-69.8148 1408.5,-75.4211"/>
<polygon fill="midnightblue" stroke="midnightblue" points="1408.33,-78.9229 1418.65,-76.4891 1409.07,-71.9614 1408.33,-78.9229"/>
</g>
<!-- Node10 -->
<g id="node21" class="node"><title>Node10</title>
<a xlink:href="namespaceforcebalance_1_1openmmio.html#aa085594c11e9cd00ce71f5a8ead72b68" target="_top" xlink:title="Create a multiple timestep velocity verlet with velocity randomization (VVVR) integrator.">
<polygon fill="white" stroke="black" points="1714,-38.5 1714,-57.5 1944,-57.5 1944,-38.5 1714,-38.5"/>
<text text-anchor="middle" x="1829" y="-45.5" font-family="Ubuntu-R" font-size="10.00">forcebalance.openmmio.MTSVVVRIntegrator</text>
</a>
</g>
<!-- Node9&#45;&gt;Node10 -->
<g id="edge22" class="edge"><title>Node9&#45;&gt;Node10</title>
<path fill="none" stroke="midnightblue" d="M1649.12,-48C1667.11,-48 1685.46,-48 1703.22,-48"/>
<polygon fill="midnightblue" stroke="midnightblue" points="1703.59,-51.5001 1713.59,-48 1703.59,-44.5001 1703.59,-51.5001"/>
</g>
</g>
</svg>
