<?xml version="1.0" encoding="UTF-8" standalone="no"?>
<!DOCTYPE svg PUBLIC "-//W3C//DTD SVG 1.1//EN"
 "http://www.w3.org/Graphics/SVG/1.1/DTD/svg11.dtd">
<!-- Generated by graphviz version 2.26.3 (20100126.1600)
 -->
<!-- Title: forcebalance.Mol2.mol2_bond.set_target_atom_id Pages: 1 -->
<svg width="1820pt" height="423pt"
 viewBox="0.00 0.00 1820.00 422.58" xmlns="http://www.w3.org/2000/svg" xmlns:xlink="http://www.w3.org/1999/xlink">
<g id="graph1" class="graph" transform="scale(1 1) rotate(0) translate(4 418.58)">
<title>forcebalance.Mol2.mol2_bond.set_target_atom_id</title>
<polygon fill="white" stroke="white" points="-4,5 -4,-418.58 1817,-418.58 1817,5 -4,5"/>
<!-- Node1 -->
<g id="node1" class="node"><title>Node1</title>
<polygon fill="#bfbfbf" stroke="black" points="0,-97 0,-131 142,-131 142,-97 0,-97"/>
<text text-anchor="start" x="8" y="-118" font-family="Ubuntu-R" font-size="10.00">forcebalance.Mol2.mol2</text>
<text text-anchor="middle" x="71" y="-105" font-family="Ubuntu-R" font-size="10.00">_bond.set_target_atom_id</text>
</g>
<!-- Node2 -->
<g id="node3" class="node"><title>Node2</title>
<a xlink:href="classforcebalance_1_1Mol2_1_1mol2__bond.html#a1c2a0d5ae943de6bd80b4e32e956b09a" target="_top" xlink:title="Never to use (in theory)">
<polygon fill="white" stroke="black" points="178,-97 178,-131 308,-131 308,-97 178,-97"/>
<text text-anchor="start" x="186" y="-118" font-family="Ubuntu-R" font-size="10.00">forcebalance.Mol2.mol2</text>
<text text-anchor="middle" x="243" y="-105" font-family="Ubuntu-R" font-size="10.00">_bond.set_status_bit</text>
</a>
</g>
<!-- Node1&#45;&gt;Node2 -->
<g id="edge2" class="edge"><title>Node1&#45;&gt;Node2</title>
<path fill="none" stroke="midnightblue" d="M142.449,-114C150.783,-114 159.304,-114 167.688,-114"/>
<polygon fill="midnightblue" stroke="midnightblue" points="167.824,-117.5 177.824,-114 167.824,-110.5 167.824,-117.5"/>
</g>
<!-- Node3 -->
<g id="node5" class="node"><title>Node3</title>
<a xlink:href="classforcebalance_1_1Mol2_1_1mol2__bond.html#a093622f1fda304a18ee25b232ba2f998" target="_top" xlink:title="if data is passed, it will be installed">
<polygon fill="white" stroke="black" points="344,-286 344,-320 474,-320 474,-286 344,-286"/>
<text text-anchor="start" x="352" y="-307" font-family="Ubuntu-R" font-size="10.00">forcebalance.Mol2.mol2</text>
<text text-anchor="middle" x="409" y="-294" font-family="Ubuntu-R" font-size="10.00">_bond.__init__</text>
</a>
</g>
<!-- Node2&#45;&gt;Node3 -->
<g id="edge4" class="edge"><title>Node2&#45;&gt;Node3</title>
<path fill="none" stroke="midnightblue" d="M249.398,-131.251C262.372,-164.024 294.787,-235.692 344,-277 345.501,-278.26 347.071,-279.464 348.695,-280.615"/>
<polygon fill="midnightblue" stroke="midnightblue" points="346.865,-283.598 357.199,-285.932 350.576,-277.663 346.865,-283.598"/>
</g>
<!-- Node4 -->
<g id="node7" class="node"><title>Node4</title>
<a xlink:href="classforcebalance_1_1Mol2_1_1mol2__atom.html#a29aaa00b8fa91f4d18cef387622d339d" target="_top" xlink:title="split the text line into a series of properties">
<polygon fill="white" stroke="black" points="344,-234 344,-268 474,-268 474,-234 344,-234"/>
<text text-anchor="start" x="352" y="-255" font-family="Ubuntu-R" font-size="10.00">forcebalance.Mol2.mol2</text>
<text text-anchor="middle" x="409" y="-242" font-family="Ubuntu-R" font-size="10.00">_atom.parse</text>
</a>
</g>
<!-- Node2&#45;&gt;Node4 -->
<g id="edge6" class="edge"><title>Node2&#45;&gt;Node4</title>
<path fill="none" stroke="midnightblue" d="M263.688,-131.074C293.093,-155.342 347.088,-199.904 380.334,-227.342"/>
<polygon fill="midnightblue" stroke="midnightblue" points="378.372,-230.261 388.312,-233.926 382.828,-224.862 378.372,-230.261"/>
</g>
<!-- Node15 -->
<g id="node37" class="node"><title>Node15</title>
<a xlink:href="classforcebalance_1_1Mol2_1_1mol2__bond.html#a66ca9cb935bd3a9a1f41335d85d39b2f" target="_top" xlink:title="split the text line into a series of properties">
<polygon fill="white" stroke="black" points="344,-23 344,-57 474,-57 474,-23 344,-23"/>
<text text-anchor="start" x="352" y="-44" font-family="Ubuntu-R" font-size="10.00">forcebalance.Mol2.mol2</text>
<text text-anchor="middle" x="409" y="-31" font-family="Ubuntu-R" font-size="10.00">_bond.parse</text>
</a>
</g>
<!-- Node2&#45;&gt;Node15 -->
<g id="edge44" class="edge"><title>Node2&#45;&gt;Node15</title>
<path fill="none" stroke="midnightblue" d="M281.501,-96.8369C305.281,-86.2363 335.979,-72.5514 361.295,-61.2662"/>
<polygon fill="midnightblue" stroke="midnightblue" points="362.999,-64.3384 370.708,-57.07 360.149,-57.9449 362.999,-64.3384"/>
</g>
<!-- Node17 -->
<g id="node41" class="node"><title>Node17</title>
<a xlink:href="classforcebalance_1_1Mol2_1_1mol2__bond.html#adb17d4278c0063cf557807b77f2cb3e1" target="_top" xlink:title="forcebalance.Mol2.mol2\l_bond.__repr__">
<polygon fill="white" stroke="black" points="344,-97 344,-131 474,-131 474,-97 344,-97"/>
<text text-anchor="start" x="352" y="-118" font-family="Ubuntu-R" font-size="10.00">forcebalance.Mol2.mol2</text>
<text text-anchor="middle" x="409" y="-105" font-family="Ubuntu-R" font-size="10.00">_bond.__repr__</text>
</a>
</g>
<!-- Node2&#45;&gt;Node17 -->
<g id="edge48" class="edge"><title>Node2&#45;&gt;Node17</title>
<path fill="none" stroke="midnightblue" d="M308.131,-107.391C316.461,-107.258 325.044,-107.219 333.521,-107.275"/>
<polygon fill="midnightblue" stroke="midnightblue" points="333.746,-110.777 343.784,-107.39 333.824,-103.778 333.746,-110.777"/>
</g>
<!-- Node5 -->
<g id="node9" class="node"><title>Node5</title>
<a xlink:href="classforcebalance_1_1Mol2_1_1mol2__atom.html#a3a6c9728119ace119108183920689a9d" target="_top" xlink:title="the coordinates of the atom">
<polygon fill="white" stroke="black" points="1350,-312 1350,-346 1480,-346 1480,-312 1350,-312"/>
<text text-anchor="start" x="1358" y="-333" font-family="Ubuntu-R" font-size="10.00">forcebalance.Mol2.mol2</text>
<text text-anchor="middle" x="1415" y="-320" font-family="Ubuntu-R" font-size="10.00">_atom.set_crds</text>
</a>
</g>
<!-- Node4&#45;&gt;Node5 -->
<g id="edge8" class="edge"><title>Node4&#45;&gt;Node5</title>
<path fill="none" stroke="midnightblue" d="M451.731,-268.029C478.571,-278.708 508.42,-290.544 510,-291 614.693,-321.201 642.038,-336 751,-336 751,-336 751,-336 1083,-336 1171.15,-336 1272.44,-333.503 1339.72,-331.492"/>
<polygon fill="midnightblue" stroke="midnightblue" points="1339.92,-334.987 1349.81,-331.186 1339.71,-327.99 1339.92,-334.987"/>
</g>
<!-- Node6 -->
<g id="node11" class="node"><title>Node6</title>
<a xlink:href="classforcebalance_1_1Mol2_1_1mol2__atom.html#ae879ba27197a573b6e3e1e97f0b76aff" target="_top" xlink:title="substructure identifier">
<polygon fill="white" stroke="black" points="1516,-350 1516,-384 1646,-384 1646,-350 1516,-350"/>
<text text-anchor="start" x="1524" y="-371" font-family="Ubuntu-R" font-size="10.00">forcebalance.Mol2.mol2</text>
<text text-anchor="middle" x="1581" y="-358" font-family="Ubuntu-R" font-size="10.00">_atom.set_subst_id</text>
</a>
</g>
<!-- Node4&#45;&gt;Node6 -->
<g id="edge34" class="edge"><title>Node4&#45;&gt;Node6</title>
<path fill="none" stroke="midnightblue" d="M459.43,-268.01C464.564,-270.656 469.528,-273.645 474,-277 494.767,-292.579 487.972,-309.262 510,-323 602.897,-380.937 641.517,-374 751,-374 751,-374 751,-374 1249,-374 1337.15,-374 1438.44,-371.503 1505.72,-369.492"/>
<polygon fill="midnightblue" stroke="midnightblue" points="1505.92,-372.987 1515.81,-369.186 1505.71,-365.99 1505.92,-372.987"/>
</g>
<!-- Node7 -->
<g id="node13" class="node"><title>Node7</title>
<a xlink:href="classforcebalance_1_1Mol2_1_1mol2__atom.html#abfe80eac2952ad867d87e8b6e64f3c09" target="_top" xlink:title="atomic charge">
<polygon fill="white" stroke="black" points="1682,-372 1682,-406 1812,-406 1812,-372 1682,-372"/>
<text text-anchor="start" x="1690" y="-393" font-family="Ubuntu-R" font-size="10.00">forcebalance.Mol2.mol2</text>
<text text-anchor="middle" x="1747" y="-380" font-family="Ubuntu-R" font-size="10.00">_atom.set_charge</text>
</a>
</g>
<!-- Node4&#45;&gt;Node7 -->
<g id="edge38" class="edge"><title>Node4&#45;&gt;Node7</title>
<path fill="none" stroke="midnightblue" d="M462.304,-268.042C466.542,-270.635 470.521,-273.604 474,-277 503.069,-305.369 478.602,-335.233 510,-361 594.632,-430.455 641.517,-412 751,-412 751,-412 751,-412 1415,-412 1503.34,-412 1604.59,-403.795 1671.81,-397.187"/>
<polygon fill="midnightblue" stroke="midnightblue" points="1672.29,-400.657 1681.89,-396.183 1671.59,-393.691 1672.29,-400.657"/>
</g>
<!-- Node8 -->
<g id="node15" class="node"><title>Node8</title>
<a xlink:href="classforcebalance_1_1Mol2_1_1mol2__atom.html#a233ebfedcde7e5d75b0ec54f194d2b4f" target="_top" xlink:title="The mol2 type of the atom.">
<polygon fill="white" stroke="black" points="515,-142 515,-176 645,-176 645,-142 515,-142"/>
<text text-anchor="start" x="523" y="-163" font-family="Ubuntu-R" font-size="10.00">forcebalance.Mol2.mol2</text>
<text text-anchor="middle" x="580" y="-150" font-family="Ubuntu-R" font-size="10.00">_atom.set_atom_type</text>
</a>
</g>
<!-- Node4&#45;&gt;Node8 -->
<g id="edge14" class="edge"><title>Node4&#45;&gt;Node8</title>
<path fill="none" stroke="midnightblue" d="M435.477,-233.745C455.549,-220.978 484.019,-203.53 510,-190 516.403,-186.666 523.239,-183.351 530.038,-180.197"/>
<polygon fill="midnightblue" stroke="midnightblue" points="531.587,-183.338 539.24,-176.01 528.688,-176.966 531.587,-183.338"/>
</g>
<!-- Node9 -->
<g id="node17" class="node"><title>Node9</title>
<a xlink:href="classforcebalance_1_1Mol2_1_1mol2__atom.html#af149e1d049adee0318eef510a8d32f9c" target="_top" xlink:title="substructure name">
<polygon fill="white" stroke="black" points="686,-180 686,-214 816,-214 816,-180 686,-180"/>
<text text-anchor="start" x="694" y="-201" font-family="Ubuntu-R" font-size="10.00">forcebalance.Mol2.mol2</text>
<text text-anchor="middle" x="751" y="-188" font-family="Ubuntu-R" font-size="10.00">_atom.set_subst_name</text>
</a>
</g>
<!-- Node4&#45;&gt;Node9 -->
<g id="edge36" class="edge"><title>Node4&#45;&gt;Node9</title>
<path fill="none" stroke="midnightblue" d="M474.01,-235.231C485.94,-232.612 498.314,-230.077 510,-228 565.14,-218.199 627.903,-210.226 675.554,-204.821"/>
<polygon fill="midnightblue" stroke="midnightblue" points="676.242,-208.266 685.79,-203.674 675.462,-201.31 676.242,-208.266"/>
</g>
<!-- Node10 -->
<g id="node19" class="node"><title>Node10</title>
<a xlink:href="classforcebalance_1_1Mol2_1_1mol2__atom.html#a2b8855f5349976b26917fee353618354" target="_top" xlink:title="Never to use (in theory)">
<polygon fill="white" stroke="black" points="852,-228 852,-262 982,-262 982,-228 852,-228"/>
<text text-anchor="start" x="860" y="-249" font-family="Ubuntu-R" font-size="10.00">forcebalance.Mol2.mol2</text>
<text text-anchor="middle" x="917" y="-236" font-family="Ubuntu-R" font-size="10.00">_atom.set_status_bit</text>
</a>
</g>
<!-- Node4&#45;&gt;Node10 -->
<g id="edge40" class="edge"><title>Node4&#45;&gt;Node10</title>
<path fill="none" stroke="midnightblue" d="M474.113,-245.536C568.235,-241.779 741.91,-239.636 841.514,-240.923"/>
<polygon fill="midnightblue" stroke="midnightblue" points="841.754,-244.427 851.804,-241.073 841.856,-237.428 841.754,-244.427"/>
</g>
<!-- Node12 -->
<g id="node24" class="node"><title>Node12</title>
<a xlink:href="classforcebalance_1_1Mol2_1_1mol2__atom.html#a2e0ecf1c6da8fde8ab146d4341ac1341" target="_top" xlink:title="assemble the properties as a text line, and return it">
<polygon fill="white" stroke="black" points="1018,-274 1018,-308 1148,-308 1148,-274 1018,-274"/>
<text text-anchor="start" x="1026" y="-295" font-family="Ubuntu-R" font-size="10.00">forcebalance.Mol2.mol2</text>
<text text-anchor="middle" x="1083" y="-282" font-family="Ubuntu-R" font-size="10.00">_atom.__repr__</text>
</a>
</g>
<!-- Node4&#45;&gt;Node12 -->
<g id="edge42" class="edge"><title>Node4&#45;&gt;Node12</title>
<path fill="none" stroke="midnightblue" d="M474.227,-265.507C486.078,-267.688 498.369,-269.654 510,-271 687.451,-291.532 897.697,-293.106 1007.55,-292.212"/>
<polygon fill="midnightblue" stroke="midnightblue" points="1007.9,-295.709 1017.87,-292.118 1007.84,-288.709 1007.9,-295.709"/>
</g>
<!-- Node5&#45;&gt;Node6 -->
<g id="edge10" class="edge"><title>Node5&#45;&gt;Node6</title>
<path fill="none" stroke="midnightblue" d="M1480.13,-343.91C1488.55,-345.837 1497.23,-347.824 1505.8,-349.786"/>
<polygon fill="midnightblue" stroke="midnightblue" points="1505.26,-353.251 1515.78,-352.071 1506.82,-346.428 1505.26,-353.251"/>
</g>
<!-- Node6&#45;&gt;Node7 -->
<g id="edge12" class="edge"><title>Node6&#45;&gt;Node7</title>
<path fill="none" stroke="midnightblue" d="M1646.13,-375.632C1654.55,-376.748 1663.23,-377.898 1671.8,-379.034"/>
<polygon fill="midnightblue" stroke="midnightblue" points="1671.41,-382.513 1681.78,-380.357 1672.33,-375.573 1671.41,-382.513"/>
</g>
<!-- Node8&#45;&gt;Node9 -->
<g id="edge16" class="edge"><title>Node8&#45;&gt;Node9</title>
<path fill="none" stroke="midnightblue" d="M645.136,-173.475C655.221,-175.716 665.707,-178.046 675.988,-180.331"/>
<polygon fill="midnightblue" stroke="midnightblue" points="675.241,-183.75 685.762,-182.503 676.76,-176.917 675.241,-183.75"/>
</g>
<!-- Node9&#45;&gt;Node10 -->
<g id="edge18" class="edge"><title>Node9&#45;&gt;Node10</title>
<path fill="none" stroke="midnightblue" d="M809.993,-214.058C822.469,-217.666 835.736,-221.502 848.528,-225.201"/>
<polygon fill="midnightblue" stroke="midnightblue" points="847.618,-228.581 858.197,-227.997 849.563,-221.857 847.618,-228.581"/>
</g>
<!-- Node10&#45;&gt;Node4 -->
<g id="edge22" class="edge"><title>Node10&#45;&gt;Node4</title>
<path fill="none" stroke="midnightblue" d="M851.804,-250.467C757.635,-254.224 583.958,-256.365 484.398,-255.076"/>
<polygon fill="midnightblue" stroke="midnightblue" points="484.163,-251.572 474.113,-254.926 484.061,-258.571 484.163,-251.572"/>
</g>
<!-- Node11 -->
<g id="node21" class="node"><title>Node11</title>
<a xlink:href="classforcebalance_1_1Mol2_1_1mol2__atom.html#a1d745e4db9ba351cb8e4e53bf544132c" target="_top" xlink:title="if data is passed, it will be installed">
<polygon fill="white" stroke="black" points="1018,-222 1018,-256 1148,-256 1148,-222 1018,-222"/>
<text text-anchor="start" x="1026" y="-243" font-family="Ubuntu-R" font-size="10.00">forcebalance.Mol2.mol2</text>
<text text-anchor="middle" x="1083" y="-230" font-family="Ubuntu-R" font-size="10.00">_atom.__init__</text>
</a>
</g>
<!-- Node10&#45;&gt;Node11 -->
<g id="edge20" class="edge"><title>Node10&#45;&gt;Node11</title>
<path fill="none" stroke="midnightblue" d="M982.131,-242.646C990.461,-242.345 999.044,-242.035 1007.52,-241.728"/>
<polygon fill="midnightblue" stroke="midnightblue" points="1007.92,-245.216 1017.78,-241.357 1007.66,-238.221 1007.92,-245.216"/>
</g>
<!-- Node10&#45;&gt;Node12 -->
<g id="edge24" class="edge"><title>Node10&#45;&gt;Node12</title>
<path fill="none" stroke="midnightblue" d="M978.812,-262.129C989.469,-265.082 1000.63,-268.173 1011.51,-271.19"/>
<polygon fill="midnightblue" stroke="midnightblue" points="1010.84,-274.636 1021.41,-273.934 1012.71,-267.89 1010.84,-274.636"/>
</g>
<!-- Node13 -->
<g id="node26" class="node"><title>Node13</title>
<a xlink:href="classforcebalance_1_1Mol2_1_1mol2__atom.html#a1af054109bd2d27c29e89b5da0f70920" target="_top" xlink:title="atom identifier (integer, starting from 1)">
<polygon fill="white" stroke="black" points="1184,-274 1184,-308 1314,-308 1314,-274 1184,-274"/>
<text text-anchor="start" x="1192" y="-295" font-family="Ubuntu-R" font-size="10.00">forcebalance.Mol2.mol2</text>
<text text-anchor="middle" x="1249" y="-282" font-family="Ubuntu-R" font-size="10.00">_atom.set_atom_id</text>
</a>
</g>
<!-- Node12&#45;&gt;Node13 -->
<g id="edge26" class="edge"><title>Node12&#45;&gt;Node13</title>
<path fill="none" stroke="midnightblue" d="M1148.13,-291C1156.46,-291 1165.04,-291 1173.52,-291"/>
<polygon fill="midnightblue" stroke="midnightblue" points="1173.78,-294.5 1183.78,-291 1173.78,-287.5 1173.78,-294.5"/>
</g>
<!-- Node14 -->
<g id="node29" class="node"><title>Node14</title>
<a xlink:href="classforcebalance_1_1Mol2_1_1mol2__atom.html#a4d57220ec5b591ad018112d600d4cc8b" target="_top" xlink:title="The name of the atom (string)">
<polygon fill="white" stroke="black" points="1184,-150 1184,-184 1314,-184 1314,-150 1184,-150"/>
<text text-anchor="start" x="1192" y="-171" font-family="Ubuntu-R" font-size="10.00">forcebalance.Mol2.mol2</text>
<text text-anchor="middle" x="1249" y="-158" font-family="Ubuntu-R" font-size="10.00">_atom.set_atom_name</text>
</a>
</g>
<!-- Node12&#45;&gt;Node14 -->
<g id="edge30" class="edge"><title>Node12&#45;&gt;Node14</title>
<path fill="none" stroke="midnightblue" d="M1131.97,-273.85C1137.54,-271.194 1143,-268.241 1148,-265 1179.26,-244.722 1209.12,-213.822 1228.16,-192.154"/>
<polygon fill="midnightblue" stroke="midnightblue" points="1231.01,-194.199 1234.9,-184.343 1225.72,-189.624 1231.01,-194.199"/>
</g>
<!-- Node13&#45;&gt;Node5 -->
<g id="edge28" class="edge"><title>Node13&#45;&gt;Node5</title>
<path fill="none" stroke="midnightblue" d="M1314.13,-305.91C1322.55,-307.837 1331.23,-309.824 1339.8,-311.786"/>
<polygon fill="midnightblue" stroke="midnightblue" points="1339.26,-315.251 1349.78,-314.071 1340.82,-308.428 1339.26,-315.251"/>
</g>
<!-- Node14&#45;&gt;Node8 -->
<g id="edge32" class="edge"><title>Node14&#45;&gt;Node8</title>
<path fill="none" stroke="midnightblue" d="M1183.79,-166.22C1059.03,-164.728 787.214,-161.478 655.096,-159.898"/>
<polygon fill="midnightblue" stroke="midnightblue" points="655.1,-156.398 645.059,-159.778 655.017,-163.397 655.1,-156.398"/>
</g>
<!-- Node16 -->
<g id="node39" class="node"><title>Node16</title>
<a xlink:href="classforcebalance_1_1Mol2_1_1mol2__bond.html#a6116c2ff70b27afcd3acd507861496ae" target="_top" xlink:title="the origin atom identifier (integer)">
<polygon fill="white" stroke="black" points="510,-0 510,-34 650,-34 650,-0 510,-0"/>
<text text-anchor="start" x="518" y="-21" font-family="Ubuntu-R" font-size="10.00">forcebalance.Mol2.mol2</text>
<text text-anchor="middle" x="580" y="-8" font-family="Ubuntu-R" font-size="10.00">_bond.set_origin_atom_id</text>
</a>
</g>
<!-- Node15&#45;&gt;Node16 -->
<g id="edge46" class="edge"><title>Node15&#45;&gt;Node16</title>
<path fill="none" stroke="midnightblue" d="M474.136,-31.2391C482.548,-30.1076 491.239,-28.9386 499.857,-27.7795"/>
<polygon fill="midnightblue" stroke="midnightblue" points="500.475,-31.2279 509.92,-26.426 499.542,-24.2904 500.475,-31.2279"/>
</g>
<!-- Node17&#45;&gt;Node2 -->
<g id="edge52" class="edge"><title>Node17&#45;&gt;Node2</title>
<path fill="none" stroke="midnightblue" d="M343.784,-120.61C335.452,-120.743 326.869,-120.781 318.393,-120.725"/>
<polygon fill="midnightblue" stroke="midnightblue" points="318.17,-117.222 308.131,-120.609 318.091,-124.222 318.17,-117.222"/>
</g>
<!-- Node17&#45;&gt;Node10 -->
<g id="edge50" class="edge"><title>Node17&#45;&gt;Node10</title>
<path fill="none" stroke="midnightblue" d="M474.203,-111.91C557.334,-111.699 703.735,-119.692 816,-171 843.679,-183.65 871.29,-204.595 890.63,-220.98"/>
<polygon fill="midnightblue" stroke="midnightblue" points="888.534,-223.794 898.388,-227.685 893.111,-218.498 888.534,-223.794"/>
</g>
<!-- Node18 -->
<g id="node45" class="node"><title>Node18</title>
<a xlink:href="classforcebalance_1_1Mol2_1_1mol2__bond.html#a7e8bcec38c5dd62a0c672ad855388ce0" target="_top" xlink:title="bond identifier (integer, starting from 1)">
<polygon fill="white" stroke="black" points="515,-52 515,-86 645,-86 645,-52 515,-52"/>
<text text-anchor="start" x="523" y="-73" font-family="Ubuntu-R" font-size="10.00">forcebalance.Mol2.mol2</text>
<text text-anchor="middle" x="580" y="-60" font-family="Ubuntu-R" font-size="10.00">_bond.set_bond_id</text>
</a>
</g>
<!-- Node17&#45;&gt;Node18 -->
<g id="edge54" class="edge"><title>Node17&#45;&gt;Node18</title>
<path fill="none" stroke="midnightblue" d="M473.648,-96.9874C484.075,-94.2434 494.943,-91.3834 505.578,-88.5846"/>
<polygon fill="midnightblue" stroke="midnightblue" points="506.481,-91.9664 515.261,-86.0366 504.699,-85.1969 506.481,-91.9664"/>
</g>
<!-- Node19 -->
<g id="node47" class="node"><title>Node19</title>
<a xlink:href="classforcebalance_1_1Mol2_1_1mol2__bond.html#a1ced365259f0c6b7b4fa0f0d9fc5dc4d" target="_top" xlink:title="bond type (string) one of: 1 = single 2 = double 3 = triple am = amide ar = aromatic du = dummy un = ...">
<polygon fill="white" stroke="black" points="686,-33 686,-67 816,-67 816,-33 686,-33"/>
<text text-anchor="start" x="694" y="-54" font-family="Ubuntu-R" font-size="10.00">forcebalance.Mol2.mol2</text>
<text text-anchor="middle" x="751" y="-41" font-family="Ubuntu-R" font-size="10.00">_bond.set_bond_type</text>
</a>
</g>
<!-- Node18&#45;&gt;Node19 -->
<g id="edge56" class="edge"><title>Node18&#45;&gt;Node19</title>
<path fill="none" stroke="midnightblue" d="M645.136,-61.7627C655.117,-60.6537 665.491,-59.501 675.67,-58.37"/>
<polygon fill="midnightblue" stroke="midnightblue" points="676.21,-61.8316 685.762,-57.2486 675.437,-54.8744 676.21,-61.8316"/>
</g>
</g>
</svg>
