<?xml version="1.0" encoding="UTF-8" standalone="no"?>
<!DOCTYPE svg PUBLIC "-//W3C//DTD SVG 1.1//EN"
 "http://www.w3.org/Graphics/SVG/1.1/DTD/svg11.dtd">
<!-- Generated by graphviz version 2.28.0 (20111219.2309)
 -->
<!-- Title: G Pages: 1 -->
<svg width="210pt" height="196pt"
 viewBox="0.00 0.00 210.00 196.00" xmlns="http://www.w3.org/2000/svg" xmlns:xlink="http://www.w3.org/1999/xlink">
<g id="graph1" class="graph" transform="scale(1 1) rotate(0) translate(4 192)">
<title>G</title>
<polygon fill="white" stroke="white" points="-4,5 -4,-192 207,-192 207,5 -4,5"/>
<!-- Node1 -->
<g id="node1" class="node"><title>Node1</title>
<polygon fill="#bfbfbf" stroke="black" points="13,-56.5 13,-75.5 189,-75.5 189,-56.5 13,-56.5"/>
<text text-anchor="middle" x="101" y="-63.5" font-family="Ubuntu-R" font-size="10.00">forcebalance.moments.Moments</text>
</g>
<!-- Node4 -->
<g id="node7" class="node"><title>Node4</title>
<a xlink:href="classforcebalance_1_1tinkerio_1_1Moments__TINKER.html" target="_top" xlink:title="Subclass of Target for multipole moment matching using TINKER.">
<polygon fill="white" stroke="black" points="-0.5,-0.5 -0.5,-19.5 202.5,-19.5 202.5,-0.5 -0.5,-0.5"/>
<text text-anchor="middle" x="101" y="-7.5" font-family="Ubuntu-R" font-size="10.00">forcebalance.tinkerio.Moments_TINKER</text>
</a>
</g>
<!-- Node1&#45;&gt;Node4 -->
<g id="edge6" class="edge"><title>Node1&#45;&gt;Node4</title>
<path fill="none" stroke="midnightblue" d="M101,-45.8045C101,-36.9102 101,-26.7798 101,-19.7511"/>
<polygon fill="midnightblue" stroke="midnightblue" points="97.5001,-46.083 101,-56.083 104.5,-46.083 97.5001,-46.083"/>
</g>
<!-- Node2 -->
<g id="node2" class="node"><title>Node2</title>
<a xlink:href="classforcebalance_1_1target_1_1Target.html" target="_top" xlink:title="Base class for all fitting targets.">
<polygon fill="white" stroke="black" points="29.5,-112.5 29.5,-131.5 172.5,-131.5 172.5,-112.5 29.5,-112.5"/>
<text text-anchor="middle" x="101" y="-119.5" font-family="Ubuntu-R" font-size="10.00">forcebalance.target.Target</text>
</a>
</g>
<!-- Node2&#45;&gt;Node1 -->
<g id="edge2" class="edge"><title>Node2&#45;&gt;Node1</title>
<path fill="none" stroke="midnightblue" d="M101,-101.805C101,-92.9102 101,-82.7798 101,-75.7511"/>
<polygon fill="midnightblue" stroke="midnightblue" points="97.5001,-102.083 101,-112.083 104.5,-102.083 97.5001,-102.083"/>
</g>
<!-- Node3 -->
<g id="node4" class="node"><title>Node3</title>
<a xlink:href="classforcebalance_1_1BaseClass.html" target="_top" xlink:title="Provides some nifty functions that are common to all ForceBalance classes.">
<polygon fill="white" stroke="black" points="35.5,-168.5 35.5,-187.5 166.5,-187.5 166.5,-168.5 35.5,-168.5"/>
<text text-anchor="middle" x="101" y="-175.5" font-family="Ubuntu-R" font-size="10.00">forcebalance.BaseClass</text>
</a>
</g>
<!-- Node3&#45;&gt;Node2 -->
<g id="edge4" class="edge"><title>Node3&#45;&gt;Node2</title>
<path fill="none" stroke="midnightblue" d="M101,-157.805C101,-148.91 101,-138.78 101,-131.751"/>
<polygon fill="midnightblue" stroke="midnightblue" points="97.5001,-158.083 101,-168.083 104.5,-158.083 97.5001,-158.083"/>
</g>
</g>
</svg>
