<?xml version="1.0" encoding="UTF-8" standalone="no"?>
<!DOCTYPE svg PUBLIC "-//W3C//DTD SVG 1.1//EN"
 "http://www.w3.org/Graphics/SVG/1.1/DTD/svg11.dtd">
<!-- Generated by graphviz version 2.40.1 (20161225.0304)
 -->
<!-- Title: src.amberio.PrmtopLoader.get14Interactions Pages: 1 -->
<svg width="768pt" height="137pt"
 viewBox="0.00 0.00 768.00 137.00" xmlns="http://www.w3.org/2000/svg" xmlns:xlink="http://www.w3.org/1999/xlink">
<g id="graph0" class="graph" transform="scale(1 1) rotate(0) translate(4 133)">
<title>src.amberio.PrmtopLoader.get14Interactions</title>
<polygon fill="#ffffff" stroke="transparent" points="-4,4 -4,-133 764,-133 764,4 -4,4"/>
<!-- Node2 -->
<g id="node1" class="node">
<title>Node2</title>
<polygon fill="#bfbfbf" stroke="#000000" points="0,-73.5 0,-103.5 176,-103.5 176,-73.5 0,-73.5"/>
<text text-anchor="start" x="8" y="-91.5" font-family="Ubuntu-R" font-size="10.00" fill="#000000">src.amberio.PrmtopLoader.get14</text>
<text text-anchor="middle" x="88" y="-80.5" font-family="Ubuntu-R" font-size="10.00" fill="#000000">Interactions</text>
</g>
<!-- Node3 -->
<g id="node2" class="node">
<title>Node3</title>
<g id="a_node2"><a xlink:href="classsrc_1_1amberio_1_1PrmtopLoader.html#a7dae0918b1f2fb6c956c044198bba7a6" target="_top" xlink:title="Return a list of atomic charges in the system. ">
<polygon fill="#ffffff" stroke="#000000" points="212,-98.5 212,-128.5 376,-128.5 376,-98.5 212,-98.5"/>
<text text-anchor="start" x="220" y="-116.5" font-family="Ubuntu-R" font-size="10.00" fill="#000000">src.amberio.PrmtopLoader.get</text>
<text text-anchor="middle" x="294" y="-105.5" font-family="Ubuntu-R" font-size="10.00" fill="#000000">Charges</text>
</a>
</g>
</g>
<!-- Node2&#45;&gt;Node3 -->
<g id="edge1" class="edge">
<title>Node2&#45;&gt;Node3</title>
<path fill="none" stroke="#191970" d="M176.259,-99.211C184.7359,-100.2398 193.3488,-101.285 201.8616,-102.3182"/>
<polygon fill="#191970" stroke="#191970" points="201.4459,-105.7933 211.7948,-103.5236 202.2893,-98.8443 201.4459,-105.7933"/>
</g>
<!-- Node6 -->
<g id="node5" class="node">
<title>Node6</title>
<g id="a_node5"><a xlink:href="classsrc_1_1amberio_1_1PrmtopLoader.html#a23d0b10c76fb39e206cf6841ff6f56ce" target="_top" xlink:title="Return list of all rVdw, epsilon pairs for each atom. ">
<polygon fill="#ffffff" stroke="#000000" points="212,-49.5 212,-79.5 376,-79.5 376,-49.5 212,-49.5"/>
<text text-anchor="start" x="220" y="-67.5" font-family="Ubuntu-R" font-size="10.00" fill="#000000">src.amberio.PrmtopLoader.get</text>
<text text-anchor="middle" x="294" y="-56.5" font-family="Ubuntu-R" font-size="10.00" fill="#000000">NonbondTerms</text>
</a>
</g>
</g>
<!-- Node2&#45;&gt;Node6 -->
<g id="edge4" class="edge">
<title>Node2&#45;&gt;Node6</title>
<path fill="none" stroke="#191970" d="M176.259,-78.2174C184.7359,-77.2298 193.3488,-76.2264 201.8616,-75.2346"/>
<polygon fill="#191970" stroke="#191970" points="202.267,-78.7111 211.7948,-74.0773 201.4569,-71.7581 202.267,-78.7111"/>
</g>
<!-- Node4 -->
<g id="node3" class="node">
<title>Node4</title>
<g id="a_node3"><a xlink:href="classsrc_1_1amberio_1_1PrmtopLoader.html#ab1f407476fadeeafa5875158140bdd37" target="_top" xlink:title="Return the number of atoms in the system. ">
<polygon fill="#ffffff" stroke="#000000" points="412,-98.5 412,-128.5 576,-128.5 576,-98.5 412,-98.5"/>
<text text-anchor="start" x="420" y="-116.5" font-family="Ubuntu-R" font-size="10.00" fill="#000000">src.amberio.PrmtopLoader.get</text>
<text text-anchor="middle" x="494" y="-105.5" font-family="Ubuntu-R" font-size="10.00" fill="#000000">NumAtoms</text>
</a>
</g>
</g>
<!-- Node3&#45;&gt;Node4 -->
<g id="edge2" class="edge">
<title>Node3&#45;&gt;Node4</title>
<path fill="none" stroke="#191970" d="M376.2135,-113.5C384.5625,-113.5 393.0824,-113.5 401.5302,-113.5"/>
<polygon fill="#191970" stroke="#191970" points="401.7826,-117.0001 411.7826,-113.5 401.7826,-110.0001 401.7826,-117.0001"/>
</g>
<!-- Node5 -->
<g id="node4" class="node">
<title>Node5</title>
<g id="a_node4"><a xlink:href="classsrc_1_1amberio_1_1PrmtopLoader.html#ad5afef0e1df94e0ff8e354b7d91f6bf2" target="_top" xlink:title="Return pointer value given pointer label. ">
<polygon fill="#ffffff" stroke="#000000" points="612,-73.5 612,-103.5 760,-103.5 760,-73.5 612,-73.5"/>
<text text-anchor="start" x="620" y="-91.5" font-family="Ubuntu-R" font-size="10.00" fill="#000000">src.amberio.PrmtopLoader.</text>
<text text-anchor="middle" x="686" y="-80.5" font-family="Ubuntu-R" font-size="10.00" fill="#000000">_getPointerValue</text>
</a>
</g>
</g>
<!-- Node4&#45;&gt;Node5 -->
<g id="edge3" class="edge">
<title>Node4&#45;&gt;Node5</title>
<path fill="none" stroke="#191970" d="M576.2608,-102.789C584.6546,-101.696 593.1915,-100.5844 601.6076,-99.4886"/>
<polygon fill="#191970" stroke="#191970" points="602.3313,-102.924 611.7957,-98.162 601.4275,-95.9826 602.3313,-102.924"/>
</g>
<!-- Node6&#45;&gt;Node4 -->
<g id="edge5" class="edge">
<title>Node6&#45;&gt;Node4</title>
<path fill="none" stroke="#191970" d="M355.3658,-79.5346C376.675,-84.7554 400.7499,-90.6537 422.7862,-96.0526"/>
<polygon fill="#191970" stroke="#191970" points="422.2046,-99.5136 432.7503,-98.4938 423.8704,-92.7147 422.2046,-99.5136"/>
</g>
<!-- Node7 -->
<g id="node6" class="node">
<title>Node7</title>
<g id="a_node6"><a xlink:href="classsrc_1_1amberio_1_1PrmtopLoader.html#ab5fd1aa3c74924b90c4582cc7e15a7ab" target="_top" xlink:title="Return the number of AMBER atoms types in the system. ">
<polygon fill="#ffffff" stroke="#000000" points="412,-49.5 412,-79.5 576,-79.5 576,-49.5 412,-49.5"/>
<text text-anchor="start" x="420" y="-67.5" font-family="Ubuntu-R" font-size="10.00" fill="#000000">src.amberio.PrmtopLoader.get</text>
<text text-anchor="middle" x="494" y="-56.5" font-family="Ubuntu-R" font-size="10.00" fill="#000000">NumTypes</text>
</a>
</g>
</g>
<!-- Node6&#45;&gt;Node7 -->
<g id="edge6" class="edge">
<title>Node6&#45;&gt;Node7</title>
<path fill="none" stroke="#191970" d="M376.2135,-64.5C384.5625,-64.5 393.0824,-64.5 401.5302,-64.5"/>
<polygon fill="#191970" stroke="#191970" points="401.7826,-68.0001 411.7826,-64.5 401.7826,-61.0001 401.7826,-68.0001"/>
</g>
<!-- Node8 -->
<g id="node7" class="node">
<title>Node8</title>
<g id="a_node7"><a xlink:href="classsrc_1_1amberio_1_1PrmtopLoader.html#a43339577668a507e53b18d43a5075b78" target="_top" xlink:title="src.amberio.PrmtopLoader.\l_getAtomTypeIndexes">
<polygon fill="#ffffff" stroke="#000000" points="420,-.5 420,-30.5 568,-30.5 568,-.5 420,-.5"/>
<text text-anchor="start" x="428" y="-18.5" font-family="Ubuntu-R" font-size="10.00" fill="#000000">src.amberio.PrmtopLoader.</text>
<text text-anchor="middle" x="494" y="-7.5" font-family="Ubuntu-R" font-size="10.00" fill="#000000">_getAtomTypeIndexes</text>
</a>
</g>
</g>
<!-- Node6&#45;&gt;Node8 -->
<g id="edge8" class="edge">
<title>Node6&#45;&gt;Node8</title>
<path fill="none" stroke="#191970" d="M355.3658,-49.4654C376.675,-44.2446 400.7499,-38.3463 422.7862,-32.9474"/>
<polygon fill="#191970" stroke="#191970" points="423.8704,-36.2853 432.7503,-30.5062 422.2046,-29.4864 423.8704,-36.2853"/>
</g>
<!-- Node7&#45;&gt;Node5 -->
<g id="edge7" class="edge">
<title>Node7&#45;&gt;Node5</title>
<path fill="none" stroke="#191970" d="M576.2608,-74.7826C584.6546,-75.8318 593.1915,-76.8989 601.6076,-77.9509"/>
<polygon fill="#191970" stroke="#191970" points="601.4388,-81.457 611.7957,-79.2245 602.3071,-74.5111 601.4388,-81.457"/>
</g>
</g>
</svg>
