<?xml version="1.0" encoding="UTF-8" standalone="no"?>
<!DOCTYPE svg PUBLIC "-//W3C//DTD SVG 1.1//EN"
 "http://www.w3.org/Graphics/SVG/1.1/DTD/svg11.dtd">
<!-- Generated by graphviz version 2.26.3 (20100126.1600)
 -->
<!-- Title: forcebalance.moments.Moments Pages: 1 -->
<svg width="182pt" height="218pt"
 viewBox="0.00 0.00 182.00 218.00" xmlns="http://www.w3.org/2000/svg" xmlns:xlink="http://www.w3.org/1999/xlink">
<g id="graph1" class="graph" transform="scale(1 1) rotate(0) translate(4 214)">
<title>forcebalance.moments.Moments</title>
<polygon fill="white" stroke="white" points="-4,5 -4,-214 179,-214 179,5 -4,5"/>
<!-- Node1 -->
<g id="node1" class="node"><title>Node1</title>
<polygon fill="#bfbfbf" stroke="black" points="-0.5,-0.5 -0.5,-21.5 174.5,-21.5 174.5,-0.5 -0.5,-0.5"/>
<text text-anchor="middle" x="87" y="-8.5" font-family="Ubuntu-R" font-size="10.00">forcebalance.moments.Moments</text>
</g>
<!-- Node2 -->
<g id="node2" class="node"><title>Node2</title>
<a xlink:href="classforcebalance_1_1target_1_1Target.html" target="_top" xlink:title="Base class for all fitting targets.">
<polygon fill="white" stroke="black" points="16,-58.5 16,-79.5 158,-79.5 158,-58.5 16,-58.5"/>
<text text-anchor="middle" x="87" y="-66.5" font-family="Ubuntu-R" font-size="10.00">forcebalance.target.Target</text>
</a>
</g>
<!-- Node2&#45;&gt;Node1 -->
<g id="edge2" class="edge"><title>Node2&#45;&gt;Node1</title>
<path fill="none" stroke="midnightblue" d="M87,-48.1906C87,-39.1684 87,-28.9941 87,-21.5707"/>
<polygon fill="midnightblue" stroke="midnightblue" points="83.5001,-48.3619 87,-58.3619 90.5001,-48.3619 83.5001,-48.3619"/>
</g>
<!-- Node3 -->
<g id="node4" class="node"><title>Node3</title>
<a xlink:href="classforcebalance_1_1baseclass_1_1ForceBalanceBaseClass.html" target="_top" xlink:title="Provides some nifty functions that are common to all ForceBalance classes.">
<polygon fill="white" stroke="black" points="8.5,-117 8.5,-151 165.5,-151 165.5,-117 8.5,-117"/>
<text text-anchor="start" x="16.5" y="-138" font-family="Ubuntu-R" font-size="10.00">forcebalance.baseclass.Force</text>
<text text-anchor="middle" x="87" y="-125" font-family="Ubuntu-R" font-size="10.00">BalanceBaseClass</text>
</a>
</g>
<!-- Node3&#45;&gt;Node2 -->
<g id="edge4" class="edge"><title>Node3&#45;&gt;Node2</title>
<path fill="none" stroke="midnightblue" d="M87,-106.688C87,-97.2415 87,-87.1949 87,-79.8521"/>
<polygon fill="midnightblue" stroke="midnightblue" points="83.5001,-106.922 87,-116.922 90.5001,-106.922 83.5001,-106.922"/>
</g>
<!-- Node4 -->
<g id="node6" class="node"><title>Node4</title>
<polygon fill="white" stroke="#bfbfbf" points="64,-188.5 64,-209.5 110,-209.5 110,-188.5 64,-188.5"/>
<text text-anchor="middle" x="87" y="-196.5" font-family="Ubuntu-R" font-size="10.00">object</text>
</g>
<!-- Node4&#45;&gt;Node3 -->
<g id="edge6" class="edge"><title>Node4&#45;&gt;Node3</title>
<path fill="none" stroke="midnightblue" d="M87,-178.131C87,-169.405 87,-159.391 87,-151.11"/>
<polygon fill="midnightblue" stroke="midnightblue" points="83.5001,-178.267 87,-188.267 90.5001,-178.267 83.5001,-178.267"/>
</g>
</g>
</svg>
