<?xml version="1.0" encoding="UTF-8" standalone="no"?>
<!DOCTYPE svg PUBLIC "-//W3C//DTD SVG 1.1//EN"
 "http://www.w3.org/Graphics/SVG/1.1/DTD/svg11.dtd">
<!-- Generated by graphviz version 2.28.0 (20111219.2309)
 -->
<!-- Title: forcebalance.amberio.AbInitio_AMBER.prepare_temp_directory Pages: 1 -->
<svg width="584pt" height="84pt"
 viewBox="0.00 0.00 584.00 84.00" xmlns="http://www.w3.org/2000/svg" xmlns:xlink="http://www.w3.org/1999/xlink">
<g id="graph1" class="graph" transform="scale(1 1) rotate(0) translate(4 80)">
<title>forcebalance.amberio.AbInitio_AMBER.prepare_temp_directory</title>
<polygon fill="white" stroke="white" points="-4,5 -4,-80 581,-80 581,5 -4,5"/>
<!-- Node1 -->
<g id="node1" class="node"><title>Node1</title>
<polygon fill="#bfbfbf" stroke="black" points="0,-22 0,-52 174,-52 174,-22 0,-22"/>
<text text-anchor="start" x="8" y="-40" font-family="Ubuntu-R" font-size="10.00">forcebalance.amberio.AbInitio</text>
<text text-anchor="middle" x="87" y="-29" font-family="Ubuntu-R" font-size="10.00">_AMBER.prepare_temp_directory</text>
</g>
<!-- Node2 -->
<g id="node3" class="node"><title>Node2</title>
<a xlink:href="classforcebalance_1_1amberio_1_1AbInitio__AMBER.html#ad0fcc43d857471ee074361076c040ea5" target="_top" xlink:title="forcebalance.amberio.AbInitio\l_AMBER.energy_force_driver\l_all_external_">
<polygon fill="white" stroke="black" points="210.5,-16.5 210.5,-57.5 369.5,-57.5 369.5,-16.5 210.5,-16.5"/>
<text text-anchor="start" x="218.5" y="-45.5" font-family="Ubuntu-R" font-size="10.00">forcebalance.amberio.AbInitio</text>
<text text-anchor="start" x="218.5" y="-34.5" font-family="Ubuntu-R" font-size="10.00">_AMBER.energy_force_driver</text>
<text text-anchor="middle" x="290" y="-23.5" font-family="Ubuntu-R" font-size="10.00">_all_external_</text>
</a>
</g>
<!-- Node1&#45;&gt;Node2 -->
<g id="edge2" class="edge"><title>Node1&#45;&gt;Node2</title>
<path fill="none" stroke="midnightblue" d="M174.117,-37C182.771,-37 191.57,-37 200.251,-37"/>
<polygon fill="midnightblue" stroke="midnightblue" points="200.371,-40.5001 210.371,-37 200.371,-33.5001 200.371,-40.5001"/>
</g>
<!-- Node2&#45;&gt;Node2 -->
<g id="edge8" class="edge"><title>Node2&#45;&gt;Node2</title>
<path fill="none" stroke="midnightblue" d="M253.086,-57.7163C249.57,-66.9844 261.875,-75 290,-75 307.139,-75 318.403,-72.0235 323.792,-67.6009"/>
<polygon fill="midnightblue" stroke="midnightblue" points="327.24,-68.3061 326.914,-57.7163 320.565,-66.1978 327.24,-68.3061"/>
</g>
<!-- Node3 -->
<g id="node5" class="node"><title>Node3</title>
<a xlink:href="namespaceforcebalance_1_1molecule.html#afe989ffd119568047fc8265b1d329a70" target="_top" xlink:title="Matches ANY number; it can be a decimal, scientific notation, integer, or what have you...">
<polygon fill="white" stroke="black" points="413,-49.5 413,-68.5 569,-68.5 569,-49.5 413,-49.5"/>
<text text-anchor="middle" x="491" y="-56.5" font-family="Ubuntu-R" font-size="10.00">forcebalance.molecule.isfloat</text>
</a>
</g>
<!-- Node2&#45;&gt;Node3 -->
<g id="edge4" class="edge"><title>Node2&#45;&gt;Node3</title>
<path fill="none" stroke="midnightblue" d="M369.65,-45.695C380.546,-46.8996 391.792,-48.1428 402.832,-49.3633"/>
<polygon fill="midnightblue" stroke="midnightblue" points="402.573,-52.8559 412.897,-50.476 403.342,-45.8983 402.573,-52.8559"/>
</g>
<!-- Node4 -->
<g id="node7" class="node"><title>Node4</title>
<a xlink:href="classforcebalance_1_1amberio_1_1AbInitio__AMBER.html#a64ccf943e550392c654ec7bb6c6ff81b" target="_top" xlink:title="forcebalance.amberio.AbInitio\l_AMBER.energy_force_driver_all">
<polygon fill="white" stroke="black" points="406.5,-0 406.5,-30 575.5,-30 575.5,-0 406.5,-0"/>
<text text-anchor="start" x="414.5" y="-18" font-family="Ubuntu-R" font-size="10.00">forcebalance.amberio.AbInitio</text>
<text text-anchor="middle" x="491" y="-7" font-family="Ubuntu-R" font-size="10.00">_AMBER.energy_force_driver_all</text>
</a>
</g>
<!-- Node2&#45;&gt;Node4 -->
<g id="edge6" class="edge"><title>Node2&#45;&gt;Node4</title>
<path fill="none" stroke="midnightblue" d="M369.65,-28.305C378.412,-27.3364 387.399,-26.3428 396.324,-25.3561"/>
<polygon fill="midnightblue" stroke="midnightblue" points="396.804,-28.8245 406.358,-24.2468 396.034,-21.8669 396.804,-28.8245"/>
</g>
</g>
</svg>
