<?xml version="1.0" encoding="UTF-8" standalone="no"?>
<!DOCTYPE svg PUBLIC "-//W3C//DTD SVG 1.1//EN"
 "http://www.w3.org/Graphics/SVG/1.1/DTD/svg11.dtd">
<!-- Generated by graphviz version 2.32.0 (20130801.1845)
 -->
<!-- Title: forcebalance.objective.Penalty.HYP Pages: 1 -->
<svg width="1068pt" height="115pt"
 viewBox="0.00 0.00 1068.00 115.16" xmlns="http://www.w3.org/2000/svg" xmlns:xlink="http://www.w3.org/1999/xlink">
<g id="graph0" class="graph" transform="scale(1 1) rotate(0) translate(4 111.163)">
<title>forcebalance.objective.Penalty.HYP</title>
<polygon fill="white" stroke="white" points="-4,5 -4,-111.163 1065,-111.163 1065,5 -4,5"/>
<!-- Node1 -->
<g id="node1" class="node"><title>Node1</title>
<polygon fill="#bfbfbf" stroke="black" points="0.3915,-30.3496 0.3915,-50.3496 161.608,-50.3496 161.608,-30.3496 0.3915,-30.3496"/>
<text text-anchor="middle" x="81" y="-37.3496" font-family="Ubuntu-R" font-size="10.00">forcebalance.objective.Penalty.HYP</text>
</g>
<!-- Node2 -->
<g id="node2" class="node"><title>Node2</title>
<g id="a_node2"><a xlink:href="classforcebalance_1_1objective_1_1Penalty.html#aafc1810e03e4e3f2ca1569588a8189d4" target="_top" xlink:title="forcebalance.objective.Penalty.FUSE">
<polygon fill="white" stroke="black" points="198.167,-62.3496 198.167,-82.3496 363.833,-82.3496 363.833,-62.3496 198.167,-62.3496"/>
<text text-anchor="middle" x="281" y="-69.3496" font-family="Ubuntu-R" font-size="10.00">forcebalance.objective.Penalty.FUSE</text>
</a>
</g>
</g>
<!-- Node1&#45;&gt;Node2 -->
<g id="edge1" class="edge"><title>Node1&#45;&gt;Node2</title>
<path fill="none" stroke="midnightblue" d="M144.105,-50.3868C164.378,-53.6631 187.059,-57.3287 207.995,-60.7125"/>
<polygon fill="midnightblue" stroke="midnightblue" points="207.685,-64.2076 218.115,-62.348 208.802,-57.2973 207.685,-64.2076"/>
</g>
<!-- Node3 -->
<g id="node3" class="node"><title>Node3</title>
<g id="a_node3"><a xlink:href="namespaceforcebalance_1_1nifty.html#abb8f59044961a12588e0653c2baa8b01" target="_top" xlink:title="forcebalance.nifty.warn\l_press_key">
<polygon fill="white" stroke="black" points="756.528,-59.3496 756.528,-91.3496 867.472,-91.3496 867.472,-59.3496 756.528,-59.3496"/>
<text text-anchor="start" x="764.528" y="-78.3496" font-family="Ubuntu-R" font-size="10.00">forcebalance.nifty.warn</text>
<text text-anchor="middle" x="812" y="-66.3496" font-family="Ubuntu-R" font-size="10.00">_press_key</text>
</a>
</g>
</g>
<!-- Node1&#45;&gt;Node3 -->
<g id="edge8" class="edge"><title>Node1&#45;&gt;Node3</title>
<path fill="none" stroke="midnightblue" d="M133.866,-30.3124C243.87,-10.9636 507.877,25.166 720,-27.3496 740.92,-32.5287 762.334,-43.4884 779.13,-53.6293"/>
<polygon fill="midnightblue" stroke="midnightblue" points="777.617,-56.8108 787.954,-59.1369 781.324,-50.8727 777.617,-56.8108"/>
</g>
<!-- Node2&#45;&gt;Node3 -->
<g id="edge2" class="edge"><title>Node2&#45;&gt;Node3</title>
<path fill="none" stroke="midnightblue" d="M319.412,-82.3657C342.457,-88.0117 372.717,-94.4911 400,-97.3496 541.459,-112.17 578.609,-108.805 720,-93.3496 728.608,-92.4087 737.613,-91.0691 746.471,-89.5397"/>
<polygon fill="midnightblue" stroke="midnightblue" points="747.163,-92.9713 756.379,-87.7435 745.915,-86.0836 747.163,-92.9713"/>
</g>
<!-- Node5 -->
<g id="node5" class="node"><title>Node5</title>
<g id="a_node5"><a xlink:href="classforcebalance_1_1objective_1_1Penalty.html#a9badc0a78d23016aa3dcc2d610e2e16c" target="_top" xlink:title="forcebalance.objective.Penalty.\lFUSE_BARRIER">
<polygon fill="white" stroke="black" points="400.39,-56.3496 400.39,-88.3496 541.61,-88.3496 541.61,-56.3496 400.39,-56.3496"/>
<text text-anchor="start" x="408.39" y="-75.3496" font-family="Ubuntu-R" font-size="10.00">forcebalance.objective.Penalty.</text>
<text text-anchor="middle" x="471" y="-63.3496" font-family="Ubuntu-R" font-size="10.00">FUSE_BARRIER</text>
</a>
</g>
</g>
<!-- Node2&#45;&gt;Node5 -->
<g id="edge4" class="edge"><title>Node2&#45;&gt;Node5</title>
<path fill="none" stroke="midnightblue" d="M363.913,-72.3496C372.589,-72.3496 381.406,-72.3496 390.059,-72.3496"/>
<polygon fill="midnightblue" stroke="midnightblue" points="390.125,-75.8497 400.125,-72.3496 390.125,-68.8497 390.125,-75.8497"/>
</g>
<!-- Node4 -->
<g id="node4" class="node"><title>Node4</title>
<g id="a_node4"><a xlink:href="namespaceforcebalance_1_1nifty.html#a2fc81730e7efa7d138dd86f733507bfc" target="_top" xlink:title="Similar to the bultin function map().">
<polygon fill="white" stroke="black" points="904.035,-65.3496 904.035,-85.3496 1059.96,-85.3496 1059.96,-65.3496 904.035,-65.3496"/>
<text text-anchor="middle" x="982" y="-72.3496" font-family="Ubuntu-R" font-size="10.00">forcebalance.nifty.concurrent_map</text>
</a>
</g>
</g>
<!-- Node3&#45;&gt;Node4 -->
<g id="edge3" class="edge"><title>Node3&#45;&gt;Node4</title>
<path fill="none" stroke="midnightblue" d="M867.545,-75.3496C875.968,-75.3496 884.843,-75.3496 893.768,-75.3496"/>
<polygon fill="midnightblue" stroke="midnightblue" points="893.843,-78.8497 903.843,-75.3496 893.843,-71.8497 893.843,-78.8497"/>
</g>
<!-- Node5&#45;&gt;Node3 -->
<g id="edge5" class="edge"><title>Node5&#45;&gt;Node3</title>
<path fill="none" stroke="midnightblue" d="M541.823,-76.864C553.883,-77.4828 566.3,-78.0187 578,-78.3496 641.086,-80.1336 656.897,-79.3895 720,-78.3496 728.406,-78.2111 737.248,-78.0006 745.98,-77.7541"/>
<polygon fill="midnightblue" stroke="midnightblue" points="746.258,-81.2474 756.149,-77.4503 746.049,-74.2505 746.258,-81.2474"/>
</g>
<!-- Node6 -->
<g id="node6" class="node"><title>Node6</title>
<g id="a_node6"><a xlink:href="classforcebalance_1_1objective_1_1Penalty.html#ab54cfe22065a5aa22766e16cc8cb90aa" target="_top" xlink:title="forcebalance.objective.Penalty.\lFUSE_L0">
<polygon fill="white" stroke="black" points="578.39,-37.3496 578.39,-69.3496 719.61,-69.3496 719.61,-37.3496 578.39,-37.3496"/>
<text text-anchor="start" x="586.39" y="-56.3496" font-family="Ubuntu-R" font-size="10.00">forcebalance.objective.Penalty.</text>
<text text-anchor="middle" x="649" y="-44.3496" font-family="Ubuntu-R" font-size="10.00">FUSE_L0</text>
</a>
</g>
</g>
<!-- Node5&#45;&gt;Node6 -->
<g id="edge6" class="edge"><title>Node5&#45;&gt;Node6</title>
<path fill="none" stroke="midnightblue" d="M541.813,-64.813C550.435,-63.8822 559.301,-62.925 568.06,-61.9795"/>
<polygon fill="midnightblue" stroke="midnightblue" points="568.705,-65.4302 578.272,-60.8771 567.954,-58.4707 568.705,-65.4302"/>
</g>
<!-- Node6&#45;&gt;Node3 -->
<g id="edge7" class="edge"><title>Node6&#45;&gt;Node3</title>
<path fill="none" stroke="midnightblue" d="M719.681,-62.8712C728.476,-64.0731 737.448,-65.299 746.164,-66.4901"/>
<polygon fill="midnightblue" stroke="midnightblue" points="745.872,-69.9826 756.254,-67.8688 746.82,-63.047 745.872,-69.9826"/>
</g>
</g>
</svg>
