<?xml version="1.0" encoding="UTF-8" standalone="no"?>
<!DOCTYPE svg PUBLIC "-//W3C//DTD SVG 1.1//EN"
 "http://www.w3.org/Graphics/SVG/1.1/DTD/svg11.dtd">
<!-- Generated by graphviz version 2.32.0 (20130801.1845)
 -->
<!-- Title: forcebalance.gmxio.AbInitio_GMX.energy_force_driver_all Pages: 1 -->
<svg width="1212pt" height="204pt"
 viewBox="0.00 0.00 1212.00 204.00" xmlns="http://www.w3.org/2000/svg" xmlns:xlink="http://www.w3.org/1999/xlink">
<g id="graph0" class="graph" transform="scale(1 1) rotate(0) translate(4 200)">
<title>forcebalance.gmxio.AbInitio_GMX.energy_force_driver_all</title>
<polygon fill="white" stroke="white" points="-4,5 -4,-200 1209,-200 1209,5 -4,5"/>
<!-- Node1 -->
<g id="node1" class="node"><title>Node1</title>
<polygon fill="#bfbfbf" stroke="black" points="0.2785,-22 0.2785,-54 143.722,-54 143.722,-22 0.2785,-22"/>
<text text-anchor="start" x="8.2785" y="-41" font-family="Ubuntu-R" font-size="10.00">forcebalance.gmxio.AbInitio</text>
<text text-anchor="middle" x="72" y="-29" font-family="Ubuntu-R" font-size="10.00">_GMX.energy_force_driver_all</text>
</g>
<!-- Node2 -->
<g id="node2" class="node"><title>Node2</title>
<g id="a_node2"><a xlink:href="classforcebalance_1_1gmxio_1_1AbInitio__GMX.html#ae17e3c379d82935d725dd31f01df23e5" target="_top" xlink:title="Call mdrun in order to update the virtual site positions.">
<polygon fill="white" stroke="black" points="180.154,-67 180.154,-99 325.846,-99 325.846,-67 180.154,-67"/>
<text text-anchor="start" x="188.154" y="-86" font-family="Ubuntu-R" font-size="10.00">forcebalance.gmxio.AbInitio</text>
<text text-anchor="middle" x="253" y="-74" font-family="Ubuntu-R" font-size="10.00">_GMX.generate_vsite_positions</text>
</a>
</g>
</g>
<!-- Node1&#45;&gt;Node2 -->
<g id="edge1" class="edge"><title>Node1&#45;&gt;Node2</title>
<path fill="none" stroke="midnightblue" d="M136.865,-54.0555C150.277,-57.4271 164.527,-61.0096 178.266,-64.4634"/>
<polygon fill="midnightblue" stroke="midnightblue" points="177.608,-67.907 188.16,-66.9507 179.315,-61.1182 177.608,-67.907"/>
</g>
<!-- Node11 -->
<g id="node11" class="node"><title>Node11</title>
<g id="a_node11"><a xlink:href="namespaceforcebalance_1_1gmxio.html#acac8488f29b62fb0d4cb54bb5a041026" target="_top" xlink:title="forcebalance.gmxio.rm\l_gmx_baks">
<polygon fill="white" stroke="black" points="1071.63,-29 1071.63,-61 1180.37,-61 1180.37,-29 1071.63,-29"/>
<text text-anchor="start" x="1079.63" y="-48" font-family="Ubuntu-R" font-size="10.00">forcebalance.gmxio.rm</text>
<text text-anchor="middle" x="1126" y="-36" font-family="Ubuntu-R" font-size="10.00">_gmx_baks</text>
</a>
</g>
</g>
<!-- Node1&#45;&gt;Node11 -->
<g id="edge14" class="edge"><title>Node1&#45;&gt;Node11</title>
<path fill="none" stroke="midnightblue" d="M143.82,-25.9244C215.303,-14.7974 328.981,-0 428,-0 428,-0 428,-0 773,-0 879.557,-0 906.683,-2.78746 1012,-19 1028.23,-21.4984 1045.59,-25.0443 1061.71,-28.7166"/>
<polygon fill="midnightblue" stroke="midnightblue" points="1061.03,-32.1527 1071.57,-31.0112 1062.62,-25.335 1061.03,-32.1527"/>
</g>
<!-- Node3 -->
<g id="node3" class="node"><title>Node3</title>
<g id="a_node3"><a xlink:href="classforcebalance_1_1gmxio_1_1AbInitio__GMX.html#a1d03ae8104bcecacf96884058f2698af" target="_top" xlink:title="forcebalance.gmxio.AbInitio\l_GMX.__init__">
<polygon fill="white" stroke="black" points="363.243,-118 363.243,-150 494.757,-150 494.757,-118 363.243,-118"/>
<text text-anchor="start" x="371.243" y="-137" font-family="Ubuntu-R" font-size="10.00">forcebalance.gmxio.AbInitio</text>
<text text-anchor="middle" x="429" y="-125" font-family="Ubuntu-R" font-size="10.00">_GMX.__init__</text>
</a>
</g>
</g>
<!-- Node2&#45;&gt;Node3 -->
<g id="edge2" class="edge"><title>Node2&#45;&gt;Node3</title>
<path fill="none" stroke="midnightblue" d="M309.055,-99.1367C326.36,-104.209 345.624,-109.855 363.522,-115.101"/>
<polygon fill="midnightblue" stroke="midnightblue" points="362.723,-118.514 373.303,-117.968 364.692,-111.797 362.723,-118.514"/>
</g>
<!-- Node12 -->
<g id="node12" class="node"><title>Node12</title>
<g id="a_node12"><a xlink:href="classforcebalance_1_1baseclass_1_1ForceBalanceBaseClass.html#abaaf4d99b043d41f02fabc41db59252b" target="_top" xlink:title="forcebalance.baseclass.Force\lBalanceBaseClass.set_option">
<polygon fill="white" stroke="black" points="362.265,-67 362.265,-99 495.735,-99 495.735,-67 362.265,-67"/>
<text text-anchor="start" x="370.265" y="-86" font-family="Ubuntu-R" font-size="10.00">forcebalance.baseclass.Force</text>
<text text-anchor="middle" x="429" y="-74" font-family="Ubuntu-R" font-size="10.00">BalanceBaseClass.set_option</text>
</a>
</g>
</g>
<!-- Node2&#45;&gt;Node12 -->
<g id="edge13" class="edge"><title>Node2&#45;&gt;Node12</title>
<path fill="none" stroke="midnightblue" d="M326.028,-83C334.63,-83 343.433,-83 352.086,-83"/>
<polygon fill="midnightblue" stroke="midnightblue" points="352.156,-86.5001 362.156,-83 352.156,-79.5001 352.156,-86.5001"/>
</g>
<!-- Node4 -->
<g id="node4" class="node"><title>Node4</title>
<g id="a_node4"><a xlink:href="classforcebalance_1_1gmxio_1_1AbInitio__GMX.html#aba138ca4195a1737f2f00bd8c5f3ca07" target="_top" xlink:title="This function parses the GROMACS topology file (.top) which contains a listing of the molecules in th...">
<polygon fill="white" stroke="black" points="532.243,-118 532.243,-150 663.757,-150 663.757,-118 532.243,-118"/>
<text text-anchor="start" x="540.243" y="-137" font-family="Ubuntu-R" font-size="10.00">forcebalance.gmxio.AbInitio</text>
<text text-anchor="middle" x="598" y="-125" font-family="Ubuntu-R" font-size="10.00">_GMX.read_topology</text>
</a>
</g>
</g>
<!-- Node3&#45;&gt;Node4 -->
<g id="edge3" class="edge"><title>Node3&#45;&gt;Node4</title>
<path fill="none" stroke="midnightblue" d="M495.045,-134C503.895,-134 513.036,-134 522.043,-134"/>
<polygon fill="midnightblue" stroke="midnightblue" points="522.133,-137.5 532.133,-134 522.133,-130.5 522.133,-137.5"/>
</g>
<!-- Node5 -->
<g id="node5" class="node"><title>Node5</title>
<g id="a_node5"><a xlink:href="classforcebalance_1_1gmxio_1_1AbInitio__GMX.html#ab2eac76585bdb8401812f0c8e465a44e" target="_top" xlink:title="forcebalance.gmxio.AbInitio\l_GMX.prepare_temp_directory">
<polygon fill="white" stroke="black" points="700.553,-118 700.553,-150 843.447,-150 843.447,-118 700.553,-118"/>
<text text-anchor="start" x="708.553" y="-137" font-family="Ubuntu-R" font-size="10.00">forcebalance.gmxio.AbInitio</text>
<text text-anchor="middle" x="772" y="-125" font-family="Ubuntu-R" font-size="10.00">_GMX.prepare_temp_directory</text>
</a>
</g>
</g>
<!-- Node4&#45;&gt;Node5 -->
<g id="edge4" class="edge"><title>Node4&#45;&gt;Node5</title>
<path fill="none" stroke="midnightblue" d="M664.026,-134C672.573,-134 681.414,-134 690.183,-134"/>
<polygon fill="midnightblue" stroke="midnightblue" points="690.423,-137.5 700.423,-134 690.423,-130.5 690.423,-137.5"/>
</g>
<!-- Node6 -->
<g id="node6" class="node"><title>Node6</title>
<g id="a_node6"><a xlink:href="namespaceforcebalance_1_1nifty.html#abb8f59044961a12588e0653c2baa8b01" target="_top" xlink:title="forcebalance.nifty.warn\l_press_key">
<polygon fill="white" stroke="black" points="890.528,-119 890.528,-151 1001.47,-151 1001.47,-119 890.528,-119"/>
<text text-anchor="start" x="898.528" y="-138" font-family="Ubuntu-R" font-size="10.00">forcebalance.nifty.warn</text>
<text text-anchor="middle" x="946" y="-126" font-family="Ubuntu-R" font-size="10.00">_press_key</text>
</a>
</g>
</g>
<!-- Node5&#45;&gt;Node6 -->
<g id="edge5" class="edge"><title>Node5&#45;&gt;Node6</title>
<path fill="none" stroke="midnightblue" d="M843.455,-134.41C855.582,-134.48 868.135,-134.553 880.106,-134.623"/>
<polygon fill="midnightblue" stroke="midnightblue" points="880.431,-138.125 890.452,-134.683 880.472,-131.125 880.431,-138.125"/>
</g>
<!-- Node8 -->
<g id="node8" class="node"><title>Node8</title>
<g id="a_node8"><a xlink:href="namespaceforcebalance_1_1nifty.html#ab182a9da2a2f42cf45942fbee6acf9b1" target="_top" xlink:title="forcebalance.nifty.LinkFile">
<polygon fill="white" stroke="black" points="883.299,-170 883.299,-190 1008.7,-190 1008.7,-170 883.299,-170"/>
<text text-anchor="middle" x="946" y="-177" font-family="Ubuntu-R" font-size="10.00">forcebalance.nifty.LinkFile</text>
</a>
</g>
</g>
<!-- Node5&#45;&gt;Node8 -->
<g id="edge7" class="edge"><title>Node5&#45;&gt;Node8</title>
<path fill="none" stroke="midnightblue" d="M833.157,-150.089C854.29,-155.74 877.718,-162.006 897.649,-167.336"/>
<polygon fill="midnightblue" stroke="midnightblue" points="896.858,-170.748 907.423,-169.95 898.667,-163.986 896.858,-170.748"/>
</g>
<!-- Node10 -->
<g id="node10" class="node"><title>Node10</title>
<g id="a_node10"><a xlink:href="classforcebalance_1_1gmxio_1_1AbInitio__GMX.html#a4bc31d1c02d47749d26b14779f025ebd" target="_top" xlink:title="Computes the energy and force using GROMACS for a single snapshot.">
<polygon fill="white" stroke="black" points="880.243,-29 880.243,-61 1011.76,-61 1011.76,-29 880.243,-29"/>
<text text-anchor="start" x="888.243" y="-48" font-family="Ubuntu-R" font-size="10.00">forcebalance.gmxio.AbInitio</text>
<text text-anchor="middle" x="946" y="-36" font-family="Ubuntu-R" font-size="10.00">_GMX.energy_force_driver</text>
</a>
</g>
</g>
<!-- Node5&#45;&gt;Node10 -->
<g id="edge9" class="edge"><title>Node5&#45;&gt;Node10</title>
<path fill="none" stroke="midnightblue" d="M801.85,-117.837C823.264,-105.968 853.261,-89.6119 880,-76 886.741,-72.5685 893.926,-69.0276 900.969,-65.6205"/>
<polygon fill="midnightblue" stroke="midnightblue" points="902.928,-68.5625 910.429,-61.0805 899.899,-62.2516 902.928,-68.5625"/>
</g>
<!-- Node5&#45;&gt;Node11 -->
<g id="edge12" class="edge"><title>Node5&#45;&gt;Node11</title>
<path fill="none" stroke="midnightblue" d="M836.337,-117.986C900.03,-101.882 997.683,-77.1909 1061.45,-61.0678"/>
<polygon fill="midnightblue" stroke="midnightblue" points="1062.55,-64.4009 1071.38,-58.5563 1060.83,-57.6144 1062.55,-64.4009"/>
</g>
<!-- Node7 -->
<g id="node7" class="node"><title>Node7</title>
<g id="a_node7"><a xlink:href="namespaceforcebalance_1_1nifty.html#a2fc81730e7efa7d138dd86f733507bfc" target="_top" xlink:title="Similar to the bultin function map().">
<polygon fill="white" stroke="black" points="1048.04,-125 1048.04,-145 1203.96,-145 1203.96,-125 1048.04,-125"/>
<text text-anchor="middle" x="1126" y="-132" font-family="Ubuntu-R" font-size="10.00">forcebalance.nifty.concurrent_map</text>
</a>
</g>
</g>
<!-- Node6&#45;&gt;Node7 -->
<g id="edge6" class="edge"><title>Node6&#45;&gt;Node7</title>
<path fill="none" stroke="midnightblue" d="M1001.86,-135C1013.19,-135 1025.39,-135 1037.56,-135"/>
<polygon fill="midnightblue" stroke="midnightblue" points="1037.75,-138.5 1047.75,-135 1037.75,-131.5 1037.75,-138.5"/>
</g>
<!-- Node9 -->
<g id="node9" class="node"><title>Node9</title>
<g id="a_node9"><a xlink:href="namespaceforcebalance_1_1nifty.html#a25efa4d501ad852a234721af18978f7e" target="_top" xlink:title="Remove the file if it exists (doesn&#39;t return an error).">
<polygon fill="white" stroke="black" points="1065.53,-164 1065.53,-196 1186.47,-196 1186.47,-164 1065.53,-164"/>
<text text-anchor="start" x="1073.53" y="-183" font-family="Ubuntu-R" font-size="10.00">forcebalance.nifty.remove</text>
<text text-anchor="middle" x="1126" y="-171" font-family="Ubuntu-R" font-size="10.00">_if_exists</text>
</a>
</g>
</g>
<!-- Node8&#45;&gt;Node9 -->
<g id="edge8" class="edge"><title>Node8&#45;&gt;Node9</title>
<path fill="none" stroke="midnightblue" d="M1008.76,-180C1023.69,-180 1039.75,-180 1055.03,-180"/>
<polygon fill="midnightblue" stroke="midnightblue" points="1055.45,-183.5 1065.45,-180 1055.45,-176.5 1055.45,-183.5"/>
</g>
<!-- Node10&#45;&gt;Node1 -->
<g id="edge10" class="edge"><title>Node10&#45;&gt;Node1</title>
<path fill="none" stroke="midnightblue" d="M879.962,-42.8998C810.427,-40.8379 696.933,-38 599,-38 428,-38 428,-38 428,-38 334.011,-38 226.025,-38 154.071,-38"/>
<polygon fill="midnightblue" stroke="midnightblue" points="153.723,-34.5001 143.723,-38 153.723,-41.5001 153.723,-34.5001"/>
</g>
<!-- Node10&#45;&gt;Node11 -->
<g id="edge11" class="edge"><title>Node10&#45;&gt;Node11</title>
<path fill="none" stroke="midnightblue" d="M1011.77,-45C1027.83,-45 1045.03,-45 1061.06,-45"/>
<polygon fill="midnightblue" stroke="midnightblue" points="1061.39,-48.5001 1071.39,-45 1061.39,-41.5001 1061.39,-48.5001"/>
</g>
</g>
</svg>
