<?xml version="1.0" encoding="UTF-8" standalone="no"?>
<!DOCTYPE svg PUBLIC "-//W3C//DTD SVG 1.1//EN"
 "http://www.w3.org/Graphics/SVG/1.1/DTD/svg11.dtd">
<!-- Generated by graphviz version 2.40.1 (20161225.0304)
 -->
<!-- Title: src.tinkerio.TINKER.molecular_dynamics Pages: 1 -->
<svg width="1299pt" height="339pt"
 viewBox="0.00 0.00 1299.00 339.37" xmlns="http://www.w3.org/2000/svg" xmlns:xlink="http://www.w3.org/1999/xlink">
<g id="graph0" class="graph" transform="scale(1 1) rotate(0) translate(4 335.3742)">
<title>src.tinkerio.TINKER.molecular_dynamics</title>
<polygon fill="#ffffff" stroke="transparent" points="-4,4 -4,-335.3742 1295,-335.3742 1295,4 -4,4"/>
<!-- Node110 -->
<g id="node1" class="node">
<title>Node110</title>
<polygon fill="#bfbfbf" stroke="#000000" points="0,-166 0,-196 162,-196 162,-166 0,-166"/>
<text text-anchor="start" x="8" y="-184" font-family="Ubuntu-R" font-size="10.00" fill="#000000">src.tinkerio.TINKER.molecular</text>
<text text-anchor="middle" x="81" y="-173" font-family="Ubuntu-R" font-size="10.00" fill="#000000">_dynamics</text>
</g>
<!-- Node111 -->
<g id="node2" class="node">
<title>Node111</title>
<g id="a_node2"><a xlink:href="namespacesrc_1_1nifty.html#ab233937d3663f03a912737572c08da9d" target="_top" xlink:title="Prints a warning but will only do so once in a given run. ">
<polygon fill="#ffffff" stroke="#000000" points="1155.5,-297.5 1155.5,-316.5 1265.5,-316.5 1265.5,-297.5 1155.5,-297.5"/>
<text text-anchor="middle" x="1210.5" y="-304.5" font-family="Ubuntu-R" font-size="10.00" fill="#000000">src.nifty.warn_once</text>
</a>
</g>
</g>
<!-- Node110&#45;&gt;Node111 -->
<g id="edge1" class="edge">
<title>Node110&#45;&gt;Node111</title>
<path fill="none" stroke="#191970" d="M91.1705,-196.0474C109.2776,-221.4471 149.7675,-272.2763 198,-295 313.4622,-349.3975 355.8653,-326 483.5,-326 483.5,-326 483.5,-326 852.5,-326 954.8317,-326 1073.3861,-318.163 1145.116,-312.5555"/>
<polygon fill="#191970" stroke="#191970" points="1145.6591,-316.0235 1155.3519,-311.7455 1145.1069,-309.0453 1145.6591,-316.0235"/>
</g>
<!-- Node112 -->
<g id="node3" class="node">
<title>Node112</title>
<g id="a_node3"><a xlink:href="classsrc_1_1amberio_1_1AMBER.html#a51ec039c6c984fa79e83be0d0c71a5b7" target="_top" xlink:title="Optimize the geometry and align the optimized geometry to the starting geometry. ">
<polygon fill="#ffffff" stroke="#000000" points="209,-266.5 209,-285.5 367,-285.5 367,-266.5 209,-266.5"/>
<text text-anchor="middle" x="288" y="-273.5" font-family="Ubuntu-R" font-size="10.00" fill="#000000">src.amberio.AMBER.optimize</text>
</a>
</g>
</g>
<!-- Node110&#45;&gt;Node112 -->
<g id="edge2" class="edge">
<title>Node110&#45;&gt;Node112</title>
<path fill="none" stroke="#191970" d="M99.6402,-196.2555C121.759,-213.5799 160.3952,-241.4515 198,-257 204.2466,-259.5828 210.8881,-261.8309 217.623,-263.7845"/>
<polygon fill="#191970" stroke="#191970" points="216.9567,-267.2294 227.5222,-266.4405 218.7708,-260.4686 216.9567,-267.2294"/>
</g>
<!-- Node113 -->
<g id="node4" class="node">
<title>Node113</title>
<g id="a_node4"><a xlink:href="classsrc_1_1gmxio_1_1GMX.html#a92d0a874a4b720617b984cfb3f3117cf" target="_top" xlink:title="Optimize the geometry and align the optimized geometry to the starting geometry. ">
<polygon fill="#ffffff" stroke="#000000" points="220,-228.5 220,-247.5 356,-247.5 356,-228.5 220,-228.5"/>
<text text-anchor="middle" x="288" y="-235.5" font-family="Ubuntu-R" font-size="10.00" fill="#000000">src.gmxio.GMX.optimize</text>
</a>
</g>
</g>
<!-- Node110&#45;&gt;Node113 -->
<g id="edge3" class="edge">
<title>Node110&#45;&gt;Node113</title>
<path fill="none" stroke="#191970" d="M133.6649,-196.0271C153.7783,-201.7206 176.9347,-208.2209 198,-214 212.1803,-217.8903 227.6417,-222.0449 241.6852,-225.7852"/>
<polygon fill="#191970" stroke="#191970" points="241.0583,-229.24 251.6218,-228.4258 242.8562,-222.4748 241.0583,-229.24"/>
</g>
<!-- Node117 -->
<g id="node8" class="node">
<title>Node117</title>
<g id="a_node8"><a xlink:href="namespacesrc_1_1nifty.html#a9bda70a78d0f5d31e10dfffaf85803c9" target="_top" xlink:title="Cool&#45;looking printout for slick formatting of output. ">
<polygon fill="#ffffff" stroke="#000000" points="802,-190.5 802,-209.5 903,-209.5 903,-190.5 802,-190.5"/>
<text text-anchor="middle" x="852.5" y="-197.5" font-family="Ubuntu-R" font-size="10.00" fill="#000000">src.nifty.printcool</text>
</a>
</g>
</g>
<!-- Node110&#45;&gt;Node117 -->
<g id="edge28" class="edge">
<title>Node110&#45;&gt;Node117</title>
<path fill="none" stroke="#191970" d="M117.1602,-165.9932C139.919,-157.3737 170.1556,-147.4084 198,-143 423.9093,-107.2335 697.4978,-162.4757 805.4513,-188.0941"/>
<polygon fill="#191970" stroke="#191970" points="804.8334,-191.5451 815.3742,-190.4767 806.4678,-184.7386 804.8334,-191.5451"/>
</g>
<!-- Node126 -->
<g id="node17" class="node">
<title>Node126</title>
<g id="a_node17"><a xlink:href="classsrc_1_1smirnoffio_1_1SMIRNOFF.html#aae8b084d595c6779e535519abf4718c2" target="_top" xlink:title="src.smirnoffio.SMIRNOFF.optimize">
<polygon fill="#ffffff" stroke="#000000" points="198,-152.5 198,-171.5 378,-171.5 378,-152.5 198,-152.5"/>
<text text-anchor="middle" x="288" y="-159.5" font-family="Ubuntu-R" font-size="10.00" fill="#000000">src.smirnoffio.SMIRNOFF.optimize</text>
</a>
</g>
</g>
<!-- Node110&#45;&gt;Node126 -->
<g id="edge18" class="edge">
<title>Node110&#45;&gt;Node126</title>
<path fill="none" stroke="#191970" d="M162.2178,-173.5452C170.603,-172.7756 179.1931,-171.9871 187.7534,-171.2014"/>
<polygon fill="#191970" stroke="#191970" points="188.1367,-174.681 197.7749,-170.2815 187.4968,-167.7103 188.1367,-174.681"/>
</g>
<!-- Node127 -->
<g id="node18" class="node">
<title>Node127</title>
<g id="a_node18"><a xlink:href="classsrc_1_1tinkerio_1_1TINKER.html#a925601bd948f7a34dd0a229da9b16f0a" target="_top" xlink:title="Optimize the geometry and align the optimized geometry to the starting geometry. ">
<polygon fill="#ffffff" stroke="#000000" points="210,-38.5 210,-57.5 366,-57.5 366,-38.5 210,-38.5"/>
<text text-anchor="middle" x="288" y="-45.5" font-family="Ubuntu-R" font-size="10.00" fill="#000000">src.tinkerio.TINKER.optimize</text>
</a>
</g>
</g>
<!-- Node110&#45;&gt;Node127 -->
<g id="edge19" class="edge">
<title>Node110&#45;&gt;Node127</title>
<path fill="none" stroke="#191970" d="M92.9519,-165.8516C112.4154,-142.2186 153.3027,-96.7272 198,-72 206.4016,-67.3521 215.7473,-63.5692 225.1473,-60.5"/>
<polygon fill="#191970" stroke="#191970" points="226.3605,-63.79 234.9255,-57.5537 224.3409,-57.0876 226.3605,-63.79"/>
</g>
<!-- Node128 -->
<g id="node19" class="node">
<title>Node128</title>
<g id="a_node19"><a xlink:href="classsrc_1_1tinkerio_1_1TINKER.html#ace7003bc50f5ccdc1b2b065fb886b457" target="_top" xlink:title="Call TINKER; prepend the tinkerpath to calling the TINKER program. ">
<polygon fill="#ffffff" stroke="#000000" points="589,-76.5 589,-95.5 748,-95.5 748,-76.5 589,-76.5"/>
<text text-anchor="middle" x="668.5" y="-83.5" font-family="Ubuntu-R" font-size="10.00" fill="#000000">src.tinkerio.TINKER.calltinker</text>
</a>
</g>
</g>
<!-- Node110&#45;&gt;Node128 -->
<g id="edge29" class="edge">
<title>Node110&#45;&gt;Node128</title>
<path fill="none" stroke="#191970" d="M99.4451,-165.7562C121.3806,-148.6398 159.8448,-121.7275 198,-110 325.798,-70.7195 482.2247,-71.8176 578.6125,-77.7436"/>
<polygon fill="#191970" stroke="#191970" points="578.4115,-81.2378 588.6162,-78.3893 578.8625,-74.2524 578.4115,-81.2378"/>
</g>
<!-- Node130 -->
<g id="node21" class="node">
<title>Node130</title>
<g id="a_node21"><a xlink:href="namespacesrc_1_1tinkerio.html#a31804fdc4114aacf17a92c48595cbab0" target="_top" xlink:title="Create or edit a TINKER .key file. ">
<polygon fill="#ffffff" stroke="#000000" points="422.5,-164.5 422.5,-183.5 544.5,-183.5 544.5,-164.5 422.5,-164.5"/>
<text text-anchor="middle" x="483.5" y="-171.5" font-family="Ubuntu-R" font-size="10.00" fill="#000000">src.tinkerio.write_key</text>
</a>
</g>
</g>
<!-- Node110&#45;&gt;Node130 -->
<g id="edge24" class="edge">
<title>Node110&#45;&gt;Node130</title>
<path fill="none" stroke="#191970" d="M162.015,-182.4465C221.7384,-183.1607 304.9503,-183.4208 378,-181 389.1389,-180.6309 400.9284,-180.0431 412.4334,-179.3611"/>
<polygon fill="#191970" stroke="#191970" points="412.6827,-182.8525 422.4471,-178.7407 412.2497,-175.8659 412.6827,-182.8525"/>
</g>
<!-- Node114 -->
<g id="node5" class="node">
<title>Node114</title>
<g id="a_node5"><a xlink:href="namespacesrc_1_1gmxio.html#aea51f8e8c67deaad0fccdb8bf633a69c" target="_top" xlink:title="Read, create or edit a Gromacs MDP file. ">
<polygon fill="#ffffff" stroke="#000000" points="427,-202.5 427,-221.5 540,-221.5 540,-202.5 427,-202.5"/>
<text text-anchor="middle" x="483.5" y="-209.5" font-family="Ubuntu-R" font-size="10.00" fill="#000000">src.gmxio.edit_mdp</text>
</a>
</g>
</g>
<!-- Node113&#45;&gt;Node114 -->
<g id="edge4" class="edge">
<title>Node113&#45;&gt;Node114</title>
<path fill="none" stroke="#191970" d="M356.102,-228.943C375.8084,-226.3222 397.2905,-223.4652 416.9038,-220.8568"/>
<polygon fill="#191970" stroke="#191970" points="417.5194,-224.3058 426.9707,-219.518 416.5966,-217.3669 417.5194,-224.3058"/>
</g>
<!-- Node119 -->
<g id="node10" class="node">
<title>Node119</title>
<g id="a_node10"><a xlink:href="classsrc_1_1gmxio_1_1GMX.html#a24343e631722ec863df94641493128a9" target="_top" xlink:title="Call gromacs and allow for certain expected warnings. ">
<polygon fill="#ffffff" stroke="#000000" points="414,-240.5 414,-259.5 553,-259.5 553,-240.5 414,-240.5"/>
<text text-anchor="middle" x="483.5" y="-247.5" font-family="Ubuntu-R" font-size="10.00" fill="#000000">src.gmxio.GMX.warngmx</text>
</a>
</g>
</g>
<!-- Node113&#45;&gt;Node119 -->
<g id="edge9" class="edge">
<title>Node113&#45;&gt;Node119</title>
<path fill="none" stroke="#191970" d="M356.102,-242.1802C371.4693,-243.1234 387.9166,-244.133 403.7153,-245.1027"/>
<polygon fill="#191970" stroke="#191970" points="403.7902,-248.6138 413.9859,-245.7331 404.2191,-241.627 403.7902,-248.6138"/>
</g>
<!-- Node120 -->
<g id="node11" class="node">
<title>Node120</title>
<g id="a_node11"><a xlink:href="classsrc_1_1gmxio_1_1GMX.html#a9cd8a8dde96ee479107dd2933922235d" target="_top" xlink:title="Call GROMACS; prepend the gmxpath to the call to the GROMACS program. ">
<polygon fill="#ffffff" stroke="#000000" points="602.5,-278.5 602.5,-297.5 734.5,-297.5 734.5,-278.5 602.5,-278.5"/>
<text text-anchor="middle" x="668.5" y="-285.5" font-family="Ubuntu-R" font-size="10.00" fill="#000000">src.gmxio.GMX.callgmx</text>
</a>
</g>
</g>
<!-- Node113&#45;&gt;Node120 -->
<g id="edge17" class="edge">
<title>Node113&#45;&gt;Node120</title>
<path fill="none" stroke="#191970" d="M338.2269,-247.549C351.2499,-250.3125 365.2078,-253.5297 378,-257 394.2772,-261.4157 397.4645,-265.6802 414,-269 473.03,-280.8514 541.1008,-285.4745 591.982,-287.2038"/>
<polygon fill="#191970" stroke="#191970" points="592.1413,-290.7103 602.2448,-287.5214 592.3579,-283.7137 592.1413,-290.7103"/>
</g>
<!-- Node115 -->
<g id="node6" class="node">
<title>Node115</title>
<g id="a_node6"><a xlink:href="namespacesrc_1_1nifty.html#a82f89e3045bdeed09a928bb9ce8b0dc1" target="_top" xlink:title="If trying to write to a symbolic link, remove it first. ">
<polygon fill="#ffffff" stroke="#000000" points="623.5,-190.5 623.5,-209.5 713.5,-209.5 713.5,-190.5 623.5,-190.5"/>
<text text-anchor="middle" x="668.5" y="-197.5" font-family="Ubuntu-R" font-size="10.00" fill="#000000">src.nifty.wopen</text>
</a>
</g>
</g>
<!-- Node114&#45;&gt;Node115 -->
<g id="edge5" class="edge">
<title>Node114&#45;&gt;Node115</title>
<path fill="none" stroke="#191970" d="M540.0113,-208.3344C563.3371,-206.8214 590.2801,-205.0737 613.4509,-203.5708"/>
<polygon fill="#191970" stroke="#191970" points="613.7133,-207.0612 623.4657,-202.9211 613.2601,-200.0759 613.7133,-207.0612"/>
</g>
<!-- Node116 -->
<g id="node7" class="node">
<title>Node116</title>
<g id="a_node7"><a xlink:href="namespacesrc_1_1nifty.html#a78476d8a6da41a734762a4e44c339975" target="_top" xlink:title="See documentation for printcool; this is a nice way to print out keys/values in a dictionary...">
<polygon fill="#ffffff" stroke="#000000" points="618,-229 618,-259 719,-259 719,-229 618,-229"/>
<text text-anchor="start" x="626" y="-247" font-family="Ubuntu-R" font-size="10.00" fill="#000000">src.nifty.printcool</text>
<text text-anchor="middle" x="668.5" y="-236" font-family="Ubuntu-R" font-size="10.00" fill="#000000">_dictionary</text>
</a>
</g>
</g>
<!-- Node114&#45;&gt;Node116 -->
<g id="edge6" class="edge">
<title>Node114&#45;&gt;Node116</title>
<path fill="none" stroke="#191970" d="M538.5052,-221.5144C560.3031,-225.2849 585.4449,-229.6337 607.7746,-233.4961"/>
<polygon fill="#191970" stroke="#191970" points="607.3639,-236.977 617.8142,-235.2327 608.5571,-230.0794 607.3639,-236.977"/>
</g>
<!-- Node116&#45;&gt;Node117 -->
<g id="edge7" class="edge">
<title>Node116&#45;&gt;Node117</title>
<path fill="none" stroke="#191970" d="M719.2659,-231.8603C745.2782,-225.64 776.8356,-218.0936 802.7075,-211.9069"/>
<polygon fill="#191970" stroke="#191970" points="803.7719,-215.2511 812.6836,-209.5213 802.1438,-208.4431 803.7719,-215.2511"/>
</g>
<!-- Node118 -->
<g id="node9" class="node">
<title>Node118</title>
<g id="a_node9"><a xlink:href="namespacesrc_1_1nifty.html#a6ae2951ba2a22420a11abda6be7e5454" target="_top" xlink:title="src.nifty.warn_press_key">
<polygon fill="#ffffff" stroke="#000000" points="957,-152.5 957,-171.5 1094,-171.5 1094,-152.5 957,-152.5"/>
<text text-anchor="middle" x="1025.5" y="-159.5" font-family="Ubuntu-R" font-size="10.00" fill="#000000">src.nifty.warn_press_key</text>
</a>
</g>
</g>
<!-- Node117&#45;&gt;Node118 -->
<g id="edge8" class="edge">
<title>Node117&#45;&gt;Node118</title>
<path fill="none" stroke="#191970" d="M896.1552,-190.411C919.2929,-185.3287 947.9024,-179.0446 972.3268,-173.6797"/>
<polygon fill="#191970" stroke="#191970" points="973.1425,-177.084 982.1587,-171.5201 971.6406,-170.247 973.1425,-177.084"/>
</g>
<!-- Node119&#45;&gt;Node120 -->
<g id="edge10" class="edge">
<title>Node119&#45;&gt;Node120</title>
<path fill="none" stroke="#191970" d="M530.1833,-259.589C555.1459,-264.7165 586.0642,-271.0672 612.334,-276.4632"/>
<polygon fill="#191970" stroke="#191970" points="611.6526,-279.8962 622.1524,-278.4799 613.0611,-273.0394 611.6526,-279.8962"/>
</g>
<!-- Node121 -->
<g id="node12" class="node">
<title>Node121</title>
<g id="a_node12"><a xlink:href="namespacesrc_1_1gmxio.html#a7430b70092fa07b4cad7d894a6ade4f9" target="_top" xlink:title="src.gmxio.rm_gmx_baks">
<polygon fill="#ffffff" stroke="#000000" points="784,-240.5 784,-259.5 921,-259.5 921,-240.5 784,-240.5"/>
<text text-anchor="middle" x="852.5" y="-247.5" font-family="Ubuntu-R" font-size="10.00" fill="#000000">src.gmxio.rm_gmx_baks</text>
</a>
</g>
</g>
<!-- Node120&#45;&gt;Node121 -->
<g id="edge11" class="edge">
<title>Node120&#45;&gt;Node121</title>
<path fill="none" stroke="#191970" d="M714.931,-278.411C739.6493,-273.3061 770.239,-266.9887 796.292,-261.6082"/>
<polygon fill="#191970" stroke="#191970" points="797.3175,-264.9703 806.4029,-259.5201 795.9017,-258.115 797.3175,-264.9703"/>
</g>
<!-- Node122 -->
<g id="node13" class="node">
<title>Node122</title>
<g id="a_node13"><a xlink:href="classsrc_1_1gmxio_1_1GMX.html#a3f0267ba817464cc778e6fe4a50e8440" target="_top" xlink:title="src.gmxio.GMX.links">
<polygon fill="#ffffff" stroke="#000000" points="794.5,-278.5 794.5,-297.5 910.5,-297.5 910.5,-278.5 794.5,-278.5"/>
<text text-anchor="middle" x="852.5" y="-285.5" font-family="Ubuntu-R" font-size="10.00" fill="#000000">src.gmxio.GMX.links</text>
</a>
</g>
</g>
<!-- Node120&#45;&gt;Node122 -->
<g id="edge12" class="edge">
<title>Node120&#45;&gt;Node122</title>
<path fill="none" stroke="#191970" d="M734.6683,-288C750.6418,-288 767.746,-288 783.8313,-288"/>
<polygon fill="#191970" stroke="#191970" points="784.2324,-291.5001 794.2324,-288 784.2324,-284.5001 784.2324,-291.5001"/>
</g>
<!-- Node123 -->
<g id="node14" class="node">
<title>Node123</title>
<g id="a_node14"><a xlink:href="namespacesrc_1_1nifty.html#aa751e61b12e5549898f8e1b03c3cb74b" target="_top" xlink:title="src.nifty.onefile">
<polygon fill="#ffffff" stroke="#000000" points="980,-278.5 980,-297.5 1071,-297.5 1071,-278.5 980,-278.5"/>
<text text-anchor="middle" x="1025.5" y="-285.5" font-family="Ubuntu-R" font-size="10.00" fill="#000000">src.nifty.onefile</text>
</a>
</g>
</g>
<!-- Node122&#45;&gt;Node123 -->
<g id="edge13" class="edge">
<title>Node122&#45;&gt;Node123</title>
<path fill="none" stroke="#191970" d="M910.5878,-288C929.6371,-288 950.7545,-288 969.6356,-288"/>
<polygon fill="#191970" stroke="#191970" points="969.8678,-291.5001 979.8678,-288 969.8677,-284.5001 969.8678,-291.5001"/>
</g>
<!-- Node124 -->
<g id="node15" class="node">
<title>Node124</title>
<g id="a_node15"><a xlink:href="namespacesrc_1_1nifty.html#a7fd3a0edb0212c320360d7685227b0f5" target="_top" xlink:title="src.nifty.LinkFile">
<polygon fill="#ffffff" stroke="#000000" points="978,-215.5 978,-234.5 1073,-234.5 1073,-215.5 978,-215.5"/>
<text text-anchor="middle" x="1025.5" y="-222.5" font-family="Ubuntu-R" font-size="10.00" fill="#000000">src.nifty.LinkFile</text>
</a>
</g>
</g>
<!-- Node122&#45;&gt;Node124 -->
<g id="edge15" class="edge">
<title>Node122&#45;&gt;Node124</title>
<path fill="none" stroke="#191970" d="M890.4538,-278.4041C900.4669,-275.6195 911.208,-272.4038 921,-269 946.6824,-260.0725 975.0724,-247.9696 995.7717,-238.7168"/>
<polygon fill="#191970" stroke="#191970" points="997.3107,-241.8623 1004.9862,-234.5591 994.4316,-235.4817 997.3107,-241.8623"/>
</g>
<!-- Node123&#45;&gt;Node111 -->
<g id="edge14" class="edge">
<title>Node123&#45;&gt;Node111</title>
<path fill="none" stroke="#191970" d="M1071.2303,-292.6966C1093.6125,-294.9953 1120.9524,-297.8032 1145.4631,-300.3205"/>
<polygon fill="#191970" stroke="#191970" points="1145.1074,-303.8023 1155.4127,-301.3424 1145.8226,-296.839 1145.1074,-303.8023"/>
</g>
<!-- Node125 -->
<g id="node16" class="node">
<title>Node125</title>
<g id="a_node16"><a xlink:href="namespacesrc_1_1nifty.html#a39a23ca3b83aadd4bfdf3eee9abb3257" target="_top" xlink:title="src.nifty.MissingFileInspection">
<polygon fill="#ffffff" stroke="#000000" points="1130,-215.5 1130,-234.5 1291,-234.5 1291,-215.5 1130,-215.5"/>
<text text-anchor="middle" x="1210.5" y="-222.5" font-family="Ubuntu-R" font-size="10.00" fill="#000000">src.nifty.MissingFileInspection</text>
</a>
</g>
</g>
<!-- Node124&#45;&gt;Node125 -->
<g id="edge16" class="edge">
<title>Node124&#45;&gt;Node125</title>
<path fill="none" stroke="#191970" d="M1073.1421,-225C1087.2814,-225 1103.2658,-225 1119.2026,-225"/>
<polygon fill="#191970" stroke="#191970" points="1119.6486,-228.5001 1129.6486,-225 1119.6485,-221.5001 1119.6486,-228.5001"/>
</g>
<!-- Node127&#45;&gt;Node128 -->
<g id="edge20" class="edge">
<title>Node127&#45;&gt;Node128</title>
<path fill="none" stroke="#191970" d="M366.0405,-54.4422C418.8563,-58.9558 490.1791,-65.3495 553,-72 562.6416,-73.0207 572.7281,-74.1508 582.7538,-75.3135"/>
<polygon fill="#191970" stroke="#191970" points="582.4009,-78.796 592.7404,-76.4841 583.2159,-71.8436 582.4009,-78.796"/>
</g>
<!-- Node129 -->
<g id="node20" class="node">
<title>Node129</title>
<g id="a_node20"><a xlink:href="namespacesrc_1_1molecule.html#a651f6c6d23932f5a2151784c992e94a8" target="_top" xlink:title="ONLY matches integers! If you have a decimal point? None shall pass! ">
<polygon fill="#ffffff" stroke="#000000" points="432,-.5 432,-19.5 535,-19.5 535,-.5 432,-.5"/>
<text text-anchor="middle" x="483.5" y="-7.5" font-family="Ubuntu-R" font-size="10.00" fill="#000000">src.molecule.isint</text>
</a>
</g>
</g>
<!-- Node127&#45;&gt;Node129 -->
<g id="edge23" class="edge">
<title>Node127&#45;&gt;Node129</title>
<path fill="none" stroke="#191970" d="M337.0806,-38.46C363.5741,-33.3104 396.4717,-26.916 424.3688,-21.4935"/>
<polygon fill="#191970" stroke="#191970" points="425.2508,-24.8877 434.3992,-19.5439 423.9151,-18.0163 425.2508,-24.8877"/>
</g>
<!-- Node128&#45;&gt;Node118 -->
<g id="edge22" class="edge">
<title>Node128&#45;&gt;Node118</title>
<path fill="none" stroke="#191970" d="M748.0727,-86.1459C798.4856,-88.0422 864.581,-93.8834 921,-110 950.401,-118.3987 981.4477,-134.9621 1001.9858,-147.1476"/>
<polygon fill="#191970" stroke="#191970" points="1000.2733,-150.2024 1010.6391,-152.3933 1003.902,-144.2163 1000.2733,-150.2024"/>
</g>
<!-- Node128&#45;&gt;Node124 -->
<g id="edge21" class="edge">
<title>Node128&#45;&gt;Node124</title>
<path fill="none" stroke="#191970" d="M702.7787,-95.5637C716.8856,-99.7022 733.3275,-104.7881 748,-110 839.4501,-142.4847 944.5828,-188.5102 995.181,-211.2243"/>
<polygon fill="#191970" stroke="#191970" points="993.9981,-214.5301 1004.5533,-215.4454 996.8727,-208.1476 993.9981,-214.5301"/>
</g>
<!-- Node130&#45;&gt;Node115 -->
<g id="edge26" class="edge">
<title>Node130&#45;&gt;Node115</title>
<path fill="none" stroke="#191970" d="M544.5886,-182.5854C566.7579,-185.7011 591.6587,-189.2007 613.2912,-192.2409"/>
<polygon fill="#191970" stroke="#191970" points="612.9096,-195.7216 623.2994,-193.6475 613.8838,-188.7897 612.9096,-195.7216"/>
</g>
<!-- Node130&#45;&gt;Node116 -->
<g id="edge27" class="edge">
<title>Node130&#45;&gt;Node116</title>
<path fill="none" stroke="#191970" d="M527.7432,-183.5313C536.3255,-186.0889 545.1011,-189.2216 553,-193 570.8044,-201.5166 571.3598,-210.1483 589,-219 595.0819,-222.0519 601.6124,-224.8262 608.2214,-227.3219"/>
<polygon fill="#191970" stroke="#191970" points="607.3226,-230.7172 617.9173,-230.7789 609.6735,-224.1238 607.3226,-230.7172"/>
</g>
<!-- Node130&#45;&gt;Node118 -->
<g id="edge25" class="edge">
<title>Node130&#45;&gt;Node118</title>
<path fill="none" stroke="#191970" d="M544.6207,-172.6468C643.3175,-170.4616 837.7104,-166.1577 946.6852,-163.745"/>
<polygon fill="#191970" stroke="#191970" points="947.0383,-167.2381 956.9584,-163.5175 946.8833,-160.2398 947.0383,-167.2381"/>
</g>
</g>
</svg>
