<?xml version="1.0" encoding="UTF-8" standalone="no"?>
<!DOCTYPE svg PUBLIC "-//W3C//DTD SVG 1.1//EN"
 "http://www.w3.org/Graphics/SVG/1.1/DTD/svg11.dtd">
<!-- Generated by graphviz version 2.28.0 (20111219.2309)
 -->
<!-- Title: G Pages: 1 -->
<svg width="2194pt" height="180pt"
 viewBox="0.00 0.00 2194.00 180.00" xmlns="http://www.w3.org/2000/svg" xmlns:xlink="http://www.w3.org/1999/xlink">
<g id="graph1" class="graph" transform="scale(1 1) rotate(0) translate(4 176)">
<title>G</title>
<polygon fill="white" stroke="white" points="-4,5 -4,-176 2191,-176 2191,5 -4,5"/>
<!-- Node1 -->
<g id="node1" class="node"><title>Node1</title>
<polygon fill="#bfbfbf" stroke="black" points="0.5,-76.5 0.5,-95.5 237.5,-95.5 237.5,-76.5 0.5,-76.5"/>
<text text-anchor="middle" x="119" y="-83.5" font-family="Ubuntu-R" font-size="10.00">forcebalance.objective.Objective.Target_Terms</text>
</g>
<!-- Node2 -->
<g id="node3" class="node"><title>Node2</title>
<a xlink:href="namespaceforcebalance_1_1finite__difference.html#ad84d3e385db1190e7d8ef58bc08a6c52" target="_top" xlink:title="Invoking this function from anywhere will tell us whether we&#39;re being called by a finite&#45;difference f...">
<polygon fill="white" stroke="black" points="764,-152.5 764,-171.5 946,-171.5 946,-152.5 764,-152.5"/>
<text text-anchor="middle" x="855" y="-159.5" font-family="Ubuntu-R" font-size="10.00">forcebalance.finite_difference.in_fd</text>
</a>
</g>
<!-- Node1&#45;&gt;Node2 -->
<g id="edge2" class="edge"><title>Node1&#45;&gt;Node2</title>
<path fill="none" stroke="midnightblue" d="M139.824,-95.7032C168.584,-109.226 223.923,-133.181 274,-143 439.547,-175.46 636.671,-173.585 753.238,-168.405"/>
<polygon fill="midnightblue" stroke="midnightblue" points="753.741,-171.885 763.569,-167.927 753.418,-164.893 753.741,-171.885"/>
</g>
<!-- Node3 -->
<g id="node5" class="node"><title>Node3</title>
<a xlink:href="namespaceforcebalance_1_1nifty.html#ac37d4fe58ef70ed546ebfc45d12f7a5d" target="_top" xlink:title="forcebalance.nifty.getWorkQueue">
<polygon fill="white" stroke="black" points="293.5,-114.5 293.5,-133.5 466.5,-133.5 466.5,-114.5 293.5,-114.5"/>
<text text-anchor="middle" x="380" y="-121.5" font-family="Ubuntu-R" font-size="10.00">forcebalance.nifty.getWorkQueue</text>
</a>
</g>
<!-- Node1&#45;&gt;Node3 -->
<g id="edge4" class="edge"><title>Node1&#45;&gt;Node3</title>
<path fill="none" stroke="midnightblue" d="M185.022,-95.54C221.199,-100.848 266.388,-107.478 304.047,-113.003"/>
<polygon fill="midnightblue" stroke="midnightblue" points="303.549,-116.467 313.951,-114.456 304.565,-109.541 303.549,-116.467"/>
</g>
<!-- Node4 -->
<g id="node7" class="node"><title>Node4</title>
<a xlink:href="namespaceforcebalance_1_1nifty.html#a576de8c5b6f236280e07e73e39b2ab7c" target="_top" xlink:title="This function waits until the work queue is completely empty.">
<polygon fill="white" stroke="black" points="310,-29.5 310,-48.5 450,-48.5 450,-29.5 310,-29.5"/>
<text text-anchor="middle" x="380" y="-36.5" font-family="Ubuntu-R" font-size="10.00">forcebalance.nifty.wq_wait</text>
</a>
</g>
<!-- Node1&#45;&gt;Node4 -->
<g id="edge6" class="edge"><title>Node1&#45;&gt;Node4</title>
<path fill="none" stroke="midnightblue" d="M172.413,-76.4888C213.963,-68.9487 272.161,-58.3877 316.202,-50.3957"/>
<polygon fill="midnightblue" stroke="midnightblue" points="317.007,-53.8069 326.222,-48.5776 315.757,-46.9194 317.007,-53.8069"/>
</g>
<!-- Node8 -->
<g id="node15" class="node"><title>Node8</title>
<a xlink:href="classforcebalance_1_1objective_1_1Objective.html#a184305cae26dd9be2351297340481ca5" target="_top" xlink:title="Print objective function contributions.">
<polygon fill="white" stroke="black" points="274,-76.5 274,-95.5 486,-95.5 486,-76.5 274,-76.5"/>
<text text-anchor="middle" x="380" y="-83.5" font-family="Ubuntu-R" font-size="10.00">forcebalance.objective.Objective.Indicate</text>
</a>
</g>
<!-- Node1&#45;&gt;Node8 -->
<g id="edge14" class="edge"><title>Node1&#45;&gt;Node8</title>
<path fill="none" stroke="midnightblue" d="M237.753,-79.2747C246.397,-79.2382 255.112,-79.2421 263.741,-79.2864"/>
<polygon fill="midnightblue" stroke="midnightblue" points="263.798,-82.7868 273.823,-79.357 263.847,-75.787 263.798,-82.7868"/>
</g>
<!-- Node5 -->
<g id="node9" class="node"><title>Node5</title>
<a xlink:href="namespaceforcebalance_1_1nifty.html#ac9ab6c5543a2e3080061e0024850edf3" target="_top" xlink:title="forcebalance.nifty.allsplit">
<polygon fill="white" stroke="black" points="553.5,-24.5 553.5,-43.5 686.5,-43.5 686.5,-24.5 553.5,-24.5"/>
<text text-anchor="middle" x="620" y="-31.5" font-family="Ubuntu-R" font-size="10.00">forcebalance.nifty.allsplit</text>
</a>
</g>
<!-- Node4&#45;&gt;Node5 -->
<g id="edge8" class="edge"><title>Node4&#45;&gt;Node5</title>
<path fill="none" stroke="midnightblue" d="M450.159,-37.5471C479.256,-36.9358 513.205,-36.2226 542.999,-35.5967"/>
<polygon fill="midnightblue" stroke="midnightblue" points="543.425,-39.0886 553.35,-35.3792 543.278,-32.0901 543.425,-39.0886"/>
</g>
<!-- Node6 -->
<g id="node11" class="node"><title>Node6</title>
<a xlink:href="namespaceforcebalance_1_1nifty.html#ae87c7def5f8edf2ec30737bdb1d2636f" target="_top" xlink:title="forcebalance.nifty.MissingFileInspection">
<polygon fill="white" stroke="black" points="754,-19.5 754,-38.5 956,-38.5 956,-19.5 754,-19.5"/>
<text text-anchor="middle" x="855" y="-26.5" font-family="Ubuntu-R" font-size="10.00">forcebalance.nifty.MissingFileInspection</text>
</a>
</g>
<!-- Node5&#45;&gt;Node6 -->
<g id="edge10" class="edge"><title>Node5&#45;&gt;Node6</title>
<path fill="none" stroke="midnightblue" d="M686.524,-32.5939C704.29,-32.2127 724.026,-31.7891 743.536,-31.3705"/>
<polygon fill="midnightblue" stroke="midnightblue" points="743.784,-34.8661 753.707,-31.1522 743.634,-27.8677 743.784,-34.8661"/>
</g>
<!-- Node7 -->
<g id="node13" class="node"><title>Node7</title>
<a xlink:href="namespaceforcebalance_1_1nifty.html#a0cf4e58f90acf20e3d6224be2354082c" target="_top" xlink:title="forcebalance.nifty.link_dir_contents">
<polygon fill="white" stroke="black" points="992.5,-0.5 992.5,-19.5 1175.5,-19.5 1175.5,-0.5 992.5,-0.5"/>
<text text-anchor="middle" x="1084" y="-7.5" font-family="Ubuntu-R" font-size="10.00">forcebalance.nifty.link_dir_contents</text>
</a>
</g>
<!-- Node6&#45;&gt;Node7 -->
<g id="edge12" class="edge"><title>Node6&#45;&gt;Node7</title>
<path fill="none" stroke="midnightblue" d="M956.226,-20.611C964.848,-19.8894 973.574,-19.159 982.2,-18.437"/>
<polygon fill="midnightblue" stroke="midnightblue" points="982.596,-21.9162 992.269,-17.5942 982.012,-14.9406 982.596,-21.9162"/>
</g>
<!-- Node8&#45;&gt;Node1 -->
<g id="edge58" class="edge"><title>Node8&#45;&gt;Node1</title>
<path fill="none" stroke="midnightblue" d="M273.823,-92.643C265.284,-92.7189 256.599,-92.7544 247.924,-92.7496"/>
<polygon fill="midnightblue" stroke="midnightblue" points="247.762,-89.2493 237.753,-92.7253 247.745,-96.2492 247.762,-89.2493"/>
</g>
<!-- Node9 -->
<g id="node17" class="node"><title>Node9</title>
<a xlink:href="namespaceforcebalance_1_1nifty.html#a51180e960742cc7547749fdfb3513ec4" target="_top" xlink:title="See documentation for printcool; this is a nice way to print out keys/values in a dictionary...">
<polygon fill="white" stroke="black" points="522,-76.5 522,-95.5 718,-95.5 718,-76.5 522,-76.5"/>
<text text-anchor="middle" x="620" y="-83.5" font-family="Ubuntu-R" font-size="10.00">forcebalance.nifty.printcool_dictionary</text>
</a>
</g>
<!-- Node8&#45;&gt;Node9 -->
<g id="edge16" class="edge"><title>Node8&#45;&gt;Node9</title>
<path fill="none" stroke="midnightblue" d="M486.083,-86C494.493,-86 502.998,-86 511.425,-86"/>
<polygon fill="midnightblue" stroke="midnightblue" points="511.655,-89.5001 521.654,-86 511.654,-82.5001 511.655,-89.5001"/>
</g>
<!-- Node23 -->
<g id="node49" class="node"><title>Node23</title>
<a xlink:href="classforcebalance_1_1objective_1_1Objective.html#a3996f95feb58197088775fe439ec697b" target="_top" xlink:title="forcebalance.objective.Objective.Full">
<polygon fill="white" stroke="black" points="525.5,-114.5 525.5,-133.5 714.5,-133.5 714.5,-114.5 525.5,-114.5"/>
<text text-anchor="middle" x="620" y="-121.5" font-family="Ubuntu-R" font-size="10.00">forcebalance.objective.Objective.Full</text>
</a>
</g>
<!-- Node8&#45;&gt;Node23 -->
<g id="edge52" class="edge"><title>Node8&#45;&gt;Node23</title>
<path fill="none" stroke="midnightblue" d="M482.624,-95.54C516.531,-100.701 552.362,-106.914 578.784,-112.369"/>
<polygon fill="midnightblue" stroke="midnightblue" points="578.272,-115.839 588.782,-114.497 579.73,-108.992 578.272,-115.839"/>
</g>
<!-- Node10 -->
<g id="node19" class="node"><title>Node10</title>
<a xlink:href="namespaceforcebalance_1_1nifty.html#a3f1c7a1af9d35d5d1693074bc6f5497c" target="_top" xlink:title="ONLY matches integers! If you have a decimal point? None shall pass!">
<polygon fill="white" stroke="black" points="794,-76.5 794,-95.5 916,-95.5 916,-76.5 794,-76.5"/>
<text text-anchor="middle" x="855" y="-83.5" font-family="Ubuntu-R" font-size="10.00">forcebalance.nifty.isint</text>
</a>
</g>
<!-- Node9&#45;&gt;Node10 -->
<g id="edge18" class="edge"><title>Node9&#45;&gt;Node10</title>
<path fill="none" stroke="midnightblue" d="M718.126,-86C740.131,-86 763.085,-86 783.728,-86"/>
<polygon fill="midnightblue" stroke="midnightblue" points="783.977,-89.5001 793.977,-86 783.977,-82.5001 783.977,-89.5001"/>
</g>
<!-- Node12 -->
<g id="node23" class="node"><title>Node12</title>
<a xlink:href="namespaceforcebalance_1_1nifty.html#a8e3ef0108b9d37b82ba0dced7c6037ae" target="_top" xlink:title="Matches ANY number; it can be a decimal, scientific notation, what have you CAUTION &#45; this will also ...">
<polygon fill="white" stroke="black" points="1212.5,-76.5 1212.5,-95.5 1343.5,-95.5 1343.5,-76.5 1212.5,-76.5"/>
<text text-anchor="middle" x="1278" y="-83.5" font-family="Ubuntu-R" font-size="10.00">forcebalance.nifty.isfloat</text>
</a>
</g>
<!-- Node9&#45;&gt;Node12 -->
<g id="edge50" class="edge"><title>Node9&#45;&gt;Node12</title>
<path fill="none" stroke="midnightblue" d="M675.169,-95.5141C699.228,-99.2799 727.942,-103.148 754,-105 941.097,-118.297 989.035,-115.032 1176,-100 1185.93,-99.202 1196.37,-98.0787 1206.61,-96.8117"/>
<polygon fill="midnightblue" stroke="midnightblue" points="1207.3,-100.252 1216.77,-95.5035 1206.41,-93.3094 1207.3,-100.252"/>
</g>
<!-- Node11 -->
<g id="node21" class="node"><title>Node11</title>
<a xlink:href="namespaceforcebalance_1_1nifty.html#a09263927eaec9deff283fbf1a820242f" target="_top" xlink:title="Matches things with a decimal only; see isint and isfloat.">
<polygon fill="white" stroke="black" points="1010,-38.5 1010,-57.5 1158,-57.5 1158,-38.5 1010,-38.5"/>
<text text-anchor="middle" x="1084" y="-45.5" font-family="Ubuntu-R" font-size="10.00">forcebalance.nifty.isdecimal</text>
</a>
</g>
<!-- Node10&#45;&gt;Node11 -->
<g id="edge20" class="edge"><title>Node10&#45;&gt;Node11</title>
<path fill="none" stroke="midnightblue" d="M912.989,-76.46C944.291,-71.2201 983.292,-64.6912 1016.04,-59.2091"/>
<polygon fill="midnightblue" stroke="midnightblue" points="1016.7,-62.647 1025.99,-57.5439 1015.55,-55.743 1016.7,-62.647"/>
</g>
<!-- Node11&#45;&gt;Node12 -->
<g id="edge22" class="edge"><title>Node11&#45;&gt;Node12</title>
<path fill="none" stroke="midnightblue" d="M1133.45,-57.589C1159.47,-62.739 1191.73,-69.1232 1219.07,-74.5344"/>
<polygon fill="midnightblue" stroke="midnightblue" points="1218.41,-77.9718 1228.9,-76.4799 1219.77,-71.105 1218.41,-77.9718"/>
</g>
<!-- Node16 -->
<g id="node32" class="node"><title>Node16</title>
<a xlink:href="namespaceforcebalance_1_1nifty.html#afb3f205bce4984856e766af7e9fdaca8" target="_top" xlink:title="Given any list, array, or matrix, return a 1&#45;column matrix.">
<polygon fill="white" stroke="black" points="1220,-38.5 1220,-57.5 1336,-57.5 1336,-38.5 1220,-38.5"/>
<text text-anchor="middle" x="1278" y="-45.5" font-family="Ubuntu-R" font-size="10.00">forcebalance.nifty.col</text>
</a>
</g>
<!-- Node11&#45;&gt;Node16 -->
<g id="edge32" class="edge"><title>Node11&#45;&gt;Node16</title>
<path fill="none" stroke="midnightblue" d="M1158.13,-48C1175.07,-48 1193.02,-48 1209.69,-48"/>
<polygon fill="midnightblue" stroke="midnightblue" points="1209.89,-51.5001 1219.89,-48 1209.89,-44.5001 1209.89,-51.5001"/>
</g>
<!-- Node12&#45;&gt;Node10 -->
<g id="edge24" class="edge"><title>Node12&#45;&gt;Node10</title>
<path fill="none" stroke="midnightblue" d="M1212.3,-86C1135.12,-86 1006.52,-86 926.759,-86"/>
<polygon fill="midnightblue" stroke="midnightblue" points="926.319,-82.5001 916.319,-86 926.319,-89.5001 926.319,-82.5001"/>
</g>
<!-- Node13 -->
<g id="node26" class="node"><title>Node13</title>
<a xlink:href="namespaceforcebalance_1_1nifty.html#a8d63c8ae9a67c66673a6cf81357f827d" target="_top" xlink:title="Returns a big number if we encounter NaN.">
<polygon fill="white" stroke="black" points="1380,-76.5 1380,-95.5 1532,-95.5 1532,-76.5 1380,-76.5"/>
<text text-anchor="middle" x="1456" y="-83.5" font-family="Ubuntu-R" font-size="10.00">forcebalance.nifty.floatornan</text>
</a>
</g>
<!-- Node12&#45;&gt;Node13 -->
<g id="edge26" class="edge"><title>Node12&#45;&gt;Node13</title>
<path fill="none" stroke="midnightblue" d="M1343.54,-86C1352,-86 1360.77,-86 1369.51,-86"/>
<polygon fill="midnightblue" stroke="midnightblue" points="1369.74,-89.5001 1379.74,-86 1369.74,-82.5001 1369.74,-89.5001"/>
</g>
<!-- Node14 -->
<g id="node28" class="node"><title>Node14</title>
<a xlink:href="namespaceforcebalance_1_1nifty.html#a6c9727360cdff8f3011a12cc54d0e86e" target="_top" xlink:title="Given any list, array, or matrix, return a 1&#45;row matrix.">
<polygon fill="white" stroke="black" points="1584.5,-76.5 1584.5,-95.5 1703.5,-95.5 1703.5,-76.5 1584.5,-76.5"/>
<text text-anchor="middle" x="1644" y="-83.5" font-family="Ubuntu-R" font-size="10.00">forcebalance.nifty.row</text>
</a>
</g>
<!-- Node13&#45;&gt;Node14 -->
<g id="edge28" class="edge"><title>Node13&#45;&gt;Node14</title>
<path fill="none" stroke="midnightblue" d="M1532.12,-86C1546.02,-86 1560.47,-86 1574.17,-86"/>
<polygon fill="midnightblue" stroke="midnightblue" points="1574.48,-89.5001 1584.48,-86 1574.48,-82.5001 1574.48,-89.5001"/>
</g>
<!-- Node15 -->
<g id="node30" class="node"><title>Node15</title>
<a xlink:href="namespaceforcebalance_1_1nifty.html#a7676236002c6a65ea7d2e69a09923889" target="_top" xlink:title="Given two vectors vec1 and vec2, project out the component of vec1 that is along the vec2&#45;direction...">
<polygon fill="white" stroke="black" points="1768,-76.5 1768,-95.5 1936,-95.5 1936,-76.5 1768,-76.5"/>
<text text-anchor="middle" x="1852" y="-83.5" font-family="Ubuntu-R" font-size="10.00">forcebalance.nifty.orthogonalize</text>
</a>
</g>
<!-- Node14&#45;&gt;Node15 -->
<g id="edge30" class="edge"><title>Node14&#45;&gt;Node15</title>
<path fill="none" stroke="midnightblue" d="M1703.76,-86C1720.61,-86 1739.42,-86 1757.81,-86"/>
<polygon fill="midnightblue" stroke="midnightblue" points="1757.97,-89.5001 1767.97,-86 1757.97,-82.5001 1757.97,-89.5001"/>
</g>
<!-- Node17 -->
<g id="node34" class="node"><title>Node17</title>
<a xlink:href="namespaceforcebalance_1_1nifty.html#a52114ceee9d55f94d9aecb3e176de294" target="_top" xlink:title="Given any list, array, or matrix, return a single&#45;index array.">
<polygon fill="white" stroke="black" points="1397,-38.5 1397,-57.5 1515,-57.5 1515,-38.5 1397,-38.5"/>
<text text-anchor="middle" x="1456" y="-45.5" font-family="Ubuntu-R" font-size="10.00">forcebalance.nifty.flat</text>
</a>
</g>
<!-- Node16&#45;&gt;Node17 -->
<g id="edge34" class="edge"><title>Node16&#45;&gt;Node17</title>
<path fill="none" stroke="midnightblue" d="M1336.14,-48C1352.27,-48 1369.98,-48 1386.69,-48"/>
<polygon fill="midnightblue" stroke="midnightblue" points="1386.94,-51.5001 1396.94,-48 1386.94,-44.5001 1386.94,-51.5001"/>
</g>
<!-- Node18 -->
<g id="node36" class="node"><title>Node18</title>
<a xlink:href="namespaceforcebalance_1_1nifty.html#a4c82187e92dfeb8a159f4aa44b501c40" target="_top" xlink:title="Invert a matrix using singular value decomposition.">
<polygon fill="white" stroke="black" points="1568,-0.5 1568,-19.5 1720,-19.5 1720,-0.5 1568,-0.5"/>
<text text-anchor="middle" x="1644" y="-7.5" font-family="Ubuntu-R" font-size="10.00">forcebalance.nifty.invert_svd</text>
</a>
</g>
<!-- Node17&#45;&gt;Node18 -->
<g id="edge36" class="edge"><title>Node17&#45;&gt;Node18</title>
<path fill="none" stroke="midnightblue" d="M1503.94,-38.411C1529.03,-33.2835 1560.12,-26.9328 1586.53,-21.5368"/>
<polygon fill="midnightblue" stroke="midnightblue" points="1587.3,-24.951 1596.4,-19.5201 1585.9,-18.0926 1587.3,-24.951"/>
</g>
<!-- Node18&#45;&gt;Node16 -->
<g id="edge44" class="edge"><title>Node18&#45;&gt;Node16</title>
<path fill="none" stroke="midnightblue" d="M1567.95,-13.1476C1515.22,-15.9143 1443.1,-20.8122 1380,-29 1364.9,-30.9586 1348.65,-33.7219 1333.69,-36.536"/>
<polygon fill="midnightblue" stroke="midnightblue" points="1332.73,-33.1568 1323.57,-38.4831 1334.05,-40.0308 1332.73,-33.1568"/>
</g>
<!-- Node19 -->
<g id="node38" class="node"><title>Node19</title>
<a xlink:href="namespaceforcebalance_1_1nifty.html#aa9fb9c7c65231eca50a7afc04f489b64" target="_top" xlink:title="forcebalance.nifty.get_least_squares">
<polygon fill="white" stroke="black" points="1756.5,-38.5 1756.5,-57.5 1947.5,-57.5 1947.5,-38.5 1756.5,-38.5"/>
<text text-anchor="middle" x="1852" y="-45.5" font-family="Ubuntu-R" font-size="10.00">forcebalance.nifty.get_least_squares</text>
</a>
</g>
<!-- Node18&#45;&gt;Node19 -->
<g id="edge38" class="edge"><title>Node18&#45;&gt;Node19</title>
<path fill="none" stroke="midnightblue" d="M1696.72,-19.54C1724.76,-24.7122 1759.6,-31.1401 1789.08,-36.5778"/>
<polygon fill="midnightblue" stroke="midnightblue" points="1788.79,-40.0839 1799.26,-38.4561 1790.06,-33.2001 1788.79,-40.0839"/>
</g>
<!-- Node21 -->
<g id="node44" class="node"><title>Node21</title>
<a xlink:href="namespaceforcebalance_1_1nifty.html#abb8f59044961a12588e0653c2baa8b01" target="_top" xlink:title="forcebalance.nifty.warn_press_key">
<polygon fill="white" stroke="black" points="1762.5,-0.5 1762.5,-19.5 1941.5,-19.5 1941.5,-0.5 1762.5,-0.5"/>
<text text-anchor="middle" x="1852" y="-7.5" font-family="Ubuntu-R" font-size="10.00">forcebalance.nifty.warn_press_key</text>
</a>
</g>
<!-- Node18&#45;&gt;Node21 -->
<g id="edge46" class="edge"><title>Node18&#45;&gt;Node21</title>
<path fill="none" stroke="midnightblue" d="M1720.25,-10C1730.61,-10 1741.38,-10 1752.09,-10"/>
<polygon fill="midnightblue" stroke="midnightblue" points="1752.33,-13.5001 1762.33,-10 1752.33,-6.5001 1752.33,-13.5001"/>
</g>
<!-- Node19&#45;&gt;Node17 -->
<g id="edge40" class="edge"><title>Node19&#45;&gt;Node17</title>
<path fill="none" stroke="midnightblue" d="M1756.32,-48C1685.16,-48 1589.35,-48 1525.49,-48"/>
<polygon fill="midnightblue" stroke="midnightblue" points="1525.14,-44.5001 1515.14,-48 1525.14,-51.5001 1525.14,-44.5001"/>
</g>
<!-- Node20 -->
<g id="node41" class="node"><title>Node20</title>
<a xlink:href="namespaceforcebalance_1_1nifty.html#ad5ca60565c864b4245a8212fe9d92e10" target="_top" xlink:title="Compute the (cross) statistical inefficiency of (two) timeseries.">
<polygon fill="white" stroke="black" points="1984.5,-38.5 1984.5,-57.5 2185.5,-57.5 2185.5,-38.5 1984.5,-38.5"/>
<text text-anchor="middle" x="2085" y="-45.5" font-family="Ubuntu-R" font-size="10.00">forcebalance.nifty.statisticalInefficiency</text>
</a>
</g>
<!-- Node19&#45;&gt;Node20 -->
<g id="edge42" class="edge"><title>Node19&#45;&gt;Node20</title>
<path fill="none" stroke="midnightblue" d="M1947.62,-48C1956.4,-48 1965.35,-48 1974.25,-48"/>
<polygon fill="midnightblue" stroke="midnightblue" points="1974.27,-51.5001 1984.27,-48 1974.27,-44.5001 1974.27,-51.5001"/>
</g>
<!-- Node22 -->
<g id="node46" class="node"><title>Node22</title>
<a xlink:href="namespaceforcebalance_1_1nifty.html#a2fc81730e7efa7d138dd86f733507bfc" target="_top" xlink:title="Similar to the bultin function map().">
<polygon fill="white" stroke="black" points="1994,-0.5 1994,-19.5 2176,-19.5 2176,-0.5 1994,-0.5"/>
<text text-anchor="middle" x="2085" y="-7.5" font-family="Ubuntu-R" font-size="10.00">forcebalance.nifty.concurrent_map</text>
</a>
</g>
<!-- Node21&#45;&gt;Node22 -->
<g id="edge48" class="edge"><title>Node21&#45;&gt;Node22</title>
<path fill="none" stroke="midnightblue" d="M1941.65,-10C1955.37,-10 1969.62,-10 1983.58,-10"/>
<polygon fill="midnightblue" stroke="midnightblue" points="1983.68,-13.5001 1993.68,-10 1983.68,-6.5001 1983.68,-13.5001"/>
</g>
<!-- Node23&#45;&gt;Node2 -->
<g id="edge54" class="edge"><title>Node23&#45;&gt;Node2</title>
<path fill="none" stroke="midnightblue" d="M679.495,-133.54C711.624,-138.78 751.656,-145.309 785.271,-150.791"/>
<polygon fill="midnightblue" stroke="midnightblue" points="785.048,-154.301 795.481,-152.456 786.175,-147.392 785.048,-154.301"/>
</g>
<!-- Node23&#45;&gt;Node8 -->
<g id="edge56" class="edge"><title>Node23&#45;&gt;Node8</title>
<path fill="none" stroke="midnightblue" d="M525.322,-115.655C489.316,-110.303 450.066,-103.575 421.601,-97.71"/>
<polygon fill="midnightblue" stroke="midnightblue" points="422.136,-94.2457 411.627,-95.5924 420.682,-101.093 422.136,-94.2457"/>
</g>
</g>
</svg>
