<?xml version="1.0" encoding="UTF-8" standalone="no"?>
<!DOCTYPE svg PUBLIC "-//W3C//DTD SVG 1.1//EN"
 "http://www.w3.org/Graphics/SVG/1.1/DTD/svg11.dtd">
<!-- Generated by graphviz version 2.28.0 (20111219.2309)
 -->
<!-- Title: forcebalance.tinkerio.AbInitio_TINKER Pages: 1 -->
<svg width="150pt" height="276pt"
 viewBox="0.00 0.00 150.00 276.00" xmlns="http://www.w3.org/2000/svg" xmlns:xlink="http://www.w3.org/1999/xlink">
<g id="graph1" class="graph" transform="scale(1 1) rotate(0) translate(4 272)">
<title>forcebalance.tinkerio.AbInitio_TINKER</title>
<polygon fill="white" stroke="white" points="-4,5 -4,-272 147,-272 147,5 -4,5"/>
<!-- Node1 -->
<g id="node1" class="node"><title>Node1</title>
<polygon fill="#bfbfbf" stroke="black" points="5,-1 5,-31 137,-31 137,-1 5,-1"/>
<text text-anchor="start" x="13" y="-19" font-family="Ubuntu-R" font-size="10.00">forcebalance.tinkerio.Ab</text>
<text text-anchor="middle" x="71" y="-8" font-family="Ubuntu-R" font-size="10.00">Initio_TINKER</text>
</g>
<!-- Node2 -->
<g id="node2" class="node"><title>Node2</title>
<a xlink:href="classforcebalance_1_1abinitio_1_1AbInitio.html" target="_top" xlink:title="Subclass of Target for fitting force fields to ab initio data. ">
<polygon fill="white" stroke="black" points="5.5,-69 5.5,-99 136.5,-99 136.5,-69 5.5,-69"/>
<text text-anchor="start" x="13.5" y="-87" font-family="Ubuntu-R" font-size="10.00">forcebalance.abinitio.Ab</text>
<text text-anchor="middle" x="71" y="-76" font-family="Ubuntu-R" font-size="10.00">Initio</text>
</a>
</g>
<!-- Node2&#45;&gt;Node1 -->
<g id="edge2" class="edge"><title>Node2&#45;&gt;Node1</title>
<path fill="none" stroke="midnightblue" d="M71,-58.5322C71,-49.3606 71,-39.2449 71,-31.2931"/>
<polygon fill="midnightblue" stroke="midnightblue" points="67.5001,-58.6789 71,-68.679 74.5001,-58.679 67.5001,-58.6789"/>
</g>
<!-- Node3 -->
<g id="node4" class="node"><title>Node3</title>
<a xlink:href="classforcebalance_1_1target_1_1Target.html" target="_top" xlink:title="Base class for all fitting targets. ">
<polygon fill="white" stroke="black" points="-0.5,-136.5 -0.5,-155.5 142.5,-155.5 142.5,-136.5 -0.5,-136.5"/>
<text text-anchor="middle" x="71" y="-143.5" font-family="Ubuntu-R" font-size="10.00">forcebalance.target.Target</text>
</a>
</g>
<!-- Node3&#45;&gt;Node2 -->
<g id="edge4" class="edge"><title>Node3&#45;&gt;Node2</title>
<path fill="none" stroke="midnightblue" d="M71,-126.371C71,-117.585 71,-107.272 71,-99.1408"/>
<polygon fill="midnightblue" stroke="midnightblue" points="67.5001,-126.403 71,-136.403 74.5001,-126.403 67.5001,-126.403"/>
</g>
<!-- Node4 -->
<g id="node6" class="node"><title>Node4</title>
<a xlink:href="classforcebalance_1_1BaseClass.html" target="_top" xlink:title="Provides some nifty functions that are common to all ForceBalance classes. ">
<polygon fill="white" stroke="black" points="5.5,-192.5 5.5,-211.5 136.5,-211.5 136.5,-192.5 5.5,-192.5"/>
<text text-anchor="middle" x="71" y="-199.5" font-family="Ubuntu-R" font-size="10.00">forcebalance.BaseClass</text>
</a>
</g>
<!-- Node4&#45;&gt;Node3 -->
<g id="edge6" class="edge"><title>Node4&#45;&gt;Node3</title>
<path fill="none" stroke="midnightblue" d="M71,-181.805C71,-172.91 71,-162.78 71,-155.751"/>
<polygon fill="midnightblue" stroke="midnightblue" points="67.5001,-182.083 71,-192.083 74.5001,-182.083 67.5001,-182.083"/>
</g>
<!-- Node5 -->
<g id="node8" class="node"><title>Node5</title>
<polygon fill="white" stroke="#bfbfbf" points="48,-248.5 48,-267.5 94,-267.5 94,-248.5 48,-248.5"/>
<text text-anchor="middle" x="71" y="-255.5" font-family="Ubuntu-R" font-size="10.00">object</text>
</g>
<!-- Node5&#45;&gt;Node4 -->
<g id="edge8" class="edge"><title>Node5&#45;&gt;Node4</title>
<path fill="none" stroke="midnightblue" d="M71,-237.805C71,-228.91 71,-218.78 71,-211.751"/>
<polygon fill="midnightblue" stroke="midnightblue" points="67.5001,-238.083 71,-248.083 74.5001,-238.083 67.5001,-238.083"/>
</g>
</g>
</svg>
