<?xml version="1.0" encoding="UTF-8" standalone="no"?>
<!DOCTYPE svg PUBLIC "-//W3C//DTD SVG 1.1//EN"
 "http://www.w3.org/Graphics/SVG/1.1/DTD/svg11.dtd">
<!-- Generated by graphviz version 2.26.3 (20100126.1600)
 -->
<!-- Title: forcebalance.gmxio.GMX.md Pages: 1 -->
<svg width="1152pt" height="175pt"
 viewBox="0.00 0.00 1152.00 175.00" xmlns="http://www.w3.org/2000/svg" xmlns:xlink="http://www.w3.org/1999/xlink">
<g id="graph1" class="graph" transform="scale(1 1) rotate(0) translate(4 171)">
<title>forcebalance.gmxio.GMX.md</title>
<polygon fill="white" stroke="white" points="-4,5 -4,-171 1149,-171 1149,5 -4,5"/>
<!-- Node1 -->
<g id="node1" class="node"><title>Node1</title>
<polygon fill="#bfbfbf" stroke="black" points="0,-67.5 0,-88.5 154,-88.5 154,-67.5 0,-67.5"/>
<text text-anchor="middle" x="77" y="-75.5" font-family="Ubuntu-R" font-size="10.00">forcebalance.gmxio.GMX.md</text>
</g>
<!-- Node2 -->
<g id="node3" class="node"><title>Node2</title>
<a xlink:href="namespaceforcebalance_1_1gmxio.html#a73a881531c27adfddab62cda7f2232cd" target="_top" xlink:title="Create or edit a Gromacs MDP file. ">
<polygon fill="white" stroke="black" points="199.5,-107.5 199.5,-128.5 362.5,-128.5 362.5,-107.5 199.5,-107.5"/>
<text text-anchor="middle" x="281" y="-115.5" font-family="Ubuntu-R" font-size="10.00">forcebalance.gmxio.write_mdp</text>
</a>
</g>
<!-- Node1&#45;&gt;Node2 -->
<g id="edge2" class="edge"><title>Node1&#45;&gt;Node2</title>
<path fill="none" stroke="midnightblue" d="M130.599,-88.5095C157.199,-93.7252 189.516,-100.062 217.366,-105.523"/>
<polygon fill="midnightblue" stroke="midnightblue" points="216.919,-109.002 227.406,-107.491 218.266,-102.132 216.919,-109.002"/>
</g>
<!-- Node7 -->
<g id="node13" class="node"><title>Node7</title>
<a xlink:href="classforcebalance_1_1gmxio_1_1GMX.html#a0a8687f6d972019fd7eef4cb8a5d86c7" target="_top" xlink:title="Call gromacs and allow for certain expected warnings. ">
<polygon fill="white" stroke="black" points="190,-67.5 190,-88.5 372,-88.5 372,-67.5 190,-67.5"/>
<text text-anchor="middle" x="281" y="-75.5" font-family="Ubuntu-R" font-size="10.00">forcebalance.gmxio.GMX.warngmx</text>
</a>
</g>
<!-- Node1&#45;&gt;Node7 -->
<g id="edge12" class="edge"><title>Node1&#45;&gt;Node7</title>
<path fill="none" stroke="midnightblue" d="M154.124,-78C162.477,-78 171.067,-78 179.651,-78"/>
<polygon fill="midnightblue" stroke="midnightblue" points="179.71,-81.5001 189.71,-78 179.71,-74.5001 179.71,-81.5001"/>
</g>
<!-- Node8 -->
<g id="node15" class="node"><title>Node8</title>
<a xlink:href="classforcebalance_1_1gmxio_1_1GMX.html#a4e472c27d2c244c9ad6edb5b35f46a75" target="_top" xlink:title="Call GROMACS; prepend the gmxpath to the call to the GROMACS program. ">
<polygon fill="white" stroke="black" points="408.5,-44.5 408.5,-65.5 583.5,-65.5 583.5,-44.5 408.5,-44.5"/>
<text text-anchor="middle" x="496" y="-52.5" font-family="Ubuntu-R" font-size="10.00">forcebalance.gmxio.GMX.callgmx</text>
</a>
</g>
<!-- Node1&#45;&gt;Node8 -->
<g id="edge28" class="edge"><title>Node1&#45;&gt;Node8</title>
<path fill="none" stroke="midnightblue" d="M126.265,-67.4562C145.984,-63.7146 168.972,-59.9505 190,-58 259.385,-51.5642 337.998,-50.9356 398.168,-51.8531"/>
<polygon fill="midnightblue" stroke="midnightblue" points="398.362,-55.3568 408.42,-52.027 398.481,-48.3578 398.362,-55.3568"/>
</g>
<!-- Node3 -->
<g id="node5" class="node"><title>Node3</title>
<a xlink:href="namespaceforcebalance_1_1nifty.html#a185aa094549d280fdc18479459980164" target="_top" xlink:title="If trying to write to a symbolic link, remove it first. ">
<polygon fill="white" stroke="black" points="429,-145.5 429,-166.5 563,-166.5 563,-145.5 429,-145.5"/>
<text text-anchor="middle" x="496" y="-153.5" font-family="Ubuntu-R" font-size="10.00">forcebalance.nifty.wopen</text>
</a>
</g>
<!-- Node2&#45;&gt;Node3 -->
<g id="edge4" class="edge"><title>Node2&#45;&gt;Node3</title>
<path fill="none" stroke="midnightblue" d="M340.604,-128.535C367.167,-133.23 398.635,-138.791 426.283,-143.678"/>
<polygon fill="midnightblue" stroke="midnightblue" points="425.824,-147.151 436.28,-145.445 427.042,-140.258 425.824,-147.151"/>
</g>
<!-- Node4 -->
<g id="node7" class="node"><title>Node4</title>
<a xlink:href="namespaceforcebalance_1_1nifty.html#a51180e960742cc7547749fdfb3513ec4" target="_top" xlink:title="See documentation for printcool; this is a nice way to print out keys/values in a dictionary...">
<polygon fill="white" stroke="black" points="424,-93 424,-127 568,-127 568,-93 424,-93"/>
<text text-anchor="start" x="432" y="-114" font-family="Ubuntu-R" font-size="10.00">forcebalance.nifty.printcool</text>
<text text-anchor="middle" x="496" y="-101" font-family="Ubuntu-R" font-size="10.00">_dictionary</text>
</a>
</g>
<!-- Node2&#45;&gt;Node4 -->
<g id="edge6" class="edge"><title>Node2&#45;&gt;Node4</title>
<path fill="none" stroke="midnightblue" d="M362.589,-114.964C379.313,-114.342 396.926,-113.686 413.676,-113.063"/>
<polygon fill="midnightblue" stroke="midnightblue" points="414.114,-116.549 423.977,-112.68 413.854,-109.554 414.114,-116.549"/>
</g>
<!-- Node5 -->
<g id="node9" class="node"><title>Node5</title>
<a xlink:href="namespaceforcebalance_1_1nifty.html#a11babd62dc7bca389162c6318f9672ca" target="_top" xlink:title="Cool&#45;looking printout for slick formatting of output. ">
<polygon fill="white" stroke="black" points="628,-99.5 628,-120.5 772,-120.5 772,-99.5 628,-99.5"/>
<text text-anchor="middle" x="700" y="-107.5" font-family="Ubuntu-R" font-size="10.00">forcebalance.nifty.printcool</text>
</a>
</g>
<!-- Node4&#45;&gt;Node5 -->
<g id="edge8" class="edge"><title>Node4&#45;&gt;Node5</title>
<path fill="none" stroke="midnightblue" d="M568.21,-110C584.251,-110 601.37,-110 617.778,-110"/>
<polygon fill="midnightblue" stroke="midnightblue" points="617.887,-113.5 627.887,-110 617.887,-106.5 617.887,-113.5"/>
</g>
<!-- Node6 -->
<g id="node11" class="node"><title>Node6</title>
<a xlink:href="namespaceforcebalance_1_1nifty.html#abb8f59044961a12588e0653c2baa8b01" target="_top" xlink:title="forcebalance.nifty.warn\l_press_key">
<polygon fill="white" stroke="black" points="822.5,-93 822.5,-127 947.5,-127 947.5,-93 822.5,-93"/>
<text text-anchor="start" x="830.5" y="-114" font-family="Ubuntu-R" font-size="10.00">forcebalance.nifty.warn</text>
<text text-anchor="middle" x="885" y="-101" font-family="Ubuntu-R" font-size="10.00">_press_key</text>
</a>
</g>
<!-- Node5&#45;&gt;Node6 -->
<g id="edge10" class="edge"><title>Node5&#45;&gt;Node6</title>
<path fill="none" stroke="midnightblue" d="M772.056,-110C785.314,-110 799.163,-110 812.437,-110"/>
<polygon fill="midnightblue" stroke="midnightblue" points="812.456,-113.5 822.456,-110 812.456,-106.5 812.456,-113.5"/>
</g>
<!-- Node7&#45;&gt;Node8 -->
<g id="edge14" class="edge"><title>Node7&#45;&gt;Node8</title>
<path fill="none" stroke="midnightblue" d="M372.179,-68.2459C380.817,-67.3219 389.598,-66.3825 398.293,-65.4524"/>
<polygon fill="midnightblue" stroke="midnightblue" points="398.876,-68.9101 408.447,-64.3661 398.132,-61.9498 398.876,-68.9101"/>
</g>
<!-- Node9 -->
<g id="node17" class="node"><title>Node9</title>
<a xlink:href="namespaceforcebalance_1_1gmxio.html#acac8488f29b62fb0d4cb54bb5a041026" target="_top" xlink:title="forcebalance.gmxio.rm\l_gmx_baks">
<polygon fill="white" stroke="black" points="636.5,-47 636.5,-81 763.5,-81 763.5,-47 636.5,-47"/>
<text text-anchor="start" x="644.5" y="-68" font-family="Ubuntu-R" font-size="10.00">forcebalance.gmxio.rm</text>
<text text-anchor="middle" x="700" y="-55" font-family="Ubuntu-R" font-size="10.00">_gmx_baks</text>
</a>
</g>
<!-- Node8&#45;&gt;Node9 -->
<g id="edge16" class="edge"><title>Node8&#45;&gt;Node9</title>
<path fill="none" stroke="midnightblue" d="M583.698,-58.869C597.811,-59.4917 612.297,-60.1307 626.045,-60.7373"/>
<polygon fill="midnightblue" stroke="midnightblue" points="626.252,-64.2497 636.397,-61.194 626.561,-57.2565 626.252,-64.2497"/>
</g>
<!-- Node10 -->
<g id="node19" class="node"><title>Node10</title>
<a xlink:href="classforcebalance_1_1gmxio_1_1GMX.html#a2f9f89e8d7e97c872d4876751df171ce" target="_top" xlink:title="forcebalance.gmxio.GMX.links">
<polygon fill="white" stroke="black" points="620.5,-7.5 620.5,-28.5 779.5,-28.5 779.5,-7.5 620.5,-7.5"/>
<text text-anchor="middle" x="700" y="-15.5" font-family="Ubuntu-R" font-size="10.00">forcebalance.gmxio.GMX.links</text>
</a>
</g>
<!-- Node8&#45;&gt;Node10 -->
<g id="edge18" class="edge"><title>Node8&#45;&gt;Node10</title>
<path fill="none" stroke="midnightblue" d="M553.913,-44.4963C578.247,-40.0827 606.726,-34.9174 632.044,-30.3253"/>
<polygon fill="midnightblue" stroke="midnightblue" points="632.728,-33.7585 641.943,-28.53 631.479,-26.8709 632.728,-33.7585"/>
</g>
<!-- Node11 -->
<g id="node21" class="node"><title>Node11</title>
<a xlink:href="namespaceforcebalance_1_1nifty.html#ab5417ad84c6c760965cd195c6c387914" target="_top" xlink:title="forcebalance.nifty.onefile">
<polygon fill="white" stroke="black" points="818,-50.5 818,-71.5 952,-71.5 952,-50.5 818,-50.5"/>
<text text-anchor="middle" x="885" y="-58.5" font-family="Ubuntu-R" font-size="10.00">forcebalance.nifty.onefile</text>
</a>
</g>
<!-- Node10&#45;&gt;Node11 -->
<g id="edge20" class="edge"><title>Node10&#45;&gt;Node11</title>
<path fill="none" stroke="midnightblue" d="M745.256,-28.519C770.677,-34.4276 802.604,-41.8486 829.523,-48.1053"/>
<polygon fill="midnightblue" stroke="midnightblue" points="829.037,-51.5857 839.57,-50.4406 830.622,-44.7674 829.037,-51.5857"/>
</g>
<!-- Node13 -->
<g id="node25" class="node"><title>Node13</title>
<a xlink:href="namespaceforcebalance_1_1nifty.html#ab182a9da2a2f42cf45942fbee6acf9b1" target="_top" xlink:title="forcebalance.nifty.LinkFile">
<polygon fill="white" stroke="black" points="816.5,-7.5 816.5,-28.5 953.5,-28.5 953.5,-7.5 816.5,-7.5"/>
<text text-anchor="middle" x="885" y="-15.5" font-family="Ubuntu-R" font-size="10.00">forcebalance.nifty.LinkFile</text>
</a>
</g>
<!-- Node10&#45;&gt;Node13 -->
<g id="edge24" class="edge"><title>Node10&#45;&gt;Node13</title>
<path fill="none" stroke="midnightblue" d="M779.53,-18C788.329,-18 797.287,-18 806.078,-18"/>
<polygon fill="midnightblue" stroke="midnightblue" points="806.302,-21.5001 816.302,-18 806.302,-14.5001 806.302,-21.5001"/>
</g>
<!-- Node12 -->
<g id="node23" class="node"><title>Node12</title>
<a xlink:href="namespaceforcebalance_1_1nifty.html#a26e563ec71ed229c30f3d61d3448c8f1" target="_top" xlink:title="Prints a warning but will only do so once in a given run. ">
<polygon fill="white" stroke="black" points="990,-52.5 990,-73.5 1144,-73.5 1144,-52.5 990,-52.5"/>
<text text-anchor="middle" x="1067" y="-60.5" font-family="Ubuntu-R" font-size="10.00">forcebalance.nifty.warn_once</text>
</a>
</g>
<!-- Node11&#45;&gt;Node12 -->
<g id="edge22" class="edge"><title>Node11&#45;&gt;Node12</title>
<path fill="none" stroke="midnightblue" d="M952.253,-61.739C961.251,-61.8379 970.582,-61.9405 979.859,-62.0424"/>
<polygon fill="midnightblue" stroke="midnightblue" points="979.849,-65.5424 989.887,-62.1526 979.926,-58.5428 979.849,-65.5424"/>
</g>
<!-- Node14 -->
<g id="node27" class="node"><title>Node14</title>
<a xlink:href="namespaceforcebalance_1_1nifty.html#ae87c7def5f8edf2ec30737bdb1d2636f" target="_top" xlink:title="forcebalance.nifty.Missing\lFileInspection">
<polygon fill="white" stroke="black" points="998,-0 998,-34 1136,-34 1136,-0 998,-0"/>
<text text-anchor="start" x="1006" y="-21" font-family="Ubuntu-R" font-size="10.00">forcebalance.nifty.Missing</text>
<text text-anchor="middle" x="1067" y="-8" font-family="Ubuntu-R" font-size="10.00">FileInspection</text>
</a>
</g>
<!-- Node13&#45;&gt;Node14 -->
<g id="edge26" class="edge"><title>Node13&#45;&gt;Node14</title>
<path fill="none" stroke="midnightblue" d="M953.547,-17.6234C964.656,-17.5623 976.242,-17.4987 987.583,-17.4364"/>
<polygon fill="midnightblue" stroke="midnightblue" points="987.929,-20.9346 997.91,-17.3796 987.891,-13.9347 987.929,-20.9346"/>
</g>
</g>
</svg>
