<?xml version="1.0" encoding="UTF-8" standalone="no"?>
<!DOCTYPE svg PUBLIC "-//W3C//DTD SVG 1.1//EN"
 "http://www.w3.org/Graphics/SVG/1.1/DTD/svg11.dtd">
<!-- Generated by graphviz version 2.28.0 (20111219.2309)
 -->
<!-- Title: G Pages: 1 -->
<svg width="604pt" height="104pt"
 viewBox="0.00 0.00 604.00 104.00" xmlns="http://www.w3.org/2000/svg" xmlns:xlink="http://www.w3.org/1999/xlink">
<g id="graph1" class="graph" transform="scale(1 1) rotate(0) translate(4 100)">
<title>G</title>
<polygon fill="white" stroke="white" points="-4,5 -4,-100 601,-100 601,5 -4,5"/>
<!-- Node1 -->
<g id="node1" class="node"><title>Node1</title>
<polygon fill="#bfbfbf" stroke="black" points="0,-57.5 0,-76.5 260,-76.5 260,-57.5 0,-57.5"/>
<text text-anchor="middle" x="130" y="-64.5" font-family="Ubuntu-R" font-size="10.00">forcebalance.openmmio.OpenMM_Reader.build_pid</text>
</g>
<!-- Node2 -->
<g id="node3" class="node"><title>Node2</title>
<a xlink:href="classforcebalance_1_1openmmio_1_1OpenMM__Reader.html#a111f672a2f7b835da774dc5e6f265731" target="_top" xlink:title="forcebalance.openmmio.OpenMM_Reader.__init__">
<polygon fill="white" stroke="black" points="319,-76.5 319,-95.5 573,-95.5 573,-76.5 319,-76.5"/>
<text text-anchor="middle" x="446" y="-83.5" font-family="Ubuntu-R" font-size="10.00">forcebalance.openmmio.OpenMM_Reader.__init__</text>
</a>
</g>
<!-- Node1&#45;&gt;Node2 -->
<g id="edge2" class="edge"><title>Node1&#45;&gt;Node2</title>
<path fill="none" stroke="midnightblue" d="M260.075,-68.1561C297.479,-70.1602 337.067,-72.8222 369.977,-75.6057"/>
<polygon fill="midnightblue" stroke="midnightblue" points="369.701,-79.0948 379.966,-76.4728 370.306,-72.121 369.701,-79.0948"/>
</g>
<!-- Node3 -->
<g id="node6" class="node"><title>Node3</title>
<a xlink:href="classforcebalance_1_1BaseClass.html#a73e9a37a7632e79eb99f49bd15aced45" target="_top" xlink:title="forcebalance.BaseClass.set_option">
<polygon fill="white" stroke="black" points="354,-38.5 354,-57.5 538,-57.5 538,-38.5 354,-38.5"/>
<text text-anchor="middle" x="446" y="-45.5" font-family="Ubuntu-R" font-size="10.00">forcebalance.BaseClass.set_option</text>
</a>
</g>
<!-- Node1&#45;&gt;Node3 -->
<g id="edge6" class="edge"><title>Node1&#45;&gt;Node3</title>
<path fill="none" stroke="midnightblue" d="M260.075,-59.1897C287.973,-57.5016 317.087,-55.74 343.738,-54.1273"/>
<polygon fill="midnightblue" stroke="midnightblue" points="344.054,-57.6147 353.824,-53.517 343.631,-50.6275 344.054,-57.6147"/>
</g>
<!-- Node4 -->
<g id="node8" class="node"><title>Node4</title>
<a xlink:href="classforcebalance_1_1baseclass_1_1ForceBalanceBaseClass.html#abaaf4d99b043d41f02fabc41db59252b" target="_top" xlink:title="forcebalance.baseclass.ForceBalanceBaseClass.set_option">
<polygon fill="white" stroke="black" points="296.5,-0.5 296.5,-19.5 595.5,-19.5 595.5,-0.5 296.5,-0.5"/>
<text text-anchor="middle" x="446" y="-7.5" font-family="Ubuntu-R" font-size="10.00">forcebalance.baseclass.ForceBalanceBaseClass.set_option</text>
</a>
</g>
<!-- Node1&#45;&gt;Node4 -->
<g id="edge8" class="edge"><title>Node1&#45;&gt;Node4</title>
<path fill="none" stroke="midnightblue" d="M167.484,-57.497C200.777,-49.0887 251.435,-36.9528 296,-29 312.846,-25.9937 330.846,-23.2803 348.302,-20.907"/>
<polygon fill="midnightblue" stroke="midnightblue" points="349.052,-24.338 358.503,-19.5493 348.129,-17.3992 349.052,-24.338"/>
</g>
<!-- Node2&#45;&gt;Node1 -->
<g id="edge4" class="edge"><title>Node2&#45;&gt;Node1</title>
<path fill="none" stroke="midnightblue" d="M318.767,-84.9951C280.632,-82.9799 239.977,-80.2624 206.284,-77.4163"/>
<polygon fill="midnightblue" stroke="midnightblue" points="206.326,-73.9069 196.061,-76.5295 205.721,-80.8807 206.326,-73.9069"/>
</g>
</g>
</svg>
