<?xml version="1.0" encoding="UTF-8" standalone="no"?>
<!DOCTYPE svg PUBLIC "-//W3C//DTD SVG 1.1//EN"
 "http://www.w3.org/Graphics/SVG/1.1/DTD/svg11.dtd">
<!-- Generated by graphviz version 2.26.3 (20100126.1600)
 -->
<!-- Title: forcebalance.gmxio.GMX.normal_modes Pages: 1 -->
<svg width="1386pt" height="182pt"
 viewBox="0.00 0.00 1386.00 182.05" xmlns="http://www.w3.org/2000/svg" xmlns:xlink="http://www.w3.org/1999/xlink">
<g id="graph1" class="graph" transform="scale(1 1) rotate(0) translate(4 178.055)">
<title>forcebalance.gmxio.GMX.normal_modes</title>
<polygon fill="white" stroke="white" points="-4,5 -4,-178.055 1383,-178.055 1383,5 -4,5"/>
<!-- Node1 -->
<g id="node1" class="node"><title>Node1</title>
<polygon fill="#bfbfbf" stroke="black" points="0,-72 0,-106 172,-106 172,-72 0,-72"/>
<text text-anchor="start" x="8" y="-93" font-family="Ubuntu-R" font-size="10.00">forcebalance.gmxio.GMX.normal</text>
<text text-anchor="middle" x="86" y="-80" font-family="Ubuntu-R" font-size="10.00">_modes</text>
</g>
<!-- Node2 -->
<g id="node3" class="node"><title>Node2</title>
<a xlink:href="namespaceforcebalance_1_1nifty.html#a26e563ec71ed229c30f3d61d3448c8f1" target="_top" xlink:title="Prints a warning but will only do so once in a given run. ">
<polygon fill="white" stroke="black" points="1224,-53.5 1224,-74.5 1378,-74.5 1378,-53.5 1224,-53.5"/>
<text text-anchor="middle" x="1301" y="-61.5" font-family="Ubuntu-R" font-size="10.00">forcebalance.nifty.warn_once</text>
</a>
</g>
<!-- Node1&#45;&gt;Node2 -->
<g id="edge2" class="edge"><title>Node1&#45;&gt;Node2</title>
<path fill="none" stroke="midnightblue" d="M131.815,-106.085C154.477,-114.004 182.398,-122.973 208,-129 342.234,-160.598 377.098,-174 515,-174 515,-174 515,-174 934,-174 1048.21,-174 1080.98,-174.877 1188,-135 1222.73,-122.06 1258.18,-97.5701 1279.89,-81.0165"/>
<polygon fill="midnightblue" stroke="midnightblue" points="1282.29,-83.5787 1288.04,-74.6773 1277.99,-78.0526 1282.29,-83.5787"/>
</g>
<!-- Node3 -->
<g id="node5" class="node"><title>Node3</title>
<a xlink:href="namespaceforcebalance_1_1gmxio.html#a73a881531c27adfddab62cda7f2232cd" target="_top" xlink:title="Create or edit a Gromacs MDP file. ">
<polygon fill="white" stroke="black" points="433.5,-117.5 433.5,-138.5 596.5,-138.5 596.5,-117.5 433.5,-117.5"/>
<text text-anchor="middle" x="515" y="-125.5" font-family="Ubuntu-R" font-size="10.00">forcebalance.gmxio.write_mdp</text>
</a>
</g>
<!-- Node1&#45;&gt;Node3 -->
<g id="edge4" class="edge"><title>Node1&#45;&gt;Node3</title>
<path fill="none" stroke="midnightblue" d="M172.162,-104.233C184.172,-106.033 196.376,-107.691 208,-109 280.133,-117.124 362.22,-121.977 423.353,-124.743"/>
<polygon fill="midnightblue" stroke="midnightblue" points="423.218,-128.24 433.363,-125.186 423.527,-121.247 423.218,-128.24"/>
</g>
<!-- Node8 -->
<g id="node15" class="node"><title>Node8</title>
<a xlink:href="classforcebalance_1_1gmxio_1_1GMX.html#a26446fe0d7708c321fb39a2944ca5625" target="_top" xlink:title="Optimize the geometry and align the optimized geometry to the starting geometry. ">
<polygon fill="white" stroke="black" points="208.5,-78.5 208.5,-99.5 387.5,-99.5 387.5,-78.5 208.5,-78.5"/>
<text text-anchor="middle" x="298" y="-86.5" font-family="Ubuntu-R" font-size="10.00">forcebalance.gmxio.GMX.optimize</text>
</a>
</g>
<!-- Node1&#45;&gt;Node8 -->
<g id="edge14" class="edge"><title>Node1&#45;&gt;Node8</title>
<path fill="none" stroke="midnightblue" d="M172.229,-89C180.798,-89 189.545,-89 198.237,-89"/>
<polygon fill="midnightblue" stroke="midnightblue" points="198.4,-92.5001 208.4,-89 198.4,-85.5001 198.4,-92.5001"/>
</g>
<!-- Node9 -->
<g id="node18" class="node"><title>Node9</title>
<a xlink:href="classforcebalance_1_1gmxio_1_1GMX.html#a0a8687f6d972019fd7eef4cb8a5d86c7" target="_top" xlink:title="Call gromacs and allow for certain expected warnings. ">
<polygon fill="white" stroke="black" points="424,-39.5 424,-60.5 606,-60.5 606,-39.5 424,-39.5"/>
<text text-anchor="middle" x="515" y="-47.5" font-family="Ubuntu-R" font-size="10.00">forcebalance.gmxio.GMX.warngmx</text>
</a>
</g>
<!-- Node1&#45;&gt;Node9 -->
<g id="edge36" class="edge"><title>Node1&#45;&gt;Node9</title>
<path fill="none" stroke="midnightblue" d="M172.162,-73.7666C184.172,-71.9673 196.376,-70.3091 208,-69 276.347,-61.3026 353.632,-56.5411 413.56,-53.7098"/>
<polygon fill="midnightblue" stroke="midnightblue" points="413.953,-57.1955 423.781,-53.2376 413.63,-50.2029 413.953,-57.1955"/>
</g>
<!-- Node10 -->
<g id="node20" class="node"><title>Node10</title>
<a xlink:href="classforcebalance_1_1gmxio_1_1GMX.html#a4e472c27d2c244c9ad6edb5b35f46a75" target="_top" xlink:title="Call GROMACS; prepend the gmxpath to the call to the GROMACS program. ">
<polygon fill="white" stroke="black" points="642.5,-32.5 642.5,-53.5 817.5,-53.5 817.5,-32.5 642.5,-32.5"/>
<text text-anchor="middle" x="730" y="-40.5" font-family="Ubuntu-R" font-size="10.00">forcebalance.gmxio.GMX.callgmx</text>
</a>
</g>
<!-- Node1&#45;&gt;Node10 -->
<g id="edge38" class="edge"><title>Node1&#45;&gt;Node10</title>
<path fill="none" stroke="midnightblue" d="M132.922,-71.9102C155.362,-64.3784 182.776,-56.0982 208,-51 381.624,-15.9069 429.107,-20.7527 606,-30 614.56,-30.4475 623.438,-31.0675 632.332,-31.7961"/>
<polygon fill="midnightblue" stroke="midnightblue" points="632.099,-35.289 642.363,-32.6614 632.701,-28.3149 632.099,-35.289"/>
</g>
<!-- Node4 -->
<g id="node7" class="node"><title>Node4</title>
<a xlink:href="namespaceforcebalance_1_1nifty.html#a185aa094549d280fdc18479459980164" target="_top" xlink:title="If trying to write to a symbolic link, remove it first. ">
<polygon fill="white" stroke="black" points="663,-124.5 663,-145.5 797,-145.5 797,-124.5 663,-124.5"/>
<text text-anchor="middle" x="730" y="-132.5" font-family="Ubuntu-R" font-size="10.00">forcebalance.nifty.wopen</text>
</a>
</g>
<!-- Node3&#45;&gt;Node4 -->
<g id="edge6" class="edge"><title>Node3&#45;&gt;Node4</title>
<path fill="none" stroke="midnightblue" d="M596.589,-130.656C615.031,-131.257 634.556,-131.893 652.811,-132.487"/>
<polygon fill="midnightblue" stroke="midnightblue" points="652.698,-135.985 662.806,-132.812 652.926,-128.989 652.698,-135.985"/>
</g>
<!-- Node5 -->
<g id="node9" class="node"><title>Node5</title>
<a xlink:href="namespaceforcebalance_1_1nifty.html#a51180e960742cc7547749fdfb3513ec4" target="_top" xlink:title="See documentation for printcool; this is a nice way to print out keys/values in a dictionary...">
<polygon fill="white" stroke="black" points="658,-72 658,-106 802,-106 802,-72 658,-72"/>
<text text-anchor="start" x="666" y="-93" font-family="Ubuntu-R" font-size="10.00">forcebalance.nifty.printcool</text>
<text text-anchor="middle" x="730" y="-80" font-family="Ubuntu-R" font-size="10.00">_dictionary</text>
</a>
</g>
<!-- Node3&#45;&gt;Node5 -->
<g id="edge8" class="edge"><title>Node3&#45;&gt;Node5</title>
<path fill="none" stroke="midnightblue" d="M572.899,-117.497C595.957,-113.315 622.914,-108.425 647.924,-103.888"/>
<polygon fill="midnightblue" stroke="midnightblue" points="648.552,-107.331 657.767,-102.103 647.303,-100.444 648.552,-107.331"/>
</g>
<!-- Node6 -->
<g id="node11" class="node"><title>Node6</title>
<a xlink:href="namespaceforcebalance_1_1nifty.html#a11babd62dc7bca389162c6318f9672ca" target="_top" xlink:title="Cool&#45;looking printout for slick formatting of output. ">
<polygon fill="white" stroke="black" points="862,-98.5 862,-119.5 1006,-119.5 1006,-98.5 862,-98.5"/>
<text text-anchor="middle" x="934" y="-106.5" font-family="Ubuntu-R" font-size="10.00">forcebalance.nifty.printcool</text>
</a>
</g>
<!-- Node5&#45;&gt;Node6 -->
<g id="edge10" class="edge"><title>Node5&#45;&gt;Node6</title>
<path fill="none" stroke="midnightblue" d="M802.21,-96.0794C818.251,-97.6521 835.37,-99.3304 851.778,-100.939"/>
<polygon fill="midnightblue" stroke="midnightblue" points="851.593,-104.438 861.887,-101.93 852.276,-97.471 851.593,-104.438"/>
</g>
<!-- Node7 -->
<g id="node13" class="node"><title>Node7</title>
<a xlink:href="namespaceforcebalance_1_1nifty.html#abb8f59044961a12588e0653c2baa8b01" target="_top" xlink:title="forcebalance.nifty.warn\l_press_key">
<polygon fill="white" stroke="black" points="1056.5,-92 1056.5,-126 1181.5,-126 1181.5,-92 1056.5,-92"/>
<text text-anchor="start" x="1064.5" y="-113" font-family="Ubuntu-R" font-size="10.00">forcebalance.nifty.warn</text>
<text text-anchor="middle" x="1119" y="-100" font-family="Ubuntu-R" font-size="10.00">_press_key</text>
</a>
</g>
<!-- Node6&#45;&gt;Node7 -->
<g id="edge12" class="edge"><title>Node6&#45;&gt;Node7</title>
<path fill="none" stroke="midnightblue" d="M1006.06,-109C1019.31,-109 1033.16,-109 1046.44,-109"/>
<polygon fill="midnightblue" stroke="midnightblue" points="1046.46,-112.5 1056.46,-109 1046.46,-105.5 1046.46,-112.5"/>
</g>
<!-- Node8&#45;&gt;Node3 -->
<g id="edge16" class="edge"><title>Node8&#45;&gt;Node3</title>
<path fill="none" stroke="midnightblue" d="M356.437,-99.5026C384.174,-104.487 417.5,-110.477 446.426,-115.676"/>
<polygon fill="midnightblue" stroke="midnightblue" points="445.997,-119.154 456.458,-117.479 447.235,-112.265 445.997,-119.154"/>
</g>
<!-- Node8&#45;&gt;Node9 -->
<g id="edge18" class="edge"><title>Node8&#45;&gt;Node9</title>
<path fill="none" stroke="midnightblue" d="M356.437,-78.4974C384.174,-73.5126 417.5,-67.5231 446.426,-62.3243"/>
<polygon fill="midnightblue" stroke="midnightblue" points="447.235,-65.7351 456.458,-60.5213 445.997,-58.8455 447.235,-65.7351"/>
</g>
<!-- Node8&#45;&gt;Node10 -->
<g id="edge34" class="edge"><title>Node8&#45;&gt;Node10</title>
<path fill="none" stroke="midnightblue" d="M387.65,-87.0816C449.294,-84.8799 532.904,-80.152 606,-70 613.009,-69.0265 644.214,-62.2298 673.564,-55.6999"/>
<polygon fill="midnightblue" stroke="midnightblue" points="674.41,-59.0973 683.409,-53.5045 672.887,-52.2651 674.41,-59.0973"/>
</g>
<!-- Node9&#45;&gt;Node10 -->
<g id="edge20" class="edge"><title>Node9&#45;&gt;Node10</title>
<path fill="none" stroke="midnightblue" d="M606.179,-47.0314C614.817,-46.7502 623.598,-46.4643 632.293,-46.1812"/>
<polygon fill="midnightblue" stroke="midnightblue" points="632.566,-49.6742 642.447,-45.8506 632.338,-42.6779 632.566,-49.6742"/>
</g>
<!-- Node11 -->
<g id="node22" class="node"><title>Node11</title>
<a xlink:href="namespaceforcebalance_1_1gmxio.html#acac8488f29b62fb0d4cb54bb5a041026" target="_top" xlink:title="forcebalance.gmxio.rm\l_gmx_baks">
<polygon fill="white" stroke="black" points="870.5,-46 870.5,-80 997.5,-80 997.5,-46 870.5,-46"/>
<text text-anchor="start" x="878.5" y="-67" font-family="Ubuntu-R" font-size="10.00">forcebalance.gmxio.rm</text>
<text text-anchor="middle" x="934" y="-54" font-family="Ubuntu-R" font-size="10.00">_gmx_baks</text>
</a>
</g>
<!-- Node10&#45;&gt;Node11 -->
<g id="edge22" class="edge"><title>Node10&#45;&gt;Node11</title>
<path fill="none" stroke="midnightblue" d="M817.698,-51.5979C831.811,-52.9815 846.297,-54.4017 860.045,-55.7496"/>
<polygon fill="midnightblue" stroke="midnightblue" points="860.103,-59.2719 870.397,-56.7644 860.786,-52.3053 860.103,-59.2719"/>
</g>
<!-- Node12 -->
<g id="node24" class="node"><title>Node12</title>
<a xlink:href="classforcebalance_1_1gmxio_1_1GMX.html#a2f9f89e8d7e97c872d4876751df171ce" target="_top" xlink:title="forcebalance.gmxio.GMX.links">
<polygon fill="white" stroke="black" points="854.5,-6.5 854.5,-27.5 1013.5,-27.5 1013.5,-6.5 854.5,-6.5"/>
<text text-anchor="middle" x="934" y="-14.5" font-family="Ubuntu-R" font-size="10.00">forcebalance.gmxio.GMX.links</text>
</a>
</g>
<!-- Node10&#45;&gt;Node12 -->
<g id="edge24" class="edge"><title>Node10&#45;&gt;Node12</title>
<path fill="none" stroke="midnightblue" d="M812.387,-32.4997C822.862,-31.1647 833.623,-29.7931 844.207,-28.4442"/>
<polygon fill="midnightblue" stroke="midnightblue" points="844.808,-31.896 854.285,-27.1598 843.923,-24.9522 844.808,-31.896"/>
</g>
<!-- Node13 -->
<g id="node26" class="node"><title>Node13</title>
<a xlink:href="namespaceforcebalance_1_1nifty.html#ab5417ad84c6c760965cd195c6c387914" target="_top" xlink:title="forcebalance.nifty.onefile">
<polygon fill="white" stroke="black" points="1052,-50.5 1052,-71.5 1186,-71.5 1186,-50.5 1052,-50.5"/>
<text text-anchor="middle" x="1119" y="-58.5" font-family="Ubuntu-R" font-size="10.00">forcebalance.nifty.onefile</text>
</a>
</g>
<!-- Node12&#45;&gt;Node13 -->
<g id="edge26" class="edge"><title>Node12&#45;&gt;Node13</title>
<path fill="none" stroke="midnightblue" d="M978.312,-27.5391C1004.3,-33.7207 1037.34,-41.5771 1064.86,-48.1236"/>
<polygon fill="midnightblue" stroke="midnightblue" points="1064.19,-51.5618 1074.73,-50.4707 1065.81,-44.7518 1064.19,-51.5618"/>
</g>
<!-- Node14 -->
<g id="node29" class="node"><title>Node14</title>
<a xlink:href="namespaceforcebalance_1_1nifty.html#ab182a9da2a2f42cf45942fbee6acf9b1" target="_top" xlink:title="forcebalance.nifty.LinkFile">
<polygon fill="white" stroke="black" points="1050.5,-6.5 1050.5,-27.5 1187.5,-27.5 1187.5,-6.5 1050.5,-6.5"/>
<text text-anchor="middle" x="1119" y="-14.5" font-family="Ubuntu-R" font-size="10.00">forcebalance.nifty.LinkFile</text>
</a>
</g>
<!-- Node12&#45;&gt;Node14 -->
<g id="edge30" class="edge"><title>Node12&#45;&gt;Node14</title>
<path fill="none" stroke="midnightblue" d="M1013.53,-17C1022.33,-17 1031.29,-17 1040.08,-17"/>
<polygon fill="midnightblue" stroke="midnightblue" points="1040.3,-20.5001 1050.3,-17 1040.3,-13.5001 1040.3,-20.5001"/>
</g>
<!-- Node13&#45;&gt;Node2 -->
<g id="edge28" class="edge"><title>Node13&#45;&gt;Node2</title>
<path fill="none" stroke="midnightblue" d="M1186.25,-62.1086C1195.25,-62.2569 1204.58,-62.4107 1213.86,-62.5636"/>
<polygon fill="midnightblue" stroke="midnightblue" points="1213.83,-66.0635 1223.89,-62.7289 1213.95,-59.0645 1213.83,-66.0635"/>
</g>
<!-- Node15 -->
<g id="node31" class="node"><title>Node15</title>
<a xlink:href="namespaceforcebalance_1_1nifty.html#ae87c7def5f8edf2ec30737bdb1d2636f" target="_top" xlink:title="forcebalance.nifty.Missing\lFileInspection">
<polygon fill="white" stroke="black" points="1232,-0 1232,-34 1370,-34 1370,-0 1232,-0"/>
<text text-anchor="start" x="1240" y="-21" font-family="Ubuntu-R" font-size="10.00">forcebalance.nifty.Missing</text>
<text text-anchor="middle" x="1301" y="-8" font-family="Ubuntu-R" font-size="10.00">FileInspection</text>
</a>
</g>
<!-- Node14&#45;&gt;Node15 -->
<g id="edge32" class="edge"><title>Node14&#45;&gt;Node15</title>
<path fill="none" stroke="midnightblue" d="M1187.55,-17C1198.66,-17 1210.24,-17 1221.58,-17"/>
<polygon fill="midnightblue" stroke="midnightblue" points="1221.91,-20.5001 1231.91,-17 1221.91,-13.5001 1221.91,-20.5001"/>
</g>
</g>
</svg>
