<?xml version="1.0" encoding="UTF-8" standalone="no"?>
<!DOCTYPE svg PUBLIC "-//W3C//DTD SVG 1.1//EN"
 "http://www.w3.org/Graphics/SVG/1.1/DTD/svg11.dtd">
<!-- Generated by graphviz version 2.28.0 (20111219.2309)
 -->
<!-- Title: forcebalance.gmxio.GMX.energy_force_driver Pages: 1 -->
<svg width="1292pt" height="131pt"
 viewBox="0.00 0.00 1292.00 131.00" xmlns="http://www.w3.org/2000/svg" xmlns:xlink="http://www.w3.org/1999/xlink">
<g id="graph1" class="graph" transform="scale(1 1) rotate(0) translate(4 127)">
<title>forcebalance.gmxio.GMX.energy_force_driver</title>
<polygon fill="white" stroke="white" points="-4,5 -4,-127 1289,-127 1289,5 -4,5"/>
<!-- Node1 -->
<g id="node1" class="node"><title>Node1</title>
<polygon fill="#bfbfbf" stroke="black" points="0.5,-71 0.5,-101 171.5,-101 171.5,-71 0.5,-71"/>
<text text-anchor="start" x="8.5" y="-89" font-family="Ubuntu-R" font-size="10.00">forcebalance.gmxio.GMX.energy</text>
<text text-anchor="middle" x="86" y="-78" font-family="Ubuntu-R" font-size="10.00">_force_driver</text>
</g>
<!-- Node2 -->
<g id="node3" class="node"><title>Node2</title>
<a xlink:href="classforcebalance_1_1gmxio_1_1GMX.html#a4e472c27d2c244c9ad6edb5b35f46a75" target="_top" xlink:title="Call GROMACS; prepend the gmxpath to the call to the GROMACS program. ">
<polygon fill="white" stroke="black" points="419.5,-98.5 419.5,-117.5 594.5,-117.5 594.5,-98.5 419.5,-98.5"/>
<text text-anchor="middle" x="507" y="-105.5" font-family="Ubuntu-R" font-size="10.00">forcebalance.gmxio.GMX.callgmx</text>
</a>
</g>
<!-- Node1&#45;&gt;Node2 -->
<g id="edge2" class="edge"><title>Node1&#45;&gt;Node2</title>
<path fill="none" stroke="midnightblue" d="M171.539,-90.4388C240.234,-94.0457 337.178,-99.1358 409.021,-102.908"/>
<polygon fill="midnightblue" stroke="midnightblue" points="409.262,-106.425 419.432,-103.455 409.629,-99.435 409.262,-106.425"/>
</g>
<!-- Node6 -->
<g id="node11" class="node"><title>Node6</title>
<a xlink:href="classforcebalance_1_1gmxio_1_1GMX.html#af253e5d8ea66628a0bc755339b488dcb" target="_top" xlink:title="Computes the energy and force using GROMACS over a trajectory. ">
<polygon fill="white" stroke="black" points="208.5,-49 208.5,-79 379.5,-79 379.5,-49 208.5,-49"/>
<text text-anchor="start" x="216.5" y="-67" font-family="Ubuntu-R" font-size="10.00">forcebalance.gmxio.GMX.energy</text>
<text text-anchor="middle" x="294" y="-56" font-family="Ubuntu-R" font-size="10.00">_force_driver_all</text>
</a>
</g>
<!-- Node1&#45;&gt;Node6 -->
<g id="edge10" class="edge"><title>Node1&#45;&gt;Node6</title>
<path fill="none" stroke="midnightblue" d="M171.68,-76.9565C180.468,-76.0179 189.441,-75.0597 198.33,-74.1104"/>
<polygon fill="midnightblue" stroke="midnightblue" points="198.744,-77.5861 208.316,-73.0439 198.001,-70.6257 198.744,-77.5861"/>
</g>
<!-- Node3 -->
<g id="node5" class="node"><title>Node3</title>
<a xlink:href="classforcebalance_1_1engine_1_1Engine.html#a2eab57877002b41dc3742f0c67f2f24e" target="_top" xlink:title="forcebalance.engine.Engine.prepare">
<polygon fill="white" stroke="black" points="634.5,-98.5 634.5,-117.5 823.5,-117.5 823.5,-98.5 634.5,-98.5"/>
<text text-anchor="middle" x="729" y="-105.5" font-family="Ubuntu-R" font-size="10.00">forcebalance.engine.Engine.prepare</text>
</a>
</g>
<!-- Node2&#45;&gt;Node3 -->
<g id="edge4" class="edge"><title>Node2&#45;&gt;Node3</title>
<path fill="none" stroke="midnightblue" d="M594.634,-108C604.272,-108 614.161,-108 623.987,-108"/>
<polygon fill="midnightblue" stroke="midnightblue" points="624.189,-111.5 634.189,-108 624.189,-104.5 624.189,-111.5"/>
</g>
<!-- Node4 -->
<g id="node7" class="node"><title>Node4</title>
<a xlink:href="classforcebalance_1_1engine_1_1Engine.html#aceb1ac74d5f048dfbe620ceac7df8d32" target="_top" xlink:title="Evaluate properties over a collection of snapshots. ">
<polygon fill="white" stroke="black" points="860.5,-93 860.5,-123 1053.5,-123 1053.5,-93 860.5,-93"/>
<text text-anchor="start" x="868.5" y="-111" font-family="Ubuntu-R" font-size="10.00">forcebalance.engine.Engine.evaluate</text>
<text text-anchor="middle" x="957" y="-100" font-family="Ubuntu-R" font-size="10.00">_snapshots</text>
</a>
</g>
<!-- Node3&#45;&gt;Node4 -->
<g id="edge6" class="edge"><title>Node3&#45;&gt;Node4</title>
<path fill="none" stroke="midnightblue" d="M823.554,-108C832.377,-108 841.363,-108 850.288,-108"/>
<polygon fill="midnightblue" stroke="midnightblue" points="850.327,-111.5 860.327,-108 850.327,-104.5 850.327,-111.5"/>
</g>
<!-- Node5 -->
<g id="node9" class="node"><title>Node5</title>
<a xlink:href="classforcebalance_1_1engine_1_1Engine.html#a0e88d58a45ebff5a5d741290e3589ee6" target="_top" xlink:title="Evaluate properties on the optimized geometry. ">
<polygon fill="white" stroke="black" points="1090.5,-93 1090.5,-123 1283.5,-123 1283.5,-93 1090.5,-93"/>
<text text-anchor="start" x="1098.5" y="-111" font-family="Ubuntu-R" font-size="10.00">forcebalance.engine.Engine.evaluate</text>
<text text-anchor="middle" x="1187" y="-100" font-family="Ubuntu-R" font-size="10.00">_optimized</text>
</a>
</g>
<!-- Node4&#45;&gt;Node5 -->
<g id="edge8" class="edge"><title>Node4&#45;&gt;Node5</title>
<path fill="none" stroke="midnightblue" d="M1053.7,-108C1062.37,-108 1071.19,-108 1079.94,-108"/>
<polygon fill="midnightblue" stroke="midnightblue" points="1080.18,-111.5 1090.18,-108 1080.18,-104.5 1080.18,-111.5"/>
</g>
<!-- Node6&#45;&gt;Node2 -->
<g id="edge22" class="edge"><title>Node6&#45;&gt;Node2</title>
<path fill="none" stroke="midnightblue" d="M367.024,-79.0192C394.321,-84.7115 424.954,-91.0994 450.499,-96.4264"/>
<polygon fill="midnightblue" stroke="midnightblue" points="449.88,-99.8724 460.384,-98.4876 451.309,-93.0198 449.88,-99.8724"/>
</g>
<!-- Node7 -->
<g id="node13" class="node"><title>Node7</title>
<a xlink:href="classforcebalance_1_1gmxio_1_1GMX.html#aea0f6d954e7042b70221a55e600f89a5" target="_top" xlink:title="forcebalance.gmxio.GMX.generate\l_vsite_positions">
<polygon fill="white" stroke="black" points="416,-49 416,-79 598,-79 598,-49 416,-49"/>
<text text-anchor="start" x="424" y="-67" font-family="Ubuntu-R" font-size="10.00">forcebalance.gmxio.GMX.generate</text>
<text text-anchor="middle" x="507" y="-56" font-family="Ubuntu-R" font-size="10.00">_vsite_positions</text>
</a>
</g>
<!-- Node6&#45;&gt;Node7 -->
<g id="edge12" class="edge"><title>Node6&#45;&gt;Node7</title>
<path fill="none" stroke="midnightblue" d="M379.606,-64C388.176,-64 396.938,-64 405.653,-64"/>
<polygon fill="midnightblue" stroke="midnightblue" points="405.848,-67.5001 415.848,-64 405.848,-60.5001 405.848,-67.5001"/>
</g>
<!-- Node8 -->
<g id="node15" class="node"><title>Node8</title>
<a xlink:href="classforcebalance_1_1gmxio_1_1GMX.html#a4d5f9e8fb40a37a4c22551d2f30418f4" target="_top" xlink:title="forcebalance.gmxio.GMX.\l__init__">
<polygon fill="white" stroke="black" points="660,-49 660,-79 798,-79 798,-49 660,-49"/>
<text text-anchor="start" x="668" y="-67" font-family="Ubuntu-R" font-size="10.00">forcebalance.gmxio.GMX.</text>
<text text-anchor="middle" x="729" y="-56" font-family="Ubuntu-R" font-size="10.00">__init__</text>
</a>
</g>
<!-- Node7&#45;&gt;Node8 -->
<g id="edge14" class="edge"><title>Node7&#45;&gt;Node8</title>
<path fill="none" stroke="midnightblue" d="M598.117,-64C615.216,-64 632.978,-64 649.675,-64"/>
<polygon fill="midnightblue" stroke="midnightblue" points="649.918,-67.5001 659.918,-64 649.918,-60.5001 649.918,-67.5001"/>
</g>
<!-- Node11 -->
<g id="node21" class="node"><title>Node11</title>
<a xlink:href="classforcebalance_1_1BaseClass.html#a73e9a37a7632e79eb99f49bd15aced45" target="_top" xlink:title="forcebalance.BaseClass.set\l_option">
<polygon fill="white" stroke="black" points="654.5,-0 654.5,-30 803.5,-30 803.5,-0 654.5,-0"/>
<text text-anchor="start" x="662.5" y="-18" font-family="Ubuntu-R" font-size="10.00">forcebalance.BaseClass.set</text>
<text text-anchor="middle" x="729" y="-7" font-family="Ubuntu-R" font-size="10.00">_option</text>
</a>
</g>
<!-- Node7&#45;&gt;Node11 -->
<g id="edge20" class="edge"><title>Node7&#45;&gt;Node11</title>
<path fill="none" stroke="midnightblue" d="M575.502,-48.9654C599.259,-43.6741 626.141,-37.6867 650.646,-32.2288"/>
<polygon fill="midnightblue" stroke="midnightblue" points="651.625,-35.5966 660.625,-30.0062 650.104,-28.764 651.625,-35.5966"/>
</g>
<!-- Node9 -->
<g id="node17" class="node"><title>Node9</title>
<a xlink:href="namespaceforcebalance_1_1nifty.html#a26e563ec71ed229c30f3d61d3448c8f1" target="_top" xlink:title="Prints a warning but will only do so once in a given run. ">
<polygon fill="white" stroke="black" points="880,-54.5 880,-73.5 1034,-73.5 1034,-54.5 880,-54.5"/>
<text text-anchor="middle" x="957" y="-61.5" font-family="Ubuntu-R" font-size="10.00">forcebalance.nifty.warn_once</text>
</a>
</g>
<!-- Node8&#45;&gt;Node9 -->
<g id="edge16" class="edge"><title>Node8&#45;&gt;Node9</title>
<path fill="none" stroke="midnightblue" d="M798.114,-64C820.631,-64 845.988,-64 869.684,-64"/>
<polygon fill="midnightblue" stroke="midnightblue" points="869.724,-67.5001 879.724,-64 869.724,-60.5001 869.724,-67.5001"/>
</g>
<!-- Node10 -->
<g id="node19" class="node"><title>Node10</title>
<a xlink:href="namespaceforcebalance_1_1nifty.html#a64b7c6ca7afa1c11681f5c2897c55cc3" target="_top" xlink:title="This function be given any of several variable types (single file name, file object, or list of lines, or a list of the above) and give a list of files: ">
<polygon fill="white" stroke="black" points="1111.5,-54.5 1111.5,-73.5 1262.5,-73.5 1262.5,-54.5 1111.5,-54.5"/>
<text text-anchor="middle" x="1187" y="-61.5" font-family="Ubuntu-R" font-size="10.00">forcebalance.nifty.multiopen</text>
</a>
</g>
<!-- Node9&#45;&gt;Node10 -->
<g id="edge18" class="edge"><title>Node9&#45;&gt;Node10</title>
<path fill="none" stroke="midnightblue" d="M1034.24,-64C1055.69,-64 1079.16,-64 1101.09,-64"/>
<polygon fill="midnightblue" stroke="midnightblue" points="1101.38,-67.5001 1111.38,-64 1101.38,-60.5001 1101.38,-67.5001"/>
</g>
</g>
</svg>
