<?xml version="1.0" encoding="UTF-8" standalone="no"?>
<!DOCTYPE svg PUBLIC "-//W3C//DTD SVG 1.1//EN"
 "http://www.w3.org/Graphics/SVG/1.1/DTD/svg11.dtd">
<!-- Generated by graphviz version 2.32.0 (20130801.1845)
 -->
<!-- Title: forcebalance.gmxio.AbInitio_GMX.energy_force_driver Pages: 1 -->
<svg width="1374pt" height="187pt"
 viewBox="0.00 0.00 1374.00 187.00" xmlns="http://www.w3.org/2000/svg" xmlns:xlink="http://www.w3.org/1999/xlink">
<g id="graph0" class="graph" transform="scale(1 1) rotate(0) translate(4 183)">
<title>forcebalance.gmxio.AbInitio_GMX.energy_force_driver</title>
<polygon fill="white" stroke="white" points="-4,5 -4,-183 1371,-183 1371,5 -4,5"/>
<!-- Node1 -->
<g id="node1" class="node"><title>Node1</title>
<polygon fill="#bfbfbf" stroke="black" points="0.243,-48 0.243,-80 131.757,-80 131.757,-48 0.243,-48"/>
<text text-anchor="start" x="8.243" y="-67" font-family="Ubuntu-R" font-size="10.00">forcebalance.gmxio.AbInitio</text>
<text text-anchor="middle" x="66" y="-55" font-family="Ubuntu-R" font-size="10.00">_GMX.energy_force_driver</text>
</g>
<!-- Node2 -->
<g id="node2" class="node"><title>Node2</title>
<g id="a_node2"><a xlink:href="classforcebalance_1_1gmxio_1_1AbInitio__GMX.html#a6e43c323b2286c546ff8afd3377f8808" target="_top" xlink:title="Computes the energy and force using GROMACS for a trajectory.">
<polygon fill="white" stroke="black" points="168.278,-48 168.278,-80 311.721,-80 311.721,-48 168.278,-48"/>
<text text-anchor="start" x="176.278" y="-67" font-family="Ubuntu-R" font-size="10.00">forcebalance.gmxio.AbInitio</text>
<text text-anchor="middle" x="240" y="-55" font-family="Ubuntu-R" font-size="10.00">_GMX.energy_force_driver_all</text>
</a>
</g>
</g>
<!-- Node1&#45;&gt;Node2 -->
<g id="edge1" class="edge"><title>Node1&#45;&gt;Node2</title>
<path fill="none" stroke="midnightblue" d="M132.026,-64C140.504,-64 149.273,-64 157.973,-64"/>
<polygon fill="midnightblue" stroke="midnightblue" points="158.133,-67.5001 168.133,-64 158.133,-60.5001 158.133,-67.5001"/>
</g>
<!-- Node11 -->
<g id="node11" class="node"><title>Node11</title>
<g id="a_node11"><a xlink:href="namespaceforcebalance_1_1gmxio.html#acac8488f29b62fb0d4cb54bb5a041026" target="_top" xlink:title="forcebalance.gmxio.rm\l_gmx_baks">
<polygon fill="white" stroke="black" points="1056.63,-22 1056.63,-54 1165.37,-54 1165.37,-22 1056.63,-22"/>
<text text-anchor="start" x="1064.63" y="-41" font-family="Ubuntu-R" font-size="10.00">forcebalance.gmxio.rm</text>
<text text-anchor="middle" x="1111" y="-29" font-family="Ubuntu-R" font-size="10.00">_gmx_baks</text>
</a>
</g>
</g>
<!-- Node1&#45;&gt;Node11 -->
<g id="edge14" class="edge"><title>Node1&#45;&gt;Node11</title>
<path fill="none" stroke="midnightblue" d="M121.175,-47.9327C189.991,-28.9747 312.716,-0 420,-0 420,-0 420,-0 767,-0 864.876,-0 977.512,-15.4744 1046.21,-26.6736"/>
<polygon fill="midnightblue" stroke="midnightblue" points="1046,-30.186 1056.44,-28.3619 1047.14,-23.2795 1046,-30.186"/>
</g>
<!-- Node3 -->
<g id="node3" class="node"><title>Node3</title>
<g id="a_node3"><a xlink:href="classforcebalance_1_1gmxio_1_1AbInitio__GMX.html#ae17e3c379d82935d725dd31f01df23e5" target="_top" xlink:title="Call mdrun in order to update the virtual site positions.">
<polygon fill="white" stroke="black" points="348.154,-67 348.154,-99 493.846,-99 493.846,-67 348.154,-67"/>
<text text-anchor="start" x="356.154" y="-86" font-family="Ubuntu-R" font-size="10.00">forcebalance.gmxio.AbInitio</text>
<text text-anchor="middle" x="421" y="-74" font-family="Ubuntu-R" font-size="10.00">_GMX.generate_vsite_positions</text>
</a>
</g>
</g>
<!-- Node2&#45;&gt;Node3 -->
<g id="edge2" class="edge"><title>Node2&#45;&gt;Node3</title>
<path fill="none" stroke="midnightblue" d="M311.746,-71.5093C320.315,-72.4189 329.124,-73.3539 337.839,-74.279"/>
<polygon fill="midnightblue" stroke="midnightblue" points="337.694,-77.7832 348.008,-75.3584 338.433,-70.8223 337.694,-77.7832"/>
</g>
<!-- Node2&#45;&gt;Node11 -->
<g id="edge13" class="edge"><title>Node2&#45;&gt;Node11</title>
<path fill="none" stroke="midnightblue" d="M311.947,-55.7377C383.528,-48.1245 497.279,-38 596,-38 596,-38 596,-38 767,-38 864.422,-38 977.41,-38 1046.28,-38"/>
<polygon fill="midnightblue" stroke="midnightblue" points="1046.53,-41.5001 1056.53,-38 1046.53,-34.5001 1046.53,-41.5001"/>
</g>
<!-- Node4 -->
<g id="node4" class="node"><title>Node4</title>
<g id="a_node4"><a xlink:href="classforcebalance_1_1gmxio_1_1AbInitio__GMX.html#a1d03ae8104bcecacf96884058f2698af" target="_top" xlink:title="forcebalance.gmxio.AbInitio\l_GMX.__init__">
<polygon fill="white" stroke="black" points="531.243,-67 531.243,-99 662.757,-99 662.757,-67 531.243,-67"/>
<text text-anchor="start" x="539.243" y="-86" font-family="Ubuntu-R" font-size="10.00">forcebalance.gmxio.AbInitio</text>
<text text-anchor="middle" x="597" y="-74" font-family="Ubuntu-R" font-size="10.00">_GMX.__init__</text>
</a>
</g>
</g>
<!-- Node3&#45;&gt;Node4 -->
<g id="edge3" class="edge"><title>Node3&#45;&gt;Node4</title>
<path fill="none" stroke="midnightblue" d="M494.028,-83C502.927,-83 512.041,-83 520.983,-83"/>
<polygon fill="midnightblue" stroke="midnightblue" points="520.985,-86.5001 530.985,-83 520.985,-79.5001 520.985,-86.5001"/>
</g>
<!-- Node12 -->
<g id="node12" class="node"><title>Node12</title>
<g id="a_node12"><a xlink:href="classforcebalance_1_1baseclass_1_1ForceBalanceBaseClass.html#abaaf4d99b043d41f02fabc41db59252b" target="_top" xlink:title="forcebalance.baseclass.Force\lBalanceBaseClass.set_option">
<polygon fill="white" stroke="black" points="530.265,-118 530.265,-150 663.735,-150 663.735,-118 530.265,-118"/>
<text text-anchor="start" x="538.265" y="-137" font-family="Ubuntu-R" font-size="10.00">forcebalance.baseclass.Force</text>
<text text-anchor="middle" x="597" y="-125" font-family="Ubuntu-R" font-size="10.00">BalanceBaseClass.set_option</text>
</a>
</g>
</g>
<!-- Node3&#45;&gt;Node12 -->
<g id="edge12" class="edge"><title>Node3&#45;&gt;Node12</title>
<path fill="none" stroke="midnightblue" d="M477.055,-99.1367C494.36,-104.209 513.624,-109.855 531.522,-115.101"/>
<polygon fill="midnightblue" stroke="midnightblue" points="530.723,-118.514 541.303,-117.968 532.692,-111.797 530.723,-118.514"/>
</g>
<!-- Node5 -->
<g id="node5" class="node"><title>Node5</title>
<g id="a_node5"><a xlink:href="classforcebalance_1_1gmxio_1_1AbInitio__GMX.html#aba138ca4195a1737f2f00bd8c5f3ca07" target="_top" xlink:title="This function parses the GROMACS topology file (.top) which contains a listing of the molecules in th...">
<polygon fill="white" stroke="black" points="700.243,-67 700.243,-99 831.757,-99 831.757,-67 700.243,-67"/>
<text text-anchor="start" x="708.243" y="-86" font-family="Ubuntu-R" font-size="10.00">forcebalance.gmxio.AbInitio</text>
<text text-anchor="middle" x="766" y="-74" font-family="Ubuntu-R" font-size="10.00">_GMX.read_topology</text>
</a>
</g>
</g>
<!-- Node4&#45;&gt;Node5 -->
<g id="edge4" class="edge"><title>Node4&#45;&gt;Node5</title>
<path fill="none" stroke="midnightblue" d="M663.045,-83C671.895,-83 681.036,-83 690.043,-83"/>
<polygon fill="midnightblue" stroke="midnightblue" points="690.133,-86.5001 700.133,-83 690.133,-79.5001 690.133,-86.5001"/>
</g>
<!-- Node6 -->
<g id="node6" class="node"><title>Node6</title>
<g id="a_node6"><a xlink:href="classforcebalance_1_1gmxio_1_1AbInitio__GMX.html#ab2eac76585bdb8401812f0c8e465a44e" target="_top" xlink:title="forcebalance.gmxio.AbInitio\l_GMX.prepare_temp_directory">
<polygon fill="white" stroke="black" points="868.553,-67 868.553,-99 1011.45,-99 1011.45,-67 868.553,-67"/>
<text text-anchor="start" x="876.553" y="-86" font-family="Ubuntu-R" font-size="10.00">forcebalance.gmxio.AbInitio</text>
<text text-anchor="middle" x="940" y="-74" font-family="Ubuntu-R" font-size="10.00">_GMX.prepare_temp_directory</text>
</a>
</g>
</g>
<!-- Node5&#45;&gt;Node6 -->
<g id="edge5" class="edge"><title>Node5&#45;&gt;Node6</title>
<path fill="none" stroke="midnightblue" d="M832.026,-83C840.573,-83 849.414,-83 858.183,-83"/>
<polygon fill="midnightblue" stroke="midnightblue" points="858.423,-86.5001 868.423,-83 858.423,-79.5001 858.423,-86.5001"/>
</g>
<!-- Node6&#45;&gt;Node1 -->
<g id="edge10" class="edge"><title>Node6&#45;&gt;Node1</title>
<path fill="none" stroke="midnightblue" d="M905.518,-99.0682C845.4,-126.397 714.548,-179 598,-179 420,-179 420,-179 420,-179 300.144,-179 168.156,-118.322 104.902,-85.1174"/>
<polygon fill="midnightblue" stroke="midnightblue" points="106.187,-81.8369 95.7144,-80.2328 102.901,-88.0177 106.187,-81.8369"/>
</g>
<!-- Node7 -->
<g id="node7" class="node"><title>Node7</title>
<g id="a_node7"><a xlink:href="namespaceforcebalance_1_1nifty.html#abb8f59044961a12588e0653c2baa8b01" target="_top" xlink:title="forcebalance.nifty.warn\l_press_key">
<polygon fill="white" stroke="black" points="1055.53,-112 1055.53,-144 1166.47,-144 1166.47,-112 1055.53,-112"/>
<text text-anchor="start" x="1063.53" y="-131" font-family="Ubuntu-R" font-size="10.00">forcebalance.nifty.warn</text>
<text text-anchor="middle" x="1111" y="-119" font-family="Ubuntu-R" font-size="10.00">_press_key</text>
</a>
</g>
</g>
<!-- Node6&#45;&gt;Node7 -->
<g id="edge6" class="edge"><title>Node6&#45;&gt;Node7</title>
<path fill="none" stroke="midnightblue" d="M1001.54,-99.1189C1015.85,-102.93 1031.16,-107.008 1045.64,-110.862"/>
<polygon fill="midnightblue" stroke="midnightblue" points="1044.94,-114.298 1055.5,-113.489 1046.74,-107.534 1044.94,-114.298"/>
</g>
<!-- Node9 -->
<g id="node9" class="node"><title>Node9</title>
<g id="a_node9"><a xlink:href="namespaceforcebalance_1_1nifty.html#ab182a9da2a2f42cf45942fbee6acf9b1" target="_top" xlink:title="forcebalance.nifty.LinkFile">
<polygon fill="white" stroke="black" points="1048.3,-73 1048.3,-93 1173.7,-93 1173.7,-73 1048.3,-73"/>
<text text-anchor="middle" x="1111" y="-80" font-family="Ubuntu-R" font-size="10.00">forcebalance.nifty.LinkFile</text>
</a>
</g>
</g>
<!-- Node6&#45;&gt;Node9 -->
<g id="edge8" class="edge"><title>Node6&#45;&gt;Node9</title>
<path fill="none" stroke="midnightblue" d="M1011.69,-83C1020.4,-83 1029.32,-83 1038.05,-83"/>
<polygon fill="midnightblue" stroke="midnightblue" points="1038.19,-86.5001 1048.19,-83 1038.19,-79.5001 1038.19,-86.5001"/>
</g>
<!-- Node6&#45;&gt;Node11 -->
<g id="edge11" class="edge"><title>Node6&#45;&gt;Node11</title>
<path fill="none" stroke="midnightblue" d="M1001.54,-66.8811C1016.16,-62.9878 1031.82,-58.8167 1046.57,-54.8893"/>
<polygon fill="midnightblue" stroke="midnightblue" points="1047.85,-58.1709 1056.61,-52.2156 1046.05,-51.4066 1047.85,-58.1709"/>
</g>
<!-- Node8 -->
<g id="node8" class="node"><title>Node8</title>
<g id="a_node8"><a xlink:href="namespaceforcebalance_1_1nifty.html#a2fc81730e7efa7d138dd86f733507bfc" target="_top" xlink:title="Similar to the bultin function map().">
<polygon fill="white" stroke="black" points="1210.04,-118 1210.04,-138 1365.96,-138 1365.96,-118 1210.04,-118"/>
<text text-anchor="middle" x="1288" y="-125" font-family="Ubuntu-R" font-size="10.00">forcebalance.nifty.concurrent_map</text>
</a>
</g>
</g>
<!-- Node7&#45;&gt;Node8 -->
<g id="edge7" class="edge"><title>Node7&#45;&gt;Node8</title>
<path fill="none" stroke="midnightblue" d="M1166.89,-128C1177.33,-128 1188.49,-128 1199.64,-128"/>
<polygon fill="midnightblue" stroke="midnightblue" points="1199.87,-131.5 1209.87,-128 1199.87,-124.5 1199.87,-131.5"/>
</g>
<!-- Node10 -->
<g id="node10" class="node"><title>Node10</title>
<g id="a_node10"><a xlink:href="namespaceforcebalance_1_1nifty.html#a25efa4d501ad852a234721af18978f7e" target="_top" xlink:title="Remove the file if it exists (doesn&#39;t return an error).">
<polygon fill="white" stroke="black" points="1227.53,-67 1227.53,-99 1348.47,-99 1348.47,-67 1227.53,-67"/>
<text text-anchor="start" x="1235.53" y="-86" font-family="Ubuntu-R" font-size="10.00">forcebalance.nifty.remove</text>
<text text-anchor="middle" x="1288" y="-74" font-family="Ubuntu-R" font-size="10.00">_if_exists</text>
</a>
</g>
</g>
<!-- Node9&#45;&gt;Node10 -->
<g id="edge9" class="edge"><title>Node9&#45;&gt;Node10</title>
<path fill="none" stroke="midnightblue" d="M1174.19,-83C1188.1,-83 1202.95,-83 1217.15,-83"/>
<polygon fill="midnightblue" stroke="midnightblue" points="1217.36,-86.5001 1227.36,-83 1217.36,-79.5001 1217.36,-86.5001"/>
</g>
</g>
</svg>
