<?xml version="1.0" encoding="UTF-8" standalone="no"?>
<!DOCTYPE svg PUBLIC "-//W3C//DTD SVG 1.1//EN"
 "http://www.w3.org/Graphics/SVG/1.1/DTD/svg11.dtd">
<!-- Generated by graphviz version 2.26.3 (20100126.1600)
 -->
<!-- Title: forcebalance.gmxio.Interaction_GMX.prepare_temp_directory Pages: 1 -->
<svg width="1596pt" height="250pt"
 viewBox="0.00 0.00 1596.00 250.00" xmlns="http://www.w3.org/2000/svg" xmlns:xlink="http://www.w3.org/1999/xlink">
<g id="graph1" class="graph" transform="scale(1 1) rotate(0) translate(4 246)">
<title>forcebalance.gmxio.Interaction_GMX.prepare_temp_directory</title>
<polygon fill="white" stroke="white" points="-4,5 -4,-246 1593,-246 1593,5 -4,5"/>
<!-- Node1 -->
<g id="node1" class="node"><title>Node1</title>
<polygon fill="#bfbfbf" stroke="black" points="0,-133 0,-167 164,-167 164,-133 0,-133"/>
<text text-anchor="start" x="8" y="-154" font-family="Ubuntu-R" font-size="10.00">forcebalance.gmxio.Interaction</text>
<text text-anchor="middle" x="82" y="-141" font-family="Ubuntu-R" font-size="10.00">_GMX.prepare_temp_directory</text>
</g>
<!-- Node2 -->
<g id="node3" class="node"><title>Node2</title>
<a xlink:href="namespaceforcebalance_1_1nifty.html#ab182a9da2a2f42cf45942fbee6acf9b1" target="_top" xlink:title="forcebalance.nifty.LinkFile">
<polygon fill="white" stroke="black" points="214,-212.5 214,-233.5 350,-233.5 350,-212.5 214,-212.5"/>
<text text-anchor="middle" x="282" y="-220.5" font-family="Ubuntu-R" font-size="10.00">forcebalance.nifty.LinkFile</text>
</a>
</g>
<!-- Node1&#45;&gt;Node2 -->
<g id="edge2" class="edge"><title>Node1&#45;&gt;Node2</title>
<path fill="none" stroke="midnightblue" d="M116.508,-167.007C139.721,-177.997 171.225,-192.051 200,-202 208.086,-204.796 216.735,-207.406 225.273,-209.771"/>
<polygon fill="midnightblue" stroke="midnightblue" points="224.639,-213.224 235.204,-212.43 226.45,-206.462 224.639,-213.224"/>
</g>
<!-- Node4 -->
<g id="node7" class="node"><title>Node4</title>
<a xlink:href="classforcebalance_1_1gmxio_1_1Interaction__GMX.html#a8ce5c501d7ca8ae08ee2f5c21a67e0fc" target="_top" xlink:title="Computes the energy and force using GROMACS for a single snapshot.">
<polygon fill="white" stroke="black" points="200,-159 200,-193 364,-193 364,-159 200,-159"/>
<text text-anchor="start" x="208" y="-180" font-family="Ubuntu-R" font-size="10.00">forcebalance.gmxio.Interaction</text>
<text text-anchor="middle" x="282" y="-167" font-family="Ubuntu-R" font-size="10.00">_GMX.interaction_driver</text>
</a>
</g>
<!-- Node1&#45;&gt;Node4 -->
<g id="edge6" class="edge"><title>Node1&#45;&gt;Node4</title>
<path fill="none" stroke="midnightblue" d="M164.213,-160.688C172.654,-161.785 181.27,-162.905 189.809,-164.015"/>
<polygon fill="midnightblue" stroke="midnightblue" points="189.415,-167.493 199.783,-165.312 190.317,-160.552 189.415,-167.493"/>
</g>
<!-- Node5 -->
<g id="node9" class="node"><title>Node5</title>
<a xlink:href="classforcebalance_1_1gmxio_1_1Interaction__GMX.html#a5bac92638e1962f1ccbe189f4e20898b" target="_top" xlink:title="Computes the energy and force using GROMACS for a trajectory.">
<polygon fill="white" stroke="black" points="200,-107 200,-141 364,-141 364,-107 200,-107"/>
<text text-anchor="start" x="208" y="-128" font-family="Ubuntu-R" font-size="10.00">forcebalance.gmxio.Interaction</text>
<text text-anchor="middle" x="282" y="-115" font-family="Ubuntu-R" font-size="10.00">_GMX.interaction_driver_all</text>
</a>
</g>
<!-- Node1&#45;&gt;Node5 -->
<g id="edge8" class="edge"><title>Node1&#45;&gt;Node5</title>
<path fill="none" stroke="midnightblue" d="M164.213,-139.312C172.654,-138.215 181.27,-137.095 189.809,-135.985"/>
<polygon fill="midnightblue" stroke="midnightblue" points="190.317,-139.448 199.783,-134.688 189.415,-132.507 190.317,-139.448"/>
</g>
<!-- Node18 -->
<g id="node39" class="node"><title>Node18</title>
<a xlink:href="namespaceforcebalance_1_1gmxio.html#acac8488f29b62fb0d4cb54bb5a041026" target="_top" xlink:title="forcebalance.gmxio.rm\l_gmx_baks">
<polygon fill="white" stroke="black" points="219,-55 219,-89 345,-89 345,-55 219,-55"/>
<text text-anchor="start" x="227" y="-76" font-family="Ubuntu-R" font-size="10.00">forcebalance.gmxio.rm</text>
<text text-anchor="middle" x="282" y="-63" font-family="Ubuntu-R" font-size="10.00">_gmx_baks</text>
</a>
</g>
<!-- Node1&#45;&gt;Node18 -->
<g id="edge42" class="edge"><title>Node1&#45;&gt;Node18</title>
<path fill="none" stroke="midnightblue" d="M117.993,-132.927C141.152,-122.246 172.04,-108.558 200,-98 205.065,-96.0875 210.339,-94.1953 215.663,-92.356"/>
<polygon fill="midnightblue" stroke="midnightblue" points="216.911,-95.6286 225.263,-89.1094 214.669,-88.9975 216.911,-95.6286"/>
</g>
<!-- Node3 -->
<g id="node5" class="node"><title>Node3</title>
<a xlink:href="namespaceforcebalance_1_1nifty.html#a25efa4d501ad852a234721af18978f7e" target="_top" xlink:title="Remove the file if it exists (doesn&#39;t return an error).">
<polygon fill="white" stroke="black" points="411.5,-208 411.5,-242 550.5,-242 550.5,-208 411.5,-208"/>
<text text-anchor="start" x="419.5" y="-229" font-family="Ubuntu-R" font-size="10.00">forcebalance.nifty.remove</text>
<text text-anchor="middle" x="481" y="-216" font-family="Ubuntu-R" font-size="10.00">_if_exists</text>
</a>
</g>
<!-- Node2&#45;&gt;Node3 -->
<g id="edge4" class="edge"><title>Node2&#45;&gt;Node3</title>
<path fill="none" stroke="midnightblue" d="M350.206,-223.685C366.512,-223.849 384.066,-224.026 400.855,-224.195"/>
<polygon fill="midnightblue" stroke="midnightblue" points="401.157,-227.698 411.191,-224.298 401.227,-220.698 401.157,-227.698"/>
</g>
<!-- Node6 -->
<g id="node11" class="node"><title>Node6</title>
<a xlink:href="namespaceforcebalance_1_1nifty.html#ac37d4fe58ef70ed546ebfc45d12f7a5d" target="_top" xlink:title="forcebalance.nifty.getWork\lQueue">
<polygon fill="white" stroke="black" points="410.5,-156 410.5,-190 551.5,-190 551.5,-156 410.5,-156"/>
<text text-anchor="start" x="418.5" y="-177" font-family="Ubuntu-R" font-size="10.00">forcebalance.nifty.getWork</text>
<text text-anchor="middle" x="481" y="-164" font-family="Ubuntu-R" font-size="10.00">Queue</text>
</a>
</g>
<!-- Node5&#45;&gt;Node6 -->
<g id="edge10" class="edge"><title>Node5&#45;&gt;Node6</title>
<path fill="none" stroke="midnightblue" d="M351.042,-141C367.464,-145.044 385.111,-149.389 401.943,-153.534"/>
<polygon fill="midnightblue" stroke="midnightblue" points="401.196,-156.954 411.743,-155.947 402.87,-150.157 401.196,-156.954"/>
</g>
<!-- Node7 -->
<g id="node13" class="node"><title>Node7</title>
<a xlink:href="namespaceforcebalance_1_1nifty.html#abb8f59044961a12588e0653c2baa8b01" target="_top" xlink:title="forcebalance.nifty.warn\l_press_key">
<polygon fill="white" stroke="black" points="418.5,-104 418.5,-138 543.5,-138 543.5,-104 418.5,-104"/>
<text text-anchor="start" x="426.5" y="-125" font-family="Ubuntu-R" font-size="10.00">forcebalance.nifty.warn</text>
<text text-anchor="middle" x="481" y="-112" font-family="Ubuntu-R" font-size="10.00">_press_key</text>
</a>
</g>
<!-- Node5&#45;&gt;Node7 -->
<g id="edge12" class="edge"><title>Node5&#45;&gt;Node7</title>
<path fill="none" stroke="midnightblue" d="M364.09,-122.762C378.65,-122.543 393.723,-122.316 408.01,-122.1"/>
<polygon fill="midnightblue" stroke="midnightblue" points="408.309,-125.596 418.255,-121.946 408.203,-118.597 408.309,-125.596"/>
</g>
<!-- Node8 -->
<g id="node15" class="node"><title>Node8</title>
<a xlink:href="namespaceforcebalance_1_1qchemio.html#a067c1b4f6695fc5dc20b5de66114bb7f" target="_top" xlink:title="forcebalance.qchemio.QChem\l_Dielectric_Energy">
<polygon fill="white" stroke="black" points="400.5,-52 400.5,-86 561.5,-86 561.5,-52 400.5,-52"/>
<text text-anchor="start" x="408.5" y="-73" font-family="Ubuntu-R" font-size="10.00">forcebalance.qchemio.QChem</text>
<text text-anchor="middle" x="481" y="-60" font-family="Ubuntu-R" font-size="10.00">_Dielectric_Energy</text>
</a>
</g>
<!-- Node5&#45;&gt;Node8 -->
<g id="edge14" class="edge"><title>Node5&#45;&gt;Node8</title>
<path fill="none" stroke="midnightblue" d="M343.602,-106.974C364.489,-101.202 387.995,-94.705 409.58,-88.7391"/>
<polygon fill="midnightblue" stroke="midnightblue" points="410.64,-92.0775 419.346,-86.0399 408.775,-85.3304 410.64,-92.0775"/>
</g>
<!-- Node9 -->
<g id="node17" class="node"><title>Node9</title>
<a xlink:href="namespaceforcebalance_1_1nifty.html#ad432b88307e1178b0690c0d350b1af36" target="_top" xlink:title="forcebalance.nifty.GoInto">
<polygon fill="white" stroke="black" points="955,-149.5 955,-170.5 1089,-170.5 1089,-149.5 955,-149.5"/>
<text text-anchor="middle" x="1022" y="-157.5" font-family="Ubuntu-R" font-size="10.00">forcebalance.nifty.GoInto</text>
</a>
</g>
<!-- Node8&#45;&gt;Node9 -->
<g id="edge16" class="edge"><title>Node8&#45;&gt;Node9</title>
<path fill="none" stroke="midnightblue" d="M537.546,-86.1048C545.81,-88.9064 554.169,-91.9096 562,-95 578.459,-101.496 581.514,-105.573 598,-112 678.678,-143.453 698.395,-156.962 784,-170 841.998,-178.833 857.398,-172.758 916,-170 925.319,-169.561 935.083,-168.907 944.755,-168.139"/>
<polygon fill="midnightblue" stroke="midnightblue" points="945.104,-171.622 954.778,-167.302 944.521,-164.647 945.104,-171.622"/>
</g>
<!-- Node10 -->
<g id="node19" class="node"><title>Node10</title>
<a xlink:href="namespaceforcebalance_1_1nifty.html#a673f4a044169f5d8d822823989a836a7" target="_top" xlink:title="Submit a job to the Work Queue.">
<polygon fill="white" stroke="black" points="598,-81.5 598,-102.5 748,-102.5 748,-81.5 598,-81.5"/>
<text text-anchor="middle" x="673" y="-89.5" font-family="Ubuntu-R" font-size="10.00">forcebalance.nifty.queue_up</text>
</a>
</g>
<!-- Node8&#45;&gt;Node10 -->
<g id="edge18" class="edge"><title>Node8&#45;&gt;Node10</title>
<path fill="none" stroke="midnightblue" d="M561.591,-78.6541C570.221,-79.6879 579.021,-80.7421 587.703,-81.7822"/>
<polygon fill="midnightblue" stroke="midnightblue" points="587.479,-85.2802 597.824,-82.9945 588.311,-78.3299 587.479,-85.2802"/>
</g>
<!-- Node13 -->
<g id="node25" class="node"><title>Node13</title>
<a xlink:href="namespaceforcebalance_1_1nifty.html#a576de8c5b6f236280e07e73e39b2ab7c" target="_top" xlink:title="This function waits until the work queue is completely empty.">
<polygon fill="white" stroke="black" points="952.5,-42.5 952.5,-63.5 1091.5,-63.5 1091.5,-42.5 952.5,-42.5"/>
<text text-anchor="middle" x="1022" y="-50.5" font-family="Ubuntu-R" font-size="10.00">forcebalance.nifty.wq_wait</text>
</a>
</g>
<!-- Node8&#45;&gt;Node13 -->
<g id="edge40" class="edge"><title>Node8&#45;&gt;Node13</title>
<path fill="none" stroke="midnightblue" d="M561.701,-66.6133C664.221,-63.5813 840.063,-58.3808 942.167,-55.361"/>
<polygon fill="midnightblue" stroke="midnightblue" points="942.528,-58.852 952.42,-55.0578 942.321,-51.8551 942.528,-58.852"/>
</g>
<!-- Node17 -->
<g id="node35" class="node"><title>Node17</title>
<a xlink:href="namespaceforcebalance_1_1nifty.html#ab04e8690d099db2379dc860e0d040120" target="_top" xlink:title="forcebalance.nifty.Leave">
<polygon fill="white" stroke="black" points="956.5,-0.5 956.5,-21.5 1087.5,-21.5 1087.5,-0.5 956.5,-0.5"/>
<text text-anchor="middle" x="1022" y="-8.5" font-family="Ubuntu-R" font-size="10.00">forcebalance.nifty.Leave</text>
</a>
</g>
<!-- Node8&#45;&gt;Node17 -->
<g id="edge38" class="edge"><title>Node8&#45;&gt;Node17</title>
<path fill="none" stroke="midnightblue" d="M561.701,-60.3481C665.502,-49.2197 844.471,-30.0327 945.961,-19.152"/>
<polygon fill="midnightblue" stroke="midnightblue" points="946.568,-22.6072 956.137,-18.061 945.821,-15.6471 946.568,-22.6072"/>
</g>
<!-- Node11 -->
<g id="node21" class="node"><title>Node11</title>
<a xlink:href="namespaceforcebalance_1_1nifty.html#a5d5abeb4a185fde64721d044831e18ee" target="_top" xlink:title="Submit a job to the Work Queue.">
<polygon fill="white" stroke="black" points="784,-127 784,-161 916,-161 916,-127 784,-127"/>
<text text-anchor="start" x="792" y="-148" font-family="Ubuntu-R" font-size="10.00">forcebalance.nifty.queue</text>
<text text-anchor="middle" x="850" y="-135" font-family="Ubuntu-R" font-size="10.00">_up_src_dest</text>
</a>
</g>
<!-- Node10&#45;&gt;Node11 -->
<g id="edge20" class="edge"><title>Node10&#45;&gt;Node11</title>
<path fill="none" stroke="midnightblue" d="M708.819,-102.523C729.865,-108.706 757.16,-116.725 782.134,-124.062"/>
<polygon fill="midnightblue" stroke="midnightblue" points="781.355,-127.481 791.936,-126.942 783.328,-120.765 781.355,-127.481"/>
</g>
<!-- Node12 -->
<g id="node23" class="node"><title>Node12</title>
<a xlink:href="namespaceforcebalance_1_1nifty.html#a374aac2ef003be02fab49b20ff0a82f0" target="_top" xlink:title="This function waits ten seconds to see if a task in the Work Queue has finished.">
<polygon fill="white" stroke="black" points="792.5,-75 792.5,-109 907.5,-109 907.5,-75 792.5,-75"/>
<text text-anchor="start" x="800.5" y="-96" font-family="Ubuntu-R" font-size="10.00">forcebalance.nifty.wq</text>
<text text-anchor="middle" x="850" y="-83" font-family="Ubuntu-R" font-size="10.00">_wait1</text>
</a>
</g>
<!-- Node10&#45;&gt;Node12 -->
<g id="edge22" class="edge"><title>Node10&#45;&gt;Node12</title>
<path fill="none" stroke="midnightblue" d="M748.064,-92C759.39,-92 771.016,-92 782.177,-92"/>
<polygon fill="midnightblue" stroke="midnightblue" points="782.275,-95.5001 792.275,-92 782.275,-88.5001 782.275,-95.5001"/>
</g>
<!-- Node12&#45;&gt;Node9 -->
<g id="edge32" class="edge"><title>Node12&#45;&gt;Node9</title>
<path fill="none" stroke="midnightblue" d="M893.317,-109.05C900.879,-112.031 908.67,-115.104 916,-118 939.257,-127.188 965.373,-137.536 985.863,-145.661"/>
<polygon fill="midnightblue" stroke="midnightblue" points="984.847,-149.023 995.433,-149.456 987.427,-142.516 984.847,-149.023"/>
</g>
<!-- Node12&#45;&gt;Node13 -->
<g id="edge24" class="edge"><title>Node12&#45;&gt;Node13</title>
<path fill="none" stroke="midnightblue" d="M907.752,-78.9051C926.448,-74.6659 947.148,-69.9723 965.734,-65.7579"/>
<polygon fill="midnightblue" stroke="midnightblue" points="966.548,-69.1622 975.527,-63.5375 965.001,-62.3355 966.548,-69.1622"/>
</g>
<!-- Node14 -->
<g id="node27" class="node"><title>Node14</title>
<a xlink:href="namespaceforcebalance_1_1nifty.html#ac9ab6c5543a2e3080061e0024850edf3" target="_top" xlink:title="forcebalance.nifty.allsplit">
<polygon fill="white" stroke="black" points="1128,-61.5 1128,-82.5 1260,-82.5 1260,-61.5 1128,-61.5"/>
<text text-anchor="middle" x="1194" y="-69.5" font-family="Ubuntu-R" font-size="10.00">forcebalance.nifty.allsplit</text>
</a>
</g>
<!-- Node12&#45;&gt;Node14 -->
<g id="edge34" class="edge"><title>Node12&#45;&gt;Node14</title>
<path fill="none" stroke="midnightblue" d="M907.578,-88.6524C965.193,-85.3027 1054.16,-80.1304 1117.64,-76.4396"/>
<polygon fill="midnightblue" stroke="midnightblue" points="1118.21,-79.9121 1127.99,-75.8375 1117.81,-72.9239 1118.21,-79.9121"/>
</g>
<!-- Node12&#45;&gt;Node17 -->
<g id="edge36" class="edge"><title>Node12&#45;&gt;Node17</title>
<path fill="none" stroke="midnightblue" d="M876.004,-74.8143C896.133,-62.048 925.035,-44.8629 952,-33 958.734,-30.0375 965.992,-27.292 973.195,-24.8164"/>
<polygon fill="midnightblue" stroke="midnightblue" points="974.524,-28.0638 982.928,-21.6129 972.335,-21.4146 974.524,-28.0638"/>
</g>
<!-- Node13&#45;&gt;Node14 -->
<g id="edge26" class="edge"><title>Node13&#45;&gt;Node14</title>
<path fill="none" stroke="midnightblue" d="M1091.96,-60.728C1100.52,-61.6732 1109.29,-62.6427 1117.93,-63.5972"/>
<polygon fill="midnightblue" stroke="midnightblue" points="1117.67,-67.0892 1127.99,-64.7084 1118.44,-60.1315 1117.67,-67.0892"/>
</g>
<!-- Node15 -->
<g id="node29" class="node"><title>Node15</title>
<a xlink:href="namespaceforcebalance_1_1nifty.html#ae87c7def5f8edf2ec30737bdb1d2636f" target="_top" xlink:title="forcebalance.nifty.Missing\lFileInspection">
<polygon fill="white" stroke="black" points="1296,-55 1296,-89 1434,-89 1434,-55 1296,-55"/>
<text text-anchor="start" x="1304" y="-76" font-family="Ubuntu-R" font-size="10.00">forcebalance.nifty.Missing</text>
<text text-anchor="middle" x="1365" y="-63" font-family="Ubuntu-R" font-size="10.00">FileInspection</text>
</a>
</g>
<!-- Node14&#45;&gt;Node15 -->
<g id="edge28" class="edge"><title>Node14&#45;&gt;Node15</title>
<path fill="none" stroke="midnightblue" d="M1260.11,-72C1268.56,-72 1277.27,-72 1285.89,-72"/>
<polygon fill="midnightblue" stroke="midnightblue" points="1285.95,-75.5001 1295.95,-72 1285.95,-68.5001 1285.95,-75.5001"/>
</g>
<!-- Node16 -->
<g id="node31" class="node"><title>Node16</title>
<a xlink:href="namespaceforcebalance_1_1nifty.html#a0cf4e58f90acf20e3d6224be2354082c" target="_top" xlink:title="forcebalance.nifty.link\l_dir_contents">
<polygon fill="white" stroke="black" points="1470,-55 1470,-89 1588,-89 1588,-55 1470,-55"/>
<text text-anchor="start" x="1478" y="-76" font-family="Ubuntu-R" font-size="10.00">forcebalance.nifty.link</text>
<text text-anchor="middle" x="1529" y="-63" font-family="Ubuntu-R" font-size="10.00">_dir_contents</text>
</a>
</g>
<!-- Node15&#45;&gt;Node16 -->
<g id="edge30" class="edge"><title>Node15&#45;&gt;Node16</title>
<path fill="none" stroke="midnightblue" d="M1434.08,-72C1442.54,-72 1451.19,-72 1459.66,-72"/>
<polygon fill="midnightblue" stroke="midnightblue" points="1459.87,-75.5001 1469.87,-72 1459.87,-68.5001 1459.87,-75.5001"/>
</g>
</g>
</svg>
