<?xml version="1.0" encoding="UTF-8" standalone="no"?>
<!DOCTYPE svg PUBLIC "-//W3C//DTD SVG 1.1//EN"
 "http://www.w3.org/Graphics/SVG/1.1/DTD/svg11.dtd">
<!-- Generated by graphviz version 2.32.0 (20130801.1845)
 -->
<!-- Title: forcebalance.openmmio.Liquid_OpenMM.polarization_correction Pages: 1 -->
<svg width="2456pt" height="164pt"
 viewBox="0.00 0.00 2456.00 164.00" xmlns="http://www.w3.org/2000/svg" xmlns:xlink="http://www.w3.org/1999/xlink">
<g id="graph0" class="graph" transform="scale(1 1) rotate(0) translate(4 160)">
<title>forcebalance.openmmio.Liquid_OpenMM.polarization_correction</title>
<polygon fill="white" stroke="white" points="-4,5 -4,-160 2453,-160 2453,5 -4,5"/>
<!-- Node1 -->
<g id="node1" class="node"><title>Node1</title>
<polygon fill="#bfbfbf" stroke="black" points="-0.1155,-76 -0.1155,-108 156.115,-108 156.115,-76 -0.1155,-76"/>
<text text-anchor="start" x="7.8845" y="-95" font-family="Ubuntu-R" font-size="10.00">forcebalance.openmmio.Liquid</text>
<text text-anchor="middle" x="78" y="-83" font-family="Ubuntu-R" font-size="10.00">_OpenMM.polarization_correction</text>
</g>
<!-- Node2 -->
<g id="node2" class="node"><title>Node2</title>
<g id="a_node2"><a xlink:href="namespaceforcebalance_1_1openmmio.html#af623fa5af97de6c6a0bc5f98ce8db432" target="_top" xlink:title="Given a set of OpenMM&#45;compatible positions and a System object, compute the correct virtual site posi...">
<polygon fill="white" stroke="black" points="370.469,-124 370.469,-156 507.531,-156 507.531,-124 370.469,-124"/>
<text text-anchor="start" x="378.469" y="-143" font-family="Ubuntu-R" font-size="10.00">forcebalance.openmmio.Reset</text>
<text text-anchor="middle" x="439" y="-131" font-family="Ubuntu-R" font-size="10.00">VirtualSites</text>
</a>
</g>
</g>
<!-- Node1&#45;&gt;Node2 -->
<g id="edge1" class="edge"><title>Node1&#45;&gt;Node2</title>
<path fill="none" stroke="midnightblue" d="M106.19,-108.244C128.401,-120.515 161.069,-136.343 192,-143 247.355,-154.913 311.349,-153.683 360.19,-149.728"/>
<polygon fill="midnightblue" stroke="midnightblue" points="360.712,-153.196 370.373,-148.846 360.108,-146.222 360.712,-153.196"/>
</g>
<!-- Node14 -->
<g id="node14" class="node"><title>Node14</title>
<g id="a_node14"><a xlink:href="namespaceforcebalance_1_1openmmio.html#a8a2081dcaf027b9b9ab224e22680714d" target="_top" xlink:title="Return the current dipole moment in Debye.">
<polygon fill="white" stroke="black" points="199.467,-102 199.467,-134 326.533,-134 326.533,-102 199.467,-102"/>
<text text-anchor="start" x="207.467" y="-121" font-family="Ubuntu-R" font-size="10.00">forcebalance.openmmio.get</text>
<text text-anchor="middle" x="263" y="-109" font-family="Ubuntu-R" font-size="10.00">_dipole</text>
</a>
</g>
</g>
<!-- Node1&#45;&gt;Node14 -->
<g id="edge13" class="edge"><title>Node1&#45;&gt;Node14</title>
<path fill="none" stroke="midnightblue" d="M156.343,-102.989C167.21,-104.533 178.35,-106.115 189.129,-107.647"/>
<polygon fill="midnightblue" stroke="midnightblue" points="188.94,-111.155 199.333,-109.097 189.925,-104.225 188.94,-111.155"/>
</g>
<!-- Node15 -->
<g id="node15" class="node"><title>Node15</title>
<g id="a_node15"><a xlink:href="namespaceforcebalance_1_1finite__difference.html#ad84d3e385db1190e7d8ef58bc08a6c52" target="_top" xlink:title="Invoking this function from anywhere will tell us whether we&#39;re being called by a finite&#45;difference f...">
<polygon fill="white" stroke="black" points="217.662,-51 217.662,-83 308.338,-83 308.338,-51 217.662,-51"/>
<text text-anchor="start" x="225.662" y="-70" font-family="Ubuntu-R" font-size="10.00">forcebalance.finite</text>
<text text-anchor="middle" x="263" y="-58" font-family="Ubuntu-R" font-size="10.00">_difference.in_fd</text>
</a>
</g>
</g>
<!-- Node1&#45;&gt;Node15 -->
<g id="edge15" class="edge"><title>Node1&#45;&gt;Node15</title>
<path fill="none" stroke="midnightblue" d="M156.343,-81.434C173.468,-79.0946 191.27,-76.6626 207.272,-74.4765"/>
<polygon fill="midnightblue" stroke="midnightblue" points="208.069,-77.9003 217.503,-73.0789 207.121,-70.9647 208.069,-77.9003"/>
</g>
<!-- Node16 -->
<g id="node16" class="node"><title>Node16</title>
<g id="a_node16"><a xlink:href="classforcebalance_1_1openmmio_1_1Liquid__OpenMM.html#a92379bd73128234b309fae789946035d" target="_top" xlink:title="forcebalance.openmmio.Liquid\l_OpenMM.__init__">
<polygon fill="white" stroke="black" points="192.243,-0 192.243,-32 333.757,-32 333.757,-0 192.243,-0"/>
<text text-anchor="start" x="200.243" y="-19" font-family="Ubuntu-R" font-size="10.00">forcebalance.openmmio.Liquid</text>
<text text-anchor="middle" x="263" y="-7" font-family="Ubuntu-R" font-size="10.00">_OpenMM.__init__</text>
</a>
</g>
</g>
<!-- Node1&#45;&gt;Node16 -->
<g id="edge16" class="edge"><title>Node1&#45;&gt;Node16</title>
<path fill="none" stroke="midnightblue" d="M113.886,-75.9054C136.101,-65.8207 165.568,-52.7448 192,-42 197.104,-39.9251 202.443,-37.8226 207.797,-35.7587"/>
<polygon fill="midnightblue" stroke="midnightblue" points="209.306,-38.9295 217.406,-32.1 206.815,-32.3877 209.306,-38.9295"/>
</g>
<!-- Node3 -->
<g id="node3" class="node"><title>Node3</title>
<g id="a_node3"><a xlink:href="namespaceforcebalance_1_1openmmio.html#a792a195b31612f2140b35927fe28fa1a" target="_top" xlink:title="forcebalance.openmmio.Copy\lAmoebaBondParameters">
<polygon fill="white" stroke="black" points="544.742,-124 544.742,-156 681.258,-156 681.258,-124 544.742,-124"/>
<text text-anchor="start" x="552.742" y="-143" font-family="Ubuntu-R" font-size="10.00">forcebalance.openmmio.Copy</text>
<text text-anchor="middle" x="613" y="-131" font-family="Ubuntu-R" font-size="10.00">AmoebaBondParameters</text>
</a>
</g>
</g>
<!-- Node2&#45;&gt;Node3 -->
<g id="edge2" class="edge"><title>Node2&#45;&gt;Node3</title>
<path fill="none" stroke="midnightblue" d="M507.979,-140C516.618,-140 525.511,-140 534.287,-140"/>
<polygon fill="midnightblue" stroke="midnightblue" points="534.515,-143.5 544.515,-140 534.515,-136.5 534.515,-143.5"/>
</g>
<!-- Node4 -->
<g id="node4" class="node"><title>Node4</title>
<g id="a_node4"><a xlink:href="namespaceforcebalance_1_1openmmio.html#a2e95f600757655d41660c25af8fd8e80" target="_top" xlink:title="forcebalance.openmmio.Copy\lAmoebaOutOfPlaneBendParameters">
<polygon fill="white" stroke="black" points="718.417,-124 718.417,-156 881.583,-156 881.583,-124 718.417,-124"/>
<text text-anchor="start" x="726.417" y="-143" font-family="Ubuntu-R" font-size="10.00">forcebalance.openmmio.Copy</text>
<text text-anchor="middle" x="800" y="-131" font-family="Ubuntu-R" font-size="10.00">AmoebaOutOfPlaneBendParameters</text>
</a>
</g>
</g>
<!-- Node3&#45;&gt;Node4 -->
<g id="edge3" class="edge"><title>Node3&#45;&gt;Node4</title>
<path fill="none" stroke="midnightblue" d="M681.313,-140C690.02,-140 699.05,-140 708.059,-140"/>
<polygon fill="midnightblue" stroke="midnightblue" points="708.205,-143.5 718.205,-140 708.205,-136.5 708.205,-143.5"/>
</g>
<!-- Node5 -->
<g id="node5" class="node"><title>Node5</title>
<g id="a_node5"><a xlink:href="namespaceforcebalance_1_1openmmio.html#abe9a6b9b200dc8487e56dad7249af3ec" target="_top" xlink:title="forcebalance.openmmio.Copy\lAmoebaAngleParameters">
<polygon fill="white" stroke="black" points="918.742,-124 918.742,-156 1055.26,-156 1055.26,-124 918.742,-124"/>
<text text-anchor="start" x="926.742" y="-143" font-family="Ubuntu-R" font-size="10.00">forcebalance.openmmio.Copy</text>
<text text-anchor="middle" x="987" y="-131" font-family="Ubuntu-R" font-size="10.00">AmoebaAngleParameters</text>
</a>
</g>
</g>
<!-- Node4&#45;&gt;Node5 -->
<g id="edge4" class="edge"><title>Node4&#45;&gt;Node5</title>
<path fill="none" stroke="midnightblue" d="M881.606,-140C890.494,-140 899.531,-140 908.381,-140"/>
<polygon fill="midnightblue" stroke="midnightblue" points="908.665,-143.5 918.665,-140 908.665,-136.5 908.665,-143.5"/>
</g>
<!-- Node6 -->
<g id="node6" class="node"><title>Node6</title>
<g id="a_node6"><a xlink:href="namespaceforcebalance_1_1openmmio.html#ad0d4739f80f2aab1a861f2e03b8efcd6" target="_top" xlink:title="forcebalance.openmmio.Copy\lAmoebaInPlaneAngleParameters">
<polygon fill="white" stroke="black" points="1092.36,-124 1092.36,-156 1241.64,-156 1241.64,-124 1092.36,-124"/>
<text text-anchor="start" x="1100.36" y="-143" font-family="Ubuntu-R" font-size="10.00">forcebalance.openmmio.Copy</text>
<text text-anchor="middle" x="1167" y="-131" font-family="Ubuntu-R" font-size="10.00">AmoebaInPlaneAngleParameters</text>
</a>
</g>
</g>
<!-- Node5&#45;&gt;Node6 -->
<g id="edge5" class="edge"><title>Node5&#45;&gt;Node6</title>
<path fill="none" stroke="midnightblue" d="M1055.29,-140C1064.02,-140 1073.04,-140 1082,-140"/>
<polygon fill="midnightblue" stroke="midnightblue" points="1082.06,-143.5 1092.06,-140 1082.06,-136.5 1082.06,-143.5"/>
</g>
<!-- Node7 -->
<g id="node7" class="node"><title>Node7</title>
<g id="a_node7"><a xlink:href="namespaceforcebalance_1_1openmmio.html#abe005f73c6dfe9ce1052c9434bcad9be" target="_top" xlink:title="forcebalance.openmmio.Copy\lAmoebaVdwParameters">
<polygon fill="white" stroke="black" points="1278.74,-124 1278.74,-156 1415.26,-156 1415.26,-124 1278.74,-124"/>
<text text-anchor="start" x="1286.74" y="-143" font-family="Ubuntu-R" font-size="10.00">forcebalance.openmmio.Copy</text>
<text text-anchor="middle" x="1347" y="-131" font-family="Ubuntu-R" font-size="10.00">AmoebaVdwParameters</text>
</a>
</g>
</g>
<!-- Node6&#45;&gt;Node7 -->
<g id="edge6" class="edge"><title>Node6&#45;&gt;Node7</title>
<path fill="none" stroke="midnightblue" d="M1241.68,-140C1250.58,-140 1259.68,-140 1268.63,-140"/>
<polygon fill="midnightblue" stroke="midnightblue" points="1268.64,-143.5 1278.64,-140 1268.64,-136.5 1268.64,-143.5"/>
</g>
<!-- Node8 -->
<g id="node8" class="node"><title>Node8</title>
<g id="a_node8"><a xlink:href="namespaceforcebalance_1_1openmmio.html#a3706c19e71969cabe5782a4535abeffe" target="_top" xlink:title="forcebalance.openmmio.Copy\lAmoebaMultipoleParameters">
<polygon fill="white" stroke="black" points="1452.74,-124 1452.74,-156 1589.26,-156 1589.26,-124 1452.74,-124"/>
<text text-anchor="start" x="1460.74" y="-143" font-family="Ubuntu-R" font-size="10.00">forcebalance.openmmio.Copy</text>
<text text-anchor="middle" x="1521" y="-131" font-family="Ubuntu-R" font-size="10.00">AmoebaMultipoleParameters</text>
</a>
</g>
</g>
<!-- Node7&#45;&gt;Node8 -->
<g id="edge7" class="edge"><title>Node7&#45;&gt;Node8</title>
<path fill="none" stroke="midnightblue" d="M1415.49,-140C1424.37,-140 1433.54,-140 1442.58,-140"/>
<polygon fill="midnightblue" stroke="midnightblue" points="1442.71,-143.5 1452.71,-140 1442.71,-136.5 1442.71,-143.5"/>
</g>
<!-- Node9 -->
<g id="node9" class="node"><title>Node9</title>
<g id="a_node9"><a xlink:href="namespaceforcebalance_1_1openmmio.html#a616f12cc53381716e5fa41f00bf623be" target="_top" xlink:title="forcebalance.openmmio.Copy\lHarmonicBondParameters">
<polygon fill="white" stroke="black" points="1626.74,-124 1626.74,-156 1763.26,-156 1763.26,-124 1626.74,-124"/>
<text text-anchor="start" x="1634.74" y="-143" font-family="Ubuntu-R" font-size="10.00">forcebalance.openmmio.Copy</text>
<text text-anchor="middle" x="1695" y="-131" font-family="Ubuntu-R" font-size="10.00">HarmonicBondParameters</text>
</a>
</g>
</g>
<!-- Node8&#45;&gt;Node9 -->
<g id="edge8" class="edge"><title>Node8&#45;&gt;Node9</title>
<path fill="none" stroke="midnightblue" d="M1589.49,-140C1598.37,-140 1607.54,-140 1616.58,-140"/>
<polygon fill="midnightblue" stroke="midnightblue" points="1616.71,-143.5 1626.71,-140 1616.71,-136.5 1616.71,-143.5"/>
</g>
<!-- Node10 -->
<g id="node10" class="node"><title>Node10</title>
<g id="a_node10"><a xlink:href="namespaceforcebalance_1_1openmmio.html#af4ed16f5e2b1cd12bce2f25fab1b05bc" target="_top" xlink:title="forcebalance.openmmio.Copy\lHarmonicAngleParameters">
<polygon fill="white" stroke="black" points="1800.74,-124 1800.74,-156 1937.26,-156 1937.26,-124 1800.74,-124"/>
<text text-anchor="start" x="1808.74" y="-143" font-family="Ubuntu-R" font-size="10.00">forcebalance.openmmio.Copy</text>
<text text-anchor="middle" x="1869" y="-131" font-family="Ubuntu-R" font-size="10.00">HarmonicAngleParameters</text>
</a>
</g>
</g>
<!-- Node9&#45;&gt;Node10 -->
<g id="edge9" class="edge"><title>Node9&#45;&gt;Node10</title>
<path fill="none" stroke="midnightblue" d="M1763.49,-140C1772.37,-140 1781.54,-140 1790.58,-140"/>
<polygon fill="midnightblue" stroke="midnightblue" points="1790.71,-143.5 1800.71,-140 1790.71,-136.5 1790.71,-143.5"/>
</g>
<!-- Node11 -->
<g id="node11" class="node"><title>Node11</title>
<g id="a_node11"><a xlink:href="namespaceforcebalance_1_1openmmio.html#a8f13702754f0b4e43e272139a2ce8341" target="_top" xlink:title="forcebalance.openmmio.Copy\lPeriodicTorsionParameters">
<polygon fill="white" stroke="black" points="1974.74,-124 1974.74,-156 2111.26,-156 2111.26,-124 1974.74,-124"/>
<text text-anchor="start" x="1982.74" y="-143" font-family="Ubuntu-R" font-size="10.00">forcebalance.openmmio.Copy</text>
<text text-anchor="middle" x="2043" y="-131" font-family="Ubuntu-R" font-size="10.00">PeriodicTorsionParameters</text>
</a>
</g>
</g>
<!-- Node10&#45;&gt;Node11 -->
<g id="edge10" class="edge"><title>Node10&#45;&gt;Node11</title>
<path fill="none" stroke="midnightblue" d="M1937.49,-140C1946.37,-140 1955.54,-140 1964.58,-140"/>
<polygon fill="midnightblue" stroke="midnightblue" points="1964.71,-143.5 1974.71,-140 1964.71,-136.5 1964.71,-143.5"/>
</g>
<!-- Node12 -->
<g id="node12" class="node"><title>Node12</title>
<g id="a_node12"><a xlink:href="namespaceforcebalance_1_1openmmio.html#afead47464a644d9225f9fa8eb568a8ed" target="_top" xlink:title="forcebalance.openmmio.Copy\lNonbondedParameters">
<polygon fill="white" stroke="black" points="2148.74,-124 2148.74,-156 2285.26,-156 2285.26,-124 2148.74,-124"/>
<text text-anchor="start" x="2156.74" y="-143" font-family="Ubuntu-R" font-size="10.00">forcebalance.openmmio.Copy</text>
<text text-anchor="middle" x="2217" y="-131" font-family="Ubuntu-R" font-size="10.00">NonbondedParameters</text>
</a>
</g>
</g>
<!-- Node11&#45;&gt;Node12 -->
<g id="edge11" class="edge"><title>Node11&#45;&gt;Node12</title>
<path fill="none" stroke="midnightblue" d="M2111.49,-140C2120.37,-140 2129.54,-140 2138.58,-140"/>
<polygon fill="midnightblue" stroke="midnightblue" points="2138.71,-143.5 2148.71,-140 2138.71,-136.5 2138.71,-143.5"/>
</g>
<!-- Node13 -->
<g id="node13" class="node"><title>Node13</title>
<g id="a_node13"><a xlink:href="namespaceforcebalance_1_1openmmio.html#a2bb7add6b813d94f2655372c51fe8fdc" target="_top" xlink:title="forcebalance.openmmio.do\l_nothing">
<polygon fill="white" stroke="black" points="2322.58,-124 2322.58,-156 2447.42,-156 2447.42,-124 2322.58,-124"/>
<text text-anchor="start" x="2330.58" y="-143" font-family="Ubuntu-R" font-size="10.00">forcebalance.openmmio.do</text>
<text text-anchor="middle" x="2385" y="-131" font-family="Ubuntu-R" font-size="10.00">_nothing</text>
</a>
</g>
</g>
<!-- Node12&#45;&gt;Node13 -->
<g id="edge12" class="edge"><title>Node12&#45;&gt;Node13</title>
<path fill="none" stroke="midnightblue" d="M2285.52,-140C2294.29,-140 2303.31,-140 2312.15,-140"/>
<polygon fill="midnightblue" stroke="midnightblue" points="2312.42,-143.5 2322.42,-140 2312.42,-136.5 2312.42,-143.5"/>
</g>
<!-- Node14&#45;&gt;Node2 -->
<g id="edge14" class="edge"><title>Node14&#45;&gt;Node2</title>
<path fill="none" stroke="midnightblue" d="M326.818,-125.943C337.625,-127.309 348.972,-128.744 360.118,-130.153"/>
<polygon fill="midnightblue" stroke="midnightblue" points="359.915,-133.655 370.276,-131.437 360.794,-126.71 359.915,-133.655"/>
</g>
</g>
</svg>
