<?xml version="1.0" encoding="UTF-8" standalone="no"?>
<!DOCTYPE svg PUBLIC "-//W3C//DTD SVG 1.1//EN"
 "http://www.w3.org/Graphics/SVG/1.1/DTD/svg11.dtd">
<!-- Generated by graphviz version 2.26.3 (20100126.1600)
 -->
<!-- Title: forcebalance.vibration.Vibration Pages: 1 -->
<svg width="176pt" height="204pt"
 viewBox="0.00 0.00 176.00 204.00" xmlns="http://www.w3.org/2000/svg" xmlns:xlink="http://www.w3.org/1999/xlink">
<g id="graph1" class="graph" transform="scale(1 1) rotate(0) translate(4 200)">
<title>forcebalance.vibration.Vibration</title>
<polygon fill="white" stroke="white" points="-4,5 -4,-200 173,-200 173,5 -4,5"/>
<!-- Node1 -->
<g id="node1" class="node"><title>Node1</title>
<polygon fill="#bfbfbf" stroke="black" points="0,-0.5 0,-21.5 168,-21.5 168,-0.5 0,-0.5"/>
<text text-anchor="middle" x="84" y="-8.5" font-family="Ubuntu-R" font-size="10.00">forcebalance.vibration.Vibration</text>
</g>
<!-- Node2 -->
<g id="node2" class="node"><title>Node2</title>
<a xlink:href="classforcebalance_1_1target_1_1Target.html" target="_top" xlink:title="Base class for all fitting targets.">
<polygon fill="white" stroke="black" points="13,-58.5 13,-79.5 155,-79.5 155,-58.5 13,-58.5"/>
<text text-anchor="middle" x="84" y="-66.5" font-family="Ubuntu-R" font-size="10.00">forcebalance.target.Target</text>
</a>
</g>
<!-- Node2&#45;&gt;Node1 -->
<g id="edge2" class="edge"><title>Node2&#45;&gt;Node1</title>
<path fill="none" stroke="midnightblue" d="M84,-48.1906C84,-39.1684 84,-28.9941 84,-21.5707"/>
<polygon fill="midnightblue" stroke="midnightblue" points="80.5001,-48.3619 84,-58.3619 87.5001,-48.3619 80.5001,-48.3619"/>
</g>
<!-- Node3 -->
<g id="node4" class="node"><title>Node3</title>
<a xlink:href="classforcebalance_1_1BaseClass.html" target="_top" xlink:title="Provides some nifty functions that are common to all ForceBalance classes.">
<polygon fill="white" stroke="black" points="19,-116.5 19,-137.5 149,-137.5 149,-116.5 19,-116.5"/>
<text text-anchor="middle" x="84" y="-124.5" font-family="Ubuntu-R" font-size="10.00">forcebalance.BaseClass</text>
</a>
</g>
<!-- Node3&#45;&gt;Node2 -->
<g id="edge4" class="edge"><title>Node3&#45;&gt;Node2</title>
<path fill="none" stroke="midnightblue" d="M84,-106.191C84,-97.1684 84,-86.9941 84,-79.5707"/>
<polygon fill="midnightblue" stroke="midnightblue" points="80.5001,-106.362 84,-116.362 87.5001,-106.362 80.5001,-106.362"/>
</g>
<!-- Node4 -->
<g id="node6" class="node"><title>Node4</title>
<polygon fill="white" stroke="#bfbfbf" points="61,-174.5 61,-195.5 107,-195.5 107,-174.5 61,-174.5"/>
<text text-anchor="middle" x="84" y="-182.5" font-family="Ubuntu-R" font-size="10.00">object</text>
</g>
<!-- Node4&#45;&gt;Node3 -->
<g id="edge6" class="edge"><title>Node4&#45;&gt;Node3</title>
<path fill="none" stroke="midnightblue" d="M84,-164.191C84,-155.168 84,-144.994 84,-137.571"/>
<polygon fill="midnightblue" stroke="midnightblue" points="80.5001,-164.362 84,-174.362 87.5001,-164.362 80.5001,-164.362"/>
</g>
</g>
</svg>
