<?xml version="1.0" encoding="UTF-8" standalone="no"?>
<!DOCTYPE svg PUBLIC "-//W3C//DTD SVG 1.1//EN"
 "http://www.w3.org/Graphics/SVG/1.1/DTD/svg11.dtd">
<!-- Generated by graphviz version 2.28.0 (20111219.2309)
 -->
<!-- Title: G Pages: 1 -->
<svg width="2394pt" height="375pt"
 viewBox="0.00 0.00 2394.00 375.45" xmlns="http://www.w3.org/2000/svg" xmlns:xlink="http://www.w3.org/1999/xlink">
<g id="graph1" class="graph" transform="scale(1 1) rotate(0) translate(4 371.446)">
<title>G</title>
<polygon fill="white" stroke="white" points="-4,5 -4,-371.446 2391,-371.446 2391,5 -4,5"/>
<!-- Node1 -->
<g id="node1" class="node"><title>Node1</title>
<polygon fill="#bfbfbf" stroke="black" points="0.5,-190.5 0.5,-209.5 173.5,-209.5 173.5,-190.5 0.5,-190.5"/>
<text text-anchor="middle" x="87" y="-197.5" font-family="Ubuntu-R" font-size="10.00">forcebalance.target.Target.stage</text>
</g>
<!-- Node2 -->
<g id="node3" class="node"><title>Node2</title>
<a xlink:href="namespaceforcebalance_1_1optimizer.html#ae1f6c649703a22b2f767a5f6bf53297b" target="_top" xlink:title="forcebalance.optimizer.Counter">
<polygon fill="white" stroke="black" points="502.5,-342.5 502.5,-361.5 669.5,-361.5 669.5,-342.5 502.5,-342.5"/>
<text text-anchor="middle" x="586" y="-349.5" font-family="Ubuntu-R" font-size="10.00">forcebalance.optimizer.Counter</text>
</a>
</g>
<!-- Node1&#45;&gt;Node2 -->
<g id="edge2" class="edge"><title>Node1&#45;&gt;Node2</title>
<path fill="none" stroke="midnightblue" d="M93.5856,-209.68C108.617,-234.67 152.693,-301.255 210,-328 306.321,-372.953 431.939,-370.406 510.544,-362.613"/>
<polygon fill="midnightblue" stroke="midnightblue" points="511.259,-366.058 520.84,-361.536 510.53,-359.096 511.259,-366.058"/>
</g>
<!-- Node4 -->
<g id="node7" class="node"><title>Node4</title>
<a xlink:href="classforcebalance_1_1target_1_1Target.html#a5aa4958cea0a48138511567a076c5a82" target="_top" xlink:title="forcebalance.target.Target.link_from_tempdir">
<polygon fill="white" stroke="black" points="210,-152.5 210,-171.5 442,-171.5 442,-152.5 210,-152.5"/>
<text text-anchor="middle" x="326" y="-159.5" font-family="Ubuntu-R" font-size="10.00">forcebalance.target.Target.link_from_tempdir</text>
</a>
</g>
<!-- Node1&#45;&gt;Node4 -->
<g id="edge6" class="edge"><title>Node1&#45;&gt;Node4</title>
<path fill="none" stroke="midnightblue" d="M147.499,-190.46C180.321,-185.197 221.251,-178.635 255.533,-173.138"/>
<polygon fill="midnightblue" stroke="midnightblue" points="256.157,-176.583 265.476,-171.544 255.048,-169.671 256.157,-176.583"/>
</g>
<!-- Node5 -->
<g id="node9" class="node"><title>Node5</title>
<a xlink:href="classforcebalance_1_1liquid_1_1Liquid.html#a716e28bb5572b3273036ac753b7e1e1d" target="_top" xlink:title="forcebalance.liquid.Liquid.submit_jobs">
<polygon fill="white" stroke="black" points="227.5,-228.5 227.5,-247.5 424.5,-247.5 424.5,-228.5 227.5,-228.5"/>
<text text-anchor="middle" x="326" y="-235.5" font-family="Ubuntu-R" font-size="10.00">forcebalance.liquid.Liquid.submit_jobs</text>
</a>
</g>
<!-- Node1&#45;&gt;Node5 -->
<g id="edge8" class="edge"><title>Node1&#45;&gt;Node5</title>
<path fill="none" stroke="midnightblue" d="M147.499,-209.54C180.321,-214.803 221.251,-221.365 255.533,-226.862"/>
<polygon fill="midnightblue" stroke="midnightblue" points="255.048,-230.329 265.476,-228.456 256.157,-223.417 255.048,-230.329"/>
</g>
<!-- Node7 -->
<g id="node13" class="node"><title>Node7</title>
<a xlink:href="namespaceforcebalance_1_1nifty.html#ac37d4fe58ef70ed546ebfc45d12f7a5d" target="_top" xlink:title="forcebalance.nifty.getWorkQueue">
<polygon fill="white" stroke="black" points="741.5,-285.5 741.5,-304.5 914.5,-304.5 914.5,-285.5 741.5,-285.5"/>
<text text-anchor="middle" x="828" y="-292.5" font-family="Ubuntu-R" font-size="10.00">forcebalance.nifty.getWorkQueue</text>
</a>
</g>
<!-- Node1&#45;&gt;Node7 -->
<g id="edge84" class="edge"><title>Node1&#45;&gt;Node7</title>
<path fill="none" stroke="midnightblue" d="M104.352,-209.565C127.199,-222.474 170.336,-245.209 210,-257 388.229,-309.985 607.817,-308.657 731.15,-302.263"/>
<polygon fill="midnightblue" stroke="midnightblue" points="731.524,-305.748 741.32,-301.713 731.145,-298.758 731.524,-305.748"/>
</g>
<!-- Node20 -->
<g id="node41" class="node"><title>Node20</title>
<a xlink:href="classforcebalance_1_1target_1_1Target.html#a78cd29b94cbcc201eed99c78aaef46a4" target="_top" xlink:title="forcebalance.target.Target.submit_jobs">
<polygon fill="white" stroke="black" points="224.5,-114.5 224.5,-133.5 427.5,-133.5 427.5,-114.5 224.5,-114.5"/>
<text text-anchor="middle" x="326" y="-121.5" font-family="Ubuntu-R" font-size="10.00">forcebalance.target.Target.submit_jobs</text>
</a>
</g>
<!-- Node1&#45;&gt;Node20 -->
<g id="edge42" class="edge"><title>Node1&#45;&gt;Node20</title>
<path fill="none" stroke="midnightblue" d="M104.781,-190.347C127.772,-177.551 170.697,-155.175 210,-143 219.351,-140.103 229.274,-137.623 239.219,-135.505"/>
<polygon fill="midnightblue" stroke="midnightblue" points="240.039,-138.91 249.152,-133.506 238.658,-132.048 240.039,-138.91"/>
</g>
<!-- Node21 -->
<g id="node43" class="node"><title>Node21</title>
<a xlink:href="classforcebalance_1_1target_1_1Target.html#af6099ec09486213869dba2491bd8ea04" target="_top" xlink:title="This method determines whether the Work Queue tasks for the current target have completed.">
<polygon fill="white" stroke="black" points="221.5,-190.5 221.5,-209.5 430.5,-209.5 430.5,-190.5 221.5,-190.5"/>
<text text-anchor="middle" x="326" y="-197.5" font-family="Ubuntu-R" font-size="10.00">forcebalance.target.Target.wq_complete</text>
</a>
</g>
<!-- Node1&#45;&gt;Node21 -->
<g id="edge44" class="edge"><title>Node1&#45;&gt;Node21</title>
<path fill="none" stroke="midnightblue" d="M173.562,-200C185.803,-200 198.553,-200 211.231,-200"/>
<polygon fill="midnightblue" stroke="midnightblue" points="211.372,-203.5 221.372,-200 211.372,-196.5 211.372,-203.5"/>
</g>
<!-- Node35 -->
<g id="node78" class="node"><title>Node35</title>
<a xlink:href="namespaceforcebalance_1_1nifty.html#abe1e72c32252d62a6551b47290c7584f" target="_top" xlink:title="forcebalance.nifty.getWQIds">
<polygon fill="white" stroke="black" points="252,-76.5 252,-95.5 400,-95.5 400,-76.5 252,-76.5"/>
<text text-anchor="middle" x="326" y="-83.5" font-family="Ubuntu-R" font-size="10.00">forcebalance.nifty.getWQIds</text>
</a>
</g>
<!-- Node1&#45;&gt;Node35 -->
<g id="edge86" class="edge"><title>Node1&#45;&gt;Node35</title>
<path fill="none" stroke="midnightblue" d="M97.0207,-190.268C115.893,-170.579 161.801,-126.102 210,-105 220.006,-100.619 230.905,-97.2413 241.875,-94.6379"/>
<polygon fill="midnightblue" stroke="midnightblue" points="242.913,-97.9943 251.947,-92.4581 241.433,-91.1527 242.913,-97.9943"/>
</g>
<!-- Node3 -->
<g id="node5" class="node"><title>Node3</title>
<a xlink:href="namespaceforcebalance_1_1optimizer.html#ab43948ecf30c90d319e0c0b107fe484a" target="_top" xlink:title="forcebalance.optimizer.GoodStep">
<polygon fill="white" stroke="black" points="740,-342.5 740,-361.5 916,-361.5 916,-342.5 740,-342.5"/>
<text text-anchor="middle" x="828" y="-349.5" font-family="Ubuntu-R" font-size="10.00">forcebalance.optimizer.GoodStep</text>
</a>
</g>
<!-- Node2&#45;&gt;Node3 -->
<g id="edge4" class="edge"><title>Node2&#45;&gt;Node3</title>
<path fill="none" stroke="midnightblue" d="M669.594,-352C688.966,-352 709.782,-352 729.728,-352"/>
<polygon fill="midnightblue" stroke="midnightblue" points="729.753,-355.5 739.753,-352 729.752,-348.5 729.753,-355.5"/>
</g>
<!-- Node5&#45;&gt;Node2 -->
<g id="edge14" class="edge"><title>Node5&#45;&gt;Node2</title>
<path fill="none" stroke="midnightblue" d="M348.553,-247.523C394.272,-267.725 501.112,-314.933 554.089,-338.341"/>
<polygon fill="midnightblue" stroke="midnightblue" points="552.765,-341.583 563.327,-342.423 555.594,-335.18 552.765,-341.583"/>
</g>
<!-- Node6 -->
<g id="node11" class="node"><title>Node6</title>
<a xlink:href="namespaceforcebalance_1_1nifty.html#a2ff762a2f2d2b6bb1c7dd067bd1a1e88" target="_top" xlink:title="Use this instead of pickle.dump for pickling anything that contains _ElementTree types.">
<polygon fill="white" stroke="black" points="514,-266.5 514,-285.5 658,-285.5 658,-266.5 514,-266.5"/>
<text text-anchor="middle" x="586" y="-273.5" font-family="Ubuntu-R" font-size="10.00">forcebalance.nifty.lp_dump</text>
</a>
</g>
<!-- Node5&#45;&gt;Node6 -->
<g id="edge10" class="edge"><title>Node5&#45;&gt;Node6</title>
<path fill="none" stroke="midnightblue" d="M391.771,-247.54C427.655,-252.825 472.44,-259.421 509.857,-264.932"/>
<polygon fill="midnightblue" stroke="midnightblue" points="509.799,-268.462 520.202,-266.456 510.819,-261.536 509.799,-268.462"/>
</g>
<!-- Node8 -->
<g id="node16" class="node"><title>Node8</title>
<a xlink:href="namespaceforcebalance_1_1nifty.html#abb8f59044961a12588e0653c2baa8b01" target="_top" xlink:title="forcebalance.nifty.warn_press_key">
<polygon fill="white" stroke="black" points="1962.5,-185.5 1962.5,-204.5 2141.5,-204.5 2141.5,-185.5 1962.5,-185.5"/>
<text text-anchor="middle" x="2052" y="-192.5" font-family="Ubuntu-R" font-size="10.00">forcebalance.nifty.warn_press_key</text>
</a>
</g>
<!-- Node5&#45;&gt;Node8 -->
<g id="edge16" class="edge"><title>Node5&#45;&gt;Node8</title>
<path fill="none" stroke="midnightblue" d="M424.724,-238C525.513,-238 687.243,-238 827,-238 827,-238 827,-238 1600,-238 1734.81,-238 1891.26,-218.726 1979.95,-205.985"/>
<polygon fill="midnightblue" stroke="midnightblue" points="1980.51,-209.442 1989.9,-204.543 1979.5,-202.514 1980.51,-209.442"/>
</g>
<!-- Node9 -->
<g id="node18" class="node"><title>Node9</title>
<a xlink:href="classforcebalance_1_1liquid_1_1Liquid.html#a07a59f9f335693329b789a9c7608fc9f" target="_top" xlink:title="Submit a NPT simulation to the Work Queue.">
<polygon fill="white" stroke="black" points="481,-152.5 481,-171.5 691,-171.5 691,-152.5 481,-152.5"/>
<text text-anchor="middle" x="586" y="-159.5" font-family="Ubuntu-R" font-size="10.00">forcebalance.liquid.Liquid.npt_simulation</text>
</a>
</g>
<!-- Node5&#45;&gt;Node9 -->
<g id="edge18" class="edge"><title>Node5&#45;&gt;Node9</title>
<path fill="none" stroke="midnightblue" d="M418.888,-228.446C426.935,-225.946 434.761,-222.843 442,-219 462.548,-208.091 457.518,-192.032 478,-181 482.241,-178.716 486.7,-176.698 491.292,-174.917"/>
<polygon fill="midnightblue" stroke="midnightblue" points="492.582,-178.174 500.876,-171.582 490.281,-171.562 492.582,-178.174"/>
</g>
<!-- Node19 -->
<g id="node39" class="node"><title>Node19</title>
<a xlink:href="classforcebalance_1_1liquid_1_1Liquid.html#a802c4139e5c002fabdeab5de88093880" target="_top" xlink:title="Fitting of liquid bulk properties.">
<polygon fill="white" stroke="black" points="508.5,-190.5 508.5,-209.5 663.5,-209.5 663.5,-190.5 508.5,-190.5"/>
<text text-anchor="middle" x="586" y="-197.5" font-family="Ubuntu-R" font-size="10.00">forcebalance.liquid.Liquid.get</text>
</a>
</g>
<!-- Node5&#45;&gt;Node19 -->
<g id="edge40" class="edge"><title>Node5&#45;&gt;Node19</title>
<path fill="none" stroke="midnightblue" d="M391.771,-228.46C427.655,-223.175 472.44,-216.579 509.857,-211.068"/>
<polygon fill="midnightblue" stroke="midnightblue" points="510.819,-214.464 520.202,-209.544 509.799,-207.538 510.819,-214.464"/>
</g>
<!-- Node6&#45;&gt;Node7 -->
<g id="edge12" class="edge"><title>Node6&#45;&gt;Node7</title>
<path fill="none" stroke="midnightblue" d="M658.034,-281.624C680.994,-283.441 706.842,-285.487 731.286,-287.423"/>
<polygon fill="midnightblue" stroke="midnightblue" points="731.054,-290.915 741.299,-288.215 731.606,-283.937 731.054,-290.915"/>
</g>
<!-- Node10 -->
<g id="node20" class="node"><title>Node10</title>
<a xlink:href="namespaceforcebalance_1_1nifty.html#a673f4a044169f5d8d822823989a836a7" target="_top" xlink:title="Submit a job to the Work Queue.">
<polygon fill="white" stroke="black" points="753,-152.5 753,-171.5 903,-171.5 903,-152.5 753,-152.5"/>
<text text-anchor="middle" x="828" y="-159.5" font-family="Ubuntu-R" font-size="10.00">forcebalance.nifty.queue_up</text>
</a>
</g>
<!-- Node9&#45;&gt;Node10 -->
<g id="edge20" class="edge"><title>Node9&#45;&gt;Node10</title>
<path fill="none" stroke="midnightblue" d="M691.22,-162C708.401,-162 726.021,-162 742.638,-162"/>
<polygon fill="midnightblue" stroke="midnightblue" points="742.842,-165.5 752.842,-162 742.842,-158.5 742.842,-165.5"/>
</g>
<!-- Node18 -->
<g id="node37" class="node"><title>Node18</title>
<a xlink:href="classforcebalance_1_1liquid_1_1Liquid.html#ae94ce30dfd0e92fdd6d746e6743be844" target="_top" xlink:title="forcebalance.liquid.Liquid.indicate">
<polygon fill="white" stroke="black" points="739.5,-190.5 739.5,-209.5 916.5,-209.5 916.5,-190.5 739.5,-190.5"/>
<text text-anchor="middle" x="828" y="-197.5" font-family="Ubuntu-R" font-size="10.00">forcebalance.liquid.Liquid.indicate</text>
</a>
</g>
<!-- Node9&#45;&gt;Node18 -->
<g id="edge38" class="edge"><title>Node9&#45;&gt;Node18</title>
<path fill="none" stroke="midnightblue" d="M647.252,-171.54C680.49,-176.803 721.937,-183.365 756.653,-188.862"/>
<polygon fill="midnightblue" stroke="midnightblue" points="756.299,-192.349 766.723,-190.456 757.393,-185.435 756.299,-192.349"/>
</g>
<!-- Node11 -->
<g id="node22" class="node"><title>Node11</title>
<a xlink:href="namespaceforcebalance_1_1nifty.html#a374aac2ef003be02fab49b20ff0a82f0" target="_top" xlink:title="This function waits ten seconds to see if a task in the Work Queue has finished.">
<polygon fill="white" stroke="black" points="962,-133.5 962,-152.5 1108,-152.5 1108,-133.5 962,-133.5"/>
<text text-anchor="middle" x="1035" y="-140.5" font-family="Ubuntu-R" font-size="10.00">forcebalance.nifty.wq_wait1</text>
</a>
</g>
<!-- Node10&#45;&gt;Node11 -->
<g id="edge22" class="edge"><title>Node10&#45;&gt;Node11</title>
<path fill="none" stroke="midnightblue" d="M903.01,-155.141C918.721,-153.684 935.402,-152.138 951.41,-150.655"/>
<polygon fill="midnightblue" stroke="midnightblue" points="952.18,-154.098 961.815,-149.69 951.534,-147.128 952.18,-154.098"/>
</g>
<!-- Node12 -->
<g id="node24" class="node"><title>Node12</title>
<a xlink:href="namespaceforcebalance_1_1nifty.html#a576de8c5b6f236280e07e73e39b2ab7c" target="_top" xlink:title="This function waits until the work queue is completely empty.">
<polygon fill="white" stroke="black" points="1148,-152.5 1148,-171.5 1288,-171.5 1288,-152.5 1148,-152.5"/>
<text text-anchor="middle" x="1218" y="-159.5" font-family="Ubuntu-R" font-size="10.00">forcebalance.nifty.wq_wait</text>
</a>
</g>
<!-- Node11&#45;&gt;Node12 -->
<g id="edge24" class="edge"><title>Node11&#45;&gt;Node12</title>
<path fill="none" stroke="midnightblue" d="M1108.06,-150.564C1117.79,-151.585 1127.82,-152.638 1137.67,-153.672"/>
<polygon fill="midnightblue" stroke="midnightblue" points="1137.53,-157.177 1147.84,-154.741 1138.26,-150.216 1137.53,-157.177"/>
</g>
<!-- Node13 -->
<g id="node26" class="node"><title>Node13</title>
<a xlink:href="namespaceforcebalance_1_1nifty.html#ac9ab6c5543a2e3080061e0024850edf3" target="_top" xlink:title="forcebalance.nifty.allsplit">
<polygon fill="white" stroke="black" points="1328.5,-171.5 1328.5,-190.5 1461.5,-190.5 1461.5,-171.5 1328.5,-171.5"/>
<text text-anchor="middle" x="1395" y="-178.5" font-family="Ubuntu-R" font-size="10.00">forcebalance.nifty.allsplit</text>
</a>
</g>
<!-- Node11&#45;&gt;Node13 -->
<g id="edge34" class="edge"><title>Node11&#45;&gt;Node13</title>
<path fill="none" stroke="midnightblue" d="M1056.55,-152.589C1077.87,-161.971 1112.46,-175.612 1144,-181 1201.94,-190.895 1268.54,-190.322 1318.42,-187.586"/>
<polygon fill="midnightblue" stroke="midnightblue" points="1318.71,-191.075 1328.48,-186.992 1318.29,-184.087 1318.71,-191.075"/>
</g>
<!-- Node16 -->
<g id="node32" class="node"><title>Node16</title>
<a xlink:href="namespaceforcebalance_1_1nifty.html#ad432b88307e1178b0690c0d350b1af36" target="_top" xlink:title="forcebalance.nifty.GoInto">
<polygon fill="white" stroke="black" points="1151,-114.5 1151,-133.5 1285,-133.5 1285,-114.5 1151,-114.5"/>
<text text-anchor="middle" x="1218" y="-121.5" font-family="Ubuntu-R" font-size="10.00">forcebalance.nifty.GoInto</text>
</a>
</g>
<!-- Node11&#45;&gt;Node16 -->
<g id="edge32" class="edge"><title>Node11&#45;&gt;Node16</title>
<path fill="none" stroke="midnightblue" d="M1108.06,-135.436C1118.74,-134.315 1129.78,-133.156 1140.55,-132.025"/>
<polygon fill="midnightblue" stroke="midnightblue" points="1141.19,-135.477 1150.77,-130.952 1140.46,-128.515 1141.19,-135.477"/>
</g>
<!-- Node17 -->
<g id="node35" class="node"><title>Node17</title>
<a xlink:href="namespaceforcebalance_1_1nifty.html#ab04e8690d099db2379dc860e0d040120" target="_top" xlink:title="forcebalance.nifty.Leave">
<polygon fill="white" stroke="black" points="1152.5,-76.5 1152.5,-95.5 1283.5,-95.5 1283.5,-76.5 1152.5,-76.5"/>
<text text-anchor="middle" x="1218" y="-83.5" font-family="Ubuntu-R" font-size="10.00">forcebalance.nifty.Leave</text>
</a>
</g>
<!-- Node11&#45;&gt;Node17 -->
<g id="edge36" class="edge"><title>Node11&#45;&gt;Node17</title>
<path fill="none" stroke="midnightblue" d="M1061.12,-133.491C1082.88,-125.414 1115.3,-113.769 1144,-105 1151.75,-102.634 1160.01,-100.302 1168.09,-98.1254"/>
<polygon fill="midnightblue" stroke="midnightblue" points="1169.04,-101.496 1177.81,-95.5565 1167.25,-94.7287 1169.04,-101.496"/>
</g>
<!-- Node12&#45;&gt;Node13 -->
<g id="edge26" class="edge"><title>Node12&#45;&gt;Node13</title>
<path fill="none" stroke="midnightblue" d="M1288.16,-169.509C1298.12,-170.591 1308.42,-171.708 1318.49,-172.802"/>
<polygon fill="midnightblue" stroke="midnightblue" points="1318.16,-176.286 1328.47,-173.886 1318.91,-169.327 1318.16,-176.286"/>
</g>
<!-- Node14 -->
<g id="node28" class="node"><title>Node14</title>
<a xlink:href="namespaceforcebalance_1_1nifty.html#ae87c7def5f8edf2ec30737bdb1d2636f" target="_top" xlink:title="forcebalance.nifty.MissingFileInspection">
<polygon fill="white" stroke="black" points="1498,-171.5 1498,-190.5 1700,-190.5 1700,-171.5 1498,-171.5"/>
<text text-anchor="middle" x="1599" y="-178.5" font-family="Ubuntu-R" font-size="10.00">forcebalance.nifty.MissingFileInspection</text>
</a>
</g>
<!-- Node13&#45;&gt;Node14 -->
<g id="edge28" class="edge"><title>Node13&#45;&gt;Node14</title>
<path fill="none" stroke="midnightblue" d="M1461.58,-181C1470.04,-181 1478.87,-181 1487.8,-181"/>
<polygon fill="midnightblue" stroke="midnightblue" points="1487.91,-184.5 1497.91,-181 1487.91,-177.5 1487.91,-184.5"/>
</g>
<!-- Node15 -->
<g id="node30" class="node"><title>Node15</title>
<a xlink:href="namespaceforcebalance_1_1nifty.html#a0cf4e58f90acf20e3d6224be2354082c" target="_top" xlink:title="forcebalance.nifty.link_dir_contents">
<polygon fill="white" stroke="black" points="1736.5,-171.5 1736.5,-190.5 1919.5,-190.5 1919.5,-171.5 1736.5,-171.5"/>
<text text-anchor="middle" x="1828" y="-178.5" font-family="Ubuntu-R" font-size="10.00">forcebalance.nifty.link_dir_contents</text>
</a>
</g>
<!-- Node14&#45;&gt;Node15 -->
<g id="edge30" class="edge"><title>Node14&#45;&gt;Node15</title>
<path fill="none" stroke="midnightblue" d="M1700.23,-181C1708.85,-181 1717.57,-181 1726.2,-181"/>
<polygon fill="midnightblue" stroke="midnightblue" points="1726.27,-184.5 1736.27,-181 1726.27,-177.5 1726.27,-184.5"/>
</g>
<!-- Node21&#45;&gt;Node11 -->
<g id="edge46" class="edge"><title>Node21&#45;&gt;Node11</title>
<path fill="none" stroke="midnightblue" d="M418.888,-190.446C426.935,-187.946 434.761,-184.843 442,-181 462.548,-170.091 456.629,-152.192 478,-143 652.924,-67.7597 888.412,-108.477 987.256,-131.12"/>
<polygon fill="midnightblue" stroke="midnightblue" points="986.694,-134.582 997.228,-133.45 988.286,-127.766 986.694,-134.582"/>
</g>
<!-- Node22 -->
<g id="node46" class="node"><title>Node22</title>
<a xlink:href="classforcebalance_1_1target_1_1Target.html#ac30a4e9d7d9fe06f7caefa5f7cfab09b" target="_top" xlink:title="Print target information in an organized table format.">
<polygon fill="white" stroke="black" points="478,-48.5 478,-67.5 694,-67.5 694,-48.5 478,-48.5"/>
<text text-anchor="middle" x="586" y="-55.5" font-family="Ubuntu-R" font-size="10.00">forcebalance.target.Target.printcool_table</text>
</a>
</g>
<!-- Node21&#45;&gt;Node22 -->
<g id="edge48" class="edge"><title>Node21&#45;&gt;Node22</title>
<path fill="none" stroke="midnightblue" d="M425.345,-190.488C431.243,-187.898 436.859,-184.769 442,-181 470.533,-160.081 452.772,-134.805 478,-110 496.135,-92.1685 521.581,-79.4599 543.109,-71.0715"/>
<polygon fill="midnightblue" stroke="midnightblue" points="544.526,-74.2789 552.684,-67.5186 542.091,-67.7162 544.526,-74.2789"/>
</g>
<!-- Node23 -->
<g id="node48" class="node"><title>Node23</title>
<a xlink:href="namespaceforcebalance_1_1nifty.html#a51180e960742cc7547749fdfb3513ec4" target="_top" xlink:title="See documentation for printcool; this is a nice way to print out keys/values in a dictionary...">
<polygon fill="white" stroke="black" points="730,-19.5 730,-38.5 926,-38.5 926,-19.5 730,-19.5"/>
<text text-anchor="middle" x="828" y="-26.5" font-family="Ubuntu-R" font-size="10.00">forcebalance.nifty.printcool_dictionary</text>
</a>
</g>
<!-- Node22&#45;&gt;Node23 -->
<g id="edge50" class="edge"><title>Node22&#45;&gt;Node23</title>
<path fill="none" stroke="midnightblue" d="M665.917,-48.4641C688.99,-45.6763 714.366,-42.6099 738.017,-39.7522"/>
<polygon fill="midnightblue" stroke="midnightblue" points="738.527,-43.216 748.035,-38.5416 737.688,-36.2666 738.527,-43.216"/>
</g>
<!-- Node24 -->
<g id="node50" class="node"><title>Node24</title>
<a xlink:href="namespaceforcebalance_1_1nifty.html#a3f1c7a1af9d35d5d1693074bc6f5497c" target="_top" xlink:title="ONLY matches integers! If you have a decimal point? None shall pass!">
<polygon fill="white" stroke="black" points="974,-19.5 974,-38.5 1096,-38.5 1096,-19.5 974,-19.5"/>
<text text-anchor="middle" x="1035" y="-26.5" font-family="Ubuntu-R" font-size="10.00">forcebalance.nifty.isint</text>
</a>
</g>
<!-- Node23&#45;&gt;Node24 -->
<g id="edge52" class="edge"><title>Node23&#45;&gt;Node24</title>
<path fill="none" stroke="midnightblue" d="M926.097,-29C938.79,-29 951.595,-29 963.728,-29"/>
<polygon fill="midnightblue" stroke="midnightblue" points="963.746,-32.5001 973.746,-29 963.746,-25.5001 963.746,-32.5001"/>
</g>
<!-- Node26 -->
<g id="node54" class="node"><title>Node26</title>
<a xlink:href="namespaceforcebalance_1_1nifty.html#a8e3ef0108b9d37b82ba0dced7c6037ae" target="_top" xlink:title="Matches ANY number; it can be a decimal, scientific notation, what have you CAUTION &#45; this will also ...">
<polygon fill="white" stroke="black" points="1329.5,-0.5 1329.5,-19.5 1460.5,-19.5 1460.5,-0.5 1329.5,-0.5"/>
<text text-anchor="middle" x="1395" y="-7.5" font-family="Ubuntu-R" font-size="10.00">forcebalance.nifty.isfloat</text>
</a>
</g>
<!-- Node23&#45;&gt;Node26 -->
<g id="edge82" class="edge"><title>Node23&#45;&gt;Node26</title>
<path fill="none" stroke="midnightblue" d="M883.169,-19.4859C907.228,-15.7201 935.942,-11.8519 962,-10 1087.09,-1.11035 1233.06,-3.83302 1319.28,-6.79136"/>
<polygon fill="midnightblue" stroke="midnightblue" points="1319.37,-10.2968 1329.49,-7.15253 1319.62,-3.30119 1319.37,-10.2968"/>
</g>
<!-- Node25 -->
<g id="node52" class="node"><title>Node25</title>
<a xlink:href="namespaceforcebalance_1_1nifty.html#a09263927eaec9deff283fbf1a820242f" target="_top" xlink:title="Matches things with a decimal only; see isint and isfloat.">
<polygon fill="white" stroke="black" points="1144,-38.5 1144,-57.5 1292,-57.5 1292,-38.5 1144,-38.5"/>
<text text-anchor="middle" x="1218" y="-45.5" font-family="Ubuntu-R" font-size="10.00">forcebalance.nifty.isdecimal</text>
</a>
</g>
<!-- Node24&#45;&gt;Node25 -->
<g id="edge54" class="edge"><title>Node24&#45;&gt;Node25</title>
<path fill="none" stroke="midnightblue" d="M1096.02,-35.3003C1108.12,-36.5704 1121.04,-37.9268 1133.77,-39.2629"/>
<polygon fill="midnightblue" stroke="midnightblue" points="1133.6,-42.7649 1143.91,-40.3281 1134.33,-35.8031 1133.6,-42.7649"/>
</g>
<!-- Node25&#45;&gt;Node26 -->
<g id="edge56" class="edge"><title>Node25&#45;&gt;Node26</title>
<path fill="none" stroke="midnightblue" d="M1263.16,-38.411C1286.57,-33.3287 1315.51,-27.0446 1340.21,-21.6797"/>
<polygon fill="midnightblue" stroke="midnightblue" points="1341.13,-25.0624 1350.16,-19.5201 1339.64,-18.2218 1341.13,-25.0624"/>
</g>
<!-- Node30 -->
<g id="node63" class="node"><title>Node30</title>
<a xlink:href="namespaceforcebalance_1_1nifty.html#afb3f205bce4984856e766af7e9fdaca8" target="_top" xlink:title="Given any list, array, or matrix, return a 1&#45;column matrix.">
<polygon fill="white" stroke="black" points="1337,-66.5 1337,-85.5 1453,-85.5 1453,-66.5 1337,-66.5"/>
<text text-anchor="middle" x="1395" y="-73.5" font-family="Ubuntu-R" font-size="10.00">forcebalance.nifty.col</text>
</a>
</g>
<!-- Node25&#45;&gt;Node30 -->
<g id="edge66" class="edge"><title>Node25&#45;&gt;Node30</title>
<path fill="none" stroke="midnightblue" d="M1278.74,-57.5577C1294.17,-60.0269 1310.89,-62.7018 1326.68,-65.2283"/>
<polygon fill="midnightblue" stroke="midnightblue" points="1326.47,-68.7396 1336.9,-66.8635 1327.58,-61.8275 1326.47,-68.7396"/>
</g>
<!-- Node26&#45;&gt;Node24 -->
<g id="edge58" class="edge"><title>Node26&#45;&gt;Node24</title>
<path fill="none" stroke="midnightblue" d="M1329.49,-13.4236C1266.62,-16.7603 1171.28,-21.8202 1106.46,-25.2606"/>
<polygon fill="midnightblue" stroke="midnightblue" points="1106.13,-21.7732 1096.32,-25.7984 1106.5,-28.7634 1106.13,-21.7732"/>
</g>
<!-- Node27 -->
<g id="node57" class="node"><title>Node27</title>
<a xlink:href="namespaceforcebalance_1_1nifty.html#a8d63c8ae9a67c66673a6cf81357f827d" target="_top" xlink:title="Returns a big number if we encounter NaN.">
<polygon fill="white" stroke="black" points="1523,-0.5 1523,-19.5 1675,-19.5 1675,-0.5 1523,-0.5"/>
<text text-anchor="middle" x="1599" y="-7.5" font-family="Ubuntu-R" font-size="10.00">forcebalance.nifty.floatornan</text>
</a>
</g>
<!-- Node26&#45;&gt;Node27 -->
<g id="edge60" class="edge"><title>Node26&#45;&gt;Node27</title>
<path fill="none" stroke="midnightblue" d="M1460.75,-10C1477.24,-10 1495.23,-10 1512.58,-10"/>
<polygon fill="midnightblue" stroke="midnightblue" points="1512.71,-13.5001 1522.71,-10 1512.71,-6.5001 1512.71,-13.5001"/>
</g>
<!-- Node28 -->
<g id="node59" class="node"><title>Node28</title>
<a xlink:href="namespaceforcebalance_1_1nifty.html#a6c9727360cdff8f3011a12cc54d0e86e" target="_top" xlink:title="Given any list, array, or matrix, return a 1&#45;row matrix.">
<polygon fill="white" stroke="black" points="1768.5,-0.5 1768.5,-19.5 1887.5,-19.5 1887.5,-0.5 1768.5,-0.5"/>
<text text-anchor="middle" x="1828" y="-7.5" font-family="Ubuntu-R" font-size="10.00">forcebalance.nifty.row</text>
</a>
</g>
<!-- Node27&#45;&gt;Node28 -->
<g id="edge62" class="edge"><title>Node27&#45;&gt;Node28</title>
<path fill="none" stroke="midnightblue" d="M1675.27,-10C1702.05,-10 1732.03,-10 1758.24,-10"/>
<polygon fill="midnightblue" stroke="midnightblue" points="1758.45,-13.5001 1768.45,-10 1758.45,-6.5001 1758.45,-13.5001"/>
</g>
<!-- Node29 -->
<g id="node61" class="node"><title>Node29</title>
<a xlink:href="namespaceforcebalance_1_1nifty.html#a7676236002c6a65ea7d2e69a09923889" target="_top" xlink:title="Given two vectors vec1 and vec2, project out the component of vec1 that is along the vec2&#45;direction...">
<polygon fill="white" stroke="black" points="1968,-0.5 1968,-19.5 2136,-19.5 2136,-0.5 1968,-0.5"/>
<text text-anchor="middle" x="2052" y="-7.5" font-family="Ubuntu-R" font-size="10.00">forcebalance.nifty.orthogonalize</text>
</a>
</g>
<!-- Node28&#45;&gt;Node29 -->
<g id="edge64" class="edge"><title>Node28&#45;&gt;Node29</title>
<path fill="none" stroke="midnightblue" d="M1887.62,-10C1909.09,-10 1933.95,-10 1957.7,-10"/>
<polygon fill="midnightblue" stroke="midnightblue" points="1957.8,-13.5001 1967.8,-10 1957.8,-6.5001 1957.8,-13.5001"/>
</g>
<!-- Node31 -->
<g id="node65" class="node"><title>Node31</title>
<a xlink:href="namespaceforcebalance_1_1nifty.html#a52114ceee9d55f94d9aecb3e176de294" target="_top" xlink:title="Given any list, array, or matrix, return a single&#45;index array.">
<polygon fill="white" stroke="black" points="1540,-66.5 1540,-85.5 1658,-85.5 1658,-66.5 1540,-66.5"/>
<text text-anchor="middle" x="1599" y="-73.5" font-family="Ubuntu-R" font-size="10.00">forcebalance.nifty.flat</text>
</a>
</g>
<!-- Node30&#45;&gt;Node31 -->
<g id="edge68" class="edge"><title>Node30&#45;&gt;Node31</title>
<path fill="none" stroke="midnightblue" d="M1453.08,-76C1476.86,-76 1504.69,-76 1529.57,-76"/>
<polygon fill="midnightblue" stroke="midnightblue" points="1529.66,-79.5001 1539.66,-76 1529.66,-72.5001 1529.66,-79.5001"/>
</g>
<!-- Node32 -->
<g id="node67" class="node"><title>Node32</title>
<a xlink:href="namespaceforcebalance_1_1nifty.html#a4c82187e92dfeb8a159f4aa44b501c40" target="_top" xlink:title="Invert a matrix using singular value decomposition.">
<polygon fill="white" stroke="black" points="1752,-104.5 1752,-123.5 1904,-123.5 1904,-104.5 1752,-104.5"/>
<text text-anchor="middle" x="1828" y="-111.5" font-family="Ubuntu-R" font-size="10.00">forcebalance.nifty.invert_svd</text>
</a>
</g>
<!-- Node31&#45;&gt;Node32 -->
<g id="edge70" class="edge"><title>Node31&#45;&gt;Node32</title>
<path fill="none" stroke="midnightblue" d="M1656.99,-85.54C1688.29,-90.7799 1727.29,-97.3088 1760.04,-102.791"/>
<polygon fill="midnightblue" stroke="midnightblue" points="1759.55,-106.257 1769.99,-104.456 1760.7,-99.353 1759.55,-106.257"/>
</g>
<!-- Node32&#45;&gt;Node8 -->
<g id="edge80" class="edge"><title>Node32&#45;&gt;Node8</title>
<path fill="none" stroke="midnightblue" d="M1855.34,-123.61C1895.06,-138.103 1970.39,-165.59 2015.11,-181.903"/>
<polygon fill="midnightblue" stroke="midnightblue" points="2014.1,-185.263 2024.7,-185.403 2016.5,-178.687 2014.1,-185.263"/>
</g>
<!-- Node32&#45;&gt;Node30 -->
<g id="edge78" class="edge"><title>Node32&#45;&gt;Node30</title>
<path fill="none" stroke="midnightblue" d="M1751.95,-112.366C1685.11,-110.268 1584.76,-105.542 1498,-95 1482.38,-93.1017 1465.54,-90.2863 1450.13,-87.4008"/>
<polygon fill="midnightblue" stroke="midnightblue" points="1450.73,-83.9504 1440.24,-85.5034 1449.41,-90.825 1450.73,-83.9504"/>
</g>
<!-- Node33 -->
<g id="node69" class="node"><title>Node33</title>
<a xlink:href="namespaceforcebalance_1_1nifty.html#aa9fb9c7c65231eca50a7afc04f489b64" target="_top" xlink:title="forcebalance.nifty.get_least_squares">
<polygon fill="white" stroke="black" points="1956.5,-85.5 1956.5,-104.5 2147.5,-104.5 2147.5,-85.5 1956.5,-85.5"/>
<text text-anchor="middle" x="2052" y="-92.5" font-family="Ubuntu-R" font-size="10.00">forcebalance.nifty.get_least_squares</text>
</a>
</g>
<!-- Node32&#45;&gt;Node33 -->
<g id="edge72" class="edge"><title>Node32&#45;&gt;Node33</title>
<path fill="none" stroke="midnightblue" d="M1904.16,-107.567C1917.62,-106.415 1931.87,-105.196 1945.99,-103.987"/>
<polygon fill="midnightblue" stroke="midnightblue" points="1946.57,-107.45 1956.24,-103.11 1945.98,-100.476 1946.57,-107.45"/>
</g>
<!-- Node33&#45;&gt;Node31 -->
<g id="edge74" class="edge"><title>Node33&#45;&gt;Node31</title>
<path fill="none" stroke="midnightblue" d="M1956.23,-91.0077C1869.99,-87.3744 1744.78,-82.0992 1668.07,-78.8676"/>
<polygon fill="midnightblue" stroke="midnightblue" points="1668.18,-75.3691 1658.04,-78.445 1667.88,-82.3629 1668.18,-75.3691"/>
</g>
<!-- Node34 -->
<g id="node72" class="node"><title>Node34</title>
<a xlink:href="namespaceforcebalance_1_1nifty.html#ad5ca60565c864b4245a8212fe9d92e10" target="_top" xlink:title="Compute the (cross) statistical inefficiency of (two) timeseries.">
<polygon fill="white" stroke="black" points="2184.5,-85.5 2184.5,-104.5 2385.5,-104.5 2385.5,-85.5 2184.5,-85.5"/>
<text text-anchor="middle" x="2285" y="-92.5" font-family="Ubuntu-R" font-size="10.00">forcebalance.nifty.statisticalInefficiency</text>
</a>
</g>
<!-- Node33&#45;&gt;Node34 -->
<g id="edge76" class="edge"><title>Node33&#45;&gt;Node34</title>
<path fill="none" stroke="midnightblue" d="M2147.62,-95C2156.4,-95 2165.35,-95 2174.25,-95"/>
<polygon fill="midnightblue" stroke="midnightblue" points="2174.27,-98.5001 2184.27,-95 2174.27,-91.5001 2174.27,-98.5001"/>
</g>
</g>
</svg>
