<?xml version="1.0" encoding="UTF-8" standalone="no"?>
<!DOCTYPE svg PUBLIC "-//W3C//DTD SVG 1.1//EN"
 "http://www.w3.org/Graphics/SVG/1.1/DTD/svg11.dtd">
<!-- Generated by graphviz version 2.28.0 (20111219.2309)
 -->
<!-- Title: forcebalance.psi4io.GBS_Reader.build_pid Pages: 1 -->
<svg width="688pt" height="115pt"
 viewBox="0.00 0.00 688.00 115.00" xmlns="http://www.w3.org/2000/svg" xmlns:xlink="http://www.w3.org/1999/xlink">
<g id="graph1" class="graph" transform="scale(1 1) rotate(0) translate(4 111)">
<title>forcebalance.psi4io.GBS_Reader.build_pid</title>
<polygon fill="white" stroke="white" points="-4,5 -4,-111 685,-111 685,5 -4,5"/>
<!-- Node1 -->
<g id="node1" class="node"><title>Node1</title>
<polygon fill="#bfbfbf" stroke="black" points="0.5,-44 0.5,-74 133.5,-74 133.5,-44 0.5,-44"/>
<text text-anchor="start" x="8.5" y="-62" font-family="Ubuntu-R" font-size="10.00">forcebalance.psi4io.GBS</text>
<text text-anchor="middle" x="67" y="-51" font-family="Ubuntu-R" font-size="10.00">_Reader.build_pid</text>
</g>
<!-- Node2 -->
<g id="node3" class="node"><title>Node2</title>
<a xlink:href="classforcebalance_1_1psi4io_1_1GBS__Reader.html#a1cf1d95963bbed1b130331cfb290e4fd" target="_top" xlink:title="Feed in a line. ">
<polygon fill="white" stroke="black" points="170.5,-44 170.5,-74 303.5,-74 303.5,-44 170.5,-44"/>
<text text-anchor="start" x="178.5" y="-62" font-family="Ubuntu-R" font-size="10.00">forcebalance.psi4io.GBS</text>
<text text-anchor="middle" x="237" y="-51" font-family="Ubuntu-R" font-size="10.00">_Reader.feed</text>
</a>
</g>
<!-- Node1&#45;&gt;Node2 -->
<g id="edge2" class="edge"><title>Node1&#45;&gt;Node2</title>
<path fill="none" stroke="midnightblue" d="M133.916,-59C142.505,-59 151.359,-59 160.096,-59"/>
<polygon fill="midnightblue" stroke="midnightblue" points="160.274,-62.5001 170.274,-59 160.274,-55.5001 160.274,-62.5001"/>
</g>
<!-- Node3 -->
<g id="node5" class="node"><title>Node3</title>
<a xlink:href="namespaceforcebalance_1_1molecule.html#a0dd31eff88d2bed0884ab21a13261d42" target="_top" xlink:title="ONLY matches integers! If you have a decimal point? None shall pass! ">
<polygon fill="white" stroke="black" points="340.5,-87.5 340.5,-106.5 487.5,-106.5 487.5,-87.5 340.5,-87.5"/>
<text text-anchor="middle" x="414" y="-94.5" font-family="Ubuntu-R" font-size="10.00">forcebalance.molecule.isint</text>
</a>
</g>
<!-- Node2&#45;&gt;Node3 -->
<g id="edge4" class="edge"><title>Node2&#45;&gt;Node3</title>
<path fill="none" stroke="midnightblue" d="M303.661,-73.2579C321.903,-77.219 341.498,-81.4738 358.99,-85.272"/>
<polygon fill="midnightblue" stroke="midnightblue" points="358.504,-88.7481 369.019,-87.4499 359.99,-81.9075 358.504,-88.7481"/>
</g>
<!-- Node4 -->
<g id="node7" class="node"><title>Node4</title>
<a xlink:href="namespaceforcebalance_1_1molecule.html#afe989ffd119568047fc8265b1d329a70" target="_top" xlink:title="Matches ANY number; it can be a decimal, scientific notation, integer, or what have you...">
<polygon fill="white" stroke="black" points="524,-68.5 524,-87.5 680,-87.5 680,-68.5 524,-68.5"/>
<text text-anchor="middle" x="602" y="-75.5" font-family="Ubuntu-R" font-size="10.00">forcebalance.molecule.isfloat</text>
</a>
</g>
<!-- Node2&#45;&gt;Node4 -->
<g id="edge8" class="edge"><title>Node2&#45;&gt;Node4</title>
<path fill="none" stroke="midnightblue" d="M303.737,-62.4408C362.499,-65.5165 449.046,-70.0465 513.619,-73.4263"/>
<polygon fill="midnightblue" stroke="midnightblue" points="513.617,-76.9309 523.786,-73.9585 513.983,-69.9405 513.617,-76.9309"/>
</g>
<!-- Node5 -->
<g id="node10" class="node"><title>Node5</title>
<a xlink:href="classforcebalance_1_1psi4io_1_1GBS__Reader.html#a9cc5f721f9933963c2074031e3847a6e" target="_top" xlink:title="forcebalance.psi4io.GBS\l_Reader.__init__">
<polygon fill="white" stroke="black" points="347.5,-0 347.5,-30 480.5,-30 480.5,-0 347.5,-0"/>
<text text-anchor="start" x="355.5" y="-18" font-family="Ubuntu-R" font-size="10.00">forcebalance.psi4io.GBS</text>
<text text-anchor="middle" x="414" y="-7" font-family="Ubuntu-R" font-size="10.00">_Reader.__init__</text>
</a>
</g>
<!-- Node2&#45;&gt;Node5 -->
<g id="edge10" class="edge"><title>Node2&#45;&gt;Node5</title>
<path fill="none" stroke="midnightblue" d="M297.736,-43.9808C312.437,-40.2844 328.305,-36.2947 343.427,-32.4926"/>
<polygon fill="midnightblue" stroke="midnightblue" points="344.392,-35.859 353.237,-30.0262 342.685,-29.0703 344.392,-35.859"/>
</g>
<!-- Node3&#45;&gt;Node4 -->
<g id="edge6" class="edge"><title>Node3&#45;&gt;Node4</title>
<path fill="none" stroke="midnightblue" d="M487.712,-89.5725C496.207,-88.7047 504.939,-87.8127 513.606,-86.9273"/>
<polygon fill="midnightblue" stroke="midnightblue" points="514.141,-90.391 523.733,-85.8929 513.429,-83.4273 514.141,-90.391"/>
</g>
</g>
</svg>
