<?xml version="1.0" encoding="UTF-8" standalone="no"?>
<!DOCTYPE svg PUBLIC "-//W3C//DTD SVG 1.1//EN"
 "http://www.w3.org/Graphics/SVG/1.1/DTD/svg11.dtd">
<!-- Generated by graphviz version 2.26.3 (20100126.1600)
 -->
<!-- Title: forcebalance.gmxio.Interaction_GMX Pages: 1 -->
<svg width="198pt" height="276pt"
 viewBox="0.00 0.00 198.00 276.00" xmlns="http://www.w3.org/2000/svg" xmlns:xlink="http://www.w3.org/1999/xlink">
<g id="graph1" class="graph" transform="scale(1 1) rotate(0) translate(4 272)">
<title>forcebalance.gmxio.Interaction_GMX</title>
<polygon fill="white" stroke="white" points="-4,5 -4,-272 195,-272 195,5 -4,5"/>
<!-- Node1 -->
<g id="node1" class="node"><title>Node1</title>
<polygon fill="#bfbfbf" stroke="black" points="-0.5,-0.5 -0.5,-21.5 190.5,-21.5 190.5,-0.5 -0.5,-0.5"/>
<text text-anchor="middle" x="95" y="-8.5" font-family="Ubuntu-R" font-size="10.00">forcebalance.gmxio.Interaction_GMX</text>
</g>
<!-- Node2 -->
<g id="node2" class="node"><title>Node2</title>
<a xlink:href="classforcebalance_1_1interaction_1_1Interaction.html" target="_top" xlink:title="Subclass of Target for fitting force fields to interaction energies. ">
<polygon fill="white" stroke="black" points="27.5,-59 27.5,-93 162.5,-93 162.5,-59 27.5,-59"/>
<text text-anchor="start" x="35.5" y="-80" font-family="Ubuntu-R" font-size="10.00">forcebalance.interaction.</text>
<text text-anchor="middle" x="95" y="-67" font-family="Ubuntu-R" font-size="10.00">Interaction</text>
</a>
</g>
<!-- Node2&#45;&gt;Node1 -->
<g id="edge2" class="edge"><title>Node2&#45;&gt;Node1</title>
<path fill="none" stroke="midnightblue" d="M95,-48.6879C95,-39.2415 95,-29.1949 95,-21.8521"/>
<polygon fill="midnightblue" stroke="midnightblue" points="91.5001,-48.922 95,-58.922 98.5001,-48.922 91.5001,-48.922"/>
</g>
<!-- Node3 -->
<g id="node4" class="node"><title>Node3</title>
<a xlink:href="classforcebalance_1_1target_1_1Target.html" target="_top" xlink:title="Base class for all fitting targets. ">
<polygon fill="white" stroke="black" points="23.5,-130.5 23.5,-151.5 166.5,-151.5 166.5,-130.5 23.5,-130.5"/>
<text text-anchor="middle" x="95" y="-138.5" font-family="Ubuntu-R" font-size="10.00">forcebalance.target.Target</text>
</a>
</g>
<!-- Node3&#45;&gt;Node2 -->
<g id="edge4" class="edge"><title>Node3&#45;&gt;Node2</title>
<path fill="none" stroke="midnightblue" d="M95,-120.131C95,-111.405 95,-101.391 95,-93.1099"/>
<polygon fill="midnightblue" stroke="midnightblue" points="91.5001,-120.267 95,-130.267 98.5001,-120.267 91.5001,-120.267"/>
</g>
<!-- Node4 -->
<g id="node6" class="node"><title>Node4</title>
<a xlink:href="classforcebalance_1_1BaseClass.html" target="_top" xlink:title="Provides some nifty functions that are common to all ForceBalance classes. ">
<polygon fill="white" stroke="black" points="29.5,-188.5 29.5,-209.5 160.5,-209.5 160.5,-188.5 29.5,-188.5"/>
<text text-anchor="middle" x="95" y="-196.5" font-family="Ubuntu-R" font-size="10.00">forcebalance.BaseClass</text>
</a>
</g>
<!-- Node4&#45;&gt;Node3 -->
<g id="edge6" class="edge"><title>Node4&#45;&gt;Node3</title>
<path fill="none" stroke="midnightblue" d="M95,-178.191C95,-169.168 95,-158.994 95,-151.571"/>
<polygon fill="midnightblue" stroke="midnightblue" points="91.5001,-178.362 95,-188.362 98.5001,-178.362 91.5001,-178.362"/>
</g>
<!-- Node5 -->
<g id="node8" class="node"><title>Node5</title>
<polygon fill="white" stroke="#bfbfbf" points="72,-246.5 72,-267.5 118,-267.5 118,-246.5 72,-246.5"/>
<text text-anchor="middle" x="95" y="-254.5" font-family="Ubuntu-R" font-size="10.00">object</text>
</g>
<!-- Node5&#45;&gt;Node4 -->
<g id="edge8" class="edge"><title>Node5&#45;&gt;Node4</title>
<path fill="none" stroke="midnightblue" d="M95,-236.191C95,-227.168 95,-216.994 95,-209.571"/>
<polygon fill="midnightblue" stroke="midnightblue" points="91.5001,-236.362 95,-246.362 98.5001,-236.362 91.5001,-236.362"/>
</g>
</g>
</svg>
