<?xml version="1.0" encoding="UTF-8" standalone="no"?>
<!DOCTYPE svg PUBLIC "-//W3C//DTD SVG 1.1//EN"
 "http://www.w3.org/Graphics/SVG/1.1/DTD/svg11.dtd">
<!-- Generated by graphviz version 2.26.3 (20100126.1600)
 -->
<!-- Title: forcebalance.tinkerio.AbInitio_TINKER.prepare_temp_directory Pages: 1 -->
<svg width="960pt" height="200pt"
 viewBox="0.00 0.00 960.00 200.00" xmlns="http://www.w3.org/2000/svg" xmlns:xlink="http://www.w3.org/1999/xlink">
<g id="graph1" class="graph" transform="scale(1 1) rotate(0) translate(4 196)">
<title>forcebalance.tinkerio.AbInitio_TINKER.prepare_temp_directory</title>
<polygon fill="white" stroke="white" points="-4,5 -4,-196 957,-196 957,5 -4,5"/>
<!-- Node1 -->
<g id="node1" class="node"><title>Node1</title>
<polygon fill="#bfbfbf" stroke="black" points="0.5,-22.5 0.5,-69.5 131.5,-69.5 131.5,-22.5 0.5,-22.5"/>
<text text-anchor="start" x="8.5" y="-56.5" font-family="Ubuntu-R" font-size="10.00">forcebalance.tinkerio.Ab</text>
<text text-anchor="start" x="8.5" y="-43.5" font-family="Ubuntu-R" font-size="10.00">Initio_TINKER.prepare</text>
<text text-anchor="middle" x="66" y="-30.5" font-family="Ubuntu-R" font-size="10.00">_temp_directory</text>
</g>
<!-- Node2 -->
<g id="node3" class="node"><title>Node2</title>
<a xlink:href="classforcebalance_1_1tinkerio_1_1AbInitio__TINKER.html#ab3835da0b951f77bfef0f14acd133c26" target="_top" xlink:title="forcebalance.tinkerio.Ab\lInitio_TINKER.energy_force\l_driver">
<polygon fill="white" stroke="black" points="168,-102.5 168,-149.5 310,-149.5 310,-102.5 168,-102.5"/>
<text text-anchor="start" x="176" y="-136.5" font-family="Ubuntu-R" font-size="10.00">forcebalance.tinkerio.Ab</text>
<text text-anchor="start" x="176" y="-123.5" font-family="Ubuntu-R" font-size="10.00">Initio_TINKER.energy_force</text>
<text text-anchor="middle" x="239" y="-110.5" font-family="Ubuntu-R" font-size="10.00">_driver</text>
</a>
</g>
<!-- Node1&#45;&gt;Node2 -->
<g id="edge2" class="edge"><title>Node1&#45;&gt;Node2</title>
<path fill="none" stroke="midnightblue" d="M116.97,-69.5699C136.417,-78.5629 158.764,-88.8968 178.977,-98.2437"/>
<polygon fill="midnightblue" stroke="midnightblue" points="177.55,-101.44 188.096,-102.46 180.488,-95.0863 177.55,-101.44"/>
</g>
<!-- Node3 -->
<g id="node5" class="node"><title>Node3</title>
<a xlink:href="namespaceforcebalance_1_1molecule.html#a0dd31eff88d2bed0884ab21a13261d42" target="_top" xlink:title="ONLY matches integers! If you have a decimal point? None shall pass!">
<polygon fill="white" stroke="black" points="353.5,-144.5 353.5,-165.5 500.5,-165.5 500.5,-144.5 353.5,-144.5"/>
<text text-anchor="middle" x="427" y="-152.5" font-family="Ubuntu-R" font-size="10.00">forcebalance.molecule.isint</text>
</a>
</g>
<!-- Node2&#45;&gt;Node3 -->
<g id="edge4" class="edge"><title>Node2&#45;&gt;Node3</title>
<path fill="none" stroke="midnightblue" d="M310.075,-136.964C322.628,-138.9 335.762,-140.926 348.505,-142.892"/>
<polygon fill="midnightblue" stroke="midnightblue" points="348.206,-146.387 358.623,-144.452 349.273,-139.469 348.206,-146.387"/>
</g>
<!-- Node4 -->
<g id="node7" class="node"><title>Node4</title>
<a xlink:href="namespaceforcebalance_1_1molecule.html#afe989ffd119568047fc8265b1d329a70" target="_top" xlink:title="Matches ANY number; it can be a decimal, scientific notation, integer, or what have you...">
<polygon fill="white" stroke="black" points="559,-170.5 559,-191.5 715,-191.5 715,-170.5 559,-170.5"/>
<text text-anchor="middle" x="637" y="-178.5" font-family="Ubuntu-R" font-size="10.00">forcebalance.molecule.isfloat</text>
</a>
</g>
<!-- Node2&#45;&gt;Node4 -->
<g id="edge8" class="edge"><title>Node2&#45;&gt;Node4</title>
<path fill="none" stroke="midnightblue" d="M280.031,-149.577C299.386,-159.427 323.196,-169.78 346,-175 412.681,-190.264 490.212,-191.062 548.472,-188.426"/>
<polygon fill="midnightblue" stroke="midnightblue" points="548.937,-191.907 558.751,-187.916 548.59,-184.916 548.937,-191.907"/>
</g>
<!-- Node5 -->
<g id="node10" class="node"><title>Node5</title>
<a xlink:href="classforcebalance_1_1tinkerio_1_1AbInitio__TINKER.html#aafbf91f1422d7b8f65a4aa588d1c6e18" target="_top" xlink:title="forcebalance.tinkerio.Ab\lInitio_TINKER.energy_driver_all">
<polygon fill="white" stroke="black" points="346.5,-74 346.5,-108 507.5,-108 507.5,-74 346.5,-74"/>
<text text-anchor="start" x="354.5" y="-95" font-family="Ubuntu-R" font-size="10.00">forcebalance.tinkerio.Ab</text>
<text text-anchor="middle" x="427" y="-82" font-family="Ubuntu-R" font-size="10.00">Initio_TINKER.energy_driver_all</text>
</a>
</g>
<!-- Node2&#45;&gt;Node5 -->
<g id="edge10" class="edge"><title>Node2&#45;&gt;Node5</title>
<path fill="none" stroke="midnightblue" d="M310.075,-112.768C318.687,-111.165 327.573,-109.51 336.419,-107.864"/>
<polygon fill="midnightblue" stroke="midnightblue" points="337.181,-111.282 346.372,-106.011 335.9,-104.4 337.181,-111.282"/>
</g>
<!-- Node3&#45;&gt;Node4 -->
<g id="edge6" class="edge"><title>Node3&#45;&gt;Node4</title>
<path fill="none" stroke="midnightblue" d="M500.743,-164.13C516.157,-166.039 532.561,-168.069 548.449,-170.037"/>
<polygon fill="midnightblue" stroke="midnightblue" points="548.445,-173.563 558.8,-171.318 549.306,-166.616 548.445,-173.563"/>
</g>
<!-- Node5&#45;&gt;Node5 -->
<g id="edge28" class="edge"><title>Node5&#45;&gt;Node5</title>
<path fill="none" stroke="midnightblue" d="M393.204,-108.288C387.461,-117.556 398.727,-126 427,-126 444.229,-126 455.142,-122.864 459.74,-118.318"/>
<polygon fill="midnightblue" stroke="midnightblue" points="463.23,-118.599 460.796,-108.288 456.268,-117.866 463.23,-118.599"/>
</g>
<!-- Node6 -->
<g id="node12" class="node"><title>Node6</title>
<a xlink:href="classforcebalance_1_1tinkerio_1_1AbInitio__TINKER.html#a27835affec49391fc41b832839a2b0e8" target="_top" xlink:title="forcebalance.tinkerio.Ab\lInitio_TINKER.energy_force\l_driver_all">
<polygon fill="white" stroke="black" points="566,-29.5 566,-76.5 708,-76.5 708,-29.5 566,-29.5"/>
<text text-anchor="start" x="574" y="-63.5" font-family="Ubuntu-R" font-size="10.00">forcebalance.tinkerio.Ab</text>
<text text-anchor="start" x="574" y="-50.5" font-family="Ubuntu-R" font-size="10.00">Initio_TINKER.energy_force</text>
<text text-anchor="middle" x="637" y="-37.5" font-family="Ubuntu-R" font-size="10.00">_driver_all</text>
</a>
</g>
<!-- Node5&#45;&gt;Node6 -->
<g id="edge12" class="edge"><title>Node5&#45;&gt;Node6</title>
<path fill="none" stroke="midnightblue" d="M507.591,-76.4169C523.341,-73.5668 539.868,-70.5763 555.643,-67.7218"/>
<polygon fill="midnightblue" stroke="midnightblue" points="556.668,-71.0931 565.885,-65.8684 555.422,-64.205 556.668,-71.0931"/>
</g>
<!-- Node8 -->
<g id="node18" class="node"><title>Node8</title>
<a xlink:href="classforcebalance_1_1openmmio_1_1Interaction__OpenMM.html#a535ff72686dc66b91f5dda007e252189" target="_top" xlink:title="forcebalance.openmmio.Interaction\l_OpenMM.energy_driver_all">
<polygon fill="white" stroke="black" points="544,-95 544,-129 730,-129 730,-95 544,-95"/>
<text text-anchor="start" x="552" y="-116" font-family="Ubuntu-R" font-size="10.00">forcebalance.openmmio.Interaction</text>
<text text-anchor="middle" x="637" y="-103" font-family="Ubuntu-R" font-size="10.00">_OpenMM.energy_driver_all</text>
</a>
</g>
<!-- Node5&#45;&gt;Node8 -->
<g id="edge20" class="edge"><title>Node5&#45;&gt;Node8</title>
<path fill="none" stroke="midnightblue" d="M507.591,-99.0591C516.071,-99.9071 524.775,-100.778 533.467,-101.647"/>
<polygon fill="midnightblue" stroke="midnightblue" points="533.35,-105.152 543.649,-102.665 534.047,-98.1871 533.35,-105.152"/>
</g>
<!-- Node6&#45;&gt;Node1 -->
<g id="edge18" class="edge"><title>Node6&#45;&gt;Node1</title>
<path fill="none" stroke="midnightblue" d="M565.572,-52.1243C457.244,-50.7963 252.336,-48.2843 141.592,-46.9267"/>
<polygon fill="midnightblue" stroke="midnightblue" points="141.543,-43.4259 131.501,-46.803 141.457,-50.4254 141.543,-43.4259"/>
</g>
<!-- Node7 -->
<g id="node14" class="node"><title>Node7</title>
<a xlink:href="classforcebalance_1_1tinkerio_1_1AbInitio__TINKER.html#adeddb898c79da3df601bc742bc2c2be7" target="_top" xlink:title="forcebalance.tinkerio.Ab\lInitio_TINKER.__init__">
<polygon fill="white" stroke="black" points="793.5,-0 793.5,-34 924.5,-34 924.5,-0 793.5,-0"/>
<text text-anchor="start" x="801.5" y="-21" font-family="Ubuntu-R" font-size="10.00">forcebalance.tinkerio.Ab</text>
<text text-anchor="middle" x="859" y="-8" font-family="Ubuntu-R" font-size="10.00">Initio_TINKER.__init__</text>
</a>
</g>
<!-- Node6&#45;&gt;Node7 -->
<g id="edge14" class="edge"><title>Node6&#45;&gt;Node7</title>
<path fill="none" stroke="midnightblue" d="M708.158,-41.4608C732.124,-37.5746 758.946,-33.225 783.252,-29.2835"/>
<polygon fill="midnightblue" stroke="midnightblue" points="783.83,-32.7355 793.141,-27.6799 782.71,-25.8258 783.83,-32.7355"/>
</g>
<!-- Node7&#45;&gt;Node1 -->
<g id="edge16" class="edge"><title>Node7&#45;&gt;Node1</title>
<path fill="none" stroke="midnightblue" d="M793.221,-16.7693C729.483,-16.7482 630.093,-17.25 544,-20 401.741,-24.5441 235.896,-34.6444 141.689,-40.8332"/>
<polygon fill="midnightblue" stroke="midnightblue" points="141.429,-37.3426 131.681,-41.4936 141.89,-44.3274 141.429,-37.3426"/>
</g>
<!-- Node8&#45;&gt;Node8 -->
<g id="edge26" class="edge"><title>Node8&#45;&gt;Node8</title>
<path fill="none" stroke="midnightblue" d="M599.25,-129.288C592.835,-138.556 605.418,-147 637,-147 656.245,-147 668.436,-143.864 673.571,-139.318"/>
<polygon fill="midnightblue" stroke="midnightblue" points="677.059,-139.628 674.75,-129.288 670.107,-138.811 677.059,-139.628"/>
</g>
<!-- Node9 -->
<g id="node20" class="node"><title>Node9</title>
<a xlink:href="namespaceforcebalance_1_1openmmio.html#a9f9fc56475dbfcc94a40fef6a84ed25f" target="_top" xlink:title="forcebalance.openmmio.Update\lSimulationParameters">
<polygon fill="white" stroke="black" points="773.5,-69 773.5,-103 944.5,-103 944.5,-69 773.5,-69"/>
<text text-anchor="start" x="781.5" y="-90" font-family="Ubuntu-R" font-size="10.00">forcebalance.openmmio.Update</text>
<text text-anchor="middle" x="859" y="-77" font-family="Ubuntu-R" font-size="10.00">SimulationParameters</text>
</a>
</g>
<!-- Node8&#45;&gt;Node9 -->
<g id="edge22" class="edge"><title>Node8&#45;&gt;Node9</title>
<path fill="none" stroke="midnightblue" d="M730.183,-101.087C741.176,-99.7993 752.407,-98.4838 763.432,-97.1926"/>
<polygon fill="midnightblue" stroke="midnightblue" points="763.961,-100.655 773.486,-96.0152 763.147,-93.7022 763.961,-100.655"/>
</g>
<!-- Node10 -->
<g id="node22" class="node"><title>Node10</title>
<a xlink:href="classforcebalance_1_1openmmio_1_1Interaction__OpenMM.html#a9813c1a24af88156703d05ebe57bf707" target="_top" xlink:title="forcebalance.openmmio.Interaction\l_OpenMM.interaction_driver_all">
<polygon fill="white" stroke="black" points="766,-121 766,-155 952,-155 952,-121 766,-121"/>
<text text-anchor="start" x="774" y="-142" font-family="Ubuntu-R" font-size="10.00">forcebalance.openmmio.Interaction</text>
<text text-anchor="middle" x="859" y="-129" font-family="Ubuntu-R" font-size="10.00">_OpenMM.interaction_driver_all</text>
</a>
</g>
<!-- Node8&#45;&gt;Node10 -->
<g id="edge24" class="edge"><title>Node8&#45;&gt;Node10</title>
<path fill="none" stroke="midnightblue" d="M730.183,-122.913C738.626,-123.902 747.211,-124.908 755.734,-125.906"/>
<polygon fill="midnightblue" stroke="midnightblue" points="755.36,-129.386 765.7,-127.073 756.175,-122.433 755.36,-129.386"/>
</g>
</g>
</svg>
