<?xml version="1.0" encoding="UTF-8" standalone="no"?>
<!DOCTYPE svg PUBLIC "-//W3C//DTD SVG 1.1//EN"
 "http://www.w3.org/Graphics/SVG/1.1/DTD/svg11.dtd">
<!-- Generated by graphviz version 2.28.0 (20111219.2309)
 -->
<!-- Title: forcebalance.tinkerio.AbInitio_TINKER.energy_force_driver_all Pages: 1 -->
<svg width="1768pt" height="157pt"
 viewBox="0.00 0.00 1768.00 157.00" xmlns="http://www.w3.org/2000/svg" xmlns:xlink="http://www.w3.org/1999/xlink">
<g id="graph1" class="graph" transform="scale(1 1) rotate(0) translate(4 153)">
<title>forcebalance.tinkerio.AbInitio_TINKER.energy_force_driver_all</title>
<polygon fill="white" stroke="white" points="-4,5 -4,-153 1765,-153 1765,5 -4,5"/>
<!-- Node1 -->
<g id="node1" class="node"><title>Node1</title>
<polygon fill="#bfbfbf" stroke="black" points="0.5,-56.5 0.5,-97.5 143.5,-97.5 143.5,-56.5 0.5,-56.5"/>
<text text-anchor="start" x="8.5" y="-85.5" font-family="Ubuntu-R" font-size="10.00">forcebalance.tinkerio.Ab</text>
<text text-anchor="start" x="8.5" y="-74.5" font-family="Ubuntu-R" font-size="10.00">Initio_TINKER.energy_force</text>
<text text-anchor="middle" x="72" y="-63.5" font-family="Ubuntu-R" font-size="10.00">_driver_all</text>
</g>
<!-- Node2 -->
<g id="node3" class="node"><title>Node2</title>
<a xlink:href="classforcebalance_1_1tinkerio_1_1AbInitio__TINKER.html#adeddb898c79da3df601bc742bc2c2be7" target="_top" xlink:title="forcebalance.tinkerio.Ab\lInitio_TINKER.__init__">
<polygon fill="white" stroke="black" points="180,-106 180,-136 312,-136 312,-106 180,-106"/>
<text text-anchor="start" x="188" y="-124" font-family="Ubuntu-R" font-size="10.00">forcebalance.tinkerio.Ab</text>
<text text-anchor="middle" x="246" y="-113" font-family="Ubuntu-R" font-size="10.00">Initio_TINKER.__init__</text>
</a>
</g>
<!-- Node1&#45;&gt;Node2 -->
<g id="edge2" class="edge"><title>Node1&#45;&gt;Node2</title>
<path fill="none" stroke="midnightblue" d="M143.952,-95.1505C154.721,-97.9054 165.815,-100.743 176.53,-103.484"/>
<polygon fill="midnightblue" stroke="midnightblue" points="175.688,-106.882 186.243,-105.969 177.423,-100.1 175.688,-106.882"/>
</g>
<!-- Node3 -->
<g id="node5" class="node"><title>Node3</title>
<a xlink:href="classforcebalance_1_1tinkerio_1_1AbInitio__TINKER.html#a4f0decc929da6183f1d0d6229fc9733d" target="_top" xlink:title="forcebalance.tinkerio.Ab\lInitio_TINKER.prepare\l_temp_directory">
<polygon fill="white" stroke="black" points="348,-80.5 348,-121.5 480,-121.5 480,-80.5 348,-80.5"/>
<text text-anchor="start" x="356" y="-109.5" font-family="Ubuntu-R" font-size="10.00">forcebalance.tinkerio.Ab</text>
<text text-anchor="start" x="356" y="-98.5" font-family="Ubuntu-R" font-size="10.00">Initio_TINKER.prepare</text>
<text text-anchor="middle" x="414" y="-87.5" font-family="Ubuntu-R" font-size="10.00">_temp_directory</text>
</a>
</g>
<!-- Node1&#45;&gt;Node3 -->
<g id="edge32" class="edge"><title>Node1&#45;&gt;Node3</title>
<path fill="none" stroke="midnightblue" d="M143.861,-82.002C200.592,-86.0065 279.964,-91.6092 337.808,-95.6923"/>
<polygon fill="midnightblue" stroke="midnightblue" points="337.763,-99.1977 347.984,-96.4106 338.255,-92.2151 337.763,-99.1977"/>
</g>
<!-- Node2&#45;&gt;Node3 -->
<g id="edge4" class="edge"><title>Node2&#45;&gt;Node3</title>
<path fill="none" stroke="midnightblue" d="M312.131,-113.153C320.553,-112.138 329.232,-111.092 337.8,-110.06"/>
<polygon fill="midnightblue" stroke="midnightblue" points="338.275,-113.528 347.784,-108.857 337.437,-106.579 338.275,-113.528"/>
</g>
<!-- Node4 -->
<g id="node7" class="node"><title>Node4</title>
<a xlink:href="classforcebalance_1_1tinkerio_1_1AbInitio__TINKER.html#ab3835da0b951f77bfef0f14acd133c26" target="_top" xlink:title="forcebalance.tinkerio.Ab\lInitio_TINKER.energy_force\l_driver">
<polygon fill="white" stroke="black" points="516.5,-80.5 516.5,-121.5 659.5,-121.5 659.5,-80.5 516.5,-80.5"/>
<text text-anchor="start" x="524.5" y="-109.5" font-family="Ubuntu-R" font-size="10.00">forcebalance.tinkerio.Ab</text>
<text text-anchor="start" x="524.5" y="-98.5" font-family="Ubuntu-R" font-size="10.00">Initio_TINKER.energy_force</text>
<text text-anchor="middle" x="588" y="-87.5" font-family="Ubuntu-R" font-size="10.00">_driver</text>
</a>
</g>
<!-- Node3&#45;&gt;Node4 -->
<g id="edge6" class="edge"><title>Node3&#45;&gt;Node4</title>
<path fill="none" stroke="midnightblue" d="M480.026,-101C488.573,-101 497.414,-101 506.183,-101"/>
<polygon fill="midnightblue" stroke="midnightblue" points="506.423,-104.5 516.423,-101 506.423,-97.5001 506.423,-104.5"/>
</g>
<!-- Node5 -->
<g id="node9" class="node"><title>Node5</title>
<a xlink:href="namespaceforcebalance_1_1molecule.html#a0dd31eff88d2bed0884ab21a13261d42" target="_top" xlink:title="ONLY matches integers! If you have a decimal point? None shall pass! ">
<polygon fill="white" stroke="black" points="703.5,-129.5 703.5,-148.5 850.5,-148.5 850.5,-129.5 703.5,-129.5"/>
<text text-anchor="middle" x="777" y="-136.5" font-family="Ubuntu-R" font-size="10.00">forcebalance.molecule.isint</text>
</a>
</g>
<!-- Node4&#45;&gt;Node5 -->
<g id="edge8" class="edge"><title>Node4&#45;&gt;Node5</title>
<path fill="none" stroke="midnightblue" d="M659.697,-115.366C679.335,-119.357 700.403,-123.638 719.139,-127.445"/>
<polygon fill="midnightblue" stroke="midnightblue" points="718.496,-130.886 728.993,-129.448 719.89,-124.026 718.496,-130.886"/>
</g>
<!-- Node6 -->
<g id="node11" class="node"><title>Node6</title>
<a xlink:href="namespaceforcebalance_1_1molecule.html#afe989ffd119568047fc8265b1d329a70" target="_top" xlink:title="Matches ANY number; it can be a decimal, scientific notation, integer, or what have you...">
<polygon fill="white" stroke="black" points="910,-110.5 910,-129.5 1066,-129.5 1066,-110.5 910,-110.5"/>
<text text-anchor="middle" x="988" y="-117.5" font-family="Ubuntu-R" font-size="10.00">forcebalance.molecule.isfloat</text>
</a>
</g>
<!-- Node4&#45;&gt;Node6 -->
<g id="edge12" class="edge"><title>Node4&#45;&gt;Node6</title>
<path fill="none" stroke="midnightblue" d="M659.696,-104.375C726.655,-107.571 827.399,-112.381 899.417,-115.819"/>
<polygon fill="midnightblue" stroke="midnightblue" points="899.671,-119.335 909.827,-116.316 900.005,-112.343 899.671,-119.335"/>
</g>
<!-- Node7 -->
<g id="node14" class="node"><title>Node7</title>
<a xlink:href="classforcebalance_1_1tinkerio_1_1AbInitio__TINKER.html#aafbf91f1422d7b8f65a4aa588d1c6e18" target="_top" xlink:title="forcebalance.tinkerio.Ab\lInitio_TINKER.energy_driver_all">
<polygon fill="white" stroke="black" points="696.5,-24 696.5,-54 857.5,-54 857.5,-24 696.5,-24"/>
<text text-anchor="start" x="704.5" y="-42" font-family="Ubuntu-R" font-size="10.00">forcebalance.tinkerio.Ab</text>
<text text-anchor="middle" x="777" y="-31" font-family="Ubuntu-R" font-size="10.00">Initio_TINKER.energy_driver_all</text>
</a>
</g>
<!-- Node4&#45;&gt;Node7 -->
<g id="edge14" class="edge"><title>Node4&#45;&gt;Node7</title>
<path fill="none" stroke="midnightblue" d="M651.009,-80.441C673.698,-72.9182 699.19,-64.4665 721.205,-57.1675"/>
<polygon fill="midnightblue" stroke="midnightblue" points="722.339,-60.4788 730.729,-54.0096 720.136,-53.8345 722.339,-60.4788"/>
</g>
<!-- Node5&#45;&gt;Node6 -->
<g id="edge10" class="edge"><title>Node5&#45;&gt;Node6</title>
<path fill="none" stroke="midnightblue" d="M850.512,-132.408C866.426,-130.961 883.436,-129.415 899.858,-127.922"/>
<polygon fill="midnightblue" stroke="midnightblue" points="900.349,-131.392 909.991,-127.001 899.715,-124.421 900.349,-131.392"/>
</g>
<!-- Node7&#45;&gt;Node1 -->
<g id="edge16" class="edge"><title>Node7&#45;&gt;Node1</title>
<path fill="none" stroke="midnightblue" d="M696.321,-43.307C561.458,-50.5968 289.668,-65.2882 153.95,-72.6243"/>
<polygon fill="midnightblue" stroke="midnightblue" points="153.422,-69.1477 143.625,-73.1824 153.799,-76.1375 153.422,-69.1477"/>
</g>
<!-- Node7&#45;&gt;Node7 -->
<g id="edge30" class="edge"><title>Node7&#45;&gt;Node7</title>
<path fill="none" stroke="midnightblue" d="M743.953,-54.2754C736.609,-63.4062 747.625,-72 777,-72 794.441,-72 805.41,-68.9704 809.907,-64.5975"/>
<polygon fill="midnightblue" stroke="midnightblue" points="813.411,-64.3219 810.047,-54.2754 806.412,-64.227 813.411,-64.3219"/>
</g>
<!-- Node8 -->
<g id="node17" class="node"><title>Node8</title>
<a xlink:href="classforcebalance_1_1openmmio_1_1Interaction__OpenMM.html#a535ff72686dc66b91f5dda007e252189" target="_top" xlink:title="forcebalance.openmmio.Interaction\l_OpenMM.energy_driver_all">
<polygon fill="white" stroke="black" points="894.5,-24 894.5,-54 1081.5,-54 1081.5,-24 894.5,-24"/>
<text text-anchor="start" x="902.5" y="-42" font-family="Ubuntu-R" font-size="10.00">forcebalance.openmmio.Interaction</text>
<text text-anchor="middle" x="988" y="-31" font-family="Ubuntu-R" font-size="10.00">_OpenMM.energy_driver_all</text>
</a>
</g>
<!-- Node7&#45;&gt;Node8 -->
<g id="edge18" class="edge"><title>Node7&#45;&gt;Node8</title>
<path fill="none" stroke="midnightblue" d="M857.61,-39C866.327,-39 875.289,-39 884.234,-39"/>
<polygon fill="midnightblue" stroke="midnightblue" points="884.312,-42.5001 894.312,-39 884.312,-35.5001 884.312,-42.5001"/>
</g>
<!-- Node8&#45;&gt;Node8 -->
<g id="edge28" class="edge"><title>Node8&#45;&gt;Node8</title>
<path fill="none" stroke="midnightblue" d="M951.086,-54.2754C942.883,-63.4062 955.188,-72 988,-72 1007.48,-72 1019.74,-68.9704 1024.76,-64.5975"/>
<polygon fill="midnightblue" stroke="midnightblue" points="1028.26,-64.3272 1024.91,-54.2754 1021.26,-64.2213 1028.26,-64.3272"/>
</g>
<!-- Node9 -->
<g id="node19" class="node"><title>Node9</title>
<a xlink:href="namespaceforcebalance_1_1openmmio.html#a9f9fc56475dbfcc94a40fef6a84ed25f" target="_top" xlink:title="forcebalance.openmmio.Update\lSimulationParameters">
<polygon fill="white" stroke="black" points="1126.5,-49 1126.5,-79 1297.5,-79 1297.5,-49 1126.5,-49"/>
<text text-anchor="start" x="1134.5" y="-67" font-family="Ubuntu-R" font-size="10.00">forcebalance.openmmio.Update</text>
<text text-anchor="middle" x="1212" y="-56" font-family="Ubuntu-R" font-size="10.00">SimulationParameters</text>
</a>
</g>
<!-- Node8&#45;&gt;Node9 -->
<g id="edge20" class="edge"><title>Node8&#45;&gt;Node9</title>
<path fill="none" stroke="midnightblue" d="M1081.54,-49.4212C1093.04,-50.7165 1104.82,-52.0425 1116.35,-53.3413"/>
<polygon fill="midnightblue" stroke="midnightblue" points="1116.08,-56.8331 1126.41,-54.4743 1116.87,-49.8771 1116.08,-56.8331"/>
</g>
<!-- Node12 -->
<g id="node25" class="node"><title>Node12</title>
<a xlink:href="classforcebalance_1_1openmmio_1_1Interaction__OpenMM.html#a9813c1a24af88156703d05ebe57bf707" target="_top" xlink:title="forcebalance.openmmio.Interaction\l_OpenMM.interaction_driver_all">
<polygon fill="white" stroke="black" points="1118.5,-0 1118.5,-30 1305.5,-30 1305.5,-0 1118.5,-0"/>
<text text-anchor="start" x="1126.5" y="-18" font-family="Ubuntu-R" font-size="10.00">forcebalance.openmmio.Interaction</text>
<text text-anchor="middle" x="1212" y="-7" font-family="Ubuntu-R" font-size="10.00">_OpenMM.interaction_driver_all</text>
</a>
</g>
<!-- Node8&#45;&gt;Node12 -->
<g id="edge26" class="edge"><title>Node8&#45;&gt;Node12</title>
<path fill="none" stroke="midnightblue" d="M1081.54,-28.9956C1090.36,-28.0424 1099.33,-27.072 1108.24,-26.1092"/>
<polygon fill="midnightblue" stroke="midnightblue" points="1108.69,-29.5814 1118.25,-25.0268 1107.93,-22.6219 1108.69,-29.5814"/>
</g>
<!-- Node10 -->
<g id="node21" class="node"><title>Node10</title>
<a xlink:href="namespaceforcebalance_1_1openmmio.html#a95d91538d72e354fc95433539c42450c" target="_top" xlink:title="forcebalance.openmmio.Set\lAmoebaVirtualExclusions">
<polygon fill="white" stroke="black" points="1342,-49 1342,-79 1494,-79 1494,-49 1342,-49"/>
<text text-anchor="start" x="1350" y="-67" font-family="Ubuntu-R" font-size="10.00">forcebalance.openmmio.Set</text>
<text text-anchor="middle" x="1418" y="-56" font-family="Ubuntu-R" font-size="10.00">AmoebaVirtualExclusions</text>
</a>
</g>
<!-- Node9&#45;&gt;Node10 -->
<g id="edge22" class="edge"><title>Node9&#45;&gt;Node10</title>
<path fill="none" stroke="midnightblue" d="M1297.74,-64C1308.97,-64 1320.49,-64 1331.73,-64"/>
<polygon fill="midnightblue" stroke="midnightblue" points="1331.96,-67.5001 1341.96,-64 1331.96,-60.5001 1331.96,-67.5001"/>
</g>
<!-- Node11 -->
<g id="node23" class="node"><title>Node11</title>
<a xlink:href="namespaceforcebalance_1_1openmmio.html#aa085594c11e9cd00ce71f5a8ead72b68" target="_top" xlink:title="Create a multiple timestep velocity verlet with velocity randomization (VVVR) integrator. ">
<polygon fill="white" stroke="black" points="1530,-54.5 1530,-73.5 1760,-73.5 1760,-54.5 1530,-54.5"/>
<text text-anchor="middle" x="1645" y="-61.5" font-family="Ubuntu-R" font-size="10.00">forcebalance.openmmio.MTSVVVRIntegrator</text>
</a>
</g>
<!-- Node10&#45;&gt;Node11 -->
<g id="edge24" class="edge"><title>Node10&#45;&gt;Node11</title>
<path fill="none" stroke="midnightblue" d="M1494.23,-64C1502.5,-64 1511.06,-64 1519.73,-64"/>
<polygon fill="midnightblue" stroke="midnightblue" points="1519.92,-67.5001 1529.92,-64 1519.92,-60.5001 1519.92,-67.5001"/>
</g>
</g>
</svg>
