<?xml version="1.0" encoding="UTF-8" standalone="no"?>
<!DOCTYPE svg PUBLIC "-//W3C//DTD SVG 1.1//EN"
 "http://www.w3.org/Graphics/SVG/1.1/DTD/svg11.dtd">
<!-- Generated by graphviz version 2.26.3 (20100126.1600)
 -->
<!-- Title: forcebalance.openmmio.AbInitio_OpenMM.energy_force_driver_all_internal_ Pages: 1 -->
<svg width="2566pt" height="362pt"
 viewBox="0.00 0.00 2566.00 362.00" xmlns="http://www.w3.org/2000/svg" xmlns:xlink="http://www.w3.org/1999/xlink">
<g id="graph1" class="graph" transform="scale(1 1) rotate(0) translate(4 358)">
<title>forcebalance.openmmio.AbInitio_OpenMM.energy_force_driver_all_internal_</title>
<polygon fill="white" stroke="white" points="-4,5 -4,-358 2563,-358 2563,5 -4,5"/>
<!-- Node1 -->
<g id="node1" class="node"><title>Node1</title>
<polygon fill="#bfbfbf" stroke="black" points="0.5,-172.5 0.5,-219.5 151.5,-219.5 151.5,-172.5 0.5,-172.5"/>
<text text-anchor="start" x="8.5" y="-206.5" font-family="Ubuntu-R" font-size="10.00">forcebalance.openmmio.Ab</text>
<text text-anchor="start" x="8.5" y="-193.5" font-family="Ubuntu-R" font-size="10.00">Initio_OpenMM.energy_force</text>
<text text-anchor="middle" x="76" y="-180.5" font-family="Ubuntu-R" font-size="10.00">_driver_all_internal_</text>
</g>
<!-- Node1&#45;&gt;Node1 -->
<g id="edge32" class="edge"><title>Node1&#45;&gt;Node1</title>
<path fill="none" stroke="midnightblue" d="M39.2013,-219.747C36.6635,-229.626 48.9297,-238 76,-238 93.3419,-238 104.608,-234.563 109.799,-229.496"/>
<polygon fill="midnightblue" stroke="midnightblue" points="113.203,-230.334 112.799,-219.747 106.512,-228.276 113.203,-230.334"/>
</g>
<!-- Node2 -->
<g id="node3" class="node"><title>Node2</title>
<a xlink:href="namespaceforcebalance_1_1openmmio.html#a9f9fc56475dbfcc94a40fef6a84ed25f" target="_top" xlink:title="forcebalance.openmmio.Update\lSimulationParameters">
<polygon fill="white" stroke="black" points="188.5,-320 188.5,-354 359.5,-354 359.5,-320 188.5,-320"/>
<text text-anchor="start" x="196.5" y="-341" font-family="Ubuntu-R" font-size="10.00">forcebalance.openmmio.Update</text>
<text text-anchor="middle" x="274" y="-328" font-family="Ubuntu-R" font-size="10.00">SimulationParameters</text>
</a>
</g>
<!-- Node1&#45;&gt;Node2 -->
<g id="edge2" class="edge"><title>Node1&#45;&gt;Node2</title>
<path fill="none" stroke="midnightblue" d="M93.1362,-219.738C113.11,-245.752 148.466,-286.973 188,-311 190.647,-312.609 193.401,-314.124 196.229,-315.552"/>
<polygon fill="midnightblue" stroke="midnightblue" points="194.929,-318.806 205.475,-319.815 197.86,-312.449 194.929,-318.806"/>
</g>
<!-- Node3 -->
<g id="node5" class="node"><title>Node3</title>
<a xlink:href="namespaceforcebalance_1_1openmmio.html#af623fa5af97de6c6a0bc5f98ce8db432" target="_top" xlink:title="Given a set of OpenMM&#45;compatible positions and a System object, compute the correct virtual site posi...">
<polygon fill="white" stroke="black" points="193,-268 193,-302 355,-302 355,-268 193,-268"/>
<text text-anchor="start" x="201" y="-289" font-family="Ubuntu-R" font-size="10.00">forcebalance.openmmio.Reset</text>
<text text-anchor="middle" x="274" y="-276" font-family="Ubuntu-R" font-size="10.00">VirtualSites</text>
</a>
</g>
<!-- Node1&#45;&gt;Node3 -->
<g id="edge4" class="edge"><title>Node1&#45;&gt;Node3</title>
<path fill="none" stroke="midnightblue" d="M113.055,-219.557C134.387,-232.42 162.039,-247.932 188,-259 192.634,-260.976 197.468,-262.867 202.377,-264.663"/>
<polygon fill="midnightblue" stroke="midnightblue" points="201.283,-267.988 211.878,-267.998 203.601,-261.383 201.283,-267.988"/>
</g>
<!-- Node15 -->
<g id="node29" class="node"><title>Node15</title>
<a xlink:href="classforcebalance_1_1openmmio_1_1AbInitio__OpenMM.html#a0673b350bb0638307875d1a4d153bf34" target="_top" xlink:title="forcebalance.openmmio.Ab\lInitio_OpenMM.energy_force\l_driver_all">
<polygon fill="white" stroke="black" points="198.5,-202.5 198.5,-249.5 349.5,-249.5 349.5,-202.5 198.5,-202.5"/>
<text text-anchor="start" x="206.5" y="-236.5" font-family="Ubuntu-R" font-size="10.00">forcebalance.openmmio.Ab</text>
<text text-anchor="start" x="206.5" y="-223.5" font-family="Ubuntu-R" font-size="10.00">Initio_OpenMM.energy_force</text>
<text text-anchor="middle" x="274" y="-210.5" font-family="Ubuntu-R" font-size="10.00">_driver_all</text>
</a>
</g>
<!-- Node1&#45;&gt;Node15 -->
<g id="edge28" class="edge"><title>Node1&#45;&gt;Node15</title>
<path fill="none" stroke="midnightblue" d="M151.703,-207.47C163.644,-209.279 176.064,-211.161 188.213,-213.002"/>
<polygon fill="midnightblue" stroke="midnightblue" points="187.928,-216.499 198.339,-214.536 188.976,-209.578 187.928,-216.499"/>
</g>
<!-- Node17 -->
<g id="node34" class="node"><title>Node17</title>
<a xlink:href="namespaceforcebalance_1_1nifty.html#abb8f59044961a12588e0653c2baa8b01" target="_top" xlink:title="forcebalance.nifty.warn\l_press_key">
<polygon fill="white" stroke="black" points="211.5,-150 211.5,-184 336.5,-184 336.5,-150 211.5,-150"/>
<text text-anchor="start" x="219.5" y="-171" font-family="Ubuntu-R" font-size="10.00">forcebalance.nifty.warn</text>
<text text-anchor="middle" x="274" y="-158" font-family="Ubuntu-R" font-size="10.00">_press_key</text>
</a>
</g>
<!-- Node1&#45;&gt;Node17 -->
<g id="edge34" class="edge"><title>Node1&#45;&gt;Node17</title>
<path fill="none" stroke="midnightblue" d="M151.703,-184.912C167.976,-182.529 185.14,-180.015 201.297,-177.648"/>
<polygon fill="midnightblue" stroke="midnightblue" points="201.822,-181.109 211.209,-176.197 200.808,-174.183 201.822,-181.109"/>
</g>
<!-- Node18 -->
<g id="node36" class="node"><title>Node18</title>
<a xlink:href="classforcebalance_1_1amberio_1_1AbInitio__AMBER.html#ad0fcc43d857471ee074361076c040ea5" target="_top" xlink:title="forcebalance.amberio.AbInitio\l_AMBER.energy_force_driver\l_all_external_">
<polygon fill="white" stroke="black" points="194.5,-66.5 194.5,-113.5 353.5,-113.5 353.5,-66.5 194.5,-66.5"/>
<text text-anchor="start" x="202.5" y="-100.5" font-family="Ubuntu-R" font-size="10.00">forcebalance.amberio.AbInitio</text>
<text text-anchor="start" x="202.5" y="-87.5" font-family="Ubuntu-R" font-size="10.00">_AMBER.energy_force_driver</text>
<text text-anchor="middle" x="274" y="-74.5" font-family="Ubuntu-R" font-size="10.00">_all_external_</text>
</a>
</g>
<!-- Node1&#45;&gt;Node18 -->
<g id="edge36" class="edge"><title>Node1&#45;&gt;Node18</title>
<path fill="none" stroke="midnightblue" d="M119.943,-172.475C149.703,-156.543 189.196,-135.4 220.745,-118.51"/>
<polygon fill="midnightblue" stroke="midnightblue" points="222.674,-121.448 229.838,-113.642 219.37,-115.276 222.674,-121.448"/>
</g>
<!-- Node21 -->
<g id="node43" class="node"><title>Node21</title>
<a xlink:href="classforcebalance_1_1openmmio_1_1AbInitio__OpenMM.html#a665d40a34e6c4f8eb8af0faeff9aa3cb" target="_top" xlink:title="forcebalance.openmmio.Ab\lInitio_OpenMM.energy_force\l_driver_all_external_">
<polygon fill="white" stroke="black" points="198.5,-0.5 198.5,-47.5 349.5,-47.5 349.5,-0.5 198.5,-0.5"/>
<text text-anchor="start" x="206.5" y="-34.5" font-family="Ubuntu-R" font-size="10.00">forcebalance.openmmio.Ab</text>
<text text-anchor="start" x="206.5" y="-21.5" font-family="Ubuntu-R" font-size="10.00">Initio_OpenMM.energy_force</text>
<text text-anchor="middle" x="274" y="-8.5" font-family="Ubuntu-R" font-size="10.00">_driver_all_external_</text>
</a>
</g>
<!-- Node1&#45;&gt;Node21 -->
<g id="edge44" class="edge"><title>Node1&#45;&gt;Node21</title>
<path fill="none" stroke="midnightblue" d="M89.5351,-172.386C108.127,-141.856 144.286,-88.8375 188,-57 189.891,-55.6231 191.846,-54.2958 193.852,-53.0169"/>
<polygon fill="midnightblue" stroke="midnightblue" points="196.062,-55.7799 202.934,-47.7164 192.533,-49.7341 196.062,-55.7799"/>
</g>
<!-- Node4 -->
<g id="node7" class="node"><title>Node4</title>
<a xlink:href="namespaceforcebalance_1_1openmmio.html#a792a195b31612f2140b35927fe28fa1a" target="_top" xlink:title="forcebalance.openmmio.Copy\lAmoebaBondParameters">
<polygon fill="white" stroke="black" points="400.5,-268 400.5,-302 559.5,-302 559.5,-268 400.5,-268"/>
<text text-anchor="start" x="408.5" y="-289" font-family="Ubuntu-R" font-size="10.00">forcebalance.openmmio.Copy</text>
<text text-anchor="middle" x="480" y="-276" font-family="Ubuntu-R" font-size="10.00">AmoebaBondParameters</text>
</a>
</g>
<!-- Node3&#45;&gt;Node4 -->
<g id="edge6" class="edge"><title>Node3&#45;&gt;Node4</title>
<path fill="none" stroke="midnightblue" d="M355.121,-285C366.616,-285 378.492,-285 390.14,-285"/>
<polygon fill="midnightblue" stroke="midnightblue" points="390.302,-288.5 400.302,-285 390.302,-281.5 390.302,-288.5"/>
</g>
<!-- Node5 -->
<g id="node9" class="node"><title>Node5</title>
<a xlink:href="namespaceforcebalance_1_1openmmio.html#a2e95f600757655d41660c25af8fd8e80" target="_top" xlink:title="forcebalance.openmmio.Copy\lAmoebaOutOfPlaneBendParameters">
<polygon fill="white" stroke="black" points="600,-268 600,-302 792,-302 792,-268 600,-268"/>
<text text-anchor="start" x="608" y="-289" font-family="Ubuntu-R" font-size="10.00">forcebalance.openmmio.Copy</text>
<text text-anchor="middle" x="696" y="-276" font-family="Ubuntu-R" font-size="10.00">AmoebaOutOfPlaneBendParameters</text>
</a>
</g>
<!-- Node4&#45;&gt;Node5 -->
<g id="edge8" class="edge"><title>Node4&#45;&gt;Node5</title>
<path fill="none" stroke="midnightblue" d="M559.51,-285C569.344,-285 579.517,-285 589.67,-285"/>
<polygon fill="midnightblue" stroke="midnightblue" points="589.804,-288.5 599.804,-285 589.804,-281.5 589.804,-288.5"/>
</g>
<!-- Node6 -->
<g id="node11" class="node"><title>Node6</title>
<a xlink:href="namespaceforcebalance_1_1openmmio.html#abe9a6b9b200dc8487e56dad7249af3ec" target="_top" xlink:title="forcebalance.openmmio.Copy\lAmoebaAngleParameters">
<polygon fill="white" stroke="black" points="828.5,-268 828.5,-302 987.5,-302 987.5,-268 828.5,-268"/>
<text text-anchor="start" x="836.5" y="-289" font-family="Ubuntu-R" font-size="10.00">forcebalance.openmmio.Copy</text>
<text text-anchor="middle" x="908" y="-276" font-family="Ubuntu-R" font-size="10.00">AmoebaAngleParameters</text>
</a>
</g>
<!-- Node5&#45;&gt;Node6 -->
<g id="edge10" class="edge"><title>Node5&#45;&gt;Node6</title>
<path fill="none" stroke="midnightblue" d="M792.075,-285C800.816,-285 809.647,-285 818.329,-285"/>
<polygon fill="midnightblue" stroke="midnightblue" points="818.437,-288.5 828.437,-285 818.437,-281.5 818.437,-288.5"/>
</g>
<!-- Node7 -->
<g id="node13" class="node"><title>Node7</title>
<a xlink:href="namespaceforcebalance_1_1openmmio.html#ad0d4739f80f2aab1a861f2e03b8efcd6" target="_top" xlink:title="forcebalance.openmmio.Copy\lAmoebaInPlaneAngleParameters">
<polygon fill="white" stroke="black" points="1024,-268 1024,-302 1198,-302 1198,-268 1024,-268"/>
<text text-anchor="start" x="1032" y="-289" font-family="Ubuntu-R" font-size="10.00">forcebalance.openmmio.Copy</text>
<text text-anchor="middle" x="1111" y="-276" font-family="Ubuntu-R" font-size="10.00">AmoebaInPlaneAngleParameters</text>
</a>
</g>
<!-- Node6&#45;&gt;Node7 -->
<g id="edge12" class="edge"><title>Node6&#45;&gt;Node7</title>
<path fill="none" stroke="midnightblue" d="M987.648,-285C996.191,-285 1004.95,-285 1013.67,-285"/>
<polygon fill="midnightblue" stroke="midnightblue" points="1013.87,-288.5 1023.87,-285 1013.87,-281.5 1013.87,-288.5"/>
</g>
<!-- Node8 -->
<g id="node15" class="node"><title>Node8</title>
<a xlink:href="namespaceforcebalance_1_1openmmio.html#abe005f73c6dfe9ce1052c9434bcad9be" target="_top" xlink:title="forcebalance.openmmio.Copy\lAmoebaVdwParameters">
<polygon fill="white" stroke="black" points="1234.5,-268 1234.5,-302 1393.5,-302 1393.5,-268 1234.5,-268"/>
<text text-anchor="start" x="1242.5" y="-289" font-family="Ubuntu-R" font-size="10.00">forcebalance.openmmio.Copy</text>
<text text-anchor="middle" x="1314" y="-276" font-family="Ubuntu-R" font-size="10.00">AmoebaVdwParameters</text>
</a>
</g>
<!-- Node7&#45;&gt;Node8 -->
<g id="edge14" class="edge"><title>Node7&#45;&gt;Node8</title>
<path fill="none" stroke="midnightblue" d="M1198.27,-285C1206.92,-285 1215.71,-285 1224.38,-285"/>
<polygon fill="midnightblue" stroke="midnightblue" points="1224.5,-288.5 1234.5,-285 1224.5,-281.5 1224.5,-288.5"/>
</g>
<!-- Node9 -->
<g id="node17" class="node"><title>Node9</title>
<a xlink:href="namespaceforcebalance_1_1openmmio.html#a3706c19e71969cabe5782a4535abeffe" target="_top" xlink:title="forcebalance.openmmio.Copy\lAmoebaMultipoleParameters">
<polygon fill="white" stroke="black" points="1430.5,-268 1430.5,-302 1589.5,-302 1589.5,-268 1430.5,-268"/>
<text text-anchor="start" x="1438.5" y="-289" font-family="Ubuntu-R" font-size="10.00">forcebalance.openmmio.Copy</text>
<text text-anchor="middle" x="1510" y="-276" font-family="Ubuntu-R" font-size="10.00">AmoebaMultipoleParameters</text>
</a>
</g>
<!-- Node8&#45;&gt;Node9 -->
<g id="edge16" class="edge"><title>Node8&#45;&gt;Node9</title>
<path fill="none" stroke="midnightblue" d="M1393.72,-285C1402.4,-285 1411.29,-285 1420.08,-285"/>
<polygon fill="midnightblue" stroke="midnightblue" points="1420.35,-288.5 1430.35,-285 1420.35,-281.5 1420.35,-288.5"/>
</g>
<!-- Node10 -->
<g id="node19" class="node"><title>Node10</title>
<a xlink:href="namespaceforcebalance_1_1openmmio.html#a616f12cc53381716e5fa41f00bf623be" target="_top" xlink:title="forcebalance.openmmio.Copy\lHarmonicBondParameters">
<polygon fill="white" stroke="black" points="1626.5,-268 1626.5,-302 1785.5,-302 1785.5,-268 1626.5,-268"/>
<text text-anchor="start" x="1634.5" y="-289" font-family="Ubuntu-R" font-size="10.00">forcebalance.openmmio.Copy</text>
<text text-anchor="middle" x="1706" y="-276" font-family="Ubuntu-R" font-size="10.00">HarmonicBondParameters</text>
</a>
</g>
<!-- Node9&#45;&gt;Node10 -->
<g id="edge18" class="edge"><title>Node9&#45;&gt;Node10</title>
<path fill="none" stroke="midnightblue" d="M1589.72,-285C1598.4,-285 1607.29,-285 1616.08,-285"/>
<polygon fill="midnightblue" stroke="midnightblue" points="1616.35,-288.5 1626.35,-285 1616.35,-281.5 1616.35,-288.5"/>
</g>
<!-- Node11 -->
<g id="node21" class="node"><title>Node11</title>
<a xlink:href="namespaceforcebalance_1_1openmmio.html#af4ed16f5e2b1cd12bce2f25fab1b05bc" target="_top" xlink:title="forcebalance.openmmio.Copy\lHarmonicAngleParameters">
<polygon fill="white" stroke="black" points="1822.5,-268 1822.5,-302 1981.5,-302 1981.5,-268 1822.5,-268"/>
<text text-anchor="start" x="1830.5" y="-289" font-family="Ubuntu-R" font-size="10.00">forcebalance.openmmio.Copy</text>
<text text-anchor="middle" x="1902" y="-276" font-family="Ubuntu-R" font-size="10.00">HarmonicAngleParameters</text>
</a>
</g>
<!-- Node10&#45;&gt;Node11 -->
<g id="edge20" class="edge"><title>Node10&#45;&gt;Node11</title>
<path fill="none" stroke="midnightblue" d="M1785.72,-285C1794.4,-285 1803.29,-285 1812.08,-285"/>
<polygon fill="midnightblue" stroke="midnightblue" points="1812.35,-288.5 1822.35,-285 1812.35,-281.5 1812.35,-288.5"/>
</g>
<!-- Node12 -->
<g id="node23" class="node"><title>Node12</title>
<a xlink:href="namespaceforcebalance_1_1openmmio.html#a8f13702754f0b4e43e272139a2ce8341" target="_top" xlink:title="forcebalance.openmmio.Copy\lPeriodicTorsionParameters">
<polygon fill="white" stroke="black" points="2018.5,-268 2018.5,-302 2177.5,-302 2177.5,-268 2018.5,-268"/>
<text text-anchor="start" x="2026.5" y="-289" font-family="Ubuntu-R" font-size="10.00">forcebalance.openmmio.Copy</text>
<text text-anchor="middle" x="2098" y="-276" font-family="Ubuntu-R" font-size="10.00">PeriodicTorsionParameters</text>
</a>
</g>
<!-- Node11&#45;&gt;Node12 -->
<g id="edge22" class="edge"><title>Node11&#45;&gt;Node12</title>
<path fill="none" stroke="midnightblue" d="M1981.72,-285C1990.4,-285 1999.29,-285 2008.08,-285"/>
<polygon fill="midnightblue" stroke="midnightblue" points="2008.35,-288.5 2018.35,-285 2008.35,-281.5 2008.35,-288.5"/>
</g>
<!-- Node13 -->
<g id="node25" class="node"><title>Node13</title>
<a xlink:href="namespaceforcebalance_1_1openmmio.html#afead47464a644d9225f9fa8eb568a8ed" target="_top" xlink:title="forcebalance.openmmio.Copy\lNonbondedParameters">
<polygon fill="white" stroke="black" points="2214.5,-268 2214.5,-302 2373.5,-302 2373.5,-268 2214.5,-268"/>
<text text-anchor="start" x="2222.5" y="-289" font-family="Ubuntu-R" font-size="10.00">forcebalance.openmmio.Copy</text>
<text text-anchor="middle" x="2294" y="-276" font-family="Ubuntu-R" font-size="10.00">NonbondedParameters</text>
</a>
</g>
<!-- Node12&#45;&gt;Node13 -->
<g id="edge24" class="edge"><title>Node12&#45;&gt;Node13</title>
<path fill="none" stroke="midnightblue" d="M2177.72,-285C2186.4,-285 2195.29,-285 2204.08,-285"/>
<polygon fill="midnightblue" stroke="midnightblue" points="2204.35,-288.5 2214.35,-285 2204.35,-281.5 2204.35,-288.5"/>
</g>
<!-- Node14 -->
<g id="node27" class="node"><title>Node14</title>
<a xlink:href="namespaceforcebalance_1_1openmmio.html#a2bb7add6b813d94f2655372c51fe8fdc" target="_top" xlink:title="forcebalance.openmmio.do\l_nothing">
<polygon fill="white" stroke="black" points="2410.5,-268 2410.5,-302 2557.5,-302 2557.5,-268 2410.5,-268"/>
<text text-anchor="start" x="2418.5" y="-289" font-family="Ubuntu-R" font-size="10.00">forcebalance.openmmio.do</text>
<text text-anchor="middle" x="2484" y="-276" font-family="Ubuntu-R" font-size="10.00">_nothing</text>
</a>
</g>
<!-- Node13&#45;&gt;Node14 -->
<g id="edge26" class="edge"><title>Node13&#45;&gt;Node14</title>
<path fill="none" stroke="midnightblue" d="M2373.75,-285C2382.44,-285 2391.3,-285 2400.03,-285"/>
<polygon fill="midnightblue" stroke="midnightblue" points="2400.21,-288.5 2410.21,-285 2400.21,-281.5 2400.21,-288.5"/>
</g>
<!-- Node16 -->
<g id="node31" class="node"><title>Node16</title>
<a xlink:href="classforcebalance_1_1openmmio_1_1AbInitio__OpenMM.html#af5fcee0c4321c7d3024868742a266f7a" target="_top" xlink:title="forcebalance.openmmio.Ab\lInitio_OpenMM.__init__">
<polygon fill="white" stroke="black" points="406,-209 406,-243 554,-243 554,-209 406,-209"/>
<text text-anchor="start" x="414" y="-230" font-family="Ubuntu-R" font-size="10.00">forcebalance.openmmio.Ab</text>
<text text-anchor="middle" x="480" y="-217" font-family="Ubuntu-R" font-size="10.00">Initio_OpenMM.__init__</text>
</a>
</g>
<!-- Node15&#45;&gt;Node16 -->
<g id="edge30" class="edge"><title>Node15&#45;&gt;Node16</title>
<path fill="none" stroke="midnightblue" d="M349.537,-226C364.465,-226 380.223,-226 395.427,-226"/>
<polygon fill="midnightblue" stroke="midnightblue" points="395.848,-229.5 405.848,-226 395.848,-222.5 395.848,-229.5"/>
</g>
<!-- Node18&#45;&gt;Node18 -->
<g id="edge42" class="edge"><title>Node18&#45;&gt;Node18</title>
<path fill="none" stroke="midnightblue" d="M237.201,-113.747C234.663,-123.626 246.93,-132 274,-132 291.342,-132 302.608,-128.563 307.799,-123.496"/>
<polygon fill="midnightblue" stroke="midnightblue" points="311.203,-124.334 310.799,-113.747 304.512,-122.276 311.203,-124.334"/>
</g>
<!-- Node19 -->
<g id="node38" class="node"><title>Node19</title>
<a xlink:href="namespaceforcebalance_1_1molecule.html#afe989ffd119568047fc8265b1d329a70" target="_top" xlink:title="Matches ANY number; it can be a decimal, scientific notation, integer, or what have you...">
<polygon fill="white" stroke="black" points="402,-102.5 402,-123.5 558,-123.5 558,-102.5 402,-102.5"/>
<text text-anchor="middle" x="480" y="-110.5" font-family="Ubuntu-R" font-size="10.00">forcebalance.molecule.isfloat</text>
</a>
</g>
<!-- Node18&#45;&gt;Node19 -->
<g id="edge38" class="edge"><title>Node18&#45;&gt;Node19</title>
<path fill="none" stroke="midnightblue" d="M353.645,-98.8924C366.152,-100.289 379.144,-101.739 391.83,-103.156"/>
<polygon fill="midnightblue" stroke="midnightblue" points="391.596,-106.651 401.923,-104.283 392.373,-99.6946 391.596,-106.651"/>
</g>
<!-- Node20 -->
<g id="node40" class="node"><title>Node20</title>
<a xlink:href="classforcebalance_1_1amberio_1_1AbInitio__AMBER.html#a64ccf943e550392c654ec7bb6c6ff81b" target="_top" xlink:title="forcebalance.amberio.AbInitio\l_AMBER.energy_force_driver_all">
<polygon fill="white" stroke="black" points="396,-50 396,-84 564,-84 564,-50 396,-50"/>
<text text-anchor="start" x="404" y="-71" font-family="Ubuntu-R" font-size="10.00">forcebalance.amberio.AbInitio</text>
<text text-anchor="middle" x="480" y="-58" font-family="Ubuntu-R" font-size="10.00">_AMBER.energy_force_driver_all</text>
</a>
</g>
<!-- Node18&#45;&gt;Node20 -->
<g id="edge40" class="edge"><title>Node18&#45;&gt;Node20</title>
<path fill="none" stroke="midnightblue" d="M353.645,-81.1076C364.112,-79.9389 374.92,-78.7323 385.603,-77.5395"/>
<polygon fill="midnightblue" stroke="midnightblue" points="386.242,-80.99 395.792,-76.4019 385.465,-74.0332 386.242,-80.99"/>
</g>
</g>
</svg>
