<?xml version="1.0" encoding="UTF-8" standalone="no"?>
<!DOCTYPE svg PUBLIC "-//W3C//DTD SVG 1.1//EN"
 "http://www.w3.org/Graphics/SVG/1.1/DTD/svg11.dtd">
<!-- Generated by graphviz version 2.32.0 (20130801.1845)
 -->
<!-- Title: forcebalance.forcefield.FF.rsmake Pages: 1 -->
<svg width="1622pt" height="166pt"
 viewBox="0.00 0.00 1622.00 166.00" xmlns="http://www.w3.org/2000/svg" xmlns:xlink="http://www.w3.org/1999/xlink">
<g id="graph0" class="graph" transform="scale(1 1) rotate(0) translate(4 162)">
<title>forcebalance.forcefield.FF.rsmake</title>
<polygon fill="white" stroke="white" points="-4,5 -4,-162 1619,-162 1619,5 -4,5"/>
<!-- Node1 -->
<g id="node1" class="node"><title>Node1</title>
<polygon fill="#bfbfbf" stroke="black" points="0.5335,-81 0.5335,-113 111.467,-113 111.467,-81 0.5335,-81"/>
<text text-anchor="start" x="8.5335" y="-100" font-family="Ubuntu-R" font-size="10.00">forcebalance.forcefield.</text>
<text text-anchor="middle" x="56" y="-88" font-family="Ubuntu-R" font-size="10.00">FF.rsmake</text>
</g>
<!-- Node2 -->
<g id="node2" class="node"><title>Node2</title>
<g id="a_node2"><a xlink:href="namespaceforcebalance_1_1forcefield.html#ab1a855bace20dd5e45928467e2a133f1" target="_top" xlink:title="This function takes in a dictionary (rsfactors) and a string (termtype).">
<polygon fill="white" stroke="black" points="152.924,-126 152.924,-158 271.076,-158 271.076,-126 152.924,-126"/>
<text text-anchor="start" x="160.924" y="-145" font-family="Ubuntu-R" font-size="10.00">forcebalance.forcefield.rs</text>
<text text-anchor="middle" x="212" y="-133" font-family="Ubuntu-R" font-size="10.00">_override</text>
</a>
</g>
</g>
<!-- Node1&#45;&gt;Node2 -->
<g id="edge1" class="edge"><title>Node1&#45;&gt;Node2</title>
<path fill="none" stroke="midnightblue" d="M111.728,-112.992C123.008,-116.288 134.985,-119.788 146.571,-123.173"/>
<polygon fill="midnightblue" stroke="midnightblue" points="145.608,-126.538 156.189,-125.984 147.572,-119.819 145.608,-126.538"/>
</g>
<!-- Node3 -->
<g id="node3" class="node"><title>Node3</title>
<g id="a_node3"><a xlink:href="namespaceforcebalance_1_1nifty.html#a11babd62dc7bca389162c6318f9672ca" target="_top" xlink:title="Cool&#45;looking printout for slick formatting of output.">
<polygon fill="white" stroke="black" points="148.469,-87 148.469,-107 275.531,-107 275.531,-87 148.469,-87"/>
<text text-anchor="middle" x="212" y="-94" font-family="Ubuntu-R" font-size="10.00">forcebalance.nifty.printcool</text>
</a>
</g>
</g>
<!-- Node1&#45;&gt;Node3 -->
<g id="edge2" class="edge"><title>Node1&#45;&gt;Node3</title>
<path fill="none" stroke="midnightblue" d="M111.728,-97C120.334,-97 129.345,-97 138.28,-97"/>
<polygon fill="midnightblue" stroke="midnightblue" points="138.309,-100.5 148.309,-97 138.308,-93.5001 138.309,-100.5"/>
</g>
<!-- Node18 -->
<g id="node18" class="node"><title>Node18</title>
<g id="a_node18"><a xlink:href="classforcebalance_1_1forcefield_1_1FF.html#acf0ce8fc4e9fbf5257f93d14d4a4f10f" target="_top" xlink:title="Create the transformation matrix to rescale and rotate the mathematical parameters.">
<polygon fill="white" stroke="black" points="156.533,-36 156.533,-68 267.466,-68 267.466,-36 156.533,-36"/>
<text text-anchor="start" x="164.533" y="-55" font-family="Ubuntu-R" font-size="10.00">forcebalance.forcefield.</text>
<text text-anchor="middle" x="212" y="-43" font-family="Ubuntu-R" font-size="10.00">FF.mktransmat</text>
</a>
</g>
</g>
<!-- Node1&#45;&gt;Node18 -->
<g id="edge22" class="edge"><title>Node1&#45;&gt;Node18</title>
<path fill="none" stroke="midnightblue" d="M111.728,-81.008C123.075,-77.6923 135.128,-74.1703 146.78,-70.7657"/>
<polygon fill="midnightblue" stroke="midnightblue" points="147.831,-74.1049 156.448,-67.9405 145.868,-67.3859 147.831,-74.1049"/>
</g>
<!-- Node4 -->
<g id="node4" class="node"><title>Node4</title>
<g id="a_node4"><a xlink:href="namespaceforcebalance_1_1nifty.html#abb8f59044961a12588e0653c2baa8b01" target="_top" xlink:title="forcebalance.nifty.warn\l_press_key">
<polygon fill="white" stroke="black" points="1293.53,-105 1293.53,-137 1404.47,-137 1404.47,-105 1293.53,-105"/>
<text text-anchor="start" x="1301.53" y="-124" font-family="Ubuntu-R" font-size="10.00">forcebalance.nifty.warn</text>
<text text-anchor="middle" x="1349" y="-112" font-family="Ubuntu-R" font-size="10.00">_press_key</text>
</a>
</g>
</g>
<!-- Node3&#45;&gt;Node4 -->
<g id="edge3" class="edge"><title>Node3&#45;&gt;Node4</title>
<path fill="none" stroke="midnightblue" d="M275.787,-106.492C339.433,-115.281 440.828,-127 529,-127 529,-127 529,-127 1005,-127 1101.87,-127 1214.11,-124.578 1283.08,-122.812"/>
<polygon fill="midnightblue" stroke="midnightblue" points="1283.45,-126.303 1293.35,-122.545 1283.26,-119.306 1283.45,-126.303"/>
</g>
<!-- Node6 -->
<g id="node6" class="node"><title>Node6</title>
<g id="a_node6"><a xlink:href="namespaceforcebalance_1_1nifty.html#a51180e960742cc7547749fdfb3513ec4" target="_top" xlink:title="See documentation for printcool; this is a nice way to print out keys/values in a dictionary...">
<polygon fill="white" stroke="black" points="312.469,-50 312.469,-82 439.531,-82 439.531,-50 312.469,-50"/>
<text text-anchor="start" x="320.469" y="-69" font-family="Ubuntu-R" font-size="10.00">forcebalance.nifty.printcool</text>
<text text-anchor="middle" x="376" y="-57" font-family="Ubuntu-R" font-size="10.00">_dictionary</text>
</a>
</g>
</g>
<!-- Node3&#45;&gt;Node6 -->
<g id="edge5" class="edge"><title>Node3&#45;&gt;Node6</title>
<path fill="none" stroke="midnightblue" d="M265.597,-86.9352C277.334,-84.6892 289.982,-82.2689 302.366,-79.8991"/>
<polygon fill="midnightblue" stroke="midnightblue" points="303.055,-83.3308 312.219,-78.0137 301.739,-76.4556 303.055,-83.3308"/>
</g>
<!-- Node5 -->
<g id="node5" class="node"><title>Node5</title>
<g id="a_node5"><a xlink:href="namespaceforcebalance_1_1nifty.html#a2fc81730e7efa7d138dd86f733507bfc" target="_top" xlink:title="Similar to the bultin function map().">
<polygon fill="white" stroke="black" points="1458.04,-111 1458.04,-131 1613.96,-131 1613.96,-111 1458.04,-111"/>
<text text-anchor="middle" x="1536" y="-118" font-family="Ubuntu-R" font-size="10.00">forcebalance.nifty.concurrent_map</text>
</a>
</g>
</g>
<!-- Node4&#45;&gt;Node5 -->
<g id="edge4" class="edge"><title>Node4&#45;&gt;Node5</title>
<path fill="none" stroke="midnightblue" d="M1404.51,-121C1418.1,-121 1433.02,-121 1447.77,-121"/>
<polygon fill="midnightblue" stroke="midnightblue" points="1447.92,-124.5 1457.92,-121 1447.92,-117.5 1447.92,-124.5"/>
</g>
<!-- Node7 -->
<g id="node7" class="node"><title>Node7</title>
<g id="a_node7"><a xlink:href="namespaceforcebalance_1_1nifty.html#a3f1c7a1af9d35d5d1693074bc6f5497c" target="_top" xlink:title="ONLY matches integers! If you have a decimal point? None shall pass!">
<polygon fill="white" stroke="black" points="475.908,-56 475.908,-76 584.092,-76 584.092,-56 475.908,-56"/>
<text text-anchor="middle" x="530" y="-63" font-family="Ubuntu-R" font-size="10.00">forcebalance.nifty.isint</text>
</a>
</g>
</g>
<!-- Node6&#45;&gt;Node7 -->
<g id="edge6" class="edge"><title>Node6&#45;&gt;Node7</title>
<path fill="none" stroke="midnightblue" d="M439.702,-66C448.19,-66 456.907,-66 465.41,-66"/>
<polygon fill="midnightblue" stroke="midnightblue" points="465.648,-69.5001 475.648,-66 465.648,-62.5001 465.648,-69.5001"/>
</g>
<!-- Node9 -->
<g id="node9" class="node"><title>Node9</title>
<g id="a_node9"><a xlink:href="namespaceforcebalance_1_1nifty.html#a8e3ef0108b9d37b82ba0dced7c6037ae" target="_top" xlink:title="Matches ANY number; it can be a decimal, scientific notation, what have you CAUTION &#45; this will also ...">
<polygon fill="white" stroke="black" points="786.024,-20 786.024,-40 901.976,-40 901.976,-20 786.024,-20"/>
<text text-anchor="middle" x="844" y="-27" font-family="Ubuntu-R" font-size="10.00">forcebalance.nifty.isfloat</text>
</a>
</g>
</g>
<!-- Node6&#45;&gt;Node9 -->
<g id="edge21" class="edge"><title>Node6&#45;&gt;Node9</title>
<path fill="none" stroke="midnightblue" d="M439.662,-52.7955C451.682,-50.5974 464.199,-48.5365 476,-47 580.054,-33.4521 701.931,-30.2962 775.754,-29.7708"/>
<polygon fill="midnightblue" stroke="midnightblue" points="775.865,-33.2703 785.845,-29.7133 775.825,-26.2704 775.865,-33.2703"/>
</g>
<!-- Node8 -->
<g id="node8" class="node"><title>Node8</title>
<g id="a_node8"><a xlink:href="namespaceforcebalance_1_1nifty.html#a09263927eaec9deff283fbf1a820242f" target="_top" xlink:title="Matches things with a decimal only; see isint and isfloat.">
<polygon fill="white" stroke="black" points="620.36,-78 620.36,-98 749.64,-98 749.64,-78 620.36,-78"/>
<text text-anchor="middle" x="685" y="-85" font-family="Ubuntu-R" font-size="10.00">forcebalance.nifty.isdecimal</text>
</a>
</g>
</g>
<!-- Node7&#45;&gt;Node8 -->
<g id="edge7" class="edge"><title>Node7&#45;&gt;Node8</title>
<path fill="none" stroke="midnightblue" d="M584.512,-73.6945C592.812,-74.8879 601.509,-76.1386 610.161,-77.3827"/>
<polygon fill="midnightblue" stroke="midnightblue" points="609.874,-80.8773 620.271,-78.8363 610.871,-73.9486 609.874,-80.8773"/>
</g>
<!-- Node8&#45;&gt;Node9 -->
<g id="edge8" class="edge"><title>Node8&#45;&gt;Node9</title>
<path fill="none" stroke="midnightblue" d="M713.347,-77.8972C739.046,-68.4035 777.699,-54.124 806.116,-43.6258"/>
<polygon fill="midnightblue" stroke="midnightblue" points="807.536,-46.8327 815.703,-40.0842 805.11,-40.2665 807.536,-46.8327"/>
</g>
<!-- Node13 -->
<g id="node13" class="node"><title>Node13</title>
<g id="a_node13"><a xlink:href="namespaceforcebalance_1_1nifty.html#afb3f205bce4984856e766af7e9fdaca8" target="_top" xlink:title="Given any list, array, or matrix, return a 1&#45;column matrix.">
<polygon fill="white" stroke="black" points="792.412,-78 792.412,-98 895.588,-98 895.588,-78 792.412,-78"/>
<text text-anchor="middle" x="844" y="-85" font-family="Ubuntu-R" font-size="10.00">forcebalance.nifty.col</text>
</a>
</g>
</g>
<!-- Node8&#45;&gt;Node13 -->
<g id="edge13" class="edge"><title>Node8&#45;&gt;Node13</title>
<path fill="none" stroke="midnightblue" d="M749.858,-88C760.427,-88 771.364,-88 781.864,-88"/>
<polygon fill="midnightblue" stroke="midnightblue" points="782.189,-91.5001 792.189,-88 782.189,-84.5001 782.189,-91.5001"/>
</g>
<!-- Node9&#45;&gt;Node7 -->
<g id="edge9" class="edge"><title>Node9&#45;&gt;Node7</title>
<path fill="none" stroke="midnightblue" d="M785.978,-36.5794C731.846,-42.8255 650.625,-52.1971 594.463,-58.6773"/>
<polygon fill="midnightblue" stroke="midnightblue" points="593.813,-55.229 584.28,-59.8523 594.616,-62.1829 593.813,-55.229"/>
</g>
<!-- Node10 -->
<g id="node10" class="node"><title>Node10</title>
<g id="a_node10"><a xlink:href="namespaceforcebalance_1_1nifty.html#a8d63c8ae9a67c66673a6cf81357f827d" target="_top" xlink:title="Returns a big number if we encounter NaN.">
<polygon fill="white" stroke="black" points="937.974,-0 937.974,-20 1070.03,-20 1070.03,-0 937.974,-0"/>
<text text-anchor="middle" x="1004" y="-7" font-family="Ubuntu-R" font-size="10.00">forcebalance.nifty.floatornan</text>
</a>
</g>
</g>
<!-- Node9&#45;&gt;Node10 -->
<g id="edge10" class="edge"><title>Node9&#45;&gt;Node10</title>
<path fill="none" stroke="midnightblue" d="M902.042,-22.7795C910.364,-21.726 919.04,-20.6278 927.658,-19.5369"/>
<polygon fill="midnightblue" stroke="midnightblue" points="928.242,-22.9911 937.723,-18.2629 927.363,-16.0465 928.242,-22.9911"/>
</g>
<!-- Node11 -->
<g id="node11" class="node"><title>Node11</title>
<g id="a_node11"><a xlink:href="namespaceforcebalance_1_1nifty.html#a6c9727360cdff8f3011a12cc54d0e86e" target="_top" xlink:title="Given any list, array, or matrix, return a 1&#45;row matrix.">
<polygon fill="white" stroke="black" points="1119.75,-0 1119.75,-20 1226.25,-20 1226.25,-0 1119.75,-0"/>
<text text-anchor="middle" x="1173" y="-7" font-family="Ubuntu-R" font-size="10.00">forcebalance.nifty.row</text>
</a>
</g>
</g>
<!-- Node10&#45;&gt;Node11 -->
<g id="edge11" class="edge"><title>Node10&#45;&gt;Node11</title>
<path fill="none" stroke="midnightblue" d="M1070.04,-10C1082.98,-10 1096.54,-10 1109.39,-10"/>
<polygon fill="midnightblue" stroke="midnightblue" points="1109.52,-13.5001 1119.52,-10 1109.52,-6.5001 1109.52,-13.5001"/>
</g>
<!-- Node12 -->
<g id="node12" class="node"><title>Node12</title>
<g id="a_node12"><a xlink:href="namespaceforcebalance_1_1nifty.html#a7676236002c6a65ea7d2e69a09923889" target="_top" xlink:title="Given two vectors vec1 and vec2, project out the component of vec1 that is along the vec2&#45;direction...">
<polygon fill="white" stroke="black" points="1276.03,-0 1276.03,-20 1421.97,-20 1421.97,-0 1276.03,-0"/>
<text text-anchor="middle" x="1349" y="-7" font-family="Ubuntu-R" font-size="10.00">forcebalance.nifty.orthogonalize</text>
</a>
</g>
</g>
<!-- Node11&#45;&gt;Node12 -->
<g id="edge12" class="edge"><title>Node11&#45;&gt;Node12</title>
<path fill="none" stroke="midnightblue" d="M1226.68,-10C1239.03,-10 1252.49,-10 1265.79,-10"/>
<polygon fill="midnightblue" stroke="midnightblue" points="1265.92,-13.5001 1275.92,-10 1265.92,-6.5001 1265.92,-13.5001"/>
</g>
<!-- Node14 -->
<g id="node14" class="node"><title>Node14</title>
<g id="a_node14"><a xlink:href="namespaceforcebalance_1_1nifty.html#a52114ceee9d55f94d9aecb3e176de294" target="_top" xlink:title="Given any list, array, or matrix, return a single&#45;index array.">
<polygon fill="white" stroke="black" points="951.858,-39 951.858,-59 1056.14,-59 1056.14,-39 951.858,-39"/>
<text text-anchor="middle" x="1004" y="-46" font-family="Ubuntu-R" font-size="10.00">forcebalance.nifty.flat</text>
</a>
</g>
</g>
<!-- Node13&#45;&gt;Node14 -->
<g id="edge14" class="edge"><title>Node13&#45;&gt;Node14</title>
<path fill="none" stroke="midnightblue" d="M885.689,-77.9565C906.054,-72.9298 930.9,-66.7968 952.475,-61.4713"/>
<polygon fill="midnightblue" stroke="midnightblue" points="953.579,-64.804 962.449,-59.0094 951.902,-58.0079 953.579,-64.804"/>
</g>
<!-- Node15 -->
<g id="node15" class="node"><title>Node15</title>
<g id="a_node15"><a xlink:href="namespaceforcebalance_1_1nifty.html#a4c82187e92dfeb8a159f4aa44b501c40" target="_top" xlink:title="Invert a matrix using singular value decomposition.">
<polygon fill="white" stroke="black" points="1106.41,-78 1106.41,-98 1239.59,-98 1239.59,-78 1106.41,-78"/>
<text text-anchor="middle" x="1173" y="-85" font-family="Ubuntu-R" font-size="10.00">forcebalance.nifty.invert_svd</text>
</a>
</g>
</g>
<!-- Node14&#45;&gt;Node15 -->
<g id="edge15" class="edge"><title>Node14&#45;&gt;Node15</title>
<path fill="none" stroke="midnightblue" d="M1048.01,-59.0435C1069.73,-64.1157 1096.27,-70.3143 1119.22,-75.6731"/>
<polygon fill="midnightblue" stroke="midnightblue" points="1118.61,-79.1246 1129.14,-77.9906 1120.2,-72.3081 1118.61,-79.1246"/>
</g>
<!-- Node15&#45;&gt;Node4 -->
<g id="edge20" class="edge"><title>Node15&#45;&gt;Node4</title>
<path fill="none" stroke="midnightblue" d="M1227.15,-98.0804C1244.94,-101.454 1264.97,-105.253 1283.53,-108.773"/>
<polygon fill="midnightblue" stroke="midnightblue" points="1282.89,-112.215 1293.37,-110.639 1284.2,-105.337 1282.89,-112.215"/>
</g>
<!-- Node15&#45;&gt;Node13 -->
<g id="edge19" class="edge"><title>Node15&#45;&gt;Node13</title>
<path fill="none" stroke="midnightblue" d="M1106.17,-88C1047.72,-88 962.983,-88 906.033,-88"/>
<polygon fill="midnightblue" stroke="midnightblue" points="905.735,-84.5001 895.735,-88 905.735,-91.5001 905.735,-84.5001"/>
</g>
<!-- Node16 -->
<g id="node16" class="node"><title>Node16</title>
<g id="a_node16"><a xlink:href="namespaceforcebalance_1_1nifty.html#aa9fb9c7c65231eca50a7afc04f489b64" target="_top" xlink:title="forcebalance.nifty.get\l_least_squares">
<polygon fill="white" stroke="black" points="1297.41,-49 1297.41,-81 1400.59,-81 1400.59,-49 1297.41,-49"/>
<text text-anchor="start" x="1305.41" y="-68" font-family="Ubuntu-R" font-size="10.00">forcebalance.nifty.get</text>
<text text-anchor="middle" x="1349" y="-56" font-family="Ubuntu-R" font-size="10.00">_least_squares</text>
</a>
</g>
</g>
<!-- Node15&#45;&gt;Node16 -->
<g id="edge16" class="edge"><title>Node15&#45;&gt;Node16</title>
<path fill="none" stroke="midnightblue" d="M1239.78,-79.3047C1255.26,-77.2582 1271.7,-75.0855 1286.96,-73.0679"/>
<polygon fill="midnightblue" stroke="midnightblue" points="1287.86,-76.4797 1297.32,-71.6994 1286.95,-69.5401 1287.86,-76.4797"/>
</g>
<!-- Node16&#45;&gt;Node14 -->
<g id="edge17" class="edge"><title>Node16&#45;&gt;Node14</title>
<path fill="none" stroke="midnightblue" d="M1297.14,-62.6275C1235.72,-59.7622 1132.46,-54.9457 1066.59,-51.873"/>
<polygon fill="midnightblue" stroke="midnightblue" points="1066.5,-48.3652 1056.35,-51.3954 1066.18,-55.3576 1066.5,-48.3652"/>
</g>
<!-- Node17 -->
<g id="node17" class="node"><title>Node17</title>
<g id="a_node17"><a xlink:href="namespaceforcebalance_1_1nifty.html#ad5ca60565c864b4245a8212fe9d92e10" target="_top" xlink:title="Compute the (cross) statistical inefficiency of (two) timeseries.">
<polygon fill="white" stroke="black" points="1471.64,-49 1471.64,-81 1600.36,-81 1600.36,-49 1471.64,-49"/>
<text text-anchor="start" x="1479.64" y="-68" font-family="Ubuntu-R" font-size="10.00">forcebalance.nifty.statistical</text>
<text text-anchor="middle" x="1536" y="-56" font-family="Ubuntu-R" font-size="10.00">Inefficiency</text>
</a>
</g>
</g>
<!-- Node16&#45;&gt;Node17 -->
<g id="edge18" class="edge"><title>Node16&#45;&gt;Node17</title>
<path fill="none" stroke="midnightblue" d="M1401.04,-65C1419.71,-65 1441.21,-65 1461.45,-65"/>
<polygon fill="midnightblue" stroke="midnightblue" points="1461.58,-68.5001 1471.58,-65 1461.58,-61.5001 1461.58,-68.5001"/>
</g>
</g>
</svg>
