<?xml version="1.0" encoding="UTF-8" standalone="no"?>
<!DOCTYPE svg PUBLIC "-//W3C//DTD SVG 1.1//EN"
 "http://www.w3.org/Graphics/SVG/1.1/DTD/svg11.dtd">
<!-- Generated by graphviz version 2.28.0 (20111219.2309)
 -->
<!-- Title: forcebalance.Mol2.mol2.set_num_subst Pages: 1 -->
<svg width="344pt" height="56pt"
 viewBox="0.00 0.00 344.00 56.00" xmlns="http://www.w3.org/2000/svg" xmlns:xlink="http://www.w3.org/1999/xlink">
<g id="graph1" class="graph" transform="scale(1 1) rotate(0) translate(4 52)">
<title>forcebalance.Mol2.mol2.set_num_subst</title>
<polygon fill="white" stroke="white" points="-4,5 -4,-52 341,-52 341,5 -4,5"/>
<!-- Node1 -->
<g id="node1" class="node"><title>Node1</title>
<polygon fill="#bfbfbf" stroke="black" points="0.5,-0 0.5,-30 149.5,-30 149.5,-0 0.5,-0"/>
<text text-anchor="start" x="8.5" y="-18" font-family="Ubuntu-R" font-size="10.00">forcebalance.Mol2.mol2.set</text>
<text text-anchor="middle" x="75" y="-7" font-family="Ubuntu-R" font-size="10.00">_num_subst</text>
</g>
<!-- Node2 -->
<g id="node3" class="node"><title>Node2</title>
<a xlink:href="classforcebalance_1_1Mol2_1_1mol2.html#aaab9bc1afebb05a355c53db2a35740be" target="_top" xlink:title="bond identifier (integer, starting from 1) ">
<polygon fill="white" stroke="black" points="186.5,-0 186.5,-30 335.5,-30 335.5,-0 186.5,-0"/>
<text text-anchor="start" x="194.5" y="-18" font-family="Ubuntu-R" font-size="10.00">forcebalance.Mol2.mol2.set</text>
<text text-anchor="middle" x="261" y="-7" font-family="Ubuntu-R" font-size="10.00">_charge_type</text>
</a>
</g>
<!-- Node1&#45;&gt;Node2 -->
<g id="edge2" class="edge"><title>Node1&#45;&gt;Node2</title>
<path fill="none" stroke="midnightblue" d="M149.515,-15C158.315,-15 167.351,-15 176.281,-15"/>
<polygon fill="midnightblue" stroke="midnightblue" points="176.302,-18.5001 186.302,-15 176.302,-11.5001 176.302,-18.5001"/>
</g>
<!-- Node2&#45;&gt;Node2 -->
<g id="edge4" class="edge"><title>Node2&#45;&gt;Node2</title>
<path fill="none" stroke="midnightblue" d="M228.305,-30.2754C221.039,-39.4062 231.938,-48 261,-48 278.256,-48 289.108,-44.9704 293.557,-40.5975"/>
<polygon fill="midnightblue" stroke="midnightblue" points="297.061,-40.3214 293.695,-30.2754 290.062,-40.2275 297.061,-40.3214"/>
</g>
</g>
</svg>
