<?xml version="1.0" encoding="UTF-8" standalone="no"?>
<!DOCTYPE svg PUBLIC "-//W3C//DTD SVG 1.1//EN"
 "http://www.w3.org/Graphics/SVG/1.1/DTD/svg11.dtd">
<!-- Generated by graphviz version 2.26.3 (20100126.1600)
 -->
<!-- Title: forcebalance.psi4io.Grid_Reader.build_pid Pages: 1 -->
<svg width="684pt" height="56pt"
 viewBox="0.00 0.00 684.00 56.00" xmlns="http://www.w3.org/2000/svg" xmlns:xlink="http://www.w3.org/1999/xlink">
<g id="graph1" class="graph" transform="scale(1 1) rotate(0) translate(4 52)">
<title>forcebalance.psi4io.Grid_Reader.build_pid</title>
<polygon fill="white" stroke="white" points="-4,5 -4,-52 681,-52 681,5 -4,5"/>
<!-- Node1 -->
<g id="node1" class="node"><title>Node1</title>
<polygon fill="#bfbfbf" stroke="black" points="0.5,-0 0.5,-34 131.5,-34 131.5,-0 0.5,-0"/>
<text text-anchor="start" x="8.5" y="-21" font-family="Ubuntu-R" font-size="10.00">forcebalance.psi4io.Grid</text>
<text text-anchor="middle" x="66" y="-8" font-family="Ubuntu-R" font-size="10.00">_Reader.build_pid</text>
</g>
<!-- Node2 -->
<g id="node3" class="node"><title>Node2</title>
<a xlink:href="classforcebalance_1_1psi4io_1_1Grid__Reader.html#a900d43fb5dd26718b05846fe666b908d" target="_top" xlink:title="Feed in a line.">
<polygon fill="white" stroke="black" points="168.5,-0 168.5,-34 299.5,-34 299.5,-0 168.5,-0"/>
<text text-anchor="start" x="176.5" y="-21" font-family="Ubuntu-R" font-size="10.00">forcebalance.psi4io.Grid</text>
<text text-anchor="middle" x="234" y="-8" font-family="Ubuntu-R" font-size="10.00">_Reader.feed</text>
</a>
</g>
<!-- Node1&#45;&gt;Node2 -->
<g id="edge2" class="edge"><title>Node1&#45;&gt;Node2</title>
<path fill="none" stroke="midnightblue" d="M131.916,-17C140.505,-17 149.359,-17 158.096,-17"/>
<polygon fill="midnightblue" stroke="midnightblue" points="158.274,-20.5001 168.274,-17 158.274,-13.5001 158.274,-20.5001"/>
</g>
<!-- Node3 -->
<g id="node5" class="node"><title>Node3</title>
<a xlink:href="namespaceforcebalance_1_1molecule.html#a0dd31eff88d2bed0884ab21a13261d42" target="_top" xlink:title="ONLY matches integers! If you have a decimal point? None shall pass!">
<polygon fill="white" stroke="black" points="336.5,-26.5 336.5,-47.5 483.5,-47.5 483.5,-26.5 336.5,-26.5"/>
<text text-anchor="middle" x="410" y="-34.5" font-family="Ubuntu-R" font-size="10.00">forcebalance.molecule.isint</text>
</a>
</g>
<!-- Node2&#45;&gt;Node3 -->
<g id="edge4" class="edge"><title>Node2&#45;&gt;Node3</title>
<path fill="none" stroke="midnightblue" d="M299.536,-24.4473C308.27,-25.4398 317.321,-26.4682 326.311,-27.4899"/>
<polygon fill="midnightblue" stroke="midnightblue" points="326.084,-30.9866 336.416,-28.6382 326.875,-24.0314 326.084,-30.9866"/>
</g>
<!-- Node4 -->
<g id="node7" class="node"><title>Node4</title>
<a xlink:href="namespaceforcebalance_1_1molecule.html#afe989ffd119568047fc8265b1d329a70" target="_top" xlink:title="Matches ANY number; it can be a decimal, scientific notation, integer, or what have you...">
<polygon fill="white" stroke="black" points="520,-6.5 520,-27.5 676,-27.5 676,-6.5 520,-6.5"/>
<text text-anchor="middle" x="598" y="-14.5" font-family="Ubuntu-R" font-size="10.00">forcebalance.molecule.isfloat</text>
</a>
</g>
<!-- Node2&#45;&gt;Node4 -->
<g id="edge8" class="edge"><title>Node2&#45;&gt;Node4</title>
<path fill="none" stroke="midnightblue" d="M299.918,-17C358.647,-17 445.055,-17 509.736,-17"/>
<polygon fill="midnightblue" stroke="midnightblue" points="509.923,-20.5001 519.923,-17 509.923,-13.5001 509.923,-20.5001"/>
</g>
<!-- Node3&#45;&gt;Node4 -->
<g id="edge6" class="edge"><title>Node3&#45;&gt;Node4</title>
<path fill="none" stroke="midnightblue" d="M483.763,-29.1529C492.266,-28.2483 501.001,-27.3191 509.671,-26.3967"/>
<polygon fill="midnightblue" stroke="midnightblue" points="510.228,-29.8573 519.801,-25.319 509.487,-22.8966 510.228,-29.8573"/>
</g>
</g>
</svg>
