<?xml version="1.0" encoding="UTF-8" standalone="no"?>
<!DOCTYPE svg PUBLIC "-//W3C//DTD SVG 1.1//EN"
 "http://www.w3.org/Graphics/SVG/1.1/DTD/svg11.dtd">
<!-- Generated by graphviz version 2.40.1 (20161225.0304)
 -->
<!-- Title: src.amberio.PrmtopLoader.getCharges Pages: 1 -->
<svg width="556pt" height="39pt"
 viewBox="0.00 0.00 556.00 39.00" xmlns="http://www.w3.org/2000/svg" xmlns:xlink="http://www.w3.org/1999/xlink">
<g id="graph0" class="graph" transform="scale(1 1) rotate(0) translate(4 35)">
<title>src.amberio.PrmtopLoader.getCharges</title>
<polygon fill="#ffffff" stroke="transparent" points="-4,4 -4,-35 552,-35 552,4 -4,4"/>
<!-- Node21 -->
<g id="node1" class="node">
<title>Node21</title>
<polygon fill="#bfbfbf" stroke="#000000" points="0,-.5 0,-30.5 164,-30.5 164,-.5 0,-.5"/>
<text text-anchor="start" x="8" y="-18.5" font-family="Ubuntu-R" font-size="10.00" fill="#000000">src.amberio.PrmtopLoader.get</text>
<text text-anchor="middle" x="82" y="-7.5" font-family="Ubuntu-R" font-size="10.00" fill="#000000">Charges</text>
</g>
<!-- Node22 -->
<g id="node2" class="node">
<title>Node22</title>
<g id="a_node2"><a xlink:href="classsrc_1_1amberio_1_1PrmtopLoader.html#ab1f407476fadeeafa5875158140bdd37" target="_top" xlink:title="Return the number of atoms in the system. ">
<polygon fill="#ffffff" stroke="#000000" points="200,-.5 200,-30.5 364,-30.5 364,-.5 200,-.5"/>
<text text-anchor="start" x="208" y="-18.5" font-family="Ubuntu-R" font-size="10.00" fill="#000000">src.amberio.PrmtopLoader.get</text>
<text text-anchor="middle" x="282" y="-7.5" font-family="Ubuntu-R" font-size="10.00" fill="#000000">NumAtoms</text>
</a>
</g>
</g>
<!-- Node21&#45;&gt;Node22 -->
<g id="edge1" class="edge">
<title>Node21&#45;&gt;Node22</title>
<path fill="none" stroke="#191970" d="M164.2135,-15.5C172.5625,-15.5 181.0824,-15.5 189.5302,-15.5"/>
<polygon fill="#191970" stroke="#191970" points="189.7826,-19.0001 199.7826,-15.5 189.7826,-12.0001 189.7826,-19.0001"/>
</g>
<!-- Node23 -->
<g id="node3" class="node">
<title>Node23</title>
<g id="a_node3"><a xlink:href="classsrc_1_1amberio_1_1PrmtopLoader.html#ad5afef0e1df94e0ff8e354b7d91f6bf2" target="_top" xlink:title="Return pointer value given pointer label. ">
<polygon fill="#ffffff" stroke="#000000" points="400,-.5 400,-30.5 548,-30.5 548,-.5 400,-.5"/>
<text text-anchor="start" x="408" y="-18.5" font-family="Ubuntu-R" font-size="10.00" fill="#000000">src.amberio.PrmtopLoader.</text>
<text text-anchor="middle" x="474" y="-7.5" font-family="Ubuntu-R" font-size="10.00" fill="#000000">_getPointerValue</text>
</a>
</g>
</g>
<!-- Node22&#45;&gt;Node23 -->
<g id="edge2" class="edge">
<title>Node22&#45;&gt;Node23</title>
<path fill="none" stroke="#191970" d="M364.2608,-15.5C372.6546,-15.5 381.1915,-15.5 389.6076,-15.5"/>
<polygon fill="#191970" stroke="#191970" points="389.7957,-19.0001 399.7957,-15.5 389.7957,-12.0001 389.7957,-19.0001"/>
</g>
</g>
</svg>
