<?xml version="1.0" encoding="UTF-8" standalone="no"?>
<!DOCTYPE svg PUBLIC "-//W3C//DTD SVG 1.1//EN"
 "http://www.w3.org/Graphics/SVG/1.1/DTD/svg11.dtd">
<!-- Generated by graphviz version 2.28.0 (20111219.2309)
 -->
<!-- Title: forcebalance.tinkerio.Interaction_TINKER.__init__ Pages: 1 -->
<svg width="1868pt" height="199pt"
 viewBox="0.00 0.00 1868.00 199.00" xmlns="http://www.w3.org/2000/svg" xmlns:xlink="http://www.w3.org/1999/xlink">
<g id="graph1" class="graph" transform="scale(1 1) rotate(0) translate(4 195)">
<title>forcebalance.tinkerio.Interaction_TINKER.__init__</title>
<polygon fill="white" stroke="white" points="-4,5 -4,-195 1865,-195 1865,5 -4,5"/>
<!-- Node1 -->
<g id="node1" class="node"><title>Node1</title>
<polygon fill="#bfbfbf" stroke="black" points="0,-112 0,-142 170,-142 170,-112 0,-112"/>
<text text-anchor="start" x="8" y="-130" font-family="Ubuntu-R" font-size="10.00">forcebalance.tinkerio.Interaction</text>
<text text-anchor="middle" x="85" y="-119" font-family="Ubuntu-R" font-size="10.00">_TINKER.__init__</text>
</g>
<!-- Node2 -->
<g id="node3" class="node"><title>Node2</title>
<a xlink:href="classforcebalance_1_1tinkerio_1_1Interaction__TINKER.html#a5c55a2a8ed4c2923ed9866e1a7b6d202" target="_top" xlink:title="forcebalance.tinkerio.Interaction\l_TINKER.energy_driver_all">
<polygon fill="white" stroke="black" points="206,-112 206,-142 376,-142 376,-112 206,-112"/>
<text text-anchor="start" x="214" y="-130" font-family="Ubuntu-R" font-size="10.00">forcebalance.tinkerio.Interaction</text>
<text text-anchor="middle" x="291" y="-119" font-family="Ubuntu-R" font-size="10.00">_TINKER.energy_driver_all</text>
</a>
</g>
<!-- Node1&#45;&gt;Node2 -->
<g id="edge2" class="edge"><title>Node1&#45;&gt;Node2</title>
<path fill="none" stroke="midnightblue" d="M170.152,-127C178.501,-127 187.015,-127 195.46,-127"/>
<polygon fill="midnightblue" stroke="midnightblue" points="195.712,-130.5 205.712,-127 195.712,-123.5 195.712,-130.5"/>
</g>
<!-- Node2&#45;&gt;Node2 -->
<g id="edge42" class="edge"><title>Node2&#45;&gt;Node2</title>
<path fill="none" stroke="midnightblue" d="M254.789,-142.275C246.742,-151.406 258.812,-160 291,-160 310.111,-160 322.131,-156.97 327.058,-152.598"/>
<polygon fill="midnightblue" stroke="midnightblue" points="330.562,-152.326 327.211,-142.275 323.563,-152.222 330.562,-152.326"/>
</g>
<!-- Node3 -->
<g id="node5" class="node"><title>Node3</title>
<a xlink:href="classforcebalance_1_1tinkerio_1_1Interaction__TINKER.html#aa04011719babeea254134426db8c7633" target="_top" xlink:title="forcebalance.tinkerio.Interaction\l_TINKER.interaction_driver_all">
<polygon fill="white" stroke="black" points="412,-156 412,-186 582,-186 582,-156 412,-156"/>
<text text-anchor="start" x="420" y="-174" font-family="Ubuntu-R" font-size="10.00">forcebalance.tinkerio.Interaction</text>
<text text-anchor="middle" x="497" y="-163" font-family="Ubuntu-R" font-size="10.00">_TINKER.interaction_driver_all</text>
</a>
</g>
<!-- Node2&#45;&gt;Node3 -->
<g id="edge4" class="edge"><title>Node2&#45;&gt;Node3</title>
<path fill="none" stroke="midnightblue" d="M361.635,-142.019C379.262,-145.821 398.328,-149.934 416.407,-153.833"/>
<polygon fill="midnightblue" stroke="midnightblue" points="415.82,-157.287 426.333,-155.974 417.296,-150.444 415.82,-157.287"/>
</g>
<!-- Node4 -->
<g id="node7" class="node"><title>Node4</title>
<a xlink:href="classforcebalance_1_1openmmio_1_1Interaction__OpenMM.html#a535ff72686dc66b91f5dda007e252189" target="_top" xlink:title="forcebalance.openmmio.Interaction\l_OpenMM.energy_driver_all">
<polygon fill="white" stroke="black" points="618.5,-112 618.5,-142 805.5,-142 805.5,-112 618.5,-112"/>
<text text-anchor="start" x="626.5" y="-130" font-family="Ubuntu-R" font-size="10.00">forcebalance.openmmio.Interaction</text>
<text text-anchor="middle" x="712" y="-119" font-family="Ubuntu-R" font-size="10.00">_OpenMM.energy_driver_all</text>
</a>
</g>
<!-- Node2&#45;&gt;Node4 -->
<g id="edge6" class="edge"><title>Node2&#45;&gt;Node4</title>
<path fill="none" stroke="midnightblue" d="M376.035,-127C442.865,-127 536.661,-127 608.006,-127"/>
<polygon fill="midnightblue" stroke="midnightblue" points="608.364,-130.5 618.364,-127 608.364,-123.5 608.364,-130.5"/>
</g>
<!-- Node9 -->
<g id="node18" class="node"><title>Node9</title>
<a xlink:href="classforcebalance_1_1tinkerio_1_1AbInitio__TINKER.html#aafbf91f1422d7b8f65a4aa588d1c6e18" target="_top" xlink:title="forcebalance.tinkerio.Ab\lInitio_TINKER.energy_driver_all">
<polygon fill="white" stroke="black" points="416.5,-50 416.5,-80 577.5,-80 577.5,-50 416.5,-50"/>
<text text-anchor="start" x="424.5" y="-68" font-family="Ubuntu-R" font-size="10.00">forcebalance.tinkerio.Ab</text>
<text text-anchor="middle" x="497" y="-57" font-family="Ubuntu-R" font-size="10.00">Initio_TINKER.energy_driver_all</text>
</a>
</g>
<!-- Node2&#45;&gt;Node9 -->
<g id="edge18" class="edge"><title>Node2&#45;&gt;Node9</title>
<path fill="none" stroke="midnightblue" d="M341.383,-111.992C370.112,-103.26 406.509,-92.1982 436.772,-83.0006"/>
<polygon fill="midnightblue" stroke="midnightblue" points="437.815,-86.3419 446.365,-80.0851 435.779,-79.6443 437.815,-86.3419"/>
</g>
<!-- Node4&#45;&gt;Node4 -->
<g id="edge16" class="edge"><title>Node4&#45;&gt;Node4</title>
<path fill="none" stroke="midnightblue" d="M674.383,-142.275C666.023,-151.406 678.562,-160 712,-160 731.854,-160 744.34,-156.97 749.458,-152.598"/>
<polygon fill="midnightblue" stroke="midnightblue" points="752.962,-152.328 749.617,-142.275 745.963,-152.22 752.962,-152.328"/>
</g>
<!-- Node5 -->
<g id="node9" class="node"><title>Node5</title>
<a xlink:href="namespaceforcebalance_1_1openmmio.html#a9f9fc56475dbfcc94a40fef6a84ed25f" target="_top" xlink:title="forcebalance.openmmio.Update\lSimulationParameters">
<polygon fill="white" stroke="black" points="850.5,-161 850.5,-191 1021.5,-191 1021.5,-161 850.5,-161"/>
<text text-anchor="start" x="858.5" y="-179" font-family="Ubuntu-R" font-size="10.00">forcebalance.openmmio.Update</text>
<text text-anchor="middle" x="936" y="-168" font-family="Ubuntu-R" font-size="10.00">SimulationParameters</text>
</a>
</g>
<!-- Node4&#45;&gt;Node5 -->
<g id="edge8" class="edge"><title>Node4&#45;&gt;Node5</title>
<path fill="none" stroke="midnightblue" d="M781.116,-142.035C805.089,-147.326 832.215,-153.313 856.943,-158.771"/>
<polygon fill="midnightblue" stroke="midnightblue" points="856.493,-162.256 867.013,-160.994 858.002,-155.421 856.493,-162.256"/>
</g>
<!-- Node8 -->
<g id="node15" class="node"><title>Node8</title>
<a xlink:href="classforcebalance_1_1openmmio_1_1Interaction__OpenMM.html#a9813c1a24af88156703d05ebe57bf707" target="_top" xlink:title="forcebalance.openmmio.Interaction\l_OpenMM.interaction_driver_all">
<polygon fill="white" stroke="black" points="842.5,-112 842.5,-142 1029.5,-142 1029.5,-112 842.5,-112"/>
<text text-anchor="start" x="850.5" y="-130" font-family="Ubuntu-R" font-size="10.00">forcebalance.openmmio.Interaction</text>
<text text-anchor="middle" x="936" y="-119" font-family="Ubuntu-R" font-size="10.00">_OpenMM.interaction_driver_all</text>
</a>
</g>
<!-- Node4&#45;&gt;Node8 -->
<g id="edge14" class="edge"><title>Node4&#45;&gt;Node8</title>
<path fill="none" stroke="midnightblue" d="M805.54,-127C814.357,-127 823.334,-127 832.24,-127"/>
<polygon fill="midnightblue" stroke="midnightblue" points="832.253,-130.5 842.253,-127 832.252,-123.5 832.253,-130.5"/>
</g>
<!-- Node6 -->
<g id="node11" class="node"><title>Node6</title>
<a xlink:href="namespaceforcebalance_1_1openmmio.html#a95d91538d72e354fc95433539c42450c" target="_top" xlink:title="forcebalance.openmmio.Set\lAmoebaVirtualExclusions">
<polygon fill="white" stroke="black" points="1066,-161 1066,-191 1218,-191 1218,-161 1066,-161"/>
<text text-anchor="start" x="1074" y="-179" font-family="Ubuntu-R" font-size="10.00">forcebalance.openmmio.Set</text>
<text text-anchor="middle" x="1142" y="-168" font-family="Ubuntu-R" font-size="10.00">AmoebaVirtualExclusions</text>
</a>
</g>
<!-- Node5&#45;&gt;Node6 -->
<g id="edge10" class="edge"><title>Node5&#45;&gt;Node6</title>
<path fill="none" stroke="midnightblue" d="M1021.74,-176C1032.97,-176 1044.49,-176 1055.73,-176"/>
<polygon fill="midnightblue" stroke="midnightblue" points="1055.96,-179.5 1065.96,-176 1055.96,-172.5 1055.96,-179.5"/>
</g>
<!-- Node7 -->
<g id="node13" class="node"><title>Node7</title>
<a xlink:href="namespaceforcebalance_1_1openmmio.html#aa085594c11e9cd00ce71f5a8ead72b68" target="_top" xlink:title="Create a multiple timestep velocity verlet with velocity randomization (VVVR) integrator. ">
<polygon fill="white" stroke="black" points="1254,-166.5 1254,-185.5 1484,-185.5 1484,-166.5 1254,-166.5"/>
<text text-anchor="middle" x="1369" y="-173.5" font-family="Ubuntu-R" font-size="10.00">forcebalance.openmmio.MTSVVVRIntegrator</text>
</a>
</g>
<!-- Node6&#45;&gt;Node7 -->
<g id="edge12" class="edge"><title>Node6&#45;&gt;Node7</title>
<path fill="none" stroke="midnightblue" d="M1218.23,-176C1226.5,-176 1235.06,-176 1243.73,-176"/>
<polygon fill="midnightblue" stroke="midnightblue" points="1243.92,-179.5 1253.92,-176 1243.92,-172.5 1243.92,-179.5"/>
</g>
<!-- Node9&#45;&gt;Node4 -->
<g id="edge38" class="edge"><title>Node9&#45;&gt;Node4</title>
<path fill="none" stroke="midnightblue" d="M549.561,-80.0085C579.688,-88.7776 617.89,-99.8976 649.569,-109.119"/>
<polygon fill="midnightblue" stroke="midnightblue" points="648.595,-112.481 659.175,-111.915 650.552,-105.759 648.595,-112.481"/>
</g>
<!-- Node9&#45;&gt;Node9 -->
<g id="edge40" class="edge"><title>Node9&#45;&gt;Node9</title>
<path fill="none" stroke="midnightblue" d="M460.789,-80.2754C452.742,-89.4062 464.812,-98 497,-98 516.111,-98 528.131,-94.9704 533.058,-90.5975"/>
<polygon fill="midnightblue" stroke="midnightblue" points="536.562,-90.3263 533.211,-80.2754 529.563,-90.2223 536.562,-90.3263"/>
</g>
<!-- Node10 -->
<g id="node20" class="node"><title>Node10</title>
<a xlink:href="classforcebalance_1_1tinkerio_1_1AbInitio__TINKER.html#a27835affec49391fc41b832839a2b0e8" target="_top" xlink:title="forcebalance.tinkerio.Ab\lInitio_TINKER.energy_force\l_driver_all">
<polygon fill="white" stroke="black" points="640.5,-44.5 640.5,-85.5 783.5,-85.5 783.5,-44.5 640.5,-44.5"/>
<text text-anchor="start" x="648.5" y="-73.5" font-family="Ubuntu-R" font-size="10.00">forcebalance.tinkerio.Ab</text>
<text text-anchor="start" x="648.5" y="-62.5" font-family="Ubuntu-R" font-size="10.00">Initio_TINKER.energy_force</text>
<text text-anchor="middle" x="712" y="-51.5" font-family="Ubuntu-R" font-size="10.00">_driver_all</text>
</a>
</g>
<!-- Node9&#45;&gt;Node10 -->
<g id="edge20" class="edge"><title>Node9&#45;&gt;Node10</title>
<path fill="none" stroke="midnightblue" d="M577.616,-65C594.803,-65 612.99,-65 630.221,-65"/>
<polygon fill="midnightblue" stroke="midnightblue" points="630.242,-68.5001 640.242,-65 630.242,-61.5001 630.242,-68.5001"/>
</g>
<!-- Node11 -->
<g id="node22" class="node"><title>Node11</title>
<a xlink:href="classforcebalance_1_1tinkerio_1_1AbInitio__TINKER.html#adeddb898c79da3df601bc742bc2c2be7" target="_top" xlink:title="forcebalance.tinkerio.Ab\lInitio_TINKER.__init__">
<polygon fill="white" stroke="black" points="870,-63 870,-93 1002,-93 1002,-63 870,-63"/>
<text text-anchor="start" x="878" y="-81" font-family="Ubuntu-R" font-size="10.00">forcebalance.tinkerio.Ab</text>
<text text-anchor="middle" x="936" y="-70" font-family="Ubuntu-R" font-size="10.00">Initio_TINKER.__init__</text>
</a>
</g>
<!-- Node10&#45;&gt;Node11 -->
<g id="edge22" class="edge"><title>Node10&#45;&gt;Node11</title>
<path fill="none" stroke="midnightblue" d="M783.547,-69.1311C807.873,-70.5557 835.203,-72.156 859.88,-73.6011"/>
<polygon fill="midnightblue" stroke="midnightblue" points="859.727,-77.098 869.915,-74.1887 860.137,-70.11 859.727,-77.098"/>
</g>
<!-- Node12 -->
<g id="node24" class="node"><title>Node12</title>
<a xlink:href="classforcebalance_1_1tinkerio_1_1AbInitio__TINKER.html#a4f0decc929da6183f1d0d6229fc9733d" target="_top" xlink:title="forcebalance.tinkerio.Ab\lInitio_TINKER.prepare\l_temp_directory">
<polygon fill="white" stroke="black" points="1076,-24.5 1076,-65.5 1208,-65.5 1208,-24.5 1076,-24.5"/>
<text text-anchor="start" x="1084" y="-53.5" font-family="Ubuntu-R" font-size="10.00">forcebalance.tinkerio.Ab</text>
<text text-anchor="start" x="1084" y="-42.5" font-family="Ubuntu-R" font-size="10.00">Initio_TINKER.prepare</text>
<text text-anchor="middle" x="1142" y="-31.5" font-family="Ubuntu-R" font-size="10.00">_temp_directory</text>
</a>
</g>
<!-- Node10&#45;&gt;Node12 -->
<g id="edge36" class="edge"><title>Node10&#45;&gt;Node12</title>
<path fill="none" stroke="midnightblue" d="M783.57,-57.5873C802.525,-55.8281 823.028,-54.135 842,-53 918.074,-48.449 1005.19,-46.4868 1065.69,-45.6408"/>
<polygon fill="midnightblue" stroke="midnightblue" points="1065.96,-49.1376 1075.91,-45.5049 1065.87,-42.1382 1065.96,-49.1376"/>
</g>
<!-- Node11&#45;&gt;Node12 -->
<g id="edge24" class="edge"><title>Node11&#45;&gt;Node12</title>
<path fill="none" stroke="midnightblue" d="M1002.11,-67.4679C1022.35,-64.1934 1044.83,-60.5566 1065.71,-57.1795"/>
<polygon fill="midnightblue" stroke="midnightblue" points="1066.5,-60.5973 1075.81,-55.5453 1065.38,-53.6872 1066.5,-60.5973"/>
</g>
<!-- Node13 -->
<g id="node26" class="node"><title>Node13</title>
<a xlink:href="classforcebalance_1_1tinkerio_1_1AbInitio__TINKER.html#ab3835da0b951f77bfef0f14acd133c26" target="_top" xlink:title="forcebalance.tinkerio.Ab\lInitio_TINKER.energy_force\l_driver">
<polygon fill="white" stroke="black" points="1297.5,-0.5 1297.5,-41.5 1440.5,-41.5 1440.5,-0.5 1297.5,-0.5"/>
<text text-anchor="start" x="1305.5" y="-29.5" font-family="Ubuntu-R" font-size="10.00">forcebalance.tinkerio.Ab</text>
<text text-anchor="start" x="1305.5" y="-18.5" font-family="Ubuntu-R" font-size="10.00">Initio_TINKER.energy_force</text>
<text text-anchor="middle" x="1369" y="-7.5" font-family="Ubuntu-R" font-size="10.00">_driver</text>
</a>
</g>
<!-- Node12&#45;&gt;Node13 -->
<g id="edge26" class="edge"><title>Node12&#45;&gt;Node13</title>
<path fill="none" stroke="midnightblue" d="M1208.08,-38.0582C1232.71,-35.4306 1261.06,-32.4068 1286.98,-29.6418"/>
<polygon fill="midnightblue" stroke="midnightblue" points="1287.59,-33.0969 1297.16,-28.5559 1286.85,-26.1364 1287.59,-33.0969"/>
</g>
<!-- Node13&#45;&gt;Node9 -->
<g id="edge34" class="edge"><title>Node13&#45;&gt;Node9</title>
<path fill="none" stroke="midnightblue" d="M1297.43,-17.5957C1272.36,-16.5401 1243.93,-15.5183 1218,-15 951.239,-9.6669 882.023,3.49884 618,-35 598.366,-37.8629 577.274,-42.5671 558.333,-47.4105"/>
<polygon fill="midnightblue" stroke="midnightblue" points="557.431,-44.0286 548.643,-49.947 559.203,-50.8005 557.431,-44.0286"/>
</g>
<!-- Node14 -->
<g id="node28" class="node"><title>Node14</title>
<a xlink:href="namespaceforcebalance_1_1molecule.html#a0dd31eff88d2bed0884ab21a13261d42" target="_top" xlink:title="ONLY matches integers! If you have a decimal point? None shall pass! ">
<polygon fill="white" stroke="black" points="1520.5,-30.5 1520.5,-49.5 1667.5,-49.5 1667.5,-30.5 1520.5,-30.5"/>
<text text-anchor="middle" x="1594" y="-37.5" font-family="Ubuntu-R" font-size="10.00">forcebalance.molecule.isint</text>
</a>
</g>
<!-- Node13&#45;&gt;Node14 -->
<g id="edge28" class="edge"><title>Node13&#45;&gt;Node14</title>
<path fill="none" stroke="midnightblue" d="M1440.56,-27.0117C1462.68,-28.8963 1487.29,-30.9936 1510.18,-32.9436"/>
<polygon fill="midnightblue" stroke="midnightblue" points="1509.95,-36.4367 1520.21,-33.7984 1510.55,-29.462 1509.95,-36.4367"/>
</g>
<!-- Node15 -->
<g id="node30" class="node"><title>Node15</title>
<a xlink:href="namespaceforcebalance_1_1molecule.html#afe989ffd119568047fc8265b1d329a70" target="_top" xlink:title="Matches ANY number; it can be a decimal, scientific notation, integer, or what have you...">
<polygon fill="white" stroke="black" points="1704,-11.5 1704,-30.5 1860,-30.5 1860,-11.5 1704,-11.5"/>
<text text-anchor="middle" x="1782" y="-18.5" font-family="Ubuntu-R" font-size="10.00">forcebalance.molecule.isfloat</text>
</a>
</g>
<!-- Node13&#45;&gt;Node15 -->
<g id="edge32" class="edge"><title>Node13&#45;&gt;Node15</title>
<path fill="none" stroke="midnightblue" d="M1440.65,-21C1510.69,-21 1618.14,-21 1693.52,-21"/>
<polygon fill="midnightblue" stroke="midnightblue" points="1693.94,-24.5001 1703.94,-21 1693.94,-17.5001 1693.94,-24.5001"/>
</g>
<!-- Node14&#45;&gt;Node15 -->
<g id="edge30" class="edge"><title>Node14&#45;&gt;Node15</title>
<path fill="none" stroke="midnightblue" d="M1667.71,-32.5725C1676.21,-31.7047 1684.94,-30.8127 1693.61,-29.9273"/>
<polygon fill="midnightblue" stroke="midnightblue" points="1694.14,-33.391 1703.73,-28.8929 1693.43,-26.4273 1694.14,-33.391"/>
</g>
</g>
</svg>
