<?xml version="1.0" encoding="UTF-8" standalone="no"?>
<!DOCTYPE svg PUBLIC "-//W3C//DTD SVG 1.1//EN"
 "http://www.w3.org/Graphics/SVG/1.1/DTD/svg11.dtd">
<!-- Generated by graphviz version 2.26.3 (20100126.1600)
 -->
<!-- Title: forcebalance.interaction.Interaction.__init__ Pages: 1 -->
<svg width="2022pt" height="168pt"
 viewBox="0.00 0.00 2022.00 168.00" xmlns="http://www.w3.org/2000/svg" xmlns:xlink="http://www.w3.org/1999/xlink">
<g id="graph1" class="graph" transform="scale(1 1) rotate(0) translate(4 164)">
<title>forcebalance.interaction.Interaction.__init__</title>
<polygon fill="white" stroke="white" points="-4,5 -4,-164 2019,-164 2019,5 -4,5"/>
<!-- Node1 -->
<g id="node1" class="node"><title>Node1</title>
<polygon fill="#bfbfbf" stroke="black" points="0.5,-103 0.5,-137 135.5,-137 135.5,-103 0.5,-103"/>
<text text-anchor="start" x="8.5" y="-124" font-family="Ubuntu-R" font-size="10.00">forcebalance.interaction.</text>
<text text-anchor="middle" x="68" y="-111" font-family="Ubuntu-R" font-size="10.00">Interaction.__init__</text>
</g>
<!-- Node2 -->
<g id="node3" class="node"><title>Node2</title>
<a xlink:href="classforcebalance_1_1BaseClass.html#a73e9a37a7632e79eb99f49bd15aced45" target="_top" xlink:title="forcebalance.BaseClass.set\l_option">
<polygon fill="white" stroke="black" points="185,-126 185,-160 333,-160 333,-126 185,-126"/>
<text text-anchor="start" x="193" y="-147" font-family="Ubuntu-R" font-size="10.00">forcebalance.BaseClass.set</text>
<text text-anchor="middle" x="259" y="-134" font-family="Ubuntu-R" font-size="10.00">_option</text>
</a>
</g>
<!-- Node1&#45;&gt;Node2 -->
<g id="edge2" class="edge"><title>Node1&#45;&gt;Node2</title>
<path fill="none" stroke="midnightblue" d="M135.608,-128.141C148.35,-129.676 161.818,-131.297 174.99,-132.884"/>
<polygon fill="midnightblue" stroke="midnightblue" points="174.642,-136.367 184.988,-134.088 175.479,-129.417 174.642,-136.367"/>
</g>
<!-- Node3 -->
<g id="node5" class="node"><title>Node3</title>
<a xlink:href="namespaceforcebalance_1_1nifty.html#afa670d68f01813ac8d429bc5cbdb4f9f" target="_top" xlink:title="forcebalance.nifty.uncommadash">
<polygon fill="white" stroke="black" points="172,-86.5 172,-107.5 346,-107.5 346,-86.5 172,-86.5"/>
<text text-anchor="middle" x="259" y="-94.5" font-family="Ubuntu-R" font-size="10.00">forcebalance.nifty.uncommadash</text>
</a>
</g>
<!-- Node1&#45;&gt;Node3 -->
<g id="edge4" class="edge"><title>Node1&#45;&gt;Node3</title>
<path fill="none" stroke="midnightblue" d="M135.608,-111.859C144.107,-110.835 152.929,-109.773 161.77,-108.708"/>
<polygon fill="midnightblue" stroke="midnightblue" points="162.235,-112.178 171.745,-107.507 161.398,-105.228 162.235,-112.178"/>
</g>
<!-- Node4 -->
<g id="node7" class="node"><title>Node4</title>
<a xlink:href="namespaceforcebalance_1_1nifty.html#a11babd62dc7bca389162c6318f9672ca" target="_top" xlink:title="Cool&#45;looking printout for slick formatting of output.">
<polygon fill="white" stroke="black" points="382,-86.5 382,-107.5 526,-107.5 526,-86.5 382,-86.5"/>
<text text-anchor="middle" x="454" y="-94.5" font-family="Ubuntu-R" font-size="10.00">forcebalance.nifty.printcool</text>
</a>
</g>
<!-- Node3&#45;&gt;Node4 -->
<g id="edge6" class="edge"><title>Node3&#45;&gt;Node4</title>
<path fill="none" stroke="midnightblue" d="M346.234,-97C354.669,-97 363.207,-97 371.593,-97"/>
<polygon fill="midnightblue" stroke="midnightblue" points="371.729,-100.5 381.729,-97 371.729,-93.5001 371.729,-100.5"/>
</g>
<!-- Node5 -->
<g id="node9" class="node"><title>Node5</title>
<a xlink:href="namespaceforcebalance_1_1nifty.html#abb8f59044961a12588e0653c2baa8b01" target="_top" xlink:title="forcebalance.nifty.warn\l_press_key">
<polygon fill="white" stroke="black" points="1649.5,-106 1649.5,-140 1774.5,-140 1774.5,-106 1649.5,-106"/>
<text text-anchor="start" x="1657.5" y="-127" font-family="Ubuntu-R" font-size="10.00">forcebalance.nifty.warn</text>
<text text-anchor="middle" x="1712" y="-114" font-family="Ubuntu-R" font-size="10.00">_press_key</text>
</a>
</g>
<!-- Node4&#45;&gt;Node5 -->
<g id="edge8" class="edge"><title>Node4&#45;&gt;Node5</title>
<path fill="none" stroke="midnightblue" d="M526.022,-107.151C596.475,-116.191 706.89,-128 803,-128 803,-128 803,-128 1328,-128 1436.47,-128 1562.17,-125.981 1639.38,-124.508"/>
<polygon fill="midnightblue" stroke="midnightblue" points="1639.55,-128.006 1649.48,-124.314 1639.42,-121.007 1639.55,-128.006"/>
</g>
<!-- Node7 -->
<g id="node13" class="node"><title>Node7</title>
<a xlink:href="namespaceforcebalance_1_1nifty.html#a51180e960742cc7547749fdfb3513ec4" target="_top" xlink:title="See documentation for printcool; this is a nice way to print out keys/values in a dictionary...">
<polygon fill="white" stroke="black" points="562,-50 562,-84 706,-84 706,-50 562,-50"/>
<text text-anchor="start" x="570" y="-71" font-family="Ubuntu-R" font-size="10.00">forcebalance.nifty.printcool</text>
<text text-anchor="middle" x="634" y="-58" font-family="Ubuntu-R" font-size="10.00">_dictionary</text>
</a>
</g>
<!-- Node4&#45;&gt;Node7 -->
<g id="edge12" class="edge"><title>Node4&#45;&gt;Node7</title>
<path fill="none" stroke="midnightblue" d="M517.208,-86.4653C528.334,-84.6111 540.06,-82.6566 551.618,-80.7303"/>
<polygon fill="midnightblue" stroke="midnightblue" points="552.423,-84.1445 561.712,-79.048 551.273,-77.2397 552.423,-84.1445"/>
</g>
<!-- Node6 -->
<g id="node11" class="node"><title>Node6</title>
<a xlink:href="namespaceforcebalance_1_1nifty.html#a2fc81730e7efa7d138dd86f733507bfc" target="_top" xlink:title="Similar to the bultin function map().">
<polygon fill="white" stroke="black" points="1832.5,-112.5 1832.5,-133.5 2013.5,-133.5 2013.5,-112.5 1832.5,-112.5"/>
<text text-anchor="middle" x="1923" y="-120.5" font-family="Ubuntu-R" font-size="10.00">forcebalance.nifty.concurrent_map</text>
</a>
</g>
<!-- Node5&#45;&gt;Node6 -->
<g id="edge10" class="edge"><title>Node5&#45;&gt;Node6</title>
<path fill="none" stroke="midnightblue" d="M1774.74,-123C1789.72,-123 1806.1,-123 1822.32,-123"/>
<polygon fill="midnightblue" stroke="midnightblue" points="1822.39,-126.5 1832.39,-123 1822.39,-119.5 1822.39,-126.5"/>
</g>
<!-- Node8 -->
<g id="node15" class="node"><title>Node8</title>
<a xlink:href="namespaceforcebalance_1_1nifty.html#a3f1c7a1af9d35d5d1693074bc6f5497c" target="_top" xlink:title="ONLY matches integers! If you have a decimal point? None shall pass!">
<polygon fill="white" stroke="black" points="742,-56.5 742,-77.5 864,-77.5 864,-56.5 742,-56.5"/>
<text text-anchor="middle" x="803" y="-64.5" font-family="Ubuntu-R" font-size="10.00">forcebalance.nifty.isint</text>
</a>
</g>
<!-- Node7&#45;&gt;Node8 -->
<g id="edge14" class="edge"><title>Node7&#45;&gt;Node8</title>
<path fill="none" stroke="midnightblue" d="M706.161,-67C714.644,-67 723.297,-67 731.767,-67"/>
<polygon fill="midnightblue" stroke="midnightblue" points="731.984,-70.5001 741.984,-67 731.984,-63.5001 731.984,-70.5001"/>
</g>
<!-- Node10 -->
<g id="node19" class="node"><title>Node10</title>
<a xlink:href="namespaceforcebalance_1_1nifty.html#a8e3ef0108b9d37b82ba0dced7c6037ae" target="_top" xlink:title="Matches ANY number; it can be a decimal, scientific notation, what have you CAUTION &#45; this will also ...">
<polygon fill="white" stroke="black" points="1084.5,-19.5 1084.5,-40.5 1215.5,-40.5 1215.5,-19.5 1084.5,-19.5"/>
<text text-anchor="middle" x="1150" y="-27.5" font-family="Ubuntu-R" font-size="10.00">forcebalance.nifty.isfloat</text>
</a>
</g>
<!-- Node7&#45;&gt;Node10 -->
<g id="edge44" class="edge"><title>Node7&#45;&gt;Node10</title>
<path fill="none" stroke="midnightblue" d="M706.141,-52.403C718.082,-50.3434 730.362,-48.4407 742,-47 857.208,-32.7389 991.96,-29.7663 1074.12,-29.4759"/>
<polygon fill="midnightblue" stroke="midnightblue" points="1074.37,-32.9754 1084.37,-29.4527 1074.36,-25.9754 1074.37,-32.9754"/>
</g>
<!-- Node9 -->
<g id="node17" class="node"><title>Node9</title>
<a xlink:href="namespaceforcebalance_1_1nifty.html#a09263927eaec9deff283fbf1a820242f" target="_top" xlink:title="Matches things with a decimal only; see isint and isfloat.">
<polygon fill="white" stroke="black" points="900.5,-78.5 900.5,-99.5 1047.5,-99.5 1047.5,-78.5 900.5,-78.5"/>
<text text-anchor="middle" x="974" y="-86.5" font-family="Ubuntu-R" font-size="10.00">forcebalance.nifty.isdecimal</text>
</a>
</g>
<!-- Node8&#45;&gt;Node9 -->
<g id="edge16" class="edge"><title>Node8&#45;&gt;Node9</title>
<path fill="none" stroke="midnightblue" d="M864.252,-74.8804C872.747,-75.9733 881.589,-77.1109 890.405,-78.2451"/>
<polygon fill="midnightblue" stroke="midnightblue" points="889.962,-81.7169 900.327,-79.5216 890.856,-74.7741 889.962,-81.7169"/>
</g>
<!-- Node9&#45;&gt;Node10 -->
<g id="edge18" class="edge"><title>Node9&#45;&gt;Node10</title>
<path fill="none" stroke="midnightblue" d="M1005.47,-78.452C1034.28,-68.7915 1077.13,-54.4288 1108.69,-43.8477"/>
<polygon fill="midnightblue" stroke="midnightblue" points="1110.14,-47.053 1118.51,-40.556 1107.92,-40.416 1110.14,-47.053"/>
</g>
<!-- Node14 -->
<g id="node28" class="node"><title>Node14</title>
<a xlink:href="namespaceforcebalance_1_1nifty.html#afb3f205bce4984856e766af7e9fdaca8" target="_top" xlink:title="Given any list, array, or matrix, return a 1&#45;column matrix.">
<polygon fill="white" stroke="black" points="1092,-78.5 1092,-99.5 1208,-99.5 1208,-78.5 1092,-78.5"/>
<text text-anchor="middle" x="1150" y="-86.5" font-family="Ubuntu-R" font-size="10.00">forcebalance.nifty.col</text>
</a>
</g>
<!-- Node9&#45;&gt;Node14 -->
<g id="edge28" class="edge"><title>Node9&#45;&gt;Node14</title>
<path fill="none" stroke="midnightblue" d="M1047.62,-89C1058.94,-89 1070.59,-89 1081.79,-89"/>
<polygon fill="midnightblue" stroke="midnightblue" points="1081.93,-92.5001 1091.93,-89 1081.93,-85.5001 1081.93,-92.5001"/>
</g>
<!-- Node10&#45;&gt;Node8 -->
<g id="edge20" class="edge"><title>Node10&#45;&gt;Node8</title>
<path fill="none" stroke="midnightblue" d="M1084.36,-36.9991C1024.4,-43.3927 935.948,-52.824 874.279,-59.3997"/>
<polygon fill="midnightblue" stroke="midnightblue" points="873.81,-55.9297 864.238,-60.4703 874.553,-62.8902 873.81,-55.9297"/>
</g>
<!-- Node11 -->
<g id="node22" class="node"><title>Node11</title>
<a xlink:href="namespaceforcebalance_1_1nifty.html#a8d63c8ae9a67c66673a6cf81357f827d" target="_top" xlink:title="Returns a big number if we encounter NaN.">
<polygon fill="white" stroke="black" points="1252.5,-0.5 1252.5,-21.5 1403.5,-21.5 1403.5,-0.5 1252.5,-0.5"/>
<text text-anchor="middle" x="1328" y="-8.5" font-family="Ubuntu-R" font-size="10.00">forcebalance.nifty.floatornan</text>
</a>
</g>
<!-- Node10&#45;&gt;Node11 -->
<g id="edge22" class="edge"><title>Node10&#45;&gt;Node11</title>
<path fill="none" stroke="midnightblue" d="M1215.52,-23.006C1224.24,-22.0758 1233.28,-21.1111 1242.27,-20.1511"/>
<polygon fill="midnightblue" stroke="midnightblue" points="1242.81,-23.613 1252.38,-19.0713 1242.07,-16.6526 1242.81,-23.613"/>
</g>
<!-- Node12 -->
<g id="node24" class="node"><title>Node12</title>
<a xlink:href="namespaceforcebalance_1_1nifty.html#a6c9727360cdff8f3011a12cc54d0e86e" target="_top" xlink:title="Given any list, array, or matrix, return a 1&#45;row matrix.">
<polygon fill="white" stroke="black" points="1456.5,-0.5 1456.5,-21.5 1575.5,-21.5 1575.5,-0.5 1456.5,-0.5"/>
<text text-anchor="middle" x="1516" y="-8.5" font-family="Ubuntu-R" font-size="10.00">forcebalance.nifty.row</text>
</a>
</g>
<!-- Node11&#45;&gt;Node12 -->
<g id="edge24" class="edge"><title>Node11&#45;&gt;Node12</title>
<path fill="none" stroke="midnightblue" d="M1403.65,-11C1417.64,-11 1432.19,-11 1446,-11"/>
<polygon fill="midnightblue" stroke="midnightblue" points="1446.39,-14.5001 1456.39,-11 1446.39,-7.5001 1446.39,-14.5001"/>
</g>
<!-- Node13 -->
<g id="node26" class="node"><title>Node13</title>
<a xlink:href="namespaceforcebalance_1_1nifty.html#a7676236002c6a65ea7d2e69a09923889" target="_top" xlink:title="Given two vectors vec1 and vec2, project out the component of vec1 that is along the vec2&#45;direction...">
<polygon fill="white" stroke="black" points="1628,-0.5 1628,-21.5 1796,-21.5 1796,-0.5 1628,-0.5"/>
<text text-anchor="middle" x="1712" y="-8.5" font-family="Ubuntu-R" font-size="10.00">forcebalance.nifty.orthogonalize</text>
</a>
</g>
<!-- Node12&#45;&gt;Node13 -->
<g id="edge26" class="edge"><title>Node12&#45;&gt;Node13</title>
<path fill="none" stroke="midnightblue" d="M1575.6,-11C1588.84,-11 1603.18,-11 1617.42,-11"/>
<polygon fill="midnightblue" stroke="midnightblue" points="1617.76,-14.5001 1627.76,-11 1617.76,-7.5001 1617.76,-14.5001"/>
</g>
<!-- Node15 -->
<g id="node30" class="node"><title>Node15</title>
<a xlink:href="namespaceforcebalance_1_1nifty.html#a52114ceee9d55f94d9aecb3e176de294" target="_top" xlink:title="Given any list, array, or matrix, return a single&#45;index array.">
<polygon fill="white" stroke="black" points="1269.5,-40.5 1269.5,-61.5 1386.5,-61.5 1386.5,-40.5 1269.5,-40.5"/>
<text text-anchor="middle" x="1328" y="-48.5" font-family="Ubuntu-R" font-size="10.00">forcebalance.nifty.flat</text>
</a>
</g>
<!-- Node14&#45;&gt;Node15 -->
<g id="edge30" class="edge"><title>Node14&#45;&gt;Node15</title>
<path fill="none" stroke="midnightblue" d="M1199.58,-78.4149C1220.99,-73.8443 1246.22,-68.4596 1268.61,-63.6778"/>
<polygon fill="midnightblue" stroke="midnightblue" points="1269.63,-67.0391 1278.68,-61.5284 1268.17,-60.1933 1269.63,-67.0391"/>
</g>
<!-- Node16 -->
<g id="node32" class="node"><title>Node16</title>
<a xlink:href="namespaceforcebalance_1_1nifty.html#a4c82187e92dfeb8a159f4aa44b501c40" target="_top" xlink:title="Invert a matrix using singular value decomposition.">
<polygon fill="white" stroke="black" points="1440.5,-78.5 1440.5,-99.5 1591.5,-99.5 1591.5,-78.5 1440.5,-78.5"/>
<text text-anchor="middle" x="1516" y="-86.5" font-family="Ubuntu-R" font-size="10.00">forcebalance.nifty.invert_svd</text>
</a>
</g>
<!-- Node15&#45;&gt;Node16 -->
<g id="edge32" class="edge"><title>Node15&#45;&gt;Node16</title>
<path fill="none" stroke="midnightblue" d="M1380.37,-61.5851C1403.18,-66.1969 1430.1,-71.6375 1453.92,-76.4512"/>
<polygon fill="midnightblue" stroke="midnightblue" points="1453.42,-79.921 1463.91,-78.4716 1454.8,-73.0597 1453.42,-79.921"/>
</g>
<!-- Node16&#45;&gt;Node5 -->
<g id="edge42" class="edge"><title>Node16&#45;&gt;Node5</title>
<path fill="none" stroke="midnightblue" d="M1576.67,-99.525C1596.48,-102.961 1618.68,-106.812 1639.28,-110.385"/>
<polygon fill="midnightblue" stroke="midnightblue" points="1638.79,-113.853 1649.24,-112.114 1639.99,-106.956 1638.79,-113.853"/>
</g>
<!-- Node16&#45;&gt;Node14 -->
<g id="edge40" class="edge"><title>Node16&#45;&gt;Node14</title>
<path fill="none" stroke="midnightblue" d="M1440.35,-89C1375.13,-89 1281.75,-89 1218.65,-89"/>
<polygon fill="midnightblue" stroke="midnightblue" points="1218.4,-85.5001 1208.4,-89 1218.4,-92.5001 1218.4,-85.5001"/>
</g>
<!-- Node17 -->
<g id="node34" class="node"><title>Node17</title>
<a xlink:href="namespaceforcebalance_1_1nifty.html#aa9fb9c7c65231eca50a7afc04f489b64" target="_top" xlink:title="forcebalance.nifty.get\l_least_squares">
<polygon fill="white" stroke="black" points="1653,-49 1653,-83 1771,-83 1771,-49 1653,-49"/>
<text text-anchor="start" x="1661" y="-70" font-family="Ubuntu-R" font-size="10.00">forcebalance.nifty.get</text>
<text text-anchor="middle" x="1712" y="-57" font-family="Ubuntu-R" font-size="10.00">_least_squares</text>
</a>
</g>
<!-- Node16&#45;&gt;Node17 -->
<g id="edge34" class="edge"><title>Node16&#45;&gt;Node17</title>
<path fill="none" stroke="midnightblue" d="M1591.78,-80.1076C1608.55,-78.1396 1626.24,-76.064 1642.73,-74.1282"/>
<polygon fill="midnightblue" stroke="midnightblue" points="1643.31,-77.5849 1652.83,-72.9432 1642.49,-70.6326 1643.31,-77.5849"/>
</g>
<!-- Node17&#45;&gt;Node15 -->
<g id="edge36" class="edge"><title>Node17&#45;&gt;Node15</title>
<path fill="none" stroke="midnightblue" d="M1652.95,-63.6934C1583.89,-60.9957 1469.75,-56.5369 1396.76,-53.6858"/>
<polygon fill="midnightblue" stroke="midnightblue" points="1396.87,-50.1876 1386.74,-53.2945 1396.6,-57.1823 1396.87,-50.1876"/>
</g>
<!-- Node18 -->
<g id="node37" class="node"><title>Node18</title>
<a xlink:href="namespaceforcebalance_1_1nifty.html#ad5ca60565c864b4245a8212fe9d92e10" target="_top" xlink:title="Compute the (cross) statistical inefficiency of (two) timeseries.">
<polygon fill="white" stroke="black" points="1849,-49 1849,-83 1997,-83 1997,-49 1849,-49"/>
<text text-anchor="start" x="1857" y="-70" font-family="Ubuntu-R" font-size="10.00">forcebalance.nifty.statistical</text>
<text text-anchor="middle" x="1923" y="-57" font-family="Ubuntu-R" font-size="10.00">Inefficiency</text>
</a>
</g>
<!-- Node17&#45;&gt;Node18 -->
<g id="edge38" class="edge"><title>Node17&#45;&gt;Node18</title>
<path fill="none" stroke="midnightblue" d="M1771.06,-66C1791.99,-66 1815.97,-66 1838.6,-66"/>
<polygon fill="midnightblue" stroke="midnightblue" points="1838.89,-69.5001 1848.89,-66 1838.89,-62.5001 1838.89,-69.5001"/>
</g>
</g>
</svg>
