<?xml version="1.0" encoding="UTF-8" standalone="no"?>
<!DOCTYPE svg PUBLIC "-//W3C//DTD SVG 1.1//EN"
 "http://www.w3.org/Graphics/SVG/1.1/DTD/svg11.dtd">
<!-- Generated by graphviz version 2.40.1 (20161225.0304)
 -->
<!-- Title: src.amberio.AMBER.energy_dipole Pages: 1 -->
<svg width="920pt" height="154pt"
 viewBox="0.00 0.00 920.00 153.50" xmlns="http://www.w3.org/2000/svg" xmlns:xlink="http://www.w3.org/1999/xlink">
<g id="graph0" class="graph" transform="scale(1 1) rotate(0) translate(4 149.5)">
<title>src.amberio.AMBER.energy_dipole</title>
<polygon fill="#ffffff" stroke="transparent" points="-4,4 -4,-149.5 916,-149.5 916,4 -4,4"/>
<!-- Node14 -->
<g id="node1" class="node">
<title>Node14</title>
<polygon fill="#bfbfbf" stroke="#000000" points="0,-44.5 0,-74.5 149,-74.5 149,-44.5 0,-44.5"/>
<text text-anchor="start" x="8" y="-62.5" font-family="Ubuntu-R" font-size="10.00" fill="#000000">src.amberio.AMBER.energy</text>
<text text-anchor="middle" x="74.5" y="-51.5" font-family="Ubuntu-R" font-size="10.00" fill="#000000">_dipole</text>
</g>
<!-- Node15 -->
<g id="node2" class="node">
<title>Node15</title>
<g id="a_node2"><a xlink:href="classsrc_1_1amberio_1_1AMBER.html#aebf6805d55d195578926031a77282daf" target="_top" xlink:title="Use cpptraj to evaluate properties over a trajectory file. ">
<polygon fill="#ffffff" stroke="#000000" points="185,-44.5 185,-74.5 343,-74.5 343,-44.5 185,-44.5"/>
<text text-anchor="start" x="193" y="-62.5" font-family="Ubuntu-R" font-size="10.00" fill="#000000">src.amberio.AMBER.evaluate</text>
<text text-anchor="middle" x="264" y="-51.5" font-family="Ubuntu-R" font-size="10.00" fill="#000000">_cpptraj</text>
</a>
</g>
</g>
<!-- Node14&#45;&gt;Node15 -->
<g id="edge1" class="edge">
<title>Node14&#45;&gt;Node15</title>
<path fill="none" stroke="#191970" d="M149.1234,-59.5C157.5354,-59.5 166.1694,-59.5 174.7432,-59.5"/>
<polygon fill="#191970" stroke="#191970" points="174.7635,-63.0001 184.7635,-59.5 174.7634,-56.0001 174.7635,-63.0001"/>
</g>
<!-- Node16 -->
<g id="node3" class="node">
<title>Node16</title>
<g id="a_node3"><a xlink:href="classsrc_1_1amberio_1_1AMBER.html#a8cb2d1848fd4fa90dd2998e38592a21e" target="_top" xlink:title="src.amberio.AMBER.leap">
<polygon fill="#ffffff" stroke="#000000" points="379,-88 379,-107 515,-107 515,-88 379,-88"/>
<text text-anchor="middle" x="447" y="-95" font-family="Ubuntu-R" font-size="10.00" fill="#000000">src.amberio.AMBER.leap</text>
</a>
</g>
</g>
<!-- Node15&#45;&gt;Node16 -->
<g id="edge2" class="edge">
<title>Node15&#45;&gt;Node16</title>
<path fill="none" stroke="#191970" d="M336.3264,-74.5186C354.6162,-78.3165 373.9761,-82.3366 391.3025,-85.9344"/>
<polygon fill="#191970" stroke="#191970" points="390.7428,-89.3928 401.2456,-87.9991 392.166,-82.539 390.7428,-89.3928"/>
</g>
<!-- Node22 -->
<g id="node9" class="node">
<title>Node22</title>
<g id="a_node9"><a xlink:href="classsrc_1_1amberio_1_1AMBER.html#a4fa14e4e3ccc8936084020563bf86e53" target="_top" xlink:title="Call AMBER; prepend amberhome to calling the appropriate ambertools program. ">
<polygon fill="#ffffff" stroke="#000000" points="551,-50 551,-69 715,-69 715,-50 551,-50"/>
<text text-anchor="middle" x="633" y="-57" font-family="Ubuntu-R" font-size="10.00" fill="#000000">src.amberio.AMBER.callamber</text>
</a>
</g>
</g>
<!-- Node15&#45;&gt;Node22 -->
<g id="edge12" class="edge">
<title>Node15&#45;&gt;Node22</title>
<path fill="none" stroke="#191970" d="M343.1598,-59.5C401.0133,-59.5 479.6485,-59.5 540.4161,-59.5"/>
<polygon fill="#191970" stroke="#191970" points="540.7757,-63.0001 550.7757,-59.5 540.7757,-56.0001 540.7757,-63.0001"/>
</g>
<!-- Node23 -->
<g id="node10" class="node">
<title>Node23</title>
<g id="a_node10"><a xlink:href="namespacesrc_1_1amberio.html#aa3b1df1e806f3b06b41bcaabe3873998" target="_top" xlink:title="Write an AMBER .mdin file to carry out a calculation using sander or pmemd.cuda. ">
<polygon fill="#ffffff" stroke="#000000" points="381,-9 381,-28 513,-28 513,-9 381,-9"/>
<text text-anchor="middle" x="447" y="-16" font-family="Ubuntu-R" font-size="10.00" fill="#000000">src.amberio.write_mdin</text>
</a>
</g>
</g>
<!-- Node15&#45;&gt;Node23 -->
<g id="edge9" class="edge">
<title>Node15&#45;&gt;Node23</title>
<path fill="none" stroke="#191970" d="M331.1033,-44.4659C351.9512,-39.7951 374.622,-34.7158 394.3385,-30.2985"/>
<polygon fill="#191970" stroke="#191970" points="395.3615,-33.6561 404.3544,-28.0545 393.8311,-26.8255 395.3615,-33.6561"/>
</g>
<!-- Node17 -->
<g id="node4" class="node">
<title>Node17</title>
<g id="a_node4"><a xlink:href="namespacesrc_1_1nifty.html#a7fd3a0edb0212c320360d7685227b0f5" target="_top" xlink:title="src.nifty.LinkFile">
<polygon fill="#ffffff" stroke="#000000" points="585.5,-126 585.5,-145 680.5,-145 680.5,-126 585.5,-126"/>
<text text-anchor="middle" x="633" y="-133" font-family="Ubuntu-R" font-size="10.00" fill="#000000">src.nifty.LinkFile</text>
</a>
</g>
</g>
<!-- Node16&#45;&gt;Node17 -->
<g id="edge3" class="edge">
<title>Node16&#45;&gt;Node17</title>
<path fill="none" stroke="#191970" d="M493.9357,-107.089C519.0332,-112.2165 550.1186,-118.5672 576.5304,-123.9632"/>
<polygon fill="#191970" stroke="#191970" points="575.9036,-127.4074 586.4019,-125.9799 577.3048,-120.549 575.9036,-127.4074"/>
</g>
<!-- Node19 -->
<g id="node6" class="node">
<title>Node19</title>
<g id="a_node6"><a xlink:href="namespacesrc_1_1amberio.html#ac5df3fe728e9cc0536e1abc7ce6c982d" target="_top" xlink:title="Parse and edit an AMBER LEaP input file. ">
<polygon fill="#ffffff" stroke="#000000" points="569,-88 569,-107 697,-107 697,-88 569,-88"/>
<text text-anchor="middle" x="633" y="-95" font-family="Ubuntu-R" font-size="10.00" fill="#000000">src.amberio.write_leap</text>
</a>
</g>
</g>
<!-- Node16&#45;&gt;Node19 -->
<g id="edge5" class="edge">
<title>Node16&#45;&gt;Node19</title>
<path fill="none" stroke="#191970" d="M515.2034,-97.5C529.3031,-97.5 544.2231,-97.5 558.533,-97.5"/>
<polygon fill="#191970" stroke="#191970" points="558.8246,-101.0001 568.8246,-97.5 558.8245,-94.0001 558.8246,-101.0001"/>
</g>
<!-- Node16&#45;&gt;Node22 -->
<g id="edge8" class="edge">
<title>Node16&#45;&gt;Node22</title>
<path fill="none" stroke="#191970" d="M493.9357,-87.911C519.0332,-82.7835 550.1186,-76.4328 576.5304,-71.0368"/>
<polygon fill="#191970" stroke="#191970" points="577.3048,-74.451 586.4019,-69.0201 575.9036,-67.5926 577.3048,-74.451"/>
</g>
<!-- Node18 -->
<g id="node5" class="node">
<title>Node18</title>
<g id="a_node5"><a xlink:href="namespacesrc_1_1nifty.html#a39a23ca3b83aadd4bfdf3eee9abb3257" target="_top" xlink:title="src.nifty.MissingFileInspection">
<polygon fill="#ffffff" stroke="#000000" points="751,-126 751,-145 912,-145 912,-126 751,-126"/>
<text text-anchor="middle" x="831.5" y="-133" font-family="Ubuntu-R" font-size="10.00" fill="#000000">src.nifty.MissingFileInspection</text>
</a>
</g>
</g>
<!-- Node17&#45;&gt;Node18 -->
<g id="edge4" class="edge">
<title>Node17&#45;&gt;Node18</title>
<path fill="none" stroke="#191970" d="M680.5457,-135.5C698.5835,-135.5 719.7824,-135.5 740.4987,-135.5"/>
<polygon fill="#191970" stroke="#191970" points="740.6138,-139.0001 750.6137,-135.5 740.6137,-132.0001 740.6138,-139.0001"/>
</g>
<!-- Node20 -->
<g id="node7" class="node">
<title>Node20</title>
<g id="a_node7"><a xlink:href="namespacesrc_1_1nifty.html#a6ae2951ba2a22420a11abda6be7e5454" target="_top" xlink:title="src.nifty.warn_press_key">
<polygon fill="#ffffff" stroke="#000000" points="763,-88 763,-107 900,-107 900,-88 763,-88"/>
<text text-anchor="middle" x="831.5" y="-95" font-family="Ubuntu-R" font-size="10.00" fill="#000000">src.nifty.warn_press_key</text>
</a>
</g>
</g>
<!-- Node19&#45;&gt;Node20 -->
<g id="edge6" class="edge">
<title>Node19&#45;&gt;Node20</title>
<path fill="none" stroke="#191970" d="M697.1731,-97.5C714.854,-97.5 734.2393,-97.5 752.6463,-97.5"/>
<polygon fill="#191970" stroke="#191970" points="752.7548,-101.0001 762.7548,-97.5 752.7547,-94.0001 752.7548,-101.0001"/>
</g>
<!-- Node21 -->
<g id="node8" class="node">
<title>Node21</title>
<g id="a_node8"><a xlink:href="namespacesrc_1_1nifty.html#a82f89e3045bdeed09a928bb9ce8b0dc1" target="_top" xlink:title="If trying to write to a symbolic link, remove it first. ">
<polygon fill="#ffffff" stroke="#000000" points="786.5,-50 786.5,-69 876.5,-69 876.5,-50 786.5,-50"/>
<text text-anchor="middle" x="831.5" y="-57" font-family="Ubuntu-R" font-size="10.00" fill="#000000">src.nifty.wopen</text>
</a>
</g>
</g>
<!-- Node19&#45;&gt;Node21 -->
<g id="edge7" class="edge">
<title>Node19&#45;&gt;Node21</title>
<path fill="none" stroke="#191970" d="M682.8337,-87.96C711.2901,-82.5125 747.0228,-75.672 776.3241,-70.0626"/>
<polygon fill="#191970" stroke="#191970" points="777.2341,-73.4521 786.3976,-68.1342 775.9179,-66.5769 777.2341,-73.4521"/>
</g>
<!-- Node24 -->
<g id="node11" class="node">
<title>Node24</title>
<g id="a_node11"><a xlink:href="namespacesrc_1_1amberio.html#a526ac77cde3d083631db82b2d229d2db" target="_top" xlink:title="Parse a file containing an AMBER namelist (only significantly tested for sander input). ">
<polygon fill="#ffffff" stroke="#000000" points="562.5,-.5 562.5,-30.5 703.5,-30.5 703.5,-.5 562.5,-.5"/>
<text text-anchor="start" x="570.5" y="-18.5" font-family="Ubuntu-R" font-size="10.00" fill="#000000">src.amberio.parse_amber</text>
<text text-anchor="middle" x="633" y="-7.5" font-family="Ubuntu-R" font-size="10.00" fill="#000000">_namelist</text>
</a>
</g>
</g>
<!-- Node23&#45;&gt;Node24 -->
<g id="edge10" class="edge">
<title>Node23&#45;&gt;Node24</title>
<path fill="none" stroke="#191970" d="M513.1004,-17.4339C525.7063,-17.2305 539.0337,-17.0156 552.0415,-16.8058"/>
<polygon fill="#191970" stroke="#191970" points="552.4428,-20.2999 562.3851,-16.639 552.3299,-13.3008 552.4428,-20.2999"/>
</g>
<!-- Node25 -->
<g id="node12" class="node">
<title>Node25</title>
<g id="a_node12"><a xlink:href="namespacesrc_1_1amberio.html#ab145e7dc869bc06009b5f5cf0208bb77" target="_top" xlink:title="Remove the comment from a line in an AMBER namelist. ">
<polygon fill="#ffffff" stroke="#000000" points="758.5,-6 758.5,-25 904.5,-25 904.5,-6 758.5,-6"/>
<text text-anchor="middle" x="831.5" y="-13" font-family="Ubuntu-R" font-size="10.00" fill="#000000">src.amberio.splitComment</text>
</a>
</g>
</g>
<!-- Node24&#45;&gt;Node25 -->
<g id="edge11" class="edge">
<title>Node24&#45;&gt;Node25</title>
<path fill="none" stroke="#191970" d="M703.5426,-15.5C717.9386,-15.5 733.2162,-15.5 748.014,-15.5"/>
<polygon fill="#191970" stroke="#191970" points="748.1653,-19.0001 758.1653,-15.5 748.1653,-12.0001 748.1653,-19.0001"/>
</g>
</g>
</svg>
