<?xml version="1.0" encoding="UTF-8" standalone="no"?>
<!DOCTYPE svg PUBLIC "-//W3C//DTD SVG 1.1//EN"
 "http://www.w3.org/Graphics/SVG/1.1/DTD/svg11.dtd">
<!-- Generated by graphviz version 2.32.0 (20130801.1845)
 -->
<!-- Title: forcebalance.optimizer.Optimizer.NewtonRaphson Pages: 1 -->
<svg width="2936pt" height="365pt"
 viewBox="0.00 0.00 2936.00 365.00" xmlns="http://www.w3.org/2000/svg" xmlns:xlink="http://www.w3.org/1999/xlink">
<g id="graph0" class="graph" transform="scale(1 1) rotate(0) translate(4 361)">
<title>forcebalance.optimizer.Optimizer.NewtonRaphson</title>
<polygon fill="white" stroke="white" points="-4,5 -4,-361 2933,-361 2933,5 -4,5"/>
<!-- Node1 -->
<g id="node1" class="node"><title>Node1</title>
<polygon fill="#bfbfbf" stroke="black" points="0.282,-186 0.282,-218 153.718,-218 153.718,-186 0.282,-186"/>
<text text-anchor="start" x="8.282" y="-205" font-family="Ubuntu-R" font-size="10.00">forcebalance.optimizer.Optimizer.</text>
<text text-anchor="middle" x="77" y="-193" font-family="Ubuntu-R" font-size="10.00">NewtonRaphson</text>
</g>
<!-- Node2 -->
<g id="node2" class="node"><title>Node2</title>
<g id="a_node2"><a xlink:href="classforcebalance_1_1optimizer_1_1Optimizer.html#a503e87533bd9c257cb9c4b505af9c1de" target="_top" xlink:title="Driver for SciPy optimizations.">
<polygon fill="white" stroke="black" points="190.282,-186 190.282,-218 343.718,-218 343.718,-186 190.282,-186"/>
<text text-anchor="start" x="198.282" y="-205" font-family="Ubuntu-R" font-size="10.00">forcebalance.optimizer.Optimizer.</text>
<text text-anchor="middle" x="267" y="-193" font-family="Ubuntu-R" font-size="10.00">ScipyOptimizer</text>
</a>
</g>
</g>
<!-- Node1&#45;&gt;Node2 -->
<g id="edge1" class="edge"><title>Node1&#45;&gt;Node2</title>
<path fill="none" stroke="midnightblue" d="M153.925,-202C162.495,-202 171.273,-202 179.96,-202"/>
<polygon fill="midnightblue" stroke="midnightblue" points="180.097,-205.5 190.097,-202 180.097,-198.5 180.097,-205.5"/>
</g>
<!-- Node3 -->
<g id="node3" class="node"><title>Node3</title>
<g id="a_node3"><a xlink:href="namespaceforcebalance_1_1nifty.html#a11babd62dc7bca389162c6318f9672ca" target="_top" xlink:title="Cool&#45;looking printout for slick formatting of output.">
<polygon fill="white" stroke="black" points="1343.47,-231 1343.47,-251 1470.53,-251 1470.53,-231 1343.47,-231"/>
<text text-anchor="middle" x="1407" y="-238" font-family="Ubuntu-R" font-size="10.00">forcebalance.nifty.printcool</text>
</a>
</g>
</g>
<!-- Node2&#45;&gt;Node3 -->
<g id="edge2" class="edge"><title>Node2&#45;&gt;Node3</title>
<path fill="none" stroke="midnightblue" d="M322.223,-218.029C395.137,-238.133 529.146,-270 646,-270 646,-270 646,-270 1028,-270 1134.45,-270 1257.28,-258.424 1333.29,-249.9"/>
<polygon fill="midnightblue" stroke="midnightblue" points="1333.7,-253.376 1343.24,-248.771 1332.91,-246.421 1333.7,-253.376"/>
</g>
<!-- Node18 -->
<g id="node18" class="node"><title>Node18</title>
<g id="a_node18"><a xlink:href="classforcebalance_1_1optimizer_1_1Optimizer.html#a50ffc779fbba5a99085cba45d868fc29" target="_top" xlink:title="Genetic algorithm, under development.">
<polygon fill="white" stroke="black" points="380.282,-164 380.282,-196 533.718,-196 533.718,-164 380.282,-164"/>
<text text-anchor="start" x="388.282" y="-183" font-family="Ubuntu-R" font-size="10.00">forcebalance.optimizer.Optimizer.</text>
<text text-anchor="middle" x="457" y="-171" font-family="Ubuntu-R" font-size="10.00">GeneticAlgorithm</text>
</a>
</g>
</g>
<!-- Node2&#45;&gt;Node18 -->
<g id="edge22" class="edge"><title>Node2&#45;&gt;Node18</title>
<path fill="none" stroke="midnightblue" d="M343.925,-186.477C352.495,-185.367 361.273,-184.309 369.96,-183.34"/>
<polygon fill="midnightblue" stroke="midnightblue" points="370.531,-186.799 380.097,-182.245 369.779,-179.839 370.531,-186.799"/>
</g>
<!-- Node4 -->
<g id="node4" class="node"><title>Node4</title>
<g id="a_node4"><a xlink:href="namespaceforcebalance_1_1nifty.html#abb8f59044961a12588e0653c2baa8b01" target="_top" xlink:title="forcebalance.nifty.warn\l_press_key">
<polygon fill="white" stroke="black" points="2607.53,-324 2607.53,-356 2718.47,-356 2718.47,-324 2607.53,-324"/>
<text text-anchor="start" x="2615.53" y="-343" font-family="Ubuntu-R" font-size="10.00">forcebalance.nifty.warn</text>
<text text-anchor="middle" x="2663" y="-331" font-family="Ubuntu-R" font-size="10.00">_press_key</text>
</a>
</g>
</g>
<!-- Node3&#45;&gt;Node4 -->
<g id="edge3" class="edge"><title>Node3&#45;&gt;Node4</title>
<path fill="none" stroke="midnightblue" d="M1429.73,-251.068C1488.51,-277.348 1656.12,-346 1803,-346 1803,-346 1803,-346 2319,-346 2415.87,-346 2528.11,-343.578 2597.08,-341.812"/>
<polygon fill="midnightblue" stroke="midnightblue" points="2597.45,-345.303 2607.35,-341.545 2597.26,-338.306 2597.45,-345.303"/>
</g>
<!-- Node6 -->
<g id="node6" class="node"><title>Node6</title>
<g id="a_node6"><a xlink:href="namespaceforcebalance_1_1nifty.html#a51180e960742cc7547749fdfb3513ec4" target="_top" xlink:title="See documentation for printcool; this is a nice way to print out keys/values in a dictionary...">
<polygon fill="white" stroke="black" points="1533.47,-225 1533.47,-257 1660.53,-257 1660.53,-225 1533.47,-225"/>
<text text-anchor="start" x="1541.47" y="-244" font-family="Ubuntu-R" font-size="10.00">forcebalance.nifty.printcool</text>
<text text-anchor="middle" x="1597" y="-232" font-family="Ubuntu-R" font-size="10.00">_dictionary</text>
</a>
</g>
</g>
<!-- Node3&#45;&gt;Node6 -->
<g id="edge5" class="edge"><title>Node3&#45;&gt;Node6</title>
<path fill="none" stroke="midnightblue" d="M1470.6,-241C1487.48,-241 1505.88,-241 1523.26,-241"/>
<polygon fill="midnightblue" stroke="midnightblue" points="1523.35,-244.5 1533.35,-241 1523.35,-237.5 1523.35,-244.5"/>
</g>
<!-- Node5 -->
<g id="node5" class="node"><title>Node5</title>
<g id="a_node5"><a xlink:href="namespaceforcebalance_1_1nifty.html#a2fc81730e7efa7d138dd86f733507bfc" target="_top" xlink:title="Similar to the bultin function map().">
<polygon fill="white" stroke="black" points="2772.03,-330 2772.03,-350 2927.97,-350 2927.97,-330 2772.03,-330"/>
<text text-anchor="middle" x="2850" y="-337" font-family="Ubuntu-R" font-size="10.00">forcebalance.nifty.concurrent_map</text>
</a>
</g>
</g>
<!-- Node4&#45;&gt;Node5 -->
<g id="edge4" class="edge"><title>Node4&#45;&gt;Node5</title>
<path fill="none" stroke="midnightblue" d="M2718.51,-340C2732.1,-340 2747.02,-340 2761.77,-340"/>
<polygon fill="midnightblue" stroke="midnightblue" points="2761.92,-343.5 2771.92,-340 2761.92,-336.5 2761.92,-343.5"/>
</g>
<!-- Node7 -->
<g id="node7" class="node"><title>Node7</title>
<g id="a_node7"><a xlink:href="namespaceforcebalance_1_1nifty.html#a3f1c7a1af9d35d5d1693074bc6f5497c" target="_top" xlink:title="ONLY matches integers! If you have a decimal point? None shall pass!">
<polygon fill="white" stroke="black" points="1749.91,-248 1749.91,-268 1858.09,-268 1858.09,-248 1749.91,-248"/>
<text text-anchor="middle" x="1804" y="-255" font-family="Ubuntu-R" font-size="10.00">forcebalance.nifty.isint</text>
</a>
</g>
</g>
<!-- Node6&#45;&gt;Node7 -->
<g id="edge6" class="edge"><title>Node6&#45;&gt;Node7</title>
<path fill="none" stroke="midnightblue" d="M1660.62,-246.193C1685.67,-248.27 1714.47,-250.659 1739.59,-252.742"/>
<polygon fill="midnightblue" stroke="midnightblue" points="1739.49,-256.246 1749.75,-253.584 1740.07,-249.27 1739.49,-256.246"/>
</g>
<!-- Node9 -->
<g id="node9" class="node"><title>Node9</title>
<g id="a_node9"><a xlink:href="namespaceforcebalance_1_1nifty.html#a8e3ef0108b9d37b82ba0dced7c6037ae" target="_top" xlink:title="Matches ANY number; it can be a decimal, scientific notation, what have you CAUTION &#45; this will also ...">
<polygon fill="white" stroke="black" points="2100.02,-231 2100.02,-251 2215.98,-251 2215.98,-231 2100.02,-231"/>
<text text-anchor="middle" x="2158" y="-238" font-family="Ubuntu-R" font-size="10.00">forcebalance.nifty.isfloat</text>
</a>
</g>
</g>
<!-- Node6&#45;&gt;Node9 -->
<g id="edge21" class="edge"><title>Node6&#45;&gt;Node9</title>
<path fill="none" stroke="midnightblue" d="M1660.78,-239.022C1676.83,-238.598 1694.05,-238.214 1710,-238 1844.73,-236.196 2002.32,-238.219 2089.79,-239.708"/>
<polygon fill="midnightblue" stroke="midnightblue" points="2089.78,-243.208 2099.84,-239.882 2089.9,-236.209 2089.78,-243.208"/>
</g>
<!-- Node8 -->
<g id="node8" class="node"><title>Node8</title>
<g id="a_node8"><a xlink:href="namespaceforcebalance_1_1nifty.html#a09263927eaec9deff283fbf1a820242f" target="_top" xlink:title="Matches things with a decimal only; see isint and isfloat.">
<polygon fill="white" stroke="black" points="1934.36,-286 1934.36,-306 2063.64,-306 2063.64,-286 1934.36,-286"/>
<text text-anchor="middle" x="1999" y="-293" font-family="Ubuntu-R" font-size="10.00">forcebalance.nifty.isdecimal</text>
</a>
</g>
</g>
<!-- Node7&#45;&gt;Node8 -->
<g id="edge7" class="edge"><title>Node7&#45;&gt;Node8</title>
<path fill="none" stroke="midnightblue" d="M1855.96,-268.034C1880.81,-272.926 1910.88,-278.846 1936.94,-283.978"/>
<polygon fill="midnightblue" stroke="midnightblue" points="1936.6,-287.478 1947.09,-285.976 1937.95,-280.61 1936.6,-287.478"/>
</g>
<!-- Node8&#45;&gt;Node9 -->
<g id="edge8" class="edge"><title>Node8&#45;&gt;Node9</title>
<path fill="none" stroke="midnightblue" d="M2028.8,-285.912C2054.03,-277.074 2090.89,-264.159 2118.62,-254.445"/>
<polygon fill="midnightblue" stroke="midnightblue" points="2120.11,-257.633 2128.39,-251.024 2117.79,-251.027 2120.11,-257.633"/>
</g>
<!-- Node13 -->
<g id="node13" class="node"><title>Node13</title>
<g id="a_node13"><a xlink:href="namespaceforcebalance_1_1nifty.html#afb3f205bce4984856e766af7e9fdaca8" target="_top" xlink:title="Given any list, array, or matrix, return a 1&#45;column matrix.">
<polygon fill="white" stroke="black" points="2106.41,-286 2106.41,-306 2209.59,-306 2209.59,-286 2106.41,-286"/>
<text text-anchor="middle" x="2158" y="-293" font-family="Ubuntu-R" font-size="10.00">forcebalance.nifty.col</text>
</a>
</g>
</g>
<!-- Node8&#45;&gt;Node13 -->
<g id="edge13" class="edge"><title>Node8&#45;&gt;Node13</title>
<path fill="none" stroke="midnightblue" d="M2063.86,-296C2074.43,-296 2085.36,-296 2095.86,-296"/>
<polygon fill="midnightblue" stroke="midnightblue" points="2096.19,-299.5 2106.19,-296 2096.19,-292.5 2096.19,-299.5"/>
</g>
<!-- Node9&#45;&gt;Node7 -->
<g id="edge9" class="edge"><title>Node9&#45;&gt;Node7</title>
<path fill="none" stroke="midnightblue" d="M2099.82,-243.762C2036.46,-246.821 1934.58,-251.742 1868.71,-254.923"/>
<polygon fill="midnightblue" stroke="midnightblue" points="1868.28,-251.44 1858.46,-255.418 1868.62,-258.432 1868.28,-251.44"/>
</g>
<!-- Node10 -->
<g id="node10" class="node"><title>Node10</title>
<g id="a_node10"><a xlink:href="namespaceforcebalance_1_1nifty.html#a8d63c8ae9a67c66673a6cf81357f827d" target="_top" xlink:title="Returns a big number if we encounter NaN.">
<polygon fill="white" stroke="black" points="2251.97,-219 2251.97,-239 2384.03,-239 2384.03,-219 2251.97,-219"/>
<text text-anchor="middle" x="2318" y="-226" font-family="Ubuntu-R" font-size="10.00">forcebalance.nifty.floatornan</text>
</a>
</g>
</g>
<!-- Node9&#45;&gt;Node10 -->
<g id="edge10" class="edge"><title>Node9&#45;&gt;Node10</title>
<path fill="none" stroke="midnightblue" d="M2216.04,-236.668C2224.36,-236.036 2233.04,-235.377 2241.66,-234.722"/>
<polygon fill="midnightblue" stroke="midnightblue" points="2242.02,-238.205 2251.72,-233.958 2241.49,-231.225 2242.02,-238.205"/>
</g>
<!-- Node11 -->
<g id="node11" class="node"><title>Node11</title>
<g id="a_node11"><a xlink:href="namespaceforcebalance_1_1nifty.html#a6c9727360cdff8f3011a12cc54d0e86e" target="_top" xlink:title="Given any list, array, or matrix, return a 1&#45;row matrix.">
<polygon fill="white" stroke="black" points="2433.75,-219 2433.75,-239 2540.25,-239 2540.25,-219 2433.75,-219"/>
<text text-anchor="middle" x="2487" y="-226" font-family="Ubuntu-R" font-size="10.00">forcebalance.nifty.row</text>
</a>
</g>
</g>
<!-- Node10&#45;&gt;Node11 -->
<g id="edge11" class="edge"><title>Node10&#45;&gt;Node11</title>
<path fill="none" stroke="midnightblue" d="M2384.04,-229C2396.98,-229 2410.54,-229 2423.39,-229"/>
<polygon fill="midnightblue" stroke="midnightblue" points="2423.52,-232.5 2433.52,-229 2423.52,-225.5 2423.52,-232.5"/>
</g>
<!-- Node12 -->
<g id="node12" class="node"><title>Node12</title>
<g id="a_node12"><a xlink:href="namespaceforcebalance_1_1nifty.html#a7676236002c6a65ea7d2e69a09923889" target="_top" xlink:title="Given two vectors vec1 and vec2, project out the component of vec1 that is along the vec2&#45;direction...">
<polygon fill="white" stroke="black" points="2590.03,-219 2590.03,-239 2735.97,-239 2735.97,-219 2590.03,-219"/>
<text text-anchor="middle" x="2663" y="-226" font-family="Ubuntu-R" font-size="10.00">forcebalance.nifty.orthogonalize</text>
</a>
</g>
</g>
<!-- Node11&#45;&gt;Node12 -->
<g id="edge12" class="edge"><title>Node11&#45;&gt;Node12</title>
<path fill="none" stroke="midnightblue" d="M2540.68,-229C2553.03,-229 2566.49,-229 2579.79,-229"/>
<polygon fill="midnightblue" stroke="midnightblue" points="2579.92,-232.5 2589.92,-229 2579.92,-225.5 2579.92,-232.5"/>
</g>
<!-- Node14 -->
<g id="node14" class="node"><title>Node14</title>
<g id="a_node14"><a xlink:href="namespaceforcebalance_1_1nifty.html#a52114ceee9d55f94d9aecb3e176de294" target="_top" xlink:title="Given any list, array, or matrix, return a single&#45;index array.">
<polygon fill="white" stroke="black" points="2265.86,-258 2265.86,-278 2370.14,-278 2370.14,-258 2265.86,-258"/>
<text text-anchor="middle" x="2318" y="-265" font-family="Ubuntu-R" font-size="10.00">forcebalance.nifty.flat</text>
</a>
</g>
</g>
<!-- Node13&#45;&gt;Node14 -->
<g id="edge14" class="edge"><title>Node13&#45;&gt;Node14</title>
<path fill="none" stroke="midnightblue" d="M2209.86,-286.986C2224.37,-284.415 2240.34,-281.584 2255.42,-278.912"/>
<polygon fill="midnightblue" stroke="midnightblue" points="2256.46,-282.284 2265.69,-277.093 2255.23,-275.391 2256.46,-282.284"/>
</g>
<!-- Node15 -->
<g id="node15" class="node"><title>Node15</title>
<g id="a_node15"><a xlink:href="namespaceforcebalance_1_1nifty.html#a4c82187e92dfeb8a159f4aa44b501c40" target="_top" xlink:title="Invert a matrix using singular value decomposition.">
<polygon fill="white" stroke="black" points="2420.41,-297 2420.41,-317 2553.59,-317 2553.59,-297 2420.41,-297"/>
<text text-anchor="middle" x="2487" y="-304" font-family="Ubuntu-R" font-size="10.00">forcebalance.nifty.invert_svd</text>
</a>
</g>
</g>
<!-- Node14&#45;&gt;Node15 -->
<g id="edge15" class="edge"><title>Node14&#45;&gt;Node15</title>
<path fill="none" stroke="midnightblue" d="M2362.01,-278.043C2383.73,-283.116 2410.27,-289.314 2433.22,-294.673"/>
<polygon fill="midnightblue" stroke="midnightblue" points="2432.61,-298.125 2443.14,-296.991 2434.2,-291.308 2432.61,-298.125"/>
</g>
<!-- Node15&#45;&gt;Node4 -->
<g id="edge20" class="edge"><title>Node15&#45;&gt;Node4</title>
<path fill="none" stroke="midnightblue" d="M2541.15,-317.08C2558.94,-320.454 2578.97,-324.253 2597.53,-327.773"/>
<polygon fill="midnightblue" stroke="midnightblue" points="2596.89,-331.215 2607.37,-329.639 2598.2,-324.337 2596.89,-331.215"/>
</g>
<!-- Node15&#45;&gt;Node13 -->
<g id="edge19" class="edge"><title>Node15&#45;&gt;Node13</title>
<path fill="none" stroke="midnightblue" d="M2420.17,-304.785C2361.72,-302.819 2276.98,-299.969 2220.03,-298.053"/>
<polygon fill="midnightblue" stroke="midnightblue" points="2219.85,-294.545 2209.73,-297.707 2219.61,-301.541 2219.85,-294.545"/>
</g>
<!-- Node16 -->
<g id="node16" class="node"><title>Node16</title>
<g id="a_node16"><a xlink:href="namespaceforcebalance_1_1nifty.html#aa9fb9c7c65231eca50a7afc04f489b64" target="_top" xlink:title="forcebalance.nifty.get\l_least_squares">
<polygon fill="white" stroke="black" points="2611.41,-268 2611.41,-300 2714.59,-300 2714.59,-268 2611.41,-268"/>
<text text-anchor="start" x="2619.41" y="-287" font-family="Ubuntu-R" font-size="10.00">forcebalance.nifty.get</text>
<text text-anchor="middle" x="2663" y="-275" font-family="Ubuntu-R" font-size="10.00">_least_squares</text>
</a>
</g>
</g>
<!-- Node15&#45;&gt;Node16 -->
<g id="edge16" class="edge"><title>Node15&#45;&gt;Node16</title>
<path fill="none" stroke="midnightblue" d="M2553.78,-298.305C2569.26,-296.258 2585.7,-294.085 2600.96,-292.068"/>
<polygon fill="midnightblue" stroke="midnightblue" points="2601.86,-295.48 2611.32,-290.699 2600.95,-288.54 2601.86,-295.48"/>
</g>
<!-- Node16&#45;&gt;Node14 -->
<g id="edge17" class="edge"><title>Node16&#45;&gt;Node14</title>
<path fill="none" stroke="midnightblue" d="M2611.14,-281.627C2549.72,-278.762 2446.46,-273.946 2380.59,-270.873"/>
<polygon fill="midnightblue" stroke="midnightblue" points="2380.5,-267.365 2370.35,-270.395 2380.18,-274.358 2380.5,-267.365"/>
</g>
<!-- Node17 -->
<g id="node17" class="node"><title>Node17</title>
<g id="a_node17"><a xlink:href="namespaceforcebalance_1_1nifty.html#ad5ca60565c864b4245a8212fe9d92e10" target="_top" xlink:title="Compute the (cross) statistical inefficiency of (two) timeseries.">
<polygon fill="white" stroke="black" points="2785.64,-268 2785.64,-300 2914.36,-300 2914.36,-268 2785.64,-268"/>
<text text-anchor="start" x="2793.64" y="-287" font-family="Ubuntu-R" font-size="10.00">forcebalance.nifty.statistical</text>
<text text-anchor="middle" x="2850" y="-275" font-family="Ubuntu-R" font-size="10.00">Inefficiency</text>
</a>
</g>
</g>
<!-- Node16&#45;&gt;Node17 -->
<g id="edge18" class="edge"><title>Node16&#45;&gt;Node17</title>
<path fill="none" stroke="midnightblue" d="M2715.04,-284C2733.71,-284 2755.21,-284 2775.45,-284"/>
<polygon fill="midnightblue" stroke="midnightblue" points="2775.58,-287.5 2785.58,-284 2775.58,-280.5 2775.58,-287.5"/>
</g>
<!-- Node18&#45;&gt;Node2 -->
<g id="edge51" class="edge"><title>Node18&#45;&gt;Node2</title>
<path fill="none" stroke="midnightblue" d="M380.097,-195.52C371.528,-196.63 362.75,-197.688 354.063,-198.657"/>
<polygon fill="midnightblue" stroke="midnightblue" points="353.491,-195.199 343.925,-199.753 354.243,-202.158 353.491,-195.199"/>
</g>
<!-- Node19 -->
<g id="node19" class="node"><title>Node19</title>
<g id="a_node19"><a xlink:href="classforcebalance_1_1optimizer_1_1Optimizer.html#a6b3af8115718f61a6a21c3297d717ead" target="_top" xlink:title="Use SciPy&#39;s built&#45;in simplex algorithm to optimize the parameters.">
<polygon fill="white" stroke="black" points="570.282,-209 570.282,-241 723.718,-241 723.718,-209 570.282,-209"/>
<text text-anchor="start" x="578.282" y="-228" font-family="Ubuntu-R" font-size="10.00">forcebalance.optimizer.Optimizer.</text>
<text text-anchor="middle" x="647" y="-216" font-family="Ubuntu-R" font-size="10.00">Simplex</text>
</a>
</g>
</g>
<!-- Node18&#45;&gt;Node19 -->
<g id="edge23" class="edge"><title>Node18&#45;&gt;Node19</title>
<path fill="none" stroke="midnightblue" d="M525.076,-196.055C539.299,-199.46 554.42,-203.079 568.978,-206.564"/>
<polygon fill="midnightblue" stroke="midnightblue" points="568.41,-210.027 578.95,-208.951 570.039,-203.219 568.41,-210.027"/>
</g>
<!-- Node39 -->
<g id="node39" class="node"><title>Node39</title>
<g id="a_node39"><a xlink:href="classforcebalance_1_1optimizer_1_1Optimizer.html#a0745b2e3607ef308ba48bb1d34e5be79" target="_top" xlink:title="Use SciPy&#39;s built&#45;in Powell direction&#45;set algorithm to optimize the parameters.">
<polygon fill="white" stroke="black" points="570.282,-158 570.282,-190 723.718,-190 723.718,-158 570.282,-158"/>
<text text-anchor="start" x="578.282" y="-177" font-family="Ubuntu-R" font-size="10.00">forcebalance.optimizer.Optimizer.</text>
<text text-anchor="middle" x="647" y="-165" font-family="Ubuntu-R" font-size="10.00">Powell</text>
</a>
</g>
</g>
<!-- Node18&#45;&gt;Node39 -->
<g id="edge52" class="edge"><title>Node18&#45;&gt;Node39</title>
<path fill="none" stroke="midnightblue" d="M533.925,-177.577C542.495,-177.303 551.273,-177.023 559.96,-176.746"/>
<polygon fill="midnightblue" stroke="midnightblue" points="560.214,-180.24 570.097,-176.422 559.991,-173.243 560.214,-180.24"/>
</g>
<!-- Node40 -->
<g id="node40" class="node"><title>Node40</title>
<g id="a_node40"><a xlink:href="classforcebalance_1_1optimizer_1_1Optimizer.html#a183911848e43ca0be1893b87290dc31e" target="_top" xlink:title="Use SciPy&#39;s built&#45;in simulated annealing algorithm to optimize the parameters.">
<polygon fill="white" stroke="black" points="570.282,-107 570.282,-139 723.718,-139 723.718,-107 570.282,-107"/>
<text text-anchor="start" x="578.282" y="-126" font-family="Ubuntu-R" font-size="10.00">forcebalance.optimizer.Optimizer.</text>
<text text-anchor="middle" x="647" y="-114" font-family="Ubuntu-R" font-size="10.00">Anneal</text>
</a>
</g>
</g>
<!-- Node18&#45;&gt;Node40 -->
<g id="edge53" class="edge"><title>Node18&#45;&gt;Node40</title>
<path fill="none" stroke="midnightblue" d="M510.869,-163.971C533.391,-157.142 559.837,-149.124 583.333,-142"/>
<polygon fill="midnightblue" stroke="midnightblue" points="584.648,-145.259 593.203,-139.008 582.617,-138.56 584.648,-145.259"/>
</g>
<!-- Node19&#45;&gt;Node2 -->
<g id="edge25" class="edge"><title>Node19&#45;&gt;Node2</title>
<path fill="none" stroke="midnightblue" d="M570.082,-220.381C507.7,-216.585 419.324,-211.208 354.272,-207.249"/>
<polygon fill="midnightblue" stroke="midnightblue" points="354.233,-203.741 344.039,-206.627 353.808,-210.728 354.233,-203.741"/>
</g>
<!-- Node20 -->
<g id="node20" class="node"><title>Node20</title>
<g id="a_node20"><a xlink:href="classforcebalance_1_1optimizer_1_1Optimizer.html#ad1e151204a172a4e75737b2b699d1623" target="_top" xlink:title="Use SciPy&#39;s built&#45;in simulated annealing algorithm to optimize the parameters.">
<polygon fill="white" stroke="black" points="760.282,-209 760.282,-241 913.718,-241 913.718,-209 760.282,-209"/>
<text text-anchor="start" x="768.282" y="-228" font-family="Ubuntu-R" font-size="10.00">forcebalance.optimizer.Optimizer.</text>
<text text-anchor="middle" x="837" y="-216" font-family="Ubuntu-R" font-size="10.00">ConjugateGradient</text>
</a>
</g>
</g>
<!-- Node19&#45;&gt;Node20 -->
<g id="edge24" class="edge"><title>Node19&#45;&gt;Node20</title>
<path fill="none" stroke="midnightblue" d="M723.925,-225C732.495,-225 741.273,-225 749.96,-225"/>
<polygon fill="midnightblue" stroke="midnightblue" points="750.097,-228.5 760.097,-225 750.097,-221.5 750.097,-228.5"/>
</g>
<!-- Node21 -->
<g id="node21" class="node"><title>Node21</title>
<g id="a_node21"><a xlink:href="classforcebalance_1_1optimizer_1_1Optimizer.html#a6c7508252398ff7e00469c4c8acb0a48" target="_top" xlink:title="Scan through parameter values.">
<polygon fill="white" stroke="black" points="760.282,-140 760.282,-172 913.718,-172 913.718,-140 760.282,-140"/>
<text text-anchor="start" x="768.282" y="-159" font-family="Ubuntu-R" font-size="10.00">forcebalance.optimizer.Optimizer.</text>
<text text-anchor="middle" x="837" y="-147" font-family="Ubuntu-R" font-size="10.00">Scan_Values</text>
</a>
</g>
</g>
<!-- Node19&#45;&gt;Node21 -->
<g id="edge26" class="edge"><title>Node19&#45;&gt;Node21</title>
<path fill="none" stroke="midnightblue" d="M695.934,-208.902C705.265,-205.684 714.955,-202.282 724,-199 744.267,-191.646 766.455,-183.209 785.698,-175.767"/>
<polygon fill="midnightblue" stroke="midnightblue" points="787.118,-178.97 795.175,-172.09 784.586,-172.444 787.118,-178.97"/>
</g>
<!-- Node21&#45;&gt;Node21 -->
<g id="edge41" class="edge"><title>Node21&#45;&gt;Node21</title>
<path fill="none" stroke="midnightblue" d="M803.332,-172.091C796.461,-181.366 807.684,-190 837,-190 854.865,-190 866.01,-186.794 870.437,-182.19"/>
<polygon fill="midnightblue" stroke="midnightblue" points="873.939,-182.168 870.668,-172.091 866.941,-182.008 873.939,-182.168"/>
</g>
<!-- Node22 -->
<g id="node22" class="node"><title>Node22</title>
<g id="a_node22"><a xlink:href="classforcebalance_1_1optimizer_1_1Optimizer.html#a43ab8c6bea2b3112468922ab61163f67" target="_top" xlink:title="Scan through the mathematical parameter space.">
<polygon fill="white" stroke="black" points="1140.28,-68 1140.28,-100 1293.72,-100 1293.72,-68 1140.28,-68"/>
<text text-anchor="start" x="1148.28" y="-87" font-family="Ubuntu-R" font-size="10.00">forcebalance.optimizer.Optimizer.</text>
<text text-anchor="middle" x="1217" y="-75" font-family="Ubuntu-R" font-size="10.00">ScanMVals</text>
</a>
</g>
</g>
<!-- Node21&#45;&gt;Node22 -->
<g id="edge27" class="edge"><title>Node21&#45;&gt;Node22</title>
<path fill="none" stroke="midnightblue" d="M864.54,-139.975C886.584,-127.533 919.206,-111.082 950,-103 1008.9,-87.5429 1077.49,-82.9533 1130.27,-82.1444"/>
<polygon fill="midnightblue" stroke="midnightblue" points="1130.31,-85.6443 1140.27,-82.0333 1130.23,-78.6448 1130.31,-85.6443"/>
</g>
<!-- Node34 -->
<g id="node34" class="node"><title>Node34</title>
<g id="a_node34"><a xlink:href="classforcebalance_1_1optimizer_1_1Optimizer.html#a70bff76f2e56d87c8dee8aa92fe56d29" target="_top" xlink:title="Scan through the physical parameter space.">
<polygon fill="white" stroke="black" points="950.282,-113 950.282,-145 1103.72,-145 1103.72,-113 950.282,-113"/>
<text text-anchor="start" x="958.282" y="-132" font-family="Ubuntu-R" font-size="10.00">forcebalance.optimizer.Optimizer.</text>
<text text-anchor="middle" x="1027" y="-120" font-family="Ubuntu-R" font-size="10.00">ScanPVals</text>
</a>
</g>
</g>
<!-- Node21&#45;&gt;Node34 -->
<g id="edge42" class="edge"><title>Node21&#45;&gt;Node34</title>
<path fill="none" stroke="midnightblue" d="M913.925,-145.096C922.495,-143.865 931.273,-142.604 939.96,-141.357"/>
<polygon fill="midnightblue" stroke="midnightblue" points="940.696,-144.787 950.097,-139.901 939.701,-137.858 940.696,-144.787"/>
</g>
<!-- Node35 -->
<g id="node35" class="node"><title>Node35</title>
<g id="a_node35"><a xlink:href="classforcebalance_1_1optimizer_1_1Optimizer.html#a1477d2b88faa1d4991418538133abcff" target="_top" xlink:title="A single&#45;point objective function computation.">
<polygon fill="white" stroke="black" points="950.282,-164 950.282,-196 1103.72,-196 1103.72,-164 950.282,-164"/>
<text text-anchor="start" x="958.282" y="-183" font-family="Ubuntu-R" font-size="10.00">forcebalance.optimizer.Optimizer.</text>
<text text-anchor="middle" x="1027" y="-171" font-family="Ubuntu-R" font-size="10.00">SinglePoint</text>
</a>
</g>
</g>
<!-- Node21&#45;&gt;Node35 -->
<g id="edge43" class="edge"><title>Node21&#45;&gt;Node35</title>
<path fill="none" stroke="midnightblue" d="M913.925,-165.693C922.495,-166.787 931.273,-167.907 939.96,-169.016"/>
<polygon fill="midnightblue" stroke="midnightblue" points="939.735,-172.516 950.097,-170.31 940.621,-165.572 939.735,-172.516"/>
</g>
<!-- Node38 -->
<g id="node38" class="node"><title>Node38</title>
<g id="a_node38"><a xlink:href="classforcebalance_1_1optimizer_1_1Optimizer.html#ac5adf24cf3ea3976eb67f75b6b89d101" target="_top" xlink:title="A single&#45;point gradient computation.">
<polygon fill="white" stroke="black" points="1140.28,-209 1140.28,-241 1293.72,-241 1293.72,-209 1140.28,-209"/>
<text text-anchor="start" x="1148.28" y="-228" font-family="Ubuntu-R" font-size="10.00">forcebalance.optimizer.Optimizer.</text>
<text text-anchor="middle" x="1217" y="-216" font-family="Ubuntu-R" font-size="10.00">Gradient</text>
</a>
</g>
</g>
<!-- Node21&#45;&gt;Node38 -->
<g id="edge49" class="edge"><title>Node21&#45;&gt;Node38</title>
<path fill="none" stroke="midnightblue" d="M867.45,-172.17C889.492,-183.446 920.753,-197.727 950,-205 1008.88,-219.642 1077.16,-224.536 1129.8,-225.824"/>
<polygon fill="midnightblue" stroke="midnightblue" points="1130.05,-229.329 1140.12,-226.035 1130.19,-222.331 1130.05,-229.329"/>
</g>
<!-- Node23 -->
<g id="node23" class="node"><title>Node23</title>
<g id="a_node23"><a xlink:href="classforcebalance_1_1optimizer_1_1Optimizer.html#a0c16ad8678a6480e235a45d69fb077d3" target="_top" xlink:title="A single&#45;point Hessian computation.">
<polygon fill="white" stroke="black" points="1330.28,-68 1330.28,-100 1483.72,-100 1483.72,-68 1330.28,-68"/>
<text text-anchor="start" x="1338.28" y="-87" font-family="Ubuntu-R" font-size="10.00">forcebalance.optimizer.Optimizer.</text>
<text text-anchor="middle" x="1407" y="-75" font-family="Ubuntu-R" font-size="10.00">Hessian</text>
</a>
</g>
</g>
<!-- Node22&#45;&gt;Node23 -->
<g id="edge28" class="edge"><title>Node22&#45;&gt;Node23</title>
<path fill="none" stroke="midnightblue" d="M1293.92,-84C1302.49,-84 1311.27,-84 1319.96,-84"/>
<polygon fill="midnightblue" stroke="midnightblue" points="1320.1,-87.5001 1330.1,-84 1320.1,-80.5001 1320.1,-87.5001"/>
</g>
<!-- Node24 -->
<g id="node24" class="node"><title>Node24</title>
<g id="a_node24"><a xlink:href="namespaceforcebalance_1_1finite__difference.html#a9be9f0d21300958092e380514e2e980d" target="_top" xlink:title="A highly accurate seven&#45;point finite difference stencil for computing derivatives of a function...">
<polygon fill="white" stroke="black" points="1551.66,-158 1551.66,-190 1642.34,-190 1642.34,-158 1551.66,-158"/>
<text text-anchor="start" x="1559.66" y="-177" font-family="Ubuntu-R" font-size="10.00">forcebalance.finite</text>
<text text-anchor="middle" x="1597" y="-165" font-family="Ubuntu-R" font-size="10.00">_difference.f1d7p</text>
</a>
</g>
</g>
<!-- Node23&#45;&gt;Node24 -->
<g id="edge29" class="edge"><title>Node23&#45;&gt;Node24</title>
<path fill="none" stroke="midnightblue" d="M1441.61,-100.09C1472.79,-115.018 1519.35,-137.306 1553.18,-153.502"/>
<polygon fill="midnightblue" stroke="midnightblue" points="1551.83,-156.737 1562.36,-157.898 1554.86,-150.423 1551.83,-156.737"/>
</g>
<!-- Node28 -->
<g id="node28" class="node"><title>Node28</title>
<g id="a_node28"><a xlink:href="namespaceforcebalance_1_1finite__difference.html#ae484c591ae8c4e5bae73a0ef2660c339" target="_top" xlink:title="A function wrapper for finite difference designed for differentiating &#39;get&#39;&#45;type functions.">
<polygon fill="white" stroke="black" points="2111.83,-110 2111.83,-142 2204.17,-142 2204.17,-110 2111.83,-110"/>
<text text-anchor="start" x="2119.83" y="-129" font-family="Ubuntu-R" font-size="10.00">forcebalance.finite</text>
<text text-anchor="middle" x="2158" y="-117" font-family="Ubuntu-R" font-size="10.00">_difference.fdwrap</text>
</a>
</g>
</g>
<!-- Node23&#45;&gt;Node28 -->
<g id="edge37" class="edge"><title>Node23&#45;&gt;Node28</title>
<path fill="none" stroke="midnightblue" d="M1483.87,-85.8482C1606.16,-89.2177 1854.36,-97.6699 2064,-115 2076.15,-116.005 2089.17,-117.365 2101.49,-118.786"/>
<polygon fill="midnightblue" stroke="midnightblue" points="2101.31,-122.289 2111.65,-119.987 2102.13,-115.337 2101.31,-122.289"/>
</g>
<!-- Node31 -->
<g id="node31" class="node"><title>Node31</title>
<g id="a_node31"><a xlink:href="classforcebalance_1_1optimizer_1_1Optimizer.html#adb86c1f6580bb088a23563a6103986fe" target="_top" xlink:title="Finite&#45;difference checker for the objective function Hessian.">
<polygon fill="white" stroke="black" points="1520.28,-30 1520.28,-62 1673.72,-62 1673.72,-30 1520.28,-30"/>
<text text-anchor="start" x="1528.28" y="-49" font-family="Ubuntu-R" font-size="10.00">forcebalance.optimizer.Optimizer.</text>
<text text-anchor="middle" x="1597" y="-37" font-family="Ubuntu-R" font-size="10.00">FDCheckH</text>
</a>
</g>
</g>
<!-- Node23&#45;&gt;Node31 -->
<g id="edge38" class="edge"><title>Node23&#45;&gt;Node31</title>
<path fill="none" stroke="midnightblue" d="M1483.92,-68.6535C1492.59,-66.9025 1501.46,-65.1084 1510.24,-63.3339"/>
<polygon fill="midnightblue" stroke="midnightblue" points="1510.99,-66.7539 1520.1,-61.342 1509.6,-59.8927 1510.99,-66.7539"/>
</g>
<!-- Node25 -->
<g id="node25" class="node"><title>Node25</title>
<g id="a_node25"><a xlink:href="namespaceforcebalance_1_1finite__difference.html#acc281f85b668062745f711d9b4a610fa" target="_top" xlink:title="forcebalance.finite\l_difference.f12d7p">
<polygon fill="white" stroke="black" points="1757.82,-158 1757.82,-190 1850.18,-190 1850.18,-158 1757.82,-158"/>
<text text-anchor="start" x="1765.82" y="-177" font-family="Ubuntu-R" font-size="10.00">forcebalance.finite</text>
<text text-anchor="middle" x="1804" y="-165" font-family="Ubuntu-R" font-size="10.00">_difference.f12d7p</text>
</a>
</g>
</g>
<!-- Node24&#45;&gt;Node25 -->
<g id="edge30" class="edge"><title>Node24&#45;&gt;Node25</title>
<path fill="none" stroke="midnightblue" d="M1642.48,-174C1673.19,-174 1714.26,-174 1747.17,-174"/>
<polygon fill="midnightblue" stroke="midnightblue" points="1747.54,-177.5 1757.54,-174 1747.54,-170.5 1747.54,-177.5"/>
</g>
<!-- Node26 -->
<g id="node26" class="node"><title>Node26</title>
<g id="a_node26"><a xlink:href="namespaceforcebalance_1_1finite__difference.html#aa69a8819e4680091f400303c1d6ddeb7" target="_top" xlink:title="A three&#45;point finite difference stencil.">
<polygon fill="white" stroke="black" points="1952.82,-158 1952.82,-190 2045.18,-190 2045.18,-158 1952.82,-158"/>
<text text-anchor="start" x="1960.82" y="-177" font-family="Ubuntu-R" font-size="10.00">forcebalance.finite</text>
<text text-anchor="middle" x="1999" y="-165" font-family="Ubuntu-R" font-size="10.00">_difference.f12d3p</text>
</a>
</g>
</g>
<!-- Node25&#45;&gt;Node26 -->
<g id="edge31" class="edge"><title>Node25&#45;&gt;Node26</title>
<path fill="none" stroke="midnightblue" d="M1850.25,-174C1877.86,-174 1913.35,-174 1942.63,-174"/>
<polygon fill="midnightblue" stroke="midnightblue" points="1942.7,-177.5 1952.7,-174 1942.7,-170.5 1942.7,-177.5"/>
</g>
<!-- Node27 -->
<g id="node27" class="node"><title>Node27</title>
<g id="a_node27"><a xlink:href="namespaceforcebalance_1_1finite__difference.html#ad84d3e385db1190e7d8ef58bc08a6c52" target="_top" xlink:title="Invoking this function from anywhere will tell us whether we&#39;re being called by a finite&#45;difference f...">
<polygon fill="white" stroke="black" points="2112.66,-161 2112.66,-193 2203.34,-193 2203.34,-161 2112.66,-161"/>
<text text-anchor="start" x="2120.66" y="-180" font-family="Ubuntu-R" font-size="10.00">forcebalance.finite</text>
<text text-anchor="middle" x="2158" y="-168" font-family="Ubuntu-R" font-size="10.00">_difference.in_fd</text>
</a>
</g>
</g>
<!-- Node26&#45;&gt;Node27 -->
<g id="edge32" class="edge"><title>Node26&#45;&gt;Node27</title>
<path fill="none" stroke="midnightblue" d="M2045.41,-174.868C2063.21,-175.208 2083.8,-175.601 2102.4,-175.957"/>
<polygon fill="midnightblue" stroke="midnightblue" points="2102.44,-179.458 2112.5,-176.15 2102.57,-172.459 2102.44,-179.458"/>
</g>
<!-- Node26&#45;&gt;Node28 -->
<g id="edge33" class="edge"><title>Node26&#45;&gt;Node28</title>
<path fill="none" stroke="midnightblue" d="M2045.41,-160.116C2063.07,-154.718 2083.46,-148.485 2101.94,-142.834"/>
<polygon fill="midnightblue" stroke="midnightblue" points="2103.15,-146.123 2111.69,-139.852 2101.1,-139.429 2103.15,-146.123"/>
</g>
<!-- Node29 -->
<g id="node29" class="node"><title>Node29</title>
<g id="a_node29"><a xlink:href="namespaceforcebalance_1_1finite__difference.html#a00322fb65860c390616f74d05037c797" target="_top" xlink:title="A driver to fdwrap for gradients (see documentation for fdwrap) Inputs: tgt = The Target containing t...">
<polygon fill="white" stroke="black" points="2265.72,-110 2265.72,-142 2370.28,-142 2370.28,-110 2265.72,-110"/>
<text text-anchor="start" x="2273.72" y="-129" font-family="Ubuntu-R" font-size="10.00">forcebalance.finite</text>
<text text-anchor="middle" x="2318" y="-117" font-family="Ubuntu-R" font-size="10.00">_difference.fdwrap_G</text>
</a>
</g>
</g>
<!-- Node28&#45;&gt;Node29 -->
<g id="edge34" class="edge"><title>Node28&#45;&gt;Node29</title>
<path fill="none" stroke="midnightblue" d="M2204.28,-119.829C2220.13,-119.25 2238.23,-119.105 2255.2,-119.394"/>
<polygon fill="midnightblue" stroke="midnightblue" points="2255.52,-122.902 2265.6,-119.63 2255.68,-115.904 2255.52,-122.902"/>
</g>
<!-- Node30 -->
<g id="node30" class="node"><title>Node30</title>
<g id="a_node30"><a xlink:href="namespaceforcebalance_1_1finite__difference.html#a77a0bc1ae3cbbcc8d38a0ef9ca877d6d" target="_top" xlink:title="A driver to fdwrap for Hessians (see documentation for fdwrap) Inputs: tgt = The Target containing th...">
<polygon fill="white" stroke="black" points="2265.72,-59 2265.72,-91 2370.28,-91 2370.28,-59 2265.72,-59"/>
<text text-anchor="start" x="2273.72" y="-78" font-family="Ubuntu-R" font-size="10.00">forcebalance.finite</text>
<text text-anchor="middle" x="2318" y="-66" font-family="Ubuntu-R" font-size="10.00">_difference.fdwrap_H</text>
</a>
</g>
</g>
<!-- Node28&#45;&gt;Node30 -->
<g id="edge36" class="edge"><title>Node28&#45;&gt;Node30</title>
<path fill="none" stroke="midnightblue" d="M2204.28,-111.385C2220.9,-106.021 2239.97,-99.8654 2257.64,-94.1615"/>
<polygon fill="midnightblue" stroke="midnightblue" points="2258.84,-97.4497 2267.29,-91.047 2256.69,-90.7881 2258.84,-97.4497"/>
</g>
<!-- Node29&#45;&gt;Node28 -->
<g id="edge35" class="edge"><title>Node29&#45;&gt;Node28</title>
<path fill="none" stroke="midnightblue" d="M2265.6,-132.37C2249.23,-132.839 2231.05,-132.874 2214.41,-132.475"/>
<polygon fill="midnightblue" stroke="midnightblue" points="2214.38,-128.973 2204.28,-132.171 2214.17,-135.969 2214.38,-128.973"/>
</g>
<!-- Node32 -->
<g id="node32" class="node"><title>Node32</title>
<g id="a_node32"><a xlink:href="classforcebalance_1_1optimizer_1_1Optimizer.html#a05ee5fe985b3e2ec71071ca061e42d66" target="_top" xlink:title="Read the checkpoint file for the main optimizer.">
<polygon fill="white" stroke="black" points="1711.46,-39 1711.46,-59 1896.54,-59 1896.54,-39 1711.46,-39"/>
<text text-anchor="middle" x="1804" y="-46" font-family="Ubuntu-R" font-size="10.00">forcebalance.optimizer.Optimizer.readchk</text>
</a>
</g>
</g>
<!-- Node31&#45;&gt;Node32 -->
<g id="edge39" class="edge"><title>Node31&#45;&gt;Node32</title>
<path fill="none" stroke="midnightblue" d="M1673.75,-47.1086C1682.71,-47.2397 1691.97,-47.3752 1701.22,-47.5105"/>
<polygon fill="midnightblue" stroke="midnightblue" points="1701.19,-51.0103 1711.24,-47.6571 1701.29,-44.0111 1701.19,-51.0103"/>
</g>
<!-- Node33 -->
<g id="node33" class="node"><title>Node33</title>
<g id="a_node33"><a xlink:href="classforcebalance_1_1optimizer_1_1Optimizer.html#aa7ac7cda43b70ac58ccbd6c8445e88ef" target="_top" xlink:title="Write the checkpoint file for the main optimizer.">
<polygon fill="white" stroke="black" points="1709.79,-0 1709.79,-20 1898.21,-20 1898.21,-0 1709.79,-0"/>
<text text-anchor="middle" x="1804" y="-7" font-family="Ubuntu-R" font-size="10.00">forcebalance.optimizer.Optimizer.writechk</text>
</a>
</g>
</g>
<!-- Node31&#45;&gt;Node33 -->
<g id="edge40" class="edge"><title>Node31&#45;&gt;Node33</title>
<path fill="none" stroke="midnightblue" d="M1673.75,-32.6972C1694.14,-29.1161 1716.06,-25.2683 1735.94,-21.7767"/>
<polygon fill="midnightblue" stroke="midnightblue" points="1736.58,-25.2175 1745.82,-20.0405 1735.37,-18.323 1736.58,-25.2175"/>
</g>
<!-- Node36 -->
<g id="node36" class="node"><title>Node36</title>
<g id="a_node36"><a xlink:href="classforcebalance_1_1optimizer_1_1Optimizer.html#aacf96d137fb0e491af7e380c8bd61eb9" target="_top" xlink:title="Finite&#45;difference checker for the objective function gradient.">
<polygon fill="white" stroke="black" points="1140.28,-158 1140.28,-190 1293.72,-190 1293.72,-158 1140.28,-158"/>
<text text-anchor="start" x="1148.28" y="-177" font-family="Ubuntu-R" font-size="10.00">forcebalance.optimizer.Optimizer.</text>
<text text-anchor="middle" x="1217" y="-165" font-family="Ubuntu-R" font-size="10.00">FDCheckG</text>
</a>
</g>
</g>
<!-- Node35&#45;&gt;Node36 -->
<g id="edge44" class="edge"><title>Node35&#45;&gt;Node36</title>
<path fill="none" stroke="midnightblue" d="M1103.92,-177.577C1112.49,-177.303 1121.27,-177.023 1129.96,-176.746"/>
<polygon fill="midnightblue" stroke="midnightblue" points="1130.21,-180.24 1140.1,-176.422 1129.99,-173.243 1130.21,-180.24"/>
</g>
<!-- Node36&#45;&gt;Node3 -->
<g id="edge45" class="edge"><title>Node36&#45;&gt;Node3</title>
<path fill="none" stroke="midnightblue" d="M1267.97,-190.115C1276.67,-193.012 1285.61,-196.05 1294,-199 1319.65,-208.025 1348.36,-218.806 1370.3,-227.185"/>
<polygon fill="midnightblue" stroke="midnightblue" points="1369.27,-230.54 1379.86,-230.851 1371.78,-224.004 1369.27,-230.54"/>
</g>
<!-- Node36&#45;&gt;Node28 -->
<g id="edge48" class="edge"><title>Node36&#45;&gt;Node28</title>
<path fill="none" stroke="midnightblue" d="M1279.28,-157.948C1295.66,-154.16 1313.42,-150.501 1330,-148 1447.2,-130.323 1477.48,-129 1596,-129 1596,-129 1596,-129 1805,-129 1909.78,-129 2032.09,-127.654 2101.46,-126.766"/>
<polygon fill="midnightblue" stroke="midnightblue" points="2101.76,-130.262 2111.71,-126.633 2101.67,-123.263 2101.76,-130.262"/>
</g>
<!-- Node37 -->
<g id="node37" class="node"><title>Node37</title>
<g id="a_node37"><a xlink:href="namespaceforcebalance_1_1finite__difference.html#a123c5d5dea0f3f50ab57796bb3bc39be" target="_top" xlink:title="A highly accurate five&#45;point finite difference stencil for computing derivatives of a function...">
<polygon fill="white" stroke="black" points="1361.66,-158 1361.66,-190 1452.34,-190 1452.34,-158 1361.66,-158"/>
<text text-anchor="start" x="1369.66" y="-177" font-family="Ubuntu-R" font-size="10.00">forcebalance.finite</text>
<text text-anchor="middle" x="1407" y="-165" font-family="Ubuntu-R" font-size="10.00">_difference.f1d5p</text>
</a>
</g>
</g>
<!-- Node36&#45;&gt;Node37 -->
<g id="edge46" class="edge"><title>Node36&#45;&gt;Node37</title>
<path fill="none" stroke="midnightblue" d="M1293.92,-174C1313.09,-174 1333.3,-174 1351.2,-174"/>
<polygon fill="midnightblue" stroke="midnightblue" points="1351.45,-177.5 1361.45,-174 1351.45,-170.5 1351.45,-177.5"/>
</g>
<!-- Node37&#45;&gt;Node24 -->
<g id="edge47" class="edge"><title>Node37&#45;&gt;Node24</title>
<path fill="none" stroke="midnightblue" d="M1452.55,-174C1479.15,-174 1513.12,-174 1541.33,-174"/>
<polygon fill="midnightblue" stroke="midnightblue" points="1541.44,-177.5 1551.44,-174 1541.44,-170.5 1541.44,-177.5"/>
</g>
<!-- Node38&#45;&gt;Node3 -->
<g id="edge50" class="edge"><title>Node38&#45;&gt;Node3</title>
<path fill="none" stroke="midnightblue" d="M1293.92,-231.462C1306.87,-232.564 1320.29,-233.706 1333.16,-234.801"/>
<polygon fill="midnightblue" stroke="midnightblue" points="1333.07,-238.306 1343.33,-235.667 1333.67,-231.331 1333.07,-238.306"/>
</g>
</g>
</svg>
