<?xml version="1.0" encoding="UTF-8" standalone="no"?>
<!DOCTYPE svg PUBLIC "-//W3C//DTD SVG 1.1//EN"
 "http://www.w3.org/Graphics/SVG/1.1/DTD/svg11.dtd">
<!-- Generated by graphviz version 2.28.0 (20111219.2309)
 -->
<!-- Title: forcebalance.counterpoise.Counterpoise.__init__ Pages: 1 -->
<svg width="340pt" height="136pt"
 viewBox="0.00 0.00 340.00 136.00" xmlns="http://www.w3.org/2000/svg" xmlns:xlink="http://www.w3.org/1999/xlink">
<g id="graph1" class="graph" transform="scale(1 1) rotate(0) translate(4 132)">
<title>forcebalance.counterpoise.Counterpoise.__init__</title>
<polygon fill="white" stroke="white" points="-4,5 -4,-132 337,-132 337,5 -4,5"/>
<!-- Node1 -->
<g id="node1" class="node"><title>Node1</title>
<polygon fill="#bfbfbf" stroke="black" points="0,-49 0,-79 146,-79 146,-49 0,-49"/>
<text text-anchor="start" x="8" y="-67" font-family="Ubuntu-R" font-size="10.00">forcebalance.counterpoise.</text>
<text text-anchor="middle" x="73" y="-56" font-family="Ubuntu-R" font-size="10.00">Counterpoise.__init__</text>
</g>
<!-- Node2 -->
<g id="node3" class="node"><title>Node2</title>
<a xlink:href="classforcebalance_1_1BaseClass.html#a73e9a37a7632e79eb99f49bd15aced45" target="_top" xlink:title="forcebalance.BaseClass.set\l_option">
<polygon fill="white" stroke="black" points="182.5,-98 182.5,-128 331.5,-128 331.5,-98 182.5,-98"/>
<text text-anchor="start" x="190.5" y="-116" font-family="Ubuntu-R" font-size="10.00">forcebalance.BaseClass.set</text>
<text text-anchor="middle" x="257" y="-105" font-family="Ubuntu-R" font-size="10.00">_option</text>
</a>
</g>
<!-- Node1&#45;&gt;Node2 -->
<g id="edge2" class="edge"><title>Node1&#45;&gt;Node2</title>
<path fill="none" stroke="midnightblue" d="M130.091,-79.1014C149.123,-84.2253 170.555,-89.9956 190.269,-95.3032"/>
<polygon fill="midnightblue" stroke="midnightblue" points="189.528,-98.7283 200.094,-97.9484 191.348,-91.969 189.528,-98.7283"/>
</g>
<!-- Node3 -->
<g id="node5" class="node"><title>Node3</title>
<a xlink:href="classforcebalance_1_1counterpoise_1_1Counterpoise.html#a8795bd01b0f62b3f612e4e5c762f96f8" target="_top" xlink:title="Parse an XYZ file which contains several xyz coordinates, and return their elements. ">
<polygon fill="white" stroke="black" points="184,-49 184,-79 330,-79 330,-49 184,-49"/>
<text text-anchor="start" x="192" y="-67" font-family="Ubuntu-R" font-size="10.00">forcebalance.counterpoise.</text>
<text text-anchor="middle" x="257" y="-56" font-family="Ubuntu-R" font-size="10.00">Counterpoise.loadxyz</text>
</a>
</g>
<!-- Node1&#45;&gt;Node3 -->
<g id="edge4" class="edge"><title>Node1&#45;&gt;Node3</title>
<path fill="none" stroke="midnightblue" d="M146.193,-64C155.206,-64 164.477,-64 173.63,-64"/>
<polygon fill="midnightblue" stroke="midnightblue" points="173.895,-67.5001 183.895,-64 173.895,-60.5001 173.895,-67.5001"/>
</g>
<!-- Node4 -->
<g id="node7" class="node"><title>Node4</title>
<a xlink:href="classforcebalance_1_1counterpoise_1_1Counterpoise.html#afdbc053ae726ac5e4066087bcc1039b1" target="_top" xlink:title="Load in the counterpoise data, which is easy; the file consists of floating point numbers separated b...">
<polygon fill="white" stroke="black" points="184,-0 184,-30 330,-30 330,-0 184,-0"/>
<text text-anchor="start" x="192" y="-18" font-family="Ubuntu-R" font-size="10.00">forcebalance.counterpoise.</text>
<text text-anchor="middle" x="257" y="-7" font-family="Ubuntu-R" font-size="10.00">Counterpoise.load_cp</text>
</a>
</g>
<!-- Node1&#45;&gt;Node4 -->
<g id="edge6" class="edge"><title>Node1&#45;&gt;Node4</title>
<path fill="none" stroke="midnightblue" d="M130.091,-48.8986C149.123,-43.7747 170.555,-38.0044 190.269,-32.6968"/>
<polygon fill="midnightblue" stroke="midnightblue" points="191.348,-36.031 200.094,-30.0516 189.528,-29.2717 191.348,-36.031"/>
</g>
</g>
</svg>
