<?xml version="1.0" encoding="UTF-8" standalone="no"?>
<!DOCTYPE svg PUBLIC "-//W3C//DTD SVG 1.1//EN"
 "http://www.w3.org/Graphics/SVG/1.1/DTD/svg11.dtd">
<!-- Generated by graphviz version 2.26.3 (20100126.1600)
 -->
<!-- Title: forcebalance.target.Target.wq_complete Pages: 1 -->
<svg width="1886pt" height="200pt"
 viewBox="0.00 0.00 1886.00 200.00" xmlns="http://www.w3.org/2000/svg" xmlns:xlink="http://www.w3.org/1999/xlink">
<g id="graph1" class="graph" transform="scale(1 1) rotate(0) translate(4 196)">
<title>forcebalance.target.Target.wq_complete</title>
<polygon fill="white" stroke="white" points="-4,5 -4,-196 1883,-196 1883,5 -4,5"/>
<!-- Node1 -->
<g id="node1" class="node"><title>Node1</title>
<polygon fill="#bfbfbf" stroke="black" points="0,-51 0,-85 158,-85 158,-51 0,-51"/>
<text text-anchor="start" x="8" y="-72" font-family="Ubuntu-R" font-size="10.00">forcebalance.target.Target.wq</text>
<text text-anchor="middle" x="79" y="-59" font-family="Ubuntu-R" font-size="10.00">_complete</text>
</g>
<!-- Node2 -->
<g id="node3" class="node"><title>Node2</title>
<a xlink:href="namespaceforcebalance_1_1nifty.html#a374aac2ef003be02fab49b20ff0a82f0" target="_top" xlink:title="This function waits ten seconds to see if a task in the Work Queue has finished.">
<polygon fill="white" stroke="black" points="229.5,-86 229.5,-120 344.5,-120 344.5,-86 229.5,-86"/>
<text text-anchor="start" x="237.5" y="-107" font-family="Ubuntu-R" font-size="10.00">forcebalance.nifty.wq</text>
<text text-anchor="middle" x="287" y="-94" font-family="Ubuntu-R" font-size="10.00">_wait1</text>
</a>
</g>
<!-- Node1&#45;&gt;Node2 -->
<g id="edge2" class="edge"><title>Node1&#45;&gt;Node2</title>
<path fill="none" stroke="midnightblue" d="M158.229,-81.3318C178.369,-84.7207 199.824,-88.331 219.329,-91.6131"/>
<polygon fill="midnightblue" stroke="midnightblue" points="218.892,-95.0887 229.334,-93.2967 220.054,-88.1857 218.892,-95.0887"/>
</g>
<!-- Node9 -->
<g id="node18" class="node"><title>Node9</title>
<a xlink:href="classforcebalance_1_1target_1_1Target.html#ac30a4e9d7d9fe06f7caefa5f7cfab09b" target="_top" xlink:title="Print target information in an organized table format.">
<polygon fill="white" stroke="black" points="194,-17 194,-51 380,-51 380,-17 194,-17"/>
<text text-anchor="start" x="202" y="-38" font-family="Ubuntu-R" font-size="10.00">forcebalance.target.Target.printcool</text>
<text text-anchor="middle" x="287" y="-25" font-family="Ubuntu-R" font-size="10.00">_table</text>
</a>
</g>
<!-- Node1&#45;&gt;Node9 -->
<g id="edge18" class="edge"><title>Node1&#45;&gt;Node9</title>
<path fill="none" stroke="midnightblue" d="M158.229,-55.0491C166.563,-53.6867 175.123,-52.2876 183.676,-50.8894"/>
<polygon fill="midnightblue" stroke="midnightblue" points="184.396,-54.3183 193.701,-49.2508 183.267,-47.41 184.396,-54.3183"/>
</g>
<!-- Node3 -->
<g id="node5" class="node"><title>Node3</title>
<a xlink:href="namespaceforcebalance_1_1nifty.html#a576de8c5b6f236280e07e73e39b2ab7c" target="_top" xlink:title="This function waits until the work queue is completely empty.">
<polygon fill="white" stroke="black" points="418.5,-92.5 418.5,-113.5 557.5,-113.5 557.5,-92.5 418.5,-92.5"/>
<text text-anchor="middle" x="488" y="-100.5" font-family="Ubuntu-R" font-size="10.00">forcebalance.nifty.wq_wait</text>
</a>
</g>
<!-- Node2&#45;&gt;Node3 -->
<g id="edge4" class="edge"><title>Node2&#45;&gt;Node3</title>
<path fill="none" stroke="midnightblue" d="M344.599,-103C364.338,-103 386.795,-103 407.984,-103"/>
<polygon fill="midnightblue" stroke="midnightblue" points="408.266,-106.5 418.266,-103 408.266,-99.5001 408.266,-106.5"/>
</g>
<!-- Node4 -->
<g id="node7" class="node"><title>Node4</title>
<a xlink:href="namespaceforcebalance_1_1nifty.html#ac9ab6c5543a2e3080061e0024850edf3" target="_top" xlink:title="forcebalance.nifty.allsplit">
<polygon fill="white" stroke="black" points="596,-111.5 596,-132.5 728,-132.5 728,-111.5 596,-111.5"/>
<text text-anchor="middle" x="662" y="-119.5" font-family="Ubuntu-R" font-size="10.00">forcebalance.nifty.allsplit</text>
</a>
</g>
<!-- Node2&#45;&gt;Node4 -->
<g id="edge14" class="edge"><title>Node2&#45;&gt;Node4</title>
<path fill="none" stroke="midnightblue" d="M344.574,-113.864C366.803,-117.549 392.5,-121.189 416,-123 479.811,-127.917 496.001,-123.314 560,-123 568.337,-122.959 577.057,-122.899 585.738,-122.829"/>
<polygon fill="midnightblue" stroke="midnightblue" points="585.915,-126.328 595.884,-122.743 585.855,-119.328 585.915,-126.328"/>
</g>
<!-- Node7 -->
<g id="node13" class="node"><title>Node7</title>
<a xlink:href="namespaceforcebalance_1_1nifty.html#ad432b88307e1178b0690c0d350b1af36" target="_top" xlink:title="forcebalance.nifty.GoInto">
<polygon fill="white" stroke="black" points="421,-52.5 421,-73.5 555,-73.5 555,-52.5 421,-52.5"/>
<text text-anchor="middle" x="488" y="-60.5" font-family="Ubuntu-R" font-size="10.00">forcebalance.nifty.GoInto</text>
</a>
</g>
<!-- Node2&#45;&gt;Node7 -->
<g id="edge12" class="edge"><title>Node2&#45;&gt;Node7</title>
<path fill="none" stroke="midnightblue" d="M344.599,-91.5376C369.792,-86.524 399.413,-80.6293 425.173,-75.5029"/>
<polygon fill="midnightblue" stroke="midnightblue" points="426.084,-78.8904 435.208,-73.5059 424.717,-72.025 426.084,-78.8904"/>
</g>
<!-- Node8 -->
<g id="node16" class="node"><title>Node8</title>
<a xlink:href="namespaceforcebalance_1_1nifty.html#ab04e8690d099db2379dc860e0d040120" target="_top" xlink:title="forcebalance.nifty.Leave">
<polygon fill="white" stroke="black" points="422.5,-170.5 422.5,-191.5 553.5,-191.5 553.5,-170.5 422.5,-170.5"/>
<text text-anchor="middle" x="488" y="-178.5" font-family="Ubuntu-R" font-size="10.00">forcebalance.nifty.Leave</text>
</a>
</g>
<!-- Node2&#45;&gt;Node8 -->
<g id="edge16" class="edge"><title>Node2&#45;&gt;Node8</title>
<path fill="none" stroke="midnightblue" d="M326.866,-120.05C352.242,-130.735 385.885,-144.595 416,-156 425.94,-159.764 436.731,-163.628 446.861,-167.158"/>
<polygon fill="midnightblue" stroke="midnightblue" points="445.725,-170.468 456.32,-170.425 448.011,-163.852 445.725,-170.468"/>
</g>
<!-- Node3&#45;&gt;Node4 -->
<g id="edge6" class="edge"><title>Node3&#45;&gt;Node4</title>
<path fill="none" stroke="midnightblue" d="M557.52,-110.591C566.835,-111.608 576.429,-112.656 585.85,-113.685"/>
<polygon fill="midnightblue" stroke="midnightblue" points="585.664,-117.185 595.984,-114.791 586.424,-110.227 585.664,-117.185"/>
</g>
<!-- Node5 -->
<g id="node9" class="node"><title>Node5</title>
<a xlink:href="namespaceforcebalance_1_1nifty.html#ae87c7def5f8edf2ec30737bdb1d2636f" target="_top" xlink:title="forcebalance.nifty.Missing\lFileInspection">
<polygon fill="white" stroke="black" points="769,-105 769,-139 907,-139 907,-105 769,-105"/>
<text text-anchor="start" x="777" y="-126" font-family="Ubuntu-R" font-size="10.00">forcebalance.nifty.Missing</text>
<text text-anchor="middle" x="838" y="-113" font-family="Ubuntu-R" font-size="10.00">FileInspection</text>
</a>
</g>
<!-- Node4&#45;&gt;Node5 -->
<g id="edge8" class="edge"><title>Node4&#45;&gt;Node5</title>
<path fill="none" stroke="midnightblue" d="M728.037,-122C738.059,-122 748.487,-122 758.755,-122"/>
<polygon fill="midnightblue" stroke="midnightblue" points="758.948,-125.5 768.948,-122 758.948,-118.5 758.948,-125.5"/>
</g>
<!-- Node6 -->
<g id="node11" class="node"><title>Node6</title>
<a xlink:href="namespaceforcebalance_1_1nifty.html#a0cf4e58f90acf20e3d6224be2354082c" target="_top" xlink:title="forcebalance.nifty.link\l_dir_contents">
<polygon fill="white" stroke="black" points="955,-105 955,-139 1073,-139 1073,-105 955,-105"/>
<text text-anchor="start" x="963" y="-126" font-family="Ubuntu-R" font-size="10.00">forcebalance.nifty.link</text>
<text text-anchor="middle" x="1014" y="-113" font-family="Ubuntu-R" font-size="10.00">_dir_contents</text>
</a>
</g>
<!-- Node5&#45;&gt;Node6 -->
<g id="edge10" class="edge"><title>Node5&#45;&gt;Node6</title>
<path fill="none" stroke="midnightblue" d="M907.055,-122C919.394,-122 932.254,-122 944.603,-122"/>
<polygon fill="midnightblue" stroke="midnightblue" points="944.832,-125.5 954.832,-122 944.832,-118.5 944.832,-125.5"/>
</g>
<!-- Node10 -->
<g id="node20" class="node"><title>Node10</title>
<a xlink:href="namespaceforcebalance_1_1nifty.html#a51180e960742cc7547749fdfb3513ec4" target="_top" xlink:title="See documentation for printcool; this is a nice way to print out keys/values in a dictionary...">
<polygon fill="white" stroke="black" points="416,-0 416,-34 560,-34 560,-0 416,-0"/>
<text text-anchor="start" x="424" y="-21" font-family="Ubuntu-R" font-size="10.00">forcebalance.nifty.printcool</text>
<text text-anchor="middle" x="488" y="-8" font-family="Ubuntu-R" font-size="10.00">_dictionary</text>
</a>
</g>
<!-- Node9&#45;&gt;Node10 -->
<g id="edge20" class="edge"><title>Node9&#45;&gt;Node10</title>
<path fill="none" stroke="midnightblue" d="M380.145,-26.1221C388.687,-25.3996 397.3,-24.6712 405.736,-23.9577"/>
<polygon fill="midnightblue" stroke="midnightblue" points="406.251,-27.4267 415.921,-23.0963 405.661,-20.4516 406.251,-27.4267"/>
</g>
<!-- Node11 -->
<g id="node22" class="node"><title>Node11</title>
<a xlink:href="namespaceforcebalance_1_1nifty.html#a3f1c7a1af9d35d5d1693074bc6f5497c" target="_top" xlink:title="ONLY matches integers! If you have a decimal point? None shall pass!">
<polygon fill="white" stroke="black" points="601,-26.5 601,-47.5 723,-47.5 723,-26.5 601,-26.5"/>
<text text-anchor="middle" x="662" y="-34.5" font-family="Ubuntu-R" font-size="10.00">forcebalance.nifty.isint</text>
</a>
</g>
<!-- Node10&#45;&gt;Node11 -->
<g id="edge22" class="edge"><title>Node10&#45;&gt;Node11</title>
<path fill="none" stroke="midnightblue" d="M560.028,-25.2791C570.196,-26.4478 580.645,-27.6488 590.796,-28.8157"/>
<polygon fill="midnightblue" stroke="midnightblue" points="590.493,-32.3038 600.828,-29.9687 591.293,-25.3496 590.493,-32.3038"/>
</g>
<!-- Node13 -->
<g id="node26" class="node"><title>Node13</title>
<a xlink:href="namespaceforcebalance_1_1nifty.html#a8e3ef0108b9d37b82ba0dced7c6037ae" target="_top" xlink:title="Matches ANY number; it can be a decimal, scientific notation, what have you CAUTION &#45; this will also ...">
<polygon fill="white" stroke="black" points="948.5,-23.5 948.5,-44.5 1079.5,-44.5 1079.5,-23.5 948.5,-23.5"/>
<text text-anchor="middle" x="1014" y="-31.5" font-family="Ubuntu-R" font-size="10.00">forcebalance.nifty.isfloat</text>
</a>
</g>
<!-- Node10&#45;&gt;Node13 -->
<g id="edge52" class="edge"><title>Node10&#45;&gt;Node13</title>
<path fill="none" stroke="midnightblue" d="M560.219,-15.8836C607.872,-15.4221 671.671,-15.3274 728,-17 799.409,-19.1204 880.715,-24.2126 938.335,-28.2745"/>
<polygon fill="midnightblue" stroke="midnightblue" points="938.227,-31.7756 948.45,-28.9942 938.724,-24.7933 938.227,-31.7756"/>
</g>
<!-- Node12 -->
<g id="node24" class="node"><title>Node12</title>
<a xlink:href="namespaceforcebalance_1_1nifty.html#a09263927eaec9deff283fbf1a820242f" target="_top" xlink:title="Matches things with a decimal only; see isint and isfloat.">
<polygon fill="white" stroke="black" points="764.5,-64.5 764.5,-85.5 911.5,-85.5 911.5,-64.5 764.5,-64.5"/>
<text text-anchor="middle" x="838" y="-72.5" font-family="Ubuntu-R" font-size="10.00">forcebalance.nifty.isdecimal</text>
</a>
</g>
<!-- Node11&#45;&gt;Node12 -->
<g id="edge24" class="edge"><title>Node11&#45;&gt;Node12</title>
<path fill="none" stroke="midnightblue" d="M711.026,-47.5851C732.195,-52.1557 757.135,-57.5404 779.282,-62.3222"/>
<polygon fill="midnightblue" stroke="midnightblue" points="778.724,-65.7823 789.237,-64.4716 780.201,-58.9399 778.724,-65.7823"/>
</g>
<!-- Node12&#45;&gt;Node13 -->
<g id="edge26" class="edge"><title>Node12&#45;&gt;Node13</title>
<path fill="none" stroke="midnightblue" d="M883.324,-64.4415C906.42,-59.0613 934.69,-52.4757 959.021,-46.8077"/>
<polygon fill="midnightblue" stroke="midnightblue" points="959.884,-50.2003 968.829,-44.5227 958.296,-43.3829 959.884,-50.2003"/>
</g>
<!-- Node17 -->
<g id="node35" class="node"><title>Node17</title>
<a xlink:href="namespaceforcebalance_1_1nifty.html#afb3f205bce4984856e766af7e9fdaca8" target="_top" xlink:title="Given any list, array, or matrix, return a 1&#45;column matrix.">
<polygon fill="white" stroke="black" points="956,-64.5 956,-85.5 1072,-85.5 1072,-64.5 956,-64.5"/>
<text text-anchor="middle" x="1014" y="-72.5" font-family="Ubuntu-R" font-size="10.00">forcebalance.nifty.col</text>
</a>
</g>
<!-- Node12&#45;&gt;Node17 -->
<g id="edge36" class="edge"><title>Node12&#45;&gt;Node17</title>
<path fill="none" stroke="midnightblue" d="M911.62,-75C922.943,-75 934.592,-75 945.79,-75"/>
<polygon fill="midnightblue" stroke="midnightblue" points="945.925,-78.5001 955.925,-75 945.925,-71.5001 945.925,-78.5001"/>
</g>
<!-- Node13&#45;&gt;Node11 -->
<g id="edge28" class="edge"><title>Node13&#45;&gt;Node11</title>
<path fill="none" stroke="midnightblue" d="M948.314,-34.5598C887.232,-35.0804 796.447,-35.8541 733.549,-36.3902"/>
<polygon fill="midnightblue" stroke="midnightblue" points="733.283,-32.8922 723.314,-36.4774 733.343,-39.892 733.283,-32.8922"/>
</g>
<!-- Node14 -->
<g id="node29" class="node"><title>Node14</title>
<a xlink:href="namespaceforcebalance_1_1nifty.html#a8d63c8ae9a67c66673a6cf81357f827d" target="_top" xlink:title="Returns a big number if we encounter NaN.">
<polygon fill="white" stroke="black" points="1116.5,-20.5 1116.5,-41.5 1267.5,-41.5 1267.5,-20.5 1116.5,-20.5"/>
<text text-anchor="middle" x="1192" y="-28.5" font-family="Ubuntu-R" font-size="10.00">forcebalance.nifty.floatornan</text>
</a>
</g>
<!-- Node13&#45;&gt;Node14 -->
<g id="edge30" class="edge"><title>Node13&#45;&gt;Node14</title>
<path fill="none" stroke="midnightblue" d="M1079.52,-32.8957C1088.24,-32.7488 1097.28,-32.5965 1106.27,-32.4449"/>
<polygon fill="midnightblue" stroke="midnightblue" points="1106.44,-35.9425 1116.38,-32.2744 1106.33,-28.9435 1106.44,-35.9425"/>
</g>
<!-- Node15 -->
<g id="node31" class="node"><title>Node15</title>
<a xlink:href="namespaceforcebalance_1_1nifty.html#a6c9727360cdff8f3011a12cc54d0e86e" target="_top" xlink:title="Given any list, array, or matrix, return a 1&#45;row matrix.">
<polygon fill="white" stroke="black" points="1320.5,-19.5 1320.5,-40.5 1439.5,-40.5 1439.5,-19.5 1320.5,-19.5"/>
<text text-anchor="middle" x="1380" y="-27.5" font-family="Ubuntu-R" font-size="10.00">forcebalance.nifty.row</text>
</a>
</g>
<!-- Node14&#45;&gt;Node15 -->
<g id="edge32" class="edge"><title>Node14&#45;&gt;Node15</title>
<path fill="none" stroke="midnightblue" d="M1267.65,-30.5976C1281.64,-30.5232 1296.19,-30.4458 1310,-30.3724"/>
<polygon fill="midnightblue" stroke="midnightblue" points="1310.41,-33.8703 1320.39,-30.3171 1310.37,-26.8704 1310.41,-33.8703"/>
</g>
<!-- Node16 -->
<g id="node33" class="node"><title>Node16</title>
<a xlink:href="namespaceforcebalance_1_1nifty.html#a7676236002c6a65ea7d2e69a09923889" target="_top" xlink:title="Given two vectors vec1 and vec2, project out the component of vec1 that is along the vec2&#45;direction...">
<polygon fill="white" stroke="black" points="1492,-17.5 1492,-38.5 1660,-38.5 1660,-17.5 1492,-17.5"/>
<text text-anchor="middle" x="1576" y="-25.5" font-family="Ubuntu-R" font-size="10.00">forcebalance.nifty.orthogonalize</text>
</a>
</g>
<!-- Node15&#45;&gt;Node16 -->
<g id="edge34" class="edge"><title>Node15&#45;&gt;Node16</title>
<path fill="none" stroke="midnightblue" d="M1439.6,-29.3918C1452.84,-29.2568 1467.18,-29.1104 1481.42,-28.9651"/>
<polygon fill="midnightblue" stroke="midnightblue" points="1481.8,-32.4615 1491.76,-28.8596 1481.72,-25.4619 1481.8,-32.4615"/>
</g>
<!-- Node18 -->
<g id="node37" class="node"><title>Node18</title>
<a xlink:href="namespaceforcebalance_1_1nifty.html#a52114ceee9d55f94d9aecb3e176de294" target="_top" xlink:title="Given any list, array, or matrix, return a single&#45;index array.">
<polygon fill="white" stroke="black" points="1133.5,-103.5 1133.5,-124.5 1250.5,-124.5 1250.5,-103.5 1133.5,-103.5"/>
<text text-anchor="middle" x="1192" y="-111.5" font-family="Ubuntu-R" font-size="10.00">forcebalance.nifty.flat</text>
</a>
</g>
<!-- Node17&#45;&gt;Node18 -->
<g id="edge38" class="edge"><title>Node17&#45;&gt;Node18</title>
<path fill="none" stroke="midnightblue" d="M1062.17,-85.554C1084.23,-90.388 1110.57,-96.1586 1133.74,-101.235"/>
<polygon fill="midnightblue" stroke="midnightblue" points="1133.27,-104.716 1143.79,-103.438 1134.77,-97.8784 1133.27,-104.716"/>
</g>
<!-- Node19 -->
<g id="node39" class="node"><title>Node19</title>
<a xlink:href="namespaceforcebalance_1_1nifty.html#a4c82187e92dfeb8a159f4aa44b501c40" target="_top" xlink:title="Invert a matrix using singular value decomposition.">
<polygon fill="white" stroke="black" points="1304.5,-66.5 1304.5,-87.5 1455.5,-87.5 1455.5,-66.5 1304.5,-66.5"/>
<text text-anchor="middle" x="1380" y="-74.5" font-family="Ubuntu-R" font-size="10.00">forcebalance.nifty.invert_svd</text>
</a>
</g>
<!-- Node18&#45;&gt;Node19 -->
<g id="edge40" class="edge"><title>Node18&#45;&gt;Node19</title>
<path fill="none" stroke="midnightblue" d="M1245.37,-103.496C1267.5,-99.1413 1293.35,-94.0544 1316.44,-89.5085"/>
<polygon fill="midnightblue" stroke="midnightblue" points="1317.36,-92.8953 1326.5,-87.53 1316.01,-86.027 1317.36,-92.8953"/>
</g>
<!-- Node19&#45;&gt;Node17 -->
<g id="edge46" class="edge"><title>Node19&#45;&gt;Node17</title>
<path fill="none" stroke="midnightblue" d="M1304.35,-76.5866C1239.13,-76.2302 1145.75,-75.7199 1082.65,-75.3751"/>
<polygon fill="midnightblue" stroke="midnightblue" points="1082.42,-71.8739 1072.4,-75.3191 1082.38,-78.8738 1082.42,-71.8739"/>
</g>
<!-- Node20 -->
<g id="node41" class="node"><title>Node20</title>
<a xlink:href="namespaceforcebalance_1_1nifty.html#aa9fb9c7c65231eca50a7afc04f489b64" target="_top" xlink:title="forcebalance.nifty.get\l_least_squares">
<polygon fill="white" stroke="black" points="1517,-109 1517,-143 1635,-143 1635,-109 1517,-109"/>
<text text-anchor="start" x="1525" y="-130" font-family="Ubuntu-R" font-size="10.00">forcebalance.nifty.get</text>
<text text-anchor="middle" x="1576" y="-117" font-family="Ubuntu-R" font-size="10.00">_least_squares</text>
</a>
</g>
<!-- Node19&#45;&gt;Node20 -->
<g id="edge42" class="edge"><title>Node19&#45;&gt;Node20</title>
<path fill="none" stroke="midnightblue" d="M1422.05,-87.5117C1446.8,-93.6998 1478.71,-101.678 1507.06,-108.765"/>
<polygon fill="midnightblue" stroke="midnightblue" points="1506.37,-112.2 1516.92,-111.23 1508.07,-105.409 1506.37,-112.2"/>
</g>
<!-- Node21 -->
<g id="node45" class="node"><title>Node21</title>
<a xlink:href="namespaceforcebalance_1_1nifty.html#abb8f59044961a12588e0653c2baa8b01" target="_top" xlink:title="forcebalance.nifty.warn\l_press_key">
<polygon fill="white" stroke="black" points="1513.5,-57 1513.5,-91 1638.5,-91 1638.5,-57 1513.5,-57"/>
<text text-anchor="start" x="1521.5" y="-78" font-family="Ubuntu-R" font-size="10.00">forcebalance.nifty.warn</text>
<text text-anchor="middle" x="1576" y="-65" font-family="Ubuntu-R" font-size="10.00">_press_key</text>
</a>
</g>
<!-- Node19&#45;&gt;Node21 -->
<g id="edge48" class="edge"><title>Node19&#45;&gt;Node21</title>
<path fill="none" stroke="midnightblue" d="M1455.78,-75.8401C1471.42,-75.6007 1487.86,-75.3491 1503.38,-75.1115"/>
<polygon fill="midnightblue" stroke="midnightblue" points="1503.49,-78.6103 1513.44,-74.9576 1503.38,-71.6112 1503.49,-78.6103"/>
</g>
<!-- Node20&#45;&gt;Node18 -->
<g id="edge44" class="edge"><title>Node20&#45;&gt;Node18</title>
<path fill="none" stroke="midnightblue" d="M1516.95,-124.155C1447.89,-121.997 1333.75,-118.43 1260.76,-116.149"/>
<polygon fill="midnightblue" stroke="midnightblue" points="1260.84,-112.65 1250.74,-115.836 1260.63,-119.646 1260.84,-112.65"/>
</g>
<!-- Node22 -->
<g id="node47" class="node"><title>Node22</title>
<a xlink:href="namespaceforcebalance_1_1nifty.html#a2fc81730e7efa7d138dd86f733507bfc" target="_top" xlink:title="Similar to the bultin function map().">
<polygon fill="white" stroke="black" points="1696.5,-63.5 1696.5,-84.5 1877.5,-84.5 1877.5,-63.5 1696.5,-63.5"/>
<text text-anchor="middle" x="1787" y="-71.5" font-family="Ubuntu-R" font-size="10.00">forcebalance.nifty.concurrent_map</text>
</a>
</g>
<!-- Node21&#45;&gt;Node22 -->
<g id="edge50" class="edge"><title>Node21&#45;&gt;Node22</title>
<path fill="none" stroke="midnightblue" d="M1638.74,-74C1653.72,-74 1670.1,-74 1686.32,-74"/>
<polygon fill="midnightblue" stroke="midnightblue" points="1686.39,-77.5001 1696.39,-74 1686.39,-70.5001 1686.39,-77.5001"/>
</g>
</g>
</svg>
