<?xml version="1.0" encoding="UTF-8" standalone="no"?>
<!DOCTYPE svg PUBLIC "-//W3C//DTD SVG 1.1//EN"
 "http://www.w3.org/Graphics/SVG/1.1/DTD/svg11.dtd">
<!-- Generated by graphviz version 2.28.0 (20111219.2309)
 -->
<!-- Title: G Pages: 1 -->
<svg width="1178pt" height="85pt"
 viewBox="0.00 0.00 1178.00 85.00" xmlns="http://www.w3.org/2000/svg" xmlns:xlink="http://www.w3.org/1999/xlink">
<g id="graph1" class="graph" transform="scale(1 1) rotate(0) translate(4 81)">
<title>G</title>
<polygon fill="white" stroke="white" points="-4,5 -4,-81 1175,-81 1175,5 -4,5"/>
<!-- Node1 -->
<g id="node1" class="node"><title>Node1</title>
<polygon fill="#bfbfbf" stroke="black" points="0.5,-19.5 0.5,-38.5 215.5,-38.5 215.5,-19.5 0.5,-19.5"/>
<text text-anchor="middle" x="108" y="-26.5" font-family="Ubuntu-R" font-size="10.00">forcebalance.abinitio.AbInitio.build_invdist</text>
</g>
<!-- Node2 -->
<g id="node3" class="node"><title>Node2</title>
<a xlink:href="classforcebalance_1_1gmxio_1_1AbInitio__GMX.html#ae17e3c379d82935d725dd31f01df23e5" target="_top" xlink:title="Call mdrun in order to update the virtual site positions.">
<polygon fill="white" stroke="black" points="252,-38.5 252,-57.5 550,-57.5 550,-38.5 252,-38.5"/>
<text text-anchor="middle" x="401" y="-45.5" font-family="Ubuntu-R" font-size="10.00">forcebalance.gmxio.AbInitio_GMX.generate_vsite_positions</text>
</a>
</g>
<!-- Node1&#45;&gt;Node2 -->
<g id="edge2" class="edge"><title>Node1&#45;&gt;Node2</title>
<path fill="none" stroke="midnightblue" d="M215.705,-35.967C225.035,-36.5762 234.595,-37.2004 244.215,-37.8285"/>
<polygon fill="midnightblue" stroke="midnightblue" points="244.048,-41.325 254.255,-38.484 244.505,-34.3398 244.048,-41.325"/>
</g>
<!-- Node6 -->
<g id="node11" class="node"><title>Node6</title>
<a xlink:href="classforcebalance_1_1abinitio_1_1AbInitio.html#afbf86c26158a68cae7460b4106809fdd" target="_top" xlink:title="forcebalance.abinitio.AbInitio.compute_netforce_torque">
<polygon fill="white" stroke="black" points="260.5,-0.5 260.5,-19.5 541.5,-19.5 541.5,-0.5 260.5,-0.5"/>
<text text-anchor="middle" x="401" y="-7.5" font-family="Ubuntu-R" font-size="10.00">forcebalance.abinitio.AbInitio.compute_netforce_torque</text>
</a>
</g>
<!-- Node1&#45;&gt;Node6 -->
<g id="edge10" class="edge"><title>Node1&#45;&gt;Node6</title>
<path fill="none" stroke="midnightblue" d="M215.705,-22.033C226.934,-21.2999 238.495,-20.545 250.093,-19.7877"/>
<polygon fill="midnightblue" stroke="midnightblue" points="250.538,-23.2663 260.288,-19.1221 250.081,-16.2811 250.538,-23.2663"/>
</g>
<!-- Node3 -->
<g id="node5" class="node"><title>Node3</title>
<a xlink:href="classforcebalance_1_1gmxio_1_1AbInitio__GMX.html#a1d03ae8104bcecacf96884058f2698af" target="_top" xlink:title="Initialization; define a few core concepts.">
<polygon fill="white" stroke="black" points="629,-57.5 629,-76.5 843,-76.5 843,-57.5 629,-57.5"/>
<text text-anchor="middle" x="736" y="-64.5" font-family="Ubuntu-R" font-size="10.00">forcebalance.gmxio.AbInitio_GMX.__init__</text>
</a>
</g>
<!-- Node2&#45;&gt;Node3 -->
<g id="edge4" class="edge"><title>Node2&#45;&gt;Node3</title>
<path fill="none" stroke="midnightblue" d="M550.483,-56.472C573.344,-57.7764 596.664,-59.107 618.691,-60.3637"/>
<polygon fill="midnightblue" stroke="midnightblue" points="618.531,-63.8602 628.714,-60.9356 618.93,-56.8716 618.531,-63.8602"/>
</g>
<!-- Node5 -->
<g id="node9" class="node"><title>Node5</title>
<a xlink:href="classforcebalance_1_1baseclass_1_1ForceBalanceBaseClass.html#abaaf4d99b043d41f02fabc41db59252b" target="_top" xlink:title="forcebalance.baseclass.ForceBalanceBaseClass.set_option">
<polygon fill="white" stroke="black" points="586.5,-19.5 586.5,-38.5 885.5,-38.5 885.5,-19.5 586.5,-19.5"/>
<text text-anchor="middle" x="736" y="-26.5" font-family="Ubuntu-R" font-size="10.00">forcebalance.baseclass.ForceBalanceBaseClass.set_option</text>
</a>
</g>
<!-- Node2&#45;&gt;Node5 -->
<g id="edge8" class="edge"><title>Node2&#45;&gt;Node5</title>
<path fill="none" stroke="midnightblue" d="M550.483,-39.528C559.022,-39.0408 567.625,-38.5499 576.201,-38.0606"/>
<polygon fill="midnightblue" stroke="midnightblue" points="576.466,-41.5513 586.25,-37.4872 576.067,-34.5627 576.466,-41.5513"/>
</g>
<!-- Node4 -->
<g id="node7" class="node"><title>Node4</title>
<a xlink:href="classforcebalance_1_1gmxio_1_1AbInitio__GMX.html#aba138ca4195a1737f2f00bd8c5f3ca07" target="_top" xlink:title="This function parses the GROMACS topology file (.top) which contains a listing of the molecules in th...">
<polygon fill="white" stroke="black" points="922.5,-57.5 922.5,-76.5 1169.5,-76.5 1169.5,-57.5 922.5,-57.5"/>
<text text-anchor="middle" x="1046" y="-64.5" font-family="Ubuntu-R" font-size="10.00">forcebalance.gmxio.AbInitio_GMX.read_topology</text>
</a>
</g>
<!-- Node3&#45;&gt;Node4 -->
<g id="edge6" class="edge"><title>Node3&#45;&gt;Node4</title>
<path fill="none" stroke="midnightblue" d="M843.427,-67C865.617,-67 889.268,-67 912.273,-67"/>
<polygon fill="midnightblue" stroke="midnightblue" points="912.437,-70.5001 922.437,-67 912.437,-63.5001 912.437,-70.5001"/>
</g>
</g>
</svg>
