<?xml version="1.0" encoding="UTF-8" standalone="no"?>
<!DOCTYPE svg PUBLIC "-//W3C//DTD SVG 1.1//EN"
 "http://www.w3.org/Graphics/SVG/1.1/DTD/svg11.dtd">
<!-- Generated by graphviz version 2.28.0 (20111219.2309)
 -->
<!-- Title: forcebalance.gmxio.GMX.energy_force_driver_all Pages: 1 -->
<svg width="1084pt" height="131pt"
 viewBox="0.00 0.00 1084.00 131.00" xmlns="http://www.w3.org/2000/svg" xmlns:xlink="http://www.w3.org/1999/xlink">
<g id="graph1" class="graph" transform="scale(1 1) rotate(0) translate(4 127)">
<title>forcebalance.gmxio.GMX.energy_force_driver_all</title>
<polygon fill="white" stroke="white" points="-4,5 -4,-127 1081,-127 1081,5 -4,5"/>
<!-- Node1 -->
<g id="node1" class="node"><title>Node1</title>
<polygon fill="#bfbfbf" stroke="black" points="0.5,-22 0.5,-52 171.5,-52 171.5,-22 0.5,-22"/>
<text text-anchor="start" x="8.5" y="-40" font-family="Ubuntu-R" font-size="10.00">forcebalance.gmxio.GMX.energy</text>
<text text-anchor="middle" x="86" y="-29" font-family="Ubuntu-R" font-size="10.00">_force_driver_all</text>
</g>
<!-- Node2 -->
<g id="node3" class="node"><title>Node2</title>
<a xlink:href="classforcebalance_1_1gmxio_1_1GMX.html#aea0f6d954e7042b70221a55e600f89a5" target="_top" xlink:title="forcebalance.gmxio.GMX.generate\l_vsite_positions">
<polygon fill="white" stroke="black" points="208,-44 208,-74 390,-74 390,-44 208,-44"/>
<text text-anchor="start" x="216" y="-62" font-family="Ubuntu-R" font-size="10.00">forcebalance.gmxio.GMX.generate</text>
<text text-anchor="middle" x="299" y="-51" font-family="Ubuntu-R" font-size="10.00">_vsite_positions</text>
</a>
</g>
<!-- Node1&#45;&gt;Node2 -->
<g id="edge2" class="edge"><title>Node1&#45;&gt;Node2</title>
<path fill="none" stroke="midnightblue" d="M171.606,-45.8215C180.176,-46.7151 188.938,-47.6286 197.653,-48.5373"/>
<polygon fill="midnightblue" stroke="midnightblue" points="197.538,-52.0442 207.848,-49.6002 198.264,-45.082 197.538,-52.0442"/>
</g>
<!-- Node7 -->
<g id="node13" class="node"><title>Node7</title>
<a xlink:href="classforcebalance_1_1gmxio_1_1GMX.html#a4e472c27d2c244c9ad6edb5b35f46a75" target="_top" xlink:title="Call GROMACS; prepend the gmxpath to the call to the GROMACS program. ">
<polygon fill="white" stroke="black" points="211.5,-5.5 211.5,-24.5 386.5,-24.5 386.5,-5.5 211.5,-5.5"/>
<text text-anchor="middle" x="299" y="-12.5" font-family="Ubuntu-R" font-size="10.00">forcebalance.gmxio.GMX.callgmx</text>
</a>
</g>
<!-- Node1&#45;&gt;Node7 -->
<g id="edge12" class="edge"><title>Node1&#45;&gt;Node7</title>
<path fill="none" stroke="midnightblue" d="M171.606,-28.1785C181.307,-27.1671 191.253,-26.13 201.098,-25.1035"/>
<polygon fill="midnightblue" stroke="midnightblue" points="201.725,-28.5573 211.308,-24.039 200.999,-21.595 201.725,-28.5573"/>
</g>
<!-- Node3 -->
<g id="node5" class="node"><title>Node3</title>
<a xlink:href="classforcebalance_1_1gmxio_1_1GMX.html#a4d5f9e8fb40a37a4c22551d2f30418f4" target="_top" xlink:title="forcebalance.gmxio.GMX.\l__init__">
<polygon fill="white" stroke="black" points="452,-93 452,-123 590,-123 590,-93 452,-93"/>
<text text-anchor="start" x="460" y="-111" font-family="Ubuntu-R" font-size="10.00">forcebalance.gmxio.GMX.</text>
<text text-anchor="middle" x="521" y="-100" font-family="Ubuntu-R" font-size="10.00">__init__</text>
</a>
</g>
<!-- Node2&#45;&gt;Node3 -->
<g id="edge4" class="edge"><title>Node2&#45;&gt;Node3</title>
<path fill="none" stroke="midnightblue" d="M367.502,-74.0346C391.259,-79.3259 418.141,-85.3133 442.646,-90.7712"/>
<polygon fill="midnightblue" stroke="midnightblue" points="442.104,-94.236 452.625,-92.9938 443.625,-87.4034 442.104,-94.236"/>
</g>
<!-- Node6 -->
<g id="node11" class="node"><title>Node6</title>
<a xlink:href="classforcebalance_1_1BaseClass.html#a73e9a37a7632e79eb99f49bd15aced45" target="_top" xlink:title="forcebalance.BaseClass.set\l_option">
<polygon fill="white" stroke="black" points="446.5,-44 446.5,-74 595.5,-74 595.5,-44 446.5,-44"/>
<text text-anchor="start" x="454.5" y="-62" font-family="Ubuntu-R" font-size="10.00">forcebalance.BaseClass.set</text>
<text text-anchor="middle" x="521" y="-51" font-family="Ubuntu-R" font-size="10.00">_option</text>
</a>
</g>
<!-- Node2&#45;&gt;Node6 -->
<g id="edge10" class="edge"><title>Node2&#45;&gt;Node6</title>
<path fill="none" stroke="midnightblue" d="M390.117,-59C405.351,-59 421.11,-59 436.175,-59"/>
<polygon fill="midnightblue" stroke="midnightblue" points="436.478,-62.5001 446.478,-59 436.478,-55.5001 436.478,-62.5001"/>
</g>
<!-- Node4 -->
<g id="node7" class="node"><title>Node4</title>
<a xlink:href="namespaceforcebalance_1_1nifty.html#a26e563ec71ed229c30f3d61d3448c8f1" target="_top" xlink:title="Prints a warning but will only do so once in a given run. ">
<polygon fill="white" stroke="black" points="672,-98.5 672,-117.5 826,-117.5 826,-98.5 672,-98.5"/>
<text text-anchor="middle" x="749" y="-105.5" font-family="Ubuntu-R" font-size="10.00">forcebalance.nifty.warn_once</text>
</a>
</g>
<!-- Node3&#45;&gt;Node4 -->
<g id="edge6" class="edge"><title>Node3&#45;&gt;Node4</title>
<path fill="none" stroke="midnightblue" d="M590.114,-108C612.631,-108 637.988,-108 661.684,-108"/>
<polygon fill="midnightblue" stroke="midnightblue" points="661.724,-111.5 671.724,-108 661.724,-104.5 661.724,-111.5"/>
</g>
<!-- Node5 -->
<g id="node9" class="node"><title>Node5</title>
<a xlink:href="namespaceforcebalance_1_1nifty.html#a64b7c6ca7afa1c11681f5c2897c55cc3" target="_top" xlink:title="This function be given any of several variable types (single file name, file object, or list of lines, or a list of the above) and give a list of files: ">
<polygon fill="white" stroke="black" points="903.5,-98.5 903.5,-117.5 1054.5,-117.5 1054.5,-98.5 903.5,-98.5"/>
<text text-anchor="middle" x="979" y="-105.5" font-family="Ubuntu-R" font-size="10.00">forcebalance.nifty.multiopen</text>
</a>
</g>
<!-- Node4&#45;&gt;Node5 -->
<g id="edge8" class="edge"><title>Node4&#45;&gt;Node5</title>
<path fill="none" stroke="midnightblue" d="M826.238,-108C847.695,-108 871.164,-108 893.094,-108"/>
<polygon fill="midnightblue" stroke="midnightblue" points="893.384,-111.5 903.384,-108 893.384,-104.5 893.384,-111.5"/>
</g>
<!-- Node8 -->
<g id="node15" class="node"><title>Node8</title>
<a xlink:href="classforcebalance_1_1engine_1_1Engine.html#a2eab57877002b41dc3742f0c67f2f24e" target="_top" xlink:title="forcebalance.engine.Engine.prepare">
<polygon fill="white" stroke="black" points="426.5,-5.5 426.5,-24.5 615.5,-24.5 615.5,-5.5 426.5,-5.5"/>
<text text-anchor="middle" x="521" y="-12.5" font-family="Ubuntu-R" font-size="10.00">forcebalance.engine.Engine.prepare</text>
</a>
</g>
<!-- Node7&#45;&gt;Node8 -->
<g id="edge14" class="edge"><title>Node7&#45;&gt;Node8</title>
<path fill="none" stroke="midnightblue" d="M386.634,-15C396.272,-15 406.161,-15 415.987,-15"/>
<polygon fill="midnightblue" stroke="midnightblue" points="416.189,-18.5001 426.189,-15 416.189,-11.5001 416.189,-18.5001"/>
</g>
<!-- Node9 -->
<g id="node17" class="node"><title>Node9</title>
<a xlink:href="classforcebalance_1_1engine_1_1Engine.html#aceb1ac74d5f048dfbe620ceac7df8d32" target="_top" xlink:title="Evaluate properties over a collection of snapshots. ">
<polygon fill="white" stroke="black" points="652.5,-0 652.5,-30 845.5,-30 845.5,-0 652.5,-0"/>
<text text-anchor="start" x="660.5" y="-18" font-family="Ubuntu-R" font-size="10.00">forcebalance.engine.Engine.evaluate</text>
<text text-anchor="middle" x="749" y="-7" font-family="Ubuntu-R" font-size="10.00">_snapshots</text>
</a>
</g>
<!-- Node8&#45;&gt;Node9 -->
<g id="edge16" class="edge"><title>Node8&#45;&gt;Node9</title>
<path fill="none" stroke="midnightblue" d="M615.554,-15C624.377,-15 633.363,-15 642.288,-15"/>
<polygon fill="midnightblue" stroke="midnightblue" points="642.327,-18.5001 652.327,-15 642.327,-11.5001 642.327,-18.5001"/>
</g>
<!-- Node10 -->
<g id="node19" class="node"><title>Node10</title>
<a xlink:href="classforcebalance_1_1engine_1_1Engine.html#a0e88d58a45ebff5a5d741290e3589ee6" target="_top" xlink:title="Evaluate properties on the optimized geometry. ">
<polygon fill="white" stroke="black" points="882.5,-0 882.5,-30 1075.5,-30 1075.5,-0 882.5,-0"/>
<text text-anchor="start" x="890.5" y="-18" font-family="Ubuntu-R" font-size="10.00">forcebalance.engine.Engine.evaluate</text>
<text text-anchor="middle" x="979" y="-7" font-family="Ubuntu-R" font-size="10.00">_optimized</text>
</a>
</g>
<!-- Node9&#45;&gt;Node10 -->
<g id="edge18" class="edge"><title>Node9&#45;&gt;Node10</title>
<path fill="none" stroke="midnightblue" d="M845.702,-15C854.373,-15 863.189,-15 871.943,-15"/>
<polygon fill="midnightblue" stroke="midnightblue" points="872.178,-18.5001 882.178,-15 872.178,-11.5001 872.178,-18.5001"/>
</g>
</g>
</svg>
