<?xml version="1.0" encoding="UTF-8" standalone="no"?>
<!DOCTYPE svg PUBLIC "-//W3C//DTD SVG 1.1//EN"
 "http://www.w3.org/Graphics/SVG/1.1/DTD/svg11.dtd">
<!-- Generated by graphviz version 2.28.0 (20111219.2309)
 -->
<!-- Title: forcebalance.tinkerio.Liquid_TINKER.npt_simulation Pages: 1 -->
<svg width="1248pt" height="118pt"
 viewBox="0.00 0.00 1248.00 118.00" xmlns="http://www.w3.org/2000/svg" xmlns:xlink="http://www.w3.org/1999/xlink">
<g id="graph1" class="graph" transform="scale(1 1) rotate(0) translate(4 114)">
<title>forcebalance.tinkerio.Liquid_TINKER.npt_simulation</title>
<polygon fill="white" stroke="white" points="-4,5 -4,-114 1245,-114 1245,5 -4,5"/>
<!-- Node1 -->
<g id="node1" class="node"><title>Node1</title>
<polygon fill="#bfbfbf" stroke="black" points="0.5,-47 0.5,-77 147.5,-77 147.5,-47 0.5,-47"/>
<text text-anchor="start" x="8.5" y="-65" font-family="Ubuntu-R" font-size="10.00">forcebalance.tinkerio.Liquid</text>
<text text-anchor="middle" x="74" y="-54" font-family="Ubuntu-R" font-size="10.00">_TINKER.npt_simulation</text>
</g>
<!-- Node2 -->
<g id="node3" class="node"><title>Node2</title>
<a xlink:href="namespaceforcebalance_1_1optimizer.html#ab43948ecf30c90d319e0c0b107fe484a" target="_top" xlink:title="forcebalance.optimizer.GoodStep">
<polygon fill="white" stroke="black" points="184,-90.5 184,-109.5 360,-109.5 360,-90.5 184,-90.5"/>
<text text-anchor="middle" x="272" y="-97.5" font-family="Ubuntu-R" font-size="10.00">forcebalance.optimizer.GoodStep</text>
</a>
</g>
<!-- Node1&#45;&gt;Node2 -->
<g id="edge2" class="edge"><title>Node1&#45;&gt;Node2</title>
<path fill="none" stroke="midnightblue" d="M147.705,-76.0958C168.861,-80.1975 191.705,-84.6265 211.914,-88.5445"/>
<polygon fill="midnightblue" stroke="midnightblue" points="211.427,-92.0151 221.91,-90.4825 212.759,-85.1431 211.427,-92.0151"/>
</g>
<!-- Node3 -->
<g id="node5" class="node"><title>Node3</title>
<a xlink:href="namespaceforcebalance_1_1nifty.html#a673f4a044169f5d8d822823989a836a7" target="_top" xlink:title="Submit a job to the Work Queue. ">
<polygon fill="white" stroke="black" points="197,-52.5 197,-71.5 347,-71.5 347,-52.5 197,-52.5"/>
<text text-anchor="middle" x="272" y="-59.5" font-family="Ubuntu-R" font-size="10.00">forcebalance.nifty.queue_up</text>
</a>
</g>
<!-- Node1&#45;&gt;Node3 -->
<g id="edge4" class="edge"><title>Node1&#45;&gt;Node3</title>
<path fill="none" stroke="midnightblue" d="M147.705,-62C160.341,-62 173.58,-62 186.5,-62"/>
<polygon fill="midnightblue" stroke="midnightblue" points="186.776,-65.5001 196.776,-62 186.776,-58.5001 186.776,-65.5001"/>
</g>
<!-- Node12 -->
<g id="node23" class="node"><title>Node12</title>
<a xlink:href="classforcebalance_1_1tinkerio_1_1Liquid__TINKER.html#a307529b9902b34a790a8b016e153c7d6" target="_top" xlink:title="forcebalance.tinkerio.Liquid\l_TINKER.__init__">
<polygon fill="white" stroke="black" points="198.5,-2 198.5,-32 345.5,-32 345.5,-2 198.5,-2"/>
<text text-anchor="start" x="206.5" y="-20" font-family="Ubuntu-R" font-size="10.00">forcebalance.tinkerio.Liquid</text>
<text text-anchor="middle" x="272" y="-9" font-family="Ubuntu-R" font-size="10.00">_TINKER.__init__</text>
</a>
</g>
<!-- Node1&#45;&gt;Node12 -->
<g id="edge22" class="edge"><title>Node1&#45;&gt;Node12</title>
<path fill="none" stroke="midnightblue" d="M140.538,-46.9531C158.19,-42.9002 177.427,-38.4835 195.573,-34.3175"/>
<polygon fill="midnightblue" stroke="midnightblue" points="196.561,-37.6818 205.524,-32.0327 194.994,-30.8593 196.561,-37.6818"/>
</g>
<!-- Node4 -->
<g id="node7" class="node"><title>Node4</title>
<a xlink:href="namespaceforcebalance_1_1nifty.html#a374aac2ef003be02fab49b20ff0a82f0" target="_top" xlink:title="This function waits ten seconds to see if a task in the Work Queue has finished. ">
<polygon fill="white" stroke="black" points="401,-49 401,-79 517,-79 517,-49 401,-49"/>
<text text-anchor="start" x="409" y="-67" font-family="Ubuntu-R" font-size="10.00">forcebalance.nifty.wq</text>
<text text-anchor="middle" x="459" y="-56" font-family="Ubuntu-R" font-size="10.00">_wait1</text>
</a>
</g>
<!-- Node3&#45;&gt;Node4 -->
<g id="edge6" class="edge"><title>Node3&#45;&gt;Node4</title>
<path fill="none" stroke="midnightblue" d="M347.181,-62.802C361.579,-62.9576 376.595,-63.1199 390.755,-63.273"/>
<polygon fill="midnightblue" stroke="midnightblue" points="390.856,-66.7742 400.894,-63.3826 390.932,-59.7746 390.856,-66.7742"/>
</g>
<!-- Node5 -->
<g id="node9" class="node"><title>Node5</title>
<a xlink:href="namespaceforcebalance_1_1nifty.html#a576de8c5b6f236280e07e73e39b2ab7c" target="_top" xlink:title="This function waits until the work queue is completely empty. ">
<polygon fill="white" stroke="black" points="579,-86.5 579,-105.5 719,-105.5 719,-86.5 579,-86.5"/>
<text text-anchor="middle" x="649" y="-93.5" font-family="Ubuntu-R" font-size="10.00">forcebalance.nifty.wq_wait</text>
</a>
</g>
<!-- Node4&#45;&gt;Node5 -->
<g id="edge8" class="edge"><title>Node4&#45;&gt;Node5</title>
<path fill="none" stroke="midnightblue" d="M517.172,-73.7314C537.689,-77.2236 560.986,-81.1892 582.178,-84.7963"/>
<polygon fill="midnightblue" stroke="midnightblue" points="581.624,-88.2521 592.069,-86.4798 582.798,-81.3514 581.624,-88.2521"/>
</g>
<!-- Node7 -->
<g id="node13" class="node"><title>Node7</title>
<a xlink:href="namespaceforcebalance_1_1nifty.html#ab5417ad84c6c760965cd195c6c387914" target="_top" xlink:title="forcebalance.nifty.onefile">
<polygon fill="white" stroke="black" points="582,-48.5 582,-67.5 716,-67.5 716,-48.5 582,-48.5"/>
<text text-anchor="middle" x="649" y="-55.5" font-family="Ubuntu-R" font-size="10.00">forcebalance.nifty.onefile</text>
</a>
</g>
<!-- Node4&#45;&gt;Node7 -->
<g id="edge12" class="edge"><title>Node4&#45;&gt;Node7</title>
<path fill="none" stroke="midnightblue" d="M517.172,-62.1754C534.399,-61.6256 553.587,-61.0132 571.842,-60.4306"/>
<polygon fill="midnightblue" stroke="midnightblue" points="571.986,-63.9278 581.87,-60.1105 571.763,-56.9314 571.986,-63.9278"/>
</g>
<!-- Node6 -->
<g id="node11" class="node"><title>Node6</title>
<a xlink:href="namespaceforcebalance_1_1nifty.html#ad432b88307e1178b0690c0d350b1af36" target="_top" xlink:title="forcebalance.nifty.GoInto">
<polygon fill="white" stroke="black" points="776,-86.5 776,-105.5 910,-105.5 910,-86.5 776,-86.5"/>
<text text-anchor="middle" x="843" y="-93.5" font-family="Ubuntu-R" font-size="10.00">forcebalance.nifty.GoInto</text>
</a>
</g>
<!-- Node5&#45;&gt;Node6 -->
<g id="edge10" class="edge"><title>Node5&#45;&gt;Node6</title>
<path fill="none" stroke="midnightblue" d="M719.045,-96C734.214,-96 750.36,-96 765.792,-96"/>
<polygon fill="midnightblue" stroke="midnightblue" points="765.813,-99.5001 775.813,-96 765.813,-92.5001 765.813,-99.5001"/>
</g>
<!-- Node8 -->
<g id="node15" class="node"><title>Node8</title>
<a xlink:href="namespaceforcebalance_1_1nifty.html#ac9ab6c5543a2e3080061e0024850edf3" target="_top" xlink:title="forcebalance.nifty.allsplit">
<polygon fill="white" stroke="black" points="776.5,-48.5 776.5,-67.5 909.5,-67.5 909.5,-48.5 776.5,-48.5"/>
<text text-anchor="middle" x="843" y="-55.5" font-family="Ubuntu-R" font-size="10.00">forcebalance.nifty.allsplit</text>
</a>
</g>
<!-- Node7&#45;&gt;Node8 -->
<g id="edge14" class="edge"><title>Node7&#45;&gt;Node8</title>
<path fill="none" stroke="midnightblue" d="M716.076,-58C732.245,-58 749.673,-58 766.256,-58"/>
<polygon fill="midnightblue" stroke="midnightblue" points="766.453,-61.5001 776.453,-58 766.453,-54.5001 766.453,-61.5001"/>
</g>
<!-- Node11 -->
<g id="node21" class="node"><title>Node11</title>
<a xlink:href="namespaceforcebalance_1_1nifty.html#ab04e8690d099db2379dc860e0d040120" target="_top" xlink:title="forcebalance.nifty.Leave">
<polygon fill="white" stroke="black" points="777.5,-10.5 777.5,-29.5 908.5,-29.5 908.5,-10.5 777.5,-10.5"/>
<text text-anchor="middle" x="843" y="-17.5" font-family="Ubuntu-R" font-size="10.00">forcebalance.nifty.Leave</text>
</a>
</g>
<!-- Node7&#45;&gt;Node11 -->
<g id="edge20" class="edge"><title>Node7&#45;&gt;Node11</title>
<path fill="none" stroke="midnightblue" d="M698.45,-48.411C724.471,-43.261 756.728,-36.8768 784.069,-31.4656"/>
<polygon fill="midnightblue" stroke="midnightblue" points="784.769,-34.895 793.899,-29.5201 783.409,-28.0282 784.769,-34.895"/>
</g>
<!-- Node9 -->
<g id="node17" class="node"><title>Node9</title>
<a xlink:href="namespaceforcebalance_1_1nifty.html#ae87c7def5f8edf2ec30737bdb1d2636f" target="_top" xlink:title="forcebalance.nifty.Missing\lFileInspection">
<polygon fill="white" stroke="black" points="946,-43 946,-73 1084,-73 1084,-43 946,-43"/>
<text text-anchor="start" x="954" y="-61" font-family="Ubuntu-R" font-size="10.00">forcebalance.nifty.Missing</text>
<text text-anchor="middle" x="1015" y="-50" font-family="Ubuntu-R" font-size="10.00">FileInspection</text>
</a>
</g>
<!-- Node8&#45;&gt;Node9 -->
<g id="edge16" class="edge"><title>Node8&#45;&gt;Node9</title>
<path fill="none" stroke="midnightblue" d="M909.726,-58C918.255,-58 927.057,-58 935.764,-58"/>
<polygon fill="midnightblue" stroke="midnightblue" points="935.919,-61.5001 945.919,-58 935.919,-54.5001 935.919,-61.5001"/>
</g>
<!-- Node10 -->
<g id="node19" class="node"><title>Node10</title>
<a xlink:href="namespaceforcebalance_1_1nifty.html#a0cf4e58f90acf20e3d6224be2354082c" target="_top" xlink:title="forcebalance.nifty.link\l_dir_contents">
<polygon fill="white" stroke="black" points="1120.5,-43 1120.5,-73 1239.5,-73 1239.5,-43 1120.5,-43"/>
<text text-anchor="start" x="1128.5" y="-61" font-family="Ubuntu-R" font-size="10.00">forcebalance.nifty.link</text>
<text text-anchor="middle" x="1180" y="-50" font-family="Ubuntu-R" font-size="10.00">_dir_contents</text>
</a>
</g>
<!-- Node9&#45;&gt;Node10 -->
<g id="edge18" class="edge"><title>Node9&#45;&gt;Node10</title>
<path fill="none" stroke="midnightblue" d="M1084.18,-58C1092.84,-58 1101.69,-58 1110.35,-58"/>
<polygon fill="midnightblue" stroke="midnightblue" points="1110.41,-61.5001 1120.41,-58 1110.41,-54.5001 1110.41,-61.5001"/>
</g>
<!-- Node13 -->
<g id="node25" class="node"><title>Node13</title>
<a xlink:href="namespaceforcebalance_1_1nifty.html#abb8f59044961a12588e0653c2baa8b01" target="_top" xlink:title="forcebalance.nifty.warn\l_press_key">
<polygon fill="white" stroke="black" points="396.5,-0 396.5,-30 521.5,-30 521.5,-0 396.5,-0"/>
<text text-anchor="start" x="404.5" y="-18" font-family="Ubuntu-R" font-size="10.00">forcebalance.nifty.warn</text>
<text text-anchor="middle" x="459" y="-7" font-family="Ubuntu-R" font-size="10.00">_press_key</text>
</a>
</g>
<!-- Node12&#45;&gt;Node13 -->
<g id="edge24" class="edge"><title>Node12&#45;&gt;Node13</title>
<path fill="none" stroke="midnightblue" d="M345.586,-16.2153C358.977,-16.0705 372.952,-15.9194 386.315,-15.775"/>
<polygon fill="midnightblue" stroke="midnightblue" points="386.434,-19.274 396.396,-15.666 386.358,-12.2744 386.434,-19.274"/>
</g>
<!-- Node14 -->
<g id="node27" class="node"><title>Node14</title>
<a xlink:href="namespaceforcebalance_1_1nifty.html#a2fc81730e7efa7d138dd86f733507bfc" target="_top" xlink:title="Similar to the bultin function map(). ">
<polygon fill="white" stroke="black" points="558,-5.5 558,-24.5 740,-24.5 740,-5.5 558,-5.5"/>
<text text-anchor="middle" x="649" y="-12.5" font-family="Ubuntu-R" font-size="10.00">forcebalance.nifty.concurrent_map</text>
</a>
</g>
<!-- Node13&#45;&gt;Node14 -->
<g id="edge26" class="edge"><title>Node13&#45;&gt;Node14</title>
<path fill="none" stroke="midnightblue" d="M521.558,-15C529.961,-15 538.758,-15 547.632,-15"/>
<polygon fill="midnightblue" stroke="midnightblue" points="547.665,-18.5001 557.665,-15 547.665,-11.5001 547.665,-18.5001"/>
</g>
</g>
</svg>
