<?xml version="1.0" encoding="UTF-8" standalone="no"?>
<!DOCTYPE svg PUBLIC "-//W3C//DTD SVG 1.1//EN"
 "http://www.w3.org/Graphics/SVG/1.1/DTD/svg11.dtd">
<!-- Generated by graphviz version 2.26.3 (20100126.1600)
 -->
<!-- Title: forcebalance.psi4io.RDVR3_Psi4.indicate Pages: 1 -->
<svg width="332pt" height="94pt"
 viewBox="0.00 0.00 332.00 94.00" xmlns="http://www.w3.org/2000/svg" xmlns:xlink="http://www.w3.org/1999/xlink">
<g id="graph1" class="graph" transform="scale(1 1) rotate(0) translate(4 90)">
<title>forcebalance.psi4io.RDVR3_Psi4.indicate</title>
<polygon fill="white" stroke="white" points="-4,5 -4,-90 329,-90 329,5 -4,5"/>
<!-- Node1 -->
<g id="node1" class="node"><title>Node1</title>
<polygon fill="#bfbfbf" stroke="black" points="0.5,-26 0.5,-60 143.5,-60 143.5,-26 0.5,-26"/>
<text text-anchor="start" x="8.5" y="-47" font-family="Ubuntu-R" font-size="10.00">forcebalance.psi4io.RDVR3</text>
<text text-anchor="middle" x="72" y="-34" font-family="Ubuntu-R" font-size="10.00">_Psi4.indicate</text>
</g>
<!-- Node2 -->
<g id="node3" class="node"><title>Node2</title>
<a xlink:href="classforcebalance_1_1psi4io_1_1RDVR3__Psi4.html#a728adb334e4ad6e26200c265fc2f351a" target="_top" xlink:title="Create a grid file and a psi4 input file in the absolute path and submit it to the work queue...">
<polygon fill="white" stroke="black" points="180.5,-52 180.5,-86 323.5,-86 323.5,-52 180.5,-52"/>
<text text-anchor="start" x="188.5" y="-73" font-family="Ubuntu-R" font-size="10.00">forcebalance.psi4io.RDVR3</text>
<text text-anchor="middle" x="252" y="-60" font-family="Ubuntu-R" font-size="10.00">_Psi4.submit_jobs</text>
</a>
</g>
<!-- Node1&#45;&gt;Node2 -->
<g id="edge2" class="edge"><title>Node1&#45;&gt;Node2</title>
<path fill="none" stroke="midnightblue" d="M143.658,-53.3506C152.419,-54.6161 161.423,-55.9167 170.318,-57.2014"/>
<polygon fill="midnightblue" stroke="midnightblue" points="169.897,-60.6769 180.295,-58.6425 170.898,-53.7488 169.897,-60.6769"/>
</g>
<!-- Node3 -->
<g id="node5" class="node"><title>Node3</title>
<a xlink:href="namespaceforcebalance_1_1nifty.html#ac37d4fe58ef70ed546ebfc45d12f7a5d" target="_top" xlink:title="forcebalance.nifty.getWork\lQueue">
<polygon fill="white" stroke="black" points="181.5,-0 181.5,-34 322.5,-34 322.5,-0 181.5,-0"/>
<text text-anchor="start" x="189.5" y="-21" font-family="Ubuntu-R" font-size="10.00">forcebalance.nifty.getWork</text>
<text text-anchor="middle" x="252" y="-8" font-family="Ubuntu-R" font-size="10.00">Queue</text>
</a>
</g>
<!-- Node1&#45;&gt;Node3 -->
<g id="edge4" class="edge"><title>Node1&#45;&gt;Node3</title>
<path fill="none" stroke="midnightblue" d="M143.658,-32.6494C152.802,-31.3286 162.209,-29.9698 171.481,-28.6305"/>
<polygon fill="midnightblue" stroke="midnightblue" points="172.073,-32.0815 181.47,-27.1877 171.072,-25.1534 172.073,-32.0815"/>
</g>
</g>
</svg>
