<?xml version="1.0" encoding="UTF-8" standalone="no"?>
<!DOCTYPE svg PUBLIC "-//W3C//DTD SVG 1.1//EN"
 "http://www.w3.org/Graphics/SVG/1.1/DTD/svg11.dtd">
<!-- Generated by graphviz version 2.26.3 (20100126.1600)
 -->
<!-- Title: forcebalance.gmxio.GMX.energy_rmsd Pages: 1 -->
<svg width="1416pt" height="175pt"
 viewBox="0.00 0.00 1416.00 175.00" xmlns="http://www.w3.org/2000/svg" xmlns:xlink="http://www.w3.org/1999/xlink">
<g id="graph1" class="graph" transform="scale(1 1) rotate(0) translate(4 171)">
<title>forcebalance.gmxio.GMX.energy_rmsd</title>
<polygon fill="white" stroke="white" points="-4,5 -4,-171 1413,-171 1413,5 -4,5"/>
<!-- Node1 -->
<g id="node1" class="node"><title>Node1</title>
<polygon fill="#bfbfbf" stroke="black" points="0.5,-37.5 0.5,-58.5 201.5,-58.5 201.5,-37.5 0.5,-37.5"/>
<text text-anchor="middle" x="101" y="-45.5" font-family="Ubuntu-R" font-size="10.00">forcebalance.gmxio.GMX.energy_rmsd</text>
</g>
<!-- Node2 -->
<g id="node3" class="node"><title>Node2</title>
<a xlink:href="classforcebalance_1_1gmxio_1_1GMX.html#a26446fe0d7708c321fb39a2944ca5625" target="_top" xlink:title="Optimize the geometry and align the optimized geometry to the starting geometry. ">
<polygon fill="white" stroke="black" points="238.5,-76.5 238.5,-97.5 417.5,-97.5 417.5,-76.5 238.5,-76.5"/>
<text text-anchor="middle" x="328" y="-84.5" font-family="Ubuntu-R" font-size="10.00">forcebalance.gmxio.GMX.optimize</text>
</a>
</g>
<!-- Node1&#45;&gt;Node2 -->
<g id="edge2" class="edge"><title>Node1&#45;&gt;Node2</title>
<path fill="none" stroke="midnightblue" d="M162.13,-58.5026C191.271,-63.5092 226.311,-69.5293 256.662,-74.7438"/>
<polygon fill="midnightblue" stroke="midnightblue" points="256.312,-78.2348 266.76,-76.4787 257.497,-71.3359 256.312,-78.2348"/>
</g>
<!-- Node8 -->
<g id="node15" class="node"><title>Node8</title>
<a xlink:href="classforcebalance_1_1gmxio_1_1GMX.html#a0a8687f6d972019fd7eef4cb8a5d86c7" target="_top" xlink:title="Call gromacs and allow for certain expected warnings. ">
<polygon fill="white" stroke="black" points="454,-37.5 454,-58.5 636,-58.5 636,-37.5 454,-37.5"/>
<text text-anchor="middle" x="545" y="-45.5" font-family="Ubuntu-R" font-size="10.00">forcebalance.gmxio.GMX.warngmx</text>
</a>
</g>
<!-- Node1&#45;&gt;Node8 -->
<g id="edge32" class="edge"><title>Node1&#45;&gt;Node8</title>
<path fill="none" stroke="midnightblue" d="M201.75,-48C274.082,-48 371.185,-48 443.652,-48"/>
<polygon fill="midnightblue" stroke="midnightblue" points="443.709,-51.5001 453.709,-48 443.709,-44.5001 443.709,-51.5001"/>
</g>
<!-- Node9 -->
<g id="node17" class="node"><title>Node9</title>
<a xlink:href="classforcebalance_1_1gmxio_1_1GMX.html#a4e472c27d2c244c9ad6edb5b35f46a75" target="_top" xlink:title="Call GROMACS; prepend the gmxpath to the call to the GROMACS program. ">
<polygon fill="white" stroke="black" points="672.5,-37.5 672.5,-58.5 847.5,-58.5 847.5,-37.5 672.5,-37.5"/>
<text text-anchor="middle" x="760" y="-45.5" font-family="Ubuntu-R" font-size="10.00">forcebalance.gmxio.GMX.callgmx</text>
</a>
</g>
<!-- Node1&#45;&gt;Node9 -->
<g id="edge34" class="edge"><title>Node1&#45;&gt;Node9</title>
<path fill="none" stroke="midnightblue" d="M198.771,-37.4811C306.146,-27.5284 483.591,-15.7879 636,-28 655.806,-29.587 677.221,-32.5779 696.592,-35.7724"/>
<polygon fill="midnightblue" stroke="midnightblue" points="696.071,-39.234 706.516,-37.4551 697.241,-32.3325 696.071,-39.234"/>
</g>
<!-- Node3 -->
<g id="node5" class="node"><title>Node3</title>
<a xlink:href="namespaceforcebalance_1_1gmxio.html#a73a881531c27adfddab62cda7f2232cd" target="_top" xlink:title="Create or edit a Gromacs MDP file. ">
<polygon fill="white" stroke="black" points="463.5,-115.5 463.5,-136.5 626.5,-136.5 626.5,-115.5 463.5,-115.5"/>
<text text-anchor="middle" x="545" y="-123.5" font-family="Ubuntu-R" font-size="10.00">forcebalance.gmxio.write_mdp</text>
</a>
</g>
<!-- Node2&#45;&gt;Node3 -->
<g id="edge4" class="edge"><title>Node2&#45;&gt;Node3</title>
<path fill="none" stroke="midnightblue" d="M386.437,-97.5026C414.174,-102.487 447.5,-108.477 476.426,-113.676"/>
<polygon fill="midnightblue" stroke="midnightblue" points="475.997,-117.154 486.458,-115.479 477.235,-110.265 475.997,-117.154"/>
</g>
<!-- Node2&#45;&gt;Node8 -->
<g id="edge14" class="edge"><title>Node2&#45;&gt;Node8</title>
<path fill="none" stroke="midnightblue" d="M386.437,-76.4974C414.174,-71.5126 447.5,-65.5231 476.426,-60.3243"/>
<polygon fill="midnightblue" stroke="midnightblue" points="477.235,-63.7351 486.458,-58.5213 475.997,-56.8455 477.235,-63.7351"/>
</g>
<!-- Node2&#45;&gt;Node9 -->
<g id="edge30" class="edge"><title>Node2&#45;&gt;Node9</title>
<path fill="none" stroke="midnightblue" d="M417.826,-83.7897C479.367,-81.0194 562.787,-76.1425 636,-68 654.286,-65.9663 673.988,-63.1006 692.187,-60.1722"/>
<polygon fill="midnightblue" stroke="midnightblue" points="692.822,-63.6149 702.124,-58.5438 691.69,-56.7071 692.822,-63.6149"/>
</g>
<!-- Node4 -->
<g id="node7" class="node"><title>Node4</title>
<a xlink:href="namespaceforcebalance_1_1nifty.html#a185aa094549d280fdc18479459980164" target="_top" xlink:title="If trying to write to a symbolic link, remove it first. ">
<polygon fill="white" stroke="black" points="693,-145.5 693,-166.5 827,-166.5 827,-145.5 693,-145.5"/>
<text text-anchor="middle" x="760" y="-153.5" font-family="Ubuntu-R" font-size="10.00">forcebalance.nifty.wopen</text>
</a>
</g>
<!-- Node3&#45;&gt;Node4 -->
<g id="edge6" class="edge"><title>Node3&#45;&gt;Node4</title>
<path fill="none" stroke="midnightblue" d="M620.499,-136.535C640.683,-139.351 662.523,-142.399 682.798,-145.228"/>
<polygon fill="midnightblue" stroke="midnightblue" points="682.537,-148.725 692.924,-146.641 683.504,-141.792 682.537,-148.725"/>
</g>
<!-- Node5 -->
<g id="node9" class="node"><title>Node5</title>
<a xlink:href="namespaceforcebalance_1_1nifty.html#a51180e960742cc7547749fdfb3513ec4" target="_top" xlink:title="See documentation for printcool; this is a nice way to print out keys/values in a dictionary...">
<polygon fill="white" stroke="black" points="688,-93 688,-127 832,-127 832,-93 688,-93"/>
<text text-anchor="start" x="696" y="-114" font-family="Ubuntu-R" font-size="10.00">forcebalance.nifty.printcool</text>
<text text-anchor="middle" x="760" y="-101" font-family="Ubuntu-R" font-size="10.00">_dictionary</text>
</a>
</g>
<!-- Node3&#45;&gt;Node5 -->
<g id="edge8" class="edge"><title>Node3&#45;&gt;Node5</title>
<path fill="none" stroke="midnightblue" d="M626.589,-119.928C643.313,-118.684 660.926,-117.373 677.676,-116.126"/>
<polygon fill="midnightblue" stroke="midnightblue" points="678.265,-119.592 687.977,-115.36 677.745,-112.612 678.265,-119.592"/>
</g>
<!-- Node6 -->
<g id="node11" class="node"><title>Node6</title>
<a xlink:href="namespaceforcebalance_1_1nifty.html#a11babd62dc7bca389162c6318f9672ca" target="_top" xlink:title="Cool&#45;looking printout for slick formatting of output. ">
<polygon fill="white" stroke="black" points="892,-99.5 892,-120.5 1036,-120.5 1036,-99.5 892,-99.5"/>
<text text-anchor="middle" x="964" y="-107.5" font-family="Ubuntu-R" font-size="10.00">forcebalance.nifty.printcool</text>
</a>
</g>
<!-- Node5&#45;&gt;Node6 -->
<g id="edge10" class="edge"><title>Node5&#45;&gt;Node6</title>
<path fill="none" stroke="midnightblue" d="M832.21,-110C848.251,-110 865.37,-110 881.778,-110"/>
<polygon fill="midnightblue" stroke="midnightblue" points="881.887,-113.5 891.887,-110 881.887,-106.5 881.887,-113.5"/>
</g>
<!-- Node7 -->
<g id="node13" class="node"><title>Node7</title>
<a xlink:href="namespaceforcebalance_1_1nifty.html#abb8f59044961a12588e0653c2baa8b01" target="_top" xlink:title="forcebalance.nifty.warn\l_press_key">
<polygon fill="white" stroke="black" points="1086.5,-93 1086.5,-127 1211.5,-127 1211.5,-93 1086.5,-93"/>
<text text-anchor="start" x="1094.5" y="-114" font-family="Ubuntu-R" font-size="10.00">forcebalance.nifty.warn</text>
<text text-anchor="middle" x="1149" y="-101" font-family="Ubuntu-R" font-size="10.00">_press_key</text>
</a>
</g>
<!-- Node6&#45;&gt;Node7 -->
<g id="edge12" class="edge"><title>Node6&#45;&gt;Node7</title>
<path fill="none" stroke="midnightblue" d="M1036.06,-110C1049.31,-110 1063.16,-110 1076.44,-110"/>
<polygon fill="midnightblue" stroke="midnightblue" points="1076.46,-113.5 1086.46,-110 1076.46,-106.5 1076.46,-113.5"/>
</g>
<!-- Node8&#45;&gt;Node9 -->
<g id="edge16" class="edge"><title>Node8&#45;&gt;Node9</title>
<path fill="none" stroke="midnightblue" d="M636.179,-48C644.817,-48 653.598,-48 662.293,-48"/>
<polygon fill="midnightblue" stroke="midnightblue" points="662.447,-51.5001 672.447,-48 662.447,-44.5001 662.447,-51.5001"/>
</g>
<!-- Node10 -->
<g id="node19" class="node"><title>Node10</title>
<a xlink:href="namespaceforcebalance_1_1gmxio.html#acac8488f29b62fb0d4cb54bb5a041026" target="_top" xlink:title="forcebalance.gmxio.rm\l_gmx_baks">
<polygon fill="white" stroke="black" points="900.5,-47 900.5,-81 1027.5,-81 1027.5,-47 900.5,-47"/>
<text text-anchor="start" x="908.5" y="-68" font-family="Ubuntu-R" font-size="10.00">forcebalance.gmxio.rm</text>
<text text-anchor="middle" x="964" y="-55" font-family="Ubuntu-R" font-size="10.00">_gmx_baks</text>
</a>
</g>
<!-- Node9&#45;&gt;Node10 -->
<g id="edge18" class="edge"><title>Node9&#45;&gt;Node10</title>
<path fill="none" stroke="midnightblue" d="M847.698,-54.8783C861.811,-55.9852 876.297,-57.1213 890.045,-58.1996"/>
<polygon fill="midnightblue" stroke="midnightblue" points="890.154,-61.7188 900.397,-59.0115 890.701,-54.7402 890.154,-61.7188"/>
</g>
<!-- Node11 -->
<g id="node21" class="node"><title>Node11</title>
<a xlink:href="classforcebalance_1_1gmxio_1_1GMX.html#a2f9f89e8d7e97c872d4876751df171ce" target="_top" xlink:title="forcebalance.gmxio.GMX.links">
<polygon fill="white" stroke="black" points="884.5,-7.5 884.5,-28.5 1043.5,-28.5 1043.5,-7.5 884.5,-7.5"/>
<text text-anchor="middle" x="964" y="-15.5" font-family="Ubuntu-R" font-size="10.00">forcebalance.gmxio.GMX.links</text>
</a>
</g>
<!-- Node9&#45;&gt;Node11 -->
<g id="edge20" class="edge"><title>Node9&#45;&gt;Node11</title>
<path fill="none" stroke="midnightblue" d="M831.636,-37.4653C847.989,-35.0605 865.487,-32.4872 882.228,-30.0253"/>
<polygon fill="midnightblue" stroke="midnightblue" points="883.152,-33.4271 892.537,-28.5093 882.134,-26.5016 883.152,-33.4271"/>
</g>
<!-- Node12 -->
<g id="node23" class="node"><title>Node12</title>
<a xlink:href="namespaceforcebalance_1_1nifty.html#ab5417ad84c6c760965cd195c6c387914" target="_top" xlink:title="forcebalance.nifty.onefile">
<polygon fill="white" stroke="black" points="1082,-50.5 1082,-71.5 1216,-71.5 1216,-50.5 1082,-50.5"/>
<text text-anchor="middle" x="1149" y="-58.5" font-family="Ubuntu-R" font-size="10.00">forcebalance.nifty.onefile</text>
</a>
</g>
<!-- Node11&#45;&gt;Node12 -->
<g id="edge22" class="edge"><title>Node11&#45;&gt;Node12</title>
<path fill="none" stroke="midnightblue" d="M1009.26,-28.519C1034.68,-34.4276 1066.6,-41.8486 1093.52,-48.1053"/>
<polygon fill="midnightblue" stroke="midnightblue" points="1093.04,-51.5857 1103.57,-50.4406 1094.62,-44.7674 1093.04,-51.5857"/>
</g>
<!-- Node14 -->
<g id="node27" class="node"><title>Node14</title>
<a xlink:href="namespaceforcebalance_1_1nifty.html#ab182a9da2a2f42cf45942fbee6acf9b1" target="_top" xlink:title="forcebalance.nifty.LinkFile">
<polygon fill="white" stroke="black" points="1080.5,-7.5 1080.5,-28.5 1217.5,-28.5 1217.5,-7.5 1080.5,-7.5"/>
<text text-anchor="middle" x="1149" y="-15.5" font-family="Ubuntu-R" font-size="10.00">forcebalance.nifty.LinkFile</text>
</a>
</g>
<!-- Node11&#45;&gt;Node14 -->
<g id="edge26" class="edge"><title>Node11&#45;&gt;Node14</title>
<path fill="none" stroke="midnightblue" d="M1043.53,-18C1052.33,-18 1061.29,-18 1070.08,-18"/>
<polygon fill="midnightblue" stroke="midnightblue" points="1070.3,-21.5001 1080.3,-18 1070.3,-14.5001 1070.3,-21.5001"/>
</g>
<!-- Node13 -->
<g id="node25" class="node"><title>Node13</title>
<a xlink:href="namespaceforcebalance_1_1nifty.html#a26e563ec71ed229c30f3d61d3448c8f1" target="_top" xlink:title="Prints a warning but will only do so once in a given run. ">
<polygon fill="white" stroke="black" points="1254,-52.5 1254,-73.5 1408,-73.5 1408,-52.5 1254,-52.5"/>
<text text-anchor="middle" x="1331" y="-60.5" font-family="Ubuntu-R" font-size="10.00">forcebalance.nifty.warn_once</text>
</a>
</g>
<!-- Node12&#45;&gt;Node13 -->
<g id="edge24" class="edge"><title>Node12&#45;&gt;Node13</title>
<path fill="none" stroke="midnightblue" d="M1216.25,-61.739C1225.25,-61.8379 1234.58,-61.9405 1243.86,-62.0424"/>
<polygon fill="midnightblue" stroke="midnightblue" points="1243.85,-65.5424 1253.89,-62.1526 1243.93,-58.5428 1243.85,-65.5424"/>
</g>
<!-- Node15 -->
<g id="node29" class="node"><title>Node15</title>
<a xlink:href="namespaceforcebalance_1_1nifty.html#ae87c7def5f8edf2ec30737bdb1d2636f" target="_top" xlink:title="forcebalance.nifty.Missing\lFileInspection">
<polygon fill="white" stroke="black" points="1262,-0 1262,-34 1400,-34 1400,-0 1262,-0"/>
<text text-anchor="start" x="1270" y="-21" font-family="Ubuntu-R" font-size="10.00">forcebalance.nifty.Missing</text>
<text text-anchor="middle" x="1331" y="-8" font-family="Ubuntu-R" font-size="10.00">FileInspection</text>
</a>
</g>
<!-- Node14&#45;&gt;Node15 -->
<g id="edge28" class="edge"><title>Node14&#45;&gt;Node15</title>
<path fill="none" stroke="midnightblue" d="M1217.55,-17.6234C1228.66,-17.5623 1240.24,-17.4987 1251.58,-17.4364"/>
<polygon fill="midnightblue" stroke="midnightblue" points="1251.93,-20.9346 1261.91,-17.3796 1251.89,-13.9347 1251.93,-20.9346"/>
</g>
</g>
</svg>
