<?xml version="1.0" encoding="UTF-8" standalone="no"?>
<!DOCTYPE svg PUBLIC "-//W3C//DTD SVG 1.1//EN"
 "http://www.w3.org/Graphics/SVG/1.1/DTD/svg11.dtd">
<!-- Generated by graphviz version 2.40.1 (20161225.0304)
 -->
<!-- Title: src.ffyapf.FF.addff Pages: 1 -->
<svg width="282pt" height="78pt"
 viewBox="0.00 0.00 282.00 77.50" xmlns="http://www.w3.org/2000/svg" xmlns:xlink="http://www.w3.org/1999/xlink">
<g id="graph0" class="graph" transform="scale(1 1) rotate(0) translate(4 73.5)">
<title>src.ffyapf.FF.addff</title>
<polygon fill="#ffffff" stroke="transparent" points="-4,4 -4,-73.5 278,-73.5 278,4 -4,4"/>
<!-- Node5 -->
<g id="node1" class="node">
<title>Node5</title>
<polygon fill="#bfbfbf" stroke="#000000" points="0,-22.5 0,-41.5 101,-41.5 101,-22.5 0,-22.5"/>
<text text-anchor="middle" x="50.5" y="-29.5" font-family="Ubuntu-R" font-size="10.00" fill="#000000">src.ffyapf.FF.addff</text>
</g>
<!-- Node6 -->
<g id="node2" class="node">
<title>Node6</title>
<g id="a_node2"><a xlink:href="namespacesrc_1_1ffyapf.html#aac35f4253f397d2dc6cb5171acecb37e" target="_top" xlink:title="Determine the type of a force field file. ">
<polygon fill="#ffffff" stroke="#000000" points="148,-39 148,-69 263,-69 263,-39 148,-39"/>
<text text-anchor="start" x="156" y="-57" font-family="Ubuntu-R" font-size="10.00" fill="#000000">src.ffyapf.determine</text>
<text text-anchor="middle" x="205.5" y="-46" font-family="Ubuntu-R" font-size="10.00" fill="#000000">_fftype</text>
</a>
</g>
</g>
<!-- Node5&#45;&gt;Node6 -->
<g id="edge1" class="edge">
<title>Node5&#45;&gt;Node6</title>
<path fill="none" stroke="#191970" d="M101.2528,-39.2036C112.9099,-40.8582 125.4871,-42.6433 137.7348,-44.3817"/>
<polygon fill="#191970" stroke="#191970" points="137.5253,-47.887 147.918,-45.8271 138.5091,-40.9564 137.5253,-47.887"/>
</g>
<!-- Node7 -->
<g id="node3" class="node">
<title>Node7</title>
<g id="a_node3"><a xlink:href="namespacesrc_1_1nifty.html#a6ae2951ba2a22420a11abda6be7e5454" target="_top" xlink:title="src.nifty.warn_press_key">
<polygon fill="#ffffff" stroke="#000000" points="137,-.5 137,-19.5 274,-19.5 274,-.5 137,-.5"/>
<text text-anchor="middle" x="205.5" y="-7.5" font-family="Ubuntu-R" font-size="10.00" fill="#000000">src.nifty.warn_press_key</text>
</a>
</g>
</g>
<!-- Node5&#45;&gt;Node7 -->
<g id="edge2" class="edge">
<title>Node5&#45;&gt;Node7</title>
<path fill="none" stroke="#191970" d="M101.2528,-24.7964C110.0059,-23.554 119.2779,-22.238 128.5396,-20.9234"/>
<polygon fill="#191970" stroke="#191970" points="129.1516,-24.3717 138.5605,-19.5011 128.1679,-17.4412 129.1516,-24.3717"/>
</g>
</g>
</svg>
