<?xml version="1.0" encoding="UTF-8" standalone="no"?>
<!DOCTYPE svg PUBLIC "-//W3C//DTD SVG 1.1//EN"
 "http://www.w3.org/Graphics/SVG/1.1/DTD/svg11.dtd">
<!-- Generated by graphviz version 2.28.0 (20111219.2309)
 -->
<!-- Title: forcebalance.objective.Objective.Full Pages: 1 -->
<svg width="1946pt" height="297pt"
 viewBox="0.00 0.00 1946.00 297.00" xmlns="http://www.w3.org/2000/svg" xmlns:xlink="http://www.w3.org/1999/xlink">
<g id="graph1" class="graph" transform="scale(1 1) rotate(0) translate(4 293)">
<title>forcebalance.objective.Objective.Full</title>
<polygon fill="white" stroke="white" points="-4,5 -4,-293 1943,-293 1943,5 -4,5"/>
<!-- Node1 -->
<g id="node1" class="node"><title>Node1</title>
<polygon fill="#bfbfbf" stroke="black" points="0.5,-220.5 0.5,-239.5 189.5,-239.5 189.5,-220.5 0.5,-220.5"/>
<text text-anchor="middle" x="95" y="-227.5" font-family="Ubuntu-R" font-size="10.00">forcebalance.objective.Objective.Full</text>
</g>
<!-- Node2 -->
<g id="node3" class="node"><title>Node2</title>
<a xlink:href="namespaceforcebalance_1_1finite__difference.html#ad84d3e385db1190e7d8ef58bc08a6c52" target="_top" xlink:title="Invoking this function from anywhere will tell us whether we&#39;re being called by a finite&#45;difference f...">
<polygon fill="white" stroke="black" points="665,-259 665,-289 769,-289 769,-259 665,-259"/>
<text text-anchor="start" x="673" y="-277" font-family="Ubuntu-R" font-size="10.00">forcebalance.finite</text>
<text text-anchor="middle" x="717" y="-266" font-family="Ubuntu-R" font-size="10.00">_difference.in_fd</text>
</a>
</g>
<!-- Node1&#45;&gt;Node2 -->
<g id="edge2" class="edge"><title>Node1&#45;&gt;Node2</title>
<path fill="none" stroke="midnightblue" d="M139.104,-239.545C164.306,-244.726 196.806,-250.726 226,-254 379.523,-271.217 561.579,-274.075 654.596,-274.28"/>
<polygon fill="midnightblue" stroke="midnightblue" points="654.671,-277.78 664.675,-274.292 654.679,-270.78 654.671,-277.78"/>
</g>
<!-- Node3 -->
<g id="node5" class="node"><title>Node3</title>
<a xlink:href="classforcebalance_1_1objective_1_1Objective.html#a184305cae26dd9be2351297340481ca5" target="_top" xlink:title="Print objective function contributions. ">
<polygon fill="white" stroke="black" points="226,-215 226,-245 400,-245 400,-215 226,-215"/>
<text text-anchor="start" x="234" y="-233" font-family="Ubuntu-R" font-size="10.00">forcebalance.objective.Objective.</text>
<text text-anchor="middle" x="313" y="-222" font-family="Ubuntu-R" font-size="10.00">Indicate</text>
</a>
</g>
<!-- Node1&#45;&gt;Node3 -->
<g id="edge4" class="edge"><title>Node1&#45;&gt;Node3</title>
<path fill="none" stroke="midnightblue" d="M189.798,-223.302C198.391,-223.239 207.105,-223.233 215.719,-223.285"/>
<polygon fill="midnightblue" stroke="midnightblue" points="215.741,-226.786 225.771,-223.373 215.802,-219.786 215.741,-226.786"/>
</g>
<!-- Node3&#45;&gt;Node1 -->
<g id="edge42" class="edge"><title>Node3&#45;&gt;Node1</title>
<path fill="none" stroke="midnightblue" d="M225.771,-236.627C217.27,-236.724 208.581,-236.764 199.928,-236.746"/>
<polygon fill="midnightblue" stroke="midnightblue" points="199.815,-233.245 189.798,-236.698 199.782,-240.245 199.815,-233.245"/>
</g>
<!-- Node4 -->
<g id="node7" class="node"><title>Node4</title>
<a xlink:href="namespaceforcebalance_1_1nifty.html#a51180e960742cc7547749fdfb3513ec4" target="_top" xlink:title="See documentation for printcool; this is a nice way to print out keys/values in a dictionary...">
<polygon fill="white" stroke="black" points="451,-127 451,-157 595,-157 595,-127 451,-127"/>
<text text-anchor="start" x="459" y="-145" font-family="Ubuntu-R" font-size="10.00">forcebalance.nifty.printcool</text>
<text text-anchor="middle" x="523" y="-134" font-family="Ubuntu-R" font-size="10.00">_dictionary</text>
</a>
</g>
<!-- Node3&#45;&gt;Node4 -->
<g id="edge6" class="edge"><title>Node3&#45;&gt;Node4</title>
<path fill="none" stroke="midnightblue" d="M349.756,-214.872C384.985,-199.968 438.919,-177.15 477.034,-161.024"/>
<polygon fill="midnightblue" stroke="midnightblue" points="478.517,-164.197 486.363,-157.077 475.789,-157.75 478.517,-164.197"/>
</g>
<!-- Node18 -->
<g id="node40" class="node"><title>Node18</title>
<a xlink:href="classforcebalance_1_1objective_1_1Objective.html#aa14af29457c3784b9b97b46186c230ce" target="_top" xlink:title="forcebalance.objective.Objective.\lTarget_Terms">
<polygon fill="white" stroke="black" points="436,-215 436,-245 610,-245 610,-215 436,-215"/>
<text text-anchor="start" x="444" y="-233" font-family="Ubuntu-R" font-size="10.00">forcebalance.objective.Objective.</text>
<text text-anchor="middle" x="523" y="-222" font-family="Ubuntu-R" font-size="10.00">Target_Terms</text>
</a>
</g>
<!-- Node3&#45;&gt;Node18 -->
<g id="edge44" class="edge"><title>Node3&#45;&gt;Node18</title>
<path fill="none" stroke="midnightblue" d="M400.103,-223.34C408.618,-223.254 417.298,-223.229 425.905,-223.267"/>
<polygon fill="midnightblue" stroke="midnightblue" points="425.936,-226.768 435.962,-223.34 425.987,-219.768 425.936,-226.768"/>
</g>
<!-- Node5 -->
<g id="node9" class="node"><title>Node5</title>
<a xlink:href="namespaceforcebalance_1_1nifty.html#a3f1c7a1af9d35d5d1693074bc6f5497c" target="_top" xlink:title="ONLY matches integers! If you have a decimal point? None shall pass! ">
<polygon fill="white" stroke="black" points="656,-94.5 656,-113.5 778,-113.5 778,-94.5 656,-94.5"/>
<text text-anchor="middle" x="717" y="-101.5" font-family="Ubuntu-R" font-size="10.00">forcebalance.nifty.isint</text>
</a>
</g>
<!-- Node4&#45;&gt;Node5 -->
<g id="edge8" class="edge"><title>Node4&#45;&gt;Node5</title>
<path fill="none" stroke="midnightblue" d="M595.221,-127.904C615.851,-123.821 638.119,-119.414 657.848,-115.509"/>
<polygon fill="midnightblue" stroke="midnightblue" points="658.782,-118.892 667.912,-113.517 657.422,-112.026 658.782,-118.892"/>
</g>
<!-- Node7 -->
<g id="node13" class="node"><title>Node7</title>
<a xlink:href="namespaceforcebalance_1_1nifty.html#a8e3ef0108b9d37b82ba0dced7c6037ae" target="_top" xlink:title="Matches ANY number; it can be a decimal, scientific notation, what have you CAUTION &#45; this will also ...">
<polygon fill="white" stroke="black" points="1008.5,-95.5 1008.5,-114.5 1139.5,-114.5 1139.5,-95.5 1008.5,-95.5"/>
<text text-anchor="middle" x="1074" y="-102.5" font-family="Ubuntu-R" font-size="10.00">forcebalance.nifty.isfloat</text>
</a>
</g>
<!-- Node4&#45;&gt;Node7 -->
<g id="edge40" class="edge"><title>Node4&#45;&gt;Node7</title>
<path fill="none" stroke="midnightblue" d="M595.134,-140.245C683.614,-137.626 839.225,-131.587 972,-119 981.287,-118.12 991.03,-117.009 1000.65,-115.799"/>
<polygon fill="midnightblue" stroke="midnightblue" points="1001.13,-119.265 1010.6,-114.508 1000.23,-112.323 1001.13,-119.265"/>
</g>
<!-- Node6 -->
<g id="node11" class="node"><title>Node6</title>
<a xlink:href="namespaceforcebalance_1_1nifty.html#a09263927eaec9deff283fbf1a820242f" target="_top" xlink:title="Matches things with a decimal only; see isint and isfloat. ">
<polygon fill="white" stroke="black" points="824,-56.5 824,-75.5 972,-75.5 972,-56.5 824,-56.5"/>
<text text-anchor="middle" x="898" y="-63.5" font-family="Ubuntu-R" font-size="10.00">forcebalance.nifty.isdecimal</text>
</a>
</g>
<!-- Node5&#45;&gt;Node6 -->
<g id="edge10" class="edge"><title>Node5&#45;&gt;Node6</title>
<path fill="none" stroke="midnightblue" d="M763.169,-94.411C787.216,-89.3061 816.974,-82.9887 842.319,-77.6082"/>
<polygon fill="midnightblue" stroke="midnightblue" points="843.1,-81.0205 852.156,-75.5201 841.647,-74.1731 843.1,-81.0205"/>
</g>
<!-- Node6&#45;&gt;Node7 -->
<g id="edge12" class="edge"><title>Node6&#45;&gt;Node7</title>
<path fill="none" stroke="midnightblue" d="M941.565,-75.5405C965.458,-80.8957 995.462,-87.6208 1020.77,-93.293"/>
<polygon fill="midnightblue" stroke="midnightblue" points="1020.05,-96.7186 1030.57,-95.4905 1021.58,-89.8881 1020.05,-96.7186"/>
</g>
<!-- Node11 -->
<g id="node22" class="node"><title>Node11</title>
<a xlink:href="namespaceforcebalance_1_1nifty.html#afb3f205bce4984856e766af7e9fdaca8" target="_top" xlink:title="Given any list, array, or matrix, return a 1&#45;column matrix. ">
<polygon fill="white" stroke="black" points="1016,-55.5 1016,-74.5 1132,-74.5 1132,-55.5 1016,-55.5"/>
<text text-anchor="middle" x="1074" y="-62.5" font-family="Ubuntu-R" font-size="10.00">forcebalance.nifty.col</text>
</a>
</g>
<!-- Node6&#45;&gt;Node11 -->
<g id="edge22" class="edge"><title>Node6&#45;&gt;Node11</title>
<path fill="none" stroke="midnightblue" d="M972.035,-65.5803C983.1,-65.5167 994.475,-65.4513 1005.42,-65.3884"/>
<polygon fill="midnightblue" stroke="midnightblue" points="1005.77,-68.8865 1015.75,-65.329 1005.73,-61.8866 1005.77,-68.8865"/>
</g>
<!-- Node7&#45;&gt;Node5 -->
<g id="edge14" class="edge"><title>Node7&#45;&gt;Node5</title>
<path fill="none" stroke="midnightblue" d="M1008.27,-104.818C946.04,-104.642 852.243,-104.378 788.229,-104.198"/>
<polygon fill="midnightblue" stroke="midnightblue" points="788.231,-100.698 778.221,-104.17 788.211,-107.698 788.231,-100.698"/>
</g>
<!-- Node8 -->
<g id="node16" class="node"><title>Node8</title>
<a xlink:href="namespaceforcebalance_1_1nifty.html#a8d63c8ae9a67c66673a6cf81357f827d" target="_top" xlink:title="Returns a big number if we encounter NaN. ">
<polygon fill="white" stroke="black" points="1176,-96.5 1176,-115.5 1328,-115.5 1328,-96.5 1176,-96.5"/>
<text text-anchor="middle" x="1252" y="-103.5" font-family="Ubuntu-R" font-size="10.00">forcebalance.nifty.floatornan</text>
</a>
</g>
<!-- Node7&#45;&gt;Node8 -->
<g id="edge16" class="edge"><title>Node7&#45;&gt;Node8</title>
<path fill="none" stroke="midnightblue" d="M1139.54,-105.367C1148,-105.415 1156.77,-105.465 1165.51,-105.514"/>
<polygon fill="midnightblue" stroke="midnightblue" points="1165.72,-109.015 1175.74,-105.572 1165.76,-102.016 1165.72,-109.015"/>
</g>
<!-- Node9 -->
<g id="node18" class="node"><title>Node9</title>
<a xlink:href="namespaceforcebalance_1_1nifty.html#a6c9727360cdff8f3011a12cc54d0e86e" target="_top" xlink:title="Given any list, array, or matrix, return a 1&#45;row matrix. ">
<polygon fill="white" stroke="black" points="1380.5,-96.5 1380.5,-115.5 1499.5,-115.5 1499.5,-96.5 1380.5,-96.5"/>
<text text-anchor="middle" x="1440" y="-103.5" font-family="Ubuntu-R" font-size="10.00">forcebalance.nifty.row</text>
</a>
</g>
<!-- Node8&#45;&gt;Node9 -->
<g id="edge18" class="edge"><title>Node8&#45;&gt;Node9</title>
<path fill="none" stroke="midnightblue" d="M1328.12,-106C1342.02,-106 1356.47,-106 1370.17,-106"/>
<polygon fill="midnightblue" stroke="midnightblue" points="1370.48,-109.5 1380.48,-106 1370.48,-102.5 1370.48,-109.5"/>
</g>
<!-- Node10 -->
<g id="node20" class="node"><title>Node10</title>
<a xlink:href="namespaceforcebalance_1_1nifty.html#a7676236002c6a65ea7d2e69a09923889" target="_top" xlink:title="Given two vectors vec1 and vec2, project out the component of vec1 that is along the vec2&#45;direction...">
<polygon fill="white" stroke="black" points="1552,-98.5 1552,-117.5 1720,-117.5 1720,-98.5 1552,-98.5"/>
<text text-anchor="middle" x="1636" y="-105.5" font-family="Ubuntu-R" font-size="10.00">forcebalance.nifty.orthogonalize</text>
</a>
</g>
<!-- Node9&#45;&gt;Node10 -->
<g id="edge20" class="edge"><title>Node9&#45;&gt;Node10</title>
<path fill="none" stroke="midnightblue" d="M1499.73,-106.605C1512.92,-106.741 1527.24,-106.889 1541.46,-107.036"/>
<polygon fill="midnightblue" stroke="midnightblue" points="1541.74,-110.539 1551.78,-107.142 1541.81,-103.539 1541.74,-110.539"/>
</g>
<!-- Node12 -->
<g id="node24" class="node"><title>Node12</title>
<a xlink:href="namespaceforcebalance_1_1nifty.html#a52114ceee9d55f94d9aecb3e176de294" target="_top" xlink:title="Given any list, array, or matrix, return a single&#45;index array. ">
<polygon fill="white" stroke="black" points="1193,-55.5 1193,-74.5 1311,-74.5 1311,-55.5 1193,-55.5"/>
<text text-anchor="middle" x="1252" y="-62.5" font-family="Ubuntu-R" font-size="10.00">forcebalance.nifty.flat</text>
</a>
</g>
<!-- Node11&#45;&gt;Node12 -->
<g id="edge24" class="edge"><title>Node11&#45;&gt;Node12</title>
<path fill="none" stroke="midnightblue" d="M1132.14,-65C1148.27,-65 1165.98,-65 1182.69,-65"/>
<polygon fill="midnightblue" stroke="midnightblue" points="1182.94,-68.5001 1192.94,-65 1182.94,-61.5001 1182.94,-68.5001"/>
</g>
<!-- Node13 -->
<g id="node26" class="node"><title>Node13</title>
<a xlink:href="namespaceforcebalance_1_1nifty.html#a4c82187e92dfeb8a159f4aa44b501c40" target="_top" xlink:title="Invert a matrix using singular value decomposition. ">
<polygon fill="white" stroke="black" points="1364,-17.5 1364,-36.5 1516,-36.5 1516,-17.5 1364,-17.5"/>
<text text-anchor="middle" x="1440" y="-24.5" font-family="Ubuntu-R" font-size="10.00">forcebalance.nifty.invert_svd</text>
</a>
</g>
<!-- Node12&#45;&gt;Node13 -->
<g id="edge26" class="edge"><title>Node12&#45;&gt;Node13</title>
<path fill="none" stroke="midnightblue" d="M1299.94,-55.411C1325.03,-50.2835 1356.12,-43.9328 1382.53,-38.5368"/>
<polygon fill="midnightblue" stroke="midnightblue" points="1383.3,-41.951 1392.4,-36.5201 1381.9,-35.0926 1383.3,-41.951"/>
</g>
<!-- Node13&#45;&gt;Node11 -->
<g id="edge34" class="edge"><title>Node13&#45;&gt;Node11</title>
<path fill="none" stroke="midnightblue" d="M1363.95,-30.1476C1311.22,-32.9143 1239.1,-37.8122 1176,-46 1160.9,-47.9586 1144.65,-50.7219 1129.69,-53.536"/>
<polygon fill="midnightblue" stroke="midnightblue" points="1128.73,-50.1568 1119.57,-55.4831 1130.05,-57.0308 1128.73,-50.1568"/>
</g>
<!-- Node14 -->
<g id="node28" class="node"><title>Node14</title>
<a xlink:href="namespaceforcebalance_1_1nifty.html#aa9fb9c7c65231eca50a7afc04f489b64" target="_top" xlink:title="forcebalance.nifty.get\l_least_squares">
<polygon fill="white" stroke="black" points="1576.5,-49 1576.5,-79 1695.5,-79 1695.5,-49 1576.5,-49"/>
<text text-anchor="start" x="1584.5" y="-67" font-family="Ubuntu-R" font-size="10.00">forcebalance.nifty.get</text>
<text text-anchor="middle" x="1636" y="-56" font-family="Ubuntu-R" font-size="10.00">_least_squares</text>
</a>
</g>
<!-- Node13&#45;&gt;Node14 -->
<g id="edge28" class="edge"><title>Node13&#45;&gt;Node14</title>
<path fill="none" stroke="midnightblue" d="M1490.96,-36.5284C1513.85,-40.8944 1541.36,-46.14 1566.17,-50.8722"/>
<polygon fill="midnightblue" stroke="midnightblue" points="1565.77,-54.3597 1576.25,-52.7952 1567.08,-47.4837 1565.77,-54.3597"/>
</g>
<!-- Node16 -->
<g id="node34" class="node"><title>Node16</title>
<a xlink:href="namespaceforcebalance_1_1nifty.html#abb8f59044961a12588e0653c2baa8b01" target="_top" xlink:title="forcebalance.nifty.warn\l_press_key">
<polygon fill="white" stroke="black" points="1573.5,-0 1573.5,-30 1698.5,-30 1698.5,-0 1573.5,-0"/>
<text text-anchor="start" x="1581.5" y="-18" font-family="Ubuntu-R" font-size="10.00">forcebalance.nifty.warn</text>
<text text-anchor="middle" x="1636" y="-7" font-family="Ubuntu-R" font-size="10.00">_press_key</text>
</a>
</g>
<!-- Node13&#45;&gt;Node16 -->
<g id="edge36" class="edge"><title>Node13&#45;&gt;Node16</title>
<path fill="none" stroke="midnightblue" d="M1516.01,-22.3605C1531.57,-21.3975 1547.94,-20.3851 1563.38,-19.4298"/>
<polygon fill="midnightblue" stroke="midnightblue" points="1563.62,-22.9222 1573.38,-18.8114 1563.18,-15.9356 1563.62,-22.9222"/>
</g>
<!-- Node14&#45;&gt;Node12 -->
<g id="edge30" class="edge"><title>Node14&#45;&gt;Node12</title>
<path fill="none" stroke="midnightblue" d="M1576.44,-64.1533C1507.76,-64.3331 1394.1,-64.6306 1321.43,-64.8209"/>
<polygon fill="midnightblue" stroke="midnightblue" points="1321.01,-61.3219 1311.02,-64.8481 1321.03,-68.3218 1321.01,-61.3219"/>
</g>
<!-- Node15 -->
<g id="node31" class="node"><title>Node15</title>
<a xlink:href="namespaceforcebalance_1_1nifty.html#ad5ca60565c864b4245a8212fe9d92e10" target="_top" xlink:title="Compute the (cross) statistical inefficiency of (two) timeseries. ">
<polygon fill="white" stroke="black" points="1772.5,-49 1772.5,-79 1921.5,-79 1921.5,-49 1772.5,-49"/>
<text text-anchor="start" x="1780.5" y="-67" font-family="Ubuntu-R" font-size="10.00">forcebalance.nifty.statistical</text>
<text text-anchor="middle" x="1847" y="-56" font-family="Ubuntu-R" font-size="10.00">Inefficiency</text>
</a>
</g>
<!-- Node14&#45;&gt;Node15 -->
<g id="edge32" class="edge"><title>Node14&#45;&gt;Node15</title>
<path fill="none" stroke="midnightblue" d="M1695.77,-64C1716.4,-64 1739.99,-64 1762.26,-64"/>
<polygon fill="midnightblue" stroke="midnightblue" points="1762.39,-67.5001 1772.39,-64 1762.39,-60.5001 1762.39,-67.5001"/>
</g>
<!-- Node17 -->
<g id="node36" class="node"><title>Node17</title>
<a xlink:href="namespaceforcebalance_1_1nifty.html#a2fc81730e7efa7d138dd86f733507bfc" target="_top" xlink:title="Similar to the bultin function map(). ">
<polygon fill="white" stroke="black" points="1756,-5.5 1756,-24.5 1938,-24.5 1938,-5.5 1756,-5.5"/>
<text text-anchor="middle" x="1847" y="-12.5" font-family="Ubuntu-R" font-size="10.00">forcebalance.nifty.concurrent_map</text>
</a>
</g>
<!-- Node16&#45;&gt;Node17 -->
<g id="edge38" class="edge"><title>Node16&#45;&gt;Node17</title>
<path fill="none" stroke="midnightblue" d="M1698.58,-15C1713.43,-15 1729.69,-15 1745.81,-15"/>
<polygon fill="midnightblue" stroke="midnightblue" points="1745.82,-18.5001 1755.82,-15 1745.82,-11.5001 1745.82,-18.5001"/>
</g>
<!-- Node18&#45;&gt;Node2 -->
<g id="edge46" class="edge"><title>Node18&#45;&gt;Node2</title>
<path fill="none" stroke="midnightblue" d="M589.539,-245.019C610.731,-249.876 634.132,-255.239 654.983,-260.017"/>
<polygon fill="midnightblue" stroke="midnightblue" points="654.464,-263.489 664.994,-262.311 656.028,-256.666 654.464,-263.489"/>
</g>
<!-- Node18&#45;&gt;Node3 -->
<g id="edge54" class="edge"><title>Node18&#45;&gt;Node3</title>
<path fill="none" stroke="midnightblue" d="M435.962,-236.66C427.448,-236.746 418.768,-236.77 410.16,-236.733"/>
<polygon fill="midnightblue" stroke="midnightblue" points="410.128,-233.233 400.103,-236.66 410.077,-240.233 410.128,-233.233"/>
</g>
<!-- Node19 -->
<g id="node43" class="node"><title>Node19</title>
<a xlink:href="namespaceforcebalance_1_1nifty.html#ac37d4fe58ef70ed546ebfc45d12f7a5d" target="_top" xlink:title="forcebalance.nifty.getWork\lQueue">
<polygon fill="white" stroke="black" points="646.5,-171 646.5,-201 787.5,-201 787.5,-171 646.5,-171"/>
<text text-anchor="start" x="654.5" y="-189" font-family="Ubuntu-R" font-size="10.00">forcebalance.nifty.getWork</text>
<text text-anchor="middle" x="717" y="-178" font-family="Ubuntu-R" font-size="10.00">Queue</text>
</a>
</g>
<!-- Node18&#45;&gt;Node19 -->
<g id="edge48" class="edge"><title>Node18&#45;&gt;Node19</title>
<path fill="none" stroke="midnightblue" d="M589.539,-214.981C605.975,-211.214 623.741,-207.143 640.616,-203.276"/>
<polygon fill="midnightblue" stroke="midnightblue" points="641.466,-206.672 650.431,-201.026 639.902,-199.848 641.466,-206.672"/>
</g>
<!-- Node20 -->
<g id="node45" class="node"><title>Node20</title>
<a xlink:href="namespaceforcebalance_1_1nifty.html#a576de8c5b6f236280e07e73e39b2ab7c" target="_top" xlink:title="This function waits until the work queue is completely empty. ">
<polygon fill="white" stroke="black" points="647,-220.5 647,-239.5 787,-239.5 787,-220.5 647,-220.5"/>
<text text-anchor="middle" x="717" y="-227.5" font-family="Ubuntu-R" font-size="10.00">forcebalance.nifty.wq_wait</text>
</a>
</g>
<!-- Node18&#45;&gt;Node20 -->
<g id="edge50" class="edge"><title>Node18&#45;&gt;Node20</title>
<path fill="none" stroke="midnightblue" d="M610.172,-230C618.985,-230 627.91,-230 636.645,-230"/>
<polygon fill="midnightblue" stroke="midnightblue" points="636.794,-233.5 646.794,-230 636.794,-226.5 636.794,-233.5"/>
</g>
<!-- Node21 -->
<g id="node47" class="node"><title>Node21</title>
<a xlink:href="namespaceforcebalance_1_1nifty.html#ad432b88307e1178b0690c0d350b1af36" target="_top" xlink:title="forcebalance.nifty.GoInto">
<polygon fill="white" stroke="black" points="831,-220.5 831,-239.5 965,-239.5 965,-220.5 831,-220.5"/>
<text text-anchor="middle" x="898" y="-227.5" font-family="Ubuntu-R" font-size="10.00">forcebalance.nifty.GoInto</text>
</a>
</g>
<!-- Node20&#45;&gt;Node21 -->
<g id="edge52" class="edge"><title>Node20&#45;&gt;Node21</title>
<path fill="none" stroke="midnightblue" d="M787.206,-230C798.203,-230 809.632,-230 820.779,-230"/>
<polygon fill="midnightblue" stroke="midnightblue" points="820.917,-233.5 830.917,-230 820.917,-226.5 820.917,-233.5"/>
</g>
</g>
</svg>
