<?xml version="1.0" encoding="UTF-8" standalone="no"?>
<!DOCTYPE svg PUBLIC "-//W3C//DTD SVG 1.1//EN"
 "http://www.w3.org/Graphics/SVG/1.1/DTD/svg11.dtd">
<!-- Generated by graphviz version 2.28.0 (20111219.2309)
 -->
<!-- Title: forcebalance.Mol2.mol2_atom.set_atom_id Pages: 1 -->
<svg width="644pt" height="38pt"
 viewBox="0.00 0.00 644.00 38.00" xmlns="http://www.w3.org/2000/svg" xmlns:xlink="http://www.w3.org/1999/xlink">
<g id="graph1" class="graph" transform="scale(1 1) rotate(0) translate(4 34)">
<title>forcebalance.Mol2.mol2_atom.set_atom_id</title>
<polygon fill="white" stroke="white" points="-4,5 -4,-34 641,-34 641,5 -4,5"/>
<!-- Node1 -->
<g id="node1" class="node"><title>Node1</title>
<polygon fill="#bfbfbf" stroke="black" points="0.5,-0 0.5,-30 131.5,-30 131.5,-0 0.5,-0"/>
<text text-anchor="start" x="8.5" y="-18" font-family="Ubuntu-R" font-size="10.00">forcebalance.Mol2.mol2</text>
<text text-anchor="middle" x="66" y="-7" font-family="Ubuntu-R" font-size="10.00">_atom.set_atom_id</text>
</g>
<!-- Node2 -->
<g id="node3" class="node"><title>Node2</title>
<a xlink:href="classforcebalance_1_1Mol2_1_1mol2__atom.html#a3a6c9728119ace119108183920689a9d" target="_top" xlink:title="the coordinates of the atom ">
<polygon fill="white" stroke="black" points="168.5,-0 168.5,-30 299.5,-30 299.5,-0 168.5,-0"/>
<text text-anchor="start" x="176.5" y="-18" font-family="Ubuntu-R" font-size="10.00">forcebalance.Mol2.mol2</text>
<text text-anchor="middle" x="234" y="-7" font-family="Ubuntu-R" font-size="10.00">_atom.set_crds</text>
</a>
</g>
<!-- Node1&#45;&gt;Node2 -->
<g id="edge2" class="edge"><title>Node1&#45;&gt;Node2</title>
<path fill="none" stroke="midnightblue" d="M131.655,-15C140.292,-15 149.208,-15 158.003,-15"/>
<polygon fill="midnightblue" stroke="midnightblue" points="158.248,-18.5001 168.248,-15 158.248,-11.5001 158.248,-18.5001"/>
</g>
<!-- Node3 -->
<g id="node5" class="node"><title>Node3</title>
<a xlink:href="classforcebalance_1_1Mol2_1_1mol2__atom.html#ae879ba27197a573b6e3e1e97f0b76aff" target="_top" xlink:title="substructure identifier ">
<polygon fill="white" stroke="black" points="336.5,-0 336.5,-30 467.5,-30 467.5,-0 336.5,-0"/>
<text text-anchor="start" x="344.5" y="-18" font-family="Ubuntu-R" font-size="10.00">forcebalance.Mol2.mol2</text>
<text text-anchor="middle" x="402" y="-7" font-family="Ubuntu-R" font-size="10.00">_atom.set_subst_id</text>
</a>
</g>
<!-- Node2&#45;&gt;Node3 -->
<g id="edge4" class="edge"><title>Node2&#45;&gt;Node3</title>
<path fill="none" stroke="midnightblue" d="M299.655,-15C308.292,-15 317.208,-15 326.003,-15"/>
<polygon fill="midnightblue" stroke="midnightblue" points="326.248,-18.5001 336.248,-15 326.248,-11.5001 326.248,-18.5001"/>
</g>
<!-- Node4 -->
<g id="node7" class="node"><title>Node4</title>
<a xlink:href="classforcebalance_1_1Mol2_1_1mol2__atom.html#abfe80eac2952ad867d87e8b6e64f3c09" target="_top" xlink:title="atomic charge ">
<polygon fill="white" stroke="black" points="504.5,-0 504.5,-30 635.5,-30 635.5,-0 504.5,-0"/>
<text text-anchor="start" x="512.5" y="-18" font-family="Ubuntu-R" font-size="10.00">forcebalance.Mol2.mol2</text>
<text text-anchor="middle" x="570" y="-7" font-family="Ubuntu-R" font-size="10.00">_atom.set_charge</text>
</a>
</g>
<!-- Node3&#45;&gt;Node4 -->
<g id="edge6" class="edge"><title>Node3&#45;&gt;Node4</title>
<path fill="none" stroke="midnightblue" d="M467.655,-15C476.292,-15 485.208,-15 494.003,-15"/>
<polygon fill="midnightblue" stroke="midnightblue" points="494.248,-18.5001 504.248,-15 494.248,-11.5001 494.248,-18.5001"/>
</g>
</g>
</svg>
