<?xml version="1.0" encoding="UTF-8" standalone="no"?>
<!DOCTYPE svg PUBLIC "-//W3C//DTD SVG 1.1//EN"
 "http://www.w3.org/Graphics/SVG/1.1/DTD/svg11.dtd">
<!-- Generated by graphviz version 2.26.3 (20100126.1600)
 -->
<!-- Title: forcebalance.forcefield.FF.addff Pages: 1 -->
<svg width="516pt" height="42pt"
 viewBox="0.00 0.00 516.00 42.00" xmlns="http://www.w3.org/2000/svg" xmlns:xlink="http://www.w3.org/1999/xlink">
<g id="graph1" class="graph" transform="scale(1 1) rotate(0) translate(4 38)">
<title>forcebalance.forcefield.FF.addff</title>
<polygon fill="white" stroke="white" points="-4,5 -4,-38 513,-38 513,5 -4,5"/>
<!-- Node1 -->
<g id="node1" class="node"><title>Node1</title>
<polygon fill="#bfbfbf" stroke="black" points="0.5,-0 0.5,-34 127.5,-34 127.5,-0 0.5,-0"/>
<text text-anchor="start" x="8.5" y="-21" font-family="Ubuntu-R" font-size="10.00">forcebalance.forcefield.</text>
<text text-anchor="middle" x="64" y="-8" font-family="Ubuntu-R" font-size="10.00">FF.addff</text>
</g>
<!-- Node2 -->
<g id="node3" class="node"><title>Node2</title>
<a xlink:href="namespaceforcebalance_1_1nifty.html#abb8f59044961a12588e0653c2baa8b01" target="_top" xlink:title="forcebalance.nifty.warn\l_press_key">
<polygon fill="white" stroke="black" points="164.5,-0 164.5,-34 289.5,-34 289.5,-0 164.5,-0"/>
<text text-anchor="start" x="172.5" y="-21" font-family="Ubuntu-R" font-size="10.00">forcebalance.nifty.warn</text>
<text text-anchor="middle" x="227" y="-8" font-family="Ubuntu-R" font-size="10.00">_press_key</text>
</a>
</g>
<!-- Node1&#45;&gt;Node2 -->
<g id="edge2" class="edge"><title>Node1&#45;&gt;Node2</title>
<path fill="none" stroke="midnightblue" d="M127.954,-17C136.544,-17 145.407,-17 154.137,-17"/>
<polygon fill="midnightblue" stroke="midnightblue" points="154.299,-20.5001 164.299,-17 154.299,-13.5001 154.299,-20.5001"/>
</g>
<!-- Node3 -->
<g id="node5" class="node"><title>Node3</title>
<a xlink:href="namespaceforcebalance_1_1nifty.html#a2fc81730e7efa7d138dd86f733507bfc" target="_top" xlink:title="Similar to the bultin function map().">
<polygon fill="white" stroke="black" points="326.5,-6.5 326.5,-27.5 507.5,-27.5 507.5,-6.5 326.5,-6.5"/>
<text text-anchor="middle" x="417" y="-14.5" font-family="Ubuntu-R" font-size="10.00">forcebalance.nifty.concurrent_map</text>
</a>
</g>
<!-- Node2&#45;&gt;Node3 -->
<g id="edge4" class="edge"><title>Node2&#45;&gt;Node3</title>
<path fill="none" stroke="midnightblue" d="M289.74,-17C298.3,-17 307.257,-17 316.283,-17"/>
<polygon fill="midnightblue" stroke="midnightblue" points="316.485,-20.5001 326.485,-17 316.485,-13.5001 316.485,-20.5001"/>
</g>
</g>
</svg>
