<?xml version="1.0" encoding="UTF-8" standalone="no"?>
<!DOCTYPE svg PUBLIC "-//W3C//DTD SVG 1.1//EN"
 "http://www.w3.org/Graphics/SVG/1.1/DTD/svg11.dtd">
<!-- Generated by graphviz version 2.32.0 (20130801.1845)
 -->
<!-- Title: forcebalance.liquid.Liquid.objective_term Pages: 1 -->
<svg width="2166pt" height="674pt"
 viewBox="0.00 0.00 2166.00 674.00" xmlns="http://www.w3.org/2000/svg" xmlns:xlink="http://www.w3.org/1999/xlink">
<g id="graph0" class="graph" transform="scale(1 1) rotate(0) translate(4 670)">
<title>forcebalance.liquid.Liquid.objective_term</title>
<polygon fill="white" stroke="white" points="-4,5 -4,-670 2163,-670 2163,5 -4,5"/>
<!-- Node1 -->
<g id="node1" class="node"><title>Node1</title>
<polygon fill="#bfbfbf" stroke="black" points="0.7225,-427 0.7225,-447 185.278,-447 185.278,-427 0.7225,-427"/>
<text text-anchor="middle" x="93" y="-434" font-family="Ubuntu-R" font-size="10.00">forcebalance.liquid.Liquid.objective_term</text>
</g>
<!-- Node2 -->
<g id="node2" class="node"><title>Node2</title>
<g id="a_node2"><a xlink:href="classforcebalance_1_1liquid_1_1Liquid.html#a716e28bb5572b3273036ac753b7e1e1d" target="_top" xlink:title="forcebalance.liquid.Liquid.submit_jobs">
<polygon fill="white" stroke="black" points="222.265,-493 222.265,-513 395.735,-513 395.735,-493 222.265,-493"/>
<text text-anchor="middle" x="309" y="-500" font-family="Ubuntu-R" font-size="10.00">forcebalance.liquid.Liquid.submit_jobs</text>
</a>
</g>
</g>
<!-- Node1&#45;&gt;Node2 -->
<g id="edge1" class="edge"><title>Node1&#45;&gt;Node2</title>
<path fill="none" stroke="midnightblue" d="M126.502,-447.024C163.769,-458.517 224.97,-477.393 265.866,-490.006"/>
<polygon fill="midnightblue" stroke="midnightblue" points="264.956,-493.387 275.543,-492.99 267.019,-486.698 264.956,-493.387"/>
</g>
<!-- Node3 -->
<g id="node3" class="node"><title>Node3</title>
<g id="a_node3"><a xlink:href="namespaceforcebalance_1_1nifty.html#a2ff762a2f2d2b6bb1c7dd067bd1a1e88" target="_top" xlink:title="Use this instead of pickle.dump for pickling anything that contains _ElementTree types.">
<polygon fill="white" stroke="black" points="440.742,-600 440.742,-620 567.258,-620 567.258,-600 440.742,-600"/>
<text text-anchor="middle" x="504" y="-607" font-family="Ubuntu-R" font-size="10.00">forcebalance.nifty.lp_dump</text>
</a>
</g>
</g>
<!-- Node2&#45;&gt;Node3 -->
<g id="edge2" class="edge"><title>Node2&#45;&gt;Node3</title>
<path fill="none" stroke="midnightblue" d="M322.913,-513.066C344.524,-529.562 389.809,-562.644 432,-584 441.135,-588.624 451.295,-592.844 461.007,-596.477"/>
<polygon fill="midnightblue" stroke="midnightblue" points="459.921,-599.806 470.515,-599.907 462.296,-593.221 459.921,-599.806"/>
</g>
<!-- Node7 -->
<g id="node7" class="node"><title>Node7</title>
<g id="a_node7"><a xlink:href="namespaceforcebalance_1_1optimizer.html#ae1f6c649703a22b2f767a5f6bf53297b" target="_top" xlink:title="forcebalance.optimizer.Counter">
<polygon fill="white" stroke="black" points="432.695,-555 432.695,-575 575.305,-575 575.305,-555 432.695,-555"/>
<text text-anchor="middle" x="504" y="-562" font-family="Ubuntu-R" font-size="10.00">forcebalance.optimizer.Counter</text>
</a>
</g>
</g>
<!-- Node2&#45;&gt;Node7 -->
<g id="edge6" class="edge"><title>Node2&#45;&gt;Node7</title>
<path fill="none" stroke="midnightblue" d="M341.438,-513.099C374.244,-523.638 425.826,-540.208 461.854,-551.782"/>
<polygon fill="midnightblue" stroke="midnightblue" points="460.984,-555.179 471.575,-554.905 463.125,-548.514 460.984,-555.179"/>
</g>
<!-- Node9 -->
<g id="node9" class="node"><title>Node9</title>
<g id="a_node9"><a xlink:href="namespaceforcebalance_1_1nifty.html#abb8f59044961a12588e0653c2baa8b01" target="_top" xlink:title="forcebalance.nifty.warn\l_press_key">
<polygon fill="white" stroke="black" points="1837.53,-270 1837.53,-302 1948.47,-302 1948.47,-270 1837.53,-270"/>
<text text-anchor="start" x="1845.53" y="-289" font-family="Ubuntu-R" font-size="10.00">forcebalance.nifty.warn</text>
<text text-anchor="middle" x="1893" y="-277" font-family="Ubuntu-R" font-size="10.00">_press_key</text>
</a>
</g>
</g>
<!-- Node2&#45;&gt;Node9 -->
<g id="edge8" class="edge"><title>Node2&#45;&gt;Node9</title>
<path fill="none" stroke="midnightblue" d="M395.989,-511.044C474.356,-517.677 593.349,-526 697,-526 697,-526 697,-526 1549,-526 1654.66,-526 1697.88,-551.218 1784,-490 1845.54,-446.259 1874.99,-356.415 1886.26,-312.014"/>
<polygon fill="midnightblue" stroke="midnightblue" points="1889.67,-312.802 1888.62,-302.259 1882.86,-311.152 1889.67,-312.802"/>
</g>
<!-- Node11 -->
<g id="node11" class="node"><title>Node11</title>
<g id="a_node11"><a xlink:href="classforcebalance_1_1liquid_1_1Liquid.html#a07a59f9f335693329b789a9c7608fc9f" target="_top" xlink:title="Submit a NPT simulation to the Work Queue.">
<polygon fill="white" stroke="black" points="435.323,-465 435.323,-497 572.677,-497 572.677,-465 435.323,-465"/>
<text text-anchor="start" x="443.323" y="-484" font-family="Ubuntu-R" font-size="10.00">forcebalance.liquid.Liquid.npt</text>
<text text-anchor="middle" x="504" y="-472" font-family="Ubuntu-R" font-size="10.00">_simulation</text>
</a>
</g>
</g>
<!-- Node2&#45;&gt;Node11 -->
<g id="edge10" class="edge"><title>Node2&#45;&gt;Node11</title>
<path fill="none" stroke="midnightblue" d="M395.777,-493.222C405.565,-492.107 415.502,-490.974 425.179,-489.871"/>
<polygon fill="midnightblue" stroke="midnightblue" points="425.612,-493.344 435.152,-488.734 424.819,-486.389 425.612,-493.344"/>
</g>
<!-- Node21 -->
<g id="node21" class="node"><title>Node21</title>
<g id="a_node21"><a xlink:href="classforcebalance_1_1liquid_1_1Liquid.html#a802c4139e5c002fabdeab5de88093880" target="_top" xlink:title="Fitting of liquid bulk properties.">
<polygon fill="white" stroke="black" points="435.603,-246 435.603,-266 572.397,-266 572.397,-246 435.603,-246"/>
<text text-anchor="middle" x="504" y="-253" font-family="Ubuntu-R" font-size="10.00">forcebalance.liquid.Liquid.get</text>
</a>
</g>
</g>
<!-- Node2&#45;&gt;Node21 -->
<g id="edge21" class="edge"><title>Node2&#45;&gt;Node21</title>
<path fill="none" stroke="midnightblue" d="M318.047,-492.701C347.665,-454.796 450.856,-322.733 488.832,-274.132"/>
<polygon fill="midnightblue" stroke="midnightblue" points="491.732,-276.105 495.132,-266.07 486.217,-271.795 491.732,-276.105"/>
</g>
<!-- Node4 -->
<g id="node4" class="node"><title>Node4</title>
<g id="a_node4"><a xlink:href="namespaceforcebalance_1_1nifty.html#abe1e72c32252d62a6551b47290c7584f" target="_top" xlink:title="forcebalance.nifty.getWQIds">
<polygon fill="white" stroke="black" points="631.974,-645 631.974,-665 764.026,-665 764.026,-645 631.974,-645"/>
<text text-anchor="middle" x="698" y="-652" font-family="Ubuntu-R" font-size="10.00">forcebalance.nifty.getWQIds</text>
</a>
</g>
</g>
<!-- Node3&#45;&gt;Node4 -->
<g id="edge3" class="edge"><title>Node3&#45;&gt;Node4</title>
<path fill="none" stroke="midnightblue" d="M548.089,-620.099C576.498,-626.757 613.898,-635.523 644.109,-642.604"/>
<polygon fill="midnightblue" stroke="midnightblue" points="643.52,-646.06 654.055,-644.935 645.118,-639.245 643.52,-646.06"/>
</g>
<!-- Node5 -->
<g id="node5" class="node"><title>Node5</title>
<g id="a_node5"><a xlink:href="namespaceforcebalance_1_1nifty.html#ab5f3072ad95e9c75659cb1adac341051" target="_top" xlink:title="forcebalance.nifty.create\lWorkQueue">
<polygon fill="white" stroke="black" points="640.589,-594 640.589,-626 755.411,-626 755.411,-594 640.589,-594"/>
<text text-anchor="start" x="648.589" y="-613" font-family="Ubuntu-R" font-size="10.00">forcebalance.nifty.create</text>
<text text-anchor="middle" x="698" y="-601" font-family="Ubuntu-R" font-size="10.00">WorkQueue</text>
</a>
</g>
</g>
<!-- Node3&#45;&gt;Node5 -->
<g id="edge4" class="edge"><title>Node3&#45;&gt;Node5</title>
<path fill="none" stroke="midnightblue" d="M567.337,-610C587.476,-610 609.879,-610 630.32,-610"/>
<polygon fill="midnightblue" stroke="midnightblue" points="630.492,-613.5 640.492,-610 630.492,-606.5 630.492,-613.5"/>
</g>
<!-- Node6 -->
<g id="node6" class="node"><title>Node6</title>
<g id="a_node6"><a xlink:href="namespaceforcebalance_1_1nifty.html#a5d5abeb4a185fde64721d044831e18ee" target="_top" xlink:title="Submit a job to the Work Queue.">
<polygon fill="white" stroke="black" points="834.582,-594 834.582,-626 949.418,-626 949.418,-594 834.582,-594"/>
<text text-anchor="start" x="842.582" y="-613" font-family="Ubuntu-R" font-size="10.00">forcebalance.nifty.queue</text>
<text text-anchor="middle" x="892" y="-601" font-family="Ubuntu-R" font-size="10.00">_up_src_dest</text>
</a>
</g>
</g>
<!-- Node5&#45;&gt;Node6 -->
<g id="edge5" class="edge"><title>Node5&#45;&gt;Node6</title>
<path fill="none" stroke="midnightblue" d="M755.568,-610C777.151,-610 801.952,-610 824.385,-610"/>
<polygon fill="midnightblue" stroke="midnightblue" points="824.505,-613.5 834.505,-610 824.505,-606.5 824.505,-613.5"/>
</g>
<!-- Node8 -->
<g id="node8" class="node"><title>Node8</title>
<g id="a_node8"><a xlink:href="namespaceforcebalance_1_1optimizer.html#ab43948ecf30c90d319e0c0b107fe484a" target="_top" xlink:title="forcebalance.optimizer.GoodStep">
<polygon fill="white" stroke="black" points="622.805,-555 622.805,-575 773.195,-575 773.195,-555 622.805,-555"/>
<text text-anchor="middle" x="698" y="-562" font-family="Ubuntu-R" font-size="10.00">forcebalance.optimizer.GoodStep</text>
</a>
</g>
</g>
<!-- Node7&#45;&gt;Node8 -->
<g id="edge7" class="edge"><title>Node7&#45;&gt;Node8</title>
<path fill="none" stroke="midnightblue" d="M575.403,-565C587.444,-565 600.064,-565 612.427,-565"/>
<polygon fill="midnightblue" stroke="midnightblue" points="612.733,-568.5 622.733,-565 612.733,-561.5 612.733,-568.5"/>
</g>
<!-- Node10 -->
<g id="node10" class="node"><title>Node10</title>
<g id="a_node10"><a xlink:href="namespaceforcebalance_1_1nifty.html#a2fc81730e7efa7d138dd86f733507bfc" target="_top" xlink:title="Similar to the bultin function map().">
<polygon fill="white" stroke="black" points="2002.04,-276 2002.04,-296 2157.97,-296 2157.97,-276 2002.04,-276"/>
<text text-anchor="middle" x="2080" y="-283" font-family="Ubuntu-R" font-size="10.00">forcebalance.nifty.concurrent_map</text>
</a>
</g>
</g>
<!-- Node9&#45;&gt;Node10 -->
<g id="edge9" class="edge"><title>Node9&#45;&gt;Node10</title>
<path fill="none" stroke="midnightblue" d="M1948.51,-286C1962.1,-286 1977.02,-286 1991.77,-286"/>
<polygon fill="midnightblue" stroke="midnightblue" points="1991.92,-289.5 2001.92,-286 1991.92,-282.5 1991.92,-289.5"/>
</g>
<!-- Node12 -->
<g id="node12" class="node"><title>Node12</title>
<g id="a_node12"><a xlink:href="namespaceforcebalance_1_1nifty.html#a673f4a044169f5d8d822823989a836a7" target="_top" xlink:title="Submit a job to the Work Queue.">
<polygon fill="white" stroke="black" points="827.082,-438 827.082,-458 956.918,-458 956.918,-438 827.082,-438"/>
<text text-anchor="middle" x="892" y="-445" font-family="Ubuntu-R" font-size="10.00">forcebalance.nifty.queue_up</text>
</a>
</g>
</g>
<!-- Node11&#45;&gt;Node12 -->
<g id="edge11" class="edge"><title>Node11&#45;&gt;Node12</title>
<path fill="none" stroke="midnightblue" d="M572.732,-477.083C629.28,-473.587 711.978,-467.952 784,-461 794.624,-459.974 805.826,-458.76 816.821,-457.493"/>
<polygon fill="midnightblue" stroke="midnightblue" points="817.313,-460.959 826.837,-456.318 816.497,-454.007 817.313,-460.959"/>
</g>
<!-- Node20 -->
<g id="node20" class="node"><title>Node20</title>
<g id="a_node20"><a xlink:href="classforcebalance_1_1liquid_1_1Liquid.html#ae94ce30dfd0e92fdd6d746e6743be844" target="_top" xlink:title="forcebalance.liquid.Liquid.indicate">
<polygon fill="white" stroke="black" points="619.885,-432 619.885,-452 776.115,-452 776.115,-432 619.885,-432"/>
<text text-anchor="middle" x="698" y="-439" font-family="Ubuntu-R" font-size="10.00">forcebalance.liquid.Liquid.indicate</text>
</a>
</g>
</g>
<!-- Node11&#45;&gt;Node20 -->
<g id="edge20" class="edge"><title>Node11&#45;&gt;Node20</title>
<path fill="none" stroke="midnightblue" d="M572.692,-467.25C593.939,-462.934 617.218,-458.206 637.828,-454.019"/>
<polygon fill="midnightblue" stroke="midnightblue" points="638.607,-457.433 647.71,-452.012 637.214,-450.573 638.607,-457.433"/>
</g>
<!-- Node13 -->
<g id="node13" class="node"><title>Node13</title>
<g id="a_node13"><a xlink:href="namespaceforcebalance_1_1nifty.html#a374aac2ef003be02fab49b20ff0a82f0" target="_top" xlink:title="This function waits ten seconds to see if a task in the Work Queue has finished.">
<polygon fill="white" stroke="black" points="1011.41,-432 1011.41,-464 1114.59,-464 1114.59,-432 1011.41,-432"/>
<text text-anchor="start" x="1019.41" y="-451" font-family="Ubuntu-R" font-size="10.00">forcebalance.nifty.wq</text>
<text text-anchor="middle" x="1063" y="-439" font-family="Ubuntu-R" font-size="10.00">_wait1</text>
</a>
</g>
</g>
<!-- Node12&#45;&gt;Node13 -->
<g id="edge12" class="edge"><title>Node12&#45;&gt;Node13</title>
<path fill="none" stroke="midnightblue" d="M957.374,-448C971.71,-448 986.868,-448 1001.06,-448"/>
<polygon fill="midnightblue" stroke="midnightblue" points="1001.2,-451.5 1011.2,-448 1001.2,-444.5 1001.2,-451.5"/>
</g>
<!-- Node14 -->
<g id="node14" class="node"><title>Node14</title>
<g id="a_node14"><a xlink:href="namespaceforcebalance_1_1nifty.html#a576de8c5b6f236280e07e73e39b2ab7c" target="_top" xlink:title="This function waits until the work queue is completely empty.">
<polygon fill="white" stroke="black" points="1164.3,-477 1164.3,-497 1289.7,-497 1289.7,-477 1164.3,-477"/>
<text text-anchor="middle" x="1227" y="-484" font-family="Ubuntu-R" font-size="10.00">forcebalance.nifty.wq_wait</text>
</a>
</g>
</g>
<!-- Node13&#45;&gt;Node14 -->
<g id="edge13" class="edge"><title>Node13&#45;&gt;Node14</title>
<path fill="none" stroke="midnightblue" d="M1114.81,-460.233C1133.86,-464.817 1155.5,-470.027 1174.59,-474.625"/>
<polygon fill="midnightblue" stroke="midnightblue" points="1173.78,-478.028 1184.32,-476.966 1175.42,-471.223 1173.78,-478.028"/>
</g>
<!-- Node15 -->
<g id="node15" class="node"><title>Node15</title>
<g id="a_node15"><a xlink:href="namespaceforcebalance_1_1nifty.html#ac9ab6c5543a2e3080061e0024850edf3" target="_top" xlink:title="forcebalance.nifty.allsplit">
<polygon fill="white" stroke="black" points="1327.91,-455 1327.91,-475 1446.09,-475 1446.09,-455 1327.91,-455"/>
<text text-anchor="middle" x="1387" y="-462" font-family="Ubuntu-R" font-size="10.00">forcebalance.nifty.allsplit</text>
</a>
</g>
</g>
<!-- Node13&#45;&gt;Node15 -->
<g id="edge18" class="edge"><title>Node13&#45;&gt;Node15</title>
<path fill="none" stroke="midnightblue" d="M1114.67,-450.675C1169.33,-453.561 1256.69,-458.173 1317.46,-461.382"/>
<polygon fill="midnightblue" stroke="midnightblue" points="1317.56,-464.891 1327.73,-461.924 1317.93,-457.901 1317.56,-464.891"/>
</g>
<!-- Node18 -->
<g id="node18" class="node"><title>Node18</title>
<g id="a_node18"><a xlink:href="namespaceforcebalance_1_1nifty.html#ad432b88307e1178b0690c0d350b1af36" target="_top" xlink:title="forcebalance.nifty.GoInto">
<polygon fill="white" stroke="black" points="1167.36,-399 1167.36,-419 1286.64,-419 1286.64,-399 1167.36,-399"/>
<text text-anchor="middle" x="1227" y="-406" font-family="Ubuntu-R" font-size="10.00">forcebalance.nifty.GoInto</text>
</a>
</g>
</g>
<!-- Node13&#45;&gt;Node18 -->
<g id="edge17" class="edge"><title>Node13&#45;&gt;Node18</title>
<path fill="none" stroke="midnightblue" d="M1114.81,-435.767C1133.86,-431.183 1155.5,-425.973 1174.59,-421.375"/>
<polygon fill="midnightblue" stroke="midnightblue" points="1175.42,-424.777 1184.32,-419.034 1173.78,-417.972 1175.42,-424.777"/>
</g>
<!-- Node19 -->
<g id="node19" class="node"><title>Node19</title>
<g id="a_node19"><a xlink:href="namespaceforcebalance_1_1nifty.html#ab04e8690d099db2379dc860e0d040120" target="_top" xlink:title="forcebalance.nifty.Leave">
<polygon fill="white" stroke="black" points="1169.31,-360 1169.31,-380 1284.69,-380 1284.69,-360 1169.31,-360"/>
<text text-anchor="middle" x="1227" y="-367" font-family="Ubuntu-R" font-size="10.00">forcebalance.nifty.Leave</text>
</a>
</g>
</g>
<!-- Node13&#45;&gt;Node19 -->
<g id="edge19" class="edge"><title>Node13&#45;&gt;Node19</title>
<path fill="none" stroke="midnightblue" d="M1107.66,-431.95C1114,-428.981 1120.3,-425.65 1126,-422 1144.28,-410.296 1143.11,-399.696 1162,-389 1165.42,-387.063 1169.06,-385.307 1172.79,-383.716"/>
<polygon fill="midnightblue" stroke="midnightblue" points="1174.14,-386.949 1182.22,-380.096 1171.63,-380.414 1174.14,-386.949"/>
</g>
<!-- Node14&#45;&gt;Node15 -->
<g id="edge14" class="edge"><title>Node14&#45;&gt;Node15</title>
<path fill="none" stroke="midnightblue" d="M1289.99,-478.368C1299.13,-477.095 1308.6,-475.778 1317.86,-474.489"/>
<polygon fill="midnightblue" stroke="midnightblue" points="1318.38,-477.95 1327.8,-473.104 1317.41,-471.017 1318.38,-477.95"/>
</g>
<!-- Node16 -->
<g id="node16" class="node"><title>Node16</title>
<g id="a_node16"><a xlink:href="namespaceforcebalance_1_1nifty.html#ae87c7def5f8edf2ec30737bdb1d2636f" target="_top" xlink:title="forcebalance.nifty.Missing\lFileInspection">
<polygon fill="white" stroke="black" points="1486.41,-449 1486.41,-481 1609.59,-481 1609.59,-449 1486.41,-449"/>
<text text-anchor="start" x="1494.41" y="-468" font-family="Ubuntu-R" font-size="10.00">forcebalance.nifty.Missing</text>
<text text-anchor="middle" x="1548" y="-456" font-family="Ubuntu-R" font-size="10.00">FileInspection</text>
</a>
</g>
</g>
<!-- Node15&#45;&gt;Node16 -->
<g id="edge15" class="edge"><title>Node15&#45;&gt;Node16</title>
<path fill="none" stroke="midnightblue" d="M1446.3,-465C1455.97,-465 1466.09,-465 1476.03,-465"/>
<polygon fill="midnightblue" stroke="midnightblue" points="1476.3,-468.5 1486.3,-465 1476.3,-461.5 1476.3,-468.5"/>
</g>
<!-- Node17 -->
<g id="node17" class="node"><title>Node17</title>
<g id="a_node17"><a xlink:href="namespaceforcebalance_1_1nifty.html#a0cf4e58f90acf20e3d6224be2354082c" target="_top" xlink:title="forcebalance.nifty.link\l_dir_contents">
<polygon fill="white" stroke="black" points="1663.74,-449 1663.74,-481 1770.26,-481 1770.26,-449 1663.74,-449"/>
<text text-anchor="start" x="1671.74" y="-468" font-family="Ubuntu-R" font-size="10.00">forcebalance.nifty.link</text>
<text text-anchor="middle" x="1717" y="-456" font-family="Ubuntu-R" font-size="10.00">_dir_contents</text>
</a>
</g>
</g>
<!-- Node16&#45;&gt;Node17 -->
<g id="edge16" class="edge"><title>Node16&#45;&gt;Node17</title>
<path fill="none" stroke="midnightblue" d="M1609.76,-465C1623.95,-465 1639.08,-465 1653.34,-465"/>
<polygon fill="midnightblue" stroke="midnightblue" points="1653.55,-468.5 1663.55,-465 1653.55,-461.5 1653.55,-468.5"/>
</g>
<!-- Node21&#45;&gt;Node1 -->
<g id="edge62" class="edge"><title>Node21&#45;&gt;Node1</title>
<path fill="none" stroke="midnightblue" d="M480.295,-266.048C411.702,-296.403 206.425,-387.247 126.423,-422.651"/>
<polygon fill="midnightblue" stroke="midnightblue" points="124.594,-419.633 116.866,-426.881 127.427,-426.034 124.594,-419.633"/>
</g>
<!-- Node22 -->
<g id="node22" class="node"><title>Node22</title>
<g id="a_node22"><a xlink:href="namespaceforcebalance_1_1nifty.html#a577abfd36638c5f4dfdade136abaef12" target="_top" xlink:title="Use this instead of pickle.load for unpickling anything that contains _ElementTree types...">
<polygon fill="white" stroke="black" points="637.523,-393 637.523,-413 758.477,-413 758.477,-393 637.523,-393"/>
<text text-anchor="middle" x="698" y="-400" font-family="Ubuntu-R" font-size="10.00">forcebalance.nifty.lp_load</text>
</a>
</g>
</g>
<!-- Node21&#45;&gt;Node22 -->
<g id="edge22" class="edge"><title>Node21&#45;&gt;Node22</title>
<path fill="none" stroke="midnightblue" d="M510.447,-266.137C524.07,-290.458 562.131,-352.365 612,-383 616.965,-386.05 622.355,-388.635 627.931,-390.826"/>
<polygon fill="midnightblue" stroke="midnightblue" points="626.853,-394.157 637.448,-394.154 629.164,-387.549 626.853,-394.157"/>
</g>
<!-- Node23 -->
<g id="node23" class="node"><title>Node23</title>
<g id="a_node23"><a xlink:href="classforcebalance_1_1gmxio_1_1Liquid__GMX.html#a70a950655df19e6ed0365ba873fd0cc5" target="_top" xlink:title="forcebalance.gmxio.Liquid\l_GMX.polarization_correction">
<polygon fill="white" stroke="black" points="627.939,-342 627.939,-374 768.061,-374 768.061,-342 627.939,-342"/>
<text text-anchor="start" x="635.939" y="-361" font-family="Ubuntu-R" font-size="10.00">forcebalance.gmxio.Liquid</text>
<text text-anchor="middle" x="698" y="-349" font-family="Ubuntu-R" font-size="10.00">_GMX.polarization_correction</text>
</a>
</g>
</g>
<!-- Node21&#45;&gt;Node23 -->
<g id="edge24" class="edge"><title>Node21&#45;&gt;Node23</title>
<path fill="none" stroke="midnightblue" d="M516.398,-266.001C535.141,-281.988 574.177,-313.391 612,-332 616.556,-334.242 621.346,-336.337 626.233,-338.286"/>
<polygon fill="midnightblue" stroke="midnightblue" points="625.125,-341.608 635.717,-341.854 627.59,-335.057 625.125,-341.608"/>
</g>
<!-- Node28 -->
<g id="node28" class="node"><title>Node28</title>
<g id="a_node28"><a xlink:href="classforcebalance_1_1liquid_1_1Liquid.html#a51ea9d9fb4418ec2497fe8e2d8033d41" target="_top" xlink:title="Return the self&#45;polarization correction as described in Berendsen et al., JPC 1987.">
<polygon fill="white" stroke="black" points="611.832,-291 611.832,-323 784.168,-323 784.168,-291 611.832,-291"/>
<text text-anchor="start" x="619.832" y="-310" font-family="Ubuntu-R" font-size="10.00">forcebalance.liquid.Liquid.polarization</text>
<text text-anchor="middle" x="698" y="-298" font-family="Ubuntu-R" font-size="10.00">_correction</text>
</a>
</g>
</g>
<!-- Node21&#45;&gt;Node28 -->
<g id="edge32" class="edge"><title>Node21&#45;&gt;Node28</title>
<path fill="none" stroke="midnightblue" d="M542.933,-266.076C566.787,-272.412 598.301,-280.783 626.611,-288.303"/>
<polygon fill="midnightblue" stroke="midnightblue" points="625.909,-291.738 636.472,-290.922 627.706,-284.972 625.909,-291.738"/>
</g>
<!-- Node29 -->
<g id="node29" class="node"><title>Node29</title>
<g id="a_node29"><a xlink:href="namespaceforcebalance_1_1finite__difference.html#aa69a8819e4680091f400303c1d6ddeb7" target="_top" xlink:title="A three&#45;point finite difference stencil.">
<polygon fill="white" stroke="black" points="651.824,-240 651.824,-272 744.176,-272 744.176,-240 651.824,-240"/>
<text text-anchor="start" x="659.824" y="-259" font-family="Ubuntu-R" font-size="10.00">forcebalance.finite</text>
<text text-anchor="middle" x="698" y="-247" font-family="Ubuntu-R" font-size="10.00">_difference.f12d3p</text>
</a>
</g>
</g>
<!-- Node21&#45;&gt;Node29 -->
<g id="edge33" class="edge"><title>Node21&#45;&gt;Node29</title>
<path fill="none" stroke="midnightblue" d="M572.422,-256C594.986,-256 619.869,-256 641.424,-256"/>
<polygon fill="midnightblue" stroke="midnightblue" points="641.714,-259.5 651.714,-256 641.714,-252.5 641.714,-259.5"/>
</g>
<!-- Node31 -->
<g id="node31" class="node"><title>Node31</title>
<g id="a_node31"><a xlink:href="namespaceforcebalance_1_1finite__difference.html#ae484c591ae8c4e5bae73a0ef2660c339" target="_top" xlink:title="A function wrapper for finite difference designed for differentiating &#39;get&#39;&#45;type functions.">
<polygon fill="white" stroke="black" points="845.831,-240 845.831,-272 938.169,-272 938.169,-240 845.831,-240"/>
<text text-anchor="start" x="853.831" y="-259" font-family="Ubuntu-R" font-size="10.00">forcebalance.finite</text>
<text text-anchor="middle" x="892" y="-247" font-family="Ubuntu-R" font-size="10.00">_difference.fdwrap</text>
</a>
</g>
</g>
<!-- Node21&#45;&gt;Node31 -->
<g id="edge39" class="edge"><title>Node21&#45;&gt;Node31</title>
<path fill="none" stroke="midnightblue" d="M537.411,-245.989C558.441,-240.027 586.565,-233.046 612,-230 687.902,-220.91 708.098,-220.91 784,-230 800.976,-232.033 819.151,-235.819 835.614,-239.885"/>
<polygon fill="midnightblue" stroke="midnightblue" points="835.063,-243.356 845.618,-242.439 836.795,-236.574 835.063,-243.356"/>
</g>
<!-- Node34 -->
<g id="node34" class="node"><title>Node34</title>
<g id="a_node34"><a xlink:href="namespaceforcebalance_1_1nifty.html#a11babd62dc7bca389162c6318f9672ca" target="_top" xlink:title="Cool&#45;looking printout for slick formatting of output.">
<polygon fill="white" stroke="black" points="634.468,-162 634.468,-182 761.532,-182 761.532,-162 634.468,-162"/>
<text text-anchor="middle" x="698" y="-169" font-family="Ubuntu-R" font-size="10.00">forcebalance.nifty.printcool</text>
</a>
</g>
</g>
<!-- Node21&#45;&gt;Node34 -->
<g id="edge40" class="edge"><title>Node21&#45;&gt;Node34</title>
<path fill="none" stroke="midnightblue" d="M520.767,-245.869C541.171,-233.101 578.127,-211.122 612,-197 622.871,-192.468 634.843,-188.41 646.286,-184.949"/>
<polygon fill="midnightblue" stroke="midnightblue" points="647.546,-188.227 656.163,-182.064 645.583,-181.508 647.546,-188.227"/>
</g>
<!-- Node42 -->
<g id="node42" class="node"><title>Node42</title>
<g id="a_node42"><a xlink:href="namespaceforcebalance_1_1nifty.html#afb3f205bce4984856e766af7e9fdaca8" target="_top" xlink:title="Given any list, array, or matrix, return a 1&#45;column matrix.">
<polygon fill="white" stroke="black" points="1335.41,-95 1335.41,-115 1438.59,-115 1438.59,-95 1335.41,-95"/>
<text text-anchor="middle" x="1387" y="-102" font-family="Ubuntu-R" font-size="10.00">forcebalance.nifty.col</text>
</a>
</g>
</g>
<!-- Node21&#45;&gt;Node42 -->
<g id="edge61" class="edge"><title>Node21&#45;&gt;Node42</title>
<path fill="none" stroke="midnightblue" d="M512.294,-245.873C527.994,-224.865 567.215,-176.468 612,-152 723.732,-90.9551 763.679,-87 891,-87 891,-87 891,-87 1064,-87 1155.15,-87 1260.58,-94.2787 1325.27,-99.579"/>
<polygon fill="midnightblue" stroke="midnightblue" points="1325.04,-103.072 1335.3,-100.411 1325.62,-96.0958 1325.04,-103.072"/>
</g>
<!-- Node43 -->
<g id="node43" class="node"><title>Node43</title>
<g id="a_node43"><a xlink:href="namespaceforcebalance_1_1nifty.html#a52114ceee9d55f94d9aecb3e176de294" target="_top" xlink:title="Given any list, array, or matrix, return a single&#45;index array.">
<polygon fill="white" stroke="black" points="1495.86,-73 1495.86,-93 1600.14,-93 1600.14,-73 1495.86,-73"/>
<text text-anchor="middle" x="1548" y="-80" font-family="Ubuntu-R" font-size="10.00">forcebalance.nifty.flat</text>
</a>
</g>
</g>
<!-- Node21&#45;&gt;Node43 -->
<g id="edge59" class="edge"><title>Node21&#45;&gt;Node43</title>
<path fill="none" stroke="midnightblue" d="M508.067,-245.909C517.733,-215.999 550.622,-127.452 612,-88 717.324,-20.2998 765.794,-49 891,-49 891,-49 891,-49 1228,-49 1318.14,-49 1421.8,-62.5888 1485.86,-72.5848"/>
<polygon fill="midnightblue" stroke="midnightblue" points="1485.37,-76.0507 1495.8,-74.1557 1486.47,-69.1366 1485.37,-76.0507"/>
</g>
<!-- Node47 -->
<g id="node47" class="node"><title>Node47</title>
<g id="a_node47"><a xlink:href="namespaceforcebalance_1_1liquid.html#a6f7d54263236f8788c319aee86b460b6" target="_top" xlink:title="forcebalance.liquid.weight_info">
<polygon fill="white" stroke="black" points="626.134,-0 626.134,-20 769.866,-20 769.866,-0 626.134,-0"/>
<text text-anchor="middle" x="698" y="-7" font-family="Ubuntu-R" font-size="10.00">forcebalance.liquid.weight_info</text>
</a>
</g>
</g>
<!-- Node21&#45;&gt;Node47 -->
<g id="edge60" class="edge"><title>Node21&#45;&gt;Node47</title>
<path fill="none" stroke="midnightblue" d="M506.875,-245.859C513.873,-210.935 541.752,-94.5273 612,-35 617.204,-30.5903 623.155,-26.9582 629.439,-23.9666"/>
<polygon fill="midnightblue" stroke="midnightblue" points="630.967,-27.1212 638.835,-20.0258 628.26,-20.6659 630.967,-27.1212"/>
</g>
<!-- Node22&#45;&gt;Node12 -->
<g id="edge23" class="edge"><title>Node22&#45;&gt;Node12</title>
<path fill="none" stroke="midnightblue" d="M744.472,-413.002C757.268,-415.86 771.188,-419.012 784,-422 802.364,-426.283 822.462,-431.126 840.232,-435.461"/>
<polygon fill="midnightblue" stroke="midnightblue" points="839.849,-438.97 850.394,-437.946 841.512,-432.171 839.849,-438.97"/>
</g>
<!-- Node24 -->
<g id="node24" class="node"><title>Node24</title>
<g id="a_node24"><a xlink:href="classforcebalance_1_1gmxio_1_1Liquid__GMX.html#a858330327e84a1186b9a932fe2437489" target="_top" xlink:title="forcebalance.gmxio.Liquid\l_GMX.__init__">
<polygon fill="white" stroke="black" points="1000.85,-381 1000.85,-413 1125.15,-413 1125.15,-381 1000.85,-381"/>
<text text-anchor="start" x="1008.85" y="-400" font-family="Ubuntu-R" font-size="10.00">forcebalance.gmxio.Liquid</text>
<text text-anchor="middle" x="1063" y="-388" font-family="Ubuntu-R" font-size="10.00">_GMX.__init__</text>
</a>
</g>
</g>
<!-- Node23&#45;&gt;Node24 -->
<g id="edge25" class="edge"><title>Node23&#45;&gt;Node24</title>
<path fill="none" stroke="midnightblue" d="M767.811,-374.029C784.789,-377.482 802.986,-380.762 820,-383 877.165,-390.518 942.455,-393.999 990.801,-395.611"/>
<polygon fill="midnightblue" stroke="midnightblue" points="990.746,-399.111 1000.85,-395.927 990.967,-392.114 990.746,-399.111"/>
</g>
<!-- Node25 -->
<g id="node25" class="node"><title>Node25</title>
<g id="a_node25"><a xlink:href="classforcebalance_1_1gmxio_1_1Liquid__GMX.html#a499a65278055bae95d3789ed74f6dc60" target="_top" xlink:title="Prepare the temporary directory by copying in important files.">
<polygon fill="white" stroke="black" points="820.553,-342 820.553,-374 963.447,-374 963.447,-342 820.553,-342"/>
<text text-anchor="start" x="828.553" y="-361" font-family="Ubuntu-R" font-size="10.00">forcebalance.gmxio.Liquid</text>
<text text-anchor="middle" x="892" y="-349" font-family="Ubuntu-R" font-size="10.00">_GMX.prepare_temp_directory</text>
</a>
</g>
</g>
<!-- Node23&#45;&gt;Node25 -->
<g id="edge27" class="edge"><title>Node23&#45;&gt;Node25</title>
<path fill="none" stroke="midnightblue" d="M768.316,-351.487C781.973,-351.238 796.412,-351.185 810.404,-351.328"/>
<polygon fill="midnightblue" stroke="midnightblue" points="810.447,-354.829 820.494,-351.466 810.543,-347.829 810.447,-354.829"/>
</g>
<!-- Node24&#45;&gt;Node9 -->
<g id="edge26" class="edge"><title>Node24&#45;&gt;Node9</title>
<path fill="none" stroke="midnightblue" d="M1104.37,-380.974C1111.65,-377.831 1119.11,-374.438 1126,-371 1142.58,-362.734 1144.34,-355.586 1162,-350 1257.26,-319.868 1286.09,-331 1386,-331 1386,-331 1386,-331 1549,-331 1646.54,-331 1758.37,-312.888 1827.1,-299.645"/>
<polygon fill="midnightblue" stroke="midnightblue" points="1828.2,-302.998 1837.34,-297.647 1826.85,-296.128 1828.2,-302.998"/>
</g>
<!-- Node25&#45;&gt;Node23 -->
<g id="edge30" class="edge"><title>Node25&#45;&gt;Node23</title>
<path fill="none" stroke="midnightblue" d="M820.494,-364.534C806.793,-364.771 792.345,-364.813 778.381,-364.659"/>
<polygon fill="midnightblue" stroke="midnightblue" points="778.366,-361.159 768.316,-364.513 778.264,-368.158 778.366,-361.159"/>
</g>
<!-- Node25&#45;&gt;Node24 -->
<g id="edge31" class="edge"><title>Node25&#45;&gt;Node24</title>
<path fill="none" stroke="midnightblue" d="M962.714,-374.088C971.996,-376.23 981.523,-378.428 990.828,-380.576"/>
<polygon fill="midnightblue" stroke="midnightblue" points="990.286,-384.043 1000.82,-382.881 991.86,-377.222 990.286,-384.043"/>
</g>
<!-- Node26 -->
<g id="node26" class="node"><title>Node26</title>
<g id="a_node26"><a xlink:href="namespaceforcebalance_1_1nifty.html#ab182a9da2a2f42cf45942fbee6acf9b1" target="_top" xlink:title="forcebalance.nifty.LinkFile">
<polygon fill="white" stroke="black" points="1000.3,-342 1000.3,-362 1125.7,-362 1125.7,-342 1000.3,-342"/>
<text text-anchor="middle" x="1063" y="-349" font-family="Ubuntu-R" font-size="10.00">forcebalance.nifty.LinkFile</text>
</a>
</g>
</g>
<!-- Node25&#45;&gt;Node26 -->
<g id="edge28" class="edge"><title>Node25&#45;&gt;Node26</title>
<path fill="none" stroke="midnightblue" d="M963.692,-355.49C972.403,-355.181 981.316,-354.865 990.046,-354.555"/>
<polygon fill="midnightblue" stroke="midnightblue" points="990.318,-358.047 1000.19,-354.195 990.07,-351.052 990.318,-358.047"/>
</g>
<!-- Node27 -->
<g id="node27" class="node"><title>Node27</title>
<g id="a_node27"><a xlink:href="namespaceforcebalance_1_1nifty.html#a25efa4d501ad852a234721af18978f7e" target="_top" xlink:title="Remove the file if it exists (doesn&#39;t return an error).">
<polygon fill="white" stroke="black" points="1166.53,-270 1166.53,-302 1287.47,-302 1287.47,-270 1166.53,-270"/>
<text text-anchor="start" x="1174.53" y="-289" font-family="Ubuntu-R" font-size="10.00">forcebalance.nifty.remove</text>
<text text-anchor="middle" x="1227" y="-277" font-family="Ubuntu-R" font-size="10.00">_if_exists</text>
</a>
</g>
</g>
<!-- Node26&#45;&gt;Node27 -->
<g id="edge29" class="edge"><title>Node26&#45;&gt;Node27</title>
<path fill="none" stroke="midnightblue" d="M1097.72,-341.927C1106.97,-338.948 1116.94,-335.532 1126,-332 1145.38,-324.448 1166.36,-315.002 1184.07,-306.638"/>
<polygon fill="midnightblue" stroke="midnightblue" points="1186.02,-309.584 1193.54,-302.122 1183.01,-303.266 1186.02,-309.584"/>
</g>
<!-- Node30 -->
<g id="node30" class="node"><title>Node30</title>
<g id="a_node30"><a xlink:href="namespaceforcebalance_1_1finite__difference.html#ad84d3e385db1190e7d8ef58bc08a6c52" target="_top" xlink:title="Invoking this function from anywhere will tell us whether we&#39;re being called by a finite&#45;difference f...">
<polygon fill="white" stroke="black" points="846.662,-291 846.662,-323 937.338,-323 937.338,-291 846.662,-291"/>
<text text-anchor="start" x="854.662" y="-310" font-family="Ubuntu-R" font-size="10.00">forcebalance.finite</text>
<text text-anchor="middle" x="892" y="-298" font-family="Ubuntu-R" font-size="10.00">_difference.in_fd</text>
</a>
</g>
</g>
<!-- Node29&#45;&gt;Node30 -->
<g id="edge34" class="edge"><title>Node29&#45;&gt;Node30</title>
<path fill="none" stroke="midnightblue" d="M744.501,-268.086C772.078,-275.411 807.427,-284.801 836.492,-292.521"/>
<polygon fill="midnightblue" stroke="midnightblue" points="835.924,-295.992 846.488,-295.176 837.721,-289.226 835.924,-295.992"/>
</g>
<!-- Node29&#45;&gt;Node31 -->
<g id="edge35" class="edge"><title>Node29&#45;&gt;Node31</title>
<path fill="none" stroke="midnightblue" d="M744.501,-256C771.76,-256 806.613,-256 835.484,-256"/>
<polygon fill="midnightblue" stroke="midnightblue" points="835.825,-259.5 845.825,-256 835.825,-252.5 835.825,-259.5"/>
</g>
<!-- Node32 -->
<g id="node32" class="node"><title>Node32</title>
<g id="a_node32"><a xlink:href="namespaceforcebalance_1_1finite__difference.html#a00322fb65860c390616f74d05037c797" target="_top" xlink:title="A driver to fdwrap for gradients (see documentation for fdwrap) Inputs: tgt = The Target containing t...">
<polygon fill="white" stroke="black" points="1010.72,-291 1010.72,-323 1115.28,-323 1115.28,-291 1010.72,-291"/>
<text text-anchor="start" x="1018.72" y="-310" font-family="Ubuntu-R" font-size="10.00">forcebalance.finite</text>
<text text-anchor="middle" x="1063" y="-298" font-family="Ubuntu-R" font-size="10.00">_difference.fdwrap_G</text>
</a>
</g>
</g>
<!-- Node31&#45;&gt;Node32 -->
<g id="edge36" class="edge"><title>Node31&#45;&gt;Node32</title>
<path fill="none" stroke="midnightblue" d="M938.289,-263.61C962.866,-270.092 993.129,-279.236 1017.57,-287.568"/>
<polygon fill="midnightblue" stroke="midnightblue" points="1016.72,-290.977 1027.31,-290.957 1019.02,-284.366 1016.72,-290.977"/>
</g>
<!-- Node33 -->
<g id="node33" class="node"><title>Node33</title>
<g id="a_node33"><a xlink:href="namespaceforcebalance_1_1finite__difference.html#a77a0bc1ae3cbbcc8d38a0ef9ca877d6d" target="_top" xlink:title="A driver to fdwrap for Hessians (see documentation for fdwrap) Inputs: tgt = The Target containing th...">
<polygon fill="white" stroke="black" points="1010.72,-240 1010.72,-272 1115.28,-272 1115.28,-240 1010.72,-240"/>
<text text-anchor="start" x="1018.72" y="-259" font-family="Ubuntu-R" font-size="10.00">forcebalance.finite</text>
<text text-anchor="middle" x="1063" y="-247" font-family="Ubuntu-R" font-size="10.00">_difference.fdwrap_H</text>
</a>
</g>
</g>
<!-- Node31&#45;&gt;Node33 -->
<g id="edge38" class="edge"><title>Node31&#45;&gt;Node33</title>
<path fill="none" stroke="midnightblue" d="M938.289,-256C957.359,-256 979.853,-256 1000.39,-256"/>
<polygon fill="midnightblue" stroke="midnightblue" points="1000.61,-259.5 1010.61,-256 1000.61,-252.5 1000.61,-259.5"/>
</g>
<!-- Node32&#45;&gt;Node31 -->
<g id="edge37" class="edge"><title>Node32&#45;&gt;Node31</title>
<path fill="none" stroke="midnightblue" d="M1010.43,-297.71C987.038,-291.364 959.652,-283.014 937.215,-275.359"/>
<polygon fill="midnightblue" stroke="midnightblue" points="938.202,-271.997 927.607,-272.014 935.901,-278.608 938.202,-271.997"/>
</g>
<!-- Node34&#45;&gt;Node9 -->
<g id="edge41" class="edge"><title>Node34&#45;&gt;Node9</title>
<path fill="none" stroke="midnightblue" d="M758.529,-182.033C877.413,-201.17 1152.85,-241 1386,-241 1386,-241 1386,-241 1549,-241 1646.54,-241 1758.37,-259.112 1827.1,-272.355"/>
<polygon fill="midnightblue" stroke="midnightblue" points="1826.85,-275.872 1837.34,-274.353 1828.2,-269.002 1826.85,-275.872"/>
</g>
<!-- Node35 -->
<g id="node35" class="node"><title>Node35</title>
<g id="a_node35"><a xlink:href="namespaceforcebalance_1_1nifty.html#a51180e960742cc7547749fdfb3513ec4" target="_top" xlink:title="See documentation for printcool; this is a nice way to print out keys/values in a dictionary...">
<polygon fill="white" stroke="black" points="828.468,-149 828.468,-181 955.532,-181 955.532,-149 828.468,-149"/>
<text text-anchor="start" x="836.468" y="-168" font-family="Ubuntu-R" font-size="10.00">forcebalance.nifty.printcool</text>
<text text-anchor="middle" x="892" y="-156" font-family="Ubuntu-R" font-size="10.00">_dictionary</text>
</a>
</g>
</g>
<!-- Node34&#45;&gt;Node35 -->
<g id="edge42" class="edge"><title>Node34&#45;&gt;Node35</title>
<path fill="none" stroke="midnightblue" d="M761.602,-169.718C779.607,-169.061 799.403,-168.339 817.979,-167.662"/>
<polygon fill="midnightblue" stroke="midnightblue" points="818.289,-171.153 828.154,-167.291 818.033,-164.158 818.289,-171.153"/>
</g>
<!-- Node36 -->
<g id="node36" class="node"><title>Node36</title>
<g id="a_node36"><a xlink:href="namespaceforcebalance_1_1nifty.html#a3f1c7a1af9d35d5d1693074bc6f5497c" target="_top" xlink:title="ONLY matches integers! If you have a decimal point? None shall pass!">
<polygon fill="white" stroke="black" points="1008.91,-155 1008.91,-175 1117.09,-175 1117.09,-155 1008.91,-155"/>
<text text-anchor="middle" x="1063" y="-162" font-family="Ubuntu-R" font-size="10.00">forcebalance.nifty.isint</text>
</a>
</g>
</g>
<!-- Node35&#45;&gt;Node36 -->
<g id="edge43" class="edge"><title>Node35&#45;&gt;Node36</title>
<path fill="none" stroke="midnightblue" d="M955.929,-165C969.9,-165 984.714,-165 998.699,-165"/>
<polygon fill="midnightblue" stroke="midnightblue" points="998.712,-168.5 1008.71,-165 998.712,-161.5 998.712,-168.5"/>
</g>
<!-- Node38 -->
<g id="node38" class="node"><title>Node38</title>
<g id="a_node38"><a xlink:href="namespaceforcebalance_1_1nifty.html#a8e3ef0108b9d37b82ba0dced7c6037ae" target="_top" xlink:title="Matches ANY number; it can be a decimal, scientific notation, what have you CAUTION &#45; this will also ...">
<polygon fill="white" stroke="black" points="1329.02,-154 1329.02,-174 1444.98,-174 1444.98,-154 1329.02,-154"/>
<text text-anchor="middle" x="1387" y="-161" font-family="Ubuntu-R" font-size="10.00">forcebalance.nifty.isfloat</text>
</a>
</g>
</g>
<!-- Node35&#45;&gt;Node38 -->
<g id="edge58" class="edge"><title>Node35&#45;&gt;Node38</title>
<path fill="none" stroke="midnightblue" d="M955.537,-151.374C970.063,-148.749 985.515,-146.387 1000,-145 1129.19,-132.628 1162.93,-130.422 1292,-144 1307.1,-145.589 1323.34,-148.575 1338.01,-151.765"/>
<polygon fill="midnightblue" stroke="midnightblue" points="1337.35,-155.204 1347.87,-153.991 1338.89,-148.376 1337.35,-155.204"/>
</g>
<!-- Node37 -->
<g id="node37" class="node"><title>Node37</title>
<g id="a_node37"><a xlink:href="namespaceforcebalance_1_1nifty.html#a09263927eaec9deff283fbf1a820242f" target="_top" xlink:title="Matches things with a decimal only; see isint and isfloat.">
<polygon fill="white" stroke="black" points="1162.36,-154 1162.36,-174 1291.64,-174 1291.64,-154 1162.36,-154"/>
<text text-anchor="middle" x="1227" y="-161" font-family="Ubuntu-R" font-size="10.00">forcebalance.nifty.isdecimal</text>
</a>
</g>
</g>
<!-- Node36&#45;&gt;Node37 -->
<g id="edge44" class="edge"><title>Node36&#45;&gt;Node37</title>
<path fill="none" stroke="midnightblue" d="M1117.49,-164.67C1128.54,-164.602 1140.37,-164.529 1152,-164.457"/>
<polygon fill="midnightblue" stroke="midnightblue" points="1152.16,-167.956 1162.14,-164.394 1152.12,-160.956 1152.16,-167.956"/>
</g>
<!-- Node37&#45;&gt;Node38 -->
<g id="edge45" class="edge"><title>Node37&#45;&gt;Node38</title>
<path fill="none" stroke="midnightblue" d="M1291.81,-164C1300.71,-164 1309.87,-164 1318.83,-164"/>
<polygon fill="midnightblue" stroke="midnightblue" points="1318.83,-167.5 1328.83,-164 1318.83,-160.5 1318.83,-167.5"/>
</g>
<!-- Node37&#45;&gt;Node42 -->
<g id="edge50" class="edge"><title>Node37&#45;&gt;Node42</title>
<path fill="none" stroke="midnightblue" d="M1254.8,-153.991C1280.79,-144.286 1320.43,-129.487 1349.33,-118.693"/>
<polygon fill="midnightblue" stroke="midnightblue" points="1350.92,-121.835 1359.07,-115.058 1348.47,-115.277 1350.92,-121.835"/>
</g>
<!-- Node38&#45;&gt;Node36 -->
<g id="edge46" class="edge"><title>Node38&#45;&gt;Node36</title>
<path fill="none" stroke="midnightblue" d="M1345.55,-174.014C1329.06,-177.616 1309.73,-181.226 1292,-183 1234.51,-188.752 1219.54,-188.24 1162,-183 1148,-181.725 1133.01,-179.445 1119.07,-176.927"/>
<polygon fill="midnightblue" stroke="midnightblue" points="1119.61,-173.468 1109.14,-175.063 1118.32,-180.347 1119.61,-173.468"/>
</g>
<!-- Node39 -->
<g id="node39" class="node"><title>Node39</title>
<g id="a_node39"><a xlink:href="namespaceforcebalance_1_1nifty.html#a8d63c8ae9a67c66673a6cf81357f827d" target="_top" xlink:title="Returns a big number if we encounter NaN.">
<polygon fill="white" stroke="black" points="1481.97,-154 1481.97,-174 1614.03,-174 1614.03,-154 1481.97,-154"/>
<text text-anchor="middle" x="1548" y="-161" font-family="Ubuntu-R" font-size="10.00">forcebalance.nifty.floatornan</text>
</a>
</g>
</g>
<!-- Node38&#45;&gt;Node39 -->
<g id="edge47" class="edge"><title>Node38&#45;&gt;Node39</title>
<path fill="none" stroke="midnightblue" d="M1445.4,-164C1453.91,-164 1462.78,-164 1471.58,-164"/>
<polygon fill="midnightblue" stroke="midnightblue" points="1471.86,-167.5 1481.86,-164 1471.86,-160.5 1471.86,-167.5"/>
</g>
<!-- Node40 -->
<g id="node40" class="node"><title>Node40</title>
<g id="a_node40"><a xlink:href="namespaceforcebalance_1_1nifty.html#a6c9727360cdff8f3011a12cc54d0e86e" target="_top" xlink:title="Given any list, array, or matrix, return a 1&#45;row matrix.">
<polygon fill="white" stroke="black" points="1663.75,-154 1663.75,-174 1770.25,-174 1770.25,-154 1663.75,-154"/>
<text text-anchor="middle" x="1717" y="-161" font-family="Ubuntu-R" font-size="10.00">forcebalance.nifty.row</text>
</a>
</g>
</g>
<!-- Node39&#45;&gt;Node40 -->
<g id="edge48" class="edge"><title>Node39&#45;&gt;Node40</title>
<path fill="none" stroke="midnightblue" d="M1614.04,-164C1626.98,-164 1640.54,-164 1653.39,-164"/>
<polygon fill="midnightblue" stroke="midnightblue" points="1653.52,-167.5 1663.52,-164 1653.52,-160.5 1653.52,-167.5"/>
</g>
<!-- Node41 -->
<g id="node41" class="node"><title>Node41</title>
<g id="a_node41"><a xlink:href="namespaceforcebalance_1_1nifty.html#a7676236002c6a65ea7d2e69a09923889" target="_top" xlink:title="Given two vectors vec1 and vec2, project out the component of vec1 that is along the vec2&#45;direction...">
<polygon fill="white" stroke="black" points="1820.03,-154 1820.03,-174 1965.97,-174 1965.97,-154 1820.03,-154"/>
<text text-anchor="middle" x="1893" y="-161" font-family="Ubuntu-R" font-size="10.00">forcebalance.nifty.orthogonalize</text>
</a>
</g>
</g>
<!-- Node40&#45;&gt;Node41 -->
<g id="edge49" class="edge"><title>Node40&#45;&gt;Node41</title>
<path fill="none" stroke="midnightblue" d="M1770.68,-164C1783.03,-164 1796.49,-164 1809.79,-164"/>
<polygon fill="midnightblue" stroke="midnightblue" points="1809.92,-167.5 1819.92,-164 1809.92,-160.5 1809.92,-167.5"/>
</g>
<!-- Node42&#45;&gt;Node43 -->
<g id="edge51" class="edge"><title>Node42&#45;&gt;Node43</title>
<path fill="none" stroke="midnightblue" d="M1438.75,-97.9786C1453.66,-95.9155 1470.13,-93.6366 1485.63,-91.492"/>
<polygon fill="midnightblue" stroke="midnightblue" points="1486.22,-94.9434 1495.64,-90.1057 1485.26,-88.0095 1486.22,-94.9434"/>
</g>
<!-- Node44 -->
<g id="node44" class="node"><title>Node44</title>
<g id="a_node44"><a xlink:href="namespaceforcebalance_1_1nifty.html#a4c82187e92dfeb8a159f4aa44b501c40" target="_top" xlink:title="Invert a matrix using singular value decomposition.">
<polygon fill="white" stroke="black" points="1650.41,-112 1650.41,-132 1783.59,-132 1783.59,-112 1650.41,-112"/>
<text text-anchor="middle" x="1717" y="-119" font-family="Ubuntu-R" font-size="10.00">forcebalance.nifty.invert_svd</text>
</a>
</g>
</g>
<!-- Node43&#45;&gt;Node44 -->
<g id="edge52" class="edge"><title>Node43&#45;&gt;Node44</title>
<path fill="none" stroke="midnightblue" d="M1592.01,-93.0435C1613.73,-98.1157 1640.27,-104.314 1663.22,-109.673"/>
<polygon fill="midnightblue" stroke="midnightblue" points="1662.61,-113.125 1673.14,-111.991 1664.2,-106.308 1662.61,-113.125"/>
</g>
<!-- Node44&#45;&gt;Node9 -->
<g id="edge57" class="edge"><title>Node44&#45;&gt;Node9</title>
<path fill="none" stroke="midnightblue" d="M1760.66,-132.043C1768.84,-135.095 1777.03,-139.009 1784,-144 1795.66,-152.344 1846.95,-222.9 1874.44,-261.312"/>
<polygon fill="midnightblue" stroke="midnightblue" points="1871.9,-263.779 1880.56,-269.882 1877.6,-259.71 1871.9,-263.779"/>
</g>
<!-- Node44&#45;&gt;Node42 -->
<g id="edge56" class="edge"><title>Node44&#45;&gt;Node42</title>
<path fill="none" stroke="midnightblue" d="M1650.26,-118.593C1591.51,-115.548 1506.1,-111.121 1448.88,-108.155"/>
<polygon fill="midnightblue" stroke="midnightblue" points="1449.06,-104.66 1438.89,-107.638 1448.7,-111.651 1449.06,-104.66"/>
</g>
<!-- Node45 -->
<g id="node45" class="node"><title>Node45</title>
<g id="a_node45"><a xlink:href="namespaceforcebalance_1_1nifty.html#aa9fb9c7c65231eca50a7afc04f489b64" target="_top" xlink:title="forcebalance.nifty.get\l_least_squares">
<polygon fill="white" stroke="black" points="1841.41,-85 1841.41,-117 1944.59,-117 1944.59,-85 1841.41,-85"/>
<text text-anchor="start" x="1849.41" y="-104" font-family="Ubuntu-R" font-size="10.00">forcebalance.nifty.get</text>
<text text-anchor="middle" x="1893" y="-92" font-family="Ubuntu-R" font-size="10.00">_least_squares</text>
</a>
</g>
</g>
<!-- Node44&#45;&gt;Node45 -->
<g id="edge53" class="edge"><title>Node44&#45;&gt;Node45</title>
<path fill="none" stroke="midnightblue" d="M1783.78,-114.061C1799.26,-112.192 1815.7,-110.208 1830.96,-108.366"/>
<polygon fill="midnightblue" stroke="midnightblue" points="1831.81,-111.79 1841.32,-107.117 1830.97,-104.84 1831.81,-111.79"/>
</g>
<!-- Node45&#45;&gt;Node43 -->
<g id="edge54" class="edge"><title>Node45&#45;&gt;Node43</title>
<path fill="none" stroke="midnightblue" d="M1841.14,-98.3309C1779.72,-95.1075 1676.46,-89.6889 1610.59,-86.2321"/>
<polygon fill="midnightblue" stroke="midnightblue" points="1610.52,-82.7237 1600.35,-85.6948 1610.15,-89.7141 1610.52,-82.7237"/>
</g>
<!-- Node46 -->
<g id="node46" class="node"><title>Node46</title>
<g id="a_node46"><a xlink:href="namespaceforcebalance_1_1nifty.html#ad5ca60565c864b4245a8212fe9d92e10" target="_top" xlink:title="Compute the (cross) statistical inefficiency of (two) timeseries.">
<polygon fill="white" stroke="black" points="2015.64,-85 2015.64,-117 2144.36,-117 2144.36,-85 2015.64,-85"/>
<text text-anchor="start" x="2023.64" y="-104" font-family="Ubuntu-R" font-size="10.00">forcebalance.nifty.statistical</text>
<text text-anchor="middle" x="2080" y="-92" font-family="Ubuntu-R" font-size="10.00">Inefficiency</text>
</a>
</g>
</g>
<!-- Node45&#45;&gt;Node46 -->
<g id="edge55" class="edge"><title>Node45&#45;&gt;Node46</title>
<path fill="none" stroke="midnightblue" d="M1945.04,-101C1963.71,-101 1985.21,-101 2005.45,-101"/>
<polygon fill="midnightblue" stroke="midnightblue" points="2005.58,-104.5 2015.58,-101 2005.58,-97.5001 2005.58,-104.5"/>
</g>
</g>
</svg>
