<?xml version="1.0" encoding="UTF-8" standalone="no"?>
<!DOCTYPE svg PUBLIC "-//W3C//DTD SVG 1.1//EN"
 "http://www.w3.org/Graphics/SVG/1.1/DTD/svg11.dtd">
<!-- Generated by graphviz version 2.28.0 (20111219.2309)
 -->
<!-- Title: forcebalance.moments.Moments Pages: 1 -->
<svg width="182pt" height="264pt"
 viewBox="0.00 0.00 182.00 264.00" xmlns="http://www.w3.org/2000/svg" xmlns:xlink="http://www.w3.org/1999/xlink">
<g id="graph1" class="graph" transform="scale(1 1) rotate(0) translate(4 260)">
<title>forcebalance.moments.Moments</title>
<polygon fill="white" stroke="white" points="-4,5 -4,-260 179,-260 179,5 -4,5"/>
<!-- Node1 -->
<g id="node1" class="node"><title>Node1</title>
<polygon fill="#bfbfbf" stroke="black" points="-1,-68.5 -1,-87.5 175,-87.5 175,-68.5 -1,-68.5"/>
<text text-anchor="middle" x="87" y="-75.5" font-family="Ubuntu-R" font-size="10.00">forcebalance.moments.Moments</text>
</g>
<!-- Node5 -->
<g id="node9" class="node"><title>Node5</title>
<a xlink:href="classforcebalance_1_1tinkerio_1_1Moments__TINKER.html" target="_top" xlink:title="Subclass of Target for multipole moment matching using TINKER. ">
<polygon fill="white" stroke="black" points="5,-1 5,-31 169,-31 169,-1 5,-1"/>
<text text-anchor="start" x="13" y="-19" font-family="Ubuntu-R" font-size="10.00">forcebalance.tinkerio.Moments</text>
<text text-anchor="middle" x="87" y="-8" font-family="Ubuntu-R" font-size="10.00">_TINKER</text>
</a>
</g>
<!-- Node1&#45;&gt;Node5 -->
<g id="edge8" class="edge"><title>Node1&#45;&gt;Node5</title>
<path fill="none" stroke="midnightblue" d="M87,-58.3707C87,-49.5849 87,-39.2721 87,-31.1408"/>
<polygon fill="midnightblue" stroke="midnightblue" points="83.5001,-58.4034 87,-68.4035 90.5001,-58.4035 83.5001,-58.4034"/>
</g>
<!-- Node2 -->
<g id="node2" class="node"><title>Node2</title>
<a xlink:href="classforcebalance_1_1target_1_1Target.html" target="_top" xlink:title="Base class for all fitting targets. ">
<polygon fill="white" stroke="black" points="15.5,-124.5 15.5,-143.5 158.5,-143.5 158.5,-124.5 15.5,-124.5"/>
<text text-anchor="middle" x="87" y="-131.5" font-family="Ubuntu-R" font-size="10.00">forcebalance.target.Target</text>
</a>
</g>
<!-- Node2&#45;&gt;Node1 -->
<g id="edge2" class="edge"><title>Node2&#45;&gt;Node1</title>
<path fill="none" stroke="midnightblue" d="M87,-113.805C87,-104.91 87,-94.7798 87,-87.7511"/>
<polygon fill="midnightblue" stroke="midnightblue" points="83.5001,-114.083 87,-124.083 90.5001,-114.083 83.5001,-114.083"/>
</g>
<!-- Node3 -->
<g id="node4" class="node"><title>Node3</title>
<a xlink:href="classforcebalance_1_1BaseClass.html" target="_top" xlink:title="Provides some nifty functions that are common to all ForceBalance classes. ">
<polygon fill="white" stroke="black" points="21.5,-180.5 21.5,-199.5 152.5,-199.5 152.5,-180.5 21.5,-180.5"/>
<text text-anchor="middle" x="87" y="-187.5" font-family="Ubuntu-R" font-size="10.00">forcebalance.BaseClass</text>
</a>
</g>
<!-- Node3&#45;&gt;Node2 -->
<g id="edge4" class="edge"><title>Node3&#45;&gt;Node2</title>
<path fill="none" stroke="midnightblue" d="M87,-169.805C87,-160.91 87,-150.78 87,-143.751"/>
<polygon fill="midnightblue" stroke="midnightblue" points="83.5001,-170.083 87,-180.083 90.5001,-170.083 83.5001,-170.083"/>
</g>
<!-- Node4 -->
<g id="node6" class="node"><title>Node4</title>
<polygon fill="white" stroke="#bfbfbf" points="64,-236.5 64,-255.5 110,-255.5 110,-236.5 64,-236.5"/>
<text text-anchor="middle" x="87" y="-243.5" font-family="Ubuntu-R" font-size="10.00">object</text>
</g>
<!-- Node4&#45;&gt;Node3 -->
<g id="edge6" class="edge"><title>Node4&#45;&gt;Node3</title>
<path fill="none" stroke="midnightblue" d="M87,-225.805C87,-216.91 87,-206.78 87,-199.751"/>
<polygon fill="midnightblue" stroke="midnightblue" points="83.5001,-226.083 87,-236.083 90.5001,-226.083 83.5001,-226.083"/>
</g>
</g>
</svg>
