<?xml version="1.0" encoding="UTF-8" standalone="no"?>
<!DOCTYPE svg PUBLIC "-//W3C//DTD SVG 1.1//EN"
 "http://www.w3.org/Graphics/SVG/1.1/DTD/svg11.dtd">
<!-- Generated by graphviz version 2.28.0 (20111219.2309)
 -->
<!-- Title: forcebalance.gmxio.GMX.callgmx Pages: 1 -->
<svg width="870pt" height="38pt"
 viewBox="0.00 0.00 870.00 38.00" xmlns="http://www.w3.org/2000/svg" xmlns:xlink="http://www.w3.org/1999/xlink">
<g id="graph1" class="graph" transform="scale(1 1) rotate(0) translate(4 34)">
<title>forcebalance.gmxio.GMX.callgmx</title>
<polygon fill="white" stroke="white" points="-4,5 -4,-34 867,-34 867,5 -4,5"/>
<!-- Node1 -->
<g id="node1" class="node"><title>Node1</title>
<polygon fill="#bfbfbf" stroke="black" points="0.5,-5.5 0.5,-24.5 175.5,-24.5 175.5,-5.5 0.5,-5.5"/>
<text text-anchor="middle" x="88" y="-12.5" font-family="Ubuntu-R" font-size="10.00">forcebalance.gmxio.GMX.callgmx</text>
</g>
<!-- Node2 -->
<g id="node3" class="node"><title>Node2</title>
<a xlink:href="classforcebalance_1_1engine_1_1Engine.html#a2eab57877002b41dc3742f0c67f2f24e" target="_top" xlink:title="forcebalance.engine.Engine.prepare">
<polygon fill="white" stroke="black" points="212.5,-5.5 212.5,-24.5 401.5,-24.5 401.5,-5.5 212.5,-5.5"/>
<text text-anchor="middle" x="307" y="-12.5" font-family="Ubuntu-R" font-size="10.00">forcebalance.engine.Engine.prepare</text>
</a>
</g>
<!-- Node1&#45;&gt;Node2 -->
<g id="edge2" class="edge"><title>Node1&#45;&gt;Node2</title>
<path fill="none" stroke="midnightblue" d="M175.7,-15C184.448,-15 193.395,-15 202.297,-15"/>
<polygon fill="midnightblue" stroke="midnightblue" points="202.318,-18.5001 212.318,-15 202.318,-11.5001 202.318,-18.5001"/>
</g>
<!-- Node3 -->
<g id="node5" class="node"><title>Node3</title>
<a xlink:href="classforcebalance_1_1engine_1_1Engine.html#aceb1ac74d5f048dfbe620ceac7df8d32" target="_top" xlink:title="Evaluate properties over a collection of snapshots. ">
<polygon fill="white" stroke="black" points="438.5,-0 438.5,-30 631.5,-30 631.5,-0 438.5,-0"/>
<text text-anchor="start" x="446.5" y="-18" font-family="Ubuntu-R" font-size="10.00">forcebalance.engine.Engine.evaluate</text>
<text text-anchor="middle" x="535" y="-7" font-family="Ubuntu-R" font-size="10.00">_snapshots</text>
</a>
</g>
<!-- Node2&#45;&gt;Node3 -->
<g id="edge4" class="edge"><title>Node2&#45;&gt;Node3</title>
<path fill="none" stroke="midnightblue" d="M401.554,-15C410.377,-15 419.363,-15 428.288,-15"/>
<polygon fill="midnightblue" stroke="midnightblue" points="428.327,-18.5001 438.327,-15 428.327,-11.5001 428.327,-18.5001"/>
</g>
<!-- Node4 -->
<g id="node7" class="node"><title>Node4</title>
<a xlink:href="classforcebalance_1_1engine_1_1Engine.html#a0e88d58a45ebff5a5d741290e3589ee6" target="_top" xlink:title="Evaluate properties on the optimized geometry. ">
<polygon fill="white" stroke="black" points="668.5,-0 668.5,-30 861.5,-30 861.5,-0 668.5,-0"/>
<text text-anchor="start" x="676.5" y="-18" font-family="Ubuntu-R" font-size="10.00">forcebalance.engine.Engine.evaluate</text>
<text text-anchor="middle" x="765" y="-7" font-family="Ubuntu-R" font-size="10.00">_optimized</text>
</a>
</g>
<!-- Node3&#45;&gt;Node4 -->
<g id="edge6" class="edge"><title>Node3&#45;&gt;Node4</title>
<path fill="none" stroke="midnightblue" d="M631.702,-15C640.373,-15 649.189,-15 657.943,-15"/>
<polygon fill="midnightblue" stroke="midnightblue" points="658.178,-18.5001 668.178,-15 658.178,-11.5001 658.178,-18.5001"/>
</g>
</g>
</svg>
