<?xml version="1.0" encoding="UTF-8" standalone="no"?>
<!DOCTYPE svg PUBLIC "-//W3C//DTD SVG 1.1//EN"
 "http://www.w3.org/Graphics/SVG/1.1/DTD/svg11.dtd">
<!-- Generated by graphviz version 2.28.0 (20111219.2309)
 -->
<!-- Title: G Pages: 1 -->
<svg width="648pt" height="28pt"
 viewBox="0.00 0.00 648.00 28.00" xmlns="http://www.w3.org/2000/svg" xmlns:xlink="http://www.w3.org/1999/xlink">
<g id="graph1" class="graph" transform="scale(1 1) rotate(0) translate(4 24)">
<title>G</title>
<polygon fill="white" stroke="white" points="-4,5 -4,-24 645,-24 645,5 -4,5"/>
<!-- Node1 -->
<g id="node1" class="node"><title>Node1</title>
<polygon fill="#bfbfbf" stroke="black" points="0,-0.5 0,-19.5 206,-19.5 206,-0.5 0,-0.5"/>
<text text-anchor="middle" x="103" y="-7.5" font-family="Ubuntu-R" font-size="10.00">forcebalance.objective.Penalty.FUSE_L0</text>
</g>
<!-- Node2 -->
<g id="node3" class="node"><title>Node2</title>
<a xlink:href="namespaceforcebalance_1_1nifty.html#abb8f59044961a12588e0653c2baa8b01" target="_top" xlink:title="forcebalance.nifty.warn_press_key">
<polygon fill="white" stroke="black" points="242.5,-0.5 242.5,-19.5 421.5,-19.5 421.5,-0.5 242.5,-0.5"/>
<text text-anchor="middle" x="332" y="-7.5" font-family="Ubuntu-R" font-size="10.00">forcebalance.nifty.warn_press_key</text>
</a>
</g>
<!-- Node1&#45;&gt;Node2 -->
<g id="edge2" class="edge"><title>Node1&#45;&gt;Node2</title>
<path fill="none" stroke="midnightblue" d="M206.211,-10C214.838,-10 223.554,-10 232.155,-10"/>
<polygon fill="midnightblue" stroke="midnightblue" points="232.187,-13.5001 242.187,-10 232.187,-6.5001 232.187,-13.5001"/>
</g>
<!-- Node3 -->
<g id="node5" class="node"><title>Node3</title>
<a xlink:href="namespaceforcebalance_1_1nifty.html#a2fc81730e7efa7d138dd86f733507bfc" target="_top" xlink:title="Similar to the bultin function map().">
<polygon fill="white" stroke="black" points="458,-0.5 458,-19.5 640,-19.5 640,-0.5 458,-0.5"/>
<text text-anchor="middle" x="549" y="-7.5" font-family="Ubuntu-R" font-size="10.00">forcebalance.nifty.concurrent_map</text>
</a>
</g>
<!-- Node2&#45;&gt;Node3 -->
<g id="edge4" class="edge"><title>Node2&#45;&gt;Node3</title>
<path fill="none" stroke="midnightblue" d="M421.69,-10C430.253,-10 438.981,-10 447.647,-10"/>
<polygon fill="midnightblue" stroke="midnightblue" points="447.777,-13.5001 457.777,-10 447.777,-6.5001 447.777,-13.5001"/>
</g>
</g>
</svg>
