<?xml version="1.0" encoding="UTF-8" standalone="no"?>
<!DOCTYPE svg PUBLIC "-//W3C//DTD SVG 1.1//EN"
 "http://www.w3.org/Graphics/SVG/1.1/DTD/svg11.dtd">
<!-- Generated by graphviz version 2.26.3 (20100126.1600)
 -->
<!-- Title: forcebalance.amberio.Mol2_Reader Pages: 1 -->
<svg width="154pt" height="160pt"
 viewBox="0.00 0.00 154.00 160.00" xmlns="http://www.w3.org/2000/svg" xmlns:xlink="http://www.w3.org/1999/xlink">
<g id="graph1" class="graph" transform="scale(1 1) rotate(0) translate(4 156)">
<title>forcebalance.amberio.Mol2_Reader</title>
<polygon fill="white" stroke="white" points="-4,5 -4,-156 151,-156 151,5 -4,5"/>
<!-- Node1 -->
<g id="node1" class="node"><title>Node1</title>
<polygon fill="#bfbfbf" stroke="black" points="0,-1 0,-35 146,-35 146,-1 0,-1"/>
<text text-anchor="start" x="8" y="-22" font-family="Ubuntu-R" font-size="10.00">forcebalance.amberio.Mol2</text>
<text text-anchor="middle" x="73" y="-9" font-family="Ubuntu-R" font-size="10.00">_Reader</text>
</g>
<!-- Node2 -->
<g id="node2" class="node"><title>Node2</title>
<a xlink:href="classforcebalance_1_1BaseReader.html" target="_top" xlink:title="The &#39;reader&#39; class.">
<polygon fill="white" stroke="black" points="4,-72.5 4,-93.5 142,-93.5 142,-72.5 4,-72.5"/>
<text text-anchor="middle" x="73" y="-80.5" font-family="Ubuntu-R" font-size="10.00">forcebalance.BaseReader</text>
</a>
</g>
<!-- Node2&#45;&gt;Node1 -->
<g id="edge2" class="edge"><title>Node2&#45;&gt;Node1</title>
<path fill="none" stroke="midnightblue" d="M73,-62.1306C73,-53.4049 73,-43.3908 73,-35.1099"/>
<polygon fill="midnightblue" stroke="midnightblue" points="69.5001,-62.2665 73,-72.2666 76.5001,-62.2666 69.5001,-62.2665"/>
</g>
<!-- Node3 -->
<g id="node4" class="node"><title>Node3</title>
<polygon fill="white" stroke="#bfbfbf" points="50,-130.5 50,-151.5 96,-151.5 96,-130.5 50,-130.5"/>
<text text-anchor="middle" x="73" y="-138.5" font-family="Ubuntu-R" font-size="10.00">object</text>
</g>
<!-- Node3&#45;&gt;Node2 -->
<g id="edge4" class="edge"><title>Node3&#45;&gt;Node2</title>
<path fill="none" stroke="midnightblue" d="M73,-120.191C73,-111.168 73,-100.994 73,-93.5707"/>
<polygon fill="midnightblue" stroke="midnightblue" points="69.5001,-120.362 73,-130.362 76.5001,-120.362 69.5001,-120.362"/>
</g>
</g>
</svg>
