<?xml version="1.0" encoding="UTF-8" standalone="no"?>
<!DOCTYPE svg PUBLIC "-//W3C//DTD SVG 1.1//EN"
 "http://www.w3.org/Graphics/SVG/1.1/DTD/svg11.dtd">
<!-- Generated by graphviz version 2.32.0 (20130801.1845)
 -->
<!-- Title: forcebalance.leastsq.LeastSquares.get Pages: 1 -->
<svg width="654pt" height="187pt"
 viewBox="0.00 0.00 654.00 187.00" xmlns="http://www.w3.org/2000/svg" xmlns:xlink="http://www.w3.org/1999/xlink">
<g id="graph0" class="graph" transform="scale(1 1) rotate(0) translate(4 183)">
<title>forcebalance.leastsq.LeastSquares.get</title>
<polygon fill="white" stroke="white" points="-4,5 -4,-183 651,-183 651,5 -4,5"/>
<!-- Node1 -->
<g id="node1" class="node"><title>Node1</title>
<polygon fill="#bfbfbf" stroke="black" points="0.53,-64 0.53,-96 121.47,-96 121.47,-64 0.53,-64"/>
<text text-anchor="start" x="8.53" y="-83" font-family="Ubuntu-R" font-size="10.00">forcebalance.leastsq.Least</text>
<text text-anchor="middle" x="61" y="-71" font-family="Ubuntu-R" font-size="10.00">Squares.get</text>
</g>
<!-- Node2 -->
<g id="node2" class="node"><title>Node2</title>
<g id="a_node2"><a xlink:href="classforcebalance_1_1psi4io_1_1THCDF__Psi4.html#a14993bd872840bd869fefced495e7ba2" target="_top" target="_top" target="_top" xlink:title="forcebalance.psi4io.THCDF\l_Psi4.driver">
<polygon fill="white" stroke="black" points="158.353,-102 158.353,-134 287.647,-134 287.647,-102 158.353,-102"/>
<text text-anchor="start" x="166.353" y="-121" font-family="Ubuntu-R" font-size="10.00">forcebalance.psi4io.THCDF</text>
<text text-anchor="middle" x="223" y="-109" font-family="Ubuntu-R" font-size="10.00">_Psi4.driver</text>
</a>
</g>
</g>
<!-- Node1&#45;&gt;Node2 -->
<g id="edge1" class="edge"><title>Node1&#45;&gt;Node2</title>
<path fill="none" stroke="midnightblue" d="M121.578,-94.1498C130.387,-96.2418 139.549,-98.4179 148.598,-100.567"/>
<polygon fill="midnightblue" stroke="midnightblue" points="147.813,-103.978 158.351,-102.883 149.43,-97.1672 147.813,-103.978"/>
</g>
<!-- Node8 -->
<g id="node8" class="node"><title>Node8</title>
<g id="a_node8"><a xlink:href="classforcebalance_1_1psi4io_1_1RDVR3__Psi4.html#a8c4cf7a59ef8714519631145669a5df9" target="_top" target="_top" target="_top" xlink:title="forcebalance.psi4io.RDVR3\l_Psi4.driver">
<polygon fill="white" stroke="black" points="158.353,-26 158.353,-58 287.647,-58 287.647,-26 158.353,-26"/>
<text text-anchor="start" x="166.353" y="-45" font-family="Ubuntu-R" font-size="10.00">forcebalance.psi4io.RDVR3</text>
<text text-anchor="middle" x="223" y="-33" font-family="Ubuntu-R" font-size="10.00">_Psi4.driver</text>
</a>
</g>
</g>
<!-- Node1&#45;&gt;Node8 -->
<g id="edge9" class="edge"><title>Node1&#45;&gt;Node8</title>
<path fill="none" stroke="midnightblue" d="M121.578,-65.8502C130.387,-63.7582 139.549,-61.5821 148.598,-59.4329"/>
<polygon fill="midnightblue" stroke="midnightblue" points="149.43,-62.8328 158.351,-57.1167 147.813,-56.0222 149.43,-62.8328"/>
</g>
<!-- Node3 -->
<g id="node3" class="node"><title>Node3</title>
<g id="a_node3"><a xlink:href="classforcebalance_1_1psi4io_1_1THCDF__Psi4.html#ae4389941b46ce11689f45115fdb61b39" target="_top" target="_top" target="_top" xlink:title="forcebalance.psi4io.THCDF\l_Psi4.write_nested_destroy">
<polygon fill="white" stroke="black" points="324.353,-102 324.353,-134 453.647,-134 453.647,-102 324.353,-102"/>
<text text-anchor="start" x="332.353" y="-121" font-family="Ubuntu-R" font-size="10.00">forcebalance.psi4io.THCDF</text>
<text text-anchor="middle" x="389" y="-109" font-family="Ubuntu-R" font-size="10.00">_Psi4.write_nested_destroy</text>
</a>
</g>
</g>
<!-- Node2&#45;&gt;Node3 -->
<g id="edge2" class="edge"><title>Node2&#45;&gt;Node3</title>
<path fill="none" stroke="midnightblue" d="M287.876,-111.399C296.474,-111.256 305.351,-111.216 314.104,-111.279"/>
<polygon fill="midnightblue" stroke="midnightblue" points="314.257,-114.781 324.298,-111.402 314.341,-107.782 314.257,-114.781"/>
</g>
<!-- Node4 -->
<g id="node4" class="node"><title>Node4</title>
<g id="a_node4"><a xlink:href="namespaceforcebalance_1_1finite__difference.html#ad84d3e385db1190e7d8ef58bc08a6c52" target="_top" target="_top" target="_top" xlink:title="Invoking this function from anywhere will tell us whether we&#39;re being called by a finite&#45;difference f...">
<polygon fill="white" stroke="black" points="522.662,-147 522.662,-179 613.338,-179 613.338,-147 522.662,-147"/>
<text text-anchor="start" x="530.662" y="-166" font-family="Ubuntu-R" font-size="10.00">forcebalance.finite</text>
<text text-anchor="middle" x="568" y="-154" font-family="Ubuntu-R" font-size="10.00">_difference.in_fd</text>
</a>
</g>
</g>
<!-- Node2&#45;&gt;Node4 -->
<g id="edge8" class="edge"><title>Node2&#45;&gt;Node4</title>
<path fill="none" stroke="midnightblue" d="M281.304,-134.026C295.189,-137.436 310.051,-140.698 324,-143 388.142,-153.585 462.778,-158.668 512.234,-161.04"/>
<polygon fill="midnightblue" stroke="midnightblue" points="512.242,-164.544 522.392,-161.507 512.563,-157.552 512.242,-164.544"/>
</g>
<!-- Node6 -->
<g id="node6" class="node"><title>Node6</title>
<g id="a_node6"><a xlink:href="namespaceforcebalance_1_1nifty.html#abb8f59044961a12588e0653c2baa8b01" target="_top" target="_top" target="_top" xlink:title="forcebalance.nifty.warn\l_press_key">
<polygon fill="white" stroke="black" points="333.527,-51 333.527,-83 444.473,-83 444.473,-51 333.527,-51"/>
<text text-anchor="start" x="341.527" y="-70" font-family="Ubuntu-R" font-size="10.00">forcebalance.nifty.warn</text>
<text text-anchor="middle" x="389" y="-58" font-family="Ubuntu-R" font-size="10.00">_press_key</text>
</a>
</g>
</g>
<!-- Node2&#45;&gt;Node6 -->
<g id="edge6" class="edge"><title>Node2&#45;&gt;Node6</title>
<path fill="none" stroke="midnightblue" d="M275.891,-101.863C292.05,-96.838 310.022,-91.2493 326.758,-86.0446"/>
<polygon fill="midnightblue" stroke="midnightblue" points="327.937,-89.3434 336.447,-83.0317 325.859,-82.6592 327.937,-89.3434"/>
</g>
<!-- Node3&#45;&gt;Node2 -->
<g id="edge3" class="edge"><title>Node3&#45;&gt;Node2</title>
<path fill="none" stroke="midnightblue" d="M324.298,-124.598C315.704,-124.743 306.828,-124.784 298.073,-124.722"/>
<polygon fill="midnightblue" stroke="midnightblue" points="297.917,-121.22 287.876,-124.601 297.834,-128.219 297.917,-121.22"/>
</g>
<!-- Node3&#45;&gt;Node4 -->
<g id="edge4" class="edge"><title>Node3&#45;&gt;Node4</title>
<path fill="none" stroke="midnightblue" d="M453.401,-134.119C472.825,-139.057 494.006,-144.442 512.761,-149.21"/>
<polygon fill="midnightblue" stroke="midnightblue" points="512.059,-152.643 522.613,-151.715 513.784,-145.859 512.059,-152.643"/>
</g>
<!-- Node5 -->
<g id="node5" class="node"><title>Node5</title>
<g id="a_node5"><a xlink:href="namespaceforcebalance_1_1leastsq.html#a8e7ef329e27aff738bc91dd79bd2dd1c" target="_top" target="_top" target="_top" xlink:title="forcebalance.leastsq.Check\lBasis">
<polygon fill="white" stroke="black" points="505.584,-96 505.584,-128 630.416,-128 630.416,-96 505.584,-96"/>
<text text-anchor="start" x="513.584" y="-115" font-family="Ubuntu-R" font-size="10.00">forcebalance.leastsq.Check</text>
<text text-anchor="middle" x="568" y="-103" font-family="Ubuntu-R" font-size="10.00">Basis</text>
</a>
</g>
</g>
<!-- Node3&#45;&gt;Node5 -->
<g id="edge5" class="edge"><title>Node3&#45;&gt;Node5</title>
<path fill="none" stroke="midnightblue" d="M453.901,-115.834C467.316,-115.379 481.549,-114.897 495.229,-114.433"/>
<polygon fill="midnightblue" stroke="midnightblue" points="495.684,-117.92 505.56,-114.083 495.447,-110.924 495.684,-117.92"/>
</g>
<!-- Node7 -->
<g id="node7" class="node"><title>Node7</title>
<g id="a_node7"><a xlink:href="namespaceforcebalance_1_1nifty.html#a2fc81730e7efa7d138dd86f733507bfc" target="_top" target="_top" target="_top" xlink:title="Similar to the bultin function map().">
<polygon fill="white" stroke="black" points="490.035,-57 490.035,-77 645.965,-77 645.965,-57 490.035,-57"/>
<text text-anchor="middle" x="568" y="-64" font-family="Ubuntu-R" font-size="10.00">forcebalance.nifty.concurrent_map</text>
</a>
</g>
</g>
<!-- Node6&#45;&gt;Node7 -->
<g id="edge7" class="edge"><title>Node6&#45;&gt;Node7</title>
<path fill="none" stroke="midnightblue" d="M444.55,-67C455.739,-67 467.782,-67 479.793,-67"/>
<polygon fill="midnightblue" stroke="midnightblue" points="479.855,-70.5001 489.855,-67 479.855,-63.5001 479.855,-70.5001"/>
</g>
<!-- Node9 -->
<g id="node9" class="node"><title>Node9</title>
<g id="a_node9"><a xlink:href="classforcebalance_1_1psi4io_1_1RDVR3__Psi4.html#a70936cb704ab5df307013cc6aa5b85c8" target="_top" target="_top" target="_top" xlink:title="LPW 04&#45;17&#45;2013.">
<polygon fill="white" stroke="black" points="324.353,-0 324.353,-32 453.647,-32 453.647,-0 324.353,-0"/>
<text text-anchor="start" x="332.353" y="-19" font-family="Ubuntu-R" font-size="10.00">forcebalance.psi4io.RDVR3</text>
<text text-anchor="middle" x="389" y="-7" font-family="Ubuntu-R" font-size="10.00">_Psi4.get</text>
</a>
</g>
</g>
<!-- Node8&#45;&gt;Node9 -->
<g id="edge10" class="edge"><title>Node8&#45;&gt;Node9</title>
<path fill="none" stroke="midnightblue" d="M287.876,-31.8733C296.567,-30.4954 305.544,-29.0723 314.39,-27.67"/>
<polygon fill="midnightblue" stroke="midnightblue" points="314.969,-31.1218 324.298,-26.0991 313.873,-24.2082 314.969,-31.1218"/>
</g>
</g>
</svg>
