<?xml version="1.0" encoding="UTF-8" standalone="no"?>
<!DOCTYPE svg PUBLIC "-//W3C//DTD SVG 1.1//EN"
 "http://www.w3.org/Graphics/SVG/1.1/DTD/svg11.dtd">
<!-- Generated by graphviz version 2.32.0 (20130801.1845)
 -->
<!-- Title: forcebalance.Mol2.mol2.set_num_subst Pages: 1 -->
<svg width="300pt" height="58pt"
 viewBox="0.00 0.00 300.00 58.00" xmlns="http://www.w3.org/2000/svg" xmlns:xlink="http://www.w3.org/1999/xlink">
<g id="graph0" class="graph" transform="scale(1 1) rotate(0) translate(4 54)">
<title>forcebalance.Mol2.mol2.set_num_subst</title>
<polygon fill="white" stroke="white" points="-4,5 -4,-54 297,-54 297,5 -4,5"/>
<!-- Node1 -->
<g id="node1" class="node"><title>Node1</title>
<polygon fill="#bfbfbf" stroke="black" points="0.048,-0 0.048,-32 127.952,-32 127.952,-0 0.048,-0"/>
<text text-anchor="start" x="8.048" y="-19" font-family="Ubuntu-R" font-size="10.00">forcebalance.Mol2.mol2.set</text>
<text text-anchor="middle" x="64" y="-7" font-family="Ubuntu-R" font-size="10.00">_num_subst</text>
</g>
<!-- Node2 -->
<g id="node2" class="node"><title>Node2</title>
<g id="a_node2"><a xlink:href="classforcebalance_1_1Mol2_1_1mol2.html#aaab9bc1afebb05a355c53db2a35740be" target="_top" xlink:title="bond identifier (integer, starting from 1)">
<polygon fill="white" stroke="black" points="164.048,-0 164.048,-32 291.952,-32 291.952,-0 164.048,-0"/>
<text text-anchor="start" x="172.048" y="-19" font-family="Ubuntu-R" font-size="10.00">forcebalance.Mol2.mol2.set</text>
<text text-anchor="middle" x="228" y="-7" font-family="Ubuntu-R" font-size="10.00">_charge_type</text>
</a>
</g>
</g>
<!-- Node1&#45;&gt;Node2 -->
<g id="edge1" class="edge"><title>Node1&#45;&gt;Node2</title>
<path fill="none" stroke="midnightblue" d="M128.097,-16C136.435,-16 145.038,-16 153.53,-16"/>
<polygon fill="midnightblue" stroke="midnightblue" points="153.808,-19.5001 163.808,-16 153.808,-12.5001 153.808,-19.5001"/>
</g>
<!-- Node2&#45;&gt;Node2 -->
<g id="edge2" class="edge"><title>Node2&#45;&gt;Node2</title>
<path fill="none" stroke="midnightblue" d="M198.939,-32.0908C193.008,-41.3658 202.695,-50 228,-50 243.42,-50 253.041,-46.7938 256.862,-42.1902"/>
<polygon fill="midnightblue" stroke="midnightblue" points="260.363,-42.1579 257.061,-32.0908 253.364,-42.0198 260.363,-42.1579"/>
</g>
</g>
</svg>
