<?xml version="1.0" encoding="UTF-8" standalone="no"?>
<!DOCTYPE svg PUBLIC "-//W3C//DTD SVG 1.1//EN"
 "http://www.w3.org/Graphics/SVG/1.1/DTD/svg11.dtd">
<!-- Generated by graphviz version 2.26.3 (20100126.1600)
 -->
<!-- Title: forcebalance.tinkerio.TINKER.calltinker Pages: 1 -->
<svg width="554pt" height="88pt"
 viewBox="0.00 0.00 554.00 88.00" xmlns="http://www.w3.org/2000/svg" xmlns:xlink="http://www.w3.org/1999/xlink">
<g id="graph1" class="graph" transform="scale(1 1) rotate(0) translate(4 84)">
<title>forcebalance.tinkerio.TINKER.calltinker</title>
<polygon fill="white" stroke="white" points="-4,5 -4,-84 551,-84 551,5 -4,5"/>
<!-- Node1 -->
<g id="node1" class="node"><title>Node1</title>
<polygon fill="#bfbfbf" stroke="black" points="0,-29.5 0,-50.5 198,-50.5 198,-29.5 0,-29.5"/>
<text text-anchor="middle" x="99" y="-37.5" font-family="Ubuntu-R" font-size="10.00">forcebalance.tinkerio.TINKER.calltinker</text>
</g>
<!-- Node2 -->
<g id="node3" class="node"><title>Node2</title>
<a xlink:href="namespaceforcebalance_1_1nifty.html#ab182a9da2a2f42cf45942fbee6acf9b1" target="_top" xlink:title="forcebalance.nifty.LinkFile">
<polygon fill="white" stroke="black" points="234.5,-52.5 234.5,-73.5 371.5,-73.5 371.5,-52.5 234.5,-52.5"/>
<text text-anchor="middle" x="303" y="-60.5" font-family="Ubuntu-R" font-size="10.00">forcebalance.nifty.LinkFile</text>
</a>
</g>
<!-- Node1&#45;&gt;Node2 -->
<g id="edge2" class="edge"><title>Node1&#45;&gt;Node2</title>
<path fill="none" stroke="midnightblue" d="M192.343,-50.524C203.076,-51.7341 213.938,-52.9587 224.449,-54.1438"/>
<polygon fill="midnightblue" stroke="midnightblue" points="224.074,-57.6236 234.403,-55.266 224.858,-50.6676 224.074,-57.6236"/>
</g>
<!-- Node4 -->
<g id="node7" class="node"><title>Node4</title>
<a xlink:href="namespaceforcebalance_1_1nifty.html#abb8f59044961a12588e0653c2baa8b01" target="_top" xlink:title="forcebalance.nifty.warn\l_press_key">
<polygon fill="white" stroke="black" points="240.5,-0 240.5,-34 365.5,-34 365.5,-0 240.5,-0"/>
<text text-anchor="start" x="248.5" y="-21" font-family="Ubuntu-R" font-size="10.00">forcebalance.nifty.warn</text>
<text text-anchor="middle" x="303" y="-8" font-family="Ubuntu-R" font-size="10.00">_press_key</text>
</a>
</g>
<!-- Node1&#45;&gt;Node4 -->
<g id="edge6" class="edge"><title>Node1&#45;&gt;Node4</title>
<path fill="none" stroke="midnightblue" d="M192.343,-29.476C205.048,-28.0436 217.932,-26.591 230.202,-25.2077"/>
<polygon fill="midnightblue" stroke="midnightblue" points="230.801,-28.6624 240.346,-24.064 230.016,-21.7065 230.801,-28.6624"/>
</g>
<!-- Node3 -->
<g id="node5" class="node"><title>Node3</title>
<a xlink:href="namespaceforcebalance_1_1nifty.html#ae87c7def5f8edf2ec30737bdb1d2636f" target="_top" xlink:title="forcebalance.nifty.Missing\lFileInspection">
<polygon fill="white" stroke="black" points="408,-46 408,-80 546,-80 546,-46 408,-46"/>
<text text-anchor="start" x="416" y="-67" font-family="Ubuntu-R" font-size="10.00">forcebalance.nifty.Missing</text>
<text text-anchor="middle" x="477" y="-54" font-family="Ubuntu-R" font-size="10.00">FileInspection</text>
</a>
</g>
<!-- Node2&#45;&gt;Node3 -->
<g id="edge4" class="edge"><title>Node2&#45;&gt;Node3</title>
<path fill="none" stroke="midnightblue" d="M371.769,-63C380.304,-63 389.083,-63 397.759,-63"/>
<polygon fill="midnightblue" stroke="midnightblue" points="397.875,-66.5001 407.875,-63 397.875,-59.5001 397.875,-66.5001"/>
</g>
</g>
</svg>
