<?xml version="1.0" encoding="UTF-8" standalone="no"?>
<!DOCTYPE svg PUBLIC "-//W3C//DTD SVG 1.1//EN"
 "http://www.w3.org/Graphics/SVG/1.1/DTD/svg11.dtd">
<!-- Generated by graphviz version 2.28.0 (20111219.2309)
 -->
<!-- Title: forcebalance.optimizer.Optimizer.FDCheckH Pages: 1 -->
<svg width="438pt" height="66pt"
 viewBox="0.00 0.00 438.00 66.00" xmlns="http://www.w3.org/2000/svg" xmlns:xlink="http://www.w3.org/1999/xlink">
<g id="graph1" class="graph" transform="scale(1 1) rotate(0) translate(4 62)">
<title>forcebalance.optimizer.Optimizer.FDCheckH</title>
<polygon fill="white" stroke="white" points="-4,5 -4,-62 435,-62 435,5 -4,5"/>
<!-- Node1 -->
<g id="node1" class="node"><title>Node1</title>
<polygon fill="#bfbfbf" stroke="black" points="0.5,-14 0.5,-44 177.5,-44 177.5,-14 0.5,-14"/>
<text text-anchor="start" x="8.5" y="-32" font-family="Ubuntu-R" font-size="10.00">forcebalance.optimizer.Optimizer.</text>
<text text-anchor="middle" x="89" y="-21" font-family="Ubuntu-R" font-size="10.00">FDCheckH</text>
</g>
<!-- Node2 -->
<g id="node3" class="node"><title>Node2</title>
<a xlink:href="classforcebalance_1_1optimizer_1_1Optimizer.html#a05ee5fe985b3e2ec71071ca061e42d66" target="_top" xlink:title="Read the checkpoint file for the main optimizer. ">
<polygon fill="white" stroke="black" points="214.5,-38.5 214.5,-57.5 429.5,-57.5 429.5,-38.5 214.5,-38.5"/>
<text text-anchor="middle" x="322" y="-45.5" font-family="Ubuntu-R" font-size="10.00">forcebalance.optimizer.Optimizer.readchk</text>
</a>
</g>
<!-- Node1&#45;&gt;Node2 -->
<g id="edge2" class="edge"><title>Node1&#45;&gt;Node2</title>
<path fill="none" stroke="midnightblue" d="M177.661,-36.2102C186.378,-36.9272 195.319,-37.6626 204.271,-38.3989"/>
<polygon fill="midnightblue" stroke="midnightblue" points="204.117,-41.898 214.371,-39.2296 204.691,-34.9216 204.117,-41.898"/>
</g>
<!-- Node3 -->
<g id="node5" class="node"><title>Node3</title>
<a xlink:href="classforcebalance_1_1optimizer_1_1Optimizer.html#aa7ac7cda43b70ac58ccbd6c8445e88ef" target="_top" xlink:title="Write the checkpoint file for the main optimizer. ">
<polygon fill="white" stroke="black" points="214,-0.5 214,-19.5 430,-19.5 430,-0.5 214,-0.5"/>
<text text-anchor="middle" x="322" y="-7.5" font-family="Ubuntu-R" font-size="10.00">forcebalance.optimizer.Optimizer.writechk</text>
</a>
</g>
<!-- Node1&#45;&gt;Node3 -->
<g id="edge4" class="edge"><title>Node1&#45;&gt;Node3</title>
<path fill="none" stroke="midnightblue" d="M177.661,-21.7898C186.285,-21.0805 195.129,-20.353 203.985,-19.6246"/>
<polygon fill="midnightblue" stroke="midnightblue" points="204.299,-23.1107 213.978,-18.8026 203.725,-16.1343 204.299,-23.1107"/>
</g>
</g>
</svg>
