<?xml version="1.0" encoding="UTF-8" standalone="no"?>
<!DOCTYPE svg PUBLIC "-//W3C//DTD SVG 1.1//EN"
 "http://www.w3.org/Graphics/SVG/1.1/DTD/svg11.dtd">
<!-- Generated by graphviz version 2.26.3 (20100126.1600)
 -->
<!-- Title: forcebalance.liquid.Liquid Pages: 1 -->
<svg width="334pt" height="290pt"
 viewBox="0.00 0.00 334.00 290.00" xmlns="http://www.w3.org/2000/svg" xmlns:xlink="http://www.w3.org/1999/xlink">
<g id="graph1" class="graph" transform="scale(1 1) rotate(0) translate(4 286)">
<title>forcebalance.liquid.Liquid</title>
<polygon fill="white" stroke="white" points="-4,5 -4,-286 331,-286 331,5 -4,5"/>
<!-- Node1 -->
<g id="node1" class="node"><title>Node1</title>
<polygon fill="#bfbfbf" stroke="black" points="99,-72.5 99,-93.5 235,-93.5 235,-72.5 99,-72.5"/>
<text text-anchor="middle" x="167" y="-80.5" font-family="Ubuntu-R" font-size="10.00">forcebalance.liquid.Liquid</text>
</g>
<!-- Node5 -->
<g id="node9" class="node"><title>Node5</title>
<a xlink:href="classforcebalance_1_1openmmio_1_1Liquid__OpenMM.html" target="_top" xlink:title="forcebalance.openmmio.Liquid\l_OpenMM">
<polygon fill="white" stroke="black" points="-0.5,-1 -0.5,-35 162.5,-35 162.5,-1 -0.5,-1"/>
<text text-anchor="start" x="7.5" y="-22" font-family="Ubuntu-R" font-size="10.00">forcebalance.openmmio.Liquid</text>
<text text-anchor="middle" x="81" y="-9" font-family="Ubuntu-R" font-size="10.00">_OpenMM</text>
</a>
</g>
<!-- Node1&#45;&gt;Node5 -->
<g id="edge8" class="edge"><title>Node1&#45;&gt;Node5</title>
<path fill="none" stroke="midnightblue" d="M144.637,-66.0977C132.021,-56.5624 116.298,-44.6789 103.638,-35.1099"/>
<polygon fill="midnightblue" stroke="midnightblue" points="142.711,-69.0291 152.799,-72.2666 146.932,-63.4447 142.711,-69.0291"/>
</g>
<!-- Node6 -->
<g id="node11" class="node"><title>Node6</title>
<a xlink:href="classforcebalance_1_1tinkerio_1_1Liquid__TINKER.html" target="_top" xlink:title="forcebalance.tinkerio.Liquid\l_TINKER">
<polygon fill="white" stroke="black" points="180,-1 180,-35 326,-35 326,-1 180,-1"/>
<text text-anchor="start" x="188" y="-22" font-family="Ubuntu-R" font-size="10.00">forcebalance.tinkerio.Liquid</text>
<text text-anchor="middle" x="253" y="-9" font-family="Ubuntu-R" font-size="10.00">_TINKER</text>
</a>
</g>
<!-- Node1&#45;&gt;Node6 -->
<g id="edge10" class="edge"><title>Node1&#45;&gt;Node6</title>
<path fill="none" stroke="midnightblue" d="M189.363,-66.0977C201.979,-56.5624 217.702,-44.6789 230.362,-35.1099"/>
<polygon fill="midnightblue" stroke="midnightblue" points="187.068,-63.4447 181.201,-72.2666 191.289,-69.0291 187.068,-63.4447"/>
</g>
<!-- Node2 -->
<g id="node2" class="node"><title>Node2</title>
<a xlink:href="classforcebalance_1_1target_1_1Target.html" target="_top" xlink:title="Base class for all fitting targets.">
<polygon fill="white" stroke="black" points="96,-130.5 96,-151.5 238,-151.5 238,-130.5 96,-130.5"/>
<text text-anchor="middle" x="167" y="-138.5" font-family="Ubuntu-R" font-size="10.00">forcebalance.target.Target</text>
</a>
</g>
<!-- Node2&#45;&gt;Node1 -->
<g id="edge2" class="edge"><title>Node2&#45;&gt;Node1</title>
<path fill="none" stroke="midnightblue" d="M167,-120.191C167,-111.168 167,-100.994 167,-93.5707"/>
<polygon fill="midnightblue" stroke="midnightblue" points="163.5,-120.362 167,-130.362 170.5,-120.362 163.5,-120.362"/>
</g>
<!-- Node3 -->
<g id="node4" class="node"><title>Node3</title>
<a xlink:href="classforcebalance_1_1baseclass_1_1ForceBalanceBaseClass.html" target="_top" xlink:title="Provides some nifty functions that are common to all ForceBalance classes.">
<polygon fill="white" stroke="black" points="88.5,-189 88.5,-223 245.5,-223 245.5,-189 88.5,-189"/>
<text text-anchor="start" x="96.5" y="-210" font-family="Ubuntu-R" font-size="10.00">forcebalance.baseclass.Force</text>
<text text-anchor="middle" x="167" y="-197" font-family="Ubuntu-R" font-size="10.00">BalanceBaseClass</text>
</a>
</g>
<!-- Node3&#45;&gt;Node2 -->
<g id="edge4" class="edge"><title>Node3&#45;&gt;Node2</title>
<path fill="none" stroke="midnightblue" d="M167,-178.688C167,-169.242 167,-159.195 167,-151.852"/>
<polygon fill="midnightblue" stroke="midnightblue" points="163.5,-178.922 167,-188.922 170.5,-178.922 163.5,-178.922"/>
</g>
<!-- Node4 -->
<g id="node6" class="node"><title>Node4</title>
<polygon fill="white" stroke="#bfbfbf" points="144,-260.5 144,-281.5 190,-281.5 190,-260.5 144,-260.5"/>
<text text-anchor="middle" x="167" y="-268.5" font-family="Ubuntu-R" font-size="10.00">object</text>
</g>
<!-- Node4&#45;&gt;Node3 -->
<g id="edge6" class="edge"><title>Node4&#45;&gt;Node3</title>
<path fill="none" stroke="midnightblue" d="M167,-250.131C167,-241.405 167,-231.391 167,-223.11"/>
<polygon fill="midnightblue" stroke="midnightblue" points="163.5,-250.267 167,-260.267 170.5,-250.267 163.5,-250.267"/>
</g>
</g>
</svg>
