<?xml version="1.0" encoding="UTF-8" standalone="no"?>
<!DOCTYPE svg PUBLIC "-//W3C//DTD SVG 1.1//EN"
 "http://www.w3.org/Graphics/SVG/1.1/DTD/svg11.dtd">
<!-- Generated by graphviz version 2.32.0 (20130801.1845)
 -->
<!-- Title: forcebalance.amberio.FrcMod_Reader Pages: 1 -->
<svg width="126pt" height="170pt"
 viewBox="0.00 0.00 126.00 170.00" xmlns="http://www.w3.org/2000/svg" xmlns:xlink="http://www.w3.org/1999/xlink">
<g id="graph0" class="graph" transform="scale(1 1) rotate(0) translate(4 166)">
<title>forcebalance.amberio.FrcMod_Reader</title>
<polygon fill="white" stroke="white" points="-4,5 -4,-166 123,-166 123,5 -4,5"/>
<!-- Node1 -->
<g id="node1" class="node"><title>Node1</title>
<polygon fill="#bfbfbf" stroke="black" points="-0.0815,-1 -0.0815,-33 118.082,-33 118.082,-1 -0.0815,-1"/>
<text text-anchor="start" x="7.9185" y="-20" font-family="Ubuntu-R" font-size="10.00">forcebalance.amberio.Frc</text>
<text text-anchor="middle" x="59" y="-8" font-family="Ubuntu-R" font-size="10.00">Mod_Reader</text>
</g>
<!-- Node2 -->
<g id="node2" class="node"><title>Node2</title>
<g id="a_node2"><a xlink:href="classforcebalance_1_1basereader_1_1BaseReader.html" target="_top" xlink:title="The &#39;reader&#39; class.">
<polygon fill="white" stroke="black" points="1.5935,-71 1.5935,-103 116.407,-103 116.407,-71 1.5935,-71"/>
<text text-anchor="start" x="9.5935" y="-90" font-family="Ubuntu-R" font-size="10.00">forcebalance.basereader.</text>
<text text-anchor="middle" x="59" y="-78" font-family="Ubuntu-R" font-size="10.00">BaseReader</text>
</a>
</g>
</g>
<!-- Node2&#45;&gt;Node1 -->
<g id="edge1" class="edge"><title>Node2&#45;&gt;Node1</title>
<path fill="none" stroke="midnightblue" d="M59,-60.6174C59,-51.3378 59,-41.1413 59,-33.0492"/>
<polygon fill="midnightblue" stroke="midnightblue" points="55.5001,-60.9086 59,-70.9086 62.5001,-60.9086 55.5001,-60.9086"/>
</g>
<!-- Node3 -->
<g id="node3" class="node"><title>Node3</title>
<polygon fill="white" stroke="#bfbfbf" points="38.782,-141 38.782,-161 79.218,-161 79.218,-141 38.782,-141"/>
<text text-anchor="middle" x="59" y="-148" font-family="Ubuntu-R" font-size="10.00">object</text>
</g>
<!-- Node3&#45;&gt;Node2 -->
<g id="edge2" class="edge"><title>Node3&#45;&gt;Node2</title>
<path fill="none" stroke="midnightblue" d="M59,-130.775C59,-121.986 59,-111.715 59,-103.44"/>
<polygon fill="midnightblue" stroke="midnightblue" points="55.5001,-130.852 59,-140.852 62.5001,-130.852 55.5001,-130.852"/>
</g>
</g>
</svg>
