<?xml version="1.0" encoding="UTF-8" standalone="no"?>
<!DOCTYPE svg PUBLIC "-//W3C//DTD SVG 1.1//EN"
 "http://www.w3.org/Graphics/SVG/1.1/DTD/svg11.dtd">
<!-- Generated by graphviz version 2.40.1 (20161225.0304)
 -->
<!-- Title: src.ffyapf.FF.make Pages: 1 -->
<svg width="395pt" height="129pt"
 viewBox="0.00 0.00 395.00 129.00" xmlns="http://www.w3.org/2000/svg" xmlns:xlink="http://www.w3.org/1999/xlink">
<g id="graph0" class="graph" transform="scale(1 1) rotate(0) translate(4 125)">
<title>src.ffyapf.FF.make</title>
<polygon fill="#ffffff" stroke="transparent" points="-4,4 -4,-125 391,-125 391,4 -4,4"/>
<!-- Node38 -->
<g id="node1" class="node">
<title>Node38</title>
<polygon fill="#bfbfbf" stroke="#000000" points="0,-38.5 0,-57.5 104,-57.5 104,-38.5 0,-38.5"/>
<text text-anchor="middle" x="52" y="-45.5" font-family="Ubuntu-R" font-size="10.00" fill="#000000">src.ffyapf.FF.make</text>
</g>
<!-- Node39 -->
<g id="node2" class="node">
<title>Node39</title>
<g id="a_node2"><a xlink:href="classsrc_1_1ffyapf_1_1FF.html#a349f2f0f401834f86f9361d8ec32ad0a" target="_top" xlink:title="Converts mathematical to physical parameters. ">
<polygon fill="#ffffff" stroke="#000000" points="155,-77 155,-107 262,-107 262,-77 155,-77"/>
<text text-anchor="start" x="163" y="-95" font-family="Ubuntu-R" font-size="10.00" fill="#000000">src.ffyapf.FF.create</text>
<text text-anchor="middle" x="208.5" y="-84" font-family="Ubuntu-R" font-size="10.00" fill="#000000">_pvals</text>
</a>
</g>
</g>
<!-- Node38&#45;&gt;Node39 -->
<g id="edge1" class="edge">
<title>Node38&#45;&gt;Node39</title>
<path fill="none" stroke="#191970" d="M85.9582,-57.5473C103.2636,-62.4128 124.8785,-68.4898 145.116,-74.1796"/>
<polygon fill="#191970" stroke="#191970" points="144.3412,-77.5974 154.9152,-76.9346 146.2358,-70.8586 144.3412,-77.5974"/>
</g>
<!-- Node42 -->
<g id="node5" class="node">
<title>Node42</title>
<g id="a_node5"><a xlink:href="namespacesrc_1_1nifty.html#a6ae2951ba2a22420a11abda6be7e5454" target="_top" xlink:title="src.nifty.warn_press_key">
<polygon fill="#ffffff" stroke="#000000" points="140,-38.5 140,-57.5 277,-57.5 277,-38.5 140,-38.5"/>
<text text-anchor="middle" x="208.5" y="-45.5" font-family="Ubuntu-R" font-size="10.00" fill="#000000">src.nifty.warn_press_key</text>
</a>
</g>
</g>
<!-- Node38&#45;&gt;Node42 -->
<g id="edge4" class="edge">
<title>Node38&#45;&gt;Node42</title>
<path fill="none" stroke="#191970" d="M104.1122,-48C112.3566,-48 121.0383,-48 129.7285,-48"/>
<polygon fill="#191970" stroke="#191970" points="129.9084,-51.5001 139.9084,-48 129.9084,-44.5001 129.9084,-51.5001"/>
</g>
<!-- Node43 -->
<g id="node6" class="node">
<title>Node43</title>
<g id="a_node6"><a xlink:href="namespacesrc_1_1nifty.html#a82f89e3045bdeed09a928bb9ce8b0dc1" target="_top" xlink:title="If trying to write to a symbolic link, remove it first. ">
<polygon fill="#ffffff" stroke="#000000" points="163.5,-.5 163.5,-19.5 253.5,-19.5 253.5,-.5 163.5,-.5"/>
<text text-anchor="middle" x="208.5" y="-7.5" font-family="Ubuntu-R" font-size="10.00" fill="#000000">src.nifty.wopen</text>
</a>
</g>
</g>
<!-- Node38&#45;&gt;Node43 -->
<g id="edge5" class="edge">
<title>Node38&#45;&gt;Node43</title>
<path fill="none" stroke="#191970" d="M91.4916,-38.411C112.1434,-33.3965 137.614,-27.2119 159.5125,-21.8947"/>
<polygon fill="#191970" stroke="#191970" points="160.4007,-25.2809 169.2924,-19.5201 158.7489,-18.4785 160.4007,-25.2809"/>
</g>
<!-- Node40 -->
<g id="node3" class="node">
<title>Node40</title>
<g id="a_node3"><a xlink:href="namespacesrc_1_1nifty.html#ac5b7efc0b11b4fcbb7d0c37c97c4399d" target="_top" xlink:title="Given any list, array, or matrix, return a single&#45;index array. ">
<polygon fill="#ffffff" stroke="#000000" points="313,-101.5 313,-120.5 387,-120.5 387,-101.5 313,-101.5"/>
<text text-anchor="middle" x="350" y="-108.5" font-family="Ubuntu-R" font-size="10.00" fill="#000000">src.nifty.flat</text>
</a>
</g>
</g>
<!-- Node39&#45;&gt;Node40 -->
<g id="edge2" class="edge">
<title>Node39&#45;&gt;Node40</title>
<path fill="none" stroke="#191970" d="M262.3987,-99.2373C275.7101,-101.0247 289.8665,-102.9255 302.8303,-104.6663"/>
<polygon fill="#191970" stroke="#191970" points="302.5554,-108.1607 312.9323,-106.0227 303.4871,-101.2229 302.5554,-108.1607"/>
</g>
<!-- Node41 -->
<g id="node4" class="node">
<title>Node41</title>
<g id="a_node4"><a xlink:href="namespacesrc_1_1nifty.html#a9548285fa85a369d98169ec25abe974c" target="_top" xlink:title="Given any list, array, or matrix, return a 1&#45;column 2D array. ">
<polygon fill="#ffffff" stroke="#000000" points="314,-63.5 314,-82.5 386,-82.5 386,-63.5 314,-63.5"/>
<text text-anchor="middle" x="350" y="-70.5" font-family="Ubuntu-R" font-size="10.00" fill="#000000">src.nifty.col</text>
</a>
</g>
</g>
<!-- Node39&#45;&gt;Node41 -->
<g id="edge3" class="edge">
<title>Node39&#45;&gt;Node41</title>
<path fill="none" stroke="#191970" d="M262.3987,-84.7627C275.9566,-82.9422 290.3911,-81.004 303.5492,-79.2372"/>
<polygon fill="#191970" stroke="#191970" points="304.3418,-82.6623 313.787,-77.8625 303.4101,-75.7246 304.3418,-82.6623"/>
</g>
</g>
</svg>
