<?xml version="1.0" encoding="UTF-8" standalone="no"?>
<!DOCTYPE svg PUBLIC "-//W3C//DTD SVG 1.1//EN"
 "http://www.w3.org/Graphics/SVG/1.1/DTD/svg11.dtd">
<!-- Generated by graphviz version 2.26.3 (20100126.1600)
 -->
<!-- Title: forcebalance.tinkerio.TINKER.prepare Pages: 1 -->
<svg width="784pt" height="88pt"
 viewBox="0.00 0.00 784.00 88.00" xmlns="http://www.w3.org/2000/svg" xmlns:xlink="http://www.w3.org/1999/xlink">
<g id="graph1" class="graph" transform="scale(1 1) rotate(0) translate(4 84)">
<title>forcebalance.tinkerio.TINKER.prepare</title>
<polygon fill="white" stroke="white" points="-4,5 -4,-84 781,-84 781,5 -4,5"/>
<!-- Node1 -->
<g id="node1" class="node"><title>Node1</title>
<polygon fill="#bfbfbf" stroke="black" points="0.5,-29.5 0.5,-50.5 193.5,-50.5 193.5,-29.5 0.5,-29.5"/>
<text text-anchor="middle" x="97" y="-37.5" font-family="Ubuntu-R" font-size="10.00">forcebalance.tinkerio.TINKER.prepare</text>
</g>
<!-- Node2 -->
<g id="node3" class="node"><title>Node2</title>
<a xlink:href="classforcebalance_1_1tinkerio_1_1TINKER.html#addfa1257c7cb85c51c980474c7354cab" target="_top" xlink:title="Call TINKER; prepend the tinkerpath to calling the TINKER program. ">
<polygon fill="white" stroke="black" points="230,-29.5 230,-50.5 428,-50.5 428,-29.5 230,-29.5"/>
<text text-anchor="middle" x="329" y="-37.5" font-family="Ubuntu-R" font-size="10.00">forcebalance.tinkerio.TINKER.calltinker</text>
</a>
</g>
<!-- Node1&#45;&gt;Node2 -->
<g id="edge2" class="edge"><title>Node1&#45;&gt;Node2</title>
<path fill="none" stroke="midnightblue" d="M193.709,-40C202.288,-40 211.012,-40 219.685,-40"/>
<polygon fill="midnightblue" stroke="midnightblue" points="219.833,-43.5001 229.833,-40 219.833,-36.5001 219.833,-43.5001"/>
</g>
<!-- Node3 -->
<g id="node5" class="node"><title>Node3</title>
<a xlink:href="namespaceforcebalance_1_1nifty.html#ab182a9da2a2f42cf45942fbee6acf9b1" target="_top" xlink:title="forcebalance.nifty.LinkFile">
<polygon fill="white" stroke="black" points="464.5,-52.5 464.5,-73.5 601.5,-73.5 601.5,-52.5 464.5,-52.5"/>
<text text-anchor="middle" x="533" y="-60.5" font-family="Ubuntu-R" font-size="10.00">forcebalance.nifty.LinkFile</text>
</a>
</g>
<!-- Node2&#45;&gt;Node3 -->
<g id="edge4" class="edge"><title>Node2&#45;&gt;Node3</title>
<path fill="none" stroke="midnightblue" d="M422.343,-50.524C433.076,-51.7341 443.938,-52.9587 454.449,-54.1438"/>
<polygon fill="midnightblue" stroke="midnightblue" points="454.074,-57.6236 464.403,-55.266 454.858,-50.6676 454.074,-57.6236"/>
</g>
<!-- Node5 -->
<g id="node9" class="node"><title>Node5</title>
<a xlink:href="namespaceforcebalance_1_1nifty.html#abb8f59044961a12588e0653c2baa8b01" target="_top" xlink:title="forcebalance.nifty.warn\l_press_key">
<polygon fill="white" stroke="black" points="470.5,-0 470.5,-34 595.5,-34 595.5,-0 470.5,-0"/>
<text text-anchor="start" x="478.5" y="-21" font-family="Ubuntu-R" font-size="10.00">forcebalance.nifty.warn</text>
<text text-anchor="middle" x="533" y="-8" font-family="Ubuntu-R" font-size="10.00">_press_key</text>
</a>
</g>
<!-- Node2&#45;&gt;Node5 -->
<g id="edge8" class="edge"><title>Node2&#45;&gt;Node5</title>
<path fill="none" stroke="midnightblue" d="M422.343,-29.476C435.048,-28.0436 447.932,-26.591 460.202,-25.2077"/>
<polygon fill="midnightblue" stroke="midnightblue" points="460.801,-28.6624 470.346,-24.064 460.016,-21.7065 460.801,-28.6624"/>
</g>
<!-- Node4 -->
<g id="node7" class="node"><title>Node4</title>
<a xlink:href="namespaceforcebalance_1_1nifty.html#ae87c7def5f8edf2ec30737bdb1d2636f" target="_top" xlink:title="forcebalance.nifty.Missing\lFileInspection">
<polygon fill="white" stroke="black" points="638,-46 638,-80 776,-80 776,-46 638,-46"/>
<text text-anchor="start" x="646" y="-67" font-family="Ubuntu-R" font-size="10.00">forcebalance.nifty.Missing</text>
<text text-anchor="middle" x="707" y="-54" font-family="Ubuntu-R" font-size="10.00">FileInspection</text>
</a>
</g>
<!-- Node3&#45;&gt;Node4 -->
<g id="edge6" class="edge"><title>Node3&#45;&gt;Node4</title>
<path fill="none" stroke="midnightblue" d="M601.769,-63C610.304,-63 619.083,-63 627.759,-63"/>
<polygon fill="midnightblue" stroke="midnightblue" points="627.875,-66.5001 637.875,-63 627.875,-59.5001 627.875,-66.5001"/>
</g>
</g>
</svg>
