<?xml version="1.0" encoding="UTF-8" standalone="no"?>
<!DOCTYPE svg PUBLIC "-//W3C//DTD SVG 1.1//EN"
 "http://www.w3.org/Graphics/SVG/1.1/DTD/svg11.dtd">
<!-- Generated by graphviz version 2.40.1 (20161225.0304)
 -->
<!-- Title: src.smirnoffio.AbInitio_SMIRNOFF.submit_jobs Pages: 1 -->
<svg width="328pt" height="50pt"
 viewBox="0.00 0.00 328.00 50.00" xmlns="http://www.w3.org/2000/svg" xmlns:xlink="http://www.w3.org/1999/xlink">
<g id="graph0" class="graph" transform="scale(1 1) rotate(0) translate(4 46)">
<title>src.smirnoffio.AbInitio_SMIRNOFF.submit_jobs</title>
<polygon fill="#ffffff" stroke="transparent" points="-4,4 -4,-46 324,-46 324,4 -4,4"/>
<!-- Node3 -->
<g id="node1" class="node">
<title>Node3</title>
<polygon fill="#bfbfbf" stroke="#000000" points="0,-6 0,-36 132,-36 132,-6 0,-6"/>
<text text-anchor="start" x="8" y="-24" font-family="Ubuntu-R" font-size="10.00" fill="#000000">src.smirnoffio.AbInitio</text>
<text text-anchor="middle" x="66" y="-13" font-family="Ubuntu-R" font-size="10.00" fill="#000000">_SMIRNOFF.submit_jobs</text>
</g>
<!-- Node4 -->
<g id="node2" class="node">
<title>Node4</title>
<g id="a_node2"><a xlink:href="classsrc_1_1smirnoffio_1_1AbInitio__SMIRNOFF.html#aba6c15a7fd233b8ec236dfa8551d1c93" target="_top" xlink:title="Update self.pgrads based on smirks present in mol2 files. ">
<polygon fill="#ffffff" stroke="#000000" points="168,-.5 168,-41.5 320,-41.5 320,-.5 168,-.5"/>
<text text-anchor="start" x="176" y="-29.5" font-family="Ubuntu-R" font-size="10.00" fill="#000000">src.smirnoffio.AbInitio</text>
<text text-anchor="start" x="176" y="-18.5" font-family="Ubuntu-R" font-size="10.00" fill="#000000">_SMIRNOFF.smirnoff_update</text>
<text text-anchor="middle" x="244" y="-7.5" font-family="Ubuntu-R" font-size="10.00" fill="#000000">_pgrads</text>
</a>
</g>
</g>
<!-- Node3&#45;&gt;Node4 -->
<g id="edge1" class="edge">
<title>Node3&#45;&gt;Node4</title>
<path fill="none" stroke="#191970" d="M132.0277,-21C140.419,-21 149.1027,-21 157.7518,-21"/>
<polygon fill="#191970" stroke="#191970" points="157.8696,-24.5001 167.8696,-21 157.8695,-17.5001 157.8696,-24.5001"/>
</g>
</g>
</svg>
