<?xml version="1.0" encoding="UTF-8" standalone="no"?>
<!DOCTYPE svg PUBLIC "-//W3C//DTD SVG 1.1//EN"
 "http://www.w3.org/Graphics/SVG/1.1/DTD/svg11.dtd">
<!-- Generated by graphviz version 2.28.0 (20111219.2309)
 -->
<!-- Title: forcebalance.psi4io.THCDF_Psi4 Pages: 1 -->
<svg width="176pt" height="264pt"
 viewBox="0.00 0.00 176.00 264.00" xmlns="http://www.w3.org/2000/svg" xmlns:xlink="http://www.w3.org/1999/xlink">
<g id="graph1" class="graph" transform="scale(1 1) rotate(0) translate(4 260)">
<title>forcebalance.psi4io.THCDF_Psi4</title>
<polygon fill="white" stroke="white" points="-4,5 -4,-260 173,-260 173,5 -4,5"/>
<!-- Node1 -->
<g id="node1" class="node"><title>Node1</title>
<polygon fill="#bfbfbf" stroke="black" points="-0.5,-0.5 -0.5,-19.5 168.5,-19.5 168.5,-0.5 -0.5,-0.5"/>
<text text-anchor="middle" x="84" y="-7.5" font-family="Ubuntu-R" font-size="10.00">forcebalance.psi4io.THCDF_Psi4</text>
</g>
<!-- Node2 -->
<g id="node2" class="node"><title>Node2</title>
<a xlink:href="classforcebalance_1_1leastsq_1_1LeastSquares.html" target="_top" xlink:title="Subclass of Target for general least squares fitting. ">
<polygon fill="white" stroke="black" points="11.5,-57 11.5,-87 156.5,-87 156.5,-57 11.5,-57"/>
<text text-anchor="start" x="19.5" y="-75" font-family="Ubuntu-R" font-size="10.00">forcebalance.leastsq.Least</text>
<text text-anchor="middle" x="84" y="-64" font-family="Ubuntu-R" font-size="10.00">Squares</text>
</a>
</g>
<!-- Node2&#45;&gt;Node1 -->
<g id="edge2" class="edge"><title>Node2&#45;&gt;Node1</title>
<path fill="none" stroke="midnightblue" d="M84,-46.5858C84,-37.0743 84,-26.7864 84,-19.7305"/>
<polygon fill="midnightblue" stroke="midnightblue" points="80.5001,-46.7808 84,-56.7808 87.5001,-46.7809 80.5001,-46.7808"/>
</g>
<!-- Node3 -->
<g id="node4" class="node"><title>Node3</title>
<a xlink:href="classforcebalance_1_1target_1_1Target.html" target="_top" xlink:title="Base class for all fitting targets. ">
<polygon fill="white" stroke="black" points="12.5,-124.5 12.5,-143.5 155.5,-143.5 155.5,-124.5 12.5,-124.5"/>
<text text-anchor="middle" x="84" y="-131.5" font-family="Ubuntu-R" font-size="10.00">forcebalance.target.Target</text>
</a>
</g>
<!-- Node3&#45;&gt;Node2 -->
<g id="edge4" class="edge"><title>Node3&#45;&gt;Node2</title>
<path fill="none" stroke="midnightblue" d="M84,-114.371C84,-105.585 84,-95.2721 84,-87.1408"/>
<polygon fill="midnightblue" stroke="midnightblue" points="80.5001,-114.403 84,-124.403 87.5001,-114.403 80.5001,-114.403"/>
</g>
<!-- Node4 -->
<g id="node6" class="node"><title>Node4</title>
<a xlink:href="classforcebalance_1_1BaseClass.html" target="_top" xlink:title="Provides some nifty functions that are common to all ForceBalance classes. ">
<polygon fill="white" stroke="black" points="18.5,-180.5 18.5,-199.5 149.5,-199.5 149.5,-180.5 18.5,-180.5"/>
<text text-anchor="middle" x="84" y="-187.5" font-family="Ubuntu-R" font-size="10.00">forcebalance.BaseClass</text>
</a>
</g>
<!-- Node4&#45;&gt;Node3 -->
<g id="edge6" class="edge"><title>Node4&#45;&gt;Node3</title>
<path fill="none" stroke="midnightblue" d="M84,-169.805C84,-160.91 84,-150.78 84,-143.751"/>
<polygon fill="midnightblue" stroke="midnightblue" points="80.5001,-170.083 84,-180.083 87.5001,-170.083 80.5001,-170.083"/>
</g>
<!-- Node5 -->
<g id="node8" class="node"><title>Node5</title>
<polygon fill="white" stroke="#bfbfbf" points="61,-236.5 61,-255.5 107,-255.5 107,-236.5 61,-236.5"/>
<text text-anchor="middle" x="84" y="-243.5" font-family="Ubuntu-R" font-size="10.00">object</text>
</g>
<!-- Node5&#45;&gt;Node4 -->
<g id="edge8" class="edge"><title>Node5&#45;&gt;Node4</title>
<path fill="none" stroke="midnightblue" d="M84,-225.805C84,-216.91 84,-206.78 84,-199.751"/>
<polygon fill="midnightblue" stroke="midnightblue" points="80.5001,-226.083 84,-236.083 87.5001,-226.083 80.5001,-226.083"/>
</g>
</g>
</svg>
