<?xml version="1.0" encoding="UTF-8" standalone="no"?>
<!DOCTYPE svg PUBLIC "-//W3C//DTD SVG 1.1//EN"
 "http://www.w3.org/Graphics/SVG/1.1/DTD/svg11.dtd">
<!-- Generated by graphviz version 2.32.0 (20130801.1845)
 -->
<!-- Title: forcebalance.gmxio.Liquid_GMX.prepare_temp_directory Pages: 1 -->
<svg width="828pt" height="110pt"
 viewBox="0.00 0.00 828.00 110.00" xmlns="http://www.w3.org/2000/svg" xmlns:xlink="http://www.w3.org/1999/xlink">
<g id="graph0" class="graph" transform="scale(1 1) rotate(0) translate(4 106)">
<title>forcebalance.gmxio.Liquid_GMX.prepare_temp_directory</title>
<polygon fill="white" stroke="white" points="-4,5 -4,-106 825,-106 825,5 -4,5"/>
<!-- Node1 -->
<g id="node1" class="node"><title>Node1</title>
<polygon fill="#bfbfbf" stroke="black" points="0.5535,-25 0.5535,-57 143.447,-57 143.447,-25 0.5535,-25"/>
<text text-anchor="start" x="8.5535" y="-44" font-family="Ubuntu-R" font-size="10.00">forcebalance.gmxio.Liquid</text>
<text text-anchor="middle" x="72" y="-32" font-family="Ubuntu-R" font-size="10.00">_GMX.prepare_temp_directory</text>
</g>
<!-- Node2 -->
<g id="node2" class="node"><title>Node2</title>
<g id="a_node2"><a xlink:href="namespaceforcebalance_1_1nifty.html#ab182a9da2a2f42cf45942fbee6acf9b1" target="_top" xlink:title="forcebalance.nifty.LinkFile">
<polygon fill="white" stroke="black" points="187.299,-76 187.299,-96 312.701,-96 312.701,-76 187.299,-76"/>
<text text-anchor="middle" x="250" y="-83" font-family="Ubuntu-R" font-size="10.00">forcebalance.nifty.LinkFile</text>
</a>
</g>
</g>
<!-- Node1&#45;&gt;Node2 -->
<g id="edge1" class="edge"><title>Node1&#45;&gt;Node2</title>
<path fill="none" stroke="midnightblue" d="M136.043,-57.1189C157.053,-62.4909 180.133,-68.392 199.924,-73.452"/>
<polygon fill="midnightblue" stroke="midnightblue" points="199.091,-76.8518 209.647,-75.9381 200.826,-70.07 199.091,-76.8518"/>
</g>
<!-- Node4 -->
<g id="node4" class="node"><title>Node4</title>
<g id="a_node4"><a xlink:href="classforcebalance_1_1gmxio_1_1Liquid__GMX.html#a70a950655df19e6ed0365ba873fd0cc5" target="_top" xlink:title="forcebalance.gmxio.Liquid\l_GMX.polarization_correction">
<polygon fill="white" stroke="black" points="179.939,-25 179.939,-57 320.061,-57 320.061,-25 179.939,-25"/>
<text text-anchor="start" x="187.939" y="-44" font-family="Ubuntu-R" font-size="10.00">forcebalance.gmxio.Liquid</text>
<text text-anchor="middle" x="250" y="-32" font-family="Ubuntu-R" font-size="10.00">_GMX.polarization_correction</text>
</a>
</g>
</g>
<!-- Node1&#45;&gt;Node4 -->
<g id="edge3" class="edge"><title>Node1&#45;&gt;Node4</title>
<path fill="none" stroke="midnightblue" d="M143.572,-34.3691C152.164,-34.2503 160.987,-34.2204 169.695,-34.2794"/>
<polygon fill="midnightblue" stroke="midnightblue" points="169.807,-37.7807 179.845,-34.3895 169.883,-30.7811 169.807,-37.7807"/>
</g>
<!-- Node5 -->
<g id="node5" class="node"><title>Node5</title>
<g id="a_node5"><a xlink:href="classforcebalance_1_1gmxio_1_1Liquid__GMX.html#a858330327e84a1186b9a932fe2437489" target="_top" xlink:title="forcebalance.gmxio.Liquid\l_GMX.__init__">
<polygon fill="white" stroke="black" points="355.852,-0 355.852,-32 480.148,-32 480.148,-0 355.852,-0"/>
<text text-anchor="start" x="363.852" y="-19" font-family="Ubuntu-R" font-size="10.00">forcebalance.gmxio.Liquid</text>
<text text-anchor="middle" x="418" y="-7" font-family="Ubuntu-R" font-size="10.00">_GMX.__init__</text>
</a>
</g>
</g>
<!-- Node1&#45;&gt;Node5 -->
<g id="edge8" class="edge"><title>Node1&#45;&gt;Node5</title>
<path fill="none" stroke="midnightblue" d="M128.075,-24.9616C144.62,-20.8666 162.917,-17.0458 180,-15 235.189,-8.39093 298.127,-9.03535 345.267,-11.1184"/>
<polygon fill="midnightblue" stroke="midnightblue" points="345.225,-14.6203 355.38,-11.5979 345.557,-7.62814 345.225,-14.6203"/>
</g>
<!-- Node3 -->
<g id="node3" class="node"><title>Node3</title>
<g id="a_node3"><a xlink:href="namespaceforcebalance_1_1nifty.html#a25efa4d501ad852a234721af18978f7e" target="_top" xlink:title="Remove the file if it exists (doesn&#39;t return an error).">
<polygon fill="white" stroke="black" points="357.528,-70 357.528,-102 478.472,-102 478.472,-70 357.528,-70"/>
<text text-anchor="start" x="365.528" y="-89" font-family="Ubuntu-R" font-size="10.00">forcebalance.nifty.remove</text>
<text text-anchor="middle" x="418" y="-77" font-family="Ubuntu-R" font-size="10.00">_if_exists</text>
</a>
</g>
</g>
<!-- Node2&#45;&gt;Node3 -->
<g id="edge2" class="edge"><title>Node2&#45;&gt;Node3</title>
<path fill="none" stroke="midnightblue" d="M312.812,-86C323.963,-86 335.661,-86 347.025,-86"/>
<polygon fill="midnightblue" stroke="midnightblue" points="347.341,-89.5001 357.341,-86 347.341,-82.5001 347.341,-89.5001"/>
</g>
<!-- Node4&#45;&gt;Node1 -->
<g id="edge7" class="edge"><title>Node4&#45;&gt;Node1</title>
<path fill="none" stroke="midnightblue" d="M179.845,-47.6105C171.279,-47.7391 162.463,-47.7788 153.744,-47.7296"/>
<polygon fill="midnightblue" stroke="midnightblue" points="153.605,-44.2282 143.572,-47.6309 153.537,-51.2278 153.605,-44.2282"/>
</g>
<!-- Node4&#45;&gt;Node5 -->
<g id="edge4" class="edge"><title>Node4&#45;&gt;Node5</title>
<path fill="none" stroke="midnightblue" d="M320.437,-30.5426C328.775,-29.287 337.3,-28.003 345.664,-26.7434"/>
<polygon fill="midnightblue" stroke="midnightblue" points="346.395,-30.1728 355.762,-25.2225 345.353,-23.2509 346.395,-30.1728"/>
</g>
<!-- Node6 -->
<g id="node6" class="node"><title>Node6</title>
<g id="a_node6"><a xlink:href="namespaceforcebalance_1_1nifty.html#abb8f59044961a12588e0653c2baa8b01" target="_top" xlink:title="forcebalance.nifty.warn\l_press_key">
<polygon fill="white" stroke="black" points="516.528,-0 516.528,-32 627.472,-32 627.472,-0 516.528,-0"/>
<text text-anchor="start" x="524.528" y="-19" font-family="Ubuntu-R" font-size="10.00">forcebalance.nifty.warn</text>
<text text-anchor="middle" x="572" y="-7" font-family="Ubuntu-R" font-size="10.00">_press_key</text>
</a>
</g>
</g>
<!-- Node5&#45;&gt;Node6 -->
<g id="edge5" class="edge"><title>Node5&#45;&gt;Node6</title>
<path fill="none" stroke="midnightblue" d="M480.386,-16C488.821,-16 497.506,-16 506.003,-16"/>
<polygon fill="midnightblue" stroke="midnightblue" points="506.245,-19.5001 516.245,-16 506.245,-12.5001 506.245,-19.5001"/>
</g>
<!-- Node7 -->
<g id="node7" class="node"><title>Node7</title>
<g id="a_node7"><a xlink:href="namespaceforcebalance_1_1nifty.html#a2fc81730e7efa7d138dd86f733507bfc" target="_top" xlink:title="Similar to the bultin function map().">
<polygon fill="white" stroke="black" points="664.035,-6 664.035,-26 819.965,-26 819.965,-6 664.035,-6"/>
<text text-anchor="middle" x="742" y="-13" font-family="Ubuntu-R" font-size="10.00">forcebalance.nifty.concurrent_map</text>
</a>
</g>
</g>
<!-- Node6&#45;&gt;Node7 -->
<g id="edge6" class="edge"><title>Node6&#45;&gt;Node7</title>
<path fill="none" stroke="midnightblue" d="M627.545,-16C635.968,-16 644.843,-16 653.768,-16"/>
<polygon fill="midnightblue" stroke="midnightblue" points="653.843,-19.5001 663.843,-16 653.843,-12.5001 653.843,-19.5001"/>
</g>
</g>
</svg>
