<?xml version="1.0" encoding="UTF-8" standalone="no"?>
<!DOCTYPE svg PUBLIC "-//W3C//DTD SVG 1.1//EN"
 "http://www.w3.org/Graphics/SVG/1.1/DTD/svg11.dtd">
<!-- Generated by graphviz version 2.40.1 (20161225.0304)
 -->
<!-- Title: src.gmxio.GMX.energy_termnames Pages: 1 -->
<svg width="804pt" height="85pt"
 viewBox="0.00 0.00 804.00 85.00" xmlns="http://www.w3.org/2000/svg" xmlns:xlink="http://www.w3.org/1999/xlink">
<g id="graph0" class="graph" transform="scale(1 1) rotate(0) translate(4 81)">
<title>src.gmxio.GMX.energy_termnames</title>
<polygon fill="#ffffff" stroke="transparent" points="-4,4 -4,-81 800,-81 800,4 -4,4"/>
<!-- Node113 -->
<g id="node1" class="node">
<title>Node113</title>
<polygon fill="#bfbfbf" stroke="#000000" points="0,-14 0,-44 127,-44 127,-14 0,-14"/>
<text text-anchor="start" x="8" y="-32" font-family="Ubuntu-R" font-size="10.00" fill="#000000">src.gmxio.GMX.energy</text>
<text text-anchor="middle" x="63.5" y="-21" font-family="Ubuntu-R" font-size="10.00" fill="#000000">_termnames</text>
</g>
<!-- Node114 -->
<g id="node2" class="node">
<title>Node114</title>
<g id="a_node2"><a xlink:href="classsrc_1_1gmxio_1_1GMX.html#a9cd8a8dde96ee479107dd2933922235d" target="_top" xlink:title="Call GROMACS; prepend the gmxpath to the call to the GROMACS program. ">
<polygon fill="#ffffff" stroke="#000000" points="163,-38.5 163,-57.5 295,-57.5 295,-38.5 163,-38.5"/>
<text text-anchor="middle" x="229" y="-45.5" font-family="Ubuntu-R" font-size="10.00" fill="#000000">src.gmxio.GMX.callgmx</text>
</a>
</g>
</g>
<!-- Node113&#45;&gt;Node114 -->
<g id="edge1" class="edge">
<title>Node113&#45;&gt;Node114</title>
<path fill="none" stroke="#191970" d="M127.0133,-36.2916C135.4652,-37.2619 144.2005,-38.2647 152.8394,-39.2565"/>
<polygon fill="#191970" stroke="#191970" points="152.5797,-42.7496 162.9137,-40.4131 153.3782,-35.7953 152.5797,-42.7496"/>
</g>
<!-- Node121 -->
<g id="node9" class="node">
<title>Node121</title>
<g id="a_node9"><a xlink:href="namespacesrc_1_1molecule.html#a651f6c6d23932f5a2151784c992e94a8" target="_top" xlink:title="ONLY matches integers! If you have a decimal point? None shall pass! ">
<polygon fill="#ffffff" stroke="#000000" points="177.5,-.5 177.5,-19.5 280.5,-19.5 280.5,-.5 177.5,-.5"/>
<text text-anchor="middle" x="229" y="-7.5" font-family="Ubuntu-R" font-size="10.00" fill="#000000">src.molecule.isint</text>
</a>
</g>
</g>
<!-- Node113&#45;&gt;Node121 -->
<g id="edge8" class="edge">
<title>Node113&#45;&gt;Node121</title>
<path fill="none" stroke="#191970" d="M127.0133,-21.7084C140.1761,-20.1973 154.0263,-18.6072 167.1293,-17.103"/>
<polygon fill="#191970" stroke="#191970" points="167.9145,-20.5359 177.45,-15.9181 167.116,-13.5816 167.9145,-20.5359"/>
</g>
<!-- Node115 -->
<g id="node3" class="node">
<title>Node115</title>
<g id="a_node3"><a xlink:href="namespacesrc_1_1gmxio.html#a7430b70092fa07b4cad7d894a6ade4f9" target="_top" xlink:title="src.gmxio.rm_gmx_baks">
<polygon fill="#ffffff" stroke="#000000" points="331,-57.5 331,-76.5 468,-76.5 468,-57.5 331,-57.5"/>
<text text-anchor="middle" x="399.5" y="-64.5" font-family="Ubuntu-R" font-size="10.00" fill="#000000">src.gmxio.rm_gmx_baks</text>
</a>
</g>
</g>
<!-- Node114&#45;&gt;Node115 -->
<g id="edge2" class="edge">
<title>Node114&#45;&gt;Node115</title>
<path fill="none" stroke="#191970" d="M295.408,-55.4003C303.6508,-56.3189 312.1411,-57.265 320.5492,-58.202"/>
<polygon fill="#191970" stroke="#191970" points="320.4162,-61.7087 330.7424,-59.3379 321.1915,-54.7518 320.4162,-61.7087"/>
</g>
<!-- Node116 -->
<g id="node4" class="node">
<title>Node116</title>
<g id="a_node4"><a xlink:href="classsrc_1_1gmxio_1_1GMX.html#a3f0267ba817464cc778e6fe4a50e8440" target="_top" xlink:title="src.gmxio.GMX.links">
<polygon fill="#ffffff" stroke="#000000" points="341.5,-19.5 341.5,-38.5 457.5,-38.5 457.5,-19.5 341.5,-19.5"/>
<text text-anchor="middle" x="399.5" y="-26.5" font-family="Ubuntu-R" font-size="10.00" fill="#000000">src.gmxio.GMX.links</text>
</a>
</g>
</g>
<!-- Node114&#45;&gt;Node116 -->
<g id="edge3" class="edge">
<title>Node114&#45;&gt;Node116</title>
<path fill="none" stroke="#191970" d="M295.408,-40.5997C307.1236,-39.2941 319.339,-37.9329 331.1079,-36.6214"/>
<polygon fill="#191970" stroke="#191970" points="331.7608,-40.0704 341.3116,-35.4843 330.9855,-33.1135 331.7608,-40.0704"/>
</g>
<!-- Node117 -->
<g id="node5" class="node">
<title>Node117</title>
<g id="a_node5"><a xlink:href="namespacesrc_1_1nifty.html#aa751e61b12e5549898f8e1b03c3cb74b" target="_top" xlink:title="src.nifty.onefile">
<polygon fill="#ffffff" stroke="#000000" points="506,-38.5 506,-57.5 597,-57.5 597,-38.5 506,-38.5"/>
<text text-anchor="middle" x="551.5" y="-45.5" font-family="Ubuntu-R" font-size="10.00" fill="#000000">src.nifty.onefile</text>
</a>
</g>
</g>
<!-- Node116&#45;&gt;Node117 -->
<g id="edge4" class="edge">
<title>Node116&#45;&gt;Node117</title>
<path fill="none" stroke="#191970" d="M457.8325,-36.2916C470.2597,-37.845 483.3541,-39.4818 495.6844,-41.023"/>
<polygon fill="#191970" stroke="#191970" points="495.4737,-44.5239 505.8306,-42.2913 496.342,-37.5779 495.4737,-44.5239"/>
</g>
<!-- Node119 -->
<g id="node7" class="node">
<title>Node119</title>
<g id="a_node7"><a xlink:href="namespacesrc_1_1nifty.html#a7fd3a0edb0212c320360d7685227b0f5" target="_top" xlink:title="src.nifty.LinkFile">
<polygon fill="#ffffff" stroke="#000000" points="504,-.5 504,-19.5 599,-19.5 599,-.5 504,-.5"/>
<text text-anchor="middle" x="551.5" y="-7.5" font-family="Ubuntu-R" font-size="10.00" fill="#000000">src.nifty.LinkFile</text>
</a>
</g>
</g>
<!-- Node116&#45;&gt;Node119 -->
<g id="edge6" class="edge">
<title>Node116&#45;&gt;Node119</title>
<path fill="none" stroke="#191970" d="M457.8325,-21.7084C469.6174,-20.2353 482.0024,-18.6872 493.7666,-17.2167"/>
<polygon fill="#191970" stroke="#191970" points="494.4258,-20.6616 503.9144,-15.9482 493.5575,-13.7157 494.4258,-20.6616"/>
</g>
<!-- Node118 -->
<g id="node6" class="node">
<title>Node118</title>
<g id="a_node6"><a xlink:href="namespacesrc_1_1nifty.html#ab233937d3663f03a912737572c08da9d" target="_top" xlink:title="Prints a warning but will only do so once in a given run. ">
<polygon fill="#ffffff" stroke="#000000" points="660.5,-38.5 660.5,-57.5 770.5,-57.5 770.5,-38.5 660.5,-38.5"/>
<text text-anchor="middle" x="715.5" y="-45.5" font-family="Ubuntu-R" font-size="10.00" fill="#000000">src.nifty.warn_once</text>
</a>
</g>
</g>
<!-- Node117&#45;&gt;Node118 -->
<g id="edge5" class="edge">
<title>Node117&#45;&gt;Node118</title>
<path fill="none" stroke="#191970" d="M597.1831,-48C613.5834,-48 632.4125,-48 650.1555,-48"/>
<polygon fill="#191970" stroke="#191970" points="650.4502,-51.5001 660.4502,-48 650.4502,-44.5001 650.4502,-51.5001"/>
</g>
<!-- Node120 -->
<g id="node8" class="node">
<title>Node120</title>
<g id="a_node8"><a xlink:href="namespacesrc_1_1nifty.html#a39a23ca3b83aadd4bfdf3eee9abb3257" target="_top" xlink:title="src.nifty.MissingFileInspection">
<polygon fill="#ffffff" stroke="#000000" points="635,-.5 635,-19.5 796,-19.5 796,-.5 635,-.5"/>
<text text-anchor="middle" x="715.5" y="-7.5" font-family="Ubuntu-R" font-size="10.00" fill="#000000">src.nifty.MissingFileInspection</text>
</a>
</g>
</g>
<!-- Node119&#45;&gt;Node120 -->
<g id="edge7" class="edge">
<title>Node119&#45;&gt;Node120</title>
<path fill="none" stroke="#191970" d="M599.3765,-10C607.395,-10 615.9434,-10 624.6262,-10"/>
<polygon fill="#191970" stroke="#191970" points="624.8569,-13.5001 634.8569,-10 624.8569,-6.5001 624.8569,-13.5001"/>
</g>
</g>
</svg>
