<?xml version="1.0" encoding="UTF-8" standalone="no"?>
<!DOCTYPE svg PUBLIC "-//W3C//DTD SVG 1.1//EN"
 "http://www.w3.org/Graphics/SVG/1.1/DTD/svg11.dtd">
<!-- Generated by graphviz version 2.32.0 (20130801.1845)
 -->
<!-- Title: forcebalance.gmxqpio.Monomer_QTPIE.prepare_temp_directory Pages: 1 -->
<svg width="1000pt" height="244pt"
 viewBox="0.00 0.00 1000.00 244.00" xmlns="http://www.w3.org/2000/svg" xmlns:xlink="http://www.w3.org/1999/xlink">
<g id="graph0" class="graph" transform="scale(1 1) rotate(0) translate(4 240)">
<title>forcebalance.gmxqpio.Monomer_QTPIE.prepare_temp_directory</title>
<polygon fill="white" stroke="white" points="-4,5 -4,-240 997,-240 997,5 -4,5"/>
<!-- Node1 -->
<g id="node1" class="node"><title>Node1</title>
<polygon fill="#bfbfbf" stroke="black" points="0.0545,-159 0.0545,-191 147.946,-191 147.946,-159 0.0545,-159"/>
<text text-anchor="start" x="8.0545" y="-178" font-family="Ubuntu-R" font-size="10.00">forcebalance.gmxqpio.Monomer</text>
<text text-anchor="middle" x="74" y="-166" font-family="Ubuntu-R" font-size="10.00">_QTPIE.prepare_temp_directory</text>
</g>
<!-- Node2 -->
<g id="node2" class="node"><title>Node2</title>
<g id="a_node2"><a xlink:href="namespaceforcebalance_1_1nifty.html#abb8f59044961a12588e0653c2baa8b01" target="_top" xlink:title="forcebalance.nifty.warn\l_press_key">
<polygon fill="white" stroke="black" points="202.528,-204 202.528,-236 313.473,-236 313.473,-204 202.528,-204"/>
<text text-anchor="start" x="210.528" y="-223" font-family="Ubuntu-R" font-size="10.00">forcebalance.nifty.warn</text>
<text text-anchor="middle" x="258" y="-211" font-family="Ubuntu-R" font-size="10.00">_press_key</text>
</a>
</g>
</g>
<!-- Node1&#45;&gt;Node2 -->
<g id="edge1" class="edge"><title>Node1&#45;&gt;Node2</title>
<path fill="none" stroke="midnightblue" d="M139.935,-191.055C157.003,-195.275 175.406,-199.826 192.453,-204.041"/>
<polygon fill="midnightblue" stroke="midnightblue" points="191.765,-207.476 202.313,-206.479 193.445,-200.68 191.765,-207.476"/>
</g>
<!-- Node4 -->
<g id="node4" class="node"><title>Node4</title>
<g id="a_node4"><a xlink:href="namespaceforcebalance_1_1nifty.html#ab182a9da2a2f42cf45942fbee6acf9b1" target="_top" xlink:title="forcebalance.nifty.LinkFile">
<polygon fill="white" stroke="black" points="195.299,-165 195.299,-185 320.701,-185 320.701,-165 195.299,-165"/>
<text text-anchor="middle" x="258" y="-172" font-family="Ubuntu-R" font-size="10.00">forcebalance.nifty.LinkFile</text>
</a>
</g>
</g>
<!-- Node1&#45;&gt;Node4 -->
<g id="edge3" class="edge"><title>Node1&#45;&gt;Node4</title>
<path fill="none" stroke="midnightblue" d="M147.978,-175C160.185,-175 172.843,-175 185.025,-175"/>
<polygon fill="midnightblue" stroke="midnightblue" points="185.125,-178.5 195.125,-175 185.125,-171.5 185.125,-178.5"/>
</g>
<!-- Node6 -->
<g id="node6" class="node"><title>Node6</title>
<g id="a_node6"><a xlink:href="classforcebalance_1_1gmxqpio_1_1Monomer__QTPIE.html#ac227bf1f1ed6d579fea2eeda64c389cb" target="_top" xlink:title="forcebalance.gmxqpio.Monomer\l_QTPIE.unpack_moments">
<polygon fill="white" stroke="black" points="184.467,-108 184.467,-140 331.533,-140 331.533,-108 184.467,-108"/>
<text text-anchor="start" x="192.467" y="-127" font-family="Ubuntu-R" font-size="10.00">forcebalance.gmxqpio.Monomer</text>
<text text-anchor="middle" x="258" y="-115" font-family="Ubuntu-R" font-size="10.00">_QTPIE.unpack_moments</text>
</a>
</g>
</g>
<!-- Node1&#45;&gt;Node6 -->
<g id="edge5" class="edge"><title>Node1&#45;&gt;Node6</title>
<path fill="none" stroke="midnightblue" d="M132.586,-158.863C150.855,-153.744 171.21,-148.04 190.077,-142.753"/>
<polygon fill="midnightblue" stroke="midnightblue" points="191.104,-146.1 199.789,-140.032 189.215,-139.36 191.104,-146.1"/>
</g>
<!-- Node3 -->
<g id="node3" class="node"><title>Node3</title>
<g id="a_node3"><a xlink:href="namespaceforcebalance_1_1nifty.html#a2fc81730e7efa7d138dd86f733507bfc" target="_top" xlink:title="Similar to the bultin function map().">
<polygon fill="white" stroke="black" points="368.035,-210 368.035,-230 523.965,-230 523.965,-210 368.035,-210"/>
<text text-anchor="middle" x="446" y="-217" font-family="Ubuntu-R" font-size="10.00">forcebalance.nifty.concurrent_map</text>
</a>
</g>
</g>
<!-- Node2&#45;&gt;Node3 -->
<g id="edge2" class="edge"><title>Node2&#45;&gt;Node3</title>
<path fill="none" stroke="midnightblue" d="M313.549,-220C327.397,-220 342.626,-220 357.657,-220"/>
<polygon fill="midnightblue" stroke="midnightblue" points="358.012,-223.5 368.012,-220 358.012,-216.5 358.012,-223.5"/>
</g>
<!-- Node5 -->
<g id="node5" class="node"><title>Node5</title>
<g id="a_node5"><a xlink:href="namespaceforcebalance_1_1nifty.html#a25efa4d501ad852a234721af18978f7e" target="_top" xlink:title="Remove the file if it exists (doesn&#39;t return an error).">
<polygon fill="white" stroke="black" points="385.528,-159 385.528,-191 506.472,-191 506.472,-159 385.528,-159"/>
<text text-anchor="start" x="393.528" y="-178" font-family="Ubuntu-R" font-size="10.00">forcebalance.nifty.remove</text>
<text text-anchor="middle" x="446" y="-166" font-family="Ubuntu-R" font-size="10.00">_if_exists</text>
</a>
</g>
</g>
<!-- Node4&#45;&gt;Node5 -->
<g id="edge4" class="edge"><title>Node4&#45;&gt;Node5</title>
<path fill="none" stroke="midnightblue" d="M320.935,-175C338.25,-175 357.188,-175 374.937,-175"/>
<polygon fill="midnightblue" stroke="midnightblue" points="375.229,-178.5 385.229,-175 375.229,-171.5 375.229,-178.5"/>
</g>
<!-- Node7 -->
<g id="node7" class="node"><title>Node7</title>
<g id="a_node7"><a xlink:href="classforcebalance_1_1gmxqpio_1_1Monomer__QTPIE.html#a46144411b5166a1839bf954b584ca3a7" target="_top" xlink:title="forcebalance.gmxqpio.Monomer\l_QTPIE.get">
<polygon fill="white" stroke="black" points="372.467,-108 372.467,-140 519.533,-140 519.533,-108 372.467,-108"/>
<text text-anchor="start" x="380.467" y="-127" font-family="Ubuntu-R" font-size="10.00">forcebalance.gmxqpio.Monomer</text>
<text text-anchor="middle" x="446" y="-115" font-family="Ubuntu-R" font-size="10.00">_QTPIE.get</text>
</a>
</g>
</g>
<!-- Node6&#45;&gt;Node7 -->
<g id="edge6" class="edge"><title>Node6&#45;&gt;Node7</title>
<path fill="none" stroke="midnightblue" d="M331.712,-117.395C341.722,-117.25 352.063,-117.214 362.238,-117.286"/>
<polygon fill="midnightblue" stroke="midnightblue" points="362.302,-120.787 372.339,-117.396 362.377,-113.788 362.302,-120.787"/>
</g>
<!-- Node7&#45;&gt;Node6 -->
<g id="edge9" class="edge"><title>Node7&#45;&gt;Node6</title>
<path fill="none" stroke="midnightblue" d="M372.339,-130.604C362.329,-130.75 351.989,-130.786 341.814,-130.714"/>
<polygon fill="midnightblue" stroke="midnightblue" points="341.749,-127.213 331.712,-130.605 341.673,-134.213 341.749,-127.213"/>
</g>
<!-- Node8 -->
<g id="node8" class="node"><title>Node8</title>
<g id="a_node8"><a xlink:href="namespaceforcebalance_1_1gmxqpio.html#a499ed366638eae7be524b18760a986b8" target="_top" xlink:title="forcebalance.gmxqpio.get\l_monomer_properties">
<polygon fill="white" stroke="black" points="560.077,-176 560.077,-208 679.923,-208 679.923,-176 560.077,-176"/>
<text text-anchor="start" x="568.077" y="-195" font-family="Ubuntu-R" font-size="10.00">forcebalance.gmxqpio.get</text>
<text text-anchor="middle" x="620" y="-183" font-family="Ubuntu-R" font-size="10.00">_monomer_properties</text>
</a>
</g>
</g>
<!-- Node7&#45;&gt;Node8 -->
<g id="edge7" class="edge"><title>Node7&#45;&gt;Node8</title>
<path fill="none" stroke="midnightblue" d="M499.051,-140.029C507.448,-142.864 516.005,-145.904 524,-149 541.499,-155.777 560.403,-164.116 576.704,-171.64"/>
<polygon fill="midnightblue" stroke="midnightblue" points="575.429,-174.907 585.971,-175.959 578.385,-168.562 575.429,-174.907"/>
</g>
<!-- Node10 -->
<g id="node10" class="node"><title>Node10</title>
<g id="a_node10"><a xlink:href="namespaceforcebalance_1_1finite__difference.html#aa69a8819e4680091f400303c1d6ddeb7" target="_top" xlink:title="A three&#45;point finite difference stencil.">
<polygon fill="white" stroke="black" points="573.824,-86 573.824,-118 666.176,-118 666.176,-86 573.824,-86"/>
<text text-anchor="start" x="581.824" y="-105" font-family="Ubuntu-R" font-size="10.00">forcebalance.finite</text>
<text text-anchor="middle" x="620" y="-93" font-family="Ubuntu-R" font-size="10.00">_difference.f12d3p</text>
</a>
</g>
</g>
<!-- Node7&#45;&gt;Node10 -->
<g id="edge10" class="edge"><title>Node7&#45;&gt;Node10</title>
<path fill="none" stroke="midnightblue" d="M519.943,-114.67C534.39,-112.822 549.34,-110.91 563.11,-109.149"/>
<polygon fill="midnightblue" stroke="midnightblue" points="563.908,-112.575 573.383,-107.835 563.02,-105.632 563.908,-112.575"/>
</g>
<!-- Node11 -->
<g id="node11" class="node"><title>Node11</title>
<g id="a_node11"><a xlink:href="namespaceforcebalance_1_1finite__difference.html#ad84d3e385db1190e7d8ef58bc08a6c52" target="_top" xlink:title="Invoking this function from anywhere will tell us whether we&#39;re being called by a finite&#45;difference f...">
<polygon fill="white" stroke="black" points="737.662,-121 737.662,-153 828.338,-153 828.338,-121 737.662,-121"/>
<text text-anchor="start" x="745.662" y="-140" font-family="Ubuntu-R" font-size="10.00">forcebalance.finite</text>
<text text-anchor="middle" x="783" y="-128" font-family="Ubuntu-R" font-size="10.00">_difference.in_fd</text>
</a>
</g>
</g>
<!-- Node7&#45;&gt;Node11 -->
<g id="edge17" class="edge"><title>Node7&#45;&gt;Node11</title>
<path fill="none" stroke="midnightblue" d="M519.69,-126.821C582.009,-129.239 670.434,-132.671 727.01,-134.866"/>
<polygon fill="midnightblue" stroke="midnightblue" points="727.061,-138.371 737.19,-135.261 727.333,-131.376 727.061,-138.371"/>
</g>
<!-- Node12 -->
<g id="node12" class="node"><title>Node12</title>
<g id="a_node12"><a xlink:href="namespaceforcebalance_1_1finite__difference.html#ae484c591ae8c4e5bae73a0ef2660c339" target="_top" xlink:title="A function wrapper for finite difference designed for differentiating &#39;get&#39;&#45;type functions.">
<polygon fill="white" stroke="black" points="736.831,-51 736.831,-83 829.169,-83 829.169,-51 736.831,-51"/>
<text text-anchor="start" x="744.831" y="-70" font-family="Ubuntu-R" font-size="10.00">forcebalance.finite</text>
<text text-anchor="middle" x="783" y="-58" font-family="Ubuntu-R" font-size="10.00">_difference.fdwrap</text>
</a>
</g>
</g>
<!-- Node7&#45;&gt;Node12 -->
<g id="edge16" class="edge"><title>Node7&#45;&gt;Node12</title>
<path fill="none" stroke="midnightblue" d="M476.7,-107.871C498.932,-96.6802 530.47,-82.6376 560,-76 615.689,-63.4825 681.171,-62.4288 726.519,-63.7685"/>
<polygon fill="midnightblue" stroke="midnightblue" points="726.621,-67.2739 736.736,-64.1208 726.862,-60.2781 726.621,-67.2739"/>
</g>
<!-- Node9 -->
<g id="node9" class="node"><title>Node9</title>
<g id="a_node9"><a xlink:href="namespaceforcebalance_1_1molecule.html#afe989ffd119568047fc8265b1d329a70" target="_top" xlink:title="Matches ANY number; it can be a decimal, scientific notation, integer, or what have you...">
<polygon fill="white" stroke="black" points="716.14,-182 716.14,-202 849.86,-202 849.86,-182 716.14,-182"/>
<text text-anchor="middle" x="783" y="-189" font-family="Ubuntu-R" font-size="10.00">forcebalance.molecule.isfloat</text>
</a>
</g>
</g>
<!-- Node8&#45;&gt;Node9 -->
<g id="edge8" class="edge"><title>Node8&#45;&gt;Node9</title>
<path fill="none" stroke="midnightblue" d="M680.036,-192C688.422,-192 697.143,-192 705.797,-192"/>
<polygon fill="midnightblue" stroke="midnightblue" points="705.902,-195.5 715.902,-192 705.902,-188.5 705.902,-195.5"/>
</g>
<!-- Node10&#45;&gt;Node11 -->
<g id="edge11" class="edge"><title>Node10&#45;&gt;Node11</title>
<path fill="none" stroke="midnightblue" d="M666.276,-111.843C685.372,-115.994 707.761,-120.861 727.732,-125.203"/>
<polygon fill="midnightblue" stroke="midnightblue" points="727.105,-128.648 737.62,-127.352 728.592,-121.808 727.105,-128.648"/>
</g>
<!-- Node10&#45;&gt;Node12 -->
<g id="edge12" class="edge"><title>Node10&#45;&gt;Node12</title>
<path fill="none" stroke="midnightblue" d="M666.276,-92.1574C685.133,-88.0581 707.202,-83.2605 726.982,-78.9604"/>
<polygon fill="midnightblue" stroke="midnightblue" points="727.757,-82.3738 736.785,-76.8293 726.27,-75.5336 727.757,-82.3738"/>
</g>
<!-- Node13 -->
<g id="node13" class="node"><title>Node13</title>
<g id="a_node13"><a xlink:href="namespaceforcebalance_1_1finite__difference.html#a00322fb65860c390616f74d05037c797" target="_top" xlink:title="A driver to fdwrap for gradients (see documentation for fdwrap) Inputs: tgt = The Target containing t...">
<polygon fill="white" stroke="black" points="886.721,-51 886.721,-83 991.279,-83 991.279,-51 886.721,-51"/>
<text text-anchor="start" x="894.721" y="-70" font-family="Ubuntu-R" font-size="10.00">forcebalance.finite</text>
<text text-anchor="middle" x="939" y="-58" font-family="Ubuntu-R" font-size="10.00">_difference.fdwrap_G</text>
</a>
</g>
</g>
<!-- Node12&#45;&gt;Node13 -->
<g id="edge13" class="edge"><title>Node12&#45;&gt;Node13</title>
<path fill="none" stroke="midnightblue" d="M829.372,-60.7839C844.074,-60.2591 860.637,-60.1212 876.318,-60.3701"/>
<polygon fill="midnightblue" stroke="midnightblue" points="876.393,-63.8725 886.466,-60.5894 876.544,-56.8741 876.393,-63.8725"/>
</g>
<!-- Node14 -->
<g id="node14" class="node"><title>Node14</title>
<g id="a_node14"><a xlink:href="namespaceforcebalance_1_1finite__difference.html#a77a0bc1ae3cbbcc8d38a0ef9ca877d6d" target="_top" xlink:title="A driver to fdwrap for Hessians (see documentation for fdwrap) Inputs: tgt = The Target containing th...">
<polygon fill="white" stroke="black" points="886.721,-0 886.721,-32 991.279,-32 991.279,-0 886.721,-0"/>
<text text-anchor="start" x="894.721" y="-19" font-family="Ubuntu-R" font-size="10.00">forcebalance.finite</text>
<text text-anchor="middle" x="939" y="-7" font-family="Ubuntu-R" font-size="10.00">_difference.fdwrap_H</text>
</a>
</g>
</g>
<!-- Node12&#45;&gt;Node14 -->
<g id="edge15" class="edge"><title>Node12&#45;&gt;Node14</title>
<path fill="none" stroke="midnightblue" d="M829.372,-51.9742C845.17,-46.7425 863.117,-40.7989 879.808,-35.2713"/>
<polygon fill="midnightblue" stroke="midnightblue" points="881.072,-38.5397 889.465,-32.0733 878.872,-31.8946 881.072,-38.5397"/>
</g>
<!-- Node13&#45;&gt;Node12 -->
<g id="edge14" class="edge"><title>Node13&#45;&gt;Node12</title>
<path fill="none" stroke="midnightblue" d="M886.466,-73.4106C871.449,-73.825 854.975,-73.8599 839.712,-73.5153"/>
<polygon fill="midnightblue" stroke="midnightblue" points="839.469,-70.0069 829.372,-73.2161 839.267,-77.004 839.469,-70.0069"/>
</g>
</g>
</svg>
