<?xml version="1.0" encoding="UTF-8" standalone="no"?>
<!DOCTYPE svg PUBLIC "-//W3C//DTD SVG 1.1//EN"
 "http://www.w3.org/Graphics/SVG/1.1/DTD/svg11.dtd">
<!-- Generated by graphviz version 2.40.1 (20161225.0304)
 -->
<!-- Title: src.smirnoffio.Vibration_SMIRNOFF.submit_jobs Pages: 1 -->
<svg width="367pt" height="100pt"
 viewBox="0.00 0.00 367.00 99.50" xmlns="http://www.w3.org/2000/svg" xmlns:xlink="http://www.w3.org/1999/xlink">
<g id="graph0" class="graph" transform="scale(1 1) rotate(0) translate(4 95.5)">
<title>src.smirnoffio.Vibration_SMIRNOFF.submit_jobs</title>
<polygon fill="#ffffff" stroke="transparent" points="-4,4 -4,-95.5 363,-95.5 363,4 -4,4"/>
<!-- Node3 -->
<g id="node1" class="node">
<title>Node3</title>
<polygon fill="#bfbfbf" stroke="#000000" points="0,-27.5 0,-57.5 132,-57.5 132,-27.5 0,-27.5"/>
<text text-anchor="start" x="8" y="-45.5" font-family="Ubuntu-R" font-size="10.00" fill="#000000">src.smirnoffio.Vibration</text>
<text text-anchor="middle" x="66" y="-34.5" font-family="Ubuntu-R" font-size="10.00" fill="#000000">_SMIRNOFF.submit_jobs</text>
</g>
<!-- Node4 -->
<g id="node2" class="node">
<title>Node4</title>
<g id="a_node2"><a xlink:href="classsrc_1_1smirnoffio_1_1AbInitio__SMIRNOFF.html#aba6c15a7fd233b8ec236dfa8551d1c93" target="_top" xlink:title="Update self.pgrads based on smirks present in mol2 files. ">
<polygon fill="#ffffff" stroke="#000000" points="187.5,-50 187.5,-91 339.5,-91 339.5,-50 187.5,-50"/>
<text text-anchor="start" x="195.5" y="-79" font-family="Ubuntu-R" font-size="10.00" fill="#000000">src.smirnoffio.AbInitio</text>
<text text-anchor="start" x="195.5" y="-68" font-family="Ubuntu-R" font-size="10.00" fill="#000000">_SMIRNOFF.smirnoff_update</text>
<text text-anchor="middle" x="263.5" y="-57" font-family="Ubuntu-R" font-size="10.00" fill="#000000">_pgrads</text>
</a>
</g>
</g>
<!-- Node3&#45;&gt;Node4 -->
<g id="edge1" class="edge">
<title>Node3&#45;&gt;Node4</title>
<path fill="none" stroke="#191970" d="M132.0392,-51.8625C146.5734,-53.9231 162.1733,-56.1347 177.368,-58.2889"/>
<polygon fill="#191970" stroke="#191970" points="176.887,-61.7556 187.2793,-59.694 177.8696,-54.8249 176.887,-61.7556"/>
</g>
<!-- Node5 -->
<g id="node3" class="node">
<title>Node5</title>
<g id="a_node3"><a xlink:href="classsrc_1_1smirnoffio_1_1Vibration__SMIRNOFF.html#a210c06bf1e21c3c93e584eef9256ef0c" target="_top" xlink:title="Update self.pgrads based on smirks present in mol2 files. ">
<polygon fill="#ffffff" stroke="#000000" points="168,-.5 168,-30.5 359,-30.5 359,-.5 168,-.5"/>
<text text-anchor="start" x="176" y="-18.5" font-family="Ubuntu-R" font-size="10.00" fill="#000000">src.smirnoffio.Vibration</text>
<text text-anchor="middle" x="263.5" y="-7.5" font-family="Ubuntu-R" font-size="10.00" fill="#000000">_SMIRNOFF.smirnoff_update_pgrads</text>
</a>
</g>
</g>
<!-- Node3&#45;&gt;Node5 -->
<g id="edge2" class="edge">
<title>Node3&#45;&gt;Node5</title>
<path fill="none" stroke="#191970" d="M132.0392,-33.4719C140.4312,-32.3246 149.1784,-31.1288 157.9979,-29.9231"/>
<polygon fill="#191970" stroke="#191970" points="158.5371,-33.382 167.9709,-28.5597 157.5889,-26.4465 158.5371,-33.382"/>
</g>
</g>
</svg>
