<?xml version="1.0" encoding="UTF-8" standalone="no"?>
<!DOCTYPE svg PUBLIC "-//W3C//DTD SVG 1.1//EN"
 "http://www.w3.org/Graphics/SVG/1.1/DTD/svg11.dtd">
<!-- Generated by graphviz version 2.28.0 (20111219.2309)
 -->
<!-- Title: forcebalance.forcefield.FF.list_map Pages: 1 -->
<svg width="492pt" height="77pt"
 viewBox="0.00 0.00 492.00 77.00" xmlns="http://www.w3.org/2000/svg" xmlns:xlink="http://www.w3.org/1999/xlink">
<g id="graph1" class="graph" transform="scale(1 1) rotate(0) translate(4 73)">
<title>forcebalance.forcefield.FF.list_map</title>
<polygon fill="white" stroke="white" points="-4,5 -4,-73 489,-73 489,5 -4,5"/>
<!-- Node1 -->
<g id="node1" class="node"><title>Node1</title>
<polygon fill="#bfbfbf" stroke="black" points="0,-22 0,-52 128,-52 128,-22 0,-22"/>
<text text-anchor="start" x="8" y="-40" font-family="Ubuntu-R" font-size="10.00">forcebalance.forcefield.</text>
<text text-anchor="middle" x="64" y="-29" font-family="Ubuntu-R" font-size="10.00">FF.list_map</text>
</g>
<!-- Node2 -->
<g id="node3" class="node"><title>Node2</title>
<a xlink:href="namespaceforcebalance_1_1molecule.html#afe989ffd119568047fc8265b1d329a70" target="_top" xlink:title="Matches ANY number; it can be a decimal, scientific notation, integer, or what have you...">
<polygon fill="white" stroke="black" points="164,-49.5 164,-68.5 320,-68.5 320,-49.5 164,-49.5"/>
<text text-anchor="middle" x="242" y="-56.5" font-family="Ubuntu-R" font-size="10.00">forcebalance.molecule.isfloat</text>
</a>
</g>
<!-- Node1&#45;&gt;Node2 -->
<g id="edge2" class="edge"><title>Node1&#45;&gt;Node2</title>
<path fill="none" stroke="midnightblue" d="M128.043,-44.8804C136.714,-45.9643 145.738,-47.0923 154.738,-48.2172"/>
<polygon fill="midnightblue" stroke="midnightblue" points="154.511,-51.7161 164.868,-49.4836 155.38,-44.7701 154.511,-51.7161"/>
</g>
<!-- Node3 -->
<g id="node5" class="node"><title>Node3</title>
<a xlink:href="classforcebalance_1_1forcefield_1_1FF.html#a3af07734a2378364ed533e2853ee6b82" target="_top" xlink:title="Assign physical parameter values to the &#39;pvals0&#39; array. ">
<polygon fill="white" stroke="black" points="178,-0 178,-30 306,-30 306,-0 178,-0"/>
<text text-anchor="start" x="186" y="-18" font-family="Ubuntu-R" font-size="10.00">forcebalance.forcefield.</text>
<text text-anchor="middle" x="242" y="-7" font-family="Ubuntu-R" font-size="10.00">FF.assign_p0</text>
</a>
</g>
<!-- Node1&#45;&gt;Node3 -->
<g id="edge4" class="edge"><title>Node1&#45;&gt;Node3</title>
<path fill="none" stroke="midnightblue" d="M128.043,-29.1196C140.933,-27.5083 154.603,-25.7997 167.813,-24.1483"/>
<polygon fill="midnightblue" stroke="midnightblue" points="168.317,-27.6127 177.806,-22.8993 167.449,-20.6667 168.317,-27.6127"/>
</g>
<!-- Node4 -->
<g id="node7" class="node"><title>Node4</title>
<a xlink:href="classforcebalance_1_1forcefield_1_1FF.html#a8e7047c4b41a755c24996c9e1619df0b" target="_top" xlink:title="forcebalance.forcefield.\lFF.__eq__">
<polygon fill="white" stroke="black" points="356,-0 356,-30 484,-30 484,-0 356,-0"/>
<text text-anchor="start" x="364" y="-18" font-family="Ubuntu-R" font-size="10.00">forcebalance.forcefield.</text>
<text text-anchor="middle" x="420" y="-7" font-family="Ubuntu-R" font-size="10.00">FF.__eq__</text>
</a>
</g>
<!-- Node3&#45;&gt;Node4 -->
<g id="edge6" class="edge"><title>Node3&#45;&gt;Node4</title>
<path fill="none" stroke="midnightblue" d="M306.043,-15C318.807,-15 332.335,-15 345.425,-15"/>
<polygon fill="midnightblue" stroke="midnightblue" points="345.806,-18.5001 355.806,-15 345.806,-11.5001 345.806,-18.5001"/>
</g>
</g>
</svg>
