<?xml version="1.0" encoding="UTF-8" standalone="no"?>
<!DOCTYPE svg PUBLIC "-//W3C//DTD SVG 1.1//EN"
 "http://www.w3.org/Graphics/SVG/1.1/DTD/svg11.dtd">
<!-- Generated by graphviz version 2.26.3 (20100126.1600)
 -->
<!-- Title: forcebalance.liquid.Liquid.objective_term Pages: 1 -->
<svg width="2194pt" height="711pt"
 viewBox="0.00 0.00 2194.00 710.53" xmlns="http://www.w3.org/2000/svg" xmlns:xlink="http://www.w3.org/1999/xlink">
<g id="graph1" class="graph" transform="scale(1 1) rotate(0) translate(4 706.528)">
<title>forcebalance.liquid.Liquid.objective_term</title>
<polygon fill="white" stroke="white" points="-4,5 -4,-706.528 2191,-706.528 2191,5 -4,5"/>
<!-- Node1 -->
<g id="node1" class="node"><title>Node1</title>
<polygon fill="#bfbfbf" stroke="black" points="0,-470.854 0,-491.854 210,-491.854 210,-470.854 0,-470.854"/>
<text text-anchor="middle" x="105" y="-478.854" font-family="Ubuntu-R" font-size="10.00">forcebalance.liquid.Liquid.objective_term</text>
</g>
<!-- Node2 -->
<g id="node3" class="node"><title>Node2</title>
<a xlink:href="classforcebalance_1_1liquid_1_1Liquid.html#a716e28bb5572b3273036ac753b7e1e1d" target="_top" xlink:title="forcebalance.liquid.Liquid.submit_jobs">
<polygon fill="white" stroke="black" points="246.5,-550.854 246.5,-571.854 443.5,-571.854 443.5,-550.854 246.5,-550.854"/>
<text text-anchor="middle" x="345" y="-558.854" font-family="Ubuntu-R" font-size="10.00">forcebalance.liquid.Liquid.submit_jobs</text>
</a>
</g>
<!-- Node1&#45;&gt;Node2 -->
<g id="edge2" class="edge"><title>Node1&#45;&gt;Node2</title>
<path fill="none" stroke="midnightblue" d="M136.87,-491.978C179.844,-506.302 256.425,-531.829 303.749,-547.604"/>
<polygon fill="midnightblue" stroke="midnightblue" points="302.787,-550.972 313.38,-550.814 305,-544.332 302.787,-550.972"/>
</g>
<!-- Node3 -->
<g id="node5" class="node"><title>Node3</title>
<a xlink:href="namespaceforcebalance_1_1nifty.html#a2ff762a2f2d2b6bb1c7dd067bd1a1e88" target="_top" xlink:title="Use this instead of pickle.dump for pickling anything that contains _ElementTree types.">
<polygon fill="white" stroke="black" points="491,-638.854 491,-659.854 635,-659.854 635,-638.854 491,-638.854"/>
<text text-anchor="middle" x="563" y="-646.854" font-family="Ubuntu-R" font-size="10.00">forcebalance.nifty.lp_dump</text>
</a>
</g>
<!-- Node2&#45;&gt;Node3 -->
<g id="edge4" class="edge"><title>Node2&#45;&gt;Node3</title>
<path fill="none" stroke="midnightblue" d="M363.707,-571.962C389.303,-586.133 436.978,-611.312 480,-627.354 488.616,-630.567 497.9,-633.509 507.028,-636.124"/>
<polygon fill="midnightblue" stroke="midnightblue" points="506.263,-639.544 516.834,-638.831 508.126,-632.796 506.263,-639.544"/>
</g>
<!-- Node5 -->
<g id="node9" class="node"><title>Node5</title>
<a xlink:href="namespaceforcebalance_1_1optimizer.html#ae1f6c649703a22b2f767a5f6bf53297b" target="_top" xlink:title="forcebalance.optimizer.Counter">
<polygon fill="white" stroke="black" points="480,-596.854 480,-617.854 646,-617.854 646,-596.854 480,-596.854"/>
<text text-anchor="middle" x="563" y="-604.854" font-family="Ubuntu-R" font-size="10.00">forcebalance.optimizer.Counter</text>
</a>
</g>
<!-- Node2&#45;&gt;Node5 -->
<g id="edge8" class="edge"><title>Node2&#45;&gt;Node5</title>
<path fill="none" stroke="midnightblue" d="M395.014,-571.907C427.278,-578.715 469.409,-587.606 503.406,-594.779"/>
<polygon fill="midnightblue" stroke="midnightblue" points="502.712,-598.21 513.219,-596.85 504.157,-591.361 502.712,-598.21"/>
</g>
<!-- Node7 -->
<g id="node13" class="node"><title>Node7</title>
<a xlink:href="namespaceforcebalance_1_1nifty.html#abb8f59044961a12588e0653c2baa8b01" target="_top" xlink:title="forcebalance.nifty.warn\l_press_key">
<polygon fill="white" stroke="black" points="2039.5,-345.354 2039.5,-379.354 2164.5,-379.354 2164.5,-345.354 2039.5,-345.354"/>
<text text-anchor="start" x="2047.5" y="-366.354" font-family="Ubuntu-R" font-size="10.00">forcebalance.nifty.warn</text>
<text text-anchor="middle" x="2102" y="-353.354" font-family="Ubuntu-R" font-size="10.00">_press_key</text>
</a>
</g>
<!-- Node2&#45;&gt;Node7 -->
<g id="edge12" class="edge"><title>Node2&#45;&gt;Node7</title>
<path fill="none" stroke="midnightblue" d="M354.163,-572.046C374.274,-594.662 424.897,-647.096 480,-669.354 604.165,-719.51 646.087,-697.354 780,-697.354 780,-697.354 780,-697.354 1718,-697.354 1905.5,-697.354 2045.73,-467.754 2088.45,-388.713"/>
<polygon fill="midnightblue" stroke="midnightblue" points="2091.78,-389.899 2093.39,-379.427 2085.61,-386.61 2091.78,-389.899"/>
</g>
<!-- Node8 -->
<g id="node15" class="node"><title>Node8</title>
<a xlink:href="classforcebalance_1_1openmmio_1_1Liquid__OpenMM.html#ad6a30e41f4c0bc319d7ffbbb09cfcf5d" target="_top" xlink:title="Submit a NPT simulation to the Work Queue.">
<polygon fill="white" stroke="black" points="481.5,-492.354 481.5,-526.354 644.5,-526.354 644.5,-492.354 481.5,-492.354"/>
<text text-anchor="start" x="489.5" y="-513.354" font-family="Ubuntu-R" font-size="10.00">forcebalance.openmmio.Liquid</text>
<text text-anchor="middle" x="563" y="-500.354" font-family="Ubuntu-R" font-size="10.00">_OpenMM.npt_simulation</text>
</a>
</g>
<!-- Node2&#45;&gt;Node8 -->
<g id="edge14" class="edge"><title>Node2&#45;&gt;Node8</title>
<path fill="none" stroke="midnightblue" d="M389.116,-550.831C415.61,-544.511 450.146,-536.273 481.451,-528.806"/>
<polygon fill="midnightblue" stroke="midnightblue" points="482.572,-532.137 491.487,-526.412 480.947,-525.328 482.572,-532.137"/>
</g>
<!-- Node20 -->
<g id="node40" class="node"><title>Node20</title>
<a xlink:href="classforcebalance_1_1tinkerio_1_1Liquid__TINKER.html#a53a10ac99cdfbf026526ed625d4de809" target="_top" xlink:title="Submit a NPT simulation to the Work Queue.">
<polygon fill="white" stroke="black" points="490,-544.354 490,-578.354 636,-578.354 636,-544.354 490,-544.354"/>
<text text-anchor="start" x="498" y="-565.354" font-family="Ubuntu-R" font-size="10.00">forcebalance.tinkerio.Liquid</text>
<text text-anchor="middle" x="563" y="-552.354" font-family="Ubuntu-R" font-size="10.00">_TINKER.npt_simulation</text>
</a>
</g>
<!-- Node2&#45;&gt;Node20 -->
<g id="edge40" class="edge"><title>Node2&#45;&gt;Node20</title>
<path fill="none" stroke="midnightblue" d="M443.795,-561.354C455.819,-561.354 468.01,-561.354 479.777,-561.354"/>
<polygon fill="midnightblue" stroke="midnightblue" points="479.992,-564.854 489.992,-561.354 479.992,-557.854 479.992,-564.854"/>
</g>
<!-- Node22 -->
<g id="node47" class="node"><title>Node22</title>
<a xlink:href="classforcebalance_1_1liquid_1_1Liquid.html#a802c4139e5c002fabdeab5de88093880" target="_top" xlink:title="Fitting of liquid bulk properties.">
<polygon fill="white" stroke="black" points="485.5,-214.854 485.5,-235.854 640.5,-235.854 640.5,-214.854 485.5,-214.854"/>
<text text-anchor="middle" x="563" y="-222.854" font-family="Ubuntu-R" font-size="10.00">forcebalance.liquid.Liquid.get</text>
</a>
</g>
<!-- Node2&#45;&gt;Node22 -->
<g id="edge50" class="edge"><title>Node2&#45;&gt;Node22</title>
<path fill="none" stroke="midnightblue" d="M352.609,-550.545C369.417,-526.594 410.853,-467.155 444,-416.354 484.395,-354.444 530.085,-279.712 551.176,-244.931"/>
<polygon fill="midnightblue" stroke="midnightblue" points="554.262,-246.591 556.447,-236.224 548.274,-242.965 554.262,-246.591"/>
</g>
<!-- Node4 -->
<g id="node7" class="node"><title>Node4</title>
<a xlink:href="namespaceforcebalance_1_1nifty.html#ac37d4fe58ef70ed546ebfc45d12f7a5d" target="_top" xlink:title="forcebalance.nifty.getWork\lQueue">
<polygon fill="white" stroke="black" points="709.5,-635.354 709.5,-669.354 850.5,-669.354 850.5,-635.354 709.5,-635.354"/>
<text text-anchor="start" x="717.5" y="-656.354" font-family="Ubuntu-R" font-size="10.00">forcebalance.nifty.getWork</text>
<text text-anchor="middle" x="780" y="-643.354" font-family="Ubuntu-R" font-size="10.00">Queue</text>
</a>
</g>
<!-- Node3&#45;&gt;Node4 -->
<g id="edge6" class="edge"><title>Node3&#45;&gt;Node4</title>
<path fill="none" stroke="midnightblue" d="M635.258,-650.353C655.707,-650.636 678.097,-650.945 699.023,-651.235"/>
<polygon fill="midnightblue" stroke="midnightblue" points="699.117,-654.736 709.164,-651.375 699.214,-647.737 699.117,-654.736"/>
</g>
<!-- Node6 -->
<g id="node11" class="node"><title>Node6</title>
<a xlink:href="namespaceforcebalance_1_1optimizer.html#ab43948ecf30c90d319e0c0b107fe484a" target="_top" xlink:title="forcebalance.optimizer.GoodStep">
<polygon fill="white" stroke="black" points="692,-595.854 692,-616.854 868,-616.854 868,-595.854 692,-595.854"/>
<text text-anchor="middle" x="780" y="-603.854" font-family="Ubuntu-R" font-size="10.00">forcebalance.optimizer.GoodStep</text>
</a>
</g>
<!-- Node5&#45;&gt;Node6 -->
<g id="edge10" class="edge"><title>Node5&#45;&gt;Node6</title>
<path fill="none" stroke="midnightblue" d="M646.277,-606.97C657.833,-606.917 669.792,-606.862 681.591,-606.808"/>
<polygon fill="midnightblue" stroke="midnightblue" points="681.92,-610.306 691.904,-606.76 681.888,-603.306 681.92,-610.306"/>
</g>
<!-- Node9 -->
<g id="node17" class="node"><title>Node9</title>
<a xlink:href="namespaceforcebalance_1_1nifty.html#a673f4a044169f5d8d822823989a836a7" target="_top" xlink:title="Submit a job to the Work Queue.">
<polygon fill="white" stroke="black" points="705,-508.854 705,-529.854 855,-529.854 855,-508.854 705,-508.854"/>
<text text-anchor="middle" x="780" y="-516.854" font-family="Ubuntu-R" font-size="10.00">forcebalance.nifty.queue_up</text>
</a>
</g>
<!-- Node8&#45;&gt;Node9 -->
<g id="edge16" class="edge"><title>Node8&#45;&gt;Node9</title>
<path fill="none" stroke="midnightblue" d="M644.729,-513.12C661.046,-513.872 678.224,-514.664 694.659,-515.421"/>
<polygon fill="midnightblue" stroke="midnightblue" points="694.631,-518.924 704.782,-515.888 694.954,-511.931 694.631,-518.924"/>
</g>
<!-- Node18 -->
<g id="node36" class="node"><title>Node18</title>
<a xlink:href="classforcebalance_1_1openmmio_1_1Liquid__OpenMM.html#a92379bd73128234b309fae789946035d" target="_top" xlink:title="forcebalance.openmmio.Liquid\l_OpenMM.__init__">
<polygon fill="white" stroke="black" points="698.5,-441.354 698.5,-475.354 861.5,-475.354 861.5,-441.354 698.5,-441.354"/>
<text text-anchor="start" x="706.5" y="-462.354" font-family="Ubuntu-R" font-size="10.00">forcebalance.openmmio.Liquid</text>
<text text-anchor="middle" x="780" y="-449.354" font-family="Ubuntu-R" font-size="10.00">_OpenMM.__init__</text>
</a>
</g>
<!-- Node8&#45;&gt;Node18 -->
<g id="edge36" class="edge"><title>Node8&#45;&gt;Node18</title>
<path fill="none" stroke="midnightblue" d="M635.56,-492.301C655.466,-487.623 677.191,-482.517 697.606,-477.719"/>
<polygon fill="midnightblue" stroke="midnightblue" points="698.575,-481.086 707.509,-475.391 696.973,-474.272 698.575,-481.086"/>
</g>
<!-- Node10 -->
<g id="node19" class="node"><title>Node10</title>
<a xlink:href="namespaceforcebalance_1_1nifty.html#a5d5abeb4a185fde64721d044831e18ee" target="_top" xlink:title="Submit a job to the Work Queue.">
<polygon fill="white" stroke="black" points="927,-478.354 927,-512.354 1059,-512.354 1059,-478.354 927,-478.354"/>
<text text-anchor="start" x="935" y="-499.354" font-family="Ubuntu-R" font-size="10.00">forcebalance.nifty.queue</text>
<text text-anchor="middle" x="993" y="-486.354" font-family="Ubuntu-R" font-size="10.00">_up_src_dest</text>
</a>
</g>
<!-- Node9&#45;&gt;Node10 -->
<g id="edge18" class="edge"><title>Node9&#45;&gt;Node10</title>
<path fill="none" stroke="midnightblue" d="M855.096,-510.893C875.076,-508.641 896.676,-506.208 916.719,-503.949"/>
<polygon fill="midnightblue" stroke="midnightblue" points="917.183,-507.419 926.729,-502.821 916.4,-500.463 917.183,-507.419"/>
</g>
<!-- Node11 -->
<g id="node21" class="node"><title>Node11</title>
<a xlink:href="namespaceforcebalance_1_1nifty.html#a374aac2ef003be02fab49b20ff0a82f0" target="_top" xlink:title="This function waits ten seconds to see if a task in the Work Queue has finished.">
<polygon fill="white" stroke="black" points="935.5,-530.354 935.5,-564.354 1050.5,-564.354 1050.5,-530.354 935.5,-530.354"/>
<text text-anchor="start" x="943.5" y="-551.354" font-family="Ubuntu-R" font-size="10.00">forcebalance.nifty.wq</text>
<text text-anchor="middle" x="993" y="-538.354" font-family="Ubuntu-R" font-size="10.00">_wait1</text>
</a>
</g>
<!-- Node9&#45;&gt;Node11 -->
<g id="edge20" class="edge"><title>Node9&#45;&gt;Node11</title>
<path fill="none" stroke="midnightblue" d="M855.096,-529.226C877.946,-532.23 902.915,-535.512 925.251,-538.448"/>
<polygon fill="midnightblue" stroke="midnightblue" points="924.94,-541.937 935.311,-539.771 925.852,-534.997 924.94,-541.937"/>
</g>
<!-- Node12 -->
<g id="node23" class="node"><title>Node12</title>
<a xlink:href="namespaceforcebalance_1_1nifty.html#a576de8c5b6f236280e07e73e39b2ab7c" target="_top" xlink:title="This function waits until the work queue is completely empty.">
<polygon fill="white" stroke="black" points="1108.5,-424.854 1108.5,-445.854 1247.5,-445.854 1247.5,-424.854 1108.5,-424.854"/>
<text text-anchor="middle" x="1178" y="-432.854" font-family="Ubuntu-R" font-size="10.00">forcebalance.nifty.wq_wait</text>
</a>
</g>
<!-- Node11&#45;&gt;Node12 -->
<g id="edge22" class="edge"><title>Node11&#45;&gt;Node12</title>
<path fill="none" stroke="midnightblue" d="M1050.53,-534.198C1058.25,-530.834 1065.68,-526.623 1072,-521.354 1097.67,-499.965 1081.91,-476.231 1108,-455.354 1110.07,-453.696 1112.28,-452.175 1114.57,-450.78"/>
<polygon fill="midnightblue" stroke="midnightblue" points="1116.56,-453.696 1123.84,-446.001 1113.35,-447.474 1116.56,-453.696"/>
</g>
<!-- Node13 -->
<g id="node25" class="node"><title>Node13</title>
<a xlink:href="namespaceforcebalance_1_1nifty.html#ac9ab6c5543a2e3080061e0024850edf3" target="_top" xlink:title="forcebalance.nifty.allsplit">
<polygon fill="white" stroke="black" points="1292,-452.854 1292,-473.854 1424,-473.854 1424,-452.854 1292,-452.854"/>
<text text-anchor="middle" x="1358" y="-460.854" font-family="Ubuntu-R" font-size="10.00">forcebalance.nifty.allsplit</text>
</a>
</g>
<!-- Node11&#45;&gt;Node13 -->
<g id="edge32" class="edge"><title>Node11&#45;&gt;Node13</title>
<path fill="none" stroke="midnightblue" d="M1050.54,-553.256C1103.28,-556.677 1182.84,-556.767 1248,-535.354 1266.27,-529.351 1267.93,-521.92 1284,-511.354 1300.16,-500.725 1318.39,-488.898 1332.72,-479.643"/>
<polygon fill="midnightblue" stroke="midnightblue" points="1335,-482.335 1341.5,-473.971 1331.2,-476.454 1335,-482.335"/>
</g>
<!-- Node16 -->
<g id="node31" class="node"><title>Node16</title>
<a xlink:href="namespaceforcebalance_1_1nifty.html#ad432b88307e1178b0690c0d350b1af36" target="_top" xlink:title="forcebalance.nifty.GoInto">
<polygon fill="white" stroke="black" points="1111,-504.854 1111,-525.854 1245,-525.854 1245,-504.854 1111,-504.854"/>
<text text-anchor="middle" x="1178" y="-512.854" font-family="Ubuntu-R" font-size="10.00">forcebalance.nifty.GoInto</text>
</a>
</g>
<!-- Node11&#45;&gt;Node16 -->
<g id="edge30" class="edge"><title>Node11&#45;&gt;Node16</title>
<path fill="none" stroke="midnightblue" d="M1050.52,-537.405C1068.41,-534.31 1088.35,-530.861 1107.05,-527.627"/>
<polygon fill="midnightblue" stroke="midnightblue" points="1107.73,-531.061 1116.99,-525.907 1106.54,-524.163 1107.73,-531.061"/>
</g>
<!-- Node17 -->
<g id="node34" class="node"><title>Node17</title>
<a xlink:href="namespaceforcebalance_1_1nifty.html#ab04e8690d099db2379dc860e0d040120" target="_top" xlink:title="forcebalance.nifty.Leave">
<polygon fill="white" stroke="black" points="1112.5,-464.854 1112.5,-485.854 1243.5,-485.854 1243.5,-464.854 1112.5,-464.854"/>
<text text-anchor="middle" x="1178" y="-472.854" font-family="Ubuntu-R" font-size="10.00">forcebalance.nifty.Leave</text>
</a>
</g>
<!-- Node11&#45;&gt;Node17 -->
<g id="edge34" class="edge"><title>Node11&#45;&gt;Node17</title>
<path fill="none" stroke="midnightblue" d="M1050.8,-530.636C1058.08,-527.865 1065.31,-524.766 1072,-521.354 1089.58,-512.386 1090.24,-503.972 1108,-495.354 1112.64,-493.101 1117.58,-491.058 1122.61,-489.215"/>
<polygon fill="midnightblue" stroke="midnightblue" points="1123.99,-492.444 1132.33,-485.915 1121.74,-485.816 1123.99,-492.444"/>
</g>
<!-- Node12&#45;&gt;Node13 -->
<g id="edge24" class="edge"><title>Node12&#45;&gt;Node13</title>
<path fill="none" stroke="midnightblue" d="M1245.54,-445.86C1257.38,-447.703 1269.78,-449.632 1281.85,-451.508"/>
<polygon fill="midnightblue" stroke="midnightblue" points="1281.46,-454.99 1291.88,-453.068 1282.53,-448.073 1281.46,-454.99"/>
</g>
<!-- Node14 -->
<g id="node27" class="node"><title>Node14</title>
<a xlink:href="namespaceforcebalance_1_1nifty.html#ae87c7def5f8edf2ec30737bdb1d2636f" target="_top" xlink:title="forcebalance.nifty.Missing\lFileInspection">
<polygon fill="white" stroke="black" points="1468,-446.354 1468,-480.354 1606,-480.354 1606,-446.354 1468,-446.354"/>
<text text-anchor="start" x="1476" y="-467.354" font-family="Ubuntu-R" font-size="10.00">forcebalance.nifty.Missing</text>
<text text-anchor="middle" x="1537" y="-454.354" font-family="Ubuntu-R" font-size="10.00">FileInspection</text>
</a>
</g>
<!-- Node13&#45;&gt;Node14 -->
<g id="edge26" class="edge"><title>Node13&#45;&gt;Node14</title>
<path fill="none" stroke="midnightblue" d="M1424.14,-463.354C1435.05,-463.354 1446.45,-463.354 1457.64,-463.354"/>
<polygon fill="midnightblue" stroke="midnightblue" points="1457.83,-466.854 1467.83,-463.354 1457.83,-459.854 1457.83,-466.854"/>
</g>
<!-- Node15 -->
<g id="node29" class="node"><title>Node15</title>
<a xlink:href="namespaceforcebalance_1_1nifty.html#a0cf4e58f90acf20e3d6224be2354082c" target="_top" xlink:title="forcebalance.nifty.link\l_dir_contents">
<polygon fill="white" stroke="black" points="1659,-446.354 1659,-480.354 1777,-480.354 1777,-446.354 1659,-446.354"/>
<text text-anchor="start" x="1667" y="-467.354" font-family="Ubuntu-R" font-size="10.00">forcebalance.nifty.link</text>
<text text-anchor="middle" x="1718" y="-454.354" font-family="Ubuntu-R" font-size="10.00">_dir_contents</text>
</a>
</g>
<!-- Node14&#45;&gt;Node15 -->
<g id="edge28" class="edge"><title>Node14&#45;&gt;Node15</title>
<path fill="none" stroke="midnightblue" d="M1606.2,-463.354C1620.18,-463.354 1634.87,-463.354 1648.84,-463.354"/>
<polygon fill="midnightblue" stroke="midnightblue" points="1648.87,-466.854 1658.87,-463.354 1648.87,-459.854 1648.87,-466.854"/>
</g>
<!-- Node19 -->
<g id="node38" class="node"><title>Node19</title>
<a xlink:href="classforcebalance_1_1baseclass_1_1ForceBalanceBaseClass.html#abaaf4d99b043d41f02fabc41db59252b" target="_top" xlink:title="forcebalance.baseclass.Force\lBalanceBaseClass.set_option">
<polygon fill="white" stroke="black" points="914,-426.354 914,-460.354 1072,-460.354 1072,-426.354 914,-426.354"/>
<text text-anchor="start" x="922" y="-447.354" font-family="Ubuntu-R" font-size="10.00">forcebalance.baseclass.Force</text>
<text text-anchor="middle" x="993" y="-434.354" font-family="Ubuntu-R" font-size="10.00">BalanceBaseClass.set_option</text>
</a>
</g>
<!-- Node18&#45;&gt;Node19 -->
<g id="edge38" class="edge"><title>Node18&#45;&gt;Node19</title>
<path fill="none" stroke="midnightblue" d="M861.742,-452.598C875.525,-451.627 889.894,-450.615 903.854,-449.632"/>
<polygon fill="midnightblue" stroke="midnightblue" points="904.203,-453.116 913.933,-448.922 903.711,-446.134 904.203,-453.116"/>
</g>
<!-- Node20&#45;&gt;Node6 -->
<g id="edge42" class="edge"><title>Node20&#45;&gt;Node6</title>
<path fill="none" stroke="midnightblue" d="M636.164,-576.526C663.102,-582.113 693.303,-588.376 719.05,-593.715"/>
<polygon fill="midnightblue" stroke="midnightblue" points="718.548,-597.185 729.05,-595.789 719.969,-590.331 718.548,-597.185"/>
</g>
<!-- Node20&#45;&gt;Node9 -->
<g id="edge44" class="edge"><title>Node20&#45;&gt;Node9</title>
<path fill="none" stroke="midnightblue" d="M636.164,-547.193C661.902,-542.212 690.618,-536.654 715.582,-531.822"/>
<polygon fill="midnightblue" stroke="midnightblue" points="716.517,-535.206 725.669,-529.87 715.186,-528.334 716.517,-535.206"/>
</g>
<!-- Node21 -->
<g id="node44" class="node"><title>Node21</title>
<a xlink:href="classforcebalance_1_1tinkerio_1_1Liquid__TINKER.html#a307529b9902b34a790a8b016e153c7d6" target="_top" xlink:title="forcebalance.tinkerio.Liquid\l_TINKER.__init__">
<polygon fill="white" stroke="black" points="1285,-520.354 1285,-554.354 1431,-554.354 1431,-520.354 1285,-520.354"/>
<text text-anchor="start" x="1293" y="-541.354" font-family="Ubuntu-R" font-size="10.00">forcebalance.tinkerio.Liquid</text>
<text text-anchor="middle" x="1358" y="-528.354" font-family="Ubuntu-R" font-size="10.00">_TINKER.__init__</text>
</a>
</g>
<!-- Node20&#45;&gt;Node21 -->
<g id="edge46" class="edge"><title>Node20&#45;&gt;Node21</title>
<path fill="none" stroke="midnightblue" d="M636.188,-567.34C761.968,-576.224 1026.95,-588.79 1248,-558.354 1256.68,-557.16 1265.7,-555.735 1274.69,-554.199"/>
<polygon fill="midnightblue" stroke="midnightblue" points="1275.56,-557.6 1284.8,-552.423 1274.35,-550.706 1275.56,-557.6"/>
</g>
<!-- Node21&#45;&gt;Node7 -->
<g id="edge48" class="edge"><title>Node21&#45;&gt;Node7</title>
<path fill="none" stroke="midnightblue" d="M1431.25,-535.555C1518.8,-531.977 1669.13,-521.288 1794,-489.354 1893,-464.037 2002.04,-413.181 2060.12,-384.091"/>
<polygon fill="midnightblue" stroke="midnightblue" points="2061.98,-387.072 2069.33,-379.443 2058.83,-380.822 2061.98,-387.072"/>
</g>
<!-- Node22&#45;&gt;Node1 -->
<g id="edge116" class="edge"><title>Node22&#45;&gt;Node1</title>
<path fill="none" stroke="midnightblue" d="M544.035,-235.955C472.299,-276.052 217.33,-418.567 132.601,-465.927"/>
<polygon fill="midnightblue" stroke="midnightblue" points="130.829,-462.907 123.808,-470.841 134.245,-469.017 130.829,-462.907"/>
</g>
<!-- Node23 -->
<g id="node49" class="node"><title>Node23</title>
<a xlink:href="namespaceforcebalance_1_1nifty.html#a577abfd36638c5f4dfdade136abaef12" target="_top" xlink:title="Use this instead of pickle.load for unpickling anything that contains _ElementTree types...">
<polygon fill="white" stroke="black" points="712,-334.854 712,-355.854 848,-355.854 848,-334.854 712,-334.854"/>
<text text-anchor="middle" x="780" y="-342.854" font-family="Ubuntu-R" font-size="10.00">forcebalance.nifty.lp_load</text>
</a>
</g>
<!-- Node22&#45;&gt;Node23 -->
<g id="edge52" class="edge"><title>Node22&#45;&gt;Node23</title>
<path fill="none" stroke="midnightblue" d="M572.264,-236.102C590.828,-256.894 634.861,-302.579 682,-325.354 688.396,-328.444 695.25,-331.058 702.252,-333.268"/>
<polygon fill="midnightblue" stroke="midnightblue" points="701.286,-336.631 711.864,-336.038 703.225,-329.905 701.286,-336.631"/>
</g>
<!-- Node26 -->
<g id="node55" class="node"><title>Node26</title>
<a xlink:href="classforcebalance_1_1liquid_1_1Liquid.html#a51ea9d9fb4418ec2497fe8e2d8033d41" target="_top" xlink:title="Return the self&#45;polarization correction as described in Berendsen et al., JPC 1987.">
<polygon fill="white" stroke="black" points="682.5,-230.354 682.5,-264.354 877.5,-264.354 877.5,-230.354 682.5,-230.354"/>
<text text-anchor="start" x="690.5" y="-251.354" font-family="Ubuntu-R" font-size="10.00">forcebalance.liquid.Liquid.polarization</text>
<text text-anchor="middle" x="780" y="-238.354" font-family="Ubuntu-R" font-size="10.00">_correction</text>
</a>
</g>
<!-- Node22&#45;&gt;Node26 -->
<g id="edge58" class="edge"><title>Node22&#45;&gt;Node26</title>
<path fill="none" stroke="midnightblue" d="M640.729,-233.235C650.959,-234.272 661.586,-235.349 672.205,-236.426"/>
<polygon fill="midnightblue" stroke="midnightblue" points="672.068,-239.93 682.37,-237.456 672.774,-232.965 672.068,-239.93"/>
</g>
<!-- Node27 -->
<g id="node57" class="node"><title>Node27</title>
<a xlink:href="namespaceforcebalance_1_1finite__difference.html#aa69a8819e4680091f400303c1d6ddeb7" target="_top" xlink:title="A three&#45;point finite difference stencil.">
<polygon fill="white" stroke="black" points="727.5,-282.354 727.5,-316.354 832.5,-316.354 832.5,-282.354 727.5,-282.354"/>
<text text-anchor="start" x="735.5" y="-303.354" font-family="Ubuntu-R" font-size="10.00">forcebalance.finite</text>
<text text-anchor="middle" x="780" y="-290.354" font-family="Ubuntu-R" font-size="10.00">_difference.f12d3p</text>
</a>
</g>
<!-- Node22&#45;&gt;Node27 -->
<g id="edge60" class="edge"><title>Node22&#45;&gt;Node27</title>
<path fill="none" stroke="midnightblue" d="M586.832,-235.987C610.627,-246.359 648.393,-262.166 682,-273.354 693.352,-277.133 705.584,-280.738 717.429,-283.996"/>
<polygon fill="midnightblue" stroke="midnightblue" points="716.693,-287.422 727.259,-286.646 718.515,-280.663 716.693,-287.422"/>
</g>
<!-- Node29 -->
<g id="node61" class="node"><title>Node29</title>
<a xlink:href="namespaceforcebalance_1_1finite__difference.html#ae484c591ae8c4e5bae73a0ef2660c339" target="_top" xlink:title="A function wrapper for finite difference designed for differentiating &#39;get&#39;&#45;type functions.">
<polygon fill="white" stroke="black" points="941,-230.354 941,-264.354 1045,-264.354 1045,-230.354 941,-230.354"/>
<text text-anchor="start" x="949" y="-251.354" font-family="Ubuntu-R" font-size="10.00">forcebalance.finite</text>
<text text-anchor="middle" x="993" y="-238.354" font-family="Ubuntu-R" font-size="10.00">_difference.fdwrap</text>
</a>
</g>
<!-- Node22&#45;&gt;Node29 -->
<g id="edge72" class="edge"><title>Node22&#45;&gt;Node29</title>
<path fill="none" stroke="midnightblue" d="M640.611,-219.044C704.53,-215.123 797.42,-212.359 878,-221.354 895.345,-223.291 913.894,-226.821 930.92,-230.67"/>
<polygon fill="midnightblue" stroke="midnightblue" points="930.214,-234.099 940.748,-232.962 931.805,-227.282 930.214,-234.099"/>
</g>
<!-- Node32 -->
<g id="node69" class="node"><title>Node32</title>
<a xlink:href="namespaceforcebalance_1_1nifty.html#a11babd62dc7bca389162c6318f9672ca" target="_top" xlink:title="Cool&#45;looking printout for slick formatting of output.">
<polygon fill="white" stroke="black" points="708,-152.854 708,-173.854 852,-173.854 852,-152.854 708,-152.854"/>
<text text-anchor="middle" x="780" y="-160.854" font-family="Ubuntu-R" font-size="10.00">forcebalance.nifty.printcool</text>
</a>
</g>
<!-- Node22&#45;&gt;Node32 -->
<g id="edge74" class="edge"><title>Node22&#45;&gt;Node32</title>
<path fill="none" stroke="midnightblue" d="M595.19,-214.851C619.057,-207.184 652.437,-196.715 682,-188.354 696.414,-184.278 712.105,-180.142 726.621,-176.439"/>
<polygon fill="midnightblue" stroke="midnightblue" points="727.617,-179.797 736.452,-173.95 725.899,-173.011 727.617,-179.797"/>
</g>
<!-- Node40 -->
<g id="node87" class="node"><title>Node40</title>
<a xlink:href="namespaceforcebalance_1_1nifty.html#afb3f205bce4984856e766af7e9fdaca8" target="_top" xlink:title="Given any list, array, or matrix, return a 1&#45;column matrix.">
<polygon fill="white" stroke="black" points="1479,-57.8542 1479,-78.8542 1595,-78.8542 1595,-57.8542 1479,-57.8542"/>
<text text-anchor="middle" x="1537" y="-65.8542" font-family="Ubuntu-R" font-size="10.00">forcebalance.nifty.col</text>
</a>
</g>
<!-- Node22&#45;&gt;Node40 -->
<g id="edge114" class="edge"><title>Node22&#45;&gt;Node40</title>
<path fill="none" stroke="midnightblue" d="M569.838,-214.73C586.05,-190.51 629.427,-131.156 682,-103.354 806.085,-37.7348 852.633,-48.3542 993,-48.3542 993,-48.3542 993,-48.3542 1178,-48.3542 1279.29,-48.3542 1396.42,-56.3899 1468.6,-62.2742"/>
<polygon fill="midnightblue" stroke="midnightblue" points="1468.66,-65.7912 1478.92,-63.1255 1469.24,-58.8149 1468.66,-65.7912"/>
</g>
<!-- Node41 -->
<g id="node89" class="node"><title>Node41</title>
<a xlink:href="namespaceforcebalance_1_1nifty.html#a52114ceee9d55f94d9aecb3e176de294" target="_top" xlink:title="Given any list, array, or matrix, return a single&#45;index array.">
<polygon fill="white" stroke="black" points="1659.5,-33.8542 1659.5,-54.8542 1776.5,-54.8542 1776.5,-33.8542 1659.5,-33.8542"/>
<text text-anchor="middle" x="1718" y="-41.8542" font-family="Ubuntu-R" font-size="10.00">forcebalance.nifty.flat</text>
</a>
</g>
<!-- Node22&#45;&gt;Node41 -->
<g id="edge110" class="edge"><title>Node22&#45;&gt;Node41</title>
<path fill="none" stroke="midnightblue" d="M566.311,-214.839C577.013,-182.785 613.992,-85.9611 682,-44.3542 800.609,28.2099 853.954,-10.3542 993,-10.3542 993,-10.3542 993,-10.3542 1358,-10.3542 1459.57,-10.3542 1576.55,-23.9347 1648.89,-33.9299"/>
<polygon fill="midnightblue" stroke="midnightblue" points="1648.84,-37.4575 1659.23,-35.3766 1649.81,-30.525 1648.84,-37.4575"/>
</g>
<!-- Node44 -->
<g id="node100" class="node"><title>Node44</title>
<a xlink:href="namespaceforcebalance_1_1liquid.html#a6f7d54263236f8788c319aee86b460b6" target="_top" xlink:title="forcebalance.liquid.weight_info">
<polygon fill="white" stroke="black" points="699,-112.854 699,-133.854 861,-133.854 861,-112.854 699,-112.854"/>
<text text-anchor="middle" x="780" y="-120.854" font-family="Ubuntu-R" font-size="10.00">forcebalance.liquid.weight_info</text>
</a>
</g>
<!-- Node22&#45;&gt;Node44 -->
<g id="edge112" class="edge"><title>Node22&#45;&gt;Node44</title>
<path fill="none" stroke="midnightblue" d="M574.866,-214.698C595.231,-197.012 638.829,-161.726 682,-143.354 688.065,-140.773 694.487,-138.518 701.025,-136.548"/>
<polygon fill="midnightblue" stroke="midnightblue" points="701.968,-139.919 710.661,-133.862 700.088,-133.176 701.968,-139.919"/>
</g>
<!-- Node24 -->
<g id="node51" class="node"><title>Node24</title>
<a xlink:href="namespaceforcebalance_1_1nifty.html#abe1e72c32252d62a6551b47290c7584f" target="_top" xlink:title="forcebalance.nifty.getWQIds">
<polygon fill="white" stroke="black" points="919.5,-334.854 919.5,-355.854 1066.5,-355.854 1066.5,-334.854 919.5,-334.854"/>
<text text-anchor="middle" x="993" y="-342.854" font-family="Ubuntu-R" font-size="10.00">forcebalance.nifty.getWQIds</text>
</a>
</g>
<!-- Node23&#45;&gt;Node24 -->
<g id="edge54" class="edge"><title>Node23&#45;&gt;Node24</title>
<path fill="none" stroke="midnightblue" d="M848.273,-345.354C867.635,-345.354 888.941,-345.354 909.112,-345.354"/>
<polygon fill="midnightblue" stroke="midnightblue" points="909.223,-348.854 919.223,-345.354 909.223,-341.854 909.223,-348.854"/>
</g>
<!-- Node25 -->
<g id="node53" class="node"><title>Node25</title>
<a xlink:href="namespaceforcebalance_1_1nifty.html#ab5f3072ad95e9c75659cb1adac341051" target="_top" xlink:title="forcebalance.nifty.create\lWorkQueue">
<polygon fill="white" stroke="black" points="926.5,-374.354 926.5,-408.354 1059.5,-408.354 1059.5,-374.354 926.5,-374.354"/>
<text text-anchor="start" x="934.5" y="-395.354" font-family="Ubuntu-R" font-size="10.00">forcebalance.nifty.create</text>
<text text-anchor="middle" x="993" y="-382.354" font-family="Ubuntu-R" font-size="10.00">WorkQueue</text>
</a>
</g>
<!-- Node23&#45;&gt;Node25 -->
<g id="edge56" class="edge"><title>Node23&#45;&gt;Node25</title>
<path fill="none" stroke="midnightblue" d="M828.867,-355.907C854.686,-361.483 886.972,-368.456 916.062,-374.738"/>
<polygon fill="midnightblue" stroke="midnightblue" points="915.689,-378.238 926.202,-376.928 917.167,-371.396 915.689,-378.238"/>
</g>
<!-- Node28 -->
<g id="node59" class="node"><title>Node28</title>
<a xlink:href="namespaceforcebalance_1_1finite__difference.html#ad84d3e385db1190e7d8ef58bc08a6c52" target="_top" xlink:title="Invoking this function from anywhere will tell us whether we&#39;re being called by a finite&#45;difference f...">
<polygon fill="white" stroke="black" points="941,-282.354 941,-316.354 1045,-316.354 1045,-282.354 941,-282.354"/>
<text text-anchor="start" x="949" y="-303.354" font-family="Ubuntu-R" font-size="10.00">forcebalance.finite</text>
<text text-anchor="middle" x="993" y="-290.354" font-family="Ubuntu-R" font-size="10.00">_difference.in_fd</text>
</a>
</g>
<!-- Node27&#45;&gt;Node28 -->
<g id="edge62" class="edge"><title>Node27&#45;&gt;Node28</title>
<path fill="none" stroke="midnightblue" d="M832.652,-299.354C862.315,-299.354 899.54,-299.354 930.656,-299.354"/>
<polygon fill="midnightblue" stroke="midnightblue" points="930.954,-302.854 940.954,-299.354 930.954,-295.854 930.954,-302.854"/>
</g>
<!-- Node27&#45;&gt;Node29 -->
<g id="edge64" class="edge"><title>Node27&#45;&gt;Node29</title>
<path fill="none" stroke="midnightblue" d="M832.652,-286.5C862.444,-279.227 899.864,-270.092 931.061,-262.475"/>
<polygon fill="midnightblue" stroke="midnightblue" points="932.069,-265.832 940.954,-260.06 930.409,-259.032 932.069,-265.832"/>
</g>
<!-- Node30 -->
<g id="node63" class="node"><title>Node30</title>
<a xlink:href="namespaceforcebalance_1_1finite__difference.html#a00322fb65860c390616f74d05037c797" target="_top" xlink:title="A driver to fdwrap for gradients (see documentation for fdwrap) Inputs: tgt = The Target containing t...">
<polygon fill="white" stroke="black" points="1120,-230.354 1120,-264.354 1236,-264.354 1236,-230.354 1120,-230.354"/>
<text text-anchor="start" x="1128" y="-251.354" font-family="Ubuntu-R" font-size="10.00">forcebalance.finite</text>
<text text-anchor="middle" x="1178" y="-238.354" font-family="Ubuntu-R" font-size="10.00">_difference.fdwrap_G</text>
</a>
</g>
<!-- Node29&#45;&gt;Node30 -->
<g id="edge66" class="edge"><title>Node29&#45;&gt;Node30</title>
<path fill="none" stroke="midnightblue" d="M1045.03,-241.215C1065.14,-240.568 1088.43,-240.435 1109.85,-240.816"/>
<polygon fill="midnightblue" stroke="midnightblue" points="1109.79,-244.316 1119.86,-241.036 1109.94,-237.318 1109.79,-244.316"/>
</g>
<!-- Node31 -->
<g id="node66" class="node"><title>Node31</title>
<a xlink:href="namespaceforcebalance_1_1finite__difference.html#a77a0bc1ae3cbbcc8d38a0ef9ca877d6d" target="_top" xlink:title="A driver to fdwrap for Hessians (see documentation for fdwrap) Inputs: tgt = The Target containing th...">
<polygon fill="white" stroke="black" points="1120,-282.354 1120,-316.354 1236,-316.354 1236,-282.354 1120,-282.354"/>
<text text-anchor="start" x="1128" y="-303.354" font-family="Ubuntu-R" font-size="10.00">forcebalance.finite</text>
<text text-anchor="middle" x="1178" y="-290.354" font-family="Ubuntu-R" font-size="10.00">_difference.fdwrap_H</text>
</a>
</g>
<!-- Node29&#45;&gt;Node31 -->
<g id="edge70" class="edge"><title>Node29&#45;&gt;Node31</title>
<path fill="none" stroke="midnightblue" d="M1045.03,-261.977C1065.23,-267.656 1088.64,-274.237 1110.14,-280.28"/>
<polygon fill="midnightblue" stroke="midnightblue" points="1109.29,-283.676 1119.86,-283.013 1111.18,-276.938 1109.29,-283.676"/>
</g>
<!-- Node30&#45;&gt;Node29 -->
<g id="edge68" class="edge"><title>Node30&#45;&gt;Node29</title>
<path fill="none" stroke="midnightblue" d="M1119.86,-253.672C1099.26,-254.214 1076,-254.246 1055.09,-253.769"/>
<polygon fill="midnightblue" stroke="midnightblue" points="1055.12,-250.268 1045.03,-253.493 1054.93,-257.266 1055.12,-250.268"/>
</g>
<!-- Node32&#45;&gt;Node7 -->
<g id="edge76" class="edge"><title>Node32&#45;&gt;Node7</title>
<path fill="none" stroke="midnightblue" d="M843.602,-173.862C865.826,-177.264 890.971,-180.811 914,-183.354 1030.93,-196.268 1060.36,-202.354 1178,-202.354 1178,-202.354 1178,-202.354 1718,-202.354 1858.71,-202.354 2007.67,-295.032 2070.81,-339.318"/>
<polygon fill="midnightblue" stroke="midnightblue" points="2068.96,-342.297 2079.14,-345.231 2073.01,-336.589 2068.96,-342.297"/>
</g>
<!-- Node33 -->
<g id="node72" class="node"><title>Node33</title>
<a xlink:href="namespaceforcebalance_1_1nifty.html#a51180e960742cc7547749fdfb3513ec4" target="_top" xlink:title="See documentation for printcool; this is a nice way to print out keys/values in a dictionary...">
<polygon fill="white" stroke="black" points="921,-140.354 921,-174.354 1065,-174.354 1065,-140.354 921,-140.354"/>
<text text-anchor="start" x="929" y="-161.354" font-family="Ubuntu-R" font-size="10.00">forcebalance.nifty.printcool</text>
<text text-anchor="middle" x="993" y="-148.354" font-family="Ubuntu-R" font-size="10.00">_dictionary</text>
</a>
</g>
<!-- Node32&#45;&gt;Node33 -->
<g id="edge78" class="edge"><title>Node32&#45;&gt;Node33</title>
<path fill="none" stroke="midnightblue" d="M852.112,-161.323C871.023,-160.79 891.554,-160.212 910.942,-159.666"/>
<polygon fill="midnightblue" stroke="midnightblue" points="911.065,-163.164 920.962,-159.383 910.868,-156.166 911.065,-163.164"/>
</g>
<!-- Node34 -->
<g id="node74" class="node"><title>Node34</title>
<a xlink:href="namespaceforcebalance_1_1nifty.html#a3f1c7a1af9d35d5d1693074bc6f5497c" target="_top" xlink:title="ONLY matches integers! If you have a decimal point? None shall pass!">
<polygon fill="white" stroke="black" points="1117,-114.854 1117,-135.854 1239,-135.854 1239,-114.854 1117,-114.854"/>
<text text-anchor="middle" x="1178" y="-122.854" font-family="Ubuntu-R" font-size="10.00">forcebalance.nifty.isint</text>
</a>
</g>
<!-- Node33&#45;&gt;Node34 -->
<g id="edge80" class="edge"><title>Node33&#45;&gt;Node34</title>
<path fill="none" stroke="midnightblue" d="M1065.06,-144.89C1078.93,-142.49 1093.46,-139.977 1107.29,-137.584"/>
<polygon fill="midnightblue" stroke="midnightblue" points="1107.97,-141.019 1117.23,-135.866 1106.78,-134.122 1107.97,-141.019"/>
</g>
<!-- Node36 -->
<g id="node78" class="node"><title>Node36</title>
<a xlink:href="namespaceforcebalance_1_1nifty.html#a8e3ef0108b9d37b82ba0dced7c6037ae" target="_top" xlink:title="Matches ANY number; it can be a decimal, scientific notation, what have you CAUTION &#45; this will also ...">
<polygon fill="white" stroke="black" points="1471.5,-115.854 1471.5,-136.854 1602.5,-136.854 1602.5,-115.854 1471.5,-115.854"/>
<text text-anchor="middle" x="1537" y="-123.854" font-family="Ubuntu-R" font-size="10.00">forcebalance.nifty.isfloat</text>
</a>
</g>
<!-- Node33&#45;&gt;Node36 -->
<g id="edge108" class="edge"><title>Node33&#45;&gt;Node36</title>
<path fill="none" stroke="midnightblue" d="M1065.37,-156.63C1152.5,-155.279 1303.19,-151.411 1432,-140.354 1441.45,-139.543 1451.36,-138.49 1461.15,-137.326"/>
<polygon fill="midnightblue" stroke="midnightblue" points="1461.79,-140.774 1471.29,-136.078 1460.94,-133.826 1461.79,-140.774"/>
</g>
<!-- Node35 -->
<g id="node76" class="node"><title>Node35</title>
<a xlink:href="namespaceforcebalance_1_1nifty.html#a09263927eaec9deff283fbf1a820242f" target="_top" xlink:title="Matches things with a decimal only; see isint and isfloat.">
<polygon fill="white" stroke="black" points="1284.5,-76.8542 1284.5,-97.8542 1431.5,-97.8542 1431.5,-76.8542 1284.5,-76.8542"/>
<text text-anchor="middle" x="1358" y="-84.8542" font-family="Ubuntu-R" font-size="10.00">forcebalance.nifty.isdecimal</text>
</a>
</g>
<!-- Node34&#45;&gt;Node35 -->
<g id="edge82" class="edge"><title>Node34&#45;&gt;Node35</title>
<path fill="none" stroke="midnightblue" d="M1228.14,-114.769C1249.89,-110.178 1275.53,-104.765 1298.25,-99.9674"/>
<polygon fill="midnightblue" stroke="midnightblue" points="1299.07,-103.373 1308.13,-97.8825 1297.62,-96.5237 1299.07,-103.373"/>
</g>
<!-- Node35&#45;&gt;Node36 -->
<g id="edge84" class="edge"><title>Node35&#45;&gt;Node36</title>
<path fill="none" stroke="midnightblue" d="M1406.44,-97.9081C1428.73,-102.764 1455.35,-108.564 1478.72,-113.657"/>
<polygon fill="midnightblue" stroke="midnightblue" points="1478.01,-117.083 1488.52,-115.792 1479.5,-110.243 1478.01,-117.083"/>
</g>
<!-- Node35&#45;&gt;Node40 -->
<g id="edge94" class="edge"><title>Node35&#45;&gt;Node40</title>
<path fill="none" stroke="midnightblue" d="M1431.58,-79.5439C1443.86,-78.2405 1456.55,-76.8932 1468.69,-75.6046"/>
<polygon fill="midnightblue" stroke="midnightblue" points="1469.17,-79.0742 1478.74,-74.5382 1468.43,-72.1133 1469.17,-79.0742"/>
</g>
<!-- Node36&#45;&gt;Node34 -->
<g id="edge86" class="edge"><title>Node36&#45;&gt;Node34</title>
<path fill="none" stroke="midnightblue" d="M1471.39,-126.171C1408.58,-125.996 1314.09,-125.733 1249.42,-125.553"/>
<polygon fill="midnightblue" stroke="midnightblue" points="1249.32,-122.053 1239.31,-125.525 1249.3,-129.053 1249.32,-122.053"/>
</g>
<!-- Node37 -->
<g id="node81" class="node"><title>Node37</title>
<a xlink:href="namespaceforcebalance_1_1nifty.html#a8d63c8ae9a67c66673a6cf81357f827d" target="_top" xlink:title="Returns a big number if we encounter NaN.">
<polygon fill="white" stroke="black" points="1642.5,-115.854 1642.5,-136.854 1793.5,-136.854 1793.5,-115.854 1642.5,-115.854"/>
<text text-anchor="middle" x="1718" y="-123.854" font-family="Ubuntu-R" font-size="10.00">forcebalance.nifty.floatornan</text>
</a>
</g>
<!-- Node36&#45;&gt;Node37 -->
<g id="edge88" class="edge"><title>Node36&#45;&gt;Node37</title>
<path fill="none" stroke="midnightblue" d="M1602.6,-126.354C1612.21,-126.354 1622.23,-126.354 1632.17,-126.354"/>
<polygon fill="midnightblue" stroke="midnightblue" points="1632.48,-129.854 1642.48,-126.354 1632.48,-122.854 1632.48,-129.854"/>
</g>
<!-- Node38 -->
<g id="node83" class="node"><title>Node38</title>
<a xlink:href="namespaceforcebalance_1_1nifty.html#a6c9727360cdff8f3011a12cc54d0e86e" target="_top" xlink:title="Given any list, array, or matrix, return a 1&#45;row matrix.">
<polygon fill="white" stroke="black" points="1846.5,-115.854 1846.5,-136.854 1965.5,-136.854 1965.5,-115.854 1846.5,-115.854"/>
<text text-anchor="middle" x="1906" y="-123.854" font-family="Ubuntu-R" font-size="10.00">forcebalance.nifty.row</text>
</a>
</g>
<!-- Node37&#45;&gt;Node38 -->
<g id="edge90" class="edge"><title>Node37&#45;&gt;Node38</title>
<path fill="none" stroke="midnightblue" d="M1793.65,-126.354C1807.64,-126.354 1822.19,-126.354 1836,-126.354"/>
<polygon fill="midnightblue" stroke="midnightblue" points="1836.39,-129.854 1846.39,-126.354 1836.39,-122.854 1836.39,-129.854"/>
</g>
<!-- Node39 -->
<g id="node85" class="node"><title>Node39</title>
<a xlink:href="namespaceforcebalance_1_1nifty.html#a7676236002c6a65ea7d2e69a09923889" target="_top" xlink:title="Given two vectors vec1 and vec2, project out the component of vec1 that is along the vec2&#45;direction...">
<polygon fill="white" stroke="black" points="2018,-115.854 2018,-136.854 2186,-136.854 2186,-115.854 2018,-115.854"/>
<text text-anchor="middle" x="2102" y="-123.854" font-family="Ubuntu-R" font-size="10.00">forcebalance.nifty.orthogonalize</text>
</a>
</g>
<!-- Node38&#45;&gt;Node39 -->
<g id="edge92" class="edge"><title>Node38&#45;&gt;Node39</title>
<path fill="none" stroke="midnightblue" d="M1965.6,-126.354C1978.84,-126.354 1993.18,-126.354 2007.42,-126.354"/>
<polygon fill="midnightblue" stroke="midnightblue" points="2007.76,-129.854 2017.76,-126.354 2007.76,-122.854 2007.76,-129.854"/>
</g>
<!-- Node40&#45;&gt;Node41 -->
<g id="edge96" class="edge"><title>Node40&#45;&gt;Node41</title>
<path fill="none" stroke="midnightblue" d="M1595.27,-60.6283C1612.37,-58.3602 1631.24,-55.8578 1648.95,-53.5097"/>
<polygon fill="midnightblue" stroke="midnightblue" points="1649.77,-56.932 1659.22,-52.1478 1648.85,-49.9927 1649.77,-56.932"/>
</g>
<!-- Node42 -->
<g id="node91" class="node"><title>Node42</title>
<a xlink:href="namespaceforcebalance_1_1nifty.html#a4c82187e92dfeb8a159f4aa44b501c40" target="_top" xlink:title="Invert a matrix using singular value decomposition.">
<polygon fill="white" stroke="black" points="1830.5,-72.8542 1830.5,-93.8542 1981.5,-93.8542 1981.5,-72.8542 1830.5,-72.8542"/>
<text text-anchor="middle" x="1906" y="-80.8542" font-family="Ubuntu-R" font-size="10.00">forcebalance.nifty.invert_svd</text>
</a>
</g>
<!-- Node41&#45;&gt;Node42 -->
<g id="edge98" class="edge"><title>Node41&#45;&gt;Node42</title>
<path fill="none" stroke="midnightblue" d="M1768.88,-54.9081C1792.39,-59.7855 1820.49,-65.6163 1845.12,-70.7255"/>
<polygon fill="midnightblue" stroke="midnightblue" points="1844.58,-74.1875 1855.08,-72.7918 1846,-67.3334 1844.58,-74.1875"/>
</g>
<!-- Node42&#45;&gt;Node7 -->
<g id="edge106" class="edge"><title>Node42&#45;&gt;Node7</title>
<path fill="none" stroke="midnightblue" d="M1961.21,-93.9598C1968.74,-97.082 1975.95,-101.123 1982,-106.354 2019.12,-138.466 2071.48,-276.643 2092.61,-335.567"/>
<polygon fill="midnightblue" stroke="midnightblue" points="2089.42,-337.036 2096.07,-345.283 2096.01,-334.688 2089.42,-337.036"/>
</g>
<!-- Node42&#45;&gt;Node40 -->
<g id="edge104" class="edge"><title>Node42&#45;&gt;Node40</title>
<path fill="none" stroke="midnightblue" d="M1830.39,-80.2805C1764.33,-77.5951 1669.26,-73.7307 1605.42,-71.1356"/>
<polygon fill="midnightblue" stroke="midnightblue" points="1605.2,-67.6236 1595.06,-70.7144 1604.91,-74.6178 1605.2,-67.6236"/>
</g>
<!-- Node43 -->
<g id="node93" class="node"><title>Node43</title>
<a xlink:href="namespaceforcebalance_1_1nifty.html#aa9fb9c7c65231eca50a7afc04f489b64" target="_top" xlink:title="forcebalance.nifty.get\l_least_squares">
<polygon fill="white" stroke="black" points="2043,-45.3542 2043,-79.3542 2161,-79.3542 2161,-45.3542 2043,-45.3542"/>
<text text-anchor="start" x="2051" y="-66.3542" font-family="Ubuntu-R" font-size="10.00">forcebalance.nifty.get</text>
<text text-anchor="middle" x="2102" y="-53.3542" font-family="Ubuntu-R" font-size="10.00">_least_squares</text>
</a>
</g>
<!-- Node42&#45;&gt;Node43 -->
<g id="edge100" class="edge"><title>Node42&#45;&gt;Node43</title>
<path fill="none" stroke="midnightblue" d="M1981.78,-75.235C1998.55,-73.4381 2016.24,-71.543 2032.73,-69.7755"/>
<polygon fill="midnightblue" stroke="midnightblue" points="2033.26,-73.2391 2042.83,-68.6936 2032.52,-66.2789 2033.26,-73.2391"/>
</g>
<!-- Node43&#45;&gt;Node41 -->
<g id="edge102" class="edge"><title>Node43&#45;&gt;Node41</title>
<path fill="none" stroke="midnightblue" d="M2042.95,-59.5863C1973.89,-56.349 1859.75,-50.9985 1786.76,-47.5771"/>
<polygon fill="midnightblue" stroke="midnightblue" points="1786.89,-44.0797 1776.74,-47.1076 1786.56,-51.0721 1786.89,-44.0797"/>
</g>
</g>
</svg>
