<?xml version="1.0" encoding="UTF-8" standalone="no"?>
<!DOCTYPE svg PUBLIC "-//W3C//DTD SVG 1.1//EN"
 "http://www.w3.org/Graphics/SVG/1.1/DTD/svg11.dtd">
<!-- Generated by graphviz version 2.26.3 (20100126.1600)
 -->
<!-- Title: forcebalance.target.RemoteTarget Pages: 1 -->
<svg width="158pt" height="218pt"
 viewBox="0.00 0.00 158.00 218.00" xmlns="http://www.w3.org/2000/svg" xmlns:xlink="http://www.w3.org/1999/xlink">
<g id="graph1" class="graph" transform="scale(1 1) rotate(0) translate(4 214)">
<title>forcebalance.target.RemoteTarget</title>
<polygon fill="white" stroke="white" points="-4,5 -4,-214 155,-214 155,5 -4,5"/>
<!-- Node1 -->
<g id="node1" class="node"><title>Node1</title>
<polygon fill="#bfbfbf" stroke="black" points="0,-1 0,-35 150,-35 150,-1 0,-1"/>
<text text-anchor="start" x="8" y="-22" font-family="Ubuntu-R" font-size="10.00">forcebalance.target.Remote</text>
<text text-anchor="middle" x="75" y="-9" font-family="Ubuntu-R" font-size="10.00">Target</text>
</g>
<!-- Node2 -->
<g id="node2" class="node"><title>Node2</title>
<a xlink:href="classforcebalance_1_1target_1_1Target.html" target="_top" xlink:title="Base class for all fitting targets.">
<polygon fill="white" stroke="black" points="4,-72.5 4,-93.5 146,-93.5 146,-72.5 4,-72.5"/>
<text text-anchor="middle" x="75" y="-80.5" font-family="Ubuntu-R" font-size="10.00">forcebalance.target.Target</text>
</a>
</g>
<!-- Node2&#45;&gt;Node1 -->
<g id="edge2" class="edge"><title>Node2&#45;&gt;Node1</title>
<path fill="none" stroke="midnightblue" d="M75,-62.1306C75,-53.4049 75,-43.3908 75,-35.1099"/>
<polygon fill="midnightblue" stroke="midnightblue" points="71.5001,-62.2665 75,-72.2666 78.5001,-62.2666 71.5001,-62.2665"/>
</g>
<!-- Node3 -->
<g id="node4" class="node"><title>Node3</title>
<a xlink:href="classforcebalance_1_1BaseClass.html" target="_top" xlink:title="Provides some nifty functions that are common to all ForceBalance classes.">
<polygon fill="white" stroke="black" points="10,-130.5 10,-151.5 140,-151.5 140,-130.5 10,-130.5"/>
<text text-anchor="middle" x="75" y="-138.5" font-family="Ubuntu-R" font-size="10.00">forcebalance.BaseClass</text>
</a>
</g>
<!-- Node3&#45;&gt;Node2 -->
<g id="edge4" class="edge"><title>Node3&#45;&gt;Node2</title>
<path fill="none" stroke="midnightblue" d="M75,-120.191C75,-111.168 75,-100.994 75,-93.5707"/>
<polygon fill="midnightblue" stroke="midnightblue" points="71.5001,-120.362 75,-130.362 78.5001,-120.362 71.5001,-120.362"/>
</g>
<!-- Node4 -->
<g id="node6" class="node"><title>Node4</title>
<polygon fill="white" stroke="#bfbfbf" points="52,-188.5 52,-209.5 98,-209.5 98,-188.5 52,-188.5"/>
<text text-anchor="middle" x="75" y="-196.5" font-family="Ubuntu-R" font-size="10.00">object</text>
</g>
<!-- Node4&#45;&gt;Node3 -->
<g id="edge6" class="edge"><title>Node4&#45;&gt;Node3</title>
<path fill="none" stroke="midnightblue" d="M75,-178.191C75,-169.168 75,-158.994 75,-151.571"/>
<polygon fill="midnightblue" stroke="midnightblue" points="71.5001,-178.362 75,-188.362 78.5001,-178.362 71.5001,-178.362"/>
</g>
</g>
</svg>
