<?xml version="1.0" encoding="UTF-8" standalone="no"?>
<!DOCTYPE svg PUBLIC "-//W3C//DTD SVG 1.1//EN"
 "http://www.w3.org/Graphics/SVG/1.1/DTD/svg11.dtd">
<!-- Generated by graphviz version 2.26.3 (20100126.1600)
 -->
<!-- Title: forcebalance.tinkerio.AbInitio_TINKER.energy_force_driver Pages: 1 -->
<svg width="960pt" height="253pt"
 viewBox="0.00 0.00 960.00 252.62" xmlns="http://www.w3.org/2000/svg" xmlns:xlink="http://www.w3.org/1999/xlink">
<g id="graph1" class="graph" transform="scale(1 1) rotate(0) translate(4 248.622)">
<title>forcebalance.tinkerio.AbInitio_TINKER.energy_force_driver</title>
<polygon fill="white" stroke="white" points="-4,5 -4,-248.622 957,-248.622 957,5 -4,5"/>
<!-- Node1 -->
<g id="node1" class="node"><title>Node1</title>
<polygon fill="#bfbfbf" stroke="black" points="0,-139.122 0,-186.122 142,-186.122 142,-139.122 0,-139.122"/>
<text text-anchor="start" x="8" y="-173.122" font-family="Ubuntu-R" font-size="10.00">forcebalance.tinkerio.Ab</text>
<text text-anchor="start" x="8" y="-160.122" font-family="Ubuntu-R" font-size="10.00">Initio_TINKER.energy_force</text>
<text text-anchor="middle" x="71" y="-147.122" font-family="Ubuntu-R" font-size="10.00">_driver</text>
</g>
<!-- Node2 -->
<g id="node3" class="node"><title>Node2</title>
<a xlink:href="namespaceforcebalance_1_1molecule.html#a0dd31eff88d2bed0884ab21a13261d42" target="_top" xlink:title="ONLY matches integers! If you have a decimal point? None shall pass!">
<polygon fill="white" stroke="black" points="185.5,-223.122 185.5,-244.122 332.5,-244.122 332.5,-223.122 185.5,-223.122"/>
<text text-anchor="middle" x="259" y="-231.122" font-family="Ubuntu-R" font-size="10.00">forcebalance.molecule.isint</text>
</a>
</g>
<!-- Node1&#45;&gt;Node2 -->
<g id="edge2" class="edge"><title>Node1&#45;&gt;Node2</title>
<path fill="none" stroke="midnightblue" d="M122.797,-186.209C140.182,-193.771 159.783,-201.916 178,-208.622 189.003,-212.671 201.001,-216.622 212.311,-220.142"/>
<polygon fill="midnightblue" stroke="midnightblue" points="211.443,-223.537 222.029,-223.117 213.492,-216.843 211.443,-223.537"/>
</g>
<!-- Node3 -->
<g id="node5" class="node"><title>Node3</title>
<a xlink:href="namespaceforcebalance_1_1molecule.html#afe989ffd119568047fc8265b1d329a70" target="_top" xlink:title="Matches ANY number; it can be a decimal, scientific notation, integer, or what have you...">
<polygon fill="white" stroke="black" points="391,-223.122 391,-244.122 547,-244.122 547,-223.122 391,-223.122"/>
<text text-anchor="middle" x="469" y="-231.122" font-family="Ubuntu-R" font-size="10.00">forcebalance.molecule.isfloat</text>
</a>
</g>
<!-- Node1&#45;&gt;Node3 -->
<g id="edge6" class="edge"><title>Node1&#45;&gt;Node3</title>
<path fill="none" stroke="midnightblue" d="M142.154,-175.315C215.188,-188.344 328.061,-208.479 400.217,-221.351"/>
<polygon fill="midnightblue" stroke="midnightblue" points="399.661,-224.807 410.12,-223.118 400.89,-217.916 399.661,-224.807"/>
</g>
<!-- Node4 -->
<g id="node8" class="node"><title>Node4</title>
<a xlink:href="classforcebalance_1_1tinkerio_1_1AbInitio__TINKER.html#aafbf91f1422d7b8f65a4aa588d1c6e18" target="_top" xlink:title="forcebalance.tinkerio.Ab\lInitio_TINKER.energy_driver_all">
<polygon fill="white" stroke="black" points="178.5,-114.622 178.5,-148.622 339.5,-148.622 339.5,-114.622 178.5,-114.622"/>
<text text-anchor="start" x="186.5" y="-135.622" font-family="Ubuntu-R" font-size="10.00">forcebalance.tinkerio.Ab</text>
<text text-anchor="middle" x="259" y="-122.622" font-family="Ubuntu-R" font-size="10.00">Initio_TINKER.energy_driver_all</text>
</a>
</g>
<!-- Node1&#45;&gt;Node4 -->
<g id="edge8" class="edge"><title>Node1&#45;&gt;Node4</title>
<path fill="none" stroke="midnightblue" d="M142.075,-150.902C150.687,-149.482 159.573,-148.016 168.419,-146.558"/>
<polygon fill="midnightblue" stroke="midnightblue" points="169.075,-149.997 178.372,-144.917 167.936,-143.09 169.075,-149.997"/>
</g>
<!-- Node2&#45;&gt;Node3 -->
<g id="edge4" class="edge"><title>Node2&#45;&gt;Node3</title>
<path fill="none" stroke="midnightblue" d="M332.743,-233.622C348.157,-233.622 364.561,-233.622 380.449,-233.622"/>
<polygon fill="midnightblue" stroke="midnightblue" points="380.8,-237.122 390.8,-233.622 380.8,-230.122 380.8,-237.122"/>
</g>
<!-- Node4&#45;&gt;Node4 -->
<g id="edge28" class="edge"><title>Node4&#45;&gt;Node4</title>
<path fill="none" stroke="midnightblue" d="M225.204,-148.909C219.461,-158.178 230.727,-166.622 259,-166.622 276.229,-166.622 287.142,-163.486 291.74,-158.939"/>
<polygon fill="midnightblue" stroke="midnightblue" points="295.23,-159.221 292.796,-148.909 288.268,-158.488 295.23,-159.221"/>
</g>
<!-- Node5 -->
<g id="node10" class="node"><title>Node5</title>
<a xlink:href="classforcebalance_1_1tinkerio_1_1AbInitio__TINKER.html#a27835affec49391fc41b832839a2b0e8" target="_top" xlink:title="forcebalance.tinkerio.Ab\lInitio_TINKER.energy_force\l_driver_all">
<polygon fill="white" stroke="black" points="398,-157.122 398,-204.122 540,-204.122 540,-157.122 398,-157.122"/>
<text text-anchor="start" x="406" y="-191.122" font-family="Ubuntu-R" font-size="10.00">forcebalance.tinkerio.Ab</text>
<text text-anchor="start" x="406" y="-178.122" font-family="Ubuntu-R" font-size="10.00">Initio_TINKER.energy_force</text>
<text text-anchor="middle" x="469" y="-165.122" font-family="Ubuntu-R" font-size="10.00">_driver_all</text>
</a>
</g>
<!-- Node4&#45;&gt;Node5 -->
<g id="edge10" class="edge"><title>Node4&#45;&gt;Node5</title>
<path fill="none" stroke="midnightblue" d="M331.858,-148.622C349.933,-152.839 369.414,-157.385 387.859,-161.689"/>
<polygon fill="midnightblue" stroke="midnightblue" points="387.155,-165.118 397.688,-163.982 388.745,-158.301 387.155,-165.118"/>
</g>
<!-- Node8 -->
<g id="node18" class="node"><title>Node8</title>
<a xlink:href="classforcebalance_1_1openmmio_1_1Interaction__OpenMM.html#a535ff72686dc66b91f5dda007e252189" target="_top" xlink:title="forcebalance.openmmio.Interaction\l_OpenMM.energy_driver_all">
<polygon fill="white" stroke="black" points="376,-86.6216 376,-120.622 562,-120.622 562,-86.6216 376,-86.6216"/>
<text text-anchor="start" x="384" y="-107.622" font-family="Ubuntu-R" font-size="10.00">forcebalance.openmmio.Interaction</text>
<text text-anchor="middle" x="469" y="-94.6216" font-family="Ubuntu-R" font-size="10.00">_OpenMM.energy_driver_all</text>
</a>
</g>
<!-- Node4&#45;&gt;Node8 -->
<g id="edge20" class="edge"><title>Node4&#45;&gt;Node8</title>
<path fill="none" stroke="midnightblue" d="M339.591,-120.876C348.071,-119.746 356.775,-118.585 365.467,-117.426"/>
<polygon fill="midnightblue" stroke="midnightblue" points="366.199,-120.859 375.649,-116.068 365.274,-113.921 366.199,-120.859"/>
</g>
<!-- Node6 -->
<g id="node12" class="node"><title>Node6</title>
<a xlink:href="classforcebalance_1_1tinkerio_1_1AbInitio__TINKER.html#adeddb898c79da3df601bc742bc2c2be7" target="_top" xlink:title="forcebalance.tinkerio.Ab\lInitio_TINKER.__init__">
<polygon fill="white" stroke="black" points="625.5,-208.622 625.5,-242.622 756.5,-242.622 756.5,-208.622 625.5,-208.622"/>
<text text-anchor="start" x="633.5" y="-229.622" font-family="Ubuntu-R" font-size="10.00">forcebalance.tinkerio.Ab</text>
<text text-anchor="middle" x="691" y="-216.622" font-family="Ubuntu-R" font-size="10.00">Initio_TINKER.__init__</text>
</a>
</g>
<!-- Node5&#45;&gt;Node6 -->
<g id="edge12" class="edge"><title>Node5&#45;&gt;Node6</title>
<path fill="none" stroke="midnightblue" d="M540.158,-195.046C564.124,-199.903 590.946,-205.34 615.252,-210.267"/>
<polygon fill="midnightblue" stroke="midnightblue" points="614.645,-213.715 625.141,-212.272 616.036,-206.855 614.645,-213.715"/>
</g>
<!-- Node7 -->
<g id="node14" class="node"><title>Node7</title>
<a xlink:href="classforcebalance_1_1tinkerio_1_1AbInitio__TINKER.html#a4f0decc929da6183f1d0d6229fc9733d" target="_top" xlink:title="forcebalance.tinkerio.Ab\lInitio_TINKER.prepare\l_temp_directory">
<polygon fill="white" stroke="black" points="820.5,-157.122 820.5,-204.122 951.5,-204.122 951.5,-157.122 820.5,-157.122"/>
<text text-anchor="start" x="828.5" y="-191.122" font-family="Ubuntu-R" font-size="10.00">forcebalance.tinkerio.Ab</text>
<text text-anchor="start" x="828.5" y="-178.122" font-family="Ubuntu-R" font-size="10.00">Initio_TINKER.prepare</text>
<text text-anchor="middle" x="886" y="-165.122" font-family="Ubuntu-R" font-size="10.00">_temp_directory</text>
</a>
</g>
<!-- Node5&#45;&gt;Node7 -->
<g id="edge18" class="edge"><title>Node5&#45;&gt;Node7</title>
<path fill="none" stroke="midnightblue" d="M540.211,-180.622C615.346,-180.622 733.299,-180.622 810.144,-180.622"/>
<polygon fill="midnightblue" stroke="midnightblue" points="810.238,-184.122 820.238,-180.622 810.238,-177.122 810.238,-184.122"/>
</g>
<!-- Node6&#45;&gt;Node7 -->
<g id="edge14" class="edge"><title>Node6&#45;&gt;Node7</title>
<path fill="none" stroke="midnightblue" d="M756.746,-210.449C773.845,-206.503 792.407,-202.22 809.988,-198.163"/>
<polygon fill="midnightblue" stroke="midnightblue" points="811.251,-201.464 820.208,-195.805 809.677,-194.643 811.251,-201.464"/>
</g>
<!-- Node7&#45;&gt;Node1 -->
<g id="edge16" class="edge"><title>Node7&#45;&gt;Node1</title>
<path fill="none" stroke="midnightblue" d="M874.621,-156.909C858.929,-127.31 827.563,-78.0892 784,-57.6216 539.469,57.2693 434.885,-21.9222 178,-105.622 156.846,-112.514 134.919,-123.432 116.464,-133.877"/>
<polygon fill="midnightblue" stroke="midnightblue" points="114.604,-130.909 107.701,-138.947 118.11,-136.968 114.604,-130.909"/>
</g>
<!-- Node8&#45;&gt;Node8 -->
<g id="edge26" class="edge"><title>Node8&#45;&gt;Node8</title>
<path fill="none" stroke="midnightblue" d="M431.25,-120.909C424.835,-130.178 437.418,-138.622 469,-138.622 488.245,-138.622 500.436,-135.486 505.571,-130.939"/>
<polygon fill="midnightblue" stroke="midnightblue" points="509.059,-131.25 506.75,-120.909 502.107,-130.432 509.059,-131.25"/>
</g>
<!-- Node9 -->
<g id="node20" class="node"><title>Node9</title>
<a xlink:href="namespaceforcebalance_1_1openmmio.html#a9f9fc56475dbfcc94a40fef6a84ed25f" target="_top" xlink:title="forcebalance.openmmio.Update\lSimulationParameters">
<polygon fill="white" stroke="black" points="605.5,-118.622 605.5,-152.622 776.5,-152.622 776.5,-118.622 605.5,-118.622"/>
<text text-anchor="start" x="613.5" y="-139.622" font-family="Ubuntu-R" font-size="10.00">forcebalance.openmmio.Update</text>
<text text-anchor="middle" x="691" y="-126.622" font-family="Ubuntu-R" font-size="10.00">SimulationParameters</text>
</a>
</g>
<!-- Node8&#45;&gt;Node9 -->
<g id="edge22" class="edge"><title>Node8&#45;&gt;Node9</title>
<path fill="none" stroke="midnightblue" d="M562.183,-117.053C573.176,-118.638 584.407,-120.257 595.432,-121.846"/>
<polygon fill="midnightblue" stroke="midnightblue" points="595.089,-125.333 605.486,-123.295 596.088,-118.404 595.089,-125.333"/>
</g>
<!-- Node10 -->
<g id="node22" class="node"><title>Node10</title>
<a xlink:href="classforcebalance_1_1openmmio_1_1Interaction__OpenMM.html#a9813c1a24af88156703d05ebe57bf707" target="_top" xlink:title="forcebalance.openmmio.Interaction\l_OpenMM.interaction_driver_all">
<polygon fill="white" stroke="black" points="598,-66.6216 598,-100.622 784,-100.622 784,-66.6216 598,-66.6216"/>
<text text-anchor="start" x="606" y="-87.6216" font-family="Ubuntu-R" font-size="10.00">forcebalance.openmmio.Interaction</text>
<text text-anchor="middle" x="691" y="-74.6216" font-family="Ubuntu-R" font-size="10.00">_OpenMM.interaction_driver_all</text>
</a>
</g>
<!-- Node8&#45;&gt;Node10 -->
<g id="edge24" class="edge"><title>Node8&#45;&gt;Node10</title>
<path fill="none" stroke="midnightblue" d="M562.183,-95.2268C570.626,-94.4661 579.211,-93.6927 587.734,-92.9249"/>
<polygon fill="midnightblue" stroke="midnightblue" points="588.054,-96.4103 597.7,-92.0271 587.426,-89.4386 588.054,-96.4103"/>
</g>
</g>
</svg>
