<?xml version="1.0" encoding="UTF-8" standalone="no"?>
<!DOCTYPE svg PUBLIC "-//W3C//DTD SVG 1.1//EN"
 "http://www.w3.org/Graphics/SVG/1.1/DTD/svg11.dtd">
<!-- Generated by graphviz version 2.28.0 (20111219.2309)
 -->
<!-- Title: G Pages: 1 -->
<svg width="2744pt" height="360pt"
 viewBox="0.00 0.00 2744.00 360.00" xmlns="http://www.w3.org/2000/svg" xmlns:xlink="http://www.w3.org/1999/xlink">
<g id="graph1" class="graph" transform="scale(1 1) rotate(0) translate(4 356)">
<title>G</title>
<polygon fill="white" stroke="white" points="-4,5 -4,-356 2741,-356 2741,5 -4,5"/>
<!-- Node1 -->
<g id="node1" class="node"><title>Node1</title>
<polygon fill="#bfbfbf" stroke="black" points="0.5,-228.5 0.5,-247.5 167.5,-247.5 167.5,-228.5 0.5,-228.5"/>
<text text-anchor="middle" x="84" y="-235.5" font-family="Ubuntu-R" font-size="10.00">forcebalance.forcefield.FF.make</text>
</g>
<!-- Node2 -->
<g id="node3" class="node"><title>Node2</title>
<a xlink:href="classforcebalance_1_1forcefield_1_1FF.html#a260031479e0429e497f56987de541930" target="_top" xlink:title="Converts mathematical to physical parameters.">
<polygon fill="white" stroke="black" points="690,-152.5 690,-171.5 890,-171.5 890,-152.5 690,-152.5"/>
<text text-anchor="middle" x="790" y="-159.5" font-family="Ubuntu-R" font-size="10.00">forcebalance.forcefield.FF.create_pvals</text>
</a>
</g>
<!-- Node1&#45;&gt;Node2 -->
<g id="edge2" class="edge"><title>Node1&#45;&gt;Node2</title>
<path fill="none" stroke="midnightblue" d="M167.683,-238.453C279.05,-237.74 483.013,-231.769 654,-201 687.958,-194.889 725.599,-183.627 752.49,-174.77"/>
<polygon fill="midnightblue" stroke="midnightblue" points="753.866,-178.001 762.239,-171.509 751.645,-171.362 753.866,-178.001"/>
</g>
<!-- Node8 -->
<g id="node17" class="node"><title>Node8</title>
<a xlink:href="namespaceforcebalance_1_1nifty.html#abb8f59044961a12588e0653c2baa8b01" target="_top" xlink:title="forcebalance.nifty.warn_press_key">
<polygon fill="white" stroke="black" points="1410.5,-304.5 1410.5,-323.5 1589.5,-323.5 1589.5,-304.5 1410.5,-304.5"/>
<text text-anchor="middle" x="1500" y="-311.5" font-family="Ubuntu-R" font-size="10.00">forcebalance.nifty.warn_press_key</text>
</a>
</g>
<!-- Node1&#45;&gt;Node8 -->
<g id="edge70" class="edge"><title>Node1&#45;&gt;Node8</title>
<path fill="none" stroke="midnightblue" d="M107.314,-247.523C173.606,-274.922 375.678,-352 551,-352 551,-352 551,-352 1029,-352 1165.05,-352 1322.54,-335.985 1416.29,-324.748"/>
<polygon fill="midnightblue" stroke="midnightblue" points="1416.77,-328.215 1426.28,-323.54 1415.93,-321.266 1416.77,-328.215"/>
</g>
<!-- Node23 -->
<g id="node53" class="node"><title>Node23</title>
<a xlink:href="classforcebalance_1_1forcefield_1_1FF.html#a0540c3df2c0dece9f2711cc04fd958d4" target="_top" xlink:title="forcebalance.forcefield.FF.make_redirect">
<polygon fill="white" stroke="black" points="204.5,-190.5 204.5,-209.5 413.5,-209.5 413.5,-190.5 204.5,-190.5"/>
<text text-anchor="middle" x="309" y="-197.5" font-family="Ubuntu-R" font-size="10.00">forcebalance.forcefield.FF.make_redirect</text>
</a>
</g>
<!-- Node1&#45;&gt;Node23 -->
<g id="edge60" class="edge"><title>Node1&#45;&gt;Node23</title>
<path fill="none" stroke="midnightblue" d="M140.984,-228.46C171.602,-223.243 209.719,-216.747 241.804,-211.28"/>
<polygon fill="midnightblue" stroke="midnightblue" points="242.723,-214.674 251.992,-209.544 241.547,-207.774 242.723,-214.674"/>
</g>
<!-- Node3 -->
<g id="node5" class="node"><title>Node3</title>
<a xlink:href="namespaceforcebalance_1_1nifty.html#a52114ceee9d55f94d9aecb3e176de294" target="_top" xlink:title="Given any list, array, or matrix, return a single&#45;index array.">
<polygon fill="white" stroke="black" points="969,-114.5 969,-133.5 1087,-133.5 1087,-114.5 969,-114.5"/>
<text text-anchor="middle" x="1028" y="-121.5" font-family="Ubuntu-R" font-size="10.00">forcebalance.nifty.flat</text>
</a>
</g>
<!-- Node2&#45;&gt;Node3 -->
<g id="edge4" class="edge"><title>Node2&#45;&gt;Node3</title>
<path fill="none" stroke="midnightblue" d="M850.248,-152.46C883.304,-147.137 924.619,-140.485 958.991,-134.951"/>
<polygon fill="midnightblue" stroke="midnightblue" points="959.636,-138.392 968.953,-133.347 958.523,-131.481 959.636,-138.392"/>
</g>
<!-- Node4 -->
<g id="node7" class="node"><title>Node4</title>
<a xlink:href="namespaceforcebalance_1_1nifty.html#a4c82187e92dfeb8a159f4aa44b501c40" target="_top" xlink:title="Invert a matrix using singular value decomposition.">
<polygon fill="white" stroke="black" points="1190,-152.5 1190,-171.5 1342,-171.5 1342,-152.5 1190,-152.5"/>
<text text-anchor="middle" x="1266" y="-159.5" font-family="Ubuntu-R" font-size="10.00">forcebalance.nifty.invert_svd</text>
</a>
</g>
<!-- Node2&#45;&gt;Node4 -->
<g id="edge28" class="edge"><title>Node2&#45;&gt;Node4</title>
<path fill="none" stroke="midnightblue" d="M890.077,-162C975.704,-162 1098.17,-162 1179.56,-162"/>
<polygon fill="midnightblue" stroke="midnightblue" points="1179.77,-165.5 1189.77,-162 1179.77,-158.5 1179.77,-165.5"/>
</g>
<!-- Node7 -->
<g id="node14" class="node"><title>Node7</title>
<a xlink:href="namespaceforcebalance_1_1nifty.html#afb3f205bce4984856e766af7e9fdaca8" target="_top" xlink:title="Given any list, array, or matrix, return a 1&#45;column matrix.">
<polygon fill="white" stroke="black" points="2064,-114.5 2064,-133.5 2180,-133.5 2180,-114.5 2064,-114.5"/>
<text text-anchor="middle" x="2122" y="-121.5" font-family="Ubuntu-R" font-size="10.00">forcebalance.nifty.col</text>
</a>
</g>
<!-- Node2&#45;&gt;Node7 -->
<g id="edge20" class="edge"><title>Node2&#45;&gt;Node7</title>
<path fill="none" stroke="midnightblue" d="M809.715,-152.443C835.32,-139.757 883.006,-117.505 926,-105 1072.7,-62.3304 1112.22,-48 1265,-48 1265,-48 1265,-48 1736,-48 1863.47,-48 1896.22,-57.5568 2020,-88 2043.51,-93.781 2069.19,-102.977 2088.78,-110.628"/>
<polygon fill="midnightblue" stroke="midnightblue" points="2087.56,-113.909 2098.14,-114.349 2090.14,-107.404 2087.56,-113.909"/>
</g>
<!-- Node9 -->
<g id="node20" class="node"><title>Node9</title>
<a xlink:href="classforcebalance_1_1forcefield_1_1FF.html#ae5fba4d3e22f210632ead3653e6e12dd" target="_top" xlink:title="Converts physical to mathematical parameters.">
<polygon fill="white" stroke="black" points="926,-0.5 926,-19.5 1130,-19.5 1130,-0.5 926,-0.5"/>
<text text-anchor="middle" x="1028" y="-7.5" font-family="Ubuntu-R" font-size="10.00">forcebalance.forcefield.FF.create_mvals</text>
</a>
</g>
<!-- Node2&#45;&gt;Node9 -->
<g id="edge22" class="edge"><title>Node2&#45;&gt;Node9</title>
<path fill="none" stroke="midnightblue" d="M798.275,-152.183C816.733,-128.021 868.054,-65.359 926,-34 934.797,-29.2392 944.527,-25.4146 954.372,-22.3441"/>
<polygon fill="midnightblue" stroke="midnightblue" points="955.577,-25.6396 964.224,-19.5182 953.647,-18.9109 955.577,-25.6396"/>
</g>
<!-- Node12 -->
<g id="node27" class="node"><title>Node12</title>
<a xlink:href="classforcebalance_1_1forcefield_1_1FF.html#a88715f96ff8e14c3c83b4f976ad147b4" target="_top" xlink:title="Create the rescaling factors for the coordinate transformation in parameter space.">
<polygon fill="white" stroke="black" points="940,-209.5 940,-228.5 1116,-228.5 1116,-209.5 940,-209.5"/>
<text text-anchor="middle" x="1028" y="-216.5" font-family="Ubuntu-R" font-size="10.00">forcebalance.forcefield.FF.rsmake</text>
</a>
</g>
<!-- Node2&#45;&gt;Node12 -->
<g id="edge30" class="edge"><title>Node2&#45;&gt;Node12</title>
<path fill="none" stroke="midnightblue" d="M830.501,-171.541C870.917,-181.302 933.819,-196.494 977.525,-207.051"/>
<polygon fill="midnightblue" stroke="midnightblue" points="976.828,-210.483 987.37,-209.428 978.471,-203.678 976.828,-210.483"/>
</g>
<!-- Node3&#45;&gt;Node4 -->
<g id="edge6" class="edge"><title>Node3&#45;&gt;Node4</title>
<path fill="none" stroke="midnightblue" d="M1087.03,-133.345C1119.95,-138.645 1161.35,-145.31 1195.93,-150.879"/>
<polygon fill="midnightblue" stroke="midnightblue" points="1195.53,-154.359 1205.96,-152.493 1196.64,-147.448 1195.53,-154.359"/>
</g>
<!-- Node5 -->
<g id="node9" class="node"><title>Node5</title>
<a xlink:href="namespaceforcebalance_1_1nifty.html#aa9fb9c7c65231eca50a7afc04f489b64" target="_top" xlink:title="forcebalance.nifty.get_least_squares">
<polygon fill="white" stroke="black" points="1404.5,-114.5 1404.5,-133.5 1595.5,-133.5 1595.5,-114.5 1404.5,-114.5"/>
<text text-anchor="middle" x="1500" y="-121.5" font-family="Ubuntu-R" font-size="10.00">forcebalance.nifty.get_least_squares</text>
</a>
</g>
<!-- Node4&#45;&gt;Node5 -->
<g id="edge8" class="edge"><title>Node4&#45;&gt;Node5</title>
<path fill="none" stroke="midnightblue" d="M1325.24,-152.46C1357.24,-147.22 1397.1,-140.691 1430.57,-135.209"/>
<polygon fill="midnightblue" stroke="midnightblue" points="1431.43,-138.614 1440.73,-133.544 1430.3,-131.706 1431.43,-138.614"/>
</g>
<!-- Node4&#45;&gt;Node7 -->
<g id="edge14" class="edge"><title>Node4&#45;&gt;Node7</title>
<path fill="none" stroke="midnightblue" d="M1342.05,-160.287C1450.93,-157.622 1659.05,-151.85 1836,-143 1910.64,-139.267 1996.17,-133.345 2053.9,-129.104"/>
<polygon fill="midnightblue" stroke="midnightblue" points="2054.27,-132.586 2063.99,-128.36 2053.75,-125.605 2054.27,-132.586"/>
</g>
<!-- Node4&#45;&gt;Node8 -->
<g id="edge18" class="edge"><title>Node4&#45;&gt;Node8</title>
<path fill="none" stroke="midnightblue" d="M1342.45,-167.441C1351.08,-170.573 1359.2,-174.95 1366,-181 1405.69,-216.324 1362.38,-259.6 1402,-295 1403.72,-296.533 1405.52,-297.957 1407.39,-299.28"/>
<polygon fill="midnightblue" stroke="midnightblue" points="1405.66,-302.32 1416.03,-304.454 1409.25,-296.314 1405.66,-302.32"/>
</g>
<!-- Node5&#45;&gt;Node3 -->
<g id="edge10" class="edge"><title>Node5&#45;&gt;Node3</title>
<path fill="none" stroke="midnightblue" d="M1404.49,-124C1313.49,-124 1178.1,-124 1097.18,-124"/>
<polygon fill="midnightblue" stroke="midnightblue" points="1097.1,-120.5 1087.1,-124 1097.1,-127.5 1097.1,-120.5"/>
</g>
<!-- Node6 -->
<g id="node12" class="node"><title>Node6</title>
<a xlink:href="namespaceforcebalance_1_1nifty.html#ad5ca60565c864b4245a8212fe9d92e10" target="_top" xlink:title="Compute the (cross) statistical inefficiency of (two) timeseries.">
<polygon fill="white" stroke="black" points="1634.5,-114.5 1634.5,-133.5 1835.5,-133.5 1835.5,-114.5 1634.5,-114.5"/>
<text text-anchor="middle" x="1735" y="-121.5" font-family="Ubuntu-R" font-size="10.00">forcebalance.nifty.statisticalInefficiency</text>
</a>
</g>
<!-- Node5&#45;&gt;Node6 -->
<g id="edge12" class="edge"><title>Node5&#45;&gt;Node6</title>
<path fill="none" stroke="midnightblue" d="M1595.77,-124C1605.11,-124 1614.65,-124 1624.13,-124"/>
<polygon fill="midnightblue" stroke="midnightblue" points="1624.38,-127.5 1634.38,-124 1624.38,-120.5 1624.38,-127.5"/>
</g>
<!-- Node7&#45;&gt;Node3 -->
<g id="edge16" class="edge"><title>Node7&#45;&gt;Node3</title>
<path fill="none" stroke="midnightblue" d="M2063.77,-114.801C1988.73,-103.555 1852.87,-86 1736,-86 1499,-86 1499,-86 1499,-86 1355.59,-86 1188.36,-103.795 1097.07,-115.03"/>
<polygon fill="midnightblue" stroke="midnightblue" points="1096.62,-111.559 1087.13,-116.264 1097.48,-118.505 1096.62,-111.559"/>
</g>
<!-- Node10 -->
<g id="node22" class="node"><title>Node10</title>
<a xlink:href="namespaceforcebalance_1_1molecule.html#a0dd31eff88d2bed0884ab21a13261d42" target="_top" xlink:title="ONLY matches integers! If you have a decimal point? None shall pass!">
<polygon fill="white" stroke="black" points="1192.5,-0.5 1192.5,-19.5 1339.5,-19.5 1339.5,-0.5 1192.5,-0.5"/>
<text text-anchor="middle" x="1266" y="-7.5" font-family="Ubuntu-R" font-size="10.00">forcebalance.molecule.isint</text>
</a>
</g>
<!-- Node9&#45;&gt;Node10 -->
<g id="edge24" class="edge"><title>Node9&#45;&gt;Node10</title>
<path fill="none" stroke="midnightblue" d="M1130.11,-10C1147.41,-10 1165.21,-10 1181.97,-10"/>
<polygon fill="midnightblue" stroke="midnightblue" points="1182.26,-13.5001 1192.26,-10 1182.26,-6.5001 1182.26,-13.5001"/>
</g>
<!-- Node11 -->
<g id="node24" class="node"><title>Node11</title>
<a xlink:href="namespaceforcebalance_1_1molecule.html#afe989ffd119568047fc8265b1d329a70" target="_top" xlink:title="Matches ANY number; it can be a decimal, scientific notation, integer, or what have you...">
<polygon fill="white" stroke="black" points="1422,-0.5 1422,-19.5 1578,-19.5 1578,-0.5 1422,-0.5"/>
<text text-anchor="middle" x="1500" y="-7.5" font-family="Ubuntu-R" font-size="10.00">forcebalance.molecule.isfloat</text>
</a>
</g>
<!-- Node10&#45;&gt;Node11 -->
<g id="edge26" class="edge"><title>Node10&#45;&gt;Node11</title>
<path fill="none" stroke="midnightblue" d="M1339.77,-10C1362.56,-10 1387.95,-10 1411.64,-10"/>
<polygon fill="midnightblue" stroke="midnightblue" points="1411.67,-13.5001 1421.67,-10 1411.67,-6.5001 1411.67,-13.5001"/>
</g>
<!-- Node13 -->
<g id="node29" class="node"><title>Node13</title>
<a xlink:href="namespaceforcebalance_1_1forcefield.html#ab1a855bace20dd5e45928467e2a133f1" target="_top" xlink:title="This function takes in a dictionary (rsfactors) and a string (termtype).">
<polygon fill="white" stroke="black" points="1175.5,-228.5 1175.5,-247.5 1356.5,-247.5 1356.5,-228.5 1175.5,-228.5"/>
<text text-anchor="middle" x="1266" y="-235.5" font-family="Ubuntu-R" font-size="10.00">forcebalance.forcefield.rs_override</text>
</a>
</g>
<!-- Node12&#45;&gt;Node13 -->
<g id="edge32" class="edge"><title>Node12&#45;&gt;Node13</title>
<path fill="none" stroke="midnightblue" d="M1116.21,-226.021C1132.19,-227.308 1148.99,-228.66 1165.3,-229.973"/>
<polygon fill="midnightblue" stroke="midnightblue" points="1165.14,-233.472 1175.39,-230.785 1165.7,-226.494 1165.14,-233.472"/>
</g>
<!-- Node14 -->
<g id="node31" class="node"><title>Node14</title>
<a xlink:href="namespaceforcebalance_1_1nifty.html#a11babd62dc7bca389162c6318f9672ca" target="_top" xlink:title="Cool&#45;looking printout for slick formatting of output.">
<polygon fill="white" stroke="black" points="1194,-266.5 1194,-285.5 1338,-285.5 1338,-266.5 1194,-266.5"/>
<text text-anchor="middle" x="1266" y="-273.5" font-family="Ubuntu-R" font-size="10.00">forcebalance.nifty.printcool</text>
</a>
</g>
<!-- Node12&#45;&gt;Node14 -->
<g id="edge34" class="edge"><title>Node12&#45;&gt;Node14</title>
<path fill="none" stroke="midnightblue" d="M1060.65,-228.563C1088.3,-236.729 1129.59,-248.472 1166,-257 1177.27,-259.639 1189.32,-262.183 1201,-264.504"/>
<polygon fill="midnightblue" stroke="midnightblue" points="1200.65,-268.003 1211.14,-266.484 1202,-261.132 1200.65,-268.003"/>
</g>
<!-- Node22 -->
<g id="node51" class="node"><title>Node22</title>
<a xlink:href="classforcebalance_1_1forcefield_1_1FF.html#acf0ce8fc4e9fbf5257f93d14d4a4f10f" target="_top" xlink:title="Create the transformation matrix to rescale and rotate the mathematical parameters.">
<polygon fill="white" stroke="black" points="1166.5,-190.5 1166.5,-209.5 1365.5,-209.5 1365.5,-190.5 1166.5,-190.5"/>
<text text-anchor="middle" x="1266" y="-197.5" font-family="Ubuntu-R" font-size="10.00">forcebalance.forcefield.FF.mktransmat</text>
</a>
</g>
<!-- Node12&#45;&gt;Node22 -->
<g id="edge58" class="edge"><title>Node12&#45;&gt;Node22</title>
<path fill="none" stroke="midnightblue" d="M1116.21,-211.979C1129.18,-210.935 1142.69,-209.847 1156.04,-208.772"/>
<polygon fill="midnightblue" stroke="midnightblue" points="1156.53,-212.244 1166.21,-207.953 1155.96,-205.267 1156.53,-212.244"/>
</g>
<!-- Node14&#45;&gt;Node8 -->
<g id="edge36" class="edge"><title>Node14&#45;&gt;Node8</title>
<path fill="none" stroke="midnightblue" d="M1325.24,-285.54C1357.24,-290.78 1397.1,-297.309 1430.57,-302.791"/>
<polygon fill="midnightblue" stroke="midnightblue" points="1430.3,-306.294 1440.73,-304.456 1431.43,-299.386 1430.3,-306.294"/>
</g>
<!-- Node15 -->
<g id="node34" class="node"><title>Node15</title>
<a xlink:href="namespaceforcebalance_1_1nifty.html#a51180e960742cc7547749fdfb3513ec4" target="_top" xlink:title="See documentation for printcool; this is a nice way to print out keys/values in a dictionary...">
<polygon fill="white" stroke="black" points="1402,-266.5 1402,-285.5 1598,-285.5 1598,-266.5 1402,-266.5"/>
<text text-anchor="middle" x="1500" y="-273.5" font-family="Ubuntu-R" font-size="10.00">forcebalance.nifty.printcool_dictionary</text>
</a>
</g>
<!-- Node14&#45;&gt;Node15 -->
<g id="edge38" class="edge"><title>Node14&#45;&gt;Node15</title>
<path fill="none" stroke="midnightblue" d="M1338.18,-276C1355.15,-276 1373.64,-276 1391.83,-276"/>
<polygon fill="midnightblue" stroke="midnightblue" points="1391.89,-279.5 1401.89,-276 1391.89,-272.5 1391.89,-279.5"/>
</g>
<!-- Node16 -->
<g id="node36" class="node"><title>Node16</title>
<a xlink:href="namespaceforcebalance_1_1nifty.html#a3f1c7a1af9d35d5d1693074bc6f5497c" target="_top" xlink:title="ONLY matches integers! If you have a decimal point? None shall pass!">
<polygon fill="white" stroke="black" points="1674,-228.5 1674,-247.5 1796,-247.5 1796,-228.5 1674,-228.5"/>
<text text-anchor="middle" x="1735" y="-235.5" font-family="Ubuntu-R" font-size="10.00">forcebalance.nifty.isint</text>
</a>
</g>
<!-- Node15&#45;&gt;Node16 -->
<g id="edge40" class="edge"><title>Node15&#45;&gt;Node16</title>
<path fill="none" stroke="midnightblue" d="M1559.49,-266.46C1591.62,-261.22 1631.66,-254.691 1665.27,-249.209"/>
<polygon fill="midnightblue" stroke="midnightblue" points="1666.17,-252.608 1675.48,-247.544 1665.05,-245.699 1666.17,-252.608"/>
</g>
<!-- Node18 -->
<g id="node40" class="node"><title>Node18</title>
<a xlink:href="namespaceforcebalance_1_1nifty.html#a8e3ef0108b9d37b82ba0dced7c6037ae" target="_top" xlink:title="Matches ANY number; it can be a decimal, scientific notation, what have you CAUTION &#45; this will also ...">
<polygon fill="white" stroke="black" points="2056.5,-228.5 2056.5,-247.5 2187.5,-247.5 2187.5,-228.5 2056.5,-228.5"/>
<text text-anchor="middle" x="2122" y="-235.5" font-family="Ubuntu-R" font-size="10.00">forcebalance.nifty.isfloat</text>
</a>
</g>
<!-- Node15&#45;&gt;Node18 -->
<g id="edge56" class="edge"><title>Node15&#45;&gt;Node18</title>
<path fill="none" stroke="midnightblue" d="M1598.27,-274.157C1702.7,-271.559 1873.37,-265.524 2020,-252 2029.35,-251.137 2039.17,-250.031 2048.85,-248.818"/>
<polygon fill="midnightblue" stroke="midnightblue" points="2049.41,-252.276 2058.87,-247.522 2048.51,-245.334 2049.41,-252.276"/>
</g>
<!-- Node17 -->
<g id="node38" class="node"><title>Node17</title>
<a xlink:href="namespaceforcebalance_1_1nifty.html#a09263927eaec9deff283fbf1a820242f" target="_top" xlink:title="Matches things with a decimal only; see isint and isfloat.">
<polygon fill="white" stroke="black" points="1872,-190.5 1872,-209.5 2020,-209.5 2020,-190.5 1872,-190.5"/>
<text text-anchor="middle" x="1946" y="-197.5" font-family="Ubuntu-R" font-size="10.00">forcebalance.nifty.isdecimal</text>
</a>
</g>
<!-- Node16&#45;&gt;Node17 -->
<g id="edge42" class="edge"><title>Node16&#45;&gt;Node17</title>
<path fill="none" stroke="midnightblue" d="M1788.47,-228.46C1817.04,-223.265 1852.58,-216.804 1882.57,-211.351"/>
<polygon fill="midnightblue" stroke="midnightblue" points="1883.3,-214.776 1892.51,-209.544 1882.04,-207.889 1883.3,-214.776"/>
</g>
<!-- Node17&#45;&gt;Node7 -->
<g id="edge54" class="edge"><title>Node17&#45;&gt;Node7</title>
<path fill="none" stroke="midnightblue" d="M1979.75,-190.448C1992.48,-186.42 2007.08,-181.41 2020,-176 2046.38,-164.952 2075.29,-149.733 2095.39,-138.614"/>
<polygon fill="midnightblue" stroke="midnightblue" points="2097.21,-141.606 2104.24,-133.673 2093.8,-135.495 2097.21,-141.606"/>
</g>
<!-- Node17&#45;&gt;Node18 -->
<g id="edge44" class="edge"><title>Node17&#45;&gt;Node18</title>
<path fill="none" stroke="midnightblue" d="M1990.91,-209.589C2014.18,-214.671 2042.95,-220.955 2067.52,-226.32"/>
<polygon fill="midnightblue" stroke="midnightblue" points="2066.89,-229.766 2077.41,-228.48 2068.39,-222.927 2066.89,-229.766"/>
</g>
<!-- Node18&#45;&gt;Node16 -->
<g id="edge46" class="edge"><title>Node18&#45;&gt;Node16</title>
<path fill="none" stroke="midnightblue" d="M2056.45,-238C1987.26,-238 1877.77,-238 1806.4,-238"/>
<polygon fill="midnightblue" stroke="midnightblue" points="1806.16,-234.5 1796.16,-238 1806.16,-241.5 1806.16,-234.5"/>
</g>
<!-- Node19 -->
<g id="node43" class="node"><title>Node19</title>
<a xlink:href="namespaceforcebalance_1_1nifty.html#a8d63c8ae9a67c66673a6cf81357f827d" target="_top" xlink:title="Returns a big number if we encounter NaN.">
<polygon fill="white" stroke="black" points="2224,-228.5 2224,-247.5 2376,-247.5 2376,-228.5 2224,-228.5"/>
<text text-anchor="middle" x="2300" y="-235.5" font-family="Ubuntu-R" font-size="10.00">forcebalance.nifty.floatornan</text>
</a>
</g>
<!-- Node18&#45;&gt;Node19 -->
<g id="edge48" class="edge"><title>Node18&#45;&gt;Node19</title>
<path fill="none" stroke="midnightblue" d="M2187.54,-238C2196,-238 2204.77,-238 2213.51,-238"/>
<polygon fill="midnightblue" stroke="midnightblue" points="2213.74,-241.5 2223.74,-238 2213.74,-234.5 2213.74,-241.5"/>
</g>
<!-- Node20 -->
<g id="node45" class="node"><title>Node20</title>
<a xlink:href="namespaceforcebalance_1_1nifty.html#a6c9727360cdff8f3011a12cc54d0e86e" target="_top" xlink:title="Given any list, array, or matrix, return a 1&#45;row matrix.">
<polygon fill="white" stroke="black" points="2412.5,-228.5 2412.5,-247.5 2531.5,-247.5 2531.5,-228.5 2412.5,-228.5"/>
<text text-anchor="middle" x="2472" y="-235.5" font-family="Ubuntu-R" font-size="10.00">forcebalance.nifty.row</text>
</a>
</g>
<!-- Node19&#45;&gt;Node20 -->
<g id="edge50" class="edge"><title>Node19&#45;&gt;Node20</title>
<path fill="none" stroke="midnightblue" d="M2376.06,-238C2384.82,-238 2393.72,-238 2402.38,-238"/>
<polygon fill="midnightblue" stroke="midnightblue" points="2402.43,-241.5 2412.42,-238 2402.42,-234.5 2402.43,-241.5"/>
</g>
<!-- Node21 -->
<g id="node47" class="node"><title>Node21</title>
<a xlink:href="namespaceforcebalance_1_1nifty.html#a7676236002c6a65ea7d2e69a09923889" target="_top" xlink:title="Given two vectors vec1 and vec2, project out the component of vec1 that is along the vec2&#45;direction...">
<polygon fill="white" stroke="black" points="2568,-228.5 2568,-247.5 2736,-247.5 2736,-228.5 2568,-228.5"/>
<text text-anchor="middle" x="2652" y="-235.5" font-family="Ubuntu-R" font-size="10.00">forcebalance.nifty.orthogonalize</text>
</a>
</g>
<!-- Node20&#45;&gt;Node21 -->
<g id="edge52" class="edge"><title>Node20&#45;&gt;Node21</title>
<path fill="none" stroke="midnightblue" d="M2531.78,-238C2540.07,-238 2548.77,-238 2557.52,-238"/>
<polygon fill="midnightblue" stroke="midnightblue" points="2557.8,-241.5 2567.8,-238 2557.8,-234.5 2557.8,-241.5"/>
</g>
<!-- Node23&#45;&gt;Node2 -->
<g id="edge62" class="edge"><title>Node23&#45;&gt;Node2</title>
<path fill="none" stroke="midnightblue" d="M413.664,-196.562C482.029,-193.732 573.487,-188.875 654,-181 675.256,-178.921 698.3,-175.947 719.23,-172.967"/>
<polygon fill="midnightblue" stroke="midnightblue" points="719.922,-176.404 729.318,-171.508 718.92,-169.476 719.922,-176.404"/>
</g>
<!-- Node23&#45;&gt;Node8 -->
<g id="edge68" class="edge"><title>Node23&#45;&gt;Node8</title>
<path fill="none" stroke="midnightblue" d="M332.963,-209.523C401.175,-236.922 609.059,-314 789,-314 789,-314 789,-314 1029,-314 1157.13,-314 1304.91,-314 1400.02,-314"/>
<polygon fill="midnightblue" stroke="midnightblue" points="1400.21,-317.5 1410.21,-314 1400.21,-310.5 1400.21,-317.5"/>
</g>
<!-- Node24 -->
<g id="node56" class="node"><title>Node24</title>
<a xlink:href="classforcebalance_1_1forcefield_1_1FF.html#a2515e2361eb460edeab69f3d7742d3d9" target="_top" xlink:title="forcebalance.forcefield.FF.find_spacings">
<polygon fill="white" stroke="black" points="450,-152.5 450,-171.5 654,-171.5 654,-152.5 450,-152.5"/>
<text text-anchor="middle" x="552" y="-159.5" font-family="Ubuntu-R" font-size="10.00">forcebalance.forcefield.FF.find_spacings</text>
</a>
</g>
<!-- Node23&#45;&gt;Node24 -->
<g id="edge64" class="edge"><title>Node23&#45;&gt;Node24</title>
<path fill="none" stroke="midnightblue" d="M370.503,-190.46C403.879,-185.197 445.5,-178.635 480.36,-173.138"/>
<polygon fill="midnightblue" stroke="midnightblue" points="481.139,-176.559 490.472,-171.544 480.049,-169.644 481.139,-176.559"/>
</g>
<!-- Node24&#45;&gt;Node2 -->
<g id="edge66" class="edge"><title>Node24&#45;&gt;Node2</title>
<path fill="none" stroke="midnightblue" d="M654.112,-162C662.655,-162 671.318,-162 679.917,-162"/>
<polygon fill="midnightblue" stroke="midnightblue" points="679.972,-165.5 689.972,-162 679.972,-158.5 679.972,-165.5"/>
</g>
</g>
</svg>
