<?xml version="1.0" encoding="UTF-8" standalone="no"?>
<!DOCTYPE svg PUBLIC "-//W3C//DTD SVG 1.1//EN"
 "http://www.w3.org/Graphics/SVG/1.1/DTD/svg11.dtd">
<!-- Generated by graphviz version 2.28.0 (20111219.2309)
 -->
<!-- Title: G Pages: 1 -->
<svg width="1892pt" height="129pt"
 viewBox="0.00 0.00 1892.00 129.11" xmlns="http://www.w3.org/2000/svg" xmlns:xlink="http://www.w3.org/1999/xlink">
<g id="graph1" class="graph" transform="scale(1 1) rotate(0) translate(4 125.112)">
<title>G</title>
<polygon fill="white" stroke="white" points="-4,5 -4,-125.112 1889,-125.112 1889,5 -4,5"/>
<!-- Node1 -->
<g id="node1" class="node"><title>Node1</title>
<polygon fill="#bfbfbf" stroke="black" points="0,-44.6123 0,-63.6123 294,-63.6123 294,-44.6123 0,-44.6123"/>
<text text-anchor="middle" x="147" y="-51.6123" font-family="Ubuntu-R" font-size="10.00">forcebalance.gmxio.AbInitio_GMX.prepare_temp_directory</text>
</g>
<!-- Node2 -->
<g id="node3" class="node"><title>Node2</title>
<a xlink:href="namespaceforcebalance_1_1nifty.html#abb8f59044961a12588e0653c2baa8b01" target="_top" xlink:title="forcebalance.nifty.warn_press_key">
<polygon fill="white" stroke="black" points="377.5,-101.612 377.5,-120.612 556.5,-120.612 556.5,-101.612 377.5,-101.612"/>
<text text-anchor="middle" x="467" y="-108.612" font-family="Ubuntu-R" font-size="10.00">forcebalance.nifty.warn_press_key</text>
</a>
</g>
<!-- Node1&#45;&gt;Node2 -->
<g id="edge2" class="edge"><title>Node1&#45;&gt;Node2</title>
<path fill="none" stroke="midnightblue" d="M189.774,-63.6658C226.564,-71.8804 281.663,-83.6994 330,-92.1123 346.591,-94.9999 364.38,-97.7405 381.444,-100.195"/>
<polygon fill="midnightblue" stroke="midnightblue" points="380.999,-103.667 391.392,-101.607 381.983,-96.7367 380.999,-103.667"/>
</g>
<!-- Node3 -->
<g id="node5" class="node"><title>Node3</title>
<a xlink:href="namespaceforcebalance_1_1nifty.html#ab182a9da2a2f42cf45942fbee6acf9b1" target="_top" xlink:title="forcebalance.nifty.LinkFile">
<polygon fill="white" stroke="black" points="398.5,-63.6123 398.5,-82.6123 535.5,-82.6123 535.5,-63.6123 398.5,-63.6123"/>
<text text-anchor="middle" x="467" y="-70.6123" font-family="Ubuntu-R" font-size="10.00">forcebalance.nifty.LinkFile</text>
</a>
</g>
<!-- Node1&#45;&gt;Node3 -->
<g id="edge4" class="edge"><title>Node1&#45;&gt;Node3</title>
<path fill="none" stroke="midnightblue" d="M294.435,-62.8615C326.809,-64.7959 359.883,-66.772 388.242,-68.4664"/>
<polygon fill="midnightblue" stroke="midnightblue" points="388.276,-71.9746 398.467,-69.0773 388.694,-64.987 388.276,-71.9746"/>
</g>
<!-- Node5 -->
<g id="node9" class="node"><title>Node5</title>
<a xlink:href="classforcebalance_1_1gmxio_1_1AbInitio__GMX.html#a4bc31d1c02d47749d26b14779f025ebd" target="_top" xlink:title="Computes the energy and force using GROMACS for a single snapshot.">
<polygon fill="white" stroke="black" points="330.5,-25.6123 330.5,-44.6123 603.5,-44.6123 603.5,-25.6123 330.5,-25.6123"/>
<text text-anchor="middle" x="467" y="-32.6123" font-family="Ubuntu-R" font-size="10.00">forcebalance.gmxio.AbInitio_GMX.energy_force_driver</text>
</a>
</g>
<!-- Node1&#45;&gt;Node5 -->
<g id="edge8" class="edge"><title>Node1&#45;&gt;Node5</title>
<path fill="none" stroke="midnightblue" d="M294.435,-45.3631C302.987,-44.8521 311.589,-44.3381 320.139,-43.8273"/>
<polygon fill="midnightblue" stroke="midnightblue" points="320.374,-47.3196 330.148,-43.2293 319.957,-40.332 320.374,-47.3196"/>
</g>
<!-- Node11 -->
<g id="node21" class="node"><title>Node11</title>
<a xlink:href="namespaceforcebalance_1_1gmxio.html#acac8488f29b62fb0d4cb54bb5a041026" target="_top" xlink:title="forcebalance.gmxio.rm_gmx_baks">
<polygon fill="white" stroke="black" points="1024.5,-6.61231 1024.5,-25.6123 1205.5,-25.6123 1205.5,-6.61231 1024.5,-6.61231"/>
<text text-anchor="middle" x="1115" y="-13.6123" font-family="Ubuntu-R" font-size="10.00">forcebalance.gmxio.rm_gmx_baks</text>
</a>
</g>
<!-- Node1&#45;&gt;Node11 -->
<g id="edge24" class="edge"><title>Node1&#45;&gt;Node11</title>
<path fill="none" stroke="midnightblue" d="M182.893,-44.5903C219.284,-35.1896 278.146,-21.4679 330,-16.1123 574.847,9.17601 865.006,-1.26426 1014.27,-9.57378"/>
<polygon fill="midnightblue" stroke="midnightblue" points="1014.15,-13.0726 1024.33,-10.1427 1014.55,-6.08376 1014.15,-13.0726"/>
</g>
<!-- Node4 -->
<g id="node7" class="node"><title>Node4</title>
<a xlink:href="namespaceforcebalance_1_1nifty.html#a25efa4d501ad852a234721af18978f7e" target="_top" xlink:title="Remove the file if it exists (doesn&#39;t return an error).">
<polygon fill="white" stroke="black" points="693.5,-82.6123 693.5,-101.612 876.5,-101.612 876.5,-82.6123 693.5,-82.6123"/>
<text text-anchor="middle" x="785" y="-89.6123" font-family="Ubuntu-R" font-size="10.00">forcebalance.nifty.remove_if_exists</text>
</a>
</g>
<!-- Node3&#45;&gt;Node4 -->
<g id="edge6" class="edge"><title>Node3&#45;&gt;Node4</title>
<path fill="none" stroke="midnightblue" d="M535.79,-77.1883C578.709,-79.7689 634.984,-83.1525 683.098,-86.0454"/>
<polygon fill="midnightblue" stroke="midnightblue" points="683.041,-89.5482 693.233,-86.6548 683.461,-82.5608 683.041,-89.5482"/>
</g>
<!-- Node6 -->
<g id="node11" class="node"><title>Node6</title>
<a xlink:href="classforcebalance_1_1gmxio_1_1AbInitio__GMX.html#a6e43c323b2286c546ff8afd3377f8808" target="_top" xlink:title="Computes the energy and force using GROMACS for a trajectory.">
<polygon fill="white" stroke="black" points="640.5,-44.6123 640.5,-63.6123 929.5,-63.6123 929.5,-44.6123 640.5,-44.6123"/>
<text text-anchor="middle" x="785" y="-51.6123" font-family="Ubuntu-R" font-size="10.00">forcebalance.gmxio.AbInitio_GMX.energy_force_driver_all</text>
</a>
</g>
<!-- Node5&#45;&gt;Node6 -->
<g id="edge10" class="edge"><title>Node5&#45;&gt;Node6</title>
<path fill="none" stroke="midnightblue" d="M603.846,-43.2803C612.658,-43.8101 621.563,-44.3455 630.45,-44.8799"/>
<polygon fill="midnightblue" stroke="midnightblue" points="630.277,-48.3757 640.469,-45.4823 630.697,-41.3883 630.277,-48.3757"/>
</g>
<!-- Node5&#45;&gt;Node11 -->
<g id="edge22" class="edge"><title>Node5&#45;&gt;Node11</title>
<path fill="none" stroke="midnightblue" d="M603.817,-31.1177C726.551,-27.5079 904.344,-22.2787 1014.37,-19.0426"/>
<polygon fill="midnightblue" stroke="midnightblue" points="1014.58,-22.538 1024.47,-18.7454 1014.38,-15.541 1014.58,-22.538"/>
</g>
<!-- Node7 -->
<g id="node13" class="node"><title>Node7</title>
<a xlink:href="classforcebalance_1_1gmxio_1_1AbInitio__GMX.html#ae17e3c379d82935d725dd31f01df23e5" target="_top" xlink:title="Call mdrun in order to update the virtual site positions.">
<polygon fill="white" stroke="black" points="966,-44.6123 966,-63.6123 1264,-63.6123 1264,-44.6123 966,-44.6123"/>
<text text-anchor="middle" x="1115" y="-51.6123" font-family="Ubuntu-R" font-size="10.00">forcebalance.gmxio.AbInitio_GMX.generate_vsite_positions</text>
</a>
</g>
<!-- Node6&#45;&gt;Node7 -->
<g id="edge12" class="edge"><title>Node6&#45;&gt;Node7</title>
<path fill="none" stroke="midnightblue" d="M929.866,-54.1123C938.464,-54.1123 947.137,-54.1123 955.789,-54.1123"/>
<polygon fill="midnightblue" stroke="midnightblue" points="955.93,-57.6124 965.93,-54.1123 955.93,-50.6124 955.93,-57.6124"/>
</g>
<!-- Node6&#45;&gt;Node11 -->
<g id="edge20" class="edge"><title>Node6&#45;&gt;Node11</title>
<path fill="none" stroke="midnightblue" d="M868.345,-44.5724C915.028,-39.164 973.561,-32.3827 1021.78,-26.7962"/>
<polygon fill="midnightblue" stroke="midnightblue" points="1022.38,-30.2509 1031.91,-25.6232 1021.57,-23.2974 1022.38,-30.2509"/>
</g>
<!-- Node8 -->
<g id="node15" class="node"><title>Node8</title>
<a xlink:href="classforcebalance_1_1gmxio_1_1AbInitio__GMX.html#a1d03ae8104bcecacf96884058f2698af" target="_top" xlink:title="Initialization; define a few core concepts.">
<polygon fill="white" stroke="black" points="1343,-63.6123 1343,-82.6123 1557,-82.6123 1557,-63.6123 1343,-63.6123"/>
<text text-anchor="middle" x="1450" y="-70.6123" font-family="Ubuntu-R" font-size="10.00">forcebalance.gmxio.AbInitio_GMX.__init__</text>
</a>
</g>
<!-- Node7&#45;&gt;Node8 -->
<g id="edge14" class="edge"><title>Node7&#45;&gt;Node8</title>
<path fill="none" stroke="midnightblue" d="M1264.48,-62.5843C1287.34,-63.8887 1310.66,-65.2193 1332.69,-66.4761"/>
<polygon fill="midnightblue" stroke="midnightblue" points="1332.53,-69.9725 1342.71,-67.0479 1332.93,-62.9839 1332.53,-69.9725"/>
</g>
<!-- Node10 -->
<g id="node19" class="node"><title>Node10</title>
<a xlink:href="classforcebalance_1_1baseclass_1_1ForceBalanceBaseClass.html#abaaf4d99b043d41f02fabc41db59252b" target="_top" xlink:title="forcebalance.baseclass.ForceBalanceBaseClass.set_option">
<polygon fill="white" stroke="black" points="1300.5,-25.6123 1300.5,-44.6123 1599.5,-44.6123 1599.5,-25.6123 1300.5,-25.6123"/>
<text text-anchor="middle" x="1450" y="-32.6123" font-family="Ubuntu-R" font-size="10.00">forcebalance.baseclass.ForceBalanceBaseClass.set_option</text>
</a>
</g>
<!-- Node7&#45;&gt;Node10 -->
<g id="edge18" class="edge"><title>Node7&#45;&gt;Node10</title>
<path fill="none" stroke="midnightblue" d="M1264.48,-45.6403C1273.02,-45.1531 1281.63,-44.6622 1290.2,-44.1729"/>
<polygon fill="midnightblue" stroke="midnightblue" points="1290.47,-47.6636 1300.25,-43.5995 1290.07,-40.675 1290.47,-47.6636"/>
</g>
<!-- Node9 -->
<g id="node17" class="node"><title>Node9</title>
<a xlink:href="classforcebalance_1_1gmxio_1_1AbInitio__GMX.html#aba138ca4195a1737f2f00bd8c5f3ca07" target="_top" xlink:title="This function parses the GROMACS topology file (.top) which contains a listing of the molecules in th...">
<polygon fill="white" stroke="black" points="1636.5,-63.6123 1636.5,-82.6123 1883.5,-82.6123 1883.5,-63.6123 1636.5,-63.6123"/>
<text text-anchor="middle" x="1760" y="-70.6123" font-family="Ubuntu-R" font-size="10.00">forcebalance.gmxio.AbInitio_GMX.read_topology</text>
</a>
</g>
<!-- Node8&#45;&gt;Node9 -->
<g id="edge16" class="edge"><title>Node8&#45;&gt;Node9</title>
<path fill="none" stroke="midnightblue" d="M1557.43,-73.1123C1579.62,-73.1123 1603.27,-73.1123 1626.27,-73.1123"/>
<polygon fill="midnightblue" stroke="midnightblue" points="1626.44,-76.6124 1636.44,-73.1123 1626.44,-69.6124 1626.44,-76.6124"/>
</g>
</g>
</svg>
