<?xml version="1.0" encoding="UTF-8" standalone="no"?>
<!DOCTYPE svg PUBLIC "-//W3C//DTD SVG 1.1//EN"
 "http://www.w3.org/Graphics/SVG/1.1/DTD/svg11.dtd">
<!-- Generated by graphviz version 2.28.0 (20111219.2309)
 -->
<!-- Title: G Pages: 1 -->
<svg width="1906pt" height="158pt"
 viewBox="0.00 0.00 1906.00 157.68" xmlns="http://www.w3.org/2000/svg" xmlns:xlink="http://www.w3.org/1999/xlink">
<g id="graph1" class="graph" transform="scale(1 1) rotate(0) translate(4 153.678)">
<title>G</title>
<polygon fill="white" stroke="white" points="-4,5 -4,-153.678 1903,-153.678 1903,5 -4,5"/>
<!-- Node1 -->
<g id="node1" class="node"><title>Node1</title>
<polygon fill="#bfbfbf" stroke="black" points="0,-76.5 0,-95.5 212,-95.5 212,-76.5 0,-76.5"/>
<text text-anchor="middle" x="106" y="-83.5" font-family="Ubuntu-R" font-size="10.00">forcebalance.objective.Objective.Indicate</text>
</g>
<!-- Node2 -->
<g id="node3" class="node"><title>Node2</title>
<a xlink:href="namespaceforcebalance_1_1nifty.html#a51180e960742cc7547749fdfb3513ec4" target="_top" xlink:title="See documentation for printcool; this is a nice way to print out keys/values in a dictionary...">
<polygon fill="white" stroke="black" points="269,-114.5 269,-133.5 465,-133.5 465,-114.5 269,-114.5"/>
<text text-anchor="middle" x="367" y="-121.5" font-family="Ubuntu-R" font-size="10.00">forcebalance.nifty.printcool_dictionary</text>
</a>
</g>
<!-- Node1&#45;&gt;Node2 -->
<g id="edge2" class="edge"><title>Node1&#45;&gt;Node2</title>
<path fill="none" stroke="midnightblue" d="M172.022,-95.54C208.199,-100.848 253.388,-107.478 291.047,-113.003"/>
<polygon fill="midnightblue" stroke="midnightblue" points="290.549,-116.467 300.951,-114.456 291.565,-109.541 290.549,-116.467"/>
</g>
<!-- Node16 -->
<g id="node35" class="node"><title>Node16</title>
<a xlink:href="classforcebalance_1_1objective_1_1Objective.html#a3996f95feb58197088775fe439ec697b" target="_top" xlink:title="forcebalance.objective.Objective.Full">
<polygon fill="white" stroke="black" points="272.5,-76.5 272.5,-95.5 461.5,-95.5 461.5,-76.5 272.5,-76.5"/>
<text text-anchor="middle" x="367" y="-83.5" font-family="Ubuntu-R" font-size="10.00">forcebalance.objective.Objective.Full</text>
</a>
</g>
<!-- Node1&#45;&gt;Node16 -->
<g id="edge38" class="edge"><title>Node1&#45;&gt;Node16</title>
<path fill="none" stroke="midnightblue" d="M212.345,-79.3555C228.814,-79.2101 245.824,-79.215 262.256,-79.3701"/>
<polygon fill="midnightblue" stroke="midnightblue" points="262.364,-82.8715 272.404,-79.4861 262.444,-75.8719 262.364,-82.8715"/>
</g>
<!-- Node18 -->
<g id="node40" class="node"><title>Node18</title>
<a xlink:href="classforcebalance_1_1objective_1_1Objective.html#aa14af29457c3784b9b97b46186c230ce" target="_top" xlink:title="forcebalance.objective.Objective.Target_Terms">
<polygon fill="white" stroke="black" points="248.5,-38.5 248.5,-57.5 485.5,-57.5 485.5,-38.5 248.5,-38.5"/>
<text text-anchor="middle" x="367" y="-45.5" font-family="Ubuntu-R" font-size="10.00">forcebalance.objective.Objective.Target_Terms</text>
</a>
</g>
<!-- Node1&#45;&gt;Node18 -->
<g id="edge44" class="edge"><title>Node1&#45;&gt;Node18</title>
<path fill="none" stroke="midnightblue" d="M140.066,-76.4609C166.918,-71.0359 206.533,-64.5407 245.122,-58.9983"/>
<polygon fill="midnightblue" stroke="midnightblue" points="246.023,-62.4057 255.433,-57.5368 245.04,-55.475 246.023,-62.4057"/>
</g>
<!-- Node3 -->
<g id="node5" class="node"><title>Node3</title>
<a xlink:href="namespaceforcebalance_1_1nifty.html#a3f1c7a1af9d35d5d1693074bc6f5497c" target="_top" xlink:title="ONLY matches integers! If you have a decimal point? None shall pass!">
<polygon fill="white" stroke="black" points="552,-114.5 552,-133.5 674,-133.5 674,-114.5 552,-114.5"/>
<text text-anchor="middle" x="613" y="-121.5" font-family="Ubuntu-R" font-size="10.00">forcebalance.nifty.isint</text>
</a>
</g>
<!-- Node2&#45;&gt;Node3 -->
<g id="edge4" class="edge"><title>Node2&#45;&gt;Node3</title>
<path fill="none" stroke="midnightblue" d="M465.136,-124C490.719,-124 517.825,-124 541.693,-124"/>
<polygon fill="midnightblue" stroke="midnightblue" points="541.71,-127.5 551.71,-124 541.71,-120.5 541.71,-127.5"/>
</g>
<!-- Node5 -->
<g id="node9" class="node"><title>Node5</title>
<a xlink:href="namespaceforcebalance_1_1nifty.html#a8e3ef0108b9d37b82ba0dced7c6037ae" target="_top" xlink:title="Matches ANY number; it can be a decimal, scientific notation, what have you CAUTION &#45; this will also ...">
<polygon fill="white" stroke="black" points="924.5,-114.5 924.5,-133.5 1055.5,-133.5 1055.5,-114.5 924.5,-114.5"/>
<text text-anchor="middle" x="990" y="-121.5" font-family="Ubuntu-R" font-size="10.00">forcebalance.nifty.isfloat</text>
</a>
</g>
<!-- Node2&#45;&gt;Node5 -->
<g id="edge36" class="edge"><title>Node2&#45;&gt;Node5</title>
<path fill="none" stroke="midnightblue" d="M430.777,-133.515C458.644,-137.281 491.885,-141.149 522,-143 684.376,-152.979 725.871,-151.398 888,-138 897.791,-137.191 908.084,-136.075 918.201,-134.822"/>
<polygon fill="midnightblue" stroke="midnightblue" points="918.763,-138.279 928.234,-133.531 917.87,-131.336 918.763,-138.279"/>
</g>
<!-- Node4 -->
<g id="node7" class="node"><title>Node4</title>
<a xlink:href="namespaceforcebalance_1_1nifty.html#a09263927eaec9deff283fbf1a820242f" target="_top" xlink:title="Matches things with a decimal only; see isint and isfloat.">
<polygon fill="white" stroke="black" points="740,-76.5 740,-95.5 888,-95.5 888,-76.5 740,-76.5"/>
<text text-anchor="middle" x="814" y="-83.5" font-family="Ubuntu-R" font-size="10.00">forcebalance.nifty.isdecimal</text>
</a>
</g>
<!-- Node3&#45;&gt;Node4 -->
<g id="edge6" class="edge"><title>Node3&#45;&gt;Node4</title>
<path fill="none" stroke="midnightblue" d="M663.959,-114.46C691.045,-109.288 724.708,-102.86 753.183,-97.4222"/>
<polygon fill="midnightblue" stroke="midnightblue" points="753.854,-100.858 763.02,-95.5439 752.541,-93.9817 753.854,-100.858"/>
</g>
<!-- Node4&#45;&gt;Node5 -->
<g id="edge8" class="edge"><title>Node4&#45;&gt;Node5</title>
<path fill="none" stroke="midnightblue" d="M858.908,-95.589C882.179,-100.671 910.954,-106.955 935.519,-112.32"/>
<polygon fill="midnightblue" stroke="midnightblue" points="934.892,-115.766 945.408,-114.48 936.385,-108.927 934.892,-115.766"/>
</g>
<!-- Node9 -->
<g id="node18" class="node"><title>Node9</title>
<a xlink:href="namespaceforcebalance_1_1nifty.html#afb3f205bce4984856e766af7e9fdaca8" target="_top" xlink:title="Given any list, array, or matrix, return a 1&#45;column matrix.">
<polygon fill="white" stroke="black" points="932,-76.5 932,-95.5 1048,-95.5 1048,-76.5 932,-76.5"/>
<text text-anchor="middle" x="990" y="-83.5" font-family="Ubuntu-R" font-size="10.00">forcebalance.nifty.col</text>
</a>
</g>
<!-- Node4&#45;&gt;Node9 -->
<g id="edge18" class="edge"><title>Node4&#45;&gt;Node9</title>
<path fill="none" stroke="midnightblue" d="M888.035,-86C899.1,-86 910.475,-86 921.418,-86"/>
<polygon fill="midnightblue" stroke="midnightblue" points="921.752,-89.5001 931.752,-86 921.752,-82.5001 921.752,-89.5001"/>
</g>
<!-- Node5&#45;&gt;Node3 -->
<g id="edge10" class="edge"><title>Node5&#45;&gt;Node3</title>
<path fill="none" stroke="midnightblue" d="M924.499,-124C857.68,-124 753.568,-124 684.586,-124"/>
<polygon fill="midnightblue" stroke="midnightblue" points="684.25,-120.5 674.25,-124 684.25,-127.5 684.25,-120.5"/>
</g>
<!-- Node6 -->
<g id="node12" class="node"><title>Node6</title>
<a xlink:href="namespaceforcebalance_1_1nifty.html#a8d63c8ae9a67c66673a6cf81357f827d" target="_top" xlink:title="Returns a big number if we encounter NaN.">
<polygon fill="white" stroke="black" points="1092,-114.5 1092,-133.5 1244,-133.5 1244,-114.5 1092,-114.5"/>
<text text-anchor="middle" x="1168" y="-121.5" font-family="Ubuntu-R" font-size="10.00">forcebalance.nifty.floatornan</text>
</a>
</g>
<!-- Node5&#45;&gt;Node6 -->
<g id="edge12" class="edge"><title>Node5&#45;&gt;Node6</title>
<path fill="none" stroke="midnightblue" d="M1055.54,-124C1064,-124 1072.77,-124 1081.51,-124"/>
<polygon fill="midnightblue" stroke="midnightblue" points="1081.74,-127.5 1091.74,-124 1081.74,-120.5 1081.74,-127.5"/>
</g>
<!-- Node7 -->
<g id="node14" class="node"><title>Node7</title>
<a xlink:href="namespaceforcebalance_1_1nifty.html#a6c9727360cdff8f3011a12cc54d0e86e" target="_top" xlink:title="Given any list, array, or matrix, return a 1&#45;row matrix.">
<polygon fill="white" stroke="black" points="1296.5,-114.5 1296.5,-133.5 1415.5,-133.5 1415.5,-114.5 1296.5,-114.5"/>
<text text-anchor="middle" x="1356" y="-121.5" font-family="Ubuntu-R" font-size="10.00">forcebalance.nifty.row</text>
</a>
</g>
<!-- Node6&#45;&gt;Node7 -->
<g id="edge14" class="edge"><title>Node6&#45;&gt;Node7</title>
<path fill="none" stroke="midnightblue" d="M1244.12,-124C1258.02,-124 1272.47,-124 1286.17,-124"/>
<polygon fill="midnightblue" stroke="midnightblue" points="1286.48,-127.5 1296.48,-124 1286.48,-120.5 1286.48,-127.5"/>
</g>
<!-- Node8 -->
<g id="node16" class="node"><title>Node8</title>
<a xlink:href="namespaceforcebalance_1_1nifty.html#a7676236002c6a65ea7d2e69a09923889" target="_top" xlink:title="Given two vectors vec1 and vec2, project out the component of vec1 that is along the vec2&#45;direction...">
<polygon fill="white" stroke="black" points="1480,-114.5 1480,-133.5 1648,-133.5 1648,-114.5 1480,-114.5"/>
<text text-anchor="middle" x="1564" y="-121.5" font-family="Ubuntu-R" font-size="10.00">forcebalance.nifty.orthogonalize</text>
</a>
</g>
<!-- Node7&#45;&gt;Node8 -->
<g id="edge16" class="edge"><title>Node7&#45;&gt;Node8</title>
<path fill="none" stroke="midnightblue" d="M1415.76,-124C1432.61,-124 1451.42,-124 1469.81,-124"/>
<polygon fill="midnightblue" stroke="midnightblue" points="1469.97,-127.5 1479.97,-124 1469.97,-120.5 1469.97,-127.5"/>
</g>
<!-- Node10 -->
<g id="node20" class="node"><title>Node10</title>
<a xlink:href="namespaceforcebalance_1_1nifty.html#a52114ceee9d55f94d9aecb3e176de294" target="_top" xlink:title="Given any list, array, or matrix, return a single&#45;index array.">
<polygon fill="white" stroke="black" points="1109,-76.5 1109,-95.5 1227,-95.5 1227,-76.5 1109,-76.5"/>
<text text-anchor="middle" x="1168" y="-83.5" font-family="Ubuntu-R" font-size="10.00">forcebalance.nifty.flat</text>
</a>
</g>
<!-- Node9&#45;&gt;Node10 -->
<g id="edge20" class="edge"><title>Node9&#45;&gt;Node10</title>
<path fill="none" stroke="midnightblue" d="M1048.14,-86C1064.27,-86 1081.98,-86 1098.69,-86"/>
<polygon fill="midnightblue" stroke="midnightblue" points="1098.94,-89.5001 1108.94,-86 1098.94,-82.5001 1098.94,-89.5001"/>
</g>
<!-- Node11 -->
<g id="node22" class="node"><title>Node11</title>
<a xlink:href="namespaceforcebalance_1_1nifty.html#a4c82187e92dfeb8a159f4aa44b501c40" target="_top" xlink:title="Invert a matrix using singular value decomposition.">
<polygon fill="white" stroke="black" points="1280,-38.5 1280,-57.5 1432,-57.5 1432,-38.5 1280,-38.5"/>
<text text-anchor="middle" x="1356" y="-45.5" font-family="Ubuntu-R" font-size="10.00">forcebalance.nifty.invert_svd</text>
</a>
</g>
<!-- Node10&#45;&gt;Node11 -->
<g id="edge22" class="edge"><title>Node10&#45;&gt;Node11</title>
<path fill="none" stroke="midnightblue" d="M1215.94,-76.411C1241.03,-71.2835 1272.12,-64.9328 1298.53,-59.5368"/>
<polygon fill="midnightblue" stroke="midnightblue" points="1299.3,-62.951 1308.4,-57.5201 1297.9,-56.0926 1299.3,-62.951"/>
</g>
<!-- Node11&#45;&gt;Node9 -->
<g id="edge30" class="edge"><title>Node11&#45;&gt;Node9</title>
<path fill="none" stroke="midnightblue" d="M1279.95,-51.1476C1227.22,-53.9143 1155.1,-58.8122 1092,-67 1076.9,-68.9586 1060.65,-71.7219 1045.69,-74.536"/>
<polygon fill="midnightblue" stroke="midnightblue" points="1044.73,-71.1568 1035.57,-76.4831 1046.05,-78.0308 1044.73,-71.1568"/>
</g>
<!-- Node12 -->
<g id="node24" class="node"><title>Node12</title>
<a xlink:href="namespaceforcebalance_1_1nifty.html#aa9fb9c7c65231eca50a7afc04f489b64" target="_top" xlink:title="forcebalance.nifty.get_least_squares">
<polygon fill="white" stroke="black" points="1468.5,-76.5 1468.5,-95.5 1659.5,-95.5 1659.5,-76.5 1468.5,-76.5"/>
<text text-anchor="middle" x="1564" y="-83.5" font-family="Ubuntu-R" font-size="10.00">forcebalance.nifty.get_least_squares</text>
</a>
</g>
<!-- Node11&#45;&gt;Node12 -->
<g id="edge24" class="edge"><title>Node11&#45;&gt;Node12</title>
<path fill="none" stroke="midnightblue" d="M1408.72,-57.54C1436.76,-62.7122 1471.6,-69.1401 1501.08,-74.5778"/>
<polygon fill="midnightblue" stroke="midnightblue" points="1500.79,-78.0839 1511.26,-76.4561 1502.06,-71.2001 1500.79,-78.0839"/>
</g>
<!-- Node14 -->
<g id="node30" class="node"><title>Node14</title>
<a xlink:href="namespaceforcebalance_1_1nifty.html#abb8f59044961a12588e0653c2baa8b01" target="_top" xlink:title="forcebalance.nifty.warn_press_key">
<polygon fill="white" stroke="black" points="1474.5,-38.5 1474.5,-57.5 1653.5,-57.5 1653.5,-38.5 1474.5,-38.5"/>
<text text-anchor="middle" x="1564" y="-45.5" font-family="Ubuntu-R" font-size="10.00">forcebalance.nifty.warn_press_key</text>
</a>
</g>
<!-- Node11&#45;&gt;Node14 -->
<g id="edge32" class="edge"><title>Node11&#45;&gt;Node14</title>
<path fill="none" stroke="midnightblue" d="M1432.25,-48C1442.61,-48 1453.38,-48 1464.09,-48"/>
<polygon fill="midnightblue" stroke="midnightblue" points="1464.33,-51.5001 1474.33,-48 1464.33,-44.5001 1464.33,-51.5001"/>
</g>
<!-- Node12&#45;&gt;Node10 -->
<g id="edge26" class="edge"><title>Node12&#45;&gt;Node10</title>
<path fill="none" stroke="midnightblue" d="M1468.32,-86C1397.16,-86 1301.35,-86 1237.49,-86"/>
<polygon fill="midnightblue" stroke="midnightblue" points="1237.14,-82.5001 1227.14,-86 1237.14,-89.5001 1237.14,-82.5001"/>
</g>
<!-- Node13 -->
<g id="node27" class="node"><title>Node13</title>
<a xlink:href="namespaceforcebalance_1_1nifty.html#ad5ca60565c864b4245a8212fe9d92e10" target="_top" xlink:title="Compute the (cross) statistical inefficiency of (two) timeseries.">
<polygon fill="white" stroke="black" points="1696.5,-76.5 1696.5,-95.5 1897.5,-95.5 1897.5,-76.5 1696.5,-76.5"/>
<text text-anchor="middle" x="1797" y="-83.5" font-family="Ubuntu-R" font-size="10.00">forcebalance.nifty.statisticalInefficiency</text>
</a>
</g>
<!-- Node12&#45;&gt;Node13 -->
<g id="edge28" class="edge"><title>Node12&#45;&gt;Node13</title>
<path fill="none" stroke="midnightblue" d="M1659.62,-86C1668.4,-86 1677.35,-86 1686.25,-86"/>
<polygon fill="midnightblue" stroke="midnightblue" points="1686.27,-89.5001 1696.27,-86 1686.27,-82.5001 1686.27,-89.5001"/>
</g>
<!-- Node15 -->
<g id="node32" class="node"><title>Node15</title>
<a xlink:href="namespaceforcebalance_1_1nifty.html#a2fc81730e7efa7d138dd86f733507bfc" target="_top" xlink:title="Similar to the bultin function map().">
<polygon fill="white" stroke="black" points="1706,-38.5 1706,-57.5 1888,-57.5 1888,-38.5 1706,-38.5"/>
<text text-anchor="middle" x="1797" y="-45.5" font-family="Ubuntu-R" font-size="10.00">forcebalance.nifty.concurrent_map</text>
</a>
</g>
<!-- Node14&#45;&gt;Node15 -->
<g id="edge34" class="edge"><title>Node14&#45;&gt;Node15</title>
<path fill="none" stroke="midnightblue" d="M1653.65,-48C1667.37,-48 1681.62,-48 1695.58,-48"/>
<polygon fill="midnightblue" stroke="midnightblue" points="1695.68,-51.5001 1705.68,-48 1695.68,-44.5001 1695.68,-51.5001"/>
</g>
<!-- Node16&#45;&gt;Node1 -->
<g id="edge42" class="edge"><title>Node16&#45;&gt;Node1</title>
<path fill="none" stroke="midnightblue" d="M272.404,-92.5139C256.258,-92.7314 239.305,-92.7986 222.659,-92.7156"/>
<polygon fill="midnightblue" stroke="midnightblue" points="222.369,-89.2136 212.345,-92.6445 222.321,-96.2135 222.369,-89.2136"/>
</g>
<!-- Node17 -->
<g id="node37" class="node"><title>Node17</title>
<a xlink:href="namespaceforcebalance_1_1finite__difference.html#ad84d3e385db1190e7d8ef58bc08a6c52" target="_top" xlink:title="Invoking this function from anywhere will tell us whether we&#39;re being called by a finite&#45;difference f...">
<polygon fill="white" stroke="black" points="522,-76.5 522,-95.5 704,-95.5 704,-76.5 522,-76.5"/>
<text text-anchor="middle" x="613" y="-83.5" font-family="Ubuntu-R" font-size="10.00">forcebalance.finite_difference.in_fd</text>
</a>
</g>
<!-- Node16&#45;&gt;Node17 -->
<g id="edge40" class="edge"><title>Node16&#45;&gt;Node17</title>
<path fill="none" stroke="midnightblue" d="M461.639,-86C477.999,-86 495.08,-86 511.613,-86"/>
<polygon fill="midnightblue" stroke="midnightblue" points="511.826,-89.5001 521.826,-86 511.826,-82.5001 511.826,-89.5001"/>
</g>
<!-- Node18&#45;&gt;Node1 -->
<g id="edge54" class="edge"><title>Node18&#45;&gt;Node1</title>
<path fill="none" stroke="midnightblue" d="M333.099,-57.5058C304.948,-63.1996 262.686,-70.0787 222.29,-75.7986"/>
<polygon fill="midnightblue" stroke="midnightblue" points="221.764,-72.338 212.345,-77.1885 222.733,-79.2706 221.764,-72.338"/>
</g>
<!-- Node18&#45;&gt;Node17 -->
<g id="edge46" class="edge"><title>Node18&#45;&gt;Node17</title>
<path fill="none" stroke="midnightblue" d="M429.257,-57.54C463.048,-62.8025 505.186,-69.3651 540.481,-74.8618"/>
<polygon fill="midnightblue" stroke="midnightblue" points="540.299,-78.3755 550.718,-76.4561 541.376,-71.4589 540.299,-78.3755"/>
</g>
<!-- Node19 -->
<g id="node43" class="node"><title>Node19</title>
<a xlink:href="namespaceforcebalance_1_1nifty.html#ac37d4fe58ef70ed546ebfc45d12f7a5d" target="_top" xlink:title="forcebalance.nifty.getWorkQueue">
<polygon fill="white" stroke="black" points="526.5,-0.5 526.5,-19.5 699.5,-19.5 699.5,-0.5 526.5,-0.5"/>
<text text-anchor="middle" x="613" y="-7.5" font-family="Ubuntu-R" font-size="10.00">forcebalance.nifty.getWorkQueue</text>
</a>
</g>
<!-- Node18&#45;&gt;Node19 -->
<g id="edge48" class="edge"><title>Node18&#45;&gt;Node19</title>
<path fill="none" stroke="midnightblue" d="M429.257,-38.46C463.048,-33.1975 505.186,-26.6349 540.481,-21.1382"/>
<polygon fill="midnightblue" stroke="midnightblue" points="541.376,-24.5411 550.718,-19.5439 540.299,-17.6245 541.376,-24.5411"/>
</g>
<!-- Node20 -->
<g id="node45" class="node"><title>Node20</title>
<a xlink:href="namespaceforcebalance_1_1nifty.html#a576de8c5b6f236280e07e73e39b2ab7c" target="_top" xlink:title="This function waits until the work queue is completely empty.">
<polygon fill="white" stroke="black" points="543,-38.5 543,-57.5 683,-57.5 683,-38.5 543,-38.5"/>
<text text-anchor="middle" x="613" y="-45.5" font-family="Ubuntu-R" font-size="10.00">forcebalance.nifty.wq_wait</text>
</a>
</g>
<!-- Node18&#45;&gt;Node20 -->
<g id="edge50" class="edge"><title>Node18&#45;&gt;Node20</title>
<path fill="none" stroke="midnightblue" d="M485.712,-48C501.653,-48 517.693,-48 532.739,-48"/>
<polygon fill="midnightblue" stroke="midnightblue" points="532.984,-51.5001 542.984,-48 532.984,-44.5001 532.984,-51.5001"/>
</g>
<!-- Node21 -->
<g id="node47" class="node"><title>Node21</title>
<a xlink:href="namespaceforcebalance_1_1nifty.html#ad432b88307e1178b0690c0d350b1af36" target="_top" xlink:title="forcebalance.nifty.GoInto">
<polygon fill="white" stroke="black" points="747,-38.5 747,-57.5 881,-57.5 881,-38.5 747,-38.5"/>
<text text-anchor="middle" x="814" y="-45.5" font-family="Ubuntu-R" font-size="10.00">forcebalance.nifty.GoInto</text>
</a>
</g>
<!-- Node20&#45;&gt;Node21 -->
<g id="edge52" class="edge"><title>Node20&#45;&gt;Node21</title>
<path fill="none" stroke="midnightblue" d="M683.042,-48C700.309,-48 718.93,-48 736.533,-48"/>
<polygon fill="midnightblue" stroke="midnightblue" points="736.762,-51.5001 746.762,-48 736.762,-44.5001 736.762,-51.5001"/>
</g>
</g>
</svg>
