<?xml version="1.0" encoding="UTF-8" standalone="no"?>
<!DOCTYPE svg PUBLIC "-//W3C//DTD SVG 1.1//EN"
 "http://www.w3.org/Graphics/SVG/1.1/DTD/svg11.dtd">
<!-- Generated by graphviz version 2.32.0 (20130801.1845)
 -->
<!-- Title: forcebalance.gmxqpio.Monomer_QTPIE.indicate Pages: 1 -->
<svg width="1578pt" height="325pt"
 viewBox="0.00 0.00 1578.00 325.00" xmlns="http://www.w3.org/2000/svg" xmlns:xlink="http://www.w3.org/1999/xlink">
<g id="graph0" class="graph" transform="scale(1 1) rotate(0) translate(4 321)">
<title>forcebalance.gmxqpio.Monomer_QTPIE.indicate</title>
<polygon fill="white" stroke="white" points="-4,5 -4,-321 1575,-321 1575,5 -4,5"/>
<!-- Node1 -->
<g id="node1" class="node"><title>Node1</title>
<polygon fill="#bfbfbf" stroke="black" points="0.4675,-156 0.4675,-188 147.533,-188 147.533,-156 0.4675,-156"/>
<text text-anchor="start" x="8.4675" y="-175" font-family="Ubuntu-R" font-size="10.00">forcebalance.gmxqpio.Monomer</text>
<text text-anchor="middle" x="74" y="-163" font-family="Ubuntu-R" font-size="10.00">_QTPIE.indicate</text>
</g>
<!-- Node2 -->
<g id="node2" class="node"><title>Node2</title>
<g id="a_node2"><a xlink:href="classforcebalance_1_1gmxqpio_1_1Monomer__QTPIE.html#ac227bf1f1ed6d579fea2eeda64c389cb" target="_top" xlink:title="forcebalance.gmxqpio.Monomer\l_QTPIE.unpack_moments">
<polygon fill="white" stroke="black" points="368.467,-205 368.467,-237 515.533,-237 515.533,-205 368.467,-205"/>
<text text-anchor="start" x="376.467" y="-224" font-family="Ubuntu-R" font-size="10.00">forcebalance.gmxqpio.Monomer</text>
<text text-anchor="middle" x="442" y="-212" font-family="Ubuntu-R" font-size="10.00">_QTPIE.unpack_moments</text>
</a>
</g>
</g>
<!-- Node1&#45;&gt;Node2 -->
<g id="edge1" class="edge"><title>Node1&#45;&gt;Node2</title>
<path fill="none" stroke="midnightblue" d="M138.411,-188.033C153.293,-191.381 169.144,-194.613 184,-197 241.847,-206.293 307.64,-212.354 358.175,-216.06"/>
<polygon fill="midnightblue" stroke="midnightblue" points="358.17,-219.568 368.395,-216.793 358.671,-212.586 358.17,-219.568"/>
</g>
<!-- Node11 -->
<g id="node11" class="node"><title>Node11</title>
<g id="a_node11"><a xlink:href="namespaceforcebalance_1_1nifty.html#a51180e960742cc7547749fdfb3513ec4" target="_top" xlink:title="See documentation for printcool; this is a nice way to print out keys/values in a dictionary...">
<polygon fill="white" stroke="black" points="194.469,-53 194.469,-85 321.531,-85 321.531,-53 194.469,-53"/>
<text text-anchor="start" x="202.469" y="-72" font-family="Ubuntu-R" font-size="10.00">forcebalance.nifty.printcool</text>
<text text-anchor="middle" x="258" y="-60" font-family="Ubuntu-R" font-size="10.00">_dictionary</text>
</a>
</g>
</g>
<!-- Node1&#45;&gt;Node11 -->
<g id="edge14" class="edge"><title>Node1&#45;&gt;Node11</title>
<path fill="none" stroke="midnightblue" d="M103.438,-155.906C134.733,-138.195 185.161,-109.656 219.629,-90.1493"/>
<polygon fill="midnightblue" stroke="midnightblue" points="221.483,-93.1218 228.462,-85.1504 218.036,-87.0297 221.483,-93.1218"/>
</g>
<!-- Node25 -->
<g id="node25" class="node"><title>Node25</title>
<g id="a_node25"><a xlink:href="classforcebalance_1_1gmxqpio_1_1Monomer__QTPIE.html#a0a859c87a87d4021e61ada64fdce4ebd" target="_top" xlink:title="forcebalance.gmxqpio.Monomer\l_QTPIE.prepare_temp_directory">
<polygon fill="white" stroke="black" points="184.054,-156 184.054,-188 331.946,-188 331.946,-156 184.054,-156"/>
<text text-anchor="start" x="192.054" y="-175" font-family="Ubuntu-R" font-size="10.00">forcebalance.gmxqpio.Monomer</text>
<text text-anchor="middle" x="258" y="-163" font-family="Ubuntu-R" font-size="10.00">_QTPIE.prepare_temp_directory</text>
</a>
</g>
</g>
<!-- Node1&#45;&gt;Node25 -->
<g id="edge32" class="edge"><title>Node1&#45;&gt;Node25</title>
<path fill="none" stroke="midnightblue" d="M147.716,-172C156.256,-172 165.019,-172 173.69,-172"/>
<polygon fill="midnightblue" stroke="midnightblue" points="173.805,-175.5 183.805,-172 173.805,-168.5 173.805,-175.5"/>
</g>
<!-- Node3 -->
<g id="node3" class="node"><title>Node3</title>
<g id="a_node3"><a xlink:href="classforcebalance_1_1gmxqpio_1_1Monomer__QTPIE.html#a46144411b5166a1839bf954b584ca3a7" target="_top" xlink:title="forcebalance.gmxqpio.Monomer\l_QTPIE.get">
<polygon fill="white" stroke="black" points="552.467,-207 552.467,-239 699.533,-239 699.533,-207 552.467,-207"/>
<text text-anchor="start" x="560.467" y="-226" font-family="Ubuntu-R" font-size="10.00">forcebalance.gmxqpio.Monomer</text>
<text text-anchor="middle" x="626" y="-214" font-family="Ubuntu-R" font-size="10.00">_QTPIE.get</text>
</a>
</g>
</g>
<!-- Node2&#45;&gt;Node3 -->
<g id="edge2" class="edge"><title>Node2&#45;&gt;Node3</title>
<path fill="none" stroke="midnightblue" d="M515.716,-215.172C524.398,-215.149 533.312,-215.214 542.123,-215.363"/>
<polygon fill="midnightblue" stroke="midnightblue" points="542.329,-218.868 552.4,-215.576 542.474,-211.87 542.329,-218.868"/>
</g>
<!-- Node3&#45;&gt;Node2 -->
<g id="edge5" class="edge"><title>Node3&#45;&gt;Node2</title>
<path fill="none" stroke="midnightblue" d="M552.4,-228.828C543.72,-228.851 534.806,-228.787 525.994,-228.639"/>
<polygon fill="midnightblue" stroke="midnightblue" points="525.786,-225.134 515.716,-228.426 525.641,-232.132 525.786,-225.134"/>
</g>
<!-- Node4 -->
<g id="node4" class="node"><title>Node4</title>
<g id="a_node4"><a xlink:href="namespaceforcebalance_1_1gmxqpio.html#a499ed366638eae7be524b18760a986b8" target="_top" xlink:title="forcebalance.gmxqpio.get\l_monomer_properties">
<polygon fill="white" stroke="black" points="736.077,-159 736.077,-191 855.923,-191 855.923,-159 736.077,-159"/>
<text text-anchor="start" x="744.077" y="-178" font-family="Ubuntu-R" font-size="10.00">forcebalance.gmxqpio.get</text>
<text text-anchor="middle" x="796" y="-166" font-family="Ubuntu-R" font-size="10.00">_monomer_properties</text>
</a>
</g>
</g>
<!-- Node3&#45;&gt;Node4 -->
<g id="edge3" class="edge"><title>Node3&#45;&gt;Node4</title>
<path fill="none" stroke="midnightblue" d="M683.409,-206.883C698.031,-202.705 713.909,-198.169 728.977,-193.864"/>
<polygon fill="midnightblue" stroke="midnightblue" points="730.086,-197.187 738.74,-191.074 728.163,-190.456 730.086,-197.187"/>
</g>
<!-- Node6 -->
<g id="node6" class="node"><title>Node6</title>
<g id="a_node6"><a xlink:href="namespaceforcebalance_1_1finite__difference.html#aa69a8819e4680091f400303c1d6ddeb7" target="_top" xlink:title="A three&#45;point finite difference stencil.">
<polygon fill="white" stroke="black" points="749.824,-249 749.824,-281 842.176,-281 842.176,-249 749.824,-249"/>
<text text-anchor="start" x="757.824" y="-268" font-family="Ubuntu-R" font-size="10.00">forcebalance.finite</text>
<text text-anchor="middle" x="796" y="-256" font-family="Ubuntu-R" font-size="10.00">_difference.f12d3p</text>
</a>
</g>
</g>
<!-- Node3&#45;&gt;Node6 -->
<g id="edge6" class="edge"><title>Node3&#45;&gt;Node6</title>
<path fill="none" stroke="midnightblue" d="M691.473,-239.118C707.413,-243.103 724.346,-247.337 739.8,-251.2"/>
<polygon fill="midnightblue" stroke="midnightblue" points="739.166,-254.649 749.717,-253.679 740.864,-247.858 739.166,-254.649"/>
</g>
<!-- Node7 -->
<g id="node7" class="node"><title>Node7</title>
<g id="a_node7"><a xlink:href="namespaceforcebalance_1_1finite__difference.html#ad84d3e385db1190e7d8ef58bc08a6c52" target="_top" xlink:title="Invoking this function from anywhere will tell us whether we&#39;re being called by a finite&#45;difference f...">
<polygon fill="white" stroke="black" points="913.662,-285 913.662,-317 1004.34,-317 1004.34,-285 913.662,-285"/>
<text text-anchor="start" x="921.662" y="-304" font-family="Ubuntu-R" font-size="10.00">forcebalance.finite</text>
<text text-anchor="middle" x="959" y="-292" font-family="Ubuntu-R" font-size="10.00">_difference.in_fd</text>
</a>
</g>
</g>
<!-- Node3&#45;&gt;Node7 -->
<g id="edge13" class="edge"><title>Node3&#45;&gt;Node7</title>
<path fill="none" stroke="midnightblue" d="M646.392,-239.16C667.107,-255.352 701.626,-279.355 736,-290 791.174,-307.087 857.722,-307.954 903.481,-305.726"/>
<polygon fill="midnightblue" stroke="midnightblue" points="903.701,-309.219 913.493,-305.173 903.315,-302.23 903.701,-309.219"/>
</g>
<!-- Node8 -->
<g id="node8" class="node"><title>Node8</title>
<g id="a_node8"><a xlink:href="namespaceforcebalance_1_1finite__difference.html#ae484c591ae8c4e5bae73a0ef2660c339" target="_top" xlink:title="A function wrapper for finite difference designed for differentiating &#39;get&#39;&#45;type functions.">
<polygon fill="white" stroke="black" points="912.831,-216 912.831,-248 1005.17,-248 1005.17,-216 912.831,-216"/>
<text text-anchor="start" x="920.831" y="-235" font-family="Ubuntu-R" font-size="10.00">forcebalance.finite</text>
<text text-anchor="middle" x="959" y="-223" font-family="Ubuntu-R" font-size="10.00">_difference.fdwrap</text>
</a>
</g>
</g>
<!-- Node3&#45;&gt;Node8 -->
<g id="edge12" class="edge"><title>Node3&#45;&gt;Node8</title>
<path fill="none" stroke="midnightblue" d="M699.639,-224.975C760.73,-226.636 846.781,-228.976 902.476,-230.49"/>
<polygon fill="midnightblue" stroke="midnightblue" points="902.417,-233.99 912.509,-230.763 902.608,-226.992 902.417,-233.99"/>
</g>
<!-- Node5 -->
<g id="node5" class="node"><title>Node5</title>
<g id="a_node5"><a xlink:href="namespaceforcebalance_1_1molecule.html#afe989ffd119568047fc8265b1d329a70" target="_top" xlink:title="Matches ANY number; it can be a decimal, scientific notation, integer, or what have you...">
<polygon fill="white" stroke="black" points="892.14,-165 892.14,-185 1025.86,-185 1025.86,-165 892.14,-165"/>
<text text-anchor="middle" x="959" y="-172" font-family="Ubuntu-R" font-size="10.00">forcebalance.molecule.isfloat</text>
</a>
</g>
</g>
<!-- Node4&#45;&gt;Node5 -->
<g id="edge4" class="edge"><title>Node4&#45;&gt;Node5</title>
<path fill="none" stroke="midnightblue" d="M856.036,-175C864.422,-175 873.143,-175 881.797,-175"/>
<polygon fill="midnightblue" stroke="midnightblue" points="881.902,-178.5 891.902,-175 881.902,-171.5 881.902,-178.5"/>
</g>
<!-- Node6&#45;&gt;Node7 -->
<g id="edge7" class="edge"><title>Node6&#45;&gt;Node7</title>
<path fill="none" stroke="midnightblue" d="M842.276,-275.124C861.372,-279.394 883.761,-284.4 903.732,-288.866"/>
<polygon fill="midnightblue" stroke="midnightblue" points="903.097,-292.31 913.62,-291.076 904.625,-285.479 903.097,-292.31"/>
</g>
<!-- Node6&#45;&gt;Node8 -->
<g id="edge8" class="edge"><title>Node6&#45;&gt;Node8</title>
<path fill="none" stroke="midnightblue" d="M842.276,-255.72C861.133,-251.855 883.202,-247.331 902.982,-243.277"/>
<polygon fill="midnightblue" stroke="midnightblue" points="903.692,-246.704 912.785,-241.268 902.286,-239.847 903.692,-246.704"/>
</g>
<!-- Node9 -->
<g id="node9" class="node"><title>Node9</title>
<g id="a_node9"><a xlink:href="namespaceforcebalance_1_1finite__difference.html#a00322fb65860c390616f74d05037c797" target="_top" xlink:title="A driver to fdwrap for gradients (see documentation for fdwrap) Inputs: tgt = The Target containing t...">
<polygon fill="white" stroke="black" points="1076.72,-216 1076.72,-248 1181.28,-248 1181.28,-216 1076.72,-216"/>
<text text-anchor="start" x="1084.72" y="-235" font-family="Ubuntu-R" font-size="10.00">forcebalance.finite</text>
<text text-anchor="middle" x="1129" y="-223" font-family="Ubuntu-R" font-size="10.00">_difference.fdwrap_G</text>
</a>
</g>
</g>
<!-- Node8&#45;&gt;Node9 -->
<g id="edge9" class="edge"><title>Node8&#45;&gt;Node9</title>
<path fill="none" stroke="midnightblue" d="M1005.46,-225.926C1024.25,-225.218 1046.32,-225.066 1066.52,-225.47"/>
<polygon fill="midnightblue" stroke="midnightblue" points="1066.48,-228.971 1076.57,-225.723 1066.66,-221.973 1066.48,-228.971"/>
</g>
<!-- Node10 -->
<g id="node10" class="node"><title>Node10</title>
<g id="a_node10"><a xlink:href="namespaceforcebalance_1_1finite__difference.html#a77a0bc1ae3cbbcc8d38a0ef9ca877d6d" target="_top" xlink:title="A driver to fdwrap for Hessians (see documentation for fdwrap) Inputs: tgt = The Target containing th...">
<polygon fill="white" stroke="black" points="1076.72,-165 1076.72,-197 1181.28,-197 1181.28,-165 1076.72,-165"/>
<text text-anchor="start" x="1084.72" y="-184" font-family="Ubuntu-R" font-size="10.00">forcebalance.finite</text>
<text text-anchor="middle" x="1129" y="-172" font-family="Ubuntu-R" font-size="10.00">_difference.fdwrap_H</text>
</a>
</g>
</g>
<!-- Node8&#45;&gt;Node10 -->
<g id="edge11" class="edge"><title>Node8&#45;&gt;Node10</title>
<path fill="none" stroke="midnightblue" d="M1005.46,-218.199C1024.34,-212.469 1046.52,-205.734 1066.79,-199.58"/>
<polygon fill="midnightblue" stroke="midnightblue" points="1068.02,-202.867 1076.57,-196.613 1065.98,-196.169 1068.02,-202.867"/>
</g>
<!-- Node9&#45;&gt;Node8 -->
<g id="edge10" class="edge"><title>Node9&#45;&gt;Node8</title>
<path fill="none" stroke="midnightblue" d="M1076.57,-238.277C1057.24,-238.867 1035.19,-238.905 1015.51,-238.392"/>
<polygon fill="midnightblue" stroke="midnightblue" points="1015.57,-234.893 1005.46,-238.074 1015.35,-241.889 1015.57,-234.893"/>
</g>
<!-- Node12 -->
<g id="node12" class="node"><title>Node12</title>
<g id="a_node12"><a xlink:href="namespaceforcebalance_1_1nifty.html#a3f1c7a1af9d35d5d1693074bc6f5497c" target="_top" xlink:title="ONLY matches integers! If you have a decimal point? None shall pass!">
<polygon fill="white" stroke="black" points="387.908,-59 387.908,-79 496.092,-79 496.092,-59 387.908,-59"/>
<text text-anchor="middle" x="442" y="-66" font-family="Ubuntu-R" font-size="10.00">forcebalance.nifty.isint</text>
</a>
</g>
</g>
<!-- Node11&#45;&gt;Node12 -->
<g id="edge15" class="edge"><title>Node11&#45;&gt;Node12</title>
<path fill="none" stroke="midnightblue" d="M321.634,-69C339.683,-69 359.385,-69 377.486,-69"/>
<polygon fill="midnightblue" stroke="midnightblue" points="377.645,-72.5001 387.645,-69 377.645,-65.5001 377.645,-72.5001"/>
</g>
<!-- Node14 -->
<g id="node14" class="node"><title>Node14</title>
<g id="a_node14"><a xlink:href="namespaceforcebalance_1_1nifty.html#a8e3ef0108b9d37b82ba0dced7c6037ae" target="_top" xlink:title="Matches ANY number; it can be a decimal, scientific notation, what have you CAUTION &#45; this will also ...">
<polygon fill="white" stroke="black" points="738.024,-20 738.024,-40 853.976,-40 853.976,-20 738.024,-20"/>
<text text-anchor="middle" x="796" y="-27" font-family="Ubuntu-R" font-size="10.00">forcebalance.nifty.isfloat</text>
</a>
</g>
</g>
<!-- Node11&#45;&gt;Node14 -->
<g id="edge31" class="edge"><title>Node11&#45;&gt;Node14</title>
<path fill="none" stroke="midnightblue" d="M321.627,-56.1605C336.755,-53.433 352.911,-50.8284 368,-49 494.406,-33.6824 643.2,-30.3627 727.576,-29.8389"/>
<polygon fill="midnightblue" stroke="midnightblue" points="727.81,-33.3378 737.792,-29.7873 727.774,-26.3379 727.81,-33.3378"/>
</g>
<!-- Node13 -->
<g id="node13" class="node"><title>Node13</title>
<g id="a_node13"><a xlink:href="namespaceforcebalance_1_1nifty.html#a09263927eaec9deff283fbf1a820242f" target="_top" xlink:title="Matches things with a decimal only; see isint and isfloat.">
<polygon fill="white" stroke="black" points="561.36,-78 561.36,-98 690.64,-98 690.64,-78 561.36,-78"/>
<text text-anchor="middle" x="626" y="-85" font-family="Ubuntu-R" font-size="10.00">forcebalance.nifty.isdecimal</text>
</a>
</g>
</g>
<!-- Node12&#45;&gt;Node13 -->
<g id="edge16" class="edge"><title>Node12&#45;&gt;Node13</title>
<path fill="none" stroke="midnightblue" d="M496.131,-74.5467C513.306,-76.3396 532.67,-78.3612 551.069,-80.2819"/>
<polygon fill="midnightblue" stroke="midnightblue" points="550.862,-83.7793 561.171,-81.3366 551.589,-76.8171 550.862,-83.7793"/>
</g>
<!-- Node13&#45;&gt;Node14 -->
<g id="edge17" class="edge"><title>Node13&#45;&gt;Node14</title>
<path fill="none" stroke="midnightblue" d="M656.491,-77.9332C669.789,-73.3853 685.69,-67.9359 700,-63 718.489,-56.6229 738.986,-49.5084 756.195,-43.5227"/>
<polygon fill="midnightblue" stroke="midnightblue" points="757.613,-46.7353 765.907,-40.143 755.312,-40.1241 757.613,-46.7353"/>
</g>
<!-- Node18 -->
<g id="node18" class="node"><title>Node18</title>
<g id="a_node18"><a xlink:href="namespaceforcebalance_1_1nifty.html#afb3f205bce4984856e766af7e9fdaca8" target="_top" xlink:title="Given any list, array, or matrix, return a 1&#45;column matrix.">
<polygon fill="white" stroke="black" points="744.412,-78 744.412,-98 847.588,-98 847.588,-78 744.412,-78"/>
<text text-anchor="middle" x="796" y="-85" font-family="Ubuntu-R" font-size="10.00">forcebalance.nifty.col</text>
</a>
</g>
</g>
<!-- Node13&#45;&gt;Node18 -->
<g id="edge22" class="edge"><title>Node13&#45;&gt;Node18</title>
<path fill="none" stroke="midnightblue" d="M690.993,-88C705.17,-88 720.155,-88 734.2,-88"/>
<polygon fill="midnightblue" stroke="midnightblue" points="734.237,-91.5001 744.237,-88 734.237,-84.5001 734.237,-91.5001"/>
</g>
<!-- Node14&#45;&gt;Node12 -->
<g id="edge18" class="edge"><title>Node14&#45;&gt;Node12</title>
<path fill="none" stroke="midnightblue" d="M737.817,-36.3357C674.463,-43.355 572.575,-54.6436 506.711,-61.9411"/>
<polygon fill="midnightblue" stroke="midnightblue" points="506.015,-58.4967 496.461,-63.0767 506.786,-65.4542 506.015,-58.4967"/>
</g>
<!-- Node15 -->
<g id="node15" class="node"><title>Node15</title>
<g id="a_node15"><a xlink:href="namespaceforcebalance_1_1nifty.html#a8d63c8ae9a67c66673a6cf81357f827d" target="_top" xlink:title="Returns a big number if we encounter NaN.">
<polygon fill="white" stroke="black" points="892.974,-0 892.974,-20 1025.03,-20 1025.03,-0 892.974,-0"/>
<text text-anchor="middle" x="959" y="-7" font-family="Ubuntu-R" font-size="10.00">forcebalance.nifty.floatornan</text>
</a>
</g>
</g>
<!-- Node14&#45;&gt;Node15 -->
<g id="edge19" class="edge"><title>Node14&#45;&gt;Node15</title>
<path fill="none" stroke="midnightblue" d="M854.216,-22.8924C863.473,-21.7425 873.18,-20.5367 882.786,-19.3434"/>
<polygon fill="midnightblue" stroke="midnightblue" points="883.244,-22.8134 892.736,-18.1073 882.381,-15.8668 883.244,-22.8134"/>
</g>
<!-- Node16 -->
<g id="node16" class="node"><title>Node16</title>
<g id="a_node16"><a xlink:href="namespaceforcebalance_1_1nifty.html#a6c9727360cdff8f3011a12cc54d0e86e" target="_top" xlink:title="Given any list, array, or matrix, return a 1&#45;row matrix.">
<polygon fill="white" stroke="black" points="1075.75,-0 1075.75,-20 1182.25,-20 1182.25,-0 1075.75,-0"/>
<text text-anchor="middle" x="1129" y="-7" font-family="Ubuntu-R" font-size="10.00">forcebalance.nifty.row</text>
</a>
</g>
</g>
<!-- Node15&#45;&gt;Node16 -->
<g id="edge20" class="edge"><title>Node15&#45;&gt;Node16</title>
<path fill="none" stroke="midnightblue" d="M1025.43,-10C1038.59,-10 1052.39,-10 1065.45,-10"/>
<polygon fill="midnightblue" stroke="midnightblue" points="1065.73,-13.5001 1075.73,-10 1065.73,-6.5001 1065.73,-13.5001"/>
</g>
<!-- Node17 -->
<g id="node17" class="node"><title>Node17</title>
<g id="a_node17"><a xlink:href="namespaceforcebalance_1_1nifty.html#a7676236002c6a65ea7d2e69a09923889" target="_top" xlink:title="Given two vectors vec1 and vec2, project out the component of vec1 that is along the vec2&#45;direction...">
<polygon fill="white" stroke="black" points="1232.03,-0 1232.03,-20 1377.97,-20 1377.97,-0 1232.03,-0"/>
<text text-anchor="middle" x="1305" y="-7" font-family="Ubuntu-R" font-size="10.00">forcebalance.nifty.orthogonalize</text>
</a>
</g>
</g>
<!-- Node16&#45;&gt;Node17 -->
<g id="edge21" class="edge"><title>Node16&#45;&gt;Node17</title>
<path fill="none" stroke="midnightblue" d="M1182.68,-10C1195.03,-10 1208.49,-10 1221.79,-10"/>
<polygon fill="midnightblue" stroke="midnightblue" points="1221.92,-13.5001 1231.92,-10 1221.92,-6.5001 1221.92,-13.5001"/>
</g>
<!-- Node19 -->
<g id="node19" class="node"><title>Node19</title>
<g id="a_node19"><a xlink:href="namespaceforcebalance_1_1nifty.html#a52114ceee9d55f94d9aecb3e176de294" target="_top" xlink:title="Given any list, array, or matrix, return a single&#45;index array.">
<polygon fill="white" stroke="black" points="906.858,-39 906.858,-59 1011.14,-59 1011.14,-39 906.858,-39"/>
<text text-anchor="middle" x="959" y="-46" font-family="Ubuntu-R" font-size="10.00">forcebalance.nifty.flat</text>
</a>
</g>
</g>
<!-- Node18&#45;&gt;Node19 -->
<g id="edge23" class="edge"><title>Node18&#45;&gt;Node19</title>
<path fill="none" stroke="midnightblue" d="M838.462,-77.9565C859.307,-72.907 884.76,-66.7413 906.814,-61.3991"/>
<polygon fill="midnightblue" stroke="midnightblue" points="907.784,-64.7654 916.679,-59.0094 906.136,-57.9622 907.784,-64.7654"/>
</g>
<!-- Node20 -->
<g id="node20" class="node"><title>Node20</title>
<g id="a_node20"><a xlink:href="namespaceforcebalance_1_1nifty.html#a4c82187e92dfeb8a159f4aa44b501c40" target="_top" xlink:title="Invert a matrix using singular value decomposition.">
<polygon fill="white" stroke="black" points="1062.41,-78 1062.41,-98 1195.59,-98 1195.59,-78 1062.41,-78"/>
<text text-anchor="middle" x="1129" y="-85" font-family="Ubuntu-R" font-size="10.00">forcebalance.nifty.invert_svd</text>
</a>
</g>
</g>
<!-- Node19&#45;&gt;Node20 -->
<g id="edge24" class="edge"><title>Node19&#45;&gt;Node20</title>
<path fill="none" stroke="midnightblue" d="M1003.26,-59.0435C1025.11,-64.1157 1051.82,-70.3143 1074.9,-75.6731"/>
<polygon fill="midnightblue" stroke="midnightblue" points="1074.35,-79.1385 1084.88,-77.9906 1075.93,-72.3199 1074.35,-79.1385"/>
</g>
<!-- Node20&#45;&gt;Node18 -->
<g id="edge28" class="edge"><title>Node20&#45;&gt;Node18</title>
<path fill="none" stroke="midnightblue" d="M1062.25,-88C1002.71,-88 915.681,-88 857.742,-88"/>
<polygon fill="midnightblue" stroke="midnightblue" points="857.632,-84.5001 847.632,-88 857.632,-91.5001 857.632,-84.5001"/>
</g>
<!-- Node21 -->
<g id="node21" class="node"><title>Node21</title>
<g id="a_node21"><a xlink:href="namespaceforcebalance_1_1nifty.html#aa9fb9c7c65231eca50a7afc04f489b64" target="_top" xlink:title="forcebalance.nifty.get\l_least_squares">
<polygon fill="white" stroke="black" points="1253.41,-49 1253.41,-81 1356.59,-81 1356.59,-49 1253.41,-49"/>
<text text-anchor="start" x="1261.41" y="-68" font-family="Ubuntu-R" font-size="10.00">forcebalance.nifty.get</text>
<text text-anchor="middle" x="1305" y="-56" font-family="Ubuntu-R" font-size="10.00">_least_squares</text>
</a>
</g>
</g>
<!-- Node20&#45;&gt;Node21 -->
<g id="edge25" class="edge"><title>Node20&#45;&gt;Node21</title>
<path fill="none" stroke="midnightblue" d="M1195.78,-79.3047C1211.26,-77.2582 1227.7,-75.0855 1242.96,-73.0679"/>
<polygon fill="midnightblue" stroke="midnightblue" points="1243.86,-76.4797 1253.32,-71.6994 1242.95,-69.5401 1243.86,-76.4797"/>
</g>
<!-- Node23 -->
<g id="node23" class="node"><title>Node23</title>
<g id="a_node23"><a xlink:href="namespaceforcebalance_1_1nifty.html#abb8f59044961a12588e0653c2baa8b01" target="_top" xlink:title="forcebalance.nifty.warn\l_press_key">
<polygon fill="white" stroke="black" points="1249.53,-105 1249.53,-137 1360.47,-137 1360.47,-105 1249.53,-105"/>
<text text-anchor="start" x="1257.53" y="-124" font-family="Ubuntu-R" font-size="10.00">forcebalance.nifty.warn</text>
<text text-anchor="middle" x="1305" y="-112" font-family="Ubuntu-R" font-size="10.00">_press_key</text>
</a>
</g>
</g>
<!-- Node20&#45;&gt;Node23 -->
<g id="edge29" class="edge"><title>Node20&#45;&gt;Node23</title>
<path fill="none" stroke="midnightblue" d="M1183.15,-98.0804C1200.94,-101.454 1220.97,-105.253 1239.53,-108.773"/>
<polygon fill="midnightblue" stroke="midnightblue" points="1238.89,-112.215 1249.37,-110.639 1240.2,-105.337 1238.89,-112.215"/>
</g>
<!-- Node21&#45;&gt;Node19 -->
<g id="edge26" class="edge"><title>Node21&#45;&gt;Node19</title>
<path fill="none" stroke="midnightblue" d="M1253.27,-62.6405C1191.71,-59.7771 1087.95,-54.9511 1021.78,-51.8737"/>
<polygon fill="midnightblue" stroke="midnightblue" points="1021.65,-48.3638 1011.5,-51.3954 1021.33,-55.3563 1021.65,-48.3638"/>
</g>
<!-- Node22 -->
<g id="node22" class="node"><title>Node22</title>
<g id="a_node22"><a xlink:href="namespaceforcebalance_1_1nifty.html#ad5ca60565c864b4245a8212fe9d92e10" target="_top" xlink:title="Compute the (cross) statistical inefficiency of (two) timeseries.">
<polygon fill="white" stroke="black" points="1427.64,-49 1427.64,-81 1556.36,-81 1556.36,-49 1427.64,-49"/>
<text text-anchor="start" x="1435.64" y="-68" font-family="Ubuntu-R" font-size="10.00">forcebalance.nifty.statistical</text>
<text text-anchor="middle" x="1492" y="-56" font-family="Ubuntu-R" font-size="10.00">Inefficiency</text>
</a>
</g>
</g>
<!-- Node21&#45;&gt;Node22 -->
<g id="edge27" class="edge"><title>Node21&#45;&gt;Node22</title>
<path fill="none" stroke="midnightblue" d="M1357.04,-65C1375.71,-65 1397.21,-65 1417.45,-65"/>
<polygon fill="midnightblue" stroke="midnightblue" points="1417.58,-68.5001 1427.58,-65 1417.58,-61.5001 1417.58,-68.5001"/>
</g>
<!-- Node24 -->
<g id="node24" class="node"><title>Node24</title>
<g id="a_node24"><a xlink:href="namespaceforcebalance_1_1nifty.html#a2fc81730e7efa7d138dd86f733507bfc" target="_top" xlink:title="Similar to the bultin function map().">
<polygon fill="white" stroke="black" points="1414.04,-111 1414.04,-131 1569.96,-131 1569.96,-111 1414.04,-111"/>
<text text-anchor="middle" x="1492" y="-118" font-family="Ubuntu-R" font-size="10.00">forcebalance.nifty.concurrent_map</text>
</a>
</g>
</g>
<!-- Node23&#45;&gt;Node24 -->
<g id="edge30" class="edge"><title>Node23&#45;&gt;Node24</title>
<path fill="none" stroke="midnightblue" d="M1360.51,-121C1374.1,-121 1389.02,-121 1403.77,-121"/>
<polygon fill="midnightblue" stroke="midnightblue" points="1403.92,-124.5 1413.92,-121 1403.92,-117.5 1403.92,-124.5"/>
</g>
<!-- Node25&#45;&gt;Node2 -->
<g id="edge36" class="edge"><title>Node25&#45;&gt;Node2</title>
<path fill="none" stroke="midnightblue" d="M318.594,-188.044C335.406,-192.571 353.848,-197.536 371.202,-202.208"/>
<polygon fill="midnightblue" stroke="midnightblue" points="370.706,-205.699 381.273,-204.92 372.526,-198.94 370.706,-205.699"/>
</g>
<!-- Node25&#45;&gt;Node23 -->
<g id="edge33" class="edge"><title>Node25&#45;&gt;Node23</title>
<path fill="none" stroke="midnightblue" d="M332.283,-157.638C405.94,-144.468 522.888,-127 625,-127 625,-127 625,-127 960,-127 1057.3,-127 1170.05,-124.571 1239.19,-122.804"/>
<polygon fill="midnightblue" stroke="midnightblue" points="1239.58,-126.295 1249.49,-122.537 1239.4,-119.297 1239.58,-126.295"/>
</g>
<!-- Node26 -->
<g id="node26" class="node"><title>Node26</title>
<g id="a_node26"><a xlink:href="namespaceforcebalance_1_1nifty.html#ab182a9da2a2f42cf45942fbee6acf9b1" target="_top" xlink:title="forcebalance.nifty.LinkFile">
<polygon fill="white" stroke="black" points="379.299,-162 379.299,-182 504.701,-182 504.701,-162 379.299,-162"/>
<text text-anchor="middle" x="442" y="-169" font-family="Ubuntu-R" font-size="10.00">forcebalance.nifty.LinkFile</text>
</a>
</g>
</g>
<!-- Node25&#45;&gt;Node26 -->
<g id="edge34" class="edge"><title>Node25&#45;&gt;Node26</title>
<path fill="none" stroke="midnightblue" d="M331.978,-172C344.185,-172 356.843,-172 369.025,-172"/>
<polygon fill="midnightblue" stroke="midnightblue" points="369.125,-175.5 379.125,-172 369.125,-168.5 369.125,-175.5"/>
</g>
<!-- Node27 -->
<g id="node27" class="node"><title>Node27</title>
<g id="a_node27"><a xlink:href="namespaceforcebalance_1_1nifty.html#a25efa4d501ad852a234721af18978f7e" target="_top" xlink:title="Remove the file if it exists (doesn&#39;t return an error).">
<polygon fill="white" stroke="black" points="565.528,-156 565.528,-188 686.472,-188 686.472,-156 565.528,-156"/>
<text text-anchor="start" x="573.528" y="-175" font-family="Ubuntu-R" font-size="10.00">forcebalance.nifty.remove</text>
<text text-anchor="middle" x="626" y="-163" font-family="Ubuntu-R" font-size="10.00">_if_exists</text>
</a>
</g>
</g>
<!-- Node26&#45;&gt;Node27 -->
<g id="edge35" class="edge"><title>Node26&#45;&gt;Node27</title>
<path fill="none" stroke="midnightblue" d="M504.871,-172C521.085,-172 538.679,-172 555.273,-172"/>
<polygon fill="midnightblue" stroke="midnightblue" points="555.455,-175.5 565.455,-172 555.455,-168.5 555.455,-175.5"/>
</g>
</g>
</svg>
