<?xml version="1.0" encoding="UTF-8" standalone="no"?>
<!DOCTYPE svg PUBLIC "-//W3C//DTD SVG 1.1//EN"
 "http://www.w3.org/Graphics/SVG/1.1/DTD/svg11.dtd">
<!-- Generated by graphviz version 2.28.0 (20111219.2309)
 -->
<!-- Title: G Pages: 1 -->
<svg width="1418pt" height="142pt"
 viewBox="0.00 0.00 1418.00 142.00" xmlns="http://www.w3.org/2000/svg" xmlns:xlink="http://www.w3.org/1999/xlink">
<g id="graph1" class="graph" transform="scale(1 1) rotate(0) translate(4 138)">
<title>G</title>
<polygon fill="white" stroke="white" points="-4,5 -4,-138 1415,-138 1415,5 -4,5"/>
<!-- Node1 -->
<g id="node1" class="node"><title>Node1</title>
<polygon fill="#bfbfbf" stroke="black" points="0,-38.5 0,-57.5 210,-57.5 210,-38.5 0,-38.5"/>
<text text-anchor="middle" x="105" y="-45.5" font-family="Ubuntu-R" font-size="10.00">forcebalance.liquid.Liquid.npt_simulation</text>
</g>
<!-- Node2 -->
<g id="node3" class="node"><title>Node2</title>
<a xlink:href="namespaceforcebalance_1_1nifty.html#a673f4a044169f5d8d822823989a836a7" target="_top" xlink:title="Submit a job to the Work Queue.">
<polygon fill="white" stroke="black" points="260,-57.5 260,-76.5 410,-76.5 410,-57.5 260,-57.5"/>
<text text-anchor="middle" x="335" y="-64.5" font-family="Ubuntu-R" font-size="10.00">forcebalance.nifty.queue_up</text>
</a>
</g>
<!-- Node1&#45;&gt;Node2 -->
<g id="edge2" class="edge"><title>Node1&#45;&gt;Node2</title>
<path fill="none" stroke="midnightblue" d="M210.325,-56.6937C223.463,-57.7886 236.774,-58.8978 249.553,-59.9627"/>
<polygon fill="midnightblue" stroke="midnightblue" points="249.417,-63.4635 259.673,-60.8061 249.999,-56.4877 249.417,-63.4635"/>
</g>
<!-- Node10 -->
<g id="node20" class="node"><title>Node10</title>
<a xlink:href="classforcebalance_1_1liquid_1_1Liquid.html#ae94ce30dfd0e92fdd6d746e6743be844" target="_top" xlink:title="forcebalance.liquid.Liquid.indicate">
<polygon fill="white" stroke="black" points="246.5,-19.5 246.5,-38.5 423.5,-38.5 423.5,-19.5 246.5,-19.5"/>
<text text-anchor="middle" x="335" y="-26.5" font-family="Ubuntu-R" font-size="10.00">forcebalance.liquid.Liquid.indicate</text>
</a>
</g>
<!-- Node1&#45;&gt;Node10 -->
<g id="edge20" class="edge"><title>Node1&#45;&gt;Node10</title>
<path fill="none" stroke="midnightblue" d="M210.325,-39.3063C219.005,-38.5829 227.761,-37.8532 236.39,-37.1342"/>
<polygon fill="midnightblue" stroke="midnightblue" points="236.772,-40.6145 246.447,-36.2961 236.191,-33.6387 236.772,-40.6145"/>
</g>
<!-- Node3 -->
<g id="node5" class="node"><title>Node3</title>
<a xlink:href="namespaceforcebalance_1_1nifty.html#a374aac2ef003be02fab49b20ff0a82f0" target="_top" xlink:title="This function waits ten seconds to see if a task in the Work Queue has finished.">
<polygon fill="white" stroke="black" points="460,-57.5 460,-76.5 606,-76.5 606,-57.5 460,-57.5"/>
<text text-anchor="middle" x="533" y="-64.5" font-family="Ubuntu-R" font-size="10.00">forcebalance.nifty.wq_wait1</text>
</a>
</g>
<!-- Node2&#45;&gt;Node3 -->
<g id="edge4" class="edge"><title>Node2&#45;&gt;Node3</title>
<path fill="none" stroke="midnightblue" d="M410.099,-67C422.93,-67 436.343,-67 449.383,-67"/>
<polygon fill="midnightblue" stroke="midnightblue" points="449.743,-70.5001 459.743,-67 449.743,-63.5001 449.743,-70.5001"/>
</g>
<!-- Node4 -->
<g id="node7" class="node"><title>Node4</title>
<a xlink:href="namespaceforcebalance_1_1nifty.html#a576de8c5b6f236280e07e73e39b2ab7c" target="_top" xlink:title="This function waits until the work queue is completely empty.">
<polygon fill="white" stroke="black" points="642,-114.5 642,-133.5 782,-133.5 782,-114.5 642,-114.5"/>
<text text-anchor="middle" x="712" y="-121.5" font-family="Ubuntu-R" font-size="10.00">forcebalance.nifty.wq_wait</text>
</a>
</g>
<!-- Node3&#45;&gt;Node4 -->
<g id="edge6" class="edge"><title>Node3&#45;&gt;Node4</title>
<path fill="none" stroke="midnightblue" d="M563.626,-76.5405C593.236,-86.076 638.938,-100.794 671.594,-111.31"/>
<polygon fill="midnightblue" stroke="midnightblue" points="670.686,-114.694 681.278,-114.428 672.832,-108.031 670.686,-114.694"/>
</g>
<!-- Node5 -->
<g id="node9" class="node"><title>Node5</title>
<a xlink:href="namespaceforcebalance_1_1nifty.html#ac9ab6c5543a2e3080061e0024850edf3" target="_top" xlink:title="forcebalance.nifty.allsplit">
<polygon fill="white" stroke="black" points="818.5,-95.5 818.5,-114.5 951.5,-114.5 951.5,-95.5 818.5,-95.5"/>
<text text-anchor="middle" x="885" y="-102.5" font-family="Ubuntu-R" font-size="10.00">forcebalance.nifty.allsplit</text>
</a>
</g>
<!-- Node3&#45;&gt;Node5 -->
<g id="edge16" class="edge"><title>Node3&#45;&gt;Node5</title>
<path fill="none" stroke="midnightblue" d="M606.096,-74.8275C665.117,-81.2355 748.358,-90.2731 808.329,-96.7843"/>
<polygon fill="midnightblue" stroke="midnightblue" points="808.176,-100.288 818.495,-97.888 808.931,-93.329 808.176,-100.288"/>
</g>
<!-- Node8 -->
<g id="node15" class="node"><title>Node8</title>
<a xlink:href="namespaceforcebalance_1_1nifty.html#ad432b88307e1178b0690c0d350b1af36" target="_top" xlink:title="forcebalance.nifty.GoInto">
<polygon fill="white" stroke="black" points="645,-38.5 645,-57.5 779,-57.5 779,-38.5 645,-38.5"/>
<text text-anchor="middle" x="712" y="-45.5" font-family="Ubuntu-R" font-size="10.00">forcebalance.nifty.GoInto</text>
</a>
</g>
<!-- Node3&#45;&gt;Node8 -->
<g id="edge14" class="edge"><title>Node3&#45;&gt;Node8</title>
<path fill="none" stroke="midnightblue" d="M606.248,-59.2446C615.655,-58.2348 625.315,-57.1978 634.784,-56.1814"/>
<polygon fill="midnightblue" stroke="midnightblue" points="635.394,-59.6361 644.963,-55.0887 634.646,-52.6761 635.394,-59.6361"/>
</g>
<!-- Node9 -->
<g id="node18" class="node"><title>Node9</title>
<a xlink:href="namespaceforcebalance_1_1nifty.html#ab04e8690d099db2379dc860e0d040120" target="_top" xlink:title="forcebalance.nifty.Leave">
<polygon fill="white" stroke="black" points="646.5,-0.5 646.5,-19.5 777.5,-19.5 777.5,-0.5 646.5,-0.5"/>
<text text-anchor="middle" x="712" y="-7.5" font-family="Ubuntu-R" font-size="10.00">forcebalance.nifty.Leave</text>
</a>
</g>
<!-- Node3&#45;&gt;Node9 -->
<g id="edge18" class="edge"><title>Node3&#45;&gt;Node9</title>
<path fill="none" stroke="midnightblue" d="M559.581,-57.4335C581.359,-49.4257 613.548,-37.911 642,-29 649.255,-26.7278 656.984,-24.4563 664.545,-22.3151"/>
<polygon fill="midnightblue" stroke="midnightblue" points="665.643,-25.6427 674.336,-19.5861 663.763,-18.8998 665.643,-25.6427"/>
</g>
<!-- Node4&#45;&gt;Node5 -->
<g id="edge8" class="edge"><title>Node4&#45;&gt;Node5</title>
<path fill="none" stroke="midnightblue" d="M782.059,-116.327C790.654,-115.372 799.478,-114.391 808.168,-113.426"/>
<polygon fill="midnightblue" stroke="midnightblue" points="808.733,-116.885 818.285,-112.302 807.96,-109.927 808.733,-116.885"/>
</g>
<!-- Node6 -->
<g id="node11" class="node"><title>Node6</title>
<a xlink:href="namespaceforcebalance_1_1nifty.html#ae87c7def5f8edf2ec30737bdb1d2636f" target="_top" xlink:title="forcebalance.nifty.MissingFileInspection">
<polygon fill="white" stroke="black" points="988,-95.5 988,-114.5 1190,-114.5 1190,-95.5 988,-95.5"/>
<text text-anchor="middle" x="1089" y="-102.5" font-family="Ubuntu-R" font-size="10.00">forcebalance.nifty.MissingFileInspection</text>
</a>
</g>
<!-- Node5&#45;&gt;Node6 -->
<g id="edge10" class="edge"><title>Node5&#45;&gt;Node6</title>
<path fill="none" stroke="midnightblue" d="M951.584,-105C960.037,-105 968.87,-105 977.8,-105"/>
<polygon fill="midnightblue" stroke="midnightblue" points="977.907,-108.5 987.907,-105 977.907,-101.5 977.907,-108.5"/>
</g>
<!-- Node7 -->
<g id="node13" class="node"><title>Node7</title>
<a xlink:href="namespaceforcebalance_1_1nifty.html#a0cf4e58f90acf20e3d6224be2354082c" target="_top" xlink:title="forcebalance.nifty.link_dir_contents">
<polygon fill="white" stroke="black" points="1226.5,-95.5 1226.5,-114.5 1409.5,-114.5 1409.5,-95.5 1226.5,-95.5"/>
<text text-anchor="middle" x="1318" y="-102.5" font-family="Ubuntu-R" font-size="10.00">forcebalance.nifty.link_dir_contents</text>
</a>
</g>
<!-- Node6&#45;&gt;Node7 -->
<g id="edge12" class="edge"><title>Node6&#45;&gt;Node7</title>
<path fill="none" stroke="midnightblue" d="M1190.23,-105C1198.85,-105 1207.57,-105 1216.2,-105"/>
<polygon fill="midnightblue" stroke="midnightblue" points="1216.27,-108.5 1226.27,-105 1216.27,-101.5 1216.27,-108.5"/>
</g>
</g>
</svg>
