<?xml version="1.0" encoding="UTF-8" standalone="no"?>
<!DOCTYPE svg PUBLIC "-//W3C//DTD SVG 1.1//EN"
 "http://www.w3.org/Graphics/SVG/1.1/DTD/svg11.dtd">
<!-- Generated by graphviz version 2.28.0 (20111219.2309)
 -->
<!-- Title: G Pages: 1 -->
<svg width="2138pt" height="261pt"
 viewBox="0.00 0.00 2138.00 260.58" xmlns="http://www.w3.org/2000/svg" xmlns:xlink="http://www.w3.org/1999/xlink">
<g id="graph1" class="graph" transform="scale(1 1) rotate(0) translate(4 256.577)">
<title>G</title>
<polygon fill="white" stroke="white" points="-4,5 -4,-256.577 2135,-256.577 2135,5 -4,5"/>
<!-- Node1 -->
<g id="node1" class="node"><title>Node1</title>
<polygon fill="#bfbfbf" stroke="black" points="0.5,-171.5 0.5,-190.5 237.5,-190.5 237.5,-171.5 0.5,-171.5"/>
<text text-anchor="middle" x="119" y="-178.5" font-family="Ubuntu-R" font-size="10.00">forcebalance.objective.Objective.Target_Terms</text>
</g>
<!-- Node2 -->
<g id="node3" class="node"><title>Node2</title>
<a xlink:href="namespaceforcebalance_1_1finite__difference.html#ad84d3e385db1190e7d8ef58bc08a6c52" target="_top" xlink:title="Invoking this function from anywhere will tell us whether we&#39;re being called by a finite&#45;difference f...">
<polygon fill="white" stroke="black" points="754,-199.5 754,-218.5 936,-218.5 936,-199.5 754,-199.5"/>
<text text-anchor="middle" x="845" y="-206.5" font-family="Ubuntu-R" font-size="10.00">forcebalance.finite_difference.in_fd</text>
</a>
</g>
<!-- Node1&#45;&gt;Node2 -->
<g id="edge2" class="edge"><title>Node1&#45;&gt;Node2</title>
<path fill="none" stroke="midnightblue" d="M139.304,-190.696C167.873,-204.448 223.488,-228.952 274,-238 459.478,-271.224 683.928,-239.085 787.101,-220.358"/>
<polygon fill="midnightblue" stroke="midnightblue" points="787.798,-223.789 796.999,-218.535 786.53,-216.905 787.798,-223.789"/>
</g>
<!-- Node3 -->
<g id="node5" class="node"><title>Node3</title>
<a xlink:href="namespaceforcebalance_1_1nifty.html#ac37d4fe58ef70ed546ebfc45d12f7a5d" target="_top" xlink:title="forcebalance.nifty.getWorkQueue">
<polygon fill="white" stroke="black" points="293.5,-209.5 293.5,-228.5 466.5,-228.5 466.5,-209.5 293.5,-209.5"/>
<text text-anchor="middle" x="380" y="-216.5" font-family="Ubuntu-R" font-size="10.00">forcebalance.nifty.getWorkQueue</text>
</a>
</g>
<!-- Node1&#45;&gt;Node3 -->
<g id="edge4" class="edge"><title>Node1&#45;&gt;Node3</title>
<path fill="none" stroke="midnightblue" d="M185.022,-190.54C221.199,-195.848 266.388,-202.478 304.047,-208.003"/>
<polygon fill="midnightblue" stroke="midnightblue" points="303.549,-211.467 313.951,-209.456 304.565,-204.541 303.549,-211.467"/>
</g>
<!-- Node4 -->
<g id="node7" class="node"><title>Node4</title>
<a xlink:href="namespaceforcebalance_1_1nifty.html#a576de8c5b6f236280e07e73e39b2ab7c" target="_top" xlink:title="This function waits until the work queue is completely empty.">
<polygon fill="white" stroke="black" points="310,-171.5 310,-190.5 450,-190.5 450,-171.5 310,-171.5"/>
<text text-anchor="middle" x="380" y="-178.5" font-family="Ubuntu-R" font-size="10.00">forcebalance.nifty.wq_wait</text>
</a>
</g>
<!-- Node1&#45;&gt;Node4 -->
<g id="edge6" class="edge"><title>Node1&#45;&gt;Node4</title>
<path fill="none" stroke="midnightblue" d="M237.753,-181C258.691,-181 280.042,-181 299.593,-181"/>
<polygon fill="midnightblue" stroke="midnightblue" points="299.641,-184.5 309.641,-181 299.641,-177.5 299.641,-184.5"/>
</g>
<!-- Node6 -->
<g id="node11" class="node"><title>Node6</title>
<a xlink:href="classforcebalance_1_1objective_1_1Objective.html#a184305cae26dd9be2351297340481ca5" target="_top" xlink:title="Print objective function contributions.">
<polygon fill="white" stroke="black" points="274,-133.5 274,-152.5 486,-152.5 486,-133.5 274,-133.5"/>
<text text-anchor="middle" x="380" y="-140.5" font-family="Ubuntu-R" font-size="10.00">forcebalance.objective.Objective.Indicate</text>
</a>
</g>
<!-- Node1&#45;&gt;Node6 -->
<g id="edge10" class="edge"><title>Node1&#45;&gt;Node6</title>
<path fill="none" stroke="midnightblue" d="M153.066,-171.461C181.286,-165.759 223.603,-158.876 264.011,-153.159"/>
<polygon fill="midnightblue" stroke="midnightblue" points="264.538,-156.619 273.958,-151.77 263.57,-149.686 264.538,-156.619"/>
</g>
<!-- Node5 -->
<g id="node9" class="node"><title>Node5</title>
<a xlink:href="namespaceforcebalance_1_1nifty.html#ad432b88307e1178b0690c0d350b1af36" target="_top" xlink:title="forcebalance.nifty.GoInto">
<polygon fill="white" stroke="black" points="553,-171.5 553,-190.5 687,-190.5 687,-171.5 553,-171.5"/>
<text text-anchor="middle" x="620" y="-178.5" font-family="Ubuntu-R" font-size="10.00">forcebalance.nifty.GoInto</text>
</a>
</g>
<!-- Node4&#45;&gt;Node5 -->
<g id="edge8" class="edge"><title>Node4&#45;&gt;Node5</title>
<path fill="none" stroke="midnightblue" d="M450.159,-181C479.133,-181 512.919,-181 542.622,-181"/>
<polygon fill="midnightblue" stroke="midnightblue" points="542.943,-184.5 552.943,-181 542.943,-177.5 542.943,-184.5"/>
</g>
<!-- Node6&#45;&gt;Node1 -->
<g id="edge54" class="edge"><title>Node6&#45;&gt;Node1</title>
<path fill="none" stroke="midnightblue" d="M346.115,-152.503C319.27,-157.933 279.583,-164.442 240.921,-169.996"/>
<polygon fill="midnightblue" stroke="midnightblue" points="240,-166.591 230.591,-171.46 240.983,-173.522 240,-166.591"/>
</g>
<!-- Node7 -->
<g id="node13" class="node"><title>Node7</title>
<a xlink:href="namespaceforcebalance_1_1nifty.html#a51180e960742cc7547749fdfb3513ec4" target="_top" xlink:title="See documentation for printcool; this is a nice way to print out keys/values in a dictionary...">
<polygon fill="white" stroke="black" points="522,-95.5 522,-114.5 718,-114.5 718,-95.5 522,-95.5"/>
<text text-anchor="middle" x="620" y="-102.5" font-family="Ubuntu-R" font-size="10.00">forcebalance.nifty.printcool_dictionary</text>
</a>
</g>
<!-- Node6&#45;&gt;Node7 -->
<g id="edge12" class="edge"><title>Node6&#45;&gt;Node7</title>
<path fill="none" stroke="midnightblue" d="M440.75,-133.46C473.711,-128.197 514.813,-121.635 549.24,-116.138"/>
<polygon fill="midnightblue" stroke="midnightblue" points="549.902,-119.577 559.225,-114.544 548.798,-112.664 549.902,-119.577"/>
</g>
<!-- Node21 -->
<g id="node45" class="node"><title>Node21</title>
<a xlink:href="classforcebalance_1_1objective_1_1Objective.html#a3996f95feb58197088775fe439ec697b" target="_top" xlink:title="forcebalance.objective.Objective.Full">
<polygon fill="white" stroke="black" points="525.5,-133.5 525.5,-152.5 714.5,-152.5 714.5,-133.5 525.5,-133.5"/>
<text text-anchor="middle" x="620" y="-140.5" font-family="Ubuntu-R" font-size="10.00">forcebalance.objective.Objective.Full</text>
</a>
</g>
<!-- Node6&#45;&gt;Node21 -->
<g id="edge48" class="edge"><title>Node6&#45;&gt;Node21</title>
<path fill="none" stroke="midnightblue" d="M486.083,-136.291C495.787,-136.234 505.617,-136.236 515.308,-136.3"/>
<polygon fill="midnightblue" stroke="midnightblue" points="515.317,-139.8 525.347,-136.388 515.378,-132.8 515.317,-139.8"/>
</g>
<!-- Node8 -->
<g id="node15" class="node"><title>Node8</title>
<a xlink:href="namespaceforcebalance_1_1nifty.html#a3f1c7a1af9d35d5d1693074bc6f5497c" target="_top" xlink:title="ONLY matches integers! If you have a decimal point? None shall pass!">
<polygon fill="white" stroke="black" points="784,-76.5 784,-95.5 906,-95.5 906,-76.5 784,-76.5"/>
<text text-anchor="middle" x="845" y="-83.5" font-family="Ubuntu-R" font-size="10.00">forcebalance.nifty.isint</text>
</a>
</g>
<!-- Node7&#45;&gt;Node8 -->
<g id="edge14" class="edge"><title>Node7&#45;&gt;Node8</title>
<path fill="none" stroke="midnightblue" d="M718.162,-96.7216C736.804,-95.1333 755.99,-93.4986 773.588,-91.9993"/>
<polygon fill="midnightblue" stroke="midnightblue" points="774.083,-95.4699 783.749,-91.1335 773.488,-88.4951 774.083,-95.4699"/>
</g>
<!-- Node10 -->
<g id="node19" class="node"><title>Node10</title>
<a xlink:href="namespaceforcebalance_1_1nifty.html#a8e3ef0108b9d37b82ba0dced7c6037ae" target="_top" xlink:title="Matches ANY number; it can be a decimal, scientific notation, what have you CAUTION &#45; this will also ...">
<polygon fill="white" stroke="black" points="1156.5,-76.5 1156.5,-95.5 1287.5,-95.5 1287.5,-76.5 1156.5,-76.5"/>
<text text-anchor="middle" x="1222" y="-83.5" font-family="Ubuntu-R" font-size="10.00">forcebalance.nifty.isfloat</text>
</a>
</g>
<!-- Node7&#45;&gt;Node10 -->
<g id="edge46" class="edge"><title>Node7&#45;&gt;Node10</title>
<path fill="none" stroke="midnightblue" d="M718.253,-108.181C818.96,-110.501 980.774,-111.506 1120,-100 1129.79,-99.1908 1140.08,-98.0745 1150.2,-96.8222"/>
<polygon fill="midnightblue" stroke="midnightblue" points="1150.76,-100.279 1160.23,-95.531 1149.87,-93.3362 1150.76,-100.279"/>
</g>
<!-- Node9 -->
<g id="node17" class="node"><title>Node9</title>
<a xlink:href="namespaceforcebalance_1_1nifty.html#a09263927eaec9deff283fbf1a820242f" target="_top" xlink:title="Matches things with a decimal only; see isint and isfloat.">
<polygon fill="white" stroke="black" points="972,-38.5 972,-57.5 1120,-57.5 1120,-38.5 972,-38.5"/>
<text text-anchor="middle" x="1046" y="-45.5" font-family="Ubuntu-R" font-size="10.00">forcebalance.nifty.isdecimal</text>
</a>
</g>
<!-- Node8&#45;&gt;Node9 -->
<g id="edge16" class="edge"><title>Node8&#45;&gt;Node9</title>
<path fill="none" stroke="midnightblue" d="M895.959,-76.46C923.045,-71.2878 956.708,-64.8599 985.183,-59.4222"/>
<polygon fill="midnightblue" stroke="midnightblue" points="985.854,-62.8575 995.02,-57.5439 984.541,-55.9817 985.854,-62.8575"/>
</g>
<!-- Node9&#45;&gt;Node10 -->
<g id="edge18" class="edge"><title>Node9&#45;&gt;Node10</title>
<path fill="none" stroke="midnightblue" d="M1090.91,-57.589C1114.18,-62.6713 1142.95,-68.9554 1167.52,-74.3203"/>
<polygon fill="midnightblue" stroke="midnightblue" points="1166.89,-77.7657 1177.41,-76.4799 1168.39,-70.9268 1166.89,-77.7657"/>
</g>
<!-- Node14 -->
<g id="node28" class="node"><title>Node14</title>
<a xlink:href="namespaceforcebalance_1_1nifty.html#afb3f205bce4984856e766af7e9fdaca8" target="_top" xlink:title="Given any list, array, or matrix, return a 1&#45;column matrix.">
<polygon fill="white" stroke="black" points="1164,-38.5 1164,-57.5 1280,-57.5 1280,-38.5 1164,-38.5"/>
<text text-anchor="middle" x="1222" y="-45.5" font-family="Ubuntu-R" font-size="10.00">forcebalance.nifty.col</text>
</a>
</g>
<!-- Node9&#45;&gt;Node14 -->
<g id="edge28" class="edge"><title>Node9&#45;&gt;Node14</title>
<path fill="none" stroke="midnightblue" d="M1120.04,-48C1131.1,-48 1142.47,-48 1153.42,-48"/>
<polygon fill="midnightblue" stroke="midnightblue" points="1153.75,-51.5001 1163.75,-48 1153.75,-44.5001 1153.75,-51.5001"/>
</g>
<!-- Node10&#45;&gt;Node8 -->
<g id="edge20" class="edge"><title>Node10&#45;&gt;Node8</title>
<path fill="none" stroke="midnightblue" d="M1156.5,-86C1089.68,-86 985.568,-86 916.586,-86"/>
<polygon fill="midnightblue" stroke="midnightblue" points="916.25,-82.5001 906.25,-86 916.25,-89.5001 916.25,-82.5001"/>
</g>
<!-- Node11 -->
<g id="node22" class="node"><title>Node11</title>
<a xlink:href="namespaceforcebalance_1_1nifty.html#a8d63c8ae9a67c66673a6cf81357f827d" target="_top" xlink:title="Returns a big number if we encounter NaN.">
<polygon fill="white" stroke="black" points="1324,-76.5 1324,-95.5 1476,-95.5 1476,-76.5 1324,-76.5"/>
<text text-anchor="middle" x="1400" y="-83.5" font-family="Ubuntu-R" font-size="10.00">forcebalance.nifty.floatornan</text>
</a>
</g>
<!-- Node10&#45;&gt;Node11 -->
<g id="edge22" class="edge"><title>Node10&#45;&gt;Node11</title>
<path fill="none" stroke="midnightblue" d="M1287.54,-86C1296,-86 1304.77,-86 1313.51,-86"/>
<polygon fill="midnightblue" stroke="midnightblue" points="1313.74,-89.5001 1323.74,-86 1313.74,-82.5001 1313.74,-89.5001"/>
</g>
<!-- Node12 -->
<g id="node24" class="node"><title>Node12</title>
<a xlink:href="namespaceforcebalance_1_1nifty.html#a6c9727360cdff8f3011a12cc54d0e86e" target="_top" xlink:title="Given any list, array, or matrix, return a 1&#45;row matrix.">
<polygon fill="white" stroke="black" points="1528.5,-76.5 1528.5,-95.5 1647.5,-95.5 1647.5,-76.5 1528.5,-76.5"/>
<text text-anchor="middle" x="1588" y="-83.5" font-family="Ubuntu-R" font-size="10.00">forcebalance.nifty.row</text>
</a>
</g>
<!-- Node11&#45;&gt;Node12 -->
<g id="edge24" class="edge"><title>Node11&#45;&gt;Node12</title>
<path fill="none" stroke="midnightblue" d="M1476.12,-86C1490.02,-86 1504.47,-86 1518.17,-86"/>
<polygon fill="midnightblue" stroke="midnightblue" points="1518.48,-89.5001 1528.48,-86 1518.48,-82.5001 1518.48,-89.5001"/>
</g>
<!-- Node13 -->
<g id="node26" class="node"><title>Node13</title>
<a xlink:href="namespaceforcebalance_1_1nifty.html#a7676236002c6a65ea7d2e69a09923889" target="_top" xlink:title="Given two vectors vec1 and vec2, project out the component of vec1 that is along the vec2&#45;direction...">
<polygon fill="white" stroke="black" points="1712,-76.5 1712,-95.5 1880,-95.5 1880,-76.5 1712,-76.5"/>
<text text-anchor="middle" x="1796" y="-83.5" font-family="Ubuntu-R" font-size="10.00">forcebalance.nifty.orthogonalize</text>
</a>
</g>
<!-- Node12&#45;&gt;Node13 -->
<g id="edge26" class="edge"><title>Node12&#45;&gt;Node13</title>
<path fill="none" stroke="midnightblue" d="M1647.76,-86C1664.61,-86 1683.42,-86 1701.81,-86"/>
<polygon fill="midnightblue" stroke="midnightblue" points="1701.97,-89.5001 1711.97,-86 1701.97,-82.5001 1701.97,-89.5001"/>
</g>
<!-- Node15 -->
<g id="node30" class="node"><title>Node15</title>
<a xlink:href="namespaceforcebalance_1_1nifty.html#a52114ceee9d55f94d9aecb3e176de294" target="_top" xlink:title="Given any list, array, or matrix, return a single&#45;index array.">
<polygon fill="white" stroke="black" points="1341,-38.5 1341,-57.5 1459,-57.5 1459,-38.5 1341,-38.5"/>
<text text-anchor="middle" x="1400" y="-45.5" font-family="Ubuntu-R" font-size="10.00">forcebalance.nifty.flat</text>
</a>
</g>
<!-- Node14&#45;&gt;Node15 -->
<g id="edge30" class="edge"><title>Node14&#45;&gt;Node15</title>
<path fill="none" stroke="midnightblue" d="M1280.14,-48C1296.27,-48 1313.98,-48 1330.69,-48"/>
<polygon fill="midnightblue" stroke="midnightblue" points="1330.94,-51.5001 1340.94,-48 1330.94,-44.5001 1330.94,-51.5001"/>
</g>
<!-- Node16 -->
<g id="node32" class="node"><title>Node16</title>
<a xlink:href="namespaceforcebalance_1_1nifty.html#a4c82187e92dfeb8a159f4aa44b501c40" target="_top" xlink:title="Invert a matrix using singular value decomposition.">
<polygon fill="white" stroke="black" points="1512,-0.5 1512,-19.5 1664,-19.5 1664,-0.5 1512,-0.5"/>
<text text-anchor="middle" x="1588" y="-7.5" font-family="Ubuntu-R" font-size="10.00">forcebalance.nifty.invert_svd</text>
</a>
</g>
<!-- Node15&#45;&gt;Node16 -->
<g id="edge32" class="edge"><title>Node15&#45;&gt;Node16</title>
<path fill="none" stroke="midnightblue" d="M1447.94,-38.411C1473.03,-33.2835 1504.12,-26.9328 1530.53,-21.5368"/>
<polygon fill="midnightblue" stroke="midnightblue" points="1531.3,-24.951 1540.4,-19.5201 1529.9,-18.0926 1531.3,-24.951"/>
</g>
<!-- Node16&#45;&gt;Node14 -->
<g id="edge40" class="edge"><title>Node16&#45;&gt;Node14</title>
<path fill="none" stroke="midnightblue" d="M1511.95,-13.1476C1459.22,-15.9143 1387.1,-20.8122 1324,-29 1308.9,-30.9586 1292.65,-33.7219 1277.69,-36.536"/>
<polygon fill="midnightblue" stroke="midnightblue" points="1276.73,-33.1568 1267.57,-38.4831 1278.05,-40.0308 1276.73,-33.1568"/>
</g>
<!-- Node17 -->
<g id="node34" class="node"><title>Node17</title>
<a xlink:href="namespaceforcebalance_1_1nifty.html#aa9fb9c7c65231eca50a7afc04f489b64" target="_top" xlink:title="forcebalance.nifty.get_least_squares">
<polygon fill="white" stroke="black" points="1700.5,-38.5 1700.5,-57.5 1891.5,-57.5 1891.5,-38.5 1700.5,-38.5"/>
<text text-anchor="middle" x="1796" y="-45.5" font-family="Ubuntu-R" font-size="10.00">forcebalance.nifty.get_least_squares</text>
</a>
</g>
<!-- Node16&#45;&gt;Node17 -->
<g id="edge34" class="edge"><title>Node16&#45;&gt;Node17</title>
<path fill="none" stroke="midnightblue" d="M1640.72,-19.54C1668.76,-24.7122 1703.6,-31.1401 1733.08,-36.5778"/>
<polygon fill="midnightblue" stroke="midnightblue" points="1732.79,-40.0839 1743.26,-38.4561 1734.06,-33.2001 1732.79,-40.0839"/>
</g>
<!-- Node19 -->
<g id="node40" class="node"><title>Node19</title>
<a xlink:href="namespaceforcebalance_1_1nifty.html#abb8f59044961a12588e0653c2baa8b01" target="_top" xlink:title="forcebalance.nifty.warn_press_key">
<polygon fill="white" stroke="black" points="1706.5,-0.5 1706.5,-19.5 1885.5,-19.5 1885.5,-0.5 1706.5,-0.5"/>
<text text-anchor="middle" x="1796" y="-7.5" font-family="Ubuntu-R" font-size="10.00">forcebalance.nifty.warn_press_key</text>
</a>
</g>
<!-- Node16&#45;&gt;Node19 -->
<g id="edge42" class="edge"><title>Node16&#45;&gt;Node19</title>
<path fill="none" stroke="midnightblue" d="M1664.25,-10C1674.61,-10 1685.38,-10 1696.09,-10"/>
<polygon fill="midnightblue" stroke="midnightblue" points="1696.33,-13.5001 1706.33,-10 1696.33,-6.5001 1696.33,-13.5001"/>
</g>
<!-- Node17&#45;&gt;Node15 -->
<g id="edge36" class="edge"><title>Node17&#45;&gt;Node15</title>
<path fill="none" stroke="midnightblue" d="M1700.32,-48C1629.16,-48 1533.35,-48 1469.49,-48"/>
<polygon fill="midnightblue" stroke="midnightblue" points="1469.14,-44.5001 1459.14,-48 1469.14,-51.5001 1469.14,-44.5001"/>
</g>
<!-- Node18 -->
<g id="node37" class="node"><title>Node18</title>
<a xlink:href="namespaceforcebalance_1_1nifty.html#ad5ca60565c864b4245a8212fe9d92e10" target="_top" xlink:title="Compute the (cross) statistical inefficiency of (two) timeseries.">
<polygon fill="white" stroke="black" points="1928.5,-38.5 1928.5,-57.5 2129.5,-57.5 2129.5,-38.5 1928.5,-38.5"/>
<text text-anchor="middle" x="2029" y="-45.5" font-family="Ubuntu-R" font-size="10.00">forcebalance.nifty.statisticalInefficiency</text>
</a>
</g>
<!-- Node17&#45;&gt;Node18 -->
<g id="edge38" class="edge"><title>Node17&#45;&gt;Node18</title>
<path fill="none" stroke="midnightblue" d="M1891.62,-48C1900.4,-48 1909.35,-48 1918.25,-48"/>
<polygon fill="midnightblue" stroke="midnightblue" points="1918.27,-51.5001 1928.27,-48 1918.27,-44.5001 1918.27,-51.5001"/>
</g>
<!-- Node20 -->
<g id="node42" class="node"><title>Node20</title>
<a xlink:href="namespaceforcebalance_1_1nifty.html#a2fc81730e7efa7d138dd86f733507bfc" target="_top" xlink:title="Similar to the bultin function map().">
<polygon fill="white" stroke="black" points="1938,-0.5 1938,-19.5 2120,-19.5 2120,-0.5 1938,-0.5"/>
<text text-anchor="middle" x="2029" y="-7.5" font-family="Ubuntu-R" font-size="10.00">forcebalance.nifty.concurrent_map</text>
</a>
</g>
<!-- Node19&#45;&gt;Node20 -->
<g id="edge44" class="edge"><title>Node19&#45;&gt;Node20</title>
<path fill="none" stroke="midnightblue" d="M1885.65,-10C1899.37,-10 1913.62,-10 1927.58,-10"/>
<polygon fill="midnightblue" stroke="midnightblue" points="1927.68,-13.5001 1937.68,-10 1927.68,-6.5001 1927.68,-13.5001"/>
</g>
<!-- Node21&#45;&gt;Node2 -->
<g id="edge50" class="edge"><title>Node21&#45;&gt;Node2</title>
<path fill="none" stroke="midnightblue" d="M677.79,-152.507C691.082,-155.178 705.119,-158.362 718,-162 750.729,-171.242 787.006,-185.184 812.197,-195.484"/>
<polygon fill="midnightblue" stroke="midnightblue" points="811.03,-198.789 821.609,-199.374 813.704,-192.32 811.03,-198.789"/>
</g>
<!-- Node21&#45;&gt;Node6 -->
<g id="edge52" class="edge"><title>Node21&#45;&gt;Node6</title>
<path fill="none" stroke="midnightblue" d="M525.347,-149.612C515.783,-149.718 505.99,-149.763 496.23,-149.747"/>
<polygon fill="midnightblue" stroke="midnightblue" points="496.096,-146.247 486.083,-149.709 496.07,-153.247 496.096,-146.247"/>
</g>
</g>
</svg>
