<?xml version="1.0" encoding="UTF-8" standalone="no"?>
<!DOCTYPE svg PUBLIC "-//W3C//DTD SVG 1.1//EN"
 "http://www.w3.org/Graphics/SVG/1.1/DTD/svg11.dtd">
<!-- Generated by graphviz version 2.28.0 (20111219.2309)
 -->
<!-- Title: forcebalance.leastsq.LeastSquares Pages: 1 -->
<svg width="152pt" height="208pt"
 viewBox="0.00 0.00 152.00 208.00" xmlns="http://www.w3.org/2000/svg" xmlns:xlink="http://www.w3.org/1999/xlink">
<g id="graph1" class="graph" transform="scale(1 1) rotate(0) translate(4 204)">
<title>forcebalance.leastsq.LeastSquares</title>
<polygon fill="white" stroke="white" points="-4,5 -4,-204 149,-204 149,5 -4,5"/>
<!-- Node1 -->
<g id="node1" class="node"><title>Node1</title>
<polygon fill="#bfbfbf" stroke="black" points="-0.5,-1 -0.5,-31 144.5,-31 144.5,-1 -0.5,-1"/>
<text text-anchor="start" x="7.5" y="-19" font-family="Ubuntu-R" font-size="10.00">forcebalance.leastsq.Least</text>
<text text-anchor="middle" x="72" y="-8" font-family="Ubuntu-R" font-size="10.00">Squares</text>
</g>
<!-- Node2 -->
<g id="node2" class="node"><title>Node2</title>
<a xlink:href="classforcebalance_1_1target_1_1Target.html" target="_top" xlink:title="Base class for all fitting targets. ">
<polygon fill="white" stroke="black" points="0.5,-68.5 0.5,-87.5 143.5,-87.5 143.5,-68.5 0.5,-68.5"/>
<text text-anchor="middle" x="72" y="-75.5" font-family="Ubuntu-R" font-size="10.00">forcebalance.target.Target</text>
</a>
</g>
<!-- Node2&#45;&gt;Node1 -->
<g id="edge2" class="edge"><title>Node2&#45;&gt;Node1</title>
<path fill="none" stroke="midnightblue" d="M72,-58.3707C72,-49.5849 72,-39.2721 72,-31.1408"/>
<polygon fill="midnightblue" stroke="midnightblue" points="68.5001,-58.4034 72,-68.4035 75.5001,-58.4035 68.5001,-58.4034"/>
</g>
<!-- Node3 -->
<g id="node4" class="node"><title>Node3</title>
<a xlink:href="classforcebalance_1_1BaseClass.html" target="_top" xlink:title="Provides some nifty functions that are common to all ForceBalance classes. ">
<polygon fill="white" stroke="black" points="6.5,-124.5 6.5,-143.5 137.5,-143.5 137.5,-124.5 6.5,-124.5"/>
<text text-anchor="middle" x="72" y="-131.5" font-family="Ubuntu-R" font-size="10.00">forcebalance.BaseClass</text>
</a>
</g>
<!-- Node3&#45;&gt;Node2 -->
<g id="edge4" class="edge"><title>Node3&#45;&gt;Node2</title>
<path fill="none" stroke="midnightblue" d="M72,-113.805C72,-104.91 72,-94.7798 72,-87.7511"/>
<polygon fill="midnightblue" stroke="midnightblue" points="68.5001,-114.083 72,-124.083 75.5001,-114.083 68.5001,-114.083"/>
</g>
<!-- Node4 -->
<g id="node6" class="node"><title>Node4</title>
<polygon fill="white" stroke="#bfbfbf" points="49,-180.5 49,-199.5 95,-199.5 95,-180.5 49,-180.5"/>
<text text-anchor="middle" x="72" y="-187.5" font-family="Ubuntu-R" font-size="10.00">object</text>
</g>
<!-- Node4&#45;&gt;Node3 -->
<g id="edge6" class="edge"><title>Node4&#45;&gt;Node3</title>
<path fill="none" stroke="midnightblue" d="M72,-169.805C72,-160.91 72,-150.78 72,-143.751"/>
<polygon fill="midnightblue" stroke="midnightblue" points="68.5001,-170.083 72,-180.083 75.5001,-170.083 68.5001,-170.083"/>
</g>
</g>
</svg>
