<?xml version="1.0" encoding="UTF-8" standalone="no"?>
<!DOCTYPE svg PUBLIC "-//W3C//DTD SVG 1.1//EN"
 "http://www.w3.org/Graphics/SVG/1.1/DTD/svg11.dtd">
<!-- Generated by graphviz version 2.26.3 (20100126.1600)
 -->
<!-- Title: forcebalance.tinkerio.TINKER.molecular_dynamics Pages: 1 -->
<svg width="1458pt" height="472pt"
 viewBox="0.00 0.00 1458.00 471.69" xmlns="http://www.w3.org/2000/svg" xmlns:xlink="http://www.w3.org/1999/xlink">
<g id="graph1" class="graph" transform="scale(1 1) rotate(0) translate(4 467.694)">
<title>forcebalance.tinkerio.TINKER.molecular_dynamics</title>
<polygon fill="white" stroke="white" points="-4,5 -4,-467.694 1455,-467.694 1455,5 -4,5"/>
<!-- Node1 -->
<g id="node1" class="node"><title>Node1</title>
<polygon fill="#bfbfbf" stroke="black" points="0.5,-191.499 0.5,-225.499 203.5,-225.499 203.5,-191.499 0.5,-191.499"/>
<text text-anchor="start" x="8.5" y="-212.499" font-family="Ubuntu-R" font-size="10.00">forcebalance.tinkerio.TINKER.molecular</text>
<text text-anchor="middle" x="102" y="-199.499" font-family="Ubuntu-R" font-size="10.00">_dynamics</text>
</g>
<!-- Node2 -->
<g id="node3" class="node"><title>Node2</title>
<a xlink:href="namespaceforcebalance_1_1nifty.html#a26e563ec71ed229c30f3d61d3448c8f1" target="_top" xlink:title="Prints a warning but will only do so once in a given run. ">
<polygon fill="white" stroke="black" points="1296,-407.999 1296,-428.999 1450,-428.999 1450,-407.999 1296,-407.999"/>
<text text-anchor="middle" x="1373" y="-415.999" font-family="Ubuntu-R" font-size="10.00">forcebalance.nifty.warn_once</text>
</a>
</g>
<!-- Node1&#45;&gt;Node2 -->
<g id="edge2" class="edge"><title>Node1&#45;&gt;Node2</title>
<path fill="none" stroke="midnightblue" d="M110.365,-225.689C128.641,-261.359 175.699,-343.574 240,-385.499 364.433,-466.63 416.454,-463.499 565,-463.499 565,-463.499 565,-463.499 1006,-463.499 1113.6,-463.499 1237.63,-444.207 1310.45,-430.887"/>
<polygon fill="midnightblue" stroke="midnightblue" points="1311.18,-434.311 1320.37,-429.049 1309.9,-427.428 1311.18,-434.311"/>
</g>
<!-- Node3 -->
<g id="node5" class="node"><title>Node3</title>
<a xlink:href="classforcebalance_1_1gmxio_1_1GMX.html#a26446fe0d7708c321fb39a2944ca5625" target="_top" xlink:title="Optimize the geometry and align the optimized geometry to the starting geometry. ">
<polygon fill="white" stroke="black" points="249.5,-354.999 249.5,-375.999 428.5,-375.999 428.5,-354.999 249.5,-354.999"/>
<text text-anchor="middle" x="339" y="-362.999" font-family="Ubuntu-R" font-size="10.00">forcebalance.gmxio.GMX.optimize</text>
</a>
</g>
<!-- Node1&#45;&gt;Node3 -->
<g id="edge4" class="edge"><title>Node1&#45;&gt;Node3</title>
<path fill="none" stroke="midnightblue" d="M127.814,-225.599C173.832,-256.084 269.428,-319.411 314.49,-349.262"/>
<polygon fill="midnightblue" stroke="midnightblue" points="312.782,-352.329 323.051,-354.934 316.648,-346.493 312.782,-352.329"/>
</g>
<!-- Node7 -->
<g id="node13" class="node"><title>Node7</title>
<a xlink:href="namespaceforcebalance_1_1nifty.html#a11babd62dc7bca389162c6318f9672ca" target="_top" xlink:title="Cool&#45;looking printout for slick formatting of output. ">
<polygon fill="white" stroke="black" points="934,-146.999 934,-167.999 1078,-167.999 1078,-146.999 934,-146.999"/>
<text text-anchor="middle" x="1006" y="-154.999" font-family="Ubuntu-R" font-size="10.00">forcebalance.nifty.printcool</text>
</a>
</g>
<!-- Node1&#45;&gt;Node7 -->
<g id="edge60" class="edge"><title>Node1&#45;&gt;Node7</title>
<path fill="none" stroke="midnightblue" d="M163.581,-191.497C236.861,-172.221 363.24,-141.986 474,-130.499 554.457,-122.154 575.171,-127.386 656,-130.499 747.71,-134.031 852.638,-142.751 923.497,-149.332"/>
<polygon fill="midnightblue" stroke="midnightblue" points="923.416,-152.84 933.699,-150.287 924.069,-145.871 923.416,-152.84"/>
</g>
<!-- Node16 -->
<g id="node33" class="node"><title>Node16</title>
<a xlink:href="classforcebalance_1_1openmmio_1_1OpenMM.html#a89b5d622f3f99e64eef752c2b3a89af6" target="_top" xlink:title="Optimize the geometry and align the optimized geometry to the starting geometry, and return the RMSD...">
<polygon fill="white" stroke="black" points="258.5,-191.499 258.5,-225.499 419.5,-225.499 419.5,-191.499 258.5,-191.499"/>
<text text-anchor="start" x="266.5" y="-212.499" font-family="Ubuntu-R" font-size="10.00">forcebalance.openmmio.Open</text>
<text text-anchor="middle" x="339" y="-199.499" font-family="Ubuntu-R" font-size="10.00">MM.optimize</text>
</a>
</g>
<!-- Node1&#45;&gt;Node16 -->
<g id="edge34" class="edge"><title>Node1&#45;&gt;Node16</title>
<path fill="none" stroke="midnightblue" d="M203.541,-208.499C218.444,-208.499 233.713,-208.499 248.378,-208.499"/>
<polygon fill="midnightblue" stroke="midnightblue" points="248.423,-211.999 258.423,-208.499 248.423,-204.999 248.423,-211.999"/>
</g>
<!-- Node20 -->
<g id="node41" class="node"><title>Node20</title>
<a xlink:href="classforcebalance_1_1tinkerio_1_1TINKER.html#a98b822222eafd8dd16f474e1fdebd2bf" target="_top" xlink:title="Optimize the geometry and align the optimized geometry to the starting geometry. ">
<polygon fill="white" stroke="black" points="240.5,-61.9988 240.5,-82.9988 437.5,-82.9988 437.5,-61.9988 240.5,-61.9988"/>
<text text-anchor="middle" x="339" y="-69.9988" font-family="Ubuntu-R" font-size="10.00">forcebalance.tinkerio.TINKER.optimize</text>
</a>
</g>
<!-- Node1&#45;&gt;Node20 -->
<g id="edge42" class="edge"><title>Node1&#45;&gt;Node20</title>
<path fill="none" stroke="midnightblue" d="M118.17,-191.486C142.365,-167.034 190.467,-122.186 240,-97.4988 249.378,-92.8247 259.703,-88.9762 270.039,-85.8213"/>
<polygon fill="midnightblue" stroke="midnightblue" points="271.263,-89.1119 279.92,-83.0047 269.344,-82.3801 271.263,-89.1119"/>
</g>
<!-- Node21 -->
<g id="node43" class="node"><title>Node21</title>
<a xlink:href="classforcebalance_1_1tinkerio_1_1TINKER.html#addfa1257c7cb85c51c980474c7354cab" target="_top" xlink:title="Call TINKER; prepend the tinkerpath to calling the TINKER program. ">
<polygon fill="white" stroke="black" points="692,-25.9988 692,-46.9988 890,-46.9988 890,-25.9988 692,-25.9988"/>
<text text-anchor="middle" x="791" y="-33.9988" font-family="Ubuntu-R" font-size="10.00">forcebalance.tinkerio.TINKER.calltinker</text>
</a>
</g>
<!-- Node1&#45;&gt;Node21 -->
<g id="edge62" class="edge"><title>Node1&#45;&gt;Node21</title>
<path fill="none" stroke="midnightblue" d="M110.985,-191.429C129.75,-157.788 176.671,-83.5035 240,-52.4988 405.324,28.4413 633.269,-3.21448 736.405,-23.9614"/>
<polygon fill="midnightblue" stroke="midnightblue" points="735.786,-27.4073 746.286,-25.9932 737.196,-20.5508 735.786,-27.4073"/>
</g>
<!-- Node23 -->
<g id="node49" class="node"><title>Node23</title>
<a xlink:href="namespaceforcebalance_1_1tinkerio.html#a6ec08d741fc7ca3bb7a28013b528317c" target="_top" xlink:title="Create or edit a TINKER .key file. ">
<polygon fill="white" stroke="black" points="483,-295.999 483,-316.999 647,-316.999 647,-295.999 483,-295.999"/>
<text text-anchor="middle" x="565" y="-303.999" font-family="Ubuntu-R" font-size="10.00">forcebalance.tinkerio.write_key</text>
</a>
</g>
<!-- Node1&#45;&gt;Node23 -->
<g id="edge52" class="edge"><title>Node1&#45;&gt;Node23</title>
<path fill="none" stroke="midnightblue" d="M182.384,-225.513C274.361,-244.981 422.859,-276.413 505.194,-293.84"/>
<polygon fill="midnightblue" stroke="midnightblue" points="504.635,-297.299 515.143,-295.946 506.084,-290.451 504.635,-297.299"/>
</g>
<!-- Node4 -->
<g id="node7" class="node"><title>Node4</title>
<a xlink:href="namespaceforcebalance_1_1gmxio.html#a73a881531c27adfddab62cda7f2232cd" target="_top" xlink:title="Create or edit a Gromacs MDP file. ">
<polygon fill="white" stroke="black" points="483.5,-335.999 483.5,-356.999 646.5,-356.999 646.5,-335.999 483.5,-335.999"/>
<text text-anchor="middle" x="565" y="-343.999" font-family="Ubuntu-R" font-size="10.00">forcebalance.gmxio.write_mdp</text>
</a>
</g>
<!-- Node3&#45;&gt;Node4 -->
<g id="edge6" class="edge"><title>Node3&#45;&gt;Node4</title>
<path fill="none" stroke="midnightblue" d="M428.646,-357.962C443.265,-356.733 458.429,-355.458 473.102,-354.225"/>
<polygon fill="midnightblue" stroke="midnightblue" points="473.496,-357.704 483.168,-353.378 472.91,-350.729 473.496,-357.704"/>
</g>
<!-- Node9 -->
<g id="node17" class="node"><title>Node9</title>
<a xlink:href="classforcebalance_1_1gmxio_1_1GMX.html#a0a8687f6d972019fd7eef4cb8a5d86c7" target="_top" xlink:title="Call gromacs and allow for certain expected warnings. ">
<polygon fill="white" stroke="black" points="474,-413.999 474,-434.999 656,-434.999 656,-413.999 474,-413.999"/>
<text text-anchor="middle" x="565" y="-421.999" font-family="Ubuntu-R" font-size="10.00">forcebalance.gmxio.GMX.warngmx</text>
</a>
</g>
<!-- Node3&#45;&gt;Node9 -->
<g id="edge16" class="edge"><title>Node3&#45;&gt;Node9</title>
<path fill="none" stroke="midnightblue" d="M379.404,-376.047C417.29,-385.937 474.056,-400.757 514.826,-411.4"/>
<polygon fill="midnightblue" stroke="midnightblue" points="514.005,-414.803 524.565,-413.943 515.774,-408.03 514.005,-414.803"/>
</g>
<!-- Node10 -->
<g id="node19" class="node"><title>Node10</title>
<a xlink:href="classforcebalance_1_1gmxio_1_1GMX.html#a4e472c27d2c244c9ad6edb5b35f46a75" target="_top" xlink:title="Call GROMACS; prepend the gmxpath to the call to the GROMACS program. ">
<polygon fill="white" stroke="black" points="703.5,-394.999 703.5,-415.999 878.5,-415.999 878.5,-394.999 703.5,-394.999"/>
<text text-anchor="middle" x="791" y="-402.999" font-family="Ubuntu-R" font-size="10.00">forcebalance.gmxio.GMX.callgmx</text>
</a>
</g>
<!-- Node3&#45;&gt;Node10 -->
<g id="edge32" class="edge"><title>Node3&#45;&gt;Node10</title>
<path fill="none" stroke="midnightblue" d="M428.571,-373.425C504.803,-380.172 614.131,-389.847 692.748,-396.804"/>
<polygon fill="midnightblue" stroke="midnightblue" points="692.876,-400.329 703.145,-397.724 693.493,-393.356 692.876,-400.329"/>
</g>
<!-- Node5 -->
<g id="node9" class="node"><title>Node5</title>
<a xlink:href="namespaceforcebalance_1_1nifty.html#a185aa094549d280fdc18479459980164" target="_top" xlink:title="If trying to write to a symbolic link, remove it first. ">
<polygon fill="white" stroke="black" points="724,-335.999 724,-356.999 858,-356.999 858,-335.999 724,-335.999"/>
<text text-anchor="middle" x="791" y="-343.999" font-family="Ubuntu-R" font-size="10.00">forcebalance.nifty.wopen</text>
</a>
</g>
<!-- Node4&#45;&gt;Node5 -->
<g id="edge8" class="edge"><title>Node4&#45;&gt;Node5</title>
<path fill="none" stroke="midnightblue" d="M646.591,-346.499C668.421,-346.499 691.95,-346.499 713.549,-346.499"/>
<polygon fill="midnightblue" stroke="midnightblue" points="713.652,-349.999 723.652,-346.499 713.652,-342.999 713.652,-349.999"/>
</g>
<!-- Node6 -->
<g id="node11" class="node"><title>Node6</title>
<a xlink:href="namespaceforcebalance_1_1nifty.html#a51180e960742cc7547749fdfb3513ec4" target="_top" xlink:title="See documentation for printcool; this is a nice way to print out keys/values in a dictionary...">
<polygon fill="white" stroke="black" points="719,-283.499 719,-317.499 863,-317.499 863,-283.499 719,-283.499"/>
<text text-anchor="start" x="727" y="-304.499" font-family="Ubuntu-R" font-size="10.00">forcebalance.nifty.printcool</text>
<text text-anchor="middle" x="791" y="-291.499" font-family="Ubuntu-R" font-size="10.00">_dictionary</text>
</a>
</g>
<!-- Node4&#45;&gt;Node6 -->
<g id="edge10" class="edge"><title>Node4&#45;&gt;Node6</title>
<path fill="none" stroke="midnightblue" d="M616.849,-335.945C644.13,-330.393 678.217,-323.455 708.982,-317.193"/>
<polygon fill="midnightblue" stroke="midnightblue" points="709.741,-320.61 718.842,-315.186 708.344,-313.751 709.741,-320.61"/>
</g>
<!-- Node6&#45;&gt;Node7 -->
<g id="edge12" class="edge"><title>Node6&#45;&gt;Node7</title>
<path fill="none" stroke="midnightblue" d="M816.934,-283.25C858.779,-255.418 940.624,-200.982 981.52,-173.781"/>
<polygon fill="midnightblue" stroke="midnightblue" points="983.673,-176.552 990.062,-168.1 979.797,-170.724 983.673,-176.552"/>
</g>
<!-- Node8 -->
<g id="node15" class="node"><title>Node8</title>
<a xlink:href="namespaceforcebalance_1_1nifty.html#abb8f59044961a12588e0653c2baa8b01" target="_top" xlink:title="forcebalance.nifty.warn\l_press_key">
<polygon fill="white" stroke="black" points="1128.5,-140.499 1128.5,-174.499 1253.5,-174.499 1253.5,-140.499 1128.5,-140.499"/>
<text text-anchor="start" x="1136.5" y="-161.499" font-family="Ubuntu-R" font-size="10.00">forcebalance.nifty.warn</text>
<text text-anchor="middle" x="1191" y="-148.499" font-family="Ubuntu-R" font-size="10.00">_press_key</text>
</a>
</g>
<!-- Node7&#45;&gt;Node8 -->
<g id="edge14" class="edge"><title>Node7&#45;&gt;Node8</title>
<path fill="none" stroke="midnightblue" d="M1078.06,-157.499C1091.31,-157.499 1105.16,-157.499 1118.44,-157.499"/>
<polygon fill="midnightblue" stroke="midnightblue" points="1118.46,-160.999 1128.46,-157.499 1118.46,-153.999 1118.46,-160.999"/>
</g>
<!-- Node9&#45;&gt;Node10 -->
<g id="edge18" class="edge"><title>Node9&#45;&gt;Node10</title>
<path fill="none" stroke="midnightblue" d="M656.271,-416.825C668.426,-415.804 680.93,-414.752 693.19,-413.722"/>
<polygon fill="midnightblue" stroke="midnightblue" points="693.747,-417.187 703.419,-412.862 693.161,-410.212 693.747,-417.187"/>
</g>
<!-- Node11 -->
<g id="node21" class="node"><title>Node11</title>
<a xlink:href="namespaceforcebalance_1_1gmxio.html#acac8488f29b62fb0d4cb54bb5a041026" target="_top" xlink:title="forcebalance.gmxio.rm\l_gmx_baks">
<polygon fill="white" stroke="black" points="942.5,-347.499 942.5,-381.499 1069.5,-381.499 1069.5,-347.499 942.5,-347.499"/>
<text text-anchor="start" x="950.5" y="-368.499" font-family="Ubuntu-R" font-size="10.00">forcebalance.gmxio.rm</text>
<text text-anchor="middle" x="1006" y="-355.499" font-family="Ubuntu-R" font-size="10.00">_gmx_baks</text>
</a>
</g>
<!-- Node10&#45;&gt;Node11 -->
<g id="edge20" class="edge"><title>Node10&#45;&gt;Node11</title>
<path fill="none" stroke="midnightblue" d="M846.089,-394.993C872.354,-389.985 904.147,-383.922 932.443,-378.526"/>
<polygon fill="midnightblue" stroke="midnightblue" points="933.123,-381.959 942.291,-376.648 931.812,-375.083 933.123,-381.959"/>
</g>
<!-- Node12 -->
<g id="node23" class="node"><title>Node12</title>
<a xlink:href="classforcebalance_1_1gmxio_1_1GMX.html#a2f9f89e8d7e97c872d4876751df171ce" target="_top" xlink:title="forcebalance.gmxio.GMX.links">
<polygon fill="white" stroke="black" points="926.5,-399.999 926.5,-420.999 1085.5,-420.999 1085.5,-399.999 926.5,-399.999"/>
<text text-anchor="middle" x="1006" y="-407.999" font-family="Ubuntu-R" font-size="10.00">forcebalance.gmxio.GMX.links</text>
</a>
</g>
<!-- Node10&#45;&gt;Node12 -->
<g id="edge22" class="edge"><title>Node10&#45;&gt;Node12</title>
<path fill="none" stroke="midnightblue" d="M878.759,-407.54C891.096,-407.827 903.792,-408.122 916.167,-408.41"/>
<polygon fill="midnightblue" stroke="midnightblue" points="916.393,-411.916 926.472,-408.649 916.556,-404.918 916.393,-411.916"/>
</g>
<!-- Node13 -->
<g id="node25" class="node"><title>Node13</title>
<a xlink:href="namespaceforcebalance_1_1nifty.html#ab5417ad84c6c760965cd195c6c387914" target="_top" xlink:title="forcebalance.nifty.onefile">
<polygon fill="white" stroke="black" points="1124,-404.999 1124,-425.999 1258,-425.999 1258,-404.999 1124,-404.999"/>
<text text-anchor="middle" x="1191" y="-412.999" font-family="Ubuntu-R" font-size="10.00">forcebalance.nifty.onefile</text>
</a>
</g>
<!-- Node12&#45;&gt;Node13 -->
<g id="edge24" class="edge"><title>Node12&#45;&gt;Node13</title>
<path fill="none" stroke="midnightblue" d="M1085.53,-412.648C1094.88,-412.901 1104.41,-413.158 1113.73,-413.41"/>
<polygon fill="midnightblue" stroke="midnightblue" points="1113.65,-416.909 1123.74,-413.681 1113.83,-409.912 1113.65,-416.909"/>
</g>
<!-- Node14 -->
<g id="node28" class="node"><title>Node14</title>
<a xlink:href="namespaceforcebalance_1_1nifty.html#ab182a9da2a2f42cf45942fbee6acf9b1" target="_top" xlink:title="forcebalance.nifty.LinkFile">
<polygon fill="white" stroke="black" points="1122.5,-277.999 1122.5,-298.999 1259.5,-298.999 1259.5,-277.999 1122.5,-277.999"/>
<text text-anchor="middle" x="1191" y="-285.999" font-family="Ubuntu-R" font-size="10.00">forcebalance.nifty.LinkFile</text>
</a>
</g>
<!-- Node12&#45;&gt;Node14 -->
<g id="edge28" class="edge"><title>Node12&#45;&gt;Node14</title>
<path fill="none" stroke="midnightblue" d="M1063.79,-399.954C1071.5,-397.436 1079.12,-394.329 1086,-390.499 1124.4,-369.125 1158.83,-330.091 1177.13,-307.005"/>
<polygon fill="midnightblue" stroke="midnightblue" points="1179.97,-309.055 1183.33,-299.007 1174.44,-304.765 1179.97,-309.055"/>
</g>
<!-- Node13&#45;&gt;Node2 -->
<g id="edge26" class="edge"><title>Node13&#45;&gt;Node2</title>
<path fill="none" stroke="midnightblue" d="M1258.25,-416.607C1267.25,-416.756 1276.58,-416.909 1285.86,-417.062"/>
<polygon fill="midnightblue" stroke="midnightblue" points="1285.83,-420.562 1295.89,-417.228 1285.95,-413.563 1285.83,-420.562"/>
</g>
<!-- Node15 -->
<g id="node30" class="node"><title>Node15</title>
<a xlink:href="namespaceforcebalance_1_1nifty.html#ae87c7def5f8edf2ec30737bdb1d2636f" target="_top" xlink:title="forcebalance.nifty.Missing\lFileInspection">
<polygon fill="white" stroke="black" points="1304,-271.499 1304,-305.499 1442,-305.499 1442,-271.499 1304,-271.499"/>
<text text-anchor="start" x="1312" y="-292.499" font-family="Ubuntu-R" font-size="10.00">forcebalance.nifty.Missing</text>
<text text-anchor="middle" x="1373" y="-279.499" font-family="Ubuntu-R" font-size="10.00">FileInspection</text>
</a>
</g>
<!-- Node14&#45;&gt;Node15 -->
<g id="edge30" class="edge"><title>Node14&#45;&gt;Node15</title>
<path fill="none" stroke="midnightblue" d="M1259.55,-288.499C1270.66,-288.499 1282.24,-288.499 1293.58,-288.499"/>
<polygon fill="midnightblue" stroke="midnightblue" points="1293.91,-291.999 1303.91,-288.499 1293.91,-284.999 1293.91,-291.999"/>
</g>
<!-- Node17 -->
<g id="node35" class="node"><title>Node17</title>
<a xlink:href="classforcebalance_1_1openmmio_1_1OpenMM.html#a8f584613e1512c0963c62427f759c8b0" target="_top" xlink:title="Create the simulation object, or update the force field parameters in the existing simulation object...">
<polygon fill="white" stroke="black" points="484.5,-243.499 484.5,-277.499 645.5,-277.499 645.5,-243.499 484.5,-243.499"/>
<text text-anchor="start" x="492.5" y="-264.499" font-family="Ubuntu-R" font-size="10.00">forcebalance.openmmio.Open</text>
<text text-anchor="middle" x="565" y="-251.499" font-family="Ubuntu-R" font-size="10.00">MM.update_simulation</text>
</a>
</g>
<!-- Node16&#45;&gt;Node17 -->
<g id="edge36" class="edge"><title>Node16&#45;&gt;Node17</title>
<path fill="none" stroke="midnightblue" d="M413.001,-225.525C434.756,-230.531 458.709,-236.042 481.039,-241.18"/>
<polygon fill="midnightblue" stroke="midnightblue" points="480.303,-244.602 490.833,-243.434 481.872,-237.781 480.303,-244.602"/>
</g>
<!-- Node18 -->
<g id="node37" class="node"><title>Node18</title>
<a xlink:href="classforcebalance_1_1openmmio_1_1OpenMM.html#a77e08b50b78e299cc6c80c09ea4975a6" target="_top" xlink:title="Set the positions and periodic box vectors to one of the stored coordinates. ">
<polygon fill="white" stroke="black" points="484.5,-191.499 484.5,-225.499 645.5,-225.499 645.5,-191.499 484.5,-191.499"/>
<text text-anchor="start" x="492.5" y="-212.499" font-family="Ubuntu-R" font-size="10.00">forcebalance.openmmio.Open</text>
<text text-anchor="middle" x="565" y="-199.499" font-family="Ubuntu-R" font-size="10.00">MM.set_positions</text>
</a>
</g>
<!-- Node16&#45;&gt;Node18 -->
<g id="edge38" class="edge"><title>Node16&#45;&gt;Node18</title>
<path fill="none" stroke="midnightblue" d="M419.634,-208.499C437.307,-208.499 456.133,-208.499 474.175,-208.499"/>
<polygon fill="midnightblue" stroke="midnightblue" points="474.397,-211.999 484.397,-208.499 474.397,-204.999 474.397,-211.999"/>
</g>
<!-- Node19 -->
<g id="node39" class="node"><title>Node19</title>
<a xlink:href="namespaceforcebalance_1_1openmmio.html#a1f92d88085657ca5726f8925bfa68f6f" target="_top" xlink:title="Given a set of OpenMM&#45;compatible positions and a System object, compute the correct virtual site posi...">
<polygon fill="white" stroke="black" points="484,-139.499 484,-173.499 646,-173.499 646,-139.499 484,-139.499"/>
<text text-anchor="start" x="492" y="-160.499" font-family="Ubuntu-R" font-size="10.00">forcebalance.openmmio.Reset</text>
<text text-anchor="middle" x="565" y="-147.499" font-family="Ubuntu-R" font-size="10.00">VirtualSites_fast</text>
</a>
</g>
<!-- Node16&#45;&gt;Node19 -->
<g id="edge40" class="edge"><title>Node16&#45;&gt;Node19</title>
<path fill="none" stroke="midnightblue" d="M413.001,-191.472C434.756,-186.466 458.709,-180.955 481.039,-175.817"/>
<polygon fill="midnightblue" stroke="midnightblue" points="481.872,-179.217 490.833,-173.564 480.303,-172.395 481.872,-179.217"/>
</g>
<!-- Node20&#45;&gt;Node21 -->
<g id="edge44" class="edge"><title>Node20&#45;&gt;Node21</title>
<path fill="none" stroke="midnightblue" d="M401.351,-61.9764C424.15,-58.4689 450.186,-54.8581 474,-52.4988 542.956,-45.6668 620.657,-41.6861 681.872,-39.404"/>
<polygon fill="midnightblue" stroke="midnightblue" points="682.072,-42.8991 691.938,-39.0384 681.818,-35.9037 682.072,-42.8991"/>
</g>
<!-- Node22 -->
<g id="node47" class="node"><title>Node22</title>
<a xlink:href="namespaceforcebalance_1_1molecule.html#a0dd31eff88d2bed0884ab21a13261d42" target="_top" xlink:title="ONLY matches integers! If you have a decimal point? None shall pass! ">
<polygon fill="white" stroke="black" points="491.5,-61.9988 491.5,-82.9988 638.5,-82.9988 638.5,-61.9988 491.5,-61.9988"/>
<text text-anchor="middle" x="565" y="-69.9988" font-family="Ubuntu-R" font-size="10.00">forcebalance.molecule.isint</text>
</a>
</g>
<!-- Node20&#45;&gt;Node22 -->
<g id="edge50" class="edge"><title>Node20&#45;&gt;Node22</title>
<path fill="none" stroke="midnightblue" d="M437.798,-72.4988C452.23,-72.4988 466.976,-72.4988 481.075,-72.4988"/>
<polygon fill="midnightblue" stroke="midnightblue" points="481.212,-75.9989 491.212,-72.4988 481.212,-68.9989 481.212,-75.9989"/>
</g>
<!-- Node21&#45;&gt;Node8 -->
<g id="edge48" class="edge"><title>Node21&#45;&gt;Node8</title>
<path fill="none" stroke="midnightblue" d="M890.219,-45.5618C948.702,-53.1963 1023.29,-66.9767 1086,-91.4988 1113.2,-102.133 1141.05,-120.024 1161.23,-134.498"/>
<polygon fill="midnightblue" stroke="midnightblue" points="1159.24,-137.383 1169.38,-140.461 1163.37,-131.733 1159.24,-137.383"/>
</g>
<!-- Node21&#45;&gt;Node14 -->
<g id="edge46" class="edge"><title>Node21&#45;&gt;Node14</title>
<path fill="none" stroke="midnightblue" d="M819.085,-47.0074C846.323,-57.1247 888.864,-72.7287 926,-85.4988 996.709,-109.813 1025.97,-92.9224 1086,-137.499 1098.53,-146.799 1153.12,-229.905 1178.25,-268.706"/>
<polygon fill="midnightblue" stroke="midnightblue" points="1175.6,-271.045 1183.96,-277.544 1181.48,-267.245 1175.6,-271.045"/>
</g>
<!-- Node23&#45;&gt;Node5 -->
<g id="edge56" class="edge"><title>Node23&#45;&gt;Node5</title>
<path fill="none" stroke="midnightblue" d="M624.379,-317.008C654.235,-322.293 690.593,-328.728 721.719,-334.237"/>
<polygon fill="midnightblue" stroke="midnightblue" points="721.169,-337.694 731.626,-335.99 722.389,-330.801 721.169,-337.694"/>
</g>
<!-- Node23&#45;&gt;Node6 -->
<g id="edge58" class="edge"><title>Node23&#45;&gt;Node6</title>
<path fill="none" stroke="midnightblue" d="M647.231,-304.316C667.313,-303.782 688.798,-303.212 708.875,-302.679"/>
<polygon fill="midnightblue" stroke="midnightblue" points="709.013,-306.177 718.917,-302.412 708.828,-299.179 709.013,-306.177"/>
</g>
<!-- Node23&#45;&gt;Node8 -->
<g id="edge54" class="edge"><title>Node23&#45;&gt;Node8</title>
<path fill="none" stroke="midnightblue" d="M617.684,-295.908C630.299,-293.1 643.681,-289.895 656,-286.499 672.259,-282.016 675.773,-279.095 692,-274.499 842.077,-231.988 1020.6,-192.836 1118.24,-172.376"/>
<polygon fill="midnightblue" stroke="midnightblue" points="1119.22,-175.746 1128.3,-170.275 1117.79,-168.894 1119.22,-175.746"/>
</g>
</g>
</svg>
