<?xml version="1.0" encoding="UTF-8" standalone="no"?>
<!DOCTYPE svg PUBLIC "-//W3C//DTD SVG 1.1//EN"
 "http://www.w3.org/Graphics/SVG/1.1/DTD/svg11.dtd">
<!-- Generated by graphviz version 2.26.3 (20100126.1600)
 -->
<!-- Title: forcebalance.nifty.Unpickler_LP.__init__ Pages: 1 -->
<svg width="532pt" height="174pt"
 viewBox="0.00 0.00 532.00 174.00" xmlns="http://www.w3.org/2000/svg" xmlns:xlink="http://www.w3.org/1999/xlink">
<g id="graph1" class="graph" transform="scale(1 1) rotate(0) translate(4 170)">
<title>forcebalance.nifty.Unpickler_LP.__init__</title>
<polygon fill="white" stroke="white" points="-4,5 -4,-170 529,-170 529,5 -4,5"/>
<!-- Node1 -->
<g id="node1" class="node"><title>Node1</title>
<polygon fill="#bfbfbf" stroke="black" points="0.5,-92 0.5,-126 147.5,-126 147.5,-92 0.5,-92"/>
<text text-anchor="start" x="8.5" y="-113" font-family="Ubuntu-R" font-size="10.00">forcebalance.nifty.Unpickler</text>
<text text-anchor="middle" x="74" y="-100" font-family="Ubuntu-R" font-size="10.00">_LP.__init__</text>
</g>
<!-- Node2 -->
<g id="node3" class="node"><title>Node2</title>
<a xlink:href="namespaceforcebalance_1_1nifty.html#a26e563ec71ed229c30f3d61d3448c8f1" target="_top" xlink:title="Prints a warning but will only do so once in a given run.">
<polygon fill="white" stroke="black" points="184.5,-141.5 184.5,-162.5 337.5,-162.5 337.5,-141.5 184.5,-141.5"/>
<text text-anchor="middle" x="261" y="-149.5" font-family="Ubuntu-R" font-size="10.00">forcebalance.nifty.warn_once</text>
</a>
</g>
<!-- Node1&#45;&gt;Node2 -->
<g id="edge2" class="edge"><title>Node1&#45;&gt;Node2</title>
<path fill="none" stroke="midnightblue" d="M147.639,-125.933C166.87,-130.355 187.276,-135.047 205.396,-139.214"/>
<polygon fill="midnightblue" stroke="midnightblue" points="204.676,-142.64 215.206,-141.47 206.244,-135.818 204.676,-142.64"/>
</g>
<!-- Node4 -->
<g id="node7" class="node"><title>Node4</title>
<a xlink:href="namespaceforcebalance_1_1nifty.html#a2ff762a2f2d2b6bb1c7dd067bd1a1e88" target="_top" xlink:title="Use this instead of pickle.dump for pickling anything that contains _ElementTree types.">
<polygon fill="white" stroke="black" points="189,-98.5 189,-119.5 333,-119.5 333,-98.5 189,-98.5"/>
<text text-anchor="middle" x="261" y="-106.5" font-family="Ubuntu-R" font-size="10.00">forcebalance.nifty.lp_dump</text>
</a>
</g>
<!-- Node1&#45;&gt;Node4 -->
<g id="edge6" class="edge"><title>Node1&#45;&gt;Node4</title>
<path fill="none" stroke="midnightblue" d="M147.639,-109C157.834,-109 168.359,-109 178.699,-109"/>
<polygon fill="midnightblue" stroke="midnightblue" points="178.959,-112.5 188.958,-109 178.958,-105.5 178.959,-112.5"/>
</g>
<!-- Node6 -->
<g id="node11" class="node"><title>Node6</title>
<a xlink:href="namespaceforcebalance_1_1nifty.html#a577abfd36638c5f4dfdade136abaef12" target="_top" xlink:title="Use this instead of pickle.load for unpickling anything that contains _ElementTree types...">
<polygon fill="white" stroke="black" points="193,-52.5 193,-73.5 329,-73.5 329,-52.5 193,-52.5"/>
<text text-anchor="middle" x="261" y="-60.5" font-family="Ubuntu-R" font-size="10.00">forcebalance.nifty.lp_load</text>
</a>
</g>
<!-- Node1&#45;&gt;Node6 -->
<g id="edge10" class="edge"><title>Node1&#45;&gt;Node6</title>
<path fill="none" stroke="midnightblue" d="M143.366,-91.9367C164.796,-86.6652 188.041,-80.9472 208.165,-75.997"/>
<polygon fill="midnightblue" stroke="midnightblue" points="209.199,-79.347 218.073,-73.5595 207.527,-72.5496 209.199,-79.347"/>
</g>
<!-- Node3 -->
<g id="node5" class="node"><title>Node3</title>
<a xlink:href="namespaceforcebalance_1_1nifty.html#a64b7c6ca7afa1c11681f5c2897c55cc3" target="_top" xlink:title="This function be given any of several variable types (single file name, file object, or list of lines, or a list of the above) and give a list of files:">
<polygon fill="white" stroke="black" points="374,-144.5 374,-165.5 524,-165.5 524,-144.5 374,-144.5"/>
<text text-anchor="middle" x="449" y="-152.5" font-family="Ubuntu-R" font-size="10.00">forcebalance.nifty.multiopen</text>
</a>
</g>
<!-- Node2&#45;&gt;Node3 -->
<g id="edge4" class="edge"><title>Node2&#45;&gt;Node3</title>
<path fill="none" stroke="midnightblue" d="M337.738,-153.225C346.276,-153.361 355.011,-153.5 363.648,-153.638"/>
<polygon fill="midnightblue" stroke="midnightblue" points="363.669,-157.139 373.724,-153.799 363.781,-150.14 363.669,-157.139"/>
</g>
<!-- Node5 -->
<g id="node9" class="node"><title>Node5</title>
<a xlink:href="namespaceforcebalance_1_1nifty.html#ac37d4fe58ef70ed546ebfc45d12f7a5d" target="_top" xlink:title="forcebalance.nifty.getWork\lQueue">
<polygon fill="white" stroke="black" points="378.5,-92 378.5,-126 519.5,-126 519.5,-92 378.5,-92"/>
<text text-anchor="start" x="386.5" y="-113" font-family="Ubuntu-R" font-size="10.00">forcebalance.nifty.getWork</text>
<text text-anchor="middle" x="449" y="-100" font-family="Ubuntu-R" font-size="10.00">Queue</text>
</a>
</g>
<!-- Node4&#45;&gt;Node5 -->
<g id="edge8" class="edge"><title>Node4&#45;&gt;Node5</title>
<path fill="none" stroke="midnightblue" d="M333.148,-109C344.601,-109 356.512,-109 368.148,-109"/>
<polygon fill="midnightblue" stroke="midnightblue" points="368.285,-112.5 378.285,-109 368.285,-105.5 368.285,-112.5"/>
</g>
<!-- Node7 -->
<g id="node13" class="node"><title>Node7</title>
<a xlink:href="namespaceforcebalance_1_1nifty.html#abe1e72c32252d62a6551b47290c7584f" target="_top" xlink:title="forcebalance.nifty.getWQIds">
<polygon fill="white" stroke="black" points="375.5,-52.5 375.5,-73.5 522.5,-73.5 522.5,-52.5 375.5,-52.5"/>
<text text-anchor="middle" x="449" y="-60.5" font-family="Ubuntu-R" font-size="10.00">forcebalance.nifty.getWQIds</text>
</a>
</g>
<!-- Node6&#45;&gt;Node7 -->
<g id="edge12" class="edge"><title>Node6&#45;&gt;Node7</title>
<path fill="none" stroke="midnightblue" d="M329.138,-63C340.878,-63 353.201,-63 365.294,-63"/>
<polygon fill="midnightblue" stroke="midnightblue" points="365.381,-66.5001 375.381,-63 365.381,-59.5001 365.381,-66.5001"/>
</g>
<!-- Node8 -->
<g id="node15" class="node"><title>Node8</title>
<a xlink:href="namespaceforcebalance_1_1nifty.html#ab5f3072ad95e9c75659cb1adac341051" target="_top" xlink:title="forcebalance.nifty.create\lWorkQueue">
<polygon fill="white" stroke="black" points="382.5,-0 382.5,-34 515.5,-34 515.5,-0 382.5,-0"/>
<text text-anchor="start" x="390.5" y="-21" font-family="Ubuntu-R" font-size="10.00">forcebalance.nifty.create</text>
<text text-anchor="middle" x="449" y="-8" font-family="Ubuntu-R" font-size="10.00">WorkQueue</text>
</a>
</g>
<!-- Node6&#45;&gt;Node8 -->
<g id="edge14" class="edge"><title>Node6&#45;&gt;Node8</title>
<path fill="none" stroke="midnightblue" d="M304.131,-52.4467C324.43,-47.4799 349.258,-41.4049 372.587,-35.6967"/>
<polygon fill="midnightblue" stroke="midnightblue" points="373.595,-39.0535 382.476,-33.277 371.931,-32.2541 373.595,-39.0535"/>
</g>
</g>
</svg>
