<?xml version="1.0" encoding="UTF-8" standalone="no"?>
<!DOCTYPE svg PUBLIC "-//W3C//DTD SVG 1.1//EN"
 "http://www.w3.org/Graphics/SVG/1.1/DTD/svg11.dtd">
<!-- Generated by graphviz version 2.26.3 (20100126.1600)
 -->
<!-- Title: forcebalance.gmxqpio.Monomer_QTPIE.indicate Pages: 1 -->
<svg width="1566pt" height="321pt"
 viewBox="0.00 0.00 1566.00 321.00" xmlns="http://www.w3.org/2000/svg" xmlns:xlink="http://www.w3.org/1999/xlink">
<g id="graph1" class="graph" transform="scale(1 1) rotate(0) translate(4 317)">
<title>forcebalance.gmxqpio.Monomer_QTPIE.indicate</title>
<polygon fill="white" stroke="white" points="-4,5 -4,-317 1563,-317 1563,5 -4,5"/>
<!-- Node1 -->
<g id="node1" class="node"><title>Node1</title>
<polygon fill="#bfbfbf" stroke="black" points="0.5,-156 0.5,-190 171.5,-190 171.5,-156 0.5,-156"/>
<text text-anchor="start" x="8.5" y="-177" font-family="Ubuntu-R" font-size="10.00">forcebalance.gmxqpio.Monomer</text>
<text text-anchor="middle" x="86" y="-164" font-family="Ubuntu-R" font-size="10.00">_QTPIE.indicate</text>
</g>
<!-- Node2 -->
<g id="node3" class="node"><title>Node2</title>
<a xlink:href="classforcebalance_1_1gmxqpio_1_1Monomer__QTPIE.html#ac227bf1f1ed6d579fea2eeda64c389cb" target="_top" xlink:title="forcebalance.gmxqpio.Monomer\l_QTPIE.unpack_moments">
<polygon fill="white" stroke="black" points="416.5,-205 416.5,-239 587.5,-239 587.5,-205 416.5,-205"/>
<text text-anchor="start" x="424.5" y="-226" font-family="Ubuntu-R" font-size="10.00">forcebalance.gmxqpio.Monomer</text>
<text text-anchor="middle" x="502" y="-213" font-family="Ubuntu-R" font-size="10.00">_QTPIE.unpack_moments</text>
</a>
</g>
<!-- Node1&#45;&gt;Node2 -->
<g id="edge2" class="edge"><title>Node1&#45;&gt;Node2</title>
<path fill="none" stroke="midnightblue" d="M158.292,-190.05C174.571,-193.429 191.819,-196.653 208,-199 273.841,-208.549 348.593,-214.33 406.245,-217.708"/>
<polygon fill="midnightblue" stroke="midnightblue" points="406.255,-221.214 416.438,-218.291 406.655,-214.225 406.255,-221.214"/>
</g>
<!-- Node11 -->
<g id="node25" class="node"><title>Node11</title>
<a xlink:href="namespaceforcebalance_1_1nifty.html#a51180e960742cc7547749fdfb3513ec4" target="_top" xlink:title="See documentation for printcool; this is a nice way to print out keys/values in a dictionary...">
<polygon fill="white" stroke="black" points="222,-53 222,-87 366,-87 366,-53 222,-53"/>
<text text-anchor="start" x="230" y="-74" font-family="Ubuntu-R" font-size="10.00">forcebalance.nifty.printcool</text>
<text text-anchor="middle" x="294" y="-61" font-family="Ubuntu-R" font-size="10.00">_dictionary</text>
</a>
</g>
<!-- Node1&#45;&gt;Node11 -->
<g id="edge28" class="edge"><title>Node1&#45;&gt;Node11</title>
<path fill="none" stroke="midnightblue" d="M120.347,-155.992C155.875,-138.398 211.474,-110.866 250.155,-91.7117"/>
<polygon fill="midnightblue" stroke="midnightblue" points="252.194,-94.6078 259.602,-87.0336 249.087,-88.3348 252.194,-94.6078"/>
</g>
<!-- Node23 -->
<g id="node53" class="node"><title>Node23</title>
<a xlink:href="classforcebalance_1_1gmxqpio_1_1Monomer__QTPIE.html#a0a859c87a87d4021e61ada64fdce4ebd" target="_top" xlink:title="forcebalance.gmxqpio.Monomer\l_QTPIE.prepare_temp_directory">
<polygon fill="white" stroke="black" points="208.5,-156 208.5,-190 379.5,-190 379.5,-156 208.5,-156"/>
<text text-anchor="start" x="216.5" y="-177" font-family="Ubuntu-R" font-size="10.00">forcebalance.gmxqpio.Monomer</text>
<text text-anchor="middle" x="294" y="-164" font-family="Ubuntu-R" font-size="10.00">_QTPIE.prepare_temp_directory</text>
</a>
</g>
<!-- Node1&#45;&gt;Node23 -->
<g id="edge60" class="edge"><title>Node1&#45;&gt;Node23</title>
<path fill="none" stroke="midnightblue" d="M171.502,-173C180.376,-173 189.435,-173 198.411,-173"/>
<polygon fill="midnightblue" stroke="midnightblue" points="198.494,-176.5 208.494,-173 198.494,-169.5 198.494,-176.5"/>
</g>
<!-- Node3 -->
<g id="node5" class="node"><title>Node3</title>
<a xlink:href="classforcebalance_1_1gmxqpio_1_1Monomer__QTPIE.html#a46144411b5166a1839bf954b584ca3a7" target="_top" xlink:title="forcebalance.gmxqpio.Monomer\l_QTPIE.get">
<polygon fill="white" stroke="black" points="624.5,-208 624.5,-242 795.5,-242 795.5,-208 624.5,-208"/>
<text text-anchor="start" x="632.5" y="-229" font-family="Ubuntu-R" font-size="10.00">forcebalance.gmxqpio.Monomer</text>
<text text-anchor="middle" x="710" y="-216" font-family="Ubuntu-R" font-size="10.00">_QTPIE.get</text>
</a>
</g>
<!-- Node2&#45;&gt;Node3 -->
<g id="edge4" class="edge"><title>Node2&#45;&gt;Node3</title>
<path fill="none" stroke="midnightblue" d="M587.502,-216.579C596.376,-216.614 605.435,-216.719 614.411,-216.891"/>
<polygon fill="midnightblue" stroke="midnightblue" points="614.419,-220.392 624.494,-217.113 614.573,-213.394 614.419,-220.392"/>
</g>
<!-- Node3&#45;&gt;Node2 -->
<g id="edge10" class="edge"><title>Node3&#45;&gt;Node2</title>
<path fill="none" stroke="midnightblue" d="M624.494,-230.421C615.62,-230.386 606.561,-230.28 597.585,-230.109"/>
<polygon fill="midnightblue" stroke="midnightblue" points="597.577,-226.608 587.502,-229.887 597.423,-233.606 597.577,-226.608"/>
</g>
<!-- Node4 -->
<g id="node7" class="node"><title>Node4</title>
<a xlink:href="namespaceforcebalance_1_1gmxqpio.html#a499ed366638eae7be524b18760a986b8" target="_top" xlink:title="forcebalance.gmxqpio.get\l_monomer_properties">
<polygon fill="white" stroke="black" points="832.5,-161 832.5,-195 973.5,-195 973.5,-161 832.5,-161"/>
<text text-anchor="start" x="840.5" y="-182" font-family="Ubuntu-R" font-size="10.00">forcebalance.gmxqpio.get</text>
<text text-anchor="middle" x="903" y="-169" font-family="Ubuntu-R" font-size="10.00">_monomer_properties</text>
</a>
</g>
<!-- Node3&#45;&gt;Node4 -->
<g id="edge6" class="edge"><title>Node3&#45;&gt;Node4</title>
<path fill="none" stroke="midnightblue" d="M779.95,-207.965C793.974,-204.55 808.81,-200.938 823.14,-197.448"/>
<polygon fill="midnightblue" stroke="midnightblue" points="824.076,-200.822 832.964,-195.055 822.42,-194.021 824.076,-200.822"/>
</g>
<!-- Node6 -->
<g id="node12" class="node"><title>Node6</title>
<a xlink:href="namespaceforcebalance_1_1finite__difference.html#aa69a8819e4680091f400303c1d6ddeb7" target="_top" xlink:title="A three&#45;point finite difference stencil.">
<polygon fill="white" stroke="black" points="850.5,-251 850.5,-285 955.5,-285 955.5,-251 850.5,-251"/>
<text text-anchor="start" x="858.5" y="-272" font-family="Ubuntu-R" font-size="10.00">forcebalance.finite</text>
<text text-anchor="middle" x="903" y="-259" font-family="Ubuntu-R" font-size="10.00">_difference.f12d3p</text>
</a>
</g>
<!-- Node3&#45;&gt;Node6 -->
<g id="edge12" class="edge"><title>Node3&#45;&gt;Node6</title>
<path fill="none" stroke="midnightblue" d="M786.556,-242.056C804.415,-246.036 823.227,-250.227 840.399,-254.053"/>
<polygon fill="midnightblue" stroke="midnightblue" points="839.778,-257.5 850.3,-256.259 841.301,-250.668 839.778,-257.5"/>
</g>
<!-- Node7 -->
<g id="node14" class="node"><title>Node7</title>
<a xlink:href="namespaceforcebalance_1_1finite__difference.html#ad84d3e385db1190e7d8ef58bc08a6c52" target="_top" xlink:title="Invoking this function from anywhere will tell us whether we&#39;re being called by a finite&#45;difference f...">
<polygon fill="white" stroke="black" points="1036,-279 1036,-313 1140,-313 1140,-279 1036,-279"/>
<text text-anchor="start" x="1044" y="-300" font-family="Ubuntu-R" font-size="10.00">forcebalance.finite</text>
<text text-anchor="middle" x="1088" y="-287" font-family="Ubuntu-R" font-size="10.00">_difference.in_fd</text>
</a>
</g>
<!-- Node3&#45;&gt;Node7 -->
<g id="edge26" class="edge"><title>Node3&#45;&gt;Node7</title>
<path fill="none" stroke="midnightblue" d="M732.297,-242.273C755.656,-259.198 794.153,-283.88 832,-294 896.406,-311.221 973.227,-308.948 1025.8,-304.113"/>
<polygon fill="midnightblue" stroke="midnightblue" points="1026.37,-307.574 1035.98,-303.117 1025.69,-300.607 1026.37,-307.574"/>
</g>
<!-- Node8 -->
<g id="node16" class="node"><title>Node8</title>
<a xlink:href="namespaceforcebalance_1_1finite__difference.html#ae484c591ae8c4e5bae73a0ef2660c339" target="_top" xlink:title="A function wrapper for finite difference designed for differentiating &#39;get&#39;&#45;type functions.">
<polygon fill="white" stroke="black" points="1036,-210 1036,-244 1140,-244 1140,-210 1036,-210"/>
<text text-anchor="start" x="1044" y="-231" font-family="Ubuntu-R" font-size="10.00">forcebalance.finite</text>
<text text-anchor="middle" x="1088" y="-218" font-family="Ubuntu-R" font-size="10.00">_difference.fdwrap</text>
</a>
</g>
<!-- Node3&#45;&gt;Node8 -->
<g id="edge24" class="edge"><title>Node3&#45;&gt;Node8</title>
<path fill="none" stroke="midnightblue" d="M795.774,-225.454C865.722,-225.824 962.882,-226.338 1025.6,-226.67"/>
<polygon fill="midnightblue" stroke="midnightblue" points="1025.73,-230.17 1035.75,-226.724 1025.77,-223.171 1025.73,-230.17"/>
</g>
<!-- Node5 -->
<g id="node9" class="node"><title>Node5</title>
<a xlink:href="namespaceforcebalance_1_1molecule.html#afe989ffd119568047fc8265b1d329a70" target="_top" xlink:title="Matches ANY number; it can be a decimal, scientific notation, integer, or what have you...">
<polygon fill="white" stroke="black" points="1010,-167.5 1010,-188.5 1166,-188.5 1166,-167.5 1010,-167.5"/>
<text text-anchor="middle" x="1088" y="-175.5" font-family="Ubuntu-R" font-size="10.00">forcebalance.molecule.isfloat</text>
</a>
</g>
<!-- Node4&#45;&gt;Node5 -->
<g id="edge8" class="edge"><title>Node4&#45;&gt;Node5</title>
<path fill="none" stroke="midnightblue" d="M973.732,-178C982.237,-178 991.002,-178 999.717,-178"/>
<polygon fill="midnightblue" stroke="midnightblue" points="999.906,-181.5 1009.91,-178 999.906,-174.5 999.906,-181.5"/>
</g>
<!-- Node6&#45;&gt;Node7 -->
<g id="edge14" class="edge"><title>Node6&#45;&gt;Node7</title>
<path fill="none" stroke="midnightblue" d="M955.519,-275.949C977.479,-279.273 1003.16,-283.16 1026.04,-286.622"/>
<polygon fill="midnightblue" stroke="midnightblue" points="1025.58,-290.092 1035.99,-288.128 1026.63,-283.171 1025.58,-290.092"/>
</g>
<!-- Node6&#45;&gt;Node8 -->
<g id="edge16" class="edge"><title>Node6&#45;&gt;Node8</title>
<path fill="none" stroke="midnightblue" d="M955.519,-256.361C977.479,-251.494 1003.16,-245.802 1026.04,-240.732"/>
<polygon fill="midnightblue" stroke="midnightblue" points="1026.98,-244.107 1035.99,-238.526 1025.47,-237.273 1026.98,-244.107"/>
</g>
<!-- Node9 -->
<g id="node18" class="node"><title>Node9</title>
<a xlink:href="namespaceforcebalance_1_1finite__difference.html#a00322fb65860c390616f74d05037c797" target="_top" xlink:title="A driver to fdwrap for gradients (see documentation for fdwrap) Inputs: tgt = The Target containing t...">
<polygon fill="white" stroke="black" points="1220,-210 1220,-244 1336,-244 1336,-210 1220,-210"/>
<text text-anchor="start" x="1228" y="-231" font-family="Ubuntu-R" font-size="10.00">forcebalance.finite</text>
<text text-anchor="middle" x="1278" y="-218" font-family="Ubuntu-R" font-size="10.00">_difference.fdwrap_G</text>
</a>
</g>
<!-- Node8&#45;&gt;Node9 -->
<g id="edge18" class="edge"><title>Node8&#45;&gt;Node9</title>
<path fill="none" stroke="midnightblue" d="M1140.17,-220.901C1161.7,-220.2 1186.95,-220.065 1209.91,-220.497"/>
<polygon fill="midnightblue" stroke="midnightblue" points="1209.85,-223.996 1219.93,-220.725 1210.01,-216.998 1209.85,-223.996"/>
</g>
<!-- Node10 -->
<g id="node21" class="node"><title>Node10</title>
<a xlink:href="namespaceforcebalance_1_1finite__difference.html#a77a0bc1ae3cbbcc8d38a0ef9ca877d6d" target="_top" xlink:title="A driver to fdwrap for Hessians (see documentation for fdwrap) Inputs: tgt = The Target containing th...">
<polygon fill="white" stroke="black" points="1220,-158 1220,-192 1336,-192 1336,-158 1220,-158"/>
<text text-anchor="start" x="1228" y="-179" font-family="Ubuntu-R" font-size="10.00">forcebalance.finite</text>
<text text-anchor="middle" x="1278" y="-166" font-family="Ubuntu-R" font-size="10.00">_difference.fdwrap_H</text>
</a>
</g>
<!-- Node8&#45;&gt;Node10 -->
<g id="edge22" class="edge"><title>Node8&#45;&gt;Node10</title>
<path fill="none" stroke="midnightblue" d="M1140.17,-212.722C1161.8,-206.803 1187.17,-199.858 1210.21,-193.552"/>
<polygon fill="midnightblue" stroke="midnightblue" points="1211.21,-196.909 1219.93,-190.893 1209.36,-190.157 1211.21,-196.909"/>
</g>
<!-- Node9&#45;&gt;Node8 -->
<g id="edge20" class="edge"><title>Node9&#45;&gt;Node8</title>
<path fill="none" stroke="midnightblue" d="M1219.93,-233.275C1197.88,-233.871 1172.68,-233.906 1150.26,-233.38"/>
<polygon fill="midnightblue" stroke="midnightblue" points="1150.26,-229.879 1140.17,-233.099 1150.07,-236.876 1150.26,-229.879"/>
</g>
<!-- Node12 -->
<g id="node27" class="node"><title>Node12</title>
<a xlink:href="namespaceforcebalance_1_1nifty.html#a3f1c7a1af9d35d5d1693074bc6f5497c" target="_top" xlink:title="ONLY matches integers! If you have a decimal point? None shall pass!">
<polygon fill="white" stroke="black" points="441,-59.5 441,-80.5 563,-80.5 563,-59.5 441,-59.5"/>
<text text-anchor="middle" x="502" y="-67.5" font-family="Ubuntu-R" font-size="10.00">forcebalance.nifty.isint</text>
</a>
</g>
<!-- Node11&#45;&gt;Node12 -->
<g id="edge30" class="edge"><title>Node11&#45;&gt;Node12</title>
<path fill="none" stroke="midnightblue" d="M366.165,-70C387.037,-70 409.803,-70 430.628,-70"/>
<polygon fill="midnightblue" stroke="midnightblue" points="430.678,-73.5001 440.678,-70 430.678,-66.5001 430.678,-73.5001"/>
</g>
<!-- Node14 -->
<g id="node31" class="node"><title>Node14</title>
<a xlink:href="namespaceforcebalance_1_1nifty.html#a8e3ef0108b9d37b82ba0dced7c6037ae" target="_top" xlink:title="Matches ANY number; it can be a decimal, scientific notation, what have you CAUTION &#45; this will also ...">
<polygon fill="white" stroke="black" points="837.5,-20.5 837.5,-41.5 968.5,-41.5 968.5,-20.5 837.5,-20.5"/>
<text text-anchor="middle" x="903" y="-28.5" font-family="Ubuntu-R" font-size="10.00">forcebalance.nifty.isfloat</text>
</a>
</g>
<!-- Node11&#45;&gt;Node14 -->
<g id="edge58" class="edge"><title>Node11&#45;&gt;Node14</title>
<path fill="none" stroke="midnightblue" d="M366.08,-56.8988C382.447,-54.2822 399.787,-51.7917 416,-50 560.843,-33.9941 731.213,-30.9249 827.208,-30.6302"/>
<polygon fill="midnightblue" stroke="midnightblue" points="827.408,-34.1299 837.4,-30.6086 827.393,-27.1299 827.408,-34.1299"/>
</g>
<!-- Node13 -->
<g id="node29" class="node"><title>Node13</title>
<a xlink:href="namespaceforcebalance_1_1nifty.html#a09263927eaec9deff283fbf1a820242f" target="_top" xlink:title="Matches things with a decimal only; see isint and isfloat.">
<polygon fill="white" stroke="black" points="636.5,-78.5 636.5,-99.5 783.5,-99.5 783.5,-78.5 636.5,-78.5"/>
<text text-anchor="middle" x="710" y="-86.5" font-family="Ubuntu-R" font-size="10.00">forcebalance.nifty.isdecimal</text>
</a>
</g>
<!-- Node12&#45;&gt;Node13 -->
<g id="edge32" class="edge"><title>Node12&#45;&gt;Node13</title>
<path fill="none" stroke="midnightblue" d="M563.001,-75.5722C582.87,-77.3872 605.281,-79.4343 626.504,-81.373"/>
<polygon fill="midnightblue" stroke="midnightblue" points="626.207,-84.8603 636.484,-82.2846 626.844,-77.8893 626.207,-84.8603"/>
</g>
<!-- Node13&#45;&gt;Node14 -->
<g id="edge34" class="edge"><title>Node13&#45;&gt;Node14</title>
<path fill="none" stroke="midnightblue" d="M746.867,-78.4255C762.094,-74.0207 779.914,-68.8184 796,-64 816.933,-57.73 840.112,-50.6038 859.53,-44.5822"/>
<polygon fill="midnightblue" stroke="midnightblue" points="860.797,-47.8534 869.309,-41.5443 858.721,-41.1685 860.797,-47.8534"/>
</g>
<!-- Node18 -->
<g id="node40" class="node"><title>Node18</title>
<a xlink:href="namespaceforcebalance_1_1nifty.html#afb3f205bce4984856e766af7e9fdaca8" target="_top" xlink:title="Given any list, array, or matrix, return a 1&#45;column matrix.">
<polygon fill="white" stroke="black" points="845,-78.5 845,-99.5 961,-99.5 961,-78.5 845,-78.5"/>
<text text-anchor="middle" x="903" y="-86.5" font-family="Ubuntu-R" font-size="10.00">forcebalance.nifty.col</text>
</a>
</g>
<!-- Node13&#45;&gt;Node18 -->
<g id="edge44" class="edge"><title>Node13&#45;&gt;Node18</title>
<path fill="none" stroke="midnightblue" d="M783.516,-89C800.365,-89 818.207,-89 834.821,-89"/>
<polygon fill="midnightblue" stroke="midnightblue" points="834.986,-92.5001 844.986,-89 834.986,-85.5001 834.986,-92.5001"/>
</g>
<!-- Node14&#45;&gt;Node12 -->
<g id="edge36" class="edge"><title>Node14&#45;&gt;Node12</title>
<path fill="none" stroke="midnightblue" d="M837.334,-37.3865C764.813,-44.4397 648.432,-55.7585 573.612,-63.0352"/>
<polygon fill="midnightblue" stroke="midnightblue" points="572.954,-59.5826 563.34,-64.0343 573.632,-66.5498 572.954,-59.5826"/>
</g>
<!-- Node15 -->
<g id="node34" class="node"><title>Node15</title>
<a xlink:href="namespaceforcebalance_1_1nifty.html#a8d63c8ae9a67c66673a6cf81357f827d" target="_top" xlink:title="Returns a big number if we encounter NaN.">
<polygon fill="white" stroke="black" points="1012.5,-0.5 1012.5,-21.5 1163.5,-21.5 1163.5,-0.5 1012.5,-0.5"/>
<text text-anchor="middle" x="1088" y="-8.5" font-family="Ubuntu-R" font-size="10.00">forcebalance.nifty.floatornan</text>
</a>
</g>
<!-- Node14&#45;&gt;Node15 -->
<g id="edge38" class="edge"><title>Node14&#45;&gt;Node15</title>
<path fill="none" stroke="midnightblue" d="M968.745,-23.8924C979.559,-22.7234 990.907,-21.4966 1002.12,-20.2839"/>
<polygon fill="midnightblue" stroke="midnightblue" points="1002.8,-23.7309 1012.37,-19.1762 1002.05,-16.7714 1002.8,-23.7309"/>
</g>
<!-- Node16 -->
<g id="node36" class="node"><title>Node16</title>
<a xlink:href="namespaceforcebalance_1_1nifty.html#a6c9727360cdff8f3011a12cc54d0e86e" target="_top" xlink:title="Given any list, array, or matrix, return a 1&#45;row matrix.">
<polygon fill="white" stroke="black" points="1218.5,-0.5 1218.5,-21.5 1337.5,-21.5 1337.5,-0.5 1218.5,-0.5"/>
<text text-anchor="middle" x="1278" y="-8.5" font-family="Ubuntu-R" font-size="10.00">forcebalance.nifty.row</text>
</a>
</g>
<!-- Node15&#45;&gt;Node16 -->
<g id="edge40" class="edge"><title>Node15&#45;&gt;Node16</title>
<path fill="none" stroke="midnightblue" d="M1163.64,-11C1178.3,-11 1193.59,-11 1208.06,-11"/>
<polygon fill="midnightblue" stroke="midnightblue" points="1208.42,-14.5001 1218.42,-11 1208.42,-7.5001 1208.42,-14.5001"/>
</g>
<!-- Node17 -->
<g id="node38" class="node"><title>Node17</title>
<a xlink:href="namespaceforcebalance_1_1nifty.html#a7676236002c6a65ea7d2e69a09923889" target="_top" xlink:title="Given two vectors vec1 and vec2, project out the component of vec1 that is along the vec2&#45;direction...">
<polygon fill="white" stroke="black" points="1390,-0.5 1390,-21.5 1558,-21.5 1558,-0.5 1390,-0.5"/>
<text text-anchor="middle" x="1474" y="-8.5" font-family="Ubuntu-R" font-size="10.00">forcebalance.nifty.orthogonalize</text>
</a>
</g>
<!-- Node16&#45;&gt;Node17 -->
<g id="edge42" class="edge"><title>Node16&#45;&gt;Node17</title>
<path fill="none" stroke="midnightblue" d="M1337.6,-11C1350.84,-11 1365.18,-11 1379.42,-11"/>
<polygon fill="midnightblue" stroke="midnightblue" points="1379.76,-14.5001 1389.76,-11 1379.76,-7.5001 1379.76,-14.5001"/>
</g>
<!-- Node19 -->
<g id="node42" class="node"><title>Node19</title>
<a xlink:href="namespaceforcebalance_1_1nifty.html#a52114ceee9d55f94d9aecb3e176de294" target="_top" xlink:title="Given any list, array, or matrix, return a single&#45;index array.">
<polygon fill="white" stroke="black" points="1029.5,-40.5 1029.5,-61.5 1146.5,-61.5 1146.5,-40.5 1029.5,-40.5"/>
<text text-anchor="middle" x="1088" y="-48.5" font-family="Ubuntu-R" font-size="10.00">forcebalance.nifty.flat</text>
</a>
</g>
<!-- Node18&#45;&gt;Node19 -->
<g id="edge46" class="edge"><title>Node18&#45;&gt;Node19</title>
<path fill="none" stroke="midnightblue" d="M954.533,-78.4149C976.985,-73.8031 1003.47,-68.3625 1026.91,-63.5488"/>
<polygon fill="midnightblue" stroke="midnightblue" points="1027.65,-66.9689 1036.74,-61.5284 1026.24,-60.1121 1027.65,-66.9689"/>
</g>
<!-- Node20 -->
<g id="node44" class="node"><title>Node20</title>
<a xlink:href="namespaceforcebalance_1_1nifty.html#a4c82187e92dfeb8a159f4aa44b501c40" target="_top" xlink:title="Invert a matrix using singular value decomposition.">
<polygon fill="white" stroke="black" points="1202.5,-78.5 1202.5,-99.5 1353.5,-99.5 1353.5,-78.5 1202.5,-78.5"/>
<text text-anchor="middle" x="1278" y="-86.5" font-family="Ubuntu-R" font-size="10.00">forcebalance.nifty.invert_svd</text>
</a>
</g>
<!-- Node19&#45;&gt;Node20 -->
<g id="edge48" class="edge"><title>Node19&#45;&gt;Node20</title>
<path fill="none" stroke="midnightblue" d="M1140.67,-61.5347C1163.74,-66.1472 1190.98,-71.5965 1215.1,-76.4201"/>
<polygon fill="midnightblue" stroke="midnightblue" points="1214.73,-79.9156 1225.22,-78.4449 1216.1,-73.0516 1214.73,-79.9156"/>
</g>
<!-- Node20&#45;&gt;Node18 -->
<g id="edge54" class="edge"><title>Node20&#45;&gt;Node18</title>
<path fill="none" stroke="midnightblue" d="M1202.17,-89C1134.59,-89 1036.56,-89 971.356,-89"/>
<polygon fill="midnightblue" stroke="midnightblue" points="971.182,-85.5001 961.182,-89 971.182,-92.5001 971.182,-85.5001"/>
</g>
<!-- Node21 -->
<g id="node46" class="node"><title>Node21</title>
<a xlink:href="namespaceforcebalance_1_1nifty.html#aa9fb9c7c65231eca50a7afc04f489b64" target="_top" xlink:title="forcebalance.nifty.get\l_least_squares">
<polygon fill="white" stroke="black" points="1415,-49 1415,-83 1533,-83 1533,-49 1415,-49"/>
<text text-anchor="start" x="1423" y="-70" font-family="Ubuntu-R" font-size="10.00">forcebalance.nifty.get</text>
<text text-anchor="middle" x="1474" y="-57" font-family="Ubuntu-R" font-size="10.00">_least_squares</text>
</a>
</g>
<!-- Node20&#45;&gt;Node21 -->
<g id="edge50" class="edge"><title>Node20&#45;&gt;Node21</title>
<path fill="none" stroke="midnightblue" d="M1353.78,-80.1076C1370.55,-78.1396 1388.24,-76.064 1404.73,-74.1282"/>
<polygon fill="midnightblue" stroke="midnightblue" points="1405.31,-77.5849 1414.83,-72.9432 1404.49,-70.6326 1405.31,-77.5849"/>
</g>
<!-- Node22 -->
<g id="node50" class="node"><title>Node22</title>
<a xlink:href="namespaceforcebalance_1_1nifty.html#abb8f59044961a12588e0653c2baa8b01" target="_top" xlink:title="forcebalance.nifty.warn\l_press_key">
<polygon fill="white" stroke="black" points="1411.5,-106 1411.5,-140 1536.5,-140 1536.5,-106 1411.5,-106"/>
<text text-anchor="start" x="1419.5" y="-127" font-family="Ubuntu-R" font-size="10.00">forcebalance.nifty.warn</text>
<text text-anchor="middle" x="1474" y="-114" font-family="Ubuntu-R" font-size="10.00">_press_key</text>
</a>
</g>
<!-- Node20&#45;&gt;Node22 -->
<g id="edge56" class="edge"><title>Node20&#45;&gt;Node22</title>
<path fill="none" stroke="midnightblue" d="M1338.67,-99.525C1358.48,-102.961 1380.68,-106.812 1401.28,-110.385"/>
<polygon fill="midnightblue" stroke="midnightblue" points="1400.79,-113.853 1411.24,-112.114 1401.99,-106.956 1400.79,-113.853"/>
</g>
<!-- Node21&#45;&gt;Node19 -->
<g id="edge52" class="edge"><title>Node21&#45;&gt;Node19</title>
<path fill="none" stroke="midnightblue" d="M1414.82,-63.7004C1345.29,-60.9983 1230.11,-56.5225 1156.7,-53.6696"/>
<polygon fill="midnightblue" stroke="midnightblue" points="1156.75,-50.1692 1146.63,-53.2782 1156.48,-57.1639 1156.75,-50.1692"/>
</g>
<!-- Node23&#45;&gt;Node2 -->
<g id="edge68" class="edge"><title>Node23&#45;&gt;Node2</title>
<path fill="none" stroke="midnightblue" d="M366.165,-190C383.49,-194.082 402.119,-198.47 419.86,-202.65"/>
<polygon fill="midnightblue" stroke="midnightblue" points="419.075,-206.06 429.611,-204.947 420.68,-199.247 419.075,-206.06"/>
</g>
<!-- Node23&#45;&gt;Node22 -->
<g id="edge62" class="edge"><title>Node23&#45;&gt;Node22</title>
<path fill="none" stroke="midnightblue" d="M379.754,-158.265C463.661,-145.141 595.223,-128 710,-128 710,-128 710,-128 1088,-128 1197.2,-128 1323.76,-125.975 1401.34,-124.502"/>
<polygon fill="midnightblue" stroke="midnightblue" points="1401.56,-127.999 1411.49,-124.307 1401.43,-121 1401.56,-127.999"/>
</g>
<!-- Node24 -->
<g id="node56" class="node"><title>Node24</title>
<a xlink:href="namespaceforcebalance_1_1nifty.html#ab182a9da2a2f42cf45942fbee6acf9b1" target="_top" xlink:title="forcebalance.nifty.LinkFile">
<polygon fill="white" stroke="black" points="434,-162.5 434,-183.5 570,-183.5 570,-162.5 434,-162.5"/>
<text text-anchor="middle" x="502" y="-170.5" font-family="Ubuntu-R" font-size="10.00">forcebalance.nifty.LinkFile</text>
</a>
</g>
<!-- Node23&#45;&gt;Node24 -->
<g id="edge64" class="edge"><title>Node23&#45;&gt;Node24</title>
<path fill="none" stroke="midnightblue" d="M379.502,-173C394.109,-173 409.218,-173 423.628,-173"/>
<polygon fill="midnightblue" stroke="midnightblue" points="423.98,-176.5 433.98,-173 423.98,-169.5 423.98,-176.5"/>
</g>
<!-- Node25 -->
<g id="node58" class="node"><title>Node25</title>
<a xlink:href="namespaceforcebalance_1_1nifty.html#a25efa4d501ad852a234721af18978f7e" target="_top" xlink:title="Remove the file if it exists (doesn&#39;t return an error).">
<polygon fill="white" stroke="black" points="640.5,-156 640.5,-190 779.5,-190 779.5,-156 640.5,-156"/>
<text text-anchor="start" x="648.5" y="-177" font-family="Ubuntu-R" font-size="10.00">forcebalance.nifty.remove</text>
<text text-anchor="middle" x="710" y="-164" font-family="Ubuntu-R" font-size="10.00">_if_exists</text>
</a>
</g>
<!-- Node24&#45;&gt;Node25 -->
<g id="edge66" class="edge"><title>Node24&#45;&gt;Node25</title>
<path fill="none" stroke="midnightblue" d="M570.107,-173C589.277,-173 610.301,-173 630.093,-173"/>
<polygon fill="midnightblue" stroke="midnightblue" points="630.314,-176.5 640.314,-173 630.314,-169.5 630.314,-176.5"/>
</g>
</g>
</svg>
