<?xml version="1.0" encoding="UTF-8" standalone="no"?>
<!DOCTYPE svg PUBLIC "-//W3C//DTD SVG 1.1//EN"
 "http://www.w3.org/Graphics/SVG/1.1/DTD/svg11.dtd">
<!-- Generated by graphviz version 2.26.3 (20100126.1600)
 -->
<!-- Title: forcebalance.Mol2.mol2_atom.parse Pages: 1 -->
<svg width="1466pt" height="278pt"
 viewBox="0.00 0.00 1466.00 278.00" xmlns="http://www.w3.org/2000/svg" xmlns:xlink="http://www.w3.org/1999/xlink">
<g id="graph1" class="graph" transform="scale(1 1) rotate(0) translate(4 274)">
<title>forcebalance.Mol2.mol2_atom.parse</title>
<polygon fill="white" stroke="white" points="-4,5 -4,-274 1463,-274 1463,5 -4,5"/>
<!-- Node1 -->
<g id="node1" class="node"><title>Node1</title>
<polygon fill="#bfbfbf" stroke="black" points="0,-115 0,-149 130,-149 130,-115 0,-115"/>
<text text-anchor="start" x="8" y="-136" font-family="Ubuntu-R" font-size="10.00">forcebalance.Mol2.mol2</text>
<text text-anchor="middle" x="65" y="-123" font-family="Ubuntu-R" font-size="10.00">_atom.parse</text>
</g>
<!-- Node2 -->
<g id="node3" class="node"><title>Node2</title>
<a xlink:href="classforcebalance_1_1Mol2_1_1mol2__atom.html#a3a6c9728119ace119108183920689a9d" target="_top" xlink:title="the coordinates of the atom">
<polygon fill="white" stroke="black" points="996,-170 996,-204 1126,-204 1126,-170 996,-170"/>
<text text-anchor="start" x="1004" y="-191" font-family="Ubuntu-R" font-size="10.00">forcebalance.Mol2.mol2</text>
<text text-anchor="middle" x="1061" y="-178" font-family="Ubuntu-R" font-size="10.00">_atom.set_crds</text>
</a>
</g>
<!-- Node1&#45;&gt;Node2 -->
<g id="edge2" class="edge"><title>Node1&#45;&gt;Node2</title>
<path fill="none" stroke="midnightblue" d="M121.093,-149.024C186.63,-167.378 298.639,-194 397,-194 397,-194 397,-194 729,-194 817.15,-194 918.436,-191.503 985.721,-189.492"/>
<polygon fill="midnightblue" stroke="midnightblue" points="985.918,-192.987 995.808,-189.186 985.706,-185.99 985.918,-192.987"/>
</g>
<!-- Node3 -->
<g id="node5" class="node"><title>Node3</title>
<a xlink:href="classforcebalance_1_1Mol2_1_1mol2__atom.html#ae879ba27197a573b6e3e1e97f0b76aff" target="_top" xlink:title="substructure identifier">
<polygon fill="white" stroke="black" points="1162,-208 1162,-242 1292,-242 1292,-208 1162,-208"/>
<text text-anchor="start" x="1170" y="-229" font-family="Ubuntu-R" font-size="10.00">forcebalance.Mol2.mol2</text>
<text text-anchor="middle" x="1227" y="-216" font-family="Ubuntu-R" font-size="10.00">_atom.set_subst_id</text>
</a>
</g>
<!-- Node1&#45;&gt;Node3 -->
<g id="edge28" class="edge"><title>Node1&#45;&gt;Node3</title>
<path fill="none" stroke="midnightblue" d="M90.9612,-149.036C110.769,-161.302 139.136,-177.33 166,-187 264.415,-222.426 292.403,-232 397,-232 397,-232 397,-232 895,-232 983.15,-232 1084.44,-229.503 1151.72,-227.492"/>
<polygon fill="midnightblue" stroke="midnightblue" points="1151.92,-230.987 1161.81,-227.186 1151.71,-223.99 1151.92,-230.987"/>
</g>
<!-- Node4 -->
<g id="node7" class="node"><title>Node4</title>
<a xlink:href="classforcebalance_1_1Mol2_1_1mol2__atom.html#abfe80eac2952ad867d87e8b6e64f3c09" target="_top" xlink:title="atomic charge">
<polygon fill="white" stroke="black" points="1328,-230 1328,-264 1458,-264 1458,-230 1328,-230"/>
<text text-anchor="start" x="1336" y="-251" font-family="Ubuntu-R" font-size="10.00">forcebalance.Mol2.mol2</text>
<text text-anchor="middle" x="1393" y="-238" font-family="Ubuntu-R" font-size="10.00">_atom.set_charge</text>
</a>
</g>
<!-- Node1&#45;&gt;Node4 -->
<g id="edge32" class="edge"><title>Node1&#45;&gt;Node4</title>
<path fill="none" stroke="midnightblue" d="M79.5719,-149.119C97.7173,-169.283 130.66,-202.273 166,-220 259.893,-267.099 291.956,-270 397,-270 397,-270 397,-270 1061,-270 1149.34,-270 1250.59,-261.795 1317.81,-255.187"/>
<polygon fill="midnightblue" stroke="midnightblue" points="1318.29,-258.657 1327.89,-254.183 1317.59,-251.691 1318.29,-258.657"/>
</g>
<!-- Node5 -->
<g id="node9" class="node"><title>Node5</title>
<a xlink:href="classforcebalance_1_1Mol2_1_1mol2__atom.html#a233ebfedcde7e5d75b0ec54f194d2b4f" target="_top" xlink:title="The mol2 type of the atom.">
<polygon fill="white" stroke="black" points="166,-0 166,-34 296,-34 296,-0 166,-0"/>
<text text-anchor="start" x="174" y="-21" font-family="Ubuntu-R" font-size="10.00">forcebalance.Mol2.mol2</text>
<text text-anchor="middle" x="231" y="-8" font-family="Ubuntu-R" font-size="10.00">_atom.set_atom_type</text>
</a>
</g>
<!-- Node1&#45;&gt;Node5 -->
<g id="edge8" class="edge"><title>Node1&#45;&gt;Node5</title>
<path fill="none" stroke="midnightblue" d="M82.9072,-114.732C102.305,-96.616 134.69,-68.0416 166,-48 170.992,-44.8047 176.364,-41.7297 181.804,-38.8402"/>
<polygon fill="midnightblue" stroke="midnightblue" points="183.652,-41.8265 190.969,-34.1637 180.471,-35.5913 183.652,-41.8265"/>
</g>
<!-- Node6 -->
<g id="node11" class="node"><title>Node6</title>
<a xlink:href="classforcebalance_1_1Mol2_1_1mol2__atom.html#af149e1d049adee0318eef510a8d32f9c" target="_top" xlink:title="substructure name">
<polygon fill="white" stroke="black" points="332,-38 332,-72 462,-72 462,-38 332,-38"/>
<text text-anchor="start" x="340" y="-59" font-family="Ubuntu-R" font-size="10.00">forcebalance.Mol2.mol2</text>
<text text-anchor="middle" x="397" y="-46" font-family="Ubuntu-R" font-size="10.00">_atom.set_subst_name</text>
</a>
</g>
<!-- Node1&#45;&gt;Node6 -->
<g id="edge30" class="edge"><title>Node1&#45;&gt;Node6</title>
<path fill="none" stroke="midnightblue" d="M96.3764,-114.804C115.866,-104.866 141.745,-92.9848 166,-86 216.79,-71.3738 275.889,-63.6026 321.596,-59.499"/>
<polygon fill="midnightblue" stroke="midnightblue" points="322.063,-62.9718 331.727,-58.6294 321.464,-55.9975 322.063,-62.9718"/>
</g>
<!-- Node7 -->
<g id="node13" class="node"><title>Node7</title>
<a xlink:href="classforcebalance_1_1Mol2_1_1mol2__atom.html#a2b8855f5349976b26917fee353618354" target="_top" xlink:title="Never to use (in theory)">
<polygon fill="white" stroke="black" points="498,-92 498,-126 628,-126 628,-92 498,-92"/>
<text text-anchor="start" x="506" y="-113" font-family="Ubuntu-R" font-size="10.00">forcebalance.Mol2.mol2</text>
<text text-anchor="middle" x="563" y="-100" font-family="Ubuntu-R" font-size="10.00">_atom.set_status_bit</text>
</a>
</g>
<!-- Node1&#45;&gt;Node7 -->
<g id="edge34" class="edge"><title>Node1&#45;&gt;Node7</title>
<path fill="none" stroke="midnightblue" d="M130.105,-124.262C222.284,-117.405 390.432,-109.55 487.813,-107.474"/>
<polygon fill="midnightblue" stroke="midnightblue" points="487.95,-110.972 497.879,-107.276 487.812,-103.974 487.95,-110.972"/>
</g>
<!-- Node9 -->
<g id="node18" class="node"><title>Node9</title>
<a xlink:href="classforcebalance_1_1Mol2_1_1mol2__atom.html#a2e0ecf1c6da8fde8ab146d4341ac1341" target="_top" xlink:title="assemble the properties as a text line, and return it">
<polygon fill="white" stroke="black" points="664,-132 664,-166 794,-166 794,-132 664,-132"/>
<text text-anchor="start" x="672" y="-153" font-family="Ubuntu-R" font-size="10.00">forcebalance.Mol2.mol2</text>
<text text-anchor="middle" x="729" y="-140" font-family="Ubuntu-R" font-size="10.00">_atom.__repr__</text>
</a>
</g>
<!-- Node1&#45;&gt;Node9 -->
<g id="edge36" class="edge"><title>Node1&#45;&gt;Node9</title>
<path fill="none" stroke="midnightblue" d="M130.133,-139.281C142.051,-140.377 154.388,-141.354 166,-142 340.444,-151.702 545.739,-151.269 653.772,-150.123"/>
<polygon fill="midnightblue" stroke="midnightblue" points="653.959,-153.622 663.919,-150.011 653.881,-146.622 653.959,-153.622"/>
</g>
<!-- Node2&#45;&gt;Node3 -->
<g id="edge4" class="edge"><title>Node2&#45;&gt;Node3</title>
<path fill="none" stroke="midnightblue" d="M1126.13,-201.91C1134.55,-203.837 1143.23,-205.824 1151.8,-207.786"/>
<polygon fill="midnightblue" stroke="midnightblue" points="1151.26,-211.251 1161.78,-210.071 1152.82,-204.428 1151.26,-211.251"/>
</g>
<!-- Node3&#45;&gt;Node4 -->
<g id="edge6" class="edge"><title>Node3&#45;&gt;Node4</title>
<path fill="none" stroke="midnightblue" d="M1292.13,-233.632C1300.55,-234.748 1309.23,-235.898 1317.8,-237.034"/>
<polygon fill="midnightblue" stroke="midnightblue" points="1317.41,-240.513 1327.78,-238.357 1318.33,-233.573 1317.41,-240.513"/>
</g>
<!-- Node5&#45;&gt;Node6 -->
<g id="edge10" class="edge"><title>Node5&#45;&gt;Node6</title>
<path fill="none" stroke="midnightblue" d="M296.131,-31.9095C304.553,-33.8374 313.232,-35.8243 321.8,-37.7856"/>
<polygon fill="midnightblue" stroke="midnightblue" points="321.255,-41.2513 331.784,-40.0711 322.817,-34.4278 321.255,-41.2513"/>
</g>
<!-- Node6&#45;&gt;Node7 -->
<g id="edge12" class="edge"><title>Node6&#45;&gt;Node7</title>
<path fill="none" stroke="midnightblue" d="M449.523,-72.0859C465.801,-77.381 483.894,-83.2669 500.765,-88.7548"/>
<polygon fill="midnightblue" stroke="midnightblue" points="499.941,-92.1674 510.534,-91.9326 502.107,-85.5108 499.941,-92.1674"/>
</g>
<!-- Node7&#45;&gt;Node1 -->
<g id="edge16" class="edge"><title>Node7&#45;&gt;Node1</title>
<path fill="none" stroke="midnightblue" d="M497.879,-116.739C405.691,-123.596 237.543,-131.451 140.17,-133.526"/>
<polygon fill="midnightblue" stroke="midnightblue" points="140.034,-130.028 130.105,-133.724 140.172,-137.027 140.034,-130.028"/>
</g>
<!-- Node8 -->
<g id="node15" class="node"><title>Node8</title>
<a xlink:href="classforcebalance_1_1Mol2_1_1mol2__atom.html#a1d745e4db9ba351cb8e4e53bf544132c" target="_top" xlink:title="if data is passed, it will be installed">
<polygon fill="white" stroke="black" points="664,-80 664,-114 794,-114 794,-80 664,-80"/>
<text text-anchor="start" x="672" y="-101" font-family="Ubuntu-R" font-size="10.00">forcebalance.Mol2.mol2</text>
<text text-anchor="middle" x="729" y="-88" font-family="Ubuntu-R" font-size="10.00">_atom.__init__</text>
</a>
</g>
<!-- Node7&#45;&gt;Node8 -->
<g id="edge14" class="edge"><title>Node7&#45;&gt;Node8</title>
<path fill="none" stroke="midnightblue" d="M628.131,-104.292C636.553,-103.683 645.232,-103.055 653.8,-102.436"/>
<polygon fill="midnightblue" stroke="midnightblue" points="654.063,-105.926 663.784,-101.714 653.558,-98.9446 654.063,-105.926"/>
</g>
<!-- Node7&#45;&gt;Node9 -->
<g id="edge18" class="edge"><title>Node7&#45;&gt;Node9</title>
<path fill="none" stroke="midnightblue" d="M628.131,-124.694C636.553,-126.724 645.232,-128.815 653.8,-130.88"/>
<polygon fill="midnightblue" stroke="midnightblue" points="653.243,-134.345 663.784,-133.285 654.882,-127.54 653.243,-134.345"/>
</g>
<!-- Node10 -->
<g id="node20" class="node"><title>Node10</title>
<a xlink:href="classforcebalance_1_1Mol2_1_1mol2__atom.html#a1af054109bd2d27c29e89b5da0f70920" target="_top" xlink:title="atom identifier (integer, starting from 1)">
<polygon fill="white" stroke="black" points="830,-132 830,-166 960,-166 960,-132 830,-132"/>
<text text-anchor="start" x="838" y="-153" font-family="Ubuntu-R" font-size="10.00">forcebalance.Mol2.mol2</text>
<text text-anchor="middle" x="895" y="-140" font-family="Ubuntu-R" font-size="10.00">_atom.set_atom_id</text>
</a>
</g>
<!-- Node9&#45;&gt;Node10 -->
<g id="edge20" class="edge"><title>Node9&#45;&gt;Node10</title>
<path fill="none" stroke="midnightblue" d="M794.131,-149C802.461,-149 811.044,-149 819.521,-149"/>
<polygon fill="midnightblue" stroke="midnightblue" points="819.784,-152.5 829.784,-149 819.784,-145.5 819.784,-152.5"/>
</g>
<!-- Node11 -->
<g id="node23" class="node"><title>Node11</title>
<a xlink:href="classforcebalance_1_1Mol2_1_1mol2__atom.html#a4d57220ec5b591ad018112d600d4cc8b" target="_top" xlink:title="The name of the atom (string)">
<polygon fill="white" stroke="black" points="830,-37 830,-71 960,-71 960,-37 830,-37"/>
<text text-anchor="start" x="838" y="-58" font-family="Ubuntu-R" font-size="10.00">forcebalance.Mol2.mol2</text>
<text text-anchor="middle" x="895" y="-45" font-family="Ubuntu-R" font-size="10.00">_atom.set_atom_name</text>
</a>
</g>
<!-- Node9&#45;&gt;Node11 -->
<g id="edge24" class="edge"><title>Node9&#45;&gt;Node11</title>
<path fill="none" stroke="midnightblue" d="M775.38,-131.902C781.737,-129.14 788.102,-126.146 794,-123 818.973,-109.682 845.319,-91.5293 864.839,-77.1857"/>
<polygon fill="midnightblue" stroke="midnightblue" points="867.093,-79.8713 873.03,-71.0962 862.916,-74.2537 867.093,-79.8713"/>
</g>
<!-- Node10&#45;&gt;Node2 -->
<g id="edge22" class="edge"><title>Node10&#45;&gt;Node2</title>
<path fill="none" stroke="midnightblue" d="M960.131,-163.91C968.553,-165.837 977.232,-167.824 985.8,-169.786"/>
<polygon fill="midnightblue" stroke="midnightblue" points="985.255,-173.251 995.784,-172.071 986.817,-166.428 985.255,-173.251"/>
</g>
<!-- Node11&#45;&gt;Node5 -->
<g id="edge26" class="edge"><title>Node11&#45;&gt;Node5</title>
<path fill="none" stroke="midnightblue" d="M829.719,-50.1132C744.965,-45.0941 592.447,-36.154 462,-29 409.996,-26.148 351.397,-23.1059 306.232,-20.7983"/>
<polygon fill="midnightblue" stroke="midnightblue" points="306.389,-17.3018 296.224,-20.2877 306.032,-24.2927 306.389,-17.3018"/>
</g>
</g>
</svg>
