<?xml version="1.0" encoding="UTF-8" standalone="no"?>
<!DOCTYPE svg PUBLIC "-//W3C//DTD SVG 1.1//EN"
 "http://www.w3.org/Graphics/SVG/1.1/DTD/svg11.dtd">
<!-- Generated by graphviz version 2.32.0 (20130801.1845)
 -->
<!-- Title: forcebalance.openmmio.OpenMM_Reader.__init__ Pages: 1 -->
<svg width="490pt" height="40pt"
 viewBox="0.00 0.00 490.00 40.00" xmlns="http://www.w3.org/2000/svg" xmlns:xlink="http://www.w3.org/1999/xlink">
<g id="graph0" class="graph" transform="scale(1 1) rotate(0) translate(4 36)">
<title>forcebalance.openmmio.OpenMM_Reader.__init__</title>
<polygon fill="white" stroke="white" points="-4,5 -4,-36 487,-36 487,5 -4,5"/>
<!-- Node1 -->
<g id="node1" class="node"><title>Node1</title>
<polygon fill="#bfbfbf" stroke="black" points="0.7475,-0 0.7475,-32 137.252,-32 137.252,-0 0.7475,-0"/>
<text text-anchor="start" x="8.7475" y="-19" font-family="Ubuntu-R" font-size="10.00">forcebalance.openmmio.Open</text>
<text text-anchor="middle" x="69" y="-7" font-family="Ubuntu-R" font-size="10.00">MM_Reader.__init__</text>
</g>
<!-- Node2 -->
<g id="node2" class="node"><title>Node2</title>
<g id="a_node2"><a xlink:href="classforcebalance_1_1openmmio_1_1OpenMM__Reader.html#ac89322d09d53425b5151f39306f4b38b" target="_top" xlink:title="Build the parameter identifier (see link for an example)">
<polygon fill="white" stroke="black" points="174.748,-0 174.748,-32 311.252,-32 311.252,-0 174.748,-0"/>
<text text-anchor="start" x="182.748" y="-19" font-family="Ubuntu-R" font-size="10.00">forcebalance.openmmio.Open</text>
<text text-anchor="middle" x="243" y="-7" font-family="Ubuntu-R" font-size="10.00">MM_Reader.build_pid</text>
</a>
</g>
</g>
<!-- Node1&#45;&gt;Node2 -->
<g id="edge1" class="edge"><title>Node1&#45;&gt;Node2</title>
<path fill="none" stroke="midnightblue" d="M137.485,-9.391C146.375,-9.25368 155.541,-9.21666 164.58,-9.27995"/>
<polygon fill="midnightblue" stroke="midnightblue" points="164.671,-12.7811 174.709,-9.39403 164.749,-5.78154 164.671,-12.7811"/>
</g>
<!-- Node2&#45;&gt;Node1 -->
<g id="edge2" class="edge"><title>Node2&#45;&gt;Node1</title>
<path fill="none" stroke="midnightblue" d="M174.709,-22.606C165.824,-22.7448 156.659,-22.7832 147.618,-22.7214"/>
<polygon fill="midnightblue" stroke="midnightblue" points="147.524,-19.2203 137.485,-22.609 147.446,-26.2198 147.524,-19.2203"/>
</g>
<!-- Node3 -->
<g id="node3" class="node"><title>Node3</title>
<g id="a_node3"><a xlink:href="classforcebalance_1_1baseclass_1_1ForceBalanceBaseClass.html#abaaf4d99b043d41f02fabc41db59252b" target="_top" xlink:title="forcebalance.baseclass.Force\lBalanceBaseClass.set_option">
<polygon fill="white" stroke="black" points="348.265,-0 348.265,-32 481.735,-32 481.735,-0 348.265,-0"/>
<text text-anchor="start" x="356.265" y="-19" font-family="Ubuntu-R" font-size="10.00">forcebalance.baseclass.Force</text>
<text text-anchor="middle" x="415" y="-7" font-family="Ubuntu-R" font-size="10.00">BalanceBaseClass.set_option</text>
</a>
</g>
</g>
<!-- Node2&#45;&gt;Node3 -->
<g id="edge3" class="edge"><title>Node2&#45;&gt;Node3</title>
<path fill="none" stroke="midnightblue" d="M311.677,-16C320.329,-16 329.23,-16 338.003,-16"/>
<polygon fill="midnightblue" stroke="midnightblue" points="338.218,-19.5001 348.218,-16 338.218,-12.5001 338.218,-19.5001"/>
</g>
</g>
</svg>
