<?xml version="1.0" encoding="UTF-8" standalone="no"?>
<!DOCTYPE svg PUBLIC "-//W3C//DTD SVG 1.1//EN"
 "http://www.w3.org/Graphics/SVG/1.1/DTD/svg11.dtd">
<!-- Generated by graphviz version 2.26.3 (20100126.1600)
 -->
<!-- Title: forcebalance.gmxio.AbInitio_GMX.energy_force_driver Pages: 1 -->
<svg width="1464pt" height="154pt"
 viewBox="0.00 0.00 1464.00 154.00" xmlns="http://www.w3.org/2000/svg" xmlns:xlink="http://www.w3.org/1999/xlink">
<g id="graph1" class="graph" transform="scale(1 1) rotate(0) translate(4 150)">
<title>forcebalance.gmxio.AbInitio_GMX.energy_force_driver</title>
<polygon fill="white" stroke="white" points="-4,5 -4,-150 1461,-150 1461,5 -4,5"/>
<!-- Node1 -->
<g id="node1" class="node"><title>Node1</title>
<polygon fill="#bfbfbf" stroke="black" points="0,-47 0,-81 148,-81 148,-47 0,-47"/>
<text text-anchor="start" x="8" y="-68" font-family="Ubuntu-R" font-size="10.00">forcebalance.gmxio.AbInitio</text>
<text text-anchor="middle" x="74" y="-55" font-family="Ubuntu-R" font-size="10.00">_GMX.energy_force_driver</text>
</g>
<!-- Node2 -->
<g id="node3" class="node"><title>Node2</title>
<a xlink:href="classforcebalance_1_1gmxio_1_1AbInitio__GMX.html#a6e43c323b2286c546ff8afd3377f8808" target="_top" xlink:title="Computes the energy and force using GROMACS for a trajectory.">
<polygon fill="white" stroke="black" points="184,-47 184,-81 340,-81 340,-47 184,-47"/>
<text text-anchor="start" x="192" y="-68" font-family="Ubuntu-R" font-size="10.00">forcebalance.gmxio.AbInitio</text>
<text text-anchor="middle" x="262" y="-55" font-family="Ubuntu-R" font-size="10.00">_GMX.energy_force_driver_all</text>
</a>
</g>
<!-- Node1&#45;&gt;Node2 -->
<g id="edge2" class="edge"><title>Node1&#45;&gt;Node2</title>
<path fill="none" stroke="midnightblue" d="M148.033,-64C156.452,-64 165.095,-64 173.675,-64"/>
<polygon fill="midnightblue" stroke="midnightblue" points="173.702,-67.5001 183.701,-64 173.701,-60.5001 173.702,-67.5001"/>
</g>
<!-- Node10 -->
<g id="node20" class="node"><title>Node10</title>
<a xlink:href="namespaceforcebalance_1_1gmxio.html#acac8488f29b62fb0d4cb54bb5a041026" target="_top" xlink:title="forcebalance.gmxio.rm\l_gmx_baks">
<polygon fill="white" stroke="black" points="1149,-20 1149,-54 1275,-54 1275,-20 1149,-20"/>
<text text-anchor="start" x="1157" y="-41" font-family="Ubuntu-R" font-size="10.00">forcebalance.gmxio.rm</text>
<text text-anchor="middle" x="1212" y="-28" font-family="Ubuntu-R" font-size="10.00">_gmx_baks</text>
</a>
</g>
<!-- Node1&#45;&gt;Node10 -->
<g id="edge24" class="edge"><title>Node1&#45;&gt;Node10</title>
<path fill="none" stroke="midnightblue" d="M137.161,-46.9332C212.996,-27.9742 344.32,-0 459,-0 459,-0 459,-0 836,-0 941.775,-1.42109e-14 1063.49,-14.6816 1139.09,-25.5483"/>
<polygon fill="midnightblue" stroke="midnightblue" points="1138.59,-29.0122 1148.99,-26.9873 1139.59,-22.085 1138.59,-29.0122"/>
</g>
<!-- Node3 -->
<g id="node5" class="node"><title>Node3</title>
<a xlink:href="classforcebalance_1_1gmxio_1_1AbInitio__GMX.html#ae17e3c379d82935d725dd31f01df23e5" target="_top" xlink:title="Call mdrun in order to update the virtual site positions.">
<polygon fill="white" stroke="black" points="376,-66 376,-100 542,-100 542,-66 376,-66"/>
<text text-anchor="start" x="384" y="-87" font-family="Ubuntu-R" font-size="10.00">forcebalance.gmxio.AbInitio</text>
<text text-anchor="middle" x="459" y="-74" font-family="Ubuntu-R" font-size="10.00">_GMX.generate_vsite_positions</text>
</a>
</g>
<!-- Node2&#45;&gt;Node3 -->
<g id="edge4" class="edge"><title>Node2&#45;&gt;Node3</title>
<path fill="none" stroke="midnightblue" d="M340.143,-71.5366C348.559,-72.3483 357.182,-73.18 365.752,-74.0065"/>
<polygon fill="midnightblue" stroke="midnightblue" points="365.483,-77.4967 375.773,-74.973 366.155,-70.5291 365.483,-77.4967"/>
</g>
<!-- Node2&#45;&gt;Node10 -->
<g id="edge22" class="edge"><title>Node2&#45;&gt;Node10</title>
<path fill="none" stroke="midnightblue" d="M340.332,-55.702C419.008,-48.0929 543.765,-38 652,-38 652,-38 652,-38 836,-38 941.052,-38 1062.61,-37.6048 1138.41,-37.3113"/>
<polygon fill="midnightblue" stroke="midnightblue" points="1138.81,-40.8099 1148.8,-37.2706 1138.79,-33.8099 1138.81,-40.8099"/>
</g>
<!-- Node4 -->
<g id="node7" class="node"><title>Node4</title>
<a xlink:href="classforcebalance_1_1gmxio_1_1AbInitio__GMX.html#a1d03ae8104bcecacf96884058f2698af" target="_top" xlink:title="forcebalance.gmxio.AbInitio\l_GMX.__init__">
<polygon fill="white" stroke="black" points="578,-66 578,-100 726,-100 726,-66 578,-66"/>
<text text-anchor="start" x="586" y="-87" font-family="Ubuntu-R" font-size="10.00">forcebalance.gmxio.AbInitio</text>
<text text-anchor="middle" x="652" y="-74" font-family="Ubuntu-R" font-size="10.00">_GMX.__init__</text>
</a>
</g>
<!-- Node3&#45;&gt;Node4 -->
<g id="edge6" class="edge"><title>Node3&#45;&gt;Node4</title>
<path fill="none" stroke="midnightblue" d="M542.25,-83C550.663,-83 559.214,-83 567.639,-83"/>
<polygon fill="midnightblue" stroke="midnightblue" points="567.836,-86.5001 577.836,-83 567.836,-79.5001 567.836,-86.5001"/>
</g>
<!-- Node5 -->
<g id="node9" class="node"><title>Node5</title>
<a xlink:href="classforcebalance_1_1gmxio_1_1AbInitio__GMX.html#aba138ca4195a1737f2f00bd8c5f3ca07" target="_top" xlink:title="This function parses the GROMACS topology file (.top) which contains a listing of the molecules in th...">
<polygon fill="white" stroke="black" points="762,-66 762,-100 910,-100 910,-66 762,-66"/>
<text text-anchor="start" x="770" y="-87" font-family="Ubuntu-R" font-size="10.00">forcebalance.gmxio.AbInitio</text>
<text text-anchor="middle" x="836" y="-74" font-family="Ubuntu-R" font-size="10.00">_GMX.read_topology</text>
</a>
</g>
<!-- Node4&#45;&gt;Node5 -->
<g id="edge8" class="edge"><title>Node4&#45;&gt;Node5</title>
<path fill="none" stroke="midnightblue" d="M726.044,-83C734.514,-83 743.195,-83 751.784,-83"/>
<polygon fill="midnightblue" stroke="midnightblue" points="751.808,-86.5001 761.808,-83 751.807,-79.5001 751.808,-86.5001"/>
</g>
<!-- Node6 -->
<g id="node11" class="node"><title>Node6</title>
<a xlink:href="classforcebalance_1_1gmxio_1_1AbInitio__GMX.html#ab2eac76585bdb8401812f0c8e465a44e" target="_top" xlink:title="forcebalance.gmxio.AbInitio\l_GMX.prepare_temp_directory">
<polygon fill="white" stroke="black" points="946.5,-66 946.5,-100 1107.5,-100 1107.5,-66 946.5,-66"/>
<text text-anchor="start" x="954.5" y="-87" font-family="Ubuntu-R" font-size="10.00">forcebalance.gmxio.AbInitio</text>
<text text-anchor="middle" x="1027" y="-74" font-family="Ubuntu-R" font-size="10.00">_GMX.prepare_temp_directory</text>
</a>
</g>
<!-- Node5&#45;&gt;Node6 -->
<g id="edge10" class="edge"><title>Node5&#45;&gt;Node6</title>
<path fill="none" stroke="midnightblue" d="M910.119,-83C918.636,-83 927.391,-83 936.096,-83"/>
<polygon fill="midnightblue" stroke="midnightblue" points="936.274,-86.5001 946.274,-83 936.274,-79.5001 936.274,-86.5001"/>
</g>
<!-- Node6&#45;&gt;Node1 -->
<g id="edge18" class="edge"><title>Node6&#45;&gt;Node1</title>
<path fill="none" stroke="midnightblue" d="M958.327,-100.005C942.533,-103.429 925.749,-106.683 910,-109 796.248,-125.737 766.977,-128 652,-128 459,-128 459,-128 459,-128 349.248,-128 224.251,-102.378 147.238,-83.5577"/>
<polygon fill="midnightblue" stroke="midnightblue" points="147.709,-80.0687 137.161,-81.0668 146.029,-86.8642 147.709,-80.0687"/>
</g>
<!-- Node7 -->
<g id="node13" class="node"><title>Node7</title>
<a xlink:href="namespaceforcebalance_1_1nifty.html#abb8f59044961a12588e0653c2baa8b01" target="_top" xlink:title="forcebalance.nifty.warn\l_press_key">
<polygon fill="white" stroke="black" points="1149.5,-112 1149.5,-146 1274.5,-146 1274.5,-112 1149.5,-112"/>
<text text-anchor="start" x="1157.5" y="-133" font-family="Ubuntu-R" font-size="10.00">forcebalance.nifty.warn</text>
<text text-anchor="middle" x="1212" y="-120" font-family="Ubuntu-R" font-size="10.00">_press_key</text>
</a>
</g>
<!-- Node6&#45;&gt;Node7 -->
<g id="edge12" class="edge"><title>Node6&#45;&gt;Node7</title>
<path fill="none" stroke="midnightblue" d="M1095.62,-100.063C1109.91,-103.616 1125.01,-107.371 1139.44,-110.957"/>
<polygon fill="midnightblue" stroke="midnightblue" points="1138.75,-114.392 1149.3,-113.409 1140.44,-107.599 1138.75,-114.392"/>
</g>
<!-- Node8 -->
<g id="node15" class="node"><title>Node8</title>
<a xlink:href="namespaceforcebalance_1_1nifty.html#ab182a9da2a2f42cf45942fbee6acf9b1" target="_top" xlink:title="forcebalance.nifty.LinkFile">
<polygon fill="white" stroke="black" points="1144,-72.5 1144,-93.5 1280,-93.5 1280,-72.5 1144,-72.5"/>
<text text-anchor="middle" x="1212" y="-80.5" font-family="Ubuntu-R" font-size="10.00">forcebalance.nifty.LinkFile</text>
</a>
</g>
<!-- Node6&#45;&gt;Node8 -->
<g id="edge14" class="edge"><title>Node6&#45;&gt;Node8</title>
<path fill="none" stroke="midnightblue" d="M1107.61,-83C1116.28,-83 1125.1,-83 1133.75,-83"/>
<polygon fill="midnightblue" stroke="midnightblue" points="1133.81,-86.5001 1143.81,-83 1133.81,-79.5001 1133.81,-86.5001"/>
</g>
<!-- Node6&#45;&gt;Node10 -->
<g id="edge20" class="edge"><title>Node6&#45;&gt;Node10</title>
<path fill="none" stroke="midnightblue" d="M1095.62,-65.9367C1109.83,-62.405 1124.84,-58.6729 1139.18,-55.1055"/>
<polygon fill="midnightblue" stroke="midnightblue" points="1140.13,-58.4762 1148.99,-52.6665 1138.44,-51.6831 1140.13,-58.4762"/>
</g>
<!-- Node9 -->
<g id="node17" class="node"><title>Node9</title>
<a xlink:href="namespaceforcebalance_1_1nifty.html#a25efa4d501ad852a234721af18978f7e" target="_top" xlink:title="Remove the file if it exists (doesn&#39;t return an error).">
<polygon fill="white" stroke="black" points="1316.5,-66 1316.5,-100 1455.5,-100 1455.5,-66 1316.5,-66"/>
<text text-anchor="start" x="1324.5" y="-87" font-family="Ubuntu-R" font-size="10.00">forcebalance.nifty.remove</text>
<text text-anchor="middle" x="1386" y="-74" font-family="Ubuntu-R" font-size="10.00">_if_exists</text>
</a>
</g>
<!-- Node8&#45;&gt;Node9 -->
<g id="edge16" class="edge"><title>Node8&#45;&gt;Node9</title>
<path fill="none" stroke="midnightblue" d="M1280.27,-83C1288.82,-83 1297.63,-83 1306.34,-83"/>
<polygon fill="midnightblue" stroke="midnightblue" points="1306.5,-86.5001 1316.5,-83 1306.5,-79.5001 1306.5,-86.5001"/>
</g>
</g>
</svg>
