<?xml version="1.0" encoding="UTF-8" standalone="no"?>
<!DOCTYPE svg PUBLIC "-//W3C//DTD SVG 1.1//EN"
 "http://www.w3.org/Graphics/SVG/1.1/DTD/svg11.dtd">
<!-- Generated by graphviz version 2.32.0 (20130801.1845)
 -->
<!-- Title: forcebalance.psi4io.RDVR3_Psi4.indicate Pages: 1 -->
<svg width="470pt" height="40pt"
 viewBox="0.00 0.00 470.00 40.00" xmlns="http://www.w3.org/2000/svg" xmlns:xlink="http://www.w3.org/1999/xlink">
<g id="graph0" class="graph" transform="scale(1 1) rotate(0) translate(4 36)">
<title>forcebalance.psi4io.RDVR3_Psi4.indicate</title>
<polygon fill="white" stroke="white" points="-4,5 -4,-36 467,-36 467,5 -4,5"/>
<!-- Node1 -->
<g id="node1" class="node"><title>Node1</title>
<polygon fill="#bfbfbf" stroke="black" points="0.353,-0 0.353,-32 129.647,-32 129.647,-0 0.353,-0"/>
<text text-anchor="start" x="8.353" y="-19" font-family="Ubuntu-R" font-size="10.00">forcebalance.psi4io.RDVR3</text>
<text text-anchor="middle" x="65" y="-7" font-family="Ubuntu-R" font-size="10.00">_Psi4.indicate</text>
</g>
<!-- Node2 -->
<g id="node2" class="node"><title>Node2</title>
<g id="a_node2"><a xlink:href="classforcebalance_1_1psi4io_1_1RDVR3__Psi4.html#a8c4cf7a59ef8714519631145669a5df9" target="_top" xlink:title="forcebalance.psi4io.RDVR3\l_Psi4.driver">
<polygon fill="white" stroke="black" points="166.353,-0 166.353,-32 295.647,-32 295.647,-0 166.353,-0"/>
<text text-anchor="start" x="174.353" y="-19" font-family="Ubuntu-R" font-size="10.00">forcebalance.psi4io.RDVR3</text>
<text text-anchor="middle" x="231" y="-7" font-family="Ubuntu-R" font-size="10.00">_Psi4.driver</text>
</a>
</g>
</g>
<!-- Node1&#45;&gt;Node2 -->
<g id="edge1" class="edge"><title>Node1&#45;&gt;Node2</title>
<path fill="none" stroke="midnightblue" d="M129.876,-16C138.474,-16 147.351,-16 156.104,-16"/>
<polygon fill="midnightblue" stroke="midnightblue" points="156.298,-19.5001 166.298,-16 156.298,-12.5001 156.298,-19.5001"/>
</g>
<!-- Node3 -->
<g id="node3" class="node"><title>Node3</title>
<g id="a_node3"><a xlink:href="classforcebalance_1_1psi4io_1_1RDVR3__Psi4.html#a70936cb704ab5df307013cc6aa5b85c8" target="_top" xlink:title="LPW 04&#45;17&#45;2013.">
<polygon fill="white" stroke="black" points="332.353,-0 332.353,-32 461.647,-32 461.647,-0 332.353,-0"/>
<text text-anchor="start" x="340.353" y="-19" font-family="Ubuntu-R" font-size="10.00">forcebalance.psi4io.RDVR3</text>
<text text-anchor="middle" x="397" y="-7" font-family="Ubuntu-R" font-size="10.00">_Psi4.get</text>
</a>
</g>
</g>
<!-- Node2&#45;&gt;Node3 -->
<g id="edge2" class="edge"><title>Node2&#45;&gt;Node3</title>
<path fill="none" stroke="midnightblue" d="M295.876,-16C304.474,-16 313.351,-16 322.104,-16"/>
<polygon fill="midnightblue" stroke="midnightblue" points="322.298,-19.5001 332.298,-16 322.298,-12.5001 322.298,-19.5001"/>
</g>
</g>
</svg>
