<?xml version="1.0" encoding="UTF-8" standalone="no"?>
<!DOCTYPE svg PUBLIC "-//W3C//DTD SVG 1.1//EN"
 "http://www.w3.org/Graphics/SVG/1.1/DTD/svg11.dtd">
<!-- Generated by graphviz version 2.32.0 (20130801.1845)
 -->
<!-- Title: forcebalance.forcefield.FF.make_redirect Pages: 1 -->
<svg width="1908pt" height="381pt"
 viewBox="0.00 0.00 1908.00 381.00" xmlns="http://www.w3.org/2000/svg" xmlns:xlink="http://www.w3.org/1999/xlink">
<g id="graph0" class="graph" transform="scale(1 1) rotate(0) translate(4 377)">
<title>forcebalance.forcefield.FF.make_redirect</title>
<polygon fill="white" stroke="white" points="-4,5 -4,-377 1905,-377 1905,5 -4,5"/>
<!-- Node1 -->
<g id="node1" class="node"><title>Node1</title>
<polygon fill="#bfbfbf" stroke="black" points="0.5335,-185 0.5335,-217 111.467,-217 111.467,-185 0.5335,-185"/>
<text text-anchor="start" x="8.5335" y="-204" font-family="Ubuntu-R" font-size="10.00">forcebalance.forcefield.</text>
<text text-anchor="middle" x="56" y="-192" font-family="Ubuntu-R" font-size="10.00">FF.make_redirect</text>
</g>
<!-- Node2 -->
<g id="node2" class="node"><title>Node2</title>
<g id="a_node2"><a xlink:href="classforcebalance_1_1forcefield_1_1FF.html#a260031479e0429e497f56987de541930" target="_top" xlink:title="Converts mathematical to physical parameters.">
<polygon fill="white" stroke="black" points="296.534,-140 296.534,-172 407.466,-172 407.466,-140 296.534,-140"/>
<text text-anchor="start" x="304.534" y="-159" font-family="Ubuntu-R" font-size="10.00">forcebalance.forcefield.</text>
<text text-anchor="middle" x="352" y="-147" font-family="Ubuntu-R" font-size="10.00">FF.create_pvals</text>
</a>
</g>
</g>
<!-- Node1&#45;&gt;Node2 -->
<g id="edge1" class="edge"><title>Node1&#45;&gt;Node2</title>
<path fill="none" stroke="midnightblue" d="M111.634,-198.141C152.699,-195.383 210.205,-190.224 260,-181 269.326,-179.272 279.088,-177.048 288.611,-174.639"/>
<polygon fill="midnightblue" stroke="midnightblue" points="289.631,-177.99 298.421,-172.076 287.861,-171.218 289.631,-177.99"/>
</g>
<!-- Node8 -->
<g id="node8" class="node"><title>Node8</title>
<g id="a_node8"><a xlink:href="namespaceforcebalance_1_1nifty.html#abb8f59044961a12588e0653c2baa8b01" target="_top" xlink:title="forcebalance.nifty.warn\l_press_key">
<polygon fill="white" stroke="black" points="773.528,-282 773.528,-314 884.472,-314 884.472,-282 773.528,-282"/>
<text text-anchor="start" x="781.528" y="-301" font-family="Ubuntu-R" font-size="10.00">forcebalance.nifty.warn</text>
<text text-anchor="middle" x="829" y="-289" font-family="Ubuntu-R" font-size="10.00">_press_key</text>
</a>
</g>
</g>
<!-- Node1&#45;&gt;Node8 -->
<g id="edge33" class="edge"><title>Node1&#45;&gt;Node8</title>
<path fill="none" stroke="midnightblue" d="M80.1562,-217.129C128.25,-249.003 243.453,-317 351,-317 351,-317 351,-317 501,-317 592.089,-317 697.211,-309.561 763.143,-303.993"/>
<polygon fill="midnightblue" stroke="midnightblue" points="763.715,-307.457 773.38,-303.117 763.118,-300.482 763.715,-307.457"/>
</g>
<!-- Node24 -->
<g id="node24" class="node"><title>Node24</title>
<g id="a_node24"><a xlink:href="classforcebalance_1_1forcefield_1_1FF.html#a2515e2361eb460edeab69f3d7742d3d9" target="_top" xlink:title="forcebalance.forcefield.\lFF.find_spacings">
<polygon fill="white" stroke="black" points="148.533,-140 148.533,-172 259.466,-172 259.466,-140 148.533,-140"/>
<text text-anchor="start" x="156.533" y="-159" font-family="Ubuntu-R" font-size="10.00">forcebalance.forcefield.</text>
<text text-anchor="middle" x="204" y="-147" font-family="Ubuntu-R" font-size="10.00">FF.find_spacings</text>
</a>
</g>
</g>
<!-- Node1&#45;&gt;Node24 -->
<g id="edge31" class="edge"><title>Node1&#45;&gt;Node24</title>
<path fill="none" stroke="midnightblue" d="M109.297,-184.881C119.696,-181.676 130.706,-178.282 141.383,-174.991"/>
<polygon fill="midnightblue" stroke="midnightblue" points="142.543,-178.297 151.068,-172.006 140.481,-171.607 142.543,-178.297"/>
</g>
<!-- Node3 -->
<g id="node3" class="node"><title>Node3</title>
<g id="a_node3"><a xlink:href="namespaceforcebalance_1_1nifty.html#a52114ceee9d55f94d9aecb3e176de294" target="_top" xlink:title="Given any list, array, or matrix, return a single&#45;index array.">
<polygon fill="white" stroke="black" points="447.858,-127 447.858,-147 552.142,-147 552.142,-127 447.858,-127"/>
<text text-anchor="middle" x="500" y="-134" font-family="Ubuntu-R" font-size="10.00">forcebalance.nifty.flat</text>
</a>
</g>
</g>
<!-- Node2&#45;&gt;Node3 -->
<g id="edge2" class="edge"><title>Node2&#45;&gt;Node3</title>
<path fill="none" stroke="midnightblue" d="M407.78,-148.871C417.509,-147.605 427.699,-146.279 437.597,-144.991"/>
<polygon fill="midnightblue" stroke="midnightblue" points="438.31,-148.428 447.774,-143.666 437.406,-141.486 438.31,-148.428"/>
</g>
<!-- Node4 -->
<g id="node4" class="node"><title>Node4</title>
<g id="a_node4"><a xlink:href="namespaceforcebalance_1_1nifty.html#a4c82187e92dfeb8a159f4aa44b501c40" target="_top" xlink:title="Invert a matrix using singular value decomposition.">
<polygon fill="white" stroke="black" points="592.413,-166 592.413,-186 725.587,-186 725.587,-166 592.413,-166"/>
<text text-anchor="middle" x="659" y="-173" font-family="Ubuntu-R" font-size="10.00">forcebalance.nifty.invert_svd</text>
</a>
</g>
</g>
<!-- Node2&#45;&gt;Node4 -->
<g id="edge15" class="edge"><title>Node2&#45;&gt;Node4</title>
<path fill="none" stroke="midnightblue" d="M407.528,-159.576C456.141,-162.763 527.788,-167.462 582.015,-171.017"/>
<polygon fill="midnightblue" stroke="midnightblue" points="582.064,-174.528 592.271,-171.69 582.522,-167.543 582.064,-174.528"/>
</g>
<!-- Node7 -->
<g id="node7" class="node"><title>Node7</title>
<g id="a_node7"><a xlink:href="namespaceforcebalance_1_1nifty.html#afb3f205bce4984856e766af7e9fdaca8" target="_top" xlink:title="Given any list, array, or matrix, return a 1&#45;column matrix.">
<polygon fill="white" stroke="black" points="1296.41,-134 1296.41,-154 1399.59,-154 1399.59,-134 1296.41,-134"/>
<text text-anchor="middle" x="1348" y="-141" font-family="Ubuntu-R" font-size="10.00">forcebalance.nifty.col</text>
</a>
</g>
</g>
<!-- Node2&#45;&gt;Node7 -->
<g id="edge11" class="edge"><title>Node2&#45;&gt;Node7</title>
<path fill="none" stroke="midnightblue" d="M383.2,-139.885C436.89,-112.781 553.18,-61 658,-61 658,-61 658,-61 1011,-61 1120.6,-61 1149.08,-71.3246 1254,-103 1276.38,-109.755 1300.5,-120.498 1318.57,-129.292"/>
<polygon fill="midnightblue" stroke="midnightblue" points="1317.42,-132.63 1327.93,-133.94 1320.53,-126.359 1317.42,-132.63"/>
</g>
<!-- Node10 -->
<g id="node10" class="node"><title>Node10</title>
<g id="a_node10"><a xlink:href="classforcebalance_1_1forcefield_1_1FF.html#ae5fba4d3e22f210632ead3653e6e12dd" target="_top" xlink:title="Converts physical to mathematical parameters.">
<polygon fill="white" stroke="black" points="444.534,-0 444.534,-32 555.466,-32 555.466,-0 444.534,-0"/>
<text text-anchor="start" x="452.534" y="-19" font-family="Ubuntu-R" font-size="10.00">forcebalance.forcefield.</text>
<text text-anchor="middle" x="500" y="-7" font-family="Ubuntu-R" font-size="10.00">FF.create_mvals</text>
</a>
</g>
</g>
<!-- Node2&#45;&gt;Node10 -->
<g id="edge12" class="edge"><title>Node2&#45;&gt;Node10</title>
<path fill="none" stroke="midnightblue" d="M363.803,-139.628C379.454,-116.804 410.276,-75.0731 444,-47 448.159,-43.5376 452.76,-40.2576 457.478,-37.2184"/>
<polygon fill="midnightblue" stroke="midnightblue" points="459.299,-40.2072 466.025,-32.0207 455.662,-34.2264 459.299,-40.2072"/>
</g>
<!-- Node13 -->
<g id="node13" class="node"><title>Node13</title>
<g id="a_node13"><a xlink:href="classforcebalance_1_1forcefield_1_1FF.html#a88715f96ff8e14c3c83b4f976ad147b4" target="_top" xlink:title="Create the rescaling factors for the coordinate transformation in parameter space.">
<polygon fill="white" stroke="black" points="444.534,-230 444.534,-262 555.466,-262 555.466,-230 444.534,-230"/>
<text text-anchor="start" x="452.534" y="-249" font-family="Ubuntu-R" font-size="10.00">forcebalance.forcefield.</text>
<text text-anchor="middle" x="500" y="-237" font-family="Ubuntu-R" font-size="10.00">FF.rsmake</text>
</a>
</g>
</g>
<!-- Node2&#45;&gt;Node13 -->
<g id="edge16" class="edge"><title>Node2&#45;&gt;Node13</title>
<path fill="none" stroke="midnightblue" d="M379.102,-172.09C402.727,-186.654 437.717,-208.223 463.808,-224.306"/>
<polygon fill="midnightblue" stroke="midnightblue" points="462.283,-227.478 472.632,-229.746 465.956,-221.519 462.283,-227.478"/>
</g>
<!-- Node3&#45;&gt;Node4 -->
<g id="edge3" class="edge"><title>Node3&#45;&gt;Node4</title>
<path fill="none" stroke="midnightblue" d="M541.431,-147.043C561.667,-152.07 586.356,-158.203 607.795,-163.529"/>
<polygon fill="midnightblue" stroke="midnightblue" points="607.157,-166.976 617.706,-165.991 608.844,-160.183 607.157,-166.976"/>
</g>
<!-- Node5 -->
<g id="node5" class="node"><title>Node5</title>
<g id="a_node5"><a xlink:href="namespaceforcebalance_1_1nifty.html#aa9fb9c7c65231eca50a7afc04f489b64" target="_top" xlink:title="forcebalance.nifty.get\l_least_squares">
<polygon fill="white" stroke="black" points="777.412,-128 777.412,-160 880.588,-160 880.588,-128 777.412,-128"/>
<text text-anchor="start" x="785.412" y="-147" font-family="Ubuntu-R" font-size="10.00">forcebalance.nifty.get</text>
<text text-anchor="middle" x="829" y="-135" font-family="Ubuntu-R" font-size="10.00">_least_squares</text>
</a>
</g>
</g>
<!-- Node4&#45;&gt;Node5 -->
<g id="edge4" class="edge"><title>Node4&#45;&gt;Node5</title>
<path fill="none" stroke="midnightblue" d="M712.695,-165.963C729.91,-162.684 749.171,-159.015 766.947,-155.629"/>
<polygon fill="midnightblue" stroke="midnightblue" points="768.047,-158.983 777.215,-153.673 766.737,-152.106 768.047,-158.983"/>
</g>
<!-- Node4&#45;&gt;Node7 -->
<g id="edge7" class="edge"><title>Node4&#45;&gt;Node7</title>
<path fill="none" stroke="midnightblue" d="M725.683,-176.552C809.74,-176.885 959.823,-176.223 1088,-169 1155.87,-165.176 1233.43,-157.21 1285.85,-151.293"/>
<polygon fill="midnightblue" stroke="midnightblue" points="1286.44,-154.748 1295.98,-150.139 1285.65,-147.792 1286.44,-154.748"/>
</g>
<!-- Node4&#45;&gt;Node8 -->
<g id="edge9" class="edge"><title>Node4&#45;&gt;Node8</title>
<path fill="none" stroke="midnightblue" d="M706.349,-186.063C713.182,-188.468 719.949,-191.412 726,-195 760.509,-215.465 791.594,-250.385 810.137,-273.821"/>
<polygon fill="midnightblue" stroke="midnightblue" points="807.493,-276.124 816.384,-281.887 813.028,-271.838 807.493,-276.124"/>
</g>
<!-- Node5&#45;&gt;Node3 -->
<g id="edge5" class="edge"><title>Node5&#45;&gt;Node3</title>
<path fill="none" stroke="midnightblue" d="M777.384,-142.916C719.469,-141.677 624.638,-139.647 562.513,-138.317"/>
<polygon fill="midnightblue" stroke="midnightblue" points="562.526,-134.816 552.453,-138.101 562.376,-141.815 562.526,-134.816"/>
</g>
<!-- Node6 -->
<g id="node6" class="node"><title>Node6</title>
<g id="a_node6"><a xlink:href="namespaceforcebalance_1_1nifty.html#ad5ca60565c864b4245a8212fe9d92e10" target="_top" xlink:title="Compute the (cross) statistical inefficiency of (two) timeseries.">
<polygon fill="white" stroke="black" points="945.636,-128 945.636,-160 1074.36,-160 1074.36,-128 945.636,-128"/>
<text text-anchor="start" x="953.636" y="-147" font-family="Ubuntu-R" font-size="10.00">forcebalance.nifty.statistical</text>
<text text-anchor="middle" x="1010" y="-135" font-family="Ubuntu-R" font-size="10.00">Inefficiency</text>
</a>
</g>
</g>
<!-- Node5&#45;&gt;Node6 -->
<g id="edge6" class="edge"><title>Node5&#45;&gt;Node6</title>
<path fill="none" stroke="midnightblue" d="M880.815,-144C897.821,-144 917.135,-144 935.516,-144"/>
<polygon fill="midnightblue" stroke="midnightblue" points="935.612,-147.5 945.612,-144 935.612,-140.5 935.612,-147.5"/>
</g>
<!-- Node7&#45;&gt;Node3 -->
<g id="edge8" class="edge"><title>Node7&#45;&gt;Node3</title>
<path fill="none" stroke="midnightblue" d="M1301.34,-133.957C1236.94,-120.695 1115.61,-99 1011,-99 828,-99 828,-99 828,-99 734.96,-99 628.019,-114.366 562.479,-125.556"/>
<polygon fill="midnightblue" stroke="midnightblue" points="561.581,-122.159 552.325,-127.313 562.775,-129.056 561.581,-122.159"/>
</g>
<!-- Node9 -->
<g id="node9" class="node"><title>Node9</title>
<g id="a_node9"><a xlink:href="namespaceforcebalance_1_1nifty.html#a2fc81730e7efa7d138dd86f733507bfc" target="_top" xlink:title="Similar to the bultin function map().">
<polygon fill="white" stroke="black" points="932.035,-281 932.035,-301 1087.96,-301 1087.96,-281 932.035,-281"/>
<text text-anchor="middle" x="1010" y="-288" font-family="Ubuntu-R" font-size="10.00">forcebalance.nifty.concurrent_map</text>
</a>
</g>
</g>
<!-- Node8&#45;&gt;Node9 -->
<g id="edge10" class="edge"><title>Node8&#45;&gt;Node9</title>
<path fill="none" stroke="midnightblue" d="M884.679,-295.862C896.442,-295.402 909.156,-294.905 921.809,-294.41"/>
<polygon fill="midnightblue" stroke="midnightblue" points="922.068,-297.902 931.923,-294.014 921.794,-290.908 922.068,-297.902"/>
</g>
<!-- Node11 -->
<g id="node11" class="node"><title>Node11</title>
<g id="a_node11"><a xlink:href="namespaceforcebalance_1_1molecule.html#a0dd31eff88d2bed0884ab21a13261d42" target="_top" xlink:title="ONLY matches integers! If you have a decimal point? None shall pass!">
<polygon fill="white" stroke="black" points="596.024,-6 596.024,-26 721.976,-26 721.976,-6 596.024,-6"/>
<text text-anchor="middle" x="659" y="-13" font-family="Ubuntu-R" font-size="10.00">forcebalance.molecule.isint</text>
</a>
</g>
</g>
<!-- Node10&#45;&gt;Node11 -->
<g id="edge13" class="edge"><title>Node10&#45;&gt;Node11</title>
<path fill="none" stroke="midnightblue" d="M555.47,-16C565.235,-16 575.548,-16 585.721,-16"/>
<polygon fill="midnightblue" stroke="midnightblue" points="585.822,-19.5001 595.822,-16 585.822,-12.5001 585.822,-19.5001"/>
</g>
<!-- Node12 -->
<g id="node12" class="node"><title>Node12</title>
<g id="a_node12"><a xlink:href="namespaceforcebalance_1_1molecule.html#afe989ffd119568047fc8265b1d329a70" target="_top" xlink:title="Matches ANY number; it can be a decimal, scientific notation, integer, or what have you...">
<polygon fill="white" stroke="black" points="762.14,-6 762.14,-26 895.86,-26 895.86,-6 762.14,-6"/>
<text text-anchor="middle" x="829" y="-13" font-family="Ubuntu-R" font-size="10.00">forcebalance.molecule.isfloat</text>
</a>
</g>
</g>
<!-- Node11&#45;&gt;Node12 -->
<g id="edge14" class="edge"><title>Node11&#45;&gt;Node12</title>
<path fill="none" stroke="midnightblue" d="M722.08,-16C731.722,-16 741.78,-16 751.693,-16"/>
<polygon fill="midnightblue" stroke="midnightblue" points="751.948,-19.5001 761.948,-16 751.948,-12.5001 751.948,-19.5001"/>
</g>
<!-- Node14 -->
<g id="node14" class="node"><title>Node14</title>
<g id="a_node14"><a xlink:href="namespaceforcebalance_1_1forcefield.html#ab1a855bace20dd5e45928467e2a133f1" target="_top" xlink:title="This function takes in a dictionary (rsfactors) and a string (termtype).">
<polygon fill="white" stroke="black" points="599.924,-256 599.924,-288 718.076,-288 718.076,-256 599.924,-256"/>
<text text-anchor="start" x="607.924" y="-275" font-family="Ubuntu-R" font-size="10.00">forcebalance.forcefield.rs</text>
<text text-anchor="middle" x="659" y="-263" font-family="Ubuntu-R" font-size="10.00">_override</text>
</a>
</g>
</g>
<!-- Node13&#45;&gt;Node14 -->
<g id="edge17" class="edge"><title>Node13&#45;&gt;Node14</title>
<path fill="none" stroke="midnightblue" d="M555.47,-255.021C566.567,-256.858 578.373,-258.813 589.877,-260.718"/>
<polygon fill="midnightblue" stroke="midnightblue" points="589.445,-264.195 599.882,-262.375 590.589,-257.289 589.445,-264.195"/>
</g>
<!-- Node15 -->
<g id="node15" class="node"><title>Node15</title>
<g id="a_node15"><a xlink:href="namespaceforcebalance_1_1nifty.html#a11babd62dc7bca389162c6318f9672ca" target="_top" xlink:title="Cool&#45;looking printout for slick formatting of output.">
<polygon fill="white" stroke="black" points="595.468,-346 595.468,-366 722.532,-366 722.532,-346 595.468,-346"/>
<text text-anchor="middle" x="659" y="-353" font-family="Ubuntu-R" font-size="10.00">forcebalance.nifty.printcool</text>
</a>
</g>
</g>
<!-- Node13&#45;&gt;Node15 -->
<g id="edge18" class="edge"><title>Node13&#45;&gt;Node15</title>
<path fill="none" stroke="midnightblue" d="M524.166,-262.231C554.004,-283.137 605.543,-319.247 635.202,-340.027"/>
<polygon fill="midnightblue" stroke="midnightblue" points="633.457,-343.078 643.655,-345.95 637.474,-337.345 633.457,-343.078"/>
</g>
<!-- Node23 -->
<g id="node23" class="node"><title>Node23</title>
<g id="a_node23"><a xlink:href="classforcebalance_1_1forcefield_1_1FF.html#acf0ce8fc4e9fbf5257f93d14d4a4f10f" target="_top" xlink:title="Create the transformation matrix to rescale and rotate the mathematical parameters.">
<polygon fill="white" stroke="black" points="603.534,-205 603.534,-237 714.466,-237 714.466,-205 603.534,-205"/>
<text text-anchor="start" x="611.534" y="-224" font-family="Ubuntu-R" font-size="10.00">forcebalance.forcefield.</text>
<text text-anchor="middle" x="659" y="-212" font-family="Ubuntu-R" font-size="10.00">FF.mktransmat</text>
</a>
</g>
</g>
<!-- Node13&#45;&gt;Node23 -->
<g id="edge30" class="edge"><title>Node13&#45;&gt;Node23</title>
<path fill="none" stroke="midnightblue" d="M555.47,-237.326C567.7,-235.379 580.791,-233.294 593.389,-231.288"/>
<polygon fill="midnightblue" stroke="midnightblue" points="594.035,-234.73 603.36,-229.701 592.934,-227.817 594.035,-234.73"/>
</g>
<!-- Node15&#45;&gt;Node8 -->
<g id="edge19" class="edge"><title>Node15&#45;&gt;Node8</title>
<path fill="none" stroke="midnightblue" d="M689.263,-345.897C711.969,-338.058 744.125,-326.957 771.764,-317.415"/>
<polygon fill="midnightblue" stroke="midnightblue" points="773.018,-320.685 781.328,-314.113 770.733,-314.068 773.018,-320.685"/>
</g>
<!-- Node16 -->
<g id="node16" class="node"><title>Node16</title>
<g id="a_node16"><a xlink:href="namespaceforcebalance_1_1nifty.html#a51180e960742cc7547749fdfb3513ec4" target="_top" xlink:title="See documentation for printcool; this is a nice way to print out keys/values in a dictionary...">
<polygon fill="white" stroke="black" points="765.468,-340 765.468,-372 892.532,-372 892.532,-340 765.468,-340"/>
<text text-anchor="start" x="773.468" y="-359" font-family="Ubuntu-R" font-size="10.00">forcebalance.nifty.printcool</text>
<text text-anchor="middle" x="829" y="-347" font-family="Ubuntu-R" font-size="10.00">_dictionary</text>
</a>
</g>
</g>
<!-- Node15&#45;&gt;Node16 -->
<g id="edge20" class="edge"><title>Node15&#45;&gt;Node16</title>
<path fill="none" stroke="midnightblue" d="M722.557,-356C733.162,-356 744.255,-356 755.097,-356"/>
<polygon fill="midnightblue" stroke="midnightblue" points="755.391,-359.5 765.391,-356 755.391,-352.5 755.391,-359.5"/>
</g>
<!-- Node17 -->
<g id="node17" class="node"><title>Node17</title>
<g id="a_node17"><a xlink:href="namespaceforcebalance_1_1nifty.html#a3f1c7a1af9d35d5d1693074bc6f5497c" target="_top" xlink:title="ONLY matches integers! If you have a decimal point? None shall pass!">
<polygon fill="white" stroke="black" points="955.908,-320 955.908,-340 1064.09,-340 1064.09,-320 955.908,-320"/>
<text text-anchor="middle" x="1010" y="-327" font-family="Ubuntu-R" font-size="10.00">forcebalance.nifty.isint</text>
</a>
</g>
</g>
<!-- Node16&#45;&gt;Node17 -->
<g id="edge21" class="edge"><title>Node16&#45;&gt;Node17</title>
<path fill="none" stroke="midnightblue" d="M892.606,-346.906C909.798,-344.409 928.45,-341.7 945.682,-339.197"/>
<polygon fill="midnightblue" stroke="midnightblue" points="946.25,-342.651 955.643,-337.75 945.243,-335.724 946.25,-342.651"/>
</g>
<!-- Node19 -->
<g id="node19" class="node"><title>Node19</title>
<g id="a_node19"><a xlink:href="namespaceforcebalance_1_1nifty.html#a8e3ef0108b9d37b82ba0dced7c6037ae" target="_top" xlink:title="Matches ANY number; it can be a decimal, scientific notation, what have you CAUTION &#45; this will also ...">
<polygon fill="white" stroke="black" points="1290.02,-320 1290.02,-340 1405.98,-340 1405.98,-320 1290.02,-320"/>
<text text-anchor="middle" x="1348" y="-327" font-family="Ubuntu-R" font-size="10.00">forcebalance.nifty.isfloat</text>
</a>
</g>
</g>
<!-- Node16&#45;&gt;Node19 -->
<g id="edge29" class="edge"><title>Node16&#45;&gt;Node19</title>
<path fill="none" stroke="midnightblue" d="M892.644,-356.628C975.504,-356.91 1126.01,-355.519 1254,-344 1262.3,-343.253 1270.98,-342.248 1279.57,-341.116"/>
<polygon fill="midnightblue" stroke="midnightblue" points="1280.15,-344.57 1289.58,-339.739 1279.2,-337.635 1280.15,-344.57"/>
</g>
<!-- Node18 -->
<g id="node18" class="node"><title>Node18</title>
<g id="a_node18"><a xlink:href="namespaceforcebalance_1_1nifty.html#a09263927eaec9deff283fbf1a820242f" target="_top" xlink:title="Matches things with a decimal only; see isint and isfloat.">
<polygon fill="white" stroke="black" points="1124.36,-281 1124.36,-301 1253.64,-301 1253.64,-281 1124.36,-281"/>
<text text-anchor="middle" x="1189" y="-288" font-family="Ubuntu-R" font-size="10.00">forcebalance.nifty.isdecimal</text>
</a>
</g>
</g>
<!-- Node17&#45;&gt;Node18 -->
<g id="edge22" class="edge"><title>Node17&#45;&gt;Node18</title>
<path fill="none" stroke="midnightblue" d="M1056.58,-319.957C1079.81,-314.839 1108.24,-308.574 1132.71,-303.183"/>
<polygon fill="midnightblue" stroke="midnightblue" points="1133.56,-306.579 1142.57,-301.009 1132.05,-299.743 1133.56,-306.579"/>
</g>
<!-- Node18&#45;&gt;Node7 -->
<g id="edge28" class="edge"><title>Node18&#45;&gt;Node7</title>
<path fill="none" stroke="midnightblue" d="M1200.79,-280.896C1227.23,-256.14 1295.5,-192.224 1328.54,-161.286"/>
<polygon fill="midnightblue" stroke="midnightblue" points="1331.23,-163.564 1336.13,-154.175 1326.44,-158.454 1331.23,-163.564"/>
</g>
<!-- Node18&#45;&gt;Node19 -->
<g id="edge23" class="edge"><title>Node18&#45;&gt;Node19</title>
<path fill="none" stroke="midnightblue" d="M1230.43,-301.043C1250.67,-306.07 1275.36,-312.203 1296.8,-317.529"/>
<polygon fill="midnightblue" stroke="midnightblue" points="1296.16,-320.976 1306.71,-319.991 1297.84,-314.183 1296.16,-320.976"/>
</g>
<!-- Node19&#45;&gt;Node17 -->
<g id="edge24" class="edge"><title>Node19&#45;&gt;Node17</title>
<path fill="none" stroke="midnightblue" d="M1289.79,-330C1229.96,-330 1136.3,-330 1074.29,-330"/>
<polygon fill="midnightblue" stroke="midnightblue" points="1074.24,-326.5 1064.24,-330 1074.24,-333.5 1074.24,-326.5"/>
</g>
<!-- Node20 -->
<g id="node20" class="node"><title>Node20</title>
<g id="a_node20"><a xlink:href="namespaceforcebalance_1_1nifty.html#a8d63c8ae9a67c66673a6cf81357f827d" target="_top" xlink:title="Returns a big number if we encounter NaN.">
<polygon fill="white" stroke="black" points="1441.97,-320 1441.97,-340 1574.03,-340 1574.03,-320 1441.97,-320"/>
<text text-anchor="middle" x="1508" y="-327" font-family="Ubuntu-R" font-size="10.00">forcebalance.nifty.floatornan</text>
</a>
</g>
</g>
<!-- Node19&#45;&gt;Node20 -->
<g id="edge25" class="edge"><title>Node19&#45;&gt;Node20</title>
<path fill="none" stroke="midnightblue" d="M1406.04,-330C1414.36,-330 1423.04,-330 1431.66,-330"/>
<polygon fill="midnightblue" stroke="midnightblue" points="1431.72,-333.5 1441.72,-330 1431.72,-326.5 1431.72,-333.5"/>
</g>
<!-- Node21 -->
<g id="node21" class="node"><title>Node21</title>
<g id="a_node21"><a xlink:href="namespaceforcebalance_1_1nifty.html#a6c9727360cdff8f3011a12cc54d0e86e" target="_top" xlink:title="Given any list, array, or matrix, return a 1&#45;row matrix.">
<polygon fill="white" stroke="black" points="1610.75,-320 1610.75,-340 1717.25,-340 1717.25,-320 1610.75,-320"/>
<text text-anchor="middle" x="1664" y="-327" font-family="Ubuntu-R" font-size="10.00">forcebalance.nifty.row</text>
</a>
</g>
</g>
<!-- Node20&#45;&gt;Node21 -->
<g id="edge26" class="edge"><title>Node20&#45;&gt;Node21</title>
<path fill="none" stroke="midnightblue" d="M1574.31,-330C1583.03,-330 1591.96,-330 1600.62,-330"/>
<polygon fill="midnightblue" stroke="midnightblue" points="1600.65,-333.5 1610.65,-330 1600.65,-326.5 1600.65,-333.5"/>
</g>
<!-- Node22 -->
<g id="node22" class="node"><title>Node22</title>
<g id="a_node22"><a xlink:href="namespaceforcebalance_1_1nifty.html#a7676236002c6a65ea7d2e69a09923889" target="_top" xlink:title="Given two vectors vec1 and vec2, project out the component of vec1 that is along the vec2&#45;direction...">
<polygon fill="white" stroke="black" points="1754.03,-320 1754.03,-340 1899.97,-340 1899.97,-320 1754.03,-320"/>
<text text-anchor="middle" x="1827" y="-327" font-family="Ubuntu-R" font-size="10.00">forcebalance.nifty.orthogonalize</text>
</a>
</g>
</g>
<!-- Node21&#45;&gt;Node22 -->
<g id="edge27" class="edge"><title>Node21&#45;&gt;Node22</title>
<path fill="none" stroke="midnightblue" d="M1717.27,-330C1725.74,-330 1734.69,-330 1743.67,-330"/>
<polygon fill="midnightblue" stroke="midnightblue" points="1743.8,-333.5 1753.8,-330 1743.8,-326.5 1743.8,-333.5"/>
</g>
<!-- Node24&#45;&gt;Node2 -->
<g id="edge32" class="edge"><title>Node24&#45;&gt;Node2</title>
<path fill="none" stroke="midnightblue" d="M259.78,-156C268.388,-156 277.356,-156 286.164,-156"/>
<polygon fill="midnightblue" stroke="midnightblue" points="286.398,-159.5 296.398,-156 286.398,-152.5 286.398,-159.5"/>
</g>
</g>
</svg>
