<?xml version="1.0" encoding="UTF-8" standalone="no"?>
<!DOCTYPE svg PUBLIC "-//W3C//DTD SVG 1.1//EN"
 "http://www.w3.org/Graphics/SVG/1.1/DTD/svg11.dtd">
<!-- Generated by graphviz version 2.26.3 (20100126.1600)
 -->
<!-- Title: forcebalance.gmxio.Interaction_GMX.prepare_temp_directory Pages: 1 -->
<svg width="1628pt" height="319pt"
 viewBox="0.00 0.00 1628.00 318.84" xmlns="http://www.w3.org/2000/svg" xmlns:xlink="http://www.w3.org/1999/xlink">
<g id="graph1" class="graph" transform="scale(1 1) rotate(0) translate(4 314.843)">
<title>forcebalance.gmxio.Interaction_GMX.prepare_temp_directory</title>
<polygon fill="white" stroke="white" points="-4,5 -4,-314.843 1625,-314.843 1625,5 -4,5"/>
<!-- Node1 -->
<g id="node1" class="node"><title>Node1</title>
<polygon fill="#bfbfbf" stroke="black" points="0,-201.843 0,-235.843 164,-235.843 164,-201.843 0,-201.843"/>
<text text-anchor="start" x="8" y="-222.843" font-family="Ubuntu-R" font-size="10.00">forcebalance.gmxio.Interaction</text>
<text text-anchor="middle" x="82" y="-209.843" font-family="Ubuntu-R" font-size="10.00">_GMX.prepare_temp_directory</text>
</g>
<!-- Node2 -->
<g id="node3" class="node"><title>Node2</title>
<a xlink:href="namespaceforcebalance_1_1nifty.html#ab182a9da2a2f42cf45942fbee6acf9b1" target="_top" xlink:title="forcebalance.nifty.LinkFile">
<polygon fill="white" stroke="black" points="214,-281.343 214,-302.343 350,-302.343 350,-281.343 214,-281.343"/>
<text text-anchor="middle" x="282" y="-289.343" font-family="Ubuntu-R" font-size="10.00">forcebalance.nifty.LinkFile</text>
</a>
</g>
<!-- Node1&#45;&gt;Node2 -->
<g id="edge2" class="edge"><title>Node1&#45;&gt;Node2</title>
<path fill="none" stroke="midnightblue" d="M116.508,-235.85C139.721,-246.84 171.225,-260.894 200,-270.843 208.086,-273.639 216.735,-276.249 225.273,-278.613"/>
<polygon fill="midnightblue" stroke="midnightblue" points="224.639,-282.067 235.204,-281.273 226.45,-275.305 224.639,-282.067"/>
</g>
<!-- Node4 -->
<g id="node7" class="node"><title>Node4</title>
<a xlink:href="classforcebalance_1_1gmxio_1_1Interaction__GMX.html#a8ce5c501d7ca8ae08ee2f5c21a67e0fc" target="_top" xlink:title="Computes the energy and force using GROMACS for a single snapshot.">
<polygon fill="white" stroke="black" points="200,-227.843 200,-261.843 364,-261.843 364,-227.843 200,-227.843"/>
<text text-anchor="start" x="208" y="-248.843" font-family="Ubuntu-R" font-size="10.00">forcebalance.gmxio.Interaction</text>
<text text-anchor="middle" x="282" y="-235.843" font-family="Ubuntu-R" font-size="10.00">_GMX.interaction_driver</text>
</a>
</g>
<!-- Node1&#45;&gt;Node4 -->
<g id="edge6" class="edge"><title>Node1&#45;&gt;Node4</title>
<path fill="none" stroke="midnightblue" d="M164.213,-229.531C172.654,-230.628 181.27,-231.748 189.809,-232.858"/>
<polygon fill="midnightblue" stroke="midnightblue" points="189.415,-236.336 199.783,-234.155 190.317,-229.394 189.415,-236.336"/>
</g>
<!-- Node5 -->
<g id="node9" class="node"><title>Node5</title>
<a xlink:href="classforcebalance_1_1gmxio_1_1Interaction__GMX.html#a5bac92638e1962f1ccbe189f4e20898b" target="_top" xlink:title="Computes the energy and force using GROMACS for a trajectory.">
<polygon fill="white" stroke="black" points="200,-175.843 200,-209.843 364,-209.843 364,-175.843 200,-175.843"/>
<text text-anchor="start" x="208" y="-196.843" font-family="Ubuntu-R" font-size="10.00">forcebalance.gmxio.Interaction</text>
<text text-anchor="middle" x="282" y="-183.843" font-family="Ubuntu-R" font-size="10.00">_GMX.interaction_driver_all</text>
</a>
</g>
<!-- Node1&#45;&gt;Node5 -->
<g id="edge8" class="edge"><title>Node1&#45;&gt;Node5</title>
<path fill="none" stroke="midnightblue" d="M164.213,-208.155C172.654,-207.058 181.27,-205.938 189.809,-204.828"/>
<polygon fill="midnightblue" stroke="midnightblue" points="190.317,-208.291 199.783,-203.531 189.415,-201.35 190.317,-208.291"/>
</g>
<!-- Node19 -->
<g id="node41" class="node"><title>Node19</title>
<a xlink:href="namespaceforcebalance_1_1gmxio.html#acac8488f29b62fb0d4cb54bb5a041026" target="_top" xlink:title="forcebalance.gmxio.rm\l_gmx_baks">
<polygon fill="white" stroke="black" points="219,-123.843 219,-157.843 345,-157.843 345,-123.843 219,-123.843"/>
<text text-anchor="start" x="227" y="-144.843" font-family="Ubuntu-R" font-size="10.00">forcebalance.gmxio.rm</text>
<text text-anchor="middle" x="282" y="-131.843" font-family="Ubuntu-R" font-size="10.00">_gmx_baks</text>
</a>
</g>
<!-- Node1&#45;&gt;Node19 -->
<g id="edge44" class="edge"><title>Node1&#45;&gt;Node19</title>
<path fill="none" stroke="midnightblue" d="M117.993,-201.77C141.152,-191.088 172.04,-177.401 200,-166.843 205.065,-164.93 210.339,-163.038 215.663,-161.199"/>
<polygon fill="midnightblue" stroke="midnightblue" points="216.911,-164.471 225.263,-157.952 214.669,-157.84 216.911,-164.471"/>
</g>
<!-- Node3 -->
<g id="node5" class="node"><title>Node3</title>
<a xlink:href="namespaceforcebalance_1_1nifty.html#a25efa4d501ad852a234721af18978f7e" target="_top" xlink:title="Remove the file if it exists (doesn&#39;t return an error).">
<polygon fill="white" stroke="black" points="411.5,-276.843 411.5,-310.843 550.5,-310.843 550.5,-276.843 411.5,-276.843"/>
<text text-anchor="start" x="419.5" y="-297.843" font-family="Ubuntu-R" font-size="10.00">forcebalance.nifty.remove</text>
<text text-anchor="middle" x="481" y="-284.843" font-family="Ubuntu-R" font-size="10.00">_if_exists</text>
</a>
</g>
<!-- Node2&#45;&gt;Node3 -->
<g id="edge4" class="edge"><title>Node2&#45;&gt;Node3</title>
<path fill="none" stroke="midnightblue" d="M350.206,-292.528C366.512,-292.692 384.066,-292.869 400.855,-293.037"/>
<polygon fill="midnightblue" stroke="midnightblue" points="401.157,-296.54 411.191,-293.141 401.227,-289.541 401.157,-296.54"/>
</g>
<!-- Node6 -->
<g id="node11" class="node"><title>Node6</title>
<a xlink:href="namespaceforcebalance_1_1nifty.html#ac37d4fe58ef70ed546ebfc45d12f7a5d" target="_top" xlink:title="forcebalance.nifty.getWork\lQueue">
<polygon fill="white" stroke="black" points="410.5,-224.843 410.5,-258.843 551.5,-258.843 551.5,-224.843 410.5,-224.843"/>
<text text-anchor="start" x="418.5" y="-245.843" font-family="Ubuntu-R" font-size="10.00">forcebalance.nifty.getWork</text>
<text text-anchor="middle" x="481" y="-232.843" font-family="Ubuntu-R" font-size="10.00">Queue</text>
</a>
</g>
<!-- Node5&#45;&gt;Node6 -->
<g id="edge10" class="edge"><title>Node5&#45;&gt;Node6</title>
<path fill="none" stroke="midnightblue" d="M351.042,-209.843C367.464,-213.887 385.111,-218.232 401.943,-222.376"/>
<polygon fill="midnightblue" stroke="midnightblue" points="401.196,-225.797 411.743,-224.79 402.87,-219 401.196,-225.797"/>
</g>
<!-- Node7 -->
<g id="node13" class="node"><title>Node7</title>
<a xlink:href="namespaceforcebalance_1_1nifty.html#abb8f59044961a12588e0653c2baa8b01" target="_top" xlink:title="forcebalance.nifty.warn\l_press_key">
<polygon fill="white" stroke="black" points="418.5,-172.843 418.5,-206.843 543.5,-206.843 543.5,-172.843 418.5,-172.843"/>
<text text-anchor="start" x="426.5" y="-193.843" font-family="Ubuntu-R" font-size="10.00">forcebalance.nifty.warn</text>
<text text-anchor="middle" x="481" y="-180.843" font-family="Ubuntu-R" font-size="10.00">_press_key</text>
</a>
</g>
<!-- Node5&#45;&gt;Node7 -->
<g id="edge12" class="edge"><title>Node5&#45;&gt;Node7</title>
<path fill="none" stroke="midnightblue" d="M364.09,-191.605C378.65,-191.386 393.723,-191.159 408.01,-190.943"/>
<polygon fill="midnightblue" stroke="midnightblue" points="408.309,-194.439 418.255,-190.789 408.203,-187.44 408.309,-194.439"/>
</g>
<!-- Node9 -->
<g id="node17" class="node"><title>Node9</title>
<a xlink:href="namespaceforcebalance_1_1qchemio.html#a067c1b4f6695fc5dc20b5de66114bb7f" target="_top" xlink:title="forcebalance.qchemio.QChem\l_Dielectric_Energy">
<polygon fill="white" stroke="black" points="400.5,-108.843 400.5,-142.843 561.5,-142.843 561.5,-108.843 400.5,-108.843"/>
<text text-anchor="start" x="408.5" y="-129.843" font-family="Ubuntu-R" font-size="10.00">forcebalance.qchemio.QChem</text>
<text text-anchor="middle" x="481" y="-116.843" font-family="Ubuntu-R" font-size="10.00">_Dielectric_Energy</text>
</a>
</g>
<!-- Node5&#45;&gt;Node9 -->
<g id="edge16" class="edge"><title>Node5&#45;&gt;Node9</title>
<path fill="none" stroke="midnightblue" d="M336.768,-175.728C345.878,-172.81 355.217,-169.774 364,-166.843 383.473,-160.345 404.676,-152.999 423.617,-146.337"/>
<polygon fill="midnightblue" stroke="midnightblue" points="425.028,-149.551 433.294,-142.924 422.699,-142.949 425.028,-149.551"/>
</g>
<!-- Node8 -->
<g id="node15" class="node"><title>Node8</title>
<a xlink:href="namespaceforcebalance_1_1nifty.html#a2fc81730e7efa7d138dd86f733507bfc" target="_top" xlink:title="Similar to the bultin function map().">
<polygon fill="white" stroke="black" points="598.5,-192.343 598.5,-213.343 779.5,-213.343 779.5,-192.343 598.5,-192.343"/>
<text text-anchor="middle" x="689" y="-200.343" font-family="Ubuntu-R" font-size="10.00">forcebalance.nifty.concurrent_map</text>
</a>
</g>
<!-- Node7&#45;&gt;Node8 -->
<g id="edge14" class="edge"><title>Node7&#45;&gt;Node8</title>
<path fill="none" stroke="midnightblue" d="M543.689,-193.761C557.819,-194.644 573.163,-195.603 588.41,-196.556"/>
<polygon fill="midnightblue" stroke="midnightblue" points="588.203,-200.05 598.402,-197.18 588.639,-193.063 588.203,-200.05"/>
</g>
<!-- Node10 -->
<g id="node19" class="node"><title>Node10</title>
<a xlink:href="namespaceforcebalance_1_1nifty.html#ad432b88307e1178b0690c0d350b1af36" target="_top" xlink:title="forcebalance.nifty.GoInto">
<polygon fill="white" stroke="black" points="987,-2.34279 987,-23.3428 1121,-23.3428 1121,-2.34279 987,-2.34279"/>
<text text-anchor="middle" x="1054" y="-10.3428" font-family="Ubuntu-R" font-size="10.00">forcebalance.nifty.GoInto</text>
</a>
</g>
<!-- Node9&#45;&gt;Node10 -->
<g id="edge18" class="edge"><title>Node9&#45;&gt;Node10</title>
<path fill="none" stroke="midnightblue" d="M507.481,-108.635C530.603,-94.2286 565.462,-73.9735 598,-60.8428 744.22,-1.83555 790.497,4.57012 948,-2.84279 957.319,-3.28138 967.083,-3.93569 976.755,-4.70362"/>
<polygon fill="midnightblue" stroke="midnightblue" points="976.521,-8.19622 986.778,-5.54074 977.104,-1.2205 976.521,-8.19622"/>
</g>
<!-- Node11 -->
<g id="node21" class="node"><title>Node11</title>
<a xlink:href="namespaceforcebalance_1_1nifty.html#a673f4a044169f5d8d822823989a836a7" target="_top" xlink:title="Submit a job to the Work Queue.">
<polygon fill="white" stroke="black" points="614,-70.3428 614,-91.3428 764,-91.3428 764,-70.3428 614,-70.3428"/>
<text text-anchor="middle" x="689" y="-78.3428" font-family="Ubuntu-R" font-size="10.00">forcebalance.nifty.queue_up</text>
</a>
</g>
<!-- Node9&#45;&gt;Node11 -->
<g id="edge20" class="edge"><title>Node9&#45;&gt;Node11</title>
<path fill="none" stroke="midnightblue" d="M559.636,-108.83C583.18,-103.737 608.571,-98.2432 630.571,-93.4836"/>
<polygon fill="midnightblue" stroke="midnightblue" points="631.388,-96.8879 640.422,-91.3525 629.908,-90.0462 631.388,-96.8879"/>
</g>
<!-- Node14 -->
<g id="node27" class="node"><title>Node14</title>
<a xlink:href="namespaceforcebalance_1_1nifty.html#a576de8c5b6f236280e07e73e39b2ab7c" target="_top" xlink:title="This function waits until the work queue is completely empty.">
<polygon fill="white" stroke="black" points="984.5,-149.343 984.5,-170.343 1123.5,-170.343 1123.5,-149.343 984.5,-149.343"/>
<text text-anchor="middle" x="1054" y="-157.343" font-family="Ubuntu-R" font-size="10.00">forcebalance.nifty.wq_wait</text>
</a>
</g>
<!-- Node9&#45;&gt;Node14 -->
<g id="edge42" class="edge"><title>Node9&#45;&gt;Node14</title>
<path fill="none" stroke="midnightblue" d="M561.523,-133.876C573.737,-134.96 586.198,-135.991 598,-136.843 729.701,-146.351 883.082,-153.224 974.165,-156.865"/>
<polygon fill="midnightblue" stroke="midnightblue" points="974.283,-160.372 984.414,-157.271 974.56,-153.378 974.283,-160.372"/>
</g>
<!-- Node18 -->
<g id="node37" class="node"><title>Node18</title>
<a xlink:href="namespaceforcebalance_1_1nifty.html#ab04e8690d099db2379dc860e0d040120" target="_top" xlink:title="forcebalance.nifty.Leave">
<polygon fill="white" stroke="black" points="988.5,-109.343 988.5,-130.343 1119.5,-130.343 1119.5,-109.343 988.5,-109.343"/>
<text text-anchor="middle" x="1054" y="-117.343" font-family="Ubuntu-R" font-size="10.00">forcebalance.nifty.Leave</text>
</a>
</g>
<!-- Node9&#45;&gt;Node18 -->
<g id="edge40" class="edge"><title>Node9&#45;&gt;Node18</title>
<path fill="none" stroke="midnightblue" d="M561.579,-124.999C672.216,-123.841 869.725,-121.772 977.938,-120.639"/>
<polygon fill="midnightblue" stroke="midnightblue" points="978.163,-124.137 988.126,-120.533 978.09,-117.138 978.163,-124.137"/>
</g>
<!-- Node12 -->
<g id="node23" class="node"><title>Node12</title>
<a xlink:href="namespaceforcebalance_1_1nifty.html#a5d5abeb4a185fde64721d044831e18ee" target="_top" xlink:title="Submit a job to the Work Queue.">
<polygon fill="white" stroke="black" points="816,-11.8428 816,-45.8428 948,-45.8428 948,-11.8428 816,-11.8428"/>
<text text-anchor="start" x="824" y="-32.8428" font-family="Ubuntu-R" font-size="10.00">forcebalance.nifty.queue</text>
<text text-anchor="middle" x="882" y="-19.8428" font-family="Ubuntu-R" font-size="10.00">_up_src_dest</text>
</a>
</g>
<!-- Node11&#45;&gt;Node12 -->
<g id="edge22" class="edge"><title>Node11&#45;&gt;Node12</title>
<path fill="none" stroke="midnightblue" d="M728.056,-70.3198C751.208,-64.0821 781.295,-55.9758 808.721,-48.5863"/>
<polygon fill="midnightblue" stroke="midnightblue" points="809.943,-51.8821 818.688,-45.901 808.121,-45.1232 809.943,-51.8821"/>
</g>
<!-- Node13 -->
<g id="node25" class="node"><title>Node13</title>
<a xlink:href="namespaceforcebalance_1_1nifty.html#a374aac2ef003be02fab49b20ff0a82f0" target="_top" xlink:title="This function waits ten seconds to see if a task in the Work Queue has finished.">
<polygon fill="white" stroke="black" points="824.5,-63.8428 824.5,-97.8428 939.5,-97.8428 939.5,-63.8428 824.5,-63.8428"/>
<text text-anchor="start" x="832.5" y="-84.8428" font-family="Ubuntu-R" font-size="10.00">forcebalance.nifty.wq</text>
<text text-anchor="middle" x="882" y="-71.8428" font-family="Ubuntu-R" font-size="10.00">_wait1</text>
</a>
</g>
<!-- Node11&#45;&gt;Node13 -->
<g id="edge24" class="edge"><title>Node11&#45;&gt;Node13</title>
<path fill="none" stroke="midnightblue" d="M764.171,-80.8428C780.581,-80.8428 797.857,-80.8428 813.97,-80.8428"/>
<polygon fill="midnightblue" stroke="midnightblue" points="814.369,-84.3429 824.369,-80.8428 814.369,-77.3429 814.369,-84.3429"/>
</g>
<!-- Node13&#45;&gt;Node10 -->
<g id="edge34" class="edge"><title>Node13&#45;&gt;Node10</title>
<path fill="none" stroke="midnightblue" d="M925.317,-63.7925C932.879,-60.812 940.67,-57.7389 948,-54.8428 971.257,-45.6544 997.373,-35.3069 1017.86,-27.1817"/>
<polygon fill="midnightblue" stroke="midnightblue" points="1019.43,-30.3265 1027.43,-23.3863 1016.85,-23.8196 1019.43,-30.3265"/>
</g>
<!-- Node13&#45;&gt;Node14 -->
<g id="edge26" class="edge"><title>Node13&#45;&gt;Node14</title>
<path fill="none" stroke="midnightblue" d="M907.499,-97.9644C927.597,-110.865 956.694,-128.254 984,-139.843 989.441,-142.152 995.23,-144.285 1001.06,-146.229"/>
<polygon fill="midnightblue" stroke="midnightblue" points="1000.26,-149.647 1010.85,-149.32 1002.37,-142.972 1000.26,-149.647"/>
</g>
<!-- Node15 -->
<g id="node29" class="node"><title>Node15</title>
<a xlink:href="namespaceforcebalance_1_1nifty.html#ac9ab6c5543a2e3080061e0024850edf3" target="_top" xlink:title="forcebalance.nifty.allsplit">
<polygon fill="white" stroke="black" points="1160,-109.343 1160,-130.343 1292,-130.343 1292,-109.343 1160,-109.343"/>
<text text-anchor="middle" x="1226" y="-117.343" font-family="Ubuntu-R" font-size="10.00">forcebalance.nifty.allsplit</text>
</a>
</g>
<!-- Node13&#45;&gt;Node15 -->
<g id="edge36" class="edge"><title>Node13&#45;&gt;Node15</title>
<path fill="none" stroke="midnightblue" d="M939.898,-83.5098C989.049,-86.2227 1061.37,-91.2729 1124,-99.8428 1138.53,-101.83 1154.11,-104.571 1168.61,-107.386"/>
<polygon fill="midnightblue" stroke="midnightblue" points="1167.96,-110.826 1178.45,-109.339 1169.32,-103.96 1167.96,-110.826"/>
</g>
<!-- Node13&#45;&gt;Node18 -->
<g id="edge38" class="edge"><title>Node13&#45;&gt;Node18</title>
<path fill="none" stroke="midnightblue" d="M939.752,-93.9377C958.448,-98.1769 979.148,-102.87 997.734,-107.085"/>
<polygon fill="midnightblue" stroke="midnightblue" points="997.001,-110.507 1007.53,-109.305 998.548,-103.681 997.001,-110.507"/>
</g>
<!-- Node14&#45;&gt;Node15 -->
<g id="edge28" class="edge"><title>Node14&#45;&gt;Node15</title>
<path fill="none" stroke="midnightblue" d="M1099.19,-149.333C1121.13,-144.232 1147.67,-138.058 1170.8,-132.681"/>
<polygon fill="midnightblue" stroke="midnightblue" points="1171.87,-136.026 1180.81,-130.352 1170.28,-129.208 1171.87,-136.026"/>
</g>
<!-- Node16 -->
<g id="node31" class="node"><title>Node16</title>
<a xlink:href="namespaceforcebalance_1_1nifty.html#ae87c7def5f8edf2ec30737bdb1d2636f" target="_top" xlink:title="forcebalance.nifty.Missing\lFileInspection">
<polygon fill="white" stroke="black" points="1328,-102.843 1328,-136.843 1466,-136.843 1466,-102.843 1328,-102.843"/>
<text text-anchor="start" x="1336" y="-123.843" font-family="Ubuntu-R" font-size="10.00">forcebalance.nifty.Missing</text>
<text text-anchor="middle" x="1397" y="-110.843" font-family="Ubuntu-R" font-size="10.00">FileInspection</text>
</a>
</g>
<!-- Node15&#45;&gt;Node16 -->
<g id="edge30" class="edge"><title>Node15&#45;&gt;Node16</title>
<path fill="none" stroke="midnightblue" d="M1292.11,-119.843C1300.56,-119.843 1309.27,-119.843 1317.89,-119.843"/>
<polygon fill="midnightblue" stroke="midnightblue" points="1317.95,-123.343 1327.95,-119.843 1317.95,-116.343 1317.95,-123.343"/>
</g>
<!-- Node17 -->
<g id="node33" class="node"><title>Node17</title>
<a xlink:href="namespaceforcebalance_1_1nifty.html#a0cf4e58f90acf20e3d6224be2354082c" target="_top" xlink:title="forcebalance.nifty.link\l_dir_contents">
<polygon fill="white" stroke="black" points="1502,-102.843 1502,-136.843 1620,-136.843 1620,-102.843 1502,-102.843"/>
<text text-anchor="start" x="1510" y="-123.843" font-family="Ubuntu-R" font-size="10.00">forcebalance.nifty.link</text>
<text text-anchor="middle" x="1561" y="-110.843" font-family="Ubuntu-R" font-size="10.00">_dir_contents</text>
</a>
</g>
<!-- Node16&#45;&gt;Node17 -->
<g id="edge32" class="edge"><title>Node16&#45;&gt;Node17</title>
<path fill="none" stroke="midnightblue" d="M1466.08,-119.843C1474.54,-119.843 1483.19,-119.843 1491.66,-119.843"/>
<polygon fill="midnightblue" stroke="midnightblue" points="1491.87,-123.343 1501.87,-119.843 1491.87,-116.343 1491.87,-123.343"/>
</g>
</g>
</svg>
