<?xml version="1.0" encoding="UTF-8" standalone="no"?>
<!DOCTYPE svg PUBLIC "-//W3C//DTD SVG 1.1//EN"
 "http://www.w3.org/Graphics/SVG/1.1/DTD/svg11.dtd">
<!-- Generated by graphviz version 2.32.0 (20130801.1845)
 -->
<!-- Title: forcebalance.psi4io.GBS_Reader.build_pid Pages: 1 -->
<svg width="608pt" height="118pt"
 viewBox="0.00 0.00 608.00 118.00" xmlns="http://www.w3.org/2000/svg" xmlns:xlink="http://www.w3.org/1999/xlink">
<g id="graph0" class="graph" transform="scale(1 1) rotate(0) translate(4 114)">
<title>forcebalance.psi4io.GBS_Reader.build_pid</title>
<polygon fill="white" stroke="white" points="-4,5 -4,-114 605,-114 605,5 -4,5"/>
<!-- Node1 -->
<g id="node1" class="node"><title>Node1</title>
<polygon fill="#bfbfbf" stroke="black" points="0.0175,-45 0.0175,-77 115.982,-77 115.982,-45 0.0175,-45"/>
<text text-anchor="start" x="8.0175" y="-64" font-family="Ubuntu-R" font-size="10.00">forcebalance.psi4io.GBS</text>
<text text-anchor="middle" x="58" y="-52" font-family="Ubuntu-R" font-size="10.00">_Reader.build_pid</text>
</g>
<!-- Node2 -->
<g id="node2" class="node"><title>Node2</title>
<g id="a_node2"><a xlink:href="classforcebalance_1_1psi4io_1_1GBS__Reader.html#a1cf1d95963bbed1b130331cfb290e4fd" target="_top" xlink:title="Feed in a line.">
<polygon fill="white" stroke="black" points="152.018,-45 152.018,-77 267.983,-77 267.983,-45 152.018,-45"/>
<text text-anchor="start" x="160.018" y="-64" font-family="Ubuntu-R" font-size="10.00">forcebalance.psi4io.GBS</text>
<text text-anchor="middle" x="210" y="-52" font-family="Ubuntu-R" font-size="10.00">_Reader.feed</text>
</a>
</g>
</g>
<!-- Node1&#45;&gt;Node2 -->
<g id="edge1" class="edge"><title>Node1&#45;&gt;Node2</title>
<path fill="none" stroke="midnightblue" d="M116.136,-61C124.377,-61 132.923,-61 141.344,-61"/>
<polygon fill="midnightblue" stroke="midnightblue" points="141.526,-64.5001 151.525,-61 141.525,-57.5001 141.526,-64.5001"/>
</g>
<!-- Node3 -->
<g id="node3" class="node"><title>Node3</title>
<g id="a_node3"><a xlink:href="namespaceforcebalance_1_1molecule.html#a0dd31eff88d2bed0884ab21a13261d42" target="_top" xlink:title="ONLY matches integers! If you have a decimal point? None shall pass!">
<polygon fill="white" stroke="black" points="304.024,-90 304.024,-110 429.976,-110 429.976,-90 304.024,-90"/>
<text text-anchor="middle" x="367" y="-97" font-family="Ubuntu-R" font-size="10.00">forcebalance.molecule.isint</text>
</a>
</g>
</g>
<!-- Node2&#45;&gt;Node3 -->
<g id="edge2" class="edge"><title>Node2&#45;&gt;Node3</title>
<path fill="none" stroke="midnightblue" d="M268.276,-75.4114C283.981,-79.3629 300.877,-83.6141 316.13,-87.452"/>
<polygon fill="midnightblue" stroke="midnightblue" points="315.335,-90.8611 325.887,-89.907 317.043,-84.0726 315.335,-90.8611"/>
</g>
<!-- Node4 -->
<g id="node4" class="node"><title>Node4</title>
<g id="a_node4"><a xlink:href="namespaceforcebalance_1_1molecule.html#afe989ffd119568047fc8265b1d329a70" target="_top" xlink:title="Matches ANY number; it can be a decimal, scientific notation, integer, or what have you...">
<polygon fill="white" stroke="black" points="466.14,-70 466.14,-90 599.86,-90 599.86,-70 466.14,-70"/>
<text text-anchor="middle" x="533" y="-77" font-family="Ubuntu-R" font-size="10.00">forcebalance.molecule.isfloat</text>
</a>
</g>
</g>
<!-- Node2&#45;&gt;Node4 -->
<g id="edge4" class="edge"><title>Node2&#45;&gt;Node4</title>
<path fill="none" stroke="midnightblue" d="M268.018,-64.3749C320.365,-67.4733 398.313,-72.0871 455.948,-75.4985"/>
<polygon fill="midnightblue" stroke="midnightblue" points="455.91,-79.0023 466.099,-76.0993 456.324,-72.0145 455.91,-79.0023"/>
</g>
<!-- Node5 -->
<g id="node5" class="node"><title>Node5</title>
<g id="a_node5"><a xlink:href="classforcebalance_1_1psi4io_1_1GBS__Reader.html#a9cc5f721f9933963c2074031e3847a6e" target="_top" xlink:title="forcebalance.psi4io.GBS\l_Reader.__init__">
<polygon fill="white" stroke="black" points="309.017,-0 309.017,-32 424.983,-32 424.983,-0 309.017,-0"/>
<text text-anchor="start" x="317.017" y="-19" font-family="Ubuntu-R" font-size="10.00">forcebalance.psi4io.GBS</text>
<text text-anchor="middle" x="367" y="-7" font-family="Ubuntu-R" font-size="10.00">_Reader.__init__</text>
</a>
</g>
</g>
<!-- Node2&#45;&gt;Node5 -->
<g id="edge5" class="edge"><title>Node2&#45;&gt;Node5</title>
<path fill="none" stroke="midnightblue" d="M266.521,-44.8811C277.674,-41.6432 289.488,-38.213 300.932,-34.8907"/>
<polygon fill="midnightblue" stroke="midnightblue" points="302.239,-38.1558 310.867,-32.0064 300.288,-31.4333 302.239,-38.1558"/>
</g>
<!-- Node3&#45;&gt;Node4 -->
<g id="edge3" class="edge"><title>Node3&#45;&gt;Node4</title>
<path fill="none" stroke="midnightblue" d="M430.001,-92.4389C438.477,-91.4053 447.256,-90.3347 455.945,-89.275"/>
<polygon fill="midnightblue" stroke="midnightblue" points="456.579,-92.7238 466.081,-88.0389 455.731,-85.7752 456.579,-92.7238"/>
</g>
</g>
</svg>
