<?xml version="1.0" encoding="UTF-8" standalone="no"?>
<!DOCTYPE svg PUBLIC "-//W3C//DTD SVG 1.1//EN"
 "http://www.w3.org/Graphics/SVG/1.1/DTD/svg11.dtd">
<!-- Generated by graphviz version 2.32.0 (20130801.1845)
 -->
<!-- Title: forcebalance.Mol2.mol2.parse Pages: 1 -->
<svg width="502pt" height="118pt"
 viewBox="0.00 0.00 502.00 118.00" xmlns="http://www.w3.org/2000/svg" xmlns:xlink="http://www.w3.org/1999/xlink">
<g id="graph0" class="graph" transform="scale(1 1) rotate(0) translate(4 114)">
<title>forcebalance.Mol2.mol2.parse</title>
<polygon fill="white" stroke="white" points="-4,5 -4,-114 499,-114 499,5 -4,5"/>
<!-- Node1 -->
<g id="node1" class="node"><title>Node1</title>
<polygon fill="#bfbfbf" stroke="black" points="0.0535,-51 0.0535,-71 137.947,-71 137.947,-51 0.0535,-51"/>
<text text-anchor="middle" x="69" y="-58" font-family="Ubuntu-R" font-size="10.00">forcebalance.Mol2.mol2.parse</text>
</g>
<!-- Node2 -->
<g id="node2" class="node"><title>Node2</title>
<g id="a_node2"><a xlink:href="classforcebalance_1_1Mol2_1_1mol2.html#af5a261aefed1c65fd5f56b5b30e69995" target="_top" xlink:title="return the atom instance given its atom identifier">
<polygon fill="white" stroke="black" points="173.994,-90 173.994,-110 328.006,-110 328.006,-90 173.994,-90"/>
<text text-anchor="middle" x="251" y="-97" font-family="Ubuntu-R" font-size="10.00">forcebalance.Mol2.mol2.get_atom</text>
</a>
</g>
</g>
<!-- Node1&#45;&gt;Node2 -->
<g id="edge1" class="edge"><title>Node1&#45;&gt;Node2</title>
<path fill="none" stroke="midnightblue" d="M116.354,-71.0435C139.975,-76.1612 168.887,-82.4256 193.771,-87.8171"/>
<polygon fill="midnightblue" stroke="midnightblue" points="193.288,-91.2936 203.803,-89.9906 194.771,-84.4523 193.288,-91.2936"/>
</g>
<!-- Node3 -->
<g id="node3" class="node"><title>Node3</title>
<g id="a_node3"><a xlink:href="classforcebalance_1_1Mol2_1_1mol2.html#a2d2b34613f2b72ad3a7fcdc94a3de994" target="_top" xlink:title="return a dictionnary of atom instances bonded to the atom, and their types">
<polygon fill="white" stroke="black" points="364.493,-67 364.493,-99 493.507,-99 493.507,-67 364.493,-67"/>
<text text-anchor="start" x="372.493" y="-86" font-family="Ubuntu-R" font-size="10.00">forcebalance.Mol2.mol2.get</text>
<text text-anchor="middle" x="429" y="-74" font-family="Ubuntu-R" font-size="10.00">_bonded_atoms</text>
</a>
</g>
</g>
<!-- Node1&#45;&gt;Node3 -->
<g id="edge3" class="edge"><title>Node1&#45;&gt;Node3</title>
<path fill="none" stroke="midnightblue" d="M138.18,-65.1898C199.867,-68.9807 290.505,-74.5506 353.949,-78.4494"/>
<polygon fill="midnightblue" stroke="midnightblue" points="354.086,-81.9643 364.282,-79.0844 354.516,-74.9775 354.086,-81.9643"/>
</g>
<!-- Node4 -->
<g id="node4" class="node"><title>Node4</title>
<g id="a_node4"><a xlink:href="classforcebalance_1_1Mol2_1_1mol2.html#aa5a8b41dee69923e1854b0385ba588a4" target="_top" xlink:title="modify atom types to specify donnor, acceptor, or both">
<polygon fill="white" stroke="black" points="187.048,-0 187.048,-32 314.952,-32 314.952,-0 187.048,-0"/>
<text text-anchor="start" x="195.048" y="-19" font-family="Ubuntu-R" font-size="10.00">forcebalance.Mol2.mol2.set</text>
<text text-anchor="middle" x="251" y="-7" font-family="Ubuntu-R" font-size="10.00">_donnor_acceptor_atoms</text>
</a>
</g>
</g>
<!-- Node1&#45;&gt;Node4 -->
<g id="edge4" class="edge"><title>Node1&#45;&gt;Node4</title>
<path fill="none" stroke="midnightblue" d="M110.396,-50.9011C129.989,-46.0028 154.143,-39.9642 176.82,-34.2949"/>
<polygon fill="midnightblue" stroke="midnightblue" points="177.919,-37.6282 186.771,-31.8072 176.221,-30.8372 177.919,-37.6282"/>
</g>
<!-- Node2&#45;&gt;Node3 -->
<g id="edge2" class="edge"><title>Node2&#45;&gt;Node3</title>
<path fill="none" stroke="midnightblue" d="M328.173,-92.6424C336.853,-91.804 345.69,-90.9504 354.337,-90.1152"/>
<polygon fill="midnightblue" stroke="midnightblue" points="354.763,-93.5904 364.38,-89.1451 354.09,-86.6228 354.763,-93.5904"/>
</g>
<!-- Node5 -->
<g id="node5" class="node"><title>Node5</title>
<g id="a_node5"><a xlink:href="classforcebalance_1_1Mol2_1_1mol2.html#ad2182f9984dda90dfbd036d70921d5d8" target="_top" xlink:title="forcebalance.Mol2.mol2.\l__init__">
<polygon fill="white" stroke="black" points="370.601,-0 370.601,-32 487.399,-32 487.399,-0 370.601,-0"/>
<text text-anchor="start" x="378.601" y="-19" font-family="Ubuntu-R" font-size="10.00">forcebalance.Mol2.mol2.</text>
<text text-anchor="middle" x="429" y="-7" font-family="Ubuntu-R" font-size="10.00">__init__</text>
</a>
</g>
</g>
<!-- Node4&#45;&gt;Node5 -->
<g id="edge5" class="edge"><title>Node4&#45;&gt;Node5</title>
<path fill="none" stroke="midnightblue" d="M315.043,-16C329.709,-16 345.383,-16 360.243,-16"/>
<polygon fill="midnightblue" stroke="midnightblue" points="360.378,-19.5001 370.378,-16 360.378,-12.5001 360.378,-19.5001"/>
</g>
</g>
</svg>
