<?xml version="1.0" encoding="UTF-8" standalone="no"?>
<!DOCTYPE svg PUBLIC "-//W3C//DTD SVG 1.1//EN"
 "http://www.w3.org/Graphics/SVG/1.1/DTD/svg11.dtd">
<!-- Generated by graphviz version 2.26.3 (20100126.1600)
 -->
<!-- Title: forcebalance.psi4io.RDVR3_Psi4.driver Pages: 1 -->
<svg width="332pt" height="42pt"
 viewBox="0.00 0.00 332.00 42.00" xmlns="http://www.w3.org/2000/svg" xmlns:xlink="http://www.w3.org/1999/xlink">
<g id="graph1" class="graph" transform="scale(1 1) rotate(0) translate(4 38)">
<title>forcebalance.psi4io.RDVR3_Psi4.driver</title>
<polygon fill="white" stroke="white" points="-4,5 -4,-38 329,-38 329,5 -4,5"/>
<!-- Node1 -->
<g id="node1" class="node"><title>Node1</title>
<polygon fill="#bfbfbf" stroke="black" points="0.5,-0 0.5,-34 143.5,-34 143.5,-0 0.5,-0"/>
<text text-anchor="start" x="8.5" y="-21" font-family="Ubuntu-R" font-size="10.00">forcebalance.psi4io.RDVR3</text>
<text text-anchor="middle" x="72" y="-8" font-family="Ubuntu-R" font-size="10.00">_Psi4.driver</text>
</g>
<!-- Node2 -->
<g id="node3" class="node"><title>Node2</title>
<a xlink:href="classforcebalance_1_1psi4io_1_1RDVR3__Psi4.html#a70936cb704ab5df307013cc6aa5b85c8" target="_top" xlink:title="LPW 04&#45;17&#45;2013.">
<polygon fill="white" stroke="black" points="180.5,-0 180.5,-34 323.5,-34 323.5,-0 180.5,-0"/>
<text text-anchor="start" x="188.5" y="-21" font-family="Ubuntu-R" font-size="10.00">forcebalance.psi4io.RDVR3</text>
<text text-anchor="middle" x="252" y="-8" font-family="Ubuntu-R" font-size="10.00">_Psi4.get</text>
</a>
</g>
<!-- Node1&#45;&gt;Node2 -->
<g id="edge2" class="edge"><title>Node1&#45;&gt;Node2</title>
<path fill="none" stroke="midnightblue" d="M143.658,-17C152.325,-17 161.23,-17 170.031,-17"/>
<polygon fill="midnightblue" stroke="midnightblue" points="170.295,-20.5001 180.295,-17 170.294,-13.5001 170.295,-20.5001"/>
</g>
</g>
</svg>
