<?xml version="1.0" encoding="UTF-8" standalone="no"?>
<!DOCTYPE svg PUBLIC "-//W3C//DTD SVG 1.1//EN"
 "http://www.w3.org/Graphics/SVG/1.1/DTD/svg11.dtd">
<!-- Generated by graphviz version 2.28.0 (20111219.2309)
 -->
<!-- Title: G Pages: 1 -->
<svg width="216pt" height="196pt"
 viewBox="0.00 0.00 216.00 196.00" xmlns="http://www.w3.org/2000/svg" xmlns:xlink="http://www.w3.org/1999/xlink">
<g id="graph1" class="graph" transform="scale(1 1) rotate(0) translate(4 192)">
<title>G</title>
<polygon fill="white" stroke="white" points="-4,5 -4,-192 213,-192 213,5 -4,5"/>
<!-- Node1 -->
<g id="node1" class="node"><title>Node1</title>
<polygon fill="#bfbfbf" stroke="black" points="-0.5,-0.5 -0.5,-19.5 208.5,-19.5 208.5,-0.5 -0.5,-0.5"/>
<text text-anchor="middle" x="104" y="-7.5" font-family="Ubuntu-R" font-size="10.00">forcebalance.tinkerio.Interaction_TINKER</text>
</g>
<!-- Node2 -->
<g id="node2" class="node"><title>Node2</title>
<a xlink:href="classforcebalance_1_1interaction_1_1Interaction.html" target="_top" xlink:title="Subclass of Target for fitting force fields to interaction energies.">
<polygon fill="white" stroke="black" points="11,-56.5 11,-75.5 197,-75.5 197,-56.5 11,-56.5"/>
<text text-anchor="middle" x="104" y="-63.5" font-family="Ubuntu-R" font-size="10.00">forcebalance.interaction.Interaction</text>
</a>
</g>
<!-- Node2&#45;&gt;Node1 -->
<g id="edge2" class="edge"><title>Node2&#45;&gt;Node1</title>
<path fill="none" stroke="midnightblue" d="M104,-45.8045C104,-36.9102 104,-26.7798 104,-19.7511"/>
<polygon fill="midnightblue" stroke="midnightblue" points="100.5,-46.083 104,-56.083 107.5,-46.083 100.5,-46.083"/>
</g>
<!-- Node3 -->
<g id="node4" class="node"><title>Node3</title>
<a xlink:href="classforcebalance_1_1target_1_1Target.html" target="_top" xlink:title="Base class for all fitting targets.">
<polygon fill="white" stroke="black" points="32.5,-112.5 32.5,-131.5 175.5,-131.5 175.5,-112.5 32.5,-112.5"/>
<text text-anchor="middle" x="104" y="-119.5" font-family="Ubuntu-R" font-size="10.00">forcebalance.target.Target</text>
</a>
</g>
<!-- Node3&#45;&gt;Node2 -->
<g id="edge4" class="edge"><title>Node3&#45;&gt;Node2</title>
<path fill="none" stroke="midnightblue" d="M104,-101.805C104,-92.9102 104,-82.7798 104,-75.7511"/>
<polygon fill="midnightblue" stroke="midnightblue" points="100.5,-102.083 104,-112.083 107.5,-102.083 100.5,-102.083"/>
</g>
<!-- Node4 -->
<g id="node6" class="node"><title>Node4</title>
<a xlink:href="classforcebalance_1_1BaseClass.html" target="_top" xlink:title="Provides some nifty functions that are common to all ForceBalance classes.">
<polygon fill="white" stroke="black" points="38.5,-168.5 38.5,-187.5 169.5,-187.5 169.5,-168.5 38.5,-168.5"/>
<text text-anchor="middle" x="104" y="-175.5" font-family="Ubuntu-R" font-size="10.00">forcebalance.BaseClass</text>
</a>
</g>
<!-- Node4&#45;&gt;Node3 -->
<g id="edge6" class="edge"><title>Node4&#45;&gt;Node3</title>
<path fill="none" stroke="midnightblue" d="M104,-157.805C104,-148.91 104,-138.78 104,-131.751"/>
<polygon fill="midnightblue" stroke="midnightblue" points="100.5,-158.083 104,-168.083 107.5,-158.083 100.5,-158.083"/>
</g>
</g>
</svg>
