<?xml version="1.0" encoding="UTF-8" standalone="no"?>
<!DOCTYPE svg PUBLIC "-//W3C//DTD SVG 1.1//EN"
 "http://www.w3.org/Graphics/SVG/1.1/DTD/svg11.dtd">
<!-- Generated by graphviz version 2.26.3 (20100126.1600)
 -->
<!-- Title: forcebalance.target.Target Pages: 1 -->
<svg width="866pt" height="649pt"
 viewBox="0.00 0.00 866.00 649.00" xmlns="http://www.w3.org/2000/svg" xmlns:xlink="http://www.w3.org/1999/xlink">
<g id="graph1" class="graph" transform="scale(1 1) rotate(0) translate(4 645)">
<title>forcebalance.target.Target</title>
<polygon fill="white" stroke="white" points="-4,5 -4,-645 863,-645 863,5 -4,5"/>
<!-- Node1 -->
<g id="node1" class="node"><title>Node1</title>
<polygon fill="#bfbfbf" stroke="black" points="276,-192.5 276,-213.5 418,-213.5 418,-192.5 276,-192.5"/>
<text text-anchor="middle" x="347" y="-200.5" font-family="Ubuntu-R" font-size="10.00">forcebalance.target.Target</text>
</g>
<!-- Node4 -->
<g id="node7" class="node"><title>Node4</title>
<a xlink:href="classforcebalance_1_1abinitio_1_1AbInitio.html" target="_top" xlink:title="Subclass of Target for fitting force fields to ab initio data.">
<polygon fill="white" stroke="black" points="476.5,-486 476.5,-520 607.5,-520 607.5,-486 476.5,-486"/>
<text text-anchor="start" x="484.5" y="-507" font-family="Ubuntu-R" font-size="10.00">forcebalance.abinitio.Ab</text>
<text text-anchor="middle" x="542" y="-494" font-family="Ubuntu-R" font-size="10.00">Initio</text>
</a>
</g>
<!-- Node1&#45;&gt;Node4 -->
<g id="edge6" class="edge"><title>Node1&#45;&gt;Node4</title>
<path fill="none" stroke="midnightblue" d="M355.02,-223.074C370.849,-261.481 408.547,-347.217 454,-411 474.395,-439.62 503.402,-468.178 522.456,-485.711"/>
<polygon fill="midnightblue" stroke="midnightblue" points="358.157,-221.497 351.147,-213.553 351.673,-224.135 358.157,-221.497"/>
</g>
<!-- Node10 -->
<g id="node19" class="node"><title>Node10</title>
<a xlink:href="classforcebalance_1_1binding_1_1BindingEnergy.html" target="_top" xlink:title="Improved subclass of Target for fitting force fields to binding energies.">
<polygon fill="white" stroke="black" points="465,-368 465,-402 619,-402 619,-368 465,-368"/>
<text text-anchor="start" x="473" y="-389" font-family="Ubuntu-R" font-size="10.00">forcebalance.binding.Binding</text>
<text text-anchor="middle" x="542" y="-376" font-family="Ubuntu-R" font-size="10.00">Energy</text>
</a>
</g>
<!-- Node1&#45;&gt;Node10 -->
<g id="edge18" class="edge"><title>Node1&#45;&gt;Node10</title>
<path fill="none" stroke="midnightblue" d="M355.353,-223.136C370.204,-256.451 404.376,-322.937 454,-359 458.639,-362.372 463.714,-365.309 469.01,-367.868"/>
<polygon fill="midnightblue" stroke="midnightblue" points="358.396,-221.355 351.215,-213.565 351.971,-224.133 358.396,-221.355"/>
</g>
<!-- Node12 -->
<g id="node23" class="node"><title>Node12</title>
<a xlink:href="classforcebalance_1_1counterpoise_1_1Counterpoise.html" target="_top" xlink:title="Target subclass for matching the counterpoise correction.">
<polygon fill="white" stroke="black" points="469,-316 469,-350 615,-350 615,-316 469,-316"/>
<text text-anchor="start" x="477" y="-337" font-family="Ubuntu-R" font-size="10.00">forcebalance.counterpoise.</text>
<text text-anchor="middle" x="542" y="-324" font-family="Ubuntu-R" font-size="10.00">Counterpoise</text>
</a>
</g>
<!-- Node1&#45;&gt;Node12 -->
<g id="edge22" class="edge"><title>Node1&#45;&gt;Node12</title>
<path fill="none" stroke="midnightblue" d="M361.279,-221.609C380.087,-244.875 415.335,-284.385 454,-307 459.776,-310.378 466.025,-313.347 472.436,-315.951"/>
<polygon fill="midnightblue" stroke="midnightblue" points="363.855,-219.224 354.903,-213.557 358.367,-223.569 363.855,-219.224"/>
</g>
<!-- Node13 -->
<g id="node25" class="node"><title>Node13</title>
<a xlink:href="classforcebalance_1_1gmxqpio_1_1Monomer__QTPIE.html" target="_top" xlink:title="Subclass of Target for monomer properties of QTPIE (implemented within gromacs WCV branch)...">
<polygon fill="white" stroke="black" points="456.5,-264 456.5,-298 627.5,-298 627.5,-264 456.5,-264"/>
<text text-anchor="start" x="464.5" y="-285" font-family="Ubuntu-R" font-size="10.00">forcebalance.gmxqpio.Monomer</text>
<text text-anchor="middle" x="542" y="-272" font-family="Ubuntu-R" font-size="10.00">_QTPIE</text>
</a>
</g>
<!-- Node1&#45;&gt;Node13 -->
<g id="edge24" class="edge"><title>Node1&#45;&gt;Node13</title>
<path fill="none" stroke="midnightblue" d="M375.391,-218.393C396.632,-229.514 426.612,-244.383 454,-255 462.169,-258.167 470.891,-261.173 479.549,-263.942"/>
<polygon fill="midnightblue" stroke="midnightblue" points="376.764,-215.16 366.288,-213.577 373.49,-221.347 376.764,-215.16"/>
</g>
<!-- Node14 -->
<g id="node27" class="node"><title>Node14</title>
<a xlink:href="classforcebalance_1_1interaction_1_1Interaction.html" target="_top" xlink:title="Subclass of Target for fitting force fields to interaction energies.">
<polygon fill="white" stroke="black" points="474.5,-212 474.5,-246 609.5,-246 609.5,-212 474.5,-212"/>
<text text-anchor="start" x="482.5" y="-233" font-family="Ubuntu-R" font-size="10.00">forcebalance.interaction.</text>
<text text-anchor="middle" x="542" y="-220" font-family="Ubuntu-R" font-size="10.00">Interaction</text>
</a>
</g>
<!-- Node1&#45;&gt;Node14 -->
<g id="edge26" class="edge"><title>Node1&#45;&gt;Node14</title>
<path fill="none" stroke="midnightblue" d="M428.193,-213.826C443.504,-215.867 459.367,-217.982 474.213,-219.962"/>
<polygon fill="midnightblue" stroke="midnightblue" points="428.602,-210.349 418.227,-212.497 427.677,-217.288 428.602,-210.349"/>
</g>
<!-- Node18 -->
<g id="node35" class="node"><title>Node18</title>
<a xlink:href="classforcebalance_1_1leastsq_1_1LeastSquares.html" target="_top" xlink:title="Subclass of Target for general least squares fitting.">
<polygon fill="white" stroke="black" points="470,-160 470,-194 614,-194 614,-160 470,-160"/>
<text text-anchor="start" x="478" y="-181" font-family="Ubuntu-R" font-size="10.00">forcebalance.leastsq.Least</text>
<text text-anchor="middle" x="542" y="-168" font-family="Ubuntu-R" font-size="10.00">Squares</text>
</a>
</g>
<!-- Node1&#45;&gt;Node18 -->
<g id="edge34" class="edge"><title>Node1&#45;&gt;Node18</title>
<path fill="none" stroke="midnightblue" d="M428.221,-192.17C442.079,-190.323 456.388,-188.415 469.986,-186.602"/>
<polygon fill="midnightblue" stroke="midnightblue" points="427.677,-188.712 418.227,-193.503 428.602,-195.651 427.677,-188.712"/>
</g>
<!-- Node20 -->
<g id="node39" class="node"><title>Node20</title>
<a xlink:href="classforcebalance_1_1liquid_1_1Liquid.html" target="_top" xlink:title="Subclass of Target for liquid property matching.">
<polygon fill="white" stroke="black" points="474,-120.5 474,-141.5 610,-141.5 610,-120.5 474,-120.5"/>
<text text-anchor="middle" x="542" y="-128.5" font-family="Ubuntu-R" font-size="10.00">forcebalance.liquid.Liquid</text>
</a>
</g>
<!-- Node1&#45;&gt;Node20 -->
<g id="edge38" class="edge"><title>Node1&#45;&gt;Node20</title>
<path fill="none" stroke="midnightblue" d="M374.429,-187.5C395.612,-176.071 425.95,-160.857 454,-151 464.347,-147.364 475.615,-144.221 486.527,-141.574"/>
<polygon fill="midnightblue" stroke="midnightblue" points="372.473,-184.581 365.382,-192.453 375.834,-190.721 372.473,-184.581"/>
</g>
<!-- Node23 -->
<g id="node45" class="node"><title>Node23</title>
<a xlink:href="classforcebalance_1_1moments_1_1Moments.html" target="_top" xlink:title="Subclass of Target for fitting force fields to multipole moments (from experiment or theory)...">
<polygon fill="white" stroke="black" points="454.5,-80.5 454.5,-101.5 629.5,-101.5 629.5,-80.5 454.5,-80.5"/>
<text text-anchor="middle" x="542" y="-88.5" font-family="Ubuntu-R" font-size="10.00">forcebalance.moments.Moments</text>
</a>
</g>
<!-- Node1&#45;&gt;Node23 -->
<g id="edge44" class="edge"><title>Node1&#45;&gt;Node23</title>
<path fill="none" stroke="midnightblue" d="M362.995,-184.659C382.396,-163.605 417.111,-129.591 454,-111 461.555,-107.192 469.839,-104.101 478.207,-101.594"/>
<polygon fill="midnightblue" stroke="midnightblue" points="360.209,-182.522 356.11,-192.292 365.407,-187.211 360.209,-182.522"/>
</g>
<!-- Node25 -->
<g id="node49" class="node"><title>Node25</title>
<a xlink:href="classforcebalance_1_1psi4io_1_1RDVR3__Psi4.html" target="_top" xlink:title="Subclass of Target for R&#45;DVR3 grid fitting.">
<polygon fill="white" stroke="black" points="458,-40.5 458,-61.5 626,-61.5 626,-40.5 458,-40.5"/>
<text text-anchor="middle" x="542" y="-48.5" font-family="Ubuntu-R" font-size="10.00">forcebalance.psi4io.RDVR3_Psi4</text>
</a>
</g>
<!-- Node1&#45;&gt;Node25 -->
<g id="edge48" class="edge"><title>Node1&#45;&gt;Node25</title>
<path fill="none" stroke="midnightblue" d="M357.123,-183.582C373.417,-154.344 408.317,-99.422 454,-71 460.119,-67.1928 466.881,-64.1081 473.856,-61.6091"/>
<polygon fill="midnightblue" stroke="midnightblue" points="354.011,-181.978 352.321,-192.437 360.165,-185.314 354.011,-181.978"/>
</g>
<!-- Node26 -->
<g id="node51" class="node"><title>Node26</title>
<a xlink:href="classforcebalance_1_1vibration_1_1Vibration.html" target="_top" xlink:title="Subclass of Target for fitting force fields to vibrational spectra (from experiment or theory)...">
<polygon fill="white" stroke="black" points="458,-0.5 458,-21.5 626,-21.5 626,-0.5 458,-0.5"/>
<text text-anchor="middle" x="542" y="-8.5" font-family="Ubuntu-R" font-size="10.00">forcebalance.vibration.Vibration</text>
</a>
</g>
<!-- Node1&#45;&gt;Node26 -->
<g id="edge50" class="edge"><title>Node1&#45;&gt;Node26</title>
<path fill="none" stroke="midnightblue" d="M353.583,-182.978C366.609,-146.639 399.25,-69.9944 454,-31 459.36,-27.1826 465.33,-24.0794 471.565,-21.5589"/>
<polygon fill="midnightblue" stroke="midnightblue" points="350.255,-181.891 350.296,-192.485 356.871,-184.178 350.255,-181.891"/>
</g>
<!-- Node2 -->
<g id="node2" class="node"><title>Node2</title>
<a xlink:href="classforcebalance_1_1baseclass_1_1ForceBalanceBaseClass.html" target="_top" xlink:title="Provides some nifty functions that are common to all ForceBalance classes.">
<polygon fill="white" stroke="black" points="82.5,-186 82.5,-220 239.5,-220 239.5,-186 82.5,-186"/>
<text text-anchor="start" x="90.5" y="-207" font-family="Ubuntu-R" font-size="10.00">forcebalance.baseclass.Force</text>
<text text-anchor="middle" x="161" y="-194" font-family="Ubuntu-R" font-size="10.00">BalanceBaseClass</text>
</a>
</g>
<!-- Node2&#45;&gt;Node1 -->
<g id="edge2" class="edge"><title>Node2&#45;&gt;Node1</title>
<path fill="none" stroke="midnightblue" d="M249.793,-203C258.501,-203 267.259,-203 275.759,-203"/>
<polygon fill="midnightblue" stroke="midnightblue" points="249.611,-199.5 239.611,-203 249.611,-206.5 249.611,-199.5"/>
</g>
<!-- Node3 -->
<g id="node4" class="node"><title>Node3</title>
<polygon fill="white" stroke="#bfbfbf" points="0,-192.5 0,-213.5 46,-213.5 46,-192.5 0,-192.5"/>
<text text-anchor="middle" x="23" y="-200.5" font-family="Ubuntu-R" font-size="10.00">object</text>
</g>
<!-- Node3&#45;&gt;Node2 -->
<g id="edge4" class="edge"><title>Node3&#45;&gt;Node2</title>
<path fill="none" stroke="midnightblue" d="M56.1325,-203C64.2064,-203 73.1878,-203 82.402,-203"/>
<polygon fill="midnightblue" stroke="midnightblue" points="56.0981,-199.5 46.0981,-203 56.0981,-206.5 56.0981,-199.5"/>
</g>
<!-- Node5 -->
<g id="node9" class="node"><title>Node5</title>
<a xlink:href="classforcebalance_1_1abinitio__internal_1_1AbInitio__Internal.html" target="_top" xlink:title="Subclass of Target for force and energy matching using an internal implementation.">
<polygon fill="white" stroke="black" points="693.5,-607 693.5,-641 830.5,-641 830.5,-607 693.5,-607"/>
<text text-anchor="start" x="701.5" y="-628" font-family="Ubuntu-R" font-size="10.00">forcebalance.abinitio</text>
<text text-anchor="middle" x="762" y="-615" font-family="Ubuntu-R" font-size="10.00">_internal.AbInitio_Internal</text>
</a>
</g>
<!-- Node4&#45;&gt;Node5 -->
<g id="edge8" class="edge"><title>Node4&#45;&gt;Node5</title>
<path fill="none" stroke="midnightblue" d="M567.293,-527.19C591.036,-548.662 628.432,-579.428 666,-598 674.591,-602.247 683.969,-605.874 693.389,-608.951"/>
<polygon fill="midnightblue" stroke="midnightblue" points="569.517,-524.481 559.784,-520.296 564.783,-529.637 569.517,-524.481"/>
</g>
<!-- Node6 -->
<g id="node11" class="node"><title>Node6</title>
<a xlink:href="classforcebalance_1_1amberio_1_1AbInitio__AMBER.html" target="_top" xlink:title="Subclass of Target for force and energy matching using AMBER.">
<polygon fill="white" stroke="black" points="682.5,-555 682.5,-589 841.5,-589 841.5,-555 682.5,-555"/>
<text text-anchor="start" x="690.5" y="-576" font-family="Ubuntu-R" font-size="10.00">forcebalance.amberio.AbInitio</text>
<text text-anchor="middle" x="762" y="-563" font-family="Ubuntu-R" font-size="10.00">_AMBER</text>
</a>
</g>
<!-- Node4&#45;&gt;Node6 -->
<g id="edge10" class="edge"><title>Node4&#45;&gt;Node6</title>
<path fill="none" stroke="midnightblue" d="M598.048,-523.359C619.233,-530.81 643.625,-539.1 666,-546 675.9,-549.053 686.433,-552.103 696.758,-554.984"/>
<polygon fill="midnightblue" stroke="midnightblue" points="599.154,-520.038 588.559,-520.003 596.82,-526.637 599.154,-520.038"/>
</g>
<!-- Node7 -->
<g id="node13" class="node"><title>Node7</title>
<a xlink:href="classforcebalance_1_1gmxio_1_1AbInitio__GMX.html" target="_top" xlink:title="Subclass of AbInitio for force and energy matching using normal GROMACS.">
<polygon fill="white" stroke="black" points="674.5,-515.5 674.5,-536.5 849.5,-536.5 849.5,-515.5 674.5,-515.5"/>
<text text-anchor="middle" x="762" y="-523.5" font-family="Ubuntu-R" font-size="10.00">forcebalance.gmxio.AbInitio_GMX</text>
</a>
</g>
<!-- Node4&#45;&gt;Node7 -->
<g id="edge12" class="edge"><title>Node4&#45;&gt;Node7</title>
<path fill="none" stroke="midnightblue" d="M617.675,-510.911C635.898,-512.817 655.518,-514.868 674.241,-516.825"/>
<polygon fill="midnightblue" stroke="midnightblue" points="618.019,-507.428 607.709,-509.87 617.291,-514.391 618.019,-507.428"/>
</g>
<!-- Node8 -->
<g id="node15" class="node"><title>Node8</title>
<a xlink:href="classforcebalance_1_1openmmio_1_1AbInitio__OpenMM.html" target="_top" xlink:title="Subclass of AbInitio for force and energy matching using OpenMM.">
<polygon fill="white" stroke="black" points="688,-463 688,-497 836,-497 836,-463 688,-463"/>
<text text-anchor="start" x="696" y="-484" font-family="Ubuntu-R" font-size="10.00">forcebalance.openmmio.Ab</text>
<text text-anchor="middle" x="762" y="-471" font-family="Ubuntu-R" font-size="10.00">Initio_OpenMM</text>
</a>
</g>
<!-- Node4&#45;&gt;Node8 -->
<g id="edge14" class="edge"><title>Node4&#45;&gt;Node8</title>
<path fill="none" stroke="midnightblue" d="M617.93,-495.062C640.534,-492.699 665.269,-490.113 687.764,-487.761"/>
<polygon fill="midnightblue" stroke="midnightblue" points="617.291,-491.609 607.709,-496.13 618.019,-498.572 617.291,-491.609"/>
</g>
<!-- Node9 -->
<g id="node17" class="node"><title>Node9</title>
<a xlink:href="classforcebalance_1_1tinkerio_1_1AbInitio__TINKER.html" target="_top" xlink:title="Subclass of Target for force and energy matching using TINKER.">
<polygon fill="white" stroke="black" points="696.5,-411 696.5,-445 827.5,-445 827.5,-411 696.5,-411"/>
<text text-anchor="start" x="704.5" y="-432" font-family="Ubuntu-R" font-size="10.00">forcebalance.tinkerio.Ab</text>
<text text-anchor="middle" x="762" y="-419" font-family="Ubuntu-R" font-size="10.00">Initio_TINKER</text>
</a>
</g>
<!-- Node4&#45;&gt;Node9 -->
<g id="edge16" class="edge"><title>Node4&#45;&gt;Node9</title>
<path fill="none" stroke="midnightblue" d="M591.162,-482.107C613.746,-472.89 641.01,-462.293 666,-454 675.751,-450.764 686.155,-447.628 696.382,-444.72"/>
<polygon fill="midnightblue" stroke="midnightblue" points="589.708,-478.921 581.791,-485.962 592.37,-485.395 589.708,-478.921"/>
</g>
<!-- Node11 -->
<g id="node21" class="node"><title>Node11</title>
<a xlink:href="classforcebalance_1_1tinkerio_1_1BindingEnergy__TINKER.html" target="_top" xlink:title="Subclass of BindingEnergy for binding energy matching using TINKER.">
<polygon fill="white" stroke="black" points="685,-359 685,-393 839,-393 839,-359 685,-359"/>
<text text-anchor="start" x="693" y="-380" font-family="Ubuntu-R" font-size="10.00">forcebalance.tinkerio.Binding</text>
<text text-anchor="middle" x="762" y="-367" font-family="Ubuntu-R" font-size="10.00">Energy_TINKER</text>
</a>
</g>
<!-- Node10&#45;&gt;Node11 -->
<g id="edge20" class="edge"><title>Node10&#45;&gt;Node11</title>
<path fill="none" stroke="midnightblue" d="M629.355,-381.426C647.723,-380.675 666.972,-379.887 684.932,-379.153"/>
<polygon fill="midnightblue" stroke="midnightblue" points="629.103,-377.934 619.254,-381.84 629.389,-384.928 629.103,-377.934"/>
</g>
<!-- Node15 -->
<g id="node29" class="node"><title>Node15</title>
<a xlink:href="classforcebalance_1_1gmxio_1_1Interaction__GMX.html" target="_top" xlink:title="Subclass of Interaction for interaction energy matching using GROMACS.">
<polygon fill="white" stroke="black" points="666.5,-310.5 666.5,-331.5 857.5,-331.5 857.5,-310.5 666.5,-310.5"/>
<text text-anchor="middle" x="762" y="-318.5" font-family="Ubuntu-R" font-size="10.00">forcebalance.gmxio.Interaction_GMX</text>
</a>
</g>
<!-- Node14&#45;&gt;Node15 -->
<g id="edge28" class="edge"><title>Node14&#45;&gt;Node15</title>
<path fill="none" stroke="midnightblue" d="M618.976,-248.514C622.815,-250.476 626.517,-252.632 630,-255 651.47,-269.595 643.95,-287.296 666,-301 672.073,-304.774 678.737,-307.849 685.635,-310.351"/>
<polygon fill="midnightblue" stroke="midnightblue" points="620.355,-245.295 609.809,-244.276 617.417,-251.649 620.355,-245.295"/>
</g>
<!-- Node16 -->
<g id="node31" class="node"><title>Node16</title>
<a xlink:href="classforcebalance_1_1openmmio_1_1Interaction__OpenMM.html" target="_top" xlink:title="Subclass of Target for interaction matching using OpenMM.">
<polygon fill="white" stroke="black" points="669,-258 669,-292 855,-292 855,-258 669,-258"/>
<text text-anchor="start" x="677" y="-279" font-family="Ubuntu-R" font-size="10.00">forcebalance.openmmio.Interaction</text>
<text text-anchor="middle" x="762" y="-266" font-family="Ubuntu-R" font-size="10.00">_OpenMM</text>
</a>
</g>
<!-- Node14&#45;&gt;Node16 -->
<g id="edge30" class="edge"><title>Node14&#45;&gt;Node16</title>
<path fill="none" stroke="midnightblue" d="M619.412,-245.186C639.254,-249.335 660.652,-253.809 680.684,-257.998"/>
<polygon fill="midnightblue" stroke="midnightblue" points="620.007,-241.735 609.502,-243.114 618.574,-248.587 620.007,-241.735"/>
</g>
<!-- Node17 -->
<g id="node33" class="node"><title>Node17</title>
<a xlink:href="classforcebalance_1_1tinkerio_1_1Interaction__TINKER.html" target="_top" xlink:title="Subclass of Target for interaction matching using TINKER.">
<polygon fill="white" stroke="black" points="677,-206 677,-240 847,-240 847,-206 677,-206"/>
<text text-anchor="start" x="685" y="-227" font-family="Ubuntu-R" font-size="10.00">forcebalance.tinkerio.Interaction</text>
<text text-anchor="middle" x="762" y="-214" font-family="Ubuntu-R" font-size="10.00">_TINKER</text>
</a>
</g>
<!-- Node14&#45;&gt;Node17 -->
<g id="edge32" class="edge"><title>Node14&#45;&gt;Node17</title>
<path fill="none" stroke="midnightblue" d="M619.617,-226.883C638.098,-226.379 657.917,-225.839 676.721,-225.326"/>
<polygon fill="midnightblue" stroke="midnightblue" points="619.403,-223.388 609.502,-227.159 619.594,-230.385 619.403,-223.388"/>
</g>
<!-- Node19 -->
<g id="node37" class="node"><title>Node19</title>
<a xlink:href="classforcebalance_1_1psi4io_1_1THCDF__Psi4.html" target="_top" xlink:title="forcebalance.psi4io.THCDF_Psi4">
<polygon fill="white" stroke="black" points="678,-166.5 678,-187.5 846,-187.5 846,-166.5 678,-166.5"/>
<text text-anchor="middle" x="762" y="-174.5" font-family="Ubuntu-R" font-size="10.00">forcebalance.psi4io.THCDF_Psi4</text>
</a>
</g>
<!-- Node18&#45;&gt;Node19 -->
<g id="edge36" class="edge"><title>Node18&#45;&gt;Node19</title>
<path fill="none" stroke="midnightblue" d="M624.236,-177C641.782,-177 660.336,-177 677.95,-177"/>
<polygon fill="midnightblue" stroke="midnightblue" points="624.036,-173.5 614.036,-177 624.036,-180.5 624.036,-173.5"/>
</g>
<!-- Node21 -->
<g id="node41" class="node"><title>Node21</title>
<a xlink:href="classforcebalance_1_1openmmio_1_1Liquid__OpenMM.html" target="_top" xlink:title="forcebalance.openmmio.Liquid\l_OpenMM">
<polygon fill="white" stroke="black" points="680.5,-114 680.5,-148 843.5,-148 843.5,-114 680.5,-114"/>
<text text-anchor="start" x="688.5" y="-135" font-family="Ubuntu-R" font-size="10.00">forcebalance.openmmio.Liquid</text>
<text text-anchor="middle" x="762" y="-122" font-family="Ubuntu-R" font-size="10.00">_OpenMM</text>
</a>
</g>
<!-- Node20&#45;&gt;Node21 -->
<g id="edge40" class="edge"><title>Node20&#45;&gt;Node21</title>
<path fill="none" stroke="midnightblue" d="M620.156,-131C639.663,-131 660.632,-131 680.305,-131"/>
<polygon fill="midnightblue" stroke="midnightblue" points="620.103,-127.5 610.103,-131 620.103,-134.5 620.103,-127.5"/>
</g>
<!-- Node22 -->
<g id="node43" class="node"><title>Node22</title>
<a xlink:href="classforcebalance_1_1tinkerio_1_1Liquid__TINKER.html" target="_top" xlink:title="forcebalance.tinkerio.Liquid\l_TINKER">
<polygon fill="white" stroke="black" points="689,-62 689,-96 835,-96 835,-62 689,-62"/>
<text text-anchor="start" x="697" y="-83" font-family="Ubuntu-R" font-size="10.00">forcebalance.tinkerio.Liquid</text>
<text text-anchor="middle" x="762" y="-70" font-family="Ubuntu-R" font-size="10.00">_TINKER</text>
</a>
</g>
<!-- Node20&#45;&gt;Node22 -->
<g id="edge42" class="edge"><title>Node20&#45;&gt;Node22</title>
<path fill="none" stroke="midnightblue" d="M598.866,-118.202C609.231,-115.833 619.944,-113.361 630,-111 650.316,-106.229 672.361,-100.932 692.511,-96.0438"/>
<polygon fill="midnightblue" stroke="midnightblue" points="598.041,-114.8 589.069,-120.434 599.596,-121.625 598.041,-114.8"/>
</g>
<!-- Node24 -->
<g id="node47" class="node"><title>Node24</title>
<a xlink:href="classforcebalance_1_1tinkerio_1_1Moments__TINKER.html" target="_top" xlink:title="Subclass of Target for multipole moment matching using TINKER.">
<polygon fill="white" stroke="black" points="680,-10 680,-44 844,-44 844,-10 680,-10"/>
<text text-anchor="start" x="688" y="-31" font-family="Ubuntu-R" font-size="10.00">forcebalance.tinkerio.Moments</text>
<text text-anchor="middle" x="762" y="-18" font-family="Ubuntu-R" font-size="10.00">_TINKER</text>
</a>
</g>
<!-- Node23&#45;&gt;Node24 -->
<g id="edge46" class="edge"><title>Node23&#45;&gt;Node24</title>
<path fill="none" stroke="midnightblue" d="M607.867,-77.8596C615.407,-75.8173 622.923,-73.5319 630,-71 646.843,-64.9744 649.284,-59.3697 666,-53 674.471,-49.7721 683.505,-46.7746 692.515,-44.0488"/>
<polygon fill="midnightblue" stroke="midnightblue" points="606.786,-74.5234 597.974,-80.4046 608.53,-81.3027 606.786,-74.5234"/>
</g>
</g>
</svg>
