<?xml version="1.0" encoding="UTF-8" standalone="no"?>
<!DOCTYPE svg PUBLIC "-//W3C//DTD SVG 1.1//EN"
 "http://www.w3.org/Graphics/SVG/1.1/DTD/svg11.dtd">
<!-- Generated by graphviz version 2.40.1 (20161225.0304)
 -->
<!-- Title: src.forcefield.FF.create_pvals Pages: 1 -->
<svg width="243pt" height="66pt"
 viewBox="0.00 0.00 243.00 66.00" xmlns="http://www.w3.org/2000/svg" xmlns:xlink="http://www.w3.org/1999/xlink">
<g id="graph0" class="graph" transform="scale(1 1) rotate(0) translate(4 62)">
<title>src.forcefield.FF.create_pvals</title>
<polygon fill="#ffffff" stroke="transparent" points="-4,4 -4,-62 239,-62 239,4 -4,4"/>
<!-- Node33 -->
<g id="node1" class="node">
<title>Node33</title>
<polygon fill="#bfbfbf" stroke="#000000" points="0,-14 0,-44 125,-44 125,-14 0,-14"/>
<text text-anchor="start" x="8" y="-32" font-family="Ubuntu-R" font-size="10.00" fill="#000000">src.forcefield.FF.create</text>
<text text-anchor="middle" x="62.5" y="-21" font-family="Ubuntu-R" font-size="10.00" fill="#000000">_pvals</text>
</g>
<!-- Node34 -->
<g id="node2" class="node">
<title>Node34</title>
<g id="a_node2"><a xlink:href="namespacesrc_1_1nifty.html#ac5b7efc0b11b4fcbb7d0c37c97c4399d" target="_top" xlink:title="Given any list, array, or matrix, return a single&#45;index array. ">
<polygon fill="#ffffff" stroke="#000000" points="161,-38.5 161,-57.5 235,-57.5 235,-38.5 161,-38.5"/>
<text text-anchor="middle" x="198" y="-45.5" font-family="Ubuntu-R" font-size="10.00" fill="#000000">src.nifty.flat</text>
</a>
</g>
</g>
<!-- Node33&#45;&gt;Node34 -->
<g id="edge1" class="edge">
<title>Node33&#45;&gt;Node34</title>
<path fill="none" stroke="#191970" d="M125.0938,-37.777C133.6749,-38.9803 142.367,-40.1991 150.6152,-41.3556"/>
<polygon fill="#191970" stroke="#191970" points="150.3944,-44.8588 160.7836,-42.7815 151.3665,-37.9267 150.3944,-44.8588"/>
</g>
<!-- Node35 -->
<g id="node3" class="node">
<title>Node35</title>
<g id="a_node3"><a xlink:href="namespacesrc_1_1nifty.html#a9548285fa85a369d98169ec25abe974c" target="_top" xlink:title="Given any list, array, or matrix, return a 1&#45;column 2D array. ">
<polygon fill="#ffffff" stroke="#000000" points="162,-.5 162,-19.5 234,-19.5 234,-.5 162,-.5"/>
<text text-anchor="middle" x="198" y="-7.5" font-family="Ubuntu-R" font-size="10.00" fill="#000000">src.nifty.col</text>
</a>
</g>
</g>
<!-- Node33&#45;&gt;Node35 -->
<g id="edge2" class="edge">
<title>Node33&#45;&gt;Node35</title>
<path fill="none" stroke="#191970" d="M125.0938,-20.223C134.0661,-18.9649 143.1597,-17.6898 151.7402,-16.4866"/>
<polygon fill="#191970" stroke="#191970" points="152.4925,-19.9155 161.9096,-15.0607 151.5204,-12.9833 152.4925,-19.9155"/>
</g>
</g>
</svg>
