<?xml version="1.0" encoding="UTF-8" standalone="no"?>
<!DOCTYPE svg PUBLIC "-//W3C//DTD SVG 1.1//EN"
 "http://www.w3.org/Graphics/SVG/1.1/DTD/svg11.dtd">
<!-- Generated by graphviz version 2.40.1 (20161225.0304)
 -->
<!-- Title: src.tinkerio.TINKER.calltinker Pages: 1 -->
<svg width="537pt" height="66pt"
 viewBox="0.00 0.00 537.00 66.00" xmlns="http://www.w3.org/2000/svg" xmlns:xlink="http://www.w3.org/1999/xlink">
<g id="graph0" class="graph" transform="scale(1 1) rotate(0) translate(4 62)">
<title>src.tinkerio.TINKER.calltinker</title>
<polygon fill="#ffffff" stroke="transparent" points="-4,4 -4,-62 533,-62 533,4 -4,4"/>
<!-- Node1 -->
<g id="node1" class="node">
<title>Node1</title>
<polygon fill="#bfbfbf" stroke="#000000" points="0,-19.5 0,-38.5 159,-38.5 159,-19.5 0,-19.5"/>
<text text-anchor="middle" x="79.5" y="-26.5" font-family="Ubuntu-R" font-size="10.00" fill="#000000">src.tinkerio.TINKER.calltinker</text>
</g>
<!-- Node2 -->
<g id="node2" class="node">
<title>Node2</title>
<g id="a_node2"><a xlink:href="namespacesrc_1_1nifty.html#a7fd3a0edb0212c320360d7685227b0f5" target="_top" xlink:title="src.nifty.LinkFile">
<polygon fill="#ffffff" stroke="#000000" points="216,-38.5 216,-57.5 311,-57.5 311,-38.5 216,-38.5"/>
<text text-anchor="middle" x="263.5" y="-45.5" font-family="Ubuntu-R" font-size="10.00" fill="#000000">src.nifty.LinkFile</text>
</a>
</g>
</g>
<!-- Node1&#45;&gt;Node2 -->
<g id="edge1" class="edge">
<title>Node1&#45;&gt;Node2</title>
<path fill="none" stroke="#191970" d="M159.1349,-37.2232C174.8389,-38.8448 191.0323,-40.5169 205.8401,-42.046"/>
<polygon fill="#191970" stroke="#191970" points="205.5405,-45.5336 215.8471,-43.0793 206.2596,-38.5706 205.5405,-45.5336"/>
</g>
<!-- Node4 -->
<g id="node4" class="node">
<title>Node4</title>
<g id="a_node4"><a xlink:href="namespacesrc_1_1nifty.html#a6ae2951ba2a22420a11abda6be7e5454" target="_top" xlink:title="src.nifty.warn_press_key">
<polygon fill="#ffffff" stroke="#000000" points="195,-.5 195,-19.5 332,-19.5 332,-.5 195,-.5"/>
<text text-anchor="middle" x="263.5" y="-7.5" font-family="Ubuntu-R" font-size="10.00" fill="#000000">src.nifty.warn_press_key</text>
</a>
</g>
</g>
<!-- Node1&#45;&gt;Node4 -->
<g id="edge3" class="edge">
<title>Node1&#45;&gt;Node4</title>
<path fill="none" stroke="#191970" d="M159.1349,-20.7768C167.7214,-19.8902 176.4542,-18.9884 185.0269,-18.1032"/>
<polygon fill="#191970" stroke="#191970" points="185.4109,-21.5823 194.9985,-17.0735 184.6918,-14.6193 185.4109,-21.5823"/>
</g>
<!-- Node3 -->
<g id="node3" class="node">
<title>Node3</title>
<g id="a_node3"><a xlink:href="namespacesrc_1_1nifty.html#a39a23ca3b83aadd4bfdf3eee9abb3257" target="_top" xlink:title="src.nifty.MissingFileInspection">
<polygon fill="#ffffff" stroke="#000000" points="368,-38.5 368,-57.5 529,-57.5 529,-38.5 368,-38.5"/>
<text text-anchor="middle" x="448.5" y="-45.5" font-family="Ubuntu-R" font-size="10.00" fill="#000000">src.nifty.MissingFileInspection</text>
</a>
</g>
</g>
<!-- Node2&#45;&gt;Node3 -->
<g id="edge2" class="edge">
<title>Node2&#45;&gt;Node3</title>
<path fill="none" stroke="#191970" d="M311.1421,-48C325.2814,-48 341.2658,-48 357.2026,-48"/>
<polygon fill="#191970" stroke="#191970" points="357.6486,-51.5001 367.6486,-48 357.6485,-44.5001 357.6486,-51.5001"/>
</g>
</g>
</svg>
