<?xml version="1.0" encoding="UTF-8" standalone="no"?>
<!DOCTYPE svg PUBLIC "-//W3C//DTD SVG 1.1//EN"
 "http://www.w3.org/Graphics/SVG/1.1/DTD/svg11.dtd">
<!-- Generated by graphviz version 2.32.0 (20130801.1845)
 -->
<!-- Title: forcebalance.gmxio.Interaction_GMX Pages: 1 -->
<svg width="176pt" height="286pt"
 viewBox="0.00 0.00 176.00 286.00" xmlns="http://www.w3.org/2000/svg" xmlns:xlink="http://www.w3.org/1999/xlink">
<g id="graph0" class="graph" transform="scale(1 1) rotate(0) translate(4 282)">
<title>forcebalance.gmxio.Interaction_GMX</title>
<polygon fill="white" stroke="white" points="-4,5 -4,-282 173,-282 173,5 -4,5"/>
<!-- Node1 -->
<g id="node1" class="node"><title>Node1</title>
<polygon fill="#bfbfbf" stroke="black" points="-0.634,-1 -0.634,-21 168.634,-21 168.634,-1 -0.634,-1"/>
<text text-anchor="middle" x="84" y="-8" font-family="Ubuntu-R" font-size="10.00">forcebalance.gmxio.Interaction_GMX</text>
</g>
<!-- Node2 -->
<g id="node2" class="node"><title>Node2</title>
<g id="a_node2"><a xlink:href="classforcebalance_1_1interaction_1_1Interaction.html" target="_top" xlink:title="Subclass of Target for fitting force fields to interaction energies.">
<polygon fill="white" stroke="black" points="26.5835,-59 26.5835,-91 141.417,-91 141.417,-59 26.5835,-59"/>
<text text-anchor="start" x="34.5835" y="-78" font-family="Ubuntu-R" font-size="10.00">forcebalance.interaction.</text>
<text text-anchor="middle" x="84" y="-66" font-family="Ubuntu-R" font-size="10.00">Interaction</text>
</a>
</g>
</g>
<!-- Node2&#45;&gt;Node1 -->
<g id="edge1" class="edge"><title>Node2&#45;&gt;Node1</title>
<path fill="none" stroke="midnightblue" d="M84,-48.922C84,-39.1719 84,-28.6099 84,-21.2904"/>
<polygon fill="midnightblue" stroke="midnightblue" points="80.5001,-48.9915 84,-58.9915 87.5001,-48.9916 80.5001,-48.9915"/>
</g>
<!-- Node3 -->
<g id="node3" class="node"><title>Node3</title>
<g id="a_node3"><a xlink:href="classforcebalance_1_1target_1_1Target.html" target="_top" xlink:title="Base class for all fitting targets.">
<polygon fill="white" stroke="black" points="23.5345,-129 23.5345,-149 144.466,-149 144.466,-129 23.5345,-129"/>
<text text-anchor="middle" x="84" y="-136" font-family="Ubuntu-R" font-size="10.00">forcebalance.target.Target</text>
</a>
</g>
</g>
<!-- Node3&#45;&gt;Node2 -->
<g id="edge2" class="edge"><title>Node3&#45;&gt;Node2</title>
<path fill="none" stroke="midnightblue" d="M84,-118.775C84,-109.986 84,-99.715 84,-91.4404"/>
<polygon fill="midnightblue" stroke="midnightblue" points="80.5001,-118.852 84,-128.852 87.5001,-118.852 80.5001,-118.852"/>
</g>
<!-- Node4 -->
<g id="node4" class="node"><title>Node4</title>
<g id="a_node4"><a xlink:href="classforcebalance_1_1baseclass_1_1ForceBalanceBaseClass.html" target="_top" xlink:title="Provides some nifty functions that are common to all ForceBalance classes.">
<polygon fill="white" stroke="black" points="17.9805,-187 17.9805,-219 150.019,-219 150.019,-187 17.9805,-187"/>
<text text-anchor="start" x="25.9805" y="-206" font-family="Ubuntu-R" font-size="10.00">forcebalance.baseclass.Force</text>
<text text-anchor="middle" x="84" y="-194" font-family="Ubuntu-R" font-size="10.00">BalanceBaseClass</text>
</a>
</g>
</g>
<!-- Node4&#45;&gt;Node3 -->
<g id="edge3" class="edge"><title>Node4&#45;&gt;Node3</title>
<path fill="none" stroke="midnightblue" d="M84,-176.922C84,-167.172 84,-156.61 84,-149.29"/>
<polygon fill="midnightblue" stroke="midnightblue" points="80.5001,-176.991 84,-186.992 87.5001,-176.992 80.5001,-176.991"/>
</g>
<!-- Node5 -->
<g id="node5" class="node"><title>Node5</title>
<polygon fill="white" stroke="#bfbfbf" points="63.782,-257 63.782,-277 104.218,-277 104.218,-257 63.782,-257"/>
<text text-anchor="middle" x="84" y="-264" font-family="Ubuntu-R" font-size="10.00">object</text>
</g>
<!-- Node5&#45;&gt;Node4 -->
<g id="edge4" class="edge"><title>Node5&#45;&gt;Node4</title>
<path fill="none" stroke="midnightblue" d="M84,-246.775C84,-237.986 84,-227.715 84,-219.44"/>
<polygon fill="midnightblue" stroke="midnightblue" points="80.5001,-246.852 84,-256.852 87.5001,-246.852 80.5001,-246.852"/>
</g>
</g>
</svg>
