<?xml version="1.0" encoding="UTF-8" standalone="no"?>
<!DOCTYPE svg PUBLIC "-//W3C//DTD SVG 1.1//EN"
 "http://www.w3.org/Graphics/SVG/1.1/DTD/svg11.dtd">
<!-- Generated by graphviz version 2.26.3 (20100126.1600)
 -->
<!-- Title: forcebalance.liquid.Liquid.get Pages: 1 -->
<svg width="1986pt" height="723pt"
 viewBox="0.00 0.00 1986.00 723.00" xmlns="http://www.w3.org/2000/svg" xmlns:xlink="http://www.w3.org/1999/xlink">
<g id="graph1" class="graph" transform="scale(1 1) rotate(0) translate(4 719)">
<title>forcebalance.liquid.Liquid.get</title>
<polygon fill="white" stroke="white" points="-4,5 -4,-719 1983,-719 1983,5 -4,5"/>
<!-- Node1 -->
<g id="node1" class="node"><title>Node1</title>
<polygon fill="#bfbfbf" stroke="black" points="0.5,-451.5 0.5,-472.5 155.5,-472.5 155.5,-451.5 0.5,-451.5"/>
<text text-anchor="middle" x="78" y="-459.5" font-family="Ubuntu-R" font-size="10.00">forcebalance.liquid.Liquid.get</text>
</g>
<!-- Node2 -->
<g id="node3" class="node"><title>Node2</title>
<a xlink:href="namespaceforcebalance_1_1nifty.html#a577abfd36638c5f4dfdade136abaef12" target="_top" xlink:title="Use this instead of pickle.load for unpickling anything that contains _ElementTree types...">
<polygon fill="white" stroke="black" points="229,-651.5 229,-672.5 365,-672.5 365,-651.5 229,-651.5"/>
<text text-anchor="middle" x="297" y="-659.5" font-family="Ubuntu-R" font-size="10.00">forcebalance.nifty.lp_load</text>
</a>
</g>
<!-- Node1&#45;&gt;Node2 -->
<g id="edge2" class="edge"><title>Node1&#45;&gt;Node2</title>
<path fill="none" stroke="midnightblue" d="M81.3465,-472.662C91.8662,-504.289 127.461,-598.109 192,-642 200.171,-647.557 209.486,-651.667 219.115,-654.693"/>
<polygon fill="midnightblue" stroke="midnightblue" points="218.248,-658.084 228.818,-657.37 220.109,-651.336 218.248,-658.084"/>
</g>
<!-- Node5 -->
<g id="node9" class="node"><title>Node5</title>
<a xlink:href="classforcebalance_1_1liquid_1_1Liquid.html#a51ea9d9fb4418ec2497fe8e2d8033d41" target="_top" xlink:title="Return the self&#45;polarization correction as described in Berendsen et al., JPC 1987.">
<polygon fill="white" stroke="black" points="199.5,-599 199.5,-633 394.5,-633 394.5,-599 199.5,-599"/>
<text text-anchor="start" x="207.5" y="-620" font-family="Ubuntu-R" font-size="10.00">forcebalance.liquid.Liquid.polarization</text>
<text text-anchor="middle" x="297" y="-607" font-family="Ubuntu-R" font-size="10.00">_correction</text>
</a>
</g>
<!-- Node1&#45;&gt;Node5 -->
<g id="edge8" class="edge"><title>Node1&#45;&gt;Node5</title>
<path fill="none" stroke="midnightblue" d="M84.2074,-472.538C99.3091,-497.202 140.534,-558.942 192,-590 194.814,-591.698 197.734,-593.285 200.732,-594.769"/>
<polygon fill="midnightblue" stroke="midnightblue" points="199.378,-597.998 209.933,-598.918 202.256,-591.617 199.378,-597.998"/>
</g>
<!-- Node6 -->
<g id="node11" class="node"><title>Node6</title>
<a xlink:href="namespaceforcebalance_1_1finite__difference.html#aa69a8819e4680091f400303c1d6ddeb7" target="_top" xlink:title="A three&#45;point finite difference stencil.">
<polygon fill="white" stroke="black" points="244.5,-547 244.5,-581 349.5,-581 349.5,-547 244.5,-547"/>
<text text-anchor="start" x="252.5" y="-568" font-family="Ubuntu-R" font-size="10.00">forcebalance.finite</text>
<text text-anchor="middle" x="297" y="-555" font-family="Ubuntu-R" font-size="10.00">_difference.f12d3p</text>
</a>
</g>
<!-- Node1&#45;&gt;Node6 -->
<g id="edge10" class="edge"><title>Node1&#45;&gt;Node6</title>
<path fill="none" stroke="midnightblue" d="M92.0533,-472.512C112.907,-487.691 153.713,-515.808 192,-533 205.454,-539.041 220.399,-544.268 234.694,-548.62"/>
<polygon fill="midnightblue" stroke="midnightblue" points="233.88,-552.028 244.461,-551.492 235.855,-545.313 233.88,-552.028"/>
</g>
<!-- Node8 -->
<g id="node15" class="node"><title>Node8</title>
<a xlink:href="namespaceforcebalance_1_1finite__difference.html#ae484c591ae8c4e5bae73a0ef2660c339" target="_top" xlink:title="A function wrapper for finite difference designed for differentiating &#39;get&#39;&#45;type functions.">
<polygon fill="white" stroke="black" points="485,-528 485,-562 589,-562 589,-528 485,-528"/>
<text text-anchor="start" x="493" y="-549" font-family="Ubuntu-R" font-size="10.00">forcebalance.finite</text>
<text text-anchor="middle" x="537" y="-536" font-family="Ubuntu-R" font-size="10.00">_difference.fdwrap</text>
</a>
</g>
<!-- Node1&#45;&gt;Node8 -->
<g id="edge22" class="edge"><title>Node1&#45;&gt;Node8</title>
<path fill="none" stroke="midnightblue" d="M110.129,-472.587C132.803,-479.741 164.006,-488.95 192,-495 289.765,-516.129 405.084,-530.816 474.548,-538.572"/>
<polygon fill="midnightblue" stroke="midnightblue" points="474.551,-542.094 484.875,-539.712 475.319,-535.136 474.551,-542.094"/>
</g>
<!-- Node11 -->
<g id="node23" class="node"><title>Node11</title>
<a xlink:href="namespaceforcebalance_1_1nifty.html#a11babd62dc7bca389162c6318f9672ca" target="_top" xlink:title="Cool&#45;looking printout for slick formatting of output.">
<polygon fill="white" stroke="black" points="225,-390.5 225,-411.5 369,-411.5 369,-390.5 225,-390.5"/>
<text text-anchor="middle" x="297" y="-398.5" font-family="Ubuntu-R" font-size="10.00">forcebalance.nifty.printcool</text>
</a>
</g>
<!-- Node1&#45;&gt;Node11 -->
<g id="edge24" class="edge"><title>Node1&#45;&gt;Node11</title>
<path fill="none" stroke="midnightblue" d="M113.631,-451.476C136.083,-444.896 165.697,-436.313 192,-429 209.778,-424.057 229.297,-418.804 246.633,-414.2"/>
<polygon fill="midnightblue" stroke="midnightblue" points="247.788,-417.515 256.558,-411.571 245.995,-410.748 247.788,-417.515"/>
</g>
<!-- Node20 -->
<g id="node42" class="node"><title>Node20</title>
<a xlink:href="namespaceforcebalance_1_1nifty.html#afb3f205bce4984856e766af7e9fdaca8" target="_top" xlink:title="Given any list, array, or matrix, return a 1&#45;column matrix.">
<polygon fill="white" stroke="black" points="1107,-397.5 1107,-418.5 1223,-418.5 1223,-397.5 1107,-397.5"/>
<text text-anchor="middle" x="1165" y="-405.5" font-family="Ubuntu-R" font-size="10.00">forcebalance.nifty.col</text>
</a>
</g>
<!-- Node1&#45;&gt;Node20 -->
<g id="edge64" class="edge"><title>Node1&#45;&gt;Node20</title>
<path fill="none" stroke="midnightblue" d="M155.518,-456.833C246.744,-451.207 402.811,-443 537,-443 537,-443 537,-443 755,-443 886.383,-443 919.29,-437.284 1050,-424 1065.22,-422.454 1081.52,-420.418 1096.92,-418.32"/>
<polygon fill="midnightblue" stroke="midnightblue" points="1097.47,-421.777 1106.89,-416.936 1096.51,-414.843 1097.47,-421.777"/>
</g>
<!-- Node21 -->
<g id="node44" class="node"><title>Node21</title>
<a xlink:href="namespaceforcebalance_1_1nifty.html#a52114ceee9d55f94d9aecb3e176de294" target="_top" xlink:title="Given any list, array, or matrix, return a single&#45;index array.">
<polygon fill="white" stroke="black" points="1297.5,-435.5 1297.5,-456.5 1414.5,-456.5 1414.5,-435.5 1297.5,-435.5"/>
<text text-anchor="middle" x="1356" y="-443.5" font-family="Ubuntu-R" font-size="10.00">forcebalance.nifty.flat</text>
</a>
</g>
<!-- Node1&#45;&gt;Node21 -->
<g id="edge60" class="edge"><title>Node1&#45;&gt;Node21</title>
<path fill="none" stroke="midnightblue" d="M155.518,-467.167C246.744,-472.793 402.811,-481 537,-481 537,-481 537,-481 962,-481 1076.36,-481 1208.65,-466.191 1287.16,-455.838"/>
<polygon fill="midnightblue" stroke="midnightblue" points="1287.95,-459.264 1297.4,-454.473 1287.03,-452.325 1287.95,-459.264"/>
</g>
<!-- Node24 -->
<g id="node55" class="node"><title>Node24</title>
<a xlink:href="namespaceforcebalance_1_1liquid.html#a6f7d54263236f8788c319aee86b460b6" target="_top" xlink:title="forcebalance.liquid.weight_info">
<polygon fill="white" stroke="black" points="216,-350.5 216,-371.5 378,-371.5 378,-350.5 216,-350.5"/>
<text text-anchor="middle" x="297" y="-358.5" font-family="Ubuntu-R" font-size="10.00">forcebalance.liquid.weight_info</text>
</a>
</g>
<!-- Node1&#45;&gt;Node24 -->
<g id="edge62" class="edge"><title>Node1&#45;&gt;Node24</title>
<path fill="none" stroke="midnightblue" d="M89.2787,-451.399C108.658,-433.818 150.235,-398.805 192,-381 198.079,-378.409 204.498,-376.151 211.045,-374.185"/>
<polygon fill="midnightblue" stroke="midnightblue" points="212.003,-377.551 220.705,-371.507 210.133,-370.806 212.003,-377.551"/>
</g>
<!-- Node25 -->
<g id="node58" class="node"><title>Node25</title>
<a xlink:href="classforcebalance_1_1liquid_1_1Liquid.html#a00c23db61bcb86cc19f79dacdb2bc1f3" target="_top" xlink:title="forcebalance.liquid.Liquid.objective_term">
<polygon fill="white" stroke="black" points="192,-292.5 192,-313.5 402,-313.5 402,-292.5 192,-292.5"/>
<text text-anchor="middle" x="297" y="-300.5" font-family="Ubuntu-R" font-size="10.00">forcebalance.liquid.Liquid.objective_term</text>
</a>
</g>
<!-- Node1&#45;&gt;Node25 -->
<g id="edge66" class="edge"><title>Node1&#45;&gt;Node25</title>
<path fill="none" stroke="midnightblue" d="M85.2987,-451.365C101.737,-428.158 143.996,-372.534 192,-341 207.927,-330.538 227.104,-322.507 244.686,-316.584"/>
<polygon fill="midnightblue" stroke="midnightblue" points="245.81,-319.899 254.259,-313.508 243.668,-313.235 245.81,-319.899"/>
</g>
<!-- Node3 -->
<g id="node5" class="node"><title>Node3</title>
<a xlink:href="namespaceforcebalance_1_1nifty.html#abe1e72c32252d62a6551b47290c7584f" target="_top" xlink:title="forcebalance.nifty.getWQIds">
<polygon fill="white" stroke="black" points="463.5,-641.5 463.5,-662.5 610.5,-662.5 610.5,-641.5 463.5,-641.5"/>
<text text-anchor="middle" x="537" y="-649.5" font-family="Ubuntu-R" font-size="10.00">forcebalance.nifty.getWQIds</text>
</a>
</g>
<!-- Node2&#45;&gt;Node3 -->
<g id="edge4" class="edge"><title>Node2&#45;&gt;Node3</title>
<path fill="none" stroke="midnightblue" d="M365.132,-659.161C392.529,-658.02 424.392,-656.692 453.188,-655.492"/>
<polygon fill="midnightblue" stroke="midnightblue" points="453.388,-658.987 463.233,-655.074 453.096,-651.993 453.388,-658.987"/>
</g>
<!-- Node4 -->
<g id="node7" class="node"><title>Node4</title>
<a xlink:href="namespaceforcebalance_1_1nifty.html#ab5f3072ad95e9c75659cb1adac341051" target="_top" xlink:title="forcebalance.nifty.create\lWorkQueue">
<polygon fill="white" stroke="black" points="470.5,-681 470.5,-715 603.5,-715 603.5,-681 470.5,-681"/>
<text text-anchor="start" x="478.5" y="-702" font-family="Ubuntu-R" font-size="10.00">forcebalance.nifty.create</text>
<text text-anchor="middle" x="537" y="-689" font-family="Ubuntu-R" font-size="10.00">WorkQueue</text>
</a>
</g>
<!-- Node2&#45;&gt;Node4 -->
<g id="edge6" class="edge"><title>Node2&#45;&gt;Node4</title>
<path fill="none" stroke="midnightblue" d="M365.132,-672.22C394.765,-676.665 429.624,-681.894 460.174,-686.476"/>
<polygon fill="midnightblue" stroke="midnightblue" points="459.947,-689.981 470.356,-688.003 460.986,-683.059 459.947,-689.981"/>
</g>
<!-- Node7 -->
<g id="node13" class="node"><title>Node7</title>
<a xlink:href="namespaceforcebalance_1_1finite__difference.html#ad84d3e385db1190e7d8ef58bc08a6c52" target="_top" xlink:title="Invoking this function from anywhere will tell us whether we&#39;re being called by a finite&#45;difference f...">
<polygon fill="white" stroke="black" points="485,-580 485,-614 589,-614 589,-580 485,-580"/>
<text text-anchor="start" x="493" y="-601" font-family="Ubuntu-R" font-size="10.00">forcebalance.finite</text>
<text text-anchor="middle" x="537" y="-588" font-family="Ubuntu-R" font-size="10.00">_difference.in_fd</text>
</a>
</g>
<!-- Node6&#45;&gt;Node7 -->
<g id="edge12" class="edge"><title>Node6&#45;&gt;Node7</title>
<path fill="none" stroke="midnightblue" d="M349.669,-571.242C386.529,-576.31 435.919,-583.101 474.732,-588.438"/>
<polygon fill="midnightblue" stroke="midnightblue" points="474.483,-591.937 484.867,-589.832 475.437,-585.002 474.483,-591.937"/>
</g>
<!-- Node6&#45;&gt;Node8 -->
<g id="edge14" class="edge"><title>Node6&#45;&gt;Node8</title>
<path fill="none" stroke="midnightblue" d="M349.669,-559.83C386.529,-556.912 435.919,-553.002 474.732,-549.93"/>
<polygon fill="midnightblue" stroke="midnightblue" points="475.174,-553.406 484.867,-549.127 474.622,-546.427 475.174,-553.406"/>
</g>
<!-- Node9 -->
<g id="node17" class="node"><title>Node9</title>
<a xlink:href="namespaceforcebalance_1_1finite__difference.html#a00322fb65860c390616f74d05037c797" target="_top" xlink:title="A driver to fdwrap for gradients (see documentation for fdwrap) Inputs: tgt = The Target containing t...">
<polygon fill="white" stroke="black" points="697,-561 697,-595 813,-595 813,-561 697,-561"/>
<text text-anchor="start" x="705" y="-582" font-family="Ubuntu-R" font-size="10.00">forcebalance.finite</text>
<text text-anchor="middle" x="755" y="-569" font-family="Ubuntu-R" font-size="10.00">_difference.fdwrap_G</text>
</a>
</g>
<!-- Node8&#45;&gt;Node9 -->
<g id="edge16" class="edge"><title>Node8&#45;&gt;Node9</title>
<path fill="none" stroke="midnightblue" d="M589.216,-547.045C618.428,-550.458 655.188,-555.871 686.666,-561.342"/>
<polygon fill="midnightblue" stroke="midnightblue" points="686.227,-564.819 696.684,-563.118 687.449,-557.926 686.227,-564.819"/>
</g>
<!-- Node10 -->
<g id="node20" class="node"><title>Node10</title>
<a xlink:href="namespaceforcebalance_1_1finite__difference.html#a77a0bc1ae3cbbcc8d38a0ef9ca877d6d" target="_top" xlink:title="A driver to fdwrap for Hessians (see documentation for fdwrap) Inputs: tgt = The Target containing th...">
<polygon fill="white" stroke="black" points="697,-509 697,-543 813,-543 813,-509 697,-509"/>
<text text-anchor="start" x="705" y="-530" font-family="Ubuntu-R" font-size="10.00">forcebalance.finite</text>
<text text-anchor="middle" x="755" y="-517" font-family="Ubuntu-R" font-size="10.00">_difference.fdwrap_H</text>
</a>
</g>
<!-- Node8&#45;&gt;Node10 -->
<g id="edge20" class="edge"><title>Node8&#45;&gt;Node10</title>
<path fill="none" stroke="midnightblue" d="M589.216,-540.449C618.428,-537.903 655.188,-534.699 686.666,-531.956"/>
<polygon fill="midnightblue" stroke="midnightblue" points="687.026,-535.438 696.684,-531.083 686.418,-528.464 687.026,-535.438"/>
</g>
<!-- Node9&#45;&gt;Node8 -->
<g id="edge18" class="edge"><title>Node9&#45;&gt;Node8</title>
<path fill="none" stroke="midnightblue" d="M696.684,-575.227C666.63,-571.565 629.963,-566.053 599.349,-560.606"/>
<polygon fill="midnightblue" stroke="midnightblue" points="599.681,-557.109 589.216,-558.764 598.429,-563.996 599.681,-557.109"/>
</g>
<!-- Node12 -->
<g id="node25" class="node"><title>Node12</title>
<a xlink:href="namespaceforcebalance_1_1nifty.html#abb8f59044961a12588e0653c2baa8b01" target="_top" xlink:title="forcebalance.nifty.warn\l_press_key">
<polygon fill="white" stroke="black" points="1677.5,-253 1677.5,-287 1802.5,-287 1802.5,-253 1677.5,-253"/>
<text text-anchor="start" x="1685.5" y="-274" font-family="Ubuntu-R" font-size="10.00">forcebalance.nifty.warn</text>
<text text-anchor="middle" x="1740" y="-261" font-family="Ubuntu-R" font-size="10.00">_press_key</text>
</a>
</g>
<!-- Node11&#45;&gt;Node12 -->
<g id="edge26" class="edge"><title>Node11&#45;&gt;Node12</title>
<path fill="none" stroke="midnightblue" d="M369.069,-391.429C380.326,-388.757 391.649,-385.347 402,-381 419.96,-373.457 420.117,-363.723 438,-356 570.202,-298.912 610.999,-289 755,-289 755,-289 755,-289 1356,-289 1464.44,-289 1589.89,-281.349 1667.09,-275.757"/>
<polygon fill="midnightblue" stroke="midnightblue" points="1667.47,-279.238 1677.19,-275.017 1666.96,-272.257 1667.47,-279.238"/>
</g>
<!-- Node13 -->
<g id="node27" class="node"><title>Node13</title>
<a xlink:href="namespaceforcebalance_1_1nifty.html#a51180e960742cc7547749fdfb3513ec4" target="_top" xlink:title="See documentation for printcool; this is a nice way to print out keys/values in a dictionary...">
<polygon fill="white" stroke="black" points="465,-365 465,-399 609,-399 609,-365 465,-365"/>
<text text-anchor="start" x="473" y="-386" font-family="Ubuntu-R" font-size="10.00">forcebalance.nifty.printcool</text>
<text text-anchor="middle" x="537" y="-373" font-family="Ubuntu-R" font-size="10.00">_dictionary</text>
</a>
</g>
<!-- Node11&#45;&gt;Node13 -->
<g id="edge28" class="edge"><title>Node11&#45;&gt;Node13</title>
<path fill="none" stroke="midnightblue" d="M369.008,-395.299C395.939,-393.167 426.73,-390.73 454.533,-388.529"/>
<polygon fill="midnightblue" stroke="midnightblue" points="454.936,-392.008 464.628,-387.729 454.383,-385.03 454.936,-392.008"/>
</g>
<!-- Node14 -->
<g id="node29" class="node"><title>Node14</title>
<a xlink:href="namespaceforcebalance_1_1nifty.html#a3f1c7a1af9d35d5d1693074bc6f5497c" target="_top" xlink:title="ONLY matches integers! If you have a decimal point? None shall pass!">
<polygon fill="white" stroke="black" points="694,-371.5 694,-392.5 816,-392.5 816,-371.5 694,-371.5"/>
<text text-anchor="middle" x="755" y="-379.5" font-family="Ubuntu-R" font-size="10.00">forcebalance.nifty.isint</text>
</a>
</g>
<!-- Node13&#45;&gt;Node14 -->
<g id="edge30" class="edge"><title>Node13&#45;&gt;Node14</title>
<path fill="none" stroke="midnightblue" d="M609.288,-382C633.255,-382 659.903,-382 683.789,-382"/>
<polygon fill="midnightblue" stroke="midnightblue" points="683.84,-385.5 693.84,-382 683.84,-378.5 683.84,-385.5"/>
</g>
<!-- Node16 -->
<g id="node33" class="node"><title>Node16</title>
<a xlink:href="namespaceforcebalance_1_1nifty.html#a8e3ef0108b9d37b82ba0dced7c6037ae" target="_top" xlink:title="Matches ANY number; it can be a decimal, scientific notation, what have you CAUTION &#45; this will also ...">
<polygon fill="white" stroke="black" points="1099.5,-354.5 1099.5,-375.5 1230.5,-375.5 1230.5,-354.5 1099.5,-354.5"/>
<text text-anchor="middle" x="1165" y="-362.5" font-family="Ubuntu-R" font-size="10.00">forcebalance.nifty.isfloat</text>
</a>
</g>
<!-- Node13&#45;&gt;Node16 -->
<g id="edge58" class="edge"><title>Node13&#45;&gt;Node16</title>
<path fill="none" stroke="midnightblue" d="M609.296,-369.288C629.521,-366.277 651.561,-363.506 672,-362 819.573,-351.128 992.664,-356.308 1089.51,-360.818"/>
<polygon fill="midnightblue" stroke="midnightblue" points="1089.34,-364.314 1099.5,-361.294 1089.67,-357.322 1089.34,-364.314"/>
</g>
<!-- Node15 -->
<g id="node31" class="node"><title>Node15</title>
<a xlink:href="namespaceforcebalance_1_1nifty.html#a09263927eaec9deff283fbf1a820242f" target="_top" xlink:title="Matches things with a decimal only; see isint and isfloat.">
<polygon fill="white" stroke="black" points="888.5,-393.5 888.5,-414.5 1035.5,-414.5 1035.5,-393.5 888.5,-393.5"/>
<text text-anchor="middle" x="962" y="-401.5" font-family="Ubuntu-R" font-size="10.00">forcebalance.nifty.isdecimal</text>
</a>
</g>
<!-- Node14&#45;&gt;Node15 -->
<g id="edge32" class="edge"><title>Node14&#45;&gt;Node15</title>
<path fill="none" stroke="midnightblue" d="M816.267,-388.511C835.733,-390.58 857.604,-392.905 878.368,-395.112"/>
<polygon fill="midnightblue" stroke="midnightblue" points="878.142,-398.607 888.456,-396.184 878.882,-391.646 878.142,-398.607"/>
</g>
<!-- Node15&#45;&gt;Node16 -->
<g id="edge34" class="edge"><title>Node15&#45;&gt;Node16</title>
<path fill="none" stroke="midnightblue" d="M1016.67,-393.497C1042.39,-388.556 1073.25,-382.628 1100.14,-377.461"/>
<polygon fill="midnightblue" stroke="midnightblue" points="1101.08,-380.845 1110.24,-375.521 1099.75,-373.971 1101.08,-380.845"/>
</g>
<!-- Node15&#45;&gt;Node20 -->
<g id="edge44" class="edge"><title>Node15&#45;&gt;Node20</title>
<path fill="none" stroke="midnightblue" d="M1035.57,-405.45C1055.58,-405.844 1077.15,-406.269 1096.83,-406.657"/>
<polygon fill="midnightblue" stroke="midnightblue" points="1096.87,-410.158 1106.94,-406.856 1097.01,-403.16 1096.87,-410.158"/>
</g>
<!-- Node16&#45;&gt;Node14 -->
<g id="edge36" class="edge"><title>Node16&#45;&gt;Node14</title>
<path fill="none" stroke="midnightblue" d="M1099.46,-367.717C1024.87,-370.81 903.444,-375.845 826.472,-379.037"/>
<polygon fill="midnightblue" stroke="midnightblue" points="826.228,-375.544 816.381,-379.455 826.518,-382.538 826.228,-375.544"/>
</g>
<!-- Node17 -->
<g id="node36" class="node"><title>Node17</title>
<a xlink:href="namespaceforcebalance_1_1nifty.html#a8d63c8ae9a67c66673a6cf81357f827d" target="_top" xlink:title="Returns a big number if we encounter NaN.">
<polygon fill="white" stroke="black" points="1280.5,-354.5 1280.5,-375.5 1431.5,-375.5 1431.5,-354.5 1280.5,-354.5"/>
<text text-anchor="middle" x="1356" y="-362.5" font-family="Ubuntu-R" font-size="10.00">forcebalance.nifty.floatornan</text>
</a>
</g>
<!-- Node16&#45;&gt;Node17 -->
<g id="edge38" class="edge"><title>Node16&#45;&gt;Node17</title>
<path fill="none" stroke="midnightblue" d="M1230.73,-365C1243.46,-365 1256.97,-365 1270.23,-365"/>
<polygon fill="midnightblue" stroke="midnightblue" points="1270.3,-368.5 1280.3,-365 1270.3,-361.5 1270.3,-368.5"/>
</g>
<!-- Node18 -->
<g id="node38" class="node"><title>Node18</title>
<a xlink:href="namespaceforcebalance_1_1nifty.html#a6c9727360cdff8f3011a12cc54d0e86e" target="_top" xlink:title="Given any list, array, or matrix, return a 1&#45;row matrix.">
<polygon fill="white" stroke="black" points="1484.5,-354.5 1484.5,-375.5 1603.5,-375.5 1603.5,-354.5 1484.5,-354.5"/>
<text text-anchor="middle" x="1544" y="-362.5" font-family="Ubuntu-R" font-size="10.00">forcebalance.nifty.row</text>
</a>
</g>
<!-- Node17&#45;&gt;Node18 -->
<g id="edge40" class="edge"><title>Node17&#45;&gt;Node18</title>
<path fill="none" stroke="midnightblue" d="M1431.65,-365C1445.64,-365 1460.19,-365 1474,-365"/>
<polygon fill="midnightblue" stroke="midnightblue" points="1474.39,-368.5 1484.39,-365 1474.39,-361.5 1474.39,-368.5"/>
</g>
<!-- Node19 -->
<g id="node40" class="node"><title>Node19</title>
<a xlink:href="namespaceforcebalance_1_1nifty.html#a7676236002c6a65ea7d2e69a09923889" target="_top" xlink:title="Given two vectors vec1 and vec2, project out the component of vec1 that is along the vec2&#45;direction...">
<polygon fill="white" stroke="black" points="1656,-354.5 1656,-375.5 1824,-375.5 1824,-354.5 1656,-354.5"/>
<text text-anchor="middle" x="1740" y="-362.5" font-family="Ubuntu-R" font-size="10.00">forcebalance.nifty.orthogonalize</text>
</a>
</g>
<!-- Node18&#45;&gt;Node19 -->
<g id="edge42" class="edge"><title>Node18&#45;&gt;Node19</title>
<path fill="none" stroke="midnightblue" d="M1603.6,-365C1616.84,-365 1631.18,-365 1645.42,-365"/>
<polygon fill="midnightblue" stroke="midnightblue" points="1645.76,-368.5 1655.76,-365 1645.76,-361.5 1645.76,-368.5"/>
</g>
<!-- Node20&#45;&gt;Node21 -->
<g id="edge46" class="edge"><title>Node20&#45;&gt;Node21</title>
<path fill="none" stroke="midnightblue" d="M1217.95,-418.535C1241.24,-423.168 1268.77,-428.645 1293.09,-433.485"/>
<polygon fill="midnightblue" stroke="midnightblue" points="1292.46,-436.926 1302.95,-435.445 1293.82,-430.061 1292.46,-436.926"/>
</g>
<!-- Node22 -->
<g id="node46" class="node"><title>Node22</title>
<a xlink:href="namespaceforcebalance_1_1nifty.html#a4c82187e92dfeb8a159f4aa44b501c40" target="_top" xlink:title="Invert a matrix using singular value decomposition.">
<polygon fill="white" stroke="black" points="1468.5,-396.5 1468.5,-417.5 1619.5,-417.5 1619.5,-396.5 1468.5,-396.5"/>
<text text-anchor="middle" x="1544" y="-404.5" font-family="Ubuntu-R" font-size="10.00">forcebalance.nifty.invert_svd</text>
</a>
</g>
<!-- Node21&#45;&gt;Node22 -->
<g id="edge48" class="edge"><title>Node21&#45;&gt;Node22</title>
<path fill="none" stroke="midnightblue" d="M1406.88,-435.446C1430.39,-430.569 1458.49,-424.738 1483.12,-419.629"/>
<polygon fill="midnightblue" stroke="midnightblue" points="1484,-423.021 1493.08,-417.562 1482.58,-416.167 1484,-423.021"/>
</g>
<!-- Node22&#45;&gt;Node12 -->
<g id="edge56" class="edge"><title>Node22&#45;&gt;Node12</title>
<path fill="none" stroke="midnightblue" d="M1595.16,-396.453C1603.81,-393.494 1612.43,-389.742 1620,-385 1640.27,-372.298 1639.05,-361.879 1656,-345 1673.86,-327.215 1695.03,-308.325 1711.65,-293.951"/>
<polygon fill="midnightblue" stroke="midnightblue" points="1714.11,-296.455 1719.41,-287.283 1709.54,-291.146 1714.11,-296.455"/>
</g>
<!-- Node22&#45;&gt;Node20 -->
<g id="edge54" class="edge"><title>Node22&#45;&gt;Node20</title>
<path fill="none" stroke="midnightblue" d="M1468.21,-407.2C1399.75,-407.381 1299.88,-407.644 1233.71,-407.819"/>
<polygon fill="midnightblue" stroke="midnightblue" points="1233.38,-404.319 1223.39,-407.846 1233.4,-411.319 1233.38,-404.319"/>
</g>
<!-- Node23 -->
<g id="node48" class="node"><title>Node23</title>
<a xlink:href="namespaceforcebalance_1_1nifty.html#aa9fb9c7c65231eca50a7afc04f489b64" target="_top" xlink:title="forcebalance.nifty.get\l_least_squares">
<polygon fill="white" stroke="black" points="1681,-411 1681,-445 1799,-445 1799,-411 1681,-411"/>
<text text-anchor="start" x="1689" y="-432" font-family="Ubuntu-R" font-size="10.00">forcebalance.nifty.get</text>
<text text-anchor="middle" x="1740" y="-419" font-family="Ubuntu-R" font-size="10.00">_least_squares</text>
</a>
</g>
<!-- Node22&#45;&gt;Node23 -->
<g id="edge50" class="edge"><title>Node22&#45;&gt;Node23</title>
<path fill="none" stroke="midnightblue" d="M1619.78,-415.119C1636.55,-416.916 1654.24,-418.811 1670.73,-420.579"/>
<polygon fill="midnightblue" stroke="midnightblue" points="1670.52,-424.075 1680.83,-421.661 1671.26,-417.115 1670.52,-424.075"/>
</g>
<!-- Node23&#45;&gt;Node21 -->
<g id="edge52" class="edge"><title>Node23&#45;&gt;Node21</title>
<path fill="none" stroke="midnightblue" d="M1680.95,-430.768C1611.89,-434.005 1497.75,-439.356 1424.76,-442.777"/>
<polygon fill="midnightblue" stroke="midnightblue" points="1424.56,-439.282 1414.74,-443.247 1424.89,-446.274 1424.56,-439.282"/>
</g>
<!-- Node26 -->
<g id="node60" class="node"><title>Node26</title>
<a xlink:href="classforcebalance_1_1liquid_1_1Liquid.html#a716e28bb5572b3273036ac753b7e1e1d" target="_top" xlink:title="forcebalance.liquid.Liquid.submit_jobs">
<polygon fill="white" stroke="black" points="438.5,-201.5 438.5,-222.5 635.5,-222.5 635.5,-201.5 438.5,-201.5"/>
<text text-anchor="middle" x="537" y="-209.5" font-family="Ubuntu-R" font-size="10.00">forcebalance.liquid.Liquid.submit_jobs</text>
</a>
</g>
<!-- Node25&#45;&gt;Node26 -->
<g id="edge68" class="edge"><title>Node25&#45;&gt;Node26</title>
<path fill="none" stroke="midnightblue" d="M325.001,-292.383C368.266,-275.978 451.405,-244.455 499.713,-226.138"/>
<polygon fill="midnightblue" stroke="midnightblue" points="501.068,-229.367 509.178,-222.549 498.586,-222.822 501.068,-229.367"/>
</g>
<!-- Node26&#45;&gt;Node1 -->
<g id="edge116" class="edge"><title>Node26&#45;&gt;Node1</title>
<path fill="none" stroke="midnightblue" d="M438.312,-212.189C364.607,-216.817 264.511,-233.037 192,-283 133.736,-323.146 98.7341,-403.792 84.8812,-441.582"/>
<polygon fill="midnightblue" stroke="midnightblue" points="81.4294,-440.846 81.3951,-451.44 88.0289,-443.18 81.4294,-440.846"/>
</g>
<!-- Node26&#45;&gt;Node12 -->
<g id="edge78" class="edge"><title>Node26&#45;&gt;Node12</title>
<path fill="none" stroke="midnightblue" d="M600.729,-222.533C623.202,-225.958 648.676,-229.512 672,-232 800.437,-245.698 832.835,-251 962,-251 962,-251 962,-251 1356,-251 1464.44,-251 1589.89,-258.651 1667.09,-264.243"/>
<polygon fill="midnightblue" stroke="midnightblue" points="1666.96,-267.743 1677.19,-264.983 1667.47,-260.762 1666.96,-267.743"/>
</g>
<!-- Node27 -->
<g id="node62" class="node"><title>Node27</title>
<a xlink:href="namespaceforcebalance_1_1nifty.html#a2ff762a2f2d2b6bb1c7dd067bd1a1e88" target="_top" xlink:title="Use this instead of pickle.dump for pickling anything that contains _ElementTree types.">
<polygon fill="white" stroke="black" points="683,-31.5 683,-52.5 827,-52.5 827,-31.5 683,-31.5"/>
<text text-anchor="middle" x="755" y="-39.5" font-family="Ubuntu-R" font-size="10.00">forcebalance.nifty.lp_dump</text>
</a>
</g>
<!-- Node26&#45;&gt;Node27 -->
<g id="edge70" class="edge"><title>Node26&#45;&gt;Node27</title>
<path fill="none" stroke="midnightblue" d="M546.777,-201.463C568.079,-178.872 620.882,-124.843 672,-88 688.2,-76.3239 707.666,-65.3922 723.674,-57.1175"/>
<polygon fill="midnightblue" stroke="midnightblue" points="725.313,-60.211 732.649,-52.567 722.147,-53.9677 725.313,-60.211"/>
</g>
<!-- Node29 -->
<g id="node66" class="node"><title>Node29</title>
<a xlink:href="namespaceforcebalance_1_1optimizer.html#ae1f6c649703a22b2f767a5f6bf53297b" target="_top" xlink:title="forcebalance.optimizer.Counter">
<polygon fill="white" stroke="black" points="672,-201.5 672,-222.5 838,-222.5 838,-201.5 672,-201.5"/>
<text text-anchor="middle" x="755" y="-209.5" font-family="Ubuntu-R" font-size="10.00">forcebalance.optimizer.Counter</text>
</a>
</g>
<!-- Node26&#45;&gt;Node29 -->
<g id="edge74" class="edge"><title>Node26&#45;&gt;Node29</title>
<path fill="none" stroke="midnightblue" d="M635.795,-212C644.459,-212 653.209,-212 661.825,-212"/>
<polygon fill="midnightblue" stroke="midnightblue" points="661.864,-215.5 671.864,-212 661.864,-208.5 661.864,-215.5"/>
</g>
<!-- Node31 -->
<g id="node71" class="node"><title>Node31</title>
<a xlink:href="classforcebalance_1_1openmmio_1_1Liquid__OpenMM.html#ad6a30e41f4c0bc319d7ffbbb09cfcf5d" target="_top" xlink:title="Submit a NPT simulation to the Work Queue.">
<polygon fill="white" stroke="black" points="673.5,-97 673.5,-131 836.5,-131 836.5,-97 673.5,-97"/>
<text text-anchor="start" x="681.5" y="-118" font-family="Ubuntu-R" font-size="10.00">forcebalance.openmmio.Liquid</text>
<text text-anchor="middle" x="755" y="-105" font-family="Ubuntu-R" font-size="10.00">_OpenMM.npt_simulation</text>
</a>
</g>
<!-- Node26&#45;&gt;Node31 -->
<g id="edge80" class="edge"><title>Node26&#45;&gt;Node31</title>
<path fill="none" stroke="midnightblue" d="M554.391,-201.364C579.617,-186.254 628.147,-158.374 672,-140 676.465,-138.129 681.114,-136.319 685.83,-134.584"/>
<polygon fill="midnightblue" stroke="midnightblue" points="687.313,-137.772 695.569,-131.132 684.974,-131.174 687.313,-137.772"/>
</g>
<!-- Node43 -->
<g id="node96" class="node"><title>Node43</title>
<a xlink:href="classforcebalance_1_1tinkerio_1_1Liquid__TINKER.html#a53a10ac99cdfbf026526ed625d4de809" target="_top" xlink:title="Submit a NPT simulation to the Work Queue.">
<polygon fill="white" stroke="black" points="682,-149 682,-183 828,-183 828,-149 682,-149"/>
<text text-anchor="start" x="690" y="-170" font-family="Ubuntu-R" font-size="10.00">forcebalance.tinkerio.Liquid</text>
<text text-anchor="middle" x="755" y="-157" font-family="Ubuntu-R" font-size="10.00">_TINKER.npt_simulation</text>
</a>
</g>
<!-- Node26&#45;&gt;Node43 -->
<g id="edge106" class="edge"><title>Node26&#45;&gt;Node43</title>
<path fill="none" stroke="midnightblue" d="M587.014,-201.447C612.089,-196.155 643.125,-189.607 671.671,-183.583"/>
<polygon fill="midnightblue" stroke="midnightblue" points="672.588,-186.967 681.65,-181.478 671.143,-180.118 672.588,-186.967"/>
</g>
<!-- Node28 -->
<g id="node64" class="node"><title>Node28</title>
<a xlink:href="namespaceforcebalance_1_1nifty.html#ac37d4fe58ef70ed546ebfc45d12f7a5d" target="_top" xlink:title="forcebalance.nifty.getWork\lQueue">
<polygon fill="white" stroke="black" points="891.5,-6 891.5,-40 1032.5,-40 1032.5,-6 891.5,-6"/>
<text text-anchor="start" x="899.5" y="-27" font-family="Ubuntu-R" font-size="10.00">forcebalance.nifty.getWork</text>
<text text-anchor="middle" x="962" y="-14" font-family="Ubuntu-R" font-size="10.00">Queue</text>
</a>
</g>
<!-- Node27&#45;&gt;Node28 -->
<g id="edge72" class="edge"><title>Node27&#45;&gt;Node28</title>
<path fill="none" stroke="midnightblue" d="M827.108,-35.3814C844.47,-33.7878 863.133,-32.0748 880.875,-30.4463"/>
<polygon fill="midnightblue" stroke="midnightblue" points="881.56,-33.8982 891.198,-29.4988 880.92,-26.9275 881.56,-33.8982"/>
</g>
<!-- Node30 -->
<g id="node68" class="node"><title>Node30</title>
<a xlink:href="namespaceforcebalance_1_1optimizer.html#ab43948ecf30c90d319e0c0b107fe484a" target="_top" xlink:title="forcebalance.optimizer.GoodStep">
<polygon fill="white" stroke="black" points="874,-201.5 874,-222.5 1050,-222.5 1050,-201.5 874,-201.5"/>
<text text-anchor="middle" x="962" y="-209.5" font-family="Ubuntu-R" font-size="10.00">forcebalance.optimizer.GoodStep</text>
</a>
</g>
<!-- Node29&#45;&gt;Node30 -->
<g id="edge76" class="edge"><title>Node29&#45;&gt;Node30</title>
<path fill="none" stroke="midnightblue" d="M838.002,-212C846.491,-212 855.171,-212 863.802,-212"/>
<polygon fill="midnightblue" stroke="midnightblue" points="863.897,-215.5 873.897,-212 863.897,-208.5 863.897,-215.5"/>
</g>
<!-- Node32 -->
<g id="node73" class="node"><title>Node32</title>
<a xlink:href="namespaceforcebalance_1_1nifty.html#a673f4a044169f5d8d822823989a836a7" target="_top" xlink:title="Submit a job to the Work Queue.">
<polygon fill="white" stroke="black" points="887,-110.5 887,-131.5 1037,-131.5 1037,-110.5 887,-110.5"/>
<text text-anchor="middle" x="962" y="-118.5" font-family="Ubuntu-R" font-size="10.00">forcebalance.nifty.queue_up</text>
</a>
</g>
<!-- Node31&#45;&gt;Node32 -->
<g id="edge82" class="edge"><title>Node31&#45;&gt;Node32</title>
<path fill="none" stroke="midnightblue" d="M836.515,-116.757C849.768,-117.205 863.525,-117.67 876.862,-118.121"/>
<polygon fill="midnightblue" stroke="midnightblue" points="876.851,-121.622 886.964,-118.463 877.088,-114.626 876.851,-121.622"/>
</g>
<!-- Node41 -->
<g id="node92" class="node"><title>Node41</title>
<a xlink:href="classforcebalance_1_1openmmio_1_1Liquid__OpenMM.html#a92379bd73128234b309fae789946035d" target="_top" xlink:title="forcebalance.openmmio.Liquid\l_OpenMM.__init__">
<polygon fill="white" stroke="black" points="880.5,-58 880.5,-92 1043.5,-92 1043.5,-58 880.5,-58"/>
<text text-anchor="start" x="888.5" y="-79" font-family="Ubuntu-R" font-size="10.00">forcebalance.openmmio.Liquid</text>
<text text-anchor="middle" x="962" y="-66" font-family="Ubuntu-R" font-size="10.00">_OpenMM.__init__</text>
</a>
</g>
<!-- Node31&#45;&gt;Node41 -->
<g id="edge102" class="edge"><title>Node31&#45;&gt;Node41</title>
<path fill="none" stroke="midnightblue" d="M836.515,-98.6422C847.628,-96.5484 859.095,-94.3878 870.373,-92.2631"/>
<polygon fill="midnightblue" stroke="midnightblue" points="871.041,-95.6989 880.22,-90.4078 869.745,-88.8199 871.041,-95.6989"/>
</g>
<!-- Node33 -->
<g id="node75" class="node"><title>Node33</title>
<a xlink:href="namespaceforcebalance_1_1nifty.html#a5d5abeb4a185fde64721d044831e18ee" target="_top" xlink:title="Submit a job to the Work Queue.">
<polygon fill="white" stroke="black" points="1099,-52 1099,-86 1231,-86 1231,-52 1099,-52"/>
<text text-anchor="start" x="1107" y="-73" font-family="Ubuntu-R" font-size="10.00">forcebalance.nifty.queue</text>
<text text-anchor="middle" x="1165" y="-60" font-family="Ubuntu-R" font-size="10.00">_up_src_dest</text>
</a>
</g>
<!-- Node32&#45;&gt;Node33 -->
<g id="edge84" class="edge"><title>Node32&#45;&gt;Node33</title>
<path fill="none" stroke="midnightblue" d="M1010.51,-110.412C1023.38,-107.485 1037.24,-104.223 1050,-101 1064.92,-97.2319 1080.85,-92.9582 1095.96,-88.789"/>
<polygon fill="midnightblue" stroke="midnightblue" points="1097.05,-92.1183 1105.75,-86.0707 1095.18,-85.3734 1097.05,-92.1183"/>
</g>
<!-- Node34 -->
<g id="node77" class="node"><title>Node34</title>
<a xlink:href="namespaceforcebalance_1_1nifty.html#a374aac2ef003be02fab49b20ff0a82f0" target="_top" xlink:title="This function waits ten seconds to see if a task in the Work Queue has finished.">
<polygon fill="white" stroke="black" points="1107.5,-104 1107.5,-138 1222.5,-138 1222.5,-104 1107.5,-104"/>
<text text-anchor="start" x="1115.5" y="-125" font-family="Ubuntu-R" font-size="10.00">forcebalance.nifty.wq</text>
<text text-anchor="middle" x="1165" y="-112" font-family="Ubuntu-R" font-size="10.00">_wait1</text>
</a>
</g>
<!-- Node32&#45;&gt;Node34 -->
<g id="edge86" class="edge"><title>Node32&#45;&gt;Node34</title>
<path fill="none" stroke="midnightblue" d="M1037.01,-121C1056.73,-121 1077.89,-121 1097.21,-121"/>
<polygon fill="midnightblue" stroke="midnightblue" points="1097.43,-124.5 1107.43,-121 1097.43,-117.5 1097.43,-124.5"/>
</g>
<!-- Node35 -->
<g id="node79" class="node"><title>Node35</title>
<a xlink:href="namespaceforcebalance_1_1nifty.html#a576de8c5b6f236280e07e73e39b2ab7c" target="_top" xlink:title="This function waits until the work queue is completely empty.">
<polygon fill="white" stroke="black" points="1286.5,-85.5 1286.5,-106.5 1425.5,-106.5 1425.5,-85.5 1286.5,-85.5"/>
<text text-anchor="middle" x="1356" y="-93.5" font-family="Ubuntu-R" font-size="10.00">forcebalance.nifty.wq_wait</text>
</a>
</g>
<!-- Node34&#45;&gt;Node35 -->
<g id="edge88" class="edge"><title>Node34&#45;&gt;Node35</title>
<path fill="none" stroke="midnightblue" d="M1222.57,-113.465C1239.53,-111.245 1258.39,-108.776 1276.47,-106.409"/>
<polygon fill="midnightblue" stroke="midnightblue" points="1276.96,-109.876 1286.42,-105.108 1276.05,-102.935 1276.96,-109.876"/>
</g>
<!-- Node36 -->
<g id="node81" class="node"><title>Node36</title>
<a xlink:href="namespaceforcebalance_1_1nifty.html#ac9ab6c5543a2e3080061e0024850edf3" target="_top" xlink:title="forcebalance.nifty.allsplit">
<polygon fill="white" stroke="black" points="1478,-112.5 1478,-133.5 1610,-133.5 1610,-112.5 1478,-112.5"/>
<text text-anchor="middle" x="1544" y="-120.5" font-family="Ubuntu-R" font-size="10.00">forcebalance.nifty.allsplit</text>
</a>
</g>
<!-- Node34&#45;&gt;Node36 -->
<g id="edge98" class="edge"><title>Node34&#45;&gt;Node36</title>
<path fill="none" stroke="midnightblue" d="M1222.56,-121.304C1287.99,-121.649 1395.08,-122.214 1467.49,-122.596"/>
<polygon fill="midnightblue" stroke="midnightblue" points="1467.9,-126.098 1477.91,-122.651 1467.93,-119.098 1467.9,-126.098"/>
</g>
<!-- Node39 -->
<g id="node87" class="node"><title>Node39</title>
<a xlink:href="namespaceforcebalance_1_1nifty.html#ad432b88307e1178b0690c0d350b1af36" target="_top" xlink:title="forcebalance.nifty.GoInto">
<polygon fill="white" stroke="black" points="1289,-45.5 1289,-66.5 1423,-66.5 1423,-45.5 1289,-45.5"/>
<text text-anchor="middle" x="1356" y="-53.5" font-family="Ubuntu-R" font-size="10.00">forcebalance.nifty.GoInto</text>
</a>
</g>
<!-- Node34&#45;&gt;Node39 -->
<g id="edge96" class="edge"><title>Node34&#45;&gt;Node39</title>
<path fill="none" stroke="midnightblue" d="M1220.69,-103.978C1228.59,-101.185 1236.56,-98.1621 1244,-95 1260.65,-87.925 1263.14,-82.5671 1280,-76 1286.24,-73.571 1292.87,-71.3385 1299.53,-69.3166"/>
<polygon fill="midnightblue" stroke="midnightblue" points="1300.61,-72.6468 1309.24,-66.5063 1298.66,-65.9224 1300.61,-72.6468"/>
</g>
<!-- Node40 -->
<g id="node90" class="node"><title>Node40</title>
<a xlink:href="namespaceforcebalance_1_1nifty.html#ab04e8690d099db2379dc860e0d040120" target="_top" xlink:title="forcebalance.nifty.Leave">
<polygon fill="white" stroke="black" points="1290.5,-5.5 1290.5,-26.5 1421.5,-26.5 1421.5,-5.5 1290.5,-5.5"/>
<text text-anchor="middle" x="1356" y="-13.5" font-family="Ubuntu-R" font-size="10.00">forcebalance.nifty.Leave</text>
</a>
</g>
<!-- Node34&#45;&gt;Node40 -->
<g id="edge100" class="edge"><title>Node34&#45;&gt;Node40</title>
<path fill="none" stroke="midnightblue" d="M1222.71,-107.387C1230.32,-104.094 1237.66,-100.024 1244,-95 1268.07,-75.9139 1255.36,-54.3479 1280,-36 1282.49,-34.1448 1285.14,-32.4613 1287.9,-30.9338"/>
<polygon fill="midnightblue" stroke="midnightblue" points="1289.52,-34.0395 1297.03,-26.5664 1286.5,-27.7249 1289.52,-34.0395"/>
</g>
<!-- Node35&#45;&gt;Node36 -->
<g id="edge90" class="edge"><title>Node35&#45;&gt;Node36</title>
<path fill="none" stroke="midnightblue" d="M1425.74,-106.015C1439.44,-107.984 1453.89,-110.058 1467.79,-112.056"/>
<polygon fill="midnightblue" stroke="midnightblue" points="1467.41,-115.536 1477.81,-113.493 1468.41,-108.607 1467.41,-115.536"/>
</g>
<!-- Node37 -->
<g id="node83" class="node"><title>Node37</title>
<a xlink:href="namespaceforcebalance_1_1nifty.html#ae87c7def5f8edf2ec30737bdb1d2636f" target="_top" xlink:title="forcebalance.nifty.Missing\lFileInspection">
<polygon fill="white" stroke="black" points="1671,-106 1671,-140 1809,-140 1809,-106 1671,-106"/>
<text text-anchor="start" x="1679" y="-127" font-family="Ubuntu-R" font-size="10.00">forcebalance.nifty.Missing</text>
<text text-anchor="middle" x="1740" y="-114" font-family="Ubuntu-R" font-size="10.00">FileInspection</text>
</a>
</g>
<!-- Node36&#45;&gt;Node37 -->
<g id="edge92" class="edge"><title>Node36&#45;&gt;Node37</title>
<path fill="none" stroke="midnightblue" d="M1610.08,-123C1626.28,-123 1643.79,-123 1660.54,-123"/>
<polygon fill="midnightblue" stroke="midnightblue" points="1660.85,-126.5 1670.85,-123 1660.85,-119.5 1660.85,-126.5"/>
</g>
<!-- Node38 -->
<g id="node85" class="node"><title>Node38</title>
<a xlink:href="namespaceforcebalance_1_1nifty.html#a0cf4e58f90acf20e3d6224be2354082c" target="_top" xlink:title="forcebalance.nifty.link\l_dir_contents">
<polygon fill="white" stroke="black" points="1860,-106 1860,-140 1978,-140 1978,-106 1860,-106"/>
<text text-anchor="start" x="1868" y="-127" font-family="Ubuntu-R" font-size="10.00">forcebalance.nifty.link</text>
<text text-anchor="middle" x="1919" y="-114" font-family="Ubuntu-R" font-size="10.00">_dir_contents</text>
</a>
</g>
<!-- Node37&#45;&gt;Node38 -->
<g id="edge94" class="edge"><title>Node37&#45;&gt;Node38</title>
<path fill="none" stroke="midnightblue" d="M1809.21,-123C1822.53,-123 1836.49,-123 1849.82,-123"/>
<polygon fill="midnightblue" stroke="midnightblue" points="1849.87,-126.5 1859.87,-123 1849.87,-119.5 1849.87,-126.5"/>
</g>
<!-- Node42 -->
<g id="node94" class="node"><title>Node42</title>
<a xlink:href="classforcebalance_1_1baseclass_1_1ForceBalanceBaseClass.html#abaaf4d99b043d41f02fabc41db59252b" target="_top" xlink:title="forcebalance.baseclass.Force\lBalanceBaseClass.set_option">
<polygon fill="white" stroke="black" points="1086,-0 1086,-34 1244,-34 1244,-0 1086,-0"/>
<text text-anchor="start" x="1094" y="-21" font-family="Ubuntu-R" font-size="10.00">forcebalance.baseclass.Force</text>
<text text-anchor="middle" x="1165" y="-8" font-family="Ubuntu-R" font-size="10.00">BalanceBaseClass.set_option</text>
</a>
</g>
<!-- Node41&#45;&gt;Node42 -->
<g id="edge104" class="edge"><title>Node41&#45;&gt;Node42</title>
<path fill="none" stroke="midnightblue" d="M1021.54,-57.99C1044.77,-51.3505 1071.57,-43.6933 1095.67,-36.8073"/>
<polygon fill="midnightblue" stroke="midnightblue" points="1096.81,-40.1223 1105.47,-34.0097 1094.89,-33.3917 1096.81,-40.1223"/>
</g>
<!-- Node43&#45;&gt;Node30 -->
<g id="edge108" class="edge"><title>Node43&#45;&gt;Node30</title>
<path fill="none" stroke="midnightblue" d="M828.272,-182.283C853.408,-187.868 881.151,-194.034 904.822,-199.294"/>
<polygon fill="midnightblue" stroke="midnightblue" points="904.177,-202.736 914.698,-201.488 905.695,-195.902 904.177,-202.736"/>
</g>
<!-- Node43&#45;&gt;Node32 -->
<g id="edge110" class="edge"><title>Node43&#45;&gt;Node32</title>
<path fill="none" stroke="midnightblue" d="M828.272,-150.071C853.001,-144.695 880.254,-138.771 903.669,-133.681"/>
<polygon fill="midnightblue" stroke="midnightblue" points="904.423,-137.099 913.451,-131.554 902.936,-130.258 904.423,-137.099"/>
</g>
<!-- Node44 -->
<g id="node100" class="node"><title>Node44</title>
<a xlink:href="classforcebalance_1_1tinkerio_1_1Liquid__TINKER.html#a307529b9902b34a790a8b016e153c7d6" target="_top" xlink:title="forcebalance.tinkerio.Liquid\l_TINKER.__init__">
<polygon fill="white" stroke="black" points="1471,-167 1471,-201 1617,-201 1617,-167 1471,-167"/>
<text text-anchor="start" x="1479" y="-188" font-family="Ubuntu-R" font-size="10.00">forcebalance.tinkerio.Liquid</text>
<text text-anchor="middle" x="1544" y="-175" font-family="Ubuntu-R" font-size="10.00">_TINKER.__init__</text>
</a>
</g>
<!-- Node43&#45;&gt;Node44 -->
<g id="edge112" class="edge"><title>Node43&#45;&gt;Node44</title>
<path fill="none" stroke="midnightblue" d="M828.165,-167.669C975.116,-171.022 1305.31,-178.555 1460.46,-182.094"/>
<polygon fill="midnightblue" stroke="midnightblue" points="1460.79,-185.603 1470.87,-182.332 1460.95,-178.604 1460.79,-185.603"/>
</g>
<!-- Node44&#45;&gt;Node12 -->
<g id="edge114" class="edge"><title>Node44&#45;&gt;Node12</title>
<path fill="none" stroke="midnightblue" d="M1583.19,-201.197C1614.41,-214.893 1658.25,-234.132 1691.65,-248.784"/>
<polygon fill="midnightblue" stroke="midnightblue" points="1690.65,-252.167 1701.21,-252.98 1693.46,-245.757 1690.65,-252.167"/>
</g>
</g>
</svg>
