<?xml version="1.0" encoding="UTF-8" standalone="no"?>
<!DOCTYPE svg PUBLIC "-//W3C//DTD SVG 1.1//EN"
 "http://www.w3.org/Graphics/SVG/1.1/DTD/svg11.dtd">
<!-- Generated by graphviz version 2.28.0 (20111219.2309)
 -->
<!-- Title: forcebalance.forcefield.FF.rsmake Pages: 1 -->
<svg width="1804pt" height="161pt"
 viewBox="0.00 0.00 1804.00 161.00" xmlns="http://www.w3.org/2000/svg" xmlns:xlink="http://www.w3.org/1999/xlink">
<g id="graph1" class="graph" transform="scale(1 1) rotate(0) translate(4 157)">
<title>forcebalance.forcefield.FF.rsmake</title>
<polygon fill="white" stroke="white" points="-4,5 -4,-157 1801,-157 1801,5 -4,5"/>
<!-- Node1 -->
<g id="node1" class="node"><title>Node1</title>
<polygon fill="#bfbfbf" stroke="black" points="0,-79 0,-109 128,-109 128,-79 0,-79"/>
<text text-anchor="start" x="8" y="-97" font-family="Ubuntu-R" font-size="10.00">forcebalance.forcefield.</text>
<text text-anchor="middle" x="64" y="-86" font-family="Ubuntu-R" font-size="10.00">FF.rsmake</text>
</g>
<!-- Node2 -->
<g id="node3" class="node"><title>Node2</title>
<a xlink:href="namespaceforcebalance_1_1forcefield.html#ab1a855bace20dd5e45928467e2a133f1" target="_top" xlink:title="This function takes in a dictionary (rsfactors) and a string (termtype). ">
<polygon fill="white" stroke="black" points="167.5,-123 167.5,-153 304.5,-153 304.5,-123 167.5,-123"/>
<text text-anchor="start" x="175.5" y="-141" font-family="Ubuntu-R" font-size="10.00">forcebalance.forcefield.rs</text>
<text text-anchor="middle" x="236" y="-130" font-family="Ubuntu-R" font-size="10.00">_override</text>
</a>
</g>
<!-- Node1&#45;&gt;Node2 -->
<g id="edge2" class="edge"><title>Node1&#45;&gt;Node2</title>
<path fill="none" stroke="midnightblue" d="M123.029,-109.019C137.174,-112.68 152.432,-116.629 166.995,-120.399"/>
<polygon fill="midnightblue" stroke="midnightblue" points="166.386,-123.856 176.944,-122.974 168.14,-117.08 166.386,-123.856"/>
</g>
<!-- Node3 -->
<g id="node5" class="node"><title>Node3</title>
<a xlink:href="namespaceforcebalance_1_1nifty.html#a11babd62dc7bca389162c6318f9672ca" target="_top" xlink:title="Cool&#45;looking printout for slick formatting of output. ">
<polygon fill="white" stroke="black" points="164,-84.5 164,-103.5 308,-103.5 308,-84.5 164,-84.5"/>
<text text-anchor="middle" x="236" y="-91.5" font-family="Ubuntu-R" font-size="10.00">forcebalance.nifty.printcool</text>
</a>
</g>
<!-- Node1&#45;&gt;Node3 -->
<g id="edge4" class="edge"><title>Node1&#45;&gt;Node3</title>
<path fill="none" stroke="midnightblue" d="M128.302,-94C136.647,-94 145.292,-94 153.884,-94"/>
<polygon fill="midnightblue" stroke="midnightblue" points="153.924,-97.5001 163.924,-94 153.924,-90.5001 153.924,-97.5001"/>
</g>
<!-- Node18 -->
<g id="node40" class="node"><title>Node18</title>
<a xlink:href="classforcebalance_1_1forcefield_1_1FF.html#acf0ce8fc4e9fbf5257f93d14d4a4f10f" target="_top" xlink:title="Create the transformation matrix to rescale and rotate the mathematical parameters. ">
<polygon fill="white" stroke="black" points="172,-35 172,-65 300,-65 300,-35 172,-35"/>
<text text-anchor="start" x="180" y="-53" font-family="Ubuntu-R" font-size="10.00">forcebalance.forcefield.</text>
<text text-anchor="middle" x="236" y="-42" font-family="Ubuntu-R" font-size="10.00">FF.mktransmat</text>
</a>
</g>
<!-- Node1&#45;&gt;Node18 -->
<g id="edge44" class="edge"><title>Node1&#45;&gt;Node18</title>
<path fill="none" stroke="midnightblue" d="M123.029,-78.9808C137.174,-75.3196 152.432,-71.3706 166.995,-67.6013"/>
<polygon fill="midnightblue" stroke="midnightblue" points="168.14,-70.9203 176.944,-65.0262 166.386,-64.1436 168.14,-70.9203"/>
</g>
<!-- Node4 -->
<g id="node7" class="node"><title>Node4</title>
<a xlink:href="namespaceforcebalance_1_1nifty.html#abb8f59044961a12588e0653c2baa8b01" target="_top" xlink:title="forcebalance.nifty.warn\l_press_key">
<polygon fill="white" stroke="black" points="1431.5,-103 1431.5,-133 1556.5,-133 1556.5,-103 1431.5,-103"/>
<text text-anchor="start" x="1439.5" y="-121" font-family="Ubuntu-R" font-size="10.00">forcebalance.nifty.warn</text>
<text text-anchor="middle" x="1494" y="-110" font-family="Ubuntu-R" font-size="10.00">_press_key</text>
</a>
</g>
<!-- Node3&#45;&gt;Node4 -->
<g id="edge6" class="edge"><title>Node3&#45;&gt;Node4</title>
<path fill="none" stroke="midnightblue" d="M306.305,-103.533C376.24,-112.318 487.403,-124 584,-124 584,-124 584,-124 1111,-124 1219.23,-124 1344.69,-121.562 1421.44,-119.795"/>
<polygon fill="midnightblue" stroke="midnightblue" points="1421.56,-123.293 1431.47,-119.561 1421.4,-116.295 1421.56,-123.293"/>
</g>
<!-- Node6 -->
<g id="node11" class="node"><title>Node6</title>
<a xlink:href="namespaceforcebalance_1_1nifty.html#a51180e960742cc7547749fdfb3513ec4" target="_top" xlink:title="See documentation for printcool; this is a nice way to print out keys/values in a dictionary...">
<polygon fill="white" stroke="black" points="344,-49 344,-79 488,-79 488,-49 344,-49"/>
<text text-anchor="start" x="352" y="-67" font-family="Ubuntu-R" font-size="10.00">forcebalance.nifty.printcool</text>
<text text-anchor="middle" x="416" y="-56" font-family="Ubuntu-R" font-size="10.00">_dictionary</text>
</a>
</g>
<!-- Node3&#45;&gt;Node6 -->
<g id="edge10" class="edge"><title>Node3&#45;&gt;Node6</title>
<path fill="none" stroke="midnightblue" d="M293.81,-84.4253C306.458,-82.2936 320.108,-79.993 333.529,-77.7311"/>
<polygon fill="midnightblue" stroke="midnightblue" points="334.447,-81.1258 343.726,-76.0124 333.284,-74.2231 334.447,-81.1258"/>
</g>
<!-- Node5 -->
<g id="node9" class="node"><title>Node5</title>
<a xlink:href="namespaceforcebalance_1_1nifty.html#a2fc81730e7efa7d138dd86f733507bfc" target="_top" xlink:title="Similar to the bultin function map(). ">
<polygon fill="white" stroke="black" points="1614,-108.5 1614,-127.5 1796,-127.5 1796,-108.5 1614,-108.5"/>
<text text-anchor="middle" x="1705" y="-115.5" font-family="Ubuntu-R" font-size="10.00">forcebalance.nifty.concurrent_map</text>
</a>
</g>
<!-- Node4&#45;&gt;Node5 -->
<g id="edge8" class="edge"><title>Node4&#45;&gt;Node5</title>
<path fill="none" stroke="midnightblue" d="M1556.58,-118C1571.43,-118 1587.69,-118 1603.81,-118"/>
<polygon fill="midnightblue" stroke="midnightblue" points="1603.82,-121.5 1613.82,-118 1603.82,-114.5 1603.82,-121.5"/>
</g>
<!-- Node7 -->
<g id="node13" class="node"><title>Node7</title>
<a xlink:href="namespaceforcebalance_1_1nifty.html#a3f1c7a1af9d35d5d1693074bc6f5497c" target="_top" xlink:title="ONLY matches integers! If you have a decimal point? None shall pass! ">
<polygon fill="white" stroke="black" points="524,-54.5 524,-73.5 646,-73.5 646,-54.5 524,-54.5"/>
<text text-anchor="middle" x="585" y="-61.5" font-family="Ubuntu-R" font-size="10.00">forcebalance.nifty.isint</text>
</a>
</g>
<!-- Node6&#45;&gt;Node7 -->
<g id="edge12" class="edge"><title>Node6&#45;&gt;Node7</title>
<path fill="none" stroke="midnightblue" d="M488.307,-64C496.753,-64 505.369,-64 513.799,-64"/>
<polygon fill="midnightblue" stroke="midnightblue" points="513.965,-67.5001 523.965,-64 513.965,-60.5001 513.965,-67.5001"/>
</g>
<!-- Node9 -->
<g id="node17" class="node"><title>Node9</title>
<a xlink:href="namespaceforcebalance_1_1nifty.html#a8e3ef0108b9d37b82ba0dced7c6037ae" target="_top" xlink:title="Matches ANY number; it can be a decimal, scientific notation, what have you CAUTION &#45; this will also ...">
<polygon fill="white" stroke="black" points="866.5,-19.5 866.5,-38.5 997.5,-38.5 997.5,-19.5 866.5,-19.5"/>
<text text-anchor="middle" x="932" y="-26.5" font-family="Ubuntu-R" font-size="10.00">forcebalance.nifty.isfloat</text>
</a>
</g>
<!-- Node6&#45;&gt;Node9 -->
<g id="edge42" class="edge"><title>Node6&#45;&gt;Node9</title>
<path fill="none" stroke="midnightblue" d="M488.202,-50.2055C500.121,-48.2275 512.386,-46.3942 524,-45 639.303,-31.1585 774.165,-28.4913 856.039,-28.3579"/>
<polygon fill="midnightblue" stroke="midnightblue" points="856.25,-31.8579 866.248,-28.354 856.247,-24.8579 856.25,-31.8579"/>
</g>
<!-- Node8 -->
<g id="node15" class="node"><title>Node8</title>
<a xlink:href="namespaceforcebalance_1_1nifty.html#a09263927eaec9deff283fbf1a820242f" target="_top" xlink:title="Matches things with a decimal only; see isint and isfloat. ">
<polygon fill="white" stroke="black" points="682,-76.5 682,-95.5 830,-95.5 830,-76.5 682,-76.5"/>
<text text-anchor="middle" x="756" y="-83.5" font-family="Ubuntu-R" font-size="10.00">forcebalance.nifty.isdecimal</text>
</a>
</g>
<!-- Node7&#45;&gt;Node8 -->
<g id="edge14" class="edge"><title>Node7&#45;&gt;Node8</title>
<path fill="none" stroke="midnightblue" d="M646.059,-71.8183C654.378,-72.9013 663.043,-74.0293 671.692,-75.1551"/>
<polygon fill="midnightblue" stroke="midnightblue" points="671.447,-78.6527 681.815,-76.4729 672.35,-71.7113 671.447,-78.6527"/>
</g>
<!-- Node8&#45;&gt;Node9 -->
<g id="edge16" class="edge"><title>Node8&#45;&gt;Node9</title>
<path fill="none" stroke="midnightblue" d="M786.124,-76.4595C815.232,-66.924 860.159,-52.2064 892.262,-41.6901"/>
<polygon fill="midnightblue" stroke="midnightblue" points="893.368,-45.0109 901.781,-38.5716 891.189,-38.3587 893.368,-45.0109"/>
</g>
<!-- Node13 -->
<g id="node26" class="node"><title>Node13</title>
<a xlink:href="namespaceforcebalance_1_1nifty.html#afb3f205bce4984856e766af7e9fdaca8" target="_top" xlink:title="Given any list, array, or matrix, return a 1&#45;column matrix. ">
<polygon fill="white" stroke="black" points="874,-76.5 874,-95.5 990,-95.5 990,-76.5 874,-76.5"/>
<text text-anchor="middle" x="932" y="-83.5" font-family="Ubuntu-R" font-size="10.00">forcebalance.nifty.col</text>
</a>
</g>
<!-- Node8&#45;&gt;Node13 -->
<g id="edge26" class="edge"><title>Node8&#45;&gt;Node13</title>
<path fill="none" stroke="midnightblue" d="M830.035,-86C841.1,-86 852.475,-86 863.418,-86"/>
<polygon fill="midnightblue" stroke="midnightblue" points="863.752,-89.5001 873.752,-86 863.752,-82.5001 863.752,-89.5001"/>
</g>
<!-- Node9&#45;&gt;Node7 -->
<g id="edge18" class="edge"><title>Node9&#45;&gt;Node7</title>
<path fill="none" stroke="midnightblue" d="M866.323,-35.5614C806.453,-41.6352 717.656,-50.6436 656.11,-56.8874"/>
<polygon fill="midnightblue" stroke="midnightblue" points="655.69,-53.4119 646.094,-57.9035 656.397,-60.3762 655.69,-53.4119"/>
</g>
<!-- Node10 -->
<g id="node20" class="node"><title>Node10</title>
<a xlink:href="namespaceforcebalance_1_1nifty.html#a8d63c8ae9a67c66673a6cf81357f827d" target="_top" xlink:title="Returns a big number if we encounter NaN. ">
<polygon fill="white" stroke="black" points="1034,-0.5 1034,-19.5 1186,-19.5 1186,-0.5 1034,-0.5"/>
<text text-anchor="middle" x="1110" y="-7.5" font-family="Ubuntu-R" font-size="10.00">forcebalance.nifty.floatornan</text>
</a>
</g>
<!-- Node9&#45;&gt;Node10 -->
<g id="edge20" class="edge"><title>Node9&#45;&gt;Node10</title>
<path fill="none" stroke="midnightblue" d="M997.537,-22.033C1006,-21.1195 1014.77,-20.1723 1023.51,-19.2287"/>
<polygon fill="midnightblue" stroke="midnightblue" points="1024.17,-22.6781 1033.74,-18.1249 1023.42,-15.7185 1024.17,-22.6781"/>
</g>
<!-- Node11 -->
<g id="node22" class="node"><title>Node11</title>
<a xlink:href="namespaceforcebalance_1_1nifty.html#a6c9727360cdff8f3011a12cc54d0e86e" target="_top" xlink:title="Given any list, array, or matrix, return a 1&#45;row matrix. ">
<polygon fill="white" stroke="black" points="1238.5,-0.5 1238.5,-19.5 1357.5,-19.5 1357.5,-0.5 1238.5,-0.5"/>
<text text-anchor="middle" x="1298" y="-7.5" font-family="Ubuntu-R" font-size="10.00">forcebalance.nifty.row</text>
</a>
</g>
<!-- Node10&#45;&gt;Node11 -->
<g id="edge22" class="edge"><title>Node10&#45;&gt;Node11</title>
<path fill="none" stroke="midnightblue" d="M1186.12,-10C1200.02,-10 1214.47,-10 1228.17,-10"/>
<polygon fill="midnightblue" stroke="midnightblue" points="1228.48,-13.5001 1238.48,-10 1228.48,-6.5001 1228.48,-13.5001"/>
</g>
<!-- Node12 -->
<g id="node24" class="node"><title>Node12</title>
<a xlink:href="namespaceforcebalance_1_1nifty.html#a7676236002c6a65ea7d2e69a09923889" target="_top" xlink:title="Given two vectors vec1 and vec2, project out the component of vec1 that is along the vec2&#45;direction...">
<polygon fill="white" stroke="black" points="1410,-0.5 1410,-19.5 1578,-19.5 1578,-0.5 1410,-0.5"/>
<text text-anchor="middle" x="1494" y="-7.5" font-family="Ubuntu-R" font-size="10.00">forcebalance.nifty.orthogonalize</text>
</a>
</g>
<!-- Node11&#45;&gt;Node12 -->
<g id="edge24" class="edge"><title>Node11&#45;&gt;Node12</title>
<path fill="none" stroke="midnightblue" d="M1357.73,-10C1370.92,-10 1385.24,-10 1399.46,-10"/>
<polygon fill="midnightblue" stroke="midnightblue" points="1399.78,-13.5001 1409.78,-10 1399.78,-6.5001 1399.78,-13.5001"/>
</g>
<!-- Node14 -->
<g id="node28" class="node"><title>Node14</title>
<a xlink:href="namespaceforcebalance_1_1nifty.html#a52114ceee9d55f94d9aecb3e176de294" target="_top" xlink:title="Given any list, array, or matrix, return a single&#45;index array. ">
<polygon fill="white" stroke="black" points="1051,-38.5 1051,-57.5 1169,-57.5 1169,-38.5 1051,-38.5"/>
<text text-anchor="middle" x="1110" y="-45.5" font-family="Ubuntu-R" font-size="10.00">forcebalance.nifty.flat</text>
</a>
</g>
<!-- Node13&#45;&gt;Node14 -->
<g id="edge28" class="edge"><title>Node13&#45;&gt;Node14</title>
<path fill="none" stroke="midnightblue" d="M977.412,-76.411C1000.95,-71.3287 1030.06,-65.0446 1054.9,-59.6797"/>
<polygon fill="midnightblue" stroke="midnightblue" points="1055.87,-63.0518 1064.91,-57.5201 1054.39,-56.2094 1055.87,-63.0518"/>
</g>
<!-- Node15 -->
<g id="node30" class="node"><title>Node15</title>
<a xlink:href="namespaceforcebalance_1_1nifty.html#a4c82187e92dfeb8a159f4aa44b501c40" target="_top" xlink:title="Invert a matrix using singular value decomposition. ">
<polygon fill="white" stroke="black" points="1222,-76.5 1222,-95.5 1374,-95.5 1374,-76.5 1222,-76.5"/>
<text text-anchor="middle" x="1298" y="-83.5" font-family="Ubuntu-R" font-size="10.00">forcebalance.nifty.invert_svd</text>
</a>
</g>
<!-- Node14&#45;&gt;Node15 -->
<g id="edge30" class="edge"><title>Node14&#45;&gt;Node15</title>
<path fill="none" stroke="midnightblue" d="M1157.94,-57.589C1183.03,-62.7165 1214.12,-69.0672 1240.53,-74.4632"/>
<polygon fill="midnightblue" stroke="midnightblue" points="1239.9,-77.9074 1250.4,-76.4799 1241.3,-71.049 1239.9,-77.9074"/>
</g>
<!-- Node15&#45;&gt;Node4 -->
<g id="edge40" class="edge"><title>Node15&#45;&gt;Node4</title>
<path fill="none" stroke="midnightblue" d="M1356.68,-95.5144C1377.03,-98.8703 1400.15,-102.684 1421.5,-106.206"/>
<polygon fill="midnightblue" stroke="midnightblue" points="1421.05,-109.68 1431.49,-107.854 1422.19,-102.773 1421.05,-109.68"/>
</g>
<!-- Node15&#45;&gt;Node13 -->
<g id="edge38" class="edge"><title>Node15&#45;&gt;Node13</title>
<path fill="none" stroke="midnightblue" d="M1221.75,-86C1156.6,-86 1063.22,-86 1000.46,-86"/>
<polygon fill="midnightblue" stroke="midnightblue" points="1000.28,-82.5001 990.275,-86 1000.28,-89.5001 1000.28,-82.5001"/>
</g>
<!-- Node16 -->
<g id="node32" class="node"><title>Node16</title>
<a xlink:href="namespaceforcebalance_1_1nifty.html#aa9fb9c7c65231eca50a7afc04f489b64" target="_top" xlink:title="forcebalance.nifty.get\l_least_squares">
<polygon fill="white" stroke="black" points="1434.5,-49 1434.5,-79 1553.5,-79 1553.5,-49 1434.5,-49"/>
<text text-anchor="start" x="1442.5" y="-67" font-family="Ubuntu-R" font-size="10.00">forcebalance.nifty.get</text>
<text text-anchor="middle" x="1494" y="-56" font-family="Ubuntu-R" font-size="10.00">_least_squares</text>
</a>
</g>
<!-- Node15&#45;&gt;Node16 -->
<g id="edge32" class="edge"><title>Node15&#45;&gt;Node16</title>
<path fill="none" stroke="midnightblue" d="M1374.01,-77.4942C1390.61,-75.6117 1408.11,-73.6264 1424.44,-71.7748"/>
<polygon fill="midnightblue" stroke="midnightblue" points="1424.89,-75.2459 1434.44,-70.6413 1424.11,-68.2905 1424.89,-75.2459"/>
</g>
<!-- Node16&#45;&gt;Node14 -->
<g id="edge34" class="edge"><title>Node16&#45;&gt;Node14</title>
<path fill="none" stroke="midnightblue" d="M1434.44,-61.5471C1365.76,-58.6707 1252.1,-53.9101 1179.43,-50.8663"/>
<polygon fill="midnightblue" stroke="midnightblue" points="1179.16,-47.3517 1169.02,-50.4301 1178.86,-54.3456 1179.16,-47.3517"/>
</g>
<!-- Node17 -->
<g id="node35" class="node"><title>Node17</title>
<a xlink:href="namespaceforcebalance_1_1nifty.html#ad5ca60565c864b4245a8212fe9d92e10" target="_top" xlink:title="Compute the (cross) statistical inefficiency of (two) timeseries. ">
<polygon fill="white" stroke="black" points="1630.5,-49 1630.5,-79 1779.5,-79 1779.5,-49 1630.5,-49"/>
<text text-anchor="start" x="1638.5" y="-67" font-family="Ubuntu-R" font-size="10.00">forcebalance.nifty.statistical</text>
<text text-anchor="middle" x="1705" y="-56" font-family="Ubuntu-R" font-size="10.00">Inefficiency</text>
</a>
</g>
<!-- Node16&#45;&gt;Node17 -->
<g id="edge36" class="edge"><title>Node16&#45;&gt;Node17</title>
<path fill="none" stroke="midnightblue" d="M1553.77,-64C1574.4,-64 1597.99,-64 1620.26,-64"/>
<polygon fill="midnightblue" stroke="midnightblue" points="1620.39,-67.5001 1630.39,-64 1620.39,-60.5001 1620.39,-67.5001"/>
</g>
</g>
</svg>
