<?xml version="1.0" encoding="UTF-8" standalone="no"?>
<!DOCTYPE svg PUBLIC "-//W3C//DTD SVG 1.1//EN"
 "http://www.w3.org/Graphics/SVG/1.1/DTD/svg11.dtd">
<!-- Generated by graphviz version 2.40.1 (20161225.0304)
 -->
<!-- Title: src.liquid.Liquid.post_init Pages: 1 -->
<svg width="644pt" height="88pt"
 viewBox="0.00 0.00 644.00 88.00" xmlns="http://www.w3.org/2000/svg" xmlns:xlink="http://www.w3.org/1999/xlink">
<g id="graph0" class="graph" transform="scale(1 1) rotate(0) translate(4 84)">
<title>src.liquid.Liquid.post_init</title>
<polygon fill="#ffffff" stroke="transparent" points="-4,4 -4,-84 640,-84 640,4 -4,4"/>
<!-- Node72 -->
<g id="node1" class="node">
<title>Node72</title>
<polygon fill="#bfbfbf" stroke="#000000" points="0,-30 0,-49 138,-49 138,-30 0,-30"/>
<text text-anchor="middle" x="69" y="-37" font-family="Ubuntu-R" font-size="10.00" fill="#000000">src.liquid.Liquid.post_init</text>
</g>
<!-- Node73 -->
<g id="node2" class="node">
<title>Node73</title>
<g id="a_node2"><a xlink:href="classsrc_1_1lipid_1_1Lipid.html#a0571b5cf5b10a169eb7afee468dd3a61" target="_top" xlink:title="Prepare the temporary directory by copying in important files. ">
<polygon fill="#ffffff" stroke="#000000" points="180,-49.5 180,-79.5 302,-79.5 302,-49.5 180,-49.5"/>
<text text-anchor="start" x="188" y="-67.5" font-family="Ubuntu-R" font-size="10.00" fill="#000000">src.lipid.Lipid.prepare</text>
<text text-anchor="middle" x="241" y="-56.5" font-family="Ubuntu-R" font-size="10.00" fill="#000000">_temp_directory</text>
</a>
</g>
</g>
<!-- Node72&#45;&gt;Node73 -->
<g id="edge1" class="edge">
<title>Node72&#45;&gt;Node73</title>
<path fill="none" stroke="#191970" d="M134.5165,-49.0227C146.0445,-50.6983 158.0939,-52.4497 169.769,-54.1467"/>
<polygon fill="#191970" stroke="#191970" points="169.5105,-57.6458 179.91,-55.6206 170.5174,-50.7186 169.5105,-57.6458"/>
</g>
<!-- Node76 -->
<g id="node5" class="node">
<title>Node76</title>
<g id="a_node5"><a xlink:href="classsrc_1_1liquid_1_1Liquid.html#a8655401dad963220060fd4dbd4b2c39a" target="_top" xlink:title="Prepare the temporary directory by copying in important files. ">
<polygon fill="#ffffff" stroke="#000000" points="174,-.5 174,-30.5 308,-30.5 308,-.5 174,-.5"/>
<text text-anchor="start" x="182" y="-18.5" font-family="Ubuntu-R" font-size="10.00" fill="#000000">src.liquid.Liquid.prepare</text>
<text text-anchor="middle" x="241" y="-7.5" font-family="Ubuntu-R" font-size="10.00" fill="#000000">_temp_directory</text>
</a>
</g>
</g>
<!-- Node72&#45;&gt;Node76 -->
<g id="edge4" class="edge">
<title>Node72&#45;&gt;Node76</title>
<path fill="none" stroke="#191970" d="M137.4732,-29.9456C146.0919,-28.743 154.956,-27.5061 163.6988,-26.2862"/>
<polygon fill="#191970" stroke="#191970" points="164.4642,-29.7134 173.8846,-24.8649 163.4968,-22.7806 164.4642,-29.7134"/>
</g>
<!-- Node74 -->
<g id="node3" class="node">
<title>Node74</title>
<g id="a_node3"><a xlink:href="namespacesrc_1_1nifty.html#a7fd3a0edb0212c320360d7685227b0f5" target="_top" xlink:title="src.nifty.LinkFile">
<polygon fill="#ffffff" stroke="#000000" points="344,-30 344,-49 439,-49 439,-30 344,-30"/>
<text text-anchor="middle" x="391.5" y="-37" font-family="Ubuntu-R" font-size="10.00" fill="#000000">src.nifty.LinkFile</text>
</a>
</g>
</g>
<!-- Node73&#45;&gt;Node74 -->
<g id="edge2" class="edge">
<title>Node73&#45;&gt;Node74</title>
<path fill="none" stroke="#191970" d="M302.2141,-54.3315C312.5901,-52.608 323.3352,-50.8231 333.6222,-49.1143"/>
<polygon fill="#191970" stroke="#191970" points="334.4345,-52.5274 343.7258,-47.4359 333.2874,-45.622 334.4345,-52.5274"/>
</g>
<!-- Node75 -->
<g id="node4" class="node">
<title>Node75</title>
<g id="a_node4"><a xlink:href="namespacesrc_1_1nifty.html#a39a23ca3b83aadd4bfdf3eee9abb3257" target="_top" xlink:title="src.nifty.MissingFileInspection">
<polygon fill="#ffffff" stroke="#000000" points="475,-30 475,-49 636,-49 636,-30 475,-30"/>
<text text-anchor="middle" x="555.5" y="-37" font-family="Ubuntu-R" font-size="10.00" fill="#000000">src.nifty.MissingFileInspection</text>
</a>
</g>
</g>
<!-- Node74&#45;&gt;Node75 -->
<g id="edge3" class="edge">
<title>Node74&#45;&gt;Node75</title>
<path fill="none" stroke="#191970" d="M439.3765,-39.5C447.395,-39.5 455.9434,-39.5 464.6262,-39.5"/>
<polygon fill="#191970" stroke="#191970" points="464.8569,-43.0001 474.8569,-39.5 464.8569,-36.0001 464.8569,-43.0001"/>
</g>
<!-- Node76&#45;&gt;Node74 -->
<g id="edge5" class="edge">
<title>Node76&#45;&gt;Node74</title>
<path fill="none" stroke="#191970" d="M308.3266,-26.2365C316.784,-27.5852 325.3765,-28.9554 333.6702,-30.278"/>
<polygon fill="#191970" stroke="#191970" points="333.183,-33.7444 343.6094,-31.863 334.2854,-26.8318 333.183,-33.7444"/>
</g>
</g>
</svg>
