<?xml version="1.0" encoding="UTF-8" standalone="no"?>
<!DOCTYPE svg PUBLIC "-//W3C//DTD SVG 1.1//EN"
 "http://www.w3.org/Graphics/SVG/1.1/DTD/svg11.dtd">
<!-- Generated by graphviz version 2.32.0 (20130801.1845)
 -->
<!-- Title: forcebalance.amberio.FrcMod_Reader.Whites Pages: 1 -->
<svg width="280pt" height="91pt"
 viewBox="0.00 0.00 280.00 91.00" xmlns="http://www.w3.org/2000/svg" xmlns:xlink="http://www.w3.org/1999/xlink">
<g id="graph0" class="graph" transform="scale(1 1) rotate(0) translate(4 87)">
<title>forcebalance.amberio.FrcMod_Reader.Whites</title>
<polygon fill="white" stroke="white" points="-4,5 -4,-87 277,-87 277,5 -4,5"/>
<!-- Node1 -->
<g id="node1" class="node"><title>Node1</title>
<polygon fill="#bfbfbf" stroke="black" points="-0.0815,-0 -0.0815,-32 118.082,-32 118.082,-0 -0.0815,-0"/>
<text text-anchor="start" x="7.9185" y="-19" font-family="Ubuntu-R" font-size="10.00">forcebalance.amberio.Frc</text>
<text text-anchor="middle" x="59" y="-7" font-family="Ubuntu-R" font-size="10.00">Mod_Reader.Whites</text>
</g>
<!-- Node2 -->
<g id="node2" class="node"><title>Node2</title>
<g id="a_node2"><a xlink:href="classforcebalance_1_1amberio_1_1FrcMod__Reader.html#a689bb40a107f763472b15175be6f0f12" target="_top" xlink:title="forcebalance.amberio.Frc\lMod_Reader.feed">
<polygon fill="white" stroke="black" points="153.918,-51 153.918,-83 272.082,-83 272.082,-51 153.918,-51"/>
<text text-anchor="start" x="161.918" y="-70" font-family="Ubuntu-R" font-size="10.00">forcebalance.amberio.Frc</text>
<text text-anchor="middle" x="213" y="-58" font-family="Ubuntu-R" font-size="10.00">Mod_Reader.feed</text>
</a>
</g>
</g>
<!-- Node1&#45;&gt;Node2 -->
<g id="edge1" class="edge"><title>Node1&#45;&gt;Node2</title>
<path fill="none" stroke="midnightblue" d="M108.094,-32.1367C122.791,-37.0681 139.106,-42.542 154.369,-47.6631"/>
<polygon fill="midnightblue" stroke="midnightblue" points="153.625,-51.1054 164.219,-50.9683 155.852,-44.469 153.625,-51.1054"/>
</g>
<!-- Node3 -->
<g id="node3" class="node"><title>Node3</title>
<g id="a_node3"><a xlink:href="classforcebalance_1_1amberio_1_1FrcMod__Reader.html#ac1234e56581721ab2da13eefaa8560f0" target="_top" xlink:title="forcebalance.amberio.Frc\lMod_Reader.Split">
<polygon fill="white" stroke="black" points="153.918,-0 153.918,-32 272.082,-32 272.082,-0 153.918,-0"/>
<text text-anchor="start" x="161.918" y="-19" font-family="Ubuntu-R" font-size="10.00">forcebalance.amberio.Frc</text>
<text text-anchor="middle" x="213" y="-7" font-family="Ubuntu-R" font-size="10.00">Mod_Reader.Split</text>
</a>
</g>
</g>
<!-- Node1&#45;&gt;Node3 -->
<g id="edge2" class="edge"><title>Node1&#45;&gt;Node3</title>
<path fill="none" stroke="midnightblue" d="M118.332,-9.41479C126.606,-9.25788 135.175,-9.21302 143.617,-9.28022"/>
<polygon fill="midnightblue" stroke="midnightblue" points="143.777,-12.7826 153.824,-9.41777 143.872,-5.78324 143.777,-12.7826"/>
</g>
<!-- Node3&#45;&gt;Node1 -->
<g id="edge3" class="edge"><title>Node3&#45;&gt;Node1</title>
<path fill="none" stroke="midnightblue" d="M153.824,-22.5822C145.554,-22.7406 136.986,-22.7868 128.542,-22.721"/>
<polygon fill="midnightblue" stroke="midnightblue" points="128.378,-19.2186 118.332,-22.5852 128.285,-26.218 128.378,-19.2186"/>
</g>
</g>
</svg>
