<?xml version="1.0" encoding="UTF-8" standalone="no"?>
<!DOCTYPE svg PUBLIC "-//W3C//DTD SVG 1.1//EN"
 "http://www.w3.org/Graphics/SVG/1.1/DTD/svg11.dtd">
<!-- Generated by graphviz version 2.32.0 (20130801.1845)
 -->
<!-- Title: forcebalance.Mol2.mol2.set_donnor_acceptor_atoms Pages: 1 -->
<svg width="290pt" height="40pt"
 viewBox="0.00 0.00 290.00 40.00" xmlns="http://www.w3.org/2000/svg" xmlns:xlink="http://www.w3.org/1999/xlink">
<g id="graph0" class="graph" transform="scale(1 1) rotate(0) translate(4 36)">
<title>forcebalance.Mol2.mol2.set_donnor_acceptor_atoms</title>
<polygon fill="white" stroke="white" points="-4,5 -4,-36 287,-36 287,5 -4,5"/>
<!-- Node1 -->
<g id="node1" class="node"><title>Node1</title>
<polygon fill="#bfbfbf" stroke="black" points="0.048,-0 0.048,-32 127.952,-32 127.952,-0 0.048,-0"/>
<text text-anchor="start" x="8.048" y="-19" font-family="Ubuntu-R" font-size="10.00">forcebalance.Mol2.mol2.set</text>
<text text-anchor="middle" x="64" y="-7" font-family="Ubuntu-R" font-size="10.00">_donnor_acceptor_atoms</text>
</g>
<!-- Node2 -->
<g id="node2" class="node"><title>Node2</title>
<g id="a_node2"><a xlink:href="classforcebalance_1_1Mol2_1_1mol2.html#ad2182f9984dda90dfbd036d70921d5d8" target="_top" xlink:title="forcebalance.Mol2.mol2.\l__init__">
<polygon fill="white" stroke="black" points="164.601,-0 164.601,-32 281.399,-32 281.399,-0 164.601,-0"/>
<text text-anchor="start" x="172.601" y="-19" font-family="Ubuntu-R" font-size="10.00">forcebalance.Mol2.mol2.</text>
<text text-anchor="middle" x="223" y="-7" font-family="Ubuntu-R" font-size="10.00">__init__</text>
</a>
</g>
</g>
<!-- Node1&#45;&gt;Node2 -->
<g id="edge1" class="edge"><title>Node1&#45;&gt;Node2</title>
<path fill="none" stroke="midnightblue" d="M127.953,-16C136.599,-16 145.507,-16 154.234,-16"/>
<polygon fill="midnightblue" stroke="midnightblue" points="154.37,-19.5001 164.37,-16 154.37,-12.5001 154.37,-19.5001"/>
</g>
</g>
</svg>
