<?xml version="1.0" encoding="UTF-8" standalone="no"?>
<!DOCTYPE svg PUBLIC "-//W3C//DTD SVG 1.1//EN"
 "http://www.w3.org/Graphics/SVG/1.1/DTD/svg11.dtd">
<!-- Generated by graphviz version 2.28.0 (20111219.2309)
 -->
<!-- Title: G Pages: 1 -->
<svg width="4726pt" height="236pt"
 viewBox="0.00 0.00 4726.00 236.00" xmlns="http://www.w3.org/2000/svg" xmlns:xlink="http://www.w3.org/1999/xlink">
<g id="graph1" class="graph" transform="scale(1 1) rotate(0) translate(4 232)">
<title>G</title>
<polygon fill="white" stroke="white" points="-4,5 -4,-232 4723,-232 4723,5 -4,5"/>
<!-- Node1 -->
<g id="node1" class="node"><title>Node1</title>
<polygon fill="#bfbfbf" stroke="black" points="0.5,-113.5 0.5,-132.5 337.5,-132.5 337.5,-113.5 0.5,-113.5"/>
<text text-anchor="middle" x="169" y="-120.5" font-family="Ubuntu-R" font-size="10.00">forcebalance.openmmio.AbInitio_OpenMM.prepare_temp_directory</text>
</g>
<!-- Node2 -->
<g id="node3" class="node"><title>Node2</title>
<a xlink:href="classforcebalance_1_1openmmio_1_1AbInitio__OpenMM.html#a3aa19af835cfad23b245025adb036bb3" target="_top" xlink:title="Loop through the snapshots and compute the energies and forces using OpenMM.">
<polygon fill="white" stroke="black" points="374,-113.5 374,-132.5 752,-132.5 752,-113.5 374,-113.5"/>
<text text-anchor="middle" x="563" y="-120.5" font-family="Ubuntu-R" font-size="10.00">forcebalance.openmmio.AbInitio_OpenMM.energy_force_driver_all_internal_</text>
</a>
</g>
<!-- Node1&#45;&gt;Node2 -->
<g id="edge2" class="edge"><title>Node1&#45;&gt;Node2</title>
<path fill="none" stroke="midnightblue" d="M337.665,-123C346.259,-123 354.927,-123 363.602,-123"/>
<polygon fill="midnightblue" stroke="midnightblue" points="363.784,-126.5 373.784,-123 363.784,-119.5 363.784,-126.5"/>
</g>
<!-- Node2&#45;&gt;Node2 -->
<g id="edge36" class="edge"><title>Node2&#45;&gt;Node2</title>
<path fill="none" stroke="midnightblue" d="M502.765,-132.612C472.509,-141.461 492.588,-151 563,-151 624.061,-151 647.269,-143.827 632.627,-136.15"/>
<polygon fill="midnightblue" stroke="midnightblue" points="633.827,-132.863 623.235,-132.612 631.359,-139.413 633.827,-132.863"/>
</g>
<!-- Node3 -->
<g id="node5" class="node"><title>Node3</title>
<a xlink:href="namespaceforcebalance_1_1openmmio.html#a9f9fc56475dbfcc94a40fef6a84ed25f" target="_top" xlink:title="forcebalance.openmmio.UpdateSimulationParameters">
<polygon fill="white" stroke="black" points="840,-208.5 840,-227.5 1118,-227.5 1118,-208.5 840,-208.5"/>
<text text-anchor="middle" x="979" y="-215.5" font-family="Ubuntu-R" font-size="10.00">forcebalance.openmmio.UpdateSimulationParameters</text>
</a>
</g>
<!-- Node2&#45;&gt;Node3 -->
<g id="edge4" class="edge"><title>Node2&#45;&gt;Node3</title>
<path fill="none" stroke="midnightblue" d="M586.411,-132.515C626.201,-148.972 712.145,-182.564 788,-199 802.817,-202.211 818.403,-204.88 834.011,-207.1"/>
<polygon fill="midnightblue" stroke="midnightblue" points="833.883,-210.615 844.264,-208.495 834.827,-203.679 833.883,-210.615"/>
</g>
<!-- Node5 -->
<g id="node9" class="node"><title>Node5</title>
<a xlink:href="namespaceforcebalance_1_1openmmio.html#af623fa5af97de6c6a0bc5f98ce8db432" target="_top" xlink:title="Given a set of OpenMM&#45;compatible positions and a System object, compute the correct virtual site posi...">
<polygon fill="white" stroke="black" points="870.5,-170.5 870.5,-189.5 1087.5,-189.5 1087.5,-170.5 870.5,-170.5"/>
<text text-anchor="middle" x="979" y="-177.5" font-family="Ubuntu-R" font-size="10.00">forcebalance.openmmio.ResetVirtualSites</text>
</a>
</g>
<!-- Node2&#45;&gt;Node5 -->
<g id="edge8" class="edge"><title>Node2&#45;&gt;Node5</title>
<path fill="none" stroke="midnightblue" d="M614.115,-132.511C659.414,-140.867 727.994,-152.92 788,-161 811.285,-164.136 836.241,-166.991 860.156,-169.482"/>
<polygon fill="midnightblue" stroke="midnightblue" points="860.029,-172.987 870.334,-170.527 860.744,-166.024 860.029,-172.987"/>
</g>
<!-- Node17 -->
<g id="node33" class="node"><title>Node17</title>
<a xlink:href="classforcebalance_1_1openmmio_1_1AbInitio__OpenMM.html#a0673b350bb0638307875d1a4d153bf34" target="_top" xlink:title="forcebalance.openmmio.AbInitio_OpenMM.energy_force_driver_all">
<polygon fill="white" stroke="black" points="813,-132.5 813,-151.5 1145,-151.5 1145,-132.5 813,-132.5"/>
<text text-anchor="middle" x="979" y="-139.5" font-family="Ubuntu-R" font-size="10.00">forcebalance.openmmio.AbInitio_OpenMM.energy_force_driver_all</text>
</a>
</g>
<!-- Node2&#45;&gt;Node17 -->
<g id="edge32" class="edge"><title>Node2&#45;&gt;Node17</title>
<path fill="none" stroke="midnightblue" d="M752.223,-131.638C768.939,-132.405 785.82,-133.18 802.424,-133.942"/>
<polygon fill="midnightblue" stroke="midnightblue" points="802.573,-137.453 812.723,-134.415 802.894,-130.46 802.573,-137.453"/>
</g>
<!-- Node19 -->
<g id="node38" class="node"><title>Node19</title>
<a xlink:href="namespaceforcebalance_1_1nifty.html#abb8f59044961a12588e0653c2baa8b01" target="_top" xlink:title="forcebalance.nifty.warn_press_key">
<polygon fill="white" stroke="black" points="889.5,-94.5 889.5,-113.5 1068.5,-113.5 1068.5,-94.5 889.5,-94.5"/>
<text text-anchor="middle" x="979" y="-101.5" font-family="Ubuntu-R" font-size="10.00">forcebalance.nifty.warn_press_key</text>
</a>
</g>
<!-- Node2&#45;&gt;Node19 -->
<g id="edge38" class="edge"><title>Node2&#45;&gt;Node19</title>
<path fill="none" stroke="midnightblue" d="M752.223,-114.362C796.145,-112.346 841.204,-110.278 879.402,-108.525"/>
<polygon fill="midnightblue" stroke="midnightblue" points="879.643,-112.018 889.472,-108.063 879.322,-105.025 879.643,-112.018"/>
</g>
<!-- Node21 -->
<g id="node42" class="node"><title>Node21</title>
<a xlink:href="classforcebalance_1_1amberio_1_1AbInitio__AMBER.html#ad0fcc43d857471ee074361076c040ea5" target="_top" xlink:title="forcebalance.amberio.AbInitio_AMBER.energy_force_driver_all_external_">
<polygon fill="white" stroke="black" points="798.5,-38.5 798.5,-57.5 1159.5,-57.5 1159.5,-38.5 798.5,-38.5"/>
<text text-anchor="middle" x="979" y="-45.5" font-family="Ubuntu-R" font-size="10.00">forcebalance.amberio.AbInitio_AMBER.energy_force_driver_all_external_</text>
</a>
</g>
<!-- Node2&#45;&gt;Node21 -->
<g id="edge42" class="edge"><title>Node2&#45;&gt;Node21</title>
<path fill="none" stroke="midnightblue" d="M616.854,-113.425C693.156,-99.6022 833.922,-74.1011 915.348,-59.3499"/>
<polygon fill="midnightblue" stroke="midnightblue" points="916.245,-62.7446 925.461,-57.518 914.997,-55.8567 916.245,-62.7446"/>
</g>
<!-- Node24 -->
<g id="node49" class="node"><title>Node24</title>
<a xlink:href="classforcebalance_1_1openmmio_1_1AbInitio__OpenMM.html#a665d40a34e6c4f8eb8af0faeff9aa3cb" target="_top" xlink:title="forcebalance.openmmio.AbInitio_OpenMM.energy_force_driver_all_external_">
<polygon fill="white" stroke="black" points="788.5,-0.5 788.5,-19.5 1169.5,-19.5 1169.5,-0.5 788.5,-0.5"/>
<text text-anchor="middle" x="979" y="-7.5" font-family="Ubuntu-R" font-size="10.00">forcebalance.openmmio.AbInitio_OpenMM.energy_force_driver_all_external_</text>
</a>
</g>
<!-- Node2&#45;&gt;Node24 -->
<g id="edge50" class="edge"><title>Node2&#45;&gt;Node24</title>
<path fill="none" stroke="midnightblue" d="M581.659,-113.43C618.685,-93.8571 707.673,-49.3822 788,-29 800.227,-25.8976 813.016,-23.2977 825.931,-21.1195"/>
<polygon fill="midnightblue" stroke="midnightblue" points="826.504,-24.5724 835.825,-19.5346 825.397,-17.6605 826.504,-24.5724"/>
</g>
<!-- Node4 -->
<g id="node7" class="node"><title>Node4</title>
<a xlink:href="namespaceforcebalance_1_1openmmio.html#aa085594c11e9cd00ce71f5a8ead72b68" target="_top" xlink:title="Create a multiple timestep velocity verlet with velocity randomization (VVVR) integrator.">
<polygon fill="white" stroke="black" points="1247,-208.5 1247,-227.5 1477,-227.5 1477,-208.5 1247,-208.5"/>
<text text-anchor="middle" x="1362" y="-215.5" font-family="Ubuntu-R" font-size="10.00">forcebalance.openmmio.MTSVVVRIntegrator</text>
</a>
</g>
<!-- Node3&#45;&gt;Node4 -->
<g id="edge6" class="edge"><title>Node3&#45;&gt;Node4</title>
<path fill="none" stroke="midnightblue" d="M1118.09,-218C1156.89,-218 1198.84,-218 1236.79,-218"/>
<polygon fill="midnightblue" stroke="midnightblue" points="1236.86,-221.5 1246.86,-218 1236.86,-214.5 1236.86,-221.5"/>
</g>
<!-- Node6 -->
<g id="node11" class="node"><title>Node6</title>
<a xlink:href="namespaceforcebalance_1_1openmmio.html#a792a195b31612f2140b35927fe28fa1a" target="_top" xlink:title="forcebalance.openmmio.CopyAmoebaBondParameters">
<polygon fill="white" stroke="black" points="1221.5,-170.5 1221.5,-189.5 1502.5,-189.5 1502.5,-170.5 1221.5,-170.5"/>
<text text-anchor="middle" x="1362" y="-177.5" font-family="Ubuntu-R" font-size="10.00">forcebalance.openmmio.CopyAmoebaBondParameters</text>
</a>
</g>
<!-- Node5&#45;&gt;Node6 -->
<g id="edge10" class="edge"><title>Node5&#45;&gt;Node6</title>
<path fill="none" stroke="midnightblue" d="M1087.65,-180C1125.97,-180 1169.85,-180 1211.06,-180"/>
<polygon fill="midnightblue" stroke="midnightblue" points="1211.2,-183.5 1221.2,-180 1211.2,-176.5 1211.2,-183.5"/>
</g>
<!-- Node7 -->
<g id="node13" class="node"><title>Node7</title>
<a xlink:href="namespaceforcebalance_1_1openmmio.html#a2e95f600757655d41660c25af8fd8e80" target="_top" xlink:title="forcebalance.openmmio.CopyAmoebaOutOfPlaneBendParameters">
<polygon fill="white" stroke="black" points="1554.5,-170.5 1554.5,-189.5 1889.5,-189.5 1889.5,-170.5 1554.5,-170.5"/>
<text text-anchor="middle" x="1722" y="-177.5" font-family="Ubuntu-R" font-size="10.00">forcebalance.openmmio.CopyAmoebaOutOfPlaneBendParameters</text>
</a>
</g>
<!-- Node6&#45;&gt;Node7 -->
<g id="edge12" class="edge"><title>Node6&#45;&gt;Node7</title>
<path fill="none" stroke="midnightblue" d="M1502.69,-180C1516.35,-180 1530.33,-180 1544.29,-180"/>
<polygon fill="midnightblue" stroke="midnightblue" points="1544.45,-183.5 1554.45,-180 1544.45,-176.5 1544.45,-183.5"/>
</g>
<!-- Node8 -->
<g id="node15" class="node"><title>Node8</title>
<a xlink:href="namespaceforcebalance_1_1openmmio.html#abe9a6b9b200dc8487e56dad7249af3ec" target="_top" xlink:title="forcebalance.openmmio.CopyAmoebaAngleParameters">
<polygon fill="white" stroke="black" points="1926.5,-170.5 1926.5,-189.5 2209.5,-189.5 2209.5,-170.5 1926.5,-170.5"/>
<text text-anchor="middle" x="2068" y="-177.5" font-family="Ubuntu-R" font-size="10.00">forcebalance.openmmio.CopyAmoebaAngleParameters</text>
</a>
</g>
<!-- Node7&#45;&gt;Node8 -->
<g id="edge14" class="edge"><title>Node7&#45;&gt;Node8</title>
<path fill="none" stroke="midnightblue" d="M1889.71,-180C1898.52,-180 1907.34,-180 1916.09,-180"/>
<polygon fill="midnightblue" stroke="midnightblue" points="1916.32,-183.5 1926.32,-180 1916.32,-176.5 1916.32,-183.5"/>
</g>
<!-- Node9 -->
<g id="node17" class="node"><title>Node9</title>
<a xlink:href="namespaceforcebalance_1_1openmmio.html#ad0d4739f80f2aab1a861f2e03b8efcd6" target="_top" xlink:title="forcebalance.openmmio.CopyAmoebaInPlaneAngleParameters">
<polygon fill="white" stroke="black" points="2246.5,-170.5 2246.5,-189.5 2563.5,-189.5 2563.5,-170.5 2246.5,-170.5"/>
<text text-anchor="middle" x="2405" y="-177.5" font-family="Ubuntu-R" font-size="10.00">forcebalance.openmmio.CopyAmoebaInPlaneAngleParameters</text>
</a>
</g>
<!-- Node8&#45;&gt;Node9 -->
<g id="edge16" class="edge"><title>Node8&#45;&gt;Node9</title>
<path fill="none" stroke="midnightblue" d="M2209.61,-180C2218.46,-180 2227.41,-180 2236.36,-180"/>
<polygon fill="midnightblue" stroke="midnightblue" points="2236.46,-183.5 2246.46,-180 2236.46,-176.5 2236.46,-183.5"/>
</g>
<!-- Node10 -->
<g id="node19" class="node"><title>Node10</title>
<a xlink:href="namespaceforcebalance_1_1openmmio.html#abe005f73c6dfe9ce1052c9434bcad9be" target="_top" xlink:title="forcebalance.openmmio.CopyAmoebaVdwParameters">
<polygon fill="white" stroke="black" points="2600.5,-170.5 2600.5,-189.5 2875.5,-189.5 2875.5,-170.5 2600.5,-170.5"/>
<text text-anchor="middle" x="2738" y="-177.5" font-family="Ubuntu-R" font-size="10.00">forcebalance.openmmio.CopyAmoebaVdwParameters</text>
</a>
</g>
<!-- Node9&#45;&gt;Node10 -->
<g id="edge18" class="edge"><title>Node9&#45;&gt;Node10</title>
<path fill="none" stroke="midnightblue" d="M2563.74,-180C2572.48,-180 2581.25,-180 2589.94,-180"/>
<polygon fill="midnightblue" stroke="midnightblue" points="2590.11,-183.5 2600.11,-180 2590.11,-176.5 2590.11,-183.5"/>
</g>
<!-- Node11 -->
<g id="node21" class="node"><title>Node11</title>
<a xlink:href="namespaceforcebalance_1_1openmmio.html#a3706c19e71969cabe5782a4535abeffe" target="_top" xlink:title="forcebalance.openmmio.CopyAmoebaMultipoleParameters">
<polygon fill="white" stroke="black" points="2912.5,-170.5 2912.5,-189.5 3211.5,-189.5 3211.5,-170.5 2912.5,-170.5"/>
<text text-anchor="middle" x="3062" y="-177.5" font-family="Ubuntu-R" font-size="10.00">forcebalance.openmmio.CopyAmoebaMultipoleParameters</text>
</a>
</g>
<!-- Node10&#45;&gt;Node11 -->
<g id="edge20" class="edge"><title>Node10&#45;&gt;Node11</title>
<path fill="none" stroke="midnightblue" d="M2875.56,-180C2884.4,-180 2893.34,-180 2902.28,-180"/>
<polygon fill="midnightblue" stroke="midnightblue" points="2902.35,-183.5 2912.35,-180 2902.35,-176.5 2902.35,-183.5"/>
</g>
<!-- Node12 -->
<g id="node23" class="node"><title>Node12</title>
<a xlink:href="namespaceforcebalance_1_1openmmio.html#a616f12cc53381716e5fa41f00bf623be" target="_top" xlink:title="forcebalance.openmmio.CopyHarmonicBondParameters">
<polygon fill="white" stroke="black" points="3248.5,-170.5 3248.5,-189.5 3535.5,-189.5 3535.5,-170.5 3248.5,-170.5"/>
<text text-anchor="middle" x="3392" y="-177.5" font-family="Ubuntu-R" font-size="10.00">forcebalance.openmmio.CopyHarmonicBondParameters</text>
</a>
</g>
<!-- Node11&#45;&gt;Node12 -->
<g id="edge22" class="edge"><title>Node11&#45;&gt;Node12</title>
<path fill="none" stroke="midnightblue" d="M3211.65,-180C3220.51,-180 3229.44,-180 3238.32,-180"/>
<polygon fill="midnightblue" stroke="midnightblue" points="3238.33,-183.5 3248.33,-180 3238.33,-176.5 3238.33,-183.5"/>
</g>
<!-- Node13 -->
<g id="node25" class="node"><title>Node13</title>
<a xlink:href="namespaceforcebalance_1_1openmmio.html#af4ed16f5e2b1cd12bce2f25fab1b05bc" target="_top" xlink:title="forcebalance.openmmio.CopyHarmonicAngleParameters">
<polygon fill="white" stroke="black" points="3572.5,-170.5 3572.5,-189.5 3861.5,-189.5 3861.5,-170.5 3572.5,-170.5"/>
<text text-anchor="middle" x="3717" y="-177.5" font-family="Ubuntu-R" font-size="10.00">forcebalance.openmmio.CopyHarmonicAngleParameters</text>
</a>
</g>
<!-- Node12&#45;&gt;Node13 -->
<g id="edge24" class="edge"><title>Node12&#45;&gt;Node13</title>
<path fill="none" stroke="midnightblue" d="M3535.61,-180C3544.45,-180 3553.37,-180 3562.26,-180"/>
<polygon fill="midnightblue" stroke="midnightblue" points="3562.27,-183.5 3572.27,-180 3562.27,-176.5 3562.27,-183.5"/>
</g>
<!-- Node14 -->
<g id="node27" class="node"><title>Node14</title>
<a xlink:href="namespaceforcebalance_1_1openmmio.html#a8f13702754f0b4e43e272139a2ce8341" target="_top" xlink:title="forcebalance.openmmio.CopyPeriodicTorsionParameters">
<polygon fill="white" stroke="black" points="3898,-170.5 3898,-189.5 4184,-189.5 4184,-170.5 3898,-170.5"/>
<text text-anchor="middle" x="4041" y="-177.5" font-family="Ubuntu-R" font-size="10.00">forcebalance.openmmio.CopyPeriodicTorsionParameters</text>
</a>
</g>
<!-- Node13&#45;&gt;Node14 -->
<g id="edge26" class="edge"><title>Node13&#45;&gt;Node14</title>
<path fill="none" stroke="midnightblue" d="M3861.58,-180C3870.26,-180 3879,-180 3887.72,-180"/>
<polygon fill="midnightblue" stroke="midnightblue" points="3887.92,-183.5 3897.92,-180 3887.92,-176.5 3887.92,-183.5"/>
</g>
<!-- Node15 -->
<g id="node29" class="node"><title>Node15</title>
<a xlink:href="namespaceforcebalance_1_1openmmio.html#afead47464a644d9225f9fa8eb568a8ed" target="_top" xlink:title="forcebalance.openmmio.CopyNonbondedParameters">
<polygon fill="white" stroke="black" points="4220.5,-170.5 4220.5,-189.5 4491.5,-189.5 4491.5,-170.5 4220.5,-170.5"/>
<text text-anchor="middle" x="4356" y="-177.5" font-family="Ubuntu-R" font-size="10.00">forcebalance.openmmio.CopyNonbondedParameters</text>
</a>
</g>
<!-- Node14&#45;&gt;Node15 -->
<g id="edge28" class="edge"><title>Node14&#45;&gt;Node15</title>
<path fill="none" stroke="midnightblue" d="M4184.3,-180C4192.89,-180 4201.54,-180 4210.14,-180"/>
<polygon fill="midnightblue" stroke="midnightblue" points="4210.21,-183.5 4220.21,-180 4210.21,-176.5 4210.21,-183.5"/>
</g>
<!-- Node16 -->
<g id="node31" class="node"><title>Node16</title>
<a xlink:href="namespaceforcebalance_1_1openmmio.html#a2bb7add6b813d94f2655372c51fe8fdc" target="_top" xlink:title="forcebalance.openmmio.do_nothing">
<polygon fill="white" stroke="black" points="4528.5,-170.5 4528.5,-189.5 4717.5,-189.5 4717.5,-170.5 4528.5,-170.5"/>
<text text-anchor="middle" x="4623" y="-177.5" font-family="Ubuntu-R" font-size="10.00">forcebalance.openmmio.do_nothing</text>
</a>
</g>
<!-- Node15&#45;&gt;Node16 -->
<g id="edge30" class="edge"><title>Node15&#45;&gt;Node16</title>
<path fill="none" stroke="midnightblue" d="M4491.83,-180C4500.65,-180 4509.46,-180 4518.1,-180"/>
<polygon fill="midnightblue" stroke="midnightblue" points="4518.15,-183.5 4528.15,-180 4518.15,-176.5 4518.15,-183.5"/>
</g>
<!-- Node18 -->
<g id="node35" class="node"><title>Node18</title>
<a xlink:href="classforcebalance_1_1openmmio_1_1AbInitio__OpenMM.html#af5fcee0c4321c7d3024868742a266f7a" target="_top" xlink:title="Initialization; define a few core concepts.">
<polygon fill="white" stroke="black" points="1233.5,-132.5 1233.5,-151.5 1490.5,-151.5 1490.5,-132.5 1233.5,-132.5"/>
<text text-anchor="middle" x="1362" y="-139.5" font-family="Ubuntu-R" font-size="10.00">forcebalance.openmmio.AbInitio_OpenMM.__init__</text>
</a>
</g>
<!-- Node17&#45;&gt;Node18 -->
<g id="edge34" class="edge"><title>Node17&#45;&gt;Node18</title>
<path fill="none" stroke="midnightblue" d="M1145.17,-142C1171.25,-142 1197.98,-142 1223.35,-142"/>
<polygon fill="midnightblue" stroke="midnightblue" points="1223.37,-145.5 1233.37,-142 1223.37,-138.5 1223.37,-145.5"/>
</g>
<!-- Node20 -->
<g id="node40" class="node"><title>Node20</title>
<a xlink:href="namespaceforcebalance_1_1nifty.html#a2fc81730e7efa7d138dd86f733507bfc" target="_top" xlink:title="Similar to the bultin function map().">
<polygon fill="white" stroke="black" points="1271,-94.5 1271,-113.5 1453,-113.5 1453,-94.5 1271,-94.5"/>
<text text-anchor="middle" x="1362" y="-101.5" font-family="Ubuntu-R" font-size="10.00">forcebalance.nifty.concurrent_map</text>
</a>
</g>
<!-- Node19&#45;&gt;Node20 -->
<g id="edge40" class="edge"><title>Node19&#45;&gt;Node20</title>
<path fill="none" stroke="midnightblue" d="M1068.85,-104C1126.22,-104 1200.98,-104 1260.52,-104"/>
<polygon fill="midnightblue" stroke="midnightblue" points="1260.69,-107.5 1270.69,-104 1260.69,-100.5 1260.69,-107.5"/>
</g>
<!-- Node21&#45;&gt;Node21 -->
<g id="edge48" class="edge"><title>Node21&#45;&gt;Node21</title>
<path fill="none" stroke="midnightblue" d="M920.599,-57.6119C891.265,-66.4613 910.732,-76 979,-76 1037.67,-76 1060.29,-68.9554 1046.88,-61.3577"/>
<polygon fill="midnightblue" stroke="midnightblue" points="1047.99,-58.0317 1037.4,-57.6119 1045.41,-64.5419 1047.99,-58.0317"/>
</g>
<!-- Node22 -->
<g id="node44" class="node"><title>Node22</title>
<a xlink:href="namespaceforcebalance_1_1molecule.html#afe989ffd119568047fc8265b1d329a70" target="_top" xlink:title="Matches ANY number; it can be a decimal, scientific notation, integer, or what have you...">
<polygon fill="white" stroke="black" points="1284,-47.5 1284,-66.5 1440,-66.5 1440,-47.5 1284,-47.5"/>
<text text-anchor="middle" x="1362" y="-54.5" font-family="Ubuntu-R" font-size="10.00">forcebalance.molecule.isfloat</text>
</a>
</g>
<!-- Node21&#45;&gt;Node22 -->
<g id="edge44" class="edge"><title>Node21&#45;&gt;Node22</title>
<path fill="none" stroke="midnightblue" d="M1159.62,-52.243C1199.29,-53.1802 1239.6,-54.1322 1273.62,-54.9358"/>
<polygon fill="midnightblue" stroke="midnightblue" points="1273.89,-58.4431 1283.97,-55.1803 1274.05,-51.445 1273.89,-58.4431"/>
</g>
<!-- Node23 -->
<g id="node46" class="node"><title>Node23</title>
<a xlink:href="classforcebalance_1_1amberio_1_1AbInitio__AMBER.html#a64ccf943e550392c654ec7bb6c6ff81b" target="_top" xlink:title="forcebalance.amberio.AbInitio_AMBER.energy_force_driver_all">
<polygon fill="white" stroke="black" points="1206.5,-9.5 1206.5,-28.5 1517.5,-28.5 1517.5,-9.5 1206.5,-9.5"/>
<text text-anchor="middle" x="1362" y="-16.5" font-family="Ubuntu-R" font-size="10.00">forcebalance.amberio.AbInitio_AMBER.energy_force_driver_all</text>
</a>
</g>
<!-- Node21&#45;&gt;Node23 -->
<g id="edge46" class="edge"><title>Node21&#45;&gt;Node23</title>
<path fill="none" stroke="midnightblue" d="M1105.02,-38.4842C1143.74,-35.5371 1186.56,-32.2772 1225.93,-29.2807"/>
<polygon fill="midnightblue" stroke="midnightblue" points="1226.42,-32.7535 1236.13,-28.5045 1225.89,-25.7737 1226.42,-32.7535"/>
</g>
</g>
</svg>
