<?xml version="1.0" encoding="UTF-8" standalone="no"?>
<!DOCTYPE svg PUBLIC "-//W3C//DTD SVG 1.1//EN"
 "http://www.w3.org/Graphics/SVG/1.1/DTD/svg11.dtd">
<!-- Generated by graphviz version 2.26.3 (20100126.1600)
 -->
<!-- Title: forcebalance.forcefield.FF.create_mvals Pages: 1 -->
<svg width="512pt" height="42pt"
 viewBox="0.00 0.00 512.00 42.00" xmlns="http://www.w3.org/2000/svg" xmlns:xlink="http://www.w3.org/1999/xlink">
<g id="graph1" class="graph" transform="scale(1 1) rotate(0) translate(4 38)">
<title>forcebalance.forcefield.FF.create_mvals</title>
<polygon fill="white" stroke="white" points="-4,5 -4,-38 509,-38 509,5 -4,5"/>
<!-- Node1 -->
<g id="node1" class="node"><title>Node1</title>
<polygon fill="#bfbfbf" stroke="black" points="0.5,-0 0.5,-34 127.5,-34 127.5,-0 0.5,-0"/>
<text text-anchor="start" x="8.5" y="-21" font-family="Ubuntu-R" font-size="10.00">forcebalance.forcefield.</text>
<text text-anchor="middle" x="64" y="-8" font-family="Ubuntu-R" font-size="10.00">FF.create_mvals</text>
</g>
<!-- Node2 -->
<g id="node3" class="node"><title>Node2</title>
<a xlink:href="namespaceforcebalance_1_1molecule.html#a0dd31eff88d2bed0884ab21a13261d42" target="_top" xlink:title="ONLY matches integers! If you have a decimal point? None shall pass!">
<polygon fill="white" stroke="black" points="164.5,-6.5 164.5,-27.5 311.5,-27.5 311.5,-6.5 164.5,-6.5"/>
<text text-anchor="middle" x="238" y="-14.5" font-family="Ubuntu-R" font-size="10.00">forcebalance.molecule.isint</text>
</a>
</g>
<!-- Node1&#45;&gt;Node2 -->
<g id="edge2" class="edge"><title>Node1&#45;&gt;Node2</title>
<path fill="none" stroke="midnightblue" d="M127.803,-17C136.471,-17 145.47,-17 154.421,-17"/>
<polygon fill="midnightblue" stroke="midnightblue" points="154.486,-20.5001 164.486,-17 154.486,-13.5001 154.486,-20.5001"/>
</g>
<!-- Node3 -->
<g id="node5" class="node"><title>Node3</title>
<a xlink:href="namespaceforcebalance_1_1molecule.html#afe989ffd119568047fc8265b1d329a70" target="_top" xlink:title="Matches ANY number; it can be a decimal, scientific notation, integer, or what have you...">
<polygon fill="white" stroke="black" points="348,-6.5 348,-27.5 504,-27.5 504,-6.5 348,-6.5"/>
<text text-anchor="middle" x="426" y="-14.5" font-family="Ubuntu-R" font-size="10.00">forcebalance.molecule.isfloat</text>
</a>
</g>
<!-- Node2&#45;&gt;Node3 -->
<g id="edge4" class="edge"><title>Node2&#45;&gt;Node3</title>
<path fill="none" stroke="midnightblue" d="M311.763,-17C320.266,-17 329.001,-17 337.671,-17"/>
<polygon fill="midnightblue" stroke="midnightblue" points="337.801,-20.5001 347.801,-17 337.801,-13.5001 337.801,-20.5001"/>
</g>
</g>
</svg>
