<?xml version="1.0" encoding="UTF-8" standalone="no"?>
<!DOCTYPE svg PUBLIC "-//W3C//DTD SVG 1.1//EN"
 "http://www.w3.org/Graphics/SVG/1.1/DTD/svg11.dtd">
<!-- Generated by graphviz version 2.32.0 (20130801.1845)
 -->
<!-- Title: forcebalance.amberio.AbInitio_AMBER.energy_force_driver_all_external_ Pages: 1 -->
<svg width="342pt" height="86pt"
 viewBox="0.00 0.00 342.00 86.00" xmlns="http://www.w3.org/2000/svg" xmlns:xlink="http://www.w3.org/1999/xlink">
<g id="graph0" class="graph" transform="scale(1 1) rotate(0) translate(4 82)">
<title>forcebalance.amberio.AbInitio_AMBER.energy_force_driver_all_external_</title>
<polygon fill="white" stroke="white" points="-4,5 -4,-82 339,-82 339,5 -4,5"/>
<!-- Node1 -->
<g id="node1" class="node"><title>Node1</title>
<polygon fill="#bfbfbf" stroke="black" points="0.663,-16 0.663,-60 141.337,-60 141.337,-16 0.663,-16"/>
<text text-anchor="start" x="8.663" y="-47" font-family="Ubuntu-R" font-size="10.00">forcebalance.amberio.AbInitio</text>
<text text-anchor="start" x="8.663" y="-35" font-family="Ubuntu-R" font-size="10.00">_AMBER.energy_force_driver</text>
<text text-anchor="middle" x="71" y="-23" font-family="Ubuntu-R" font-size="10.00">_all_external_</text>
</g>
<!-- Node1&#45;&gt;Node1 -->
<g id="edge3" class="edge"><title>Node1&#45;&gt;Node1</title>
<path fill="none" stroke="midnightblue" d="M36.9127,-60.2124C34.1219,-69.7952 45.4844,-78 71,-78 86.9473,-78 97.3659,-74.795 102.256,-70.0517"/>
<polygon fill="midnightblue" stroke="midnightblue" points="105.685,-70.7903 105.087,-60.2124 98.9584,-68.8545 105.685,-70.7903"/>
</g>
<!-- Node2 -->
<g id="node2" class="node"><title>Node2</title>
<g id="a_node2"><a xlink:href="namespaceforcebalance_1_1molecule.html#afe989ffd119568047fc8265b1d329a70" target="_top" xlink:title="Matches ANY number; it can be a decimal, scientific notation, integer, or what have you...">
<polygon fill="white" stroke="black" points="189.14,-51 189.14,-71 322.86,-71 322.86,-51 189.14,-51"/>
<text text-anchor="middle" x="256" y="-58" font-family="Ubuntu-R" font-size="10.00">forcebalance.molecule.isfloat</text>
</a>
</g>
</g>
<!-- Node1&#45;&gt;Node2 -->
<g id="edge1" class="edge"><title>Node1&#45;&gt;Node2</title>
<path fill="none" stroke="midnightblue" d="M141.445,-46.7281C153.61,-48.257 166.329,-49.8555 178.668,-51.4064"/>
<polygon fill="midnightblue" stroke="midnightblue" points="178.565,-54.9209 188.924,-52.6953 179.438,-47.9755 178.565,-54.9209"/>
</g>
<!-- Node3 -->
<g id="node3" class="node"><title>Node3</title>
<g id="a_node3"><a xlink:href="classforcebalance_1_1amberio_1_1AbInitio__AMBER.html#a64ccf943e550392c654ec7bb6c6ff81b" target="_top" xlink:title="forcebalance.amberio.AbInitio\l_AMBER.energy_force_driver_all">
<polygon fill="white" stroke="black" points="178.164,-0 178.164,-32 333.836,-32 333.836,-0 178.164,-0"/>
<text text-anchor="start" x="186.164" y="-19" font-family="Ubuntu-R" font-size="10.00">forcebalance.amberio.AbInitio</text>
<text text-anchor="middle" x="256" y="-7" font-family="Ubuntu-R" font-size="10.00">_AMBER.energy_force_driver_all</text>
</a>
</g>
</g>
<!-- Node1&#45;&gt;Node3 -->
<g id="edge2" class="edge"><title>Node1&#45;&gt;Node3</title>
<path fill="none" stroke="midnightblue" d="M141.445,-29.6514C150.114,-28.6092 159.064,-27.5333 167.957,-26.4642"/>
<polygon fill="midnightblue" stroke="midnightblue" points="168.445,-29.9308 177.956,-25.2621 167.61,-22.9808 168.445,-29.9308"/>
</g>
</g>
</svg>
