<?xml version="1.0" encoding="UTF-8" standalone="no"?>
<!DOCTYPE svg PUBLIC "-//W3C//DTD SVG 1.1//EN"
 "http://www.w3.org/Graphics/SVG/1.1/DTD/svg11.dtd">
<!-- Generated by graphviz version 2.28.0 (20111219.2309)
 -->
<!-- Title: G Pages: 1 -->
<svg width="1612pt" height="104pt"
 viewBox="0.00 0.00 1612.00 104.00" xmlns="http://www.w3.org/2000/svg" xmlns:xlink="http://www.w3.org/1999/xlink">
<g id="graph1" class="graph" transform="scale(1 1) rotate(0) translate(4 100)">
<title>G</title>
<polygon fill="white" stroke="white" points="-4,5 -4,-100 1609,-100 1609,5 -4,5"/>
<!-- Node1 -->
<g id="node1" class="node"><title>Node1</title>
<polygon fill="#bfbfbf" stroke="black" points="0.5,-57.5 0.5,-76.5 233.5,-76.5 233.5,-57.5 0.5,-57.5"/>
<text text-anchor="middle" x="117" y="-64.5" font-family="Ubuntu-R" font-size="10.00">forcebalance.gmxio.GMX.energy_force_driver</text>
</g>
<!-- Node2 -->
<g id="node3" class="node"><title>Node2</title>
<a xlink:href="classforcebalance_1_1gmxio_1_1GMX.html#a4e472c27d2c244c9ad6edb5b35f46a75" target="_top" xlink:title="Call GROMACS; prepend the gmxpath to the call to the GROMACS program.">
<polygon fill="white" stroke="black" points="595.5,-76.5 595.5,-95.5 770.5,-95.5 770.5,-76.5 595.5,-76.5"/>
<text text-anchor="middle" x="683" y="-83.5" font-family="Ubuntu-R" font-size="10.00">forcebalance.gmxio.GMX.callgmx</text>
</a>
</g>
<!-- Node1&#45;&gt;Node2 -->
<g id="edge2" class="edge"><title>Node1&#45;&gt;Node2</title>
<path fill="none" stroke="midnightblue" d="M233.836,-70.9023C337.517,-74.3951 487.78,-79.4571 585.193,-82.7388"/>
<polygon fill="midnightblue" stroke="midnightblue" points="585.22,-86.2416 595.332,-83.0803 585.455,-79.2455 585.22,-86.2416"/>
</g>
<!-- Node6 -->
<g id="node11" class="node"><title>Node6</title>
<a xlink:href="classforcebalance_1_1gmxio_1_1GMX.html#af253e5d8ea66628a0bc755339b488dcb" target="_top" xlink:title="Computes the energy and force using GROMACS over a trajectory.">
<polygon fill="white" stroke="black" points="270,-38.5 270,-57.5 518,-57.5 518,-38.5 270,-38.5"/>
<text text-anchor="middle" x="394" y="-45.5" font-family="Ubuntu-R" font-size="10.00">forcebalance.gmxio.GMX.energy_force_driver_all</text>
</a>
</g>
<!-- Node1&#45;&gt;Node6 -->
<g id="edge10" class="edge"><title>Node1&#45;&gt;Node6</title>
<path fill="none" stroke="midnightblue" d="M233.828,-58.9974C242.374,-58.4069 251.034,-57.8086 259.672,-57.2117"/>
<polygon fill="midnightblue" stroke="midnightblue" points="260.06,-60.6934 269.795,-56.5124 259.577,-53.71 260.06,-60.6934"/>
</g>
<!-- Node3 -->
<g id="node5" class="node"><title>Node3</title>
<a xlink:href="classforcebalance_1_1engine_1_1Engine.html#a2eab57877002b41dc3742f0c67f2f24e" target="_top" xlink:title="forcebalance.engine.Engine.prepare">
<polygon fill="white" stroke="black" points="848.5,-76.5 848.5,-95.5 1037.5,-95.5 1037.5,-76.5 848.5,-76.5"/>
<text text-anchor="middle" x="943" y="-83.5" font-family="Ubuntu-R" font-size="10.00">forcebalance.engine.Engine.prepare</text>
</a>
</g>
<!-- Node2&#45;&gt;Node3 -->
<g id="edge4" class="edge"><title>Node2&#45;&gt;Node3</title>
<path fill="none" stroke="midnightblue" d="M770.628,-86C792.209,-86 815.57,-86 837.897,-86"/>
<polygon fill="midnightblue" stroke="midnightblue" points="838.072,-89.5001 848.072,-86 838.072,-82.5001 838.072,-89.5001"/>
</g>
<!-- Node4 -->
<g id="node7" class="node"><title>Node4</title>
<a xlink:href="classforcebalance_1_1engine_1_1Engine.html#aceb1ac74d5f048dfbe620ceac7df8d32" target="_top" xlink:title="Evaluate properties over a collection of snapshots.">
<polygon fill="white" stroke="black" points="1074,-76.5 1074,-95.5 1322,-95.5 1322,-76.5 1074,-76.5"/>
<text text-anchor="middle" x="1198" y="-83.5" font-family="Ubuntu-R" font-size="10.00">forcebalance.engine.Engine.evaluate_snapshots</text>
</a>
</g>
<!-- Node3&#45;&gt;Node4 -->
<g id="edge6" class="edge"><title>Node3&#45;&gt;Node4</title>
<path fill="none" stroke="midnightblue" d="M1037.85,-86C1046.24,-86 1054.83,-86 1063.47,-86"/>
<polygon fill="midnightblue" stroke="midnightblue" points="1063.62,-89.5001 1073.62,-86 1063.62,-82.5001 1063.62,-89.5001"/>
</g>
<!-- Node5 -->
<g id="node9" class="node"><title>Node5</title>
<a xlink:href="classforcebalance_1_1engine_1_1Engine.html#a0e88d58a45ebff5a5d741290e3589ee6" target="_top" xlink:title="Evaluate properties on the optimized geometry.">
<polygon fill="white" stroke="black" points="1358.5,-76.5 1358.5,-95.5 1603.5,-95.5 1603.5,-76.5 1358.5,-76.5"/>
<text text-anchor="middle" x="1481" y="-83.5" font-family="Ubuntu-R" font-size="10.00">forcebalance.engine.Engine.evaluate_optimized</text>
</a>
</g>
<!-- Node4&#45;&gt;Node5 -->
<g id="edge8" class="edge"><title>Node4&#45;&gt;Node5</title>
<path fill="none" stroke="midnightblue" d="M1322.25,-86C1330.84,-86 1339.51,-86 1348.14,-86"/>
<polygon fill="midnightblue" stroke="midnightblue" points="1348.24,-89.5001 1358.24,-86 1348.24,-82.5001 1348.24,-89.5001"/>
</g>
<!-- Node6&#45;&gt;Node2 -->
<g id="edge18" class="edge"><title>Node6&#45;&gt;Node2</title>
<path fill="none" stroke="midnightblue" d="M467.052,-57.54C507.395,-62.8816 557.854,-69.5625 599.742,-75.1087"/>
<polygon fill="midnightblue" stroke="midnightblue" points="599.546,-78.6132 609.919,-76.4561 600.465,-71.6737 599.546,-78.6132"/>
</g>
<!-- Node7 -->
<g id="node13" class="node"><title>Node7</title>
<a xlink:href="classforcebalance_1_1gmxio_1_1GMX.html#aea0f6d954e7042b70221a55e600f89a5" target="_top" xlink:title="forcebalance.gmxio.GMX.generate_vsite_positions">
<polygon fill="white" stroke="black" points="554.5,-38.5 554.5,-57.5 811.5,-57.5 811.5,-38.5 554.5,-38.5"/>
<text text-anchor="middle" x="683" y="-45.5" font-family="Ubuntu-R" font-size="10.00">forcebalance.gmxio.GMX.generate_vsite_positions</text>
</a>
</g>
<!-- Node6&#45;&gt;Node7 -->
<g id="edge12" class="edge"><title>Node6&#45;&gt;Node7</title>
<path fill="none" stroke="midnightblue" d="M518.379,-48C526.897,-48 535.511,-48 544.098,-48"/>
<polygon fill="midnightblue" stroke="midnightblue" points="544.159,-51.5001 554.159,-48 544.159,-44.5001 544.159,-51.5001"/>
</g>
<!-- Node8 -->
<g id="node15" class="node"><title>Node8</title>
<a xlink:href="classforcebalance_1_1gmxio_1_1GMX.html#a4d5f9e8fb40a37a4c22551d2f30418f4" target="_top" xlink:title="forcebalance.gmxio.GMX.__init__">
<polygon fill="white" stroke="black" points="856.5,-38.5 856.5,-57.5 1029.5,-57.5 1029.5,-38.5 856.5,-38.5"/>
<text text-anchor="middle" x="943" y="-45.5" font-family="Ubuntu-R" font-size="10.00">forcebalance.gmxio.GMX.__init__</text>
</a>
</g>
<!-- Node7&#45;&gt;Node8 -->
<g id="edge14" class="edge"><title>Node7&#45;&gt;Node8</title>
<path fill="none" stroke="midnightblue" d="M811.866,-48C823.411,-48 834.967,-48 846.166,-48"/>
<polygon fill="midnightblue" stroke="midnightblue" points="846.34,-51.5001 856.34,-48 846.34,-44.5001 846.34,-51.5001"/>
</g>
<!-- Node9 -->
<g id="node17" class="node"><title>Node9</title>
<a xlink:href="classforcebalance_1_1BaseClass.html#a73e9a37a7632e79eb99f49bd15aced45" target="_top" xlink:title="forcebalance.BaseClass.set_option">
<polygon fill="white" stroke="black" points="851,-0.5 851,-19.5 1035,-19.5 1035,-0.5 851,-0.5"/>
<text text-anchor="middle" x="943" y="-7.5" font-family="Ubuntu-R" font-size="10.00">forcebalance.BaseClass.set_option</text>
</a>
</g>
<!-- Node7&#45;&gt;Node9 -->
<g id="edge16" class="edge"><title>Node7&#45;&gt;Node9</title>
<path fill="none" stroke="midnightblue" d="M748.771,-38.46C784.655,-33.1749 829.44,-26.5786 866.857,-21.0675"/>
<polygon fill="midnightblue" stroke="midnightblue" points="867.819,-24.4638 877.202,-19.5439 866.799,-17.5385 867.819,-24.4638"/>
</g>
</g>
</svg>
