<?xml version="1.0" encoding="UTF-8" standalone="no"?>
<!DOCTYPE svg PUBLIC "-//W3C//DTD SVG 1.1//EN"
 "http://www.w3.org/Graphics/SVG/1.1/DTD/svg11.dtd">
<!-- Generated by graphviz version 2.32.0 (20130801.1845)
 -->
<!-- Title: forcebalance.tinkerio.Interaction_TINKER Pages: 1 -->
<svg width="154pt" height="298pt"
 viewBox="0.00 0.00 154.00 298.00" xmlns="http://www.w3.org/2000/svg" xmlns:xlink="http://www.w3.org/1999/xlink">
<g id="graph0" class="graph" transform="scale(1 1) rotate(0) translate(4 294)">
<title>forcebalance.tinkerio.Interaction_TINKER</title>
<polygon fill="white" stroke="white" points="-4,5 -4,-294 151,-294 151,5 -4,5"/>
<!-- Node1 -->
<g id="node1" class="node"><title>Node1</title>
<polygon fill="#bfbfbf" stroke="black" points="-0.244,-1 -0.244,-33 146.244,-33 146.244,-1 -0.244,-1"/>
<text text-anchor="start" x="7.756" y="-20" font-family="Ubuntu-R" font-size="10.00">forcebalance.tinkerio.Interaction</text>
<text text-anchor="middle" x="73" y="-8" font-family="Ubuntu-R" font-size="10.00">_TINKER</text>
</g>
<!-- Node2 -->
<g id="node2" class="node"><title>Node2</title>
<g id="a_node2"><a xlink:href="classforcebalance_1_1interaction_1_1Interaction.html" target="_top" xlink:title="Subclass of Target for fitting force fields to interaction energies.">
<polygon fill="white" stroke="black" points="15.5835,-71 15.5835,-103 130.417,-103 130.417,-71 15.5835,-71"/>
<text text-anchor="start" x="23.5835" y="-90" font-family="Ubuntu-R" font-size="10.00">forcebalance.interaction.</text>
<text text-anchor="middle" x="73" y="-78" font-family="Ubuntu-R" font-size="10.00">Interaction</text>
</a>
</g>
</g>
<!-- Node2&#45;&gt;Node1 -->
<g id="edge1" class="edge"><title>Node2&#45;&gt;Node1</title>
<path fill="none" stroke="midnightblue" d="M73,-60.6174C73,-51.3378 73,-41.1413 73,-33.0492"/>
<polygon fill="midnightblue" stroke="midnightblue" points="69.5001,-60.9086 73,-70.9086 76.5001,-60.9086 69.5001,-60.9086"/>
</g>
<!-- Node3 -->
<g id="node3" class="node"><title>Node3</title>
<g id="a_node3"><a xlink:href="classforcebalance_1_1target_1_1Target.html" target="_top" xlink:title="Base class for all fitting targets.">
<polygon fill="white" stroke="black" points="12.5345,-141 12.5345,-161 133.466,-161 133.466,-141 12.5345,-141"/>
<text text-anchor="middle" x="73" y="-148" font-family="Ubuntu-R" font-size="10.00">forcebalance.target.Target</text>
</a>
</g>
</g>
<!-- Node3&#45;&gt;Node2 -->
<g id="edge2" class="edge"><title>Node3&#45;&gt;Node2</title>
<path fill="none" stroke="midnightblue" d="M73,-130.775C73,-121.986 73,-111.715 73,-103.44"/>
<polygon fill="midnightblue" stroke="midnightblue" points="69.5001,-130.852 73,-140.852 76.5001,-130.852 69.5001,-130.852"/>
</g>
<!-- Node4 -->
<g id="node4" class="node"><title>Node4</title>
<g id="a_node4"><a xlink:href="classforcebalance_1_1baseclass_1_1ForceBalanceBaseClass.html" target="_top" xlink:title="Provides some nifty functions that are common to all ForceBalance classes.">
<polygon fill="white" stroke="black" points="6.9805,-199 6.9805,-231 139.019,-231 139.019,-199 6.9805,-199"/>
<text text-anchor="start" x="14.9805" y="-218" font-family="Ubuntu-R" font-size="10.00">forcebalance.baseclass.Force</text>
<text text-anchor="middle" x="73" y="-206" font-family="Ubuntu-R" font-size="10.00">BalanceBaseClass</text>
</a>
</g>
</g>
<!-- Node4&#45;&gt;Node3 -->
<g id="edge3" class="edge"><title>Node4&#45;&gt;Node3</title>
<path fill="none" stroke="midnightblue" d="M73,-188.922C73,-179.172 73,-168.61 73,-161.29"/>
<polygon fill="midnightblue" stroke="midnightblue" points="69.5001,-188.991 73,-198.992 76.5001,-188.992 69.5001,-188.991"/>
</g>
<!-- Node5 -->
<g id="node5" class="node"><title>Node5</title>
<polygon fill="white" stroke="#bfbfbf" points="52.782,-269 52.782,-289 93.218,-289 93.218,-269 52.782,-269"/>
<text text-anchor="middle" x="73" y="-276" font-family="Ubuntu-R" font-size="10.00">object</text>
</g>
<!-- Node5&#45;&gt;Node4 -->
<g id="edge4" class="edge"><title>Node5&#45;&gt;Node4</title>
<path fill="none" stroke="midnightblue" d="M73,-258.775C73,-249.986 73,-239.715 73,-231.44"/>
<polygon fill="midnightblue" stroke="midnightblue" points="69.5001,-258.852 73,-268.852 76.5001,-258.852 69.5001,-258.852"/>
</g>
</g>
</svg>
