<?xml version="1.0" encoding="UTF-8" standalone="no"?>
<!DOCTYPE svg PUBLIC "-//W3C//DTD SVG 1.1//EN"
 "http://www.w3.org/Graphics/SVG/1.1/DTD/svg11.dtd">
<!-- Generated by graphviz version 2.26.3 (20100126.1600)
 -->
<!-- Title: forcebalance.amberio.FrcMod_Reader.Split Pages: 1 -->
<svg width="494pt" height="42pt"
 viewBox="0.00 0.00 494.00 42.00" xmlns="http://www.w3.org/2000/svg" xmlns:xlink="http://www.w3.org/1999/xlink">
<g id="graph1" class="graph" transform="scale(1 1) rotate(0) translate(4 38)">
<title>forcebalance.amberio.FrcMod_Reader.Split</title>
<polygon fill="white" stroke="white" points="-4,5 -4,-38 491,-38 491,5 -4,5"/>
<!-- Node1 -->
<g id="node1" class="node"><title>Node1</title>
<polygon fill="#bfbfbf" stroke="black" points="0.5,-0 0.5,-34 137.5,-34 137.5,-0 0.5,-0"/>
<text text-anchor="start" x="8.5" y="-21" font-family="Ubuntu-R" font-size="10.00">forcebalance.amberio.Frc</text>
<text text-anchor="middle" x="69" y="-8" font-family="Ubuntu-R" font-size="10.00">Mod_Reader.Split</text>
</g>
<!-- Node2 -->
<g id="node3" class="node"><title>Node2</title>
<a xlink:href="classforcebalance_1_1amberio_1_1FrcMod__Reader.html#a684b946f7faca6589c8ed49e77e31f73" target="_top" xlink:title="forcebalance.amberio.Frc\lMod_Reader.Whites">
<polygon fill="white" stroke="black" points="174.5,-0 174.5,-34 311.5,-34 311.5,-0 174.5,-0"/>
<text text-anchor="start" x="182.5" y="-21" font-family="Ubuntu-R" font-size="10.00">forcebalance.amberio.Frc</text>
<text text-anchor="middle" x="243" y="-8" font-family="Ubuntu-R" font-size="10.00">Mod_Reader.Whites</text>
</a>
</g>
<!-- Node1&#45;&gt;Node2 -->
<g id="edge2" class="edge"><title>Node1&#45;&gt;Node2</title>
<path fill="none" stroke="midnightblue" d="M137.769,-10.3835C146.44,-10.2548 155.364,-10.2192 164.176,-10.2766"/>
<polygon fill="midnightblue" stroke="midnightblue" points="164.408,-13.7792 174.445,-10.3867 164.483,-6.77957 164.408,-13.7792"/>
</g>
<!-- Node2&#45;&gt;Node1 -->
<g id="edge6" class="edge"><title>Node2&#45;&gt;Node1</title>
<path fill="none" stroke="midnightblue" d="M174.445,-23.6133C165.778,-23.7435 156.856,-23.7807 148.043,-23.7248"/>
<polygon fill="midnightblue" stroke="midnightblue" points="147.806,-20.2222 137.769,-23.6165 147.732,-27.2219 147.806,-20.2222"/>
</g>
<!-- Node3 -->
<g id="node5" class="node"><title>Node3</title>
<a xlink:href="classforcebalance_1_1amberio_1_1FrcMod__Reader.html#a689bb40a107f763472b15175be6f0f12" target="_top" xlink:title="forcebalance.amberio.Frc\lMod_Reader.feed">
<polygon fill="white" stroke="black" points="348.5,-0 348.5,-34 485.5,-34 485.5,-0 348.5,-0"/>
<text text-anchor="start" x="356.5" y="-21" font-family="Ubuntu-R" font-size="10.00">forcebalance.amberio.Frc</text>
<text text-anchor="middle" x="417" y="-8" font-family="Ubuntu-R" font-size="10.00">Mod_Reader.feed</text>
</a>
</g>
<!-- Node2&#45;&gt;Node3 -->
<g id="edge4" class="edge"><title>Node2&#45;&gt;Node3</title>
<path fill="none" stroke="midnightblue" d="M311.769,-17C320.44,-17 329.364,-17 338.176,-17"/>
<polygon fill="midnightblue" stroke="midnightblue" points="338.445,-20.5001 348.445,-17 338.445,-13.5001 338.445,-20.5001"/>
</g>
</g>
</svg>
