<?xml version="1.0" encoding="UTF-8" standalone="no"?>
<!DOCTYPE svg PUBLIC "-//W3C//DTD SVG 1.1//EN"
 "http://www.w3.org/Graphics/SVG/1.1/DTD/svg11.dtd">
<!-- Generated by graphviz version 2.26.3 (20100126.1600)
 -->
<!-- Title: forcebalance.Mol2.mol2.set_num_atoms Pages: 1 -->
<svg width="1306pt" height="120pt"
 viewBox="0.00 0.00 1306.00 120.00" xmlns="http://www.w3.org/2000/svg" xmlns:xlink="http://www.w3.org/1999/xlink">
<g id="graph1" class="graph" transform="scale(1 1) rotate(0) translate(4 116)">
<title>forcebalance.Mol2.mol2.set_num_atoms</title>
<polygon fill="white" stroke="white" points="-4,5 -4,-116 1303,-116 1303,5 -4,5"/>
<!-- Node1 -->
<g id="node1" class="node"><title>Node1</title>
<polygon fill="#bfbfbf" stroke="black" points="0,-45 0,-79 148,-79 148,-45 0,-45"/>
<text text-anchor="start" x="8" y="-66" font-family="Ubuntu-R" font-size="10.00">forcebalance.Mol2.mol2.set</text>
<text text-anchor="middle" x="74" y="-53" font-family="Ubuntu-R" font-size="10.00">_num_atoms</text>
</g>
<!-- Node2 -->
<g id="node3" class="node"><title>Node2</title>
<a xlink:href="classforcebalance_1_1Mol2_1_1mol2.html#a981c9a485d4db6abbcb61b8188090078" target="_top" xlink:title="number of sets (integer)">
<polygon fill="white" stroke="black" points="184,-45 184,-79 332,-79 332,-45 184,-45"/>
<text text-anchor="start" x="192" y="-66" font-family="Ubuntu-R" font-size="10.00">forcebalance.Mol2.mol2.set</text>
<text text-anchor="middle" x="258" y="-53" font-family="Ubuntu-R" font-size="10.00">_num_sets</text>
</a>
</g>
<!-- Node1&#45;&gt;Node2 -->
<g id="edge2" class="edge"><title>Node1&#45;&gt;Node2</title>
<path fill="none" stroke="midnightblue" d="M148.044,-55.3656C156.514,-55.2553 165.195,-55.2239 173.784,-55.2715"/>
<polygon fill="midnightblue" stroke="midnightblue" points="173.776,-58.7715 183.808,-55.3637 173.84,-51.7718 173.776,-58.7715"/>
</g>
<!-- Node2&#45;&gt;Node1 -->
<g id="edge20" class="edge"><title>Node2&#45;&gt;Node1</title>
<path fill="none" stroke="midnightblue" d="M183.808,-68.6363C175.336,-68.7457 166.654,-68.7762 158.066,-68.7276"/>
<polygon fill="midnightblue" stroke="midnightblue" points="158.077,-65.2277 148.044,-68.6344 158.011,-72.2274 158.077,-65.2277"/>
</g>
<!-- Node3 -->
<g id="node5" class="node"><title>Node3</title>
<a xlink:href="classforcebalance_1_1Mol2_1_1mol2.html#a4055fdaf7ab9a93d60577a8ce4d91ce1" target="_top" xlink:title="bond identifier (integer, starting from 1)">
<polygon fill="white" stroke="black" points="368,-45 368,-79 516,-79 516,-45 368,-45"/>
<text text-anchor="start" x="376" y="-66" font-family="Ubuntu-R" font-size="10.00">forcebalance.Mol2.mol2.set</text>
<text text-anchor="middle" x="442" y="-53" font-family="Ubuntu-R" font-size="10.00">_mol_name</text>
</a>
</g>
<!-- Node2&#45;&gt;Node3 -->
<g id="edge4" class="edge"><title>Node2&#45;&gt;Node3</title>
<path fill="none" stroke="midnightblue" d="M332.044,-62C340.514,-62 349.195,-62 357.784,-62"/>
<polygon fill="midnightblue" stroke="midnightblue" points="357.808,-65.5001 367.808,-62 357.807,-58.5001 357.808,-65.5001"/>
</g>
<!-- Node4 -->
<g id="node7" class="node"><title>Node4</title>
<a xlink:href="classforcebalance_1_1Mol2_1_1mol2.html#ab5de4b8eef6e851d9be12ecb92cf8f86" target="_top" xlink:title="number of features (integer)">
<polygon fill="white" stroke="black" points="552,-45 552,-79 700,-79 700,-45 552,-45"/>
<text text-anchor="start" x="560" y="-66" font-family="Ubuntu-R" font-size="10.00">forcebalance.Mol2.mol2.set</text>
<text text-anchor="middle" x="626" y="-53" font-family="Ubuntu-R" font-size="10.00">_num_feat</text>
</a>
</g>
<!-- Node3&#45;&gt;Node4 -->
<g id="edge6" class="edge"><title>Node3&#45;&gt;Node4</title>
<path fill="none" stroke="midnightblue" d="M516.044,-62C524.514,-62 533.195,-62 541.784,-62"/>
<polygon fill="midnightblue" stroke="midnightblue" points="541.808,-65.5001 551.808,-62 541.807,-58.5001 541.808,-65.5001"/>
</g>
<!-- Node5 -->
<g id="node9" class="node"><title>Node5</title>
<a xlink:href="classforcebalance_1_1Mol2_1_1mol2.html#a8d49f0024dfe625e1b43a244ec76f3b3" target="_top" xlink:title="Parse a series of text lines, and setup compound information.">
<polygon fill="white" stroke="black" points="736,-51.5 736,-72.5 896,-72.5 896,-51.5 736,-51.5"/>
<text text-anchor="middle" x="816" y="-59.5" font-family="Ubuntu-R" font-size="10.00">forcebalance.Mol2.mol2.parse</text>
</a>
</g>
<!-- Node4&#45;&gt;Node5 -->
<g id="edge8" class="edge"><title>Node4&#45;&gt;Node5</title>
<path fill="none" stroke="midnightblue" d="M700.003,-62C708.466,-62 717.163,-62 725.806,-62"/>
<polygon fill="midnightblue" stroke="midnightblue" points="725.911,-65.5001 735.911,-62 725.911,-58.5001 725.911,-65.5001"/>
</g>
<!-- Node6 -->
<g id="node11" class="node"><title>Node6</title>
<a xlink:href="classforcebalance_1_1Mol2_1_1mol2.html#af5a261aefed1c65fd5f56b5b30e69995" target="_top" xlink:title="return the atom instance given its atom identifier">
<polygon fill="white" stroke="black" points="932,-90.5 932,-111.5 1112,-111.5 1112,-90.5 932,-90.5"/>
<text text-anchor="middle" x="1022" y="-98.5" font-family="Ubuntu-R" font-size="10.00">forcebalance.Mol2.mol2.get_atom</text>
</a>
</g>
<!-- Node5&#45;&gt;Node6 -->
<g id="edge10" class="edge"><title>Node5&#45;&gt;Node6</title>
<path fill="none" stroke="midnightblue" d="M871.475,-72.5026C897.69,-77.4656 929.166,-83.4246 956.542,-88.6076"/>
<polygon fill="midnightblue" stroke="midnightblue" points="955.949,-92.0573 966.426,-90.4787 957.251,-85.1795 955.949,-92.0573"/>
</g>
<!-- Node7 -->
<g id="node13" class="node"><title>Node7</title>
<a xlink:href="classforcebalance_1_1Mol2_1_1mol2.html#a2d2b34613f2b72ad3a7fcdc94a3de994" target="_top" xlink:title="return a dictionnary of atom instances bonded to the atom, and their types">
<polygon fill="white" stroke="black" points="1148.5,-68 1148.5,-102 1297.5,-102 1297.5,-68 1148.5,-68"/>
<text text-anchor="start" x="1156.5" y="-89" font-family="Ubuntu-R" font-size="10.00">forcebalance.Mol2.mol2.get</text>
<text text-anchor="middle" x="1223" y="-76" font-family="Ubuntu-R" font-size="10.00">_bonded_atoms</text>
</a>
</g>
<!-- Node5&#45;&gt;Node7 -->
<g id="edge14" class="edge"><title>Node5&#45;&gt;Node7</title>
<path fill="none" stroke="midnightblue" d="M896.41,-66.5441C966.185,-70.4871 1066.88,-76.1777 1137.98,-80.1954"/>
<polygon fill="midnightblue" stroke="midnightblue" points="1138.06,-83.7057 1148.25,-80.7756 1138.46,-76.7169 1138.06,-83.7057"/>
</g>
<!-- Node8 -->
<g id="node16" class="node"><title>Node8</title>
<a xlink:href="classforcebalance_1_1Mol2_1_1mol2.html#aa5a8b41dee69923e1854b0385ba588a4" target="_top" xlink:title="modify atom types to specify donnor, acceptor, or both">
<polygon fill="white" stroke="black" points="948,-0 948,-34 1096,-34 1096,-0 948,-0"/>
<text text-anchor="start" x="956" y="-21" font-family="Ubuntu-R" font-size="10.00">forcebalance.Mol2.mol2.set</text>
<text text-anchor="middle" x="1022" y="-8" font-family="Ubuntu-R" font-size="10.00">_donnor_acceptor_atoms</text>
</a>
</g>
<!-- Node5&#45;&gt;Node8 -->
<g id="edge16" class="edge"><title>Node5&#45;&gt;Node8</title>
<path fill="none" stroke="midnightblue" d="M864.298,-51.4495C886.24,-46.6564 912.847,-40.8441 937.908,-35.3696"/>
<polygon fill="midnightblue" stroke="midnightblue" points="938.769,-38.7641 947.792,-33.2105 937.275,-31.9254 938.769,-38.7641"/>
</g>
<!-- Node6&#45;&gt;Node7 -->
<g id="edge12" class="edge"><title>Node6&#45;&gt;Node7</title>
<path fill="none" stroke="midnightblue" d="M1112.21,-93.819C1120.91,-93.1264 1129.72,-92.4255 1138.36,-91.7373"/>
<polygon fill="midnightblue" stroke="midnightblue" points="1138.73,-95.2192 1148.42,-90.9367 1138.17,-88.2413 1138.73,-95.2192"/>
</g>
<!-- Node9 -->
<g id="node18" class="node"><title>Node9</title>
<a xlink:href="classforcebalance_1_1Mol2_1_1mol2.html#ad2182f9984dda90dfbd036d70921d5d8" target="_top" xlink:title="forcebalance.Mol2.mol2.\l__init__">
<polygon fill="white" stroke="black" points="1156.5,-0 1156.5,-34 1289.5,-34 1289.5,-0 1156.5,-0"/>
<text text-anchor="start" x="1164.5" y="-21" font-family="Ubuntu-R" font-size="10.00">forcebalance.Mol2.mol2.</text>
<text text-anchor="middle" x="1223" y="-8" font-family="Ubuntu-R" font-size="10.00">__init__</text>
</a>
</g>
<!-- Node8&#45;&gt;Node9 -->
<g id="edge18" class="edge"><title>Node8&#45;&gt;Node9</title>
<path fill="none" stroke="midnightblue" d="M1096.27,-17C1112.57,-17 1129.86,-17 1146.26,-17"/>
<polygon fill="midnightblue" stroke="midnightblue" points="1146.33,-20.5001 1156.33,-17 1146.33,-13.5001 1146.33,-20.5001"/>
</g>
</g>
</svg>
