<?xml version="1.0" encoding="UTF-8" standalone="no"?>
<!DOCTYPE svg PUBLIC "-//W3C//DTD SVG 1.1//EN"
 "http://www.w3.org/Graphics/SVG/1.1/DTD/svg11.dtd">
<!-- Generated by graphviz version 2.32.0 (20130801.1845)
 -->
<!-- Title: forcebalance.Mol2.mol2_bond.set_bond_id Pages: 1 -->
<svg width="272pt" height="40pt"
 viewBox="0.00 0.00 272.00 40.00" xmlns="http://www.w3.org/2000/svg" xmlns:xlink="http://www.w3.org/1999/xlink">
<g id="graph0" class="graph" transform="scale(1 1) rotate(0) translate(4 36)">
<title>forcebalance.Mol2.mol2_bond.set_bond_id</title>
<polygon fill="white" stroke="white" points="-4,5 -4,-36 269,-36 269,5 -4,5"/>
<!-- Node1 -->
<g id="node1" class="node"><title>Node1</title>
<polygon fill="#bfbfbf" stroke="black" points="-0.1485,-0 -0.1485,-32 114.149,-32 114.149,-0 -0.1485,-0"/>
<text text-anchor="start" x="7.8515" y="-19" font-family="Ubuntu-R" font-size="10.00">forcebalance.Mol2.mol2</text>
<text text-anchor="middle" x="57" y="-7" font-family="Ubuntu-R" font-size="10.00">_bond.set_bond_id</text>
</g>
<!-- Node2 -->
<g id="node2" class="node"><title>Node2</title>
<g id="a_node2"><a xlink:href="classforcebalance_1_1Mol2_1_1mol2__bond.html#a1ced365259f0c6b7b4fa0f0d9fc5dc4d" target="_top" xlink:title="bond type (string) one of: 1 = single 2 = double 3 = triple am = amide ar = aromatic du = dummy un = ...">
<polygon fill="white" stroke="black" points="149.851,-0 149.851,-32 264.149,-32 264.149,-0 149.851,-0"/>
<text text-anchor="start" x="157.851" y="-19" font-family="Ubuntu-R" font-size="10.00">forcebalance.Mol2.mol2</text>
<text text-anchor="middle" x="207" y="-7" font-family="Ubuntu-R" font-size="10.00">_bond.set_bond_type</text>
</a>
</g>
</g>
<!-- Node1&#45;&gt;Node2 -->
<g id="edge1" class="edge"><title>Node1&#45;&gt;Node2</title>
<path fill="none" stroke="midnightblue" d="M114.375,-16C122.621,-16 131.178,-16 139.602,-16"/>
<polygon fill="midnightblue" stroke="midnightblue" points="139.782,-19.5001 149.782,-16 139.782,-12.5001 139.782,-19.5001"/>
</g>
</g>
</svg>
