<?xml version="1.0" encoding="UTF-8" standalone="no"?>
<!DOCTYPE svg PUBLIC "-//W3C//DTD SVG 1.1//EN"
 "http://www.w3.org/Graphics/SVG/1.1/DTD/svg11.dtd">
<!-- Generated by graphviz version 2.40.1 (20161225.0304)
 -->
<!-- Title: src.target.RemoteTarget.submit_jobs Pages: 1 -->
<svg width="392pt" height="104pt"
 viewBox="0.00 0.00 392.00 104.00" xmlns="http://www.w3.org/2000/svg" xmlns:xlink="http://www.w3.org/1999/xlink">
<g id="graph0" class="graph" transform="scale(1 1) rotate(0) translate(4 100)">
<title>src.target.RemoteTarget.submit_jobs</title>
<polygon fill="#ffffff" stroke="transparent" points="-4,4 -4,-100 388,-100 388,4 -4,4"/>
<!-- Node521 -->
<g id="node1" class="node">
<title>Node521</title>
<polygon fill="#bfbfbf" stroke="#000000" points="0,-38.5 0,-57.5 196,-57.5 196,-38.5 0,-38.5"/>
<text text-anchor="middle" x="98" y="-45.5" font-family="Ubuntu-R" font-size="10.00" fill="#000000">src.target.RemoteTarget.submit_jobs</text>
</g>
<!-- Node522 -->
<g id="node2" class="node">
<title>Node522</title>
<g id="a_node2"><a xlink:href="namespacesrc_1_1optimizer.html#abd36f93a9b1e0d51b4d693687b9a8f33" target="_top" xlink:title="src.optimizer.Counter">
<polygon fill="#ffffff" stroke="#000000" points="247.5,-76.5 247.5,-95.5 368.5,-95.5 368.5,-76.5 247.5,-76.5"/>
<text text-anchor="middle" x="308" y="-83.5" font-family="Ubuntu-R" font-size="10.00" fill="#000000">src.optimizer.Counter</text>
</a>
</g>
</g>
<!-- Node521&#45;&gt;Node522 -->
<g id="edge1" class="edge">
<title>Node521&#45;&gt;Node522</title>
<path fill="none" stroke="#191970" d="M150.7208,-57.54C179.429,-62.7348 215.1374,-69.1963 245.2704,-74.6489"/>
<polygon fill="#191970" stroke="#191970" points="244.7941,-78.1195 255.2575,-76.4561 246.0405,-71.2314 244.7941,-78.1195"/>
</g>
<!-- Node523 -->
<g id="node3" class="node">
<title>Node523</title>
<g id="a_node3"><a xlink:href="classsrc_1_1target_1_1Target.html#a8d05de21b2477b71aa74ea001f4d62b5" target="_top" xlink:title="This code writes a force field pickle file to an folder in &quot;job.tmp/dnm/forcebalance.p&quot;, because it takes time to compress and most targets can simply reuse this file. ">
<polygon fill="#ffffff" stroke="#000000" points="232,-38.5 232,-57.5 384,-57.5 384,-38.5 232,-38.5"/>
<text text-anchor="middle" x="308" y="-45.5" font-family="Ubuntu-R" font-size="10.00" fill="#000000">src.target.Target.serialize_ff</text>
</a>
</g>
</g>
<!-- Node521&#45;&gt;Node523 -->
<g id="edge2" class="edge">
<title>Node521&#45;&gt;Node523</title>
<path fill="none" stroke="#191970" d="M196.2366,-48C204.7364,-48 213.2955,-48 221.6899,-48"/>
<polygon fill="#191970" stroke="#191970" points="221.8326,-51.5001 231.8326,-48 221.8325,-44.5001 221.8326,-51.5001"/>
</g>
<!-- Node524 -->
<g id="node4" class="node">
<title>Node524</title>
<g id="a_node4"><a xlink:href="namespacesrc_1_1nifty.html#aa26be058ed4503aa168d81f9076aefc3" target="_top" xlink:title="src.nifty.getWorkQueue">
<polygon fill="#ffffff" stroke="#000000" points="243,-.5 243,-19.5 373,-19.5 373,-.5 243,-.5"/>
<text text-anchor="middle" x="308" y="-7.5" font-family="Ubuntu-R" font-size="10.00" fill="#000000">src.nifty.getWorkQueue</text>
</a>
</g>
</g>
<!-- Node521&#45;&gt;Node524 -->
<g id="edge3" class="edge">
<title>Node521&#45;&gt;Node524</title>
<path fill="none" stroke="#191970" d="M150.7208,-38.46C179.429,-33.2652 215.1374,-26.8037 245.2704,-21.3511"/>
<polygon fill="#191970" stroke="#191970" points="246.0405,-24.7686 255.2575,-19.5439 244.7941,-17.8805 246.0405,-24.7686"/>
</g>
</g>
</svg>
