<?xml version="1.0" encoding="UTF-8" standalone="no"?>
<!DOCTYPE svg PUBLIC "-//W3C//DTD SVG 1.1//EN"
 "http://www.w3.org/Graphics/SVG/1.1/DTD/svg11.dtd">
<!-- Generated by graphviz version 2.28.0 (20111219.2309)
 -->
<!-- Title: G Pages: 1 -->
<svg width="2986pt" height="398pt"
 viewBox="0.00 0.00 2986.00 398.00" xmlns="http://www.w3.org/2000/svg" xmlns:xlink="http://www.w3.org/1999/xlink">
<g id="graph1" class="graph" transform="scale(1 1) rotate(0) translate(4 394)">
<title>G</title>
<polygon fill="white" stroke="white" points="-4,5 -4,-394 2983,-394 2983,5 -4,5"/>
<!-- Node1 -->
<g id="node1" class="node"><title>Node1</title>
<polygon fill="#bfbfbf" stroke="black" points="0,-106.5 0,-125.5 186,-125.5 186,-106.5 0,-106.5"/>
<text text-anchor="middle" x="93" y="-113.5" font-family="Ubuntu-R" font-size="10.00">forcebalance.forcefield.FF.addff_xml</text>
</g>
<!-- Node2 -->
<g id="node3" class="node"><title>Node2</title>
<a xlink:href="classforcebalance_1_1forcefield_1_1FF.html#a3af07734a2378364ed533e2853ee6b82" target="_top" xlink:title="Assign physical parameter values to the &#39;pvals0&#39; array.">
<polygon fill="white" stroke="black" points="222,-211.5 222,-230.5 410,-230.5 410,-211.5 222,-211.5"/>
<text text-anchor="middle" x="316" y="-218.5" font-family="Ubuntu-R" font-size="10.00">forcebalance.forcefield.FF.assign_p0</text>
</a>
</g>
<!-- Node1&#45;&gt;Node2 -->
<g id="edge2" class="edge"><title>Node1&#45;&gt;Node2</title>
<path fill="none" stroke="midnightblue" d="M114.002,-125.503C153.185,-144.119 240.195,-185.459 285.81,-207.132"/>
<polygon fill="midnightblue" stroke="midnightblue" points="284.35,-210.312 294.884,-211.443 287.354,-203.99 284.35,-210.312"/>
</g>
<!-- Node4 -->
<g id="node7" class="node"><title>Node4</title>
<a xlink:href="classforcebalance_1_1forcefield_1_1FF.html#a2c9cda9adb5a6446fbccfa7b35f8dff5" target="_top" xlink:title="Record the locations of a parameter in a txt file; [[file name, line number, field number...">
<polygon fill="white" stroke="black" points="696.5,-66.5 696.5,-85.5 891.5,-85.5 891.5,-66.5 696.5,-66.5"/>
<text text-anchor="middle" x="794" y="-73.5" font-family="Ubuntu-R" font-size="10.00">forcebalance.forcefield.FF.assign_field</text>
</a>
</g>
<!-- Node1&#45;&gt;Node4 -->
<g id="edge6" class="edge"><title>Node1&#45;&gt;Node4</title>
<path fill="none" stroke="midnightblue" d="M186.101,-110.73C315.307,-103.336 549.831,-89.9152 686.418,-82.0991"/>
<polygon fill="midnightblue" stroke="midnightblue" points="686.701,-85.5887 696.485,-81.523 686.301,-78.6002 686.701,-85.5887"/>
</g>
<!-- Node6 -->
<g id="node11" class="node"><title>Node6</title>
<a xlink:href="namespaceforcebalance_1_1nifty.html#abb8f59044961a12588e0653c2baa8b01" target="_top" xlink:title="forcebalance.nifty.warn_press_key">
<polygon fill="white" stroke="black" points="1652.5,-66.5 1652.5,-85.5 1831.5,-85.5 1831.5,-66.5 1652.5,-66.5"/>
<text text-anchor="middle" x="1742" y="-73.5" font-family="Ubuntu-R" font-size="10.00">forcebalance.nifty.warn_press_key</text>
</a>
</g>
<!-- Node1&#45;&gt;Node6 -->
<g id="edge10" class="edge"><title>Node1&#45;&gt;Node6</title>
<path fill="none" stroke="midnightblue" d="M115.798,-106.309C180.565,-78.43 378.047,-1.42109e-14 550,-0 550,-0 550,-0 1271,-0 1421.73,-7.10543e-15 1460.14,-8.75091 1608,-38 1640.59,-44.4462 1676.79,-55.021 1703.19,-63.3805"/>
<polygon fill="midnightblue" stroke="midnightblue" points="1702.2,-66.741 1712.8,-66.4627 1704.34,-60.0755 1702.2,-66.741"/>
</g>
<!-- Node8 -->
<g id="node15" class="node"><title>Node8</title>
<a xlink:href="classforcebalance_1_1forcefield_1_1FF.html#aecd595ddb369aedd7009e6756276ffc5" target="_top" xlink:title="Create a new force field using provided parameter values.">
<polygon fill="white" stroke="black" points="232.5,-128.5 232.5,-147.5 399.5,-147.5 399.5,-128.5 232.5,-128.5"/>
<text text-anchor="middle" x="316" y="-135.5" font-family="Ubuntu-R" font-size="10.00">forcebalance.forcefield.FF.make</text>
</a>
</g>
<!-- Node1&#45;&gt;Node8 -->
<g id="edge14" class="edge"><title>Node1&#45;&gt;Node8</title>
<path fill="none" stroke="midnightblue" d="M186.124,-125.171C198.06,-126.359 210.29,-127.576 222.237,-128.766"/>
<polygon fill="midnightblue" stroke="midnightblue" points="221.895,-132.249 232.193,-129.757 222.589,-125.283 221.895,-132.249"/>
</g>
<!-- Node3 -->
<g id="node5" class="node"><title>Node3</title>
<a xlink:href="classforcebalance_1_1forcefield_1_1FF.html#a8e7047c4b41a755c24996c9e1619df0b" target="_top" xlink:title="forcebalance.forcefield.FF.__eq__">
<polygon fill="white" stroke="black" points="464.5,-256.5 464.5,-275.5 637.5,-275.5 637.5,-256.5 464.5,-256.5"/>
<text text-anchor="middle" x="551" y="-263.5" font-family="Ubuntu-R" font-size="10.00">forcebalance.forcefield.FF.__eq__</text>
</a>
</g>
<!-- Node2&#45;&gt;Node3 -->
<g id="edge4" class="edge"><title>Node2&#45;&gt;Node3</title>
<path fill="none" stroke="midnightblue" d="M366.413,-230.543C402.711,-237.554 452.188,-247.109 490.633,-254.534"/>
<polygon fill="midnightblue" stroke="midnightblue" points="490.176,-258.011 500.658,-256.47 491.503,-251.138 490.176,-258.011"/>
</g>
<!-- Node5 -->
<g id="node9" class="node"><title>Node5</title>
<a xlink:href="namespaceforcebalance_1_1forcefield.html#ab1a855bace20dd5e45928467e2a133f1" target="_top" xlink:title="This function takes in a dictionary (rsfactors) and a string (termtype).">
<polygon fill="white" stroke="black" points="1417.5,-180.5 1417.5,-199.5 1598.5,-199.5 1598.5,-180.5 1417.5,-180.5"/>
<text text-anchor="middle" x="1508" y="-187.5" font-family="Ubuntu-R" font-size="10.00">forcebalance.forcefield.rs_override</text>
</a>
</g>
<!-- Node4&#45;&gt;Node5 -->
<g id="edge8" class="edge"><title>Node4&#45;&gt;Node5</title>
<path fill="none" stroke="midnightblue" d="M824.571,-85.6216C887.144,-105.514 1037.89,-150.977 1168,-171 1247.8,-183.28 1339.25,-187.859 1407.04,-189.461"/>
<polygon fill="midnightblue" stroke="midnightblue" points="1407.22,-192.966 1417.29,-189.685 1407.37,-185.968 1407.22,-192.966"/>
</g>
<!-- Node7 -->
<g id="node13" class="node"><title>Node7</title>
<a xlink:href="namespaceforcebalance_1_1nifty.html#a2fc81730e7efa7d138dd86f733507bfc" target="_top" xlink:title="Similar to the bultin function map().">
<polygon fill="white" stroke="black" points="1886,-66.5 1886,-85.5 2068,-85.5 2068,-66.5 1886,-66.5"/>
<text text-anchor="middle" x="1977" y="-73.5" font-family="Ubuntu-R" font-size="10.00">forcebalance.nifty.concurrent_map</text>
</a>
</g>
<!-- Node6&#45;&gt;Node7 -->
<g id="edge12" class="edge"><title>Node6&#45;&gt;Node7</title>
<path fill="none" stroke="midnightblue" d="M1831.75,-76C1846.17,-76 1861.19,-76 1875.86,-76"/>
<polygon fill="midnightblue" stroke="midnightblue" points="1875.95,-79.5001 1885.95,-76 1875.95,-72.5001 1875.95,-79.5001"/>
</g>
<!-- Node8&#45;&gt;Node6 -->
<g id="edge84" class="edge"><title>Node8&#45;&gt;Node6</title>
<path fill="none" stroke="midnightblue" d="M343.429,-128.412C414.865,-103.382 618.203,-38 793,-38 793,-38 793,-38 1271,-38 1407.05,-38 1564.54,-54.0153 1658.29,-65.2518"/>
<polygon fill="midnightblue" stroke="midnightblue" points="1657.93,-68.734 1668.28,-66.46 1658.77,-61.7846 1657.93,-68.734"/>
</g>
<!-- Node9 -->
<g id="node17" class="node"><title>Node9</title>
<a xlink:href="classforcebalance_1_1forcefield_1_1FF.html#a260031479e0429e497f56987de541930" target="_top" xlink:title="Converts mathematical to physical parameters.">
<polygon fill="white" stroke="black" points="932,-218.5 932,-237.5 1132,-237.5 1132,-218.5 932,-218.5"/>
<text text-anchor="middle" x="1032" y="-225.5" font-family="Ubuntu-R" font-size="10.00">forcebalance.forcefield.FF.create_pvals</text>
</a>
</g>
<!-- Node8&#45;&gt;Node9 -->
<g id="edge16" class="edge"><title>Node8&#45;&gt;Node9</title>
<path fill="none" stroke="midnightblue" d="M358.74,-147.511C383.954,-153.143 416.763,-160.274 446,-166 554.922,-187.331 581.736,-196.317 692,-209 768.45,-217.793 855.086,-222.559 921.638,-225.119"/>
<polygon fill="midnightblue" stroke="midnightblue" points="921.601,-228.62 931.725,-225.496 921.862,-221.625 921.601,-228.62"/>
</g>
<!-- Node28 -->
<g id="node65" class="node"><title>Node28</title>
<a xlink:href="classforcebalance_1_1forcefield_1_1FF.html#a0540c3df2c0dece9f2711cc04fd958d4" target="_top" xlink:title="forcebalance.forcefield.FF.make_redirect">
<polygon fill="white" stroke="black" points="446.5,-137.5 446.5,-156.5 655.5,-156.5 655.5,-137.5 446.5,-137.5"/>
<text text-anchor="middle" x="551" y="-144.5" font-family="Ubuntu-R" font-size="10.00">forcebalance.forcefield.FF.make_redirect</text>
</a>
</g>
<!-- Node8&#45;&gt;Node28 -->
<g id="edge74" class="edge"><title>Node8&#45;&gt;Node28</title>
<path fill="none" stroke="midnightblue" d="M399.803,-141.198C411.555,-141.652 423.807,-142.126 436.023,-142.597"/>
<polygon fill="midnightblue" stroke="midnightblue" points="436.135,-146.104 446.263,-142.993 436.406,-139.11 436.135,-146.104"/>
</g>
<!-- Node10 -->
<g id="node19" class="node"><title>Node10</title>
<a xlink:href="namespaceforcebalance_1_1nifty.html#a52114ceee9d55f94d9aecb3e176de294" target="_top" xlink:title="Given any list, array, or matrix, return a single&#45;index array.">
<polygon fill="white" stroke="black" points="1211,-294.5 1211,-313.5 1329,-313.5 1329,-294.5 1211,-294.5"/>
<text text-anchor="middle" x="1270" y="-301.5" font-family="Ubuntu-R" font-size="10.00">forcebalance.nifty.flat</text>
</a>
</g>
<!-- Node9&#45;&gt;Node10 -->
<g id="edge18" class="edge"><title>Node9&#45;&gt;Node10</title>
<path fill="none" stroke="midnightblue" d="M1055.13,-237.582C1081.61,-248.799 1127.46,-267.437 1168,-280 1182.48,-284.486 1198.34,-288.614 1213.12,-292.136"/>
<polygon fill="midnightblue" stroke="midnightblue" points="1212.61,-295.612 1223.15,-294.475 1214.2,-288.795 1212.61,-295.612"/>
</g>
<!-- Node11 -->
<g id="node21" class="node"><title>Node11</title>
<a xlink:href="namespaceforcebalance_1_1nifty.html#a4c82187e92dfeb8a159f4aa44b501c40" target="_top" xlink:title="Invert a matrix using singular value decomposition.">
<polygon fill="white" stroke="black" points="1432,-256.5 1432,-275.5 1584,-275.5 1584,-256.5 1432,-256.5"/>
<text text-anchor="middle" x="1508" y="-263.5" font-family="Ubuntu-R" font-size="10.00">forcebalance.nifty.invert_svd</text>
</a>
</g>
<!-- Node9&#45;&gt;Node11 -->
<g id="edge42" class="edge"><title>Node9&#45;&gt;Node11</title>
<path fill="none" stroke="midnightblue" d="M1120.83,-237.528C1136.53,-239.111 1152.74,-240.669 1168,-242 1254.24,-249.522 1352.98,-256.305 1421.56,-260.726"/>
<polygon fill="midnightblue" stroke="midnightblue" points="1421.68,-264.24 1431.88,-261.388 1422.12,-257.255 1421.68,-264.24"/>
</g>
<!-- Node14 -->
<g id="node28" class="node"><title>Node14</title>
<a xlink:href="namespaceforcebalance_1_1nifty.html#afb3f205bce4984856e766af7e9fdaca8" target="_top" xlink:title="Given any list, array, or matrix, return a 1&#45;column matrix.">
<polygon fill="white" stroke="black" points="2306,-237.5 2306,-256.5 2422,-256.5 2422,-237.5 2306,-237.5"/>
<text text-anchor="middle" x="2364" y="-244.5" font-family="Ubuntu-R" font-size="10.00">forcebalance.nifty.col</text>
</a>
</g>
<!-- Node9&#45;&gt;Node14 -->
<g id="edge34" class="edge"><title>Node9&#45;&gt;Node14</title>
<path fill="none" stroke="midnightblue" d="M1132.41,-228C1228.32,-228 1377.6,-228 1507,-228 1507,-228 1507,-228 1978,-228 2089.6,-228 2219.18,-236.063 2295.95,-241.683"/>
<polygon fill="midnightblue" stroke="midnightblue" points="2295.74,-245.177 2305.97,-242.425 2296.25,-238.196 2295.74,-245.177"/>
</g>
<!-- Node15 -->
<g id="node33" class="node"><title>Node15</title>
<a xlink:href="classforcebalance_1_1forcefield_1_1FF.html#ae5fba4d3e22f210632ead3653e6e12dd" target="_top" xlink:title="Converts physical to mathematical parameters.">
<polygon fill="white" stroke="black" points="1168,-351.5 1168,-370.5 1372,-370.5 1372,-351.5 1168,-351.5"/>
<text text-anchor="middle" x="1270" y="-358.5" font-family="Ubuntu-R" font-size="10.00">forcebalance.forcefield.FF.create_mvals</text>
</a>
</g>
<!-- Node9&#45;&gt;Node15 -->
<g id="edge36" class="edge"><title>Node9&#45;&gt;Node15</title>
<path fill="none" stroke="midnightblue" d="M1044.62,-237.73C1067.2,-256.276 1119.11,-297.138 1168,-323 1187.04,-333.07 1209.35,-341.759 1228.15,-348.277"/>
<polygon fill="midnightblue" stroke="midnightblue" points="1227.03,-351.593 1237.62,-351.483 1229.27,-344.962 1227.03,-351.593"/>
</g>
<!-- Node18 -->
<g id="node40" class="node"><title>Node18</title>
<a xlink:href="classforcebalance_1_1forcefield_1_1FF.html#a88715f96ff8e14c3c83b4f976ad147b4" target="_top" xlink:title="Create the rescaling factors for the coordinate transformation in parameter space.">
<polygon fill="white" stroke="black" points="1182,-142.5 1182,-161.5 1358,-161.5 1358,-142.5 1182,-142.5"/>
<text text-anchor="middle" x="1270" y="-149.5" font-family="Ubuntu-R" font-size="10.00">forcebalance.forcefield.FF.rsmake</text>
</a>
</g>
<!-- Node9&#45;&gt;Node18 -->
<g id="edge44" class="edge"><title>Node9&#45;&gt;Node18</title>
<path fill="none" stroke="midnightblue" d="M1062.89,-218.375C1105.27,-204.726 1182.88,-179.733 1229.83,-164.616"/>
<polygon fill="midnightblue" stroke="midnightblue" points="1230.91,-167.944 1239.35,-161.547 1228.76,-161.281 1230.91,-167.944"/>
</g>
<!-- Node10&#45;&gt;Node11 -->
<g id="edge20" class="edge"><title>Node10&#45;&gt;Node11</title>
<path fill="none" stroke="midnightblue" d="M1329.03,-294.655C1361.95,-289.355 1403.35,-282.69 1437.93,-277.121"/>
<polygon fill="midnightblue" stroke="midnightblue" points="1438.64,-280.552 1447.96,-275.507 1437.53,-273.641 1438.64,-280.552"/>
</g>
<!-- Node11&#45;&gt;Node6 -->
<g id="edge32" class="edge"><title>Node11&#45;&gt;Node6</title>
<path fill="none" stroke="midnightblue" d="M1537.17,-256.34C1559.39,-247.353 1589.61,-231.876 1608,-209 1641.29,-167.59 1604.38,-130.4 1644,-95 1645.72,-93.4673 1647.52,-92.0429 1649.39,-90.7199"/>
<polygon fill="midnightblue" stroke="midnightblue" points="1651.25,-93.6858 1658.03,-85.5455 1647.66,-87.6802 1651.25,-93.6858"/>
</g>
<!-- Node12 -->
<g id="node23" class="node"><title>Node12</title>
<a xlink:href="namespaceforcebalance_1_1nifty.html#aa9fb9c7c65231eca50a7afc04f489b64" target="_top" xlink:title="forcebalance.nifty.get_least_squares">
<polygon fill="white" stroke="black" points="1646.5,-294.5 1646.5,-313.5 1837.5,-313.5 1837.5,-294.5 1646.5,-294.5"/>
<text text-anchor="middle" x="1742" y="-301.5" font-family="Ubuntu-R" font-size="10.00">forcebalance.nifty.get_least_squares</text>
</a>
</g>
<!-- Node11&#45;&gt;Node12 -->
<g id="edge22" class="edge"><title>Node11&#45;&gt;Node12</title>
<path fill="none" stroke="midnightblue" d="M1567.24,-275.54C1599.24,-280.78 1639.1,-287.309 1672.57,-292.791"/>
<polygon fill="midnightblue" stroke="midnightblue" points="1672.3,-296.294 1682.73,-294.456 1673.43,-289.386 1672.3,-296.294"/>
</g>
<!-- Node11&#45;&gt;Node14 -->
<g id="edge28" class="edge"><title>Node11&#45;&gt;Node14</title>
<path fill="none" stroke="midnightblue" d="M1584.04,-264.331C1748.52,-260.671 2138.65,-251.991 2295.74,-248.496"/>
<polygon fill="midnightblue" stroke="midnightblue" points="2295.83,-251.995 2305.75,-248.274 2295.67,-244.997 2295.83,-251.995"/>
</g>
<!-- Node12&#45;&gt;Node10 -->
<g id="edge24" class="edge"><title>Node12&#45;&gt;Node10</title>
<path fill="none" stroke="midnightblue" d="M1646.49,-304C1555.49,-304 1420.1,-304 1339.18,-304"/>
<polygon fill="midnightblue" stroke="midnightblue" points="1339.1,-300.5 1329.1,-304 1339.1,-307.5 1339.1,-300.5"/>
</g>
<!-- Node13 -->
<g id="node26" class="node"><title>Node13</title>
<a xlink:href="namespaceforcebalance_1_1nifty.html#ad5ca60565c864b4245a8212fe9d92e10" target="_top" xlink:title="Compute the (cross) statistical inefficiency of (two) timeseries.">
<polygon fill="white" stroke="black" points="1876.5,-294.5 1876.5,-313.5 2077.5,-313.5 2077.5,-294.5 1876.5,-294.5"/>
<text text-anchor="middle" x="1977" y="-301.5" font-family="Ubuntu-R" font-size="10.00">forcebalance.nifty.statisticalInefficiency</text>
</a>
</g>
<!-- Node12&#45;&gt;Node13 -->
<g id="edge26" class="edge"><title>Node12&#45;&gt;Node13</title>
<path fill="none" stroke="midnightblue" d="M1837.77,-304C1847.11,-304 1856.65,-304 1866.13,-304"/>
<polygon fill="midnightblue" stroke="midnightblue" points="1866.38,-307.5 1876.38,-304 1866.38,-300.5 1866.38,-307.5"/>
</g>
<!-- Node14&#45;&gt;Node10 -->
<g id="edge30" class="edge"><title>Node14&#45;&gt;Node10</title>
<path fill="none" stroke="midnightblue" d="M2340.48,-256.632C2281.9,-280.784 2119.48,-342 1978,-342 1741,-342 1741,-342 1741,-342 1597.59,-342 1430.36,-324.205 1339.07,-312.97"/>
<polygon fill="midnightblue" stroke="midnightblue" points="1339.48,-309.495 1329.13,-311.736 1338.62,-316.441 1339.48,-309.495"/>
</g>
<!-- Node16 -->
<g id="node35" class="node"><title>Node16</title>
<a xlink:href="namespaceforcebalance_1_1molecule.html#a0dd31eff88d2bed0884ab21a13261d42" target="_top" xlink:title="ONLY matches integers! If you have a decimal point? None shall pass!">
<polygon fill="white" stroke="black" points="1434.5,-370.5 1434.5,-389.5 1581.5,-389.5 1581.5,-370.5 1434.5,-370.5"/>
<text text-anchor="middle" x="1508" y="-377.5" font-family="Ubuntu-R" font-size="10.00">forcebalance.molecule.isint</text>
</a>
</g>
<!-- Node15&#45;&gt;Node16 -->
<g id="edge38" class="edge"><title>Node15&#45;&gt;Node16</title>
<path fill="none" stroke="midnightblue" d="M1372.11,-369.14C1389.41,-370.533 1407.21,-371.966 1423.97,-373.316"/>
<polygon fill="midnightblue" stroke="midnightblue" points="1424.01,-376.83 1434.26,-374.144 1424.57,-369.853 1424.01,-376.83"/>
</g>
<!-- Node17 -->
<g id="node37" class="node"><title>Node17</title>
<a xlink:href="namespaceforcebalance_1_1molecule.html#afe989ffd119568047fc8265b1d329a70" target="_top" xlink:title="Matches ANY number; it can be a decimal, scientific notation, integer, or what have you...">
<polygon fill="white" stroke="black" points="1664,-370.5 1664,-389.5 1820,-389.5 1820,-370.5 1664,-370.5"/>
<text text-anchor="middle" x="1742" y="-377.5" font-family="Ubuntu-R" font-size="10.00">forcebalance.molecule.isfloat</text>
</a>
</g>
<!-- Node16&#45;&gt;Node17 -->
<g id="edge40" class="edge"><title>Node16&#45;&gt;Node17</title>
<path fill="none" stroke="midnightblue" d="M1581.77,-380C1604.56,-380 1629.95,-380 1653.64,-380"/>
<polygon fill="midnightblue" stroke="midnightblue" points="1653.67,-383.5 1663.67,-380 1653.67,-376.5 1653.67,-383.5"/>
</g>
<!-- Node18&#45;&gt;Node5 -->
<g id="edge46" class="edge"><title>Node18&#45;&gt;Node5</title>
<path fill="none" stroke="midnightblue" d="M1330.25,-161.54C1362.93,-166.803 1403.69,-173.365 1437.83,-178.862"/>
<polygon fill="midnightblue" stroke="midnightblue" points="1437.3,-182.322 1447.73,-180.456 1438.41,-175.411 1437.3,-182.322"/>
</g>
<!-- Node19 -->
<g id="node43" class="node"><title>Node19</title>
<a xlink:href="namespaceforcebalance_1_1nifty.html#a11babd62dc7bca389162c6318f9672ca" target="_top" xlink:title="Cool&#45;looking printout for slick formatting of output.">
<polygon fill="white" stroke="black" points="1436,-104.5 1436,-123.5 1580,-123.5 1580,-104.5 1436,-104.5"/>
<text text-anchor="middle" x="1508" y="-111.5" font-family="Ubuntu-R" font-size="10.00">forcebalance.nifty.printcool</text>
</a>
</g>
<!-- Node18&#45;&gt;Node19 -->
<g id="edge48" class="edge"><title>Node18&#45;&gt;Node19</title>
<path fill="none" stroke="midnightblue" d="M1330.25,-142.46C1362.93,-137.197 1403.69,-130.635 1437.83,-125.138"/>
<polygon fill="midnightblue" stroke="midnightblue" points="1438.41,-128.589 1447.73,-123.544 1437.3,-121.678 1438.41,-128.589"/>
</g>
<!-- Node27 -->
<g id="node63" class="node"><title>Node27</title>
<a xlink:href="classforcebalance_1_1forcefield_1_1FF.html#acf0ce8fc4e9fbf5257f93d14d4a4f10f" target="_top" xlink:title="Create the transformation matrix to rescale and rotate the mathematical parameters.">
<polygon fill="white" stroke="black" points="1408.5,-142.5 1408.5,-161.5 1607.5,-161.5 1607.5,-142.5 1408.5,-142.5"/>
<text text-anchor="middle" x="1508" y="-149.5" font-family="Ubuntu-R" font-size="10.00">forcebalance.forcefield.FF.mktransmat</text>
</a>
</g>
<!-- Node18&#45;&gt;Node27 -->
<g id="edge72" class="edge"><title>Node18&#45;&gt;Node27</title>
<path fill="none" stroke="midnightblue" d="M1358.21,-152C1371.18,-152 1384.69,-152 1398.04,-152"/>
<polygon fill="midnightblue" stroke="midnightblue" points="1398.21,-155.5 1408.21,-152 1398.21,-148.5 1398.21,-155.5"/>
</g>
<!-- Node19&#45;&gt;Node6 -->
<g id="edge50" class="edge"><title>Node19&#45;&gt;Node6</title>
<path fill="none" stroke="midnightblue" d="M1567.24,-104.46C1599.24,-99.2201 1639.1,-92.6912 1672.57,-87.2091"/>
<polygon fill="midnightblue" stroke="midnightblue" points="1673.43,-90.6143 1682.73,-85.5439 1672.3,-83.7064 1673.43,-90.6143"/>
</g>
<!-- Node20 -->
<g id="node46" class="node"><title>Node20</title>
<a xlink:href="namespaceforcebalance_1_1nifty.html#a51180e960742cc7547749fdfb3513ec4" target="_top" xlink:title="See documentation for printcool; this is a nice way to print out keys/values in a dictionary...">
<polygon fill="white" stroke="black" points="1644,-104.5 1644,-123.5 1840,-123.5 1840,-104.5 1644,-104.5"/>
<text text-anchor="middle" x="1742" y="-111.5" font-family="Ubuntu-R" font-size="10.00">forcebalance.nifty.printcool_dictionary</text>
</a>
</g>
<!-- Node19&#45;&gt;Node20 -->
<g id="edge52" class="edge"><title>Node19&#45;&gt;Node20</title>
<path fill="none" stroke="midnightblue" d="M1580.18,-114C1597.15,-114 1615.64,-114 1633.83,-114"/>
<polygon fill="midnightblue" stroke="midnightblue" points="1633.89,-117.5 1643.89,-114 1633.89,-110.5 1633.89,-117.5"/>
</g>
<!-- Node21 -->
<g id="node48" class="node"><title>Node21</title>
<a xlink:href="namespaceforcebalance_1_1nifty.html#a3f1c7a1af9d35d5d1693074bc6f5497c" target="_top" xlink:title="ONLY matches integers! If you have a decimal point? None shall pass!">
<polygon fill="white" stroke="black" points="1916,-142.5 1916,-161.5 2038,-161.5 2038,-142.5 1916,-142.5"/>
<text text-anchor="middle" x="1977" y="-149.5" font-family="Ubuntu-R" font-size="10.00">forcebalance.nifty.isint</text>
</a>
</g>
<!-- Node20&#45;&gt;Node21 -->
<g id="edge54" class="edge"><title>Node20&#45;&gt;Node21</title>
<path fill="none" stroke="midnightblue" d="M1801.49,-123.54C1833.62,-128.78 1873.66,-135.309 1907.27,-140.791"/>
<polygon fill="midnightblue" stroke="midnightblue" points="1907.05,-144.301 1917.48,-142.456 1908.17,-137.392 1907.05,-144.301"/>
</g>
<!-- Node23 -->
<g id="node52" class="node"><title>Node23</title>
<a xlink:href="namespaceforcebalance_1_1nifty.html#a8e3ef0108b9d37b82ba0dced7c6037ae" target="_top" xlink:title="Matches ANY number; it can be a decimal, scientific notation, what have you CAUTION &#45; this will also ...">
<polygon fill="white" stroke="black" points="2298.5,-142.5 2298.5,-161.5 2429.5,-161.5 2429.5,-142.5 2298.5,-142.5"/>
<text text-anchor="middle" x="2364" y="-149.5" font-family="Ubuntu-R" font-size="10.00">forcebalance.nifty.isfloat</text>
</a>
</g>
<!-- Node20&#45;&gt;Node23 -->
<g id="edge70" class="edge"><title>Node20&#45;&gt;Node23</title>
<path fill="none" stroke="midnightblue" d="M1840.13,-119.254C1907.01,-122.934 1997.91,-128.059 2078,-133 2149.44,-137.407 2230.92,-142.884 2288.41,-146.824"/>
<polygon fill="midnightblue" stroke="midnightblue" points="2288.28,-150.323 2298.49,-147.517 2288.76,-143.34 2288.28,-150.323"/>
</g>
<!-- Node22 -->
<g id="node50" class="node"><title>Node22</title>
<a xlink:href="namespaceforcebalance_1_1nifty.html#a09263927eaec9deff283fbf1a820242f" target="_top" xlink:title="Matches things with a decimal only; see isint and isfloat.">
<polygon fill="white" stroke="black" points="2114,-180.5 2114,-199.5 2262,-199.5 2262,-180.5 2114,-180.5"/>
<text text-anchor="middle" x="2188" y="-187.5" font-family="Ubuntu-R" font-size="10.00">forcebalance.nifty.isdecimal</text>
</a>
</g>
<!-- Node21&#45;&gt;Node22 -->
<g id="edge56" class="edge"><title>Node21&#45;&gt;Node22</title>
<path fill="none" stroke="midnightblue" d="M2030.47,-161.54C2059.04,-166.735 2094.58,-173.196 2124.57,-178.649"/>
<polygon fill="midnightblue" stroke="midnightblue" points="2124.04,-182.111 2134.51,-180.456 2125.3,-175.224 2124.04,-182.111"/>
</g>
<!-- Node22&#45;&gt;Node14 -->
<g id="edge68" class="edge"><title>Node22&#45;&gt;Node14</title>
<path fill="none" stroke="midnightblue" d="M2218.12,-199.541C2247.23,-209.076 2292.16,-223.794 2324.26,-234.31"/>
<polygon fill="midnightblue" stroke="midnightblue" points="2323.19,-237.641 2333.78,-237.428 2325.37,-230.989 2323.19,-237.641"/>
</g>
<!-- Node22&#45;&gt;Node23 -->
<g id="edge58" class="edge"><title>Node22&#45;&gt;Node23</title>
<path fill="none" stroke="midnightblue" d="M2232.91,-180.411C2256.18,-175.329 2284.95,-169.045 2309.52,-163.68"/>
<polygon fill="midnightblue" stroke="midnightblue" points="2310.39,-167.073 2319.41,-161.52 2308.89,-160.234 2310.39,-167.073"/>
</g>
<!-- Node23&#45;&gt;Node21 -->
<g id="edge60" class="edge"><title>Node23&#45;&gt;Node21</title>
<path fill="none" stroke="midnightblue" d="M2298.45,-152C2229.26,-152 2119.77,-152 2048.4,-152"/>
<polygon fill="midnightblue" stroke="midnightblue" points="2048.16,-148.5 2038.16,-152 2048.16,-155.5 2048.16,-148.5"/>
</g>
<!-- Node24 -->
<g id="node55" class="node"><title>Node24</title>
<a xlink:href="namespaceforcebalance_1_1nifty.html#a8d63c8ae9a67c66673a6cf81357f827d" target="_top" xlink:title="Returns a big number if we encounter NaN.">
<polygon fill="white" stroke="black" points="2466,-142.5 2466,-161.5 2618,-161.5 2618,-142.5 2466,-142.5"/>
<text text-anchor="middle" x="2542" y="-149.5" font-family="Ubuntu-R" font-size="10.00">forcebalance.nifty.floatornan</text>
</a>
</g>
<!-- Node23&#45;&gt;Node24 -->
<g id="edge62" class="edge"><title>Node23&#45;&gt;Node24</title>
<path fill="none" stroke="midnightblue" d="M2429.54,-152C2438,-152 2446.77,-152 2455.51,-152"/>
<polygon fill="midnightblue" stroke="midnightblue" points="2455.74,-155.5 2465.74,-152 2455.74,-148.5 2455.74,-155.5"/>
</g>
<!-- Node25 -->
<g id="node57" class="node"><title>Node25</title>
<a xlink:href="namespaceforcebalance_1_1nifty.html#a6c9727360cdff8f3011a12cc54d0e86e" target="_top" xlink:title="Given any list, array, or matrix, return a 1&#45;row matrix.">
<polygon fill="white" stroke="black" points="2654.5,-142.5 2654.5,-161.5 2773.5,-161.5 2773.5,-142.5 2654.5,-142.5"/>
<text text-anchor="middle" x="2714" y="-149.5" font-family="Ubuntu-R" font-size="10.00">forcebalance.nifty.row</text>
</a>
</g>
<!-- Node24&#45;&gt;Node25 -->
<g id="edge64" class="edge"><title>Node24&#45;&gt;Node25</title>
<path fill="none" stroke="midnightblue" d="M2618.06,-152C2626.82,-152 2635.72,-152 2644.38,-152"/>
<polygon fill="midnightblue" stroke="midnightblue" points="2644.43,-155.5 2654.42,-152 2644.42,-148.5 2644.43,-155.5"/>
</g>
<!-- Node26 -->
<g id="node59" class="node"><title>Node26</title>
<a xlink:href="namespaceforcebalance_1_1nifty.html#a7676236002c6a65ea7d2e69a09923889" target="_top" xlink:title="Given two vectors vec1 and vec2, project out the component of vec1 that is along the vec2&#45;direction...">
<polygon fill="white" stroke="black" points="2810,-142.5 2810,-161.5 2978,-161.5 2978,-142.5 2810,-142.5"/>
<text text-anchor="middle" x="2894" y="-149.5" font-family="Ubuntu-R" font-size="10.00">forcebalance.nifty.orthogonalize</text>
</a>
</g>
<!-- Node25&#45;&gt;Node26 -->
<g id="edge66" class="edge"><title>Node25&#45;&gt;Node26</title>
<path fill="none" stroke="midnightblue" d="M2773.78,-152C2782.07,-152 2790.77,-152 2799.52,-152"/>
<polygon fill="midnightblue" stroke="midnightblue" points="2799.8,-155.5 2809.8,-152 2799.8,-148.5 2799.8,-155.5"/>
</g>
<!-- Node28&#45;&gt;Node6 -->
<g id="edge82" class="edge"><title>Node28&#45;&gt;Node6</title>
<path fill="none" stroke="midnightblue" d="M634.103,-137.462C653.097,-135.461 673.238,-133.505 692,-132 1040.99,-104.009 1456.45,-86.5081 1642.45,-79.5044"/>
<polygon fill="midnightblue" stroke="midnightblue" points="1642.62,-83.0006 1652.48,-79.1284 1642.35,-76.0055 1642.62,-83.0006"/>
</g>
<!-- Node28&#45;&gt;Node9 -->
<g id="edge76" class="edge"><title>Node28&#45;&gt;Node9</title>
<path fill="none" stroke="midnightblue" d="M641.278,-137.494C713.028,-133.485 814.867,-136.141 896,-171 915.942,-179.568 912.848,-193.787 932,-204 940.895,-208.743 950.737,-212.564 960.663,-215.638"/>
<polygon fill="midnightblue" stroke="midnightblue" points="960.009,-219.091 970.586,-218.47 961.93,-212.36 960.009,-219.091"/>
</g>
<!-- Node29 -->
<g id="node68" class="node"><title>Node29</title>
<a xlink:href="classforcebalance_1_1forcefield_1_1FF.html#a2515e2361eb460edeab69f3d7742d3d9" target="_top" xlink:title="forcebalance.forcefield.FF.find_spacings">
<polygon fill="white" stroke="black" points="692,-180.5 692,-199.5 896,-199.5 896,-180.5 692,-180.5"/>
<text text-anchor="middle" x="794" y="-187.5" font-family="Ubuntu-R" font-size="10.00">forcebalance.forcefield.FF.find_spacings</text>
</a>
</g>
<!-- Node28&#45;&gt;Node29 -->
<g id="edge78" class="edge"><title>Node28&#45;&gt;Node29</title>
<path fill="none" stroke="midnightblue" d="M605.486,-156.543C642.147,-163.084 690.944,-171.791 729.569,-178.682"/>
<polygon fill="midnightblue" stroke="midnightblue" points="729.204,-182.173 739.664,-180.484 730.434,-175.281 729.204,-182.173"/>
</g>
<!-- Node29&#45;&gt;Node9 -->
<g id="edge80" class="edge"><title>Node29&#45;&gt;Node9</title>
<path fill="none" stroke="midnightblue" d="M854.248,-199.54C886.932,-204.803 927.688,-211.365 961.826,-216.862"/>
<polygon fill="midnightblue" stroke="midnightblue" points="961.298,-220.322 971.727,-218.456 962.411,-213.411 961.298,-220.322"/>
</g>
</g>
</svg>
