<?xml version="1.0" encoding="UTF-8" standalone="no"?>
<!DOCTYPE svg PUBLIC "-//W3C//DTD SVG 1.1//EN"
 "http://www.w3.org/Graphics/SVG/1.1/DTD/svg11.dtd">
<!-- Generated by graphviz version 2.26.3 (20100126.1600)
 -->
<!-- Title: forcebalance.forcefield.FF.make_redirect Pages: 1 -->
<svg width="2066pt" height="383pt"
 viewBox="0.00 0.00 2066.00 382.80" xmlns="http://www.w3.org/2000/svg" xmlns:xlink="http://www.w3.org/1999/xlink">
<g id="graph1" class="graph" transform="scale(1 1) rotate(0) translate(4 378.796)">
<title>forcebalance.forcefield.FF.make_redirect</title>
<polygon fill="white" stroke="white" points="-4,5 -4,-378.796 2063,-378.796 2063,5 -4,5"/>
<!-- Node1 -->
<g id="node1" class="node"><title>Node1</title>
<polygon fill="#bfbfbf" stroke="black" points="0.5,-185 0.5,-219 127.5,-219 127.5,-185 0.5,-185"/>
<text text-anchor="start" x="8.5" y="-206" font-family="Ubuntu-R" font-size="10.00">forcebalance.forcefield.</text>
<text text-anchor="middle" x="64" y="-193" font-family="Ubuntu-R" font-size="10.00">FF.make_redirect</text>
</g>
<!-- Node2 -->
<g id="node3" class="node"><title>Node2</title>
<a xlink:href="classforcebalance_1_1forcefield_1_1FF.html#a260031479e0429e497f56987de541930" target="_top" xlink:title="Converts mathematical to physical parameters.">
<polygon fill="white" stroke="black" points="328.5,-140 328.5,-174 455.5,-174 455.5,-140 328.5,-140"/>
<text text-anchor="start" x="336.5" y="-161" font-family="Ubuntu-R" font-size="10.00">forcebalance.forcefield.</text>
<text text-anchor="middle" x="392" y="-148" font-family="Ubuntu-R" font-size="10.00">FF.create_pvals</text>
</a>
</g>
<!-- Node1&#45;&gt;Node2 -->
<g id="edge2" class="edge"><title>Node1&#45;&gt;Node2</title>
<path fill="none" stroke="midnightblue" d="M127.758,-199.611C173.682,-197.181 236.985,-192.373 292,-183 302.252,-181.253 312.988,-178.964 323.465,-176.469"/>
<polygon fill="midnightblue" stroke="midnightblue" points="324.531,-179.811 333.405,-174.023 322.859,-173.013 324.531,-179.811"/>
</g>
<!-- Node7 -->
<g id="node15" class="node"><title>Node7</title>
<a xlink:href="namespaceforcebalance_1_1nifty.html#abb8f59044961a12588e0653c2baa8b01" target="_top" xlink:title="forcebalance.nifty.warn\l_press_key">
<polygon fill="white" stroke="black" points="859.5,-228 859.5,-262 984.5,-262 984.5,-228 859.5,-228"/>
<text text-anchor="start" x="867.5" y="-249" font-family="Ubuntu-R" font-size="10.00">forcebalance.nifty.warn</text>
<text text-anchor="middle" x="922" y="-236" font-family="Ubuntu-R" font-size="10.00">_press_key</text>
</a>
</g>
<!-- Node1&#45;&gt;Node7 -->
<g id="edge62" class="edge"><title>Node1&#45;&gt;Node7</title>
<path fill="none" stroke="midnightblue" d="M83.4973,-219.21C131.98,-260.16 263.374,-360 392,-360 392,-360 392,-360 556,-360 668.318,-360 714.391,-403.071 808,-341 837.157,-321.667 817.441,-293.771 844,-271 845.991,-269.293 848.098,-267.697 850.295,-266.205"/>
<polygon fill="midnightblue" stroke="midnightblue" points="852.337,-269.063 859.151,-260.95 848.765,-263.043 852.337,-269.063"/>
</g>
<!-- Node22 -->
<g id="node51" class="node"><title>Node22</title>
<a xlink:href="classforcebalance_1_1forcefield_1_1FF.html#a2515e2361eb460edeab69f3d7742d3d9" target="_top" xlink:title="forcebalance.forcefield.\lFF.find_spacings">
<polygon fill="white" stroke="black" points="164.5,-140 164.5,-174 291.5,-174 291.5,-140 164.5,-140"/>
<text text-anchor="start" x="172.5" y="-161" font-family="Ubuntu-R" font-size="10.00">forcebalance.forcefield.</text>
<text text-anchor="middle" x="228" y="-148" font-family="Ubuntu-R" font-size="10.00">FF.find_spacings</text>
</a>
</g>
<!-- Node1&#45;&gt;Node22 -->
<g id="edge58" class="edge"><title>Node1&#45;&gt;Node22</title>
<path fill="none" stroke="midnightblue" d="M126.001,-184.987C135.798,-182.299 146,-179.5 156,-176.756"/>
<polygon fill="midnightblue" stroke="midnightblue" points="157.194,-180.058 165.911,-174.037 155.341,-173.308 157.194,-180.058"/>
</g>
<!-- Node3 -->
<g id="node5" class="node"><title>Node3</title>
<a xlink:href="namespaceforcebalance_1_1nifty.html#a52114ceee9d55f94d9aecb3e176de294" target="_top" xlink:title="Given any list, array, or matrix, return a single&#45;index array.">
<polygon fill="white" stroke="black" points="497.5,-127.5 497.5,-148.5 614.5,-148.5 614.5,-127.5 497.5,-127.5"/>
<text text-anchor="middle" x="556" y="-135.5" font-family="Ubuntu-R" font-size="10.00">forcebalance.nifty.flat</text>
</a>
</g>
<!-- Node2&#45;&gt;Node3 -->
<g id="edge4" class="edge"><title>Node2&#45;&gt;Node3</title>
<path fill="none" stroke="midnightblue" d="M455.876,-149.6C466.129,-148.412 476.78,-147.178 487.144,-145.977"/>
<polygon fill="midnightblue" stroke="midnightblue" points="487.855,-149.418 497.386,-144.791 487.049,-142.465 487.855,-149.418"/>
</g>
<!-- Node4 -->
<g id="node7" class="node"><title>Node4</title>
<a xlink:href="namespaceforcebalance_1_1nifty.html#a4c82187e92dfeb8a159f4aa44b501c40" target="_top" xlink:title="Invert a matrix using singular value decomposition.">
<polygon fill="white" stroke="black" points="656.5,-166.5 656.5,-187.5 807.5,-187.5 807.5,-166.5 656.5,-166.5"/>
<text text-anchor="middle" x="732" y="-174.5" font-family="Ubuntu-R" font-size="10.00">forcebalance.nifty.invert_svd</text>
</a>
</g>
<!-- Node2&#45;&gt;Node4 -->
<g id="edge26" class="edge"><title>Node2&#45;&gt;Node4</title>
<path fill="none" stroke="midnightblue" d="M455.553,-160.738C509.334,-163.902 586.898,-168.465 646.187,-171.952"/>
<polygon fill="midnightblue" stroke="midnightblue" points="646.097,-175.453 656.286,-172.546 646.508,-168.465 646.097,-175.453"/>
</g>
<!-- Node6 -->
<g id="node12" class="node"><title>Node6</title>
<a xlink:href="namespaceforcebalance_1_1nifty.html#afb3f205bce4984856e766af7e9fdaca8" target="_top" xlink:title="Given any list, array, or matrix, return a 1&#45;column matrix.">
<polygon fill="white" stroke="black" points="1386,-134.5 1386,-155.5 1502,-155.5 1502,-134.5 1386,-134.5"/>
<text text-anchor="middle" x="1444" y="-142.5" font-family="Ubuntu-R" font-size="10.00">forcebalance.nifty.col</text>
</a>
</g>
<!-- Node2&#45;&gt;Node6 -->
<g id="edge18" class="edge"><title>Node2&#45;&gt;Node6</title>
<path fill="none" stroke="midnightblue" d="M428.298,-139.796C489.487,-112.42 617.697,-62 732,-62 732,-62 732,-62 1097,-62 1207.33,-62 1235.98,-71.4672 1342,-102 1366.92,-109.175 1393.9,-120.732 1413.85,-130.058"/>
<polygon fill="midnightblue" stroke="midnightblue" points="1412.51,-133.294 1423.04,-134.428 1415.52,-126.972 1412.51,-133.294"/>
</g>
<!-- Node8 -->
<g id="node18" class="node"><title>Node8</title>
<a xlink:href="classforcebalance_1_1forcefield_1_1FF.html#ae5fba4d3e22f210632ead3653e6e12dd" target="_top" xlink:title="Converts physical to mathematical parameters.">
<polygon fill="white" stroke="black" points="492.5,-0 492.5,-34 619.5,-34 619.5,-0 492.5,-0"/>
<text text-anchor="start" x="500.5" y="-21" font-family="Ubuntu-R" font-size="10.00">forcebalance.forcefield.</text>
<text text-anchor="middle" x="556" y="-8" font-family="Ubuntu-R" font-size="10.00">FF.create_mvals</text>
</a>
</g>
<!-- Node2&#45;&gt;Node8 -->
<g id="edge20" class="edge"><title>Node2&#45;&gt;Node8</title>
<path fill="none" stroke="midnightblue" d="M404.57,-139.625C422.072,-116.384 455.74,-74.9833 492,-48 496.333,-44.7754 501.055,-41.7476 505.905,-38.9434"/>
<polygon fill="midnightblue" stroke="midnightblue" points="507.61,-42 514.718,-34.1434 504.262,-35.8526 507.61,-42"/>
</g>
<!-- Node11 -->
<g id="node25" class="node"><title>Node11</title>
<a xlink:href="classforcebalance_1_1forcefield_1_1FF.html#a88715f96ff8e14c3c83b4f976ad147b4" target="_top" xlink:title="Create the rescaling factors for the coordinate transformation in parameter space.">
<polygon fill="white" stroke="black" points="492.5,-229 492.5,-263 619.5,-263 619.5,-229 492.5,-229"/>
<text text-anchor="start" x="500.5" y="-250" font-family="Ubuntu-R" font-size="10.00">forcebalance.forcefield.</text>
<text text-anchor="middle" x="556" y="-237" font-family="Ubuntu-R" font-size="10.00">FF.rsmake</text>
</a>
</g>
<!-- Node2&#45;&gt;Node11 -->
<g id="edge28" class="edge"><title>Node2&#45;&gt;Node11</title>
<path fill="none" stroke="midnightblue" d="M423.621,-174.16C449.826,-188.381 487.237,-208.684 515.608,-224.08"/>
<polygon fill="midnightblue" stroke="midnightblue" points="514.018,-227.199 524.476,-228.893 517.356,-221.047 514.018,-227.199"/>
</g>
<!-- Node3&#45;&gt;Node4 -->
<g id="edge6" class="edge"><title>Node3&#45;&gt;Node4</title>
<path fill="none" stroke="midnightblue" d="M603.628,-148.554C625.443,-153.388 651.485,-159.159 674.393,-164.235"/>
<polygon fill="midnightblue" stroke="midnightblue" points="673.813,-167.691 684.334,-166.438 675.328,-160.857 673.813,-167.691"/>
</g>
<!-- Node5 -->
<g id="node9" class="node"><title>Node5</title>
<a xlink:href="namespaceforcebalance_1_1nifty.html#aa9fb9c7c65231eca50a7afc04f489b64" target="_top" xlink:title="forcebalance.nifty.get\l_least_squares">
<polygon fill="white" stroke="black" points="863,-128 863,-162 981,-162 981,-128 863,-128"/>
<text text-anchor="start" x="871" y="-149" font-family="Ubuntu-R" font-size="10.00">forcebalance.nifty.get</text>
<text text-anchor="middle" x="922" y="-136" font-family="Ubuntu-R" font-size="10.00">_least_squares</text>
</a>
</g>
<!-- Node4&#45;&gt;Node5 -->
<g id="edge8" class="edge"><title>Node4&#45;&gt;Node5</title>
<path fill="none" stroke="midnightblue" d="M794.476,-166.478C813.088,-163.343 833.593,-159.89 852.617,-156.685"/>
<polygon fill="midnightblue" stroke="midnightblue" points="853.432,-160.098 862.712,-154.985 852.269,-153.195 853.432,-160.098"/>
</g>
<!-- Node4&#45;&gt;Node6 -->
<g id="edge12" class="edge"><title>Node4&#45;&gt;Node6</title>
<path fill="none" stroke="midnightblue" d="M807.687,-176.034C861.379,-175.17 935.131,-173.625 1000,-171 1133.21,-165.61 1288.71,-155.663 1375.83,-149.758"/>
<polygon fill="midnightblue" stroke="midnightblue" points="1376.11,-153.247 1385.85,-149.077 1375.64,-146.264 1376.11,-153.247"/>
</g>
<!-- Node4&#45;&gt;Node7 -->
<g id="edge16" class="edge"><title>Node4&#45;&gt;Node7</title>
<path fill="none" stroke="midnightblue" d="M776.521,-187.59C786.934,-190.377 797.925,-193.572 808,-197 830.728,-204.732 855.346,-214.865 875.869,-223.827"/>
<polygon fill="midnightblue" stroke="midnightblue" points="874.726,-227.148 885.288,-227.983 877.551,-220.744 874.726,-227.148"/>
</g>
<!-- Node5&#45;&gt;Node3 -->
<g id="edge10" class="edge"><title>Node5&#45;&gt;Node3</title>
<path fill="none" stroke="midnightblue" d="M862.735,-143.867C797.777,-142.624 693.691,-140.633 625.08,-139.321"/>
<polygon fill="midnightblue" stroke="midnightblue" points="624.869,-135.817 614.804,-139.125 624.735,-142.815 624.869,-135.817"/>
</g>
<!-- Node6&#45;&gt;Node3 -->
<g id="edge14" class="edge"><title>Node6&#45;&gt;Node3</title>
<path fill="none" stroke="midnightblue" d="M1394.27,-134.449C1327.13,-121.149 1203.61,-100 1097,-100 922,-100 922,-100 922,-100 817.972,-100 698.197,-115.376 624.8,-126.566"/>
<polygon fill="midnightblue" stroke="midnightblue" points="624.107,-123.131 614.758,-128.115 625.175,-130.05 624.107,-123.131"/>
</g>
<!-- Node9 -->
<g id="node20" class="node"><title>Node9</title>
<a xlink:href="namespaceforcebalance_1_1molecule.html#a0dd31eff88d2bed0884ab21a13261d42" target="_top" xlink:title="ONLY matches integers! If you have a decimal point? None shall pass!">
<polygon fill="white" stroke="black" points="658.5,-6.5 658.5,-27.5 805.5,-27.5 805.5,-6.5 658.5,-6.5"/>
<text text-anchor="middle" x="732" y="-14.5" font-family="Ubuntu-R" font-size="10.00">forcebalance.molecule.isint</text>
</a>
</g>
<!-- Node8&#45;&gt;Node9 -->
<g id="edge22" class="edge"><title>Node8&#45;&gt;Node9</title>
<path fill="none" stroke="midnightblue" d="M619.54,-17C628.894,-17 638.649,-17 648.333,-17"/>
<polygon fill="midnightblue" stroke="midnightblue" points="648.38,-20.5001 658.38,-17 648.38,-13.5001 648.38,-20.5001"/>
</g>
<!-- Node10 -->
<g id="node22" class="node"><title>Node10</title>
<a xlink:href="namespaceforcebalance_1_1molecule.html#afe989ffd119568047fc8265b1d329a70" target="_top" xlink:title="Matches ANY number; it can be a decimal, scientific notation, integer, or what have you...">
<polygon fill="white" stroke="black" points="844,-6.5 844,-27.5 1000,-27.5 1000,-6.5 844,-6.5"/>
<text text-anchor="middle" x="922" y="-14.5" font-family="Ubuntu-R" font-size="10.00">forcebalance.molecule.isfloat</text>
</a>
</g>
<!-- Node9&#45;&gt;Node10 -->
<g id="edge24" class="edge"><title>Node9&#45;&gt;Node10</title>
<path fill="none" stroke="midnightblue" d="M805.731,-17C814.923,-17 824.396,-17 833.78,-17"/>
<polygon fill="midnightblue" stroke="midnightblue" points="833.91,-20.5001 843.91,-17 833.91,-13.5001 833.91,-20.5001"/>
</g>
<!-- Node12 -->
<g id="node27" class="node"><title>Node12</title>
<a xlink:href="namespaceforcebalance_1_1forcefield.html#ab1a855bace20dd5e45928467e2a133f1" target="_top" xlink:title="This function takes in a dictionary (rsfactors) and a string (termtype).">
<polygon fill="white" stroke="black" points="664,-298 664,-332 800,-332 800,-298 664,-298"/>
<text text-anchor="start" x="672" y="-319" font-family="Ubuntu-R" font-size="10.00">forcebalance.forcefield.rs</text>
<text text-anchor="middle" x="732" y="-306" font-family="Ubuntu-R" font-size="10.00">_override</text>
</a>
</g>
<!-- Node11&#45;&gt;Node12 -->
<g id="edge30" class="edge"><title>Node11&#45;&gt;Node12</title>
<path fill="none" stroke="midnightblue" d="M593.708,-263.023C612.32,-271.218 635.192,-280.981 656,-289 660.758,-290.834 665.706,-292.674 670.695,-294.481"/>
<polygon fill="midnightblue" stroke="midnightblue" points="669.702,-297.843 680.297,-297.907 672.054,-291.25 669.702,-297.843"/>
</g>
<!-- Node13 -->
<g id="node29" class="node"><title>Node13</title>
<a xlink:href="namespaceforcebalance_1_1nifty.html#a11babd62dc7bca389162c6318f9672ca" target="_top" xlink:title="Cool&#45;looking printout for slick formatting of output.">
<polygon fill="white" stroke="black" points="660,-258.5 660,-279.5 804,-279.5 804,-258.5 660,-258.5"/>
<text text-anchor="middle" x="732" y="-266.5" font-family="Ubuntu-R" font-size="10.00">forcebalance.nifty.printcool</text>
</a>
</g>
<!-- Node11&#45;&gt;Node13 -->
<g id="edge32" class="edge"><title>Node11&#45;&gt;Node13</title>
<path fill="none" stroke="midnightblue" d="M619.54,-254.304C629.362,-255.587 639.625,-256.928 649.785,-258.256"/>
<polygon fill="midnightblue" stroke="midnightblue" points="649.521,-261.751 659.89,-259.577 650.428,-254.81 649.521,-261.751"/>
</g>
<!-- Node21 -->
<g id="node49" class="node"><title>Node21</title>
<a xlink:href="classforcebalance_1_1forcefield_1_1FF.html#acf0ce8fc4e9fbf5257f93d14d4a4f10f" target="_top" xlink:title="Create the transformation matrix to rescale and rotate the mathematical parameters.">
<polygon fill="white" stroke="black" points="668.5,-206 668.5,-240 795.5,-240 795.5,-206 668.5,-206"/>
<text text-anchor="start" x="676.5" y="-227" font-family="Ubuntu-R" font-size="10.00">forcebalance.forcefield.</text>
<text text-anchor="middle" x="732" y="-214" font-family="Ubuntu-R" font-size="10.00">FF.mktransmat</text>
</a>
</g>
<!-- Node11&#45;&gt;Node21 -->
<g id="edge56" class="edge"><title>Node11&#45;&gt;Node21</title>
<path fill="none" stroke="midnightblue" d="M619.54,-237.696C632.049,-236.062 645.274,-234.334 658.089,-232.659"/>
<polygon fill="midnightblue" stroke="midnightblue" points="658.796,-236.096 668.258,-231.33 657.889,-229.155 658.796,-236.096"/>
</g>
<!-- Node13&#45;&gt;Node7 -->
<g id="edge34" class="edge"><title>Node13&#45;&gt;Node7</title>
<path fill="none" stroke="midnightblue" d="M804.102,-259.892C818.858,-258.028 834.398,-256.066 849.179,-254.198"/>
<polygon fill="midnightblue" stroke="midnightblue" points="849.79,-257.649 859.272,-252.924 848.912,-250.704 849.79,-257.649"/>
</g>
<!-- Node14 -->
<g id="node32" class="node"><title>Node14</title>
<a xlink:href="namespaceforcebalance_1_1nifty.html#a51180e960742cc7547749fdfb3513ec4" target="_top" xlink:title="See documentation for printcool; this is a nice way to print out keys/values in a dictionary...">
<polygon fill="white" stroke="black" points="850,-280 850,-314 994,-314 994,-280 850,-280"/>
<text text-anchor="start" x="858" y="-301" font-family="Ubuntu-R" font-size="10.00">forcebalance.nifty.printcool</text>
<text text-anchor="middle" x="922" y="-288" font-family="Ubuntu-R" font-size="10.00">_dictionary</text>
</a>
</g>
<!-- Node13&#45;&gt;Node14 -->
<g id="edge36" class="edge"><title>Node13&#45;&gt;Node14</title>
<path fill="none" stroke="midnightblue" d="M803.29,-279.506C815.218,-281.264 827.679,-283.1 839.854,-284.894"/>
<polygon fill="midnightblue" stroke="midnightblue" points="839.591,-288.393 849.995,-286.389 840.612,-281.468 839.591,-288.393"/>
</g>
<!-- Node15 -->
<g id="node34" class="node"><title>Node15</title>
<a xlink:href="namespaceforcebalance_1_1nifty.html#a3f1c7a1af9d35d5d1693074bc6f5497c" target="_top" xlink:title="ONLY matches integers! If you have a decimal point? None shall pass!">
<polygon fill="white" stroke="black" points="1036,-256.5 1036,-277.5 1158,-277.5 1158,-256.5 1036,-256.5"/>
<text text-anchor="middle" x="1097" y="-264.5" font-family="Ubuntu-R" font-size="10.00">forcebalance.nifty.isint</text>
</a>
</g>
<!-- Node14&#45;&gt;Node15 -->
<g id="edge38" class="edge"><title>Node14&#45;&gt;Node15</title>
<path fill="none" stroke="midnightblue" d="M994.19,-284.625C1004.68,-282.827 1015.47,-280.977 1025.94,-279.183"/>
<polygon fill="midnightblue" stroke="midnightblue" points="1026.58,-282.622 1035.85,-277.483 1025.4,-275.723 1026.58,-282.622"/>
</g>
<!-- Node17 -->
<g id="node38" class="node"><title>Node17</title>
<a xlink:href="namespaceforcebalance_1_1nifty.html#a8e3ef0108b9d37b82ba0dced7c6037ae" target="_top" xlink:title="Matches ANY number; it can be a decimal, scientific notation, what have you CAUTION &#45; this will also ...">
<polygon fill="white" stroke="black" points="1378.5,-257.5 1378.5,-278.5 1509.5,-278.5 1509.5,-257.5 1378.5,-257.5"/>
<text text-anchor="middle" x="1444" y="-265.5" font-family="Ubuntu-R" font-size="10.00">forcebalance.nifty.isfloat</text>
</a>
</g>
<!-- Node14&#45;&gt;Node17 -->
<g id="edge54" class="edge"><title>Node14&#45;&gt;Node17</title>
<path fill="none" stroke="midnightblue" d="M994.206,-296.193C1077.98,-294.807 1220.19,-291.063 1342,-281 1350.53,-280.295 1359.45,-279.398 1368.3,-278.406"/>
<polygon fill="midnightblue" stroke="midnightblue" points="1368.72,-281.881 1378.25,-277.25 1367.91,-274.928 1368.72,-281.881"/>
</g>
<!-- Node16 -->
<g id="node36" class="node"><title>Node16</title>
<a xlink:href="namespaceforcebalance_1_1nifty.html#a09263927eaec9deff283fbf1a820242f" target="_top" xlink:title="Matches things with a decimal only; see isint and isfloat.">
<polygon fill="white" stroke="black" points="1194.5,-218.5 1194.5,-239.5 1341.5,-239.5 1341.5,-218.5 1194.5,-218.5"/>
<text text-anchor="middle" x="1268" y="-226.5" font-family="Ubuntu-R" font-size="10.00">forcebalance.nifty.isdecimal</text>
</a>
</g>
<!-- Node15&#45;&gt;Node16 -->
<g id="edge40" class="edge"><title>Node15&#45;&gt;Node16</title>
<path fill="none" stroke="midnightblue" d="M1144.63,-256.415C1165.11,-251.865 1189.21,-246.508 1210.66,-241.743"/>
<polygon fill="midnightblue" stroke="midnightblue" points="1211.62,-245.114 1220.62,-239.528 1210.1,-238.281 1211.62,-245.114"/>
</g>
<!-- Node16&#45;&gt;Node6 -->
<g id="edge52" class="edge"><title>Node16&#45;&gt;Node6</title>
<path fill="none" stroke="midnightblue" d="M1303.93,-218.449C1316.21,-214.429 1329.89,-209.481 1342,-204 1369.47,-191.562 1399.13,-173.884 1419.35,-161.125"/>
<polygon fill="midnightblue" stroke="midnightblue" points="1421.38,-163.977 1427.93,-155.646 1417.62,-158.077 1421.38,-163.977"/>
</g>
<!-- Node16&#45;&gt;Node17 -->
<g id="edge42" class="edge"><title>Node16&#45;&gt;Node17</title>
<path fill="none" stroke="midnightblue" d="M1315.63,-239.554C1337.44,-244.388 1363.48,-250.159 1386.39,-255.235"/>
<polygon fill="midnightblue" stroke="midnightblue" points="1385.81,-258.691 1396.33,-257.438 1387.33,-251.857 1385.81,-258.691"/>
</g>
<!-- Node17&#45;&gt;Node15 -->
<g id="edge44" class="edge"><title>Node17&#45;&gt;Node15</title>
<path fill="none" stroke="midnightblue" d="M1378.36,-267.811C1318.4,-267.638 1229.95,-267.383 1168.28,-267.205"/>
<polygon fill="midnightblue" stroke="midnightblue" points="1168.25,-263.705 1158.24,-267.176 1168.23,-270.705 1168.25,-263.705"/>
</g>
<!-- Node18 -->
<g id="node41" class="node"><title>Node18</title>
<a xlink:href="namespaceforcebalance_1_1nifty.html#a8d63c8ae9a67c66673a6cf81357f827d" target="_top" xlink:title="Returns a big number if we encounter NaN.">
<polygon fill="white" stroke="black" points="1546.5,-257.5 1546.5,-278.5 1697.5,-278.5 1697.5,-257.5 1546.5,-257.5"/>
<text text-anchor="middle" x="1622" y="-265.5" font-family="Ubuntu-R" font-size="10.00">forcebalance.nifty.floatornan</text>
</a>
</g>
<!-- Node17&#45;&gt;Node18 -->
<g id="edge46" class="edge"><title>Node17&#45;&gt;Node18</title>
<path fill="none" stroke="midnightblue" d="M1509.52,-268C1518.24,-268 1527.28,-268 1536.27,-268"/>
<polygon fill="midnightblue" stroke="midnightblue" points="1536.38,-271.5 1546.38,-268 1536.38,-264.5 1536.38,-271.5"/>
</g>
<!-- Node19 -->
<g id="node43" class="node"><title>Node19</title>
<a xlink:href="namespaceforcebalance_1_1nifty.html#a6c9727360cdff8f3011a12cc54d0e86e" target="_top" xlink:title="Given any list, array, or matrix, return a 1&#45;row matrix.">
<polygon fill="white" stroke="black" points="1734.5,-257.5 1734.5,-278.5 1853.5,-278.5 1853.5,-257.5 1734.5,-257.5"/>
<text text-anchor="middle" x="1794" y="-265.5" font-family="Ubuntu-R" font-size="10.00">forcebalance.nifty.row</text>
</a>
</g>
<!-- Node18&#45;&gt;Node19 -->
<g id="edge48" class="edge"><title>Node18&#45;&gt;Node19</title>
<path fill="none" stroke="midnightblue" d="M1697.69,-268C1706.5,-268 1715.46,-268 1724.18,-268"/>
<polygon fill="midnightblue" stroke="midnightblue" points="1724.3,-271.5 1734.3,-268 1724.3,-264.5 1724.3,-271.5"/>
</g>
<!-- Node20 -->
<g id="node45" class="node"><title>Node20</title>
<a xlink:href="namespaceforcebalance_1_1nifty.html#a7676236002c6a65ea7d2e69a09923889" target="_top" xlink:title="Given two vectors vec1 and vec2, project out the component of vec1 that is along the vec2&#45;direction...">
<polygon fill="white" stroke="black" points="1890,-257.5 1890,-278.5 2058,-278.5 2058,-257.5 1890,-257.5"/>
<text text-anchor="middle" x="1974" y="-265.5" font-family="Ubuntu-R" font-size="10.00">forcebalance.nifty.orthogonalize</text>
</a>
</g>
<!-- Node19&#45;&gt;Node20 -->
<g id="edge50" class="edge"><title>Node19&#45;&gt;Node20</title>
<path fill="none" stroke="midnightblue" d="M1853.94,-268C1862.24,-268 1870.94,-268 1879.68,-268"/>
<polygon fill="midnightblue" stroke="midnightblue" points="1879.96,-271.5 1889.96,-268 1879.96,-264.5 1879.96,-271.5"/>
</g>
<!-- Node22&#45;&gt;Node2 -->
<g id="edge60" class="edge"><title>Node22&#45;&gt;Node2</title>
<path fill="none" stroke="midnightblue" d="M291.876,-157C300.474,-157 309.351,-157 318.104,-157"/>
<polygon fill="midnightblue" stroke="midnightblue" points="318.298,-160.5 328.298,-157 318.298,-153.5 318.298,-160.5"/>
</g>
</g>
</svg>
