<?xml version="1.0" encoding="UTF-8" standalone="no"?>
<!DOCTYPE svg PUBLIC "-//W3C//DTD SVG 1.1//EN"
 "http://www.w3.org/Graphics/SVG/1.1/DTD/svg11.dtd">
<!-- Generated by graphviz version 2.32.0 (20130801.1845)
 -->
<!-- Title: forcebalance.tinkerio.Liquid_TINKER.__init__ Pages: 1 -->
<svg width="478pt" height="40pt"
 viewBox="0.00 0.00 478.00 40.00" xmlns="http://www.w3.org/2000/svg" xmlns:xlink="http://www.w3.org/1999/xlink">
<g id="graph0" class="graph" transform="scale(1 1) rotate(0) translate(4 36)">
<title>forcebalance.tinkerio.Liquid_TINKER.__init__</title>
<polygon fill="white" stroke="white" points="-4,5 -4,-36 475,-36 475,5 -4,5"/>
<!-- Node1 -->
<g id="node1" class="node"><title>Node1</title>
<polygon fill="#bfbfbf" stroke="black" points="0.0785,-0 0.0785,-32 129.922,-32 129.922,-0 0.0785,-0"/>
<text text-anchor="start" x="8.0785" y="-19" font-family="Ubuntu-R" font-size="10.00">forcebalance.tinkerio.Liquid</text>
<text text-anchor="middle" x="65" y="-7" font-family="Ubuntu-R" font-size="10.00">_TINKER.__init__</text>
</g>
<!-- Node2 -->
<g id="node2" class="node"><title>Node2</title>
<g id="a_node2"><a xlink:href="namespaceforcebalance_1_1nifty.html#abb8f59044961a12588e0653c2baa8b01" target="_top" xlink:title="forcebalance.nifty.warn\l_press_key">
<polygon fill="white" stroke="black" points="166.528,-0 166.528,-32 277.473,-32 277.473,-0 166.528,-0"/>
<text text-anchor="start" x="174.528" y="-19" font-family="Ubuntu-R" font-size="10.00">forcebalance.nifty.warn</text>
<text text-anchor="middle" x="222" y="-7" font-family="Ubuntu-R" font-size="10.00">_press_key</text>
</a>
</g>
</g>
<!-- Node1&#45;&gt;Node2 -->
<g id="edge1" class="edge"><title>Node1&#45;&gt;Node2</title>
<path fill="none" stroke="midnightblue" d="M129.939,-16C138.57,-16 147.433,-16 156.081,-16"/>
<polygon fill="midnightblue" stroke="midnightblue" points="156.107,-19.5001 166.107,-16 156.107,-12.5001 156.107,-19.5001"/>
</g>
<!-- Node3 -->
<g id="node3" class="node"><title>Node3</title>
<g id="a_node3"><a xlink:href="namespaceforcebalance_1_1nifty.html#a2fc81730e7efa7d138dd86f733507bfc" target="_top" xlink:title="Similar to the bultin function map().">
<polygon fill="white" stroke="black" points="314.035,-6 314.035,-26 469.965,-26 469.965,-6 314.035,-6"/>
<text text-anchor="middle" x="392" y="-13" font-family="Ubuntu-R" font-size="10.00">forcebalance.nifty.concurrent_map</text>
</a>
</g>
</g>
<!-- Node2&#45;&gt;Node3 -->
<g id="edge2" class="edge"><title>Node2&#45;&gt;Node3</title>
<path fill="none" stroke="midnightblue" d="M277.545,-16C285.968,-16 294.843,-16 303.768,-16"/>
<polygon fill="midnightblue" stroke="midnightblue" points="303.843,-19.5001 313.843,-16 303.843,-12.5001 303.843,-19.5001"/>
</g>
</g>
</svg>
