<?xml version="1.0" encoding="UTF-8" standalone="no"?>
<!DOCTYPE svg PUBLIC "-//W3C//DTD SVG 1.1//EN"
 "http://www.w3.org/Graphics/SVG/1.1/DTD/svg11.dtd">
<!-- Generated by graphviz version 2.26.3 (20100126.1600)
 -->
<!-- Title: forcebalance.gmxio.GMX.energy_force_one Pages: 1 -->
<svg width="1608pt" height="175pt"
 viewBox="0.00 0.00 1608.00 175.00" xmlns="http://www.w3.org/2000/svg" xmlns:xlink="http://www.w3.org/1999/xlink">
<g id="graph1" class="graph" transform="scale(1 1) rotate(0) translate(4 171)">
<title>forcebalance.gmxio.GMX.energy_force_one</title>
<polygon fill="white" stroke="white" points="-4,5 -4,-171 1605,-171 1605,5 -4,5"/>
<!-- Node1 -->
<g id="node1" class="node"><title>Node1</title>
<polygon fill="#bfbfbf" stroke="black" points="0.5,-61 0.5,-95 171.5,-95 171.5,-61 0.5,-61"/>
<text text-anchor="start" x="8.5" y="-82" font-family="Ubuntu-R" font-size="10.00">forcebalance.gmxio.GMX.energy</text>
<text text-anchor="middle" x="86" y="-69" font-family="Ubuntu-R" font-size="10.00">_force_one</text>
</g>
<!-- Node2 -->
<g id="node3" class="node"><title>Node2</title>
<a xlink:href="classforcebalance_1_1gmxio_1_1GMX.html#ad109af3f282dcdb9fd1b0caef17a376d" target="_top" xlink:title="Evaluate variables (energies, force and/or dipole) using GROMACS for a single snapshot. ">
<polygon fill="white" stroke="black" points="208.5,-61 208.5,-95 387.5,-95 387.5,-61 208.5,-61"/>
<text text-anchor="start" x="216.5" y="-82" font-family="Ubuntu-R" font-size="10.00">forcebalance.gmxio.GMX.evaluate</text>
<text text-anchor="middle" x="298" y="-69" font-family="Ubuntu-R" font-size="10.00">_snapshot</text>
</a>
</g>
<!-- Node1&#45;&gt;Node2 -->
<g id="edge2" class="edge"><title>Node1&#45;&gt;Node2</title>
<path fill="none" stroke="midnightblue" d="M171.617,-78C180.384,-78 189.345,-78 198.246,-78"/>
<polygon fill="midnightblue" stroke="midnightblue" points="198.257,-81.5001 208.257,-78 198.257,-74.5001 198.257,-81.5001"/>
</g>
<!-- Node3 -->
<g id="node5" class="node"><title>Node3</title>
<a xlink:href="classforcebalance_1_1gmxio_1_1GMX.html#a7f7d4d73a0034aa73bfd283ade0c066f" target="_top" xlink:title="Utility function for computing energy, and (optionally) forces and dipoles using GROMACS. ">
<polygon fill="white" stroke="black" points="424.5,-67.5 424.5,-88.5 609.5,-88.5 609.5,-67.5 424.5,-67.5"/>
<text text-anchor="middle" x="517" y="-75.5" font-family="Ubuntu-R" font-size="10.00">forcebalance.gmxio.GMX.evaluate_</text>
</a>
</g>
<!-- Node2&#45;&gt;Node3 -->
<g id="edge4" class="edge"><title>Node2&#45;&gt;Node3</title>
<path fill="none" stroke="midnightblue" d="M387.708,-78C396.368,-78 405.198,-78 413.974,-78"/>
<polygon fill="midnightblue" stroke="midnightblue" points="414.236,-81.5001 424.236,-78 414.236,-74.5001 414.236,-81.5001"/>
</g>
<!-- Node4 -->
<g id="node7" class="node"><title>Node4</title>
<a xlink:href="namespaceforcebalance_1_1gmxio.html#a73a881531c27adfddab62cda7f2232cd" target="_top" xlink:title="Create or edit a Gromacs MDP file. ">
<polygon fill="white" stroke="black" points="655.5,-107.5 655.5,-128.5 818.5,-128.5 818.5,-107.5 655.5,-107.5"/>
<text text-anchor="middle" x="737" y="-115.5" font-family="Ubuntu-R" font-size="10.00">forcebalance.gmxio.write_mdp</text>
</a>
</g>
<!-- Node3&#45;&gt;Node4 -->
<g id="edge6" class="edge"><title>Node3&#45;&gt;Node4</title>
<path fill="none" stroke="midnightblue" d="M574.802,-88.5095C603.74,-93.771 638.952,-100.173 669.164,-105.666"/>
<polygon fill="midnightblue" stroke="midnightblue" points="668.737,-109.146 679.202,-107.491 669.99,-102.259 668.737,-109.146"/>
</g>
<!-- Node9 -->
<g id="node17" class="node"><title>Node9</title>
<a xlink:href="classforcebalance_1_1gmxio_1_1GMX.html#a0a8687f6d972019fd7eef4cb8a5d86c7" target="_top" xlink:title="Call gromacs and allow for certain expected warnings. ">
<polygon fill="white" stroke="black" points="646,-67.5 646,-88.5 828,-88.5 828,-67.5 646,-67.5"/>
<text text-anchor="middle" x="737" y="-75.5" font-family="Ubuntu-R" font-size="10.00">forcebalance.gmxio.GMX.warngmx</text>
</a>
</g>
<!-- Node3&#45;&gt;Node9 -->
<g id="edge16" class="edge"><title>Node3&#45;&gt;Node9</title>
<path fill="none" stroke="midnightblue" d="M609.662,-78C618.271,-78 627.026,-78 635.707,-78"/>
<polygon fill="midnightblue" stroke="midnightblue" points="635.853,-81.5001 645.852,-78 635.852,-74.5001 635.853,-81.5001"/>
</g>
<!-- Node10 -->
<g id="node19" class="node"><title>Node10</title>
<a xlink:href="classforcebalance_1_1gmxio_1_1GMX.html#a4e472c27d2c244c9ad6edb5b35f46a75" target="_top" xlink:title="Call GROMACS; prepend the gmxpath to the call to the GROMACS program. ">
<polygon fill="white" stroke="black" points="864.5,-44.5 864.5,-65.5 1039.5,-65.5 1039.5,-44.5 864.5,-44.5"/>
<text text-anchor="middle" x="952" y="-52.5" font-family="Ubuntu-R" font-size="10.00">forcebalance.gmxio.GMX.callgmx</text>
</a>
</g>
<!-- Node3&#45;&gt;Node10 -->
<g id="edge32" class="edge"><title>Node3&#45;&gt;Node10</title>
<path fill="none" stroke="midnightblue" d="M573.305,-67.4692C595.825,-63.7295 622.057,-59.9631 646,-58 715.45,-52.3057 794.061,-51.6588 854.214,-52.3821"/>
<polygon fill="midnightblue" stroke="midnightblue" points="854.417,-55.885 864.463,-52.5206 854.512,-48.8857 854.417,-55.885"/>
</g>
<!-- Node5 -->
<g id="node9" class="node"><title>Node5</title>
<a xlink:href="namespaceforcebalance_1_1nifty.html#a185aa094549d280fdc18479459980164" target="_top" xlink:title="If trying to write to a symbolic link, remove it first. ">
<polygon fill="white" stroke="black" points="885,-145.5 885,-166.5 1019,-166.5 1019,-145.5 885,-145.5"/>
<text text-anchor="middle" x="952" y="-153.5" font-family="Ubuntu-R" font-size="10.00">forcebalance.nifty.wopen</text>
</a>
</g>
<!-- Node4&#45;&gt;Node5 -->
<g id="edge8" class="edge"><title>Node4&#45;&gt;Node5</title>
<path fill="none" stroke="midnightblue" d="M796.604,-128.535C823.167,-133.23 854.635,-138.791 882.283,-143.678"/>
<polygon fill="midnightblue" stroke="midnightblue" points="881.824,-147.151 892.28,-145.445 883.042,-140.258 881.824,-147.151"/>
</g>
<!-- Node6 -->
<g id="node11" class="node"><title>Node6</title>
<a xlink:href="namespaceforcebalance_1_1nifty.html#a51180e960742cc7547749fdfb3513ec4" target="_top" xlink:title="See documentation for printcool; this is a nice way to print out keys/values in a dictionary...">
<polygon fill="white" stroke="black" points="880,-93 880,-127 1024,-127 1024,-93 880,-93"/>
<text text-anchor="start" x="888" y="-114" font-family="Ubuntu-R" font-size="10.00">forcebalance.nifty.printcool</text>
<text text-anchor="middle" x="952" y="-101" font-family="Ubuntu-R" font-size="10.00">_dictionary</text>
</a>
</g>
<!-- Node4&#45;&gt;Node6 -->
<g id="edge10" class="edge"><title>Node4&#45;&gt;Node6</title>
<path fill="none" stroke="midnightblue" d="M818.589,-114.964C835.313,-114.342 852.926,-113.686 869.676,-113.063"/>
<polygon fill="midnightblue" stroke="midnightblue" points="870.114,-116.549 879.977,-112.68 869.854,-109.554 870.114,-116.549"/>
</g>
<!-- Node7 -->
<g id="node13" class="node"><title>Node7</title>
<a xlink:href="namespaceforcebalance_1_1nifty.html#a11babd62dc7bca389162c6318f9672ca" target="_top" xlink:title="Cool&#45;looking printout for slick formatting of output. ">
<polygon fill="white" stroke="black" points="1084,-99.5 1084,-120.5 1228,-120.5 1228,-99.5 1084,-99.5"/>
<text text-anchor="middle" x="1156" y="-107.5" font-family="Ubuntu-R" font-size="10.00">forcebalance.nifty.printcool</text>
</a>
</g>
<!-- Node6&#45;&gt;Node7 -->
<g id="edge12" class="edge"><title>Node6&#45;&gt;Node7</title>
<path fill="none" stroke="midnightblue" d="M1024.21,-110C1040.25,-110 1057.37,-110 1073.78,-110"/>
<polygon fill="midnightblue" stroke="midnightblue" points="1073.89,-113.5 1083.89,-110 1073.89,-106.5 1073.89,-113.5"/>
</g>
<!-- Node8 -->
<g id="node15" class="node"><title>Node8</title>
<a xlink:href="namespaceforcebalance_1_1nifty.html#abb8f59044961a12588e0653c2baa8b01" target="_top" xlink:title="forcebalance.nifty.warn\l_press_key">
<polygon fill="white" stroke="black" points="1278.5,-93 1278.5,-127 1403.5,-127 1403.5,-93 1278.5,-93"/>
<text text-anchor="start" x="1286.5" y="-114" font-family="Ubuntu-R" font-size="10.00">forcebalance.nifty.warn</text>
<text text-anchor="middle" x="1341" y="-101" font-family="Ubuntu-R" font-size="10.00">_press_key</text>
</a>
</g>
<!-- Node7&#45;&gt;Node8 -->
<g id="edge14" class="edge"><title>Node7&#45;&gt;Node8</title>
<path fill="none" stroke="midnightblue" d="M1228.06,-110C1241.31,-110 1255.16,-110 1268.44,-110"/>
<polygon fill="midnightblue" stroke="midnightblue" points="1268.46,-113.5 1278.46,-110 1268.46,-106.5 1268.46,-113.5"/>
</g>
<!-- Node9&#45;&gt;Node10 -->
<g id="edge18" class="edge"><title>Node9&#45;&gt;Node10</title>
<path fill="none" stroke="midnightblue" d="M828.179,-68.2459C836.817,-67.3219 845.598,-66.3825 854.293,-65.4524"/>
<polygon fill="midnightblue" stroke="midnightblue" points="854.876,-68.9101 864.447,-64.3661 854.132,-61.9498 854.876,-68.9101"/>
</g>
<!-- Node11 -->
<g id="node21" class="node"><title>Node11</title>
<a xlink:href="namespaceforcebalance_1_1gmxio.html#acac8488f29b62fb0d4cb54bb5a041026" target="_top" xlink:title="forcebalance.gmxio.rm\l_gmx_baks">
<polygon fill="white" stroke="black" points="1092.5,-47 1092.5,-81 1219.5,-81 1219.5,-47 1092.5,-47"/>
<text text-anchor="start" x="1100.5" y="-68" font-family="Ubuntu-R" font-size="10.00">forcebalance.gmxio.rm</text>
<text text-anchor="middle" x="1156" y="-55" font-family="Ubuntu-R" font-size="10.00">_gmx_baks</text>
</a>
</g>
<!-- Node10&#45;&gt;Node11 -->
<g id="edge20" class="edge"><title>Node10&#45;&gt;Node11</title>
<path fill="none" stroke="midnightblue" d="M1039.7,-58.869C1053.81,-59.4917 1068.3,-60.1307 1082.05,-60.7373"/>
<polygon fill="midnightblue" stroke="midnightblue" points="1082.25,-64.2497 1092.4,-61.194 1082.56,-57.2565 1082.25,-64.2497"/>
</g>
<!-- Node12 -->
<g id="node23" class="node"><title>Node12</title>
<a xlink:href="classforcebalance_1_1gmxio_1_1GMX.html#a2f9f89e8d7e97c872d4876751df171ce" target="_top" xlink:title="forcebalance.gmxio.GMX.links">
<polygon fill="white" stroke="black" points="1076.5,-7.5 1076.5,-28.5 1235.5,-28.5 1235.5,-7.5 1076.5,-7.5"/>
<text text-anchor="middle" x="1156" y="-15.5" font-family="Ubuntu-R" font-size="10.00">forcebalance.gmxio.GMX.links</text>
</a>
</g>
<!-- Node10&#45;&gt;Node12 -->
<g id="edge22" class="edge"><title>Node10&#45;&gt;Node12</title>
<path fill="none" stroke="midnightblue" d="M1009.91,-44.4963C1034.25,-40.0827 1062.73,-34.9174 1088.04,-30.3253"/>
<polygon fill="midnightblue" stroke="midnightblue" points="1088.73,-33.7585 1097.94,-28.53 1087.48,-26.8709 1088.73,-33.7585"/>
</g>
<!-- Node13 -->
<g id="node25" class="node"><title>Node13</title>
<a xlink:href="namespaceforcebalance_1_1nifty.html#ab5417ad84c6c760965cd195c6c387914" target="_top" xlink:title="forcebalance.nifty.onefile">
<polygon fill="white" stroke="black" points="1274,-50.5 1274,-71.5 1408,-71.5 1408,-50.5 1274,-50.5"/>
<text text-anchor="middle" x="1341" y="-58.5" font-family="Ubuntu-R" font-size="10.00">forcebalance.nifty.onefile</text>
</a>
</g>
<!-- Node12&#45;&gt;Node13 -->
<g id="edge24" class="edge"><title>Node12&#45;&gt;Node13</title>
<path fill="none" stroke="midnightblue" d="M1201.26,-28.519C1226.68,-34.4276 1258.6,-41.8486 1285.52,-48.1053"/>
<polygon fill="midnightblue" stroke="midnightblue" points="1285.04,-51.5857 1295.57,-50.4406 1286.62,-44.7674 1285.04,-51.5857"/>
</g>
<!-- Node15 -->
<g id="node29" class="node"><title>Node15</title>
<a xlink:href="namespaceforcebalance_1_1nifty.html#ab182a9da2a2f42cf45942fbee6acf9b1" target="_top" xlink:title="forcebalance.nifty.LinkFile">
<polygon fill="white" stroke="black" points="1272.5,-7.5 1272.5,-28.5 1409.5,-28.5 1409.5,-7.5 1272.5,-7.5"/>
<text text-anchor="middle" x="1341" y="-15.5" font-family="Ubuntu-R" font-size="10.00">forcebalance.nifty.LinkFile</text>
</a>
</g>
<!-- Node12&#45;&gt;Node15 -->
<g id="edge28" class="edge"><title>Node12&#45;&gt;Node15</title>
<path fill="none" stroke="midnightblue" d="M1235.53,-18C1244.33,-18 1253.29,-18 1262.08,-18"/>
<polygon fill="midnightblue" stroke="midnightblue" points="1262.3,-21.5001 1272.3,-18 1262.3,-14.5001 1262.3,-21.5001"/>
</g>
<!-- Node14 -->
<g id="node27" class="node"><title>Node14</title>
<a xlink:href="namespaceforcebalance_1_1nifty.html#a26e563ec71ed229c30f3d61d3448c8f1" target="_top" xlink:title="Prints a warning but will only do so once in a given run. ">
<polygon fill="white" stroke="black" points="1446,-52.5 1446,-73.5 1600,-73.5 1600,-52.5 1446,-52.5"/>
<text text-anchor="middle" x="1523" y="-60.5" font-family="Ubuntu-R" font-size="10.00">forcebalance.nifty.warn_once</text>
</a>
</g>
<!-- Node13&#45;&gt;Node14 -->
<g id="edge26" class="edge"><title>Node13&#45;&gt;Node14</title>
<path fill="none" stroke="midnightblue" d="M1408.25,-61.739C1417.25,-61.8379 1426.58,-61.9405 1435.86,-62.0424"/>
<polygon fill="midnightblue" stroke="midnightblue" points="1435.85,-65.5424 1445.89,-62.1526 1435.93,-58.5428 1435.85,-65.5424"/>
</g>
<!-- Node16 -->
<g id="node31" class="node"><title>Node16</title>
<a xlink:href="namespaceforcebalance_1_1nifty.html#ae87c7def5f8edf2ec30737bdb1d2636f" target="_top" xlink:title="forcebalance.nifty.Missing\lFileInspection">
<polygon fill="white" stroke="black" points="1454,-0 1454,-34 1592,-34 1592,-0 1454,-0"/>
<text text-anchor="start" x="1462" y="-21" font-family="Ubuntu-R" font-size="10.00">forcebalance.nifty.Missing</text>
<text text-anchor="middle" x="1523" y="-8" font-family="Ubuntu-R" font-size="10.00">FileInspection</text>
</a>
</g>
<!-- Node15&#45;&gt;Node16 -->
<g id="edge30" class="edge"><title>Node15&#45;&gt;Node16</title>
<path fill="none" stroke="midnightblue" d="M1409.55,-17.6234C1420.66,-17.5623 1432.24,-17.4987 1443.58,-17.4364"/>
<polygon fill="midnightblue" stroke="midnightblue" points="1443.93,-20.9346 1453.91,-17.3796 1443.89,-13.9347 1443.93,-20.9346"/>
</g>
</g>
</svg>
