<?xml version="1.0" encoding="UTF-8" standalone="no"?>
<!DOCTYPE svg PUBLIC "-//W3C//DTD SVG 1.1//EN"
 "http://www.w3.org/Graphics/SVG/1.1/DTD/svg11.dtd">
<!-- Generated by graphviz version 2.28.0 (20111219.2309)
 -->
<!-- Title: G Pages: 1 -->
<svg width="486pt" height="66pt"
 viewBox="0.00 0.00 486.00 66.00" xmlns="http://www.w3.org/2000/svg" xmlns:xlink="http://www.w3.org/1999/xlink">
<g id="graph1" class="graph" transform="scale(1 1) rotate(0) translate(4 62)">
<title>G</title>
<polygon fill="white" stroke="white" points="-4,5 -4,-62 483,-62 483,5 -4,5"/>
<!-- Node1 -->
<g id="node1" class="node"><title>Node1</title>
<polygon fill="#bfbfbf" stroke="black" points="0.5,-19.5 0.5,-38.5 257.5,-38.5 257.5,-19.5 0.5,-19.5"/>
<text text-anchor="middle" x="129" y="-26.5" font-family="Ubuntu-R" font-size="10.00">forcebalance.gmxio.GMX.generate_vsite_positions</text>
</g>
<!-- Node2 -->
<g id="node3" class="node"><title>Node2</title>
<a xlink:href="classforcebalance_1_1gmxio_1_1GMX.html#a4d5f9e8fb40a37a4c22551d2f30418f4" target="_top" xlink:title="forcebalance.gmxio.GMX.__init__">
<polygon fill="white" stroke="black" points="299.5,-38.5 299.5,-57.5 472.5,-57.5 472.5,-38.5 299.5,-38.5"/>
<text text-anchor="middle" x="386" y="-45.5" font-family="Ubuntu-R" font-size="10.00">forcebalance.gmxio.GMX.__init__</text>
</a>
</g>
<!-- Node1&#45;&gt;Node2 -->
<g id="edge2" class="edge"><title>Node1&#45;&gt;Node2</title>
<path fill="none" stroke="midnightblue" d="M257.874,-38.5278C268.405,-39.3125 278.934,-40.097 289.171,-40.8598"/>
<polygon fill="midnightblue" stroke="midnightblue" points="289.068,-44.3618 299.301,-41.6146 289.589,-37.3811 289.068,-44.3618"/>
</g>
<!-- Node3 -->
<g id="node5" class="node"><title>Node3</title>
<a xlink:href="classforcebalance_1_1BaseClass.html#a73e9a37a7632e79eb99f49bd15aced45" target="_top" xlink:title="forcebalance.BaseClass.set_option">
<polygon fill="white" stroke="black" points="294,-0.5 294,-19.5 478,-19.5 478,-0.5 294,-0.5"/>
<text text-anchor="middle" x="386" y="-7.5" font-family="Ubuntu-R" font-size="10.00">forcebalance.BaseClass.set_option</text>
</a>
</g>
<!-- Node1&#45;&gt;Node3 -->
<g id="edge4" class="edge"><title>Node1&#45;&gt;Node3</title>
<path fill="none" stroke="midnightblue" d="M257.874,-19.4722C266.627,-18.82 275.377,-18.168 283.961,-17.5284"/>
<polygon fill="midnightblue" stroke="midnightblue" points="284.238,-21.0176 293.95,-16.7841 283.718,-14.0369 284.238,-21.0176"/>
</g>
</g>
</svg>
