<?xml version="1.0" encoding="UTF-8" standalone="no"?>
<!DOCTYPE svg PUBLIC "-//W3C//DTD SVG 1.1//EN"
 "http://www.w3.org/Graphics/SVG/1.1/DTD/svg11.dtd">
<!-- Generated by graphviz version 2.40.1 (20161225.0304)
 -->
<!-- Title: src.output.ForceBalanceLogger.addHandler Pages: 1 -->
<svg width="437pt" height="39pt"
 viewBox="0.00 0.00 437.00 39.00" xmlns="http://www.w3.org/2000/svg" xmlns:xlink="http://www.w3.org/1999/xlink">
<g id="graph0" class="graph" transform="scale(1 1) rotate(0) translate(4 35)">
<title>src.output.ForceBalanceLogger.addHandler</title>
<polygon fill="#ffffff" stroke="transparent" points="-4,4 -4,-35 433,-35 433,4 -4,4"/>
<!-- Node1 -->
<g id="node1" class="node">
<title>Node1</title>
<polygon fill="#bfbfbf" stroke="#000000" points="0,-.5 0,-30.5 187,-30.5 187,-.5 0,-.5"/>
<text text-anchor="start" x="8" y="-18.5" font-family="Ubuntu-R" font-size="10.00" fill="#000000">src.output.ForceBalanceLogger.add</text>
<text text-anchor="middle" x="93.5" y="-7.5" font-family="Ubuntu-R" font-size="10.00" fill="#000000">Handler</text>
</g>
<!-- Node2 -->
<g id="node2" class="node">
<title>Node2</title>
<g id="a_node2"><a xlink:href="classsrc_1_1output_1_1ForceBalanceLogger.html#a8be21b79e392b07a93e1718be22b437c" target="_top" xlink:title="src.output.ForceBalanceLogger.remove\lHandler">
<polygon fill="#ffffff" stroke="#000000" points="223,-.5 223,-30.5 429,-30.5 429,-.5 223,-.5"/>
<text text-anchor="start" x="231" y="-18.5" font-family="Ubuntu-R" font-size="10.00" fill="#000000">src.output.ForceBalanceLogger.remove</text>
<text text-anchor="middle" x="326" y="-7.5" font-family="Ubuntu-R" font-size="10.00" fill="#000000">Handler</text>
</a>
</g>
</g>
<!-- Node1&#45;&gt;Node2 -->
<g id="edge1" class="edge">
<title>Node1&#45;&gt;Node2</title>
<path fill="none" stroke="#191970" d="M187.0616,-8.8656C195.4962,-8.7786 204.0965,-8.7408 212.6756,-8.7519"/>
<polygon fill="#191970" stroke="#191970" points="212.7133,-12.252 222.7257,-8.7875 212.7382,-5.252 212.7133,-12.252"/>
</g>
<!-- Node2&#45;&gt;Node1 -->
<g id="edge2" class="edge">
<title>Node2&#45;&gt;Node1</title>
<path fill="none" stroke="#191970" d="M222.7257,-22.2125C214.2847,-22.2615 205.7512,-22.2625 197.3064,-22.2155"/>
<polygon fill="#191970" stroke="#191970" points="197.0891,-18.7138 187.0616,-22.1344 197.0336,-25.7136 197.0891,-18.7138"/>
</g>
</g>
</svg>
