<?xml version="1.0" encoding="UTF-8" standalone="no"?>
<!DOCTYPE svg PUBLIC "-//W3C//DTD SVG 1.1//EN"
 "http://www.w3.org/Graphics/SVG/1.1/DTD/svg11.dtd">
<!-- Generated by graphviz version 2.40.1 (20161225.0304)
 -->
<!-- Title: src.optimizer.Optimizer.MainOptimizer Pages: 1 -->
<svg width="504pt" height="154pt"
 viewBox="0.00 0.00 504.00 154.00" xmlns="http://www.w3.org/2000/svg" xmlns:xlink="http://www.w3.org/1999/xlink">
<g id="graph0" class="graph" transform="scale(1 1) rotate(0) translate(4 150)">
<title>src.optimizer.Optimizer.MainOptimizer</title>
<polygon fill="#ffffff" stroke="transparent" points="-4,4 -4,-150 500,-150 500,4 -4,4"/>
<!-- Node32 -->
<g id="node1" class="node">
<title>Node32</title>
<polygon fill="#bfbfbf" stroke="#000000" points="0,-61 0,-91 133,-91 133,-61 0,-61"/>
<text text-anchor="start" x="8" y="-79" font-family="Ubuntu-R" font-size="10.00" fill="#000000">src.optimizer.Optimizer.</text>
<text text-anchor="middle" x="66.5" y="-68" font-family="Ubuntu-R" font-size="10.00" fill="#000000">MainOptimizer</text>
</g>
<!-- Node33 -->
<g id="node2" class="node">
<title>Node33</title>
<g id="a_node2"><a xlink:href="namespacesrc_1_1nifty.html#a9bda70a78d0f5d31e10dfffaf85803c9" target="_top" xlink:title="Cool&#45;looking printout for slick formatting of output. ">
<polygon fill="#ffffff" stroke="#000000" points="195.5,-126.5 195.5,-145.5 296.5,-145.5 296.5,-126.5 195.5,-126.5"/>
<text text-anchor="middle" x="246" y="-133.5" font-family="Ubuntu-R" font-size="10.00" fill="#000000">src.nifty.printcool</text>
</a>
</g>
</g>
<!-- Node32&#45;&gt;Node33 -->
<g id="edge1" class="edge">
<title>Node32&#45;&gt;Node33</title>
<path fill="none" stroke="#191970" d="M108.2756,-91.0508C126.8223,-97.6349 148.948,-105.356 169,-112 180.514,-115.815 193.0523,-119.7962 204.6034,-123.3943"/>
<polygon fill="#191970" stroke="#191970" points="203.8618,-126.8285 214.4496,-126.4438 205.9328,-120.1419 203.8618,-126.8285"/>
</g>
<!-- Node34 -->
<g id="node3" class="node">
<title>Node34</title>
<g id="a_node3"><a xlink:href="namespacesrc_1_1nifty.html#a6ae2951ba2a22420a11abda6be7e5454" target="_top" xlink:title="src.nifty.warn_press_key">
<polygon fill="#ffffff" stroke="#000000" points="359,-107.5 359,-126.5 496,-126.5 496,-107.5 359,-107.5"/>
<text text-anchor="middle" x="427.5" y="-114.5" font-family="Ubuntu-R" font-size="10.00" fill="#000000">src.nifty.warn_press_key</text>
</a>
</g>
</g>
<!-- Node32&#45;&gt;Node34 -->
<g id="edge3" class="edge">
<title>Node32&#45;&gt;Node34</title>
<path fill="none" stroke="#191970" d="M133.1337,-83.5678C194.0492,-90.4862 284.209,-100.726 348.6812,-108.0483"/>
<polygon fill="#191970" stroke="#191970" points="348.4685,-111.5465 358.7997,-109.1975 349.2585,-104.5913 348.4685,-111.5465"/>
</g>
<!-- Node35 -->
<g id="node4" class="node">
<title>Node35</title>
<g id="a_node4"><a xlink:href="classsrc_1_1optimizer_1_1Optimizer.html#abb29ac2f8b4bd4fca545eb3f6b0470fe" target="_top" xlink:title="Mark in each target that the previous optimization step was good or bad. ">
<polygon fill="#ffffff" stroke="#000000" points="172,-39 172,-69 320,-69 320,-39 172,-39"/>
<text text-anchor="start" x="180" y="-57" font-family="Ubuntu-R" font-size="10.00" fill="#000000">src.optimizer.Optimizer.set</text>
<text text-anchor="middle" x="246" y="-46" font-family="Ubuntu-R" font-size="10.00" fill="#000000">_goodstep</text>
</a>
</g>
</g>
<!-- Node32&#45;&gt;Node35 -->
<g id="edge4" class="edge">
<title>Node32&#45;&gt;Node35</title>
<path fill="none" stroke="#191970" d="M133.0841,-67.8393C142.4885,-66.6866 152.2572,-65.4894 161.9373,-64.303"/>
<polygon fill="#191970" stroke="#191970" points="162.474,-67.7635 171.9739,-63.0728 161.6224,-60.8154 162.474,-67.7635"/>
</g>
<!-- Node36 -->
<g id="node5" class="node">
<title>Node36</title>
<g id="a_node5"><a xlink:href="classsrc_1_1optimizer_1_1Optimizer.html#a7ec731011adb2f1b994dfa112e364e7d" target="_top" xlink:title="src.optimizer.Optimizer.adjh">
<polygon fill="#ffffff" stroke="#000000" points="169,-.5 169,-19.5 323,-19.5 323,-.5 169,-.5"/>
<text text-anchor="middle" x="246" y="-7.5" font-family="Ubuntu-R" font-size="10.00" fill="#000000">src.optimizer.Optimizer.adjh</text>
</a>
</g>
</g>
<!-- Node32&#45;&gt;Node36 -->
<g id="edge5" class="edge">
<title>Node32&#45;&gt;Node36</title>
<path fill="none" stroke="#191970" d="M96.4549,-60.9515C116.6098,-51.2285 143.9739,-38.7959 169,-30 177.0543,-27.1692 185.7083,-24.5394 194.2027,-22.1785"/>
<polygon fill="#191970" stroke="#191970" points="195.3044,-25.5068 204.0557,-19.5348 193.4903,-18.746 195.3044,-25.5068"/>
</g>
<!-- Node33&#45;&gt;Node34 -->
<g id="edge2" class="edge">
<title>Node33&#45;&gt;Node34</title>
<path fill="none" stroke="#191970" d="M296.5579,-130.7074C312.6915,-129.0185 330.9489,-127.1073 348.5982,-125.2597"/>
<polygon fill="#191970" stroke="#191970" points="349.3176,-128.7036 358.8988,-124.1814 348.5887,-121.7416 349.3176,-128.7036"/>
</g>
</g>
</svg>
