<?xml version="1.0" encoding="UTF-8" standalone="no"?>
<!DOCTYPE svg PUBLIC "-//W3C//DTD SVG 1.1//EN"
 "http://www.w3.org/Graphics/SVG/1.1/DTD/svg11.dtd">
<!-- Generated by graphviz version 2.32.0 (20130801.1845)
 -->
<!-- Title: Graph Legend Pages: 1 -->
<svg width="477pt" height="164pt"
 viewBox="0.00 0.00 477.00 164.00" xmlns="http://www.w3.org/2000/svg" xmlns:xlink="http://www.w3.org/1999/xlink">
<g id="graph0" class="graph" transform="scale(1 1) rotate(0) translate(4 160)">
<title>Graph Legend</title>
<polygon fill="white" stroke="white" points="-4,5 -4,-160 474,-160 474,5 -4,5"/>
<!-- Node9 -->
<g id="node1" class="node"><title>Node9</title>
<polygon fill="#bfbfbf" stroke="black" points="271.071,-20 218.929,-20 218.929,-0 271.071,-0 271.071,-20"/>
<text text-anchor="middle" x="245" y="-7" font-family="Ubuntu-R" font-size="10.00">Inherited</text>
</g>
<!-- Node10 -->
<g id="node2" class="node"><title>Node10</title>
<g id="a_node2"><a xlink:href="$classPublicBase.html" xlink:title="PublicBase">
<polygon fill="none" stroke="black" points="60.244,-88 -0.244033,-88 -0.244033,-68 60.244,-68 60.244,-88"/>
<text text-anchor="middle" x="30" y="-75" font-family="Ubuntu-R" font-size="10.00">PublicBase</text>
</a>
</g>
</g>
<!-- Node10&#45;&gt;Node9 -->
<g id="edge1" class="edge"><title>Node10&#45;&gt;Node9</title>
<path fill="none" stroke="midnightblue" d="M69.1131,-64.9932C112.593,-51.6457 181.597,-30.4631 218.938,-19.0004"/>
<polygon fill="midnightblue" stroke="midnightblue" points="67.9766,-61.6808 59.444,-67.9614 70.0309,-68.3726 67.9766,-61.6808"/>
</g>
<!-- Node11 -->
<g id="node3" class="node"><title>Node11</title>
<g id="a_node3"><a xlink:href="$classTruncated.html" xlink:title="Truncated">
<polygon fill="none" stroke="red" points="57.9035,-156 2.0965,-156 2.0965,-136 57.9035,-136 57.9035,-156"/>
<text text-anchor="middle" x="30" y="-143" font-family="Ubuntu-R" font-size="10.00">Truncated</text>
</a>
</g>
</g>
<!-- Node11&#45;&gt;Node10 -->
<g id="edge2" class="edge"><title>Node11&#45;&gt;Node10</title>
<path fill="none" stroke="midnightblue" d="M30,-125.576C30,-113.193 30,-97.7217 30,-88.0991"/>
<polygon fill="midnightblue" stroke="midnightblue" points="26.5001,-125.823 30,-135.823 33.5001,-125.823 26.5001,-125.823"/>
</g>
<!-- Node13 -->
<g id="node4" class="node"><title>Node13</title>
<g id="a_node4"><a xlink:href="$classProtectedBase.html" xlink:title="ProtectedBase">
<polygon fill="none" stroke="black" points="151.399,-88 78.6013,-88 78.6013,-68 151.399,-68 151.399,-88"/>
<text text-anchor="middle" x="115" y="-75" font-family="Ubuntu-R" font-size="10.00">ProtectedBase</text>
</a>
</g>
</g>
<!-- Node13&#45;&gt;Node9 -->
<g id="edge3" class="edge"><title>Node13&#45;&gt;Node9</title>
<path fill="none" stroke="darkgreen" d="M141.922,-63.332C167.405,-50.3946 204.948,-31.3341 226.994,-20.1413"/>
<polygon fill="darkgreen" stroke="darkgreen" points="140.136,-60.3136 132.803,-67.9614 143.304,-66.5552 140.136,-60.3136"/>
</g>
<!-- Node14 -->
<g id="node5" class="node"><title>Node14</title>
<g id="a_node5"><a xlink:href="$classPrivateBase.html" xlink:title="PrivateBase">
<polygon fill="none" stroke="black" points="232.322,-88 169.678,-88 169.678,-68 232.322,-68 232.322,-88"/>
<text text-anchor="middle" x="201" y="-75" font-family="Ubuntu-R" font-size="10.00">PrivateBase</text>
</a>
</g>
</g>
<!-- Node14&#45;&gt;Node9 -->
<g id="edge4" class="edge"><title>Node14&#45;&gt;Node9</title>
<path fill="none" stroke="#8b1a1a" d="M212.703,-59.4458C221.142,-46.7871 232.192,-30.2127 238.934,-20.0991"/>
<polygon fill="#8b1a1a" stroke="#8b1a1a" points="209.753,-57.561 207.118,-67.823 215.577,-61.4439 209.753,-57.561"/>
</g>
<!-- Node15 -->
<g id="node6" class="node"><title>Node15</title>
<polygon fill="none" stroke="#bfbfbf" points="327.32,-88 250.68,-88 250.68,-68 327.32,-68 327.32,-88"/>
<text text-anchor="middle" x="289" y="-75" font-family="Ubuntu-R" font-size="10.00">Undocumented</text>
</g>
<!-- Node15&#45;&gt;Node9 -->
<g id="edge5" class="edge"><title>Node15&#45;&gt;Node9</title>
<path fill="none" stroke="midnightblue" d="M277.297,-59.4458C268.858,-46.7871 257.808,-30.2127 251.066,-20.0991"/>
<polygon fill="midnightblue" stroke="midnightblue" points="274.423,-61.4439 282.882,-67.823 280.247,-57.561 274.423,-61.4439"/>
</g>
<!-- Node16 -->
<g id="node7" class="node"><title>Node16</title>
<g id="a_node7"><a xlink:href="$classTempl.html" xlink:title="Templ&lt; int &gt;">
<polygon fill="none" stroke="black" points="414.207,-88 345.793,-88 345.793,-68 414.207,-68 414.207,-88"/>
<text text-anchor="middle" x="380" y="-75" font-family="Ubuntu-R" font-size="10.00">Templ&lt; int &gt;</text>
</a>
</g>
</g>
<!-- Node16&#45;&gt;Node9 -->
<g id="edge6" class="edge"><title>Node16&#45;&gt;Node9</title>
<path fill="none" stroke="midnightblue" d="M352.392,-63.5026C325.924,-50.5627 286.693,-31.3834 263.698,-20.1413"/>
<polygon fill="midnightblue" stroke="midnightblue" points="350.991,-66.7136 361.512,-67.9614 354.065,-60.4249 350.991,-66.7136"/>
</g>
<!-- Node17 -->
<g id="node8" class="node"><title>Node17</title>
<g id="a_node8"><a xlink:href="$classTempl.html" xlink:title="Templ&lt; T &gt;">
<polygon fill="none" stroke="black" points="412.371,-156 347.629,-156 347.629,-136 412.371,-136 412.371,-156"/>
<text text-anchor="middle" x="380" y="-143" font-family="Ubuntu-R" font-size="10.00">Templ&lt; T &gt;</text>
</a>
</g>
</g>
<!-- Node17&#45;&gt;Node16 -->
<g id="edge7" class="edge"><title>Node17&#45;&gt;Node16</title>
<path fill="none" stroke="orange" stroke-dasharray="5,2" d="M380,-125.576C380,-113.193 380,-97.7217 380,-88.0991"/>
<polygon fill="orange" stroke="orange" points="376.5,-125.823 380,-135.823 383.5,-125.823 376.5,-125.823"/>
<text text-anchor="middle" x="393.418" y="-109" font-family="Ubuntu-R" font-size="10.00">&lt; int &gt;</text>
</g>
<!-- Node18 -->
<g id="node9" class="node"><title>Node18</title>
<g id="a_node9"><a xlink:href="$classUsed.html" xlink:title="Used">
<polygon fill="none" stroke="black" points="468.915,-88 433.085,-88 433.085,-68 468.915,-68 468.915,-88"/>
<text text-anchor="middle" x="451" y="-75" font-family="Ubuntu-R" font-size="10.00">Used</text>
</a>
</g>
</g>
<!-- Node18&#45;&gt;Node9 -->
<g id="edge8" class="edge"><title>Node18&#45;&gt;Node9</title>
<path fill="none" stroke="#9a32cd" stroke-dasharray="5,2" d="M423.301,-68.0967C423.201,-68.0644 423.1,-68.0322 423,-68 369.084,-50.7023 305.966,-30.5021 271.242,-19.3934"/>
<polygon fill="#9a32cd" stroke="#9a32cd" points="422.335,-71.4624 432.926,-71.1874 424.475,-64.7976 422.335,-71.4624"/>
<text text-anchor="middle" x="391.386" y="-41" font-family="Ubuntu-R" font-size="10.00">m_usedClass</text>
</g>
</g>
</svg>
