<?xml version="1.0" encoding="UTF-8" standalone="no"?>
<!DOCTYPE svg PUBLIC "-//W3C//DTD SVG 1.1//EN"
 "http://www.w3.org/Graphics/SVG/1.1/DTD/svg11.dtd">
<!-- Generated by graphviz version 2.40.1 (20161225.0304)
 -->
<!-- Title: Graphical Class Hierarchy Pages: 1 -->
<svg width="255pt" height="596pt"
 viewBox="0.00 0.00 255.00 596.00" xmlns="http://www.w3.org/2000/svg" xmlns:xlink="http://www.w3.org/1999/xlink">
<g id="graph0" class="graph" transform="scale(1 1) rotate(0) translate(4 592)">
<title>Graphical Class Hierarchy</title>
<polygon fill="#ffffff" stroke="transparent" points="-4,4 -4,-592 251,-592 251,4 -4,4"/>
<!-- Node42 -->
<g id="node1" class="node">
<title>Node42</title>
<polygon fill="#ffffff" stroke="#bfbfbf" points="0,-290.5 0,-309.5 47,-309.5 47,-290.5 0,-290.5"/>
<text text-anchor="middle" x="23.5" y="-297.5" font-family="Ubuntu-R" font-size="10.00" fill="#000000">Target</text>
</g>
<!-- Node0 -->
<g id="node2" class="node">
<title>Node0</title>
<g id="a_node2"><a xlink:href="classsrc_1_1abinitio_1_1AbInitio.html" target="_top" xlink:title="Subclass of Target for fitting force fields to ab initio data. ">
<polygon fill="#ffffff" stroke="#000000" points="109.5,-568.5 109.5,-587.5 220.5,-587.5 220.5,-568.5 109.5,-568.5"/>
<text text-anchor="middle" x="165" y="-575.5" font-family="Ubuntu-R" font-size="10.00" fill="#000000">src.abinitio.AbInitio</text>
</a>
</g>
</g>
<!-- Node42&#45;&gt;Node0 -->
<g id="edge1" class="edge">
<title>Node42&#45;&gt;Node0</title>
<path fill="none" stroke="#191970" d="M25.3632,-319.8012C30.8951,-374.3355 48.9962,-524.9323 83,-559 90.2264,-566.24 99.6319,-570.9412 109.4844,-573.9507"/>
<polygon fill="#191970" stroke="#191970" points="28.8319,-319.3093 24.3723,-309.6987 21.8653,-319.9926 28.8319,-319.3093"/>
</g>
<!-- Node44 -->
<g id="node3" class="node">
<title>Node44</title>
<g id="a_node3"><a xlink:href="classsrc_1_1binding_1_1BindingEnergy.html" target="_top" xlink:title="Improved subclass of Target for fitting force fields to binding energies. ">
<polygon fill="#ffffff" stroke="#000000" points="93.5,-530.5 93.5,-549.5 236.5,-549.5 236.5,-530.5 93.5,-530.5"/>
<text text-anchor="middle" x="165" y="-537.5" font-family="Ubuntu-R" font-size="10.00" fill="#000000">src.binding.BindingEnergy</text>
</a>
</g>
</g>
<!-- Node42&#45;&gt;Node44 -->
<g id="edge2" class="edge">
<title>Node42&#45;&gt;Node44</title>
<path fill="none" stroke="#191970" d="M26.196,-319.7375C33.2509,-368.5025 53.7549,-492.7696 83,-521 86.8902,-524.7552 91.3687,-527.8218 96.1844,-530.3204"/>
<polygon fill="#191970" stroke="#191970" points="29.6221,-318.9671 24.761,-309.5533 22.6906,-319.9439 29.6221,-318.9671"/>
</g>
<!-- Node45 -->
<g id="node4" class="node">
<title>Node45</title>
<g id="a_node4"><a xlink:href="classsrc_1_1counterpoise_1_1Counterpoise.html" target="_top" xlink:title="Target subclass for matching the counterpoise correction. ">
<polygon fill="#ffffff" stroke="#000000" points="83,-492.5 83,-511.5 247,-511.5 247,-492.5 83,-492.5"/>
<text text-anchor="middle" x="165" y="-499.5" font-family="Ubuntu-R" font-size="10.00" fill="#000000">src.counterpoise.Counterpoise</text>
</a>
</g>
</g>
<!-- Node42&#45;&gt;Node45 -->
<g id="edge3" class="edge">
<title>Node42&#45;&gt;Node45</title>
<path fill="none" stroke="#191970" d="M27.3655,-319.7083C36.0909,-362.2195 58.4744,-460.5129 83,-483 87.2007,-486.8516 92.0246,-489.9706 97.1844,-492.4908"/>
<polygon fill="#191970" stroke="#191970" points="30.7643,-318.8558 25.3618,-309.7419 23.9016,-320.2356 30.7643,-318.8558"/>
</g>
<!-- Node46 -->
<g id="node5" class="node">
<title>Node46</title>
<g id="a_node5"><a xlink:href="classsrc_1_1evaluator__io_1_1Evaluator__SMIRNOFF.html" target="_top" xlink:title="A custom optimisation target which employs the openff&#45;evaluator package to rapidly estimate a collect...">
<polygon fill="#ffffff" stroke="#000000" points="93,-443 93,-473 237,-473 237,-443 93,-443"/>
<text text-anchor="start" x="101" y="-461" font-family="Ubuntu-R" font-size="10.00" fill="#000000">src.evaluator_io.Evaluator</text>
<text text-anchor="middle" x="165" y="-450" font-family="Ubuntu-R" font-size="10.00" fill="#000000">_SMIRNOFF</text>
</a>
</g>
</g>
<!-- Node42&#45;&gt;Node46 -->
<g id="edge4" class="edge">
<title>Node42&#45;&gt;Node46</title>
<path fill="none" stroke="#191970" d="M26.9912,-319.7685C33.1452,-348.7777 48.6746,-402.7098 83,-433 87.3522,-436.8405 92.2814,-440.0911 97.5108,-442.8424"/>
<polygon fill="#191970" stroke="#191970" points="30.3664,-318.7906 25.014,-309.6472 23.4962,-320.1327 30.3664,-318.7906"/>
</g>
<!-- Node47 -->
<g id="node6" class="node">
<title>Node47</title>
<g id="a_node6"><a xlink:href="classsrc_1_1hydration_1_1Hydration.html" target="_top" xlink:title="Subclass of Target for fitting force fields to hydration free energies. ">
<polygon fill="#ffffff" stroke="#000000" points="99.5,-404.5 99.5,-423.5 230.5,-423.5 230.5,-404.5 99.5,-404.5"/>
<text text-anchor="middle" x="165" y="-411.5" font-family="Ubuntu-R" font-size="10.00" fill="#000000">src.hydration.Hydration</text>
</a>
</g>
</g>
<!-- Node42&#45;&gt;Node47 -->
<g id="edge5" class="edge">
<title>Node42&#45;&gt;Node47</title>
<path fill="none" stroke="#191970" d="M30.2541,-319.0599C38.9847,-340.8542 56.3114,-375.9681 83,-395 88.473,-398.9029 94.6268,-402.0166 101.0399,-404.4988"/>
<polygon fill="#191970" stroke="#191970" points="33.4709,-317.6714 26.6554,-309.5598 26.9248,-320.1512 33.4709,-317.6714"/>
</g>
<!-- Node48 -->
<g id="node7" class="node">
<title>Node48</title>
<g id="a_node7"><a xlink:href="classsrc_1_1interaction_1_1Interaction.html" target="_top" xlink:title="Subclass of Target for fitting force fields to interaction energies. ">
<polygon fill="#ffffff" stroke="#000000" points="94,-366.5 94,-385.5 236,-385.5 236,-366.5 94,-366.5"/>
<text text-anchor="middle" x="165" y="-373.5" font-family="Ubuntu-R" font-size="10.00" fill="#000000">src.interaction.Interaction</text>
</a>
</g>
</g>
<!-- Node42&#45;&gt;Node48 -->
<g id="edge6" class="edge">
<title>Node42&#45;&gt;Node48</title>
<path fill="none" stroke="#191970" d="M37.2108,-317.4565C48.2337,-330.3022 64.8341,-347.1744 83,-357 90.198,-360.8933 98.1707,-363.9924 106.2347,-366.4585"/>
<polygon fill="#191970" stroke="#191970" points="39.8795,-315.1915 30.8122,-309.7111 34.4829,-319.6498 39.8795,-315.1915"/>
</g>
<!-- Node49 -->
<g id="node8" class="node">
<title>Node49</title>
<g id="a_node8"><a xlink:href="classsrc_1_1leastsq_1_1LeastSquares.html" target="_top" xlink:title="Subclass of Target for general least squares fitting. ">
<polygon fill="#ffffff" stroke="#000000" points="96.5,-328.5 96.5,-347.5 233.5,-347.5 233.5,-328.5 96.5,-328.5"/>
<text text-anchor="middle" x="165" y="-335.5" font-family="Ubuntu-R" font-size="10.00" fill="#000000">src.leastsq.LeastSquares</text>
</a>
</g>
</g>
<!-- Node42&#45;&gt;Node49 -->
<g id="edge7" class="edge">
<title>Node42&#45;&gt;Node49</title>
<path fill="none" stroke="#191970" d="M56.7339,-311.1389C65.2546,-313.8495 74.433,-316.6438 83,-319 95.2584,-322.3714 108.6554,-325.6457 121.0013,-328.4995"/>
<polygon fill="#191970" stroke="#191970" points="57.7013,-307.7733 47.1095,-308.0266 55.5474,-314.4337 57.7013,-307.7733"/>
</g>
<!-- Node50 -->
<g id="node9" class="node">
<title>Node50</title>
<g id="a_node9"><a xlink:href="classsrc_1_1lipid_1_1Lipid.html" target="_top" xlink:title="Subclass of Target for lipid property matching. ">
<polygon fill="#ffffff" stroke="#000000" points="124.5,-290.5 124.5,-309.5 205.5,-309.5 205.5,-290.5 124.5,-290.5"/>
<text text-anchor="middle" x="165" y="-297.5" font-family="Ubuntu-R" font-size="10.00" fill="#000000">src.lipid.Lipid</text>
</a>
</g>
</g>
<!-- Node42&#45;&gt;Node50 -->
<g id="edge8" class="edge">
<title>Node42&#45;&gt;Node50</title>
<path fill="none" stroke="#191970" d="M57.4322,-300C77.5345,-300 103.1341,-300 124.3163,-300"/>
<polygon fill="#191970" stroke="#191970" points="57.184,-296.5001 47.1839,-300 57.1839,-303.5001 57.184,-296.5001"/>
</g>
<!-- Node51 -->
<g id="node10" class="node">
<title>Node51</title>
<g id="a_node10"><a xlink:href="classsrc_1_1liquid_1_1Liquid.html" target="_top" xlink:title="Subclass of Target for liquid property matching. ">
<polygon fill="#ffffff" stroke="#000000" points="118.5,-252.5 118.5,-271.5 211.5,-271.5 211.5,-252.5 118.5,-252.5"/>
<text text-anchor="middle" x="165" y="-259.5" font-family="Ubuntu-R" font-size="10.00" fill="#000000">src.liquid.Liquid</text>
</a>
</g>
</g>
<!-- Node42&#45;&gt;Node51 -->
<g id="edge9" class="edge">
<title>Node42&#45;&gt;Node51</title>
<path fill="none" stroke="#191970" d="M56.7339,-288.8611C65.2546,-286.1505 74.433,-283.3562 83,-281 95.2584,-277.6286 108.6554,-274.3543 121.0013,-271.5005"/>
<polygon fill="#191970" stroke="#191970" points="55.5474,-285.5663 47.1095,-291.9734 57.7013,-292.2267 55.5474,-285.5663"/>
</g>
<!-- Node52 -->
<g id="node11" class="node">
<title>Node52</title>
<g id="a_node11"><a xlink:href="classsrc_1_1moments_1_1Moments.html" target="_top" xlink:title="Subclass of Target for fitting force fields to multipole moments (from experiment or theory)...">
<polygon fill="#ffffff" stroke="#000000" points="101,-214.5 101,-233.5 229,-233.5 229,-214.5 101,-214.5"/>
<text text-anchor="middle" x="165" y="-221.5" font-family="Ubuntu-R" font-size="10.00" fill="#000000">src.moments.Moments</text>
</a>
</g>
</g>
<!-- Node42&#45;&gt;Node52 -->
<g id="edge10" class="edge">
<title>Node42&#45;&gt;Node52</title>
<path fill="none" stroke="#191970" d="M37.2108,-282.5435C48.2337,-269.6978 64.8341,-252.8256 83,-243 90.198,-239.1067 98.1707,-236.0076 106.2347,-233.5415"/>
<polygon fill="#191970" stroke="#191970" points="34.4829,-280.3502 30.8122,-290.2889 39.8795,-284.8085 34.4829,-280.3502"/>
</g>
<!-- Node53 -->
<g id="node12" class="node">
<title>Node53</title>
<g id="a_node12"><a xlink:href="classsrc_1_1opt__geo__target_1_1OptGeoTarget.html" target="_top" xlink:title="Subclass of Target for fitting MM optimized geometries to QM optimized geometries. ">
<polygon fill="#ffffff" stroke="#000000" points="91.5,-165 91.5,-195 238.5,-195 238.5,-165 91.5,-165"/>
<text text-anchor="start" x="99.5" y="-183" font-family="Ubuntu-R" font-size="10.00" fill="#000000">src.opt_geo_target.OptGeo</text>
<text text-anchor="middle" x="165" y="-172" font-family="Ubuntu-R" font-size="10.00" fill="#000000">Target</text>
</a>
</g>
</g>
<!-- Node42&#45;&gt;Node53 -->
<g id="edge11" class="edge">
<title>Node42&#45;&gt;Node53</title>
<path fill="none" stroke="#191970" d="M30.6251,-280.9257C39.6186,-259.406 57.1089,-224.8295 83,-205 88.0808,-201.1087 93.7682,-197.8193 99.7152,-195.0394"/>
<polygon fill="#191970" stroke="#191970" points="27.3327,-279.7334 26.8931,-290.3192 33.8381,-282.318 27.3327,-279.7334"/>
</g>
<!-- Node54 -->
<g id="node13" class="node">
<title>Node54</title>
<g id="a_node13"><a xlink:href="classsrc_1_1psi4io_1_1RDVR3__Psi4.html" target="_top" xlink:title="Subclass of Target for R&#45;DVR3 grid fitting. ">
<polygon fill="#ffffff" stroke="#000000" points="102.5,-126.5 102.5,-145.5 227.5,-145.5 227.5,-126.5 102.5,-126.5"/>
<text text-anchor="middle" x="165" y="-133.5" font-family="Ubuntu-R" font-size="10.00" fill="#000000">src.psi4io.RDVR3_Psi4</text>
</a>
</g>
</g>
<!-- Node42&#45;&gt;Node54 -->
<g id="edge12" class="edge">
<title>Node42&#45;&gt;Node54</title>
<path fill="none" stroke="#191970" d="M25.9789,-280.1093C30.9586,-248.8561 45.1517,-188.4724 83,-156 88.6718,-151.1338 95.3382,-147.4127 102.3778,-144.5736"/>
<polygon fill="#191970" stroke="#191970" points="22.4869,-279.8049 24.5344,-290.2 29.4162,-280.7969 22.4869,-279.8049"/>
</g>
<!-- Node55 -->
<g id="node14" class="node">
<title>Node55</title>
<g id="a_node14"><a xlink:href="classsrc_1_1thermo_1_1Thermo.html" target="_top" xlink:title="A target for fitting general experimental data sets. ">
<polygon fill="#ffffff" stroke="#000000" points="110,-88.5 110,-107.5 220,-107.5 220,-88.5 110,-88.5"/>
<text text-anchor="middle" x="165" y="-95.5" font-family="Ubuntu-R" font-size="10.00" fill="#000000">src.thermo.Thermo</text>
</a>
</g>
</g>
<!-- Node42&#45;&gt;Node55 -->
<g id="edge13" class="edge">
<title>Node42&#45;&gt;Node55</title>
<path fill="none" stroke="#191970" d="M27.3655,-280.2917C36.0909,-237.7805 58.4744,-139.4871 83,-117 90.5397,-110.0869 100.0872,-105.5338 109.9806,-102.567"/>
<polygon fill="#191970" stroke="#191970" points="23.9016,-279.7644 25.3618,-290.2581 30.7643,-281.1442 23.9016,-279.7644"/>
</g>
<!-- Node56 -->
<g id="node15" class="node">
<title>Node56</title>
<g id="a_node15"><a xlink:href="classsrc_1_1torsion__profile_1_1TorsionProfileTarget.html" target="_top" xlink:title="Subclass of Target for fitting MM optimized geometries to QM optimized geometries. ">
<polygon fill="#ffffff" stroke="#000000" points="94.5,-39 94.5,-69 235.5,-69 235.5,-39 94.5,-39"/>
<text text-anchor="start" x="102.5" y="-57" font-family="Ubuntu-R" font-size="10.00" fill="#000000">src.torsion_profile.Torsion</text>
<text text-anchor="middle" x="165" y="-46" font-family="Ubuntu-R" font-size="10.00" fill="#000000">ProfileTarget</text>
</a>
</g>
</g>
<!-- Node42&#45;&gt;Node56 -->
<g id="edge14" class="edge">
<title>Node42&#45;&gt;Node56</title>
<path fill="none" stroke="#191970" d="M26.3645,-280.0509C33.7399,-231.3323 54.7988,-108.1455 83,-79 86.7257,-75.1495 91.0251,-71.8876 95.6633,-69.1249"/>
<polygon fill="#191970" stroke="#191970" points="22.8576,-279.8411 24.8579,-290.2454 29.7824,-280.8646 22.8576,-279.8411"/>
</g>
<!-- Node57 -->
<g id="node16" class="node">
<title>Node57</title>
<g id="a_node16"><a xlink:href="classsrc_1_1vibration_1_1Vibration.html" target="_top" xlink:title="Subclass of Target for fitting force fields to vibrational spectra (from experiment or theory)...">
<polygon fill="#ffffff" stroke="#000000" points="102.5,-.5 102.5,-19.5 227.5,-19.5 227.5,-.5 102.5,-.5"/>
<text text-anchor="middle" x="165" y="-7.5" font-family="Ubuntu-R" font-size="10.00" fill="#000000">src.vibration.Vibration</text>
</a>
</g>
</g>
<!-- Node42&#45;&gt;Node57 -->
<g id="edge15" class="edge">
<title>Node42&#45;&gt;Node57</title>
<path fill="none" stroke="#191970" d="M25.1575,-280.4944C30.2931,-224.6817 47.757,-66.0388 83,-30 88.43,-24.4474 95.1263,-20.3367 102.3318,-17.3089"/>
<polygon fill="#191970" stroke="#191970" points="21.668,-280.2215 24.2698,-290.4919 28.6406,-280.8407 21.668,-280.2215"/>
</g>
</g>
</svg>
