<?xml version="1.0" encoding="UTF-8" standalone="no"?>
<!DOCTYPE svg PUBLIC "-//W3C//DTD SVG 1.1//EN"
 "http://www.w3.org/Graphics/SVG/1.1/DTD/svg11.dtd">
<!-- Generated by graphviz version 2.40.1 (20161225.0304)
 -->
<!-- Title: Graphical Class Hierarchy Pages: 1 -->
<svg width="245pt" height="176pt"
 viewBox="0.00 0.00 245.00 176.00" xmlns="http://www.w3.org/2000/svg" xmlns:xlink="http://www.w3.org/1999/xlink">
<g id="graph0" class="graph" transform="scale(1 1) rotate(0) translate(4 172)">
<title>Graphical Class Hierarchy</title>
<polygon fill="#ffffff" stroke="transparent" points="-4,4 -4,-172 241,-172 241,4 -4,4"/>
<!-- Node33 -->
<g id="node1" class="node">
<title>Node33</title>
<polygon fill="#ffffff" stroke="#bfbfbf" points="0,-77 0,-96 61,-96 61,-77 0,-77"/>
<text text-anchor="middle" x="30.5" y="-84" font-family="Ubuntu-R" font-size="10.00" fill="#000000">Vibration</text>
</g>
<!-- Node0 -->
<g id="node2" class="node">
<title>Node0</title>
<g id="a_node2"><a xlink:href="classsrc_1_1amberio_1_1Vibration__AMBER.html" target="_top" xlink:title="Subclass of Target for calculating and matching vibrational modes using AMBER. ">
<polygon fill="#ffffff" stroke="#000000" points="106,-137.5 106,-167.5 228,-167.5 228,-137.5 106,-137.5"/>
<text text-anchor="start" x="114" y="-155.5" font-family="Ubuntu-R" font-size="10.00" fill="#000000">src.amberio.Vibration</text>
<text text-anchor="middle" x="167" y="-144.5" font-family="Ubuntu-R" font-size="10.00" fill="#000000">_AMBER</text>
</a>
</g>
</g>
<!-- Node33&#45;&gt;Node0 -->
<g id="edge1" class="edge">
<title>Node33&#45;&gt;Node0</title>
<path fill="none" stroke="#191970" d="M52.5108,-101.6902C65.1578,-109.9998 81.5541,-120.0814 97,-127.5 104.4448,-131.0757 112.5421,-134.426 120.5005,-137.4402"/>
<polygon fill="#191970" stroke="#191970" points="54.2891,-98.6689 44.0317,-96.0162 50.396,-104.4865 54.2891,-98.6689"/>
</g>
<!-- Node35 -->
<g id="node3" class="node">
<title>Node35</title>
<g id="a_node3"><a xlink:href="classsrc_1_1gmxio_1_1Vibration__GMX.html" target="_top" xlink:title="Vibrational frequency matching using GROMACS. ">
<polygon fill="#ffffff" stroke="#000000" points="97,-99 97,-118 237,-118 237,-99 97,-99"/>
<text text-anchor="middle" x="167" y="-106" font-family="Ubuntu-R" font-size="10.00" fill="#000000">src.gmxio.Vibration_GMX</text>
</a>
</g>
</g>
<!-- Node33&#45;&gt;Node35 -->
<g id="edge2" class="edge">
<title>Node33&#45;&gt;Node35</title>
<path fill="none" stroke="#191970" d="M71.307,-93.0769C82.8195,-94.9324 95.5819,-96.9894 107.9354,-98.9804"/>
<polygon fill="#191970" stroke="#191970" points="71.5628,-89.5731 61.1333,-91.4372 70.4489,-96.4839 71.5628,-89.5731"/>
</g>
<!-- Node36 -->
<g id="node4" class="node">
<title>Node36</title>
<g id="a_node4"><a xlink:href="classsrc_1_1smirnoffio_1_1Vibration__SMIRNOFF.html" target="_top" xlink:title="Vibrational frequency matching using TINKER. ">
<polygon fill="#ffffff" stroke="#000000" points="101.5,-49.5 101.5,-79.5 232.5,-79.5 232.5,-49.5 101.5,-49.5"/>
<text text-anchor="start" x="109.5" y="-67.5" font-family="Ubuntu-R" font-size="10.00" fill="#000000">src.smirnoffio.Vibration</text>
<text text-anchor="middle" x="167" y="-56.5" font-family="Ubuntu-R" font-size="10.00" fill="#000000">_SMIRNOFF</text>
</a>
</g>
</g>
<!-- Node33&#45;&gt;Node36 -->
<g id="edge3" class="edge">
<title>Node33&#45;&gt;Node36</title>
<path fill="none" stroke="#191970" d="M71.0829,-79.9592C80.6061,-78.4243 90.9945,-76.75 101.3051,-75.0882"/>
<polygon fill="#191970" stroke="#191970" points="70.4489,-76.5161 61.1333,-81.5628 71.5628,-83.4269 70.4489,-76.5161"/>
</g>
<!-- Node37 -->
<g id="node5" class="node">
<title>Node37</title>
<g id="a_node5"><a xlink:href="classsrc_1_1tinkerio_1_1Vibration__TINKER.html" target="_top" xlink:title="Vibrational frequency matching using TINKER. ">
<polygon fill="#ffffff" stroke="#000000" points="107.5,-.5 107.5,-30.5 226.5,-30.5 226.5,-.5 107.5,-.5"/>
<text text-anchor="start" x="115.5" y="-18.5" font-family="Ubuntu-R" font-size="10.00" fill="#000000">src.tinkerio.Vibration</text>
<text text-anchor="middle" x="167" y="-7.5" font-family="Ubuntu-R" font-size="10.00" fill="#000000">_TINKER</text>
</a>
</g>
</g>
<!-- Node33&#45;&gt;Node37 -->
<g id="edge4" class="edge">
<title>Node33&#45;&gt;Node37</title>
<path fill="none" stroke="#191970" d="M50.6966,-70.4502C63.4459,-60.8573 80.5603,-48.9356 97,-40.5 104.1184,-36.8474 111.8947,-33.4977 119.5926,-30.5183"/>
<polygon fill="#191970" stroke="#191970" points="48.4271,-67.7801 42.6295,-76.6479 52.6917,-73.331 48.4271,-67.7801"/>
</g>
</g>
</svg>
