<?xml version="1.0" encoding="UTF-8" standalone="no"?>
<!DOCTYPE svg PUBLIC "-//W3C//DTD SVG 1.1//EN"
 "http://www.w3.org/Graphics/SVG/1.1/DTD/svg11.dtd">
<!-- Generated by graphviz version 2.28.0 (20111219.2309)
 -->
<!-- Title: Graphical Class Hierarchy Pages: 1 -->
<svg width="912pt" height="915pt"
 viewBox="0.00 0.00 912.00 915.00" xmlns="http://www.w3.org/2000/svg" xmlns:xlink="http://www.w3.org/1999/xlink">
<g id="graph1" class="graph" transform="scale(1 1) rotate(0) translate(4 911)">
<title>Graphical Class Hierarchy</title>
<polygon fill="white" stroke="white" points="-4,5 -4,-911 909,-911 909,5 -4,5"/>
<!-- Node1 -->
<g id="node1" class="node"><title>Node1</title>
<polygon fill="white" stroke="#bfbfbf" points="0,-231.5 0,-250.5 46,-250.5 46,-231.5 0,-231.5"/>
<text text-anchor="middle" x="23" y="-238.5" font-family="Ubuntu-R" font-size="10.00">object</text>
</g>
<!-- Node2 -->
<g id="node3" class="node"><title>Node2</title>
<a xlink:href="classforcebalance_1_1BaseClass.html" target="_top" xlink:title="Provides some nifty functions that are common to all ForceBalance classes. ">
<polygon fill="white" stroke="black" points="101.5,-547.5 101.5,-566.5 232.5,-566.5 232.5,-547.5 101.5,-547.5"/>
<text text-anchor="middle" x="167" y="-554.5" font-family="Ubuntu-R" font-size="10.00">forcebalance.BaseClass</text>
</a>
</g>
<!-- Node1&#45;&gt;Node2 -->
<g id="edge2" class="edge"><title>Node1&#45;&gt;Node2</title>
<path fill="none" stroke="midnightblue" d="M32.648,-260.245C59.6529,-320.34 141.792,-503.129 161.646,-547.311"/>
<polygon fill="midnightblue" stroke="midnightblue" points="35.6969,-258.491 28.4055,-250.804 29.3119,-261.36 35.6969,-258.491"/>
</g>
<!-- Node34 -->
<g id="node67" class="node"><title>Node34</title>
<a xlink:href="classforcebalance_1_1BaseReader.html" target="_top" xlink:title="The &#39;reader&#39; class. ">
<polygon fill="white" stroke="black" points="98,-250.5 98,-269.5 236,-269.5 236,-250.5 98,-250.5"/>
<text text-anchor="middle" x="167" y="-257.5" font-family="Ubuntu-R" font-size="10.00">forcebalance.BaseReader</text>
</a>
</g>
<!-- Node1&#45;&gt;Node34 -->
<g id="edge66" class="edge"><title>Node1&#45;&gt;Node34</title>
<path fill="none" stroke="midnightblue" d="M56.4302,-245.339C68.813,-246.996 83.4429,-248.954 97.9114,-250.89"/>
<polygon fill="midnightblue" stroke="midnightblue" points="56.5634,-241.826 46.1875,-243.969 55.635,-248.764 56.5634,-241.826"/>
</g>
<!-- Node45 -->
<g id="node89" class="node"><title>Node45</title>
<a xlink:href="classforcebalance_1_1molecule_1_1Molecule.html" target="_top" xlink:title="Lee&#45;Ping&#39;s general file format conversion class. ">
<polygon fill="white" stroke="black" points="82,-212.5 82,-231.5 252,-231.5 252,-212.5 82,-212.5"/>
<text text-anchor="middle" x="167" y="-219.5" font-family="Ubuntu-R" font-size="10.00">forcebalance.molecule.Molecule</text>
</a>
</g>
<!-- Node1&#45;&gt;Node45 -->
<g id="edge88" class="edge"><title>Node1&#45;&gt;Node45</title>
<path fill="none" stroke="midnightblue" d="M56.1804,-236.694C67.7287,-235.149 81.2553,-233.339 94.792,-231.528"/>
<polygon fill="midnightblue" stroke="midnightblue" points="55.635,-233.236 46.1875,-238.031 56.5634,-240.174 55.635,-233.236"/>
</g>
<!-- Node46 -->
<g id="node91" class="node"><title>Node46</title>
<a xlink:href="classforcebalance_1_1nifty_1_1LineChunker.html" target="_top" xlink:title="forcebalance.nifty.LineChunker">
<polygon fill="white" stroke="black" points="86,-174.5 86,-193.5 248,-193.5 248,-174.5 86,-174.5"/>
<text text-anchor="middle" x="167" y="-181.5" font-family="Ubuntu-R" font-size="10.00">forcebalance.nifty.LineChunker</text>
</a>
</g>
<!-- Node1&#45;&gt;Node46 -->
<g id="edge90" class="edge"><title>Node1&#45;&gt;Node46</title>
<path fill="none" stroke="midnightblue" d="M43.9576,-225.356C54.7019,-217.617 68.4937,-208.73 82,-203 90.9468,-199.204 100.766,-196.111 110.437,-193.609"/>
<polygon fill="midnightblue" stroke="midnightblue" points="41.6497,-222.711 35.7223,-231.492 45.8322,-228.324 41.6497,-222.711"/>
</g>
<!-- Node3 -->
<g id="node5" class="node"><title>Node3</title>
<a xlink:href="classforcebalance_1_1engine_1_1Engine.html" target="_top" xlink:title="Base class for all engines. ">
<polygon fill="white" stroke="black" points="301.5,-727.5 301.5,-746.5 450.5,-746.5 450.5,-727.5 301.5,-727.5"/>
<text text-anchor="middle" x="376" y="-734.5" font-family="Ubuntu-R" font-size="10.00">forcebalance.engine.Engine</text>
</a>
</g>
<!-- Node2&#45;&gt;Node3 -->
<g id="edge4" class="edge"><title>Node2&#45;&gt;Node3</title>
<path fill="none" stroke="midnightblue" d="M186.731,-573.288C228.862,-609.924 330.047,-697.91 363.816,-727.275"/>
<polygon fill="midnightblue" stroke="midnightblue" points="188.972,-570.598 179.129,-566.678 184.379,-575.881 188.972,-570.598"/>
</g>
<!-- Node5 -->
<g id="node9" class="node"><title>Node5</title>
<a xlink:href="classforcebalance_1_1forcefield_1_1FF.html" target="_top" xlink:title="Force field class. ">
<polygon fill="white" stroke="black" points="307,-604.5 307,-623.5 445,-623.5 445,-604.5 307,-604.5"/>
<text text-anchor="middle" x="376" y="-611.5" font-family="Ubuntu-R" font-size="10.00">forcebalance.forcefield.FF</text>
</a>
</g>
<!-- Node2&#45;&gt;Node5 -->
<g id="edge8" class="edge"><title>Node2&#45;&gt;Node5</title>
<path fill="none" stroke="midnightblue" d="M205.505,-569.851C229.038,-577.671 260.104,-587.554 288,-595 300.697,-598.389 314.553,-601.622 327.4,-604.429"/>
<polygon fill="midnightblue" stroke="midnightblue" points="206.506,-566.495 195.912,-566.639 204.283,-573.133 206.506,-566.495"/>
</g>
<!-- Node6 -->
<g id="node11" class="node"><title>Node6</title>
<a xlink:href="classforcebalance_1_1objective_1_1Objective.html" target="_top" xlink:title="Objective function. ">
<polygon fill="white" stroke="black" points="290.5,-566.5 290.5,-585.5 461.5,-585.5 461.5,-566.5 290.5,-566.5"/>
<text text-anchor="middle" x="376" y="-573.5" font-family="Ubuntu-R" font-size="10.00">forcebalance.objective.Objective</text>
</a>
</g>
<!-- Node2&#45;&gt;Node6 -->
<g id="edge10" class="edge"><title>Node2&#45;&gt;Node6</title>
<path fill="none" stroke="midnightblue" d="M242.659,-563.853C258.128,-565.273 274.531,-566.778 290.328,-568.228"/>
<polygon fill="midnightblue" stroke="midnightblue" points="242.923,-560.362 232.645,-562.934 242.283,-567.333 242.923,-560.362"/>
</g>
<!-- Node7 -->
<g id="node13" class="node"><title>Node7</title>
<a xlink:href="classforcebalance_1_1optimizer_1_1Optimizer.html" target="_top" xlink:title="Optimizer class. ">
<polygon fill="white" stroke="black" points="288.5,-528.5 288.5,-547.5 463.5,-547.5 463.5,-528.5 288.5,-528.5"/>
<text text-anchor="middle" x="376" y="-535.5" font-family="Ubuntu-R" font-size="10.00">forcebalance.optimizer.Optimizer</text>
</a>
</g>
<!-- Node2&#45;&gt;Node7 -->
<g id="edge12" class="edge"><title>Node2&#45;&gt;Node7</title>
<path fill="none" stroke="midnightblue" d="M242.757,-550.138C257.585,-548.777 273.267,-547.338 288.45,-545.944"/>
<polygon fill="midnightblue" stroke="midnightblue" points="242.283,-546.667 232.645,-551.066 242.923,-553.638 242.283,-546.667"/>
</g>
<!-- Node8 -->
<g id="node15" class="node"><title>Node8</title>
<a xlink:href="classforcebalance_1_1target_1_1Target.html" target="_top" xlink:title="Base class for all fitting targets. ">
<polygon fill="white" stroke="black" points="304.5,-490.5 304.5,-509.5 447.5,-509.5 447.5,-490.5 304.5,-490.5"/>
<text text-anchor="middle" x="376" y="-497.5" font-family="Ubuntu-R" font-size="10.00">forcebalance.target.Target</text>
</a>
</g>
<!-- Node2&#45;&gt;Node8 -->
<g id="edge14" class="edge"><title>Node2&#45;&gt;Node8</title>
<path fill="none" stroke="midnightblue" d="M205.505,-544.149C229.038,-536.329 260.104,-526.446 288,-519 300.697,-515.611 314.553,-512.378 327.4,-509.571"/>
<polygon fill="midnightblue" stroke="midnightblue" points="204.283,-540.867 195.912,-547.361 206.506,-547.505 204.283,-540.867"/>
</g>
<!-- Node4 -->
<g id="node7" class="node"><title>Node4</title>
<a xlink:href="classforcebalance_1_1gmxio_1_1GMX.html" target="_top" xlink:title="Derived from Engine object for carrying out general purpose GROMACS calculations. ...">
<polygon fill="white" stroke="black" points="520.5,-789.5 520.5,-808.5 655.5,-808.5 655.5,-789.5 520.5,-789.5"/>
<text text-anchor="middle" x="588" y="-796.5" font-family="Ubuntu-R" font-size="10.00">forcebalance.gmxio.GMX</text>
</a>
</g>
<!-- Node3&#45;&gt;Node4 -->
<g id="edge6" class="edge"><title>Node3&#45;&gt;Node4</title>
<path fill="none" stroke="midnightblue" d="M412.225,-750.109C436.655,-758.933 470.054,-770.47 500,-779 513.415,-782.821 528.15,-786.428 541.619,-789.498"/>
<polygon fill="midnightblue" stroke="midnightblue" points="413.265,-746.763 402.671,-746.631 410.871,-753.34 413.265,-746.763"/>
</g>
<!-- Node9 -->
<g id="node17" class="node"><title>Node9</title>
<a xlink:href="classforcebalance_1_1abinitio_1_1AbInitio.html" target="_top" xlink:title="Subclass of Target for fitting force fields to ab initio data. ">
<polygon fill="white" stroke="black" points="522.5,-740 522.5,-770 653.5,-770 653.5,-740 522.5,-740"/>
<text text-anchor="start" x="530.5" y="-758" font-family="Ubuntu-R" font-size="10.00">forcebalance.abinitio.Ab</text>
<text text-anchor="middle" x="588" y="-747" font-family="Ubuntu-R" font-size="10.00">Initio</text>
</a>
</g>
<!-- Node8&#45;&gt;Node9 -->
<g id="edge16" class="edge"><title>Node8&#45;&gt;Node9</title>
<path fill="none" stroke="midnightblue" d="M456.643,-512.837C459.271,-514.661 461.739,-516.707 464,-519 520.356,-576.171 455.486,-629.195 500,-696 512.852,-715.288 534.364,-729.959 552.78,-739.847"/>
<polygon fill="midnightblue" stroke="midnightblue" points="458.183,-509.686 447.769,-507.739 454.696,-515.755 458.183,-509.686"/>
</g>
<!-- Node15 -->
<g id="node29" class="node"><title>Node15</title>
<a xlink:href="classforcebalance_1_1binding_1_1BindingEnergy.html" target="_top" xlink:title="Improved subclass of Target for fitting force fields to binding energies. ">
<polygon fill="white" stroke="black" points="511,-657 511,-687 665,-687 665,-657 511,-657"/>
<text text-anchor="start" x="519" y="-675" font-family="Ubuntu-R" font-size="10.00">forcebalance.binding.Binding</text>
<text text-anchor="middle" x="588" y="-664" font-family="Ubuntu-R" font-size="10.00">Energy</text>
</a>
</g>
<!-- Node8&#45;&gt;Node15 -->
<g id="edge28" class="edge"><title>Node8&#45;&gt;Node15</title>
<path fill="none" stroke="midnightblue" d="M456.621,-513.175C459.237,-514.908 461.711,-516.843 464,-519 507.005,-559.533 458.331,-605.095 500,-647 503.878,-650.9 508.322,-654.201 513.105,-656.994"/>
<polygon fill="midnightblue" stroke="midnightblue" points="458.279,-510.093 447.837,-508.297 454.88,-516.212 458.279,-510.093"/>
</g>
<!-- Node17 -->
<g id="node33" class="node"><title>Node17</title>
<a xlink:href="classforcebalance_1_1counterpoise_1_1Counterpoise.html" target="_top" xlink:title="Target subclass for matching the counterpoise correction. ">
<polygon fill="white" stroke="black" points="515,-608 515,-638 661,-638 661,-608 515,-608"/>
<text text-anchor="start" x="523" y="-626" font-family="Ubuntu-R" font-size="10.00">forcebalance.counterpoise.</text>
<text text-anchor="middle" x="588" y="-615" font-family="Ubuntu-R" font-size="10.00">Counterpoise</text>
</a>
</g>
<!-- Node8&#45;&gt;Node17 -->
<g id="edge32" class="edge"><title>Node8&#45;&gt;Node17</title>
<path fill="none" stroke="midnightblue" d="M456.669,-513.905C459.233,-515.441 461.688,-517.134 464,-519 494.024,-543.235 470.777,-572.805 500,-598 504.523,-601.9 509.62,-605.192 515.021,-607.972"/>
<polygon fill="midnightblue" stroke="midnightblue" points="458.082,-510.697 447.583,-509.269 454.9,-516.932 458.082,-510.697"/>
</g>
<!-- Node18 -->
<g id="node35" class="node"><title>Node18</title>
<a xlink:href="classforcebalance_1_1gmxqpio_1_1Monomer__QTPIE.html" target="_top" xlink:title="Subclass of Target for monomer properties of QTPIE (implemented within gromacs WCV branch)...">
<polygon fill="white" stroke="black" points="502.5,-559 502.5,-589 673.5,-589 673.5,-559 502.5,-559"/>
<text text-anchor="start" x="510.5" y="-577" font-family="Ubuntu-R" font-size="10.00">forcebalance.gmxqpio.Monomer</text>
<text text-anchor="middle" x="588" y="-566" font-family="Ubuntu-R" font-size="10.00">_QTPIE</text>
</a>
</g>
<!-- Node8&#45;&gt;Node18 -->
<g id="edge34" class="edge"><title>Node8&#45;&gt;Node18</title>
<path fill="none" stroke="midnightblue" d="M448.415,-512.619C453.797,-514.466 459.052,-516.58 464,-519 482.71,-528.151 481.597,-539.248 500,-549 507.221,-552.826 515.098,-556.13 523.067,-558.965"/>
<polygon fill="midnightblue" stroke="midnightblue" points="449.219,-509.204 438.631,-509.575 447.14,-515.888 449.219,-509.204"/>
</g>
<!-- Node19 -->
<g id="node37" class="node"><title>Node19</title>
<a xlink:href="classforcebalance_1_1interaction_1_1Interaction.html" target="_top" xlink:title="Subclass of Target for fitting force fields to interaction energies. ">
<polygon fill="white" stroke="black" points="520.5,-510 520.5,-540 655.5,-540 655.5,-510 520.5,-510"/>
<text text-anchor="start" x="528.5" y="-528" font-family="Ubuntu-R" font-size="10.00">forcebalance.interaction.</text>
<text text-anchor="middle" x="588" y="-517" font-family="Ubuntu-R" font-size="10.00">Interaction</text>
</a>
</g>
<!-- Node8&#45;&gt;Node19 -->
<g id="edge36" class="edge"><title>Node8&#45;&gt;Node19</title>
<path fill="none" stroke="midnightblue" d="M457.552,-509.59C478.257,-512.054 500.305,-514.679 520.227,-517.051"/>
<polygon fill="midnightblue" stroke="midnightblue" points="457.855,-506.101 447.511,-508.394 457.027,-513.052 457.855,-506.101"/>
</g>
<!-- Node23 -->
<g id="node45" class="node"><title>Node23</title>
<a xlink:href="classforcebalance_1_1leastsq_1_1LeastSquares.html" target="_top" xlink:title="Subclass of Target for general least squares fitting. ">
<polygon fill="white" stroke="black" points="515.5,-461 515.5,-491 660.5,-491 660.5,-461 515.5,-461"/>
<text text-anchor="start" x="523.5" y="-479" font-family="Ubuntu-R" font-size="10.00">forcebalance.leastsq.Least</text>
<text text-anchor="middle" x="588" y="-468" font-family="Ubuntu-R" font-size="10.00">Squares</text>
</a>
</g>
<!-- Node8&#45;&gt;Node23 -->
<g id="edge44" class="edge"><title>Node8&#45;&gt;Node23</title>
<path fill="none" stroke="midnightblue" d="M457.617,-490.787C476.591,-488.618 496.689,-486.321 515.243,-484.201"/>
<polygon fill="midnightblue" stroke="midnightblue" points="457.049,-487.329 447.511,-491.942 457.844,-494.283 457.049,-487.329"/>
</g>
<!-- Node25 -->
<g id="node49" class="node"><title>Node25</title>
<a xlink:href="classforcebalance_1_1liquid_1_1Liquid.html" target="_top" xlink:title="Subclass of Target for liquid property matching. ">
<polygon fill="white" stroke="black" points="519.5,-422.5 519.5,-441.5 656.5,-441.5 656.5,-422.5 519.5,-422.5"/>
<text text-anchor="middle" x="588" y="-429.5" font-family="Ubuntu-R" font-size="10.00">forcebalance.liquid.Liquid</text>
</a>
</g>
<!-- Node8&#45;&gt;Node25 -->
<g id="edge48" class="edge"><title>Node8&#45;&gt;Node25</title>
<path fill="none" stroke="midnightblue" d="M445.011,-487.549C451.57,-485.408 458.005,-482.911 464,-480 482.482,-471.026 481.469,-459.873 500,-451 508.088,-447.127 516.976,-444.034 525.888,-441.566"/>
<polygon fill="midnightblue" stroke="midnightblue" points="443.928,-484.219 435.349,-490.436 445.933,-490.926 443.928,-484.219"/>
</g>
<!-- Node29 -->
<g id="node57" class="node"><title>Node29</title>
<a xlink:href="classforcebalance_1_1moments_1_1Moments.html" target="_top" xlink:title="Subclass of Target for fitting force fields to multipole moments (from experiment or theory)...">
<polygon fill="white" stroke="black" points="500,-384.5 500,-403.5 676,-403.5 676,-384.5 500,-384.5"/>
<text text-anchor="middle" x="588" y="-391.5" font-family="Ubuntu-R" font-size="10.00">forcebalance.moments.Moments</text>
</a>
</g>
<!-- Node8&#45;&gt;Node29 -->
<g id="edge56" class="edge"><title>Node8&#45;&gt;Node29</title>
<path fill="none" stroke="midnightblue" d="M454.383,-486.152C457.76,-484.339 460.989,-482.298 464,-480 490.873,-459.492 473.015,-433.36 500,-413 505.06,-409.182 510.731,-406.1 516.687,-403.616"/>
<polygon fill="midnightblue" stroke="midnightblue" points="452.742,-483.055 445.141,-490.436 455.686,-489.405 452.742,-483.055"/>
</g>
<!-- Node31 -->
<g id="node61" class="node"><title>Node31</title>
<a xlink:href="classforcebalance_1_1psi4io_1_1RDVR3__Psi4.html" target="_top" xlink:title="Subclass of Target for R&#45;DVR3 grid fitting. ">
<polygon fill="white" stroke="black" points="503.5,-346.5 503.5,-365.5 672.5,-365.5 672.5,-346.5 503.5,-346.5"/>
<text text-anchor="middle" x="588" y="-353.5" font-family="Ubuntu-R" font-size="10.00">forcebalance.psi4io.RDVR3_Psi4</text>
</a>
</g>
<!-- Node8&#45;&gt;Node31 -->
<g id="edge60" class="edge"><title>Node8&#45;&gt;Node31</title>
<path fill="none" stroke="midnightblue" d="M456.484,-485.723C459.138,-484.011 461.657,-482.11 464,-480 500.656,-446.983 463.164,-407.816 500,-375 504.271,-371.195 509.125,-368.093 514.304,-365.57"/>
<polygon fill="midnightblue" stroke="midnightblue" points="454.704,-482.707 447.604,-490.571 458.058,-488.851 454.704,-482.707"/>
</g>
<!-- Node32 -->
<g id="node63" class="node"><title>Node32</title>
<a xlink:href="classforcebalance_1_1target_1_1RemoteTarget.html" target="_top" xlink:title="forcebalance.target.Remote\lTarget">
<polygon fill="white" stroke="black" points="513,-297 513,-327 663,-327 663,-297 513,-297"/>
<text text-anchor="start" x="521" y="-315" font-family="Ubuntu-R" font-size="10.00">forcebalance.target.Remote</text>
<text text-anchor="middle" x="588" y="-304" font-family="Ubuntu-R" font-size="10.00">Target</text>
</a>
</g>
<!-- Node8&#45;&gt;Node32 -->
<g id="edge62" class="edge"><title>Node8&#45;&gt;Node32</title>
<path fill="none" stroke="midnightblue" d="M456.528,-486.094C459.187,-484.282 461.694,-482.259 464,-480 510.819,-434.138 454.433,-384.106 500,-337 503.824,-333.047 508.229,-329.707 512.984,-326.887"/>
<polygon fill="midnightblue" stroke="midnightblue" points="454.535,-483.201 447.574,-491.188 457.996,-489.286 454.535,-483.201"/>
</g>
<!-- Node33 -->
<g id="node65" class="node"><title>Node33</title>
<a xlink:href="classforcebalance_1_1vibration_1_1Vibration.html" target="_top" xlink:title="Subclass of Target for fitting force fields to vibrational spectra (from experiment or theory)...">
<polygon fill="white" stroke="black" points="504,-258.5 504,-277.5 672,-277.5 672,-258.5 504,-258.5"/>
<text text-anchor="middle" x="588" y="-265.5" font-family="Ubuntu-R" font-size="10.00">forcebalance.vibration.Vibration</text>
</a>
</g>
<!-- Node8&#45;&gt;Node33 -->
<g id="edge64" class="edge"><title>Node8&#45;&gt;Node33</title>
<path fill="none" stroke="midnightblue" d="M456.709,-486.273C459.319,-484.412 461.765,-482.329 464,-480 524.405,-417.031 439.251,-349.637 500,-287 503.66,-283.227 507.882,-280.121 512.452,-277.571"/>
<polygon fill="midnightblue" stroke="midnightblue" points="454.708,-483.39 447.88,-491.491 458.269,-489.416 454.708,-483.39"/>
</g>
<!-- Node10 -->
<g id="node19" class="node"><title>Node10</title>
<a xlink:href="classforcebalance_1_1abinitio__internal_1_1AbInitio__Internal.html" target="_top" xlink:title="Subclass of Target for force and energy matching using an internal implementation. ">
<polygon fill="white" stroke="black" points="739.5,-877 739.5,-907 876.5,-907 876.5,-877 739.5,-877"/>
<text text-anchor="start" x="747.5" y="-895" font-family="Ubuntu-R" font-size="10.00">forcebalance.abinitio</text>
<text text-anchor="middle" x="808" y="-884" font-family="Ubuntu-R" font-size="10.00">_internal.AbInitio_Internal</text>
</a>
</g>
<!-- Node9&#45;&gt;Node10 -->
<g id="edge18" class="edge"><title>Node9&#45;&gt;Node10</title>
<path fill="none" stroke="midnightblue" d="M663.017,-770.875C667.681,-773.472 672.072,-776.491 676,-780 707.207,-807.879 680.482,-839.474 712,-867 719.836,-873.843 729.331,-878.845 739.25,-882.494"/>
<polygon fill="midnightblue" stroke="midnightblue" points="664.282,-767.599 653.757,-766.384 661.227,-773.898 664.282,-767.599"/>
</g>
<!-- Node11 -->
<g id="node21" class="node"><title>Node11</title>
<a xlink:href="classforcebalance_1_1amberio_1_1AbInitio__AMBER.html" target="_top" xlink:title="Subclass of Target for force and energy matching using AMBER. ">
<polygon fill="white" stroke="black" points="728.5,-828 728.5,-858 887.5,-858 887.5,-828 728.5,-828"/>
<text text-anchor="start" x="736.5" y="-846" font-family="Ubuntu-R" font-size="10.00">forcebalance.amberio.AbInitio</text>
<text text-anchor="middle" x="808" y="-835" font-family="Ubuntu-R" font-size="10.00">_AMBER</text>
</a>
</g>
<!-- Node9&#45;&gt;Node11 -->
<g id="edge20" class="edge"><title>Node9&#45;&gt;Node11</title>
<path fill="none" stroke="midnightblue" d="M663.152,-773.269C667.612,-775.292 671.933,-777.528 676,-780 695.881,-792.083 691.985,-806.141 712,-818 718.456,-821.825 725.499,-825.074 732.737,-827.831"/>
<polygon fill="midnightblue" stroke="midnightblue" points="664.419,-770.006 653.841,-769.411 661.74,-776.472 664.419,-770.006"/>
</g>
<!-- Node12 -->
<g id="node23" class="node"><title>Node12</title>
<a xlink:href="classforcebalance_1_1gmxio_1_1AbInitio__GMX.html" target="_top" xlink:title="Subclass of AbInitio for force and energy matching using normal GROMACS. ">
<polygon fill="white" stroke="black" points="720,-789.5 720,-808.5 896,-808.5 896,-789.5 720,-789.5"/>
<text text-anchor="middle" x="808" y="-796.5" font-family="Ubuntu-R" font-size="10.00">forcebalance.gmxio.AbInitio_GMX</text>
</a>
</g>
<!-- Node9&#45;&gt;Node12 -->
<g id="edge22" class="edge"><title>Node9&#45;&gt;Node12</title>
<path fill="none" stroke="midnightblue" d="M663.674,-770.072C695.461,-776.488 731.584,-783.779 759.614,-789.436"/>
<polygon fill="midnightblue" stroke="midnightblue" points="664.017,-766.571 653.522,-768.023 662.632,-773.432 664.017,-766.571"/>
</g>
<!-- Node13 -->
<g id="node25" class="node"><title>Node13</title>
<a xlink:href="classforcebalance_1_1openmmio_1_1AbInitio__OpenMM.html" target="_top" xlink:title="Subclass of AbInitio for force and energy matching using OpenMM. ">
<polygon fill="white" stroke="black" points="733.5,-740 733.5,-770 882.5,-770 882.5,-740 733.5,-740"/>
<text text-anchor="start" x="741.5" y="-758" font-family="Ubuntu-R" font-size="10.00">forcebalance.openmmio.Ab</text>
<text text-anchor="middle" x="808" y="-747" font-family="Ubuntu-R" font-size="10.00">Initio_OpenMM</text>
</a>
</g>
<!-- Node9&#45;&gt;Node13 -->
<g id="edge24" class="edge"><title>Node9&#45;&gt;Node13</title>
<path fill="none" stroke="midnightblue" d="M663.713,-755C686.26,-755 710.986,-755 733.456,-755"/>
<polygon fill="midnightblue" stroke="midnightblue" points="663.522,-751.5 653.522,-755 663.522,-758.5 663.522,-751.5"/>
</g>
<!-- Node14 -->
<g id="node27" class="node"><title>Node14</title>
<a xlink:href="classforcebalance_1_1tinkerio_1_1AbInitio__TINKER.html" target="_top" xlink:title="Subclass of Target for force and energy matching using TINKER. ">
<polygon fill="white" stroke="black" points="742,-691 742,-721 874,-721 874,-691 742,-691"/>
<text text-anchor="start" x="750" y="-709" font-family="Ubuntu-R" font-size="10.00">forcebalance.tinkerio.Ab</text>
<text text-anchor="middle" x="808" y="-698" font-family="Ubuntu-R" font-size="10.00">Initio_TINKER</text>
</a>
</g>
<!-- Node9&#45;&gt;Node14 -->
<g id="edge26" class="edge"><title>Node9&#45;&gt;Node14</title>
<path fill="none" stroke="midnightblue" d="M663.499,-738.255C688.962,-732.531 717.225,-726.179 741.889,-720.635"/>
<polygon fill="midnightblue" stroke="midnightblue" points="662.511,-734.889 653.522,-740.497 664.047,-741.719 662.511,-734.889"/>
</g>
<!-- Node16 -->
<g id="node31" class="node"><title>Node16</title>
<a xlink:href="classforcebalance_1_1tinkerio_1_1BindingEnergy__TINKER.html" target="_top" xlink:title="Subclass of BindingEnergy for binding energy matching using TINKER. ">
<polygon fill="white" stroke="black" points="730.5,-642 730.5,-672 885.5,-672 885.5,-642 730.5,-642"/>
<text text-anchor="start" x="738.5" y="-660" font-family="Ubuntu-R" font-size="10.00">forcebalance.tinkerio.Binding</text>
<text text-anchor="middle" x="808" y="-649" font-family="Ubuntu-R" font-size="10.00">Energy_TINKER</text>
</a>
</g>
<!-- Node15&#45;&gt;Node16 -->
<g id="edge30" class="edge"><title>Node15&#45;&gt;Node16</title>
<path fill="none" stroke="midnightblue" d="M675.264,-666.064C693.486,-664.811 712.594,-663.496 730.429,-662.269"/>
<polygon fill="midnightblue" stroke="midnightblue" points="674.982,-662.575 665.246,-666.754 675.463,-669.559 674.982,-662.575"/>
</g>
<!-- Node20 -->
<g id="node39" class="node"><title>Node20</title>
<a xlink:href="classforcebalance_1_1gmxio_1_1Interaction__GMX.html" target="_top" xlink:title="Subclass of Interaction for interaction energy matching using GROMACS. ">
<polygon fill="white" stroke="black" points="712.5,-603.5 712.5,-622.5 903.5,-622.5 903.5,-603.5 712.5,-603.5"/>
<text text-anchor="middle" x="808" y="-610.5" font-family="Ubuntu-R" font-size="10.00">forcebalance.gmxio.Interaction_GMX</text>
</a>
</g>
<!-- Node19&#45;&gt;Node20 -->
<g id="edge38" class="edge"><title>Node19&#45;&gt;Node20</title>
<path fill="none" stroke="midnightblue" d="M665.325,-543.946C669.031,-545.785 672.614,-547.797 676,-550 696.892,-563.592 690.63,-580.172 712,-593 719.225,-597.337 727.252,-600.743 735.492,-603.416"/>
<polygon fill="midnightblue" stroke="midnightblue" points="666.457,-540.619 655.9,-539.727 663.597,-547.008 666.457,-540.619"/>
</g>
<!-- Node21 -->
<g id="node41" class="node"><title>Node21</title>
<a xlink:href="classforcebalance_1_1openmmio_1_1Interaction__OpenMM.html" target="_top" xlink:title="Subclass of Target for interaction matching using OpenMM. ">
<polygon fill="white" stroke="black" points="714.5,-554 714.5,-584 901.5,-584 901.5,-554 714.5,-554"/>
<text text-anchor="start" x="722.5" y="-572" font-family="Ubuntu-R" font-size="10.00">forcebalance.openmmio.Interaction</text>
<text text-anchor="middle" x="808" y="-561" font-family="Ubuntu-R" font-size="10.00">_OpenMM</text>
</a>
</g>
<!-- Node19&#45;&gt;Node21 -->
<g id="edge40" class="edge"><title>Node19&#45;&gt;Node21</title>
<path fill="none" stroke="midnightblue" d="M665.433,-540.427C687.173,-544.815 710.816,-549.587 732.444,-553.952"/>
<polygon fill="midnightblue" stroke="midnightblue" points="666.087,-536.988 655.592,-538.441 664.702,-543.85 666.087,-536.988"/>
</g>
<!-- Node22 -->
<g id="node43" class="node"><title>Node22</title>
<a xlink:href="classforcebalance_1_1tinkerio_1_1Interaction__TINKER.html" target="_top" xlink:title="Subclass of Target for interaction matching using TINKER. ">
<polygon fill="white" stroke="black" points="723,-505 723,-535 893,-535 893,-505 723,-505"/>
<text text-anchor="start" x="731" y="-523" font-family="Ubuntu-R" font-size="10.00">forcebalance.tinkerio.Interaction</text>
<text text-anchor="middle" x="808" y="-512" font-family="Ubuntu-R" font-size="10.00">_TINKER</text>
</a>
</g>
<!-- Node19&#45;&gt;Node22 -->
<g id="edge42" class="edge"><title>Node19&#45;&gt;Node22</title>
<path fill="none" stroke="midnightblue" d="M665.681,-523.241C684.12,-522.818 703.916,-522.364 722.681,-521.934"/>
<polygon fill="midnightblue" stroke="midnightblue" points="665.509,-519.744 655.592,-523.473 665.669,-526.742 665.509,-519.744"/>
</g>
<!-- Node24 -->
<g id="node47" class="node"><title>Node24</title>
<a xlink:href="classforcebalance_1_1psi4io_1_1THCDF__Psi4.html" target="_top" xlink:title="forcebalance.psi4io.THCDF_Psi4">
<polygon fill="white" stroke="black" points="723.5,-466.5 723.5,-485.5 892.5,-485.5 892.5,-466.5 723.5,-466.5"/>
<text text-anchor="middle" x="808" y="-473.5" font-family="Ubuntu-R" font-size="10.00">forcebalance.psi4io.THCDF_Psi4</text>
</a>
</g>
<!-- Node23&#45;&gt;Node24 -->
<g id="edge46" class="edge"><title>Node23&#45;&gt;Node24</title>
<path fill="none" stroke="midnightblue" d="M671.138,-476C688.148,-476 706.088,-476 723.158,-476"/>
<polygon fill="midnightblue" stroke="midnightblue" points="670.683,-472.5 660.683,-476 670.683,-479.5 670.683,-472.5"/>
</g>
<!-- Node26 -->
<g id="node51" class="node"><title>Node26</title>
<a xlink:href="classforcebalance_1_1gmxio_1_1Liquid__GMX.html" target="_top" xlink:title="forcebalance.gmxio.Liquid_GMX">
<polygon fill="white" stroke="black" points="724,-428.5 724,-447.5 892,-447.5 892,-428.5 724,-428.5"/>
<text text-anchor="middle" x="808" y="-435.5" font-family="Ubuntu-R" font-size="10.00">forcebalance.gmxio.Liquid_GMX</text>
</a>
</g>
<!-- Node25&#45;&gt;Node26 -->
<g id="edge50" class="edge"><title>Node25&#45;&gt;Node26</title>
<path fill="none" stroke="midnightblue" d="M666.906,-434.144C685.399,-434.653 705.194,-435.198 723.908,-435.713"/>
<polygon fill="midnightblue" stroke="midnightblue" points="666.874,-430.642 656.782,-433.866 666.681,-437.639 666.874,-430.642"/>
</g>
<!-- Node27 -->
<g id="node53" class="node"><title>Node27</title>
<a xlink:href="classforcebalance_1_1openmmio_1_1Liquid__OpenMM.html" target="_top" xlink:title="forcebalance.openmmio.Liquid\l_OpenMM">
<polygon fill="white" stroke="black" points="726,-379 726,-409 890,-409 890,-379 726,-379"/>
<text text-anchor="start" x="734" y="-397" font-family="Ubuntu-R" font-size="10.00">forcebalance.openmmio.Liquid</text>
<text text-anchor="middle" x="808" y="-386" font-family="Ubuntu-R" font-size="10.00">_OpenMM</text>
</a>
</g>
<!-- Node25&#45;&gt;Node27 -->
<g id="edge52" class="edge"><title>Node25&#45;&gt;Node27</title>
<path fill="none" stroke="midnightblue" d="M653.879,-420.691C676.473,-416.752 702.11,-412.284 725.857,-408.144"/>
<polygon fill="midnightblue" stroke="midnightblue" points="652.98,-417.295 643.729,-422.46 654.182,-424.191 652.98,-417.295"/>
</g>
<!-- Node28 -->
<g id="node55" class="node"><title>Node28</title>
<a xlink:href="classforcebalance_1_1tinkerio_1_1Liquid__TINKER.html" target="_top" xlink:title="forcebalance.tinkerio.Liquid\l_TINKER">
<polygon fill="white" stroke="black" points="734.5,-330 734.5,-360 881.5,-360 881.5,-330 734.5,-330"/>
<text text-anchor="start" x="742.5" y="-348" font-family="Ubuntu-R" font-size="10.00">forcebalance.tinkerio.Liquid</text>
<text text-anchor="middle" x="808" y="-337" font-family="Ubuntu-R" font-size="10.00">_TINKER</text>
</a>
</g>
<!-- Node25&#45;&gt;Node28 -->
<g id="edge54" class="edge"><title>Node25&#45;&gt;Node28</title>
<path fill="none" stroke="midnightblue" d="M665.084,-418.684C668.875,-417.007 672.54,-415.121 676,-413 697.54,-399.792 690.677,-382.555 712,-369 718.891,-364.619 726.538,-361.038 734.414,-358.11"/>
<polygon fill="midnightblue" stroke="midnightblue" points="663.492,-415.548 655.442,-422.436 666.031,-422.071 663.492,-415.548"/>
</g>
<!-- Node30 -->
<g id="node59" class="node"><title>Node30</title>
<a xlink:href="classforcebalance_1_1tinkerio_1_1Moments__TINKER.html" target="_top" xlink:title="Subclass of Target for multipole moment matching using TINKER. ">
<polygon fill="white" stroke="black" points="726,-281 726,-311 890,-311 890,-281 726,-281"/>
<text text-anchor="start" x="734" y="-299" font-family="Ubuntu-R" font-size="10.00">forcebalance.tinkerio.Moments</text>
<text text-anchor="middle" x="808" y="-288" font-family="Ubuntu-R" font-size="10.00">_TINKER</text>
</a>
</g>
<!-- Node29&#45;&gt;Node30 -->
<g id="edge58" class="edge"><title>Node29&#45;&gt;Node30</title>
<path fill="none" stroke="midnightblue" d="M666.873,-380.379C670.051,-378.776 673.111,-376.99 676,-375 700.061,-358.429 688.211,-336.959 712,-320 716.848,-316.544 722.146,-313.584 727.681,-311.049"/>
<polygon fill="midnightblue" stroke="midnightblue" points="665.397,-377.204 657.647,-384.429 668.211,-383.614 665.397,-377.204"/>
</g>
<!-- Node35 -->
<g id="node69" class="node"><title>Node35</title>
<a xlink:href="classforcebalance_1_1amberio_1_1FrcMod__Reader.html" target="_top" xlink:title="Finite state machine for parsing FrcMod force field file. ">
<polygon fill="white" stroke="black" points="307.5,-441 307.5,-471 444.5,-471 444.5,-441 307.5,-441"/>
<text text-anchor="start" x="315.5" y="-459" font-family="Ubuntu-R" font-size="10.00">forcebalance.amberio.Frc</text>
<text text-anchor="middle" x="376" y="-448" font-family="Ubuntu-R" font-size="10.00">Mod_Reader</text>
</a>
</g>
<!-- Node34&#45;&gt;Node35 -->
<g id="edge68" class="edge"><title>Node34&#45;&gt;Node35</title>
<path fill="none" stroke="midnightblue" d="M176.108,-279.116C192.132,-314.567 231.287,-390.567 288,-431 293.886,-435.197 300.466,-438.692 307.3,-441.603"/>
<polygon fill="midnightblue" stroke="midnightblue" points="179.274,-277.62 172.044,-269.876 172.866,-280.439 179.274,-277.62"/>
</g>
<!-- Node36 -->
<g id="node71" class="node"><title>Node36</title>
<a xlink:href="classforcebalance_1_1amberio_1_1Mol2__Reader.html" target="_top" xlink:title="Finite state machine for parsing Mol2 force field file. ">
<polygon fill="white" stroke="black" points="303,-392 303,-422 449,-422 449,-392 303,-392"/>
<text text-anchor="start" x="311" y="-410" font-family="Ubuntu-R" font-size="10.00">forcebalance.amberio.Mol2</text>
<text text-anchor="middle" x="376" y="-399" font-family="Ubuntu-R" font-size="10.00">_Reader</text>
</a>
</g>
<!-- Node34&#45;&gt;Node36 -->
<g id="edge70" class="edge"><title>Node34&#45;&gt;Node36</title>
<path fill="none" stroke="midnightblue" d="M180.77,-277.938C200.669,-304.578 241.637,-354.414 288,-382 294.483,-385.857 301.593,-389.147 308.867,-391.946"/>
<polygon fill="midnightblue" stroke="midnightblue" points="183.367,-275.559 174.636,-269.557 177.718,-279.694 183.367,-275.559"/>
</g>
<!-- Node37 -->
<g id="node73" class="node"><title>Node37</title>
<a xlink:href="classforcebalance_1_1custom__io_1_1Gen__Reader.html" target="_top" xlink:title="Finite state machine for parsing custom GROMACS force field files. ">
<polygon fill="white" stroke="black" points="317.5,-343 317.5,-373 434.5,-373 434.5,-343 317.5,-343"/>
<text text-anchor="start" x="325.5" y="-361" font-family="Ubuntu-R" font-size="10.00">forcebalance.custom</text>
<text text-anchor="middle" x="376" y="-350" font-family="Ubuntu-R" font-size="10.00">_io.Gen_Reader</text>
</a>
</g>
<!-- Node34&#45;&gt;Node37 -->
<g id="edge72" class="edge"><title>Node34&#45;&gt;Node37</title>
<path fill="none" stroke="midnightblue" d="M189.454,-275.488C212.749,-291.71 251.525,-317.009 288,-333 297.212,-337.038 307.255,-340.62 317.138,-343.721"/>
<polygon fill="midnightblue" stroke="midnightblue" points="191.226,-272.455 181.037,-269.551 187.191,-278.175 191.226,-272.455"/>
</g>
<!-- Node38 -->
<g id="node75" class="node"><title>Node38</title>
<a xlink:href="classforcebalance_1_1gmxio_1_1ITP__Reader.html" target="_top" xlink:title="Finite state machine for parsing GROMACS force field files. ">
<polygon fill="white" stroke="black" points="312.5,-294 312.5,-324 439.5,-324 439.5,-294 312.5,-294"/>
<text text-anchor="start" x="320.5" y="-312" font-family="Ubuntu-R" font-size="10.00">forcebalance.gmxio.ITP</text>
<text text-anchor="middle" x="376" y="-301" font-family="Ubuntu-R" font-size="10.00">_Reader</text>
</a>
</g>
<!-- Node34&#45;&gt;Node38 -->
<g id="edge74" class="edge"><title>Node34&#45;&gt;Node38</title>
<path fill="none" stroke="midnightblue" d="M218.468,-271.946C246.737,-278.638 282.24,-287.042 312.284,-294.154"/>
<polygon fill="midnightblue" stroke="midnightblue" points="218.94,-268.462 208.403,-269.564 217.328,-275.273 218.94,-268.462"/>
</g>
<!-- Node39 -->
<g id="node77" class="node"><title>Node39</title>
<a xlink:href="classforcebalance_1_1mol2io_1_1Mol2__Reader.html" target="_top" xlink:title="Finite state machine for parsing Mol2 force field file. ">
<polygon fill="white" stroke="black" points="306.5,-245 306.5,-275 445.5,-275 445.5,-245 306.5,-245"/>
<text text-anchor="start" x="314.5" y="-263" font-family="Ubuntu-R" font-size="10.00">forcebalance.mol2io.Mol2</text>
<text text-anchor="middle" x="376" y="-252" font-family="Ubuntu-R" font-size="10.00">_Reader</text>
</a>
</g>
<!-- Node34&#45;&gt;Node39 -->
<g id="edge76" class="edge"><title>Node34&#45;&gt;Node39</title>
<path fill="none" stroke="midnightblue" d="M246.24,-260C265.955,-260 286.971,-260 306.185,-260"/>
<polygon fill="midnightblue" stroke="midnightblue" points="246.066,-256.5 236.066,-260 246.066,-263.5 246.066,-256.5"/>
</g>
<!-- Node40 -->
<g id="node79" class="node"><title>Node40</title>
<a xlink:href="classforcebalance_1_1openmmio_1_1OpenMM__Reader.html" target="_top" xlink:title="Class for parsing OpenMM force field files. ">
<polygon fill="white" stroke="black" points="295.5,-196 295.5,-226 456.5,-226 456.5,-196 295.5,-196"/>
<text text-anchor="start" x="303.5" y="-214" font-family="Ubuntu-R" font-size="10.00">forcebalance.openmmio.Open</text>
<text text-anchor="middle" x="376" y="-203" font-family="Ubuntu-R" font-size="10.00">MM_Reader</text>
</a>
</g>
<!-- Node34&#45;&gt;Node40 -->
<g id="edge78" class="edge"><title>Node34&#45;&gt;Node40</title>
<path fill="none" stroke="midnightblue" d="M220.584,-248.249C231.002,-245.88 241.852,-243.385 252,-241 272.327,-236.223 294.506,-230.859 314.363,-226.003"/>
<polygon fill="midnightblue" stroke="midnightblue" points="219.745,-244.85 210.765,-250.473 221.291,-251.677 219.745,-244.85"/>
</g>
<!-- Node41 -->
<g id="node81" class="node"><title>Node41</title>
<a xlink:href="classforcebalance_1_1psi4io_1_1GBS__Reader.html" target="_top" xlink:title="Interaction type &#45;&gt; Parameter Dictionary. ">
<polygon fill="white" stroke="black" points="309.5,-147 309.5,-177 442.5,-177 442.5,-147 309.5,-147"/>
<text text-anchor="start" x="317.5" y="-165" font-family="Ubuntu-R" font-size="10.00">forcebalance.psi4io.GBS</text>
<text text-anchor="middle" x="376" y="-154" font-family="Ubuntu-R" font-size="10.00">_Reader</text>
</a>
</g>
<!-- Node34&#45;&gt;Node41 -->
<g id="edge80" class="edge"><title>Node34&#45;&gt;Node41</title>
<path fill="none" stroke="midnightblue" d="M243.27,-246.203C246.31,-244.647 249.237,-242.918 252,-241 275.999,-224.339 264.397,-203.217 288,-186 294.456,-181.291 301.792,-177.506 309.402,-174.463"/>
<polygon fill="midnightblue" stroke="midnightblue" points="241.585,-243.121 233.862,-250.375 244.422,-249.521 241.585,-243.121"/>
</g>
<!-- Node42 -->
<g id="node83" class="node"><title>Node42</title>
<a xlink:href="classforcebalance_1_1psi4io_1_1Grid__Reader.html" target="_top" xlink:title="Finite state machine for parsing DVR grid files. ">
<polygon fill="white" stroke="black" points="310.5,-98 310.5,-128 441.5,-128 441.5,-98 310.5,-98"/>
<text text-anchor="start" x="318.5" y="-116" font-family="Ubuntu-R" font-size="10.00">forcebalance.psi4io.Grid</text>
<text text-anchor="middle" x="376" y="-105" font-family="Ubuntu-R" font-size="10.00">_Reader</text>
</a>
</g>
<!-- Node34&#45;&gt;Node42 -->
<g id="edge82" class="edge"><title>Node34&#45;&gt;Node42</title>
<path fill="none" stroke="midnightblue" d="M244.979,-246.338C247.454,-244.736 249.806,-242.963 252,-241 288.449,-208.381 252.323,-170.461 288,-137 294.4,-130.998 302.163,-126.473 310.386,-123.066"/>
<polygon fill="midnightblue" stroke="midnightblue" points="243.258,-243.29 236.149,-251.146 246.605,-249.437 243.258,-243.29"/>
</g>
<!-- Node43 -->
<g id="node85" class="node"><title>Node43</title>
<a xlink:href="classforcebalance_1_1qchemio_1_1QCIn__Reader.html" target="_top" xlink:title="Finite state machine for parsing Q&#45;Chem input files. ">
<polygon fill="white" stroke="black" points="302,-49 302,-79 450,-79 450,-49 302,-49"/>
<text text-anchor="start" x="310" y="-67" font-family="Ubuntu-R" font-size="10.00">forcebalance.qchemio.QCIn</text>
<text text-anchor="middle" x="376" y="-56" font-family="Ubuntu-R" font-size="10.00">_Reader</text>
</a>
</g>
<!-- Node34&#45;&gt;Node43 -->
<g id="edge84" class="edge"><title>Node34&#45;&gt;Node43</title>
<path fill="none" stroke="midnightblue" d="M245.07,-246.737C247.536,-245.027 249.86,-243.122 252,-241 301.609,-191.818 239.553,-138.328 288,-88 292.021,-83.8234 296.696,-80.3528 301.754,-77.4713"/>
<polygon fill="midnightblue" stroke="midnightblue" points="243.133,-243.814 236.204,-251.829 246.619,-249.884 243.133,-243.814"/>
</g>
<!-- Node44 -->
<g id="node87" class="node"><title>Node44</title>
<a xlink:href="classforcebalance_1_1tinkerio_1_1Tinker__Reader.html" target="_top" xlink:title="Finite state machine for parsing TINKER force field files. ">
<polygon fill="white" stroke="black" points="302,-0 302,-30 450,-30 450,-0 302,-0"/>
<text text-anchor="start" x="310" y="-18" font-family="Ubuntu-R" font-size="10.00">forcebalance.tinkerio.Tinker</text>
<text text-anchor="middle" x="376" y="-7" font-family="Ubuntu-R" font-size="10.00">_Reader</text>
</a>
</g>
<!-- Node34&#45;&gt;Node44 -->
<g id="edge86" class="edge"><title>Node34&#45;&gt;Node44</title>
<path fill="none" stroke="midnightblue" d="M245.051,-247.006C247.538,-245.224 249.87,-243.23 252,-241 314.98,-175.049 226.578,-106.404 288,-39 292.01,-34.5992 296.747,-30.976 301.906,-27.9966"/>
<polygon fill="midnightblue" stroke="midnightblue" points="242.916,-244.201 236.061,-252.28 246.457,-250.239 242.916,-244.201"/>
</g>
</g>
</svg>
