<?xml version="1.0" encoding="UTF-8" standalone="no"?>
<!DOCTYPE svg PUBLIC "-//W3C//DTD SVG 1.1//EN"
 "http://www.w3.org/Graphics/SVG/1.1/DTD/svg11.dtd">
<!-- Generated by graphviz version 2.40.1 (20161225.0304)
 -->
<!-- Title: Graphical Class Hierarchy Pages: 1 -->
<svg width="391pt" height="446pt"
 viewBox="0.00 0.00 391.00 446.00" xmlns="http://www.w3.org/2000/svg" xmlns:xlink="http://www.w3.org/1999/xlink">
<g id="graph0" class="graph" transform="scale(1 1) rotate(0) translate(4 442)">
<title>Graphical Class Hierarchy</title>
<polygon fill="#ffffff" stroke="transparent" points="-4,4 -4,-442 387,-442 387,4 -4,4"/>
<!-- Node62 -->
<g id="node1" class="node">
<title>Node62</title>
<polygon fill="#ffffff" stroke="#bfbfbf" points="0,-209.5 0,-228.5 47,-228.5 47,-209.5 0,-209.5"/>
<text text-anchor="middle" x="23.5" y="-216.5" font-family="Ubuntu-R" font-size="10.00" fill="#000000">object</text>
</g>
<!-- Node0 -->
<g id="node2" class="node">
<title>Node0</title>
<g id="a_node2"><a xlink:href="classsrc_1_1amberio_1_1PrmtopLoader.html" target="_top" xlink:title="Parsed AMBER prmtop file. ">
<polygon fill="#ffffff" stroke="#000000" points="83,-418.5 83,-437.5 229,-437.5 229,-418.5 83,-418.5"/>
<text text-anchor="middle" x="156" y="-425.5" font-family="Ubuntu-R" font-size="10.00" fill="#000000">src.amberio.PrmtopLoader</text>
</a>
</g>
</g>
<!-- Node62&#45;&gt;Node0 -->
<g id="edge1" class="edge">
<title>Node62&#45;&gt;Node0</title>
<path fill="none" stroke="#191970" d="M27.1333,-238.5209C35.6121,-282.0469 57.9006,-385.098 83,-409 87.0779,-412.8834 91.8455,-415.9983 96.9561,-418.4933"/>
<polygon fill="#191970" stroke="#191970" points="30.5525,-237.7657 25.2403,-228.5989 23.6765,-239.0777 30.5525,-237.7657"/>
</g>
<!-- Node64 -->
<g id="node3" class="node">
<title>Node64</title>
<g id="a_node3"><a xlink:href="classsrc_1_1BaseClass.html" target="_top" xlink:title="Provides some nifty functions that are common to all ForceBalance classes. ">
<polygon fill="#ffffff" stroke="#000000" points="114,-380.5 114,-399.5 198,-399.5 198,-380.5 114,-380.5"/>
<text text-anchor="middle" x="156" y="-387.5" font-family="Ubuntu-R" font-size="10.00" fill="#000000">src.BaseClass</text>
</a>
</g>
</g>
<!-- Node62&#45;&gt;Node64 -->
<g id="edge2" class="edge">
<title>Node62&#45;&gt;Node64</title>
<path fill="none" stroke="#191970" d="M25.5045,-238.5281C29.8976,-270.9567 43.3843,-335.8206 83,-371 91.5192,-378.5652 102.6791,-383.1828 113.7008,-385.9825"/>
<polygon fill="#191970" stroke="#191970" points="28.9692,-238.0236 24.302,-228.5122 22.0191,-238.8582 28.9692,-238.0236"/>
</g>
<!-- Node65 -->
<g id="node4" class="node">
<title>Node65</title>
<g id="a_node4"><a xlink:href="classsrc_1_1BaseReader.html" target="_top" xlink:title="The &#39;reader&#39; class. ">
<polygon fill="#ffffff" stroke="#000000" points="110,-342.5 110,-361.5 202,-361.5 202,-342.5 110,-342.5"/>
<text text-anchor="middle" x="156" y="-349.5" font-family="Ubuntu-R" font-size="10.00" fill="#000000">src.BaseReader</text>
</a>
</g>
</g>
<!-- Node62&#45;&gt;Node65 -->
<g id="edge3" class="edge">
<title>Node62&#45;&gt;Node65</title>
<path fill="none" stroke="#191970" d="M28.3085,-238.3267C35.6851,-263.8885 52.2771,-308.5499 83,-333 90.6852,-339.1161 100.133,-343.2794 109.651,-346.109"/>
<polygon fill="#191970" stroke="#191970" points="31.683,-237.3974 25.697,-228.6556 24.9251,-239.2223 31.683,-237.3974"/>
</g>
<!-- Node66 -->
<g id="node5" class="node">
<title>Node66</title>
<g id="a_node5"><a xlink:href="classsrc_1_1Mol2_1_1mol2.html" target="_top" xlink:title="This is to manage one mol2 series of lines on the form: ">
<polygon fill="#ffffff" stroke="#000000" points="113.5,-304.5 113.5,-323.5 198.5,-323.5 198.5,-304.5 113.5,-304.5"/>
<text text-anchor="middle" x="156" y="-311.5" font-family="Ubuntu-R" font-size="10.00" fill="#000000">src.Mol2.mol2</text>
</a>
</g>
</g>
<!-- Node62&#45;&gt;Node66 -->
<g id="edge4" class="edge">
<title>Node62&#45;&gt;Node66</title>
<path fill="none" stroke="#191970" d="M33.413,-237.7804C43.5729,-255.2035 60.9806,-280.5547 83,-295 92.0884,-300.9622 102.9572,-305.0555 113.4964,-307.8651"/>
<polygon fill="#191970" stroke="#191970" points="36.2124,-235.6135 28.2885,-228.5805 30.0971,-239.0198 36.2124,-235.6135"/>
</g>
<!-- Node67 -->
<g id="node6" class="node">
<title>Node67</title>
<g id="a_node6"><a xlink:href="classsrc_1_1Mol2_1_1mol2__atom.html" target="_top" xlink:title="This is to manage mol2 atomic lines on the form: 1 C1 5.4790 42.2880 49.5910 C.ar 1 &lt;1&gt; 0...">
<polygon fill="#ffffff" stroke="#000000" points="98,-266.5 98,-285.5 214,-285.5 214,-266.5 98,-266.5"/>
<text text-anchor="middle" x="156" y="-273.5" font-family="Ubuntu-R" font-size="10.00" fill="#000000">src.Mol2.mol2_atom</text>
</a>
</g>
</g>
<!-- Node62&#45;&gt;Node67 -->
<g id="edge5" class="edge">
<title>Node62&#45;&gt;Node67</title>
<path fill="none" stroke="#191970" d="M44.2072,-234.5105C55.2517,-242.1791 69.3493,-251.0428 83,-257 91.5219,-260.719 100.9319,-263.8366 110.082,-266.4003"/>
<polygon fill="#191970" stroke="#191970" points="46.2418,-231.6626 36.071,-228.6949 42.1712,-237.3574 46.2418,-231.6626"/>
</g>
<!-- Node68 -->
<g id="node7" class="node">
<title>Node68</title>
<g id="a_node7"><a xlink:href="classsrc_1_1Mol2_1_1mol2__bond.html" target="_top" xlink:title="This is to manage mol2 bond lines on the form: 1 1 2 ar. ">
<polygon fill="#ffffff" stroke="#000000" points="99,-228.5 99,-247.5 213,-247.5 213,-228.5 99,-228.5"/>
<text text-anchor="middle" x="156" y="-235.5" font-family="Ubuntu-R" font-size="10.00" fill="#000000">src.Mol2.mol2_bond</text>
</a>
</g>
</g>
<!-- Node62&#45;&gt;Node68 -->
<g id="edge6" class="edge">
<title>Node62&#45;&gt;Node68</title>
<path fill="none" stroke="#191970" d="M57.2779,-223.8436C69.9489,-225.6606 84.7253,-227.7795 98.9279,-229.8161"/>
<polygon fill="#191970" stroke="#191970" points="57.5839,-220.3518 47.1883,-222.3968 56.5903,-227.2809 57.5839,-220.3518"/>
</g>
<!-- Node69 -->
<g id="node8" class="node">
<title>Node69</title>
<g id="a_node8"><a xlink:href="classsrc_1_1Mol2_1_1mol2__set.html" target="_top" xlink:title="src.Mol2.mol2_set">
<polygon fill="#ffffff" stroke="#000000" points="103.5,-190.5 103.5,-209.5 208.5,-209.5 208.5,-190.5 103.5,-190.5"/>
<text text-anchor="middle" x="156" y="-197.5" font-family="Ubuntu-R" font-size="10.00" fill="#000000">src.Mol2.mol2_set</text>
</a>
</g>
</g>
<!-- Node62&#45;&gt;Node69 -->
<g id="edge7" class="edge">
<title>Node62&#45;&gt;Node69</title>
<path fill="none" stroke="#191970" d="M57.3328,-214.1485C71.3298,-212.1414 87.8888,-209.7669 103.4035,-207.5421"/>
<polygon fill="#191970" stroke="#191970" points="56.5903,-210.7191 47.1883,-215.6032 57.5839,-217.6482 56.5903,-210.7191"/>
</g>
<!-- Node70 -->
<g id="node9" class="node">
<title>Node70</title>
<g id="a_node9"><a xlink:href="classsrc_1_1molecule_1_1Molecule.html" target="_top" xlink:title="Lee&#45;Ping&#39;s general file format conversion class. ">
<polygon fill="#ffffff" stroke="#000000" points="93.5,-152.5 93.5,-171.5 218.5,-171.5 218.5,-152.5 93.5,-152.5"/>
<text text-anchor="middle" x="156" y="-159.5" font-family="Ubuntu-R" font-size="10.00" fill="#000000">src.molecule.Molecule</text>
</a>
</g>
</g>
<!-- Node62&#45;&gt;Node70 -->
<g id="edge8" class="edge">
<title>Node62&#45;&gt;Node70</title>
<path fill="none" stroke="#191970" d="M44.2072,-203.4895C55.2517,-195.8209 69.3493,-186.9572 83,-181 91.5219,-177.281 100.9319,-174.1634 110.082,-171.5997"/>
<polygon fill="#191970" stroke="#191970" points="42.1712,-200.6426 36.071,-209.3051 46.2418,-206.3374 42.1712,-200.6426"/>
</g>
<!-- Node71 -->
<g id="node10" class="node">
<title>Node71</title>
<g id="a_node10"><a xlink:href="classsrc_1_1nifty_1_1LineChunker.html" target="_top" xlink:title="src.nifty.LineChunker">
<polygon fill="#ffffff" stroke="#000000" points="96.5,-114.5 96.5,-133.5 215.5,-133.5 215.5,-114.5 96.5,-114.5"/>
<text text-anchor="middle" x="156" y="-121.5" font-family="Ubuntu-R" font-size="10.00" fill="#000000">src.nifty.LineChunker</text>
</a>
</g>
</g>
<!-- Node62&#45;&gt;Node71 -->
<g id="edge9" class="edge">
<title>Node62&#45;&gt;Node71</title>
<path fill="none" stroke="#191970" d="M33.413,-200.2196C43.5729,-182.7965 60.9806,-157.4453 83,-143 88.9129,-139.121 95.5795,-136.033 102.4186,-133.575"/>
<polygon fill="#191970" stroke="#191970" points="30.0971,-198.9802 28.2885,-209.4195 36.2124,-202.3865 30.0971,-198.9802"/>
</g>
<!-- Node72 -->
<g id="node11" class="node">
<title>Node72</title>
<g id="a_node11"><a xlink:href="classsrc_1_1objective_1_1Penalty.html" target="_top" xlink:title="Penalty functions for regularizing the force field optimizer. ">
<polygon fill="#ffffff" stroke="#000000" points="96.5,-76.5 96.5,-95.5 215.5,-95.5 215.5,-76.5 96.5,-76.5"/>
<text text-anchor="middle" x="156" y="-83.5" font-family="Ubuntu-R" font-size="10.00" fill="#000000">src.objective.Penalty</text>
</a>
</g>
</g>
<!-- Node62&#45;&gt;Node72 -->
<g id="edge10" class="edge">
<title>Node62&#45;&gt;Node72</title>
<path fill="none" stroke="#191970" d="M28.3085,-199.6733C35.6851,-174.1115 52.2771,-129.4501 83,-105 87.8161,-101.1672 93.3243,-98.1014 99.1083,-95.65"/>
<polygon fill="#191970" stroke="#191970" points="24.9251,-198.7777 25.697,-209.3444 31.683,-200.6026 24.9251,-198.7777"/>
</g>
<!-- Node73 -->
<g id="node12" class="node">
<title>Node73</title>
<g id="a_node12"><a xlink:href="classsrc_1_1quantity_1_1Quantity.html" target="_top" xlink:title="Base class for thermodynamical quantity used for fitting. ">
<polygon fill="#ffffff" stroke="#000000" points="97,-38.5 97,-57.5 215,-57.5 215,-38.5 97,-38.5"/>
<text text-anchor="middle" x="156" y="-45.5" font-family="Ubuntu-R" font-size="10.00" fill="#000000">src.quantity.Quantity</text>
</a>
</g>
</g>
<!-- Node62&#45;&gt;Node73 -->
<g id="edge11" class="edge">
<title>Node62&#45;&gt;Node73</title>
<path fill="none" stroke="#191970" d="M25.5045,-199.4719C29.8976,-167.0433 43.3843,-102.1794 83,-67 87.3086,-63.1739 92.2926,-60.1018 97.5925,-57.6374"/>
<polygon fill="#191970" stroke="#191970" points="22.0191,-199.1418 24.302,-209.4878 28.9692,-199.9764 22.0191,-199.1418"/>
</g>
<!-- Node76 -->
<g id="node15" class="node">
<title>Node76</title>
<g id="a_node15"><a xlink:href="classsrc_1_1thermo_1_1Point.html" target="_top" xlink:title="src.thermo.Point">
<polygon fill="#ffffff" stroke="#000000" points="107.5,-.5 107.5,-19.5 204.5,-19.5 204.5,-.5 107.5,-.5"/>
<text text-anchor="middle" x="156" y="-7.5" font-family="Ubuntu-R" font-size="10.00" fill="#000000">src.thermo.Point</text>
</a>
</g>
</g>
<!-- Node62&#45;&gt;Node76 -->
<g id="edge14" class="edge">
<title>Node62&#45;&gt;Node76</title>
<path fill="none" stroke="#191970" d="M27.1333,-199.4791C35.6121,-155.9531 57.9006,-52.902 83,-29 89.7334,-22.5878 98.3469,-18.271 107.2799,-15.3804"/>
<polygon fill="#191970" stroke="#191970" points="23.6765,-198.9223 25.2403,-209.4011 30.5525,-200.2343 23.6765,-198.9223"/>
</g>
<!-- Node74 -->
<g id="node13" class="node">
<title>Node74</title>
<g id="a_node13"><a xlink:href="classsrc_1_1quantity_1_1Quantity__Density.html" target="_top" xlink:title="src.quantity.Quantity\l_Density">
<polygon fill="#ffffff" stroke="#000000" points="265,-57 265,-87 383,-87 383,-57 265,-57"/>
<text text-anchor="start" x="273" y="-75" font-family="Ubuntu-R" font-size="10.00" fill="#000000">src.quantity.Quantity</text>
<text text-anchor="middle" x="324" y="-64" font-family="Ubuntu-R" font-size="10.00" fill="#000000">_Density</text>
</a>
</g>
</g>
<!-- Node73&#45;&gt;Node74 -->
<g id="edge12" class="edge">
<title>Node73&#45;&gt;Node74</title>
<path fill="none" stroke="#191970" d="M225.1589,-57.8798C238.2988,-59.757 251.9391,-61.7056 264.7381,-63.534"/>
<polygon fill="#191970" stroke="#191970" points="225.625,-54.411 215.2305,-56.4615 224.635,-61.3406 225.625,-54.411"/>
</g>
<!-- Node75 -->
<g id="node14" class="node">
<title>Node75</title>
<g id="a_node14"><a xlink:href="classsrc_1_1quantity_1_1Quantity__H__vap.html" target="_top" xlink:title="src.quantity.Quantity\l_H_vap">
<polygon fill="#ffffff" stroke="#000000" points="265,-8 265,-38 383,-38 383,-8 265,-8"/>
<text text-anchor="start" x="273" y="-26" font-family="Ubuntu-R" font-size="10.00" fill="#000000">src.quantity.Quantity</text>
<text text-anchor="middle" x="324" y="-15" font-family="Ubuntu-R" font-size="10.00" fill="#000000">_H_vap</text>
</a>
</g>
</g>
<!-- Node73&#45;&gt;Node75 -->
<g id="edge13" class="edge">
<title>Node73&#45;&gt;Node75</title>
<path fill="none" stroke="#191970" d="M225.1589,-37.7085C238.2988,-35.7532 251.9391,-33.7233 264.7381,-31.8187"/>
<polygon fill="#191970" stroke="#191970" points="224.6064,-34.2521 215.2305,-39.1859 225.6368,-41.1758 224.6064,-34.2521"/>
</g>
</g>
</svg>
