<?xml version="1.0" encoding="UTF-8" standalone="no"?>
<!DOCTYPE svg PUBLIC "-//W3C//DTD SVG 1.1//EN"
 "http://www.w3.org/Graphics/SVG/1.1/DTD/svg11.dtd">
<!-- Generated by graphviz version 2.28.0 (20111219.2309)
 -->
<!-- Title: Graphical Class Hierarchy Pages: 1 -->
<svg width="304pt" height="87pt"
 viewBox="0.00 0.00 304.00 87.00" xmlns="http://www.w3.org/2000/svg" xmlns:xlink="http://www.w3.org/1999/xlink">
<g id="graph1" class="graph" transform="scale(1 1) rotate(0) translate(4 83)">
<title>Graphical Class Hierarchy</title>
<polygon fill="white" stroke="white" points="-4,5 -4,-83 301,-83 301,5 -4,5"/>
<!-- Node1 -->
<g id="node1" class="node"><title>Node1</title>
<polygon fill="white" stroke="#bfbfbf" points="0,-29.5 0,-48.5 90,-48.5 90,-29.5 0,-29.5"/>
<text text-anchor="middle" x="45" y="-36.5" font-family="Ubuntu-R" font-size="10.00">StreamHandler</text>
</g>
<!-- Node2 -->
<g id="node3" class="node"><title>Node2</title>
<a xlink:href="classforcebalance_1_1output_1_1CleanStreamHandler.html" target="_top" xlink:title="Similar to RawStreamHandler except it does not write terminal escape codes. ">
<polygon fill="white" stroke="black" points="139.5,-49 139.5,-79 282.5,-79 282.5,-49 139.5,-49"/>
<text text-anchor="start" x="147.5" y="-67" font-family="Ubuntu-R" font-size="10.00">forcebalance.output.Clean</text>
<text text-anchor="middle" x="211" y="-56" font-family="Ubuntu-R" font-size="10.00">StreamHandler</text>
</a>
</g>
<!-- Node1&#45;&gt;Node2 -->
<g id="edge2" class="edge"><title>Node1&#45;&gt;Node2</title>
<path fill="none" stroke="midnightblue" d="M100.561,-47.3172C112.981,-49.2105 126.35,-51.2485 139.333,-53.2276"/>
<polygon fill="midnightblue" stroke="midnightblue" points="100.794,-43.8124 90.3808,-45.7654 99.7391,-50.7325 100.794,-43.8124"/>
</g>
<!-- Node3 -->
<g id="node5" class="node"><title>Node3</title>
<a xlink:href="classforcebalance_1_1output_1_1RawStreamHandler.html" target="_top" xlink:title="Exactly like output.StreamHandler except it does no extra formatting before sending logging messages ...">
<polygon fill="white" stroke="black" points="126,-0 126,-30 296,-30 296,-0 126,-0"/>
<text text-anchor="start" x="134" y="-18" font-family="Ubuntu-R" font-size="10.00">forcebalance.output.RawStream</text>
<text text-anchor="middle" x="211" y="-7" font-family="Ubuntu-R" font-size="10.00">Handler</text>
</a>
</g>
<!-- Node1&#45;&gt;Node3 -->
<g id="edge4" class="edge"><title>Node1&#45;&gt;Node3</title>
<path fill="none" stroke="midnightblue" d="M100.458,-31.0306C108.609,-29.8377 117.172,-28.5846 125.767,-27.3268"/>
<polygon fill="midnightblue" stroke="midnightblue" points="99.7685,-27.5941 90.3808,-32.5053 100.782,-34.5203 99.7685,-27.5941"/>
</g>
</g>
</svg>
