<?xml version="1.0" encoding="UTF-8" standalone="no"?>
<!DOCTYPE svg PUBLIC "-//W3C//DTD SVG 1.1//EN"
 "http://www.w3.org/Graphics/SVG/1.1/DTD/svg11.dtd">
<!-- Generated by graphviz version 2.26.3 (20100126.1600)
 -->
<!-- Title: forcebalance.nifty.CopyFile Pages: 1 -->
<svg width="724pt" height="82pt"
 viewBox="0.00 0.00 724.00 82.00" xmlns="http://www.w3.org/2000/svg" xmlns:xlink="http://www.w3.org/1999/xlink">
<g id="graph1" class="graph" transform="scale(1 1) rotate(0) translate(4 78)">
<title>forcebalance.nifty.CopyFile</title>
<polygon fill="white" stroke="white" points="-4,5 -4,-78 721,-78 721,5 -4,5"/>
<!-- Node1 -->
<g id="node1" class="node"><title>Node1</title>
<polygon fill="#bfbfbf" stroke="black" points="0.5,-23.5 0.5,-44.5 141.5,-44.5 141.5,-23.5 0.5,-23.5"/>
<text text-anchor="middle" x="71" y="-31.5" font-family="Ubuntu-R" font-size="10.00">forcebalance.nifty.CopyFile</text>
</g>
<!-- Node2 -->
<g id="node3" class="node"><title>Node2</title>
<a xlink:href="namespaceforcebalance_1_1nifty.html#aa1ff334c4b4e30e91978b91d9a9ec065" target="_top" xlink:title="forcebalance.nifty.which">
<polygon fill="white" stroke="black" points="178.5,-23.5 178.5,-44.5 307.5,-44.5 307.5,-23.5 178.5,-23.5"/>
<text text-anchor="middle" x="243" y="-31.5" font-family="Ubuntu-R" font-size="10.00">forcebalance.nifty.which</text>
</a>
</g>
<!-- Node1&#45;&gt;Node2 -->
<g id="edge2" class="edge"><title>Node1&#45;&gt;Node2</title>
<path fill="none" stroke="midnightblue" d="M141.952,-34C150.599,-34 159.454,-34 168.155,-34"/>
<polygon fill="midnightblue" stroke="midnightblue" points="168.277,-37.5001 178.277,-34 168.277,-30.5001 168.277,-37.5001"/>
</g>
<!-- Node3 -->
<g id="node5" class="node"><title>Node3</title>
<a xlink:href="namespaceforcebalance_1_1nifty.html#abb8f59044961a12588e0653c2baa8b01" target="_top" xlink:title="forcebalance.nifty.warn\l_press_key">
<polygon fill="white" stroke="black" points="358.5,-40 358.5,-74 483.5,-74 483.5,-40 358.5,-40"/>
<text text-anchor="start" x="366.5" y="-61" font-family="Ubuntu-R" font-size="10.00">forcebalance.nifty.warn</text>
<text text-anchor="middle" x="421" y="-48" font-family="Ubuntu-R" font-size="10.00">_press_key</text>
</a>
</g>
<!-- Node2&#45;&gt;Node3 -->
<g id="edge4" class="edge"><title>Node2&#45;&gt;Node3</title>
<path fill="none" stroke="midnightblue" d="M307.514,-42.336C320.754,-44.0469 334.779,-45.859 348.285,-47.6042"/>
<polygon fill="midnightblue" stroke="midnightblue" points="348.125,-51.1125 358.491,-48.923 349.022,-44.1703 348.125,-51.1125"/>
</g>
<!-- Node4 -->
<g id="node7" class="node"><title>Node4</title>
<a xlink:href="namespaceforcebalance_1_1nifty.html#a26e563ec71ed229c30f3d61d3448c8f1" target="_top" xlink:title="Prints a warning but will only do so once in a given run.">
<polygon fill="white" stroke="black" points="344.5,-0.5 344.5,-21.5 497.5,-21.5 497.5,-0.5 344.5,-0.5"/>
<text text-anchor="middle" x="421" y="-8.5" font-family="Ubuntu-R" font-size="10.00">forcebalance.nifty.warn_once</text>
</a>
</g>
<!-- Node2&#45;&gt;Node4 -->
<g id="edge6" class="edge"><title>Node2&#45;&gt;Node4</title>
<path fill="none" stroke="midnightblue" d="M307.514,-25.664C316.188,-24.5431 325.199,-23.3787 334.181,-22.2182"/>
<polygon fill="midnightblue" stroke="midnightblue" points="334.82,-25.6648 344.289,-20.9121 333.923,-18.7225 334.82,-25.6648"/>
</g>
<!-- Node5 -->
<g id="node9" class="node"><title>Node5</title>
<a xlink:href="namespaceforcebalance_1_1nifty.html#a2fc81730e7efa7d138dd86f733507bfc" target="_top" xlink:title="Similar to the bultin function map().">
<polygon fill="white" stroke="black" points="534.5,-0.5 534.5,-21.5 715.5,-21.5 715.5,-0.5 534.5,-0.5"/>
<text text-anchor="middle" x="625" y="-8.5" font-family="Ubuntu-R" font-size="10.00">forcebalance.nifty.concurrent_map</text>
</a>
</g>
<!-- Node4&#45;&gt;Node5 -->
<g id="edge8" class="edge"><title>Node4&#45;&gt;Node5</title>
<path fill="none" stroke="midnightblue" d="M497.542,-11C506.25,-11 515.221,-11 524.181,-11"/>
<polygon fill="midnightblue" stroke="midnightblue" points="524.277,-14.5001 534.277,-11 524.277,-7.5001 524.277,-14.5001"/>
</g>
</g>
</svg>
