<?xml version="1.0" encoding="UTF-8" standalone="no"?>
<!DOCTYPE svg PUBLIC "-//W3C//DTD SVG 1.1//EN"
 "http://www.w3.org/Graphics/SVG/1.1/DTD/svg11.dtd">
<!-- Generated by graphviz version 2.32.0 (20130801.1845)
 -->
<!-- Title: forcebalance.parser.printsection Pages: 1 -->
<svg width="1808pt" height="146pt"
 viewBox="0.00 0.00 1808.00 146.00" xmlns="http://www.w3.org/2000/svg" xmlns:xlink="http://www.w3.org/1999/xlink">
<g id="graph0" class="graph" transform="scale(1 1) rotate(0) translate(4 142)">
<title>forcebalance.parser.printsection</title>
<polygon fill="white" stroke="white" points="-4,5 -4,-142 1805,-142 1805,5 -4,5"/>
<!-- Node1 -->
<g id="node1" class="node"><title>Node1</title>
<polygon fill="#bfbfbf" stroke="black" points="0.146,-86 0.146,-106 143.854,-106 143.854,-86 0.146,-86"/>
<text text-anchor="middle" x="72" y="-93" font-family="Ubuntu-R" font-size="10.00">forcebalance.parser.printsection</text>
</g>
<!-- Node2 -->
<g id="node2" class="node"><title>Node2</title>
<g id="a_node2"><a xlink:href="namespaceforcebalance_1_1parser.html#ac184c809737a27f35530020322431f7c" target="_top" xlink:title="Parse through the input file and read all user&#45;supplied options.">
<polygon fill="white" stroke="black" points="180.204,-80 180.204,-112 297.796,-112 297.796,-80 180.204,-80"/>
<text text-anchor="start" x="188.204" y="-99" font-family="Ubuntu-R" font-size="10.00">forcebalance.parser.parse</text>
<text text-anchor="middle" x="239" y="-87" font-family="Ubuntu-R" font-size="10.00">_inputs</text>
</a>
</g>
</g>
<!-- Node1&#45;&gt;Node2 -->
<g id="edge1" class="edge"><title>Node1&#45;&gt;Node2</title>
<path fill="none" stroke="midnightblue" d="M143.932,-96C152.502,-96 161.241,-96 169.77,-96"/>
<polygon fill="midnightblue" stroke="midnightblue" points="170.045,-99.5001 180.045,-96 170.045,-92.5001 170.045,-99.5001"/>
</g>
<!-- Node3 -->
<g id="node3" class="node"><title>Node3</title>
<g id="a_node3"><a xlink:href="namespaceforcebalance_1_1nifty.html#a11babd62dc7bca389162c6318f9672ca" target="_top" xlink:title="Cool&#45;looking printout for slick formatting of output.">
<polygon fill="white" stroke="black" points="334.469,-86 334.469,-106 461.531,-106 461.531,-86 334.469,-86"/>
<text text-anchor="middle" x="398" y="-93" font-family="Ubuntu-R" font-size="10.00">forcebalance.nifty.printcool</text>
</a>
</g>
</g>
<!-- Node2&#45;&gt;Node3 -->
<g id="edge2" class="edge"><title>Node2&#45;&gt;Node3</title>
<path fill="none" stroke="midnightblue" d="M298.015,-96C306.491,-96 315.309,-96 324.036,-96"/>
<polygon fill="midnightblue" stroke="midnightblue" points="324.212,-99.5001 334.212,-96 324.212,-92.5001 324.212,-99.5001"/>
</g>
<!-- Node4 -->
<g id="node4" class="node"><title>Node4</title>
<g id="a_node4"><a xlink:href="namespaceforcebalance_1_1nifty.html#abb8f59044961a12588e0653c2baa8b01" target="_top" xlink:title="forcebalance.nifty.warn\l_press_key">
<polygon fill="white" stroke="black" points="1479.53,-105 1479.53,-137 1590.47,-137 1590.47,-105 1479.53,-105"/>
<text text-anchor="start" x="1487.53" y="-124" font-family="Ubuntu-R" font-size="10.00">forcebalance.nifty.warn</text>
<text text-anchor="middle" x="1535" y="-112" font-family="Ubuntu-R" font-size="10.00">_press_key</text>
</a>
</g>
</g>
<!-- Node3&#45;&gt;Node4 -->
<g id="edge3" class="edge"><title>Node3&#45;&gt;Node4</title>
<path fill="none" stroke="midnightblue" d="M461.775,-105.809C525.413,-114.891 626.801,-127 715,-127 715,-127 715,-127 1191,-127 1287.87,-127 1400.11,-124.578 1469.08,-122.812"/>
<polygon fill="midnightblue" stroke="midnightblue" points="1469.45,-126.303 1479.35,-122.545 1469.26,-119.306 1469.45,-126.303"/>
</g>
<!-- Node6 -->
<g id="node6" class="node"><title>Node6</title>
<g id="a_node6"><a xlink:href="namespaceforcebalance_1_1nifty.html#a51180e960742cc7547749fdfb3513ec4" target="_top" xlink:title="See documentation for printcool; this is a nice way to print out keys/values in a dictionary...">
<polygon fill="white" stroke="black" points="498.469,-50 498.469,-82 625.532,-82 625.532,-50 498.469,-50"/>
<text text-anchor="start" x="506.469" y="-69" font-family="Ubuntu-R" font-size="10.00">forcebalance.nifty.printcool</text>
<text text-anchor="middle" x="562" y="-57" font-family="Ubuntu-R" font-size="10.00">_dictionary</text>
</a>
</g>
</g>
<!-- Node3&#45;&gt;Node6 -->
<g id="edge5" class="edge"><title>Node3&#45;&gt;Node6</title>
<path fill="none" stroke="midnightblue" d="M453.394,-85.927C464.669,-83.8391 476.717,-81.608 488.521,-79.422"/>
<polygon fill="midnightblue" stroke="midnightblue" points="489.161,-82.8631 498.357,-77.6006 487.886,-75.9801 489.161,-82.8631"/>
</g>
<!-- Node5 -->
<g id="node5" class="node"><title>Node5</title>
<g id="a_node5"><a xlink:href="namespaceforcebalance_1_1nifty.html#a2fc81730e7efa7d138dd86f733507bfc" target="_top" xlink:title="Similar to the bultin function map().">
<polygon fill="white" stroke="black" points="1644.04,-111 1644.04,-131 1799.96,-131 1799.96,-111 1644.04,-111"/>
<text text-anchor="middle" x="1722" y="-118" font-family="Ubuntu-R" font-size="10.00">forcebalance.nifty.concurrent_map</text>
</a>
</g>
</g>
<!-- Node4&#45;&gt;Node5 -->
<g id="edge4" class="edge"><title>Node4&#45;&gt;Node5</title>
<path fill="none" stroke="midnightblue" d="M1590.51,-121C1604.1,-121 1619.02,-121 1633.77,-121"/>
<polygon fill="midnightblue" stroke="midnightblue" points="1633.92,-124.5 1643.92,-121 1633.92,-117.5 1633.92,-124.5"/>
</g>
<!-- Node7 -->
<g id="node7" class="node"><title>Node7</title>
<g id="a_node7"><a xlink:href="namespaceforcebalance_1_1nifty.html#a3f1c7a1af9d35d5d1693074bc6f5497c" target="_top" xlink:title="ONLY matches integers! If you have a decimal point? None shall pass!">
<polygon fill="white" stroke="black" points="661.908,-56 661.908,-76 770.092,-76 770.092,-56 661.908,-56"/>
<text text-anchor="middle" x="716" y="-63" font-family="Ubuntu-R" font-size="10.00">forcebalance.nifty.isint</text>
</a>
</g>
</g>
<!-- Node6&#45;&gt;Node7 -->
<g id="edge6" class="edge"><title>Node6&#45;&gt;Node7</title>
<path fill="none" stroke="midnightblue" d="M625.702,-66C634.19,-66 642.907,-66 651.41,-66"/>
<polygon fill="midnightblue" stroke="midnightblue" points="651.648,-69.5001 661.648,-66 651.648,-62.5001 651.648,-69.5001"/>
</g>
<!-- Node9 -->
<g id="node9" class="node"><title>Node9</title>
<g id="a_node9"><a xlink:href="namespaceforcebalance_1_1nifty.html#a8e3ef0108b9d37b82ba0dced7c6037ae" target="_top" xlink:title="Matches ANY number; it can be a decimal, scientific notation, what have you CAUTION &#45; this will also ...">
<polygon fill="white" stroke="black" points="972.024,-20 972.024,-40 1087.98,-40 1087.98,-20 972.024,-20"/>
<text text-anchor="middle" x="1030" y="-27" font-family="Ubuntu-R" font-size="10.00">forcebalance.nifty.isfloat</text>
</a>
</g>
</g>
<!-- Node6&#45;&gt;Node9 -->
<g id="edge21" class="edge"><title>Node6&#45;&gt;Node9</title>
<path fill="none" stroke="midnightblue" d="M625.62,-51.9352C637.644,-49.6365 650.173,-47.5152 662,-46 766.068,-32.6676 887.942,-29.8632 961.76,-29.5615"/>
<polygon fill="midnightblue" stroke="midnightblue" points="961.859,-33.0614 971.85,-29.5347 961.841,-26.0614 961.859,-33.0614"/>
</g>
<!-- Node8 -->
<g id="node8" class="node"><title>Node8</title>
<g id="a_node8"><a xlink:href="namespaceforcebalance_1_1nifty.html#a09263927eaec9deff283fbf1a820242f" target="_top" xlink:title="Matches things with a decimal only; see isint and isfloat.">
<polygon fill="white" stroke="black" points="806.36,-78 806.36,-98 935.64,-98 935.64,-78 806.36,-78"/>
<text text-anchor="middle" x="871" y="-85" font-family="Ubuntu-R" font-size="10.00">forcebalance.nifty.isdecimal</text>
</a>
</g>
</g>
<!-- Node7&#45;&gt;Node8 -->
<g id="edge7" class="edge"><title>Node7&#45;&gt;Node8</title>
<path fill="none" stroke="midnightblue" d="M770.512,-73.6945C778.812,-74.8879 787.509,-76.1386 796.161,-77.3827"/>
<polygon fill="midnightblue" stroke="midnightblue" points="795.874,-80.8773 806.271,-78.8363 796.871,-73.9486 795.874,-80.8773"/>
</g>
<!-- Node8&#45;&gt;Node9 -->
<g id="edge8" class="edge"><title>Node8&#45;&gt;Node9</title>
<path fill="none" stroke="midnightblue" d="M899.347,-77.8972C925.046,-68.4035 963.699,-54.124 992.116,-43.6258"/>
<polygon fill="midnightblue" stroke="midnightblue" points="993.536,-46.8327 1001.7,-40.0842 991.11,-40.2665 993.536,-46.8327"/>
</g>
<!-- Node13 -->
<g id="node13" class="node"><title>Node13</title>
<g id="a_node13"><a xlink:href="namespaceforcebalance_1_1nifty.html#afb3f205bce4984856e766af7e9fdaca8" target="_top" xlink:title="Given any list, array, or matrix, return a 1&#45;column matrix.">
<polygon fill="white" stroke="black" points="978.412,-78 978.412,-98 1081.59,-98 1081.59,-78 978.412,-78"/>
<text text-anchor="middle" x="1030" y="-85" font-family="Ubuntu-R" font-size="10.00">forcebalance.nifty.col</text>
</a>
</g>
</g>
<!-- Node8&#45;&gt;Node13 -->
<g id="edge13" class="edge"><title>Node8&#45;&gt;Node13</title>
<path fill="none" stroke="midnightblue" d="M935.858,-88C946.427,-88 957.364,-88 967.864,-88"/>
<polygon fill="midnightblue" stroke="midnightblue" points="968.189,-91.5001 978.189,-88 968.189,-84.5001 968.189,-91.5001"/>
</g>
<!-- Node9&#45;&gt;Node7 -->
<g id="edge9" class="edge"><title>Node9&#45;&gt;Node7</title>
<path fill="none" stroke="midnightblue" d="M971.978,-36.5794C917.846,-42.8255 836.625,-52.1971 780.463,-58.6773"/>
<polygon fill="midnightblue" stroke="midnightblue" points="779.813,-55.229 770.28,-59.8523 780.616,-62.1829 779.813,-55.229"/>
</g>
<!-- Node10 -->
<g id="node10" class="node"><title>Node10</title>
<g id="a_node10"><a xlink:href="namespaceforcebalance_1_1nifty.html#a8d63c8ae9a67c66673a6cf81357f827d" target="_top" xlink:title="Returns a big number if we encounter NaN.">
<polygon fill="white" stroke="black" points="1123.97,-0 1123.97,-20 1256.03,-20 1256.03,-0 1123.97,-0"/>
<text text-anchor="middle" x="1190" y="-7" font-family="Ubuntu-R" font-size="10.00">forcebalance.nifty.floatornan</text>
</a>
</g>
</g>
<!-- Node9&#45;&gt;Node10 -->
<g id="edge10" class="edge"><title>Node9&#45;&gt;Node10</title>
<path fill="none" stroke="midnightblue" d="M1088.04,-22.7795C1096.36,-21.726 1105.04,-20.6278 1113.66,-19.5369"/>
<polygon fill="midnightblue" stroke="midnightblue" points="1114.24,-22.9911 1123.72,-18.2629 1113.36,-16.0465 1114.24,-22.9911"/>
</g>
<!-- Node11 -->
<g id="node11" class="node"><title>Node11</title>
<g id="a_node11"><a xlink:href="namespaceforcebalance_1_1nifty.html#a6c9727360cdff8f3011a12cc54d0e86e" target="_top" xlink:title="Given any list, array, or matrix, return a 1&#45;row matrix.">
<polygon fill="white" stroke="black" points="1305.75,-0 1305.75,-20 1412.25,-20 1412.25,-0 1305.75,-0"/>
<text text-anchor="middle" x="1359" y="-7" font-family="Ubuntu-R" font-size="10.00">forcebalance.nifty.row</text>
</a>
</g>
</g>
<!-- Node10&#45;&gt;Node11 -->
<g id="edge11" class="edge"><title>Node10&#45;&gt;Node11</title>
<path fill="none" stroke="midnightblue" d="M1256.04,-10C1268.98,-10 1282.54,-10 1295.39,-10"/>
<polygon fill="midnightblue" stroke="midnightblue" points="1295.52,-13.5001 1305.52,-10 1295.52,-6.5001 1295.52,-13.5001"/>
</g>
<!-- Node12 -->
<g id="node12" class="node"><title>Node12</title>
<g id="a_node12"><a xlink:href="namespaceforcebalance_1_1nifty.html#a7676236002c6a65ea7d2e69a09923889" target="_top" xlink:title="Given two vectors vec1 and vec2, project out the component of vec1 that is along the vec2&#45;direction...">
<polygon fill="white" stroke="black" points="1462.03,-0 1462.03,-20 1607.97,-20 1607.97,-0 1462.03,-0"/>
<text text-anchor="middle" x="1535" y="-7" font-family="Ubuntu-R" font-size="10.00">forcebalance.nifty.orthogonalize</text>
</a>
</g>
</g>
<!-- Node11&#45;&gt;Node12 -->
<g id="edge12" class="edge"><title>Node11&#45;&gt;Node12</title>
<path fill="none" stroke="midnightblue" d="M1412.68,-10C1425.03,-10 1438.49,-10 1451.79,-10"/>
<polygon fill="midnightblue" stroke="midnightblue" points="1451.92,-13.5001 1461.92,-10 1451.92,-6.5001 1451.92,-13.5001"/>
</g>
<!-- Node14 -->
<g id="node14" class="node"><title>Node14</title>
<g id="a_node14"><a xlink:href="namespaceforcebalance_1_1nifty.html#a52114ceee9d55f94d9aecb3e176de294" target="_top" xlink:title="Given any list, array, or matrix, return a single&#45;index array.">
<polygon fill="white" stroke="black" points="1137.86,-39 1137.86,-59 1242.14,-59 1242.14,-39 1137.86,-39"/>
<text text-anchor="middle" x="1190" y="-46" font-family="Ubuntu-R" font-size="10.00">forcebalance.nifty.flat</text>
</a>
</g>
</g>
<!-- Node13&#45;&gt;Node14 -->
<g id="edge14" class="edge"><title>Node13&#45;&gt;Node14</title>
<path fill="none" stroke="midnightblue" d="M1071.69,-77.9565C1092.05,-72.9298 1116.9,-66.7968 1138.48,-61.4713"/>
<polygon fill="midnightblue" stroke="midnightblue" points="1139.58,-64.804 1148.45,-59.0094 1137.9,-58.0079 1139.58,-64.804"/>
</g>
<!-- Node15 -->
<g id="node15" class="node"><title>Node15</title>
<g id="a_node15"><a xlink:href="namespaceforcebalance_1_1nifty.html#a4c82187e92dfeb8a159f4aa44b501c40" target="_top" xlink:title="Invert a matrix using singular value decomposition.">
<polygon fill="white" stroke="black" points="1292.41,-78 1292.41,-98 1425.59,-98 1425.59,-78 1292.41,-78"/>
<text text-anchor="middle" x="1359" y="-85" font-family="Ubuntu-R" font-size="10.00">forcebalance.nifty.invert_svd</text>
</a>
</g>
</g>
<!-- Node14&#45;&gt;Node15 -->
<g id="edge15" class="edge"><title>Node14&#45;&gt;Node15</title>
<path fill="none" stroke="midnightblue" d="M1234.01,-59.0435C1255.73,-64.1157 1282.27,-70.3143 1305.22,-75.6731"/>
<polygon fill="midnightblue" stroke="midnightblue" points="1304.61,-79.1246 1315.14,-77.9906 1306.2,-72.3081 1304.61,-79.1246"/>
</g>
<!-- Node15&#45;&gt;Node4 -->
<g id="edge20" class="edge"><title>Node15&#45;&gt;Node4</title>
<path fill="none" stroke="midnightblue" d="M1413.15,-98.0804C1430.94,-101.454 1450.97,-105.253 1469.53,-108.773"/>
<polygon fill="midnightblue" stroke="midnightblue" points="1468.89,-112.215 1479.37,-110.639 1470.2,-105.337 1468.89,-112.215"/>
</g>
<!-- Node15&#45;&gt;Node13 -->
<g id="edge19" class="edge"><title>Node15&#45;&gt;Node13</title>
<path fill="none" stroke="midnightblue" d="M1292.17,-88C1233.72,-88 1148.98,-88 1092.03,-88"/>
<polygon fill="midnightblue" stroke="midnightblue" points="1091.73,-84.5001 1081.73,-88 1091.73,-91.5001 1091.73,-84.5001"/>
</g>
<!-- Node16 -->
<g id="node16" class="node"><title>Node16</title>
<g id="a_node16"><a xlink:href="namespaceforcebalance_1_1nifty.html#aa9fb9c7c65231eca50a7afc04f489b64" target="_top" xlink:title="forcebalance.nifty.get\l_least_squares">
<polygon fill="white" stroke="black" points="1483.41,-49 1483.41,-81 1586.59,-81 1586.59,-49 1483.41,-49"/>
<text text-anchor="start" x="1491.41" y="-68" font-family="Ubuntu-R" font-size="10.00">forcebalance.nifty.get</text>
<text text-anchor="middle" x="1535" y="-56" font-family="Ubuntu-R" font-size="10.00">_least_squares</text>
</a>
</g>
</g>
<!-- Node15&#45;&gt;Node16 -->
<g id="edge16" class="edge"><title>Node15&#45;&gt;Node16</title>
<path fill="none" stroke="midnightblue" d="M1425.78,-79.3047C1441.26,-77.2582 1457.7,-75.0855 1472.96,-73.0679"/>
<polygon fill="midnightblue" stroke="midnightblue" points="1473.86,-76.4797 1483.32,-71.6994 1472.95,-69.5401 1473.86,-76.4797"/>
</g>
<!-- Node16&#45;&gt;Node14 -->
<g id="edge17" class="edge"><title>Node16&#45;&gt;Node14</title>
<path fill="none" stroke="midnightblue" d="M1483.14,-62.6275C1421.72,-59.7622 1318.46,-54.9457 1252.59,-51.873"/>
<polygon fill="midnightblue" stroke="midnightblue" points="1252.5,-48.3652 1242.35,-51.3954 1252.18,-55.3576 1252.5,-48.3652"/>
</g>
<!-- Node17 -->
<g id="node17" class="node"><title>Node17</title>
<g id="a_node17"><a xlink:href="namespaceforcebalance_1_1nifty.html#ad5ca60565c864b4245a8212fe9d92e10" target="_top" xlink:title="Compute the (cross) statistical inefficiency of (two) timeseries.">
<polygon fill="white" stroke="black" points="1657.64,-49 1657.64,-81 1786.36,-81 1786.36,-49 1657.64,-49"/>
<text text-anchor="start" x="1665.64" y="-68" font-family="Ubuntu-R" font-size="10.00">forcebalance.nifty.statistical</text>
<text text-anchor="middle" x="1722" y="-56" font-family="Ubuntu-R" font-size="10.00">Inefficiency</text>
</a>
</g>
</g>
<!-- Node16&#45;&gt;Node17 -->
<g id="edge18" class="edge"><title>Node16&#45;&gt;Node17</title>
<path fill="none" stroke="midnightblue" d="M1587.04,-65C1605.71,-65 1627.21,-65 1647.45,-65"/>
<polygon fill="midnightblue" stroke="midnightblue" points="1647.58,-68.5001 1657.58,-65 1647.58,-61.5001 1647.58,-68.5001"/>
</g>
</g>
</svg>
