<?xml version="1.0" encoding="UTF-8" standalone="no"?>
<!DOCTYPE svg PUBLIC "-//W3C//DTD SVG 1.1//EN"
 "http://www.w3.org/Graphics/SVG/1.1/DTD/svg11.dtd">
<!-- Generated by graphviz version 2.40.1 (20161225.0304)
 -->
<!-- Title: src.nifty.printcool_dictionary Pages: 1 -->
<svg width="419pt" height="39pt"
 viewBox="0.00 0.00 419.00 39.00" xmlns="http://www.w3.org/2000/svg" xmlns:xlink="http://www.w3.org/1999/xlink">
<g id="graph0" class="graph" transform="scale(1 1) rotate(0) translate(4 35)">
<title>src.nifty.printcool_dictionary</title>
<polygon fill="#ffffff" stroke="transparent" points="-4,4 -4,-35 415,-35 415,4 -4,4"/>
<!-- Node57 -->
<g id="node1" class="node">
<title>Node57</title>
<polygon fill="#bfbfbf" stroke="#000000" points="0,-.5 0,-30.5 101,-30.5 101,-.5 0,-.5"/>
<text text-anchor="start" x="8" y="-18.5" font-family="Ubuntu-R" font-size="10.00" fill="#000000">src.nifty.printcool</text>
<text text-anchor="middle" x="50.5" y="-7.5" font-family="Ubuntu-R" font-size="10.00" fill="#000000">_dictionary</text>
</g>
<!-- Node58 -->
<g id="node2" class="node">
<title>Node58</title>
<g id="a_node2"><a xlink:href="namespacesrc_1_1nifty.html#a9bda70a78d0f5d31e10dfffaf85803c9" target="_top" xlink:title="Cool&#45;looking printout for slick formatting of output. ">
<polygon fill="#ffffff" stroke="#000000" points="137,-6 137,-25 238,-25 238,-6 137,-6"/>
<text text-anchor="middle" x="187.5" y="-13" font-family="Ubuntu-R" font-size="10.00" fill="#000000">src.nifty.printcool</text>
</a>
</g>
</g>
<!-- Node57&#45;&gt;Node58 -->
<g id="edge1" class="edge">
<title>Node57&#45;&gt;Node58</title>
<path fill="none" stroke="#191970" d="M101.1245,-15.5C109.3614,-15.5 117.969,-15.5 126.4239,-15.5"/>
<polygon fill="#191970" stroke="#191970" points="126.6262,-19.0001 136.6262,-15.5 126.6262,-12.0001 126.6262,-19.0001"/>
</g>
<!-- Node59 -->
<g id="node3" class="node">
<title>Node59</title>
<g id="a_node3"><a xlink:href="namespacesrc_1_1nifty.html#a6ae2951ba2a22420a11abda6be7e5454" target="_top" xlink:title="src.nifty.warn_press_key">
<polygon fill="#ffffff" stroke="#000000" points="274,-6 274,-25 411,-25 411,-6 274,-6"/>
<text text-anchor="middle" x="342.5" y="-13" font-family="Ubuntu-R" font-size="10.00" fill="#000000">src.nifty.warn_press_key</text>
</a>
</g>
</g>
<!-- Node58&#45;&gt;Node59 -->
<g id="edge2" class="edge">
<title>Node58&#45;&gt;Node59</title>
<path fill="none" stroke="#191970" d="M238.2528,-15.5C246.4389,-15.5 255.0789,-15.5 263.7399,-15.5"/>
<polygon fill="#191970" stroke="#191970" points="263.8908,-19.0001 273.8908,-15.5 263.8907,-12.0001 263.8908,-19.0001"/>
</g>
</g>
</svg>
