<?xml version="1.0" encoding="UTF-8" standalone="no"?>
<!DOCTYPE svg PUBLIC "-//W3C//DTD SVG 1.1//EN"
 "http://www.w3.org/Graphics/SVG/1.1/DTD/svg11.dtd">
<!-- Generated by graphviz version 2.26.3 (20100126.1600)
 -->
<!-- Title: forcebalance.nifty.isdecimal Pages: 1 -->
<svg width="904pt" height="164pt"
 viewBox="0.00 0.00 904.00 164.00" xmlns="http://www.w3.org/2000/svg" xmlns:xlink="http://www.w3.org/1999/xlink">
<g id="graph1" class="graph" transform="scale(1 1) rotate(0) translate(4 160)">
<title>forcebalance.nifty.isdecimal</title>
<polygon fill="white" stroke="white" points="-4,5 -4,-160 901,-160 901,5 -4,5"/>
<!-- Node1 -->
<g id="node1" class="node"><title>Node1</title>
<polygon fill="#bfbfbf" stroke="black" points="0.5,-94.5 0.5,-115.5 147.5,-115.5 147.5,-94.5 0.5,-94.5"/>
<text text-anchor="middle" x="74" y="-102.5" font-family="Ubuntu-R" font-size="10.00">forcebalance.nifty.isdecimal</text>
</g>
<!-- Node2 -->
<g id="node3" class="node"><title>Node2</title>
<a xlink:href="namespaceforcebalance_1_1nifty.html#a8e3ef0108b9d37b82ba0dced7c6037ae" target="_top" xlink:title="Matches ANY number; it can be a decimal, scientific notation, what have you CAUTION &#45; this will also ...">
<polygon fill="white" stroke="black" points="184.5,-94.5 184.5,-115.5 315.5,-115.5 315.5,-94.5 184.5,-94.5"/>
<text text-anchor="middle" x="250" y="-102.5" font-family="Ubuntu-R" font-size="10.00">forcebalance.nifty.isfloat</text>
</a>
</g>
<!-- Node1&#45;&gt;Node2 -->
<g id="edge2" class="edge"><title>Node1&#45;&gt;Node2</title>
<path fill="none" stroke="midnightblue" d="M147.62,-105C156.354,-105 165.282,-105 174.047,-105"/>
<polygon fill="midnightblue" stroke="midnightblue" points="174.241,-108.5 184.241,-105 174.241,-101.5 174.241,-108.5"/>
</g>
<!-- Node7 -->
<g id="node14" class="node"><title>Node7</title>
<a xlink:href="namespaceforcebalance_1_1nifty.html#afb3f205bce4984856e766af7e9fdaca8" target="_top" xlink:title="Given any list, array, or matrix, return a 1&#45;column matrix.">
<polygon fill="white" stroke="black" points="192,-54.5 192,-75.5 308,-75.5 308,-54.5 192,-54.5"/>
<text text-anchor="middle" x="250" y="-62.5" font-family="Ubuntu-R" font-size="10.00">forcebalance.nifty.col</text>
</a>
</g>
<!-- Node1&#45;&gt;Node7 -->
<g id="edge14" class="edge"><title>Node1&#45;&gt;Node7</title>
<path fill="none" stroke="midnightblue" d="M120.242,-94.4905C142.788,-89.3663 170.096,-83.1601 193.832,-77.7655"/>
<polygon fill="midnightblue" stroke="midnightblue" points="194.786,-81.138 203.762,-75.5087 193.235,-74.312 194.786,-81.138"/>
</g>
<!-- Node3 -->
<g id="node5" class="node"><title>Node3</title>
<a xlink:href="namespaceforcebalance_1_1nifty.html#a3f1c7a1af9d35d5d1693074bc6f5497c" target="_top" xlink:title="ONLY matches integers! If you have a decimal point? None shall pass!">
<polygon fill="white" stroke="black" points="367,-134.5 367,-155.5 489,-155.5 489,-134.5 367,-134.5"/>
<text text-anchor="middle" x="428" y="-142.5" font-family="Ubuntu-R" font-size="10.00">forcebalance.nifty.isint</text>
</a>
</g>
<!-- Node2&#45;&gt;Node3 -->
<g id="edge4" class="edge"><title>Node2&#45;&gt;Node3</title>
<path fill="none" stroke="midnightblue" d="M296.767,-115.51C319.57,-120.634 347.188,-126.84 371.194,-132.235"/>
<polygon fill="midnightblue" stroke="midnightblue" points="370.712,-135.714 381.236,-134.491 372.247,-128.884 370.712,-135.714"/>
</g>
<!-- Node4 -->
<g id="node8" class="node"><title>Node4</title>
<a xlink:href="namespaceforcebalance_1_1nifty.html#a8d63c8ae9a67c66673a6cf81357f827d" target="_top" xlink:title="Returns a big number if we encounter NaN.">
<polygon fill="white" stroke="black" points="352.5,-94.5 352.5,-115.5 503.5,-115.5 503.5,-94.5 352.5,-94.5"/>
<text text-anchor="middle" x="428" y="-102.5" font-family="Ubuntu-R" font-size="10.00">forcebalance.nifty.floatornan</text>
</a>
</g>
<!-- Node2&#45;&gt;Node4 -->
<g id="edge8" class="edge"><title>Node2&#45;&gt;Node4</title>
<path fill="none" stroke="midnightblue" d="M315.522,-105C324.237,-105 333.275,-105 342.269,-105"/>
<polygon fill="midnightblue" stroke="midnightblue" points="342.384,-108.5 352.384,-105 342.384,-101.5 342.384,-108.5"/>
</g>
<!-- Node3&#45;&gt;Node1 -->
<g id="edge6" class="edge"><title>Node3&#45;&gt;Node1</title>
<path fill="none" stroke="midnightblue" d="M366.907,-141.659C317.447,-138.553 246.051,-133.164 184,-125 168.371,-122.944 151.589,-120.179 135.957,-117.363"/>
<polygon fill="midnightblue" stroke="midnightblue" points="136.342,-113.875 125.874,-115.512 135.078,-120.76 136.342,-113.875"/>
</g>
<!-- Node5 -->
<g id="node10" class="node"><title>Node5</title>
<a xlink:href="namespaceforcebalance_1_1nifty.html#a6c9727360cdff8f3011a12cc54d0e86e" target="_top" xlink:title="Given any list, array, or matrix, return a 1&#45;row matrix.">
<polygon fill="white" stroke="black" points="556.5,-94.5 556.5,-115.5 675.5,-115.5 675.5,-94.5 556.5,-94.5"/>
<text text-anchor="middle" x="616" y="-102.5" font-family="Ubuntu-R" font-size="10.00">forcebalance.nifty.row</text>
</a>
</g>
<!-- Node4&#45;&gt;Node5 -->
<g id="edge10" class="edge"><title>Node4&#45;&gt;Node5</title>
<path fill="none" stroke="midnightblue" d="M503.654,-105C517.639,-105 532.187,-105 545.995,-105"/>
<polygon fill="midnightblue" stroke="midnightblue" points="546.389,-108.5 556.389,-105 546.388,-101.5 546.389,-108.5"/>
</g>
<!-- Node6 -->
<g id="node12" class="node"><title>Node6</title>
<a xlink:href="namespaceforcebalance_1_1nifty.html#a7676236002c6a65ea7d2e69a09923889" target="_top" xlink:title="Given two vectors vec1 and vec2, project out the component of vec1 that is along the vec2&#45;direction...">
<polygon fill="white" stroke="black" points="728,-104.5 728,-125.5 896,-125.5 896,-104.5 728,-104.5"/>
<text text-anchor="middle" x="812" y="-112.5" font-family="Ubuntu-R" font-size="10.00">forcebalance.nifty.orthogonalize</text>
</a>
</g>
<!-- Node5&#45;&gt;Node6 -->
<g id="edge12" class="edge"><title>Node5&#45;&gt;Node6</title>
<path fill="none" stroke="midnightblue" d="M675.605,-108.041C688.837,-108.716 703.177,-109.448 717.422,-110.175"/>
<polygon fill="midnightblue" stroke="midnightblue" points="717.594,-113.688 727.76,-110.702 717.951,-106.697 717.594,-113.688"/>
</g>
<!-- Node8 -->
<g id="node16" class="node"><title>Node8</title>
<a xlink:href="namespaceforcebalance_1_1nifty.html#a52114ceee9d55f94d9aecb3e176de294" target="_top" xlink:title="Given any list, array, or matrix, return a single&#45;index array.">
<polygon fill="white" stroke="black" points="369.5,-15.5 369.5,-36.5 486.5,-36.5 486.5,-15.5 369.5,-15.5"/>
<text text-anchor="middle" x="428" y="-23.5" font-family="Ubuntu-R" font-size="10.00">forcebalance.nifty.flat</text>
</a>
</g>
<!-- Node7&#45;&gt;Node8 -->
<g id="edge16" class="edge"><title>Node7&#45;&gt;Node8</title>
<path fill="none" stroke="midnightblue" d="M298.169,-54.446C320.233,-49.612 346.57,-43.8414 369.739,-38.7651"/>
<polygon fill="midnightblue" stroke="midnightblue" points="370.773,-42.1216 379.792,-36.5624 369.275,-35.2838 370.773,-42.1216"/>
</g>
<!-- Node9 -->
<g id="node18" class="node"><title>Node9</title>
<a xlink:href="namespaceforcebalance_1_1nifty.html#a4c82187e92dfeb8a159f4aa44b501c40" target="_top" xlink:title="Invert a matrix using singular value decomposition.">
<polygon fill="white" stroke="black" points="540.5,-54.5 540.5,-75.5 691.5,-75.5 691.5,-54.5 540.5,-54.5"/>
<text text-anchor="middle" x="616" y="-62.5" font-family="Ubuntu-R" font-size="10.00">forcebalance.nifty.invert_svd</text>
</a>
</g>
<!-- Node8&#45;&gt;Node9 -->
<g id="edge18" class="edge"><title>Node8&#45;&gt;Node9</title>
<path fill="none" stroke="midnightblue" d="M478.876,-36.554C502.387,-41.4314 530.494,-47.2621 555.123,-52.3713"/>
<polygon fill="midnightblue" stroke="midnightblue" points="554.581,-55.8333 565.084,-54.4376 556.003,-48.9793 554.581,-55.8333"/>
</g>
<!-- Node9&#45;&gt;Node7 -->
<g id="edge24" class="edge"><title>Node9&#45;&gt;Node7</title>
<path fill="none" stroke="midnightblue" d="M540.353,-65C475.126,-65 381.749,-65 318.646,-65"/>
<polygon fill="midnightblue" stroke="midnightblue" points="318.399,-61.5001 308.398,-65 318.398,-68.5001 318.399,-61.5001"/>
</g>
<!-- Node10 -->
<g id="node20" class="node"><title>Node10</title>
<a xlink:href="namespaceforcebalance_1_1nifty.html#aa9fb9c7c65231eca50a7afc04f489b64" target="_top" xlink:title="forcebalance.nifty.get\l_least_squares">
<polygon fill="white" stroke="black" points="753,-0 753,-34 871,-34 871,-0 753,-0"/>
<text text-anchor="start" x="761" y="-21" font-family="Ubuntu-R" font-size="10.00">forcebalance.nifty.get</text>
<text text-anchor="middle" x="812" y="-8" font-family="Ubuntu-R" font-size="10.00">_least_squares</text>
</a>
</g>
<!-- Node9&#45;&gt;Node10 -->
<g id="edge20" class="edge"><title>Node9&#45;&gt;Node10</title>
<path fill="none" stroke="midnightblue" d="M659.013,-54.4662C683.609,-48.4428 715.037,-40.7461 743.002,-33.8975"/>
<polygon fill="midnightblue" stroke="midnightblue" points="743.852,-37.2928 752.732,-31.5145 742.187,-30.4937 743.852,-37.2928"/>
</g>
<!-- Node11 -->
<g id="node24" class="node"><title>Node11</title>
<a xlink:href="namespaceforcebalance_1_1nifty.html#abb8f59044961a12588e0653c2baa8b01" target="_top" xlink:title="forcebalance.nifty.warn\l_press_key">
<polygon fill="white" stroke="black" points="749.5,-52 749.5,-86 874.5,-86 874.5,-52 749.5,-52"/>
<text text-anchor="start" x="757.5" y="-73" font-family="Ubuntu-R" font-size="10.00">forcebalance.nifty.warn</text>
<text text-anchor="middle" x="812" y="-60" font-family="Ubuntu-R" font-size="10.00">_press_key</text>
</a>
</g>
<!-- Node9&#45;&gt;Node11 -->
<g id="edge26" class="edge"><title>Node9&#45;&gt;Node11</title>
<path fill="none" stroke="midnightblue" d="M691.779,-66.5465C707.42,-66.8657 723.858,-67.2012 739.383,-67.518"/>
<polygon fill="midnightblue" stroke="midnightblue" points="739.367,-71.0183 749.436,-67.7232 739.51,-64.0198 739.367,-71.0183"/>
</g>
<!-- Node10&#45;&gt;Node8 -->
<g id="edge22" class="edge"><title>Node10&#45;&gt;Node8</title>
<path fill="none" stroke="midnightblue" d="M752.952,-18.3839C683.89,-20.0026 569.745,-22.6778 496.756,-24.3885"/>
<polygon fill="midnightblue" stroke="midnightblue" points="496.655,-20.8898 486.739,-24.6233 496.819,-27.8879 496.655,-20.8898"/>
</g>
</g>
</svg>
