<?xml version="1.0" encoding="UTF-8" standalone="no"?>
<!DOCTYPE svg PUBLIC "-//W3C//DTD SVG 1.1//EN"
 "http://www.w3.org/Graphics/SVG/1.1/DTD/svg11.dtd">
<!-- Generated by graphviz version 2.26.3 (20100126.1600)
 -->
<!-- Title: forcebalance.nifty.commadash Pages: 1 -->
<svg width="360pt" height="70pt"
 viewBox="0.00 0.00 360.00 70.00" xmlns="http://www.w3.org/2000/svg" xmlns:xlink="http://www.w3.org/1999/xlink">
<g id="graph1" class="graph" transform="scale(1 1) rotate(0) translate(4 66)">
<title>forcebalance.nifty.commadash</title>
<polygon fill="white" stroke="white" points="-4,5 -4,-66 357,-66 357,5 -4,5"/>
<!-- Node1 -->
<g id="node1" class="node"><title>Node1</title>
<polygon fill="#bfbfbf" stroke="black" points="0.5,-20.5 0.5,-41.5 163.5,-41.5 163.5,-20.5 0.5,-20.5"/>
<text text-anchor="middle" x="82" y="-28.5" font-family="Ubuntu-R" font-size="10.00">forcebalance.nifty.commadash</text>
</g>
<!-- Node2 -->
<g id="node3" class="node"><title>Node2</title>
<a xlink:href="namespaceforcebalance_1_1nifty.html#a3b9fd8e29c5d8f1b2114e4d9662dfd61" target="_top" xlink:title="forcebalance.nifty.segments">
<polygon fill="white" stroke="black" points="200.5,-40.5 200.5,-61.5 351.5,-61.5 351.5,-40.5 200.5,-40.5"/>
<text text-anchor="middle" x="276" y="-48.5" font-family="Ubuntu-R" font-size="10.00">forcebalance.nifty.segments</text>
</a>
</g>
<!-- Node1&#45;&gt;Node2 -->
<g id="edge2" class="edge"><title>Node1&#45;&gt;Node2</title>
<path fill="none" stroke="midnightblue" d="M163.711,-39.4238C172.419,-40.3216 181.296,-41.2367 190.051,-42.1393"/>
<polygon fill="midnightblue" stroke="midnightblue" points="189.949,-45.6473 200.256,-43.1913 190.667,-38.6842 189.949,-45.6473"/>
</g>
<!-- Node3 -->
<g id="node5" class="node"><title>Node3</title>
<a xlink:href="namespaceforcebalance_1_1nifty.html#a3b437964dc22735bf8a7dcbaf99e413d" target="_top" xlink:title="forcebalance.nifty.encode">
<polygon fill="white" stroke="black" points="207,-0.5 207,-21.5 345,-21.5 345,-0.5 207,-0.5"/>
<text text-anchor="middle" x="276" y="-8.5" font-family="Ubuntu-R" font-size="10.00">forcebalance.nifty.encode</text>
</a>
</g>
<!-- Node1&#45;&gt;Node3 -->
<g id="edge4" class="edge"><title>Node1&#45;&gt;Node3</title>
<path fill="none" stroke="midnightblue" d="M163.711,-22.5762C174.731,-21.4401 186.022,-20.2761 196.994,-19.145"/>
<polygon fill="midnightblue" stroke="midnightblue" points="197.375,-22.6243 206.964,-18.1171 196.657,-15.6612 197.375,-22.6243"/>
</g>
</g>
</svg>
