<?xml version="1.0" encoding="UTF-8" standalone="no"?>
<!DOCTYPE svg PUBLIC "-//W3C//DTD SVG 1.1//EN"
 "http://www.w3.org/Graphics/SVG/1.1/DTD/svg11.dtd">
<!-- Generated by graphviz version 2.28.0 (20111219.2309)
 -->
<!-- Title: G Pages: 1 -->
<svg width="1318pt" height="142pt"
 viewBox="0.00 0.00 1318.00 142.00" xmlns="http://www.w3.org/2000/svg" xmlns:xlink="http://www.w3.org/1999/xlink">
<g id="graph1" class="graph" transform="scale(1 1) rotate(0) translate(4 138)">
<title>G</title>
<polygon fill="white" stroke="white" points="-4,5 -4,-138 1315,-138 1315,5 -4,5"/>
<!-- Node1 -->
<g id="node1" class="node"><title>Node1</title>
<polygon fill="#bfbfbf" stroke="black" points="0.5,-57.5 0.5,-76.5 137.5,-76.5 137.5,-57.5 0.5,-57.5"/>
<text text-anchor="middle" x="69" y="-64.5" font-family="Ubuntu-R" font-size="10.00">forcebalance.nifty.lp_load</text>
</g>
<!-- Node2 -->
<g id="node3" class="node"><title>Node2</title>
<a xlink:href="namespaceforcebalance_1_1nifty.html#a673f4a044169f5d8d822823989a836a7" target="_top" xlink:title="Submit a job to the Work Queue.">
<polygon fill="white" stroke="black" points="174,-57.5 174,-76.5 324,-76.5 324,-57.5 174,-57.5"/>
<text text-anchor="middle" x="249" y="-64.5" font-family="Ubuntu-R" font-size="10.00">forcebalance.nifty.queue_up</text>
</a>
</g>
<!-- Node1&#45;&gt;Node2 -->
<g id="edge2" class="edge"><title>Node1&#45;&gt;Node2</title>
<path fill="none" stroke="midnightblue" d="M137.548,-67C146.101,-67 154.936,-67 163.709,-67"/>
<polygon fill="midnightblue" stroke="midnightblue" points="163.959,-70.5001 173.959,-67 163.959,-63.5001 163.959,-70.5001"/>
</g>
<!-- Node3 -->
<g id="node5" class="node"><title>Node3</title>
<a xlink:href="namespaceforcebalance_1_1nifty.html#a374aac2ef003be02fab49b20ff0a82f0" target="_top" xlink:title="This function waits ten seconds to see if a task in the Work Queue has finished.">
<polygon fill="white" stroke="black" points="360,-57.5 360,-76.5 506,-76.5 506,-57.5 360,-57.5"/>
<text text-anchor="middle" x="433" y="-64.5" font-family="Ubuntu-R" font-size="10.00">forcebalance.nifty.wq_wait1</text>
</a>
</g>
<!-- Node2&#45;&gt;Node3 -->
<g id="edge4" class="edge"><title>Node2&#45;&gt;Node3</title>
<path fill="none" stroke="midnightblue" d="M324.026,-67C332.515,-67 341.207,-67 349.794,-67"/>
<polygon fill="midnightblue" stroke="midnightblue" points="349.807,-70.5001 359.807,-67 349.807,-63.5001 349.807,-70.5001"/>
</g>
<!-- Node4 -->
<g id="node7" class="node"><title>Node4</title>
<a xlink:href="namespaceforcebalance_1_1nifty.html#a576de8c5b6f236280e07e73e39b2ab7c" target="_top" xlink:title="This function waits until the work queue is completely empty.">
<polygon fill="white" stroke="black" points="542,-114.5 542,-133.5 682,-133.5 682,-114.5 542,-114.5"/>
<text text-anchor="middle" x="612" y="-121.5" font-family="Ubuntu-R" font-size="10.00">forcebalance.nifty.wq_wait</text>
</a>
</g>
<!-- Node3&#45;&gt;Node4 -->
<g id="edge6" class="edge"><title>Node3&#45;&gt;Node4</title>
<path fill="none" stroke="midnightblue" d="M463.626,-76.5405C493.236,-86.076 538.938,-100.794 571.594,-111.31"/>
<polygon fill="midnightblue" stroke="midnightblue" points="570.686,-114.694 581.278,-114.428 572.832,-108.031 570.686,-114.694"/>
</g>
<!-- Node5 -->
<g id="node9" class="node"><title>Node5</title>
<a xlink:href="namespaceforcebalance_1_1nifty.html#ac9ab6c5543a2e3080061e0024850edf3" target="_top" xlink:title="forcebalance.nifty.allsplit">
<polygon fill="white" stroke="black" points="718.5,-95.5 718.5,-114.5 851.5,-114.5 851.5,-95.5 718.5,-95.5"/>
<text text-anchor="middle" x="785" y="-102.5" font-family="Ubuntu-R" font-size="10.00">forcebalance.nifty.allsplit</text>
</a>
</g>
<!-- Node3&#45;&gt;Node5 -->
<g id="edge16" class="edge"><title>Node3&#45;&gt;Node5</title>
<path fill="none" stroke="midnightblue" d="M506.096,-74.8275C565.117,-81.2355 648.358,-90.2731 708.329,-96.7843"/>
<polygon fill="midnightblue" stroke="midnightblue" points="708.176,-100.288 718.495,-97.888 708.931,-93.329 708.176,-100.288"/>
</g>
<!-- Node8 -->
<g id="node15" class="node"><title>Node8</title>
<a xlink:href="namespaceforcebalance_1_1nifty.html#ad432b88307e1178b0690c0d350b1af36" target="_top" xlink:title="forcebalance.nifty.GoInto">
<polygon fill="white" stroke="black" points="545,-38.5 545,-57.5 679,-57.5 679,-38.5 545,-38.5"/>
<text text-anchor="middle" x="612" y="-45.5" font-family="Ubuntu-R" font-size="10.00">forcebalance.nifty.GoInto</text>
</a>
</g>
<!-- Node3&#45;&gt;Node8 -->
<g id="edge14" class="edge"><title>Node3&#45;&gt;Node8</title>
<path fill="none" stroke="midnightblue" d="M506.248,-59.2446C515.655,-58.2348 525.315,-57.1978 534.784,-56.1814"/>
<polygon fill="midnightblue" stroke="midnightblue" points="535.394,-59.6361 544.963,-55.0887 534.646,-52.6761 535.394,-59.6361"/>
</g>
<!-- Node9 -->
<g id="node18" class="node"><title>Node9</title>
<a xlink:href="namespaceforcebalance_1_1nifty.html#ab04e8690d099db2379dc860e0d040120" target="_top" xlink:title="forcebalance.nifty.Leave">
<polygon fill="white" stroke="black" points="546.5,-0.5 546.5,-19.5 677.5,-19.5 677.5,-0.5 546.5,-0.5"/>
<text text-anchor="middle" x="612" y="-7.5" font-family="Ubuntu-R" font-size="10.00">forcebalance.nifty.Leave</text>
</a>
</g>
<!-- Node3&#45;&gt;Node9 -->
<g id="edge18" class="edge"><title>Node3&#45;&gt;Node9</title>
<path fill="none" stroke="midnightblue" d="M459.581,-57.4335C481.359,-49.4257 513.548,-37.911 542,-29 549.255,-26.7278 556.984,-24.4563 564.545,-22.3151"/>
<polygon fill="midnightblue" stroke="midnightblue" points="565.643,-25.6427 574.336,-19.5861 563.763,-18.8998 565.643,-25.6427"/>
</g>
<!-- Node4&#45;&gt;Node5 -->
<g id="edge8" class="edge"><title>Node4&#45;&gt;Node5</title>
<path fill="none" stroke="midnightblue" d="M682.059,-116.327C690.654,-115.372 699.478,-114.391 708.168,-113.426"/>
<polygon fill="midnightblue" stroke="midnightblue" points="708.733,-116.885 718.285,-112.302 707.96,-109.927 708.733,-116.885"/>
</g>
<!-- Node6 -->
<g id="node11" class="node"><title>Node6</title>
<a xlink:href="namespaceforcebalance_1_1nifty.html#ae87c7def5f8edf2ec30737bdb1d2636f" target="_top" xlink:title="forcebalance.nifty.MissingFileInspection">
<polygon fill="white" stroke="black" points="888,-95.5 888,-114.5 1090,-114.5 1090,-95.5 888,-95.5"/>
<text text-anchor="middle" x="989" y="-102.5" font-family="Ubuntu-R" font-size="10.00">forcebalance.nifty.MissingFileInspection</text>
</a>
</g>
<!-- Node5&#45;&gt;Node6 -->
<g id="edge10" class="edge"><title>Node5&#45;&gt;Node6</title>
<path fill="none" stroke="midnightblue" d="M851.584,-105C860.037,-105 868.87,-105 877.8,-105"/>
<polygon fill="midnightblue" stroke="midnightblue" points="877.907,-108.5 887.907,-105 877.907,-101.5 877.907,-108.5"/>
</g>
<!-- Node7 -->
<g id="node13" class="node"><title>Node7</title>
<a xlink:href="namespaceforcebalance_1_1nifty.html#a0cf4e58f90acf20e3d6224be2354082c" target="_top" xlink:title="forcebalance.nifty.link_dir_contents">
<polygon fill="white" stroke="black" points="1126.5,-95.5 1126.5,-114.5 1309.5,-114.5 1309.5,-95.5 1126.5,-95.5"/>
<text text-anchor="middle" x="1218" y="-102.5" font-family="Ubuntu-R" font-size="10.00">forcebalance.nifty.link_dir_contents</text>
</a>
</g>
<!-- Node6&#45;&gt;Node7 -->
<g id="edge12" class="edge"><title>Node6&#45;&gt;Node7</title>
<path fill="none" stroke="midnightblue" d="M1090.23,-105C1098.85,-105 1107.57,-105 1116.2,-105"/>
<polygon fill="midnightblue" stroke="midnightblue" points="1116.27,-108.5 1126.27,-105 1116.27,-101.5 1116.27,-108.5"/>
</g>
</g>
</svg>
