<?xml version="1.0" encoding="UTF-8" standalone="no"?>
<!DOCTYPE svg PUBLIC "-//W3C//DTD SVG 1.1//EN"
 "http://www.w3.org/Graphics/SVG/1.1/DTD/svg11.dtd">
<!-- Generated by graphviz version 2.28.0 (20111219.2309)
 -->
<!-- Title: G Pages: 1 -->
<svg width="1144pt" height="104pt"
 viewBox="0.00 0.00 1144.00 104.00" xmlns="http://www.w3.org/2000/svg" xmlns:xlink="http://www.w3.org/1999/xlink">
<g id="graph1" class="graph" transform="scale(1 1) rotate(0) translate(4 100)">
<title>G</title>
<polygon fill="white" stroke="white" points="-4,5 -4,-100 1141,-100 1141,5 -4,5"/>
<!-- Node1 -->
<g id="node1" class="node"><title>Node1</title>
<polygon fill="#bfbfbf" stroke="black" points="0,-57.5 0,-76.5 150,-76.5 150,-57.5 0,-57.5"/>
<text text-anchor="middle" x="75" y="-64.5" font-family="Ubuntu-R" font-size="10.00">forcebalance.nifty.queue_up</text>
</g>
<!-- Node2 -->
<g id="node3" class="node"><title>Node2</title>
<a xlink:href="namespaceforcebalance_1_1nifty.html#a374aac2ef003be02fab49b20ff0a82f0" target="_top" xlink:title="This function waits ten seconds to see if a task in the Work Queue has finished.">
<polygon fill="white" stroke="black" points="186,-57.5 186,-76.5 332,-76.5 332,-57.5 186,-57.5"/>
<text text-anchor="middle" x="259" y="-64.5" font-family="Ubuntu-R" font-size="10.00">forcebalance.nifty.wq_wait1</text>
</a>
</g>
<!-- Node1&#45;&gt;Node2 -->
<g id="edge2" class="edge"><title>Node1&#45;&gt;Node2</title>
<path fill="none" stroke="midnightblue" d="M150.026,-67C158.515,-67 167.207,-67 175.794,-67"/>
<polygon fill="midnightblue" stroke="midnightblue" points="175.807,-70.5001 185.807,-67 175.807,-63.5001 175.807,-70.5001"/>
</g>
<!-- Node3 -->
<g id="node5" class="node"><title>Node3</title>
<a xlink:href="namespaceforcebalance_1_1nifty.html#a576de8c5b6f236280e07e73e39b2ab7c" target="_top" xlink:title="This function waits until the work queue is completely empty.">
<polygon fill="white" stroke="black" points="368,-76.5 368,-95.5 508,-95.5 508,-76.5 368,-76.5"/>
<text text-anchor="middle" x="438" y="-83.5" font-family="Ubuntu-R" font-size="10.00">forcebalance.nifty.wq_wait</text>
</a>
</g>
<!-- Node2&#45;&gt;Node3 -->
<g id="edge4" class="edge"><title>Node2&#45;&gt;Node3</title>
<path fill="none" stroke="midnightblue" d="M332.248,-74.7554C340.699,-75.6626 349.354,-76.5917 357.892,-77.5082"/>
<polygon fill="midnightblue" stroke="midnightblue" points="357.524,-80.9887 367.841,-78.5761 358.272,-74.0287 357.524,-80.9887"/>
</g>
<!-- Node5 -->
<g id="node9" class="node"><title>Node5</title>
<a xlink:href="namespaceforcebalance_1_1nifty.html#ab5417ad84c6c760965cd195c6c387914" target="_top" xlink:title="forcebalance.nifty.onefile">
<polygon fill="white" stroke="black" points="371,-38.5 371,-57.5 505,-57.5 505,-38.5 371,-38.5"/>
<text text-anchor="middle" x="438" y="-45.5" font-family="Ubuntu-R" font-size="10.00">forcebalance.nifty.onefile</text>
</a>
</g>
<!-- Node2&#45;&gt;Node5 -->
<g id="edge8" class="edge"><title>Node2&#45;&gt;Node5</title>
<path fill="none" stroke="midnightblue" d="M332.248,-59.2446C341.655,-58.2348 351.315,-57.1978 360.784,-56.1814"/>
<polygon fill="midnightblue" stroke="midnightblue" points="361.394,-59.6361 370.963,-55.0887 360.646,-52.6761 361.394,-59.6361"/>
</g>
<!-- Node4 -->
<g id="node7" class="node"><title>Node4</title>
<a xlink:href="namespaceforcebalance_1_1nifty.html#ad432b88307e1178b0690c0d350b1af36" target="_top" xlink:title="forcebalance.nifty.GoInto">
<polygon fill="white" stroke="black" points="544,-76.5 544,-95.5 678,-95.5 678,-76.5 544,-76.5"/>
<text text-anchor="middle" x="611" y="-83.5" font-family="Ubuntu-R" font-size="10.00">forcebalance.nifty.GoInto</text>
</a>
</g>
<!-- Node3&#45;&gt;Node4 -->
<g id="edge6" class="edge"><title>Node3&#45;&gt;Node4</title>
<path fill="none" stroke="midnightblue" d="M508.059,-86C516.429,-86 525.016,-86 533.485,-86"/>
<polygon fill="midnightblue" stroke="midnightblue" points="533.733,-89.5001 543.733,-86 533.733,-82.5001 533.733,-89.5001"/>
</g>
<!-- Node6 -->
<g id="node11" class="node"><title>Node6</title>
<a xlink:href="namespaceforcebalance_1_1nifty.html#ac9ab6c5543a2e3080061e0024850edf3" target="_top" xlink:title="forcebalance.nifty.allsplit">
<polygon fill="white" stroke="black" points="544.5,-38.5 544.5,-57.5 677.5,-57.5 677.5,-38.5 544.5,-38.5"/>
<text text-anchor="middle" x="611" y="-45.5" font-family="Ubuntu-R" font-size="10.00">forcebalance.nifty.allsplit</text>
</a>
</g>
<!-- Node5&#45;&gt;Node6 -->
<g id="edge10" class="edge"><title>Node5&#45;&gt;Node6</title>
<path fill="none" stroke="midnightblue" d="M505.113,-48C514.669,-48 524.566,-48 534.292,-48"/>
<polygon fill="midnightblue" stroke="midnightblue" points="534.345,-51.5001 544.344,-48 534.344,-44.5001 534.345,-51.5001"/>
</g>
<!-- Node9 -->
<g id="node17" class="node"><title>Node9</title>
<a xlink:href="namespaceforcebalance_1_1nifty.html#ab04e8690d099db2379dc860e0d040120" target="_top" xlink:title="forcebalance.nifty.Leave">
<polygon fill="white" stroke="black" points="545.5,-0.5 545.5,-19.5 676.5,-19.5 676.5,-0.5 545.5,-0.5"/>
<text text-anchor="middle" x="611" y="-7.5" font-family="Ubuntu-R" font-size="10.00">forcebalance.nifty.Leave</text>
</a>
</g>
<!-- Node5&#45;&gt;Node9 -->
<g id="edge16" class="edge"><title>Node5&#45;&gt;Node9</title>
<path fill="none" stroke="midnightblue" d="M482.151,-38.411C504.919,-33.3513 533.048,-27.1004 557.119,-21.7512"/>
<polygon fill="midnightblue" stroke="midnightblue" points="558.157,-25.1061 567.16,-19.5201 556.639,-18.2728 558.157,-25.1061"/>
</g>
<!-- Node7 -->
<g id="node13" class="node"><title>Node7</title>
<a xlink:href="namespaceforcebalance_1_1nifty.html#ae87c7def5f8edf2ec30737bdb1d2636f" target="_top" xlink:title="forcebalance.nifty.MissingFileInspection">
<polygon fill="white" stroke="black" points="714,-38.5 714,-57.5 916,-57.5 916,-38.5 714,-38.5"/>
<text text-anchor="middle" x="815" y="-45.5" font-family="Ubuntu-R" font-size="10.00">forcebalance.nifty.MissingFileInspection</text>
</a>
</g>
<!-- Node6&#45;&gt;Node7 -->
<g id="edge12" class="edge"><title>Node6&#45;&gt;Node7</title>
<path fill="none" stroke="midnightblue" d="M677.584,-48C686.037,-48 694.87,-48 703.8,-48"/>
<polygon fill="midnightblue" stroke="midnightblue" points="703.907,-51.5001 713.907,-48 703.907,-44.5001 703.907,-51.5001"/>
</g>
<!-- Node8 -->
<g id="node15" class="node"><title>Node8</title>
<a xlink:href="namespaceforcebalance_1_1nifty.html#a0cf4e58f90acf20e3d6224be2354082c" target="_top" xlink:title="forcebalance.nifty.link_dir_contents">
<polygon fill="white" stroke="black" points="952.5,-38.5 952.5,-57.5 1135.5,-57.5 1135.5,-38.5 952.5,-38.5"/>
<text text-anchor="middle" x="1044" y="-45.5" font-family="Ubuntu-R" font-size="10.00">forcebalance.nifty.link_dir_contents</text>
</a>
</g>
<!-- Node7&#45;&gt;Node8 -->
<g id="edge14" class="edge"><title>Node7&#45;&gt;Node8</title>
<path fill="none" stroke="midnightblue" d="M916.226,-48C924.848,-48 933.574,-48 942.2,-48"/>
<polygon fill="midnightblue" stroke="midnightblue" points="942.269,-51.5001 952.269,-48 942.269,-44.5001 942.269,-51.5001"/>
</g>
</g>
</svg>
