<?xml version="1.0" encoding="UTF-8" standalone="no"?>
<!DOCTYPE svg PUBLIC "-//W3C//DTD SVG 1.1//EN"
 "http://www.w3.org/Graphics/SVG/1.1/DTD/svg11.dtd">
<!-- Generated by graphviz version 2.28.0 (20111219.2309)
 -->
<!-- Title: G Pages: 1 -->
<svg width="2480pt" height="28pt"
 viewBox="0.00 0.00 2480.00 28.00" xmlns="http://www.w3.org/2000/svg" xmlns:xlink="http://www.w3.org/1999/xlink">
<g id="graph1" class="graph" transform="scale(1 1) rotate(0) translate(4 24)">
<title>G</title>
<polygon fill="white" stroke="white" points="-4,5 -4,-24 2477,-24 2477,5 -4,5"/>
<!-- Node1 -->
<g id="node1" class="node"><title>Node1</title>
<polygon fill="#bfbfbf" stroke="black" points="0.5,-0.5 0.5,-19.5 317.5,-19.5 317.5,-0.5 0.5,-0.5"/>
<text text-anchor="middle" x="159" y="-7.5" font-family="Ubuntu-R" font-size="10.00">forcebalance.openmmio.CopyAmoebaInPlaneAngleParameters</text>
</g>
<!-- Node2 -->
<g id="node3" class="node"><title>Node2</title>
<a xlink:href="namespaceforcebalance_1_1openmmio.html#abe005f73c6dfe9ce1052c9434bcad9be" target="_top" xlink:title="forcebalance.openmmio.CopyAmoebaVdwParameters">
<polygon fill="white" stroke="black" points="354.5,-0.5 354.5,-19.5 629.5,-19.5 629.5,-0.5 354.5,-0.5"/>
<text text-anchor="middle" x="492" y="-7.5" font-family="Ubuntu-R" font-size="10.00">forcebalance.openmmio.CopyAmoebaVdwParameters</text>
</a>
</g>
<!-- Node1&#45;&gt;Node2 -->
<g id="edge2" class="edge"><title>Node1&#45;&gt;Node2</title>
<path fill="none" stroke="midnightblue" d="M317.745,-10C326.481,-10 335.247,-10 343.943,-10"/>
<polygon fill="midnightblue" stroke="midnightblue" points="344.115,-13.5001 354.115,-10 344.115,-6.5001 344.115,-13.5001"/>
</g>
<!-- Node3 -->
<g id="node5" class="node"><title>Node3</title>
<a xlink:href="namespaceforcebalance_1_1openmmio.html#a3706c19e71969cabe5782a4535abeffe" target="_top" xlink:title="forcebalance.openmmio.CopyAmoebaMultipoleParameters">
<polygon fill="white" stroke="black" points="666.5,-0.5 666.5,-19.5 965.5,-19.5 965.5,-0.5 666.5,-0.5"/>
<text text-anchor="middle" x="816" y="-7.5" font-family="Ubuntu-R" font-size="10.00">forcebalance.openmmio.CopyAmoebaMultipoleParameters</text>
</a>
</g>
<!-- Node2&#45;&gt;Node3 -->
<g id="edge4" class="edge"><title>Node2&#45;&gt;Node3</title>
<path fill="none" stroke="midnightblue" d="M629.557,-10C638.399,-10 647.342,-10 656.276,-10"/>
<polygon fill="midnightblue" stroke="midnightblue" points="656.352,-13.5001 666.352,-10 656.352,-6.5001 656.352,-13.5001"/>
</g>
<!-- Node4 -->
<g id="node7" class="node"><title>Node4</title>
<a xlink:href="namespaceforcebalance_1_1openmmio.html#a616f12cc53381716e5fa41f00bf623be" target="_top" xlink:title="forcebalance.openmmio.CopyHarmonicBondParameters">
<polygon fill="white" stroke="black" points="1002.5,-0.5 1002.5,-19.5 1289.5,-19.5 1289.5,-0.5 1002.5,-0.5"/>
<text text-anchor="middle" x="1146" y="-7.5" font-family="Ubuntu-R" font-size="10.00">forcebalance.openmmio.CopyHarmonicBondParameters</text>
</a>
</g>
<!-- Node3&#45;&gt;Node4 -->
<g id="edge6" class="edge"><title>Node3&#45;&gt;Node4</title>
<path fill="none" stroke="midnightblue" d="M965.645,-10C974.512,-10 983.439,-10 992.322,-10"/>
<polygon fill="midnightblue" stroke="midnightblue" points="992.327,-13.5001 1002.33,-10 992.327,-6.5001 992.327,-13.5001"/>
</g>
<!-- Node5 -->
<g id="node9" class="node"><title>Node5</title>
<a xlink:href="namespaceforcebalance_1_1openmmio.html#af4ed16f5e2b1cd12bce2f25fab1b05bc" target="_top" xlink:title="forcebalance.openmmio.CopyHarmonicAngleParameters">
<polygon fill="white" stroke="black" points="1326.5,-0.5 1326.5,-19.5 1615.5,-19.5 1615.5,-0.5 1326.5,-0.5"/>
<text text-anchor="middle" x="1471" y="-7.5" font-family="Ubuntu-R" font-size="10.00">forcebalance.openmmio.CopyHarmonicAngleParameters</text>
</a>
</g>
<!-- Node4&#45;&gt;Node5 -->
<g id="edge8" class="edge"><title>Node4&#45;&gt;Node5</title>
<path fill="none" stroke="midnightblue" d="M1289.61,-10C1298.45,-10 1307.37,-10 1316.26,-10"/>
<polygon fill="midnightblue" stroke="midnightblue" points="1316.27,-13.5001 1326.27,-10 1316.27,-6.5001 1316.27,-13.5001"/>
</g>
<!-- Node6 -->
<g id="node11" class="node"><title>Node6</title>
<a xlink:href="namespaceforcebalance_1_1openmmio.html#a8f13702754f0b4e43e272139a2ce8341" target="_top" xlink:title="forcebalance.openmmio.CopyPeriodicTorsionParameters">
<polygon fill="white" stroke="black" points="1652,-0.5 1652,-19.5 1938,-19.5 1938,-0.5 1652,-0.5"/>
<text text-anchor="middle" x="1795" y="-7.5" font-family="Ubuntu-R" font-size="10.00">forcebalance.openmmio.CopyPeriodicTorsionParameters</text>
</a>
</g>
<!-- Node5&#45;&gt;Node6 -->
<g id="edge10" class="edge"><title>Node5&#45;&gt;Node6</title>
<path fill="none" stroke="midnightblue" d="M1615.58,-10C1624.26,-10 1633,-10 1641.72,-10"/>
<polygon fill="midnightblue" stroke="midnightblue" points="1641.92,-13.5001 1651.92,-10 1641.92,-6.5001 1641.92,-13.5001"/>
</g>
<!-- Node7 -->
<g id="node13" class="node"><title>Node7</title>
<a xlink:href="namespaceforcebalance_1_1openmmio.html#afead47464a644d9225f9fa8eb568a8ed" target="_top" xlink:title="forcebalance.openmmio.CopyNonbondedParameters">
<polygon fill="white" stroke="black" points="1974.5,-0.5 1974.5,-19.5 2245.5,-19.5 2245.5,-0.5 1974.5,-0.5"/>
<text text-anchor="middle" x="2110" y="-7.5" font-family="Ubuntu-R" font-size="10.00">forcebalance.openmmio.CopyNonbondedParameters</text>
</a>
</g>
<!-- Node6&#45;&gt;Node7 -->
<g id="edge12" class="edge"><title>Node6&#45;&gt;Node7</title>
<path fill="none" stroke="midnightblue" d="M1938.3,-10C1946.89,-10 1955.54,-10 1964.14,-10"/>
<polygon fill="midnightblue" stroke="midnightblue" points="1964.21,-13.5001 1974.21,-10 1964.21,-6.5001 1964.21,-13.5001"/>
</g>
<!-- Node8 -->
<g id="node15" class="node"><title>Node8</title>
<a xlink:href="namespaceforcebalance_1_1openmmio.html#a2bb7add6b813d94f2655372c51fe8fdc" target="_top" xlink:title="forcebalance.openmmio.do_nothing">
<polygon fill="white" stroke="black" points="2282.5,-0.5 2282.5,-19.5 2471.5,-19.5 2471.5,-0.5 2282.5,-0.5"/>
<text text-anchor="middle" x="2377" y="-7.5" font-family="Ubuntu-R" font-size="10.00">forcebalance.openmmio.do_nothing</text>
</a>
</g>
<!-- Node7&#45;&gt;Node8 -->
<g id="edge14" class="edge"><title>Node7&#45;&gt;Node8</title>
<path fill="none" stroke="midnightblue" d="M2245.83,-10C2254.65,-10 2263.46,-10 2272.1,-10"/>
<polygon fill="midnightblue" stroke="midnightblue" points="2272.15,-13.5001 2282.15,-10 2272.15,-6.5001 2272.15,-13.5001"/>
</g>
</g>
</svg>
