<?xml version="1.0" encoding="UTF-8" standalone="no"?>
<!DOCTYPE svg PUBLIC "-//W3C//DTD SVG 1.1//EN"
 "http://www.w3.org/Graphics/SVG/1.1/DTD/svg11.dtd">
<!-- Generated by graphviz version 2.28.0 (20111219.2309)
 -->
<!-- Title: forcebalance.finite_difference.f12d3p Pages: 1 -->
<svg width="406pt" height="136pt"
 viewBox="0.00 0.00 406.00 136.00" xmlns="http://www.w3.org/2000/svg" xmlns:xlink="http://www.w3.org/1999/xlink">
<g id="graph1" class="graph" transform="scale(1 1) rotate(0) translate(4 132)">
<title>forcebalance.finite_difference.f12d3p</title>
<polygon fill="white" stroke="white" points="-4,5 -4,-132 403,-132 403,5 -4,5"/>
<!-- Node1 -->
<g id="node1" class="node"><title>Node1</title>
<polygon fill="#bfbfbf" stroke="black" points="0.5,-73 0.5,-103 105.5,-103 105.5,-73 0.5,-73"/>
<text text-anchor="start" x="8.5" y="-91" font-family="Ubuntu-R" font-size="10.00">forcebalance.finite</text>
<text text-anchor="middle" x="53" y="-80" font-family="Ubuntu-R" font-size="10.00">_difference.f12d3p</text>
</g>
<!-- Node2 -->
<g id="node3" class="node"><title>Node2</title>
<a xlink:href="namespaceforcebalance_1_1finite__difference.html#ad84d3e385db1190e7d8ef58bc08a6c52" target="_top" xlink:title="Invoking this function from anywhere will tell us whether we&#39;re being called by a finite&#45;difference f...">
<polygon fill="white" stroke="black" points="142,-98 142,-128 246,-128 246,-98 142,-98"/>
<text text-anchor="start" x="150" y="-116" font-family="Ubuntu-R" font-size="10.00">forcebalance.finite</text>
<text text-anchor="middle" x="194" y="-105" font-family="Ubuntu-R" font-size="10.00">_difference.in_fd</text>
</a>
</g>
<!-- Node1&#45;&gt;Node2 -->
<g id="edge2" class="edge"><title>Node1&#45;&gt;Node2</title>
<path fill="none" stroke="midnightblue" d="M105.758,-97.3091C114.191,-98.8257 122.997,-100.41 131.633,-101.963"/>
<polygon fill="midnightblue" stroke="midnightblue" points="131.199,-105.441 141.661,-103.766 132.439,-98.5514 131.199,-105.441"/>
</g>
<!-- Node3 -->
<g id="node5" class="node"><title>Node3</title>
<a xlink:href="namespaceforcebalance_1_1finite__difference.html#ae484c591ae8c4e5bae73a0ef2660c339" target="_top" xlink:title="A function wrapper for finite difference designed for differentiating &#39;get&#39;&#45;type functions. ">
<polygon fill="white" stroke="black" points="142,-49 142,-79 246,-79 246,-49 142,-49"/>
<text text-anchor="start" x="150" y="-67" font-family="Ubuntu-R" font-size="10.00">forcebalance.finite</text>
<text text-anchor="middle" x="194" y="-56" font-family="Ubuntu-R" font-size="10.00">_difference.fdwrap</text>
</a>
</g>
<!-- Node1&#45;&gt;Node3 -->
<g id="edge4" class="edge"><title>Node1&#45;&gt;Node3</title>
<path fill="none" stroke="midnightblue" d="M105.758,-79.0633C114.191,-77.6073 122.997,-76.0868 131.633,-74.5957"/>
<polygon fill="midnightblue" stroke="midnightblue" points="132.402,-78.0148 141.661,-72.8643 131.211,-71.1168 132.402,-78.0148"/>
</g>
<!-- Node4 -->
<g id="node7" class="node"><title>Node4</title>
<a xlink:href="namespaceforcebalance_1_1finite__difference.html#a00322fb65860c390616f74d05037c797" target="_top" xlink:title="A driver to fdwrap for gradients (see documentation for fdwrap) Inputs: tgt = The Target containing t...">
<polygon fill="white" stroke="black" points="282,-49 282,-79 398,-79 398,-49 282,-49"/>
<text text-anchor="start" x="290" y="-67" font-family="Ubuntu-R" font-size="10.00">forcebalance.finite</text>
<text text-anchor="middle" x="340" y="-56" font-family="Ubuntu-R" font-size="10.00">_difference.fdwrap_G</text>
</a>
</g>
<!-- Node3&#45;&gt;Node4 -->
<g id="edge6" class="edge"><title>Node3&#45;&gt;Node4</title>
<path fill="none" stroke="midnightblue" d="M246.174,-57.5075C254.335,-57.3003 262.887,-57.2182 271.358,-57.261"/>
<polygon fill="midnightblue" stroke="midnightblue" points="271.58,-60.7636 281.619,-57.3752 271.658,-53.764 271.58,-60.7636"/>
</g>
<!-- Node5 -->
<g id="node10" class="node"><title>Node5</title>
<a xlink:href="namespaceforcebalance_1_1finite__difference.html#a77a0bc1ae3cbbcc8d38a0ef9ca877d6d" target="_top" xlink:title="A driver to fdwrap for Hessians (see documentation for fdwrap) Inputs: tgt = The Target containing th...">
<polygon fill="white" stroke="black" points="282,-0 282,-30 398,-30 398,-0 282,-0"/>
<text text-anchor="start" x="290" y="-18" font-family="Ubuntu-R" font-size="10.00">forcebalance.finite</text>
<text text-anchor="middle" x="340" y="-7" font-family="Ubuntu-R" font-size="10.00">_difference.fdwrap_H</text>
</a>
</g>
<!-- Node3&#45;&gt;Node5 -->
<g id="edge10" class="edge"><title>Node3&#45;&gt;Node5</title>
<path fill="none" stroke="midnightblue" d="M239.38,-48.8986C253.751,-44.0083 269.853,-38.5293 284.851,-33.4256"/>
<polygon fill="midnightblue" stroke="midnightblue" points="286.179,-36.6708 294.519,-30.1359 283.924,-30.0439 286.179,-36.6708"/>
</g>
<!-- Node4&#45;&gt;Node3 -->
<g id="edge8" class="edge"><title>Node4&#45;&gt;Node3</title>
<path fill="none" stroke="midnightblue" d="M281.619,-70.6248C273.291,-70.7692 264.692,-70.7887 256.291,-70.6832"/>
<polygon fill="midnightblue" stroke="midnightblue" points="256.239,-67.1817 246.174,-70.4925 256.107,-74.1804 256.239,-67.1817"/>
</g>
</g>
</svg>
