<?xml version="1.0" encoding="UTF-8" standalone="no"?>
<!DOCTYPE svg PUBLIC "-//W3C//DTD SVG 1.1//EN"
 "http://www.w3.org/Graphics/SVG/1.1/DTD/svg11.dtd">
<!-- Generated by graphviz version 2.28.0 (20111219.2309)
 -->
<!-- Title: forcebalance.nifty.col Pages: 1 -->
<svg width="846pt" height="87pt"
 viewBox="0.00 0.00 846.00 87.00" xmlns="http://www.w3.org/2000/svg" xmlns:xlink="http://www.w3.org/1999/xlink">
<g id="graph1" class="graph" transform="scale(1 1) rotate(0) translate(4 83)">
<title>forcebalance.nifty.col</title>
<polygon fill="white" stroke="white" points="-4,5 -4,-83 843,-83 843,5 -4,5"/>
<!-- Node1 -->
<g id="node1" class="node"><title>Node1</title>
<polygon fill="#bfbfbf" stroke="black" points="0,-24.5 0,-43.5 116,-43.5 116,-24.5 0,-24.5"/>
<text text-anchor="middle" x="58" y="-31.5" font-family="Ubuntu-R" font-size="10.00">forcebalance.nifty.col</text>
</g>
<!-- Node2 -->
<g id="node3" class="node"><title>Node2</title>
<a xlink:href="namespaceforcebalance_1_1nifty.html#a52114ceee9d55f94d9aecb3e176de294" target="_top" xlink:title="Given any list, array, or matrix, return a single&#45;index array. ">
<polygon fill="white" stroke="black" points="152,-5.5 152,-24.5 270,-24.5 270,-5.5 152,-5.5"/>
<text text-anchor="middle" x="211" y="-12.5" font-family="Ubuntu-R" font-size="10.00">forcebalance.nifty.flat</text>
</a>
</g>
<!-- Node1&#45;&gt;Node2 -->
<g id="edge2" class="edge"><title>Node1&#45;&gt;Node2</title>
<path fill="none" stroke="midnightblue" d="M116.087,-26.8169C124.49,-25.7595 133.219,-24.6612 141.819,-23.5791"/>
<polygon fill="midnightblue" stroke="midnightblue" points="142.344,-27.0407 151.829,-22.3196 141.47,-20.0955 142.344,-27.0407"/>
</g>
<!-- Node3 -->
<g id="node5" class="node"><title>Node3</title>
<a xlink:href="namespaceforcebalance_1_1nifty.html#a4c82187e92dfeb8a159f4aa44b501c40" target="_top" xlink:title="Invert a matrix using singular value decomposition. ">
<polygon fill="white" stroke="black" points="306,-43.5 306,-62.5 458,-62.5 458,-43.5 306,-43.5"/>
<text text-anchor="middle" x="382" y="-50.5" font-family="Ubuntu-R" font-size="10.00">forcebalance.nifty.invert_svd</text>
</a>
</g>
<!-- Node2&#45;&gt;Node3 -->
<g id="edge4" class="edge"><title>Node2&#45;&gt;Node3</title>
<path fill="none" stroke="midnightblue" d="M254.646,-24.589C277.148,-29.6487 304.948,-35.8996 328.738,-41.2488"/>
<polygon fill="midnightblue" stroke="midnightblue" points="328.137,-44.7009 338.661,-43.4799 329.672,-37.8714 328.137,-44.7009"/>
</g>
<!-- Node3&#45;&gt;Node1 -->
<g id="edge12" class="edge"><title>Node3&#45;&gt;Node1</title>
<path fill="none" stroke="midnightblue" d="M305.869,-48.5668C251.565,-45.3625 178.837,-41.0711 126.401,-37.9771"/>
<polygon fill="midnightblue" stroke="midnightblue" points="126.385,-34.4701 116.196,-37.3749 125.973,-41.458 126.385,-34.4701"/>
</g>
<!-- Node4 -->
<g id="node7" class="node"><title>Node4</title>
<a xlink:href="namespaceforcebalance_1_1nifty.html#aa9fb9c7c65231eca50a7afc04f489b64" target="_top" xlink:title="forcebalance.nifty.get\l_least_squares">
<polygon fill="white" stroke="black" points="497.5,-0 497.5,-30 616.5,-30 616.5,-0 497.5,-0"/>
<text text-anchor="start" x="505.5" y="-18" font-family="Ubuntu-R" font-size="10.00">forcebalance.nifty.get</text>
<text text-anchor="middle" x="557" y="-7" font-family="Ubuntu-R" font-size="10.00">_least_squares</text>
</a>
</g>
<!-- Node3&#45;&gt;Node4 -->
<g id="edge6" class="edge"><title>Node3&#45;&gt;Node4</title>
<path fill="none" stroke="midnightblue" d="M426.655,-43.411C445.064,-39.3675 466.936,-34.5632 487.408,-30.0664"/>
<polygon fill="midnightblue" stroke="midnightblue" points="488.308,-33.4522 497.325,-27.8883 486.806,-26.6152 488.308,-33.4522"/>
</g>
<!-- Node6 -->
<g id="node13" class="node"><title>Node6</title>
<a xlink:href="namespaceforcebalance_1_1nifty.html#abb8f59044961a12588e0653c2baa8b01" target="_top" xlink:title="forcebalance.nifty.warn\l_press_key">
<polygon fill="white" stroke="black" points="494.5,-49 494.5,-79 619.5,-79 619.5,-49 494.5,-49"/>
<text text-anchor="start" x="502.5" y="-67" font-family="Ubuntu-R" font-size="10.00">forcebalance.nifty.warn</text>
<text text-anchor="middle" x="557" y="-56" font-family="Ubuntu-R" font-size="10.00">_press_key</text>
</a>
</g>
<!-- Node3&#45;&gt;Node6 -->
<g id="edge14" class="edge"><title>Node3&#45;&gt;Node6</title>
<path fill="none" stroke="midnightblue" d="M458.126,-57.7768C466.842,-58.331 475.716,-58.8953 484.384,-59.4464"/>
<polygon fill="midnightblue" stroke="midnightblue" points="484.242,-62.9443 494.444,-60.086 484.686,-55.9584 484.242,-62.9443"/>
</g>
<!-- Node4&#45;&gt;Node2 -->
<g id="edge8" class="edge"><title>Node4&#45;&gt;Node2</title>
<path fill="none" stroke="midnightblue" d="M497.359,-15C437.331,-15 344.096,-15 280.661,-15"/>
<polygon fill="midnightblue" stroke="midnightblue" points="280.355,-11.5001 270.355,-15 280.355,-18.5001 280.355,-11.5001"/>
</g>
<!-- Node5 -->
<g id="node10" class="node"><title>Node5</title>
<a xlink:href="namespaceforcebalance_1_1nifty.html#ad5ca60565c864b4245a8212fe9d92e10" target="_top" xlink:title="Compute the (cross) statistical inefficiency of (two) timeseries. ">
<polygon fill="white" stroke="black" points="672.5,-0 672.5,-30 821.5,-30 821.5,-0 672.5,-0"/>
<text text-anchor="start" x="680.5" y="-18" font-family="Ubuntu-R" font-size="10.00">forcebalance.nifty.statistical</text>
<text text-anchor="middle" x="747" y="-7" font-family="Ubuntu-R" font-size="10.00">Inefficiency</text>
</a>
</g>
<!-- Node4&#45;&gt;Node5 -->
<g id="edge10" class="edge"><title>Node4&#45;&gt;Node5</title>
<path fill="none" stroke="midnightblue" d="M616.711,-15C631.205,-15 647.008,-15 662.433,-15"/>
<polygon fill="midnightblue" stroke="midnightblue" points="662.496,-18.5001 672.496,-15 662.496,-11.5001 662.496,-18.5001"/>
</g>
<!-- Node7 -->
<g id="node15" class="node"><title>Node7</title>
<a xlink:href="namespaceforcebalance_1_1nifty.html#a2fc81730e7efa7d138dd86f733507bfc" target="_top" xlink:title="Similar to the bultin function map(). ">
<polygon fill="white" stroke="black" points="656,-54.5 656,-73.5 838,-73.5 838,-54.5 656,-54.5"/>
<text text-anchor="middle" x="747" y="-61.5" font-family="Ubuntu-R" font-size="10.00">forcebalance.nifty.concurrent_map</text>
</a>
</g>
<!-- Node6&#45;&gt;Node7 -->
<g id="edge16" class="edge"><title>Node6&#45;&gt;Node7</title>
<path fill="none" stroke="midnightblue" d="M619.558,-64C627.961,-64 636.758,-64 645.632,-64"/>
<polygon fill="midnightblue" stroke="midnightblue" points="645.665,-67.5001 655.665,-64 645.665,-60.5001 645.665,-67.5001"/>
</g>
</g>
</svg>
