<?xml version="1.0" encoding="UTF-8" standalone="no"?>
<!DOCTYPE svg PUBLIC "-//W3C//DTD SVG 1.1//EN"
 "http://www.w3.org/Graphics/SVG/1.1/DTD/svg11.dtd">
<!-- Generated by graphviz version 2.32.0 (20130801.1845)
 -->
<!-- Title: forcebalance.openmmio.CopySystemParameters Pages: 1 -->
<svg width="566pt" height="91pt"
 viewBox="0.00 0.00 566.00 91.00" xmlns="http://www.w3.org/2000/svg" xmlns:xlink="http://www.w3.org/1999/xlink">
<g id="graph0" class="graph" transform="scale(1 1) rotate(0) translate(4 87)">
<title>forcebalance.openmmio.CopySystemParameters</title>
<polygon fill="white" stroke="white" points="-4,5 -4,-87 563,-87 563,5 -4,5"/>
<!-- Node1 -->
<g id="node1" class="node"><title>Node1</title>
<polygon fill="#bfbfbf" stroke="black" points="0.742,-25 0.742,-57 137.258,-57 137.258,-25 0.742,-25"/>
<text text-anchor="start" x="8.742" y="-44" font-family="Ubuntu-R" font-size="10.00">forcebalance.openmmio.Copy</text>
<text text-anchor="middle" x="69" y="-32" font-family="Ubuntu-R" font-size="10.00">SystemParameters</text>
</g>
<!-- Node2 -->
<g id="node2" class="node"><title>Node2</title>
<g id="a_node2"><a xlink:href="namespaceforcebalance_1_1nifty.html#abb8f59044961a12588e0653c2baa8b01" target="_top" xlink:title="forcebalance.nifty.warn\l_press_key">
<polygon fill="white" stroke="black" points="190.528,-51 190.528,-83 301.473,-83 301.473,-51 190.528,-51"/>
<text text-anchor="start" x="198.528" y="-70" font-family="Ubuntu-R" font-size="10.00">forcebalance.nifty.warn</text>
<text text-anchor="middle" x="246" y="-58" font-family="Ubuntu-R" font-size="10.00">_press_key</text>
</a>
</g>
</g>
<!-- Node1&#45;&gt;Node2 -->
<g id="edge1" class="edge"><title>Node1&#45;&gt;Node2</title>
<path fill="none" stroke="midnightblue" d="M137.409,-51.0151C151.511,-53.1101 166.348,-55.3145 180.346,-57.3943"/>
<polygon fill="midnightblue" stroke="midnightblue" points="179.963,-60.8756 190.368,-58.8833 180.991,-53.9516 179.963,-60.8756"/>
</g>
<!-- Node4 -->
<g id="node4" class="node"><title>Node4</title>
<g id="a_node4"><a xlink:href="namespaceforcebalance_1_1openmmio.html#a9f9fc56475dbfcc94a40fef6a84ed25f" target="_top" xlink:title="forcebalance.openmmio.Update\lSimulationParameters">
<polygon fill="white" stroke="black" points="174.138,-0 174.138,-32 317.861,-32 317.861,-0 174.138,-0"/>
<text text-anchor="start" x="182.138" y="-19" font-family="Ubuntu-R" font-size="10.00">forcebalance.openmmio.Update</text>
<text text-anchor="middle" x="246" y="-7" font-family="Ubuntu-R" font-size="10.00">SimulationParameters</text>
</a>
</g>
</g>
<!-- Node1&#45;&gt;Node4 -->
<g id="edge3" class="edge"><title>Node1&#45;&gt;Node4</title>
<path fill="none" stroke="midnightblue" d="M137.409,-31.3701C146.084,-30.1309 155.037,-28.8518 163.902,-27.5854"/>
<polygon fill="midnightblue" stroke="midnightblue" points="164.45,-31.0428 173.854,-26.1637 163.46,-24.1131 164.45,-31.0428"/>
</g>
<!-- Node3 -->
<g id="node3" class="node"><title>Node3</title>
<g id="a_node3"><a xlink:href="namespaceforcebalance_1_1nifty.html#a2fc81730e7efa7d138dd86f733507bfc" target="_top" xlink:title="Similar to the bultin function map().">
<polygon fill="white" stroke="black" points="378.035,-57 378.035,-77 533.965,-77 533.965,-57 378.035,-57"/>
<text text-anchor="middle" x="456" y="-64" font-family="Ubuntu-R" font-size="10.00">forcebalance.nifty.concurrent_map</text>
</a>
</g>
</g>
<!-- Node2&#45;&gt;Node3 -->
<g id="edge2" class="edge"><title>Node2&#45;&gt;Node3</title>
<path fill="none" stroke="midnightblue" d="M301.65,-67C321.795,-67 345.156,-67 367.478,-67"/>
<polygon fill="midnightblue" stroke="midnightblue" points="367.646,-70.5001 377.645,-67 367.645,-63.5001 367.646,-70.5001"/>
</g>
<!-- Node5 -->
<g id="node5" class="node"><title>Node5</title>
<g id="a_node5"><a xlink:href="namespaceforcebalance_1_1openmmio.html#aa085594c11e9cd00ce71f5a8ead72b68" target="_top" xlink:title="Create a multiple timestep velocity verlet with velocity randomization (VVVR) integrator.">
<polygon fill="white" stroke="black" points="354.423,-6 354.423,-26 557.577,-26 557.577,-6 354.423,-6"/>
<text text-anchor="middle" x="456" y="-13" font-family="Ubuntu-R" font-size="10.00">forcebalance.openmmio.MTSVVVRIntegrator</text>
</a>
</g>
</g>
<!-- Node4&#45;&gt;Node5 -->
<g id="edge4" class="edge"><title>Node4&#45;&gt;Node5</title>
<path fill="none" stroke="midnightblue" d="M318,-16C326.465,-16 335.256,-16 344.113,-16"/>
<polygon fill="midnightblue" stroke="midnightblue" points="344.129,-19.5001 354.129,-16 344.129,-12.5001 344.129,-19.5001"/>
</g>
</g>
</svg>
