<?xml version="1.0" encoding="UTF-8" standalone="no"?>
<!DOCTYPE svg PUBLIC "-//W3C//DTD SVG 1.1//EN"
 "http://www.w3.org/Graphics/SVG/1.1/DTD/svg11.dtd">
<!-- Generated by graphviz version 2.28.0 (20111219.2309)
 -->
<!-- Title: G Pages: 1 -->
<svg width="1154pt" height="28pt"
 viewBox="0.00 0.00 1154.00 28.00" xmlns="http://www.w3.org/2000/svg" xmlns:xlink="http://www.w3.org/1999/xlink">
<g id="graph1" class="graph" transform="scale(1 1) rotate(0) translate(4 24)">
<title>G</title>
<polygon fill="white" stroke="white" points="-4,5 -4,-24 1151,-24 1151,5 -4,5"/>
<!-- Node1 -->
<g id="node1" class="node"><title>Node1</title>
<polygon fill="#bfbfbf" stroke="black" points="0.5,-0.5 0.5,-19.5 289.5,-19.5 289.5,-0.5 0.5,-0.5"/>
<text text-anchor="middle" x="145" y="-7.5" font-family="Ubuntu-R" font-size="10.00">forcebalance.openmmio.CopyHarmonicAngleParameters</text>
</g>
<!-- Node2 -->
<g id="node3" class="node"><title>Node2</title>
<a xlink:href="namespaceforcebalance_1_1openmmio.html#a8f13702754f0b4e43e272139a2ce8341" target="_top" xlink:title="forcebalance.openmmio.CopyPeriodicTorsionParameters">
<polygon fill="white" stroke="black" points="326,-0.5 326,-19.5 612,-19.5 612,-0.5 326,-0.5"/>
<text text-anchor="middle" x="469" y="-7.5" font-family="Ubuntu-R" font-size="10.00">forcebalance.openmmio.CopyPeriodicTorsionParameters</text>
</a>
</g>
<!-- Node1&#45;&gt;Node2 -->
<g id="edge2" class="edge"><title>Node1&#45;&gt;Node2</title>
<path fill="none" stroke="midnightblue" d="M289.578,-10C298.257,-10 307.004,-10 315.717,-10"/>
<polygon fill="midnightblue" stroke="midnightblue" points="315.924,-13.5001 325.924,-10 315.924,-6.5001 315.924,-13.5001"/>
</g>
<!-- Node3 -->
<g id="node5" class="node"><title>Node3</title>
<a xlink:href="namespaceforcebalance_1_1openmmio.html#afead47464a644d9225f9fa8eb568a8ed" target="_top" xlink:title="forcebalance.openmmio.CopyNonbondedParameters">
<polygon fill="white" stroke="black" points="648.5,-0.5 648.5,-19.5 919.5,-19.5 919.5,-0.5 648.5,-0.5"/>
<text text-anchor="middle" x="784" y="-7.5" font-family="Ubuntu-R" font-size="10.00">forcebalance.openmmio.CopyNonbondedParameters</text>
</a>
</g>
<!-- Node2&#45;&gt;Node3 -->
<g id="edge4" class="edge"><title>Node2&#45;&gt;Node3</title>
<path fill="none" stroke="midnightblue" d="M612.304,-10C620.893,-10 629.54,-10 638.14,-10"/>
<polygon fill="midnightblue" stroke="midnightblue" points="638.207,-13.5001 648.207,-10 638.207,-6.5001 638.207,-13.5001"/>
</g>
<!-- Node4 -->
<g id="node7" class="node"><title>Node4</title>
<a xlink:href="namespaceforcebalance_1_1openmmio.html#a2bb7add6b813d94f2655372c51fe8fdc" target="_top" xlink:title="forcebalance.openmmio.do_nothing">
<polygon fill="white" stroke="black" points="956.5,-0.5 956.5,-19.5 1145.5,-19.5 1145.5,-0.5 956.5,-0.5"/>
<text text-anchor="middle" x="1051" y="-7.5" font-family="Ubuntu-R" font-size="10.00">forcebalance.openmmio.do_nothing</text>
</a>
</g>
<!-- Node3&#45;&gt;Node4 -->
<g id="edge6" class="edge"><title>Node3&#45;&gt;Node4</title>
<path fill="none" stroke="midnightblue" d="M919.829,-10C928.651,-10 937.46,-10 946.098,-10"/>
<polygon fill="midnightblue" stroke="midnightblue" points="946.151,-13.5001 956.151,-10 946.151,-6.5001 946.151,-13.5001"/>
</g>
</g>
</svg>
