<?xml version="1.0" encoding="UTF-8" standalone="no"?>
<!DOCTYPE svg PUBLIC "-//W3C//DTD SVG 1.1//EN"
 "http://www.w3.org/Graphics/SVG/1.1/DTD/svg11.dtd">
<!-- Generated by graphviz version 2.32.0 (20130801.1845)
 -->
<!-- Title: forcebalance.nifty.wq_wait Pages: 1 -->
<svg width="592pt" height="40pt"
 viewBox="0.00 0.00 592.00 40.00" xmlns="http://www.w3.org/2000/svg" xmlns:xlink="http://www.w3.org/1999/xlink">
<g id="graph0" class="graph" transform="scale(1 1) rotate(0) translate(4 36)">
<title>forcebalance.nifty.wq_wait</title>
<polygon fill="white" stroke="white" points="-4,5 -4,-36 589,-36 589,5 -4,5"/>
<!-- Node1 -->
<g id="node1" class="node"><title>Node1</title>
<polygon fill="#bfbfbf" stroke="black" points="0.3035,-6 0.3035,-26 125.697,-26 125.697,-6 0.3035,-6"/>
<text text-anchor="middle" x="63" y="-13" font-family="Ubuntu-R" font-size="10.00">forcebalance.nifty.wq_wait</text>
</g>
<!-- Node2 -->
<g id="node2" class="node"><title>Node2</title>
<g id="a_node2"><a xlink:href="namespaceforcebalance_1_1nifty.html#ac9ab6c5543a2e3080061e0024850edf3" target="_top" xlink:title="forcebalance.nifty.allsplit">
<polygon fill="white" stroke="black" points="161.909,-6 161.909,-26 280.091,-26 280.091,-6 161.909,-6"/>
<text text-anchor="middle" x="221" y="-13" font-family="Ubuntu-R" font-size="10.00">forcebalance.nifty.allsplit</text>
</a>
</g>
</g>
<!-- Node1&#45;&gt;Node2 -->
<g id="edge1" class="edge"><title>Node1&#45;&gt;Node2</title>
<path fill="none" stroke="midnightblue" d="M126.104,-16C134.44,-16 143.029,-16 151.468,-16"/>
<polygon fill="midnightblue" stroke="midnightblue" points="151.66,-19.5001 161.66,-16 151.66,-12.5001 151.66,-19.5001"/>
</g>
<!-- Node3 -->
<g id="node3" class="node"><title>Node3</title>
<g id="a_node3"><a xlink:href="namespaceforcebalance_1_1nifty.html#ae87c7def5f8edf2ec30737bdb1d2636f" target="_top" xlink:title="forcebalance.nifty.Missing\lFileInspection">
<polygon fill="white" stroke="black" points="316.409,-0 316.409,-32 439.591,-32 439.591,-0 316.409,-0"/>
<text text-anchor="start" x="324.409" y="-19" font-family="Ubuntu-R" font-size="10.00">forcebalance.nifty.Missing</text>
<text text-anchor="middle" x="378" y="-7" font-family="Ubuntu-R" font-size="10.00">FileInspection</text>
</a>
</g>
</g>
<!-- Node2&#45;&gt;Node3 -->
<g id="edge2" class="edge"><title>Node2&#45;&gt;Node3</title>
<path fill="none" stroke="midnightblue" d="M280.157,-16C288.616,-16 297.403,-16 306.079,-16"/>
<polygon fill="midnightblue" stroke="midnightblue" points="306.187,-19.5001 316.187,-16 306.187,-12.5001 306.187,-19.5001"/>
</g>
<!-- Node4 -->
<g id="node4" class="node"><title>Node4</title>
<g id="a_node4"><a xlink:href="namespaceforcebalance_1_1nifty.html#a0cf4e58f90acf20e3d6224be2354082c" target="_top" xlink:title="forcebalance.nifty.link\l_dir_contents">
<polygon fill="white" stroke="black" points="476.742,-0 476.742,-32 583.258,-32 583.258,-0 476.742,-0"/>
<text text-anchor="start" x="484.742" y="-19" font-family="Ubuntu-R" font-size="10.00">forcebalance.nifty.link</text>
<text text-anchor="middle" x="530" y="-7" font-family="Ubuntu-R" font-size="10.00">_dir_contents</text>
</a>
</g>
</g>
<!-- Node3&#45;&gt;Node4 -->
<g id="edge3" class="edge"><title>Node3&#45;&gt;Node4</title>
<path fill="none" stroke="midnightblue" d="M440.011,-16C448.755,-16 457.763,-16 466.535,-16"/>
<polygon fill="midnightblue" stroke="midnightblue" points="466.695,-19.5001 476.695,-16 466.695,-12.5001 466.695,-19.5001"/>
</g>
</g>
</svg>
