<?xml version="1.0" encoding="UTF-8" standalone="no"?>
<!DOCTYPE svg PUBLIC "-//W3C//DTD SVG 1.1//EN"
 "http://www.w3.org/Graphics/SVG/1.1/DTD/svg11.dtd">
<!-- Generated by graphviz version 2.28.0 (20111219.2309)
 -->
<!-- Title: forcebalance.parser.parse_inputs Pages: 1 -->
<svg width="1818pt" height="142pt"
 viewBox="0.00 0.00 1818.00 142.00" xmlns="http://www.w3.org/2000/svg" xmlns:xlink="http://www.w3.org/1999/xlink">
<g id="graph1" class="graph" transform="scale(1 1) rotate(0) translate(4 138)">
<title>forcebalance.parser.parse_inputs</title>
<polygon fill="white" stroke="white" points="-4,5 -4,-138 1815,-138 1815,5 -4,5"/>
<!-- Node1 -->
<g id="node1" class="node"><title>Node1</title>
<polygon fill="#bfbfbf" stroke="black" points="0.5,-79 0.5,-109 141.5,-109 141.5,-79 0.5,-79"/>
<text text-anchor="start" x="8.5" y="-97" font-family="Ubuntu-R" font-size="10.00">forcebalance.parser.parse</text>
<text text-anchor="middle" x="71" y="-86" font-family="Ubuntu-R" font-size="10.00">_inputs</text>
</g>
<!-- Node2 -->
<g id="node3" class="node"><title>Node2</title>
<a xlink:href="namespaceforcebalance_1_1nifty.html#a11babd62dc7bca389162c6318f9672ca" target="_top" xlink:title="Cool&#45;looking printout for slick formatting of output. ">
<polygon fill="white" stroke="black" points="178,-84.5 178,-103.5 322,-103.5 322,-84.5 178,-84.5"/>
<text text-anchor="middle" x="250" y="-91.5" font-family="Ubuntu-R" font-size="10.00">forcebalance.nifty.printcool</text>
</a>
</g>
<!-- Node1&#45;&gt;Node2 -->
<g id="edge2" class="edge"><title>Node1&#45;&gt;Node2</title>
<path fill="none" stroke="midnightblue" d="M141.701,-94C150.253,-94 159.052,-94 167.755,-94"/>
<polygon fill="midnightblue" stroke="midnightblue" points="167.909,-97.5001 177.909,-94 167.909,-90.5001 167.909,-97.5001"/>
</g>
<!-- Node3 -->
<g id="node5" class="node"><title>Node3</title>
<a xlink:href="namespaceforcebalance_1_1nifty.html#abb8f59044961a12588e0653c2baa8b01" target="_top" xlink:title="forcebalance.nifty.warn\l_press_key">
<polygon fill="white" stroke="black" points="1445.5,-103 1445.5,-133 1570.5,-133 1570.5,-103 1445.5,-103"/>
<text text-anchor="start" x="1453.5" y="-121" font-family="Ubuntu-R" font-size="10.00">forcebalance.nifty.warn</text>
<text text-anchor="middle" x="1508" y="-110" font-family="Ubuntu-R" font-size="10.00">_press_key</text>
</a>
</g>
<!-- Node2&#45;&gt;Node3 -->
<g id="edge4" class="edge"><title>Node2&#45;&gt;Node3</title>
<path fill="none" stroke="midnightblue" d="M320.305,-103.533C390.24,-112.318 501.403,-124 598,-124 598,-124 598,-124 1125,-124 1233.23,-124 1358.69,-121.562 1435.44,-119.795"/>
<polygon fill="midnightblue" stroke="midnightblue" points="1435.56,-123.293 1445.47,-119.561 1435.4,-116.295 1435.56,-123.293"/>
</g>
<!-- Node5 -->
<g id="node9" class="node"><title>Node5</title>
<a xlink:href="namespaceforcebalance_1_1nifty.html#a51180e960742cc7547749fdfb3513ec4" target="_top" xlink:title="See documentation for printcool; this is a nice way to print out keys/values in a dictionary...">
<polygon fill="white" stroke="black" points="358,-49 358,-79 502,-79 502,-49 358,-49"/>
<text text-anchor="start" x="366" y="-67" font-family="Ubuntu-R" font-size="10.00">forcebalance.nifty.printcool</text>
<text text-anchor="middle" x="430" y="-56" font-family="Ubuntu-R" font-size="10.00">_dictionary</text>
</a>
</g>
<!-- Node2&#45;&gt;Node5 -->
<g id="edge8" class="edge"><title>Node2&#45;&gt;Node5</title>
<path fill="none" stroke="midnightblue" d="M307.81,-84.4253C320.458,-82.2936 334.108,-79.993 347.529,-77.7311"/>
<polygon fill="midnightblue" stroke="midnightblue" points="348.447,-81.1258 357.726,-76.0124 347.284,-74.2231 348.447,-81.1258"/>
</g>
<!-- Node4 -->
<g id="node7" class="node"><title>Node4</title>
<a xlink:href="namespaceforcebalance_1_1nifty.html#a2fc81730e7efa7d138dd86f733507bfc" target="_top" xlink:title="Similar to the bultin function map(). ">
<polygon fill="white" stroke="black" points="1628,-108.5 1628,-127.5 1810,-127.5 1810,-108.5 1628,-108.5"/>
<text text-anchor="middle" x="1719" y="-115.5" font-family="Ubuntu-R" font-size="10.00">forcebalance.nifty.concurrent_map</text>
</a>
</g>
<!-- Node3&#45;&gt;Node4 -->
<g id="edge6" class="edge"><title>Node3&#45;&gt;Node4</title>
<path fill="none" stroke="midnightblue" d="M1570.58,-118C1585.43,-118 1601.69,-118 1617.81,-118"/>
<polygon fill="midnightblue" stroke="midnightblue" points="1617.82,-121.5 1627.82,-118 1617.82,-114.5 1617.82,-121.5"/>
</g>
<!-- Node6 -->
<g id="node11" class="node"><title>Node6</title>
<a xlink:href="namespaceforcebalance_1_1nifty.html#a3f1c7a1af9d35d5d1693074bc6f5497c" target="_top" xlink:title="ONLY matches integers! If you have a decimal point? None shall pass! ">
<polygon fill="white" stroke="black" points="538,-54.5 538,-73.5 660,-73.5 660,-54.5 538,-54.5"/>
<text text-anchor="middle" x="599" y="-61.5" font-family="Ubuntu-R" font-size="10.00">forcebalance.nifty.isint</text>
</a>
</g>
<!-- Node5&#45;&gt;Node6 -->
<g id="edge10" class="edge"><title>Node5&#45;&gt;Node6</title>
<path fill="none" stroke="midnightblue" d="M502.307,-64C510.753,-64 519.369,-64 527.799,-64"/>
<polygon fill="midnightblue" stroke="midnightblue" points="527.965,-67.5001 537.965,-64 527.965,-60.5001 527.965,-67.5001"/>
</g>
<!-- Node8 -->
<g id="node15" class="node"><title>Node8</title>
<a xlink:href="namespaceforcebalance_1_1nifty.html#a8e3ef0108b9d37b82ba0dced7c6037ae" target="_top" xlink:title="Matches ANY number; it can be a decimal, scientific notation, what have you CAUTION &#45; this will also ...">
<polygon fill="white" stroke="black" points="880.5,-19.5 880.5,-38.5 1011.5,-38.5 1011.5,-19.5 880.5,-19.5"/>
<text text-anchor="middle" x="946" y="-26.5" font-family="Ubuntu-R" font-size="10.00">forcebalance.nifty.isfloat</text>
</a>
</g>
<!-- Node5&#45;&gt;Node8 -->
<g id="edge40" class="edge"><title>Node5&#45;&gt;Node8</title>
<path fill="none" stroke="midnightblue" d="M502.195,-50.1424C514.115,-48.172 526.382,-46.3576 538,-45 653.347,-31.5221 788.195,-28.7521 870.056,-28.4981"/>
<polygon fill="midnightblue" stroke="midnightblue" points="870.27,-31.9978 880.263,-28.4787 870.256,-24.9978 870.27,-31.9978"/>
</g>
<!-- Node7 -->
<g id="node13" class="node"><title>Node7</title>
<a xlink:href="namespaceforcebalance_1_1nifty.html#a09263927eaec9deff283fbf1a820242f" target="_top" xlink:title="Matches things with a decimal only; see isint and isfloat. ">
<polygon fill="white" stroke="black" points="696,-76.5 696,-95.5 844,-95.5 844,-76.5 696,-76.5"/>
<text text-anchor="middle" x="770" y="-83.5" font-family="Ubuntu-R" font-size="10.00">forcebalance.nifty.isdecimal</text>
</a>
</g>
<!-- Node6&#45;&gt;Node7 -->
<g id="edge12" class="edge"><title>Node6&#45;&gt;Node7</title>
<path fill="none" stroke="midnightblue" d="M660.059,-71.8183C668.378,-72.9013 677.043,-74.0293 685.692,-75.1551"/>
<polygon fill="midnightblue" stroke="midnightblue" points="685.447,-78.6527 695.815,-76.4729 686.35,-71.7113 685.447,-78.6527"/>
</g>
<!-- Node7&#45;&gt;Node8 -->
<g id="edge14" class="edge"><title>Node7&#45;&gt;Node8</title>
<path fill="none" stroke="midnightblue" d="M800.124,-76.4595C829.232,-66.924 874.159,-52.2064 906.262,-41.6901"/>
<polygon fill="midnightblue" stroke="midnightblue" points="907.368,-45.0109 915.781,-38.5716 905.189,-38.3587 907.368,-45.0109"/>
</g>
<!-- Node12 -->
<g id="node24" class="node"><title>Node12</title>
<a xlink:href="namespaceforcebalance_1_1nifty.html#afb3f205bce4984856e766af7e9fdaca8" target="_top" xlink:title="Given any list, array, or matrix, return a 1&#45;column matrix. ">
<polygon fill="white" stroke="black" points="888,-76.5 888,-95.5 1004,-95.5 1004,-76.5 888,-76.5"/>
<text text-anchor="middle" x="946" y="-83.5" font-family="Ubuntu-R" font-size="10.00">forcebalance.nifty.col</text>
</a>
</g>
<!-- Node7&#45;&gt;Node12 -->
<g id="edge24" class="edge"><title>Node7&#45;&gt;Node12</title>
<path fill="none" stroke="midnightblue" d="M844.035,-86C855.1,-86 866.475,-86 877.418,-86"/>
<polygon fill="midnightblue" stroke="midnightblue" points="877.752,-89.5001 887.752,-86 877.752,-82.5001 877.752,-89.5001"/>
</g>
<!-- Node8&#45;&gt;Node6 -->
<g id="edge16" class="edge"><title>Node8&#45;&gt;Node6</title>
<path fill="none" stroke="midnightblue" d="M880.323,-35.5614C820.453,-41.6352 731.656,-50.6436 670.11,-56.8874"/>
<polygon fill="midnightblue" stroke="midnightblue" points="669.69,-53.4119 660.094,-57.9035 670.397,-60.3762 669.69,-53.4119"/>
</g>
<!-- Node9 -->
<g id="node18" class="node"><title>Node9</title>
<a xlink:href="namespaceforcebalance_1_1nifty.html#a8d63c8ae9a67c66673a6cf81357f827d" target="_top" xlink:title="Returns a big number if we encounter NaN. ">
<polygon fill="white" stroke="black" points="1048,-0.5 1048,-19.5 1200,-19.5 1200,-0.5 1048,-0.5"/>
<text text-anchor="middle" x="1124" y="-7.5" font-family="Ubuntu-R" font-size="10.00">forcebalance.nifty.floatornan</text>
</a>
</g>
<!-- Node8&#45;&gt;Node9 -->
<g id="edge18" class="edge"><title>Node8&#45;&gt;Node9</title>
<path fill="none" stroke="midnightblue" d="M1011.54,-22.033C1020,-21.1195 1028.77,-20.1723 1037.51,-19.2287"/>
<polygon fill="midnightblue" stroke="midnightblue" points="1038.17,-22.6781 1047.74,-18.1249 1037.42,-15.7185 1038.17,-22.6781"/>
</g>
<!-- Node10 -->
<g id="node20" class="node"><title>Node10</title>
<a xlink:href="namespaceforcebalance_1_1nifty.html#a6c9727360cdff8f3011a12cc54d0e86e" target="_top" xlink:title="Given any list, array, or matrix, return a 1&#45;row matrix. ">
<polygon fill="white" stroke="black" points="1252.5,-0.5 1252.5,-19.5 1371.5,-19.5 1371.5,-0.5 1252.5,-0.5"/>
<text text-anchor="middle" x="1312" y="-7.5" font-family="Ubuntu-R" font-size="10.00">forcebalance.nifty.row</text>
</a>
</g>
<!-- Node9&#45;&gt;Node10 -->
<g id="edge20" class="edge"><title>Node9&#45;&gt;Node10</title>
<path fill="none" stroke="midnightblue" d="M1200.12,-10C1214.02,-10 1228.47,-10 1242.17,-10"/>
<polygon fill="midnightblue" stroke="midnightblue" points="1242.48,-13.5001 1252.48,-10 1242.48,-6.5001 1242.48,-13.5001"/>
</g>
<!-- Node11 -->
<g id="node22" class="node"><title>Node11</title>
<a xlink:href="namespaceforcebalance_1_1nifty.html#a7676236002c6a65ea7d2e69a09923889" target="_top" xlink:title="Given two vectors vec1 and vec2, project out the component of vec1 that is along the vec2&#45;direction...">
<polygon fill="white" stroke="black" points="1424,-0.5 1424,-19.5 1592,-19.5 1592,-0.5 1424,-0.5"/>
<text text-anchor="middle" x="1508" y="-7.5" font-family="Ubuntu-R" font-size="10.00">forcebalance.nifty.orthogonalize</text>
</a>
</g>
<!-- Node10&#45;&gt;Node11 -->
<g id="edge22" class="edge"><title>Node10&#45;&gt;Node11</title>
<path fill="none" stroke="midnightblue" d="M1371.73,-10C1384.92,-10 1399.24,-10 1413.46,-10"/>
<polygon fill="midnightblue" stroke="midnightblue" points="1413.78,-13.5001 1423.78,-10 1413.78,-6.5001 1413.78,-13.5001"/>
</g>
<!-- Node13 -->
<g id="node26" class="node"><title>Node13</title>
<a xlink:href="namespaceforcebalance_1_1nifty.html#a52114ceee9d55f94d9aecb3e176de294" target="_top" xlink:title="Given any list, array, or matrix, return a single&#45;index array. ">
<polygon fill="white" stroke="black" points="1065,-38.5 1065,-57.5 1183,-57.5 1183,-38.5 1065,-38.5"/>
<text text-anchor="middle" x="1124" y="-45.5" font-family="Ubuntu-R" font-size="10.00">forcebalance.nifty.flat</text>
</a>
</g>
<!-- Node12&#45;&gt;Node13 -->
<g id="edge26" class="edge"><title>Node12&#45;&gt;Node13</title>
<path fill="none" stroke="midnightblue" d="M991.412,-76.411C1014.95,-71.3287 1044.06,-65.0446 1068.9,-59.6797"/>
<polygon fill="midnightblue" stroke="midnightblue" points="1069.87,-63.0518 1078.91,-57.5201 1068.39,-56.2094 1069.87,-63.0518"/>
</g>
<!-- Node14 -->
<g id="node28" class="node"><title>Node14</title>
<a xlink:href="namespaceforcebalance_1_1nifty.html#a4c82187e92dfeb8a159f4aa44b501c40" target="_top" xlink:title="Invert a matrix using singular value decomposition. ">
<polygon fill="white" stroke="black" points="1236,-76.5 1236,-95.5 1388,-95.5 1388,-76.5 1236,-76.5"/>
<text text-anchor="middle" x="1312" y="-83.5" font-family="Ubuntu-R" font-size="10.00">forcebalance.nifty.invert_svd</text>
</a>
</g>
<!-- Node13&#45;&gt;Node14 -->
<g id="edge28" class="edge"><title>Node13&#45;&gt;Node14</title>
<path fill="none" stroke="midnightblue" d="M1171.94,-57.589C1197.03,-62.7165 1228.12,-69.0672 1254.53,-74.4632"/>
<polygon fill="midnightblue" stroke="midnightblue" points="1253.9,-77.9074 1264.4,-76.4799 1255.3,-71.049 1253.9,-77.9074"/>
</g>
<!-- Node14&#45;&gt;Node3 -->
<g id="edge38" class="edge"><title>Node14&#45;&gt;Node3</title>
<path fill="none" stroke="midnightblue" d="M1370.68,-95.5144C1391.03,-98.8703 1414.15,-102.684 1435.5,-106.206"/>
<polygon fill="midnightblue" stroke="midnightblue" points="1435.05,-109.68 1445.49,-107.854 1436.19,-102.773 1435.05,-109.68"/>
</g>
<!-- Node14&#45;&gt;Node12 -->
<g id="edge36" class="edge"><title>Node14&#45;&gt;Node12</title>
<path fill="none" stroke="midnightblue" d="M1235.75,-86C1170.6,-86 1077.22,-86 1014.46,-86"/>
<polygon fill="midnightblue" stroke="midnightblue" points="1014.28,-82.5001 1004.28,-86 1014.28,-89.5001 1014.28,-82.5001"/>
</g>
<!-- Node15 -->
<g id="node30" class="node"><title>Node15</title>
<a xlink:href="namespaceforcebalance_1_1nifty.html#aa9fb9c7c65231eca50a7afc04f489b64" target="_top" xlink:title="forcebalance.nifty.get\l_least_squares">
<polygon fill="white" stroke="black" points="1448.5,-49 1448.5,-79 1567.5,-79 1567.5,-49 1448.5,-49"/>
<text text-anchor="start" x="1456.5" y="-67" font-family="Ubuntu-R" font-size="10.00">forcebalance.nifty.get</text>
<text text-anchor="middle" x="1508" y="-56" font-family="Ubuntu-R" font-size="10.00">_least_squares</text>
</a>
</g>
<!-- Node14&#45;&gt;Node15 -->
<g id="edge30" class="edge"><title>Node14&#45;&gt;Node15</title>
<path fill="none" stroke="midnightblue" d="M1388.01,-77.4942C1404.61,-75.6117 1422.11,-73.6264 1438.44,-71.7748"/>
<polygon fill="midnightblue" stroke="midnightblue" points="1438.89,-75.2459 1448.44,-70.6413 1438.11,-68.2905 1438.89,-75.2459"/>
</g>
<!-- Node15&#45;&gt;Node13 -->
<g id="edge32" class="edge"><title>Node15&#45;&gt;Node13</title>
<path fill="none" stroke="midnightblue" d="M1448.44,-61.5471C1379.76,-58.6707 1266.1,-53.9101 1193.43,-50.8663"/>
<polygon fill="midnightblue" stroke="midnightblue" points="1193.16,-47.3517 1183.02,-50.4301 1192.86,-54.3456 1193.16,-47.3517"/>
</g>
<!-- Node16 -->
<g id="node33" class="node"><title>Node16</title>
<a xlink:href="namespaceforcebalance_1_1nifty.html#ad5ca60565c864b4245a8212fe9d92e10" target="_top" xlink:title="Compute the (cross) statistical inefficiency of (two) timeseries. ">
<polygon fill="white" stroke="black" points="1644.5,-49 1644.5,-79 1793.5,-79 1793.5,-49 1644.5,-49"/>
<text text-anchor="start" x="1652.5" y="-67" font-family="Ubuntu-R" font-size="10.00">forcebalance.nifty.statistical</text>
<text text-anchor="middle" x="1719" y="-56" font-family="Ubuntu-R" font-size="10.00">Inefficiency</text>
</a>
</g>
<!-- Node15&#45;&gt;Node16 -->
<g id="edge34" class="edge"><title>Node15&#45;&gt;Node16</title>
<path fill="none" stroke="midnightblue" d="M1567.77,-64C1588.4,-64 1611.99,-64 1634.26,-64"/>
<polygon fill="midnightblue" stroke="midnightblue" points="1634.39,-67.5001 1644.39,-64 1634.39,-60.5001 1634.39,-67.5001"/>
</g>
</g>
</svg>
