<?xml version="1.0" encoding="UTF-8" standalone="no"?>
<!DOCTYPE svg PUBLIC "-//W3C//DTD SVG 1.1//EN"
 "http://www.w3.org/Graphics/SVG/1.1/DTD/svg11.dtd">
<!-- Generated by graphviz version 2.28.0 (20111219.2309)
 -->
<!-- Title: G Pages: 1 -->
<svg width="840pt" height="66pt"
 viewBox="0.00 0.00 840.00 66.00" xmlns="http://www.w3.org/2000/svg" xmlns:xlink="http://www.w3.org/1999/xlink">
<g id="graph1" class="graph" transform="scale(1 1) rotate(0) translate(4 62)">
<title>G</title>
<polygon fill="white" stroke="white" points="-4,5 -4,-62 837,-62 837,5 -4,5"/>
<!-- Node1 -->
<g id="node1" class="node"><title>Node1</title>
<polygon fill="#bfbfbf" stroke="black" points="0,-19.5 0,-38.5 252,-38.5 252,-19.5 0,-19.5"/>
<text text-anchor="middle" x="126" y="-26.5" font-family="Ubuntu-R" font-size="10.00">forcebalance.openmmio.CopySystemParameters</text>
</g>
<!-- Node2 -->
<g id="node3" class="node"><title>Node2</title>
<a xlink:href="namespaceforcebalance_1_1nifty.html#abb8f59044961a12588e0653c2baa8b01" target="_top" xlink:title="forcebalance.nifty.warn_press_key">
<polygon fill="white" stroke="black" points="337.5,-38.5 337.5,-57.5 516.5,-57.5 516.5,-38.5 337.5,-38.5"/>
<text text-anchor="middle" x="427" y="-45.5" font-family="Ubuntu-R" font-size="10.00">forcebalance.nifty.warn_press_key</text>
</a>
</g>
<!-- Node1&#45;&gt;Node2 -->
<g id="edge2" class="edge"><title>Node1&#45;&gt;Node2</title>
<path fill="none" stroke="midnightblue" d="M252.07,-36.9476C277.135,-38.5403 303.14,-40.1929 327.166,-41.7196"/>
<polygon fill="midnightblue" stroke="midnightblue" points="327.131,-45.2244 337.333,-42.3657 327.575,-38.2384 327.131,-45.2244"/>
</g>
<!-- Node4 -->
<g id="node7" class="node"><title>Node4</title>
<a xlink:href="namespaceforcebalance_1_1openmmio.html#a9f9fc56475dbfcc94a40fef6a84ed25f" target="_top" xlink:title="forcebalance.openmmio.UpdateSimulationParameters">
<polygon fill="white" stroke="black" points="288,-0.5 288,-19.5 566,-19.5 566,-0.5 288,-0.5"/>
<text text-anchor="middle" x="427" y="-7.5" font-family="Ubuntu-R" font-size="10.00">forcebalance.openmmio.UpdateSimulationParameters</text>
</a>
</g>
<!-- Node1&#45;&gt;Node4 -->
<g id="edge6" class="edge"><title>Node1&#45;&gt;Node4</title>
<path fill="none" stroke="midnightblue" d="M252.07,-21.0524C260.582,-20.5115 269.202,-19.9638 277.816,-19.4164"/>
<polygon fill="midnightblue" stroke="midnightblue" points="278.161,-22.9016 287.919,-18.7744 277.717,-15.9157 278.161,-22.9016"/>
</g>
<!-- Node3 -->
<g id="node5" class="node"><title>Node3</title>
<a xlink:href="namespaceforcebalance_1_1nifty.html#a2fc81730e7efa7d138dd86f733507bfc" target="_top" xlink:title="Similar to the bultin function map().">
<polygon fill="white" stroke="black" points="626,-38.5 626,-57.5 808,-57.5 808,-38.5 626,-38.5"/>
<text text-anchor="middle" x="717" y="-45.5" font-family="Ubuntu-R" font-size="10.00">forcebalance.nifty.concurrent_map</text>
</a>
</g>
<!-- Node2&#45;&gt;Node3 -->
<g id="edge4" class="edge"><title>Node2&#45;&gt;Node3</title>
<path fill="none" stroke="midnightblue" d="M516.759,-48C547.929,-48 583.168,-48 615.25,-48"/>
<polygon fill="midnightblue" stroke="midnightblue" points="615.546,-51.5001 625.546,-48 615.546,-44.5001 615.546,-51.5001"/>
</g>
<!-- Node5 -->
<g id="node9" class="node"><title>Node5</title>
<a xlink:href="namespaceforcebalance_1_1openmmio.html#aa085594c11e9cd00ce71f5a8ead72b68" target="_top" xlink:title="Create a multiple timestep velocity verlet with velocity randomization (VVVR) integrator.">
<polygon fill="white" stroke="black" points="602,-0.5 602,-19.5 832,-19.5 832,-0.5 602,-0.5"/>
<text text-anchor="middle" x="717" y="-7.5" font-family="Ubuntu-R" font-size="10.00">forcebalance.openmmio.MTSVVVRIntegrator</text>
</a>
</g>
<!-- Node4&#45;&gt;Node5 -->
<g id="edge8" class="edge"><title>Node4&#45;&gt;Node5</title>
<path fill="none" stroke="midnightblue" d="M566.095,-10C574.614,-10 583.16,-10 591.614,-10"/>
<polygon fill="midnightblue" stroke="midnightblue" points="591.873,-13.5001 601.873,-10 591.873,-6.5001 591.873,-13.5001"/>
</g>
</g>
</svg>
