<?xml version="1.0" encoding="UTF-8" standalone="no"?>
<!DOCTYPE svg PUBLIC "-//W3C//DTD SVG 1.1//EN"
 "http://www.w3.org/Graphics/SVG/1.1/DTD/svg11.dtd">
<!-- Generated by graphviz version 2.32.0 (20130801.1845)
 -->
<!-- Title: forcebalance.parser.parse_inputs Pages: 1 -->
<svg width="1628pt" height="146pt"
 viewBox="0.00 0.00 1628.00 146.00" xmlns="http://www.w3.org/2000/svg" xmlns:xlink="http://www.w3.org/1999/xlink">
<g id="graph0" class="graph" transform="scale(1 1) rotate(0) translate(4 142)">
<title>forcebalance.parser.parse_inputs</title>
<polygon fill="white" stroke="white" points="-4,5 -4,-142 1625,-142 1625,5 -4,5"/>
<!-- Node1 -->
<g id="node1" class="node"><title>Node1</title>
<polygon fill="#bfbfbf" stroke="black" points="0.204,-80 0.204,-112 117.796,-112 117.796,-80 0.204,-80"/>
<text text-anchor="start" x="8.204" y="-99" font-family="Ubuntu-R" font-size="10.00">forcebalance.parser.parse</text>
<text text-anchor="middle" x="59" y="-87" font-family="Ubuntu-R" font-size="10.00">_inputs</text>
</g>
<!-- Node2 -->
<g id="node2" class="node"><title>Node2</title>
<g id="a_node2"><a xlink:href="namespaceforcebalance_1_1nifty.html#a11babd62dc7bca389162c6318f9672ca" target="_top" xlink:title="Cool&#45;looking printout for slick formatting of output.">
<polygon fill="white" stroke="black" points="154.469,-86 154.469,-106 281.531,-106 281.531,-86 154.469,-86"/>
<text text-anchor="middle" x="218" y="-93" font-family="Ubuntu-R" font-size="10.00">forcebalance.nifty.printcool</text>
</a>
</g>
</g>
<!-- Node1&#45;&gt;Node2 -->
<g id="edge1" class="edge"><title>Node1&#45;&gt;Node2</title>
<path fill="none" stroke="midnightblue" d="M118.015,-96C126.491,-96 135.309,-96 144.036,-96"/>
<polygon fill="midnightblue" stroke="midnightblue" points="144.212,-99.5001 154.212,-96 144.212,-92.5001 144.212,-99.5001"/>
</g>
<!-- Node3 -->
<g id="node3" class="node"><title>Node3</title>
<g id="a_node3"><a xlink:href="namespaceforcebalance_1_1nifty.html#abb8f59044961a12588e0653c2baa8b01" target="_top" xlink:title="forcebalance.nifty.warn\l_press_key">
<polygon fill="white" stroke="black" points="1299.53,-105 1299.53,-137 1410.47,-137 1410.47,-105 1299.53,-105"/>
<text text-anchor="start" x="1307.53" y="-124" font-family="Ubuntu-R" font-size="10.00">forcebalance.nifty.warn</text>
<text text-anchor="middle" x="1355" y="-112" font-family="Ubuntu-R" font-size="10.00">_press_key</text>
</a>
</g>
</g>
<!-- Node2&#45;&gt;Node3 -->
<g id="edge2" class="edge"><title>Node2&#45;&gt;Node3</title>
<path fill="none" stroke="midnightblue" d="M281.775,-105.809C345.413,-114.891 446.801,-127 535,-127 535,-127 535,-127 1011,-127 1107.87,-127 1220.11,-124.578 1289.08,-122.812"/>
<polygon fill="midnightblue" stroke="midnightblue" points="1289.45,-126.303 1299.35,-122.545 1289.26,-119.306 1289.45,-126.303"/>
</g>
<!-- Node5 -->
<g id="node5" class="node"><title>Node5</title>
<g id="a_node5"><a xlink:href="namespaceforcebalance_1_1nifty.html#a51180e960742cc7547749fdfb3513ec4" target="_top" xlink:title="See documentation for printcool; this is a nice way to print out keys/values in a dictionary...">
<polygon fill="white" stroke="black" points="318.469,-50 318.469,-82 445.531,-82 445.531,-50 318.469,-50"/>
<text text-anchor="start" x="326.469" y="-69" font-family="Ubuntu-R" font-size="10.00">forcebalance.nifty.printcool</text>
<text text-anchor="middle" x="382" y="-57" font-family="Ubuntu-R" font-size="10.00">_dictionary</text>
</a>
</g>
</g>
<!-- Node2&#45;&gt;Node5 -->
<g id="edge4" class="edge"><title>Node2&#45;&gt;Node5</title>
<path fill="none" stroke="midnightblue" d="M273.394,-85.927C284.669,-83.8391 296.717,-81.608 308.521,-79.422"/>
<polygon fill="midnightblue" stroke="midnightblue" points="309.161,-82.8631 318.357,-77.6006 307.886,-75.9801 309.161,-82.8631"/>
</g>
<!-- Node4 -->
<g id="node4" class="node"><title>Node4</title>
<g id="a_node4"><a xlink:href="namespaceforcebalance_1_1nifty.html#a2fc81730e7efa7d138dd86f733507bfc" target="_top" xlink:title="Similar to the bultin function map().">
<polygon fill="white" stroke="black" points="1464.04,-111 1464.04,-131 1619.96,-131 1619.96,-111 1464.04,-111"/>
<text text-anchor="middle" x="1542" y="-118" font-family="Ubuntu-R" font-size="10.00">forcebalance.nifty.concurrent_map</text>
</a>
</g>
</g>
<!-- Node3&#45;&gt;Node4 -->
<g id="edge3" class="edge"><title>Node3&#45;&gt;Node4</title>
<path fill="none" stroke="midnightblue" d="M1410.51,-121C1424.1,-121 1439.02,-121 1453.77,-121"/>
<polygon fill="midnightblue" stroke="midnightblue" points="1453.92,-124.5 1463.92,-121 1453.92,-117.5 1453.92,-124.5"/>
</g>
<!-- Node6 -->
<g id="node6" class="node"><title>Node6</title>
<g id="a_node6"><a xlink:href="namespaceforcebalance_1_1nifty.html#a3f1c7a1af9d35d5d1693074bc6f5497c" target="_top" xlink:title="ONLY matches integers! If you have a decimal point? None shall pass!">
<polygon fill="white" stroke="black" points="481.908,-56 481.908,-76 590.092,-76 590.092,-56 481.908,-56"/>
<text text-anchor="middle" x="536" y="-63" font-family="Ubuntu-R" font-size="10.00">forcebalance.nifty.isint</text>
</a>
</g>
</g>
<!-- Node5&#45;&gt;Node6 -->
<g id="edge5" class="edge"><title>Node5&#45;&gt;Node6</title>
<path fill="none" stroke="midnightblue" d="M445.702,-66C454.19,-66 462.907,-66 471.41,-66"/>
<polygon fill="midnightblue" stroke="midnightblue" points="471.648,-69.5001 481.648,-66 471.648,-62.5001 471.648,-69.5001"/>
</g>
<!-- Node8 -->
<g id="node8" class="node"><title>Node8</title>
<g id="a_node8"><a xlink:href="namespaceforcebalance_1_1nifty.html#a8e3ef0108b9d37b82ba0dced7c6037ae" target="_top" xlink:title="Matches ANY number; it can be a decimal, scientific notation, what have you CAUTION &#45; this will also ...">
<polygon fill="white" stroke="black" points="792.024,-20 792.024,-40 907.976,-40 907.976,-20 792.024,-20"/>
<text text-anchor="middle" x="850" y="-27" font-family="Ubuntu-R" font-size="10.00">forcebalance.nifty.isfloat</text>
</a>
</g>
</g>
<!-- Node5&#45;&gt;Node8 -->
<g id="edge20" class="edge"><title>Node5&#45;&gt;Node8</title>
<path fill="none" stroke="midnightblue" d="M445.62,-51.9352C457.644,-49.6365 470.173,-47.5152 482,-46 586.068,-32.6676 707.942,-29.8632 781.76,-29.5615"/>
<polygon fill="midnightblue" stroke="midnightblue" points="781.859,-33.0614 791.85,-29.5347 781.841,-26.0614 781.859,-33.0614"/>
</g>
<!-- Node7 -->
<g id="node7" class="node"><title>Node7</title>
<g id="a_node7"><a xlink:href="namespaceforcebalance_1_1nifty.html#a09263927eaec9deff283fbf1a820242f" target="_top" xlink:title="Matches things with a decimal only; see isint and isfloat.">
<polygon fill="white" stroke="black" points="626.36,-78 626.36,-98 755.64,-98 755.64,-78 626.36,-78"/>
<text text-anchor="middle" x="691" y="-85" font-family="Ubuntu-R" font-size="10.00">forcebalance.nifty.isdecimal</text>
</a>
</g>
</g>
<!-- Node6&#45;&gt;Node7 -->
<g id="edge6" class="edge"><title>Node6&#45;&gt;Node7</title>
<path fill="none" stroke="midnightblue" d="M590.512,-73.6945C598.812,-74.8879 607.509,-76.1386 616.161,-77.3827"/>
<polygon fill="midnightblue" stroke="midnightblue" points="615.874,-80.8773 626.271,-78.8363 616.871,-73.9486 615.874,-80.8773"/>
</g>
<!-- Node7&#45;&gt;Node8 -->
<g id="edge7" class="edge"><title>Node7&#45;&gt;Node8</title>
<path fill="none" stroke="midnightblue" d="M719.347,-77.8972C745.046,-68.4035 783.699,-54.124 812.116,-43.6258"/>
<polygon fill="midnightblue" stroke="midnightblue" points="813.536,-46.8327 821.703,-40.0842 811.11,-40.2665 813.536,-46.8327"/>
</g>
<!-- Node12 -->
<g id="node12" class="node"><title>Node12</title>
<g id="a_node12"><a xlink:href="namespaceforcebalance_1_1nifty.html#afb3f205bce4984856e766af7e9fdaca8" target="_top" xlink:title="Given any list, array, or matrix, return a 1&#45;column matrix.">
<polygon fill="white" stroke="black" points="798.412,-78 798.412,-98 901.588,-98 901.588,-78 798.412,-78"/>
<text text-anchor="middle" x="850" y="-85" font-family="Ubuntu-R" font-size="10.00">forcebalance.nifty.col</text>
</a>
</g>
</g>
<!-- Node7&#45;&gt;Node12 -->
<g id="edge12" class="edge"><title>Node7&#45;&gt;Node12</title>
<path fill="none" stroke="midnightblue" d="M755.858,-88C766.427,-88 777.364,-88 787.864,-88"/>
<polygon fill="midnightblue" stroke="midnightblue" points="788.189,-91.5001 798.189,-88 788.189,-84.5001 788.189,-91.5001"/>
</g>
<!-- Node8&#45;&gt;Node6 -->
<g id="edge8" class="edge"><title>Node8&#45;&gt;Node6</title>
<path fill="none" stroke="midnightblue" d="M791.978,-36.5794C737.846,-42.8255 656.625,-52.1971 600.463,-58.6773"/>
<polygon fill="midnightblue" stroke="midnightblue" points="599.813,-55.229 590.28,-59.8523 600.616,-62.1829 599.813,-55.229"/>
</g>
<!-- Node9 -->
<g id="node9" class="node"><title>Node9</title>
<g id="a_node9"><a xlink:href="namespaceforcebalance_1_1nifty.html#a8d63c8ae9a67c66673a6cf81357f827d" target="_top" xlink:title="Returns a big number if we encounter NaN.">
<polygon fill="white" stroke="black" points="943.974,-0 943.974,-20 1076.03,-20 1076.03,-0 943.974,-0"/>
<text text-anchor="middle" x="1010" y="-7" font-family="Ubuntu-R" font-size="10.00">forcebalance.nifty.floatornan</text>
</a>
</g>
</g>
<!-- Node8&#45;&gt;Node9 -->
<g id="edge9" class="edge"><title>Node8&#45;&gt;Node9</title>
<path fill="none" stroke="midnightblue" d="M908.042,-22.7795C916.364,-21.726 925.04,-20.6278 933.658,-19.5369"/>
<polygon fill="midnightblue" stroke="midnightblue" points="934.242,-22.9911 943.723,-18.2629 933.363,-16.0465 934.242,-22.9911"/>
</g>
<!-- Node10 -->
<g id="node10" class="node"><title>Node10</title>
<g id="a_node10"><a xlink:href="namespaceforcebalance_1_1nifty.html#a6c9727360cdff8f3011a12cc54d0e86e" target="_top" xlink:title="Given any list, array, or matrix, return a 1&#45;row matrix.">
<polygon fill="white" stroke="black" points="1125.75,-0 1125.75,-20 1232.25,-20 1232.25,-0 1125.75,-0"/>
<text text-anchor="middle" x="1179" y="-7" font-family="Ubuntu-R" font-size="10.00">forcebalance.nifty.row</text>
</a>
</g>
</g>
<!-- Node9&#45;&gt;Node10 -->
<g id="edge10" class="edge"><title>Node9&#45;&gt;Node10</title>
<path fill="none" stroke="midnightblue" d="M1076.04,-10C1088.98,-10 1102.54,-10 1115.39,-10"/>
<polygon fill="midnightblue" stroke="midnightblue" points="1115.52,-13.5001 1125.52,-10 1115.52,-6.5001 1115.52,-13.5001"/>
</g>
<!-- Node11 -->
<g id="node11" class="node"><title>Node11</title>
<g id="a_node11"><a xlink:href="namespaceforcebalance_1_1nifty.html#a7676236002c6a65ea7d2e69a09923889" target="_top" xlink:title="Given two vectors vec1 and vec2, project out the component of vec1 that is along the vec2&#45;direction...">
<polygon fill="white" stroke="black" points="1282.03,-0 1282.03,-20 1427.97,-20 1427.97,-0 1282.03,-0"/>
<text text-anchor="middle" x="1355" y="-7" font-family="Ubuntu-R" font-size="10.00">forcebalance.nifty.orthogonalize</text>
</a>
</g>
</g>
<!-- Node10&#45;&gt;Node11 -->
<g id="edge11" class="edge"><title>Node10&#45;&gt;Node11</title>
<path fill="none" stroke="midnightblue" d="M1232.68,-10C1245.03,-10 1258.49,-10 1271.79,-10"/>
<polygon fill="midnightblue" stroke="midnightblue" points="1271.92,-13.5001 1281.92,-10 1271.92,-6.5001 1271.92,-13.5001"/>
</g>
<!-- Node13 -->
<g id="node13" class="node"><title>Node13</title>
<g id="a_node13"><a xlink:href="namespaceforcebalance_1_1nifty.html#a52114ceee9d55f94d9aecb3e176de294" target="_top" xlink:title="Given any list, array, or matrix, return a single&#45;index array.">
<polygon fill="white" stroke="black" points="957.858,-39 957.858,-59 1062.14,-59 1062.14,-39 957.858,-39"/>
<text text-anchor="middle" x="1010" y="-46" font-family="Ubuntu-R" font-size="10.00">forcebalance.nifty.flat</text>
</a>
</g>
</g>
<!-- Node12&#45;&gt;Node13 -->
<g id="edge13" class="edge"><title>Node12&#45;&gt;Node13</title>
<path fill="none" stroke="midnightblue" d="M891.689,-77.9565C912.054,-72.9298 936.9,-66.7968 958.475,-61.4713"/>
<polygon fill="midnightblue" stroke="midnightblue" points="959.579,-64.804 968.449,-59.0094 957.902,-58.0079 959.579,-64.804"/>
</g>
<!-- Node14 -->
<g id="node14" class="node"><title>Node14</title>
<g id="a_node14"><a xlink:href="namespaceforcebalance_1_1nifty.html#a4c82187e92dfeb8a159f4aa44b501c40" target="_top" xlink:title="Invert a matrix using singular value decomposition.">
<polygon fill="white" stroke="black" points="1112.41,-78 1112.41,-98 1245.59,-98 1245.59,-78 1112.41,-78"/>
<text text-anchor="middle" x="1179" y="-85" font-family="Ubuntu-R" font-size="10.00">forcebalance.nifty.invert_svd</text>
</a>
</g>
</g>
<!-- Node13&#45;&gt;Node14 -->
<g id="edge14" class="edge"><title>Node13&#45;&gt;Node14</title>
<path fill="none" stroke="midnightblue" d="M1054.01,-59.0435C1075.73,-64.1157 1102.27,-70.3143 1125.22,-75.6731"/>
<polygon fill="midnightblue" stroke="midnightblue" points="1124.61,-79.1246 1135.14,-77.9906 1126.2,-72.3081 1124.61,-79.1246"/>
</g>
<!-- Node14&#45;&gt;Node3 -->
<g id="edge19" class="edge"><title>Node14&#45;&gt;Node3</title>
<path fill="none" stroke="midnightblue" d="M1233.15,-98.0804C1250.94,-101.454 1270.97,-105.253 1289.53,-108.773"/>
<polygon fill="midnightblue" stroke="midnightblue" points="1288.89,-112.215 1299.37,-110.639 1290.2,-105.337 1288.89,-112.215"/>
</g>
<!-- Node14&#45;&gt;Node12 -->
<g id="edge18" class="edge"><title>Node14&#45;&gt;Node12</title>
<path fill="none" stroke="midnightblue" d="M1112.17,-88C1053.72,-88 968.983,-88 912.033,-88"/>
<polygon fill="midnightblue" stroke="midnightblue" points="911.735,-84.5001 901.735,-88 911.735,-91.5001 911.735,-84.5001"/>
</g>
<!-- Node15 -->
<g id="node15" class="node"><title>Node15</title>
<g id="a_node15"><a xlink:href="namespaceforcebalance_1_1nifty.html#aa9fb9c7c65231eca50a7afc04f489b64" target="_top" xlink:title="forcebalance.nifty.get\l_least_squares">
<polygon fill="white" stroke="black" points="1303.41,-49 1303.41,-81 1406.59,-81 1406.59,-49 1303.41,-49"/>
<text text-anchor="start" x="1311.41" y="-68" font-family="Ubuntu-R" font-size="10.00">forcebalance.nifty.get</text>
<text text-anchor="middle" x="1355" y="-56" font-family="Ubuntu-R" font-size="10.00">_least_squares</text>
</a>
</g>
</g>
<!-- Node14&#45;&gt;Node15 -->
<g id="edge15" class="edge"><title>Node14&#45;&gt;Node15</title>
<path fill="none" stroke="midnightblue" d="M1245.78,-79.3047C1261.26,-77.2582 1277.7,-75.0855 1292.96,-73.0679"/>
<polygon fill="midnightblue" stroke="midnightblue" points="1293.86,-76.4797 1303.32,-71.6994 1292.95,-69.5401 1293.86,-76.4797"/>
</g>
<!-- Node15&#45;&gt;Node13 -->
<g id="edge16" class="edge"><title>Node15&#45;&gt;Node13</title>
<path fill="none" stroke="midnightblue" d="M1303.14,-62.6275C1241.72,-59.7622 1138.46,-54.9457 1072.59,-51.873"/>
<polygon fill="midnightblue" stroke="midnightblue" points="1072.5,-48.3652 1062.35,-51.3954 1072.18,-55.3576 1072.5,-48.3652"/>
</g>
<!-- Node16 -->
<g id="node16" class="node"><title>Node16</title>
<g id="a_node16"><a xlink:href="namespaceforcebalance_1_1nifty.html#ad5ca60565c864b4245a8212fe9d92e10" target="_top" xlink:title="Compute the (cross) statistical inefficiency of (two) timeseries.">
<polygon fill="white" stroke="black" points="1477.64,-49 1477.64,-81 1606.36,-81 1606.36,-49 1477.64,-49"/>
<text text-anchor="start" x="1485.64" y="-68" font-family="Ubuntu-R" font-size="10.00">forcebalance.nifty.statistical</text>
<text text-anchor="middle" x="1542" y="-56" font-family="Ubuntu-R" font-size="10.00">Inefficiency</text>
</a>
</g>
</g>
<!-- Node15&#45;&gt;Node16 -->
<g id="edge17" class="edge"><title>Node15&#45;&gt;Node16</title>
<path fill="none" stroke="midnightblue" d="M1407.04,-65C1425.71,-65 1447.21,-65 1467.45,-65"/>
<polygon fill="midnightblue" stroke="midnightblue" points="1467.58,-68.5001 1477.58,-65 1467.58,-61.5001 1467.58,-68.5001"/>
</g>
</g>
</svg>
