<?xml version="1.0" encoding="UTF-8" standalone="no"?>
<!DOCTYPE svg PUBLIC "-//W3C//DTD SVG 1.1//EN"
 "http://www.w3.org/Graphics/SVG/1.1/DTD/svg11.dtd">
<!-- Generated by graphviz version 2.40.1 (20161225.0304)
 -->
<!-- Title: src._version.render Pages: 1 -->
<svg width="434pt" height="284pt"
 viewBox="0.00 0.00 434.00 284.00" xmlns="http://www.w3.org/2000/svg" xmlns:xlink="http://www.w3.org/1999/xlink">
<g id="graph0" class="graph" transform="scale(1 1) rotate(0) translate(4 280)">
<title>src._version.render</title>
<polygon fill="#ffffff" stroke="transparent" points="-4,4 -4,-280 430,-280 430,4 -4,4"/>
<!-- Node29 -->
<g id="node1" class="node">
<title>Node29</title>
<polygon fill="#bfbfbf" stroke="#000000" points="0,-128 0,-147 110,-147 110,-128 0,-128"/>
<text text-anchor="middle" x="55" y="-135" font-family="Ubuntu-R" font-size="10.00" fill="#000000">src._version.render</text>
</g>
<!-- Node30 -->
<g id="node2" class="node">
<title>Node30</title>
<g id="a_node2"><a xlink:href="namespacesrc_1_1__version.html#a08b184a852fca45124c31efad07ae91d" target="_top" xlink:title="Build up version string, with post&#45;release &quot;local version identifier&quot;. ">
<polygon fill="#ffffff" stroke="#000000" points="146,-245.5 146,-275.5 256,-275.5 256,-245.5 146,-245.5"/>
<text text-anchor="start" x="154" y="-263.5" font-family="Ubuntu-R" font-size="10.00" fill="#000000">src._version.render</text>
<text text-anchor="middle" x="201" y="-252.5" font-family="Ubuntu-R" font-size="10.00" fill="#000000">_pep440</text>
</a>
</g>
</g>
<!-- Node29&#45;&gt;Node30 -->
<g id="edge1" class="edge">
<title>Node29&#45;&gt;Node30</title>
<path fill="none" stroke="#191970" d="M61.7247,-147.1822C75.5368,-166.4626 108.9353,-210.069 146,-236.5 147.8608,-237.8269 149.8066,-239.1027 151.8091,-240.3263"/>
<polygon fill="#191970" stroke="#191970" points="150.423,-243.56 160.8648,-245.3542 153.8209,-237.44 150.423,-243.56"/>
</g>
<!-- Node32 -->
<g id="node4" class="node">
<title>Node32</title>
<g id="a_node4"><a xlink:href="namespacesrc_1_1__version.html#a966d7d904289700bc6bbc20d64bd5c6e" target="_top" xlink:title="TAG[.post.devDISTANCE] – No &#45;dirty. ">
<polygon fill="#ffffff" stroke="#000000" points="146,-196.5 146,-226.5 256,-226.5 256,-196.5 146,-196.5"/>
<text text-anchor="start" x="154" y="-214.5" font-family="Ubuntu-R" font-size="10.00" fill="#000000">src._version.render</text>
<text text-anchor="middle" x="201" y="-203.5" font-family="Ubuntu-R" font-size="10.00" fill="#000000">_pep440_pre</text>
</a>
</g>
</g>
<!-- Node29&#45;&gt;Node32 -->
<g id="edge3" class="edge">
<title>Node29&#45;&gt;Node32</title>
<path fill="none" stroke="#191970" d="M71.5317,-147.1776C89.585,-157.6051 119.4698,-174.4566 146,-187.5 149.2781,-189.1116 152.69,-190.732 156.1375,-192.3285"/>
<polygon fill="#191970" stroke="#191970" points="154.7265,-195.5317 165.2791,-196.4764 157.6188,-189.1572 154.7265,-195.5317"/>
</g>
<!-- Node33 -->
<g id="node5" class="node">
<title>Node33</title>
<g id="a_node5"><a xlink:href="namespacesrc_1_1__version.html#a2553edd494b07cc780e662bbb2467b66" target="_top" xlink:title="TAG[.postDISTANCE[.dev0]+gHEX] . ">
<polygon fill="#ffffff" stroke="#000000" points="146,-147.5 146,-177.5 256,-177.5 256,-147.5 146,-147.5"/>
<text text-anchor="start" x="154" y="-165.5" font-family="Ubuntu-R" font-size="10.00" fill="#000000">src._version.render</text>
<text text-anchor="middle" x="201" y="-154.5" font-family="Ubuntu-R" font-size="10.00" fill="#000000">_pep440_post</text>
</a>
</g>
</g>
<!-- Node29&#45;&gt;Node33 -->
<g id="edge4" class="edge">
<title>Node29&#45;&gt;Node33</title>
<path fill="none" stroke="#191970" d="M110.1963,-146.9514C118.5541,-148.3826 127.2434,-149.8705 135.7888,-151.3337"/>
<polygon fill="#191970" stroke="#191970" points="135.2783,-154.7972 145.7256,-153.0352 136.4598,-147.8976 135.2783,-154.7972"/>
</g>
<!-- Node34 -->
<g id="node6" class="node">
<title>Node34</title>
<g id="a_node6"><a xlink:href="namespacesrc_1_1__version.html#a04e18593f1d130a8f2609ebb4520faf3" target="_top" xlink:title="TAG[.postDISTANCE[.dev0]] . ">
<polygon fill="#ffffff" stroke="#000000" points="146,-98.5 146,-128.5 256,-128.5 256,-98.5 146,-98.5"/>
<text text-anchor="start" x="154" y="-116.5" font-family="Ubuntu-R" font-size="10.00" fill="#000000">src._version.render</text>
<text text-anchor="middle" x="201" y="-105.5" font-family="Ubuntu-R" font-size="10.00" fill="#000000">_pep440_old</text>
</a>
</g>
</g>
<!-- Node29&#45;&gt;Node34 -->
<g id="edge6" class="edge">
<title>Node29&#45;&gt;Node34</title>
<path fill="none" stroke="#191970" d="M110.1963,-128.4266C118.5541,-127.0528 127.2434,-125.6244 135.7888,-124.2197"/>
<polygon fill="#191970" stroke="#191970" points="136.4258,-127.662 145.7256,-122.5862 135.2903,-120.7547 136.4258,-127.662"/>
</g>
<!-- Node35 -->
<g id="node7" class="node">
<title>Node35</title>
<g id="a_node7"><a xlink:href="namespacesrc_1_1__version.html#afab0479c00019cd66c0000ffb3fcba2f" target="_top" xlink:title="TAG[&#45;DISTANCE&#45;gHEX][&#45;dirty]. ">
<polygon fill="#ffffff" stroke="#000000" points="146,-49.5 146,-79.5 256,-79.5 256,-49.5 146,-49.5"/>
<text text-anchor="start" x="154" y="-67.5" font-family="Ubuntu-R" font-size="10.00" fill="#000000">src._version.render</text>
<text text-anchor="middle" x="201" y="-56.5" font-family="Ubuntu-R" font-size="10.00" fill="#000000">_git_describe</text>
</a>
</g>
</g>
<!-- Node29&#45;&gt;Node35 -->
<g id="edge7" class="edge">
<title>Node29&#45;&gt;Node35</title>
<path fill="none" stroke="#191970" d="M72.2894,-127.9916C90.4804,-118.0794 120.0207,-102.2424 146,-89.5 149.8139,-87.6294 153.7976,-85.7249 157.8019,-83.8441"/>
<polygon fill="#191970" stroke="#191970" points="159.5135,-86.9085 167.1126,-79.5257 156.5682,-80.5582 159.5135,-86.9085"/>
</g>
<!-- Node36 -->
<g id="node8" class="node">
<title>Node36</title>
<g id="a_node8"><a xlink:href="namespacesrc_1_1__version.html#aefa841fcd557dd2ff3594846803f1e58" target="_top" xlink:title="TAG&#45;DISTANCE&#45;gHEX[&#45;dirty]. ">
<polygon fill="#ffffff" stroke="#000000" points="146,-.5 146,-30.5 256,-30.5 256,-.5 146,-.5"/>
<text text-anchor="start" x="154" y="-18.5" font-family="Ubuntu-R" font-size="10.00" fill="#000000">src._version.render</text>
<text text-anchor="middle" x="201" y="-7.5" font-family="Ubuntu-R" font-size="10.00" fill="#000000">_git_describe_long</text>
</a>
</g>
</g>
<!-- Node29&#45;&gt;Node36 -->
<g id="edge8" class="edge">
<title>Node29&#45;&gt;Node36</title>
<path fill="none" stroke="#191970" d="M62.0209,-127.78C76.1056,-108.8473 109.5924,-66.5999 146,-40.5 148.4775,-38.724 151.1012,-37.029 153.8062,-35.4195"/>
<polygon fill="#191970" stroke="#191970" points="155.5556,-38.452 162.642,-30.5759 152.1907,-32.3138 155.5556,-38.452"/>
</g>
<!-- Node31 -->
<g id="node3" class="node">
<title>Node31</title>
<g id="a_node3"><a xlink:href="namespacesrc_1_1__version.html#a21c3be02b22ff9893ddf1de4b4609066" target="_top" xlink:title="Return a + if we don&#39;t already have one, else return a . ">
<polygon fill="#ffffff" stroke="#000000" points="292,-202 292,-221 426,-221 426,-202 292,-202"/>
<text text-anchor="middle" x="359" y="-209" font-family="Ubuntu-R" font-size="10.00" fill="#000000">src._version.plus_or_dot</text>
</a>
</g>
</g>
<!-- Node30&#45;&gt;Node31 -->
<g id="edge2" class="edge">
<title>Node30&#45;&gt;Node31</title>
<path fill="none" stroke="#191970" d="M249.6944,-245.3986C271.7682,-238.5529 297.5625,-230.5534 318.5489,-224.0449"/>
<polygon fill="#191970" stroke="#191970" points="319.6097,-227.3805 328.1242,-221.0754 317.5362,-220.6946 319.6097,-227.3805"/>
</g>
<!-- Node33&#45;&gt;Node31 -->
<g id="edge5" class="edge">
<title>Node33&#45;&gt;Node31</title>
<path fill="none" stroke="#191970" d="M249.6944,-177.6014C271.7682,-184.4471 297.5625,-192.4466 318.5489,-198.9551"/>
<polygon fill="#191970" stroke="#191970" points="317.5362,-202.3054 328.1242,-201.9246 319.6097,-195.6195 317.5362,-202.3054"/>
</g>
</g>
</svg>
