<?xml version="1.0" encoding="UTF-8" standalone="no"?>
<!DOCTYPE svg PUBLIC "-//W3C//DTD SVG 1.1//EN"
 "http://www.w3.org/Graphics/SVG/1.1/DTD/svg11.dtd">
<!-- Generated by graphviz version 2.28.0 (20111219.2309)
 -->
<!-- Title: G Pages: 1 -->
<svg width="1166pt" height="142pt"
 viewBox="0.00 0.00 1166.00 142.00" xmlns="http://www.w3.org/2000/svg" xmlns:xlink="http://www.w3.org/1999/xlink">
<g id="graph1" class="graph" transform="scale(1 1) rotate(0) translate(4 138)">
<title>G</title>
<polygon fill="white" stroke="white" points="-4,5 -4,-138 1163,-138 1163,5 -4,5"/>
<!-- Node1 -->
<g id="node1" class="node"><title>Node1</title>
<polygon fill="#bfbfbf" stroke="black" points="0,-76.5 0,-95.5 148,-95.5 148,-76.5 0,-76.5"/>
<text text-anchor="middle" x="74" y="-83.5" font-family="Ubuntu-R" font-size="10.00">forcebalance.nifty.isdecimal</text>
</g>
<!-- Node2 -->
<g id="node3" class="node"><title>Node2</title>
<a xlink:href="namespaceforcebalance_1_1nifty.html#a8e3ef0108b9d37b82ba0dced7c6037ae" target="_top" xlink:title="Matches ANY number; it can be a decimal, scientific notation, what have you CAUTION &#45; this will also ...">
<polygon fill="white" stroke="black" points="184.5,-76.5 184.5,-95.5 315.5,-95.5 315.5,-76.5 184.5,-76.5"/>
<text text-anchor="middle" x="250" y="-83.5" font-family="Ubuntu-R" font-size="10.00">forcebalance.nifty.isfloat</text>
</a>
</g>
<!-- Node1&#45;&gt;Node2 -->
<g id="edge2" class="edge"><title>Node1&#45;&gt;Node2</title>
<path fill="none" stroke="midnightblue" d="M148.035,-86C156.725,-86 165.606,-86 174.318,-86"/>
<polygon fill="midnightblue" stroke="midnightblue" points="174.447,-89.5001 184.447,-86 174.447,-82.5001 174.447,-89.5001"/>
</g>
<!-- Node7 -->
<g id="node14" class="node"><title>Node7</title>
<a xlink:href="namespaceforcebalance_1_1nifty.html#afb3f205bce4984856e766af7e9fdaca8" target="_top" xlink:title="Given any list, array, or matrix, return a 1&#45;column matrix.">
<polygon fill="white" stroke="black" points="192,-38.5 192,-57.5 308,-57.5 308,-38.5 192,-38.5"/>
<text text-anchor="middle" x="250" y="-45.5" font-family="Ubuntu-R" font-size="10.00">forcebalance.nifty.col</text>
</a>
</g>
<!-- Node1&#45;&gt;Node7 -->
<g id="edge14" class="edge"><title>Node1&#45;&gt;Node7</title>
<path fill="none" stroke="midnightblue" d="M118.908,-76.411C142.179,-71.3287 170.954,-65.0446 195.519,-59.6797"/>
<polygon fill="midnightblue" stroke="midnightblue" points="196.385,-63.0732 205.408,-57.5201 194.892,-56.2343 196.385,-63.0732"/>
</g>
<!-- Node3 -->
<g id="node5" class="node"><title>Node3</title>
<a xlink:href="namespaceforcebalance_1_1nifty.html#a3f1c7a1af9d35d5d1693074bc6f5497c" target="_top" xlink:title="ONLY matches integers! If you have a decimal point? None shall pass!">
<polygon fill="white" stroke="black" points="367,-114.5 367,-133.5 489,-133.5 489,-114.5 367,-114.5"/>
<text text-anchor="middle" x="428" y="-121.5" font-family="Ubuntu-R" font-size="10.00">forcebalance.nifty.isint</text>
</a>
</g>
<!-- Node2&#45;&gt;Node3 -->
<g id="edge4" class="edge"><title>Node2&#45;&gt;Node3</title>
<path fill="none" stroke="midnightblue" d="M295.412,-95.589C318.951,-100.671 348.057,-106.955 372.905,-112.32"/>
<polygon fill="midnightblue" stroke="midnightblue" points="372.394,-115.791 382.907,-114.48 373.871,-108.948 372.394,-115.791"/>
</g>
<!-- Node4 -->
<g id="node8" class="node"><title>Node4</title>
<a xlink:href="namespaceforcebalance_1_1nifty.html#a8d63c8ae9a67c66673a6cf81357f827d" target="_top" xlink:title="Returns a big number if we encounter NaN.">
<polygon fill="white" stroke="black" points="352,-76.5 352,-95.5 504,-95.5 504,-76.5 352,-76.5"/>
<text text-anchor="middle" x="428" y="-83.5" font-family="Ubuntu-R" font-size="10.00">forcebalance.nifty.floatornan</text>
</a>
</g>
<!-- Node2&#45;&gt;Node4 -->
<g id="edge8" class="edge"><title>Node2&#45;&gt;Node4</title>
<path fill="none" stroke="midnightblue" d="M315.537,-86C323.998,-86 332.772,-86 341.513,-86"/>
<polygon fill="midnightblue" stroke="midnightblue" points="341.738,-89.5001 351.738,-86 341.738,-82.5001 341.738,-89.5001"/>
</g>
<!-- Node3&#45;&gt;Node1 -->
<g id="edge6" class="edge"><title>Node3&#45;&gt;Node1</title>
<path fill="none" stroke="midnightblue" d="M366.922,-120.888C317.646,-117.954 246.137,-112.827 184,-105 167.586,-102.932 149.879,-100.106 133.607,-97.2643"/>
<polygon fill="midnightblue" stroke="midnightblue" points="134.144,-93.8049 123.686,-95.5 132.919,-100.697 134.144,-93.8049"/>
</g>
<!-- Node5 -->
<g id="node10" class="node"><title>Node5</title>
<a xlink:href="namespaceforcebalance_1_1nifty.html#a6c9727360cdff8f3011a12cc54d0e86e" target="_top" xlink:title="Given any list, array, or matrix, return a 1&#45;row matrix.">
<polygon fill="white" stroke="black" points="556.5,-76.5 556.5,-95.5 675.5,-95.5 675.5,-76.5 556.5,-76.5"/>
<text text-anchor="middle" x="616" y="-83.5" font-family="Ubuntu-R" font-size="10.00">forcebalance.nifty.row</text>
</a>
</g>
<!-- Node4&#45;&gt;Node5 -->
<g id="edge10" class="edge"><title>Node4&#45;&gt;Node5</title>
<path fill="none" stroke="midnightblue" d="M504.117,-86C518.017,-86 532.47,-86 546.171,-86"/>
<polygon fill="midnightblue" stroke="midnightblue" points="546.481,-89.5001 556.48,-86 546.48,-82.5001 546.481,-89.5001"/>
</g>
<!-- Node6 -->
<g id="node12" class="node"><title>Node6</title>
<a xlink:href="namespaceforcebalance_1_1nifty.html#a7676236002c6a65ea7d2e69a09923889" target="_top" xlink:title="Given two vectors vec1 and vec2, project out the component of vec1 that is along the vec2&#45;direction...">
<polygon fill="white" stroke="black" points="740,-76.5 740,-95.5 908,-95.5 908,-76.5 740,-76.5"/>
<text text-anchor="middle" x="824" y="-83.5" font-family="Ubuntu-R" font-size="10.00">forcebalance.nifty.orthogonalize</text>
</a>
</g>
<!-- Node5&#45;&gt;Node6 -->
<g id="edge12" class="edge"><title>Node5&#45;&gt;Node6</title>
<path fill="none" stroke="midnightblue" d="M675.756,-86C692.613,-86 711.422,-86 729.811,-86"/>
<polygon fill="midnightblue" stroke="midnightblue" points="729.968,-89.5001 739.968,-86 729.968,-82.5001 729.968,-89.5001"/>
</g>
<!-- Node8 -->
<g id="node16" class="node"><title>Node8</title>
<a xlink:href="namespaceforcebalance_1_1nifty.html#a52114ceee9d55f94d9aecb3e176de294" target="_top" xlink:title="Given any list, array, or matrix, return a single&#45;index array.">
<polygon fill="white" stroke="black" points="369,-0.5 369,-19.5 487,-19.5 487,-0.5 369,-0.5"/>
<text text-anchor="middle" x="428" y="-7.5" font-family="Ubuntu-R" font-size="10.00">forcebalance.nifty.flat</text>
</a>
</g>
<!-- Node7&#45;&gt;Node8 -->
<g id="edge16" class="edge"><title>Node7&#45;&gt;Node8</title>
<path fill="none" stroke="midnightblue" d="M295.412,-38.411C318.951,-33.3287 348.057,-27.0446 372.905,-21.6797"/>
<polygon fill="midnightblue" stroke="midnightblue" points="373.871,-25.0518 382.907,-19.5201 372.394,-18.2094 373.871,-25.0518"/>
</g>
<!-- Node9 -->
<g id="node18" class="node"><title>Node9</title>
<a xlink:href="namespaceforcebalance_1_1nifty.html#a4c82187e92dfeb8a159f4aa44b501c40" target="_top" xlink:title="Invert a matrix using singular value decomposition.">
<polygon fill="white" stroke="black" points="540,-38.5 540,-57.5 692,-57.5 692,-38.5 540,-38.5"/>
<text text-anchor="middle" x="616" y="-45.5" font-family="Ubuntu-R" font-size="10.00">forcebalance.nifty.invert_svd</text>
</a>
</g>
<!-- Node8&#45;&gt;Node9 -->
<g id="edge18" class="edge"><title>Node8&#45;&gt;Node9</title>
<path fill="none" stroke="midnightblue" d="M475.936,-19.589C501.033,-24.7165 532.119,-31.0672 558.53,-36.4632"/>
<polygon fill="midnightblue" stroke="midnightblue" points="557.904,-39.9074 568.402,-38.4799 559.305,-33.049 557.904,-39.9074"/>
</g>
<!-- Node9&#45;&gt;Node7 -->
<g id="edge26" class="edge"><title>Node9&#45;&gt;Node7</title>
<path fill="none" stroke="midnightblue" d="M539.751,-48C474.602,-48 381.225,-48 318.463,-48"/>
<polygon fill="midnightblue" stroke="midnightblue" points="318.275,-44.5001 308.275,-48 318.275,-51.5001 318.275,-44.5001"/>
</g>
<!-- Node10 -->
<g id="node20" class="node"><title>Node10</title>
<a xlink:href="namespaceforcebalance_1_1nifty.html#aa9fb9c7c65231eca50a7afc04f489b64" target="_top" xlink:title="forcebalance.nifty.get_least_squares">
<polygon fill="white" stroke="black" points="728.5,-0.5 728.5,-19.5 919.5,-19.5 919.5,-0.5 728.5,-0.5"/>
<text text-anchor="middle" x="824" y="-7.5" font-family="Ubuntu-R" font-size="10.00">forcebalance.nifty.get_least_squares</text>
</a>
</g>
<!-- Node9&#45;&gt;Node10 -->
<g id="edge20" class="edge"><title>Node9&#45;&gt;Node10</title>
<path fill="none" stroke="midnightblue" d="M668.717,-38.46C696.756,-33.2878 731.602,-26.8599 761.079,-21.4222"/>
<polygon fill="midnightblue" stroke="midnightblue" points="762.063,-24.7999 771.262,-19.5439 760.793,-17.9161 762.063,-24.7999"/>
</g>
<!-- Node12 -->
<g id="node26" class="node"><title>Node12</title>
<a xlink:href="namespaceforcebalance_1_1nifty.html#abb8f59044961a12588e0653c2baa8b01" target="_top" xlink:title="forcebalance.nifty.warn_press_key">
<polygon fill="white" stroke="black" points="734.5,-38.5 734.5,-57.5 913.5,-57.5 913.5,-38.5 734.5,-38.5"/>
<text text-anchor="middle" x="824" y="-45.5" font-family="Ubuntu-R" font-size="10.00">forcebalance.nifty.warn_press_key</text>
</a>
</g>
<!-- Node9&#45;&gt;Node12 -->
<g id="edge28" class="edge"><title>Node9&#45;&gt;Node12</title>
<path fill="none" stroke="midnightblue" d="M692.245,-48C702.61,-48 713.38,-48 724.091,-48"/>
<polygon fill="midnightblue" stroke="midnightblue" points="724.327,-51.5001 734.327,-48 724.327,-44.5001 724.327,-51.5001"/>
</g>
<!-- Node10&#45;&gt;Node8 -->
<g id="edge22" class="edge"><title>Node10&#45;&gt;Node8</title>
<path fill="none" stroke="midnightblue" d="M728.318,-10C657.16,-10 561.348,-10 497.494,-10"/>
<polygon fill="midnightblue" stroke="midnightblue" points="497.136,-6.5001 487.136,-10 497.136,-13.5001 497.136,-6.5001"/>
</g>
<!-- Node11 -->
<g id="node23" class="node"><title>Node11</title>
<a xlink:href="namespaceforcebalance_1_1nifty.html#ad5ca60565c864b4245a8212fe9d92e10" target="_top" xlink:title="Compute the (cross) statistical inefficiency of (two) timeseries.">
<polygon fill="white" stroke="black" points="956.5,-0.5 956.5,-19.5 1157.5,-19.5 1157.5,-0.5 956.5,-0.5"/>
<text text-anchor="middle" x="1057" y="-7.5" font-family="Ubuntu-R" font-size="10.00">forcebalance.nifty.statisticalInefficiency</text>
</a>
</g>
<!-- Node10&#45;&gt;Node11 -->
<g id="edge24" class="edge"><title>Node10&#45;&gt;Node11</title>
<path fill="none" stroke="midnightblue" d="M919.623,-10C928.404,-10 937.352,-10 946.254,-10"/>
<polygon fill="midnightblue" stroke="midnightblue" points="946.274,-13.5001 956.274,-10 946.274,-6.5001 946.274,-13.5001"/>
</g>
</g>
</svg>
