<?xml version="1.0" encoding="UTF-8" standalone="no"?>
<!DOCTYPE svg PUBLIC "-//W3C//DTD SVG 1.1//EN"
 "http://www.w3.org/Graphics/SVG/1.1/DTD/svg11.dtd">
<!-- Generated by graphviz version 2.26.3 (20100126.1600)
 -->
<!-- Title: forcebalance.openmmio.CopySystemParameters Pages: 1 -->
<svg width="376pt" height="94pt"
 viewBox="0.00 0.00 376.00 94.00" xmlns="http://www.w3.org/2000/svg" xmlns:xlink="http://www.w3.org/1999/xlink">
<g id="graph1" class="graph" transform="scale(1 1) rotate(0) translate(4 90)">
<title>forcebalance.openmmio.CopySystemParameters</title>
<polygon fill="white" stroke="white" points="-4,5 -4,-90 373,-90 373,5 -4,5"/>
<!-- Node1 -->
<g id="node1" class="node"><title>Node1</title>
<polygon fill="#bfbfbf" stroke="black" points="0.5,-26 0.5,-60 159.5,-60 159.5,-26 0.5,-26"/>
<text text-anchor="start" x="8.5" y="-47" font-family="Ubuntu-R" font-size="10.00">forcebalance.openmmio.Copy</text>
<text text-anchor="middle" x="80" y="-34" font-family="Ubuntu-R" font-size="10.00">SystemParameters</text>
</g>
<!-- Node2 -->
<g id="node3" class="node"><title>Node2</title>
<a xlink:href="namespaceforcebalance_1_1nifty.html#abb8f59044961a12588e0653c2baa8b01" target="_top" xlink:title="forcebalance.nifty.warn\l_press_key">
<polygon fill="white" stroke="black" points="219.5,-52 219.5,-86 344.5,-86 344.5,-52 219.5,-52"/>
<text text-anchor="start" x="227.5" y="-73" font-family="Ubuntu-R" font-size="10.00">forcebalance.nifty.warn</text>
<text text-anchor="middle" x="282" y="-60" font-family="Ubuntu-R" font-size="10.00">_press_key</text>
</a>
</g>
<!-- Node1&#45;&gt;Node2 -->
<g id="edge2" class="edge"><title>Node1&#45;&gt;Node2</title>
<path fill="none" stroke="midnightblue" d="M159.546,-53.2386C176.003,-55.3568 193.257,-57.5776 209.449,-59.6617"/>
<polygon fill="midnightblue" stroke="midnightblue" points="209.012,-63.1342 219.377,-60.9396 209.905,-56.1915 209.012,-63.1342"/>
</g>
<!-- Node3 -->
<g id="node5" class="node"><title>Node3</title>
<a xlink:href="namespaceforcebalance_1_1openmmio.html#a9f9fc56475dbfcc94a40fef6a84ed25f" target="_top" xlink:title="forcebalance.openmmio.Update\lSimulationParameters">
<polygon fill="white" stroke="black" points="196.5,-0 196.5,-34 367.5,-34 367.5,-0 196.5,-0"/>
<text text-anchor="start" x="204.5" y="-21" font-family="Ubuntu-R" font-size="10.00">forcebalance.openmmio.Update</text>
<text text-anchor="middle" x="282" y="-8" font-family="Ubuntu-R" font-size="10.00">SimulationParameters</text>
</a>
</g>
<!-- Node1&#45;&gt;Node3 -->
<g id="edge4" class="edge"><title>Node1&#45;&gt;Node3</title>
<path fill="none" stroke="midnightblue" d="M159.546,-32.7614C168.289,-31.636 177.258,-30.4817 186.172,-29.3343"/>
<polygon fill="midnightblue" stroke="midnightblue" points="186.728,-32.7917 196.199,-28.0436 185.834,-25.849 186.728,-32.7917"/>
</g>
</g>
</svg>
