<?xml version="1.0" encoding="UTF-8" standalone="no"?>
<!DOCTYPE svg PUBLIC "-//W3C//DTD SVG 1.1//EN"
 "http://www.w3.org/Graphics/SVG/1.1/DTD/svg11.dtd">
<!-- Generated by graphviz version 2.28.0 (20111219.2309)
 -->
<!-- Title: forcebalance.nifty.invert_svd Pages: 1 -->
<svg width="540pt" height="164pt"
 viewBox="0.00 0.00 540.00 164.00" xmlns="http://www.w3.org/2000/svg" xmlns:xlink="http://www.w3.org/1999/xlink">
<g id="graph1" class="graph" transform="scale(1 1) rotate(0) translate(4 160)">
<title>forcebalance.nifty.invert_svd</title>
<polygon fill="white" stroke="white" points="-4,5 -4,-160 537,-160 537,5 -4,5"/>
<!-- Node1 -->
<g id="node1" class="node"><title>Node1</title>
<polygon fill="#bfbfbf" stroke="black" points="0,-76.5 0,-95.5 152,-95.5 152,-76.5 0,-76.5"/>
<text text-anchor="middle" x="76" y="-83.5" font-family="Ubuntu-R" font-size="10.00">forcebalance.nifty.invert_svd</text>
</g>
<!-- Node2 -->
<g id="node3" class="node"><title>Node2</title>
<a xlink:href="namespaceforcebalance_1_1nifty.html#aa9fb9c7c65231eca50a7afc04f489b64" target="_top" xlink:title="forcebalance.nifty.get\l_least_squares">
<polygon fill="white" stroke="black" points="191.5,-49 191.5,-79 310.5,-79 310.5,-49 191.5,-49"/>
<text text-anchor="start" x="199.5" y="-67" font-family="Ubuntu-R" font-size="10.00">forcebalance.nifty.get</text>
<text text-anchor="middle" x="251" y="-56" font-family="Ubuntu-R" font-size="10.00">_least_squares</text>
</a>
</g>
<!-- Node1&#45;&gt;Node2 -->
<g id="edge2" class="edge"><title>Node1&#45;&gt;Node2</title>
<path fill="none" stroke="midnightblue" d="M151.874,-76.4784C161.702,-75.2287 171.733,-73.953 181.448,-72.7175"/>
<polygon fill="midnightblue" stroke="midnightblue" points="181.958,-76.181 191.437,-71.4474 181.075,-69.2369 181.958,-76.181"/>
</g>
<!-- Node5 -->
<g id="node10" class="node"><title>Node5</title>
<a xlink:href="namespaceforcebalance_1_1nifty.html#afb3f205bce4984856e766af7e9fdaca8" target="_top" xlink:title="Given any list, array, or matrix, return a 1&#45;column matrix. ">
<polygon fill="white" stroke="black" points="193,-136.5 193,-155.5 309,-155.5 309,-136.5 193,-136.5"/>
<text text-anchor="middle" x="251" y="-143.5" font-family="Ubuntu-R" font-size="10.00">forcebalance.nifty.col</text>
</a>
</g>
<!-- Node1&#45;&gt;Node5 -->
<g id="edge10" class="edge"><title>Node1&#45;&gt;Node5</title>
<path fill="none" stroke="midnightblue" d="M104.412,-95.5072C133.683,-105.659 180.245,-121.807 212.808,-133.101"/>
<polygon fill="midnightblue" stroke="midnightblue" points="211.835,-136.468 222.43,-136.438 214.129,-129.855 211.835,-136.468"/>
</g>
<!-- Node6 -->
<g id="node13" class="node"><title>Node6</title>
<a xlink:href="namespaceforcebalance_1_1nifty.html#abb8f59044961a12588e0653c2baa8b01" target="_top" xlink:title="forcebalance.nifty.warn\l_press_key">
<polygon fill="white" stroke="black" points="188.5,-0 188.5,-30 313.5,-30 313.5,-0 188.5,-0"/>
<text text-anchor="start" x="196.5" y="-18" font-family="Ubuntu-R" font-size="10.00">forcebalance.nifty.warn</text>
<text text-anchor="middle" x="251" y="-7" font-family="Ubuntu-R" font-size="10.00">_press_key</text>
</a>
</g>
<!-- Node1&#45;&gt;Node6 -->
<g id="edge14" class="edge"><title>Node1&#45;&gt;Node6</title>
<path fill="none" stroke="midnightblue" d="M99.0289,-76.4331C121.366,-66.7891 156.967,-51.573 188,-39 192.205,-37.2962 196.581,-35.5497 200.976,-33.8138"/>
<polygon fill="midnightblue" stroke="midnightblue" points="202.537,-36.9611 210.569,-30.0512 199.981,-30.4445 202.537,-36.9611"/>
</g>
<!-- Node3 -->
<g id="node5" class="node"><title>Node3</title>
<a xlink:href="namespaceforcebalance_1_1nifty.html#a52114ceee9d55f94d9aecb3e176de294" target="_top" xlink:title="Given any list, array, or matrix, return a single&#45;index array. ">
<polygon fill="white" stroke="black" points="382,-98.5 382,-117.5 500,-117.5 500,-98.5 382,-98.5"/>
<text text-anchor="middle" x="441" y="-105.5" font-family="Ubuntu-R" font-size="10.00">forcebalance.nifty.flat</text>
</a>
</g>
<!-- Node2&#45;&gt;Node3 -->
<g id="edge4" class="edge"><title>Node2&#45;&gt;Node3</title>
<path fill="none" stroke="midnightblue" d="M310.509,-78.5467C323.498,-81.7154 337.207,-85.0124 350,-88 361.69,-90.73 374.255,-93.577 386.179,-96.2381"/>
<polygon fill="midnightblue" stroke="midnightblue" points="385.491,-99.6704 396.012,-98.4231 387.009,-92.8371 385.491,-99.6704"/>
</g>
<!-- Node4 -->
<g id="node8" class="node"><title>Node4</title>
<a xlink:href="namespaceforcebalance_1_1nifty.html#ad5ca60565c864b4245a8212fe9d92e10" target="_top" xlink:title="Compute the (cross) statistical inefficiency of (two) timeseries. ">
<polygon fill="white" stroke="black" points="366.5,-49 366.5,-79 515.5,-79 515.5,-49 366.5,-49"/>
<text text-anchor="start" x="374.5" y="-67" font-family="Ubuntu-R" font-size="10.00">forcebalance.nifty.statistical</text>
<text text-anchor="middle" x="441" y="-56" font-family="Ubuntu-R" font-size="10.00">Inefficiency</text>
</a>
</g>
<!-- Node2&#45;&gt;Node4 -->
<g id="edge8" class="edge"><title>Node2&#45;&gt;Node4</title>
<path fill="none" stroke="midnightblue" d="M310.711,-64C325.205,-64 341.008,-64 356.433,-64"/>
<polygon fill="midnightblue" stroke="midnightblue" points="356.496,-67.5001 366.496,-64 356.496,-60.5001 356.496,-67.5001"/>
</g>
<!-- Node3&#45;&gt;Node1 -->
<g id="edge6" class="edge"><title>Node3&#45;&gt;Node1</title>
<path fill="none" stroke="midnightblue" d="M381.887,-104.478C322.623,-100.886 230.027,-95.2743 162.42,-91.177"/>
<polygon fill="midnightblue" stroke="midnightblue" points="162.407,-87.6699 152.214,-90.5584 161.984,-94.657 162.407,-87.6699"/>
</g>
<!-- Node5&#45;&gt;Node3 -->
<g id="edge12" class="edge"><title>Node5&#45;&gt;Node3</title>
<path fill="none" stroke="midnightblue" d="M299.44,-136.411C324.808,-131.284 356.227,-124.933 382.923,-119.537"/>
<polygon fill="midnightblue" stroke="midnightblue" points="383.792,-122.932 392.901,-117.52 382.406,-116.071 383.792,-122.932"/>
</g>
<!-- Node7 -->
<g id="node15" class="node"><title>Node7</title>
<a xlink:href="namespaceforcebalance_1_1nifty.html#a2fc81730e7efa7d138dd86f733507bfc" target="_top" xlink:title="Similar to the bultin function map(). ">
<polygon fill="white" stroke="black" points="350,-5.5 350,-24.5 532,-24.5 532,-5.5 350,-5.5"/>
<text text-anchor="middle" x="441" y="-12.5" font-family="Ubuntu-R" font-size="10.00">forcebalance.nifty.concurrent_map</text>
</a>
</g>
<!-- Node6&#45;&gt;Node7 -->
<g id="edge16" class="edge"><title>Node6&#45;&gt;Node7</title>
<path fill="none" stroke="midnightblue" d="M313.558,-15C321.961,-15 330.758,-15 339.632,-15"/>
<polygon fill="midnightblue" stroke="midnightblue" points="339.665,-18.5001 349.665,-15 339.665,-11.5001 339.665,-18.5001"/>
</g>
</g>
</svg>
