<?xml version="1.0" encoding="UTF-8" standalone="no"?>
<!DOCTYPE svg PUBLIC "-//W3C//DTD SVG 1.1//EN"
 "http://www.w3.org/Graphics/SVG/1.1/DTD/svg11.dtd">
<!-- Generated by graphviz version 2.32.0 (20130801.1845)
 -->
<!-- Title: forcebalance.nifty.segments Pages: 1 -->
<svg width="2000pt" height="153pt"
 viewBox="0.00 0.00 2000.00 153.00" xmlns="http://www.w3.org/2000/svg" xmlns:xlink="http://www.w3.org/1999/xlink">
<g id="graph0" class="graph" transform="scale(1 1) rotate(0) translate(4 149)">
<title>forcebalance.nifty.segments</title>
<polygon fill="white" stroke="white" points="-4,5 -4,-149 1997,-149 1997,5 -4,5"/>
<!-- Node1 -->
<g id="node1" class="node"><title>Node1</title>
<polygon fill="#bfbfbf" stroke="black" points="-0.086,-86 -0.086,-106 128.086,-106 128.086,-86 -0.086,-86"/>
<text text-anchor="middle" x="64" y="-93" font-family="Ubuntu-R" font-size="10.00">forcebalance.nifty.segments</text>
</g>
<!-- Node2 -->
<g id="node2" class="node"><title>Node2</title>
<g id="a_node2"><a xlink:href="namespaceforcebalance_1_1nifty.html#a9628ee448710667747d8aa5dc166532c" target="_top" xlink:title="forcebalance.nifty.commadash">
<polygon fill="white" stroke="black" points="164.639,-86 164.639,-106 303.361,-106 303.361,-86 164.639,-86"/>
<text text-anchor="middle" x="234" y="-93" font-family="Ubuntu-R" font-size="10.00">forcebalance.nifty.commadash</text>
</a>
</g>
</g>
<!-- Node1&#45;&gt;Node2 -->
<g id="edge1" class="edge"><title>Node1&#45;&gt;Node2</title>
<path fill="none" stroke="midnightblue" d="M128.514,-89.4317C136.995,-89.2785 145.774,-89.2222 154.474,-89.2628"/>
<polygon fill="midnightblue" stroke="midnightblue" points="154.597,-92.7639 164.628,-89.3549 154.66,-85.7642 154.597,-92.7639"/>
</g>
<!-- Node2&#45;&gt;Node1 -->
<g id="edge2" class="edge"><title>Node2&#45;&gt;Node1</title>
<path fill="none" stroke="midnightblue" d="M164.628,-102.645C156.047,-102.762 147.241,-102.781 138.584,-102.704"/>
<polygon fill="midnightblue" stroke="midnightblue" points="138.56,-99.2031 128.514,-102.568 138.466,-106.202 138.56,-99.2031"/>
</g>
<!-- Node3 -->
<g id="node3" class="node"><title>Node3</title>
<g id="a_node3"><a xlink:href="namespaceforcebalance_1_1nifty.html#a3b437964dc22735bf8a7dcbaf99e413d" target="_top" xlink:title="forcebalance.nifty.encode">
<polygon fill="white" stroke="black" points="355.363,-125 355.363,-145 474.637,-145 474.637,-125 355.363,-125"/>
<text text-anchor="middle" x="415" y="-132" font-family="Ubuntu-R" font-size="10.00">forcebalance.nifty.encode</text>
</a>
</g>
</g>
<!-- Node2&#45;&gt;Node3 -->
<g id="edge3" class="edge"><title>Node2&#45;&gt;Node3</title>
<path fill="none" stroke="midnightblue" d="M281.097,-106.043C304.586,-111.161 333.338,-117.426 358.083,-122.817"/>
<polygon fill="midnightblue" stroke="midnightblue" points="357.543,-126.281 368.059,-124.991 359.034,-119.442 357.543,-126.281"/>
</g>
<!-- Node4 -->
<g id="node4" class="node"><title>Node4</title>
<g id="a_node4"><a xlink:href="namespaceforcebalance_1_1nifty.html#afa670d68f01813ac8d429bc5cbdb4f9f" target="_top" xlink:title="forcebalance.nifty.uncommadash">
<polygon fill="white" stroke="black" points="340.639,-86 340.639,-106 489.361,-106 489.361,-86 340.639,-86"/>
<text text-anchor="middle" x="415" y="-93" font-family="Ubuntu-R" font-size="10.00">forcebalance.nifty.uncommadash</text>
</a>
</g>
</g>
<!-- Node2&#45;&gt;Node4 -->
<g id="edge5" class="edge"><title>Node2&#45;&gt;Node4</title>
<path fill="none" stroke="midnightblue" d="M303.438,-96C312.259,-96 321.368,-96 330.397,-96"/>
<polygon fill="midnightblue" stroke="midnightblue" points="330.538,-99.5001 340.538,-96 330.538,-92.5001 330.538,-99.5001"/>
</g>
<!-- Node3&#45;&gt;Node1 -->
<g id="edge4" class="edge"><title>Node3&#45;&gt;Node1</title>
<path fill="none" stroke="midnightblue" d="M355.21,-132.123C304.424,-129.202 229.152,-123.831 164,-115 150.184,-113.127 135.38,-110.58 121.541,-107.96"/>
<polygon fill="midnightblue" stroke="midnightblue" points="122.145,-104.512 111.662,-106.047 120.814,-111.384 122.145,-104.512"/>
</g>
<!-- Node5 -->
<g id="node5" class="node"><title>Node5</title>
<g id="a_node5"><a xlink:href="namespaceforcebalance_1_1nifty.html#a11babd62dc7bca389162c6318f9672ca" target="_top" xlink:title="Cool&#45;looking printout for slick formatting of output.">
<polygon fill="white" stroke="black" points="526.468,-86 526.468,-106 653.532,-106 653.532,-86 526.468,-86"/>
<text text-anchor="middle" x="590" y="-93" font-family="Ubuntu-R" font-size="10.00">forcebalance.nifty.printcool</text>
</a>
</g>
</g>
<!-- Node4&#45;&gt;Node5 -->
<g id="edge6" class="edge"><title>Node4&#45;&gt;Node5</title>
<path fill="none" stroke="midnightblue" d="M489.368,-96C498.334,-96 507.492,-96 516.446,-96"/>
<polygon fill="midnightblue" stroke="midnightblue" points="516.448,-99.5001 526.448,-96 516.447,-92.5001 516.448,-99.5001"/>
</g>
<!-- Node6 -->
<g id="node6" class="node"><title>Node6</title>
<g id="a_node6"><a xlink:href="namespaceforcebalance_1_1nifty.html#abb8f59044961a12588e0653c2baa8b01" target="_top" xlink:title="forcebalance.nifty.warn\l_press_key">
<polygon fill="white" stroke="black" points="1671.53,-105 1671.53,-137 1782.47,-137 1782.47,-105 1671.53,-105"/>
<text text-anchor="start" x="1679.53" y="-124" font-family="Ubuntu-R" font-size="10.00">forcebalance.nifty.warn</text>
<text text-anchor="middle" x="1727" y="-112" font-family="Ubuntu-R" font-size="10.00">_press_key</text>
</a>
</g>
</g>
<!-- Node5&#45;&gt;Node6 -->
<g id="edge7" class="edge"><title>Node5&#45;&gt;Node6</title>
<path fill="none" stroke="midnightblue" d="M653.775,-105.809C717.413,-114.891 818.801,-127 907,-127 907,-127 907,-127 1383,-127 1479.87,-127 1592.11,-124.578 1661.08,-122.812"/>
<polygon fill="midnightblue" stroke="midnightblue" points="1661.45,-126.303 1671.35,-122.545 1661.26,-119.306 1661.45,-126.303"/>
</g>
<!-- Node8 -->
<g id="node8" class="node"><title>Node8</title>
<g id="a_node8"><a xlink:href="namespaceforcebalance_1_1nifty.html#a51180e960742cc7547749fdfb3513ec4" target="_top" xlink:title="See documentation for printcool; this is a nice way to print out keys/values in a dictionary...">
<polygon fill="white" stroke="black" points="690.468,-50 690.468,-82 817.532,-82 817.532,-50 690.468,-50"/>
<text text-anchor="start" x="698.468" y="-69" font-family="Ubuntu-R" font-size="10.00">forcebalance.nifty.printcool</text>
<text text-anchor="middle" x="754" y="-57" font-family="Ubuntu-R" font-size="10.00">_dictionary</text>
</a>
</g>
</g>
<!-- Node5&#45;&gt;Node8 -->
<g id="edge9" class="edge"><title>Node5&#45;&gt;Node8</title>
<path fill="none" stroke="midnightblue" d="M645.394,-85.927C656.669,-83.8391 668.717,-81.608 680.521,-79.422"/>
<polygon fill="midnightblue" stroke="midnightblue" points="681.161,-82.8631 690.357,-77.6006 679.886,-75.9801 681.161,-82.8631"/>
</g>
<!-- Node7 -->
<g id="node7" class="node"><title>Node7</title>
<g id="a_node7"><a xlink:href="namespaceforcebalance_1_1nifty.html#a2fc81730e7efa7d138dd86f733507bfc" target="_top" xlink:title="Similar to the bultin function map().">
<polygon fill="white" stroke="black" points="1836.04,-111 1836.04,-131 1991.96,-131 1991.96,-111 1836.04,-111"/>
<text text-anchor="middle" x="1914" y="-118" font-family="Ubuntu-R" font-size="10.00">forcebalance.nifty.concurrent_map</text>
</a>
</g>
</g>
<!-- Node6&#45;&gt;Node7 -->
<g id="edge8" class="edge"><title>Node6&#45;&gt;Node7</title>
<path fill="none" stroke="midnightblue" d="M1782.51,-121C1796.1,-121 1811.02,-121 1825.77,-121"/>
<polygon fill="midnightblue" stroke="midnightblue" points="1825.92,-124.5 1835.92,-121 1825.92,-117.5 1825.92,-124.5"/>
</g>
<!-- Node9 -->
<g id="node9" class="node"><title>Node9</title>
<g id="a_node9"><a xlink:href="namespaceforcebalance_1_1nifty.html#a3f1c7a1af9d35d5d1693074bc6f5497c" target="_top" xlink:title="ONLY matches integers! If you have a decimal point? None shall pass!">
<polygon fill="white" stroke="black" points="853.908,-56 853.908,-76 962.092,-76 962.092,-56 853.908,-56"/>
<text text-anchor="middle" x="908" y="-63" font-family="Ubuntu-R" font-size="10.00">forcebalance.nifty.isint</text>
</a>
</g>
</g>
<!-- Node8&#45;&gt;Node9 -->
<g id="edge10" class="edge"><title>Node8&#45;&gt;Node9</title>
<path fill="none" stroke="midnightblue" d="M817.702,-66C826.19,-66 834.907,-66 843.41,-66"/>
<polygon fill="midnightblue" stroke="midnightblue" points="843.648,-69.5001 853.648,-66 843.648,-62.5001 843.648,-69.5001"/>
</g>
<!-- Node11 -->
<g id="node11" class="node"><title>Node11</title>
<g id="a_node11"><a xlink:href="namespaceforcebalance_1_1nifty.html#a8e3ef0108b9d37b82ba0dced7c6037ae" target="_top" xlink:title="Matches ANY number; it can be a decimal, scientific notation, what have you CAUTION &#45; this will also ...">
<polygon fill="white" stroke="black" points="1164.02,-20 1164.02,-40 1279.98,-40 1279.98,-20 1164.02,-20"/>
<text text-anchor="middle" x="1222" y="-27" font-family="Ubuntu-R" font-size="10.00">forcebalance.nifty.isfloat</text>
</a>
</g>
</g>
<!-- Node8&#45;&gt;Node11 -->
<g id="edge25" class="edge"><title>Node8&#45;&gt;Node11</title>
<path fill="none" stroke="midnightblue" d="M817.62,-51.9352C829.644,-49.6365 842.173,-47.5152 854,-46 958.068,-32.6676 1079.94,-29.8632 1153.76,-29.5615"/>
<polygon fill="midnightblue" stroke="midnightblue" points="1153.86,-33.0614 1163.85,-29.5347 1153.84,-26.0614 1153.86,-33.0614"/>
</g>
<!-- Node10 -->
<g id="node10" class="node"><title>Node10</title>
<g id="a_node10"><a xlink:href="namespaceforcebalance_1_1nifty.html#a09263927eaec9deff283fbf1a820242f" target="_top" xlink:title="Matches things with a decimal only; see isint and isfloat.">
<polygon fill="white" stroke="black" points="998.36,-78 998.36,-98 1127.64,-98 1127.64,-78 998.36,-78"/>
<text text-anchor="middle" x="1063" y="-85" font-family="Ubuntu-R" font-size="10.00">forcebalance.nifty.isdecimal</text>
</a>
</g>
</g>
<!-- Node9&#45;&gt;Node10 -->
<g id="edge11" class="edge"><title>Node9&#45;&gt;Node10</title>
<path fill="none" stroke="midnightblue" d="M962.512,-73.6945C970.812,-74.8879 979.509,-76.1386 988.161,-77.3827"/>
<polygon fill="midnightblue" stroke="midnightblue" points="987.874,-80.8773 998.271,-78.8363 988.871,-73.9486 987.874,-80.8773"/>
</g>
<!-- Node10&#45;&gt;Node11 -->
<g id="edge12" class="edge"><title>Node10&#45;&gt;Node11</title>
<path fill="none" stroke="midnightblue" d="M1091.35,-77.8972C1117.05,-68.4035 1155.7,-54.124 1184.12,-43.6258"/>
<polygon fill="midnightblue" stroke="midnightblue" points="1185.54,-46.8327 1193.7,-40.0842 1183.11,-40.2665 1185.54,-46.8327"/>
</g>
<!-- Node15 -->
<g id="node15" class="node"><title>Node15</title>
<g id="a_node15"><a xlink:href="namespaceforcebalance_1_1nifty.html#afb3f205bce4984856e766af7e9fdaca8" target="_top" xlink:title="Given any list, array, or matrix, return a 1&#45;column matrix.">
<polygon fill="white" stroke="black" points="1170.41,-78 1170.41,-98 1273.59,-98 1273.59,-78 1170.41,-78"/>
<text text-anchor="middle" x="1222" y="-85" font-family="Ubuntu-R" font-size="10.00">forcebalance.nifty.col</text>
</a>
</g>
</g>
<!-- Node10&#45;&gt;Node15 -->
<g id="edge17" class="edge"><title>Node10&#45;&gt;Node15</title>
<path fill="none" stroke="midnightblue" d="M1127.86,-88C1138.43,-88 1149.36,-88 1159.86,-88"/>
<polygon fill="midnightblue" stroke="midnightblue" points="1160.19,-91.5001 1170.19,-88 1160.19,-84.5001 1160.19,-91.5001"/>
</g>
<!-- Node11&#45;&gt;Node9 -->
<g id="edge13" class="edge"><title>Node11&#45;&gt;Node9</title>
<path fill="none" stroke="midnightblue" d="M1163.98,-36.5794C1109.85,-42.8255 1028.63,-52.1971 972.463,-58.6773"/>
<polygon fill="midnightblue" stroke="midnightblue" points="971.813,-55.229 962.28,-59.8523 972.616,-62.1829 971.813,-55.229"/>
</g>
<!-- Node12 -->
<g id="node12" class="node"><title>Node12</title>
<g id="a_node12"><a xlink:href="namespaceforcebalance_1_1nifty.html#a8d63c8ae9a67c66673a6cf81357f827d" target="_top" xlink:title="Returns a big number if we encounter NaN.">
<polygon fill="white" stroke="black" points="1315.97,-0 1315.97,-20 1448.03,-20 1448.03,-0 1315.97,-0"/>
<text text-anchor="middle" x="1382" y="-7" font-family="Ubuntu-R" font-size="10.00">forcebalance.nifty.floatornan</text>
</a>
</g>
</g>
<!-- Node11&#45;&gt;Node12 -->
<g id="edge14" class="edge"><title>Node11&#45;&gt;Node12</title>
<path fill="none" stroke="midnightblue" d="M1280.04,-22.7795C1288.36,-21.726 1297.04,-20.6278 1305.66,-19.5369"/>
<polygon fill="midnightblue" stroke="midnightblue" points="1306.24,-22.9911 1315.72,-18.2629 1305.36,-16.0465 1306.24,-22.9911"/>
</g>
<!-- Node13 -->
<g id="node13" class="node"><title>Node13</title>
<g id="a_node13"><a xlink:href="namespaceforcebalance_1_1nifty.html#a6c9727360cdff8f3011a12cc54d0e86e" target="_top" xlink:title="Given any list, array, or matrix, return a 1&#45;row matrix.">
<polygon fill="white" stroke="black" points="1497.75,-0 1497.75,-20 1604.25,-20 1604.25,-0 1497.75,-0"/>
<text text-anchor="middle" x="1551" y="-7" font-family="Ubuntu-R" font-size="10.00">forcebalance.nifty.row</text>
</a>
</g>
</g>
<!-- Node12&#45;&gt;Node13 -->
<g id="edge15" class="edge"><title>Node12&#45;&gt;Node13</title>
<path fill="none" stroke="midnightblue" d="M1448.04,-10C1460.98,-10 1474.54,-10 1487.39,-10"/>
<polygon fill="midnightblue" stroke="midnightblue" points="1487.52,-13.5001 1497.52,-10 1487.52,-6.5001 1487.52,-13.5001"/>
</g>
<!-- Node14 -->
<g id="node14" class="node"><title>Node14</title>
<g id="a_node14"><a xlink:href="namespaceforcebalance_1_1nifty.html#a7676236002c6a65ea7d2e69a09923889" target="_top" xlink:title="Given two vectors vec1 and vec2, project out the component of vec1 that is along the vec2&#45;direction...">
<polygon fill="white" stroke="black" points="1654.03,-0 1654.03,-20 1799.97,-20 1799.97,-0 1654.03,-0"/>
<text text-anchor="middle" x="1727" y="-7" font-family="Ubuntu-R" font-size="10.00">forcebalance.nifty.orthogonalize</text>
</a>
</g>
</g>
<!-- Node13&#45;&gt;Node14 -->
<g id="edge16" class="edge"><title>Node13&#45;&gt;Node14</title>
<path fill="none" stroke="midnightblue" d="M1604.68,-10C1617.03,-10 1630.49,-10 1643.79,-10"/>
<polygon fill="midnightblue" stroke="midnightblue" points="1643.92,-13.5001 1653.92,-10 1643.92,-6.5001 1643.92,-13.5001"/>
</g>
<!-- Node16 -->
<g id="node16" class="node"><title>Node16</title>
<g id="a_node16"><a xlink:href="namespaceforcebalance_1_1nifty.html#a52114ceee9d55f94d9aecb3e176de294" target="_top" xlink:title="Given any list, array, or matrix, return a single&#45;index array.">
<polygon fill="white" stroke="black" points="1329.86,-39 1329.86,-59 1434.14,-59 1434.14,-39 1329.86,-39"/>
<text text-anchor="middle" x="1382" y="-46" font-family="Ubuntu-R" font-size="10.00">forcebalance.nifty.flat</text>
</a>
</g>
</g>
<!-- Node15&#45;&gt;Node16 -->
<g id="edge18" class="edge"><title>Node15&#45;&gt;Node16</title>
<path fill="none" stroke="midnightblue" d="M1263.69,-77.9565C1284.05,-72.9298 1308.9,-66.7968 1330.48,-61.4713"/>
<polygon fill="midnightblue" stroke="midnightblue" points="1331.58,-64.804 1340.45,-59.0094 1329.9,-58.0079 1331.58,-64.804"/>
</g>
<!-- Node17 -->
<g id="node17" class="node"><title>Node17</title>
<g id="a_node17"><a xlink:href="namespaceforcebalance_1_1nifty.html#a4c82187e92dfeb8a159f4aa44b501c40" target="_top" xlink:title="Invert a matrix using singular value decomposition.">
<polygon fill="white" stroke="black" points="1484.41,-78 1484.41,-98 1617.59,-98 1617.59,-78 1484.41,-78"/>
<text text-anchor="middle" x="1551" y="-85" font-family="Ubuntu-R" font-size="10.00">forcebalance.nifty.invert_svd</text>
</a>
</g>
</g>
<!-- Node16&#45;&gt;Node17 -->
<g id="edge19" class="edge"><title>Node16&#45;&gt;Node17</title>
<path fill="none" stroke="midnightblue" d="M1426.01,-59.0435C1447.73,-64.1157 1474.27,-70.3143 1497.22,-75.6731"/>
<polygon fill="midnightblue" stroke="midnightblue" points="1496.61,-79.1246 1507.14,-77.9906 1498.2,-72.3081 1496.61,-79.1246"/>
</g>
<!-- Node17&#45;&gt;Node6 -->
<g id="edge24" class="edge"><title>Node17&#45;&gt;Node6</title>
<path fill="none" stroke="midnightblue" d="M1605.15,-98.0804C1622.94,-101.454 1642.97,-105.253 1661.53,-108.773"/>
<polygon fill="midnightblue" stroke="midnightblue" points="1660.89,-112.215 1671.37,-110.639 1662.2,-105.337 1660.89,-112.215"/>
</g>
<!-- Node17&#45;&gt;Node15 -->
<g id="edge23" class="edge"><title>Node17&#45;&gt;Node15</title>
<path fill="none" stroke="midnightblue" d="M1484.17,-88C1425.72,-88 1340.98,-88 1284.03,-88"/>
<polygon fill="midnightblue" stroke="midnightblue" points="1283.73,-84.5001 1273.73,-88 1283.73,-91.5001 1283.73,-84.5001"/>
</g>
<!-- Node18 -->
<g id="node18" class="node"><title>Node18</title>
<g id="a_node18"><a xlink:href="namespaceforcebalance_1_1nifty.html#aa9fb9c7c65231eca50a7afc04f489b64" target="_top" xlink:title="forcebalance.nifty.get\l_least_squares">
<polygon fill="white" stroke="black" points="1675.41,-49 1675.41,-81 1778.59,-81 1778.59,-49 1675.41,-49"/>
<text text-anchor="start" x="1683.41" y="-68" font-family="Ubuntu-R" font-size="10.00">forcebalance.nifty.get</text>
<text text-anchor="middle" x="1727" y="-56" font-family="Ubuntu-R" font-size="10.00">_least_squares</text>
</a>
</g>
</g>
<!-- Node17&#45;&gt;Node18 -->
<g id="edge20" class="edge"><title>Node17&#45;&gt;Node18</title>
<path fill="none" stroke="midnightblue" d="M1617.78,-79.3047C1633.26,-77.2582 1649.7,-75.0855 1664.96,-73.0679"/>
<polygon fill="midnightblue" stroke="midnightblue" points="1665.86,-76.4797 1675.32,-71.6994 1664.95,-69.5401 1665.86,-76.4797"/>
</g>
<!-- Node18&#45;&gt;Node16 -->
<g id="edge21" class="edge"><title>Node18&#45;&gt;Node16</title>
<path fill="none" stroke="midnightblue" d="M1675.14,-62.6275C1613.72,-59.7622 1510.46,-54.9457 1444.59,-51.873"/>
<polygon fill="midnightblue" stroke="midnightblue" points="1444.5,-48.3652 1434.35,-51.3954 1444.18,-55.3576 1444.5,-48.3652"/>
</g>
<!-- Node19 -->
<g id="node19" class="node"><title>Node19</title>
<g id="a_node19"><a xlink:href="namespaceforcebalance_1_1nifty.html#ad5ca60565c864b4245a8212fe9d92e10" target="_top" xlink:title="Compute the (cross) statistical inefficiency of (two) timeseries.">
<polygon fill="white" stroke="black" points="1849.64,-49 1849.64,-81 1978.36,-81 1978.36,-49 1849.64,-49"/>
<text text-anchor="start" x="1857.64" y="-68" font-family="Ubuntu-R" font-size="10.00">forcebalance.nifty.statistical</text>
<text text-anchor="middle" x="1914" y="-56" font-family="Ubuntu-R" font-size="10.00">Inefficiency</text>
</a>
</g>
</g>
<!-- Node18&#45;&gt;Node19 -->
<g id="edge22" class="edge"><title>Node18&#45;&gt;Node19</title>
<path fill="none" stroke="midnightblue" d="M1779.04,-65C1797.71,-65 1819.21,-65 1839.45,-65"/>
<polygon fill="midnightblue" stroke="midnightblue" points="1839.58,-68.5001 1849.58,-65 1839.58,-61.5001 1839.58,-68.5001"/>
</g>
</g>
</svg>
