<?xml version="1.0" encoding="UTF-8" standalone="no"?>
<!DOCTYPE svg PUBLIC "-//W3C//DTD SVG 1.1//EN"
 "http://www.w3.org/Graphics/SVG/1.1/DTD/svg11.dtd">
<!-- Generated by graphviz version 2.32.0 (20130801.1845)
 -->
<!-- Title: forcebalance.finite_difference.f1d5p Pages: 1 -->
<svg width="754pt" height="142pt"
 viewBox="0.00 0.00 754.00 142.00" xmlns="http://www.w3.org/2000/svg" xmlns:xlink="http://www.w3.org/1999/xlink">
<g id="graph0" class="graph" transform="scale(1 1) rotate(0) translate(4 138)">
<title>forcebalance.finite_difference.f1d5p</title>
<polygon fill="white" stroke="white" points="-4,5 -4,-138 751,-138 751,5 -4,5"/>
<!-- Node1 -->
<g id="node1" class="node"><title>Node1</title>
<polygon fill="#bfbfbf" stroke="black" points="0.662,-76 0.662,-108 91.338,-108 91.338,-76 0.662,-76"/>
<text text-anchor="start" x="8.662" y="-95" font-family="Ubuntu-R" font-size="10.00">forcebalance.finite</text>
<text text-anchor="middle" x="46" y="-83" font-family="Ubuntu-R" font-size="10.00">_difference.f1d5p</text>
</g>
<!-- Node2 -->
<g id="node2" class="node"><title>Node2</title>
<g id="a_node2"><a xlink:href="namespaceforcebalance_1_1finite__difference.html#a9be9f0d21300958092e380514e2e980d" target="_top" xlink:title="A highly accurate seven&#45;point finite difference stencil for computing derivatives of a function...">
<polygon fill="white" stroke="black" points="128.662,-76 128.662,-108 219.338,-108 219.338,-76 128.662,-76"/>
<text text-anchor="start" x="136.662" y="-95" font-family="Ubuntu-R" font-size="10.00">forcebalance.finite</text>
<text text-anchor="middle" x="174" y="-83" font-family="Ubuntu-R" font-size="10.00">_difference.f1d7p</text>
</a>
</g>
</g>
<!-- Node1&#45;&gt;Node2 -->
<g id="edge1" class="edge"><title>Node1&#45;&gt;Node2</title>
<path fill="none" stroke="midnightblue" d="M91.4229,-92C100.174,-92 109.451,-92 118.49,-92"/>
<polygon fill="midnightblue" stroke="midnightblue" points="118.554,-95.5001 128.554,-92 118.554,-88.5001 118.554,-95.5001"/>
</g>
<!-- Node3 -->
<g id="node3" class="node"><title>Node3</title>
<g id="a_node3"><a xlink:href="namespaceforcebalance_1_1finite__difference.html#acc281f85b668062745f711d9b4a610fa" target="_top" xlink:title="forcebalance.finite\l_difference.f12d7p">
<polygon fill="white" stroke="black" points="255.825,-76 255.825,-108 348.175,-108 348.175,-76 255.825,-76"/>
<text text-anchor="start" x="263.825" y="-95" font-family="Ubuntu-R" font-size="10.00">forcebalance.finite</text>
<text text-anchor="middle" x="302" y="-83" font-family="Ubuntu-R" font-size="10.00">_difference.f12d7p</text>
</a>
</g>
</g>
<!-- Node2&#45;&gt;Node3 -->
<g id="edge2" class="edge"><title>Node2&#45;&gt;Node3</title>
<path fill="none" stroke="midnightblue" d="M219.423,-92C227.876,-92 236.82,-92 245.566,-92"/>
<polygon fill="midnightblue" stroke="midnightblue" points="245.702,-95.5001 255.702,-92 245.702,-88.5001 245.702,-95.5001"/>
</g>
<!-- Node4 -->
<g id="node4" class="node"><title>Node4</title>
<g id="a_node4"><a xlink:href="namespaceforcebalance_1_1finite__difference.html#aa69a8819e4680091f400303c1d6ddeb7" target="_top" xlink:title="A three&#45;point finite difference stencil.">
<polygon fill="white" stroke="black" points="383.825,-76 383.825,-108 476.175,-108 476.175,-76 383.825,-76"/>
<text text-anchor="start" x="391.825" y="-95" font-family="Ubuntu-R" font-size="10.00">forcebalance.finite</text>
<text text-anchor="middle" x="430" y="-83" font-family="Ubuntu-R" font-size="10.00">_difference.f12d3p</text>
</a>
</g>
</g>
<!-- Node3&#45;&gt;Node4 -->
<g id="edge3" class="edge"><title>Node3&#45;&gt;Node4</title>
<path fill="none" stroke="midnightblue" d="M348.489,-92C356.607,-92 365.147,-92 373.508,-92"/>
<polygon fill="midnightblue" stroke="midnightblue" points="373.578,-95.5001 383.578,-92 373.578,-88.5001 373.578,-95.5001"/>
</g>
<!-- Node5 -->
<g id="node5" class="node"><title>Node5</title>
<g id="a_node5"><a xlink:href="namespaceforcebalance_1_1finite__difference.html#ad84d3e385db1190e7d8ef58bc08a6c52" target="_top" xlink:title="Invoking this function from anywhere will tell us whether we&#39;re being called by a finite&#45;difference f...">
<polygon fill="white" stroke="black" points="512.662,-102 512.662,-134 603.338,-134 603.338,-102 512.662,-102"/>
<text text-anchor="start" x="520.662" y="-121" font-family="Ubuntu-R" font-size="10.00">forcebalance.finite</text>
<text text-anchor="middle" x="558" y="-109" font-family="Ubuntu-R" font-size="10.00">_difference.in_fd</text>
</a>
</g>
</g>
<!-- Node4&#45;&gt;Node5 -->
<g id="edge4" class="edge"><title>Node4&#45;&gt;Node5</title>
<path fill="none" stroke="midnightblue" d="M476.489,-101.387C484.899,-103.122 493.762,-104.951 502.409,-106.735"/>
<polygon fill="midnightblue" stroke="midnightblue" points="501.921,-110.208 512.422,-108.801 503.336,-103.353 501.921,-110.208"/>
</g>
<!-- Node6 -->
<g id="node6" class="node"><title>Node6</title>
<g id="a_node6"><a xlink:href="namespaceforcebalance_1_1finite__difference.html#ae484c591ae8c4e5bae73a0ef2660c339" target="_top" xlink:title="A function wrapper for finite difference designed for differentiating &#39;get&#39;&#45;type functions.">
<polygon fill="white" stroke="black" points="511.831,-51 511.831,-83 604.169,-83 604.169,-51 511.831,-51"/>
<text text-anchor="start" x="519.831" y="-70" font-family="Ubuntu-R" font-size="10.00">forcebalance.finite</text>
<text text-anchor="middle" x="558" y="-58" font-family="Ubuntu-R" font-size="10.00">_difference.fdwrap</text>
</a>
</g>
</g>
<!-- Node4&#45;&gt;Node6 -->
<g id="edge5" class="edge"><title>Node4&#45;&gt;Node6</title>
<path fill="none" stroke="midnightblue" d="M476.489,-82.9744C484.607,-81.3636 493.147,-79.6692 501.508,-78.0102"/>
<polygon fill="midnightblue" stroke="midnightblue" points="502.45,-81.3917 511.578,-76.0123 501.088,-74.5255 502.45,-81.3917"/>
</g>
<!-- Node7 -->
<g id="node7" class="node"><title>Node7</title>
<g id="a_node7"><a xlink:href="namespaceforcebalance_1_1finite__difference.html#a00322fb65860c390616f74d05037c797" target="_top" xlink:title="A driver to fdwrap for gradients (see documentation for fdwrap) Inputs: tgt = The Target containing t...">
<polygon fill="white" stroke="black" points="640.721,-51 640.721,-83 745.279,-83 745.279,-51 640.721,-51"/>
<text text-anchor="start" x="648.721" y="-70" font-family="Ubuntu-R" font-size="10.00">forcebalance.finite</text>
<text text-anchor="middle" x="693" y="-58" font-family="Ubuntu-R" font-size="10.00">_difference.fdwrap_G</text>
</a>
</g>
</g>
<!-- Node6&#45;&gt;Node7 -->
<g id="edge6" class="edge"><title>Node6&#45;&gt;Node7</title>
<path fill="none" stroke="midnightblue" d="M604.399,-60.5616C612.729,-60.3077 621.551,-60.2089 630.263,-60.2654"/>
<polygon fill="midnightblue" stroke="midnightblue" points="630.358,-63.7669 640.405,-60.403 630.453,-56.7676 630.358,-63.7669"/>
</g>
<!-- Node8 -->
<g id="node8" class="node"><title>Node8</title>
<g id="a_node8"><a xlink:href="namespaceforcebalance_1_1finite__difference.html#a77a0bc1ae3cbbcc8d38a0ef9ca877d6d" target="_top" xlink:title="A driver to fdwrap for Hessians (see documentation for fdwrap) Inputs: tgt = The Target containing th...">
<polygon fill="white" stroke="black" points="640.721,-0 640.721,-32 745.279,-32 745.279,-0 640.721,-0"/>
<text text-anchor="start" x="648.721" y="-19" font-family="Ubuntu-R" font-size="10.00">forcebalance.finite</text>
<text text-anchor="middle" x="693" y="-7" font-family="Ubuntu-R" font-size="10.00">_difference.fdwrap_H</text>
</a>
</g>
</g>
<!-- Node6&#45;&gt;Node8 -->
<g id="edge8" class="edge"><title>Node6&#45;&gt;Node8</title>
<path fill="none" stroke="midnightblue" d="M601.082,-50.8633C613.697,-46.0258 627.674,-40.6663 640.808,-35.6299"/>
<polygon fill="midnightblue" stroke="midnightblue" points="642.108,-38.8802 650.192,-32.0317 639.601,-32.3442 642.108,-38.8802"/>
</g>
<!-- Node7&#45;&gt;Node6 -->
<g id="edge7" class="edge"><title>Node7&#45;&gt;Node6</title>
<path fill="none" stroke="midnightblue" d="M640.405,-73.597C631.963,-73.773 623.183,-73.7972 614.649,-73.6695"/>
<polygon fill="midnightblue" stroke="midnightblue" points="614.475,-70.1648 604.399,-73.4384 614.318,-77.163 614.475,-70.1648"/>
</g>
</g>
</svg>
