<?xml version="1.0" encoding="UTF-8" standalone="no"?>
<!DOCTYPE svg PUBLIC "-//W3C//DTD SVG 1.1//EN"
 "http://www.w3.org/Graphics/SVG/1.1/DTD/svg11.dtd">
<!-- Generated by graphviz version 2.28.0 (20111219.2309)
 -->
<!-- Title: forcebalance.finite_difference.f12d7p Pages: 1 -->
<svg width="548pt" height="136pt"
 viewBox="0.00 0.00 548.00 136.00" xmlns="http://www.w3.org/2000/svg" xmlns:xlink="http://www.w3.org/1999/xlink">
<g id="graph1" class="graph" transform="scale(1 1) rotate(0) translate(4 132)">
<title>forcebalance.finite_difference.f12d7p</title>
<polygon fill="white" stroke="white" points="-4,5 -4,-132 545,-132 545,5 -4,5"/>
<!-- Node1 -->
<g id="node1" class="node"><title>Node1</title>
<polygon fill="#bfbfbf" stroke="black" points="0.5,-73 0.5,-103 105.5,-103 105.5,-73 0.5,-73"/>
<text text-anchor="start" x="8.5" y="-91" font-family="Ubuntu-R" font-size="10.00">forcebalance.finite</text>
<text text-anchor="middle" x="53" y="-80" font-family="Ubuntu-R" font-size="10.00">_difference.f12d7p</text>
</g>
<!-- Node2 -->
<g id="node3" class="node"><title>Node2</title>
<a xlink:href="namespaceforcebalance_1_1finite__difference.html#aa69a8819e4680091f400303c1d6ddeb7" target="_top" xlink:title="A three&#45;point finite difference stencil. ">
<polygon fill="white" stroke="black" points="142.5,-73 142.5,-103 247.5,-103 247.5,-73 142.5,-73"/>
<text text-anchor="start" x="150.5" y="-91" font-family="Ubuntu-R" font-size="10.00">forcebalance.finite</text>
<text text-anchor="middle" x="195" y="-80" font-family="Ubuntu-R" font-size="10.00">_difference.f12d3p</text>
</a>
</g>
<!-- Node1&#45;&gt;Node2 -->
<g id="edge2" class="edge"><title>Node1&#45;&gt;Node2</title>
<path fill="none" stroke="midnightblue" d="M105.733,-88C114.355,-88 123.374,-88 132.216,-88"/>
<polygon fill="midnightblue" stroke="midnightblue" points="132.48,-91.5001 142.48,-88 132.48,-84.5001 132.48,-91.5001"/>
</g>
<!-- Node3 -->
<g id="node5" class="node"><title>Node3</title>
<a xlink:href="namespaceforcebalance_1_1finite__difference.html#ad84d3e385db1190e7d8ef58bc08a6c52" target="_top" xlink:title="Invoking this function from anywhere will tell us whether we&#39;re being called by a finite&#45;difference f...">
<polygon fill="white" stroke="black" points="284,-98 284,-128 388,-128 388,-98 284,-98"/>
<text text-anchor="start" x="292" y="-116" font-family="Ubuntu-R" font-size="10.00">forcebalance.finite</text>
<text text-anchor="middle" x="336" y="-105" font-family="Ubuntu-R" font-size="10.00">_difference.in_fd</text>
</a>
</g>
<!-- Node2&#45;&gt;Node3 -->
<g id="edge4" class="edge"><title>Node2&#45;&gt;Node3</title>
<path fill="none" stroke="midnightblue" d="M247.758,-97.3091C256.191,-98.8257 264.997,-100.41 273.633,-101.963"/>
<polygon fill="midnightblue" stroke="midnightblue" points="273.199,-105.441 283.661,-103.766 274.439,-98.5514 273.199,-105.441"/>
</g>
<!-- Node4 -->
<g id="node7" class="node"><title>Node4</title>
<a xlink:href="namespaceforcebalance_1_1finite__difference.html#ae484c591ae8c4e5bae73a0ef2660c339" target="_top" xlink:title="A function wrapper for finite difference designed for differentiating &#39;get&#39;&#45;type functions. ">
<polygon fill="white" stroke="black" points="284,-49 284,-79 388,-79 388,-49 284,-49"/>
<text text-anchor="start" x="292" y="-67" font-family="Ubuntu-R" font-size="10.00">forcebalance.finite</text>
<text text-anchor="middle" x="336" y="-56" font-family="Ubuntu-R" font-size="10.00">_difference.fdwrap</text>
</a>
</g>
<!-- Node2&#45;&gt;Node4 -->
<g id="edge6" class="edge"><title>Node2&#45;&gt;Node4</title>
<path fill="none" stroke="midnightblue" d="M247.758,-79.0633C256.191,-77.6073 264.997,-76.0868 273.633,-74.5957"/>
<polygon fill="midnightblue" stroke="midnightblue" points="274.402,-78.0148 283.661,-72.8643 273.211,-71.1168 274.402,-78.0148"/>
</g>
<!-- Node5 -->
<g id="node9" class="node"><title>Node5</title>
<a xlink:href="namespaceforcebalance_1_1finite__difference.html#a00322fb65860c390616f74d05037c797" target="_top" xlink:title="A driver to fdwrap for gradients (see documentation for fdwrap) Inputs: tgt = The Target containing t...">
<polygon fill="white" stroke="black" points="424,-49 424,-79 540,-79 540,-49 424,-49"/>
<text text-anchor="start" x="432" y="-67" font-family="Ubuntu-R" font-size="10.00">forcebalance.finite</text>
<text text-anchor="middle" x="482" y="-56" font-family="Ubuntu-R" font-size="10.00">_difference.fdwrap_G</text>
</a>
</g>
<!-- Node4&#45;&gt;Node5 -->
<g id="edge8" class="edge"><title>Node4&#45;&gt;Node5</title>
<path fill="none" stroke="midnightblue" d="M388.174,-57.5075C396.335,-57.3003 404.887,-57.2182 413.358,-57.261"/>
<polygon fill="midnightblue" stroke="midnightblue" points="413.58,-60.7636 423.619,-57.3752 413.658,-53.764 413.58,-60.7636"/>
</g>
<!-- Node6 -->
<g id="node12" class="node"><title>Node6</title>
<a xlink:href="namespaceforcebalance_1_1finite__difference.html#a77a0bc1ae3cbbcc8d38a0ef9ca877d6d" target="_top" xlink:title="A driver to fdwrap for Hessians (see documentation for fdwrap) Inputs: tgt = The Target containing th...">
<polygon fill="white" stroke="black" points="424,-0 424,-30 540,-30 540,-0 424,-0"/>
<text text-anchor="start" x="432" y="-18" font-family="Ubuntu-R" font-size="10.00">forcebalance.finite</text>
<text text-anchor="middle" x="482" y="-7" font-family="Ubuntu-R" font-size="10.00">_difference.fdwrap_H</text>
</a>
</g>
<!-- Node4&#45;&gt;Node6 -->
<g id="edge12" class="edge"><title>Node4&#45;&gt;Node6</title>
<path fill="none" stroke="midnightblue" d="M381.38,-48.8986C395.751,-44.0083 411.853,-38.5293 426.851,-33.4256"/>
<polygon fill="midnightblue" stroke="midnightblue" points="428.179,-36.6708 436.519,-30.1359 425.924,-30.0439 428.179,-36.6708"/>
</g>
<!-- Node5&#45;&gt;Node4 -->
<g id="edge10" class="edge"><title>Node5&#45;&gt;Node4</title>
<path fill="none" stroke="midnightblue" d="M423.619,-70.6248C415.291,-70.7692 406.692,-70.7887 398.291,-70.6832"/>
<polygon fill="midnightblue" stroke="midnightblue" points="398.239,-67.1817 388.174,-70.4925 398.107,-74.1804 398.239,-67.1817"/>
</g>
</g>
</svg>
