<?xml version="1.0" encoding="UTF-8" standalone="no"?>
<!DOCTYPE svg PUBLIC "-//W3C//DTD SVG 1.1//EN"
 "http://www.w3.org/Graphics/SVG/1.1/DTD/svg11.dtd">
<!-- Generated by graphviz version 2.28.0 (20111219.2309)
 -->
<!-- Title: forcebalance.openmmio.CopyAmoebaInPlaneAngleParameters Pages: 1 -->
<svg width="1542pt" height="38pt"
 viewBox="0.00 0.00 1542.00 38.00" xmlns="http://www.w3.org/2000/svg" xmlns:xlink="http://www.w3.org/1999/xlink">
<g id="graph1" class="graph" transform="scale(1 1) rotate(0) translate(4 34)">
<title>forcebalance.openmmio.CopyAmoebaInPlaneAngleParameters</title>
<polygon fill="white" stroke="white" points="-4,5 -4,-34 1539,-34 1539,5 -4,5"/>
<!-- Node1 -->
<g id="node1" class="node"><title>Node1</title>
<polygon fill="#bfbfbf" stroke="black" points="0,-0 0,-30 174,-30 174,-0 0,-0"/>
<text text-anchor="start" x="8" y="-18" font-family="Ubuntu-R" font-size="10.00">forcebalance.openmmio.Copy</text>
<text text-anchor="middle" x="87" y="-7" font-family="Ubuntu-R" font-size="10.00">AmoebaInPlaneAngleParameters</text>
</g>
<!-- Node2 -->
<g id="node3" class="node"><title>Node2</title>
<a xlink:href="namespaceforcebalance_1_1openmmio.html#abe005f73c6dfe9ce1052c9434bcad9be" target="_top" xlink:title="forcebalance.openmmio.Copy\lAmoebaVdwParameters">
<polygon fill="white" stroke="black" points="210,-0 210,-30 370,-30 370,-0 210,-0"/>
<text text-anchor="start" x="218" y="-18" font-family="Ubuntu-R" font-size="10.00">forcebalance.openmmio.Copy</text>
<text text-anchor="middle" x="290" y="-7" font-family="Ubuntu-R" font-size="10.00">AmoebaVdwParameters</text>
</a>
</g>
<!-- Node1&#45;&gt;Node2 -->
<g id="edge2" class="edge"><title>Node1&#45;&gt;Node2</title>
<path fill="none" stroke="midnightblue" d="M174.117,-15C182.525,-15 191.071,-15 199.512,-15"/>
<polygon fill="midnightblue" stroke="midnightblue" points="199.739,-18.5001 209.739,-15 199.739,-11.5001 199.739,-18.5001"/>
</g>
<!-- Node3 -->
<g id="node5" class="node"><title>Node3</title>
<a xlink:href="namespaceforcebalance_1_1openmmio.html#a3706c19e71969cabe5782a4535abeffe" target="_top" xlink:title="forcebalance.openmmio.Copy\lAmoebaMultipoleParameters">
<polygon fill="white" stroke="black" points="406,-0 406,-30 566,-30 566,-0 406,-0"/>
<text text-anchor="start" x="414" y="-18" font-family="Ubuntu-R" font-size="10.00">forcebalance.openmmio.Copy</text>
<text text-anchor="middle" x="486" y="-7" font-family="Ubuntu-R" font-size="10.00">AmoebaMultipoleParameters</text>
</a>
</g>
<!-- Node2&#45;&gt;Node3 -->
<g id="edge4" class="edge"><title>Node2&#45;&gt;Node3</title>
<path fill="none" stroke="midnightblue" d="M370.187,-15C378.529,-15 387.054,-15 395.502,-15"/>
<polygon fill="midnightblue" stroke="midnightblue" points="395.752,-18.5001 405.752,-15 395.752,-11.5001 395.752,-18.5001"/>
</g>
<!-- Node4 -->
<g id="node7" class="node"><title>Node4</title>
<a xlink:href="namespaceforcebalance_1_1openmmio.html#a616f12cc53381716e5fa41f00bf623be" target="_top" xlink:title="forcebalance.openmmio.Copy\lHarmonicBondParameters">
<polygon fill="white" stroke="black" points="602,-0 602,-30 762,-30 762,-0 602,-0"/>
<text text-anchor="start" x="610" y="-18" font-family="Ubuntu-R" font-size="10.00">forcebalance.openmmio.Copy</text>
<text text-anchor="middle" x="682" y="-7" font-family="Ubuntu-R" font-size="10.00">HarmonicBondParameters</text>
</a>
</g>
<!-- Node3&#45;&gt;Node4 -->
<g id="edge6" class="edge"><title>Node3&#45;&gt;Node4</title>
<path fill="none" stroke="midnightblue" d="M566.187,-15C574.529,-15 583.054,-15 591.502,-15"/>
<polygon fill="midnightblue" stroke="midnightblue" points="591.752,-18.5001 601.752,-15 591.752,-11.5001 591.752,-18.5001"/>
</g>
<!-- Node5 -->
<g id="node9" class="node"><title>Node5</title>
<a xlink:href="namespaceforcebalance_1_1openmmio.html#af4ed16f5e2b1cd12bce2f25fab1b05bc" target="_top" xlink:title="forcebalance.openmmio.Copy\lHarmonicAngleParameters">
<polygon fill="white" stroke="black" points="798,-0 798,-30 958,-30 958,-0 798,-0"/>
<text text-anchor="start" x="806" y="-18" font-family="Ubuntu-R" font-size="10.00">forcebalance.openmmio.Copy</text>
<text text-anchor="middle" x="878" y="-7" font-family="Ubuntu-R" font-size="10.00">HarmonicAngleParameters</text>
</a>
</g>
<!-- Node4&#45;&gt;Node5 -->
<g id="edge8" class="edge"><title>Node4&#45;&gt;Node5</title>
<path fill="none" stroke="midnightblue" d="M762.187,-15C770.529,-15 779.054,-15 787.502,-15"/>
<polygon fill="midnightblue" stroke="midnightblue" points="787.752,-18.5001 797.752,-15 787.752,-11.5001 787.752,-18.5001"/>
</g>
<!-- Node6 -->
<g id="node11" class="node"><title>Node6</title>
<a xlink:href="namespaceforcebalance_1_1openmmio.html#a8f13702754f0b4e43e272139a2ce8341" target="_top" xlink:title="forcebalance.openmmio.Copy\lPeriodicTorsionParameters">
<polygon fill="white" stroke="black" points="994,-0 994,-30 1154,-30 1154,-0 994,-0"/>
<text text-anchor="start" x="1002" y="-18" font-family="Ubuntu-R" font-size="10.00">forcebalance.openmmio.Copy</text>
<text text-anchor="middle" x="1074" y="-7" font-family="Ubuntu-R" font-size="10.00">PeriodicTorsionParameters</text>
</a>
</g>
<!-- Node5&#45;&gt;Node6 -->
<g id="edge10" class="edge"><title>Node5&#45;&gt;Node6</title>
<path fill="none" stroke="midnightblue" d="M958.187,-15C966.529,-15 975.054,-15 983.502,-15"/>
<polygon fill="midnightblue" stroke="midnightblue" points="983.752,-18.5001 993.752,-15 983.752,-11.5001 983.752,-18.5001"/>
</g>
<!-- Node7 -->
<g id="node13" class="node"><title>Node7</title>
<a xlink:href="namespaceforcebalance_1_1openmmio.html#afead47464a644d9225f9fa8eb568a8ed" target="_top" xlink:title="forcebalance.openmmio.Copy\lNonbondedParameters">
<polygon fill="white" stroke="black" points="1190,-0 1190,-30 1350,-30 1350,-0 1190,-0"/>
<text text-anchor="start" x="1198" y="-18" font-family="Ubuntu-R" font-size="10.00">forcebalance.openmmio.Copy</text>
<text text-anchor="middle" x="1270" y="-7" font-family="Ubuntu-R" font-size="10.00">NonbondedParameters</text>
</a>
</g>
<!-- Node6&#45;&gt;Node7 -->
<g id="edge12" class="edge"><title>Node6&#45;&gt;Node7</title>
<path fill="none" stroke="midnightblue" d="M1154.19,-15C1162.53,-15 1171.05,-15 1179.5,-15"/>
<polygon fill="midnightblue" stroke="midnightblue" points="1179.75,-18.5001 1189.75,-15 1179.75,-11.5001 1179.75,-18.5001"/>
</g>
<!-- Node8 -->
<g id="node15" class="node"><title>Node8</title>
<a xlink:href="namespaceforcebalance_1_1openmmio.html#a2bb7add6b813d94f2655372c51fe8fdc" target="_top" xlink:title="forcebalance.openmmio.do\l_nothing">
<polygon fill="white" stroke="black" points="1386,-0 1386,-30 1534,-30 1534,-0 1386,-0"/>
<text text-anchor="start" x="1394" y="-18" font-family="Ubuntu-R" font-size="10.00">forcebalance.openmmio.do</text>
<text text-anchor="middle" x="1460" y="-7" font-family="Ubuntu-R" font-size="10.00">_nothing</text>
</a>
</g>
<!-- Node7&#45;&gt;Node8 -->
<g id="edge14" class="edge"><title>Node7&#45;&gt;Node8</title>
<path fill="none" stroke="midnightblue" d="M1350.18,-15C1358.6,-15 1367.18,-15 1375.65,-15"/>
<polygon fill="midnightblue" stroke="midnightblue" points="1375.9,-18.5001 1385.9,-15 1375.9,-11.5001 1375.9,-18.5001"/>
</g>
</g>
</svg>
