<?xml version="1.0" encoding="UTF-8" standalone="no"?>
<!DOCTYPE svg PUBLIC "-//W3C//DTD SVG 1.1//EN"
 "http://www.w3.org/Graphics/SVG/1.1/DTD/svg11.dtd">
<!-- Generated by graphviz version 2.26.3 (20100126.1600)
 -->
<!-- Title: forcebalance.nifty.lp_load Pages: 1 -->
<svg width="328pt" height="82pt"
 viewBox="0.00 0.00 328.00 82.00" xmlns="http://www.w3.org/2000/svg" xmlns:xlink="http://www.w3.org/1999/xlink">
<g id="graph1" class="graph" transform="scale(1 1) rotate(0) translate(4 78)">
<title>forcebalance.nifty.lp_load</title>
<polygon fill="white" stroke="white" points="-4,5 -4,-78 325,-78 325,5 -4,5"/>
<!-- Node1 -->
<g id="node1" class="node"><title>Node1</title>
<polygon fill="#bfbfbf" stroke="black" points="0,-29.5 0,-50.5 136,-50.5 136,-29.5 0,-29.5"/>
<text text-anchor="middle" x="68" y="-37.5" font-family="Ubuntu-R" font-size="10.00">forcebalance.nifty.lp_load</text>
</g>
<!-- Node2 -->
<g id="node3" class="node"><title>Node2</title>
<a xlink:href="namespaceforcebalance_1_1nifty.html#abe1e72c32252d62a6551b47290c7584f" target="_top" xlink:title="forcebalance.nifty.getWQIds">
<polygon fill="white" stroke="black" points="172.5,-52.5 172.5,-73.5 319.5,-73.5 319.5,-52.5 172.5,-52.5"/>
<text text-anchor="middle" x="246" y="-60.5" font-family="Ubuntu-R" font-size="10.00">forcebalance.nifty.getWQIds</text>
</a>
</g>
<!-- Node1&#45;&gt;Node2 -->
<g id="edge2" class="edge"><title>Node1&#45;&gt;Node2</title>
<path fill="none" stroke="midnightblue" d="M136.056,-48.7938C144.684,-49.9087 153.591,-51.0595 162.426,-52.2011"/>
<polygon fill="midnightblue" stroke="midnightblue" points="161.986,-55.6733 172.352,-53.4837 162.883,-48.731 161.986,-55.6733"/>
</g>
<!-- Node3 -->
<g id="node5" class="node"><title>Node3</title>
<a xlink:href="namespaceforcebalance_1_1nifty.html#ab5f3072ad95e9c75659cb1adac341051" target="_top" xlink:title="forcebalance.nifty.create\lWorkQueue">
<polygon fill="white" stroke="black" points="179.5,-0 179.5,-34 312.5,-34 312.5,-0 179.5,-0"/>
<text text-anchor="start" x="187.5" y="-21" font-family="Ubuntu-R" font-size="10.00">forcebalance.nifty.create</text>
<text text-anchor="middle" x="246" y="-8" font-family="Ubuntu-R" font-size="10.00">WorkQueue</text>
</a>
</g>
<!-- Node1&#45;&gt;Node3 -->
<g id="edge4" class="edge"><title>Node1&#45;&gt;Node3</title>
<path fill="none" stroke="midnightblue" d="M136.056,-31.2062C146.952,-29.7984 158.291,-28.3332 169.37,-26.9016"/>
<polygon fill="midnightblue" stroke="midnightblue" points="169.982,-30.3517 179.451,-25.599 169.085,-23.4095 169.982,-30.3517"/>
</g>
</g>
</svg>
