<?xml version="1.0" encoding="UTF-8" standalone="no"?>
<!DOCTYPE svg PUBLIC "-//W3C//DTD SVG 1.1//EN"
 "http://www.w3.org/Graphics/SVG/1.1/DTD/svg11.dtd">
<!-- Generated by graphviz version 2.28.0 (20111219.2309)
 -->
<!-- Title: G Pages: 1 -->
<svg width="3172pt" height="28pt"
 viewBox="0.00 0.00 3172.00 28.00" xmlns="http://www.w3.org/2000/svg" xmlns:xlink="http://www.w3.org/1999/xlink">
<g id="graph1" class="graph" transform="scale(1 1) rotate(0) translate(4 24)">
<title>G</title>
<polygon fill="white" stroke="white" points="-4,5 -4,-24 3169,-24 3169,5 -4,5"/>
<!-- Node1 -->
<g id="node1" class="node"><title>Node1</title>
<polygon fill="#bfbfbf" stroke="black" points="0.5,-0.5 0.5,-19.5 335.5,-19.5 335.5,-0.5 0.5,-0.5"/>
<text text-anchor="middle" x="168" y="-7.5" font-family="Ubuntu-R" font-size="10.00">forcebalance.openmmio.CopyAmoebaOutOfPlaneBendParameters</text>
</g>
<!-- Node2 -->
<g id="node3" class="node"><title>Node2</title>
<a xlink:href="namespaceforcebalance_1_1openmmio.html#abe9a6b9b200dc8487e56dad7249af3ec" target="_top" xlink:title="forcebalance.openmmio.CopyAmoebaAngleParameters">
<polygon fill="white" stroke="black" points="372.5,-0.5 372.5,-19.5 655.5,-19.5 655.5,-0.5 372.5,-0.5"/>
<text text-anchor="middle" x="514" y="-7.5" font-family="Ubuntu-R" font-size="10.00">forcebalance.openmmio.CopyAmoebaAngleParameters</text>
</a>
</g>
<!-- Node1&#45;&gt;Node2 -->
<g id="edge2" class="edge"><title>Node1&#45;&gt;Node2</title>
<path fill="none" stroke="midnightblue" d="M335.71,-10C344.515,-10 353.339,-10 362.089,-10"/>
<polygon fill="midnightblue" stroke="midnightblue" points="362.321,-13.5001 372.321,-10 362.321,-6.5001 362.321,-13.5001"/>
</g>
<!-- Node3 -->
<g id="node5" class="node"><title>Node3</title>
<a xlink:href="namespaceforcebalance_1_1openmmio.html#ad0d4739f80f2aab1a861f2e03b8efcd6" target="_top" xlink:title="forcebalance.openmmio.CopyAmoebaInPlaneAngleParameters">
<polygon fill="white" stroke="black" points="692.5,-0.5 692.5,-19.5 1009.5,-19.5 1009.5,-0.5 692.5,-0.5"/>
<text text-anchor="middle" x="851" y="-7.5" font-family="Ubuntu-R" font-size="10.00">forcebalance.openmmio.CopyAmoebaInPlaneAngleParameters</text>
</a>
</g>
<!-- Node2&#45;&gt;Node3 -->
<g id="edge4" class="edge"><title>Node2&#45;&gt;Node3</title>
<path fill="none" stroke="midnightblue" d="M655.614,-10C664.461,-10 673.41,-10 682.359,-10"/>
<polygon fill="midnightblue" stroke="midnightblue" points="682.459,-13.5001 692.459,-10 682.459,-6.5001 682.459,-13.5001"/>
</g>
<!-- Node4 -->
<g id="node7" class="node"><title>Node4</title>
<a xlink:href="namespaceforcebalance_1_1openmmio.html#abe005f73c6dfe9ce1052c9434bcad9be" target="_top" xlink:title="forcebalance.openmmio.CopyAmoebaVdwParameters">
<polygon fill="white" stroke="black" points="1046.5,-0.5 1046.5,-19.5 1321.5,-19.5 1321.5,-0.5 1046.5,-0.5"/>
<text text-anchor="middle" x="1184" y="-7.5" font-family="Ubuntu-R" font-size="10.00">forcebalance.openmmio.CopyAmoebaVdwParameters</text>
</a>
</g>
<!-- Node3&#45;&gt;Node4 -->
<g id="edge6" class="edge"><title>Node3&#45;&gt;Node4</title>
<path fill="none" stroke="midnightblue" d="M1009.74,-10C1018.48,-10 1027.25,-10 1035.94,-10"/>
<polygon fill="midnightblue" stroke="midnightblue" points="1036.11,-13.5001 1046.11,-10 1036.11,-6.5001 1036.11,-13.5001"/>
</g>
<!-- Node5 -->
<g id="node9" class="node"><title>Node5</title>
<a xlink:href="namespaceforcebalance_1_1openmmio.html#a3706c19e71969cabe5782a4535abeffe" target="_top" xlink:title="forcebalance.openmmio.CopyAmoebaMultipoleParameters">
<polygon fill="white" stroke="black" points="1358.5,-0.5 1358.5,-19.5 1657.5,-19.5 1657.5,-0.5 1358.5,-0.5"/>
<text text-anchor="middle" x="1508" y="-7.5" font-family="Ubuntu-R" font-size="10.00">forcebalance.openmmio.CopyAmoebaMultipoleParameters</text>
</a>
</g>
<!-- Node4&#45;&gt;Node5 -->
<g id="edge8" class="edge"><title>Node4&#45;&gt;Node5</title>
<path fill="none" stroke="midnightblue" d="M1321.56,-10C1330.4,-10 1339.34,-10 1348.28,-10"/>
<polygon fill="midnightblue" stroke="midnightblue" points="1348.35,-13.5001 1358.35,-10 1348.35,-6.5001 1348.35,-13.5001"/>
</g>
<!-- Node6 -->
<g id="node11" class="node"><title>Node6</title>
<a xlink:href="namespaceforcebalance_1_1openmmio.html#a616f12cc53381716e5fa41f00bf623be" target="_top" xlink:title="forcebalance.openmmio.CopyHarmonicBondParameters">
<polygon fill="white" stroke="black" points="1694.5,-0.5 1694.5,-19.5 1981.5,-19.5 1981.5,-0.5 1694.5,-0.5"/>
<text text-anchor="middle" x="1838" y="-7.5" font-family="Ubuntu-R" font-size="10.00">forcebalance.openmmio.CopyHarmonicBondParameters</text>
</a>
</g>
<!-- Node5&#45;&gt;Node6 -->
<g id="edge10" class="edge"><title>Node5&#45;&gt;Node6</title>
<path fill="none" stroke="midnightblue" d="M1657.65,-10C1666.51,-10 1675.44,-10 1684.32,-10"/>
<polygon fill="midnightblue" stroke="midnightblue" points="1684.33,-13.5001 1694.33,-10 1684.33,-6.5001 1684.33,-13.5001"/>
</g>
<!-- Node7 -->
<g id="node13" class="node"><title>Node7</title>
<a xlink:href="namespaceforcebalance_1_1openmmio.html#af4ed16f5e2b1cd12bce2f25fab1b05bc" target="_top" xlink:title="forcebalance.openmmio.CopyHarmonicAngleParameters">
<polygon fill="white" stroke="black" points="2018.5,-0.5 2018.5,-19.5 2307.5,-19.5 2307.5,-0.5 2018.5,-0.5"/>
<text text-anchor="middle" x="2163" y="-7.5" font-family="Ubuntu-R" font-size="10.00">forcebalance.openmmio.CopyHarmonicAngleParameters</text>
</a>
</g>
<!-- Node6&#45;&gt;Node7 -->
<g id="edge12" class="edge"><title>Node6&#45;&gt;Node7</title>
<path fill="none" stroke="midnightblue" d="M1981.61,-10C1990.45,-10 1999.37,-10 2008.26,-10"/>
<polygon fill="midnightblue" stroke="midnightblue" points="2008.27,-13.5001 2018.27,-10 2008.27,-6.5001 2008.27,-13.5001"/>
</g>
<!-- Node8 -->
<g id="node15" class="node"><title>Node8</title>
<a xlink:href="namespaceforcebalance_1_1openmmio.html#a8f13702754f0b4e43e272139a2ce8341" target="_top" xlink:title="forcebalance.openmmio.CopyPeriodicTorsionParameters">
<polygon fill="white" stroke="black" points="2344,-0.5 2344,-19.5 2630,-19.5 2630,-0.5 2344,-0.5"/>
<text text-anchor="middle" x="2487" y="-7.5" font-family="Ubuntu-R" font-size="10.00">forcebalance.openmmio.CopyPeriodicTorsionParameters</text>
</a>
</g>
<!-- Node7&#45;&gt;Node8 -->
<g id="edge14" class="edge"><title>Node7&#45;&gt;Node8</title>
<path fill="none" stroke="midnightblue" d="M2307.58,-10C2316.26,-10 2325,-10 2333.72,-10"/>
<polygon fill="midnightblue" stroke="midnightblue" points="2333.92,-13.5001 2343.92,-10 2333.92,-6.5001 2333.92,-13.5001"/>
</g>
<!-- Node9 -->
<g id="node17" class="node"><title>Node9</title>
<a xlink:href="namespaceforcebalance_1_1openmmio.html#afead47464a644d9225f9fa8eb568a8ed" target="_top" xlink:title="forcebalance.openmmio.CopyNonbondedParameters">
<polygon fill="white" stroke="black" points="2666.5,-0.5 2666.5,-19.5 2937.5,-19.5 2937.5,-0.5 2666.5,-0.5"/>
<text text-anchor="middle" x="2802" y="-7.5" font-family="Ubuntu-R" font-size="10.00">forcebalance.openmmio.CopyNonbondedParameters</text>
</a>
</g>
<!-- Node8&#45;&gt;Node9 -->
<g id="edge16" class="edge"><title>Node8&#45;&gt;Node9</title>
<path fill="none" stroke="midnightblue" d="M2630.3,-10C2638.89,-10 2647.54,-10 2656.14,-10"/>
<polygon fill="midnightblue" stroke="midnightblue" points="2656.21,-13.5001 2666.21,-10 2656.21,-6.5001 2656.21,-13.5001"/>
</g>
<!-- Node10 -->
<g id="node19" class="node"><title>Node10</title>
<a xlink:href="namespaceforcebalance_1_1openmmio.html#a2bb7add6b813d94f2655372c51fe8fdc" target="_top" xlink:title="forcebalance.openmmio.do_nothing">
<polygon fill="white" stroke="black" points="2974.5,-0.5 2974.5,-19.5 3163.5,-19.5 3163.5,-0.5 2974.5,-0.5"/>
<text text-anchor="middle" x="3069" y="-7.5" font-family="Ubuntu-R" font-size="10.00">forcebalance.openmmio.do_nothing</text>
</a>
</g>
<!-- Node9&#45;&gt;Node10 -->
<g id="edge18" class="edge"><title>Node9&#45;&gt;Node10</title>
<path fill="none" stroke="midnightblue" d="M2937.83,-10C2946.65,-10 2955.46,-10 2964.1,-10"/>
<polygon fill="midnightblue" stroke="midnightblue" points="2964.15,-13.5001 2974.15,-10 2964.15,-6.5001 2964.15,-13.5001"/>
</g>
</g>
</svg>
