<?xml version="1.0" encoding="UTF-8" standalone="no"?>
<!DOCTYPE svg PUBLIC "-//W3C//DTD SVG 1.1//EN"
 "http://www.w3.org/Graphics/SVG/1.1/DTD/svg11.dtd">
<!-- Generated by graphviz version 2.28.0 (20111219.2309)
 -->
<!-- Title: G Pages: 1 -->
<svg width="596pt" height="28pt"
 viewBox="0.00 0.00 596.00 28.00" xmlns="http://www.w3.org/2000/svg" xmlns:xlink="http://www.w3.org/1999/xlink">
<g id="graph1" class="graph" transform="scale(1 1) rotate(0) translate(4 24)">
<title>G</title>
<polygon fill="white" stroke="white" points="-4,5 -4,-24 593,-24 593,5 -4,5"/>
<!-- Node1 -->
<g id="node1" class="node"><title>Node1</title>
<polygon fill="#bfbfbf" stroke="black" points="0,-0.5 0,-19.5 166,-19.5 166,-0.5 0,-0.5"/>
<text text-anchor="middle" x="83" y="-7.5" font-family="Ubuntu-R" font-size="10.00">forcebalance.parser.read_pvals</text>
</g>
<!-- Node2 -->
<g id="node3" class="node"><title>Node2</title>
<a xlink:href="namespaceforcebalance_1_1parser.html#a94c3f1acd06b640db3042dc45e32af8e" target="_top" xlink:title="forcebalance.parser.read_priors">
<polygon fill="white" stroke="black" points="202,-0.5 202,-19.5 370,-19.5 370,-0.5 202,-0.5"/>
<text text-anchor="middle" x="286" y="-7.5" font-family="Ubuntu-R" font-size="10.00">forcebalance.parser.read_priors</text>
</a>
</g>
<!-- Node1&#45;&gt;Node2 -->
<g id="edge2" class="edge"><title>Node1&#45;&gt;Node2</title>
<path fill="none" stroke="midnightblue" d="M166.044,-10C174.549,-10 183.236,-10 191.85,-10"/>
<polygon fill="midnightblue" stroke="midnightblue" points="191.914,-13.5001 201.914,-10 191.914,-6.5001 191.914,-13.5001"/>
</g>
<!-- Node3 -->
<g id="node5" class="node"><title>Node3</title>
<a xlink:href="namespaceforcebalance_1_1parser.html#a10827b0b21d0463bc9e786f161a02654" target="_top" xlink:title="forcebalance.parser.read_internals">
<polygon fill="white" stroke="black" points="406,-0.5 406,-19.5 588,-19.5 588,-0.5 406,-0.5"/>
<text text-anchor="middle" x="497" y="-7.5" font-family="Ubuntu-R" font-size="10.00">forcebalance.parser.read_internals</text>
</a>
</g>
<!-- Node2&#45;&gt;Node3 -->
<g id="edge4" class="edge"><title>Node2&#45;&gt;Node3</title>
<path fill="none" stroke="midnightblue" d="M370.203,-10C378.63,-10 387.25,-10 395.832,-10"/>
<polygon fill="midnightblue" stroke="midnightblue" points="395.874,-13.5001 405.874,-10 395.874,-6.5001 395.874,-13.5001"/>
</g>
</g>
</svg>
