<?xml version="1.0" encoding="UTF-8" standalone="no"?>
<!DOCTYPE svg PUBLIC "-//W3C//DTD SVG 1.1//EN"
 "http://www.w3.org/Graphics/SVG/1.1/DTD/svg11.dtd">
<!-- Generated by graphviz version 2.32.0 (20130801.1845)
 -->
<!-- Title: forcebalance.finite_difference.f12d7p Pages: 1 -->
<svg width="498pt" height="142pt"
 viewBox="0.00 0.00 498.00 142.00" xmlns="http://www.w3.org/2000/svg" xmlns:xlink="http://www.w3.org/1999/xlink">
<g id="graph0" class="graph" transform="scale(1 1) rotate(0) translate(4 138)">
<title>forcebalance.finite_difference.f12d7p</title>
<polygon fill="white" stroke="white" points="-4,5 -4,-138 495,-138 495,5 -4,5"/>
<!-- Node1 -->
<g id="node1" class="node"><title>Node1</title>
<polygon fill="#bfbfbf" stroke="black" points="-0.1755,-76 -0.1755,-108 92.1755,-108 92.1755,-76 -0.1755,-76"/>
<text text-anchor="start" x="7.8245" y="-95" font-family="Ubuntu-R" font-size="10.00">forcebalance.finite</text>
<text text-anchor="middle" x="46" y="-83" font-family="Ubuntu-R" font-size="10.00">_difference.f12d7p</text>
</g>
<!-- Node2 -->
<g id="node2" class="node"><title>Node2</title>
<g id="a_node2"><a xlink:href="namespaceforcebalance_1_1finite__difference.html#aa69a8819e4680091f400303c1d6ddeb7" target="_top" xlink:title="A three&#45;point finite difference stencil.">
<polygon fill="white" stroke="black" points="127.825,-76 127.825,-108 220.175,-108 220.175,-76 127.825,-76"/>
<text text-anchor="start" x="135.825" y="-95" font-family="Ubuntu-R" font-size="10.00">forcebalance.finite</text>
<text text-anchor="middle" x="174" y="-83" font-family="Ubuntu-R" font-size="10.00">_difference.f12d3p</text>
</a>
</g>
</g>
<!-- Node1&#45;&gt;Node2 -->
<g id="edge1" class="edge"><title>Node1&#45;&gt;Node2</title>
<path fill="none" stroke="midnightblue" d="M92.4889,-92C100.607,-92 109.147,-92 117.508,-92"/>
<polygon fill="midnightblue" stroke="midnightblue" points="117.578,-95.5001 127.578,-92 117.578,-88.5001 117.578,-95.5001"/>
</g>
<!-- Node3 -->
<g id="node3" class="node"><title>Node3</title>
<g id="a_node3"><a xlink:href="namespaceforcebalance_1_1finite__difference.html#ad84d3e385db1190e7d8ef58bc08a6c52" target="_top" xlink:title="Invoking this function from anywhere will tell us whether we&#39;re being called by a finite&#45;difference f...">
<polygon fill="white" stroke="black" points="256.662,-102 256.662,-134 347.338,-134 347.338,-102 256.662,-102"/>
<text text-anchor="start" x="264.662" y="-121" font-family="Ubuntu-R" font-size="10.00">forcebalance.finite</text>
<text text-anchor="middle" x="302" y="-109" font-family="Ubuntu-R" font-size="10.00">_difference.in_fd</text>
</a>
</g>
</g>
<!-- Node2&#45;&gt;Node3 -->
<g id="edge2" class="edge"><title>Node2&#45;&gt;Node3</title>
<path fill="none" stroke="midnightblue" d="M220.489,-101.387C228.899,-103.122 237.762,-104.951 246.409,-106.735"/>
<polygon fill="midnightblue" stroke="midnightblue" points="245.921,-110.208 256.422,-108.801 247.336,-103.353 245.921,-110.208"/>
</g>
<!-- Node4 -->
<g id="node4" class="node"><title>Node4</title>
<g id="a_node4"><a xlink:href="namespaceforcebalance_1_1finite__difference.html#ae484c591ae8c4e5bae73a0ef2660c339" target="_top" xlink:title="A function wrapper for finite difference designed for differentiating &#39;get&#39;&#45;type functions.">
<polygon fill="white" stroke="black" points="255.831,-51 255.831,-83 348.169,-83 348.169,-51 255.831,-51"/>
<text text-anchor="start" x="263.831" y="-70" font-family="Ubuntu-R" font-size="10.00">forcebalance.finite</text>
<text text-anchor="middle" x="302" y="-58" font-family="Ubuntu-R" font-size="10.00">_difference.fdwrap</text>
</a>
</g>
</g>
<!-- Node2&#45;&gt;Node4 -->
<g id="edge3" class="edge"><title>Node2&#45;&gt;Node4</title>
<path fill="none" stroke="midnightblue" d="M220.489,-82.9744C228.607,-81.3636 237.147,-79.6692 245.508,-78.0102"/>
<polygon fill="midnightblue" stroke="midnightblue" points="246.45,-81.3917 255.578,-76.0123 245.088,-74.5255 246.45,-81.3917"/>
</g>
<!-- Node5 -->
<g id="node5" class="node"><title>Node5</title>
<g id="a_node5"><a xlink:href="namespaceforcebalance_1_1finite__difference.html#a00322fb65860c390616f74d05037c797" target="_top" xlink:title="A driver to fdwrap for gradients (see documentation for fdwrap) Inputs: tgt = The Target containing t...">
<polygon fill="white" stroke="black" points="384.721,-51 384.721,-83 489.279,-83 489.279,-51 384.721,-51"/>
<text text-anchor="start" x="392.721" y="-70" font-family="Ubuntu-R" font-size="10.00">forcebalance.finite</text>
<text text-anchor="middle" x="437" y="-58" font-family="Ubuntu-R" font-size="10.00">_difference.fdwrap_G</text>
</a>
</g>
</g>
<!-- Node4&#45;&gt;Node5 -->
<g id="edge4" class="edge"><title>Node4&#45;&gt;Node5</title>
<path fill="none" stroke="midnightblue" d="M348.399,-60.5616C356.729,-60.3077 365.551,-60.2089 374.263,-60.2654"/>
<polygon fill="midnightblue" stroke="midnightblue" points="374.358,-63.7669 384.405,-60.403 374.453,-56.7676 374.358,-63.7669"/>
</g>
<!-- Node6 -->
<g id="node6" class="node"><title>Node6</title>
<g id="a_node6"><a xlink:href="namespaceforcebalance_1_1finite__difference.html#a77a0bc1ae3cbbcc8d38a0ef9ca877d6d" target="_top" xlink:title="A driver to fdwrap for Hessians (see documentation for fdwrap) Inputs: tgt = The Target containing th...">
<polygon fill="white" stroke="black" points="384.721,-0 384.721,-32 489.279,-32 489.279,-0 384.721,-0"/>
<text text-anchor="start" x="392.721" y="-19" font-family="Ubuntu-R" font-size="10.00">forcebalance.finite</text>
<text text-anchor="middle" x="437" y="-7" font-family="Ubuntu-R" font-size="10.00">_difference.fdwrap_H</text>
</a>
</g>
</g>
<!-- Node4&#45;&gt;Node6 -->
<g id="edge6" class="edge"><title>Node4&#45;&gt;Node6</title>
<path fill="none" stroke="midnightblue" d="M345.082,-50.8633C357.697,-46.0258 371.674,-40.6663 384.808,-35.6299"/>
<polygon fill="midnightblue" stroke="midnightblue" points="386.108,-38.8802 394.192,-32.0317 383.601,-32.3442 386.108,-38.8802"/>
</g>
<!-- Node5&#45;&gt;Node4 -->
<g id="edge5" class="edge"><title>Node5&#45;&gt;Node4</title>
<path fill="none" stroke="midnightblue" d="M384.405,-73.597C375.963,-73.773 367.183,-73.7972 358.649,-73.6695"/>
<polygon fill="midnightblue" stroke="midnightblue" points="358.475,-70.1648 348.399,-73.4384 358.318,-77.163 358.475,-70.1648"/>
</g>
</g>
</svg>
