<?xml version="1.0" encoding="UTF-8" standalone="no"?>
<!DOCTYPE svg PUBLIC "-//W3C//DTD SVG 1.1//EN"
 "http://www.w3.org/Graphics/SVG/1.1/DTD/svg11.dtd">
<!-- Generated by graphviz version 2.40.1 (20161225.0304)
 -->
<!-- Title: src.amberio.is_mol2_atom Pages: 1 -->
<svg width="302pt" height="66pt"
 viewBox="0.00 0.00 302.00 66.00" xmlns="http://www.w3.org/2000/svg" xmlns:xlink="http://www.w3.org/1999/xlink">
<g id="graph0" class="graph" transform="scale(1 1) rotate(0) translate(4 62)">
<title>src.amberio.is_mol2_atom</title>
<polygon fill="#ffffff" stroke="transparent" points="-4,4 -4,-62 298,-62 298,4 -4,4"/>
<!-- Node0 -->
<g id="node1" class="node">
<title>Node0</title>
<polygon fill="#bfbfbf" stroke="#000000" points="0,-19.5 0,-38.5 146,-38.5 146,-19.5 0,-19.5"/>
<text text-anchor="middle" x="73" y="-26.5" font-family="Ubuntu-R" font-size="10.00" fill="#000000">src.amberio.is_mol2_atom</text>
</g>
<!-- Node1 -->
<g id="node2" class="node">
<title>Node1</title>
<g id="a_node2"><a xlink:href="namespacesrc_1_1molecule.html#a651f6c6d23932f5a2151784c992e94a8" target="_top" xlink:title="ONLY matches integers! If you have a decimal point? None shall pass! ">
<polygon fill="#ffffff" stroke="#000000" points="186.5,-38.5 186.5,-57.5 289.5,-57.5 289.5,-38.5 186.5,-38.5"/>
<text text-anchor="middle" x="238" y="-45.5" font-family="Ubuntu-R" font-size="10.00" fill="#000000">src.molecule.isint</text>
</a>
</g>
</g>
<!-- Node0&#45;&gt;Node1 -->
<g id="edge1" class="edge">
<title>Node0&#45;&gt;Node1</title>
<path fill="none" stroke="#191970" d="M146.3323,-37.4443C156.2975,-38.5918 166.4434,-39.7601 176.1786,-40.8812"/>
<polygon fill="#191970" stroke="#191970" points="175.8155,-44.3624 186.1503,-42.0294 176.6163,-37.4084 175.8155,-44.3624"/>
</g>
<!-- Node2 -->
<g id="node3" class="node">
<title>Node2</title>
<g id="a_node3"><a xlink:href="namespacesrc_1_1molecule.html#ac2056d27322c6ee6dff0bef3755f2ed3" target="_top" xlink:title="Matches ANY number; it can be a decimal, scientific notation, integer, or what have you...">
<polygon fill="#ffffff" stroke="#000000" points="182,-.5 182,-19.5 294,-19.5 294,-.5 182,-.5"/>
<text text-anchor="middle" x="238" y="-7.5" font-family="Ubuntu-R" font-size="10.00" fill="#000000">src.molecule.isfloat</text>
</a>
</g>
</g>
<!-- Node0&#45;&gt;Node2 -->
<g id="edge2" class="edge">
<title>Node0&#45;&gt;Node2</title>
<path fill="none" stroke="#191970" d="M146.3323,-20.5557C154.7765,-19.5833 163.3504,-18.596 171.6943,-17.6352"/>
<polygon fill="#191970" stroke="#191970" points="172.1997,-21.1002 181.7337,-16.4792 171.3989,-14.1462 172.1997,-21.1002"/>
</g>
</g>
</svg>
