<?xml version="1.0" encoding="UTF-8" standalone="no"?>
<!DOCTYPE svg PUBLIC "-//W3C//DTD SVG 1.1//EN"
 "http://www.w3.org/Graphics/SVG/1.1/DTD/svg11.dtd">
<!-- Generated by graphviz version 2.32.0 (20130801.1845)
 -->
<!-- Title: forcebalance.nifty.uncommadash Pages: 1 -->
<svg width="1660pt" height="146pt"
 viewBox="0.00 0.00 1660.00 146.00" xmlns="http://www.w3.org/2000/svg" xmlns:xlink="http://www.w3.org/1999/xlink">
<g id="graph0" class="graph" transform="scale(1 1) rotate(0) translate(4 142)">
<title>forcebalance.nifty.uncommadash</title>
<polygon fill="white" stroke="white" points="-4,5 -4,-142 1657,-142 1657,5 -4,5"/>
<!-- Node1 -->
<g id="node1" class="node"><title>Node1</title>
<polygon fill="#bfbfbf" stroke="black" points="0.639,-86 0.639,-106 149.361,-106 149.361,-86 0.639,-86"/>
<text text-anchor="middle" x="75" y="-93" font-family="Ubuntu-R" font-size="10.00">forcebalance.nifty.uncommadash</text>
</g>
<!-- Node2 -->
<g id="node2" class="node"><title>Node2</title>
<g id="a_node2"><a xlink:href="namespaceforcebalance_1_1nifty.html#a11babd62dc7bca389162c6318f9672ca" target="_top" xlink:title="Cool&#45;looking printout for slick formatting of output.">
<polygon fill="white" stroke="black" points="186.469,-86 186.469,-106 313.531,-106 313.531,-86 186.469,-86"/>
<text text-anchor="middle" x="250" y="-93" font-family="Ubuntu-R" font-size="10.00">forcebalance.nifty.printcool</text>
</a>
</g>
</g>
<!-- Node1&#45;&gt;Node2 -->
<g id="edge1" class="edge"><title>Node1&#45;&gt;Node2</title>
<path fill="none" stroke="midnightblue" d="M149.368,-96C158.334,-96 167.492,-96 176.446,-96"/>
<polygon fill="midnightblue" stroke="midnightblue" points="176.448,-99.5001 186.448,-96 176.447,-92.5001 176.448,-99.5001"/>
</g>
<!-- Node3 -->
<g id="node3" class="node"><title>Node3</title>
<g id="a_node3"><a xlink:href="namespaceforcebalance_1_1nifty.html#abb8f59044961a12588e0653c2baa8b01" target="_top" xlink:title="forcebalance.nifty.warn\l_press_key">
<polygon fill="white" stroke="black" points="1331.53,-105 1331.53,-137 1442.47,-137 1442.47,-105 1331.53,-105"/>
<text text-anchor="start" x="1339.53" y="-124" font-family="Ubuntu-R" font-size="10.00">forcebalance.nifty.warn</text>
<text text-anchor="middle" x="1387" y="-112" font-family="Ubuntu-R" font-size="10.00">_press_key</text>
</a>
</g>
</g>
<!-- Node2&#45;&gt;Node3 -->
<g id="edge2" class="edge"><title>Node2&#45;&gt;Node3</title>
<path fill="none" stroke="midnightblue" d="M313.775,-105.809C377.413,-114.891 478.801,-127 567,-127 567,-127 567,-127 1043,-127 1139.87,-127 1252.11,-124.578 1321.08,-122.812"/>
<polygon fill="midnightblue" stroke="midnightblue" points="1321.45,-126.303 1331.35,-122.545 1321.26,-119.306 1321.45,-126.303"/>
</g>
<!-- Node5 -->
<g id="node5" class="node"><title>Node5</title>
<g id="a_node5"><a xlink:href="namespaceforcebalance_1_1nifty.html#a51180e960742cc7547749fdfb3513ec4" target="_top" xlink:title="See documentation for printcool; this is a nice way to print out keys/values in a dictionary...">
<polygon fill="white" stroke="black" points="350.469,-50 350.469,-82 477.531,-82 477.531,-50 350.469,-50"/>
<text text-anchor="start" x="358.469" y="-69" font-family="Ubuntu-R" font-size="10.00">forcebalance.nifty.printcool</text>
<text text-anchor="middle" x="414" y="-57" font-family="Ubuntu-R" font-size="10.00">_dictionary</text>
</a>
</g>
</g>
<!-- Node2&#45;&gt;Node5 -->
<g id="edge4" class="edge"><title>Node2&#45;&gt;Node5</title>
<path fill="none" stroke="midnightblue" d="M305.394,-85.927C316.669,-83.8391 328.717,-81.608 340.521,-79.422"/>
<polygon fill="midnightblue" stroke="midnightblue" points="341.161,-82.8631 350.357,-77.6006 339.886,-75.9801 341.161,-82.8631"/>
</g>
<!-- Node4 -->
<g id="node4" class="node"><title>Node4</title>
<g id="a_node4"><a xlink:href="namespaceforcebalance_1_1nifty.html#a2fc81730e7efa7d138dd86f733507bfc" target="_top" xlink:title="Similar to the bultin function map().">
<polygon fill="white" stroke="black" points="1496.04,-111 1496.04,-131 1651.96,-131 1651.96,-111 1496.04,-111"/>
<text text-anchor="middle" x="1574" y="-118" font-family="Ubuntu-R" font-size="10.00">forcebalance.nifty.concurrent_map</text>
</a>
</g>
</g>
<!-- Node3&#45;&gt;Node4 -->
<g id="edge3" class="edge"><title>Node3&#45;&gt;Node4</title>
<path fill="none" stroke="midnightblue" d="M1442.51,-121C1456.1,-121 1471.02,-121 1485.77,-121"/>
<polygon fill="midnightblue" stroke="midnightblue" points="1485.92,-124.5 1495.92,-121 1485.92,-117.5 1485.92,-124.5"/>
</g>
<!-- Node6 -->
<g id="node6" class="node"><title>Node6</title>
<g id="a_node6"><a xlink:href="namespaceforcebalance_1_1nifty.html#a3f1c7a1af9d35d5d1693074bc6f5497c" target="_top" xlink:title="ONLY matches integers! If you have a decimal point? None shall pass!">
<polygon fill="white" stroke="black" points="513.908,-56 513.908,-76 622.092,-76 622.092,-56 513.908,-56"/>
<text text-anchor="middle" x="568" y="-63" font-family="Ubuntu-R" font-size="10.00">forcebalance.nifty.isint</text>
</a>
</g>
</g>
<!-- Node5&#45;&gt;Node6 -->
<g id="edge5" class="edge"><title>Node5&#45;&gt;Node6</title>
<path fill="none" stroke="midnightblue" d="M477.702,-66C486.19,-66 494.907,-66 503.41,-66"/>
<polygon fill="midnightblue" stroke="midnightblue" points="503.648,-69.5001 513.648,-66 503.648,-62.5001 503.648,-69.5001"/>
</g>
<!-- Node8 -->
<g id="node8" class="node"><title>Node8</title>
<g id="a_node8"><a xlink:href="namespaceforcebalance_1_1nifty.html#a8e3ef0108b9d37b82ba0dced7c6037ae" target="_top" xlink:title="Matches ANY number; it can be a decimal, scientific notation, what have you CAUTION &#45; this will also ...">
<polygon fill="white" stroke="black" points="824.024,-20 824.024,-40 939.976,-40 939.976,-20 824.024,-20"/>
<text text-anchor="middle" x="882" y="-27" font-family="Ubuntu-R" font-size="10.00">forcebalance.nifty.isfloat</text>
</a>
</g>
</g>
<!-- Node5&#45;&gt;Node8 -->
<g id="edge20" class="edge"><title>Node5&#45;&gt;Node8</title>
<path fill="none" stroke="midnightblue" d="M477.62,-51.9352C489.644,-49.6365 502.173,-47.5152 514,-46 618.068,-32.6676 739.942,-29.8632 813.76,-29.5615"/>
<polygon fill="midnightblue" stroke="midnightblue" points="813.859,-33.0614 823.85,-29.5347 813.841,-26.0614 813.859,-33.0614"/>
</g>
<!-- Node7 -->
<g id="node7" class="node"><title>Node7</title>
<g id="a_node7"><a xlink:href="namespaceforcebalance_1_1nifty.html#a09263927eaec9deff283fbf1a820242f" target="_top" xlink:title="Matches things with a decimal only; see isint and isfloat.">
<polygon fill="white" stroke="black" points="658.36,-78 658.36,-98 787.64,-98 787.64,-78 658.36,-78"/>
<text text-anchor="middle" x="723" y="-85" font-family="Ubuntu-R" font-size="10.00">forcebalance.nifty.isdecimal</text>
</a>
</g>
</g>
<!-- Node6&#45;&gt;Node7 -->
<g id="edge6" class="edge"><title>Node6&#45;&gt;Node7</title>
<path fill="none" stroke="midnightblue" d="M622.512,-73.6945C630.812,-74.8879 639.509,-76.1386 648.161,-77.3827"/>
<polygon fill="midnightblue" stroke="midnightblue" points="647.874,-80.8773 658.271,-78.8363 648.871,-73.9486 647.874,-80.8773"/>
</g>
<!-- Node7&#45;&gt;Node8 -->
<g id="edge7" class="edge"><title>Node7&#45;&gt;Node8</title>
<path fill="none" stroke="midnightblue" d="M751.347,-77.8972C777.046,-68.4035 815.699,-54.124 844.116,-43.6258"/>
<polygon fill="midnightblue" stroke="midnightblue" points="845.536,-46.8327 853.703,-40.0842 843.11,-40.2665 845.536,-46.8327"/>
</g>
<!-- Node12 -->
<g id="node12" class="node"><title>Node12</title>
<g id="a_node12"><a xlink:href="namespaceforcebalance_1_1nifty.html#afb3f205bce4984856e766af7e9fdaca8" target="_top" xlink:title="Given any list, array, or matrix, return a 1&#45;column matrix.">
<polygon fill="white" stroke="black" points="830.412,-78 830.412,-98 933.588,-98 933.588,-78 830.412,-78"/>
<text text-anchor="middle" x="882" y="-85" font-family="Ubuntu-R" font-size="10.00">forcebalance.nifty.col</text>
</a>
</g>
</g>
<!-- Node7&#45;&gt;Node12 -->
<g id="edge12" class="edge"><title>Node7&#45;&gt;Node12</title>
<path fill="none" stroke="midnightblue" d="M787.858,-88C798.427,-88 809.364,-88 819.864,-88"/>
<polygon fill="midnightblue" stroke="midnightblue" points="820.189,-91.5001 830.189,-88 820.189,-84.5001 820.189,-91.5001"/>
</g>
<!-- Node8&#45;&gt;Node6 -->
<g id="edge8" class="edge"><title>Node8&#45;&gt;Node6</title>
<path fill="none" stroke="midnightblue" d="M823.978,-36.5794C769.846,-42.8255 688.625,-52.1971 632.463,-58.6773"/>
<polygon fill="midnightblue" stroke="midnightblue" points="631.813,-55.229 622.28,-59.8523 632.616,-62.1829 631.813,-55.229"/>
</g>
<!-- Node9 -->
<g id="node9" class="node"><title>Node9</title>
<g id="a_node9"><a xlink:href="namespaceforcebalance_1_1nifty.html#a8d63c8ae9a67c66673a6cf81357f827d" target="_top" xlink:title="Returns a big number if we encounter NaN.">
<polygon fill="white" stroke="black" points="975.974,-0 975.974,-20 1108.03,-20 1108.03,-0 975.974,-0"/>
<text text-anchor="middle" x="1042" y="-7" font-family="Ubuntu-R" font-size="10.00">forcebalance.nifty.floatornan</text>
</a>
</g>
</g>
<!-- Node8&#45;&gt;Node9 -->
<g id="edge9" class="edge"><title>Node8&#45;&gt;Node9</title>
<path fill="none" stroke="midnightblue" d="M940.042,-22.7795C948.364,-21.726 957.04,-20.6278 965.658,-19.5369"/>
<polygon fill="midnightblue" stroke="midnightblue" points="966.242,-22.9911 975.723,-18.2629 965.363,-16.0465 966.242,-22.9911"/>
</g>
<!-- Node10 -->
<g id="node10" class="node"><title>Node10</title>
<g id="a_node10"><a xlink:href="namespaceforcebalance_1_1nifty.html#a6c9727360cdff8f3011a12cc54d0e86e" target="_top" xlink:title="Given any list, array, or matrix, return a 1&#45;row matrix.">
<polygon fill="white" stroke="black" points="1157.75,-0 1157.75,-20 1264.25,-20 1264.25,-0 1157.75,-0"/>
<text text-anchor="middle" x="1211" y="-7" font-family="Ubuntu-R" font-size="10.00">forcebalance.nifty.row</text>
</a>
</g>
</g>
<!-- Node9&#45;&gt;Node10 -->
<g id="edge10" class="edge"><title>Node9&#45;&gt;Node10</title>
<path fill="none" stroke="midnightblue" d="M1108.04,-10C1120.98,-10 1134.54,-10 1147.39,-10"/>
<polygon fill="midnightblue" stroke="midnightblue" points="1147.52,-13.5001 1157.52,-10 1147.52,-6.5001 1147.52,-13.5001"/>
</g>
<!-- Node11 -->
<g id="node11" class="node"><title>Node11</title>
<g id="a_node11"><a xlink:href="namespaceforcebalance_1_1nifty.html#a7676236002c6a65ea7d2e69a09923889" target="_top" xlink:title="Given two vectors vec1 and vec2, project out the component of vec1 that is along the vec2&#45;direction...">
<polygon fill="white" stroke="black" points="1314.03,-0 1314.03,-20 1459.97,-20 1459.97,-0 1314.03,-0"/>
<text text-anchor="middle" x="1387" y="-7" font-family="Ubuntu-R" font-size="10.00">forcebalance.nifty.orthogonalize</text>
</a>
</g>
</g>
<!-- Node10&#45;&gt;Node11 -->
<g id="edge11" class="edge"><title>Node10&#45;&gt;Node11</title>
<path fill="none" stroke="midnightblue" d="M1264.68,-10C1277.03,-10 1290.49,-10 1303.79,-10"/>
<polygon fill="midnightblue" stroke="midnightblue" points="1303.92,-13.5001 1313.92,-10 1303.92,-6.5001 1303.92,-13.5001"/>
</g>
<!-- Node13 -->
<g id="node13" class="node"><title>Node13</title>
<g id="a_node13"><a xlink:href="namespaceforcebalance_1_1nifty.html#a52114ceee9d55f94d9aecb3e176de294" target="_top" xlink:title="Given any list, array, or matrix, return a single&#45;index array.">
<polygon fill="white" stroke="black" points="989.858,-39 989.858,-59 1094.14,-59 1094.14,-39 989.858,-39"/>
<text text-anchor="middle" x="1042" y="-46" font-family="Ubuntu-R" font-size="10.00">forcebalance.nifty.flat</text>
</a>
</g>
</g>
<!-- Node12&#45;&gt;Node13 -->
<g id="edge13" class="edge"><title>Node12&#45;&gt;Node13</title>
<path fill="none" stroke="midnightblue" d="M923.689,-77.9565C944.054,-72.9298 968.9,-66.7968 990.475,-61.4713"/>
<polygon fill="midnightblue" stroke="midnightblue" points="991.579,-64.804 1000.45,-59.0094 989.902,-58.0079 991.579,-64.804"/>
</g>
<!-- Node14 -->
<g id="node14" class="node"><title>Node14</title>
<g id="a_node14"><a xlink:href="namespaceforcebalance_1_1nifty.html#a4c82187e92dfeb8a159f4aa44b501c40" target="_top" xlink:title="Invert a matrix using singular value decomposition.">
<polygon fill="white" stroke="black" points="1144.41,-78 1144.41,-98 1277.59,-98 1277.59,-78 1144.41,-78"/>
<text text-anchor="middle" x="1211" y="-85" font-family="Ubuntu-R" font-size="10.00">forcebalance.nifty.invert_svd</text>
</a>
</g>
</g>
<!-- Node13&#45;&gt;Node14 -->
<g id="edge14" class="edge"><title>Node13&#45;&gt;Node14</title>
<path fill="none" stroke="midnightblue" d="M1086.01,-59.0435C1107.73,-64.1157 1134.27,-70.3143 1157.22,-75.6731"/>
<polygon fill="midnightblue" stroke="midnightblue" points="1156.61,-79.1246 1167.14,-77.9906 1158.2,-72.3081 1156.61,-79.1246"/>
</g>
<!-- Node14&#45;&gt;Node3 -->
<g id="edge19" class="edge"><title>Node14&#45;&gt;Node3</title>
<path fill="none" stroke="midnightblue" d="M1265.15,-98.0804C1282.94,-101.454 1302.97,-105.253 1321.53,-108.773"/>
<polygon fill="midnightblue" stroke="midnightblue" points="1320.89,-112.215 1331.37,-110.639 1322.2,-105.337 1320.89,-112.215"/>
</g>
<!-- Node14&#45;&gt;Node12 -->
<g id="edge18" class="edge"><title>Node14&#45;&gt;Node12</title>
<path fill="none" stroke="midnightblue" d="M1144.17,-88C1085.72,-88 1000.98,-88 944.033,-88"/>
<polygon fill="midnightblue" stroke="midnightblue" points="943.735,-84.5001 933.735,-88 943.735,-91.5001 943.735,-84.5001"/>
</g>
<!-- Node15 -->
<g id="node15" class="node"><title>Node15</title>
<g id="a_node15"><a xlink:href="namespaceforcebalance_1_1nifty.html#aa9fb9c7c65231eca50a7afc04f489b64" target="_top" xlink:title="forcebalance.nifty.get\l_least_squares">
<polygon fill="white" stroke="black" points="1335.41,-49 1335.41,-81 1438.59,-81 1438.59,-49 1335.41,-49"/>
<text text-anchor="start" x="1343.41" y="-68" font-family="Ubuntu-R" font-size="10.00">forcebalance.nifty.get</text>
<text text-anchor="middle" x="1387" y="-56" font-family="Ubuntu-R" font-size="10.00">_least_squares</text>
</a>
</g>
</g>
<!-- Node14&#45;&gt;Node15 -->
<g id="edge15" class="edge"><title>Node14&#45;&gt;Node15</title>
<path fill="none" stroke="midnightblue" d="M1277.78,-79.3047C1293.26,-77.2582 1309.7,-75.0855 1324.96,-73.0679"/>
<polygon fill="midnightblue" stroke="midnightblue" points="1325.86,-76.4797 1335.32,-71.6994 1324.95,-69.5401 1325.86,-76.4797"/>
</g>
<!-- Node15&#45;&gt;Node13 -->
<g id="edge16" class="edge"><title>Node15&#45;&gt;Node13</title>
<path fill="none" stroke="midnightblue" d="M1335.14,-62.6275C1273.72,-59.7622 1170.46,-54.9457 1104.59,-51.873"/>
<polygon fill="midnightblue" stroke="midnightblue" points="1104.5,-48.3652 1094.35,-51.3954 1104.18,-55.3576 1104.5,-48.3652"/>
</g>
<!-- Node16 -->
<g id="node16" class="node"><title>Node16</title>
<g id="a_node16"><a xlink:href="namespaceforcebalance_1_1nifty.html#ad5ca60565c864b4245a8212fe9d92e10" target="_top" xlink:title="Compute the (cross) statistical inefficiency of (two) timeseries.">
<polygon fill="white" stroke="black" points="1509.64,-49 1509.64,-81 1638.36,-81 1638.36,-49 1509.64,-49"/>
<text text-anchor="start" x="1517.64" y="-68" font-family="Ubuntu-R" font-size="10.00">forcebalance.nifty.statistical</text>
<text text-anchor="middle" x="1574" y="-56" font-family="Ubuntu-R" font-size="10.00">Inefficiency</text>
</a>
</g>
</g>
<!-- Node15&#45;&gt;Node16 -->
<g id="edge17" class="edge"><title>Node15&#45;&gt;Node16</title>
<path fill="none" stroke="midnightblue" d="M1439.04,-65C1457.71,-65 1479.21,-65 1499.45,-65"/>
<polygon fill="midnightblue" stroke="midnightblue" points="1499.58,-68.5001 1509.58,-65 1499.58,-61.5001 1499.58,-68.5001"/>
</g>
</g>
</svg>
