<?xml version="1.0" encoding="UTF-8" standalone="no"?>
<!DOCTYPE svg PUBLIC "-//W3C//DTD SVG 1.1//EN"
 "http://www.w3.org/Graphics/SVG/1.1/DTD/svg11.dtd">
<!-- Generated by graphviz version 2.28.0 (20111219.2309)
 -->
<!-- Title: G Pages: 1 -->
<svg width="750pt" height="66pt"
 viewBox="0.00 0.00 750.00 66.00" xmlns="http://www.w3.org/2000/svg" xmlns:xlink="http://www.w3.org/1999/xlink">
<g id="graph1" class="graph" transform="scale(1 1) rotate(0) translate(4 62)">
<title>G</title>
<polygon fill="white" stroke="white" points="-4,5 -4,-62 747,-62 747,5 -4,5"/>
<!-- Node1 -->
<g id="node1" class="node"><title>Node1</title>
<polygon fill="#bfbfbf" stroke="black" points="0,-19.5 0,-38.5 142,-38.5 142,-19.5 0,-19.5"/>
<text text-anchor="middle" x="71" y="-26.5" font-family="Ubuntu-R" font-size="10.00">forcebalance.nifty.CopyFile</text>
</g>
<!-- Node2 -->
<g id="node3" class="node"><title>Node2</title>
<a xlink:href="namespaceforcebalance_1_1nifty.html#aa1ff334c4b4e30e91978b91d9a9ec065" target="_top" xlink:title="forcebalance.nifty.which">
<polygon fill="white" stroke="black" points="178.5,-19.5 178.5,-38.5 307.5,-38.5 307.5,-19.5 178.5,-19.5"/>
<text text-anchor="middle" x="243" y="-26.5" font-family="Ubuntu-R" font-size="10.00">forcebalance.nifty.which</text>
</a>
</g>
<!-- Node1&#45;&gt;Node2 -->
<g id="edge2" class="edge"><title>Node1&#45;&gt;Node2</title>
<path fill="none" stroke="midnightblue" d="M142.127,-29C150.739,-29 159.561,-29 168.224,-29"/>
<polygon fill="midnightblue" stroke="midnightblue" points="168.3,-32.5001 178.3,-29 168.3,-25.5001 168.3,-32.5001"/>
</g>
<!-- Node3 -->
<g id="node5" class="node"><title>Node3</title>
<a xlink:href="namespaceforcebalance_1_1nifty.html#abb8f59044961a12588e0653c2baa8b01" target="_top" xlink:title="forcebalance.nifty.warn_press_key">
<polygon fill="white" stroke="black" points="344.5,-38.5 344.5,-57.5 523.5,-57.5 523.5,-38.5 344.5,-38.5"/>
<text text-anchor="middle" x="434" y="-45.5" font-family="Ubuntu-R" font-size="10.00">forcebalance.nifty.warn_press_key</text>
</a>
</g>
<!-- Node2&#45;&gt;Node3 -->
<g id="edge4" class="edge"><title>Node2&#45;&gt;Node3</title>
<path fill="none" stroke="midnightblue" d="M307.723,-35.406C316.288,-36.2671 325.232,-37.1661 334.227,-38.0704"/>
<polygon fill="midnightblue" stroke="midnightblue" points="334.087,-41.574 344.387,-39.0919 334.788,-34.6091 334.087,-41.574"/>
</g>
<!-- Node4 -->
<g id="node7" class="node"><title>Node4</title>
<a xlink:href="namespaceforcebalance_1_1nifty.html#a26e563ec71ed229c30f3d61d3448c8f1" target="_top" xlink:title="Prints a warning but will only do so once in a given run.">
<polygon fill="white" stroke="black" points="357,-0.5 357,-19.5 511,-19.5 511,-0.5 357,-0.5"/>
<text text-anchor="middle" x="434" y="-7.5" font-family="Ubuntu-R" font-size="10.00">forcebalance.nifty.warn_once</text>
</a>
</g>
<!-- Node2&#45;&gt;Node4 -->
<g id="edge6" class="edge"><title>Node2&#45;&gt;Node4</title>
<path fill="none" stroke="midnightblue" d="M307.723,-22.594C320.277,-21.332 333.644,-19.9882 346.794,-18.6662"/>
<polygon fill="midnightblue" stroke="midnightblue" points="347.192,-22.1439 356.792,-17.6611 346.492,-15.179 347.192,-22.1439"/>
</g>
<!-- Node5 -->
<g id="node9" class="node"><title>Node5</title>
<a xlink:href="namespaceforcebalance_1_1nifty.html#a2fc81730e7efa7d138dd86f733507bfc" target="_top" xlink:title="Similar to the bultin function map().">
<polygon fill="white" stroke="black" points="560,-0.5 560,-19.5 742,-19.5 742,-0.5 560,-0.5"/>
<text text-anchor="middle" x="651" y="-7.5" font-family="Ubuntu-R" font-size="10.00">forcebalance.nifty.concurrent_map</text>
</a>
</g>
<!-- Node4&#45;&gt;Node5 -->
<g id="edge8" class="edge"><title>Node4&#45;&gt;Node5</title>
<path fill="none" stroke="midnightblue" d="M511.104,-10C523.495,-10 536.496,-10 549.366,-10"/>
<polygon fill="midnightblue" stroke="midnightblue" points="549.645,-13.5001 559.644,-10 549.644,-6.5001 549.645,-13.5001"/>
</g>
</g>
</svg>
