<?xml version="1.0" encoding="UTF-8" standalone="no"?>
<!DOCTYPE svg PUBLIC "-//W3C//DTD SVG 1.1//EN"
 "http://www.w3.org/Graphics/SVG/1.1/DTD/svg11.dtd">
<!-- Generated by graphviz version 2.28.0 (20111219.2309)
 -->
<!-- Title: forcebalance.nifty.flat Pages: 1 -->
<svg width="694pt" height="126pt"
 viewBox="0.00 0.00 694.00 126.00" xmlns="http://www.w3.org/2000/svg" xmlns:xlink="http://www.w3.org/1999/xlink">
<g id="graph1" class="graph" transform="scale(1 1) rotate(0) translate(4 122)">
<title>forcebalance.nifty.flat</title>
<polygon fill="white" stroke="white" points="-4,5 -4,-122 691,-122 691,5 -4,5"/>
<!-- Node1 -->
<g id="node1" class="node"><title>Node1</title>
<polygon fill="#bfbfbf" stroke="black" points="0,-44.5 0,-63.5 118,-63.5 118,-44.5 0,-44.5"/>
<text text-anchor="middle" x="59" y="-51.5" font-family="Ubuntu-R" font-size="10.00">forcebalance.nifty.flat</text>
</g>
<!-- Node2 -->
<g id="node3" class="node"><title>Node2</title>
<a xlink:href="namespaceforcebalance_1_1nifty.html#a4c82187e92dfeb8a159f4aa44b501c40" target="_top" xlink:title="Invert a matrix using singular value decomposition. ">
<polygon fill="white" stroke="black" points="154,-44.5 154,-63.5 306,-63.5 306,-44.5 154,-44.5"/>
<text text-anchor="middle" x="230" y="-51.5" font-family="Ubuntu-R" font-size="10.00">forcebalance.nifty.invert_svd</text>
</a>
</g>
<!-- Node1&#45;&gt;Node2 -->
<g id="edge2" class="edge"><title>Node1&#45;&gt;Node2</title>
<path fill="none" stroke="midnightblue" d="M118.16,-54C126.395,-54 135.001,-54 143.62,-54"/>
<polygon fill="midnightblue" stroke="midnightblue" points="143.721,-57.5001 153.721,-54 143.721,-50.5001 143.721,-57.5001"/>
</g>
<!-- Node3 -->
<g id="node5" class="node"><title>Node3</title>
<a xlink:href="namespaceforcebalance_1_1nifty.html#aa9fb9c7c65231eca50a7afc04f489b64" target="_top" xlink:title="forcebalance.nifty.get\l_least_squares">
<polygon fill="white" stroke="black" points="345.5,-88 345.5,-118 464.5,-118 464.5,-88 345.5,-88"/>
<text text-anchor="start" x="353.5" y="-106" font-family="Ubuntu-R" font-size="10.00">forcebalance.nifty.get</text>
<text text-anchor="middle" x="405" y="-95" font-family="Ubuntu-R" font-size="10.00">_least_squares</text>
</a>
</g>
<!-- Node2&#45;&gt;Node3 -->
<g id="edge4" class="edge"><title>Node2&#45;&gt;Node3</title>
<path fill="none" stroke="midnightblue" d="M264.767,-63.564C286.478,-69.7134 315.356,-77.8928 341.183,-85.2078"/>
<polygon fill="midnightblue" stroke="midnightblue" points="340.335,-88.6053 350.91,-87.963 342.243,-81.8703 340.335,-88.6053"/>
</g>
<!-- Node5 -->
<g id="node10" class="node"><title>Node5</title>
<a xlink:href="namespaceforcebalance_1_1nifty.html#afb3f205bce4984856e766af7e9fdaca8" target="_top" xlink:title="Given any list, array, or matrix, return a 1&#45;column matrix. ">
<polygon fill="white" stroke="black" points="347,-0.5 347,-19.5 463,-19.5 463,-0.5 347,-0.5"/>
<text text-anchor="middle" x="405" y="-7.5" font-family="Ubuntu-R" font-size="10.00">forcebalance.nifty.col</text>
</a>
</g>
<!-- Node2&#45;&gt;Node5 -->
<g id="edge10" class="edge"><title>Node2&#45;&gt;Node5</title>
<path fill="none" stroke="midnightblue" d="M268.538,-44.4527C294.382,-37.8796 328.921,-29.0952 356.654,-22.0417"/>
<polygon fill="midnightblue" stroke="midnightblue" points="357.706,-25.3857 366.535,-19.5287 355.981,-18.6017 357.706,-25.3857"/>
</g>
<!-- Node6 -->
<g id="node13" class="node"><title>Node6</title>
<a xlink:href="namespaceforcebalance_1_1nifty.html#abb8f59044961a12588e0653c2baa8b01" target="_top" xlink:title="forcebalance.nifty.warn\l_press_key">
<polygon fill="white" stroke="black" points="342.5,-39 342.5,-69 467.5,-69 467.5,-39 342.5,-39"/>
<text text-anchor="start" x="350.5" y="-57" font-family="Ubuntu-R" font-size="10.00">forcebalance.nifty.warn</text>
<text text-anchor="middle" x="405" y="-46" font-family="Ubuntu-R" font-size="10.00">_press_key</text>
</a>
</g>
<!-- Node2&#45;&gt;Node6 -->
<g id="edge14" class="edge"><title>Node2&#45;&gt;Node6</title>
<path fill="none" stroke="midnightblue" d="M306.126,-54C314.842,-54 323.716,-54 332.384,-54"/>
<polygon fill="midnightblue" stroke="midnightblue" points="332.444,-57.5001 342.444,-54 332.444,-50.5001 332.444,-57.5001"/>
</g>
<!-- Node3&#45;&gt;Node1 -->
<g id="edge6" class="edge"><title>Node3&#45;&gt;Node1</title>
<path fill="none" stroke="midnightblue" d="M345.472,-97.3144C294.689,-92.0623 219.279,-83.4969 154,-73 140.77,-70.8726 126.567,-68.2048 113.312,-65.5468"/>
<polygon fill="midnightblue" stroke="midnightblue" points="113.889,-62.0926 103.391,-63.5252 112.491,-68.9516 113.889,-62.0926"/>
</g>
<!-- Node4 -->
<g id="node8" class="node"><title>Node4</title>
<a xlink:href="namespaceforcebalance_1_1nifty.html#ad5ca60565c864b4245a8212fe9d92e10" target="_top" xlink:title="Compute the (cross) statistical inefficiency of (two) timeseries. ">
<polygon fill="white" stroke="black" points="520.5,-88 520.5,-118 669.5,-118 669.5,-88 520.5,-88"/>
<text text-anchor="start" x="528.5" y="-106" font-family="Ubuntu-R" font-size="10.00">forcebalance.nifty.statistical</text>
<text text-anchor="middle" x="595" y="-95" font-family="Ubuntu-R" font-size="10.00">Inefficiency</text>
</a>
</g>
<!-- Node3&#45;&gt;Node4 -->
<g id="edge8" class="edge"><title>Node3&#45;&gt;Node4</title>
<path fill="none" stroke="midnightblue" d="M464.711,-103C479.205,-103 495.008,-103 510.433,-103"/>
<polygon fill="midnightblue" stroke="midnightblue" points="510.496,-106.5 520.496,-103 510.496,-99.5001 510.496,-106.5"/>
</g>
<!-- Node5&#45;&gt;Node1 -->
<g id="edge12" class="edge"><title>Node5&#45;&gt;Node1</title>
<path fill="none" stroke="midnightblue" d="M346.705,-14.0948C295.902,-18.1143 219.777,-25.0888 154,-35 140.487,-37.0361 125.976,-39.7198 112.496,-42.4264"/>
<polygon fill="midnightblue" stroke="midnightblue" points="111.517,-39.0542 102.423,-44.4902 112.922,-45.9118 111.517,-39.0542"/>
</g>
<!-- Node7 -->
<g id="node15" class="node"><title>Node7</title>
<a xlink:href="namespaceforcebalance_1_1nifty.html#a2fc81730e7efa7d138dd86f733507bfc" target="_top" xlink:title="Similar to the bultin function map(). ">
<polygon fill="white" stroke="black" points="504,-44.5 504,-63.5 686,-63.5 686,-44.5 504,-44.5"/>
<text text-anchor="middle" x="595" y="-51.5" font-family="Ubuntu-R" font-size="10.00">forcebalance.nifty.concurrent_map</text>
</a>
</g>
<!-- Node6&#45;&gt;Node7 -->
<g id="edge16" class="edge"><title>Node6&#45;&gt;Node7</title>
<path fill="none" stroke="midnightblue" d="M467.558,-54C475.961,-54 484.758,-54 493.632,-54"/>
<polygon fill="midnightblue" stroke="midnightblue" points="493.665,-57.5001 503.665,-54 493.665,-50.5001 493.665,-57.5001"/>
</g>
</g>
</svg>
