<?xml version="1.0" encoding="UTF-8" standalone="no"?>
<!DOCTYPE svg PUBLIC "-//W3C//DTD SVG 1.1//EN"
 "http://www.w3.org/Graphics/SVG/1.1/DTD/svg11.dtd">
<!-- Generated by graphviz version 2.28.0 (20111219.2309)
 -->
<!-- Title: G Pages: 1 -->
<svg width="1124pt" height="104pt"
 viewBox="0.00 0.00 1124.00 104.00" xmlns="http://www.w3.org/2000/svg" xmlns:xlink="http://www.w3.org/1999/xlink">
<g id="graph1" class="graph" transform="scale(1 1) rotate(0) translate(4 100)">
<title>G</title>
<polygon fill="white" stroke="white" points="-4,5 -4,-100 1121,-100 1121,5 -4,5"/>
<!-- Node1 -->
<g id="node1" class="node"><title>Node1</title>
<polygon fill="#bfbfbf" stroke="black" points="0.5,-57.5 0.5,-76.5 187.5,-76.5 187.5,-57.5 0.5,-57.5"/>
<text text-anchor="middle" x="94" y="-64.5" font-family="Ubuntu-R" font-size="10.00">forcebalance.finite_difference.f1d7p</text>
</g>
<!-- Node2 -->
<g id="node3" class="node"><title>Node2</title>
<a xlink:href="namespaceforcebalance_1_1finite__difference.html#acc281f85b668062745f711d9b4a610fa" target="_top" xlink:title="forcebalance.finite_difference.f12d7p">
<polygon fill="white" stroke="black" points="224.5,-57.5 224.5,-76.5 417.5,-76.5 417.5,-57.5 224.5,-57.5"/>
<text text-anchor="middle" x="321" y="-64.5" font-family="Ubuntu-R" font-size="10.00">forcebalance.finite_difference.f12d7p</text>
</a>
</g>
<!-- Node1&#45;&gt;Node2 -->
<g id="edge2" class="edge"><title>Node1&#45;&gt;Node2</title>
<path fill="none" stroke="midnightblue" d="M187.815,-67C196.61,-67 205.571,-67 214.474,-67"/>
<polygon fill="midnightblue" stroke="midnightblue" points="214.488,-70.5001 224.488,-67 214.488,-63.5001 214.488,-70.5001"/>
</g>
<!-- Node3 -->
<g id="node5" class="node"><title>Node3</title>
<a xlink:href="namespaceforcebalance_1_1finite__difference.html#aa69a8819e4680091f400303c1d6ddeb7" target="_top" xlink:title="A three&#45;point finite difference stencil.">
<polygon fill="white" stroke="black" points="454.5,-57.5 454.5,-76.5 647.5,-76.5 647.5,-57.5 454.5,-57.5"/>
<text text-anchor="middle" x="551" y="-64.5" font-family="Ubuntu-R" font-size="10.00">forcebalance.finite_difference.f12d3p</text>
</a>
</g>
<!-- Node2&#45;&gt;Node3 -->
<g id="edge4" class="edge"><title>Node2&#45;&gt;Node3</title>
<path fill="none" stroke="midnightblue" d="M417.702,-67C426.373,-67 435.189,-67 443.943,-67"/>
<polygon fill="midnightblue" stroke="midnightblue" points="444.178,-70.5001 454.178,-67 444.178,-63.5001 444.178,-70.5001"/>
</g>
<!-- Node4 -->
<g id="node7" class="node"><title>Node4</title>
<a xlink:href="namespaceforcebalance_1_1finite__difference.html#ad84d3e385db1190e7d8ef58bc08a6c52" target="_top" xlink:title="Invoking this function from anywhere will tell us whether we&#39;re being called by a finite&#45;difference f...">
<polygon fill="white" stroke="black" points="689,-76.5 689,-95.5 871,-95.5 871,-76.5 689,-76.5"/>
<text text-anchor="middle" x="780" y="-83.5" font-family="Ubuntu-R" font-size="10.00">forcebalance.finite_difference.in_fd</text>
</a>
</g>
<!-- Node3&#45;&gt;Node4 -->
<g id="edge6" class="edge"><title>Node3&#45;&gt;Node4</title>
<path fill="none" stroke="midnightblue" d="M647.611,-75.0026C657.879,-75.8622 668.349,-76.7384 678.671,-77.6024"/>
<polygon fill="midnightblue" stroke="midnightblue" points="678.674,-81.1148 688.931,-78.4612 679.258,-74.1392 678.674,-81.1148"/>
</g>
<!-- Node5 -->
<g id="node9" class="node"><title>Node5</title>
<a xlink:href="namespaceforcebalance_1_1finite__difference.html#ae484c591ae8c4e5bae73a0ef2660c339" target="_top" xlink:title="A function wrapper for finite difference designed for differentiating &#39;get&#39;&#45;type functions.">
<polygon fill="white" stroke="black" points="684.5,-38.5 684.5,-57.5 875.5,-57.5 875.5,-38.5 684.5,-38.5"/>
<text text-anchor="middle" x="780" y="-45.5" font-family="Ubuntu-R" font-size="10.00">forcebalance.finite_difference.fdwrap</text>
</a>
</g>
<!-- Node3&#45;&gt;Node5 -->
<g id="edge8" class="edge"><title>Node3&#45;&gt;Node5</title>
<path fill="none" stroke="midnightblue" d="M647.611,-58.9974C656.414,-58.2605 665.365,-57.5113 674.244,-56.7681"/>
<polygon fill="midnightblue" stroke="midnightblue" points="674.553,-60.2546 684.226,-55.9326 673.969,-53.279 674.553,-60.2546"/>
</g>
<!-- Node6 -->
<g id="node11" class="node"><title>Node6</title>
<a xlink:href="namespaceforcebalance_1_1finite__difference.html#a00322fb65860c390616f74d05037c797" target="_top" xlink:title="A driver to fdwrap for gradients (see documentation for fdwrap) Inputs: tgt = The Target containing t...">
<polygon fill="white" stroke="black" points="912,-38.5 912,-57.5 1116,-57.5 1116,-38.5 912,-38.5"/>
<text text-anchor="middle" x="1014" y="-45.5" font-family="Ubuntu-R" font-size="10.00">forcebalance.finite_difference.fdwrap_G</text>
</a>
</g>
<!-- Node5&#45;&gt;Node6 -->
<g id="edge10" class="edge"><title>Node5&#45;&gt;Node6</title>
<path fill="none" stroke="midnightblue" d="M875.698,-41.3522C884.253,-41.2693 892.968,-41.2368 901.649,-41.2548"/>
<polygon fill="midnightblue" stroke="midnightblue" points="901.796,-44.7554 911.812,-41.2991 901.827,-37.7555 901.796,-44.7554"/>
</g>
<!-- Node7 -->
<g id="node14" class="node"><title>Node7</title>
<a xlink:href="namespaceforcebalance_1_1finite__difference.html#a77a0bc1ae3cbbcc8d38a0ef9ca877d6d" target="_top" xlink:title="A driver to fdwrap for Hessians (see documentation for fdwrap) Inputs: tgt = The Target containing th...">
<polygon fill="white" stroke="black" points="912,-0.5 912,-19.5 1116,-19.5 1116,-0.5 912,-0.5"/>
<text text-anchor="middle" x="1014" y="-7.5" font-family="Ubuntu-R" font-size="10.00">forcebalance.finite_difference.fdwrap_H</text>
</a>
</g>
<!-- Node5&#45;&gt;Node7 -->
<g id="edge14" class="edge"><title>Node5&#45;&gt;Node7</title>
<path fill="none" stroke="midnightblue" d="M839.244,-38.46C871.235,-33.2201 911.096,-26.6912 944.566,-21.2091"/>
<polygon fill="midnightblue" stroke="midnightblue" points="945.429,-24.6143 954.732,-19.5439 944.298,-17.7064 945.429,-24.6143"/>
</g>
<!-- Node6&#45;&gt;Node5 -->
<g id="edge12" class="edge"><title>Node6&#45;&gt;Node5</title>
<path fill="none" stroke="midnightblue" d="M911.812,-54.7009C903.188,-54.7584 894.454,-54.7654 885.803,-54.722"/>
<polygon fill="midnightblue" stroke="midnightblue" points="885.723,-51.2214 875.698,-54.6478 885.672,-58.2212 885.723,-51.2214"/>
</g>
</g>
</svg>
