<?xml version="1.0" encoding="UTF-8" standalone="no"?>
<!DOCTYPE svg PUBLIC "-//W3C//DTD SVG 1.1//EN"
 "http://www.w3.org/Graphics/SVG/1.1/DTD/svg11.dtd">
<!-- Generated by graphviz version 2.26.3 (20100126.1600)
 -->
<!-- Title: forcebalance.nifty.isfloat Pages: 1 -->
<svg width="1220pt" height="127pt"
 viewBox="0.00 0.00 1220.00 127.00" xmlns="http://www.w3.org/2000/svg" xmlns:xlink="http://www.w3.org/1999/xlink">
<g id="graph1" class="graph" transform="scale(1 1) rotate(0) translate(4 123)">
<title>forcebalance.nifty.isfloat</title>
<polygon fill="white" stroke="white" points="-4,5 -4,-123 1217,-123 1217,5 -4,5"/>
<!-- Node1 -->
<g id="node1" class="node"><title>Node1</title>
<polygon fill="#bfbfbf" stroke="black" points="0.5,-39.5 0.5,-60.5 131.5,-60.5 131.5,-39.5 0.5,-39.5"/>
<text text-anchor="middle" x="66" y="-47.5" font-family="Ubuntu-R" font-size="10.00">forcebalance.nifty.isfloat</text>
</g>
<!-- Node2 -->
<g id="node3" class="node"><title>Node2</title>
<a xlink:href="namespaceforcebalance_1_1nifty.html#a3f1c7a1af9d35d5d1693074bc6f5497c" target="_top" xlink:title="ONLY matches integers! If you have a decimal point? None shall pass!">
<polygon fill="white" stroke="black" points="183,-78.5 183,-99.5 305,-99.5 305,-78.5 183,-78.5"/>
<text text-anchor="middle" x="244" y="-86.5" font-family="Ubuntu-R" font-size="10.00">forcebalance.nifty.isint</text>
</a>
</g>
<!-- Node1&#45;&gt;Node2 -->
<g id="edge2" class="edge"><title>Node1&#45;&gt;Node2</title>
<path fill="none" stroke="midnightblue" d="M114.169,-60.554C136.233,-65.388 162.57,-71.1586 185.739,-76.2349"/>
<polygon fill="midnightblue" stroke="midnightblue" points="185.275,-79.7162 195.792,-78.4376 186.773,-72.8784 185.275,-79.7162"/>
</g>
<!-- Node9 -->
<g id="node20" class="node"><title>Node9</title>
<a xlink:href="namespaceforcebalance_1_1nifty.html#a8d63c8ae9a67c66673a6cf81357f827d" target="_top" xlink:title="Returns a big number if we encounter NaN.">
<polygon fill="white" stroke="black" points="168.5,-0.5 168.5,-21.5 319.5,-21.5 319.5,-0.5 168.5,-0.5"/>
<text text-anchor="middle" x="244" y="-8.5" font-family="Ubuntu-R" font-size="10.00">forcebalance.nifty.floatornan</text>
</a>
</g>
<!-- Node1&#45;&gt;Node9 -->
<g id="edge22" class="edge"><title>Node1&#45;&gt;Node9</title>
<path fill="none" stroke="midnightblue" d="M114.169,-39.446C136.233,-34.612 162.57,-28.8414 185.739,-23.7651"/>
<polygon fill="midnightblue" stroke="midnightblue" points="186.773,-27.1216 195.792,-21.5624 185.275,-20.2838 186.773,-27.1216"/>
</g>
<!-- Node3 -->
<g id="node5" class="node"><title>Node3</title>
<a xlink:href="namespaceforcebalance_1_1nifty.html#a09263927eaec9deff283fbf1a820242f" target="_top" xlink:title="Matches things with a decimal only; see isint and isfloat.">
<polygon fill="white" stroke="black" points="356.5,-59.5 356.5,-80.5 503.5,-80.5 503.5,-59.5 356.5,-59.5"/>
<text text-anchor="middle" x="430" y="-67.5" font-family="Ubuntu-R" font-size="10.00">forcebalance.nifty.isdecimal</text>
</a>
</g>
<!-- Node2&#45;&gt;Node3 -->
<g id="edge4" class="edge"><title>Node2&#45;&gt;Node3</title>
<path fill="none" stroke="midnightblue" d="M305.161,-82.7524C318.367,-81.4033 332.548,-79.9548 346.444,-78.5353"/>
<polygon fill="midnightblue" stroke="midnightblue" points="346.902,-82.0068 356.495,-77.5086 346.191,-75.043 346.902,-82.0068"/>
</g>
<!-- Node3&#45;&gt;Node1 -->
<g id="edge6" class="edge"><title>Node3&#45;&gt;Node1</title>
<path fill="none" stroke="midnightblue" d="M356.437,-65.9581C294.155,-62.536 205.209,-57.6489 142.192,-54.1864"/>
<polygon fill="midnightblue" stroke="midnightblue" points="142.095,-50.6758 131.918,-53.6218 141.711,-57.6653 142.095,-50.6758"/>
</g>
<!-- Node4 -->
<g id="node8" class="node"><title>Node4</title>
<a xlink:href="namespaceforcebalance_1_1nifty.html#afb3f205bce4984856e766af7e9fdaca8" target="_top" xlink:title="Given any list, array, or matrix, return a 1&#45;column matrix.">
<polygon fill="white" stroke="black" points="566,-59.5 566,-80.5 682,-80.5 682,-59.5 566,-59.5"/>
<text text-anchor="middle" x="624" y="-67.5" font-family="Ubuntu-R" font-size="10.00">forcebalance.nifty.col</text>
</a>
</g>
<!-- Node3&#45;&gt;Node4 -->
<g id="edge8" class="edge"><title>Node3&#45;&gt;Node4</title>
<path fill="none" stroke="midnightblue" d="M503.62,-70C520.663,-70 538.73,-70 555.542,-70"/>
<polygon fill="midnightblue" stroke="midnightblue" points="555.827,-73.5001 565.826,-70 555.826,-66.5001 555.827,-73.5001"/>
</g>
<!-- Node5 -->
<g id="node10" class="node"><title>Node5</title>
<a xlink:href="namespaceforcebalance_1_1nifty.html#a52114ceee9d55f94d9aecb3e176de294" target="_top" xlink:title="Given any list, array, or matrix, return a single&#45;index array.">
<polygon fill="white" stroke="black" points="744.5,-39.5 744.5,-60.5 861.5,-60.5 861.5,-39.5 744.5,-39.5"/>
<text text-anchor="middle" x="803" y="-47.5" font-family="Ubuntu-R" font-size="10.00">forcebalance.nifty.flat</text>
</a>
</g>
<!-- Node4&#45;&gt;Node5 -->
<g id="edge10" class="edge"><title>Node4&#45;&gt;Node5</title>
<path fill="none" stroke="midnightblue" d="M682.116,-63.5066C698.757,-61.6473 717.054,-59.6029 734.267,-57.6796"/>
<polygon fill="midnightblue" stroke="midnightblue" points="734.707,-61.1524 744.256,-56.5636 733.929,-54.1957 734.707,-61.1524"/>
</g>
<!-- Node6 -->
<g id="node12" class="node"><title>Node6</title>
<a xlink:href="namespaceforcebalance_1_1nifty.html#a4c82187e92dfeb8a159f4aa44b501c40" target="_top" xlink:title="Invert a matrix using singular value decomposition.">
<polygon fill="white" stroke="black" points="898.5,-78.5 898.5,-99.5 1049.5,-99.5 1049.5,-78.5 898.5,-78.5"/>
<text text-anchor="middle" x="974" y="-86.5" font-family="Ubuntu-R" font-size="10.00">forcebalance.nifty.invert_svd</text>
</a>
</g>
<!-- Node5&#45;&gt;Node6 -->
<g id="edge12" class="edge"><title>Node5&#45;&gt;Node6</title>
<path fill="none" stroke="midnightblue" d="M849.275,-60.554C870.376,-65.3664 895.545,-71.1068 917.73,-76.1665"/>
<polygon fill="midnightblue" stroke="midnightblue" points="917.16,-79.6263 927.688,-78.4376 918.717,-72.8015 917.16,-79.6263"/>
</g>
<!-- Node6&#45;&gt;Node4 -->
<g id="edge18" class="edge"><title>Node6&#45;&gt;Node4</title>
<path fill="none" stroke="midnightblue" d="M898.227,-84.8866C836.924,-81.5587 751.359,-76.9138 692.184,-73.7014"/>
<polygon fill="midnightblue" stroke="midnightblue" points="692.363,-70.2061 682.188,-73.1588 691.984,-77.1958 692.363,-70.2061"/>
</g>
<!-- Node7 -->
<g id="node14" class="node"><title>Node7</title>
<a xlink:href="namespaceforcebalance_1_1nifty.html#aa9fb9c7c65231eca50a7afc04f489b64" target="_top" xlink:title="forcebalance.nifty.get\l_least_squares">
<polygon fill="white" stroke="black" points="1090,-33 1090,-67 1208,-67 1208,-33 1090,-33"/>
<text text-anchor="start" x="1098" y="-54" font-family="Ubuntu-R" font-size="10.00">forcebalance.nifty.get</text>
<text text-anchor="middle" x="1149" y="-41" font-family="Ubuntu-R" font-size="10.00">_least_squares</text>
</a>
</g>
<!-- Node6&#45;&gt;Node7 -->
<g id="edge14" class="edge"><title>Node6&#45;&gt;Node7</title>
<path fill="none" stroke="midnightblue" d="M1021.36,-78.446C1039.37,-74.432 1060.28,-69.7723 1079.9,-65.4005"/>
<polygon fill="midnightblue" stroke="midnightblue" points="1080.71,-68.8053 1089.71,-63.2138 1079.19,-61.9729 1080.71,-68.8053"/>
</g>
<!-- Node8 -->
<g id="node18" class="node"><title>Node8</title>
<a xlink:href="namespaceforcebalance_1_1nifty.html#abb8f59044961a12588e0653c2baa8b01" target="_top" xlink:title="forcebalance.nifty.warn\l_press_key">
<polygon fill="white" stroke="black" points="1086.5,-85 1086.5,-119 1211.5,-119 1211.5,-85 1086.5,-85"/>
<text text-anchor="start" x="1094.5" y="-106" font-family="Ubuntu-R" font-size="10.00">forcebalance.nifty.warn</text>
<text text-anchor="middle" x="1149" y="-93" font-family="Ubuntu-R" font-size="10.00">_press_key</text>
</a>
</g>
<!-- Node6&#45;&gt;Node8 -->
<g id="edge20" class="edge"><title>Node6&#45;&gt;Node8</title>
<path fill="none" stroke="midnightblue" d="M1049.74,-94.6264C1058.5,-95.2774 1067.43,-95.9404 1076.15,-96.5885"/>
<polygon fill="midnightblue" stroke="midnightblue" points="1076.05,-100.09 1086.28,-97.3408 1076.57,-93.1096 1076.05,-100.09"/>
</g>
<!-- Node7&#45;&gt;Node5 -->
<g id="edge16" class="edge"><title>Node7&#45;&gt;Node5</title>
<path fill="none" stroke="midnightblue" d="M1089.73,-50C1029.34,-50 935.746,-50 872.044,-50"/>
<polygon fill="midnightblue" stroke="midnightblue" points="871.694,-46.5001 861.694,-50 871.694,-53.5001 871.694,-46.5001"/>
</g>
<!-- Node10 -->
<g id="node22" class="node"><title>Node10</title>
<a xlink:href="namespaceforcebalance_1_1nifty.html#a6c9727360cdff8f3011a12cc54d0e86e" target="_top" xlink:title="Given any list, array, or matrix, return a 1&#45;row matrix.">
<polygon fill="white" stroke="black" points="370.5,-0.5 370.5,-21.5 489.5,-21.5 489.5,-0.5 370.5,-0.5"/>
<text text-anchor="middle" x="430" y="-8.5" font-family="Ubuntu-R" font-size="10.00">forcebalance.nifty.row</text>
</a>
</g>
<!-- Node9&#45;&gt;Node10 -->
<g id="edge24" class="edge"><title>Node9&#45;&gt;Node10</title>
<path fill="none" stroke="midnightblue" d="M319.653,-11C333.118,-11 347.086,-11 360.373,-11"/>
<polygon fill="midnightblue" stroke="midnightblue" points="360.381,-14.5001 370.381,-11 360.381,-7.5001 360.381,-14.5001"/>
</g>
<!-- Node11 -->
<g id="node24" class="node"><title>Node11</title>
<a xlink:href="namespaceforcebalance_1_1nifty.html#a7676236002c6a65ea7d2e69a09923889" target="_top" xlink:title="Given two vectors vec1 and vec2, project out the component of vec1 that is along the vec2&#45;direction...">
<polygon fill="white" stroke="black" points="540,-0.5 540,-21.5 708,-21.5 708,-0.5 540,-0.5"/>
<text text-anchor="middle" x="624" y="-8.5" font-family="Ubuntu-R" font-size="10.00">forcebalance.nifty.orthogonalize</text>
</a>
</g>
<!-- Node10&#45;&gt;Node11 -->
<g id="edge26" class="edge"><title>Node10&#45;&gt;Node11</title>
<path fill="none" stroke="midnightblue" d="M489.525,-11C502.217,-11 515.921,-11 529.557,-11"/>
<polygon fill="midnightblue" stroke="midnightblue" points="529.954,-14.5001 539.954,-11 529.954,-7.5001 529.954,-14.5001"/>
</g>
</g>
</svg>
