<?xml version="1.0" encoding="UTF-8" standalone="no"?>
<!DOCTYPE svg PUBLIC "-//W3C//DTD SVG 1.1//EN"
 "http://www.w3.org/Graphics/SVG/1.1/DTD/svg11.dtd">
<!-- Generated by graphviz version 2.26.3 (20100126.1600)
 -->
<!-- Title: forcebalance.nifty.pvec1d Pages: 1 -->
<svg width="2758pt" height="148pt"
 viewBox="0.00 0.00 2758.00 148.00" xmlns="http://www.w3.org/2000/svg" xmlns:xlink="http://www.w3.org/1999/xlink">
<g id="graph1" class="graph" transform="scale(1 1) rotate(0) translate(4 144)">
<title>forcebalance.nifty.pvec1d</title>
<polygon fill="white" stroke="white" points="-4,5 -4,-144 2755,-144 2755,5 -4,5"/>
<!-- Node1 -->
<g id="node1" class="node"><title>Node1</title>
<polygon fill="#bfbfbf" stroke="black" points="0.5,-77.5 0.5,-98.5 137.5,-98.5 137.5,-77.5 0.5,-77.5"/>
<text text-anchor="middle" x="69" y="-85.5" font-family="Ubuntu-R" font-size="10.00">forcebalance.nifty.pvec1d</text>
</g>
<!-- Node2 -->
<g id="node3" class="node"><title>Node2</title>
<a xlink:href="namespaceforcebalance_1_1nifty.html#af61d76c8eb78c8ee52a43e239ff26cb4" target="_top" xlink:title="Printout of a 2&#45;D matrix.">
<polygon fill="white" stroke="black" points="174,-77.5 174,-98.5 314,-98.5 314,-77.5 174,-77.5"/>
<text text-anchor="middle" x="244" y="-85.5" font-family="Ubuntu-R" font-size="10.00">forcebalance.nifty.pmat2d</text>
</a>
</g>
<!-- Node1&#45;&gt;Node2 -->
<g id="edge2" class="edge"><title>Node1&#45;&gt;Node2</title>
<path fill="none" stroke="midnightblue" d="M137.662,-88C146.197,-88 154.982,-88 163.672,-88"/>
<polygon fill="midnightblue" stroke="midnightblue" points="163.81,-91.5001 173.809,-88 163.809,-84.5001 163.81,-91.5001"/>
</g>
<!-- Node3 -->
<g id="node5" class="node"><title>Node3</title>
<a xlink:href="namespaceforcebalance_1_1nifty.html#a3b437964dc22735bf8a7dcbaf99e413d" target="_top" xlink:title="forcebalance.nifty.encode">
<polygon fill="white" stroke="black" points="350,-77.5 350,-98.5 488,-98.5 488,-77.5 350,-77.5"/>
<text text-anchor="middle" x="419" y="-85.5" font-family="Ubuntu-R" font-size="10.00">forcebalance.nifty.encode</text>
</a>
</g>
<!-- Node2&#45;&gt;Node3 -->
<g id="edge4" class="edge"><title>Node2&#45;&gt;Node3</title>
<path fill="none" stroke="midnightblue" d="M314.171,-88C322.646,-88 331.347,-88 339.938,-88"/>
<polygon fill="midnightblue" stroke="midnightblue" points="339.953,-91.5001 349.953,-88 339.953,-84.5001 339.953,-91.5001"/>
</g>
<!-- Node4 -->
<g id="node7" class="node"><title>Node4</title>
<a xlink:href="namespaceforcebalance_1_1nifty.html#a3b9fd8e29c5d8f1b2114e4d9662dfd61" target="_top" xlink:title="forcebalance.nifty.segments">
<polygon fill="white" stroke="black" points="524,-97.5 524,-118.5 674,-118.5 674,-97.5 524,-97.5"/>
<text text-anchor="middle" x="599" y="-105.5" font-family="Ubuntu-R" font-size="10.00">forcebalance.nifty.segments</text>
</a>
</g>
<!-- Node3&#45;&gt;Node4 -->
<g id="edge6" class="edge"><title>Node3&#45;&gt;Node4</title>
<path fill="none" stroke="midnightblue" d="M488.078,-95.6753C496.486,-96.6096 505.153,-97.5725 513.761,-98.529"/>
<polygon fill="midnightblue" stroke="midnightblue" points="513.495,-102.021 523.821,-99.6467 514.268,-95.0637 513.495,-102.021"/>
</g>
<!-- Node5 -->
<g id="node9" class="node"><title>Node5</title>
<a xlink:href="namespaceforcebalance_1_1nifty.html#a9628ee448710667747d8aa5dc166532c" target="_top" xlink:title="forcebalance.nifty.commadash">
<polygon fill="white" stroke="black" points="710,-97.5 710,-118.5 872,-118.5 872,-97.5 710,-97.5"/>
<text text-anchor="middle" x="791" y="-105.5" font-family="Ubuntu-R" font-size="10.00">forcebalance.nifty.commadash</text>
</a>
</g>
<!-- Node4&#45;&gt;Node5 -->
<g id="edge8" class="edge"><title>Node4&#45;&gt;Node5</title>
<path fill="none" stroke="midnightblue" d="M674.057,-101.395C682.524,-101.276 691.219,-101.23 699.862,-101.258"/>
<polygon fill="midnightblue" stroke="midnightblue" points="699.943,-104.758 709.966,-101.323 699.989,-97.7584 699.943,-104.758"/>
</g>
<!-- Node5&#45;&gt;Node3 -->
<g id="edge12" class="edge"><title>Node5&#45;&gt;Node3</title>
<path fill="none" stroke="midnightblue" d="M740.561,-97.4558C720.015,-93.6641 695.971,-89.8643 674,-88 615.295,-83.0186 548.713,-83.2163 498.309,-84.5547"/>
<polygon fill="midnightblue" stroke="midnightblue" points="498.025,-81.0613 488.13,-84.8462 498.226,-88.0584 498.025,-81.0613"/>
</g>
<!-- Node5&#45;&gt;Node4 -->
<g id="edge10" class="edge"><title>Node5&#45;&gt;Node4</title>
<path fill="none" stroke="midnightblue" d="M709.966,-114.677C701.408,-114.761 692.687,-114.773 684.084,-114.711"/>
<polygon fill="midnightblue" stroke="midnightblue" points="684.094,-111.211 674.057,-114.605 684.02,-118.211 684.094,-111.211"/>
</g>
<!-- Node6 -->
<g id="node13" class="node"><title>Node6</title>
<a xlink:href="namespaceforcebalance_1_1nifty.html#afa670d68f01813ac8d429bc5cbdb4f9f" target="_top" xlink:title="forcebalance.nifty.uncommadash">
<polygon fill="white" stroke="black" points="908,-97.5 908,-118.5 1082,-118.5 1082,-97.5 908,-97.5"/>
<text text-anchor="middle" x="995" y="-105.5" font-family="Ubuntu-R" font-size="10.00">forcebalance.nifty.uncommadash</text>
</a>
</g>
<!-- Node5&#45;&gt;Node6 -->
<g id="edge14" class="edge"><title>Node5&#45;&gt;Node6</title>
<path fill="none" stroke="midnightblue" d="M872.212,-108C880.507,-108 888.992,-108 897.438,-108"/>
<polygon fill="midnightblue" stroke="midnightblue" points="897.703,-111.5 907.703,-108 897.703,-104.5 897.703,-111.5"/>
</g>
<!-- Node7 -->
<g id="node15" class="node"><title>Node7</title>
<a xlink:href="namespaceforcebalance_1_1nifty.html#a11babd62dc7bca389162c6318f9672ca" target="_top" xlink:title="Cool&#45;looking printout for slick formatting of output.">
<polygon fill="white" stroke="black" points="1118,-97.5 1118,-118.5 1262,-118.5 1262,-97.5 1118,-97.5"/>
<text text-anchor="middle" x="1190" y="-105.5" font-family="Ubuntu-R" font-size="10.00">forcebalance.nifty.printcool</text>
</a>
</g>
<!-- Node6&#45;&gt;Node7 -->
<g id="edge16" class="edge"><title>Node6&#45;&gt;Node7</title>
<path fill="none" stroke="midnightblue" d="M1082.23,-108C1090.67,-108 1099.21,-108 1107.59,-108"/>
<polygon fill="midnightblue" stroke="midnightblue" points="1107.73,-111.5 1117.73,-108 1107.73,-104.5 1107.73,-111.5"/>
</g>
<!-- Node8 -->
<g id="node17" class="node"><title>Node8</title>
<a xlink:href="namespaceforcebalance_1_1nifty.html#abb8f59044961a12588e0653c2baa8b01" target="_top" xlink:title="forcebalance.nifty.warn\l_press_key">
<polygon fill="white" stroke="black" points="2385.5,-106 2385.5,-140 2510.5,-140 2510.5,-106 2385.5,-106"/>
<text text-anchor="start" x="2393.5" y="-127" font-family="Ubuntu-R" font-size="10.00">forcebalance.nifty.warn</text>
<text text-anchor="middle" x="2448" y="-114" font-family="Ubuntu-R" font-size="10.00">_press_key</text>
</a>
</g>
<!-- Node7&#45;&gt;Node8 -->
<g id="edge18" class="edge"><title>Node7&#45;&gt;Node8</title>
<path fill="none" stroke="midnightblue" d="M1262.12,-114.549C1332.64,-120.382 1443.11,-128 1539,-128 1539,-128 1539,-128 2064,-128 2172.47,-128 2298.17,-125.981 2375.38,-124.508"/>
<polygon fill="midnightblue" stroke="midnightblue" points="2375.55,-128.006 2385.48,-124.314 2375.42,-121.007 2375.55,-128.006"/>
</g>
<!-- Node10 -->
<g id="node21" class="node"><title>Node10</title>
<a xlink:href="namespaceforcebalance_1_1nifty.html#a51180e960742cc7547749fdfb3513ec4" target="_top" xlink:title="See documentation for printcool; this is a nice way to print out keys/values in a dictionary...">
<polygon fill="white" stroke="black" points="1298,-34 1298,-68 1442,-68 1442,-34 1298,-34"/>
<text text-anchor="start" x="1306" y="-55" font-family="Ubuntu-R" font-size="10.00">forcebalance.nifty.printcool</text>
<text text-anchor="middle" x="1370" y="-42" font-family="Ubuntu-R" font-size="10.00">_dictionary</text>
</a>
</g>
<!-- Node7&#45;&gt;Node10 -->
<g id="edge22" class="edge"><title>Node7&#45;&gt;Node10</title>
<path fill="none" stroke="midnightblue" d="M1223.43,-97.4123C1246.72,-90.0396 1278.49,-79.9774 1306.51,-71.1064"/>
<polygon fill="midnightblue" stroke="midnightblue" points="1307.76,-74.3804 1316.24,-68.0247 1305.65,-67.707 1307.76,-74.3804"/>
</g>
<!-- Node9 -->
<g id="node19" class="node"><title>Node9</title>
<a xlink:href="namespaceforcebalance_1_1nifty.html#a2fc81730e7efa7d138dd86f733507bfc" target="_top" xlink:title="Similar to the bultin function map().">
<polygon fill="white" stroke="black" points="2568.5,-112.5 2568.5,-133.5 2749.5,-133.5 2749.5,-112.5 2568.5,-112.5"/>
<text text-anchor="middle" x="2659" y="-120.5" font-family="Ubuntu-R" font-size="10.00">forcebalance.nifty.concurrent_map</text>
</a>
</g>
<!-- Node8&#45;&gt;Node9 -->
<g id="edge20" class="edge"><title>Node8&#45;&gt;Node9</title>
<path fill="none" stroke="midnightblue" d="M2510.74,-123C2525.72,-123 2542.1,-123 2558.32,-123"/>
<polygon fill="midnightblue" stroke="midnightblue" points="2558.39,-126.5 2568.39,-123 2558.39,-119.5 2558.39,-126.5"/>
</g>
<!-- Node11 -->
<g id="node23" class="node"><title>Node11</title>
<a xlink:href="namespaceforcebalance_1_1nifty.html#a3f1c7a1af9d35d5d1693074bc6f5497c" target="_top" xlink:title="ONLY matches integers! If you have a decimal point? None shall pass!">
<polygon fill="white" stroke="black" points="1478,-40.5 1478,-61.5 1600,-61.5 1600,-40.5 1478,-40.5"/>
<text text-anchor="middle" x="1539" y="-48.5" font-family="Ubuntu-R" font-size="10.00">forcebalance.nifty.isint</text>
</a>
</g>
<!-- Node10&#45;&gt;Node11 -->
<g id="edge24" class="edge"><title>Node10&#45;&gt;Node11</title>
<path fill="none" stroke="midnightblue" d="M1442.16,-51C1450.64,-51 1459.3,-51 1467.77,-51"/>
<polygon fill="midnightblue" stroke="midnightblue" points="1467.98,-54.5001 1477.98,-51 1467.98,-47.5001 1467.98,-54.5001"/>
</g>
<!-- Node13 -->
<g id="node27" class="node"><title>Node13</title>
<a xlink:href="namespaceforcebalance_1_1nifty.html#a8e3ef0108b9d37b82ba0dced7c6037ae" target="_top" xlink:title="Matches ANY number; it can be a decimal, scientific notation, what have you CAUTION &#45; this will also ...">
<polygon fill="white" stroke="black" points="1820.5,-19.5 1820.5,-40.5 1951.5,-40.5 1951.5,-19.5 1820.5,-19.5"/>
<text text-anchor="middle" x="1886" y="-27.5" font-family="Ubuntu-R" font-size="10.00">forcebalance.nifty.isfloat</text>
</a>
</g>
<!-- Node10&#45;&gt;Node13 -->
<g id="edge52" class="edge"><title>Node10&#45;&gt;Node13</title>
<path fill="none" stroke="midnightblue" d="M1442.07,-35.7897C1454.02,-33.8052 1466.32,-32.0865 1478,-31 1593.49,-20.254 1728.16,-22.8459 1810.23,-26.1095"/>
<polygon fill="midnightblue" stroke="midnightblue" points="1810.33,-29.6165 1820.46,-26.5309 1810.62,-22.6224 1810.33,-29.6165"/>
</g>
<!-- Node12 -->
<g id="node25" class="node"><title>Node12</title>
<a xlink:href="namespaceforcebalance_1_1nifty.html#a09263927eaec9deff283fbf1a820242f" target="_top" xlink:title="Matches things with a decimal only; see isint and isfloat.">
<polygon fill="white" stroke="black" points="1636.5,-59.5 1636.5,-80.5 1783.5,-80.5 1783.5,-59.5 1636.5,-59.5"/>
<text text-anchor="middle" x="1710" y="-67.5" font-family="Ubuntu-R" font-size="10.00">forcebalance.nifty.isdecimal</text>
</a>
</g>
<!-- Node11&#45;&gt;Node12 -->
<g id="edge26" class="edge"><title>Node11&#45;&gt;Node12</title>
<path fill="none" stroke="midnightblue" d="M1600.25,-57.8058C1608.66,-58.7395 1617.4,-59.711 1626.12,-60.6801"/>
<polygon fill="midnightblue" stroke="midnightblue" points="1626,-64.1883 1636.33,-61.8141 1626.77,-57.2311 1626,-64.1883"/>
</g>
<!-- Node12&#45;&gt;Node13 -->
<g id="edge28" class="edge"><title>Node12&#45;&gt;Node13</title>
<path fill="none" stroke="midnightblue" d="M1756.24,-59.4905C1778.79,-54.3663 1806.1,-48.1601 1829.83,-42.7655"/>
<polygon fill="midnightblue" stroke="midnightblue" points="1830.79,-46.138 1839.76,-40.5087 1829.23,-39.312 1830.79,-46.138"/>
</g>
<!-- Node17 -->
<g id="node36" class="node"><title>Node17</title>
<a xlink:href="namespaceforcebalance_1_1nifty.html#afb3f205bce4984856e766af7e9fdaca8" target="_top" xlink:title="Given any list, array, or matrix, return a 1&#45;column matrix.">
<polygon fill="white" stroke="black" points="1828,-59.5 1828,-80.5 1944,-80.5 1944,-59.5 1828,-59.5"/>
<text text-anchor="middle" x="1886" y="-67.5" font-family="Ubuntu-R" font-size="10.00">forcebalance.nifty.col</text>
</a>
</g>
<!-- Node12&#45;&gt;Node17 -->
<g id="edge38" class="edge"><title>Node12&#45;&gt;Node17</title>
<path fill="none" stroke="midnightblue" d="M1783.62,-70C1794.94,-70 1806.59,-70 1817.79,-70"/>
<polygon fill="midnightblue" stroke="midnightblue" points="1817.93,-73.5001 1827.93,-70 1817.93,-66.5001 1817.93,-73.5001"/>
</g>
<!-- Node13&#45;&gt;Node11 -->
<g id="edge30" class="edge"><title>Node13&#45;&gt;Node11</title>
<path fill="none" stroke="midnightblue" d="M1820.36,-33.9725C1760.4,-37.6013 1671.95,-42.9541 1610.28,-46.6863"/>
<polygon fill="midnightblue" stroke="midnightblue" points="1610.01,-43.1962 1600.24,-47.294 1610.43,-50.1834 1610.01,-43.1962"/>
</g>
<!-- Node14 -->
<g id="node30" class="node"><title>Node14</title>
<a xlink:href="namespaceforcebalance_1_1nifty.html#a8d63c8ae9a67c66673a6cf81357f827d" target="_top" xlink:title="Returns a big number if we encounter NaN.">
<polygon fill="white" stroke="black" points="1988.5,-0.5 1988.5,-21.5 2139.5,-21.5 2139.5,-0.5 1988.5,-0.5"/>
<text text-anchor="middle" x="2064" y="-8.5" font-family="Ubuntu-R" font-size="10.00">forcebalance.nifty.floatornan</text>
</a>
</g>
<!-- Node13&#45;&gt;Node14 -->
<g id="edge32" class="edge"><title>Node13&#45;&gt;Node14</title>
<path fill="none" stroke="midnightblue" d="M1951.52,-23.006C1960.24,-22.0758 1969.28,-21.1111 1978.27,-20.1511"/>
<polygon fill="midnightblue" stroke="midnightblue" points="1978.81,-23.613 1988.38,-19.0713 1978.07,-16.6526 1978.81,-23.613"/>
</g>
<!-- Node15 -->
<g id="node32" class="node"><title>Node15</title>
<a xlink:href="namespaceforcebalance_1_1nifty.html#a6c9727360cdff8f3011a12cc54d0e86e" target="_top" xlink:title="Given any list, array, or matrix, return a 1&#45;row matrix.">
<polygon fill="white" stroke="black" points="2192.5,-0.5 2192.5,-21.5 2311.5,-21.5 2311.5,-0.5 2192.5,-0.5"/>
<text text-anchor="middle" x="2252" y="-8.5" font-family="Ubuntu-R" font-size="10.00">forcebalance.nifty.row</text>
</a>
</g>
<!-- Node14&#45;&gt;Node15 -->
<g id="edge34" class="edge"><title>Node14&#45;&gt;Node15</title>
<path fill="none" stroke="midnightblue" d="M2139.65,-11C2153.64,-11 2168.19,-11 2182,-11"/>
<polygon fill="midnightblue" stroke="midnightblue" points="2182.39,-14.5001 2192.39,-11 2182.39,-7.5001 2182.39,-14.5001"/>
</g>
<!-- Node16 -->
<g id="node34" class="node"><title>Node16</title>
<a xlink:href="namespaceforcebalance_1_1nifty.html#a7676236002c6a65ea7d2e69a09923889" target="_top" xlink:title="Given two vectors vec1 and vec2, project out the component of vec1 that is along the vec2&#45;direction...">
<polygon fill="white" stroke="black" points="2364,-0.5 2364,-21.5 2532,-21.5 2532,-0.5 2364,-0.5"/>
<text text-anchor="middle" x="2448" y="-8.5" font-family="Ubuntu-R" font-size="10.00">forcebalance.nifty.orthogonalize</text>
</a>
</g>
<!-- Node15&#45;&gt;Node16 -->
<g id="edge36" class="edge"><title>Node15&#45;&gt;Node16</title>
<path fill="none" stroke="midnightblue" d="M2311.6,-11C2324.84,-11 2339.18,-11 2353.42,-11"/>
<polygon fill="midnightblue" stroke="midnightblue" points="2353.76,-14.5001 2363.76,-11 2353.76,-7.5001 2353.76,-14.5001"/>
</g>
<!-- Node18 -->
<g id="node38" class="node"><title>Node18</title>
<a xlink:href="namespaceforcebalance_1_1nifty.html#a52114ceee9d55f94d9aecb3e176de294" target="_top" xlink:title="Given any list, array, or matrix, return a single&#45;index array.">
<polygon fill="white" stroke="black" points="2005.5,-40.5 2005.5,-61.5 2122.5,-61.5 2122.5,-40.5 2005.5,-40.5"/>
<text text-anchor="middle" x="2064" y="-48.5" font-family="Ubuntu-R" font-size="10.00">forcebalance.nifty.flat</text>
</a>
</g>
<!-- Node17&#45;&gt;Node18 -->
<g id="edge40" class="edge"><title>Node17&#45;&gt;Node18</title>
<path fill="none" stroke="midnightblue" d="M1944.28,-63.7787C1960.49,-62.0489 1978.24,-60.1539 1995,-58.3653"/>
<polygon fill="midnightblue" stroke="midnightblue" points="1995.71,-61.8095 2005.28,-57.2678 1994.97,-54.849 1995.71,-61.8095"/>
</g>
<!-- Node19 -->
<g id="node40" class="node"><title>Node19</title>
<a xlink:href="namespaceforcebalance_1_1nifty.html#a4c82187e92dfeb8a159f4aa44b501c40" target="_top" xlink:title="Invert a matrix using singular value decomposition.">
<polygon fill="white" stroke="black" points="2176.5,-78.5 2176.5,-99.5 2327.5,-99.5 2327.5,-78.5 2176.5,-78.5"/>
<text text-anchor="middle" x="2252" y="-86.5" font-family="Ubuntu-R" font-size="10.00">forcebalance.nifty.invert_svd</text>
</a>
</g>
<!-- Node18&#45;&gt;Node19 -->
<g id="edge42" class="edge"><title>Node18&#45;&gt;Node19</title>
<path fill="none" stroke="midnightblue" d="M2116.37,-61.5851C2139.18,-66.1969 2166.1,-71.6375 2189.92,-76.4512"/>
<polygon fill="midnightblue" stroke="midnightblue" points="2189.42,-79.921 2199.91,-78.4716 2190.8,-73.0597 2189.42,-79.921"/>
</g>
<!-- Node19&#45;&gt;Node8 -->
<g id="edge50" class="edge"><title>Node19&#45;&gt;Node8</title>
<path fill="none" stroke="midnightblue" d="M2312.67,-99.525C2332.48,-102.961 2354.68,-106.812 2375.28,-110.385"/>
<polygon fill="midnightblue" stroke="midnightblue" points="2374.79,-113.853 2385.24,-112.114 2375.99,-106.956 2374.79,-113.853"/>
</g>
<!-- Node19&#45;&gt;Node17 -->
<g id="edge48" class="edge"><title>Node19&#45;&gt;Node17</title>
<path fill="none" stroke="midnightblue" d="M2176.35,-85.073C2111.13,-81.6868 2017.75,-76.8394 1954.65,-73.5636"/>
<polygon fill="midnightblue" stroke="midnightblue" points="1954.57,-70.0548 1944.4,-73.0316 1954.2,-77.0454 1954.57,-70.0548"/>
</g>
<!-- Node20 -->
<g id="node42" class="node"><title>Node20</title>
<a xlink:href="namespaceforcebalance_1_1nifty.html#aa9fb9c7c65231eca50a7afc04f489b64" target="_top" xlink:title="forcebalance.nifty.get\l_least_squares">
<polygon fill="white" stroke="black" points="2389,-49 2389,-83 2507,-83 2507,-49 2389,-49"/>
<text text-anchor="start" x="2397" y="-70" font-family="Ubuntu-R" font-size="10.00">forcebalance.nifty.get</text>
<text text-anchor="middle" x="2448" y="-57" font-family="Ubuntu-R" font-size="10.00">_least_squares</text>
</a>
</g>
<!-- Node19&#45;&gt;Node20 -->
<g id="edge44" class="edge"><title>Node19&#45;&gt;Node20</title>
<path fill="none" stroke="midnightblue" d="M2327.78,-80.1076C2344.55,-78.1396 2362.24,-76.064 2378.73,-74.1282"/>
<polygon fill="midnightblue" stroke="midnightblue" points="2379.31,-77.5849 2388.83,-72.9432 2378.49,-70.6326 2379.31,-77.5849"/>
</g>
<!-- Node20&#45;&gt;Node18 -->
<g id="edge46" class="edge"><title>Node20&#45;&gt;Node18</title>
<path fill="none" stroke="midnightblue" d="M2388.95,-63.6934C2319.89,-60.9957 2205.75,-56.5369 2132.76,-53.6858"/>
<polygon fill="midnightblue" stroke="midnightblue" points="2132.87,-50.1876 2122.74,-53.2945 2132.6,-57.1823 2132.87,-50.1876"/>
</g>
</g>
</svg>
