<?xml version="1.0" encoding="UTF-8" standalone="no"?>
<!DOCTYPE svg PUBLIC "-//W3C//DTD SVG 1.1//EN"
 "http://www.w3.org/Graphics/SVG/1.1/DTD/svg11.dtd">
<!-- Generated by graphviz version 2.28.0 (20111219.2309)
 -->
<!-- Title: G Pages: 1 -->
<svg width="576pt" height="47pt"
 viewBox="0.00 0.00 576.00 47.00" xmlns="http://www.w3.org/2000/svg" xmlns:xlink="http://www.w3.org/1999/xlink">
<g id="graph1" class="graph" transform="scale(1 1) rotate(0) translate(4 43)">
<title>G</title>
<polygon fill="white" stroke="white" points="-4,5 -4,-43 573,-43 573,5 -4,5"/>
<!-- Node1 -->
<g id="node1" class="node"><title>Node1</title>
<polygon fill="#bfbfbf" stroke="black" points="0.5,-0.5 0.5,-19.5 191.5,-19.5 191.5,-0.5 0.5,-0.5"/>
<text text-anchor="middle" x="96" y="-7.5" font-family="Ubuntu-R" font-size="10.00">forcebalance.amberio.is_mol2_atom</text>
</g>
<!-- Node2 -->
<g id="node3" class="node"><title>Node2</title>
<a xlink:href="namespaceforcebalance_1_1molecule.html#a0dd31eff88d2bed0884ab21a13261d42" target="_top" xlink:title="ONLY matches integers! If you have a decimal point? None shall pass!">
<polygon fill="white" stroke="black" points="228.5,-19.5 228.5,-38.5 375.5,-38.5 375.5,-19.5 228.5,-19.5"/>
<text text-anchor="middle" x="302" y="-26.5" font-family="Ubuntu-R" font-size="10.00">forcebalance.molecule.isint</text>
</a>
</g>
<!-- Node1&#45;&gt;Node2 -->
<g id="edge2" class="edge"><title>Node1&#45;&gt;Node2</title>
<path fill="none" stroke="midnightblue" d="M191.535,-18.8048C200.45,-19.635 209.441,-20.4724 218.233,-21.2914"/>
<polygon fill="midnightblue" stroke="midnightblue" points="218.167,-24.8002 228.448,-22.2427 218.816,-17.8304 218.167,-24.8002"/>
</g>
<!-- Node3 -->
<g id="node5" class="node"><title>Node3</title>
<a xlink:href="namespaceforcebalance_1_1molecule.html#afe989ffd119568047fc8265b1d329a70" target="_top" xlink:title="Matches ANY number; it can be a decimal, scientific notation, integer, or what have you...">
<polygon fill="white" stroke="black" points="412,-0.5 412,-19.5 568,-19.5 568,-0.5 412,-0.5"/>
<text text-anchor="middle" x="490" y="-7.5" font-family="Ubuntu-R" font-size="10.00">forcebalance.molecule.isfloat</text>
</a>
</g>
<!-- Node1&#45;&gt;Node3 -->
<g id="edge6" class="edge"><title>Node1&#45;&gt;Node3</title>
<path fill="none" stroke="midnightblue" d="M191.892,-10C255.748,-10 339.319,-10 401.558,-10"/>
<polygon fill="midnightblue" stroke="midnightblue" points="401.747,-13.5001 411.747,-10 401.747,-6.5001 401.747,-13.5001"/>
</g>
<!-- Node2&#45;&gt;Node3 -->
<g id="edge4" class="edge"><title>Node2&#45;&gt;Node3</title>
<path fill="none" stroke="midnightblue" d="M375.712,-21.5725C384.207,-20.7047 392.939,-19.8127 401.606,-18.9273"/>
<polygon fill="midnightblue" stroke="midnightblue" points="402.141,-22.391 411.733,-17.8929 401.429,-15.4273 402.141,-22.391"/>
</g>
</g>
</svg>
