<?xml version="1.0" encoding="UTF-8" standalone="no"?>
<!DOCTYPE svg PUBLIC "-//W3C//DTD SVG 1.1//EN"
 "http://www.w3.org/Graphics/SVG/1.1/DTD/svg11.dtd">
<!-- Generated by graphviz version 2.26.3 (20100126.1600)
 -->
<!-- Title: forcebalance.finite_difference.f1d5p Pages: 1 -->
<svg width="828pt" height="146pt"
 viewBox="0.00 0.00 828.00 146.00" xmlns="http://www.w3.org/2000/svg" xmlns:xlink="http://www.w3.org/1999/xlink">
<g id="graph1" class="graph" transform="scale(1 1) rotate(0) translate(4 142)">
<title>forcebalance.finite_difference.f1d5p</title>
<polygon fill="white" stroke="white" points="-4,5 -4,-142 825,-142 825,5 -4,5"/>
<!-- Node1 -->
<g id="node1" class="node"><title>Node1</title>
<polygon fill="#bfbfbf" stroke="black" points="0,-78 0,-112 104,-112 104,-78 0,-78"/>
<text text-anchor="start" x="8" y="-99" font-family="Ubuntu-R" font-size="10.00">forcebalance.finite</text>
<text text-anchor="middle" x="52" y="-86" font-family="Ubuntu-R" font-size="10.00">_difference.f1d5p</text>
</g>
<!-- Node2 -->
<g id="node3" class="node"><title>Node2</title>
<a xlink:href="namespaceforcebalance_1_1finite__difference.html#a9be9f0d21300958092e380514e2e980d" target="_top" xlink:title="A highly accurate seven&#45;point finite difference stencil for computing derivatives of a function...">
<polygon fill="white" stroke="black" points="140,-78 140,-112 244,-112 244,-78 140,-78"/>
<text text-anchor="start" x="148" y="-99" font-family="Ubuntu-R" font-size="10.00">forcebalance.finite</text>
<text text-anchor="middle" x="192" y="-86" font-family="Ubuntu-R" font-size="10.00">_difference.f1d7p</text>
</a>
</g>
<!-- Node1&#45;&gt;Node2 -->
<g id="edge2" class="edge"><title>Node1&#45;&gt;Node2</title>
<path fill="none" stroke="midnightblue" d="M104.131,-95C112.421,-95 121.07,-95 129.568,-95"/>
<polygon fill="midnightblue" stroke="midnightblue" points="129.826,-98.5001 139.826,-95 129.826,-91.5001 129.826,-98.5001"/>
</g>
<!-- Node3 -->
<g id="node5" class="node"><title>Node3</title>
<a xlink:href="namespaceforcebalance_1_1finite__difference.html#acc281f85b668062745f711d9b4a610fa" target="_top" xlink:title="forcebalance.finite\l_difference.f12d7p">
<polygon fill="white" stroke="black" points="280.5,-78 280.5,-112 385.5,-112 385.5,-78 280.5,-78"/>
<text text-anchor="start" x="288.5" y="-99" font-family="Ubuntu-R" font-size="10.00">forcebalance.finite</text>
<text text-anchor="middle" x="333" y="-86" font-family="Ubuntu-R" font-size="10.00">_difference.f12d7p</text>
</a>
</g>
<!-- Node2&#45;&gt;Node3 -->
<g id="edge4" class="edge"><title>Node2&#45;&gt;Node3</title>
<path fill="none" stroke="midnightblue" d="M244.103,-95C252.56,-95 261.398,-95 270.08,-95"/>
<polygon fill="midnightblue" stroke="midnightblue" points="270.169,-98.5001 280.169,-95 270.169,-91.5001 270.169,-98.5001"/>
</g>
<!-- Node4 -->
<g id="node7" class="node"><title>Node4</title>
<a xlink:href="namespaceforcebalance_1_1finite__difference.html#aa69a8819e4680091f400303c1d6ddeb7" target="_top" xlink:title="A three&#45;point finite difference stencil.">
<polygon fill="white" stroke="black" points="422.5,-78 422.5,-112 527.5,-112 527.5,-78 422.5,-78"/>
<text text-anchor="start" x="430.5" y="-99" font-family="Ubuntu-R" font-size="10.00">forcebalance.finite</text>
<text text-anchor="middle" x="475" y="-86" font-family="Ubuntu-R" font-size="10.00">_difference.f12d3p</text>
</a>
</g>
<!-- Node3&#45;&gt;Node4 -->
<g id="edge6" class="edge"><title>Node3&#45;&gt;Node4</title>
<path fill="none" stroke="midnightblue" d="M385.876,-95C394.377,-95 403.25,-95 411.961,-95"/>
<polygon fill="midnightblue" stroke="midnightblue" points="412.08,-98.5001 422.08,-95 412.08,-91.5001 412.08,-98.5001"/>
</g>
<!-- Node5 -->
<g id="node9" class="node"><title>Node5</title>
<a xlink:href="namespaceforcebalance_1_1finite__difference.html#ad84d3e385db1190e7d8ef58bc08a6c52" target="_top" xlink:title="Invoking this function from anywhere will tell us whether we&#39;re being called by a finite&#45;difference f...">
<polygon fill="white" stroke="black" points="564,-104 564,-138 668,-138 668,-104 564,-104"/>
<text text-anchor="start" x="572" y="-125" font-family="Ubuntu-R" font-size="10.00">forcebalance.finite</text>
<text text-anchor="middle" x="616" y="-112" font-family="Ubuntu-R" font-size="10.00">_difference.in_fd</text>
</a>
</g>
<!-- Node4&#45;&gt;Node5 -->
<g id="edge8" class="edge"><title>Node4&#45;&gt;Node5</title>
<path fill="none" stroke="midnightblue" d="M527.503,-104.681C536.15,-106.276 545.184,-107.942 554.036,-109.574"/>
<polygon fill="midnightblue" stroke="midnightblue" points="553.454,-113.026 563.922,-111.397 554.723,-106.142 553.454,-113.026"/>
</g>
<!-- Node6 -->
<g id="node11" class="node"><title>Node6</title>
<a xlink:href="namespaceforcebalance_1_1finite__difference.html#ae484c591ae8c4e5bae73a0ef2660c339" target="_top" xlink:title="A function wrapper for finite difference designed for differentiating &#39;get&#39;&#45;type functions.">
<polygon fill="white" stroke="black" points="564,-52 564,-86 668,-86 668,-52 564,-52"/>
<text text-anchor="start" x="572" y="-73" font-family="Ubuntu-R" font-size="10.00">forcebalance.finite</text>
<text text-anchor="middle" x="616" y="-60" font-family="Ubuntu-R" font-size="10.00">_difference.fdwrap</text>
</a>
</g>
<!-- Node4&#45;&gt;Node6 -->
<g id="edge10" class="edge"><title>Node4&#45;&gt;Node6</title>
<path fill="none" stroke="midnightblue" d="M527.503,-85.3186C536.15,-83.7241 545.184,-82.0582 554.036,-80.426"/>
<polygon fill="midnightblue" stroke="midnightblue" points="554.723,-83.8584 563.922,-78.603 553.454,-76.9745 554.723,-83.8584"/>
</g>
<!-- Node7 -->
<g id="node13" class="node"><title>Node7</title>
<a xlink:href="namespaceforcebalance_1_1finite__difference.html#a00322fb65860c390616f74d05037c797" target="_top" xlink:title="A driver to fdwrap for gradients (see documentation for fdwrap) Inputs: tgt = The Target containing t...">
<polygon fill="white" stroke="black" points="704,-52 704,-86 820,-86 820,-52 704,-52"/>
<text text-anchor="start" x="712" y="-73" font-family="Ubuntu-R" font-size="10.00">forcebalance.finite</text>
<text text-anchor="middle" x="762" y="-60" font-family="Ubuntu-R" font-size="10.00">_difference.fdwrap_G</text>
</a>
</g>
<!-- Node6&#45;&gt;Node7 -->
<g id="edge12" class="edge"><title>Node6&#45;&gt;Node7</title>
<path fill="none" stroke="midnightblue" d="M668.297,-62.4973C676.589,-62.2942 685.27,-62.2162 693.86,-62.2633"/>
<polygon fill="midnightblue" stroke="midnightblue" points="693.836,-65.7632 703.875,-62.3761 693.915,-58.7636 693.836,-65.7632"/>
</g>
<!-- Node8 -->
<g id="node16" class="node"><title>Node8</title>
<a xlink:href="namespaceforcebalance_1_1finite__difference.html#a77a0bc1ae3cbbcc8d38a0ef9ca877d6d" target="_top" xlink:title="A driver to fdwrap for Hessians (see documentation for fdwrap) Inputs: tgt = The Target containing th...">
<polygon fill="white" stroke="black" points="704,-0 704,-34 820,-34 820,-0 704,-0"/>
<text text-anchor="start" x="712" y="-21" font-family="Ubuntu-R" font-size="10.00">forcebalance.finite</text>
<text text-anchor="middle" x="762" y="-8" font-family="Ubuntu-R" font-size="10.00">_difference.fdwrap_H</text>
</a>
</g>
<!-- Node6&#45;&gt;Node8 -->
<g id="edge16" class="edge"><title>Node6&#45;&gt;Node8</title>
<path fill="none" stroke="midnightblue" d="M663.806,-51.9733C676.788,-47.3493 690.983,-42.2938 704.443,-37.4997"/>
<polygon fill="midnightblue" stroke="midnightblue" points="705.841,-40.7174 714.087,-34.065 703.492,-34.1231 705.841,-40.7174"/>
</g>
<!-- Node7&#45;&gt;Node6 -->
<g id="edge14" class="edge"><title>Node7&#45;&gt;Node6</title>
<path fill="none" stroke="midnightblue" d="M703.875,-75.6239C695.52,-75.7674 686.894,-75.7884 678.459,-75.6871"/>
<polygon fill="midnightblue" stroke="midnightblue" points="678.359,-72.1848 668.297,-75.5027 678.232,-79.1836 678.359,-72.1848"/>
</g>
</g>
</svg>
