<?xml version="1.0" encoding="UTF-8" standalone="no"?>
<!DOCTYPE svg PUBLIC "-//W3C//DTD SVG 1.1//EN"
 "http://www.w3.org/Graphics/SVG/1.1/DTD/svg11.dtd">
<!-- Generated by graphviz version 2.32.0 (20130801.1845)
 -->
<!-- Title: forcebalance.openmmio.CopyAmoebaBondParameters Pages: 1 -->
<svg width="1912pt" height="40pt"
 viewBox="0.00 0.00 1912.00 40.00" xmlns="http://www.w3.org/2000/svg" xmlns:xlink="http://www.w3.org/1999/xlink">
<g id="graph0" class="graph" transform="scale(1 1) rotate(0) translate(4 36)">
<title>forcebalance.openmmio.CopyAmoebaBondParameters</title>
<polygon fill="white" stroke="white" points="-4,5 -4,-36 1909,-36 1909,5 -4,5"/>
<!-- Node1 -->
<g id="node1" class="node"><title>Node1</title>
<polygon fill="#bfbfbf" stroke="black" points="0.742,-0 0.742,-32 137.258,-32 137.258,-0 0.742,-0"/>
<text text-anchor="start" x="8.742" y="-19" font-family="Ubuntu-R" font-size="10.00">forcebalance.openmmio.Copy</text>
<text text-anchor="middle" x="69" y="-7" font-family="Ubuntu-R" font-size="10.00">AmoebaBondParameters</text>
</g>
<!-- Node2 -->
<g id="node2" class="node"><title>Node2</title>
<g id="a_node2"><a xlink:href="namespaceforcebalance_1_1openmmio.html#a2e95f600757655d41660c25af8fd8e80" target="_top" xlink:title="forcebalance.openmmio.Copy\lAmoebaOutOfPlaneBendParameters">
<polygon fill="white" stroke="black" points="174.417,-0 174.417,-32 337.583,-32 337.583,-0 174.417,-0"/>
<text text-anchor="start" x="182.417" y="-19" font-family="Ubuntu-R" font-size="10.00">forcebalance.openmmio.Copy</text>
<text text-anchor="middle" x="256" y="-7" font-family="Ubuntu-R" font-size="10.00">AmoebaOutOfPlaneBendParameters</text>
</a>
</g>
</g>
<!-- Node1&#45;&gt;Node2 -->
<g id="edge1" class="edge"><title>Node1&#45;&gt;Node2</title>
<path fill="none" stroke="midnightblue" d="M137.313,-16C146.02,-16 155.05,-16 164.059,-16"/>
<polygon fill="midnightblue" stroke="midnightblue" points="164.205,-19.5001 174.205,-16 164.205,-12.5001 164.205,-19.5001"/>
</g>
<!-- Node3 -->
<g id="node3" class="node"><title>Node3</title>
<g id="a_node3"><a xlink:href="namespaceforcebalance_1_1openmmio.html#abe9a6b9b200dc8487e56dad7249af3ec" target="_top" xlink:title="forcebalance.openmmio.Copy\lAmoebaAngleParameters">
<polygon fill="white" stroke="black" points="374.742,-0 374.742,-32 511.258,-32 511.258,-0 374.742,-0"/>
<text text-anchor="start" x="382.742" y="-19" font-family="Ubuntu-R" font-size="10.00">forcebalance.openmmio.Copy</text>
<text text-anchor="middle" x="443" y="-7" font-family="Ubuntu-R" font-size="10.00">AmoebaAngleParameters</text>
</a>
</g>
</g>
<!-- Node2&#45;&gt;Node3 -->
<g id="edge2" class="edge"><title>Node2&#45;&gt;Node3</title>
<path fill="none" stroke="midnightblue" d="M337.606,-16C346.494,-16 355.531,-16 364.381,-16"/>
<polygon fill="midnightblue" stroke="midnightblue" points="364.665,-19.5001 374.665,-16 364.665,-12.5001 364.665,-19.5001"/>
</g>
<!-- Node4 -->
<g id="node4" class="node"><title>Node4</title>
<g id="a_node4"><a xlink:href="namespaceforcebalance_1_1openmmio.html#ad0d4739f80f2aab1a861f2e03b8efcd6" target="_top" xlink:title="forcebalance.openmmio.Copy\lAmoebaInPlaneAngleParameters">
<polygon fill="white" stroke="black" points="548.361,-0 548.361,-32 697.639,-32 697.639,-0 548.361,-0"/>
<text text-anchor="start" x="556.361" y="-19" font-family="Ubuntu-R" font-size="10.00">forcebalance.openmmio.Copy</text>
<text text-anchor="middle" x="623" y="-7" font-family="Ubuntu-R" font-size="10.00">AmoebaInPlaneAngleParameters</text>
</a>
</g>
</g>
<!-- Node3&#45;&gt;Node4 -->
<g id="edge3" class="edge"><title>Node3&#45;&gt;Node4</title>
<path fill="none" stroke="midnightblue" d="M511.294,-16C520.021,-16 529.044,-16 538,-16"/>
<polygon fill="midnightblue" stroke="midnightblue" points="538.062,-19.5001 548.062,-16 538.062,-12.5001 538.062,-19.5001"/>
</g>
<!-- Node5 -->
<g id="node5" class="node"><title>Node5</title>
<g id="a_node5"><a xlink:href="namespaceforcebalance_1_1openmmio.html#abe005f73c6dfe9ce1052c9434bcad9be" target="_top" xlink:title="forcebalance.openmmio.Copy\lAmoebaVdwParameters">
<polygon fill="white" stroke="black" points="734.742,-0 734.742,-32 871.258,-32 871.258,-0 734.742,-0"/>
<text text-anchor="start" x="742.742" y="-19" font-family="Ubuntu-R" font-size="10.00">forcebalance.openmmio.Copy</text>
<text text-anchor="middle" x="803" y="-7" font-family="Ubuntu-R" font-size="10.00">AmoebaVdwParameters</text>
</a>
</g>
</g>
<!-- Node4&#45;&gt;Node5 -->
<g id="edge4" class="edge"><title>Node4&#45;&gt;Node5</title>
<path fill="none" stroke="midnightblue" d="M697.684,-16C706.579,-16 715.684,-16 724.63,-16"/>
<polygon fill="midnightblue" stroke="midnightblue" points="724.642,-19.5001 734.642,-16 724.642,-12.5001 724.642,-19.5001"/>
</g>
<!-- Node6 -->
<g id="node6" class="node"><title>Node6</title>
<g id="a_node6"><a xlink:href="namespaceforcebalance_1_1openmmio.html#a3706c19e71969cabe5782a4535abeffe" target="_top" xlink:title="forcebalance.openmmio.Copy\lAmoebaMultipoleParameters">
<polygon fill="white" stroke="black" points="908.742,-0 908.742,-32 1045.26,-32 1045.26,-0 908.742,-0"/>
<text text-anchor="start" x="916.742" y="-19" font-family="Ubuntu-R" font-size="10.00">forcebalance.openmmio.Copy</text>
<text text-anchor="middle" x="977" y="-7" font-family="Ubuntu-R" font-size="10.00">AmoebaMultipoleParameters</text>
</a>
</g>
</g>
<!-- Node5&#45;&gt;Node6 -->
<g id="edge5" class="edge"><title>Node5&#45;&gt;Node6</title>
<path fill="none" stroke="midnightblue" d="M871.485,-16C880.375,-16 889.541,-16 898.58,-16"/>
<polygon fill="midnightblue" stroke="midnightblue" points="898.709,-19.5001 908.709,-16 898.709,-12.5001 898.709,-19.5001"/>
</g>
<!-- Node7 -->
<g id="node7" class="node"><title>Node7</title>
<g id="a_node7"><a xlink:href="namespaceforcebalance_1_1openmmio.html#a616f12cc53381716e5fa41f00bf623be" target="_top" xlink:title="forcebalance.openmmio.Copy\lHarmonicBondParameters">
<polygon fill="white" stroke="black" points="1082.74,-0 1082.74,-32 1219.26,-32 1219.26,-0 1082.74,-0"/>
<text text-anchor="start" x="1090.74" y="-19" font-family="Ubuntu-R" font-size="10.00">forcebalance.openmmio.Copy</text>
<text text-anchor="middle" x="1151" y="-7" font-family="Ubuntu-R" font-size="10.00">HarmonicBondParameters</text>
</a>
</g>
</g>
<!-- Node6&#45;&gt;Node7 -->
<g id="edge6" class="edge"><title>Node6&#45;&gt;Node7</title>
<path fill="none" stroke="midnightblue" d="M1045.49,-16C1054.37,-16 1063.54,-16 1072.58,-16"/>
<polygon fill="midnightblue" stroke="midnightblue" points="1072.71,-19.5001 1082.71,-16 1072.71,-12.5001 1072.71,-19.5001"/>
</g>
<!-- Node8 -->
<g id="node8" class="node"><title>Node8</title>
<g id="a_node8"><a xlink:href="namespaceforcebalance_1_1openmmio.html#af4ed16f5e2b1cd12bce2f25fab1b05bc" target="_top" xlink:title="forcebalance.openmmio.Copy\lHarmonicAngleParameters">
<polygon fill="white" stroke="black" points="1256.74,-0 1256.74,-32 1393.26,-32 1393.26,-0 1256.74,-0"/>
<text text-anchor="start" x="1264.74" y="-19" font-family="Ubuntu-R" font-size="10.00">forcebalance.openmmio.Copy</text>
<text text-anchor="middle" x="1325" y="-7" font-family="Ubuntu-R" font-size="10.00">HarmonicAngleParameters</text>
</a>
</g>
</g>
<!-- Node7&#45;&gt;Node8 -->
<g id="edge7" class="edge"><title>Node7&#45;&gt;Node8</title>
<path fill="none" stroke="midnightblue" d="M1219.49,-16C1228.37,-16 1237.54,-16 1246.58,-16"/>
<polygon fill="midnightblue" stroke="midnightblue" points="1246.71,-19.5001 1256.71,-16 1246.71,-12.5001 1246.71,-19.5001"/>
</g>
<!-- Node9 -->
<g id="node9" class="node"><title>Node9</title>
<g id="a_node9"><a xlink:href="namespaceforcebalance_1_1openmmio.html#a8f13702754f0b4e43e272139a2ce8341" target="_top" xlink:title="forcebalance.openmmio.Copy\lPeriodicTorsionParameters">
<polygon fill="white" stroke="black" points="1430.74,-0 1430.74,-32 1567.26,-32 1567.26,-0 1430.74,-0"/>
<text text-anchor="start" x="1438.74" y="-19" font-family="Ubuntu-R" font-size="10.00">forcebalance.openmmio.Copy</text>
<text text-anchor="middle" x="1499" y="-7" font-family="Ubuntu-R" font-size="10.00">PeriodicTorsionParameters</text>
</a>
</g>
</g>
<!-- Node8&#45;&gt;Node9 -->
<g id="edge8" class="edge"><title>Node8&#45;&gt;Node9</title>
<path fill="none" stroke="midnightblue" d="M1393.49,-16C1402.37,-16 1411.54,-16 1420.58,-16"/>
<polygon fill="midnightblue" stroke="midnightblue" points="1420.71,-19.5001 1430.71,-16 1420.71,-12.5001 1420.71,-19.5001"/>
</g>
<!-- Node10 -->
<g id="node10" class="node"><title>Node10</title>
<g id="a_node10"><a xlink:href="namespaceforcebalance_1_1openmmio.html#afead47464a644d9225f9fa8eb568a8ed" target="_top" xlink:title="forcebalance.openmmio.Copy\lNonbondedParameters">
<polygon fill="white" stroke="black" points="1604.74,-0 1604.74,-32 1741.26,-32 1741.26,-0 1604.74,-0"/>
<text text-anchor="start" x="1612.74" y="-19" font-family="Ubuntu-R" font-size="10.00">forcebalance.openmmio.Copy</text>
<text text-anchor="middle" x="1673" y="-7" font-family="Ubuntu-R" font-size="10.00">NonbondedParameters</text>
</a>
</g>
</g>
<!-- Node9&#45;&gt;Node10 -->
<g id="edge9" class="edge"><title>Node9&#45;&gt;Node10</title>
<path fill="none" stroke="midnightblue" d="M1567.49,-16C1576.37,-16 1585.54,-16 1594.58,-16"/>
<polygon fill="midnightblue" stroke="midnightblue" points="1594.71,-19.5001 1604.71,-16 1594.71,-12.5001 1594.71,-19.5001"/>
</g>
<!-- Node11 -->
<g id="node11" class="node"><title>Node11</title>
<g id="a_node11"><a xlink:href="namespaceforcebalance_1_1openmmio.html#a2bb7add6b813d94f2655372c51fe8fdc" target="_top" xlink:title="forcebalance.openmmio.do\l_nothing">
<polygon fill="white" stroke="black" points="1778.58,-0 1778.58,-32 1903.42,-32 1903.42,-0 1778.58,-0"/>
<text text-anchor="start" x="1786.58" y="-19" font-family="Ubuntu-R" font-size="10.00">forcebalance.openmmio.do</text>
<text text-anchor="middle" x="1841" y="-7" font-family="Ubuntu-R" font-size="10.00">_nothing</text>
</a>
</g>
</g>
<!-- Node10&#45;&gt;Node11 -->
<g id="edge10" class="edge"><title>Node10&#45;&gt;Node11</title>
<path fill="none" stroke="midnightblue" d="M1741.52,-16C1750.29,-16 1759.31,-16 1768.15,-16"/>
<polygon fill="midnightblue" stroke="midnightblue" points="1768.42,-19.5001 1778.42,-16 1768.42,-12.5001 1768.42,-19.5001"/>
</g>
</g>
</svg>
