<?xml version="1.0" encoding="UTF-8" standalone="no"?>
<!DOCTYPE svg PUBLIC "-//W3C//DTD SVG 1.1//EN"
 "http://www.w3.org/Graphics/SVG/1.1/DTD/svg11.dtd">
<!-- Generated by graphviz version 2.32.0 (20130801.1845)
 -->
<!-- Title: forcebalance.nifty.allsplit Pages: 1 -->
<svg width="430pt" height="40pt"
 viewBox="0.00 0.00 430.00 40.00" xmlns="http://www.w3.org/2000/svg" xmlns:xlink="http://www.w3.org/1999/xlink">
<g id="graph0" class="graph" transform="scale(1 1) rotate(0) translate(4 36)">
<title>forcebalance.nifty.allsplit</title>
<polygon fill="white" stroke="white" points="-4,5 -4,-36 427,-36 427,5 -4,5"/>
<!-- Node1 -->
<g id="node1" class="node"><title>Node1</title>
<polygon fill="#bfbfbf" stroke="black" points="-0.0905,-6 -0.0905,-26 118.091,-26 118.091,-6 -0.0905,-6"/>
<text text-anchor="middle" x="59" y="-13" font-family="Ubuntu-R" font-size="10.00">forcebalance.nifty.allsplit</text>
</g>
<!-- Node2 -->
<g id="node2" class="node"><title>Node2</title>
<g id="a_node2"><a xlink:href="namespaceforcebalance_1_1nifty.html#ae87c7def5f8edf2ec30737bdb1d2636f" target="_top" xlink:title="forcebalance.nifty.Missing\lFileInspection">
<polygon fill="white" stroke="black" points="154.409,-0 154.409,-32 277.591,-32 277.591,-0 154.409,-0"/>
<text text-anchor="start" x="162.409" y="-19" font-family="Ubuntu-R" font-size="10.00">forcebalance.nifty.Missing</text>
<text text-anchor="middle" x="216" y="-7" font-family="Ubuntu-R" font-size="10.00">FileInspection</text>
</a>
</g>
</g>
<!-- Node1&#45;&gt;Node2 -->
<g id="edge1" class="edge"><title>Node1&#45;&gt;Node2</title>
<path fill="none" stroke="midnightblue" d="M118.157,-16C126.616,-16 135.403,-16 144.079,-16"/>
<polygon fill="midnightblue" stroke="midnightblue" points="144.187,-19.5001 154.187,-16 144.187,-12.5001 144.187,-19.5001"/>
</g>
<!-- Node3 -->
<g id="node3" class="node"><title>Node3</title>
<g id="a_node3"><a xlink:href="namespaceforcebalance_1_1nifty.html#a0cf4e58f90acf20e3d6224be2354082c" target="_top" xlink:title="forcebalance.nifty.link\l_dir_contents">
<polygon fill="white" stroke="black" points="314.742,-0 314.742,-32 421.258,-32 421.258,-0 314.742,-0"/>
<text text-anchor="start" x="322.742" y="-19" font-family="Ubuntu-R" font-size="10.00">forcebalance.nifty.link</text>
<text text-anchor="middle" x="368" y="-7" font-family="Ubuntu-R" font-size="10.00">_dir_contents</text>
</a>
</g>
</g>
<!-- Node2&#45;&gt;Node3 -->
<g id="edge2" class="edge"><title>Node2&#45;&gt;Node3</title>
<path fill="none" stroke="midnightblue" d="M278.011,-16C286.755,-16 295.763,-16 304.535,-16"/>
<polygon fill="midnightblue" stroke="midnightblue" points="304.695,-19.5001 314.695,-16 304.695,-12.5001 304.695,-19.5001"/>
</g>
</g>
</svg>
