<?xml version="1.0" encoding="UTF-8" standalone="no"?>
<!DOCTYPE svg PUBLIC "-//W3C//DTD SVG 1.1//EN"
 "http://www.w3.org/Graphics/SVG/1.1/DTD/svg11.dtd">
<!-- Generated by graphviz version 2.28.0 (20111219.2309)
 -->
<!-- Title: forcebalance.nifty.pmat2d Pages: 1 -->
<svg width="2590pt" height="142pt"
 viewBox="0.00 0.00 2590.00 142.00" xmlns="http://www.w3.org/2000/svg" xmlns:xlink="http://www.w3.org/1999/xlink">
<g id="graph1" class="graph" transform="scale(1 1) rotate(0) translate(4 138)">
<title>forcebalance.nifty.pmat2d</title>
<polygon fill="white" stroke="white" points="-4,5 -4,-138 2587,-138 2587,5 -4,5"/>
<!-- Node1 -->
<g id="node1" class="node"><title>Node1</title>
<polygon fill="#bfbfbf" stroke="black" points="0,-76.5 0,-95.5 140,-95.5 140,-76.5 0,-76.5"/>
<text text-anchor="middle" x="70" y="-83.5" font-family="Ubuntu-R" font-size="10.00">forcebalance.nifty.pmat2d</text>
</g>
<!-- Node2 -->
<g id="node3" class="node"><title>Node2</title>
<a xlink:href="namespaceforcebalance_1_1nifty.html#a3b437964dc22735bf8a7dcbaf99e413d" target="_top" xlink:title="forcebalance.nifty.encode">
<polygon fill="white" stroke="black" points="176,-76.5 176,-95.5 314,-95.5 314,-76.5 176,-76.5"/>
<text text-anchor="middle" x="245" y="-83.5" font-family="Ubuntu-R" font-size="10.00">forcebalance.nifty.encode</text>
</a>
</g>
<!-- Node1&#45;&gt;Node2 -->
<g id="edge2" class="edge"><title>Node1&#45;&gt;Node2</title>
<path fill="none" stroke="midnightblue" d="M140.369,-86C148.656,-86 157.161,-86 165.565,-86"/>
<polygon fill="midnightblue" stroke="midnightblue" points="165.742,-89.5001 175.742,-86 165.742,-82.5001 165.742,-89.5001"/>
</g>
<!-- Node3 -->
<g id="node5" class="node"><title>Node3</title>
<a xlink:href="namespaceforcebalance_1_1nifty.html#a3b9fd8e29c5d8f1b2114e4d9662dfd61" target="_top" xlink:title="forcebalance.nifty.segments">
<polygon fill="white" stroke="black" points="350.5,-95.5 350.5,-114.5 501.5,-114.5 501.5,-95.5 350.5,-95.5"/>
<text text-anchor="middle" x="426" y="-102.5" font-family="Ubuntu-R" font-size="10.00">forcebalance.nifty.segments</text>
</a>
</g>
<!-- Node2&#45;&gt;Node3 -->
<g id="edge4" class="edge"><title>Node2&#45;&gt;Node3</title>
<path fill="none" stroke="midnightblue" d="M314.183,-93.2373C322.704,-94.1418 331.5,-95.0754 340.234,-96.0025"/>
<polygon fill="midnightblue" stroke="midnightblue" points="340.127,-99.5107 350.441,-97.0859 340.866,-92.5498 340.127,-99.5107"/>
</g>
<!-- Node4 -->
<g id="node7" class="node"><title>Node4</title>
<a xlink:href="namespaceforcebalance_1_1nifty.html#a9628ee448710667747d8aa5dc166532c" target="_top" xlink:title="forcebalance.nifty.commadash">
<polygon fill="white" stroke="black" points="538.5,-95.5 538.5,-114.5 701.5,-114.5 701.5,-95.5 538.5,-95.5"/>
<text text-anchor="middle" x="620" y="-102.5" font-family="Ubuntu-R" font-size="10.00">forcebalance.nifty.commadash</text>
</a>
</g>
<!-- Node3&#45;&gt;Node4 -->
<g id="edge6" class="edge"><title>Node3&#45;&gt;Node4</title>
<path fill="none" stroke="midnightblue" d="M501.507,-98.4027C510.315,-98.2756 519.376,-98.2279 528.375,-98.2594"/>
<polygon fill="midnightblue" stroke="midnightblue" points="528.467,-101.76 538.491,-98.3287 528.515,-94.7602 528.467,-101.76"/>
</g>
<!-- Node4&#45;&gt;Node2 -->
<g id="edge10" class="edge"><title>Node4&#45;&gt;Node2</title>
<path fill="none" stroke="midnightblue" d="M571.395,-95.4871C550.24,-91.7216 524.973,-87.8532 502,-86 442.526,-81.2023 375.027,-81.4366 324.276,-82.7446"/>
<polygon fill="midnightblue" stroke="midnightblue" points="323.932,-79.2527 314.033,-83.029 324.126,-86.25 323.932,-79.2527"/>
</g>
<!-- Node4&#45;&gt;Node3 -->
<g id="edge8" class="edge"><title>Node4&#45;&gt;Node3</title>
<path fill="none" stroke="midnightblue" d="M538.491,-111.671C529.585,-111.763 520.496,-111.774 511.542,-111.707"/>
<polygon fill="midnightblue" stroke="midnightblue" points="511.545,-108.207 501.507,-111.597 511.468,-115.207 511.545,-108.207"/>
</g>
<!-- Node5 -->
<g id="node11" class="node"><title>Node5</title>
<a xlink:href="namespaceforcebalance_1_1nifty.html#afa670d68f01813ac8d429bc5cbdb4f9f" target="_top" xlink:title="forcebalance.nifty.uncommadash">
<polygon fill="white" stroke="black" points="738.5,-95.5 738.5,-114.5 913.5,-114.5 913.5,-95.5 738.5,-95.5"/>
<text text-anchor="middle" x="826" y="-102.5" font-family="Ubuntu-R" font-size="10.00">forcebalance.nifty.uncommadash</text>
</a>
</g>
<!-- Node4&#45;&gt;Node5 -->
<g id="edge12" class="edge"><title>Node4&#45;&gt;Node5</title>
<path fill="none" stroke="midnightblue" d="M701.626,-105C710.365,-105 719.324,-105 728.228,-105"/>
<polygon fill="midnightblue" stroke="midnightblue" points="728.245,-108.5 738.245,-105 728.245,-101.5 728.245,-108.5"/>
</g>
<!-- Node6 -->
<g id="node13" class="node"><title>Node6</title>
<a xlink:href="namespaceforcebalance_1_1nifty.html#a11babd62dc7bca389162c6318f9672ca" target="_top" xlink:title="Cool&#45;looking printout for slick formatting of output. ">
<polygon fill="white" stroke="black" points="950,-95.5 950,-114.5 1094,-114.5 1094,-95.5 950,-95.5"/>
<text text-anchor="middle" x="1022" y="-102.5" font-family="Ubuntu-R" font-size="10.00">forcebalance.nifty.printcool</text>
</a>
</g>
<!-- Node5&#45;&gt;Node6 -->
<g id="edge14" class="edge"><title>Node5&#45;&gt;Node6</title>
<path fill="none" stroke="midnightblue" d="M913.504,-105C922.218,-105 931.048,-105 939.705,-105"/>
<polygon fill="midnightblue" stroke="midnightblue" points="939.773,-108.5 949.773,-105 939.773,-101.5 939.773,-108.5"/>
</g>
<!-- Node7 -->
<g id="node15" class="node"><title>Node7</title>
<a xlink:href="namespaceforcebalance_1_1nifty.html#abb8f59044961a12588e0653c2baa8b01" target="_top" xlink:title="forcebalance.nifty.warn\l_press_key">
<polygon fill="white" stroke="black" points="2217.5,-103 2217.5,-133 2342.5,-133 2342.5,-103 2217.5,-103"/>
<text text-anchor="start" x="2225.5" y="-121" font-family="Ubuntu-R" font-size="10.00">forcebalance.nifty.warn</text>
<text text-anchor="middle" x="2280" y="-110" font-family="Ubuntu-R" font-size="10.00">_press_key</text>
</a>
</g>
<!-- Node6&#45;&gt;Node7 -->
<g id="edge16" class="edge"><title>Node6&#45;&gt;Node7</title>
<path fill="none" stroke="midnightblue" d="M1094.05,-111.169C1164.14,-116.717 1274.37,-124 1370,-124 1370,-124 1370,-124 1897,-124 2005.23,-124 2130.69,-121.562 2207.44,-119.795"/>
<polygon fill="midnightblue" stroke="midnightblue" points="2207.56,-123.293 2217.47,-119.561 2207.4,-116.295 2207.56,-123.293"/>
</g>
<!-- Node9 -->
<g id="node19" class="node"><title>Node9</title>
<a xlink:href="namespaceforcebalance_1_1nifty.html#a51180e960742cc7547749fdfb3513ec4" target="_top" xlink:title="See documentation for printcool; this is a nice way to print out keys/values in a dictionary...">
<polygon fill="white" stroke="black" points="1130,-33 1130,-63 1274,-63 1274,-33 1130,-33"/>
<text text-anchor="start" x="1138" y="-51" font-family="Ubuntu-R" font-size="10.00">forcebalance.nifty.printcool</text>
<text text-anchor="middle" x="1202" y="-40" font-family="Ubuntu-R" font-size="10.00">_dictionary</text>
</a>
</g>
<!-- Node6&#45;&gt;Node9 -->
<g id="edge20" class="edge"><title>Node6&#45;&gt;Node9</title>
<path fill="none" stroke="midnightblue" d="M1052.79,-95.4595C1077.71,-87.4808 1113.96,-75.8739 1144.37,-66.1359"/>
<polygon fill="midnightblue" stroke="midnightblue" points="1145.56,-69.4299 1154.01,-63.0468 1143.42,-62.7633 1145.56,-69.4299"/>
</g>
<!-- Node8 -->
<g id="node17" class="node"><title>Node8</title>
<a xlink:href="namespaceforcebalance_1_1nifty.html#a2fc81730e7efa7d138dd86f733507bfc" target="_top" xlink:title="Similar to the bultin function map(). ">
<polygon fill="white" stroke="black" points="2400,-108.5 2400,-127.5 2582,-127.5 2582,-108.5 2400,-108.5"/>
<text text-anchor="middle" x="2491" y="-115.5" font-family="Ubuntu-R" font-size="10.00">forcebalance.nifty.concurrent_map</text>
</a>
</g>
<!-- Node7&#45;&gt;Node8 -->
<g id="edge18" class="edge"><title>Node7&#45;&gt;Node8</title>
<path fill="none" stroke="midnightblue" d="M2342.58,-118C2357.43,-118 2373.69,-118 2389.81,-118"/>
<polygon fill="midnightblue" stroke="midnightblue" points="2389.82,-121.5 2399.82,-118 2389.82,-114.5 2389.82,-121.5"/>
</g>
<!-- Node10 -->
<g id="node21" class="node"><title>Node10</title>
<a xlink:href="namespaceforcebalance_1_1nifty.html#a3f1c7a1af9d35d5d1693074bc6f5497c" target="_top" xlink:title="ONLY matches integers! If you have a decimal point? None shall pass! ">
<polygon fill="white" stroke="black" points="1310,-38.5 1310,-57.5 1432,-57.5 1432,-38.5 1310,-38.5"/>
<text text-anchor="middle" x="1371" y="-45.5" font-family="Ubuntu-R" font-size="10.00">forcebalance.nifty.isint</text>
</a>
</g>
<!-- Node9&#45;&gt;Node10 -->
<g id="edge22" class="edge"><title>Node9&#45;&gt;Node10</title>
<path fill="none" stroke="midnightblue" d="M1274.31,-48C1282.75,-48 1291.37,-48 1299.8,-48"/>
<polygon fill="midnightblue" stroke="midnightblue" points="1299.97,-51.5001 1309.97,-48 1299.97,-44.5001 1299.97,-51.5001"/>
</g>
<!-- Node12 -->
<g id="node25" class="node"><title>Node12</title>
<a xlink:href="namespaceforcebalance_1_1nifty.html#a8e3ef0108b9d37b82ba0dced7c6037ae" target="_top" xlink:title="Matches ANY number; it can be a decimal, scientific notation, what have you CAUTION &#45; this will also ...">
<polygon fill="white" stroke="black" points="1652.5,-19.5 1652.5,-38.5 1783.5,-38.5 1783.5,-19.5 1652.5,-19.5"/>
<text text-anchor="middle" x="1718" y="-26.5" font-family="Ubuntu-R" font-size="10.00">forcebalance.nifty.isfloat</text>
</a>
</g>
<!-- Node9&#45;&gt;Node12 -->
<g id="edge52" class="edge"><title>Node9&#45;&gt;Node12</title>
<path fill="none" stroke="midnightblue" d="M1274.14,-33.5721C1286.06,-31.6703 1298.35,-30.0265 1310,-29 1425.59,-18.8166 1560.37,-21.6987 1642.15,-25.0738"/>
<polygon fill="midnightblue" stroke="midnightblue" points="1642.21,-28.5793 1652.35,-25.5086 1642.51,-21.5857 1642.21,-28.5793"/>
</g>
<!-- Node11 -->
<g id="node23" class="node"><title>Node11</title>
<a xlink:href="namespaceforcebalance_1_1nifty.html#a09263927eaec9deff283fbf1a820242f" target="_top" xlink:title="Matches things with a decimal only; see isint and isfloat. ">
<polygon fill="white" stroke="black" points="1468,-57.5 1468,-76.5 1616,-76.5 1616,-57.5 1468,-57.5"/>
<text text-anchor="middle" x="1542" y="-64.5" font-family="Ubuntu-R" font-size="10.00">forcebalance.nifty.isdecimal</text>
</a>
</g>
<!-- Node10&#45;&gt;Node11 -->
<g id="edge24" class="edge"><title>Node10&#45;&gt;Node11</title>
<path fill="none" stroke="midnightblue" d="M1432.06,-54.7522C1440.38,-55.6875 1449.04,-56.6617 1457.69,-57.634"/>
<polygon fill="midnightblue" stroke="midnightblue" points="1457.49,-61.1329 1467.81,-58.7721 1458.27,-54.1767 1457.49,-61.1329"/>
</g>
<!-- Node11&#45;&gt;Node12 -->
<g id="edge26" class="edge"><title>Node11&#45;&gt;Node12</title>
<path fill="none" stroke="midnightblue" d="M1586.91,-57.411C1610.18,-52.3287 1638.95,-46.0446 1663.52,-40.6797"/>
<polygon fill="midnightblue" stroke="midnightblue" points="1664.39,-44.0732 1673.41,-38.5201 1662.89,-37.2343 1664.39,-44.0732"/>
</g>
<!-- Node16 -->
<g id="node34" class="node"><title>Node16</title>
<a xlink:href="namespaceforcebalance_1_1nifty.html#afb3f205bce4984856e766af7e9fdaca8" target="_top" xlink:title="Given any list, array, or matrix, return a 1&#45;column matrix. ">
<polygon fill="white" stroke="black" points="1660,-57.5 1660,-76.5 1776,-76.5 1776,-57.5 1660,-57.5"/>
<text text-anchor="middle" x="1718" y="-64.5" font-family="Ubuntu-R" font-size="10.00">forcebalance.nifty.col</text>
</a>
</g>
<!-- Node11&#45;&gt;Node16 -->
<g id="edge36" class="edge"><title>Node11&#45;&gt;Node16</title>
<path fill="none" stroke="midnightblue" d="M1616.04,-67C1627.1,-67 1638.47,-67 1649.42,-67"/>
<polygon fill="midnightblue" stroke="midnightblue" points="1649.75,-70.5001 1659.75,-67 1649.75,-63.5001 1649.75,-70.5001"/>
</g>
<!-- Node12&#45;&gt;Node10 -->
<g id="edge28" class="edge"><title>Node12&#45;&gt;Node10</title>
<path fill="none" stroke="midnightblue" d="M1652.32,-32.5619C1592.45,-35.8591 1503.66,-40.7494 1442.11,-44.1389"/>
<polygon fill="midnightblue" stroke="midnightblue" points="1441.89,-40.6458 1432.09,-44.6905 1442.27,-47.6352 1441.89,-40.6458"/>
</g>
<!-- Node13 -->
<g id="node28" class="node"><title>Node13</title>
<a xlink:href="namespaceforcebalance_1_1nifty.html#a8d63c8ae9a67c66673a6cf81357f827d" target="_top" xlink:title="Returns a big number if we encounter NaN. ">
<polygon fill="white" stroke="black" points="1820,-0.5 1820,-19.5 1972,-19.5 1972,-0.5 1820,-0.5"/>
<text text-anchor="middle" x="1896" y="-7.5" font-family="Ubuntu-R" font-size="10.00">forcebalance.nifty.floatornan</text>
</a>
</g>
<!-- Node12&#45;&gt;Node13 -->
<g id="edge30" class="edge"><title>Node12&#45;&gt;Node13</title>
<path fill="none" stroke="midnightblue" d="M1783.54,-22.033C1792,-21.1195 1800.77,-20.1723 1809.51,-19.2287"/>
<polygon fill="midnightblue" stroke="midnightblue" points="1810.17,-22.6781 1819.74,-18.1249 1809.42,-15.7185 1810.17,-22.6781"/>
</g>
<!-- Node14 -->
<g id="node30" class="node"><title>Node14</title>
<a xlink:href="namespaceforcebalance_1_1nifty.html#a6c9727360cdff8f3011a12cc54d0e86e" target="_top" xlink:title="Given any list, array, or matrix, return a 1&#45;row matrix. ">
<polygon fill="white" stroke="black" points="2024.5,-0.5 2024.5,-19.5 2143.5,-19.5 2143.5,-0.5 2024.5,-0.5"/>
<text text-anchor="middle" x="2084" y="-7.5" font-family="Ubuntu-R" font-size="10.00">forcebalance.nifty.row</text>
</a>
</g>
<!-- Node13&#45;&gt;Node14 -->
<g id="edge32" class="edge"><title>Node13&#45;&gt;Node14</title>
<path fill="none" stroke="midnightblue" d="M1972.12,-10C1986.02,-10 2000.47,-10 2014.17,-10"/>
<polygon fill="midnightblue" stroke="midnightblue" points="2014.48,-13.5001 2024.48,-10 2014.48,-6.5001 2014.48,-13.5001"/>
</g>
<!-- Node15 -->
<g id="node32" class="node"><title>Node15</title>
<a xlink:href="namespaceforcebalance_1_1nifty.html#a7676236002c6a65ea7d2e69a09923889" target="_top" xlink:title="Given two vectors vec1 and vec2, project out the component of vec1 that is along the vec2&#45;direction...">
<polygon fill="white" stroke="black" points="2196,-0.5 2196,-19.5 2364,-19.5 2364,-0.5 2196,-0.5"/>
<text text-anchor="middle" x="2280" y="-7.5" font-family="Ubuntu-R" font-size="10.00">forcebalance.nifty.orthogonalize</text>
</a>
</g>
<!-- Node14&#45;&gt;Node15 -->
<g id="edge34" class="edge"><title>Node14&#45;&gt;Node15</title>
<path fill="none" stroke="midnightblue" d="M2143.73,-10C2156.92,-10 2171.24,-10 2185.46,-10"/>
<polygon fill="midnightblue" stroke="midnightblue" points="2185.78,-13.5001 2195.78,-10 2185.78,-6.5001 2185.78,-13.5001"/>
</g>
<!-- Node17 -->
<g id="node36" class="node"><title>Node17</title>
<a xlink:href="namespaceforcebalance_1_1nifty.html#a52114ceee9d55f94d9aecb3e176de294" target="_top" xlink:title="Given any list, array, or matrix, return a single&#45;index array. ">
<polygon fill="white" stroke="black" points="1837,-38.5 1837,-57.5 1955,-57.5 1955,-38.5 1837,-38.5"/>
<text text-anchor="middle" x="1896" y="-45.5" font-family="Ubuntu-R" font-size="10.00">forcebalance.nifty.flat</text>
</a>
</g>
<!-- Node16&#45;&gt;Node17 -->
<g id="edge38" class="edge"><title>Node16&#45;&gt;Node17</title>
<path fill="none" stroke="midnightblue" d="M1776.14,-60.8312C1792.27,-59.0904 1809.98,-57.1787 1826.69,-55.3748"/>
<polygon fill="midnightblue" stroke="midnightblue" points="1827.37,-58.8212 1836.94,-54.268 1826.62,-51.8616 1827.37,-58.8212"/>
</g>
<!-- Node18 -->
<g id="node38" class="node"><title>Node18</title>
<a xlink:href="namespaceforcebalance_1_1nifty.html#a4c82187e92dfeb8a159f4aa44b501c40" target="_top" xlink:title="Invert a matrix using singular value decomposition. ">
<polygon fill="white" stroke="black" points="2008,-76.5 2008,-95.5 2160,-95.5 2160,-76.5 2008,-76.5"/>
<text text-anchor="middle" x="2084" y="-83.5" font-family="Ubuntu-R" font-size="10.00">forcebalance.nifty.invert_svd</text>
</a>
</g>
<!-- Node17&#45;&gt;Node18 -->
<g id="edge40" class="edge"><title>Node17&#45;&gt;Node18</title>
<path fill="none" stroke="midnightblue" d="M1943.94,-57.589C1969.03,-62.7165 2000.12,-69.0672 2026.53,-74.4632"/>
<polygon fill="midnightblue" stroke="midnightblue" points="2025.9,-77.9074 2036.4,-76.4799 2027.3,-71.049 2025.9,-77.9074"/>
</g>
<!-- Node18&#45;&gt;Node7 -->
<g id="edge50" class="edge"><title>Node18&#45;&gt;Node7</title>
<path fill="none" stroke="midnightblue" d="M2142.68,-95.5144C2163.03,-98.8703 2186.15,-102.684 2207.5,-106.206"/>
<polygon fill="midnightblue" stroke="midnightblue" points="2207.05,-109.68 2217.49,-107.854 2208.19,-102.773 2207.05,-109.68"/>
</g>
<!-- Node18&#45;&gt;Node16 -->
<g id="edge48" class="edge"><title>Node18&#45;&gt;Node16</title>
<path fill="none" stroke="midnightblue" d="M2007.75,-82.0722C1942.6,-78.6715 1849.22,-73.7975 1786.46,-70.5214"/>
<polygon fill="midnightblue" stroke="midnightblue" points="1786.44,-67.0158 1776.28,-69.9897 1786.08,-74.0063 1786.44,-67.0158"/>
</g>
<!-- Node19 -->
<g id="node40" class="node"><title>Node19</title>
<a xlink:href="namespaceforcebalance_1_1nifty.html#aa9fb9c7c65231eca50a7afc04f489b64" target="_top" xlink:title="forcebalance.nifty.get\l_least_squares">
<polygon fill="white" stroke="black" points="2220.5,-49 2220.5,-79 2339.5,-79 2339.5,-49 2220.5,-49"/>
<text text-anchor="start" x="2228.5" y="-67" font-family="Ubuntu-R" font-size="10.00">forcebalance.nifty.get</text>
<text text-anchor="middle" x="2280" y="-56" font-family="Ubuntu-R" font-size="10.00">_least_squares</text>
</a>
</g>
<!-- Node18&#45;&gt;Node19 -->
<g id="edge42" class="edge"><title>Node18&#45;&gt;Node19</title>
<path fill="none" stroke="midnightblue" d="M2160.01,-77.4942C2176.61,-75.6117 2194.11,-73.6264 2210.44,-71.7748"/>
<polygon fill="midnightblue" stroke="midnightblue" points="2210.89,-75.2459 2220.44,-70.6413 2210.11,-68.2905 2210.89,-75.2459"/>
</g>
<!-- Node19&#45;&gt;Node17 -->
<g id="edge44" class="edge"><title>Node19&#45;&gt;Node17</title>
<path fill="none" stroke="midnightblue" d="M2220.44,-61.5471C2151.76,-58.6707 2038.1,-53.9101 1965.43,-50.8663"/>
<polygon fill="midnightblue" stroke="midnightblue" points="1965.16,-47.3517 1955.02,-50.4301 1964.86,-54.3456 1965.16,-47.3517"/>
</g>
<!-- Node20 -->
<g id="node43" class="node"><title>Node20</title>
<a xlink:href="namespaceforcebalance_1_1nifty.html#ad5ca60565c864b4245a8212fe9d92e10" target="_top" xlink:title="Compute the (cross) statistical inefficiency of (two) timeseries. ">
<polygon fill="white" stroke="black" points="2416.5,-49 2416.5,-79 2565.5,-79 2565.5,-49 2416.5,-49"/>
<text text-anchor="start" x="2424.5" y="-67" font-family="Ubuntu-R" font-size="10.00">forcebalance.nifty.statistical</text>
<text text-anchor="middle" x="2491" y="-56" font-family="Ubuntu-R" font-size="10.00">Inefficiency</text>
</a>
</g>
<!-- Node19&#45;&gt;Node20 -->
<g id="edge46" class="edge"><title>Node19&#45;&gt;Node20</title>
<path fill="none" stroke="midnightblue" d="M2339.77,-64C2360.4,-64 2383.99,-64 2406.26,-64"/>
<polygon fill="midnightblue" stroke="midnightblue" points="2406.39,-67.5001 2416.39,-64 2406.39,-60.5001 2406.39,-67.5001"/>
</g>
</g>
</svg>
