<?xml version="1.0" encoding="UTF-8" standalone="no"?>
<!DOCTYPE svg PUBLIC "-//W3C//DTD SVG 1.1//EN"
 "http://www.w3.org/Graphics/SVG/1.1/DTD/svg11.dtd">
<!-- Generated by graphviz version 2.32.0 (20130801.1845)
 -->
<!-- Title: forcebalance.nifty.lp_load Pages: 1 -->
<svg width="1056pt" height="145pt"
 viewBox="0.00 0.00 1056.00 145.00" xmlns="http://www.w3.org/2000/svg" xmlns:xlink="http://www.w3.org/1999/xlink">
<g id="graph0" class="graph" transform="scale(1 1) rotate(0) translate(4 141)">
<title>forcebalance.nifty.lp_load</title>
<polygon fill="white" stroke="white" points="-4,5 -4,-141 1053,-141 1053,5 -4,5"/>
<!-- Node1 -->
<g id="node1" class="node"><title>Node1</title>
<polygon fill="#bfbfbf" stroke="black" points="0.5225,-58 0.5225,-78 121.477,-78 121.477,-58 0.5225,-58"/>
<text text-anchor="middle" x="61" y="-65" font-family="Ubuntu-R" font-size="10.00">forcebalance.nifty.lp_load</text>
</g>
<!-- Node2 -->
<g id="node2" class="node"><title>Node2</title>
<g id="a_node2"><a xlink:href="namespaceforcebalance_1_1nifty.html#a673f4a044169f5d8d822823989a836a7" target="_top" xlink:title="Submit a job to the Work Queue.">
<polygon fill="white" stroke="black" points="158.082,-58 158.082,-78 287.918,-78 287.918,-58 158.082,-58"/>
<text text-anchor="middle" x="223" y="-65" font-family="Ubuntu-R" font-size="10.00">forcebalance.nifty.queue_up</text>
</a>
</g>
</g>
<!-- Node1&#45;&gt;Node2 -->
<g id="edge1" class="edge"><title>Node1&#45;&gt;Node2</title>
<path fill="none" stroke="midnightblue" d="M121.578,-68C130.135,-68 139.027,-68 147.823,-68"/>
<polygon fill="midnightblue" stroke="midnightblue" points="148.081,-71.5001 158.081,-68 148.081,-64.5001 148.081,-71.5001"/>
</g>
<!-- Node3 -->
<g id="node3" class="node"><title>Node3</title>
<g id="a_node3"><a xlink:href="namespaceforcebalance_1_1nifty.html#a374aac2ef003be02fab49b20ff0a82f0" target="_top" xlink:title="This function waits ten seconds to see if a task in the Work Queue has finished.">
<polygon fill="white" stroke="black" points="324.411,-52 324.411,-84 427.589,-84 427.589,-52 324.411,-52"/>
<text text-anchor="start" x="332.411" y="-71" font-family="Ubuntu-R" font-size="10.00">forcebalance.nifty.wq</text>
<text text-anchor="middle" x="376" y="-59" font-family="Ubuntu-R" font-size="10.00">_wait1</text>
</a>
</g>
</g>
<!-- Node2&#45;&gt;Node3 -->
<g id="edge2" class="edge"><title>Node2&#45;&gt;Node3</title>
<path fill="none" stroke="midnightblue" d="M288.038,-68C296.609,-68 305.383,-68 313.903,-68"/>
<polygon fill="midnightblue" stroke="midnightblue" points="314.138,-71.5001 324.138,-68 314.138,-64.5001 314.138,-71.5001"/>
</g>
<!-- Node4 -->
<g id="node4" class="node"><title>Node4</title>
<g id="a_node4"><a xlink:href="namespaceforcebalance_1_1nifty.html#a576de8c5b6f236280e07e73e39b2ab7c" target="_top" xlink:title="This function waits until the work queue is completely empty.">
<polygon fill="white" stroke="black" points="464.303,-117 464.303,-137 589.697,-137 589.697,-117 464.303,-117"/>
<text text-anchor="middle" x="527" y="-124" font-family="Ubuntu-R" font-size="10.00">forcebalance.nifty.wq_wait</text>
</a>
</g>
</g>
<!-- Node3&#45;&gt;Node4 -->
<g id="edge3" class="edge"><title>Node3&#45;&gt;Node4</title>
<path fill="none" stroke="midnightblue" d="M417.715,-84.122C440.579,-93.1757 468.83,-104.362 490.743,-113.039"/>
<polygon fill="midnightblue" stroke="midnightblue" points="489.736,-116.405 500.322,-116.832 492.313,-109.897 489.736,-116.405"/>
</g>
<!-- Node5 -->
<g id="node5" class="node"><title>Node5</title>
<g id="a_node5"><a xlink:href="namespaceforcebalance_1_1nifty.html#ac9ab6c5543a2e3080061e0024850edf3" target="_top" xlink:title="forcebalance.nifty.allsplit">
<polygon fill="white" stroke="black" points="625.909,-97 625.909,-117 744.091,-117 744.091,-97 625.909,-97"/>
<text text-anchor="middle" x="685" y="-104" font-family="Ubuntu-R" font-size="10.00">forcebalance.nifty.allsplit</text>
</a>
</g>
</g>
<!-- Node3&#45;&gt;Node5 -->
<g id="edge8" class="edge"><title>Node3&#45;&gt;Node5</title>
<path fill="none" stroke="midnightblue" d="M427.695,-74.4401C479.106,-80.9711 558.992,-91.1195 615.903,-98.3493"/>
<polygon fill="midnightblue" stroke="midnightblue" points="615.533,-101.83 625.895,-99.6185 616.416,-94.8861 615.533,-101.83"/>
</g>
<!-- Node8 -->
<g id="node8" class="node"><title>Node8</title>
<g id="a_node8"><a xlink:href="namespaceforcebalance_1_1nifty.html#ad432b88307e1178b0690c0d350b1af36" target="_top" xlink:title="forcebalance.nifty.GoInto">
<polygon fill="white" stroke="black" points="467.357,-39 467.357,-59 586.643,-59 586.643,-39 467.357,-39"/>
<text text-anchor="middle" x="527" y="-46" font-family="Ubuntu-R" font-size="10.00">forcebalance.nifty.GoInto</text>
</a>
</g>
</g>
<!-- Node3&#45;&gt;Node8 -->
<g id="edge7" class="edge"><title>Node3&#45;&gt;Node8</title>
<path fill="none" stroke="midnightblue" d="M427.861,-61.5144C437.246,-60.3176 447.19,-59.0496 457.006,-57.7979"/>
<polygon fill="midnightblue" stroke="midnightblue" points="457.683,-61.24 467.16,-56.5031 456.797,-54.2962 457.683,-61.24"/>
</g>
<!-- Node9 -->
<g id="node9" class="node"><title>Node9</title>
<g id="a_node9"><a xlink:href="namespaceforcebalance_1_1nifty.html#ab04e8690d099db2379dc860e0d040120" target="_top" xlink:title="forcebalance.nifty.Leave">
<polygon fill="white" stroke="black" points="469.308,-0 469.308,-20 584.692,-20 584.692,-0 469.308,-0"/>
<text text-anchor="middle" x="527" y="-7" font-family="Ubuntu-R" font-size="10.00">forcebalance.nifty.Leave</text>
</a>
</g>
</g>
<!-- Node3&#45;&gt;Node9 -->
<g id="edge9" class="edge"><title>Node3&#45;&gt;Node9</title>
<path fill="none" stroke="midnightblue" d="M411.807,-51.8485C427.59,-44.7713 446.582,-36.5946 464,-30 470.039,-27.7136 476.468,-25.4523 482.813,-23.3185"/>
<polygon fill="midnightblue" stroke="midnightblue" points="484.24,-26.5339 492.646,-20.0853 482.053,-19.8841 484.24,-26.5339"/>
</g>
<!-- Node4&#45;&gt;Node5 -->
<g id="edge4" class="edge"><title>Node4&#45;&gt;Node5</title>
<path fill="none" stroke="midnightblue" d="M590.104,-119.038C598.44,-117.969 607.029,-116.868 615.468,-115.786"/>
<polygon fill="midnightblue" stroke="midnightblue" points="616.186,-119.223 625.66,-114.479 615.296,-112.28 616.186,-119.223"/>
</g>
<!-- Node6 -->
<g id="node6" class="node"><title>Node6</title>
<g id="a_node6"><a xlink:href="namespaceforcebalance_1_1nifty.html#ae87c7def5f8edf2ec30737bdb1d2636f" target="_top" xlink:title="forcebalance.nifty.Missing\lFileInspection">
<polygon fill="white" stroke="black" points="780.409,-91 780.409,-123 903.591,-123 903.591,-91 780.409,-91"/>
<text text-anchor="start" x="788.409" y="-110" font-family="Ubuntu-R" font-size="10.00">forcebalance.nifty.Missing</text>
<text text-anchor="middle" x="842" y="-98" font-family="Ubuntu-R" font-size="10.00">FileInspection</text>
</a>
</g>
</g>
<!-- Node5&#45;&gt;Node6 -->
<g id="edge5" class="edge"><title>Node5&#45;&gt;Node6</title>
<path fill="none" stroke="midnightblue" d="M744.157,-107C752.616,-107 761.403,-107 770.079,-107"/>
<polygon fill="midnightblue" stroke="midnightblue" points="770.187,-110.5 780.187,-107 770.187,-103.5 770.187,-110.5"/>
</g>
<!-- Node7 -->
<g id="node7" class="node"><title>Node7</title>
<g id="a_node7"><a xlink:href="namespaceforcebalance_1_1nifty.html#a0cf4e58f90acf20e3d6224be2354082c" target="_top" xlink:title="forcebalance.nifty.link\l_dir_contents">
<polygon fill="white" stroke="black" points="940.742,-91 940.742,-123 1047.26,-123 1047.26,-91 940.742,-91"/>
<text text-anchor="start" x="948.742" y="-110" font-family="Ubuntu-R" font-size="10.00">forcebalance.nifty.link</text>
<text text-anchor="middle" x="994" y="-98" font-family="Ubuntu-R" font-size="10.00">_dir_contents</text>
</a>
</g>
</g>
<!-- Node6&#45;&gt;Node7 -->
<g id="edge6" class="edge"><title>Node6&#45;&gt;Node7</title>
<path fill="none" stroke="midnightblue" d="M904.011,-107C912.755,-107 921.763,-107 930.535,-107"/>
<polygon fill="midnightblue" stroke="midnightblue" points="930.695,-110.5 940.695,-107 930.695,-103.5 930.695,-110.5"/>
</g>
</g>
</svg>
