<?xml version="1.0" encoding="UTF-8" standalone="no"?>
<!DOCTYPE svg PUBLIC "-//W3C//DTD SVG 1.1//EN"
 "http://www.w3.org/Graphics/SVG/1.1/DTD/svg11.dtd">
<!-- Generated by graphviz version 2.26.3 (20100126.1600)
 -->
<!-- Title: forcebalance.parser.read_priors Pages: 1 -->
<svg width="316pt" height="42pt"
 viewBox="0.00 0.00 316.00 42.00" xmlns="http://www.w3.org/2000/svg" xmlns:xlink="http://www.w3.org/1999/xlink">
<g id="graph1" class="graph" transform="scale(1 1) rotate(0) translate(4 38)">
<title>forcebalance.parser.read_priors</title>
<polygon fill="white" stroke="white" points="-4,5 -4,-38 313,-38 313,5 -4,5"/>
<!-- Node1 -->
<g id="node1" class="node"><title>Node1</title>
<polygon fill="#bfbfbf" stroke="black" points="0.5,-0 0.5,-34 135.5,-34 135.5,-0 0.5,-0"/>
<text text-anchor="start" x="8.5" y="-21" font-family="Ubuntu-R" font-size="10.00">forcebalance.parser.read</text>
<text text-anchor="middle" x="68" y="-8" font-family="Ubuntu-R" font-size="10.00">_priors</text>
</g>
<!-- Node2 -->
<g id="node3" class="node"><title>Node2</title>
<a xlink:href="namespaceforcebalance_1_1parser.html#a10827b0b21d0463bc9e786f161a02654" target="_top" xlink:title="forcebalance.parser.read\l_internals">
<polygon fill="white" stroke="black" points="172.5,-0 172.5,-34 307.5,-34 307.5,-0 172.5,-0"/>
<text text-anchor="start" x="180.5" y="-21" font-family="Ubuntu-R" font-size="10.00">forcebalance.parser.read</text>
<text text-anchor="middle" x="240" y="-8" font-family="Ubuntu-R" font-size="10.00">_internals</text>
</a>
</g>
<!-- Node1&#45;&gt;Node2 -->
<g id="edge2" class="edge"><title>Node1&#45;&gt;Node2</title>
<path fill="none" stroke="midnightblue" d="M135.979,-17C144.55,-17 153.372,-17 162.082,-17"/>
<polygon fill="midnightblue" stroke="midnightblue" points="162.233,-20.5001 172.233,-17 162.233,-13.5001 162.233,-20.5001"/>
</g>
</g>
</svg>
