<?xml version="1.0" encoding="UTF-8" standalone="no"?>
<!DOCTYPE svg PUBLIC "-//W3C//DTD SVG 1.1//EN"
 "http://www.w3.org/Graphics/SVG/1.1/DTD/svg11.dtd">
<!-- Generated by graphviz version 2.26.3 (20100126.1600)
 -->
<!-- Title: forcebalance.openmmio.CopyAmoebaInPlaneAngleParameters Pages: 1 -->
<svg width="1542pt" height="42pt"
 viewBox="0.00 0.00 1542.00 42.00" xmlns="http://www.w3.org/2000/svg" xmlns:xlink="http://www.w3.org/1999/xlink">
<g id="graph1" class="graph" transform="scale(1 1) rotate(0) translate(4 38)">
<title>forcebalance.openmmio.CopyAmoebaInPlaneAngleParameters</title>
<polygon fill="white" stroke="white" points="-4,5 -4,-38 1539,-38 1539,5 -4,5"/>
<!-- Node1 -->
<g id="node1" class="node"><title>Node1</title>
<polygon fill="#bfbfbf" stroke="black" points="0,-0 0,-34 174,-34 174,-0 0,-0"/>
<text text-anchor="start" x="8" y="-21" font-family="Ubuntu-R" font-size="10.00">forcebalance.openmmio.Copy</text>
<text text-anchor="middle" x="87" y="-8" font-family="Ubuntu-R" font-size="10.00">AmoebaInPlaneAngleParameters</text>
</g>
<!-- Node2 -->
<g id="node3" class="node"><title>Node2</title>
<a xlink:href="namespaceforcebalance_1_1openmmio.html#abe005f73c6dfe9ce1052c9434bcad9be" target="_top" xlink:title="forcebalance.openmmio.Copy\lAmoebaVdwParameters">
<polygon fill="white" stroke="black" points="210.5,-0 210.5,-34 369.5,-34 369.5,-0 210.5,-0"/>
<text text-anchor="start" x="218.5" y="-21" font-family="Ubuntu-R" font-size="10.00">forcebalance.openmmio.Copy</text>
<text text-anchor="middle" x="290" y="-8" font-family="Ubuntu-R" font-size="10.00">AmoebaVdwParameters</text>
</a>
</g>
<!-- Node1&#45;&gt;Node2 -->
<g id="edge2" class="edge"><title>Node1&#45;&gt;Node2</title>
<path fill="none" stroke="midnightblue" d="M174.268,-17C182.919,-17 191.71,-17 200.384,-17"/>
<polygon fill="midnightblue" stroke="midnightblue" points="200.497,-20.5001 210.497,-17 200.497,-13.5001 200.497,-20.5001"/>
</g>
<!-- Node3 -->
<g id="node5" class="node"><title>Node3</title>
<a xlink:href="namespaceforcebalance_1_1openmmio.html#a3706c19e71969cabe5782a4535abeffe" target="_top" xlink:title="forcebalance.openmmio.Copy\lAmoebaMultipoleParameters">
<polygon fill="white" stroke="black" points="406.5,-0 406.5,-34 565.5,-34 565.5,-0 406.5,-0"/>
<text text-anchor="start" x="414.5" y="-21" font-family="Ubuntu-R" font-size="10.00">forcebalance.openmmio.Copy</text>
<text text-anchor="middle" x="486" y="-8" font-family="Ubuntu-R" font-size="10.00">AmoebaMultipoleParameters</text>
</a>
</g>
<!-- Node2&#45;&gt;Node3 -->
<g id="edge4" class="edge"><title>Node2&#45;&gt;Node3</title>
<path fill="none" stroke="midnightblue" d="M369.721,-17C378.405,-17 387.287,-17 396.082,-17"/>
<polygon fill="midnightblue" stroke="midnightblue" points="396.35,-20.5001 406.35,-17 396.35,-13.5001 396.35,-20.5001"/>
</g>
<!-- Node4 -->
<g id="node7" class="node"><title>Node4</title>
<a xlink:href="namespaceforcebalance_1_1openmmio.html#a616f12cc53381716e5fa41f00bf623be" target="_top" xlink:title="forcebalance.openmmio.Copy\lHarmonicBondParameters">
<polygon fill="white" stroke="black" points="602.5,-0 602.5,-34 761.5,-34 761.5,-0 602.5,-0"/>
<text text-anchor="start" x="610.5" y="-21" font-family="Ubuntu-R" font-size="10.00">forcebalance.openmmio.Copy</text>
<text text-anchor="middle" x="682" y="-8" font-family="Ubuntu-R" font-size="10.00">HarmonicBondParameters</text>
</a>
</g>
<!-- Node3&#45;&gt;Node4 -->
<g id="edge6" class="edge"><title>Node3&#45;&gt;Node4</title>
<path fill="none" stroke="midnightblue" d="M565.721,-17C574.405,-17 583.287,-17 592.082,-17"/>
<polygon fill="midnightblue" stroke="midnightblue" points="592.35,-20.5001 602.35,-17 592.35,-13.5001 592.35,-20.5001"/>
</g>
<!-- Node5 -->
<g id="node9" class="node"><title>Node5</title>
<a xlink:href="namespaceforcebalance_1_1openmmio.html#af4ed16f5e2b1cd12bce2f25fab1b05bc" target="_top" xlink:title="forcebalance.openmmio.Copy\lHarmonicAngleParameters">
<polygon fill="white" stroke="black" points="798.5,-0 798.5,-34 957.5,-34 957.5,-0 798.5,-0"/>
<text text-anchor="start" x="806.5" y="-21" font-family="Ubuntu-R" font-size="10.00">forcebalance.openmmio.Copy</text>
<text text-anchor="middle" x="878" y="-8" font-family="Ubuntu-R" font-size="10.00">HarmonicAngleParameters</text>
</a>
</g>
<!-- Node4&#45;&gt;Node5 -->
<g id="edge8" class="edge"><title>Node4&#45;&gt;Node5</title>
<path fill="none" stroke="midnightblue" d="M761.721,-17C770.405,-17 779.287,-17 788.082,-17"/>
<polygon fill="midnightblue" stroke="midnightblue" points="788.35,-20.5001 798.35,-17 788.35,-13.5001 788.35,-20.5001"/>
</g>
<!-- Node6 -->
<g id="node11" class="node"><title>Node6</title>
<a xlink:href="namespaceforcebalance_1_1openmmio.html#a8f13702754f0b4e43e272139a2ce8341" target="_top" xlink:title="forcebalance.openmmio.Copy\lPeriodicTorsionParameters">
<polygon fill="white" stroke="black" points="994.5,-0 994.5,-34 1153.5,-34 1153.5,-0 994.5,-0"/>
<text text-anchor="start" x="1002.5" y="-21" font-family="Ubuntu-R" font-size="10.00">forcebalance.openmmio.Copy</text>
<text text-anchor="middle" x="1074" y="-8" font-family="Ubuntu-R" font-size="10.00">PeriodicTorsionParameters</text>
</a>
</g>
<!-- Node5&#45;&gt;Node6 -->
<g id="edge10" class="edge"><title>Node5&#45;&gt;Node6</title>
<path fill="none" stroke="midnightblue" d="M957.721,-17C966.405,-17 975.287,-17 984.082,-17"/>
<polygon fill="midnightblue" stroke="midnightblue" points="984.35,-20.5001 994.35,-17 984.35,-13.5001 984.35,-20.5001"/>
</g>
<!-- Node7 -->
<g id="node13" class="node"><title>Node7</title>
<a xlink:href="namespaceforcebalance_1_1openmmio.html#afead47464a644d9225f9fa8eb568a8ed" target="_top" xlink:title="forcebalance.openmmio.Copy\lNonbondedParameters">
<polygon fill="white" stroke="black" points="1190.5,-0 1190.5,-34 1349.5,-34 1349.5,-0 1190.5,-0"/>
<text text-anchor="start" x="1198.5" y="-21" font-family="Ubuntu-R" font-size="10.00">forcebalance.openmmio.Copy</text>
<text text-anchor="middle" x="1270" y="-8" font-family="Ubuntu-R" font-size="10.00">NonbondedParameters</text>
</a>
</g>
<!-- Node6&#45;&gt;Node7 -->
<g id="edge12" class="edge"><title>Node6&#45;&gt;Node7</title>
<path fill="none" stroke="midnightblue" d="M1153.72,-17C1162.4,-17 1171.29,-17 1180.08,-17"/>
<polygon fill="midnightblue" stroke="midnightblue" points="1180.35,-20.5001 1190.35,-17 1180.35,-13.5001 1180.35,-20.5001"/>
</g>
<!-- Node8 -->
<g id="node15" class="node"><title>Node8</title>
<a xlink:href="namespaceforcebalance_1_1openmmio.html#a2bb7add6b813d94f2655372c51fe8fdc" target="_top" xlink:title="forcebalance.openmmio.do\l_nothing">
<polygon fill="white" stroke="black" points="1386.5,-0 1386.5,-34 1533.5,-34 1533.5,-0 1386.5,-0"/>
<text text-anchor="start" x="1394.5" y="-21" font-family="Ubuntu-R" font-size="10.00">forcebalance.openmmio.do</text>
<text text-anchor="middle" x="1460" y="-8" font-family="Ubuntu-R" font-size="10.00">_nothing</text>
</a>
</g>
<!-- Node7&#45;&gt;Node8 -->
<g id="edge14" class="edge"><title>Node7&#45;&gt;Node8</title>
<path fill="none" stroke="midnightblue" d="M1349.75,-17C1358.44,-17 1367.3,-17 1376.03,-17"/>
<polygon fill="midnightblue" stroke="midnightblue" points="1376.21,-20.5001 1386.21,-17 1376.21,-13.5001 1376.21,-20.5001"/>
</g>
</g>
</svg>
