<?xml version="1.0" encoding="UTF-8" standalone="no"?>
<!DOCTYPE svg PUBLIC "-//W3C//DTD SVG 1.1//EN"
 "http://www.w3.org/Graphics/SVG/1.1/DTD/svg11.dtd">
<!-- Generated by graphviz version 2.32.0 (20130801.1845)
 -->
<!-- Title: forcebalance.gmxio.edit_mdp Pages: 1 -->
<svg width="1482pt" height="148pt"
 viewBox="0.00 0.00 1482.00 148.00" xmlns="http://www.w3.org/2000/svg" xmlns:xlink="http://www.w3.org/1999/xlink">
<g id="graph0" class="graph" transform="scale(1 1) rotate(0) translate(4 144)">
<title>forcebalance.gmxio.edit_mdp</title>
<polygon fill="white" stroke="white" points="-4,5 -4,-144 1479,-144 1479,5 -4,5"/>
<!-- Node1 -->
<g id="node1" class="node"><title>Node1</title>
<polygon fill="#bfbfbf" stroke="black" points="0.2975,-6 0.2975,-26 135.703,-26 135.703,-6 0.2975,-6"/>
<text text-anchor="middle" x="68" y="-13" font-family="Ubuntu-R" font-size="10.00">forcebalance.gmxio.edit_mdp</text>
</g>
<!-- Node2 -->
<g id="node2" class="node"><title>Node2</title>
<g id="a_node2"><a xlink:href="namespaceforcebalance_1_1nifty.html#a51180e960742cc7547749fdfb3513ec4" target="_top" xlink:title="See documentation for printcool; this is a nice way to print out keys/values in a dictionary...">
<polygon fill="white" stroke="black" points="172.469,-0 172.469,-32 299.531,-32 299.531,-0 172.469,-0"/>
<text text-anchor="start" x="180.469" y="-19" font-family="Ubuntu-R" font-size="10.00">forcebalance.nifty.printcool</text>
<text text-anchor="middle" x="236" y="-7" font-family="Ubuntu-R" font-size="10.00">_dictionary</text>
</a>
</g>
</g>
<!-- Node1&#45;&gt;Node2 -->
<g id="edge1" class="edge"><title>Node1&#45;&gt;Node2</title>
<path fill="none" stroke="midnightblue" d="M136.04,-16C144.642,-16 153.481,-16 162.17,-16"/>
<polygon fill="midnightblue" stroke="midnightblue" points="162.277,-19.5001 172.277,-16 162.277,-12.5001 162.277,-19.5001"/>
</g>
<!-- Node3 -->
<g id="node3" class="node"><title>Node3</title>
<g id="a_node3"><a xlink:href="namespaceforcebalance_1_1nifty.html#a3f1c7a1af9d35d5d1693074bc6f5497c" target="_top" xlink:title="ONLY matches integers! If you have a decimal point? None shall pass!">
<polygon fill="white" stroke="black" points="335.908,-26 335.908,-46 444.092,-46 444.092,-26 335.908,-26"/>
<text text-anchor="middle" x="390" y="-33" font-family="Ubuntu-R" font-size="10.00">forcebalance.nifty.isint</text>
</a>
</g>
</g>
<!-- Node2&#45;&gt;Node3 -->
<g id="edge2" class="edge"><title>Node2&#45;&gt;Node3</title>
<path fill="none" stroke="midnightblue" d="M299.702,-24.2502C308.283,-25.3794 317.098,-26.5393 325.691,-27.6698"/>
<polygon fill="midnightblue" stroke="midnightblue" points="325.276,-31.1454 335.648,-28.9799 326.19,-24.2052 325.276,-31.1454"/>
</g>
<!-- Node5 -->
<g id="node5" class="node"><title>Node5</title>
<g id="a_node5"><a xlink:href="namespaceforcebalance_1_1nifty.html#a8e3ef0108b9d37b82ba0dced7c6037ae" target="_top" xlink:title="Matches ANY number; it can be a decimal, scientific notation, what have you CAUTION &#45; this will also ...">
<polygon fill="white" stroke="black" points="646.024,-20 646.024,-40 761.976,-40 761.976,-20 646.024,-20"/>
<text text-anchor="middle" x="704" y="-27" font-family="Ubuntu-R" font-size="10.00">forcebalance.nifty.isfloat</text>
</a>
</g>
</g>
<!-- Node2&#45;&gt;Node5 -->
<g id="edge18" class="edge"><title>Node2&#45;&gt;Node5</title>
<path fill="none" stroke="midnightblue" d="M299.971,-15.1182C340.996,-14.7613 395.682,-14.6951 444,-16 509.201,-17.7609 583.533,-22.0109 635.792,-25.3697"/>
<polygon fill="midnightblue" stroke="midnightblue" points="635.734,-28.8732 645.94,-26.0286 636.188,-21.8879 635.734,-28.8732"/>
</g>
<!-- Node4 -->
<g id="node4" class="node"><title>Node4</title>
<g id="a_node4"><a xlink:href="namespaceforcebalance_1_1nifty.html#a09263927eaec9deff283fbf1a820242f" target="_top" xlink:title="Matches things with a decimal only; see isint and isfloat.">
<polygon fill="white" stroke="black" points="480.36,-64 480.36,-84 609.64,-84 609.64,-64 480.36,-64"/>
<text text-anchor="middle" x="545" y="-71" font-family="Ubuntu-R" font-size="10.00">forcebalance.nifty.isdecimal</text>
</a>
</g>
</g>
<!-- Node3&#45;&gt;Node4 -->
<g id="edge3" class="edge"><title>Node3&#45;&gt;Node4</title>
<path fill="none" stroke="midnightblue" d="M431.6,-46.0835C450.609,-50.8048 473.443,-56.476 493.55,-61.47"/>
<polygon fill="midnightblue" stroke="midnightblue" points="492.928,-64.9216 503.476,-63.9353 494.615,-58.128 492.928,-64.9216"/>
</g>
<!-- Node4&#45;&gt;Node5 -->
<g id="edge4" class="edge"><title>Node4&#45;&gt;Node5</title>
<path fill="none" stroke="midnightblue" d="M582.019,-63.9055C604.357,-57.645 633.264,-49.5439 657.219,-42.8304"/>
<polygon fill="midnightblue" stroke="midnightblue" points="658.464,-46.1163 667.149,-40.0475 656.575,-39.376 658.464,-46.1163"/>
</g>
<!-- Node9 -->
<g id="node9" class="node"><title>Node9</title>
<g id="a_node9"><a xlink:href="namespaceforcebalance_1_1nifty.html#afb3f205bce4984856e766af7e9fdaca8" target="_top" xlink:title="Given any list, array, or matrix, return a 1&#45;column matrix.">
<polygon fill="white" stroke="black" points="652.412,-64 652.412,-84 755.588,-84 755.588,-64 652.412,-64"/>
<text text-anchor="middle" x="704" y="-71" font-family="Ubuntu-R" font-size="10.00">forcebalance.nifty.col</text>
</a>
</g>
</g>
<!-- Node4&#45;&gt;Node9 -->
<g id="edge9" class="edge"><title>Node4&#45;&gt;Node9</title>
<path fill="none" stroke="midnightblue" d="M609.858,-74C620.427,-74 631.364,-74 641.864,-74"/>
<polygon fill="midnightblue" stroke="midnightblue" points="642.189,-77.5001 652.189,-74 642.189,-70.5001 642.189,-77.5001"/>
</g>
<!-- Node5&#45;&gt;Node3 -->
<g id="edge5" class="edge"><title>Node5&#45;&gt;Node3</title>
<path fill="none" stroke="midnightblue" d="M645.978,-31.0966C591.846,-32.1376 510.625,-33.6995 454.463,-34.7796"/>
<polygon fill="midnightblue" stroke="midnightblue" points="454.211,-31.2837 444.28,-34.9754 454.346,-38.2824 454.211,-31.2837"/>
</g>
<!-- Node6 -->
<g id="node6" class="node"><title>Node6</title>
<g id="a_node6"><a xlink:href="namespaceforcebalance_1_1nifty.html#a8d63c8ae9a67c66673a6cf81357f827d" target="_top" xlink:title="Returns a big number if we encounter NaN.">
<polygon fill="white" stroke="black" points="797.974,-19 797.974,-39 930.026,-39 930.026,-19 797.974,-19"/>
<text text-anchor="middle" x="864" y="-26" font-family="Ubuntu-R" font-size="10.00">forcebalance.nifty.floatornan</text>
</a>
</g>
</g>
<!-- Node5&#45;&gt;Node6 -->
<g id="edge6" class="edge"><title>Node5&#45;&gt;Node6</title>
<path fill="none" stroke="midnightblue" d="M762.042,-29.639C770.364,-29.5863 779.04,-29.5314 787.658,-29.4768"/>
<polygon fill="midnightblue" stroke="midnightblue" points="787.746,-32.9765 797.723,-29.4131 787.701,-25.9766 787.746,-32.9765"/>
</g>
<!-- Node7 -->
<g id="node7" class="node"><title>Node7</title>
<g id="a_node7"><a xlink:href="namespaceforcebalance_1_1nifty.html#a6c9727360cdff8f3011a12cc54d0e86e" target="_top" xlink:title="Given any list, array, or matrix, return a 1&#45;row matrix.">
<polygon fill="white" stroke="black" points="979.747,-18 979.747,-38 1086.25,-38 1086.25,-18 979.747,-18"/>
<text text-anchor="middle" x="1033" y="-25" font-family="Ubuntu-R" font-size="10.00">forcebalance.nifty.row</text>
</a>
</g>
</g>
<!-- Node6&#45;&gt;Node7 -->
<g id="edge7" class="edge"><title>Node6&#45;&gt;Node7</title>
<path fill="none" stroke="midnightblue" d="M930.045,-28.6105C942.98,-28.5331 956.538,-28.4519 969.39,-28.3749"/>
<polygon fill="midnightblue" stroke="midnightblue" points="969.541,-31.8742 979.52,-28.3143 969.499,-24.8743 969.541,-31.8742"/>
</g>
<!-- Node8 -->
<g id="node8" class="node"><title>Node8</title>
<g id="a_node8"><a xlink:href="namespaceforcebalance_1_1nifty.html#a7676236002c6a65ea7d2e69a09923889" target="_top" xlink:title="Given two vectors vec1 and vec2, project out the component of vec1 that is along the vec2&#45;direction...">
<polygon fill="white" stroke="black" points="1136.03,-18 1136.03,-38 1281.97,-38 1281.97,-18 1136.03,-18"/>
<text text-anchor="middle" x="1209" y="-25" font-family="Ubuntu-R" font-size="10.00">forcebalance.nifty.orthogonalize</text>
</a>
</g>
</g>
<!-- Node7&#45;&gt;Node8 -->
<g id="edge8" class="edge"><title>Node7&#45;&gt;Node8</title>
<path fill="none" stroke="midnightblue" d="M1086.68,-28C1099.03,-28 1112.49,-28 1125.79,-28"/>
<polygon fill="midnightblue" stroke="midnightblue" points="1125.92,-31.5001 1135.92,-28 1125.92,-24.5001 1125.92,-31.5001"/>
</g>
<!-- Node10 -->
<g id="node10" class="node"><title>Node10</title>
<g id="a_node10"><a xlink:href="namespaceforcebalance_1_1nifty.html#a52114ceee9d55f94d9aecb3e176de294" target="_top" xlink:title="Given any list, array, or matrix, return a single&#45;index array.">
<polygon fill="white" stroke="black" points="811.858,-103 811.858,-123 916.142,-123 916.142,-103 811.858,-103"/>
<text text-anchor="middle" x="864" y="-110" font-family="Ubuntu-R" font-size="10.00">forcebalance.nifty.flat</text>
</a>
</g>
</g>
<!-- Node9&#45;&gt;Node10 -->
<g id="edge10" class="edge"><title>Node9&#45;&gt;Node10</title>
<path fill="none" stroke="midnightblue" d="M745.689,-84.0435C766.054,-89.0702 790.9,-95.2032 812.475,-100.529"/>
<polygon fill="midnightblue" stroke="midnightblue" points="811.902,-103.992 822.449,-102.991 813.579,-97.196 811.902,-103.992"/>
</g>
<!-- Node11 -->
<g id="node11" class="node"><title>Node11</title>
<g id="a_node11"><a xlink:href="namespaceforcebalance_1_1nifty.html#a4c82187e92dfeb8a159f4aa44b501c40" target="_top" xlink:title="Invert a matrix using singular value decomposition.">
<polygon fill="white" stroke="black" points="966.413,-67 966.413,-87 1099.59,-87 1099.59,-67 966.413,-67"/>
<text text-anchor="middle" x="1033" y="-74" font-family="Ubuntu-R" font-size="10.00">forcebalance.nifty.invert_svd</text>
</a>
</g>
</g>
<!-- Node10&#45;&gt;Node11 -->
<g id="edge11" class="edge"><title>Node10&#45;&gt;Node11</title>
<path fill="none" stroke="midnightblue" d="M911.519,-102.972C931.341,-98.6989 954.649,-93.6746 975.455,-89.1894"/>
<polygon fill="midnightblue" stroke="midnightblue" points="976.403,-92.5654 985.441,-87.0366 974.928,-85.7226 976.403,-92.5654"/>
</g>
<!-- Node11&#45;&gt;Node9 -->
<g id="edge15" class="edge"><title>Node11&#45;&gt;Node9</title>
<path fill="none" stroke="midnightblue" d="M966.167,-76.396C907.718,-75.8598 822.983,-75.0824 766.033,-74.5599"/>
<polygon fill="midnightblue" stroke="midnightblue" points="765.767,-71.0574 755.735,-74.4655 765.702,-78.0571 765.767,-71.0574"/>
</g>
<!-- Node12 -->
<g id="node12" class="node"><title>Node12</title>
<g id="a_node12"><a xlink:href="namespaceforcebalance_1_1nifty.html#aa9fb9c7c65231eca50a7afc04f489b64" target="_top" xlink:title="forcebalance.nifty.get\l_least_squares">
<polygon fill="white" stroke="black" points="1157.41,-108 1157.41,-140 1260.59,-140 1260.59,-108 1157.41,-108"/>
<text text-anchor="start" x="1165.41" y="-127" font-family="Ubuntu-R" font-size="10.00">forcebalance.nifty.get</text>
<text text-anchor="middle" x="1209" y="-115" font-family="Ubuntu-R" font-size="10.00">_least_squares</text>
</a>
</g>
</g>
<!-- Node11&#45;&gt;Node12 -->
<g id="edge12" class="edge"><title>Node11&#45;&gt;Node12</title>
<path fill="none" stroke="midnightblue" d="M1071.33,-87.0827C1093.45,-93.0595 1122.03,-100.778 1147.32,-107.61"/>
<polygon fill="midnightblue" stroke="midnightblue" points="1146.63,-111.05 1157.2,-110.279 1148.46,-104.292 1146.63,-111.05"/>
</g>
<!-- Node14 -->
<g id="node14" class="node"><title>Node14</title>
<g id="a_node14"><a xlink:href="namespaceforcebalance_1_1nifty.html#abb8f59044961a12588e0653c2baa8b01" target="_top" xlink:title="forcebalance.nifty.warn\l_press_key">
<polygon fill="white" stroke="black" points="1153.53,-57 1153.53,-89 1264.47,-89 1264.47,-57 1153.53,-57"/>
<text text-anchor="start" x="1161.53" y="-76" font-family="Ubuntu-R" font-size="10.00">forcebalance.nifty.warn</text>
<text text-anchor="middle" x="1209" y="-64" font-family="Ubuntu-R" font-size="10.00">_press_key</text>
</a>
</g>
</g>
<!-- Node11&#45;&gt;Node14 -->
<g id="edge16" class="edge"><title>Node11&#45;&gt;Node14</title>
<path fill="none" stroke="midnightblue" d="M1099.78,-75.4878C1114.03,-75.1602 1129.09,-74.814 1143.3,-74.4874"/>
<polygon fill="midnightblue" stroke="midnightblue" points="1143.55,-77.9826 1153.47,-74.2536 1143.39,-70.9845 1143.55,-77.9826"/>
</g>
<!-- Node12&#45;&gt;Node10 -->
<g id="edge13" class="edge"><title>Node12&#45;&gt;Node10</title>
<path fill="none" stroke="midnightblue" d="M1157.14,-122.369C1095.72,-120.399 992.461,-117.088 926.589,-114.975"/>
<polygon fill="midnightblue" stroke="midnightblue" points="926.458,-111.469 916.351,-114.647 926.233,-118.466 926.458,-111.469"/>
</g>
<!-- Node13 -->
<g id="node13" class="node"><title>Node13</title>
<g id="a_node13"><a xlink:href="namespaceforcebalance_1_1nifty.html#ad5ca60565c864b4245a8212fe9d92e10" target="_top" xlink:title="Compute the (cross) statistical inefficiency of (two) timeseries.">
<polygon fill="white" stroke="black" points="1331.64,-108 1331.64,-140 1460.36,-140 1460.36,-108 1331.64,-108"/>
<text text-anchor="start" x="1339.64" y="-127" font-family="Ubuntu-R" font-size="10.00">forcebalance.nifty.statistical</text>
<text text-anchor="middle" x="1396" y="-115" font-family="Ubuntu-R" font-size="10.00">Inefficiency</text>
</a>
</g>
</g>
<!-- Node12&#45;&gt;Node13 -->
<g id="edge14" class="edge"><title>Node12&#45;&gt;Node13</title>
<path fill="none" stroke="midnightblue" d="M1261.04,-124C1279.71,-124 1301.21,-124 1321.45,-124"/>
<polygon fill="midnightblue" stroke="midnightblue" points="1321.58,-127.5 1331.58,-124 1321.58,-120.5 1321.58,-127.5"/>
</g>
<!-- Node15 -->
<g id="node15" class="node"><title>Node15</title>
<g id="a_node15"><a xlink:href="namespaceforcebalance_1_1nifty.html#a2fc81730e7efa7d138dd86f733507bfc" target="_top" xlink:title="Similar to the bultin function map().">
<polygon fill="white" stroke="black" points="1318.04,-63 1318.04,-83 1473.96,-83 1473.96,-63 1318.04,-63"/>
<text text-anchor="middle" x="1396" y="-70" font-family="Ubuntu-R" font-size="10.00">forcebalance.nifty.concurrent_map</text>
</a>
</g>
</g>
<!-- Node14&#45;&gt;Node15 -->
<g id="edge17" class="edge"><title>Node14&#45;&gt;Node15</title>
<path fill="none" stroke="midnightblue" d="M1264.51,-73C1278.1,-73 1293.02,-73 1307.77,-73"/>
<polygon fill="midnightblue" stroke="midnightblue" points="1307.92,-76.5001 1317.92,-73 1307.92,-69.5001 1307.92,-76.5001"/>
</g>
</g>
</svg>
