<?xml version="1.0" encoding="UTF-8" standalone="no"?>
<!DOCTYPE svg PUBLIC "-//W3C//DTD SVG 1.1//EN"
 "http://www.w3.org/Graphics/SVG/1.1/DTD/svg11.dtd">
<!-- Generated by graphviz version 2.32.0 (20130801.1845)
 -->
<!-- Title: forcebalance.binding.parse_interactions Pages: 1 -->
<svg width="472pt" height="40pt"
 viewBox="0.00 0.00 472.00 40.00" xmlns="http://www.w3.org/2000/svg" xmlns:xlink="http://www.w3.org/1999/xlink">
<g id="graph0" class="graph" transform="scale(1 1) rotate(0) translate(4 36)">
<title>forcebalance.binding.parse_interactions</title>
<polygon fill="white" stroke="white" points="-4,5 -4,-36 469,-36 469,5 -4,5"/>
<!-- Node1 -->
<g id="node1" class="node"><title>Node1</title>
<polygon fill="#bfbfbf" stroke="black" points="0.1375,-0 0.1375,-32 123.862,-32 123.862,-0 0.1375,-0"/>
<text text-anchor="start" x="8.1375" y="-19" font-family="Ubuntu-R" font-size="10.00">forcebalance.binding.parse</text>
<text text-anchor="middle" x="62" y="-7" font-family="Ubuntu-R" font-size="10.00">_interactions</text>
</g>
<!-- Node2 -->
<g id="node2" class="node"><title>Node2</title>
<g id="a_node2"><a xlink:href="namespaceforcebalance_1_1nifty.html#abb8f59044961a12588e0653c2baa8b01" target="_top" xlink:title="forcebalance.nifty.warn\l_press_key">
<polygon fill="white" stroke="black" points="160.528,-0 160.528,-32 271.473,-32 271.473,-0 160.528,-0"/>
<text text-anchor="start" x="168.528" y="-19" font-family="Ubuntu-R" font-size="10.00">forcebalance.nifty.warn</text>
<text text-anchor="middle" x="216" y="-7" font-family="Ubuntu-R" font-size="10.00">_press_key</text>
</a>
</g>
</g>
<!-- Node1&#45;&gt;Node2 -->
<g id="edge1" class="edge"><title>Node1&#45;&gt;Node2</title>
<path fill="none" stroke="midnightblue" d="M123.948,-16C132.615,-16 141.555,-16 150.29,-16"/>
<polygon fill="midnightblue" stroke="midnightblue" points="150.423,-19.5001 160.423,-16 150.423,-12.5001 150.423,-19.5001"/>
</g>
<!-- Node3 -->
<g id="node3" class="node"><title>Node3</title>
<g id="a_node3"><a xlink:href="namespaceforcebalance_1_1nifty.html#a2fc81730e7efa7d138dd86f733507bfc" target="_top" xlink:title="Similar to the bultin function map().">
<polygon fill="white" stroke="black" points="308.035,-6 308.035,-26 463.965,-26 463.965,-6 308.035,-6"/>
<text text-anchor="middle" x="386" y="-13" font-family="Ubuntu-R" font-size="10.00">forcebalance.nifty.concurrent_map</text>
</a>
</g>
</g>
<!-- Node2&#45;&gt;Node3 -->
<g id="edge2" class="edge"><title>Node2&#45;&gt;Node3</title>
<path fill="none" stroke="midnightblue" d="M271.545,-16C279.968,-16 288.843,-16 297.768,-16"/>
<polygon fill="midnightblue" stroke="midnightblue" points="297.843,-19.5001 307.843,-16 297.843,-12.5001 297.843,-19.5001"/>
</g>
</g>
</svg>
