<?xml version="1.0" encoding="UTF-8" standalone="no"?>
<!DOCTYPE svg PUBLIC "-//W3C//DTD SVG 1.1//EN"
 "http://www.w3.org/Graphics/SVG/1.1/DTD/svg11.dtd">
<!-- Generated by graphviz version 2.32.0 (20130801.1845)
 -->
<!-- Title: forcebalance.nifty.isint Pages: 1 -->
<svg width="1146pt" height="130pt"
 viewBox="0.00 0.00 1146.00 130.00" xmlns="http://www.w3.org/2000/svg" xmlns:xlink="http://www.w3.org/1999/xlink">
<g id="graph0" class="graph" transform="scale(1 1) rotate(0) translate(4 126)">
<title>forcebalance.nifty.isint</title>
<polygon fill="white" stroke="white" points="-4,5 -4,-126 1143,-126 1143,5 -4,5"/>
<!-- Node1 -->
<g id="node1" class="node"><title>Node1</title>
<polygon fill="#bfbfbf" stroke="black" points="-0.092,-78 -0.092,-98 108.092,-98 108.092,-78 -0.092,-78"/>
<text text-anchor="middle" x="54" y="-85" font-family="Ubuntu-R" font-size="10.00">forcebalance.nifty.isint</text>
</g>
<!-- Node2 -->
<g id="node2" class="node"><title>Node2</title>
<g id="a_node2"><a xlink:href="namespaceforcebalance_1_1nifty.html#a09263927eaec9deff283fbf1a820242f" target="_top" xlink:title="Matches things with a decimal only; see isint and isfloat.">
<polygon fill="white" stroke="black" points="144.36,-59 144.36,-79 273.64,-79 273.64,-59 144.36,-59"/>
<text text-anchor="middle" x="209" y="-66" font-family="Ubuntu-R" font-size="10.00">forcebalance.nifty.isdecimal</text>
</a>
</g>
</g>
<!-- Node1&#45;&gt;Node2 -->
<g id="edge1" class="edge"><title>Node1&#45;&gt;Node2</title>
<path fill="none" stroke="midnightblue" d="M108.512,-81.3547C116.812,-80.3241 125.509,-79.244 134.161,-78.1695"/>
<polygon fill="midnightblue" stroke="midnightblue" points="134.778,-81.6199 144.271,-76.9141 133.915,-74.6732 134.778,-81.6199"/>
</g>
<!-- Node3 -->
<g id="node3" class="node"><title>Node3</title>
<g id="a_node3"><a xlink:href="namespaceforcebalance_1_1nifty.html#a8e3ef0108b9d37b82ba0dced7c6037ae" target="_top" xlink:title="Matches ANY number; it can be a decimal, scientific notation, what have you CAUTION &#45; this will also ...">
<polygon fill="white" stroke="black" points="310.024,-98 310.024,-118 425.976,-118 425.976,-98 310.024,-98"/>
<text text-anchor="middle" x="368" y="-105" font-family="Ubuntu-R" font-size="10.00">forcebalance.nifty.isfloat</text>
</a>
</g>
</g>
<!-- Node2&#45;&gt;Node3 -->
<g id="edge2" class="edge"><title>Node2&#45;&gt;Node3</title>
<path fill="none" stroke="midnightblue" d="M250.431,-79.0435C270.667,-84.0702 295.356,-90.2032 316.795,-95.5287"/>
<polygon fill="midnightblue" stroke="midnightblue" points="316.157,-98.9765 326.706,-97.9906 317.844,-92.1829 316.157,-98.9765"/>
</g>
<!-- Node7 -->
<g id="node7" class="node"><title>Node7</title>
<g id="a_node7"><a xlink:href="namespaceforcebalance_1_1nifty.html#afb3f205bce4984856e766af7e9fdaca8" target="_top" xlink:title="Given any list, array, or matrix, return a 1&#45;column matrix.">
<polygon fill="white" stroke="black" points="316.412,-58 316.412,-78 419.588,-78 419.588,-58 316.412,-58"/>
<text text-anchor="middle" x="368" y="-65" font-family="Ubuntu-R" font-size="10.00">forcebalance.nifty.col</text>
</a>
</g>
</g>
<!-- Node2&#45;&gt;Node7 -->
<g id="edge7" class="edge"><title>Node2&#45;&gt;Node7</title>
<path fill="none" stroke="midnightblue" d="M273.858,-68.5933C284.427,-68.5259 295.364,-68.4563 305.864,-68.3894"/>
<polygon fill="midnightblue" stroke="midnightblue" points="306.212,-71.8874 316.189,-68.3236 306.167,-64.8875 306.212,-71.8874"/>
</g>
<!-- Node3&#45;&gt;Node1 -->
<g id="edge3" class="edge"><title>Node3&#45;&gt;Node1</title>
<path fill="none" stroke="midnightblue" d="M309.978,-104.345C255.846,-100.875 174.625,-95.6683 118.463,-92.0681"/>
<polygon fill="midnightblue" stroke="midnightblue" points="118.484,-88.5624 108.28,-91.4154 118.036,-95.548 118.484,-88.5624"/>
</g>
<!-- Node4 -->
<g id="node4" class="node"><title>Node4</title>
<g id="a_node4"><a xlink:href="namespaceforcebalance_1_1nifty.html#a8d63c8ae9a67c66673a6cf81357f827d" target="_top" xlink:title="Returns a big number if we encounter NaN.">
<polygon fill="white" stroke="black" points="461.974,-100 461.974,-120 594.026,-120 594.026,-100 461.974,-100"/>
<text text-anchor="middle" x="528" y="-107" font-family="Ubuntu-R" font-size="10.00">forcebalance.nifty.floatornan</text>
</a>
</g>
</g>
<!-- Node3&#45;&gt;Node4 -->
<g id="edge4" class="edge"><title>Node3&#45;&gt;Node4</title>
<path fill="none" stroke="midnightblue" d="M426.042,-108.722C434.364,-108.827 443.04,-108.937 451.658,-109.046"/>
<polygon fill="midnightblue" stroke="midnightblue" points="451.68,-112.547 461.723,-109.174 451.768,-105.547 451.68,-112.547"/>
</g>
<!-- Node5 -->
<g id="node5" class="node"><title>Node5</title>
<g id="a_node5"><a xlink:href="namespaceforcebalance_1_1nifty.html#a6c9727360cdff8f3011a12cc54d0e86e" target="_top" xlink:title="Given any list, array, or matrix, return a 1&#45;row matrix.">
<polygon fill="white" stroke="black" points="643.747,-100 643.747,-120 750.253,-120 750.253,-100 643.747,-100"/>
<text text-anchor="middle" x="697" y="-107" font-family="Ubuntu-R" font-size="10.00">forcebalance.nifty.row</text>
</a>
</g>
</g>
<!-- Node4&#45;&gt;Node5 -->
<g id="edge5" class="edge"><title>Node4&#45;&gt;Node5</title>
<path fill="none" stroke="midnightblue" d="M594.045,-110C606.98,-110 620.538,-110 633.39,-110"/>
<polygon fill="midnightblue" stroke="midnightblue" points="633.52,-113.5 643.52,-110 633.52,-106.5 633.52,-113.5"/>
</g>
<!-- Node6 -->
<g id="node6" class="node"><title>Node6</title>
<g id="a_node6"><a xlink:href="namespaceforcebalance_1_1nifty.html#a7676236002c6a65ea7d2e69a09923889" target="_top" xlink:title="Given two vectors vec1 and vec2, project out the component of vec1 that is along the vec2&#45;direction...">
<polygon fill="white" stroke="black" points="800.029,-102 800.029,-122 945.971,-122 945.971,-102 800.029,-102"/>
<text text-anchor="middle" x="873" y="-109" font-family="Ubuntu-R" font-size="10.00">forcebalance.nifty.orthogonalize</text>
</a>
</g>
</g>
<!-- Node5&#45;&gt;Node6 -->
<g id="edge6" class="edge"><title>Node5&#45;&gt;Node6</title>
<path fill="none" stroke="midnightblue" d="M750.678,-110.605C763.033,-110.748 776.487,-110.902 789.791,-111.055"/>
<polygon fill="midnightblue" stroke="midnightblue" points="789.876,-114.556 799.916,-111.171 789.956,-107.557 789.876,-114.556"/>
</g>
<!-- Node8 -->
<g id="node8" class="node"><title>Node8</title>
<g id="a_node8"><a xlink:href="namespaceforcebalance_1_1nifty.html#a52114ceee9d55f94d9aecb3e176de294" target="_top" xlink:title="Given any list, array, or matrix, return a single&#45;index array.">
<polygon fill="white" stroke="black" points="475.858,-58 475.858,-78 580.142,-78 580.142,-58 475.858,-58"/>
<text text-anchor="middle" x="528" y="-65" font-family="Ubuntu-R" font-size="10.00">forcebalance.nifty.flat</text>
</a>
</g>
</g>
<!-- Node7&#45;&gt;Node8 -->
<g id="edge8" class="edge"><title>Node7&#45;&gt;Node8</title>
<path fill="none" stroke="midnightblue" d="M419.862,-68C434.375,-68 450.345,-68 465.424,-68"/>
<polygon fill="midnightblue" stroke="midnightblue" points="465.692,-71.5001 475.692,-68 465.692,-64.5001 465.692,-71.5001"/>
</g>
<!-- Node9 -->
<g id="node9" class="node"><title>Node9</title>
<g id="a_node9"><a xlink:href="namespaceforcebalance_1_1nifty.html#a4c82187e92dfeb8a159f4aa44b501c40" target="_top" xlink:title="Invert a matrix using singular value decomposition.">
<polygon fill="white" stroke="black" points="630.413,-19 630.413,-39 763.587,-39 763.587,-19 630.413,-19"/>
<text text-anchor="middle" x="697" y="-26" font-family="Ubuntu-R" font-size="10.00">forcebalance.nifty.invert_svd</text>
</a>
</g>
</g>
<!-- Node8&#45;&gt;Node9 -->
<g id="edge9" class="edge"><title>Node8&#45;&gt;Node9</title>
<path fill="none" stroke="midnightblue" d="M572.007,-57.9565C593.726,-52.8843 620.269,-46.6857 643.216,-41.3269"/>
<polygon fill="midnightblue" stroke="midnightblue" points="644.197,-44.6919 653.139,-39.0094 642.605,-37.8754 644.197,-44.6919"/>
</g>
<!-- Node9&#45;&gt;Node7 -->
<g id="edge13" class="edge"><title>Node9&#45;&gt;Node7</title>
<path fill="none" stroke="midnightblue" d="M630.177,-32.0398C583.142,-34.7727 518.452,-39.6746 462,-48 448.329,-50.0161 433.66,-52.8508 420.106,-55.7537"/>
<polygon fill="midnightblue" stroke="midnightblue" points="419.009,-52.411 409.993,-57.9744 420.511,-59.2481 419.009,-52.411"/>
</g>
<!-- Node10 -->
<g id="node10" class="node"><title>Node10</title>
<g id="a_node10"><a xlink:href="namespaceforcebalance_1_1nifty.html#aa9fb9c7c65231eca50a7afc04f489b64" target="_top" xlink:title="forcebalance.nifty.get\l_least_squares">
<polygon fill="white" stroke="black" points="821.412,-51 821.412,-83 924.588,-83 924.588,-51 821.412,-51"/>
<text text-anchor="start" x="829.412" y="-70" font-family="Ubuntu-R" font-size="10.00">forcebalance.nifty.get</text>
<text text-anchor="middle" x="873" y="-58" font-family="Ubuntu-R" font-size="10.00">_least_squares</text>
</a>
</g>
</g>
<!-- Node9&#45;&gt;Node10 -->
<g id="edge10" class="edge"><title>Node9&#45;&gt;Node10</title>
<path fill="none" stroke="midnightblue" d="M744.172,-39.0835C764.777,-43.5835 789.333,-48.9463 811.39,-53.7633"/>
<polygon fill="midnightblue" stroke="midnightblue" points="810.808,-57.2187 821.325,-55.933 812.302,-50.3799 810.808,-57.2187"/>
</g>
<!-- Node12 -->
<g id="node12" class="node"><title>Node12</title>
<g id="a_node12"><a xlink:href="namespaceforcebalance_1_1nifty.html#abb8f59044961a12588e0653c2baa8b01" target="_top" xlink:title="forcebalance.nifty.warn\l_press_key">
<polygon fill="white" stroke="black" points="817.528,-0 817.528,-32 928.472,-32 928.472,-0 817.528,-0"/>
<text text-anchor="start" x="825.528" y="-19" font-family="Ubuntu-R" font-size="10.00">forcebalance.nifty.warn</text>
<text text-anchor="middle" x="873" y="-7" font-family="Ubuntu-R" font-size="10.00">_press_key</text>
</a>
</g>
</g>
<!-- Node9&#45;&gt;Node12 -->
<g id="edge14" class="edge"><title>Node9&#45;&gt;Node12</title>
<path fill="none" stroke="midnightblue" d="M763.782,-24.0853C778.031,-23.0207 793.089,-21.8956 807.296,-20.8342"/>
<polygon fill="midnightblue" stroke="midnightblue" points="807.756,-24.3097 817.467,-20.0743 807.234,-17.3291 807.756,-24.3097"/>
</g>
<!-- Node10&#45;&gt;Node8 -->
<g id="edge11" class="edge"><title>Node10&#45;&gt;Node8</title>
<path fill="none" stroke="midnightblue" d="M821.139,-67.1483C759.715,-67.3274 656.461,-67.6284 590.589,-67.8204"/>
<polygon fill="midnightblue" stroke="midnightblue" points="590.34,-64.3211 580.351,-67.8503 590.361,-71.321 590.34,-64.3211"/>
</g>
<!-- Node11 -->
<g id="node11" class="node"><title>Node11</title>
<g id="a_node11"><a xlink:href="namespaceforcebalance_1_1nifty.html#ad5ca60565c864b4245a8212fe9d92e10" target="_top" xlink:title="Compute the (cross) statistical inefficiency of (two) timeseries.">
<polygon fill="white" stroke="black" points="995.636,-51 995.636,-83 1124.36,-83 1124.36,-51 995.636,-51"/>
<text text-anchor="start" x="1003.64" y="-70" font-family="Ubuntu-R" font-size="10.00">forcebalance.nifty.statistical</text>
<text text-anchor="middle" x="1060" y="-58" font-family="Ubuntu-R" font-size="10.00">Inefficiency</text>
</a>
</g>
</g>
<!-- Node10&#45;&gt;Node11 -->
<g id="edge12" class="edge"><title>Node10&#45;&gt;Node11</title>
<path fill="none" stroke="midnightblue" d="M925.042,-67C943.706,-67 965.21,-67 985.45,-67"/>
<polygon fill="midnightblue" stroke="midnightblue" points="985.58,-70.5001 995.58,-67 985.58,-63.5001 985.58,-70.5001"/>
</g>
<!-- Node13 -->
<g id="node13" class="node"><title>Node13</title>
<g id="a_node13"><a xlink:href="namespaceforcebalance_1_1nifty.html#a2fc81730e7efa7d138dd86f733507bfc" target="_top" xlink:title="Similar to the bultin function map().">
<polygon fill="white" stroke="black" points="982.035,-6 982.035,-26 1137.96,-26 1137.96,-6 982.035,-6"/>
<text text-anchor="middle" x="1060" y="-13" font-family="Ubuntu-R" font-size="10.00">forcebalance.nifty.concurrent_map</text>
</a>
</g>
</g>
<!-- Node12&#45;&gt;Node13 -->
<g id="edge15" class="edge"><title>Node12&#45;&gt;Node13</title>
<path fill="none" stroke="midnightblue" d="M928.506,-16C942.101,-16 957.023,-16 971.765,-16"/>
<polygon fill="midnightblue" stroke="midnightblue" points="971.925,-19.5001 981.925,-16 971.925,-12.5001 971.925,-19.5001"/>
</g>
</g>
</svg>
