<?xml version="1.0" encoding="UTF-8" standalone="no"?>
<!DOCTYPE svg PUBLIC "-//W3C//DTD SVG 1.1//EN"
 "http://www.w3.org/Graphics/SVG/1.1/DTD/svg11.dtd">
<!-- Generated by graphviz version 2.26.3 (20100126.1600)
 -->
<!-- Title: forcebalance.nifty.invert_svd Pages: 1 -->
<svg width="540pt" height="172pt"
 viewBox="0.00 0.00 540.00 172.00" xmlns="http://www.w3.org/2000/svg" xmlns:xlink="http://www.w3.org/1999/xlink">
<g id="graph1" class="graph" transform="scale(1 1) rotate(0) translate(4 168)">
<title>forcebalance.nifty.invert_svd</title>
<polygon fill="white" stroke="white" points="-4,5 -4,-168 537,-168 537,5 -4,5"/>
<!-- Node1 -->
<g id="node1" class="node"><title>Node1</title>
<polygon fill="#bfbfbf" stroke="black" points="0.5,-70.5 0.5,-91.5 151.5,-91.5 151.5,-70.5 0.5,-70.5"/>
<text text-anchor="middle" x="76" y="-78.5" font-family="Ubuntu-R" font-size="10.00">forcebalance.nifty.invert_svd</text>
</g>
<!-- Node2 -->
<g id="node3" class="node"><title>Node2</title>
<a xlink:href="namespaceforcebalance_1_1nifty.html#aa9fb9c7c65231eca50a7afc04f489b64" target="_top" xlink:title="forcebalance.nifty.get\l_least_squares">
<polygon fill="white" stroke="black" points="192,-130 192,-164 310,-164 310,-130 192,-130"/>
<text text-anchor="start" x="200" y="-151" font-family="Ubuntu-R" font-size="10.00">forcebalance.nifty.get</text>
<text text-anchor="middle" x="251" y="-138" font-family="Ubuntu-R" font-size="10.00">_least_squares</text>
</a>
</g>
<!-- Node1&#45;&gt;Node2 -->
<g id="edge2" class="edge"><title>Node1&#45;&gt;Node2</title>
<path fill="none" stroke="midnightblue" d="M104.117,-91.604C128.877,-100.942 165.648,-114.81 196.204,-126.334"/>
<polygon fill="midnightblue" stroke="midnightblue" points="195.292,-129.731 205.883,-129.985 197.762,-123.181 195.292,-129.731"/>
</g>
<!-- Node4 -->
<g id="node8" class="node"><title>Node4</title>
<a xlink:href="namespaceforcebalance_1_1nifty.html#afb3f205bce4984856e766af7e9fdaca8" target="_top" xlink:title="Given any list, array, or matrix, return a 1&#45;column matrix.">
<polygon fill="white" stroke="black" points="193,-90.5 193,-111.5 309,-111.5 309,-90.5 193,-90.5"/>
<text text-anchor="middle" x="251" y="-98.5" font-family="Ubuntu-R" font-size="10.00">forcebalance.nifty.col</text>
</a>
</g>
<!-- Node1&#45;&gt;Node4 -->
<g id="edge8" class="edge"><title>Node1&#45;&gt;Node4</title>
<path fill="none" stroke="midnightblue" d="M151.74,-89.656C162.063,-90.8357 172.608,-92.0409 182.787,-93.2042"/>
<polygon fill="midnightblue" stroke="midnightblue" points="182.489,-96.6928 192.822,-94.351 183.284,-89.7381 182.489,-96.6928"/>
</g>
<!-- Node5 -->
<g id="node11" class="node"><title>Node5</title>
<a xlink:href="namespaceforcebalance_1_1nifty.html#abb8f59044961a12588e0653c2baa8b01" target="_top" xlink:title="forcebalance.nifty.warn\l_press_key">
<polygon fill="white" stroke="black" points="188.5,-0 188.5,-34 313.5,-34 313.5,-0 188.5,-0"/>
<text text-anchor="start" x="196.5" y="-21" font-family="Ubuntu-R" font-size="10.00">forcebalance.nifty.warn</text>
<text text-anchor="middle" x="251" y="-8" font-family="Ubuntu-R" font-size="10.00">_press_key</text>
</a>
</g>
<!-- Node1&#45;&gt;Node5 -->
<g id="edge12" class="edge"><title>Node1&#45;&gt;Node5</title>
<path fill="none" stroke="midnightblue" d="M104.898,-70.4317C129.25,-61.5256 164.811,-48.5204 194.752,-37.5707"/>
<polygon fill="midnightblue" stroke="midnightblue" points="196.065,-40.8174 204.254,-34.0956 193.66,-34.2433 196.065,-40.8174"/>
</g>
<!-- Node3 -->
<g id="node5" class="node"><title>Node3</title>
<a xlink:href="namespaceforcebalance_1_1nifty.html#a52114ceee9d55f94d9aecb3e176de294" target="_top" xlink:title="Given any list, array, or matrix, return a single&#45;index array.">
<polygon fill="white" stroke="black" points="382.5,-90.5 382.5,-111.5 499.5,-111.5 499.5,-90.5 382.5,-90.5"/>
<text text-anchor="middle" x="441" y="-98.5" font-family="Ubuntu-R" font-size="10.00">forcebalance.nifty.flat</text>
</a>
</g>
<!-- Node2&#45;&gt;Node3 -->
<g id="edge4" class="edge"><title>Node2&#45;&gt;Node3</title>
<path fill="none" stroke="midnightblue" d="M310.076,-132.697C334.763,-126.72 363.246,-119.825 387.329,-113.994"/>
<polygon fill="midnightblue" stroke="midnightblue" points="388.461,-117.321 397.356,-111.566 386.813,-110.518 388.461,-117.321"/>
</g>
<!-- Node3&#45;&gt;Node1 -->
<g id="edge6" class="edge"><title>Node3&#45;&gt;Node1</title>
<path fill="none" stroke="midnightblue" d="M386.211,-90.4548C363.903,-86.663 337.81,-82.8633 314,-81 263.639,-77.0589 207.101,-76.882 161.77,-77.7728"/>
<polygon fill="midnightblue" stroke="midnightblue" points="161.606,-74.2755 151.685,-77.9921 161.758,-81.2738 161.606,-74.2755"/>
</g>
<!-- Node4&#45;&gt;Node3 -->
<g id="edge10" class="edge"><title>Node4&#45;&gt;Node3</title>
<path fill="none" stroke="midnightblue" d="M309.039,-101C329.015,-101 351.574,-101 372.317,-101"/>
<polygon fill="midnightblue" stroke="midnightblue" points="372.334,-104.5 382.334,-101 372.334,-97.5001 372.334,-104.5"/>
</g>
<!-- Node6 -->
<g id="node13" class="node"><title>Node6</title>
<a xlink:href="namespaceforcebalance_1_1nifty.html#a2fc81730e7efa7d138dd86f733507bfc" target="_top" xlink:title="Similar to the bultin function map().">
<polygon fill="white" stroke="black" points="350.5,-6.5 350.5,-27.5 531.5,-27.5 531.5,-6.5 350.5,-6.5"/>
<text text-anchor="middle" x="441" y="-14.5" font-family="Ubuntu-R" font-size="10.00">forcebalance.nifty.concurrent_map</text>
</a>
</g>
<!-- Node5&#45;&gt;Node6 -->
<g id="edge14" class="edge"><title>Node5&#45;&gt;Node6</title>
<path fill="none" stroke="midnightblue" d="M313.74,-17C322.3,-17 331.257,-17 340.283,-17"/>
<polygon fill="midnightblue" stroke="midnightblue" points="340.485,-20.5001 350.485,-17 340.485,-13.5001 340.485,-20.5001"/>
</g>
</g>
</svg>
