<?xml version="1.0" encoding="UTF-8" standalone="no"?>
<!DOCTYPE svg PUBLIC "-//W3C//DTD SVG 1.1//EN"
 "http://www.w3.org/Graphics/SVG/1.1/DTD/svg11.dtd">
<!-- Generated by graphviz version 2.26.3 (20100126.1600)
 -->
<!-- Title: forcebalance.nifty.isdecimal Pages: 1 -->
<svg width="324pt" height="70pt"
 viewBox="0.00 0.00 324.00 70.00" xmlns="http://www.w3.org/2000/svg" xmlns:xlink="http://www.w3.org/1999/xlink">
<g id="graph1" class="graph" transform="scale(1 1) rotate(0) translate(4 66)">
<title>forcebalance.nifty.isdecimal</title>
<polygon fill="white" stroke="white" points="-4,5 -4,-66 321,-66 321,5 -4,5"/>
<!-- Node1 -->
<g id="node1" class="node"><title>Node1</title>
<polygon fill="#bfbfbf" stroke="black" points="0,-20.5 0,-41.5 148,-41.5 148,-20.5 0,-20.5"/>
<text text-anchor="middle" x="74" y="-28.5" font-family="Ubuntu-R" font-size="10.00">forcebalance.nifty.isdecimal</text>
</g>
<!-- Node2 -->
<g id="node3" class="node"><title>Node2</title>
<a xlink:href="namespaceforcebalance_1_1nifty.html#a8e3ef0108b9d37b82ba0dced7c6037ae" target="_top" xlink:title="Matches ANY number; it can be a decimal, scientific notation, what have you CAUTION &#45; this will also ...">
<polygon fill="white" stroke="black" points="184.5,-40.5 184.5,-61.5 315.5,-61.5 315.5,-40.5 184.5,-40.5"/>
<text text-anchor="middle" x="250" y="-48.5" font-family="Ubuntu-R" font-size="10.00">forcebalance.nifty.isfloat</text>
</a>
</g>
<!-- Node1&#45;&gt;Node2 -->
<g id="edge2" class="edge"><title>Node1&#45;&gt;Node2</title>
<path fill="none" stroke="midnightblue" d="M148.13,-39.4238C156.773,-40.406 165.599,-41.4089 174.263,-42.3935"/>
<polygon fill="midnightblue" stroke="midnightblue" points="174.008,-45.887 184.339,-43.5385 174.798,-38.9317 174.008,-45.887"/>
</g>
<!-- Node3 -->
<g id="node5" class="node"><title>Node3</title>
<a xlink:href="namespaceforcebalance_1_1nifty.html#a3f1c7a1af9d35d5d1693074bc6f5497c" target="_top" xlink:title="ONLY matches integers! If you have a decimal point? None shall pass! ">
<polygon fill="white" stroke="black" points="189,-0.5 189,-21.5 311,-21.5 311,-0.5 189,-0.5"/>
<text text-anchor="middle" x="250" y="-8.5" font-family="Ubuntu-R" font-size="10.00">forcebalance.nifty.isint</text>
</a>
</g>
<!-- Node1&#45;&gt;Node3 -->
<g id="edge4" class="edge"><title>Node1&#45;&gt;Node3</title>
<path fill="none" stroke="midnightblue" d="M148.13,-22.5762C158.276,-21.4232 168.674,-20.2416 178.767,-19.0947"/>
<polygon fill="midnightblue" stroke="midnightblue" points="179.196,-22.5685 188.737,-17.9617 178.406,-15.6133 179.196,-22.5685"/>
</g>
</g>
</svg>
