<?xml version="1.0" encoding="UTF-8" standalone="no"?>
<!DOCTYPE svg PUBLIC "-//W3C//DTD SVG 1.1//EN"
 "http://www.w3.org/Graphics/SVG/1.1/DTD/svg11.dtd">
<!-- Generated by graphviz version 2.28.0 (20111219.2309)
 -->
<!-- Title: G Pages: 1 -->
<svg width="692pt" height="28pt"
 viewBox="0.00 0.00 692.00 28.00" xmlns="http://www.w3.org/2000/svg" xmlns:xlink="http://www.w3.org/1999/xlink">
<g id="graph1" class="graph" transform="scale(1 1) rotate(0) translate(4 24)">
<title>G</title>
<polygon fill="white" stroke="white" points="-4,5 -4,-24 689,-24 689,5 -4,5"/>
<!-- Node1 -->
<g id="node1" class="node"><title>Node1</title>
<polygon fill="#bfbfbf" stroke="black" points="0.5,-0.5 0.5,-19.5 207.5,-19.5 207.5,-0.5 0.5,-0.5"/>
<text text-anchor="middle" x="104" y="-7.5" font-family="Ubuntu-R" font-size="10.00">forcebalance.abinitio.weighted_variance</text>
</g>
<!-- Node2 -->
<g id="node3" class="node"><title>Node2</title>
<a xlink:href="namespaceforcebalance_1_1abinitio.html#ab9554761125a4ec7c3c13d6ae4ea537d" target="_top" xlink:title="A bit of a hack, since we have to subtract out two mean quantities to get Hessian elements...">
<polygon fill="white" stroke="black" points="244.5,-0.5 244.5,-19.5 457.5,-19.5 457.5,-0.5 244.5,-0.5"/>
<text text-anchor="middle" x="351" y="-7.5" font-family="Ubuntu-R" font-size="10.00">forcebalance.abinitio.weighted_variance2</text>
</a>
</g>
<!-- Node1&#45;&gt;Node2 -->
<g id="edge2" class="edge"><title>Node1&#45;&gt;Node2</title>
<path fill="none" stroke="midnightblue" d="M207.837,-10C216.496,-10 225.29,-10 234.039,-10"/>
<polygon fill="midnightblue" stroke="midnightblue" points="234.279,-13.5001 244.279,-10 234.279,-6.5001 234.279,-13.5001"/>
</g>
<!-- Node3 -->
<g id="node5" class="node"><title>Node3</title>
<a xlink:href="namespaceforcebalance_1_1abinitio.html#aadd1d6c5a34c82d495d6be7380b73601" target="_top" xlink:title="This function builds an objective function (number) from the complicated polytensor and covariance ma...">
<polygon fill="white" stroke="black" points="494.5,-0.5 494.5,-19.5 683.5,-19.5 683.5,-0.5 494.5,-0.5"/>
<text text-anchor="middle" x="589" y="-7.5" font-family="Ubuntu-R" font-size="10.00">forcebalance.abinitio.build_objective</text>
</a>
</g>
<!-- Node2&#45;&gt;Node3 -->
<g id="edge4" class="edge"><title>Node2&#45;&gt;Node3</title>
<path fill="none" stroke="midnightblue" d="M457.575,-10C466.396,-10 475.311,-10 484.119,-10"/>
<polygon fill="midnightblue" stroke="midnightblue" points="484.398,-13.5001 494.398,-10 484.398,-6.5001 484.398,-13.5001"/>
</g>
</g>
</svg>
