<?xml version="1.0" encoding="UTF-8" standalone="no"?>
<!DOCTYPE svg PUBLIC "-//W3C//DTD SVG 1.1//EN"
 "http://www.w3.org/Graphics/SVG/1.1/DTD/svg11.dtd">
<!-- Generated by graphviz version 2.28.0 (20111219.2309)
 -->
<!-- Title: forcebalance.nifty.wq_wait1 Pages: 1 -->
<svg width="800pt" height="104pt"
 viewBox="0.00 0.00 800.00 104.00" xmlns="http://www.w3.org/2000/svg" xmlns:xlink="http://www.w3.org/1999/xlink">
<g id="graph1" class="graph" transform="scale(1 1) rotate(0) translate(4 100)">
<title>forcebalance.nifty.wq_wait1</title>
<polygon fill="white" stroke="white" points="-4,5 -4,-100 797,-100 797,5 -4,5"/>
<!-- Node1 -->
<g id="node1" class="node"><title>Node1</title>
<polygon fill="#bfbfbf" stroke="black" points="0,-52 0,-82 116,-82 116,-52 0,-52"/>
<text text-anchor="start" x="8" y="-70" font-family="Ubuntu-R" font-size="10.00">forcebalance.nifty.wq</text>
<text text-anchor="middle" x="58" y="-59" font-family="Ubuntu-R" font-size="10.00">_wait1</text>
</g>
<!-- Node2 -->
<g id="node3" class="node"><title>Node2</title>
<a xlink:href="namespaceforcebalance_1_1nifty.html#a576de8c5b6f236280e07e73e39b2ab7c" target="_top" xlink:title="This function waits until the work queue is completely empty. ">
<polygon fill="white" stroke="black" points="152,-76.5 152,-95.5 292,-95.5 292,-76.5 152,-76.5"/>
<text text-anchor="middle" x="222" y="-83.5" font-family="Ubuntu-R" font-size="10.00">forcebalance.nifty.wq_wait</text>
</a>
</g>
<!-- Node1&#45;&gt;Node2 -->
<g id="edge2" class="edge"><title>Node1&#45;&gt;Node2</title>
<path fill="none" stroke="midnightblue" d="M116.115,-73.6987C124.43,-74.6739 133.115,-75.6924 141.772,-76.7078"/>
<polygon fill="midnightblue" stroke="midnightblue" points="141.559,-80.2067 151.898,-77.8955 142.374,-73.2544 141.559,-80.2067"/>
</g>
<!-- Node4 -->
<g id="node7" class="node"><title>Node4</title>
<a xlink:href="namespaceforcebalance_1_1nifty.html#ab5417ad84c6c760965cd195c6c387914" target="_top" xlink:title="forcebalance.nifty.onefile">
<polygon fill="white" stroke="black" points="155,-38.5 155,-57.5 289,-57.5 289,-38.5 155,-38.5"/>
<text text-anchor="middle" x="222" y="-45.5" font-family="Ubuntu-R" font-size="10.00">forcebalance.nifty.onefile</text>
</a>
</g>
<!-- Node1&#45;&gt;Node4 -->
<g id="edge6" class="edge"><title>Node1&#45;&gt;Node4</title>
<path fill="none" stroke="midnightblue" d="M116.115,-60.3013C125.445,-59.207 135.24,-58.0583 144.939,-56.9207"/>
<polygon fill="midnightblue" stroke="midnightblue" points="145.466,-60.3831 154.99,-55.7419 144.65,-53.4307 145.466,-60.3831"/>
</g>
<!-- Node3 -->
<g id="node5" class="node"><title>Node3</title>
<a xlink:href="namespaceforcebalance_1_1nifty.html#ad432b88307e1178b0690c0d350b1af36" target="_top" xlink:title="forcebalance.nifty.GoInto">
<polygon fill="white" stroke="black" points="328,-76.5 328,-95.5 462,-95.5 462,-76.5 328,-76.5"/>
<text text-anchor="middle" x="395" y="-83.5" font-family="Ubuntu-R" font-size="10.00">forcebalance.nifty.GoInto</text>
</a>
</g>
<!-- Node2&#45;&gt;Node3 -->
<g id="edge4" class="edge"><title>Node2&#45;&gt;Node3</title>
<path fill="none" stroke="midnightblue" d="M292.059,-86C300.429,-86 309.016,-86 317.485,-86"/>
<polygon fill="midnightblue" stroke="midnightblue" points="317.733,-89.5001 327.733,-86 317.733,-82.5001 317.733,-89.5001"/>
</g>
<!-- Node5 -->
<g id="node9" class="node"><title>Node5</title>
<a xlink:href="namespaceforcebalance_1_1nifty.html#ac9ab6c5543a2e3080061e0024850edf3" target="_top" xlink:title="forcebalance.nifty.allsplit">
<polygon fill="white" stroke="black" points="328.5,-38.5 328.5,-57.5 461.5,-57.5 461.5,-38.5 328.5,-38.5"/>
<text text-anchor="middle" x="395" y="-45.5" font-family="Ubuntu-R" font-size="10.00">forcebalance.nifty.allsplit</text>
</a>
</g>
<!-- Node4&#45;&gt;Node5 -->
<g id="edge8" class="edge"><title>Node4&#45;&gt;Node5</title>
<path fill="none" stroke="midnightblue" d="M289.113,-48C298.669,-48 308.566,-48 318.292,-48"/>
<polygon fill="midnightblue" stroke="midnightblue" points="318.345,-51.5001 328.344,-48 318.344,-44.5001 318.345,-51.5001"/>
</g>
<!-- Node8 -->
<g id="node15" class="node"><title>Node8</title>
<a xlink:href="namespaceforcebalance_1_1nifty.html#ab04e8690d099db2379dc860e0d040120" target="_top" xlink:title="forcebalance.nifty.Leave">
<polygon fill="white" stroke="black" points="329.5,-0.5 329.5,-19.5 460.5,-19.5 460.5,-0.5 329.5,-0.5"/>
<text text-anchor="middle" x="395" y="-7.5" font-family="Ubuntu-R" font-size="10.00">forcebalance.nifty.Leave</text>
</a>
</g>
<!-- Node4&#45;&gt;Node8 -->
<g id="edge14" class="edge"><title>Node4&#45;&gt;Node8</title>
<path fill="none" stroke="midnightblue" d="M266.151,-38.411C288.919,-33.3513 317.048,-27.1004 341.119,-21.7512"/>
<polygon fill="midnightblue" stroke="midnightblue" points="342.157,-25.1061 351.16,-19.5201 340.639,-18.2728 342.157,-25.1061"/>
</g>
<!-- Node6 -->
<g id="node11" class="node"><title>Node6</title>
<a xlink:href="namespaceforcebalance_1_1nifty.html#ae87c7def5f8edf2ec30737bdb1d2636f" target="_top" xlink:title="forcebalance.nifty.Missing\lFileInspection">
<polygon fill="white" stroke="black" points="498,-33 498,-63 636,-63 636,-33 498,-33"/>
<text text-anchor="start" x="506" y="-51" font-family="Ubuntu-R" font-size="10.00">forcebalance.nifty.Missing</text>
<text text-anchor="middle" x="567" y="-40" font-family="Ubuntu-R" font-size="10.00">FileInspection</text>
</a>
</g>
<!-- Node5&#45;&gt;Node6 -->
<g id="edge10" class="edge"><title>Node5&#45;&gt;Node6</title>
<path fill="none" stroke="midnightblue" d="M461.726,-48C470.255,-48 479.057,-48 487.764,-48"/>
<polygon fill="midnightblue" stroke="midnightblue" points="487.919,-51.5001 497.919,-48 487.919,-44.5001 487.919,-51.5001"/>
</g>
<!-- Node7 -->
<g id="node13" class="node"><title>Node7</title>
<a xlink:href="namespaceforcebalance_1_1nifty.html#a0cf4e58f90acf20e3d6224be2354082c" target="_top" xlink:title="forcebalance.nifty.link\l_dir_contents">
<polygon fill="white" stroke="black" points="672.5,-33 672.5,-63 791.5,-63 791.5,-33 672.5,-33"/>
<text text-anchor="start" x="680.5" y="-51" font-family="Ubuntu-R" font-size="10.00">forcebalance.nifty.link</text>
<text text-anchor="middle" x="732" y="-40" font-family="Ubuntu-R" font-size="10.00">_dir_contents</text>
</a>
</g>
<!-- Node6&#45;&gt;Node7 -->
<g id="edge12" class="edge"><title>Node6&#45;&gt;Node7</title>
<path fill="none" stroke="midnightblue" d="M636.182,-48C644.835,-48 653.694,-48 662.354,-48"/>
<polygon fill="midnightblue" stroke="midnightblue" points="662.405,-51.5001 672.405,-48 662.405,-44.5001 662.405,-51.5001"/>
</g>
</g>
</svg>
