<?xml version="1.0" encoding="UTF-8" standalone="no"?>
<!DOCTYPE svg PUBLIC "-//W3C//DTD SVG 1.1//EN"
 "http://www.w3.org/Graphics/SVG/1.1/DTD/svg11.dtd">
<!-- Generated by graphviz version 2.32.0 (20130801.1845)
 -->
<!-- Title: forcebalance.nifty.createWorkQueue Pages: 1 -->
<svg width="276pt" height="40pt"
 viewBox="0.00 0.00 276.00 40.00" xmlns="http://www.w3.org/2000/svg" xmlns:xlink="http://www.w3.org/1999/xlink">
<g id="graph0" class="graph" transform="scale(1 1) rotate(0) translate(4 36)">
<title>forcebalance.nifty.createWorkQueue</title>
<polygon fill="white" stroke="white" points="-4,5 -4,-36 273,-36 273,5 -4,5"/>
<!-- Node1 -->
<g id="node1" class="node"><title>Node1</title>
<polygon fill="#bfbfbf" stroke="black" points="0.589,-0 0.589,-32 115.411,-32 115.411,-0 0.589,-0"/>
<text text-anchor="start" x="8.589" y="-19" font-family="Ubuntu-R" font-size="10.00">forcebalance.nifty.create</text>
<text text-anchor="middle" x="58" y="-7" font-family="Ubuntu-R" font-size="10.00">WorkQueue</text>
</g>
<!-- Node2 -->
<g id="node2" class="node"><title>Node2</title>
<g id="a_node2"><a xlink:href="namespaceforcebalance_1_1nifty.html#a5d5abeb4a185fde64721d044831e18ee" target="_top" xlink:title="Submit a job to the Work Queue.">
<polygon fill="white" stroke="black" points="152.582,-0 152.582,-32 267.418,-32 267.418,-0 152.582,-0"/>
<text text-anchor="start" x="160.582" y="-19" font-family="Ubuntu-R" font-size="10.00">forcebalance.nifty.queue</text>
<text text-anchor="middle" x="210" y="-7" font-family="Ubuntu-R" font-size="10.00">_up_src_dest</text>
</a>
</g>
</g>
<!-- Node1&#45;&gt;Node2 -->
<g id="edge1" class="edge"><title>Node1&#45;&gt;Node2</title>
<path fill="none" stroke="midnightblue" d="M115.709,-16C124.295,-16 133.223,-16 142.002,-16"/>
<polygon fill="midnightblue" stroke="midnightblue" points="142.211,-19.5001 152.211,-16 142.211,-12.5001 142.211,-19.5001"/>
</g>
</g>
</svg>
