<?xml version="1.0" encoding="UTF-8" standalone="no"?>
<!DOCTYPE svg PUBLIC "-//W3C//DTD SVG 1.1//EN"
 "http://www.w3.org/Graphics/SVG/1.1/DTD/svg11.dtd">
<!-- Generated by graphviz version 2.26.3 (20100126.1600)
 -->
<!-- Title: forcebalance.openmmio.get_dipole Pages: 1 -->
<svg width="348pt" height="42pt"
 viewBox="0.00 0.00 348.00 42.00" xmlns="http://www.w3.org/2000/svg" xmlns:xlink="http://www.w3.org/1999/xlink">
<g id="graph1" class="graph" transform="scale(1 1) rotate(0) translate(4 38)">
<title>forcebalance.openmmio.get_dipole</title>
<polygon fill="white" stroke="white" points="-4,5 -4,-38 345,-38 345,5 -4,5"/>
<!-- Node1 -->
<g id="node1" class="node"><title>Node1</title>
<polygon fill="#bfbfbf" stroke="black" points="0,-0 0,-34 152,-34 152,-0 0,-0"/>
<text text-anchor="start" x="8" y="-21" font-family="Ubuntu-R" font-size="10.00">forcebalance.openmmio.get</text>
<text text-anchor="middle" x="76" y="-8" font-family="Ubuntu-R" font-size="10.00">_dipole</text>
</g>
<!-- Node2 -->
<g id="node3" class="node"><title>Node2</title>
<a xlink:href="namespaceforcebalance_1_1openmmio.html#a829487387c4b4a4817a2e3fc50242857" target="_top" xlink:title="Return the current multipole moments in Debye and Buckingham units. ">
<polygon fill="white" stroke="black" points="188,-0 188,-34 340,-34 340,-0 188,-0"/>
<text text-anchor="start" x="196" y="-21" font-family="Ubuntu-R" font-size="10.00">forcebalance.openmmio.get</text>
<text text-anchor="middle" x="264" y="-8" font-family="Ubuntu-R" font-size="10.00">_multipoles</text>
</a>
</g>
<!-- Node1&#45;&gt;Node2 -->
<g id="edge2" class="edge"><title>Node1&#45;&gt;Node2</title>
<path fill="none" stroke="midnightblue" d="M152.196,-17C160.517,-17 169.032,-17 177.466,-17"/>
<polygon fill="midnightblue" stroke="midnightblue" points="177.696,-20.5001 187.696,-17 177.696,-13.5001 177.696,-20.5001"/>
</g>
</g>
</svg>
