<?xml version="1.0" encoding="UTF-8" standalone="no"?>
<!DOCTYPE svg PUBLIC "-//W3C//DTD SVG 1.1//EN"
 "http://www.w3.org/Graphics/SVG/1.1/DTD/svg11.dtd">
<!-- Generated by graphviz version 2.32.0 (20130801.1845)
 -->
<!-- Title: forcebalance.nifty.encode Pages: 1 -->
<svg width="2156pt" height="146pt"
 viewBox="0.00 0.00 2156.00 146.00" xmlns="http://www.w3.org/2000/svg" xmlns:xlink="http://www.w3.org/1999/xlink">
<g id="graph0" class="graph" transform="scale(1 1) rotate(0) translate(4 142)">
<title>forcebalance.nifty.encode</title>
<polygon fill="white" stroke="white" points="-4,5 -4,-142 2153,-142 2153,5 -4,5"/>
<!-- Node1 -->
<g id="node1" class="node"><title>Node1</title>
<polygon fill="#bfbfbf" stroke="black" points="0.3625,-77 0.3625,-97 119.637,-97 119.637,-77 0.3625,-77"/>
<text text-anchor="middle" x="60" y="-84" font-family="Ubuntu-R" font-size="10.00">forcebalance.nifty.encode</text>
</g>
<!-- Node2 -->
<g id="node2" class="node"><title>Node2</title>
<g id="a_node2"><a xlink:href="namespaceforcebalance_1_1nifty.html#a3b9fd8e29c5d8f1b2114e4d9662dfd61" target="_top" xlink:title="forcebalance.nifty.segments">
<polygon fill="white" stroke="black" points="155.914,-97 155.914,-117 284.086,-117 284.086,-97 155.914,-97"/>
<text text-anchor="middle" x="220" y="-104" font-family="Ubuntu-R" font-size="10.00">forcebalance.nifty.segments</text>
</a>
</g>
</g>
<!-- Node1&#45;&gt;Node2 -->
<g id="edge1" class="edge"><title>Node1&#45;&gt;Node2</title>
<path fill="none" stroke="midnightblue" d="M119.833,-94.4473C128.284,-95.5169 137.064,-96.6283 145.751,-97.7279"/>
<polygon fill="midnightblue" stroke="midnightblue" points="145.52,-101.227 155.88,-99.0101 146.399,-94.282 145.52,-101.227"/>
</g>
<!-- Node3 -->
<g id="node3" class="node"><title>Node3</title>
<g id="a_node3"><a xlink:href="namespaceforcebalance_1_1nifty.html#a9628ee448710667747d8aa5dc166532c" target="_top" xlink:title="forcebalance.nifty.commadash">
<polygon fill="white" stroke="black" points="320.639,-97 320.639,-117 459.361,-117 459.361,-97 320.639,-97"/>
<text text-anchor="middle" x="390" y="-104" font-family="Ubuntu-R" font-size="10.00">forcebalance.nifty.commadash</text>
</a>
</g>
</g>
<!-- Node2&#45;&gt;Node3 -->
<g id="edge2" class="edge"><title>Node2&#45;&gt;Node3</title>
<path fill="none" stroke="midnightblue" d="M284.514,-100.432C292.995,-100.278 301.774,-100.222 310.474,-100.263"/>
<polygon fill="midnightblue" stroke="midnightblue" points="310.597,-103.764 320.628,-100.355 310.66,-96.7642 310.597,-103.764"/>
</g>
<!-- Node3&#45;&gt;Node1 -->
<g id="edge4" class="edge"><title>Node3&#45;&gt;Node1</title>
<path fill="none" stroke="midnightblue" d="M346.349,-96.9887C327.376,-93.0253 304.692,-88.9531 284,-87 232.508,-82.1397 174.029,-82.3521 129.878,-83.6664"/>
<polygon fill="midnightblue" stroke="midnightblue" points="129.713,-80.1698 119.832,-83.9917 129.94,-87.1661 129.713,-80.1698"/>
</g>
<!-- Node3&#45;&gt;Node2 -->
<g id="edge3" class="edge"><title>Node3&#45;&gt;Node2</title>
<path fill="none" stroke="midnightblue" d="M320.628,-113.645C312.047,-113.762 303.241,-113.781 294.584,-113.704"/>
<polygon fill="midnightblue" stroke="midnightblue" points="294.56,-110.203 284.514,-113.568 294.466,-117.202 294.56,-110.203"/>
</g>
<!-- Node4 -->
<g id="node4" class="node"><title>Node4</title>
<g id="a_node4"><a xlink:href="namespaceforcebalance_1_1nifty.html#afa670d68f01813ac8d429bc5cbdb4f9f" target="_top" xlink:title="forcebalance.nifty.uncommadash">
<polygon fill="white" stroke="black" points="496.639,-97 496.639,-117 645.361,-117 645.361,-97 496.639,-97"/>
<text text-anchor="middle" x="571" y="-104" font-family="Ubuntu-R" font-size="10.00">forcebalance.nifty.uncommadash</text>
</a>
</g>
</g>
<!-- Node3&#45;&gt;Node4 -->
<g id="edge5" class="edge"><title>Node3&#45;&gt;Node4</title>
<path fill="none" stroke="midnightblue" d="M459.438,-107C468.259,-107 477.368,-107 486.397,-107"/>
<polygon fill="midnightblue" stroke="midnightblue" points="486.538,-110.5 496.538,-107 486.538,-103.5 486.538,-110.5"/>
</g>
<!-- Node5 -->
<g id="node5" class="node"><title>Node5</title>
<g id="a_node5"><a xlink:href="namespaceforcebalance_1_1nifty.html#a11babd62dc7bca389162c6318f9672ca" target="_top" xlink:title="Cool&#45;looking printout for slick formatting of output.">
<polygon fill="white" stroke="black" points="682.468,-97 682.468,-117 809.532,-117 809.532,-97 682.468,-97"/>
<text text-anchor="middle" x="746" y="-104" font-family="Ubuntu-R" font-size="10.00">forcebalance.nifty.printcool</text>
</a>
</g>
</g>
<!-- Node4&#45;&gt;Node5 -->
<g id="edge6" class="edge"><title>Node4&#45;&gt;Node5</title>
<path fill="none" stroke="midnightblue" d="M645.368,-107C654.334,-107 663.492,-107 672.446,-107"/>
<polygon fill="midnightblue" stroke="midnightblue" points="672.448,-110.5 682.448,-107 672.447,-103.5 672.448,-110.5"/>
</g>
<!-- Node6 -->
<g id="node6" class="node"><title>Node6</title>
<g id="a_node6"><a xlink:href="namespaceforcebalance_1_1nifty.html#abb8f59044961a12588e0653c2baa8b01" target="_top" xlink:title="forcebalance.nifty.warn\l_press_key">
<polygon fill="white" stroke="black" points="1827.53,-105 1827.53,-137 1938.47,-137 1938.47,-105 1827.53,-105"/>
<text text-anchor="start" x="1835.53" y="-124" font-family="Ubuntu-R" font-size="10.00">forcebalance.nifty.warn</text>
<text text-anchor="middle" x="1883" y="-112" font-family="Ubuntu-R" font-size="10.00">_press_key</text>
</a>
</g>
</g>
<!-- Node5&#45;&gt;Node6 -->
<g id="edge7" class="edge"><title>Node5&#45;&gt;Node6</title>
<path fill="none" stroke="midnightblue" d="M809.581,-113.301C873.28,-119.163 974.909,-127 1063,-127 1063,-127 1063,-127 1539,-127 1635.87,-127 1748.11,-124.578 1817.08,-122.812"/>
<polygon fill="midnightblue" stroke="midnightblue" points="1817.45,-126.303 1827.35,-122.545 1817.26,-119.306 1817.45,-126.303"/>
</g>
<!-- Node8 -->
<g id="node8" class="node"><title>Node8</title>
<g id="a_node8"><a xlink:href="namespaceforcebalance_1_1nifty.html#a51180e960742cc7547749fdfb3513ec4" target="_top" xlink:title="See documentation for printcool; this is a nice way to print out keys/values in a dictionary...">
<polygon fill="white" stroke="black" points="846.468,-33 846.468,-65 973.532,-65 973.532,-33 846.468,-33"/>
<text text-anchor="start" x="854.468" y="-52" font-family="Ubuntu-R" font-size="10.00">forcebalance.nifty.printcool</text>
<text text-anchor="middle" x="910" y="-40" font-family="Ubuntu-R" font-size="10.00">_dictionary</text>
</a>
</g>
</g>
<!-- Node5&#45;&gt;Node8 -->
<g id="edge9" class="edge"><title>Node5&#45;&gt;Node8</title>
<path fill="none" stroke="midnightblue" d="M775.218,-96.8972C797.017,-89.0926 827.85,-78.0536 854.423,-68.5401"/>
<polygon fill="midnightblue" stroke="midnightblue" points="855.76,-71.7789 863.995,-65.1129 853.4,-65.1885 855.76,-71.7789"/>
</g>
<!-- Node7 -->
<g id="node7" class="node"><title>Node7</title>
<g id="a_node7"><a xlink:href="namespaceforcebalance_1_1nifty.html#a2fc81730e7efa7d138dd86f733507bfc" target="_top" xlink:title="Similar to the bultin function map().">
<polygon fill="white" stroke="black" points="1992.04,-111 1992.04,-131 2147.97,-131 2147.97,-111 1992.04,-111"/>
<text text-anchor="middle" x="2070" y="-118" font-family="Ubuntu-R" font-size="10.00">forcebalance.nifty.concurrent_map</text>
</a>
</g>
</g>
<!-- Node6&#45;&gt;Node7 -->
<g id="edge8" class="edge"><title>Node6&#45;&gt;Node7</title>
<path fill="none" stroke="midnightblue" d="M1938.51,-121C1952.1,-121 1967.02,-121 1981.77,-121"/>
<polygon fill="midnightblue" stroke="midnightblue" points="1981.92,-124.5 1991.92,-121 1981.92,-117.5 1981.92,-124.5"/>
</g>
<!-- Node9 -->
<g id="node9" class="node"><title>Node9</title>
<g id="a_node9"><a xlink:href="namespaceforcebalance_1_1nifty.html#a3f1c7a1af9d35d5d1693074bc6f5497c" target="_top" xlink:title="ONLY matches integers! If you have a decimal point? None shall pass!">
<polygon fill="white" stroke="black" points="1009.91,-39 1009.91,-59 1118.09,-59 1118.09,-39 1009.91,-39"/>
<text text-anchor="middle" x="1064" y="-46" font-family="Ubuntu-R" font-size="10.00">forcebalance.nifty.isint</text>
</a>
</g>
</g>
<!-- Node8&#45;&gt;Node9 -->
<g id="edge10" class="edge"><title>Node8&#45;&gt;Node9</title>
<path fill="none" stroke="midnightblue" d="M973.702,-49C982.19,-49 990.907,-49 999.41,-49"/>
<polygon fill="midnightblue" stroke="midnightblue" points="999.648,-52.5001 1009.65,-49 999.648,-45.5001 999.648,-52.5001"/>
</g>
<!-- Node11 -->
<g id="node11" class="node"><title>Node11</title>
<g id="a_node11"><a xlink:href="namespaceforcebalance_1_1nifty.html#a8e3ef0108b9d37b82ba0dced7c6037ae" target="_top" xlink:title="Matches ANY number; it can be a decimal, scientific notation, what have you CAUTION &#45; this will also ...">
<polygon fill="white" stroke="black" points="1320.02,-19 1320.02,-39 1435.98,-39 1435.98,-19 1320.02,-19"/>
<text text-anchor="middle" x="1378" y="-26" font-family="Ubuntu-R" font-size="10.00">forcebalance.nifty.isfloat</text>
</a>
</g>
</g>
<!-- Node8&#45;&gt;Node11 -->
<g id="edge25" class="edge"><title>Node8&#45;&gt;Node11</title>
<path fill="none" stroke="midnightblue" d="M973.56,-34.4033C985.589,-32.1537 998.136,-30.1864 1010,-29 1114.3,-18.5701 1236.11,-21.5452 1309.85,-25.0038"/>
<polygon fill="midnightblue" stroke="midnightblue" points="1309.77,-28.504 1319.93,-25.4937 1310.11,-21.5122 1309.77,-28.504"/>
</g>
<!-- Node10 -->
<g id="node10" class="node"><title>Node10</title>
<g id="a_node10"><a xlink:href="namespaceforcebalance_1_1nifty.html#a09263927eaec9deff283fbf1a820242f" target="_top" xlink:title="Matches things with a decimal only; see isint and isfloat.">
<polygon fill="white" stroke="black" points="1154.36,-58 1154.36,-78 1283.64,-78 1283.64,-58 1154.36,-58"/>
<text text-anchor="middle" x="1219" y="-65" font-family="Ubuntu-R" font-size="10.00">forcebalance.nifty.isdecimal</text>
</a>
</g>
</g>
<!-- Node9&#45;&gt;Node10 -->
<g id="edge11" class="edge"><title>Node9&#45;&gt;Node10</title>
<path fill="none" stroke="midnightblue" d="M1118.51,-55.6453C1126.81,-56.6759 1135.51,-57.756 1144.16,-58.8305"/>
<polygon fill="midnightblue" stroke="midnightblue" points="1143.92,-62.3268 1154.27,-60.0859 1144.78,-55.3801 1143.92,-62.3268"/>
</g>
<!-- Node10&#45;&gt;Node11 -->
<g id="edge12" class="edge"><title>Node10&#45;&gt;Node11</title>
<path fill="none" stroke="midnightblue" d="M1260.43,-57.9565C1280.67,-52.9298 1305.36,-46.7968 1326.8,-41.4713"/>
<polygon fill="midnightblue" stroke="midnightblue" points="1327.84,-44.8171 1336.71,-39.0094 1326.16,-38.0235 1327.84,-44.8171"/>
</g>
<!-- Node15 -->
<g id="node15" class="node"><title>Node15</title>
<g id="a_node15"><a xlink:href="namespaceforcebalance_1_1nifty.html#afb3f205bce4984856e766af7e9fdaca8" target="_top" xlink:title="Given any list, array, or matrix, return a 1&#45;column matrix.">
<polygon fill="white" stroke="black" points="1326.41,-58 1326.41,-78 1429.59,-78 1429.59,-58 1326.41,-58"/>
<text text-anchor="middle" x="1378" y="-65" font-family="Ubuntu-R" font-size="10.00">forcebalance.nifty.col</text>
</a>
</g>
</g>
<!-- Node10&#45;&gt;Node15 -->
<g id="edge17" class="edge"><title>Node10&#45;&gt;Node15</title>
<path fill="none" stroke="midnightblue" d="M1283.86,-68C1294.43,-68 1305.36,-68 1315.86,-68"/>
<polygon fill="midnightblue" stroke="midnightblue" points="1316.19,-71.5001 1326.19,-68 1316.19,-64.5001 1316.19,-71.5001"/>
</g>
<!-- Node11&#45;&gt;Node9 -->
<g id="edge13" class="edge"><title>Node11&#45;&gt;Node9</title>
<path fill="none" stroke="midnightblue" d="M1319.98,-32.6552C1265.85,-36.1253 1184.63,-41.3317 1128.46,-44.9319"/>
<polygon fill="midnightblue" stroke="midnightblue" points="1128.04,-41.452 1118.28,-45.5846 1128.48,-48.4376 1128.04,-41.452"/>
</g>
<!-- Node12 -->
<g id="node12" class="node"><title>Node12</title>
<g id="a_node12"><a xlink:href="namespaceforcebalance_1_1nifty.html#a8d63c8ae9a67c66673a6cf81357f827d" target="_top" xlink:title="Returns a big number if we encounter NaN.">
<polygon fill="white" stroke="black" points="1471.97,-0 1471.97,-20 1604.03,-20 1604.03,-0 1471.97,-0"/>
<text text-anchor="middle" x="1538" y="-7" font-family="Ubuntu-R" font-size="10.00">forcebalance.nifty.floatornan</text>
</a>
</g>
</g>
<!-- Node11&#45;&gt;Node12 -->
<g id="edge14" class="edge"><title>Node11&#45;&gt;Node12</title>
<path fill="none" stroke="midnightblue" d="M1436.04,-22.1406C1444.36,-21.1397 1453.04,-20.0964 1461.66,-19.0601"/>
<polygon fill="midnightblue" stroke="midnightblue" points="1462.21,-22.5187 1471.72,-17.8497 1461.38,-15.5688 1462.21,-22.5187"/>
</g>
<!-- Node13 -->
<g id="node13" class="node"><title>Node13</title>
<g id="a_node13"><a xlink:href="namespaceforcebalance_1_1nifty.html#a6c9727360cdff8f3011a12cc54d0e86e" target="_top" xlink:title="Given any list, array, or matrix, return a 1&#45;row matrix.">
<polygon fill="white" stroke="black" points="1653.75,-0 1653.75,-20 1760.25,-20 1760.25,-0 1653.75,-0"/>
<text text-anchor="middle" x="1707" y="-7" font-family="Ubuntu-R" font-size="10.00">forcebalance.nifty.row</text>
</a>
</g>
</g>
<!-- Node12&#45;&gt;Node13 -->
<g id="edge15" class="edge"><title>Node12&#45;&gt;Node13</title>
<path fill="none" stroke="midnightblue" d="M1604.04,-10C1616.98,-10 1630.54,-10 1643.39,-10"/>
<polygon fill="midnightblue" stroke="midnightblue" points="1643.52,-13.5001 1653.52,-10 1643.52,-6.5001 1643.52,-13.5001"/>
</g>
<!-- Node14 -->
<g id="node14" class="node"><title>Node14</title>
<g id="a_node14"><a xlink:href="namespaceforcebalance_1_1nifty.html#a7676236002c6a65ea7d2e69a09923889" target="_top" xlink:title="Given two vectors vec1 and vec2, project out the component of vec1 that is along the vec2&#45;direction...">
<polygon fill="white" stroke="black" points="1810.03,-0 1810.03,-20 1955.97,-20 1955.97,-0 1810.03,-0"/>
<text text-anchor="middle" x="1883" y="-7" font-family="Ubuntu-R" font-size="10.00">forcebalance.nifty.orthogonalize</text>
</a>
</g>
</g>
<!-- Node13&#45;&gt;Node14 -->
<g id="edge16" class="edge"><title>Node13&#45;&gt;Node14</title>
<path fill="none" stroke="midnightblue" d="M1760.68,-10C1773.03,-10 1786.49,-10 1799.79,-10"/>
<polygon fill="midnightblue" stroke="midnightblue" points="1799.92,-13.5001 1809.92,-10 1799.92,-6.5001 1799.92,-13.5001"/>
</g>
<!-- Node16 -->
<g id="node16" class="node"><title>Node16</title>
<g id="a_node16"><a xlink:href="namespaceforcebalance_1_1nifty.html#a52114ceee9d55f94d9aecb3e176de294" target="_top" xlink:title="Given any list, array, or matrix, return a single&#45;index array.">
<polygon fill="white" stroke="black" points="1485.86,-39 1485.86,-59 1590.14,-59 1590.14,-39 1485.86,-39"/>
<text text-anchor="middle" x="1538" y="-46" font-family="Ubuntu-R" font-size="10.00">forcebalance.nifty.flat</text>
</a>
</g>
</g>
<!-- Node15&#45;&gt;Node16 -->
<g id="edge18" class="edge"><title>Node15&#45;&gt;Node16</title>
<path fill="none" stroke="midnightblue" d="M1429.86,-61.8837C1444.37,-60.1385 1460.34,-58.218 1475.42,-56.4047"/>
<polygon fill="midnightblue" stroke="midnightblue" points="1476.18,-59.839 1485.69,-55.17 1475.35,-52.889 1476.18,-59.839"/>
</g>
<!-- Node17 -->
<g id="node17" class="node"><title>Node17</title>
<g id="a_node17"><a xlink:href="namespaceforcebalance_1_1nifty.html#a4c82187e92dfeb8a159f4aa44b501c40" target="_top" xlink:title="Invert a matrix using singular value decomposition.">
<polygon fill="white" stroke="black" points="1640.41,-78 1640.41,-98 1773.59,-98 1773.59,-78 1640.41,-78"/>
<text text-anchor="middle" x="1707" y="-85" font-family="Ubuntu-R" font-size="10.00">forcebalance.nifty.invert_svd</text>
</a>
</g>
</g>
<!-- Node16&#45;&gt;Node17 -->
<g id="edge19" class="edge"><title>Node16&#45;&gt;Node17</title>
<path fill="none" stroke="midnightblue" d="M1582.01,-59.0435C1603.73,-64.1157 1630.27,-70.3143 1653.22,-75.6731"/>
<polygon fill="midnightblue" stroke="midnightblue" points="1652.61,-79.1246 1663.14,-77.9906 1654.2,-72.3081 1652.61,-79.1246"/>
</g>
<!-- Node17&#45;&gt;Node6 -->
<g id="edge24" class="edge"><title>Node17&#45;&gt;Node6</title>
<path fill="none" stroke="midnightblue" d="M1761.15,-98.0804C1778.94,-101.454 1798.97,-105.253 1817.53,-108.773"/>
<polygon fill="midnightblue" stroke="midnightblue" points="1816.89,-112.215 1827.37,-110.639 1818.2,-105.337 1816.89,-112.215"/>
</g>
<!-- Node17&#45;&gt;Node15 -->
<g id="edge23" class="edge"><title>Node17&#45;&gt;Node15</title>
<path fill="none" stroke="midnightblue" d="M1640.17,-83.9735C1581.72,-80.3987 1496.98,-75.2161 1440.03,-71.7329"/>
<polygon fill="midnightblue" stroke="midnightblue" points="1439.93,-68.2202 1429.73,-71.1031 1439.5,-75.2071 1439.93,-68.2202"/>
</g>
<!-- Node18 -->
<g id="node18" class="node"><title>Node18</title>
<g id="a_node18"><a xlink:href="namespaceforcebalance_1_1nifty.html#aa9fb9c7c65231eca50a7afc04f489b64" target="_top" xlink:title="forcebalance.nifty.get\l_least_squares">
<polygon fill="white" stroke="black" points="1831.41,-49 1831.41,-81 1934.59,-81 1934.59,-49 1831.41,-49"/>
<text text-anchor="start" x="1839.41" y="-68" font-family="Ubuntu-R" font-size="10.00">forcebalance.nifty.get</text>
<text text-anchor="middle" x="1883" y="-56" font-family="Ubuntu-R" font-size="10.00">_least_squares</text>
</a>
</g>
</g>
<!-- Node17&#45;&gt;Node18 -->
<g id="edge20" class="edge"><title>Node17&#45;&gt;Node18</title>
<path fill="none" stroke="midnightblue" d="M1773.78,-79.3047C1789.26,-77.2582 1805.7,-75.0855 1820.96,-73.0679"/>
<polygon fill="midnightblue" stroke="midnightblue" points="1821.86,-76.4797 1831.32,-71.6994 1820.95,-69.5401 1821.86,-76.4797"/>
</g>
<!-- Node18&#45;&gt;Node16 -->
<g id="edge21" class="edge"><title>Node18&#45;&gt;Node16</title>
<path fill="none" stroke="midnightblue" d="M1831.14,-62.6275C1769.72,-59.7622 1666.46,-54.9457 1600.59,-51.873"/>
<polygon fill="midnightblue" stroke="midnightblue" points="1600.5,-48.3652 1590.35,-51.3954 1600.18,-55.3576 1600.5,-48.3652"/>
</g>
<!-- Node19 -->
<g id="node19" class="node"><title>Node19</title>
<g id="a_node19"><a xlink:href="namespaceforcebalance_1_1nifty.html#ad5ca60565c864b4245a8212fe9d92e10" target="_top" xlink:title="Compute the (cross) statistical inefficiency of (two) timeseries.">
<polygon fill="white" stroke="black" points="2005.64,-49 2005.64,-81 2134.36,-81 2134.36,-49 2005.64,-49"/>
<text text-anchor="start" x="2013.64" y="-68" font-family="Ubuntu-R" font-size="10.00">forcebalance.nifty.statistical</text>
<text text-anchor="middle" x="2070" y="-56" font-family="Ubuntu-R" font-size="10.00">Inefficiency</text>
</a>
</g>
</g>
<!-- Node18&#45;&gt;Node19 -->
<g id="edge22" class="edge"><title>Node18&#45;&gt;Node19</title>
<path fill="none" stroke="midnightblue" d="M1935.04,-65C1953.71,-65 1975.21,-65 1995.45,-65"/>
<polygon fill="midnightblue" stroke="midnightblue" points="1995.58,-68.5001 2005.58,-65 1995.58,-61.5001 1995.58,-68.5001"/>
</g>
</g>
</svg>
