<?xml version="1.0" encoding="UTF-8" standalone="no"?>
<!DOCTYPE svg PUBLIC "-//W3C//DTD SVG 1.1//EN"
 "http://www.w3.org/Graphics/SVG/1.1/DTD/svg11.dtd">
<!-- Generated by graphviz version 2.40.1 (20161225.0304)
 -->
<!-- Title: src._version.git_versions_from_keywords Pages: 1 -->
<svg width="481pt" height="39pt"
 viewBox="0.00 0.00 481.00 39.00" xmlns="http://www.w3.org/2000/svg" xmlns:xlink="http://www.w3.org/1999/xlink">
<g id="graph0" class="graph" transform="scale(1 1) rotate(0) translate(4 35)">
<title>src._version.git_versions_from_keywords</title>
<polygon fill="#ffffff" stroke="transparent" points="-4,4 -4,-35 477,-35 477,4 -4,4"/>
<!-- Node23 -->
<g id="node1" class="node">
<title>Node23</title>
<polygon fill="#bfbfbf" stroke="#000000" points="0,-.5 0,-30.5 137,-30.5 137,-.5 0,-.5"/>
<text text-anchor="start" x="8" y="-18.5" font-family="Ubuntu-R" font-size="10.00" fill="#000000">src._version.git_versions</text>
<text text-anchor="middle" x="68.5" y="-7.5" font-family="Ubuntu-R" font-size="10.00" fill="#000000">_from_keywords</text>
</g>
<!-- Node24 -->
<g id="node2" class="node">
<title>Node24</title>
<g id="a_node2"><a xlink:href="namespacesrc_1_1__version.html#a0477040e1e7a9284f041925048d8757d" target="_top" xlink:title="Decorator to mark a method as the handler for a particular VCS. ">
<polygon fill="#ffffff" stroke="#000000" points="173,-.5 173,-30.5 289,-30.5 289,-.5 173,-.5"/>
<text text-anchor="start" x="181" y="-18.5" font-family="Ubuntu-R" font-size="10.00" fill="#000000">src._version.register</text>
<text text-anchor="middle" x="231" y="-7.5" font-family="Ubuntu-R" font-size="10.00" fill="#000000">_vcs_handler</text>
</a>
</g>
</g>
<!-- Node23&#45;&gt;Node24 -->
<g id="edge1" class="edge">
<title>Node23&#45;&gt;Node24</title>
<path fill="none" stroke="#191970" d="M137.4146,-15.5C145.7784,-15.5 154.3206,-15.5 162.6757,-15.5"/>
<polygon fill="#191970" stroke="#191970" points="162.7498,-19.0001 172.7498,-15.5 162.7497,-12.0001 162.7498,-19.0001"/>
</g>
<!-- Node25 -->
<g id="node3" class="node">
<title>Node25</title>
<g id="a_node3"><a xlink:href="namespacesrc_1_1__version.html#a07869f13dacbb2c9659c38961e969824" target="_top" xlink:title="Call the given command(s). ">
<polygon fill="#ffffff" stroke="#000000" points="325,-6 325,-25 473,-25 473,-6 325,-6"/>
<text text-anchor="middle" x="399" y="-13" font-family="Ubuntu-R" font-size="10.00" fill="#000000">src._version.run_command</text>
</a>
</g>
</g>
<!-- Node24&#45;&gt;Node25 -->
<g id="edge2" class="edge">
<title>Node24&#45;&gt;Node25</title>
<path fill="none" stroke="#191970" d="M289.2868,-15.5C297.5288,-15.5 306.1364,-15.5 314.7475,-15.5"/>
<polygon fill="#191970" stroke="#191970" points="314.8362,-19.0001 324.8361,-15.5 314.8361,-12.0001 314.8362,-19.0001"/>
</g>
</g>
</svg>
