<?xml version="1.0" encoding="UTF-8" standalone="no"?>
<!DOCTYPE svg PUBLIC "-//W3C//DTD SVG 1.1//EN"
 "http://www.w3.org/Graphics/SVG/1.1/DTD/svg11.dtd">
<!-- Generated by graphviz version 2.28.0 (20111219.2309)
 -->
<!-- Title: forcebalance.abinitio.weighted_variance2 Pages: 1 -->
<svg width="348pt" height="38pt"
 viewBox="0.00 0.00 348.00 38.00" xmlns="http://www.w3.org/2000/svg" xmlns:xlink="http://www.w3.org/1999/xlink">
<g id="graph1" class="graph" transform="scale(1 1) rotate(0) translate(4 34)">
<title>forcebalance.abinitio.weighted_variance2</title>
<polygon fill="white" stroke="white" points="-4,5 -4,-34 345,-34 345,5 -4,5"/>
<!-- Node1 -->
<g id="node1" class="node"><title>Node1</title>
<polygon fill="#bfbfbf" stroke="black" points="0.5,-0 0.5,-30 161.5,-30 161.5,-0 0.5,-0"/>
<text text-anchor="start" x="8.5" y="-18" font-family="Ubuntu-R" font-size="10.00">forcebalance.abinitio.weighted</text>
<text text-anchor="middle" x="81" y="-7" font-family="Ubuntu-R" font-size="10.00">_variance2</text>
</g>
<!-- Node2 -->
<g id="node3" class="node"><title>Node2</title>
<a xlink:href="namespaceforcebalance_1_1abinitio.html#aadd1d6c5a34c82d495d6be7380b73601" target="_top" xlink:title="This function builds an objective function (number) from the complicated polytensor and covariance ma...">
<polygon fill="white" stroke="black" points="198.5,-0 198.5,-30 339.5,-30 339.5,-0 198.5,-0"/>
<text text-anchor="start" x="206.5" y="-18" font-family="Ubuntu-R" font-size="10.00">forcebalance.abinitio.build</text>
<text text-anchor="middle" x="269" y="-7" font-family="Ubuntu-R" font-size="10.00">_objective</text>
</a>
</g>
<!-- Node1&#45;&gt;Node2 -->
<g id="edge2" class="edge"><title>Node1&#45;&gt;Node2</title>
<path fill="none" stroke="midnightblue" d="M161.69,-15C170.478,-15 179.428,-15 188.217,-15"/>
<polygon fill="midnightblue" stroke="midnightblue" points="188.441,-18.5001 198.441,-15 188.441,-11.5001 188.441,-18.5001"/>
</g>
</g>
</svg>
