<?xml version="1.0" encoding="UTF-8" standalone="no"?>
<!DOCTYPE svg PUBLIC "-//W3C//DTD SVG 1.1//EN"
 "http://www.w3.org/Graphics/SVG/1.1/DTD/svg11.dtd">
<!-- Generated by graphviz version 2.32.0 (20130801.1845)
 -->
<!-- Title: forcebalance.nifty.isdecimal Pages: 1 -->
<svg width="1002pt" height="164pt"
 viewBox="0.00 0.00 1002.00 164.00" xmlns="http://www.w3.org/2000/svg" xmlns:xlink="http://www.w3.org/1999/xlink">
<g id="graph0" class="graph" transform="scale(1 1) rotate(0) translate(4 160)">
<title>forcebalance.nifty.isdecimal</title>
<polygon fill="white" stroke="white" points="-4,5 -4,-160 999,-160 999,5 -4,5"/>
<!-- Node1 -->
<g id="node1" class="node"><title>Node1</title>
<polygon fill="#bfbfbf" stroke="black" points="0.36,-97 0.36,-117 129.64,-117 129.64,-97 0.36,-97"/>
<text text-anchor="middle" x="65" y="-104" font-family="Ubuntu-R" font-size="10.00">forcebalance.nifty.isdecimal</text>
</g>
<!-- Node2 -->
<g id="node2" class="node"><title>Node2</title>
<g id="a_node2"><a xlink:href="namespaceforcebalance_1_1nifty.html#a8e3ef0108b9d37b82ba0dced7c6037ae" target="_top" xlink:title="Matches ANY number; it can be a decimal, scientific notation, what have you CAUTION &#45; this will also ...">
<polygon fill="white" stroke="black" points="166.024,-97 166.024,-117 281.976,-117 281.976,-97 166.024,-97"/>
<text text-anchor="middle" x="224" y="-104" font-family="Ubuntu-R" font-size="10.00">forcebalance.nifty.isfloat</text>
</a>
</g>
</g>
<!-- Node1&#45;&gt;Node2 -->
<g id="edge1" class="edge"><title>Node1&#45;&gt;Node2</title>
<path fill="none" stroke="midnightblue" d="M129.858,-107C138.308,-107 146.992,-107 155.5,-107"/>
<polygon fill="midnightblue" stroke="midnightblue" points="155.764,-110.5 165.764,-107 155.764,-103.5 155.764,-110.5"/>
</g>
<!-- Node7 -->
<g id="node7" class="node"><title>Node7</title>
<g id="a_node7"><a xlink:href="namespaceforcebalance_1_1nifty.html#afb3f205bce4984856e766af7e9fdaca8" target="_top" xlink:title="Given any list, array, or matrix, return a 1&#45;column matrix.">
<polygon fill="white" stroke="black" points="172.412,-57 172.412,-77 275.588,-77 275.588,-57 172.412,-57"/>
<text text-anchor="middle" x="224" y="-64" font-family="Ubuntu-R" font-size="10.00">forcebalance.nifty.col</text>
</a>
</g>
</g>
<!-- Node1&#45;&gt;Node7 -->
<g id="edge7" class="edge"><title>Node1&#45;&gt;Node7</title>
<path fill="none" stroke="midnightblue" d="M105.618,-96.9063C126.336,-91.6279 151.888,-85.1178 173.856,-79.5208"/>
<polygon fill="midnightblue" stroke="midnightblue" points="174.841,-82.8817 183.667,-77.0211 173.113,-76.0984 174.841,-82.8817"/>
</g>
<!-- Node3 -->
<g id="node3" class="node"><title>Node3</title>
<g id="a_node3"><a xlink:href="namespaceforcebalance_1_1nifty.html#a3f1c7a1af9d35d5d1693074bc6f5497c" target="_top" xlink:title="ONLY matches integers! If you have a decimal point? None shall pass!">
<polygon fill="white" stroke="black" points="329.908,-136 329.908,-156 438.092,-156 438.092,-136 329.908,-136"/>
<text text-anchor="middle" x="384" y="-143" font-family="Ubuntu-R" font-size="10.00">forcebalance.nifty.isint</text>
</a>
</g>
</g>
<!-- Node2&#45;&gt;Node3 -->
<g id="edge2" class="edge"><title>Node2&#45;&gt;Node3</title>
<path fill="none" stroke="midnightblue" d="M265.689,-117.043C286.054,-122.07 310.9,-128.203 332.475,-133.529"/>
<polygon fill="midnightblue" stroke="midnightblue" points="331.902,-136.992 342.449,-135.991 333.579,-130.196 331.902,-136.992"/>
</g>
<!-- Node4 -->
<g id="node4" class="node"><title>Node4</title>
<g id="a_node4"><a xlink:href="namespaceforcebalance_1_1nifty.html#a8d63c8ae9a67c66673a6cf81357f827d" target="_top" xlink:title="Returns a big number if we encounter NaN.">
<polygon fill="white" stroke="black" points="317.974,-97 317.974,-117 450.026,-117 450.026,-97 317.974,-97"/>
<text text-anchor="middle" x="384" y="-104" font-family="Ubuntu-R" font-size="10.00">forcebalance.nifty.floatornan</text>
</a>
</g>
</g>
<!-- Node2&#45;&gt;Node4 -->
<g id="edge4" class="edge"><title>Node2&#45;&gt;Node4</title>
<path fill="none" stroke="midnightblue" d="M282.042,-107C290.364,-107 299.04,-107 307.658,-107"/>
<polygon fill="midnightblue" stroke="midnightblue" points="307.723,-110.5 317.723,-107 307.723,-103.5 307.723,-110.5"/>
</g>
<!-- Node3&#45;&gt;Node1 -->
<g id="edge3" class="edge"><title>Node3&#45;&gt;Node1</title>
<path fill="none" stroke="midnightblue" d="M329.773,-142.524C285.742,-139.306 221.634,-133.831 166,-126 152.2,-124.058 137.413,-121.509 123.557,-118.912"/>
<polygon fill="midnightblue" stroke="midnightblue" points="124.138,-115.46 113.659,-117.02 122.824,-122.335 124.138,-115.46"/>
</g>
<!-- Node5 -->
<g id="node5" class="node"><title>Node5</title>
<g id="a_node5"><a xlink:href="namespaceforcebalance_1_1nifty.html#a6c9727360cdff8f3011a12cc54d0e86e" target="_top" xlink:title="Given any list, array, or matrix, return a 1&#45;row matrix.">
<polygon fill="white" stroke="black" points="499.747,-101 499.747,-121 606.253,-121 606.253,-101 499.747,-101"/>
<text text-anchor="middle" x="553" y="-108" font-family="Ubuntu-R" font-size="10.00">forcebalance.nifty.row</text>
</a>
</g>
</g>
<!-- Node4&#45;&gt;Node5 -->
<g id="edge5" class="edge"><title>Node4&#45;&gt;Node5</title>
<path fill="none" stroke="midnightblue" d="M450.045,-108.558C462.98,-108.868 476.538,-109.193 489.39,-109.5"/>
<polygon fill="midnightblue" stroke="midnightblue" points="489.439,-113.002 499.52,-109.743 489.607,-106.004 489.439,-113.002"/>
</g>
<!-- Node6 -->
<g id="node6" class="node"><title>Node6</title>
<g id="a_node6"><a xlink:href="namespaceforcebalance_1_1nifty.html#a7676236002c6a65ea7d2e69a09923889" target="_top" xlink:title="Given two vectors vec1 and vec2, project out the component of vec1 that is along the vec2&#45;direction...">
<polygon fill="white" stroke="black" points="656.029,-102 656.029,-122 801.971,-122 801.971,-102 656.029,-102"/>
<text text-anchor="middle" x="729" y="-109" font-family="Ubuntu-R" font-size="10.00">forcebalance.nifty.orthogonalize</text>
</a>
</g>
</g>
<!-- Node5&#45;&gt;Node6 -->
<g id="edge6" class="edge"><title>Node5&#45;&gt;Node6</title>
<path fill="none" stroke="midnightblue" d="M606.678,-111.303C619.033,-111.374 632.487,-111.451 645.791,-111.528"/>
<polygon fill="midnightblue" stroke="midnightblue" points="645.896,-115.028 655.916,-111.586 645.936,-108.028 645.896,-115.028"/>
</g>
<!-- Node8 -->
<g id="node8" class="node"><title>Node8</title>
<g id="a_node8"><a xlink:href="namespaceforcebalance_1_1nifty.html#a52114ceee9d55f94d9aecb3e176de294" target="_top" xlink:title="Given any list, array, or matrix, return a single&#45;index array.">
<polygon fill="white" stroke="black" points="331.858,-18 331.858,-38 436.142,-38 436.142,-18 331.858,-18"/>
<text text-anchor="middle" x="384" y="-25" font-family="Ubuntu-R" font-size="10.00">forcebalance.nifty.flat</text>
</a>
</g>
</g>
<!-- Node7&#45;&gt;Node8 -->
<g id="edge8" class="edge"><title>Node7&#45;&gt;Node8</title>
<path fill="none" stroke="midnightblue" d="M265.689,-56.9565C286.054,-51.9298 310.9,-45.7968 332.475,-40.4713"/>
<polygon fill="midnightblue" stroke="midnightblue" points="333.579,-43.804 342.449,-38.0094 331.902,-37.0079 333.579,-43.804"/>
</g>
<!-- Node9 -->
<g id="node9" class="node"><title>Node9</title>
<g id="a_node9"><a xlink:href="namespaceforcebalance_1_1nifty.html#a4c82187e92dfeb8a159f4aa44b501c40" target="_top" xlink:title="Invert a matrix using singular value decomposition.">
<polygon fill="white" stroke="black" points="486.413,-48 486.413,-68 619.587,-68 619.587,-48 486.413,-48"/>
<text text-anchor="middle" x="553" y="-55" font-family="Ubuntu-R" font-size="10.00">forcebalance.nifty.invert_svd</text>
</a>
</g>
</g>
<!-- Node8&#45;&gt;Node9 -->
<g id="edge9" class="edge"><title>Node8&#45;&gt;Node9</title>
<path fill="none" stroke="midnightblue" d="M436.468,-37.2458C452.103,-40.0544 469.504,-43.1804 485.958,-46.1362"/>
<polygon fill="midnightblue" stroke="midnightblue" points="485.595,-49.627 496.057,-47.9503 486.833,-42.7373 485.595,-49.627"/>
</g>
<!-- Node9&#45;&gt;Node7 -->
<g id="edge13" class="edge"><title>Node9&#45;&gt;Node7</title>
<path fill="none" stroke="midnightblue" d="M486.167,-59.8119C427.718,-61.4206 342.983,-63.7528 286.033,-65.3202"/>
<polygon fill="midnightblue" stroke="midnightblue" points="285.635,-61.8297 275.735,-65.6036 285.828,-68.8271 285.635,-61.8297"/>
</g>
<!-- Node10 -->
<g id="node10" class="node"><title>Node10</title>
<g id="a_node10"><a xlink:href="namespaceforcebalance_1_1nifty.html#aa9fb9c7c65231eca50a7afc04f489b64" target="_top" xlink:title="forcebalance.nifty.get\l_least_squares">
<polygon fill="white" stroke="black" points="677.412,-0 677.412,-32 780.588,-32 780.588,-0 677.412,-0"/>
<text text-anchor="start" x="685.412" y="-19" font-family="Ubuntu-R" font-size="10.00">forcebalance.nifty.get</text>
<text text-anchor="middle" x="729" y="-7" font-family="Ubuntu-R" font-size="10.00">_least_squares</text>
</a>
</g>
</g>
<!-- Node9&#45;&gt;Node10 -->
<g id="edge10" class="edge"><title>Node9&#45;&gt;Node10</title>
<path fill="none" stroke="midnightblue" d="M595.677,-47.94C617.143,-42.7587 643.715,-36.3447 667.402,-30.627"/>
<polygon fill="midnightblue" stroke="midnightblue" points="668.455,-33.9736 677.354,-28.2248 666.812,-27.169 668.455,-33.9736"/>
</g>
<!-- Node12 -->
<g id="node12" class="node"><title>Node12</title>
<g id="a_node12"><a xlink:href="namespaceforcebalance_1_1nifty.html#abb8f59044961a12588e0653c2baa8b01" target="_top" xlink:title="forcebalance.nifty.warn\l_press_key">
<polygon fill="white" stroke="black" points="673.528,-51 673.528,-83 784.472,-83 784.472,-51 673.528,-51"/>
<text text-anchor="start" x="681.528" y="-70" font-family="Ubuntu-R" font-size="10.00">forcebalance.nifty.warn</text>
<text text-anchor="middle" x="729" y="-58" font-family="Ubuntu-R" font-size="10.00">_press_key</text>
</a>
</g>
</g>
<!-- Node9&#45;&gt;Node12 -->
<g id="edge14" class="edge"><title>Node9&#45;&gt;Node12</title>
<path fill="none" stroke="midnightblue" d="M619.782,-61.4025C634.031,-62.1395 649.089,-62.9184 663.296,-63.6533"/>
<polygon fill="midnightblue" stroke="midnightblue" points="663.3,-67.158 673.467,-64.1793 663.662,-60.1674 663.3,-67.158"/>
</g>
<!-- Node10&#45;&gt;Node8 -->
<g id="edge11" class="edge"><title>Node10&#45;&gt;Node8</title>
<path fill="none" stroke="midnightblue" d="M677.139,-17.7794C615.715,-19.9283 512.461,-23.5407 446.589,-25.8453"/>
<polygon fill="midnightblue" stroke="midnightblue" points="446.222,-22.3559 436.351,-26.2035 446.467,-29.3516 446.222,-22.3559"/>
</g>
<!-- Node11 -->
<g id="node11" class="node"><title>Node11</title>
<g id="a_node11"><a xlink:href="namespaceforcebalance_1_1nifty.html#ad5ca60565c864b4245a8212fe9d92e10" target="_top" xlink:title="Compute the (cross) statistical inefficiency of (two) timeseries.">
<polygon fill="white" stroke="black" points="851.636,-0 851.636,-32 980.364,-32 980.364,-0 851.636,-0"/>
<text text-anchor="start" x="859.636" y="-19" font-family="Ubuntu-R" font-size="10.00">forcebalance.nifty.statistical</text>
<text text-anchor="middle" x="916" y="-7" font-family="Ubuntu-R" font-size="10.00">Inefficiency</text>
</a>
</g>
</g>
<!-- Node10&#45;&gt;Node11 -->
<g id="edge12" class="edge"><title>Node10&#45;&gt;Node11</title>
<path fill="none" stroke="midnightblue" d="M781.042,-16C799.706,-16 821.21,-16 841.45,-16"/>
<polygon fill="midnightblue" stroke="midnightblue" points="841.58,-19.5001 851.58,-16 841.58,-12.5001 841.58,-19.5001"/>
</g>
<!-- Node13 -->
<g id="node13" class="node"><title>Node13</title>
<g id="a_node13"><a xlink:href="namespaceforcebalance_1_1nifty.html#a2fc81730e7efa7d138dd86f733507bfc" target="_top" xlink:title="Similar to the bultin function map().">
<polygon fill="white" stroke="black" points="838.035,-57 838.035,-77 993.965,-77 993.965,-57 838.035,-57"/>
<text text-anchor="middle" x="916" y="-64" font-family="Ubuntu-R" font-size="10.00">forcebalance.nifty.concurrent_map</text>
</a>
</g>
</g>
<!-- Node12&#45;&gt;Node13 -->
<g id="edge15" class="edge"><title>Node12&#45;&gt;Node13</title>
<path fill="none" stroke="midnightblue" d="M784.506,-67C798.101,-67 813.023,-67 827.765,-67"/>
<polygon fill="midnightblue" stroke="midnightblue" points="827.925,-70.5001 837.925,-67 827.925,-63.5001 827.925,-70.5001"/>
</g>
</g>
</svg>
