<?xml version="1.0" encoding="UTF-8" standalone="no"?>
<!DOCTYPE svg PUBLIC "-//W3C//DTD SVG 1.1//EN"
 "http://www.w3.org/Graphics/SVG/1.1/DTD/svg11.dtd">
<!-- Generated by graphviz version 2.26.3 (20100126.1600)
 -->
<!-- Title: forcebalance.finite_difference.fdwrap_G Pages: 1 -->
<svg width="416pt" height="42pt"
 viewBox="0.00 0.00 416.00 42.00" xmlns="http://www.w3.org/2000/svg" xmlns:xlink="http://www.w3.org/1999/xlink">
<g id="graph1" class="graph" transform="scale(1 1) rotate(0) translate(4 38)">
<title>forcebalance.finite_difference.fdwrap_G</title>
<polygon fill="white" stroke="white" points="-4,5 -4,-38 413,-38 413,5 -4,5"/>
<!-- Node1 -->
<g id="node1" class="node"><title>Node1</title>
<polygon fill="#bfbfbf" stroke="black" points="0,-0 0,-34 116,-34 116,-0 0,-0"/>
<text text-anchor="start" x="8" y="-21" font-family="Ubuntu-R" font-size="10.00">forcebalance.finite</text>
<text text-anchor="middle" x="58" y="-8" font-family="Ubuntu-R" font-size="10.00">_difference.fdwrap_G</text>
</g>
<!-- Node2 -->
<g id="node3" class="node"><title>Node2</title>
<a xlink:href="namespaceforcebalance_1_1finite__difference.html#ae484c591ae8c4e5bae73a0ef2660c339" target="_top" xlink:title="A function wrapper for finite difference designed for differentiating &#39;get&#39;&#45;type functions.">
<polygon fill="white" stroke="black" points="152,-0 152,-34 256,-34 256,-0 152,-0"/>
<text text-anchor="start" x="160" y="-21" font-family="Ubuntu-R" font-size="10.00">forcebalance.finite</text>
<text text-anchor="middle" x="204" y="-8" font-family="Ubuntu-R" font-size="10.00">_difference.fdwrap</text>
</a>
</g>
<!-- Node1&#45;&gt;Node2 -->
<g id="edge2" class="edge"><title>Node1&#45;&gt;Node2</title>
<path fill="none" stroke="midnightblue" d="M116.123,-10.3762C124.49,-10.2325 133.129,-10.2115 141.576,-10.3134"/>
<polygon fill="midnightblue" stroke="midnightblue" points="141.689,-13.8159 151.751,-10.4985 141.817,-6.81707 141.689,-13.8159"/>
</g>
<!-- Node2&#45;&gt;Node1 -->
<g id="edge4" class="edge"><title>Node2&#45;&gt;Node1</title>
<path fill="none" stroke="midnightblue" d="M151.751,-23.5015C143.448,-23.7054 134.755,-23.7838 126.152,-23.7368"/>
<polygon fill="midnightblue" stroke="midnightblue" points="126.161,-20.2367 116.123,-23.6238 126.083,-27.2363 126.161,-20.2367"/>
</g>
<!-- Node3 -->
<g id="node6" class="node"><title>Node3</title>
<a xlink:href="namespaceforcebalance_1_1finite__difference.html#a77a0bc1ae3cbbcc8d38a0ef9ca877d6d" target="_top" xlink:title="A driver to fdwrap for Hessians (see documentation for fdwrap) Inputs: tgt = The Target containing th...">
<polygon fill="white" stroke="black" points="292,-0 292,-34 408,-34 408,-0 292,-0"/>
<text text-anchor="start" x="300" y="-21" font-family="Ubuntu-R" font-size="10.00">forcebalance.finite</text>
<text text-anchor="middle" x="350" y="-8" font-family="Ubuntu-R" font-size="10.00">_difference.fdwrap_H</text>
</a>
</g>
<!-- Node2&#45;&gt;Node3 -->
<g id="edge6" class="edge"><title>Node2&#45;&gt;Node3</title>
<path fill="none" stroke="midnightblue" d="M256.297,-17C264.589,-17 273.27,-17 281.86,-17"/>
<polygon fill="midnightblue" stroke="midnightblue" points="281.875,-20.5001 291.875,-17 281.875,-13.5001 281.875,-20.5001"/>
</g>
</g>
</svg>
