<?xml version="1.0" encoding="UTF-8" standalone="no"?>
<!DOCTYPE svg PUBLIC "-//W3C//DTD SVG 1.1//EN"
 "http://www.w3.org/Graphics/SVG/1.1/DTD/svg11.dtd">
<!-- Generated by graphviz version 2.32.0 (20130801.1845)
 -->
<!-- Title: forcebalance.abinitio.weighted_variance Pages: 1 -->
<svg width="484pt" height="40pt"
 viewBox="0.00 0.00 484.00 40.00" xmlns="http://www.w3.org/2000/svg" xmlns:xlink="http://www.w3.org/1999/xlink">
<g id="graph0" class="graph" transform="scale(1 1) rotate(0) translate(4 36)">
<title>forcebalance.abinitio.weighted_variance</title>
<polygon fill="white" stroke="white" points="-4,5 -4,-36 481,-36 481,5 -4,5"/>
<!-- Node1 -->
<g id="node1" class="node"><title>Node1</title>
<polygon fill="#bfbfbf" stroke="black" points="0.3595,-0 0.3595,-32 139.641,-32 139.641,-0 0.3595,-0"/>
<text text-anchor="start" x="8.3595" y="-19" font-family="Ubuntu-R" font-size="10.00">forcebalance.abinitio.weighted</text>
<text text-anchor="middle" x="70" y="-7" font-family="Ubuntu-R" font-size="10.00">_variance</text>
</g>
<!-- Node2 -->
<g id="node2" class="node"><title>Node2</title>
<g id="a_node2"><a xlink:href="namespaceforcebalance_1_1abinitio.html#ab9554761125a4ec7c3c13d6ae4ea537d" target="_top" xlink:title="A bit of a hack, since we have to subtract out two mean quantities to get Hessian elements...">
<polygon fill="white" stroke="black" points="176.359,-0 176.359,-32 315.64,-32 315.64,-0 176.359,-0"/>
<text text-anchor="start" x="184.359" y="-19" font-family="Ubuntu-R" font-size="10.00">forcebalance.abinitio.weighted</text>
<text text-anchor="middle" x="246" y="-7" font-family="Ubuntu-R" font-size="10.00">_variance2</text>
</a>
</g>
</g>
<!-- Node1&#45;&gt;Node2 -->
<g id="edge1" class="edge"><title>Node1&#45;&gt;Node2</title>
<path fill="none" stroke="midnightblue" d="M139.769,-16C148.372,-16 157.224,-16 165.967,-16"/>
<polygon fill="midnightblue" stroke="midnightblue" points="166.16,-19.5001 176.16,-16 166.16,-12.5001 166.16,-19.5001"/>
</g>
<!-- Node3 -->
<g id="node3" class="node"><title>Node3</title>
<g id="a_node3"><a xlink:href="namespaceforcebalance_1_1abinitio.html#aadd1d6c5a34c82d495d6be7380b73601" target="_top" xlink:title="This function builds an objective function (number) from the complicated polytensor and covariance ma...">
<polygon fill="white" stroke="black" points="352.408,-0 352.408,-32 475.592,-32 475.592,-0 352.408,-0"/>
<text text-anchor="start" x="360.408" y="-19" font-family="Ubuntu-R" font-size="10.00">forcebalance.abinitio.build</text>
<text text-anchor="middle" x="414" y="-7" font-family="Ubuntu-R" font-size="10.00">_objective</text>
</a>
</g>
</g>
<!-- Node2&#45;&gt;Node3 -->
<g id="edge2" class="edge"><title>Node2&#45;&gt;Node3</title>
<path fill="none" stroke="midnightblue" d="M315.957,-16C324.6,-16 333.453,-16 342.125,-16"/>
<polygon fill="midnightblue" stroke="midnightblue" points="342.199,-19.5001 352.199,-16 342.199,-12.5001 342.199,-19.5001"/>
</g>
</g>
</svg>
