<?xml version="1.0" encoding="UTF-8" standalone="no"?>
<!DOCTYPE svg PUBLIC "-//W3C//DTD SVG 1.1//EN"
 "http://www.w3.org/Graphics/SVG/1.1/DTD/svg11.dtd">
<!-- Generated by graphviz version 2.40.1 (20161225.0304)
 -->
<!-- Title: src.tinkerio.write_key Pages: 1 -->
<svg width="577pt" height="90pt"
 viewBox="0.00 0.00 577.00 90.10" xmlns="http://www.w3.org/2000/svg" xmlns:xlink="http://www.w3.org/1999/xlink">
<g id="graph0" class="graph" transform="scale(1 1) rotate(0) translate(4 86.1)">
<title>src.tinkerio.write_key</title>
<polygon fill="#ffffff" stroke="transparent" points="-4,4 -4,-86.1 573,-86.1 573,4 -4,4"/>
<!-- Node0 -->
<g id="node1" class="node">
<title>Node0</title>
<polygon fill="#bfbfbf" stroke="#000000" points="0,-50 0,-69 122,-69 122,-50 0,-50"/>
<text text-anchor="middle" x="61" y="-57" font-family="Ubuntu-R" font-size="10.00" fill="#000000">src.tinkerio.write_key</text>
</g>
<!-- Node1 -->
<g id="node2" class="node">
<title>Node1</title>
<g id="a_node2"><a xlink:href="namespacesrc_1_1nifty.html#a6ae2951ba2a22420a11abda6be7e5454" target="_top" xlink:title="src.nifty.warn_press_key">
<polygon fill="#ffffff" stroke="#000000" points="432,-47 432,-66 569,-66 569,-47 432,-47"/>
<text text-anchor="middle" x="500.5" y="-54" font-family="Ubuntu-R" font-size="10.00" fill="#000000">src.nifty.warn_press_key</text>
</a>
</g>
</g>
<!-- Node0&#45;&gt;Node1 -->
<g id="edge1" class="edge">
<title>Node0&#45;&gt;Node1</title>
<path fill="none" stroke="#191970" d="M100.3881,-69.0103C117.9127,-72.7754 138.8703,-76.6441 158,-78.5 252.6809,-87.6856 362.4725,-76.8584 431.7056,-67.4071"/>
<polygon fill="#191970" stroke="#191970" points="432.1984,-70.8723 441.6193,-66.0251 431.2319,-63.9393 432.1984,-70.8723"/>
</g>
<!-- Node2 -->
<g id="node3" class="node">
<title>Node2</title>
<g id="a_node3"><a xlink:href="namespacesrc_1_1nifty.html#a82f89e3045bdeed09a928bb9ce8b0dc1" target="_top" xlink:title="If trying to write to a symbolic link, remove it first. ">
<polygon fill="#ffffff" stroke="#000000" points="163.5,-50 163.5,-69 253.5,-69 253.5,-50 163.5,-50"/>
<text text-anchor="middle" x="208.5" y="-57" font-family="Ubuntu-R" font-size="10.00" fill="#000000">src.nifty.wopen</text>
</a>
</g>
</g>
<!-- Node0&#45;&gt;Node2 -->
<g id="edge2" class="edge">
<title>Node0&#45;&gt;Node2</title>
<path fill="none" stroke="#191970" d="M122.2719,-59.5C132.4935,-59.5 143.0445,-59.5 153.1085,-59.5"/>
<polygon fill="#191970" stroke="#191970" points="153.3856,-63.0001 163.3856,-59.5 153.3856,-56.0001 153.3856,-63.0001"/>
</g>
<!-- Node3 -->
<g id="node4" class="node">
<title>Node3</title>
<g id="a_node4"><a xlink:href="namespacesrc_1_1nifty.html#a78476d8a6da41a734762a4e44c339975" target="_top" xlink:title="See documentation for printcool; this is a nice way to print out keys/values in a dictionary...">
<polygon fill="#ffffff" stroke="#000000" points="158,-.5 158,-30.5 259,-30.5 259,-.5 158,-.5"/>
<text text-anchor="start" x="166" y="-18.5" font-family="Ubuntu-R" font-size="10.00" fill="#000000">src.nifty.printcool</text>
<text text-anchor="middle" x="208.5" y="-7.5" font-family="Ubuntu-R" font-size="10.00" fill="#000000">_dictionary</text>
</a>
</g>
</g>
<!-- Node0&#45;&gt;Node3 -->
<g id="edge3" class="edge">
<title>Node0&#45;&gt;Node3</title>
<path fill="none" stroke="#191970" d="M93.0053,-49.9527C109.1672,-45.1315 129.3173,-39.1206 148.2406,-33.4757"/>
<polygon fill="#191970" stroke="#191970" points="149.4146,-36.778 157.9968,-30.5654 147.4135,-30.0701 149.4146,-36.778"/>
</g>
<!-- Node4 -->
<g id="node5" class="node">
<title>Node4</title>
<g id="a_node5"><a xlink:href="namespacesrc_1_1nifty.html#a9bda70a78d0f5d31e10dfffaf85803c9" target="_top" xlink:title="Cool&#45;looking printout for slick formatting of output. ">
<polygon fill="#ffffff" stroke="#000000" points="295,-28 295,-47 396,-47 396,-28 295,-28"/>
<text text-anchor="middle" x="345.5" y="-35" font-family="Ubuntu-R" font-size="10.00" fill="#000000">src.nifty.printcool</text>
</a>
</g>
</g>
<!-- Node3&#45;&gt;Node4 -->
<g id="edge4" class="edge">
<title>Node3&#45;&gt;Node4</title>
<path fill="none" stroke="#191970" d="M259.1245,-23.6295C267.4519,-24.9667 276.1582,-26.3648 284.7026,-27.7369"/>
<polygon fill="#191970" stroke="#191970" points="284.1977,-31.2006 294.6262,-29.3305 285.3077,-24.2891 284.1977,-31.2006"/>
</g>
<!-- Node4&#45;&gt;Node1 -->
<g id="edge5" class="edge">
<title>Node4&#45;&gt;Node1</title>
<path fill="none" stroke="#191970" d="M396.2528,-43.7213C404.4389,-44.7248 413.0789,-45.7839 421.7399,-46.8455"/>
<polygon fill="#191970" stroke="#191970" points="421.5392,-50.347 431.8908,-48.0898 422.3909,-43.3991 421.5392,-50.347"/>
</g>
</g>
</svg>
