<?xml version="1.0" encoding="UTF-8" standalone="no"?>
<!DOCTYPE svg PUBLIC "-//W3C//DTD SVG 1.1//EN"
 "http://www.w3.org/Graphics/SVG/1.1/DTD/svg11.dtd">
<!-- Generated by graphviz version 2.28.0 (20111219.2309)
 -->
<!-- Title: forcebalance.nifty.printcool Pages: 1 -->
<svg width="1640pt" height="142pt"
 viewBox="0.00 0.00 1640.00 142.00" xmlns="http://www.w3.org/2000/svg" xmlns:xlink="http://www.w3.org/1999/xlink">
<g id="graph1" class="graph" transform="scale(1 1) rotate(0) translate(4 138)">
<title>forcebalance.nifty.printcool</title>
<polygon fill="white" stroke="white" points="-4,5 -4,-138 1637,-138 1637,5 -4,5"/>
<!-- Node1 -->
<g id="node1" class="node"><title>Node1</title>
<polygon fill="#bfbfbf" stroke="black" points="0,-84.5 0,-103.5 144,-103.5 144,-84.5 0,-84.5"/>
<text text-anchor="middle" x="72" y="-91.5" font-family="Ubuntu-R" font-size="10.00">forcebalance.nifty.printcool</text>
</g>
<!-- Node2 -->
<g id="node3" class="node"><title>Node2</title>
<a xlink:href="namespaceforcebalance_1_1nifty.html#abb8f59044961a12588e0653c2baa8b01" target="_top" xlink:title="forcebalance.nifty.warn\l_press_key">
<polygon fill="white" stroke="black" points="1267.5,-103 1267.5,-133 1392.5,-133 1392.5,-103 1267.5,-103"/>
<text text-anchor="start" x="1275.5" y="-121" font-family="Ubuntu-R" font-size="10.00">forcebalance.nifty.warn</text>
<text text-anchor="middle" x="1330" y="-110" font-family="Ubuntu-R" font-size="10.00">_press_key</text>
</a>
</g>
<!-- Node1&#45;&gt;Node2 -->
<g id="edge2" class="edge"><title>Node1&#45;&gt;Node2</title>
<path fill="none" stroke="midnightblue" d="M142.305,-103.533C212.24,-112.318 323.403,-124 420,-124 420,-124 420,-124 947,-124 1055.23,-124 1180.69,-121.562 1257.44,-119.795"/>
<polygon fill="midnightblue" stroke="midnightblue" points="1257.56,-123.293 1267.47,-119.561 1257.4,-116.295 1257.56,-123.293"/>
</g>
<!-- Node4 -->
<g id="node7" class="node"><title>Node4</title>
<a xlink:href="namespaceforcebalance_1_1nifty.html#a51180e960742cc7547749fdfb3513ec4" target="_top" xlink:title="See documentation for printcool; this is a nice way to print out keys/values in a dictionary...">
<polygon fill="white" stroke="black" points="180,-49 180,-79 324,-79 324,-49 180,-49"/>
<text text-anchor="start" x="188" y="-67" font-family="Ubuntu-R" font-size="10.00">forcebalance.nifty.printcool</text>
<text text-anchor="middle" x="252" y="-56" font-family="Ubuntu-R" font-size="10.00">_dictionary</text>
</a>
</g>
<!-- Node1&#45;&gt;Node4 -->
<g id="edge6" class="edge"><title>Node1&#45;&gt;Node4</title>
<path fill="none" stroke="midnightblue" d="M129.81,-84.4253C142.458,-82.2936 156.108,-79.993 169.529,-77.7311"/>
<polygon fill="midnightblue" stroke="midnightblue" points="170.447,-81.1258 179.726,-76.0124 169.284,-74.2231 170.447,-81.1258"/>
</g>
<!-- Node3 -->
<g id="node5" class="node"><title>Node3</title>
<a xlink:href="namespaceforcebalance_1_1nifty.html#a2fc81730e7efa7d138dd86f733507bfc" target="_top" xlink:title="Similar to the bultin function map(). ">
<polygon fill="white" stroke="black" points="1450,-108.5 1450,-127.5 1632,-127.5 1632,-108.5 1450,-108.5"/>
<text text-anchor="middle" x="1541" y="-115.5" font-family="Ubuntu-R" font-size="10.00">forcebalance.nifty.concurrent_map</text>
</a>
</g>
<!-- Node2&#45;&gt;Node3 -->
<g id="edge4" class="edge"><title>Node2&#45;&gt;Node3</title>
<path fill="none" stroke="midnightblue" d="M1392.58,-118C1407.43,-118 1423.69,-118 1439.81,-118"/>
<polygon fill="midnightblue" stroke="midnightblue" points="1439.82,-121.5 1449.82,-118 1439.82,-114.5 1439.82,-121.5"/>
</g>
<!-- Node5 -->
<g id="node9" class="node"><title>Node5</title>
<a xlink:href="namespaceforcebalance_1_1nifty.html#a3f1c7a1af9d35d5d1693074bc6f5497c" target="_top" xlink:title="ONLY matches integers! If you have a decimal point? None shall pass! ">
<polygon fill="white" stroke="black" points="360,-54.5 360,-73.5 482,-73.5 482,-54.5 360,-54.5"/>
<text text-anchor="middle" x="421" y="-61.5" font-family="Ubuntu-R" font-size="10.00">forcebalance.nifty.isint</text>
</a>
</g>
<!-- Node4&#45;&gt;Node5 -->
<g id="edge8" class="edge"><title>Node4&#45;&gt;Node5</title>
<path fill="none" stroke="midnightblue" d="M324.307,-64C332.753,-64 341.369,-64 349.799,-64"/>
<polygon fill="midnightblue" stroke="midnightblue" points="349.965,-67.5001 359.965,-64 349.965,-60.5001 349.965,-67.5001"/>
</g>
<!-- Node7 -->
<g id="node13" class="node"><title>Node7</title>
<a xlink:href="namespaceforcebalance_1_1nifty.html#a8e3ef0108b9d37b82ba0dced7c6037ae" target="_top" xlink:title="Matches ANY number; it can be a decimal, scientific notation, what have you CAUTION &#45; this will also ...">
<polygon fill="white" stroke="black" points="702.5,-19.5 702.5,-38.5 833.5,-38.5 833.5,-19.5 702.5,-19.5"/>
<text text-anchor="middle" x="768" y="-26.5" font-family="Ubuntu-R" font-size="10.00">forcebalance.nifty.isfloat</text>
</a>
</g>
<!-- Node4&#45;&gt;Node7 -->
<g id="edge38" class="edge"><title>Node4&#45;&gt;Node7</title>
<path fill="none" stroke="midnightblue" d="M324.195,-50.1424C336.115,-48.172 348.382,-46.3576 360,-45 475.347,-31.5221 610.195,-28.7521 692.056,-28.4981"/>
<polygon fill="midnightblue" stroke="midnightblue" points="692.27,-31.9978 702.263,-28.4787 692.256,-24.9978 692.27,-31.9978"/>
</g>
<!-- Node6 -->
<g id="node11" class="node"><title>Node6</title>
<a xlink:href="namespaceforcebalance_1_1nifty.html#a09263927eaec9deff283fbf1a820242f" target="_top" xlink:title="Matches things with a decimal only; see isint and isfloat. ">
<polygon fill="white" stroke="black" points="518,-76.5 518,-95.5 666,-95.5 666,-76.5 518,-76.5"/>
<text text-anchor="middle" x="592" y="-83.5" font-family="Ubuntu-R" font-size="10.00">forcebalance.nifty.isdecimal</text>
</a>
</g>
<!-- Node5&#45;&gt;Node6 -->
<g id="edge10" class="edge"><title>Node5&#45;&gt;Node6</title>
<path fill="none" stroke="midnightblue" d="M482.059,-71.8183C490.378,-72.9013 499.043,-74.0293 507.692,-75.1551"/>
<polygon fill="midnightblue" stroke="midnightblue" points="507.447,-78.6527 517.815,-76.4729 508.35,-71.7113 507.447,-78.6527"/>
</g>
<!-- Node6&#45;&gt;Node7 -->
<g id="edge12" class="edge"><title>Node6&#45;&gt;Node7</title>
<path fill="none" stroke="midnightblue" d="M622.124,-76.4595C651.232,-66.924 696.159,-52.2064 728.262,-41.6901"/>
<polygon fill="midnightblue" stroke="midnightblue" points="729.368,-45.0109 737.781,-38.5716 727.189,-38.3587 729.368,-45.0109"/>
</g>
<!-- Node11 -->
<g id="node22" class="node"><title>Node11</title>
<a xlink:href="namespaceforcebalance_1_1nifty.html#afb3f205bce4984856e766af7e9fdaca8" target="_top" xlink:title="Given any list, array, or matrix, return a 1&#45;column matrix. ">
<polygon fill="white" stroke="black" points="710,-76.5 710,-95.5 826,-95.5 826,-76.5 710,-76.5"/>
<text text-anchor="middle" x="768" y="-83.5" font-family="Ubuntu-R" font-size="10.00">forcebalance.nifty.col</text>
</a>
</g>
<!-- Node6&#45;&gt;Node11 -->
<g id="edge22" class="edge"><title>Node6&#45;&gt;Node11</title>
<path fill="none" stroke="midnightblue" d="M666.035,-86C677.1,-86 688.475,-86 699.418,-86"/>
<polygon fill="midnightblue" stroke="midnightblue" points="699.752,-89.5001 709.752,-86 699.752,-82.5001 699.752,-89.5001"/>
</g>
<!-- Node7&#45;&gt;Node5 -->
<g id="edge14" class="edge"><title>Node7&#45;&gt;Node5</title>
<path fill="none" stroke="midnightblue" d="M702.323,-35.5614C642.453,-41.6352 553.656,-50.6436 492.11,-56.8874"/>
<polygon fill="midnightblue" stroke="midnightblue" points="491.69,-53.4119 482.094,-57.9035 492.397,-60.3762 491.69,-53.4119"/>
</g>
<!-- Node8 -->
<g id="node16" class="node"><title>Node8</title>
<a xlink:href="namespaceforcebalance_1_1nifty.html#a8d63c8ae9a67c66673a6cf81357f827d" target="_top" xlink:title="Returns a big number if we encounter NaN. ">
<polygon fill="white" stroke="black" points="870,-0.5 870,-19.5 1022,-19.5 1022,-0.5 870,-0.5"/>
<text text-anchor="middle" x="946" y="-7.5" font-family="Ubuntu-R" font-size="10.00">forcebalance.nifty.floatornan</text>
</a>
</g>
<!-- Node7&#45;&gt;Node8 -->
<g id="edge16" class="edge"><title>Node7&#45;&gt;Node8</title>
<path fill="none" stroke="midnightblue" d="M833.537,-22.033C841.998,-21.1195 850.772,-20.1723 859.513,-19.2287"/>
<polygon fill="midnightblue" stroke="midnightblue" points="860.171,-22.6781 869.738,-18.1249 859.42,-15.7185 860.171,-22.6781"/>
</g>
<!-- Node9 -->
<g id="node18" class="node"><title>Node9</title>
<a xlink:href="namespaceforcebalance_1_1nifty.html#a6c9727360cdff8f3011a12cc54d0e86e" target="_top" xlink:title="Given any list, array, or matrix, return a 1&#45;row matrix. ">
<polygon fill="white" stroke="black" points="1074.5,-0.5 1074.5,-19.5 1193.5,-19.5 1193.5,-0.5 1074.5,-0.5"/>
<text text-anchor="middle" x="1134" y="-7.5" font-family="Ubuntu-R" font-size="10.00">forcebalance.nifty.row</text>
</a>
</g>
<!-- Node8&#45;&gt;Node9 -->
<g id="edge18" class="edge"><title>Node8&#45;&gt;Node9</title>
<path fill="none" stroke="midnightblue" d="M1022.12,-10C1036.02,-10 1050.47,-10 1064.17,-10"/>
<polygon fill="midnightblue" stroke="midnightblue" points="1064.48,-13.5001 1074.48,-10 1064.48,-6.5001 1064.48,-13.5001"/>
</g>
<!-- Node10 -->
<g id="node20" class="node"><title>Node10</title>
<a xlink:href="namespaceforcebalance_1_1nifty.html#a7676236002c6a65ea7d2e69a09923889" target="_top" xlink:title="Given two vectors vec1 and vec2, project out the component of vec1 that is along the vec2&#45;direction...">
<polygon fill="white" stroke="black" points="1246,-0.5 1246,-19.5 1414,-19.5 1414,-0.5 1246,-0.5"/>
<text text-anchor="middle" x="1330" y="-7.5" font-family="Ubuntu-R" font-size="10.00">forcebalance.nifty.orthogonalize</text>
</a>
</g>
<!-- Node9&#45;&gt;Node10 -->
<g id="edge20" class="edge"><title>Node9&#45;&gt;Node10</title>
<path fill="none" stroke="midnightblue" d="M1193.73,-10C1206.92,-10 1221.24,-10 1235.46,-10"/>
<polygon fill="midnightblue" stroke="midnightblue" points="1235.78,-13.5001 1245.78,-10 1235.78,-6.5001 1235.78,-13.5001"/>
</g>
<!-- Node12 -->
<g id="node24" class="node"><title>Node12</title>
<a xlink:href="namespaceforcebalance_1_1nifty.html#a52114ceee9d55f94d9aecb3e176de294" target="_top" xlink:title="Given any list, array, or matrix, return a single&#45;index array. ">
<polygon fill="white" stroke="black" points="887,-38.5 887,-57.5 1005,-57.5 1005,-38.5 887,-38.5"/>
<text text-anchor="middle" x="946" y="-45.5" font-family="Ubuntu-R" font-size="10.00">forcebalance.nifty.flat</text>
</a>
</g>
<!-- Node11&#45;&gt;Node12 -->
<g id="edge24" class="edge"><title>Node11&#45;&gt;Node12</title>
<path fill="none" stroke="midnightblue" d="M813.412,-76.411C836.951,-71.3287 866.057,-65.0446 890.905,-59.6797"/>
<polygon fill="midnightblue" stroke="midnightblue" points="891.871,-63.0518 900.907,-57.5201 890.394,-56.2094 891.871,-63.0518"/>
</g>
<!-- Node13 -->
<g id="node26" class="node"><title>Node13</title>
<a xlink:href="namespaceforcebalance_1_1nifty.html#a4c82187e92dfeb8a159f4aa44b501c40" target="_top" xlink:title="Invert a matrix using singular value decomposition. ">
<polygon fill="white" stroke="black" points="1058,-76.5 1058,-95.5 1210,-95.5 1210,-76.5 1058,-76.5"/>
<text text-anchor="middle" x="1134" y="-83.5" font-family="Ubuntu-R" font-size="10.00">forcebalance.nifty.invert_svd</text>
</a>
</g>
<!-- Node12&#45;&gt;Node13 -->
<g id="edge26" class="edge"><title>Node12&#45;&gt;Node13</title>
<path fill="none" stroke="midnightblue" d="M993.936,-57.589C1019.03,-62.7165 1050.12,-69.0672 1076.53,-74.4632"/>
<polygon fill="midnightblue" stroke="midnightblue" points="1075.9,-77.9074 1086.4,-76.4799 1077.3,-71.049 1075.9,-77.9074"/>
</g>
<!-- Node13&#45;&gt;Node2 -->
<g id="edge36" class="edge"><title>Node13&#45;&gt;Node2</title>
<path fill="none" stroke="midnightblue" d="M1192.68,-95.5144C1213.03,-98.8703 1236.15,-102.684 1257.5,-106.206"/>
<polygon fill="midnightblue" stroke="midnightblue" points="1257.05,-109.68 1267.49,-107.854 1258.19,-102.773 1257.05,-109.68"/>
</g>
<!-- Node13&#45;&gt;Node11 -->
<g id="edge34" class="edge"><title>Node13&#45;&gt;Node11</title>
<path fill="none" stroke="midnightblue" d="M1057.75,-86C992.602,-86 899.225,-86 836.463,-86"/>
<polygon fill="midnightblue" stroke="midnightblue" points="836.275,-82.5001 826.275,-86 836.275,-89.5001 836.275,-82.5001"/>
</g>
<!-- Node14 -->
<g id="node28" class="node"><title>Node14</title>
<a xlink:href="namespaceforcebalance_1_1nifty.html#aa9fb9c7c65231eca50a7afc04f489b64" target="_top" xlink:title="forcebalance.nifty.get\l_least_squares">
<polygon fill="white" stroke="black" points="1270.5,-49 1270.5,-79 1389.5,-79 1389.5,-49 1270.5,-49"/>
<text text-anchor="start" x="1278.5" y="-67" font-family="Ubuntu-R" font-size="10.00">forcebalance.nifty.get</text>
<text text-anchor="middle" x="1330" y="-56" font-family="Ubuntu-R" font-size="10.00">_least_squares</text>
</a>
</g>
<!-- Node13&#45;&gt;Node14 -->
<g id="edge28" class="edge"><title>Node13&#45;&gt;Node14</title>
<path fill="none" stroke="midnightblue" d="M1210.01,-77.4942C1226.61,-75.6117 1244.11,-73.6264 1260.44,-71.7748"/>
<polygon fill="midnightblue" stroke="midnightblue" points="1260.89,-75.2459 1270.44,-70.6413 1260.11,-68.2905 1260.89,-75.2459"/>
</g>
<!-- Node14&#45;&gt;Node12 -->
<g id="edge30" class="edge"><title>Node14&#45;&gt;Node12</title>
<path fill="none" stroke="midnightblue" d="M1270.44,-61.5471C1201.76,-58.6707 1088.1,-53.9101 1015.43,-50.8663"/>
<polygon fill="midnightblue" stroke="midnightblue" points="1015.16,-47.3517 1005.02,-50.4301 1014.86,-54.3456 1015.16,-47.3517"/>
</g>
<!-- Node15 -->
<g id="node31" class="node"><title>Node15</title>
<a xlink:href="namespaceforcebalance_1_1nifty.html#ad5ca60565c864b4245a8212fe9d92e10" target="_top" xlink:title="Compute the (cross) statistical inefficiency of (two) timeseries. ">
<polygon fill="white" stroke="black" points="1466.5,-49 1466.5,-79 1615.5,-79 1615.5,-49 1466.5,-49"/>
<text text-anchor="start" x="1474.5" y="-67" font-family="Ubuntu-R" font-size="10.00">forcebalance.nifty.statistical</text>
<text text-anchor="middle" x="1541" y="-56" font-family="Ubuntu-R" font-size="10.00">Inefficiency</text>
</a>
</g>
<!-- Node14&#45;&gt;Node15 -->
<g id="edge32" class="edge"><title>Node14&#45;&gt;Node15</title>
<path fill="none" stroke="midnightblue" d="M1389.77,-64C1410.4,-64 1433.99,-64 1456.26,-64"/>
<polygon fill="midnightblue" stroke="midnightblue" points="1456.39,-67.5001 1466.39,-64 1456.39,-60.5001 1456.39,-67.5001"/>
</g>
</g>
</svg>
