<?xml version="1.0" encoding="UTF-8" standalone="no"?>
<!DOCTYPE svg PUBLIC "-//W3C//DTD SVG 1.1//EN"
 "http://www.w3.org/Graphics/SVG/1.1/DTD/svg11.dtd">
<!-- Generated by graphviz version 2.26.3 (20100126.1600)
 -->
<!-- Title: forcebalance.contact.atom_distances Pages: 1 -->
<svg width="346pt" height="42pt"
 viewBox="0.00 0.00 346.00 42.00" xmlns="http://www.w3.org/2000/svg" xmlns:xlink="http://www.w3.org/1999/xlink">
<g id="graph1" class="graph" transform="scale(1 1) rotate(0) translate(4 38)">
<title>forcebalance.contact.atom_distances</title>
<polygon fill="white" stroke="white" points="-4,5 -4,-38 343,-38 343,5 -4,5"/>
<!-- Node1 -->
<g id="node1" class="node"><title>Node1</title>
<polygon fill="#bfbfbf" stroke="black" points="0.5,-0 0.5,-34 145.5,-34 145.5,-0 0.5,-0"/>
<text text-anchor="start" x="8.5" y="-21" font-family="Ubuntu-R" font-size="10.00">forcebalance.contact.atom</text>
<text text-anchor="middle" x="73" y="-8" font-family="Ubuntu-R" font-size="10.00">_distances</text>
</g>
<!-- Node2 -->
<g id="node3" class="node"><title>Node2</title>
<a xlink:href="namespaceforcebalance_1_1contact.html#acffb04a66580454b8a87648faa1c5c16" target="_top" xlink:title="For each frame in xyzlist, and for each pair of residues in the array contact, compute the distance b...">
<polygon fill="white" stroke="black" points="182.5,-0 182.5,-34 337.5,-34 337.5,-0 182.5,-0"/>
<text text-anchor="start" x="190.5" y="-21" font-family="Ubuntu-R" font-size="10.00">forcebalance.contact.residue</text>
<text text-anchor="middle" x="260" y="-8" font-family="Ubuntu-R" font-size="10.00">_distances</text>
</a>
</g>
<!-- Node1&#45;&gt;Node2 -->
<g id="edge2" class="edge"><title>Node1&#45;&gt;Node2</title>
<path fill="none" stroke="midnightblue" d="M145.567,-17C154.294,-17 163.278,-17 172.192,-17"/>
<polygon fill="midnightblue" stroke="midnightblue" points="172.21,-20.5001 182.21,-17 172.21,-13.5001 172.21,-20.5001"/>
</g>
</g>
</svg>
